<?xml version="1.0" encoding="utf-8" standalone="no"?>
<!DOCTYPE svg PUBLIC "-//W3C//DTD SVG 1.1//EN"
  "http://www.w3.org/Graphics/SVG/1.1/DTD/svg11.dtd">
<svg height="432pt" version="1.1" viewBox="0 0 792 432" width="792pt" xmlns="http://www.w3.org/2000/svg" xmlns:xlink="http://www.w3.org/1999/xlink">
 <metadata>
  <rdf:RDF xmlns:cc="http://creativecommons.org/ns#" xmlns:dc="http://purl.org/dc/elements/1.1/" xmlns:rdf="http://www.w3.org/1999/02/22-rdf-syntax-ns#">
   <cc:Work>
    <dc:type rdf:resource="http://purl.org/dc/dcmitype/StillImage"/>
    <dc:date>2021-10-15T01:35:47.484871</dc:date>
    <dc:format>image/svg+xml</dc:format>
    <dc:creator>
     <cc:Agent>
      <dc:title>Matplotlib v3.4.3, https://matplotlib.org/</dc:title>
     </cc:Agent>
    </dc:creator>
   </cc:Work>
  </rdf:RDF>
 </metadata>
 <defs>
  <style type="text/css">*{stroke-linecap:butt;stroke-linejoin:round;}</style>
 </defs>
 <g id="figure_1">
  <g id="patch_1">
   <path d="M 0 432 
L 792 432 
L 792 0 
L 0 0 
z
" style="fill:none;"/>
  </g>
  <g id="axes_1">
   <g id="patch_2">
    <path d="M 99 378 
L 712.8 378 
L 712.8 51.84 
L 99 51.84 
z
" style="fill:#ffffff;"/>
   </g>
   <g id="PolyCollection_1">
    <path clip-path="url(#p673952e359)" d="M 126.9 350.42237 
L 126.9 345.129485 
L 312.9 344.830312 
L 467.9 337.11058 
L 622.9 275.236314 
L 684.9 219.89 
L 684.9 220.181791 
L 684.9 220.181791 
L 622.9 277.729085 
L 467.9 340.989478 
L 312.9 345.889323 
L 126.9 350.42237 
z
" style="fill:#1f77b4;fill-opacity:0.3;"/>
   </g>
   <g id="PolyCollection_2">
    <path clip-path="url(#p673952e359)" d="M 126.9 348.040592 
L 126.9 346.59333 
L 312.9 346.202615 
L 467.9 319.476083 
L 622.9 207.293624 
L 684.9 149.148453 
L 684.9 150.601518 
L 684.9 150.601518 
L 622.9 210.113453 
L 467.9 322.553702 
L 312.9 346.465249 
L 126.9 348.040592 
z
" style="fill:#ff7f0e;fill-opacity:0.3;"/>
   </g>
   <g id="PolyCollection_3">
    <path clip-path="url(#p673952e359)" d="M 126.9 342.594919 
L 126.9 342.035522 
L 312.9 341.384182 
L 467.9 306.434099 
L 622.9 165.566799 
L 684.9 104.372812 
L 684.9 105.80907 
L 684.9 105.80907 
L 622.9 168.102303 
L 467.9 307.026897 
L 312.9 342.052691 
L 126.9 342.594919 
z
" style="fill:#2ca02c;fill-opacity:0.3;"/>
   </g>
   <g id="PolyCollection_4">
    <path clip-path="url(#p673952e359)" d="M 126.9 350.82 
L 126.9 346.710406 
L 312.9 347.557197 
L 467.9 297.853878 
L 622.9 146.087098 
L 684.9 79.02 
L 684.9 81.239441 
L 684.9 81.239441 
L 622.9 148.955761 
L 467.9 299.43719 
L 312.9 348.419061 
L 126.9 350.82 
z
" style="fill:#d62728;fill-opacity:0.3;"/>
   </g>
   <g id="matplotlib.axis_1">
    <g id="xtick_1">
     <g id="line2d_1">
      <defs>
       <path d="M 0 0 
L 0 3.5 
" id="m78a335633e" style="stroke:#000000;stroke-width:0.8;"/>
      </defs>
      <g>
       <use style="stroke:#000000;stroke-width:0.8;" x="126.9" xlink:href="#m78a335633e" y="378"/>
      </g>
     </g>
     <g id="text_1">
      <!-- 4 -->
      <g transform="translate(123.71875 392.598437)scale(0.1 -0.1)">
       <defs>
        <path d="M 2419 4116 
L 825 1625 
L 2419 1625 
L 2419 4116 
z
M 2253 4666 
L 3047 4666 
L 3047 1625 
L 3713 1625 
L 3713 1100 
L 3047 1100 
L 3047 0 
L 2419 0 
L 2419 1100 
L 313 1100 
L 313 1709 
L 2253 4666 
z
" id="DejaVuSans-34" transform="scale(0.015625)"/>
       </defs>
       <use xlink:href="#DejaVuSans-34"/>
      </g>
     </g>
    </g>
    <g id="xtick_2">
     <g id="line2d_2">
      <g>
       <use style="stroke:#000000;stroke-width:0.8;" x="312.9" xlink:href="#m78a335633e" y="378"/>
      </g>
     </g>
     <g id="text_2">
      <!-- 10 -->
      <g transform="translate(306.5375 392.598437)scale(0.1 -0.1)">
       <defs>
        <path d="M 794 531 
L 1825 531 
L 1825 4091 
L 703 3866 
L 703 4441 
L 1819 4666 
L 2450 4666 
L 2450 531 
L 3481 531 
L 3481 0 
L 794 0 
L 794 531 
z
" id="DejaVuSans-31" transform="scale(0.015625)"/>
        <path d="M 2034 4250 
Q 1547 4250 1301 3770 
Q 1056 3291 1056 2328 
Q 1056 1369 1301 889 
Q 1547 409 2034 409 
Q 2525 409 2770 889 
Q 3016 1369 3016 2328 
Q 3016 3291 2770 3770 
Q 2525 4250 2034 4250 
z
M 2034 4750 
Q 2819 4750 3233 4129 
Q 3647 3509 3647 2328 
Q 3647 1150 3233 529 
Q 2819 -91 2034 -91 
Q 1250 -91 836 529 
Q 422 1150 422 2328 
Q 422 3509 836 4129 
Q 1250 4750 2034 4750 
z
" id="DejaVuSans-30" transform="scale(0.015625)"/>
       </defs>
       <use xlink:href="#DejaVuSans-31"/>
       <use x="63.623047" xlink:href="#DejaVuSans-30"/>
      </g>
     </g>
    </g>
    <g id="xtick_3">
     <g id="line2d_3">
      <g>
       <use style="stroke:#000000;stroke-width:0.8;" x="467.9" xlink:href="#m78a335633e" y="378"/>
      </g>
     </g>
     <g id="text_3">
      <!-- 15 -->
      <g transform="translate(461.5375 392.598437)scale(0.1 -0.1)">
       <defs>
        <path d="M 691 4666 
L 3169 4666 
L 3169 4134 
L 1269 4134 
L 1269 2991 
Q 1406 3038 1543 3061 
Q 1681 3084 1819 3084 
Q 2600 3084 3056 2656 
Q 3513 2228 3513 1497 
Q 3513 744 3044 326 
Q 2575 -91 1722 -91 
Q 1428 -91 1123 -41 
Q 819 9 494 109 
L 494 744 
Q 775 591 1075 516 
Q 1375 441 1709 441 
Q 2250 441 2565 725 
Q 2881 1009 2881 1497 
Q 2881 1984 2565 2268 
Q 2250 2553 1709 2553 
Q 1456 2553 1204 2497 
Q 953 2441 691 2322 
L 691 4666 
z
" id="DejaVuSans-35" transform="scale(0.015625)"/>
       </defs>
       <use xlink:href="#DejaVuSans-31"/>
       <use x="63.623047" xlink:href="#DejaVuSans-35"/>
      </g>
     </g>
    </g>
    <g id="xtick_4">
     <g id="line2d_4">
      <g>
       <use style="stroke:#000000;stroke-width:0.8;" x="622.9" xlink:href="#m78a335633e" y="378"/>
      </g>
     </g>
     <g id="text_4">
      <!-- 20 -->
      <g transform="translate(616.5375 392.598437)scale(0.1 -0.1)">
       <defs>
        <path d="M 1228 531 
L 3431 531 
L 3431 0 
L 469 0 
L 469 531 
Q 828 903 1448 1529 
Q 2069 2156 2228 2338 
Q 2531 2678 2651 2914 
Q 2772 3150 2772 3378 
Q 2772 3750 2511 3984 
Q 2250 4219 1831 4219 
Q 1534 4219 1204 4116 
Q 875 4013 500 3803 
L 500 4441 
Q 881 4594 1212 4672 
Q 1544 4750 1819 4750 
Q 2544 4750 2975 4387 
Q 3406 4025 3406 3419 
Q 3406 3131 3298 2873 
Q 3191 2616 2906 2266 
Q 2828 2175 2409 1742 
Q 1991 1309 1228 531 
z
" id="DejaVuSans-32" transform="scale(0.015625)"/>
       </defs>
       <use xlink:href="#DejaVuSans-32"/>
       <use x="63.623047" xlink:href="#DejaVuSans-30"/>
      </g>
     </g>
    </g>
    <g id="xtick_5">
     <g id="line2d_5">
      <g>
       <use style="stroke:#000000;stroke-width:0.8;" x="684.9" xlink:href="#m78a335633e" y="378"/>
      </g>
     </g>
     <g id="text_5">
      <!-- 22 -->
      <g transform="translate(678.5375 392.598437)scale(0.1 -0.1)">
       <use xlink:href="#DejaVuSans-32"/>
       <use x="63.623047" xlink:href="#DejaVuSans-32"/>
      </g>
     </g>
    </g>
    <g id="xtick_6">
     <g id="line2d_6">
      <g>
       <use style="stroke:#000000;stroke-width:0.8;" x="126.9" xlink:href="#m78a335633e" y="378"/>
      </g>
     </g>
     <g id="text_6">
      <!-- 4 -->
      <g transform="translate(123.71875 392.598437)scale(0.1 -0.1)">
       <use xlink:href="#DejaVuSans-34"/>
      </g>
     </g>
    </g>
    <g id="xtick_7">
     <g id="line2d_7">
      <g>
       <use style="stroke:#000000;stroke-width:0.8;" x="312.9" xlink:href="#m78a335633e" y="378"/>
      </g>
     </g>
     <g id="text_7">
      <!-- 10 -->
      <g transform="translate(306.5375 392.598437)scale(0.1 -0.1)">
       <use xlink:href="#DejaVuSans-31"/>
       <use x="63.623047" xlink:href="#DejaVuSans-30"/>
      </g>
     </g>
    </g>
    <g id="xtick_8">
     <g id="line2d_8">
      <g>
       <use style="stroke:#000000;stroke-width:0.8;" x="467.9" xlink:href="#m78a335633e" y="378"/>
      </g>
     </g>
     <g id="text_8">
      <!-- 15 -->
      <g transform="translate(461.5375 392.598437)scale(0.1 -0.1)">
       <use xlink:href="#DejaVuSans-31"/>
       <use x="63.623047" xlink:href="#DejaVuSans-35"/>
      </g>
     </g>
    </g>
    <g id="xtick_9">
     <g id="line2d_9">
      <g>
       <use style="stroke:#000000;stroke-width:0.8;" x="622.9" xlink:href="#m78a335633e" y="378"/>
      </g>
     </g>
     <g id="text_9">
      <!-- 20 -->
      <g transform="translate(616.5375 392.598437)scale(0.1 -0.1)">
       <use xlink:href="#DejaVuSans-32"/>
       <use x="63.623047" xlink:href="#DejaVuSans-30"/>
      </g>
     </g>
    </g>
    <g id="xtick_10">
     <g id="line2d_10">
      <g>
       <use style="stroke:#000000;stroke-width:0.8;" x="684.9" xlink:href="#m78a335633e" y="378"/>
      </g>
     </g>
     <g id="text_10">
      <!-- 22 -->
      <g transform="translate(678.5375 392.598437)scale(0.1 -0.1)">
       <use xlink:href="#DejaVuSans-32"/>
       <use x="63.623047" xlink:href="#DejaVuSans-32"/>
      </g>
     </g>
    </g>
    <g id="xtick_11">
     <g id="line2d_11">
      <g>
       <use style="stroke:#000000;stroke-width:0.8;" x="126.9" xlink:href="#m78a335633e" y="378"/>
      </g>
     </g>
     <g id="text_11">
      <!-- 4 -->
      <g transform="translate(123.71875 392.598437)scale(0.1 -0.1)">
       <use xlink:href="#DejaVuSans-34"/>
      </g>
     </g>
    </g>
    <g id="xtick_12">
     <g id="line2d_12">
      <g>
       <use style="stroke:#000000;stroke-width:0.8;" x="312.9" xlink:href="#m78a335633e" y="378"/>
      </g>
     </g>
     <g id="text_12">
      <!-- 10 -->
      <g transform="translate(306.5375 392.598437)scale(0.1 -0.1)">
       <use xlink:href="#DejaVuSans-31"/>
       <use x="63.623047" xlink:href="#DejaVuSans-30"/>
      </g>
     </g>
    </g>
    <g id="xtick_13">
     <g id="line2d_13">
      <g>
       <use style="stroke:#000000;stroke-width:0.8;" x="467.9" xlink:href="#m78a335633e" y="378"/>
      </g>
     </g>
     <g id="text_13">
      <!-- 15 -->
      <g transform="translate(461.5375 392.598437)scale(0.1 -0.1)">
       <use xlink:href="#DejaVuSans-31"/>
       <use x="63.623047" xlink:href="#DejaVuSans-35"/>
      </g>
     </g>
    </g>
    <g id="xtick_14">
     <g id="line2d_14">
      <g>
       <use style="stroke:#000000;stroke-width:0.8;" x="622.9" xlink:href="#m78a335633e" y="378"/>
      </g>
     </g>
     <g id="text_14">
      <!-- 20 -->
      <g transform="translate(616.5375 392.598437)scale(0.1 -0.1)">
       <use xlink:href="#DejaVuSans-32"/>
       <use x="63.623047" xlink:href="#DejaVuSans-30"/>
      </g>
     </g>
    </g>
    <g id="xtick_15">
     <g id="line2d_15">
      <g>
       <use style="stroke:#000000;stroke-width:0.8;" x="684.9" xlink:href="#m78a335633e" y="378"/>
      </g>
     </g>
     <g id="text_15">
      <!-- 22 -->
      <g transform="translate(678.5375 392.598437)scale(0.1 -0.1)">
       <use xlink:href="#DejaVuSans-32"/>
       <use x="63.623047" xlink:href="#DejaVuSans-32"/>
      </g>
     </g>
    </g>
    <g id="xtick_16">
     <g id="line2d_16">
      <g>
       <use style="stroke:#000000;stroke-width:0.8;" x="126.9" xlink:href="#m78a335633e" y="378"/>
      </g>
     </g>
     <g id="text_16">
      <!-- 4 -->
      <g transform="translate(123.71875 392.598437)scale(0.1 -0.1)">
       <use xlink:href="#DejaVuSans-34"/>
      </g>
     </g>
    </g>
    <g id="xtick_17">
     <g id="line2d_17">
      <g>
       <use style="stroke:#000000;stroke-width:0.8;" x="312.9" xlink:href="#m78a335633e" y="378"/>
      </g>
     </g>
     <g id="text_17">
      <!-- 10 -->
      <g transform="translate(306.5375 392.598437)scale(0.1 -0.1)">
       <use xlink:href="#DejaVuSans-31"/>
       <use x="63.623047" xlink:href="#DejaVuSans-30"/>
      </g>
     </g>
    </g>
    <g id="xtick_18">
     <g id="line2d_18">
      <g>
       <use style="stroke:#000000;stroke-width:0.8;" x="467.9" xlink:href="#m78a335633e" y="378"/>
      </g>
     </g>
     <g id="text_18">
      <!-- 15 -->
      <g transform="translate(461.5375 392.598437)scale(0.1 -0.1)">
       <use xlink:href="#DejaVuSans-31"/>
       <use x="63.623047" xlink:href="#DejaVuSans-35"/>
      </g>
     </g>
    </g>
    <g id="xtick_19">
     <g id="line2d_19">
      <g>
       <use style="stroke:#000000;stroke-width:0.8;" x="622.9" xlink:href="#m78a335633e" y="378"/>
      </g>
     </g>
     <g id="text_19">
      <!-- 20 -->
      <g transform="translate(616.5375 392.598437)scale(0.1 -0.1)">
       <use xlink:href="#DejaVuSans-32"/>
       <use x="63.623047" xlink:href="#DejaVuSans-30"/>
      </g>
     </g>
    </g>
    <g id="xtick_20">
     <g id="line2d_20">
      <g>
       <use style="stroke:#000000;stroke-width:0.8;" x="684.9" xlink:href="#m78a335633e" y="378"/>
      </g>
     </g>
     <g id="text_20">
      <!-- 22 -->
      <g transform="translate(678.5375 392.598437)scale(0.1 -0.1)">
       <use xlink:href="#DejaVuSans-32"/>
       <use x="63.623047" xlink:href="#DejaVuSans-32"/>
      </g>
     </g>
    </g>
   </g>
   <g id="matplotlib.axis_2">
    <g id="ytick_1">
     <g id="line2d_21">
      <defs>
       <path d="M 0 0 
L -3.5 0 
" id="m8d2556ac95" style="stroke:#000000;stroke-width:0.8;"/>
      </defs>
      <g>
       <use style="stroke:#000000;stroke-width:0.8;" x="99" xlink:href="#m8d2556ac95" y="358.681884"/>
      </g>
     </g>
     <g id="text_21">
      <!-- $\mathdefault{10^{2}}$ -->
      <g transform="translate(74.4 362.481103)scale(0.1 -0.1)">
       <use transform="translate(0 0.765625)" xlink:href="#DejaVuSans-31"/>
       <use transform="translate(63.623047 0.765625)" xlink:href="#DejaVuSans-30"/>
       <use transform="translate(128.203125 39.046875)scale(0.7)" xlink:href="#DejaVuSans-32"/>
      </g>
     </g>
    </g>
    <g id="ytick_2">
     <g id="line2d_22">
      <g>
       <use style="stroke:#000000;stroke-width:0.8;" x="99" xlink:href="#m8d2556ac95" y="247.194414"/>
      </g>
     </g>
     <g id="text_22">
      <!-- $\mathdefault{10^{3}}$ -->
      <g transform="translate(74.4 250.993633)scale(0.1 -0.1)">
       <defs>
        <path d="M 2597 2516 
Q 3050 2419 3304 2112 
Q 3559 1806 3559 1356 
Q 3559 666 3084 287 
Q 2609 -91 1734 -91 
Q 1441 -91 1130 -33 
Q 819 25 488 141 
L 488 750 
Q 750 597 1062 519 
Q 1375 441 1716 441 
Q 2309 441 2620 675 
Q 2931 909 2931 1356 
Q 2931 1769 2642 2001 
Q 2353 2234 1838 2234 
L 1294 2234 
L 1294 2753 
L 1863 2753 
Q 2328 2753 2575 2939 
Q 2822 3125 2822 3475 
Q 2822 3834 2567 4026 
Q 2313 4219 1838 4219 
Q 1578 4219 1281 4162 
Q 984 4106 628 3988 
L 628 4550 
Q 988 4650 1302 4700 
Q 1616 4750 1894 4750 
Q 2613 4750 3031 4423 
Q 3450 4097 3450 3541 
Q 3450 3153 3228 2886 
Q 3006 2619 2597 2516 
z
" id="DejaVuSans-33" transform="scale(0.015625)"/>
       </defs>
       <use transform="translate(0 0.765625)" xlink:href="#DejaVuSans-31"/>
       <use transform="translate(63.623047 0.765625)" xlink:href="#DejaVuSans-30"/>
       <use transform="translate(128.203125 39.046875)scale(0.7)" xlink:href="#DejaVuSans-33"/>
      </g>
     </g>
    </g>
    <g id="ytick_3">
     <g id="line2d_23">
      <g>
       <use style="stroke:#000000;stroke-width:0.8;" x="99" xlink:href="#m8d2556ac95" y="135.706944"/>
      </g>
     </g>
     <g id="text_23">
      <!-- $\mathdefault{10^{4}}$ -->
      <g transform="translate(74.4 139.506163)scale(0.1 -0.1)">
       <use transform="translate(0 0.684375)" xlink:href="#DejaVuSans-31"/>
       <use transform="translate(63.623047 0.684375)" xlink:href="#DejaVuSans-30"/>
       <use transform="translate(128.203125 38.965625)scale(0.7)" xlink:href="#DejaVuSans-34"/>
      </g>
     </g>
    </g>
    <g id="ytick_4">
     <g id="line2d_24">
      <defs>
       <path d="M 0 0 
L -2 0 
" id="m53e78c1698" style="stroke:#000000;stroke-width:0.6;"/>
      </defs>
      <g>
       <use style="stroke:#000000;stroke-width:0.6;" x="99" xlink:href="#m53e78c1698" y="342.314413"/>
      </g>
     </g>
     <g id="text_24">
      <!-- $\mathdefault{1.4022\times10^{2}}$ -->
      <g transform="translate(28.7 346.113632)scale(0.1 -0.1)">
       <defs>
        <path d="M 684 794 
L 1344 794 
L 1344 0 
L 684 0 
L 684 794 
z
" id="DejaVuSans-2e" transform="scale(0.015625)"/>
        <path d="M 4488 3438 
L 3059 2003 
L 4488 575 
L 4116 197 
L 2681 1631 
L 1247 197 
L 878 575 
L 2303 2003 
L 878 3438 
L 1247 3816 
L 2681 2381 
L 4116 3816 
L 4488 3438 
z
" id="DejaVuSans-d7" transform="scale(0.015625)"/>
       </defs>
       <use transform="translate(0 0.765625)" xlink:href="#DejaVuSans-31"/>
       <use transform="translate(63.623047 0.765625)" xlink:href="#DejaVuSans-2e"/>
       <use transform="translate(95.410156 0.765625)" xlink:href="#DejaVuSans-34"/>
       <use transform="translate(159.033203 0.765625)" xlink:href="#DejaVuSans-30"/>
       <use transform="translate(222.65625 0.765625)" xlink:href="#DejaVuSans-32"/>
       <use transform="translate(286.279297 0.765625)" xlink:href="#DejaVuSans-32"/>
       <use transform="translate(369.384766 0.765625)" xlink:href="#DejaVuSans-d7"/>
       <use transform="translate(472.65625 0.765625)" xlink:href="#DejaVuSans-31"/>
       <use transform="translate(536.279297 0.765625)" xlink:href="#DejaVuSans-30"/>
       <use transform="translate(600.859375 39.046875)scale(0.7)" xlink:href="#DejaVuSans-32"/>
      </g>
     </g>
    </g>
    <g id="ytick_5">
     <g id="line2d_25">
      <g>
       <use style="stroke:#000000;stroke-width:0.6;" x="99" xlink:href="#m53e78c1698" y="341.717283"/>
      </g>
     </g>
     <g id="text_25">
      <!-- $\mathdefault{1.4196\times10^{2}}$ -->
      <g transform="translate(28.7 345.516502)scale(0.1 -0.1)">
       <defs>
        <path d="M 703 97 
L 703 672 
Q 941 559 1184 500 
Q 1428 441 1663 441 
Q 2288 441 2617 861 
Q 2947 1281 2994 2138 
Q 2813 1869 2534 1725 
Q 2256 1581 1919 1581 
Q 1219 1581 811 2004 
Q 403 2428 403 3163 
Q 403 3881 828 4315 
Q 1253 4750 1959 4750 
Q 2769 4750 3195 4129 
Q 3622 3509 3622 2328 
Q 3622 1225 3098 567 
Q 2575 -91 1691 -91 
Q 1453 -91 1209 -44 
Q 966 3 703 97 
z
M 1959 2075 
Q 2384 2075 2632 2365 
Q 2881 2656 2881 3163 
Q 2881 3666 2632 3958 
Q 2384 4250 1959 4250 
Q 1534 4250 1286 3958 
Q 1038 3666 1038 3163 
Q 1038 2656 1286 2365 
Q 1534 2075 1959 2075 
z
" id="DejaVuSans-39" transform="scale(0.015625)"/>
        <path d="M 2113 2584 
Q 1688 2584 1439 2293 
Q 1191 2003 1191 1497 
Q 1191 994 1439 701 
Q 1688 409 2113 409 
Q 2538 409 2786 701 
Q 3034 994 3034 1497 
Q 3034 2003 2786 2293 
Q 2538 2584 2113 2584 
z
M 3366 4563 
L 3366 3988 
Q 3128 4100 2886 4159 
Q 2644 4219 2406 4219 
Q 1781 4219 1451 3797 
Q 1122 3375 1075 2522 
Q 1259 2794 1537 2939 
Q 1816 3084 2150 3084 
Q 2853 3084 3261 2657 
Q 3669 2231 3669 1497 
Q 3669 778 3244 343 
Q 2819 -91 2113 -91 
Q 1303 -91 875 529 
Q 447 1150 447 2328 
Q 447 3434 972 4092 
Q 1497 4750 2381 4750 
Q 2619 4750 2861 4703 
Q 3103 4656 3366 4563 
z
" id="DejaVuSans-36" transform="scale(0.015625)"/>
       </defs>
       <use transform="translate(0 0.765625)" xlink:href="#DejaVuSans-31"/>
       <use transform="translate(63.623047 0.765625)" xlink:href="#DejaVuSans-2e"/>
       <use transform="translate(95.410156 0.765625)" xlink:href="#DejaVuSans-34"/>
       <use transform="translate(159.033203 0.765625)" xlink:href="#DejaVuSans-31"/>
       <use transform="translate(222.65625 0.765625)" xlink:href="#DejaVuSans-39"/>
       <use transform="translate(286.279297 0.765625)" xlink:href="#DejaVuSans-36"/>
       <use transform="translate(369.384766 0.765625)" xlink:href="#DejaVuSans-d7"/>
       <use transform="translate(472.65625 0.765625)" xlink:href="#DejaVuSans-31"/>
       <use transform="translate(536.279297 0.765625)" xlink:href="#DejaVuSans-30"/>
       <use transform="translate(600.859375 39.046875)scale(0.7)" xlink:href="#DejaVuSans-32"/>
      </g>
     </g>
    </g>
    <g id="ytick_6">
     <g id="line2d_26">
      <g>
       <use style="stroke:#000000;stroke-width:0.6;" x="99" xlink:href="#m53e78c1698" y="306.72959"/>
      </g>
     </g>
    </g>
    <g id="ytick_7">
     <g id="line2d_27">
      <g>
       <use style="stroke:#000000;stroke-width:0.6;" x="99" xlink:href="#m53e78c1698" y="166.817956"/>
      </g>
     </g>
    </g>
    <g id="ytick_8">
     <g id="line2d_28">
      <g>
       <use style="stroke:#000000;stroke-width:0.6;" x="99" xlink:href="#m53e78c1698" y="105.085616"/>
      </g>
     </g>
    </g>
    <g id="ytick_9">
     <g id="line2d_29">
      <g>
       <use style="stroke:#000000;stroke-width:0.6;" x="99" xlink:href="#m53e78c1698" y="348.721615"/>
      </g>
     </g>
     <g id="text_26">
      <!-- $\mathdefault{1.2284\times10^{2}}$ -->
      <g transform="translate(29.3 352.520834)scale(0.1 -0.1)">
       <defs>
        <path d="M 2034 2216 
Q 1584 2216 1326 1975 
Q 1069 1734 1069 1313 
Q 1069 891 1326 650 
Q 1584 409 2034 409 
Q 2484 409 2743 651 
Q 3003 894 3003 1313 
Q 3003 1734 2745 1975 
Q 2488 2216 2034 2216 
z
M 1403 2484 
Q 997 2584 770 2862 
Q 544 3141 544 3541 
Q 544 4100 942 4425 
Q 1341 4750 2034 4750 
Q 2731 4750 3128 4425 
Q 3525 4100 3525 3541 
Q 3525 3141 3298 2862 
Q 3072 2584 2669 2484 
Q 3125 2378 3379 2068 
Q 3634 1759 3634 1313 
Q 3634 634 3220 271 
Q 2806 -91 2034 -91 
Q 1263 -91 848 271 
Q 434 634 434 1313 
Q 434 1759 690 2068 
Q 947 2378 1403 2484 
z
M 1172 3481 
Q 1172 3119 1398 2916 
Q 1625 2713 2034 2713 
Q 2441 2713 2670 2916 
Q 2900 3119 2900 3481 
Q 2900 3844 2670 4047 
Q 2441 4250 2034 4250 
Q 1625 4250 1398 4047 
Q 1172 3844 1172 3481 
z
" id="DejaVuSans-38" transform="scale(0.015625)"/>
       </defs>
       <use transform="translate(0 0.765625)" xlink:href="#DejaVuSans-31"/>
       <use transform="translate(63.623047 0.765625)" xlink:href="#DejaVuSans-2e"/>
       <use transform="translate(89.910156 0.765625)" xlink:href="#DejaVuSans-32"/>
       <use transform="translate(153.533203 0.765625)" xlink:href="#DejaVuSans-32"/>
       <use transform="translate(217.15625 0.765625)" xlink:href="#DejaVuSans-38"/>
       <use transform="translate(280.779297 0.765625)" xlink:href="#DejaVuSans-34"/>
       <use transform="translate(363.884766 0.765625)" xlink:href="#DejaVuSans-d7"/>
       <use transform="translate(467.15625 0.765625)" xlink:href="#DejaVuSans-31"/>
       <use transform="translate(530.779297 0.765625)" xlink:href="#DejaVuSans-30"/>
       <use transform="translate(595.359375 39.046875)scale(0.7)" xlink:href="#DejaVuSans-32"/>
      </g>
     </g>
    </g>
    <g id="ytick_10">
     <g id="line2d_30">
      <g>
       <use style="stroke:#000000;stroke-width:0.6;" x="99" xlink:href="#m53e78c1698" y="347.986211"/>
      </g>
     </g>
     <g id="text_27">
      <!-- $\mathdefault{1.2472\times10^{2}}$ -->
      <g transform="translate(29.3 351.78543)scale(0.1 -0.1)">
       <defs>
        <path d="M 525 4666 
L 3525 4666 
L 3525 4397 
L 1831 0 
L 1172 0 
L 2766 4134 
L 525 4134 
L 525 4666 
z
" id="DejaVuSans-37" transform="scale(0.015625)"/>
       </defs>
       <use transform="translate(0 0.765625)" xlink:href="#DejaVuSans-31"/>
       <use transform="translate(63.623047 0.765625)" xlink:href="#DejaVuSans-2e"/>
       <use transform="translate(89.910156 0.765625)" xlink:href="#DejaVuSans-32"/>
       <use transform="translate(153.533203 0.765625)" xlink:href="#DejaVuSans-34"/>
       <use transform="translate(217.15625 0.765625)" xlink:href="#DejaVuSans-37"/>
       <use transform="translate(280.779297 0.765625)" xlink:href="#DejaVuSans-32"/>
       <use transform="translate(363.884766 0.765625)" xlink:href="#DejaVuSans-d7"/>
       <use transform="translate(467.15625 0.765625)" xlink:href="#DejaVuSans-31"/>
       <use transform="translate(530.779297 0.765625)" xlink:href="#DejaVuSans-30"/>
       <use transform="translate(595.359375 39.046875)scale(0.7)" xlink:href="#DejaVuSans-32"/>
      </g>
     </g>
    </g>
    <g id="ytick_11">
     <g id="line2d_31">
      <g>
       <use style="stroke:#000000;stroke-width:0.6;" x="99" xlink:href="#m53e78c1698" y="298.639062"/>
      </g>
     </g>
    </g>
    <g id="ytick_12">
     <g id="line2d_32">
      <g>
       <use style="stroke:#000000;stroke-width:0.6;" x="99" xlink:href="#m53e78c1698" y="147.500188"/>
      </g>
     </g>
    </g>
    <g id="ytick_13">
     <g id="line2d_33">
      <g>
       <use style="stroke:#000000;stroke-width:0.6;" x="99" xlink:href="#m53e78c1698" y="80.117004"/>
      </g>
     </g>
    </g>
    <g id="ytick_14">
     <g id="line2d_34">
      <g>
       <use style="stroke:#000000;stroke-width:0.6;" x="99" xlink:href="#m53e78c1698" y="347.703639"/>
      </g>
     </g>
     <g id="text_28">
      <!-- $\mathdefault{1.2545\times10^{2}}$ -->
      <g transform="translate(29.3 351.502858)scale(0.1 -0.1)">
       <use transform="translate(0 0.765625)" xlink:href="#DejaVuSans-31"/>
       <use transform="translate(63.623047 0.765625)" xlink:href="#DejaVuSans-2e"/>
       <use transform="translate(89.910156 0.765625)" xlink:href="#DejaVuSans-32"/>
       <use transform="translate(153.533203 0.765625)" xlink:href="#DejaVuSans-35"/>
       <use transform="translate(217.15625 0.765625)" xlink:href="#DejaVuSans-34"/>
       <use transform="translate(280.779297 0.765625)" xlink:href="#DejaVuSans-35"/>
       <use transform="translate(363.884766 0.765625)" xlink:href="#DejaVuSans-d7"/>
       <use transform="translate(467.15625 0.765625)" xlink:href="#DejaVuSans-31"/>
       <use transform="translate(530.779297 0.765625)" xlink:href="#DejaVuSans-30"/>
       <use transform="translate(595.359375 39.046875)scale(0.7)" xlink:href="#DejaVuSans-32"/>
      </g>
     </g>
    </g>
    <g id="ytick_15">
     <g id="line2d_35">
      <g>
       <use style="stroke:#000000;stroke-width:0.6;" x="99" xlink:href="#m53e78c1698" y="345.356922"/>
      </g>
     </g>
     <g id="text_29">
      <!-- $\mathdefault{1.3168\times10^{2}}$ -->
      <g transform="translate(28.7 349.156141)scale(0.1 -0.1)">
       <use transform="translate(0 0.765625)" xlink:href="#DejaVuSans-31"/>
       <use transform="translate(63.623047 0.765625)" xlink:href="#DejaVuSans-2e"/>
       <use transform="translate(95.410156 0.765625)" xlink:href="#DejaVuSans-33"/>
       <use transform="translate(159.033203 0.765625)" xlink:href="#DejaVuSans-31"/>
       <use transform="translate(222.65625 0.765625)" xlink:href="#DejaVuSans-36"/>
       <use transform="translate(286.279297 0.765625)" xlink:href="#DejaVuSans-38"/>
       <use transform="translate(369.384766 0.765625)" xlink:href="#DejaVuSans-d7"/>
       <use transform="translate(472.65625 0.765625)" xlink:href="#DejaVuSans-31"/>
       <use transform="translate(536.279297 0.765625)" xlink:href="#DejaVuSans-30"/>
       <use transform="translate(600.859375 39.046875)scale(0.7)" xlink:href="#DejaVuSans-32"/>
      </g>
     </g>
    </g>
    <g id="ytick_16">
     <g id="line2d_36">
      <g>
       <use style="stroke:#000000;stroke-width:0.6;" x="99" xlink:href="#m53e78c1698" y="339.011196"/>
      </g>
     </g>
    </g>
    <g id="ytick_17">
     <g id="line2d_37">
      <g>
       <use style="stroke:#000000;stroke-width:0.6;" x="99" xlink:href="#m53e78c1698" y="276.466659"/>
      </g>
     </g>
    </g>
    <g id="ytick_18">
     <g id="line2d_38">
      <g>
       <use style="stroke:#000000;stroke-width:0.6;" x="99" xlink:href="#m53e78c1698" y="220.035676"/>
      </g>
     </g>
    </g>
    <g id="ytick_19">
     <g id="line2d_39">
      <g>
       <use style="stroke:#000000;stroke-width:0.6;" x="99" xlink:href="#m53e78c1698" y="347.311554"/>
      </g>
     </g>
     <g id="text_30">
      <!-- $\mathdefault{1.2647\times10^{2}}$ -->
      <g transform="translate(29.3 351.110773)scale(0.1 -0.1)">
       <use transform="translate(0 0.765625)" xlink:href="#DejaVuSans-31"/>
       <use transform="translate(63.623047 0.765625)" xlink:href="#DejaVuSans-2e"/>
       <use transform="translate(89.910156 0.765625)" xlink:href="#DejaVuSans-32"/>
       <use transform="translate(153.533203 0.765625)" xlink:href="#DejaVuSans-36"/>
       <use transform="translate(217.15625 0.765625)" xlink:href="#DejaVuSans-34"/>
       <use transform="translate(280.779297 0.765625)" xlink:href="#DejaVuSans-37"/>
       <use transform="translate(363.884766 0.765625)" xlink:href="#DejaVuSans-d7"/>
       <use transform="translate(467.15625 0.765625)" xlink:href="#DejaVuSans-31"/>
       <use transform="translate(530.779297 0.765625)" xlink:href="#DejaVuSans-30"/>
       <use transform="translate(595.359375 39.046875)scale(0.7)" xlink:href="#DejaVuSans-32"/>
      </g>
     </g>
    </g>
    <g id="ytick_20">
     <g id="line2d_40">
      <g>
       <use style="stroke:#000000;stroke-width:0.6;" x="99" xlink:href="#m53e78c1698" y="346.333754"/>
      </g>
     </g>
     <g id="text_31">
      <!-- $\mathdefault{1.2905\times10^{2}}$ -->
      <g transform="translate(29.5 350.132973)scale(0.1 -0.1)">
       <use transform="translate(0 0.765625)" xlink:href="#DejaVuSans-31"/>
       <use transform="translate(63.623047 0.765625)" xlink:href="#DejaVuSans-2e"/>
       <use transform="translate(89.910156 0.765625)" xlink:href="#DejaVuSans-32"/>
       <use transform="translate(151.783203 0.765625)" xlink:href="#DejaVuSans-39"/>
       <use transform="translate(215.40625 0.765625)" xlink:href="#DejaVuSans-30"/>
       <use transform="translate(279.029297 0.765625)" xlink:href="#DejaVuSans-35"/>
       <use transform="translate(362.134766 0.765625)" xlink:href="#DejaVuSans-d7"/>
       <use transform="translate(465.40625 0.765625)" xlink:href="#DejaVuSans-31"/>
       <use transform="translate(529.029297 0.765625)" xlink:href="#DejaVuSans-30"/>
       <use transform="translate(593.609375 39.046875)scale(0.7)" xlink:href="#DejaVuSans-32"/>
      </g>
     </g>
    </g>
    <g id="ytick_21">
     <g id="line2d_41">
      <g>
       <use style="stroke:#000000;stroke-width:0.6;" x="99" xlink:href="#m53e78c1698" y="320.990444"/>
      </g>
     </g>
    </g>
    <g id="ytick_22">
     <g id="line2d_42">
      <g>
       <use style="stroke:#000000;stroke-width:0.6;" x="99" xlink:href="#m53e78c1698" y="208.683013"/>
      </g>
     </g>
    </g>
    <g id="ytick_23">
     <g id="line2d_43">
      <g>
       <use style="stroke:#000000;stroke-width:0.6;" x="99" xlink:href="#m53e78c1698" y="149.869535"/>
      </g>
     </g>
    </g>
   </g>
   <g id="line2d_44">
    <path clip-path="url(#p673952e359)" d="M 126.9 347.703639 
L 312.9 345.356922 
L 467.9 339.011196 
L 622.9 276.466659 
L 684.9 220.035676 
" style="fill:none;stroke:#1f77b4;stroke-linecap:square;stroke-width:1.5;"/>
   </g>
   <g id="line2d_45">
    <path clip-path="url(#p673952e359)" d="M 126.9 347.311554 
L 312.9 346.333754 
L 467.9 320.990444 
L 622.9 208.683013 
L 684.9 149.869535 
" style="fill:none;stroke:#ff7f0e;stroke-linecap:square;stroke-width:1.5;"/>
   </g>
   <g id="line2d_46">
    <path clip-path="url(#p673952e359)" d="M 126.9 342.314413 
L 312.9 341.717283 
L 467.9 306.72959 
L 622.9 166.817956 
L 684.9 105.085616 
" style="fill:none;stroke:#2ca02c;stroke-linecap:square;stroke-width:1.5;"/>
   </g>
   <g id="line2d_47">
    <path clip-path="url(#p673952e359)" d="M 126.9 348.721615 
L 312.9 347.986211 
L 467.9 298.639062 
L 622.9 147.500188 
L 684.9 80.117004 
" style="fill:none;stroke:#d62728;stroke-linecap:square;stroke-width:1.5;"/>
   </g>
   <g id="patch_3">
    <path d="M 99 378 
L 99 51.84 
" style="fill:none;stroke:#000000;stroke-linecap:square;stroke-linejoin:miter;stroke-width:0.8;"/>
   </g>
   <g id="patch_4">
    <path d="M 712.8 378 
L 712.8 51.84 
" style="fill:none;stroke:#000000;stroke-linecap:square;stroke-linejoin:miter;stroke-width:0.8;"/>
   </g>
   <g id="patch_5">
    <path d="M 99 378 
L 712.8 378 
" style="fill:none;stroke:#000000;stroke-linecap:square;stroke-linejoin:miter;stroke-width:0.8;"/>
   </g>
   <g id="patch_6">
    <path d="M 99 51.84 
L 712.8 51.84 
" style="fill:none;stroke:#000000;stroke-linecap:square;stroke-linejoin:miter;stroke-width:0.8;"/>
   </g>
   <g id="legend_1">
    <g id="patch_7">
     <path d="M 106 118.5525 
L 272.239063 118.5525 
Q 274.239063 118.5525 274.239063 116.5525 
L 274.239063 58.84 
Q 274.239063 56.84 272.239063 56.84 
L 106 56.84 
Q 104 56.84 104 58.84 
L 104 116.5525 
Q 104 118.5525 106 118.5525 
z
" style="fill:#ffffff;opacity:0.8;stroke:#cccccc;stroke-linejoin:miter;"/>
    </g>
    <g id="line2d_48">
     <path d="M 108 64.938438 
L 128 64.938438 
" style="fill:none;stroke:#d62728;stroke-linecap:square;stroke-width:1.5;"/>
    </g>
    <g id="line2d_49"/>
    <g id="text_32">
     <!-- Hrubá síla na sadě Z -->
     <g transform="translate(136 68.438438)scale(0.1 -0.1)">
      <defs>
       <path d="M 628 4666 
L 1259 4666 
L 1259 2753 
L 3553 2753 
L 3553 4666 
L 4184 4666 
L 4184 0 
L 3553 0 
L 3553 2222 
L 1259 2222 
L 1259 0 
L 628 0 
L 628 4666 
z
" id="DejaVuSans-48" transform="scale(0.015625)"/>
       <path d="M 2631 2963 
Q 2534 3019 2420 3045 
Q 2306 3072 2169 3072 
Q 1681 3072 1420 2755 
Q 1159 2438 1159 1844 
L 1159 0 
L 581 0 
L 581 3500 
L 1159 3500 
L 1159 2956 
Q 1341 3275 1631 3429 
Q 1922 3584 2338 3584 
Q 2397 3584 2469 3576 
Q 2541 3569 2628 3553 
L 2631 2963 
z
" id="DejaVuSans-72" transform="scale(0.015625)"/>
       <path d="M 544 1381 
L 544 3500 
L 1119 3500 
L 1119 1403 
Q 1119 906 1312 657 
Q 1506 409 1894 409 
Q 2359 409 2629 706 
Q 2900 1003 2900 1516 
L 2900 3500 
L 3475 3500 
L 3475 0 
L 2900 0 
L 2900 538 
Q 2691 219 2414 64 
Q 2138 -91 1772 -91 
Q 1169 -91 856 284 
Q 544 659 544 1381 
z
M 1991 3584 
L 1991 3584 
z
" id="DejaVuSans-75" transform="scale(0.015625)"/>
       <path d="M 3116 1747 
Q 3116 2381 2855 2742 
Q 2594 3103 2138 3103 
Q 1681 3103 1420 2742 
Q 1159 2381 1159 1747 
Q 1159 1113 1420 752 
Q 1681 391 2138 391 
Q 2594 391 2855 752 
Q 3116 1113 3116 1747 
z
M 1159 2969 
Q 1341 3281 1617 3432 
Q 1894 3584 2278 3584 
Q 2916 3584 3314 3078 
Q 3713 2572 3713 1747 
Q 3713 922 3314 415 
Q 2916 -91 2278 -91 
Q 1894 -91 1617 61 
Q 1341 213 1159 525 
L 1159 0 
L 581 0 
L 581 4863 
L 1159 4863 
L 1159 2969 
z
" id="DejaVuSans-62" transform="scale(0.015625)"/>
       <path d="M 2194 1759 
Q 1497 1759 1228 1600 
Q 959 1441 959 1056 
Q 959 750 1161 570 
Q 1363 391 1709 391 
Q 2188 391 2477 730 
Q 2766 1069 2766 1631 
L 2766 1759 
L 2194 1759 
z
M 3341 1997 
L 3341 0 
L 2766 0 
L 2766 531 
Q 2569 213 2275 61 
Q 1981 -91 1556 -91 
Q 1019 -91 701 211 
Q 384 513 384 1019 
Q 384 1609 779 1909 
Q 1175 2209 1959 2209 
L 2766 2209 
L 2766 2266 
Q 2766 2663 2505 2880 
Q 2244 3097 1772 3097 
Q 1472 3097 1187 3025 
Q 903 2953 641 2809 
L 641 3341 
Q 956 3463 1253 3523 
Q 1550 3584 1831 3584 
Q 2591 3584 2966 3190 
Q 3341 2797 3341 1997 
z
M 2290 5119 
L 2912 5119 
L 1894 3944 
L 1415 3944 
L 2290 5119 
z
" id="DejaVuSans-e1" transform="scale(0.015625)"/>
       <path id="DejaVuSans-20" transform="scale(0.015625)"/>
       <path d="M 2834 3397 
L 2834 2853 
Q 2591 2978 2328 3040 
Q 2066 3103 1784 3103 
Q 1356 3103 1142 2972 
Q 928 2841 928 2578 
Q 928 2378 1081 2264 
Q 1234 2150 1697 2047 
L 1894 2003 
Q 2506 1872 2764 1633 
Q 3022 1394 3022 966 
Q 3022 478 2636 193 
Q 2250 -91 1575 -91 
Q 1294 -91 989 -36 
Q 684 19 347 128 
L 347 722 
Q 666 556 975 473 
Q 1284 391 1588 391 
Q 1994 391 2212 530 
Q 2431 669 2431 922 
Q 2431 1156 2273 1281 
Q 2116 1406 1581 1522 
L 1381 1569 
Q 847 1681 609 1914 
Q 372 2147 372 2553 
Q 372 3047 722 3315 
Q 1072 3584 1716 3584 
Q 2034 3584 2315 3537 
Q 2597 3491 2834 3397 
z
" id="DejaVuSans-73" transform="scale(0.015625)"/>
       <path d="M 1322 5119 
L 1944 5119 
L 926 3944 
L 447 3944 
L 1322 5119 
z
M 603 3500 
L 1178 3500 
L 1178 0 
L 603 0 
L 603 3500 
z
M 891 3584 
L 891 3584 
z
" id="DejaVuSans-ed" transform="scale(0.015625)"/>
       <path d="M 603 4863 
L 1178 4863 
L 1178 0 
L 603 0 
L 603 4863 
z
" id="DejaVuSans-6c" transform="scale(0.015625)"/>
       <path d="M 2194 1759 
Q 1497 1759 1228 1600 
Q 959 1441 959 1056 
Q 959 750 1161 570 
Q 1363 391 1709 391 
Q 2188 391 2477 730 
Q 2766 1069 2766 1631 
L 2766 1759 
L 2194 1759 
z
M 3341 1997 
L 3341 0 
L 2766 0 
L 2766 531 
Q 2569 213 2275 61 
Q 1981 -91 1556 -91 
Q 1019 -91 701 211 
Q 384 513 384 1019 
Q 384 1609 779 1909 
Q 1175 2209 1959 2209 
L 2766 2209 
L 2766 2266 
Q 2766 2663 2505 2880 
Q 2244 3097 1772 3097 
Q 1472 3097 1187 3025 
Q 903 2953 641 2809 
L 641 3341 
Q 956 3463 1253 3523 
Q 1550 3584 1831 3584 
Q 2591 3584 2966 3190 
Q 3341 2797 3341 1997 
z
" id="DejaVuSans-61" transform="scale(0.015625)"/>
       <path d="M 3513 2113 
L 3513 0 
L 2938 0 
L 2938 2094 
Q 2938 2591 2744 2837 
Q 2550 3084 2163 3084 
Q 1697 3084 1428 2787 
Q 1159 2491 1159 1978 
L 1159 0 
L 581 0 
L 581 3500 
L 1159 3500 
L 1159 2956 
Q 1366 3272 1645 3428 
Q 1925 3584 2291 3584 
Q 2894 3584 3203 3211 
Q 3513 2838 3513 2113 
z
" id="DejaVuSans-6e" transform="scale(0.015625)"/>
       <path d="M 2906 2969 
L 2906 4863 
L 3481 4863 
L 3481 0 
L 2906 0 
L 2906 525 
Q 2725 213 2448 61 
Q 2172 -91 1784 -91 
Q 1150 -91 751 415 
Q 353 922 353 1747 
Q 353 2572 751 3078 
Q 1150 3584 1784 3584 
Q 2172 3584 2448 3432 
Q 2725 3281 2906 2969 
z
M 947 1747 
Q 947 1113 1208 752 
Q 1469 391 1925 391 
Q 2381 391 2643 752 
Q 2906 1113 2906 1747 
Q 2906 2381 2643 2742 
Q 2381 3103 1925 3103 
Q 1469 3103 1208 2742 
Q 947 2381 947 1747 
z
" id="DejaVuSans-64" transform="scale(0.015625)"/>
       <path d="M 3597 1894 
L 3597 1613 
L 953 1613 
Q 991 1019 1311 708 
Q 1631 397 2203 397 
Q 2534 397 2845 478 
Q 3156 559 3463 722 
L 3463 178 
Q 3153 47 2828 -22 
Q 2503 -91 2169 -91 
Q 1331 -91 842 396 
Q 353 884 353 1716 
Q 353 2575 817 3079 
Q 1281 3584 2069 3584 
Q 2775 3584 3186 3129 
Q 3597 2675 3597 1894 
z
M 3022 2063 
Q 3016 2534 2758 2815 
Q 2500 3097 2075 3097 
Q 1594 3097 1305 2825 
Q 1016 2553 972 2059 
L 3022 2063 
z
M 1833 3944 
L 1067 5119 
L 1502 5119 
L 2064 4353 
L 2627 5119 
L 3061 5119 
L 2295 3944 
L 1833 3944 
z
" id="DejaVuSans-11b" transform="scale(0.015625)"/>
       <path d="M 359 4666 
L 4025 4666 
L 4025 4184 
L 1075 531 
L 4097 531 
L 4097 0 
L 288 0 
L 288 481 
L 3238 4134 
L 359 4134 
L 359 4666 
z
" id="DejaVuSans-5a" transform="scale(0.015625)"/>
      </defs>
      <use xlink:href="#DejaVuSans-48"/>
      <use x="75.195312" xlink:href="#DejaVuSans-72"/>
      <use x="116.308594" xlink:href="#DejaVuSans-75"/>
      <use x="179.6875" xlink:href="#DejaVuSans-62"/>
      <use x="243.164062" xlink:href="#DejaVuSans-e1"/>
      <use x="304.443359" xlink:href="#DejaVuSans-20"/>
      <use x="336.230469" xlink:href="#DejaVuSans-73"/>
      <use x="388.330078" xlink:href="#DejaVuSans-ed"/>
      <use x="416.113281" xlink:href="#DejaVuSans-6c"/>
      <use x="443.896484" xlink:href="#DejaVuSans-61"/>
      <use x="505.175781" xlink:href="#DejaVuSans-20"/>
      <use x="536.962891" xlink:href="#DejaVuSans-6e"/>
      <use x="600.341797" xlink:href="#DejaVuSans-61"/>
      <use x="661.621094" xlink:href="#DejaVuSans-20"/>
      <use x="693.408203" xlink:href="#DejaVuSans-73"/>
      <use x="745.507812" xlink:href="#DejaVuSans-61"/>
      <use x="806.787109" xlink:href="#DejaVuSans-64"/>
      <use x="870.263672" xlink:href="#DejaVuSans-11b"/>
      <use x="931.787109" xlink:href="#DejaVuSans-20"/>
      <use x="963.574219" xlink:href="#DejaVuSans-5a"/>
     </g>
    </g>
    <g id="line2d_50">
     <path d="M 108 79.616563 
L 128 79.616563 
" style="fill:none;stroke:#2ca02c;stroke-linecap:square;stroke-width:1.5;"/>
    </g>
    <g id="line2d_51"/>
    <g id="text_33">
     <!-- Hrubá síla na sadě N -->
     <g transform="translate(136 83.116563)scale(0.1 -0.1)">
      <defs>
       <path d="M 628 4666 
L 1478 4666 
L 3547 763 
L 3547 4666 
L 4159 4666 
L 4159 0 
L 3309 0 
L 1241 3903 
L 1241 0 
L 628 0 
L 628 4666 
z
" id="DejaVuSans-4e" transform="scale(0.015625)"/>
      </defs>
      <use xlink:href="#DejaVuSans-48"/>
      <use x="75.195312" xlink:href="#DejaVuSans-72"/>
      <use x="116.308594" xlink:href="#DejaVuSans-75"/>
      <use x="179.6875" xlink:href="#DejaVuSans-62"/>
      <use x="243.164062" xlink:href="#DejaVuSans-e1"/>
      <use x="304.443359" xlink:href="#DejaVuSans-20"/>
      <use x="336.230469" xlink:href="#DejaVuSans-73"/>
      <use x="388.330078" xlink:href="#DejaVuSans-ed"/>
      <use x="416.113281" xlink:href="#DejaVuSans-6c"/>
      <use x="443.896484" xlink:href="#DejaVuSans-61"/>
      <use x="505.175781" xlink:href="#DejaVuSans-20"/>
      <use x="536.962891" xlink:href="#DejaVuSans-6e"/>
      <use x="600.341797" xlink:href="#DejaVuSans-61"/>
      <use x="661.621094" xlink:href="#DejaVuSans-20"/>
      <use x="693.408203" xlink:href="#DejaVuSans-73"/>
      <use x="745.507812" xlink:href="#DejaVuSans-61"/>
      <use x="806.787109" xlink:href="#DejaVuSans-64"/>
      <use x="870.263672" xlink:href="#DejaVuSans-11b"/>
      <use x="931.787109" xlink:href="#DejaVuSans-20"/>
      <use x="963.574219" xlink:href="#DejaVuSans-4e"/>
     </g>
    </g>
    <g id="line2d_52">
     <path d="M 108 94.294688 
L 128 94.294688 
" style="fill:none;stroke:#ff7f0e;stroke-linecap:square;stroke-width:1.5;"/>
    </g>
    <g id="line2d_53"/>
    <g id="text_34">
     <!-- Branch &amp; bound na sadě Z -->
     <g transform="translate(136 97.794688)scale(0.1 -0.1)">
      <defs>
       <path d="M 1259 2228 
L 1259 519 
L 2272 519 
Q 2781 519 3026 730 
Q 3272 941 3272 1375 
Q 3272 1813 3026 2020 
Q 2781 2228 2272 2228 
L 1259 2228 
z
M 1259 4147 
L 1259 2741 
L 2194 2741 
Q 2656 2741 2882 2914 
Q 3109 3088 3109 3444 
Q 3109 3797 2882 3972 
Q 2656 4147 2194 4147 
L 1259 4147 
z
M 628 4666 
L 2241 4666 
Q 2963 4666 3353 4366 
Q 3744 4066 3744 3513 
Q 3744 3084 3544 2831 
Q 3344 2578 2956 2516 
Q 3422 2416 3680 2098 
Q 3938 1781 3938 1306 
Q 3938 681 3513 340 
Q 3088 0 2303 0 
L 628 0 
L 628 4666 
z
" id="DejaVuSans-42" transform="scale(0.015625)"/>
       <path d="M 3122 3366 
L 3122 2828 
Q 2878 2963 2633 3030 
Q 2388 3097 2138 3097 
Q 1578 3097 1268 2742 
Q 959 2388 959 1747 
Q 959 1106 1268 751 
Q 1578 397 2138 397 
Q 2388 397 2633 464 
Q 2878 531 3122 666 
L 3122 134 
Q 2881 22 2623 -34 
Q 2366 -91 2075 -91 
Q 1284 -91 818 406 
Q 353 903 353 1747 
Q 353 2603 823 3093 
Q 1294 3584 2113 3584 
Q 2378 3584 2631 3529 
Q 2884 3475 3122 3366 
z
" id="DejaVuSans-63" transform="scale(0.015625)"/>
       <path d="M 3513 2113 
L 3513 0 
L 2938 0 
L 2938 2094 
Q 2938 2591 2744 2837 
Q 2550 3084 2163 3084 
Q 1697 3084 1428 2787 
Q 1159 2491 1159 1978 
L 1159 0 
L 581 0 
L 581 4863 
L 1159 4863 
L 1159 2956 
Q 1366 3272 1645 3428 
Q 1925 3584 2291 3584 
Q 2894 3584 3203 3211 
Q 3513 2838 3513 2113 
z
" id="DejaVuSans-68" transform="scale(0.015625)"/>
       <path d="M 1556 2509 
Q 1272 2256 1139 2004 
Q 1006 1753 1006 1478 
Q 1006 1022 1337 719 
Q 1669 416 2169 416 
Q 2466 416 2725 514 
Q 2984 613 3213 813 
L 1556 2509 
z
M 1997 2859 
L 3584 1234 
Q 3769 1513 3872 1830 
Q 3975 2147 3994 2503 
L 4575 2503 
Q 4538 2091 4375 1687 
Q 4213 1284 3922 891 
L 4794 0 
L 4006 0 
L 3559 459 
Q 3234 181 2878 45 
Q 2522 -91 2113 -91 
Q 1359 -91 881 339 
Q 403 769 403 1441 
Q 403 1841 612 2192 
Q 822 2544 1241 2853 
Q 1091 3050 1012 3245 
Q 934 3441 934 3628 
Q 934 4134 1281 4442 
Q 1628 4750 2203 4750 
Q 2463 4750 2720 4694 
Q 2978 4638 3244 4525 
L 3244 3956 
Q 2972 4103 2725 4179 
Q 2478 4256 2266 4256 
Q 1938 4256 1733 4082 
Q 1528 3909 1528 3634 
Q 1528 3475 1620 3314 
Q 1713 3153 1997 2859 
z
" id="DejaVuSans-26" transform="scale(0.015625)"/>
       <path d="M 1959 3097 
Q 1497 3097 1228 2736 
Q 959 2375 959 1747 
Q 959 1119 1226 758 
Q 1494 397 1959 397 
Q 2419 397 2687 759 
Q 2956 1122 2956 1747 
Q 2956 2369 2687 2733 
Q 2419 3097 1959 3097 
z
M 1959 3584 
Q 2709 3584 3137 3096 
Q 3566 2609 3566 1747 
Q 3566 888 3137 398 
Q 2709 -91 1959 -91 
Q 1206 -91 779 398 
Q 353 888 353 1747 
Q 353 2609 779 3096 
Q 1206 3584 1959 3584 
z
" id="DejaVuSans-6f" transform="scale(0.015625)"/>
      </defs>
      <use xlink:href="#DejaVuSans-42"/>
      <use x="68.603516" xlink:href="#DejaVuSans-72"/>
      <use x="109.716797" xlink:href="#DejaVuSans-61"/>
      <use x="170.996094" xlink:href="#DejaVuSans-6e"/>
      <use x="234.375" xlink:href="#DejaVuSans-63"/>
      <use x="289.355469" xlink:href="#DejaVuSans-68"/>
      <use x="352.734375" xlink:href="#DejaVuSans-20"/>
      <use x="384.521484" xlink:href="#DejaVuSans-26"/>
      <use x="462.5" xlink:href="#DejaVuSans-20"/>
      <use x="494.287109" xlink:href="#DejaVuSans-62"/>
      <use x="557.763672" xlink:href="#DejaVuSans-6f"/>
      <use x="618.945312" xlink:href="#DejaVuSans-75"/>
      <use x="682.324219" xlink:href="#DejaVuSans-6e"/>
      <use x="745.703125" xlink:href="#DejaVuSans-64"/>
      <use x="809.179688" xlink:href="#DejaVuSans-20"/>
      <use x="840.966797" xlink:href="#DejaVuSans-6e"/>
      <use x="904.345703" xlink:href="#DejaVuSans-61"/>
      <use x="965.625" xlink:href="#DejaVuSans-20"/>
      <use x="997.412109" xlink:href="#DejaVuSans-73"/>
      <use x="1049.511719" xlink:href="#DejaVuSans-61"/>
      <use x="1110.791016" xlink:href="#DejaVuSans-64"/>
      <use x="1174.267578" xlink:href="#DejaVuSans-11b"/>
      <use x="1235.791016" xlink:href="#DejaVuSans-20"/>
      <use x="1267.578125" xlink:href="#DejaVuSans-5a"/>
     </g>
    </g>
    <g id="line2d_54">
     <path d="M 108 108.972813 
L 128 108.972813 
" style="fill:none;stroke:#1f77b4;stroke-linecap:square;stroke-width:1.5;"/>
    </g>
    <g id="line2d_55"/>
    <g id="text_35">
     <!-- Branch &amp; bound na sadě N -->
     <g transform="translate(136 112.472813)scale(0.1 -0.1)">
      <use xlink:href="#DejaVuSans-42"/>
      <use x="68.603516" xlink:href="#DejaVuSans-72"/>
      <use x="109.716797" xlink:href="#DejaVuSans-61"/>
      <use x="170.996094" xlink:href="#DejaVuSans-6e"/>
      <use x="234.375" xlink:href="#DejaVuSans-63"/>
      <use x="289.355469" xlink:href="#DejaVuSans-68"/>
      <use x="352.734375" xlink:href="#DejaVuSans-20"/>
      <use x="384.521484" xlink:href="#DejaVuSans-26"/>
      <use x="462.5" xlink:href="#DejaVuSans-20"/>
      <use x="494.287109" xlink:href="#DejaVuSans-62"/>
      <use x="557.763672" xlink:href="#DejaVuSans-6f"/>
      <use x="618.945312" xlink:href="#DejaVuSans-75"/>
      <use x="682.324219" xlink:href="#DejaVuSans-6e"/>
      <use x="745.703125" xlink:href="#DejaVuSans-64"/>
      <use x="809.179688" xlink:href="#DejaVuSans-20"/>
      <use x="840.966797" xlink:href="#DejaVuSans-6e"/>
      <use x="904.345703" xlink:href="#DejaVuSans-61"/>
      <use x="965.625" xlink:href="#DejaVuSans-20"/>
      <use x="997.412109" xlink:href="#DejaVuSans-73"/>
      <use x="1049.511719" xlink:href="#DejaVuSans-61"/>
      <use x="1110.791016" xlink:href="#DejaVuSans-64"/>
      <use x="1174.267578" xlink:href="#DejaVuSans-11b"/>
      <use x="1235.791016" xlink:href="#DejaVuSans-20"/>
      <use x="1267.578125" xlink:href="#DejaVuSans-4e"/>
     </g>
    </g>
   </g>
  </g>
 </g>
 <defs>
  <clipPath id="p673952e359">
   <rect height="326.16" width="613.8" x="99" y="51.84"/>
  </clipPath>
 </defs>
</svg>
