<?xml version="1.0" encoding="utf-8" standalone="no"?>
<!DOCTYPE svg PUBLIC "-//W3C//DTD SVG 1.1//EN"
  "http://www.w3.org/Graphics/SVG/1.1/DTD/svg11.dtd">
<svg height="576pt" version="1.1" viewBox="0 0 1008 576" width="1008pt" xmlns="http://www.w3.org/2000/svg" xmlns:xlink="http://www.w3.org/1999/xlink">
 <metadata>
  <rdf:RDF xmlns:cc="http://creativecommons.org/ns#" xmlns:dc="http://purl.org/dc/elements/1.1/" xmlns:rdf="http://www.w3.org/1999/02/22-rdf-syntax-ns#">
   <cc:Work>
    <dc:type rdf:resource="http://purl.org/dc/dcmitype/StillImage"/>
    <dc:date>2022-01-08T11:43:33.999740</dc:date>
    <dc:format>image/svg+xml</dc:format>
    <dc:creator>
     <cc:Agent>
      <dc:title>Matplotlib v3.4.3, https://matplotlib.org/</dc:title>
     </cc:Agent>
    </dc:creator>
   </cc:Work>
  </rdf:RDF>
 </metadata>
 <defs>
  <style type="text/css">*{stroke-linecap:butt;stroke-linejoin:round;}</style>
 </defs>
 <g id="figure_1">
  <g id="patch_1">
   <path d="M 0 576 
L 1008 576 
L 1008 0 
L 0 0 
z
"/>
  </g>
  <g id="axes_1">
   <g id="patch_2">
    <path d="M 126 504 
L 907.2 504 
L 907.2 69.12 
L 126 69.12 
z
"/>
   </g>
   <g id="matplotlib.axis_1">
    <g id="xtick_1">
     <g id="line2d_1">
      <defs>
       <path d="M 0 0 
L 0 3.5 
" id="m90cb2c7c93" style="stroke:#ffffff;stroke-width:0.8;"/>
      </defs>
      <g>
       <use style="fill:#ffffff;stroke:#ffffff;stroke-width:0.8;" x="161.509091" xlink:href="#m90cb2c7c93" y="504"/>
      </g>
     </g>
     <g id="text_1">
      <!-- 0 -->
      <g style="fill:#ffffff;" transform="translate(158.327841 518.598438)scale(0.1 -0.1)">
       <defs>
        <path d="M 2034 4250 
Q 1547 4250 1301 3770 
Q 1056 3291 1056 2328 
Q 1056 1369 1301 889 
Q 1547 409 2034 409 
Q 2525 409 2770 889 
Q 3016 1369 3016 2328 
Q 3016 3291 2770 3770 
Q 2525 4250 2034 4250 
z
M 2034 4750 
Q 2819 4750 3233 4129 
Q 3647 3509 3647 2328 
Q 3647 1150 3233 529 
Q 2819 -91 2034 -91 
Q 1250 -91 836 529 
Q 422 1150 422 2328 
Q 422 3509 836 4129 
Q 1250 4750 2034 4750 
z
" id="DejaVuSans-30" transform="scale(0.015625)"/>
       </defs>
       <use xlink:href="#DejaVuSans-30"/>
      </g>
     </g>
    </g>
    <g id="xtick_2">
     <g id="line2d_2">
      <g>
       <use style="fill:#ffffff;stroke:#ffffff;stroke-width:0.8;" x="274.272161" xlink:href="#m90cb2c7c93" y="504"/>
      </g>
     </g>
     <g id="text_2">
      <!-- 500 -->
      <g style="fill:#ffffff;" transform="translate(264.728411 518.598438)scale(0.1 -0.1)">
       <defs>
        <path d="M 691 4666 
L 3169 4666 
L 3169 4134 
L 1269 4134 
L 1269 2991 
Q 1406 3038 1543 3061 
Q 1681 3084 1819 3084 
Q 2600 3084 3056 2656 
Q 3513 2228 3513 1497 
Q 3513 744 3044 326 
Q 2575 -91 1722 -91 
Q 1428 -91 1123 -41 
Q 819 9 494 109 
L 494 744 
Q 775 591 1075 516 
Q 1375 441 1709 441 
Q 2250 441 2565 725 
Q 2881 1009 2881 1497 
Q 2881 1984 2565 2268 
Q 2250 2553 1709 2553 
Q 1456 2553 1204 2497 
Q 953 2441 691 2322 
L 691 4666 
z
" id="DejaVuSans-35" transform="scale(0.015625)"/>
       </defs>
       <use xlink:href="#DejaVuSans-35"/>
       <use x="63.623047" xlink:href="#DejaVuSans-30"/>
       <use x="127.246094" xlink:href="#DejaVuSans-30"/>
      </g>
     </g>
    </g>
    <g id="xtick_3">
     <g id="line2d_3">
      <g>
       <use style="fill:#ffffff;stroke:#ffffff;stroke-width:0.8;" x="387.035232" xlink:href="#m90cb2c7c93" y="504"/>
      </g>
     </g>
     <g id="text_3">
      <!-- 1000 -->
      <g style="fill:#ffffff;" transform="translate(374.310232 518.598438)scale(0.1 -0.1)">
       <defs>
        <path d="M 794 531 
L 1825 531 
L 1825 4091 
L 703 3866 
L 703 4441 
L 1819 4666 
L 2450 4666 
L 2450 531 
L 3481 531 
L 3481 0 
L 794 0 
L 794 531 
z
" id="DejaVuSans-31" transform="scale(0.015625)"/>
       </defs>
       <use xlink:href="#DejaVuSans-31"/>
       <use x="63.623047" xlink:href="#DejaVuSans-30"/>
       <use x="127.246094" xlink:href="#DejaVuSans-30"/>
       <use x="190.869141" xlink:href="#DejaVuSans-30"/>
      </g>
     </g>
    </g>
    <g id="xtick_4">
     <g id="line2d_4">
      <g>
       <use style="fill:#ffffff;stroke:#ffffff;stroke-width:0.8;" x="499.798302" xlink:href="#m90cb2c7c93" y="504"/>
      </g>
     </g>
     <g id="text_4">
      <!-- 1500 -->
      <g style="fill:#ffffff;" transform="translate(487.073302 518.598438)scale(0.1 -0.1)">
       <use xlink:href="#DejaVuSans-31"/>
       <use x="63.623047" xlink:href="#DejaVuSans-35"/>
       <use x="127.246094" xlink:href="#DejaVuSans-30"/>
       <use x="190.869141" xlink:href="#DejaVuSans-30"/>
      </g>
     </g>
    </g>
    <g id="xtick_5">
     <g id="line2d_5">
      <g>
       <use style="fill:#ffffff;stroke:#ffffff;stroke-width:0.8;" x="612.561373" xlink:href="#m90cb2c7c93" y="504"/>
      </g>
     </g>
     <g id="text_5">
      <!-- 2000 -->
      <g style="fill:#ffffff;" transform="translate(599.836373 518.598438)scale(0.1 -0.1)">
       <defs>
        <path d="M 1228 531 
L 3431 531 
L 3431 0 
L 469 0 
L 469 531 
Q 828 903 1448 1529 
Q 2069 2156 2228 2338 
Q 2531 2678 2651 2914 
Q 2772 3150 2772 3378 
Q 2772 3750 2511 3984 
Q 2250 4219 1831 4219 
Q 1534 4219 1204 4116 
Q 875 4013 500 3803 
L 500 4441 
Q 881 4594 1212 4672 
Q 1544 4750 1819 4750 
Q 2544 4750 2975 4387 
Q 3406 4025 3406 3419 
Q 3406 3131 3298 2873 
Q 3191 2616 2906 2266 
Q 2828 2175 2409 1742 
Q 1991 1309 1228 531 
z
" id="DejaVuSans-32" transform="scale(0.015625)"/>
       </defs>
       <use xlink:href="#DejaVuSans-32"/>
       <use x="63.623047" xlink:href="#DejaVuSans-30"/>
       <use x="127.246094" xlink:href="#DejaVuSans-30"/>
       <use x="190.869141" xlink:href="#DejaVuSans-30"/>
      </g>
     </g>
    </g>
    <g id="xtick_6">
     <g id="line2d_6">
      <g>
       <use style="fill:#ffffff;stroke:#ffffff;stroke-width:0.8;" x="725.324444" xlink:href="#m90cb2c7c93" y="504"/>
      </g>
     </g>
     <g id="text_6">
      <!-- 2500 -->
      <g style="fill:#ffffff;" transform="translate(712.599444 518.598438)scale(0.1 -0.1)">
       <use xlink:href="#DejaVuSans-32"/>
       <use x="63.623047" xlink:href="#DejaVuSans-35"/>
       <use x="127.246094" xlink:href="#DejaVuSans-30"/>
       <use x="190.869141" xlink:href="#DejaVuSans-30"/>
      </g>
     </g>
    </g>
    <g id="xtick_7">
     <g id="line2d_7">
      <g>
       <use style="fill:#ffffff;stroke:#ffffff;stroke-width:0.8;" x="838.087514" xlink:href="#m90cb2c7c93" y="504"/>
      </g>
     </g>
     <g id="text_7">
      <!-- 3000 -->
      <g style="fill:#ffffff;" transform="translate(825.362514 518.598438)scale(0.1 -0.1)">
       <defs>
        <path d="M 2597 2516 
Q 3050 2419 3304 2112 
Q 3559 1806 3559 1356 
Q 3559 666 3084 287 
Q 2609 -91 1734 -91 
Q 1441 -91 1130 -33 
Q 819 25 488 141 
L 488 750 
Q 750 597 1062 519 
Q 1375 441 1716 441 
Q 2309 441 2620 675 
Q 2931 909 2931 1356 
Q 2931 1769 2642 2001 
Q 2353 2234 1838 2234 
L 1294 2234 
L 1294 2753 
L 1863 2753 
Q 2328 2753 2575 2939 
Q 2822 3125 2822 3475 
Q 2822 3834 2567 4026 
Q 2313 4219 1838 4219 
Q 1578 4219 1281 4162 
Q 984 4106 628 3988 
L 628 4550 
Q 988 4650 1302 4700 
Q 1616 4750 1894 4750 
Q 2613 4750 3031 4423 
Q 3450 4097 3450 3541 
Q 3450 3153 3228 2886 
Q 3006 2619 2597 2516 
z
" id="DejaVuSans-33" transform="scale(0.015625)"/>
       </defs>
       <use xlink:href="#DejaVuSans-33"/>
       <use x="63.623047" xlink:href="#DejaVuSans-30"/>
       <use x="127.246094" xlink:href="#DejaVuSans-30"/>
       <use x="190.869141" xlink:href="#DejaVuSans-30"/>
      </g>
     </g>
    </g>
    <g id="text_8">
     <!-- iteration -->
     <g style="fill:#ffffff;" transform="translate(495.477344 532.276562)scale(0.1 -0.1)">
      <defs>
       <path d="M 603 3500 
L 1178 3500 
L 1178 0 
L 603 0 
L 603 3500 
z
M 603 4863 
L 1178 4863 
L 1178 4134 
L 603 4134 
L 603 4863 
z
" id="DejaVuSans-69" transform="scale(0.015625)"/>
       <path d="M 1172 4494 
L 1172 3500 
L 2356 3500 
L 2356 3053 
L 1172 3053 
L 1172 1153 
Q 1172 725 1289 603 
Q 1406 481 1766 481 
L 2356 481 
L 2356 0 
L 1766 0 
Q 1100 0 847 248 
Q 594 497 594 1153 
L 594 3053 
L 172 3053 
L 172 3500 
L 594 3500 
L 594 4494 
L 1172 4494 
z
" id="DejaVuSans-74" transform="scale(0.015625)"/>
       <path d="M 3597 1894 
L 3597 1613 
L 953 1613 
Q 991 1019 1311 708 
Q 1631 397 2203 397 
Q 2534 397 2845 478 
Q 3156 559 3463 722 
L 3463 178 
Q 3153 47 2828 -22 
Q 2503 -91 2169 -91 
Q 1331 -91 842 396 
Q 353 884 353 1716 
Q 353 2575 817 3079 
Q 1281 3584 2069 3584 
Q 2775 3584 3186 3129 
Q 3597 2675 3597 1894 
z
M 3022 2063 
Q 3016 2534 2758 2815 
Q 2500 3097 2075 3097 
Q 1594 3097 1305 2825 
Q 1016 2553 972 2059 
L 3022 2063 
z
" id="DejaVuSans-65" transform="scale(0.015625)"/>
       <path d="M 2631 2963 
Q 2534 3019 2420 3045 
Q 2306 3072 2169 3072 
Q 1681 3072 1420 2755 
Q 1159 2438 1159 1844 
L 1159 0 
L 581 0 
L 581 3500 
L 1159 3500 
L 1159 2956 
Q 1341 3275 1631 3429 
Q 1922 3584 2338 3584 
Q 2397 3584 2469 3576 
Q 2541 3569 2628 3553 
L 2631 2963 
z
" id="DejaVuSans-72" transform="scale(0.015625)"/>
       <path d="M 2194 1759 
Q 1497 1759 1228 1600 
Q 959 1441 959 1056 
Q 959 750 1161 570 
Q 1363 391 1709 391 
Q 2188 391 2477 730 
Q 2766 1069 2766 1631 
L 2766 1759 
L 2194 1759 
z
M 3341 1997 
L 3341 0 
L 2766 0 
L 2766 531 
Q 2569 213 2275 61 
Q 1981 -91 1556 -91 
Q 1019 -91 701 211 
Q 384 513 384 1019 
Q 384 1609 779 1909 
Q 1175 2209 1959 2209 
L 2766 2209 
L 2766 2266 
Q 2766 2663 2505 2880 
Q 2244 3097 1772 3097 
Q 1472 3097 1187 3025 
Q 903 2953 641 2809 
L 641 3341 
Q 956 3463 1253 3523 
Q 1550 3584 1831 3584 
Q 2591 3584 2966 3190 
Q 3341 2797 3341 1997 
z
" id="DejaVuSans-61" transform="scale(0.015625)"/>
       <path d="M 1959 3097 
Q 1497 3097 1228 2736 
Q 959 2375 959 1747 
Q 959 1119 1226 758 
Q 1494 397 1959 397 
Q 2419 397 2687 759 
Q 2956 1122 2956 1747 
Q 2956 2369 2687 2733 
Q 2419 3097 1959 3097 
z
M 1959 3584 
Q 2709 3584 3137 3096 
Q 3566 2609 3566 1747 
Q 3566 888 3137 398 
Q 2709 -91 1959 -91 
Q 1206 -91 779 398 
Q 353 888 353 1747 
Q 353 2609 779 3096 
Q 1206 3584 1959 3584 
z
" id="DejaVuSans-6f" transform="scale(0.015625)"/>
       <path d="M 3513 2113 
L 3513 0 
L 2938 0 
L 2938 2094 
Q 2938 2591 2744 2837 
Q 2550 3084 2163 3084 
Q 1697 3084 1428 2787 
Q 1159 2491 1159 1978 
L 1159 0 
L 581 0 
L 581 3500 
L 1159 3500 
L 1159 2956 
Q 1366 3272 1645 3428 
Q 1925 3584 2291 3584 
Q 2894 3584 3203 3211 
Q 3513 2838 3513 2113 
z
" id="DejaVuSans-6e" transform="scale(0.015625)"/>
      </defs>
      <use xlink:href="#DejaVuSans-69"/>
      <use x="27.783203" xlink:href="#DejaVuSans-74"/>
      <use x="66.992188" xlink:href="#DejaVuSans-65"/>
      <use x="128.515625" xlink:href="#DejaVuSans-72"/>
      <use x="169.628906" xlink:href="#DejaVuSans-61"/>
      <use x="230.908203" xlink:href="#DejaVuSans-74"/>
      <use x="270.117188" xlink:href="#DejaVuSans-69"/>
      <use x="297.900391" xlink:href="#DejaVuSans-6f"/>
      <use x="359.082031" xlink:href="#DejaVuSans-6e"/>
     </g>
    </g>
   </g>
   <g id="matplotlib.axis_2">
    <g id="ytick_1">
     <g id="line2d_8">
      <defs>
       <path d="M 0 0 
L -3.5 0 
" id="m89de9891aa" style="stroke:#ffffff;stroke-width:0.8;"/>
      </defs>
      <g>
       <use style="fill:#ffffff;stroke:#ffffff;stroke-width:0.8;" x="126" xlink:href="#m89de9891aa" y="484.232727"/>
      </g>
     </g>
     <g id="text_9">
      <!-- 0 -->
      <g style="fill:#ffffff;" transform="translate(112.6375 488.031946)scale(0.1 -0.1)">
       <use xlink:href="#DejaVuSans-30"/>
      </g>
     </g>
    </g>
    <g id="ytick_2">
     <g id="line2d_9">
      <g>
       <use style="fill:#ffffff;stroke:#ffffff;stroke-width:0.8;" x="126" xlink:href="#m89de9891aa" y="416.26308"/>
      </g>
     </g>
     <g id="text_10">
      <!-- 2000 -->
      <g style="fill:#ffffff;" transform="translate(93.55 420.062299)scale(0.1 -0.1)">
       <use xlink:href="#DejaVuSans-32"/>
       <use x="63.623047" xlink:href="#DejaVuSans-30"/>
       <use x="127.246094" xlink:href="#DejaVuSans-30"/>
       <use x="190.869141" xlink:href="#DejaVuSans-30"/>
      </g>
     </g>
    </g>
    <g id="ytick_3">
     <g id="line2d_10">
      <g>
       <use style="fill:#ffffff;stroke:#ffffff;stroke-width:0.8;" x="126" xlink:href="#m89de9891aa" y="348.293432"/>
      </g>
     </g>
     <g id="text_11">
      <!-- 4000 -->
      <g style="fill:#ffffff;" transform="translate(93.55 352.092651)scale(0.1 -0.1)">
       <defs>
        <path d="M 2419 4116 
L 825 1625 
L 2419 1625 
L 2419 4116 
z
M 2253 4666 
L 3047 4666 
L 3047 1625 
L 3713 1625 
L 3713 1100 
L 3047 1100 
L 3047 0 
L 2419 0 
L 2419 1100 
L 313 1100 
L 313 1709 
L 2253 4666 
z
" id="DejaVuSans-34" transform="scale(0.015625)"/>
       </defs>
       <use xlink:href="#DejaVuSans-34"/>
       <use x="63.623047" xlink:href="#DejaVuSans-30"/>
       <use x="127.246094" xlink:href="#DejaVuSans-30"/>
       <use x="190.869141" xlink:href="#DejaVuSans-30"/>
      </g>
     </g>
    </g>
    <g id="ytick_4">
     <g id="line2d_11">
      <g>
       <use style="fill:#ffffff;stroke:#ffffff;stroke-width:0.8;" x="126" xlink:href="#m89de9891aa" y="280.323785"/>
      </g>
     </g>
     <g id="text_12">
      <!-- 6000 -->
      <g style="fill:#ffffff;" transform="translate(93.55 284.123004)scale(0.1 -0.1)">
       <defs>
        <path d="M 2113 2584 
Q 1688 2584 1439 2293 
Q 1191 2003 1191 1497 
Q 1191 994 1439 701 
Q 1688 409 2113 409 
Q 2538 409 2786 701 
Q 3034 994 3034 1497 
Q 3034 2003 2786 2293 
Q 2538 2584 2113 2584 
z
M 3366 4563 
L 3366 3988 
Q 3128 4100 2886 4159 
Q 2644 4219 2406 4219 
Q 1781 4219 1451 3797 
Q 1122 3375 1075 2522 
Q 1259 2794 1537 2939 
Q 1816 3084 2150 3084 
Q 2853 3084 3261 2657 
Q 3669 2231 3669 1497 
Q 3669 778 3244 343 
Q 2819 -91 2113 -91 
Q 1303 -91 875 529 
Q 447 1150 447 2328 
Q 447 3434 972 4092 
Q 1497 4750 2381 4750 
Q 2619 4750 2861 4703 
Q 3103 4656 3366 4563 
z
" id="DejaVuSans-36" transform="scale(0.015625)"/>
       </defs>
       <use xlink:href="#DejaVuSans-36"/>
       <use x="63.623047" xlink:href="#DejaVuSans-30"/>
       <use x="127.246094" xlink:href="#DejaVuSans-30"/>
       <use x="190.869141" xlink:href="#DejaVuSans-30"/>
      </g>
     </g>
    </g>
    <g id="ytick_5">
     <g id="line2d_12">
      <g>
       <use style="fill:#ffffff;stroke:#ffffff;stroke-width:0.8;" x="126" xlink:href="#m89de9891aa" y="212.354137"/>
      </g>
     </g>
     <g id="text_13">
      <!-- 8000 -->
      <g style="fill:#ffffff;" transform="translate(93.55 216.153356)scale(0.1 -0.1)">
       <defs>
        <path d="M 2034 2216 
Q 1584 2216 1326 1975 
Q 1069 1734 1069 1313 
Q 1069 891 1326 650 
Q 1584 409 2034 409 
Q 2484 409 2743 651 
Q 3003 894 3003 1313 
Q 3003 1734 2745 1975 
Q 2488 2216 2034 2216 
z
M 1403 2484 
Q 997 2584 770 2862 
Q 544 3141 544 3541 
Q 544 4100 942 4425 
Q 1341 4750 2034 4750 
Q 2731 4750 3128 4425 
Q 3525 4100 3525 3541 
Q 3525 3141 3298 2862 
Q 3072 2584 2669 2484 
Q 3125 2378 3379 2068 
Q 3634 1759 3634 1313 
Q 3634 634 3220 271 
Q 2806 -91 2034 -91 
Q 1263 -91 848 271 
Q 434 634 434 1313 
Q 434 1759 690 2068 
Q 947 2378 1403 2484 
z
M 1172 3481 
Q 1172 3119 1398 2916 
Q 1625 2713 2034 2713 
Q 2441 2713 2670 2916 
Q 2900 3119 2900 3481 
Q 2900 3844 2670 4047 
Q 2441 4250 2034 4250 
Q 1625 4250 1398 4047 
Q 1172 3844 1172 3481 
z
" id="DejaVuSans-38" transform="scale(0.015625)"/>
       </defs>
       <use xlink:href="#DejaVuSans-38"/>
       <use x="63.623047" xlink:href="#DejaVuSans-30"/>
       <use x="127.246094" xlink:href="#DejaVuSans-30"/>
       <use x="190.869141" xlink:href="#DejaVuSans-30"/>
      </g>
     </g>
    </g>
    <g id="ytick_6">
     <g id="line2d_13">
      <g>
       <use style="fill:#ffffff;stroke:#ffffff;stroke-width:0.8;" x="126" xlink:href="#m89de9891aa" y="144.38449"/>
      </g>
     </g>
     <g id="text_14">
      <!-- 10000 -->
      <g style="fill:#ffffff;" transform="translate(87.1875 148.183709)scale(0.1 -0.1)">
       <use xlink:href="#DejaVuSans-31"/>
       <use x="63.623047" xlink:href="#DejaVuSans-30"/>
       <use x="127.246094" xlink:href="#DejaVuSans-30"/>
       <use x="190.869141" xlink:href="#DejaVuSans-30"/>
       <use x="254.492188" xlink:href="#DejaVuSans-30"/>
      </g>
     </g>
    </g>
    <g id="ytick_7">
     <g id="line2d_14">
      <g>
       <use style="fill:#ffffff;stroke:#ffffff;stroke-width:0.8;" x="126" xlink:href="#m89de9891aa" y="76.414842"/>
      </g>
     </g>
     <g id="text_15">
      <!-- 12000 -->
      <g style="fill:#ffffff;" transform="translate(87.1875 80.214061)scale(0.1 -0.1)">
       <use xlink:href="#DejaVuSans-31"/>
       <use x="63.623047" xlink:href="#DejaVuSans-32"/>
       <use x="127.246094" xlink:href="#DejaVuSans-30"/>
       <use x="190.869141" xlink:href="#DejaVuSans-30"/>
       <use x="254.492188" xlink:href="#DejaVuSans-30"/>
      </g>
     </g>
    </g>
   </g>
   <g id="line2d_15">
    <path clip-path="url(#p98e7e565cf)" d="M 161.509091 404.742225 
L 161.734617 356.483775 
L 161.960143 413.816172 
L 162.185669 406.305526 
L 162.636722 476.722081 
L 163.087774 476.722081 
L 163.3133 474.003295 
L 163.538826 474.003295 
L 163.764352 427.274163 
L 163.989878 350.706355 
L 164.440931 350.706355 
L 164.666457 454.496007 
L 164.891983 433.935188 
L 165.117509 454.496007 
L 165.343035 429.449191 
L 165.568561 444.300559 
L 165.794088 425.506952 
L 166.019614 474.03728 
L 166.470666 410.859493 
L 166.696192 410.859493 
L 166.921718 388.905297 
L 167.147244 388.905297 
L 167.372771 342.07421 
L 167.598297 418.642017 
L 168.500401 418.642017 
L 168.725927 411.131371 
L 168.951454 420.681107 
L 169.17698 382.312241 
L 169.402506 399.84841 
L 169.628032 388.29357 
L 169.853558 363.246755 
L 170.079084 388.29357 
L 170.30461 322.396997 
L 170.530137 333.951837 
L 170.755663 333.951837 
L 171.206715 234.614197 
L 171.432241 256.568393 
L 171.657767 218.199527 
L 171.883293 246.54287 
L 172.10882 404.742225 
L 172.334346 353.663034 
L 172.559872 277.095227 
L 172.785398 277.095227 
L 173.010924 404.742225 
L 173.23645 413.408355 
L 173.461976 336.840547 
L 173.913029 264.384903 
L 174.138555 340.95271 
L 174.589607 340.95271 
L 174.815133 349.584856 
L 175.040659 383.671634 
L 175.266186 369.737856 
L 175.717238 325.319691 
L 175.942764 378.70985 
L 176.16829 459.049973 
L 176.619342 379.55947 
L 176.844869 445.422059 
L 177.070395 445.422059 
L 177.295921 442.873197 
L 177.521447 417.826382 
L 177.746973 445.422059 
L 177.972499 432.405871 
L 178.198025 432.405871 
L 178.423551 424.895225 
L 178.649078 348.327417 
L 178.874604 424.895225 
L 179.10013 348.327417 
L 179.325656 348.327417 
L 179.551182 432.405871 
L 179.776708 422.210424 
L 180.002234 356.313851 
L 180.227761 369.771841 
L 180.453287 369.771841 
L 180.678813 400.630061 
L 180.904339 400.630061 
L 181.129865 481.038154 
L 181.355391 481.038154 
L 181.580917 444.334544 
L 181.806444 444.334544 
L 182.03197 367.766736 
L 182.257496 407.664919 
L 182.483022 404.470346 
L 182.934074 307.579613 
L 183.1596 307.579613 
L 183.385127 282.532798 
L 183.610653 326.849009 
L 183.836179 403.416816 
L 184.287231 454.496007 
L 184.512757 451.777221 
L 184.738283 454.496007 
L 184.96381 444.300559 
L 185.189336 378.403986 
L 185.414862 354.512655 
L 185.640388 384.249376 
L 185.865914 335.990926 
L 186.09144 401.887499 
L 186.316966 322.396997 
L 186.542493 297.350182 
L 186.768019 345.608631 
L 187.219071 390.502583 
L 187.444597 481.038154 
L 187.670123 446.951376 
L 187.895649 446.849421 
L 188.121176 463.569954 
L 188.346702 463.569954 
L 188.572228 425.201088 
L 188.797754 455.78743 
L 189.02328 463.569954 
L 189.248806 463.671909 
L 189.474332 461.123047 
L 189.925385 378.777819 
L 190.150911 396.619852 
L 190.376437 396.619852 
L 190.601963 447.427163 
L 190.827489 447.325209 
L 191.053015 481.411987 
L 191.278542 436.110217 
L 191.729594 436.212171 
L 191.95512 481.513941 
L 192.180646 481.038154 
L 192.406172 459.083958 
L 192.631698 459.083958 
L 193.082751 381.46262 
L 193.308277 332.932292 
L 193.533803 354.886488 
L 193.759329 405.965678 
L 193.984855 365.285844 
L 194.210381 299.389271 
L 194.435908 365.285844 
L 194.661434 365.285844 
L 194.88696 413.816172 
L 195.112486 413.816172 
L 195.338012 347.919599 
L 195.563538 413.816172 
L 195.789064 411.267311 
L 196.01459 334.699503 
L 196.240117 350.706355 
L 196.465643 350.706355 
L 196.916695 431.862114 
L 197.367747 431.862114 
L 197.593273 380.782924 
L 197.8188 408.106722 
L 198.044326 359.848272 
L 198.269852 408.106722 
L 198.495378 405.387936 
L 198.720904 405.387936 
L 198.94643 383.43374 
L 199.171956 375.923094 
L 199.397483 375.923094 
L 199.623009 383.43374 
L 199.848535 408.106722 
L 200.074061 379.763379 
L 200.299587 430.842569 
L 200.525113 455.889384 
L 200.750639 436.212171 
L 200.976166 436.212171 
L 201.201692 427.274163 
L 201.427218 432.405871 
L 201.87827 385.40486 
L 202.103796 409.907918 
L 202.329322 409.907918 
L 202.554849 431.862114 
L 202.780375 431.760159 
L 203.005901 413.714218 
L 203.231427 424.589362 
L 203.456953 413.408355 
L 203.908005 413.3064 
L 204.133532 361.479544 
L 204.359058 361.479544 
L 204.81011 426.050709 
L 205.035636 416.025186 
L 205.261162 388.803342 
L 205.486688 420.715092 
L 205.712215 420.273289 
L 205.937741 445.422059 
L 206.163267 397.163609 
L 206.388793 463.671909 
L 206.614319 484.232727 
L 206.839845 454.496007 
L 207.516424 454.394052 
L 207.74195 473.935326 
L 207.967476 439.848547 
L 208.193002 473.935326 
L 208.418528 314.988305 
L 208.644054 356.585729 
L 208.869581 277.095227 
L 209.095107 349.075083 
L 209.771685 348.973129 
L 209.997211 404.844179 
L 210.222737 404.844179 
L 210.448264 370.757401 
L 210.67379 365.965541 
L 210.899316 373.476187 
L 211.124842 302.651814 
L 211.350368 300.102952 
L 211.575894 300.102952 
L 211.80142 376.67076 
L 212.026947 325.59157 
L 212.252473 447.495133 
L 212.477999 390.536568 
L 212.703525 406.407481 
L 212.929051 403.858619 
L 213.154577 370.553492 
L 213.380103 463.671909 
L 213.831156 402.66915 
L 214.056682 351.58996 
L 214.282208 394.342868 
L 214.507734 394.240914 
L 214.73326 455.889384 
L 214.958786 430.842569 
L 215.184312 382.584119 
L 215.409839 455.889384 
L 215.635365 484.232727 
L 215.860891 440.596214 
L 216.086417 433.085568 
L 216.537469 433.085568 
L 216.762995 427.274163 
L 216.988522 481.513941 
L 217.214048 481.038154 
L 217.439574 429.958964 
L 217.6651 413.408355 
L 217.890626 413.408355 
L 218.341678 363.110815 
L 218.567205 391.454158 
L 218.792731 366.407343 
L 219.018257 388.36154 
L 219.243783 388.36154 
L 219.469309 413.408355 
L 219.694835 369.771841 
L 219.920361 369.771841 
L 220.145888 413.408355 
L 220.371414 379.321576 
L 220.59694 413.408355 
L 220.822466 336.840547 
L 221.047992 336.840547 
L 221.273518 427.274163 
L 221.499044 427.274163 
L 221.724571 393.187384 
L 221.950097 393.187384 
L 222.175623 395.804216 
L 222.401149 393.255354 
L 222.626675 379.321576 
L 222.852201 404.742225 
L 223.077727 375.005504 
L 223.52878 479.236958 
L 223.979832 394.037005 
L 224.205358 429.687085 
L 224.430884 404.062528 
L 224.65641 481.038154 
L 224.881937 442.669288 
L 225.107463 431.760159 
L 225.332989 470.129025 
L 225.558515 462.618379 
L 225.784041 424.351468 
L 226.009567 424.351468 
L 226.235093 413.408355 
L 226.46062 413.408355 
L 226.686146 405.897709 
L 226.911672 476.722081 
L 227.362724 476.620127 
L 227.813776 394.00302 
L 228.039303 317.435212 
L 228.264829 324.945858 
L 228.715881 484.130773 
L 228.941407 424.487407 
L 229.392459 424.589362 
L 229.617986 436.212171 
L 229.843512 359.644363 
L 230.069038 407.664919 
L 230.294564 328.174417 
L 230.52009 404.946133 
L 230.745616 377.928199 
L 230.971142 375.379337 
L 231.196668 375.379337 
L 231.422195 451.947145 
L 231.873247 351.861839 
L 232.098773 373.951974 
L 232.324299 373.951974 
L 232.549825 384.147421 
L 232.775351 365.557723 
L 233.000878 463.671909 
L 233.226404 436.212171 
L 233.45193 436.212171 
L 233.677456 411.165356 
L 233.902982 411.165356 
L 234.128508 403.65471 
L 234.354034 463.671909 
L 234.579561 427.274163 
L 234.805087 419.763517 
L 235.030613 371.505067 
L 235.256139 379.015713 
L 235.481665 330.485385 
L 236.158244 479.236958 
L 236.38377 428.157768 
L 236.609296 420.647122 
L 236.834822 425.642891 
L 237.285874 306.696008 
L 237.5114 355.226336 
L 237.736927 329.737719 
L 237.962453 329.737719 
L 238.187979 307.783522 
L 238.639031 307.783522 
L 239.090083 431.862114 
L 239.766662 431.862114 
L 239.992188 380.782924 
L 240.44324 459.049973 
L 240.668766 459.049973 
L 240.894293 448.854526 
L 241.119819 381.326681 
L 241.796397 381.224727 
L 242.021923 378.675865 
L 242.247449 429.755055 
L 242.472976 442.771242 
L 242.698502 442.771242 
L 242.924028 429.211298 
L 243.37508 429.211298 
L 243.600606 413.3064 
L 243.826132 467.138361 
L 244.277185 417.520518 
L 244.502711 417.520518 
L 244.728237 387.783798 
L 244.953763 387.783798 
L 245.179289 414.597823 
L 245.630342 388.769357 
L 245.855868 337.690167 
L 246.081394 388.769357 
L 246.30692 413.816172 
L 247.209025 413.816172 
L 247.434551 379.729394 
L 247.660077 377.180532 
L 247.885603 413.816172 
L 248.111129 413.816172 
L 248.336655 484.232727 
L 248.562181 431.862114 
L 248.787707 431.760159 
L 249.013234 461.123047 
L 249.23876 463.671909 
L 249.464286 463.671909 
L 249.689812 438.625094 
L 249.915338 438.625094 
L 250.140864 463.671909 
L 250.36639 412.592719 
L 250.591917 463.671909 
L 250.817443 440.596214 
L 251.042969 364.028406 
L 251.268495 387.104101 
L 251.494021 387.104101 
L 251.719547 393.561218 
L 251.945073 393.561218 
L 252.847178 255.718772 
L 253.072704 294.087638 
L 253.29823 397.231579 
L 253.523756 397.231579 
L 253.749283 431.862114 
L 254.425861 431.862114 
L 254.651387 476.722081 
L 254.876913 484.232727 
L 255.102439 444.334544 
L 255.327966 444.334544 
L 255.553492 436.823898 
L 256.004544 370.655446 
L 256.455596 445.422059 
L 256.681122 445.422059 
L 256.906649 424.589362 
L 257.132175 424.589362 
L 257.357701 390.502583 
L 257.583227 390.400629 
L 257.808753 342.142179 
L 258.034279 401.785545 
L 258.259805 330.961172 
L 258.485332 330.961172 
L 258.710858 429.890994 
L 258.936384 427.342132 
L 259.16191 379.083683 
L 259.387436 433.255492 
L 259.612962 433.153537 
L 259.838488 470.129025 
L 260.289541 470.027071 
L 260.515067 481.038154 
L 260.740593 481.038154 
L 260.966119 455.889384 
L 261.191645 404.062528 
L 261.417171 455.889384 
L 261.642698 385.065012 
L 261.868224 453.170598 
L 262.319276 352.915368 
L 262.544802 404.062528 
L 262.770328 365.693662 
L 262.995854 404.062528 
L 263.221381 404.062528 
L 263.446907 402.66915 
L 263.672433 354.410701 
L 263.897959 344.249238 
L 264.349011 424.589362 
L 264.574537 376.330912 
L 264.800064 424.589362 
L 265.02559 424.589362 
L 265.251116 432.405871 
L 265.702168 287.018795 
L 265.927694 287.018795 
L 266.378746 432.405871 
L 266.604273 384.147421 
L 266.829799 362.193225 
L 267.055325 313.662897 
L 267.280851 413.408355 
L 267.506377 364.878026 
L 267.731903 425.506952 
L 267.957429 374.427762 
L 268.182956 425.506952 
L 268.408482 425.506952 
L 268.634008 400.460137 
L 268.859534 418.709987 
L 269.08506 467.240315 
L 269.536112 467.240315 
L 269.761639 484.232727 
L 270.212691 383.875543 
L 270.438217 356.211896 
L 270.663743 356.211896 
L 270.889269 317.84303 
L 271.114795 366.373359 
L 271.340322 341.326543 
L 271.565848 427.274163 
L 271.791374 376.194973 
L 272.0169 389.517024 
L 272.242426 393.255354 
L 272.467952 344.996904 
L 272.693478 396.076094 
L 272.919005 319.508287 
L 273.370057 319.508287 
L 273.595583 406.237557 
L 273.821109 406.237557 
L 274.046635 383.603664 
L 274.272161 431.862114 
L 274.723214 317.435212 
L 274.94874 317.435212 
L 275.174266 312.847261 
L 275.399792 429.890994 
L 275.625318 407.936798 
L 275.850844 454.496007 
L 276.076371 454.496007 
L 276.301897 451.777221 
L 276.527423 451.777221 
L 276.752949 453.170598 
L 276.978475 426.152664 
L 277.204001 377.894214 
L 277.429527 377.894214 
L 277.655054 426.152664 
L 277.88058 426.152664 
L 278.106106 481.038154 
L 278.557158 378.437971 
L 278.782684 365.965541 
L 279.00821 363.416679 
L 279.233737 340.918726 
L 279.459263 340.918726 
L 279.684789 365.965541 
L 279.910315 418.336154 
L 280.135841 347.511781 
L 280.361367 413.408355 
L 280.586893 388.36154 
L 280.81242 388.36154 
L 281.037946 427.274163 
L 281.263472 388.905297 
L 281.488998 444.334544 
L 281.714524 419.287729 
L 281.94005 415.549398 
L 282.165576 437.877428 
L 282.391103 402.227348 
L 282.842155 402.227348 
L 283.293207 259.762966 
L 283.518733 211.232638 
L 283.744259 226.525809 
L 283.969786 213.747515 
L 284.195312 387.681843 
L 284.420838 436.212171 
L 284.646364 433.66331 
L 285.097416 385.40486 
L 285.322942 387.953722 
L 285.548468 431.862114 
L 285.999521 355.294306 
L 286.450573 397.775336 
L 286.901625 283.348434 
L 287.127151 397.775336 
L 287.352678 431.862114 
L 287.578204 424.351468 
L 288.029256 351.895824 
L 288.254782 424.589362 
L 288.705834 424.589362 
L 288.931361 386.220496 
L 289.382413 429.890994 
L 289.607939 429.890994 
L 289.833465 381.632544 
L 290.058991 429.890994 
L 290.284517 413.816172 
L 290.510044 358.964667 
L 290.73557 379.55947 
L 290.961096 431.862114 
L 291.186622 409.907918 
L 291.412148 402.397272 
L 291.637674 378.200077 
L 291.8632 449.772116 
L 292.314253 449.772116 
L 292.539779 403.688695 
L 292.765305 333.27214 
L 293.441883 470.129025 
L 293.892936 470.129025 
L 294.118462 421.598697 
L 294.343988 405.965678 
L 294.569514 470.129025 
L 294.79504 481.513941 
L 295.020566 415.617368 
L 295.246093 413.068506 
L 295.471619 442.873197 
L 295.697145 432.405871 
L 295.922671 432.405871 
L 296.148197 402.66915 
L 296.373723 479.236958 
L 296.599249 413.340385 
L 296.824776 413.340385 
L 297.050302 418.336154 
L 297.275828 415.141581 
L 297.501354 338.573773 
L 297.72688 338.573773 
L 297.952406 404.470346 
L 298.403459 404.470346 
L 298.628985 445.422059 
L 298.854511 407.053193 
L 299.080037 445.422059 
L 299.305563 436.212171 
L 299.531089 484.232727 
L 299.756615 433.153537 
L 299.982142 425.642891 
L 300.433194 296.432591 
L 300.65872 337.520243 
L 300.884246 327.358781 
L 301.109772 327.358781 
L 301.335298 378.437971 
L 301.560825 375.889109 
L 301.786351 413.816172 
L 302.011877 388.769357 
L 302.462929 388.769357 
L 302.688455 413.816172 
L 302.913981 391.861976 
L 303.139507 353.49311 
L 303.59056 445.422059 
L 303.816086 437.911413 
L 304.267138 365.455768 
L 304.492664 372.966414 
L 304.71819 372.966414 
L 304.943717 351.012218 
L 305.394769 423.807711 
L 305.620295 420.613137 
L 305.845821 440.868092 
L 306.071347 440.868092 
L 306.296873 391.522128 
L 306.5224 386.220496 
L 306.747926 339.593317 
L 306.973452 368.854251 
L 307.198978 334.767472 
L 307.875556 413.816172 
L 308.101083 365.285844 
L 308.326609 467.240315 
L 308.552135 433.153537 
L 308.777661 467.240315 
L 309.003187 481.513941 
L 309.228713 451.777221 
L 309.454239 446.98536 
L 309.679766 481.038154 
L 309.905292 424.589362 
L 310.130818 429.890994 
L 310.356344 429.890994 
L 310.58187 353.323186 
L 310.807396 427.342132 
L 311.032922 361.445559 
L 311.258449 429.890994 
L 311.483975 378.811804 
L 311.709501 378.811804 
L 311.935027 422.95809 
L 312.160553 422.95809 
L 312.386079 474.03728 
L 312.837132 397.775336 
L 313.062658 431.862114 
L 313.739236 431.862114 
L 313.964762 397.775336 
L 314.190288 397.775336 
L 314.641341 481.038154 
L 314.866867 440.596214 
L 315.092393 438.047352 
L 315.317919 440.596214 
L 315.543445 412.252871 
L 315.768971 404.062528 
L 315.994498 453.170598 
L 316.220024 453.170598 
L 316.44555 481.513941 
L 316.896602 481.411987 
L 317.122128 481.411987 
L 317.347654 432.303917 
L 317.573181 432.405871 
L 317.798707 415.413459 
L 318.024233 429.890994 
L 318.249759 432.405871 
L 318.475285 404.062528 
L 318.700811 429.687085 
L 319.151864 429.687085 
L 319.37739 407.223117 
L 319.602916 459.049973 
L 319.828442 459.049973 
L 320.279494 411.165356 
L 320.50502 459.049973 
L 320.730546 459.049973 
L 320.956073 456.331187 
L 321.181599 388.2256 
L 321.407125 413.408355 
L 321.632651 383.671634 
L 321.858177 375.039489 
L 322.083703 438.353215 
L 322.309229 431.760159 
L 322.534756 380.680969 
L 322.760282 419.049835 
L 322.985808 430.434751 
L 323.211334 430.434751 
L 323.43686 481.513941 
L 323.662386 451.777221 
L 323.887912 404.946133 
L 324.113439 390.672508 
L 324.338965 407.664919 
L 324.564491 397.469472 
L 324.790017 397.469472 
L 325.015543 394.92061 
L 325.241069 360.833832 
L 325.466595 439.950502 
L 325.917648 439.950502 
L 326.143174 450.145949 
L 326.594226 396.755791 
L 326.819752 445.693937 
L 327.045278 445.693937 
L 327.270805 444.300559 
L 327.721857 444.300559 
L 327.947383 474.03728 
L 328.172909 422.210424 
L 328.398435 414.699778 
L 328.623961 424.895225 
L 328.849488 414.699778 
L 329.075014 392.745582 
L 329.30054 444.572438 
L 329.526066 437.775473 
L 329.751592 462.618379 
L 329.977118 462.618379 
L 330.202644 417.078716 
L 330.428171 436.823898 
L 330.879223 436.823898 
L 331.104749 413.408355 
L 331.330275 404.742225 
L 331.555801 431.862114 
L 331.781327 413.408355 
L 332.006854 364.878026 
L 332.23238 364.878026 
L 332.457906 356.211896 
L 332.683432 305.132706 
L 332.908958 378.811804 
L 333.134484 378.811804 
L 333.36001 428.157768 
L 333.585537 384.623209 
L 333.811063 313.798836 
L 334.036589 380.782924 
L 334.262115 373.510172 
L 334.487641 373.510172 
L 334.713167 404.810194 
L 335.389746 404.70824 
L 335.615272 455.78743 
L 335.840798 407.257102 
L 336.517376 407.257102 
L 336.742903 436.110217 
L 337.645007 436.110217 
L 337.870533 402.023439 
L 338.096059 402.023439 
L 338.321585 395.702261 
L 338.547112 373.578141 
L 338.772638 313.934776 
L 338.998164 424.589362 
L 339.22369 424.487407 
L 339.449216 390.400629 
L 339.674742 398.217138 
L 339.900268 445.048226 
L 340.125795 437.537579 
L 340.351321 371.641006 
L 340.576847 371.742961 
L 340.802373 442.635303 
L 341.027899 371.81093 
L 341.253425 371.81093 
L 341.478951 357.36738 
L 341.930004 413.408355 
L 342.381056 313.323049 
L 342.606582 404.402376 
L 342.832108 445.422059 
L 343.057634 445.422059 
L 343.283161 440.596214 
L 343.508687 392.065885 
L 343.734213 418.709987 
L 343.959739 352.813414 
L 344.185265 418.709987 
L 344.861844 418.709987 
L 345.08737 370.451537 
L 345.312896 479.236958 
L 345.538422 430.978508 
L 345.763948 479.236958 
L 345.989474 484.232727 
L 346.215 462.278531 
L 346.440527 385.710723 
L 346.666053 351.623945 
L 346.891579 402.66915 
L 347.117105 377.928199 
L 347.342631 326.849009 
L 347.568157 326.747054 
L 347.793683 260.850481 
L 348.244736 260.952435 
L 348.470262 265.642341 
L 348.695788 402.66915 
L 349.14684 402.66915 
L 349.372366 424.589362 
L 349.597893 373.510172 
L 349.823419 365.999525 
L 350.048945 373.510172 
L 350.274471 373.510172 
L 350.499997 389.517024 
L 350.725523 355.430245 
L 350.951049 382.074347 
L 351.402102 402.125393 
L 351.627628 363.756527 
L 351.853154 354.818518 
L 352.07868 354.818518 
L 352.304206 409.058297 
L 352.755259 408.956343 
L 352.980785 408.956343 
L 353.206311 420.409228 
L 353.431837 372.150779 
L 353.657363 372.048824 
L 353.882889 358.149031 
L 354.333942 479.135004 
L 354.559468 457.180808 
L 354.784994 479.135004 
L 355.461572 479.135004 
L 355.912624 402.125393 
L 356.138151 436.212171 
L 356.589203 402.635165 
L 356.814729 448.174829 
L 357.040255 454.767885 
L 357.265781 409.907918 
L 357.491307 424.589362 
L 357.716834 386.220496 
L 357.94236 393.493248 
L 358.167886 393.493248 
L 358.393412 345.234798 
L 358.618938 444.334544 
L 358.844464 444.334544 
L 359.06999 392.507688 
L 359.295517 407.359056 
L 359.521043 379.015713 
L 359.746569 313.11914 
L 359.972095 364.945996 
L 360.197621 364.945996 
L 360.423147 470.129025 
L 360.648673 436.212171 
L 361.325252 436.110217 
L 361.550778 370.213644 
L 361.776304 396.280003 
L 362.00183 393.08543 
L 362.227356 393.08543 
L 362.452883 415.039626 
L 362.678409 412.490764 
L 362.903935 415.685338 
L 363.129461 408.174692 
L 363.354987 410.825508 
L 363.580513 476.722081 
L 364.031566 417.452549 
L 364.257092 476.722081 
L 364.482618 446.98536 
L 364.708144 474.003295 
L 364.93367 404.742225 
L 365.159196 397.231579 
L 365.384722 466.526634 
L 365.610249 466.526634 
L 365.835775 424.589362 
L 366.061301 358.692788 
L 366.286827 365.965541 
L 366.512353 408.140707 
L 366.737879 337.316334 
L 367.188932 337.316334 
L 367.414458 408.140707 
L 367.639984 369.771841 
L 367.86551 445.693937 
L 368.316562 368.99019 
L 368.542088 368.99019 
L 368.767615 429.890994 
L 368.993141 429.890994 
L 369.218667 381.360666 
L 369.444193 435.702399 
L 369.669719 407.359056 
L 369.895245 330.791248 
L 370.120771 319.236408 
L 370.346298 285.14963 
L 370.571824 285.14963 
L 370.79735 382.482165 
L 371.248402 295.854849 
L 371.473928 413.170461 
L 371.699454 420.681107 
L 371.924981 442.057561 
L 372.150507 429.890994 
L 372.376033 381.360666 
L 372.601559 381.360666 
L 372.827085 413.748203 
L 373.052611 343.331648 
L 373.278137 413.816172 
L 373.72919 413.816172 
L 373.954716 391.861976 
L 374.180242 391.760022 
L 374.405768 458.982003 
L 374.631294 391.760022 
L 374.85682 391.760022 
L 375.082346 445.286119 
L 375.533399 445.286119 
L 375.758925 438.896972 
L 375.984451 438.896972 
L 376.209977 379.321576 
L 376.661029 379.321576 
L 376.886556 331.063127 
L 377.112082 323.552481 
L 377.337608 400.120289 
L 377.563134 378.166092 
L 377.78866 455.889384 
L 378.014186 448.378738 
L 378.465239 348.76922 
L 378.690765 397.299548 
L 378.916291 404.810194 
L 379.141817 366.441328 
L 379.367343 394.784671 
L 379.818395 306.35616 
L 380.043922 412.592719 
L 380.269448 336.024911 
L 380.494974 435.328566 
L 380.7205 413.816172 
L 380.946026 362.736982 
L 381.171552 373.510172 
L 381.397078 373.510172 
L 381.622605 365.999525 
L 381.848131 417.078716 
L 382.524709 417.078716 
L 382.750235 463.671909 
L 382.975761 463.671909 
L 383.65234 366.951101 
L 383.877866 421.190879 
L 384.103392 443.145075 
L 384.328918 436.212171 
L 384.554444 455.889384 
L 384.779971 407.359056 
L 385.005497 385.065012 
L 385.231023 412.252871 
L 385.456549 412.252871 
L 385.682075 430.842569 
L 385.907601 430.842569 
L 386.358654 306.016312 
L 386.809706 476.722081 
L 387.035232 474.003295 
L 387.260758 474.003295 
L 387.71181 403.416816 
L 387.937337 369.330038 
L 388.162863 394.376853 
L 388.613915 359.372485 
L 388.839441 359.372485 
L 389.290493 481.038154 
L 389.51602 481.038154 
L 389.741546 442.669288 
L 389.967072 442.567333 
L 390.192598 394.308884 
L 390.418124 318.012954 
L 390.869176 318.114909 
L 391.094703 353.968898 
L 391.320229 353.968898 
L 391.545755 328.922083 
L 391.771281 326.373221 
L 391.996807 374.529716 
L 392.222333 377.078578 
L 392.673385 456.365172 
L 392.898912 456.467126 
L 393.124438 481.513941 
L 393.349964 456.331187 
L 393.57549 456.331187 
L 394.026542 358.692788 
L 394.252068 422.210424 
L 394.477595 373.680096 
L 394.703121 388.123646 
L 394.928647 388.123646 
L 395.154173 448.854526 
L 395.379699 426.90033 
L 395.605225 448.752571 
L 395.830751 436.212171 
L 396.056278 436.212171 
L 396.281804 402.125393 
L 396.50733 424.589362 
L 396.732856 376.330912 
L 396.958382 368.820266 
L 397.183908 368.820266 
L 397.409434 474.003295 
L 398.086013 347.375842 
L 398.311539 347.273888 
L 398.537065 373.306263 
L 398.762591 380.816909 
L 398.988117 380.918863 
L 399.213644 420.817046 
L 399.890222 258.131695 
L 400.115748 181.563887 
L 400.341274 181.563887 
L 400.5668 159.609691 
L 401.017853 249.36361 
L 401.243379 249.36361 
L 401.468905 431.862114 
L 401.694431 355.294306 
L 401.919957 431.862114 
L 402.145483 431.862114 
L 402.37101 383.603664 
L 402.596536 365.149905 
L 402.822062 362.601043 
L 403.047588 339.967151 
L 403.273114 410.791523 
L 403.49864 334.223715 
L 403.724166 309.1769 
L 403.949693 301.666254 
L 404.175219 367.155009 
L 404.400745 367.155009 
L 404.626271 362.601043 
L 404.851797 384.283361 
L 405.077323 318.386787 
L 405.302849 315.837926 
L 405.528376 405.387936 
L 405.979428 405.387936 
L 406.204954 407.936798 
L 406.43048 462.278531 
L 406.881532 454.7339 
L 407.332585 454.7339 
L 407.558111 427.274163 
L 407.783637 427.274163 
L 408.009163 350.706355 
L 408.460215 454.190143 
L 408.685742 388.29357 
L 408.911268 354.920473 
L 409.136794 420.817046 
L 409.36232 418.09826 
L 409.587846 382.006377 
L 409.813372 382.006377 
L 410.038898 455.889384 
L 410.264424 389.992811 
L 410.489951 368.038615 
L 410.715477 368.038615 
L 410.941003 389.992811 
L 411.166529 338.913621 
L 411.392055 338.913621 
L 411.617581 313.730867 
L 411.843107 393.255354 
L 412.068634 344.725026 
L 412.29416 380.782924 
L 412.519686 381.326681 
L 412.745212 381.326681 
L 412.970738 347.239903 
L 413.196264 351.58996 
L 413.647317 479.236958 
L 413.872843 474.03728 
L 414.098369 473.935326 
L 414.323895 448.888511 
L 414.549421 448.888511 
L 414.774947 473.935326 
L 415.000473 466.42468 
L 415.226 400.528106 
L 415.451526 428.701525 
L 415.677052 377.622335 
L 415.902578 377.622335 
L 416.35363 462.618379 
L 416.579156 424.895225 
L 416.804683 444.334544 
L 417.030209 444.334544 
L 417.255735 434.139097 
L 417.481261 408.140707 
L 417.706787 408.038752 
L 417.932313 473.935326 
L 418.157839 473.935326 
L 418.383366 396.076094 
L 418.608892 444.334544 
L 418.834418 396.076094 
L 419.059944 376.330912 
L 419.28547 342.244134 
L 419.510996 265.676326 
L 419.736522 447.427163 
L 419.962049 410.247766 
L 420.187575 410.247766 
L 420.413101 379.729394 
L 420.638627 413.816172 
L 420.864153 470.129025 
L 421.089679 470.129025 
L 421.315205 413.816172 
L 421.540732 413.816172 
L 421.766258 337.248365 
L 421.991784 407.664919 
L 422.21731 355.838063 
L 422.442836 361.581498 
L 422.668362 361.581498 
L 422.893888 445.422059 
L 423.119415 429.890994 
L 423.344941 431.862114 
L 423.570467 431.862114 
L 423.795993 444.334544 
L 424.021519 470.129025 
L 424.247045 436.042247 
L 424.472571 447.427163 
L 424.698098 481.513941 
L 424.923624 430.434751 
L 425.14915 437.877428 
L 425.374676 429.78904 
L 425.825728 429.890994 
L 426.051254 353.323186 
L 426.502307 353.323186 
L 426.727833 367.766736 
L 426.953359 404.470346 
L 427.404411 333.679958 
L 427.629937 333.679958 
L 427.855463 410.247766 
L 428.08099 379.321576 
L 428.306516 330.791248 
L 428.532042 330.791248 
L 428.757568 349.788765 
L 428.983094 432.405871 
L 429.20862 429.687085 
L 429.434146 432.405871 
L 429.659673 424.895225 
L 429.885199 432.405871 
L 430.110725 411.845053 
L 430.336251 435.328566 
L 430.561777 417.520518 
L 431.012829 350.230567 
L 431.463882 350.230567 
L 431.689408 428.871449 
L 431.914934 438.353215 
L 432.365986 338.369864 
L 432.591512 365.965541 
L 432.817039 365.965541 
L 433.042565 418.336154 
L 433.268091 365.965541 
L 433.493617 410.825508 
L 433.719143 367.188994 
L 433.944669 367.188994 
L 434.170195 374.69964 
L 434.395722 374.69964 
L 434.621248 372.150779 
L 434.846774 386.050571 
L 435.0723 334.223715 
L 435.297826 326.713069 
L 435.523352 432.405871 
L 435.748878 352.915368 
L 435.974405 375.005504 
L 436.199931 426.152664 
L 436.425457 444.300559 
L 436.650983 474.03728 
L 436.876509 474.03728 
L 437.102035 466.526634 
L 437.327561 444.300559 
L 437.553088 435.668414 
L 437.778614 435.668414 
L 438.00414 474.03728 
L 438.229666 474.03728 
L 438.680718 411.607159 
L 438.906244 411.607159 
L 439.131771 412.252871 
L 439.357297 363.994421 
L 439.582823 437.877428 
L 439.808349 413.816172 
L 440.033875 413.816172 
L 440.259401 454.496007 
L 440.484927 410.859493 
L 440.710454 437.877428 
L 440.93598 374.69964 
L 441.161506 361.377589 
L 441.387032 361.377589 
L 441.838084 476.722081 
L 442.289137 476.722081 
L 442.514663 442.635303 
L 442.740189 366.067495 
L 442.965715 366.067495 
L 443.191241 341.02068 
L 443.642293 341.02068 
L 443.86782 317.537167 
L 444.093346 394.104975 
L 444.318872 349.788765 
L 444.544398 349.788765 
L 444.769924 342.278119 
L 444.99545 391.386189 
L 445.220976 398.896835 
L 445.446502 398.896835 
L 445.897555 349.924704 
L 446.123081 394.104975 
L 446.348607 476.722081 
L 446.574133 436.823898 
L 446.799659 479.236958 
L 447.025185 479.236958 
L 447.250712 471.726312 
L 447.476238 473.527508 
L 447.701764 481.038154 
L 448.152816 481.038154 
L 448.378342 446.951376 
L 448.603868 381.054802 
L 449.054921 355.906033 
L 449.280447 421.802606 
L 449.505973 373.272278 
L 449.731499 398.421047 
L 449.957025 360.052181 
L 450.182551 401.071864 
L 450.408078 359.950227 
L 450.633604 411.777083 
L 450.85913 382.040362 
L 451.084656 330.961172 
L 451.535708 411.777083 
L 451.761234 352.133717 
L 451.986761 424.589362 
L 452.212287 445.422059 
L 452.437813 432.405871 
L 452.663339 429.890994 
L 452.888865 429.890994 
L 453.114391 353.323186 
L 453.565444 456.161263 
L 453.79097 470.129025 
L 454.016496 470.129025 
L 454.242022 421.598697 
L 454.467548 421.598697 
L 454.693074 370.519507 
L 454.9186 419.049835 
L 455.144127 376.194973 
L 455.369653 430.434751 
L 455.595179 361.343605 
L 456.046231 379.321576 
L 456.271757 330.791248 
L 456.497283 432.54181 
L 456.72281 391.454158 
L 456.948336 413.408355 
L 457.173862 413.408355 
L 457.624914 326.781039 
L 457.85044 397.605412 
L 458.075966 395.05655 
L 458.301493 324.232177 
L 458.752545 383.603664 
L 458.978071 431.862114 
L 459.203597 431.862114 
L 459.429123 445.422059 
L 459.654649 484.232727 
L 459.880176 436.212171 
L 460.105702 414.257975 
L 460.331228 406.747329 
L 460.78228 341.190604 
L 461.007806 290.111414 
L 461.233332 290.111414 
L 461.458859 341.190604 
L 461.684385 341.190604 
L 461.909911 363.1448 
L 462.135437 424.351468 
L 462.360963 376.093018 
L 462.812015 375.991064 
L 463.037541 433.323461 
L 463.263068 376.364897 
L 463.488594 376.330912 
L 463.71412 424.589362 
L 463.939646 424.589362 
L 464.165172 348.021554 
L 464.390698 382.482165 
L 464.616224 459.049973 
L 464.841751 459.049973 
L 465.067277 479.236958 
L 465.292803 445.15018 
L 465.518329 450.145949 
L 465.743855 395.804216 
L 465.969381 431.862114 
L 466.194907 432.405871 
L 466.420434 432.405871 
L 466.64596 361.581498 
L 466.871486 361.581498 
L 467.097012 415.413459 
L 467.322538 398.319093 
L 467.548064 450.145949 
L 467.77359 424.963195 
L 467.999117 459.049973 
L 468.224643 437.095777 
L 468.450169 429.585131 
L 468.675695 454.767885 
L 468.901221 454.767885 
L 469.126747 411.131371 
L 469.352273 411.131371 
L 469.5778 440.596214 
L 469.803326 413.408355 
L 470.028852 413.408355 
L 470.254378 392.847536 
L 470.479904 392.847536 
L 470.70543 435.328566 
L 470.930956 453.340522 
L 471.156483 481.038154 
L 471.382009 474.03728 
L 471.607535 471.488418 
L 471.833061 471.488418 
L 472.058587 451.947145 
L 472.284113 467.240315 
L 472.509639 467.240315 
L 472.960692 352.813414 
L 473.186218 352.813414 
L 473.63727 395.804216 
L 473.862796 383.331786 
L 474.088322 383.331786 
L 474.313849 431.862114 
L 474.539375 431.862114 
L 474.764901 383.331786 
L 474.990427 383.331786 
L 475.215953 376.059033 
L 475.441479 436.212171 
L 475.667005 436.212171 
L 475.892532 387.681843 
L 476.118058 407.359056 
L 476.343584 330.791248 
L 476.56911 307.307735 
L 476.794636 355.838063 
L 477.020162 321.751285 
L 477.245688 321.751285 
L 477.471215 355.838063 
L 477.696741 353.323186 
L 477.922267 378.811804 
L 478.147793 378.811804 
L 478.373319 433.153537 
L 479.049898 297.248227 
L 479.275424 355.838063 
L 479.50095 307.307735 
L 479.726476 319.236408 
L 479.952002 364.878026 
L 480.177528 364.878026 
L 480.403054 436.212171 
L 480.628581 436.212171 
L 480.854107 413.816172 
L 481.079633 406.305526 
L 481.305159 406.305526 
L 481.530685 476.722081 
L 481.756211 436.823898 
L 481.981737 436.823898 
L 482.207263 407.087177 
L 482.43279 473.527508 
L 482.658316 424.997179 
L 482.883842 424.997179 
L 483.109368 425.472967 
L 483.334894 432.983613 
L 483.56042 435.702399 
L 483.785946 366.373359 
L 484.011473 332.28658 
L 484.236999 379.729394 
L 484.462525 402.125393 
L 484.913577 402.125393 
L 485.139103 394.614747 
L 485.364629 372.660551 
L 485.590156 439.916517 
L 485.815682 424.351468 
L 486.041208 424.895225 
L 486.266734 354.070852 
L 486.49226 354.070852 
L 486.717786 404.334407 
L 486.943312 356.075957 
L 487.168839 432.405871 
L 487.394365 407.223117 
L 487.619891 358.964667 
L 487.845417 373.951974 
L 488.070943 363.586603 
L 488.296469 363.586603 
L 488.521995 413.816172 
L 488.747522 424.589362 
L 489.198574 424.589362 
L 489.4241 467.240315 
L 489.649626 442.1935 
L 489.875152 467.240315 
L 490.326205 413.816172 
L 490.777257 413.816172 
L 491.002783 411.267311 
L 491.228309 433.66331 
L 491.679361 433.66331 
L 491.904888 451.947145 
L 492.130414 461.123047 
L 492.35594 453.612401 
L 492.581466 415.243535 
L 492.806992 415.243535 
L 493.032518 413.3064 
L 493.258044 391.352204 
L 493.483571 391.352204 
L 493.709097 342.821876 
L 494.160149 424.589362 
L 494.611201 424.589362 
L 494.836727 445.422059 
L 495.062254 427.274163 
L 495.28778 378.743834 
L 495.513306 427.274163 
L 495.738832 388.905297 
L 495.964358 431.760159 
L 496.189884 429.211298 
L 496.41541 421.700652 
L 496.640937 460.069518 
L 496.866463 474.173219 
L 497.091989 407.562965 
L 497.317515 407.562965 
L 497.543041 436.110217 
L 497.768567 427.172208 
L 497.994093 480.936199 
L 498.21962 432.303917 
L 498.445146 424.793271 
L 498.670672 476.722081 
L 498.896198 451.675266 
L 499.121724 400.596076 
L 499.34725 451.675266 
L 499.572776 451.573312 
L 499.798302 403.314862 
L 500.023829 381.360666 
L 500.249355 381.360666 
L 500.474881 332.830338 
L 501.151459 332.830338 
L 501.376985 340.340984 
L 501.602512 311.997641 
L 501.828038 333.951837 
L 502.504616 333.951837 
L 502.730142 430.842569 
L 502.955668 423.331923 
L 503.181195 455.889384 
L 503.406721 445.422059 
L 504.308825 445.422059 
L 504.534351 427.274163 
L 504.759878 350.706355 
L 504.985404 328.174417 
L 505.21093 418.132245 
L 505.436456 425.642891 
L 505.661982 359.746318 
L 505.887508 339.1855 
L 506.113034 405.082073 
L 507.015139 404.980118 
L 507.240665 371.301158 
L 507.691717 463.977772 
L 508.14277 384.011482 
L 508.368296 394.037005 
L 508.593822 383.841558 
L 508.819348 388.123646 
L 509.044874 388.123646 
L 509.2704 397.469472 
L 509.495927 390.672508 
L 509.946979 364.028406 
L 510.172505 342.07421 
L 510.623557 432.54181 
L 511.07461 432.54181 
L 511.300136 462.278531 
L 511.525662 452.083084 
L 511.751188 401.003894 
L 511.976714 401.003894 
L 512.20224 452.083084 
L 512.427766 427.036269 
L 512.653293 427.036269 
L 512.878819 392.949491 
L 513.104345 437.231716 
L 513.329871 411.165356 
L 513.555397 403.65471 
L 513.780923 406.747329 
L 514.006449 424.895225 
L 514.231976 354.070852 
L 514.457502 413.408355 
L 514.683028 392.847536 
L 514.908554 392.847536 
L 515.13408 481.038154 
L 515.359606 463.671909 
L 515.585132 413.816172 
L 515.810659 413.816172 
L 516.036185 365.557723 
L 516.261711 418.981866 
L 516.938289 418.981866 
L 517.389341 335.073336 
L 517.614868 333.102216 
L 517.840394 336.364759 
L 518.06592 346.084419 
L 518.516972 275.701849 
L 519.193551 275.701849 
L 519.419077 250.213231 
L 519.644603 250.213231 
L 520.095655 344.113299 
L 520.321181 319.066484 
L 520.546707 319.066484 
L 520.772234 434.003158 
L 521.223286 368.106585 
L 521.448812 393.1534 
L 521.674338 353.255217 
L 522.350917 353.255217 
L 522.576443 359.066621 
L 522.801969 330.723278 
L 523.027495 330.723278 
L 523.253021 317.537167 
L 523.478547 383.43374 
L 523.704073 335.17529 
L 524.155126 405.082073 
L 524.380652 405.082073 
L 524.606178 418.981866 
L 524.831704 415.413459 
L 525.05723 435.974278 
L 525.282756 430.978508 
L 525.508283 392.609642 
L 525.733809 430.978508 
L 525.959335 402.66915 
L 526.184861 424.963195 
L 526.410387 422.414333 
L 526.635913 390.638523 
L 527.086966 378.845789 
L 527.312492 378.845789 
L 527.538018 427.274163 
L 527.98907 427.274163 
L 528.214596 419.763517 
L 528.440122 419.763517 
L 528.665649 427.274163 
L 528.891175 402.227348 
L 529.116701 402.125393 
L 529.342227 427.172208 
L 529.567753 402.125393 
L 529.793279 402.125393 
L 530.018805 408.106722 
L 530.244332 406.815299 
L 530.469858 408.106722 
L 530.695384 408.106722 
L 530.92091 411.165356 
L 531.146436 411.165356 
L 531.371962 387.953722 
L 531.597488 387.953722 
L 531.823015 349.584856 
L 532.048541 387.953722 
L 532.725119 387.953722 
L 532.950645 322.057148 
L 533.176171 370.077704 
L 533.401698 313.11914 
L 533.85275 313.11914 
L 534.078276 310.570278 
L 534.303802 310.570278 
L 534.529328 344.89495 
L 534.754854 353.255217 
L 534.98038 442.057561 
L 535.431433 442.057561 
L 535.656959 444.334544 
L 535.882485 404.742225 
L 536.108011 424.589362 
L 536.333537 376.059033 
L 536.559063 376.059033 
L 536.78459 414.29196 
L 537.461168 240.527556 
L 537.686694 248.038202 
L 537.91222 282.124981 
L 538.137746 274.614334 
L 538.363273 274.614334 
L 538.588799 226.355885 
L 538.814325 226.355885 
L 539.039851 320.153998 
L 539.490903 334.155746 
L 539.716429 331.606884 
L 539.941956 297.520106 
L 540.167482 363.416679 
L 540.618534 342.957815 
L 540.84406 374.971519 
L 541.069586 355.294306 
L 541.295112 289.397733 
L 541.520639 289.397733 
L 541.746165 429.890994 
L 542.197217 429.890994 
L 542.422743 404.742225 
L 542.648269 404.64027 
L 542.873795 413.3064 
L 543.099322 379.219622 
L 543.324848 379.219622 
L 543.550374 411.233326 
L 543.7759 411.233326 
L 544.001426 429.890994 
L 544.226952 363.994421 
L 544.452478 363.994421 
L 544.678005 444.334544 
L 544.903531 424.589362 
L 545.354583 424.589362 
L 545.580109 470.129025 
L 545.805635 463.671909 
L 546.031161 436.212171 
L 546.256688 387.953722 
L 546.70774 387.953722 
L 546.933266 365.149905 
L 547.609844 365.149905 
L 547.835371 313.323049 
L 548.511949 313.323049 
L 548.737475 384.147421 
L 548.963001 381.632544 
L 549.414054 381.632544 
L 549.63958 429.890994 
L 549.865106 429.890994 
L 550.090632 404.742225 
L 550.316158 404.742225 
L 550.541684 356.483775 
L 550.76721 279.915967 
L 550.992737 328.174417 
L 551.443789 328.174417 
L 551.669315 325.625555 
L 551.894841 325.625555 
L 552.120367 402.193363 
L 552.345893 353.934913 
L 552.571419 394.614747 
L 552.796946 394.614747 
L 553.022472 328.718174 
L 553.247998 397.231579 
L 553.473524 352.915368 
L 553.69905 432.405871 
L 553.924576 422.210424 
L 554.150102 373.951974 
L 554.375629 366.441328 
L 554.601155 366.441328 
L 554.826681 414.699778 
L 555.052207 407.902813 
L 556.179838 407.902813 
L 556.405364 415.413459 
L 557.081942 415.413459 
L 557.307468 418.981866 
L 557.532995 418.981866 
L 557.984047 375.209413 
L 558.209573 375.209413 
L 558.435099 397.163609 
L 558.660625 331.267036 
L 559.337204 331.267036 
L 559.56273 328.718174 
L 559.788256 328.718174 
L 560.013782 290.349308 
L 560.239308 290.349308 
L 560.464834 328.718174 
L 561.141413 328.718174 
L 561.366939 306.763978 
L 561.592465 299.253332 
L 562.269044 299.253332 
L 562.49457 313.425003 
L 562.720096 313.425003 
L 563.171148 330.009597 
L 563.396674 330.009597 
L 563.6222 354.512655 
L 563.847727 329.329901 
L 564.073253 329.329901 
L 564.298779 307.239765 
L 564.524305 332.42252 
L 564.749831 331.878762 
L 564.975357 333.170186 
L 565.200883 333.170186 
L 565.42641 329.975612 
L 565.651936 329.975612 
L 566.102988 238.8623 
L 566.328514 315.430108 
L 566.55404 315.430108 
L 566.779566 356.313851 
L 567.005093 334.359655 
L 567.230619 334.359655 
L 567.456145 400.256228 
L 567.681671 400.256228 
L 567.907197 426.90033 
L 568.358249 426.90033 
L 568.583776 437.095777 
L 568.809302 412.048962 
L 569.260354 451.675266 
L 569.48588 451.675266 
L 569.711406 476.722081 
L 569.936932 476.722081 
L 570.162459 397.231579 
L 571.290089 397.231579 
L 571.515615 331.335005 
L 572.41772 331.335005 
L 572.643246 302.991662 
L 574.221929 302.991662 
L 574.447455 310.502308 
L 575.575086 310.502308 
L 575.800612 302.991662 
L 576.026138 302.991662 
L 576.251664 283.076556 
L 576.47719 290.587202 
L 576.928243 230.264139 
L 577.153769 288.480143 
L 578.732452 288.480143 
L 578.957978 285.931281 
L 579.40903 285.931281 
L 579.634556 296.70447 
L 579.860083 271.657655 
L 580.085609 271.657655 
L 580.311135 317.299273 
L 580.536661 268.768945 
L 580.987713 268.768945 
L 581.213239 242.73657 
L 581.438766 242.73657 
L 581.664292 208.649792 
L 583.017449 208.649792 
L 583.242975 211.198653 
L 584.821658 211.198653 
L 585.047184 184.554552 
L 587.979024 184.554552 
L 588.20455 159.507736 
L 588.430076 159.507736 
L 588.655602 184.554552 
L 588.881128 162.600355 
L 589.557707 162.600355 
L 589.783233 211.130684 
L 590.234285 211.130684 
L 590.459811 262.209874 
L 591.587442 262.209874 
L 591.812968 258.981316 
L 593.391651 258.981316 
L 593.617177 280.085891 
L 593.842703 280.085891 
L 594.068229 271.045928 
L 595.646912 271.045928 
L 595.872439 222.787478 
L 600.834014 222.787478 
L 601.05954 215.276832 
L 602.412697 215.276832 
L 602.638223 263.807161 
L 603.99138 263.705206 
L 604.216906 271.215852 
L 608.05085 271.317807 
L 608.276376 246.270991 
L 611.884795 246.270991 
L 612.110321 180.374418 
L 616.84637 180.374418 
L 617.071896 209.499412 
L 621.582419 209.499412 
L 621.807945 186.015899 
L 627.220572 186.015899 
L 627.446098 221.869888 
L 630.82899 221.869888 
L 631.054517 214.359242 
L 631.731095 214.359242 
L 631.956621 163.280052 
L 633.084252 163.280052 
L 633.309778 175.990376 
L 648.871082 175.990376 
L 649.096608 163.280052 
L 663.079229 163.280052 
L 663.304755 130.348758 
L 663.530281 130.246803 
L 663.755807 105.301943 
L 672.3258 105.301943 
L 672.551327 112.812589 
L 687.887104 112.812589 
L 688.11263 105.301943 
L 737.051803 105.301943 
L 737.277329 88.887273 
L 871.690909 88.887273 
L 871.690909 88.887273 
" style="fill:none;stroke:#8dd3c7;stroke-linecap:square;stroke-width:1.5;"/>
   </g>
   <g id="line2d_16">
    <path clip-path="url(#p98e7e565cf)" d="M 161.509091 404.742225 
L 161.734617 356.483775 
L 163.764352 356.483775 
L 163.989878 350.706355 
L 167.147244 350.706355 
L 167.372771 342.07421 
L 170.079084 342.07421 
L 170.30461 322.396997 
L 170.755663 322.396997 
L 171.206715 234.614197 
L 171.432241 234.614197 
L 171.657767 218.199527 
L 283.293207 218.199527 
L 283.518733 211.232638 
L 399.890222 211.232638 
L 400.115748 181.563887 
L 400.341274 181.563887 
L 400.5668 159.609691 
L 663.079229 159.507736 
L 663.304755 130.348758 
L 663.530281 130.246803 
L 663.755807 105.301943 
L 737.051803 105.301943 
L 737.277329 88.887273 
L 871.690909 88.887273 
L 871.690909 88.887273 
" style="fill:none;stroke:#feffb3;stroke-linecap:square;stroke-width:1.5;"/>
   </g>
   <g id="line2d_17">
    <path clip-path="url(#p98e7e565cf)" d="M 161.509091 428.589375 
L 163.538826 428.589375 
L 163.764352 431.839261 
L 165.794088 431.839261 
L 166.019614 434.899336 
L 168.049349 434.899336 
L 168.274875 437.780685 
L 170.30461 437.780685 
L 170.530137 440.493746 
L 172.559872 440.493746 
L 172.785398 443.04835 
L 174.815133 443.04835 
L 175.040659 445.45375 
L 177.070395 445.45375 
L 177.295921 447.718662 
L 179.325656 447.718662 
L 179.551182 449.851289 
L 181.580917 449.851289 
L 181.806444 451.85936 
L 183.836179 451.85936 
L 184.061705 453.750147 
L 186.09144 453.750147 
L 186.316966 455.530502 
L 188.346702 455.530502 
L 188.572228 457.206874 
L 190.601963 457.206874 
L 190.827489 458.785337 
L 192.857225 458.785337 
L 193.082751 460.271608 
L 195.112486 460.271608 
L 195.338012 461.671073 
L 197.367747 461.671073 
L 197.593273 462.988801 
L 199.623009 462.988801 
L 199.848535 464.229566 
L 201.87827 464.229566 
L 202.103796 465.397864 
L 204.133532 465.397864 
L 204.359058 466.497926 
L 206.388793 466.497926 
L 206.614319 467.533739 
L 208.644054 467.533739 
L 208.869581 468.509054 
L 210.899316 468.509054 
L 211.124842 469.427405 
L 213.154577 469.427405 
L 213.380103 470.29212 
L 215.409839 470.29212 
L 215.635365 471.10633 
L 217.6651 471.10633 
L 217.890626 471.872986 
L 219.920361 471.872986 
L 220.145888 472.594865 
L 222.175623 472.594865 
L 222.401149 473.274582 
L 224.430884 473.274582 
L 224.65641 473.914599 
L 226.686146 473.914599 
L 226.911672 474.517236 
L 228.941407 474.517236 
L 229.166933 475.084676 
L 231.196668 475.084676 
L 231.422195 475.618974 
L 233.45193 475.618974 
L 233.677456 476.122066 
L 235.707191 476.122066 
L 235.932717 476.595774 
L 237.962453 476.595774 
L 238.187979 477.041815 
L 240.217714 477.041815 
L 240.44324 477.461805 
L 242.472976 477.461805 
L 242.698502 477.857265 
L 244.728237 477.857265 
L 244.953763 478.229628 
L 246.983498 478.229628 
L 247.209025 478.580243 
L 249.23876 478.580243 
L 249.464286 478.91038 
L 251.494021 478.91038 
L 251.719547 479.221235 
L 253.749283 479.221235 
L 253.974809 479.513935 
L 256.004544 479.513935 
L 256.23007 479.789539 
L 258.259805 479.789539 
L 258.485332 480.049046 
L 260.515067 480.049046 
L 260.740593 480.293397 
L 262.770328 480.293397 
L 262.995854 480.523476 
L 265.02559 480.523476 
L 265.251116 480.740117 
L 267.280851 480.740117 
L 267.506377 480.944105 
L 269.536112 480.944105 
L 269.761639 481.136179 
L 271.791374 481.136179 
L 272.0169 481.317035 
L 274.046635 481.317035 
L 274.272161 481.487328 
L 276.301897 481.487328 
L 276.527423 481.647675 
L 278.557158 481.647675 
L 278.782684 481.798657 
L 280.81242 481.798657 
L 281.037946 481.94082 
L 283.067681 481.94082 
L 283.293207 482.07468 
L 285.322942 482.07468 
L 285.773995 482.200723 
L 287.578204 482.200723 
L 288.029256 482.319403 
L 289.833465 482.319403 
L 290.284517 482.431152 
L 294.343988 482.536374 
L 294.79504 482.635451 
L 298.854511 482.728741 
L 299.305563 482.816582 
L 303.365034 482.899293 
L 303.816086 482.977173 
L 307.875556 483.050505 
L 308.326609 483.119553 
L 312.386079 483.184569 
L 312.837132 483.245787 
L 316.896602 483.30343 
L 317.573181 483.357706 
L 323.662386 483.456934 
L 324.338965 483.502244 
L 330.428171 483.585081 
L 331.104749 483.622907 
L 339.449216 483.723639 
L 340.351321 483.753373 
L 350.725523 483.855926 
L 352.07868 483.877933 
L 366.512353 483.985464 
L 368.316562 483.999906 
L 391.320229 484.105183 
L 394.928647 484.119646 
L 546.933266 484.230722 
L 764.565992 484.232721 
L 871.690909 484.232727 
L 871.690909 484.232727 
" style="fill:none;stroke:#bfbbd9;stroke-linecap:square;stroke-width:1.5;"/>
   </g>
   <g id="patch_3">
    <path d="M 126 504 
L 126 69.12 
" style="fill:none;stroke:#ffffff;stroke-linecap:square;stroke-linejoin:miter;stroke-width:0.8;"/>
   </g>
   <g id="patch_4">
    <path d="M 907.2 504 
L 907.2 69.12 
" style="fill:none;stroke:#ffffff;stroke-linecap:square;stroke-linejoin:miter;stroke-width:0.8;"/>
   </g>
   <g id="patch_5">
    <path d="M 126 504 
L 907.2 504 
" style="fill:none;stroke:#ffffff;stroke-linecap:square;stroke-linejoin:miter;stroke-width:0.8;"/>
   </g>
   <g id="patch_6">
    <path d="M 126 69.12 
L 907.2 69.12 
" style="fill:none;stroke:#ffffff;stroke-linecap:square;stroke-linejoin:miter;stroke-width:0.8;"/>
   </g>
   <g id="text_16">
    <!-- instance 1 with error 0.0 -->
    <g style="fill:#ffffff;" transform="translate(442.944375 63.12)scale(0.12 -0.12)">
     <defs>
      <path d="M 2834 3397 
L 2834 2853 
Q 2591 2978 2328 3040 
Q 2066 3103 1784 3103 
Q 1356 3103 1142 2972 
Q 928 2841 928 2578 
Q 928 2378 1081 2264 
Q 1234 2150 1697 2047 
L 1894 2003 
Q 2506 1872 2764 1633 
Q 3022 1394 3022 966 
Q 3022 478 2636 193 
Q 2250 -91 1575 -91 
Q 1294 -91 989 -36 
Q 684 19 347 128 
L 347 722 
Q 666 556 975 473 
Q 1284 391 1588 391 
Q 1994 391 2212 530 
Q 2431 669 2431 922 
Q 2431 1156 2273 1281 
Q 2116 1406 1581 1522 
L 1381 1569 
Q 847 1681 609 1914 
Q 372 2147 372 2553 
Q 372 3047 722 3315 
Q 1072 3584 1716 3584 
Q 2034 3584 2315 3537 
Q 2597 3491 2834 3397 
z
" id="DejaVuSans-73" transform="scale(0.015625)"/>
      <path d="M 3122 3366 
L 3122 2828 
Q 2878 2963 2633 3030 
Q 2388 3097 2138 3097 
Q 1578 3097 1268 2742 
Q 959 2388 959 1747 
Q 959 1106 1268 751 
Q 1578 397 2138 397 
Q 2388 397 2633 464 
Q 2878 531 3122 666 
L 3122 134 
Q 2881 22 2623 -34 
Q 2366 -91 2075 -91 
Q 1284 -91 818 406 
Q 353 903 353 1747 
Q 353 2603 823 3093 
Q 1294 3584 2113 3584 
Q 2378 3584 2631 3529 
Q 2884 3475 3122 3366 
z
" id="DejaVuSans-63" transform="scale(0.015625)"/>
      <path id="DejaVuSans-20" transform="scale(0.015625)"/>
      <path d="M 269 3500 
L 844 3500 
L 1563 769 
L 2278 3500 
L 2956 3500 
L 3675 769 
L 4391 3500 
L 4966 3500 
L 4050 0 
L 3372 0 
L 2619 2869 
L 1863 0 
L 1184 0 
L 269 3500 
z
" id="DejaVuSans-77" transform="scale(0.015625)"/>
      <path d="M 3513 2113 
L 3513 0 
L 2938 0 
L 2938 2094 
Q 2938 2591 2744 2837 
Q 2550 3084 2163 3084 
Q 1697 3084 1428 2787 
Q 1159 2491 1159 1978 
L 1159 0 
L 581 0 
L 581 4863 
L 1159 4863 
L 1159 2956 
Q 1366 3272 1645 3428 
Q 1925 3584 2291 3584 
Q 2894 3584 3203 3211 
Q 3513 2838 3513 2113 
z
" id="DejaVuSans-68" transform="scale(0.015625)"/>
      <path d="M 684 794 
L 1344 794 
L 1344 0 
L 684 0 
L 684 794 
z
" id="DejaVuSans-2e" transform="scale(0.015625)"/>
     </defs>
     <use xlink:href="#DejaVuSans-69"/>
     <use x="27.783203" xlink:href="#DejaVuSans-6e"/>
     <use x="91.162109" xlink:href="#DejaVuSans-73"/>
     <use x="143.261719" xlink:href="#DejaVuSans-74"/>
     <use x="182.470703" xlink:href="#DejaVuSans-61"/>
     <use x="243.75" xlink:href="#DejaVuSans-6e"/>
     <use x="307.128906" xlink:href="#DejaVuSans-63"/>
     <use x="362.109375" xlink:href="#DejaVuSans-65"/>
     <use x="423.632812" xlink:href="#DejaVuSans-20"/>
     <use x="455.419922" xlink:href="#DejaVuSans-31"/>
     <use x="519.042969" xlink:href="#DejaVuSans-20"/>
     <use x="550.830078" xlink:href="#DejaVuSans-77"/>
     <use x="632.617188" xlink:href="#DejaVuSans-69"/>
     <use x="660.400391" xlink:href="#DejaVuSans-74"/>
     <use x="699.609375" xlink:href="#DejaVuSans-68"/>
     <use x="762.988281" xlink:href="#DejaVuSans-20"/>
     <use x="794.775391" xlink:href="#DejaVuSans-65"/>
     <use x="856.298828" xlink:href="#DejaVuSans-72"/>
     <use x="895.662109" xlink:href="#DejaVuSans-72"/>
     <use x="934.525391" xlink:href="#DejaVuSans-6f"/>
     <use x="995.707031" xlink:href="#DejaVuSans-72"/>
     <use x="1036.820312" xlink:href="#DejaVuSans-20"/>
     <use x="1068.607422" xlink:href="#DejaVuSans-30"/>
     <use x="1132.230469" xlink:href="#DejaVuSans-2e"/>
     <use x="1164.017578" xlink:href="#DejaVuSans-30"/>
    </g>
   </g>
   <g id="legend_1">
    <g id="patch_7">
     <path d="M 805.348438 499 
L 900.2 499 
Q 902.2 499 902.2 497 
L 902.2 453.965625 
Q 902.2 451.965625 900.2 451.965625 
L 805.348438 451.965625 
Q 803.348438 451.965625 803.348438 453.965625 
L 803.348438 497 
Q 803.348438 499 805.348438 499 
z
" style="opacity:0.8;stroke:#cccccc;stroke-linejoin:miter;"/>
    </g>
    <g id="line2d_18">
     <path d="M 807.348438 460.064062 
L 827.348438 460.064062 
" style="fill:none;stroke:#8dd3c7;stroke-linecap:square;stroke-width:1.5;"/>
    </g>
    <g id="line2d_19"/>
    <g id="text_17">
     <!-- cost -->
     <g style="fill:#ffffff;" transform="translate(835.348438 463.564062)scale(0.1 -0.1)">
      <use xlink:href="#DejaVuSans-63"/>
      <use x="54.980469" xlink:href="#DejaVuSans-6f"/>
      <use x="116.162109" xlink:href="#DejaVuSans-73"/>
      <use x="168.261719" xlink:href="#DejaVuSans-74"/>
     </g>
    </g>
    <g id="line2d_20">
     <path d="M 807.348438 474.742188 
L 827.348438 474.742188 
" style="fill:none;stroke:#feffb3;stroke-linecap:square;stroke-width:1.5;"/>
    </g>
    <g id="line2d_21"/>
    <g id="text_18">
     <!-- best cost -->
     <g style="fill:#ffffff;" transform="translate(835.348438 478.242188)scale(0.1 -0.1)">
      <defs>
       <path d="M 3116 1747 
Q 3116 2381 2855 2742 
Q 2594 3103 2138 3103 
Q 1681 3103 1420 2742 
Q 1159 2381 1159 1747 
Q 1159 1113 1420 752 
Q 1681 391 2138 391 
Q 2594 391 2855 752 
Q 3116 1113 3116 1747 
z
M 1159 2969 
Q 1341 3281 1617 3432 
Q 1894 3584 2278 3584 
Q 2916 3584 3314 3078 
Q 3713 2572 3713 1747 
Q 3713 922 3314 415 
Q 2916 -91 2278 -91 
Q 1894 -91 1617 61 
Q 1341 213 1159 525 
L 1159 0 
L 581 0 
L 581 4863 
L 1159 4863 
L 1159 2969 
z
" id="DejaVuSans-62" transform="scale(0.015625)"/>
      </defs>
      <use xlink:href="#DejaVuSans-62"/>
      <use x="63.476562" xlink:href="#DejaVuSans-65"/>
      <use x="125" xlink:href="#DejaVuSans-73"/>
      <use x="177.099609" xlink:href="#DejaVuSans-74"/>
      <use x="216.308594" xlink:href="#DejaVuSans-20"/>
      <use x="248.095703" xlink:href="#DejaVuSans-63"/>
      <use x="303.076172" xlink:href="#DejaVuSans-6f"/>
      <use x="364.257812" xlink:href="#DejaVuSans-73"/>
      <use x="416.357422" xlink:href="#DejaVuSans-74"/>
     </g>
    </g>
    <g id="line2d_22">
     <path d="M 807.348438 489.420313 
L 827.348438 489.420313 
" style="fill:none;stroke:#bfbbd9;stroke-linecap:square;stroke-width:1.5;"/>
    </g>
    <g id="line2d_23"/>
    <g id="text_19">
     <!-- temperature -->
     <g style="fill:#ffffff;" transform="translate(835.348438 492.920313)scale(0.1 -0.1)">
      <defs>
       <path d="M 3328 2828 
Q 3544 3216 3844 3400 
Q 4144 3584 4550 3584 
Q 5097 3584 5394 3201 
Q 5691 2819 5691 2113 
L 5691 0 
L 5113 0 
L 5113 2094 
Q 5113 2597 4934 2840 
Q 4756 3084 4391 3084 
Q 3944 3084 3684 2787 
Q 3425 2491 3425 1978 
L 3425 0 
L 2847 0 
L 2847 2094 
Q 2847 2600 2669 2842 
Q 2491 3084 2119 3084 
Q 1678 3084 1418 2786 
Q 1159 2488 1159 1978 
L 1159 0 
L 581 0 
L 581 3500 
L 1159 3500 
L 1159 2956 
Q 1356 3278 1631 3431 
Q 1906 3584 2284 3584 
Q 2666 3584 2933 3390 
Q 3200 3197 3328 2828 
z
" id="DejaVuSans-6d" transform="scale(0.015625)"/>
       <path d="M 1159 525 
L 1159 -1331 
L 581 -1331 
L 581 3500 
L 1159 3500 
L 1159 2969 
Q 1341 3281 1617 3432 
Q 1894 3584 2278 3584 
Q 2916 3584 3314 3078 
Q 3713 2572 3713 1747 
Q 3713 922 3314 415 
Q 2916 -91 2278 -91 
Q 1894 -91 1617 61 
Q 1341 213 1159 525 
z
M 3116 1747 
Q 3116 2381 2855 2742 
Q 2594 3103 2138 3103 
Q 1681 3103 1420 2742 
Q 1159 2381 1159 1747 
Q 1159 1113 1420 752 
Q 1681 391 2138 391 
Q 2594 391 2855 752 
Q 3116 1113 3116 1747 
z
" id="DejaVuSans-70" transform="scale(0.015625)"/>
       <path d="M 544 1381 
L 544 3500 
L 1119 3500 
L 1119 1403 
Q 1119 906 1312 657 
Q 1506 409 1894 409 
Q 2359 409 2629 706 
Q 2900 1003 2900 1516 
L 2900 3500 
L 3475 3500 
L 3475 0 
L 2900 0 
L 2900 538 
Q 2691 219 2414 64 
Q 2138 -91 1772 -91 
Q 1169 -91 856 284 
Q 544 659 544 1381 
z
M 1991 3584 
L 1991 3584 
z
" id="DejaVuSans-75" transform="scale(0.015625)"/>
      </defs>
      <use xlink:href="#DejaVuSans-74"/>
      <use x="39.208984" xlink:href="#DejaVuSans-65"/>
      <use x="100.732422" xlink:href="#DejaVuSans-6d"/>
      <use x="198.144531" xlink:href="#DejaVuSans-70"/>
      <use x="261.621094" xlink:href="#DejaVuSans-65"/>
      <use x="323.144531" xlink:href="#DejaVuSans-72"/>
      <use x="364.257812" xlink:href="#DejaVuSans-61"/>
      <use x="425.537109" xlink:href="#DejaVuSans-74"/>
      <use x="464.746094" xlink:href="#DejaVuSans-75"/>
      <use x="528.125" xlink:href="#DejaVuSans-72"/>
      <use x="566.988281" xlink:href="#DejaVuSans-65"/>
     </g>
    </g>
   </g>
  </g>
 </g>
 <defs>
  <clipPath id="p98e7e565cf">
   <rect height="434.88" width="781.2" x="126" y="69.12"/>
  </clipPath>
 </defs>
</svg>
