<?xml version="1.0" encoding="utf-8" standalone="no"?>
<!DOCTYPE svg PUBLIC "-//W3C//DTD SVG 1.1//EN"
  "http://www.w3.org/Graphics/SVG/1.1/DTD/svg11.dtd">
<svg height="576pt" version="1.1" viewBox="0 0 1008 576" width="1008pt" xmlns="http://www.w3.org/2000/svg" xmlns:xlink="http://www.w3.org/1999/xlink">
 <metadata>
  <rdf:RDF xmlns:cc="http://creativecommons.org/ns#" xmlns:dc="http://purl.org/dc/elements/1.1/" xmlns:rdf="http://www.w3.org/1999/02/22-rdf-syntax-ns#">
   <cc:Work>
    <dc:type rdf:resource="http://purl.org/dc/dcmitype/StillImage"/>
    <dc:date>2022-01-07T21:26:20.162559</dc:date>
    <dc:format>image/svg+xml</dc:format>
    <dc:creator>
     <cc:Agent>
      <dc:title>Matplotlib v3.4.3, https://matplotlib.org/</dc:title>
     </cc:Agent>
    </dc:creator>
   </cc:Work>
  </rdf:RDF>
 </metadata>
 <defs>
  <style type="text/css">*{stroke-linecap:butt;stroke-linejoin:round;}</style>
 </defs>
 <g id="figure_1">
  <g id="patch_1">
   <path d="M 0 576 
L 1008 576 
L 1008 0 
L 0 0 
z
"/>
  </g>
  <g id="axes_1">
   <g id="patch_2">
    <path d="M 126 504 
L 907.2 504 
L 907.2 69.12 
L 126 69.12 
z
"/>
   </g>
   <g id="matplotlib.axis_1">
    <g id="xtick_1">
     <g id="line2d_1">
      <defs>
       <path d="M 0 0 
L 0 3.5 
" id="ma178695085" style="stroke:#ffffff;stroke-width:0.8;"/>
      </defs>
      <g>
       <use style="fill:#ffffff;stroke:#ffffff;stroke-width:0.8;" x="161.509091" xlink:href="#ma178695085" y="504"/>
      </g>
     </g>
     <g id="text_1">
      <!-- 0 -->
      <g style="fill:#ffffff;" transform="translate(158.327841 518.598438)scale(0.1 -0.1)">
       <defs>
        <path d="M 2034 4250 
Q 1547 4250 1301 3770 
Q 1056 3291 1056 2328 
Q 1056 1369 1301 889 
Q 1547 409 2034 409 
Q 2525 409 2770 889 
Q 3016 1369 3016 2328 
Q 3016 3291 2770 3770 
Q 2525 4250 2034 4250 
z
M 2034 4750 
Q 2819 4750 3233 4129 
Q 3647 3509 3647 2328 
Q 3647 1150 3233 529 
Q 2819 -91 2034 -91 
Q 1250 -91 836 529 
Q 422 1150 422 2328 
Q 422 3509 836 4129 
Q 1250 4750 2034 4750 
z
" id="DejaVuSans-30" transform="scale(0.015625)"/>
       </defs>
       <use xlink:href="#DejaVuSans-30"/>
      </g>
     </g>
    </g>
    <g id="xtick_2">
     <g id="line2d_2">
      <g>
       <use style="fill:#ffffff;stroke:#ffffff;stroke-width:0.8;" x="328.453571" xlink:href="#ma178695085" y="504"/>
      </g>
     </g>
     <g id="text_2">
      <!-- 500 -->
      <g style="fill:#ffffff;" transform="translate(318.909821 518.598438)scale(0.1 -0.1)">
       <defs>
        <path d="M 691 4666 
L 3169 4666 
L 3169 4134 
L 1269 4134 
L 1269 2991 
Q 1406 3038 1543 3061 
Q 1681 3084 1819 3084 
Q 2600 3084 3056 2656 
Q 3513 2228 3513 1497 
Q 3513 744 3044 326 
Q 2575 -91 1722 -91 
Q 1428 -91 1123 -41 
Q 819 9 494 109 
L 494 744 
Q 775 591 1075 516 
Q 1375 441 1709 441 
Q 2250 441 2565 725 
Q 2881 1009 2881 1497 
Q 2881 1984 2565 2268 
Q 2250 2553 1709 2553 
Q 1456 2553 1204 2497 
Q 953 2441 691 2322 
L 691 4666 
z
" id="DejaVuSans-35" transform="scale(0.015625)"/>
       </defs>
       <use xlink:href="#DejaVuSans-35"/>
       <use x="63.623047" xlink:href="#DejaVuSans-30"/>
       <use x="127.246094" xlink:href="#DejaVuSans-30"/>
      </g>
     </g>
    </g>
    <g id="xtick_3">
     <g id="line2d_3">
      <g>
       <use style="fill:#ffffff;stroke:#ffffff;stroke-width:0.8;" x="495.398051" xlink:href="#ma178695085" y="504"/>
      </g>
     </g>
     <g id="text_3">
      <!-- 1000 -->
      <g style="fill:#ffffff;" transform="translate(482.673051 518.598438)scale(0.1 -0.1)">
       <defs>
        <path d="M 794 531 
L 1825 531 
L 1825 4091 
L 703 3866 
L 703 4441 
L 1819 4666 
L 2450 4666 
L 2450 531 
L 3481 531 
L 3481 0 
L 794 0 
L 794 531 
z
" id="DejaVuSans-31" transform="scale(0.015625)"/>
       </defs>
       <use xlink:href="#DejaVuSans-31"/>
       <use x="63.623047" xlink:href="#DejaVuSans-30"/>
       <use x="127.246094" xlink:href="#DejaVuSans-30"/>
       <use x="190.869141" xlink:href="#DejaVuSans-30"/>
      </g>
     </g>
    </g>
    <g id="xtick_4">
     <g id="line2d_4">
      <g>
       <use style="fill:#ffffff;stroke:#ffffff;stroke-width:0.8;" x="662.342531" xlink:href="#ma178695085" y="504"/>
      </g>
     </g>
     <g id="text_4">
      <!-- 1500 -->
      <g style="fill:#ffffff;" transform="translate(649.617531 518.598438)scale(0.1 -0.1)">
       <use xlink:href="#DejaVuSans-31"/>
       <use x="63.623047" xlink:href="#DejaVuSans-35"/>
       <use x="127.246094" xlink:href="#DejaVuSans-30"/>
       <use x="190.869141" xlink:href="#DejaVuSans-30"/>
      </g>
     </g>
    </g>
    <g id="xtick_5">
     <g id="line2d_5">
      <g>
       <use style="fill:#ffffff;stroke:#ffffff;stroke-width:0.8;" x="829.287011" xlink:href="#ma178695085" y="504"/>
      </g>
     </g>
     <g id="text_5">
      <!-- 2000 -->
      <g style="fill:#ffffff;" transform="translate(816.562011 518.598438)scale(0.1 -0.1)">
       <defs>
        <path d="M 1228 531 
L 3431 531 
L 3431 0 
L 469 0 
L 469 531 
Q 828 903 1448 1529 
Q 2069 2156 2228 2338 
Q 2531 2678 2651 2914 
Q 2772 3150 2772 3378 
Q 2772 3750 2511 3984 
Q 2250 4219 1831 4219 
Q 1534 4219 1204 4116 
Q 875 4013 500 3803 
L 500 4441 
Q 881 4594 1212 4672 
Q 1544 4750 1819 4750 
Q 2544 4750 2975 4387 
Q 3406 4025 3406 3419 
Q 3406 3131 3298 2873 
Q 3191 2616 2906 2266 
Q 2828 2175 2409 1742 
Q 1991 1309 1228 531 
z
" id="DejaVuSans-32" transform="scale(0.015625)"/>
       </defs>
       <use xlink:href="#DejaVuSans-32"/>
       <use x="63.623047" xlink:href="#DejaVuSans-30"/>
       <use x="127.246094" xlink:href="#DejaVuSans-30"/>
       <use x="190.869141" xlink:href="#DejaVuSans-30"/>
      </g>
     </g>
    </g>
    <g id="text_6">
     <!-- iteration -->
     <g style="fill:#ffffff;" transform="translate(495.477344 532.276562)scale(0.1 -0.1)">
      <defs>
       <path d="M 603 3500 
L 1178 3500 
L 1178 0 
L 603 0 
L 603 3500 
z
M 603 4863 
L 1178 4863 
L 1178 4134 
L 603 4134 
L 603 4863 
z
" id="DejaVuSans-69" transform="scale(0.015625)"/>
       <path d="M 1172 4494 
L 1172 3500 
L 2356 3500 
L 2356 3053 
L 1172 3053 
L 1172 1153 
Q 1172 725 1289 603 
Q 1406 481 1766 481 
L 2356 481 
L 2356 0 
L 1766 0 
Q 1100 0 847 248 
Q 594 497 594 1153 
L 594 3053 
L 172 3053 
L 172 3500 
L 594 3500 
L 594 4494 
L 1172 4494 
z
" id="DejaVuSans-74" transform="scale(0.015625)"/>
       <path d="M 3597 1894 
L 3597 1613 
L 953 1613 
Q 991 1019 1311 708 
Q 1631 397 2203 397 
Q 2534 397 2845 478 
Q 3156 559 3463 722 
L 3463 178 
Q 3153 47 2828 -22 
Q 2503 -91 2169 -91 
Q 1331 -91 842 396 
Q 353 884 353 1716 
Q 353 2575 817 3079 
Q 1281 3584 2069 3584 
Q 2775 3584 3186 3129 
Q 3597 2675 3597 1894 
z
M 3022 2063 
Q 3016 2534 2758 2815 
Q 2500 3097 2075 3097 
Q 1594 3097 1305 2825 
Q 1016 2553 972 2059 
L 3022 2063 
z
" id="DejaVuSans-65" transform="scale(0.015625)"/>
       <path d="M 2631 2963 
Q 2534 3019 2420 3045 
Q 2306 3072 2169 3072 
Q 1681 3072 1420 2755 
Q 1159 2438 1159 1844 
L 1159 0 
L 581 0 
L 581 3500 
L 1159 3500 
L 1159 2956 
Q 1341 3275 1631 3429 
Q 1922 3584 2338 3584 
Q 2397 3584 2469 3576 
Q 2541 3569 2628 3553 
L 2631 2963 
z
" id="DejaVuSans-72" transform="scale(0.015625)"/>
       <path d="M 2194 1759 
Q 1497 1759 1228 1600 
Q 959 1441 959 1056 
Q 959 750 1161 570 
Q 1363 391 1709 391 
Q 2188 391 2477 730 
Q 2766 1069 2766 1631 
L 2766 1759 
L 2194 1759 
z
M 3341 1997 
L 3341 0 
L 2766 0 
L 2766 531 
Q 2569 213 2275 61 
Q 1981 -91 1556 -91 
Q 1019 -91 701 211 
Q 384 513 384 1019 
Q 384 1609 779 1909 
Q 1175 2209 1959 2209 
L 2766 2209 
L 2766 2266 
Q 2766 2663 2505 2880 
Q 2244 3097 1772 3097 
Q 1472 3097 1187 3025 
Q 903 2953 641 2809 
L 641 3341 
Q 956 3463 1253 3523 
Q 1550 3584 1831 3584 
Q 2591 3584 2966 3190 
Q 3341 2797 3341 1997 
z
" id="DejaVuSans-61" transform="scale(0.015625)"/>
       <path d="M 1959 3097 
Q 1497 3097 1228 2736 
Q 959 2375 959 1747 
Q 959 1119 1226 758 
Q 1494 397 1959 397 
Q 2419 397 2687 759 
Q 2956 1122 2956 1747 
Q 2956 2369 2687 2733 
Q 2419 3097 1959 3097 
z
M 1959 3584 
Q 2709 3584 3137 3096 
Q 3566 2609 3566 1747 
Q 3566 888 3137 398 
Q 2709 -91 1959 -91 
Q 1206 -91 779 398 
Q 353 888 353 1747 
Q 353 2609 779 3096 
Q 1206 3584 1959 3584 
z
" id="DejaVuSans-6f" transform="scale(0.015625)"/>
       <path d="M 3513 2113 
L 3513 0 
L 2938 0 
L 2938 2094 
Q 2938 2591 2744 2837 
Q 2550 3084 2163 3084 
Q 1697 3084 1428 2787 
Q 1159 2491 1159 1978 
L 1159 0 
L 581 0 
L 581 3500 
L 1159 3500 
L 1159 2956 
Q 1366 3272 1645 3428 
Q 1925 3584 2291 3584 
Q 2894 3584 3203 3211 
Q 3513 2838 3513 2113 
z
" id="DejaVuSans-6e" transform="scale(0.015625)"/>
      </defs>
      <use xlink:href="#DejaVuSans-69"/>
      <use x="27.783203" xlink:href="#DejaVuSans-74"/>
      <use x="66.992188" xlink:href="#DejaVuSans-65"/>
      <use x="128.515625" xlink:href="#DejaVuSans-72"/>
      <use x="169.628906" xlink:href="#DejaVuSans-61"/>
      <use x="230.908203" xlink:href="#DejaVuSans-74"/>
      <use x="270.117188" xlink:href="#DejaVuSans-69"/>
      <use x="297.900391" xlink:href="#DejaVuSans-6f"/>
      <use x="359.082031" xlink:href="#DejaVuSans-6e"/>
     </g>
    </g>
   </g>
   <g id="matplotlib.axis_2">
    <g id="ytick_1">
     <g id="line2d_6">
      <defs>
       <path d="M 0 0 
L -3.5 0 
" id="m332dbac01b" style="stroke:#ffffff;stroke-width:0.8;"/>
      </defs>
      <g>
       <use style="fill:#ffffff;stroke:#ffffff;stroke-width:0.8;" x="126" xlink:href="#m332dbac01b" y="484.232727"/>
      </g>
     </g>
     <g id="text_7">
      <!-- 0 -->
      <g style="fill:#ffffff;" transform="translate(112.6375 488.031946)scale(0.1 -0.1)">
       <use xlink:href="#DejaVuSans-30"/>
      </g>
     </g>
    </g>
    <g id="ytick_2">
     <g id="line2d_7">
      <g>
       <use style="fill:#ffffff;stroke:#ffffff;stroke-width:0.8;" x="126" xlink:href="#m332dbac01b" y="428.172852"/>
      </g>
     </g>
     <g id="text_8">
      <!-- 5000 -->
      <g style="fill:#ffffff;" transform="translate(93.55 431.972071)scale(0.1 -0.1)">
       <use xlink:href="#DejaVuSans-35"/>
       <use x="63.623047" xlink:href="#DejaVuSans-30"/>
       <use x="127.246094" xlink:href="#DejaVuSans-30"/>
       <use x="190.869141" xlink:href="#DejaVuSans-30"/>
      </g>
     </g>
    </g>
    <g id="ytick_3">
     <g id="line2d_8">
      <g>
       <use style="fill:#ffffff;stroke:#ffffff;stroke-width:0.8;" x="126" xlink:href="#m332dbac01b" y="372.112976"/>
      </g>
     </g>
     <g id="text_9">
      <!-- 10000 -->
      <g style="fill:#ffffff;" transform="translate(87.1875 375.912195)scale(0.1 -0.1)">
       <use xlink:href="#DejaVuSans-31"/>
       <use x="63.623047" xlink:href="#DejaVuSans-30"/>
       <use x="127.246094" xlink:href="#DejaVuSans-30"/>
       <use x="190.869141" xlink:href="#DejaVuSans-30"/>
       <use x="254.492188" xlink:href="#DejaVuSans-30"/>
      </g>
     </g>
    </g>
    <g id="ytick_4">
     <g id="line2d_9">
      <g>
       <use style="fill:#ffffff;stroke:#ffffff;stroke-width:0.8;" x="126" xlink:href="#m332dbac01b" y="316.053101"/>
      </g>
     </g>
     <g id="text_10">
      <!-- 15000 -->
      <g style="fill:#ffffff;" transform="translate(87.1875 319.852319)scale(0.1 -0.1)">
       <use xlink:href="#DejaVuSans-31"/>
       <use x="63.623047" xlink:href="#DejaVuSans-35"/>
       <use x="127.246094" xlink:href="#DejaVuSans-30"/>
       <use x="190.869141" xlink:href="#DejaVuSans-30"/>
       <use x="254.492188" xlink:href="#DejaVuSans-30"/>
      </g>
     </g>
    </g>
    <g id="ytick_5">
     <g id="line2d_10">
      <g>
       <use style="fill:#ffffff;stroke:#ffffff;stroke-width:0.8;" x="126" xlink:href="#m332dbac01b" y="259.993225"/>
      </g>
     </g>
     <g id="text_11">
      <!-- 20000 -->
      <g style="fill:#ffffff;" transform="translate(87.1875 263.792444)scale(0.1 -0.1)">
       <use xlink:href="#DejaVuSans-32"/>
       <use x="63.623047" xlink:href="#DejaVuSans-30"/>
       <use x="127.246094" xlink:href="#DejaVuSans-30"/>
       <use x="190.869141" xlink:href="#DejaVuSans-30"/>
       <use x="254.492188" xlink:href="#DejaVuSans-30"/>
      </g>
     </g>
    </g>
    <g id="ytick_6">
     <g id="line2d_11">
      <g>
       <use style="fill:#ffffff;stroke:#ffffff;stroke-width:0.8;" x="126" xlink:href="#m332dbac01b" y="203.933349"/>
      </g>
     </g>
     <g id="text_12">
      <!-- 25000 -->
      <g style="fill:#ffffff;" transform="translate(87.1875 207.732568)scale(0.1 -0.1)">
       <use xlink:href="#DejaVuSans-32"/>
       <use x="63.623047" xlink:href="#DejaVuSans-35"/>
       <use x="127.246094" xlink:href="#DejaVuSans-30"/>
       <use x="190.869141" xlink:href="#DejaVuSans-30"/>
       <use x="254.492188" xlink:href="#DejaVuSans-30"/>
      </g>
     </g>
    </g>
    <g id="ytick_7">
     <g id="line2d_12">
      <g>
       <use style="fill:#ffffff;stroke:#ffffff;stroke-width:0.8;" x="126" xlink:href="#m332dbac01b" y="147.873474"/>
      </g>
     </g>
     <g id="text_13">
      <!-- 30000 -->
      <g style="fill:#ffffff;" transform="translate(87.1875 151.672693)scale(0.1 -0.1)">
       <defs>
        <path d="M 2597 2516 
Q 3050 2419 3304 2112 
Q 3559 1806 3559 1356 
Q 3559 666 3084 287 
Q 2609 -91 1734 -91 
Q 1441 -91 1130 -33 
Q 819 25 488 141 
L 488 750 
Q 750 597 1062 519 
Q 1375 441 1716 441 
Q 2309 441 2620 675 
Q 2931 909 2931 1356 
Q 2931 1769 2642 2001 
Q 2353 2234 1838 2234 
L 1294 2234 
L 1294 2753 
L 1863 2753 
Q 2328 2753 2575 2939 
Q 2822 3125 2822 3475 
Q 2822 3834 2567 4026 
Q 2313 4219 1838 4219 
Q 1578 4219 1281 4162 
Q 984 4106 628 3988 
L 628 4550 
Q 988 4650 1302 4700 
Q 1616 4750 1894 4750 
Q 2613 4750 3031 4423 
Q 3450 4097 3450 3541 
Q 3450 3153 3228 2886 
Q 3006 2619 2597 2516 
z
" id="DejaVuSans-33" transform="scale(0.015625)"/>
       </defs>
       <use xlink:href="#DejaVuSans-33"/>
       <use x="63.623047" xlink:href="#DejaVuSans-30"/>
       <use x="127.246094" xlink:href="#DejaVuSans-30"/>
       <use x="190.869141" xlink:href="#DejaVuSans-30"/>
       <use x="254.492188" xlink:href="#DejaVuSans-30"/>
      </g>
     </g>
    </g>
    <g id="ytick_8">
     <g id="line2d_13">
      <g>
       <use style="fill:#ffffff;stroke:#ffffff;stroke-width:0.8;" x="126" xlink:href="#m332dbac01b" y="91.813598"/>
      </g>
     </g>
     <g id="text_14">
      <!-- 35000 -->
      <g style="fill:#ffffff;" transform="translate(87.1875 95.612817)scale(0.1 -0.1)">
       <use xlink:href="#DejaVuSans-33"/>
       <use x="63.623047" xlink:href="#DejaVuSans-35"/>
       <use x="127.246094" xlink:href="#DejaVuSans-30"/>
       <use x="190.869141" xlink:href="#DejaVuSans-30"/>
       <use x="254.492188" xlink:href="#DejaVuSans-30"/>
      </g>
     </g>
    </g>
   </g>
   <g id="line2d_14">
    <path clip-path="url(#p75a1280b80)" d="M 161.509091 179.13246 
L 162.176869 246.426735 
L 162.510758 270.386726 
L 162.844647 245.294326 
L 163.512425 262.112288 
L 163.846314 261.417146 
L 164.180203 255.620555 
L 164.514092 281.352038 
L 164.847981 293.96551 
L 165.181869 301.903588 
L 165.515758 324.787229 
L 165.849647 323.161493 
L 166.183536 301.477533 
L 166.517425 301.376625 
L 166.851314 323.060585 
L 167.185203 330.796848 
L 167.519092 305.065365 
L 167.852981 297.127287 
L 168.18687 313.900401 
L 168.520759 336.346776 
L 168.854648 327.769615 
L 169.188537 333.566206 
L 169.522426 335.079822 
L 170.190204 319.024274 
L 170.524093 293.864602 
L 170.857982 304.908397 
L 171.191871 303.282661 
L 171.52576 303.383569 
L 171.859649 353.669277 
L 172.527427 336.044052 
L 172.861316 345.00242 
L 173.195205 335.920721 
L 173.529093 313.037079 
L 173.862982 343.993343 
L 174.196871 352.772319 
L 174.53076 330.707152 
L 174.864649 355.866824 
L 175.198538 348.769644 
L 175.532427 327.870522 
L 175.866316 318.564583 
L 176.200205 339.463705 
L 176.534094 314.304032 
L 176.867983 297.530918 
L 177.201872 288.46043 
L 177.86965 249.846388 
L 178.203539 266.619502 
L 178.537428 275.701202 
L 178.871317 266.619502 
L 179.205206 243.735861 
L 179.539095 282.574143 
L 179.872984 305.457784 
L 180.206873 283.392617 
L 180.540762 305.457784 
L 180.874651 305.356876 
L 181.20854 312.981019 
L 181.542429 305.042941 
L 181.876317 314.001309 
L 182.210206 287.002873 
L 182.544095 296.084573 
L 182.877984 321.244245 
L 183.211873 330.314733 
L 183.545762 328.801116 
L 183.879651 355.799552 
L 184.21354 332.915911 
L 184.547429 341.190349 
L 184.881318 362.08947 
L 185.215207 362.190378 
L 185.549096 340.125211 
L 185.882985 349.431151 
L 186.216874 333.53257 
L 186.884652 370.632995 
L 187.886319 296.768503 
L 188.887986 271.631255 
L 189.221875 265.834664 
L 189.555764 249.52124 
L 189.889653 258.591728 
L 190.55743 299.627557 
L 191.225208 312.711932 
L 191.559097 312.913748 
L 191.892986 307.117156 
L 192.226875 288.146495 
L 192.560764 295.243675 
L 192.894653 270.084003 
L 193.228542 275.880594 
L 193.562431 266.574654 
L 193.89632 268.088271 
L 194.230209 272.85336 
L 194.564098 280.791439 
L 194.897987 279.277822 
L 195.565765 320.952734 
L 195.899654 315.156143 
L 196.233543 306.197774 
L 196.567432 279.199338 
L 196.901321 279.098431 
L 197.23521 304.258103 
L 197.569099 282.192936 
L 198.236877 335.685269 
L 198.570765 323.083009 
L 198.904654 301.017842 
L 199.238543 293.281579 
L 199.572432 268.189179 
L 200.24021 283.022622 
L 200.574099 275.891806 
L 200.907988 293.606726 
L 201.241877 317.566717 
L 201.909655 262.728947 
L 202.243544 290.568281 
L 202.577433 295.333371 
L 202.911322 272.449729 
L 203.245211 264.713467 
L 203.5791 273.671835 
L 203.912989 249.711844 
L 204.246878 244.946754 
L 204.580767 217.10742 
L 204.914656 235.988386 
L 205.248545 290.131014 
L 205.582434 289.559203 
L 205.916323 294.122477 
L 206.250212 309.045616 
L 206.584101 315.840073 
L 206.917989 315.739165 
L 207.251878 331.637746 
L 207.585767 306.545346 
L 207.919656 297.474858 
L 208.253545 275.409691 
L 208.587434 266.103751 
L 208.921323 287.002873 
L 209.255212 285.489256 
L 209.589101 293.763694 
L 209.92299 293.864602 
L 210.256879 284.782902 
L 210.590768 283.157166 
L 210.924657 264.186504 
L 211.592435 312.8689 
L 211.926324 285.870464 
L 212.260213 271.597619 
L 212.594102 280.903559 
L 212.927991 275.039696 
L 213.26188 300.132096 
L 213.595769 293.337639 
L 213.929658 314.236761 
L 214.263547 312.611024 
L 214.597436 303.305085 
L 214.931325 303.596596 
L 215.265213 297.800005 
L 215.599102 306.758373 
L 215.932991 281.598701 
L 216.26688 281.598701 
L 216.600769 303.663868 
L 216.934658 302.015708 
L 217.268547 340.79793 
L 217.602436 342.569422 
L 217.936325 349.363879 
L 218.270214 349.565694 
L 218.604103 342.27791 
L 218.937992 317.118238 
L 219.60577 333.835293 
L 220.273548 317.959136 
L 220.607437 322.724226 
L 220.941326 297.631825 
L 221.275215 297.530918 
L 221.609104 304.818702 
L 221.942993 331.817138 
L 222.276882 330.191401 
L 222.610771 322.903617 
L 222.94466 348.06329 
L 223.278549 235.04658 
L 223.612437 243.926465 
L 224.280215 285.298653 
L 224.614104 293.236731 
L 224.947993 285.298653 
L 225.281882 262.415012 
L 225.615771 271.37338 
L 225.94966 262.302892 
L 226.617438 259.163539 
L 226.951327 267.437976 
L 227.285216 260.340796 
L 227.952994 304.000227 
L 228.286883 319.898808 
L 228.620772 294.739136 
L 228.954661 285.51168 
L 229.28855 312.510116 
L 229.622439 319.304573 
L 229.956328 297.800005 
L 230.290217 210.525991 
L 230.957995 259.264447 
L 231.625773 308.316838 
L 231.959661 299.35847 
L 232.29355 305.155061 
L 232.627439 297.418798 
L 232.961328 306.724737 
L 233.295217 290.826157 
L 233.629106 299.706041 
L 233.962995 290.400102 
L 234.296884 299.179078 
L 234.964662 259.309295 
L 235.298551 278.279956 
L 235.63244 276.65422 
L 235.966329 284.928658 
L 236.300218 279.132067 
L 236.634107 278.930251 
L 237.301885 229.02575 
L 237.635774 256.865084 
L 237.969663 264.601347 
L 238.637441 249.532452 
L 239.639108 315.436442 
L 240.306885 333.016819 
L 240.974663 314.830995 
L 241.308552 315.032811 
L 241.642441 320.829402 
L 241.97633 295.097919 
L 242.310219 310.9965 
L 242.644108 306.23141 
L 242.977997 306.332318 
L 243.311886 297.553342 
L 243.645775 269.714007 
L 244.313553 235.708087 
L 244.981331 269.938247 
L 245.31522 273.671835 
L 245.649109 298.831507 
L 245.982998 279.860845 
L 246.316887 269.590676 
L 246.650776 278.369652 
L 246.984665 270.633389 
L 247.318554 249.734268 
L 247.652443 242.939811 
L 247.986332 263.838932 
L 248.320221 263.738025 
L 248.65411 242.838903 
L 249.321887 285.803192 
L 249.655776 264.90407 
L 249.989665 272.640333 
L 250.323554 254.151786 
L 250.657443 275.050908 
L 250.991332 267.112829 
L 251.325221 300.21058 
L 251.65911 309.438035 
L 251.992999 311.063772 
L 252.326888 290.16465 
L 252.660777 291.678267 
L 253.328555 273.492443 
L 253.662444 248.332771 
L 253.996333 255.127228 
L 254.330222 246.85279 
L 254.664111 255.127228 
L 254.998 239.228647 
L 255.665778 223.060979 
L 255.999667 240.7759 
L 256.667445 293.774906 
L 257.001334 286.038643 
L 257.335222 306.937765 
L 257.669111 284.872598 
L 258.003 293.954298 
L 258.336889 266.114963 
L 258.670778 257.840526 
L 259.004667 272.875784 
L 259.338556 281.755669 
L 260.006334 229.664832 
L 260.340223 245.563413 
L 260.674112 238.275629 
L 261.008001 263.36803 
L 261.34189 263.166214 
L 261.675779 302.699638 
L 262.009668 304.325375 
L 262.343557 330.056858 
L 262.677446 321.176973 
L 263.011335 293.337639 
L 263.345224 286.049855 
L 264.013002 303.910532 
L 264.346891 278.818131 
L 264.68078 270.880053 
L 265.014669 243.881617 
L 265.348558 234.654161 
L 265.682446 255.553283 
L 266.350224 269.287952 
L 266.684113 269.187045 
L 267.351891 306.769585 
L 268.019669 291.700691 
L 268.353558 298.988474 
L 268.687447 233.858111 
L 269.021336 262.022593 
L 269.355225 261.921685 
L 269.689114 287.653168 
L 270.023003 296.723656 
L 270.356892 318.407615 
L 270.690781 318.508523 
L 271.02467 327.590223 
L 271.358559 349.65539 
L 271.692448 349.554482 
L 272.360226 365.957602 
L 272.694115 367.583338 
L 273.028004 373.379929 
L 273.361893 364.309442 
L 273.695782 362.683705 
L 274.02967 362.784613 
L 274.363559 354.510175 
L 274.697448 333.611054 
L 275.031337 352.099601 
L 275.365226 345.305144 
L 275.699115 364.275806 
L 276.033004 341.392164 
L 276.366893 365.352155 
L 277.034671 312.353149 
L 277.36856 303.047209 
L 277.702449 328.206882 
L 278.370227 288.034375 
L 278.704116 306.522922 
L 279.038005 313.317379 
L 279.371894 313.115563 
L 279.705783 303.888108 
L 280.039672 311.826186 
L 280.373561 327.724767 
L 281.375228 352.514444 
L 282.043006 334.205288 
L 282.376894 335.718905 
L 282.710783 329.922314 
L 283.044672 312.207393 
L 283.71245 296.230329 
L 284.046339 302.02692 
L 284.380228 303.652656 
L 284.714117 312.958595 
L 285.048006 334.642555 
L 285.381895 318.743975 
L 285.715784 226.884262 
L 286.383562 273.727895 
L 286.717451 299.459377 
L 287.05134 290.377678 
L 287.385229 291.891294 
L 287.719118 310.379841 
L 288.386896 292.350985 
L 288.720785 268.390994 
L 289.054674 268.491902 
L 289.388563 303.428417 
L 289.722452 312.498904 
L 290.056341 331.469566 
L 290.39023 329.95595 
L 290.724118 322.017871 
L 291.058007 328.812328 
L 291.391896 353.904729 
L 291.725785 368.939987 
L 292.059674 359.712532 
L 292.393563 338.81341 
L 293.061341 355.709857 
L 293.39523 357.335593 
L 294.063008 310.559233 
L 294.396897 301.600865 
L 294.730786 301.399049 
L 295.064675 323.083009 
L 295.398564 318.31792 
L 295.732453 316.288552 
L 296.066342 331.469566 
L 296.400231 331.671382 
L 296.73412 333.184999 
L 297.068009 339.979456 
L 297.735787 358.367095 
L 298.069676 383.459495 
L 298.403565 374.377795 
L 299.071342 327.534163 
L 299.405231 318.654279 
L 299.73912 327.735979 
L 300.073009 318.430039 
L 300.406898 342.39003 
L 300.740787 335.102246 
L 301.074676 343.982131 
L 301.408565 328.08355 
L 301.742454 319.013062 
L 302.076343 341.896703 
L 302.410232 337.131614 
L 302.744121 346.437553 
L 303.07801 351.202643 
L 303.411899 351.101735 
L 303.745788 343.163656 
L 304.079677 352.122025 
L 304.413566 368.895139 
L 304.747455 367.381523 
L 305.081344 345.697563 
L 305.415233 351.494154 
L 305.749122 334.721039 
L 306.083011 350.61962 
L 306.4169 187.776893 
L 306.750789 205.491814 
L 307.084678 230.651486 
L 307.418566 242.59224 
L 307.752455 242.894963 
L 308.086344 248.691554 
L 308.420233 279.098431 
L 308.754122 273.301839 
L 309.088011 297.060015 
L 309.4219 288.135283 
L 309.755789 297.441222 
L 310.089678 272.28155 
L 310.423567 272.180642 
L 310.757456 245.182206 
L 311.759123 308.238354 
L 312.093012 280.39902 
L 312.426901 282.024756 
L 312.76079 288.819213 
L 313.094679 273.783954 
L 313.428568 298.943627 
L 313.762457 289.716171 
L 314.096346 288.090435 
L 314.430235 315.088871 
L 314.764124 330.124129 
L 315.098013 315.088871 
L 315.431902 306.130503 
L 315.76579 306.332318 
L 316.433568 349.262971 
L 317.435235 303.854472 
L 317.769124 312.81284 
L 318.436902 294.783984 
L 318.770791 269.624312 
L 319.10468 290.523433 
L 319.438569 268.458266 
L 320.106347 322.029083 
L 320.440236 296.2976 
L 320.774125 288.023163 
L 321.108014 296.46578 
L 321.441903 300.928146 
L 321.775792 292.09311 
L 322.109681 299.19029 
L 322.44357 316.905211 
L 323.111348 284.906234 
L 323.445237 310.637717 
L 323.779126 318.373979 
L 324.113014 318.172164 
L 324.446903 323.968755 
L 324.780792 339.004014 
L 325.44857 288.281038 
L 325.782459 288.482854 
L 326.116348 279.176914 
L 326.450237 304.336587 
L 326.784126 283.437465 
L 327.118015 277.640874 
L 327.451904 269.702795 
L 327.785793 244.543123 
L 328.119682 235.663239 
L 328.453571 209.931756 
L 328.78746 214.696846 
L 329.121349 193.012886 
L 329.455238 215.078053 
L 329.789127 224.383992 
L 330.123016 241.157107 
L 330.456905 272.718817 
L 331.458572 326.076606 
L 331.792461 317.006118 
L 332.12635 332.041377 
L 332.460238 317.006118 
L 332.794127 324.293902 
L 333.128016 324.192995 
L 333.461905 332.971971 
L 333.795794 314.001309 
L 334.129683 306.713525 
L 334.463572 313.507982 
L 335.13135 264.388319 
L 335.465239 288.34831 
L 335.799128 288.449218 
L 336.133017 282.652627 
L 336.466906 289.749807 
L 336.800795 264.018324 
L 337.134684 271.754587 
L 337.468573 253.26604 
L 338.136351 237.591699 
L 338.47024 304.235679 
L 338.804129 312.173757 
L 339.138018 311.971942 
L 339.471907 312.958595 
L 339.805796 305.3793 
L 340.139685 307.005037 
L 340.473574 349.789934 
L 340.807462 373.749925 
L 341.141351 373.548109 
L 342.476907 290.321618 
L 342.810796 345.708775 
L 343.144685 337.972512 
L 343.478574 363.064912 
L 343.812463 371.944797 
L 344.146352 371.843889 
L 344.480241 399.683223 
L 344.81413 377.999263 
L 345.148019 387.226719 
L 345.481908 403.999833 
L 345.815797 413.070321 
L 346.483575 364.455197 
L 346.817464 258.367489 
L 347.151353 232.636006 
L 347.819131 285.668648 
L 348.486909 317.656413 
L 348.820798 323.453004 
L 349.154686 315.178567 
L 349.488575 322.46635 
L 349.822464 315.178567 
L 350.156353 330.213825 
L 350.490242 315.178567 
L 350.824131 319.943656 
L 351.15802 319.842748 
L 351.491909 294.750348 
L 351.825798 286.251671 
L 352.159687 264.567711 
L 352.827465 296.376084 
L 353.161354 296.476992 
L 353.495243 303.764776 
L 353.829132 302.251159 
L 354.49691 260.396856 
L 354.830799 254.600265 
L 355.164688 256.113882 
L 355.498577 239.340767 
L 355.832466 261.024727 
L 356.166355 252.066359 
L 356.500244 251.965451 
L 356.834133 252.066359 
L 357.168022 320.223955 
L 357.501911 322.152415 
L 357.835799 339.979456 
L 358.169688 339.979456 
L 358.503577 365.139128 
L 358.837466 356.259243 
L 359.505244 403.06924 
L 359.839133 381.004072 
L 360.173022 373.906892 
L 360.506911 373.09963 
L 360.8408 395.164797 
L 361.174689 372.281156 
L 361.508578 381.16104 
L 361.842467 355.429557 
L 362.176356 373.918104 
L 362.510245 346.919668 
L 362.844134 372.651151 
L 363.178023 388.549732 
L 363.511912 395.646912 
L 363.845801 378.873797 
L 364.17969 405.872233 
L 364.513579 380.14075 
L 364.847468 384.90584 
L 365.181357 377.80866 
L 365.515246 403.540142 
L 365.849135 403.64105 
L 366.183023 412.599418 
L 366.516912 404.324981 
L 366.850801 404.526796 
L 367.18469 395.646912 
L 367.518579 370.554512 
L 367.852468 361.596144 
L 368.186357 355.799552 
L 368.520246 330.06807 
L 368.854135 339.149769 
L 369.188024 320.179107 
L 369.521913 315.414018 
L 369.855802 324.293902 
L 370.189691 314.987963 
L 370.52358 322.275747 
L 370.857469 322.174839 
L 371.191358 314.887055 
L 371.525247 323.643608 
L 371.859136 348.80328 
L 372.193025 355.90046 
L 372.526914 374.871122 
L 372.860803 374.97203 
L 373.194692 381.766487 
L 374.196359 356.707722 
L 374.530247 379.591364 
L 374.864136 374.310523 
L 375.198025 346.471189 
L 375.531914 337.243734 
L 375.865803 346.471189 
L 376.199692 327.500527 
L 376.533581 318.631855 
L 376.86747 327.713555 
L 377.535248 286.061067 
L 377.869137 293.999146 
L 378.203026 295.714578 
L 378.536915 290.433737 
L 378.870804 303.047209 
L 379.204693 303.047209 
L 379.538582 235.708087 
L 379.872471 256.607209 
L 380.20636 263.704389 
L 380.540249 254.398449 
L 380.874138 229.238777 
L 381.208027 212.465662 
L 381.541916 229.238777 
L 381.875805 229.339685 
L 382.209694 238.645624 
L 382.877471 282.708687 
L 383.545249 264.971342 
L 383.879138 308.585925 
L 384.213027 334.317408 
L 384.880805 309.090464 
L 385.214694 324.125723 
L 385.548583 314.819783 
L 385.882472 333.790445 
L 386.216361 326.693265 
L 386.884139 286.823481 
L 387.218028 296.050937 
L 387.551917 273.167296 
L 387.885806 277.932385 
L 388.219695 268.850685 
L 388.553584 244.890695 
L 388.887473 267.774336 
L 389.221362 267.673428 
L 390.223029 331.805926 
L 390.890807 321.244245 
L 391.224695 303.529324 
L 391.558584 322.499986 
L 391.892473 329.597167 
L 392.226362 354.756839 
L 392.560251 335.786177 
L 392.89414 334.16044 
L 393.228029 318.26186 
L 393.561918 293.102188 
L 393.895807 294.727924 
L 394.229696 294.828832 
L 394.563585 245.989468 
L 394.897474 301.152386 
L 395.231363 301.152386 
L 395.565252 299.672405 
L 395.899141 322.298171 
L 396.23303 327.06326 
L 396.900808 282.361115 
L 397.234697 276.564524 
L 397.568586 284.838962 
L 397.902475 301.612077 
L 398.570253 285.433197 
L 398.904142 257.593862 
L 399.238031 248.635494 
L 399.571919 271.519135 
L 399.905808 277.315727 
L 400.239697 277.517542 
L 401.241364 203.675474 
L 401.575253 197.363132 
L 401.909142 225.202466 
L 402.243031 226.98517 
L 402.57692 245.955832 
L 402.910809 247.088242 
L 403.244698 256.04661 
L 403.912476 239.082891 
L 404.246365 222.309777 
L 404.580254 231.088753 
L 404.914143 210.189632 
L 405.248032 225.22489 
L 405.581921 232.32207 
L 405.91581 259.320507 
L 406.249699 253.523915 
L 406.583588 261.260178 
L 406.917477 252.30181 
L 407.251366 224.462476 
L 407.585255 245.361597 
L 407.919143 230.326339 
L 408.253032 231.133601 
L 408.92081 192.519559 
L 409.588588 210.626899 
L 409.922477 232.310858 
L 410.256366 224.574596 
L 410.924144 183.919974 
L 411.258033 211.759308 
L 411.591922 317.970348 
L 411.925811 310.424689 
L 412.2597 311.254375 
L 412.593589 320.033352 
L 412.927478 311.758914 
L 413.595256 346.448765 
L 413.929145 371.541165 
L 414.263034 377.797448 
L 414.596923 370.509664 
L 414.930812 346.863608 
L 415.59859 328.565665 
L 415.932479 328.76748 
L 416.266367 337.837968 
L 416.600256 312.745568 
L 416.934145 341.156713 
L 417.268034 334.362256 
L 417.935812 289.906775 
L 418.60359 307.913207 
L 418.937479 300.176944 
L 419.271368 308.451381 
L 419.605257 300.176944 
L 419.939146 278.111777 
L 420.273035 269.231893 
L 420.606924 276.519676 
L 420.940813 259.746562 
L 421.274702 234.586889 
L 421.608591 262.426224 
L 421.94248 270.700661 
L 422.276369 360.127375 
L 422.610258 363.894598 
L 422.944147 347.121484 
L 423.278036 340.024303 
L 423.611925 355.059562 
L 423.945814 346.179678 
L 424.279703 324.114511 
L 424.94748 339.990667 
L 425.281369 330.92018 
L 425.615258 352.985347 
L 425.949147 362.055835 
L 426.283036 352.974135 
L 426.616925 351.348398 
L 426.950814 360.430098 
L 427.284703 354.633507 
L 427.618592 354.532599 
L 427.952481 371.305714 
L 428.28637 379.580152 
L 429.621926 289.290116 
L 429.955815 280.511139 
L 430.623593 296.185481 
L 430.957482 269.187045 
L 431.291371 264.421955 
L 431.62526 270.218546 
L 431.959149 263.121366 
L 432.626927 299.324834 
L 432.960815 291.756751 
L 433.294704 300.83845 
L 433.628593 328.677785 
L 434.296371 346.684217 
L 434.63026 338.947954 
L 434.964149 364.679437 
L 435.298038 355.597737 
L 435.631927 363.334 
L 436.299705 322.600894 
L 436.633594 301.701772 
L 436.967483 318.474887 
L 437.301372 260.30716 
L 437.635261 286.038643 
L 437.96915 293.774906 
L 438.636928 332.557128 
L 438.970817 324.61905 
L 439.304706 303.719928 
L 439.638595 325.785095 
L 439.972484 331.581686 
L 440.306373 322.354231 
L 440.640262 331.66017 
L 440.974151 331.458354 
L 441.308039 329.832618 
L 441.641928 322.096355 
L 441.975817 296.936683 
L 442.643595 281.340826 
L 442.977484 288.135283 
L 443.311373 272.236702 
L 443.645262 282.361115 
L 443.979151 301.096326 
L 444.31304 311.803762 
L 444.646929 306.007171 
L 444.980818 284.323211 
L 445.314707 275.936654 
L 445.648596 283.672916 
L 445.982485 260.789275 
L 446.316374 279.120855 
L 446.650263 285.545316 
L 446.984152 258.54688 
L 447.318041 272.16943 
L 447.985819 321.289093 
L 448.319708 299.605133 
L 448.987486 339.77764 
L 449.321375 362.661281 
L 449.655263 353.590793 
L 449.989152 331.906833 
L 450.323041 324.61905 
L 450.65693 319.85396 
L 450.990819 303.349933 
L 451.324708 311.62437 
L 451.658597 304.52719 
L 452.326375 320.773342 
L 452.660264 313.485558 
L 452.994153 313.384651 
L 453.328042 212.432027 
L 453.661931 220.224349 
L 453.99582 212.936565 
L 454.329709 240.7759 
L 454.663598 259.264447 
L 454.997487 267.000709 
L 455.331376 268.626446 
L 455.665265 250.137899 
L 455.999154 258.412337 
L 456.333043 236.728377 
L 457.000821 219.71981 
L 457.33471 244.812211 
L 457.668599 243.298594 
L 458.002487 252.52605 
L 458.336376 250.900313 
L 458.670265 225.807913 
L 459.004154 273.840014 
L 460.005821 297.934549 
L 460.673599 280.780227 
L 461.007488 292.474317 
L 461.341377 316.434308 
L 461.675266 293.550667 
L 462.009155 245.821288 
L 462.343044 229.048174 
L 462.676933 256.887508 
L 463.010822 257.089323 
L 463.344711 261.854413 
L 463.6786 280.825075 
L 464.346378 264.197716 
L 465.014156 301.780256 
L 465.348045 301.982072 
L 465.681934 301.881164 
L 466.015823 303.5069 
L 466.349712 298.853931 
L 466.6836 301.567229 
L 467.017489 293.718846 
L 467.351378 320.717282 
L 467.685267 315.952193 
L 468.019156 332.725308 
L 468.353045 307.565635 
L 468.686934 312.330725 
L 469.020823 335.214366 
L 469.354712 344.441822 
L 470.02249 327.848098 
L 470.690268 314.113429 
L 471.024157 287.114993 
L 471.358046 284.82775 
L 471.691935 309.987422 
L 472.025824 318.766399 
L 472.693602 286.094703 
L 473.027491 301.993284 
L 473.695269 319.573661 
L 474.029158 304.538402 
L 474.363047 313.60889 
L 475.030824 271.025809 
L 475.698602 311.68043 
L 476.36638 272.28155 
L 476.700269 265.487093 
L 477.034158 274.826668 
L 477.368047 292.541589 
L 477.701936 271.642467 
L 478.369714 288.011951 
L 479.037492 325.684187 
L 479.371381 325.684187 
L 479.70527 327.309924 
L 480.039159 336.268292 
L 480.373048 257.840526 
L 481.040826 273.896074 
L 481.374715 269.27674 
L 481.708604 261.461994 
L 482.042493 261.663809 
L 482.376382 255.867218 
L 482.710271 263.805297 
L 483.04416 254.846928 
L 483.378048 232.781761 
L 483.711937 232.680854 
L 484.045826 257.773254 
L 484.379715 265.061038 
L 485.047493 246.527643 
L 485.381382 255.755098 
L 485.715271 236.784437 
L 486.383049 253.299676 
L 486.716938 225.460342 
L 487.050827 231.256933 
L 487.718605 215.078053 
L 488.052494 197.363132 
L 488.386383 331.682594 
L 488.720272 337.84918 
L 489.054161 310.009846 
L 489.38805 309.908938 
L 489.721939 313.317379 
L 490.389717 296.073361 
L 490.723606 296.275177 
L 491.057495 289.177996 
L 491.391384 270.689449 
L 491.725272 278.963887 
L 492.059161 251.965451 
L 492.726939 234.620525 
L 493.060828 213.721404 
L 493.394717 213.721404 
L 493.728606 221.009188 
L 494.062495 195.849515 
L 494.396384 214.035339 
L 494.730273 218.800428 
L 495.064162 212.005972 
L 495.398051 228.767874 
L 495.73194 220.560709 
L 496.065829 227.590617 
L 496.399718 227.590617 
L 496.733607 234.687797 
L 497.067496 228.891206 
L 497.735274 281.049314 
L 498.069163 288.987393 
L 498.403052 299.784525 
L 498.736941 274.624853 
L 499.07083 266.686774 
L 499.404719 266.541018 
L 499.738608 273.526079 
L 500.072496 292.014626 
L 500.406385 294.043993 
L 500.740274 292.418257 
L 501.074163 288.482854 
L 501.408052 293.247943 
L 501.741941 266.249507 
L 502.07583 256.943568 
L 502.409719 235.259608 
L 502.743608 243.197686 
L 503.077497 244.823423 
L 503.411386 244.823423 
L 503.745275 244.621607 
L 504.079164 275.364843 
L 504.413053 275.364843 
L 504.746942 276.990579 
L 505.080831 286.061067 
L 505.41472 267.090405 
L 505.748609 266.597078 
L 506.082498 281.206282 
L 506.416387 289.099512 
L 506.750276 274.15395 
L 507.084165 278.47056 
L 507.418054 269.164621 
L 507.751943 278.122989 
L 508.085832 269.512192 
L 508.41972 285.410773 
L 508.753609 285.51168 
L 509.087498 294.391565 
L 509.755276 249.532452 
L 510.089165 241.594374 
L 510.423054 298.326968 
L 511.090832 315.380382 
L 511.424721 313.754646 
L 511.75861 313.55283 
L 512.092499 328.588089 
L 512.426388 319.506389 
L 512.760277 342.39003 
L 513.094166 342.289122 
L 513.428055 317.12945 
L 513.761944 308.171082 
L 514.095833 332.478644 
L 514.429722 344.755757 
L 514.763611 323.856635 
L 515.0975 336.077688 
L 515.431389 337.591305 
L 515.765278 342.356394 
L 516.099167 333.128939 
L 516.433056 332.927123 
L 516.766944 324.652686 
L 517.100833 333.53257 
L 517.768611 295.860333 
L 518.1025 321.020006 
L 518.436389 330.101705 
L 518.770278 307.218064 
L 519.104167 323.991179 
L 519.438056 323.890271 
L 519.771945 307.99169 
L 520.105834 329.67565 
L 520.773612 280.152356 
L 521.107501 280.354172 
L 521.44139 289.31254 
L 522.109168 328.700209 
L 522.443057 309.729547 
L 523.110835 328.262942 
L 523.444724 319.383057 
L 523.778613 293.651574 
L 524.112502 292.137958 
L 524.446391 271.238836 
L 524.78028 271.238836 
L 525.448057 257.335987 
L 526.115835 240.293785 
L 526.449724 218.228618 
L 526.783613 239.912578 
L 527.117502 214.752905 
L 527.78528 260.811699 
L 528.119169 267.931303 
L 528.453058 269.411284 
L 528.786947 313.216471 
L 529.120836 306.39959 
L 529.454725 322.298171 
L 530.122503 283.684128 
L 530.456392 309.415611 
L 530.790281 286.53197 
L 531.12417 301.410261 
L 531.458059 301.208446 
L 531.791948 324.092087 
L 532.125837 332.871063 
L 532.459726 328.105974 
L 532.793615 301.107538 
L 533.127504 316.142796 
L 533.795281 332.758944 
L 534.12917 310.693777 
L 534.463059 319.775476 
L 534.796948 294.683076 
L 535.130837 285.455621 
L 535.464726 286.969237 
L 535.798615 296.275177 
L 536.132504 287.395292 
L 537.134171 228.140004 
L 537.46806 261.753505 
L 537.801949 277.977233 
L 538.135838 299.661193 
L 538.469727 293.864602 
L 538.803616 302.946302 
L 539.471394 264.332259 
L 539.805283 264.130444 
L 540.139172 245.787653 
L 540.473061 255.015108 
L 540.80695 253.389372 
L 541.140839 255.586919 
L 541.474728 232.703278 
L 541.808616 257.795678 
L 542.142505 259.309295 
L 542.476394 274.344553 
L 542.810283 274.344553 
L 543.478061 324.22663 
L 543.81195 315.268262 
L 544.145839 300.233004 
L 544.813617 332.041377 
L 545.481395 313.732222 
L 545.815284 289.772231 
L 546.149173 306.724737 
L 546.483062 306.724737 
L 546.816951 315.604622 
L 547.15084 297.889701 
L 547.818618 297.990609 
L 548.152507 307.218064 
L 548.486396 308.843801 
L 548.820285 303.047209 
L 549.488063 315.638258 
L 549.821952 334.126805 
L 550.15584 325.056317 
L 550.489729 323.43058 
L 550.823618 296.432144 
L 551.157507 289.14436 
L 551.491396 268.245239 
L 551.825285 295.243675 
L 552.493063 249.184881 
L 552.826952 256.472665 
L 553.160841 248.736402 
L 553.49473 250.362138 
L 553.828619 234.463558 
L 554.162508 243.22011 
L 554.496397 243.22011 
L 554.830286 260.30716 
L 555.164175 249.756692 
L 555.498064 274.849092 
L 555.831953 265.621637 
L 556.165842 265.621637 
L 556.83362 251.886967 
L 557.167509 272.786089 
L 557.501398 280.724167 
L 557.835287 255.564495 
L 558.503064 272.382458 
L 558.836953 297.54213 
L 559.170842 276.643008 
L 559.504731 276.643008 
L 559.83862 251.550608 
L 560.172509 273.234568 
L 560.506398 273.032752 
L 560.840287 288.931333 
L 561.174176 261.091999 
L 561.508065 269.366436 
L 561.841954 261.428358 
L 562.175843 259.802621 
L 562.509732 261.428358 
L 563.17751 246.404311 
L 563.511399 244.778575 
L 563.845288 269.870975 
L 564.179177 246.987334 
L 564.513066 245.473717 
L 564.846955 246.987334 
L 565.848622 186.958419 
L 566.182511 186.958419 
L 566.5164 187.462958 
L 566.850288 160.464522 
L 567.184177 185.624194 
L 567.518066 185.624194 
L 567.851955 176.665826 
L 568.519733 219.596479 
L 569.187511 203.720322 
L 569.5214 203.720322 
L 570.189178 218.92376 
L 570.523067 218.92376 
L 570.856956 211.019318 
L 571.190845 220.246773 
L 571.524734 244.206764 
L 571.858623 234.979309 
L 572.192512 242.715571 
L 572.526401 244.229188 
L 572.86029 250.025779 
L 573.194179 250.227595 
L 573.528068 251.853331 
L 573.861957 242.894963 
L 574.529735 287.114993 
L 574.863624 287.114993 
L 575.197513 303.013574 
L 575.531401 312.084061 
L 575.86529 312.084061 
L 576.199179 302.038132 
L 576.866957 332.758944 
L 577.200846 323.531488 
L 577.534735 323.531488 
L 578.202513 272.808513 
L 578.536402 281.890212 
L 578.870291 275.095756 
L 579.20418 275.544235 
L 579.538069 275.544235 
L 580.205847 290.613129 
L 580.539736 282.338691 
L 580.873625 261.43957 
L 581.207514 252.13363 
L 581.541403 230.068463 
L 582.209181 247.121878 
L 582.54307 247.121878 
L 582.876959 256.001762 
L 583.210848 237.0311 
L 583.878625 219.674962 
L 584.546403 219.77587 
L 584.880292 210.548415 
L 585.214181 236.279898 
L 585.54807 245.585837 
L 585.881959 264.556499 
L 586.215848 264.556499 
L 586.883626 213.732616 
L 587.551404 256.315697 
L 587.885293 250.519106 
L 588.219182 254.835716 
L 588.553071 245.955832 
L 588.88696 272.886996 
L 589.220849 256.113882 
L 589.554738 264.892858 
L 589.888627 243.993737 
L 590.222516 243.993737 
L 590.556405 251.931815 
L 590.890294 224.933379 
L 591.224183 218.138922 
L 591.558072 218.138922 
L 591.891961 210.077512 
L 592.225849 217.174692 
L 592.559738 217.174692 
L 592.893627 209.236614 
L 593.227516 234.968097 
L 593.561405 225.897609 
L 595.23085 225.897609 
L 595.564739 203.832442 
L 596.232517 203.832442 
L 596.566406 205.346058 
L 597.234184 205.346058 
L 597.568073 214.573514 
L 597.901962 205.491814 
L 598.235851 205.491814 
L 598.903629 188.898091 
L 599.237518 209.797212 
L 599.571407 217.084996 
L 599.905296 235.573543 
L 600.239185 219.674962 
L 600.573073 219.674962 
L 600.906962 221.300699 
L 601.240851 202.363673 
L 602.910296 202.363673 
L 603.244185 227.523345 
L 603.578074 209.034798 
L 603.911963 201.298535 
L 605.247519 201.298535 
L 605.581408 180.399414 
L 605.915297 186.196005 
L 606.249186 186.196005 
L 606.583075 164.512045 
L 606.916964 164.512045 
L 607.250853 173.817984 
L 608.25252 173.817984 
L 608.586409 198.910385 
L 608.920297 189.952016 
L 610.255853 189.952016 
L 610.923631 206.971795 
L 611.25752 206.971795 
L 611.591409 215.246232 
L 611.925298 233.734779 
L 612.259187 218.699521 
L 612.926965 218.598613 
L 613.260854 212.802022 
L 613.594743 212.802022 
L 613.928632 195.087101 
L 614.262521 204.157589 
L 614.930299 204.258497 
L 615.598077 204.258497 
L 615.931966 194.952557 
L 616.265855 193.438941 
L 616.599744 174.950394 
L 616.933633 167.66261 
L 617.267521 167.66261 
L 617.60141 176.620978 
L 618.269188 176.620978 
L 618.603077 151.461306 
L 619.270855 151.461306 
L 619.604744 142.23385 
L 620.272522 142.132943 
L 620.606411 159.847863 
L 620.9403 159.847863 
L 621.274189 174.883122 
L 621.608078 166.003238 
L 621.941967 165.801422 
L 622.609745 165.801422 
L 622.943634 181.700003 
L 623.277523 174.602823 
L 623.611412 174.602823 
L 623.945301 183.830278 
L 624.27919 166.115357 
L 624.613079 161.350268 
L 625.280857 161.350268 
L 625.614745 166.115357 
L 625.948634 156.887902 
L 627.28419 156.887902 
L 627.618079 158.401518 
L 627.951968 142.502938 
L 629.287524 142.502938 
L 629.621413 145.249872 
L 631.290858 145.350779 
L 631.624747 154.656719 
L 632.626414 154.656719 
L 632.960303 146.079558 
L 635.297525 146.079558 
L 635.631414 153.176738 
L 638.302526 153.176738 
L 638.636415 146.079558 
L 638.970304 154.959442 
L 639.304193 154.959442 
L 639.638082 172.674363 
L 640.30586 172.674363 
L 640.973638 188.741123 
L 641.307527 187.115387 
L 641.641416 187.115387 
L 641.975305 203.888502 
L 642.309193 195.950423 
L 642.643082 180.915165 
L 642.976971 180.814257 
L 643.31086 190.041712 
L 643.644749 181.083344 
L 645.648083 181.083344 
L 645.981972 173.79556 
L 646.64975 173.79556 
L 646.983639 175.421297 
L 649.654751 175.522204 
L 649.98864 147.68287 
L 651.658084 147.68287 
L 651.991973 146.057134 
L 658.001975 146.057134 
L 658.335864 153.434613 
L 659.671419 153.434613 
L 660.005308 144.364126 
L 661.006975 144.364126 
L 661.340864 150.620408 
L 662.008642 150.620408 
L 662.342531 131.649746 
L 666.683088 131.649746 
L 667.016977 133.275482 
L 673.360867 133.275482 
L 673.694756 131.649746 
L 675.030312 131.649746 
L 675.364201 124.081663 
L 681.040313 124.081663 
L 681.374202 123.812575 
L 685.04698 123.812575 
L 685.380869 122.792285 
L 686.382536 122.792285 
L 686.716425 121.166549 
L 688.719759 121.166549 
L 689.053648 113.172411 
L 689.387537 113.172411 
L 690.055315 99.157442 
L 695.397538 99.056534 
L 695.731427 89.750595 
L 770.856443 89.750595 
L 771.190332 88.887273 
L 871.690909 88.887273 
L 871.690909 88.887273 
" style="fill:none;stroke:#8dd3c7;stroke-linecap:square;stroke-width:1.5;"/>
   </g>
   <g id="line2d_15">
    <path clip-path="url(#p75a1280b80)" d="M 161.509091 179.13246 
L 566.5164 179.13246 
L 566.850288 160.464522 
L 618.269188 160.464522 
L 618.603077 151.461306 
L 619.270855 151.461306 
L 619.604744 142.23385 
L 662.008642 142.132943 
L 662.342531 131.649746 
L 675.030312 131.649746 
L 675.364201 124.081663 
L 681.040313 124.081663 
L 681.374202 123.812575 
L 685.04698 123.812575 
L 685.380869 122.792285 
L 686.382536 122.792285 
L 686.716425 121.166549 
L 688.719759 121.166549 
L 689.053648 113.172411 
L 689.387537 113.172411 
L 690.055315 99.157442 
L 695.397538 99.056534 
L 695.731427 89.750595 
L 770.856443 89.750595 
L 771.190332 88.887273 
L 871.690909 88.887273 
L 871.690909 88.887273 
" style="fill:none;stroke:#feffb3;stroke-linecap:square;stroke-width:1.5;"/>
   </g>
   <g id="line2d_16">
    <path clip-path="url(#p75a1280b80)" d="M 161.509091 270.662541 
L 163.846314 270.662541 
L 164.180203 287.161971 
L 166.517425 287.161971 
L 166.851314 302.386732 
L 169.188537 302.386732 
L 169.522426 316.4353 
L 171.859649 316.4353 
L 172.193538 329.398542 
L 174.53076 329.398542 
L 174.864649 341.360304 
L 177.201872 341.360304 
L 177.535761 352.397957 
L 179.872984 352.397957 
L 180.206873 362.582892 
L 182.544095 362.582892 
L 182.877984 371.980987 
L 185.215207 371.980987 
L 185.549096 380.65303 
L 187.886319 380.65303 
L 188.220208 388.655111 
L 190.55743 388.655111 
L 190.891319 396.038989 
L 193.228542 396.038989 
L 193.562431 402.852423 
L 195.899654 402.852423 
L 196.233543 409.139483 
L 198.570765 409.139483 
L 198.904654 414.940835 
L 201.241877 414.940835 
L 201.575766 420.294001 
L 203.912989 420.294001 
L 204.246878 425.233607 
L 206.584101 425.233607 
L 206.917989 429.791602 
L 209.255212 429.791602 
L 209.589101 433.997468 
L 211.926324 433.997468 
L 212.260213 437.878408 
L 214.597436 437.878408 
L 214.931325 441.459525 
L 217.268547 441.459525 
L 217.602436 444.763982 
L 219.939659 444.763982 
L 220.273548 447.813152 
L 222.610771 447.813152 
L 222.94466 450.626758 
L 225.281882 450.626758 
L 225.615771 453.222997 
L 227.952994 453.222997 
L 228.286883 455.618663 
L 230.624106 455.618663 
L 230.957995 457.829251 
L 233.295217 457.829251 
L 233.629106 459.86906 
L 235.966329 459.86906 
L 236.300218 461.751283 
L 238.637441 461.751283 
L 238.97133 463.488094 
L 241.308552 463.488094 
L 241.642441 465.090727 
L 243.979664 465.090727 
L 244.313553 466.569548 
L 246.650776 466.569548 
L 246.984665 467.934122 
L 249.321887 467.934122 
L 249.655776 469.193276 
L 251.992999 469.193276 
L 252.326888 470.355153 
L 254.664111 470.355153 
L 254.998 471.427269 
L 257.335222 471.427269 
L 257.669111 472.416559 
L 260.006334 472.416559 
L 260.340223 473.329421 
L 262.677446 473.329421 
L 263.011335 474.171759 
L 265.348558 474.171759 
L 265.682446 474.949022 
L 268.019669 474.949022 
L 268.353558 475.666238 
L 270.690781 475.666238 
L 271.02467 476.328044 
L 273.361893 476.328044 
L 273.695782 476.938723 
L 276.033004 476.938723 
L 276.366893 477.502224 
L 278.704116 477.502224 
L 279.038005 478.022191 
L 281.375228 478.022191 
L 281.709117 478.501988 
L 284.046339 478.501988 
L 284.380228 478.944718 
L 286.717451 478.944718 
L 287.05134 479.353245 
L 289.388563 479.353245 
L 289.722452 479.73021 
L 292.059674 479.73021 
L 292.393563 480.078054 
L 294.730786 480.078054 
L 295.064675 480.399024 
L 297.401898 480.399024 
L 297.735787 480.695198 
L 300.073009 480.695198 
L 300.406898 480.968491 
L 302.744121 480.968491 
L 303.07801 481.220671 
L 305.415233 481.220671 
L 305.749122 481.453368 
L 308.086344 481.453368 
L 308.420233 481.668088 
L 310.757456 481.668088 
L 311.091345 481.86622 
L 313.428568 481.86622 
L 313.762457 482.049046 
L 316.099679 482.049046 
L 316.433568 482.217747 
L 318.770791 482.217747 
L 319.10468 482.373415 
L 321.441903 482.373415 
L 321.775792 482.517056 
L 324.113014 482.517056 
L 324.446903 482.649601 
L 326.784126 482.649601 
L 327.118015 482.771906 
L 329.455238 482.771906 
L 330.123016 482.884762 
L 334.797461 482.9889 
L 335.465239 483.084992 
L 340.139685 483.173661 
L 340.807462 483.255479 
L 345.481908 483.330977 
L 346.149686 483.400642 
L 350.824131 483.464925 
L 351.491909 483.524242 
L 358.837466 483.629482 
L 359.839133 483.676086 
L 366.850801 483.75877 
L 368.186357 483.795386 
L 377.535248 483.889118 
L 379.204693 483.915664 
L 393.561918 484.020621 
L 395.899141 484.037007 
L 422.944147 484.145138 
L 429.288037 484.16391 
L 871.690909 484.232727 
L 871.690909 484.232727 
" style="fill:none;stroke:#bfbbd9;stroke-linecap:square;stroke-width:1.5;"/>
   </g>
   <g id="patch_3">
    <path d="M 126 504 
L 126 69.12 
" style="fill:none;stroke:#ffffff;stroke-linecap:square;stroke-linejoin:miter;stroke-width:0.8;"/>
   </g>
   <g id="patch_4">
    <path d="M 907.2 504 
L 907.2 69.12 
" style="fill:none;stroke:#ffffff;stroke-linecap:square;stroke-linejoin:miter;stroke-width:0.8;"/>
   </g>
   <g id="patch_5">
    <path d="M 126 504 
L 907.2 504 
" style="fill:none;stroke:#ffffff;stroke-linecap:square;stroke-linejoin:miter;stroke-width:0.8;"/>
   </g>
   <g id="patch_6">
    <path d="M 126 69.12 
L 907.2 69.12 
" style="fill:none;stroke:#ffffff;stroke-linecap:square;stroke-linejoin:miter;stroke-width:0.8;"/>
   </g>
   <g id="text_15">
    <!-- instance 7 with error 0.004882316419258292 -->
    <g style="fill:#ffffff;" transform="translate(378.046875 63.12)scale(0.12 -0.12)">
     <defs>
      <path d="M 2834 3397 
L 2834 2853 
Q 2591 2978 2328 3040 
Q 2066 3103 1784 3103 
Q 1356 3103 1142 2972 
Q 928 2841 928 2578 
Q 928 2378 1081 2264 
Q 1234 2150 1697 2047 
L 1894 2003 
Q 2506 1872 2764 1633 
Q 3022 1394 3022 966 
Q 3022 478 2636 193 
Q 2250 -91 1575 -91 
Q 1294 -91 989 -36 
Q 684 19 347 128 
L 347 722 
Q 666 556 975 473 
Q 1284 391 1588 391 
Q 1994 391 2212 530 
Q 2431 669 2431 922 
Q 2431 1156 2273 1281 
Q 2116 1406 1581 1522 
L 1381 1569 
Q 847 1681 609 1914 
Q 372 2147 372 2553 
Q 372 3047 722 3315 
Q 1072 3584 1716 3584 
Q 2034 3584 2315 3537 
Q 2597 3491 2834 3397 
z
" id="DejaVuSans-73" transform="scale(0.015625)"/>
      <path d="M 3122 3366 
L 3122 2828 
Q 2878 2963 2633 3030 
Q 2388 3097 2138 3097 
Q 1578 3097 1268 2742 
Q 959 2388 959 1747 
Q 959 1106 1268 751 
Q 1578 397 2138 397 
Q 2388 397 2633 464 
Q 2878 531 3122 666 
L 3122 134 
Q 2881 22 2623 -34 
Q 2366 -91 2075 -91 
Q 1284 -91 818 406 
Q 353 903 353 1747 
Q 353 2603 823 3093 
Q 1294 3584 2113 3584 
Q 2378 3584 2631 3529 
Q 2884 3475 3122 3366 
z
" id="DejaVuSans-63" transform="scale(0.015625)"/>
      <path id="DejaVuSans-20" transform="scale(0.015625)"/>
      <path d="M 525 4666 
L 3525 4666 
L 3525 4397 
L 1831 0 
L 1172 0 
L 2766 4134 
L 525 4134 
L 525 4666 
z
" id="DejaVuSans-37" transform="scale(0.015625)"/>
      <path d="M 269 3500 
L 844 3500 
L 1563 769 
L 2278 3500 
L 2956 3500 
L 3675 769 
L 4391 3500 
L 4966 3500 
L 4050 0 
L 3372 0 
L 2619 2869 
L 1863 0 
L 1184 0 
L 269 3500 
z
" id="DejaVuSans-77" transform="scale(0.015625)"/>
      <path d="M 3513 2113 
L 3513 0 
L 2938 0 
L 2938 2094 
Q 2938 2591 2744 2837 
Q 2550 3084 2163 3084 
Q 1697 3084 1428 2787 
Q 1159 2491 1159 1978 
L 1159 0 
L 581 0 
L 581 4863 
L 1159 4863 
L 1159 2956 
Q 1366 3272 1645 3428 
Q 1925 3584 2291 3584 
Q 2894 3584 3203 3211 
Q 3513 2838 3513 2113 
z
" id="DejaVuSans-68" transform="scale(0.015625)"/>
      <path d="M 684 794 
L 1344 794 
L 1344 0 
L 684 0 
L 684 794 
z
" id="DejaVuSans-2e" transform="scale(0.015625)"/>
      <path d="M 2419 4116 
L 825 1625 
L 2419 1625 
L 2419 4116 
z
M 2253 4666 
L 3047 4666 
L 3047 1625 
L 3713 1625 
L 3713 1100 
L 3047 1100 
L 3047 0 
L 2419 0 
L 2419 1100 
L 313 1100 
L 313 1709 
L 2253 4666 
z
" id="DejaVuSans-34" transform="scale(0.015625)"/>
      <path d="M 2034 2216 
Q 1584 2216 1326 1975 
Q 1069 1734 1069 1313 
Q 1069 891 1326 650 
Q 1584 409 2034 409 
Q 2484 409 2743 651 
Q 3003 894 3003 1313 
Q 3003 1734 2745 1975 
Q 2488 2216 2034 2216 
z
M 1403 2484 
Q 997 2584 770 2862 
Q 544 3141 544 3541 
Q 544 4100 942 4425 
Q 1341 4750 2034 4750 
Q 2731 4750 3128 4425 
Q 3525 4100 3525 3541 
Q 3525 3141 3298 2862 
Q 3072 2584 2669 2484 
Q 3125 2378 3379 2068 
Q 3634 1759 3634 1313 
Q 3634 634 3220 271 
Q 2806 -91 2034 -91 
Q 1263 -91 848 271 
Q 434 634 434 1313 
Q 434 1759 690 2068 
Q 947 2378 1403 2484 
z
M 1172 3481 
Q 1172 3119 1398 2916 
Q 1625 2713 2034 2713 
Q 2441 2713 2670 2916 
Q 2900 3119 2900 3481 
Q 2900 3844 2670 4047 
Q 2441 4250 2034 4250 
Q 1625 4250 1398 4047 
Q 1172 3844 1172 3481 
z
" id="DejaVuSans-38" transform="scale(0.015625)"/>
      <path d="M 2113 2584 
Q 1688 2584 1439 2293 
Q 1191 2003 1191 1497 
Q 1191 994 1439 701 
Q 1688 409 2113 409 
Q 2538 409 2786 701 
Q 3034 994 3034 1497 
Q 3034 2003 2786 2293 
Q 2538 2584 2113 2584 
z
M 3366 4563 
L 3366 3988 
Q 3128 4100 2886 4159 
Q 2644 4219 2406 4219 
Q 1781 4219 1451 3797 
Q 1122 3375 1075 2522 
Q 1259 2794 1537 2939 
Q 1816 3084 2150 3084 
Q 2853 3084 3261 2657 
Q 3669 2231 3669 1497 
Q 3669 778 3244 343 
Q 2819 -91 2113 -91 
Q 1303 -91 875 529 
Q 447 1150 447 2328 
Q 447 3434 972 4092 
Q 1497 4750 2381 4750 
Q 2619 4750 2861 4703 
Q 3103 4656 3366 4563 
z
" id="DejaVuSans-36" transform="scale(0.015625)"/>
      <path d="M 703 97 
L 703 672 
Q 941 559 1184 500 
Q 1428 441 1663 441 
Q 2288 441 2617 861 
Q 2947 1281 2994 2138 
Q 2813 1869 2534 1725 
Q 2256 1581 1919 1581 
Q 1219 1581 811 2004 
Q 403 2428 403 3163 
Q 403 3881 828 4315 
Q 1253 4750 1959 4750 
Q 2769 4750 3195 4129 
Q 3622 3509 3622 2328 
Q 3622 1225 3098 567 
Q 2575 -91 1691 -91 
Q 1453 -91 1209 -44 
Q 966 3 703 97 
z
M 1959 2075 
Q 2384 2075 2632 2365 
Q 2881 2656 2881 3163 
Q 2881 3666 2632 3958 
Q 2384 4250 1959 4250 
Q 1534 4250 1286 3958 
Q 1038 3666 1038 3163 
Q 1038 2656 1286 2365 
Q 1534 2075 1959 2075 
z
" id="DejaVuSans-39" transform="scale(0.015625)"/>
     </defs>
     <use xlink:href="#DejaVuSans-69"/>
     <use x="27.783203" xlink:href="#DejaVuSans-6e"/>
     <use x="91.162109" xlink:href="#DejaVuSans-73"/>
     <use x="143.261719" xlink:href="#DejaVuSans-74"/>
     <use x="182.470703" xlink:href="#DejaVuSans-61"/>
     <use x="243.75" xlink:href="#DejaVuSans-6e"/>
     <use x="307.128906" xlink:href="#DejaVuSans-63"/>
     <use x="362.109375" xlink:href="#DejaVuSans-65"/>
     <use x="423.632812" xlink:href="#DejaVuSans-20"/>
     <use x="455.419922" xlink:href="#DejaVuSans-37"/>
     <use x="519.042969" xlink:href="#DejaVuSans-20"/>
     <use x="550.830078" xlink:href="#DejaVuSans-77"/>
     <use x="632.617188" xlink:href="#DejaVuSans-69"/>
     <use x="660.400391" xlink:href="#DejaVuSans-74"/>
     <use x="699.609375" xlink:href="#DejaVuSans-68"/>
     <use x="762.988281" xlink:href="#DejaVuSans-20"/>
     <use x="794.775391" xlink:href="#DejaVuSans-65"/>
     <use x="856.298828" xlink:href="#DejaVuSans-72"/>
     <use x="895.662109" xlink:href="#DejaVuSans-72"/>
     <use x="934.525391" xlink:href="#DejaVuSans-6f"/>
     <use x="995.707031" xlink:href="#DejaVuSans-72"/>
     <use x="1036.820312" xlink:href="#DejaVuSans-20"/>
     <use x="1068.607422" xlink:href="#DejaVuSans-30"/>
     <use x="1132.230469" xlink:href="#DejaVuSans-2e"/>
     <use x="1164.017578" xlink:href="#DejaVuSans-30"/>
     <use x="1227.640625" xlink:href="#DejaVuSans-30"/>
     <use x="1291.263672" xlink:href="#DejaVuSans-34"/>
     <use x="1354.886719" xlink:href="#DejaVuSans-38"/>
     <use x="1418.509766" xlink:href="#DejaVuSans-38"/>
     <use x="1482.132812" xlink:href="#DejaVuSans-32"/>
     <use x="1545.755859" xlink:href="#DejaVuSans-33"/>
     <use x="1609.378906" xlink:href="#DejaVuSans-31"/>
     <use x="1673.001953" xlink:href="#DejaVuSans-36"/>
     <use x="1736.625" xlink:href="#DejaVuSans-34"/>
     <use x="1800.248047" xlink:href="#DejaVuSans-31"/>
     <use x="1863.871094" xlink:href="#DejaVuSans-39"/>
     <use x="1927.494141" xlink:href="#DejaVuSans-32"/>
     <use x="1991.117188" xlink:href="#DejaVuSans-35"/>
     <use x="2054.740234" xlink:href="#DejaVuSans-38"/>
     <use x="2118.363281" xlink:href="#DejaVuSans-32"/>
     <use x="2181.986328" xlink:href="#DejaVuSans-39"/>
     <use x="2245.609375" xlink:href="#DejaVuSans-32"/>
    </g>
   </g>
   <g id="legend_1">
    <g id="patch_7">
     <path d="M 805.348438 499 
L 900.2 499 
Q 902.2 499 902.2 497 
L 902.2 453.965625 
Q 902.2 451.965625 900.2 451.965625 
L 805.348438 451.965625 
Q 803.348438 451.965625 803.348438 453.965625 
L 803.348438 497 
Q 803.348438 499 805.348438 499 
z
" style="opacity:0.8;stroke:#cccccc;stroke-linejoin:miter;"/>
    </g>
    <g id="line2d_17">
     <path d="M 807.348438 460.064062 
L 827.348438 460.064062 
" style="fill:none;stroke:#8dd3c7;stroke-linecap:square;stroke-width:1.5;"/>
    </g>
    <g id="line2d_18"/>
    <g id="text_16">
     <!-- cost -->
     <g style="fill:#ffffff;" transform="translate(835.348438 463.564062)scale(0.1 -0.1)">
      <use xlink:href="#DejaVuSans-63"/>
      <use x="54.980469" xlink:href="#DejaVuSans-6f"/>
      <use x="116.162109" xlink:href="#DejaVuSans-73"/>
      <use x="168.261719" xlink:href="#DejaVuSans-74"/>
     </g>
    </g>
    <g id="line2d_19">
     <path d="M 807.348438 474.742188 
L 827.348438 474.742188 
" style="fill:none;stroke:#feffb3;stroke-linecap:square;stroke-width:1.5;"/>
    </g>
    <g id="line2d_20"/>
    <g id="text_17">
     <!-- best cost -->
     <g style="fill:#ffffff;" transform="translate(835.348438 478.242188)scale(0.1 -0.1)">
      <defs>
       <path d="M 3116 1747 
Q 3116 2381 2855 2742 
Q 2594 3103 2138 3103 
Q 1681 3103 1420 2742 
Q 1159 2381 1159 1747 
Q 1159 1113 1420 752 
Q 1681 391 2138 391 
Q 2594 391 2855 752 
Q 3116 1113 3116 1747 
z
M 1159 2969 
Q 1341 3281 1617 3432 
Q 1894 3584 2278 3584 
Q 2916 3584 3314 3078 
Q 3713 2572 3713 1747 
Q 3713 922 3314 415 
Q 2916 -91 2278 -91 
Q 1894 -91 1617 61 
Q 1341 213 1159 525 
L 1159 0 
L 581 0 
L 581 4863 
L 1159 4863 
L 1159 2969 
z
" id="DejaVuSans-62" transform="scale(0.015625)"/>
      </defs>
      <use xlink:href="#DejaVuSans-62"/>
      <use x="63.476562" xlink:href="#DejaVuSans-65"/>
      <use x="125" xlink:href="#DejaVuSans-73"/>
      <use x="177.099609" xlink:href="#DejaVuSans-74"/>
      <use x="216.308594" xlink:href="#DejaVuSans-20"/>
      <use x="248.095703" xlink:href="#DejaVuSans-63"/>
      <use x="303.076172" xlink:href="#DejaVuSans-6f"/>
      <use x="364.257812" xlink:href="#DejaVuSans-73"/>
      <use x="416.357422" xlink:href="#DejaVuSans-74"/>
     </g>
    </g>
    <g id="line2d_21">
     <path d="M 807.348438 489.420313 
L 827.348438 489.420313 
" style="fill:none;stroke:#bfbbd9;stroke-linecap:square;stroke-width:1.5;"/>
    </g>
    <g id="line2d_22"/>
    <g id="text_18">
     <!-- temperature -->
     <g style="fill:#ffffff;" transform="translate(835.348438 492.920313)scale(0.1 -0.1)">
      <defs>
       <path d="M 3328 2828 
Q 3544 3216 3844 3400 
Q 4144 3584 4550 3584 
Q 5097 3584 5394 3201 
Q 5691 2819 5691 2113 
L 5691 0 
L 5113 0 
L 5113 2094 
Q 5113 2597 4934 2840 
Q 4756 3084 4391 3084 
Q 3944 3084 3684 2787 
Q 3425 2491 3425 1978 
L 3425 0 
L 2847 0 
L 2847 2094 
Q 2847 2600 2669 2842 
Q 2491 3084 2119 3084 
Q 1678 3084 1418 2786 
Q 1159 2488 1159 1978 
L 1159 0 
L 581 0 
L 581 3500 
L 1159 3500 
L 1159 2956 
Q 1356 3278 1631 3431 
Q 1906 3584 2284 3584 
Q 2666 3584 2933 3390 
Q 3200 3197 3328 2828 
z
" id="DejaVuSans-6d" transform="scale(0.015625)"/>
       <path d="M 1159 525 
L 1159 -1331 
L 581 -1331 
L 581 3500 
L 1159 3500 
L 1159 2969 
Q 1341 3281 1617 3432 
Q 1894 3584 2278 3584 
Q 2916 3584 3314 3078 
Q 3713 2572 3713 1747 
Q 3713 922 3314 415 
Q 2916 -91 2278 -91 
Q 1894 -91 1617 61 
Q 1341 213 1159 525 
z
M 3116 1747 
Q 3116 2381 2855 2742 
Q 2594 3103 2138 3103 
Q 1681 3103 1420 2742 
Q 1159 2381 1159 1747 
Q 1159 1113 1420 752 
Q 1681 391 2138 391 
Q 2594 391 2855 752 
Q 3116 1113 3116 1747 
z
" id="DejaVuSans-70" transform="scale(0.015625)"/>
       <path d="M 544 1381 
L 544 3500 
L 1119 3500 
L 1119 1403 
Q 1119 906 1312 657 
Q 1506 409 1894 409 
Q 2359 409 2629 706 
Q 2900 1003 2900 1516 
L 2900 3500 
L 3475 3500 
L 3475 0 
L 2900 0 
L 2900 538 
Q 2691 219 2414 64 
Q 2138 -91 1772 -91 
Q 1169 -91 856 284 
Q 544 659 544 1381 
z
M 1991 3584 
L 1991 3584 
z
" id="DejaVuSans-75" transform="scale(0.015625)"/>
      </defs>
      <use xlink:href="#DejaVuSans-74"/>
      <use x="39.208984" xlink:href="#DejaVuSans-65"/>
      <use x="100.732422" xlink:href="#DejaVuSans-6d"/>
      <use x="198.144531" xlink:href="#DejaVuSans-70"/>
      <use x="261.621094" xlink:href="#DejaVuSans-65"/>
      <use x="323.144531" xlink:href="#DejaVuSans-72"/>
      <use x="364.257812" xlink:href="#DejaVuSans-61"/>
      <use x="425.537109" xlink:href="#DejaVuSans-74"/>
      <use x="464.746094" xlink:href="#DejaVuSans-75"/>
      <use x="528.125" xlink:href="#DejaVuSans-72"/>
      <use x="566.988281" xlink:href="#DejaVuSans-65"/>
     </g>
    </g>
   </g>
  </g>
 </g>
 <defs>
  <clipPath id="p75a1280b80">
   <rect height="434.88" width="781.2" x="126" y="69.12"/>
  </clipPath>
 </defs>
</svg>
