<?xml version="1.0" encoding="utf-8" standalone="no"?>
<!DOCTYPE svg PUBLIC "-//W3C//DTD SVG 1.1//EN"
  "http://www.w3.org/Graphics/SVG/1.1/DTD/svg11.dtd">
<svg height="576pt" version="1.1" viewBox="0 0 1008 576" width="1008pt" xmlns="http://www.w3.org/2000/svg" xmlns:xlink="http://www.w3.org/1999/xlink">
 <metadata>
  <rdf:RDF xmlns:cc="http://creativecommons.org/ns#" xmlns:dc="http://purl.org/dc/elements/1.1/" xmlns:rdf="http://www.w3.org/1999/02/22-rdf-syntax-ns#">
   <cc:Work>
    <dc:type rdf:resource="http://purl.org/dc/dcmitype/StillImage"/>
    <dc:date>2022-01-08T11:43:57.147455</dc:date>
    <dc:format>image/svg+xml</dc:format>
    <dc:creator>
     <cc:Agent>
      <dc:title>Matplotlib v3.4.3, https://matplotlib.org/</dc:title>
     </cc:Agent>
    </dc:creator>
   </cc:Work>
  </rdf:RDF>
 </metadata>
 <defs>
  <style type="text/css">*{stroke-linecap:butt;stroke-linejoin:round;}</style>
 </defs>
 <g id="figure_1">
  <g id="patch_1">
   <path d="M 0 576 
L 1008 576 
L 1008 0 
L 0 0 
z
"/>
  </g>
  <g id="axes_1">
   <g id="patch_2">
    <path d="M 126 504 
L 907.2 504 
L 907.2 69.12 
L 126 69.12 
z
"/>
   </g>
   <g id="matplotlib.axis_1">
    <g id="xtick_1">
     <g id="line2d_1">
      <defs>
       <path d="M 0 0 
L 0 3.5 
" id="mfb555a5782" style="stroke:#ffffff;stroke-width:0.8;"/>
      </defs>
      <g>
       <use style="fill:#ffffff;stroke:#ffffff;stroke-width:0.8;" x="161.509091" xlink:href="#mfb555a5782" y="504"/>
      </g>
     </g>
     <g id="text_1">
      <!-- 0 -->
      <g style="fill:#ffffff;" transform="translate(158.327841 518.598438)scale(0.1 -0.1)">
       <defs>
        <path d="M 2034 4250 
Q 1547 4250 1301 3770 
Q 1056 3291 1056 2328 
Q 1056 1369 1301 889 
Q 1547 409 2034 409 
Q 2525 409 2770 889 
Q 3016 1369 3016 2328 
Q 3016 3291 2770 3770 
Q 2525 4250 2034 4250 
z
M 2034 4750 
Q 2819 4750 3233 4129 
Q 3647 3509 3647 2328 
Q 3647 1150 3233 529 
Q 2819 -91 2034 -91 
Q 1250 -91 836 529 
Q 422 1150 422 2328 
Q 422 3509 836 4129 
Q 1250 4750 2034 4750 
z
" id="DejaVuSans-30" transform="scale(0.015625)"/>
       </defs>
       <use xlink:href="#DejaVuSans-30"/>
      </g>
     </g>
    </g>
    <g id="xtick_2">
     <g id="line2d_2">
      <g>
       <use style="fill:#ffffff;stroke:#ffffff;stroke-width:0.8;" x="331.04402" xlink:href="#mfb555a5782" y="504"/>
      </g>
     </g>
     <g id="text_2">
      <!-- 1000 -->
      <g style="fill:#ffffff;" transform="translate(318.31902 518.598438)scale(0.1 -0.1)">
       <defs>
        <path d="M 794 531 
L 1825 531 
L 1825 4091 
L 703 3866 
L 703 4441 
L 1819 4666 
L 2450 4666 
L 2450 531 
L 3481 531 
L 3481 0 
L 794 0 
L 794 531 
z
" id="DejaVuSans-31" transform="scale(0.015625)"/>
       </defs>
       <use xlink:href="#DejaVuSans-31"/>
       <use x="63.623047" xlink:href="#DejaVuSans-30"/>
       <use x="127.246094" xlink:href="#DejaVuSans-30"/>
       <use x="190.869141" xlink:href="#DejaVuSans-30"/>
      </g>
     </g>
    </g>
    <g id="xtick_3">
     <g id="line2d_3">
      <g>
       <use style="fill:#ffffff;stroke:#ffffff;stroke-width:0.8;" x="500.578949" xlink:href="#mfb555a5782" y="504"/>
      </g>
     </g>
     <g id="text_3">
      <!-- 2000 -->
      <g style="fill:#ffffff;" transform="translate(487.853949 518.598438)scale(0.1 -0.1)">
       <defs>
        <path d="M 1228 531 
L 3431 531 
L 3431 0 
L 469 0 
L 469 531 
Q 828 903 1448 1529 
Q 2069 2156 2228 2338 
Q 2531 2678 2651 2914 
Q 2772 3150 2772 3378 
Q 2772 3750 2511 3984 
Q 2250 4219 1831 4219 
Q 1534 4219 1204 4116 
Q 875 4013 500 3803 
L 500 4441 
Q 881 4594 1212 4672 
Q 1544 4750 1819 4750 
Q 2544 4750 2975 4387 
Q 3406 4025 3406 3419 
Q 3406 3131 3298 2873 
Q 3191 2616 2906 2266 
Q 2828 2175 2409 1742 
Q 1991 1309 1228 531 
z
" id="DejaVuSans-32" transform="scale(0.015625)"/>
       </defs>
       <use xlink:href="#DejaVuSans-32"/>
       <use x="63.623047" xlink:href="#DejaVuSans-30"/>
       <use x="127.246094" xlink:href="#DejaVuSans-30"/>
       <use x="190.869141" xlink:href="#DejaVuSans-30"/>
      </g>
     </g>
    </g>
    <g id="xtick_4">
     <g id="line2d_4">
      <g>
       <use style="fill:#ffffff;stroke:#ffffff;stroke-width:0.8;" x="670.113878" xlink:href="#mfb555a5782" y="504"/>
      </g>
     </g>
     <g id="text_4">
      <!-- 3000 -->
      <g style="fill:#ffffff;" transform="translate(657.388878 518.598438)scale(0.1 -0.1)">
       <defs>
        <path d="M 2597 2516 
Q 3050 2419 3304 2112 
Q 3559 1806 3559 1356 
Q 3559 666 3084 287 
Q 2609 -91 1734 -91 
Q 1441 -91 1130 -33 
Q 819 25 488 141 
L 488 750 
Q 750 597 1062 519 
Q 1375 441 1716 441 
Q 2309 441 2620 675 
Q 2931 909 2931 1356 
Q 2931 1769 2642 2001 
Q 2353 2234 1838 2234 
L 1294 2234 
L 1294 2753 
L 1863 2753 
Q 2328 2753 2575 2939 
Q 2822 3125 2822 3475 
Q 2822 3834 2567 4026 
Q 2313 4219 1838 4219 
Q 1578 4219 1281 4162 
Q 984 4106 628 3988 
L 628 4550 
Q 988 4650 1302 4700 
Q 1616 4750 1894 4750 
Q 2613 4750 3031 4423 
Q 3450 4097 3450 3541 
Q 3450 3153 3228 2886 
Q 3006 2619 2597 2516 
z
" id="DejaVuSans-33" transform="scale(0.015625)"/>
       </defs>
       <use xlink:href="#DejaVuSans-33"/>
       <use x="63.623047" xlink:href="#DejaVuSans-30"/>
       <use x="127.246094" xlink:href="#DejaVuSans-30"/>
       <use x="190.869141" xlink:href="#DejaVuSans-30"/>
      </g>
     </g>
    </g>
    <g id="xtick_5">
     <g id="line2d_5">
      <g>
       <use style="fill:#ffffff;stroke:#ffffff;stroke-width:0.8;" x="839.648807" xlink:href="#mfb555a5782" y="504"/>
      </g>
     </g>
     <g id="text_5">
      <!-- 4000 -->
      <g style="fill:#ffffff;" transform="translate(826.923807 518.598438)scale(0.1 -0.1)">
       <defs>
        <path d="M 2419 4116 
L 825 1625 
L 2419 1625 
L 2419 4116 
z
M 2253 4666 
L 3047 4666 
L 3047 1625 
L 3713 1625 
L 3713 1100 
L 3047 1100 
L 3047 0 
L 2419 0 
L 2419 1100 
L 313 1100 
L 313 1709 
L 2253 4666 
z
" id="DejaVuSans-34" transform="scale(0.015625)"/>
       </defs>
       <use xlink:href="#DejaVuSans-34"/>
       <use x="63.623047" xlink:href="#DejaVuSans-30"/>
       <use x="127.246094" xlink:href="#DejaVuSans-30"/>
       <use x="190.869141" xlink:href="#DejaVuSans-30"/>
      </g>
     </g>
    </g>
    <g id="text_6">
     <!-- iteration -->
     <g style="fill:#ffffff;" transform="translate(495.477344 532.276562)scale(0.1 -0.1)">
      <defs>
       <path d="M 603 3500 
L 1178 3500 
L 1178 0 
L 603 0 
L 603 3500 
z
M 603 4863 
L 1178 4863 
L 1178 4134 
L 603 4134 
L 603 4863 
z
" id="DejaVuSans-69" transform="scale(0.015625)"/>
       <path d="M 1172 4494 
L 1172 3500 
L 2356 3500 
L 2356 3053 
L 1172 3053 
L 1172 1153 
Q 1172 725 1289 603 
Q 1406 481 1766 481 
L 2356 481 
L 2356 0 
L 1766 0 
Q 1100 0 847 248 
Q 594 497 594 1153 
L 594 3053 
L 172 3053 
L 172 3500 
L 594 3500 
L 594 4494 
L 1172 4494 
z
" id="DejaVuSans-74" transform="scale(0.015625)"/>
       <path d="M 3597 1894 
L 3597 1613 
L 953 1613 
Q 991 1019 1311 708 
Q 1631 397 2203 397 
Q 2534 397 2845 478 
Q 3156 559 3463 722 
L 3463 178 
Q 3153 47 2828 -22 
Q 2503 -91 2169 -91 
Q 1331 -91 842 396 
Q 353 884 353 1716 
Q 353 2575 817 3079 
Q 1281 3584 2069 3584 
Q 2775 3584 3186 3129 
Q 3597 2675 3597 1894 
z
M 3022 2063 
Q 3016 2534 2758 2815 
Q 2500 3097 2075 3097 
Q 1594 3097 1305 2825 
Q 1016 2553 972 2059 
L 3022 2063 
z
" id="DejaVuSans-65" transform="scale(0.015625)"/>
       <path d="M 2631 2963 
Q 2534 3019 2420 3045 
Q 2306 3072 2169 3072 
Q 1681 3072 1420 2755 
Q 1159 2438 1159 1844 
L 1159 0 
L 581 0 
L 581 3500 
L 1159 3500 
L 1159 2956 
Q 1341 3275 1631 3429 
Q 1922 3584 2338 3584 
Q 2397 3584 2469 3576 
Q 2541 3569 2628 3553 
L 2631 2963 
z
" id="DejaVuSans-72" transform="scale(0.015625)"/>
       <path d="M 2194 1759 
Q 1497 1759 1228 1600 
Q 959 1441 959 1056 
Q 959 750 1161 570 
Q 1363 391 1709 391 
Q 2188 391 2477 730 
Q 2766 1069 2766 1631 
L 2766 1759 
L 2194 1759 
z
M 3341 1997 
L 3341 0 
L 2766 0 
L 2766 531 
Q 2569 213 2275 61 
Q 1981 -91 1556 -91 
Q 1019 -91 701 211 
Q 384 513 384 1019 
Q 384 1609 779 1909 
Q 1175 2209 1959 2209 
L 2766 2209 
L 2766 2266 
Q 2766 2663 2505 2880 
Q 2244 3097 1772 3097 
Q 1472 3097 1187 3025 
Q 903 2953 641 2809 
L 641 3341 
Q 956 3463 1253 3523 
Q 1550 3584 1831 3584 
Q 2591 3584 2966 3190 
Q 3341 2797 3341 1997 
z
" id="DejaVuSans-61" transform="scale(0.015625)"/>
       <path d="M 1959 3097 
Q 1497 3097 1228 2736 
Q 959 2375 959 1747 
Q 959 1119 1226 758 
Q 1494 397 1959 397 
Q 2419 397 2687 759 
Q 2956 1122 2956 1747 
Q 2956 2369 2687 2733 
Q 2419 3097 1959 3097 
z
M 1959 3584 
Q 2709 3584 3137 3096 
Q 3566 2609 3566 1747 
Q 3566 888 3137 398 
Q 2709 -91 1959 -91 
Q 1206 -91 779 398 
Q 353 888 353 1747 
Q 353 2609 779 3096 
Q 1206 3584 1959 3584 
z
" id="DejaVuSans-6f" transform="scale(0.015625)"/>
       <path d="M 3513 2113 
L 3513 0 
L 2938 0 
L 2938 2094 
Q 2938 2591 2744 2837 
Q 2550 3084 2163 3084 
Q 1697 3084 1428 2787 
Q 1159 2491 1159 1978 
L 1159 0 
L 581 0 
L 581 3500 
L 1159 3500 
L 1159 2956 
Q 1366 3272 1645 3428 
Q 1925 3584 2291 3584 
Q 2894 3584 3203 3211 
Q 3513 2838 3513 2113 
z
" id="DejaVuSans-6e" transform="scale(0.015625)"/>
      </defs>
      <use xlink:href="#DejaVuSans-69"/>
      <use x="27.783203" xlink:href="#DejaVuSans-74"/>
      <use x="66.992188" xlink:href="#DejaVuSans-65"/>
      <use x="128.515625" xlink:href="#DejaVuSans-72"/>
      <use x="169.628906" xlink:href="#DejaVuSans-61"/>
      <use x="230.908203" xlink:href="#DejaVuSans-74"/>
      <use x="270.117188" xlink:href="#DejaVuSans-69"/>
      <use x="297.900391" xlink:href="#DejaVuSans-6f"/>
      <use x="359.082031" xlink:href="#DejaVuSans-6e"/>
     </g>
    </g>
   </g>
   <g id="matplotlib.axis_2">
    <g id="ytick_1">
     <g id="line2d_6">
      <defs>
       <path d="M 0 0 
L -3.5 0 
" id="md439c5acec" style="stroke:#ffffff;stroke-width:0.8;"/>
      </defs>
      <g>
       <use style="fill:#ffffff;stroke:#ffffff;stroke-width:0.8;" x="126" xlink:href="#md439c5acec" y="484.232727"/>
      </g>
     </g>
     <g id="text_7">
      <!-- 0 -->
      <g style="fill:#ffffff;" transform="translate(112.6375 488.031946)scale(0.1 -0.1)">
       <use xlink:href="#DejaVuSans-30"/>
      </g>
     </g>
    </g>
    <g id="ytick_2">
     <g id="line2d_7">
      <g>
       <use style="fill:#ffffff;stroke:#ffffff;stroke-width:0.8;" x="126" xlink:href="#md439c5acec" y="414.262557"/>
      </g>
     </g>
     <g id="text_8">
      <!-- 5000 -->
      <g style="fill:#ffffff;" transform="translate(93.55 418.061776)scale(0.1 -0.1)">
       <defs>
        <path d="M 691 4666 
L 3169 4666 
L 3169 4134 
L 1269 4134 
L 1269 2991 
Q 1406 3038 1543 3061 
Q 1681 3084 1819 3084 
Q 2600 3084 3056 2656 
Q 3513 2228 3513 1497 
Q 3513 744 3044 326 
Q 2575 -91 1722 -91 
Q 1428 -91 1123 -41 
Q 819 9 494 109 
L 494 744 
Q 775 591 1075 516 
Q 1375 441 1709 441 
Q 2250 441 2565 725 
Q 2881 1009 2881 1497 
Q 2881 1984 2565 2268 
Q 2250 2553 1709 2553 
Q 1456 2553 1204 2497 
Q 953 2441 691 2322 
L 691 4666 
z
" id="DejaVuSans-35" transform="scale(0.015625)"/>
       </defs>
       <use xlink:href="#DejaVuSans-35"/>
       <use x="63.623047" xlink:href="#DejaVuSans-30"/>
       <use x="127.246094" xlink:href="#DejaVuSans-30"/>
       <use x="190.869141" xlink:href="#DejaVuSans-30"/>
      </g>
     </g>
    </g>
    <g id="ytick_3">
     <g id="line2d_8">
      <g>
       <use style="fill:#ffffff;stroke:#ffffff;stroke-width:0.8;" x="126" xlink:href="#md439c5acec" y="344.292387"/>
      </g>
     </g>
     <g id="text_9">
      <!-- 10000 -->
      <g style="fill:#ffffff;" transform="translate(87.1875 348.091606)scale(0.1 -0.1)">
       <use xlink:href="#DejaVuSans-31"/>
       <use x="63.623047" xlink:href="#DejaVuSans-30"/>
       <use x="127.246094" xlink:href="#DejaVuSans-30"/>
       <use x="190.869141" xlink:href="#DejaVuSans-30"/>
       <use x="254.492188" xlink:href="#DejaVuSans-30"/>
      </g>
     </g>
    </g>
    <g id="ytick_4">
     <g id="line2d_9">
      <g>
       <use style="fill:#ffffff;stroke:#ffffff;stroke-width:0.8;" x="126" xlink:href="#md439c5acec" y="274.322217"/>
      </g>
     </g>
     <g id="text_10">
      <!-- 15000 -->
      <g style="fill:#ffffff;" transform="translate(87.1875 278.121436)scale(0.1 -0.1)">
       <use xlink:href="#DejaVuSans-31"/>
       <use x="63.623047" xlink:href="#DejaVuSans-35"/>
       <use x="127.246094" xlink:href="#DejaVuSans-30"/>
       <use x="190.869141" xlink:href="#DejaVuSans-30"/>
       <use x="254.492188" xlink:href="#DejaVuSans-30"/>
      </g>
     </g>
    </g>
    <g id="ytick_5">
     <g id="line2d_10">
      <g>
       <use style="fill:#ffffff;stroke:#ffffff;stroke-width:0.8;" x="126" xlink:href="#md439c5acec" y="204.352047"/>
      </g>
     </g>
     <g id="text_11">
      <!-- 20000 -->
      <g style="fill:#ffffff;" transform="translate(87.1875 208.151266)scale(0.1 -0.1)">
       <use xlink:href="#DejaVuSans-32"/>
       <use x="63.623047" xlink:href="#DejaVuSans-30"/>
       <use x="127.246094" xlink:href="#DejaVuSans-30"/>
       <use x="190.869141" xlink:href="#DejaVuSans-30"/>
       <use x="254.492188" xlink:href="#DejaVuSans-30"/>
      </g>
     </g>
    </g>
    <g id="ytick_6">
     <g id="line2d_11">
      <g>
       <use style="fill:#ffffff;stroke:#ffffff;stroke-width:0.8;" x="126" xlink:href="#md439c5acec" y="134.381877"/>
      </g>
     </g>
     <g id="text_12">
      <!-- 25000 -->
      <g style="fill:#ffffff;" transform="translate(87.1875 138.181096)scale(0.1 -0.1)">
       <use xlink:href="#DejaVuSans-32"/>
       <use x="63.623047" xlink:href="#DejaVuSans-35"/>
       <use x="127.246094" xlink:href="#DejaVuSans-30"/>
       <use x="190.869141" xlink:href="#DejaVuSans-30"/>
       <use x="254.492188" xlink:href="#DejaVuSans-30"/>
      </g>
     </g>
    </g>
   </g>
   <g id="line2d_12">
    <path clip-path="url(#pda081b9608)" d="M 161.509091 215.309376 
L 161.848161 246.054269 
L 162.017696 239.197192 
L 162.187231 226.336675 
L 162.5263 269.326347 
L 162.695835 251.847799 
L 162.86537 282.340799 
L 163.034905 271.817285 
L 163.20444 275.413752 
L 163.373975 308.98544 
L 163.54351 314.135244 
L 163.713045 324.644764 
L 163.88258 361.19718 
L 164.052115 361.19718 
L 164.22165 355.179746 
L 164.56072 307.949881 
L 164.899789 339.240541 
L 165.069324 333.768874 
L 165.238859 316.528224 
L 165.408394 315.226779 
L 165.747464 268.220819 
L 165.916999 285.461468 
L 166.086534 286.762914 
L 166.425604 259.222655 
L 166.764674 283.068489 
L 166.934209 297.440362 
L 167.103744 287.532585 
L 167.442813 328.213242 
L 167.612348 319.257061 
L 167.781883 300.966858 
L 167.951418 315.632606 
L 168.120953 314.471101 
L 168.290488 303.40182 
L 168.460023 353.388509 
L 168.629558 352.087064 
L 168.799093 345.705785 
L 168.968628 332.117578 
L 169.477233 394.992773 
L 169.816302 362.848476 
L 169.985837 375.023286 
L 170.324907 348.280687 
L 170.494442 349.442192 
L 170.833512 314.149238 
L 171.003047 312.847793 
L 171.511652 367.284585 
L 171.681187 360.413515 
L 171.850722 347.552997 
L 172.020257 314.91891 
L 172.189791 309.615171 
L 172.359326 327.09372 
L 172.528861 325.792274 
L 172.698396 308.873487 
L 172.867931 336.441734 
L 173.037466 324.672752 
L 173.376536 365.003558 
L 173.546071 348.728496 
L 173.715606 315.870504 
L 173.885141 332.145566 
L 174.054676 326.673899 
L 174.56328 274.182277 
L 174.732815 267.800997 
L 175.071885 314.317167 
L 175.24142 299.399526 
L 175.410955 314.317167 
L 175.58049 303.793653 
L 175.750025 302.632148 
L 175.91956 315.170803 
L 176.089095 284.677802 
L 176.428165 318.31946 
L 176.5977 319.480965 
L 176.767235 304.815217 
L 176.936769 320.530518 
L 177.106304 303.289868 
L 177.275839 304.591313 
L 177.614909 257.361448 
L 177.953979 312.581906 
L 178.123514 300.351121 
L 178.293049 299.049675 
L 178.462584 313.421548 
L 178.632119 346.27954 
L 178.801654 352.646826 
L 178.971189 367.312573 
L 179.140724 350.071923 
L 179.310258 350.071923 
L 179.649328 330.550246 
L 179.818863 330.550246 
L 179.988398 297.692254 
L 180.327468 280.339652 
L 180.497003 313.631459 
L 180.666538 312.330014 
L 180.836073 341.703491 
L 181.175143 310.580759 
L 181.344678 281.207282 
L 181.514213 293.424074 
L 181.683747 326.058161 
L 181.853282 301.456649 
L 182.022817 327.219666 
L 182.192352 318.263484 
L 182.361887 327.219666 
L 182.531422 326.058161 
L 182.700957 344.348363 
L 183.040027 319.313037 
L 183.209562 336.553687 
L 183.548632 319.872798 
L 183.718167 325.680322 
L 183.887702 343.550704 
L 184.226771 258.564935 
L 184.396306 265.436006 
L 184.735376 317.213932 
L 184.904911 304.395396 
L 185.074446 282.312811 
L 185.413516 322.027879 
L 185.583051 322.041873 
L 185.752586 309.811088 
L 185.922121 324.728728 
L 186.091656 306.87234 
L 186.261191 349.945977 
L 186.430725 343.074906 
L 186.60026 355.305692 
L 186.769795 355.291698 
L 187.108865 316.220355 
L 187.2784 316.220355 
L 187.447935 328.75901 
L 187.61747 350.841595 
L 187.787005 336.175848 
L 187.95654 334.874402 
L 188.126075 343.830584 
L 188.29561 313.337584 
L 188.465145 328.255224 
L 188.63468 319.299043 
L 188.804215 289.925565 
L 188.973749 291.22701 
L 189.143284 334.188695 
L 189.312819 331.249948 
L 189.482354 355.949418 
L 189.651889 356.27128 
L 189.821424 343.410763 
L 189.990959 342.753044 
L 190.160494 355.459626 
L 190.330029 340.541986 
L 190.499564 343.130883 
L 190.669099 320.656464 
L 190.838634 337.029484 
L 191.008169 333.544969 
L 191.347238 307.278167 
L 191.516773 337.393329 
L 191.686308 336.105877 
L 191.855843 329.724598 
L 192.025378 343.60668 
L 192.194913 344.908125 
L 192.364448 338.037054 
L 192.533983 343.508721 
L 192.703518 326.268072 
L 192.873053 326.254078 
L 193.212123 355.669537 
L 193.381658 354.368092 
L 193.720727 319.075138 
L 193.890262 344.838155 
L 194.059797 339.68835 
L 194.229332 361.770936 
L 194.398867 362.932441 
L 194.568402 395.566528 
L 194.907472 363.170339 
L 195.077007 370.04141 
L 195.246542 387.519958 
L 195.585612 349.987959 
L 195.755147 375.750976 
L 195.924682 380.90078 
L 196.094216 368.669995 
L 196.263751 335.098307 
L 196.433286 344.054489 
L 196.602821 329.682616 
L 196.941891 385.728722 
L 197.111426 356.355245 
L 197.280961 362.988417 
L 197.450496 349.106335 
L 197.620031 349.106335 
L 197.789566 342.725056 
L 197.959101 342.725056 
L 198.298171 396.770015 
L 198.63724 372.490366 
L 198.806775 367.340561 
L 198.97631 372.490366 
L 199.145845 358.314409 
L 199.484915 387.561941 
L 199.823985 426.927158 
L 199.99352 414.066641 
L 200.33259 376.128815 
L 200.502125 370.013422 
L 200.67166 371.314867 
L 200.841194 359.545884 
L 201.010729 356.649119 
L 201.180264 339.408469 
L 201.349799 354.074217 
L 201.519334 379.837234 
L 201.688869 378.535789 
L 201.858404 373.385984 
L 202.027939 387.268066 
L 202.197474 362.568596 
L 202.367009 377.486236 
L 202.536544 372.014569 
L 202.706079 360.245586 
L 202.875614 338.163 
L 203.045149 351.023518 
L 203.214683 342.067336 
L 203.384218 347.21714 
L 203.723288 297.440362 
L 203.892823 282.158876 
L 204.062358 291.115058 
L 204.570963 352.982682 
L 204.910033 327.933362 
L 205.079568 333.880826 
L 205.249103 367.452514 
L 205.418638 368.753959 
L 205.757707 306.746394 
L 205.927242 348.770478 
L 206.096777 361.001264 
L 206.435847 336.371764 
L 206.605382 336.385758 
L 206.944452 291.520885 
L 207.113987 347.049212 
L 207.283522 313.477524 
L 207.453057 311.168509 
L 207.622592 340.541986 
L 207.961661 314.890922 
L 208.131196 316.052427 
L 208.470266 275.385764 
L 208.639801 292.864312 
L 208.978871 343.67665 
L 209.148406 357.558732 
L 209.317941 340.639944 
L 209.487476 357.558732 
L 210.165616 278.828296 
L 210.335151 284.299964 
L 210.504685 269.928091 
L 210.67422 272.419029 
L 210.843755 255.178379 
L 211.182825 297.734236 
L 211.35236 282.816596 
L 211.521895 258.117126 
L 211.860965 291.9547 
L 212.200035 303.807647 
L 212.539105 348.644532 
L 212.70864 360.875318 
L 212.878174 360.861324 
L 213.047709 358.860177 
L 213.217244 344.194429 
L 213.386779 385.210943 
L 213.725849 327.23366 
L 213.895384 339.002643 
L 214.403989 283.782184 
L 214.573524 291.059082 
L 214.743059 303.877617 
L 214.912594 286.399069 
L 215.251663 321.020309 
L 215.421198 290.527309 
L 215.590733 286.594985 
L 215.760268 302.870047 
L 215.929803 295.998976 
L 216.099338 302.870047 
L 216.268873 302.856053 
L 216.777478 383.979468 
L 217.286083 315.660594 
L 217.455618 322.881515 
L 217.625152 345.355934 
L 217.794687 323.273348 
L 217.964222 335.504134 
L 218.303292 292.948277 
L 218.472827 318.711293 
L 218.642362 292.948277 
L 218.811897 299.329556 
L 218.981432 311.812234 
L 219.490037 275.049907 
L 219.659572 278.338505 
L 219.998641 230.045094 
L 220.168176 235.194898 
L 220.337711 228.813619 
L 220.507246 246.054269 
L 220.676781 220.291252 
L 221.015851 246.893911 
L 221.185386 367.340561 
L 221.354921 361.868894 
L 221.524456 368.390114 
L 221.693991 380.606906 
L 222.033061 337.365341 
L 222.202596 324.504823 
L 222.541665 347.203146 
L 223.05027 297.482344 
L 223.219805 331.054031 
L 223.38934 242.317862 
L 223.558875 268.906526 
L 223.72841 243.157504 
L 223.897945 267.856974 
L 224.237015 248.013433 
L 224.40655 278.506434 
L 224.576085 276.799161 
L 224.915154 292.794342 
L 225.084689 268.094872 
L 225.254224 269.396317 
L 225.593294 228.631696 
L 225.762829 234.691113 
L 225.932364 225.427063 
L 226.101899 239.309144 
L 226.440969 209.893685 
L 226.610504 231.97627 
L 226.949574 213.923967 
L 227.119108 245.102674 
L 227.288643 226.812472 
L 227.458178 260.608064 
L 227.627713 254.226785 
L 227.797248 257.599347 
L 227.966783 290.891154 
L 228.136318 289.729649 
L 228.305853 284.579844 
L 228.475388 283.222423 
L 228.644923 316.794111 
L 228.814458 283.222423 
L 228.983993 283.208429 
L 229.153528 327.793421 
L 229.323063 328.954926 
L 229.492597 312.036139 
L 229.662132 324.210949 
L 230.170737 280.535568 
L 230.340272 309.909046 
L 230.679342 277.24697 
L 230.848877 283.62825 
L 231.018412 319.04715 
L 231.187947 319.04715 
L 231.696552 354.550014 
L 231.866087 344.026501 
L 232.035621 368.725971 
L 232.374691 337.603239 
L 232.544226 338.904684 
L 232.713761 261.25179 
L 232.883296 242.961587 
L 233.052831 275.819579 
L 233.222366 281.934972 
L 233.561436 327.09372 
L 233.730971 321.622052 
L 234.070041 377.374284 
L 234.578645 337.589245 
L 234.74818 311.826228 
L 235.256785 359.657837 
L 235.934925 285.391498 
L 236.273995 304.591313 
L 236.44353 271.299506 
L 236.782599 301.94644 
L 236.952134 335.518128 
L 237.121669 302.884041 
L 237.291204 324.966626 
L 237.630274 296.922582 
L 237.799809 308.691565 
L 237.969344 286.608979 
L 238.138879 289.981541 
L 238.308414 307.222191 
L 238.477949 289.981541 
L 238.647484 259.488541 
L 238.986554 328.745016 
L 239.156088 323.273348 
L 239.325623 308.901475 
L 239.495158 311.756258 
L 239.834228 264.022608 
L 240.003763 278.366493 
L 240.173298 349.862013 
L 240.342833 355.011817 
L 240.512368 368.893899 
L 240.681903 393.593369 
L 240.851438 394.754874 
L 241.190508 369.075822 
L 241.360043 346.993236 
L 241.529577 362.386673 
L 241.699112 362.386673 
L 241.868647 359.643843 
L 242.038182 359.643843 
L 242.377252 314.792964 
L 242.546787 314.792964 
L 242.716322 284.299964 
L 243.055392 372.616312 
L 243.394462 400.814291 
L 243.563997 386.442418 
L 243.733532 353.584426 
L 243.903066 344.628244 
L 244.072601 350.099911 
L 244.242136 382.957903 
L 244.411671 382.971897 
L 244.750741 345.831731 
L 245.089811 309.111386 
L 245.259346 284.411916 
L 245.598416 318.095556 
L 245.767951 311.224485 
L 246.107021 339.730332 
L 246.276555 338.568827 
L 246.615625 361.896882 
L 246.954695 331.22196 
L 247.12423 395.790433 
L 247.293765 405.642232 
L 247.4633 383.167814 
L 247.632835 231.822336 
L 247.80237 248.097398 
L 247.971905 239.141216 
L 248.14144 249.650735 
L 248.310975 249.650735 
L 248.650044 304.745247 
L 248.819579 282.270829 
L 248.989114 276.799161 
L 249.158649 265.645916 
L 249.328184 290.345386 
L 249.497719 275.973513 
L 249.836789 301.092804 
L 250.175859 254.590629 
L 250.514929 280.787461 
L 250.684464 279.486016 
L 250.853999 262.931074 
L 251.023533 261.895515 
L 251.193068 272.363053 
L 251.362603 255.122403 
L 251.701673 303.359838 
L 252.040743 282.634674 
L 252.379813 337.631227 
L 252.549348 304.773235 
L 252.718883 302.282297 
L 252.888418 307.753965 
L 253.227488 292.416503 
L 253.397023 286.944836 
L 253.566557 301.862476 
L 253.905627 257.809257 
L 254.075162 250.280467 
L 254.414232 299.609437 
L 254.583767 292.738366 
L 254.753302 293.899871 
L 254.922837 263.406871 
L 255.092372 262.245366 
L 255.261907 280.535568 
L 255.431442 270.012055 
L 255.770512 308.705559 
L 255.940046 293.270139 
L 256.448651 337.365341 
L 256.618186 341.465592 
L 256.787721 329.69661 
L 256.957256 341.465592 
L 257.126791 319.383007 
L 257.296326 345.943683 
L 257.465861 328.465135 
L 257.804931 362.72253 
L 257.974466 330.088443 
L 258.144001 330.074449 
L 258.313535 307.60003 
L 258.48307 347.091194 
L 258.82214 283.754196 
L 259.16121 334.874402 
L 259.330745 352.352951 
L 259.669815 317.018015 
L 259.83935 329.248801 
L 260.17842 278.436463 
L 260.347955 300.910882 
L 260.51749 286.539009 
L 260.856559 328.577087 
L 261.026094 318.053574 
L 261.195629 300.575025 
L 261.365164 267.717033 
L 261.534699 260.845963 
L 261.873769 285.475462 
L 262.212839 237.62986 
L 262.382374 230.296986 
L 262.551909 239.197192 
L 262.721444 216.722773 
L 262.890979 265.296065 
L 263.060513 264.358465 
L 263.230048 258.886798 
L 263.399583 264.358465 
L 263.569118 264.06459 
L 263.738653 280.15773 
L 264.077723 239.645001 
L 264.247258 225.189164 
L 264.586328 248.811093 
L 264.755863 241.940023 
L 264.925398 365.395391 
L 265.434002 413.031082 
L 265.603537 395.174695 
L 265.773072 288.288263 
L 265.942607 334.090737 
L 266.112142 323.567223 
L 266.281677 323.567223 
L 266.451212 334.090737 
L 266.620747 325.134555 
L 266.790282 342.375205 
L 266.959817 375.946892 
L 267.129352 375.946892 
L 267.298887 405.32037 
L 267.637957 350.183876 
L 267.977026 403.753038 
L 268.146561 385.462835 
L 268.316096 403.753038 
L 268.485631 398.281371 
L 268.655166 364.989564 
L 268.824701 366.137074 
L 268.994236 357.180893 
L 269.163771 367.704406 
L 269.333306 367.704406 
L 269.502841 382.370154 
L 269.672376 375.499083 
L 269.841911 388.3596 
L 270.18098 340.41604 
L 270.350515 339.114595 
L 270.689585 385.224937 
L 270.85912 352.59085 
L 271.028655 361.547031 
L 271.53726 281.515151 
L 271.706795 276.365346 
L 271.87633 276.925108 
L 272.045865 259.684458 
L 272.2154 293.200169 
L 272.384935 294.501614 
L 272.554469 277.023066 
L 272.724004 304.703265 
L 273.063074 246.711988 
L 273.232609 259.026738 
L 273.402144 261.041879 
L 273.571679 261.041879 
L 273.741214 260.45413 
L 273.910749 237.979711 
L 274.080284 271.271518 
L 274.249819 240.778518 
L 274.419354 253.597053 
L 274.758424 221.452757 
L 274.927959 273.412605 
L 275.097493 261.643623 
L 275.436563 275.679639 
L 275.775633 230.408939 
L 276.114703 248.097398 
L 276.284238 248.097398 
L 276.453773 241.226327 
L 276.792843 283.670232 
L 276.962378 257.907215 
L 277.131913 291.478903 
L 277.301448 292.640408 
L 277.640517 263.602787 
L 277.810052 277.97466 
L 278.149122 253.247202 
L 278.318657 271.10359 
L 278.488192 256.731717 
L 278.657727 269.550252 
L 278.827262 263.168972 
L 278.996797 238.469502 
L 279.166332 237.307997 
L 279.335867 251.973745 
L 279.505402 239.742959 
L 279.674937 246.124239 
L 279.844471 247.285744 
L 280.014006 217.590403 
L 280.183541 213.937961 
L 280.353076 246.795952 
L 280.522611 230.702813 
L 280.692146 263.336901 
L 280.861681 256.955621 
L 281.200751 279.178147 
L 281.539821 305.86477 
L 281.709356 305.850776 
L 281.878891 291.185028 
L 282.048426 297.566308 
L 282.21796 318.31946 
L 282.387495 250.60233 
L 282.726565 296.894594 
L 283.065635 255.430271 
L 283.23517 288.722078 
L 283.404705 295.103358 
L 283.57424 296.404803 
L 283.91331 237.070099 
L 284.082845 254.310749 
L 284.421915 312.693859 
L 284.591449 324.868668 
L 285.100054 271.24353 
L 285.269589 269.550252 
L 285.439124 286.427057 
L 285.608659 268.976496 
L 285.778194 299.469496 
L 285.947729 290.513315 
L 286.117264 311.630312 
L 286.286799 278.77232 
L 286.456334 289.085923 
L 286.625869 289.099917 
L 286.795404 276.2394 
L 286.964938 289.099917 
L 287.473543 235.16691 
L 287.643078 257.249496 
L 287.812613 234.775077 
L 287.982148 249.440825 
L 288.151683 244.29102 
L 288.321218 229.625273 
L 288.660288 301.232745 
L 288.829823 279.150159 
L 288.999358 288.344239 
L 289.168893 304.213474 
L 289.338427 339.730332 
L 289.677497 294.20774 
L 289.847032 293.060229 
L 290.016567 311.350431 
L 290.186102 293.060229 
L 290.355637 325.918221 
L 290.694707 277.10703 
L 290.864242 281.501157 
L 291.203312 263.490835 
L 291.372847 267.367182 
L 291.542382 324.280919 
L 291.881451 329.752586 
L 292.220521 271.481428 
L 292.559591 258.494965 
L 292.729126 260.118273 
L 293.068196 234.08937 
L 293.237731 283.474316 
L 293.576801 320.320607 
L 293.746336 290.625267 
L 293.915871 303.443802 
L 294.085405 333.936802 
L 294.25494 324.98062 
L 294.424475 338.862702 
L 294.763545 329.150843 
L 294.93308 314.485095 
L 295.102615 309.489225 
L 295.27215 296.628708 
L 295.441685 311.546348 
L 295.61122 281.053348 
L 295.95029 329.290783 
L 296.28936 311.896199 
L 296.458895 341.269676 
L 296.628429 328.451141 
L 296.797964 299.077663 
L 296.967499 324.84068 
L 297.306569 298.699825 
L 297.476104 311.51836 
L 297.984709 282.1029 
L 298.154244 276.953096 
L 298.323779 289.407786 
L 298.493314 274.014349 
L 298.662849 285.783331 
L 299.001918 243.563331 
L 299.171453 240.876476 
L 299.340988 215.113459 
L 300.019128 317.115973 
L 300.358198 250.252479 
L 300.527733 261.265784 
L 300.697268 244.346996 
L 300.866803 260.678034 
L 301.036338 227.820042 
L 301.205873 243.101527 
L 301.375407 230.24101 
L 301.544942 256.087991 
L 301.714477 261.237796 
L 301.884012 283.712214 
L 302.053547 276.2394 
L 302.223082 274.937955 
L 302.392617 274.951949 
L 302.562152 289.869589 
L 302.731687 283.48831 
L 302.901222 271.3135 
L 303.070757 272.614945 
L 303.240292 258.243072 
L 303.579362 215.687215 
L 303.748896 222.558286 
L 303.918431 235.418803 
L 304.087966 261.181819 
L 304.427036 218.863861 
L 304.596571 211.99279 
L 304.766106 178.421102 
L 304.935641 211.05519 
L 305.105176 209.753744 
L 305.274711 216.135024 
L 305.783316 256.213937 
L 305.952851 257.515382 
L 306.122385 227.820042 
L 306.29192 298.741807 
L 306.461455 291.870736 
L 306.63099 293.382092 
L 306.800525 314.750982 
L 306.97006 307.879911 
L 307.139595 333.642927 
L 307.30913 323.119414 
L 307.478665 320.726434 
L 307.6482 320.726434 
L 307.817735 332.95722 
L 307.98727 318.585347 
L 308.156805 343.284817 
L 308.32634 331.054031 
L 308.495874 363.912023 
L 308.665409 346.993236 
L 309.004479 366.095092 
L 309.343549 310.048986 
L 309.682619 352.996677 
L 309.852154 355.249716 
L 310.021689 340.877843 
L 310.191224 268.220819 
L 310.360759 268.220819 
L 310.530294 313.813381 
L 310.699829 289.911571 
L 310.869363 308.201774 
L 311.038898 290.961124 
L 311.208433 261.265784 
L 311.377968 265.310059 
L 311.547503 279.178147 
L 311.717038 282.452751 
L 311.886573 299.693401 
L 312.056108 294.543596 
L 312.395178 268.808568 
L 312.564713 268.822562 
L 312.734248 254.450689 
L 312.903783 259.600494 
L 313.242852 322.951486 
L 313.412387 289.379798 
L 313.581922 288.218293 
L 313.751457 247.425684 
L 313.920992 241.044404 
L 314.090527 289.911571 
L 314.260062 275.539698 
L 314.429597 279.975807 
L 314.768667 320.656464 
L 314.938202 298.182045 
L 315.277272 330.410306 
L 315.616342 279.947819 
L 315.785876 274.476152 
L 315.955411 280.857431 
L 316.124946 298.098081 
L 316.294481 280.857431 
L 316.464016 286.007236 
L 316.633551 285.993242 
L 316.803086 304.283444 
L 316.972621 304.297438 
L 317.311691 354.759925 
L 317.650761 324.294913 
L 317.989831 364.009981 
L 318.159365 370.881052 
L 318.3289 365.731247 
L 318.66797 328.339189 
L 319.00704 365.731247 
L 319.176575 336.035907 
L 319.34611 326.589934 
L 319.68518 265.701892 
L 319.854715 278.646374 
L 320.02425 265.925797 
L 320.193785 265.925797 
L 320.36332 248.685147 
L 320.532854 255.556218 
L 320.702389 255.556218 
L 320.871924 248.685147 
L 321.210994 280.255688 
L 321.380529 313.547495 
L 321.550064 312.246049 
L 321.719599 319.11712 
L 321.889134 349.064353 
L 322.397739 267.241236 
L 322.567274 299.875323 
L 322.736809 291.352957 
L 322.906343 276.981084 
L 323.245413 307.725977 
L 323.414948 307.739971 
L 323.584483 285.265552 
L 323.754018 280.115747 
L 323.923553 250.420407 
L 324.093088 274.392188 
L 324.262623 280.479592 
L 324.432158 299.553461 
L 324.601693 302.352267 
L 324.940763 280.031783 
L 325.279832 317.185943 
L 325.449367 297.958141 
L 325.618902 330.592228 
L 325.788437 313.351578 
L 325.957972 282.858578 
L 326.127507 294.627561 
L 326.297042 261.055873 
L 326.466577 265.981773 
L 326.805647 256.913639 
L 326.975182 277.820726 
L 327.144717 277.83472 
L 327.314252 286.790902 
L 327.653321 319.089132 
L 327.992391 277.624809 
L 328.161926 295.915012 
L 328.331461 277.624809 
L 328.500996 314.820952 
L 328.670531 321.692022 
L 328.840066 292.010676 
L 329.009601 292.010676 
L 329.348671 346.405486 
L 329.687741 322.783557 
L 329.857276 327.44357 
L 330.02681 328.605075 
L 330.196345 314.722994 
L 330.36588 327.583511 
L 330.535415 297.090511 
L 330.70495 301.372685 
L 330.874485 302.67413 
L 331.38309 267.143278 
L 331.72216 249.538783 
L 331.891695 254.688588 
L 332.06123 224.195588 
L 332.230765 224.195588 
L 332.400299 253.555071 
L 332.569834 234.901024 
L 332.739369 247.075833 
L 332.908904 234.845047 
L 333.078439 252.323596 
L 333.247974 285.895283 
L 333.587044 262.553235 
L 333.926114 305.906752 
L 334.095649 272.614945 
L 334.265184 300.435085 
L 334.434719 294.053805 
L 334.604254 323.749145 
L 334.773788 305.892758 
L 334.943323 335.294223 
L 335.112858 320.05472 
L 335.282393 320.068714 
L 335.621463 274.616092 
L 335.790998 280.997372 
L 335.960533 267.269224 
L 336.130068 279.038207 
L 336.299603 267.269224 
L 336.469138 285.125612 
L 336.808208 237.461932 
L 337.147278 279.50001 
L 337.316812 350.183876 
L 337.486347 343.802596 
L 337.655882 326.785851 
L 337.825417 293.214163 
L 337.994952 341.563551 
L 338.164487 336.413746 
L 338.334022 348.588556 
L 338.673092 306.998287 
L 338.842627 324.756716 
L 339.012162 315.800534 
L 339.181697 315.366719 
L 339.351232 308.495648 
L 339.520767 308.509642 
L 339.690301 296.278857 
L 339.859836 296.278857 
L 340.029371 305.500925 
L 340.198906 291.982688 
L 340.368441 291.982688 
L 340.537976 319.858804 
L 341.046581 285.713361 
L 341.216116 335.168277 
L 341.385651 328.297206 
L 341.555186 295.663119 
L 341.724721 306.466513 
L 341.894256 307.767959 
L 342.06379 330.242377 
L 342.233325 316.360295 
L 342.40286 260.328183 
L 342.572395 272.502993 
L 342.74193 267.031326 
L 342.911465 254.21279 
L 343.081 255.570212 
L 343.250535 277.652797 
L 343.42007 358.552308 
L 343.589605 336.077889 
L 343.75914 336.077889 
L 343.928675 333.041184 
L 344.09821 336.637651 
L 344.267745 359.112069 
L 344.437279 334.412599 
L 344.606814 333.111154 
L 344.776349 252.981315 
L 344.945884 237.168057 
L 345.115419 253.681017 
L 345.284954 244.724835 
L 345.454489 251.106115 
L 345.624024 296.600719 
L 345.793559 284.831737 
L 346.132629 326.715881 
L 346.302164 338.89069 
L 346.471699 311.364425 
L 346.641234 325.736298 
L 346.980303 267.339194 
L 347.149838 250.098544 
L 347.319373 293.605996 
L 347.488908 263.112996 
L 347.827978 283.866149 
L 347.997513 285.167594 
L 348.167048 318.739281 
L 348.336583 327.695463 
L 348.506118 310.454813 
L 348.675653 315.604618 
L 349.014723 361.323127 
L 349.184257 354.452056 
L 349.353792 342.277246 
L 349.523327 355.095782 
L 349.692862 259.278631 
L 349.862397 255.794116 
L 350.031932 222.502309 
L 350.201467 223.146035 
L 350.371002 241.002422 
L 350.540537 228.141905 
L 350.710072 228.141905 
L 350.879607 214.259823 
L 351.049142 231.17861 
L 351.218677 198.544523 
L 351.388212 193.072856 
L 351.557746 159.501168 
L 351.727281 193.072856 
L 351.896816 175.832206 
L 352.066351 193.072856 
L 352.235886 226.364663 
L 352.405421 219.493592 
L 352.574956 186.201785 
L 352.914026 214.399764 
L 353.083561 276.351352 
L 353.592166 320.152679 
L 353.761701 294.389662 
L 353.931235 293.088217 
L 354.10077 286.706937 
L 354.43984 315.800534 
L 354.609375 310.65073 
L 354.77891 293.172181 
L 354.948445 325.806268 
L 355.11798 313.575483 
L 355.45705 257.921209 
L 355.79612 289.309828 
L 355.965655 287.868442 
L 356.13519 275.007925 
L 356.304724 272.069178 
L 356.643794 308.439672 
L 356.813329 291.520885 
L 356.982864 291.520885 
L 357.321934 330.032467 
L 357.830539 257.879227 
L 358.000074 263.029032 
L 358.339144 293.186175 
L 358.508679 281.011366 
L 358.678214 279.849861 
L 358.847748 308.32772 
L 359.017283 301.94644 
L 359.186818 269.088449 
L 359.356353 263.938644 
L 359.525888 319.690876 
L 359.695423 331.865685 
L 359.864958 361.239163 
L 360.204028 309.391267 
L 360.373563 331.865685 
L 360.543098 313.575483 
L 360.712633 346.433475 
L 360.882168 340.234117 
L 361.051703 364.933588 
L 361.221237 358.062517 
L 361.390772 378.479812 
L 361.560307 384.595205 
L 361.729842 378.213926 
L 361.899377 361.896882 
L 362.068912 374.071692 
L 362.238447 351.597273 
L 362.407982 369.453661 
L 362.577517 368.292156 
L 362.747052 353.626408 
L 362.916587 275.119877 
L 363.086122 275.119877 
L 363.425192 257.753281 
L 363.594726 276.043484 
L 363.764261 308.677571 
L 364.103331 277.568833 
L 364.272866 294.809483 
L 364.442401 300.295144 
L 364.611936 312.469954 
L 364.781471 300.295144 
L 364.951006 318.571353 
L 365.120541 320.222649 
L 365.290076 297.74823 
L 365.459611 308.271744 
L 365.629146 332.971214 
L 365.798681 315.492665 
L 366.307285 379.501377 
L 366.47682 374.02971 
L 366.985425 283.83816 
L 367.15496 309.601177 
L 367.49403 286.217146 
L 367.663565 344.432328 
L 367.8331 319.732858 
L 368.002635 344.432328 
L 368.17217 340.835861 
L 368.341704 360.273574 
L 368.511239 353.892295 
L 368.680774 355.039805 
L 368.850309 361.421085 
L 369.019844 347.427051 
L 369.189379 364.415808 
L 369.358914 358.034529 
L 369.697984 301.988423 
L 369.867519 354.53602 
L 370.206589 288.973971 
L 370.376124 326.114137 
L 370.545659 313.25362 
L 370.884728 345.202 
L 371.054263 378.773687 
L 371.223798 373.623883 
L 371.393333 388.541523 
L 371.562868 363.632142 
L 371.732403 375.806952 
L 372.071473 316.752128 
L 372.241008 343.172865 
L 372.749613 314.681011 
L 372.919148 316.052427 
L 373.258217 345.761761 
L 373.427752 375.135238 
L 373.597287 369.663571 
L 373.936357 333.516981 
L 374.105892 332.355476 
L 374.444962 314.275184 
L 374.614497 354.508032 
L 374.784032 358.482338 
L 374.953567 365.353409 
L 375.123102 334.860408 
L 375.292637 272.656927 
L 375.462171 263.700746 
L 375.631706 297.272433 
L 375.801241 299.609437 
L 375.970776 329.304777 
L 376.140311 296.446785 
L 376.309846 296.446785 
L 376.479381 279.527998 
L 376.818451 345.020077 
L 376.987986 353.220581 
L 377.157521 328.521111 
L 377.327056 328.521111 
L 377.666126 285.167594 
L 378.005195 326.785851 
L 378.344265 276.449311 
L 378.683335 298.937723 
L 378.85287 298.937723 
L 379.19194 326.701887 
L 379.361475 340.583968 
L 379.53101 307.292161 
L 379.700545 322.209802 
L 380.039615 290.051512 
L 380.20915 256.479824 
L 380.378684 256.046009 
L 380.717754 245.424537 
L 380.887289 259.79641 
L 381.056824 252.925339 
L 381.226359 251.120109 
L 381.395894 258.620911 
L 381.565429 256.913639 
L 381.734964 262.385306 
L 381.904499 244.906758 
L 382.243569 253.233208 
L 382.582639 226.000818 
L 382.752173 238.861335 
L 382.921708 226.9804 
L 383.091243 260.272207 
L 383.260778 226.9804 
L 383.430313 244.836788 
L 383.599848 222.362369 
L 383.769383 248.125386 
L 383.938918 239.169204 
L 384.108453 248.125386 
L 384.447523 232.787924 
L 384.617058 222.264411 
L 384.956128 274.252247 
L 385.125662 248.489231 
L 385.295197 262.861103 
L 385.464732 295.621137 
L 385.634267 295.621137 
L 385.973337 331.907667 
L 386.142872 337.057472 
L 386.312407 354.298122 
L 386.481942 337.379335 
L 386.651477 331.907667 
L 386.990547 299.721389 
L 387.160082 303.695695 
L 387.329617 285.069635 
L 387.499151 279.919831 
L 387.668686 280.381634 
L 387.838221 249.888634 
L 388.007756 267.017332 
L 388.177291 272.796868 
L 388.346826 271.495422 
L 388.516361 263.350895 
L 388.685896 281.641097 
L 388.855431 276.491293 
L 389.024966 265.967779 
L 389.364036 294.27771 
L 389.703106 314.093262 
L 389.87264 297.8182 
L 390.042175 330.452288 
L 390.21171 321.496106 
L 390.381245 332.95722 
L 390.55078 316.038433 
L 390.88985 369.859487 
L 391.059385 345.160017 
L 391.22892 338.778738 
L 391.398455 324.91065 
L 391.56799 292.052658 
L 391.737525 317.815675 
L 391.90706 310.944604 
L 392.415664 264.736304 
L 392.924269 322.391724 
L 393.093804 296.628708 
L 393.263339 303.009987 
L 393.432874 349.106335 
L 393.602409 345.509868 
L 393.771944 346.671373 
L 393.941479 321.971903 
L 394.111014 316.500236 
L 394.280549 300.225174 
L 394.450084 323.623199 
L 394.619618 309.251326 
L 394.789153 319.77484 
L 394.958688 289.28184 
L 395.128223 293.787919 
L 395.297758 310.342861 
L 395.467293 310.342861 
L 395.806363 333.670916 
L 396.145433 281.82302 
L 396.314968 299.301568 
L 396.484503 295.201316 
L 396.654038 306.410537 
L 396.993107 272.027196 
L 397.162642 283.180441 
L 397.332177 313.673441 
L 397.501712 296.432791 
L 397.840782 321.58007 
L 398.010317 334.398605 
L 398.179852 312.987733 
L 398.349387 321.943915 
L 398.518922 307.278167 
L 398.688457 303.681701 
L 398.857992 326.463988 
L 399.027527 327.121708 
L 399.197062 373.749829 
L 399.536131 393.481417 
L 399.705666 389.381165 
L 399.875201 359.685825 
L 400.044736 370.489219 
L 400.383806 343.256829 
L 400.892411 268.626645 
L 401.231481 257.879227 
L 401.401016 291.450915 
L 401.570551 266.751445 
L 401.740086 300.043252 
L 401.90962 262.791133 
L 402.24869 324.798698 
L 402.418225 300.099228 
L 402.58776 322.181814 
L 402.757295 315.310743 
L 402.92683 282.676656 
L 403.096365 287.82646 
L 403.2659 347.049212 
L 403.60497 373.651871 
L 403.774505 373.637877 
L 403.94404 345.104041 
L 404.113575 362.344691 
L 404.283109 325.56837 
L 404.452644 371.748682 
L 404.622179 239.980858 
L 404.791714 243.633301 
L 404.961249 276.267388 
L 405.130784 283.138459 
L 405.300319 279.038207 
L 405.469854 279.038207 
L 405.639389 290.121482 
L 405.808924 319.816822 
L 405.978459 290.443345 
L 406.147994 294.48762 
L 406.317529 281.627103 
L 406.656598 306.718406 
L 406.995668 278.940249 
L 407.334738 342.669079 
L 407.504273 332.145566 
L 407.673808 302.450226 
L 407.843343 318.263484 
L 408.012878 359.671831 
L 408.182413 342.431181 
L 408.351948 336.959514 
L 408.521483 314.485095 
L 408.691018 343.858572 
L 408.860553 343.858572 
L 409.369157 260.761998 
L 409.538692 286.525015 
L 409.708227 280.143735 
L 409.877762 292.374521 
L 410.216832 248.013433 
L 410.386367 235.110934 
L 410.555902 237.252021 
L 411.403576 323.595211 
L 411.573111 319.550935 
L 411.742646 307.781953 
L 411.912181 324.70074 
L 412.081716 330.172407 
L 412.420786 305.766812 
L 412.759856 298.280004 
L 413.098926 310.748688 
L 413.268461 280.381634 
L 413.437996 275.23183 
L 413.607531 280.941395 
L 413.777065 266.569522 
L 413.9466 266.569522 
L 414.116135 272.530981 
L 414.28567 290.821183 
L 414.455205 277.960666 
L 414.62474 300.435085 
L 414.794275 285.517445 
L 414.96381 290.989112 
L 415.133345 292.290557 
L 415.472415 255.934057 
L 415.64195 241.268309 
L 415.811485 267.143278 
L 416.150554 267.143278 
L 416.320089 242.443808 
L 416.659159 292.010676 
L 416.828694 297.482344 
L 416.998229 280.003795 
L 417.167764 346.293534 
L 417.337299 329.388741 
L 417.506834 346.307528 
L 417.676369 351.779196 
L 417.845904 334.860408 
L 418.015439 343.81659 
L 418.184974 331.585804 
L 418.354509 249.398843 
L 418.524043 234.943006 
L 418.863113 177.609448 
L 419.032648 172.137781 
L 419.202183 191.813393 
L 419.371718 174.572743 
L 419.541253 174.572743 
L 419.710788 192.051291 
L 420.049858 173.411238 
L 420.388928 207.528693 
L 420.558463 264.428435 
L 420.727998 247.509648 
L 420.897532 287.308681 
L 421.067067 270.068031 
L 421.236602 269.018478 
L 421.406137 302.46422 
L 421.575672 294.683537 
L 421.914742 324.154972 
L 422.253812 263.966632 
L 422.423347 256.46583 
L 422.762417 299.021687 
L 422.931952 305.892758 
L 423.101487 304.731253 
L 423.271022 293.661972 
L 423.440556 294.123775 
L 423.610091 276.645227 
L 423.779626 276.645227 
L 423.949161 334.55254 
L 424.118696 305.193056 
L 424.288231 319.410995 
L 424.457766 313.029715 
L 424.627301 313.029715 
L 424.796836 324.798698 
L 424.966371 324.798698 
L 425.135906 342.697067 
L 425.305441 330.928085 
L 425.474976 306.326573 
L 425.644511 301.176769 
L 425.98358 245.984298 
L 426.153115 246.418114 
L 426.32265 264.274501 
L 426.492185 258.802834 
L 426.66172 263.952638 
L 426.831255 257.571359 
L 427.00079 245.340573 
L 427.170325 249.440825 
L 427.33986 309.153368 
L 427.509395 323.03545 
L 427.67893 293.661972 
L 427.848465 299.13364 
L 428.018 268.64064 
L 428.187534 268.64064 
L 428.357069 279.653944 
L 428.696139 317.255914 
L 428.865674 232.004259 
L 429.035209 240.96044 
L 429.374279 301.918452 
L 429.543814 292.556444 
L 429.713349 259.264637 
L 429.882884 262.175396 
L 430.052419 276.547269 
L 430.221954 266.023755 
L 430.391489 270.124007 
L 430.561023 264.974203 
L 430.730558 240.274733 
L 430.900093 250.798246 
L 431.069628 236.132499 
L 431.239163 250.798246 
L 431.747768 320.306613 
L 432.086838 254.814534 
L 432.256373 256.115979 
L 432.595443 219.269688 
L 432.934512 199.789992 
L 433.104047 199.789992 
L 433.273582 407.153588 
L 433.443117 408.315093 
L 433.782187 345.663803 
L 433.951722 345.803743 
L 434.460327 399.708762 
L 434.629862 298.783789 
L 434.799397 343.858572 
L 434.968932 346.797319 
L 435.138467 322.097849 
L 435.477536 364.037969 
L 435.647071 338.274953 
L 435.816606 331.893673 
L 435.986141 333.195118 
L 436.155676 339.576398 
L 436.325211 364.275868 
L 436.494746 355.319686 
L 436.664281 376.240767 
L 436.833816 369.369696 
L 437.003351 374.519501 
L 437.172886 374.519501 
L 437.342421 341.661509 
L 437.511956 348.182729 
L 437.851025 275.287806 
L 438.02056 304.983146 
L 438.190095 299.833341 
L 438.35963 316.752128 
L 438.529165 287.378651 
L 438.868235 329.55667 
L 439.03777 304.8572 
L 439.207305 299.385532 
L 439.37684 312.721847 
L 439.546375 295.481197 
L 439.71591 319.480965 
L 439.885445 286.189158 
L 440.394049 326.324048 
L 440.563584 305.570895 
L 440.733119 304.983146 
L 440.902654 291.101064 
L 441.072189 324.672752 
L 441.411259 260.608064 
L 441.580794 282.144882 
L 441.750329 263.952638 
L 442.089399 290.653255 
L 442.258934 258.019168 
L 442.428468 266.975349 
L 442.598003 252.057709 
L 442.767538 252.057709 
L 442.937073 264.232519 
L 443.445678 191.057715 
L 443.784748 237.112081 
L 443.954283 248.881064 
L 444.123818 282.452751 
L 444.293353 267.787003 
L 444.632423 215.617245 
L 444.801958 232.815912 
L 444.971492 265.673904 
L 445.141027 235.180904 
L 445.480097 252.827381 
L 445.649632 247.677577 
L 445.988702 293.647978 
L 446.158237 281.878996 
L 446.327772 280.577551 
L 446.497307 293.438068 
L 446.836377 263.099002 
L 447.175447 216.358928 
L 447.514516 260.73401 
L 447.684051 255.262343 
L 447.853586 221.690655 
L 448.023121 222.992101 
L 448.192656 221.690655 
L 448.362191 247.453672 
L 448.531726 238.49749 
L 448.701261 208.00449 
L 448.870796 206.842985 
L 449.040331 208.00449 
L 449.209866 208.00449 
L 449.548936 254.156814 
L 449.71847 241.296297 
L 449.888005 274.154289 
L 450.05754 279.625956 
L 450.39661 245.060692 
L 450.566145 257.921209 
L 450.73568 237.140069 
L 450.905215 243.521348 
L 451.07475 278.464451 
L 451.244285 278.464451 
L 451.41382 265.324053 
L 451.583355 272.195124 
L 451.75289 304.829211 
L 451.922425 271.257524 
L 452.091959 305.612877 
L 452.261494 314.569059 
L 452.431029 314.569059 
L 452.600564 299.903311 
L 452.770099 308.005857 
L 452.939634 297.300421 
L 453.109169 319.383007 
L 453.278704 314.233202 
L 453.448239 331.151989 
L 454.126379 244.333002 
L 454.634983 218.500016 
L 454.804518 225.021236 
L 455.143588 166.750078 
L 455.313123 232.661978 
L 455.821728 232.661978 
L 455.991263 265.953785 
L 456.160798 233.095793 
L 456.330333 265.953785 
L 456.499868 247.663583 
L 456.669403 260.622058 
L 456.838937 294.193746 
L 457.008472 260.901939 
L 457.178007 254.520659 
L 457.517077 280.171724 
L 457.686612 275.021919 
L 457.856147 263.252936 
L 458.025682 272.209118 
L 458.534287 240.302721 
L 458.703822 240.302721 
L 458.873357 263.770716 
L 459.042892 230.912724 
L 459.212426 237.294003 
L 459.381961 215.897125 
L 459.551496 215.897125 
L 459.721031 221.04693 
L 459.890566 235.418803 
L 460.060101 229.947136 
L 460.229636 212.468587 
L 460.738241 212.468587 
L 460.907776 219.339658 
L 461.077311 219.339658 
L 461.246846 232.200175 
L 461.416381 217.828302 
L 461.585915 265.561952 
L 461.75545 265.561952 
L 461.924985 277.330935 
L 462.09452 310.902622 
L 462.43359 271.579387 
L 462.77266 316.136391 
L 463.11173 264.358465 
L 463.281265 316.122397 
L 463.4508 309.251326 
L 463.620335 309.251326 
L 463.78987 276.617239 
L 463.959405 288.792048 
L 464.128939 274.126301 
L 464.298474 272.027196 
L 464.807079 343.550704 
L 464.976614 337.169424 
L 465.146149 357.642696 
L 465.315684 357.642696 
L 465.485219 364.513766 
L 465.654754 339.912255 
L 465.824289 365.675271 
L 466.163359 319.872798 
L 466.332894 312.707853 
L 466.502428 294.781495 
L 466.671963 302.548184 
L 466.841498 331.082019 
L 467.011033 328.395165 
L 467.180568 328.395165 
L 467.350103 311.154515 
L 467.519638 365.857194 
L 467.689173 366.109086 
L 467.858708 364.093945 
L 468.028243 376.912481 
L 468.197778 343.620674 
L 468.367313 343.620674 
L 468.706383 320.292619 
L 468.875917 294.529602 
L 469.045452 316.052427 
L 469.384522 284.467892 
L 469.554057 293.424074 
L 469.723592 293.424074 
L 469.893127 286.553003 
L 470.062662 290.415356 
L 470.232197 308.705559 
L 470.401732 339.198559 
L 470.571267 326.967773 
L 470.740802 324.392871 
L 470.910337 308.075827 
L 471.079872 278.394481 
L 471.249406 273.244677 
L 471.418941 240.610589 
L 471.588476 237.839771 
L 471.758011 237.839771 
L 471.927546 271.411458 
L 472.097081 240.918458 
L 472.266616 271.411458 
L 472.436151 249.328873 
L 472.605686 247.747547 
L 472.775221 254.618617 
L 472.944756 230.003112 
L 473.114291 230.003112 
L 473.453361 285.657385 
L 473.622895 255.164385 
L 473.961965 243.311438 
L 474.1315 242.009993 
L 474.301035 254.87051 
L 474.47057 301.036828 
L 474.979175 255.276337 
L 475.14871 263.476841 
L 475.318245 277.358923 
L 475.48778 268.402741 
L 475.657315 245.928322 
L 475.82685 245.928322 
L 476.165919 197.914792 
L 476.504989 197.914792 
L 477.013594 249.552777 
L 477.183129 278.926255 
L 477.352664 352.199017 
L 477.522199 374.281602 
L 477.691734 369.131798 
L 478.200339 301.764518 
L 478.369873 318.683305 
L 478.708943 266.513546 
L 478.878478 259.642476 
L 479.048013 271.817285 
L 479.217548 253.527083 
L 479.726153 253.527083 
L 480.065223 281.571127 
L 480.234758 248.713135 
L 480.404293 242.331856 
L 480.573828 260.622058 
L 480.743362 248.391272 
L 480.912897 253.86294 
L 481.251967 234.383244 
L 481.421502 203.890244 
L 481.591037 198.264643 
L 481.760572 227.63812 
L 481.930107 227.63812 
L 482.099642 213.266247 
L 482.269177 213.266247 
L 482.438712 207.79458 
L 482.947317 250.728276 
L 483.116851 233.809489 
L 483.286386 273.91639 
L 483.455921 273.91639 
L 483.625456 242.583748 
L 483.794991 247.999439 
L 483.964526 281.571127 
L 484.134061 284.509874 
L 484.303596 251.651882 
L 484.473131 256.339884 
L 484.642666 245.81637 
L 484.812201 245.81637 
L 484.981736 249.87464 
L 485.151271 305.277021 
L 485.320806 305.277021 
L 485.490341 292.416503 
L 485.82941 338.61081 
L 485.998945 355.851459 
L 486.16848 326.156119 
L 486.338015 326.156119 
L 486.50755 301.134786 
L 486.677085 294.263716 
L 486.84662 294.263716 
L 487.016155 260.985903 
L 487.18569 264.022608 
L 487.355225 257.151538 
L 487.52476 257.151538 
L 487.694295 224.293546 
L 487.86383 225.594991 
L 488.033364 224.293546 
L 488.202899 228.155899 
L 488.372434 213.448169 
L 488.881039 213.448169 
L 489.050574 208.298365 
L 489.220109 208.298365 
L 489.389644 183.598895 
L 489.559179 229.051517 
L 489.728714 229.051517 
L 489.898249 211.810867 
L 490.067784 241.184345 
L 490.237319 241.184345 
L 490.576388 212.090748 
L 490.745923 223.537868 
L 490.915458 223.537868 
L 491.084993 224.839313 
L 491.254528 242.079963 
L 491.424063 219.605544 
L 491.593598 224.755349 
L 491.763133 224.755349 
L 491.932668 258.033162 
L 492.102203 251.162091 
L 492.271738 251.162091 
L 492.441273 263.336901 
L 492.610808 249.454819 
L 492.780342 279.947819 
L 492.949877 262.707169 
L 493.288947 262.707169 
L 493.458482 256.32589 
L 493.797552 302.422238 
L 493.967087 277.722768 
L 494.136622 277.722768 
L 494.306157 281.599115 
L 494.475692 304.073534 
L 494.645227 293.55002 
L 494.814762 300.421091 
L 494.984297 283.180441 
L 495.153831 292.136623 
L 495.662436 252.491524 
L 495.831971 322.657611 
L 496.001506 315.78654 
L 496.171041 328.017326 
L 496.340576 321.636046 
L 496.679646 270.711757 
L 496.849181 270.711757 
L 497.018716 265.254083 
L 497.188251 274.210265 
L 497.357786 274.210265 
L 497.52732 240.918458 
L 497.696855 240.918458 
L 497.86639 215.155442 
L 498.374995 215.155442 
L 498.54453 220.627109 
L 498.8836 256.731717 
L 499.22267 256.731717 
L 499.392205 292.584432 
L 499.731275 292.584432 
L 499.900809 325.218519 
L 500.070344 294.725519 
L 500.239879 311.966169 
L 500.409414 311.966169 
L 500.578949 307.306155 
L 500.748484 307.306155 
L 500.918019 298.349974 
L 501.087554 303.821641 
L 501.426624 274.378193 
L 501.596159 311.924187 
L 501.765694 303.961581 
L 501.935229 303.527766 
L 502.104764 297.146487 
L 502.274298 329.780574 
L 502.443833 324.308907 
L 502.613368 290.737219 
L 502.782903 289.701661 
L 503.121973 336.21783 
L 503.461043 319.313037 
L 503.630578 333.195118 
L 503.800113 333.195118 
L 503.969648 351.485321 
L 504.139183 339.310511 
L 504.308718 339.310511 
L 504.478253 351.485321 
L 504.817322 388.233654 
L 504.986857 355.375662 
L 505.156392 371.650724 
L 505.325927 359.881741 
L 505.834532 276.09946 
L 506.004067 254.016874 
L 506.173602 259.166679 
L 506.343137 259.166679 
L 506.512672 252.295608 
L 506.682207 262.819121 
L 507.021277 220.585127 
L 507.190811 203.344477 
L 507.699416 203.344477 
L 507.868951 236.986135 
L 508.038486 212.286665 
L 508.208021 245.144656 
L 508.377556 245.144656 
L 508.716626 287.378651 
L 508.886161 273.496569 
L 509.055696 240.862482 
L 509.225231 247.243762 
L 509.394766 264.596364 
L 509.5643 267.968926 
L 509.733835 267.968926 
L 509.90337 270.543828 
L 510.24244 270.543828 
L 510.411975 265.394024 
L 510.58151 271.775303 
L 510.751045 271.775303 
L 510.92058 265.394024 
L 511.090115 240.694554 
L 511.25965 240.694554 
L 511.429185 255.612194 
L 511.59872 255.5982 
L 511.768255 239.784941 
L 512.107324 270.082025 
L 512.276859 252.225638 
L 512.446394 219.367646 
L 512.785464 268.598657 
L 512.954999 255.73814 
L 513.124534 289.309828 
L 513.294069 290.891154 
L 513.463604 308.131803 
L 513.633139 301.260733 
L 513.802674 317.535794 
L 514.141744 290.849171 
L 514.311278 307.879911 
L 514.650348 307.879911 
L 514.819883 321.174243 
L 514.989418 303.933593 
L 515.158953 302.576172 
L 515.328488 302.576172 
L 515.498023 318.851234 
L 515.667558 317.549788 
L 515.837093 304.689271 
L 516.006628 350.40778 
L 516.176163 335.742033 
L 516.345698 331.096013 
L 516.515233 297.524326 
L 516.684767 294.585579 
L 516.854302 312.875781 
L 517.362907 230.17104 
L 517.532442 214.357782 
L 517.701977 221.648673 
L 517.871512 191.155673 
L 518.041047 191.155673 
L 518.210582 201.539246 
L 518.719187 201.539246 
L 518.888722 202.252942 
L 519.736396 202.252942 
L 519.905931 220.10933 
L 520.075466 213.238259 
L 520.245001 243.731259 
L 520.414536 228.813619 
L 520.584071 240.582601 
L 520.923141 229.051517 
L 521.262211 252.673447 
L 521.770815 210.411464 
L 521.94035 210.411464 
L 522.109885 222.180447 
L 522.27942 220.879001 
L 523.466165 220.879001 
L 523.6357 203.638352 
L 524.144304 203.638352 
L 524.313839 194.416283 
L 524.483374 224.909283 
L 525.670119 224.909283 
L 525.839654 246.991869 
L 526.009189 253.86294 
L 526.178723 244.906758 
L 526.348258 226.616555 
L 526.517793 234.579161 
L 526.856863 234.579161 
L 527.026398 204.086161 
L 527.195933 204.086161 
L 527.365468 224.545438 
L 527.704538 224.545438 
L 527.874073 235.558743 
L 528.043608 229.177464 
L 528.213143 229.177464 
L 528.382678 220.892996 
L 528.552213 236.566314 
L 529.230352 236.566314 
L 529.399887 240.974434 
L 529.569422 240.974434 
L 529.738957 246.124239 
L 530.586632 246.124239 
L 530.756167 221.424769 
L 530.925702 221.424769 
L 531.095236 227.806048 
L 531.264771 250.364431 
L 531.434306 250.588336 
L 531.603841 250.588336 
L 531.942911 239.966864 
L 532.281981 239.966864 
L 532.451516 245.116668 
L 532.621051 238.735389 
L 532.790586 238.735389 
L 532.960121 246.208203 
L 533.129656 231.83633 
L 533.299191 231.83633 
L 533.468725 242.34585 
L 533.97733 242.34585 
L 534.146865 235.474779 
L 534.3164 235.474779 
L 534.485935 239.407102 
L 534.65547 246.278173 
L 535.164075 246.278173 
L 535.33361 229.359386 
L 535.503145 242.177921 
L 535.67268 242.177921 
L 535.842214 259.894368 
L 536.181284 259.894368 
L 536.350819 245.438531 
L 536.520354 245.438531 
L 536.689889 226.686526 
L 536.859424 226.686526 
L 537.028959 256.060003 
L 537.198494 242.177921 
L 537.537564 242.177921 
L 537.707099 233.221739 
L 537.876634 202.728739 
L 538.046169 202.728739 
L 538.215703 209.110019 
L 538.385238 209.110019 
L 538.554773 222.0545 
L 538.724308 222.0545 
L 538.893843 244.962734 
L 539.063378 244.962734 
L 539.232913 274.336211 
L 539.402448 269.186407 
L 539.571983 269.186407 
L 539.741518 302.044399 
L 539.911053 300.742954 
L 540.080588 276.043484 
L 540.250123 268.234813 
L 540.419658 278.758326 
L 540.589192 278.758326 
L 540.758727 265.897809 
L 541.606402 265.897809 
L 541.775937 257.99118 
L 541.945472 228.295839 
L 542.284542 228.295839 
L 542.454077 222.824172 
L 542.623612 224.125617 
L 542.793147 246.600036 
L 543.132216 246.600036 
L 543.301751 229.359386 
L 543.810356 229.359386 
L 543.979891 220.948972 
L 544.318961 186.579624 
L 545.67524 186.579624 
L 545.844775 190.931769 
L 546.01431 185.460101 
L 546.35338 185.460101 
L 546.522915 190.931769 
L 546.69245 223.789761 
L 547.03152 223.789761 
L 547.201055 237.671842 
L 547.709659 182.017569 
L 547.879194 182.017569 
L 548.218264 203.792286 
L 548.387799 194.836104 
L 548.557334 203.792286 
L 548.726869 198.642481 
L 549.065939 151.118742 
L 549.235474 151.118742 
L 549.405009 138.258225 
L 549.574544 138.258225 
L 549.744079 151.118742 
L 549.913614 121.423402 
L 552.965242 121.423402 
L 553.134777 138.664052 
L 553.304312 138.664052 
L 553.473847 143.813856 
L 555.169196 143.813856 
L 555.338731 137.432577 
L 555.508266 137.432577 
L 555.847336 125.411701 
L 556.186406 125.411701 
L 556.355941 131.792981 
L 556.695011 131.792981 
L 556.864546 161.488321 
L 557.034081 161.488321 
L 557.203616 149.719339 
L 557.542685 149.719339 
L 557.71222 183.291026 
L 557.881755 183.291026 
L 558.05129 196.795269 
L 559.0685 196.795269 
L 559.238035 184.704424 
L 559.577105 184.704424 
L 559.746639 191.575494 
L 560.085709 191.575494 
L 560.255244 194.6122 
L 561.102919 194.6122 
L 561.272454 189.6863 
L 561.611524 189.6863 
L 561.781059 186.649594 
L 562.289663 186.649594 
L 562.459198 181.49979 
L 562.628733 180.940028 
L 562.798268 180.940028 
L 562.967803 203.022614 
L 563.137338 203.022614 
L 563.306873 180.548195 
L 563.476408 198.404583 
L 563.815478 198.404583 
L 563.985013 168.709243 
L 564.154548 167.547738 
L 564.324083 167.547738 
L 564.493617 133.97605 
L 564.832687 133.97605 
L 565.002222 151.2167 
L 565.171757 180.91204 
L 565.341292 163.993253 
L 565.510827 165.154758 
L 565.680362 143.072172 
L 566.697572 143.072172 
L 567.036641 131.219226 
L 567.545246 131.219226 
L 567.714781 153.693644 
L 567.884316 153.693644 
L 568.053851 170.612431 
L 568.223386 170.612431 
L 568.392921 176.993711 
L 568.731991 176.993711 
L 568.901526 163.111629 
L 569.240595 163.111629 
L 569.918735 126.993027 
L 571.783619 126.993027 
L 571.953154 132.702593 
L 572.292224 132.702593 
L 572.461759 145.56311 
L 573.309434 145.56311 
L 573.478969 132.702593 
L 573.987574 132.702593 
L 574.157108 125.089839 
L 574.326643 125.089839 
L 574.496178 118.708559 
L 579.243156 118.708559 
L 579.412691 111.837488 
L 580.429901 111.837488 
L 580.599436 94.596839 
L 587.889438 94.596839 
L 588.058973 99.746643 
L 589.076182 99.746643 
L 589.245717 94.596839 
L 590.771532 94.596839 
L 590.941066 95.170594 
L 593.992695 95.170594 
L 594.331765 116.427532 
L 598.739673 116.427532 
L 598.909208 118.820511 
L 600.943627 118.820511 
L 601.113162 118.008857 
L 613.828282 118.008857 
L 613.997817 123.158662 
L 616.710376 123.158662 
L 616.879911 118.008857 
L 619.762004 118.008857 
L 619.931539 114.412391 
L 620.101074 107.54132 
L 630.103635 107.54132 
L 630.27317 100.068506 
L 633.155264 100.068506 
L 633.324799 94.596839 
L 759.967391 94.596839 
L 760.136926 88.887273 
L 871.690909 88.887273 
L 871.690909 88.887273 
" style="fill:none;stroke:#8dd3c7;stroke-linecap:square;stroke-width:1.5;"/>
   </g>
   <g id="line2d_13">
    <path clip-path="url(#pda081b9608)" d="M 161.509091 215.309376 
L 226.271434 215.309376 
L 226.440969 209.893685 
L 304.596571 209.893685 
L 304.766106 178.421102 
L 351.388212 178.421102 
L 351.557746 159.501168 
L 548.896404 159.501168 
L 549.065939 151.118742 
L 549.235474 151.118742 
L 549.405009 138.258225 
L 549.744079 138.258225 
L 549.913614 121.423402 
L 574.326643 121.423402 
L 574.496178 118.708559 
L 579.243156 118.708559 
L 579.412691 111.837488 
L 580.429901 111.837488 
L 580.599436 94.596839 
L 759.967391 94.596839 
L 760.136926 88.887273 
L 871.690909 88.887273 
L 871.690909 88.887273 
" style="fill:none;stroke:#feffb3;stroke-linecap:square;stroke-width:1.5;"/>
   </g>
   <g id="line2d_14">
    <path clip-path="url(#pda081b9608)" d="M 161.509091 481.543494 
L 164.730255 481.649148 
L 165.069324 481.75065 
L 168.120953 481.848165 
L 168.460023 481.941849 
L 171.511652 482.031852 
L 171.850722 482.118319 
L 174.90235 482.201389 
L 175.24142 482.281196 
L 178.293049 482.357867 
L 178.632119 482.431526 
L 181.683747 482.502291 
L 182.022817 482.570275 
L 185.074446 482.635589 
L 185.413516 482.698337 
L 188.465145 482.758619 
L 188.973749 482.816534 
L 193.551193 482.925626 
L 194.059797 482.976978 
L 198.63724 483.073711 
L 199.145845 483.119246 
L 203.723288 483.205019 
L 204.231893 483.245396 
L 208.809336 483.321452 
L 209.487476 483.357253 
L 215.590733 483.456438 
L 216.268873 483.486937 
L 224.06748 483.597411 
L 224.915154 483.622371 
L 234.239576 483.73321 
L 235.256785 483.752835 
L 246.107021 483.855412 
L 247.4633 483.870236 
L 263.060513 483.980008 
L 265.264468 483.999476 
L 293.576801 484.109893 
L 297.815174 484.12381 
L 871.690909 484.232727 
L 871.690909 484.232727 
" style="fill:none;stroke:#bfbbd9;stroke-linecap:square;stroke-width:1.5;"/>
   </g>
   <g id="patch_3">
    <path d="M 126 504 
L 126 69.12 
" style="fill:none;stroke:#ffffff;stroke-linecap:square;stroke-linejoin:miter;stroke-width:0.8;"/>
   </g>
   <g id="patch_4">
    <path d="M 907.2 504 
L 907.2 69.12 
" style="fill:none;stroke:#ffffff;stroke-linecap:square;stroke-linejoin:miter;stroke-width:0.8;"/>
   </g>
   <g id="patch_5">
    <path d="M 126 504 
L 907.2 504 
" style="fill:none;stroke:#ffffff;stroke-linecap:square;stroke-linejoin:miter;stroke-width:0.8;"/>
   </g>
   <g id="patch_6">
    <path d="M 126 69.12 
L 907.2 69.12 
" style="fill:none;stroke:#ffffff;stroke-linecap:square;stroke-linejoin:miter;stroke-width:0.8;"/>
   </g>
   <g id="text_13">
    <!-- instance 23 with error 0.0 -->
    <g style="fill:#ffffff;" transform="translate(439.126875 63.12)scale(0.12 -0.12)">
     <defs>
      <path d="M 2834 3397 
L 2834 2853 
Q 2591 2978 2328 3040 
Q 2066 3103 1784 3103 
Q 1356 3103 1142 2972 
Q 928 2841 928 2578 
Q 928 2378 1081 2264 
Q 1234 2150 1697 2047 
L 1894 2003 
Q 2506 1872 2764 1633 
Q 3022 1394 3022 966 
Q 3022 478 2636 193 
Q 2250 -91 1575 -91 
Q 1294 -91 989 -36 
Q 684 19 347 128 
L 347 722 
Q 666 556 975 473 
Q 1284 391 1588 391 
Q 1994 391 2212 530 
Q 2431 669 2431 922 
Q 2431 1156 2273 1281 
Q 2116 1406 1581 1522 
L 1381 1569 
Q 847 1681 609 1914 
Q 372 2147 372 2553 
Q 372 3047 722 3315 
Q 1072 3584 1716 3584 
Q 2034 3584 2315 3537 
Q 2597 3491 2834 3397 
z
" id="DejaVuSans-73" transform="scale(0.015625)"/>
      <path d="M 3122 3366 
L 3122 2828 
Q 2878 2963 2633 3030 
Q 2388 3097 2138 3097 
Q 1578 3097 1268 2742 
Q 959 2388 959 1747 
Q 959 1106 1268 751 
Q 1578 397 2138 397 
Q 2388 397 2633 464 
Q 2878 531 3122 666 
L 3122 134 
Q 2881 22 2623 -34 
Q 2366 -91 2075 -91 
Q 1284 -91 818 406 
Q 353 903 353 1747 
Q 353 2603 823 3093 
Q 1294 3584 2113 3584 
Q 2378 3584 2631 3529 
Q 2884 3475 3122 3366 
z
" id="DejaVuSans-63" transform="scale(0.015625)"/>
      <path id="DejaVuSans-20" transform="scale(0.015625)"/>
      <path d="M 269 3500 
L 844 3500 
L 1563 769 
L 2278 3500 
L 2956 3500 
L 3675 769 
L 4391 3500 
L 4966 3500 
L 4050 0 
L 3372 0 
L 2619 2869 
L 1863 0 
L 1184 0 
L 269 3500 
z
" id="DejaVuSans-77" transform="scale(0.015625)"/>
      <path d="M 3513 2113 
L 3513 0 
L 2938 0 
L 2938 2094 
Q 2938 2591 2744 2837 
Q 2550 3084 2163 3084 
Q 1697 3084 1428 2787 
Q 1159 2491 1159 1978 
L 1159 0 
L 581 0 
L 581 4863 
L 1159 4863 
L 1159 2956 
Q 1366 3272 1645 3428 
Q 1925 3584 2291 3584 
Q 2894 3584 3203 3211 
Q 3513 2838 3513 2113 
z
" id="DejaVuSans-68" transform="scale(0.015625)"/>
      <path d="M 684 794 
L 1344 794 
L 1344 0 
L 684 0 
L 684 794 
z
" id="DejaVuSans-2e" transform="scale(0.015625)"/>
     </defs>
     <use xlink:href="#DejaVuSans-69"/>
     <use x="27.783203" xlink:href="#DejaVuSans-6e"/>
     <use x="91.162109" xlink:href="#DejaVuSans-73"/>
     <use x="143.261719" xlink:href="#DejaVuSans-74"/>
     <use x="182.470703" xlink:href="#DejaVuSans-61"/>
     <use x="243.75" xlink:href="#DejaVuSans-6e"/>
     <use x="307.128906" xlink:href="#DejaVuSans-63"/>
     <use x="362.109375" xlink:href="#DejaVuSans-65"/>
     <use x="423.632812" xlink:href="#DejaVuSans-20"/>
     <use x="455.419922" xlink:href="#DejaVuSans-32"/>
     <use x="519.042969" xlink:href="#DejaVuSans-33"/>
     <use x="582.666016" xlink:href="#DejaVuSans-20"/>
     <use x="614.453125" xlink:href="#DejaVuSans-77"/>
     <use x="696.240234" xlink:href="#DejaVuSans-69"/>
     <use x="724.023438" xlink:href="#DejaVuSans-74"/>
     <use x="763.232422" xlink:href="#DejaVuSans-68"/>
     <use x="826.611328" xlink:href="#DejaVuSans-20"/>
     <use x="858.398438" xlink:href="#DejaVuSans-65"/>
     <use x="919.921875" xlink:href="#DejaVuSans-72"/>
     <use x="959.285156" xlink:href="#DejaVuSans-72"/>
     <use x="998.148438" xlink:href="#DejaVuSans-6f"/>
     <use x="1059.330078" xlink:href="#DejaVuSans-72"/>
     <use x="1100.443359" xlink:href="#DejaVuSans-20"/>
     <use x="1132.230469" xlink:href="#DejaVuSans-30"/>
     <use x="1195.853516" xlink:href="#DejaVuSans-2e"/>
     <use x="1227.640625" xlink:href="#DejaVuSans-30"/>
    </g>
   </g>
   <g id="legend_1">
    <g id="patch_7">
     <path d="M 805.348438 499 
L 900.2 499 
Q 902.2 499 902.2 497 
L 902.2 453.965625 
Q 902.2 451.965625 900.2 451.965625 
L 805.348438 451.965625 
Q 803.348438 451.965625 803.348438 453.965625 
L 803.348438 497 
Q 803.348438 499 805.348438 499 
z
" style="opacity:0.8;stroke:#cccccc;stroke-linejoin:miter;"/>
    </g>
    <g id="line2d_15">
     <path d="M 807.348438 460.064062 
L 827.348438 460.064062 
" style="fill:none;stroke:#8dd3c7;stroke-linecap:square;stroke-width:1.5;"/>
    </g>
    <g id="line2d_16"/>
    <g id="text_14">
     <!-- cost -->
     <g style="fill:#ffffff;" transform="translate(835.348438 463.564062)scale(0.1 -0.1)">
      <use xlink:href="#DejaVuSans-63"/>
      <use x="54.980469" xlink:href="#DejaVuSans-6f"/>
      <use x="116.162109" xlink:href="#DejaVuSans-73"/>
      <use x="168.261719" xlink:href="#DejaVuSans-74"/>
     </g>
    </g>
    <g id="line2d_17">
     <path d="M 807.348438 474.742188 
L 827.348438 474.742188 
" style="fill:none;stroke:#feffb3;stroke-linecap:square;stroke-width:1.5;"/>
    </g>
    <g id="line2d_18"/>
    <g id="text_15">
     <!-- best cost -->
     <g style="fill:#ffffff;" transform="translate(835.348438 478.242188)scale(0.1 -0.1)">
      <defs>
       <path d="M 3116 1747 
Q 3116 2381 2855 2742 
Q 2594 3103 2138 3103 
Q 1681 3103 1420 2742 
Q 1159 2381 1159 1747 
Q 1159 1113 1420 752 
Q 1681 391 2138 391 
Q 2594 391 2855 752 
Q 3116 1113 3116 1747 
z
M 1159 2969 
Q 1341 3281 1617 3432 
Q 1894 3584 2278 3584 
Q 2916 3584 3314 3078 
Q 3713 2572 3713 1747 
Q 3713 922 3314 415 
Q 2916 -91 2278 -91 
Q 1894 -91 1617 61 
Q 1341 213 1159 525 
L 1159 0 
L 581 0 
L 581 4863 
L 1159 4863 
L 1159 2969 
z
" id="DejaVuSans-62" transform="scale(0.015625)"/>
      </defs>
      <use xlink:href="#DejaVuSans-62"/>
      <use x="63.476562" xlink:href="#DejaVuSans-65"/>
      <use x="125" xlink:href="#DejaVuSans-73"/>
      <use x="177.099609" xlink:href="#DejaVuSans-74"/>
      <use x="216.308594" xlink:href="#DejaVuSans-20"/>
      <use x="248.095703" xlink:href="#DejaVuSans-63"/>
      <use x="303.076172" xlink:href="#DejaVuSans-6f"/>
      <use x="364.257812" xlink:href="#DejaVuSans-73"/>
      <use x="416.357422" xlink:href="#DejaVuSans-74"/>
     </g>
    </g>
    <g id="line2d_19">
     <path d="M 807.348438 489.420313 
L 827.348438 489.420313 
" style="fill:none;stroke:#bfbbd9;stroke-linecap:square;stroke-width:1.5;"/>
    </g>
    <g id="line2d_20"/>
    <g id="text_16">
     <!-- temperature -->
     <g style="fill:#ffffff;" transform="translate(835.348438 492.920313)scale(0.1 -0.1)">
      <defs>
       <path d="M 3328 2828 
Q 3544 3216 3844 3400 
Q 4144 3584 4550 3584 
Q 5097 3584 5394 3201 
Q 5691 2819 5691 2113 
L 5691 0 
L 5113 0 
L 5113 2094 
Q 5113 2597 4934 2840 
Q 4756 3084 4391 3084 
Q 3944 3084 3684 2787 
Q 3425 2491 3425 1978 
L 3425 0 
L 2847 0 
L 2847 2094 
Q 2847 2600 2669 2842 
Q 2491 3084 2119 3084 
Q 1678 3084 1418 2786 
Q 1159 2488 1159 1978 
L 1159 0 
L 581 0 
L 581 3500 
L 1159 3500 
L 1159 2956 
Q 1356 3278 1631 3431 
Q 1906 3584 2284 3584 
Q 2666 3584 2933 3390 
Q 3200 3197 3328 2828 
z
" id="DejaVuSans-6d" transform="scale(0.015625)"/>
       <path d="M 1159 525 
L 1159 -1331 
L 581 -1331 
L 581 3500 
L 1159 3500 
L 1159 2969 
Q 1341 3281 1617 3432 
Q 1894 3584 2278 3584 
Q 2916 3584 3314 3078 
Q 3713 2572 3713 1747 
Q 3713 922 3314 415 
Q 2916 -91 2278 -91 
Q 1894 -91 1617 61 
Q 1341 213 1159 525 
z
M 3116 1747 
Q 3116 2381 2855 2742 
Q 2594 3103 2138 3103 
Q 1681 3103 1420 2742 
Q 1159 2381 1159 1747 
Q 1159 1113 1420 752 
Q 1681 391 2138 391 
Q 2594 391 2855 752 
Q 3116 1113 3116 1747 
z
" id="DejaVuSans-70" transform="scale(0.015625)"/>
       <path d="M 544 1381 
L 544 3500 
L 1119 3500 
L 1119 1403 
Q 1119 906 1312 657 
Q 1506 409 1894 409 
Q 2359 409 2629 706 
Q 2900 1003 2900 1516 
L 2900 3500 
L 3475 3500 
L 3475 0 
L 2900 0 
L 2900 538 
Q 2691 219 2414 64 
Q 2138 -91 1772 -91 
Q 1169 -91 856 284 
Q 544 659 544 1381 
z
M 1991 3584 
L 1991 3584 
z
" id="DejaVuSans-75" transform="scale(0.015625)"/>
      </defs>
      <use xlink:href="#DejaVuSans-74"/>
      <use x="39.208984" xlink:href="#DejaVuSans-65"/>
      <use x="100.732422" xlink:href="#DejaVuSans-6d"/>
      <use x="198.144531" xlink:href="#DejaVuSans-70"/>
      <use x="261.621094" xlink:href="#DejaVuSans-65"/>
      <use x="323.144531" xlink:href="#DejaVuSans-72"/>
      <use x="364.257812" xlink:href="#DejaVuSans-61"/>
      <use x="425.537109" xlink:href="#DejaVuSans-74"/>
      <use x="464.746094" xlink:href="#DejaVuSans-75"/>
      <use x="528.125" xlink:href="#DejaVuSans-72"/>
      <use x="566.988281" xlink:href="#DejaVuSans-65"/>
     </g>
    </g>
   </g>
  </g>
 </g>
 <defs>
  <clipPath id="pda081b9608">
   <rect height="434.88" width="781.2" x="126" y="69.12"/>
  </clipPath>
 </defs>
</svg>
