<?xml version="1.0" encoding="utf-8" standalone="no"?>
<!DOCTYPE svg PUBLIC "-//W3C//DTD SVG 1.1//EN"
  "http://www.w3.org/Graphics/SVG/1.1/DTD/svg11.dtd">
<svg height="576pt" version="1.1" viewBox="0 0 1008 576" width="1008pt" xmlns="http://www.w3.org/2000/svg" xmlns:xlink="http://www.w3.org/1999/xlink">
 <metadata>
  <rdf:RDF xmlns:cc="http://creativecommons.org/ns#" xmlns:dc="http://purl.org/dc/elements/1.1/" xmlns:rdf="http://www.w3.org/1999/02/22-rdf-syntax-ns#">
   <cc:Work>
    <dc:type rdf:resource="http://purl.org/dc/dcmitype/StillImage"/>
    <dc:date>2022-01-08T03:46:13.570161</dc:date>
    <dc:format>image/svg+xml</dc:format>
    <dc:creator>
     <cc:Agent>
      <dc:title>Matplotlib v3.4.3, https://matplotlib.org/</dc:title>
     </cc:Agent>
    </dc:creator>
   </cc:Work>
  </rdf:RDF>
 </metadata>
 <defs>
  <style type="text/css">*{stroke-linecap:butt;stroke-linejoin:round;}</style>
 </defs>
 <g id="figure_1">
  <g id="patch_1">
   <path d="M 0 576 
L 1008 576 
L 1008 0 
L 0 0 
z
"/>
  </g>
  <g id="axes_1">
   <g id="patch_2">
    <path d="M 126 504 
L 907.2 504 
L 907.2 69.12 
L 126 69.12 
z
"/>
   </g>
   <g id="matplotlib.axis_1">
    <g id="xtick_1">
     <g id="line2d_1">
      <defs>
       <path d="M 0 0 
L 0 3.5 
" id="m9320beed10" style="stroke:#ffffff;stroke-width:0.8;"/>
      </defs>
      <g>
       <use style="fill:#ffffff;stroke:#ffffff;stroke-width:0.8;" x="161.509091" xlink:href="#m9320beed10" y="504"/>
      </g>
     </g>
     <g id="text_1">
      <!-- 0 -->
      <g style="fill:#ffffff;" transform="translate(158.327841 518.598438)scale(0.1 -0.1)">
       <defs>
        <path d="M 2034 4250 
Q 1547 4250 1301 3770 
Q 1056 3291 1056 2328 
Q 1056 1369 1301 889 
Q 1547 409 2034 409 
Q 2525 409 2770 889 
Q 3016 1369 3016 2328 
Q 3016 3291 2770 3770 
Q 2525 4250 2034 4250 
z
M 2034 4750 
Q 2819 4750 3233 4129 
Q 3647 3509 3647 2328 
Q 3647 1150 3233 529 
Q 2819 -91 2034 -91 
Q 1250 -91 836 529 
Q 422 1150 422 2328 
Q 422 3509 836 4129 
Q 1250 4750 2034 4750 
z
" id="DejaVuSans-30" transform="scale(0.015625)"/>
       </defs>
       <use xlink:href="#DejaVuSans-30"/>
      </g>
     </g>
    </g>
    <g id="xtick_2">
     <g id="line2d_2">
      <g>
       <use style="fill:#ffffff;stroke:#ffffff;stroke-width:0.8;" x="279.127809" xlink:href="#m9320beed10" y="504"/>
      </g>
     </g>
     <g id="text_2">
      <!-- 500 -->
      <g style="fill:#ffffff;" transform="translate(269.584059 518.598438)scale(0.1 -0.1)">
       <defs>
        <path d="M 691 4666 
L 3169 4666 
L 3169 4134 
L 1269 4134 
L 1269 2991 
Q 1406 3038 1543 3061 
Q 1681 3084 1819 3084 
Q 2600 3084 3056 2656 
Q 3513 2228 3513 1497 
Q 3513 744 3044 326 
Q 2575 -91 1722 -91 
Q 1428 -91 1123 -41 
Q 819 9 494 109 
L 494 744 
Q 775 591 1075 516 
Q 1375 441 1709 441 
Q 2250 441 2565 725 
Q 2881 1009 2881 1497 
Q 2881 1984 2565 2268 
Q 2250 2553 1709 2553 
Q 1456 2553 1204 2497 
Q 953 2441 691 2322 
L 691 4666 
z
" id="DejaVuSans-35" transform="scale(0.015625)"/>
       </defs>
       <use xlink:href="#DejaVuSans-35"/>
       <use x="63.623047" xlink:href="#DejaVuSans-30"/>
       <use x="127.246094" xlink:href="#DejaVuSans-30"/>
      </g>
     </g>
    </g>
    <g id="xtick_3">
     <g id="line2d_3">
      <g>
       <use style="fill:#ffffff;stroke:#ffffff;stroke-width:0.8;" x="396.746527" xlink:href="#m9320beed10" y="504"/>
      </g>
     </g>
     <g id="text_3">
      <!-- 1000 -->
      <g style="fill:#ffffff;" transform="translate(384.021527 518.598438)scale(0.1 -0.1)">
       <defs>
        <path d="M 794 531 
L 1825 531 
L 1825 4091 
L 703 3866 
L 703 4441 
L 1819 4666 
L 2450 4666 
L 2450 531 
L 3481 531 
L 3481 0 
L 794 0 
L 794 531 
z
" id="DejaVuSans-31" transform="scale(0.015625)"/>
       </defs>
       <use xlink:href="#DejaVuSans-31"/>
       <use x="63.623047" xlink:href="#DejaVuSans-30"/>
       <use x="127.246094" xlink:href="#DejaVuSans-30"/>
       <use x="190.869141" xlink:href="#DejaVuSans-30"/>
      </g>
     </g>
    </g>
    <g id="xtick_4">
     <g id="line2d_4">
      <g>
       <use style="fill:#ffffff;stroke:#ffffff;stroke-width:0.8;" x="514.365244" xlink:href="#m9320beed10" y="504"/>
      </g>
     </g>
     <g id="text_4">
      <!-- 1500 -->
      <g style="fill:#ffffff;" transform="translate(501.640244 518.598438)scale(0.1 -0.1)">
       <use xlink:href="#DejaVuSans-31"/>
       <use x="63.623047" xlink:href="#DejaVuSans-35"/>
       <use x="127.246094" xlink:href="#DejaVuSans-30"/>
       <use x="190.869141" xlink:href="#DejaVuSans-30"/>
      </g>
     </g>
    </g>
    <g id="xtick_5">
     <g id="line2d_5">
      <g>
       <use style="fill:#ffffff;stroke:#ffffff;stroke-width:0.8;" x="631.983962" xlink:href="#m9320beed10" y="504"/>
      </g>
     </g>
     <g id="text_5">
      <!-- 2000 -->
      <g style="fill:#ffffff;" transform="translate(619.258962 518.598438)scale(0.1 -0.1)">
       <defs>
        <path d="M 1228 531 
L 3431 531 
L 3431 0 
L 469 0 
L 469 531 
Q 828 903 1448 1529 
Q 2069 2156 2228 2338 
Q 2531 2678 2651 2914 
Q 2772 3150 2772 3378 
Q 2772 3750 2511 3984 
Q 2250 4219 1831 4219 
Q 1534 4219 1204 4116 
Q 875 4013 500 3803 
L 500 4441 
Q 881 4594 1212 4672 
Q 1544 4750 1819 4750 
Q 2544 4750 2975 4387 
Q 3406 4025 3406 3419 
Q 3406 3131 3298 2873 
Q 3191 2616 2906 2266 
Q 2828 2175 2409 1742 
Q 1991 1309 1228 531 
z
" id="DejaVuSans-32" transform="scale(0.015625)"/>
       </defs>
       <use xlink:href="#DejaVuSans-32"/>
       <use x="63.623047" xlink:href="#DejaVuSans-30"/>
       <use x="127.246094" xlink:href="#DejaVuSans-30"/>
       <use x="190.869141" xlink:href="#DejaVuSans-30"/>
      </g>
     </g>
    </g>
    <g id="xtick_6">
     <g id="line2d_6">
      <g>
       <use style="fill:#ffffff;stroke:#ffffff;stroke-width:0.8;" x="749.60268" xlink:href="#m9320beed10" y="504"/>
      </g>
     </g>
     <g id="text_6">
      <!-- 2500 -->
      <g style="fill:#ffffff;" transform="translate(736.87768 518.598438)scale(0.1 -0.1)">
       <use xlink:href="#DejaVuSans-32"/>
       <use x="63.623047" xlink:href="#DejaVuSans-35"/>
       <use x="127.246094" xlink:href="#DejaVuSans-30"/>
       <use x="190.869141" xlink:href="#DejaVuSans-30"/>
      </g>
     </g>
    </g>
    <g id="xtick_7">
     <g id="line2d_7">
      <g>
       <use style="fill:#ffffff;stroke:#ffffff;stroke-width:0.8;" x="867.221398" xlink:href="#m9320beed10" y="504"/>
      </g>
     </g>
     <g id="text_7">
      <!-- 3000 -->
      <g style="fill:#ffffff;" transform="translate(854.496398 518.598438)scale(0.1 -0.1)">
       <defs>
        <path d="M 2597 2516 
Q 3050 2419 3304 2112 
Q 3559 1806 3559 1356 
Q 3559 666 3084 287 
Q 2609 -91 1734 -91 
Q 1441 -91 1130 -33 
Q 819 25 488 141 
L 488 750 
Q 750 597 1062 519 
Q 1375 441 1716 441 
Q 2309 441 2620 675 
Q 2931 909 2931 1356 
Q 2931 1769 2642 2001 
Q 2353 2234 1838 2234 
L 1294 2234 
L 1294 2753 
L 1863 2753 
Q 2328 2753 2575 2939 
Q 2822 3125 2822 3475 
Q 2822 3834 2567 4026 
Q 2313 4219 1838 4219 
Q 1578 4219 1281 4162 
Q 984 4106 628 3988 
L 628 4550 
Q 988 4650 1302 4700 
Q 1616 4750 1894 4750 
Q 2613 4750 3031 4423 
Q 3450 4097 3450 3541 
Q 3450 3153 3228 2886 
Q 3006 2619 2597 2516 
z
" id="DejaVuSans-33" transform="scale(0.015625)"/>
       </defs>
       <use xlink:href="#DejaVuSans-33"/>
       <use x="63.623047" xlink:href="#DejaVuSans-30"/>
       <use x="127.246094" xlink:href="#DejaVuSans-30"/>
       <use x="190.869141" xlink:href="#DejaVuSans-30"/>
      </g>
     </g>
    </g>
    <g id="text_8">
     <!-- iteration -->
     <g style="fill:#ffffff;" transform="translate(495.477344 532.276562)scale(0.1 -0.1)">
      <defs>
       <path d="M 603 3500 
L 1178 3500 
L 1178 0 
L 603 0 
L 603 3500 
z
M 603 4863 
L 1178 4863 
L 1178 4134 
L 603 4134 
L 603 4863 
z
" id="DejaVuSans-69" transform="scale(0.015625)"/>
       <path d="M 1172 4494 
L 1172 3500 
L 2356 3500 
L 2356 3053 
L 1172 3053 
L 1172 1153 
Q 1172 725 1289 603 
Q 1406 481 1766 481 
L 2356 481 
L 2356 0 
L 1766 0 
Q 1100 0 847 248 
Q 594 497 594 1153 
L 594 3053 
L 172 3053 
L 172 3500 
L 594 3500 
L 594 4494 
L 1172 4494 
z
" id="DejaVuSans-74" transform="scale(0.015625)"/>
       <path d="M 3597 1894 
L 3597 1613 
L 953 1613 
Q 991 1019 1311 708 
Q 1631 397 2203 397 
Q 2534 397 2845 478 
Q 3156 559 3463 722 
L 3463 178 
Q 3153 47 2828 -22 
Q 2503 -91 2169 -91 
Q 1331 -91 842 396 
Q 353 884 353 1716 
Q 353 2575 817 3079 
Q 1281 3584 2069 3584 
Q 2775 3584 3186 3129 
Q 3597 2675 3597 1894 
z
M 3022 2063 
Q 3016 2534 2758 2815 
Q 2500 3097 2075 3097 
Q 1594 3097 1305 2825 
Q 1016 2553 972 2059 
L 3022 2063 
z
" id="DejaVuSans-65" transform="scale(0.015625)"/>
       <path d="M 2631 2963 
Q 2534 3019 2420 3045 
Q 2306 3072 2169 3072 
Q 1681 3072 1420 2755 
Q 1159 2438 1159 1844 
L 1159 0 
L 581 0 
L 581 3500 
L 1159 3500 
L 1159 2956 
Q 1341 3275 1631 3429 
Q 1922 3584 2338 3584 
Q 2397 3584 2469 3576 
Q 2541 3569 2628 3553 
L 2631 2963 
z
" id="DejaVuSans-72" transform="scale(0.015625)"/>
       <path d="M 2194 1759 
Q 1497 1759 1228 1600 
Q 959 1441 959 1056 
Q 959 750 1161 570 
Q 1363 391 1709 391 
Q 2188 391 2477 730 
Q 2766 1069 2766 1631 
L 2766 1759 
L 2194 1759 
z
M 3341 1997 
L 3341 0 
L 2766 0 
L 2766 531 
Q 2569 213 2275 61 
Q 1981 -91 1556 -91 
Q 1019 -91 701 211 
Q 384 513 384 1019 
Q 384 1609 779 1909 
Q 1175 2209 1959 2209 
L 2766 2209 
L 2766 2266 
Q 2766 2663 2505 2880 
Q 2244 3097 1772 3097 
Q 1472 3097 1187 3025 
Q 903 2953 641 2809 
L 641 3341 
Q 956 3463 1253 3523 
Q 1550 3584 1831 3584 
Q 2591 3584 2966 3190 
Q 3341 2797 3341 1997 
z
" id="DejaVuSans-61" transform="scale(0.015625)"/>
       <path d="M 1959 3097 
Q 1497 3097 1228 2736 
Q 959 2375 959 1747 
Q 959 1119 1226 758 
Q 1494 397 1959 397 
Q 2419 397 2687 759 
Q 2956 1122 2956 1747 
Q 2956 2369 2687 2733 
Q 2419 3097 1959 3097 
z
M 1959 3584 
Q 2709 3584 3137 3096 
Q 3566 2609 3566 1747 
Q 3566 888 3137 398 
Q 2709 -91 1959 -91 
Q 1206 -91 779 398 
Q 353 888 353 1747 
Q 353 2609 779 3096 
Q 1206 3584 1959 3584 
z
" id="DejaVuSans-6f" transform="scale(0.015625)"/>
       <path d="M 3513 2113 
L 3513 0 
L 2938 0 
L 2938 2094 
Q 2938 2591 2744 2837 
Q 2550 3084 2163 3084 
Q 1697 3084 1428 2787 
Q 1159 2491 1159 1978 
L 1159 0 
L 581 0 
L 581 3500 
L 1159 3500 
L 1159 2956 
Q 1366 3272 1645 3428 
Q 1925 3584 2291 3584 
Q 2894 3584 3203 3211 
Q 3513 2838 3513 2113 
z
" id="DejaVuSans-6e" transform="scale(0.015625)"/>
      </defs>
      <use xlink:href="#DejaVuSans-69"/>
      <use x="27.783203" xlink:href="#DejaVuSans-74"/>
      <use x="66.992188" xlink:href="#DejaVuSans-65"/>
      <use x="128.515625" xlink:href="#DejaVuSans-72"/>
      <use x="169.628906" xlink:href="#DejaVuSans-61"/>
      <use x="230.908203" xlink:href="#DejaVuSans-74"/>
      <use x="270.117188" xlink:href="#DejaVuSans-69"/>
      <use x="297.900391" xlink:href="#DejaVuSans-6f"/>
      <use x="359.082031" xlink:href="#DejaVuSans-6e"/>
     </g>
    </g>
   </g>
   <g id="matplotlib.axis_2">
    <g id="ytick_1">
     <g id="line2d_8">
      <defs>
       <path d="M 0 0 
L -3.5 0 
" id="mbe206232f4" style="stroke:#ffffff;stroke-width:0.8;"/>
      </defs>
      <g>
       <use style="fill:#ffffff;stroke:#ffffff;stroke-width:0.8;" x="126" xlink:href="#mbe206232f4" y="484.232727"/>
      </g>
     </g>
     <g id="text_9">
      <!-- 0 -->
      <g style="fill:#ffffff;" transform="translate(112.6375 488.031946)scale(0.1 -0.1)">
       <use xlink:href="#DejaVuSans-30"/>
      </g>
     </g>
    </g>
    <g id="ytick_2">
     <g id="line2d_9">
      <g>
       <use style="fill:#ffffff;stroke:#ffffff;stroke-width:0.8;" x="126" xlink:href="#mbe206232f4" y="413.534327"/>
      </g>
     </g>
     <g id="text_10">
      <!-- 5000 -->
      <g style="fill:#ffffff;" transform="translate(93.55 417.333546)scale(0.1 -0.1)">
       <use xlink:href="#DejaVuSans-35"/>
       <use x="63.623047" xlink:href="#DejaVuSans-30"/>
       <use x="127.246094" xlink:href="#DejaVuSans-30"/>
       <use x="190.869141" xlink:href="#DejaVuSans-30"/>
      </g>
     </g>
    </g>
    <g id="ytick_3">
     <g id="line2d_10">
      <g>
       <use style="fill:#ffffff;stroke:#ffffff;stroke-width:0.8;" x="126" xlink:href="#mbe206232f4" y="342.835927"/>
      </g>
     </g>
     <g id="text_11">
      <!-- 10000 -->
      <g style="fill:#ffffff;" transform="translate(87.1875 346.635145)scale(0.1 -0.1)">
       <use xlink:href="#DejaVuSans-31"/>
       <use x="63.623047" xlink:href="#DejaVuSans-30"/>
       <use x="127.246094" xlink:href="#DejaVuSans-30"/>
       <use x="190.869141" xlink:href="#DejaVuSans-30"/>
       <use x="254.492188" xlink:href="#DejaVuSans-30"/>
      </g>
     </g>
    </g>
    <g id="ytick_4">
     <g id="line2d_11">
      <g>
       <use style="fill:#ffffff;stroke:#ffffff;stroke-width:0.8;" x="126" xlink:href="#mbe206232f4" y="272.137526"/>
      </g>
     </g>
     <g id="text_12">
      <!-- 15000 -->
      <g style="fill:#ffffff;" transform="translate(87.1875 275.936745)scale(0.1 -0.1)">
       <use xlink:href="#DejaVuSans-31"/>
       <use x="63.623047" xlink:href="#DejaVuSans-35"/>
       <use x="127.246094" xlink:href="#DejaVuSans-30"/>
       <use x="190.869141" xlink:href="#DejaVuSans-30"/>
       <use x="254.492188" xlink:href="#DejaVuSans-30"/>
      </g>
     </g>
    </g>
    <g id="ytick_5">
     <g id="line2d_12">
      <g>
       <use style="fill:#ffffff;stroke:#ffffff;stroke-width:0.8;" x="126" xlink:href="#mbe206232f4" y="201.439126"/>
      </g>
     </g>
     <g id="text_13">
      <!-- 20000 -->
      <g style="fill:#ffffff;" transform="translate(87.1875 205.238345)scale(0.1 -0.1)">
       <use xlink:href="#DejaVuSans-32"/>
       <use x="63.623047" xlink:href="#DejaVuSans-30"/>
       <use x="127.246094" xlink:href="#DejaVuSans-30"/>
       <use x="190.869141" xlink:href="#DejaVuSans-30"/>
       <use x="254.492188" xlink:href="#DejaVuSans-30"/>
      </g>
     </g>
    </g>
    <g id="ytick_6">
     <g id="line2d_13">
      <g>
       <use style="fill:#ffffff;stroke:#ffffff;stroke-width:0.8;" x="126" xlink:href="#mbe206232f4" y="130.740726"/>
      </g>
     </g>
     <g id="text_14">
      <!-- 25000 -->
      <g style="fill:#ffffff;" transform="translate(87.1875 134.539944)scale(0.1 -0.1)">
       <use xlink:href="#DejaVuSans-32"/>
       <use x="63.623047" xlink:href="#DejaVuSans-35"/>
       <use x="127.246094" xlink:href="#DejaVuSans-30"/>
       <use x="190.869141" xlink:href="#DejaVuSans-30"/>
       <use x="254.492188" xlink:href="#DejaVuSans-30"/>
      </g>
     </g>
    </g>
   </g>
   <g id="line2d_14">
    <path clip-path="url(#pad1bf08805)" d="M 161.509091 230.566867 
L 161.744328 221.220538 
L 162.214803 279.94263 
L 162.450041 252.313695 
L 162.685278 259.326976 
L 163.155753 304.630511 
L 163.39099 333.235084 
L 163.861465 290.236317 
L 164.096703 289.755568 
L 164.567178 307.7978 
L 164.802415 295.595256 
L 165.037652 273.381818 
L 165.27289 262.211471 
L 165.508127 266.24128 
L 165.978602 304.913305 
L 166.449077 287.380102 
L 166.684314 308.137152 
L 166.919552 283.717924 
L 167.625264 249.938229 
L 167.860502 224.925135 
L 168.095739 224.925135 
L 168.801451 270.143832 
L 169.036689 236.533812 
L 169.271926 231.853578 
L 169.507164 207.377792 
L 169.977639 256.343504 
L 170.212876 253.303473 
L 170.448113 248.425283 
L 170.683351 260.627827 
L 171.389063 332.938151 
L 171.859538 282.402934 
L 172.094776 282.402934 
L 172.330013 250.433118 
L 172.56525 275.446212 
L 172.800488 264.92629 
L 173.035725 289.684869 
L 173.5062 241.49684 
L 173.741438 235.3178 
L 174.44715 311.134764 
L 174.682387 286.12167 
L 174.917625 277.835817 
L 175.152862 251.564292 
L 175.3881 257.743332 
L 175.623337 268.107718 
L 175.858574 261.928677 
L 176.093812 270.21453 
L 176.329049 247.817277 
L 176.564287 249.44334 
L 176.799524 255.62238 
L 177.269999 302.057089 
L 177.505237 283.152337 
L 177.740474 276.139056 
L 177.975711 255.226469 
L 178.210949 287.196286 
L 178.446186 292.074475 
L 178.681424 285.895435 
L 178.916661 265.138385 
L 179.151899 289.614171 
L 179.387136 267.400734 
L 179.622373 291.197815 
L 179.857611 270.440765 
L 180.092848 304.149762 
L 180.328086 310.979228 
L 180.563323 323.450425 
L 180.798561 344.363012 
L 181.033798 313.354694 
L 181.269036 338.367788 
L 181.504273 328.003402 
L 181.73951 323.125213 
L 181.974748 323.125213 
L 182.209985 333.645135 
L 182.445223 352.549887 
L 182.915698 323.478705 
L 183.150935 302.721654 
L 183.386172 293.149091 
L 183.62141 266.877565 
L 183.856647 277.241951 
L 184.091885 274.20192 
L 184.327122 275.248256 
L 184.56236 250.235162 
L 184.797597 255.113352 
L 185.032834 267.315896 
L 185.268072 267.315896 
L 185.503309 289.529333 
L 185.738547 261.900398 
L 185.973784 259.14316 
L 186.209022 251.804666 
L 186.444259 260.345033 
L 186.679497 276.817761 
L 186.914734 262.890176 
L 187.385209 324.284666 
L 188.090921 251.832946 
L 188.326159 253.628685 
L 188.561396 244.084401 
L 188.796633 277.694421 
L 189.267108 301.16629 
L 189.502346 289.430355 
L 189.737583 313.906141 
L 189.972821 291.87652 
L 190.208058 286.461022 
L 190.443295 311.983145 
L 190.678533 307.104955 
L 190.91377 339.074772 
L 191.149008 332.895732 
L 191.384245 312.138681 
L 191.85472 370.53556 
L 192.089958 387.404198 
L 192.325195 362.391104 
L 192.560432 384.307608 
L 193.501382 316.027093 
L 193.73662 304.291159 
L 194.207094 352.677144 
L 194.442332 354.303207 
L 194.677569 320.537651 
L 194.912807 330.081935 
L 195.148044 307.684682 
L 195.383282 311.247881 
L 195.618519 294.775154 
L 195.853757 301.788436 
L 196.794706 395.477956 
L 197.735656 312.972922 
L 197.970893 339.244448 
L 198.206131 337.618385 
L 198.441368 270.850816 
L 198.676606 287.719454 
L 198.911843 263.300226 
L 199.147081 280.706173 
L 199.382318 275.827983 
L 199.617555 298.592868 
L 199.852793 277.835817 
L 200.08803 304.107343 
L 200.323268 314.471729 
L 200.558505 288.299181 
L 200.793743 276.096637 
L 201.02898 242.486617 
L 201.264218 276.096637 
L 201.499455 288.186063 
L 201.734692 280.83343 
L 201.96993 290.179758 
L 202.205167 313.142599 
L 202.440405 303.598315 
L 202.675642 327.437815 
L 202.91088 333.616855 
L 203.616592 298.083839 
L 204.087067 317.907671 
L 204.322304 284.297651 
L 204.557542 275.644167 
L 205.028017 320.58007 
L 205.498491 304.036645 
L 205.733729 337.646664 
L 205.968966 303.881108 
L 206.204204 303.881108 
L 206.439441 281.964604 
L 206.674679 303.881108 
L 206.909916 303.697292 
L 207.380391 262.225611 
L 207.615628 260.118798 
L 207.850866 286.376184 
L 208.086103 285.867156 
L 208.556578 331.835256 
L 209.027053 280.564776 
L 209.497528 324.256387 
L 209.732765 303.3438 
L 209.968003 317.228966 
L 210.20324 317.327944 
L 210.438478 300.431026 
L 210.673715 306.921139 
L 211.14419 260.076379 
L 211.379427 270.596301 
L 211.614665 272.802091 
L 212.320377 328.667967 
L 212.790852 279.235646 
L 213.026089 277.779259 
L 213.496564 300.940055 
L 213.731802 288.737511 
L 213.967039 256.767694 
L 214.202276 255.141631 
L 214.437514 270.879095 
L 214.672751 267.839064 
L 215.143226 322.121295 
L 215.848939 240.422224 
L 216.084176 271.430542 
L 216.554651 274.541272 
L 216.789888 268.362232 
L 217.025126 277.906516 
L 217.260363 252.384393 
L 217.730838 277.439906 
L 217.966075 317.299665 
L 218.201313 334.224862 
L 218.671788 288.511276 
L 219.142263 330.180913 
L 219.3775 362.15073 
L 219.612738 341.238143 
L 219.847975 337.434569 
L 220.083212 346.498104 
L 220.31845 338.212251 
L 220.553687 359.124838 
L 220.788925 355.915131 
L 221.024162 338.028436 
L 221.2594 338.028436 
L 221.494637 345.296231 
L 221.965112 381.069622 
L 222.200349 356.311042 
L 222.435587 344.108498 
L 222.670824 318.586375 
L 222.906062 323.931174 
L 223.376536 373.872524 
L 223.847011 321.824362 
L 224.082249 334.026906 
L 224.317486 302.057089 
L 224.787961 345.890098 
L 225.023199 320.367975 
L 225.258436 352.337792 
L 225.728911 306.652485 
L 225.964148 322.248553 
L 226.199386 325.557238 
L 226.434623 332.570519 
L 226.669861 311.813469 
L 226.905098 314.8535 
L 227.375573 282.204979 
L 227.61081 288.384019 
L 227.846048 285.343988 
L 228.081285 319.109544 
L 228.316523 287.691174 
L 228.55176 284.382489 
L 228.786998 258.110964 
L 229.022235 259.1573 
L 229.257472 271.359844 
L 229.49271 277.29851 
L 229.727947 277.29851 
L 229.963185 274.18778 
L 230.198422 253.43073 
L 230.668897 248.312165 
L 230.904134 269.083356 
L 231.139372 270.709419 
L 231.845084 355.589918 
L 232.080322 345.069996 
L 232.550796 287.620476 
L 232.786034 312.039704 
L 233.021271 289.64245 
L 233.256509 282.629169 
L 233.726984 239.870776 
L 234.197459 283.265455 
L 234.432696 278.387265 
L 234.903171 225.660398 
L 235.138408 235.204682 
L 235.608883 307.75538 
L 235.844121 308.123012 
L 236.079358 327.536793 
L 236.549833 275.022021 
L 236.78507 289.458634 
L 237.020308 284.580445 
L 237.255545 301.039032 
L 237.490783 255.254748 
L 237.72602 265.77467 
L 237.961257 265.77467 
L 238.196495 262.734639 
L 238.431732 265.77467 
L 238.66697 256.230386 
L 238.902207 234.313882 
L 239.137445 260.571268 
L 239.372682 258.945205 
L 239.843157 291.975498 
L 240.078394 288.935466 
L 240.313632 313.694046 
L 240.548869 305.408194 
L 240.784107 327.621631 
L 241.019344 302.099508 
L 241.254582 295.920468 
L 241.489819 326.928787 
L 241.725056 316.408865 
L 241.960294 348.378681 
L 242.195531 364.837269 
L 242.901244 282.374655 
L 243.136481 292.73904 
L 243.371719 285.725759 
L 243.606956 296.245681 
L 243.842193 320.085182 
L 244.077431 328.371034 
L 244.312668 318.006649 
L 244.547906 293.248069 
L 244.783143 297.857604 
L 245.018381 245.144877 
L 245.253618 234.624955 
L 245.95933 307.034257 
L 246.194568 310.074288 
L 246.429805 320.551791 
L 246.665043 317.51176 
L 246.90028 299.101896 
L 247.135517 296.542614 
L 247.370755 327.550933 
L 247.605992 178.136933 
L 247.84123 197.041686 
L 248.076467 230.651705 
L 248.311705 214.193117 
L 248.78218 156.107312 
L 249.017417 160.801686 
L 249.487892 229.181178 
L 249.723129 229.181178 
L 249.958367 255.452704 
L 250.193604 245.088318 
L 250.428842 245.088318 
L 250.664079 232.390886 
L 251.134554 267.471432 
L 251.369791 262.550823 
L 251.605029 296.160843 
L 251.840266 285.24501 
L 252.075504 309.664237 
L 252.310741 283.406851 
L 252.545978 283.406851 
L 252.781216 301.279407 
L 253.016453 273.650472 
L 253.486928 322.093016 
L 253.722166 323.719079 
L 254.192641 368.145954 
L 254.427878 366.519891 
L 254.898353 305.436473 
L 255.13359 310.314663 
L 255.368828 335.836785 
L 255.604065 302.226766 
L 255.839303 298.423192 
L 256.07454 322.262692 
L 256.309777 318.218744 
L 256.545015 322.022318 
L 256.780252 303.117565 
L 257.01549 336.727585 
L 257.485965 322.262692 
L 257.721202 323.181771 
L 258.191677 339.880734 
L 258.426914 327.67819 
L 258.662152 321.49915 
L 258.897389 331.863535 
L 259.132627 307.387749 
L 259.367864 295.651814 
L 259.603102 326.78739 
L 259.838339 320.749746 
L 260.073576 337.208334 
L 260.308814 337.208334 
L 260.544051 339.753476 
L 260.779289 314.740382 
L 261.014526 338.579883 
L 261.249764 329.035599 
L 261.485001 328.950761 
L 261.720238 345.819399 
L 262.190713 282.841264 
L 262.425951 274.555412 
L 262.661188 286.291346 
L 262.896426 269.422708 
L 263.131663 299.568506 
L 263.602138 250.079625 
L 263.837375 261.81556 
L 264.072613 292.823878 
L 264.543088 262.833617 
L 264.778325 264.869731 
L 265.013563 285.782318 
L 265.484037 244.706547 
L 265.719275 259.864284 
L 265.954512 232.235349 
L 266.424987 232.235349 
L 266.660225 201.227031 
L 266.895462 213.076083 
L 267.601174 287.634616 
L 267.836412 286.008553 
L 268.071649 259.836005 
L 268.306887 284.311791 
L 268.542124 250.701771 
L 268.777362 262.904315 
L 269.247836 217.360406 
L 269.483074 216.441327 
L 269.718311 216.441327 
L 269.953549 210.332985 
L 270.188786 220.69737 
L 270.424024 199.94032 
L 270.659261 196.900289 
L 271.600211 286.828654 
L 272.305923 217.501803 
L 272.776398 263.837534 
L 273.011635 254.29325 
L 273.246873 229.874023 
L 273.48211 223.694982 
L 273.717348 234.115927 
L 273.952585 235.897526 
L 274.42306 226.225985 
L 274.658297 283.081639 
L 274.893535 257.559516 
L 275.128772 252.327835 
L 275.36401 260.981319 
L 275.599247 260.981319 
L 275.834485 277.849957 
L 276.069722 309.819774 
L 276.304959 306.779743 
L 276.540197 280.522357 
L 276.775434 283.562388 
L 277.010672 349.085665 
L 277.245909 349.085665 
L 277.481147 328.328615 
L 277.951622 314.796941 
L 278.186859 339.810035 
L 278.422096 330.265751 
L 278.892571 345.564885 
L 279.363046 295.83563 
L 279.833521 295.83563 
L 280.068758 326.843949 
L 280.303996 303.004448 
L 280.539233 302.820632 
L 280.774471 280.904128 
L 281.009708 280.084027 
L 281.244946 257.686773 
L 281.715421 257.686773 
L 281.950658 245.484229 
L 282.185895 274.414015 
L 282.421133 277.454046 
L 282.65637 266.934124 
L 283.126845 301.802575 
L 283.362083 327.975123 
L 283.59732 320.961842 
L 284.067795 340.50288 
L 284.303032 342.22792 
L 284.53827 330.025377 
L 284.773507 337.505267 
L 285.008745 318.628794 
L 285.243982 318.628794 
L 285.479219 325.642076 
L 285.714457 319.463036 
L 285.949694 294.987249 
L 286.184932 292.965275 
L 286.420169 281.568693 
L 286.655407 256.810113 
L 286.890644 245.682185 
L 287.125882 267.598689 
L 287.361119 258.209942 
L 287.831594 319.448896 
L 288.066831 291.819961 
L 288.302069 285.640921 
L 288.537306 260.627827 
L 288.772544 277.835817 
L 289.007781 279.673976 
L 289.243018 274.795786 
L 289.478256 273.29698 
L 289.713493 297.716208 
L 289.948731 272.194085 
L 290.183968 274.61197 
L 290.419206 271.571939 
L 290.654443 271.571939 
L 291.124918 250.814889 
L 291.360155 261.037878 
L 291.595393 242.133125 
L 291.83063 273.042466 
L 292.065868 251.125962 
L 292.301105 270.030714 
L 292.536343 277.043995 
L 293.242055 209.060414 
L 293.477292 181.431479 
L 293.947767 181.431479 
L 294.183005 184.881561 
L 294.418242 198.271838 
L 294.653479 200.109996 
L 294.888717 195.231807 
L 295.123954 196.4054 
L 295.359192 218.618837 
L 295.594429 206.882903 
L 295.829667 205.780008 
L 296.064904 205.780008 
L 296.300142 229.619508 
L 296.535379 203.362123 
L 296.770616 203.362123 
L 297.241091 278.528662 
L 297.476329 250.899727 
L 297.711566 238.216434 
L 297.946804 265.845369 
L 298.182041 241.369583 
L 298.417278 241.369583 
L 298.887753 301.406664 
L 299.122991 273.777729 
L 299.358228 292.682482 
L 299.593466 286.503441 
L 299.828703 275.983519 
L 300.06394 242.3735 
L 300.299178 254.576044 
L 300.534415 222.606227 
L 300.769653 210.403683 
L 301.00489 222.606227 
L 301.240128 210.870293 
L 301.475365 256.004151 
L 301.94584 271.685057 
L 302.181077 246.855778 
L 302.416315 242.981506 
L 302.651552 261.886258 
L 302.88679 237.410472 
L 303.122027 229.025642 
L 303.357265 249.118127 
L 303.592502 228.361077 
L 304.062977 260.48643 
L 304.298214 250.122045 
L 304.533452 250.122045 
L 304.768689 274.541272 
L 305.003927 249.019149 
L 305.474402 233.168568 
L 305.709639 283.251315 
L 305.944876 259.411814 
L 306.180114 249.86753 
L 306.415351 260.231916 
L 306.650589 260.231916 
L 307.121064 310.385361 
L 307.356301 284.212813 
L 307.591538 317.978369 
L 307.826776 317.978369 
L 308.062013 307.458447 
L 308.297251 281.201061 
L 308.767726 262.720499 
L 309.002963 255.367866 
L 309.2382 255.367866 
L 309.473438 245.00348 
L 309.943913 288.256762 
L 310.17915 285.21673 
L 310.414388 311.474116 
L 310.649625 313.10018 
L 310.884863 288.680952 
L 311.1201 276.478408 
L 311.355337 279.518439 
L 311.590575 257.305002 
L 311.825812 223.539446 
L 312.06105 245.767023 
L 312.296287 237.481171 
L 312.766762 299.130176 
L 313.001999 278.217589 
L 313.237237 285.570222 
L 313.472474 333.461319 
L 313.707712 331.835256 
L 313.942949 333.461319 
L 314.178187 359.718705 
L 314.413424 334.960125 
L 314.648662 345.32451 
L 314.883899 335.780226 
L 315.119136 309.607679 
L 315.354374 321.810222 
L 315.589611 318.770191 
L 315.824849 280.281982 
L 316.060086 280.791011 
L 316.295324 304.630511 
L 316.530561 283.717924 
L 316.765798 280.593055 
L 317.236273 331.580741 
L 317.706748 320.523512 
L 318.41246 280.055747 
L 318.647698 286.404464 
L 318.882935 261.985236 
L 319.118173 263.710277 
L 319.35341 263.710277 
L 319.588648 251.507733 
L 319.823885 255.311307 
L 320.059123 247.025455 
L 320.29436 247.025455 
L 320.529597 240.846414 
L 320.764835 267.018962 
L 321.000072 273.198002 
L 321.23531 256.739415 
L 321.470547 256.739415 
L 321.705785 266.283699 
L 321.941022 267.330035 
L 322.411497 221.559891 
L 322.646734 246.035677 
L 323.117209 184.796723 
L 323.352447 177.528927 
L 323.587684 177.528927 
L 323.822921 202.994491 
L 324.058159 202.994491 
L 324.528634 243.70263 
L 324.763871 211.732813 
L 325.234346 195.033851 
L 325.469584 195.033851 
L 325.704821 201.806758 
L 325.940058 223.256652 
L 326.175296 221.333656 
L 326.410533 239.757659 
L 326.645771 267.386594 
L 326.881008 239.757659 
L 327.116246 267.386594 
L 327.351483 279.589138 
L 327.58672 258.676551 
L 327.821958 279.589138 
L 328.057195 287.87499 
L 328.292433 286.248927 
L 328.52767 252.483371 
L 328.762908 256.343504 
L 328.998145 251.465314 
L 329.233383 241.92103 
L 329.46862 273.890847 
L 329.703857 282.176699 
L 330.174332 235.020866 
L 330.40957 235.020866 
L 330.644807 230.835521 
L 330.880045 264.601077 
L 331.115282 242.684573 
L 331.350519 232.164651 
L 331.820994 347.219228 
L 332.291469 299.992696 
L 332.526707 291.706844 
L 332.761944 296.71229 
L 332.997181 305.592009 
L 333.232419 275.219977 
L 333.467656 276.577386 
L 333.702894 295.736652 
L 333.938131 274.838205 
L 334.173369 284.000718 
L 334.408606 310.173266 
L 334.643844 310.173266 
L 335.114318 263.724417 
L 335.349556 263.724417 
L 335.584793 283.081639 
L 335.820031 274.018104 
L 336.055268 271.713336 
L 336.525743 271.713336 
L 336.76098 259.977402 
L 336.996218 259.977402 
L 337.466693 269.578244 
L 337.70193 280.098166 
L 337.937168 284.976356 
L 338.172405 284.976356 
L 338.64288 239.220351 
L 338.878117 237.721545 
L 339.113355 237.721545 
L 339.348592 263.243668 
L 339.58383 238.485088 
L 339.819067 233.762435 
L 340.054305 221.559891 
L 340.524779 221.559891 
L 340.760017 252.879282 
L 340.995254 266.085743 
L 341.230492 243.872306 
L 341.700967 243.872306 
L 341.936204 267.711807 
L 342.406679 267.711807 
L 342.641916 278.076192 
L 342.877154 250.447257 
L 343.347629 238.357831 
L 343.582866 272.123387 
L 344.053341 224.713039 
L 344.288578 255.721358 
L 344.759053 264.092048 
L 344.994291 264.092048 
L 345.229528 289.444495 
L 345.464766 264.685915 
L 345.700003 298.93222 
L 345.93524 298.93222 
L 346.170478 288.412298 
L 346.640953 306.101038 
L 346.87619 299.992696 
L 347.111428 299.992696 
L 347.346665 291.706844 
L 347.581902 288.75165 
L 347.81714 314.273773 
L 348.287615 259.425954 
L 348.522852 259.425954 
L 348.75809 271.628498 
L 348.993327 249.231245 
L 349.228565 249.231245 
L 349.463802 247.887975 
L 349.699039 247.887975 
L 349.934277 246.78508 
L 350.169514 236.265158 
L 350.404752 230.849661 
L 350.639989 255.862755 
L 350.875227 233.649317 
L 351.110464 235.006727 
L 351.580939 235.006727 
L 351.816176 255.961732 
L 352.051414 255.961732 
L 352.521889 288.454717 
L 352.757126 262.282169 
L 352.992364 287.87499 
L 353.227601 275.672446 
L 353.462838 223.35563 
L 353.698076 235.091565 
L 353.933313 235.091565 
L 354.168551 223.35563 
L 354.639026 253.360031 
L 355.1095 279.518439 
L 355.344738 279.518439 
L 355.579975 255.678939 
L 355.815213 268.998517 
L 356.05045 268.998517 
L 356.285688 285.287429 
L 356.520925 289.628311 
L 356.756162 239.856637 
L 356.9914 246.035677 
L 357.226637 241.157487 
L 357.461875 241.157487 
L 357.697112 267.429013 
L 357.93235 239.800078 
L 358.402825 232.419165 
L 358.638062 264.388982 
L 358.873299 254.024596 
L 359.108537 256.357643 
L 359.343774 230.100258 
L 359.814249 296.27396 
L 360.049487 262.663941 
L 360.284724 288.921327 
L 360.519961 272.462739 
L 360.755199 272.462739 
L 360.990436 251.705689 
L 361.225674 245.993258 
L 361.460911 273.622193 
L 361.696149 265.689832 
L 361.931386 274.428155 
L 362.166624 264.883871 
L 362.401861 260.005681 
L 362.637098 292.710761 
L 362.872336 292.710761 
L 363.107573 295.694233 
L 363.342811 295.694233 
L 363.813286 326.716691 
L 364.048523 349.170503 
L 364.28376 349.170503 
L 364.518998 354.048693 
L 364.754235 354.048693 
L 364.989473 335.17222 
L 365.22471 343.698447 
L 365.459948 346.710199 
L 365.695185 341.987546 
L 365.930422 343.613609 
L 366.16566 364.526196 
L 366.400897 340.05041 
L 366.636135 330.506126 
L 366.871372 330.506126 
L 367.10661 302.877191 
L 367.341847 302.877191 
L 367.577085 269.267171 
L 367.812322 305.450613 
L 368.047559 277.28437 
L 368.282797 277.28437 
L 368.518034 299.200874 
L 368.988509 252.808584 
L 369.223747 252.808584 
L 369.458984 263.328506 
L 369.694221 289.585892 
L 369.929459 285.782318 
L 370.164696 271.755755 
L 370.635171 271.670917 
L 370.870409 288.270901 
L 371.105646 287.931549 
L 371.340883 319.901366 
L 371.576121 316.592681 
L 371.811358 314.966617 
L 372.046596 322.474787 
L 372.281833 322.474787 
L 372.517071 324.100851 
L 372.752308 332.386703 
L 372.987546 332.386703 
L 373.222783 320.184159 
L 373.45802 295.708373 
L 373.693258 295.708373 
L 373.928495 298.748404 
L 374.163733 296.754709 
L 374.39897 296.754709 
L 374.634208 316.253328 
L 375.575157 316.253328 
L 376.045632 329.021459 
L 376.516107 271.755755 
L 376.751345 271.798174 
L 376.986582 250.942146 
L 377.221819 250.942146 
L 377.457057 246.063956 
L 377.692294 277.072275 
L 377.927532 277.072275 
L 378.162769 301.491502 
L 378.398007 269.521686 
L 378.633244 269.521686 
L 378.868481 267.895622 
L 379.103719 244.508592 
L 379.338956 266.128162 
L 379.809431 266.128162 
L 380.044669 267.909762 
L 380.279906 267.909762 
L 380.515143 258.365478 
L 380.750381 259.821865 
L 380.985618 228.813547 
L 381.220856 223.935357 
L 381.456093 213.415435 
L 381.691331 246.148794 
L 381.926568 219.877269 
L 382.161806 210.488521 
L 382.397043 241.49684 
L 382.867518 241.49684 
L 383.102755 267.669388 
L 383.337993 245.752883 
L 383.57323 245.752883 
L 383.808468 235.388498 
L 384.278942 235.388498 
L 384.51418 236.887304 
L 384.749417 261.900398 
L 384.984655 261.900398 
L 385.219892 265.958486 
L 385.690367 229.294296 
L 385.925605 229.294296 
L 386.160842 239.814218 
L 386.631317 184.966399 
L 386.866554 207.179836 
L 387.101792 190.311198 
L 388.042741 190.311198 
L 388.277979 214.150698 
L 388.748454 214.150698 
L 389.218929 189.745611 
L 389.454166 201.736059 
L 389.689403 190.000125 
L 389.924641 194.878315 
L 390.159878 222.167897 
L 390.395116 222.167897 
L 390.630353 228.276239 
L 390.865591 228.276239 
L 391.100828 240.012173 
L 391.336066 238.38611 
L 393.453202 238.38611 
L 393.68844 270.850816 
L 393.923677 270.850816 
L 394.158915 272.109247 
L 394.864627 272.109247 
L 395.805577 231.938416 
L 396.040814 231.938416 
L 396.276052 230.482029 
L 396.511289 233.437222 
L 396.746527 233.437222 
L 396.981764 255.353726 
L 397.217001 233.437222 
L 397.452239 237.311494 
L 397.687476 237.311494 
L 397.922714 212.666032 
L 398.157951 212.666032 
L 398.628426 228.870105 
L 398.863663 247.986953 
L 399.098901 247.986953 
L 399.334138 238.442669 
L 399.569376 241.949309 
L 399.804613 218.109809 
L 400.039851 238.866859 
L 400.275088 238.866859 
L 400.510326 228.502474 
L 400.745563 228.502474 
L 400.9808 197.494155 
L 401.92175 197.494155 
L 402.156988 225.12309 
L 402.627462 225.12309 
L 402.8627 241.313024 
L 403.097937 209.343207 
L 404.274124 209.343207 
L 404.509362 211.690394 
L 404.744599 203.107608 
L 405.215074 203.107608 
L 405.450312 208.79176 
L 405.685549 208.79176 
L 405.920787 207.745423 
L 406.156024 211.605556 
L 406.391261 211.605556 
L 407.096974 178.645962 
L 407.567449 230.524448 
L 407.802686 208.127195 
L 409.214111 208.127195 
L 409.449348 209.314928 
L 409.919823 228.163121 
L 410.15506 221.984081 
L 410.390298 221.984081 
L 410.625535 219.537917 
L 410.860773 199.445431 
L 411.09601 190.424315 
L 411.331248 175.492813 
L 412.272197 175.492813 
L 412.507435 202.428904 
L 412.97791 224.826157 
L 413.213147 224.826157 
L 413.448384 243.730909 
L 414.154097 169.42689 
L 414.859809 169.42689 
L 415.095047 183.057542 
L 415.565521 183.057542 
L 415.800759 180.229606 
L 416.035996 168.027062 
L 420.505508 168.027062 
L 420.975982 180.017511 
L 421.681695 180.017511 
L 421.916932 211.704534 
L 422.15217 212.213562 
L 422.387407 208.409988 
L 422.857882 208.409988 
L 423.093119 242.175544 
L 423.328357 237.297355 
L 423.563594 220.838767 
L 423.798832 220.838767 
L 424.034069 244.678268 
L 424.504544 244.678268 
L 424.739781 229.789185 
L 425.210256 229.789185 
L 425.445494 231.895997 
L 425.680731 231.895997 
L 425.915969 228.855966 
L 426.621681 228.855966 
L 426.856918 221.475053 
L 427.092156 200.562466 
L 427.327393 200.562466 
L 427.562631 204.36604 
L 428.033105 156.19215 
L 429.209293 156.276988 
L 429.44453 162.456028 
L 430.38548 162.456028 
L 430.620717 152.091643 
L 431.796904 152.091643 
L 432.267379 217.671479 
L 432.502617 217.671479 
L 432.737854 205.468935 
L 432.973092 179.197409 
L 433.208329 179.197409 
L 433.443567 184.683605 
L 433.678804 180.130628 
L 434.619754 180.130628 
L 434.854991 200.887679 
L 435.090229 200.887679 
L 435.325466 197.847647 
L 435.795941 197.847647 
L 436.031178 200.39279 
L 436.266416 190.848506 
L 436.501653 190.848506 
L 436.736891 195.726695 
L 437.913078 195.726695 
L 438.148315 190.848506 
L 438.854028 190.848506 
L 439.089265 193.888537 
L 439.324502 193.888537 
L 439.55974 160.278517 
L 440.50069 160.278517 
L 440.735927 196.702333 
L 440.971164 188.147827 
L 441.206402 190.509153 
L 441.441639 179.451924 
L 441.676877 181.445618 
L 441.912114 166.924167 
L 442.147352 166.924167 
L 442.382589 135.915849 
L 443.558776 135.915849 
L 443.794014 142.632197 
L 444.029251 142.632197 
L 444.264489 130.429653 
L 444.970201 130.429653 
L 445.205438 138.376153 
L 445.440676 138.376153 
L 445.675913 144.314819 
L 448.969237 144.314819 
L 449.204475 156.969832 
L 449.67495 156.969832 
L 449.910187 187.285306 
L 450.145424 185.489567 
L 451.086374 185.433008 
L 451.321612 174.913086 
L 451.556849 174.913086 
L 451.792086 165.368802 
L 452.027324 174.913086 
L 453.438749 174.913086 
L 453.673986 180.667936 
L 453.909223 172.707296 
L 454.379698 172.707296 
L 454.614936 183.227218 
L 454.850173 183.227218 
L 455.085411 171.024674 
L 455.791123 171.024674 
L 456.02636 160.504752 
L 457.90826 160.518892 
L 458.143497 143.565416 
L 458.378735 143.565416 
L 458.613972 137.386375 
L 459.319684 137.386375 
L 459.554922 134.346344 
L 460.495872 134.346344 
L 460.731109 144.866266 
L 461.201584 144.866266 
L 461.436821 139.988076 
L 464.259671 139.988076 
L 464.494908 142.010051 
L 464.965383 142.010051 
L 465.20062 147.80732 
L 467.08252 147.722481 
L 467.317757 152.600671 
L 467.788232 152.600671 
L 468.02347 132.508186 
L 468.258707 153.887382 
L 468.493944 153.887382 
L 468.729182 142.151448 
L 471.316794 142.151448 
L 471.552031 154.353991 
L 478.138679 154.353991 
L 478.373917 144.809707 
L 480.961529 144.809707 
L 481.196766 166.259602 
L 481.432003 166.259602 
L 481.667241 163.219571 
L 485.666277 163.219571 
L 485.901515 159.401857 
L 486.136752 159.401857 
L 486.607227 147.029637 
L 487.548177 147.029637 
L 487.783414 137.230839 
L 488.724364 137.230839 
L 488.959601 134.190808 
L 490.135788 134.190808 
L 490.371026 139.068997 
L 494.134825 139.068997 
L 494.370062 134.190808 
L 498.133861 134.190808 
L 498.369099 121.450956 
L 504.250035 121.450956 
L 504.485272 130.99524 
L 508.719546 130.99524 
L 508.954783 129.637831 
L 512.95382 129.637831 
L 513.189057 120.093547 
L 517.423331 120.093547 
L 517.658568 124.971736 
L 523.774742 124.971736 
L 524.009979 123.175997 
L 524.245217 118.297807 
L 525.656641 118.297807 
L 525.891879 119.612798 
L 530.36139 119.612798 
L 530.596627 118.962372 
L 530.831865 118.962372 
L 531.067102 106.759828 
L 533.654714 106.759828 
L 533.889952 101.881639 
L 544.475636 101.881639 
L 544.710874 94.401748 
L 626.808739 94.401748 
L 627.043976 88.887273 
L 871.690909 88.887273 
L 871.690909 88.887273 
" style="fill:none;stroke:#8dd3c7;stroke-linecap:square;stroke-width:1.5;"/>
   </g>
   <g id="line2d_15">
    <path clip-path="url(#pad1bf08805)" d="M 161.509091 230.566867 
L 161.744328 221.220538 
L 169.271926 221.220538 
L 169.507164 207.377792 
L 247.370755 207.377792 
L 247.605992 178.136933 
L 248.546942 178.136933 
L 248.78218 156.107312 
L 430.38548 156.107312 
L 430.620717 152.091643 
L 442.147352 152.091643 
L 442.382589 135.915849 
L 444.029251 135.915849 
L 444.264489 130.429653 
L 498.133861 130.429653 
L 498.369099 121.450956 
L 512.95382 121.450956 
L 513.189057 120.093547 
L 524.009979 120.093547 
L 524.245217 118.297807 
L 530.831865 118.297807 
L 531.067102 106.759828 
L 533.654714 106.759828 
L 533.889952 101.881639 
L 544.475636 101.881639 
L 544.710874 94.401748 
L 626.808739 94.401748 
L 627.043976 88.887273 
L 871.690909 88.887273 
L 871.690909 88.887273 
" style="fill:none;stroke:#feffb3;stroke-linecap:square;stroke-width:1.5;"/>
   </g>
   <g id="line2d_16">
    <path clip-path="url(#pad1bf08805)" d="M 161.509091 484.207361 
L 871.690909 484.232727 
L 871.690909 484.232727 
" style="fill:none;stroke:#bfbbd9;stroke-linecap:square;stroke-width:1.5;"/>
   </g>
   <g id="patch_3">
    <path d="M 126 504 
L 126 69.12 
" style="fill:none;stroke:#ffffff;stroke-linecap:square;stroke-linejoin:miter;stroke-width:0.8;"/>
   </g>
   <g id="patch_4">
    <path d="M 907.2 504 
L 907.2 69.12 
" style="fill:none;stroke:#ffffff;stroke-linecap:square;stroke-linejoin:miter;stroke-width:0.8;"/>
   </g>
   <g id="patch_5">
    <path d="M 126 504 
L 907.2 504 
" style="fill:none;stroke:#ffffff;stroke-linecap:square;stroke-linejoin:miter;stroke-width:0.8;"/>
   </g>
   <g id="patch_6">
    <path d="M 126 69.12 
L 907.2 69.12 
" style="fill:none;stroke:#ffffff;stroke-linecap:square;stroke-linejoin:miter;stroke-width:0.8;"/>
   </g>
   <g id="text_15">
    <!-- instance 2 with error 0.003812306267146459 -->
    <g style="fill:#ffffff;" transform="translate(378.046875 63.12)scale(0.12 -0.12)">
     <defs>
      <path d="M 2834 3397 
L 2834 2853 
Q 2591 2978 2328 3040 
Q 2066 3103 1784 3103 
Q 1356 3103 1142 2972 
Q 928 2841 928 2578 
Q 928 2378 1081 2264 
Q 1234 2150 1697 2047 
L 1894 2003 
Q 2506 1872 2764 1633 
Q 3022 1394 3022 966 
Q 3022 478 2636 193 
Q 2250 -91 1575 -91 
Q 1294 -91 989 -36 
Q 684 19 347 128 
L 347 722 
Q 666 556 975 473 
Q 1284 391 1588 391 
Q 1994 391 2212 530 
Q 2431 669 2431 922 
Q 2431 1156 2273 1281 
Q 2116 1406 1581 1522 
L 1381 1569 
Q 847 1681 609 1914 
Q 372 2147 372 2553 
Q 372 3047 722 3315 
Q 1072 3584 1716 3584 
Q 2034 3584 2315 3537 
Q 2597 3491 2834 3397 
z
" id="DejaVuSans-73" transform="scale(0.015625)"/>
      <path d="M 3122 3366 
L 3122 2828 
Q 2878 2963 2633 3030 
Q 2388 3097 2138 3097 
Q 1578 3097 1268 2742 
Q 959 2388 959 1747 
Q 959 1106 1268 751 
Q 1578 397 2138 397 
Q 2388 397 2633 464 
Q 2878 531 3122 666 
L 3122 134 
Q 2881 22 2623 -34 
Q 2366 -91 2075 -91 
Q 1284 -91 818 406 
Q 353 903 353 1747 
Q 353 2603 823 3093 
Q 1294 3584 2113 3584 
Q 2378 3584 2631 3529 
Q 2884 3475 3122 3366 
z
" id="DejaVuSans-63" transform="scale(0.015625)"/>
      <path id="DejaVuSans-20" transform="scale(0.015625)"/>
      <path d="M 269 3500 
L 844 3500 
L 1563 769 
L 2278 3500 
L 2956 3500 
L 3675 769 
L 4391 3500 
L 4966 3500 
L 4050 0 
L 3372 0 
L 2619 2869 
L 1863 0 
L 1184 0 
L 269 3500 
z
" id="DejaVuSans-77" transform="scale(0.015625)"/>
      <path d="M 3513 2113 
L 3513 0 
L 2938 0 
L 2938 2094 
Q 2938 2591 2744 2837 
Q 2550 3084 2163 3084 
Q 1697 3084 1428 2787 
Q 1159 2491 1159 1978 
L 1159 0 
L 581 0 
L 581 4863 
L 1159 4863 
L 1159 2956 
Q 1366 3272 1645 3428 
Q 1925 3584 2291 3584 
Q 2894 3584 3203 3211 
Q 3513 2838 3513 2113 
z
" id="DejaVuSans-68" transform="scale(0.015625)"/>
      <path d="M 684 794 
L 1344 794 
L 1344 0 
L 684 0 
L 684 794 
z
" id="DejaVuSans-2e" transform="scale(0.015625)"/>
      <path d="M 2034 2216 
Q 1584 2216 1326 1975 
Q 1069 1734 1069 1313 
Q 1069 891 1326 650 
Q 1584 409 2034 409 
Q 2484 409 2743 651 
Q 3003 894 3003 1313 
Q 3003 1734 2745 1975 
Q 2488 2216 2034 2216 
z
M 1403 2484 
Q 997 2584 770 2862 
Q 544 3141 544 3541 
Q 544 4100 942 4425 
Q 1341 4750 2034 4750 
Q 2731 4750 3128 4425 
Q 3525 4100 3525 3541 
Q 3525 3141 3298 2862 
Q 3072 2584 2669 2484 
Q 3125 2378 3379 2068 
Q 3634 1759 3634 1313 
Q 3634 634 3220 271 
Q 2806 -91 2034 -91 
Q 1263 -91 848 271 
Q 434 634 434 1313 
Q 434 1759 690 2068 
Q 947 2378 1403 2484 
z
M 1172 3481 
Q 1172 3119 1398 2916 
Q 1625 2713 2034 2713 
Q 2441 2713 2670 2916 
Q 2900 3119 2900 3481 
Q 2900 3844 2670 4047 
Q 2441 4250 2034 4250 
Q 1625 4250 1398 4047 
Q 1172 3844 1172 3481 
z
" id="DejaVuSans-38" transform="scale(0.015625)"/>
      <path d="M 2113 2584 
Q 1688 2584 1439 2293 
Q 1191 2003 1191 1497 
Q 1191 994 1439 701 
Q 1688 409 2113 409 
Q 2538 409 2786 701 
Q 3034 994 3034 1497 
Q 3034 2003 2786 2293 
Q 2538 2584 2113 2584 
z
M 3366 4563 
L 3366 3988 
Q 3128 4100 2886 4159 
Q 2644 4219 2406 4219 
Q 1781 4219 1451 3797 
Q 1122 3375 1075 2522 
Q 1259 2794 1537 2939 
Q 1816 3084 2150 3084 
Q 2853 3084 3261 2657 
Q 3669 2231 3669 1497 
Q 3669 778 3244 343 
Q 2819 -91 2113 -91 
Q 1303 -91 875 529 
Q 447 1150 447 2328 
Q 447 3434 972 4092 
Q 1497 4750 2381 4750 
Q 2619 4750 2861 4703 
Q 3103 4656 3366 4563 
z
" id="DejaVuSans-36" transform="scale(0.015625)"/>
      <path d="M 525 4666 
L 3525 4666 
L 3525 4397 
L 1831 0 
L 1172 0 
L 2766 4134 
L 525 4134 
L 525 4666 
z
" id="DejaVuSans-37" transform="scale(0.015625)"/>
      <path d="M 2419 4116 
L 825 1625 
L 2419 1625 
L 2419 4116 
z
M 2253 4666 
L 3047 4666 
L 3047 1625 
L 3713 1625 
L 3713 1100 
L 3047 1100 
L 3047 0 
L 2419 0 
L 2419 1100 
L 313 1100 
L 313 1709 
L 2253 4666 
z
" id="DejaVuSans-34" transform="scale(0.015625)"/>
      <path d="M 703 97 
L 703 672 
Q 941 559 1184 500 
Q 1428 441 1663 441 
Q 2288 441 2617 861 
Q 2947 1281 2994 2138 
Q 2813 1869 2534 1725 
Q 2256 1581 1919 1581 
Q 1219 1581 811 2004 
Q 403 2428 403 3163 
Q 403 3881 828 4315 
Q 1253 4750 1959 4750 
Q 2769 4750 3195 4129 
Q 3622 3509 3622 2328 
Q 3622 1225 3098 567 
Q 2575 -91 1691 -91 
Q 1453 -91 1209 -44 
Q 966 3 703 97 
z
M 1959 2075 
Q 2384 2075 2632 2365 
Q 2881 2656 2881 3163 
Q 2881 3666 2632 3958 
Q 2384 4250 1959 4250 
Q 1534 4250 1286 3958 
Q 1038 3666 1038 3163 
Q 1038 2656 1286 2365 
Q 1534 2075 1959 2075 
z
" id="DejaVuSans-39" transform="scale(0.015625)"/>
     </defs>
     <use xlink:href="#DejaVuSans-69"/>
     <use x="27.783203" xlink:href="#DejaVuSans-6e"/>
     <use x="91.162109" xlink:href="#DejaVuSans-73"/>
     <use x="143.261719" xlink:href="#DejaVuSans-74"/>
     <use x="182.470703" xlink:href="#DejaVuSans-61"/>
     <use x="243.75" xlink:href="#DejaVuSans-6e"/>
     <use x="307.128906" xlink:href="#DejaVuSans-63"/>
     <use x="362.109375" xlink:href="#DejaVuSans-65"/>
     <use x="423.632812" xlink:href="#DejaVuSans-20"/>
     <use x="455.419922" xlink:href="#DejaVuSans-32"/>
     <use x="519.042969" xlink:href="#DejaVuSans-20"/>
     <use x="550.830078" xlink:href="#DejaVuSans-77"/>
     <use x="632.617188" xlink:href="#DejaVuSans-69"/>
     <use x="660.400391" xlink:href="#DejaVuSans-74"/>
     <use x="699.609375" xlink:href="#DejaVuSans-68"/>
     <use x="762.988281" xlink:href="#DejaVuSans-20"/>
     <use x="794.775391" xlink:href="#DejaVuSans-65"/>
     <use x="856.298828" xlink:href="#DejaVuSans-72"/>
     <use x="895.662109" xlink:href="#DejaVuSans-72"/>
     <use x="934.525391" xlink:href="#DejaVuSans-6f"/>
     <use x="995.707031" xlink:href="#DejaVuSans-72"/>
     <use x="1036.820312" xlink:href="#DejaVuSans-20"/>
     <use x="1068.607422" xlink:href="#DejaVuSans-30"/>
     <use x="1132.230469" xlink:href="#DejaVuSans-2e"/>
     <use x="1164.017578" xlink:href="#DejaVuSans-30"/>
     <use x="1227.640625" xlink:href="#DejaVuSans-30"/>
     <use x="1291.263672" xlink:href="#DejaVuSans-33"/>
     <use x="1354.886719" xlink:href="#DejaVuSans-38"/>
     <use x="1418.509766" xlink:href="#DejaVuSans-31"/>
     <use x="1482.132812" xlink:href="#DejaVuSans-32"/>
     <use x="1545.755859" xlink:href="#DejaVuSans-33"/>
     <use x="1609.378906" xlink:href="#DejaVuSans-30"/>
     <use x="1673.001953" xlink:href="#DejaVuSans-36"/>
     <use x="1736.625" xlink:href="#DejaVuSans-32"/>
     <use x="1800.248047" xlink:href="#DejaVuSans-36"/>
     <use x="1863.871094" xlink:href="#DejaVuSans-37"/>
     <use x="1927.494141" xlink:href="#DejaVuSans-31"/>
     <use x="1991.117188" xlink:href="#DejaVuSans-34"/>
     <use x="2054.740234" xlink:href="#DejaVuSans-36"/>
     <use x="2118.363281" xlink:href="#DejaVuSans-34"/>
     <use x="2181.986328" xlink:href="#DejaVuSans-35"/>
     <use x="2245.609375" xlink:href="#DejaVuSans-39"/>
    </g>
   </g>
   <g id="legend_1">
    <g id="patch_7">
     <path d="M 805.348438 499 
L 900.2 499 
Q 902.2 499 902.2 497 
L 902.2 453.965625 
Q 902.2 451.965625 900.2 451.965625 
L 805.348438 451.965625 
Q 803.348438 451.965625 803.348438 453.965625 
L 803.348438 497 
Q 803.348438 499 805.348438 499 
z
" style="opacity:0.8;stroke:#cccccc;stroke-linejoin:miter;"/>
    </g>
    <g id="line2d_17">
     <path d="M 807.348438 460.064062 
L 827.348438 460.064062 
" style="fill:none;stroke:#8dd3c7;stroke-linecap:square;stroke-width:1.5;"/>
    </g>
    <g id="line2d_18"/>
    <g id="text_16">
     <!-- cost -->
     <g style="fill:#ffffff;" transform="translate(835.348438 463.564062)scale(0.1 -0.1)">
      <use xlink:href="#DejaVuSans-63"/>
      <use x="54.980469" xlink:href="#DejaVuSans-6f"/>
      <use x="116.162109" xlink:href="#DejaVuSans-73"/>
      <use x="168.261719" xlink:href="#DejaVuSans-74"/>
     </g>
    </g>
    <g id="line2d_19">
     <path d="M 807.348438 474.742188 
L 827.348438 474.742188 
" style="fill:none;stroke:#feffb3;stroke-linecap:square;stroke-width:1.5;"/>
    </g>
    <g id="line2d_20"/>
    <g id="text_17">
     <!-- best cost -->
     <g style="fill:#ffffff;" transform="translate(835.348438 478.242188)scale(0.1 -0.1)">
      <defs>
       <path d="M 3116 1747 
Q 3116 2381 2855 2742 
Q 2594 3103 2138 3103 
Q 1681 3103 1420 2742 
Q 1159 2381 1159 1747 
Q 1159 1113 1420 752 
Q 1681 391 2138 391 
Q 2594 391 2855 752 
Q 3116 1113 3116 1747 
z
M 1159 2969 
Q 1341 3281 1617 3432 
Q 1894 3584 2278 3584 
Q 2916 3584 3314 3078 
Q 3713 2572 3713 1747 
Q 3713 922 3314 415 
Q 2916 -91 2278 -91 
Q 1894 -91 1617 61 
Q 1341 213 1159 525 
L 1159 0 
L 581 0 
L 581 4863 
L 1159 4863 
L 1159 2969 
z
" id="DejaVuSans-62" transform="scale(0.015625)"/>
      </defs>
      <use xlink:href="#DejaVuSans-62"/>
      <use x="63.476562" xlink:href="#DejaVuSans-65"/>
      <use x="125" xlink:href="#DejaVuSans-73"/>
      <use x="177.099609" xlink:href="#DejaVuSans-74"/>
      <use x="216.308594" xlink:href="#DejaVuSans-20"/>
      <use x="248.095703" xlink:href="#DejaVuSans-63"/>
      <use x="303.076172" xlink:href="#DejaVuSans-6f"/>
      <use x="364.257812" xlink:href="#DejaVuSans-73"/>
      <use x="416.357422" xlink:href="#DejaVuSans-74"/>
     </g>
    </g>
    <g id="line2d_21">
     <path d="M 807.348438 489.420313 
L 827.348438 489.420313 
" style="fill:none;stroke:#bfbbd9;stroke-linecap:square;stroke-width:1.5;"/>
    </g>
    <g id="line2d_22"/>
    <g id="text_18">
     <!-- temperature -->
     <g style="fill:#ffffff;" transform="translate(835.348438 492.920313)scale(0.1 -0.1)">
      <defs>
       <path d="M 3328 2828 
Q 3544 3216 3844 3400 
Q 4144 3584 4550 3584 
Q 5097 3584 5394 3201 
Q 5691 2819 5691 2113 
L 5691 0 
L 5113 0 
L 5113 2094 
Q 5113 2597 4934 2840 
Q 4756 3084 4391 3084 
Q 3944 3084 3684 2787 
Q 3425 2491 3425 1978 
L 3425 0 
L 2847 0 
L 2847 2094 
Q 2847 2600 2669 2842 
Q 2491 3084 2119 3084 
Q 1678 3084 1418 2786 
Q 1159 2488 1159 1978 
L 1159 0 
L 581 0 
L 581 3500 
L 1159 3500 
L 1159 2956 
Q 1356 3278 1631 3431 
Q 1906 3584 2284 3584 
Q 2666 3584 2933 3390 
Q 3200 3197 3328 2828 
z
" id="DejaVuSans-6d" transform="scale(0.015625)"/>
       <path d="M 1159 525 
L 1159 -1331 
L 581 -1331 
L 581 3500 
L 1159 3500 
L 1159 2969 
Q 1341 3281 1617 3432 
Q 1894 3584 2278 3584 
Q 2916 3584 3314 3078 
Q 3713 2572 3713 1747 
Q 3713 922 3314 415 
Q 2916 -91 2278 -91 
Q 1894 -91 1617 61 
Q 1341 213 1159 525 
z
M 3116 1747 
Q 3116 2381 2855 2742 
Q 2594 3103 2138 3103 
Q 1681 3103 1420 2742 
Q 1159 2381 1159 1747 
Q 1159 1113 1420 752 
Q 1681 391 2138 391 
Q 2594 391 2855 752 
Q 3116 1113 3116 1747 
z
" id="DejaVuSans-70" transform="scale(0.015625)"/>
       <path d="M 544 1381 
L 544 3500 
L 1119 3500 
L 1119 1403 
Q 1119 906 1312 657 
Q 1506 409 1894 409 
Q 2359 409 2629 706 
Q 2900 1003 2900 1516 
L 2900 3500 
L 3475 3500 
L 3475 0 
L 2900 0 
L 2900 538 
Q 2691 219 2414 64 
Q 2138 -91 1772 -91 
Q 1169 -91 856 284 
Q 544 659 544 1381 
z
M 1991 3584 
L 1991 3584 
z
" id="DejaVuSans-75" transform="scale(0.015625)"/>
      </defs>
      <use xlink:href="#DejaVuSans-74"/>
      <use x="39.208984" xlink:href="#DejaVuSans-65"/>
      <use x="100.732422" xlink:href="#DejaVuSans-6d"/>
      <use x="198.144531" xlink:href="#DejaVuSans-70"/>
      <use x="261.621094" xlink:href="#DejaVuSans-65"/>
      <use x="323.144531" xlink:href="#DejaVuSans-72"/>
      <use x="364.257812" xlink:href="#DejaVuSans-61"/>
      <use x="425.537109" xlink:href="#DejaVuSans-74"/>
      <use x="464.746094" xlink:href="#DejaVuSans-75"/>
      <use x="528.125" xlink:href="#DejaVuSans-72"/>
      <use x="566.988281" xlink:href="#DejaVuSans-65"/>
     </g>
    </g>
   </g>
  </g>
 </g>
 <defs>
  <clipPath id="pad1bf08805">
   <rect height="434.88" width="781.2" x="126" y="69.12"/>
  </clipPath>
 </defs>
</svg>
