<?xml version="1.0" encoding="utf-8" standalone="no"?>
<!DOCTYPE svg PUBLIC "-//W3C//DTD SVG 1.1//EN"
  "http://www.w3.org/Graphics/SVG/1.1/DTD/svg11.dtd">
<svg height="576pt" version="1.1" viewBox="0 0 1008 576" width="1008pt" xmlns="http://www.w3.org/2000/svg" xmlns:xlink="http://www.w3.org/1999/xlink">
 <metadata>
  <rdf:RDF xmlns:cc="http://creativecommons.org/ns#" xmlns:dc="http://purl.org/dc/elements/1.1/" xmlns:rdf="http://www.w3.org/1999/02/22-rdf-syntax-ns#">
   <cc:Work>
    <dc:type rdf:resource="http://purl.org/dc/dcmitype/StillImage"/>
    <dc:date>2022-01-07T00:38:57.761785</dc:date>
    <dc:format>image/svg+xml</dc:format>
    <dc:creator>
     <cc:Agent>
      <dc:title>Matplotlib v3.4.3, https://matplotlib.org/</dc:title>
     </cc:Agent>
    </dc:creator>
   </cc:Work>
  </rdf:RDF>
 </metadata>
 <defs>
  <style type="text/css">*{stroke-linecap:butt;stroke-linejoin:round;}</style>
 </defs>
 <g id="figure_1">
  <g id="patch_1">
   <path d="M 0 576 
L 1008 576 
L 1008 0 
L 0 0 
z
"/>
  </g>
  <g id="axes_1">
   <g id="patch_2">
    <path d="M 126 504 
L 907.2 504 
L 907.2 69.12 
L 126 69.12 
z
"/>
   </g>
   <g id="matplotlib.axis_1">
    <g id="xtick_1">
     <g id="line2d_1">
      <defs>
       <path d="M 0 0 
L 0 3.5 
" id="m42f6b9b409" style="stroke:#ffffff;stroke-width:0.8;"/>
      </defs>
      <g>
       <use style="fill:#ffffff;stroke:#ffffff;stroke-width:0.8;" x="161.509091" xlink:href="#m42f6b9b409" y="504"/>
      </g>
     </g>
     <g id="text_1">
      <!-- 0 -->
      <g style="fill:#ffffff;" transform="translate(158.327841 518.598438)scale(0.1 -0.1)">
       <defs>
        <path d="M 2034 4250 
Q 1547 4250 1301 3770 
Q 1056 3291 1056 2328 
Q 1056 1369 1301 889 
Q 1547 409 2034 409 
Q 2525 409 2770 889 
Q 3016 1369 3016 2328 
Q 3016 3291 2770 3770 
Q 2525 4250 2034 4250 
z
M 2034 4750 
Q 2819 4750 3233 4129 
Q 3647 3509 3647 2328 
Q 3647 1150 3233 529 
Q 2819 -91 2034 -91 
Q 1250 -91 836 529 
Q 422 1150 422 2328 
Q 422 3509 836 4129 
Q 1250 4750 2034 4750 
z
" id="DejaVuSans-30" transform="scale(0.015625)"/>
       </defs>
       <use xlink:href="#DejaVuSans-30"/>
      </g>
     </g>
    </g>
    <g id="xtick_2">
     <g id="line2d_2">
      <g>
       <use style="fill:#ffffff;stroke:#ffffff;stroke-width:0.8;" x="279.912195" xlink:href="#m42f6b9b409" y="504"/>
      </g>
     </g>
     <g id="text_2">
      <!-- 500 -->
      <g style="fill:#ffffff;" transform="translate(270.368445 518.598438)scale(0.1 -0.1)">
       <defs>
        <path d="M 691 4666 
L 3169 4666 
L 3169 4134 
L 1269 4134 
L 1269 2991 
Q 1406 3038 1543 3061 
Q 1681 3084 1819 3084 
Q 2600 3084 3056 2656 
Q 3513 2228 3513 1497 
Q 3513 744 3044 326 
Q 2575 -91 1722 -91 
Q 1428 -91 1123 -41 
Q 819 9 494 109 
L 494 744 
Q 775 591 1075 516 
Q 1375 441 1709 441 
Q 2250 441 2565 725 
Q 2881 1009 2881 1497 
Q 2881 1984 2565 2268 
Q 2250 2553 1709 2553 
Q 1456 2553 1204 2497 
Q 953 2441 691 2322 
L 691 4666 
z
" id="DejaVuSans-35" transform="scale(0.015625)"/>
       </defs>
       <use xlink:href="#DejaVuSans-35"/>
       <use x="63.623047" xlink:href="#DejaVuSans-30"/>
       <use x="127.246094" xlink:href="#DejaVuSans-30"/>
      </g>
     </g>
    </g>
    <g id="xtick_3">
     <g id="line2d_3">
      <g>
       <use style="fill:#ffffff;stroke:#ffffff;stroke-width:0.8;" x="398.315299" xlink:href="#m42f6b9b409" y="504"/>
      </g>
     </g>
     <g id="text_3">
      <!-- 1000 -->
      <g style="fill:#ffffff;" transform="translate(385.590299 518.598438)scale(0.1 -0.1)">
       <defs>
        <path d="M 794 531 
L 1825 531 
L 1825 4091 
L 703 3866 
L 703 4441 
L 1819 4666 
L 2450 4666 
L 2450 531 
L 3481 531 
L 3481 0 
L 794 0 
L 794 531 
z
" id="DejaVuSans-31" transform="scale(0.015625)"/>
       </defs>
       <use xlink:href="#DejaVuSans-31"/>
       <use x="63.623047" xlink:href="#DejaVuSans-30"/>
       <use x="127.246094" xlink:href="#DejaVuSans-30"/>
       <use x="190.869141" xlink:href="#DejaVuSans-30"/>
      </g>
     </g>
    </g>
    <g id="xtick_4">
     <g id="line2d_4">
      <g>
       <use style="fill:#ffffff;stroke:#ffffff;stroke-width:0.8;" x="516.718403" xlink:href="#m42f6b9b409" y="504"/>
      </g>
     </g>
     <g id="text_4">
      <!-- 1500 -->
      <g style="fill:#ffffff;" transform="translate(503.993403 518.598438)scale(0.1 -0.1)">
       <use xlink:href="#DejaVuSans-31"/>
       <use x="63.623047" xlink:href="#DejaVuSans-35"/>
       <use x="127.246094" xlink:href="#DejaVuSans-30"/>
       <use x="190.869141" xlink:href="#DejaVuSans-30"/>
      </g>
     </g>
    </g>
    <g id="xtick_5">
     <g id="line2d_5">
      <g>
       <use style="fill:#ffffff;stroke:#ffffff;stroke-width:0.8;" x="635.121507" xlink:href="#m42f6b9b409" y="504"/>
      </g>
     </g>
     <g id="text_5">
      <!-- 2000 -->
      <g style="fill:#ffffff;" transform="translate(622.396507 518.598438)scale(0.1 -0.1)">
       <defs>
        <path d="M 1228 531 
L 3431 531 
L 3431 0 
L 469 0 
L 469 531 
Q 828 903 1448 1529 
Q 2069 2156 2228 2338 
Q 2531 2678 2651 2914 
Q 2772 3150 2772 3378 
Q 2772 3750 2511 3984 
Q 2250 4219 1831 4219 
Q 1534 4219 1204 4116 
Q 875 4013 500 3803 
L 500 4441 
Q 881 4594 1212 4672 
Q 1544 4750 1819 4750 
Q 2544 4750 2975 4387 
Q 3406 4025 3406 3419 
Q 3406 3131 3298 2873 
Q 3191 2616 2906 2266 
Q 2828 2175 2409 1742 
Q 1991 1309 1228 531 
z
" id="DejaVuSans-32" transform="scale(0.015625)"/>
       </defs>
       <use xlink:href="#DejaVuSans-32"/>
       <use x="63.623047" xlink:href="#DejaVuSans-30"/>
       <use x="127.246094" xlink:href="#DejaVuSans-30"/>
       <use x="190.869141" xlink:href="#DejaVuSans-30"/>
      </g>
     </g>
    </g>
    <g id="xtick_6">
     <g id="line2d_6">
      <g>
       <use style="fill:#ffffff;stroke:#ffffff;stroke-width:0.8;" x="753.524611" xlink:href="#m42f6b9b409" y="504"/>
      </g>
     </g>
     <g id="text_6">
      <!-- 2500 -->
      <g style="fill:#ffffff;" transform="translate(740.799611 518.598438)scale(0.1 -0.1)">
       <use xlink:href="#DejaVuSans-32"/>
       <use x="63.623047" xlink:href="#DejaVuSans-35"/>
       <use x="127.246094" xlink:href="#DejaVuSans-30"/>
       <use x="190.869141" xlink:href="#DejaVuSans-30"/>
      </g>
     </g>
    </g>
    <g id="xtick_7">
     <g id="line2d_7">
      <g>
       <use style="fill:#ffffff;stroke:#ffffff;stroke-width:0.8;" x="871.927715" xlink:href="#m42f6b9b409" y="504"/>
      </g>
     </g>
     <g id="text_7">
      <!-- 3000 -->
      <g style="fill:#ffffff;" transform="translate(859.202715 518.598438)scale(0.1 -0.1)">
       <defs>
        <path d="M 2597 2516 
Q 3050 2419 3304 2112 
Q 3559 1806 3559 1356 
Q 3559 666 3084 287 
Q 2609 -91 1734 -91 
Q 1441 -91 1130 -33 
Q 819 25 488 141 
L 488 750 
Q 750 597 1062 519 
Q 1375 441 1716 441 
Q 2309 441 2620 675 
Q 2931 909 2931 1356 
Q 2931 1769 2642 2001 
Q 2353 2234 1838 2234 
L 1294 2234 
L 1294 2753 
L 1863 2753 
Q 2328 2753 2575 2939 
Q 2822 3125 2822 3475 
Q 2822 3834 2567 4026 
Q 2313 4219 1838 4219 
Q 1578 4219 1281 4162 
Q 984 4106 628 3988 
L 628 4550 
Q 988 4650 1302 4700 
Q 1616 4750 1894 4750 
Q 2613 4750 3031 4423 
Q 3450 4097 3450 3541 
Q 3450 3153 3228 2886 
Q 3006 2619 2597 2516 
z
" id="DejaVuSans-33" transform="scale(0.015625)"/>
       </defs>
       <use xlink:href="#DejaVuSans-33"/>
       <use x="63.623047" xlink:href="#DejaVuSans-30"/>
       <use x="127.246094" xlink:href="#DejaVuSans-30"/>
       <use x="190.869141" xlink:href="#DejaVuSans-30"/>
      </g>
     </g>
    </g>
    <g id="text_8">
     <!-- iteration -->
     <g style="fill:#ffffff;" transform="translate(495.477344 532.276562)scale(0.1 -0.1)">
      <defs>
       <path d="M 603 3500 
L 1178 3500 
L 1178 0 
L 603 0 
L 603 3500 
z
M 603 4863 
L 1178 4863 
L 1178 4134 
L 603 4134 
L 603 4863 
z
" id="DejaVuSans-69" transform="scale(0.015625)"/>
       <path d="M 1172 4494 
L 1172 3500 
L 2356 3500 
L 2356 3053 
L 1172 3053 
L 1172 1153 
Q 1172 725 1289 603 
Q 1406 481 1766 481 
L 2356 481 
L 2356 0 
L 1766 0 
Q 1100 0 847 248 
Q 594 497 594 1153 
L 594 3053 
L 172 3053 
L 172 3500 
L 594 3500 
L 594 4494 
L 1172 4494 
z
" id="DejaVuSans-74" transform="scale(0.015625)"/>
       <path d="M 3597 1894 
L 3597 1613 
L 953 1613 
Q 991 1019 1311 708 
Q 1631 397 2203 397 
Q 2534 397 2845 478 
Q 3156 559 3463 722 
L 3463 178 
Q 3153 47 2828 -22 
Q 2503 -91 2169 -91 
Q 1331 -91 842 396 
Q 353 884 353 1716 
Q 353 2575 817 3079 
Q 1281 3584 2069 3584 
Q 2775 3584 3186 3129 
Q 3597 2675 3597 1894 
z
M 3022 2063 
Q 3016 2534 2758 2815 
Q 2500 3097 2075 3097 
Q 1594 3097 1305 2825 
Q 1016 2553 972 2059 
L 3022 2063 
z
" id="DejaVuSans-65" transform="scale(0.015625)"/>
       <path d="M 2631 2963 
Q 2534 3019 2420 3045 
Q 2306 3072 2169 3072 
Q 1681 3072 1420 2755 
Q 1159 2438 1159 1844 
L 1159 0 
L 581 0 
L 581 3500 
L 1159 3500 
L 1159 2956 
Q 1341 3275 1631 3429 
Q 1922 3584 2338 3584 
Q 2397 3584 2469 3576 
Q 2541 3569 2628 3553 
L 2631 2963 
z
" id="DejaVuSans-72" transform="scale(0.015625)"/>
       <path d="M 2194 1759 
Q 1497 1759 1228 1600 
Q 959 1441 959 1056 
Q 959 750 1161 570 
Q 1363 391 1709 391 
Q 2188 391 2477 730 
Q 2766 1069 2766 1631 
L 2766 1759 
L 2194 1759 
z
M 3341 1997 
L 3341 0 
L 2766 0 
L 2766 531 
Q 2569 213 2275 61 
Q 1981 -91 1556 -91 
Q 1019 -91 701 211 
Q 384 513 384 1019 
Q 384 1609 779 1909 
Q 1175 2209 1959 2209 
L 2766 2209 
L 2766 2266 
Q 2766 2663 2505 2880 
Q 2244 3097 1772 3097 
Q 1472 3097 1187 3025 
Q 903 2953 641 2809 
L 641 3341 
Q 956 3463 1253 3523 
Q 1550 3584 1831 3584 
Q 2591 3584 2966 3190 
Q 3341 2797 3341 1997 
z
" id="DejaVuSans-61" transform="scale(0.015625)"/>
       <path d="M 1959 3097 
Q 1497 3097 1228 2736 
Q 959 2375 959 1747 
Q 959 1119 1226 758 
Q 1494 397 1959 397 
Q 2419 397 2687 759 
Q 2956 1122 2956 1747 
Q 2956 2369 2687 2733 
Q 2419 3097 1959 3097 
z
M 1959 3584 
Q 2709 3584 3137 3096 
Q 3566 2609 3566 1747 
Q 3566 888 3137 398 
Q 2709 -91 1959 -91 
Q 1206 -91 779 398 
Q 353 888 353 1747 
Q 353 2609 779 3096 
Q 1206 3584 1959 3584 
z
" id="DejaVuSans-6f" transform="scale(0.015625)"/>
       <path d="M 3513 2113 
L 3513 0 
L 2938 0 
L 2938 2094 
Q 2938 2591 2744 2837 
Q 2550 3084 2163 3084 
Q 1697 3084 1428 2787 
Q 1159 2491 1159 1978 
L 1159 0 
L 581 0 
L 581 3500 
L 1159 3500 
L 1159 2956 
Q 1366 3272 1645 3428 
Q 1925 3584 2291 3584 
Q 2894 3584 3203 3211 
Q 3513 2838 3513 2113 
z
" id="DejaVuSans-6e" transform="scale(0.015625)"/>
      </defs>
      <use xlink:href="#DejaVuSans-69"/>
      <use x="27.783203" xlink:href="#DejaVuSans-74"/>
      <use x="66.992188" xlink:href="#DejaVuSans-65"/>
      <use x="128.515625" xlink:href="#DejaVuSans-72"/>
      <use x="169.628906" xlink:href="#DejaVuSans-61"/>
      <use x="230.908203" xlink:href="#DejaVuSans-74"/>
      <use x="270.117188" xlink:href="#DejaVuSans-69"/>
      <use x="297.900391" xlink:href="#DejaVuSans-6f"/>
      <use x="359.082031" xlink:href="#DejaVuSans-6e"/>
     </g>
    </g>
   </g>
   <g id="matplotlib.axis_2">
    <g id="ytick_1">
     <g id="line2d_8">
      <defs>
       <path d="M 0 0 
L -3.5 0 
" id="m15461106dd" style="stroke:#ffffff;stroke-width:0.8;"/>
      </defs>
      <g>
       <use style="fill:#ffffff;stroke:#ffffff;stroke-width:0.8;" x="126" xlink:href="#m15461106dd" y="484.232727"/>
      </g>
     </g>
     <g id="text_9">
      <!-- 0 -->
      <g style="fill:#ffffff;" transform="translate(112.6375 488.031946)scale(0.1 -0.1)">
       <use xlink:href="#DejaVuSans-30"/>
      </g>
     </g>
    </g>
    <g id="ytick_2">
     <g id="line2d_9">
      <g>
       <use style="fill:#ffffff;stroke:#ffffff;stroke-width:0.8;" x="126" xlink:href="#m15461106dd" y="416.26308"/>
      </g>
     </g>
     <g id="text_10">
      <!-- 2000 -->
      <g style="fill:#ffffff;" transform="translate(93.55 420.062299)scale(0.1 -0.1)">
       <use xlink:href="#DejaVuSans-32"/>
       <use x="63.623047" xlink:href="#DejaVuSans-30"/>
       <use x="127.246094" xlink:href="#DejaVuSans-30"/>
       <use x="190.869141" xlink:href="#DejaVuSans-30"/>
      </g>
     </g>
    </g>
    <g id="ytick_3">
     <g id="line2d_10">
      <g>
       <use style="fill:#ffffff;stroke:#ffffff;stroke-width:0.8;" x="126" xlink:href="#m15461106dd" y="348.293432"/>
      </g>
     </g>
     <g id="text_11">
      <!-- 4000 -->
      <g style="fill:#ffffff;" transform="translate(93.55 352.092651)scale(0.1 -0.1)">
       <defs>
        <path d="M 2419 4116 
L 825 1625 
L 2419 1625 
L 2419 4116 
z
M 2253 4666 
L 3047 4666 
L 3047 1625 
L 3713 1625 
L 3713 1100 
L 3047 1100 
L 3047 0 
L 2419 0 
L 2419 1100 
L 313 1100 
L 313 1709 
L 2253 4666 
z
" id="DejaVuSans-34" transform="scale(0.015625)"/>
       </defs>
       <use xlink:href="#DejaVuSans-34"/>
       <use x="63.623047" xlink:href="#DejaVuSans-30"/>
       <use x="127.246094" xlink:href="#DejaVuSans-30"/>
       <use x="190.869141" xlink:href="#DejaVuSans-30"/>
      </g>
     </g>
    </g>
    <g id="ytick_4">
     <g id="line2d_11">
      <g>
       <use style="fill:#ffffff;stroke:#ffffff;stroke-width:0.8;" x="126" xlink:href="#m15461106dd" y="280.323785"/>
      </g>
     </g>
     <g id="text_12">
      <!-- 6000 -->
      <g style="fill:#ffffff;" transform="translate(93.55 284.123004)scale(0.1 -0.1)">
       <defs>
        <path d="M 2113 2584 
Q 1688 2584 1439 2293 
Q 1191 2003 1191 1497 
Q 1191 994 1439 701 
Q 1688 409 2113 409 
Q 2538 409 2786 701 
Q 3034 994 3034 1497 
Q 3034 2003 2786 2293 
Q 2538 2584 2113 2584 
z
M 3366 4563 
L 3366 3988 
Q 3128 4100 2886 4159 
Q 2644 4219 2406 4219 
Q 1781 4219 1451 3797 
Q 1122 3375 1075 2522 
Q 1259 2794 1537 2939 
Q 1816 3084 2150 3084 
Q 2853 3084 3261 2657 
Q 3669 2231 3669 1497 
Q 3669 778 3244 343 
Q 2819 -91 2113 -91 
Q 1303 -91 875 529 
Q 447 1150 447 2328 
Q 447 3434 972 4092 
Q 1497 4750 2381 4750 
Q 2619 4750 2861 4703 
Q 3103 4656 3366 4563 
z
" id="DejaVuSans-36" transform="scale(0.015625)"/>
       </defs>
       <use xlink:href="#DejaVuSans-36"/>
       <use x="63.623047" xlink:href="#DejaVuSans-30"/>
       <use x="127.246094" xlink:href="#DejaVuSans-30"/>
       <use x="190.869141" xlink:href="#DejaVuSans-30"/>
      </g>
     </g>
    </g>
    <g id="ytick_5">
     <g id="line2d_12">
      <g>
       <use style="fill:#ffffff;stroke:#ffffff;stroke-width:0.8;" x="126" xlink:href="#m15461106dd" y="212.354137"/>
      </g>
     </g>
     <g id="text_13">
      <!-- 8000 -->
      <g style="fill:#ffffff;" transform="translate(93.55 216.153356)scale(0.1 -0.1)">
       <defs>
        <path d="M 2034 2216 
Q 1584 2216 1326 1975 
Q 1069 1734 1069 1313 
Q 1069 891 1326 650 
Q 1584 409 2034 409 
Q 2484 409 2743 651 
Q 3003 894 3003 1313 
Q 3003 1734 2745 1975 
Q 2488 2216 2034 2216 
z
M 1403 2484 
Q 997 2584 770 2862 
Q 544 3141 544 3541 
Q 544 4100 942 4425 
Q 1341 4750 2034 4750 
Q 2731 4750 3128 4425 
Q 3525 4100 3525 3541 
Q 3525 3141 3298 2862 
Q 3072 2584 2669 2484 
Q 3125 2378 3379 2068 
Q 3634 1759 3634 1313 
Q 3634 634 3220 271 
Q 2806 -91 2034 -91 
Q 1263 -91 848 271 
Q 434 634 434 1313 
Q 434 1759 690 2068 
Q 947 2378 1403 2484 
z
M 1172 3481 
Q 1172 3119 1398 2916 
Q 1625 2713 2034 2713 
Q 2441 2713 2670 2916 
Q 2900 3119 2900 3481 
Q 2900 3844 2670 4047 
Q 2441 4250 2034 4250 
Q 1625 4250 1398 4047 
Q 1172 3844 1172 3481 
z
" id="DejaVuSans-38" transform="scale(0.015625)"/>
       </defs>
       <use xlink:href="#DejaVuSans-38"/>
       <use x="63.623047" xlink:href="#DejaVuSans-30"/>
       <use x="127.246094" xlink:href="#DejaVuSans-30"/>
       <use x="190.869141" xlink:href="#DejaVuSans-30"/>
      </g>
     </g>
    </g>
    <g id="ytick_6">
     <g id="line2d_13">
      <g>
       <use style="fill:#ffffff;stroke:#ffffff;stroke-width:0.8;" x="126" xlink:href="#m15461106dd" y="144.38449"/>
      </g>
     </g>
     <g id="text_14">
      <!-- 10000 -->
      <g style="fill:#ffffff;" transform="translate(87.1875 148.183709)scale(0.1 -0.1)">
       <use xlink:href="#DejaVuSans-31"/>
       <use x="63.623047" xlink:href="#DejaVuSans-30"/>
       <use x="127.246094" xlink:href="#DejaVuSans-30"/>
       <use x="190.869141" xlink:href="#DejaVuSans-30"/>
       <use x="254.492188" xlink:href="#DejaVuSans-30"/>
      </g>
     </g>
    </g>
    <g id="ytick_7">
     <g id="line2d_14">
      <g>
       <use style="fill:#ffffff;stroke:#ffffff;stroke-width:0.8;" x="126" xlink:href="#m15461106dd" y="76.414842"/>
      </g>
     </g>
     <g id="text_15">
      <!-- 12000 -->
      <g style="fill:#ffffff;" transform="translate(87.1875 80.214061)scale(0.1 -0.1)">
       <use xlink:href="#DejaVuSans-31"/>
       <use x="63.623047" xlink:href="#DejaVuSans-32"/>
       <use x="127.246094" xlink:href="#DejaVuSans-30"/>
       <use x="190.869141" xlink:href="#DejaVuSans-30"/>
       <use x="254.492188" xlink:href="#DejaVuSans-30"/>
      </g>
     </g>
    </g>
   </g>
   <g id="line2d_15">
    <path clip-path="url(#pd6c8aa6988)" d="M 161.509091 404.742225 
L 161.745897 356.483775 
L 161.982703 413.816172 
L 162.21951 406.305526 
L 162.693122 476.722081 
L 163.166734 476.722081 
L 163.403541 474.003295 
L 163.640347 474.003295 
L 163.877153 427.274163 
L 164.113959 350.706355 
L 164.587572 350.706355 
L 164.824378 454.496007 
L 165.061184 433.935188 
L 165.29799 454.496007 
L 165.534796 429.449191 
L 165.771603 444.300559 
L 166.008409 425.506952 
L 166.245215 474.03728 
L 166.718827 410.859493 
L 166.955634 410.859493 
L 167.19244 388.905297 
L 167.429246 388.905297 
L 167.666052 342.07421 
L 167.902859 418.642017 
L 168.850083 418.642017 
L 169.08689 411.131371 
L 169.323696 420.681107 
L 169.560502 382.312241 
L 169.797308 399.84841 
L 170.034114 388.29357 
L 170.270921 363.246755 
L 170.507727 388.29357 
L 170.744533 322.396997 
L 170.981339 333.951837 
L 171.218145 333.951837 
L 171.691758 234.614197 
L 171.928564 256.568393 
L 172.16537 218.199527 
L 172.402176 246.54287 
L 172.638983 404.742225 
L 172.875789 353.663034 
L 173.112595 277.095227 
L 173.349401 277.095227 
L 173.586208 404.742225 
L 173.823014 413.408355 
L 174.05982 336.840547 
L 174.533432 264.384903 
L 174.770239 340.95271 
L 175.243851 340.95271 
L 175.480657 349.584856 
L 175.717463 383.671634 
L 175.95427 369.737856 
L 176.427882 325.319691 
L 176.664688 378.70985 
L 176.901494 459.049973 
L 177.375107 379.55947 
L 177.611913 445.422059 
L 177.848719 445.422059 
L 178.085525 442.873197 
L 178.322332 417.826382 
L 178.559138 445.422059 
L 178.795944 432.405871 
L 179.03275 432.405871 
L 179.269557 424.895225 
L 179.506363 348.327417 
L 179.743169 424.895225 
L 179.979975 348.327417 
L 180.216781 348.327417 
L 180.453588 432.405871 
L 180.690394 422.210424 
L 180.9272 356.313851 
L 181.164006 369.771841 
L 181.400812 369.771841 
L 181.637619 400.630061 
L 181.874425 400.630061 
L 182.111231 481.038154 
L 182.348037 481.038154 
L 182.584843 444.334544 
L 182.82165 444.334544 
L 183.058456 367.766736 
L 183.295262 407.664919 
L 183.532068 404.470346 
L 184.005681 307.579613 
L 184.242487 307.579613 
L 184.479293 282.532798 
L 184.716099 326.849009 
L 184.952906 403.416816 
L 185.426518 454.496007 
L 185.663324 451.777221 
L 185.90013 454.496007 
L 186.136937 444.300559 
L 186.373743 378.403986 
L 186.610549 354.512655 
L 186.847355 384.249376 
L 187.084161 335.990926 
L 187.320968 401.887499 
L 187.557774 322.396997 
L 187.79458 297.350182 
L 188.031386 345.608631 
L 188.504999 390.502583 
L 188.741805 481.038154 
L 188.978611 446.951376 
L 189.215417 446.849421 
L 189.452223 463.569954 
L 189.68903 463.569954 
L 189.925836 425.201088 
L 190.162642 455.78743 
L 190.399448 463.569954 
L 190.636255 463.671909 
L 190.873061 461.123047 
L 191.346673 378.777819 
L 191.583479 396.619852 
L 191.820286 396.619852 
L 192.057092 447.427163 
L 192.293898 447.325209 
L 192.530704 481.411987 
L 192.76751 436.110217 
L 193.241123 436.212171 
L 193.477929 481.513941 
L 193.714735 481.038154 
L 193.951541 459.083958 
L 194.188348 459.083958 
L 194.425154 408.004768 
L 194.66196 381.46262 
L 194.898766 332.932292 
L 195.135572 354.886488 
L 195.372379 405.965678 
L 195.609185 365.285844 
L 195.845991 299.389271 
L 196.082797 365.285844 
L 196.319604 365.285844 
L 196.55641 413.816172 
L 196.793216 413.816172 
L 197.030022 347.919599 
L 197.266828 413.816172 
L 197.503635 411.267311 
L 197.740441 334.699503 
L 197.977247 350.706355 
L 198.214053 350.706355 
L 198.687666 431.862114 
L 199.161278 431.862114 
L 199.398084 380.782924 
L 199.63489 408.106722 
L 199.871697 359.848272 
L 200.108503 408.106722 
L 200.345309 405.387936 
L 200.582115 405.387936 
L 200.818921 383.43374 
L 201.055728 375.923094 
L 201.292534 375.923094 
L 201.52934 383.43374 
L 201.766146 408.106722 
L 202.002952 379.763379 
L 202.239759 430.842569 
L 202.476565 455.889384 
L 202.713371 436.212171 
L 202.950177 436.212171 
L 203.186984 427.274163 
L 203.42379 432.405871 
L 203.897402 385.40486 
L 204.134208 409.907918 
L 204.371015 409.907918 
L 204.607821 431.862114 
L 204.844627 431.760159 
L 205.081433 413.714218 
L 205.318239 424.589362 
L 205.555046 413.408355 
L 206.028658 413.3064 
L 206.265464 361.479544 
L 206.50227 361.479544 
L 206.975883 426.050709 
L 207.212689 416.025186 
L 207.449495 388.803342 
L 207.686301 420.715092 
L 207.923108 420.273289 
L 208.159914 445.422059 
L 208.39672 397.163609 
L 208.633526 463.671909 
L 208.870333 484.232727 
L 209.107139 454.496007 
L 209.817557 454.394052 
L 210.054364 473.935326 
L 210.29117 439.848547 
L 210.527976 473.935326 
L 210.764782 314.988305 
L 211.001588 356.585729 
L 211.238395 277.095227 
L 211.475201 349.075083 
L 212.185619 348.973129 
L 212.422426 404.844179 
L 212.659232 404.844179 
L 212.896038 370.757401 
L 213.132844 365.965541 
L 213.36965 373.476187 
L 213.606457 302.651814 
L 213.843263 300.102952 
L 214.080069 300.102952 
L 214.316875 376.67076 
L 214.553682 325.59157 
L 214.790488 447.495133 
L 215.027294 390.536568 
L 215.2641 406.407481 
L 215.500906 403.858619 
L 215.737713 370.553492 
L 215.974519 463.671909 
L 216.448131 402.66915 
L 216.684937 351.58996 
L 216.921744 394.342868 
L 217.15855 394.240914 
L 217.395356 455.889384 
L 217.632162 430.842569 
L 217.868968 382.584119 
L 218.105775 455.889384 
L 218.342581 484.232727 
L 218.579387 440.596214 
L 218.816193 433.085568 
L 219.289806 433.085568 
L 219.526612 427.274163 
L 219.763418 481.513941 
L 220.000224 481.038154 
L 220.237031 429.958964 
L 220.473837 413.408355 
L 220.710643 413.408355 
L 221.184255 363.110815 
L 221.421062 391.454158 
L 221.657868 366.407343 
L 221.894674 388.36154 
L 222.13148 388.36154 
L 222.368286 413.408355 
L 222.605093 369.771841 
L 222.841899 369.771841 
L 223.078705 413.408355 
L 223.315511 379.321576 
L 223.552317 413.408355 
L 223.789124 336.840547 
L 224.02593 336.840547 
L 224.262736 427.274163 
L 224.499542 427.274163 
L 224.736348 393.187384 
L 224.973155 393.187384 
L 225.209961 395.804216 
L 225.446767 393.255354 
L 225.683573 379.321576 
L 225.92038 404.742225 
L 226.157186 375.005504 
L 226.630798 479.236958 
L 227.104411 394.037005 
L 227.341217 429.687085 
L 227.578023 404.062528 
L 227.814829 481.038154 
L 228.051635 442.669288 
L 228.288442 431.760159 
L 228.525248 470.129025 
L 228.762054 462.618379 
L 228.99886 424.351468 
L 229.235666 424.351468 
L 229.472473 413.408355 
L 229.709279 413.408355 
L 229.946085 405.897709 
L 230.182891 476.722081 
L 230.656504 476.620127 
L 231.130116 394.00302 
L 231.366922 317.435212 
L 231.603729 324.945858 
L 232.077341 484.130773 
L 232.314147 424.487407 
L 232.78776 424.589362 
L 233.024566 436.212171 
L 233.261372 359.644363 
L 233.498178 407.664919 
L 233.734984 328.174417 
L 233.971791 404.946133 
L 234.208597 377.928199 
L 234.445403 375.379337 
L 234.682209 375.379337 
L 234.919015 451.947145 
L 235.392628 351.861839 
L 235.629434 373.951974 
L 235.86624 373.951974 
L 236.103046 384.147421 
L 236.339853 365.557723 
L 236.576659 463.671909 
L 236.813465 436.212171 
L 237.050271 436.212171 
L 237.287078 411.165356 
L 237.523884 411.165356 
L 237.76069 403.65471 
L 237.997496 463.671909 
L 238.234302 427.274163 
L 238.471109 419.763517 
L 238.707915 371.505067 
L 238.944721 379.015713 
L 239.181527 330.485385 
L 239.891946 479.236958 
L 240.128752 428.157768 
L 240.365558 420.647122 
L 240.602364 425.642891 
L 241.075977 306.696008 
L 241.312783 355.226336 
L 241.549589 329.737719 
L 241.786395 329.737719 
L 242.023202 307.783522 
L 242.496814 307.783522 
L 242.970427 431.862114 
L 243.680845 431.862114 
L 243.917651 380.782924 
L 244.391264 459.049973 
L 244.62807 459.049973 
L 244.864876 448.854526 
L 245.101682 381.326681 
L 245.812101 381.224727 
L 246.048907 378.675865 
L 246.285713 429.755055 
L 246.52252 442.771242 
L 246.759326 442.771242 
L 246.996132 429.211298 
L 247.469744 429.211298 
L 247.706551 413.3064 
L 247.943357 467.138361 
L 248.416969 417.520518 
L 248.653776 417.520518 
L 248.890582 387.783798 
L 249.127388 387.783798 
L 249.364194 414.597823 
L 249.837807 388.769357 
L 250.074613 337.690167 
L 250.311419 388.769357 
L 250.548225 413.816172 
L 251.49545 413.816172 
L 251.732256 379.729394 
L 251.969062 377.180532 
L 252.205869 413.816172 
L 252.442675 413.816172 
L 252.679481 484.232727 
L 252.916287 431.862114 
L 253.153093 431.760159 
L 253.3899 461.123047 
L 253.626706 463.671909 
L 253.863512 463.671909 
L 254.100318 438.625094 
L 254.337124 438.625094 
L 254.573931 463.671909 
L 254.810737 412.592719 
L 255.047543 463.671909 
L 255.284349 440.596214 
L 255.521156 364.028406 
L 255.757962 387.104101 
L 255.994768 387.104101 
L 256.231574 393.561218 
L 256.46838 393.561218 
L 257.415605 255.718772 
L 257.652411 294.087638 
L 257.889218 397.231579 
L 258.126024 397.231579 
L 258.36283 431.862114 
L 259.073249 431.862114 
L 259.310055 476.722081 
L 259.546861 484.232727 
L 259.783667 444.334544 
L 260.020473 444.334544 
L 260.25728 436.823898 
L 260.730892 370.655446 
L 261.204505 445.422059 
L 261.441311 445.422059 
L 261.678117 424.589362 
L 261.914923 424.589362 
L 262.151729 390.502583 
L 262.388536 390.400629 
L 262.625342 342.142179 
L 262.862148 401.785545 
L 263.098954 330.961172 
L 263.33576 330.961172 
L 263.572567 429.890994 
L 263.809373 427.342132 
L 264.046179 379.083683 
L 264.282985 433.255492 
L 264.519791 433.153537 
L 264.756598 470.129025 
L 265.23021 470.027071 
L 265.467016 481.038154 
L 265.703822 481.038154 
L 265.940629 455.889384 
L 266.177435 404.062528 
L 266.414241 455.889384 
L 266.651047 385.065012 
L 266.887854 453.170598 
L 267.361466 352.915368 
L 267.598272 404.062528 
L 267.835078 365.693662 
L 268.071885 404.062528 
L 268.308691 404.062528 
L 268.545497 402.66915 
L 268.782303 354.410701 
L 269.019109 344.249238 
L 269.492722 424.589362 
L 269.729528 376.330912 
L 269.966334 424.589362 
L 270.20314 424.589362 
L 270.439947 432.405871 
L 270.913559 287.018795 
L 271.150365 287.018795 
L 271.623978 432.405871 
L 271.860784 384.147421 
L 272.09759 362.193225 
L 272.334396 313.662897 
L 272.571203 413.408355 
L 272.808009 364.878026 
L 273.044815 425.506952 
L 273.281621 374.427762 
L 273.518427 425.506952 
L 273.755234 425.506952 
L 273.99204 400.460137 
L 274.228846 418.709987 
L 274.465652 467.240315 
L 274.939265 467.240315 
L 275.176071 484.232727 
L 275.649683 383.875543 
L 275.886489 356.211896 
L 276.123296 356.211896 
L 276.360102 317.84303 
L 276.596908 366.373359 
L 276.833714 341.326543 
L 277.07052 427.274163 
L 277.307327 376.194973 
L 277.544133 389.517024 
L 277.780939 393.255354 
L 278.017745 344.996904 
L 278.254552 396.076094 
L 278.491358 319.508287 
L 278.96497 319.508287 
L 279.201776 406.237557 
L 279.438583 406.237557 
L 279.675389 383.603664 
L 279.912195 431.862114 
L 280.385807 317.435212 
L 280.622614 317.435212 
L 280.85942 312.847261 
L 281.096226 429.890994 
L 281.333032 407.936798 
L 281.569838 454.496007 
L 281.806645 454.496007 
L 282.043451 451.777221 
L 282.280257 451.777221 
L 282.517063 453.170598 
L 282.753869 426.152664 
L 282.990676 377.894214 
L 283.227482 377.894214 
L 283.464288 426.152664 
L 283.701094 426.152664 
L 283.937901 481.038154 
L 284.411513 378.437971 
L 284.648319 365.965541 
L 284.885125 363.416679 
L 285.121932 340.918726 
L 285.358738 340.918726 
L 285.595544 365.965541 
L 285.83235 418.336154 
L 286.069156 347.511781 
L 286.305963 413.408355 
L 286.542769 388.36154 
L 286.779575 388.36154 
L 287.016381 427.274163 
L 287.253187 388.905297 
L 287.489994 444.334544 
L 287.7268 419.287729 
L 287.963606 415.549398 
L 288.200412 437.877428 
L 288.437218 402.227348 
L 288.910831 402.227348 
L 289.384443 259.762966 
L 289.62125 211.232638 
L 289.858056 226.525809 
L 290.094862 213.747515 
L 290.331668 387.681843 
L 290.568474 436.212171 
L 290.805281 433.66331 
L 291.278893 385.40486 
L 291.515699 387.953722 
L 291.752505 431.862114 
L 292.226118 355.294306 
L 292.69973 397.775336 
L 293.173343 283.348434 
L 293.410149 397.775336 
L 293.646955 431.862114 
L 293.883761 424.351468 
L 294.357374 351.895824 
L 294.59418 424.589362 
L 295.067792 424.589362 
L 295.304599 386.220496 
L 295.778211 429.890994 
L 296.015017 429.890994 
L 296.251823 381.632544 
L 296.48863 429.890994 
L 296.725436 413.816172 
L 296.962242 358.964667 
L 297.199048 379.55947 
L 297.435854 431.862114 
L 297.672661 409.907918 
L 297.909467 402.397272 
L 298.146273 378.200077 
L 298.383079 449.772116 
L 298.856692 449.772116 
L 299.093498 403.688695 
L 299.330304 333.27214 
L 300.040723 470.129025 
L 300.514335 470.129025 
L 300.751141 421.598697 
L 300.987947 405.965678 
L 301.224754 470.129025 
L 301.46156 481.513941 
L 301.698366 415.617368 
L 301.935172 413.068506 
L 302.171979 442.873197 
L 302.408785 432.405871 
L 302.645591 432.405871 
L 302.882397 402.66915 
L 303.119203 479.236958 
L 303.35601 413.340385 
L 303.592816 413.340385 
L 303.829622 418.336154 
L 304.066428 415.141581 
L 304.303234 338.573773 
L 304.540041 338.573773 
L 304.776847 404.470346 
L 305.250459 404.470346 
L 305.487265 445.422059 
L 305.724072 407.053193 
L 305.960878 445.422059 
L 306.197684 436.212171 
L 306.43449 484.232727 
L 306.671296 433.153537 
L 306.908103 425.642891 
L 307.381715 296.432591 
L 307.618521 337.520243 
L 307.855328 327.358781 
L 308.092134 327.358781 
L 308.32894 378.437971 
L 308.565746 375.889109 
L 308.802552 413.816172 
L 309.039359 388.769357 
L 309.512971 388.769357 
L 309.749777 413.816172 
L 309.986583 391.861976 
L 310.22339 353.49311 
L 310.697002 445.422059 
L 310.933808 437.911413 
L 311.407421 365.455768 
L 311.644227 372.966414 
L 311.881033 372.966414 
L 312.117839 351.012218 
L 312.591452 423.807711 
L 312.828258 420.613137 
L 313.065064 440.868092 
L 313.30187 440.868092 
L 313.538677 391.522128 
L 313.775483 386.220496 
L 314.012289 339.593317 
L 314.249095 368.854251 
L 314.485901 334.767472 
L 315.19632 413.816172 
L 315.433126 365.285844 
L 315.669932 467.240315 
L 315.906739 433.153537 
L 316.143545 467.240315 
L 316.380351 481.513941 
L 316.617157 451.777221 
L 316.853963 446.98536 
L 317.09077 481.038154 
L 317.327576 424.589362 
L 317.564382 429.890994 
L 317.801188 429.890994 
L 318.037994 353.323186 
L 318.274801 427.342132 
L 318.511607 361.445559 
L 318.748413 429.890994 
L 318.985219 378.811804 
L 319.222026 378.811804 
L 319.458832 422.95809 
L 319.695638 422.95809 
L 319.932444 474.03728 
L 320.406057 397.775336 
L 320.642863 431.862114 
L 321.353281 431.862114 
L 321.590088 397.775336 
L 321.826894 397.775336 
L 322.300506 481.038154 
L 322.537312 440.596214 
L 322.774119 438.047352 
L 323.010925 440.596214 
L 323.247731 412.252871 
L 323.484537 404.062528 
L 323.721343 453.170598 
L 323.95815 453.170598 
L 324.194956 481.513941 
L 324.668568 481.411987 
L 324.905375 481.411987 
L 325.142181 432.303917 
L 325.378987 432.405871 
L 325.615793 415.413459 
L 325.852599 429.890994 
L 326.089406 432.405871 
L 326.326212 404.062528 
L 326.563018 429.687085 
L 327.03663 429.687085 
L 327.273437 407.223117 
L 327.510243 459.049973 
L 327.747049 459.049973 
L 328.220661 411.165356 
L 328.457468 459.049973 
L 328.694274 459.049973 
L 328.93108 456.331187 
L 329.167886 388.2256 
L 329.404692 413.408355 
L 329.641499 383.671634 
L 329.878305 375.039489 
L 330.115111 438.353215 
L 330.351917 431.760159 
L 330.588724 380.680969 
L 330.82553 419.049835 
L 331.062336 430.434751 
L 331.299142 430.434751 
L 331.535948 481.513941 
L 331.772755 451.777221 
L 332.009561 404.946133 
L 332.246367 390.672508 
L 332.483173 407.664919 
L 332.719979 397.469472 
L 332.956786 397.469472 
L 333.193592 394.92061 
L 333.430398 360.833832 
L 333.667204 439.950502 
L 334.140817 439.950502 
L 334.377623 450.145949 
L 334.851235 396.755791 
L 335.088041 445.693937 
L 335.324848 445.693937 
L 335.561654 444.300559 
L 336.035266 444.300559 
L 336.272073 474.03728 
L 336.508879 422.210424 
L 336.745685 414.699778 
L 336.982491 424.895225 
L 337.219297 414.699778 
L 337.456104 392.745582 
L 337.69291 444.572438 
L 337.929716 437.775473 
L 338.166522 462.618379 
L 338.403328 462.618379 
L 338.640135 417.078716 
L 338.876941 436.823898 
L 339.350553 436.823898 
L 339.587359 413.408355 
L 339.824166 404.742225 
L 340.060972 431.862114 
L 340.297778 413.408355 
L 340.534584 364.878026 
L 340.77139 364.878026 
L 341.008197 356.211896 
L 341.245003 305.132706 
L 341.481809 378.811804 
L 341.718615 378.811804 
L 341.955422 428.157768 
L 342.192228 384.623209 
L 342.429034 313.798836 
L 342.66584 380.782924 
L 342.902646 373.510172 
L 343.139453 373.510172 
L 343.376259 404.810194 
L 344.086677 404.70824 
L 344.323484 455.78743 
L 344.56029 407.257102 
L 345.270708 407.257102 
L 345.507515 436.110217 
L 346.454739 436.110217 
L 346.691546 402.023439 
L 346.928352 402.023439 
L 347.165158 395.702261 
L 347.401964 373.578141 
L 347.63877 313.934776 
L 347.875577 424.589362 
L 348.112383 424.487407 
L 348.349189 390.400629 
L 348.585995 398.217138 
L 348.822802 445.048226 
L 349.059608 437.537579 
L 349.296414 371.641006 
L 349.53322 371.742961 
L 349.770026 442.635303 
L 350.006833 371.81093 
L 350.243639 371.81093 
L 350.480445 357.36738 
L 350.954057 413.408355 
L 351.42767 313.323049 
L 351.664476 404.402376 
L 351.901282 445.422059 
L 352.138088 445.422059 
L 352.374895 440.596214 
L 352.611701 392.065885 
L 352.848507 418.709987 
L 353.085313 352.813414 
L 353.322119 418.709987 
L 354.032538 418.709987 
L 354.269344 370.451537 
L 354.506151 479.236958 
L 354.742957 430.978508 
L 354.979763 479.236958 
L 355.216569 484.232727 
L 355.453375 462.278531 
L 355.690182 385.710723 
L 355.926988 351.623945 
L 356.163794 402.66915 
L 356.4006 377.928199 
L 356.637406 326.849009 
L 356.874213 326.747054 
L 357.111019 260.850481 
L 357.584631 260.952435 
L 357.821437 265.642341 
L 358.058244 402.66915 
L 358.531856 402.66915 
L 358.768662 424.589362 
L 359.005468 373.510172 
L 359.242275 365.999525 
L 359.479081 373.510172 
L 359.715887 373.510172 
L 359.952693 389.517024 
L 360.1895 355.430245 
L 360.426306 382.074347 
L 360.899918 402.125393 
L 361.136724 363.756527 
L 361.373531 354.818518 
L 361.610337 354.818518 
L 361.847143 409.058297 
L 362.320755 408.956343 
L 362.557562 408.956343 
L 362.794368 420.409228 
L 363.031174 372.150779 
L 363.26798 372.048824 
L 363.504786 358.149031 
L 363.978399 479.135004 
L 364.215205 457.180808 
L 364.452011 479.135004 
L 365.16243 479.135004 
L 365.636042 402.125393 
L 365.872849 436.212171 
L 366.109655 414.257975 
L 366.346461 402.635165 
L 366.583267 448.174829 
L 366.820073 454.767885 
L 367.05688 409.907918 
L 367.293686 424.589362 
L 367.530492 386.220496 
L 367.767298 393.493248 
L 368.004104 393.493248 
L 368.240911 345.234798 
L 368.477717 444.334544 
L 368.714523 444.334544 
L 368.951329 392.507688 
L 369.188135 407.359056 
L 369.424942 379.015713 
L 369.661748 313.11914 
L 369.898554 364.945996 
L 370.13536 364.945996 
L 370.372166 470.129025 
L 370.608973 436.212171 
L 371.319391 436.110217 
L 371.556198 370.213644 
L 371.793004 396.280003 
L 372.02981 393.08543 
L 372.266616 393.08543 
L 372.503422 415.039626 
L 372.740229 412.490764 
L 372.977035 415.685338 
L 373.213841 408.174692 
L 373.450647 410.825508 
L 373.687453 476.722081 
L 374.161066 417.452549 
L 374.397872 476.722081 
L 374.634678 446.98536 
L 374.871484 474.003295 
L 375.108291 404.742225 
L 375.345097 397.231579 
L 375.581903 466.526634 
L 375.818709 466.526634 
L 376.055515 424.589362 
L 376.292322 358.692788 
L 376.529128 365.965541 
L 376.765934 408.140707 
L 377.00274 337.316334 
L 377.476353 337.316334 
L 377.713159 408.140707 
L 377.949965 369.771841 
L 378.186771 445.693937 
L 378.660384 368.99019 
L 378.89719 368.99019 
L 379.133996 429.890994 
L 379.370802 429.890994 
L 379.607609 381.360666 
L 379.844415 435.702399 
L 380.081221 407.359056 
L 380.318027 330.791248 
L 380.554833 319.236408 
L 380.79164 285.14963 
L 381.028446 285.14963 
L 381.265252 382.482165 
L 381.738864 295.854849 
L 381.975671 413.170461 
L 382.212477 420.681107 
L 382.449283 442.057561 
L 382.686089 429.890994 
L 382.922896 381.360666 
L 383.159702 381.360666 
L 383.396508 413.748203 
L 383.633314 343.331648 
L 383.87012 413.816172 
L 384.343733 413.816172 
L 384.580539 391.861976 
L 384.817345 391.760022 
L 385.054151 458.982003 
L 385.290958 391.760022 
L 385.527764 391.760022 
L 385.76457 445.286119 
L 386.238182 445.286119 
L 386.474989 438.896972 
L 386.711795 438.896972 
L 386.948601 379.321576 
L 387.422213 379.321576 
L 387.65902 331.063127 
L 387.895826 323.552481 
L 388.132632 400.120289 
L 388.369438 378.166092 
L 388.606245 455.889384 
L 388.843051 448.378738 
L 389.316663 348.76922 
L 389.553469 397.299548 
L 389.790276 404.810194 
L 390.027082 366.441328 
L 390.263888 394.784671 
L 390.7375 306.35616 
L 390.974307 412.592719 
L 391.211113 336.024911 
L 391.447919 435.328566 
L 391.684725 413.816172 
L 391.921531 362.736982 
L 392.158338 373.510172 
L 392.395144 373.510172 
L 392.63195 365.999525 
L 392.868756 417.078716 
L 393.579175 417.078716 
L 393.815981 463.671909 
L 394.052787 463.671909 
L 394.5264 388.905297 
L 394.763206 366.951101 
L 395.000012 421.190879 
L 395.236818 443.145075 
L 395.473625 436.212171 
L 395.710431 455.889384 
L 395.947237 407.359056 
L 396.184043 385.065012 
L 396.420849 412.252871 
L 396.657656 412.252871 
L 396.894462 430.842569 
L 397.131268 430.842569 
L 397.60488 306.016312 
L 398.078493 476.722081 
L 398.315299 474.003295 
L 398.552105 474.003295 
L 399.025718 403.416816 
L 399.262524 369.330038 
L 399.49933 394.376853 
L 399.972942 359.372485 
L 400.209749 359.372485 
L 400.683361 481.038154 
L 400.920167 481.038154 
L 401.156974 442.669288 
L 401.39378 442.567333 
L 401.630586 394.308884 
L 401.867392 318.012954 
L 402.341005 318.114909 
L 402.577811 353.968898 
L 402.814617 353.968898 
L 403.051423 328.922083 
L 403.288229 326.373221 
L 403.525036 374.529716 
L 403.761842 377.078578 
L 404.235454 456.365172 
L 404.47226 456.467126 
L 404.709067 481.513941 
L 404.945873 456.331187 
L 405.182679 456.331187 
L 405.656291 358.692788 
L 405.893098 422.210424 
L 406.129904 373.680096 
L 406.36671 388.123646 
L 406.603516 388.123646 
L 406.840323 448.854526 
L 407.077129 426.90033 
L 407.313935 448.752571 
L 407.550741 436.212171 
L 407.787547 436.212171 
L 408.024354 402.125393 
L 408.26116 424.589362 
L 408.497966 376.330912 
L 408.734772 368.820266 
L 408.971578 368.820266 
L 409.208385 474.003295 
L 409.918803 347.375842 
L 410.155609 347.273888 
L 410.392416 373.306263 
L 410.629222 380.816909 
L 410.866028 380.918863 
L 411.102834 420.817046 
L 411.813253 258.131695 
L 412.050059 181.563887 
L 412.286865 181.563887 
L 412.523672 159.609691 
L 412.997284 249.36361 
L 413.23409 249.36361 
L 413.470896 431.862114 
L 413.707703 355.294306 
L 413.944509 431.862114 
L 414.181315 431.862114 
L 414.418121 383.603664 
L 414.654927 365.149905 
L 414.891734 362.601043 
L 415.12854 339.967151 
L 415.365346 410.791523 
L 415.602152 334.223715 
L 415.838958 309.1769 
L 416.075765 301.666254 
L 416.312571 367.155009 
L 416.549377 367.155009 
L 416.786183 362.601043 
L 417.022989 384.283361 
L 417.259796 318.386787 
L 417.496602 315.837926 
L 417.733408 405.387936 
L 418.207021 405.387936 
L 418.443827 407.936798 
L 418.680633 462.278531 
L 418.917439 457.282762 
L 419.154245 454.7339 
L 419.627858 454.7339 
L 419.864664 427.274163 
L 420.10147 427.274163 
L 420.338276 350.706355 
L 420.811889 454.190143 
L 421.048695 388.29357 
L 421.285501 354.920473 
L 421.522307 420.817046 
L 421.759114 418.09826 
L 421.99592 382.006377 
L 422.232726 382.006377 
L 422.469532 455.889384 
L 422.706338 389.992811 
L 422.943145 368.038615 
L 423.179951 368.038615 
L 423.416757 389.992811 
L 423.653563 338.913621 
L 423.89037 338.913621 
L 424.127176 313.730867 
L 424.363982 393.255354 
L 424.600788 344.725026 
L 424.837594 380.782924 
L 425.074401 381.326681 
L 425.311207 381.326681 
L 425.548013 347.239903 
L 425.784819 351.58996 
L 426.258432 479.236958 
L 426.495238 474.03728 
L 426.732044 473.935326 
L 426.96885 448.888511 
L 427.205656 448.888511 
L 427.442463 473.935326 
L 427.679269 466.42468 
L 427.916075 400.528106 
L 428.152881 428.701525 
L 428.389687 377.622335 
L 428.626494 377.622335 
L 429.100106 462.618379 
L 429.336912 424.895225 
L 429.573719 444.334544 
L 429.810525 444.334544 
L 430.047331 434.139097 
L 430.284137 408.140707 
L 430.520943 408.038752 
L 430.75775 473.935326 
L 430.994556 473.935326 
L 431.231362 396.076094 
L 431.468168 444.334544 
L 431.704974 396.076094 
L 431.941781 376.330912 
L 432.178587 342.244134 
L 432.415393 265.676326 
L 432.652199 447.427163 
L 432.889005 410.247766 
L 433.125812 410.247766 
L 433.362618 379.729394 
L 433.599424 413.816172 
L 433.83623 470.129025 
L 434.073036 470.129025 
L 434.309843 413.816172 
L 434.546649 413.816172 
L 434.783455 337.248365 
L 435.020261 407.664919 
L 435.257068 355.838063 
L 435.493874 361.581498 
L 435.73068 361.581498 
L 435.967486 445.422059 
L 436.204292 429.890994 
L 436.441099 431.862114 
L 436.677905 431.862114 
L 436.914711 444.334544 
L 437.151517 470.129025 
L 437.388323 436.042247 
L 437.62513 447.427163 
L 437.861936 481.513941 
L 438.098742 430.434751 
L 438.335548 437.877428 
L 438.572354 429.78904 
L 439.045967 429.890994 
L 439.282773 353.323186 
L 439.756385 353.323186 
L 439.993192 367.766736 
L 440.229998 404.470346 
L 440.70361 333.679958 
L 440.940417 333.679958 
L 441.177223 410.247766 
L 441.414029 379.321576 
L 441.650835 330.791248 
L 441.887641 330.791248 
L 442.124448 349.788765 
L 442.361254 432.405871 
L 442.59806 429.687085 
L 442.834866 432.405871 
L 443.071672 424.895225 
L 443.308479 432.405871 
L 443.545285 411.845053 
L 443.782091 435.328566 
L 444.018897 417.520518 
L 444.49251 350.230567 
L 444.966122 350.230567 
L 445.202928 428.871449 
L 445.439734 438.353215 
L 445.676541 372.456642 
L 445.913347 338.369864 
L 446.150153 365.965541 
L 446.386959 365.965541 
L 446.623765 418.336154 
L 446.860572 365.965541 
L 447.097378 410.825508 
L 447.334184 367.188994 
L 447.57099 367.188994 
L 447.807797 374.69964 
L 448.044603 374.69964 
L 448.281409 372.150779 
L 448.518215 386.050571 
L 448.755021 334.223715 
L 448.991828 326.713069 
L 449.228634 432.405871 
L 449.46544 352.915368 
L 449.702246 375.005504 
L 449.939052 426.152664 
L 450.175859 444.300559 
L 450.412665 474.03728 
L 450.649471 474.03728 
L 450.886277 466.526634 
L 451.123083 444.300559 
L 451.35989 435.668414 
L 451.596696 435.668414 
L 451.833502 474.03728 
L 452.070308 474.03728 
L 452.543921 411.607159 
L 452.780727 411.607159 
L 453.017533 412.252871 
L 453.254339 363.994421 
L 453.491146 437.877428 
L 453.727952 413.816172 
L 453.964758 413.816172 
L 454.201564 454.496007 
L 454.43837 410.859493 
L 454.675177 437.877428 
L 454.911983 374.69964 
L 455.148789 361.377589 
L 455.385595 401.343742 
L 455.622401 467.240315 
L 455.859208 390.672508 
L 456.096014 397.469472 
L 456.33282 394.92061 
L 456.569626 427.342132 
L 456.806432 427.342132 
L 457.043239 361.445559 
L 457.280045 433.66331 
L 457.516851 426.152664 
L 457.753657 392.065885 
L 457.990463 399.576531 
L 458.22727 399.576531 
L 458.464076 402.023439 
L 458.700882 402.023439 
L 458.937688 481.581911 
L 459.174495 447.495133 
L 459.411301 442.601318 
L 459.884913 442.601318 
L 460.358526 398.455032 
L 460.595332 412.898582 
L 460.832138 446.98536 
L 461.068944 445.422059 
L 461.30575 445.422059 
L 461.542557 440.596214 
L 461.779363 467.240315 
L 462.252975 384.895087 
L 462.489781 359.848272 
L 462.726588 467.240315 
L 462.963394 459.729669 
L 463.2002 459.627715 
L 463.437006 445.422059 
L 463.673812 396.89173 
L 463.910619 445.422059 
L 464.384231 445.422059 
L 464.621037 404.742225 
L 464.857844 402.193363 
L 465.09465 438.047352 
L 465.331456 386.968162 
L 465.568262 429.313252 
L 465.805068 381.054802 
L 466.041875 412.864597 
L 466.278681 415.413459 
L 466.752293 415.413459 
L 466.989099 390.230705 
L 467.225906 463.671909 
L 467.462712 456.161263 
L 467.699518 463.671909 
L 467.936324 463.671909 
L 468.17313 481.038154 
L 468.409937 404.742225 
L 468.646743 404.742225 
L 469.120355 484.232727 
L 469.357161 484.130773 
L 469.593968 480.936199 
L 469.830774 484.130773 
L 470.06758 435.600445 
L 470.304386 431.760159 
L 470.541193 431.760159 
L 470.777999 433.051583 
L 471.014805 394.682717 
L 471.251611 433.051583 
L 471.488417 433.153537 
L 471.96203 319.236408 
L 472.198836 399.066759 
L 472.435642 394.07099 
L 472.672448 384.623209 
L 472.909255 324.979843 
L 473.146061 324.979843 
L 473.619673 484.232727 
L 473.856479 413.408355 
L 474.330092 413.408355 
L 474.566898 431.862114 
L 474.803704 431.862114 
L 475.04051 432.405871 
L 475.277317 432.303917 
L 475.514123 445.320104 
L 475.750929 394.240914 
L 475.987735 394.240914 
L 476.224542 386.730268 
L 476.698154 404.70824 
L 476.93496 370.621462 
L 477.171766 421.700652 
L 477.408573 396.653836 
L 477.645379 421.700652 
L 477.882185 413.714218 
L 478.118991 467.138361 
L 478.82941 467.240315 
L 479.066216 484.232727 
L 479.303022 436.212171 
L 479.539828 432.405871 
L 479.776635 384.147421 
L 480.013441 421.870576 
L 480.487053 421.870576 
L 480.723859 430.978508 
L 481.197472 430.978508 
L 481.434278 379.899318 
L 481.671084 409.024312 
L 481.907891 457.180808 
L 482.144697 457.282762 
L 482.381503 479.236958 
L 482.618309 476.688096 
L 482.855115 476.688096 
L 483.328728 361.479544 
L 483.565534 355.294306 
L 483.80234 407.664919 
L 484.039146 404.946133 
L 484.275953 474.003295 
L 484.512759 476.722081 
L 484.986371 459.015988 
L 485.223177 393.119415 
L 485.459984 459.015988 
L 485.933596 374.631671 
L 486.407208 474.03728 
L 486.644015 466.526634 
L 486.880821 441.479819 
L 487.117627 364.912011 
L 487.354433 441.479819 
L 487.59124 448.990465 
L 487.828046 431.862114 
L 488.064852 383.603664 
L 488.301658 383.603664 
L 488.538464 376.093018 
L 489.012077 424.351468 
L 489.248883 421.802606 
L 489.485689 424.351468 
L 489.722495 431.862114 
L 489.959302 404.742225 
L 490.196108 463.671909 
L 490.432914 420.035395 
L 490.66972 438.047352 
L 490.906526 440.596214 
L 491.143333 440.596214 
L 491.380139 364.028406 
L 491.616945 467.240315 
L 491.853751 358.556849 
L 492.090557 381.054802 
L 492.327364 384.895087 
L 492.56417 379.083683 
L 493.274588 379.083683 
L 493.748201 456.63705 
L 494.221813 320.323922 
L 494.45862 320.323922 
L 494.695426 311.249974 
L 494.932232 319.916104 
L 495.169038 322.464966 
L 495.405844 300.51077 
L 495.642651 300.51077 
L 495.879457 363.110815 
L 496.116263 391.454158 
L 496.353069 383.671634 
L 496.589875 481.038154 
L 496.826682 432.507826 
L 497.063488 432.507826 
L 497.300294 432.983613 
L 497.5371 432.983613 
L 497.773906 435.702399 
L 498.010713 366.373359 
L 498.247519 332.28658 
L 498.484325 379.729394 
L 498.721131 402.125393 
L 499.194744 402.125393 
L 499.43155 394.614747 
L 499.668356 372.660551 
L 499.905162 439.916517 
L 500.141969 424.351468 
L 500.378775 424.895225 
L 500.615581 354.070852 
L 500.852387 354.070852 
L 501.089193 404.334407 
L 501.326 356.075957 
L 501.562806 432.405871 
L 501.799612 407.223117 
L 502.036418 358.964667 
L 502.273224 373.951974 
L 502.510031 363.586603 
L 502.746837 363.586603 
L 502.983643 413.816172 
L 503.220449 424.589362 
L 503.694062 424.589362 
L 503.930868 467.240315 
L 504.167674 442.1935 
L 504.40448 467.240315 
L 504.641286 431.862114 
L 504.878093 413.816172 
L 505.351705 413.816172 
L 505.588511 411.267311 
L 505.825318 433.66331 
L 506.29893 433.66331 
L 506.535736 451.947145 
L 506.772542 461.123047 
L 507.009349 453.612401 
L 507.246155 415.243535 
L 507.482961 415.243535 
L 507.719767 413.3064 
L 507.956573 391.352204 
L 508.19338 391.352204 
L 508.430186 342.821876 
L 508.903798 424.589362 
L 509.140604 424.589362 
L 509.377411 455.991339 
L 509.614217 420.375243 
L 510.087829 481.038154 
L 510.324635 481.038154 
L 510.561442 431.862114 
L 510.798248 444.334544 
L 511.035054 422.380348 
L 511.27186 441.717713 
L 511.508667 441.717713 
L 511.745473 462.278531 
L 511.982279 418.642017 
L 512.219085 440.596214 
L 512.455891 427.274163 
L 512.692698 405.319967 
L 512.929504 405.319967 
L 513.16631 418.642017 
L 513.403116 462.278531 
L 513.876729 449.772116 
L 514.113535 449.772116 
L 514.350341 471.726312 
L 514.587147 471.726312 
L 515.06076 403.824634 
L 515.297566 403.824634 
L 515.534372 372.218748 
L 516.007984 372.218748 
L 516.244791 435.124657 
L 516.481597 383.297801 
L 516.718403 424.895225 
L 516.955209 422.346363 
L 517.192016 397.163609 
L 517.428822 397.163609 
L 517.665628 399.712471 
L 517.902434 451.539327 
L 518.13924 403.008999 
L 518.376047 403.008999 
L 518.612853 462.618379 
L 518.849659 459.729669 
L 519.086465 459.729669 
L 519.323271 462.618379 
L 519.560078 396.721806 
L 519.796884 474.003295 
L 520.03369 473.901341 
L 520.507302 363.722542 
L 520.744109 412.252871 
L 520.980915 410.859493 
L 521.217721 427.274163 
L 521.691333 427.274163 
L 521.92814 424.725301 
L 522.164946 427.274163 
L 522.875365 427.274163 
L 523.112171 376.194973 
L 523.822589 376.093018 
L 524.059396 427.172208 
L 524.296202 378.64188 
L 524.769814 455.889384 
L 525.480233 455.78743 
L 525.717039 430.604675 
L 525.953845 430.604675 
L 526.190651 438.489155 
L 526.427458 438.489155 
L 527.137876 360.969772 
L 527.374682 382.923968 
L 527.611489 378.370001 
L 527.848295 403.416816 
L 528.085101 403.416816 
L 528.321907 433.153537 
L 528.558714 422.95809 
L 528.79552 474.03728 
L 529.269132 474.03728 
L 529.505938 448.990465 
L 529.742745 448.990465 
L 529.979551 414.903687 
L 530.216357 411.165356 
L 530.453163 459.185912 
L 530.689969 430.842569 
L 530.926776 430.842569 
L 531.163582 459.185912 
L 531.400388 454.190143 
L 531.637194 434.003158 
L 531.874 459.185912 
L 532.110807 419.287729 
L 532.347613 436.212171 
L 532.584419 414.257975 
L 532.821225 365.999525 
L 533.058031 414.257975 
L 533.294838 365.999525 
L 533.531644 414.257975 
L 533.76845 411.199341 
L 534.005256 411.097387 
L 534.242063 362.838937 
L 534.478869 337.656182 
L 534.715675 359.27053 
L 534.952481 359.27053 
L 535.189287 361.479544 
L 535.426094 361.479544 
L 535.6629 364.878026 
L 535.899706 356.211896 
L 536.136512 381.360666 
L 536.373318 418.709987 
L 536.610125 367.630797 
L 536.846931 415.413459 
L 537.083737 415.413459 
L 537.557349 318.82859 
L 538.030962 430.842569 
L 538.267768 430.842569 
L 538.504574 364.810057 
L 538.74138 342.855861 
L 538.978187 291.77667 
L 539.214993 291.77667 
L 539.451799 340.03512 
L 539.688605 325.761494 
L 540.399024 325.761494 
L 540.63583 401.139833 
L 540.872636 423.094029 
L 541.109443 423.094029 
L 541.346249 360.188121 
L 541.583055 411.165356 
L 542.056667 411.165356 
L 542.293474 442.771242 
L 542.53028 442.771242 
L 542.767086 394.512793 
L 543.003892 397.061654 
L 543.714311 397.163609 
L 543.951117 363.076831 
L 544.187923 363.076831 
L 544.424729 311.997641 
L 544.661536 479.236958 
L 545.371954 479.236958 
L 545.60876 427.274163 
L 545.845567 427.274163 
L 546.082373 484.232727 
L 546.555985 337.248365 
L 546.792792 337.248365 
L 547.029598 413.816172 
L 547.266404 413.816172 
L 547.50321 440.596214 
L 547.740016 424.589362 
L 547.976823 376.330912 
L 548.213629 397.163609 
L 548.450435 389.652963 
L 548.924047 389.652963 
L 549.160854 437.911413 
L 549.39766 417.078716 
L 549.634466 414.529854 
L 549.871272 424.725301 
L 550.108078 424.725301 
L 550.344885 427.274163 
L 550.818497 427.274163 
L 551.055303 419.763517 
L 551.292109 419.763517 
L 551.528916 427.274163 
L 551.765722 402.227348 
L 552.002528 402.125393 
L 552.239334 427.172208 
L 552.476141 402.125393 
L 552.712947 402.125393 
L 552.949753 408.106722 
L 553.186559 406.815299 
L 553.423365 408.106722 
L 553.660172 408.106722 
L 553.896978 411.165356 
L 554.133784 481.513941 
L 554.37059 433.255492 
L 554.607396 433.255492 
L 554.844203 365.149905 
L 555.081009 379.015713 
L 555.317815 365.557723 
L 555.554621 299.66115 
L 555.791427 366.883131 
L 556.028234 310.434339 
L 556.26504 302.923693 
L 556.501846 318.250848 
L 556.738652 279.881982 
L 556.975458 366.509298 
L 557.212265 289.94149 
L 557.449071 289.94149 
L 557.685877 271.351791 
L 558.15949 382.618104 
L 558.396296 359.644363 
L 558.633102 454.496007 
L 558.869908 444.300559 
L 559.106714 396.04211 
L 559.343521 430.400766 
L 559.817133 430.400766 
L 560.053939 474.03728 
L 560.290745 431.862114 
L 560.527552 431.862114 
L 560.764358 440.596214 
L 561.001164 420.035395 
L 561.23797 479.236958 
L 561.474776 430.978508 
L 561.948389 424.725301 
L 562.185195 404.470346 
L 562.422001 368.854251 
L 562.658807 356.585729 
L 562.895614 304.758873 
L 563.13242 381.326681 
L 563.842839 381.326681 
L 564.553257 272.745169 
L 565.02687 474.03728 
L 565.263676 481.038154 
L 565.500482 404.470346 
L 565.737288 463.671909 
L 565.974094 424.589362 
L 566.210901 440.596214 
L 566.684513 373.884005 
L 567.158125 411.131371 
L 567.394932 411.131371 
L 567.631738 454.665931 
L 567.868544 476.620127 
L 568.342156 476.722081 
L 568.578963 456.161263 
L 568.815769 463.671909 
L 569.052575 433.935188 
L 569.289381 479.236958 
L 569.526188 431.862114 
L 569.762994 431.862114 
L 569.9998 436.212171 
L 570.236606 424.589362 
L 570.710219 424.589362 
L 571.183831 364.266299 
L 571.420637 364.266299 
L 571.657443 354.104837 
L 572.131056 444.334544 
L 572.367862 444.334544 
L 572.604668 396.076094 
L 572.841474 396.076094 
L 573.078281 319.508287 
L 573.315087 430.978508 
L 573.551893 392.609642 
L 573.788699 327.188857 
L 574.025505 293.102079 
L 574.499118 293.102079 
L 574.735924 331.470945 
L 574.97273 444.334544 
L 575.209537 434.139097 
L 575.683149 434.139097 
L 575.919955 470.129025 
L 577.577599 470.129025 
L 577.814405 431.862114 
L 578.524823 431.862114 
L 578.76163 445.422059 
L 578.998436 397.163609 
L 579.235242 397.163609 
L 579.472048 430.978508 
L 579.708854 435.974278 
L 580.182467 363.518633 
L 580.419273 292.694261 
L 580.656079 377.044593 
L 580.892886 377.044593 
L 581.129692 300.476785 
L 581.603304 300.476785 
L 581.84011 278.522589 
L 582.076917 393.459263 
L 582.313723 415.413459 
L 582.787335 415.413459 
L 583.024141 377.044593 
L 583.260948 415.413459 
L 583.497754 379.015713 
L 583.73456 379.015713 
L 583.971366 365.149905 
L 584.208172 413.578279 
L 584.444979 413.578279 
L 584.681785 379.491501 
L 584.918591 372.490627 
L 585.392203 372.490627 
L 585.62901 467.240315 
L 585.865816 413.816172 
L 586.102622 432.405871 
L 586.339428 383.875543 
L 586.576235 383.875543 
L 586.813041 432.405871 
L 587.286653 342.957815 
L 588.233878 342.957815 
L 588.470684 394.037005 
L 588.70749 342.957815 
L 588.944297 377.792259 
L 589.181103 377.792259 
L 589.417909 410.519645 
L 589.654715 425.506952 
L 589.891521 374.427762 
L 590.128328 374.427762 
L 590.365134 425.506952 
L 590.60194 430.400766 
L 590.838746 396.313988 
L 591.075552 394.546777 
L 591.312359 400.154273 
L 591.549165 466.526634 
L 591.785971 466.526634 
L 592.022777 444.572438 
L 592.259583 444.572438 
L 592.49639 434.139097 
L 592.733196 444.334544 
L 592.970002 481.513941 
L 593.206808 456.331187 
L 593.443615 481.513941 
L 593.680421 432.983613 
L 593.917227 436.212171 
L 594.390839 385.065012 
L 594.627646 453.170598 
L 594.864452 453.170598 
L 595.338064 429.890994 
L 595.57487 444.334544 
L 595.811677 378.437971 
L 596.048483 378.336017 
L 596.285289 413.816172 
L 596.522095 365.557723 
L 596.758901 433.255492 
L 596.995708 381.428635 
L 597.232514 384.725163 
L 597.46932 451.777221 
L 598.179739 320.79971 
L 598.416545 333.544019 
L 598.653351 442.057561 
L 598.890157 433.153537 
L 599.126964 467.240315 
L 599.36377 315.430108 
L 599.600576 404.232452 
L 600.074188 404.232452 
L 600.310995 481.038154 
L 600.547801 440.596214 
L 600.784607 440.494259 
L 601.021413 413.3064 
L 601.258219 413.3064 
L 601.495026 336.738592 
L 601.731832 329.227946 
L 601.968638 355.294306 
L 602.205444 355.838063 
L 602.44225 307.307735 
L 602.679057 285.353539 
L 602.915863 402.941029 
L 603.152669 402.941029 
L 603.389475 436.823898 
L 604.099894 436.823898 
L 604.3367 428.191753 
L 604.573506 351.623945 
L 604.810313 313.255079 
L 605.047119 389.822887 
L 605.283925 389.822887 
L 605.520731 407.053193 
L 605.757537 445.422059 
L 606.23115 328.174417 
L 606.467956 303.127602 
L 606.704762 303.127602 
L 606.941568 325.625555 
L 607.178375 303.127602 
L 607.415181 237.231028 
L 607.651987 311.249974 
L 607.888793 336.29679 
L 608.125599 302.210011 
L 608.362406 302.210011 
L 608.599212 342.889845 
L 608.836018 330.621324 
L 609.072824 330.51937 
L 609.30963 282.26092 
L 609.546437 330.51937 
L 609.783243 330.621324 
L 610.020049 333.170186 
L 610.256855 330.621324 
L 610.493662 333.170186 
L 610.730468 330.4514 
L 610.967274 314.886351 
L 611.20408 365.965541 
L 611.440886 347.511781 
L 611.677693 347.511781 
L 612.151305 484.232727 
L 612.624917 433.935188 
L 612.861724 463.569954 
L 613.335336 463.569954 
L 613.572142 429.483176 
L 613.808948 444.334544 
L 614.282561 367.732751 
L 615.229786 367.732751 
L 615.466592 359.100606 
L 615.703398 358.998652 
L 615.940204 383.50171 
L 616.177011 358.556849 
L 616.413817 431.862114 
L 616.650623 355.294306 
L 617.124235 481.038154 
L 617.361042 432.779704 
L 617.597848 432.779704 
L 617.834654 433.255492 
L 618.07146 404.062528 
L 618.308266 404.062528 
L 618.545073 369.97575 
L 618.781879 369.97575 
L 619.018685 404.062528 
L 619.255491 404.062528 
L 619.492297 352.915368 
L 620.202716 352.915368 
L 620.439522 436.212171 
L 620.676328 459.049973 
L 620.913135 456.331187 
L 621.149941 481.513941 
L 621.623553 410.859493 
L 621.86036 440.596214 
L 622.097166 420.035395 
L 622.333972 354.138822 
L 622.570778 420.035395 
L 622.807584 435.328566 
L 623.044391 463.671909 
L 623.281197 438.489155 
L 623.518003 388.2256 
L 623.991615 388.2256 
L 624.228422 432.507826 
L 624.465228 432.507826 
L 624.702034 378.743834 
L 625.412453 378.743834 
L 625.649259 353.697019 
L 625.886065 410.655584 
L 626.122871 331.165081 
L 626.359677 339.831211 
L 626.596484 337.282349 
L 627.070096 337.282349 
L 627.306902 353.663034 
L 627.543709 353.56108 
L 627.780515 362.22721 
L 628.017321 323.858344 
L 628.490933 435.668414 
L 628.72774 435.668414 
L 628.964546 444.300559 
L 629.201352 444.300559 
L 629.438158 429.313252 
L 629.674964 430.70663 
L 629.911771 405.659815 
L 630.385383 310.502308 
L 630.622189 338.845651 
L 631.095802 481.038154 
L 631.569414 480.936199 
L 632.043026 406.407481 
L 632.279833 384.453285 
L 632.516639 385.948617 
L 632.990251 385.948617 
L 633.227058 378.505941 
L 633.463864 429.585131 
L 633.937476 389.381084 
L 634.174282 404.742225 
L 634.411089 361.105711 
L 634.647895 361.105711 
L 634.884701 445.422059 
L 635.358313 445.422059 
L 635.59512 411.33528 
L 635.831926 429.585131 
L 636.068732 429.483176 
L 636.305538 378.403986 
L 636.542344 378.403986 
L 636.779151 429.483176 
L 637.015957 429.483176 
L 637.252763 380.952848 
L 637.489569 373.442202 
L 637.726375 373.442202 
L 637.963182 322.363012 
L 638.199988 353.357171 
L 638.436794 345.574646 
L 638.6736 350.978233 
L 639.147213 306.016312 
L 639.384019 365.149905 
L 639.620825 288.582097 
L 639.857631 288.582097 
L 640.094438 413.408355 
L 640.56805 413.3064 
L 640.804856 361.479544 
L 641.041662 429.687085 
L 641.278469 381.428635 
L 641.515275 359.100606 
L 641.988887 359.100606 
L 642.225693 361.581498 
L 642.4625 432.405871 
L 642.699306 361.581498 
L 642.936112 355.838063 
L 643.409724 355.838063 
L 643.646531 432.405871 
L 644.120143 295.684925 
L 644.356949 295.684925 
L 644.593755 361.581498 
L 644.830562 327.49472 
L 645.067368 359.950227 
L 645.304174 411.777083 
L 645.54098 411.675129 
L 645.777787 381.938408 
L 646.251399 381.938408 
L 646.488205 305.3706 
L 646.725011 305.3706 
L 646.961818 339.457378 
L 647.198624 329.295916 
L 647.672236 329.295916 
L 647.909042 355.294306 
L 648.145849 397.775336 
L 648.619461 293.509896 
L 648.856267 351.623945 
L 649.32988 351.623945 
L 649.566686 329.669749 
L 650.040298 379.389546 
L 650.277104 376.840684 
L 650.513911 376.840684 
L 650.750717 445.286119 
L 650.987523 445.286119 
L 651.224329 441.717713 
L 651.461136 407.630935 
L 651.697942 441.717713 
L 651.934748 439.168851 
L 652.171554 441.717713 
L 652.40836 390.638523 
L 652.881973 428.157768 
L 653.355585 428.157768 
L 653.592391 379.899318 
L 653.829198 428.429647 
L 654.30281 428.429647 
L 654.539616 430.978508 
L 654.776422 365.081935 
L 655.013229 413.340385 
L 655.486841 413.340385 
L 655.723647 347.511781 
L 655.960453 340.001135 
L 656.19726 340.001135 
L 656.434066 405.897709 
L 656.670872 405.897709 
L 656.907678 398.387063 
L 657.144485 398.387063 
L 657.381291 435.124657 
L 657.854903 323.552481 
L 658.565322 323.552481 
L 658.802128 257.655907 
L 659.27574 257.655907 
L 659.512547 181.0881 
L 659.986159 181.0881 
L 660.222965 159.133903 
L 660.696578 203.382144 
L 660.933384 173.645423 
L 662.591027 173.645423 
L 662.827834 215.174878 
L 663.06464 212.626016 
L 663.301446 212.626016 
L 663.538252 222.5156 
L 663.775058 222.5156 
L 664.011865 314.818381 
L 664.485477 381.088787 
L 664.722283 381.088787 
L 664.959089 376.059033 
L 665.195896 411.097387 
L 665.432702 403.586741 
L 665.669508 411.097387 
L 665.906314 400.901939 
L 666.379927 365.557723 
L 666.616733 365.557723 
L 666.853539 406.237557 
L 667.090345 406.237557 
L 667.327151 362.601043 
L 667.563958 406.237557 
L 667.800764 396.04211 
L 668.03757 396.04211 
L 668.274376 451.777221 
L 668.511183 444.334544 
L 668.747989 463.671909 
L 669.221601 385.132981 
L 669.458407 393.255354 
L 669.695214 419.15179 
L 670.168826 419.15179 
L 670.405632 370.89334 
L 670.642438 362.261195 
L 670.879245 362.261195 
L 671.116051 357.707228 
L 671.352857 357.707228 
L 671.589663 406.237557 
L 671.826469 398.726911 
L 672.063276 360.358045 
L 672.300082 367.868691 
L 672.536888 390.094766 
L 673.0105 390.094766 
L 673.247307 341.564437 
L 673.484113 346.356297 
L 673.720919 289.431718 
L 673.957725 339.423393 
L 674.194532 336.364759 
L 674.431338 265.540387 
L 674.668144 265.540387 
L 674.90495 365.557723 
L 675.141756 363.008861 
L 675.615369 363.008861 
L 675.852175 436.212171 
L 676.088981 444.334544 
L 676.325787 419.287729 
L 676.562594 419.287729 
L 677.036206 305.132706 
L 677.273012 305.132706 
L 677.509818 330.179521 
L 677.746625 330.179521 
L 677.983431 296.092743 
L 678.457043 296.092743 
L 678.930656 404.232452 
L 679.167462 401.68359 
L 679.877881 401.68359 
L 680.114687 376.636775 
L 680.588299 404.844179 
L 680.825105 429.890994 
L 681.061912 427.342132 
L 681.298718 404.844179 
L 681.535524 445.08221 
L 681.77233 456.467126 
L 682.009136 429.687085 
L 682.482749 429.687085 
L 682.719555 430.434751 
L 682.956361 433.153537 
L 683.193167 380.782924 
L 683.429974 380.782924 
L 683.66678 373.272278 
L 683.903586 446.98536 
L 684.377198 368.548387 
L 684.614005 368.548387 
L 684.850811 346.594191 
L 685.324423 346.594191 
L 685.56123 354.104837 
L 685.798036 391.861976 
L 686.508454 391.861976 
L 686.745261 413.816172 
L 686.982067 337.248365 
L 687.218873 334.699503 
L 687.455679 334.699503 
L 687.692485 334.291685 
L 687.929292 285.761357 
L 688.166098 285.761357 
L 688.402904 237.502907 
L 689.586935 237.502907 
L 689.823741 240.051769 
L 690.060547 240.051769 
L 690.297354 237.231028 
L 690.770966 237.231028 
L 691.007772 278.31868 
L 691.481385 278.31868 
L 691.718191 308.055401 
L 691.954997 308.055401 
L 692.191803 283.008586 
L 692.42861 331.538914 
L 692.665416 324.028268 
L 693.375834 324.028268 
L 693.612641 275.49794 
L 693.849447 272.201412 
L 694.086253 272.201412 
L 694.323059 206.304839 
L 694.559865 206.304839 
L 694.796672 257.384029 
L 695.270284 257.384029 
L 695.50709 268.73496 
L 695.743896 272.133442 
L 695.980703 272.133442 
L 696.217509 206.236869 
L 697.875152 206.236869 
L 698.111959 213.747515 
L 699.769602 213.747515 
L 700.006408 262.277843 
L 700.243214 262.175889 
L 700.716827 262.277843 
L 701.190439 179.660737 
L 703.795308 179.660737 
L 704.032114 245.55731 
L 704.26892 245.55731 
L 704.505726 361.717438 
L 704.742532 361.717438 
L 705.216145 282.940616 
L 705.452951 282.940616 
L 705.689757 217.044043 
L 707.821013 217.044043 
L 708.057819 209.533397 
L 713.267556 209.533397 
L 713.504362 257.791847 
L 717.056455 257.791847 
L 717.293261 265.302493 
L 719.661323 265.302493 
L 719.89813 243.348297 
L 720.134936 243.348297 
L 720.371742 265.302493 
L 722.739804 265.302493 
L 722.97661 276.075682 
L 724.397448 276.075682 
L 724.634254 292.082534 
L 725.107866 292.082534 
L 725.344672 296.908379 
L 726.055091 296.908379 
L 726.291897 294.359517 
L 727.239122 294.359517 
L 727.475928 296.908379 
L 728.896766 296.908379 
L 729.133572 284.639857 
L 729.607184 242.158828 
L 729.84399 308.055401 
L 730.080797 300.544755 
L 730.554409 300.544755 
L 730.791215 283.008586 
L 732.212053 283.008586 
L 732.448859 279.712058 
L 733.63289 279.712058 
L 733.869696 245.62528 
L 734.816921 245.62528 
L 735.053727 273.968623 
L 735.290533 248.785868 
L 739.789851 248.785868 
L 740.026657 251.606609 
L 740.737076 251.606609 
L 740.973882 244.095963 
L 742.157913 244.095963 
L 742.394719 178.19939 
L 748.314875 178.19939 
L 748.551681 185.710036 
L 751.393355 185.710036 
L 751.630162 210.89279 
L 751.866968 203.382144 
L 754.471836 203.382144 
L 754.708642 200.833282 
L 756.12948 200.833282 
L 756.366286 183.297113 
L 759.20796 183.195159 
L 759.444766 217.281937 
L 760.155185 217.281937 
L 760.391991 217.145998 
L 761.339216 217.145998 
L 761.576022 220.374556 
L 762.760053 220.374556 
L 762.99686 195.327741 
L 763.707278 195.327741 
L 763.944084 146.797412 
L 768.917015 146.899367 
L 769.153821 112.812589 
L 770.574658 112.812589 
L 770.811464 134.766785 
L 776.258007 134.766785 
L 776.494813 112.812589 
L 777.915651 112.812589 
L 778.152457 105.301943 
L 783.599 105.301943 
L 783.835806 112.812589 
L 792.834442 112.812589 
L 793.071248 105.301943 
L 801.833078 105.301943 
L 802.069884 88.887273 
L 811.305326 88.887273 
L 811.542132 96.397919 
L 812.962969 96.397919 
L 813.199776 88.887273 
L 871.690909 88.887273 
L 871.690909 88.887273 
" style="fill:none;stroke:#8dd3c7;stroke-linecap:square;stroke-width:1.5;"/>
   </g>
   <g id="line2d_16">
    <path clip-path="url(#pd6c8aa6988)" d="M 161.509091 404.742225 
L 161.745897 356.483775 
L 163.877153 356.483775 
L 164.113959 350.706355 
L 167.429246 350.706355 
L 167.666052 342.07421 
L 170.507727 342.07421 
L 170.744533 322.396997 
L 171.218145 322.396997 
L 171.691758 234.614197 
L 171.928564 234.614197 
L 172.16537 218.199527 
L 289.384443 218.199527 
L 289.62125 211.232638 
L 411.813253 211.232638 
L 412.050059 181.563887 
L 412.286865 181.563887 
L 412.523672 159.609691 
L 659.986159 159.609691 
L 660.222965 159.133903 
L 763.707278 159.133903 
L 763.944084 146.797412 
L 768.917015 146.797412 
L 769.153821 112.812589 
L 777.915651 112.812589 
L 778.152457 105.301943 
L 801.833078 105.301943 
L 802.069884 88.887273 
L 871.690909 88.887273 
L 871.690909 88.887273 
" style="fill:none;stroke:#feffb3;stroke-linecap:square;stroke-width:1.5;"/>
   </g>
   <g id="line2d_17">
    <path clip-path="url(#pd6c8aa6988)" d="M 161.509091 404.742225 
L 163.166734 404.742225 
L 163.403541 407.866754 
L 165.061184 407.866754 
L 165.29799 410.868468 
L 166.955634 410.868468 
L 167.19244 413.752194 
L 168.850083 413.752194 
L 169.08689 416.522569 
L 170.744533 416.522569 
L 170.981339 419.184049 
L 172.638983 419.184049 
L 172.875789 421.740915 
L 174.533432 421.740915 
L 174.770239 424.197278 
L 176.427882 424.197278 
L 176.664688 426.557089 
L 178.322332 426.557089 
L 178.559138 428.824143 
L 180.216781 428.824143 
L 180.453588 431.002085 
L 182.111231 431.002085 
L 182.348037 433.09442 
L 184.005681 433.09442 
L 184.242487 435.104511 
L 185.90013 435.104511 
L 186.136937 437.035592 
L 187.79458 437.035592 
L 188.031386 438.890768 
L 189.68903 438.890768 
L 189.925836 440.673022 
L 191.583479 440.673022 
L 191.820286 442.385221 
L 193.477929 442.385221 
L 193.714735 444.030119 
L 195.372379 444.030119 
L 195.609185 445.610362 
L 197.266828 445.610362 
L 197.503635 447.128489 
L 199.161278 447.128489 
L 199.398084 448.586944 
L 201.055728 448.586944 
L 201.292534 449.988071 
L 202.950177 449.988071 
L 203.186984 451.334124 
L 204.844627 451.334124 
L 205.081433 452.627268 
L 206.739077 452.627268 
L 206.975883 453.869583 
L 208.633526 453.869583 
L 208.870333 455.063066 
L 210.527976 455.063066 
L 210.764782 456.209636 
L 212.422426 456.209636 
L 212.659232 457.311139 
L 214.316875 457.311139 
L 214.553682 458.369344 
L 216.211325 458.369344 
L 216.448131 459.385955 
L 218.105775 459.385955 
L 218.342581 460.362606 
L 220.000224 460.362606 
L 220.237031 461.300868 
L 221.894674 461.300868 
L 222.13148 462.20225 
L 223.789124 462.20225 
L 224.02593 463.068201 
L 225.683573 463.068201 
L 225.92038 463.900114 
L 227.578023 463.900114 
L 227.814829 464.699327 
L 229.472473 464.699327 
L 229.709279 465.467125 
L 231.366922 465.467125 
L 231.603729 466.204744 
L 233.261372 466.204744 
L 233.498178 466.913369 
L 235.155822 466.913369 
L 235.392628 467.59414 
L 237.050271 467.59414 
L 237.287078 468.248153 
L 238.944721 468.248153 
L 239.181527 468.876458 
L 240.839171 468.876458 
L 241.075977 469.480066 
L 242.73362 469.480066 
L 242.970427 470.059948 
L 244.62807 470.059948 
L 244.864876 470.617037 
L 246.52252 470.617037 
L 246.759326 471.152228 
L 248.416969 471.152228 
L 248.653776 471.666383 
L 250.311419 471.666383 
L 250.548225 472.160328 
L 252.205869 472.160328 
L 252.442675 472.634857 
L 254.100318 472.634857 
L 254.337124 473.090734 
L 255.994768 473.090734 
L 256.231574 473.528692 
L 257.889218 473.528692 
L 258.126024 473.949435 
L 259.783667 473.949435 
L 260.020473 474.35364 
L 261.678117 474.35364 
L 261.914923 474.741957 
L 263.572567 474.741957 
L 263.809373 475.11501 
L 265.467016 475.11501 
L 265.703822 475.4734 
L 267.361466 475.4734 
L 267.598272 475.817702 
L 269.255916 475.817702 
L 269.492722 476.148471 
L 271.150365 476.148471 
L 271.387171 476.466239 
L 273.044815 476.466239 
L 273.281621 476.771516 
L 274.939265 476.771516 
L 275.176071 477.064793 
L 276.833714 477.064793 
L 277.07052 477.346543 
L 278.728164 477.346543 
L 278.96497 477.617218 
L 280.622614 477.617218 
L 280.85942 477.877253 
L 282.517063 477.877253 
L 282.753869 478.127068 
L 284.411513 478.127068 
L 284.648319 478.367063 
L 286.305963 478.367063 
L 286.542769 478.597624 
L 288.200412 478.597624 
L 288.437218 478.819123 
L 290.094862 478.819123 
L 290.331668 479.031915 
L 291.989312 479.031915 
L 292.226118 479.236343 
L 293.883761 479.236343 
L 294.120567 479.432736 
L 295.778211 479.432736 
L 296.015017 479.621409 
L 297.672661 479.621409 
L 297.909467 479.802666 
L 299.56711 479.802666 
L 299.803916 479.976798 
L 301.46156 479.976798 
L 301.698366 480.144086 
L 303.35601 480.144086 
L 303.592816 480.304798 
L 305.250459 480.304798 
L 305.487265 480.459193 
L 307.144909 480.459193 
L 307.381715 480.607519 
L 309.039359 480.607519 
L 309.276165 480.750015 
L 310.933808 480.750015 
L 311.170614 480.88691 
L 312.828258 480.88691 
L 313.065064 481.018423 
L 314.722708 481.018423 
L 314.959514 481.144768 
L 316.617157 481.144768 
L 317.09077 481.266146 
L 318.511607 481.266146 
L 318.985219 481.382754 
L 320.406057 481.382754 
L 320.879669 481.494777 
L 324.194956 481.602398 
L 324.668568 481.705788 
L 327.983855 481.805114 
L 328.457468 481.900536 
L 331.772755 481.992208 
L 332.246367 482.080276 
L 335.561654 482.164882 
L 336.035266 482.246163 
L 339.350553 482.324249 
L 339.824166 482.399265 
L 343.139453 482.471333 
L 343.613065 482.540568 
L 346.928352 482.607082 
L 347.401964 482.670981 
L 350.717251 482.732368 
L 351.190864 482.791343 
L 356.4006 482.902429 
L 357.111019 482.954719 
L 362.083949 483.053213 
L 362.794368 483.099576 
L 367.767298 483.186907 
L 368.477717 483.228015 
L 373.450647 483.305447 
L 374.397872 483.341896 
L 381.028446 483.442868 
L 381.975671 483.473915 
L 388.606245 483.559924 
L 389.790276 483.58637 
L 398.078493 483.682159 
L 399.49933 483.7038 
L 409.445191 483.799895 
L 411.102834 483.816909 
L 424.600788 483.918679 
L 426.96885 483.942882 
L 451.123083 484.053592 
L 455.385595 484.073896 
L 511.745473 484.183081 
L 526.664264 484.196705 
L 871.690909 484.232703 
L 871.690909 484.232703 
" style="fill:none;stroke:#bfbbd9;stroke-linecap:square;stroke-width:1.5;"/>
   </g>
   <g id="patch_3">
    <path d="M 126 504 
L 126 69.12 
" style="fill:none;stroke:#ffffff;stroke-linecap:square;stroke-linejoin:miter;stroke-width:0.8;"/>
   </g>
   <g id="patch_4">
    <path d="M 907.2 504 
L 907.2 69.12 
" style="fill:none;stroke:#ffffff;stroke-linecap:square;stroke-linejoin:miter;stroke-width:0.8;"/>
   </g>
   <g id="patch_5">
    <path d="M 126 504 
L 907.2 504 
" style="fill:none;stroke:#ffffff;stroke-linecap:square;stroke-linejoin:miter;stroke-width:0.8;"/>
   </g>
   <g id="patch_6">
    <path d="M 126 69.12 
L 907.2 69.12 
" style="fill:none;stroke:#ffffff;stroke-linecap:square;stroke-linejoin:miter;stroke-width:0.8;"/>
   </g>
   <g id="text_16">
    <!-- instance 1 with error 0.0 -->
    <g style="fill:#ffffff;" transform="translate(442.944375 63.12)scale(0.12 -0.12)">
     <defs>
      <path d="M 2834 3397 
L 2834 2853 
Q 2591 2978 2328 3040 
Q 2066 3103 1784 3103 
Q 1356 3103 1142 2972 
Q 928 2841 928 2578 
Q 928 2378 1081 2264 
Q 1234 2150 1697 2047 
L 1894 2003 
Q 2506 1872 2764 1633 
Q 3022 1394 3022 966 
Q 3022 478 2636 193 
Q 2250 -91 1575 -91 
Q 1294 -91 989 -36 
Q 684 19 347 128 
L 347 722 
Q 666 556 975 473 
Q 1284 391 1588 391 
Q 1994 391 2212 530 
Q 2431 669 2431 922 
Q 2431 1156 2273 1281 
Q 2116 1406 1581 1522 
L 1381 1569 
Q 847 1681 609 1914 
Q 372 2147 372 2553 
Q 372 3047 722 3315 
Q 1072 3584 1716 3584 
Q 2034 3584 2315 3537 
Q 2597 3491 2834 3397 
z
" id="DejaVuSans-73" transform="scale(0.015625)"/>
      <path d="M 3122 3366 
L 3122 2828 
Q 2878 2963 2633 3030 
Q 2388 3097 2138 3097 
Q 1578 3097 1268 2742 
Q 959 2388 959 1747 
Q 959 1106 1268 751 
Q 1578 397 2138 397 
Q 2388 397 2633 464 
Q 2878 531 3122 666 
L 3122 134 
Q 2881 22 2623 -34 
Q 2366 -91 2075 -91 
Q 1284 -91 818 406 
Q 353 903 353 1747 
Q 353 2603 823 3093 
Q 1294 3584 2113 3584 
Q 2378 3584 2631 3529 
Q 2884 3475 3122 3366 
z
" id="DejaVuSans-63" transform="scale(0.015625)"/>
      <path id="DejaVuSans-20" transform="scale(0.015625)"/>
      <path d="M 269 3500 
L 844 3500 
L 1563 769 
L 2278 3500 
L 2956 3500 
L 3675 769 
L 4391 3500 
L 4966 3500 
L 4050 0 
L 3372 0 
L 2619 2869 
L 1863 0 
L 1184 0 
L 269 3500 
z
" id="DejaVuSans-77" transform="scale(0.015625)"/>
      <path d="M 3513 2113 
L 3513 0 
L 2938 0 
L 2938 2094 
Q 2938 2591 2744 2837 
Q 2550 3084 2163 3084 
Q 1697 3084 1428 2787 
Q 1159 2491 1159 1978 
L 1159 0 
L 581 0 
L 581 4863 
L 1159 4863 
L 1159 2956 
Q 1366 3272 1645 3428 
Q 1925 3584 2291 3584 
Q 2894 3584 3203 3211 
Q 3513 2838 3513 2113 
z
" id="DejaVuSans-68" transform="scale(0.015625)"/>
      <path d="M 684 794 
L 1344 794 
L 1344 0 
L 684 0 
L 684 794 
z
" id="DejaVuSans-2e" transform="scale(0.015625)"/>
     </defs>
     <use xlink:href="#DejaVuSans-69"/>
     <use x="27.783203" xlink:href="#DejaVuSans-6e"/>
     <use x="91.162109" xlink:href="#DejaVuSans-73"/>
     <use x="143.261719" xlink:href="#DejaVuSans-74"/>
     <use x="182.470703" xlink:href="#DejaVuSans-61"/>
     <use x="243.75" xlink:href="#DejaVuSans-6e"/>
     <use x="307.128906" xlink:href="#DejaVuSans-63"/>
     <use x="362.109375" xlink:href="#DejaVuSans-65"/>
     <use x="423.632812" xlink:href="#DejaVuSans-20"/>
     <use x="455.419922" xlink:href="#DejaVuSans-31"/>
     <use x="519.042969" xlink:href="#DejaVuSans-20"/>
     <use x="550.830078" xlink:href="#DejaVuSans-77"/>
     <use x="632.617188" xlink:href="#DejaVuSans-69"/>
     <use x="660.400391" xlink:href="#DejaVuSans-74"/>
     <use x="699.609375" xlink:href="#DejaVuSans-68"/>
     <use x="762.988281" xlink:href="#DejaVuSans-20"/>
     <use x="794.775391" xlink:href="#DejaVuSans-65"/>
     <use x="856.298828" xlink:href="#DejaVuSans-72"/>
     <use x="895.662109" xlink:href="#DejaVuSans-72"/>
     <use x="934.525391" xlink:href="#DejaVuSans-6f"/>
     <use x="995.707031" xlink:href="#DejaVuSans-72"/>
     <use x="1036.820312" xlink:href="#DejaVuSans-20"/>
     <use x="1068.607422" xlink:href="#DejaVuSans-30"/>
     <use x="1132.230469" xlink:href="#DejaVuSans-2e"/>
     <use x="1164.017578" xlink:href="#DejaVuSans-30"/>
    </g>
   </g>
   <g id="legend_1">
    <g id="patch_7">
     <path d="M 805.348438 499 
L 900.2 499 
Q 902.2 499 902.2 497 
L 902.2 453.965625 
Q 902.2 451.965625 900.2 451.965625 
L 805.348438 451.965625 
Q 803.348438 451.965625 803.348438 453.965625 
L 803.348438 497 
Q 803.348438 499 805.348438 499 
z
" style="opacity:0.8;stroke:#cccccc;stroke-linejoin:miter;"/>
    </g>
    <g id="line2d_18">
     <path d="M 807.348438 460.064062 
L 827.348438 460.064062 
" style="fill:none;stroke:#8dd3c7;stroke-linecap:square;stroke-width:1.5;"/>
    </g>
    <g id="line2d_19"/>
    <g id="text_17">
     <!-- cost -->
     <g style="fill:#ffffff;" transform="translate(835.348438 463.564062)scale(0.1 -0.1)">
      <use xlink:href="#DejaVuSans-63"/>
      <use x="54.980469" xlink:href="#DejaVuSans-6f"/>
      <use x="116.162109" xlink:href="#DejaVuSans-73"/>
      <use x="168.261719" xlink:href="#DejaVuSans-74"/>
     </g>
    </g>
    <g id="line2d_20">
     <path d="M 807.348438 474.742188 
L 827.348438 474.742188 
" style="fill:none;stroke:#feffb3;stroke-linecap:square;stroke-width:1.5;"/>
    </g>
    <g id="line2d_21"/>
    <g id="text_18">
     <!-- best cost -->
     <g style="fill:#ffffff;" transform="translate(835.348438 478.242188)scale(0.1 -0.1)">
      <defs>
       <path d="M 3116 1747 
Q 3116 2381 2855 2742 
Q 2594 3103 2138 3103 
Q 1681 3103 1420 2742 
Q 1159 2381 1159 1747 
Q 1159 1113 1420 752 
Q 1681 391 2138 391 
Q 2594 391 2855 752 
Q 3116 1113 3116 1747 
z
M 1159 2969 
Q 1341 3281 1617 3432 
Q 1894 3584 2278 3584 
Q 2916 3584 3314 3078 
Q 3713 2572 3713 1747 
Q 3713 922 3314 415 
Q 2916 -91 2278 -91 
Q 1894 -91 1617 61 
Q 1341 213 1159 525 
L 1159 0 
L 581 0 
L 581 4863 
L 1159 4863 
L 1159 2969 
z
" id="DejaVuSans-62" transform="scale(0.015625)"/>
      </defs>
      <use xlink:href="#DejaVuSans-62"/>
      <use x="63.476562" xlink:href="#DejaVuSans-65"/>
      <use x="125" xlink:href="#DejaVuSans-73"/>
      <use x="177.099609" xlink:href="#DejaVuSans-74"/>
      <use x="216.308594" xlink:href="#DejaVuSans-20"/>
      <use x="248.095703" xlink:href="#DejaVuSans-63"/>
      <use x="303.076172" xlink:href="#DejaVuSans-6f"/>
      <use x="364.257812" xlink:href="#DejaVuSans-73"/>
      <use x="416.357422" xlink:href="#DejaVuSans-74"/>
     </g>
    </g>
    <g id="line2d_22">
     <path d="M 807.348438 489.420313 
L 827.348438 489.420313 
" style="fill:none;stroke:#bfbbd9;stroke-linecap:square;stroke-width:1.5;"/>
    </g>
    <g id="line2d_23"/>
    <g id="text_19">
     <!-- temperature -->
     <g style="fill:#ffffff;" transform="translate(835.348438 492.920313)scale(0.1 -0.1)">
      <defs>
       <path d="M 3328 2828 
Q 3544 3216 3844 3400 
Q 4144 3584 4550 3584 
Q 5097 3584 5394 3201 
Q 5691 2819 5691 2113 
L 5691 0 
L 5113 0 
L 5113 2094 
Q 5113 2597 4934 2840 
Q 4756 3084 4391 3084 
Q 3944 3084 3684 2787 
Q 3425 2491 3425 1978 
L 3425 0 
L 2847 0 
L 2847 2094 
Q 2847 2600 2669 2842 
Q 2491 3084 2119 3084 
Q 1678 3084 1418 2786 
Q 1159 2488 1159 1978 
L 1159 0 
L 581 0 
L 581 3500 
L 1159 3500 
L 1159 2956 
Q 1356 3278 1631 3431 
Q 1906 3584 2284 3584 
Q 2666 3584 2933 3390 
Q 3200 3197 3328 2828 
z
" id="DejaVuSans-6d" transform="scale(0.015625)"/>
       <path d="M 1159 525 
L 1159 -1331 
L 581 -1331 
L 581 3500 
L 1159 3500 
L 1159 2969 
Q 1341 3281 1617 3432 
Q 1894 3584 2278 3584 
Q 2916 3584 3314 3078 
Q 3713 2572 3713 1747 
Q 3713 922 3314 415 
Q 2916 -91 2278 -91 
Q 1894 -91 1617 61 
Q 1341 213 1159 525 
z
M 3116 1747 
Q 3116 2381 2855 2742 
Q 2594 3103 2138 3103 
Q 1681 3103 1420 2742 
Q 1159 2381 1159 1747 
Q 1159 1113 1420 752 
Q 1681 391 2138 391 
Q 2594 391 2855 752 
Q 3116 1113 3116 1747 
z
" id="DejaVuSans-70" transform="scale(0.015625)"/>
       <path d="M 544 1381 
L 544 3500 
L 1119 3500 
L 1119 1403 
Q 1119 906 1312 657 
Q 1506 409 1894 409 
Q 2359 409 2629 706 
Q 2900 1003 2900 1516 
L 2900 3500 
L 3475 3500 
L 3475 0 
L 2900 0 
L 2900 538 
Q 2691 219 2414 64 
Q 2138 -91 1772 -91 
Q 1169 -91 856 284 
Q 544 659 544 1381 
z
M 1991 3584 
L 1991 3584 
z
" id="DejaVuSans-75" transform="scale(0.015625)"/>
      </defs>
      <use xlink:href="#DejaVuSans-74"/>
      <use x="39.208984" xlink:href="#DejaVuSans-65"/>
      <use x="100.732422" xlink:href="#DejaVuSans-6d"/>
      <use x="198.144531" xlink:href="#DejaVuSans-70"/>
      <use x="261.621094" xlink:href="#DejaVuSans-65"/>
      <use x="323.144531" xlink:href="#DejaVuSans-72"/>
      <use x="364.257812" xlink:href="#DejaVuSans-61"/>
      <use x="425.537109" xlink:href="#DejaVuSans-74"/>
      <use x="464.746094" xlink:href="#DejaVuSans-75"/>
      <use x="528.125" xlink:href="#DejaVuSans-72"/>
      <use x="566.988281" xlink:href="#DejaVuSans-65"/>
     </g>
    </g>
   </g>
  </g>
 </g>
 <defs>
  <clipPath id="pd6c8aa6988">
   <rect height="434.88" width="781.2" x="126" y="69.12"/>
  </clipPath>
 </defs>
</svg>
