<?xml version="1.0" encoding="utf-8" standalone="no"?>
<!DOCTYPE svg PUBLIC "-//W3C//DTD SVG 1.1//EN"
  "http://www.w3.org/Graphics/SVG/1.1/DTD/svg11.dtd">
<svg height="576pt" version="1.1" viewBox="0 0 1008 576" width="1008pt" xmlns="http://www.w3.org/2000/svg" xmlns:xlink="http://www.w3.org/1999/xlink">
 <metadata>
  <rdf:RDF xmlns:cc="http://creativecommons.org/ns#" xmlns:dc="http://purl.org/dc/elements/1.1/" xmlns:rdf="http://www.w3.org/1999/02/22-rdf-syntax-ns#">
   <cc:Work>
    <dc:type rdf:resource="http://purl.org/dc/dcmitype/StillImage"/>
    <dc:date>2022-01-08T01:27:38.443633</dc:date>
    <dc:format>image/svg+xml</dc:format>
    <dc:creator>
     <cc:Agent>
      <dc:title>Matplotlib v3.4.3, https://matplotlib.org/</dc:title>
     </cc:Agent>
    </dc:creator>
   </cc:Work>
  </rdf:RDF>
 </metadata>
 <defs>
  <style type="text/css">*{stroke-linecap:butt;stroke-linejoin:round;}</style>
 </defs>
 <g id="figure_1">
  <g id="patch_1">
   <path d="M 0 576 
L 1008 576 
L 1008 0 
L 0 0 
z
"/>
  </g>
  <g id="axes_1">
   <g id="patch_2">
    <path d="M 126 504 
L 907.2 504 
L 907.2 69.12 
L 126 69.12 
z
"/>
   </g>
   <g id="matplotlib.axis_1">
    <g id="xtick_1">
     <g id="line2d_1">
      <defs>
       <path d="M 0 0 
L 0 3.5 
" id="m44f8911f33" style="stroke:#ffffff;stroke-width:0.8;"/>
      </defs>
      <g>
       <use style="fill:#ffffff;stroke:#ffffff;stroke-width:0.8;" x="161.509091" xlink:href="#m44f8911f33" y="504"/>
      </g>
     </g>
     <g id="text_1">
      <!-- 0 -->
      <g style="fill:#ffffff;" transform="translate(158.327841 518.598438)scale(0.1 -0.1)">
       <defs>
        <path d="M 2034 4250 
Q 1547 4250 1301 3770 
Q 1056 3291 1056 2328 
Q 1056 1369 1301 889 
Q 1547 409 2034 409 
Q 2525 409 2770 889 
Q 3016 1369 3016 2328 
Q 3016 3291 2770 3770 
Q 2525 4250 2034 4250 
z
M 2034 4750 
Q 2819 4750 3233 4129 
Q 3647 3509 3647 2328 
Q 3647 1150 3233 529 
Q 2819 -91 2034 -91 
Q 1250 -91 836 529 
Q 422 1150 422 2328 
Q 422 3509 836 4129 
Q 1250 4750 2034 4750 
z
" id="DejaVuSans-30" transform="scale(0.015625)"/>
       </defs>
       <use xlink:href="#DejaVuSans-30"/>
      </g>
     </g>
    </g>
    <g id="xtick_2">
     <g id="line2d_2">
      <g>
       <use style="fill:#ffffff;stroke:#ffffff;stroke-width:0.8;" x="292.878277" xlink:href="#m44f8911f33" y="504"/>
      </g>
     </g>
     <g id="text_2">
      <!-- 500 -->
      <g style="fill:#ffffff;" transform="translate(283.334527 518.598438)scale(0.1 -0.1)">
       <defs>
        <path d="M 691 4666 
L 3169 4666 
L 3169 4134 
L 1269 4134 
L 1269 2991 
Q 1406 3038 1543 3061 
Q 1681 3084 1819 3084 
Q 2600 3084 3056 2656 
Q 3513 2228 3513 1497 
Q 3513 744 3044 326 
Q 2575 -91 1722 -91 
Q 1428 -91 1123 -41 
Q 819 9 494 109 
L 494 744 
Q 775 591 1075 516 
Q 1375 441 1709 441 
Q 2250 441 2565 725 
Q 2881 1009 2881 1497 
Q 2881 1984 2565 2268 
Q 2250 2553 1709 2553 
Q 1456 2553 1204 2497 
Q 953 2441 691 2322 
L 691 4666 
z
" id="DejaVuSans-35" transform="scale(0.015625)"/>
       </defs>
       <use xlink:href="#DejaVuSans-35"/>
       <use x="63.623047" xlink:href="#DejaVuSans-30"/>
       <use x="127.246094" xlink:href="#DejaVuSans-30"/>
      </g>
     </g>
    </g>
    <g id="xtick_3">
     <g id="line2d_3">
      <g>
       <use style="fill:#ffffff;stroke:#ffffff;stroke-width:0.8;" x="424.247462" xlink:href="#m44f8911f33" y="504"/>
      </g>
     </g>
     <g id="text_3">
      <!-- 1000 -->
      <g style="fill:#ffffff;" transform="translate(411.522462 518.598438)scale(0.1 -0.1)">
       <defs>
        <path d="M 794 531 
L 1825 531 
L 1825 4091 
L 703 3866 
L 703 4441 
L 1819 4666 
L 2450 4666 
L 2450 531 
L 3481 531 
L 3481 0 
L 794 0 
L 794 531 
z
" id="DejaVuSans-31" transform="scale(0.015625)"/>
       </defs>
       <use xlink:href="#DejaVuSans-31"/>
       <use x="63.623047" xlink:href="#DejaVuSans-30"/>
       <use x="127.246094" xlink:href="#DejaVuSans-30"/>
       <use x="190.869141" xlink:href="#DejaVuSans-30"/>
      </g>
     </g>
    </g>
    <g id="xtick_4">
     <g id="line2d_4">
      <g>
       <use style="fill:#ffffff;stroke:#ffffff;stroke-width:0.8;" x="555.616648" xlink:href="#m44f8911f33" y="504"/>
      </g>
     </g>
     <g id="text_4">
      <!-- 1500 -->
      <g style="fill:#ffffff;" transform="translate(542.891648 518.598438)scale(0.1 -0.1)">
       <use xlink:href="#DejaVuSans-31"/>
       <use x="63.623047" xlink:href="#DejaVuSans-35"/>
       <use x="127.246094" xlink:href="#DejaVuSans-30"/>
       <use x="190.869141" xlink:href="#DejaVuSans-30"/>
      </g>
     </g>
    </g>
    <g id="xtick_5">
     <g id="line2d_5">
      <g>
       <use style="fill:#ffffff;stroke:#ffffff;stroke-width:0.8;" x="686.985834" xlink:href="#m44f8911f33" y="504"/>
      </g>
     </g>
     <g id="text_5">
      <!-- 2000 -->
      <g style="fill:#ffffff;" transform="translate(674.260834 518.598438)scale(0.1 -0.1)">
       <defs>
        <path d="M 1228 531 
L 3431 531 
L 3431 0 
L 469 0 
L 469 531 
Q 828 903 1448 1529 
Q 2069 2156 2228 2338 
Q 2531 2678 2651 2914 
Q 2772 3150 2772 3378 
Q 2772 3750 2511 3984 
Q 2250 4219 1831 4219 
Q 1534 4219 1204 4116 
Q 875 4013 500 3803 
L 500 4441 
Q 881 4594 1212 4672 
Q 1544 4750 1819 4750 
Q 2544 4750 2975 4387 
Q 3406 4025 3406 3419 
Q 3406 3131 3298 2873 
Q 3191 2616 2906 2266 
Q 2828 2175 2409 1742 
Q 1991 1309 1228 531 
z
" id="DejaVuSans-32" transform="scale(0.015625)"/>
       </defs>
       <use xlink:href="#DejaVuSans-32"/>
       <use x="63.623047" xlink:href="#DejaVuSans-30"/>
       <use x="127.246094" xlink:href="#DejaVuSans-30"/>
       <use x="190.869141" xlink:href="#DejaVuSans-30"/>
      </g>
     </g>
    </g>
    <g id="xtick_6">
     <g id="line2d_6">
      <g>
       <use style="fill:#ffffff;stroke:#ffffff;stroke-width:0.8;" x="818.35502" xlink:href="#m44f8911f33" y="504"/>
      </g>
     </g>
     <g id="text_6">
      <!-- 2500 -->
      <g style="fill:#ffffff;" transform="translate(805.63002 518.598438)scale(0.1 -0.1)">
       <use xlink:href="#DejaVuSans-32"/>
       <use x="63.623047" xlink:href="#DejaVuSans-35"/>
       <use x="127.246094" xlink:href="#DejaVuSans-30"/>
       <use x="190.869141" xlink:href="#DejaVuSans-30"/>
      </g>
     </g>
    </g>
    <g id="text_7">
     <!-- iteration -->
     <g style="fill:#ffffff;" transform="translate(495.477344 532.276562)scale(0.1 -0.1)">
      <defs>
       <path d="M 603 3500 
L 1178 3500 
L 1178 0 
L 603 0 
L 603 3500 
z
M 603 4863 
L 1178 4863 
L 1178 4134 
L 603 4134 
L 603 4863 
z
" id="DejaVuSans-69" transform="scale(0.015625)"/>
       <path d="M 1172 4494 
L 1172 3500 
L 2356 3500 
L 2356 3053 
L 1172 3053 
L 1172 1153 
Q 1172 725 1289 603 
Q 1406 481 1766 481 
L 2356 481 
L 2356 0 
L 1766 0 
Q 1100 0 847 248 
Q 594 497 594 1153 
L 594 3053 
L 172 3053 
L 172 3500 
L 594 3500 
L 594 4494 
L 1172 4494 
z
" id="DejaVuSans-74" transform="scale(0.015625)"/>
       <path d="M 3597 1894 
L 3597 1613 
L 953 1613 
Q 991 1019 1311 708 
Q 1631 397 2203 397 
Q 2534 397 2845 478 
Q 3156 559 3463 722 
L 3463 178 
Q 3153 47 2828 -22 
Q 2503 -91 2169 -91 
Q 1331 -91 842 396 
Q 353 884 353 1716 
Q 353 2575 817 3079 
Q 1281 3584 2069 3584 
Q 2775 3584 3186 3129 
Q 3597 2675 3597 1894 
z
M 3022 2063 
Q 3016 2534 2758 2815 
Q 2500 3097 2075 3097 
Q 1594 3097 1305 2825 
Q 1016 2553 972 2059 
L 3022 2063 
z
" id="DejaVuSans-65" transform="scale(0.015625)"/>
       <path d="M 2631 2963 
Q 2534 3019 2420 3045 
Q 2306 3072 2169 3072 
Q 1681 3072 1420 2755 
Q 1159 2438 1159 1844 
L 1159 0 
L 581 0 
L 581 3500 
L 1159 3500 
L 1159 2956 
Q 1341 3275 1631 3429 
Q 1922 3584 2338 3584 
Q 2397 3584 2469 3576 
Q 2541 3569 2628 3553 
L 2631 2963 
z
" id="DejaVuSans-72" transform="scale(0.015625)"/>
       <path d="M 2194 1759 
Q 1497 1759 1228 1600 
Q 959 1441 959 1056 
Q 959 750 1161 570 
Q 1363 391 1709 391 
Q 2188 391 2477 730 
Q 2766 1069 2766 1631 
L 2766 1759 
L 2194 1759 
z
M 3341 1997 
L 3341 0 
L 2766 0 
L 2766 531 
Q 2569 213 2275 61 
Q 1981 -91 1556 -91 
Q 1019 -91 701 211 
Q 384 513 384 1019 
Q 384 1609 779 1909 
Q 1175 2209 1959 2209 
L 2766 2209 
L 2766 2266 
Q 2766 2663 2505 2880 
Q 2244 3097 1772 3097 
Q 1472 3097 1187 3025 
Q 903 2953 641 2809 
L 641 3341 
Q 956 3463 1253 3523 
Q 1550 3584 1831 3584 
Q 2591 3584 2966 3190 
Q 3341 2797 3341 1997 
z
" id="DejaVuSans-61" transform="scale(0.015625)"/>
       <path d="M 1959 3097 
Q 1497 3097 1228 2736 
Q 959 2375 959 1747 
Q 959 1119 1226 758 
Q 1494 397 1959 397 
Q 2419 397 2687 759 
Q 2956 1122 2956 1747 
Q 2956 2369 2687 2733 
Q 2419 3097 1959 3097 
z
M 1959 3584 
Q 2709 3584 3137 3096 
Q 3566 2609 3566 1747 
Q 3566 888 3137 398 
Q 2709 -91 1959 -91 
Q 1206 -91 779 398 
Q 353 888 353 1747 
Q 353 2609 779 3096 
Q 1206 3584 1959 3584 
z
" id="DejaVuSans-6f" transform="scale(0.015625)"/>
       <path d="M 3513 2113 
L 3513 0 
L 2938 0 
L 2938 2094 
Q 2938 2591 2744 2837 
Q 2550 3084 2163 3084 
Q 1697 3084 1428 2787 
Q 1159 2491 1159 1978 
L 1159 0 
L 581 0 
L 581 3500 
L 1159 3500 
L 1159 2956 
Q 1366 3272 1645 3428 
Q 1925 3584 2291 3584 
Q 2894 3584 3203 3211 
Q 3513 2838 3513 2113 
z
" id="DejaVuSans-6e" transform="scale(0.015625)"/>
      </defs>
      <use xlink:href="#DejaVuSans-69"/>
      <use x="27.783203" xlink:href="#DejaVuSans-74"/>
      <use x="66.992188" xlink:href="#DejaVuSans-65"/>
      <use x="128.515625" xlink:href="#DejaVuSans-72"/>
      <use x="169.628906" xlink:href="#DejaVuSans-61"/>
      <use x="230.908203" xlink:href="#DejaVuSans-74"/>
      <use x="270.117188" xlink:href="#DejaVuSans-69"/>
      <use x="297.900391" xlink:href="#DejaVuSans-6f"/>
      <use x="359.082031" xlink:href="#DejaVuSans-6e"/>
     </g>
    </g>
   </g>
   <g id="matplotlib.axis_2">
    <g id="ytick_1">
     <g id="line2d_7">
      <defs>
       <path d="M 0 0 
L -3.5 0 
" id="m2533d5d96d" style="stroke:#ffffff;stroke-width:0.8;"/>
      </defs>
      <g>
       <use style="fill:#ffffff;stroke:#ffffff;stroke-width:0.8;" x="126" xlink:href="#m2533d5d96d" y="484.232727"/>
      </g>
     </g>
     <g id="text_8">
      <!-- 0 -->
      <g style="fill:#ffffff;" transform="translate(112.6375 488.031946)scale(0.1 -0.1)">
       <use xlink:href="#DejaVuSans-30"/>
      </g>
     </g>
    </g>
    <g id="ytick_2">
     <g id="line2d_8">
      <g>
       <use style="fill:#ffffff;stroke:#ffffff;stroke-width:0.8;" x="126" xlink:href="#m2533d5d96d" y="395.389056"/>
      </g>
     </g>
     <g id="text_9">
      <!-- 10000 -->
      <g style="fill:#ffffff;" transform="translate(87.1875 399.188274)scale(0.1 -0.1)">
       <use xlink:href="#DejaVuSans-31"/>
       <use x="63.623047" xlink:href="#DejaVuSans-30"/>
       <use x="127.246094" xlink:href="#DejaVuSans-30"/>
       <use x="190.869141" xlink:href="#DejaVuSans-30"/>
       <use x="254.492188" xlink:href="#DejaVuSans-30"/>
      </g>
     </g>
    </g>
    <g id="ytick_3">
     <g id="line2d_9">
      <g>
       <use style="fill:#ffffff;stroke:#ffffff;stroke-width:0.8;" x="126" xlink:href="#m2533d5d96d" y="306.545384"/>
      </g>
     </g>
     <g id="text_10">
      <!-- 20000 -->
      <g style="fill:#ffffff;" transform="translate(87.1875 310.344603)scale(0.1 -0.1)">
       <use xlink:href="#DejaVuSans-32"/>
       <use x="63.623047" xlink:href="#DejaVuSans-30"/>
       <use x="127.246094" xlink:href="#DejaVuSans-30"/>
       <use x="190.869141" xlink:href="#DejaVuSans-30"/>
       <use x="254.492188" xlink:href="#DejaVuSans-30"/>
      </g>
     </g>
    </g>
    <g id="ytick_4">
     <g id="line2d_10">
      <g>
       <use style="fill:#ffffff;stroke:#ffffff;stroke-width:0.8;" x="126" xlink:href="#m2533d5d96d" y="217.701712"/>
      </g>
     </g>
     <g id="text_11">
      <!-- 30000 -->
      <g style="fill:#ffffff;" transform="translate(87.1875 221.500931)scale(0.1 -0.1)">
       <defs>
        <path d="M 2597 2516 
Q 3050 2419 3304 2112 
Q 3559 1806 3559 1356 
Q 3559 666 3084 287 
Q 2609 -91 1734 -91 
Q 1441 -91 1130 -33 
Q 819 25 488 141 
L 488 750 
Q 750 597 1062 519 
Q 1375 441 1716 441 
Q 2309 441 2620 675 
Q 2931 909 2931 1356 
Q 2931 1769 2642 2001 
Q 2353 2234 1838 2234 
L 1294 2234 
L 1294 2753 
L 1863 2753 
Q 2328 2753 2575 2939 
Q 2822 3125 2822 3475 
Q 2822 3834 2567 4026 
Q 2313 4219 1838 4219 
Q 1578 4219 1281 4162 
Q 984 4106 628 3988 
L 628 4550 
Q 988 4650 1302 4700 
Q 1616 4750 1894 4750 
Q 2613 4750 3031 4423 
Q 3450 4097 3450 3541 
Q 3450 3153 3228 2886 
Q 3006 2619 2597 2516 
z
" id="DejaVuSans-33" transform="scale(0.015625)"/>
       </defs>
       <use xlink:href="#DejaVuSans-33"/>
       <use x="63.623047" xlink:href="#DejaVuSans-30"/>
       <use x="127.246094" xlink:href="#DejaVuSans-30"/>
       <use x="190.869141" xlink:href="#DejaVuSans-30"/>
       <use x="254.492188" xlink:href="#DejaVuSans-30"/>
      </g>
     </g>
    </g>
    <g id="ytick_5">
     <g id="line2d_11">
      <g>
       <use style="fill:#ffffff;stroke:#ffffff;stroke-width:0.8;" x="126" xlink:href="#m2533d5d96d" y="128.858041"/>
      </g>
     </g>
     <g id="text_12">
      <!-- 40000 -->
      <g style="fill:#ffffff;" transform="translate(87.1875 132.657259)scale(0.1 -0.1)">
       <defs>
        <path d="M 2419 4116 
L 825 1625 
L 2419 1625 
L 2419 4116 
z
M 2253 4666 
L 3047 4666 
L 3047 1625 
L 3713 1625 
L 3713 1100 
L 3047 1100 
L 3047 0 
L 2419 0 
L 2419 1100 
L 313 1100 
L 313 1709 
L 2253 4666 
z
" id="DejaVuSans-34" transform="scale(0.015625)"/>
       </defs>
       <use xlink:href="#DejaVuSans-34"/>
       <use x="63.623047" xlink:href="#DejaVuSans-30"/>
       <use x="127.246094" xlink:href="#DejaVuSans-30"/>
       <use x="190.869141" xlink:href="#DejaVuSans-30"/>
       <use x="254.492188" xlink:href="#DejaVuSans-30"/>
      </g>
     </g>
    </g>
   </g>
   <g id="line2d_12">
    <path clip-path="url(#p33379691d7)" d="M 161.509091 154.196256 
L 162.034568 177.464413 
L 162.297306 192.505647 
L 162.560044 175.021212 
L 162.822783 196.699068 
L 163.085521 203.362344 
L 163.34826 225.431112 
L 163.610998 229.59788 
L 163.873736 207.920024 
L 164.136475 218.08374 
L 164.399213 326.170951 
L 165.187428 268.049421 
L 165.450166 250.16519 
L 165.712905 256.828465 
L 165.975643 254.296421 
L 166.238382 235.98574 
L 166.50112 242.009341 
L 166.763858 223.00568 
L 167.026597 219.851729 
L 167.552073 250.955899 
L 168.07755 220.518057 
L 168.340289 229.153662 
L 168.865765 258.267733 
L 169.128504 240.445692 
L 169.391242 234.422091 
L 169.65398 309.8326 
L 169.916719 312.329107 
L 170.179457 320.795909 
L 170.442196 305.754675 
L 170.704934 324.065356 
L 170.967672 321.568849 
L 171.493149 347.413473 
L 171.755887 336.610082 
L 172.018626 318.788042 
L 172.281364 336.610082 
L 172.544103 324.260812 
L 172.806841 306.376581 
L 173.069579 300.35298 
L 173.332318 318.237211 
L 173.595056 324.900487 
L 173.857794 309.859253 
L 174.120533 288.181397 
L 174.383271 277.609 
L 174.646009 281.624734 
L 175.171486 247.881908 
L 175.434225 296.372784 
L 175.696963 311.37848 
L 175.959701 300.957117 
L 176.22244 285.951421 
L 176.485178 289.967155 
L 176.747916 298.433957 
L 177.010655 287.15081 
L 177.273393 289.682855 
L 177.536132 302.147622 
L 178.324347 270.528159 
L 178.587085 264.504559 
L 178.849823 286.573327 
L 179.638039 315.749588 
L 179.900777 298.265154 
L 180.163515 308.42887 
L 180.688992 279.634636 
L 181.214469 264.97543 
L 181.477207 269.142198 
L 181.739946 275.805474 
L 182.002684 290.81117 
L 182.265422 278.461899 
L 182.790899 308.63321 
L 183.053637 301.969935 
L 183.316376 323.025885 
L 183.579114 329.049486 
L 183.841852 326.552979 
L 184.104591 328.933989 
L 184.367329 307.256133 
L 184.892806 334.078038 
L 185.155544 316.255997 
L 185.418283 309.637144 
L 186.206498 266.050438 
L 186.469236 257.397065 
L 186.731975 267.818428 
L 186.994713 288.829956 
L 187.257451 286.297911 
L 187.52019 294.764713 
L 188.045666 324.100894 
L 188.308405 310.845418 
L 188.571143 313.377462 
L 188.833882 302.805065 
L 189.09662 284.494385 
L 189.359358 297.74986 
L 189.622097 300.903811 
L 189.884835 311.476208 
L 190.147573 295.93745 
L 190.67305 329.298248 
L 190.935789 318.015102 
L 191.198527 315.483057 
L 191.461265 311.467323 
L 191.986742 348.186413 
L 192.512219 309.352844 
L 192.774957 330.364372 
L 193.037695 324.340771 
L 193.300434 332.994145 
L 193.825911 356.742058 
L 194.088649 375.74572 
L 194.351387 360.206962 
L 194.614126 362.739006 
L 194.876864 381.049687 
L 195.139602 385.065421 
L 195.402341 366.06176 
L 195.665079 383.8838 
L 195.927818 375.230427 
L 196.190556 361.974951 
L 196.453294 367.998552 
L 196.978771 330.906319 
L 197.241509 320.102928 
L 197.504248 341.114457 
L 197.766986 328.64969 
L 198.292463 285.569393 
L 198.555201 283.188383 
L 198.81794 272.76702 
L 199.080678 281.402625 
L 199.606155 248.086248 
L 199.868893 243.91948 
L 200.131632 235.283875 
L 200.657108 274.606084 
L 200.919847 253.550134 
L 201.182585 262.185739 
L 201.445323 277.191435 
L 201.708062 283.810288 
L 201.9708 268.804592 
L 202.233538 289.860542 
L 202.496277 281.393741 
L 202.759015 278.861696 
L 203.284492 309.948097 
L 203.54723 305.932363 
L 203.809969 323.416797 
L 204.072707 301.738941 
L 204.335445 305.754675 
L 204.598184 327.823443 
L 204.860922 324.669493 
L 205.386399 298.380651 
L 205.649137 317.384312 
L 205.911876 311.360711 
L 206.174614 313.892756 
L 206.437352 292.881227 
L 206.700091 251.373464 
L 206.962829 244.710188 
L 207.225568 260.790893 
L 207.488306 244.710188 
L 207.751044 248.725922 
L 208.013783 270.794691 
L 208.276521 273.326735 
L 208.539259 290.81117 
L 208.801998 273.326735 
L 209.064736 291.637416 
L 209.327475 276.098658 
L 209.590213 291.530803 
L 209.852951 282.87743 
L 210.11569 264.566749 
L 210.378428 279.607983 
L 211.166643 305.434838 
L 211.429381 321.106862 
L 211.69212 317.952911 
L 211.954858 334.033616 
L 212.480335 349.350265 
L 212.743073 345.183497 
L 213.26855 330.05342 
L 213.531288 318.770273 
L 213.794027 314.754539 
L 214.582242 271.452134 
L 214.84498 274.606084 
L 215.107719 252.537316 
L 215.370457 271.540977 
L 215.633195 269.159967 
L 215.895934 271.540977 
L 216.421411 306.847452 
L 216.684149 313.510728 
L 216.946887 324.793874 
L 217.209626 346.862642 
L 217.472364 329.378208 
L 217.735102 326.997197 
L 218.260579 305.141654 
L 218.523318 286.137993 
L 218.786056 288.519003 
L 219.048794 277.715613 
L 219.311533 274.561662 
L 219.574271 290.10042 
L 220.099748 256.739622 
L 220.362486 277.75115 
L 220.625224 280.9051 
L 220.887963 298.727141 
L 221.150701 307.193943 
L 221.41344 319.543213 
L 221.676178 313.519612 
L 221.938916 317.68638 
L 222.201655 328.489771 
L 222.464393 349.545721 
L 222.98987 316.682447 
L 223.252608 313.528497 
L 223.515347 303.107134 
L 223.778085 306.261084 
L 224.040823 284.192316 
L 224.5663 312.249148 
L 224.829038 291.193198 
L 225.354515 303.835652 
L 225.617254 293.032262 
L 225.879992 288.865493 
L 226.14273 307.176174 
L 226.668207 270.083941 
L 226.930945 256.828465 
L 227.193684 260.844199 
L 227.719161 246.167225 
L 227.981899 261.705983 
L 228.244637 249.356713 
L 228.770114 289.416324 
L 229.295591 252.528432 
L 229.821068 273.495538 
L 230.346544 268.618021 
L 230.609283 275.636671 
L 230.872021 271.469902 
L 231.134759 286.902048 
L 232.185713 234.795235 
L 232.448451 212.726467 
L 232.71119 227.732163 
L 232.973928 216.449017 
L 233.236666 218.981061 
L 234.28762 260.986349 
L 234.550358 239.974821 
L 235.075835 275.769936 
L 235.338573 279.936704 
L 235.601312 292.285975 
L 236.126788 256.579703 
L 236.389527 252.412935 
L 236.652265 241.129789 
L 236.915004 238.597744 
L 237.44048 215.445083 
L 237.703219 223.911885 
L 237.965957 228.078653 
L 238.228695 236.714258 
L 238.491434 234.333248 
L 238.754172 249.872006 
L 239.016911 236.61653 
L 239.279649 258.294386 
L 239.542387 252.270785 
L 239.805126 262.692148 
L 240.067864 241.014292 
L 240.593341 222.126127 
L 240.856079 204.641693 
L 241.118817 200.474924 
L 241.381556 206.498525 
L 241.644294 197.86292 
L 241.907033 178.859259 
L 242.432509 199.844134 
L 242.695248 202.376179 
L 242.957986 341.878512 
L 243.220724 360.189193 
L 244.00894 318.308286 
L 244.271678 300.424055 
L 244.534416 290.260339 
L 245.059893 315.865085 
L 245.322631 307.398283 
L 245.58537 294.142807 
L 245.848108 302.778412 
L 246.110847 317.819646 
L 246.373585 306.5365 
L 247.1618 349.954402 
L 247.424538 352.450909 
L 247.687277 330.773053 
L 247.950015 352.450909 
L 248.212754 334.628869 
L 248.475492 345.912015 
L 248.73823 327.601334 
L 249.000969 323.5856 
L 249.263707 311.23633 
L 249.789184 328.356505 
L 250.051922 215.898186 
L 250.31466 226.470583 
L 250.577399 215.898186 
L 250.840137 230.939419 
L 251.102876 218.590149 
L 251.365614 240.658917 
L 251.628352 243.812867 
L 251.891091 237.149592 
L 252.153829 221.610834 
L 252.416567 243.28869 
L 252.679306 247.455458 
L 253.204783 262.585535 
L 253.730259 304.653014 
L 253.992998 301.499063 
L 254.255736 290.695673 
L 254.518474 288.163628 
L 254.781213 272.491605 
L 255.30669 306.927412 
L 255.569428 237.327279 
L 255.832166 230.708426 
L 256.620381 279.003846 
L 257.145858 253.541249 
L 257.408597 260.160103 
L 257.671335 279.163764 
L 257.934073 263.08306 
L 258.196812 278.088756 
L 258.45955 263.08306 
L 258.985027 284.805338 
L 259.510503 279.15488 
L 259.773242 266.690113 
L 260.03598 285.000794 
L 260.298719 267.516359 
L 260.561457 276.738332 
L 260.824195 272.571564 
L 261.086934 279.190417 
L 261.349672 292.445893 
L 261.61241 294.826904 
L 261.875149 298.993672 
L 262.137887 276.924904 
L 262.400626 288.20805 
L 262.663364 273.202354 
L 262.926102 266.539079 
L 263.188841 250.458374 
L 263.714317 271.425481 
L 263.977056 287.506185 
L 264.239794 277.084822 
L 264.765271 242.773396 
L 265.290748 276.178617 
L 265.553486 284.831991 
L 265.816224 299.837687 
L 266.078963 293.218833 
L 266.341701 290.837823 
L 266.60444 269.826294 
L 266.867178 272.207305 
L 267.129916 278.87058 
L 267.392655 294.302726 
L 267.655393 285.649352 
L 267.918131 267.765121 
L 268.18087 265.268614 
L 268.706346 234.146676 
L 268.969085 242.80005 
L 269.231823 232.636334 
L 269.494562 248.717038 
L 269.7573 255.335892 
L 270.020038 240.330195 
L 270.282777 255.371429 
L 270.545515 244.568039 
L 270.808253 227.083604 
L 271.070992 221.060003 
L 271.33373 231.481366 
L 271.596469 229.100355 
L 271.859207 216.635588 
L 272.121945 195.579638 
L 272.384684 211.118396 
L 272.647422 217.141997 
L 272.91016 195.464141 
L 273.172899 206.036538 
L 273.435637 208.417549 
L 273.698376 230.095405 
L 273.961114 238.731009 
L 274.223852 232.707408 
L 274.486591 311.547283 
L 275.274806 255.957797 
L 275.537544 242.702322 
L 275.800283 258.783026 
L 276.063021 256.250981 
L 276.588498 289.771699 
L 277.639451 335.543958 
L 277.902189 322.288483 
L 278.164928 316.264882 
L 278.427666 329.520357 
L 278.690405 316.264882 
L 278.953143 295.253353 
L 279.215881 308.508829 
L 279.47862 301.845554 
L 279.741358 299.349047 
L 280.004096 286.093571 
L 280.266835 307.771427 
L 280.792312 314.168171 
L 281.05505 329.209405 
L 281.317788 337.84501 
L 281.580527 329.378208 
L 281.843265 313.946062 
L 282.894219 280.709644 
L 283.156957 264.62894 
L 283.419695 267.160984 
L 283.682434 282.59313 
L 283.945172 291.246504 
L 284.470649 271.78974 
L 284.733387 280.256542 
L 284.996126 261.945861 
L 285.258864 265.099811 
L 285.784341 260.186756 
L 286.047079 266.850031 
L 286.309817 280.105507 
L 286.835294 316.655794 
L 287.098032 319.036804 
L 287.360771 327.690178 
L 287.623509 315.225411 
L 287.886248 325.389127 
L 288.148986 329.555895 
L 288.411724 310.552234 
L 288.937201 329.991229 
L 289.199939 325.824461 
L 289.462678 332.443314 
L 289.725416 211.811377 
L 289.988155 218.43023 
L 290.250893 325.824461 
L 290.513631 310.285703 
L 290.77637 332.354471 
L 291.039108 336.521239 
L 291.301846 314.843383 
L 291.827323 297.740976 
L 292.090062 295.359966 
L 292.615538 314.416933 
L 292.878277 329.955691 
L 293.141015 325.788923 
L 293.666492 366.470441 
L 294.717445 300.859389 
L 294.980184 306.88299 
L 295.50566 278.195368 
L 295.768399 269.541995 
L 296.031137 254.109849 
L 296.293875 245.474244 
L 296.556614 298.780447 
L 297.082091 275.743283 
L 297.344829 282.406558 
L 297.607567 278.23979 
L 297.870306 293.281024 
L 298.133044 250.973667 
L 298.658521 261.608255 
L 298.921259 255.584654 
L 299.972213 312.8444 
L 300.760428 270.270513 
L 301.023166 286.351217 
L 301.285905 294.818019 
L 301.811381 322.172986 
L 302.336858 291.513035 
L 302.599596 297.536636 
L 302.862335 306.190009 
L 303.125073 319.445485 
L 303.387812 321.941992 
L 303.65055 337.374138 
L 304.438765 276.427379 
L 304.964242 281.340434 
L 305.22698 265.25973 
L 305.752457 260.231178 
L 306.015195 242.346947 
L 306.277934 244.843454 
L 306.540672 229.411308 
L 306.80341 222.792455 
L 307.591625 270.945725 
L 307.854364 262.292351 
L 308.117102 246.620327 
L 308.379841 255.255932 
L 308.905317 286.466714 
L 309.168056 282.45098 
L 309.430794 267.445284 
L 309.693532 264.291334 
L 310.219009 245.660816 
L 311.269963 306.980718 
L 311.532701 296.177328 
L 311.795439 248.077364 
L 312.058178 252.244132 
L 312.320916 231.232604 
L 312.583655 241.805 
L 313.109131 277.173666 
L 313.37187 261.74152 
L 313.897346 292.2149 
L 314.160085 294.711407 
L 314.422823 283.428261 
L 314.9483 319.445485 
L 315.473777 356.795365 
L 315.736515 335.117509 
L 315.999253 332.585464 
L 316.261992 317.544231 
L 316.52473 333.082989 
L 317.050207 326.570748 
L 317.312945 308.260067 
L 317.575684 319.543213 
L 317.838422 297.474445 
L 318.10116 303.498046 
L 318.626637 270.075057 
L 318.889375 259.911341 
L 319.152114 281.980109 
L 319.414852 285.995843 
L 319.677591 298.46061 
L 319.940329 300.957117 
L 320.203067 294.933516 
L 320.465806 279.50137 
L 320.991282 313.546265 
L 321.254021 315.927276 
L 321.516759 307.460474 
L 321.779498 325.344705 
L 322.042236 304.288755 
L 322.304974 300.273021 
L 322.830451 337.383022 
L 323.093189 333.216254 
L 323.618666 305.079463 
L 323.881405 318.334939 
L 324.144143 307.051793 
L 324.406881 285.373937 
L 324.66962 297.723207 
L 324.932358 279.838976 
L 325.195096 284.005744 
L 325.457835 295.288891 
L 325.720573 288.670037 
L 325.983311 306.554268 
L 326.508788 273.637688 
L 326.771527 266.974413 
L 327.297003 294.88021 
L 327.559742 277.058169 
L 328.085218 303.30259 
L 328.347957 288.296894 
L 328.610695 292.312628 
L 329.136172 323.283532 
L 329.39891 307.202827 
L 329.661649 303.036059 
L 329.924387 287.497301 
L 330.187125 305.319341 
L 330.449864 283.250573 
L 330.712602 273.086857 
L 331.238079 304.70632 
L 331.500817 326.775088 
L 332.026294 345.574409 
L 332.289032 334.771018 
L 332.551771 353.081699 
L 333.339986 301.69452 
L 333.602724 319.178954 
L 333.865463 325.202555 
L 334.128201 346.880411 
L 334.653678 325.024868 
L 334.916416 321.009134 
L 335.179154 303.124903 
L 335.704631 328.702996 
L 335.96737 339.506386 
L 336.230108 204.748305 
L 336.492846 207.902255 
L 336.755585 204.748305 
L 337.018323 196.281503 
L 337.806538 224.1873 
L 338.069277 220.020532 
L 338.332015 230.592929 
L 338.857492 197.036674 
L 339.12023 186.233284 
L 339.382968 207.244812 
L 339.645707 209.625823 
L 340.171184 226.070786 
L 340.433922 208.248746 
L 340.69666 210.745253 
L 340.959399 226.177399 
L 341.222137 217.710597 
L 341.484875 232.716293 
L 341.747614 226.097439 
L 342.010352 211.091743 
L 342.535829 248.832535 
L 342.798567 240.19693 
L 343.061306 246.815784 
L 343.324044 230.735079 
L 343.586782 228.203034 
L 343.849521 222.179433 
L 344.637736 276.889366 
L 345.163213 272.011849 
L 345.425951 284.361119 
L 345.951428 256.464206 
L 346.214166 258.996251 
L 347.002381 211.971295 
L 347.26512 224.436063 
L 347.790596 200.688149 
L 348.053335 194.069296 
L 348.316073 172.000528 
L 348.578811 165.985811 
L 348.84155 179.241287 
L 349.104288 198.529248 
L 349.367027 345.725443 
L 349.629765 341.558675 
L 349.892503 344.09072 
L 350.155242 357.346195 
L 350.680718 393.398957 
L 350.943457 391.017947 
L 351.206195 375.976713 
L 351.468934 367.32334 
L 351.731672 351.784582 
L 351.99441 360.251384 
L 352.519887 317.561999 
L 352.782625 327.983362 
L 353.045364 319.51656 
L 353.308102 323.683328 
L 353.57084 315.047723 
L 353.833579 311.893773 
L 354.096317 299.544503 
L 354.359056 311.893773 
L 354.621794 301.730057 
L 354.884532 310.196859 
L 355.147271 313.350809 
L 355.410009 291.282041 
L 355.935486 267.649625 
L 356.198224 282.690858 
L 356.723701 269.408729 
L 357.249178 241.938266 
L 357.511916 244.319276 
L 357.774654 262.141317 
L 358.037393 268.76017 
L 358.300131 252.679466 
L 358.56287 250.147421 
L 358.825608 236.891945 
L 359.088346 251.897642 
L 359.351085 273.575497 
L 359.613823 276.107542 
L 359.876561 286.271258 
L 360.1393 271.230024 
L 361.452992 354.26332 
L 361.71573 189.991371 
L 361.978468 198.458173 
L 362.241207 200.990218 
L 362.766683 241.005407 
L 363.029422 218.936639 
L 363.29216 241.005407 
L 363.554899 232.352034 
L 363.817637 253.407984 
L 364.080375 255.904491 
L 364.343114 266.707882 
L 364.605852 285.018562 
L 364.86859 272.553795 
L 365.131329 285.018562 
L 365.394067 276.382957 
L 365.656806 282.406558 
L 365.919544 292.827921 
L 366.182282 271.771971 
L 366.445021 280.407576 
L 366.707759 295.839722 
L 366.970497 293.307677 
L 367.233236 271.238909 
L 367.495974 293.307677 
L 367.758713 287.284076 
L 368.021451 302.289772 
L 368.284189 293.82297 
L 368.546928 278.781737 
L 368.809666 272.118461 
L 369.072404 269.621954 
L 369.335143 279.78567 
L 369.597881 264.353524 
L 370.386096 305.505913 
L 370.648835 317.97068 
L 370.911573 340.039448 
L 371.174311 318.361592 
L 371.43705 311.742739 
L 371.699788 320.378344 
L 371.962526 311.742739 
L 372.225265 307.575971 
L 372.488003 298.922597 
L 372.750742 296.541587 
L 373.01348 290.517986 
L 373.276218 279.945589 
L 373.538957 290.517986 
L 373.801695 278.168715 
L 374.064433 296.479396 
L 374.327172 283.22392 
L 374.58991 280.691876 
L 374.852649 287.310729 
L 375.115387 271.230024 
L 375.378125 277.253625 
L 375.640864 258.942945 
L 376.16634 280.647454 
L 376.429079 283.179498 
L 376.954556 262.185739 
L 377.217294 241.129789 
L 377.480032 235.106188 
L 378.005509 266.192588 
L 378.268247 250.520565 
L 378.530986 252.901575 
L 378.793724 230.832807 
L 379.056463 228.3363 
L 379.319201 249.347828 
L 379.581939 234.306595 
L 379.844678 242.959968 
L 380.107416 236.341115 
L 380.370154 258.018971 
L 380.632893 255.63796 
L 380.895631 246.984586 
L 381.158369 268.040537 
L 381.421108 274.65939 
L 381.683846 285.080753 
L 382.209323 291.592994 
L 382.7348 285.942537 
L 382.997538 279.323683 
L 383.260276 292.579159 
L 383.785753 298.11412 
L 384.048492 308.686516 
L 384.573968 281.971224 
L 384.836707 286.137993 
L 385.362183 309.290653 
L 385.624922 324.722799 
L 385.88766 333.376173 
L 386.150399 317.944027 
L 386.413137 313.777259 
L 386.938614 329.964576 
L 387.201352 327.583565 
L 387.46409 309.699334 
L 387.726829 325.371358 
L 387.989567 314.798961 
L 388.515044 348.150875 
L 388.777782 330.328835 
L 389.040521 213.925856 
L 389.303259 230.006561 
L 389.565997 232.538605 
L 390.091474 266.059323 
L 390.354212 263.562816 
L 390.616951 256.943962 
L 391.142428 276.507339 
L 391.405166 269.888485 
L 391.667904 285.96919 
L 391.930643 267.658509 
L 392.193381 264.504559 
L 392.456119 275.307949 
L 392.981596 244.186011 
L 393.244335 263.189672 
L 393.507073 252.386282 
L 393.769811 246.362681 
L 394.03255 234.01341 
L 394.295288 244.585807 
L 394.820765 220.757935 
L 395.083503 205.752238 
L 395.346242 197.098865 
L 395.60898 205.73447 
L 395.871718 197.098865 
L 396.134457 209.563632 
L 396.659933 179.61443 
L 397.18541 189.804799 
L 397.448149 200.377196 
L 397.973625 230.726195 
L 398.236364 220.153798 
L 398.499102 214.130197 
L 398.76184 222.765802 
L 399.024579 218.750068 
L 399.550055 257.628058 
L 399.812794 272.633755 
L 400.075532 276.649488 
L 400.338271 287.221885 
L 400.601009 269.337654 
L 400.863747 280.620801 
L 401.126486 286.644402 
L 401.389224 280.620801 
L 401.651962 263.633891 
L 401.914701 282.637552 
L 402.177439 267.098794 
L 402.440178 288.77665 
L 402.702916 301.241417 
L 402.965654 305.257151 
L 403.491131 269.462035 
L 403.753869 280.745182 
L 404.016608 272.091808 
L 404.279346 250.413952 
L 404.804823 278.168715 
L 405.067561 257.112765 
L 405.3303 261.128499 
L 405.593038 272.411645 
L 405.855776 268.244877 
L 406.381253 305.13277 
L 406.90673 279.021615 
L 407.169468 268.600252 
L 407.432207 271.132296 
L 407.694945 260.96858 
L 407.957683 263.349591 
L 408.220422 284.405541 
L 408.48316 263.394013 
L 408.745898 254.927211 
L 409.271375 291.477497 
L 409.796852 255.460273 
L 410.05959 237.638232 
L 410.322329 247.801948 
L 410.585067 262.843182 
L 410.847805 260.346675 
L 411.373282 226.30178 
L 412.161497 256.144369 
L 412.686974 290.189264 
L 412.949712 272.704829 
L 413.212451 264.238028 
L 413.475189 249.196794 
L 413.737928 255.220395 
L 414.263404 235.283875 
L 414.526143 241.902728 
L 414.788881 231.739012 
L 415.051619 235.905781 
L 415.577096 262.194623 
L 415.839835 277.235857 
L 416.365311 240.641148 
L 416.890788 268.289299 
L 417.153526 284.370004 
L 417.679003 269.710798 
L 417.941741 278.346403 
L 418.20448 271.727549 
L 418.467218 260.444403 
L 418.729957 272.90917 
L 418.992695 254.598489 
L 419.255433 263.251863 
L 419.518172 284.263391 
L 420.043648 253.914393 
L 420.306387 262.381195 
L 420.569125 283.437145 
L 420.831864 289.460746 
L 421.35734 320.43165 
L 421.882817 301.801132 
L 422.145555 319.623172 
L 422.408294 304.191027 
L 422.671032 297.527751 
L 422.933771 276.516223 
L 423.196509 286.937586 
L 423.459247 282.770817 
L 423.721986 261.714867 
L 423.984724 277.386891 
L 424.247462 261.714867 
L 424.772939 301.081498 
L 425.035678 243.173193 
L 425.298416 258.711951 
L 425.561154 245.456475 
L 425.823893 298.798216 
L 426.086631 277.742266 
L 426.349369 271.718665 
L 426.874846 302.929447 
L 427.137585 307.096215 
L 428.451276 233.844607 
L 428.714015 220.589132 
L 428.976753 229.055934 
L 429.239491 211.233893 
L 429.50223 222.517039 
L 429.764968 206.845016 
L 430.290445 237.131823 
L 430.553183 218.821143 
L 431.341398 264.593402 
L 431.866875 245.154407 
L 432.129614 233.871261 
L 432.392352 237.025211 
L 432.65509 307.22948 
L 433.180567 340.057217 
L 433.443305 331.421612 
L 433.706044 212.833079 
L 433.968782 226.088555 
L 434.231521 217.621753 
L 434.494259 201.541048 
L 434.756997 199.009004 
L 435.019736 209.581401 
L 435.282474 199.009004 
L 435.545212 205.032605 
L 435.807951 221.113309 
L 436.070689 216.946541 
L 436.333428 238.002491 
L 436.858904 259.707 
L 437.121643 247.242233 
L 437.384381 268.920089 
L 437.909858 287.550607 
L 438.172596 291.717375 
L 438.435334 283.250573 
L 438.698073 261.572717 
L 438.960811 270.039519 
L 439.22355 252.155288 
L 439.486288 254.687333 
L 439.749026 244.523617 
L 440.011765 265.535145 
L 440.274503 263.0031 
L 440.537241 281.251591 
L 441.062718 253.74559 
L 441.325457 274.80154 
L 441.588195 283.437145 
L 442.113672 311.982617 
L 442.37641 290.926667 
L 442.639148 299.393468 
L 442.901887 312.648944 
L 443.164625 333.704894 
L 443.690102 300.21083 
L 444.215579 333.234023 
L 444.478317 311.165255 
L 444.741055 328.987295 
L 445.003794 335.010896 
L 445.266532 317.126665 
L 445.529271 314.630158 
L 445.792009 336.698926 
L 446.317486 304.208795 
L 446.580224 307.362746 
L 446.842962 286.306796 
L 447.105701 277.839994 
L 447.368439 275.307949 
L 447.893916 308.71317 
L 448.156654 297.909779 
L 448.419393 300.441824 
L 448.682131 288.092553 
L 448.944869 282.068952 
L 449.207608 262.185739 
L 449.733084 299.402353 
L 450.5213 257.779093 
L 450.784038 273.451116 
L 451.046776 262.647726 
L 451.309515 273.220123 
L 451.572253 257.548099 
L 451.834991 255.167089 
L 452.09773 233.489233 
L 452.360468 227.465632 
L 452.623207 245.776313 
L 452.885945 241.609544 
L 453.148683 226.568311 
L 453.411422 239.033078 
L 453.67416 230.379704 
L 453.936898 226.36397 
L 454.199637 241.796116 
L 454.725114 217.683944 
L 455.513329 271.265562 
L 455.776067 256.259866 
L 456.038805 264.913239 
L 456.301544 254.340843 
L 456.564282 238.802084 
L 456.82702 247.268886 
L 457.089759 249.649897 
L 457.352497 238.36675 
L 457.877974 271.194487 
L 458.140712 277.813341 
L 458.666189 240.925448 
L 458.928927 243.457493 
L 459.191666 265.135349 
L 459.454404 262.754338 
L 459.717143 271.389943 
L 459.979881 259.040673 
L 460.242619 237.984723 
L 460.768096 273.308966 
L 461.030834 275.689977 
L 461.293573 286.973123 
L 461.556311 280.309848 
L 462.081788 306.554268 
L 462.607265 282.87743 
L 462.870003 295.342197 
L 463.132741 286.875395 
L 463.39548 305.879056 
L 463.658218 290.87336 
L 463.920957 297.536636 
L 464.183695 286.253489 
L 464.446433 283.872479 
L 464.709172 297.127955 
L 465.234648 276.009814 
L 465.497387 288.359084 
L 465.760125 275.103609 
L 466.022863 278.257559 
L 466.54834 299.224665 
L 466.811079 292.56139 
L 467.336555 254.820598 
L 467.862032 293.76078 
L 468.12477 300.424055 
L 468.650247 261.483874 
L 468.912986 263.864884 
L 469.438462 292.739077 
L 469.701201 303.311474 
L 470.226677 269.75522 
L 470.489416 279.918936 
L 471.014893 260.879737 
L 471.803108 295.990756 
L 472.065846 283.525989 
L 472.328584 277.502388 
L 472.591323 268.866783 
L 473.1168 240.978754 
L 473.642276 264.015918 
L 473.905015 249.010222 
L 474.167753 249.010222 
L 474.430491 230.699541 
L 474.69323 313.55515 
L 474.955968 322.208523 
L 475.481445 309.566069 
L 475.744183 288.55454 
L 476.006922 299.837687 
L 476.532398 273.015782 
L 476.795137 283.437145 
L 477.057875 274.80154 
L 477.320613 290.473564 
L 477.583352 296.497165 
L 477.84609 277.493503 
L 478.108829 288.77665 
L 478.371567 292.943418 
L 478.634305 290.562407 
L 479.159782 309.770409 
L 479.42252 305.603641 
L 479.685259 299.58004 
L 479.947997 290.944435 
L 480.210736 288.412391 
L 480.998951 239.388453 
L 481.261689 246.007306 
L 481.524427 264.317987 
L 482.049904 272.500489 
L 482.312643 294.569257 
L 482.575381 290.402489 
L 482.838119 272.091808 
L 483.100858 274.623853 
L 483.363596 259.191707 
L 483.889073 293.236602 
L 484.151811 275.414561 
L 484.414549 288.670037 
L 484.677288 284.654303 
L 484.940026 305.710253 
L 485.202765 295.288891 
L 485.465503 310.960914 
L 485.99098 295.644265 
L 486.253718 304.297639 
L 486.516456 325.309167 
L 487.041933 344.108488 
L 487.304672 333.536091 
L 487.56741 331.004047 
L 487.830148 333.385057 
L 488.092887 324.731684 
L 488.355625 219.523008 
L 488.618363 232.778483 
L 488.881102 254.847251 
L 489.14384 261.466105 
L 489.669317 300.361864 
L 489.932055 279.350336 
L 490.194794 289.514052 
L 490.457532 271.692012 
L 490.72027 265.028736 
L 491.245747 237.131823 
L 491.508486 256.135485 
L 491.771224 245.563088 
L 492.033962 254.02989 
L 492.296701 266.494657 
L 492.559439 256.330941 
L 492.822177 277.342469 
L 493.347654 258.454305 
L 493.873131 219.132095 
L 494.135869 237.442776 
L 494.398608 221.904018 
L 494.924084 249.792047 
L 495.186823 264.797743 
L 495.449561 258.774142 
L 495.712299 269.346539 
L 495.975038 260.693165 
L 496.237776 242.808934 
L 496.500515 245.962884 
L 496.763253 243.43084 
L 497.551468 284.325582 
L 497.814206 294.489298 
L 498.076945 275.485636 
L 498.339683 292.970071 
L 498.602422 277.964375 
L 498.86516 286.431177 
L 499.127898 288.927684 
L 499.390637 285.773734 
L 500.178852 243.35088 
L 500.44159 261.172921 
L 500.967067 266.085976 
L 501.229805 276.889366 
L 501.492544 272.722598 
L 501.755282 272.722598 
L 502.01802 264.255796 
L 502.280759 268.422564 
L 502.543497 283.428261 
L 502.806235 292.081634 
L 503.068974 307.620392 
L 503.331712 305.239382 
L 503.594451 320.911406 
L 503.857189 310.490043 
L 504.119927 317.153318 
L 504.645404 286.573327 
L 504.908142 279.910051 
L 505.170881 257.841283 
L 505.696358 234.01341 
L 505.959096 244.585807 
L 506.221834 299.668884 
L 506.747311 266.245895 
L 507.010049 283.730329 
L 507.272788 286.262374 
L 507.535526 286.262374 
L 507.798265 264.193606 
L 508.061003 268.360374 
L 508.323741 252.279669 
L 508.58648 258.898523 
L 508.849218 252.235247 
L 509.374695 280.860679 
L 510.16291 224.915818 
L 510.951125 271.674243 
L 511.213863 265.055389 
L 511.476602 277.40466 
L 511.73934 284.067935 
L 512.002078 281.53589 
L 512.264817 273.069088 
L 513.31577 316.193807 
L 513.578509 305.390416 
L 513.841247 317.855183 
L 514.103985 302.849487 
L 514.366724 305.381532 
L 515.417677 264.469021 
L 515.680416 277.724497 
L 515.943154 271.061222 
L 516.205892 277.680075 
L 516.468631 271.656474 
L 516.731369 280.292079 
L 516.994108 301.969935 
L 517.256846 280.913985 
L 517.519584 272.260611 
L 517.782323 271.99408 
L 518.045061 265.330805 
L 518.307799 254.527414 
L 518.570538 233.471464 
L 518.833276 223.050101 
L 519.096015 244.106052 
L 519.88423 192.905444 
L 520.146968 195.437488 
L 520.672445 210.567565 
L 520.935183 203.90429 
L 521.197922 210.567565 
L 521.46066 228.389606 
L 521.723398 219.736232 
L 522.248875 253.052609 
L 522.511613 249.036875 
L 523.03709 284.831991 
L 523.299828 263.820462 
L 523.562567 274.623853 
L 524.088044 311.307405 
L 524.350782 304.644129 
L 524.876259 264.69113 
L 525.138997 262.194623 
L 525.401735 280.078854 
L 526.189951 226.061902 
L 526.452689 234.697507 
L 526.715427 217.213072 
L 527.503642 256.579703 
L 528.291858 228.19415 
L 528.554596 236.829755 
L 528.817334 230.806154 
L 529.080073 313.448537 
L 529.605549 339.293161 
L 529.868288 349.456877 
L 530.393765 380.001332 
L 530.919241 342.393806 
L 531.18198 323.390144 
L 531.444718 323.390144 
L 531.707456 342.393806 
L 531.970195 339.897298 
L 532.232933 322.412864 
L 532.75841 361.575154 
L 533.021148 355.551553 
L 533.283887 334.540025 
L 533.546625 343.17563 
L 533.809363 340.794619 
L 534.072102 343.291127 
L 534.33484 336.627851 
L 534.597578 324.278581 
L 534.860317 321.782074 
L 535.123055 330.435447 
L 535.91127 272.56268 
L 536.436747 264.380177 
L 536.962224 292.401471 
L 537.224962 296.56824 
L 537.487701 312.106998 
L 537.750439 299.642231 
L 538.013177 321.710999 
L 538.275916 313.244197 
L 538.538654 334.922053 
L 538.801392 331.768102 
L 539.064131 340.234904 
L 539.589608 345.112422 
L 540.377823 315.012186 
L 540.640561 330.444332 
L 541.166038 299.366815 
L 541.428776 244.887876 
L 541.691514 260.96858 
L 542.216991 232.574143 
L 542.47973 250.396183 
L 542.742468 257.015037 
L 543.005206 250.351762 
L 543.267945 257.015037 
L 543.530683 257.015037 
L 543.793421 287.239654 
L 544.05616 283.072886 
L 544.318898 280.691876 
L 544.844375 254.882789 
L 545.107113 258.036739 
L 545.369852 286.217952 
L 545.63259 268.333721 
L 546.158067 248.397201 
L 546.420805 235.141725 
L 546.683544 232.760715 
L 546.946282 235.257222 
L 547.471759 261.972514 
L 547.734497 283.65037 
L 547.997235 283.65037 
L 548.522712 266.228126 
L 548.785451 260.204525 
L 549.048189 272.553795 
L 549.310927 271.700896 
L 549.836404 231.747897 
L 550.099142 252.803847 
L 550.624619 212.744235 
L 550.887357 219.407511 
L 551.150096 210.940709 
L 551.412834 210.940709 
L 551.675573 223.405476 
L 551.938311 214.752102 
L 552.201049 230.184248 
L 552.463788 230.184248 
L 552.726526 227.803238 
L 553.514741 286.17353 
L 554.040218 258.116699 
L 554.302956 260.648743 
L 554.828433 295.955218 
L 555.091171 280.283195 
L 555.35391 296.363899 
L 555.616648 287.728294 
L 556.142125 324.411846 
L 556.667602 289.869427 
L 556.93034 308.873088 
L 557.193078 302.209813 
L 557.455817 302.209813 
L 557.981294 280.98506 
L 558.244032 280.98506 
L 558.50677 291.78845 
L 558.769509 275.707746 
L 559.032247 275.707746 
L 559.294985 263.242978 
L 559.820462 231.676822 
L 560.0832 249.561053 
L 560.608677 210.620872 
L 560.871416 228.505103 
L 561.134154 225.351152 
L 561.396892 209.919007 
L 561.659631 214.085775 
L 561.922369 199.044541 
L 562.447846 199.044541 
L 562.710584 209.208257 
L 562.973323 209.208257 
L 563.761538 270.643656 
L 564.024276 255.63796 
L 564.549753 270.954609 
L 564.812491 253.070378 
L 565.07523 256.224328 
L 565.600706 278.115409 
L 565.863445 278.115409 
L 566.126183 264.859933 
L 566.388921 275.43233 
L 566.65166 271.265562 
L 566.914398 271.265562 
L 567.177137 282.548708 
L 567.702613 249.241216 
L 567.965352 245.074448 
L 568.22809 251.693301 
L 569.016305 199.06231 
L 569.279043 207.715684 
L 569.541782 207.715684 
L 569.80452 199.06231 
L 570.067259 195.046576 
L 570.329997 188.427722 
L 570.592735 176.771433 
L 571.38095 202.891472 
L 571.643689 200.394965 
L 571.906427 217.8794 
L 572.169166 220.411444 
L 572.431904 224.578212 
L 572.694642 240.658917 
L 572.957381 236.643183 
L 573.220119 218.758952 
L 573.482857 221.255459 
L 573.745596 221.255459 
L 574.008334 242.266988 
L 574.271073 242.266988 
L 574.533811 224.782553 
L 574.796549 224.782553 
L 575.059288 236.065699 
L 575.322026 215.054171 
L 575.584764 221.077772 
L 575.847503 216.911004 
L 576.110241 225.546609 
L 576.37298 241.218632 
L 576.898456 209.465904 
L 577.161195 209.465904 
L 577.423933 202.802629 
L 577.686671 192.381266 
L 577.94941 190.000255 
L 578.212148 174.994559 
L 578.474886 166.527757 
L 578.737625 182.066516 
L 579.000363 185.220466 
L 579.263102 185.220466 
L 579.52584 174.417075 
L 579.788578 171.263125 
L 580.051317 162.609751 
L 580.314055 147.568518 
L 580.576793 157.732234 
L 580.839532 157.732234 
L 581.10227 151.477639 
L 581.365009 135.938881 
L 581.890485 173.697442 
L 582.153224 173.697442 
L 582.6787 206.560716 
L 582.941439 206.560716 
L 583.466916 168.802155 
L 583.992392 183.887811 
L 584.255131 181.391304 
L 584.517869 190.044677 
L 584.780607 190.044677 
L 585.043346 208.355358 
L 585.306084 199.701984 
L 585.568823 186.446509 
L 585.831561 179.827655 
L 586.094299 179.827655 
L 586.357038 188.46326 
L 586.619776 185.931215 
L 586.882514 196.503612 
L 587.145253 178.681572 
L 587.407991 194.353595 
L 587.670729 178.92145 
L 588.196206 178.92145 
L 588.458945 189.342812 
L 588.721683 189.342812 
L 588.984421 174.301579 
L 589.24716 174.301579 
L 589.509898 185.104969 
L 589.772636 185.104969 
L 590.035375 179.081368 
L 590.298113 183.248136 
L 590.82359 183.248136 
L 591.086328 198.786895 
L 591.349067 194.620126 
L 591.611805 194.620126 
L 591.874543 197.152171 
L 592.137282 203.815446 
L 592.662759 203.815446 
L 592.925497 192.5323 
L 593.188235 190.000255 
L 593.450974 207.884487 
L 593.713712 207.884487 
L 593.97645 225.706527 
L 594.239189 228.238572 
L 594.501927 219.77177 
L 594.764666 234.777466 
L 595.027404 232.245421 
L 595.815619 232.245421 
L 596.078357 214.423381 
L 596.341096 214.423381 
L 596.603834 196.1127 
L 596.866572 196.1127 
L 597.129311 211.153934 
L 597.392049 200.990218 
L 597.654788 207.609071 
L 597.917526 207.609071 
L 598.443003 181.133657 
L 598.705741 172.498052 
L 599.231218 172.498052 
L 599.493956 167.656072 
L 599.756695 185.478113 
L 600.019433 185.478113 
L 600.282171 167.656072 
L 600.54491 167.656072 
L 600.807648 149.771841 
L 601.858602 149.771841 
L 602.12134 165.203987 
L 602.384078 152.854716 
L 602.646817 152.854716 
L 602.909555 170.676757 
L 603.435032 170.676757 
L 603.69777 179.143559 
L 603.960509 176.762548 
L 604.223247 172.59578 
L 605.536939 172.59578 
L 605.799677 181.231385 
L 606.062415 178.734878 
L 606.587892 178.734878 
L 606.850631 160.912837 
L 607.901584 160.912837 
L 608.164322 172.195984 
L 608.427061 160.912837 
L 608.689799 161.099409 
L 608.952538 177.180114 
L 609.215276 181.346882 
L 609.478014 181.346882 
L 609.740753 165.808124 
L 610.003491 171.831725 
L 610.266229 171.831725 
L 610.528968 161.668009 
L 610.791706 161.668009 
L 611.317183 200.830299 
L 611.579921 192.194694 
L 611.84266 207.733452 
L 612.105398 207.733452 
L 612.368136 218.536843 
L 612.630875 196.858987 
L 612.893613 212.531011 
L 613.156352 201.72762 
L 613.41909 195.704019 
L 613.681828 205.867735 
L 614.207305 205.867735 
L 614.470043 227.545591 
L 614.732782 217.124228 
L 614.99552 219.656273 
L 615.258259 215.489505 
L 615.520997 200.057359 
L 616.046474 200.057359 
L 616.309212 204.18859 
L 616.57195 188.649832 
L 616.834689 188.649832 
L 617.097427 191.146339 
L 617.622904 178.255122 
L 617.885642 190.719889 
L 618.936596 190.719889 
L 619.199334 202.003036 
L 619.987549 202.003036 
L 620.250288 212.806426 
L 620.513026 197.134402 
L 620.775764 194.753392 
L 621.301241 194.753392 
L 621.563979 179.712158 
L 622.089456 179.712158 
L 622.352195 183.878926 
L 622.614933 177.215651 
L 623.14041 177.215651 
L 623.403148 172.986692 
L 623.928625 172.986692 
L 624.454102 188.25892 
L 624.979578 167.522807 
L 625.767793 167.522807 
L 626.030532 185.344847 
L 626.29327 185.344847 
L 626.556008 191.368448 
L 626.818747 180.565058 
L 627.081485 180.565058 
L 627.344224 182.946068 
L 627.606962 182.946068 
L 627.8697 176.327214 
L 628.395177 151.788592 
L 628.657915 149.292085 
L 628.920654 149.292085 
L 629.183392 133.211381 
L 630.759822 133.211381 
L 631.022561 129.213415 
L 632.073514 129.213415 
L 632.336253 137.84902 
L 632.598991 137.84902 
L 632.861729 144.512296 
L 633.387206 144.512296 
L 633.649945 147.04434 
L 633.912683 144.512296 
L 635.226375 144.512296 
L 635.489113 126.690255 
L 636.277328 126.690255 
L 636.540067 129.186762 
L 636.802805 129.186762 
L 637.065543 147.008803 
L 639.16745 147.008803 
L 639.430189 150.162753 
L 639.692927 150.162753 
L 639.955665 132.340713 
L 640.218404 132.340713 
L 640.481142 138.959566 
L 640.743881 135.805616 
L 641.006619 153.627656 
L 642.057572 153.627656 
L 642.320311 146.964381 
L 643.108526 146.964381 
L 643.371264 142.797613 
L 644.422218 142.797613 
L 644.684956 140.301106 
L 645.73591 140.301106 
L 645.998648 143.455056 
L 646.261386 125.633015 
L 647.837817 125.633015 
L 648.100555 123.252005 
L 649.414247 123.252005 
L 649.676985 125.633015 
L 649.939724 125.633015 
L 650.202462 103.955159 
L 653.618061 103.955159 
L 653.880799 108.121928 
L 657.821875 108.121928 
L 658.084613 104.967977 
L 658.347351 98.944376 
L 659.135567 98.944376 
L 659.398305 113.950073 
L 659.661043 113.950073 
L 659.923782 98.944376 
L 660.18652 101.440884 
L 660.449258 101.440884 
L 660.711997 113.790154 
L 660.974735 113.790154 
L 661.237474 105.154549 
L 661.500212 118.410025 
L 662.813904 118.410025 
L 663.076642 125.0733 
L 663.33938 112.72403 
L 663.602119 112.72403 
L 663.864857 106.105176 
L 664.653072 106.105176 
L 664.915811 106.602701 
L 665.178549 104.106194 
L 667.280456 104.106194 
L 667.543194 102.133864 
L 669.90784 102.133864 
L 670.170578 106.149598 
L 670.433317 106.149598 
L 670.696055 103.617553 
L 673.0607 103.617553 
L 673.323439 106.149598 
L 673.586177 106.149598 
L 673.848915 99.530745 
L 676.739037 99.530745 
L 677.001776 101.485305 
L 699.597276 101.485305 
L 699.860014 99.717316 
L 704.326566 99.717316 
L 704.589305 97.185272 
L 708.004904 97.185272 
L 708.267642 95.701582 
L 722.192776 95.701582 
L 722.455514 93.054041 
L 725.608375 93.054041 
L 725.871113 90.521996 
L 800.48881 90.521996 
L 800.751549 88.887273 
L 871.690909 88.887273 
L 871.690909 88.887273 
" style="fill:none;stroke:#8dd3c7;stroke-linecap:square;stroke-width:1.5;"/>
   </g>
   <g id="line2d_13">
    <path clip-path="url(#p33379691d7)" d="M 161.509091 154.196256 
L 580.051317 154.196256 
L 580.314055 147.568518 
L 581.10227 147.568518 
L 581.365009 135.938881 
L 628.920654 135.938881 
L 629.183392 133.211381 
L 630.759822 133.211381 
L 631.022561 129.213415 
L 635.226375 129.213415 
L 635.489113 126.690255 
L 645.998648 126.690255 
L 646.261386 125.633015 
L 647.837817 125.633015 
L 648.100555 123.252005 
L 649.939724 123.252005 
L 650.202462 103.955159 
L 658.084613 103.955159 
L 658.347351 98.944376 
L 704.326566 98.944376 
L 704.589305 97.185272 
L 708.004904 97.185272 
L 708.267642 95.701582 
L 722.192776 95.701582 
L 722.455514 93.054041 
L 725.608375 93.054041 
L 725.871113 90.521996 
L 800.48881 90.521996 
L 800.751549 88.887273 
L 871.690909 88.887273 
L 871.690909 88.887273 
" style="fill:none;stroke:#feffb3;stroke-linecap:square;stroke-width:1.5;"/>
   </g>
   <g id="line2d_14">
    <path clip-path="url(#p33379691d7)" d="M 161.509091 253.207197 
L 163.34826 253.207197 
L 163.610998 267.585392 
L 165.450166 267.585392 
L 165.712905 281.068739 
L 167.552073 281.068739 
L 167.814812 293.712932 
L 169.65398 293.712932 
L 169.916719 305.570195 
L 171.755887 305.570195 
L 172.018626 316.689506 
L 173.857794 316.689506 
L 174.120533 327.116791 
L 175.959701 327.116791 
L 176.22244 336.895119 
L 178.061608 336.895119 
L 178.324347 346.064879 
L 180.163515 346.064879 
L 180.426254 354.663947 
L 182.265422 354.663947 
L 182.528161 362.72784 
L 184.367329 362.72784 
L 184.630068 370.289865 
L 186.469236 370.289865 
L 186.731975 377.381257 
L 188.571143 377.381257 
L 188.833882 384.031307 
L 190.67305 384.031307 
L 190.935789 390.267481 
L 192.774957 390.267481 
L 193.037695 396.115538 
L 194.876864 396.115538 
L 195.139602 401.599634 
L 196.978771 401.599634 
L 197.241509 406.742419 
L 199.080678 406.742419 
L 199.343416 411.565136 
L 201.182585 411.565136 
L 201.445323 416.087704 
L 203.284492 416.087704 
L 203.54723 420.328804 
L 205.386399 420.328804 
L 205.649137 424.305954 
L 207.488306 424.305954 
L 207.751044 428.03558 
L 209.590213 428.03558 
L 209.852951 431.533087 
L 211.69212 431.533087 
L 211.954858 434.812922 
L 213.794027 434.812922 
L 214.056765 437.888632 
L 215.895934 437.888632 
L 216.158672 440.772921 
L 217.997841 440.772921 
L 218.260579 443.477703 
L 220.099748 443.477703 
L 220.362486 446.014148 
L 222.201655 446.014148 
L 222.464393 448.392734 
L 224.303562 448.392734 
L 224.5663 450.623286 
L 226.405469 450.623286 
L 226.668207 452.715016 
L 228.507376 452.715016 
L 228.770114 454.676565 
L 230.609283 454.676565 
L 230.872021 456.516034 
L 232.71119 456.516034 
L 232.973928 458.24102 
L 234.813097 458.24102 
L 235.075835 459.85865 
L 236.915004 459.85865 
L 237.177742 461.375605 
L 239.016911 461.375605 
L 239.279649 462.79815 
L 241.118817 462.79815 
L 241.381556 464.13216 
L 243.220724 464.13216 
L 243.483463 465.383147 
L 245.322631 465.383147 
L 245.58537 466.556277 
L 247.424538 466.556277 
L 247.687277 467.656395 
L 249.526445 467.656395 
L 249.789184 468.688046 
L 251.628352 468.688046 
L 251.891091 469.655491 
L 253.730259 469.655491 
L 253.992998 470.562726 
L 255.832166 470.562726 
L 256.094905 471.413497 
L 257.934073 471.413497 
L 258.196812 472.21132 
L 260.03598 472.21132 
L 260.298719 472.959489 
L 262.137887 472.959489 
L 262.400626 473.661094 
L 264.239794 473.661094 
L 264.502533 474.319035 
L 266.341701 474.319035 
L 266.60444 474.936027 
L 268.443608 474.936027 
L 268.706346 475.51462 
L 270.545515 475.51462 
L 270.808253 476.057203 
L 272.647422 476.057203 
L 272.91016 476.566019 
L 274.749329 476.566019 
L 275.012067 477.043167 
L 276.851236 477.043167 
L 277.113974 477.490619 
L 278.953143 477.490619 
L 279.215881 477.910224 
L 281.05505 477.910224 
L 281.317788 478.303713 
L 283.156957 478.303713 
L 283.419695 478.672714 
L 285.258864 478.672714 
L 285.521602 479.018749 
L 287.360771 479.018749 
L 287.623509 479.343248 
L 289.462678 479.343248 
L 289.725416 479.647552 
L 291.564585 479.647552 
L 291.827323 479.932916 
L 293.666492 479.932916 
L 293.92923 480.200521 
L 295.768399 480.200521 
L 296.031137 480.451471 
L 297.870306 480.451471 
L 298.133044 480.686803 
L 299.972213 480.686803 
L 300.234951 480.907488 
L 302.07412 480.907488 
L 302.336858 481.114439 
L 304.176027 481.114439 
L 304.438765 481.30851 
L 306.277934 481.30851 
L 306.540672 481.490503 
L 308.379841 481.490503 
L 308.642579 481.661169 
L 310.481748 481.661169 
L 310.744486 481.821214 
L 312.583655 481.821214 
L 312.846393 481.971297 
L 314.685561 481.971297 
L 314.9483 482.112041 
L 316.787468 482.112041 
L 317.050207 482.244025 
L 318.889375 482.244025 
L 319.152114 482.367794 
L 320.991282 482.367794 
L 321.516759 482.483861 
L 325.195096 482.592704 
L 325.720573 482.694773 
L 329.39891 482.79049 
L 329.924387 482.88025 
L 333.602724 482.964423 
L 334.128201 483.043358 
L 337.806538 483.11738 
L 338.332015 483.186795 
L 342.010352 483.25189 
L 342.535829 483.312934 
L 348.316073 483.42386 
L 349.104288 483.474201 
L 354.621794 483.565679 
L 355.410009 483.607194 
L 363.029422 483.716869 
L 364.080375 483.748974 
L 373.538957 483.858619 
L 374.852649 483.881902 
L 386.150399 483.978303 
L 388.252306 483.994138 
L 390.616951 484.022912 
L 415.577096 484.129245 
L 420.831864 484.147389 
L 871.690909 484.232727 
L 871.690909 484.232727 
" style="fill:none;stroke:#bfbbd9;stroke-linecap:square;stroke-width:1.5;"/>
   </g>
   <g id="patch_3">
    <path d="M 126 504 
L 126 69.12 
" style="fill:none;stroke:#ffffff;stroke-linecap:square;stroke-linejoin:miter;stroke-width:0.8;"/>
   </g>
   <g id="patch_4">
    <path d="M 907.2 504 
L 907.2 69.12 
" style="fill:none;stroke:#ffffff;stroke-linecap:square;stroke-linejoin:miter;stroke-width:0.8;"/>
   </g>
   <g id="patch_5">
    <path d="M 126 504 
L 907.2 504 
" style="fill:none;stroke:#ffffff;stroke-linecap:square;stroke-linejoin:miter;stroke-width:0.8;"/>
   </g>
   <g id="patch_6">
    <path d="M 126 69.12 
L 907.2 69.12 
" style="fill:none;stroke:#ffffff;stroke-linecap:square;stroke-linejoin:miter;stroke-width:0.8;"/>
   </g>
   <g id="text_13">
    <!-- instance 18 with error 0.01640105214296761 -->
    <g style="fill:#ffffff;" transform="translate(378.046875 63.12)scale(0.12 -0.12)">
     <defs>
      <path d="M 2834 3397 
L 2834 2853 
Q 2591 2978 2328 3040 
Q 2066 3103 1784 3103 
Q 1356 3103 1142 2972 
Q 928 2841 928 2578 
Q 928 2378 1081 2264 
Q 1234 2150 1697 2047 
L 1894 2003 
Q 2506 1872 2764 1633 
Q 3022 1394 3022 966 
Q 3022 478 2636 193 
Q 2250 -91 1575 -91 
Q 1294 -91 989 -36 
Q 684 19 347 128 
L 347 722 
Q 666 556 975 473 
Q 1284 391 1588 391 
Q 1994 391 2212 530 
Q 2431 669 2431 922 
Q 2431 1156 2273 1281 
Q 2116 1406 1581 1522 
L 1381 1569 
Q 847 1681 609 1914 
Q 372 2147 372 2553 
Q 372 3047 722 3315 
Q 1072 3584 1716 3584 
Q 2034 3584 2315 3537 
Q 2597 3491 2834 3397 
z
" id="DejaVuSans-73" transform="scale(0.015625)"/>
      <path d="M 3122 3366 
L 3122 2828 
Q 2878 2963 2633 3030 
Q 2388 3097 2138 3097 
Q 1578 3097 1268 2742 
Q 959 2388 959 1747 
Q 959 1106 1268 751 
Q 1578 397 2138 397 
Q 2388 397 2633 464 
Q 2878 531 3122 666 
L 3122 134 
Q 2881 22 2623 -34 
Q 2366 -91 2075 -91 
Q 1284 -91 818 406 
Q 353 903 353 1747 
Q 353 2603 823 3093 
Q 1294 3584 2113 3584 
Q 2378 3584 2631 3529 
Q 2884 3475 3122 3366 
z
" id="DejaVuSans-63" transform="scale(0.015625)"/>
      <path id="DejaVuSans-20" transform="scale(0.015625)"/>
      <path d="M 2034 2216 
Q 1584 2216 1326 1975 
Q 1069 1734 1069 1313 
Q 1069 891 1326 650 
Q 1584 409 2034 409 
Q 2484 409 2743 651 
Q 3003 894 3003 1313 
Q 3003 1734 2745 1975 
Q 2488 2216 2034 2216 
z
M 1403 2484 
Q 997 2584 770 2862 
Q 544 3141 544 3541 
Q 544 4100 942 4425 
Q 1341 4750 2034 4750 
Q 2731 4750 3128 4425 
Q 3525 4100 3525 3541 
Q 3525 3141 3298 2862 
Q 3072 2584 2669 2484 
Q 3125 2378 3379 2068 
Q 3634 1759 3634 1313 
Q 3634 634 3220 271 
Q 2806 -91 2034 -91 
Q 1263 -91 848 271 
Q 434 634 434 1313 
Q 434 1759 690 2068 
Q 947 2378 1403 2484 
z
M 1172 3481 
Q 1172 3119 1398 2916 
Q 1625 2713 2034 2713 
Q 2441 2713 2670 2916 
Q 2900 3119 2900 3481 
Q 2900 3844 2670 4047 
Q 2441 4250 2034 4250 
Q 1625 4250 1398 4047 
Q 1172 3844 1172 3481 
z
" id="DejaVuSans-38" transform="scale(0.015625)"/>
      <path d="M 269 3500 
L 844 3500 
L 1563 769 
L 2278 3500 
L 2956 3500 
L 3675 769 
L 4391 3500 
L 4966 3500 
L 4050 0 
L 3372 0 
L 2619 2869 
L 1863 0 
L 1184 0 
L 269 3500 
z
" id="DejaVuSans-77" transform="scale(0.015625)"/>
      <path d="M 3513 2113 
L 3513 0 
L 2938 0 
L 2938 2094 
Q 2938 2591 2744 2837 
Q 2550 3084 2163 3084 
Q 1697 3084 1428 2787 
Q 1159 2491 1159 1978 
L 1159 0 
L 581 0 
L 581 4863 
L 1159 4863 
L 1159 2956 
Q 1366 3272 1645 3428 
Q 1925 3584 2291 3584 
Q 2894 3584 3203 3211 
Q 3513 2838 3513 2113 
z
" id="DejaVuSans-68" transform="scale(0.015625)"/>
      <path d="M 684 794 
L 1344 794 
L 1344 0 
L 684 0 
L 684 794 
z
" id="DejaVuSans-2e" transform="scale(0.015625)"/>
      <path d="M 2113 2584 
Q 1688 2584 1439 2293 
Q 1191 2003 1191 1497 
Q 1191 994 1439 701 
Q 1688 409 2113 409 
Q 2538 409 2786 701 
Q 3034 994 3034 1497 
Q 3034 2003 2786 2293 
Q 2538 2584 2113 2584 
z
M 3366 4563 
L 3366 3988 
Q 3128 4100 2886 4159 
Q 2644 4219 2406 4219 
Q 1781 4219 1451 3797 
Q 1122 3375 1075 2522 
Q 1259 2794 1537 2939 
Q 1816 3084 2150 3084 
Q 2853 3084 3261 2657 
Q 3669 2231 3669 1497 
Q 3669 778 3244 343 
Q 2819 -91 2113 -91 
Q 1303 -91 875 529 
Q 447 1150 447 2328 
Q 447 3434 972 4092 
Q 1497 4750 2381 4750 
Q 2619 4750 2861 4703 
Q 3103 4656 3366 4563 
z
" id="DejaVuSans-36" transform="scale(0.015625)"/>
      <path d="M 703 97 
L 703 672 
Q 941 559 1184 500 
Q 1428 441 1663 441 
Q 2288 441 2617 861 
Q 2947 1281 2994 2138 
Q 2813 1869 2534 1725 
Q 2256 1581 1919 1581 
Q 1219 1581 811 2004 
Q 403 2428 403 3163 
Q 403 3881 828 4315 
Q 1253 4750 1959 4750 
Q 2769 4750 3195 4129 
Q 3622 3509 3622 2328 
Q 3622 1225 3098 567 
Q 2575 -91 1691 -91 
Q 1453 -91 1209 -44 
Q 966 3 703 97 
z
M 1959 2075 
Q 2384 2075 2632 2365 
Q 2881 2656 2881 3163 
Q 2881 3666 2632 3958 
Q 2384 4250 1959 4250 
Q 1534 4250 1286 3958 
Q 1038 3666 1038 3163 
Q 1038 2656 1286 2365 
Q 1534 2075 1959 2075 
z
" id="DejaVuSans-39" transform="scale(0.015625)"/>
      <path d="M 525 4666 
L 3525 4666 
L 3525 4397 
L 1831 0 
L 1172 0 
L 2766 4134 
L 525 4134 
L 525 4666 
z
" id="DejaVuSans-37" transform="scale(0.015625)"/>
     </defs>
     <use xlink:href="#DejaVuSans-69"/>
     <use x="27.783203" xlink:href="#DejaVuSans-6e"/>
     <use x="91.162109" xlink:href="#DejaVuSans-73"/>
     <use x="143.261719" xlink:href="#DejaVuSans-74"/>
     <use x="182.470703" xlink:href="#DejaVuSans-61"/>
     <use x="243.75" xlink:href="#DejaVuSans-6e"/>
     <use x="307.128906" xlink:href="#DejaVuSans-63"/>
     <use x="362.109375" xlink:href="#DejaVuSans-65"/>
     <use x="423.632812" xlink:href="#DejaVuSans-20"/>
     <use x="455.419922" xlink:href="#DejaVuSans-31"/>
     <use x="519.042969" xlink:href="#DejaVuSans-38"/>
     <use x="582.666016" xlink:href="#DejaVuSans-20"/>
     <use x="614.453125" xlink:href="#DejaVuSans-77"/>
     <use x="696.240234" xlink:href="#DejaVuSans-69"/>
     <use x="724.023438" xlink:href="#DejaVuSans-74"/>
     <use x="763.232422" xlink:href="#DejaVuSans-68"/>
     <use x="826.611328" xlink:href="#DejaVuSans-20"/>
     <use x="858.398438" xlink:href="#DejaVuSans-65"/>
     <use x="919.921875" xlink:href="#DejaVuSans-72"/>
     <use x="959.285156" xlink:href="#DejaVuSans-72"/>
     <use x="998.148438" xlink:href="#DejaVuSans-6f"/>
     <use x="1059.330078" xlink:href="#DejaVuSans-72"/>
     <use x="1100.443359" xlink:href="#DejaVuSans-20"/>
     <use x="1132.230469" xlink:href="#DejaVuSans-30"/>
     <use x="1195.853516" xlink:href="#DejaVuSans-2e"/>
     <use x="1227.640625" xlink:href="#DejaVuSans-30"/>
     <use x="1291.263672" xlink:href="#DejaVuSans-31"/>
     <use x="1354.886719" xlink:href="#DejaVuSans-36"/>
     <use x="1418.509766" xlink:href="#DejaVuSans-34"/>
     <use x="1482.132812" xlink:href="#DejaVuSans-30"/>
     <use x="1545.755859" xlink:href="#DejaVuSans-31"/>
     <use x="1609.378906" xlink:href="#DejaVuSans-30"/>
     <use x="1673.001953" xlink:href="#DejaVuSans-35"/>
     <use x="1736.625" xlink:href="#DejaVuSans-32"/>
     <use x="1800.248047" xlink:href="#DejaVuSans-31"/>
     <use x="1863.871094" xlink:href="#DejaVuSans-34"/>
     <use x="1927.494141" xlink:href="#DejaVuSans-32"/>
     <use x="1991.117188" xlink:href="#DejaVuSans-39"/>
     <use x="2054.740234" xlink:href="#DejaVuSans-36"/>
     <use x="2118.363281" xlink:href="#DejaVuSans-37"/>
     <use x="2181.986328" xlink:href="#DejaVuSans-36"/>
     <use x="2245.609375" xlink:href="#DejaVuSans-31"/>
    </g>
   </g>
   <g id="legend_1">
    <g id="patch_7">
     <path d="M 805.348438 499 
L 900.2 499 
Q 902.2 499 902.2 497 
L 902.2 453.965625 
Q 902.2 451.965625 900.2 451.965625 
L 805.348438 451.965625 
Q 803.348438 451.965625 803.348438 453.965625 
L 803.348438 497 
Q 803.348438 499 805.348438 499 
z
" style="opacity:0.8;stroke:#cccccc;stroke-linejoin:miter;"/>
    </g>
    <g id="line2d_15">
     <path d="M 807.348438 460.064062 
L 827.348438 460.064062 
" style="fill:none;stroke:#8dd3c7;stroke-linecap:square;stroke-width:1.5;"/>
    </g>
    <g id="line2d_16"/>
    <g id="text_14">
     <!-- cost -->
     <g style="fill:#ffffff;" transform="translate(835.348438 463.564062)scale(0.1 -0.1)">
      <use xlink:href="#DejaVuSans-63"/>
      <use x="54.980469" xlink:href="#DejaVuSans-6f"/>
      <use x="116.162109" xlink:href="#DejaVuSans-73"/>
      <use x="168.261719" xlink:href="#DejaVuSans-74"/>
     </g>
    </g>
    <g id="line2d_17">
     <path d="M 807.348438 474.742188 
L 827.348438 474.742188 
" style="fill:none;stroke:#feffb3;stroke-linecap:square;stroke-width:1.5;"/>
    </g>
    <g id="line2d_18"/>
    <g id="text_15">
     <!-- best cost -->
     <g style="fill:#ffffff;" transform="translate(835.348438 478.242188)scale(0.1 -0.1)">
      <defs>
       <path d="M 3116 1747 
Q 3116 2381 2855 2742 
Q 2594 3103 2138 3103 
Q 1681 3103 1420 2742 
Q 1159 2381 1159 1747 
Q 1159 1113 1420 752 
Q 1681 391 2138 391 
Q 2594 391 2855 752 
Q 3116 1113 3116 1747 
z
M 1159 2969 
Q 1341 3281 1617 3432 
Q 1894 3584 2278 3584 
Q 2916 3584 3314 3078 
Q 3713 2572 3713 1747 
Q 3713 922 3314 415 
Q 2916 -91 2278 -91 
Q 1894 -91 1617 61 
Q 1341 213 1159 525 
L 1159 0 
L 581 0 
L 581 4863 
L 1159 4863 
L 1159 2969 
z
" id="DejaVuSans-62" transform="scale(0.015625)"/>
      </defs>
      <use xlink:href="#DejaVuSans-62"/>
      <use x="63.476562" xlink:href="#DejaVuSans-65"/>
      <use x="125" xlink:href="#DejaVuSans-73"/>
      <use x="177.099609" xlink:href="#DejaVuSans-74"/>
      <use x="216.308594" xlink:href="#DejaVuSans-20"/>
      <use x="248.095703" xlink:href="#DejaVuSans-63"/>
      <use x="303.076172" xlink:href="#DejaVuSans-6f"/>
      <use x="364.257812" xlink:href="#DejaVuSans-73"/>
      <use x="416.357422" xlink:href="#DejaVuSans-74"/>
     </g>
    </g>
    <g id="line2d_19">
     <path d="M 807.348438 489.420313 
L 827.348438 489.420313 
" style="fill:none;stroke:#bfbbd9;stroke-linecap:square;stroke-width:1.5;"/>
    </g>
    <g id="line2d_20"/>
    <g id="text_16">
     <!-- temperature -->
     <g style="fill:#ffffff;" transform="translate(835.348438 492.920313)scale(0.1 -0.1)">
      <defs>
       <path d="M 3328 2828 
Q 3544 3216 3844 3400 
Q 4144 3584 4550 3584 
Q 5097 3584 5394 3201 
Q 5691 2819 5691 2113 
L 5691 0 
L 5113 0 
L 5113 2094 
Q 5113 2597 4934 2840 
Q 4756 3084 4391 3084 
Q 3944 3084 3684 2787 
Q 3425 2491 3425 1978 
L 3425 0 
L 2847 0 
L 2847 2094 
Q 2847 2600 2669 2842 
Q 2491 3084 2119 3084 
Q 1678 3084 1418 2786 
Q 1159 2488 1159 1978 
L 1159 0 
L 581 0 
L 581 3500 
L 1159 3500 
L 1159 2956 
Q 1356 3278 1631 3431 
Q 1906 3584 2284 3584 
Q 2666 3584 2933 3390 
Q 3200 3197 3328 2828 
z
" id="DejaVuSans-6d" transform="scale(0.015625)"/>
       <path d="M 1159 525 
L 1159 -1331 
L 581 -1331 
L 581 3500 
L 1159 3500 
L 1159 2969 
Q 1341 3281 1617 3432 
Q 1894 3584 2278 3584 
Q 2916 3584 3314 3078 
Q 3713 2572 3713 1747 
Q 3713 922 3314 415 
Q 2916 -91 2278 -91 
Q 1894 -91 1617 61 
Q 1341 213 1159 525 
z
M 3116 1747 
Q 3116 2381 2855 2742 
Q 2594 3103 2138 3103 
Q 1681 3103 1420 2742 
Q 1159 2381 1159 1747 
Q 1159 1113 1420 752 
Q 1681 391 2138 391 
Q 2594 391 2855 752 
Q 3116 1113 3116 1747 
z
" id="DejaVuSans-70" transform="scale(0.015625)"/>
       <path d="M 544 1381 
L 544 3500 
L 1119 3500 
L 1119 1403 
Q 1119 906 1312 657 
Q 1506 409 1894 409 
Q 2359 409 2629 706 
Q 2900 1003 2900 1516 
L 2900 3500 
L 3475 3500 
L 3475 0 
L 2900 0 
L 2900 538 
Q 2691 219 2414 64 
Q 2138 -91 1772 -91 
Q 1169 -91 856 284 
Q 544 659 544 1381 
z
M 1991 3584 
L 1991 3584 
z
" id="DejaVuSans-75" transform="scale(0.015625)"/>
      </defs>
      <use xlink:href="#DejaVuSans-74"/>
      <use x="39.208984" xlink:href="#DejaVuSans-65"/>
      <use x="100.732422" xlink:href="#DejaVuSans-6d"/>
      <use x="198.144531" xlink:href="#DejaVuSans-70"/>
      <use x="261.621094" xlink:href="#DejaVuSans-65"/>
      <use x="323.144531" xlink:href="#DejaVuSans-72"/>
      <use x="364.257812" xlink:href="#DejaVuSans-61"/>
      <use x="425.537109" xlink:href="#DejaVuSans-74"/>
      <use x="464.746094" xlink:href="#DejaVuSans-75"/>
      <use x="528.125" xlink:href="#DejaVuSans-72"/>
      <use x="566.988281" xlink:href="#DejaVuSans-65"/>
     </g>
    </g>
   </g>
  </g>
 </g>
 <defs>
  <clipPath id="p33379691d7">
   <rect height="434.88" width="781.2" x="126" y="69.12"/>
  </clipPath>
 </defs>
</svg>
