<?xml version="1.0" encoding="utf-8" standalone="no"?>
<!DOCTYPE svg PUBLIC "-//W3C//DTD SVG 1.1//EN"
  "http://www.w3.org/Graphics/SVG/1.1/DTD/svg11.dtd">
<svg height="576pt" version="1.1" viewBox="0 0 1008 576" width="1008pt" xmlns="http://www.w3.org/2000/svg" xmlns:xlink="http://www.w3.org/1999/xlink">
 <metadata>
  <rdf:RDF xmlns:cc="http://creativecommons.org/ns#" xmlns:dc="http://purl.org/dc/elements/1.1/" xmlns:rdf="http://www.w3.org/1999/02/22-rdf-syntax-ns#">
   <cc:Work>
    <dc:type rdf:resource="http://purl.org/dc/dcmitype/StillImage"/>
    <dc:date>2022-01-08T01:27:28.053416</dc:date>
    <dc:format>image/svg+xml</dc:format>
    <dc:creator>
     <cc:Agent>
      <dc:title>Matplotlib v3.4.3, https://matplotlib.org/</dc:title>
     </cc:Agent>
    </dc:creator>
   </cc:Work>
  </rdf:RDF>
 </metadata>
 <defs>
  <style type="text/css">*{stroke-linecap:butt;stroke-linejoin:round;}</style>
 </defs>
 <g id="figure_1">
  <g id="patch_1">
   <path d="M 0 576 
L 1008 576 
L 1008 0 
L 0 0 
z
"/>
  </g>
  <g id="axes_1">
   <g id="patch_2">
    <path d="M 126 504 
L 907.2 504 
L 907.2 69.12 
L 126 69.12 
z
"/>
   </g>
   <g id="matplotlib.axis_1">
    <g id="xtick_1">
     <g id="line2d_1">
      <defs>
       <path d="M 0 0 
L 0 3.5 
" id="md495cdceab" style="stroke:#ffffff;stroke-width:0.8;"/>
      </defs>
      <g>
       <use style="fill:#ffffff;stroke:#ffffff;stroke-width:0.8;" x="161.509091" xlink:href="#md495cdceab" y="504"/>
      </g>
     </g>
     <g id="text_1">
      <!-- 0 -->
      <g style="fill:#ffffff;" transform="translate(158.327841 518.598438)scale(0.1 -0.1)">
       <defs>
        <path d="M 2034 4250 
Q 1547 4250 1301 3770 
Q 1056 3291 1056 2328 
Q 1056 1369 1301 889 
Q 1547 409 2034 409 
Q 2525 409 2770 889 
Q 3016 1369 3016 2328 
Q 3016 3291 2770 3770 
Q 2525 4250 2034 4250 
z
M 2034 4750 
Q 2819 4750 3233 4129 
Q 3647 3509 3647 2328 
Q 3647 1150 3233 529 
Q 2819 -91 2034 -91 
Q 1250 -91 836 529 
Q 422 1150 422 2328 
Q 422 3509 836 4129 
Q 1250 4750 2034 4750 
z
" id="DejaVuSans-30" transform="scale(0.015625)"/>
       </defs>
       <use xlink:href="#DejaVuSans-30"/>
      </g>
     </g>
    </g>
    <g id="xtick_2">
     <g id="line2d_2">
      <g>
       <use style="fill:#ffffff;stroke:#ffffff;stroke-width:0.8;" x="328.453571" xlink:href="#md495cdceab" y="504"/>
      </g>
     </g>
     <g id="text_2">
      <!-- 500 -->
      <g style="fill:#ffffff;" transform="translate(318.909821 518.598438)scale(0.1 -0.1)">
       <defs>
        <path d="M 691 4666 
L 3169 4666 
L 3169 4134 
L 1269 4134 
L 1269 2991 
Q 1406 3038 1543 3061 
Q 1681 3084 1819 3084 
Q 2600 3084 3056 2656 
Q 3513 2228 3513 1497 
Q 3513 744 3044 326 
Q 2575 -91 1722 -91 
Q 1428 -91 1123 -41 
Q 819 9 494 109 
L 494 744 
Q 775 591 1075 516 
Q 1375 441 1709 441 
Q 2250 441 2565 725 
Q 2881 1009 2881 1497 
Q 2881 1984 2565 2268 
Q 2250 2553 1709 2553 
Q 1456 2553 1204 2497 
Q 953 2441 691 2322 
L 691 4666 
z
" id="DejaVuSans-35" transform="scale(0.015625)"/>
       </defs>
       <use xlink:href="#DejaVuSans-35"/>
       <use x="63.623047" xlink:href="#DejaVuSans-30"/>
       <use x="127.246094" xlink:href="#DejaVuSans-30"/>
      </g>
     </g>
    </g>
    <g id="xtick_3">
     <g id="line2d_3">
      <g>
       <use style="fill:#ffffff;stroke:#ffffff;stroke-width:0.8;" x="495.398051" xlink:href="#md495cdceab" y="504"/>
      </g>
     </g>
     <g id="text_3">
      <!-- 1000 -->
      <g style="fill:#ffffff;" transform="translate(482.673051 518.598438)scale(0.1 -0.1)">
       <defs>
        <path d="M 794 531 
L 1825 531 
L 1825 4091 
L 703 3866 
L 703 4441 
L 1819 4666 
L 2450 4666 
L 2450 531 
L 3481 531 
L 3481 0 
L 794 0 
L 794 531 
z
" id="DejaVuSans-31" transform="scale(0.015625)"/>
       </defs>
       <use xlink:href="#DejaVuSans-31"/>
       <use x="63.623047" xlink:href="#DejaVuSans-30"/>
       <use x="127.246094" xlink:href="#DejaVuSans-30"/>
       <use x="190.869141" xlink:href="#DejaVuSans-30"/>
      </g>
     </g>
    </g>
    <g id="xtick_4">
     <g id="line2d_4">
      <g>
       <use style="fill:#ffffff;stroke:#ffffff;stroke-width:0.8;" x="662.342531" xlink:href="#md495cdceab" y="504"/>
      </g>
     </g>
     <g id="text_4">
      <!-- 1500 -->
      <g style="fill:#ffffff;" transform="translate(649.617531 518.598438)scale(0.1 -0.1)">
       <use xlink:href="#DejaVuSans-31"/>
       <use x="63.623047" xlink:href="#DejaVuSans-35"/>
       <use x="127.246094" xlink:href="#DejaVuSans-30"/>
       <use x="190.869141" xlink:href="#DejaVuSans-30"/>
      </g>
     </g>
    </g>
    <g id="xtick_5">
     <g id="line2d_5">
      <g>
       <use style="fill:#ffffff;stroke:#ffffff;stroke-width:0.8;" x="829.287011" xlink:href="#md495cdceab" y="504"/>
      </g>
     </g>
     <g id="text_5">
      <!-- 2000 -->
      <g style="fill:#ffffff;" transform="translate(816.562011 518.598438)scale(0.1 -0.1)">
       <defs>
        <path d="M 1228 531 
L 3431 531 
L 3431 0 
L 469 0 
L 469 531 
Q 828 903 1448 1529 
Q 2069 2156 2228 2338 
Q 2531 2678 2651 2914 
Q 2772 3150 2772 3378 
Q 2772 3750 2511 3984 
Q 2250 4219 1831 4219 
Q 1534 4219 1204 4116 
Q 875 4013 500 3803 
L 500 4441 
Q 881 4594 1212 4672 
Q 1544 4750 1819 4750 
Q 2544 4750 2975 4387 
Q 3406 4025 3406 3419 
Q 3406 3131 3298 2873 
Q 3191 2616 2906 2266 
Q 2828 2175 2409 1742 
Q 1991 1309 1228 531 
z
" id="DejaVuSans-32" transform="scale(0.015625)"/>
       </defs>
       <use xlink:href="#DejaVuSans-32"/>
       <use x="63.623047" xlink:href="#DejaVuSans-30"/>
       <use x="127.246094" xlink:href="#DejaVuSans-30"/>
       <use x="190.869141" xlink:href="#DejaVuSans-30"/>
      </g>
     </g>
    </g>
    <g id="text_6">
     <!-- iteration -->
     <g style="fill:#ffffff;" transform="translate(495.477344 532.276562)scale(0.1 -0.1)">
      <defs>
       <path d="M 603 3500 
L 1178 3500 
L 1178 0 
L 603 0 
L 603 3500 
z
M 603 4863 
L 1178 4863 
L 1178 4134 
L 603 4134 
L 603 4863 
z
" id="DejaVuSans-69" transform="scale(0.015625)"/>
       <path d="M 1172 4494 
L 1172 3500 
L 2356 3500 
L 2356 3053 
L 1172 3053 
L 1172 1153 
Q 1172 725 1289 603 
Q 1406 481 1766 481 
L 2356 481 
L 2356 0 
L 1766 0 
Q 1100 0 847 248 
Q 594 497 594 1153 
L 594 3053 
L 172 3053 
L 172 3500 
L 594 3500 
L 594 4494 
L 1172 4494 
z
" id="DejaVuSans-74" transform="scale(0.015625)"/>
       <path d="M 3597 1894 
L 3597 1613 
L 953 1613 
Q 991 1019 1311 708 
Q 1631 397 2203 397 
Q 2534 397 2845 478 
Q 3156 559 3463 722 
L 3463 178 
Q 3153 47 2828 -22 
Q 2503 -91 2169 -91 
Q 1331 -91 842 396 
Q 353 884 353 1716 
Q 353 2575 817 3079 
Q 1281 3584 2069 3584 
Q 2775 3584 3186 3129 
Q 3597 2675 3597 1894 
z
M 3022 2063 
Q 3016 2534 2758 2815 
Q 2500 3097 2075 3097 
Q 1594 3097 1305 2825 
Q 1016 2553 972 2059 
L 3022 2063 
z
" id="DejaVuSans-65" transform="scale(0.015625)"/>
       <path d="M 2631 2963 
Q 2534 3019 2420 3045 
Q 2306 3072 2169 3072 
Q 1681 3072 1420 2755 
Q 1159 2438 1159 1844 
L 1159 0 
L 581 0 
L 581 3500 
L 1159 3500 
L 1159 2956 
Q 1341 3275 1631 3429 
Q 1922 3584 2338 3584 
Q 2397 3584 2469 3576 
Q 2541 3569 2628 3553 
L 2631 2963 
z
" id="DejaVuSans-72" transform="scale(0.015625)"/>
       <path d="M 2194 1759 
Q 1497 1759 1228 1600 
Q 959 1441 959 1056 
Q 959 750 1161 570 
Q 1363 391 1709 391 
Q 2188 391 2477 730 
Q 2766 1069 2766 1631 
L 2766 1759 
L 2194 1759 
z
M 3341 1997 
L 3341 0 
L 2766 0 
L 2766 531 
Q 2569 213 2275 61 
Q 1981 -91 1556 -91 
Q 1019 -91 701 211 
Q 384 513 384 1019 
Q 384 1609 779 1909 
Q 1175 2209 1959 2209 
L 2766 2209 
L 2766 2266 
Q 2766 2663 2505 2880 
Q 2244 3097 1772 3097 
Q 1472 3097 1187 3025 
Q 903 2953 641 2809 
L 641 3341 
Q 956 3463 1253 3523 
Q 1550 3584 1831 3584 
Q 2591 3584 2966 3190 
Q 3341 2797 3341 1997 
z
" id="DejaVuSans-61" transform="scale(0.015625)"/>
       <path d="M 1959 3097 
Q 1497 3097 1228 2736 
Q 959 2375 959 1747 
Q 959 1119 1226 758 
Q 1494 397 1959 397 
Q 2419 397 2687 759 
Q 2956 1122 2956 1747 
Q 2956 2369 2687 2733 
Q 2419 3097 1959 3097 
z
M 1959 3584 
Q 2709 3584 3137 3096 
Q 3566 2609 3566 1747 
Q 3566 888 3137 398 
Q 2709 -91 1959 -91 
Q 1206 -91 779 398 
Q 353 888 353 1747 
Q 353 2609 779 3096 
Q 1206 3584 1959 3584 
z
" id="DejaVuSans-6f" transform="scale(0.015625)"/>
       <path d="M 3513 2113 
L 3513 0 
L 2938 0 
L 2938 2094 
Q 2938 2591 2744 2837 
Q 2550 3084 2163 3084 
Q 1697 3084 1428 2787 
Q 1159 2491 1159 1978 
L 1159 0 
L 581 0 
L 581 3500 
L 1159 3500 
L 1159 2956 
Q 1366 3272 1645 3428 
Q 1925 3584 2291 3584 
Q 2894 3584 3203 3211 
Q 3513 2838 3513 2113 
z
" id="DejaVuSans-6e" transform="scale(0.015625)"/>
      </defs>
      <use xlink:href="#DejaVuSans-69"/>
      <use x="27.783203" xlink:href="#DejaVuSans-74"/>
      <use x="66.992188" xlink:href="#DejaVuSans-65"/>
      <use x="128.515625" xlink:href="#DejaVuSans-72"/>
      <use x="169.628906" xlink:href="#DejaVuSans-61"/>
      <use x="230.908203" xlink:href="#DejaVuSans-74"/>
      <use x="270.117188" xlink:href="#DejaVuSans-69"/>
      <use x="297.900391" xlink:href="#DejaVuSans-6f"/>
      <use x="359.082031" xlink:href="#DejaVuSans-6e"/>
     </g>
    </g>
   </g>
   <g id="matplotlib.axis_2">
    <g id="ytick_1">
     <g id="line2d_6">
      <defs>
       <path d="M 0 0 
L -3.5 0 
" id="md9312d908b" style="stroke:#ffffff;stroke-width:0.8;"/>
      </defs>
      <g>
       <use style="fill:#ffffff;stroke:#ffffff;stroke-width:0.8;" x="126" xlink:href="#md9312d908b" y="484.232727"/>
      </g>
     </g>
     <g id="text_7">
      <!-- 0 -->
      <g style="fill:#ffffff;" transform="translate(112.6375 488.031946)scale(0.1 -0.1)">
       <use xlink:href="#DejaVuSans-30"/>
      </g>
     </g>
    </g>
    <g id="ytick_2">
     <g id="line2d_7">
      <g>
       <use style="fill:#ffffff;stroke:#ffffff;stroke-width:0.8;" x="126" xlink:href="#md9312d908b" y="423.175514"/>
      </g>
     </g>
     <g id="text_8">
      <!-- 5000 -->
      <g style="fill:#ffffff;" transform="translate(93.55 426.974733)scale(0.1 -0.1)">
       <use xlink:href="#DejaVuSans-35"/>
       <use x="63.623047" xlink:href="#DejaVuSans-30"/>
       <use x="127.246094" xlink:href="#DejaVuSans-30"/>
       <use x="190.869141" xlink:href="#DejaVuSans-30"/>
      </g>
     </g>
    </g>
    <g id="ytick_3">
     <g id="line2d_8">
      <g>
       <use style="fill:#ffffff;stroke:#ffffff;stroke-width:0.8;" x="126" xlink:href="#md9312d908b" y="362.118301"/>
      </g>
     </g>
     <g id="text_9">
      <!-- 10000 -->
      <g style="fill:#ffffff;" transform="translate(87.1875 365.91752)scale(0.1 -0.1)">
       <use xlink:href="#DejaVuSans-31"/>
       <use x="63.623047" xlink:href="#DejaVuSans-30"/>
       <use x="127.246094" xlink:href="#DejaVuSans-30"/>
       <use x="190.869141" xlink:href="#DejaVuSans-30"/>
       <use x="254.492188" xlink:href="#DejaVuSans-30"/>
      </g>
     </g>
    </g>
    <g id="ytick_4">
     <g id="line2d_9">
      <g>
       <use style="fill:#ffffff;stroke:#ffffff;stroke-width:0.8;" x="126" xlink:href="#md9312d908b" y="301.061088"/>
      </g>
     </g>
     <g id="text_10">
      <!-- 15000 -->
      <g style="fill:#ffffff;" transform="translate(87.1875 304.860307)scale(0.1 -0.1)">
       <use xlink:href="#DejaVuSans-31"/>
       <use x="63.623047" xlink:href="#DejaVuSans-35"/>
       <use x="127.246094" xlink:href="#DejaVuSans-30"/>
       <use x="190.869141" xlink:href="#DejaVuSans-30"/>
       <use x="254.492188" xlink:href="#DejaVuSans-30"/>
      </g>
     </g>
    </g>
    <g id="ytick_5">
     <g id="line2d_10">
      <g>
       <use style="fill:#ffffff;stroke:#ffffff;stroke-width:0.8;" x="126" xlink:href="#md9312d908b" y="240.003875"/>
      </g>
     </g>
     <g id="text_11">
      <!-- 20000 -->
      <g style="fill:#ffffff;" transform="translate(87.1875 243.803094)scale(0.1 -0.1)">
       <use xlink:href="#DejaVuSans-32"/>
       <use x="63.623047" xlink:href="#DejaVuSans-30"/>
       <use x="127.246094" xlink:href="#DejaVuSans-30"/>
       <use x="190.869141" xlink:href="#DejaVuSans-30"/>
       <use x="254.492188" xlink:href="#DejaVuSans-30"/>
      </g>
     </g>
    </g>
    <g id="ytick_6">
     <g id="line2d_11">
      <g>
       <use style="fill:#ffffff;stroke:#ffffff;stroke-width:0.8;" x="126" xlink:href="#md9312d908b" y="178.946662"/>
      </g>
     </g>
     <g id="text_12">
      <!-- 25000 -->
      <g style="fill:#ffffff;" transform="translate(87.1875 182.745881)scale(0.1 -0.1)">
       <use xlink:href="#DejaVuSans-32"/>
       <use x="63.623047" xlink:href="#DejaVuSans-35"/>
       <use x="127.246094" xlink:href="#DejaVuSans-30"/>
       <use x="190.869141" xlink:href="#DejaVuSans-30"/>
       <use x="254.492188" xlink:href="#DejaVuSans-30"/>
      </g>
     </g>
    </g>
    <g id="ytick_7">
     <g id="line2d_12">
      <g>
       <use style="fill:#ffffff;stroke:#ffffff;stroke-width:0.8;" x="126" xlink:href="#md9312d908b" y="117.889449"/>
      </g>
     </g>
     <g id="text_13">
      <!-- 30000 -->
      <g style="fill:#ffffff;" transform="translate(87.1875 121.688668)scale(0.1 -0.1)">
       <defs>
        <path d="M 2597 2516 
Q 3050 2419 3304 2112 
Q 3559 1806 3559 1356 
Q 3559 666 3084 287 
Q 2609 -91 1734 -91 
Q 1441 -91 1130 -33 
Q 819 25 488 141 
L 488 750 
Q 750 597 1062 519 
Q 1375 441 1716 441 
Q 2309 441 2620 675 
Q 2931 909 2931 1356 
Q 2931 1769 2642 2001 
Q 2353 2234 1838 2234 
L 1294 2234 
L 1294 2753 
L 1863 2753 
Q 2328 2753 2575 2939 
Q 2822 3125 2822 3475 
Q 2822 3834 2567 4026 
Q 2313 4219 1838 4219 
Q 1578 4219 1281 4162 
Q 984 4106 628 3988 
L 628 4550 
Q 988 4650 1302 4700 
Q 1616 4750 1894 4750 
Q 2613 4750 3031 4423 
Q 3450 4097 3450 3541 
Q 3450 3153 3228 2886 
Q 3006 2619 2597 2516 
z
" id="DejaVuSans-33" transform="scale(0.015625)"/>
       </defs>
       <use xlink:href="#DejaVuSans-33"/>
       <use x="63.623047" xlink:href="#DejaVuSans-30"/>
       <use x="127.246094" xlink:href="#DejaVuSans-30"/>
       <use x="190.869141" xlink:href="#DejaVuSans-30"/>
       <use x="254.492188" xlink:href="#DejaVuSans-30"/>
      </g>
     </g>
    </g>
   </g>
   <g id="line2d_13">
    <path clip-path="url(#p61c7db7174)" d="M 161.509091 164.195239 
L 161.84298 190.901664 
L 162.176869 187.262654 
L 162.510758 197.04402 
L 162.844647 171.522105 
L 163.178536 178.50705 
L 163.512425 182.14606 
L 163.846314 177.481289 
L 164.180203 194.479617 
L 164.514092 177.481289 
L 164.847981 303.845297 
L 165.515758 313.455702 
L 165.849647 336.852826 
L 166.183536 311.245431 
L 166.517425 332.786416 
L 166.851314 337.81753 
L 167.185203 316.276546 
L 167.519092 318.792103 
L 167.852981 289.472429 
L 168.18687 316.178854 
L 168.520759 311.892638 
L 168.854648 292.598558 
L 169.188537 202.441478 
L 169.522426 229.147903 
L 170.190204 210.818527 
L 170.524093 237.268512 
L 170.857982 232.017592 
L 171.191871 212.723512 
L 171.52576 217.974433 
L 171.859649 244.949509 
L 172.193538 254.730875 
L 172.527427 270.019601 
L 172.861316 256.354997 
L 173.862982 187.775535 
L 174.196871 192.806649 
L 174.864649 233.153256 
L 175.198538 244.912875 
L 175.532427 230.22251 
L 175.866316 226.5835 
L 176.200205 253.289925 
L 176.534094 235.21699 
L 176.867983 208.767005 
L 177.201872 228.061084 
L 177.535761 232.725855 
L 177.86965 206.01943 
L 178.203539 232.469415 
L 178.537428 213.175336 
L 178.871317 238.697251 
L 179.872984 294.759984 
L 180.206873 297.275541 
L 180.540762 316.56962 
L 180.874651 307.362193 
L 181.20854 280.387116 
L 181.542429 275.356001 
L 181.876317 248.906017 
L 182.210206 244.6198 
L 182.877984 298.044862 
L 183.211873 308.668817 
L 183.545762 289.374738 
L 183.879651 283.647571 
L 184.21354 279.99635 
L 184.881318 252.948004 
L 185.215207 241.48146 
L 185.549096 245.767676 
L 185.882985 241.212808 
L 186.550763 223.848137 
L 186.884652 227.487146 
L 187.218541 256.8923 
L 187.55243 260.775539 
L 187.886319 279.984138 
L 188.220208 267.076643 
L 188.554097 294.674504 
L 188.887986 279.984138 
L 189.221875 293.648743 
L 189.555764 322.968416 
L 190.223541 271.973432 
L 190.55743 261.960049 
L 190.891319 273.426594 
L 191.225208 269.140377 
L 191.892986 295.590362 
L 192.226875 273.316691 
L 192.560764 288.605417 
L 192.894653 298.386782 
L 193.228542 302.672999 
L 193.562431 320.831414 
L 194.230209 283.378919 
L 194.564098 253.973765 
L 194.897987 250.334756 
L 195.231876 238.575136 
L 195.565765 233.568445 
L 196.233543 262.314181 
L 196.567432 285.711305 
L 196.901321 281.425088 
L 197.569099 338.428103 
L 198.236877 375.880597 
L 198.570765 383.463903 
L 198.904654 410.170328 
L 199.238543 392.011913 
L 199.572432 395.650923 
L 199.906321 390.986152 
L 200.24021 409.144567 
L 200.574099 405.493345 
L 200.907988 410.817534 
L 201.241877 408.301977 
L 201.575766 378.982303 
L 201.909655 384.013418 
L 202.243544 374.80599 
L 202.577433 377.321547 
L 202.911322 406.641221 
L 203.245211 388.482806 
L 203.5791 377.858851 
L 203.912989 375.343294 
L 204.246878 370.312179 
L 204.914656 379.898162 
L 205.248545 390.522117 
L 205.916323 357.758816 
L 206.250212 352.727702 
L 206.584101 345.144396 
L 206.917989 367.418067 
L 207.251878 341.896152 
L 207.585767 326.607426 
L 207.919656 304.333755 
L 208.253545 308.998526 
L 208.587434 297.361021 
L 208.921323 289.887618 
L 209.255212 290.962225 
L 209.92299 323.811006 
L 210.256879 193.869045 
L 210.590768 208.55941 
L 210.924657 183.037495 
L 211.258546 208.55941 
L 211.592435 179.239737 
L 211.926324 194.479617 
L 212.260213 199.034485 
L 212.927991 257.759313 
L 213.26188 267.540678 
L 213.595769 265.025121 
L 213.929658 278.689725 
L 214.263547 274.134857 
L 214.597436 248.527462 
L 214.931325 236.596883 
L 215.265213 254.755298 
L 215.599102 281.730375 
L 215.932991 272.522947 
L 216.26688 245.54787 
L 216.600769 263.620805 
L 216.934658 251.861186 
L 217.268547 229.587515 
L 217.602436 255.19491 
L 217.936325 237.036495 
L 218.270214 241.591363 
L 218.604103 264.988487 
L 219.271881 274.659949 
L 219.60577 271.008728 
L 219.939659 274.659949 
L 220.273548 249.138034 
L 220.607437 253.424251 
L 220.941326 280.399327 
L 221.275215 292.158947 
L 221.609104 287.494175 
L 221.942993 313.01609 
L 222.276882 309.364869 
L 222.94466 283.940646 
L 223.278549 278.933954 
L 223.612437 282.585175 
L 223.946326 255.87875 
L 224.280215 241.689054 
L 224.947993 283.244593 
L 225.281882 278.958377 
L 225.615771 260.885442 
L 226.283549 306.629506 
L 226.617438 297.422078 
L 226.951327 324.128503 
L 227.285216 334.752458 
L 227.619105 324.971093 
L 227.952994 329.257309 
L 228.286883 305.860185 
L 228.620772 300.535996 
L 228.954661 323.93312 
L 229.28855 328.597891 
L 229.622439 303.075976 
L 229.956328 316.74058 
L 230.290217 306.116625 
L 230.624106 301.561757 
L 230.957995 282.267678 
L 231.291884 255.561253 
L 231.625773 264.768681 
L 231.959661 235.449007 
L 232.29355 229.050211 
L 232.627439 243.740577 
L 232.961328 214.335423 
L 233.295217 233.629502 
L 233.629106 242.568278 
L 234.296884 252.82589 
L 234.630773 247.819198 
L 234.964662 274.525623 
L 235.298551 257.527295 
L 235.63244 253.876074 
L 235.966329 269.689892 
L 236.300218 297.287752 
L 236.634107 270.837768 
L 237.301885 283.745263 
L 237.969663 274.049377 
L 238.303552 274.049377 
L 238.637441 292.207792 
L 239.305219 347.049381 
L 239.639108 337.841953 
L 239.972997 364.291938 
L 240.640774 354.754801 
L 240.974663 363.962229 
L 241.642441 337.512244 
L 242.310219 286.871392 
L 242.644108 316.276546 
L 242.977997 300.633688 
L 243.311886 312.100232 
L 243.645775 284.502372 
L 243.979664 269.213646 
L 244.313553 288.507725 
L 244.647442 298.472262 
L 244.981331 316.288757 
L 245.31522 308.705451 
L 245.649109 325.703779 
L 245.982998 306.4097 
L 246.316887 303.894143 
L 246.650776 308.900834 
L 246.984665 335.350819 
L 247.318554 337.866376 
L 247.652443 352.556742 
L 247.986332 195.493167 
L 248.320221 187.384769 
L 248.65411 196.946328 
L 249.321887 222.578146 
L 249.989665 170.984801 
L 250.657443 226.83994 
L 250.991332 211.282562 
L 251.325221 224.947166 
L 251.992999 201.501197 
L 252.326888 204.370886 
L 252.660777 212.454861 
L 252.994666 197.166134 
L 253.328555 206.031642 
L 253.662444 233.006718 
L 253.996333 222.382763 
L 254.330222 245.963059 
L 254.664111 245.963059 
L 254.998 233.617291 
L 255.665778 257.06326 
L 256.333556 247.184203 
L 256.667445 267.784907 
L 257.001334 238.379753 
L 257.335222 267.381929 
L 257.669111 192.562421 
L 258.003 196.20143 
L 258.670778 242.201935 
L 259.004667 249.785241 
L 259.338556 235.094875 
L 259.672445 239.759646 
L 260.006334 251.519265 
L 260.340223 256.55038 
L 260.674112 283.525457 
L 261.008001 275.942151 
L 261.34189 249.235726 
L 261.675779 232.237398 
L 262.009668 239.820703 
L 262.343557 234.496514 
L 262.677446 223.872559 
L 263.011335 206.898654 
L 263.345224 233.348639 
L 263.679113 203.943485 
L 264.346891 194.357503 
L 264.68078 198.008724 
L 265.014669 212.003037 
L 265.348558 195.493167 
L 265.682446 224.898321 
L 266.016335 230.149241 
L 266.350224 249.943989 
L 266.684113 245.657773 
L 267.018002 255.439139 
L 267.351891 282.145564 
L 268.019669 237.329569 
L 268.353558 242.653758 
L 269.021336 235.363527 
L 269.355225 224.739572 
L 269.689114 251.494843 
L 270.023003 262.118798 
L 270.356892 257.454027 
L 270.690781 279.422412 
L 271.02467 271.839106 
L 271.358559 286.529471 
L 271.692448 275.905516 
L 272.026337 279.544526 
L 272.360226 292.378752 
L 272.694115 264.780892 
L 273.361893 313.919737 
L 273.695782 294.625658 
L 274.02967 267.027798 
L 274.363559 294.625658 
L 275.031337 260.738905 
L 275.365226 288.336765 
L 275.699115 273.048039 
L 276.033004 295.32171 
L 276.366893 298.972931 
L 276.700782 289.191566 
L 277.034671 286.676009 
L 277.36856 299.363698 
L 277.702449 287.604078 
L 278.036338 304.602407 
L 278.370227 297.019101 
L 278.704116 282.328735 
L 279.038005 282.328735 
L 279.371894 252.923581 
L 279.705783 240.492333 
L 280.039672 247.465067 
L 280.373561 229.575303 
L 280.70745 258.980457 
L 281.041339 255.341447 
L 281.375228 260.055064 
L 281.709117 274.745429 
L 282.043006 272.229872 
L 282.376894 281.4373 
L 282.710783 276.882432 
L 283.044672 215.361184 
L 283.378561 215.361184 
L 283.71245 211.404676 
L 284.046339 231.455865 
L 284.380228 240.663293 
L 284.714117 225.374567 
L 285.048006 230.381258 
L 285.381895 204.773863 
L 285.715784 232.371723 
L 286.049673 247.66045 
L 286.383562 252.691564 
L 286.717451 271.985643 
L 287.05134 266.734723 
L 287.385229 240.028298 
L 287.719118 269.433452 
L 288.053007 247.892467 
L 288.386896 252.667141 
L 288.720785 233.373062 
L 289.054674 223.591696 
L 289.388563 196.78758 
L 289.722452 196.78758 
L 290.056341 211.477945 
L 290.39023 238.18437 
L 291.058007 183.880085 
L 291.391896 189.619463 
L 291.725785 200.243418 
L 292.059674 204.529634 
L 292.393563 199.864863 
L 292.727452 214.555229 
L 293.061341 210.904007 
L 293.39523 218.487313 
L 293.729119 231.394808 
L 294.063008 217.730204 
L 294.396897 228.305313 
L 294.730786 232.970084 
L 295.064675 228.305313 
L 295.398564 198.900159 
L 295.732453 224.507554 
L 296.066342 221.991997 
L 296.400231 233.922577 
L 296.73412 213.566102 
L 297.068009 215.776373 
L 297.401898 210.745259 
L 297.735787 190.02244 
L 298.069676 187.287077 
L 298.403565 190.938299 
L 298.737454 217.913375 
L 299.071342 231.57798 
L 299.405231 236.8289 
L 299.73912 211.306985 
L 300.073009 232.84797 
L 300.406898 211.306985 
L 300.740787 221.08835 
L 301.074676 215.361184 
L 301.408565 203.601565 
L 301.742454 204.737229 
L 302.076343 204.737229 
L 302.410232 208.498353 
L 302.744121 223.188719 
L 303.411899 201.940808 
L 303.745788 214.017925 
L 304.079677 219.745092 
L 304.413566 200.451012 
L 304.747455 221.991997 
L 305.081344 216.985306 
L 305.415233 226.766671 
L 305.749122 223.11545 
L 306.083011 241.188385 
L 306.4169 235.937465 
L 306.750789 225.31351 
L 307.418566 262.875907 
L 307.752455 241.334922 
L 308.086344 232.127495 
L 308.420233 228.488485 
L 309.088011 204.602903 
L 309.4219 209.975938 
L 309.755789 219.183365 
L 310.089678 207.423746 
L 310.423567 202.868878 
L 310.757456 208.119798 
L 311.425234 255.182698 
L 312.093012 202.685706 
L 312.426901 197.361517 
L 312.76079 197.740072 
L 313.094679 202.29494 
L 313.428568 185.345458 
L 313.762457 196.812003 
L 314.430235 180.021269 
L 314.764124 194.16212 
L 315.098013 213.456199 
L 315.431902 208.791428 
L 315.76579 221.564597 
L 316.099679 248.271022 
L 316.433568 218.951348 
L 316.767457 223.237564 
L 317.101346 248.759479 
L 317.435235 256.342785 
L 318.103013 211.526791 
L 318.436902 196.238065 
L 318.770791 207.997684 
L 319.10468 194.33308 
L 319.438569 216.606751 
L 320.106347 206.324716 
L 320.440236 219.989321 
L 320.774125 219.989321 
L 321.108014 194.907018 
L 321.441903 186.04151 
L 322.109681 239.381092 
L 322.44357 257.771524 
L 322.777459 228.36637 
L 323.111348 220.599893 
L 324.113014 237.024283 
L 324.446903 215.483298 
L 325.114681 255.097218 
L 325.782459 245.511236 
L 326.450237 255.207121 
L 326.784126 229.599726 
L 327.118015 232.115283 
L 327.451904 236.670151 
L 327.785793 229.086845 
L 328.119682 214.39648 
L 328.453571 233.690559 
L 328.78746 238.697251 
L 329.789127 223.432947 
L 330.123016 219.781726 
L 330.456905 196.970751 
L 330.790794 265.464733 
L 331.124683 244.045863 
L 331.458572 255.805482 
L 332.12635 265.025121 
L 332.794127 289.31368 
L 333.128016 316.911541 
L 333.461905 289.936464 
L 333.795794 278.176845 
L 334.129683 248.857171 
L 334.463572 260.61679 
L 334.797461 245.926425 
L 335.13135 218.328564 
L 335.465239 200.170149 
L 335.799128 209.951515 
L 336.133017 233.898154 
L 336.466906 204.493 
L 336.800795 215.959545 
L 337.802462 267.479621 
L 338.136351 262.155432 
L 338.47024 244.082497 
L 338.804129 234.875069 
L 339.138018 237.390626 
L 339.471907 213.993502 
L 339.805796 240.443487 
L 340.139685 213.993502 
L 340.807462 249.064766 
L 341.141351 272.46189 
L 341.47524 267.797118 
L 341.809129 256.037499 
L 342.143018 282.487484 
L 342.476907 272.706118 
L 342.810796 299.681195 
L 343.478574 290.095213 
L 344.146352 297.385444 
L 344.480241 293.099228 
L 344.81413 297.654096 
L 345.148019 290.07079 
L 345.481908 304.761155 
L 345.815797 277.163295 
L 346.149686 282.194409 
L 347.151353 235.21699 
L 347.485242 244.998355 
L 347.819131 219.47644 
L 348.15302 214.22552 
L 348.486909 196.067105 
L 348.820798 203.65041 
L 349.154686 189.985806 
L 349.488575 277.224352 
L 349.822464 279.739909 
L 350.156353 252.142049 
L 350.490242 278.848474 
L 350.824131 249.5288 
L 351.15802 253.16781 
L 351.491909 249.5288 
L 351.825798 252.74041 
L 352.159687 248.454193 
L 352.493576 268.7374 
L 352.827465 263.486479 
L 353.161354 268.517594 
L 353.495243 249.223514 
L 353.829132 249.199091 
L 354.163021 239.417726 
L 355.164688 322.907359 
L 355.832466 314.603578 
L 356.166355 309.938807 
L 356.500244 315.665974 
L 356.834133 289.215989 
L 357.168022 318.535663 
L 357.501911 290.937802 
L 357.835799 303.845297 
L 358.169688 175.857167 
L 358.503577 164.207451 
L 358.837466 181.450008 
L 359.171355 183.538164 
L 359.505244 178.50705 
L 359.839133 204.114445 
L 360.506911 195.798453 
L 361.174689 246.47594 
L 361.508578 255.683367 
L 361.842467 282.389792 
L 362.510245 234.398823 
L 363.178023 285.344962 
L 363.511912 276.137534 
L 363.845801 293.135862 
L 364.17969 273.841783 
L 364.513579 277.493004 
L 364.847468 282.743924 
L 365.181357 257.136529 
L 365.515246 243.471925 
L 365.849135 272.791599 
L 366.183023 263.010233 
L 366.516912 258.724017 
L 366.850801 231.675671 
L 367.518579 252.093203 
L 367.852468 242.311838 
L 368.186357 276.100899 
L 368.520246 290.534825 
L 369.188024 299.424755 
L 369.521913 285.760151 
L 369.855802 266.466071 
L 370.189691 268.981628 
L 370.52358 291.2553 
L 370.857469 301.879255 
L 371.525247 292.561924 
L 371.859136 270.288253 
L 372.193025 283.952857 
L 372.526914 278.701937 
L 372.860803 266.942318 
L 373.194692 286.236397 
L 373.528581 266.942318 
L 373.86247 240.333584 
L 374.196359 284.368046 
L 374.530247 309.975441 
L 374.864136 177.432443 
L 375.198025 205.030303 
L 375.865803 225.99735 
L 376.199692 231.248271 
L 376.533581 226.241579 
L 377.201359 251.372728 
L 377.535248 256.696917 
L 377.869137 242.006552 
L 378.203026 259.00488 
L 378.536915 255.353658 
L 378.870804 244.729703 
L 379.538582 208.498353 
L 379.872471 197.031809 
L 380.20636 215.190224 
L 380.540249 220.221338 
L 380.874138 202.062923 
L 381.208027 206.349139 
L 381.541916 189.350811 
L 381.875805 199.132177 
L 382.209694 237.415049 
L 382.543583 227.633684 
L 382.877471 246.927763 
L 383.21136 253.326559 
L 383.545249 248.771691 
L 383.879138 265.770019 
L 384.213027 256.562591 
L 384.546916 268.322211 
L 384.880805 263.291096 
L 385.882472 295.162961 
L 386.216361 269.641046 
L 386.55025 252.642718 
L 386.884139 260.226024 
L 387.218028 257.710467 
L 387.551917 238.416388 
L 387.885806 240.931945 
L 388.219695 245.486813 
L 388.553584 233.727194 
L 388.887473 230.088184 
L 389.221362 200.76851 
L 389.555251 230.173664 
L 389.88914 230.173664 
L 390.223029 233.812674 
L 390.556918 251.885609 
L 390.890807 241.261654 
L 391.558584 282.096718 
L 391.892473 270.630173 
L 392.226362 252.557238 
L 392.560251 269.555566 
L 392.89414 265.26935 
L 393.228029 243.728365 
L 393.561918 270.703442 
L 393.895807 270.617962 
L 394.563585 290.449345 
L 394.897474 316.05674 
L 395.231363 290.449345 
L 395.565252 279.825389 
L 395.899141 309.145063 
L 396.23303 184.222005 
L 396.566919 273.206788 
L 396.900808 267.149912 
L 397.234697 272.156603 
L 397.568586 297.763999 
L 397.902475 309.230543 
L 398.904142 278.775205 
L 399.238031 283.232382 
L 399.571919 296.896986 
L 399.905808 324.494847 
L 400.239697 306.421911 
L 400.573586 310.708128 
L 400.907475 322.467747 
L 401.241364 296.860352 
L 401.575253 314.847807 
L 401.909142 285.528133 
L 402.243031 296.994678 
L 402.57692 291.743757 
L 402.910809 265.293773 
L 403.244698 291.951352 
L 403.578587 295.260653 
L 403.912476 173.634684 
L 404.246365 160.568441 
L 404.914143 187.018426 
L 405.248032 200.68303 
L 405.581921 187.018426 
L 405.91581 187.018426 
L 406.249699 194.601731 
L 406.917477 174.770349 
L 407.251366 163.010729 
L 407.919143 193.612605 
L 408.253032 211.68554 
L 408.586921 220.892967 
L 409.254699 187.531306 
L 409.588588 205.604241 
L 409.922477 200.353321 
L 410.256366 185.662955 
L 410.590255 195.639704 
L 410.924144 195.639704 
L 411.258033 261.789089 
L 411.591922 278.457708 
L 411.925811 278.164633 
L 412.2597 285.747939 
L 412.593589 300.731379 
L 412.927478 285.747939 
L 413.261367 285.50371 
L 413.595256 285.50371 
L 413.929145 308.900834 
L 414.263034 298.276879 
L 414.596923 316.349814 
L 414.930812 301.659449 
L 415.264701 312.283404 
L 415.59859 285.833419 
L 415.932479 285.576979 
L 416.266367 266.2829 
L 416.600256 209.218828 
L 416.934145 183.611433 
L 417.268034 197.801129 
L 417.601923 201.452351 
L 418.269701 166.869545 
L 418.937479 156.660779 
L 419.271368 162.742078 
L 419.605257 176.406682 
L 419.939146 172.767672 
L 420.273035 198.289587 
L 420.606924 188.508222 
L 420.940813 199.132177 
L 421.274702 204.163291 
L 421.608591 233.568445 
L 422.276369 208.437296 
L 422.610258 228.573965 
L 422.944147 227.18186 
L 423.278036 227.18186 
L 423.611925 236.963226 
L 423.945814 225.203607 
L 424.279703 203.235221 
L 424.613591 214.701766 
L 424.94748 191.304642 
L 425.281369 218.902502 
L 425.615258 215.263492 
L 425.949147 233.336427 
L 426.283036 228.329736 
L 426.616925 233.36085 
L 426.950814 260.335927 
L 427.284703 272.095546 
L 427.618592 268.444325 
L 427.952481 240.846465 
L 428.28637 244.485475 
L 428.954148 188.630336 
L 429.621926 239.62532 
L 429.955815 256.623648 
L 430.289704 283.330073 
L 430.957482 230.747602 
L 431.291371 235.412373 
L 431.62526 224.788418 
L 431.959149 219.537497 
L 432.293038 246.512574 
L 432.626927 251.763494 
L 432.960815 262.387449 
L 433.294704 266.038671 
L 433.628593 298.985143 
L 433.962482 301.5007 
L 434.296371 275.893305 
L 434.63026 279.532315 
L 434.964149 260.238236 
L 435.298038 257.722678 
L 435.631927 249.345629 
L 435.965816 219.940475 
L 436.299705 214.775035 
L 436.633594 244.180188 
L 436.967483 239.62532 
L 437.635261 277.077815 
L 438.303039 253.851651 
L 438.636928 265.61127 
L 438.970817 270.935459 
L 439.304706 273.451016 
L 439.638595 299.058412 
L 439.972484 279.764332 
L 440.306373 274.757641 
L 440.974151 253.790594 
L 441.308039 257.441815 
L 441.641928 254.926258 
L 441.975817 241.261654 
L 442.309706 250.469081 
L 442.643595 269.763161 
L 442.977484 272.278718 
L 443.311373 257.588352 
L 443.645262 247.806987 
L 444.31304 198.130838 
L 444.646929 215.629836 
L 445.314707 209.23104 
L 445.648596 223.921405 
L 445.982485 219.635189 
L 446.316374 247.233049 
L 446.650263 224.959378 
L 446.984152 235.583333 
L 447.318041 230.259144 
L 447.65193 255.866539 
L 448.319708 199.486308 
L 448.653597 228.891462 
L 448.987486 247.049877 
L 449.321375 230.051549 
L 449.655263 227.535992 
L 449.989152 241.200596 
L 450.323041 226.510231 
L 450.65693 226.510231 
L 450.990819 253.485308 
L 451.658597 262.704947 
L 451.992486 257.454027 
L 452.326375 265.745596 
L 452.660264 270.996516 
L 452.994153 287.994845 
L 453.328042 292.281061 
L 453.99582 243.764999 
L 454.329709 240.12599 
L 454.663598 245.132681 
L 454.997487 231.468077 
L 455.331376 228.085507 
L 455.665265 235.583333 
L 455.999154 247.049877 
L 456.333043 276.369551 
L 456.666932 265.745596 
L 457.000821 260.01843 
L 457.33471 240.72435 
L 457.668599 254.388954 
L 458.002487 224.983801 
L 458.336376 219.73288 
L 458.670265 243.130004 
L 459.004154 228.439639 
L 459.338043 238.221004 
L 459.671932 243.545193 
L 460.33971 282.084506 
L 460.673599 277.077815 
L 461.007488 302.59973 
L 461.341377 297.568616 
L 461.675266 315.641551 
L 462.009155 321.368717 
L 462.343044 297.971593 
L 462.676933 286.505049 
L 463.010822 278.921743 
L 463.344711 252.215318 
L 463.6786 247.929101 
L 464.012489 262.619467 
L 464.346378 258.968245 
L 464.680267 285.67467 
L 465.014156 276.467243 
L 465.348045 261.178517 
L 466.015823 317.558747 
L 466.349712 307.777382 
L 466.6836 319.243926 
L 467.017489 292.268849 
L 467.351378 287.604078 
L 467.685267 273.939474 
L 468.353045 221.967574 
L 468.686934 218.719331 
L 469.020823 256.782397 
L 469.354712 278.237902 
L 469.688601 282.79277 
L 470.02249 255.817693 
L 470.356379 251.531477 
L 470.690268 230.149241 
L 471.358046 282.463061 
L 471.691935 274.879755 
L 472.025824 270.324887 
L 472.693602 323.749949 
L 473.027491 338.440314 
L 473.695269 306.702775 
L 474.029158 324.77571 
L 474.363047 295.370556 
L 474.696936 316.911541 
L 475.030824 290.205116 
L 475.364713 286.566106 
L 475.698602 291.59722 
L 476.032491 276.906855 
L 476.36638 290.571459 
L 476.700269 285.24727 
L 477.034158 282.731713 
L 477.368047 294.491332 
L 478.035825 239.918395 
L 478.369714 244.473263 
L 478.703603 225.179184 
L 479.037492 227.694741 
L 479.371381 212.406015 
L 479.70527 212.406015 
L 480.373048 266.087517 
L 480.706937 255.463561 
L 481.040826 260.78775 
L 481.374715 271.411705 
L 481.708604 300.731379 
L 482.042493 295.700265 
L 482.376382 300.951185 
L 482.710271 315.641551 
L 483.378048 270.593539 
L 483.711937 297.568616 
L 484.045826 270.593539 
L 484.379715 274.879755 
L 484.713604 304.284909 
L 485.047493 282.743924 
L 485.381382 277.493004 
L 485.715271 299.766675 
L 486.716938 226.766671 
L 487.050827 227.658107 
L 487.384716 232.689221 
L 487.718605 259.664298 
L 488.052494 254.999527 
L 488.720272 265.977614 
L 489.38805 256.440477 
L 489.721939 285.760151 
L 490.055828 291.011071 
L 490.389717 288.495514 
L 490.723606 314.017429 
L 491.057495 304.236063 
L 491.725272 249.223514 
L 492.059161 267.296449 
L 492.39305 269.812007 
L 492.726939 258.052387 
L 493.060828 255.53683 
L 493.394717 274.830909 
L 493.728606 240.345795 
L 494.062495 262.228701 
L 494.396384 261.63034 
L 494.730273 265.281561 
L 495.064162 271.008728 
L 495.73194 324.433789 
L 496.065829 318.706623 
L 496.399718 289.301469 
L 496.733607 294.552389 
L 497.067496 309.841115 
L 497.401385 280.521442 
L 497.735274 289.728869 
L 498.069163 312.002541 
L 498.736941 259.945161 
L 499.404719 239.271189 
L 499.738608 242.910198 
L 500.072496 238.245427 
L 500.406385 256.318362 
L 500.740274 241.029636 
L 501.074163 217.632512 
L 501.408052 231.736728 
L 501.741941 236.4015 
L 502.07583 232.115283 
L 502.409719 252.618295 
L 502.743608 257.283066 
L 503.077497 252.251952 
L 503.411386 250.346967 
L 504.079164 283.195748 
L 504.413053 278.64088 
L 504.746942 243.43529 
L 505.080831 248.100062 
L 505.41472 242.849141 
L 505.748609 234.301131 
L 506.082498 215.007052 
L 506.416387 244.583166 
L 506.750276 244.583166 
L 507.084165 233.959211 
L 507.418054 248.393136 
L 507.751943 242.018763 
L 508.085832 247.025455 
L 508.41972 221.50354 
L 508.753609 207.838935 
L 509.087498 222.529301 
L 509.421387 248.051216 
L 509.755276 252.337432 
L 510.089165 277.944827 
L 510.423054 270.361521 
L 510.756943 267.845964 
L 511.090832 283.13469 
L 511.75861 273.096885 
L 512.092499 284.563429 
L 512.426388 289.570121 
L 513.094166 244.436629 
L 513.428055 239.11244 
L 513.761944 239.11244 
L 514.095833 243.386445 
L 514.429722 270.984305 
L 514.763611 287.982633 
L 515.0975 258.577479 
L 515.431389 247.953524 
L 515.765278 218.633851 
L 516.099167 213.969079 
L 516.433056 219.000194 
L 517.100833 275.380424 
L 517.434722 280.631345 
L 518.1025 234.960549 
L 518.770278 264.756469 
L 519.438056 264.756469 
L 519.771945 276.516089 
L 520.105834 228.305313 
L 520.773612 282.072295 
L 521.107501 277.895982 
L 522.109168 211.697751 
L 522.443057 238.404176 
L 522.776946 243.655096 
L 523.110835 234.447669 
L 523.444724 242.030975 
L 523.778613 219.757303 
L 524.112502 231.504711 
L 524.446391 249.663126 
L 524.78028 220.343452 
L 525.114168 245.865368 
L 525.781946 272.913713 
L 526.115835 254.755298 
L 526.449724 274.049377 
L 526.783613 283.256805 
L 527.117502 280.741248 
L 527.451391 255.133852 
L 527.78528 247.550547 
L 528.119169 247.550547 
L 528.453058 242.177512 
L 528.786947 240.504544 
L 529.120836 245.535659 
L 529.454725 263.608594 
L 529.788614 252.142049 
L 530.122503 256.342785 
L 530.456392 279.739909 
L 530.790281 250.334756 
L 531.12417 250.334756 
L 531.458059 233.336427 
L 531.791948 237.75697 
L 532.125837 248.039004 
L 532.459726 240.455698 
L 532.793615 216.973094 
L 533.127504 221.259311 
L 533.795281 241.078482 
L 534.12917 245.63335 
L 534.463059 253.16781 
L 534.796948 227.645895 
L 535.130837 228.232044 
L 535.464726 257.637198 
L 535.798615 251.580323 
L 536.132504 256.489323 
L 536.466393 282.157775 
L 536.800282 265.379253 
L 537.134171 283.537668 
L 537.46806 295.004213 
L 537.801949 285.796785 
L 538.135838 280.790093 
L 538.469727 266.099728 
L 538.803616 239.124651 
L 539.137505 225.972928 
L 539.471394 221.686711 
L 540.139172 254.450012 
L 540.473061 249.418897 
L 540.80695 234.728532 
L 541.140839 238.929268 
L 541.474728 253.619634 
L 541.808616 238.330907 
L 542.142505 234.997184 
L 542.476394 245.621139 
L 542.810283 240.370218 
L 543.478061 249.052554 
L 543.81195 239.271189 
L 544.479728 248.222176 
L 544.813617 243.93596 
L 545.147506 248.222176 
L 545.481395 248.222176 
L 545.815284 221.515751 
L 546.149173 221.515751 
L 546.483062 236.804477 
L 546.816951 226.180522 
L 547.15084 247.721507 
L 547.484729 221.271522 
L 547.818618 231.895477 
L 548.152507 227.609261 
L 548.486396 212.320535 
L 549.154174 202.88109 
L 549.488063 193.197416 
L 549.821952 218.719331 
L 550.15584 234.008057 
L 550.489729 260.458041 
L 550.823618 260.458041 
L 551.157507 255.903173 
L 551.491396 209.047868 
L 551.825285 234.569783 
L 552.159174 230.283567 
L 552.493063 230.283567 
L 552.826952 259.60324 
L 553.160841 270.227196 
L 553.49473 267.711638 
L 553.828619 267.711638 
L 554.162508 297.116792 
L 554.496397 300.768014 
L 554.830286 295.736899 
L 555.164175 307.203444 
L 555.498064 309.719001 
L 555.831953 321.47862 
L 556.165842 309.719001 
L 556.83362 274.647738 
L 557.167509 279.678852 
L 557.501398 250.273698 
L 558.169176 267.064432 
L 558.503064 239.466572 
L 558.836953 228.000027 
L 559.170842 223.994674 
L 559.504731 227.633684 
L 559.83862 205.59203 
L 560.172509 227.133015 
L 560.506398 238.892634 
L 560.840287 265.599059 
L 561.174176 250.310333 
L 561.841954 197.996512 
L 562.843621 261.88678 
L 563.17751 257.222009 
L 563.511399 272.510735 
L 563.845288 267.186546 
L 564.179177 252.496181 
L 564.513066 261.361688 
L 564.846955 257.722678 
L 565.180844 270.495847 
L 565.514733 270.495847 
L 565.848622 285.186213 
L 566.182511 290.913379 
L 566.5164 272.754964 
L 566.850288 267.027798 
L 567.184177 267.027798 
L 567.518066 293.477782 
L 567.851955 288.922914 
L 568.185844 292.561924 
L 568.519733 292.561924 
L 568.853622 296.84814 
L 569.5214 262.863696 
L 569.855289 256.428265 
L 570.189178 234.887281 
L 570.523067 261.593706 
L 570.856956 261.593706 
L 571.190845 257.942484 
L 571.524734 259.749778 
L 571.858623 263.950514 
L 572.192512 264.133686 
L 572.526401 258.968245 
L 572.86029 269.592201 
L 573.194179 264.34128 
L 573.528068 264.34128 
L 573.861957 283.63536 
L 574.195846 310.341785 
L 574.863624 319.243926 
L 575.531401 309.438138 
L 575.86529 297.678519 
L 576.199179 297.678519 
L 576.533068 303.405685 
L 577.200846 285.198424 
L 577.534735 310.805819 
L 577.868624 293.807491 
L 578.202513 284.026126 
L 579.20418 284.026126 
L 579.538069 280.387116 
L 579.871958 254.865201 
L 580.205847 258.504211 
L 580.539736 255.988653 
L 580.873625 226.5835 
L 581.207514 231.138368 
L 581.541403 209.597383 
L 581.875292 212.11294 
L 582.209181 219.696246 
L 582.54307 192.721169 
L 582.876959 192.721169 
L 583.210848 197.97209 
L 583.544737 212.662455 
L 583.878625 197.97209 
L 584.212514 197.97209 
L 584.880292 188.093033 
L 585.881959 188.093033 
L 586.215848 203.992331 
L 586.549737 177.285906 
L 586.883626 177.285906 
L 587.217515 184.25864 
L 587.885293 238.562925 
L 588.219182 238.562925 
L 588.553071 248.34429 
L 588.88696 244.058074 
L 589.220849 232.591529 
L 589.554738 237.146398 
L 589.888627 237.146398 
L 590.556405 246.756803 
L 590.890294 246.756803 
L 591.558072 238.111101 
L 591.891961 265.086178 
L 592.225849 282.084506 
L 592.893627 282.084506 
L 593.227516 272.877079 
L 593.561405 247.269683 
L 593.895294 247.269683 
L 594.229183 239.686378 
L 594.563072 222.688049 
L 595.898628 222.688049 
L 596.566406 237.793604 
L 596.900295 237.793604 
L 597.234184 219.635189 
L 597.568073 219.635189 
L 597.901962 221.308156 
L 598.235851 224.959378 
L 598.56974 202.685706 
L 598.903629 202.685706 
L 599.237518 224.959378 
L 599.571407 238.623982 
L 599.905296 233.299793 
L 600.239185 233.299793 
L 600.573073 224.092365 
L 600.906962 233.824885 
L 601.240851 233.824885 
L 601.57474 245.584504 
L 601.908629 241.945494 
L 602.910296 252.508392 
L 603.244185 248.869382 
L 603.578074 254.193571 
L 603.911963 248.942651 
L 604.245852 231.944323 
L 604.579741 208.547199 
L 604.91363 227.841278 
L 605.247519 227.841278 
L 605.581408 258.003542 
L 605.915297 241.127328 
L 606.249186 246.854494 
L 606.916964 191.084836 
L 607.250853 191.084836 
L 607.584742 194.723846 
L 608.586409 194.723846 
L 608.920297 192.208289 
L 609.254186 194.723846 
L 609.588075 167.748769 
L 610.255853 167.748769 
L 610.589742 172.303637 
L 610.923631 187.592363 
L 611.25752 175.832744 
L 611.591409 172.181523 
L 611.925298 172.181523 
L 612.259187 146.42759 
L 612.593076 141.396476 
L 614.262521 141.396476 
L 614.59641 150.603904 
L 614.930299 155.854824 
L 615.264188 151.299956 
L 615.598077 151.299956 
L 615.931966 147.648735 
L 616.265855 147.648735 
L 616.599744 132.360008 
L 618.269188 132.360008 
L 618.603077 136.914877 
L 618.936966 136.914877 
L 619.604744 169.201931 
L 619.938633 154.511565 
L 620.9403 154.511565 
L 621.274189 149.846794 
L 621.608078 142.874061 
L 621.941967 147.160277 
L 622.275856 147.160277 
L 622.609745 142.605409 
L 622.943634 142.605409 
L 623.277523 146.073458 
L 623.611412 150.73823 
L 624.946968 150.73823 
L 625.280857 155.293098 
L 625.614745 155.293098 
L 625.948634 143.533478 
L 626.616412 139.027456 
L 628.285857 139.027456 
L 628.619746 145.1576 
L 628.953635 140.602732 
L 629.287524 148.723342 
L 630.62308 148.723342 
L 630.956969 161.435453 
L 631.290858 161.435453 
L 631.624747 187.042848 
L 631.958636 161.435453 
L 632.626414 161.435453 
L 632.960303 157.784232 
L 633.294192 161.423242 
L 635.631414 161.423242 
L 635.965303 153.839936 
L 637.634748 153.839936 
L 637.968637 134.545857 
L 638.636415 134.545857 
L 638.970304 142.129163 
L 640.973638 142.129163 
L 641.641416 151.446493 
L 641.975305 125.924578 
L 642.976971 125.924578 
L 643.31086 130.479446 
L 643.644749 125.472755 
L 646.315861 125.472755 
L 646.64975 121.186538 
L 647.651417 121.186538 
L 647.985306 129.893297 
L 650.990306 129.893297 
L 651.324195 126.596208 
L 653.327529 126.596208 
L 653.661418 127.670814 
L 655.664752 127.670814 
L 655.998641 130.223006 
L 662.008642 130.223006 
L 662.342531 133.874227 
L 662.67642 120.209623 
L 668.686421 120.209623 
L 669.02031 125.216315 
L 669.354199 117.633009 
L 673.026978 117.633009 
L 673.360867 113.078141 
L 676.031978 113.078141 
L 676.365867 108.791924 
L 683.043647 108.877404 
L 683.377536 98.619792 
L 732.459213 98.619792 
L 732.793102 88.887273 
L 871.690909 88.887273 
L 871.690909 88.887273 
" style="fill:none;stroke:#8dd3c7;stroke-linecap:square;stroke-width:1.5;"/>
   </g>
   <g id="line2d_14">
    <path clip-path="url(#p61c7db7174)" d="M 161.509091 164.195239 
L 403.912476 164.195239 
L 404.246365 160.568441 
L 418.60359 160.568441 
L 418.937479 156.660779 
L 611.925298 156.660779 
L 612.259187 146.42759 
L 612.593076 141.396476 
L 616.265855 141.396476 
L 616.599744 132.360008 
L 641.641416 132.360008 
L 641.975305 125.924578 
L 643.31086 125.924578 
L 643.644749 125.472755 
L 646.315861 125.472755 
L 646.64975 121.186538 
L 662.342531 121.186538 
L 662.67642 120.209623 
L 669.02031 120.209623 
L 669.354199 117.633009 
L 673.026978 117.633009 
L 673.360867 113.078141 
L 676.031978 113.078141 
L 676.365867 108.791924 
L 683.043647 108.791924 
L 683.377536 98.619792 
L 732.459213 98.619792 
L 732.793102 88.887273 
L 871.690909 88.887273 
L 871.690909 88.887273 
" style="fill:none;stroke:#feffb3;stroke-linecap:square;stroke-width:1.5;"/>
   </g>
   <g id="line2d_15">
    <path clip-path="url(#p61c7db7174)" d="M 161.509091 260.206486 
L 163.846314 260.206486 
L 164.180203 277.513702 
L 166.517425 277.513702 
L 166.851314 293.483843 
L 169.188537 293.483843 
L 169.522426 308.220206 
L 171.859649 308.220206 
L 172.193538 321.818107 
L 174.53076 321.818107 
L 174.864649 334.365499 
L 177.201872 334.365499 
L 177.535761 345.943537 
L 179.872984 345.943537 
L 180.206873 356.627111 
L 182.544095 356.627111 
L 182.877984 366.485322 
L 185.215207 366.485322 
L 185.549096 375.581933 
L 187.886319 375.581933 
L 188.220208 383.975784 
L 190.55743 383.975784 
L 190.891319 391.721165 
L 193.228542 391.721165 
L 193.562431 398.868174 
L 195.899654 398.868174 
L 196.233543 405.463038 
L 198.570765 405.463038 
L 198.904654 411.548415 
L 201.241877 411.548415 
L 201.575766 417.163664 
L 203.912989 417.163664 
L 204.246878 422.345105 
L 206.584101 422.345105 
L 206.917989 427.126252 
L 209.255212 427.126252 
L 209.589101 431.53803 
L 211.926324 431.53803 
L 212.260213 435.608975 
L 214.597436 435.608975 
L 214.931325 439.365418 
L 217.268547 439.365418 
L 217.602436 442.831655 
L 219.939659 442.831655 
L 220.273548 446.030108 
L 222.610771 446.030108 
L 222.94466 448.981463 
L 225.281882 448.981463 
L 225.615771 451.70481 
L 227.952994 451.70481 
L 228.286883 454.217764 
L 230.624106 454.217764 
L 230.957995 456.53658 
L 233.295217 456.53658 
L 233.629106 458.676254 
L 235.966329 458.676254 
L 236.300218 460.650627 
L 238.637441 460.650627 
L 238.97133 462.472469 
L 241.308552 462.472469 
L 241.642441 464.153565 
L 243.979664 464.153565 
L 244.313553 465.704787 
L 246.650776 465.704787 
L 246.984665 467.136168 
L 249.321887 467.136168 
L 249.655776 468.456968 
L 251.992999 468.456968 
L 252.326888 469.675729 
L 254.664111 469.675729 
L 254.998 470.800335 
L 257.335222 470.800335 
L 257.669111 471.838058 
L 260.006334 471.838058 
L 260.340223 472.795612 
L 262.677446 472.795612 
L 263.011335 473.67919 
L 265.348558 473.67919 
L 265.682446 474.494507 
L 268.019669 474.494507 
L 268.353558 475.246836 
L 270.690781 475.246836 
L 271.02467 475.941044 
L 273.361893 475.941044 
L 273.695782 476.58162 
L 276.033004 476.58162 
L 276.366893 477.172709 
L 278.704116 477.172709 
L 279.038005 477.718133 
L 281.375228 477.718133 
L 281.709117 478.22142 
L 284.046339 478.22142 
L 284.380228 478.685825 
L 286.717451 478.685825 
L 287.05134 479.114353 
L 289.388563 479.114353 
L 289.722452 479.509774 
L 292.059674 479.509774 
L 292.393563 479.874648 
L 294.730786 479.874648 
L 295.064675 480.211332 
L 297.401898 480.211332 
L 297.735787 480.522007 
L 300.073009 480.522007 
L 300.406898 480.808679 
L 302.744121 480.808679 
L 303.07801 481.073205 
L 305.415233 481.073205 
L 305.749122 481.317295 
L 308.086344 481.317295 
L 308.420233 481.542528 
L 310.757456 481.542528 
L 311.091345 481.75036 
L 313.428568 481.75036 
L 313.762457 481.942136 
L 316.099679 481.942136 
L 316.433568 482.119096 
L 318.770791 482.119096 
L 319.10468 482.282386 
L 321.441903 482.282386 
L 321.775792 482.43306 
L 324.113014 482.43306 
L 324.446903 482.572094 
L 326.784126 482.572094 
L 327.118015 482.700386 
L 329.455238 482.700386 
L 329.789127 482.818768 
L 334.797461 482.928004 
L 335.465239 483.028801 
L 340.139685 483.12181 
L 340.807462 483.207635 
L 345.481908 483.286828 
L 346.149686 483.359904 
L 350.824131 483.427334 
L 351.491909 483.489555 
L 358.837466 483.599948 
L 359.839133 483.648833 
L 366.850801 483.735566 
L 367.852468 483.773975 
L 377.535248 483.872295 
L 379.204693 483.900141 
L 393.561918 484.010236 
L 395.899141 484.027425 
L 420.273035 484.133157 
L 425.949147 484.154497 
L 871.690909 484.232727 
L 871.690909 484.232727 
" style="fill:none;stroke:#bfbbd9;stroke-linecap:square;stroke-width:1.5;"/>
   </g>
   <g id="patch_3">
    <path d="M 126 504 
L 126 69.12 
" style="fill:none;stroke:#ffffff;stroke-linecap:square;stroke-linejoin:miter;stroke-width:0.8;"/>
   </g>
   <g id="patch_4">
    <path d="M 907.2 504 
L 907.2 69.12 
" style="fill:none;stroke:#ffffff;stroke-linecap:square;stroke-linejoin:miter;stroke-width:0.8;"/>
   </g>
   <g id="patch_5">
    <path d="M 126 504 
L 907.2 504 
" style="fill:none;stroke:#ffffff;stroke-linecap:square;stroke-linejoin:miter;stroke-width:0.8;"/>
   </g>
   <g id="patch_6">
    <path d="M 126 69.12 
L 907.2 69.12 
" style="fill:none;stroke:#ffffff;stroke-linecap:square;stroke-linejoin:miter;stroke-width:0.8;"/>
   </g>
   <g id="text_14">
    <!-- instance 8 with error 0.008240411714250717 -->
    <g style="fill:#ffffff;" transform="translate(378.046875 63.12)scale(0.12 -0.12)">
     <defs>
      <path d="M 2834 3397 
L 2834 2853 
Q 2591 2978 2328 3040 
Q 2066 3103 1784 3103 
Q 1356 3103 1142 2972 
Q 928 2841 928 2578 
Q 928 2378 1081 2264 
Q 1234 2150 1697 2047 
L 1894 2003 
Q 2506 1872 2764 1633 
Q 3022 1394 3022 966 
Q 3022 478 2636 193 
Q 2250 -91 1575 -91 
Q 1294 -91 989 -36 
Q 684 19 347 128 
L 347 722 
Q 666 556 975 473 
Q 1284 391 1588 391 
Q 1994 391 2212 530 
Q 2431 669 2431 922 
Q 2431 1156 2273 1281 
Q 2116 1406 1581 1522 
L 1381 1569 
Q 847 1681 609 1914 
Q 372 2147 372 2553 
Q 372 3047 722 3315 
Q 1072 3584 1716 3584 
Q 2034 3584 2315 3537 
Q 2597 3491 2834 3397 
z
" id="DejaVuSans-73" transform="scale(0.015625)"/>
      <path d="M 3122 3366 
L 3122 2828 
Q 2878 2963 2633 3030 
Q 2388 3097 2138 3097 
Q 1578 3097 1268 2742 
Q 959 2388 959 1747 
Q 959 1106 1268 751 
Q 1578 397 2138 397 
Q 2388 397 2633 464 
Q 2878 531 3122 666 
L 3122 134 
Q 2881 22 2623 -34 
Q 2366 -91 2075 -91 
Q 1284 -91 818 406 
Q 353 903 353 1747 
Q 353 2603 823 3093 
Q 1294 3584 2113 3584 
Q 2378 3584 2631 3529 
Q 2884 3475 3122 3366 
z
" id="DejaVuSans-63" transform="scale(0.015625)"/>
      <path id="DejaVuSans-20" transform="scale(0.015625)"/>
      <path d="M 2034 2216 
Q 1584 2216 1326 1975 
Q 1069 1734 1069 1313 
Q 1069 891 1326 650 
Q 1584 409 2034 409 
Q 2484 409 2743 651 
Q 3003 894 3003 1313 
Q 3003 1734 2745 1975 
Q 2488 2216 2034 2216 
z
M 1403 2484 
Q 997 2584 770 2862 
Q 544 3141 544 3541 
Q 544 4100 942 4425 
Q 1341 4750 2034 4750 
Q 2731 4750 3128 4425 
Q 3525 4100 3525 3541 
Q 3525 3141 3298 2862 
Q 3072 2584 2669 2484 
Q 3125 2378 3379 2068 
Q 3634 1759 3634 1313 
Q 3634 634 3220 271 
Q 2806 -91 2034 -91 
Q 1263 -91 848 271 
Q 434 634 434 1313 
Q 434 1759 690 2068 
Q 947 2378 1403 2484 
z
M 1172 3481 
Q 1172 3119 1398 2916 
Q 1625 2713 2034 2713 
Q 2441 2713 2670 2916 
Q 2900 3119 2900 3481 
Q 2900 3844 2670 4047 
Q 2441 4250 2034 4250 
Q 1625 4250 1398 4047 
Q 1172 3844 1172 3481 
z
" id="DejaVuSans-38" transform="scale(0.015625)"/>
      <path d="M 269 3500 
L 844 3500 
L 1563 769 
L 2278 3500 
L 2956 3500 
L 3675 769 
L 4391 3500 
L 4966 3500 
L 4050 0 
L 3372 0 
L 2619 2869 
L 1863 0 
L 1184 0 
L 269 3500 
z
" id="DejaVuSans-77" transform="scale(0.015625)"/>
      <path d="M 3513 2113 
L 3513 0 
L 2938 0 
L 2938 2094 
Q 2938 2591 2744 2837 
Q 2550 3084 2163 3084 
Q 1697 3084 1428 2787 
Q 1159 2491 1159 1978 
L 1159 0 
L 581 0 
L 581 4863 
L 1159 4863 
L 1159 2956 
Q 1366 3272 1645 3428 
Q 1925 3584 2291 3584 
Q 2894 3584 3203 3211 
Q 3513 2838 3513 2113 
z
" id="DejaVuSans-68" transform="scale(0.015625)"/>
      <path d="M 684 794 
L 1344 794 
L 1344 0 
L 684 0 
L 684 794 
z
" id="DejaVuSans-2e" transform="scale(0.015625)"/>
      <path d="M 2419 4116 
L 825 1625 
L 2419 1625 
L 2419 4116 
z
M 2253 4666 
L 3047 4666 
L 3047 1625 
L 3713 1625 
L 3713 1100 
L 3047 1100 
L 3047 0 
L 2419 0 
L 2419 1100 
L 313 1100 
L 313 1709 
L 2253 4666 
z
" id="DejaVuSans-34" transform="scale(0.015625)"/>
      <path d="M 525 4666 
L 3525 4666 
L 3525 4397 
L 1831 0 
L 1172 0 
L 2766 4134 
L 525 4134 
L 525 4666 
z
" id="DejaVuSans-37" transform="scale(0.015625)"/>
     </defs>
     <use xlink:href="#DejaVuSans-69"/>
     <use x="27.783203" xlink:href="#DejaVuSans-6e"/>
     <use x="91.162109" xlink:href="#DejaVuSans-73"/>
     <use x="143.261719" xlink:href="#DejaVuSans-74"/>
     <use x="182.470703" xlink:href="#DejaVuSans-61"/>
     <use x="243.75" xlink:href="#DejaVuSans-6e"/>
     <use x="307.128906" xlink:href="#DejaVuSans-63"/>
     <use x="362.109375" xlink:href="#DejaVuSans-65"/>
     <use x="423.632812" xlink:href="#DejaVuSans-20"/>
     <use x="455.419922" xlink:href="#DejaVuSans-38"/>
     <use x="519.042969" xlink:href="#DejaVuSans-20"/>
     <use x="550.830078" xlink:href="#DejaVuSans-77"/>
     <use x="632.617188" xlink:href="#DejaVuSans-69"/>
     <use x="660.400391" xlink:href="#DejaVuSans-74"/>
     <use x="699.609375" xlink:href="#DejaVuSans-68"/>
     <use x="762.988281" xlink:href="#DejaVuSans-20"/>
     <use x="794.775391" xlink:href="#DejaVuSans-65"/>
     <use x="856.298828" xlink:href="#DejaVuSans-72"/>
     <use x="895.662109" xlink:href="#DejaVuSans-72"/>
     <use x="934.525391" xlink:href="#DejaVuSans-6f"/>
     <use x="995.707031" xlink:href="#DejaVuSans-72"/>
     <use x="1036.820312" xlink:href="#DejaVuSans-20"/>
     <use x="1068.607422" xlink:href="#DejaVuSans-30"/>
     <use x="1132.230469" xlink:href="#DejaVuSans-2e"/>
     <use x="1164.017578" xlink:href="#DejaVuSans-30"/>
     <use x="1227.640625" xlink:href="#DejaVuSans-30"/>
     <use x="1291.263672" xlink:href="#DejaVuSans-38"/>
     <use x="1354.886719" xlink:href="#DejaVuSans-32"/>
     <use x="1418.509766" xlink:href="#DejaVuSans-34"/>
     <use x="1482.132812" xlink:href="#DejaVuSans-30"/>
     <use x="1545.755859" xlink:href="#DejaVuSans-34"/>
     <use x="1609.378906" xlink:href="#DejaVuSans-31"/>
     <use x="1673.001953" xlink:href="#DejaVuSans-31"/>
     <use x="1736.625" xlink:href="#DejaVuSans-37"/>
     <use x="1800.248047" xlink:href="#DejaVuSans-31"/>
     <use x="1863.871094" xlink:href="#DejaVuSans-34"/>
     <use x="1927.494141" xlink:href="#DejaVuSans-32"/>
     <use x="1991.117188" xlink:href="#DejaVuSans-35"/>
     <use x="2054.740234" xlink:href="#DejaVuSans-30"/>
     <use x="2118.363281" xlink:href="#DejaVuSans-37"/>
     <use x="2181.986328" xlink:href="#DejaVuSans-31"/>
     <use x="2245.609375" xlink:href="#DejaVuSans-37"/>
    </g>
   </g>
   <g id="legend_1">
    <g id="patch_7">
     <path d="M 805.348438 499 
L 900.2 499 
Q 902.2 499 902.2 497 
L 902.2 453.965625 
Q 902.2 451.965625 900.2 451.965625 
L 805.348438 451.965625 
Q 803.348438 451.965625 803.348438 453.965625 
L 803.348438 497 
Q 803.348438 499 805.348438 499 
z
" style="opacity:0.8;stroke:#cccccc;stroke-linejoin:miter;"/>
    </g>
    <g id="line2d_16">
     <path d="M 807.348438 460.064062 
L 827.348438 460.064062 
" style="fill:none;stroke:#8dd3c7;stroke-linecap:square;stroke-width:1.5;"/>
    </g>
    <g id="line2d_17"/>
    <g id="text_15">
     <!-- cost -->
     <g style="fill:#ffffff;" transform="translate(835.348438 463.564062)scale(0.1 -0.1)">
      <use xlink:href="#DejaVuSans-63"/>
      <use x="54.980469" xlink:href="#DejaVuSans-6f"/>
      <use x="116.162109" xlink:href="#DejaVuSans-73"/>
      <use x="168.261719" xlink:href="#DejaVuSans-74"/>
     </g>
    </g>
    <g id="line2d_18">
     <path d="M 807.348438 474.742188 
L 827.348438 474.742188 
" style="fill:none;stroke:#feffb3;stroke-linecap:square;stroke-width:1.5;"/>
    </g>
    <g id="line2d_19"/>
    <g id="text_16">
     <!-- best cost -->
     <g style="fill:#ffffff;" transform="translate(835.348438 478.242188)scale(0.1 -0.1)">
      <defs>
       <path d="M 3116 1747 
Q 3116 2381 2855 2742 
Q 2594 3103 2138 3103 
Q 1681 3103 1420 2742 
Q 1159 2381 1159 1747 
Q 1159 1113 1420 752 
Q 1681 391 2138 391 
Q 2594 391 2855 752 
Q 3116 1113 3116 1747 
z
M 1159 2969 
Q 1341 3281 1617 3432 
Q 1894 3584 2278 3584 
Q 2916 3584 3314 3078 
Q 3713 2572 3713 1747 
Q 3713 922 3314 415 
Q 2916 -91 2278 -91 
Q 1894 -91 1617 61 
Q 1341 213 1159 525 
L 1159 0 
L 581 0 
L 581 4863 
L 1159 4863 
L 1159 2969 
z
" id="DejaVuSans-62" transform="scale(0.015625)"/>
      </defs>
      <use xlink:href="#DejaVuSans-62"/>
      <use x="63.476562" xlink:href="#DejaVuSans-65"/>
      <use x="125" xlink:href="#DejaVuSans-73"/>
      <use x="177.099609" xlink:href="#DejaVuSans-74"/>
      <use x="216.308594" xlink:href="#DejaVuSans-20"/>
      <use x="248.095703" xlink:href="#DejaVuSans-63"/>
      <use x="303.076172" xlink:href="#DejaVuSans-6f"/>
      <use x="364.257812" xlink:href="#DejaVuSans-73"/>
      <use x="416.357422" xlink:href="#DejaVuSans-74"/>
     </g>
    </g>
    <g id="line2d_20">
     <path d="M 807.348438 489.420313 
L 827.348438 489.420313 
" style="fill:none;stroke:#bfbbd9;stroke-linecap:square;stroke-width:1.5;"/>
    </g>
    <g id="line2d_21"/>
    <g id="text_17">
     <!-- temperature -->
     <g style="fill:#ffffff;" transform="translate(835.348438 492.920313)scale(0.1 -0.1)">
      <defs>
       <path d="M 3328 2828 
Q 3544 3216 3844 3400 
Q 4144 3584 4550 3584 
Q 5097 3584 5394 3201 
Q 5691 2819 5691 2113 
L 5691 0 
L 5113 0 
L 5113 2094 
Q 5113 2597 4934 2840 
Q 4756 3084 4391 3084 
Q 3944 3084 3684 2787 
Q 3425 2491 3425 1978 
L 3425 0 
L 2847 0 
L 2847 2094 
Q 2847 2600 2669 2842 
Q 2491 3084 2119 3084 
Q 1678 3084 1418 2786 
Q 1159 2488 1159 1978 
L 1159 0 
L 581 0 
L 581 3500 
L 1159 3500 
L 1159 2956 
Q 1356 3278 1631 3431 
Q 1906 3584 2284 3584 
Q 2666 3584 2933 3390 
Q 3200 3197 3328 2828 
z
" id="DejaVuSans-6d" transform="scale(0.015625)"/>
       <path d="M 1159 525 
L 1159 -1331 
L 581 -1331 
L 581 3500 
L 1159 3500 
L 1159 2969 
Q 1341 3281 1617 3432 
Q 1894 3584 2278 3584 
Q 2916 3584 3314 3078 
Q 3713 2572 3713 1747 
Q 3713 922 3314 415 
Q 2916 -91 2278 -91 
Q 1894 -91 1617 61 
Q 1341 213 1159 525 
z
M 3116 1747 
Q 3116 2381 2855 2742 
Q 2594 3103 2138 3103 
Q 1681 3103 1420 2742 
Q 1159 2381 1159 1747 
Q 1159 1113 1420 752 
Q 1681 391 2138 391 
Q 2594 391 2855 752 
Q 3116 1113 3116 1747 
z
" id="DejaVuSans-70" transform="scale(0.015625)"/>
       <path d="M 544 1381 
L 544 3500 
L 1119 3500 
L 1119 1403 
Q 1119 906 1312 657 
Q 1506 409 1894 409 
Q 2359 409 2629 706 
Q 2900 1003 2900 1516 
L 2900 3500 
L 3475 3500 
L 3475 0 
L 2900 0 
L 2900 538 
Q 2691 219 2414 64 
Q 2138 -91 1772 -91 
Q 1169 -91 856 284 
Q 544 659 544 1381 
z
M 1991 3584 
L 1991 3584 
z
" id="DejaVuSans-75" transform="scale(0.015625)"/>
      </defs>
      <use xlink:href="#DejaVuSans-74"/>
      <use x="39.208984" xlink:href="#DejaVuSans-65"/>
      <use x="100.732422" xlink:href="#DejaVuSans-6d"/>
      <use x="198.144531" xlink:href="#DejaVuSans-70"/>
      <use x="261.621094" xlink:href="#DejaVuSans-65"/>
      <use x="323.144531" xlink:href="#DejaVuSans-72"/>
      <use x="364.257812" xlink:href="#DejaVuSans-61"/>
      <use x="425.537109" xlink:href="#DejaVuSans-74"/>
      <use x="464.746094" xlink:href="#DejaVuSans-75"/>
      <use x="528.125" xlink:href="#DejaVuSans-72"/>
      <use x="566.988281" xlink:href="#DejaVuSans-65"/>
     </g>
    </g>
   </g>
  </g>
 </g>
 <defs>
  <clipPath id="p61c7db7174">
   <rect height="434.88" width="781.2" x="126" y="69.12"/>
  </clipPath>
 </defs>
</svg>
