<?xml version="1.0" encoding="utf-8" standalone="no"?>
<!DOCTYPE svg PUBLIC "-//W3C//DTD SVG 1.1//EN"
  "http://www.w3.org/Graphics/SVG/1.1/DTD/svg11.dtd">
<svg height="576pt" version="1.1" viewBox="0 0 1008 576" width="1008pt" xmlns="http://www.w3.org/2000/svg" xmlns:xlink="http://www.w3.org/1999/xlink">
 <metadata>
  <rdf:RDF xmlns:cc="http://creativecommons.org/ns#" xmlns:dc="http://purl.org/dc/elements/1.1/" xmlns:rdf="http://www.w3.org/1999/02/22-rdf-syntax-ns#">
   <cc:Work>
    <dc:type rdf:resource="http://purl.org/dc/dcmitype/StillImage"/>
    <dc:date>2022-01-07T00:38:46.081551</dc:date>
    <dc:format>image/svg+xml</dc:format>
    <dc:creator>
     <cc:Agent>
      <dc:title>Matplotlib v3.4.3, https://matplotlib.org/</dc:title>
     </cc:Agent>
    </dc:creator>
   </cc:Work>
  </rdf:RDF>
 </metadata>
 <defs>
  <style type="text/css">*{stroke-linecap:butt;stroke-linejoin:round;}</style>
 </defs>
 <g id="figure_1">
  <g id="patch_1">
   <path d="M 0 576 
L 1008 576 
L 1008 0 
L 0 0 
z
"/>
  </g>
  <g id="axes_1">
   <g id="patch_2">
    <path d="M 126 504 
L 907.2 504 
L 907.2 69.12 
L 126 69.12 
z
"/>
   </g>
   <g id="matplotlib.axis_1">
    <g id="xtick_1">
     <g id="line2d_1">
      <defs>
       <path d="M 0 0 
L 0 3.5 
" id="mf8b77457fe" style="stroke:#ffffff;stroke-width:0.8;"/>
      </defs>
      <g>
       <use style="fill:#ffffff;stroke:#ffffff;stroke-width:0.8;" x="161.509091" xlink:href="#mf8b77457fe" y="504"/>
      </g>
     </g>
     <g id="text_1">
      <!-- 0 -->
      <g style="fill:#ffffff;" transform="translate(158.327841 518.598438)scale(0.1 -0.1)">
       <defs>
        <path d="M 2034 4250 
Q 1547 4250 1301 3770 
Q 1056 3291 1056 2328 
Q 1056 1369 1301 889 
Q 1547 409 2034 409 
Q 2525 409 2770 889 
Q 3016 1369 3016 2328 
Q 3016 3291 2770 3770 
Q 2525 4250 2034 4250 
z
M 2034 4750 
Q 2819 4750 3233 4129 
Q 3647 3509 3647 2328 
Q 3647 1150 3233 529 
Q 2819 -91 2034 -91 
Q 1250 -91 836 529 
Q 422 1150 422 2328 
Q 422 3509 836 4129 
Q 1250 4750 2034 4750 
z
" id="DejaVuSans-30" transform="scale(0.015625)"/>
       </defs>
       <use xlink:href="#DejaVuSans-30"/>
      </g>
     </g>
    </g>
    <g id="xtick_2">
     <g id="line2d_2">
      <g>
       <use style="fill:#ffffff;stroke:#ffffff;stroke-width:0.8;" x="308.059198" xlink:href="#mf8b77457fe" y="504"/>
      </g>
     </g>
     <g id="text_2">
      <!-- 500 -->
      <g style="fill:#ffffff;" transform="translate(298.515448 518.598438)scale(0.1 -0.1)">
       <defs>
        <path d="M 691 4666 
L 3169 4666 
L 3169 4134 
L 1269 4134 
L 1269 2991 
Q 1406 3038 1543 3061 
Q 1681 3084 1819 3084 
Q 2600 3084 3056 2656 
Q 3513 2228 3513 1497 
Q 3513 744 3044 326 
Q 2575 -91 1722 -91 
Q 1428 -91 1123 -41 
Q 819 9 494 109 
L 494 744 
Q 775 591 1075 516 
Q 1375 441 1709 441 
Q 2250 441 2565 725 
Q 2881 1009 2881 1497 
Q 2881 1984 2565 2268 
Q 2250 2553 1709 2553 
Q 1456 2553 1204 2497 
Q 953 2441 691 2322 
L 691 4666 
z
" id="DejaVuSans-35" transform="scale(0.015625)"/>
       </defs>
       <use xlink:href="#DejaVuSans-35"/>
       <use x="63.623047" xlink:href="#DejaVuSans-30"/>
       <use x="127.246094" xlink:href="#DejaVuSans-30"/>
      </g>
     </g>
    </g>
    <g id="xtick_3">
     <g id="line2d_3">
      <g>
       <use style="fill:#ffffff;stroke:#ffffff;stroke-width:0.8;" x="454.609305" xlink:href="#mf8b77457fe" y="504"/>
      </g>
     </g>
     <g id="text_3">
      <!-- 1000 -->
      <g style="fill:#ffffff;" transform="translate(441.884305 518.598438)scale(0.1 -0.1)">
       <defs>
        <path d="M 794 531 
L 1825 531 
L 1825 4091 
L 703 3866 
L 703 4441 
L 1819 4666 
L 2450 4666 
L 2450 531 
L 3481 531 
L 3481 0 
L 794 0 
L 794 531 
z
" id="DejaVuSans-31" transform="scale(0.015625)"/>
       </defs>
       <use xlink:href="#DejaVuSans-31"/>
       <use x="63.623047" xlink:href="#DejaVuSans-30"/>
       <use x="127.246094" xlink:href="#DejaVuSans-30"/>
       <use x="190.869141" xlink:href="#DejaVuSans-30"/>
      </g>
     </g>
    </g>
    <g id="xtick_4">
     <g id="line2d_4">
      <g>
       <use style="fill:#ffffff;stroke:#ffffff;stroke-width:0.8;" x="601.159412" xlink:href="#mf8b77457fe" y="504"/>
      </g>
     </g>
     <g id="text_4">
      <!-- 1500 -->
      <g style="fill:#ffffff;" transform="translate(588.434412 518.598438)scale(0.1 -0.1)">
       <use xlink:href="#DejaVuSans-31"/>
       <use x="63.623047" xlink:href="#DejaVuSans-35"/>
       <use x="127.246094" xlink:href="#DejaVuSans-30"/>
       <use x="190.869141" xlink:href="#DejaVuSans-30"/>
      </g>
     </g>
    </g>
    <g id="xtick_5">
     <g id="line2d_5">
      <g>
       <use style="fill:#ffffff;stroke:#ffffff;stroke-width:0.8;" x="747.709519" xlink:href="#mf8b77457fe" y="504"/>
      </g>
     </g>
     <g id="text_5">
      <!-- 2000 -->
      <g style="fill:#ffffff;" transform="translate(734.984519 518.598438)scale(0.1 -0.1)">
       <defs>
        <path d="M 1228 531 
L 3431 531 
L 3431 0 
L 469 0 
L 469 531 
Q 828 903 1448 1529 
Q 2069 2156 2228 2338 
Q 2531 2678 2651 2914 
Q 2772 3150 2772 3378 
Q 2772 3750 2511 3984 
Q 2250 4219 1831 4219 
Q 1534 4219 1204 4116 
Q 875 4013 500 3803 
L 500 4441 
Q 881 4594 1212 4672 
Q 1544 4750 1819 4750 
Q 2544 4750 2975 4387 
Q 3406 4025 3406 3419 
Q 3406 3131 3298 2873 
Q 3191 2616 2906 2266 
Q 2828 2175 2409 1742 
Q 1991 1309 1228 531 
z
" id="DejaVuSans-32" transform="scale(0.015625)"/>
       </defs>
       <use xlink:href="#DejaVuSans-32"/>
       <use x="63.623047" xlink:href="#DejaVuSans-30"/>
       <use x="127.246094" xlink:href="#DejaVuSans-30"/>
       <use x="190.869141" xlink:href="#DejaVuSans-30"/>
      </g>
     </g>
    </g>
    <g id="xtick_6">
     <g id="line2d_6">
      <g>
       <use style="fill:#ffffff;stroke:#ffffff;stroke-width:0.8;" x="894.259626" xlink:href="#mf8b77457fe" y="504"/>
      </g>
     </g>
     <g id="text_6">
      <!-- 2500 -->
      <g style="fill:#ffffff;" transform="translate(881.534626 518.598438)scale(0.1 -0.1)">
       <use xlink:href="#DejaVuSans-32"/>
       <use x="63.623047" xlink:href="#DejaVuSans-35"/>
       <use x="127.246094" xlink:href="#DejaVuSans-30"/>
       <use x="190.869141" xlink:href="#DejaVuSans-30"/>
      </g>
     </g>
    </g>
    <g id="text_7">
     <!-- iteration -->
     <g style="fill:#ffffff;" transform="translate(495.477344 532.276562)scale(0.1 -0.1)">
      <defs>
       <path d="M 603 3500 
L 1178 3500 
L 1178 0 
L 603 0 
L 603 3500 
z
M 603 4863 
L 1178 4863 
L 1178 4134 
L 603 4134 
L 603 4863 
z
" id="DejaVuSans-69" transform="scale(0.015625)"/>
       <path d="M 1172 4494 
L 1172 3500 
L 2356 3500 
L 2356 3053 
L 1172 3053 
L 1172 1153 
Q 1172 725 1289 603 
Q 1406 481 1766 481 
L 2356 481 
L 2356 0 
L 1766 0 
Q 1100 0 847 248 
Q 594 497 594 1153 
L 594 3053 
L 172 3053 
L 172 3500 
L 594 3500 
L 594 4494 
L 1172 4494 
z
" id="DejaVuSans-74" transform="scale(0.015625)"/>
       <path d="M 3597 1894 
L 3597 1613 
L 953 1613 
Q 991 1019 1311 708 
Q 1631 397 2203 397 
Q 2534 397 2845 478 
Q 3156 559 3463 722 
L 3463 178 
Q 3153 47 2828 -22 
Q 2503 -91 2169 -91 
Q 1331 -91 842 396 
Q 353 884 353 1716 
Q 353 2575 817 3079 
Q 1281 3584 2069 3584 
Q 2775 3584 3186 3129 
Q 3597 2675 3597 1894 
z
M 3022 2063 
Q 3016 2534 2758 2815 
Q 2500 3097 2075 3097 
Q 1594 3097 1305 2825 
Q 1016 2553 972 2059 
L 3022 2063 
z
" id="DejaVuSans-65" transform="scale(0.015625)"/>
       <path d="M 2631 2963 
Q 2534 3019 2420 3045 
Q 2306 3072 2169 3072 
Q 1681 3072 1420 2755 
Q 1159 2438 1159 1844 
L 1159 0 
L 581 0 
L 581 3500 
L 1159 3500 
L 1159 2956 
Q 1341 3275 1631 3429 
Q 1922 3584 2338 3584 
Q 2397 3584 2469 3576 
Q 2541 3569 2628 3553 
L 2631 2963 
z
" id="DejaVuSans-72" transform="scale(0.015625)"/>
       <path d="M 2194 1759 
Q 1497 1759 1228 1600 
Q 959 1441 959 1056 
Q 959 750 1161 570 
Q 1363 391 1709 391 
Q 2188 391 2477 730 
Q 2766 1069 2766 1631 
L 2766 1759 
L 2194 1759 
z
M 3341 1997 
L 3341 0 
L 2766 0 
L 2766 531 
Q 2569 213 2275 61 
Q 1981 -91 1556 -91 
Q 1019 -91 701 211 
Q 384 513 384 1019 
Q 384 1609 779 1909 
Q 1175 2209 1959 2209 
L 2766 2209 
L 2766 2266 
Q 2766 2663 2505 2880 
Q 2244 3097 1772 3097 
Q 1472 3097 1187 3025 
Q 903 2953 641 2809 
L 641 3341 
Q 956 3463 1253 3523 
Q 1550 3584 1831 3584 
Q 2591 3584 2966 3190 
Q 3341 2797 3341 1997 
z
" id="DejaVuSans-61" transform="scale(0.015625)"/>
       <path d="M 1959 3097 
Q 1497 3097 1228 2736 
Q 959 2375 959 1747 
Q 959 1119 1226 758 
Q 1494 397 1959 397 
Q 2419 397 2687 759 
Q 2956 1122 2956 1747 
Q 2956 2369 2687 2733 
Q 2419 3097 1959 3097 
z
M 1959 3584 
Q 2709 3584 3137 3096 
Q 3566 2609 3566 1747 
Q 3566 888 3137 398 
Q 2709 -91 1959 -91 
Q 1206 -91 779 398 
Q 353 888 353 1747 
Q 353 2609 779 3096 
Q 1206 3584 1959 3584 
z
" id="DejaVuSans-6f" transform="scale(0.015625)"/>
       <path d="M 3513 2113 
L 3513 0 
L 2938 0 
L 2938 2094 
Q 2938 2591 2744 2837 
Q 2550 3084 2163 3084 
Q 1697 3084 1428 2787 
Q 1159 2491 1159 1978 
L 1159 0 
L 581 0 
L 581 3500 
L 1159 3500 
L 1159 2956 
Q 1366 3272 1645 3428 
Q 1925 3584 2291 3584 
Q 2894 3584 3203 3211 
Q 3513 2838 3513 2113 
z
" id="DejaVuSans-6e" transform="scale(0.015625)"/>
      </defs>
      <use xlink:href="#DejaVuSans-69"/>
      <use x="27.783203" xlink:href="#DejaVuSans-74"/>
      <use x="66.992188" xlink:href="#DejaVuSans-65"/>
      <use x="128.515625" xlink:href="#DejaVuSans-72"/>
      <use x="169.628906" xlink:href="#DejaVuSans-61"/>
      <use x="230.908203" xlink:href="#DejaVuSans-74"/>
      <use x="270.117188" xlink:href="#DejaVuSans-69"/>
      <use x="297.900391" xlink:href="#DejaVuSans-6f"/>
      <use x="359.082031" xlink:href="#DejaVuSans-6e"/>
     </g>
    </g>
   </g>
   <g id="matplotlib.axis_2">
    <g id="ytick_1">
     <g id="line2d_7">
      <defs>
       <path d="M 0 0 
L -3.5 0 
" id="m298a909fa1" style="stroke:#ffffff;stroke-width:0.8;"/>
      </defs>
      <g>
       <use style="fill:#ffffff;stroke:#ffffff;stroke-width:0.8;" x="126" xlink:href="#m298a909fa1" y="484.232727"/>
      </g>
     </g>
     <g id="text_8">
      <!-- 0 -->
      <g style="fill:#ffffff;" transform="translate(112.6375 488.031946)scale(0.1 -0.1)">
       <use xlink:href="#DejaVuSans-30"/>
      </g>
     </g>
    </g>
    <g id="ytick_2">
     <g id="line2d_8">
      <g>
       <use style="fill:#ffffff;stroke:#ffffff;stroke-width:0.8;" x="126" xlink:href="#m298a909fa1" y="434.499986"/>
      </g>
     </g>
     <g id="text_9">
      <!-- 5000 -->
      <g style="fill:#ffffff;" transform="translate(93.55 438.299205)scale(0.1 -0.1)">
       <use xlink:href="#DejaVuSans-35"/>
       <use x="63.623047" xlink:href="#DejaVuSans-30"/>
       <use x="127.246094" xlink:href="#DejaVuSans-30"/>
       <use x="190.869141" xlink:href="#DejaVuSans-30"/>
      </g>
     </g>
    </g>
    <g id="ytick_3">
     <g id="line2d_9">
      <g>
       <use style="fill:#ffffff;stroke:#ffffff;stroke-width:0.8;" x="126" xlink:href="#m298a909fa1" y="384.767245"/>
      </g>
     </g>
     <g id="text_10">
      <!-- 10000 -->
      <g style="fill:#ffffff;" transform="translate(87.1875 388.566463)scale(0.1 -0.1)">
       <use xlink:href="#DejaVuSans-31"/>
       <use x="63.623047" xlink:href="#DejaVuSans-30"/>
       <use x="127.246094" xlink:href="#DejaVuSans-30"/>
       <use x="190.869141" xlink:href="#DejaVuSans-30"/>
       <use x="254.492188" xlink:href="#DejaVuSans-30"/>
      </g>
     </g>
    </g>
    <g id="ytick_4">
     <g id="line2d_10">
      <g>
       <use style="fill:#ffffff;stroke:#ffffff;stroke-width:0.8;" x="126" xlink:href="#m298a909fa1" y="335.034503"/>
      </g>
     </g>
     <g id="text_11">
      <!-- 15000 -->
      <g style="fill:#ffffff;" transform="translate(87.1875 338.833722)scale(0.1 -0.1)">
       <use xlink:href="#DejaVuSans-31"/>
       <use x="63.623047" xlink:href="#DejaVuSans-35"/>
       <use x="127.246094" xlink:href="#DejaVuSans-30"/>
       <use x="190.869141" xlink:href="#DejaVuSans-30"/>
       <use x="254.492188" xlink:href="#DejaVuSans-30"/>
      </g>
     </g>
    </g>
    <g id="ytick_5">
     <g id="line2d_11">
      <g>
       <use style="fill:#ffffff;stroke:#ffffff;stroke-width:0.8;" x="126" xlink:href="#m298a909fa1" y="285.301762"/>
      </g>
     </g>
     <g id="text_12">
      <!-- 20000 -->
      <g style="fill:#ffffff;" transform="translate(87.1875 289.10098)scale(0.1 -0.1)">
       <use xlink:href="#DejaVuSans-32"/>
       <use x="63.623047" xlink:href="#DejaVuSans-30"/>
       <use x="127.246094" xlink:href="#DejaVuSans-30"/>
       <use x="190.869141" xlink:href="#DejaVuSans-30"/>
       <use x="254.492188" xlink:href="#DejaVuSans-30"/>
      </g>
     </g>
    </g>
    <g id="ytick_6">
     <g id="line2d_12">
      <g>
       <use style="fill:#ffffff;stroke:#ffffff;stroke-width:0.8;" x="126" xlink:href="#m298a909fa1" y="235.56902"/>
      </g>
     </g>
     <g id="text_13">
      <!-- 25000 -->
      <g style="fill:#ffffff;" transform="translate(87.1875 239.368239)scale(0.1 -0.1)">
       <use xlink:href="#DejaVuSans-32"/>
       <use x="63.623047" xlink:href="#DejaVuSans-35"/>
       <use x="127.246094" xlink:href="#DejaVuSans-30"/>
       <use x="190.869141" xlink:href="#DejaVuSans-30"/>
       <use x="254.492188" xlink:href="#DejaVuSans-30"/>
      </g>
     </g>
    </g>
    <g id="ytick_7">
     <g id="line2d_13">
      <g>
       <use style="fill:#ffffff;stroke:#ffffff;stroke-width:0.8;" x="126" xlink:href="#m298a909fa1" y="185.836279"/>
      </g>
     </g>
     <g id="text_14">
      <!-- 30000 -->
      <g style="fill:#ffffff;" transform="translate(87.1875 189.635498)scale(0.1 -0.1)">
       <defs>
        <path d="M 2597 2516 
Q 3050 2419 3304 2112 
Q 3559 1806 3559 1356 
Q 3559 666 3084 287 
Q 2609 -91 1734 -91 
Q 1441 -91 1130 -33 
Q 819 25 488 141 
L 488 750 
Q 750 597 1062 519 
Q 1375 441 1716 441 
Q 2309 441 2620 675 
Q 2931 909 2931 1356 
Q 2931 1769 2642 2001 
Q 2353 2234 1838 2234 
L 1294 2234 
L 1294 2753 
L 1863 2753 
Q 2328 2753 2575 2939 
Q 2822 3125 2822 3475 
Q 2822 3834 2567 4026 
Q 2313 4219 1838 4219 
Q 1578 4219 1281 4162 
Q 984 4106 628 3988 
L 628 4550 
Q 988 4650 1302 4700 
Q 1616 4750 1894 4750 
Q 2613 4750 3031 4423 
Q 3450 4097 3450 3541 
Q 3450 3153 3228 2886 
Q 3006 2619 2597 2516 
z
" id="DejaVuSans-33" transform="scale(0.015625)"/>
       </defs>
       <use xlink:href="#DejaVuSans-33"/>
       <use x="63.623047" xlink:href="#DejaVuSans-30"/>
       <use x="127.246094" xlink:href="#DejaVuSans-30"/>
       <use x="190.869141" xlink:href="#DejaVuSans-30"/>
       <use x="254.492188" xlink:href="#DejaVuSans-30"/>
      </g>
     </g>
    </g>
    <g id="ytick_8">
     <g id="line2d_14">
      <g>
       <use style="fill:#ffffff;stroke:#ffffff;stroke-width:0.8;" x="126" xlink:href="#m298a909fa1" y="136.103537"/>
      </g>
     </g>
     <g id="text_15">
      <!-- 35000 -->
      <g style="fill:#ffffff;" transform="translate(87.1875 139.902756)scale(0.1 -0.1)">
       <use xlink:href="#DejaVuSans-33"/>
       <use x="63.623047" xlink:href="#DejaVuSans-35"/>
       <use x="127.246094" xlink:href="#DejaVuSans-30"/>
       <use x="190.869141" xlink:href="#DejaVuSans-30"/>
       <use x="254.492188" xlink:href="#DejaVuSans-30"/>
      </g>
     </g>
    </g>
    <g id="ytick_9">
     <g id="line2d_15">
      <g>
       <use style="fill:#ffffff;stroke:#ffffff;stroke-width:0.8;" x="126" xlink:href="#m298a909fa1" y="86.370796"/>
      </g>
     </g>
     <g id="text_16">
      <!-- 40000 -->
      <g style="fill:#ffffff;" transform="translate(87.1875 90.170015)scale(0.1 -0.1)">
       <defs>
        <path d="M 2419 4116 
L 825 1625 
L 2419 1625 
L 2419 4116 
z
M 2253 4666 
L 3047 4666 
L 3047 1625 
L 3713 1625 
L 3713 1100 
L 3047 1100 
L 3047 0 
L 2419 0 
L 2419 1100 
L 313 1100 
L 313 1709 
L 2253 4666 
z
" id="DejaVuSans-34" transform="scale(0.015625)"/>
       </defs>
       <use xlink:href="#DejaVuSans-34"/>
       <use x="63.623047" xlink:href="#DejaVuSans-30"/>
       <use x="127.246094" xlink:href="#DejaVuSans-30"/>
       <use x="190.869141" xlink:href="#DejaVuSans-30"/>
       <use x="254.492188" xlink:href="#DejaVuSans-30"/>
      </g>
     </g>
    </g>
   </g>
   <g id="line2d_16">
    <path clip-path="url(#pef0d738ab5)" d="M 161.509091 164.441253 
L 161.802191 195.703255 
L 162.095291 200.388079 
L 162.388392 186.094889 
L 162.681492 209.29024 
L 162.974592 203.272578 
L 163.267692 210.304788 
L 163.560792 224.876481 
L 163.853893 281.223677 
L 164.146993 296.362323 
L 164.440093 287.569575 
L 164.733193 291.727232 
L 165.026293 321.397785 
L 165.319394 327.992347 
L 165.612494 311.202573 
L 165.905594 320.671687 
L 166.198694 306.378498 
L 166.491795 323.168271 
L 166.784895 330.200481 
L 167.371095 291.677499 
L 167.664195 295.835156 
L 168.250396 261.778175 
L 168.543496 251.055796 
L 168.836596 267.845569 
L 169.129696 258.316776 
L 169.422797 264.871552 
L 169.715897 250.299858 
L 170.008997 254.497302 
L 170.595198 270.043757 
L 170.888298 255.750567 
L 171.181398 280.358327 
L 171.474498 286.127325 
L 171.767598 299.256769 
L 172.060699 293.487771 
L 172.353799 307.780961 
L 172.646899 329.444543 
L 173.233099 308.198716 
L 173.5262 289.966693 
L 173.8193 282.934483 
L 174.1124 298.779335 
L 174.4055 301.614101 
L 174.698601 288.484657 
L 175.284801 249.215685 
L 175.577901 259.898277 
L 176.164102 299.008105 
L 176.457202 288.325512 
L 176.750302 268.223538 
L 177.043402 292.592582 
L 177.336502 276.190723 
L 177.629603 280.348381 
L 177.922703 300.450355 
L 178.215803 285.878661 
L 178.508903 302.28052 
L 178.802004 299.445753 
L 179.095104 302.28052 
L 179.388204 315.409963 
L 179.681304 299.565112 
L 180.267505 253.074945 
L 180.560605 260.107155 
L 180.853705 276.896928 
L 181.439905 251.294513 
L 181.733006 263.767485 
L 182.026106 254.238691 
L 182.319206 235.121426 
L 182.612306 241.706041 
L 182.905407 257.550892 
L 183.198507 240.194165 
L 183.491607 237.359399 
L 183.784707 261.728442 
L 184.077807 257.570785 
L 184.664008 297.048635 
L 184.957108 310.178079 
L 185.250208 329.295345 
L 185.543308 309.193371 
L 185.836409 318.722164 
L 186.129509 306.249192 
L 186.422609 316.931785 
L 186.715709 310.337224 
L 187.00881 322.810195 
L 187.30191 316.22558 
L 187.59501 339.420931 
L 187.88811 326.947959 
L 188.18121 345.179982 
L 188.474311 337.123278 
L 188.767411 335.750655 
L 189.060511 311.142894 
L 189.353611 313.181937 
L 189.646711 317.339594 
L 189.939812 329.812565 
L 190.232912 308.148983 
L 190.526012 324.0933 
L 191.112213 371.18026 
L 191.405313 346.572499 
L 191.698413 368.236081 
L 191.991513 352.172406 
L 192.284613 327.803363 
L 192.577714 352.411123 
L 192.870814 341.72853 
L 193.163914 319.607407 
L 193.457014 313.052631 
L 193.750114 334.69632 
L 194.043215 333.323697 
L 194.336315 323.794904 
L 194.629415 348.163947 
L 194.922515 335.690975 
L 195.215616 140.271141 
L 195.508716 154.564331 
L 195.801816 148.039395 
L 196.094916 172.408439 
L 196.681117 156.29503 
L 196.974217 153.460264 
L 197.560417 192.052872 
L 197.853517 187.895214 
L 198.146618 204.684988 
L 198.439718 188.740671 
L 199.319018 235.031907 
L 199.612119 226.686753 
L 199.905219 209.896979 
L 200.198319 210.553451 
L 200.491419 200.258774 
L 200.78452 181.937232 
L 201.37072 217.525982 
L 201.66382 199.293959 
L 201.95692 205.848734 
L 202.250021 218.978178 
L 202.543121 204.684988 
L 202.836221 220.529839 
L 203.129321 243.72519 
L 203.422421 237.170415 
L 203.715522 255.402438 
L 204.008622 239.557586 
L 204.301722 255.959444 
L 204.887923 220.370694 
L 205.181023 213.776133 
L 205.474123 228.347826 
L 205.767223 225.51306 
L 206.060323 212.383616 
L 206.353424 215.218382 
L 206.646524 227.691354 
L 206.939624 213.119661 
L 207.232724 226.249105 
L 207.525824 210.185429 
L 207.818925 204.416431 
L 208.112025 213.945224 
L 208.405125 213.945224 
L 208.698225 197.543366 
L 209.284426 235.996722 
L 209.577526 222.867278 
L 209.870626 237.438971 
L 210.163726 229.382267 
L 210.749927 351.585559 
L 211.043027 353.1969 
L 211.336127 331.533318 
L 211.629227 324.859184 
L 211.922328 342.215911 
L 212.215428 348.810472 
L 212.508528 363.382166 
L 213.094729 333.433109 
L 213.387829 198.219731 
L 213.680929 221.415082 
L 213.974029 196.807322 
L 214.267129 212.652173 
L 214.56023 237.021216 
L 214.85333 221.176365 
L 215.14643 227.770926 
L 215.43953 247.872901 
L 215.73263 233.579711 
L 216.025731 246.052682 
L 216.318831 241.895025 
L 216.905031 229.322588 
L 217.198132 235.091586 
L 217.491232 221.962142 
L 217.784332 214.989612 
L 218.077432 221.007274 
L 218.370532 236.852125 
L 218.663633 212.483082 
L 218.956733 205.88852 
L 219.249833 204.277179 
L 219.542933 212.015594 
L 219.836033 234.494793 
L 220.129134 239.875876 
L 220.422234 223.086102 
L 221.887735 284.754702 
L 222.180835 268.810385 
L 222.473935 293.179428 
L 222.767036 248.270762 
L 223.060136 262.842456 
L 223.353236 249.713012 
L 223.646336 261.430046 
L 223.939436 268.462255 
L 224.232537 261.430046 
L 224.818737 290.404341 
L 225.111837 286.246684 
L 225.404938 264.12556 
L 225.698038 269.894558 
L 226.284238 234.713617 
L 226.577338 265.150055 
L 226.870439 250.856865 
L 227.163539 253.691631 
L 227.456639 268.323004 
L 227.749739 261.61903 
L 228.042839 278.975757 
L 228.33594 262.912082 
L 228.62904 269.884612 
L 228.92214 254.03976 
L 229.21524 269.984077 
L 229.508341 247.504878 
L 230.094541 280.109663 
L 230.387641 296.899437 
L 230.680741 280.109663 
L 230.973842 272.052959 
L 231.266942 294.532159 
L 231.560042 277.175432 
L 231.853142 287.858025 
L 232.146242 312.465785 
L 232.732443 267.756051 
L 233.611744 310.108453 
L 234.491044 292.811406 
L 234.784144 221.574227 
L 235.077245 216.024053 
L 235.663445 263.588447 
L 235.956545 247.743595 
L 236.249645 223.135835 
L 236.542746 208.842645 
L 236.835846 219.525238 
L 237.128946 212.930676 
L 237.422046 198.358983 
L 237.715147 207.778364 
L 238.008247 229.441947 
L 238.594447 194.270952 
L 239.180648 237.995978 
L 239.473748 215.516779 
L 239.766848 233.748802 
L 240.059948 221.27583 
L 240.353048 203.043807 
L 240.939249 236.812339 
L 241.232349 217.695073 
L 241.525449 224.667603 
L 241.81855 212.950569 
L 242.11165 196.160796 
L 242.40475 206.843389 
L 242.99095 240.532348 
L 243.284051 229.849755 
L 243.577151 252.328954 
L 243.870251 227.721194 
L 244.163351 244.510967 
L 244.749552 231.36163 
L 245.042652 240.890424 
L 245.335752 285.331601 
L 245.628852 282.496835 
L 245.921953 272.968042 
L 246.215053 271.953494 
L 246.508153 281.422608 
L 246.801253 274.837993 
L 247.094353 294.939967 
L 247.387454 305.62256 
L 247.680554 281.253517 
L 247.973654 302.917099 
L 248.559854 317.558418 
L 248.852955 303.265228 
L 249.439155 263.687912 
L 249.732255 283.789886 
L 250.025355 293.31868 
L 250.318456 273.216706 
L 250.611556 293.31868 
L 250.904656 305.791651 
L 251.197756 285.689677 
L 252.077057 331.801875 
L 252.370157 324.769665 
L 252.663257 302.648542 
L 252.956358 320.880565 
L 253.542558 288.146475 
L 254.421859 339.629808 
L 254.714959 331.573104 
L 255.008059 353.694228 
L 255.59426 328.439942 
L 255.88736 352.808985 
L 256.47356 314.216378 
L 256.76666 333.333643 
L 257.059761 326.739082 
L 257.352861 310.675406 
L 257.645961 314.833064 
L 257.939061 329.404757 
L 259.111462 252.408527 
L 259.404562 253.064999 
L 259.697663 293.796114 
L 259.990763 308.367807 
L 260.283863 302.350145 
L 260.576963 284.993419 
L 260.870063 291.58798 
L 261.163164 275.643663 
L 261.456264 281.661325 
L 262.335564 214.56191 
L 262.628665 218.311759 
L 262.921765 224.080757 
L 263.214865 240.870531 
L 263.507965 226.298837 
L 263.801066 244.53086 
L 264.094166 228.586543 
L 264.387266 242.074063 
L 264.680366 248.091725 
L 264.973466 241.059515 
L 265.266567 223.702788 
L 265.559667 229.700557 
L 266.438967 255.253239 
L 266.732068 274.370505 
L 267.025168 254.895164 
L 267.318268 270.83948 
L 267.904469 237.995978 
L 268.197569 254.785752 
L 268.490669 258.943409 
L 269.36997 239.607319 
L 269.95617 261.609084 
L 270.24927 272.291677 
L 270.54237 288.355352 
L 270.835471 294.12435 
L 271.128571 269.51659 
L 271.421671 265.358932 
L 271.714771 259.589934 
L 272.007872 250.061141 
L 272.300972 269.178407 
L 272.594072 249.076433 
L 272.887172 237.359399 
L 273.180272 256.924259 
L 273.473373 253.20425 
L 273.766473 264.921284 
L 274.059573 271.893815 
L 274.352673 260.176781 
L 274.645773 240.701439 
L 274.938874 238.324214 
L 275.231974 219.206948 
L 275.525074 216.58106 
L 276.111275 255.899765 
L 276.404375 280.507525 
L 276.697475 265.935832 
L 276.990575 265.935832 
L 277.283675 290.304875 
L 277.576776 265.697115 
L 277.869876 271.466113 
L 278.456076 253.81099 
L 278.749176 260.405551 
L 279.042277 256.655703 
L 279.335377 263.687912 
L 279.921577 304.846729 
L 280.214678 302.011963 
L 280.507778 324.133086 
L 280.800878 312.416052 
L 281.093978 308.258395 
L 281.680179 275.772968 
L 281.973279 290.344662 
L 282.266379 313.540012 
L 282.559479 291.418889 
L 282.852579 298.003504 
L 283.14568 309.720538 
L 283.43878 300.191744 
L 283.73188 280.716403 
L 284.02498 298.07313 
L 284.611181 263.051333 
L 284.904281 279.115009 
L 285.197381 272.142478 
L 285.783582 315.927184 
L 286.076682 308.894974 
L 286.369782 328.370316 
L 286.955982 315.768039 
L 287.249083 298.570457 
L 287.835283 334.517283 
L 289.007684 360.308682 
L 289.300784 344.463831 
L 289.593884 321.984632 
L 290.180085 308.457326 
L 290.766285 274.688795 
L 291.059385 281.24357 
L 291.352486 273.186866 
L 291.645586 286.31631 
L 292.231786 261.062024 
L 292.817987 214.33314 
L 293.111087 233.808481 
L 293.404187 236.643247 
L 293.697287 247.32584 
L 293.990388 241.308179 
L 294.283488 238.473412 
L 294.576588 225.343969 
L 294.869688 202.148618 
L 295.162788 216.720311 
L 295.455889 219.555078 
L 295.748989 208.872485 
L 296.042089 232.067835 
L 296.335189 216.123518 
L 296.628289 217.67518 
L 296.92139 221.832837 
L 297.21449 234.962281 
L 297.50759 228.407506 
L 297.80069 239.090098 
L 298.093791 245.644874 
L 298.679991 229.083871 
L 299.266191 261.33058 
L 299.559292 283.451704 
L 299.852392 290.424234 
L 300.145492 315.031995 
L 300.438592 298.630136 
L 300.731692 292.035575 
L 301.024793 232.415964 
L 301.317893 209.936765 
L 301.610993 224.508459 
L 301.904093 248.877502 
L 302.197194 242.28294 
L 302.490294 229.809969 
L 302.783394 211.577946 
L 303.076494 229.551359 
L 303.369594 239.935555 
L 304.541995 322.561532 
L 305.421296 257.560839 
L 305.714396 253.333556 
L 306.007496 253.333556 
L 306.300597 235.976829 
L 306.593697 242.949359 
L 306.886797 256.078803 
L 307.179897 244.361769 
L 307.472997 262.593792 
L 307.766098 268.36279 
L 308.059198 248.887448 
L 308.352298 242.302833 
L 308.645398 243.347221 
L 308.938498 249.931836 
L 309.231599 243.347221 
L 309.524699 227.50237 
L 309.817799 205.02317 
L 310.404 249.882103 
L 310.6971 233.480245 
L 310.9902 253.582219 
L 311.2833 239.289029 
L 311.5764 255.133881 
L 311.869501 259.291538 
L 312.162601 243.446687 
L 312.455701 267.81573 
L 312.748801 247.713756 
L 313.041901 260.186727 
L 313.628102 225.164931 
L 313.921202 241.954704 
L 314.214302 222.837438 
L 314.507403 220.002672 
L 314.800503 203.938997 
L 315.093603 196.906787 
L 315.386703 184.433816 
L 315.679803 183.409321 
L 315.972904 186.03521 
L 316.266004 186.03521 
L 316.852204 216.670579 
L 317.145304 193.475228 
L 317.438405 209.320079 
L 318.024605 198.478342 
L 318.610806 245.565301 
L 318.903906 252.149916 
L 319.197006 270.381939 
L 319.490106 257.252496 
L 319.783206 234.773296 
L 320.076307 245.455889 
L 320.369407 221.086846 
L 320.662507 241.18882 
L 320.955607 216.58106 
L 321.248707 209.54885 
L 321.541808 233.917893 
L 321.834908 219.3462 
L 322.128008 236.135974 
L 322.421108 229.581198 
L 322.714209 242.084009 
L 323.007309 266.69177 
L 323.300409 250.846918 
L 323.593509 250.846918 
L 323.886609 269.964184 
L 324.17971 248.300602 
L 324.47281 257.47132 
L 324.76591 282.844964 
L 325.05901 287.977383 
L 325.35211 296.511522 
L 325.645211 312.455839 
L 325.938311 292.980497 
L 326.231411 291.806804 
L 326.524511 282.278011 
L 326.817612 257.670251 
L 327.110712 247.375573 
L 327.403812 233.082383 
L 327.990012 277.891583 
L 328.283113 203.839531 
L 328.576213 223.941505 
L 328.869313 217.35689 
L 329.162413 240.552241 
L 329.455513 233.520031 
L 330.041714 271.943547 
L 330.334814 255.99923 
L 330.627914 262.016892 
L 331.214115 299.366181 
L 331.507215 289.837388 
L 331.800315 306.239246 
L 332.093415 289.837388 
L 332.386516 284.06839 
L 332.972716 316.146008 
L 333.265816 291.776965 
L 333.558916 308.178823 
L 333.852017 334.019955 
L 334.145117 339.788953 
L 334.438217 316.593603 
L 334.731317 311.908778 
L 335.903718 238.831488 
L 336.196818 250.548522 
L 336.783019 230.84441 
L 337.076119 223.871879 
L 337.369219 238.791702 
L 337.662319 222.389844 
L 338.24852 230.058633 
L 338.54162 249.175898 
L 338.83472 229.700557 
L 339.127821 248.937181 
L 339.420921 253.094838 
L 340.007121 223.175621 
L 340.300221 252.786495 
L 340.593322 263.469088 
L 340.886422 287.838132 
L 341.179522 266.174549 
L 341.472622 272.759164 
L 341.765722 261.04213 
L 342.058823 283.52133 
L 342.351923 297.028742 
L 342.645023 293.845847 
L 342.938123 287.320911 
L 343.231224 294.353121 
L 344.110524 342.385002 
L 344.696725 308.238502 
L 344.989825 314.833064 
L 345.282925 324.361857 
L 345.576025 330.130855 
L 345.869125 313.728997 
L 346.162226 330.130855 
L 346.455326 310.028881 
L 346.748426 334.636641 
L 347.334626 299.575058 
L 347.627727 315.519375 
L 347.920827 308.93476 
L 348.507027 322.074151 
L 348.800128 312.545357 
L 349.093228 318.563019 
L 349.386328 302.161161 
L 349.972528 288.604016 
L 350.265629 305.005874 
L 350.558729 314.534667 
L 350.851829 298.59035 
L 351.144929 276.469227 
L 351.438029 298.132809 
L 351.73113 285.003365 
L 352.02423 260.395605 
L 352.31733 282.516728 
L 352.61043 266.11487 
L 352.903531 273.0874 
L 353.196631 257.242549 
L 353.489731 247.713756 
L 353.782831 257.242549 
L 354.075931 231.769439 
L 354.369032 249.106272 
L 354.662132 251.941039 
L 354.955232 258.913569 
L 355.541432 223.951452 
L 355.834533 230.983662 
L 356.713833 279.2841 
L 357.006934 263.439249 
L 357.593134 276.429441 
L 357.886234 293.786167 
L 358.179334 296.620934 
L 358.472435 313.022792 
L 358.765535 321.079496 
L 359.058635 296.710453 
L 359.644835 263.906736 
L 359.937936 242.243154 
L 360.231036 254.716126 
L 360.524136 238.65245 
L 360.817236 235.817684 
L 361.110337 223.344712 
L 361.403437 247.952473 
L 362.282737 288.126581 
L 362.868938 316.633389 
L 363.455138 282.486889 
L 363.748238 275.892327 
L 364.041339 291.956002 
L 364.334439 275.554144 
L 364.920639 309.700645 
L 365.21374 303.145869 
L 366.09304 260.763627 
L 366.38614 276.608478 
L 367.265441 220.44032 
L 367.558541 231.212432 
L 367.851641 234.047198 
L 368.144742 255.710781 
L 368.437842 262.265556 
L 368.730942 276.837249 
L 369.024042 266.154656 
L 369.317143 282.098973 
L 369.610243 291.627766 
L 369.903343 275.68345 
L 370.196443 298.162649 
L 370.489543 282.317797 
L 370.782644 288.902412 
L 371.075744 284.744755 
L 371.368844 303.862021 
L 371.661944 291.389049 
L 372.248145 277.831904 
L 372.541245 293.895579 
L 372.834345 272.231997 
L 373.127445 262.703204 
L 373.420546 243.227862 
L 374.299846 279.632229 
L 374.592946 271.575525 
L 374.886047 305.453469 
L 375.179147 309.611126 
L 375.472247 204.53579 
L 375.765347 182.414666 
L 376.058447 204.078248 
L 376.351548 194.549455 
L 376.644648 177.351873 
L 376.937748 187.646551 
L 377.230848 190.481317 
L 377.523949 207.27109 
L 377.817049 199.214386 
L 378.110149 206.246596 
L 378.403249 189.844738 
L 378.696349 209.946712 
L 379.28255 180.753593 
L 380.16185 226.92547 
L 380.454951 220.340855 
L 380.748051 224.498512 
L 381.041151 221.663746 
L 381.334251 214.691215 
L 381.627352 220.460213 
L 381.920452 204.515897 
L 382.213552 197.921335 
L 382.506652 182.076484 
L 382.799752 196.578551 
L 383.092853 279.383565 
L 383.385953 299.48554 
L 383.679053 283.421864 
L 383.972153 294.104457 
L 384.265253 318.4735 
L 384.558354 302.071642 
L 384.851454 318.4735 
L 385.437654 298.262114 
L 385.730755 304.279776 
L 386.023855 325.943358 
L 386.316955 310.098507 
L 386.903155 295.457187 
L 387.196256 302.489397 
L 387.782456 333.124766 
L 388.075556 327.107104 
L 388.368656 311.043429 
L 388.661757 304.011219 
L 388.954857 320.074894 
L 389.247957 313.102364 
L 389.541057 295.76553 
L 389.834158 295.76553 
L 390.127258 180.196586 
L 390.420358 185.070395 
L 390.713458 201.014712 
L 391.006558 194.430097 
L 391.592759 242.034277 
L 391.885859 220.370694 
L 392.472059 223.55359 
L 392.76516 238.244642 
L 393.05826 245.217172 
L 393.35136 256.934206 
L 393.64446 280.129557 
L 393.93756 286.684332 
L 394.230661 311.292092 
L 394.523761 325.863786 
L 395.403062 263.767485 
L 395.696162 285.431067 
L 395.989262 291.200065 
L 396.282362 284.605503 
L 396.575462 308.974547 
L 396.868563 303.205549 
L 397.161663 293.676755 
L 397.454763 202.387335 
L 397.747863 209.419545 
L 398.040963 192.221963 
L 398.334064 198.776738 
L 398.627164 182.713063 
L 399.213364 212.433349 
L 399.506465 227.005042 
L 399.799565 216.322449 
L 400.092665 199.532676 
L 400.678865 246.380918 
L 400.971966 255.889818 
L 401.558166 302.161161 
L 402.144366 266.642037 
L 402.437467 263.807271 
L 403.023667 295.835156 
L 403.316767 271.227396 
L 403.609868 293.706595 
L 403.902968 276.349868 
L 404.196068 283.322399 
L 404.489168 307.691442 
L 404.782268 300.659232 
L 405.368469 266.482892 
L 405.661569 310.95391 
L 405.954669 296.591094 
L 406.247769 297.913985 
L 406.54087 309.631019 
L 406.83397 316.215634 
L 407.12707 304.4986 
L 407.713271 270.730068 
L 408.299471 236.653194 
L 408.592571 233.340993 
L 408.885671 217.058494 
L 409.178772 237.160468 
L 409.471872 222.588775 
L 410.058072 243.476526 
L 410.351172 250.449057 
L 410.644273 239.468067 
L 411.230473 271.237342 
L 411.816674 238.771809 
L 412.109774 245.36637 
L 412.695974 212.224471 
L 412.989074 211.408854 
L 413.282175 227.353171 
L 413.575275 221.584173 
L 413.868375 218.749407 
L 414.161475 235.151265 
L 414.454575 241.73588 
L 414.747676 266.343641 
L 415.040776 272.112639 
L 415.333876 267.954981 
L 415.626976 213.776133 
L 415.920077 236.255332 
L 416.506277 258.257097 
L 416.799377 242.412245 
L 417.092477 239.577479 
L 417.971778 288.136528 
L 418.264878 282.118866 
L 418.557978 272.590073 
L 418.851079 288.53439 
L 419.144179 287.360697 
L 419.437279 306.836039 
L 420.02348 261.519565 
L 420.31658 267.537226 
L 420.60968 263.379569 
L 420.90278 287.748613 
L 421.488981 250.916544 
L 422.661381 323.058859 
L 422.954482 301.395277 
L 423.247582 309.451981 
L 424.126883 258.843943 
L 424.419983 277.961209 
L 424.713083 265.488238 
L 425.006183 280.059931 
L 425.592384 247.713756 
L 425.885484 223.344712 
L 426.178584 209.270347 
L 426.471684 223.563536 
L 426.764784 246.758887 
L 427.057885 224.279688 
L 427.350985 231.252218 
L 427.644085 243.72519 
L 428.816486 189.257891 
L 429.109586 208.733233 
L 429.402686 215.317848 
L 429.988887 249.076433 
L 430.281987 233.012757 
L 430.575087 226.428142 
L 431.161288 253.472807 
L 431.454388 245.416103 
L 431.747488 261.479779 
L 432.040588 257.322121 
L 432.333689 244.84915 
L 432.919889 251.841573 
L 433.212989 246.072575 
L 433.506089 243.237809 
L 433.79919 267.845569 
L 434.09229 277.374363 
L 434.38539 260.972505 
L 434.67849 266.224282 
L 434.97159 248.867555 
L 435.264691 240.134486 
L 435.557791 220.659144 
L 435.850891 220.659144 
L 436.143991 231.341737 
L 436.437092 237.936299 
L 436.730192 251.065743 
L 437.023292 226.696699 
L 437.316392 244.928722 
L 437.609492 238.334161 
L 437.902593 244.789471 
L 438.195693 247.624237 
L 438.488793 229.392214 
L 438.781893 246.589796 
L 439.074993 238.533092 
L 439.661194 269.616055 
L 439.954294 266.781289 
L 440.247394 252.488099 
L 440.540495 229.292748 
L 440.833595 245.694606 
L 441.126695 251.264673 
L 441.419795 250.876758 
L 441.712895 274.072109 
L 442.005996 280.08977 
L 442.299096 269.407178 
L 442.885296 306.179567 
L 443.178396 293.050123 
L 443.471497 299.644684 
L 443.764597 292.612475 
L 444.057697 312.714449 
L 444.350797 300.241477 
L 444.936998 258.436135 
L 445.230098 269.118728 
L 445.523198 246.639529 
L 445.816298 252.408527 
L 446.109399 238.115337 
L 446.402499 262.48438 
L 446.988699 230.018846 
L 447.281799 246.082522 
L 447.5749 226.965256 
L 447.868 246.440598 
L 448.4542 233.261421 
L 448.7473 257.869182 
L 449.040401 233.500138 
L 449.333501 249.901996 
L 449.626601 257.9587 
L 449.919701 273.903017 
L 450.505902 237.956192 
L 450.799002 252.249382 
L 451.092102 274.728581 
L 451.385202 265.199788 
L 451.678303 249.255471 
L 451.971403 256.28768 
L 452.557603 297.068528 
L 452.850703 233.331047 
L 453.143804 244.142945 
L 453.436904 259.291538 
L 454.316205 209.668209 
L 454.609305 209.668209 
L 454.902405 208.404997 
L 455.195505 215.377527 
L 455.488605 227.094561 
L 455.781706 220.122031 
L 456.074806 206.992587 
L 456.367906 215.964374 
L 456.661006 214.193888 
L 456.954106 242.790214 
L 457.247207 226.945363 
L 457.540307 225.572739 
L 457.833407 216.043946 
L 458.126507 223.016476 
L 458.419608 220.18171 
L 458.712708 243.377061 
L 459.298908 202.824983 
L 459.885109 239.627212 
L 460.471309 256.188215 
L 460.764409 243.715243 
L 461.057509 259.65956 
L 461.35061 241.427537 
L 461.64371 253.144571 
L 461.93681 238.851381 
L 462.22991 233.082383 
L 462.816111 208.017082 
L 463.109211 215.556565 
L 463.695411 252.488099 
L 463.988512 259.520309 
L 464.574712 228.88494 
L 465.160912 258.833997 
L 465.454013 274.678848 
L 465.747113 260.107155 
L 466.333313 298.699762 
L 466.626414 278.597788 
L 466.919514 291.727232 
L 467.212614 234.554472 
L 467.505714 228.666116 
L 467.798814 234.683777 
L 468.091915 252.9158 
L 468.385015 246.321239 
L 468.678115 260.037529 
L 468.971215 237.916406 
L 469.264315 251.045849 
L 469.557416 232.813826 
L 469.850516 244.53086 
L 470.143616 228.686009 
L 470.436716 248.16135 
L 471.316017 268.760652 
L 471.609117 246.281453 
L 471.902217 255.810246 
L 472.195318 250.041248 
L 472.488418 284.237481 
L 472.781518 298.530671 
L 473.074618 289.439526 
L 473.367718 302.56897 
L 473.660819 286.167111 
L 473.953919 279.612336 
L 474.247019 286.196951 
L 474.540119 279.612336 
L 474.83322 294.184029 
L 475.12632 201.840275 
L 476.298721 258.794211 
L 476.591821 251.762001 
L 477.178021 293.726488 
L 477.471121 290.891722 
L 478.057322 259.241805 
L 478.350422 271.714777 
L 478.936623 257.063511 
L 479.229723 240.661653 
L 479.522823 247.256215 
L 479.815923 236.573622 
L 480.109023 217.456356 
L 480.402124 210.871741 
L 480.695224 215.029398 
L 480.988324 194.927424 
L 481.281424 201.899954 
L 481.574524 194.927424 
L 481.867625 216.591006 
L 482.160725 223.563536 
L 482.453825 238.13523 
L 482.746925 218.659888 
L 483.040026 224.67755 
L 483.333126 207.887776 
L 483.626226 201.870115 
L 483.919326 177.262354 
L 484.212426 164.789383 
L 484.798627 198.478342 
L 485.091727 176.81476 
L 485.384827 172.657102 
L 485.677927 172.657102 
L 485.971028 177.90888 
L 486.264128 174.019779 
L 486.557228 188.591473 
L 486.850328 208.693447 
L 487.143429 192.74913 
L 487.436529 195.583896 
L 487.729629 175.481922 
L 488.022729 191.88378 
L 488.60893 191.88378 
L 488.90203 197.901442 
L 489.19513 220.380641 
L 489.48823 209.698048 
L 489.78133 222.17102 
L 490.074431 219.336253 
L 490.660631 254.397836 
L 490.953731 235.28057 
L 491.246832 257.401694 
L 491.833032 217.724913 
L 492.126132 211.955915 
L 492.419232 231.07318 
L 492.712333 232.535323 
L 493.298533 216.451754 
L 493.591633 223.046316 
L 494.177834 210.056124 
L 494.470934 220.738717 
L 494.764034 198.617593 
L 495.057134 205.590124 
L 495.350234 196.707856 
L 495.643335 201.432467 
L 495.936435 213.229073 
L 496.522635 249.185845 
L 496.815736 259.361164 
L 497.108836 283.968924 
L 497.401936 274.489864 
L 497.695036 273.6643 
L 497.988136 202.297816 
L 498.281237 273.6643 
L 498.574337 270.192955 
L 498.867437 277.225164 
L 499.160537 221.932303 
L 499.453637 240.164326 
L 499.746738 230.635532 
L 500.039838 237.608063 
L 500.332938 226.92547 
L 500.626038 233.957679 
L 500.919139 256.436879 
L 501.212239 240.373203 
L 501.505339 247.773435 
L 501.798439 234.256076 
L 502.091539 211.776877 
L 502.38464 234.256076 
L 502.67774 230.784731 
L 502.97084 212.552708 
L 503.26394 201.531932 
L 503.850141 234.335648 
L 504.143241 247.465092 
L 504.436341 224.269741 
L 505.022542 262.723097 
L 505.315642 256.128536 
L 505.608742 279.323886 
L 505.901842 288.852679 
L 506.194942 282.835018 
L 506.781143 255.790353 
L 507.074243 258.625119 
L 507.367343 264.642781 
L 507.660443 247.286054 
L 507.953544 271.655097 
L 508.539744 298.421259 
L 508.832844 226.020334 
L 509.125945 250.389377 
L 509.419045 234.325702 
L 509.712145 209.717941 
L 510.005245 244.252357 
L 510.298345 227.850499 
L 510.591446 228.576597 
L 510.884546 252.94564 
L 511.177646 245.91343 
L 511.470746 253.671738 
L 511.763846 275.33532 
L 512.056947 282.307851 
L 512.643147 239.468067 
L 512.936247 222.678294 
L 513.229348 216.58106 
L 513.522448 239.77641 
L 513.815548 252.905854 
L 514.108648 239.77641 
L 514.401748 232.80388 
L 514.694849 262.086518 
L 514.987949 262.086518 
L 515.867249 310.675406 
L 516.16035 298.958372 
L 516.45345 305.513148 
L 516.74655 304.4986 
L 517.03965 304.4986 
L 517.332751 326.977799 
L 517.625851 165.047993 
L 517.918951 171.602768 
L 518.212051 171.602768 
L 518.505151 165.047993 
L 518.798252 176.287593 
L 519.091352 176.287593 
L 519.384452 157.170327 
L 519.677552 175.40235 
L 519.970652 150.794589 
L 520.263753 153.629356 
L 520.849953 185.418524 
L 521.436154 153.509997 
L 521.729254 168.08169 
L 522.315454 211.806716 
L 522.608554 222.489309 
L 522.901655 228.506971 
L 523.194755 248.608945 
L 523.487855 245.774179 
L 524.367156 215.089077 
L 524.660256 228.218521 
L 524.953356 221.186311 
L 525.246456 227.741087 
L 525.539557 211.79677 
L 525.832657 214.631536 
L 526.125757 230.476388 
L 526.418857 223.881826 
L 526.711957 230.914036 
L 527.005058 213.716454 
L 527.298158 220.311015 
L 527.591258 229.839808 
L 527.884358 244.411502 
L 528.177458 224.309528 
L 528.470559 247.504878 
L 529.056759 232.415964 
L 529.349859 208.046921 
L 529.93606 224.67755 
L 530.52226 270.710175 
L 530.81536 258.993141 
L 531.108461 266.025351 
L 531.694661 290.215357 
L 531.987761 271.098091 
L 532.280861 265.329093 
L 532.573962 287.808292 
L 532.867062 281.223677 
L 533.160162 278.388911 
L 533.746363 255.730674 
L 534.039463 251.463604 
L 534.625663 287.340804 
L 534.918763 280.746243 
L 535.211864 297.943825 
L 535.798064 259.609827 
L 536.091164 260.982451 
L 536.384264 214.979665 
L 536.677365 231.441203 
L 536.970465 209.320079 
L 537.263565 215.874855 
L 537.556665 233.072437 
L 538.142866 191.475972 
L 538.729066 205.540391 
L 539.022166 202.705625 
L 539.608367 250.72756 
L 539.901467 228.248361 
L 540.194567 216.561167 
L 540.487667 228.2782 
L 540.780768 206.614618 
L 541.073868 195.932025 
L 541.366968 178.734443 
L 541.953168 210.09591 
L 542.246269 210.09591 
L 542.539369 189.993936 
L 542.832469 189.993936 
L 543.125569 183.409321 
L 543.41867 189.983989 
L 544.00487 233.281314 
L 544.29797 233.281314 
L 544.884171 259.908224 
L 545.177271 245.615034 
L 545.470371 245.615034 
L 545.763471 252.587564 
L 546.056571 228.218521 
L 546.349672 252.587564 
L 546.642772 232.48559 
L 546.935872 224.428886 
L 547.228972 246.908085 
L 547.522073 241.139087 
L 547.815173 260.614429 
L 548.108273 247.484985 
L 548.401373 263.886843 
L 548.694473 212.075273 
L 548.987574 215.835068 
L 549.573774 249.006807 
L 549.866874 242.412245 
L 550.159974 242.412245 
L 550.746175 255.77046 
L 551.039275 235.668486 
L 551.625476 267.029952 
L 551.918576 253.900509 
L 552.211676 251.065743 
L 552.504776 273.544942 
L 552.797876 258.973248 
L 553.090977 272.102692 
L 553.384077 264.045988 
L 553.677177 272.062906 
L 553.970277 284.535877 
L 554.556478 255.670994 
L 554.849578 251.254727 
L 555.142678 251.254727 
L 555.435778 265.82642 
L 555.728879 265.82642 
L 556.315079 253.134625 
L 556.901279 206.405741 
L 557.19438 234.892655 
L 557.48748 247.365627 
L 557.78058 235.6287 
L 558.07368 253.442968 
L 558.36678 246.470437 
L 558.659881 232.54527 
L 558.952981 239.5178 
L 559.246081 219.415826 
L 559.539181 245.644874 
L 559.832282 258.774317 
L 560.125382 251.742108 
L 560.418482 229.620984 
L 560.711582 225.871136 
L 561.297783 266.453053 
L 561.590883 266.453053 
L 561.883983 283.809779 
L 562.177083 270.680336 
L 562.470183 286.525187 
L 562.763284 293.109802 
L 563.056384 286.525187 
L 563.349484 302.927045 
L 563.935685 297.46639 
L 564.228785 305.523094 
L 564.521885 298.550564 
L 564.814985 283.978871 
L 565.108085 292.373758 
L 565.401186 272.898416 
L 565.694286 272.898416 
L 565.987386 274.310826 
L 566.573586 286.913103 
L 566.866687 270.123329 
L 567.159787 270.123329 
L 567.452887 254.179012 
L 567.745987 270.123329 
L 568.039088 255.830139 
L 568.332188 256.655703 
L 568.625288 234.176504 
L 568.918388 233.699069 
L 569.211488 215.467046 
L 569.797689 248.877502 
L 570.090789 225.682151 
L 570.676989 268.521935 
L 570.97009 268.521935 
L 571.26319 271.356701 
L 571.55629 258.227257 
L 571.84939 261.131649 
L 572.142491 261.131649 
L 572.435591 275.703343 
L 573.021791 254.497302 
L 573.314891 270.89916 
L 573.607992 250.797186 
L 573.901092 264.652727 
L 574.194192 264.652727 
L 574.487292 270.670389 
L 574.780392 263.697859 
L 575.073493 241.21866 
L 575.366593 259.888331 
L 575.952793 259.888331 
L 576.245894 279.005597 
L 576.538994 281.840363 
L 576.832094 262.365021 
L 577.125194 259.530255 
L 577.418294 263.687912 
L 577.711395 256.655703 
L 578.004495 271.227396 
L 578.297595 295.596439 
L 578.590695 303.653143 
L 578.883795 303.653143 
L 579.176896 289.08145 
L 579.469996 283.312452 
L 580.056196 238.453519 
L 580.349297 238.453519 
L 580.642397 243.416847 
L 580.935497 265.080429 
L 581.228597 257.023725 
L 581.814798 295.447241 
L 582.107898 204.883919 
L 582.400998 220.947594 
L 582.694098 215.178596 
L 583.280299 215.178596 
L 583.573399 220.947594 
L 583.866499 218.112828 
L 584.159599 239.77641 
L 584.4527 239.77641 
L 584.7458 215.407367 
L 585.0389 229.700557 
L 585.332 213.855705 
L 585.918201 242.362513 
L 586.211301 227.79082 
L 586.504401 225.353915 
L 587.383702 265.398719 
L 587.676802 245.923377 
L 587.969902 236.394584 
L 588.556103 202.218244 
L 588.849203 215.347688 
L 589.142303 204.665095 
L 589.435403 198.110319 
L 590.021604 198.110319 
L 590.314704 210.583291 
L 590.900904 172.856033 
L 591.194004 172.856033 
L 591.487105 182.215735 
L 591.780205 204.694934 
L 592.073305 204.694934 
L 592.366405 210.712596 
L 592.659505 210.712596 
L 592.952606 193.922823 
L 593.245706 205.401139 
L 593.538806 205.401139 
L 593.831906 211.995701 
L 594.125007 225.125145 
L 594.418107 225.125145 
L 594.711207 227.959911 
L 595.004307 247.435252 
L 595.297407 239.378548 
L 595.590508 256.57613 
L 595.883608 239.378548 
L 596.762908 239.378548 
L 597.056009 245.963163 
L 597.349109 262.365021 
L 597.642209 250.647987 
L 597.935309 250.647987 
L 598.22841 228.526864 
L 598.81461 201.482199 
L 599.40081 223.881826 
L 599.987011 223.881826 
L 600.280111 204.406484 
L 600.573211 223.52375 
L 600.866311 203.421776 
L 601.159412 192.739183 
L 601.745612 192.739183 
L 602.331813 228.974459 
L 602.918013 188.193611 
L 603.211113 185.358845 
L 603.797314 185.358845 
L 604.676614 234.494793 
L 604.969714 234.494793 
L 605.555915 221.504601 
L 605.849015 241.606575 
L 606.142115 216.998815 
L 606.435216 223.55359 
L 606.728316 203.451616 
L 607.314516 225.453381 
L 607.900717 185.617455 
L 608.486917 223.384499 
L 609.073117 223.384499 
L 609.366218 216.789937 
L 609.659318 235.907203 
L 610.245518 235.907203 
L 610.538619 219.505345 
L 610.831719 212.473135 
L 611.124819 212.473135 
L 611.417919 231.948477 
L 611.711019 231.948477 
L 612.00412 222.419683 
L 612.29722 238.483359 
L 612.59032 225.353915 
L 612.88342 232.386125 
L 613.17652 215.596351 
L 613.469621 211.438694 
L 613.762721 204.883919 
L 614.055821 204.883919 
L 614.348921 181.688568 
L 615.521322 181.688568 
L 615.814422 198.478342 
L 617.279923 198.478342 
L 617.573024 197.235023 
L 618.159224 197.235023 
L 618.452324 202.198351 
L 618.745425 195.743041 
L 619.038525 185.060448 
L 619.331625 185.060448 
L 619.624725 182.683223 
L 619.917825 175.710693 
L 620.210926 175.710693 
L 620.504026 179.86835 
L 620.797126 174.099352 
L 621.090226 176.78492 
L 621.383326 176.78492 
L 621.676427 163.078576 
L 621.969527 170.051107 
L 622.262627 170.051107 
L 622.555727 178.107811 
L 623.141928 178.107811 
L 623.435028 163.536118 
L 623.728128 156.563587 
L 624.021228 142.270397 
L 624.607429 142.270397 
L 624.900529 123.153132 
L 625.77983 123.153132 
L 626.07293 139.55499 
L 627.245331 139.55499 
L 627.538431 142.389756 
L 627.831531 142.389756 
L 628.124631 153.072349 
L 628.417732 145.015645 
L 628.710832 145.015645 
L 629.003932 140.141836 
L 633.693535 140.141836 
L 633.986636 132.890802 
L 635.159037 132.890802 
L 635.452137 116.488944 
L 638.383139 116.488944 
L 638.676239 123.461475 
L 638.969339 112.778882 
L 639.84864 112.778882 
L 640.14174 119.333657 
L 641.021041 119.333657 
L 641.314141 116.498891 
L 641.607241 116.498891 
L 641.900341 124.883831 
L 642.779642 124.883831 
L 643.072742 135.566424 
L 643.365842 154.68369 
L 643.952043 154.68369 
L 644.245143 167.813133 
L 644.831344 132.632192 
L 647.176145 132.632192 
L 647.469245 140.688896 
L 647.762346 140.688896 
L 648.055446 123.899123 
L 648.641646 123.899123 
L 648.934747 138.470816 
L 649.520947 138.470816 
L 650.107147 124.853991 
L 650.693348 124.853991 
L 650.986448 140.698843 
L 652.451949 140.698843 
L 652.745049 130.01625 
L 653.03815 130.01625 
L 653.33125 142.489221 
L 653.62435 146.000353 
L 653.91745 140.111996 
L 654.21055 140.111996 
L 654.503651 142.946763 
L 654.796751 142.946763 
L 655.089851 127.101911 
L 658.313953 127.101911 
L 658.607054 135.984179 
L 658.900154 135.984179 
L 659.193254 137.257337 
L 669.451762 137.257337 
L 669.744862 137.466215 
L 672.675864 137.466215 
L 672.968964 121.621363 
L 673.555165 121.621363 
L 674.141365 121.740722 
L 680.88267 121.740722 
L 681.17577 127.241163 
L 681.46887 127.241163 
L 681.761971 127.967261 
L 693.779079 127.967261 
L 694.072179 128.534214 
L 697.882482 128.534214 
L 698.175582 121.86008 
L 701.106585 121.86008 
L 701.399685 119.254085 
L 701.985885 119.254085 
L 702.278985 116.419318 
L 702.865186 116.419318 
L 703.158286 112.709256 
L 704.037587 112.709256 
L 704.330687 98.416066 
L 710.192691 98.416066 
L 710.485791 88.887273 
L 871.690909 88.887273 
L 871.690909 88.887273 
" style="fill:none;stroke:#8dd3c7;stroke-linecap:square;stroke-width:1.5;"/>
   </g>
   <g id="line2d_17">
    <path clip-path="url(#pef0d738ab5)" d="M 161.509091 164.441253 
L 194.922515 164.441253 
L 195.215616 140.271141 
L 624.607429 140.271141 
L 624.900529 123.153132 
L 635.159037 123.153132 
L 635.452137 116.488944 
L 638.676239 116.488944 
L 638.969339 112.778882 
L 704.037587 112.709256 
L 704.330687 98.416066 
L 710.192691 98.416066 
L 710.485791 88.887273 
L 871.690909 88.887273 
L 871.690909 88.887273 
" style="fill:none;stroke:#feffb3;stroke-linecap:square;stroke-width:1.5;"/>
   </g>
   <g id="line2d_18">
    <path clip-path="url(#pef0d738ab5)" d="M 161.509091 164.441253 
L 163.560792 164.441253 
L 163.853893 186.753862 
L 165.905594 186.753862 
L 166.198694 207.509667 
L 168.250396 207.509667 
L 168.543496 226.81729 
L 170.595198 226.81729 
L 170.888298 244.777775 
L 172.939999 244.777775 
L 173.233099 261.485114 
L 175.284801 261.485114 
L 175.577901 277.026742 
L 177.629603 277.026742 
L 177.922703 291.483994 
L 179.974404 291.483994 
L 180.267505 304.93253 
L 182.319206 304.93253 
L 182.612306 317.442729 
L 184.664008 317.442729 
L 184.957108 329.080062 
L 187.00881 329.080062 
L 187.30191 339.905431 
L 189.353611 339.905431 
L 189.646711 349.975489 
L 191.698413 349.975489 
L 191.991513 359.342934 
L 194.043215 359.342934 
L 194.336315 368.056791 
L 196.388016 368.056791 
L 196.681117 376.162661 
L 198.732818 376.162661 
L 199.025918 383.702965 
L 201.07762 383.702965 
L 201.37072 390.717165 
L 203.422421 390.717165 
L 203.715522 397.241967 
L 205.767223 397.241967 
L 206.060323 403.311518 
L 208.112025 403.311518 
L 208.405125 408.957583 
L 210.456827 408.957583 
L 210.749927 414.209708 
L 212.801628 414.209708 
L 213.094729 419.09538 
L 215.14643 419.09538 
L 215.43953 423.640167 
L 217.491232 423.640167 
L 217.784332 427.867853 
L 219.836033 427.867853 
L 220.129134 431.800564 
L 222.180835 431.800564 
L 222.473935 435.45888 
L 224.525637 435.45888 
L 224.818737 438.861947 
L 226.870439 438.861947 
L 227.163539 442.027574 
L 229.21524 442.027574 
L 229.508341 444.972327 
L 231.560042 444.972327 
L 231.853142 447.711618 
L 233.904844 447.711618 
L 234.197944 450.259783 
L 236.249645 450.259783 
L 236.542746 452.630155 
L 238.594447 452.630155 
L 238.887547 454.835142 
L 240.939249 454.835142 
L 241.232349 456.886281 
L 243.284051 456.886281 
L 243.577151 458.794307 
L 245.628852 458.794307 
L 245.921953 460.569206 
L 247.973654 460.569206 
L 248.266754 462.220266 
L 250.318456 462.220266 
L 250.611556 463.756127 
L 252.663257 463.756127 
L 252.956358 465.184828 
L 255.008059 465.184828 
L 255.301159 466.513845 
L 257.352861 466.513845 
L 257.645961 467.750134 
L 259.697663 467.750134 
L 259.990763 468.900163 
L 262.042464 468.900163 
L 262.335564 469.969953 
L 264.387266 469.969953 
L 264.680366 470.9651 
L 266.732068 470.9651 
L 267.025168 471.890814 
L 269.076869 471.890814 
L 269.36997 472.751938 
L 271.421671 472.751938 
L 271.714771 473.55298 
L 273.766473 473.55298 
L 274.059573 474.298132 
L 276.111275 474.298132 
L 276.404375 474.991292 
L 278.456076 474.991292 
L 278.749176 475.636089 
L 280.800878 475.636089 
L 281.093978 476.235897 
L 283.14568 476.235897 
L 283.43878 476.793854 
L 285.490481 476.793854 
L 285.783582 477.312882 
L 287.835283 477.312882 
L 288.128383 477.795696 
L 290.180085 477.795696 
L 290.473185 478.244823 
L 292.524887 478.244823 
L 292.817987 478.662613 
L 294.869688 478.662613 
L 295.162788 479.051253 
L 297.21449 479.051253 
L 297.50759 479.412777 
L 299.559292 479.412777 
L 299.852392 479.749076 
L 301.904093 479.749076 
L 302.197194 480.061911 
L 304.248895 480.061911 
L 304.541995 480.352919 
L 306.593697 480.352919 
L 306.886797 480.623622 
L 308.938498 480.623622 
L 309.231599 480.875438 
L 311.2833 480.875438 
L 311.5764 481.109684 
L 313.628102 481.109684 
L 313.921202 481.327586 
L 315.972904 481.327586 
L 316.266004 481.530285 
L 318.317705 481.530285 
L 318.610806 481.718841 
L 320.662507 481.718841 
L 320.955607 481.894241 
L 323.007309 481.894241 
L 323.300409 482.057402 
L 325.35211 482.057402 
L 325.645211 482.20918 
L 327.696912 482.20918 
L 327.990012 482.350368 
L 330.041714 482.350368 
L 330.334814 482.481704 
L 332.386516 482.481704 
L 332.679616 482.603877 
L 334.731317 482.603877 
L 335.317518 482.717526 
L 339.420921 482.823245 
L 340.007121 482.921588 
L 344.110524 483.013069 
L 344.696725 483.098168 
L 348.800128 483.177329 
L 349.386328 483.250966 
L 353.489731 483.319466 
L 354.075931 483.383187 
L 358.179334 483.442461 
L 359.058635 483.4976 
L 365.21374 483.596604 
L 366.09304 483.640988 
L 372.248145 483.720681 
L 373.420546 483.756408 
L 381.627352 483.849315 
L 383.092853 483.876067 
L 395.696162 483.984299 
L 397.747863 484.001632 
L 419.144179 484.112198 
L 423.540682 484.12843 
L 871.690909 484.232727 
L 871.690909 484.232727 
" style="fill:none;stroke:#bfbbd9;stroke-linecap:square;stroke-width:1.5;"/>
   </g>
   <g id="patch_3">
    <path d="M 126 504 
L 126 69.12 
" style="fill:none;stroke:#ffffff;stroke-linecap:square;stroke-linejoin:miter;stroke-width:0.8;"/>
   </g>
   <g id="patch_4">
    <path d="M 907.2 504 
L 907.2 69.12 
" style="fill:none;stroke:#ffffff;stroke-linecap:square;stroke-linejoin:miter;stroke-width:0.8;"/>
   </g>
   <g id="patch_5">
    <path d="M 126 504 
L 907.2 504 
" style="fill:none;stroke:#ffffff;stroke-linecap:square;stroke-linejoin:miter;stroke-width:0.8;"/>
   </g>
   <g id="patch_6">
    <path d="M 126 69.12 
L 907.2 69.12 
" style="fill:none;stroke:#ffffff;stroke-linecap:square;stroke-linejoin:miter;stroke-width:0.8;"/>
   </g>
   <g id="text_17">
    <!-- instance 4 with error 0.011981406448084764 -->
    <g style="fill:#ffffff;" transform="translate(378.046875 63.12)scale(0.12 -0.12)">
     <defs>
      <path d="M 2834 3397 
L 2834 2853 
Q 2591 2978 2328 3040 
Q 2066 3103 1784 3103 
Q 1356 3103 1142 2972 
Q 928 2841 928 2578 
Q 928 2378 1081 2264 
Q 1234 2150 1697 2047 
L 1894 2003 
Q 2506 1872 2764 1633 
Q 3022 1394 3022 966 
Q 3022 478 2636 193 
Q 2250 -91 1575 -91 
Q 1294 -91 989 -36 
Q 684 19 347 128 
L 347 722 
Q 666 556 975 473 
Q 1284 391 1588 391 
Q 1994 391 2212 530 
Q 2431 669 2431 922 
Q 2431 1156 2273 1281 
Q 2116 1406 1581 1522 
L 1381 1569 
Q 847 1681 609 1914 
Q 372 2147 372 2553 
Q 372 3047 722 3315 
Q 1072 3584 1716 3584 
Q 2034 3584 2315 3537 
Q 2597 3491 2834 3397 
z
" id="DejaVuSans-73" transform="scale(0.015625)"/>
      <path d="M 3122 3366 
L 3122 2828 
Q 2878 2963 2633 3030 
Q 2388 3097 2138 3097 
Q 1578 3097 1268 2742 
Q 959 2388 959 1747 
Q 959 1106 1268 751 
Q 1578 397 2138 397 
Q 2388 397 2633 464 
Q 2878 531 3122 666 
L 3122 134 
Q 2881 22 2623 -34 
Q 2366 -91 2075 -91 
Q 1284 -91 818 406 
Q 353 903 353 1747 
Q 353 2603 823 3093 
Q 1294 3584 2113 3584 
Q 2378 3584 2631 3529 
Q 2884 3475 3122 3366 
z
" id="DejaVuSans-63" transform="scale(0.015625)"/>
      <path id="DejaVuSans-20" transform="scale(0.015625)"/>
      <path d="M 269 3500 
L 844 3500 
L 1563 769 
L 2278 3500 
L 2956 3500 
L 3675 769 
L 4391 3500 
L 4966 3500 
L 4050 0 
L 3372 0 
L 2619 2869 
L 1863 0 
L 1184 0 
L 269 3500 
z
" id="DejaVuSans-77" transform="scale(0.015625)"/>
      <path d="M 3513 2113 
L 3513 0 
L 2938 0 
L 2938 2094 
Q 2938 2591 2744 2837 
Q 2550 3084 2163 3084 
Q 1697 3084 1428 2787 
Q 1159 2491 1159 1978 
L 1159 0 
L 581 0 
L 581 4863 
L 1159 4863 
L 1159 2956 
Q 1366 3272 1645 3428 
Q 1925 3584 2291 3584 
Q 2894 3584 3203 3211 
Q 3513 2838 3513 2113 
z
" id="DejaVuSans-68" transform="scale(0.015625)"/>
      <path d="M 684 794 
L 1344 794 
L 1344 0 
L 684 0 
L 684 794 
z
" id="DejaVuSans-2e" transform="scale(0.015625)"/>
      <path d="M 703 97 
L 703 672 
Q 941 559 1184 500 
Q 1428 441 1663 441 
Q 2288 441 2617 861 
Q 2947 1281 2994 2138 
Q 2813 1869 2534 1725 
Q 2256 1581 1919 1581 
Q 1219 1581 811 2004 
Q 403 2428 403 3163 
Q 403 3881 828 4315 
Q 1253 4750 1959 4750 
Q 2769 4750 3195 4129 
Q 3622 3509 3622 2328 
Q 3622 1225 3098 567 
Q 2575 -91 1691 -91 
Q 1453 -91 1209 -44 
Q 966 3 703 97 
z
M 1959 2075 
Q 2384 2075 2632 2365 
Q 2881 2656 2881 3163 
Q 2881 3666 2632 3958 
Q 2384 4250 1959 4250 
Q 1534 4250 1286 3958 
Q 1038 3666 1038 3163 
Q 1038 2656 1286 2365 
Q 1534 2075 1959 2075 
z
" id="DejaVuSans-39" transform="scale(0.015625)"/>
      <path d="M 2034 2216 
Q 1584 2216 1326 1975 
Q 1069 1734 1069 1313 
Q 1069 891 1326 650 
Q 1584 409 2034 409 
Q 2484 409 2743 651 
Q 3003 894 3003 1313 
Q 3003 1734 2745 1975 
Q 2488 2216 2034 2216 
z
M 1403 2484 
Q 997 2584 770 2862 
Q 544 3141 544 3541 
Q 544 4100 942 4425 
Q 1341 4750 2034 4750 
Q 2731 4750 3128 4425 
Q 3525 4100 3525 3541 
Q 3525 3141 3298 2862 
Q 3072 2584 2669 2484 
Q 3125 2378 3379 2068 
Q 3634 1759 3634 1313 
Q 3634 634 3220 271 
Q 2806 -91 2034 -91 
Q 1263 -91 848 271 
Q 434 634 434 1313 
Q 434 1759 690 2068 
Q 947 2378 1403 2484 
z
M 1172 3481 
Q 1172 3119 1398 2916 
Q 1625 2713 2034 2713 
Q 2441 2713 2670 2916 
Q 2900 3119 2900 3481 
Q 2900 3844 2670 4047 
Q 2441 4250 2034 4250 
Q 1625 4250 1398 4047 
Q 1172 3844 1172 3481 
z
" id="DejaVuSans-38" transform="scale(0.015625)"/>
      <path d="M 2113 2584 
Q 1688 2584 1439 2293 
Q 1191 2003 1191 1497 
Q 1191 994 1439 701 
Q 1688 409 2113 409 
Q 2538 409 2786 701 
Q 3034 994 3034 1497 
Q 3034 2003 2786 2293 
Q 2538 2584 2113 2584 
z
M 3366 4563 
L 3366 3988 
Q 3128 4100 2886 4159 
Q 2644 4219 2406 4219 
Q 1781 4219 1451 3797 
Q 1122 3375 1075 2522 
Q 1259 2794 1537 2939 
Q 1816 3084 2150 3084 
Q 2853 3084 3261 2657 
Q 3669 2231 3669 1497 
Q 3669 778 3244 343 
Q 2819 -91 2113 -91 
Q 1303 -91 875 529 
Q 447 1150 447 2328 
Q 447 3434 972 4092 
Q 1497 4750 2381 4750 
Q 2619 4750 2861 4703 
Q 3103 4656 3366 4563 
z
" id="DejaVuSans-36" transform="scale(0.015625)"/>
      <path d="M 525 4666 
L 3525 4666 
L 3525 4397 
L 1831 0 
L 1172 0 
L 2766 4134 
L 525 4134 
L 525 4666 
z
" id="DejaVuSans-37" transform="scale(0.015625)"/>
     </defs>
     <use xlink:href="#DejaVuSans-69"/>
     <use x="27.783203" xlink:href="#DejaVuSans-6e"/>
     <use x="91.162109" xlink:href="#DejaVuSans-73"/>
     <use x="143.261719" xlink:href="#DejaVuSans-74"/>
     <use x="182.470703" xlink:href="#DejaVuSans-61"/>
     <use x="243.75" xlink:href="#DejaVuSans-6e"/>
     <use x="307.128906" xlink:href="#DejaVuSans-63"/>
     <use x="362.109375" xlink:href="#DejaVuSans-65"/>
     <use x="423.632812" xlink:href="#DejaVuSans-20"/>
     <use x="455.419922" xlink:href="#DejaVuSans-34"/>
     <use x="519.042969" xlink:href="#DejaVuSans-20"/>
     <use x="550.830078" xlink:href="#DejaVuSans-77"/>
     <use x="632.617188" xlink:href="#DejaVuSans-69"/>
     <use x="660.400391" xlink:href="#DejaVuSans-74"/>
     <use x="699.609375" xlink:href="#DejaVuSans-68"/>
     <use x="762.988281" xlink:href="#DejaVuSans-20"/>
     <use x="794.775391" xlink:href="#DejaVuSans-65"/>
     <use x="856.298828" xlink:href="#DejaVuSans-72"/>
     <use x="895.662109" xlink:href="#DejaVuSans-72"/>
     <use x="934.525391" xlink:href="#DejaVuSans-6f"/>
     <use x="995.707031" xlink:href="#DejaVuSans-72"/>
     <use x="1036.820312" xlink:href="#DejaVuSans-20"/>
     <use x="1068.607422" xlink:href="#DejaVuSans-30"/>
     <use x="1132.230469" xlink:href="#DejaVuSans-2e"/>
     <use x="1164.017578" xlink:href="#DejaVuSans-30"/>
     <use x="1227.640625" xlink:href="#DejaVuSans-31"/>
     <use x="1291.263672" xlink:href="#DejaVuSans-31"/>
     <use x="1354.886719" xlink:href="#DejaVuSans-39"/>
     <use x="1418.509766" xlink:href="#DejaVuSans-38"/>
     <use x="1482.132812" xlink:href="#DejaVuSans-31"/>
     <use x="1545.755859" xlink:href="#DejaVuSans-34"/>
     <use x="1609.378906" xlink:href="#DejaVuSans-30"/>
     <use x="1673.001953" xlink:href="#DejaVuSans-36"/>
     <use x="1736.625" xlink:href="#DejaVuSans-34"/>
     <use x="1800.248047" xlink:href="#DejaVuSans-34"/>
     <use x="1863.871094" xlink:href="#DejaVuSans-38"/>
     <use x="1927.494141" xlink:href="#DejaVuSans-30"/>
     <use x="1991.117188" xlink:href="#DejaVuSans-38"/>
     <use x="2054.740234" xlink:href="#DejaVuSans-34"/>
     <use x="2118.363281" xlink:href="#DejaVuSans-37"/>
     <use x="2181.986328" xlink:href="#DejaVuSans-36"/>
     <use x="2245.609375" xlink:href="#DejaVuSans-34"/>
    </g>
   </g>
   <g id="legend_1">
    <g id="patch_7">
     <path d="M 805.348438 499 
L 900.2 499 
Q 902.2 499 902.2 497 
L 902.2 453.965625 
Q 902.2 451.965625 900.2 451.965625 
L 805.348438 451.965625 
Q 803.348438 451.965625 803.348438 453.965625 
L 803.348438 497 
Q 803.348438 499 805.348438 499 
z
" style="opacity:0.8;stroke:#cccccc;stroke-linejoin:miter;"/>
    </g>
    <g id="line2d_19">
     <path d="M 807.348438 460.064062 
L 827.348438 460.064062 
" style="fill:none;stroke:#8dd3c7;stroke-linecap:square;stroke-width:1.5;"/>
    </g>
    <g id="line2d_20"/>
    <g id="text_18">
     <!-- cost -->
     <g style="fill:#ffffff;" transform="translate(835.348438 463.564062)scale(0.1 -0.1)">
      <use xlink:href="#DejaVuSans-63"/>
      <use x="54.980469" xlink:href="#DejaVuSans-6f"/>
      <use x="116.162109" xlink:href="#DejaVuSans-73"/>
      <use x="168.261719" xlink:href="#DejaVuSans-74"/>
     </g>
    </g>
    <g id="line2d_21">
     <path d="M 807.348438 474.742188 
L 827.348438 474.742188 
" style="fill:none;stroke:#feffb3;stroke-linecap:square;stroke-width:1.5;"/>
    </g>
    <g id="line2d_22"/>
    <g id="text_19">
     <!-- best cost -->
     <g style="fill:#ffffff;" transform="translate(835.348438 478.242188)scale(0.1 -0.1)">
      <defs>
       <path d="M 3116 1747 
Q 3116 2381 2855 2742 
Q 2594 3103 2138 3103 
Q 1681 3103 1420 2742 
Q 1159 2381 1159 1747 
Q 1159 1113 1420 752 
Q 1681 391 2138 391 
Q 2594 391 2855 752 
Q 3116 1113 3116 1747 
z
M 1159 2969 
Q 1341 3281 1617 3432 
Q 1894 3584 2278 3584 
Q 2916 3584 3314 3078 
Q 3713 2572 3713 1747 
Q 3713 922 3314 415 
Q 2916 -91 2278 -91 
Q 1894 -91 1617 61 
Q 1341 213 1159 525 
L 1159 0 
L 581 0 
L 581 4863 
L 1159 4863 
L 1159 2969 
z
" id="DejaVuSans-62" transform="scale(0.015625)"/>
      </defs>
      <use xlink:href="#DejaVuSans-62"/>
      <use x="63.476562" xlink:href="#DejaVuSans-65"/>
      <use x="125" xlink:href="#DejaVuSans-73"/>
      <use x="177.099609" xlink:href="#DejaVuSans-74"/>
      <use x="216.308594" xlink:href="#DejaVuSans-20"/>
      <use x="248.095703" xlink:href="#DejaVuSans-63"/>
      <use x="303.076172" xlink:href="#DejaVuSans-6f"/>
      <use x="364.257812" xlink:href="#DejaVuSans-73"/>
      <use x="416.357422" xlink:href="#DejaVuSans-74"/>
     </g>
    </g>
    <g id="line2d_23">
     <path d="M 807.348438 489.420313 
L 827.348438 489.420313 
" style="fill:none;stroke:#bfbbd9;stroke-linecap:square;stroke-width:1.5;"/>
    </g>
    <g id="line2d_24"/>
    <g id="text_20">
     <!-- temperature -->
     <g style="fill:#ffffff;" transform="translate(835.348438 492.920313)scale(0.1 -0.1)">
      <defs>
       <path d="M 3328 2828 
Q 3544 3216 3844 3400 
Q 4144 3584 4550 3584 
Q 5097 3584 5394 3201 
Q 5691 2819 5691 2113 
L 5691 0 
L 5113 0 
L 5113 2094 
Q 5113 2597 4934 2840 
Q 4756 3084 4391 3084 
Q 3944 3084 3684 2787 
Q 3425 2491 3425 1978 
L 3425 0 
L 2847 0 
L 2847 2094 
Q 2847 2600 2669 2842 
Q 2491 3084 2119 3084 
Q 1678 3084 1418 2786 
Q 1159 2488 1159 1978 
L 1159 0 
L 581 0 
L 581 3500 
L 1159 3500 
L 1159 2956 
Q 1356 3278 1631 3431 
Q 1906 3584 2284 3584 
Q 2666 3584 2933 3390 
Q 3200 3197 3328 2828 
z
" id="DejaVuSans-6d" transform="scale(0.015625)"/>
       <path d="M 1159 525 
L 1159 -1331 
L 581 -1331 
L 581 3500 
L 1159 3500 
L 1159 2969 
Q 1341 3281 1617 3432 
Q 1894 3584 2278 3584 
Q 2916 3584 3314 3078 
Q 3713 2572 3713 1747 
Q 3713 922 3314 415 
Q 2916 -91 2278 -91 
Q 1894 -91 1617 61 
Q 1341 213 1159 525 
z
M 3116 1747 
Q 3116 2381 2855 2742 
Q 2594 3103 2138 3103 
Q 1681 3103 1420 2742 
Q 1159 2381 1159 1747 
Q 1159 1113 1420 752 
Q 1681 391 2138 391 
Q 2594 391 2855 752 
Q 3116 1113 3116 1747 
z
" id="DejaVuSans-70" transform="scale(0.015625)"/>
       <path d="M 544 1381 
L 544 3500 
L 1119 3500 
L 1119 1403 
Q 1119 906 1312 657 
Q 1506 409 1894 409 
Q 2359 409 2629 706 
Q 2900 1003 2900 1516 
L 2900 3500 
L 3475 3500 
L 3475 0 
L 2900 0 
L 2900 538 
Q 2691 219 2414 64 
Q 2138 -91 1772 -91 
Q 1169 -91 856 284 
Q 544 659 544 1381 
z
M 1991 3584 
L 1991 3584 
z
" id="DejaVuSans-75" transform="scale(0.015625)"/>
      </defs>
      <use xlink:href="#DejaVuSans-74"/>
      <use x="39.208984" xlink:href="#DejaVuSans-65"/>
      <use x="100.732422" xlink:href="#DejaVuSans-6d"/>
      <use x="198.144531" xlink:href="#DejaVuSans-70"/>
      <use x="261.621094" xlink:href="#DejaVuSans-65"/>
      <use x="323.144531" xlink:href="#DejaVuSans-72"/>
      <use x="364.257812" xlink:href="#DejaVuSans-61"/>
      <use x="425.537109" xlink:href="#DejaVuSans-74"/>
      <use x="464.746094" xlink:href="#DejaVuSans-75"/>
      <use x="528.125" xlink:href="#DejaVuSans-72"/>
      <use x="566.988281" xlink:href="#DejaVuSans-65"/>
     </g>
    </g>
   </g>
  </g>
 </g>
 <defs>
  <clipPath id="pef0d738ab5">
   <rect height="434.88" width="781.2" x="126" y="69.12"/>
  </clipPath>
 </defs>
</svg>
