<?xml version="1.0" encoding="utf-8" standalone="no"?>
<!DOCTYPE svg PUBLIC "-//W3C//DTD SVG 1.1//EN"
  "http://www.w3.org/Graphics/SVG/1.1/DTD/svg11.dtd">
<svg height="576pt" version="1.1" viewBox="0 0 1008 576" width="1008pt" xmlns="http://www.w3.org/2000/svg" xmlns:xlink="http://www.w3.org/1999/xlink">
 <metadata>
  <rdf:RDF xmlns:cc="http://creativecommons.org/ns#" xmlns:dc="http://purl.org/dc/elements/1.1/" xmlns:rdf="http://www.w3.org/1999/02/22-rdf-syntax-ns#">
   <cc:Work>
    <dc:type rdf:resource="http://purl.org/dc/dcmitype/StillImage"/>
    <dc:date>2022-01-07T21:26:23.250487</dc:date>
    <dc:format>image/svg+xml</dc:format>
    <dc:creator>
     <cc:Agent>
      <dc:title>Matplotlib v3.4.3, https://matplotlib.org/</dc:title>
     </cc:Agent>
    </dc:creator>
   </cc:Work>
  </rdf:RDF>
 </metadata>
 <defs>
  <style type="text/css">*{stroke-linecap:butt;stroke-linejoin:round;}</style>
 </defs>
 <g id="figure_1">
  <g id="patch_1">
   <path d="M 0 576 
L 1008 576 
L 1008 0 
L 0 0 
z
"/>
  </g>
  <g id="axes_1">
   <g id="patch_2">
    <path d="M 126 504 
L 907.2 504 
L 907.2 69.12 
L 126 69.12 
z
"/>
   </g>
   <g id="matplotlib.axis_1">
    <g id="xtick_1">
     <g id="line2d_1">
      <defs>
       <path d="M 0 0 
L 0 3.5 
" id="me3cce78386" style="stroke:#ffffff;stroke-width:0.8;"/>
      </defs>
      <g>
       <use style="fill:#ffffff;stroke:#ffffff;stroke-width:0.8;" x="161.509091" xlink:href="#me3cce78386" y="504"/>
      </g>
     </g>
     <g id="text_1">
      <!-- 0 -->
      <g style="fill:#ffffff;" transform="translate(158.327841 518.598438)scale(0.1 -0.1)">
       <defs>
        <path d="M 2034 4250 
Q 1547 4250 1301 3770 
Q 1056 3291 1056 2328 
Q 1056 1369 1301 889 
Q 1547 409 2034 409 
Q 2525 409 2770 889 
Q 3016 1369 3016 2328 
Q 3016 3291 2770 3770 
Q 2525 4250 2034 4250 
z
M 2034 4750 
Q 2819 4750 3233 4129 
Q 3647 3509 3647 2328 
Q 3647 1150 3233 529 
Q 2819 -91 2034 -91 
Q 1250 -91 836 529 
Q 422 1150 422 2328 
Q 422 3509 836 4129 
Q 1250 4750 2034 4750 
z
" id="DejaVuSans-30" transform="scale(0.015625)"/>
       </defs>
       <use xlink:href="#DejaVuSans-30"/>
      </g>
     </g>
    </g>
    <g id="xtick_2">
     <g id="line2d_2">
      <g>
       <use style="fill:#ffffff;stroke:#ffffff;stroke-width:0.8;" x="327.828018" xlink:href="#me3cce78386" y="504"/>
      </g>
     </g>
     <g id="text_2">
      <!-- 500 -->
      <g style="fill:#ffffff;" transform="translate(318.284268 518.598438)scale(0.1 -0.1)">
       <defs>
        <path d="M 691 4666 
L 3169 4666 
L 3169 4134 
L 1269 4134 
L 1269 2991 
Q 1406 3038 1543 3061 
Q 1681 3084 1819 3084 
Q 2600 3084 3056 2656 
Q 3513 2228 3513 1497 
Q 3513 744 3044 326 
Q 2575 -91 1722 -91 
Q 1428 -91 1123 -41 
Q 819 9 494 109 
L 494 744 
Q 775 591 1075 516 
Q 1375 441 1709 441 
Q 2250 441 2565 725 
Q 2881 1009 2881 1497 
Q 2881 1984 2565 2268 
Q 2250 2553 1709 2553 
Q 1456 2553 1204 2497 
Q 953 2441 691 2322 
L 691 4666 
z
" id="DejaVuSans-35" transform="scale(0.015625)"/>
       </defs>
       <use xlink:href="#DejaVuSans-35"/>
       <use x="63.623047" xlink:href="#DejaVuSans-30"/>
       <use x="127.246094" xlink:href="#DejaVuSans-30"/>
      </g>
     </g>
    </g>
    <g id="xtick_3">
     <g id="line2d_3">
      <g>
       <use style="fill:#ffffff;stroke:#ffffff;stroke-width:0.8;" x="494.146945" xlink:href="#me3cce78386" y="504"/>
      </g>
     </g>
     <g id="text_3">
      <!-- 1000 -->
      <g style="fill:#ffffff;" transform="translate(481.421945 518.598438)scale(0.1 -0.1)">
       <defs>
        <path d="M 794 531 
L 1825 531 
L 1825 4091 
L 703 3866 
L 703 4441 
L 1819 4666 
L 2450 4666 
L 2450 531 
L 3481 531 
L 3481 0 
L 794 0 
L 794 531 
z
" id="DejaVuSans-31" transform="scale(0.015625)"/>
       </defs>
       <use xlink:href="#DejaVuSans-31"/>
       <use x="63.623047" xlink:href="#DejaVuSans-30"/>
       <use x="127.246094" xlink:href="#DejaVuSans-30"/>
       <use x="190.869141" xlink:href="#DejaVuSans-30"/>
      </g>
     </g>
    </g>
    <g id="xtick_4">
     <g id="line2d_4">
      <g>
       <use style="fill:#ffffff;stroke:#ffffff;stroke-width:0.8;" x="660.465872" xlink:href="#me3cce78386" y="504"/>
      </g>
     </g>
     <g id="text_4">
      <!-- 1500 -->
      <g style="fill:#ffffff;" transform="translate(647.740872 518.598438)scale(0.1 -0.1)">
       <use xlink:href="#DejaVuSans-31"/>
       <use x="63.623047" xlink:href="#DejaVuSans-35"/>
       <use x="127.246094" xlink:href="#DejaVuSans-30"/>
       <use x="190.869141" xlink:href="#DejaVuSans-30"/>
      </g>
     </g>
    </g>
    <g id="xtick_5">
     <g id="line2d_5">
      <g>
       <use style="fill:#ffffff;stroke:#ffffff;stroke-width:0.8;" x="826.784799" xlink:href="#me3cce78386" y="504"/>
      </g>
     </g>
     <g id="text_5">
      <!-- 2000 -->
      <g style="fill:#ffffff;" transform="translate(814.059799 518.598438)scale(0.1 -0.1)">
       <defs>
        <path d="M 1228 531 
L 3431 531 
L 3431 0 
L 469 0 
L 469 531 
Q 828 903 1448 1529 
Q 2069 2156 2228 2338 
Q 2531 2678 2651 2914 
Q 2772 3150 2772 3378 
Q 2772 3750 2511 3984 
Q 2250 4219 1831 4219 
Q 1534 4219 1204 4116 
Q 875 4013 500 3803 
L 500 4441 
Q 881 4594 1212 4672 
Q 1544 4750 1819 4750 
Q 2544 4750 2975 4387 
Q 3406 4025 3406 3419 
Q 3406 3131 3298 2873 
Q 3191 2616 2906 2266 
Q 2828 2175 2409 1742 
Q 1991 1309 1228 531 
z
" id="DejaVuSans-32" transform="scale(0.015625)"/>
       </defs>
       <use xlink:href="#DejaVuSans-32"/>
       <use x="63.623047" xlink:href="#DejaVuSans-30"/>
       <use x="127.246094" xlink:href="#DejaVuSans-30"/>
       <use x="190.869141" xlink:href="#DejaVuSans-30"/>
      </g>
     </g>
    </g>
    <g id="text_6">
     <!-- iteration -->
     <g style="fill:#ffffff;" transform="translate(495.477344 532.276562)scale(0.1 -0.1)">
      <defs>
       <path d="M 603 3500 
L 1178 3500 
L 1178 0 
L 603 0 
L 603 3500 
z
M 603 4863 
L 1178 4863 
L 1178 4134 
L 603 4134 
L 603 4863 
z
" id="DejaVuSans-69" transform="scale(0.015625)"/>
       <path d="M 1172 4494 
L 1172 3500 
L 2356 3500 
L 2356 3053 
L 1172 3053 
L 1172 1153 
Q 1172 725 1289 603 
Q 1406 481 1766 481 
L 2356 481 
L 2356 0 
L 1766 0 
Q 1100 0 847 248 
Q 594 497 594 1153 
L 594 3053 
L 172 3053 
L 172 3500 
L 594 3500 
L 594 4494 
L 1172 4494 
z
" id="DejaVuSans-74" transform="scale(0.015625)"/>
       <path d="M 3597 1894 
L 3597 1613 
L 953 1613 
Q 991 1019 1311 708 
Q 1631 397 2203 397 
Q 2534 397 2845 478 
Q 3156 559 3463 722 
L 3463 178 
Q 3153 47 2828 -22 
Q 2503 -91 2169 -91 
Q 1331 -91 842 396 
Q 353 884 353 1716 
Q 353 2575 817 3079 
Q 1281 3584 2069 3584 
Q 2775 3584 3186 3129 
Q 3597 2675 3597 1894 
z
M 3022 2063 
Q 3016 2534 2758 2815 
Q 2500 3097 2075 3097 
Q 1594 3097 1305 2825 
Q 1016 2553 972 2059 
L 3022 2063 
z
" id="DejaVuSans-65" transform="scale(0.015625)"/>
       <path d="M 2631 2963 
Q 2534 3019 2420 3045 
Q 2306 3072 2169 3072 
Q 1681 3072 1420 2755 
Q 1159 2438 1159 1844 
L 1159 0 
L 581 0 
L 581 3500 
L 1159 3500 
L 1159 2956 
Q 1341 3275 1631 3429 
Q 1922 3584 2338 3584 
Q 2397 3584 2469 3576 
Q 2541 3569 2628 3553 
L 2631 2963 
z
" id="DejaVuSans-72" transform="scale(0.015625)"/>
       <path d="M 2194 1759 
Q 1497 1759 1228 1600 
Q 959 1441 959 1056 
Q 959 750 1161 570 
Q 1363 391 1709 391 
Q 2188 391 2477 730 
Q 2766 1069 2766 1631 
L 2766 1759 
L 2194 1759 
z
M 3341 1997 
L 3341 0 
L 2766 0 
L 2766 531 
Q 2569 213 2275 61 
Q 1981 -91 1556 -91 
Q 1019 -91 701 211 
Q 384 513 384 1019 
Q 384 1609 779 1909 
Q 1175 2209 1959 2209 
L 2766 2209 
L 2766 2266 
Q 2766 2663 2505 2880 
Q 2244 3097 1772 3097 
Q 1472 3097 1187 3025 
Q 903 2953 641 2809 
L 641 3341 
Q 956 3463 1253 3523 
Q 1550 3584 1831 3584 
Q 2591 3584 2966 3190 
Q 3341 2797 3341 1997 
z
" id="DejaVuSans-61" transform="scale(0.015625)"/>
       <path d="M 1959 3097 
Q 1497 3097 1228 2736 
Q 959 2375 959 1747 
Q 959 1119 1226 758 
Q 1494 397 1959 397 
Q 2419 397 2687 759 
Q 2956 1122 2956 1747 
Q 2956 2369 2687 2733 
Q 2419 3097 1959 3097 
z
M 1959 3584 
Q 2709 3584 3137 3096 
Q 3566 2609 3566 1747 
Q 3566 888 3137 398 
Q 2709 -91 1959 -91 
Q 1206 -91 779 398 
Q 353 888 353 1747 
Q 353 2609 779 3096 
Q 1206 3584 1959 3584 
z
" id="DejaVuSans-6f" transform="scale(0.015625)"/>
       <path d="M 3513 2113 
L 3513 0 
L 2938 0 
L 2938 2094 
Q 2938 2591 2744 2837 
Q 2550 3084 2163 3084 
Q 1697 3084 1428 2787 
Q 1159 2491 1159 1978 
L 1159 0 
L 581 0 
L 581 3500 
L 1159 3500 
L 1159 2956 
Q 1366 3272 1645 3428 
Q 1925 3584 2291 3584 
Q 2894 3584 3203 3211 
Q 3513 2838 3513 2113 
z
" id="DejaVuSans-6e" transform="scale(0.015625)"/>
      </defs>
      <use xlink:href="#DejaVuSans-69"/>
      <use x="27.783203" xlink:href="#DejaVuSans-74"/>
      <use x="66.992188" xlink:href="#DejaVuSans-65"/>
      <use x="128.515625" xlink:href="#DejaVuSans-72"/>
      <use x="169.628906" xlink:href="#DejaVuSans-61"/>
      <use x="230.908203" xlink:href="#DejaVuSans-74"/>
      <use x="270.117188" xlink:href="#DejaVuSans-69"/>
      <use x="297.900391" xlink:href="#DejaVuSans-6f"/>
      <use x="359.082031" xlink:href="#DejaVuSans-6e"/>
     </g>
    </g>
   </g>
   <g id="matplotlib.axis_2">
    <g id="ytick_1">
     <g id="line2d_6">
      <defs>
       <path d="M 0 0 
L -3.5 0 
" id="m7e568ba948" style="stroke:#ffffff;stroke-width:0.8;"/>
      </defs>
      <g>
       <use style="fill:#ffffff;stroke:#ffffff;stroke-width:0.8;" x="126" xlink:href="#m7e568ba948" y="484.232727"/>
      </g>
     </g>
     <g id="text_7">
      <!-- 0 -->
      <g style="fill:#ffffff;" transform="translate(112.6375 488.031946)scale(0.1 -0.1)">
       <use xlink:href="#DejaVuSans-30"/>
      </g>
     </g>
    </g>
    <g id="ytick_2">
     <g id="line2d_7">
      <g>
       <use style="fill:#ffffff;stroke:#ffffff;stroke-width:0.8;" x="126" xlink:href="#m7e568ba948" y="389.986171"/>
      </g>
     </g>
     <g id="text_8">
      <!-- 10000 -->
      <g style="fill:#ffffff;" transform="translate(87.1875 393.78539)scale(0.1 -0.1)">
       <use xlink:href="#DejaVuSans-31"/>
       <use x="63.623047" xlink:href="#DejaVuSans-30"/>
       <use x="127.246094" xlink:href="#DejaVuSans-30"/>
       <use x="190.869141" xlink:href="#DejaVuSans-30"/>
       <use x="254.492188" xlink:href="#DejaVuSans-30"/>
      </g>
     </g>
    </g>
    <g id="ytick_3">
     <g id="line2d_8">
      <g>
       <use style="fill:#ffffff;stroke:#ffffff;stroke-width:0.8;" x="126" xlink:href="#m7e568ba948" y="295.739615"/>
      </g>
     </g>
     <g id="text_9">
      <!-- 20000 -->
      <g style="fill:#ffffff;" transform="translate(87.1875 299.538833)scale(0.1 -0.1)">
       <use xlink:href="#DejaVuSans-32"/>
       <use x="63.623047" xlink:href="#DejaVuSans-30"/>
       <use x="127.246094" xlink:href="#DejaVuSans-30"/>
       <use x="190.869141" xlink:href="#DejaVuSans-30"/>
       <use x="254.492188" xlink:href="#DejaVuSans-30"/>
      </g>
     </g>
    </g>
    <g id="ytick_4">
     <g id="line2d_9">
      <g>
       <use style="fill:#ffffff;stroke:#ffffff;stroke-width:0.8;" x="126" xlink:href="#m7e568ba948" y="201.493058"/>
      </g>
     </g>
     <g id="text_10">
      <!-- 30000 -->
      <g style="fill:#ffffff;" transform="translate(87.1875 205.292277)scale(0.1 -0.1)">
       <defs>
        <path d="M 2597 2516 
Q 3050 2419 3304 2112 
Q 3559 1806 3559 1356 
Q 3559 666 3084 287 
Q 2609 -91 1734 -91 
Q 1441 -91 1130 -33 
Q 819 25 488 141 
L 488 750 
Q 750 597 1062 519 
Q 1375 441 1716 441 
Q 2309 441 2620 675 
Q 2931 909 2931 1356 
Q 2931 1769 2642 2001 
Q 2353 2234 1838 2234 
L 1294 2234 
L 1294 2753 
L 1863 2753 
Q 2328 2753 2575 2939 
Q 2822 3125 2822 3475 
Q 2822 3834 2567 4026 
Q 2313 4219 1838 4219 
Q 1578 4219 1281 4162 
Q 984 4106 628 3988 
L 628 4550 
Q 988 4650 1302 4700 
Q 1616 4750 1894 4750 
Q 2613 4750 3031 4423 
Q 3450 4097 3450 3541 
Q 3450 3153 3228 2886 
Q 3006 2619 2597 2516 
z
" id="DejaVuSans-33" transform="scale(0.015625)"/>
       </defs>
       <use xlink:href="#DejaVuSans-33"/>
       <use x="63.623047" xlink:href="#DejaVuSans-30"/>
       <use x="127.246094" xlink:href="#DejaVuSans-30"/>
       <use x="190.869141" xlink:href="#DejaVuSans-30"/>
       <use x="254.492188" xlink:href="#DejaVuSans-30"/>
      </g>
     </g>
    </g>
    <g id="ytick_5">
     <g id="line2d_10">
      <g>
       <use style="fill:#ffffff;stroke:#ffffff;stroke-width:0.8;" x="126" xlink:href="#m7e568ba948" y="107.246502"/>
      </g>
     </g>
     <g id="text_11">
      <!-- 40000 -->
      <g style="fill:#ffffff;" transform="translate(87.1875 111.045721)scale(0.1 -0.1)">
       <defs>
        <path d="M 2419 4116 
L 825 1625 
L 2419 1625 
L 2419 4116 
z
M 2253 4666 
L 3047 4666 
L 3047 1625 
L 3713 1625 
L 3713 1100 
L 3047 1100 
L 3047 0 
L 2419 0 
L 2419 1100 
L 313 1100 
L 313 1709 
L 2253 4666 
z
" id="DejaVuSans-34" transform="scale(0.015625)"/>
       </defs>
       <use xlink:href="#DejaVuSans-34"/>
       <use x="63.623047" xlink:href="#DejaVuSans-30"/>
       <use x="127.246094" xlink:href="#DejaVuSans-30"/>
       <use x="190.869141" xlink:href="#DejaVuSans-30"/>
       <use x="254.492188" xlink:href="#DejaVuSans-30"/>
      </g>
     </g>
    </g>
   </g>
   <g id="line2d_11">
    <path clip-path="url(#p8e917ce182)" d="M 161.509091 208.062043 
L 161.841729 208.165714 
L 162.174367 226.053711 
L 162.507004 216.610206 
L 162.839642 202.878483 
L 163.17228 208.146865 
L 163.837556 248.277049 
L 164.170194 263.460169 
L 164.502832 258.191787 
L 164.835469 244.535461 
L 165.168107 313.712433 
L 165.500745 308.44405 
L 165.833383 311.33742 
L 166.498659 303.703449 
L 166.831297 325.361307 
L 167.163934 307.586407 
L 167.496572 327.33106 
L 168.161848 288.011397 
L 168.494486 300.923175 
L 168.827124 300.074956 
L 169.159762 303.759997 
L 169.492399 297.577422 
L 169.825037 293.892382 
L 170.157675 292.808547 
L 170.490313 273.063893 
L 170.822951 273.167564 
L 171.155589 256.561321 
L 171.488227 280.104111 
L 171.820864 278.143783 
L 172.818778 314.306186 
L 173.151416 294.561533 
L 173.484054 282.488549 
L 173.816692 282.59222 
L 174.149329 273.148715 
L 174.481967 273.045044 
L 174.814605 256.438801 
L 175.147243 273.045044 
L 175.479881 278.973152 
L 175.812519 275.024222 
L 176.145156 298.567011 
L 176.477794 302.515942 
L 176.810432 324.173801 
L 177.14307 333.617306 
L 177.808346 322.609308 
L 178.473621 357.329739 
L 178.806259 353.644699 
L 179.138897 204.603195 
L 179.471535 210.785769 
L 179.804173 198.109607 
L 180.136811 191.927033 
L 180.802086 221.548725 
L 181.467362 261.151128 
L 181.8 279.039125 
L 182.132638 278.935454 
L 182.465276 264.289539 
L 182.797914 270.217647 
L 183.463189 312.232762 
L 183.795827 312.336433 
L 184.128465 306.408325 
L 184.461103 282.865535 
L 185.126379 255.477486 
L 185.459016 251.076172 
L 185.791654 239.540393 
L 186.124292 240.624228 
L 186.45693 264.167018 
L 186.789568 279.350138 
L 187.122206 301.007997 
L 187.787481 313.11868 
L 188.120119 329.724923 
L 188.452757 323.796814 
L 188.785395 302.138956 
L 189.118033 320.743226 
L 189.450671 297.200436 
L 190.115946 276.993975 
L 190.448584 271.725592 
L 190.781222 249.89809 
L 191.11386 254.299404 
L 191.446498 237.693161 
L 191.779136 236.967462 
L 192.111773 246.410967 
L 192.777049 205.470263 
L 193.442325 233.640559 
L 193.774963 230.747189 
L 194.107601 212.972289 
L 194.772876 239.153982 
L 195.105514 262.20669 
L 195.438152 250.670911 
L 195.77079 268.445812 
L 196.103428 262.706197 
L 196.436066 282.45085 
L 196.768703 293.986629 
L 197.101341 281.07485 
L 197.433979 286.814466 
L 197.766617 282.413152 
L 198.099255 286.814466 
L 198.764531 325.248211 
L 199.429806 292.497533 
L 199.762444 297.765916 
L 200.095082 288.322411 
L 200.42772 271.716167 
L 200.760358 274.609537 
L 201.092996 271.716167 
L 201.425633 295.258957 
L 201.758271 279.764823 
L 202.090909 297.65282 
L 202.423547 275.825317 
L 202.756185 291.602191 
L 203.088823 287.200877 
L 203.421461 304.975777 
L 203.754098 285.231124 
L 204.086736 300.206901 
L 204.419374 284.430028 
L 205.08465 316.530405 
L 205.417288 304.994626 
L 205.749925 281.451837 
L 206.082563 284.345206 
L 206.415201 261.292498 
L 206.747839 261.188827 
L 207.080477 258.295458 
L 207.745753 221.935136 
L 208.07839 224.828506 
L 208.411028 232.961983 
L 208.743666 220.285822 
L 209.076304 219.201986 
L 209.408942 238.94664 
L 209.74158 232.764066 
L 210.074218 217.580945 
L 210.406855 218.664781 
L 210.739493 198.920127 
L 211.072131 196.026758 
L 211.404769 214.206919 
L 211.737407 220.389493 
L 212.070045 238.993763 
L 212.73532 206.572948 
L 213.067958 200.390374 
L 213.400596 177.337666 
L 213.733234 162.361888 
L 214.065872 177.337666 
L 214.39851 216.553658 
L 214.731148 218.268945 
L 215.063785 236.043846 
L 215.396423 238.937215 
L 215.729061 319.310678 
L 216.394337 274.600112 
L 216.726975 297.65282 
L 217.39225 331.100923 
L 218.057526 362.607546 
L 218.390164 348.875823 
L 218.722802 329.13117 
L 219.05544 324.729855 
L 219.388077 328.414896 
L 220.053353 363.653683 
L 220.385991 354.210178 
L 220.718629 353.126343 
L 221.051267 358.865958 
L 221.716542 357.292041 
L 222.04918 344.380262 
L 222.714456 305.833421 
L 223.047094 327.491279 
L 223.379732 312.308159 
L 224.377645 254.176883 
L 224.710283 239.201105 
L 225.042921 240.049324 
L 225.375559 242.942694 
L 225.708197 243.668392 
L 226.040835 256.58017 
L 226.70611 222.330972 
L 227.038748 230.46445 
L 227.371386 222.330972 
L 228.036662 252.668938 
L 229.034575 314.626625 
L 229.367213 300.894901 
L 229.699851 309.028379 
L 230.032489 287.200877 
L 230.365127 281.461261 
L 230.697765 297.238135 
L 231.030402 289.104657 
L 231.36304 289.000986 
L 231.695678 276.089208 
L 232.028316 280.490522 
L 232.360954 263.884279 
L 232.693592 259.482964 
L 233.02623 256.589595 
L 233.691505 286.107617 
L 234.024143 300.753531 
L 234.356781 294.825423 
L 234.689419 318.368213 
L 235.022057 333.551333 
L 235.354694 333.655004 
L 235.687332 352.259274 
L 236.01997 361.702779 
L 236.685246 332.184758 
L 237.017884 319.508596 
L 237.350522 332.420374 
L 237.683159 313.948049 
L 238.015797 327.679773 
L 238.348435 333.419388 
L 238.681073 314.815118 
L 239.013711 314.089419 
L 239.346349 290.546629 
L 239.678987 290.442958 
L 240.344262 255.515184 
L 240.6769 258.408554 
L 241.009538 281.461261 
L 241.342176 269.925483 
L 242.007452 300.395395 
L 242.340089 323.938184 
L 242.672727 328.339498 
L 243.005365 334.267607 
L 243.338003 352.871877 
L 243.670641 337.095004 
L 244.003279 333.146073 
L 244.335917 348.922946 
L 244.668554 349.026618 
L 245.001192 335.370292 
L 245.33383 343.503769 
L 245.666468 331.430786 
L 245.999106 226.817108 
L 246.331744 211.633988 
L 246.664382 215.319028 
L 246.997019 203.78325 
L 247.329657 209.711358 
L 247.662295 232.764066 
L 247.994933 220.087904 
L 248.327571 223.273437 
L 248.660209 236.185216 
L 249.325484 191.305006 
L 249.658122 191.408677 
L 249.99076 202.944455 
L 250.323398 181.286597 
L 250.656036 184.179966 
L 250.988674 164.435312 
L 251.653949 193.350156 
L 251.986587 187.422047 
L 252.319225 170.815804 
L 252.651863 166.866873 
L 252.984501 151.683753 
L 253.649776 191.286156 
L 253.982414 191.182485 
L 254.315052 197.110593 
L 254.980328 226.939628 
L 255.312966 225.855793 
L 255.645604 233.989271 
L 255.978241 238.390585 
L 256.310879 226.854807 
L 256.643517 221.586424 
L 256.976155 245.129214 
L 257.308793 257.805376 
L 257.641431 263.073758 
L 258.971982 206.836838 
L 259.30462 183.294048 
L 259.637258 184.377884 
L 259.969896 200.154757 
L 260.302534 194.226649 
L 260.635171 193.142813 
L 260.967809 175.367913 
L 261.300447 382.879981 
L 261.633085 363.135327 
L 261.965723 351.599549 
L 262.298361 351.495877 
L 262.630999 334.889634 
L 262.963636 330.940703 
L 263.628912 356.132808 
L 263.96155 350.2047 
L 264.626826 324.023006 
L 264.959463 322.939171 
L 265.292101 313.495666 
L 265.624739 335.323168 
L 265.957377 339.008209 
L 266.290015 325.351883 
L 266.955291 354.03111 
L 267.287928 359.299492 
L 267.620566 354.03111 
L 268.285842 315.597364 
L 268.61848 335.342018 
L 268.951118 320.36624 
L 269.283756 326.294348 
L 269.616393 310.800214 
L 269.949031 325.446129 
L 270.281669 232.801764 
L 270.614307 238.54138 
L 270.946945 232.801764 
L 271.279583 223.358259 
L 271.612221 229.286368 
L 271.944858 247.758693 
L 272.277496 234.846915 
L 272.610134 256.504773 
L 273.27541 246.835077 
L 273.940686 276.664112 
L 274.273323 255.006253 
L 274.605961 273.610523 
L 274.938599 270.717154 
L 275.271237 283.628932 
L 275.603875 283.525261 
L 275.936513 301.300161 
L 276.269151 302.14838 
L 276.601788 286.371507 
L 276.934426 290.056547 
L 277.267064 268.191346 
L 277.599702 268.917045 
L 277.93234 272.602085 
L 278.264978 289.208328 
L 278.597615 279.764823 
L 278.930253 289.208328 
L 279.262891 276.532166 
L 279.595529 275.806468 
L 279.928167 260.029594 
L 280.260805 236.976887 
L 280.593443 230.794313 
L 280.92608 236.976887 
L 281.591356 263.15858 
L 281.923994 276.070358 
L 282.256632 263.997374 
L 283.254545 212.633001 
L 283.587183 345.614892 
L 283.919821 330.431772 
L 284.252459 329.706074 
L 284.585097 341.241852 
L 284.917735 333.108374 
L 285.250373 348.291494 
L 285.915648 307.991667 
L 286.248286 314.174241 
L 286.580924 335.8321 
L 286.913562 312.779392 
L 287.2462 312.883063 
L 287.578838 299.226737 
L 287.911475 322.279445 
L 288.244113 309.603283 
L 288.576751 290.999013 
L 288.909389 279.463234 
L 289.242027 298.067505 
L 289.574665 292.139396 
L 289.907303 276.645262 
L 290.23994 270.462688 
L 290.572578 271.188387 
L 290.905216 279.321865 
L 291.237854 282.215234 
L 291.570492 274.081756 
L 291.90313 252.423897 
L 292.235768 256.108938 
L 292.568405 271.603072 
L 292.901043 267.654141 
L 293.233681 255.581157 
L 293.566319 265.024662 
L 294.231595 226.47782 
L 294.564232 240.134146 
L 294.89687 263.186854 
L 295.229508 262.461156 
L 295.562146 268.64373 
L 295.894784 259.200225 
L 296.227422 259.096554 
L 296.56006 245.36483 
L 296.892697 268.90762 
L 297.225335 281.583782 
L 297.557973 289.71726 
L 298.223249 253.224993 
L 298.555887 257.626307 
L 298.888525 234.083517 
L 299.5538 245.091515 
L 299.886438 236.958037 
L 300.219076 231.689655 
L 300.551714 230.60582 
L 300.884352 254.148609 
L 301.21699 304.099284 
L 302.214903 249.134693 
L 302.547541 237.598914 
L 303.212817 278.426522 
L 303.878092 314.918789 
L 304.21073 327.594951 
L 304.543368 305.937092 
L 304.876006 317.472871 
L 305.208644 321.157911 
L 305.541282 309.622132 
L 305.87392 333.164922 
L 306.206557 344.700701 
L 306.539195 333.164922 
L 306.871833 336.058291 
L 307.204471 347.59407 
L 307.537109 369.251929 
L 308.202385 345.643166 
L 308.535022 340.374784 
L 308.86766 355.350562 
L 309.532936 337.773579 
L 309.865574 336.689743 
L 310.198212 322.043829 
L 310.530849 318.358788 
L 310.863487 319.442624 
L 311.528763 291.790684 
L 311.861401 305.44701 
L 312.526677 264.619402 
L 312.859314 268.304442 
L 313.191952 252.810308 
L 313.52459 268.304442 
L 313.857228 268.200771 
L 314.189866 282.846686 
L 314.522504 302.591339 
L 314.855142 289.679561 
L 315.187779 297.813039 
L 315.520417 315.587939 
L 315.853055 293.930081 
L 316.185693 305.465859 
L 316.518331 302.57249 
L 316.850969 306.973804 
L 317.183607 298.840326 
L 318.18152 251.80187 
L 318.846796 282.761864 
L 319.179434 282.865535 
L 319.512072 281.7817 
L 319.844709 266.598579 
L 320.177347 265.872881 
L 320.509985 292.375013 
L 320.842623 291.649314 
L 321.175261 266.598579 
L 321.507899 262.197265 
L 322.173174 295.852711 
L 322.505812 301.121093 
L 322.83845 286.475178 
L 323.171088 287.559014 
L 323.503726 295.692491 
L 323.836364 294.608656 
L 324.169001 307.284818 
L 324.501639 311.686132 
L 324.834277 296.503012 
L 325.166915 291.234629 
L 325.499553 275.457756 
L 325.832191 276.305975 
L 326.164829 264.770196 
L 326.830104 276.221153 
L 327.162742 252.678363 
L 327.49538 248.729432 
L 327.828018 248.625761 
L 328.160656 264.119895 
L 328.493294 260.434855 
L 328.825931 261.51869 
L 329.158569 296.729203 
L 329.491207 278.841207 
L 329.823845 273.101592 
L 330.489121 236.260613 
L 330.821759 226.817108 
L 331.154396 331.430786 
L 331.487034 330.705087 
L 331.819672 345.680865 
L 332.15231 369.223655 
L 332.484948 359.78015 
L 332.817586 340.035496 
L 333.150224 343.984427 
L 333.482861 320.441637 
L 333.815499 316.040323 
L 334.148137 318.933692 
L 334.813413 365.52919 
L 335.146051 380.175104 
L 335.811326 368.064422 
L 336.143964 387.809076 
L 336.476602 393.737184 
L 336.80924 370.194394 
L 337.141878 354.70026 
L 337.807154 378.309023 
L 338.139791 381.994063 
L 339.470343 310.536324 
L 339.802981 302.402846 
L 340.135618 279.350138 
L 340.468256 297.125039 
L 340.800894 285.052055 
L 341.133532 281.103124 
L 341.46617 293.176108 
L 341.798808 289.491068 
L 342.131446 290.216766 
L 342.464083 289.368547 
L 342.796721 284.100165 
L 343.129359 284.203836 
L 343.461997 299.69797 
L 343.794635 300.546189 
L 344.127273 299.462354 
L 344.459911 303.863668 
L 344.792548 303.015449 
L 345.125186 288.039671 
L 345.457824 294.222245 
L 345.790462 307.134023 
L 346.1231 292.488108 
L 346.455738 306.144434 
L 347.121013 294.033752 
L 347.453651 317.08646 
L 347.786289 321.03539 
L 348.118927 320.931719 
L 348.451565 237.316174 
L 348.784203 252.499295 
L 349.116841 255.392664 
L 349.782116 265.08121 
L 350.114754 278.812933 
L 350.447392 275.127893 
L 350.78003 278.812933 
L 351.112668 269.369428 
L 351.445306 281.442412 
L 351.777943 303.269914 
L 352.110581 300.376545 
L 352.443219 294.193971 
L 352.775857 293.345752 
L 353.108495 288.07737 
L 353.441133 293.345752 
L 353.77377 311.120653 
L 354.106408 320.564158 
L 354.439046 324.965472 
L 355.104322 297.91671 
L 355.43696 317.661364 
L 356.434873 253.818746 
L 357.100149 245.468501 
L 357.432787 259.124827 
L 358.4307 310.460927 
L 358.763338 322.533911 
L 359.095976 346.0767 
L 359.428614 342.39166 
L 359.761252 326.614787 
L 360.426528 309.037804 
L 360.759165 294.391889 
L 361.091803 298.34082 
L 361.757079 264.760772 
L 362.089717 259.492389 
L 362.422355 263.177429 
L 363.08763 230.106313 
L 363.420268 230.954532 
L 363.752906 242.49031 
L 364.085544 264.317813 
L 364.418182 269.586195 
L 365.083458 259.709156 
L 365.416095 274.892276 
L 365.748733 253.064774 
L 366.081371 253.790472 
L 366.414009 257.739403 
L 366.746647 244.00768 
L 367.079285 240.322639 
L 367.411923 261.980498 
L 368.077198 288.388383 
L 368.409836 271.78214 
L 368.742474 294.834848 
L 369.075112 281.178522 
L 369.40775 287.361096 
L 369.740387 302.336874 
L 370.405663 310.423228 
L 370.738301 287.37052 
L 371.070939 272.1874 
L 371.403577 267.786086 
L 371.736215 284.392329 
L 372.068852 265.920004 
L 372.40149 279.57633 
L 372.734128 283.977644 
L 373.399404 325.502677 
L 373.732042 324.418842 
L 374.06468 310.762516 
L 374.397317 310.658845 
L 375.062593 274.307948 
L 375.395231 260.576224 
L 375.727869 237.523517 
L 376.060507 251.25524 
L 376.393145 227.71245 
L 376.725782 222.444068 
L 377.05842 244.27157 
L 377.391058 238.531955 
L 377.723696 223.556177 
L 378.056334 219.607246 
L 378.388972 213.424672 
L 378.72161 219.164288 
L 379.054247 219.267959 
L 379.386885 338.979935 
L 379.719523 326.068156 
L 380.052161 338.979935 
L 380.384799 324.33402 
L 380.717437 338.979935 
L 381.050075 337.896099 
L 381.382712 337.999771 
L 381.71535 322.81665 
L 382.047988 328.556266 
L 382.380626 324.607335 
L 382.713264 325.455554 
L 383.045902 325.351883 
L 383.378539 322.458513 
L 383.711177 314.325036 
L 384.043815 327.001197 
L 384.709091 286.852164 
L 385.041729 298.925148 
L 385.374367 302.610189 
L 385.707004 287.964274 
L 386.039642 281.7817 
L 386.37228 282.507398 
L 386.704918 288.689972 
L 387.037556 307.162297 
L 387.370194 306.314078 
L 387.702832 307.397914 
L 388.035469 306.672215 
L 388.368107 283.619507 
L 389.033383 324.937198 
L 389.366021 309.160324 
L 389.698659 313.109255 
L 390.031297 329.715498 
L 390.363934 317.642514 
L 390.696572 325.775992 
L 391.02921 319.847884 
L 391.361848 316.162843 
L 392.027124 280.499946 
L 392.359762 281.348165 
L 392.692399 287.276274 
L 393.357675 320.941144 
L 393.690313 303.053147 
L 394.022951 324.88065 
L 394.355589 325.606348 
L 395.020864 288.529753 
L 395.353502 282.790138 
L 395.68614 294.325916 
L 396.018778 315.983775 
L 396.684054 274.411619 
L 397.349329 314.014022 
L 397.681967 302.478243 
L 398.014605 305.371613 
L 398.679881 287.79463 
L 399.012519 297.238135 
L 399.345156 281.744001 
L 399.677794 286.145315 
L 400.010432 300.79123 
L 400.34307 295.522848 
L 400.675708 292.629478 
L 401.340984 265.307402 
L 401.673621 280.490522 
L 402.006259 279.406686 
L 402.338897 266.494908 
L 402.671535 260.5668 
L 403.004173 266.494908 
L 403.336811 252.838582 
L 404.334724 298.8686 
L 404.667362 277.041098 
L 405 271.112989 
L 405.332638 261.669485 
L 405.665276 240.011626 
L 405.997914 239.285927 
L 406.330551 233.103353 
L 406.663189 250.99135 
L 406.995827 259.124827 
L 407.328465 242.518584 
L 407.661103 243.244283 
L 407.993741 266.29699 
L 408.326379 248.52209 
L 408.659016 260.057868 
L 409.324292 271.508825 
L 409.989568 302.940052 
L 410.322206 312.383556 
L 410.654844 326.11528 
L 410.987481 322.166349 
L 411.320119 325.059718 
L 411.652757 302.007011 
L 411.985395 307.746626 
L 412.318033 250.501268 
L 413.315946 298.698957 
L 413.648584 301.592326 
L 413.981222 320.064651 
L 414.979136 267.493922 
L 415.311773 255.420938 
L 415.644411 255.317267 
L 415.977049 235.572613 
L 416.309687 253.460609 
L 416.642325 235.572613 
L 416.974963 234.488778 
L 417.307601 258.031567 
L 417.640238 245.355406 
L 417.972876 263.959676 
L 418.305514 265.043511 
L 418.638152 261.358471 
L 418.97079 243.58357 
L 419.303428 262.055895 
L 419.968703 220.040781 
L 420.301341 226.223355 
L 420.633979 211.57744 
L 420.966617 221.020945 
L 421.299255 199.363086 
L 421.964531 225.092396 
L 422.297168 228.777436 
L 422.629806 329.470457 
L 422.962444 335.398566 
L 423.295082 323.862787 
L 423.960358 287.502466 
L 424.292996 282.234083 
L 424.625633 281.508385 
L 424.958271 282.59222 
L 425.290909 281.508385 
L 425.956185 250.831131 
L 426.288823 242.697653 
L 426.621461 219.154863 
L 426.954098 213.415248 
L 427.286736 219.154863 
L 427.619374 213.226755 
L 427.952012 193.482101 
L 428.28465 205.017879 
L 428.617288 187.242979 
L 428.949925 187.968677 
L 429.947839 254.308828 
L 430.280477 241.632667 
L 430.945753 281.23507 
L 431.27839 275.495454 
L 431.611028 288.171616 
L 431.943666 306.775886 
L 432.608942 260.180389 
L 432.94158 266.362963 
L 433.274218 265.514744 
L 433.606855 273.648222 
L 433.939493 292.120547 
L 434.272131 304.193531 
L 434.604769 307.0869 
L 434.937407 316.530405 
L 435.270045 332.024539 
L 435.602683 331.29884 
L 435.93532 336.567223 
L 436.267958 328.433745 
L 436.933234 294.335341 
L 437.265872 295.061039 
L 438.263785 255.336116 
L 438.596423 267.4091 
L 438.929061 254.497322 
L 439.261699 253.771623 
L 439.594337 242.235845 
L 439.926975 255.147623 
L 440.59225 269.020716 
L 440.924888 247.193213 
L 441.257526 250.878254 
L 441.590164 266.061374 
L 441.922802 265.957703 
L 442.25544 271.885811 
L 442.588077 268.200771 
L 442.920715 283.694905 
L 443.253353 287.379945 
L 443.585991 272.196825 
L 443.918629 285.853151 
L 444.251267 309.395941 
L 444.583905 301.262463 
L 444.916542 305.211394 
L 445.24918 306.059613 
L 445.581818 300.319997 
L 445.914456 280.575344 
L 446.247094 271.131839 
L 446.579732 287.738082 
L 446.91237 270.509812 
L 447.245007 247.457104 
L 447.577645 265.232004 
L 448.242921 228.739738 
L 448.575559 240.812722 
L 448.908197 240.087023 
L 449.240835 239.983352 
L 449.573472 318.264542 
L 449.90611 317.538843 
L 450.238748 294.486135 
L 450.571386 314.230789 
L 450.904024 301.319011 
L 451.236662 301.21534 
L 451.5693 324.268047 
L 451.901937 333.711552 
L 452.234575 349.488426 
L 452.567213 349.592097 
L 452.899851 326.049307 
L 453.232489 320.121199 
L 453.565127 325.860814 
L 453.897765 320.121199 
L 454.230402 331.656977 
L 454.56304 325.474403 
L 454.895678 309.980269 
L 455.228316 311.064105 
L 455.560954 309.980269 
L 455.893592 292.092273 
L 456.22623 309.980269 
L 456.558867 296.248546 
L 456.891505 319.791336 
L 457.224143 334.974456 
L 457.556781 340.714071 
L 457.889419 336.765141 
L 458.222057 318.877144 
L 458.554694 313.137529 
L 458.887332 289.594739 
L 459.21997 290.678575 
L 459.552608 305.654352 
L 460.217884 270.443839 
L 460.550522 276.626413 
L 460.883159 261.650635 
L 461.548435 271.339181 
L 462.213711 316.709473 
L 462.878987 265.08121 
L 463.211624 280.858083 
L 463.8769 290.52778 
L 464.542176 257.664006 
L 464.874814 243.932283 
L 465.540089 285.504439 
L 465.872727 270.010305 
L 466.205365 264.741922 
L 466.538003 265.590141 
L 467.203279 311.262022 
L 467.535917 296.286245 
L 467.868554 318.113747 
L 468.201192 302.930627 
L 468.53383 298.981696 
L 468.866468 314.75857 
L 469.199106 319.159884 
L 469.531744 313.420269 
L 469.864382 326.09643 
L 470.197019 343.871331 
L 470.529657 330.215005 
L 470.862295 338.348483 
L 471.194933 319.744213 
L 471.527571 316.850843 
L 471.860209 302.204928 
L 472.192846 297.803614 
L 472.525484 300.696984 
L 472.858122 294.514409 
L 473.19076 291.62104 
L 473.856036 321.883609 
L 474.188674 312.440104 
L 474.521311 324.513088 
L 474.853949 308.736215 
L 475.186587 318.17972 
L 475.519225 318.076048 
L 475.851863 332.721963 
L 476.184501 338.461579 
L 476.517139 354.238452 
L 476.849776 344.794947 
L 477.515052 316.417309 
L 477.84769 325.860814 
L 478.180328 349.403604 
L 478.845604 312.081968 
L 479.178241 312.807666 
L 479.510879 299.15134 
L 479.843517 314.33446 
L 480.176155 336.161963 
L 480.508793 342.344537 
L 480.841431 332.901032 
L 481.174069 337.302346 
L 481.839344 369.638339 
L 482.171982 383.294666 
L 482.50462 360.241958 
L 482.837258 359.158122 
L 483.169896 335.615333 
L 483.502534 336.699168 
L 483.835171 335.97347 
L 484.500447 296.257971 
L 485.165723 331.496758 
L 485.498361 334.390127 
L 485.830999 338.339058 
L 486.496274 370.872969 
L 486.828912 352.268699 
L 487.16155 375.811489 
L 487.826826 367.725134 
L 488.824739 322.81665 
L 489.157377 326.501691 
L 489.490015 304.843832 
L 489.822653 301.950463 
L 490.487928 274.091181 
L 490.820566 292.695451 
L 491.153204 293.54367 
L 491.485842 292.695451 
L 492.151118 254.346527 
L 492.483756 303.901366 
L 492.816393 299.500052 
L 493.149031 311.035831 
L 493.481669 247.212063 
L 493.814307 265.816333 
L 494.146945 242.273543 
L 494.479583 243.121762 
L 494.812221 238.720448 
L 495.144858 253.903568 
L 495.477496 258.304882 
L 495.810134 267.748387 
L 496.142772 280.424549 
L 496.808048 269.416551 
L 497.473323 295.598245 
L 498.138599 334.03199 
L 498.471237 333.183771 
L 499.136513 298.689532 
L 499.469151 318.434185 
L 500.134426 310.083941 
L 500.467064 316.012049 
L 500.799702 314.928214 
L 501.13234 315.031885 
L 501.464978 293.204382 
L 501.797615 306.11616 
L 502.130253 252.131733 
L 502.462891 258.314307 
L 502.795529 241.708064 
L 503.128167 240.624228 
L 503.460805 317.623665 
L 504.12608 291.441972 
L 504.458718 314.494679 
L 504.791356 296.719779 
L 505.123994 302.459394 
L 505.456632 296.719779 
L 505.78927 296.719779 
L 506.121908 273.667071 
L 506.787183 239.879681 
L 507.119821 261.707183 
L 507.452459 249.031021 
L 507.785097 266.919018 
L 508.117735 272.1874 
L 509.115648 315.672761 
L 509.448286 301.026846 
L 509.780924 295.758464 
L 510.113562 310.404379 
L 510.4462 314.35331 
L 510.778838 332.12821 
L 511.111475 318.471884 
L 511.444113 321.365253 
L 511.776751 303.590353 
L 512.109389 254.657541 
L 512.442027 264.101046 
L 512.774665 281.989042 
L 513.107303 263.384772 
L 513.43994 264.468607 
L 514.105216 223.527903 
L 514.437854 242.132173 
L 514.770492 242.132173 
L 515.10313 230.596395 
L 515.435768 211.992125 
L 515.768405 211.143906 
L 516.433681 241.481872 
L 516.766319 237.080558 
L 517.098957 255.552883 
L 517.431595 238.94664 
L 517.764232 215.40385 
L 518.09687 219.352781 
L 518.429508 231.425765 
L 519.094784 199.221716 
L 519.427422 193.039142 
L 519.76006 205.95092 
L 520.425335 239.201105 
L 521.090611 202.821935 
L 521.423249 208.750043 
L 521.755887 208.853714 
L 522.088525 226.628615 
L 522.421162 220.700506 
L 522.7538 244.243296 
L 523.086438 244.243296 
L 523.419076 248.64461 
L 523.751714 243.376228 
L 524.084352 244.224447 
L 524.41699 257.95617 
L 524.749627 243.310255 
L 525.082265 242.462036 
L 525.414903 242.358365 
L 525.747541 236.61875 
L 526.080179 237.466969 
L 526.412817 245.600447 
L 526.745455 250.868829 
L 527.078092 227.326039 
L 527.743368 262.253813 
L 528.076006 252.810308 
L 528.741282 286.192438 
L 529.07392 271.216661 
L 529.406557 274.901701 
L 529.739195 255.157047 
L 530.071833 260.896663 
L 530.737109 229.276943 
L 531.069747 238.720448 
L 531.402385 257.324718 
L 531.735022 263.507292 
L 532.06766 248.013158 
L 532.732936 237.872229 
L 533.065574 252.518144 
L 533.398212 244.384666 
L 534.063487 282.818412 
L 534.396125 276.635838 
L 534.728763 275.910139 
L 535.061401 275.910139 
L 535.394039 271.961208 
L 535.726677 254.186308 
L 536.059314 248.917925 
L 536.391952 257.051403 
L 536.72459 255.967568 
L 537.057228 261.895676 
L 537.389866 243.291406 
L 537.722504 243.291406 
L 538.055142 254.827185 
L 538.387779 246.693707 
L 539.053055 203.208346 
L 539.385693 206.761441 
L 539.718331 206.761441 
L 540.050969 224.649437 
L 540.383607 216.186096 
L 540.716244 204.113113 
L 541.048882 200.428072 
L 541.714158 200.428072 
L 542.046796 208.56155 
L 542.379434 197.025772 
L 542.712072 194.631909 
L 543.044709 212.604727 
L 543.377347 216.289768 
L 543.709985 216.289768 
L 544.042623 230.520998 
L 544.375261 234.469928 
L 544.707899 256.127787 
L 545.040537 252.178856 
L 545.373174 270.783127 
L 545.705812 262.649649 
L 546.03845 295.598245 
L 546.703726 283.930521 
L 547.036364 279.98159 
L 547.369001 279.133371 
L 547.701639 292.789697 
L 548.034277 298.529313 
L 548.366915 283.883398 
L 548.699553 283.987069 
L 549.032191 282.903234 
L 549.364829 283.751453 
L 550.030104 242.320666 
L 550.362742 243.404502 
L 551.028018 253.733924 
L 551.360656 247.994309 
L 551.693294 265.882306 
L 552.025931 272.06488 
L 552.358569 266.136771 
L 552.691207 246.392118 
L 553.023845 311.855776 
L 553.356483 296.361642 
L 553.689121 297.08734 
L 554.021759 273.544551 
L 554.354396 276.43792 
L 554.687034 276.43792 
L 555.019672 280.839234 
L 555.35231 302.666737 
L 555.684948 289.990575 
L 556.350224 291.922629 
L 556.682861 315.465419 
L 557.015499 315.465419 
L 557.680775 278.454796 
L 558.013413 286.588274 
L 558.346051 285.504439 
L 558.678689 279.764823 
L 559.011326 294.947944 
L 559.343964 271.405154 
L 559.676602 272.488989 
L 560.00924 290.26389 
L 560.341878 280.820385 
L 560.674516 279.972166 
L 561.007154 260.227512 
L 561.339791 259.501814 
L 561.672429 279.246467 
L 562.337705 249.087569 
L 562.670343 249.087569 
L 563.002981 264.270689 
L 563.668256 226.751135 
L 564.000894 223.066095 
L 564.333532 238.842969 
L 564.66617 238.842969 
L 564.998808 222.236725 
L 565.664083 248.748282 
L 565.996721 230.144011 
L 566.329359 242.820173 
L 566.661997 243.668392 
L 566.994635 222.010534 
L 567.327273 237.504667 
L 567.659911 222.010534 
L 567.992548 219.117164 
L 568.325186 232.77349 
L 568.657824 231.689655 
L 568.990462 237.42927 
L 569.3231 237.42927 
L 569.655738 229.295792 
L 569.988376 244.789926 
L 570.321013 244.789926 
L 570.653651 233.254148 
L 570.986289 251.726473 
L 571.318927 252.452171 
L 571.651565 248.503241 
L 571.984203 251.39661 
L 572.316841 248.503241 
L 572.649478 234.846915 
L 573.314754 234.846915 
L 573.647392 238.531955 
L 573.98003 256.419951 
L 574.312668 240.643078 
L 574.645306 234.903463 
L 575.310581 202.369551 
L 575.643219 202.369551 
L 575.975857 205.262921 
L 576.308495 192.586759 
L 576.641133 207.232674 
L 576.97377 207.232674 
L 577.306408 204.339304 
L 577.639046 224.083958 
L 577.971684 219.682644 
L 578.304322 219.682644 
L 578.63696 225.422259 
L 579.302235 225.422259 
L 579.634873 238.098421 
L 579.967511 234.41338 
L 580.300149 248.069706 
L 581.298063 248.069706 
L 581.6307 233.423792 
L 581.963338 233.423792 
L 582.295976 220.512013 
L 582.628614 224.913328 
L 582.961252 201.86062 
L 583.29389 201.964291 
L 583.626528 218.570534 
L 583.959165 218.570534 
L 584.291803 226.704012 
L 584.624441 226.600341 
L 584.957079 211.417221 
L 585.954993 211.417221 
L 586.28763 217.599795 
L 586.620268 202.105661 
L 586.952906 197.704347 
L 587.285544 194.839251 
L 587.618182 189.099636 
L 588.283458 189.099636 
L 588.616095 193.50095 
L 588.948733 193.50095 
L 589.281371 175.028625 
L 589.614009 180.768241 
L 589.946647 180.768241 
L 590.279285 175.028625 
L 590.611923 175.028625 
L 590.94456 170.627311 
L 591.277198 174.576242 
L 591.609836 188.307965 
L 591.942474 188.307965 
L 592.275112 168.563311 
L 592.940387 202.218757 
L 593.273025 202.218757 
L 593.605663 201.493058 
L 593.938301 201.493058 
L 594.270939 184.886815 
L 594.603577 184.990486 
L 594.936215 179.722104 
L 595.268852 179.722104 
L 595.60149 182.615473 
L 595.934128 176.432899 
L 596.266766 175.58468 
L 596.599404 198.637388 
L 596.932042 199.363086 
L 597.26468 193.434978 
L 597.597317 215.092836 
L 597.929955 215.092836 
L 598.262593 229.738751 
L 598.595231 229.738751 
L 598.927869 215.092836 
L 599.260507 215.092836 
L 599.593145 218.777877 
L 599.925782 218.674205 
L 600.25842 236.562202 
L 600.591058 242.744776 
L 600.923696 242.744776 
L 601.256334 248.484391 
L 601.588972 235.808229 
L 601.92161 236.892065 
L 602.586885 236.892065 
L 602.919523 215.234206 
L 603.252161 215.234206 
L 603.584799 230.72834 
L 603.917437 230.72834 
L 604.250075 252.386199 
L 604.91535 252.48987 
L 605.580626 252.48987 
L 605.913264 272.234523 
L 606.245902 266.051949 
L 606.578539 262.103019 
L 606.911177 262.103019 
L 607.243815 240.44516 
L 607.576453 255.091075 
L 607.909091 255.091075 
L 608.574367 293.355177 
L 608.907004 277.861043 
L 609.239642 274.176003 
L 609.57228 278.124933 
L 610.570194 229.672779 
L 610.902832 226.779409 
L 611.568107 226.779409 
L 611.900745 224.866204 
L 612.233383 239.841982 
L 612.566021 247.42883 
L 612.898659 250.614363 
L 613.231297 234.00812 
L 613.563934 234.00812 
L 613.896572 232.924285 
L 614.22921 232.924285 
L 614.561848 234.00812 
L 616.225037 234.00812 
L 616.557675 239.276503 
L 616.890313 262.819293 
L 617.222951 262.819293 
L 617.555589 261.735457 
L 618.220864 261.735457 
L 618.553502 240.077598 
L 618.88614 246.005707 
L 619.218778 258.078691 
L 619.884054 258.078691 
L 620.216692 252.810308 
L 620.881967 217.882534 
L 621.214605 202.906757 
L 621.547243 203.754976 
L 621.879881 197.826867 
L 622.212519 197.826867 
L 622.545156 202.228181 
L 622.877794 184.340185 
L 623.210432 184.340185 
L 623.54307 169.69427 
L 623.875708 169.69427 
L 624.208346 182.606048 
L 624.873621 182.606048 
L 625.206259 170.533065 
L 625.538897 170.533065 
L 625.871535 156.876738 
L 627.867362 156.876738 
L 628.2 159.770108 
L 628.532638 159.770108 
L 628.865276 159.044409 
L 631.193741 159.044409 
L 631.526379 162.72945 
L 631.859016 167.997832 
L 632.524292 167.894161 
L 632.85693 168.619859 
L 633.189568 145.07707 
L 637.181222 145.07707 
L 637.51386 141.392029 
L 639.509687 141.392029 
L 639.842325 135.652414 
L 640.507601 135.652414 
L 640.840238 152.258657 
L 641.838152 152.258657 
L 642.17079 162.503258 
L 644.166617 162.503258 
L 644.499255 139.45055 
L 645.497168 139.45055 
L 645.829806 146.519042 
L 646.162444 146.519042 
L 646.495082 131.863702 
L 656.14158 131.967374 
L 656.474218 128.018443 
L 657.804769 128.018443 
L 658.137407 127.151375 
L 659.467958 127.151375 
L 659.800596 120.638938 
L 662.129061 120.638938 
L 662.461699 121.722773 
L 662.794337 121.722773 
L 663.126975 105.11653 
L 664.124888 105.11653 
L 664.457526 92.204752 
L 676.432489 92.204752 
L 676.765127 101.648256 
L 680.756781 101.648256 
L 681.089419 105.333297 
L 694.062295 105.333297 
L 694.394933 101.648256 
L 703.376155 101.648256 
L 703.708793 92.204752 
L 750.278092 92.204752 
L 750.61073 89.339656 
L 776.889121 89.339656 
L 777.221759 88.887273 
L 871.690909 88.887273 
L 871.690909 88.887273 
" style="fill:none;stroke:#8dd3c7;stroke-linecap:square;stroke-width:1.5;"/>
   </g>
   <g id="line2d_12">
    <path clip-path="url(#p8e917ce182)" d="M 161.509091 208.062043 
L 162.507004 208.062043 
L 162.839642 202.878483 
L 179.471535 202.878483 
L 180.136811 191.927033 
L 213.067958 191.927033 
L 213.733234 162.361888 
L 252.651863 162.361888 
L 252.984501 151.683753 
L 632.85693 151.683753 
L 633.189568 145.07707 
L 637.181222 145.07707 
L 637.51386 141.392029 
L 639.509687 141.392029 
L 639.842325 135.652414 
L 646.162444 135.652414 
L 646.495082 131.863702 
L 656.14158 131.863702 
L 656.474218 128.018443 
L 657.804769 128.018443 
L 658.137407 127.151375 
L 659.467958 127.151375 
L 659.800596 120.638938 
L 662.794337 120.638938 
L 663.126975 105.11653 
L 664.124888 105.11653 
L 664.457526 92.204752 
L 750.278092 92.204752 
L 750.61073 89.339656 
L 776.889121 89.339656 
L 777.221759 88.887273 
L 871.690909 88.887273 
L 871.690909 88.887273 
" style="fill:none;stroke:#feffb3;stroke-linecap:square;stroke-width:1.5;"/>
   </g>
   <g id="line2d_13">
    <path clip-path="url(#p8e917ce182)" d="M 161.509091 290.913248 
L 163.837556 290.913248 
L 164.170194 305.848204 
L 166.498659 305.848204 
L 166.831297 319.629355 
L 169.159762 319.629355 
L 169.492399 332.345839 
L 171.820864 332.345839 
L 172.153502 344.079907 
L 174.481967 344.079907 
L 174.814605 354.907456 
L 177.14307 354.907456 
L 177.475708 364.898519 
L 179.804173 364.898519 
L 180.136811 374.11772 
L 182.465276 374.11772 
L 182.797914 382.624688 
L 185.126379 382.624688 
L 185.459016 390.474448 
L 187.787481 390.474448 
L 188.120119 397.717773 
L 190.448584 397.717773 
L 190.781222 404.401512 
L 193.109687 404.401512 
L 193.442325 410.568897 
L 195.77079 410.568897 
L 196.103428 416.259819 
L 198.431893 416.259819 
L 198.764531 421.511087 
L 201.092996 421.511087 
L 201.425633 426.356666 
L 203.754098 426.356666 
L 204.086736 430.827899 
L 206.415201 430.827899 
L 206.747839 434.953705 
L 209.076304 434.953705 
L 209.408942 438.760771 
L 211.737407 438.760771 
L 212.070045 442.273721 
L 214.39851 442.273721 
L 214.731148 445.515277 
L 217.059613 445.515277 
L 217.39225 448.506405 
L 219.720715 448.506405 
L 220.053353 451.266453 
L 222.381818 451.266453 
L 222.714456 453.813273 
L 225.042921 453.813273 
L 225.375559 456.163337 
L 227.704024 456.163337 
L 228.036662 458.331846 
L 230.365127 458.331846 
L 230.697765 460.332827 
L 233.02623 460.332827 
L 233.358867 462.179221 
L 235.687332 462.179221 
L 236.01997 463.882971 
L 238.348435 463.882971 
L 238.681073 465.455098 
L 241.009538 465.455098 
L 241.342176 466.90577 
L 243.670641 466.90577 
L 244.003279 468.244369 
L 246.331744 468.244369 
L 246.664382 469.479554 
L 248.992846 469.479554 
L 249.325484 470.619315 
L 251.653949 470.619315 
L 251.986587 471.671024 
L 254.315052 471.671024 
L 254.64769 472.641482 
L 256.976155 472.641482 
L 257.308793 473.536967 
L 259.637258 473.536967 
L 259.969896 474.363271 
L 262.298361 474.363271 
L 262.630999 475.125739 
L 264.959463 475.125739 
L 265.292101 475.829302 
L 267.620566 475.829302 
L 267.953204 476.478512 
L 270.281669 476.478512 
L 270.614307 477.077566 
L 272.942772 477.077566 
L 273.27541 477.63034 
L 275.603875 477.63034 
L 275.936513 478.140409 
L 278.264978 478.140409 
L 278.597615 478.611073 
L 280.92608 478.611073 
L 281.258718 479.045376 
L 283.587183 479.045376 
L 283.919821 479.446126 
L 286.248286 479.446126 
L 286.580924 479.815917 
L 288.909389 479.815917 
L 289.242027 480.157139 
L 291.570492 480.157139 
L 291.90313 480.472 
L 294.231595 480.472 
L 294.564232 480.762536 
L 296.892697 480.762536 
L 297.225335 481.030626 
L 299.5538 481.030626 
L 299.886438 481.278006 
L 302.214903 481.278006 
L 302.547541 481.506274 
L 304.876006 481.506274 
L 305.208644 481.716907 
L 307.537109 481.716907 
L 307.869747 481.911267 
L 310.198212 481.911267 
L 310.530849 482.090612 
L 312.859314 482.090612 
L 313.191952 482.256102 
L 315.520417 482.256102 
L 315.853055 482.408807 
L 318.18152 482.408807 
L 318.514158 482.549714 
L 320.842623 482.549714 
L 321.175261 482.679736 
L 323.503726 482.679736 
L 323.836364 482.799713 
L 328.825931 482.910421 
L 329.491207 483.012576 
L 334.148137 483.106839 
L 334.813413 483.19382 
L 339.470343 483.274081 
L 340.135618 483.348142 
L 344.792548 483.416481 
L 345.457824 483.47954 
L 350.114754 483.537728 
L 351.112668 483.59142 
L 358.098063 483.686681 
L 359.095976 483.728866 
L 368.742474 483.836855 
L 370.073025 483.867438 
L 382.047988 483.9679 
L 384.043815 483.988359 
L 403.336811 484.093535 
L 407.328465 484.114211 
L 499.136513 484.225026 
L 564.66617 484.231696 
L 871.690909 484.232727 
L 871.690909 484.232727 
" style="fill:none;stroke:#bfbbd9;stroke-linecap:square;stroke-width:1.5;"/>
   </g>
   <g id="patch_3">
    <path d="M 126 504 
L 126 69.12 
" style="fill:none;stroke:#ffffff;stroke-linecap:square;stroke-linejoin:miter;stroke-width:0.8;"/>
   </g>
   <g id="patch_4">
    <path d="M 907.2 504 
L 907.2 69.12 
" style="fill:none;stroke:#ffffff;stroke-linecap:square;stroke-linejoin:miter;stroke-width:0.8;"/>
   </g>
   <g id="patch_5">
    <path d="M 126 504 
L 907.2 504 
" style="fill:none;stroke:#ffffff;stroke-linecap:square;stroke-linejoin:miter;stroke-width:0.8;"/>
   </g>
   <g id="patch_6">
    <path d="M 126 69.12 
L 907.2 69.12 
" style="fill:none;stroke:#ffffff;stroke-linecap:square;stroke-linejoin:miter;stroke-width:0.8;"/>
   </g>
   <g id="text_12">
    <!-- instance 19 with error 0.0021883920076117835 -->
    <g style="fill:#ffffff;" transform="translate(370.411875 63.12)scale(0.12 -0.12)">
     <defs>
      <path d="M 2834 3397 
L 2834 2853 
Q 2591 2978 2328 3040 
Q 2066 3103 1784 3103 
Q 1356 3103 1142 2972 
Q 928 2841 928 2578 
Q 928 2378 1081 2264 
Q 1234 2150 1697 2047 
L 1894 2003 
Q 2506 1872 2764 1633 
Q 3022 1394 3022 966 
Q 3022 478 2636 193 
Q 2250 -91 1575 -91 
Q 1294 -91 989 -36 
Q 684 19 347 128 
L 347 722 
Q 666 556 975 473 
Q 1284 391 1588 391 
Q 1994 391 2212 530 
Q 2431 669 2431 922 
Q 2431 1156 2273 1281 
Q 2116 1406 1581 1522 
L 1381 1569 
Q 847 1681 609 1914 
Q 372 2147 372 2553 
Q 372 3047 722 3315 
Q 1072 3584 1716 3584 
Q 2034 3584 2315 3537 
Q 2597 3491 2834 3397 
z
" id="DejaVuSans-73" transform="scale(0.015625)"/>
      <path d="M 3122 3366 
L 3122 2828 
Q 2878 2963 2633 3030 
Q 2388 3097 2138 3097 
Q 1578 3097 1268 2742 
Q 959 2388 959 1747 
Q 959 1106 1268 751 
Q 1578 397 2138 397 
Q 2388 397 2633 464 
Q 2878 531 3122 666 
L 3122 134 
Q 2881 22 2623 -34 
Q 2366 -91 2075 -91 
Q 1284 -91 818 406 
Q 353 903 353 1747 
Q 353 2603 823 3093 
Q 1294 3584 2113 3584 
Q 2378 3584 2631 3529 
Q 2884 3475 3122 3366 
z
" id="DejaVuSans-63" transform="scale(0.015625)"/>
      <path id="DejaVuSans-20" transform="scale(0.015625)"/>
      <path d="M 703 97 
L 703 672 
Q 941 559 1184 500 
Q 1428 441 1663 441 
Q 2288 441 2617 861 
Q 2947 1281 2994 2138 
Q 2813 1869 2534 1725 
Q 2256 1581 1919 1581 
Q 1219 1581 811 2004 
Q 403 2428 403 3163 
Q 403 3881 828 4315 
Q 1253 4750 1959 4750 
Q 2769 4750 3195 4129 
Q 3622 3509 3622 2328 
Q 3622 1225 3098 567 
Q 2575 -91 1691 -91 
Q 1453 -91 1209 -44 
Q 966 3 703 97 
z
M 1959 2075 
Q 2384 2075 2632 2365 
Q 2881 2656 2881 3163 
Q 2881 3666 2632 3958 
Q 2384 4250 1959 4250 
Q 1534 4250 1286 3958 
Q 1038 3666 1038 3163 
Q 1038 2656 1286 2365 
Q 1534 2075 1959 2075 
z
" id="DejaVuSans-39" transform="scale(0.015625)"/>
      <path d="M 269 3500 
L 844 3500 
L 1563 769 
L 2278 3500 
L 2956 3500 
L 3675 769 
L 4391 3500 
L 4966 3500 
L 4050 0 
L 3372 0 
L 2619 2869 
L 1863 0 
L 1184 0 
L 269 3500 
z
" id="DejaVuSans-77" transform="scale(0.015625)"/>
      <path d="M 3513 2113 
L 3513 0 
L 2938 0 
L 2938 2094 
Q 2938 2591 2744 2837 
Q 2550 3084 2163 3084 
Q 1697 3084 1428 2787 
Q 1159 2491 1159 1978 
L 1159 0 
L 581 0 
L 581 4863 
L 1159 4863 
L 1159 2956 
Q 1366 3272 1645 3428 
Q 1925 3584 2291 3584 
Q 2894 3584 3203 3211 
Q 3513 2838 3513 2113 
z
" id="DejaVuSans-68" transform="scale(0.015625)"/>
      <path d="M 684 794 
L 1344 794 
L 1344 0 
L 684 0 
L 684 794 
z
" id="DejaVuSans-2e" transform="scale(0.015625)"/>
      <path d="M 2034 2216 
Q 1584 2216 1326 1975 
Q 1069 1734 1069 1313 
Q 1069 891 1326 650 
Q 1584 409 2034 409 
Q 2484 409 2743 651 
Q 3003 894 3003 1313 
Q 3003 1734 2745 1975 
Q 2488 2216 2034 2216 
z
M 1403 2484 
Q 997 2584 770 2862 
Q 544 3141 544 3541 
Q 544 4100 942 4425 
Q 1341 4750 2034 4750 
Q 2731 4750 3128 4425 
Q 3525 4100 3525 3541 
Q 3525 3141 3298 2862 
Q 3072 2584 2669 2484 
Q 3125 2378 3379 2068 
Q 3634 1759 3634 1313 
Q 3634 634 3220 271 
Q 2806 -91 2034 -91 
Q 1263 -91 848 271 
Q 434 634 434 1313 
Q 434 1759 690 2068 
Q 947 2378 1403 2484 
z
M 1172 3481 
Q 1172 3119 1398 2916 
Q 1625 2713 2034 2713 
Q 2441 2713 2670 2916 
Q 2900 3119 2900 3481 
Q 2900 3844 2670 4047 
Q 2441 4250 2034 4250 
Q 1625 4250 1398 4047 
Q 1172 3844 1172 3481 
z
" id="DejaVuSans-38" transform="scale(0.015625)"/>
      <path d="M 525 4666 
L 3525 4666 
L 3525 4397 
L 1831 0 
L 1172 0 
L 2766 4134 
L 525 4134 
L 525 4666 
z
" id="DejaVuSans-37" transform="scale(0.015625)"/>
      <path d="M 2113 2584 
Q 1688 2584 1439 2293 
Q 1191 2003 1191 1497 
Q 1191 994 1439 701 
Q 1688 409 2113 409 
Q 2538 409 2786 701 
Q 3034 994 3034 1497 
Q 3034 2003 2786 2293 
Q 2538 2584 2113 2584 
z
M 3366 4563 
L 3366 3988 
Q 3128 4100 2886 4159 
Q 2644 4219 2406 4219 
Q 1781 4219 1451 3797 
Q 1122 3375 1075 2522 
Q 1259 2794 1537 2939 
Q 1816 3084 2150 3084 
Q 2853 3084 3261 2657 
Q 3669 2231 3669 1497 
Q 3669 778 3244 343 
Q 2819 -91 2113 -91 
Q 1303 -91 875 529 
Q 447 1150 447 2328 
Q 447 3434 972 4092 
Q 1497 4750 2381 4750 
Q 2619 4750 2861 4703 
Q 3103 4656 3366 4563 
z
" id="DejaVuSans-36" transform="scale(0.015625)"/>
     </defs>
     <use xlink:href="#DejaVuSans-69"/>
     <use x="27.783203" xlink:href="#DejaVuSans-6e"/>
     <use x="91.162109" xlink:href="#DejaVuSans-73"/>
     <use x="143.261719" xlink:href="#DejaVuSans-74"/>
     <use x="182.470703" xlink:href="#DejaVuSans-61"/>
     <use x="243.75" xlink:href="#DejaVuSans-6e"/>
     <use x="307.128906" xlink:href="#DejaVuSans-63"/>
     <use x="362.109375" xlink:href="#DejaVuSans-65"/>
     <use x="423.632812" xlink:href="#DejaVuSans-20"/>
     <use x="455.419922" xlink:href="#DejaVuSans-31"/>
     <use x="519.042969" xlink:href="#DejaVuSans-39"/>
     <use x="582.666016" xlink:href="#DejaVuSans-20"/>
     <use x="614.453125" xlink:href="#DejaVuSans-77"/>
     <use x="696.240234" xlink:href="#DejaVuSans-69"/>
     <use x="724.023438" xlink:href="#DejaVuSans-74"/>
     <use x="763.232422" xlink:href="#DejaVuSans-68"/>
     <use x="826.611328" xlink:href="#DejaVuSans-20"/>
     <use x="858.398438" xlink:href="#DejaVuSans-65"/>
     <use x="919.921875" xlink:href="#DejaVuSans-72"/>
     <use x="959.285156" xlink:href="#DejaVuSans-72"/>
     <use x="998.148438" xlink:href="#DejaVuSans-6f"/>
     <use x="1059.330078" xlink:href="#DejaVuSans-72"/>
     <use x="1100.443359" xlink:href="#DejaVuSans-20"/>
     <use x="1132.230469" xlink:href="#DejaVuSans-30"/>
     <use x="1195.853516" xlink:href="#DejaVuSans-2e"/>
     <use x="1227.640625" xlink:href="#DejaVuSans-30"/>
     <use x="1291.263672" xlink:href="#DejaVuSans-30"/>
     <use x="1354.886719" xlink:href="#DejaVuSans-32"/>
     <use x="1418.509766" xlink:href="#DejaVuSans-31"/>
     <use x="1482.132812" xlink:href="#DejaVuSans-38"/>
     <use x="1545.755859" xlink:href="#DejaVuSans-38"/>
     <use x="1609.378906" xlink:href="#DejaVuSans-33"/>
     <use x="1673.001953" xlink:href="#DejaVuSans-39"/>
     <use x="1736.625" xlink:href="#DejaVuSans-32"/>
     <use x="1800.248047" xlink:href="#DejaVuSans-30"/>
     <use x="1863.871094" xlink:href="#DejaVuSans-30"/>
     <use x="1927.494141" xlink:href="#DejaVuSans-37"/>
     <use x="1991.117188" xlink:href="#DejaVuSans-36"/>
     <use x="2054.740234" xlink:href="#DejaVuSans-31"/>
     <use x="2118.363281" xlink:href="#DejaVuSans-31"/>
     <use x="2181.986328" xlink:href="#DejaVuSans-37"/>
     <use x="2245.609375" xlink:href="#DejaVuSans-38"/>
     <use x="2309.232422" xlink:href="#DejaVuSans-33"/>
     <use x="2372.855469" xlink:href="#DejaVuSans-35"/>
    </g>
   </g>
   <g id="legend_1">
    <g id="patch_7">
     <path d="M 805.348438 499 
L 900.2 499 
Q 902.2 499 902.2 497 
L 902.2 453.965625 
Q 902.2 451.965625 900.2 451.965625 
L 805.348438 451.965625 
Q 803.348438 451.965625 803.348438 453.965625 
L 803.348438 497 
Q 803.348438 499 805.348438 499 
z
" style="opacity:0.8;stroke:#cccccc;stroke-linejoin:miter;"/>
    </g>
    <g id="line2d_14">
     <path d="M 807.348438 460.064062 
L 827.348438 460.064062 
" style="fill:none;stroke:#8dd3c7;stroke-linecap:square;stroke-width:1.5;"/>
    </g>
    <g id="line2d_15"/>
    <g id="text_13">
     <!-- cost -->
     <g style="fill:#ffffff;" transform="translate(835.348438 463.564062)scale(0.1 -0.1)">
      <use xlink:href="#DejaVuSans-63"/>
      <use x="54.980469" xlink:href="#DejaVuSans-6f"/>
      <use x="116.162109" xlink:href="#DejaVuSans-73"/>
      <use x="168.261719" xlink:href="#DejaVuSans-74"/>
     </g>
    </g>
    <g id="line2d_16">
     <path d="M 807.348438 474.742188 
L 827.348438 474.742188 
" style="fill:none;stroke:#feffb3;stroke-linecap:square;stroke-width:1.5;"/>
    </g>
    <g id="line2d_17"/>
    <g id="text_14">
     <!-- best cost -->
     <g style="fill:#ffffff;" transform="translate(835.348438 478.242188)scale(0.1 -0.1)">
      <defs>
       <path d="M 3116 1747 
Q 3116 2381 2855 2742 
Q 2594 3103 2138 3103 
Q 1681 3103 1420 2742 
Q 1159 2381 1159 1747 
Q 1159 1113 1420 752 
Q 1681 391 2138 391 
Q 2594 391 2855 752 
Q 3116 1113 3116 1747 
z
M 1159 2969 
Q 1341 3281 1617 3432 
Q 1894 3584 2278 3584 
Q 2916 3584 3314 3078 
Q 3713 2572 3713 1747 
Q 3713 922 3314 415 
Q 2916 -91 2278 -91 
Q 1894 -91 1617 61 
Q 1341 213 1159 525 
L 1159 0 
L 581 0 
L 581 4863 
L 1159 4863 
L 1159 2969 
z
" id="DejaVuSans-62" transform="scale(0.015625)"/>
      </defs>
      <use xlink:href="#DejaVuSans-62"/>
      <use x="63.476562" xlink:href="#DejaVuSans-65"/>
      <use x="125" xlink:href="#DejaVuSans-73"/>
      <use x="177.099609" xlink:href="#DejaVuSans-74"/>
      <use x="216.308594" xlink:href="#DejaVuSans-20"/>
      <use x="248.095703" xlink:href="#DejaVuSans-63"/>
      <use x="303.076172" xlink:href="#DejaVuSans-6f"/>
      <use x="364.257812" xlink:href="#DejaVuSans-73"/>
      <use x="416.357422" xlink:href="#DejaVuSans-74"/>
     </g>
    </g>
    <g id="line2d_18">
     <path d="M 807.348438 489.420313 
L 827.348438 489.420313 
" style="fill:none;stroke:#bfbbd9;stroke-linecap:square;stroke-width:1.5;"/>
    </g>
    <g id="line2d_19"/>
    <g id="text_15">
     <!-- temperature -->
     <g style="fill:#ffffff;" transform="translate(835.348438 492.920313)scale(0.1 -0.1)">
      <defs>
       <path d="M 3328 2828 
Q 3544 3216 3844 3400 
Q 4144 3584 4550 3584 
Q 5097 3584 5394 3201 
Q 5691 2819 5691 2113 
L 5691 0 
L 5113 0 
L 5113 2094 
Q 5113 2597 4934 2840 
Q 4756 3084 4391 3084 
Q 3944 3084 3684 2787 
Q 3425 2491 3425 1978 
L 3425 0 
L 2847 0 
L 2847 2094 
Q 2847 2600 2669 2842 
Q 2491 3084 2119 3084 
Q 1678 3084 1418 2786 
Q 1159 2488 1159 1978 
L 1159 0 
L 581 0 
L 581 3500 
L 1159 3500 
L 1159 2956 
Q 1356 3278 1631 3431 
Q 1906 3584 2284 3584 
Q 2666 3584 2933 3390 
Q 3200 3197 3328 2828 
z
" id="DejaVuSans-6d" transform="scale(0.015625)"/>
       <path d="M 1159 525 
L 1159 -1331 
L 581 -1331 
L 581 3500 
L 1159 3500 
L 1159 2969 
Q 1341 3281 1617 3432 
Q 1894 3584 2278 3584 
Q 2916 3584 3314 3078 
Q 3713 2572 3713 1747 
Q 3713 922 3314 415 
Q 2916 -91 2278 -91 
Q 1894 -91 1617 61 
Q 1341 213 1159 525 
z
M 3116 1747 
Q 3116 2381 2855 2742 
Q 2594 3103 2138 3103 
Q 1681 3103 1420 2742 
Q 1159 2381 1159 1747 
Q 1159 1113 1420 752 
Q 1681 391 2138 391 
Q 2594 391 2855 752 
Q 3116 1113 3116 1747 
z
" id="DejaVuSans-70" transform="scale(0.015625)"/>
       <path d="M 544 1381 
L 544 3500 
L 1119 3500 
L 1119 1403 
Q 1119 906 1312 657 
Q 1506 409 1894 409 
Q 2359 409 2629 706 
Q 2900 1003 2900 1516 
L 2900 3500 
L 3475 3500 
L 3475 0 
L 2900 0 
L 2900 538 
Q 2691 219 2414 64 
Q 2138 -91 1772 -91 
Q 1169 -91 856 284 
Q 544 659 544 1381 
z
M 1991 3584 
L 1991 3584 
z
" id="DejaVuSans-75" transform="scale(0.015625)"/>
      </defs>
      <use xlink:href="#DejaVuSans-74"/>
      <use x="39.208984" xlink:href="#DejaVuSans-65"/>
      <use x="100.732422" xlink:href="#DejaVuSans-6d"/>
      <use x="198.144531" xlink:href="#DejaVuSans-70"/>
      <use x="261.621094" xlink:href="#DejaVuSans-65"/>
      <use x="323.144531" xlink:href="#DejaVuSans-72"/>
      <use x="364.257812" xlink:href="#DejaVuSans-61"/>
      <use x="425.537109" xlink:href="#DejaVuSans-74"/>
      <use x="464.746094" xlink:href="#DejaVuSans-75"/>
      <use x="528.125" xlink:href="#DejaVuSans-72"/>
      <use x="566.988281" xlink:href="#DejaVuSans-65"/>
     </g>
    </g>
   </g>
  </g>
 </g>
 <defs>
  <clipPath id="p8e917ce182">
   <rect height="434.88" width="781.2" x="126" y="69.12"/>
  </clipPath>
 </defs>
</svg>
