<?xml version="1.0" encoding="utf-8" standalone="no"?>
<!DOCTYPE svg PUBLIC "-//W3C//DTD SVG 1.1//EN"
  "http://www.w3.org/Graphics/SVG/1.1/DTD/svg11.dtd">
<svg height="576pt" version="1.1" viewBox="0 0 1008 576" width="1008pt" xmlns="http://www.w3.org/2000/svg" xmlns:xlink="http://www.w3.org/1999/xlink">
 <metadata>
  <rdf:RDF xmlns:cc="http://creativecommons.org/ns#" xmlns:dc="http://purl.org/dc/elements/1.1/" xmlns:rdf="http://www.w3.org/1999/02/22-rdf-syntax-ns#">
   <cc:Work>
    <dc:type rdf:resource="http://purl.org/dc/dcmitype/StillImage"/>
    <dc:date>2022-01-08T01:27:33.596277</dc:date>
    <dc:format>image/svg+xml</dc:format>
    <dc:creator>
     <cc:Agent>
      <dc:title>Matplotlib v3.4.3, https://matplotlib.org/</dc:title>
     </cc:Agent>
    </dc:creator>
   </cc:Work>
  </rdf:RDF>
 </metadata>
 <defs>
  <style type="text/css">*{stroke-linecap:butt;stroke-linejoin:round;}</style>
 </defs>
 <g id="figure_1">
  <g id="patch_1">
   <path d="M 0 576 
L 1008 576 
L 1008 0 
L 0 0 
z
"/>
  </g>
  <g id="axes_1">
   <g id="patch_2">
    <path d="M 126 504 
L 907.2 504 
L 907.2 69.12 
L 126 69.12 
z
"/>
   </g>
   <g id="matplotlib.axis_1">
    <g id="xtick_1">
     <g id="line2d_1">
      <defs>
       <path d="M 0 0 
L 0 3.5 
" id="mbee5aba029" style="stroke:#ffffff;stroke-width:0.8;"/>
      </defs>
      <g>
       <use style="fill:#ffffff;stroke:#ffffff;stroke-width:0.8;" x="161.509091" xlink:href="#mbee5aba029" y="504"/>
      </g>
     </g>
     <g id="text_1">
      <!-- 0 -->
      <g style="fill:#ffffff;" transform="translate(158.327841 518.598438)scale(0.1 -0.1)">
       <defs>
        <path d="M 2034 4250 
Q 1547 4250 1301 3770 
Q 1056 3291 1056 2328 
Q 1056 1369 1301 889 
Q 1547 409 2034 409 
Q 2525 409 2770 889 
Q 3016 1369 3016 2328 
Q 3016 3291 2770 3770 
Q 2525 4250 2034 4250 
z
M 2034 4750 
Q 2819 4750 3233 4129 
Q 3647 3509 3647 2328 
Q 3647 1150 3233 529 
Q 2819 -91 2034 -91 
Q 1250 -91 836 529 
Q 422 1150 422 2328 
Q 422 3509 836 4129 
Q 1250 4750 2034 4750 
z
" id="DejaVuSans-30" transform="scale(0.015625)"/>
       </defs>
       <use xlink:href="#DejaVuSans-30"/>
      </g>
     </g>
    </g>
    <g id="xtick_2">
     <g id="line2d_2">
      <g>
       <use style="fill:#ffffff;stroke:#ffffff;stroke-width:0.8;" x="302.027852" xlink:href="#mbee5aba029" y="504"/>
      </g>
     </g>
     <g id="text_2">
      <!-- 500 -->
      <g style="fill:#ffffff;" transform="translate(292.484102 518.598438)scale(0.1 -0.1)">
       <defs>
        <path d="M 691 4666 
L 3169 4666 
L 3169 4134 
L 1269 4134 
L 1269 2991 
Q 1406 3038 1543 3061 
Q 1681 3084 1819 3084 
Q 2600 3084 3056 2656 
Q 3513 2228 3513 1497 
Q 3513 744 3044 326 
Q 2575 -91 1722 -91 
Q 1428 -91 1123 -41 
Q 819 9 494 109 
L 494 744 
Q 775 591 1075 516 
Q 1375 441 1709 441 
Q 2250 441 2565 725 
Q 2881 1009 2881 1497 
Q 2881 1984 2565 2268 
Q 2250 2553 1709 2553 
Q 1456 2553 1204 2497 
Q 953 2441 691 2322 
L 691 4666 
z
" id="DejaVuSans-35" transform="scale(0.015625)"/>
       </defs>
       <use xlink:href="#DejaVuSans-35"/>
       <use x="63.623047" xlink:href="#DejaVuSans-30"/>
       <use x="127.246094" xlink:href="#DejaVuSans-30"/>
      </g>
     </g>
    </g>
    <g id="xtick_3">
     <g id="line2d_3">
      <g>
       <use style="fill:#ffffff;stroke:#ffffff;stroke-width:0.8;" x="442.546613" xlink:href="#mbee5aba029" y="504"/>
      </g>
     </g>
     <g id="text_3">
      <!-- 1000 -->
      <g style="fill:#ffffff;" transform="translate(429.821613 518.598438)scale(0.1 -0.1)">
       <defs>
        <path d="M 794 531 
L 1825 531 
L 1825 4091 
L 703 3866 
L 703 4441 
L 1819 4666 
L 2450 4666 
L 2450 531 
L 3481 531 
L 3481 0 
L 794 0 
L 794 531 
z
" id="DejaVuSans-31" transform="scale(0.015625)"/>
       </defs>
       <use xlink:href="#DejaVuSans-31"/>
       <use x="63.623047" xlink:href="#DejaVuSans-30"/>
       <use x="127.246094" xlink:href="#DejaVuSans-30"/>
       <use x="190.869141" xlink:href="#DejaVuSans-30"/>
      </g>
     </g>
    </g>
    <g id="xtick_4">
     <g id="line2d_4">
      <g>
       <use style="fill:#ffffff;stroke:#ffffff;stroke-width:0.8;" x="583.065374" xlink:href="#mbee5aba029" y="504"/>
      </g>
     </g>
     <g id="text_4">
      <!-- 1500 -->
      <g style="fill:#ffffff;" transform="translate(570.340374 518.598438)scale(0.1 -0.1)">
       <use xlink:href="#DejaVuSans-31"/>
       <use x="63.623047" xlink:href="#DejaVuSans-35"/>
       <use x="127.246094" xlink:href="#DejaVuSans-30"/>
       <use x="190.869141" xlink:href="#DejaVuSans-30"/>
      </g>
     </g>
    </g>
    <g id="xtick_5">
     <g id="line2d_5">
      <g>
       <use style="fill:#ffffff;stroke:#ffffff;stroke-width:0.8;" x="723.584135" xlink:href="#mbee5aba029" y="504"/>
      </g>
     </g>
     <g id="text_5">
      <!-- 2000 -->
      <g style="fill:#ffffff;" transform="translate(710.859135 518.598438)scale(0.1 -0.1)">
       <defs>
        <path d="M 1228 531 
L 3431 531 
L 3431 0 
L 469 0 
L 469 531 
Q 828 903 1448 1529 
Q 2069 2156 2228 2338 
Q 2531 2678 2651 2914 
Q 2772 3150 2772 3378 
Q 2772 3750 2511 3984 
Q 2250 4219 1831 4219 
Q 1534 4219 1204 4116 
Q 875 4013 500 3803 
L 500 4441 
Q 881 4594 1212 4672 
Q 1544 4750 1819 4750 
Q 2544 4750 2975 4387 
Q 3406 4025 3406 3419 
Q 3406 3131 3298 2873 
Q 3191 2616 2906 2266 
Q 2828 2175 2409 1742 
Q 1991 1309 1228 531 
z
" id="DejaVuSans-32" transform="scale(0.015625)"/>
       </defs>
       <use xlink:href="#DejaVuSans-32"/>
       <use x="63.623047" xlink:href="#DejaVuSans-30"/>
       <use x="127.246094" xlink:href="#DejaVuSans-30"/>
       <use x="190.869141" xlink:href="#DejaVuSans-30"/>
      </g>
     </g>
    </g>
    <g id="xtick_6">
     <g id="line2d_6">
      <g>
       <use style="fill:#ffffff;stroke:#ffffff;stroke-width:0.8;" x="864.102896" xlink:href="#mbee5aba029" y="504"/>
      </g>
     </g>
     <g id="text_6">
      <!-- 2500 -->
      <g style="fill:#ffffff;" transform="translate(851.377896 518.598438)scale(0.1 -0.1)">
       <use xlink:href="#DejaVuSans-32"/>
       <use x="63.623047" xlink:href="#DejaVuSans-35"/>
       <use x="127.246094" xlink:href="#DejaVuSans-30"/>
       <use x="190.869141" xlink:href="#DejaVuSans-30"/>
      </g>
     </g>
    </g>
    <g id="text_7">
     <!-- iteration -->
     <g style="fill:#ffffff;" transform="translate(495.477344 532.276562)scale(0.1 -0.1)">
      <defs>
       <path d="M 603 3500 
L 1178 3500 
L 1178 0 
L 603 0 
L 603 3500 
z
M 603 4863 
L 1178 4863 
L 1178 4134 
L 603 4134 
L 603 4863 
z
" id="DejaVuSans-69" transform="scale(0.015625)"/>
       <path d="M 1172 4494 
L 1172 3500 
L 2356 3500 
L 2356 3053 
L 1172 3053 
L 1172 1153 
Q 1172 725 1289 603 
Q 1406 481 1766 481 
L 2356 481 
L 2356 0 
L 1766 0 
Q 1100 0 847 248 
Q 594 497 594 1153 
L 594 3053 
L 172 3053 
L 172 3500 
L 594 3500 
L 594 4494 
L 1172 4494 
z
" id="DejaVuSans-74" transform="scale(0.015625)"/>
       <path d="M 3597 1894 
L 3597 1613 
L 953 1613 
Q 991 1019 1311 708 
Q 1631 397 2203 397 
Q 2534 397 2845 478 
Q 3156 559 3463 722 
L 3463 178 
Q 3153 47 2828 -22 
Q 2503 -91 2169 -91 
Q 1331 -91 842 396 
Q 353 884 353 1716 
Q 353 2575 817 3079 
Q 1281 3584 2069 3584 
Q 2775 3584 3186 3129 
Q 3597 2675 3597 1894 
z
M 3022 2063 
Q 3016 2534 2758 2815 
Q 2500 3097 2075 3097 
Q 1594 3097 1305 2825 
Q 1016 2553 972 2059 
L 3022 2063 
z
" id="DejaVuSans-65" transform="scale(0.015625)"/>
       <path d="M 2631 2963 
Q 2534 3019 2420 3045 
Q 2306 3072 2169 3072 
Q 1681 3072 1420 2755 
Q 1159 2438 1159 1844 
L 1159 0 
L 581 0 
L 581 3500 
L 1159 3500 
L 1159 2956 
Q 1341 3275 1631 3429 
Q 1922 3584 2338 3584 
Q 2397 3584 2469 3576 
Q 2541 3569 2628 3553 
L 2631 2963 
z
" id="DejaVuSans-72" transform="scale(0.015625)"/>
       <path d="M 2194 1759 
Q 1497 1759 1228 1600 
Q 959 1441 959 1056 
Q 959 750 1161 570 
Q 1363 391 1709 391 
Q 2188 391 2477 730 
Q 2766 1069 2766 1631 
L 2766 1759 
L 2194 1759 
z
M 3341 1997 
L 3341 0 
L 2766 0 
L 2766 531 
Q 2569 213 2275 61 
Q 1981 -91 1556 -91 
Q 1019 -91 701 211 
Q 384 513 384 1019 
Q 384 1609 779 1909 
Q 1175 2209 1959 2209 
L 2766 2209 
L 2766 2266 
Q 2766 2663 2505 2880 
Q 2244 3097 1772 3097 
Q 1472 3097 1187 3025 
Q 903 2953 641 2809 
L 641 3341 
Q 956 3463 1253 3523 
Q 1550 3584 1831 3584 
Q 2591 3584 2966 3190 
Q 3341 2797 3341 1997 
z
" id="DejaVuSans-61" transform="scale(0.015625)"/>
       <path d="M 1959 3097 
Q 1497 3097 1228 2736 
Q 959 2375 959 1747 
Q 959 1119 1226 758 
Q 1494 397 1959 397 
Q 2419 397 2687 759 
Q 2956 1122 2956 1747 
Q 2956 2369 2687 2733 
Q 2419 3097 1959 3097 
z
M 1959 3584 
Q 2709 3584 3137 3096 
Q 3566 2609 3566 1747 
Q 3566 888 3137 398 
Q 2709 -91 1959 -91 
Q 1206 -91 779 398 
Q 353 888 353 1747 
Q 353 2609 779 3096 
Q 1206 3584 1959 3584 
z
" id="DejaVuSans-6f" transform="scale(0.015625)"/>
       <path d="M 3513 2113 
L 3513 0 
L 2938 0 
L 2938 2094 
Q 2938 2591 2744 2837 
Q 2550 3084 2163 3084 
Q 1697 3084 1428 2787 
Q 1159 2491 1159 1978 
L 1159 0 
L 581 0 
L 581 3500 
L 1159 3500 
L 1159 2956 
Q 1366 3272 1645 3428 
Q 1925 3584 2291 3584 
Q 2894 3584 3203 3211 
Q 3513 2838 3513 2113 
z
" id="DejaVuSans-6e" transform="scale(0.015625)"/>
      </defs>
      <use xlink:href="#DejaVuSans-69"/>
      <use x="27.783203" xlink:href="#DejaVuSans-74"/>
      <use x="66.992188" xlink:href="#DejaVuSans-65"/>
      <use x="128.515625" xlink:href="#DejaVuSans-72"/>
      <use x="169.628906" xlink:href="#DejaVuSans-61"/>
      <use x="230.908203" xlink:href="#DejaVuSans-74"/>
      <use x="270.117188" xlink:href="#DejaVuSans-69"/>
      <use x="297.900391" xlink:href="#DejaVuSans-6f"/>
      <use x="359.082031" xlink:href="#DejaVuSans-6e"/>
     </g>
    </g>
   </g>
   <g id="matplotlib.axis_2">
    <g id="ytick_1">
     <g id="line2d_7">
      <defs>
       <path d="M 0 0 
L -3.5 0 
" id="me20e4e2658" style="stroke:#ffffff;stroke-width:0.8;"/>
      </defs>
      <g>
       <use style="fill:#ffffff;stroke:#ffffff;stroke-width:0.8;" x="126" xlink:href="#me20e4e2658" y="484.232727"/>
      </g>
     </g>
     <g id="text_8">
      <!-- 0 -->
      <g style="fill:#ffffff;" transform="translate(112.6375 488.031946)scale(0.1 -0.1)">
       <use xlink:href="#DejaVuSans-30"/>
      </g>
     </g>
    </g>
    <g id="ytick_2">
     <g id="line2d_8">
      <g>
       <use style="fill:#ffffff;stroke:#ffffff;stroke-width:0.8;" x="126" xlink:href="#me20e4e2658" y="434.431073"/>
      </g>
     </g>
     <g id="text_9">
      <!-- 2500 -->
      <g style="fill:#ffffff;" transform="translate(93.55 438.230292)scale(0.1 -0.1)">
       <use xlink:href="#DejaVuSans-32"/>
       <use x="63.623047" xlink:href="#DejaVuSans-35"/>
       <use x="127.246094" xlink:href="#DejaVuSans-30"/>
       <use x="190.869141" xlink:href="#DejaVuSans-30"/>
      </g>
     </g>
    </g>
    <g id="ytick_3">
     <g id="line2d_9">
      <g>
       <use style="fill:#ffffff;stroke:#ffffff;stroke-width:0.8;" x="126" xlink:href="#me20e4e2658" y="384.629418"/>
      </g>
     </g>
     <g id="text_10">
      <!-- 5000 -->
      <g style="fill:#ffffff;" transform="translate(93.55 388.428637)scale(0.1 -0.1)">
       <use xlink:href="#DejaVuSans-35"/>
       <use x="63.623047" xlink:href="#DejaVuSans-30"/>
       <use x="127.246094" xlink:href="#DejaVuSans-30"/>
       <use x="190.869141" xlink:href="#DejaVuSans-30"/>
      </g>
     </g>
    </g>
    <g id="ytick_4">
     <g id="line2d_10">
      <g>
       <use style="fill:#ffffff;stroke:#ffffff;stroke-width:0.8;" x="126" xlink:href="#me20e4e2658" y="334.827764"/>
      </g>
     </g>
     <g id="text_11">
      <!-- 7500 -->
      <g style="fill:#ffffff;" transform="translate(93.55 338.626982)scale(0.1 -0.1)">
       <defs>
        <path d="M 525 4666 
L 3525 4666 
L 3525 4397 
L 1831 0 
L 1172 0 
L 2766 4134 
L 525 4134 
L 525 4666 
z
" id="DejaVuSans-37" transform="scale(0.015625)"/>
       </defs>
       <use xlink:href="#DejaVuSans-37"/>
       <use x="63.623047" xlink:href="#DejaVuSans-35"/>
       <use x="127.246094" xlink:href="#DejaVuSans-30"/>
       <use x="190.869141" xlink:href="#DejaVuSans-30"/>
      </g>
     </g>
    </g>
    <g id="ytick_5">
     <g id="line2d_11">
      <g>
       <use style="fill:#ffffff;stroke:#ffffff;stroke-width:0.8;" x="126" xlink:href="#me20e4e2658" y="285.026109"/>
      </g>
     </g>
     <g id="text_12">
      <!-- 10000 -->
      <g style="fill:#ffffff;" transform="translate(87.1875 288.825328)scale(0.1 -0.1)">
       <use xlink:href="#DejaVuSans-31"/>
       <use x="63.623047" xlink:href="#DejaVuSans-30"/>
       <use x="127.246094" xlink:href="#DejaVuSans-30"/>
       <use x="190.869141" xlink:href="#DejaVuSans-30"/>
       <use x="254.492188" xlink:href="#DejaVuSans-30"/>
      </g>
     </g>
    </g>
    <g id="ytick_6">
     <g id="line2d_12">
      <g>
       <use style="fill:#ffffff;stroke:#ffffff;stroke-width:0.8;" x="126" xlink:href="#me20e4e2658" y="235.224455"/>
      </g>
     </g>
     <g id="text_13">
      <!-- 12500 -->
      <g style="fill:#ffffff;" transform="translate(87.1875 239.023673)scale(0.1 -0.1)">
       <use xlink:href="#DejaVuSans-31"/>
       <use x="63.623047" xlink:href="#DejaVuSans-32"/>
       <use x="127.246094" xlink:href="#DejaVuSans-35"/>
       <use x="190.869141" xlink:href="#DejaVuSans-30"/>
       <use x="254.492188" xlink:href="#DejaVuSans-30"/>
      </g>
     </g>
    </g>
    <g id="ytick_7">
     <g id="line2d_13">
      <g>
       <use style="fill:#ffffff;stroke:#ffffff;stroke-width:0.8;" x="126" xlink:href="#me20e4e2658" y="185.4228"/>
      </g>
     </g>
     <g id="text_14">
      <!-- 15000 -->
      <g style="fill:#ffffff;" transform="translate(87.1875 189.222019)scale(0.1 -0.1)">
       <use xlink:href="#DejaVuSans-31"/>
       <use x="63.623047" xlink:href="#DejaVuSans-35"/>
       <use x="127.246094" xlink:href="#DejaVuSans-30"/>
       <use x="190.869141" xlink:href="#DejaVuSans-30"/>
       <use x="254.492188" xlink:href="#DejaVuSans-30"/>
      </g>
     </g>
    </g>
    <g id="ytick_8">
     <g id="line2d_14">
      <g>
       <use style="fill:#ffffff;stroke:#ffffff;stroke-width:0.8;" x="126" xlink:href="#me20e4e2658" y="135.621145"/>
      </g>
     </g>
     <g id="text_15">
      <!-- 17500 -->
      <g style="fill:#ffffff;" transform="translate(87.1875 139.420364)scale(0.1 -0.1)">
       <use xlink:href="#DejaVuSans-31"/>
       <use x="63.623047" xlink:href="#DejaVuSans-37"/>
       <use x="127.246094" xlink:href="#DejaVuSans-35"/>
       <use x="190.869141" xlink:href="#DejaVuSans-30"/>
       <use x="254.492188" xlink:href="#DejaVuSans-30"/>
      </g>
     </g>
    </g>
    <g id="ytick_9">
     <g id="line2d_15">
      <g>
       <use style="fill:#ffffff;stroke:#ffffff;stroke-width:0.8;" x="126" xlink:href="#me20e4e2658" y="85.819491"/>
      </g>
     </g>
     <g id="text_16">
      <!-- 20000 -->
      <g style="fill:#ffffff;" transform="translate(87.1875 89.61871)scale(0.1 -0.1)">
       <use xlink:href="#DejaVuSans-32"/>
       <use x="63.623047" xlink:href="#DejaVuSans-30"/>
       <use x="127.246094" xlink:href="#DejaVuSans-30"/>
       <use x="190.869141" xlink:href="#DejaVuSans-30"/>
       <use x="254.492188" xlink:href="#DejaVuSans-30"/>
      </g>
     </g>
    </g>
   </g>
   <g id="line2d_16">
    <path clip-path="url(#p319a2be3ab)" d="M 161.509091 307.257568 
L 162.071166 268.910294 
L 162.633241 384.111481 
L 163.195316 384.111481 
L 163.476354 405.705479 
L 163.757391 360.465656 
L 164.038429 358.115017 
L 164.319466 372.079401 
L 164.600504 417.319224 
L 164.881541 370.386145 
L 165.162579 405.725399 
L 165.443616 372.716863 
L 165.724654 323.851479 
L 166.005691 376.601392 
L 166.286729 406.223416 
L 166.567766 389.78887 
L 166.848804 366.720743 
L 167.129841 388.733075 
L 167.410879 388.733075 
L 167.691916 385.725055 
L 167.972954 437.259807 
L 168.253991 401.920553 
L 168.535029 401.920553 
L 168.816066 414.7893 
L 169.097104 373.83242 
L 169.378142 397.438404 
L 169.659179 387.776883 
L 169.940217 392.737128 
L 170.221254 392.737128 
L 170.502292 348.035163 
L 171.064367 301.221607 
L 171.345404 287.257223 
L 171.626442 287.257223 
L 171.907479 366.063361 
L 172.188517 411.16374 
L 172.750592 329.28982 
L 173.031629 325.305687 
L 173.312667 316.620279 
L 173.593704 331.620537 
L 174.155779 409.888818 
L 174.436817 409.888818 
L 174.717854 387.478073 
L 174.998892 398.334834 
L 175.279929 394.171415 
L 175.560967 408.135799 
L 175.842005 400.306979 
L 176.123042 401.123726 
L 176.40408 355.764379 
L 176.685117 422.717724 
L 176.966155 378.095441 
L 177.247192 378.095441 
L 177.52823 426.881142 
L 177.809267 381.641319 
L 178.090305 389.470139 
L 178.371342 361.939784 
L 178.933417 342.875711 
L 179.214455 370.904082 
L 179.495492 335.564828 
L 179.77653 359.38994 
L 180.057567 356.043269 
L 180.338605 346.023176 
L 180.619642 405.964447 
L 180.90068 422.478676 
L 181.181717 417.319224 
L 181.462755 407.25929 
L 181.743792 374.250753 
L 182.02483 390.545855 
L 182.305868 351.481437 
L 182.586905 362.71669 
L 182.867943 335.883559 
L 183.14898 328.572676 
L 183.430018 325.226005 
L 183.711055 330.385456 
L 184.27313 382.25886 
L 184.554168 314.189958 
L 185.116243 400.446424 
L 185.39728 397.099753 
L 185.678318 401.263171 
L 185.959355 397.279039 
L 186.240393 389.450218 
L 186.52143 368.294476 
L 186.802468 359.11105 
L 187.083505 398.992215 
L 187.364543 387.756962 
L 187.64558 434.690041 
L 187.926618 408.374847 
L 188.488693 330.006964 
L 188.769731 375.366311 
L 189.050768 379.350443 
L 189.331806 405.665637 
L 189.612843 378.832506 
L 189.893881 388.334661 
L 190.174918 388.852599 
L 190.455956 400.087852 
L 190.736993 400.087852 
L 191.018031 377.019725 
L 191.299068 428.93297 
L 191.580106 426.442887 
L 191.861143 442.658306 
L 192.142181 426.52257 
L 192.423218 423.175899 
L 192.704256 373.772658 
L 192.985293 369.788525 
L 193.266331 396.342767 
L 193.547368 357.27835 
L 193.828406 396.342767 
L 194.109443 407.199528 
L 194.671519 359.748512 
L 195.233594 279.049911 
L 195.514631 331.959188 
L 195.795669 286.719365 
L 196.076706 286.719365 
L 196.357744 264.826558 
L 196.638781 287.396668 
L 196.919819 297.715571 
L 197.200856 350.565087 
L 197.481894 328.154342 
L 197.762931 375.04758 
L 198.043969 352.497391 
L 198.325006 399.43047 
L 198.606044 402.777141 
L 198.887081 414.012395 
L 199.168119 368.772571 
L 199.449156 389.071726 
L 200.011231 345.146667 
L 200.292269 387.239025 
L 200.573306 383.892354 
L 200.854344 357.338112 
L 201.135382 374.947977 
L 201.416419 352.537232 
L 201.697457 374.947977 
L 201.978494 347.417622 
L 202.259532 302.058275 
L 202.540569 279.747134 
L 202.821607 280.464278 
L 203.383682 335.843717 
L 203.664719 331.859585 
L 203.945757 314.966864 
L 204.226794 268.033785 
L 204.507832 293.074057 
L 204.788869 287.914605 
L 205.069907 293.074057 
L 205.350944 266.240925 
L 205.631982 307.795426 
L 206.194057 259.906155 
L 206.475094 273.173315 
L 206.756132 298.213587 
L 207.037169 345.146667 
L 207.318207 335.963241 
L 207.599245 380.466 
L 207.880282 371.282575 
L 208.16132 380.466 
L 208.442357 354.150806 
L 208.723395 403.554047 
L 209.28547 319.349409 
L 209.566507 274.109586 
L 210.128582 352.278263 
L 210.40962 325.724021 
L 210.690657 339.469278 
L 210.971695 343.931506 
L 211.252732 361.840181 
L 211.814807 280.723246 
L 212.095845 360.326211 
L 212.376882 321.261793 
L 212.65792 340.505152 
L 212.938957 295.145805 
L 213.219995 272.077679 
L 213.501032 320.86338 
L 213.78207 343.7323 
L 214.063108 324.48894 
L 214.344145 313.253687 
L 214.625183 270.484026 
L 215.187258 388.314741 
L 215.468295 361.760499 
L 215.749333 355.126918 
L 216.03037 358.812241 
L 216.311408 334.947288 
L 216.592445 362.756532 
L 216.873483 338.831817 
L 217.15452 420.845182 
L 217.435558 437.35941 
L 217.716595 445.18823 
L 218.27867 360.883989 
L 218.559708 333.353635 
L 219.121783 371.44194 
L 219.40282 378.593458 
L 219.683858 369.410033 
L 219.964895 369.410033 
L 220.245933 393.334748 
L 220.526971 393.334748 
L 220.808008 426.343284 
L 221.089046 426.343284 
L 221.370083 404.749287 
L 221.651121 426.343284 
L 221.932158 428.674002 
L 222.494233 383.952116 
L 222.775271 418.713671 
L 223.056308 418.713671 
L 223.337346 427.897096 
L 223.618383 445.048786 
L 224.180458 400.486265 
L 224.742533 418.833195 
L 225.023571 392.278952 
L 225.304608 383.254893 
L 225.585646 445.148389 
L 225.866683 435.964964 
L 226.147721 414.370966 
L 226.428758 419.789386 
L 226.709796 410.984454 
L 226.990834 407.637783 
L 227.271871 358.772399 
L 227.552909 357.955652 
L 228.114984 301.341131 
L 228.396021 266.001877 
L 228.958096 314.209879 
L 229.239134 372.876228 
L 229.520171 346.561034 
L 229.801209 371.182972 
L 230.082246 370.186938 
L 230.363284 341.979281 
L 230.644321 295.046202 
L 230.925359 295.046202 
L 231.206396 314.448927 
L 231.487434 287.894684 
L 231.768471 332.078712 
L 232.049509 307.03844 
L 232.330546 315.484801 
L 232.611584 305.185819 
L 232.892622 305.185819 
L 233.173659 266.121401 
L 233.454697 305.185819 
L 233.735734 293.950566 
L 234.016772 382.079574 
L 234.578847 344.628729 
L 234.859884 374.788611 
L 235.140922 449.969189 
L 235.421959 423.136058 
L 235.702997 423.136058 
L 236.265072 388.235058 
L 236.546109 372.298529 
L 236.827147 368.951857 
L 237.108184 322.018778 
L 237.389222 315.385198 
L 237.670259 289.070003 
L 237.951297 342.696425 
L 238.232334 338.712293 
L 238.513372 293.352946 
L 239.075447 381.760843 
L 239.356485 377.776711 
L 239.91856 283.55198 
L 240.480635 283.55198 
L 240.761672 303.173832 
L 241.04271 291.938579 
L 241.323747 309.807412 
L 241.885822 317.138216 
L 242.16686 340.963328 
L 242.447897 328.751962 
L 242.728935 302.436768 
L 243.009972 347.796115 
L 243.29101 331.281886 
L 243.572047 323.313621 
L 243.853085 323.313621 
L 244.41516 383.215051 
L 244.696197 416.223588 
L 245.53931 355.146839 
L 245.820348 366.162965 
L 246.101385 330.823711 
L 246.382423 366.162965 
L 246.66346 353.632868 
L 246.944498 368.872175 
L 247.225535 378.0556 
L 247.506573 359.210654 
L 247.78761 310.305429 
L 248.349685 310.305429 
L 248.630723 388.673313 
L 248.91176 363.633041 
L 249.192798 320.544649 
L 249.473835 331.40141 
L 249.754873 320.544649 
L 250.03591 320.544649 
L 250.316948 343.413569 
L 250.597985 321.819572 
L 251.16006 267.974023 
L 251.722135 406.900718 
L 252.284211 358.752479 
L 252.565248 353.951599 
L 252.846286 375.545597 
L 253.127323 348.015242 
L 253.689398 397.279039 
L 253.970436 402.179521 
L 254.251473 342.198409 
L 254.532511 333.014983 
L 255.094586 355.326125 
L 255.375623 319.986871 
L 255.656661 319.986871 
L 255.937698 395.605703 
L 256.218736 393.932367 
L 256.499773 416.243509 
L 256.780811 409.490404 
L 257.061848 386.422278 
L 257.342886 390.08768 
L 257.623923 355.18668 
L 257.904961 363.61312 
L 258.185998 412.478504 
L 259.029111 323.612431 
L 259.310149 309.807412 
L 259.591186 318.592424 
L 259.872224 318.592424 
L 260.153261 320.066553 
L 260.434299 361.023434 
L 260.715336 370.206859 
L 260.996374 349.907705 
L 261.558449 370.206859 
L 261.839486 378.035679 
L 262.401561 335.425384 
L 262.682599 343.054997 
L 263.244674 418.474623 
L 263.525711 373.115276 
L 263.806749 353.871916 
L 264.087786 368.951857 
L 264.368824 364.967725 
L 264.649861 375.983851 
L 264.930899 379.967983 
L 265.492974 297.69565 
L 265.774012 258.631232 
L 266.055049 274.627524 
L 266.336087 354.051202 
L 266.617124 369.290509 
L 266.898162 397.757134 
L 267.179199 397.757134 
L 267.460237 375.206945 
L 267.741274 342.198409 
L 268.022312 326.959102 
L 268.303349 293.372866 
L 268.584387 310.982732 
L 268.865424 264.049652 
L 269.146462 241.638908 
L 269.427499 237.654775 
L 269.708537 231.638735 
L 269.989574 255.384164 
L 270.270612 228.551033 
L 270.551649 263.890287 
L 270.832687 237.555172 
L 271.113725 269.229024 
L 271.6758 404.809049 
L 271.956837 414.610014 
L 272.237875 369.908049 
L 272.518912 343.074918 
L 272.79995 391.243078 
L 273.080987 391.243078 
L 273.362025 366.182885 
L 273.643062 376.103375 
L 273.9241 344.927539 
L 274.205137 371.242734 
L 274.486175 367.896062 
L 274.767212 341.062931 
L 275.04825 335.903479 
L 275.329287 290.663656 
L 275.610325 287.316985 
L 275.891362 400.048011 
L 276.453437 352.696597 
L 276.734475 375.007739 
L 277.015512 365.206773 
L 277.577588 270.982043 
L 278.139663 270.982043 
L 278.4207 336.341734 
L 278.701738 362.656928 
L 278.982775 343.413569 
L 279.263813 348.692544 
L 279.54485 364.668915 
L 279.825888 372.497735 
L 280.106925 337.158481 
L 280.387963 336.461258 
L 280.669 329.927281 
L 280.950038 387.219104 
L 281.231075 392.916414 
L 281.512113 394.968242 
L 281.79315 395.665465 
L 282.074188 360.326211 
L 282.355225 369.509636 
L 282.636263 330.445218 
L 282.9173 308.851221 
L 283.198338 405.964447 
L 283.479375 392.000063 
L 283.760413 402.697459 
L 284.041451 424.291456 
L 284.322488 397.737214 
L 284.603526 389.749028 
L 284.884563 416.303271 
L 285.165601 371.063448 
L 285.446638 351.820088 
L 285.727676 351.820088 
L 286.008713 357.617001 
L 286.289751 351.063103 
L 286.570788 351.063103 
L 286.851826 349.090958 
L 287.132863 375.924089 
L 287.413901 359.40986 
L 287.975976 391.00403 
L 288.257013 383.17521 
L 288.538051 436.243853 
L 288.819088 442.379417 
L 289.100126 442.379417 
L 289.381163 403.314999 
L 289.662201 424.132091 
L 289.943238 402.538093 
L 290.224276 353.67271 
L 290.505314 393.354668 
L 290.786351 406.263257 
L 291.067389 410.625882 
L 291.348426 387.557756 
L 291.629464 410.625882 
L 291.910501 365.386059 
L 292.191539 293.990407 
L 292.472576 342.85579 
L 292.753614 362.09915 
L 293.034651 362.09915 
L 293.315689 381.880367 
L 293.596726 356.720571 
L 293.877764 313.014639 
L 294.158801 332.91538 
L 294.439839 331.939268 
L 294.720876 331.939268 
L 295.001914 327.955135 
L 295.282951 310.34527 
L 295.563989 331.939268 
L 295.845026 331.939268 
L 296.126064 320.704014 
L 296.407101 335.744114 
L 296.688139 363.274469 
L 296.969177 352.417708 
L 297.250214 330.405377 
L 297.531252 350.704531 
L 297.812289 330.405377 
L 298.093327 301.839148 
L 298.374364 256.479801 
L 298.655402 260.463933 
L 298.936439 252.635113 
L 299.217477 297.516364 
L 299.498514 292.815088 
L 299.779552 296.79922 
L 300.060589 292.815088 
L 300.341627 273.113553 
L 300.622664 280.444357 
L 300.903702 297.596047 
L 301.184739 294.09001 
L 301.746814 216.837684 
L 302.027852 282.257137 
L 302.308889 305.106136 
L 302.589927 259.866313 
L 302.870964 256.519642 
L 303.152002 300.165812 
L 303.43304 295.345012 
L 303.714077 295.345012 
L 303.995115 340.584835 
L 304.276152 345.24627 
L 304.55719 372.418053 
L 305.119265 372.418053 
L 305.400302 376.043613 
L 305.68134 413.016361 
L 305.962377 417.837162 
L 306.243415 417.837162 
L 306.524452 370.904082 
L 306.80549 419.689783 
L 307.367565 362.039388 
L 307.648602 338.971261 
L 307.92964 290.105878 
L 308.210677 268.51188 
L 308.772752 332.198236 
L 309.05379 311.899082 
L 309.334827 353.533265 
L 309.615865 308.293442 
L 309.896903 304.946771 
L 310.17794 314.867261 
L 310.458978 305.922883 
L 310.740015 328.234025 
L 311.021053 307.93487 
L 311.30209 311.281541 
L 311.583128 311.281541 
L 311.864165 356.521364 
L 312.145203 311.281541 
L 312.42624 307.93487 
L 312.707278 322.397271 
L 312.988315 344.788095 
L 313.269353 403.65365 
L 313.55039 403.65365 
L 313.831428 377.338456 
L 314.112465 332.098633 
L 314.393503 336.262051 
L 314.67454 322.297667 
L 314.955578 337.776022 
L 315.798691 258.910121 
L 316.079728 219.845704 
L 316.360766 246.160898 
L 316.922841 424.689869 
L 317.203878 386.760929 
L 317.484916 411.801201 
L 317.765953 415.147872 
L 318.046991 409.988421 
L 318.328028 411.044216 
L 318.609066 398.593802 
L 319.171141 348.393734 
L 319.452178 375.585438 
L 320.014253 279.249117 
L 320.295291 277.974195 
L 320.576328 242.634941 
L 320.857366 376.56155 
L 321.138403 398.972295 
L 321.419441 389.78887 
L 321.700478 411.422708 
L 321.981516 397.856738 
L 322.262554 425.128124 
L 322.543591 429.948924 
L 323.105666 351.58104 
L 323.386704 396.940387 
L 323.667741 409.64977 
L 323.948779 375.744803 
L 324.229816 397.338801 
L 324.510854 354.56914 
L 324.791891 363.633041 
L 325.072929 391.163395 
L 325.353966 374.649167 
L 325.635004 327.716087 
L 325.916041 350.186594 
L 326.478116 300.564225 
L 326.759154 337.258084 
L 327.040191 304.249548 
L 327.321229 337.258084 
L 327.602266 314.84734 
L 327.883304 314.84734 
L 328.164341 423.912963 
L 328.445379 444.212118 
L 329.007454 368.43392 
L 329.288492 374.609325 
L 329.569529 401.442457 
L 329.850567 376.402185 
L 330.131604 341.062931 
L 330.412642 376.402185 
L 330.693679 367.178919 
L 330.974717 373.712896 
L 331.255754 394.01205 
L 331.817829 386.18323 
L 332.098867 408.653736 
L 332.379904 405.307065 
L 332.660942 383.713068 
L 332.941979 348.373814 
L 333.223017 383.713068 
L 333.785092 429.052494 
L 334.628204 369.051461 
L 334.909242 429.311463 
L 335.19028 334.070779 
L 335.471317 311.600272 
L 335.752355 391.541888 
L 336.31443 373.912102 
L 336.595467 381.740922 
L 336.876505 356.70065 
L 337.157542 311.460827 
L 337.719617 281.798962 
L 338.000655 281.798962 
L 338.281692 242.734544 
L 338.56273 306.381059 
L 338.843767 306.381059 
L 339.124805 284.069917 
L 339.405842 338.174435 
L 339.967917 294.169693 
L 340.248955 307.695822 
L 340.529992 373.83242 
L 340.81103 293.831042 
L 341.092067 331.779902 
L 341.373105 292.715485 
L 341.654143 329.050772 
L 341.93518 284.468331 
L 342.216218 332.89546 
L 342.497255 329.548788 
L 342.778293 390.605617 
L 343.05933 408.653736 
L 343.340368 413.374933 
L 343.621405 425.387092 
L 343.902443 247.4159 
L 344.18348 331.062759 
L 344.745555 388.613551 
L 345.026593 388.613551 
L 345.30763 399.470311 
L 345.588668 371.939957 
L 345.869705 326.58061 
L 346.150743 373.513689 
L 346.712818 281.340787 
L 346.993855 291.261276 
L 347.274893 338.194356 
L 347.55593 315.126229 
L 347.836968 311.142097 
L 348.118006 334.210223 
L 348.399043 383.553703 
L 348.680081 357.238508 
L 348.961118 383.553703 
L 349.242156 344.489285 
L 349.523193 325.245925 
L 349.804231 317.935042 
L 350.085268 356.99946 
L 350.366306 352.836042 
L 350.647343 352.836042 
L 350.928381 435.24782 
L 351.490456 373.593372 
L 351.771493 386.043785 
L 352.052531 437.080521 
L 352.333568 431.004719 
L 352.614606 419.371053 
L 352.895643 438.076554 
L 353.176681 438.076554 
L 353.738756 377.019725 
L 354.019794 365.784472 
L 354.581869 418.653909 
L 354.862906 423.474709 
L 355.143944 406.96048 
L 355.424981 383.892354 
L 355.706019 395.247131 
L 355.987056 440.606478 
L 356.268094 424.092249 
L 356.549131 389.19125 
L 356.830169 369.947891 
L 357.111206 409.012308 
L 357.392244 362.079229 
L 357.673281 342.198409 
L 357.954319 347.855877 
L 358.235356 350.585007 
L 358.516394 350.585007 
L 358.797431 312.656067 
L 359.078469 319.986871 
L 359.359506 357.915811 
L 359.640544 336.321813 
L 359.921581 383.254893 
L 360.202619 394.111653 
L 360.483657 386.282833 
L 360.764694 408.255323 
L 361.045732 413.454616 
L 361.326769 374.390198 
L 361.607807 367.637094 
L 361.888844 371.621226 
L 362.169882 416.88097 
L 362.450919 434.490835 
L 362.731957 407.936593 
L 363.012994 431.004719 
L 363.294032 388.235058 
L 363.575069 388.474106 
L 363.856107 371.262654 
L 364.137144 367.915983 
L 364.418182 377.716949 
L 364.699219 358.891923 
L 364.980257 310.02654 
L 365.261294 352.796201 
L 365.542332 307.436854 
L 365.823369 303.273435 
L 366.104407 317.078454 
L 366.385444 365.943838 
L 366.666482 342.875711 
L 366.94752 338.891579 
L 367.228557 351.919692 
L 367.509595 379.031712 
L 367.790632 424.371139 
L 368.352707 405.127779 
L 368.633745 382.717035 
L 368.914782 337.477212 
L 369.19582 336.52102 
L 369.757895 357.816207 
L 370.038932 357.816207 
L 370.31997 341.959361 
L 370.601007 381.96005 
L 370.882045 381.96005 
L 371.163082 363.553358 
L 371.44412 360.206687 
L 372.006195 408.115879 
L 372.56827 389.051805 
L 372.849307 368.872175 
L 373.130345 320.006791 
L 373.411383 348.5531 
L 373.69242 348.5531 
L 374.254495 400.067931 
L 374.535533 376.999805 
L 374.81657 376.999805 
L 375.097608 343.991268 
L 375.378645 342.457377 
L 375.659683 365.525504 
L 375.94072 349.011275 
L 376.221758 394.231177 
L 376.502795 385.705134 
L 377.06487 347.915639 
L 377.345908 343.931506 
L 377.626945 329.967122 
L 377.907983 347.576987 
L 378.18902 329.967122 
L 378.470058 355.007394 
L 378.751095 332.696253 
L 379.032133 332.696253 
L 379.31317 350.306118 
L 379.594208 301.440734 
L 379.875246 279.02999 
L 380.156283 267.794737 
L 380.437321 264.448065 
L 380.718358 269.527834 
L 381.280433 269.527834 
L 381.561471 264.248859 
L 382.123546 271.579662 
L 382.404583 293.990407 
L 382.685621 289.169607 
L 382.966658 311.480748 
L 383.247696 311.480748 
L 383.528733 289.070003 
L 384.090808 389.529901 
L 384.371846 344.290078 
L 384.933921 377.298615 
L 385.214958 358.453669 
L 385.495996 356.760412 
L 385.777033 352.935645 
L 386.058071 354.29025 
L 386.339109 351.541199 
L 386.620146 304.30931 
L 386.901184 362.019467 
L 387.182221 355.385887 
L 387.463259 336.142527 
L 388.025334 384.868466 
L 388.306371 363.274469 
L 388.587409 314.409085 
L 388.868446 292.097944 
L 389.149484 256.75869 
L 389.430521 253.033526 
L 389.711559 360.246528 
L 389.992596 332.975142 
L 390.273634 415.645889 
L 390.554671 415.645889 
L 391.397784 347.298098 
L 391.678821 390.067759 
L 391.959859 385.246959 
L 392.240896 391.262999 
L 392.521934 383.434179 
L 393.084009 384.908308 
L 393.365047 344.369761 
L 393.646084 330.405377 
L 393.927122 375.764724 
L 394.208159 330.405377 
L 394.489197 333.353635 
L 394.770234 349.808101 
L 395.051272 328.214104 
L 395.332309 350.36588 
L 395.894384 350.36588 
L 396.175422 350.485404 
L 396.456459 324.17021 
L 396.737497 372.95591 
L 397.018534 399.271105 
L 397.861647 270.464105 
L 398.142684 262.635285 
L 398.423722 258.651153 
L 398.70476 359.668829 
L 398.985797 402.577935 
L 399.266835 357.218588 
L 399.82891 409.9685 
L 400.109947 406.183574 
L 400.672022 406.223416 
L 400.95306 379.908221 
L 401.234097 385.067673 
L 401.515135 368.613206 
L 401.796172 367.139077 
L 402.07721 373.792578 
L 402.358247 365.266535 
L 402.639285 376.342423 
L 402.920322 376.342423 
L 403.20136 380.326555 
L 403.482397 411.502391 
L 403.763435 389.091647 
L 404.32551 418.853115 
L 404.606547 373.613292 
L 404.887585 373.613292 
L 405.168623 381.442112 
L 405.44966 385.605531 
L 405.730698 360.565259 
L 406.292773 284.787061 
L 406.57381 334.628557 
L 406.854848 359.788353 
L 407.135885 359.788353 
L 407.416923 421.283436 
L 407.69796 394.968242 
L 407.978998 420.008514 
L 408.260035 408.77326 
L 408.541073 427.259635 
L 408.82211 382.019812 
L 409.103148 373.314482 
L 409.384185 351.720485 
L 409.665223 378.035679 
L 409.94626 352.995407 
L 410.227298 317.656153 
L 410.789373 398.23523 
L 411.07041 355.565173 
L 411.351448 378.633299 
L 411.632486 353.593027 
L 411.913523 400.526106 
L 412.194561 378.115362 
L 412.475598 404.430556 
L 412.756636 359.190733 
L 413.037673 355.844062 
L 413.318711 354.051202 
L 413.599748 305.185819 
L 413.880786 354.051202 
L 414.161823 376.461947 
L 414.442861 387.039818 
L 414.723898 337.636577 
L 415.004936 324.927195 
L 415.285973 303.333197 
L 415.567011 303.333197 
L 415.848048 343.553014 
L 416.129086 308.21376 
L 416.410123 318.811552 
L 416.691161 318.811552 
L 416.972198 307.576298 
L 417.253236 353.473503 
L 417.534273 310.703842 
L 417.815311 321.939096 
L 418.096349 276.579749 
L 418.377386 298.173746 
L 418.658424 345.106825 
L 419.220499 309.13011 
L 419.501536 335.445304 
L 419.782574 316.201945 
L 420.063611 316.201945 
L 420.344649 332.178316 
L 420.625686 300.265415 
L 420.906724 255.025592 
L 421.187761 268.073626 
L 421.468799 314.966864 
L 422.030874 357.736525 
L 422.311911 308.871141 
L 422.592949 286.56 
L 422.873986 282.575868 
L 423.155024 299.78732 
L 423.436061 345.027143 
L 423.717099 439.251873 
L 423.998136 414.211601 
L 424.279174 443.216085 
L 424.560212 438.395285 
L 424.841249 423.315344 
L 425.122287 376.382264 
L 425.403324 380.366397 
L 425.684362 369.131143 
L 425.965399 365.784472 
L 426.246437 343.473331 
L 426.527474 354.708584 
L 426.808512 377.019725 
L 427.651624 270.862519 
L 427.932662 290.105878 
L 428.213699 274.607603 
L 428.494737 274.607603 
L 428.775774 296.141838 
L 429.056812 306.181852 
L 429.337849 325.026798 
L 429.618887 313.791545 
L 429.899924 291.3808 
L 430.180962 256.041546 
L 430.461999 252.057414 
L 430.743037 296.659776 
L 431.024075 296.659776 
L 431.305112 299.827161 
L 431.58615 358.354065 
L 431.867187 373.434006 
L 432.148225 373.434006 
L 432.429262 405.167621 
L 432.7103 416.402874 
L 432.991337 412.617948 
L 433.272375 401.561981 
L 433.83445 437.95703 
L 434.115487 432.797579 
L 434.677562 432.797579 
L 434.9586 427.777572 
L 435.239637 401.22333 
L 435.520675 428.454874 
L 435.801712 427.399079 
L 436.08275 423.375106 
L 436.363787 411.681677 
L 436.644825 385.366483 
L 436.925863 340.12666 
L 437.2069 378.792664 
L 437.487938 331.859585 
L 437.768975 377.099408 
L 438.050013 377.338456 
L 438.33105 373.991785 
L 438.612088 373.991785 
L 438.893125 423.614154 
L 439.174163 426.960825 
L 439.736238 390.665379 
L 440.017275 386.521881 
L 440.298313 401.601822 
L 440.57935 401.601822 
L 440.860388 386.521881 
L 441.141425 393.274986 
L 441.422463 394.90848 
L 441.7035 391.800857 
L 441.984538 396.701339 
L 442.265575 410.586041 
L 442.546613 384.270846 
L 442.82765 379.011792 
L 443.108688 339.329833 
L 443.670763 373.175038 
L 443.951801 350.764293 
L 444.232838 399.629677 
L 444.513876 422.379072 
L 444.794913 418.39494 
L 445.075951 418.39494 
L 445.356988 402.259204 
L 445.638026 395.725227 
L 446.200101 339.648564 
L 446.481138 330.863552 
L 446.762176 330.624504 
L 447.043213 330.624504 
L 447.324251 334.608636 
L 447.886326 247.13701 
L 448.167363 247.13701 
L 448.448401 249.905982 
L 448.729438 285.245236 
L 449.010476 236.379853 
L 449.291513 236.379853 
L 449.853589 308.811379 
L 450.134626 328.214104 
L 450.415664 371.74075 
L 450.696701 362.298356 
L 450.977739 362.298356 
L 451.258776 358.951685 
L 451.539814 325.943149 
L 451.820851 325.943149 
L 452.101889 290.603894 
L 452.382926 318.15417 
L 452.663964 329.269899 
L 452.945001 312.75567 
L 453.226039 370.924003 
L 453.507076 388.533868 
L 454.069151 307.954791 
L 454.350189 300.125971 
L 454.631226 309.309396 
L 454.912264 305.325264 
L 455.193301 329.508947 
L 455.474339 284.269124 
L 455.755376 290.962466 
L 456.036414 328.353549 
L 456.317452 328.353549 
L 456.598489 363.692803 
L 456.879527 372.139163 
L 457.160564 406.083971 
L 457.441602 377.238853 
L 457.722639 407.179608 
L 458.284714 361.919864 
L 458.565752 361.919864 
L 458.846789 380.645286 
L 459.127827 419.669862 
L 459.408864 370.804479 
L 459.689902 394.729194 
L 459.970939 394.729194 
L 460.251977 372.318449 
L 460.533014 427.080349 
L 460.814052 429.749717 
L 461.095089 452.39951 
L 461.376127 429.331383 
L 461.657164 429.331383 
L 461.938202 425.347251 
L 462.219239 405.466431 
L 462.500277 426.084316 
L 462.781315 426.084316 
L 463.062352 390.745061 
L 463.34339 390.745061 
L 463.624427 371.820433 
L 463.905465 372.816466 
L 464.186502 412.438662 
L 464.46754 388.513947 
L 465.029615 437.299648 
L 465.310652 410.745406 
L 465.872727 315.982818 
L 466.153765 410.745406 
L 466.434802 394.231177 
L 466.71584 389.211171 
L 466.996877 342.278091 
L 467.277915 358.79232 
L 467.83999 264.567589 
L 468.121027 264.567589 
L 468.402065 261.220918 
L 468.683102 310.524556 
L 468.96414 310.524556 
L 469.245178 320.285681 
L 469.526215 297.217554 
L 469.807253 306.480662 
L 470.08829 306.480662 
L 470.369328 351.28223 
L 470.650365 374.350357 
L 470.931403 355.106997 
L 471.21244 309.867174 
L 471.493478 293.352946 
L 471.774515 302.277402 
L 472.055553 347.517225 
L 472.33659 354.051202 
L 472.898665 393.39451 
L 473.179703 390.047838 
L 473.46074 385.227038 
L 473.741778 358.911844 
L 474.022815 407.000322 
L 474.303853 387.756962 
L 474.58489 342.517139 
L 474.865928 387.756962 
L 475.146965 387.756962 
L 475.428003 415.287317 
L 475.709041 419.271449 
L 475.990078 369.868208 
L 476.271116 347.457463 
L 476.552153 308.393045 
L 477.114228 350.047149 
L 477.395266 323.492907 
L 477.957341 229.268177 
L 478.238378 233.172626 
L 478.519416 275.583715 
L 478.800453 284.030076 
L 479.362528 260.424092 
L 479.643566 409.470484 
L 480.205641 364.589233 
L 480.486678 407.358893 
L 480.767716 396.12364 
L 481.048753 349.190561 
L 481.329791 371.501702 
L 481.610829 338.493166 
L 481.891866 369.051461 
L 482.172904 360.246528 
L 482.453941 393.255065 
L 483.016016 343.353807 
L 483.297054 340.007136 
L 483.578091 351.023262 
L 483.859129 343.353807 
L 484.140166 343.353807 
L 484.421204 354.58906 
L 484.702241 332.277919 
L 484.983279 424.590266 
L 485.264316 404.291112 
L 485.545354 402.318966 
L 485.826391 366.979712 
L 486.107429 382.119415 
L 486.388466 403.295078 
L 486.950541 354.668743 
L 487.231579 390.007997 
L 487.512616 366.91995 
L 487.793654 385.764896 
L 488.074692 338.831817 
L 488.355729 327.596563 
L 488.636767 328.214104 
L 488.917804 327.397357 
L 489.198842 347.337939 
L 489.479879 358.573193 
L 489.760917 309.707809 
L 490.041954 338.194356 
L 490.322992 318.950996 
L 490.604029 367.81638 
L 490.885067 367.81638 
L 491.166104 361.740578 
L 491.447142 347.776194 
L 491.728179 368.075348 
L 492.290254 316.480834 
L 492.571292 271.121487 
L 492.852329 290.364847 
L 493.133367 301.6001 
L 493.414404 262.535682 
L 493.695442 263.153222 
L 493.976479 242.953671 
L 494.257517 238.073109 
L 494.538555 255.941943 
L 494.819592 222.933406 
L 495.10063 219.586735 
L 495.381667 245.244547 
L 495.662705 245.244547 
L 496.22478 359.628988 
L 496.505817 354.469536 
L 496.786855 358.453669 
L 497.067892 323.014811 
L 497.34893 323.014811 
L 497.629967 296.460569 
L 497.911005 296.460569 
L 498.192042 335.146494 
L 498.47308 351.541199 
L 498.754117 339.090785 
L 499.035155 290.225402 
L 499.59723 358.134938 
L 499.878267 336.760068 
L 500.159305 303.751531 
L 500.440342 300.40486 
L 500.72138 272.71514 
L 501.002418 276.061811 
L 501.283455 288.332939 
L 501.84553 253.13313 
L 502.126568 279.448324 
L 502.407605 230.58294 
L 502.96968 270.60355 
L 503.250718 245.563278 
L 503.531755 200.323455 
L 503.812793 206.419178 
L 504.374868 206.419178 
L 504.655905 278.890545 
L 504.936943 257.296548 
L 505.21798 221.957294 
L 505.499018 243.551291 
L 505.780055 229.586907 
L 506.061093 284.627696 
L 506.34213 309.150031 
L 506.623168 348.493338 
L 506.904205 336.142527 
L 507.185243 343.473331 
L 507.466281 321.16219 
L 507.747318 343.473331 
L 508.028356 294.07009 
L 508.309393 338.433404 
L 508.590431 311.879161 
L 509.152506 374.051547 
L 509.433543 352.457549 
L 509.714581 317.118295 
L 509.995618 309.289475 
L 510.276656 305.942804 
L 510.557693 352.357946 
L 510.838731 370.485748 
L 511.119768 407.418655 
L 511.400806 368.354238 
L 511.681843 389.948235 
L 511.962881 367.637094 
L 512.243918 362.895976 
L 512.524956 317.656153 
L 512.805993 317.656153 
L 513.087031 295.245409 
L 513.368068 334.309827 
L 513.649106 334.967208 
L 513.930144 331.620537 
L 514.211181 329.827678 
L 514.492219 333.791889 
L 514.773256 356.660809 
L 515.335331 339.588802 
L 515.897406 388.235058 
L 516.178444 318.970917 
L 516.740519 318.970917 
L 517.021556 364.21074 
L 517.302594 364.21074 
L 517.583631 328.871486 
L 517.864669 348.114845 
L 518.145706 299.249462 
L 518.426744 324.289734 
L 518.707781 373.155117 
L 518.988819 351.56112 
L 519.269856 351.56112 
L 519.550894 342.278091 
L 519.831932 303.213673 
L 520.112969 303.213673 
L 520.675044 391.063792 
L 520.956082 344.130713 
L 521.237119 333.273952 
L 522.361269 233.033182 
L 522.642307 309.847254 
L 522.923344 331.979109 
L 523.204382 331.979109 
L 523.485419 335.32578 
L 524.047494 335.32578 
L 524.328532 362.158912 
L 524.609569 358.812241 
L 524.890607 336.401496 
L 525.171644 358.812241 
L 525.452682 311.879161 
L 526.014757 261.041632 
L 526.295795 302.855101 
L 526.576832 312.038527 
L 526.85787 358.971606 
L 527.138907 339.728247 
L 527.419945 304.388992 
L 527.700982 351.142786 
L 527.98202 358.971606 
L 528.263057 335.903479 
L 528.544095 381.262826 
L 528.825132 334.329747 
L 529.10617 334.329747 
L 529.387207 328.532835 
L 529.668245 317.297581 
L 529.949282 317.297581 
L 530.23032 278.233163 
L 530.511357 296.938665 
L 530.792395 277.695306 
L 531.073432 267.336561 
L 531.35447 251.200825 
L 531.635507 285.524126 
L 531.916545 287.695478 
L 532.197582 306.938837 
L 532.47862 273.9303 
L 532.759658 273.9303 
L 533.040695 287.894684 
L 533.60277 333.114587 
L 533.883808 343.971348 
L 534.164845 295.185647 
L 534.445883 291.201514 
L 534.72692 314.070434 
L 535.007958 309.249634 
L 535.288995 308.711776 
L 535.570033 290.962466 
L 535.85107 264.647272 
L 536.132108 264.647272 
L 536.413145 225.582854 
L 536.694183 215.781889 
L 537.256258 268.651325 
L 537.818333 209.088546 
L 538.09937 235.642788 
L 538.380408 216.399429 
L 538.661445 290.982387 
L 538.942483 273.372522 
L 539.785596 273.372522 
L 540.066633 283.731266 
L 540.347671 283.731266 
L 540.628708 274.786889 
L 540.909746 271.440218 
L 541.190783 226.080871 
L 541.471821 204.486873 
L 541.752858 272.057758 
L 542.033896 249.746617 
L 542.314933 249.746617 
L 542.877008 358.672796 
L 543.158046 365.226694 
L 543.439083 337.795942 
L 543.720121 349.031196 
L 544.001158 303.671849 
L 544.844271 303.671849 
L 545.125308 274.567762 
L 545.406346 270.045771 
L 545.687384 270.045771 
L 546.249459 362.338198 
L 546.530496 380.884334 
L 546.811534 335.524987 
L 547.092571 363.055342 
L 547.654646 278.850704 
L 547.935684 278.850704 
L 548.778796 254.447893 
L 549.059834 276.041891 
L 549.340871 285.225316 
L 550.183984 428.853288 
L 550.465021 402.299045 
L 550.746059 406.283178 
L 551.308134 361.999546 
L 551.870209 291.042149 
L 552.432284 352.079057 
L 552.713322 306.71971 
L 552.994359 306.71971 
L 553.275397 320.8833 
L 553.556434 352.238422 
L 554.118509 352.238422 
L 554.399547 397.597769 
L 554.680584 397.199356 
L 554.961622 422.239628 
L 555.242659 395.924434 
L 555.523697 347.05905 
L 555.804734 337.875625 
L 556.085772 364.190819 
L 556.366809 347.676591 
L 556.647847 357.477556 
L 556.928884 357.477556 
L 557.209922 351.680644 
L 557.490959 334.030937 
L 558.053035 334.030937 
L 558.334072 338.493166 
L 558.61511 338.692372 
L 558.896147 352.497391 
L 559.177185 343.313966 
L 559.458222 307.138044 
L 559.73926 327.457119 
L 560.020297 327.457119 
L 560.301335 304.349151 
L 560.582372 301.181766 
L 561.144447 301.181766 
L 561.425485 274.547841 
L 561.706522 229.308018 
L 562.268597 229.308018 
L 562.549635 249.52749 
L 562.830672 296.460569 
L 563.11171 277.21721 
L 563.392747 241.877956 
L 563.954822 241.877956 
L 564.23586 246.698756 
L 564.516898 201.339409 
L 564.797935 201.339409 
L 565.078973 187.375025 
L 567.327273 187.375025 
L 567.60831 232.614848 
L 568.170385 232.614848 
L 568.451423 237.136838 
L 569.013498 275.344667 
L 569.294535 271.997996 
L 569.575573 271.997996 
L 569.85661 268.930214 
L 570.137648 247.336217 
L 570.418685 247.336217 
L 570.699723 339.150547 
L 570.980761 335.803876 
L 571.261798 335.803876 
L 571.542836 324.568623 
L 572.104911 324.568623 
L 572.666986 386.203151 
L 572.948023 407.797148 
L 573.229061 388.553789 
L 573.510098 343.194442 
L 573.791136 329.170296 
L 574.072173 382.338542 
L 574.353211 392.278952 
L 574.634248 392.278952 
L 575.196323 433.295595 
L 575.758398 397.737214 
L 576.601511 355.923745 
L 576.882548 360.087163 
L 577.163586 333.254031 
L 577.444624 329.90736 
L 577.725661 329.90736 
L 578.006699 318.672107 
L 578.287736 296.639855 
L 578.568774 261.818538 
L 579.130849 261.818538 
L 579.411886 271.619504 
L 579.692924 271.619504 
L 579.973961 310.683922 
L 580.254999 302.675816 
L 580.536036 299.608034 
L 580.817074 299.608034 
L 581.098111 301.122004 
L 581.379149 300.504463 
L 581.660186 265.165209 
L 581.941224 273.671332 
L 582.222261 273.671332 
L 582.503299 340.286025 
L 582.784336 361.880022 
L 583.065374 361.880022 
L 583.346411 326.540768 
L 583.627449 315.305515 
L 583.908487 340.166501 
L 584.189524 293.233422 
L 584.470562 278.751101 
L 584.751599 289.986354 
L 585.032637 286.639683 
L 585.313674 270.125454 
L 588.124049 270.125454 
L 588.405087 318.692028 
L 588.686124 325.604497 
L 588.967162 306.361138 
L 589.248199 317.715915 
L 589.529237 317.715915 
L 589.810274 328.771883 
L 590.37235 328.771883 
L 590.653387 307.177885 
L 590.934425 307.177885 
L 591.215462 328.771883 
L 591.4965 306.460741 
L 593.182725 306.460741 
L 593.7448 316.799565 
L 594.025837 277.735147 
L 594.306875 277.735147 
L 594.86895 218.172368 
L 595.149987 218.172368 
L 595.431025 195.124162 
L 596.555175 195.124162 
L 596.836213 228.132699 
L 597.11725 205.721954 
L 597.398288 205.721954 
L 597.679325 210.682199 
L 597.960363 165.442376 
L 599.927625 165.442376 
L 600.208663 116.576993 
L 601.051775 116.576993 
L 601.332813 161.816816 
L 606.391488 161.816816 
L 606.672526 160.342687 
L 607.234601 160.342687 
L 607.515638 183.410813 
L 609.201864 183.410813 
L 609.482901 180.064142 
L 609.763939 180.064142 
L 610.044976 168.828889 
L 610.326014 172.17556 
L 613.698464 172.17556 
L 613.979501 168.828889 
L 614.260539 172.17556 
L 615.103651 172.17556 
L 615.384689 172.992307 
L 615.665727 168.27111 
L 615.946764 168.27111 
L 616.227802 164.924439 
L 617.070914 164.924439 
L 617.351952 200.004724 
L 619.881289 200.004724 
L 620.162327 203.351396 
L 622.410627 203.351396 
L 622.691665 214.586649 
L 622.972702 218.570781 
L 623.25374 218.570781 
L 623.534777 185.562245 
L 624.939965 185.562245 
L 625.221002 140.322422 
L 640.678066 140.322422 
L 640.959104 143.569489 
L 647.422967 143.569489 
L 647.704004 140.222818 
L 658.664467 140.222818 
L 658.945505 127.951691 
L 664.285218 127.951691 
L 664.566255 131.298362 
L 666.814556 131.298362 
L 667.095593 127.951691 
L 681.990582 127.951691 
L 682.271619 88.887273 
L 871.690909 88.887273 
L 871.690909 88.887273 
" style="fill:none;stroke:#8dd3c7;stroke-linecap:square;stroke-width:1.5;"/>
   </g>
   <g id="line2d_17">
    <path clip-path="url(#p319a2be3ab)" d="M 161.509091 307.257568 
L 162.071166 268.910294 
L 196.076706 268.910294 
L 196.357744 264.826558 
L 205.913019 264.826558 
L 206.194057 259.906155 
L 265.492974 259.906155 
L 265.774012 258.631232 
L 268.865424 258.631232 
L 269.146462 241.638908 
L 269.427499 237.654775 
L 269.708537 231.638735 
L 269.989574 231.638735 
L 270.270612 228.551033 
L 301.465777 228.551033 
L 301.746814 216.837684 
L 503.250718 216.837684 
L 503.531755 200.323455 
L 564.797935 200.323455 
L 565.078973 187.375025 
L 597.679325 187.375025 
L 597.960363 165.442376 
L 599.927625 165.442376 
L 600.208663 116.576993 
L 681.990582 116.576993 
L 682.271619 88.887273 
L 871.690909 88.887273 
L 871.690909 88.887273 
" style="fill:none;stroke:#feffb3;stroke-linecap:square;stroke-width:1.5;"/>
   </g>
   <g id="line2d_18">
    <path clip-path="url(#p319a2be3ab)" d="M 161.509091 360.350116 
L 163.476354 360.350116 
L 163.757391 368.060122 
L 165.724654 368.060122 
L 166.005691 375.290285 
L 167.972954 375.290285 
L 168.253991 382.070469 
L 170.221254 382.070469 
L 170.502292 388.428679 
L 172.469554 388.428679 
L 172.750592 394.391177 
L 174.717854 394.391177 
L 174.998892 399.98259 
L 176.966155 399.98259 
L 177.247192 405.226014 
L 179.214455 405.226014 
L 179.495492 410.143107 
L 181.462755 410.143107 
L 181.743792 414.754177 
L 183.711055 414.754177 
L 183.992093 419.078271 
L 185.959355 419.078271 
L 186.240393 423.133249 
L 188.207656 423.133249 
L 188.488693 426.93586 
L 190.455956 426.93586 
L 190.736993 430.50181 
L 192.704256 430.50181 
L 192.985293 433.845828 
L 194.952556 433.845828 
L 195.233594 436.981727 
L 197.200856 436.981727 
L 197.481894 439.922458 
L 199.449156 439.922458 
L 199.730194 442.680169 
L 201.697457 442.680169 
L 201.978494 445.26625 
L 203.945757 445.26625 
L 204.226794 447.691383 
L 206.194057 447.691383 
L 206.475094 449.965584 
L 208.442357 449.965584 
L 208.723395 452.098248 
L 210.690657 452.098248 
L 210.971695 454.098182 
L 212.938957 454.098182 
L 213.219995 455.973647 
L 215.187258 455.973647 
L 215.468295 457.73239 
L 217.435558 457.73239 
L 217.716595 459.381675 
L 219.683858 459.381675 
L 219.964895 460.928315 
L 221.932158 460.928315 
L 222.213196 462.378697 
L 224.180458 462.378697 
L 224.461496 463.738813 
L 226.428758 463.738813 
L 226.709796 465.01428 
L 228.677059 465.01428 
L 228.958096 466.210367 
L 230.925359 466.210367 
L 231.206396 467.332014 
L 233.173659 467.332014 
L 233.454697 468.383853 
L 235.421959 468.383853 
L 235.702997 469.37023 
L 237.670259 469.37023 
L 237.951297 470.295218 
L 239.91856 470.295218 
L 240.199597 471.162638 
L 242.16686 471.162638 
L 242.447897 471.976073 
L 244.41516 471.976073 
L 244.696197 472.738883 
L 246.66346 472.738883 
L 246.944498 473.454218 
L 248.91176 473.454218 
L 249.192798 474.125034 
L 251.16006 474.125034 
L 251.441098 474.7541 
L 253.408361 474.7541 
L 253.689398 475.344016 
L 255.656661 475.344016 
L 255.937698 475.897217 
L 257.904961 475.897217 
L 258.185998 476.415989 
L 260.153261 476.415989 
L 260.434299 476.902475 
L 262.401561 476.902475 
L 262.682599 477.358683 
L 264.649861 477.358683 
L 264.930899 477.786499 
L 266.898162 477.786499 
L 267.179199 478.187689 
L 269.146462 478.187689 
L 269.427499 478.56391 
L 271.394762 478.56391 
L 271.6758 478.916717 
L 273.643062 478.916717 
L 273.9241 479.247566 
L 275.891362 479.247566 
L 276.1724 479.557825 
L 278.139663 479.557825 
L 278.4207 479.848774 
L 280.387963 479.848774 
L 280.669 480.121615 
L 282.636263 480.121615 
L 282.9173 480.377476 
L 284.884563 480.377476 
L 285.165601 480.617413 
L 287.132863 480.617413 
L 287.413901 480.842417 
L 289.381163 480.842417 
L 289.662201 481.053418 
L 291.629464 481.053418 
L 291.910501 481.251286 
L 293.877764 481.251286 
L 294.158801 481.436841 
L 296.126064 481.436841 
L 296.407101 481.610846 
L 298.374364 481.610846 
L 298.655402 481.774023 
L 300.622664 481.774023 
L 300.903702 481.927044 
L 302.870964 481.927044 
L 303.152002 482.070541 
L 305.119265 482.070541 
L 305.400302 482.205108 
L 307.367565 482.205108 
L 307.648602 482.3313 
L 309.615865 482.3313 
L 310.17794 482.449638 
L 314.112465 482.560611 
L 314.67454 482.664677 
L 318.609066 482.762267 
L 319.171141 482.853783 
L 323.105666 482.939604 
L 323.667741 483.020083 
L 327.602266 483.095554 
L 328.164341 483.166327 
L 332.098867 483.232696 
L 332.660942 483.294934 
L 336.595467 483.353299 
L 337.43858 483.408032 
L 343.340368 483.50749 
L 344.18348 483.552626 
L 350.085268 483.634646 
L 351.209418 483.671868 
L 359.078469 483.770204 
L 360.202619 483.798989 
L 370.31997 483.897298 
L 372.006195 483.918174 
L 386.058071 484.018806 
L 388.868446 484.044605 
L 419.782574 484.151134 
L 426.808512 484.169628 
L 871.690909 484.232727 
L 871.690909 484.232727 
" style="fill:none;stroke:#bfbbd9;stroke-linecap:square;stroke-width:1.5;"/>
   </g>
   <g id="patch_3">
    <path d="M 126 504 
L 126 69.12 
" style="fill:none;stroke:#ffffff;stroke-linecap:square;stroke-linejoin:miter;stroke-width:0.8;"/>
   </g>
   <g id="patch_4">
    <path d="M 907.2 504 
L 907.2 69.12 
" style="fill:none;stroke:#ffffff;stroke-linecap:square;stroke-linejoin:miter;stroke-width:0.8;"/>
   </g>
   <g id="patch_5">
    <path d="M 126 504 
L 907.2 504 
" style="fill:none;stroke:#ffffff;stroke-linecap:square;stroke-linejoin:miter;stroke-width:0.8;"/>
   </g>
   <g id="patch_6">
    <path d="M 126 69.12 
L 907.2 69.12 
" style="fill:none;stroke:#ffffff;stroke-linecap:square;stroke-linejoin:miter;stroke-width:0.8;"/>
   </g>
   <g id="text_17">
    <!-- instance 5 with error 0.07632877222377366 -->
    <g style="fill:#ffffff;" transform="translate(381.864375 63.12)scale(0.12 -0.12)">
     <defs>
      <path d="M 2834 3397 
L 2834 2853 
Q 2591 2978 2328 3040 
Q 2066 3103 1784 3103 
Q 1356 3103 1142 2972 
Q 928 2841 928 2578 
Q 928 2378 1081 2264 
Q 1234 2150 1697 2047 
L 1894 2003 
Q 2506 1872 2764 1633 
Q 3022 1394 3022 966 
Q 3022 478 2636 193 
Q 2250 -91 1575 -91 
Q 1294 -91 989 -36 
Q 684 19 347 128 
L 347 722 
Q 666 556 975 473 
Q 1284 391 1588 391 
Q 1994 391 2212 530 
Q 2431 669 2431 922 
Q 2431 1156 2273 1281 
Q 2116 1406 1581 1522 
L 1381 1569 
Q 847 1681 609 1914 
Q 372 2147 372 2553 
Q 372 3047 722 3315 
Q 1072 3584 1716 3584 
Q 2034 3584 2315 3537 
Q 2597 3491 2834 3397 
z
" id="DejaVuSans-73" transform="scale(0.015625)"/>
      <path d="M 3122 3366 
L 3122 2828 
Q 2878 2963 2633 3030 
Q 2388 3097 2138 3097 
Q 1578 3097 1268 2742 
Q 959 2388 959 1747 
Q 959 1106 1268 751 
Q 1578 397 2138 397 
Q 2388 397 2633 464 
Q 2878 531 3122 666 
L 3122 134 
Q 2881 22 2623 -34 
Q 2366 -91 2075 -91 
Q 1284 -91 818 406 
Q 353 903 353 1747 
Q 353 2603 823 3093 
Q 1294 3584 2113 3584 
Q 2378 3584 2631 3529 
Q 2884 3475 3122 3366 
z
" id="DejaVuSans-63" transform="scale(0.015625)"/>
      <path id="DejaVuSans-20" transform="scale(0.015625)"/>
      <path d="M 269 3500 
L 844 3500 
L 1563 769 
L 2278 3500 
L 2956 3500 
L 3675 769 
L 4391 3500 
L 4966 3500 
L 4050 0 
L 3372 0 
L 2619 2869 
L 1863 0 
L 1184 0 
L 269 3500 
z
" id="DejaVuSans-77" transform="scale(0.015625)"/>
      <path d="M 3513 2113 
L 3513 0 
L 2938 0 
L 2938 2094 
Q 2938 2591 2744 2837 
Q 2550 3084 2163 3084 
Q 1697 3084 1428 2787 
Q 1159 2491 1159 1978 
L 1159 0 
L 581 0 
L 581 4863 
L 1159 4863 
L 1159 2956 
Q 1366 3272 1645 3428 
Q 1925 3584 2291 3584 
Q 2894 3584 3203 3211 
Q 3513 2838 3513 2113 
z
" id="DejaVuSans-68" transform="scale(0.015625)"/>
      <path d="M 684 794 
L 1344 794 
L 1344 0 
L 684 0 
L 684 794 
z
" id="DejaVuSans-2e" transform="scale(0.015625)"/>
      <path d="M 2113 2584 
Q 1688 2584 1439 2293 
Q 1191 2003 1191 1497 
Q 1191 994 1439 701 
Q 1688 409 2113 409 
Q 2538 409 2786 701 
Q 3034 994 3034 1497 
Q 3034 2003 2786 2293 
Q 2538 2584 2113 2584 
z
M 3366 4563 
L 3366 3988 
Q 3128 4100 2886 4159 
Q 2644 4219 2406 4219 
Q 1781 4219 1451 3797 
Q 1122 3375 1075 2522 
Q 1259 2794 1537 2939 
Q 1816 3084 2150 3084 
Q 2853 3084 3261 2657 
Q 3669 2231 3669 1497 
Q 3669 778 3244 343 
Q 2819 -91 2113 -91 
Q 1303 -91 875 529 
Q 447 1150 447 2328 
Q 447 3434 972 4092 
Q 1497 4750 2381 4750 
Q 2619 4750 2861 4703 
Q 3103 4656 3366 4563 
z
" id="DejaVuSans-36" transform="scale(0.015625)"/>
      <path d="M 2597 2516 
Q 3050 2419 3304 2112 
Q 3559 1806 3559 1356 
Q 3559 666 3084 287 
Q 2609 -91 1734 -91 
Q 1441 -91 1130 -33 
Q 819 25 488 141 
L 488 750 
Q 750 597 1062 519 
Q 1375 441 1716 441 
Q 2309 441 2620 675 
Q 2931 909 2931 1356 
Q 2931 1769 2642 2001 
Q 2353 2234 1838 2234 
L 1294 2234 
L 1294 2753 
L 1863 2753 
Q 2328 2753 2575 2939 
Q 2822 3125 2822 3475 
Q 2822 3834 2567 4026 
Q 2313 4219 1838 4219 
Q 1578 4219 1281 4162 
Q 984 4106 628 3988 
L 628 4550 
Q 988 4650 1302 4700 
Q 1616 4750 1894 4750 
Q 2613 4750 3031 4423 
Q 3450 4097 3450 3541 
Q 3450 3153 3228 2886 
Q 3006 2619 2597 2516 
z
" id="DejaVuSans-33" transform="scale(0.015625)"/>
      <path d="M 2034 2216 
Q 1584 2216 1326 1975 
Q 1069 1734 1069 1313 
Q 1069 891 1326 650 
Q 1584 409 2034 409 
Q 2484 409 2743 651 
Q 3003 894 3003 1313 
Q 3003 1734 2745 1975 
Q 2488 2216 2034 2216 
z
M 1403 2484 
Q 997 2584 770 2862 
Q 544 3141 544 3541 
Q 544 4100 942 4425 
Q 1341 4750 2034 4750 
Q 2731 4750 3128 4425 
Q 3525 4100 3525 3541 
Q 3525 3141 3298 2862 
Q 3072 2584 2669 2484 
Q 3125 2378 3379 2068 
Q 3634 1759 3634 1313 
Q 3634 634 3220 271 
Q 2806 -91 2034 -91 
Q 1263 -91 848 271 
Q 434 634 434 1313 
Q 434 1759 690 2068 
Q 947 2378 1403 2484 
z
M 1172 3481 
Q 1172 3119 1398 2916 
Q 1625 2713 2034 2713 
Q 2441 2713 2670 2916 
Q 2900 3119 2900 3481 
Q 2900 3844 2670 4047 
Q 2441 4250 2034 4250 
Q 1625 4250 1398 4047 
Q 1172 3844 1172 3481 
z
" id="DejaVuSans-38" transform="scale(0.015625)"/>
     </defs>
     <use xlink:href="#DejaVuSans-69"/>
     <use x="27.783203" xlink:href="#DejaVuSans-6e"/>
     <use x="91.162109" xlink:href="#DejaVuSans-73"/>
     <use x="143.261719" xlink:href="#DejaVuSans-74"/>
     <use x="182.470703" xlink:href="#DejaVuSans-61"/>
     <use x="243.75" xlink:href="#DejaVuSans-6e"/>
     <use x="307.128906" xlink:href="#DejaVuSans-63"/>
     <use x="362.109375" xlink:href="#DejaVuSans-65"/>
     <use x="423.632812" xlink:href="#DejaVuSans-20"/>
     <use x="455.419922" xlink:href="#DejaVuSans-35"/>
     <use x="519.042969" xlink:href="#DejaVuSans-20"/>
     <use x="550.830078" xlink:href="#DejaVuSans-77"/>
     <use x="632.617188" xlink:href="#DejaVuSans-69"/>
     <use x="660.400391" xlink:href="#DejaVuSans-74"/>
     <use x="699.609375" xlink:href="#DejaVuSans-68"/>
     <use x="762.988281" xlink:href="#DejaVuSans-20"/>
     <use x="794.775391" xlink:href="#DejaVuSans-65"/>
     <use x="856.298828" xlink:href="#DejaVuSans-72"/>
     <use x="895.662109" xlink:href="#DejaVuSans-72"/>
     <use x="934.525391" xlink:href="#DejaVuSans-6f"/>
     <use x="995.707031" xlink:href="#DejaVuSans-72"/>
     <use x="1036.820312" xlink:href="#DejaVuSans-20"/>
     <use x="1068.607422" xlink:href="#DejaVuSans-30"/>
     <use x="1132.230469" xlink:href="#DejaVuSans-2e"/>
     <use x="1164.017578" xlink:href="#DejaVuSans-30"/>
     <use x="1227.640625" xlink:href="#DejaVuSans-37"/>
     <use x="1291.263672" xlink:href="#DejaVuSans-36"/>
     <use x="1354.886719" xlink:href="#DejaVuSans-33"/>
     <use x="1418.509766" xlink:href="#DejaVuSans-32"/>
     <use x="1482.132812" xlink:href="#DejaVuSans-38"/>
     <use x="1545.755859" xlink:href="#DejaVuSans-37"/>
     <use x="1609.378906" xlink:href="#DejaVuSans-37"/>
     <use x="1673.001953" xlink:href="#DejaVuSans-32"/>
     <use x="1736.625" xlink:href="#DejaVuSans-32"/>
     <use x="1800.248047" xlink:href="#DejaVuSans-32"/>
     <use x="1863.871094" xlink:href="#DejaVuSans-33"/>
     <use x="1927.494141" xlink:href="#DejaVuSans-37"/>
     <use x="1991.117188" xlink:href="#DejaVuSans-37"/>
     <use x="2054.740234" xlink:href="#DejaVuSans-33"/>
     <use x="2118.363281" xlink:href="#DejaVuSans-36"/>
     <use x="2181.986328" xlink:href="#DejaVuSans-36"/>
    </g>
   </g>
   <g id="legend_1">
    <g id="patch_7">
     <path d="M 805.348438 499 
L 900.2 499 
Q 902.2 499 902.2 497 
L 902.2 453.965625 
Q 902.2 451.965625 900.2 451.965625 
L 805.348438 451.965625 
Q 803.348438 451.965625 803.348438 453.965625 
L 803.348438 497 
Q 803.348438 499 805.348438 499 
z
" style="opacity:0.8;stroke:#cccccc;stroke-linejoin:miter;"/>
    </g>
    <g id="line2d_19">
     <path d="M 807.348438 460.064062 
L 827.348438 460.064062 
" style="fill:none;stroke:#8dd3c7;stroke-linecap:square;stroke-width:1.5;"/>
    </g>
    <g id="line2d_20"/>
    <g id="text_18">
     <!-- cost -->
     <g style="fill:#ffffff;" transform="translate(835.348438 463.564062)scale(0.1 -0.1)">
      <use xlink:href="#DejaVuSans-63"/>
      <use x="54.980469" xlink:href="#DejaVuSans-6f"/>
      <use x="116.162109" xlink:href="#DejaVuSans-73"/>
      <use x="168.261719" xlink:href="#DejaVuSans-74"/>
     </g>
    </g>
    <g id="line2d_21">
     <path d="M 807.348438 474.742188 
L 827.348438 474.742188 
" style="fill:none;stroke:#feffb3;stroke-linecap:square;stroke-width:1.5;"/>
    </g>
    <g id="line2d_22"/>
    <g id="text_19">
     <!-- best cost -->
     <g style="fill:#ffffff;" transform="translate(835.348438 478.242188)scale(0.1 -0.1)">
      <defs>
       <path d="M 3116 1747 
Q 3116 2381 2855 2742 
Q 2594 3103 2138 3103 
Q 1681 3103 1420 2742 
Q 1159 2381 1159 1747 
Q 1159 1113 1420 752 
Q 1681 391 2138 391 
Q 2594 391 2855 752 
Q 3116 1113 3116 1747 
z
M 1159 2969 
Q 1341 3281 1617 3432 
Q 1894 3584 2278 3584 
Q 2916 3584 3314 3078 
Q 3713 2572 3713 1747 
Q 3713 922 3314 415 
Q 2916 -91 2278 -91 
Q 1894 -91 1617 61 
Q 1341 213 1159 525 
L 1159 0 
L 581 0 
L 581 4863 
L 1159 4863 
L 1159 2969 
z
" id="DejaVuSans-62" transform="scale(0.015625)"/>
      </defs>
      <use xlink:href="#DejaVuSans-62"/>
      <use x="63.476562" xlink:href="#DejaVuSans-65"/>
      <use x="125" xlink:href="#DejaVuSans-73"/>
      <use x="177.099609" xlink:href="#DejaVuSans-74"/>
      <use x="216.308594" xlink:href="#DejaVuSans-20"/>
      <use x="248.095703" xlink:href="#DejaVuSans-63"/>
      <use x="303.076172" xlink:href="#DejaVuSans-6f"/>
      <use x="364.257812" xlink:href="#DejaVuSans-73"/>
      <use x="416.357422" xlink:href="#DejaVuSans-74"/>
     </g>
    </g>
    <g id="line2d_23">
     <path d="M 807.348438 489.420313 
L 827.348438 489.420313 
" style="fill:none;stroke:#bfbbd9;stroke-linecap:square;stroke-width:1.5;"/>
    </g>
    <g id="line2d_24"/>
    <g id="text_20">
     <!-- temperature -->
     <g style="fill:#ffffff;" transform="translate(835.348438 492.920313)scale(0.1 -0.1)">
      <defs>
       <path d="M 3328 2828 
Q 3544 3216 3844 3400 
Q 4144 3584 4550 3584 
Q 5097 3584 5394 3201 
Q 5691 2819 5691 2113 
L 5691 0 
L 5113 0 
L 5113 2094 
Q 5113 2597 4934 2840 
Q 4756 3084 4391 3084 
Q 3944 3084 3684 2787 
Q 3425 2491 3425 1978 
L 3425 0 
L 2847 0 
L 2847 2094 
Q 2847 2600 2669 2842 
Q 2491 3084 2119 3084 
Q 1678 3084 1418 2786 
Q 1159 2488 1159 1978 
L 1159 0 
L 581 0 
L 581 3500 
L 1159 3500 
L 1159 2956 
Q 1356 3278 1631 3431 
Q 1906 3584 2284 3584 
Q 2666 3584 2933 3390 
Q 3200 3197 3328 2828 
z
" id="DejaVuSans-6d" transform="scale(0.015625)"/>
       <path d="M 1159 525 
L 1159 -1331 
L 581 -1331 
L 581 3500 
L 1159 3500 
L 1159 2969 
Q 1341 3281 1617 3432 
Q 1894 3584 2278 3584 
Q 2916 3584 3314 3078 
Q 3713 2572 3713 1747 
Q 3713 922 3314 415 
Q 2916 -91 2278 -91 
Q 1894 -91 1617 61 
Q 1341 213 1159 525 
z
M 3116 1747 
Q 3116 2381 2855 2742 
Q 2594 3103 2138 3103 
Q 1681 3103 1420 2742 
Q 1159 2381 1159 1747 
Q 1159 1113 1420 752 
Q 1681 391 2138 391 
Q 2594 391 2855 752 
Q 3116 1113 3116 1747 
z
" id="DejaVuSans-70" transform="scale(0.015625)"/>
       <path d="M 544 1381 
L 544 3500 
L 1119 3500 
L 1119 1403 
Q 1119 906 1312 657 
Q 1506 409 1894 409 
Q 2359 409 2629 706 
Q 2900 1003 2900 1516 
L 2900 3500 
L 3475 3500 
L 3475 0 
L 2900 0 
L 2900 538 
Q 2691 219 2414 64 
Q 2138 -91 1772 -91 
Q 1169 -91 856 284 
Q 544 659 544 1381 
z
M 1991 3584 
L 1991 3584 
z
" id="DejaVuSans-75" transform="scale(0.015625)"/>
      </defs>
      <use xlink:href="#DejaVuSans-74"/>
      <use x="39.208984" xlink:href="#DejaVuSans-65"/>
      <use x="100.732422" xlink:href="#DejaVuSans-6d"/>
      <use x="198.144531" xlink:href="#DejaVuSans-70"/>
      <use x="261.621094" xlink:href="#DejaVuSans-65"/>
      <use x="323.144531" xlink:href="#DejaVuSans-72"/>
      <use x="364.257812" xlink:href="#DejaVuSans-61"/>
      <use x="425.537109" xlink:href="#DejaVuSans-74"/>
      <use x="464.746094" xlink:href="#DejaVuSans-75"/>
      <use x="528.125" xlink:href="#DejaVuSans-72"/>
      <use x="566.988281" xlink:href="#DejaVuSans-65"/>
     </g>
    </g>
   </g>
  </g>
 </g>
 <defs>
  <clipPath id="p319a2be3ab">
   <rect height="434.88" width="781.2" x="126" y="69.12"/>
  </clipPath>
 </defs>
</svg>
