<?xml version="1.0" encoding="utf-8" standalone="no"?>
<!DOCTYPE svg PUBLIC "-//W3C//DTD SVG 1.1//EN"
  "http://www.w3.org/Graphics/SVG/1.1/DTD/svg11.dtd">
<svg height="576pt" version="1.1" viewBox="0 0 1008 576" width="1008pt" xmlns="http://www.w3.org/2000/svg" xmlns:xlink="http://www.w3.org/1999/xlink">
 <metadata>
  <rdf:RDF xmlns:cc="http://creativecommons.org/ns#" xmlns:dc="http://purl.org/dc/elements/1.1/" xmlns:rdf="http://www.w3.org/1999/02/22-rdf-syntax-ns#">
   <cc:Work>
    <dc:type rdf:resource="http://purl.org/dc/dcmitype/StillImage"/>
    <dc:date>2022-01-07T21:26:25.736386</dc:date>
    <dc:format>image/svg+xml</dc:format>
    <dc:creator>
     <cc:Agent>
      <dc:title>Matplotlib v3.4.3, https://matplotlib.org/</dc:title>
     </cc:Agent>
    </dc:creator>
   </cc:Work>
  </rdf:RDF>
 </metadata>
 <defs>
  <style type="text/css">*{stroke-linecap:butt;stroke-linejoin:round;}</style>
 </defs>
 <g id="figure_1">
  <g id="patch_1">
   <path d="M 0 576 
L 1008 576 
L 1008 0 
L 0 0 
z
"/>
  </g>
  <g id="axes_1">
   <g id="patch_2">
    <path d="M 126 504 
L 907.2 504 
L 907.2 69.12 
L 126 69.12 
z
"/>
   </g>
   <g id="matplotlib.axis_1">
    <g id="xtick_1">
     <g id="line2d_1">
      <defs>
       <path d="M 0 0 
L 0 3.5 
" id="m468378a633" style="stroke:#ffffff;stroke-width:0.8;"/>
      </defs>
      <g>
       <use style="fill:#ffffff;stroke:#ffffff;stroke-width:0.8;" x="161.509091" xlink:href="#m468378a633" y="504"/>
      </g>
     </g>
     <g id="text_1">
      <!-- 0 -->
      <g style="fill:#ffffff;" transform="translate(158.327841 518.598438)scale(0.1 -0.1)">
       <defs>
        <path d="M 2034 4250 
Q 1547 4250 1301 3770 
Q 1056 3291 1056 2328 
Q 1056 1369 1301 889 
Q 1547 409 2034 409 
Q 2525 409 2770 889 
Q 3016 1369 3016 2328 
Q 3016 3291 2770 3770 
Q 2525 4250 2034 4250 
z
M 2034 4750 
Q 2819 4750 3233 4129 
Q 3647 3509 3647 2328 
Q 3647 1150 3233 529 
Q 2819 -91 2034 -91 
Q 1250 -91 836 529 
Q 422 1150 422 2328 
Q 422 3509 836 4129 
Q 1250 4750 2034 4750 
z
" id="DejaVuSans-30" transform="scale(0.015625)"/>
       </defs>
       <use xlink:href="#DejaVuSans-30"/>
      </g>
     </g>
    </g>
    <g id="xtick_2">
     <g id="line2d_2">
      <g>
       <use style="fill:#ffffff;stroke:#ffffff;stroke-width:0.8;" x="294.851528" xlink:href="#m468378a633" y="504"/>
      </g>
     </g>
     <g id="text_2">
      <!-- 500 -->
      <g style="fill:#ffffff;" transform="translate(285.307778 518.598438)scale(0.1 -0.1)">
       <defs>
        <path d="M 691 4666 
L 3169 4666 
L 3169 4134 
L 1269 4134 
L 1269 2991 
Q 1406 3038 1543 3061 
Q 1681 3084 1819 3084 
Q 2600 3084 3056 2656 
Q 3513 2228 3513 1497 
Q 3513 744 3044 326 
Q 2575 -91 1722 -91 
Q 1428 -91 1123 -41 
Q 819 9 494 109 
L 494 744 
Q 775 591 1075 516 
Q 1375 441 1709 441 
Q 2250 441 2565 725 
Q 2881 1009 2881 1497 
Q 2881 1984 2565 2268 
Q 2250 2553 1709 2553 
Q 1456 2553 1204 2497 
Q 953 2441 691 2322 
L 691 4666 
z
" id="DejaVuSans-35" transform="scale(0.015625)"/>
       </defs>
       <use xlink:href="#DejaVuSans-35"/>
       <use x="63.623047" xlink:href="#DejaVuSans-30"/>
       <use x="127.246094" xlink:href="#DejaVuSans-30"/>
      </g>
     </g>
    </g>
    <g id="xtick_3">
     <g id="line2d_3">
      <g>
       <use style="fill:#ffffff;stroke:#ffffff;stroke-width:0.8;" x="428.193964" xlink:href="#m468378a633" y="504"/>
      </g>
     </g>
     <g id="text_3">
      <!-- 1000 -->
      <g style="fill:#ffffff;" transform="translate(415.468964 518.598438)scale(0.1 -0.1)">
       <defs>
        <path d="M 794 531 
L 1825 531 
L 1825 4091 
L 703 3866 
L 703 4441 
L 1819 4666 
L 2450 4666 
L 2450 531 
L 3481 531 
L 3481 0 
L 794 0 
L 794 531 
z
" id="DejaVuSans-31" transform="scale(0.015625)"/>
       </defs>
       <use xlink:href="#DejaVuSans-31"/>
       <use x="63.623047" xlink:href="#DejaVuSans-30"/>
       <use x="127.246094" xlink:href="#DejaVuSans-30"/>
       <use x="190.869141" xlink:href="#DejaVuSans-30"/>
      </g>
     </g>
    </g>
    <g id="xtick_4">
     <g id="line2d_4">
      <g>
       <use style="fill:#ffffff;stroke:#ffffff;stroke-width:0.8;" x="561.536401" xlink:href="#m468378a633" y="504"/>
      </g>
     </g>
     <g id="text_4">
      <!-- 1500 -->
      <g style="fill:#ffffff;" transform="translate(548.811401 518.598438)scale(0.1 -0.1)">
       <use xlink:href="#DejaVuSans-31"/>
       <use x="63.623047" xlink:href="#DejaVuSans-35"/>
       <use x="127.246094" xlink:href="#DejaVuSans-30"/>
       <use x="190.869141" xlink:href="#DejaVuSans-30"/>
      </g>
     </g>
    </g>
    <g id="xtick_5">
     <g id="line2d_5">
      <g>
       <use style="fill:#ffffff;stroke:#ffffff;stroke-width:0.8;" x="694.878838" xlink:href="#m468378a633" y="504"/>
      </g>
     </g>
     <g id="text_5">
      <!-- 2000 -->
      <g style="fill:#ffffff;" transform="translate(682.153838 518.598438)scale(0.1 -0.1)">
       <defs>
        <path d="M 1228 531 
L 3431 531 
L 3431 0 
L 469 0 
L 469 531 
Q 828 903 1448 1529 
Q 2069 2156 2228 2338 
Q 2531 2678 2651 2914 
Q 2772 3150 2772 3378 
Q 2772 3750 2511 3984 
Q 2250 4219 1831 4219 
Q 1534 4219 1204 4116 
Q 875 4013 500 3803 
L 500 4441 
Q 881 4594 1212 4672 
Q 1544 4750 1819 4750 
Q 2544 4750 2975 4387 
Q 3406 4025 3406 3419 
Q 3406 3131 3298 2873 
Q 3191 2616 2906 2266 
Q 2828 2175 2409 1742 
Q 1991 1309 1228 531 
z
" id="DejaVuSans-32" transform="scale(0.015625)"/>
       </defs>
       <use xlink:href="#DejaVuSans-32"/>
       <use x="63.623047" xlink:href="#DejaVuSans-30"/>
       <use x="127.246094" xlink:href="#DejaVuSans-30"/>
       <use x="190.869141" xlink:href="#DejaVuSans-30"/>
      </g>
     </g>
    </g>
    <g id="xtick_6">
     <g id="line2d_6">
      <g>
       <use style="fill:#ffffff;stroke:#ffffff;stroke-width:0.8;" x="828.221275" xlink:href="#m468378a633" y="504"/>
      </g>
     </g>
     <g id="text_6">
      <!-- 2500 -->
      <g style="fill:#ffffff;" transform="translate(815.496275 518.598438)scale(0.1 -0.1)">
       <use xlink:href="#DejaVuSans-32"/>
       <use x="63.623047" xlink:href="#DejaVuSans-35"/>
       <use x="127.246094" xlink:href="#DejaVuSans-30"/>
       <use x="190.869141" xlink:href="#DejaVuSans-30"/>
      </g>
     </g>
    </g>
    <g id="text_7">
     <!-- iteration -->
     <g style="fill:#ffffff;" transform="translate(495.477344 532.276562)scale(0.1 -0.1)">
      <defs>
       <path d="M 603 3500 
L 1178 3500 
L 1178 0 
L 603 0 
L 603 3500 
z
M 603 4863 
L 1178 4863 
L 1178 4134 
L 603 4134 
L 603 4863 
z
" id="DejaVuSans-69" transform="scale(0.015625)"/>
       <path d="M 1172 4494 
L 1172 3500 
L 2356 3500 
L 2356 3053 
L 1172 3053 
L 1172 1153 
Q 1172 725 1289 603 
Q 1406 481 1766 481 
L 2356 481 
L 2356 0 
L 1766 0 
Q 1100 0 847 248 
Q 594 497 594 1153 
L 594 3053 
L 172 3053 
L 172 3500 
L 594 3500 
L 594 4494 
L 1172 4494 
z
" id="DejaVuSans-74" transform="scale(0.015625)"/>
       <path d="M 3597 1894 
L 3597 1613 
L 953 1613 
Q 991 1019 1311 708 
Q 1631 397 2203 397 
Q 2534 397 2845 478 
Q 3156 559 3463 722 
L 3463 178 
Q 3153 47 2828 -22 
Q 2503 -91 2169 -91 
Q 1331 -91 842 396 
Q 353 884 353 1716 
Q 353 2575 817 3079 
Q 1281 3584 2069 3584 
Q 2775 3584 3186 3129 
Q 3597 2675 3597 1894 
z
M 3022 2063 
Q 3016 2534 2758 2815 
Q 2500 3097 2075 3097 
Q 1594 3097 1305 2825 
Q 1016 2553 972 2059 
L 3022 2063 
z
" id="DejaVuSans-65" transform="scale(0.015625)"/>
       <path d="M 2631 2963 
Q 2534 3019 2420 3045 
Q 2306 3072 2169 3072 
Q 1681 3072 1420 2755 
Q 1159 2438 1159 1844 
L 1159 0 
L 581 0 
L 581 3500 
L 1159 3500 
L 1159 2956 
Q 1341 3275 1631 3429 
Q 1922 3584 2338 3584 
Q 2397 3584 2469 3576 
Q 2541 3569 2628 3553 
L 2631 2963 
z
" id="DejaVuSans-72" transform="scale(0.015625)"/>
       <path d="M 2194 1759 
Q 1497 1759 1228 1600 
Q 959 1441 959 1056 
Q 959 750 1161 570 
Q 1363 391 1709 391 
Q 2188 391 2477 730 
Q 2766 1069 2766 1631 
L 2766 1759 
L 2194 1759 
z
M 3341 1997 
L 3341 0 
L 2766 0 
L 2766 531 
Q 2569 213 2275 61 
Q 1981 -91 1556 -91 
Q 1019 -91 701 211 
Q 384 513 384 1019 
Q 384 1609 779 1909 
Q 1175 2209 1959 2209 
L 2766 2209 
L 2766 2266 
Q 2766 2663 2505 2880 
Q 2244 3097 1772 3097 
Q 1472 3097 1187 3025 
Q 903 2953 641 2809 
L 641 3341 
Q 956 3463 1253 3523 
Q 1550 3584 1831 3584 
Q 2591 3584 2966 3190 
Q 3341 2797 3341 1997 
z
" id="DejaVuSans-61" transform="scale(0.015625)"/>
       <path d="M 1959 3097 
Q 1497 3097 1228 2736 
Q 959 2375 959 1747 
Q 959 1119 1226 758 
Q 1494 397 1959 397 
Q 2419 397 2687 759 
Q 2956 1122 2956 1747 
Q 2956 2369 2687 2733 
Q 2419 3097 1959 3097 
z
M 1959 3584 
Q 2709 3584 3137 3096 
Q 3566 2609 3566 1747 
Q 3566 888 3137 398 
Q 2709 -91 1959 -91 
Q 1206 -91 779 398 
Q 353 888 353 1747 
Q 353 2609 779 3096 
Q 1206 3584 1959 3584 
z
" id="DejaVuSans-6f" transform="scale(0.015625)"/>
       <path d="M 3513 2113 
L 3513 0 
L 2938 0 
L 2938 2094 
Q 2938 2591 2744 2837 
Q 2550 3084 2163 3084 
Q 1697 3084 1428 2787 
Q 1159 2491 1159 1978 
L 1159 0 
L 581 0 
L 581 3500 
L 1159 3500 
L 1159 2956 
Q 1366 3272 1645 3428 
Q 1925 3584 2291 3584 
Q 2894 3584 3203 3211 
Q 3513 2838 3513 2113 
z
" id="DejaVuSans-6e" transform="scale(0.015625)"/>
      </defs>
      <use xlink:href="#DejaVuSans-69"/>
      <use x="27.783203" xlink:href="#DejaVuSans-74"/>
      <use x="66.992188" xlink:href="#DejaVuSans-65"/>
      <use x="128.515625" xlink:href="#DejaVuSans-72"/>
      <use x="169.628906" xlink:href="#DejaVuSans-61"/>
      <use x="230.908203" xlink:href="#DejaVuSans-74"/>
      <use x="270.117188" xlink:href="#DejaVuSans-69"/>
      <use x="297.900391" xlink:href="#DejaVuSans-6f"/>
      <use x="359.082031" xlink:href="#DejaVuSans-6e"/>
     </g>
    </g>
   </g>
   <g id="matplotlib.axis_2">
    <g id="ytick_1">
     <g id="line2d_7">
      <defs>
       <path d="M 0 0 
L -3.5 0 
" id="mfbae247d99" style="stroke:#ffffff;stroke-width:0.8;"/>
      </defs>
      <g>
       <use style="fill:#ffffff;stroke:#ffffff;stroke-width:0.8;" x="126" xlink:href="#mfbae247d99" y="484.232727"/>
      </g>
     </g>
     <g id="text_8">
      <!-- 0 -->
      <g style="fill:#ffffff;" transform="translate(112.6375 488.031946)scale(0.1 -0.1)">
       <use xlink:href="#DejaVuSans-30"/>
      </g>
     </g>
    </g>
    <g id="ytick_2">
     <g id="line2d_8">
      <g>
       <use style="fill:#ffffff;stroke:#ffffff;stroke-width:0.8;" x="126" xlink:href="#mfbae247d99" y="428.397706"/>
      </g>
     </g>
     <g id="text_9">
      <!-- 5000 -->
      <g style="fill:#ffffff;" transform="translate(93.55 432.196924)scale(0.1 -0.1)">
       <use xlink:href="#DejaVuSans-35"/>
       <use x="63.623047" xlink:href="#DejaVuSans-30"/>
       <use x="127.246094" xlink:href="#DejaVuSans-30"/>
       <use x="190.869141" xlink:href="#DejaVuSans-30"/>
      </g>
     </g>
    </g>
    <g id="ytick_3">
     <g id="line2d_9">
      <g>
       <use style="fill:#ffffff;stroke:#ffffff;stroke-width:0.8;" x="126" xlink:href="#mfbae247d99" y="372.562684"/>
      </g>
     </g>
     <g id="text_10">
      <!-- 10000 -->
      <g style="fill:#ffffff;" transform="translate(87.1875 376.361903)scale(0.1 -0.1)">
       <use xlink:href="#DejaVuSans-31"/>
       <use x="63.623047" xlink:href="#DejaVuSans-30"/>
       <use x="127.246094" xlink:href="#DejaVuSans-30"/>
       <use x="190.869141" xlink:href="#DejaVuSans-30"/>
       <use x="254.492188" xlink:href="#DejaVuSans-30"/>
      </g>
     </g>
    </g>
    <g id="ytick_4">
     <g id="line2d_10">
      <g>
       <use style="fill:#ffffff;stroke:#ffffff;stroke-width:0.8;" x="126" xlink:href="#mfbae247d99" y="316.727662"/>
      </g>
     </g>
     <g id="text_11">
      <!-- 15000 -->
      <g style="fill:#ffffff;" transform="translate(87.1875 320.526881)scale(0.1 -0.1)">
       <use xlink:href="#DejaVuSans-31"/>
       <use x="63.623047" xlink:href="#DejaVuSans-35"/>
       <use x="127.246094" xlink:href="#DejaVuSans-30"/>
       <use x="190.869141" xlink:href="#DejaVuSans-30"/>
       <use x="254.492188" xlink:href="#DejaVuSans-30"/>
      </g>
     </g>
    </g>
    <g id="ytick_5">
     <g id="line2d_11">
      <g>
       <use style="fill:#ffffff;stroke:#ffffff;stroke-width:0.8;" x="126" xlink:href="#mfbae247d99" y="260.892641"/>
      </g>
     </g>
     <g id="text_12">
      <!-- 20000 -->
      <g style="fill:#ffffff;" transform="translate(87.1875 264.691859)scale(0.1 -0.1)">
       <use xlink:href="#DejaVuSans-32"/>
       <use x="63.623047" xlink:href="#DejaVuSans-30"/>
       <use x="127.246094" xlink:href="#DejaVuSans-30"/>
       <use x="190.869141" xlink:href="#DejaVuSans-30"/>
       <use x="254.492188" xlink:href="#DejaVuSans-30"/>
      </g>
     </g>
    </g>
    <g id="ytick_6">
     <g id="line2d_12">
      <g>
       <use style="fill:#ffffff;stroke:#ffffff;stroke-width:0.8;" x="126" xlink:href="#mfbae247d99" y="205.057619"/>
      </g>
     </g>
     <g id="text_13">
      <!-- 25000 -->
      <g style="fill:#ffffff;" transform="translate(87.1875 208.856838)scale(0.1 -0.1)">
       <use xlink:href="#DejaVuSans-32"/>
       <use x="63.623047" xlink:href="#DejaVuSans-35"/>
       <use x="127.246094" xlink:href="#DejaVuSans-30"/>
       <use x="190.869141" xlink:href="#DejaVuSans-30"/>
       <use x="254.492188" xlink:href="#DejaVuSans-30"/>
      </g>
     </g>
    </g>
    <g id="ytick_7">
     <g id="line2d_13">
      <g>
       <use style="fill:#ffffff;stroke:#ffffff;stroke-width:0.8;" x="126" xlink:href="#mfbae247d99" y="149.222597"/>
      </g>
     </g>
     <g id="text_14">
      <!-- 30000 -->
      <g style="fill:#ffffff;" transform="translate(87.1875 153.021816)scale(0.1 -0.1)">
       <defs>
        <path d="M 2597 2516 
Q 3050 2419 3304 2112 
Q 3559 1806 3559 1356 
Q 3559 666 3084 287 
Q 2609 -91 1734 -91 
Q 1441 -91 1130 -33 
Q 819 25 488 141 
L 488 750 
Q 750 597 1062 519 
Q 1375 441 1716 441 
Q 2309 441 2620 675 
Q 2931 909 2931 1356 
Q 2931 1769 2642 2001 
Q 2353 2234 1838 2234 
L 1294 2234 
L 1294 2753 
L 1863 2753 
Q 2328 2753 2575 2939 
Q 2822 3125 2822 3475 
Q 2822 3834 2567 4026 
Q 2313 4219 1838 4219 
Q 1578 4219 1281 4162 
Q 984 4106 628 3988 
L 628 4550 
Q 988 4650 1302 4700 
Q 1616 4750 1894 4750 
Q 2613 4750 3031 4423 
Q 3450 4097 3450 3541 
Q 3450 3153 3228 2886 
Q 3006 2619 2597 2516 
z
" id="DejaVuSans-33" transform="scale(0.015625)"/>
       </defs>
       <use xlink:href="#DejaVuSans-33"/>
       <use x="63.623047" xlink:href="#DejaVuSans-30"/>
       <use x="127.246094" xlink:href="#DejaVuSans-30"/>
       <use x="190.869141" xlink:href="#DejaVuSans-30"/>
       <use x="254.492188" xlink:href="#DejaVuSans-30"/>
      </g>
     </g>
    </g>
    <g id="ytick_8">
     <g id="line2d_14">
      <g>
       <use style="fill:#ffffff;stroke:#ffffff;stroke-width:0.8;" x="126" xlink:href="#mfbae247d99" y="93.387575"/>
      </g>
     </g>
     <g id="text_15">
      <!-- 35000 -->
      <g style="fill:#ffffff;" transform="translate(87.1875 97.186794)scale(0.1 -0.1)">
       <use xlink:href="#DejaVuSans-33"/>
       <use x="63.623047" xlink:href="#DejaVuSans-35"/>
       <use x="127.246094" xlink:href="#DejaVuSans-30"/>
       <use x="190.869141" xlink:href="#DejaVuSans-30"/>
       <use x="254.492188" xlink:href="#DejaVuSans-30"/>
      </g>
     </g>
    </g>
   </g>
   <g id="line2d_15">
    <path clip-path="url(#pa7f6af914d)" d="M 161.509091 180.356205 
L 162.042461 247.380565 
L 162.309146 271.244454 
L 162.57583 246.252698 
L 163.1092 263.003204 
L 163.375885 262.31085 
L 163.64257 256.537509 
L 163.909255 282.165784 
L 164.442625 302.634903 
L 164.709309 325.426759 
L 164.975994 323.807543 
L 165.242679 302.210557 
L 165.509364 302.110054 
L 165.776049 323.70704 
L 166.042734 331.412273 
L 166.309419 305.783998 
L 166.576104 297.877759 
L 167.109473 336.93994 
L 167.376158 328.397182 
L 167.642843 334.170523 
L 167.909528 335.678069 
L 168.442898 319.686918 
L 168.709582 294.628161 
L 168.976267 305.62766 
L 169.242952 304.008444 
L 169.509637 304.108947 
L 169.776322 354.192962 
L 170.309692 336.638431 
L 170.576377 345.560867 
L 170.843061 336.515594 
L 171.109746 313.723738 
L 171.376431 344.555837 
L 171.643116 353.299601 
L 171.909801 331.322937 
L 172.176486 356.381695 
L 172.443171 349.312981 
L 172.709856 328.497685 
L 172.97654 319.229071 
L 173.243225 340.044367 
L 173.776595 298.279771 
L 174.04328 289.245665 
L 174.57665 250.786502 
L 174.843335 267.49234 
L 175.110019 276.537614 
L 175.376704 267.49234 
L 175.643389 244.700484 
L 176.176759 306.174843 
L 176.443444 284.198179 
L 176.710129 306.174843 
L 176.976814 306.07434 
L 177.243498 313.667903 
L 177.510183 305.761664 
L 177.776868 314.6841 
L 178.043553 287.793954 
L 178.310238 296.839228 
L 178.576923 321.897985 
L 178.843608 330.932092 
L 179.110293 329.424546 
L 179.376977 356.314693 
L 179.643662 333.522837 
L 179.910347 341.764086 
L 180.177032 362.579382 
L 180.443717 362.679885 
L 180.710402 340.703221 
L 180.977087 349.971834 
L 181.243772 334.137022 
L 181.777141 371.088639 
L 182.577196 297.520415 
L 183.377251 272.483991 
L 183.643935 266.71065 
L 183.91062 250.462659 
L 184.177305 259.496765 
L 184.710675 300.368001 
L 185.244045 313.399895 
L 185.51073 313.600901 
L 185.777414 307.82756 
L 186.044099 288.932988 
L 186.310784 296.001702 
L 186.577469 270.942944 
L 186.844154 276.716286 
L 187.110839 267.447672 
L 187.377524 268.955218 
L 187.644209 273.701195 
L 187.910893 281.607434 
L 188.177578 280.099888 
L 188.710948 321.607643 
L 188.977633 315.834302 
L 189.244318 306.911865 
L 189.511003 280.021719 
L 189.777688 279.921216 
L 190.044372 304.979974 
L 190.311057 283.003309 
L 190.844427 336.281087 
L 191.111112 323.729374 
L 191.377797 301.752709 
L 191.644482 294.047476 
L 191.911166 269.055721 
L 192.444536 283.829667 
L 192.711221 276.727453 
L 193.244591 318.235208 
L 193.777961 263.61739 
L 194.044645 291.345061 
L 194.31133 296.091038 
L 194.578015 273.299182 
L 194.8447 265.593949 
L 195.111385 274.516386 
L 195.37807 250.652498 
L 195.644755 245.906521 
L 195.91144 218.178849 
L 196.178124 236.984084 
L 196.444809 290.909548 
L 196.711494 290.340031 
L 196.978179 294.885002 
L 197.244864 309.748285 
L 197.511549 316.515489 
L 197.778234 316.414986 
L 198.044919 332.249798 
L 198.311603 307.258043 
L 198.578288 298.223936 
L 198.844973 276.247272 
L 199.111658 266.978658 
L 199.378343 287.793954 
L 199.645028 286.286408 
L 199.911713 294.527658 
L 200.178398 294.628161 
L 200.445082 285.582887 
L 200.711767 283.963672 
L 200.978452 265.0691 
L 201.511822 313.556233 
L 201.778507 286.666087 
L 202.045192 272.45049 
L 202.311877 281.719104 
L 202.578561 275.87876 
L 202.845246 300.870516 
L 203.111931 294.103311 
L 203.378616 314.918608 
L 203.645301 313.299392 
L 203.911986 304.030778 
L 204.178671 304.32112 
L 204.445356 298.547779 
L 204.71204 307.470216 
L 204.978725 282.411458 
L 205.24541 282.411458 
L 205.512095 304.388122 
L 205.77878 302.746573 
L 206.045465 341.373241 
L 206.31215 343.137628 
L 206.578835 349.904832 
L 206.845519 350.105838 
L 207.112204 342.847285 
L 207.378889 317.788528 
L 207.912259 334.438531 
L 208.445629 318.626053 
L 208.712314 323.37203 
L 208.978998 298.380274 
L 209.245683 298.279771 
L 209.512368 305.538324 
L 209.779053 332.42847 
L 210.045738 330.809255 
L 210.312423 323.550702 
L 210.579108 348.60946 
L 210.845793 236.046056 
L 211.112477 244.890323 
L 211.645847 286.096569 
L 211.912532 294.002808 
L 212.179217 286.096569 
L 212.445902 263.304714 
L 212.712587 272.22715 
L 212.979271 263.193043 
L 213.512641 260.066282 
L 213.779326 268.307531 
L 214.046011 261.238818 
L 214.579381 304.723133 
L 214.846066 320.557945 
L 215.11275 295.499187 
L 215.379435 286.308742 
L 215.64612 313.198889 
L 215.912805 319.966094 
L 216.17949 298.547779 
L 216.446175 211.623817 
L 216.979545 260.166785 
L 217.512914 309.022429 
L 217.779599 300.099993 
L 218.046284 305.873334 
L 218.312969 298.168101 
L 218.579654 307.436715 
L 218.846339 291.601903 
L 219.113024 300.44617 
L 219.379708 291.177556 
L 219.646393 299.921321 
L 220.179763 260.211453 
L 220.446448 279.106025 
L 220.713133 277.486809 
L 220.979818 285.728058 
L 221.246503 279.954717 
L 221.513187 279.753711 
L 222.046557 230.049375 
L 222.313242 257.777046 
L 222.579927 265.482279 
L 223.113297 250.473826 
L 223.913351 316.113477 
L 224.446721 333.62334 
L 224.980091 315.510459 
L 225.246776 315.711465 
L 225.513461 321.484806 
L 225.780145 295.856531 
L 226.04683 311.691343 
L 226.313515 306.945366 
L 226.5802 307.04587 
L 226.846885 298.302105 
L 227.11357 270.574433 
L 227.64694 236.704909 
L 228.180309 270.797773 
L 228.446994 274.516386 
L 228.713679 299.575144 
L 228.980364 280.680572 
L 229.247049 270.451596 
L 229.513734 279.195361 
L 229.780419 271.490128 
L 230.047103 250.674832 
L 230.313788 243.907627 
L 230.580473 264.722923 
L 230.847158 264.62242 
L 231.113843 243.807124 
L 231.647213 286.599085 
L 231.913898 265.783788 
L 232.180582 273.489021 
L 232.447267 255.074631 
L 232.713952 275.889927 
L 232.980637 267.983688 
L 233.247322 300.948685 
L 233.514007 310.13913 
L 233.780692 311.758345 
L 234.047377 290.943049 
L 234.314061 292.450595 
L 234.847431 274.337714 
L 235.114116 249.278956 
L 235.380801 256.046161 
L 235.647486 247.804911 
L 235.914171 256.046161 
L 236.180855 240.211349 
L 236.714225 224.108528 
L 236.98091 241.752395 
L 237.51428 294.538825 
L 237.780965 286.833592 
L 238.04765 307.648888 
L 238.314334 285.672223 
L 238.581019 294.717497 
L 238.847704 266.989825 
L 239.114389 258.748576 
L 239.647759 282.567796 
L 240.181129 230.685894 
L 240.447813 246.520706 
L 240.714498 239.262153 
L 240.981183 264.253909 
L 241.247868 264.052903 
L 241.514553 303.42776 
L 241.781238 305.046976 
L 242.047923 330.675251 
L 242.314608 321.830983 
L 242.581292 294.103311 
L 242.847977 286.844759 
L 243.381347 304.633797 
L 243.648032 279.642041 
L 243.914717 271.735802 
L 244.181402 244.845655 
L 244.448087 235.655211 
L 244.714771 256.470507 
L 245.248141 270.150087 
L 245.514826 270.049584 
L 246.048196 307.481383 
L 246.581566 292.472929 
L 246.84825 299.731482 
L 247.114935 234.862353 
L 247.38162 262.913868 
L 247.648305 262.813365 
L 247.91499 288.44164 
L 248.181675 297.475747 
L 248.44836 319.072733 
L 248.715045 319.173236 
L 248.981729 328.21851 
L 249.248414 350.195174 
L 249.515099 350.094671 
L 250.048469 366.431999 
L 250.315154 368.051214 
L 250.581839 373.824555 
L 250.848524 364.790449 
L 251.115208 363.171233 
L 251.381893 363.271736 
L 251.648578 355.030487 
L 251.915263 334.215191 
L 252.181948 352.629581 
L 252.448633 345.862377 
L 252.715318 364.756948 
L 252.982003 341.965092 
L 253.248687 365.82898 
L 253.782057 313.042551 
L 254.048742 303.773937 
L 254.315427 328.832695 
L 254.848797 288.821318 
L 255.115482 307.235709 
L 255.382166 314.002913 
L 255.648851 313.801907 
L 255.915536 304.611463 
L 256.182221 312.517702 
L 256.448906 328.352514 
L 257.248961 353.04276 
L 257.78233 334.807042 
L 258.049015 336.314588 
L 258.3157 330.541247 
L 258.582385 312.89738 
L 259.115755 296.984399 
L 259.382439 302.75774 
L 259.649124 304.376955 
L 259.915809 313.645569 
L 260.182494 335.242555 
L 260.449179 319.407743 
L 260.715864 227.916477 
L 261.515918 300.200496 
L 261.782603 291.155222 
L 262.049288 292.662768 
L 262.315973 311.077158 
L 262.849343 293.120615 
L 263.116028 269.256727 
L 263.382713 269.35723 
L 263.649397 304.153615 
L 263.916082 313.187722 
L 264.182767 332.082293 
L 264.449452 330.574748 
L 264.716137 322.668509 
L 264.982822 329.435713 
L 265.516192 369.402422 
L 265.782876 360.211977 
L 266.049561 339.396681 
L 266.582931 356.225357 
L 266.849616 357.844572 
L 267.382986 311.25583 
L 267.649671 302.333394 
L 267.916355 302.132388 
L 268.18304 323.729374 
L 268.449725 318.983397 
L 268.71641 316.962169 
L 268.983095 332.082293 
L 269.24978 332.283299 
L 269.516465 333.790845 
L 270.049834 349.603323 
L 270.316519 358.871937 
L 270.583204 383.863692 
L 270.849889 374.818419 
L 271.383259 328.162675 
L 271.649944 319.318407 
L 271.916629 328.363681 
L 272.183313 319.095067 
L 272.449998 342.958955 
L 272.716683 335.700403 
L 272.983368 344.54467 
L 273.250053 328.709858 
L 273.516738 319.675751 
L 273.783423 342.467607 
L 274.050108 337.72163 
L 274.316792 346.990244 
L 274.583477 351.736221 
L 274.850162 351.635718 
L 275.116847 343.729479 
L 275.383532 352.651915 
L 275.650217 369.357754 
L 275.916902 367.850208 
L 276.183587 346.253222 
L 276.450271 352.026563 
L 276.716956 335.320725 
L 276.983641 351.155537 
L 277.250326 188.965966 
L 277.517011 206.609832 
L 277.783696 231.66859 
L 278.050381 243.56145 
L 278.317066 243.862959 
L 278.58375 249.6363 
L 278.850435 279.921216 
L 279.11712 274.147875 
L 279.383805 297.810757 
L 279.65049 288.921821 
L 279.917175 298.190435 
L 280.18386 273.131677 
L 280.450544 273.031174 
L 280.717229 246.141028 
L 281.517284 308.94426 
L 281.783969 281.216588 
L 282.050654 282.835804 
L 282.317339 289.603009 
L 282.584023 274.628056 
L 282.850708 299.686814 
L 283.117393 290.496369 
L 283.384078 288.877153 
L 283.650763 315.7673 
L 283.917448 330.742253 
L 284.450818 306.844863 
L 284.717502 307.04587 
L 285.250872 349.804329 
L 286.050927 304.577962 
L 286.317612 313.500398 
L 286.850981 295.543855 
L 287.117666 270.485097 
L 287.384351 291.300393 
L 287.651036 269.323729 
L 288.184406 322.679676 
L 288.451091 297.051401 
L 288.717776 288.810151 
L 288.98446 297.218906 
L 289.251145 301.663373 
L 289.51783 292.863774 
L 289.784515 299.932488 
L 290.0512 317.576355 
L 290.58457 285.705724 
L 290.851255 311.333999 
L 291.117939 319.039232 
L 291.384624 318.838226 
L 291.651309 324.611567 
L 291.917994 339.58652 
L 292.451364 289.066993 
L 292.718049 289.267999 
L 292.984734 279.999385 
L 293.251418 305.058143 
L 293.518103 284.242847 
L 294.051473 270.563266 
L 294.318158 245.504509 
L 294.584843 236.660241 
L 294.851528 211.031966 
L 295.118213 215.777943 
L 295.384897 194.180957 
L 295.651582 216.157621 
L 295.918267 225.426235 
L 296.184952 242.132073 
L 296.718322 292.461762 
L 297.251692 326.710964 
L 297.518376 317.676858 
L 297.785061 332.65181 
L 298.051746 317.676858 
L 298.318431 324.93541 
L 298.585116 324.834907 
L 298.851801 333.578672 
L 299.118486 314.6841 
L 299.385171 307.425548 
L 299.651855 314.192752 
L 300.185225 265.270106 
L 300.45191 289.133995 
L 300.718595 289.234498 
L 300.98528 283.461156 
L 301.251965 290.52987 
L 301.51865 264.901595 
L 301.785334 272.606828 
L 302.052019 254.192438 
L 302.585389 238.580966 
L 302.852074 304.95764 
L 303.118759 312.863879 
L 303.385444 312.662873 
L 303.652128 313.645569 
L 303.918813 306.096674 
L 304.185498 307.71589 
L 304.452183 350.329178 
L 304.718868 374.193067 
L 304.985553 373.992061 
L 306.052292 291.099387 
L 306.318977 346.264389 
L 306.585662 338.559156 
L 306.852347 363.550911 
L 307.119032 372.395179 
L 307.385717 372.294676 
L 307.652402 400.022348 
L 307.919086 378.425361 
L 308.185771 387.615806 
L 308.452456 404.321644 
L 308.719141 413.355751 
L 309.252511 364.93562 
L 309.519196 259.273425 
L 309.785881 233.64515 
L 310.31925 286.465081 
L 310.85262 318.324544 
L 311.119305 324.097885 
L 311.38599 315.856636 
L 311.652675 323.115189 
L 311.91936 315.856636 
L 312.186044 330.831589 
L 312.452729 315.856636 
L 312.719414 320.602613 
L 312.986099 320.50211 
L 313.252784 295.510354 
L 313.519469 287.045765 
L 313.786154 265.448778 
L 314.319523 297.12957 
L 314.586208 297.230073 
L 314.852893 304.488626 
L 315.119578 302.98108 
L 315.652948 261.294653 
L 315.919633 255.521311 
L 316.186318 257.028857 
L 316.453002 240.323019 
L 316.719687 261.920005 
L 316.986372 252.997569 
L 317.253057 252.897065 
L 317.519742 252.997569 
L 317.786427 320.881788 
L 318.053112 322.802513 
L 318.319797 340.55805 
L 318.586481 340.55805 
L 318.853166 365.616807 
L 319.119851 356.77254 
L 319.653221 403.394783 
L 319.919906 381.418118 
L 320.186591 374.349405 
L 320.453276 373.54538 
L 320.71996 395.522045 
L 320.986645 372.730189 
L 321.25333 381.574456 
L 321.520015 355.946182 
L 321.7867 374.360572 
L 322.053385 347.470425 
L 322.586755 388.933512 
L 322.853439 396.002226 
L 323.120124 379.296388 
L 323.386809 406.186534 
L 323.653494 380.558259 
L 323.920179 385.304236 
L 324.186864 378.235522 
L 324.453549 403.863797 
L 324.720234 403.9643 
L 324.986918 412.886737 
L 325.253603 404.645487 
L 325.520288 404.846494 
L 325.786973 396.002226 
L 326.053658 371.01047 
L 326.587028 356.314693 
L 326.853712 330.686418 
L 327.120397 339.731691 
L 327.387082 320.83712 
L 327.653767 316.091143 
L 327.920452 324.93541 
L 328.187137 315.666797 
L 328.453822 322.92535 
L 328.720507 322.824847 
L 328.987191 315.566294 
L 329.253876 324.287724 
L 329.520561 349.346482 
L 329.787246 356.415196 
L 330.053931 375.309767 
L 330.320616 375.41027 
L 330.587301 382.177475 
L 331.387355 357.21922 
L 331.65404 380.011076 
L 331.920725 374.751417 
L 332.18741 347.023745 
L 332.454095 337.8333 
L 332.72078 347.023745 
L 332.987465 328.129174 
L 333.254149 319.296073 
L 333.520834 328.341347 
L 334.054204 286.855926 
L 334.320889 294.762165 
L 334.587574 296.470716 
L 334.854259 291.211057 
L 335.120944 303.773937 
L 335.387628 303.773937 
L 335.654313 236.704909 
L 335.920998 257.520205 
L 336.187683 264.588919 
L 336.454368 255.320305 
L 336.987738 213.555709 
L 337.254423 230.261548 
L 337.521107 230.362051 
L 337.787792 239.630664 
L 338.321162 283.516991 
L 338.854532 265.850791 
L 339.387902 334.918712 
L 339.921271 309.792953 
L 340.187956 324.767905 
L 340.454641 315.499292 
L 340.721326 334.393863 
L 340.988011 327.325149 
L 341.521381 287.615282 
L 341.788065 296.805727 
L 342.05475 274.013871 
L 342.321435 278.759848 
L 342.58812 269.714574 
L 342.854805 245.850686 
L 343.12149 268.642542 
L 343.388175 268.542039 
L 344.188229 332.417303 
L 344.721599 321.897985 
L 344.988284 304.254118 
L 345.254969 323.14869 
L 345.521654 330.217404 
L 345.788339 355.276161 
L 346.055023 336.38159 
L 346.321708 334.762374 
L 346.588393 318.927562 
L 346.855078 293.868804 
L 347.121763 295.48802 
L 347.388448 295.588523 
L 347.655133 246.945052 
L 347.921817 301.886714 
L 348.188502 301.886714 
L 348.455187 300.412669 
L 348.721872 322.947684 
L 348.988557 327.693661 
L 349.521927 283.170814 
L 349.788612 277.397473 
L 350.055296 285.638722 
L 350.321981 302.344561 
L 350.855351 286.230573 
L 351.122036 258.502902 
L 351.388721 249.580465 
L 351.655406 272.372321 
L 351.922091 278.145662 
L 352.188775 278.346668 
L 352.98883 204.800778 
L 353.255515 198.513754 
L 353.5222 226.241426 
L 353.788885 228.01698 
L 354.05557 246.911551 
L 354.322254 248.039419 
L 354.588939 256.961855 
L 355.122309 240.066177 
L 355.388994 223.360339 
L 355.655679 232.104103 
L 355.922364 211.288807 
L 356.189049 226.26376 
L 356.455733 233.332474 
L 356.722418 260.22262 
L 356.989103 254.449279 
L 357.255788 262.154512 
L 357.522473 253.232076 
L 357.789158 225.504404 
L 358.055843 246.3197 
L 358.322528 231.344747 
L 358.589212 232.148771 
L 359.122582 193.689608 
L 359.655952 211.72432 
L 359.922637 233.321307 
L 360.189322 225.616074 
L 360.722691 185.124516 
L 360.989376 212.852188 
L 361.256061 318.63722 
L 361.522746 311.121826 
L 361.789431 311.948184 
L 362.056116 320.691949 
L 362.322801 312.4507 
L 362.85617 347.001411 
L 363.122855 371.993167 
L 363.38954 378.224355 
L 363.656225 370.965802 
L 363.92291 347.41459 
L 364.45628 329.190039 
L 364.722965 329.391045 
L 364.989649 338.425152 
L 365.256334 313.433396 
L 365.523019 341.730585 
L 365.789704 334.96338 
L 366.323074 290.686208 
L 366.856444 308.620417 
L 367.123128 300.915184 
L 367.389813 309.156433 
L 367.656498 300.915184 
L 367.923183 278.93852 
L 368.189868 270.094252 
L 368.456553 277.352805 
L 368.723238 260.646966 
L 368.989923 235.588209 
L 369.256607 263.315881 
L 369.523292 271.55713 
L 369.789977 360.625156 
L 370.056662 364.37727 
L 370.323347 347.671431 
L 370.590032 340.602718 
L 370.856717 355.57767 
L 371.123401 346.733403 
L 371.390086 324.756738 
L 371.923456 340.569217 
L 372.190141 331.53511 
L 372.456826 353.511775 
L 372.723511 362.545881 
L 372.990196 353.500608 
L 373.25688 351.881392 
L 373.523565 360.926665 
L 373.79025 355.153324 
L 374.056935 355.052821 
L 374.32362 371.75866 
L 374.590305 379.999909 
L 375.657044 290.072023 
L 375.923729 281.328259 
L 376.457099 296.939731 
L 376.723784 270.049584 
L 376.990469 265.303607 
L 377.257154 271.076949 
L 377.523838 264.008235 
L 378.057208 300.066492 
L 378.323893 292.528764 
L 378.590578 301.574037 
L 378.857263 329.301709 
L 379.390633 347.235918 
L 379.657317 339.530685 
L 379.924002 365.15896 
L 380.190687 356.113687 
L 380.457372 363.81892 
L 380.990742 323.249193 
L 381.257427 302.433897 
L 381.524112 319.139735 
L 381.790796 261.205317 
L 382.057481 286.833592 
L 382.324166 294.538825 
L 382.857536 333.165493 
L 383.124221 325.259254 
L 383.390906 304.443958 
L 383.657591 326.420622 
L 383.924275 332.193963 
L 384.19096 323.003519 
L 384.457645 332.272132 
L 384.72433 332.071126 
L 384.991015 330.451911 
L 385.2577 322.746678 
L 385.524385 297.68792 
L 386.057754 282.154617 
L 386.324439 288.921821 
L 386.591124 273.087009 
L 386.857809 283.170814 
L 387.124494 301.830878 
L 387.391179 312.495368 
L 387.657864 306.722026 
L 387.924549 285.12504 
L 388.191233 276.772121 
L 388.457918 284.477354 
L 388.724603 261.685498 
L 388.991288 279.94355 
L 389.257973 286.342243 
L 389.524658 259.452097 
L 389.791343 273.020007 
L 390.324712 321.942653 
L 390.591397 300.345667 
L 391.391452 363.148899 
L 391.658137 354.114793 
L 391.924822 332.517806 
L 392.458191 320.513277 
L 392.724876 304.075446 
L 392.991561 312.316696 
L 393.258246 305.247982 
L 393.791616 321.428971 
L 394.058301 314.170418 
L 394.324985 314.069915 
L 394.59167 213.522208 
L 394.858355 221.283276 
L 395.12504 214.024723 
L 395.65841 260.166785 
L 395.925095 267.872018 
L 396.19178 269.491234 
L 396.458464 251.076844 
L 396.725149 259.318093 
L 396.991834 237.721107 
L 397.525204 220.780761 
L 397.791889 245.772517 
L 398.058574 244.264971 
L 398.325259 253.455416 
L 398.591943 251.8362 
L 398.858628 226.844444 
L 399.125313 274.683891 
L 399.925368 298.681783 
L 400.458738 281.596267 
L 400.725422 293.243452 
L 400.992107 317.10734 
L 401.258792 294.315485 
L 401.525477 246.777547 
L 401.792162 230.071709 
L 402.058847 257.79938 
L 402.325532 258.000386 
L 402.592217 262.746363 
L 402.858901 281.640935 
L 403.392271 265.080267 
L 403.925641 302.512066 
L 404.192326 302.713072 
L 404.459011 302.612569 
L 404.725696 304.231784 
L 404.99238 299.597478 
L 405.259065 302.299893 
L 405.52575 294.48299 
L 405.792435 321.373136 
L 406.05912 316.627159 
L 406.325805 333.332998 
L 406.59249 308.27424 
L 406.859175 313.020217 
L 407.125859 335.812073 
L 407.392544 345.002517 
L 408.192599 320.569112 
L 408.459284 314.795771 
L 408.725969 287.905624 
L 408.992654 285.627555 
L 409.259338 310.686313 
L 409.526023 319.430077 
L 410.059393 286.889427 
L 410.592763 311.992852 
L 410.859448 320.234102 
L 411.126133 305.259149 
L 411.392817 314.293255 
L 411.926187 271.880973 
L 412.459557 312.372531 
L 412.992927 273.131677 
L 413.259612 266.364473 
L 413.526296 275.666587 
L 413.792981 293.310454 
L 414.059666 272.495158 
L 414.593036 288.798984 
L 415.39309 351.311875 
L 415.659775 352.93109 
L 415.92646 361.853527 
L 416.193145 235.264366 
L 416.45983 259.99928 
L 416.726515 243.293442 
L 416.9932 251.534691 
L 417.259885 250.027145 
L 417.526569 237.274426 
L 417.793254 259.251091 
L 418.059939 254.962961 
L 418.326624 247.056722 
L 418.593309 255.979159 
L 418.859994 234.002494 
L 419.126679 234.102997 
L 419.393364 259.094753 
L 419.660048 251.8362 
L 420.193418 270.295258 
L 420.460103 261.104814 
L 420.726788 279.999385 
L 421.260158 263.550388 
L 421.526843 291.278059 
L 422.060212 304.120114 
L 422.326897 313.165388 
L 422.593582 295.521521 
L 422.860267 310.775649 
L 423.126952 317.844363 
L 423.393637 336.258753 
L 423.660322 344.500002 
L 423.927006 371.390149 
L 424.460376 354.114793 
L 424.727061 348.27445 
L 424.993746 348.073443 
L 425.260431 348.27445 
L 425.527116 341.015897 
L 425.793801 315.957139 
L 426.060485 324.879575 
L 426.32717 329.625552 
L 426.86054 345.43803 
L 427.39391 328.989033 
L 427.660595 303.360758 
L 427.92728 322.255329 
L 428.193964 306.420517 
L 428.460649 330.284406 
L 428.727334 330.183903 
L 429.527389 265.571615 
L 429.794074 281.5851 
L 430.060759 254.694953 
L 430.327443 264.767591 
L 430.860813 251.925536 
L 431.127498 276.984294 
L 431.394183 250.094147 
L 431.927553 234.281669 
L 432.194238 250.987508 
L 432.460922 243.918794 
L 432.727607 251.624027 
L 432.994292 286.319909 
L 433.260977 271.981476 
L 433.527662 308.062067 
L 433.794347 316.269815 
L 434.061032 321.015792 
L 434.327717 294.125645 
L 434.594401 284.857032 
L 434.861086 306.454018 
L 435.127771 298.547779 
L 435.394456 296.928564 
L 435.661141 287.738119 
L 435.927826 287.939125 
L 436.461196 326.677463 
L 436.72788 339.229176 
L 436.994565 322.411667 
L 437.26125 313.143054 
L 437.527935 338.13481 
L 437.79462 317.319514 
L 438.061305 326.364787 
L 438.32799 326.46529 
L 438.594674 341.440243 
L 438.861359 332.595975 
L 439.128044 309.80412 
L 439.661414 297.151904 
L 439.928099 304.410456 
L 440.461469 286.442747 
L 440.728153 302.277559 
L 440.994838 310.183798 
L 441.261523 300.993353 
L 441.528208 285.158541 
L 441.794893 285.058038 
L 442.061578 293.902305 
L 442.328263 314.717602 
L 442.594948 318.882894 
L 442.861632 318.882894 
L 443.128317 293.254619 
L 443.395002 302.177056 
L 443.661687 293.142949 
L 443.928372 309.848788 
L 444.461742 328.10684 
L 444.995111 279.563872 
L 445.261796 270.719604 
L 445.528481 296.347879 
L 445.795166 277.453308 
L 446.061851 241.294548 
L 446.328536 248.709439 
L 446.595221 266.353306 
L 446.861906 257.084692 
L 447.12859 265.325941 
L 447.395275 256.481674 
L 447.66196 273.187512 
L 448.462015 218.268185 
L 448.7287 204.220094 
L 448.995385 204.320597 
L 449.262069 197.810233 
L 449.795439 214.225729 
L 450.062124 239.854004 
L 450.328809 241.36155 
L 450.595494 262.176846 
L 450.862179 238.312958 
L 451.128864 253.287911 
L 451.395548 248.541934 
L 451.662233 233.566981 
L 451.928918 240.825534 
L 452.195603 241.629558 
L 452.462288 250.49616 
L 452.728973 232.852293 
L 452.995658 231.233077 
L 453.529027 246.710545 
L 453.795712 245.091329 
L 454.062397 270.150087 
L 454.329082 308.586916 
L 454.595767 311.166494 
L 454.862452 289.18983 
L 455.395822 325.839938 
L 455.662506 308.196071 
L 455.929191 333.824346 
L 456.195876 311.03249 
L 456.462561 320.077764 
L 456.729246 319.876758 
L 457.262616 360.31248 
L 457.529301 351.568716 
L 457.795985 356.314693 
L 458.06267 329.424546 
L 458.329355 314.449593 
L 458.862725 330.999094 
L 459.12941 352.975758 
L 459.396095 343.930485 
L 459.66278 343.930485 
L 459.929464 335.086217 
L 460.196149 333.198994 
L 460.462834 338.13481 
L 460.729519 334.952213 
L 460.996204 353.846785 
L 461.262889 362.892058 
L 461.796258 324.432895 
L 462.062943 324.633901 
L 462.329628 236.459235 
L 462.596313 245.64968 
L 462.862998 247.268895 
L 463.396368 279.094858 
L 463.663053 279.295864 
L 464.196422 247.615072 
L 464.463107 220.724926 
L 464.729792 220.724926 
L 464.996477 225.470903 
L 465.263162 242.176741 
L 465.796532 223.941023 
L 466.063216 281.339426 
L 466.329901 283.315985 
L 466.596586 257.721211 
L 466.863271 257.922217 
L 467.129956 250.015978 
L 467.396641 258.938415 
L 467.663326 286.666087 
L 468.196695 270.719604 
L 468.46338 270.719604 
L 468.730065 242.991933 
L 468.99675 248.765274 
L 469.263435 230.350884 
L 469.53012 237.955614 
L 469.796805 228.765169 
L 470.06349 251.914369 
L 470.330174 251.914369 
L 470.596859 234.114164 
L 470.863544 243.159438 
L 471.396914 289.033492 
L 471.663599 297.274741 
L 472.196969 343.863483 
L 472.463653 343.662477 
L 472.730338 327.827665 
L 472.997023 355.555336 
L 473.530393 339.407848 
L 473.797078 341.027064 
L 474.063763 339.407848 
L 474.597132 324.444062 
L 474.863817 326.063278 
L 475.130502 301.071522 
L 475.397187 323.863378 
L 475.663872 325.370924 
L 475.930557 323.863378 
L 476.197242 342.757949 
L 476.463927 317.699192 
L 476.730611 333.534004 
L 476.997296 314.639432 
L 477.263981 322.880682 
L 477.797351 307.068204 
L 478.064036 316.113477 
L 478.330721 307.079371 
L 478.86409 323.829877 
L 479.130775 348.888635 
L 479.39746 340.14487 
L 479.664145 340.345876 
L 479.93083 322.70201 
L 480.197515 321.082794 
L 480.730885 363.841254 
L 480.997569 356.77254 
L 481.264254 365.516304 
L 481.530939 268.140026 
L 481.797624 266.520811 
L 482.064309 275.566084 
L 482.330994 294.460656 
L 482.597679 302.701905 
L 482.864363 277.643147 
L 483.131048 269.937914 
L 483.397733 278.860351 
L 483.664418 304.488626 
L 484.464473 252.595556 
L 484.731158 243.56145 
L 484.997842 271.289122 
L 485.264527 263.137208 
L 485.531212 263.237711 
L 485.797897 290.965383 
L 486.064582 298.223936 
L 486.331267 321.015792 
L 486.597952 311.747178 
L 486.864637 307.001202 
L 487.131321 307.202208 
L 487.398006 307.001202 
L 487.664691 328.977866 
L 487.931376 336.04658 
L 488.198061 354.941151 
L 488.464746 355.142157 
L 488.998116 379.039547 
L 489.2648 370.11711 
L 489.531485 395.108866 
L 489.79817 378.403027 
L 490.064855 404.031302 
L 490.33154 381.239446 
L 490.598225 372.395179 
L 490.86491 381.440452 
L 491.131595 365.60564 
L 491.398279 388.397496 
L 491.664964 360.669824 
L 492.465019 336.113582 
L 492.731704 345.304026 
L 492.998389 336.113582 
L 493.265074 338.681993 
L 493.531758 358.168415 
L 493.798443 336.191751 
L 494.331813 353.176764 
L 494.598498 331.579778 
L 494.865183 340.424045 
L 495.131868 321.529474 
L 495.398553 313.288225 
L 495.665237 322.333498 
L 495.931922 303.919108 
L 496.198607 303.818605 
L 496.465292 313.00905 
L 496.731977 287.380775 
L 496.998662 278.112161 
L 497.265347 297.006733 
L 497.798716 243.505615 
L 498.065401 265.102601 
L 498.332086 244.287305 
L 498.598771 250.060646 
L 499.398826 250.161149 
L 499.665511 277.051296 
L 500.19888 235.543541 
L 500.465565 242.612254 
L 500.73225 267.671012 
L 500.998935 260.579964 
L 501.26562 281.395261 
L 501.532305 264.689422 
L 501.79899 272.595661 
L 502.065674 245.705515 
L 502.332359 252.472719 
L 502.865729 291.590736 
L 503.132414 297.364077 
L 503.399099 294.315485 
L 503.665784 227.391628 
L 503.932469 244.968492 
L 504.199153 225.850581 
L 504.465838 225.850581 
L 504.732523 301.272528 
L 504.999208 310.541142 
L 505.265893 326.375954 
L 505.532578 326.57696 
L 505.799263 348.553625 
L 506.065947 353.299601 
L 506.332632 351.792056 
L 506.599317 335.086217 
L 506.866002 336.593763 
L 507.132687 308.866091 
L 507.399372 325.57193 
L 507.932742 307.336212 
L 508.199426 302.590235 
L 508.466111 293.321621 
L 508.732796 293.422124 
L 509.266166 317.029171 
L 509.532851 315.409956 
L 509.799536 315.409956 
L 510.066221 325.23692 
L 510.332905 312.383698 
L 510.59959 286.755423 
L 510.866275 303.003414 
L 511.13296 282.690633 
L 511.399645 274.9854 
L 511.66633 283.226649 
L 511.933015 274.192543 
L 512.1997 253.377247 
L 512.466384 247.603905 
L 512.733069 247.402899 
L 512.999754 230.697061 
L 513.266439 230.697061 
L 513.533124 221.428447 
L 513.799809 230.172212 
L 514.066494 248.586602 
L 514.333179 239.664165 
L 514.599863 259.976946 
L 515.133233 274.940732 
L 515.399918 266.096465 
L 515.666603 275.286909 
L 515.933288 252.495053 
L 516.466658 252.495053 
L 516.733342 261.339321 
L 517.000027 261.540327 
L 517.266712 236.548571 
L 517.533397 245.471008 
L 517.800082 223.494343 
L 518.066767 216.23579 
L 518.333452 223.304504 
L 518.600137 223.304504 
L 519.133506 240.256017 
L 519.400191 231.210743 
L 519.666876 254.002599 
L 520.200246 234.605512 
L 520.466931 207.715366 
L 520.733616 213.488707 
L 521.0003 241.216379 
L 521.266985 223.572512 
L 521.53367 232.606619 
L 521.800355 232.506116 
L 522.06704 225.716577 
L 522.333725 234.985191 
L 522.60041 240.24485 
L 522.867095 256.950688 
L 523.400464 215.186092 
L 523.667149 215.286595 
L 523.933834 240.345353 
L 524.467204 270.261757 
L 524.733889 263.193043 
L 525.000574 285.169708 
L 525.267258 275.979263 
L 525.533943 293.62313 
L 525.800628 293.62313 
L 526.067313 320.513277 
L 526.333998 312.808044 
L 526.600683 317.554021 
L 526.867368 326.744465 
L 527.400737 312.22736 
L 527.667422 312.22736 
L 527.934107 333.824346 
L 528.200792 324.555732 
L 528.467477 326.063278 
L 528.734162 310.228466 
L 529.000847 283.338319 
L 529.267531 283.338319 
L 529.534216 261.741333 
L 529.800901 267.514674 
L 530.067586 292.50643 
L 530.334271 285.739225 
L 530.600956 258.011553 
L 530.867641 253.265577 
L 531.134326 280.993248 
L 531.40101 259.016584 
L 531.667695 314.058748 
L 531.93438 301.306029 
L 532.201065 327.805331 
L 532.46775 328.006337 
L 533.534489 267.849684 
L 533.801174 267.849684 
L 534.067859 269.4689 
L 534.334544 260.311956 
L 534.601229 269.346063 
L 535.134599 253.008736 
L 535.401284 274.605722 
L 535.934653 291.702406 
L 536.201338 316.694161 
L 536.468023 291.702406 
L 536.734708 314.494261 
L 537.001393 323.762875 
L 537.268078 315.019111 
L 537.534763 296.60472 
L 537.801447 322.232995 
L 538.068132 322.333498 
L 538.334817 331.177766 
L 538.601502 322.333498 
L 538.868187 237.106921 
L 539.668242 283.070311 
L 539.934926 281.294758 
L 540.201611 296.26971 
L 540.468296 296.370213 
L 540.734981 305.560658 
L 541.001666 296.638221 
L 541.268351 268.307531 
L 541.535036 276.548781 
L 541.801721 267.503507 
L 542.068405 292.562265 
L 542.33509 283.639828 
L 542.601775 292.685102 
L 542.86846 283.650995 
L 543.135145 308.642751 
L 543.40183 289.312667 
L 543.9352 272.416989 
L 544.468569 315.789634 
L 544.735254 306.52102 
L 545.001939 306.722026 
L 545.268624 289.07816 
L 545.535309 311.870015 
L 546.068679 264.019402 
L 546.335363 264.019402 
L 546.602048 243.204106 
L 546.868733 252.39455 
L 547.135418 252.39455 
L 547.402103 243.204106 
L 547.668788 265.995962 
L 547.935473 251.233182 
L 548.202158 256.492841 
L 548.468842 256.693847 
L 548.735527 256.492841 
L 549.002212 263.561555 
L 549.268897 263.561555 
L 549.535582 285.538219 
L 549.802267 226.219092 
L 550.068952 242.053904 
L 550.335637 250.797669 
L 550.602321 241.752395 
L 551.135691 197.229549 
L 551.402376 197.229549 
L 551.669061 232.014767 
L 551.935746 223.1705 
L 552.469115 272.059645 
L 552.7358 263.025538 
L 553.002485 263.025538 
L 553.26917 271.266788 
L 553.535855 249.290123 
L 553.80254 265.124935 
L 554.33591 221.08227 
L 554.602594 228.150984 
L 554.869279 210.507117 
L 555.135964 212.126333 
L 555.402649 210.507117 
L 555.936019 223.047663 
L 556.469389 208.351885 
L 556.736073 208.351885 
L 557.002758 226.766275 
L 557.536128 244.722818 
L 557.802813 236.481569 
L 558.069498 238.100785 
L 558.602868 222.064966 
L 558.869552 249.792638 
L 559.136237 258.033887 
L 559.402922 230.306216 
L 559.669607 222.064966 
L 559.936292 237.564769 
L 560.202977 243.33811 
L 560.469662 268.396867 
L 560.736347 268.396867 
L 561.003031 289.212164 
L 561.269716 268.396867 
L 561.536401 259.362761 
L 561.803086 234.371005 
L 562.069771 242.612254 
L 562.336456 236.838913 
L 562.603141 318.134705 
L 562.869826 310.429472 
L 563.13651 324.901909 
L 563.403195 349.960667 
L 563.936565 302.255225 
L 564.20325 298.156934 
L 564.469935 305.225648 
L 564.73662 279.597373 
L 565.269989 263.20421 
L 565.536674 238.212455 
L 565.803359 254.918293 
L 566.070044 256.046161 
L 566.336729 279.910049 
L 566.603414 280.111055 
L 566.870099 288.352304 
L 567.403468 273.678861 
L 567.670153 273.678861 
L 567.936838 272.171315 
L 568.203523 250.19465 
L 568.470208 250.19465 
L 568.736893 268.609041 
L 569.270263 268.609041 
L 569.536947 260.367791 
L 569.803632 267.134996 
L 570.070317 258.391232 
L 570.337002 267.313668 
L 570.603687 248.899278 
L 570.870372 239.865171 
L 571.137057 275.711255 
L 571.403742 267.927853 
L 571.670426 286.398078 
L 571.937111 279.776045 
L 572.203796 304.834803 
L 572.470481 235.95672 
L 572.737166 243.025434 
L 573.003851 268.017189 
L 573.53722 251.568192 
L 573.803905 251.568192 
L 574.07059 257.341533 
L 574.337275 274.9854 
L 575.13733 216.760639 
L 575.404015 215.141424 
L 575.670699 215.141424 
L 575.937384 205.917478 
L 576.470754 205.917478 
L 576.737439 224.331868 
L 577.004124 224.532874 
L 577.270809 224.331868 
L 577.537494 206.688002 
L 577.804178 206.688002 
L 578.070863 224.331868 
L 578.337548 224.331868 
L 578.604233 215.297762 
L 578.870918 224.343035 
L 579.137603 216.436796 
L 579.404288 216.436796 
L 579.670973 207.246352 
L 579.937657 189.602485 
L 580.204342 198.792929 
L 581.004397 198.792929 
L 581.271082 200.412145 
L 581.537767 200.412145 
L 581.804452 225.403901 
L 582.071136 234.147665 
L 582.604506 188.686791 
L 582.871191 214.315065 
L 583.137876 214.315065 
L 583.404561 223.349172 
L 583.937931 205.236291 
L 584.204615 205.236291 
L 584.4713 214.426736 
L 584.737985 214.426736 
L 585.00467 212.80752 
L 585.271355 212.80752 
L 585.53804 187.815764 
L 586.338094 162.544833 
L 586.604779 162.544833 
L 586.871464 164.164049 
L 587.404834 202.466874 
L 587.671519 193.276429 
L 587.938204 201.182668 
L 588.204889 186.207716 
L 588.471573 186.207716 
L 588.738258 164.610729 
L 589.004943 157.542015 
L 589.271628 166.386283 
L 589.804998 166.486786 
L 590.338368 166.486786 
L 590.605052 157.452679 
L 590.871737 166.486786 
L 591.671792 166.486786 
L 591.938477 187.302082 
L 592.471847 187.302082 
L 592.738531 202.277035 
L 593.005216 202.277035 
L 593.271901 185.571196 
L 593.538586 177.329947 
L 594.338641 177.229444 
L 594.605326 186.498058 
L 594.87201 186.699064 
L 595.138695 202.947055 
L 595.40538 201.327839 
L 597.005489 201.327839 
L 597.272174 223.304504 
L 598.072229 223.204001 
L 598.338914 226.297261 
L 598.605599 226.297261 
L 598.872283 217.028648 
L 599.138968 225.772412 
L 599.405653 200.780656 
L 599.672338 219.463054 
L 599.939023 198.647758 
L 600.205708 198.647758 
L 600.472393 193.499769 
L 600.739078 193.499769 
L 601.005762 212.394341 
L 601.272447 204.689108 
L 601.539132 212.394341 
L 601.805817 231.512252 
L 602.072502 231.512252 
L 602.339187 222.667985 
L 602.872557 222.667985 
L 603.139241 230.99857 
L 603.405926 230.99857 
L 603.672611 223.293337 
L 604.472666 223.192834 
L 604.739351 212.963858 
L 605.006036 194.270293 
L 605.27272 196.034679 
L 605.80609 210.708123 
L 606.072775 209.088907 
L 606.33946 229.904204 
L 606.606145 262.735196 
L 606.87283 262.735196 
L 607.139515 264.041736 
L 607.939569 292.807939 
L 608.206254 292.807939 
L 608.472939 283.963672 
L 608.739624 282.154617 
L 609.006309 263.740227 
L 609.272994 254.549782 
L 609.539678 260.323123 
L 609.806363 260.323123 
L 610.073048 254.48278 
L 610.339733 256.101996 
L 610.606418 248.195757 
L 611.406473 248.195757 
L 611.939842 204.622106 
L 613.273267 204.622106 
L 613.539952 177.731959 
L 614.606691 177.731959 
L 614.873376 177.162442 
L 616.2068 177.162442 
L 616.473485 175.543226 
L 617.27354 175.543226 
L 617.540225 193.857114 
L 618.073594 193.857114 
L 618.340279 184.633168 
L 618.606964 184.633168 
L 618.873649 184.14182 
L 619.140334 175.107713 
L 619.407019 175.107713 
L 619.673704 175.308719 
L 619.940388 166.263446 
L 620.740443 166.263446 
L 621.007128 174.169685 
L 621.540498 174.169685 
L 621.807183 151.478332 
L 622.873922 151.478332 
L 623.140607 145.704991 
L 623.407292 147.324206 
L 624.474031 147.324206 
L 624.740716 147.793221 
L 625.274086 147.692718 
L 625.540771 146.073502 
L 626.60751 146.073502 
L 626.874195 147.692718 
L 628.20762 147.692718 
L 628.474304 156.536985 
L 629.274359 156.536985 
L 629.541044 131.478227 
L 629.807729 131.478227 
L 630.074414 124.409514 
L 630.874468 124.409514 
L 631.141153 122.790298 
L 635.674796 122.890801 
L 635.941481 113.700356 
L 636.208166 113.700356 
L 636.474851 113.398847 
L 638.07496 113.398847 
L 638.341645 119.172188 
L 638.60833 119.172188 
L 638.875015 120.791404 
L 641.008493 120.791404 
L 641.541863 136.894224 
L 641.808548 136.894224 
L 642.075233 129.635672 
L 643.942027 129.535169 
L 644.208712 122.466455 
L 645.808821 122.466455 
L 646.075506 126.765751 
L 647.142246 126.765751 
L 647.40893 133.834465 
L 647.675615 133.934968 
L 647.9423 126.028729 
L 648.742355 126.028729 
L 649.00904 118.960015 
L 653.542683 118.960015 
L 653.809367 113.186674 
L 654.076052 113.186674 
L 654.342737 108.898545 
L 654.609422 108.898545 
L 654.876107 107.279329 
L 655.142792 107.279329 
L 655.409477 108.898545 
L 656.209531 108.898545 
L 656.476216 111.165446 
L 664.210077 111.165446 
L 664.476762 120.355891 
L 664.743447 118.736675 
L 670.877199 118.736675 
L 671.143884 120.355891 
L 673.010678 120.355891 
L 673.277363 111.165446 
L 706.612972 111.165446 
L 706.879657 102.957698 
L 825.287741 102.957698 
L 825.554426 101.371984 
L 829.554699 101.371984 
L 829.821384 99.641098 
L 830.088069 99.641098 
L 830.354754 90.606991 
L 834.888397 90.606991 
L 835.155081 88.987776 
L 871.690909 88.887273 
L 871.690909 88.887273 
" style="fill:none;stroke:#8dd3c7;stroke-linecap:square;stroke-width:1.5;"/>
   </g>
   <g id="line2d_16">
    <path clip-path="url(#pa7f6af914d)" d="M 161.509091 180.356205 
L 585.53804 180.356205 
L 585.804725 178.971497 
L 586.07141 168.318175 
L 586.338094 162.544833 
L 588.738258 162.544833 
L 589.004943 157.542015 
L 621.540498 157.452679 
L 621.807183 151.478332 
L 622.873922 151.478332 
L 623.140607 145.704991 
L 629.274359 145.704991 
L 629.541044 131.478227 
L 629.807729 131.478227 
L 630.074414 124.409514 
L 630.874468 124.409514 
L 631.141153 122.790298 
L 635.674796 122.790298 
L 635.941481 113.700356 
L 636.208166 113.700356 
L 636.474851 113.398847 
L 653.542683 113.398847 
L 653.809367 113.186674 
L 654.076052 113.186674 
L 654.342737 108.898545 
L 654.609422 108.898545 
L 654.876107 107.279329 
L 706.612972 107.279329 
L 706.879657 102.957698 
L 825.287741 102.957698 
L 825.554426 101.371984 
L 829.554699 101.371984 
L 829.821384 99.641098 
L 830.088069 99.641098 
L 830.354754 90.606991 
L 834.888397 90.606991 
L 835.155081 88.987776 
L 871.690909 88.887273 
L 871.690909 88.887273 
" style="fill:none;stroke:#feffb3;stroke-linecap:square;stroke-width:1.5;"/>
   </g>
   <g id="line2d_17">
    <path clip-path="url(#pa7f6af914d)" d="M 161.509091 271.519162 
L 163.375885 271.519162 
L 163.64257 284.757686 
L 165.509364 284.757686 
L 165.776049 297.172292 
L 167.642843 297.172292 
L 167.909528 308.814257 
L 169.776322 308.814257 
L 170.043007 319.731669 
L 171.909801 319.731669 
L 172.176486 329.969621 
L 174.04328 329.969621 
L 174.309965 339.570399 
L 176.176759 339.570399 
L 176.443444 348.57366 
L 178.310238 348.57366 
L 178.576923 357.01659 
L 180.443717 357.01659 
L 180.710402 364.934063 
L 182.577196 364.934063 
L 182.843881 372.358781 
L 184.710675 372.358781 
L 184.97736 379.321411 
L 186.844154 379.321411 
L 187.110839 385.850712 
L 188.977633 385.850712 
L 189.244318 391.973653 
L 191.111112 391.973653 
L 191.377797 397.715525 
L 193.244591 397.715525 
L 193.511276 403.100043 
L 195.37807 403.100043 
L 195.644755 408.149448 
L 197.511549 408.149448 
L 197.778234 412.884597 
L 199.645028 412.884597 
L 199.911713 417.325046 
L 201.778507 417.325046 
L 202.045192 421.489139 
L 203.911986 421.489139 
L 204.178671 425.394073 
L 206.045465 425.394073 
L 206.31215 429.055978 
L 208.178944 429.055978 
L 208.445629 432.48998 
L 210.312423 432.48998 
L 210.579108 435.710261 
L 212.445902 435.710261 
L 212.712587 438.730124 
L 214.579381 438.730124 
L 214.846066 441.562042 
L 216.71286 441.562042 
L 216.979545 444.217711 
L 218.846339 444.217711 
L 219.113024 446.708101 
L 220.979818 446.708101 
L 221.246503 449.043499 
L 223.113297 449.043499 
L 223.379982 451.233549 
L 225.246776 451.233549 
L 225.513461 453.287299 
L 227.380255 453.287299 
L 227.64694 455.21323 
L 229.513734 455.21323 
L 229.780419 457.019299 
L 231.647213 457.019299 
L 231.913898 458.712964 
L 233.780692 458.712964 
L 234.047377 460.301222 
L 235.914171 460.301222 
L 236.180855 461.790633 
L 238.04765 461.790633 
L 238.314334 463.187348 
L 240.181129 463.187348 
L 240.447813 464.497136 
L 242.314608 464.497136 
L 242.581292 465.725408 
L 244.448087 465.725408 
L 244.714771 466.877237 
L 246.581566 466.877237 
L 246.84825 467.95738 
L 248.715045 467.95738 
L 248.981729 468.970298 
L 250.848524 468.970298 
L 251.115208 469.920177 
L 252.982003 469.920177 
L 253.248687 470.810938 
L 255.115482 470.810938 
L 255.382166 471.646262 
L 257.248961 471.646262 
L 257.515645 472.429598 
L 259.382439 472.429598 
L 259.649124 473.164182 
L 261.515918 473.164182 
L 261.782603 473.853049 
L 263.649397 473.853049 
L 263.916082 474.499042 
L 265.782876 474.499042 
L 266.049561 475.104832 
L 267.916355 475.104832 
L 268.18304 475.672919 
L 270.049834 475.672919 
L 270.316519 476.20565 
L 272.183313 476.20565 
L 272.449998 476.705227 
L 274.316792 476.705227 
L 274.583477 477.173711 
L 276.450271 477.173711 
L 276.716956 477.613039 
L 278.58375 477.613039 
L 278.850435 478.025024 
L 280.717229 478.025024 
L 280.983914 478.411369 
L 282.850708 478.411369 
L 283.117393 478.77367 
L 284.984187 478.77367 
L 285.250872 479.113422 
L 287.117666 479.113422 
L 287.384351 479.432029 
L 289.251145 479.432029 
L 289.51783 479.730807 
L 291.384624 479.730807 
L 291.651309 480.01099 
L 293.518103 480.01099 
L 293.784788 480.273736 
L 295.651582 480.273736 
L 295.918267 480.520129 
L 297.785061 480.520129 
L 298.051746 480.751188 
L 299.91854 480.751188 
L 300.185225 480.967866 
L 302.052019 480.967866 
L 302.318704 481.171059 
L 304.185498 481.171059 
L 304.452183 481.361607 
L 306.318977 481.361607 
L 306.585662 481.540295 
L 308.452456 481.540295 
L 308.719141 481.707862 
L 310.585935 481.707862 
L 310.85262 481.865001 
L 312.719414 481.865001 
L 312.986099 482.012359 
L 314.852893 482.012359 
L 315.119578 482.150547 
L 316.986372 482.150547 
L 317.253057 482.280134 
L 319.119851 482.280134 
L 319.653221 482.401657 
L 321.25333 482.401657 
L 321.7867 482.515616 
L 325.520288 482.622483 
L 326.053658 482.722699 
L 329.787246 482.816677 
L 330.320616 482.904807 
L 334.054204 482.987452 
L 334.587574 483.064954 
L 338.321162 483.137632 
L 338.854532 483.205786 
L 342.58812 483.269699 
L 343.12149 483.329635 
L 348.988557 483.438547 
L 349.788612 483.487974 
L 355.388994 483.577791 
L 356.189049 483.618552 
L 363.92291 483.726235 
L 364.989649 483.757758 
L 374.590305 483.865412 
L 375.923729 483.888272 
L 389.524658 483.99847 
L 391.924822 484.026721 
L 419.393364 484.137448 
L 424.993746 484.154153 
L 871.690909 484.232727 
L 871.690909 484.232727 
" style="fill:none;stroke:#bfbbd9;stroke-linecap:square;stroke-width:1.5;"/>
   </g>
   <g id="patch_3">
    <path d="M 126 504 
L 126 69.12 
" style="fill:none;stroke:#ffffff;stroke-linecap:square;stroke-linejoin:miter;stroke-width:0.8;"/>
   </g>
   <g id="patch_4">
    <path d="M 907.2 504 
L 907.2 69.12 
" style="fill:none;stroke:#ffffff;stroke-linecap:square;stroke-linejoin:miter;stroke-width:0.8;"/>
   </g>
   <g id="patch_5">
    <path d="M 126 504 
L 907.2 504 
" style="fill:none;stroke:#ffffff;stroke-linecap:square;stroke-linejoin:miter;stroke-width:0.8;"/>
   </g>
   <g id="patch_6">
    <path d="M 126 69.12 
L 907.2 69.12 
" style="fill:none;stroke:#ffffff;stroke-linecap:square;stroke-linejoin:miter;stroke-width:0.8;"/>
   </g>
   <g id="text_16">
    <!-- instance 7 with error 0.0008748659479596022 -->
    <g style="fill:#ffffff;" transform="translate(374.229375 63.12)scale(0.12 -0.12)">
     <defs>
      <path d="M 2834 3397 
L 2834 2853 
Q 2591 2978 2328 3040 
Q 2066 3103 1784 3103 
Q 1356 3103 1142 2972 
Q 928 2841 928 2578 
Q 928 2378 1081 2264 
Q 1234 2150 1697 2047 
L 1894 2003 
Q 2506 1872 2764 1633 
Q 3022 1394 3022 966 
Q 3022 478 2636 193 
Q 2250 -91 1575 -91 
Q 1294 -91 989 -36 
Q 684 19 347 128 
L 347 722 
Q 666 556 975 473 
Q 1284 391 1588 391 
Q 1994 391 2212 530 
Q 2431 669 2431 922 
Q 2431 1156 2273 1281 
Q 2116 1406 1581 1522 
L 1381 1569 
Q 847 1681 609 1914 
Q 372 2147 372 2553 
Q 372 3047 722 3315 
Q 1072 3584 1716 3584 
Q 2034 3584 2315 3537 
Q 2597 3491 2834 3397 
z
" id="DejaVuSans-73" transform="scale(0.015625)"/>
      <path d="M 3122 3366 
L 3122 2828 
Q 2878 2963 2633 3030 
Q 2388 3097 2138 3097 
Q 1578 3097 1268 2742 
Q 959 2388 959 1747 
Q 959 1106 1268 751 
Q 1578 397 2138 397 
Q 2388 397 2633 464 
Q 2878 531 3122 666 
L 3122 134 
Q 2881 22 2623 -34 
Q 2366 -91 2075 -91 
Q 1284 -91 818 406 
Q 353 903 353 1747 
Q 353 2603 823 3093 
Q 1294 3584 2113 3584 
Q 2378 3584 2631 3529 
Q 2884 3475 3122 3366 
z
" id="DejaVuSans-63" transform="scale(0.015625)"/>
      <path id="DejaVuSans-20" transform="scale(0.015625)"/>
      <path d="M 525 4666 
L 3525 4666 
L 3525 4397 
L 1831 0 
L 1172 0 
L 2766 4134 
L 525 4134 
L 525 4666 
z
" id="DejaVuSans-37" transform="scale(0.015625)"/>
      <path d="M 269 3500 
L 844 3500 
L 1563 769 
L 2278 3500 
L 2956 3500 
L 3675 769 
L 4391 3500 
L 4966 3500 
L 4050 0 
L 3372 0 
L 2619 2869 
L 1863 0 
L 1184 0 
L 269 3500 
z
" id="DejaVuSans-77" transform="scale(0.015625)"/>
      <path d="M 3513 2113 
L 3513 0 
L 2938 0 
L 2938 2094 
Q 2938 2591 2744 2837 
Q 2550 3084 2163 3084 
Q 1697 3084 1428 2787 
Q 1159 2491 1159 1978 
L 1159 0 
L 581 0 
L 581 4863 
L 1159 4863 
L 1159 2956 
Q 1366 3272 1645 3428 
Q 1925 3584 2291 3584 
Q 2894 3584 3203 3211 
Q 3513 2838 3513 2113 
z
" id="DejaVuSans-68" transform="scale(0.015625)"/>
      <path d="M 684 794 
L 1344 794 
L 1344 0 
L 684 0 
L 684 794 
z
" id="DejaVuSans-2e" transform="scale(0.015625)"/>
      <path d="M 2034 2216 
Q 1584 2216 1326 1975 
Q 1069 1734 1069 1313 
Q 1069 891 1326 650 
Q 1584 409 2034 409 
Q 2484 409 2743 651 
Q 3003 894 3003 1313 
Q 3003 1734 2745 1975 
Q 2488 2216 2034 2216 
z
M 1403 2484 
Q 997 2584 770 2862 
Q 544 3141 544 3541 
Q 544 4100 942 4425 
Q 1341 4750 2034 4750 
Q 2731 4750 3128 4425 
Q 3525 4100 3525 3541 
Q 3525 3141 3298 2862 
Q 3072 2584 2669 2484 
Q 3125 2378 3379 2068 
Q 3634 1759 3634 1313 
Q 3634 634 3220 271 
Q 2806 -91 2034 -91 
Q 1263 -91 848 271 
Q 434 634 434 1313 
Q 434 1759 690 2068 
Q 947 2378 1403 2484 
z
M 1172 3481 
Q 1172 3119 1398 2916 
Q 1625 2713 2034 2713 
Q 2441 2713 2670 2916 
Q 2900 3119 2900 3481 
Q 2900 3844 2670 4047 
Q 2441 4250 2034 4250 
Q 1625 4250 1398 4047 
Q 1172 3844 1172 3481 
z
" id="DejaVuSans-38" transform="scale(0.015625)"/>
      <path d="M 2419 4116 
L 825 1625 
L 2419 1625 
L 2419 4116 
z
M 2253 4666 
L 3047 4666 
L 3047 1625 
L 3713 1625 
L 3713 1100 
L 3047 1100 
L 3047 0 
L 2419 0 
L 2419 1100 
L 313 1100 
L 313 1709 
L 2253 4666 
z
" id="DejaVuSans-34" transform="scale(0.015625)"/>
      <path d="M 2113 2584 
Q 1688 2584 1439 2293 
Q 1191 2003 1191 1497 
Q 1191 994 1439 701 
Q 1688 409 2113 409 
Q 2538 409 2786 701 
Q 3034 994 3034 1497 
Q 3034 2003 2786 2293 
Q 2538 2584 2113 2584 
z
M 3366 4563 
L 3366 3988 
Q 3128 4100 2886 4159 
Q 2644 4219 2406 4219 
Q 1781 4219 1451 3797 
Q 1122 3375 1075 2522 
Q 1259 2794 1537 2939 
Q 1816 3084 2150 3084 
Q 2853 3084 3261 2657 
Q 3669 2231 3669 1497 
Q 3669 778 3244 343 
Q 2819 -91 2113 -91 
Q 1303 -91 875 529 
Q 447 1150 447 2328 
Q 447 3434 972 4092 
Q 1497 4750 2381 4750 
Q 2619 4750 2861 4703 
Q 3103 4656 3366 4563 
z
" id="DejaVuSans-36" transform="scale(0.015625)"/>
      <path d="M 703 97 
L 703 672 
Q 941 559 1184 500 
Q 1428 441 1663 441 
Q 2288 441 2617 861 
Q 2947 1281 2994 2138 
Q 2813 1869 2534 1725 
Q 2256 1581 1919 1581 
Q 1219 1581 811 2004 
Q 403 2428 403 3163 
Q 403 3881 828 4315 
Q 1253 4750 1959 4750 
Q 2769 4750 3195 4129 
Q 3622 3509 3622 2328 
Q 3622 1225 3098 567 
Q 2575 -91 1691 -91 
Q 1453 -91 1209 -44 
Q 966 3 703 97 
z
M 1959 2075 
Q 2384 2075 2632 2365 
Q 2881 2656 2881 3163 
Q 2881 3666 2632 3958 
Q 2384 4250 1959 4250 
Q 1534 4250 1286 3958 
Q 1038 3666 1038 3163 
Q 1038 2656 1286 2365 
Q 1534 2075 1959 2075 
z
" id="DejaVuSans-39" transform="scale(0.015625)"/>
     </defs>
     <use xlink:href="#DejaVuSans-69"/>
     <use x="27.783203" xlink:href="#DejaVuSans-6e"/>
     <use x="91.162109" xlink:href="#DejaVuSans-73"/>
     <use x="143.261719" xlink:href="#DejaVuSans-74"/>
     <use x="182.470703" xlink:href="#DejaVuSans-61"/>
     <use x="243.75" xlink:href="#DejaVuSans-6e"/>
     <use x="307.128906" xlink:href="#DejaVuSans-63"/>
     <use x="362.109375" xlink:href="#DejaVuSans-65"/>
     <use x="423.632812" xlink:href="#DejaVuSans-20"/>
     <use x="455.419922" xlink:href="#DejaVuSans-37"/>
     <use x="519.042969" xlink:href="#DejaVuSans-20"/>
     <use x="550.830078" xlink:href="#DejaVuSans-77"/>
     <use x="632.617188" xlink:href="#DejaVuSans-69"/>
     <use x="660.400391" xlink:href="#DejaVuSans-74"/>
     <use x="699.609375" xlink:href="#DejaVuSans-68"/>
     <use x="762.988281" xlink:href="#DejaVuSans-20"/>
     <use x="794.775391" xlink:href="#DejaVuSans-65"/>
     <use x="856.298828" xlink:href="#DejaVuSans-72"/>
     <use x="895.662109" xlink:href="#DejaVuSans-72"/>
     <use x="934.525391" xlink:href="#DejaVuSans-6f"/>
     <use x="995.707031" xlink:href="#DejaVuSans-72"/>
     <use x="1036.820312" xlink:href="#DejaVuSans-20"/>
     <use x="1068.607422" xlink:href="#DejaVuSans-30"/>
     <use x="1132.230469" xlink:href="#DejaVuSans-2e"/>
     <use x="1164.017578" xlink:href="#DejaVuSans-30"/>
     <use x="1227.640625" xlink:href="#DejaVuSans-30"/>
     <use x="1291.263672" xlink:href="#DejaVuSans-30"/>
     <use x="1354.886719" xlink:href="#DejaVuSans-38"/>
     <use x="1418.509766" xlink:href="#DejaVuSans-37"/>
     <use x="1482.132812" xlink:href="#DejaVuSans-34"/>
     <use x="1545.755859" xlink:href="#DejaVuSans-38"/>
     <use x="1609.378906" xlink:href="#DejaVuSans-36"/>
     <use x="1673.001953" xlink:href="#DejaVuSans-35"/>
     <use x="1736.625" xlink:href="#DejaVuSans-39"/>
     <use x="1800.248047" xlink:href="#DejaVuSans-34"/>
     <use x="1863.871094" xlink:href="#DejaVuSans-37"/>
     <use x="1927.494141" xlink:href="#DejaVuSans-39"/>
     <use x="1991.117188" xlink:href="#DejaVuSans-35"/>
     <use x="2054.740234" xlink:href="#DejaVuSans-39"/>
     <use x="2118.363281" xlink:href="#DejaVuSans-36"/>
     <use x="2181.986328" xlink:href="#DejaVuSans-30"/>
     <use x="2245.609375" xlink:href="#DejaVuSans-32"/>
     <use x="2309.232422" xlink:href="#DejaVuSans-32"/>
    </g>
   </g>
   <g id="legend_1">
    <g id="patch_7">
     <path d="M 805.348438 499 
L 900.2 499 
Q 902.2 499 902.2 497 
L 902.2 453.965625 
Q 902.2 451.965625 900.2 451.965625 
L 805.348438 451.965625 
Q 803.348438 451.965625 803.348438 453.965625 
L 803.348438 497 
Q 803.348438 499 805.348438 499 
z
" style="opacity:0.8;stroke:#cccccc;stroke-linejoin:miter;"/>
    </g>
    <g id="line2d_18">
     <path d="M 807.348438 460.064062 
L 827.348438 460.064062 
" style="fill:none;stroke:#8dd3c7;stroke-linecap:square;stroke-width:1.5;"/>
    </g>
    <g id="line2d_19"/>
    <g id="text_17">
     <!-- cost -->
     <g style="fill:#ffffff;" transform="translate(835.348438 463.564062)scale(0.1 -0.1)">
      <use xlink:href="#DejaVuSans-63"/>
      <use x="54.980469" xlink:href="#DejaVuSans-6f"/>
      <use x="116.162109" xlink:href="#DejaVuSans-73"/>
      <use x="168.261719" xlink:href="#DejaVuSans-74"/>
     </g>
    </g>
    <g id="line2d_20">
     <path d="M 807.348438 474.742188 
L 827.348438 474.742188 
" style="fill:none;stroke:#feffb3;stroke-linecap:square;stroke-width:1.5;"/>
    </g>
    <g id="line2d_21"/>
    <g id="text_18">
     <!-- best cost -->
     <g style="fill:#ffffff;" transform="translate(835.348438 478.242188)scale(0.1 -0.1)">
      <defs>
       <path d="M 3116 1747 
Q 3116 2381 2855 2742 
Q 2594 3103 2138 3103 
Q 1681 3103 1420 2742 
Q 1159 2381 1159 1747 
Q 1159 1113 1420 752 
Q 1681 391 2138 391 
Q 2594 391 2855 752 
Q 3116 1113 3116 1747 
z
M 1159 2969 
Q 1341 3281 1617 3432 
Q 1894 3584 2278 3584 
Q 2916 3584 3314 3078 
Q 3713 2572 3713 1747 
Q 3713 922 3314 415 
Q 2916 -91 2278 -91 
Q 1894 -91 1617 61 
Q 1341 213 1159 525 
L 1159 0 
L 581 0 
L 581 4863 
L 1159 4863 
L 1159 2969 
z
" id="DejaVuSans-62" transform="scale(0.015625)"/>
      </defs>
      <use xlink:href="#DejaVuSans-62"/>
      <use x="63.476562" xlink:href="#DejaVuSans-65"/>
      <use x="125" xlink:href="#DejaVuSans-73"/>
      <use x="177.099609" xlink:href="#DejaVuSans-74"/>
      <use x="216.308594" xlink:href="#DejaVuSans-20"/>
      <use x="248.095703" xlink:href="#DejaVuSans-63"/>
      <use x="303.076172" xlink:href="#DejaVuSans-6f"/>
      <use x="364.257812" xlink:href="#DejaVuSans-73"/>
      <use x="416.357422" xlink:href="#DejaVuSans-74"/>
     </g>
    </g>
    <g id="line2d_22">
     <path d="M 807.348438 489.420313 
L 827.348438 489.420313 
" style="fill:none;stroke:#bfbbd9;stroke-linecap:square;stroke-width:1.5;"/>
    </g>
    <g id="line2d_23"/>
    <g id="text_19">
     <!-- temperature -->
     <g style="fill:#ffffff;" transform="translate(835.348438 492.920313)scale(0.1 -0.1)">
      <defs>
       <path d="M 3328 2828 
Q 3544 3216 3844 3400 
Q 4144 3584 4550 3584 
Q 5097 3584 5394 3201 
Q 5691 2819 5691 2113 
L 5691 0 
L 5113 0 
L 5113 2094 
Q 5113 2597 4934 2840 
Q 4756 3084 4391 3084 
Q 3944 3084 3684 2787 
Q 3425 2491 3425 1978 
L 3425 0 
L 2847 0 
L 2847 2094 
Q 2847 2600 2669 2842 
Q 2491 3084 2119 3084 
Q 1678 3084 1418 2786 
Q 1159 2488 1159 1978 
L 1159 0 
L 581 0 
L 581 3500 
L 1159 3500 
L 1159 2956 
Q 1356 3278 1631 3431 
Q 1906 3584 2284 3584 
Q 2666 3584 2933 3390 
Q 3200 3197 3328 2828 
z
" id="DejaVuSans-6d" transform="scale(0.015625)"/>
       <path d="M 1159 525 
L 1159 -1331 
L 581 -1331 
L 581 3500 
L 1159 3500 
L 1159 2969 
Q 1341 3281 1617 3432 
Q 1894 3584 2278 3584 
Q 2916 3584 3314 3078 
Q 3713 2572 3713 1747 
Q 3713 922 3314 415 
Q 2916 -91 2278 -91 
Q 1894 -91 1617 61 
Q 1341 213 1159 525 
z
M 3116 1747 
Q 3116 2381 2855 2742 
Q 2594 3103 2138 3103 
Q 1681 3103 1420 2742 
Q 1159 2381 1159 1747 
Q 1159 1113 1420 752 
Q 1681 391 2138 391 
Q 2594 391 2855 752 
Q 3116 1113 3116 1747 
z
" id="DejaVuSans-70" transform="scale(0.015625)"/>
       <path d="M 544 1381 
L 544 3500 
L 1119 3500 
L 1119 1403 
Q 1119 906 1312 657 
Q 1506 409 1894 409 
Q 2359 409 2629 706 
Q 2900 1003 2900 1516 
L 2900 3500 
L 3475 3500 
L 3475 0 
L 2900 0 
L 2900 538 
Q 2691 219 2414 64 
Q 2138 -91 1772 -91 
Q 1169 -91 856 284 
Q 544 659 544 1381 
z
M 1991 3584 
L 1991 3584 
z
" id="DejaVuSans-75" transform="scale(0.015625)"/>
      </defs>
      <use xlink:href="#DejaVuSans-74"/>
      <use x="39.208984" xlink:href="#DejaVuSans-65"/>
      <use x="100.732422" xlink:href="#DejaVuSans-6d"/>
      <use x="198.144531" xlink:href="#DejaVuSans-70"/>
      <use x="261.621094" xlink:href="#DejaVuSans-65"/>
      <use x="323.144531" xlink:href="#DejaVuSans-72"/>
      <use x="364.257812" xlink:href="#DejaVuSans-61"/>
      <use x="425.537109" xlink:href="#DejaVuSans-74"/>
      <use x="464.746094" xlink:href="#DejaVuSans-75"/>
      <use x="528.125" xlink:href="#DejaVuSans-72"/>
      <use x="566.988281" xlink:href="#DejaVuSans-65"/>
     </g>
    </g>
   </g>
  </g>
 </g>
 <defs>
  <clipPath id="pa7f6af914d">
   <rect height="434.88" width="781.2" x="126" y="69.12"/>
  </clipPath>
 </defs>
</svg>
