<?xml version="1.0" encoding="utf-8" standalone="no"?>
<!DOCTYPE svg PUBLIC "-//W3C//DTD SVG 1.1//EN"
  "http://www.w3.org/Graphics/SVG/1.1/DTD/svg11.dtd">
<svg height="576pt" version="1.1" viewBox="0 0 1008 576" width="1008pt" xmlns="http://www.w3.org/2000/svg" xmlns:xlink="http://www.w3.org/1999/xlink">
 <metadata>
  <rdf:RDF xmlns:cc="http://creativecommons.org/ns#" xmlns:dc="http://purl.org/dc/elements/1.1/" xmlns:rdf="http://www.w3.org/1999/02/22-rdf-syntax-ns#">
   <cc:Work>
    <dc:type rdf:resource="http://purl.org/dc/dcmitype/StillImage"/>
    <dc:date>2022-01-08T01:27:53.357339</dc:date>
    <dc:format>image/svg+xml</dc:format>
    <dc:creator>
     <cc:Agent>
      <dc:title>Matplotlib v3.4.3, https://matplotlib.org/</dc:title>
     </cc:Agent>
    </dc:creator>
   </cc:Work>
  </rdf:RDF>
 </metadata>
 <defs>
  <style type="text/css">*{stroke-linecap:butt;stroke-linejoin:round;}</style>
 </defs>
 <g id="figure_1">
  <g id="patch_1">
   <path d="M 0 576 
L 1008 576 
L 1008 0 
L 0 0 
z
"/>
  </g>
  <g id="axes_1">
   <g id="patch_2">
    <path d="M 126 504 
L 907.2 504 
L 907.2 69.12 
L 126 69.12 
z
"/>
   </g>
   <g id="matplotlib.axis_1">
    <g id="xtick_1">
     <g id="line2d_1">
      <defs>
       <path d="M 0 0 
L 0 3.5 
" id="mb0e9ee5eac" style="stroke:#ffffff;stroke-width:0.8;"/>
      </defs>
      <g>
       <use style="fill:#ffffff;stroke:#ffffff;stroke-width:0.8;" x="161.509091" xlink:href="#mb0e9ee5eac" y="504"/>
      </g>
     </g>
     <g id="text_1">
      <!-- 0 -->
      <g style="fill:#ffffff;" transform="translate(158.327841 518.598438)scale(0.1 -0.1)">
       <defs>
        <path d="M 2034 4250 
Q 1547 4250 1301 3770 
Q 1056 3291 1056 2328 
Q 1056 1369 1301 889 
Q 1547 409 2034 409 
Q 2525 409 2770 889 
Q 3016 1369 3016 2328 
Q 3016 3291 2770 3770 
Q 2525 4250 2034 4250 
z
M 2034 4750 
Q 2819 4750 3233 4129 
Q 3647 3509 3647 2328 
Q 3647 1150 3233 529 
Q 2819 -91 2034 -91 
Q 1250 -91 836 529 
Q 422 1150 422 2328 
Q 422 3509 836 4129 
Q 1250 4750 2034 4750 
z
" id="DejaVuSans-30" transform="scale(0.015625)"/>
       </defs>
       <use xlink:href="#DejaVuSans-30"/>
      </g>
     </g>
    </g>
    <g id="xtick_2">
     <g id="line2d_2">
      <g>
       <use style="fill:#ffffff;stroke:#ffffff;stroke-width:0.8;" x="297.065842" xlink:href="#mb0e9ee5eac" y="504"/>
      </g>
     </g>
     <g id="text_2">
      <!-- 1000 -->
      <g style="fill:#ffffff;" transform="translate(284.340842 518.598438)scale(0.1 -0.1)">
       <defs>
        <path d="M 794 531 
L 1825 531 
L 1825 4091 
L 703 3866 
L 703 4441 
L 1819 4666 
L 2450 4666 
L 2450 531 
L 3481 531 
L 3481 0 
L 794 0 
L 794 531 
z
" id="DejaVuSans-31" transform="scale(0.015625)"/>
       </defs>
       <use xlink:href="#DejaVuSans-31"/>
       <use x="63.623047" xlink:href="#DejaVuSans-30"/>
       <use x="127.246094" xlink:href="#DejaVuSans-30"/>
       <use x="190.869141" xlink:href="#DejaVuSans-30"/>
      </g>
     </g>
    </g>
    <g id="xtick_3">
     <g id="line2d_3">
      <g>
       <use style="fill:#ffffff;stroke:#ffffff;stroke-width:0.8;" x="432.622593" xlink:href="#mb0e9ee5eac" y="504"/>
      </g>
     </g>
     <g id="text_3">
      <!-- 2000 -->
      <g style="fill:#ffffff;" transform="translate(419.897593 518.598438)scale(0.1 -0.1)">
       <defs>
        <path d="M 1228 531 
L 3431 531 
L 3431 0 
L 469 0 
L 469 531 
Q 828 903 1448 1529 
Q 2069 2156 2228 2338 
Q 2531 2678 2651 2914 
Q 2772 3150 2772 3378 
Q 2772 3750 2511 3984 
Q 2250 4219 1831 4219 
Q 1534 4219 1204 4116 
Q 875 4013 500 3803 
L 500 4441 
Q 881 4594 1212 4672 
Q 1544 4750 1819 4750 
Q 2544 4750 2975 4387 
Q 3406 4025 3406 3419 
Q 3406 3131 3298 2873 
Q 3191 2616 2906 2266 
Q 2828 2175 2409 1742 
Q 1991 1309 1228 531 
z
" id="DejaVuSans-32" transform="scale(0.015625)"/>
       </defs>
       <use xlink:href="#DejaVuSans-32"/>
       <use x="63.623047" xlink:href="#DejaVuSans-30"/>
       <use x="127.246094" xlink:href="#DejaVuSans-30"/>
       <use x="190.869141" xlink:href="#DejaVuSans-30"/>
      </g>
     </g>
    </g>
    <g id="xtick_4">
     <g id="line2d_4">
      <g>
       <use style="fill:#ffffff;stroke:#ffffff;stroke-width:0.8;" x="568.179344" xlink:href="#mb0e9ee5eac" y="504"/>
      </g>
     </g>
     <g id="text_4">
      <!-- 3000 -->
      <g style="fill:#ffffff;" transform="translate(555.454344 518.598438)scale(0.1 -0.1)">
       <defs>
        <path d="M 2597 2516 
Q 3050 2419 3304 2112 
Q 3559 1806 3559 1356 
Q 3559 666 3084 287 
Q 2609 -91 1734 -91 
Q 1441 -91 1130 -33 
Q 819 25 488 141 
L 488 750 
Q 750 597 1062 519 
Q 1375 441 1716 441 
Q 2309 441 2620 675 
Q 2931 909 2931 1356 
Q 2931 1769 2642 2001 
Q 2353 2234 1838 2234 
L 1294 2234 
L 1294 2753 
L 1863 2753 
Q 2328 2753 2575 2939 
Q 2822 3125 2822 3475 
Q 2822 3834 2567 4026 
Q 2313 4219 1838 4219 
Q 1578 4219 1281 4162 
Q 984 4106 628 3988 
L 628 4550 
Q 988 4650 1302 4700 
Q 1616 4750 1894 4750 
Q 2613 4750 3031 4423 
Q 3450 4097 3450 3541 
Q 3450 3153 3228 2886 
Q 3006 2619 2597 2516 
z
" id="DejaVuSans-33" transform="scale(0.015625)"/>
       </defs>
       <use xlink:href="#DejaVuSans-33"/>
       <use x="63.623047" xlink:href="#DejaVuSans-30"/>
       <use x="127.246094" xlink:href="#DejaVuSans-30"/>
       <use x="190.869141" xlink:href="#DejaVuSans-30"/>
      </g>
     </g>
    </g>
    <g id="xtick_5">
     <g id="line2d_5">
      <g>
       <use style="fill:#ffffff;stroke:#ffffff;stroke-width:0.8;" x="703.736095" xlink:href="#mb0e9ee5eac" y="504"/>
      </g>
     </g>
     <g id="text_5">
      <!-- 4000 -->
      <g style="fill:#ffffff;" transform="translate(691.011095 518.598438)scale(0.1 -0.1)">
       <defs>
        <path d="M 2419 4116 
L 825 1625 
L 2419 1625 
L 2419 4116 
z
M 2253 4666 
L 3047 4666 
L 3047 1625 
L 3713 1625 
L 3713 1100 
L 3047 1100 
L 3047 0 
L 2419 0 
L 2419 1100 
L 313 1100 
L 313 1709 
L 2253 4666 
z
" id="DejaVuSans-34" transform="scale(0.015625)"/>
       </defs>
       <use xlink:href="#DejaVuSans-34"/>
       <use x="63.623047" xlink:href="#DejaVuSans-30"/>
       <use x="127.246094" xlink:href="#DejaVuSans-30"/>
       <use x="190.869141" xlink:href="#DejaVuSans-30"/>
      </g>
     </g>
    </g>
    <g id="xtick_6">
     <g id="line2d_6">
      <g>
       <use style="fill:#ffffff;stroke:#ffffff;stroke-width:0.8;" x="839.292846" xlink:href="#mb0e9ee5eac" y="504"/>
      </g>
     </g>
     <g id="text_6">
      <!-- 5000 -->
      <g style="fill:#ffffff;" transform="translate(826.567846 518.598438)scale(0.1 -0.1)">
       <defs>
        <path d="M 691 4666 
L 3169 4666 
L 3169 4134 
L 1269 4134 
L 1269 2991 
Q 1406 3038 1543 3061 
Q 1681 3084 1819 3084 
Q 2600 3084 3056 2656 
Q 3513 2228 3513 1497 
Q 3513 744 3044 326 
Q 2575 -91 1722 -91 
Q 1428 -91 1123 -41 
Q 819 9 494 109 
L 494 744 
Q 775 591 1075 516 
Q 1375 441 1709 441 
Q 2250 441 2565 725 
Q 2881 1009 2881 1497 
Q 2881 1984 2565 2268 
Q 2250 2553 1709 2553 
Q 1456 2553 1204 2497 
Q 953 2441 691 2322 
L 691 4666 
z
" id="DejaVuSans-35" transform="scale(0.015625)"/>
       </defs>
       <use xlink:href="#DejaVuSans-35"/>
       <use x="63.623047" xlink:href="#DejaVuSans-30"/>
       <use x="127.246094" xlink:href="#DejaVuSans-30"/>
       <use x="190.869141" xlink:href="#DejaVuSans-30"/>
      </g>
     </g>
    </g>
    <g id="text_7">
     <!-- iteration -->
     <g style="fill:#ffffff;" transform="translate(495.477344 532.276562)scale(0.1 -0.1)">
      <defs>
       <path d="M 603 3500 
L 1178 3500 
L 1178 0 
L 603 0 
L 603 3500 
z
M 603 4863 
L 1178 4863 
L 1178 4134 
L 603 4134 
L 603 4863 
z
" id="DejaVuSans-69" transform="scale(0.015625)"/>
       <path d="M 1172 4494 
L 1172 3500 
L 2356 3500 
L 2356 3053 
L 1172 3053 
L 1172 1153 
Q 1172 725 1289 603 
Q 1406 481 1766 481 
L 2356 481 
L 2356 0 
L 1766 0 
Q 1100 0 847 248 
Q 594 497 594 1153 
L 594 3053 
L 172 3053 
L 172 3500 
L 594 3500 
L 594 4494 
L 1172 4494 
z
" id="DejaVuSans-74" transform="scale(0.015625)"/>
       <path d="M 3597 1894 
L 3597 1613 
L 953 1613 
Q 991 1019 1311 708 
Q 1631 397 2203 397 
Q 2534 397 2845 478 
Q 3156 559 3463 722 
L 3463 178 
Q 3153 47 2828 -22 
Q 2503 -91 2169 -91 
Q 1331 -91 842 396 
Q 353 884 353 1716 
Q 353 2575 817 3079 
Q 1281 3584 2069 3584 
Q 2775 3584 3186 3129 
Q 3597 2675 3597 1894 
z
M 3022 2063 
Q 3016 2534 2758 2815 
Q 2500 3097 2075 3097 
Q 1594 3097 1305 2825 
Q 1016 2553 972 2059 
L 3022 2063 
z
" id="DejaVuSans-65" transform="scale(0.015625)"/>
       <path d="M 2631 2963 
Q 2534 3019 2420 3045 
Q 2306 3072 2169 3072 
Q 1681 3072 1420 2755 
Q 1159 2438 1159 1844 
L 1159 0 
L 581 0 
L 581 3500 
L 1159 3500 
L 1159 2956 
Q 1341 3275 1631 3429 
Q 1922 3584 2338 3584 
Q 2397 3584 2469 3576 
Q 2541 3569 2628 3553 
L 2631 2963 
z
" id="DejaVuSans-72" transform="scale(0.015625)"/>
       <path d="M 2194 1759 
Q 1497 1759 1228 1600 
Q 959 1441 959 1056 
Q 959 750 1161 570 
Q 1363 391 1709 391 
Q 2188 391 2477 730 
Q 2766 1069 2766 1631 
L 2766 1759 
L 2194 1759 
z
M 3341 1997 
L 3341 0 
L 2766 0 
L 2766 531 
Q 2569 213 2275 61 
Q 1981 -91 1556 -91 
Q 1019 -91 701 211 
Q 384 513 384 1019 
Q 384 1609 779 1909 
Q 1175 2209 1959 2209 
L 2766 2209 
L 2766 2266 
Q 2766 2663 2505 2880 
Q 2244 3097 1772 3097 
Q 1472 3097 1187 3025 
Q 903 2953 641 2809 
L 641 3341 
Q 956 3463 1253 3523 
Q 1550 3584 1831 3584 
Q 2591 3584 2966 3190 
Q 3341 2797 3341 1997 
z
" id="DejaVuSans-61" transform="scale(0.015625)"/>
       <path d="M 1959 3097 
Q 1497 3097 1228 2736 
Q 959 2375 959 1747 
Q 959 1119 1226 758 
Q 1494 397 1959 397 
Q 2419 397 2687 759 
Q 2956 1122 2956 1747 
Q 2956 2369 2687 2733 
Q 2419 3097 1959 3097 
z
M 1959 3584 
Q 2709 3584 3137 3096 
Q 3566 2609 3566 1747 
Q 3566 888 3137 398 
Q 2709 -91 1959 -91 
Q 1206 -91 779 398 
Q 353 888 353 1747 
Q 353 2609 779 3096 
Q 1206 3584 1959 3584 
z
" id="DejaVuSans-6f" transform="scale(0.015625)"/>
       <path d="M 3513 2113 
L 3513 0 
L 2938 0 
L 2938 2094 
Q 2938 2591 2744 2837 
Q 2550 3084 2163 3084 
Q 1697 3084 1428 2787 
Q 1159 2491 1159 1978 
L 1159 0 
L 581 0 
L 581 3500 
L 1159 3500 
L 1159 2956 
Q 1366 3272 1645 3428 
Q 1925 3584 2291 3584 
Q 2894 3584 3203 3211 
Q 3513 2838 3513 2113 
z
" id="DejaVuSans-6e" transform="scale(0.015625)"/>
      </defs>
      <use xlink:href="#DejaVuSans-69"/>
      <use x="27.783203" xlink:href="#DejaVuSans-74"/>
      <use x="66.992188" xlink:href="#DejaVuSans-65"/>
      <use x="128.515625" xlink:href="#DejaVuSans-72"/>
      <use x="169.628906" xlink:href="#DejaVuSans-61"/>
      <use x="230.908203" xlink:href="#DejaVuSans-74"/>
      <use x="270.117188" xlink:href="#DejaVuSans-69"/>
      <use x="297.900391" xlink:href="#DejaVuSans-6f"/>
      <use x="359.082031" xlink:href="#DejaVuSans-6e"/>
     </g>
    </g>
   </g>
   <g id="matplotlib.axis_2">
    <g id="ytick_1">
     <g id="line2d_7">
      <defs>
       <path d="M 0 0 
L -3.5 0 
" id="m1006ab6072" style="stroke:#ffffff;stroke-width:0.8;"/>
      </defs>
      <g>
       <use style="fill:#ffffff;stroke:#ffffff;stroke-width:0.8;" x="126" xlink:href="#m1006ab6072" y="484.232727"/>
      </g>
     </g>
     <g id="text_8">
      <!-- 0 -->
      <g style="fill:#ffffff;" transform="translate(112.6375 488.031946)scale(0.1 -0.1)">
       <use xlink:href="#DejaVuSans-30"/>
      </g>
     </g>
    </g>
    <g id="ytick_2">
     <g id="line2d_8">
      <g>
       <use style="fill:#ffffff;stroke:#ffffff;stroke-width:0.8;" x="126" xlink:href="#m1006ab6072" y="418.869085"/>
      </g>
     </g>
     <g id="text_9">
      <!-- 5000 -->
      <g style="fill:#ffffff;" transform="translate(93.55 422.668304)scale(0.1 -0.1)">
       <use xlink:href="#DejaVuSans-35"/>
       <use x="63.623047" xlink:href="#DejaVuSans-30"/>
       <use x="127.246094" xlink:href="#DejaVuSans-30"/>
       <use x="190.869141" xlink:href="#DejaVuSans-30"/>
      </g>
     </g>
    </g>
    <g id="ytick_3">
     <g id="line2d_9">
      <g>
       <use style="fill:#ffffff;stroke:#ffffff;stroke-width:0.8;" x="126" xlink:href="#m1006ab6072" y="353.505443"/>
      </g>
     </g>
     <g id="text_10">
      <!-- 10000 -->
      <g style="fill:#ffffff;" transform="translate(87.1875 357.304661)scale(0.1 -0.1)">
       <use xlink:href="#DejaVuSans-31"/>
       <use x="63.623047" xlink:href="#DejaVuSans-30"/>
       <use x="127.246094" xlink:href="#DejaVuSans-30"/>
       <use x="190.869141" xlink:href="#DejaVuSans-30"/>
       <use x="254.492188" xlink:href="#DejaVuSans-30"/>
      </g>
     </g>
    </g>
    <g id="ytick_4">
     <g id="line2d_10">
      <g>
       <use style="fill:#ffffff;stroke:#ffffff;stroke-width:0.8;" x="126" xlink:href="#m1006ab6072" y="288.1418"/>
      </g>
     </g>
     <g id="text_11">
      <!-- 15000 -->
      <g style="fill:#ffffff;" transform="translate(87.1875 291.941019)scale(0.1 -0.1)">
       <use xlink:href="#DejaVuSans-31"/>
       <use x="63.623047" xlink:href="#DejaVuSans-35"/>
       <use x="127.246094" xlink:href="#DejaVuSans-30"/>
       <use x="190.869141" xlink:href="#DejaVuSans-30"/>
       <use x="254.492188" xlink:href="#DejaVuSans-30"/>
      </g>
     </g>
    </g>
    <g id="ytick_5">
     <g id="line2d_11">
      <g>
       <use style="fill:#ffffff;stroke:#ffffff;stroke-width:0.8;" x="126" xlink:href="#m1006ab6072" y="222.778158"/>
      </g>
     </g>
     <g id="text_12">
      <!-- 20000 -->
      <g style="fill:#ffffff;" transform="translate(87.1875 226.577377)scale(0.1 -0.1)">
       <use xlink:href="#DejaVuSans-32"/>
       <use x="63.623047" xlink:href="#DejaVuSans-30"/>
       <use x="127.246094" xlink:href="#DejaVuSans-30"/>
       <use x="190.869141" xlink:href="#DejaVuSans-30"/>
       <use x="254.492188" xlink:href="#DejaVuSans-30"/>
      </g>
     </g>
    </g>
    <g id="ytick_6">
     <g id="line2d_12">
      <g>
       <use style="fill:#ffffff;stroke:#ffffff;stroke-width:0.8;" x="126" xlink:href="#m1006ab6072" y="157.414515"/>
      </g>
     </g>
     <g id="text_13">
      <!-- 25000 -->
      <g style="fill:#ffffff;" transform="translate(87.1875 161.213734)scale(0.1 -0.1)">
       <use xlink:href="#DejaVuSans-32"/>
       <use x="63.623047" xlink:href="#DejaVuSans-35"/>
       <use x="127.246094" xlink:href="#DejaVuSans-30"/>
       <use x="190.869141" xlink:href="#DejaVuSans-30"/>
       <use x="254.492188" xlink:href="#DejaVuSans-30"/>
      </g>
     </g>
    </g>
    <g id="ytick_7">
     <g id="line2d_13">
      <g>
       <use style="fill:#ffffff;stroke:#ffffff;stroke-width:0.8;" x="126" xlink:href="#m1006ab6072" y="92.050873"/>
      </g>
     </g>
     <g id="text_14">
      <!-- 30000 -->
      <g style="fill:#ffffff;" transform="translate(87.1875 95.850092)scale(0.1 -0.1)">
       <use xlink:href="#DejaVuSans-33"/>
       <use x="63.623047" xlink:href="#DejaVuSans-30"/>
       <use x="127.246094" xlink:href="#DejaVuSans-30"/>
       <use x="190.869141" xlink:href="#DejaVuSans-30"/>
       <use x="254.492188" xlink:href="#DejaVuSans-30"/>
      </g>
     </g>
    </g>
   </g>
   <g id="line2d_14">
    <path clip-path="url(#pda5ac856e9)" d="M 161.509091 241.262996 
L 161.644648 261.238125 
L 161.780204 261.839471 
L 162.051318 327.543004 
L 162.322431 277.461381 
L 162.457988 345.92326 
L 162.593545 343.138769 
L 162.729102 347.858024 
L 162.864658 331.660913 
L 163.000215 302.12962 
L 163.135772 327.203113 
L 163.271329 328.458095 
L 163.542442 289.671309 
L 163.949112 344.367605 
L 164.084669 330.026822 
L 164.220226 358.682243 
L 164.491339 303.397674 
L 164.626896 305.855347 
L 164.762453 295.462528 
L 164.89801 297.122765 
L 165.169123 353.440079 
L 165.30468 339.962096 
L 165.575793 280.376599 
L 165.71135 308.639838 
L 165.846907 285.004345 
L 166.11802 311.006002 
L 166.253577 298.73071 
L 166.389134 322.366203 
L 166.524691 319.90853 
L 166.660247 322.366203 
L 166.795804 293.083292 
L 166.931361 319.712439 
L 167.066918 312.104112 
L 167.202474 313.751275 
L 167.338031 283.213382 
L 167.473588 285.488036 
L 167.609145 295.880855 
L 167.880258 259.068052 
L 168.015815 256.793397 
L 168.151372 250.257033 
L 168.286928 250.257033 
L 168.422485 285.736418 
L 168.558042 277.905854 
L 168.829155 313.424457 
L 169.100269 278.677145 
L 169.235826 301.894311 
L 169.371382 270.572053 
L 169.506939 275.304381 
L 169.642496 260.963598 
L 170.184723 343.792405 
L 170.455836 377.781499 
L 170.72695 366.369007 
L 170.862507 371.872626 
L 171.13362 334.523841 
L 171.269177 343.19106 
L 171.54029 399.586811 
L 171.675847 390.082937 
L 171.811404 419.365849 
L 171.946961 413.86223 
L 172.082517 402.149065 
L 172.218074 375.519917 
L 172.353631 375.519917 
L 172.624744 330.314422 
L 172.760301 323.778058 
L 172.895858 323.869567 
L 173.031415 321.411894 
L 173.302528 300.077201 
L 173.438085 322.849894 
L 173.573642 293.566983 
L 173.709198 316.784148 
L 173.844755 286.246255 
L 173.980312 309.999402 
L 174.115869 310.339293 
L 174.251425 290.900146 
L 174.386982 320.183058 
L 174.658096 284.860545 
L 174.793653 315.398439 
L 175.064766 277.422163 
L 175.200323 282.324436 
L 175.33588 255.695288 
L 175.471436 282.690472 
L 175.606993 333.765623 
L 175.74255 323.268222 
L 175.878107 323.268222 
L 176.013663 348.746969 
L 176.284777 306.626638 
L 176.420334 306.626638 
L 176.55589 319.215676 
L 176.962561 273.774872 
L 177.098117 292.11591 
L 177.233674 278.637927 
L 177.369231 288.416328 
L 177.504788 288.416328 
L 177.640344 301.724365 
L 178.047015 231.615322 
L 178.318128 191.050646 
L 178.724798 286.076309 
L 178.860355 311.293602 
L 178.995912 281.762309 
L 179.131469 281.853818 
L 179.402582 254.204997 
L 179.538139 279.683745 
L 179.673696 267.408453 
L 179.809252 290.625619 
L 179.944809 291.893673 
L 180.215923 349.217588 
L 180.622593 285.788709 
L 180.75815 311.267457 
L 180.893706 313.685912 
L 181.029263 333.046623 
L 181.707047 216.764703 
L 181.842604 231.105486 
L 181.97816 201.822574 
L 182.113717 214.097866 
L 182.249274 236.569886 
L 182.384831 209.796938 
L 182.520387 239.07985 
L 182.655944 210.816611 
L 182.791501 238.896832 
L 182.927058 232.360468 
L 183.062614 205.365283 
L 183.469285 261.251198 
L 183.604841 240.073378 
L 183.740398 242.269596 
L 183.875955 261.708743 
L 184.011512 234.935795 
L 184.147068 248.80596 
L 184.282625 235.327977 
L 184.553739 308.548329 
L 184.689295 281.775381 
L 184.824852 278.781727 
L 185.231522 341.596187 
L 185.367079 329.320895 
L 185.638193 286.716873 
L 185.773749 306.15602 
L 185.909306 283.684 
L 186.044863 304.508856 
L 186.18042 301.279892 
L 186.315976 278.624854 
L 186.451533 319.712439 
L 186.58709 306.404402 
L 186.722647 279.631454 
L 186.858203 278.193454 
L 186.99376 279.749109 
L 187.40043 324.732367 
L 187.535987 298.678419 
L 187.671544 297.031256 
L 187.807101 301.868165 
L 188.078214 356.185352 
L 188.213771 332.549859 
L 188.349328 351.649115 
L 188.484884 351.989006 
L 188.755998 305.999147 
L 189.027111 341.125569 
L 189.162668 376.801045 
L 189.298225 347.518133 
L 189.433782 352.904097 
L 189.569338 334.90295 
L 189.704895 345.295769 
L 189.840452 316.012857 
L 189.976009 316.012857 
L 190.111565 290.53411 
L 190.247122 295.436383 
L 190.382679 308.02542 
L 190.518236 300.417092 
L 190.789349 333.569532 
L 190.924906 344.602915 
L 191.331576 305.43702 
L 191.467133 328.732622 
L 191.873803 260.296889 
L 192.00936 265.199162 
L 192.280473 248.609869 
L 192.8227 307.358711 
L 193.093814 254.819415 
L 193.229371 252.361742 
L 193.364927 258.898107 
L 193.500484 227.575849 
L 193.636041 362.996243 
L 193.771598 349.688206 
L 193.907154 393.926319 
L 194.042711 393.926319 
L 194.178268 413.365466 
L 194.313825 408.463193 
L 194.449381 385.991173 
L 194.584938 386.082682 
L 194.856052 405.979375 
L 194.991608 399.44301 
L 195.127165 370.160099 
L 195.262722 392.632119 
L 195.398279 363.976698 
L 195.533835 362.329534 
L 195.669392 352.276606 
L 195.804949 322.745312 
L 195.940506 329.281677 
L 196.076062 322.745312 
L 196.347176 337.92275 
L 196.482733 337.582859 
L 196.889403 366.133698 
L 197.02496 358.577661 
L 197.43163 292.782619 
L 197.567187 294.625874 
L 197.702743 281.14789 
L 197.8383 290.5864 
L 197.973857 284.050036 
L 198.109414 261.578016 
L 198.380527 295.606328 
L 198.516084 288.233309 
L 198.651641 319.555567 
L 198.787197 288.233309 
L 199.058311 355.244115 
L 199.329424 322.510003 
L 199.464981 322.483858 
L 199.600538 328.445022 
L 199.736095 304.561147 
L 199.871651 306.208311 
L 200.142765 266.271125 
L 200.278322 275.892654 
L 200.820549 381.481082 
L 201.091662 363.702171 
L 201.227219 363.702171 
L 201.362776 384.8277 
L 201.769446 342.61586 
L 201.905003 315.986712 
L 202.040559 315.986712 
L 202.176116 323.59504 
L 202.311673 323.59504 
L 202.44723 326.876295 
L 202.582786 351.165424 
L 202.718343 349.675133 
L 202.8539 377.938372 
L 202.989457 351.165424 
L 203.125013 372.029499 
L 203.26057 358.551516 
L 203.396127 292.678037 
L 203.531684 348.210988 
L 203.802797 302.822474 
L 203.938354 304.077456 
L 204.073911 312.587802 
L 204.209467 287.109055 
L 204.345024 284.193836 
L 204.480581 297.671819 
L 204.616138 291.135455 
L 205.293921 224.856722 
L 205.565035 343.570169 
L 205.700592 343.570169 
L 205.836148 318.091421 
L 205.971705 372.094863 
L 206.107262 377.598481 
L 206.378375 334.053223 
L 206.513932 360.760807 
L 206.649489 344.158442 
L 206.785046 358.172407 
L 206.920602 350.564079 
L 207.056159 379.84699 
L 207.598386 292.142055 
L 207.733943 299.750383 
L 207.8695 299.632729 
L 208.005056 304.535002 
L 208.140613 282.062981 
L 208.411727 308.574475 
L 208.68284 351.387661 
L 208.818397 375.023154 
L 208.953954 374.931645 
L 209.08951 360.590861 
L 209.225067 385.664355 
L 209.496181 343.086478 
L 209.631737 368.852826 
L 209.902851 314.313403 
L 210.038408 327.556077 
L 210.173964 327.556077 
L 210.309521 314.967039 
L 210.445078 330.340568 
L 210.580635 358.995989 
L 210.851748 309.528784 
L 210.987305 311.986457 
L 211.122862 334.458477 
L 211.258419 306.195238 
L 211.393975 301.292965 
L 211.529532 329.556204 
L 211.665089 329.438549 
L 212.071759 285.762564 
L 212.342873 319.790876 
L 212.749543 262.754562 
L 212.8851 263.787307 
L 213.020656 235.524068 
L 213.29177 273.984035 
L 213.562883 232.17745 
L 213.969554 328.562677 
L 214.10511 323.516603 
L 214.240667 318.627403 
L 214.511781 356.616752 
L 214.647337 356.525243 
L 214.782894 354.407461 
L 214.918451 368.421426 
L 215.054008 361.885062 
L 215.189564 371.388935 
L 215.325121 366.486662 
L 215.460678 336.955368 
L 215.596235 347.348187 
L 215.867348 289.030746 
L 216.002905 316.02593 
L 216.274018 276.807745 
L 216.545132 263.695798 
L 216.680689 266.035816 
L 216.816245 297.358074 
L 216.951802 294.756601 
L 217.087359 324.287894 
L 217.222916 314.784021 
L 217.358472 319.882385 
L 217.494029 290.351091 
L 217.629586 295.85471 
L 217.765143 270.781217 
L 218.036256 324.510131 
L 218.171813 302.038111 
L 218.30737 302.155765 
L 218.578483 264.989998 
L 218.71404 294.521292 
L 218.985153 237.994814 
L 219.12071 267.526107 
L 219.391824 354.564334 
L 219.52738 345.518006 
L 219.662937 367.009571 
L 219.798494 344.537551 
L 220.069607 338.105768 
L 220.340721 365.650007 
L 220.882948 290.67791 
L 221.018505 293.305528 
L 221.154061 300.626256 
L 221.289618 275.147508 
L 221.560732 324.117949 
L 221.696288 319.215676 
L 221.967402 278.049654 
L 222.238515 301.972747 
L 222.374072 297.070474 
L 222.645186 270.84658 
L 222.780742 271.526362 
L 223.051856 310.744548 
L 223.187413 310.653039 
L 223.322969 306.456693 
L 223.458526 330.092186 
L 223.72964 275.134435 
L 223.865196 284.638309 
L 224.000753 255.107015 
L 224.407423 366.708898 
L 224.814094 306.273675 
L 224.94965 319.581712 
L 225.085207 319.464058 
L 225.220764 312.561657 
L 225.356321 290.207291 
L 225.491877 312.679312 
L 225.627434 312.587802 
L 225.898548 292.220491 
L 226.034104 347.139024 
L 226.305218 305.489311 
L 226.440775 324.836949 
L 226.847445 240.94925 
L 226.983002 267.003198 
L 227.254115 250.96296 
L 227.389672 334.719932 
L 227.525229 314.705584 
L 227.796342 328.288149 
L 228.067456 318.836567 
L 228.338569 268.284326 
L 228.474126 275.761926 
L 228.609683 256.322779 
L 228.745239 256.466579 
L 228.880796 283.095727 
L 229.016353 283.187236 
L 229.15191 273.683363 
L 229.287466 283.187236 
L 229.55858 249.577251 
L 229.694137 277.069199 
L 229.829693 277.069199 
L 229.96525 247.537906 
L 230.100807 252.021851 
L 230.236364 283.095727 
L 230.37192 275.53969 
L 230.507477 288.194091 
L 230.643034 319.516349 
L 230.778591 292.521164 
L 231.049704 335.321277 
L 231.185261 314.143457 
L 231.320818 323.647331 
L 231.456374 297.880983 
L 231.727488 320.353003 
L 231.863045 315.45073 
L 231.998601 328.431949 
L 232.134158 354.198297 
L 232.269715 328.562677 
L 232.405272 326.431822 
L 232.540828 321.529549 
L 232.811942 296.86131 
L 232.947499 270.232162 
L 233.083055 275.291308 
L 233.218612 300.273292 
L 233.354169 293.736928 
L 233.489726 319.790876 
L 233.625282 319.699367 
L 233.760839 317.202476 
L 234.167509 370.330044 
L 234.303066 364.826425 
L 234.438623 351.518388 
L 234.709736 371.035972 
L 234.98085 318.980367 
L 235.116407 319.071876 
L 235.251963 318.731985 
L 235.38752 332.040022 
L 235.523077 303.384602 
L 235.929747 333.255786 
L 236.065304 325.647458 
L 236.200861 300.573965 
L 236.336417 310.966784 
L 236.607531 278.219599 
L 236.878644 345.321915 
L 237.014201 319.843167 
L 237.149758 356.381443 
L 237.285315 303.685274 
L 237.420871 302.717892 
L 237.556428 297.815619 
L 237.691985 297.946347 
L 237.963098 279.56609 
L 238.098655 287.1352 
L 238.234212 284.925909 
L 238.369769 321.163512 
L 238.505325 326.667131 
L 238.640882 326.575622 
L 238.776439 313.097639 
L 238.911996 325.89584 
L 239.047552 354.551261 
L 239.183109 328.784913 
L 239.318666 359.322807 
L 239.454223 351.714479 
L 239.589779 322.183185 
L 239.725336 344.955878 
L 239.860893 342.498205 
L 239.99645 314.234966 
L 240.132006 314.234966 
L 240.267563 317.346276 
L 240.40312 303.005492 
L 240.538677 314.666366 
L 240.674233 285.135073 
L 240.945347 334.249314 
L 241.080904 320.941276 
L 241.21646 335.282059 
L 241.352017 327.673731 
L 241.487574 339.949023 
L 241.758687 317.280912 
L 241.894244 340.040532 
L 242.165358 409.430575 
L 242.300914 409.430575 
L 242.436471 396.841538 
L 242.572028 396.815392 
L 242.707585 384.5401 
L 242.843141 397.129138 
L 242.978698 373.911972 
L 243.114255 397.129138 
L 243.249812 367.597844 
L 243.385368 368.199189 
L 243.520925 358.695316 
L 243.656482 372.003353 
L 243.792039 373.650517 
L 243.927595 348.171769 
L 244.063152 377.703063 
L 244.198709 351.073915 
L 244.334266 350.734024 
L 244.469822 376.212772 
L 244.605379 376.330427 
L 244.876493 328.62804 
L 245.012049 348.51166 
L 245.283163 326.797858 
L 245.41872 322.797603 
L 245.689833 354.315952 
L 245.82539 327.686804 
L 245.960947 355.950043 
L 246.096503 343.361005 
L 246.367617 292.625746 
L 246.503174 288.821582 
L 246.774287 307.201838 
L 246.909844 306.861947 
L 247.045401 282.128345 
L 247.180958 307.201838 
L 247.316514 278.546418 
L 247.587628 308.404529 
L 247.723185 294.063746 
L 247.858741 295.723983 
L 247.994298 305.162493 
L 248.129855 340.105896 
L 248.265412 333.595677 
L 248.400968 362.878589 
L 248.807639 300.051056 
L 248.943195 297.711037 
L 249.078752 297.711037 
L 249.485422 358.107043 
L 249.756536 407.221284 
L 250.163206 337.713587 
L 250.298763 323.699622 
L 250.43432 337.713587 
L 250.705433 317.829967 
L 250.84099 292.351219 
L 250.976547 299.959547 
L 251.112103 268.637289 
L 251.24766 288.076437 
L 251.518774 247.106506 
L 251.65433 249.564178 
L 251.925444 220.255121 
L 252.061001 200.815974 
L 252.196557 215.156757 
L 252.467671 254.374943 
L 252.603228 227.745795 
L 252.738784 227.654286 
L 252.874341 234.19065 
L 253.009898 254.50567 
L 253.281011 316.627276 
L 253.552125 275.225944 
L 253.823238 318.352876 
L 253.958795 281.213254 
L 254.094352 290.717128 
L 254.229909 316.914876 
L 254.365465 285.592618 
L 254.501022 299.606583 
L 254.636579 271.343344 
L 254.772136 268.794162 
L 254.907692 258.166034 
L 255.043249 236.988214 
L 255.585476 335.072895 
L 255.85659 293.26631 
L 255.992146 322.797603 
L 256.26326 273.696435 
L 256.398817 273.604926 
L 256.534373 273.722581 
L 256.66993 264.218707 
L 256.805487 295.540965 
L 257.0766 255.721434 
L 257.212157 270.062217 
L 257.347714 259.669398 
L 257.483271 287.932637 
L 257.618827 274.624599 
L 257.889941 309.110457 
L 258.025498 310.75762 
L 258.296611 358.995989 
L 258.567725 318.954221 
L 258.703281 345.949406 
L 258.838838 326.510258 
L 259.109952 326.601767 
L 259.245508 303.829074 
L 259.381065 313.332948 
L 259.516622 287.279 
L 259.652179 296.024655 
L 259.787735 296.024655 
L 259.923292 298.29931 
L 260.058849 326.562549 
L 260.329962 276.297908 
L 260.465519 295.737055 
L 260.601076 288.128727 
L 260.736633 289.775891 
L 260.872189 260.492979 
L 261.007746 260.375325 
L 261.27886 299.332056 
L 261.414416 276.860036 
L 261.68553 323.111349 
L 261.821087 321.490331 
L 261.956643 344.263024 
L 262.0922 334.75915 
L 262.227757 360.813098 
L 262.363314 360.473207 
L 262.49887 329.150949 
L 262.634427 346.080133 
L 263.176654 300.770056 
L 263.447768 292.730328 
L 263.583324 319.281039 
L 263.854438 287.265927 
L 264.125551 317.398567 
L 264.261108 310.783766 
L 264.396665 310.208566 
L 264.532222 297.619528 
L 264.667778 272.546035 
L 264.803335 298.521547 
L 264.938892 285.056636 
L 265.074449 308.692129 
L 265.210005 302.155765 
L 265.345562 273.500344 
L 265.481119 303.332311 
L 265.616676 286.063236 
L 265.752232 335.844186 
L 265.887789 337.49135 
L 266.023346 332.589077 
L 266.158903 303.933656 
L 266.430016 383.154391 
L 266.972243 282.023763 
L 267.1078 294.299055 
L 267.243357 291.266182 
L 267.378913 282.154491 
L 267.785584 316.182803 
L 267.92114 292.54731 
L 268.056697 316.182803 
L 268.192254 305.789984 
L 268.327811 329.007149 
L 268.463367 310.875275 
L 268.598924 323.464313 
L 268.734481 297.410365 
L 269.141151 366.38208 
L 269.276708 341.112496 
L 269.547821 348.067188 
L 269.683378 348.184842 
L 269.818935 335.90955 
L 269.954492 355.348697 
L 270.090048 332.876677 
L 270.225605 331.229513 
L 270.361162 304.600365 
L 270.632275 316.039003 
L 270.767832 303.449965 
L 270.903389 277.971217 
L 271.174502 330.079113 
L 271.445616 274.794544 
L 271.581173 277.971217 
L 271.716729 325.804331 
L 271.852286 310.483093 
L 271.987843 312.940766 
L 272.1234 287.174418 
L 272.258956 291.030873 
L 272.394513 290.7302 
L 272.53007 294.508219 
L 272.665627 294.508219 
L 272.801183 330.863477 
L 272.93674 330.392859 
L 273.072297 359.048279 
L 273.207854 357.401116 
L 273.478967 313.646693 
L 273.614524 326.889367 
L 273.750081 295.56711 
L 273.885637 303.502256 
L 274.021194 330.275204 
L 274.156751 287.409727 
L 274.427864 346.223933 
L 274.563421 345.884042 
L 274.698978 341.099423 
L 274.834535 364.316589 
L 275.105648 334.785295 
L 275.241205 341.32166 
L 275.376762 335.896477 
L 275.512318 349.37446 
L 275.783432 318.052203 
L 276.054545 328.471168 
L 276.190102 328.471168 
L 276.325659 334.432332 
L 276.732329 262.414671 
L 277.003443 320.353003 
L 277.138999 317.89533 
L 277.274556 317.89533 
L 277.410113 331.373313 
L 277.54567 331.713204 
L 277.681226 345.727169 
L 277.816783 323.255149 
L 277.95234 345.727169 
L 278.087897 315.189275 
L 278.223453 317.646948 
L 278.35901 292.168201 
L 278.494567 292.076691 
L 278.76568 282.664327 
L 278.901237 308.770566 
L 279.036794 363.859044 
L 279.172351 369.362662 
L 279.307907 356.054625 
L 279.714578 293.736928 
L 280.121248 369.937862 
L 280.256805 264.793907 
L 280.392361 294.076819 
L 280.527918 268.598071 
L 280.663475 276.206399 
L 280.799032 270.70278 
L 280.934588 254.636397 
L 281.476815 310.300075 
L 281.747929 292.364292 
L 281.883486 292.704182 
L 282.019042 280.115145 
L 282.154599 290.507964 
L 282.290156 288.050291 
L 282.425713 261.277343 
L 282.561269 288.050291 
L 282.696826 290.507964 
L 282.96794 262.231652 
L 283.103497 269.787689 
L 283.239053 267.931362 
L 283.37461 254.453379 
L 283.645724 342.341332 
L 283.78128 342.341332 
L 283.916837 365.114026 
L 284.052394 345.674878 
L 284.187951 363.061607 
L 284.323507 336.288659 
L 284.459064 338.406441 
L 284.594621 352.420406 
L 284.865734 323.137494 
L 285.001291 297.658747 
L 285.136848 311.123657 
L 285.272405 284.494509 
L 285.407961 314.025803 
L 285.543518 317.790748 
L 285.679075 292.024401 
L 285.814632 312.600875 
L 285.950188 312.600875 
L 286.085745 312.731602 
L 286.356859 299.135965 
L 286.492415 325.425222 
L 286.627972 324.784658 
L 286.763529 332.392986 
L 286.899086 318.915003 
L 287.034642 287.592746 
L 287.170199 299.475856 
L 287.305756 325.529804 
L 287.441313 325.529804 
L 287.576869 298.534619 
L 287.712426 340.798751 
L 287.847983 328.758768 
L 287.98354 331.177222 
L 288.254653 282.076054 
L 288.39021 290.481819 
L 288.525767 290.481819 
L 288.661323 316.418112 
L 288.79688 285.095854 
L 288.932437 285.213509 
L 289.067994 298.691492 
L 289.20355 291.083164 
L 289.339107 298.691492 
L 289.474664 325.32064 
L 289.610221 314.927821 
L 289.745777 341.700769 
L 289.881334 312.417857 
L 290.016891 309.999402 
L 290.288004 345.557224 
L 290.423561 364.996371 
L 290.559118 334.458477 
L 290.694675 332.000804 
L 290.830231 354.472825 
L 291.236902 278.376472 
L 291.372458 305.227856 
L 291.508015 280.690345 
L 291.643572 303.162365 
L 291.779129 290.887073 
L 292.050242 356.577534 
L 292.185799 345.727169 
L 292.321356 345.727169 
L 292.456912 342.890387 
L 292.592469 356.36837 
L 292.863583 345.531078 
L 293.134696 310.313148 
L 293.40581 345.870969 
L 293.541366 270.206017 
L 293.676923 314.470275 
L 293.81248 316.927948 
L 293.948037 289.932764 
L 294.083593 316.705712 
L 294.21915 288.050291 
L 294.490264 323.464313 
L 294.62582 326.248804 
L 294.896934 310.378511 
L 295.032491 305.476238 
L 295.168047 321.424967 
L 295.303604 321.137367 
L 295.439161 356.603679 
L 295.574718 361.505952 
L 295.710274 348.027969 
L 295.845831 348.027969 
L 295.981388 373.062244 
L 296.116945 360.786952 
L 296.252501 376.448081 
L 296.388058 377.337027 
L 296.523615 370.800662 
L 296.659172 357.531843 
L 296.794728 382.605336 
L 296.930285 373.702808 
L 297.065842 397.338301 
L 297.201399 277.212999 
L 297.336955 330.327495 
L 297.472512 335.255914 
L 297.608069 308.260729 
L 298.014739 382.984445 
L 298.150296 368.669808 
L 298.285853 371.127481 
L 298.421409 357.649498 
L 298.556966 359.296661 
L 298.692523 357.649498 
L 298.963636 329.20324 
L 299.099193 321.594912 
L 299.23475 296.233819 
L 299.370307 303.005492 
L 299.64142 321.58184 
L 299.776977 298.364674 
L 299.912534 338.850914 
L 300.04809 326.575622 
L 300.183647 342.210605 
L 300.454761 319.76473 
L 300.725874 283.213382 
L 300.861431 278.376472 
L 301.268101 318.235221 
L 301.403658 288.703928 
L 301.539215 284.076182 
L 301.810328 324.719294 
L 301.945885 324.60164 
L 302.216998 285.148145 
L 302.352555 260.074652 
L 302.623669 335.935696 
L 302.759225 336.275586 
L 302.894782 365.80688 
L 303.030339 358.198552 
L 303.165896 368.591371 
L 303.437009 402.253647 
L 303.708123 366.38208 
L 303.843679 366.042189 
L 304.114793 330.484368 
L 304.25035 328.144349 
L 304.385906 328.863349 
L 304.521463 341.452387 
L 304.792577 381.598736 
L 304.928133 379.389445 
L 305.06369 387.899791 
L 305.199247 359.24437 
L 305.47036 363.584516 
L 305.605917 334.301604 
L 305.741474 363.584516 
L 305.877031 363.493007 
L 306.012587 390.265955 
L 306.148144 364.787207 
L 306.283701 390.553555 
L 306.419258 368.081535 
L 306.554814 390.553555 
L 306.690371 390.435901 
L 306.825928 399.939774 
L 306.961485 370.408481 
L 307.097041 370.49999 
L 307.368155 318.104494 
L 307.503712 342.223678 
L 307.639268 329.948386 
L 307.774825 368.526008 
L 307.910382 291.292328 
L 308.045939 279.017036 
L 308.317052 311.437402 
L 308.588166 353.165552 
L 308.723722 365.754589 
L 309.130393 301.292965 
L 309.401506 361.479807 
L 309.67262 379.690118 
L 309.943733 352.760297 
L 310.07929 324.104876 
L 310.214847 324.444767 
L 310.350403 293.906873 
L 310.48596 345.178115 
L 310.621517 339.295387 
L 310.89263 291.985182 
L 311.434857 350.394133 
L 311.570414 327.922113 
L 311.705971 341.230151 
L 311.977084 321.712567 
L 312.112641 348.707751 
L 312.248198 347.060587 
L 312.519311 387.965155 
L 312.654868 361.336007 
L 312.925982 373.37599 
L 313.061538 361.100698 
L 313.332652 311.555057 
L 313.468209 321.058931 
L 313.603765 320.941276 
L 313.739322 318.156785 
L 313.874879 391.690882 
L 314.010436 379.101845 
L 314.417106 417.862485 
L 314.688219 362.564843 
L 314.823776 388.331191 
L 315.09489 370.120881 
L 315.230446 261.761034 
L 315.366003 284.533727 
L 315.637117 262.754562 
L 315.772673 231.432304 
L 315.90823 361.166061 
L 316.043787 347.701151 
L 316.3149 389.821482 
L 316.450457 414.894976 
L 316.586014 387.899791 
L 316.721571 393.40341 
L 316.992684 353.152479 
L 317.128241 339.844441 
L 317.399354 299.149038 
L 317.534911 328.680331 
L 317.670468 321.072003 
L 317.806025 321.411894 
L 317.941581 295.933146 
L 318.077138 295.933146 
L 318.348252 319.660149 
L 318.483808 307.384857 
L 318.619365 314.993185 
L 318.754922 341.047132 
L 318.890479 330.654313 
L 319.161592 281.9584 
L 319.432706 298.534619 
L 319.703819 361.728189 
L 319.974933 363.257698 
L 320.246046 365.257826 
L 320.51716 311.528911 
L 320.788273 350.943188 
L 320.92383 325.17684 
L 321.3305 384.945355 
L 321.466057 355.662443 
L 321.601614 384.945355 
L 321.737171 384.605464 
L 321.872727 359.53197 
L 322.008284 370.957535 
L 322.143841 344.184587 
L 322.414954 378.670445 
L 322.686068 342.75966 
L 322.821625 334.249314 
L 322.957181 337.582859 
L 323.092738 332.079241 
L 323.363852 365.898389 
L 323.499408 365.898389 
L 323.634965 392.671337 
L 323.770522 389.337791 
L 324.041635 355.479425 
L 324.448306 289.592873 
L 324.583862 312.888475 
L 324.854976 263.774234 
L 324.990533 276.363272 
L 325.397203 358.172407 
L 325.53276 380.9451 
L 325.668316 373.336772 
L 325.803873 399.39072 
L 325.93943 389.886846 
L 326.074987 358.564589 
L 326.210543 358.446934 
L 326.3461 358.786825 
L 326.617214 323.398949 
L 326.75277 324.300967 
L 326.888327 328.784913 
L 327.159441 314.640221 
L 327.294997 326.052713 
L 327.430554 354.708134 
L 327.566111 348.171769 
L 327.701668 324.536276 
L 327.837224 339.138514 
L 327.972781 326.863222 
L 328.108338 298.207801 
L 328.243895 306.58742 
L 328.786122 366.761189 
L 328.921678 341.687696 
L 329.057235 373.009954 
L 329.192792 368.10768 
L 329.463905 375.467626 
L 329.599462 368.931262 
L 329.870576 319.529421 
L 330.141689 319.62093 
L 330.277246 295.933146 
L 330.548359 332.74595 
L 330.819473 278.036581 
L 331.226143 365.009444 
L 331.497257 327.242331 
L 331.632813 320.705967 
L 331.76837 291.174673 
L 331.903927 327.020095 
L 332.17504 338.563314 
L 332.310597 217.156885 
L 332.446154 290.39031 
L 332.717267 316.287385 
L 332.852824 293.815364 
L 332.988381 293.723855 
L 333.123938 281.448563 
L 333.259494 319.62093 
L 333.395051 306.639711 
L 333.530608 277.108417 
L 333.666165 277.108417 
L 333.937278 329.137877 
L 334.072835 329.229386 
L 334.208392 315.751403 
L 334.343948 326.144222 
L 334.479505 326.026567 
L 334.750619 303.358456 
L 334.886175 309.241184 
L 335.021732 303.358456 
L 335.157289 303.384602 
L 335.292846 316.862585 
L 335.428402 290.089637 
L 335.563959 291.736801 
L 335.699516 318.509748 
L 335.970629 279.722963 
L 336.106186 279.814472 
L 336.3773 255.969815 
L 336.648413 311.633493 
L 336.919527 253.682088 
L 337.055083 285.004345 
L 337.19064 261.708743 
L 337.326197 271.212617 
L 337.461754 264.676253 
L 337.732867 301.018438 
L 337.868424 300.900783 
L 338.139537 275.134435 
L 338.410651 349.099933 
L 338.546208 349.217588 
L 338.817321 306.090656 
L 339.088435 337.661296 
L 339.223991 310.888348 
L 339.359548 308.783638 
L 339.495105 312.979984 
L 339.630662 321.738712 
L 339.766218 315.202348 
L 339.901775 322.810676 
L 340.037332 323.150567 
L 340.172889 329.686931 
L 340.444002 371.807262 
L 340.579559 359.218225 
L 340.715116 336.001059 
L 340.850672 350.015024 
L 341.257343 284.664454 
L 341.528456 326.941658 
L 341.664013 300.16871 
L 341.79957 340.485005 
L 341.935126 330.20984 
L 342.070683 303.580693 
L 342.20624 300.299438 
L 342.341797 304.077456 
L 342.477353 313.58133 
L 342.61291 284.925909 
L 342.748467 287.200564 
L 343.01958 238.50465 
L 343.155137 254.950143 
L 343.290694 242.674851 
L 343.426251 284.233054 
L 343.561807 261.761034 
L 343.697364 275.68349 
L 343.832921 278.180381 
L 343.968478 277.55289 
L 344.104034 290.860928 
L 344.239591 320.14384 
L 344.375148 315.241566 
L 344.510705 285.958655 
L 344.646261 286.050164 
L 344.917375 245.224033 
L 345.052932 254.727906 
L 345.188488 247.119578 
L 345.595159 318.287512 
L 345.730715 304.273547 
L 345.866272 316.862585 
L 346.001829 304.273547 
L 346.137386 309.17582 
L 346.272942 295.697837 
L 346.408499 327.020095 
L 346.544056 295.697837 
L 346.679613 298.992165 
L 347.357396 363.806753 
L 347.492953 383.2459 
L 348.03518 277.801272 
L 348.170737 281.030236 
L 348.306294 258.558216 
L 348.44185 282.6774 
L 348.577407 283.017291 
L 348.712964 277.513672 
L 348.984077 328.641113 
L 349.119634 323.73884 
L 349.255191 298.665347 
L 349.390748 297.946347 
L 349.526304 302.84862 
L 349.661861 296.312256 
L 349.797418 273.09509 
L 350.339645 342.916533 
L 350.475202 312.378639 
L 350.610758 321.255021 
L 350.746315 321.255021 
L 350.881872 346.328515 
L 351.017429 323.111349 
L 351.152985 319.555567 
L 351.288542 333.89635 
L 351.559656 281.788454 
L 351.695212 308.783638 
L 351.830769 279.500727 
L 352.101883 336.667768 
L 352.372996 281.409345 
L 352.508553 294.717383 
L 352.779666 250.087088 
L 352.915223 259.590961 
L 353.05078 289.122255 
L 353.186337 275.644272 
L 353.321893 249.590324 
L 353.45745 314.326475 
L 353.86412 340.837969 
L 354.270791 412.032048 
L 354.406347 381.611809 
L 354.677461 438.085996 
L 354.813018 438.177505 
L 354.948575 430.569177 
L 355.084131 438.177505 
L 355.355245 403.573993 
L 355.490802 416.88203 
L 355.626358 407.378157 
L 355.897472 330.981131 
L 356.033029 324.444767 
L 356.168585 336.811568 
L 356.304142 366.09448 
L 356.439699 340.328132 
L 356.710812 340.328132 
L 356.846369 328.05284 
L 357.117483 375.480699 
L 357.253039 363.64988 
L 357.388596 368.552153 
L 357.524153 385.102227 
L 357.795266 348.577024 
L 357.930823 331.321022 
L 358.06638 368.212262 
L 358.337493 314.810166 
L 358.47305 340.707241 
L 358.608607 311.175948 
L 358.87972 347.413551 
L 359.015277 334.105514 
L 359.150834 348.119478 
L 359.286391 334.105514 
L 359.421947 357.741007 
L 359.557504 345.151969 
L 359.964174 275.500472 
L 360.235288 318.352876 
L 360.506401 363.689098 
L 360.641958 336.91615 
L 360.777515 344.524478 
L 360.913072 318.47053 
L 361.048628 318.562039 
L 361.184185 304.548074 
L 361.319742 421.379049 
L 361.455299 407.901066 
L 361.590855 409.54823 
L 361.726412 249.890997 
L 362.133082 319.725512 
L 362.404196 327.33384 
L 362.539753 296.011583 
L 362.675309 308.286875 
L 362.946423 257.447034 
L 363.08198 345.910187 
L 363.217536 314.58793 
L 363.353093 327.176967 
L 363.48865 314.58793 
L 363.624207 359.414316 
L 363.759763 337.425987 
L 363.89532 389.7169 
L 364.030877 395.220519 
L 364.166434 364.682625 
L 364.30199 372.617772 
L 364.437547 393.651792 
L 364.708661 366.708898 
L 364.844217 389.1417 
L 365.115331 325.817404 
L 365.250888 351.217715 
L 365.386444 346.027842 
L 365.522001 309.999402 
L 365.657558 309.999402 
L 365.793115 312.28713 
L 365.928671 308.482966 
L 366.199785 273.853308 
L 366.335342 273.827163 
L 366.742012 360.826171 
L 366.877569 335.438932 
L 367.013125 335.438932 
L 367.148682 305.907638 
L 367.284239 306.025293 
L 367.419796 331.504041 
L 367.555352 331.16415 
L 367.690909 304.391202 
L 367.826466 303.685274 
L 367.962023 332.340695 
L 368.097579 334.798368 
L 368.639806 232.242813 
L 368.775363 225.732594 
L 368.91092 256.178979 
L 369.046477 242.870941 
L 369.31759 293.148655 
L 369.453147 293.148655 
L 369.588704 321.804076 
L 369.72426 322.143967 
L 369.995374 312.888475 
L 370.130931 321.019712 
L 370.266487 307.541729 
L 370.402044 315.150057 
L 370.537601 338.78555 
L 370.673158 309.502639 
L 370.808714 309.502639 
L 370.944271 311.149802 
L 371.079828 300.756983 
L 371.215385 314.234966 
L 371.486498 350.302624 
L 371.622055 360.695443 
L 371.893168 306.090656 
L 372.164282 360.695443 
L 372.435395 323.032913 
L 372.706509 308.574475 
L 372.842066 322.510003 
L 372.977622 349.282951 
L 373.248736 328.497313 
L 373.384293 340.772605 
L 373.519849 311.241311 
L 373.655406 331.02035 
L 373.790963 308.548329 
L 373.92652 380.134591 
L 374.062076 373.598226 
L 374.197633 353.047897 
L 374.33319 351.531461 
L 374.468747 377.585408 
L 374.604303 368.081535 
L 374.73986 368.081535 
L 374.875417 374.617899 
L 375.010974 349.66206 
L 375.14653 362.64328 
L 375.282087 364.290444 
L 375.417644 357.754079 
L 375.553201 364.290444 
L 375.688757 362.64328 
L 375.824314 368.277626 
L 376.095428 328.954859 
L 376.366541 369.885571 
L 376.502098 341.230151 
L 376.637655 360.669298 
L 376.908768 344.62906 
L 377.044325 354.132934 
L 377.179882 390.605846 
L 377.315438 375.912099 
L 377.450995 349.139151 
L 377.586552 372.356317 
L 377.722109 375.493772 
L 377.857665 351.714479 
L 377.993222 263.904962 
L 378.128779 268.807235 
L 378.399892 316.679566 
L 378.535449 291.606073 
L 378.671006 305.084056 
L 378.806563 330.15755 
L 378.942119 330.039895 
L 379.077676 328.405804 
L 379.213233 331.255659 
L 379.34879 331.373313 
L 379.484346 325.869695 
L 379.619903 333.425732 
L 379.75546 302.103474 
L 379.891017 328.876422 
L 380.16213 293.096364 
L 380.297687 323.634258 
L 380.704357 243.550723 
L 380.975471 292.521164 
L 381.111027 273.082017 
L 381.246584 274.729181 
L 381.382141 306.051438 
L 381.517698 296.547565 
L 381.653254 309.855602 
L 381.788811 309.515711 
L 382.059925 345.308842 
L 382.195481 345.648733 
L 382.466595 314.823239 
L 382.602152 339.896732 
L 382.873265 298.926801 
L 383.008822 321.124294 
L 383.279935 258.492852 
L 383.415492 307.345638 
L 383.551049 305.86842 
L 383.822162 331.961586 
L 383.957719 322.457712 
L 384.093276 322.575367 
L 384.364389 273.604926 
L 384.499946 280.14129 
L 384.635503 299.580438 
L 384.77106 280.14129 
L 385.042173 361.741262 
L 385.17773 348.433224 
L 385.448843 296.325328 
L 385.5844 321.804076 
L 385.719957 298.58691 
L 385.99107 334.393114 
L 386.126627 327.856749 
L 386.397741 292.364292 
L 386.668854 279.409218 
L 386.804411 302.626383 
L 386.939968 355.871606 
L 387.075524 357.296534 
L 387.211081 331.817786 
L 387.346638 333.46495 
L 387.482195 340.001314 
L 387.617751 339.88366 
L 387.753308 330.379786 
L 387.888865 354.015279 
L 388.024422 339.674496 
L 388.159978 352.263533 
L 388.295535 350.734024 
L 388.431092 340.798751 
L 388.566649 364.787207 
L 388.702205 337.792023 
L 388.973319 342.315187 
L 389.108876 332.811313 
L 389.244432 287.292073 
L 389.379989 289.174546 
L 389.515546 276.899254 
L 389.651103 245.576996 
L 389.786659 315.947494 
L 389.922216 315.947494 
L 390.057773 344.027714 
L 390.19333 346.485387 
L 390.328886 338.877059 
L 390.464443 314.757875 
L 390.6 320.261494 
L 390.735557 306.247529 
L 390.871114 333.242713 
L 391.00667 310.770693 
L 391.142227 336.249441 
L 391.413341 296.835165 
L 391.548897 273.617999 
L 391.820011 294.939619 
L 391.955568 345.334987 
L 392.226681 297.671819 
L 392.497795 331.190295 
L 392.768908 279.749109 
L 392.904465 310.287002 
L 393.040022 308.639838 
L 393.175578 308.639838 
L 393.311135 323.281294 
L 393.446692 321.634131 
L 393.853362 254.740979 
L 393.988919 320.745185 
L 394.124476 330.366713 
L 394.260032 330.366713 
L 394.531146 349.60977 
L 394.666703 320.954349 
L 394.802259 334.968314 
L 394.937816 366.290571 
L 395.073373 365.95068 
L 395.480043 290.900146 
L 395.6156 321.43804 
L 395.751157 321.346531 
L 396.02227 372.473972 
L 396.157827 343.19106 
L 396.42894 385.782009 
L 396.835611 332.471422 
L 396.971167 363.009316 
L 397.242281 340.02746 
L 397.648951 278.624854 
L 397.920065 311.254384 
L 398.191178 281.500854 
L 398.462292 360.721589 
L 398.597848 360.63008 
L 398.733405 355.845461 
L 398.868962 360.747734 
L 399.004519 370.251608 
L 399.275632 342.576642 
L 399.411189 348.08026 
L 399.682302 302.011965 
L 399.953416 349.858151 
L 400.224529 330.288277 
L 400.360086 350.433351 
L 400.495643 338.158059 
L 400.766756 299.802674 
L 400.902313 302.260347 
L 401.173427 262.440816 
L 401.308983 327.020095 
L 401.44454 324.013367 
L 401.580097 325.660531 
L 401.715654 354.315952 
L 401.986767 319.712439 
L 402.122324 306.404402 
L 402.257881 332.040022 
L 402.393437 314.169603 
L 402.664551 330.510513 
L 402.935664 306.809656 
L 403.342335 353.06097 
L 403.477891 362.564843 
L 403.613448 349.08686 
L 403.749005 374.853208 
L 403.884562 367.24488 
L 404.020118 374.853208 
L 404.155675 273.709508 
L 404.291232 274.520017 
L 404.426789 301.515201 
L 404.697902 277.644399 
L 404.969016 326.915513 
L 405.104572 299.920329 
L 405.240129 328.183568 
L 405.375686 323.412022 
L 405.646799 268.519635 
L 405.782356 268.519635 
L 406.05347 334.850659 
L 406.189026 336.497823 
L 406.46014 294.586655 
L 406.731253 342.132169 
L 407.002367 287.814982 
L 407.137924 317.346276 
L 407.27348 290.573328 
L 407.409037 342.602787 
L 407.544594 329.63464 
L 407.680151 304.155893 
L 407.815707 302.364929 
L 408.086821 258.767379 
L 408.357934 297.096619 
L 408.629048 259.53867 
L 408.764605 290.076564 
L 408.900161 289.736673 
L 409.035718 276.25869 
L 409.171275 332.968186 
L 409.306832 331.660913 
L 409.442388 331.660913 
L 409.577945 333.308077 
L 409.713502 333.190423 
L 409.849059 355.780097 
L 410.120172 330.026822 
L 410.255729 330.144477 
L 410.391286 328.497313 
L 410.526842 330.144477 
L 410.662399 304.378129 
L 410.797956 313.882003 
L 410.933513 285.226582 
L 411.069069 284.9782 
L 411.204626 259.499452 
L 411.340183 311.28053 
L 411.47574 279.958272 
L 411.746853 311.306675 
L 412.017967 345.870969 
L 412.28908 329.020222 
L 412.424637 326.90244 
L 412.560194 326.90244 
L 412.69575 329.360113 
L 412.831307 302.364929 
L 412.966864 333.334223 
L 413.102421 331.817786 
L 413.237977 342.145242 
L 413.373534 370.800662 
L 413.509091 368.342989 
L 413.644648 374.186499 
L 413.780204 374.186499 
L 413.915761 376.552663 
L 414.322431 332.837459 
L 414.457988 337.05995 
L 414.593545 333.007404 
L 414.729102 301.685147 
L 415.000215 324.497058 
L 415.271329 286.729946 
L 415.406885 309.502639 
L 415.542442 304.600365 
L 415.677999 291.619146 
L 415.813556 291.527637 
L 415.949112 275.552763 
L 416.084669 276.533217 
L 416.220226 276.533217 
L 416.355783 301.606711 
L 416.491339 291.213891 
L 416.626896 308.443748 
L 416.762453 310.287002 
L 416.89801 315.333075 
L 417.033566 338.850914 
L 417.169123 316.378894 
L 417.30468 322.15704 
L 417.440237 319.90853 
L 417.575793 330.30135 
L 417.846907 311.921093 
L 417.982464 325.399076 
L 418.11802 325.307567 
L 418.253577 356.629825 
L 418.389134 325.307567 
L 418.524691 342.289042 
L 418.660247 330.01375 
L 418.795804 303.384602 
L 419.066918 335.517368 
L 419.202474 305.986075 
L 419.338031 317.646948 
L 419.473588 302.27342 
L 419.609145 302.364929 
L 419.744701 273.082017 
L 419.880258 273.082017 
L 420.015815 269.539308 
L 420.151372 352.694933 
L 420.286928 364.578044 
L 420.422485 396.697738 
L 420.558042 365.37548 
L 420.693599 384.814627 
L 420.829155 354.276734 
L 420.964712 361.597462 
L 421.100269 347.256678 
L 421.235826 357.649498 
L 421.642496 325.529804 
L 421.778053 327.176967 
L 421.913609 316.784148 
L 422.049166 287.252855 
L 422.32028 352.995606 
L 422.455836 336.798496 
L 422.591393 335.452005 
L 422.72695 325.830476 
L 422.998063 351.805988 
L 423.13362 346.302369 
L 423.404734 297.057401 
L 423.54029 307.646311 
L 423.675847 301.515201 
L 423.811404 335.883405 
L 423.946961 326.379531 
L 424.082517 340.720314 
L 424.218074 334.18395 
L 424.353631 321.594912 
L 424.489188 334.18395 
L 424.624744 320.705967 
L 424.760301 347.478915 
L 425.031415 291.423055 
L 425.166971 321.241949 
L 425.302528 315.202348 
L 425.438085 315.202348 
L 425.573642 338.837841 
L 426.115869 221.06563 
L 426.251425 229.406031 
L 426.386982 216.816994 
L 426.522539 220.595012 
L 426.658096 209.234811 
L 426.793653 182.605663 
L 426.929209 189.834882 
L 427.064766 203.312865 
L 427.606993 315.489948 
L 427.74255 309.98633 
L 428.013663 322.30084 
L 428.14922 314.692512 
L 428.284777 327.19004 
L 428.420334 357.727934 
L 428.55589 345.138896 
L 428.691447 359.38817 
L 428.827004 359.47968 
L 429.098117 333.726404 
L 429.233674 347.204387 
L 429.369231 347.112878 
L 429.504788 362.473334 
L 429.640344 360.172534 
L 429.911458 327.007022 
L 430.047015 352.943315 
L 430.182571 340.668023 
L 430.318128 350.171897 
L 430.453685 348.616242 
L 430.589242 373.689735 
L 430.724798 344.158442 
L 430.860355 345.805606 
L 431.267025 297.345001 
L 431.402582 270.349817 
L 431.538139 277.958145 
L 431.809252 332.876677 
L 431.944809 332.994332 
L 432.080366 359.62348 
L 432.215923 359.283589 
L 432.351479 371.558881 
L 432.487036 340.236623 
L 432.622593 339.491478 
L 432.75815 337.63515 
L 432.893706 337.726659 
L 433.029263 342.628933 
L 433.300377 329.948386 
L 433.435933 359.113643 
L 433.57149 359.453534 
L 433.842604 375.493772 
L 433.97816 367.885444 
L 434.113717 342.406696 
L 434.249274 376.238917 
L 434.384831 376.238917 
L 434.520387 377.54619 
L 434.655944 369.937862 
L 434.927058 321.58184 
L 435.062614 347.518133 
L 435.198171 334.04015 
L 435.333728 307.267202 
L 435.469285 316.483476 
L 435.604841 342.249823 
L 435.740398 344.707496 
L 436.147068 292.207419 
L 436.282625 267.82678 
L 436.689295 314.692512 
L 436.960409 279.892909 
L 437.095966 253.263761 
L 437.231522 262.767634 
L 437.367079 291.423055 
L 437.773749 242.897087 
L 437.909306 269.526235 
L 438.044863 246.596669 
L 438.18042 246.596669 
L 438.315976 243.367705 
L 438.451533 230.778668 
L 438.858203 265.277598 
L 439.129317 243.367705 
L 439.40043 274.24549 
L 439.535987 261.970198 
L 439.671544 313.999657 
L 439.807101 287.370509 
L 439.942657 287.370509 
L 440.213771 332.366841 
L 440.349328 399.286138 
L 440.484884 374.212645 
L 440.620441 385.965027 
L 440.755998 360.002589 
L 440.891555 359.061352 
L 441.027111 368.865899 
L 441.162668 394.213919 
L 441.298225 380.735936 
L 441.569338 345.870969 
L 441.704895 332.562932 
L 441.976009 352.851806 
L 442.247122 321.647203 
L 442.382679 341.086351 
L 442.789349 261.225052 
L 442.924906 261.225052 
L 443.060463 287.279 
L 443.331576 252.270233 
L 443.467133 281.553145 
L 443.60269 268.964108 
L 443.738246 268.964108 
L 443.873803 281.553145 
L 444.00936 267.212362 
L 444.144917 295.867783 
L 444.280473 269.238635 
L 444.551587 303.057783 
L 444.687144 335.922623 
L 444.8227 322.44464 
L 445.093814 283.3964 
L 445.364927 344.080005 
L 445.500484 314.548712 
L 445.636041 324.941531 
L 445.771598 315.437657 
L 445.907154 327.712949 
L 446.042711 316.287385 
L 446.178268 342.053732 
L 446.449381 319.04573 
L 446.584938 296.57371 
L 446.720495 293.919946 
L 446.856052 265.656707 
L 446.991608 298.430038 
L 447.127165 273.356544 
L 447.262722 359.858789 
L 447.533835 306.064511 
L 447.804949 374.173426 
L 448.076062 336.720059 
L 448.347176 386.4095 
L 448.482733 372.395535 
L 448.753846 415.692412 
L 448.889403 435.131559 
L 449.702743 346.237006 
L 449.8383 360.250971 
L 450.109414 415.30023 
L 450.787197 315.999785 
L 450.922754 339.21695 
L 451.058311 310.56153 
L 451.193868 322.836822 
L 451.329424 294.573583 
L 451.464981 356.36837 
L 451.600538 350.956261 
L 451.871651 334.366968 
L 452.007208 332.484495 
L 452.142765 327.582222 
L 452.278322 353.63617 
L 452.413878 353.544661 
L 452.820549 303.528402 
L 452.956105 326.301095 
L 453.091662 306.861947 
L 453.227219 359.165934 
L 453.362776 332.392986 
L 453.498332 355.610152 
L 453.633889 355.701661 
L 453.769446 329.935313 
L 453.905003 329.935313 
L 454.176116 398.540992 
L 454.311673 417.980139 
L 454.44723 394.762974 
L 454.582786 394.645319 
L 454.8539 352.681861 
L 455.125013 367.571698 
L 455.26057 367.231808 
L 455.396127 397.769701 
L 455.66724 375.67679 
L 455.938354 333.883277 
L 456.073911 369.597971 
L 456.209467 358.747607 
L 456.345024 378.186754 
L 456.480581 364.708771 
L 456.751694 332.576004 
L 457.158365 296.246892 
L 457.293921 296.246892 
L 457.429478 305.750765 
L 457.700592 271.27798 
L 457.971705 251.132906 
L 458.107262 224.503758 
L 458.378375 277.814345 
L 458.513932 270.206017 
L 458.785046 296.273037 
L 458.920602 290.769419 
L 459.056159 303.044711 
L 459.327273 252.244088 
L 459.462829 239.053705 
L 459.598386 262.689198 
L 459.733943 260.231525 
L 460.005056 283.5402 
L 460.27617 314.078094 
L 460.411727 327.386131 
L 460.547283 352.459624 
L 460.818397 316.901803 
L 461.08951 326.118076 
L 461.225067 352.172024 
L 461.496181 297.161983 
L 461.631737 326.693276 
L 461.902851 286.337764 
L 462.038408 292.874128 
L 462.309521 254.322652 
L 462.580635 304.731093 
L 462.716192 304.731093 
L 462.851748 376.408863 
L 462.987305 349.635915 
L 463.122862 349.727424 
L 463.258419 326.091931 
L 463.393975 349.727424 
L 463.529532 343.19106 
L 463.665089 369.964008 
L 463.800646 341.308587 
L 463.936202 341.217078 
L 464.071759 355.257188 
L 464.207316 356.904352 
L 464.342873 327.62144 
L 464.478429 350.394133 
L 464.613986 342.785805 
L 465.020656 250.008651 
L 465.156213 250.348542 
L 465.29177 277.12149 
L 465.427327 381.703318 
L 465.69844 354.329025 
L 465.833997 266.048889 
L 465.969554 266.048889 
L 466.376224 295.214146 
L 466.511781 272.742126 
L 466.647337 272.833635 
L 466.782894 287.174418 
L 467.054008 269.081762 
L 467.189564 300.40402 
L 467.325121 305.907638 
L 467.460678 276.376345 
L 467.596235 276.25869 
L 467.731791 250.204742 
L 467.867348 266.898616 
L 468.002905 266.898616 
L 468.138462 267.016271 
L 468.274018 266.67638 
L 468.409575 281.683872 
L 468.545132 250.361615 
L 468.680689 267.931362 
L 468.816245 241.302214 
L 468.951802 279.85369 
L 469.087359 286.390055 
L 469.222916 261.316561 
L 469.358472 288.311746 
L 469.494029 260.048507 
L 469.629586 272.323799 
L 469.765143 298.952947 
L 469.900699 273.474199 
L 470.036256 272.454526 
L 470.171813 269.460871 
L 470.30737 269.460871 
L 470.442926 293.096364 
L 470.849597 214.045575 
L 470.985153 237.824868 
L 471.12071 237.824868 
L 471.256267 220.555794 
L 471.391824 225.458067 
L 471.662937 175.611753 
L 471.798494 205.143047 
L 472.069607 287.736546 
L 472.205164 314.208821 
L 472.340721 312.326348 
L 472.476278 312.326348 
L 472.611834 298.900656 
L 472.747391 377.140936 
L 472.882948 353.92377 
L 473.018505 383.115173 
L 473.154061 383.115173 
L 473.289618 370.839881 
L 473.696288 316.483476 
L 473.831845 325.229131 
L 473.967402 312.640093 
L 474.102959 285.867145 
L 474.238515 286.324691 
L 474.374072 287.971855 
L 474.509629 273.95789 
L 474.645186 300.953074 
L 475.051856 209.561629 
L 475.322969 258.767379 
L 475.458526 367.911589 
L 475.72964 332.445277 
L 476.000753 385.376755 
L 476.271867 340.040532 
L 476.407423 332.981259 
L 476.54298 305.345511 
L 476.678537 310.247784 
L 476.814094 303.71142 
L 476.94965 281.2394 
L 477.085207 309.89482 
L 477.220764 297.619528 
L 477.356321 311.960312 
L 477.627434 260.92438 
L 477.762991 283.3964 
L 477.898548 278.494127 
L 478.034104 285.030491 
L 478.169661 261.813325 
L 478.305218 261.813325 
L 478.711888 332.576004 
L 478.847445 358.878334 
L 478.983002 332.105386 
L 479.118558 346.446169 
L 479.254115 332.432204 
L 479.525229 238.700741 
L 479.660785 239.105996 
L 480.067456 285.814855 
L 480.203012 280.023636 
L 480.474126 298.168583 
L 480.745239 266.258053 
L 480.880796 265.369107 
L 481.016353 334.079368 
L 481.15191 320.601385 
L 481.287466 322.340058 
L 481.423023 292.808764 
L 481.55858 291.279255 
L 481.694137 291.619146 
L 481.829693 284.010818 
L 481.96525 283.893163 
L 482.100807 296.168455 
L 482.236364 291.762946 
L 482.37192 307.280275 
L 482.507477 305.14942 
L 482.643034 305.14942 
L 482.778591 342.498205 
L 483.049704 288.756218 
L 483.185261 296.233819 
L 483.320818 292.181273 
L 483.456374 308.156148 
L 483.591931 309.803311 
L 483.863045 292.312001 
L 483.998601 320.57524 
L 484.134158 291.919819 
L 484.269715 305.933784 
L 484.405272 334.589205 
L 484.676385 308.613693 
L 484.811942 328.05284 
L 485.083055 290.403382 
L 485.489726 353.727679 
L 485.625282 325.46444 
L 485.760839 339.230023 
L 485.896396 326.954731 
L 486.031953 266.977053 
L 486.167509 279.631454 
L 486.438623 320.313785 
L 486.57418 317.03253 
L 486.709736 287.749618 
L 486.845293 302.090402 
L 486.98085 330.745822 
L 487.116407 318.156785 
L 487.251963 318.065276 
L 487.38752 345.936333 
L 487.523077 346.027842 
L 487.79419 293.776146 
L 488.065304 342.498205 
L 488.200861 348.001824 
L 488.336417 325.229131 
L 488.607531 325.019967 
L 488.743088 350.498715 
L 489.014201 316.261239 
L 489.149758 316.261239 
L 489.285315 338.406441 
L 489.420871 321.804076 
L 489.556428 321.58184 
L 489.963098 259.381798 
L 490.234212 312.077966 
L 490.369769 340.341205 
L 490.505325 327.033167 
L 490.640882 328.680331 
L 490.776439 328.562677 
L 490.911996 340.02746 
L 491.047552 381.389572 
L 491.183109 368.800535 
L 491.454223 264.741616 
L 491.725336 243.655305 
L 492.132006 307.986202 
L 492.40312 280.768781 
L 492.538677 280.768781 
L 492.80979 346.06706 
L 492.945347 337.556714 
L 493.080904 364.551898 
L 493.21646 362.094225 
L 493.352017 335.321277 
L 493.487574 335.321277 
L 493.623131 347.64886 
L 493.758687 321.019712 
L 493.894244 321.764858 
L 494.029801 348.394006 
L 494.165358 348.394006 
L 494.300914 370.866026 
L 494.572028 342.354405 
L 494.978698 314.901675 
L 495.114255 313.646693 
L 495.249812 299.515074 
L 495.385368 323.150567 
L 495.520925 323.150567 
L 495.656482 348.22406 
L 495.792039 347.884169 
L 495.927595 373.938117 
L 496.063152 359.597334 
L 496.198709 332.968186 
L 496.469822 377.846863 
L 496.605379 348.315569 
L 496.740936 370.78759 
L 497.012049 342.511278 
L 497.147606 328.837204 
L 497.283163 330.484368 
L 497.554276 275.774999 
L 497.689833 304.43042 
L 497.82539 273.108162 
L 497.960947 286.586146 
L 498.096503 265.408325 
L 498.367617 282.193709 
L 498.638731 233.90305 
L 498.774287 233.90305 
L 498.909844 259.865489 
L 499.045401 337.569787 
L 499.180958 324.588567 
L 499.587628 401.97912 
L 500.129855 314.574857 
L 500.265412 341.570042 
L 500.400968 336.667768 
L 500.536525 324.078731 
L 500.672082 324.078731 
L 500.807639 350.851679 
L 501.214309 319.490203 
L 501.349866 324.392476 
L 501.620979 361.166061 
L 501.756536 360.133316 
L 501.892093 385.206809 
L 502.298763 316.666494 
L 502.43432 316.666494 
L 502.84099 392.553683 
L 503.24766 317.333203 
L 503.383217 312.313275 
L 503.518774 334.118586 
L 503.789887 311.385111 
L 503.925444 310.077839 
L 504.061001 316.614203 
L 504.196557 366.068335 
L 504.332114 365.257826 
L 504.467671 375.755226 
L 505.009898 287.305146 
L 505.145455 287.017546 
L 505.281011 310.117057 
L 505.552125 250.257033 
L 505.687682 260.649852 
L 505.823238 246.309069 
L 506.094352 280.088999 
L 506.636579 228.517086 
L 506.907692 254.07427 
L 507.314363 196.515046 
L 507.449919 209.208666 
L 507.585476 300.443238 
L 507.721033 273.81409 
L 507.85659 286.403127 
L 507.992146 273.81409 
L 508.127703 249.616469 
L 508.26326 252.806215 
L 508.398817 277.879708 
L 508.534373 249.616469 
L 508.66993 261.996343 
L 508.805487 287.762691 
L 508.941044 281.226327 
L 509.212157 240.112596 
L 509.347714 259.551743 
L 509.483271 247.276451 
L 509.618827 247.616342 
L 509.754384 221.562394 
L 509.889941 221.562394 
L 510.161054 194.266537 
L 510.703281 308.561402 
L 510.838838 295.972365 
L 511.109952 242.805578 
L 511.245508 255.394615 
L 511.381065 284.677527 
L 511.516622 271.36949 
L 511.652179 298.364674 
L 511.787735 267.042416 
L 511.923292 273.578781 
L 512.058849 247.524833 
L 512.194406 259.800125 
L 512.465519 216.986939 
L 512.601076 230.294977 
L 512.736633 205.221483 
L 512.872189 205.966629 
L 513.143303 255.51227 
L 513.27886 255.420761 
L 513.414416 242.112723 
L 513.549973 242.112723 
L 513.68553 271.644017 
L 513.821087 266.231907 
L 513.956643 288.703928 
L 514.227757 238.857614 
L 514.363314 265.486762 
L 514.49887 321.346531 
L 514.634427 322.353131 
L 514.769984 297.279637 
L 514.905541 297.279637 
L 515.041097 342.079878 
L 515.176654 316.02593 
L 515.312211 311.829584 
L 515.447768 312.339421 
L 515.583324 309.162748 
L 515.718881 328.941786 
L 515.854438 321.085076 
L 515.989995 347.139024 
L 516.532222 298.050928 
L 516.667778 329.373186 
L 516.803335 309.228111 
L 516.938892 341.243223 
L 517.074449 314.561784 
L 517.210005 337.033805 
L 517.345562 340.981769 
L 517.481119 370.513062 
L 517.752232 348.733897 
L 518.023346 408.97303 
L 518.158903 408.633139 
L 518.294459 435.314577 
L 518.565573 415.130285 
L 518.70113 405.077356 
L 518.836686 373.755099 
L 518.972243 386.030391 
L 519.243357 431.693432 
L 519.378913 439.30176 
L 519.650027 401.443138 
L 519.92114 344.132296 
L 520.056697 351.897497 
L 520.192254 347.060587 
L 520.327811 348.79926 
L 520.463367 362.734789 
L 520.734481 362.734789 
L 520.870038 368.238408 
L 521.005594 362.734789 
L 521.141151 377.075572 
L 521.276708 377.167081 
L 521.412265 376.82719 
L 521.818935 306.822729 
L 521.954492 313.359093 
L 522.090048 293.919946 
L 522.225605 316.692639 
L 522.361162 315.045475 
L 522.496719 301.567492 
L 522.632275 304.953329 
L 522.767832 331.948513 
L 522.903389 306.87502 
L 523.038946 306.783511 
L 523.310059 347.034442 
L 523.581173 322.065531 
L 523.716729 322.065531 
L 523.987843 372.826935 
L 524.394513 306.378256 
L 524.53007 320.71904 
L 524.93674 250.649215 
L 525.072297 369.192717 
L 525.207854 370.839881 
L 525.478967 335.242841 
L 525.614524 335.242841 
L 525.750081 348.550879 
L 525.885637 319.267967 
L 526.021194 342.485133 
L 526.156751 317.006385 
L 526.292308 317.006385 
L 526.427864 324.614713 
L 526.563421 324.523204 
L 526.698978 330.026822 
L 526.834535 303.253874 
L 527.105648 314.574857 
L 527.241205 314.574857 
L 527.376762 308.038493 
L 527.647875 308.130002 
L 527.783432 314.666366 
L 527.918989 286.403127 
L 528.054545 287.671182 
L 528.190102 314.666366 
L 528.325659 309.764093 
L 528.461216 319.607858 
L 528.596772 313.071493 
L 528.732329 327.007022 
L 528.867886 327.007022 
L 529.003443 322.065531 
L 529.138999 321.43804 
L 529.274556 295.959292 
L 529.54567 379.27179 
L 529.681226 385.808155 
L 530.223453 305.959929 
L 530.35901 306.077584 
L 530.494567 305.986075 
L 530.630124 283.514054 
L 530.76568 326.837077 
L 530.901237 300.207929 
L 531.036794 297.161983 
L 531.172351 284.572945 
L 531.579021 338.184205 
L 531.714578 315.411512 
L 531.850134 342.406696 
L 532.121248 318.535894 
L 532.256805 341.308587 
L 532.392361 341.308587 
L 532.527918 346.812206 
L 532.934588 263.185962 
L 533.070145 275.774999 
L 533.612372 260.061579 
L 533.747929 256.009034 
L 533.883486 256.95027 
L 534.019042 295.514819 
L 534.154599 267.434598 
L 534.561269 335.831114 
L 534.696826 312.613948 
L 534.832383 338.380296 
L 534.96794 338.040405 
L 535.103497 309.384984 
L 535.239053 372.722353 
L 535.37461 360.447061 
L 535.645724 404.149193 
L 535.916837 361.558243 
L 536.052394 365.179389 
L 536.187951 375.572208 
L 536.594621 315.411512 
L 536.730178 315.411512 
L 536.865734 315.751403 
L 537.001291 303.162365 
L 537.272405 307.541729 
L 537.407961 307.541729 
L 537.814632 375.075445 
L 537.950188 349.596697 
L 538.221302 349.596697 
L 538.492415 372.51319 
L 538.627972 357.427261 
L 538.899086 319.111094 
L 539.034642 319.111094 
L 539.170199 275.657345 
L 539.305756 286.429273 
L 539.441313 273.840235 
L 539.576869 299.894183 
L 539.712426 294.390564 
L 539.847983 324.928458 
L 539.98354 299.16211 
L 540.119096 299.16211 
L 540.254653 294.27291 
L 540.39021 280.977945 
L 540.661323 320.013112 
L 540.79688 313.163003 
L 540.932437 318.065276 
L 541.20355 283.775509 
L 541.339107 309.541857 
L 541.474664 296.952819 
L 541.610221 296.612928 
L 541.745777 305.162493 
L 541.881334 305.162493 
L 542.016891 295.99851 
L 542.152448 295.99851 
L 542.288004 298.116292 
L 542.423561 321.333458 
L 542.559118 318.627403 
L 542.694675 324.131022 
L 542.830231 319.228749 
L 543.101345 275.605054 
L 543.236902 287.017546 
L 543.372458 280.481181 
L 543.914685 315.73833 
L 544.050242 341.792278 
L 544.185799 329.20324 
L 544.456912 325.425222 
L 544.592469 313.14993 
L 544.728026 313.14993 
L 544.863583 325.425222 
L 545.541366 284.821327 
L 545.676923 258.048379 
L 545.81248 254.871706 
L 545.948037 266.624089 
L 546.083593 266.624089 
L 546.354707 260.375325 
L 546.62582 297.684892 
L 546.761377 297.684892 
L 546.896934 284.206909 
L 547.032491 289.109182 
L 547.168047 281.500854 
L 547.439161 243.446142 
L 547.574718 264.976925 
L 547.710274 235.445632 
L 547.845831 240.94925 
L 548.116945 275.330526 
L 548.252501 275.330526 
L 548.388058 248.335342 
L 548.523615 248.335342 
L 548.659172 240.727014 
L 548.794728 226.713049 
L 548.930285 249.185069 
L 549.065842 249.185069 
L 549.201399 250.453124 
L 549.336955 263.042162 
L 549.472512 288.520909 
L 549.608069 259.237998 
L 549.743626 259.237998 
L 550.014739 286.115527 
L 550.150296 281.213254 
L 550.285853 281.213254 
L 550.421409 290.599473 
L 550.692523 348.315569 
L 550.963636 344.838224 
L 551.099193 332.562932 
L 551.23475 334.210095 
L 551.370307 326.601767 
L 551.64142 326.601767 
L 551.776977 321.699494 
L 552.04809 348.315569 
L 552.183647 348.433224 
L 552.319204 348.341715 
L 552.454761 371.977208 
L 552.996988 294.769674 
L 553.132544 294.769674 
L 553.268101 309.110457 
L 553.403658 309.228111 
L 553.539215 283.174163 
L 553.674771 307.293347 
L 553.945885 307.293347 
L 554.081442 277.762054 
L 554.216998 279.069327 
L 554.488112 317.973767 
L 554.623669 305.384729 
L 554.894782 349.557479 
L 555.165896 393.821737 
L 555.301452 368.342989 
L 555.437009 368.342989 
L 555.708123 317.555439 
L 555.843679 336.994587 
L 555.979236 322.653803 
L 556.385906 322.653803 
L 556.521463 333.504168 
L 556.65702 320.026185 
L 556.792577 349.243733 
L 556.928133 342.341332 
L 557.06369 342.341332 
L 557.199247 346.106278 
L 557.334804 372.879226 
L 557.47036 346.106278 
L 557.741474 346.106278 
L 558.012587 315.699112 
L 558.148144 315.790621 
L 558.419258 263.486634 
L 558.554814 287.122127 
L 558.825928 245.407051 
L 558.961485 245.407051 
L 559.097041 233.850759 
L 559.232598 234.242941 
L 559.368155 306.208311 
L 559.503712 301.907383 
L 559.639268 289.632091 
L 559.910382 301.515201 
L 560.045939 272.859781 
L 560.181495 272.859781 
L 560.317052 275.278235 
L 560.452609 317.150185 
L 560.588166 309.045093 
L 560.859279 359.453534 
L 561.265949 276.912326 
L 561.401506 276.912326 
L 561.537063 253.133033 
L 561.67262 253.825888 
L 561.808176 279.304636 
L 561.943733 256.08747 
L 562.07929 262.846071 
L 562.214847 262.846071 
L 562.48596 283.605563 
L 562.621517 324.327113 
L 562.757074 324.327113 
L 562.89263 305.593893 
L 563.028187 305.593893 
L 563.163744 311.058293 
L 563.299301 304.521929 
L 563.434857 328.039768 
L 563.570414 301.98582 
L 563.705971 333.308077 
L 564.112641 274.729181 
L 564.519311 308.31302 
L 564.654868 300.704692 
L 564.790425 305.606965 
L 564.925982 293.331673 
L 565.061538 339.569914 
L 565.197095 338.680969 
L 565.332652 353.021752 
L 565.468209 345.413424 
L 565.603765 370.003226 
L 565.739322 338.680969 
L 565.874879 334.733005 
L 566.010436 337.190677 
L 566.281549 288.468618 
L 566.417106 301.057656 
L 566.552663 301.057656 
L 566.823776 257.839216 
L 566.959333 257.839216 
L 567.09489 253.64287 
L 567.230446 253.64287 
L 567.366003 267.983653 
L 567.50156 262.571543 
L 567.637117 262.571543 
L 567.772673 269.107908 
L 567.90823 266.833253 
L 568.043787 272.336871 
L 568.179344 272.336871 
L 568.3149 257.996088 
L 568.450457 288.533982 
L 568.857127 237.419614 
L 568.992684 237.419614 
L 569.128241 240.936178 
L 569.263798 233.32785 
L 569.670468 233.32785 
L 569.806025 258.950398 
L 569.941581 258.950398 
L 570.212695 297.410365 
L 570.483808 297.29271 
L 570.754922 328.19664 
L 571.026036 269.12098 
L 571.161592 273.513417 
L 571.297149 269.317071 
L 571.432706 269.317071 
L 571.568263 246.845051 
L 571.839376 303.436893 
L 572.11049 289.030746 
L 572.51716 236.282286 
L 572.652717 240.282541 
L 572.788273 235.236468 
L 572.92383 240.138741 
L 573.059387 265.617489 
L 573.194944 238.844541 
L 573.3305 252.322524 
L 573.466057 280.977945 
L 573.601614 255.499197 
L 574.143841 255.499197 
L 574.414954 230.634868 
L 574.550511 230.634868 
L 574.686068 207.417702 
L 574.821625 207.417702 
L 574.957181 200.881338 
L 575.092738 227.654286 
L 575.228295 201.025138 
L 575.363852 210.529011 
L 575.499408 202.920683 
L 575.634965 202.920683 
L 575.770522 215.195975 
L 575.906079 210.293702 
L 576.041635 210.293702 
L 576.312749 237.667996 
L 576.448306 211.901648 
L 576.583862 211.901648 
L 576.719419 209.012575 
L 576.854976 190.475446 
L 577.53276 190.475446 
L 577.668316 203.783483 
L 577.803873 203.783483 
L 577.93943 225.314267 
L 578.074987 225.314267 
L 578.210543 200.240774 
L 578.3461 200.240774 
L 578.481657 168.918516 
L 578.617214 194.397264 
L 578.75277 167.624316 
L 578.888327 165.781062 
L 579.023884 165.781062 
L 579.159441 178.370099 
L 579.430554 229.955086 
L 579.566111 229.955086 
L 579.701668 237.563414 
L 579.972781 199.181883 
L 580.650565 199.181883 
L 580.786122 192.645519 
L 580.921678 192.645519 
L 581.057235 215.195975 
L 581.192792 210.293702 
L 581.328349 210.293702 
L 581.463905 198.01841 
L 581.870576 198.01841 
L 582.141689 207.156247 
L 582.277246 193.678264 
L 582.412803 223.209558 
L 582.683916 223.209558 
L 582.819473 228.111831 
L 582.95503 241.589814 
L 583.090586 222.268321 
L 583.3617 222.268321 
L 583.497257 215.731957 
L 583.632813 217.941248 
L 583.76837 258.126816 
L 583.903927 244.648833 
L 584.039484 242.439541 
L 584.17504 262.584616 
L 584.310597 235.811668 
L 584.852824 235.811668 
L 584.988381 231.615322 
L 585.123938 232.216668 
L 585.395051 232.216668 
L 585.530608 249.002051 
L 586.072835 249.002051 
L 586.343948 271.80089 
L 586.479505 271.80089 
L 586.615062 242.269596 
L 586.886175 242.269596 
L 587.021732 233.105613 
L 587.157289 261.368852 
L 587.292846 259.237998 
L 587.563959 267.408453 
L 587.835073 271.866253 
L 587.970629 273.748726 
L 588.106186 270.232162 
L 588.241743 270.232162 
L 588.512856 249.95636 
L 588.648413 249.95636 
L 588.78397 267.094707 
L 589.055083 230.543359 
L 589.461754 230.543359 
L 589.59731 252.976161 
L 589.732867 252.976161 
L 589.868424 280.036709 
L 590.003981 278.337254 
L 590.139537 278.337254 
L 590.410651 242.426469 
L 590.681764 242.426469 
L 590.817321 211.104211 
L 590.952878 233.576232 
L 591.088435 233.576232 
L 591.223991 247.890869 
L 591.359548 244.531178 
L 591.495105 231.94214 
L 591.766218 231.94214 
L 591.901775 257.708488 
L 592.037332 250.10016 
L 592.172889 250.10016 
L 592.308445 257.708488 
L 592.444002 234.491323 
L 592.579559 261.486507 
L 592.715116 237.851014 
L 592.850672 237.851014 
L 592.986229 224.542976 
L 593.121786 228.49094 
L 593.257343 228.49094 
L 593.392899 216.411739 
L 593.528456 190.932991 
L 593.664013 190.932991 
L 593.79957 184.396627 
L 593.935126 184.396627 
L 594.070683 194.697937 
L 594.341797 194.697937 
L 594.477353 191.704282 
L 594.61291 191.704282 
L 594.748467 223.02654 
L 594.884024 209.548557 
L 595.155137 209.430902 
L 595.426251 209.430902 
L 595.697364 235.118813 
L 595.832921 230.21654 
L 595.968478 217.941248 
L 596.104034 217.941248 
L 596.239591 212.555284 
L 596.510705 212.555284 
L 596.781818 251.77347 
L 597.052932 251.77347 
L 597.188488 243.263123 
L 597.324045 252.087215 
L 597.595159 214.228593 
L 597.730715 210.280629 
L 597.866272 210.280629 
L 598.001829 222.555921 
L 598.137386 222.555921 
L 598.272942 221.06563 
L 598.544056 268.768017 
L 598.679613 267.120853 
L 598.815169 270.153726 
L 598.950726 270.153726 
L 599.22184 280.036709 
L 599.492953 280.036709 
L 599.764067 255.172379 
L 599.899623 255.172379 
L 600.03518 249.132778 
L 600.170737 252.361742 
L 600.306294 259.577888 
L 600.44185 245.655433 
L 600.577407 245.655433 
L 600.712964 233.380141 
L 600.848521 233.380141 
L 600.984077 210.162975 
L 601.932975 210.162975 
L 602.068531 196.122864 
L 603.288542 196.122864 
L 603.424099 215.45743 
L 603.559656 217.104594 
L 603.695212 212.20232 
L 603.830769 185.429373 
L 604.101883 185.429373 
L 604.237439 215.967266 
L 604.372996 215.967266 
L 604.508553 205.574447 
L 604.64411 205.574447 
L 604.779666 176.043154 
L 604.915223 176.043154 
L 605.05078 205.064611 
L 605.321893 205.064611 
L 605.45745 208.254356 
L 605.593007 208.646538 
L 605.728564 208.646538 
L 605.86412 205.064611 
L 605.999677 218.542594 
L 606.406347 218.542594 
L 606.541904 205.064611 
L 606.677461 205.064611 
L 606.813018 178.435463 
L 606.948575 179.873463 
L 607.084131 173.337099 
L 608.439699 173.337099 
L 608.575256 167.794262 
L 608.710812 167.794262 
L 608.846369 154.486224 
L 608.981926 181.115372 
L 609.253039 181.115372 
L 609.388596 154.486224 
L 609.524153 184.017518 
L 609.795266 184.017518 
L 610.06638 169.872826 
L 610.201937 169.872826 
L 610.337493 195.926774 
L 610.47305 183.337736 
L 610.608607 195.926774 
L 611.150834 195.926774 
L 611.286391 189.795664 
L 611.421947 164.316916 
L 612.235288 164.316916 
L 612.370845 156.983115 
L 612.913072 156.983115 
L 613.048628 127.451822 
L 613.319742 127.451822 
L 613.455299 158.774079 
L 613.861969 158.774079 
L 613.997526 174.748953 
L 614.133082 174.748953 
L 614.268639 181.285318 
L 614.539753 181.285318 
L 614.675309 165.022843 
L 614.810866 165.022843 
L 614.946423 147.152424 
L 615.624207 147.152424 
L 615.759763 172.827262 
L 615.89532 172.827262 
L 616.030877 178.291663 
L 616.30199 178.291663 
L 616.437547 146.969405 
L 616.573104 160.447388 
L 616.844217 160.447388 
L 616.979774 146.198114 
L 617.928671 146.198114 
L 618.064228 145.50526 
L 618.199785 145.50526 
L 618.335342 172.500444 
L 618.470898 146.446496 
L 618.877569 146.446496 
L 619.013125 134.171204 
L 620.368693 134.171204 
L 620.50425 120.693221 
L 621.046477 120.693221 
L 621.182033 136.040604 
L 622.266487 136.040604 
L 622.402044 129.50424 
L 622.944271 129.50424 
L 623.079828 141.779532 
L 623.215385 141.779532 
L 623.350941 129.190495 
L 624.977622 129.190495 
L 625.113179 134.027404 
L 628.230984 134.027404 
L 628.366541 133.086168 
L 628.502098 162.617461 
L 628.908768 162.617461 
L 629.044325 172.121335 
L 629.179882 159.846043 
L 629.450995 159.846043 
L 629.586552 166.382407 
L 629.722109 166.081734 
L 630.128779 158.290388 
L 631.484346 158.290388 
L 631.619903 151.754024 
L 632.839914 151.754024 
L 632.975471 156.656297 
L 633.111027 156.656297 
L 633.246584 134.184277 
L 634.737708 134.184277 
L 634.873265 147.66226 
L 635.686606 147.66226 
L 635.822162 151.244188 
L 637.855514 151.244188 
L 637.99107 137.766205 
L 639.075524 137.766205 
L 639.211081 108.234911 
L 642.6 108.234911 
L 642.735557 106.574674 
L 645.988919 106.574674 
L 646.124476 112.274384 
L 646.802259 112.274384 
L 646.937816 108.051893 
L 647.344486 108.051893 
L 647.480043 107.764293 
L 649.377838 107.764293 
L 649.513394 108.352565 
L 657.782356 108.352565 
L 657.917913 114.88893 
L 663.611296 114.88893 
L 663.746853 113.686239 
L 666.457988 113.686239 
L 666.593545 107.149874 
L 672.015815 107.149874 
L 672.151372 101.450165 
L 712.005056 101.450165 
L 712.140613 102.391401 
L 730.847445 102.391401 
L 730.983002 101.162565 
L 737.896396 101.162565 
L 738.031953 88.887273 
L 871.690909 88.887273 
L 871.690909 88.887273 
" style="fill:none;stroke:#8dd3c7;stroke-linecap:square;stroke-width:1.5;"/>
   </g>
   <g id="line2d_15">
    <path clip-path="url(#pda5ac856e9)" d="M 161.509091 241.262996 
L 177.911458 241.262996 
L 178.182571 216.006484 
L 178.318128 191.050646 
L 426.658096 191.050646 
L 426.793653 182.605663 
L 471.52738 182.605663 
L 471.662937 175.611753 
L 578.3461 175.611753 
L 578.481657 168.918516 
L 578.617214 168.918516 
L 579.023884 165.781062 
L 608.710812 165.781062 
L 608.846369 154.486224 
L 612.913072 154.486224 
L 613.048628 127.451822 
L 620.368693 127.451822 
L 620.50425 120.693221 
L 639.075524 120.693221 
L 639.211081 108.234911 
L 642.6 108.234911 
L 642.735557 106.574674 
L 672.015815 106.574674 
L 672.151372 101.450165 
L 730.847445 101.450165 
L 730.983002 101.162565 
L 737.896396 101.162565 
L 738.031953 88.887273 
L 871.690909 88.887273 
L 871.690909 88.887273 
" style="fill:none;stroke:#feffb3;stroke-linecap:square;stroke-width:1.5;"/>
   </g>
   <g id="line2d_16">
    <path clip-path="url(#pda5ac856e9)" d="M 161.509091 314.153915 
L 162.457988 314.153915 
L 162.593545 319.520849 
L 163.542442 319.520849 
L 163.677999 324.718425 
L 164.626896 324.718425 
L 164.762453 329.751989 
L 165.71135 329.751989 
L 165.846907 334.626716 
L 166.795804 334.626716 
L 166.931361 339.347619 
L 167.880258 339.347619 
L 168.015815 343.91955 
L 168.964712 343.91955 
L 169.100269 348.347212 
L 170.049166 348.347212 
L 170.184723 352.635156 
L 171.13362 352.635156 
L 171.269177 356.787792 
L 172.218074 356.787792 
L 172.353631 360.809389 
L 173.302528 360.809389 
L 173.438085 364.704083 
L 174.386982 364.704083 
L 174.522539 368.475877 
L 175.471436 368.475877 
L 175.606993 372.12865 
L 176.55589 372.12865 
L 176.691447 375.666157 
L 177.640344 375.666157 
L 177.775901 379.092037 
L 178.724798 379.092037 
L 178.860355 382.409811 
L 179.809252 382.409811 
L 179.944809 385.622891 
L 180.893706 385.622891 
L 181.029263 388.73458 
L 181.97816 388.73458 
L 182.113717 391.748078 
L 183.062614 391.748078 
L 183.198171 394.666484 
L 184.147068 394.666484 
L 184.282625 397.492797 
L 185.231522 397.492797 
L 185.367079 400.229925 
L 186.315976 400.229925 
L 186.451533 402.880681 
L 187.40043 402.880681 
L 187.535987 405.447791 
L 188.484884 405.447791 
L 188.620441 407.933894 
L 189.569338 407.933894 
L 189.704895 410.341547 
L 190.653792 410.341547 
L 190.789349 412.673225 
L 191.738246 412.673225 
L 191.873803 414.931325 
L 192.8227 414.931325 
L 192.958257 417.11817 
L 193.907154 417.11817 
L 194.042711 419.236008 
L 194.991608 419.236008 
L 195.127165 421.287016 
L 196.076062 421.287016 
L 196.211619 423.273304 
L 197.160516 423.273304 
L 197.296073 425.196913 
L 198.24497 425.196913 
L 198.380527 427.059822 
L 199.329424 427.059822 
L 199.464981 428.863945 
L 200.413878 428.863945 
L 200.549435 430.611138 
L 201.498332 430.611138 
L 201.633889 432.303198 
L 202.582786 432.303198 
L 202.718343 433.941864 
L 203.66724 433.941864 
L 203.802797 435.52882 
L 204.751694 435.52882 
L 204.887251 437.0657 
L 205.836148 437.0657 
L 205.971705 438.554082 
L 206.920602 438.554082 
L 207.056159 439.995497 
L 208.005056 439.995497 
L 208.140613 441.391428 
L 209.08951 441.391428 
L 209.225067 442.74331 
L 210.173964 442.74331 
L 210.309521 444.052532 
L 211.258419 444.052532 
L 211.393975 445.320441 
L 212.342873 445.320441 
L 212.478429 446.54834 
L 213.427327 446.54834 
L 213.562883 447.737492 
L 214.511781 447.737492 
L 214.647337 448.88912 
L 215.596235 448.88912 
L 215.731791 450.004407 
L 216.680689 450.004407 
L 216.816245 451.084501 
L 217.765143 451.084501 
L 217.900699 452.130512 
L 218.849597 452.130512 
L 218.985153 453.143516 
L 219.934051 453.143516 
L 220.069607 454.124554 
L 221.018505 454.124554 
L 221.154061 455.074634 
L 222.102959 455.074634 
L 222.238515 455.994734 
L 223.187413 455.994734 
L 223.322969 456.8858 
L 224.271867 456.8858 
L 224.407423 457.748748 
L 225.356321 457.748748 
L 225.491877 458.584465 
L 226.440775 458.584465 
L 226.576331 459.39381 
L 227.525229 459.39381 
L 227.660785 460.177616 
L 228.609683 460.177616 
L 228.745239 460.936689 
L 229.694137 460.936689 
L 229.829693 461.671809 
L 230.778591 461.671809 
L 230.914147 462.383731 
L 231.863045 462.383731 
L 231.998601 463.073189 
L 232.947499 463.073189 
L 233.083055 463.74089 
L 234.031953 463.74089 
L 234.167509 464.387522 
L 235.116407 464.387522 
L 235.251963 465.013748 
L 236.200861 465.013748 
L 236.336417 465.620214 
L 237.285315 465.620214 
L 237.420871 466.207542 
L 238.369769 466.207542 
L 238.505325 466.776337 
L 239.454223 466.776337 
L 239.589779 467.327184 
L 240.538677 467.327184 
L 240.674233 467.860648 
L 241.623131 467.860648 
L 241.758687 468.377278 
L 242.707585 468.377278 
L 242.843141 468.877606 
L 243.792039 468.877606 
L 243.927595 469.362145 
L 244.876493 469.362145 
L 245.012049 469.831395 
L 245.960947 469.831395 
L 246.096503 470.285837 
L 247.045401 470.285837 
L 247.180958 470.725939 
L 248.129855 470.725939 
L 248.265412 471.152153 
L 249.214309 471.152153 
L 249.349866 471.564918 
L 250.298763 471.564918 
L 250.43432 471.964658 
L 251.383217 471.964658 
L 251.518774 472.351784 
L 252.467671 472.351784 
L 252.603228 472.726694 
L 253.552125 472.726694 
L 253.687682 473.089773 
L 254.636579 473.089773 
L 254.772136 473.441396 
L 255.721033 473.441396 
L 255.85659 473.781922 
L 256.805487 473.781922 
L 256.941044 474.111703 
L 257.889941 474.111703 
L 258.025498 474.431078 
L 258.974395 474.431078 
L 259.109952 474.740374 
L 260.058849 474.740374 
L 260.194406 475.039911 
L 261.143303 475.039911 
L 261.27886 475.329996 
L 262.227757 475.329996 
L 262.363314 475.610926 
L 263.312211 475.610926 
L 263.447768 475.882992 
L 264.396665 475.882992 
L 264.532222 476.146473 
L 265.481119 476.146473 
L 265.616676 476.401639 
L 266.565573 476.401639 
L 266.70113 476.648753 
L 267.650027 476.648753 
L 267.785584 476.88807 
L 268.734481 476.88807 
L 268.870038 477.119835 
L 269.818935 477.119835 
L 269.954492 477.344286 
L 270.903389 477.344286 
L 271.038946 477.561655 
L 271.987843 477.561655 
L 272.1234 477.772164 
L 273.072297 477.772164 
L 273.207854 477.976031 
L 274.156751 477.976031 
L 274.292308 478.173465 
L 275.241205 478.173465 
L 275.512318 478.364668 
L 276.325659 478.364668 
L 276.596772 478.549838 
L 277.410113 478.549838 
L 277.681226 478.729165 
L 278.494567 478.729165 
L 278.76568 478.902833 
L 279.579021 478.902833 
L 279.850134 479.071021 
L 280.663475 479.071021 
L 280.934588 479.233901 
L 281.747929 479.233901 
L 282.019042 479.391642 
L 282.832383 479.391642 
L 283.103497 479.544405 
L 283.916837 479.544405 
L 284.187951 479.692348 
L 285.001291 479.692348 
L 285.272405 479.835622 
L 286.085745 479.835622 
L 286.356859 479.974375 
L 287.170199 479.974375 
L 287.441313 480.10875 
L 288.254653 480.10875 
L 288.525767 480.238884 
L 289.339107 480.238884 
L 289.610221 480.364912 
L 290.423561 480.364912 
L 290.694675 480.486964 
L 291.508015 480.486964 
L 291.779129 480.605163 
L 292.592469 480.605163 
L 292.863583 480.719633 
L 294.761377 480.830491 
L 295.032491 480.93785 
L 296.930285 481.041822 
L 297.201399 481.142513 
L 299.099193 481.240026 
L 299.370307 481.334463 
L 301.268101 481.425919 
L 301.539215 481.514489 
L 303.437009 481.600265 
L 303.708123 481.683334 
L 305.605917 481.763781 
L 305.877031 481.84169 
L 307.774825 481.917141 
L 308.045939 481.990211 
L 309.943733 482.060974 
L 310.214847 482.129505 
L 312.112641 482.195874 
L 312.383755 482.260148 
L 314.281549 482.322394 
L 314.688219 482.382675 
L 316.450457 482.441055 
L 316.857127 482.497592 
L 319.703819 482.605371 
L 320.11049 482.656723 
L 322.957181 482.754617 
L 323.363852 482.80126 
L 326.210543 482.890176 
L 326.617214 482.932541 
L 329.463905 483.013302 
L 330.006132 483.051782 
L 333.801721 483.160087 
L 334.343948 483.193935 
L 338.139537 483.289204 
L 338.681764 483.318977 
L 343.561807 483.428967 
L 344.239591 483.454331 
L 348.984077 483.548028 
L 349.797418 483.569634 
L 355.490802 483.667858 
L 356.439699 483.685683 
L 364.166434 483.795663 
L 365.522001 483.822811 
L 376.095428 483.925565 
L 377.857665 483.944645 
L 394.531146 484.054638 
L 397.513394 484.070971 
L 436.824852 484.18173 
L 447.262722 484.195719 
L 871.690909 484.232727 
L 871.690909 484.232727 
" style="fill:none;stroke:#bfbbd9;stroke-linecap:square;stroke-width:1.5;"/>
   </g>
   <g id="patch_3">
    <path d="M 126 504 
L 126 69.12 
" style="fill:none;stroke:#ffffff;stroke-linecap:square;stroke-linejoin:miter;stroke-width:0.8;"/>
   </g>
   <g id="patch_4">
    <path d="M 907.2 504 
L 907.2 69.12 
" style="fill:none;stroke:#ffffff;stroke-linecap:square;stroke-linejoin:miter;stroke-width:0.8;"/>
   </g>
   <g id="patch_5">
    <path d="M 126 504 
L 907.2 504 
" style="fill:none;stroke:#ffffff;stroke-linecap:square;stroke-linejoin:miter;stroke-width:0.8;"/>
   </g>
   <g id="patch_6">
    <path d="M 126 69.12 
L 907.2 69.12 
" style="fill:none;stroke:#ffffff;stroke-linecap:square;stroke-linejoin:miter;stroke-width:0.8;"/>
   </g>
   <g id="text_15">
    <!-- instance 9 with error 0.009433344251555842 -->
    <g style="fill:#ffffff;" transform="translate(378.046875 63.12)scale(0.12 -0.12)">
     <defs>
      <path d="M 2834 3397 
L 2834 2853 
Q 2591 2978 2328 3040 
Q 2066 3103 1784 3103 
Q 1356 3103 1142 2972 
Q 928 2841 928 2578 
Q 928 2378 1081 2264 
Q 1234 2150 1697 2047 
L 1894 2003 
Q 2506 1872 2764 1633 
Q 3022 1394 3022 966 
Q 3022 478 2636 193 
Q 2250 -91 1575 -91 
Q 1294 -91 989 -36 
Q 684 19 347 128 
L 347 722 
Q 666 556 975 473 
Q 1284 391 1588 391 
Q 1994 391 2212 530 
Q 2431 669 2431 922 
Q 2431 1156 2273 1281 
Q 2116 1406 1581 1522 
L 1381 1569 
Q 847 1681 609 1914 
Q 372 2147 372 2553 
Q 372 3047 722 3315 
Q 1072 3584 1716 3584 
Q 2034 3584 2315 3537 
Q 2597 3491 2834 3397 
z
" id="DejaVuSans-73" transform="scale(0.015625)"/>
      <path d="M 3122 3366 
L 3122 2828 
Q 2878 2963 2633 3030 
Q 2388 3097 2138 3097 
Q 1578 3097 1268 2742 
Q 959 2388 959 1747 
Q 959 1106 1268 751 
Q 1578 397 2138 397 
Q 2388 397 2633 464 
Q 2878 531 3122 666 
L 3122 134 
Q 2881 22 2623 -34 
Q 2366 -91 2075 -91 
Q 1284 -91 818 406 
Q 353 903 353 1747 
Q 353 2603 823 3093 
Q 1294 3584 2113 3584 
Q 2378 3584 2631 3529 
Q 2884 3475 3122 3366 
z
" id="DejaVuSans-63" transform="scale(0.015625)"/>
      <path id="DejaVuSans-20" transform="scale(0.015625)"/>
      <path d="M 703 97 
L 703 672 
Q 941 559 1184 500 
Q 1428 441 1663 441 
Q 2288 441 2617 861 
Q 2947 1281 2994 2138 
Q 2813 1869 2534 1725 
Q 2256 1581 1919 1581 
Q 1219 1581 811 2004 
Q 403 2428 403 3163 
Q 403 3881 828 4315 
Q 1253 4750 1959 4750 
Q 2769 4750 3195 4129 
Q 3622 3509 3622 2328 
Q 3622 1225 3098 567 
Q 2575 -91 1691 -91 
Q 1453 -91 1209 -44 
Q 966 3 703 97 
z
M 1959 2075 
Q 2384 2075 2632 2365 
Q 2881 2656 2881 3163 
Q 2881 3666 2632 3958 
Q 2384 4250 1959 4250 
Q 1534 4250 1286 3958 
Q 1038 3666 1038 3163 
Q 1038 2656 1286 2365 
Q 1534 2075 1959 2075 
z
" id="DejaVuSans-39" transform="scale(0.015625)"/>
      <path d="M 269 3500 
L 844 3500 
L 1563 769 
L 2278 3500 
L 2956 3500 
L 3675 769 
L 4391 3500 
L 4966 3500 
L 4050 0 
L 3372 0 
L 2619 2869 
L 1863 0 
L 1184 0 
L 269 3500 
z
" id="DejaVuSans-77" transform="scale(0.015625)"/>
      <path d="M 3513 2113 
L 3513 0 
L 2938 0 
L 2938 2094 
Q 2938 2591 2744 2837 
Q 2550 3084 2163 3084 
Q 1697 3084 1428 2787 
Q 1159 2491 1159 1978 
L 1159 0 
L 581 0 
L 581 4863 
L 1159 4863 
L 1159 2956 
Q 1366 3272 1645 3428 
Q 1925 3584 2291 3584 
Q 2894 3584 3203 3211 
Q 3513 2838 3513 2113 
z
" id="DejaVuSans-68" transform="scale(0.015625)"/>
      <path d="M 684 794 
L 1344 794 
L 1344 0 
L 684 0 
L 684 794 
z
" id="DejaVuSans-2e" transform="scale(0.015625)"/>
      <path d="M 2034 2216 
Q 1584 2216 1326 1975 
Q 1069 1734 1069 1313 
Q 1069 891 1326 650 
Q 1584 409 2034 409 
Q 2484 409 2743 651 
Q 3003 894 3003 1313 
Q 3003 1734 2745 1975 
Q 2488 2216 2034 2216 
z
M 1403 2484 
Q 997 2584 770 2862 
Q 544 3141 544 3541 
Q 544 4100 942 4425 
Q 1341 4750 2034 4750 
Q 2731 4750 3128 4425 
Q 3525 4100 3525 3541 
Q 3525 3141 3298 2862 
Q 3072 2584 2669 2484 
Q 3125 2378 3379 2068 
Q 3634 1759 3634 1313 
Q 3634 634 3220 271 
Q 2806 -91 2034 -91 
Q 1263 -91 848 271 
Q 434 634 434 1313 
Q 434 1759 690 2068 
Q 947 2378 1403 2484 
z
M 1172 3481 
Q 1172 3119 1398 2916 
Q 1625 2713 2034 2713 
Q 2441 2713 2670 2916 
Q 2900 3119 2900 3481 
Q 2900 3844 2670 4047 
Q 2441 4250 2034 4250 
Q 1625 4250 1398 4047 
Q 1172 3844 1172 3481 
z
" id="DejaVuSans-38" transform="scale(0.015625)"/>
     </defs>
     <use xlink:href="#DejaVuSans-69"/>
     <use x="27.783203" xlink:href="#DejaVuSans-6e"/>
     <use x="91.162109" xlink:href="#DejaVuSans-73"/>
     <use x="143.261719" xlink:href="#DejaVuSans-74"/>
     <use x="182.470703" xlink:href="#DejaVuSans-61"/>
     <use x="243.75" xlink:href="#DejaVuSans-6e"/>
     <use x="307.128906" xlink:href="#DejaVuSans-63"/>
     <use x="362.109375" xlink:href="#DejaVuSans-65"/>
     <use x="423.632812" xlink:href="#DejaVuSans-20"/>
     <use x="455.419922" xlink:href="#DejaVuSans-39"/>
     <use x="519.042969" xlink:href="#DejaVuSans-20"/>
     <use x="550.830078" xlink:href="#DejaVuSans-77"/>
     <use x="632.617188" xlink:href="#DejaVuSans-69"/>
     <use x="660.400391" xlink:href="#DejaVuSans-74"/>
     <use x="699.609375" xlink:href="#DejaVuSans-68"/>
     <use x="762.988281" xlink:href="#DejaVuSans-20"/>
     <use x="794.775391" xlink:href="#DejaVuSans-65"/>
     <use x="856.298828" xlink:href="#DejaVuSans-72"/>
     <use x="895.662109" xlink:href="#DejaVuSans-72"/>
     <use x="934.525391" xlink:href="#DejaVuSans-6f"/>
     <use x="995.707031" xlink:href="#DejaVuSans-72"/>
     <use x="1036.820312" xlink:href="#DejaVuSans-20"/>
     <use x="1068.607422" xlink:href="#DejaVuSans-30"/>
     <use x="1132.230469" xlink:href="#DejaVuSans-2e"/>
     <use x="1164.017578" xlink:href="#DejaVuSans-30"/>
     <use x="1227.640625" xlink:href="#DejaVuSans-30"/>
     <use x="1291.263672" xlink:href="#DejaVuSans-39"/>
     <use x="1354.886719" xlink:href="#DejaVuSans-34"/>
     <use x="1418.509766" xlink:href="#DejaVuSans-33"/>
     <use x="1482.132812" xlink:href="#DejaVuSans-33"/>
     <use x="1545.755859" xlink:href="#DejaVuSans-33"/>
     <use x="1609.378906" xlink:href="#DejaVuSans-34"/>
     <use x="1673.001953" xlink:href="#DejaVuSans-34"/>
     <use x="1736.625" xlink:href="#DejaVuSans-32"/>
     <use x="1800.248047" xlink:href="#DejaVuSans-35"/>
     <use x="1863.871094" xlink:href="#DejaVuSans-31"/>
     <use x="1927.494141" xlink:href="#DejaVuSans-35"/>
     <use x="1991.117188" xlink:href="#DejaVuSans-35"/>
     <use x="2054.740234" xlink:href="#DejaVuSans-35"/>
     <use x="2118.363281" xlink:href="#DejaVuSans-38"/>
     <use x="2181.986328" xlink:href="#DejaVuSans-34"/>
     <use x="2245.609375" xlink:href="#DejaVuSans-32"/>
    </g>
   </g>
   <g id="legend_1">
    <g id="patch_7">
     <path d="M 805.348438 499 
L 900.2 499 
Q 902.2 499 902.2 497 
L 902.2 453.965625 
Q 902.2 451.965625 900.2 451.965625 
L 805.348438 451.965625 
Q 803.348438 451.965625 803.348438 453.965625 
L 803.348438 497 
Q 803.348438 499 805.348438 499 
z
" style="opacity:0.8;stroke:#cccccc;stroke-linejoin:miter;"/>
    </g>
    <g id="line2d_17">
     <path d="M 807.348438 460.064062 
L 827.348438 460.064062 
" style="fill:none;stroke:#8dd3c7;stroke-linecap:square;stroke-width:1.5;"/>
    </g>
    <g id="line2d_18"/>
    <g id="text_16">
     <!-- cost -->
     <g style="fill:#ffffff;" transform="translate(835.348438 463.564062)scale(0.1 -0.1)">
      <use xlink:href="#DejaVuSans-63"/>
      <use x="54.980469" xlink:href="#DejaVuSans-6f"/>
      <use x="116.162109" xlink:href="#DejaVuSans-73"/>
      <use x="168.261719" xlink:href="#DejaVuSans-74"/>
     </g>
    </g>
    <g id="line2d_19">
     <path d="M 807.348438 474.742188 
L 827.348438 474.742188 
" style="fill:none;stroke:#feffb3;stroke-linecap:square;stroke-width:1.5;"/>
    </g>
    <g id="line2d_20"/>
    <g id="text_17">
     <!-- best cost -->
     <g style="fill:#ffffff;" transform="translate(835.348438 478.242188)scale(0.1 -0.1)">
      <defs>
       <path d="M 3116 1747 
Q 3116 2381 2855 2742 
Q 2594 3103 2138 3103 
Q 1681 3103 1420 2742 
Q 1159 2381 1159 1747 
Q 1159 1113 1420 752 
Q 1681 391 2138 391 
Q 2594 391 2855 752 
Q 3116 1113 3116 1747 
z
M 1159 2969 
Q 1341 3281 1617 3432 
Q 1894 3584 2278 3584 
Q 2916 3584 3314 3078 
Q 3713 2572 3713 1747 
Q 3713 922 3314 415 
Q 2916 -91 2278 -91 
Q 1894 -91 1617 61 
Q 1341 213 1159 525 
L 1159 0 
L 581 0 
L 581 4863 
L 1159 4863 
L 1159 2969 
z
" id="DejaVuSans-62" transform="scale(0.015625)"/>
      </defs>
      <use xlink:href="#DejaVuSans-62"/>
      <use x="63.476562" xlink:href="#DejaVuSans-65"/>
      <use x="125" xlink:href="#DejaVuSans-73"/>
      <use x="177.099609" xlink:href="#DejaVuSans-74"/>
      <use x="216.308594" xlink:href="#DejaVuSans-20"/>
      <use x="248.095703" xlink:href="#DejaVuSans-63"/>
      <use x="303.076172" xlink:href="#DejaVuSans-6f"/>
      <use x="364.257812" xlink:href="#DejaVuSans-73"/>
      <use x="416.357422" xlink:href="#DejaVuSans-74"/>
     </g>
    </g>
    <g id="line2d_21">
     <path d="M 807.348438 489.420313 
L 827.348438 489.420313 
" style="fill:none;stroke:#bfbbd9;stroke-linecap:square;stroke-width:1.5;"/>
    </g>
    <g id="line2d_22"/>
    <g id="text_18">
     <!-- temperature -->
     <g style="fill:#ffffff;" transform="translate(835.348438 492.920313)scale(0.1 -0.1)">
      <defs>
       <path d="M 3328 2828 
Q 3544 3216 3844 3400 
Q 4144 3584 4550 3584 
Q 5097 3584 5394 3201 
Q 5691 2819 5691 2113 
L 5691 0 
L 5113 0 
L 5113 2094 
Q 5113 2597 4934 2840 
Q 4756 3084 4391 3084 
Q 3944 3084 3684 2787 
Q 3425 2491 3425 1978 
L 3425 0 
L 2847 0 
L 2847 2094 
Q 2847 2600 2669 2842 
Q 2491 3084 2119 3084 
Q 1678 3084 1418 2786 
Q 1159 2488 1159 1978 
L 1159 0 
L 581 0 
L 581 3500 
L 1159 3500 
L 1159 2956 
Q 1356 3278 1631 3431 
Q 1906 3584 2284 3584 
Q 2666 3584 2933 3390 
Q 3200 3197 3328 2828 
z
" id="DejaVuSans-6d" transform="scale(0.015625)"/>
       <path d="M 1159 525 
L 1159 -1331 
L 581 -1331 
L 581 3500 
L 1159 3500 
L 1159 2969 
Q 1341 3281 1617 3432 
Q 1894 3584 2278 3584 
Q 2916 3584 3314 3078 
Q 3713 2572 3713 1747 
Q 3713 922 3314 415 
Q 2916 -91 2278 -91 
Q 1894 -91 1617 61 
Q 1341 213 1159 525 
z
M 3116 1747 
Q 3116 2381 2855 2742 
Q 2594 3103 2138 3103 
Q 1681 3103 1420 2742 
Q 1159 2381 1159 1747 
Q 1159 1113 1420 752 
Q 1681 391 2138 391 
Q 2594 391 2855 752 
Q 3116 1113 3116 1747 
z
" id="DejaVuSans-70" transform="scale(0.015625)"/>
       <path d="M 544 1381 
L 544 3500 
L 1119 3500 
L 1119 1403 
Q 1119 906 1312 657 
Q 1506 409 1894 409 
Q 2359 409 2629 706 
Q 2900 1003 2900 1516 
L 2900 3500 
L 3475 3500 
L 3475 0 
L 2900 0 
L 2900 538 
Q 2691 219 2414 64 
Q 2138 -91 1772 -91 
Q 1169 -91 856 284 
Q 544 659 544 1381 
z
M 1991 3584 
L 1991 3584 
z
" id="DejaVuSans-75" transform="scale(0.015625)"/>
      </defs>
      <use xlink:href="#DejaVuSans-74"/>
      <use x="39.208984" xlink:href="#DejaVuSans-65"/>
      <use x="100.732422" xlink:href="#DejaVuSans-6d"/>
      <use x="198.144531" xlink:href="#DejaVuSans-70"/>
      <use x="261.621094" xlink:href="#DejaVuSans-65"/>
      <use x="323.144531" xlink:href="#DejaVuSans-72"/>
      <use x="364.257812" xlink:href="#DejaVuSans-61"/>
      <use x="425.537109" xlink:href="#DejaVuSans-74"/>
      <use x="464.746094" xlink:href="#DejaVuSans-75"/>
      <use x="528.125" xlink:href="#DejaVuSans-72"/>
      <use x="566.988281" xlink:href="#DejaVuSans-65"/>
     </g>
    </g>
   </g>
  </g>
 </g>
 <defs>
  <clipPath id="pda5ac856e9">
   <rect height="434.88" width="781.2" x="126" y="69.12"/>
  </clipPath>
 </defs>
</svg>
