<?xml version="1.0" encoding="utf-8" standalone="no"?>
<!DOCTYPE svg PUBLIC "-//W3C//DTD SVG 1.1//EN"
  "http://www.w3.org/Graphics/SVG/1.1/DTD/svg11.dtd">
<svg height="576pt" version="1.1" viewBox="0 0 1008 576" width="1008pt" xmlns="http://www.w3.org/2000/svg" xmlns:xlink="http://www.w3.org/1999/xlink">
 <metadata>
  <rdf:RDF xmlns:cc="http://creativecommons.org/ns#" xmlns:dc="http://purl.org/dc/elements/1.1/" xmlns:rdf="http://www.w3.org/1999/02/22-rdf-syntax-ns#">
   <cc:Work>
    <dc:type rdf:resource="http://purl.org/dc/dcmitype/StillImage"/>
    <dc:date>2022-01-07T00:38:48.527849</dc:date>
    <dc:format>image/svg+xml</dc:format>
    <dc:creator>
     <cc:Agent>
      <dc:title>Matplotlib v3.4.3, https://matplotlib.org/</dc:title>
     </cc:Agent>
    </dc:creator>
   </cc:Work>
  </rdf:RDF>
 </metadata>
 <defs>
  <style type="text/css">*{stroke-linecap:butt;stroke-linejoin:round;}</style>
 </defs>
 <g id="figure_1">
  <g id="patch_1">
   <path d="M 0 576 
L 1008 576 
L 1008 0 
L 0 0 
z
"/>
  </g>
  <g id="axes_1">
   <g id="patch_2">
    <path d="M 126 504 
L 907.2 504 
L 907.2 69.12 
L 126 69.12 
z
"/>
   </g>
   <g id="matplotlib.axis_1">
    <g id="xtick_1">
     <g id="line2d_1">
      <defs>
       <path d="M 0 0 
L 0 3.5 
" id="m3ef8c6ecf8" style="stroke:#ffffff;stroke-width:0.8;"/>
      </defs>
      <g>
       <use style="fill:#ffffff;stroke:#ffffff;stroke-width:0.8;" x="161.509091" xlink:href="#m3ef8c6ecf8" y="504"/>
      </g>
     </g>
     <g id="text_1">
      <!-- 0 -->
      <g style="fill:#ffffff;" transform="translate(158.327841 518.598438)scale(0.1 -0.1)">
       <defs>
        <path d="M 2034 4250 
Q 1547 4250 1301 3770 
Q 1056 3291 1056 2328 
Q 1056 1369 1301 889 
Q 1547 409 2034 409 
Q 2525 409 2770 889 
Q 3016 1369 3016 2328 
Q 3016 3291 2770 3770 
Q 2525 4250 2034 4250 
z
M 2034 4750 
Q 2819 4750 3233 4129 
Q 3647 3509 3647 2328 
Q 3647 1150 3233 529 
Q 2819 -91 2034 -91 
Q 1250 -91 836 529 
Q 422 1150 422 2328 
Q 422 3509 836 4129 
Q 1250 4750 2034 4750 
z
" id="DejaVuSans-30" transform="scale(0.015625)"/>
       </defs>
       <use xlink:href="#DejaVuSans-30"/>
      </g>
     </g>
    </g>
    <g id="xtick_2">
     <g id="line2d_2">
      <g>
       <use style="fill:#ffffff;stroke:#ffffff;stroke-width:0.8;" x="293.268241" xlink:href="#m3ef8c6ecf8" y="504"/>
      </g>
     </g>
     <g id="text_2">
      <!-- 500 -->
      <g style="fill:#ffffff;" transform="translate(283.724491 518.598438)scale(0.1 -0.1)">
       <defs>
        <path d="M 691 4666 
L 3169 4666 
L 3169 4134 
L 1269 4134 
L 1269 2991 
Q 1406 3038 1543 3061 
Q 1681 3084 1819 3084 
Q 2600 3084 3056 2656 
Q 3513 2228 3513 1497 
Q 3513 744 3044 326 
Q 2575 -91 1722 -91 
Q 1428 -91 1123 -41 
Q 819 9 494 109 
L 494 744 
Q 775 591 1075 516 
Q 1375 441 1709 441 
Q 2250 441 2565 725 
Q 2881 1009 2881 1497 
Q 2881 1984 2565 2268 
Q 2250 2553 1709 2553 
Q 1456 2553 1204 2497 
Q 953 2441 691 2322 
L 691 4666 
z
" id="DejaVuSans-35" transform="scale(0.015625)"/>
       </defs>
       <use xlink:href="#DejaVuSans-35"/>
       <use x="63.623047" xlink:href="#DejaVuSans-30"/>
       <use x="127.246094" xlink:href="#DejaVuSans-30"/>
      </g>
     </g>
    </g>
    <g id="xtick_3">
     <g id="line2d_3">
      <g>
       <use style="fill:#ffffff;stroke:#ffffff;stroke-width:0.8;" x="425.027391" xlink:href="#m3ef8c6ecf8" y="504"/>
      </g>
     </g>
     <g id="text_3">
      <!-- 1000 -->
      <g style="fill:#ffffff;" transform="translate(412.302391 518.598438)scale(0.1 -0.1)">
       <defs>
        <path d="M 794 531 
L 1825 531 
L 1825 4091 
L 703 3866 
L 703 4441 
L 1819 4666 
L 2450 4666 
L 2450 531 
L 3481 531 
L 3481 0 
L 794 0 
L 794 531 
z
" id="DejaVuSans-31" transform="scale(0.015625)"/>
       </defs>
       <use xlink:href="#DejaVuSans-31"/>
       <use x="63.623047" xlink:href="#DejaVuSans-30"/>
       <use x="127.246094" xlink:href="#DejaVuSans-30"/>
       <use x="190.869141" xlink:href="#DejaVuSans-30"/>
      </g>
     </g>
    </g>
    <g id="xtick_4">
     <g id="line2d_4">
      <g>
       <use style="fill:#ffffff;stroke:#ffffff;stroke-width:0.8;" x="556.786541" xlink:href="#m3ef8c6ecf8" y="504"/>
      </g>
     </g>
     <g id="text_4">
      <!-- 1500 -->
      <g style="fill:#ffffff;" transform="translate(544.061541 518.598438)scale(0.1 -0.1)">
       <use xlink:href="#DejaVuSans-31"/>
       <use x="63.623047" xlink:href="#DejaVuSans-35"/>
       <use x="127.246094" xlink:href="#DejaVuSans-30"/>
       <use x="190.869141" xlink:href="#DejaVuSans-30"/>
      </g>
     </g>
    </g>
    <g id="xtick_5">
     <g id="line2d_5">
      <g>
       <use style="fill:#ffffff;stroke:#ffffff;stroke-width:0.8;" x="688.545691" xlink:href="#m3ef8c6ecf8" y="504"/>
      </g>
     </g>
     <g id="text_5">
      <!-- 2000 -->
      <g style="fill:#ffffff;" transform="translate(675.820691 518.598438)scale(0.1 -0.1)">
       <defs>
        <path d="M 1228 531 
L 3431 531 
L 3431 0 
L 469 0 
L 469 531 
Q 828 903 1448 1529 
Q 2069 2156 2228 2338 
Q 2531 2678 2651 2914 
Q 2772 3150 2772 3378 
Q 2772 3750 2511 3984 
Q 2250 4219 1831 4219 
Q 1534 4219 1204 4116 
Q 875 4013 500 3803 
L 500 4441 
Q 881 4594 1212 4672 
Q 1544 4750 1819 4750 
Q 2544 4750 2975 4387 
Q 3406 4025 3406 3419 
Q 3406 3131 3298 2873 
Q 3191 2616 2906 2266 
Q 2828 2175 2409 1742 
Q 1991 1309 1228 531 
z
" id="DejaVuSans-32" transform="scale(0.015625)"/>
       </defs>
       <use xlink:href="#DejaVuSans-32"/>
       <use x="63.623047" xlink:href="#DejaVuSans-30"/>
       <use x="127.246094" xlink:href="#DejaVuSans-30"/>
       <use x="190.869141" xlink:href="#DejaVuSans-30"/>
      </g>
     </g>
    </g>
    <g id="xtick_6">
     <g id="line2d_6">
      <g>
       <use style="fill:#ffffff;stroke:#ffffff;stroke-width:0.8;" x="820.304841" xlink:href="#m3ef8c6ecf8" y="504"/>
      </g>
     </g>
     <g id="text_6">
      <!-- 2500 -->
      <g style="fill:#ffffff;" transform="translate(807.579841 518.598438)scale(0.1 -0.1)">
       <use xlink:href="#DejaVuSans-32"/>
       <use x="63.623047" xlink:href="#DejaVuSans-35"/>
       <use x="127.246094" xlink:href="#DejaVuSans-30"/>
       <use x="190.869141" xlink:href="#DejaVuSans-30"/>
      </g>
     </g>
    </g>
    <g id="text_7">
     <!-- iteration -->
     <g style="fill:#ffffff;" transform="translate(495.477344 532.276562)scale(0.1 -0.1)">
      <defs>
       <path d="M 603 3500 
L 1178 3500 
L 1178 0 
L 603 0 
L 603 3500 
z
M 603 4863 
L 1178 4863 
L 1178 4134 
L 603 4134 
L 603 4863 
z
" id="DejaVuSans-69" transform="scale(0.015625)"/>
       <path d="M 1172 4494 
L 1172 3500 
L 2356 3500 
L 2356 3053 
L 1172 3053 
L 1172 1153 
Q 1172 725 1289 603 
Q 1406 481 1766 481 
L 2356 481 
L 2356 0 
L 1766 0 
Q 1100 0 847 248 
Q 594 497 594 1153 
L 594 3053 
L 172 3053 
L 172 3500 
L 594 3500 
L 594 4494 
L 1172 4494 
z
" id="DejaVuSans-74" transform="scale(0.015625)"/>
       <path d="M 3597 1894 
L 3597 1613 
L 953 1613 
Q 991 1019 1311 708 
Q 1631 397 2203 397 
Q 2534 397 2845 478 
Q 3156 559 3463 722 
L 3463 178 
Q 3153 47 2828 -22 
Q 2503 -91 2169 -91 
Q 1331 -91 842 396 
Q 353 884 353 1716 
Q 353 2575 817 3079 
Q 1281 3584 2069 3584 
Q 2775 3584 3186 3129 
Q 3597 2675 3597 1894 
z
M 3022 2063 
Q 3016 2534 2758 2815 
Q 2500 3097 2075 3097 
Q 1594 3097 1305 2825 
Q 1016 2553 972 2059 
L 3022 2063 
z
" id="DejaVuSans-65" transform="scale(0.015625)"/>
       <path d="M 2631 2963 
Q 2534 3019 2420 3045 
Q 2306 3072 2169 3072 
Q 1681 3072 1420 2755 
Q 1159 2438 1159 1844 
L 1159 0 
L 581 0 
L 581 3500 
L 1159 3500 
L 1159 2956 
Q 1341 3275 1631 3429 
Q 1922 3584 2338 3584 
Q 2397 3584 2469 3576 
Q 2541 3569 2628 3553 
L 2631 2963 
z
" id="DejaVuSans-72" transform="scale(0.015625)"/>
       <path d="M 2194 1759 
Q 1497 1759 1228 1600 
Q 959 1441 959 1056 
Q 959 750 1161 570 
Q 1363 391 1709 391 
Q 2188 391 2477 730 
Q 2766 1069 2766 1631 
L 2766 1759 
L 2194 1759 
z
M 3341 1997 
L 3341 0 
L 2766 0 
L 2766 531 
Q 2569 213 2275 61 
Q 1981 -91 1556 -91 
Q 1019 -91 701 211 
Q 384 513 384 1019 
Q 384 1609 779 1909 
Q 1175 2209 1959 2209 
L 2766 2209 
L 2766 2266 
Q 2766 2663 2505 2880 
Q 2244 3097 1772 3097 
Q 1472 3097 1187 3025 
Q 903 2953 641 2809 
L 641 3341 
Q 956 3463 1253 3523 
Q 1550 3584 1831 3584 
Q 2591 3584 2966 3190 
Q 3341 2797 3341 1997 
z
" id="DejaVuSans-61" transform="scale(0.015625)"/>
       <path d="M 1959 3097 
Q 1497 3097 1228 2736 
Q 959 2375 959 1747 
Q 959 1119 1226 758 
Q 1494 397 1959 397 
Q 2419 397 2687 759 
Q 2956 1122 2956 1747 
Q 2956 2369 2687 2733 
Q 2419 3097 1959 3097 
z
M 1959 3584 
Q 2709 3584 3137 3096 
Q 3566 2609 3566 1747 
Q 3566 888 3137 398 
Q 2709 -91 1959 -91 
Q 1206 -91 779 398 
Q 353 888 353 1747 
Q 353 2609 779 3096 
Q 1206 3584 1959 3584 
z
" id="DejaVuSans-6f" transform="scale(0.015625)"/>
       <path d="M 3513 2113 
L 3513 0 
L 2938 0 
L 2938 2094 
Q 2938 2591 2744 2837 
Q 2550 3084 2163 3084 
Q 1697 3084 1428 2787 
Q 1159 2491 1159 1978 
L 1159 0 
L 581 0 
L 581 3500 
L 1159 3500 
L 1159 2956 
Q 1366 3272 1645 3428 
Q 1925 3584 2291 3584 
Q 2894 3584 3203 3211 
Q 3513 2838 3513 2113 
z
" id="DejaVuSans-6e" transform="scale(0.015625)"/>
      </defs>
      <use xlink:href="#DejaVuSans-69"/>
      <use x="27.783203" xlink:href="#DejaVuSans-74"/>
      <use x="66.992188" xlink:href="#DejaVuSans-65"/>
      <use x="128.515625" xlink:href="#DejaVuSans-72"/>
      <use x="169.628906" xlink:href="#DejaVuSans-61"/>
      <use x="230.908203" xlink:href="#DejaVuSans-74"/>
      <use x="270.117188" xlink:href="#DejaVuSans-69"/>
      <use x="297.900391" xlink:href="#DejaVuSans-6f"/>
      <use x="359.082031" xlink:href="#DejaVuSans-6e"/>
     </g>
    </g>
   </g>
   <g id="matplotlib.axis_2">
    <g id="ytick_1">
     <g id="line2d_7">
      <defs>
       <path d="M 0 0 
L -3.5 0 
" id="m7475c259ab" style="stroke:#ffffff;stroke-width:0.8;"/>
      </defs>
      <g>
       <use style="fill:#ffffff;stroke:#ffffff;stroke-width:0.8;" x="126" xlink:href="#m7475c259ab" y="484.232727"/>
      </g>
     </g>
     <g id="text_8">
      <!-- 0 -->
      <g style="fill:#ffffff;" transform="translate(112.6375 488.031946)scale(0.1 -0.1)">
       <use xlink:href="#DejaVuSans-30"/>
      </g>
     </g>
    </g>
    <g id="ytick_2">
     <g id="line2d_8">
      <g>
       <use style="fill:#ffffff;stroke:#ffffff;stroke-width:0.8;" x="126" xlink:href="#m7475c259ab" y="431.807987"/>
      </g>
     </g>
     <g id="text_9">
      <!-- 5000 -->
      <g style="fill:#ffffff;" transform="translate(93.55 435.607205)scale(0.1 -0.1)">
       <use xlink:href="#DejaVuSans-35"/>
       <use x="63.623047" xlink:href="#DejaVuSans-30"/>
       <use x="127.246094" xlink:href="#DejaVuSans-30"/>
       <use x="190.869141" xlink:href="#DejaVuSans-30"/>
      </g>
     </g>
    </g>
    <g id="ytick_3">
     <g id="line2d_9">
      <g>
       <use style="fill:#ffffff;stroke:#ffffff;stroke-width:0.8;" x="126" xlink:href="#m7475c259ab" y="379.383246"/>
      </g>
     </g>
     <g id="text_10">
      <!-- 10000 -->
      <g style="fill:#ffffff;" transform="translate(87.1875 383.182465)scale(0.1 -0.1)">
       <use xlink:href="#DejaVuSans-31"/>
       <use x="63.623047" xlink:href="#DejaVuSans-30"/>
       <use x="127.246094" xlink:href="#DejaVuSans-30"/>
       <use x="190.869141" xlink:href="#DejaVuSans-30"/>
       <use x="254.492188" xlink:href="#DejaVuSans-30"/>
      </g>
     </g>
    </g>
    <g id="ytick_4">
     <g id="line2d_10">
      <g>
       <use style="fill:#ffffff;stroke:#ffffff;stroke-width:0.8;" x="126" xlink:href="#m7475c259ab" y="326.958505"/>
      </g>
     </g>
     <g id="text_11">
      <!-- 15000 -->
      <g style="fill:#ffffff;" transform="translate(87.1875 330.757724)scale(0.1 -0.1)">
       <use xlink:href="#DejaVuSans-31"/>
       <use x="63.623047" xlink:href="#DejaVuSans-35"/>
       <use x="127.246094" xlink:href="#DejaVuSans-30"/>
       <use x="190.869141" xlink:href="#DejaVuSans-30"/>
       <use x="254.492188" xlink:href="#DejaVuSans-30"/>
      </g>
     </g>
    </g>
    <g id="ytick_5">
     <g id="line2d_11">
      <g>
       <use style="fill:#ffffff;stroke:#ffffff;stroke-width:0.8;" x="126" xlink:href="#m7475c259ab" y="274.533765"/>
      </g>
     </g>
     <g id="text_12">
      <!-- 20000 -->
      <g style="fill:#ffffff;" transform="translate(87.1875 278.332983)scale(0.1 -0.1)">
       <use xlink:href="#DejaVuSans-32"/>
       <use x="63.623047" xlink:href="#DejaVuSans-30"/>
       <use x="127.246094" xlink:href="#DejaVuSans-30"/>
       <use x="190.869141" xlink:href="#DejaVuSans-30"/>
       <use x="254.492188" xlink:href="#DejaVuSans-30"/>
      </g>
     </g>
    </g>
    <g id="ytick_6">
     <g id="line2d_12">
      <g>
       <use style="fill:#ffffff;stroke:#ffffff;stroke-width:0.8;" x="126" xlink:href="#m7475c259ab" y="222.109024"/>
      </g>
     </g>
     <g id="text_13">
      <!-- 25000 -->
      <g style="fill:#ffffff;" transform="translate(87.1875 225.908243)scale(0.1 -0.1)">
       <use xlink:href="#DejaVuSans-32"/>
       <use x="63.623047" xlink:href="#DejaVuSans-35"/>
       <use x="127.246094" xlink:href="#DejaVuSans-30"/>
       <use x="190.869141" xlink:href="#DejaVuSans-30"/>
       <use x="254.492188" xlink:href="#DejaVuSans-30"/>
      </g>
     </g>
    </g>
    <g id="ytick_7">
     <g id="line2d_13">
      <g>
       <use style="fill:#ffffff;stroke:#ffffff;stroke-width:0.8;" x="126" xlink:href="#m7475c259ab" y="169.684283"/>
      </g>
     </g>
     <g id="text_14">
      <!-- 30000 -->
      <g style="fill:#ffffff;" transform="translate(87.1875 173.483502)scale(0.1 -0.1)">
       <defs>
        <path d="M 2597 2516 
Q 3050 2419 3304 2112 
Q 3559 1806 3559 1356 
Q 3559 666 3084 287 
Q 2609 -91 1734 -91 
Q 1441 -91 1130 -33 
Q 819 25 488 141 
L 488 750 
Q 750 597 1062 519 
Q 1375 441 1716 441 
Q 2309 441 2620 675 
Q 2931 909 2931 1356 
Q 2931 1769 2642 2001 
Q 2353 2234 1838 2234 
L 1294 2234 
L 1294 2753 
L 1863 2753 
Q 2328 2753 2575 2939 
Q 2822 3125 2822 3475 
Q 2822 3834 2567 4026 
Q 2313 4219 1838 4219 
Q 1578 4219 1281 4162 
Q 984 4106 628 3988 
L 628 4550 
Q 988 4650 1302 4700 
Q 1616 4750 1894 4750 
Q 2613 4750 3031 4423 
Q 3450 4097 3450 3541 
Q 3450 3153 3228 2886 
Q 3006 2619 2597 2516 
z
" id="DejaVuSans-33" transform="scale(0.015625)"/>
       </defs>
       <use xlink:href="#DejaVuSans-33"/>
       <use x="63.623047" xlink:href="#DejaVuSans-30"/>
       <use x="127.246094" xlink:href="#DejaVuSans-30"/>
       <use x="190.869141" xlink:href="#DejaVuSans-30"/>
       <use x="254.492188" xlink:href="#DejaVuSans-30"/>
      </g>
     </g>
    </g>
    <g id="ytick_8">
     <g id="line2d_14">
      <g>
       <use style="fill:#ffffff;stroke:#ffffff;stroke-width:0.8;" x="126" xlink:href="#m7475c259ab" y="117.259542"/>
      </g>
     </g>
     <g id="text_15">
      <!-- 35000 -->
      <g style="fill:#ffffff;" transform="translate(87.1875 121.058761)scale(0.1 -0.1)">
       <use xlink:href="#DejaVuSans-33"/>
       <use x="63.623047" xlink:href="#DejaVuSans-35"/>
       <use x="127.246094" xlink:href="#DejaVuSans-30"/>
       <use x="190.869141" xlink:href="#DejaVuSans-30"/>
       <use x="254.492188" xlink:href="#DejaVuSans-30"/>
      </g>
     </g>
    </g>
   </g>
   <g id="line2d_15">
    <path clip-path="url(#pe35e289d1a)" d="M 161.509091 223.283338 
L 161.772609 240.122165 
L 162.036128 242.711947 
L 162.299646 256.23753 
L 162.563164 243.068435 
L 162.826682 236.368553 
L 163.090201 233.778771 
L 163.353719 254.507514 
L 163.617237 244.567783 
L 164.407792 277.196941 
L 164.671311 269.217896 
L 164.934829 291.917809 
L 165.198347 281.925653 
L 165.461865 265.086826 
L 165.988902 304.814295 
L 166.515939 328.279609 
L 166.779457 345.118435 
L 167.042975 320.384443 
L 167.306494 345.118435 
L 167.570012 339.687232 
L 167.83353 319.923105 
L 168.097048 325.658372 
L 168.360567 345.422499 
L 169.151122 285.5849 
L 169.678158 322.345128 
L 170.205195 340.316329 
L 170.468713 275.026557 
L 170.732231 274.114367 
L 170.99575 292.777574 
L 171.259268 298.512841 
L 171.522786 309.312338 
L 171.786305 300.882439 
L 172.049823 276.567844 
L 172.313341 283.404031 
L 173.103896 226.072334 
L 173.367414 253.500959 
L 173.630933 249.149705 
L 173.894451 272.877143 
L 174.157969 253.731627 
L 174.421488 243.739472 
L 174.685006 259.917747 
L 174.948524 262.727713 
L 175.212043 271.157611 
L 175.739079 316.138039 
L 176.002597 309.301853 
L 176.266116 285.574415 
L 176.793152 327.503723 
L 177.056671 313.978139 
L 177.583707 266.019987 
L 177.847226 289.244147 
L 178.110744 294.224497 
L 178.63778 279.650419 
L 178.901299 285.385686 
L 179.428335 245.700157 
L 179.691854 228.86133 
L 179.955372 252.085491 
L 180.21889 249.495708 
L 180.482409 249.013401 
L 180.745927 240.583502 
L 181.009445 244.148385 
L 181.272963 254.14054 
L 181.536482 269.993782 
L 181.8 267.330605 
L 182.063518 244.630692 
L 182.327037 234.638537 
L 182.590555 211.414377 
L 182.854073 238.392148 
L 183.117591 222.538907 
L 183.38111 225.191599 
L 183.644628 240.258469 
L 183.908146 216.531031 
L 184.171665 232.384273 
L 184.698701 198.308192 
L 185.225738 238.622817 
L 185.489256 215.922904 
L 185.752774 222.759091 
L 186.016293 217.936014 
L 186.279811 235.424908 
L 186.543329 231.346263 
L 186.806848 209.348842 
L 187.070366 225.810211 
L 187.597403 191.734129 
L 188.124439 236.190309 
L 188.387957 223.021214 
L 188.914994 246.182465 
L 189.178512 225.93603 
L 189.442031 233.915075 
L 189.705549 216.457637 
L 189.969067 206.465481 
L 190.232586 213.186333 
L 190.496104 245.930826 
L 191.286659 301.847054 
L 191.550177 304.510231 
L 192.077214 267.44594 
L 192.340732 260.609753 
L 192.60425 278.224466 
L 192.867769 256.782747 
L 193.131287 280.006907 
L 193.658323 256.940022 
L 193.921842 256.940022 
L 194.18536 265.36992 
L 194.448878 265.36992 
L 194.712397 256.940022 
L 194.975915 263.776208 
L 195.239433 282.921723 
L 195.502952 287.744799 
L 195.76647 296.174698 
L 196.029988 279.335871 
L 196.293506 290.051488 
L 196.557025 269.805053 
L 197.084061 314.78548 
L 197.34758 291.56132 
L 197.611098 280.845703 
L 197.874616 256.111711 
L 198.138135 271.178581 
L 198.665171 282.345051 
L 198.928689 279.681874 
L 199.192208 296.520701 
L 199.455726 293.868009 
L 199.719244 307.393592 
L 199.982763 332.127585 
L 200.246281 342.843202 
L 200.509799 363.005757 
L 200.773318 352.29014 
L 201.300354 318.392303 
L 201.563872 299.246787 
L 201.827391 301.899479 
L 202.090909 314.250748 
L 202.354427 308.515481 
L 202.617946 291.676655 
L 202.881464 294.339832 
L 203.144982 304.331987 
L 203.408501 327.556147 
L 204.462574 259.844352 
L 204.726092 265.579619 
L 204.98961 245.333184 
L 205.253129 239.901981 
L 205.516647 239.901981 
L 206.57072 300.546921 
L 207.361275 234.565142 
L 207.624793 250.743417 
L 207.888312 256.478684 
L 208.415348 211.257102 
L 208.678867 221.249258 
L 208.942385 208.080163 
L 209.205903 222.255813 
L 209.469421 227.078889 
L 209.73294 229.742066 
L 209.996458 222.90588 
L 210.259976 246.633318 
L 210.523495 229.794491 
L 210.787013 224.363288 
L 211.050531 239.430158 
L 211.31405 236.766981 
L 211.577568 259.466894 
L 211.841086 267.896792 
L 212.104604 272.300471 
L 212.368123 261.154971 
L 212.631641 263.818148 
L 212.895159 258.082881 
L 213.158678 235.382968 
L 213.422196 250.806327 
L 213.685714 235.739456 
L 213.949233 213.742035 
L 214.212751 203.74988 
L 214.476269 215.912419 
L 214.739787 221.647686 
L 215.003306 215.912419 
L 215.266824 207.482521 
L 215.530342 217.422252 
L 215.793861 242.156245 
L 216.057379 231.356748 
L 216.320897 255.671343 
L 216.847934 206.622755 
L 217.111452 213.458942 
L 217.37497 203.466786 
L 217.638489 185.852073 
L 217.902007 191.283276 
L 218.165525 173.825838 
L 218.429044 188.892708 
L 218.692562 322.974225 
L 218.95608 333.689842 
L 219.219599 316.851015 
L 219.746635 362.020172 
L 220.010153 366.843248 
L 220.273672 374.822294 
L 220.53719 234.649022 
L 220.800708 261.459034 
L 221.064227 264.143181 
L 221.854782 314.607236 
L 222.1183 322.670161 
L 222.645336 350.874672 
L 222.908855 342.444774 
L 223.172373 319.220614 
L 223.435891 327.650512 
L 223.69941 305.653091 
L 223.962928 297.674045 
L 224.226446 315.131484 
L 224.489965 295.367356 
L 224.753483 284.56786 
L 225.280519 314.554812 
L 225.544038 297.097373 
L 225.807556 307.037104 
L 226.598111 262.371225 
L 227.125148 236.987165 
L 227.388666 212.67257 
L 227.652184 254.067146 
L 227.915702 231.367233 
L 228.179221 241.485208 
L 228.706257 229.836431 
L 229.233294 266.491809 
L 229.760331 304.667505 
L 230.023849 312.646551 
L 230.287367 296.468276 
L 230.550885 302.203543 
L 230.814404 318.381818 
L 231.077922 302.203543 
L 231.604959 341.605978 
L 231.868477 319.608557 
L 232.131995 308.80906 
L 232.395514 292.630785 
L 232.92255 250.701477 
L 233.186068 242.271579 
L 233.449587 255.797162 
L 233.713105 278.497075 
L 233.976623 263.430204 
L 234.240142 255.451159 
L 234.767178 212.588691 
L 235.030697 230.203404 
L 235.294215 220.263673 
L 235.557733 203.802304 
L 235.821251 227.529742 
L 236.08477 235.508788 
L 236.348288 218.051349 
L 236.611806 235.508788 
L 236.875325 218.669961 
L 237.138843 233.736831 
L 237.66588 213.029059 
L 237.929398 221.458957 
L 238.192916 200.384211 
L 238.456434 193.548025 
L 238.719953 209.7263 
L 238.983471 212.389477 
L 239.246989 207.566401 
L 239.774026 247.10514 
L 240.037544 244.441963 
L 240.564581 264.164151 
L 240.828099 261.500974 
L 241.091617 261.920372 
L 241.355136 263.178566 
L 241.618654 268.913832 
L 241.882172 249.149705 
L 242.409209 283.44597 
L 242.672727 275.466925 
L 242.936246 252.767012 
L 243.199764 267.708063 
L 243.463282 273.44333 
L 243.7268 259.917747 
L 243.990319 269.909902 
L 244.253837 250.145775 
L 244.517355 249.841712 
L 244.780874 255.576978 
L 245.044392 272.038347 
L 245.30791 256.971476 
L 245.571429 251.540273 
L 245.834947 288.143227 
L 246.098465 298.942724 
L 246.361983 290.963678 
L 246.625502 313.044979 
L 247.152538 330.240294 
L 247.416057 317.889025 
L 247.679575 296.447306 
L 247.943093 289.59015 
L 248.47013 246.643802 
L 248.733648 268.085521 
L 248.997166 250.470809 
L 249.787721 292.106538 
L 250.05124 282.166807 
L 250.314758 266.313565 
L 250.578276 271.744768 
L 251.368831 218.680446 
L 251.632349 296.090818 
L 252.159386 276.49445 
L 252.422904 284.924348 
L 252.949941 310.518107 
L 253.213459 289.789364 
L 253.476978 307.267773 
L 253.740496 314.103959 
L 254.004014 296.489246 
L 254.531051 334.832701 
L 254.794569 337.422483 
L 255.058087 326.622987 
L 255.848642 345.160375 
L 256.902715 288.373896 
L 257.166234 285.721204 
L 257.69327 243.791897 
L 257.956789 249.338434 
L 258.220307 232.877066 
L 258.747344 281.338496 
L 259.010862 274.50231 
L 259.27438 298.816904 
L 259.537898 304.248108 
L 259.801417 324.012235 
L 260.064935 326.675412 
L 260.328453 333.511598 
L 260.591972 321.160329 
L 260.85549 301.396202 
L 261.382527 322.544342 
L 261.909563 287.377826 
L 262.4366 242.481278 
L 262.700118 258.942647 
L 262.963636 249.002916 
L 263.227155 233.149674 
L 263.490673 250.764387 
L 263.754191 242.785342 
L 264.281228 206.077538 
L 264.544746 213.354092 
L 265.071783 250.061896 
L 265.598819 206.63324 
L 266.125856 234.596597 
L 266.389374 218.135228 
L 266.652893 217.317403 
L 266.916411 220.431432 
L 267.179929 239.576947 
L 267.443447 222.738121 
L 267.706966 296.227122 
L 267.970484 281.894198 
L 268.234002 258.670038 
L 268.497521 264.405305 
L 268.761039 289.139297 
L 269.551594 255.293885 
L 270.07863 227.089374 
L 270.605667 263.671358 
L 270.869185 285.113077 
L 271.132704 262.413164 
L 271.396222 274.764433 
L 271.65974 258.303065 
L 271.923259 282.030502 
L 272.186777 276.295236 
L 272.450295 281.118312 
L 272.713813 300.882439 
L 272.977332 276.148447 
L 273.24085 286.947943 
L 273.767887 273.086842 
L 274.031405 281.065887 
L 274.294923 283.655669 
L 274.82196 238.486513 
L 275.085478 243.917716 
L 275.348996 239.09464 
L 275.612515 236.504858 
L 275.876033 239.09464 
L 276.139551 232.258454 
L 276.40307 219.907185 
L 276.666588 199.178442 
L 276.930106 210.051333 
L 277.193625 200.709245 
L 277.457143 183.870418 
L 277.720661 193.862574 
L 277.984179 187.026387 
L 278.774734 250.15626 
L 279.038253 236.630677 
L 279.301771 245.060575 
L 279.565289 258.586158 
L 279.828808 241.12872 
L 280.619362 300.75662 
L 281.146399 257.369904 
L 281.409917 242.303034 
L 281.673436 239.639857 
L 281.936954 262.33977 
L 282.200472 273.055387 
L 282.727509 310.73829 
L 282.991027 316.169494 
L 283.254545 302.643911 
L 283.518064 280.646489 
L 283.781582 292.997758 
L 284.0451 277.144517 
L 284.308619 296.552156 
L 284.572137 304.971569 
L 284.835655 289.904699 
L 285.099174 310.633441 
L 285.362692 317.469627 
L 285.62621 337.632182 
L 285.889728 332.809106 
L 286.416765 288.856204 
L 286.943802 327.042385 
L 287.20732 329.695077 
L 287.470838 318.89558 
L 287.734357 335.734407 
L 287.997875 325.742251 
L 288.261393 328.332033 
L 288.524911 325.742251 
L 288.78843 303.042339 
L 289.051948 297.307072 
L 289.315466 277.144517 
L 289.578985 274.491825 
L 289.842503 297.191737 
L 290.106021 289.212692 
L 290.36954 286.926973 
L 290.896576 297.632105 
L 291.160094 281.778864 
L 291.687131 310.371317 
L 291.950649 288.373896 
L 292.214168 299.173393 
L 292.477686 289.233662 
L 292.741204 297.212707 
L 293.004723 231.828571 
L 293.268241 249.422314 
L 293.531759 257.401359 
L 293.795277 278.130102 
L 294.058796 288.929598 
L 294.322314 286.266422 
L 294.585832 286.109147 
L 294.849351 308.106568 
L 295.112869 291.6452 
L 295.376387 308.106568 
L 295.903424 321.411968 
L 296.166942 300.683225 
L 296.43046 311.482722 
L 296.693979 288.258562 
L 296.957497 294.979413 
L 297.484534 332.756682 
L 297.748052 321.957185 
L 298.01157 332.756682 
L 298.538607 309.689796 
L 298.802125 293.511521 
L 299.065643 304.227138 
L 299.329162 295.797239 
L 299.59268 314.942755 
L 300.119717 329.757986 
L 300.383235 327.09481 
L 300.646753 343.933636 
L 300.910272 338.502433 
L 301.17379 330.523388 
L 301.437308 313.065949 
L 301.700826 321.044994 
L 301.964345 323.708171 
L 302.227863 333.647902 
L 302.491381 327.912636 
L 302.7549 336.342534 
L 303.545455 275.991172 
L 304.072491 299.508911 
L 304.599528 254.727697 
L 304.863046 271.189066 
L 305.126564 261.19691 
L 305.390083 271.912527 
L 305.917119 238.612332 
L 306.180638 252.137915 
L 306.444156 247.314839 
L 306.707674 264.153666 
L 306.971192 258.418399 
L 307.498229 299.414546 
L 307.761747 296.824764 
L 308.025266 299.414546 
L 308.288784 312.583641 
L 308.552302 318.318908 
L 308.815821 320.982085 
L 309.342857 282.072442 
L 309.606375 279.48266 
L 309.869894 298.628175 
L 310.133412 292.892909 
L 310.660449 252.578283 
L 310.923967 249.925591 
L 311.187485 230.014675 
L 311.451004 231.115594 
L 311.714522 233.883621 
L 312.241558 210.732855 
L 312.505077 233.432768 
L 312.768595 246.224405 
L 313.032113 270.538999 
L 313.295632 273.128781 
L 313.55915 255.514069 
L 314.086187 289.065903 
L 314.349705 295.902089 
L 314.613223 298.565266 
L 314.876741 318.329393 
L 315.14026 323.152469 
L 315.403778 302.906034 
L 315.930815 342.214105 
L 316.194333 318.486667 
L 316.457851 328.426398 
L 316.72137 319.9965 
L 316.984888 317.343808 
L 317.248406 294.119648 
L 317.775443 329.432953 
L 318.038961 352.657113 
L 318.302479 336.803872 
L 318.565998 313.579711 
L 318.829516 338.313704 
L 319.356553 314.84839 
L 319.620071 325.647887 
L 319.883589 320.824811 
L 320.147107 334.350394 
L 320.937662 283.299181 
L 321.201181 288.122257 
L 321.464699 274.596674 
L 322.518772 322.093489 
L 322.78229 315.257303 
L 323.045809 297.799864 
L 323.572845 320.090864 
L 323.836364 317.427687 
L 324.099882 324.263874 
L 324.3634 340.117115 
L 324.626919 326.591532 
L 324.890437 306.345097 
L 325.153955 308.997789 
L 325.94451 269.427595 
L 326.208028 246.727682 
L 326.471547 254.517999 
L 326.735065 277.217911 
L 326.998583 264.866642 
L 327.262102 258.030456 
L 327.52562 255.440674 
L 327.789138 245.448518 
L 328.316175 286.130117 
L 328.579693 266.36599 
L 328.843211 268.955772 
L 329.10673 253.888902 
L 329.370248 251.23621 
L 329.897285 264.950522 
L 330.424321 300.263827 
L 330.687839 310.203558 
L 330.951358 285.469565 
L 331.214876 277.49052 
L 331.478394 299.487941 
L 332.005431 256.101226 
L 332.532468 261.417094 
L 332.795986 239.975375 
L 333.059504 261.417094 
L 333.323022 258.764403 
L 333.586541 268.756558 
L 333.850059 283.246756 
L 334.113577 264.101241 
L 334.377096 280.279516 
L 334.904132 246.21392 
L 335.167651 244.808937 
L 335.431169 254.801092 
L 335.694687 275.047527 
L 335.958205 255.2834 
L 336.221724 249.852197 
L 336.485242 272.552109 
L 336.74876 255.713283 
L 337.012279 262.549469 
L 337.275797 251.833852 
L 337.539315 260.567814 
L 337.802834 245.500943 
L 338.066352 261.962312 
L 338.593388 227.508772 
L 338.856907 224.845595 
L 339.120425 227.498287 
L 339.383943 234.334473 
L 339.647462 254.497029 
L 339.91098 251.907246 
L 340.174498 227.592652 
L 340.438017 217.652921 
L 340.701535 232.719791 
L 340.965053 235.382968 
L 341.228571 220.316098 
L 341.755608 259.697563 
L 342.019126 239.933436 
L 342.282645 263.660873 
L 342.546163 273.600604 
L 342.809681 296.824764 
L 343.0732 273.097327 
L 343.336718 308.714695 
L 343.600236 300.976804 
L 343.863754 311.692421 
L 344.127273 309.039729 
L 344.390791 296.62555 
L 344.654309 296.62555 
L 344.917828 318.622971 
L 345.181346 234.98454 
L 345.444864 243.414438 
L 345.708383 267.729033 
L 345.971901 261.993767 
L 346.235419 275.729049 
L 346.498937 268.892862 
L 346.762456 265.149736 
L 347.025974 281.002978 
L 347.289492 267.833883 
L 347.553011 261.144486 
L 347.816529 280.290001 
L 348.080047 260.043566 
L 348.343566 262.434134 
L 348.607084 287.168127 
L 348.870602 271.314885 
L 349.13412 283.666154 
L 349.397639 278.843078 
L 349.661157 259.078951 
L 349.924675 247.996361 
L 350.188194 256.751292 
L 350.451712 276.997727 
L 350.71523 287.713344 
L 350.978749 303.891619 
L 351.242267 306.481402 
L 351.505785 321.548272 
L 351.769303 316.725196 
L 352.032822 332.578437 
L 352.29634 310.581016 
L 352.823377 295.314932 
L 353.086895 279.136657 
L 353.350413 276.546875 
L 353.613932 259.089436 
L 353.87745 264.520639 
L 354.140968 280.698914 
L 354.668005 260.043566 
L 354.931523 243.204739 
L 355.195041 265.202161 
L 355.45856 267.435455 
L 355.722078 245.438033 
L 356.249115 291.54035 
L 356.512633 272.394835 
L 356.776151 281.055402 
L 357.039669 302.497121 
L 357.303188 299.907339 
L 357.566706 294.172072 
L 357.830224 271.47216 
L 358.093743 316.630831 
L 358.357261 319.283523 
L 358.620779 336.740962 
L 358.884298 324.389693 
L 359.147816 330.12496 
L 359.411334 353.34912 
L 359.674852 346.512934 
L 359.938371 326.266499 
L 360.201889 333.102685 
L 360.465407 312.94013 
L 360.728926 335.640042 
L 360.992444 314.198323 
L 361.255962 308.463057 
L 361.519481 313.286133 
L 361.782999 306.449947 
L 362.046517 306.449947 
L 362.310035 283.750034 
L 362.573554 302.895549 
L 362.837072 300.232372 
L 363.10059 305.967639 
L 363.364109 328.667552 
L 363.627627 304.940114 
L 363.891145 312.85625 
L 364.154664 302.864094 
L 364.6817 325.207519 
L 364.945218 327.870696 
L 365.208737 310.255983 
L 365.472255 330.984725 
L 365.735773 328.321549 
L 365.999292 318.329393 
L 366.26281 342.056831 
L 366.789847 329.254709 
L 367.053365 342.780292 
L 367.580401 301.868024 
L 367.84392 319.482737 
L 368.107438 316.830045 
L 368.370956 336.992601 
L 368.897993 293.55346 
L 369.161511 293.55346 
L 369.688548 271.147126 
L 369.952066 277.983312 
L 370.479103 239.933436 
L 370.742621 245.364639 
L 371.006139 235.424908 
L 371.269658 251.372514 
L 371.796694 298.103928 
L 372.060213 306.082973 
L 372.323731 308.672756 
L 372.587249 303.84968 
L 372.850767 322.995195 
L 373.114286 307.928324 
L 373.377804 305.338542 
L 373.641322 295.398811 
L 374.168359 338.785527 
L 374.431877 353.852397 
L 374.695396 343.860242 
L 374.958914 320.636082 
L 375.222432 330.628237 
L 375.48595 350.874672 
L 375.749469 345.443469 
L 376.276505 309.343792 
L 376.540024 325.050245 
L 376.803542 302.979429 
L 377.06706 312.91916 
L 377.330579 317.742236 
L 377.594097 304.573141 
L 377.857615 320.426383 
L 378.121133 305.359512 
L 378.64817 326.874626 
L 378.911688 347.121061 
L 379.438725 313.820865 
L 379.965762 362.282296 
L 380.22928 370.712194 
L 380.492798 387.551021 
L 380.756316 384.887844 
L 381.019835 360.573249 
L 381.283353 375.640119 
L 381.546871 378.303296 
L 382.864463 294.874564 
L 383.391499 252.714587 
L 383.655018 292.945333 
L 384.445573 343.818302 
L 385.236128 287.157642 
L 385.499646 277.165487 
L 385.763164 256.436744 
L 386.026682 267.29915 
L 386.290201 289.296572 
L 386.817237 247.723752 
L 387.080756 272.038347 
L 387.344274 255.860072 
L 387.607792 279.084232 
L 388.134829 288.824749 
L 388.398347 280.845703 
L 388.661865 256.531109 
L 388.925384 280.258546 
L 389.45242 246.04616 
L 389.715939 261.113031 
L 389.979457 262.801108 
L 390.242975 279.639934 
L 390.506494 282.229716 
L 390.770012 298.082958 
L 391.03353 274.35552 
L 391.297048 278.937443 
L 391.560567 272.101257 
L 391.824085 288.279532 
L 392.087603 266.28211 
L 392.351122 278.633379 
L 392.61464 284.368646 
L 392.878158 261.668733 
L 393.141677 285.983328 
L 393.405195 288.63602 
L 393.668713 306.093458 
L 393.932231 343.587633 
L 394.19575 343.587633 
L 394.459268 333.763237 
L 394.722786 355.204956 
L 395.513341 299.980734 
L 395.77686 293.144547 
L 396.040378 315.84446 
L 396.303896 321.579727 
L 396.567414 238.580877 
L 397.094451 257.810272 
L 397.357969 279.807693 
L 397.621488 279.807693 
L 397.885006 304.122288 
L 398.148524 294.130133 
L 398.412043 296.793309 
L 398.939079 335.849741 
L 399.202597 330.418538 
L 399.466116 327.755361 
L 399.729634 307.508926 
L 399.993152 304.919144 
L 400.256671 325.647887 
L 400.520189 310.581016 
L 400.783707 286.266422 
L 401.310744 267.991157 
L 401.574262 293.731705 
L 401.83778 268.997712 
L 402.364817 247.000291 
L 402.628335 238.371178 
L 402.891854 233.506162 
L 403.155372 241.936061 
L 403.682409 278.539015 
L 403.945927 290.890284 
L 404.209445 285.155017 
L 404.472963 290.58622 
L 404.736482 226.145729 
L 405 248.14315 
L 405.263518 252.840407 
L 405.790555 296.719915 
L 406.054073 309.88901 
L 406.317591 312.478792 
L 406.58111 309.88901 
L 406.844628 319.828741 
L 407.108146 312.562671 
L 407.371665 312.562671 
L 407.635183 323.278288 
L 407.898701 315.299243 
L 408.16222 317.96242 
L 408.425738 331.488003 
L 408.689256 328.824826 
L 408.952774 312.971584 
L 409.216293 289.747424 
L 409.479811 299.687155 
L 409.743329 317.144594 
L 410.006848 314.491902 
L 410.270366 304.499746 
L 410.797403 341.08173 
L 412.378512 232.268939 
L 412.642031 257.244085 
L 412.905549 259.907262 
L 413.169067 265.191676 
L 413.432586 267.781458 
L 413.696104 245.081545 
L 413.959622 240.793201 
L 414.22314 227.812836 
L 415.013695 285.710719 
L 415.277214 268.096006 
L 415.540732 287.860134 
L 415.80425 298.65963 
L 416.067769 301.312322 
L 416.331287 278.088162 
L 416.858323 301.249412 
L 417.121842 276.934818 
L 417.38536 283.771004 
L 417.648878 306.995164 
L 417.912397 301.259897 
L 418.175915 298.596721 
L 418.702952 254.455089 
L 419.229988 292.358176 
L 419.493506 289.705484 
L 420.020543 331.865461 
L 420.284061 323.435563 
L 420.811098 292.515451 
L 421.074616 312.761885 
L 421.338135 302.046268 
L 421.601653 257.044871 
L 421.865171 267.057997 
L 422.128689 258.628098 
L 422.392208 273.139266 
L 422.655726 278.874533 
L 422.919244 270.895488 
L 423.182763 255.828617 
L 423.446281 266.628114 
L 423.709799 284.085552 
L 423.973318 288.908628 
L 424.236836 298.900784 
L 424.763872 265.26507 
L 425.027391 277.616339 
L 425.290909 265.26507 
L 425.817946 218.83772 
L 426.081464 221.133924 
L 426.344982 229.112969 
L 426.608501 221.133924 
L 426.872019 220.033004 
L 427.135537 233.558587 
L 427.399055 230.905895 
L 427.662574 247.744722 
L 427.926092 243.477348 
L 428.18961 295.67142 
L 428.453129 308.305783 
L 428.716647 285.081622 
L 428.980165 242.995041 
L 429.243684 266.722478 
L 429.507202 251.655608 
L 429.77072 255.031761 
L 430.034238 272.646474 
L 430.297757 276.934818 
L 430.561275 252.200825 
L 430.824793 249.327949 
L 431.088312 273.642544 
L 431.615348 297.107858 
L 431.878867 284.756589 
L 432.405903 239.000275 
L 432.93294 278.539015 
L 433.196458 275.875838 
L 433.723495 304.898174 
L 433.987013 296.468276 
L 434.250531 282.942693 
L 434.51405 307.676686 
L 435.041086 262.21395 
L 435.304604 286.947943 
L 435.831641 250.344989 
L 436.095159 237.175894 
L 436.358678 261.490489 
L 436.622196 258.837797 
L 436.885714 286.843094 
L 437.149233 283.645184 
L 437.412751 305.086903 
L 437.676269 317.438172 
L 437.939787 221.721081 
L 438.203306 261.3437 
L 438.466824 278.958413 
L 438.730342 285.794599 
L 439.257379 260.787998 
L 439.520897 262.392195 
L 439.784416 245.930826 
L 440.047934 248.594003 
L 440.57497 285.018713 
L 440.838489 279.283446 
L 441.102007 281.873228 
L 441.365525 291.812959 
L 441.892562 242.764372 
L 442.15608 229.595277 
L 442.419599 229.595277 
L 442.683117 249.516678 
L 442.946635 257.579603 
L 443.210153 276.725119 
L 443.473672 252.997681 
L 443.73719 242.198184 
L 444.000708 265.422345 
L 444.264227 276.221841 
L 444.527745 292.55739 
L 444.791263 319.881165 
L 445.054782 311.451267 
L 445.3183 332.735712 
L 445.581818 322.020095 
L 445.845336 203.980548 
L 446.108855 224.027769 
L 446.372373 211.6765 
L 446.635891 231.440628 
L 446.89941 230.87444 
L 447.162928 211.110313 
L 447.426446 219.540212 
L 447.953483 251.655608 
L 448.217001 258.491794 
L 448.480519 242.313519 
L 448.744038 253.113015 
L 449.007556 250.460324 
L 449.271074 233.998955 
L 449.534593 233.998955 
L 450.325148 288.520685 
L 450.588666 291.110468 
L 450.852184 304.279562 
L 451.115702 301.68978 
L 451.379221 324.389693 
L 451.906257 294.580985 
L 452.169776 294.580985 
L 452.433294 271.881073 
L 452.960331 310.339862 
L 453.223849 333.564023 
L 453.750885 290.072458 
L 454.014404 313.799895 
L 454.54144 277.459065 
L 454.804959 289.810334 
L 455.068477 284.379131 
L 455.331995 292.358176 
L 455.595514 267.624184 
L 455.859032 286.769699 
L 456.12255 250.711962 
L 456.386068 260.651693 
L 456.649587 277.49052 
L 456.913105 260.651693 
L 457.440142 300.337222 
L 457.70366 277.113062 
L 457.967178 293.951888 
L 458.230697 277.773614 
L 458.757733 302.014814 
L 459.021251 277.280821 
L 459.548288 309.878525 
L 459.811806 299.162908 
L 460.075325 323.8969 
L 460.338843 303.734345 
L 460.602361 316.90344 
L 460.86588 312.080364 
L 461.129398 309.490582 
L 461.392916 331.488003 
L 461.656434 321.548272 
L 461.919953 344.772432 
L 462.183471 324.525997 
L 462.446989 327.189174 
L 462.710508 305.747455 
L 462.974026 323.362168 
L 463.237544 306.900799 
L 463.501063 316.84053 
L 463.764581 316.84053 
L 464.028099 319.430312 
L 464.555136 288.290016 
L 464.818654 272.436775 
L 465.082172 283.152392 
L 465.345691 258.418399 
L 465.609209 274.596674 
L 465.872727 244.1379 
L 466.136246 250.250625 
L 466.399764 270.014752 
L 466.663282 256.824687 
L 466.9268 267.540304 
L 467.453837 296.069848 
L 467.717355 244.221779 
L 467.980874 249.652983 
L 468.244392 230.507467 
L 468.50791 231.073654 
L 468.771429 243.424923 
L 469.034947 246.014706 
L 469.298465 265.160221 
L 469.561983 269.983297 
L 469.825502 294.71729 
L 470.08902 287.881104 
L 470.352538 285.291321 
L 470.616057 287.881104 
L 471.406612 227.047434 
L 471.67013 265.149736 
L 471.933648 256.132681 
L 472.197166 257.27554 
L 472.460685 247.283384 
L 472.724203 285.029198 
L 472.987721 197.049998 
L 473.25124 217.212553 
L 473.514758 222.035629 
L 473.778276 219.372452 
L 474.041795 231.723721 
L 474.305313 207.409127 
L 474.832349 222.675211 
L 475.359386 262.130071 
L 475.622904 241.401328 
L 475.886423 232.97143 
L 476.413459 206.318692 
L 476.940496 213.050029 
L 477.204014 207.786585 
L 477.467532 210.439277 
L 477.731051 220.379007 
L 477.994569 214.643741 
L 478.258087 336.824841 
L 478.521606 339.488018 
L 478.785124 319.723891 
L 479.048642 332.07516 
L 479.312161 315.236333 
L 479.575679 306.806435 
L 480.366234 354.009671 
L 480.629752 348.578468 
L 481.156789 303.881134 
L 481.420307 309.312338 
L 481.683825 306.649161 
L 482.210862 264.300455 
L 482.47438 281.915168 
L 482.737898 284.56786 
L 483.264935 325.134124 
L 483.528453 322.481432 
L 484.319008 276.798513 
L 484.582527 297.044948 
L 484.846045 287.052793 
L 485.109563 262.738198 
L 485.373081 272.677929 
L 485.6366 248.950491 
L 485.900118 269.113046 
L 486.163636 256.761777 
L 486.427155 267.477394 
L 486.690673 262.046191 
L 487.21771 228.90327 
L 487.481228 265.317495 
L 487.744746 262.664803 
L 488.008264 282.827359 
L 488.271783 270.47609 
L 488.535301 293.176002 
L 488.798819 294.476136 
L 489.062338 282.124867 
L 489.325856 296.856219 
L 489.852893 252.777497 
L 490.116411 262.717228 
L 490.379929 237.983235 
L 490.643447 237.983235 
L 490.906966 243.718502 
L 491.170484 221.018589 
L 491.434002 213.039544 
L 491.697521 244.546813 
L 491.961039 240.468168 
L 492.224557 245.899371 
L 492.488076 233.548102 
L 492.751594 230.95832 
L 493.015112 237.794506 
L 493.27863 230.95832 
L 493.542149 228.295143 
L 493.805667 209.149628 
L 494.069185 222.675211 
L 494.332704 247.409204 
L 494.596222 237.469473 
L 495.123259 274.554734 
L 495.386777 249.820742 
L 495.650295 241.390843 
L 495.913813 221.144409 
L 496.177332 229.123454 
L 496.44085 224.81414 
L 496.704368 243.959656 
L 496.967887 254.759152 
L 497.494923 219.687001 
L 497.758442 242.911161 
L 498.02196 252.850892 
L 498.548996 225.590027 
L 499.076033 260.662178 
L 499.339551 252.683133 
L 499.866588 219.047419 
L 500.130106 235.508788 
L 500.393625 212.284627 
L 501.184179 269.668749 
L 501.447698 259.729018 
L 501.711216 257.076326 
L 501.974734 245.354154 
L 502.238253 223.912435 
L 502.501771 267.246726 
L 502.765289 257.25457 
L 503.292326 297.936169 
L 503.555844 280.47873 
L 503.819362 295.346387 
L 504.082881 280.552125 
L 504.346399 280.552125 
L 504.609917 289.883729 
L 504.873436 275.561289 
L 505.136954 270.580939 
L 505.400472 247.356779 
L 505.927509 282.879783 
L 506.191027 266.397445 
L 506.454545 290.71204 
L 506.718064 293.868009 
L 506.981582 196.871754 
L 507.2451 198.717105 
L 507.508619 213.783975 
L 507.772137 221.396047 
L 508.299174 280.58358 
L 508.562692 261.438064 
L 508.82621 250.869237 
L 509.089728 249.862682 
L 509.353247 267.477394 
L 509.616765 259.047496 
L 509.880283 239.901981 
L 510.40732 281.590135 
L 510.670838 294.75923 
L 511.197875 255.597948 
L 512.515466 341.878586 
L 512.778985 325.700311 
L 513.042503 335.692467 
L 513.306021 330.261264 
L 513.833058 308.756635 
L 514.096576 333.490628 
L 514.360094 341.469673 
L 514.623613 344.059456 
L 514.887131 363.204971 
L 515.414168 319.713406 
L 515.677686 333.238989 
L 515.941204 313.076434 
L 516.204723 321.506332 
L 516.731759 298.397507 
L 516.995277 318.161634 
L 517.258796 296.164213 
L 517.785832 308.913909 
L 518.049351 311.577086 
L 518.312869 287.849649 
L 518.576387 280.772309 
L 518.839906 280.772309 
L 519.366942 292.588845 
L 519.63046 303.147188 
L 519.893979 280.447275 
L 520.157497 302.444696 
L 520.421015 312.384427 
L 520.948052 266.208716 
L 521.475089 266.208716 
L 521.738607 261.700188 
L 522.002125 239.702767 
L 522.265643 254.3083 
L 522.529162 256.940022 
L 522.79268 279.639934 
L 523.056198 259.393499 
L 523.319717 259.812897 
L 523.583235 258.670038 
L 523.846753 264.405305 
L 524.110272 248.552063 
L 524.37379 240.122165 
L 524.637308 242.932131 
L 525.164345 282.61766 
L 525.427863 300.232372 
L 525.691381 289.432876 
L 525.9549 266.732963 
L 526.218418 277.53246 
L 526.481936 270.696274 
L 526.745455 247.472113 
L 527.008973 244.504873 
L 527.272491 243.110375 
L 527.536009 243.110375 
L 527.799528 248.216545 
L 528.326564 216.310848 
L 528.590083 239.535008 
L 528.853601 218.093289 
L 529.117119 228.808906 
L 529.380638 228.808906 
L 529.644156 223.98583 
L 530.171192 259.152346 
L 530.434711 280.594065 
L 530.698229 260.431509 
L 530.961747 276.284751 
L 531.225266 256.520624 
L 531.752302 292.746119 
L 532.015821 275.131407 
L 532.279339 291.970233 
L 532.542857 296.793309 
L 533.333412 244.714572 
L 533.59693 242.051395 
L 534.123967 258.460339 
L 534.914522 213.637186 
L 535.17804 281.915168 
L 535.441558 281.915168 
L 535.705077 284.725134 
L 535.968595 214.738105 
L 536.232113 220.001549 
L 536.75915 233.883621 
L 537.022668 209.149628 
L 537.286187 224.216498 
L 537.549705 224.216498 
L 537.813223 231.052685 
L 538.076741 231.052685 
L 538.34026 246.905926 
L 538.867296 209.610966 
L 539.130815 209.610966 
L 539.394333 217.464192 
L 539.657851 230.989775 
L 539.92137 225.254508 
L 540.184888 235.194239 
L 540.448406 225.254508 
L 540.711924 258.282095 
L 540.975443 268.997712 
L 541.238961 256.646443 
L 541.502479 236.882316 
L 541.765998 258.879737 
L 542.029516 259.047496 
L 542.293034 261.637278 
L 542.556553 273.516725 
L 542.820071 292.504966 
L 543.083589 300.484011 
L 543.610626 264.877127 
L 543.874144 241.652967 
L 544.137662 244.316144 
L 544.401181 267.540304 
L 544.664699 267.540304 
L 545.191736 222.84297 
L 545.455254 225.631966 
L 545.718772 225.631966 
L 545.98229 201.317372 
L 546.245809 201.317372 
L 546.772845 250.953116 
L 547.036364 256.688383 
L 547.299882 267.487879 
L 547.5634 291.802474 
L 548.090437 310.224528 
L 548.353955 302.245482 
L 549.408028 223.230913 
L 549.671547 228.662116 
L 549.935065 236.641162 
L 550.198583 216.394727 
L 550.462102 228.745996 
L 550.72562 218.030379 
L 550.989138 193.296386 
L 551.252656 218.030379 
L 551.516175 218.030379 
L 551.779693 193.296386 
L 552.043211 209.149628 
L 552.30673 192.310801 
L 552.570248 184.331756 
L 552.833766 203.110298 
L 553.097285 203.110298 
L 553.360803 199.126017 
L 553.624321 199.126017 
L 553.887839 186.774749 
L 554.151358 186.774749 
L 554.414876 201.841619 
L 554.678394 201.841619 
L 554.941913 225.065779 
L 555.205431 261.574369 
L 555.468949 281.338496 
L 555.732468 314.198323 
L 556.259504 272.436775 
L 556.523022 279.272961 
L 556.786541 256.048801 
L 557.050059 246.056645 
L 557.313577 256.856142 
L 557.577096 256.856142 
L 558.104132 297.537741 
L 558.631169 269.899417 
L 558.894687 269.899417 
L 559.158205 284.966288 
L 559.421724 274.250671 
L 559.685242 279.681874 
L 559.94876 274.250671 
L 560.212279 266.271625 
L 560.475797 266.271625 
L 560.739315 259.435439 
L 561.266352 288.814264 
L 561.793388 309.605916 
L 562.056907 316.442102 
L 562.320425 298.984664 
L 562.583943 304.415867 
L 562.847462 287.954498 
L 563.374498 304.363442 
L 563.638017 304.363442 
L 563.901535 295.933544 
L 564.165053 313.390982 
L 564.428571 293.228427 
L 564.69209 301.658325 
L 564.955608 273.894183 
L 565.219126 289.747424 
L 565.482645 233.380343 
L 565.746163 239.293854 
L 566.009681 263.021291 
L 566.2732 246.843016 
L 566.536718 242.01994 
L 567.063754 242.01994 
L 567.327273 218.79578 
L 567.590791 221.354108 
L 567.854309 237.815476 
L 568.117828 237.815476 
L 568.381346 237.595292 
L 568.908383 267.404 
L 569.171901 267.404 
L 569.435419 259.424954 
L 569.698937 259.424954 
L 569.962456 241.810241 
L 570.225974 265.034402 
L 570.489492 262.444619 
L 570.753011 269.259836 
L 571.016529 252.798467 
L 571.280047 252.798467 
L 571.543566 248.866611 
L 571.807084 269.029167 
L 572.070602 255.503584 
L 572.597639 282.481355 
L 572.861157 272.4892 
L 573.124675 272.4892 
L 573.388194 270.905972 
L 573.651712 290.6701 
L 573.91523 246.874471 
L 574.178749 252.305674 
L 574.442267 227.99108 
L 575.232822 272.237561 
L 575.49634 272.845688 
L 575.759858 283.267726 
L 576.023377 260.567814 
L 576.286895 249.768317 
L 576.550413 227.770896 
L 576.813932 251.382999 
L 577.07745 234.92163 
L 577.340968 234.92163 
L 577.604486 245.721127 
L 577.868005 233.369858 
L 578.131523 233.369858 
L 578.395041 244.085475 
L 578.65856 246.738167 
L 579.449115 218.051349 
L 579.976151 218.051349 
L 580.239669 209.621451 
L 580.503188 209.621451 
L 581.030224 181.983127 
L 581.293743 203.980548 
L 581.820779 203.980548 
L 582.084298 204.588675 
L 582.347816 209.411752 
L 582.611334 206.748575 
L 582.874852 207.524461 
L 583.138371 184.300301 
L 583.665407 184.300301 
L 584.192444 223.209943 
L 584.455962 201.768224 
L 584.719481 201.768224 
L 584.982999 199.178442 
L 585.246517 222.402602 
L 585.510035 232.342333 
L 585.773554 210.344912 
L 586.037072 216.080179 
L 586.30059 236.242734 
L 586.564109 213.018574 
L 586.827627 208.195498 
L 587.354664 178.848128 
L 587.618182 162.994886 
L 588.145218 162.994886 
L 588.408737 169.831072 
L 588.935773 169.831072 
L 589.199292 178.260971 
L 589.46281 194.439246 
L 589.726328 170.711808 
L 589.989847 173.30159 
L 590.780401 173.30159 
L 591.04392 175.964767 
L 591.570956 175.964767 
L 591.834475 188.316036 
L 592.097993 168.153481 
L 592.361511 166.004066 
L 592.62503 166.004066 
L 592.888548 149.825791 
L 593.152066 173.049951 
L 593.679103 173.049951 
L 593.942621 149.825791 
L 594.469658 149.825791 
L 594.733176 163.613498 
L 595.523731 163.613498 
L 596.050767 206.350147 
L 596.577804 176.384165 
L 596.841322 196.54672 
L 597.104841 172.232126 
L 597.368359 192.47856 
L 597.895396 162.774702 
L 598.158914 173.574199 
L 598.949469 173.574199 
L 599.212987 198.308192 
L 600.530579 198.308192 
L 600.794097 188.368461 
L 601.584652 188.368461 
L 601.84817 212.095898 
L 602.375207 192.866503 
L 602.638725 209.70533 
L 602.902243 202.869144 
L 603.42928 224.824625 
L 604.219835 224.824625 
L 604.483353 230.559892 
L 604.746871 222.129994 
L 605.01039 219.540212 
L 605.537426 182.53883 
L 605.800945 177.107626 
L 606.064463 177.107626 
L 606.327981 183.943813 
L 606.591499 183.943813 
L 606.855018 189.375016 
L 607.118536 205.553291 
L 607.382054 197.574245 
L 607.645573 205.553291 
L 608.172609 205.553291 
L 608.699646 239.021245 
L 608.963164 233.285979 
L 609.490201 233.285979 
L 609.753719 217.107704 
L 610.017237 217.107704 
L 610.280756 193.380266 
L 611.334829 193.380266 
L 611.598347 180.211171 
L 612.125384 180.211171 
L 612.388902 184.038177 
L 612.65242 168.971307 
L 612.915939 189.133862 
L 613.179457 199.126017 
L 613.706494 199.126017 
L 613.970012 188.4104 
L 614.23353 185.086672 
L 614.497048 195.886169 
L 614.760567 192.059162 
L 616.868713 192.059162 
L 617.132231 196.662055 
L 617.39575 186.669899 
L 617.659268 186.669899 
L 617.922786 189.825868 
L 618.186305 179.099767 
L 618.449823 179.099767 
L 618.713341 183.922843 
L 619.503896 183.922843 
L 619.767414 166.30813 
L 622.139079 166.30813 
L 622.402597 147.309404 
L 622.666116 144.677682 
L 626.61889 144.677682 
L 626.882409 137.159974 
L 627.409445 137.159974 
L 627.672963 140.158669 
L 630.308146 140.158669 
L 630.571665 146.994855 
L 630.835183 146.994855 
L 631.098701 150.224219 
L 633.733884 150.224219 
L 633.997403 165.29109 
L 634.260921 165.29109 
L 634.524439 162.627913 
L 635.842031 162.627913 
L 636.105549 165.29109 
L 636.632586 165.29109 
L 636.896104 155.298934 
L 637.159622 140.232064 
L 638.740732 140.232064 
L 639.00425 141.909655 
L 639.794805 141.909655 
L 640.058323 142.916211 
L 643.484061 142.916211 
L 643.74758 140.253034 
L 644.011098 140.253034 
L 644.274616 139.393268 
L 644.538135 139.393268 
L 644.801653 149.385424 
L 645.065171 139.393268 
L 646.646281 139.393268 
L 646.909799 114.659275 
L 649.544982 114.659275 
L 649.808501 110.486266 
L 659.295159 110.486266 
L 659.558678 112.017068 
L 659.822196 122.009224 
L 660.349233 122.009224 
L 660.612751 106.155982 
L 666.93719 106.155982 
L 667.200708 100.567505 
L 680.90366 100.567505 
L 681.167178 97.411536 
L 719.113813 97.411536 
L 719.377332 95.723459 
L 719.904368 95.723459 
L 720.167887 88.887273 
L 871.690909 88.887273 
L 871.690909 88.887273 
" style="fill:none;stroke:#8dd3c7;stroke-linecap:square;stroke-width:1.5;"/>
   </g>
   <g id="line2d_16">
    <path clip-path="url(#pe35e289d1a)" d="M 161.509091 223.283338 
L 182.327037 223.283338 
L 182.590555 211.414377 
L 184.435183 211.414377 
L 184.698701 198.308192 
L 187.333884 198.308192 
L 187.597403 191.734129 
L 217.37497 191.734129 
L 217.638489 185.852073 
L 217.902007 185.852073 
L 218.165525 173.825838 
L 587.354664 173.825838 
L 587.618182 162.994886 
L 592.62503 162.994886 
L 592.888548 149.825791 
L 622.139079 149.825791 
L 622.666116 144.677682 
L 626.61889 144.677682 
L 626.882409 137.159974 
L 646.646281 137.159974 
L 646.909799 114.659275 
L 649.544982 114.659275 
L 649.808501 110.486266 
L 660.349233 110.486266 
L 660.612751 106.155982 
L 666.93719 106.155982 
L 667.200708 100.567505 
L 680.90366 100.567505 
L 681.167178 97.411536 
L 719.113813 97.411536 
L 719.377332 95.723459 
L 719.904368 95.723459 
L 720.167887 88.887273 
L 871.690909 88.887273 
L 871.690909 88.887273 
" style="fill:none;stroke:#feffb3;stroke-linecap:square;stroke-width:1.5;"/>
   </g>
   <g id="line2d_17">
    <path clip-path="url(#pe35e289d1a)" d="M 161.509091 223.283338 
L 163.353719 223.283338 
L 163.617237 239.523885 
L 165.461865 239.523885 
L 165.725384 254.753679 
L 167.570012 254.753679 
L 167.83353 269.035626 
L 169.678158 269.035626 
L 169.941677 282.428716 
L 171.786305 282.428716 
L 172.049823 294.988269 
L 173.894451 294.988269 
L 174.157969 306.76616 
L 176.002597 306.76616 
L 176.266116 317.811038 
L 178.110744 317.811038 
L 178.374262 328.168523 
L 180.21889 328.168523 
L 180.482409 337.881395 
L 182.327037 337.881395 
L 182.590555 346.989773 
L 184.435183 346.989773 
L 184.698701 355.531279 
L 186.543329 355.531279 
L 186.806848 363.541192 
L 188.651476 363.541192 
L 188.914994 371.052597 
L 190.759622 371.052597 
L 191.02314 378.09652 
L 192.867769 378.09652 
L 193.131287 384.702054 
L 194.975915 384.702054 
L 195.239433 390.896483 
L 197.084061 390.896483 
L 197.34758 396.705394 
L 199.192208 396.705394 
L 199.455726 402.152779 
L 201.300354 402.152779 
L 201.563872 407.261138 
L 203.408501 407.261138 
L 203.672019 412.051572 
L 205.516647 412.051572 
L 205.780165 416.543866 
L 207.624793 416.543866 
L 207.888312 420.756576 
L 209.73294 420.756576 
L 209.996458 424.707103 
L 211.841086 424.707103 
L 212.104604 428.411763 
L 213.949233 428.411763 
L 214.212751 431.885858 
L 216.057379 431.885858 
L 216.320897 435.143738 
L 218.165525 435.143738 
L 218.429044 438.198859 
L 220.273672 438.198859 
L 220.53719 441.063841 
L 222.381818 441.063841 
L 222.645336 443.750516 
L 224.489965 443.750516 
L 224.753483 446.269983 
L 226.598111 446.269983 
L 226.861629 448.632647 
L 228.706257 448.632647 
L 228.969776 450.848267 
L 230.814404 450.848267 
L 231.077922 452.925996 
L 232.92255 452.925996 
L 233.186068 454.874413 
L 235.030697 454.874413 
L 235.294215 456.701569 
L 237.138843 456.701569 
L 237.402361 458.415009 
L 239.246989 458.415009 
L 239.510508 460.02181 
L 241.355136 460.02181 
L 241.618654 461.52861 
L 243.463282 461.52861 
L 243.7268 462.941632 
L 245.571429 462.941632 
L 245.834947 464.266713 
L 247.679575 464.266713 
L 247.943093 465.509326 
L 249.787721 465.509326 
L 250.05124 466.674603 
L 251.895868 466.674603 
L 252.159386 467.767357 
L 254.004014 467.767357 
L 254.267532 468.792102 
L 256.112161 468.792102 
L 256.375679 469.753071 
L 258.220307 469.753071 
L 258.483825 470.654232 
L 260.328453 470.654232 
L 260.591972 471.499309 
L 262.4366 471.499309 
L 262.700118 472.291791 
L 264.544746 472.291791 
L 264.808264 473.034952 
L 266.652893 473.034952 
L 266.916411 473.731861 
L 268.761039 473.731861 
L 269.024557 474.385397 
L 270.869185 474.385397 
L 271.132704 474.998259 
L 272.977332 474.998259 
L 273.24085 475.572979 
L 275.085478 475.572979 
L 275.348996 476.11193 
L 277.193625 476.11193 
L 277.457143 476.617339 
L 279.301771 476.617339 
L 279.565289 477.091294 
L 281.409917 477.091294 
L 281.673436 477.535751 
L 283.518064 477.535751 
L 283.781582 477.952546 
L 285.62621 477.952546 
L 285.889728 478.343402 
L 287.734357 478.343402 
L 287.997875 478.709932 
L 289.842503 478.709932 
L 290.106021 479.053651 
L 291.950649 479.053651 
L 292.214168 479.375978 
L 294.058796 479.375978 
L 294.322314 479.678245 
L 296.166942 479.678245 
L 296.43046 479.961699 
L 298.275089 479.961699 
L 298.538607 480.227513 
L 300.383235 480.227513 
L 300.646753 480.476783 
L 302.491381 480.476783 
L 302.7549 480.710539 
L 304.599528 480.710539 
L 304.863046 480.929747 
L 306.707674 480.929747 
L 306.971192 481.135313 
L 308.815821 481.135313 
L 309.079339 481.328085 
L 310.923967 481.328085 
L 311.187485 481.508859 
L 313.032113 481.508859 
L 313.295632 481.678383 
L 315.14026 481.678383 
L 315.403778 481.837356 
L 317.248406 481.837356 
L 317.511924 481.986435 
L 319.356553 481.986435 
L 319.620071 482.126237 
L 321.464699 482.126237 
L 321.728217 482.257337 
L 323.572845 482.257337 
L 323.836364 482.380278 
L 325.680992 482.380278 
L 326.208028 482.495568 
L 329.897285 482.603682 
L 330.424321 482.705068 
L 334.113577 482.800144 
L 334.640614 482.889303 
L 338.32987 482.972913 
L 338.856907 483.051319 
L 342.546163 483.124846 
L 343.0732 483.193796 
L 346.762456 483.258456 
L 347.289492 483.319091 
L 353.086895 483.429275 
L 353.87745 483.479279 
L 359.411334 483.570144 
L 360.201889 483.611381 
L 367.84392 483.720322 
L 368.897993 483.752212 
L 378.384652 483.861123 
L 379.702243 483.88425 
L 391.03353 483.980007 
L 393.405195 484.010485 
L 416.331287 484.115842 
L 421.074616 484.136335 
L 871.690909 484.232727 
L 871.690909 484.232727 
" style="fill:none;stroke:#bfbbd9;stroke-linecap:square;stroke-width:1.5;"/>
   </g>
   <g id="patch_3">
    <path d="M 126 504 
L 126 69.12 
" style="fill:none;stroke:#ffffff;stroke-linecap:square;stroke-linejoin:miter;stroke-width:0.8;"/>
   </g>
   <g id="patch_4">
    <path d="M 907.2 504 
L 907.2 69.12 
" style="fill:none;stroke:#ffffff;stroke-linecap:square;stroke-linejoin:miter;stroke-width:0.8;"/>
   </g>
   <g id="patch_5">
    <path d="M 126 504 
L 907.2 504 
" style="fill:none;stroke:#ffffff;stroke-linecap:square;stroke-linejoin:miter;stroke-width:0.8;"/>
   </g>
   <g id="patch_6">
    <path d="M 126 69.12 
L 907.2 69.12 
" style="fill:none;stroke:#ffffff;stroke-linecap:square;stroke-linejoin:miter;stroke-width:0.8;"/>
   </g>
   <g id="text_16">
    <!-- instance 3 with error 0.0 -->
    <g style="fill:#ffffff;" transform="translate(442.944375 63.12)scale(0.12 -0.12)">
     <defs>
      <path d="M 2834 3397 
L 2834 2853 
Q 2591 2978 2328 3040 
Q 2066 3103 1784 3103 
Q 1356 3103 1142 2972 
Q 928 2841 928 2578 
Q 928 2378 1081 2264 
Q 1234 2150 1697 2047 
L 1894 2003 
Q 2506 1872 2764 1633 
Q 3022 1394 3022 966 
Q 3022 478 2636 193 
Q 2250 -91 1575 -91 
Q 1294 -91 989 -36 
Q 684 19 347 128 
L 347 722 
Q 666 556 975 473 
Q 1284 391 1588 391 
Q 1994 391 2212 530 
Q 2431 669 2431 922 
Q 2431 1156 2273 1281 
Q 2116 1406 1581 1522 
L 1381 1569 
Q 847 1681 609 1914 
Q 372 2147 372 2553 
Q 372 3047 722 3315 
Q 1072 3584 1716 3584 
Q 2034 3584 2315 3537 
Q 2597 3491 2834 3397 
z
" id="DejaVuSans-73" transform="scale(0.015625)"/>
      <path d="M 3122 3366 
L 3122 2828 
Q 2878 2963 2633 3030 
Q 2388 3097 2138 3097 
Q 1578 3097 1268 2742 
Q 959 2388 959 1747 
Q 959 1106 1268 751 
Q 1578 397 2138 397 
Q 2388 397 2633 464 
Q 2878 531 3122 666 
L 3122 134 
Q 2881 22 2623 -34 
Q 2366 -91 2075 -91 
Q 1284 -91 818 406 
Q 353 903 353 1747 
Q 353 2603 823 3093 
Q 1294 3584 2113 3584 
Q 2378 3584 2631 3529 
Q 2884 3475 3122 3366 
z
" id="DejaVuSans-63" transform="scale(0.015625)"/>
      <path id="DejaVuSans-20" transform="scale(0.015625)"/>
      <path d="M 269 3500 
L 844 3500 
L 1563 769 
L 2278 3500 
L 2956 3500 
L 3675 769 
L 4391 3500 
L 4966 3500 
L 4050 0 
L 3372 0 
L 2619 2869 
L 1863 0 
L 1184 0 
L 269 3500 
z
" id="DejaVuSans-77" transform="scale(0.015625)"/>
      <path d="M 3513 2113 
L 3513 0 
L 2938 0 
L 2938 2094 
Q 2938 2591 2744 2837 
Q 2550 3084 2163 3084 
Q 1697 3084 1428 2787 
Q 1159 2491 1159 1978 
L 1159 0 
L 581 0 
L 581 4863 
L 1159 4863 
L 1159 2956 
Q 1366 3272 1645 3428 
Q 1925 3584 2291 3584 
Q 2894 3584 3203 3211 
Q 3513 2838 3513 2113 
z
" id="DejaVuSans-68" transform="scale(0.015625)"/>
      <path d="M 684 794 
L 1344 794 
L 1344 0 
L 684 0 
L 684 794 
z
" id="DejaVuSans-2e" transform="scale(0.015625)"/>
     </defs>
     <use xlink:href="#DejaVuSans-69"/>
     <use x="27.783203" xlink:href="#DejaVuSans-6e"/>
     <use x="91.162109" xlink:href="#DejaVuSans-73"/>
     <use x="143.261719" xlink:href="#DejaVuSans-74"/>
     <use x="182.470703" xlink:href="#DejaVuSans-61"/>
     <use x="243.75" xlink:href="#DejaVuSans-6e"/>
     <use x="307.128906" xlink:href="#DejaVuSans-63"/>
     <use x="362.109375" xlink:href="#DejaVuSans-65"/>
     <use x="423.632812" xlink:href="#DejaVuSans-20"/>
     <use x="455.419922" xlink:href="#DejaVuSans-33"/>
     <use x="519.042969" xlink:href="#DejaVuSans-20"/>
     <use x="550.830078" xlink:href="#DejaVuSans-77"/>
     <use x="632.617188" xlink:href="#DejaVuSans-69"/>
     <use x="660.400391" xlink:href="#DejaVuSans-74"/>
     <use x="699.609375" xlink:href="#DejaVuSans-68"/>
     <use x="762.988281" xlink:href="#DejaVuSans-20"/>
     <use x="794.775391" xlink:href="#DejaVuSans-65"/>
     <use x="856.298828" xlink:href="#DejaVuSans-72"/>
     <use x="895.662109" xlink:href="#DejaVuSans-72"/>
     <use x="934.525391" xlink:href="#DejaVuSans-6f"/>
     <use x="995.707031" xlink:href="#DejaVuSans-72"/>
     <use x="1036.820312" xlink:href="#DejaVuSans-20"/>
     <use x="1068.607422" xlink:href="#DejaVuSans-30"/>
     <use x="1132.230469" xlink:href="#DejaVuSans-2e"/>
     <use x="1164.017578" xlink:href="#DejaVuSans-30"/>
    </g>
   </g>
   <g id="legend_1">
    <g id="patch_7">
     <path d="M 805.348438 499 
L 900.2 499 
Q 902.2 499 902.2 497 
L 902.2 453.965625 
Q 902.2 451.965625 900.2 451.965625 
L 805.348438 451.965625 
Q 803.348438 451.965625 803.348438 453.965625 
L 803.348438 497 
Q 803.348438 499 805.348438 499 
z
" style="opacity:0.8;stroke:#cccccc;stroke-linejoin:miter;"/>
    </g>
    <g id="line2d_18">
     <path d="M 807.348438 460.064062 
L 827.348438 460.064062 
" style="fill:none;stroke:#8dd3c7;stroke-linecap:square;stroke-width:1.5;"/>
    </g>
    <g id="line2d_19"/>
    <g id="text_17">
     <!-- cost -->
     <g style="fill:#ffffff;" transform="translate(835.348438 463.564062)scale(0.1 -0.1)">
      <use xlink:href="#DejaVuSans-63"/>
      <use x="54.980469" xlink:href="#DejaVuSans-6f"/>
      <use x="116.162109" xlink:href="#DejaVuSans-73"/>
      <use x="168.261719" xlink:href="#DejaVuSans-74"/>
     </g>
    </g>
    <g id="line2d_20">
     <path d="M 807.348438 474.742188 
L 827.348438 474.742188 
" style="fill:none;stroke:#feffb3;stroke-linecap:square;stroke-width:1.5;"/>
    </g>
    <g id="line2d_21"/>
    <g id="text_18">
     <!-- best cost -->
     <g style="fill:#ffffff;" transform="translate(835.348438 478.242188)scale(0.1 -0.1)">
      <defs>
       <path d="M 3116 1747 
Q 3116 2381 2855 2742 
Q 2594 3103 2138 3103 
Q 1681 3103 1420 2742 
Q 1159 2381 1159 1747 
Q 1159 1113 1420 752 
Q 1681 391 2138 391 
Q 2594 391 2855 752 
Q 3116 1113 3116 1747 
z
M 1159 2969 
Q 1341 3281 1617 3432 
Q 1894 3584 2278 3584 
Q 2916 3584 3314 3078 
Q 3713 2572 3713 1747 
Q 3713 922 3314 415 
Q 2916 -91 2278 -91 
Q 1894 -91 1617 61 
Q 1341 213 1159 525 
L 1159 0 
L 581 0 
L 581 4863 
L 1159 4863 
L 1159 2969 
z
" id="DejaVuSans-62" transform="scale(0.015625)"/>
      </defs>
      <use xlink:href="#DejaVuSans-62"/>
      <use x="63.476562" xlink:href="#DejaVuSans-65"/>
      <use x="125" xlink:href="#DejaVuSans-73"/>
      <use x="177.099609" xlink:href="#DejaVuSans-74"/>
      <use x="216.308594" xlink:href="#DejaVuSans-20"/>
      <use x="248.095703" xlink:href="#DejaVuSans-63"/>
      <use x="303.076172" xlink:href="#DejaVuSans-6f"/>
      <use x="364.257812" xlink:href="#DejaVuSans-73"/>
      <use x="416.357422" xlink:href="#DejaVuSans-74"/>
     </g>
    </g>
    <g id="line2d_22">
     <path d="M 807.348438 489.420313 
L 827.348438 489.420313 
" style="fill:none;stroke:#bfbbd9;stroke-linecap:square;stroke-width:1.5;"/>
    </g>
    <g id="line2d_23"/>
    <g id="text_19">
     <!-- temperature -->
     <g style="fill:#ffffff;" transform="translate(835.348438 492.920313)scale(0.1 -0.1)">
      <defs>
       <path d="M 3328 2828 
Q 3544 3216 3844 3400 
Q 4144 3584 4550 3584 
Q 5097 3584 5394 3201 
Q 5691 2819 5691 2113 
L 5691 0 
L 5113 0 
L 5113 2094 
Q 5113 2597 4934 2840 
Q 4756 3084 4391 3084 
Q 3944 3084 3684 2787 
Q 3425 2491 3425 1978 
L 3425 0 
L 2847 0 
L 2847 2094 
Q 2847 2600 2669 2842 
Q 2491 3084 2119 3084 
Q 1678 3084 1418 2786 
Q 1159 2488 1159 1978 
L 1159 0 
L 581 0 
L 581 3500 
L 1159 3500 
L 1159 2956 
Q 1356 3278 1631 3431 
Q 1906 3584 2284 3584 
Q 2666 3584 2933 3390 
Q 3200 3197 3328 2828 
z
" id="DejaVuSans-6d" transform="scale(0.015625)"/>
       <path d="M 1159 525 
L 1159 -1331 
L 581 -1331 
L 581 3500 
L 1159 3500 
L 1159 2969 
Q 1341 3281 1617 3432 
Q 1894 3584 2278 3584 
Q 2916 3584 3314 3078 
Q 3713 2572 3713 1747 
Q 3713 922 3314 415 
Q 2916 -91 2278 -91 
Q 1894 -91 1617 61 
Q 1341 213 1159 525 
z
M 3116 1747 
Q 3116 2381 2855 2742 
Q 2594 3103 2138 3103 
Q 1681 3103 1420 2742 
Q 1159 2381 1159 1747 
Q 1159 1113 1420 752 
Q 1681 391 2138 391 
Q 2594 391 2855 752 
Q 3116 1113 3116 1747 
z
" id="DejaVuSans-70" transform="scale(0.015625)"/>
       <path d="M 544 1381 
L 544 3500 
L 1119 3500 
L 1119 1403 
Q 1119 906 1312 657 
Q 1506 409 1894 409 
Q 2359 409 2629 706 
Q 2900 1003 2900 1516 
L 2900 3500 
L 3475 3500 
L 3475 0 
L 2900 0 
L 2900 538 
Q 2691 219 2414 64 
Q 2138 -91 1772 -91 
Q 1169 -91 856 284 
Q 544 659 544 1381 
z
M 1991 3584 
L 1991 3584 
z
" id="DejaVuSans-75" transform="scale(0.015625)"/>
      </defs>
      <use xlink:href="#DejaVuSans-74"/>
      <use x="39.208984" xlink:href="#DejaVuSans-65"/>
      <use x="100.732422" xlink:href="#DejaVuSans-6d"/>
      <use x="198.144531" xlink:href="#DejaVuSans-70"/>
      <use x="261.621094" xlink:href="#DejaVuSans-65"/>
      <use x="323.144531" xlink:href="#DejaVuSans-72"/>
      <use x="364.257812" xlink:href="#DejaVuSans-61"/>
      <use x="425.537109" xlink:href="#DejaVuSans-74"/>
      <use x="464.746094" xlink:href="#DejaVuSans-75"/>
      <use x="528.125" xlink:href="#DejaVuSans-72"/>
      <use x="566.988281" xlink:href="#DejaVuSans-65"/>
     </g>
    </g>
   </g>
  </g>
 </g>
 <defs>
  <clipPath id="pe35e289d1a">
   <rect height="434.88" width="781.2" x="126" y="69.12"/>
  </clipPath>
 </defs>
</svg>
