<?xml version="1.0" encoding="utf-8" standalone="no"?>
<!DOCTYPE svg PUBLIC "-//W3C//DTD SVG 1.1//EN"
  "http://www.w3.org/Graphics/SVG/1.1/DTD/svg11.dtd">
<svg height="576pt" version="1.1" viewBox="0 0 1008 576" width="1008pt" xmlns="http://www.w3.org/2000/svg" xmlns:xlink="http://www.w3.org/1999/xlink">
 <metadata>
  <rdf:RDF xmlns:cc="http://creativecommons.org/ns#" xmlns:dc="http://purl.org/dc/elements/1.1/" xmlns:rdf="http://www.w3.org/1999/02/22-rdf-syntax-ns#">
   <cc:Work>
    <dc:type rdf:resource="http://purl.org/dc/dcmitype/StillImage"/>
    <dc:date>2022-01-07T21:26:24.500358</dc:date>
    <dc:format>image/svg+xml</dc:format>
    <dc:creator>
     <cc:Agent>
      <dc:title>Matplotlib v3.4.3, https://matplotlib.org/</dc:title>
     </cc:Agent>
    </dc:creator>
   </cc:Work>
  </rdf:RDF>
 </metadata>
 <defs>
  <style type="text/css">*{stroke-linecap:butt;stroke-linejoin:round;}</style>
 </defs>
 <g id="figure_1">
  <g id="patch_1">
   <path d="M 0 576 
L 1008 576 
L 1008 0 
L 0 0 
z
"/>
  </g>
  <g id="axes_1">
   <g id="patch_2">
    <path d="M 126 504 
L 907.2 504 
L 907.2 69.12 
L 126 69.12 
z
"/>
   </g>
   <g id="matplotlib.axis_1">
    <g id="xtick_1">
     <g id="line2d_1">
      <defs>
       <path d="M 0 0 
L 0 3.5 
" id="m71a795b287" style="stroke:#ffffff;stroke-width:0.8;"/>
      </defs>
      <g>
       <use style="fill:#ffffff;stroke:#ffffff;stroke-width:0.8;" x="161.509091" xlink:href="#m71a795b287" y="504"/>
      </g>
     </g>
     <g id="text_1">
      <!-- 0 -->
      <g style="fill:#ffffff;" transform="translate(158.327841 518.598438)scale(0.1 -0.1)">
       <defs>
        <path d="M 2034 4250 
Q 1547 4250 1301 3770 
Q 1056 3291 1056 2328 
Q 1056 1369 1301 889 
Q 1547 409 2034 409 
Q 2525 409 2770 889 
Q 3016 1369 3016 2328 
Q 3016 3291 2770 3770 
Q 2525 4250 2034 4250 
z
M 2034 4750 
Q 2819 4750 3233 4129 
Q 3647 3509 3647 2328 
Q 3647 1150 3233 529 
Q 2819 -91 2034 -91 
Q 1250 -91 836 529 
Q 422 1150 422 2328 
Q 422 3509 836 4129 
Q 1250 4750 2034 4750 
z
" id="DejaVuSans-30" transform="scale(0.015625)"/>
       </defs>
       <use xlink:href="#DejaVuSans-30"/>
      </g>
     </g>
    </g>
    <g id="xtick_2">
     <g id="line2d_2">
      <g>
       <use style="fill:#ffffff;stroke:#ffffff;stroke-width:0.8;" x="295.253313" xlink:href="#m71a795b287" y="504"/>
      </g>
     </g>
     <g id="text_2">
      <!-- 500 -->
      <g style="fill:#ffffff;" transform="translate(285.709563 518.598438)scale(0.1 -0.1)">
       <defs>
        <path d="M 691 4666 
L 3169 4666 
L 3169 4134 
L 1269 4134 
L 1269 2991 
Q 1406 3038 1543 3061 
Q 1681 3084 1819 3084 
Q 2600 3084 3056 2656 
Q 3513 2228 3513 1497 
Q 3513 744 3044 326 
Q 2575 -91 1722 -91 
Q 1428 -91 1123 -41 
Q 819 9 494 109 
L 494 744 
Q 775 591 1075 516 
Q 1375 441 1709 441 
Q 2250 441 2565 725 
Q 2881 1009 2881 1497 
Q 2881 1984 2565 2268 
Q 2250 2553 1709 2553 
Q 1456 2553 1204 2497 
Q 953 2441 691 2322 
L 691 4666 
z
" id="DejaVuSans-35" transform="scale(0.015625)"/>
       </defs>
       <use xlink:href="#DejaVuSans-35"/>
       <use x="63.623047" xlink:href="#DejaVuSans-30"/>
       <use x="127.246094" xlink:href="#DejaVuSans-30"/>
      </g>
     </g>
    </g>
    <g id="xtick_3">
     <g id="line2d_3">
      <g>
       <use style="fill:#ffffff;stroke:#ffffff;stroke-width:0.8;" x="428.997535" xlink:href="#m71a795b287" y="504"/>
      </g>
     </g>
     <g id="text_3">
      <!-- 1000 -->
      <g style="fill:#ffffff;" transform="translate(416.272535 518.598438)scale(0.1 -0.1)">
       <defs>
        <path d="M 794 531 
L 1825 531 
L 1825 4091 
L 703 3866 
L 703 4441 
L 1819 4666 
L 2450 4666 
L 2450 531 
L 3481 531 
L 3481 0 
L 794 0 
L 794 531 
z
" id="DejaVuSans-31" transform="scale(0.015625)"/>
       </defs>
       <use xlink:href="#DejaVuSans-31"/>
       <use x="63.623047" xlink:href="#DejaVuSans-30"/>
       <use x="127.246094" xlink:href="#DejaVuSans-30"/>
       <use x="190.869141" xlink:href="#DejaVuSans-30"/>
      </g>
     </g>
    </g>
    <g id="xtick_4">
     <g id="line2d_4">
      <g>
       <use style="fill:#ffffff;stroke:#ffffff;stroke-width:0.8;" x="562.741757" xlink:href="#m71a795b287" y="504"/>
      </g>
     </g>
     <g id="text_4">
      <!-- 1500 -->
      <g style="fill:#ffffff;" transform="translate(550.016757 518.598438)scale(0.1 -0.1)">
       <use xlink:href="#DejaVuSans-31"/>
       <use x="63.623047" xlink:href="#DejaVuSans-35"/>
       <use x="127.246094" xlink:href="#DejaVuSans-30"/>
       <use x="190.869141" xlink:href="#DejaVuSans-30"/>
      </g>
     </g>
    </g>
    <g id="xtick_5">
     <g id="line2d_5">
      <g>
       <use style="fill:#ffffff;stroke:#ffffff;stroke-width:0.8;" x="696.485978" xlink:href="#m71a795b287" y="504"/>
      </g>
     </g>
     <g id="text_5">
      <!-- 2000 -->
      <g style="fill:#ffffff;" transform="translate(683.760978 518.598438)scale(0.1 -0.1)">
       <defs>
        <path d="M 1228 531 
L 3431 531 
L 3431 0 
L 469 0 
L 469 531 
Q 828 903 1448 1529 
Q 2069 2156 2228 2338 
Q 2531 2678 2651 2914 
Q 2772 3150 2772 3378 
Q 2772 3750 2511 3984 
Q 2250 4219 1831 4219 
Q 1534 4219 1204 4116 
Q 875 4013 500 3803 
L 500 4441 
Q 881 4594 1212 4672 
Q 1544 4750 1819 4750 
Q 2544 4750 2975 4387 
Q 3406 4025 3406 3419 
Q 3406 3131 3298 2873 
Q 3191 2616 2906 2266 
Q 2828 2175 2409 1742 
Q 1991 1309 1228 531 
z
" id="DejaVuSans-32" transform="scale(0.015625)"/>
       </defs>
       <use xlink:href="#DejaVuSans-32"/>
       <use x="63.623047" xlink:href="#DejaVuSans-30"/>
       <use x="127.246094" xlink:href="#DejaVuSans-30"/>
       <use x="190.869141" xlink:href="#DejaVuSans-30"/>
      </g>
     </g>
    </g>
    <g id="xtick_6">
     <g id="line2d_6">
      <g>
       <use style="fill:#ffffff;stroke:#ffffff;stroke-width:0.8;" x="830.2302" xlink:href="#m71a795b287" y="504"/>
      </g>
     </g>
     <g id="text_6">
      <!-- 2500 -->
      <g style="fill:#ffffff;" transform="translate(817.5052 518.598438)scale(0.1 -0.1)">
       <use xlink:href="#DejaVuSans-32"/>
       <use x="63.623047" xlink:href="#DejaVuSans-35"/>
       <use x="127.246094" xlink:href="#DejaVuSans-30"/>
       <use x="190.869141" xlink:href="#DejaVuSans-30"/>
      </g>
     </g>
    </g>
    <g id="text_7">
     <!-- iteration -->
     <g style="fill:#ffffff;" transform="translate(495.477344 532.276562)scale(0.1 -0.1)">
      <defs>
       <path d="M 603 3500 
L 1178 3500 
L 1178 0 
L 603 0 
L 603 3500 
z
M 603 4863 
L 1178 4863 
L 1178 4134 
L 603 4134 
L 603 4863 
z
" id="DejaVuSans-69" transform="scale(0.015625)"/>
       <path d="M 1172 4494 
L 1172 3500 
L 2356 3500 
L 2356 3053 
L 1172 3053 
L 1172 1153 
Q 1172 725 1289 603 
Q 1406 481 1766 481 
L 2356 481 
L 2356 0 
L 1766 0 
Q 1100 0 847 248 
Q 594 497 594 1153 
L 594 3053 
L 172 3053 
L 172 3500 
L 594 3500 
L 594 4494 
L 1172 4494 
z
" id="DejaVuSans-74" transform="scale(0.015625)"/>
       <path d="M 3597 1894 
L 3597 1613 
L 953 1613 
Q 991 1019 1311 708 
Q 1631 397 2203 397 
Q 2534 397 2845 478 
Q 3156 559 3463 722 
L 3463 178 
Q 3153 47 2828 -22 
Q 2503 -91 2169 -91 
Q 1331 -91 842 396 
Q 353 884 353 1716 
Q 353 2575 817 3079 
Q 1281 3584 2069 3584 
Q 2775 3584 3186 3129 
Q 3597 2675 3597 1894 
z
M 3022 2063 
Q 3016 2534 2758 2815 
Q 2500 3097 2075 3097 
Q 1594 3097 1305 2825 
Q 1016 2553 972 2059 
L 3022 2063 
z
" id="DejaVuSans-65" transform="scale(0.015625)"/>
       <path d="M 2631 2963 
Q 2534 3019 2420 3045 
Q 2306 3072 2169 3072 
Q 1681 3072 1420 2755 
Q 1159 2438 1159 1844 
L 1159 0 
L 581 0 
L 581 3500 
L 1159 3500 
L 1159 2956 
Q 1341 3275 1631 3429 
Q 1922 3584 2338 3584 
Q 2397 3584 2469 3576 
Q 2541 3569 2628 3553 
L 2631 2963 
z
" id="DejaVuSans-72" transform="scale(0.015625)"/>
       <path d="M 2194 1759 
Q 1497 1759 1228 1600 
Q 959 1441 959 1056 
Q 959 750 1161 570 
Q 1363 391 1709 391 
Q 2188 391 2477 730 
Q 2766 1069 2766 1631 
L 2766 1759 
L 2194 1759 
z
M 3341 1997 
L 3341 0 
L 2766 0 
L 2766 531 
Q 2569 213 2275 61 
Q 1981 -91 1556 -91 
Q 1019 -91 701 211 
Q 384 513 384 1019 
Q 384 1609 779 1909 
Q 1175 2209 1959 2209 
L 2766 2209 
L 2766 2266 
Q 2766 2663 2505 2880 
Q 2244 3097 1772 3097 
Q 1472 3097 1187 3025 
Q 903 2953 641 2809 
L 641 3341 
Q 956 3463 1253 3523 
Q 1550 3584 1831 3584 
Q 2591 3584 2966 3190 
Q 3341 2797 3341 1997 
z
" id="DejaVuSans-61" transform="scale(0.015625)"/>
       <path d="M 1959 3097 
Q 1497 3097 1228 2736 
Q 959 2375 959 1747 
Q 959 1119 1226 758 
Q 1494 397 1959 397 
Q 2419 397 2687 759 
Q 2956 1122 2956 1747 
Q 2956 2369 2687 2733 
Q 2419 3097 1959 3097 
z
M 1959 3584 
Q 2709 3584 3137 3096 
Q 3566 2609 3566 1747 
Q 3566 888 3137 398 
Q 2709 -91 1959 -91 
Q 1206 -91 779 398 
Q 353 888 353 1747 
Q 353 2609 779 3096 
Q 1206 3584 1959 3584 
z
" id="DejaVuSans-6f" transform="scale(0.015625)"/>
       <path d="M 3513 2113 
L 3513 0 
L 2938 0 
L 2938 2094 
Q 2938 2591 2744 2837 
Q 2550 3084 2163 3084 
Q 1697 3084 1428 2787 
Q 1159 2491 1159 1978 
L 1159 0 
L 581 0 
L 581 3500 
L 1159 3500 
L 1159 2956 
Q 1366 3272 1645 3428 
Q 1925 3584 2291 3584 
Q 2894 3584 3203 3211 
Q 3513 2838 3513 2113 
z
" id="DejaVuSans-6e" transform="scale(0.015625)"/>
      </defs>
      <use xlink:href="#DejaVuSans-69"/>
      <use x="27.783203" xlink:href="#DejaVuSans-74"/>
      <use x="66.992188" xlink:href="#DejaVuSans-65"/>
      <use x="128.515625" xlink:href="#DejaVuSans-72"/>
      <use x="169.628906" xlink:href="#DejaVuSans-61"/>
      <use x="230.908203" xlink:href="#DejaVuSans-74"/>
      <use x="270.117188" xlink:href="#DejaVuSans-69"/>
      <use x="297.900391" xlink:href="#DejaVuSans-6f"/>
      <use x="359.082031" xlink:href="#DejaVuSans-6e"/>
     </g>
    </g>
   </g>
   <g id="matplotlib.axis_2">
    <g id="ytick_1">
     <g id="line2d_7">
      <defs>
       <path d="M 0 0 
L -3.5 0 
" id="m528f064190" style="stroke:#ffffff;stroke-width:0.8;"/>
      </defs>
      <g>
       <use style="fill:#ffffff;stroke:#ffffff;stroke-width:0.8;" x="126" xlink:href="#m528f064190" y="484.232727"/>
      </g>
     </g>
     <g id="text_8">
      <!-- 0 -->
      <g style="fill:#ffffff;" transform="translate(112.6375 488.031946)scale(0.1 -0.1)">
       <use xlink:href="#DejaVuSans-30"/>
      </g>
     </g>
    </g>
    <g id="ytick_2">
     <g id="line2d_8">
      <g>
       <use style="fill:#ffffff;stroke:#ffffff;stroke-width:0.8;" x="126" xlink:href="#m528f064190" y="430.52461"/>
      </g>
     </g>
     <g id="text_9">
      <!-- 5000 -->
      <g style="fill:#ffffff;" transform="translate(93.55 434.323828)scale(0.1 -0.1)">
       <use xlink:href="#DejaVuSans-35"/>
       <use x="63.623047" xlink:href="#DejaVuSans-30"/>
       <use x="127.246094" xlink:href="#DejaVuSans-30"/>
       <use x="190.869141" xlink:href="#DejaVuSans-30"/>
      </g>
     </g>
    </g>
    <g id="ytick_3">
     <g id="line2d_9">
      <g>
       <use style="fill:#ffffff;stroke:#ffffff;stroke-width:0.8;" x="126" xlink:href="#m528f064190" y="376.816492"/>
      </g>
     </g>
     <g id="text_10">
      <!-- 10000 -->
      <g style="fill:#ffffff;" transform="translate(87.1875 380.615711)scale(0.1 -0.1)">
       <use xlink:href="#DejaVuSans-31"/>
       <use x="63.623047" xlink:href="#DejaVuSans-30"/>
       <use x="127.246094" xlink:href="#DejaVuSans-30"/>
       <use x="190.869141" xlink:href="#DejaVuSans-30"/>
       <use x="254.492188" xlink:href="#DejaVuSans-30"/>
      </g>
     </g>
    </g>
    <g id="ytick_4">
     <g id="line2d_10">
      <g>
       <use style="fill:#ffffff;stroke:#ffffff;stroke-width:0.8;" x="126" xlink:href="#m528f064190" y="323.108374"/>
      </g>
     </g>
     <g id="text_11">
      <!-- 15000 -->
      <g style="fill:#ffffff;" transform="translate(87.1875 326.907593)scale(0.1 -0.1)">
       <use xlink:href="#DejaVuSans-31"/>
       <use x="63.623047" xlink:href="#DejaVuSans-35"/>
       <use x="127.246094" xlink:href="#DejaVuSans-30"/>
       <use x="190.869141" xlink:href="#DejaVuSans-30"/>
       <use x="254.492188" xlink:href="#DejaVuSans-30"/>
      </g>
     </g>
    </g>
    <g id="ytick_5">
     <g id="line2d_11">
      <g>
       <use style="fill:#ffffff;stroke:#ffffff;stroke-width:0.8;" x="126" xlink:href="#m528f064190" y="269.400256"/>
      </g>
     </g>
     <g id="text_12">
      <!-- 20000 -->
      <g style="fill:#ffffff;" transform="translate(87.1875 273.199475)scale(0.1 -0.1)">
       <use xlink:href="#DejaVuSans-32"/>
       <use x="63.623047" xlink:href="#DejaVuSans-30"/>
       <use x="127.246094" xlink:href="#DejaVuSans-30"/>
       <use x="190.869141" xlink:href="#DejaVuSans-30"/>
       <use x="254.492188" xlink:href="#DejaVuSans-30"/>
      </g>
     </g>
    </g>
    <g id="ytick_6">
     <g id="line2d_12">
      <g>
       <use style="fill:#ffffff;stroke:#ffffff;stroke-width:0.8;" x="126" xlink:href="#m528f064190" y="215.692139"/>
      </g>
     </g>
     <g id="text_13">
      <!-- 25000 -->
      <g style="fill:#ffffff;" transform="translate(87.1875 219.491357)scale(0.1 -0.1)">
       <use xlink:href="#DejaVuSans-32"/>
       <use x="63.623047" xlink:href="#DejaVuSans-35"/>
       <use x="127.246094" xlink:href="#DejaVuSans-30"/>
       <use x="190.869141" xlink:href="#DejaVuSans-30"/>
       <use x="254.492188" xlink:href="#DejaVuSans-30"/>
      </g>
     </g>
    </g>
    <g id="ytick_7">
     <g id="line2d_13">
      <g>
       <use style="fill:#ffffff;stroke:#ffffff;stroke-width:0.8;" x="126" xlink:href="#m528f064190" y="161.984021"/>
      </g>
     </g>
     <g id="text_14">
      <!-- 30000 -->
      <g style="fill:#ffffff;" transform="translate(87.1875 165.78324)scale(0.1 -0.1)">
       <defs>
        <path d="M 2597 2516 
Q 3050 2419 3304 2112 
Q 3559 1806 3559 1356 
Q 3559 666 3084 287 
Q 2609 -91 1734 -91 
Q 1441 -91 1130 -33 
Q 819 25 488 141 
L 488 750 
Q 750 597 1062 519 
Q 1375 441 1716 441 
Q 2309 441 2620 675 
Q 2931 909 2931 1356 
Q 2931 1769 2642 2001 
Q 2353 2234 1838 2234 
L 1294 2234 
L 1294 2753 
L 1863 2753 
Q 2328 2753 2575 2939 
Q 2822 3125 2822 3475 
Q 2822 3834 2567 4026 
Q 2313 4219 1838 4219 
Q 1578 4219 1281 4162 
Q 984 4106 628 3988 
L 628 4550 
Q 988 4650 1302 4700 
Q 1616 4750 1894 4750 
Q 2613 4750 3031 4423 
Q 3450 4097 3450 3541 
Q 3450 3153 3228 2886 
Q 3006 2619 2597 2516 
z
" id="DejaVuSans-33" transform="scale(0.015625)"/>
       </defs>
       <use xlink:href="#DejaVuSans-33"/>
       <use x="63.623047" xlink:href="#DejaVuSans-30"/>
       <use x="127.246094" xlink:href="#DejaVuSans-30"/>
       <use x="190.869141" xlink:href="#DejaVuSans-30"/>
       <use x="254.492188" xlink:href="#DejaVuSans-30"/>
      </g>
     </g>
    </g>
    <g id="ytick_8">
     <g id="line2d_14">
      <g>
       <use style="fill:#ffffff;stroke:#ffffff;stroke-width:0.8;" x="126" xlink:href="#m528f064190" y="108.275903"/>
      </g>
     </g>
     <g id="text_15">
      <!-- 35000 -->
      <g style="fill:#ffffff;" transform="translate(87.1875 112.075122)scale(0.1 -0.1)">
       <use xlink:href="#DejaVuSans-33"/>
       <use x="63.623047" xlink:href="#DejaVuSans-35"/>
       <use x="127.246094" xlink:href="#DejaVuSans-30"/>
       <use x="190.869141" xlink:href="#DejaVuSans-30"/>
       <use x="254.492188" xlink:href="#DejaVuSans-30"/>
      </g>
     </g>
    </g>
   </g>
   <g id="line2d_15">
    <path clip-path="url(#pfe1773a370)" d="M 161.509091 216.895201 
L 161.776579 234.146248 
L 162.044068 236.799429 
L 162.311556 250.656123 
L 162.579045 237.164644 
L 162.846533 230.300747 
L 163.114022 227.647566 
L 163.38151 248.883755 
L 163.648998 238.700696 
L 164.451464 272.128629 
L 164.718952 263.954253 
L 164.986441 287.209868 
L 165.253929 276.973101 
L 165.521418 259.722054 
L 166.056394 300.422065 
L 166.591371 324.461819 
L 166.85886 341.712866 
L 167.126348 316.373376 
L 167.393837 341.712866 
L 167.661325 336.148705 
L 167.928814 315.900745 
L 168.196302 321.776413 
L 168.46379 342.024373 
L 169.266256 280.721928 
L 169.801233 318.38206 
L 170.33621 336.793203 
L 170.603698 269.905113 
L 170.871186 268.970591 
L 171.138675 288.090681 
L 171.406163 293.966349 
L 171.673652 305.030222 
L 171.94114 296.393956 
L 172.208629 271.484131 
L 172.476117 278.48767 
L 173.278582 219.752472 
L 173.546071 247.85256 
L 173.813559 243.394786 
L 174.081048 267.70308 
L 174.348536 248.088875 
L 174.616025 237.852108 
L 174.883513 254.426433 
L 175.151002 257.305188 
L 175.41849 265.941454 
L 175.953467 312.023019 
L 176.220955 305.01948 
L 176.488444 280.711186 
L 177.023421 323.666939 
L 177.290909 309.810244 
L 177.825886 260.678058 
L 178.093374 284.470754 
L 178.360863 289.573025 
L 178.89584 274.642169 
L 179.163328 280.517837 
L 179.698305 239.860792 
L 179.965794 222.609744 
L 180.233282 246.40244 
L 180.50077 243.749259 
L 180.768259 243.255145 
L 181.035747 234.618879 
L 181.303236 238.271031 
L 181.570724 248.507799 
L 181.838213 264.749133 
L 182.105701 262.020761 
L 182.37319 238.765146 
L 182.640678 228.528379 
L 182.908166 204.735683 
L 183.175655 232.37388 
L 183.443143 216.132545 
L 183.710632 218.850176 
L 183.97812 234.285889 
L 184.245609 209.977595 
L 184.513097 226.21893 
L 185.048074 191.308653 
L 185.583051 232.610196 
L 185.850539 209.354581 
L 186.118028 216.358119 
L 186.385516 211.416973 
L 186.653005 229.334001 
L 186.920493 225.155509 
L 187.187982 202.619583 
L 187.45547 219.483932 
L 187.990447 184.573655 
L 188.525424 230.118139 
L 188.792912 216.62666 
L 189.327889 240.354906 
L 189.595378 219.612831 
L 189.862866 227.787207 
L 190.130354 209.902404 
L 190.397843 199.665636 
L 190.665331 206.551017 
L 190.93282 240.097107 
L 191.735285 297.382186 
L 192.002773 300.110558 
L 192.53775 262.138919 
L 192.805239 255.13538 
L 193.072727 273.181308 
L 193.340216 251.214688 
L 193.607704 275.007384 
L 194.142681 251.375812 
L 194.410169 251.375812 
L 194.677658 260.012077 
L 194.945146 260.012077 
L 195.212635 251.375812 
L 195.480123 258.379351 
L 195.747612 277.993555 
L 196.0151 282.934702 
L 196.282589 291.570967 
L 196.550077 274.31992 
L 196.817565 285.297859 
L 197.085054 264.555784 
L 197.620031 310.637349 
L 197.887519 286.844653 
L 198.155008 275.866714 
L 198.422496 250.527224 
L 198.689985 265.962937 
L 199.224961 277.402766 
L 199.49245 274.674394 
L 199.759938 291.925441 
L 200.027427 289.20781 
L 200.294915 303.064505 
L 200.562404 328.403995 
L 200.829892 339.381934 
L 201.097381 360.038076 
L 201.364869 349.060137 
L 201.899846 314.332468 
L 202.167334 294.718263 
L 202.434823 297.435894 
L 202.702311 310.089526 
L 202.9698 304.213858 
L 203.237288 286.962811 
L 203.504777 289.691183 
L 203.772265 299.927951 
L 204.039753 323.720647 
L 205.109707 254.351242 
L 205.377196 260.22691 
L 205.644684 239.484835 
L 205.912173 233.920674 
L 206.179661 233.920674 
L 207.249615 296.050224 
L 208.05208 228.453187 
L 208.319569 245.027513 
L 208.587057 250.903181 
L 209.122034 204.574558 
L 209.389522 214.811326 
L 209.657011 201.319846 
L 209.924499 215.842521 
L 210.191988 220.783668 
L 210.459476 223.512041 
L 210.726965 216.508502 
L 210.994453 240.816796 
L 211.261941 223.565749 
L 211.52943 218.001588 
L 211.796918 233.437301 
L 212.064407 230.708928 
L 212.331895 253.964543 
L 212.599384 262.600809 
L 212.866872 267.112291 
L 213.134361 255.693945 
L 213.401849 258.422317 
L 213.669337 252.546649 
L 213.936826 229.291034 
L 214.204314 245.091962 
L 214.471803 229.656249 
L 214.739291 207.120323 
L 215.00678 196.883556 
L 215.274268 209.343839 
L 215.541757 215.219507 
L 215.809245 209.343839 
L 216.076733 200.707574 
L 216.344222 210.890633 
L 216.61171 236.230123 
L 216.879199 225.166251 
L 217.146687 250.076076 
L 217.681664 199.826761 
L 217.949153 206.830299 
L 218.216641 196.593532 
L 218.484129 178.547604 
L 218.751618 184.111765 
L 219.019106 166.226962 
L 219.286595 181.662675 
L 219.554083 319.026557 
L 219.821572 330.004496 
L 220.08906 312.753449 
L 220.624037 359.028363 
L 220.891525 363.96951 
L 221.159014 372.143886 
L 221.426502 228.53912 
L 221.693991 256.005452 
L 221.961479 258.755308 
L 222.763945 310.454742 
L 223.031433 318.71505 
L 223.56641 347.610017 
L 223.833898 338.973752 
L 224.101387 315.181056 
L 224.368875 323.817321 
L 224.636364 301.281395 
L 224.903852 293.10702 
L 225.171341 310.991823 
L 225.438829 290.743862 
L 225.706317 279.67999 
L 226.241294 310.401034 
L 226.508783 292.51623 
L 226.776271 302.699289 
L 227.578737 256.939973 
L 228.113713 230.934503 
L 228.381202 206.024678 
L 228.64869 248.432607 
L 228.916179 225.176992 
L 229.183667 235.542659 
L 229.718644 223.608715 
L 230.253621 261.161431 
L 230.788598 300.271683 
L 231.056086 308.446058 
L 231.323575 291.871733 
L 231.591063 297.747401 
L 231.858552 314.321726 
L 232.12604 297.747401 
L 232.661017 338.114422 
L 232.928505 315.578496 
L 233.195994 304.514624 
L 233.463482 287.940299 
L 233.998459 244.984546 
L 234.265948 236.348281 
L 234.533436 250.204975 
L 234.800924 273.46059 
L 235.068413 258.024877 
L 235.335901 249.850502 
L 235.870878 205.938745 
L 236.138367 223.984672 
L 236.405855 213.801613 
L 236.673344 196.937264 
L 236.940832 221.245558 
L 237.20832 229.419934 
L 237.475809 211.53513 
L 237.743297 229.419934 
L 238.010786 212.168886 
L 238.278274 227.604599 
L 238.813251 206.389893 
L 239.08074 215.026158 
L 239.348228 193.435495 
L 239.615716 186.431956 
L 239.883205 203.006281 
L 240.150693 205.734654 
L 240.418182 200.793507 
L 240.953159 241.300169 
L 241.220647 238.571797 
L 241.755624 258.776791 
L 242.023112 256.048418 
L 242.290601 256.478083 
L 242.558089 257.767078 
L 242.825578 263.642746 
L 243.093066 243.394786 
L 243.628043 278.530636 
L 243.895532 270.356261 
L 244.16302 247.100646 
L 244.430508 262.40746 
L 244.697997 268.283128 
L 244.965485 254.426433 
L 245.232974 264.6632 
L 245.500462 244.41524 
L 245.767951 244.103733 
L 246.035439 249.979401 
L 246.302928 266.84375 
L 246.570416 251.408037 
L 246.837904 245.843876 
L 247.105393 283.342884 
L 247.372881 294.406756 
L 247.64037 286.232381 
L 247.907858 308.85424 
L 248.442835 326.470502 
L 248.710324 313.81687 
L 248.977812 291.85025 
L 249.2453 284.825228 
L 249.780277 240.827538 
L 250.047766 262.794158 
L 250.315254 244.74823 
L 251.11772 287.403218 
L 251.385208 277.220158 
L 251.652696 260.978824 
L 251.920185 266.542985 
L 252.72265 212.179628 
L 252.990139 291.485034 
L 253.525116 271.40894 
L 253.792604 280.045205 
L 254.327581 306.265508 
L 254.595069 285.029319 
L 254.862558 302.935605 
L 255.130046 309.939144 
L 255.397535 291.893216 
L 255.932512 331.175333 
L 256.2 333.828514 
L 256.467488 322.764642 
L 257.269954 341.755833 
L 258.339908 283.5792 
L 258.607396 280.861569 
L 259.142373 237.905816 
L 259.409861 243.588135 
L 259.67735 226.723786 
L 260.212327 276.37157 
L 260.479815 269.368032 
L 260.747304 294.277857 
L 261.014792 299.842018 
L 261.28228 320.089978 
L 261.549769 322.81835 
L 261.817257 329.821889 
L 262.084746 317.168256 
L 262.352234 296.920296 
L 262.887211 318.586151 
L 263.422188 282.558745 
L 263.957165 236.563113 
L 264.224653 253.427462 
L 264.492142 243.244403 
L 264.75963 227.003068 
L 265.027119 245.048996 
L 265.294607 236.87462 
L 265.829584 199.268196 
L 266.097072 206.722883 
L 266.632049 244.329307 
L 267.167026 199.837502 
L 267.702003 228.485412 
L 267.969492 211.621063 
L 268.23698 210.783217 
L 268.504468 213.973479 
L 268.771957 233.587684 
L 269.039445 216.336636 
L 269.306934 291.624676 
L 269.574422 276.940876 
L 269.841911 253.14818 
L 270.109399 259.023848 
L 270.376888 284.363338 
L 271.179353 249.689377 
L 271.71433 220.79441 
L 272.249307 258.271934 
L 272.516795 280.238555 
L 272.784284 256.98294 
L 273.051772 269.636572 
L 273.31926 252.772223 
L 273.586749 277.080517 
L 273.854237 271.204849 
L 274.121726 276.145996 
L 274.389214 296.393956 
L 274.656703 271.054466 
L 274.924191 282.118339 
L 275.459168 267.917912 
L 275.726656 276.092288 
L 275.994145 278.745469 
L 276.529122 232.470555 
L 276.79661 238.034716 
L 277.064099 233.093569 
L 277.331587 230.440388 
L 277.599076 233.093569 
L 277.866564 226.09003 
L 278.134052 213.436398 
L 278.401541 192.200208 
L 278.669029 203.339272 
L 278.936518 193.768485 
L 279.204006 176.517438 
L 279.471495 186.754205 
L 279.738983 179.750666 
L 280.541448 244.425982 
L 280.808937 230.569287 
L 281.076425 239.205553 
L 281.343914 253.062247 
L 281.611402 235.177444 
L 282.413867 296.265057 
L 282.948844 251.816219 
L 283.216333 236.380506 
L 283.483821 233.652133 
L 283.75131 256.907748 
L 284.018798 267.885688 
L 284.553775 306.491083 
L 284.821263 312.055244 
L 285.088752 298.198549 
L 285.35624 275.662623 
L 285.623729 288.316256 
L 285.891217 272.074921 
L 286.158706 291.957666 
L 286.426194 300.58319 
L 286.693683 285.147477 
L 286.961171 306.383666 
L 287.228659 313.387205 
L 287.496148 334.043347 
L 287.763636 329.1022 
L 288.298613 284.073314 
L 288.83359 323.194307 
L 289.101079 325.911938 
L 289.368567 314.848066 
L 289.636055 332.099113 
L 289.903544 321.862346 
L 290.171032 324.515527 
L 290.438521 321.862346 
L 290.706009 298.606731 
L 290.973498 292.731063 
L 291.240986 272.074921 
L 291.508475 269.35729 
L 291.775963 292.612905 
L 292.043451 284.438529 
L 292.31094 282.096855 
L 292.845917 293.064053 
L 293.113405 276.822718 
L 293.648382 306.115126 
L 293.915871 283.5792 
L 294.183359 294.643072 
L 294.450847 284.460013 
L 294.718336 292.634388 
L 294.985824 225.649624 
L 295.253313 243.674068 
L 295.520801 251.848444 
L 295.78829 273.084633 
L 296.055778 284.148506 
L 296.323267 281.420133 
L 296.590755 281.259009 
L 296.858243 303.794935 
L 297.125732 286.930586 
L 297.39322 303.794935 
L 297.928197 317.426055 
L 298.195686 296.189866 
L 298.463174 307.253738 
L 298.730663 283.461042 
L 298.998151 290.346422 
L 299.533128 329.048492 
L 299.800616 317.98462 
L 300.068105 329.048492 
L 300.603082 305.41692 
L 300.87057 288.842595 
L 301.138059 299.820534 
L 301.405547 291.184269 
L 301.673035 310.798474 
L 302.208012 325.976388 
L 302.475501 323.248015 
L 302.742989 340.499063 
L 303.010478 334.934902 
L 303.277966 326.760526 
L 303.545455 308.875723 
L 303.812943 317.050098 
L 304.080431 319.778471 
L 304.34792 329.96153 
L 304.615408 324.085862 
L 304.882897 332.722127 
L 305.685362 270.893342 
L 306.220339 294.986804 
L 306.755316 249.10933 
L 307.022804 265.973679 
L 307.290293 255.736911 
L 307.557781 266.714851 
L 308.092758 232.599454 
L 308.360247 246.456149 
L 308.627735 241.515002 
L 308.895223 258.766049 
L 309.162712 252.890381 
L 309.697689 294.890129 
L 309.965177 292.236948 
L 310.232666 294.890129 
L 310.500154 308.381608 
L 310.767643 314.257276 
L 311.035131 316.985649 
L 311.570108 277.123484 
L 311.837596 274.470303 
L 312.105085 294.084507 
L 312.372573 288.208839 
L 312.90755 246.907297 
L 313.175039 244.189666 
L 313.442527 223.791323 
L 313.710015 224.919193 
L 313.977504 227.754982 
L 314.512481 204.037477 
L 314.779969 227.293092 
L 315.047458 240.397873 
L 315.314946 265.307698 
L 315.582435 267.960879 
L 315.849923 249.914951 
L 316.3849 284.288147 
L 316.652388 291.291685 
L 316.919877 294.020058 
L 317.187365 314.268018 
L 317.454854 319.209165 
L 317.722342 298.46709 
L 318.257319 338.737436 
L 318.524807 314.429142 
L 318.792296 324.612201 
L 319.059784 315.975936 
L 319.327273 313.258305 
L 319.594761 289.465609 
L 320.129738 325.643397 
L 320.397227 349.436093 
L 320.664715 333.194759 
L 320.932203 309.402063 
L 321.199692 334.741552 
L 321.734669 310.701799 
L 322.002157 321.765671 
L 322.269646 316.824524 
L 322.537134 330.681219 
L 323.339599 278.380254 
L 323.607088 283.321401 
L 323.874576 269.464706 
L 324.94453 318.124261 
L 325.212018 311.120722 
L 325.479507 293.235919 
L 326.014484 316.072611 
L 326.281972 313.344238 
L 326.549461 320.347777 
L 326.816949 336.589112 
L 327.084438 322.732417 
L 327.351926 301.990342 
L 327.619414 304.707973 
L 328.42188 264.169086 
L 328.689368 240.913471 
L 328.956857 248.894497 
L 329.224345 272.150112 
L 329.491834 259.49648 
L 329.759322 252.492941 
L 330.02681 249.83976 
L 330.294299 239.602993 
L 330.829276 281.280492 
L 331.096764 261.032532 
L 331.364253 263.685713 
L 331.631741 248.25 
L 331.89923 245.532369 
L 332.434206 259.582413 
L 332.969183 295.760201 
L 333.236672 305.94326 
L 333.50416 280.60377 
L 333.771649 272.429394 
L 334.039137 294.96532 
L 334.574114 250.516482 
L 335.109091 255.962485 
L 335.376579 233.995865 
L 335.644068 255.962485 
L 335.911556 253.244855 
L 336.179045 263.481622 
L 336.446533 278.326546 
L 336.714022 258.712341 
L 336.98151 275.286666 
L 337.516487 240.387131 
L 337.783975 238.947754 
L 338.051464 249.184521 
L 338.318952 269.926596 
L 338.586441 249.678636 
L 338.853929 244.114475 
L 339.121418 267.37009 
L 339.388906 250.119042 
L 339.656394 257.122581 
L 339.923883 246.144641 
L 340.191371 255.092414 
L 340.45886 239.656701 
L 340.726348 256.52105 
L 341.261325 221.224075 
L 341.528814 218.495702 
L 341.796302 221.213333 
L 342.06379 228.216872 
L 342.331279 248.873014 
L 342.598767 246.219833 
L 342.866256 221.310008 
L 343.133744 211.126949 
L 343.401233 226.562662 
L 343.668721 229.291034 
L 343.93621 213.855321 
L 344.471186 254.200859 
L 344.738675 233.952899 
L 345.006163 258.261193 
L 345.273652 268.444252 
L 345.54114 292.236948 
L 345.808629 267.928654 
L 346.076117 304.417949 
L 346.343606 296.490631 
L 346.611094 307.46857 
L 346.878582 304.75094 
L 347.146071 292.032857 
L 347.413559 292.032857 
L 347.681048 314.568783 
L 347.948536 228.882852 
L 348.216025 237.519118 
L 348.483513 262.428943 
L 348.751002 256.553275 
L 349.01849 270.624802 
L 349.285978 263.621263 
L 349.553467 259.786503 
L 349.820955 276.027838 
L 350.088444 262.536359 
L 350.355932 255.683203 
L 350.623421 275.297408 
L 350.890909 254.555333 
L 351.158398 257.004423 
L 351.425886 282.343913 
L 351.693374 266.102578 
L 351.960863 278.756211 
L 352.228351 273.815064 
L 352.49584 253.567103 
L 352.763328 242.213207 
L 353.030817 251.182463 
L 353.298305 271.924538 
L 353.565794 282.902477 
L 353.833282 299.476802 
L 354.10077 302.129983 
L 354.368259 317.565696 
L 354.635747 312.62455 
L 354.903236 328.865884 
L 355.170724 306.329958 
L 355.705701 290.690154 
L 355.97319 274.115829 
L 356.240678 271.462648 
L 356.508166 253.577845 
L 356.775655 259.142006 
L 357.043143 275.716331 
L 357.57812 254.555333 
L 357.845609 237.304285 
L 358.113097 259.840211 
L 358.380586 262.128177 
L 358.648074 239.592251 
L 359.183051 286.82317 
L 359.450539 267.208965 
L 359.718028 276.081546 
L 359.985516 298.048166 
L 360.253005 295.394985 
L 360.520493 289.519317 
L 360.787982 266.263702 
L 361.05547 312.527875 
L 361.322958 315.245506 
L 361.590447 333.130309 
L 361.857935 320.476676 
L 362.125424 326.352344 
L 362.392912 350.145041 
L 362.660401 343.141502 
L 362.927889 322.399427 
L 363.195378 329.402966 
L 363.462866 308.746823 
L 363.730354 332.002438 
L 363.997843 310.035818 
L 364.265331 304.16015 
L 364.53282 309.101297 
L 364.800308 302.097759 
L 365.067797 302.097759 
L 365.335285 278.842144 
L 365.602773 298.456348 
L 365.870262 295.727976 
L 366.13775 301.603644 
L 366.405239 324.859259 
L 366.672727 300.550965 
L 366.940216 308.660891 
L 367.207704 298.424123 
L 367.742681 321.314523 
L 368.010169 324.042895 
L 368.277658 305.996968 
L 368.545146 327.233158 
L 368.812635 324.504785 
L 369.080123 314.268018 
L 369.347612 338.576312 
L 369.882589 325.46079 
L 370.150077 339.317484 
L 370.685054 297.403669 
L 370.952542 315.449597 
L 371.220031 312.731966 
L 371.487519 333.388108 
L 372.022496 288.885562 
L 372.289985 288.885562 
L 372.824961 265.930712 
L 373.09245 272.934251 
L 373.627427 233.952899 
L 373.894915 239.51706 
L 374.162404 229.334001 
L 374.429892 245.67201 
L 374.964869 293.547426 
L 375.232357 301.721802 
L 375.499846 304.374983 
L 375.767334 299.433836 
L 376.034823 319.04804 
L 376.302311 303.612327 
L 376.5698 300.959146 
L 376.837288 290.776087 
L 377.372265 335.224926 
L 377.639753 350.660639 
L 377.907242 340.423871 
L 378.17473 316.631175 
L 378.442219 326.867942 
L 378.709707 347.610017 
L 378.977196 342.045856 
L 379.512173 305.062447 
L 379.779661 321.153399 
L 380.047149 298.542281 
L 380.314638 308.72534 
L 380.582126 313.666487 
L 380.849615 300.175008 
L 381.117103 316.416343 
L 381.384592 300.98063 
L 381.919569 323.022441 
L 382.187057 343.764516 
L 382.722034 309.64912 
L 383.257011 359.296904 
L 383.524499 367.933169 
L 383.791988 385.184217 
L 384.059476 382.455844 
L 384.326965 357.546019 
L 384.594453 372.981732 
L 384.861941 375.710105 
L 386.199384 290.239006 
L 386.734361 247.046938 
L 387.001849 288.262547 
L 387.804314 340.380905 
L 388.60678 282.333171 
L 388.874268 272.096404 
L 389.141757 250.860214 
L 389.409245 261.988536 
L 389.676733 284.524462 
L 390.21171 241.933925 
L 390.479199 266.84375 
L 390.746687 250.269425 
L 391.014176 274.062121 
L 391.549153 284.041089 
L 391.816641 275.866714 
L 392.084129 250.956889 
L 392.351618 275.265183 
L 392.886595 240.215265 
L 393.154083 255.650978 
L 393.421572 257.38038 
L 393.68906 274.631427 
L 393.956549 277.284608 
L 394.224037 293.525943 
L 394.491525 269.217649 
L 394.759014 273.911738 
L 395.026502 266.9082 
L 395.293991 283.482525 
L 395.561479 260.946599 
L 395.828968 273.600231 
L 396.096456 279.475899 
L 396.363945 256.220284 
L 396.631433 281.130109 
L 396.898921 283.84774 
L 397.16641 301.732543 
L 397.433898 340.144589 
L 397.701387 340.144589 
L 397.968875 330.079688 
L 398.236364 352.046308 
L 399.038829 295.470177 
L 399.306317 288.466638 
L 399.573806 311.722253 
L 399.841294 317.597921 
L 400.108783 232.567229 
L 400.64376 252.267367 
L 400.911248 274.803293 
L 401.178737 274.803293 
L 401.446225 299.713118 
L 401.713713 289.476351 
L 401.981202 292.204723 
L 402.516179 332.217271 
L 402.783667 326.65311 
L 403.051156 323.924738 
L 403.318644 303.182662 
L 403.586133 300.529481 
L 403.853621 321.765671 
L 404.121109 306.329958 
L 404.388598 281.420133 
L 404.923575 262.697483 
L 405.191063 289.068169 
L 405.458552 263.728679 
L 405.993529 241.192753 
L 406.261017 232.352397 
L 406.528505 227.368283 
L 406.795994 236.004549 
L 407.330971 273.503557 
L 407.598459 286.157189 
L 407.865948 280.281521 
L 408.133436 285.845682 
L 408.400924 219.827664 
L 408.668413 242.36359 
L 408.935901 247.175837 
L 409.470878 292.129532 
L 409.738367 305.621011 
L 410.005855 308.274192 
L 410.273344 305.621011 
L 410.540832 315.80407 
L 410.80832 308.360125 
L 411.075809 308.360125 
L 411.343297 319.338064 
L 411.610786 311.163689 
L 411.878274 313.892061 
L 412.145763 327.748756 
L 412.413251 325.020383 
L 412.68074 308.779048 
L 412.948228 284.986352 
L 413.215716 295.169411 
L 413.483205 313.054215 
L 413.750693 310.336584 
L 414.018182 300.099817 
L 414.553159 337.577341 
L 416.158089 226.100772 
L 416.425578 251.687319 
L 416.693066 254.415692 
L 416.960555 259.82947 
L 417.228043 262.482651 
L 417.495532 239.227036 
L 417.76302 234.833712 
L 418.030508 221.535582 
L 418.832974 280.850827 
L 419.100462 262.8049 
L 419.367951 283.05286 
L 419.635439 294.116732 
L 419.902928 296.834363 
L 420.170416 273.041667 
L 420.705393 296.769913 
L 420.972881 271.860088 
L 421.24037 278.863627 
L 421.507858 302.656323 
L 421.775347 296.780655 
L 422.042835 294.052282 
L 422.577812 248.830047 
L 423.112789 287.661016 
L 423.380277 284.943386 
L 423.915254 328.135454 
L 424.182743 319.499189 
L 424.71772 287.822141 
L 424.985208 308.564216 
L 425.252696 297.586277 
L 425.520185 251.483228 
L 425.787673 261.741479 
L 426.055162 253.105214 
L 426.32265 267.971621 
L 426.590139 273.847289 
L 426.857627 265.672913 
L 427.125116 250.2372 
L 427.392604 261.301072 
L 427.660092 279.185875 
L 427.927581 284.127022 
L 428.195069 294.36379 
L 428.730046 259.904661 
L 428.997535 272.558294 
L 429.265023 259.904661 
L 429.8 212.340752 
L 430.067488 214.693168 
L 430.334977 222.867543 
L 430.602465 214.693168 
L 430.869954 213.565297 
L 431.137442 227.421992 
L 431.404931 224.704361 
L 431.672419 241.955408 
L 431.939908 237.583567 
L 432.207396 291.05537 
L 432.474884 303.999026 
L 432.742373 280.20633 
L 433.009861 237.089453 
L 433.27735 261.397747 
L 433.544838 245.962034 
L 433.812327 249.420837 
L 434.079815 267.466764 
L 434.347304 271.860088 
L 434.614792 246.520598 
L 434.88228 243.577393 
L 435.149769 268.487218 
L 435.684746 292.526972 
L 435.952234 279.873339 
L 436.487211 232.996894 
L 437.022188 273.503557 
L 437.289676 270.775184 
L 437.824653 300.507998 
L 438.092142 291.871733 
L 438.35963 278.015039 
L 438.627119 303.354528 
L 439.162096 256.778849 
L 439.429584 282.118339 
L 439.964561 244.619331 
L 440.232049 231.127852 
L 440.499538 256.037677 
L 440.767026 253.320046 
L 441.034515 282.010922 
L 441.302003 278.734727 
L 441.569492 300.701347 
L 441.83698 313.35498 
L 442.104468 215.294699 
L 442.371957 255.887294 
L 442.639445 273.933222 
L 442.906934 280.93676 
L 443.441911 255.317988 
L 443.709399 256.961456 
L 443.976888 240.097107 
L 444.244376 242.82548 
L 444.779353 280.14188 
L 445.046841 274.266212 
L 445.31433 276.919393 
L 445.581818 287.102452 
L 446.116795 236.853137 
L 446.384284 223.361658 
L 446.651772 223.361658 
L 446.91926 243.770743 
L 447.186749 252.031051 
L 447.454237 271.645256 
L 447.721726 247.336962 
L 447.989214 236.273089 
L 448.256703 260.065786 
L 448.524191 271.129658 
L 448.79168 287.865107 
L 449.059168 315.857778 
L 449.326656 307.221513 
L 449.594145 329.027009 
L 449.861633 318.049069 
L 450.129122 197.119872 
L 450.39661 217.657856 
L 450.664099 205.004223 
L 450.931587 225.252184 
L 451.199076 224.672136 
L 451.466564 204.424176 
L 451.734052 213.060441 
L 452.269029 245.962034 
L 452.536518 252.965572 
L 452.804006 236.391247 
L 453.071495 247.45512 
L 453.338983 244.737489 
L 453.606471 227.87314 
L 453.87396 227.87314 
L 454.676425 283.729582 
L 454.943914 286.382763 
L 455.211402 299.874242 
L 455.478891 297.221061 
L 455.746379 320.476676 
L 456.281356 289.938241 
L 456.548844 289.938241 
L 456.816333 266.682626 
L 457.35131 306.082901 
L 457.618798 329.875597 
L 458.153775 285.319343 
L 458.421263 309.627637 
L 458.95624 272.397169 
L 459.223729 285.050802 
L 459.491217 279.486641 
L 459.758706 287.661016 
L 460.026194 262.321527 
L 460.293683 281.935731 
L 460.561171 244.995288 
L 460.828659 255.178347 
L 461.096148 272.429394 
L 461.363636 255.178347 
L 461.898613 295.835392 
L 462.166102 272.042696 
L 462.43359 289.293743 
L 462.701079 272.719418 
L 463.236055 297.554052 
L 463.503544 272.214562 
L 464.038521 305.610269 
L 464.306009 294.63233 
L 464.573498 319.97182 
L 464.840986 299.315678 
L 465.108475 312.807157 
L 465.375963 307.86601 
L 465.643451 305.212829 
L 465.91094 327.748756 
L 466.178428 317.565696 
L 466.445917 341.358393 
L 466.713405 320.616318 
L 466.980894 323.34469 
L 467.248382 301.37807 
L 467.515871 319.423997 
L 467.783359 302.559648 
L 468.050847 312.742707 
L 468.318336 312.742707 
L 468.585824 315.395888 
L 469.120801 283.493267 
L 469.38829 267.251932 
L 469.655778 278.229871 
L 469.923267 252.890381 
L 470.190755 269.464706 
L 470.458243 238.26029 
L 470.725732 244.522656 
L 470.99322 264.770617 
L 471.260709 251.257654 
L 471.528197 262.235594 
L 472.063174 291.463551 
L 472.330663 238.346223 
L 472.598151 243.910384 
L 472.865639 224.296179 
L 473.133128 224.876227 
L 473.400616 237.529859 
L 473.668105 240.18304 
L 473.935593 259.797245 
L 474.203082 264.738392 
L 474.47057 290.077882 
L 474.738059 283.074343 
L 475.005547 280.421162 
L 475.273035 283.074343 
L 476.075501 220.751443 
L 476.342989 259.786503 
L 476.610478 250.548707 
L 476.877966 251.719544 
L 477.145455 241.482777 
L 477.412943 280.152622 
L 477.680431 190.019658 
L 477.94792 210.675801 
L 478.215408 215.616947 
L 478.482897 212.888575 
L 478.750385 225.542207 
L 479.017874 200.632382 
L 479.552851 216.272186 
L 480.087827 256.692916 
L 480.355316 235.456726 
L 480.622804 226.820461 
L 481.157781 199.515254 
L 481.692758 206.411376 
L 481.960247 201.019081 
L 482.227735 203.736712 
L 482.495223 213.919771 
L 482.762712 208.044103 
L 483.0302 333.216242 
L 483.297689 335.944614 
L 483.565177 315.696654 
L 483.832666 328.350286 
L 484.100154 311.099239 
L 484.367643 302.462974 
L 485.170108 350.821763 
L 485.437596 345.257602 
L 485.972573 299.466061 
L 486.240062 305.030222 
L 486.50755 302.301849 
L 487.042527 258.916432 
L 487.310015 276.962359 
L 487.577504 279.67999 
L 488.112481 321.239332 
L 488.379969 318.521701 
L 489.182435 271.720447 
L 489.449923 292.462522 
L 489.717411 282.225755 
L 489.9849 257.31593 
L 490.252388 267.498989 
L 490.519877 243.190695 
L 490.787365 263.846837 
L 491.054854 251.193205 
L 491.322342 262.171144 
L 491.589831 256.606983 
L 492.124807 222.652711 
L 492.392296 259.958369 
L 492.659784 257.240739 
L 492.927273 277.896881 
L 493.194761 265.243248 
L 493.46225 288.498863 
L 493.729738 289.830824 
L 493.997227 277.177192 
L 494.264715 292.269173 
L 494.799692 247.111388 
L 495.06718 257.294447 
L 495.334669 231.954957 
L 495.602157 231.954957 
L 495.869646 237.830625 
L 496.137134 214.57501 
L 496.404622 206.400634 
L 496.672111 238.679213 
L 496.939599 234.500722 
L 497.207088 240.064883 
L 497.474576 227.41125 
L 497.742065 224.758069 
L 498.009553 231.761608 
L 498.277042 224.758069 
L 498.54453 222.029697 
L 498.812018 202.415492 
L 499.079507 216.272186 
L 499.346995 216.272186 
L 499.614484 206.089127 
L 500.416949 269.42174 
L 500.684438 260.785474 
L 500.951926 240.043399 
L 501.219414 248.217775 
L 501.754391 208.323385 
L 502.02188 208.323385 
L 502.289368 234.919645 
L 502.556857 250.355358 
L 502.824345 232.30943 
L 503.091834 255.565045 
L 503.894299 208.516734 
L 504.161787 205.799103 
L 504.429276 193.789968 
L 504.696764 215.756588 
L 504.964253 221.514099 
L 505.231741 262.396718 
L 505.49923 259.517963 
L 506.034206 301.335103 
L 506.301695 280.678961 
L 506.569183 286.554629 
L 506.836672 273.900997 
L 507.10416 278.842144 
L 507.371649 300.078333 
L 507.639137 289.100394 
L 507.906626 304.536107 
L 508.441602 346.095449 
L 508.709091 328.210645 
L 508.976579 348.866787 
L 509.511556 312.678258 
L 509.779045 287.768433 
L 510.046533 282.827286 
L 510.314022 274.65291 
L 510.58151 204.391951 
L 510.848998 189.031429 
L 511.116487 204.467142 
L 511.383975 229.806632 
L 511.651464 204.896807 
L 511.918952 204.531592 
L 512.186441 188.290257 
L 512.453929 209.526447 
L 512.721418 209.687571 
L 512.988906 212.405202 
L 513.523883 256.961456 
L 513.791371 234.994836 
L 514.05886 248.851531 
L 514.593837 203.307047 
L 515.128814 219.892114 
L 515.396302 217.238932 
L 516.198767 275.480015 
L 516.466256 257.434088 
L 516.733744 248.797822 
L 517.001233 229.183618 
L 517.268721 251.150238 
L 517.803698 216.916684 
L 518.071186 233.781033 
L 518.606163 193.951093 
L 518.873652 217.206708 
L 519.14114 228.27058 
L 519.408629 245.521627 
L 519.676117 225.273667 
L 519.943606 241.847992 
L 520.211094 231.611225 
L 520.478582 262.966024 
L 520.746071 262.966024 
L 521.013559 283.708099 
L 521.281048 289.27226 
L 521.816025 333.828514 
L 522.083513 319.97182 
L 522.351002 340.627962 
L 522.61849 331.991697 
L 523.153467 355.666235 
L 523.420955 335.418275 
L 523.688444 357.954201 
L 523.955932 357.954201 
L 524.490909 317.533472 
L 524.758398 307.296704 
L 525.025886 290.722379 
L 525.293374 306.963714 
L 525.560863 294.310081 
L 525.828351 313.924286 
L 526.09584 295.878358 
L 526.363328 304.514624 
L 526.630817 322.560551 
L 527.433282 252.600357 
L 527.70077 270.48516 
L 527.968259 263.481622 
L 528.235747 276.135254 
L 528.503236 283.138793 
L 528.770724 269.647314 
L 529.038213 279.884081 
L 529.305701 274.942934 
L 530.108166 235.789716 
L 530.375655 210.450226 
L 530.910632 210.450226 
L 531.17812 200.267167 
L 531.445609 212.9208 
L 531.713097 210.192427 
L 532.248074 252.321075 
L 532.515562 229.06546 
L 533.050539 274.71736 
L 533.585516 228.635795 
L 533.853005 229.548833 
L 534.120493 205.756137 
L 534.387982 251.547678 
L 534.65547 234.296631 
L 534.922958 230.622995 
L 535.190447 221.98673 
L 535.457935 234.382564 
L 535.725424 255.618753 
L 535.992912 249.743085 
L 536.795378 309.498737 
L 537.062866 294.063024 
L 537.597843 248.303708 
L 537.865331 259.281647 
L 538.13282 259.281647 
L 538.400308 254.3405 
L 538.667797 231.804574 
L 538.935285 245.296053 
L 539.202773 267.262673 
L 539.73775 230.365196 
L 540.005239 230.365196 
L 540.272727 250.613157 
L 540.807704 221.578548 
L 541.075193 221.578548 
L 541.342681 201.330588 
L 541.610169 217.571923 
L 541.877658 214.84355 
L 542.145146 206.669175 
L 542.412635 215.30544 
L 542.680123 239.45261 
L 542.947612 230.816345 
L 543.2151 226.261896 
L 543.482589 248.797822 
L 543.750077 256.972198 
L 544.017565 245.994259 
L 544.285054 266.650401 
L 544.552542 277.714273 
L 544.820031 277.714273 
L 545.087519 254.458658 
L 545.355008 254.458658 
L 545.889985 224.553978 
L 546.424961 251.064305 
L 546.959938 245.682752 
L 547.494915 216.16477 
L 547.762404 234.049573 
L 548.029892 212.082953 
L 548.832357 276.650852 
L 549.099846 258.766049 
L 549.367334 265.769588 
L 549.634823 260.205427 
L 549.902311 262.933799 
L 550.437288 241.267944 
L 550.972265 281.280492 
L 551.239753 281.280492 
L 551.77473 234.404047 
L 552.042219 231.675675 
L 552.309707 234.404047 
L 552.577196 228.678762 
L 552.844684 245.543111 
L 553.112173 224.886968 
L 553.379661 224.801035 
L 553.647149 232.975411 
L 553.914638 208.667117 
L 554.182126 244.533398 
L 554.449615 250.097559 
L 554.984592 226.465987 
L 555.25208 226.465987 
L 555.519569 203.930061 
L 556.054545 247.841818 
L 556.322034 242.277657 
L 556.589522 247.218804 
L 556.857011 227.604599 
L 557.124499 252.514424 
L 557.391988 249.861243 
L 557.659476 265.952195 
L 558.194453 254.351242 
L 558.461941 241.783542 
L 558.72943 258.647891 
L 558.996918 259.775762 
L 559.264407 256.628466 
L 559.799384 270.431452 
L 560.066872 267.70308 
L 560.601849 227.056776 
L 560.869337 227.056776 
L 561.136826 237.293544 
L 561.671803 247.336962 
L 561.939291 255.511337 
L 562.474268 222.11563 
L 562.741757 233.093569 
L 563.009245 207.754079 
L 563.276733 233.093569 
L 563.544222 208.785275 
L 563.81171 208.785275 
L 564.079199 200.696832 
L 564.346687 214.489077 
L 564.614176 214.489077 
L 564.881664 227.142709 
L 565.149153 227.142709 
L 565.416641 227.851657 
L 565.684129 215.198024 
L 565.951618 230.633737 
L 566.219106 230.633737 
L 566.486595 206.841041 
L 566.754083 206.841041 
L 567.021572 227.583116 
L 567.28906 237.766175 
L 567.556549 230.762637 
L 567.824037 212.716709 
L 568.091525 235.252635 
L 568.359014 242.256174 
L 568.626502 266.04887 
L 569.428968 236.111965 
L 570.231433 177.183418 
L 570.498921 188.247291 
L 570.76641 188.247291 
L 571.033898 172.811578 
L 571.301387 172.811578 
L 571.568875 164.562011 
L 571.836364 172.62897 
L 572.103852 165.625431 
L 572.371341 167.2689 
L 572.638829 164.379403 
L 572.906317 173.015668 
L 573.173806 174.74507 
L 573.441294 154.497109 
L 573.976271 154.497109 
L 574.24376 196.475374 
L 574.511248 212.716709 
L 574.778737 212.716709 
L 575.046225 202.53365 
L 575.313713 216.390344 
L 575.84869 192.662098 
L 576.116179 216.970392 
L 576.383667 200.396067 
L 576.651156 195.45492 
L 576.918644 195.45492 
L 577.186133 221.804123 
L 577.988598 221.804123 
L 578.256086 234.457755 
L 578.523575 234.457755 
L 578.791063 252.503683 
L 579.058552 235.639334 
L 579.32604 235.639334 
L 579.593529 237.196869 
L 579.861017 237.196869 
L 580.128505 239.925241 
L 580.395994 219.677281 
L 580.663482 219.677281 
L 580.930971 238.765146 
L 581.465948 238.765146 
L 581.733436 241.418327 
L 582.268413 241.418327 
L 582.535901 224.844002 
L 582.80339 227.636824 
L 583.070878 224.865485 
L 583.338367 235.929357 
L 583.605855 235.929357 
L 583.873344 224.865485 
L 584.140832 235.929357 
L 584.675809 235.929357 
L 584.943297 224.951418 
L 585.478274 224.951418 
L 585.745763 214.714651 
L 586.28074 214.714651 
L 586.548228 206.078386 
L 586.815716 228.045006 
L 587.083205 239.022945 
L 587.350693 217.056325 
L 587.618182 217.056325 
L 587.88567 192.748031 
L 588.153159 192.748031 
L 588.420647 205.401663 
L 588.688136 204.574558 
L 588.955624 224.822519 
L 589.223112 227.207159 
L 589.490601 231.482325 
L 589.758089 248.507799 
L 590.025578 253.448945 
L 590.293066 267.498989 
L 590.828043 267.498989 
L 591.095532 255.779878 
L 591.36302 258.433059 
L 591.630508 282.225755 
L 591.897997 292.408814 
L 592.165485 269.872888 
L 592.432974 263.99722 
L 592.700462 243.341078 
L 592.967951 243.341078 
L 593.235439 253.577845 
L 593.502928 243.341078 
L 593.770416 243.341078 
L 594.037904 231.074144 
L 595.375347 231.074144 
L 595.642835 233.802516 
L 595.910324 225.62814 
L 596.177812 225.62814 
L 596.4453 212.974508 
L 596.712789 232.535004 
L 596.980277 232.535004 
L 597.247766 239.302227 
L 597.515254 243.22292 
L 597.782743 263.879062 
L 598.31772 258.497509 
L 598.585208 258.497509 
L 598.852696 208.108552 
L 599.120185 197.119872 
L 599.387673 197.119872 
L 599.655162 188.945496 
L 600.190139 232.169789 
L 600.457627 232.169789 
L 600.725116 207.861495 
L 600.992604 205.014965 
L 601.795069 177.043777 
L 602.330046 177.043777 
L 602.597535 202.00731 
L 602.865023 202.00731 
L 603.132512 225.262925 
L 603.4 225.262925 
L 603.667488 233.018377 
L 603.934977 215.133574 
L 604.469954 215.133574 
L 604.737442 229.914048 
L 605.004931 229.914048 
L 605.272419 232.910961 
L 605.539908 238.475122 
L 605.807396 256.359925 
L 606.074884 256.359925 
L 606.342373 235.123736 
L 606.609861 232.406105 
L 606.87735 209.15049 
L 607.947304 209.15049 
L 608.214792 196.496857 
L 608.48228 196.496857 
L 608.749769 203.640037 
L 609.017257 203.640037 
L 609.284746 206.067644 
L 609.552234 189.826309 
L 610.087211 189.826309 
L 610.3547 207.045132 
L 611.424653 207.045132 
L 611.692142 230.837828 
L 612.227119 230.837828 
L 612.494607 207.582213 
L 613.029584 207.582213 
L 613.297072 223.823548 
L 613.564561 223.823548 
L 613.832049 218.882401 
L 614.099538 198.634441 
L 614.367026 201.352071 
L 614.902003 201.352071 
L 615.169492 180.609996 
L 616.239445 180.609996 
L 616.506934 188.784372 
L 616.774422 178.547604 
L 617.041911 178.547604 
L 617.309399 191.201237 
L 617.576888 191.201237 
L 617.844376 188.472865 
L 618.111864 188.472865 
L 618.379353 181.254494 
L 618.646841 185.937841 
L 618.91433 185.937841 
L 619.181818 191.81351 
L 619.449307 191.81351 
L 619.716795 166.47402 
L 619.984284 166.47402 
L 620.251772 146.505341 
L 621.054237 146.505341 
L 621.321726 139.501803 
L 630.148844 139.501803 
L 630.416333 144.808165 
L 630.683821 144.808165 
L 630.95131 126.762237 
L 631.486287 126.676304 
L 633.626194 126.676304 
L 633.893683 118.040039 
L 634.428659 118.040039 
L 634.696148 115.386858 
L 635.231125 115.386858 
L 635.498613 113.711165 
L 635.766102 113.711165 
L 636.03359 123.947932 
L 636.301079 113.711165 
L 638.173498 113.711165 
L 638.440986 123.947932 
L 638.975963 123.947932 
L 639.243451 112.969993 
L 642.453313 112.969993 
L 642.720801 115.698365 
L 645.930663 115.698365 
L 646.198151 105.461598 
L 646.465639 105.461598 
L 646.733128 88.887273 
L 649.675501 88.887273 
L 649.942989 91.540454 
L 653.955316 91.540454 
L 654.222804 101.777221 
L 655.560247 101.777221 
L 655.827735 99.12404 
L 656.095223 88.887273 
L 669.737134 88.887273 
L 670.004622 91.540454 
L 679.634206 91.540454 
L 679.901695 93.602845 
L 682.041602 93.602845 
L 682.309091 90.949664 
L 871.690909 90.949664 
L 871.690909 90.949664 
" style="fill:none;stroke:#8dd3c7;stroke-linecap:square;stroke-width:1.5;"/>
   </g>
   <g id="line2d_16">
    <path clip-path="url(#pfe1773a370)" d="M 161.509091 216.895201 
L 182.640678 216.895201 
L 182.908166 204.735683 
L 184.780586 204.735683 
L 185.048074 191.308653 
L 187.722958 191.308653 
L 187.990447 184.573655 
L 218.216641 184.573655 
L 218.484129 178.547604 
L 218.751618 178.547604 
L 219.019106 166.226962 
L 571.301387 166.226962 
L 571.568875 164.562011 
L 572.371341 164.562011 
L 572.638829 164.379403 
L 573.173806 164.379403 
L 573.441294 154.497109 
L 619.984284 154.497109 
L 620.251772 146.505341 
L 621.054237 146.505341 
L 621.321726 139.501803 
L 630.683821 139.501803 
L 630.95131 126.762237 
L 631.486287 126.676304 
L 633.626194 126.676304 
L 633.893683 118.040039 
L 634.428659 118.040039 
L 634.696148 115.386858 
L 635.231125 115.386858 
L 635.498613 113.711165 
L 638.975963 113.711165 
L 639.243451 112.969993 
L 645.930663 112.969993 
L 646.198151 105.461598 
L 646.465639 105.461598 
L 646.733128 88.887273 
L 871.690909 88.887273 
L 871.690909 88.887273 
" style="fill:none;stroke:#feffb3;stroke-linecap:square;stroke-width:1.5;"/>
   </g>
   <g id="line2d_17">
    <path clip-path="url(#pfe1773a370)" d="M 161.509091 297.096459 
L 163.38151 297.096459 
L 163.648998 308.743144 
L 165.521418 308.743144 
L 165.788906 319.664982 
L 167.661325 319.664982 
L 167.928814 329.907083 
L 169.801233 329.907083 
L 170.068721 339.511754 
L 171.94114 339.511754 
L 172.208629 348.518664 
L 174.081048 348.518664 
L 174.348536 356.965017 
L 176.220955 356.965017 
L 176.488444 364.8857 
L 178.360863 364.8857 
L 178.628351 372.313428 
L 180.50077 372.313428 
L 180.768259 379.278881 
L 182.640678 379.278881 
L 182.908166 385.810829 
L 184.780586 385.810829 
L 185.048074 391.936252 
L 186.920493 391.936252 
L 187.187982 397.680451 
L 189.060401 397.680451 
L 189.327889 403.067152 
L 191.200308 403.067152 
L 191.467797 408.118604 
L 193.340216 408.118604 
L 193.607704 412.855672 
L 195.480123 412.855672 
L 195.747612 417.297922 
L 197.620031 417.297922 
L 197.887519 421.463703 
L 199.759938 421.463703 
L 200.027427 425.37022 
L 201.899846 425.37022 
L 202.167334 429.03361 
L 204.039753 429.03361 
L 204.307242 432.469004 
L 206.179661 432.469004 
L 206.447149 435.690591 
L 208.319569 435.690591 
L 208.587057 438.711678 
L 210.459476 438.711678 
L 210.726965 441.544744 
L 212.599384 441.544744 
L 212.866872 444.20149 
L 214.739291 444.20149 
L 215.00678 446.692889 
L 216.879199 446.692889 
L 217.146687 449.029233 
L 219.019106 449.029233 
L 219.286595 451.220171 
L 221.159014 451.220171 
L 221.426502 453.274754 
L 223.298921 453.274754 
L 223.56641 455.201466 
L 225.438829 455.201466 
L 225.706317 457.008267 
L 227.578737 457.008267 
L 227.846225 458.702619 
L 229.718644 458.702619 
L 229.986133 460.291521 
L 231.858552 460.291521 
L 232.12604 461.781535 
L 233.998459 461.781535 
L 234.265948 463.178816 
L 236.138367 463.178816 
L 236.405855 464.489135 
L 238.278274 464.489135 
L 238.545763 465.717905 
L 240.418182 465.717905 
L 240.68567 466.870201 
L 242.558089 466.870201 
L 242.825578 467.950782 
L 244.697997 467.950782 
L 244.965485 468.964111 
L 246.837904 468.964111 
L 247.105393 469.914375 
L 248.977812 469.914375 
L 249.2453 470.805497 
L 251.11772 470.805497 
L 251.385208 471.64116 
L 253.257627 471.64116 
L 253.525116 472.424813 
L 255.397535 472.424813 
L 255.665023 473.159695 
L 257.537442 473.159695 
L 257.804931 473.848841 
L 259.67735 473.848841 
L 259.944838 474.495096 
L 261.817257 474.495096 
L 262.084746 475.101131 
L 263.957165 475.101131 
L 264.224653 475.669449 
L 266.097072 475.669449 
L 266.364561 476.202396 
L 268.23698 476.202396 
L 268.504468 476.702175 
L 270.376888 476.702175 
L 270.644376 477.170849 
L 272.516795 477.170849 
L 272.784284 477.610355 
L 274.656703 477.610355 
L 274.924191 478.022508 
L 276.79661 478.022508 
L 277.064099 478.409009 
L 278.936518 478.409009 
L 279.204006 478.771457 
L 281.076425 478.771457 
L 281.343914 479.111346 
L 283.216333 479.111346 
L 283.483821 479.430083 
L 285.35624 479.430083 
L 285.623729 479.728982 
L 287.496148 479.728982 
L 287.763636 480.009279 
L 289.636055 480.009279 
L 289.903544 480.272131 
L 291.775963 480.272131 
L 292.043451 480.518624 
L 293.915871 480.518624 
L 294.183359 480.749776 
L 296.055778 480.749776 
L 296.323267 480.966543 
L 298.195686 480.966543 
L 298.463174 481.169818 
L 300.335593 481.169818 
L 300.603082 481.360443 
L 302.475501 481.360443 
L 302.742989 481.539203 
L 304.615408 481.539203 
L 304.882897 481.706839 
L 306.755316 481.706839 
L 307.022804 481.864041 
L 308.895223 481.864041 
L 309.162712 482.011459 
L 311.035131 482.011459 
L 311.302619 482.149703 
L 313.175039 482.149703 
L 313.442527 482.279343 
L 315.314946 482.279343 
L 315.849923 482.400914 
L 317.454854 482.400914 
L 317.989831 482.51492 
L 321.734669 482.62183 
L 322.269646 482.722086 
L 326.014484 482.816103 
L 326.549461 482.904269 
L 330.294299 482.986947 
L 330.829276 483.06448 
L 334.574114 483.137188 
L 335.109091 483.20537 
L 338.853929 483.269309 
L 339.388906 483.329269 
L 345.273652 483.438225 
L 346.076117 483.487672 
L 351.693374 483.577525 
L 352.49584 483.618303 
L 360.253005 483.72603 
L 361.322958 483.757565 
L 370.952542 483.865263 
L 372.289985 483.888132 
L 385.931895 483.998375 
L 388.339291 484.026638 
L 415.890601 484.137409 
L 421.507858 484.154121 
L 871.690909 484.232727 
L 871.690909 484.232727 
" style="fill:none;stroke:#bfbbd9;stroke-linecap:square;stroke-width:1.5;"/>
   </g>
   <g id="patch_3">
    <path d="M 126 504 
L 126 69.12 
" style="fill:none;stroke:#ffffff;stroke-linecap:square;stroke-linejoin:miter;stroke-width:0.8;"/>
   </g>
   <g id="patch_4">
    <path d="M 907.2 504 
L 907.2 69.12 
" style="fill:none;stroke:#ffffff;stroke-linecap:square;stroke-linejoin:miter;stroke-width:0.8;"/>
   </g>
   <g id="patch_5">
    <path d="M 126 504 
L 907.2 504 
" style="fill:none;stroke:#ffffff;stroke-linecap:square;stroke-linejoin:miter;stroke-width:0.8;"/>
   </g>
   <g id="patch_6">
    <path d="M 126 69.12 
L 907.2 69.12 
" style="fill:none;stroke:#ffffff;stroke-linecap:square;stroke-linejoin:miter;stroke-width:0.8;"/>
   </g>
   <g id="text_16">
    <!-- instance 3 with error 0.02389540126239853 -->
    <g style="fill:#ffffff;" transform="translate(381.864375 63.12)scale(0.12 -0.12)">
     <defs>
      <path d="M 2834 3397 
L 2834 2853 
Q 2591 2978 2328 3040 
Q 2066 3103 1784 3103 
Q 1356 3103 1142 2972 
Q 928 2841 928 2578 
Q 928 2378 1081 2264 
Q 1234 2150 1697 2047 
L 1894 2003 
Q 2506 1872 2764 1633 
Q 3022 1394 3022 966 
Q 3022 478 2636 193 
Q 2250 -91 1575 -91 
Q 1294 -91 989 -36 
Q 684 19 347 128 
L 347 722 
Q 666 556 975 473 
Q 1284 391 1588 391 
Q 1994 391 2212 530 
Q 2431 669 2431 922 
Q 2431 1156 2273 1281 
Q 2116 1406 1581 1522 
L 1381 1569 
Q 847 1681 609 1914 
Q 372 2147 372 2553 
Q 372 3047 722 3315 
Q 1072 3584 1716 3584 
Q 2034 3584 2315 3537 
Q 2597 3491 2834 3397 
z
" id="DejaVuSans-73" transform="scale(0.015625)"/>
      <path d="M 3122 3366 
L 3122 2828 
Q 2878 2963 2633 3030 
Q 2388 3097 2138 3097 
Q 1578 3097 1268 2742 
Q 959 2388 959 1747 
Q 959 1106 1268 751 
Q 1578 397 2138 397 
Q 2388 397 2633 464 
Q 2878 531 3122 666 
L 3122 134 
Q 2881 22 2623 -34 
Q 2366 -91 2075 -91 
Q 1284 -91 818 406 
Q 353 903 353 1747 
Q 353 2603 823 3093 
Q 1294 3584 2113 3584 
Q 2378 3584 2631 3529 
Q 2884 3475 3122 3366 
z
" id="DejaVuSans-63" transform="scale(0.015625)"/>
      <path id="DejaVuSans-20" transform="scale(0.015625)"/>
      <path d="M 269 3500 
L 844 3500 
L 1563 769 
L 2278 3500 
L 2956 3500 
L 3675 769 
L 4391 3500 
L 4966 3500 
L 4050 0 
L 3372 0 
L 2619 2869 
L 1863 0 
L 1184 0 
L 269 3500 
z
" id="DejaVuSans-77" transform="scale(0.015625)"/>
      <path d="M 3513 2113 
L 3513 0 
L 2938 0 
L 2938 2094 
Q 2938 2591 2744 2837 
Q 2550 3084 2163 3084 
Q 1697 3084 1428 2787 
Q 1159 2491 1159 1978 
L 1159 0 
L 581 0 
L 581 4863 
L 1159 4863 
L 1159 2956 
Q 1366 3272 1645 3428 
Q 1925 3584 2291 3584 
Q 2894 3584 3203 3211 
Q 3513 2838 3513 2113 
z
" id="DejaVuSans-68" transform="scale(0.015625)"/>
      <path d="M 684 794 
L 1344 794 
L 1344 0 
L 684 0 
L 684 794 
z
" id="DejaVuSans-2e" transform="scale(0.015625)"/>
      <path d="M 2034 2216 
Q 1584 2216 1326 1975 
Q 1069 1734 1069 1313 
Q 1069 891 1326 650 
Q 1584 409 2034 409 
Q 2484 409 2743 651 
Q 3003 894 3003 1313 
Q 3003 1734 2745 1975 
Q 2488 2216 2034 2216 
z
M 1403 2484 
Q 997 2584 770 2862 
Q 544 3141 544 3541 
Q 544 4100 942 4425 
Q 1341 4750 2034 4750 
Q 2731 4750 3128 4425 
Q 3525 4100 3525 3541 
Q 3525 3141 3298 2862 
Q 3072 2584 2669 2484 
Q 3125 2378 3379 2068 
Q 3634 1759 3634 1313 
Q 3634 634 3220 271 
Q 2806 -91 2034 -91 
Q 1263 -91 848 271 
Q 434 634 434 1313 
Q 434 1759 690 2068 
Q 947 2378 1403 2484 
z
M 1172 3481 
Q 1172 3119 1398 2916 
Q 1625 2713 2034 2713 
Q 2441 2713 2670 2916 
Q 2900 3119 2900 3481 
Q 2900 3844 2670 4047 
Q 2441 4250 2034 4250 
Q 1625 4250 1398 4047 
Q 1172 3844 1172 3481 
z
" id="DejaVuSans-38" transform="scale(0.015625)"/>
      <path d="M 703 97 
L 703 672 
Q 941 559 1184 500 
Q 1428 441 1663 441 
Q 2288 441 2617 861 
Q 2947 1281 2994 2138 
Q 2813 1869 2534 1725 
Q 2256 1581 1919 1581 
Q 1219 1581 811 2004 
Q 403 2428 403 3163 
Q 403 3881 828 4315 
Q 1253 4750 1959 4750 
Q 2769 4750 3195 4129 
Q 3622 3509 3622 2328 
Q 3622 1225 3098 567 
Q 2575 -91 1691 -91 
Q 1453 -91 1209 -44 
Q 966 3 703 97 
z
M 1959 2075 
Q 2384 2075 2632 2365 
Q 2881 2656 2881 3163 
Q 2881 3666 2632 3958 
Q 2384 4250 1959 4250 
Q 1534 4250 1286 3958 
Q 1038 3666 1038 3163 
Q 1038 2656 1286 2365 
Q 1534 2075 1959 2075 
z
" id="DejaVuSans-39" transform="scale(0.015625)"/>
      <path d="M 2419 4116 
L 825 1625 
L 2419 1625 
L 2419 4116 
z
M 2253 4666 
L 3047 4666 
L 3047 1625 
L 3713 1625 
L 3713 1100 
L 3047 1100 
L 3047 0 
L 2419 0 
L 2419 1100 
L 313 1100 
L 313 1709 
L 2253 4666 
z
" id="DejaVuSans-34" transform="scale(0.015625)"/>
      <path d="M 2113 2584 
Q 1688 2584 1439 2293 
Q 1191 2003 1191 1497 
Q 1191 994 1439 701 
Q 1688 409 2113 409 
Q 2538 409 2786 701 
Q 3034 994 3034 1497 
Q 3034 2003 2786 2293 
Q 2538 2584 2113 2584 
z
M 3366 4563 
L 3366 3988 
Q 3128 4100 2886 4159 
Q 2644 4219 2406 4219 
Q 1781 4219 1451 3797 
Q 1122 3375 1075 2522 
Q 1259 2794 1537 2939 
Q 1816 3084 2150 3084 
Q 2853 3084 3261 2657 
Q 3669 2231 3669 1497 
Q 3669 778 3244 343 
Q 2819 -91 2113 -91 
Q 1303 -91 875 529 
Q 447 1150 447 2328 
Q 447 3434 972 4092 
Q 1497 4750 2381 4750 
Q 2619 4750 2861 4703 
Q 3103 4656 3366 4563 
z
" id="DejaVuSans-36" transform="scale(0.015625)"/>
     </defs>
     <use xlink:href="#DejaVuSans-69"/>
     <use x="27.783203" xlink:href="#DejaVuSans-6e"/>
     <use x="91.162109" xlink:href="#DejaVuSans-73"/>
     <use x="143.261719" xlink:href="#DejaVuSans-74"/>
     <use x="182.470703" xlink:href="#DejaVuSans-61"/>
     <use x="243.75" xlink:href="#DejaVuSans-6e"/>
     <use x="307.128906" xlink:href="#DejaVuSans-63"/>
     <use x="362.109375" xlink:href="#DejaVuSans-65"/>
     <use x="423.632812" xlink:href="#DejaVuSans-20"/>
     <use x="455.419922" xlink:href="#DejaVuSans-33"/>
     <use x="519.042969" xlink:href="#DejaVuSans-20"/>
     <use x="550.830078" xlink:href="#DejaVuSans-77"/>
     <use x="632.617188" xlink:href="#DejaVuSans-69"/>
     <use x="660.400391" xlink:href="#DejaVuSans-74"/>
     <use x="699.609375" xlink:href="#DejaVuSans-68"/>
     <use x="762.988281" xlink:href="#DejaVuSans-20"/>
     <use x="794.775391" xlink:href="#DejaVuSans-65"/>
     <use x="856.298828" xlink:href="#DejaVuSans-72"/>
     <use x="895.662109" xlink:href="#DejaVuSans-72"/>
     <use x="934.525391" xlink:href="#DejaVuSans-6f"/>
     <use x="995.707031" xlink:href="#DejaVuSans-72"/>
     <use x="1036.820312" xlink:href="#DejaVuSans-20"/>
     <use x="1068.607422" xlink:href="#DejaVuSans-30"/>
     <use x="1132.230469" xlink:href="#DejaVuSans-2e"/>
     <use x="1164.017578" xlink:href="#DejaVuSans-30"/>
     <use x="1227.640625" xlink:href="#DejaVuSans-32"/>
     <use x="1291.263672" xlink:href="#DejaVuSans-33"/>
     <use x="1354.886719" xlink:href="#DejaVuSans-38"/>
     <use x="1418.509766" xlink:href="#DejaVuSans-39"/>
     <use x="1482.132812" xlink:href="#DejaVuSans-35"/>
     <use x="1545.755859" xlink:href="#DejaVuSans-34"/>
     <use x="1609.378906" xlink:href="#DejaVuSans-30"/>
     <use x="1673.001953" xlink:href="#DejaVuSans-31"/>
     <use x="1736.625" xlink:href="#DejaVuSans-32"/>
     <use x="1800.248047" xlink:href="#DejaVuSans-36"/>
     <use x="1863.871094" xlink:href="#DejaVuSans-32"/>
     <use x="1927.494141" xlink:href="#DejaVuSans-33"/>
     <use x="1991.117188" xlink:href="#DejaVuSans-39"/>
     <use x="2054.740234" xlink:href="#DejaVuSans-38"/>
     <use x="2118.363281" xlink:href="#DejaVuSans-35"/>
     <use x="2181.986328" xlink:href="#DejaVuSans-33"/>
    </g>
   </g>
   <g id="legend_1">
    <g id="patch_7">
     <path d="M 805.348438 499 
L 900.2 499 
Q 902.2 499 902.2 497 
L 902.2 453.965625 
Q 902.2 451.965625 900.2 451.965625 
L 805.348438 451.965625 
Q 803.348438 451.965625 803.348438 453.965625 
L 803.348438 497 
Q 803.348438 499 805.348438 499 
z
" style="opacity:0.8;stroke:#cccccc;stroke-linejoin:miter;"/>
    </g>
    <g id="line2d_18">
     <path d="M 807.348438 460.064062 
L 827.348438 460.064062 
" style="fill:none;stroke:#8dd3c7;stroke-linecap:square;stroke-width:1.5;"/>
    </g>
    <g id="line2d_19"/>
    <g id="text_17">
     <!-- cost -->
     <g style="fill:#ffffff;" transform="translate(835.348438 463.564062)scale(0.1 -0.1)">
      <use xlink:href="#DejaVuSans-63"/>
      <use x="54.980469" xlink:href="#DejaVuSans-6f"/>
      <use x="116.162109" xlink:href="#DejaVuSans-73"/>
      <use x="168.261719" xlink:href="#DejaVuSans-74"/>
     </g>
    </g>
    <g id="line2d_20">
     <path d="M 807.348438 474.742188 
L 827.348438 474.742188 
" style="fill:none;stroke:#feffb3;stroke-linecap:square;stroke-width:1.5;"/>
    </g>
    <g id="line2d_21"/>
    <g id="text_18">
     <!-- best cost -->
     <g style="fill:#ffffff;" transform="translate(835.348438 478.242188)scale(0.1 -0.1)">
      <defs>
       <path d="M 3116 1747 
Q 3116 2381 2855 2742 
Q 2594 3103 2138 3103 
Q 1681 3103 1420 2742 
Q 1159 2381 1159 1747 
Q 1159 1113 1420 752 
Q 1681 391 2138 391 
Q 2594 391 2855 752 
Q 3116 1113 3116 1747 
z
M 1159 2969 
Q 1341 3281 1617 3432 
Q 1894 3584 2278 3584 
Q 2916 3584 3314 3078 
Q 3713 2572 3713 1747 
Q 3713 922 3314 415 
Q 2916 -91 2278 -91 
Q 1894 -91 1617 61 
Q 1341 213 1159 525 
L 1159 0 
L 581 0 
L 581 4863 
L 1159 4863 
L 1159 2969 
z
" id="DejaVuSans-62" transform="scale(0.015625)"/>
      </defs>
      <use xlink:href="#DejaVuSans-62"/>
      <use x="63.476562" xlink:href="#DejaVuSans-65"/>
      <use x="125" xlink:href="#DejaVuSans-73"/>
      <use x="177.099609" xlink:href="#DejaVuSans-74"/>
      <use x="216.308594" xlink:href="#DejaVuSans-20"/>
      <use x="248.095703" xlink:href="#DejaVuSans-63"/>
      <use x="303.076172" xlink:href="#DejaVuSans-6f"/>
      <use x="364.257812" xlink:href="#DejaVuSans-73"/>
      <use x="416.357422" xlink:href="#DejaVuSans-74"/>
     </g>
    </g>
    <g id="line2d_22">
     <path d="M 807.348438 489.420313 
L 827.348438 489.420313 
" style="fill:none;stroke:#bfbbd9;stroke-linecap:square;stroke-width:1.5;"/>
    </g>
    <g id="line2d_23"/>
    <g id="text_19">
     <!-- temperature -->
     <g style="fill:#ffffff;" transform="translate(835.348438 492.920313)scale(0.1 -0.1)">
      <defs>
       <path d="M 3328 2828 
Q 3544 3216 3844 3400 
Q 4144 3584 4550 3584 
Q 5097 3584 5394 3201 
Q 5691 2819 5691 2113 
L 5691 0 
L 5113 0 
L 5113 2094 
Q 5113 2597 4934 2840 
Q 4756 3084 4391 3084 
Q 3944 3084 3684 2787 
Q 3425 2491 3425 1978 
L 3425 0 
L 2847 0 
L 2847 2094 
Q 2847 2600 2669 2842 
Q 2491 3084 2119 3084 
Q 1678 3084 1418 2786 
Q 1159 2488 1159 1978 
L 1159 0 
L 581 0 
L 581 3500 
L 1159 3500 
L 1159 2956 
Q 1356 3278 1631 3431 
Q 1906 3584 2284 3584 
Q 2666 3584 2933 3390 
Q 3200 3197 3328 2828 
z
" id="DejaVuSans-6d" transform="scale(0.015625)"/>
       <path d="M 1159 525 
L 1159 -1331 
L 581 -1331 
L 581 3500 
L 1159 3500 
L 1159 2969 
Q 1341 3281 1617 3432 
Q 1894 3584 2278 3584 
Q 2916 3584 3314 3078 
Q 3713 2572 3713 1747 
Q 3713 922 3314 415 
Q 2916 -91 2278 -91 
Q 1894 -91 1617 61 
Q 1341 213 1159 525 
z
M 3116 1747 
Q 3116 2381 2855 2742 
Q 2594 3103 2138 3103 
Q 1681 3103 1420 2742 
Q 1159 2381 1159 1747 
Q 1159 1113 1420 752 
Q 1681 391 2138 391 
Q 2594 391 2855 752 
Q 3116 1113 3116 1747 
z
" id="DejaVuSans-70" transform="scale(0.015625)"/>
       <path d="M 544 1381 
L 544 3500 
L 1119 3500 
L 1119 1403 
Q 1119 906 1312 657 
Q 1506 409 1894 409 
Q 2359 409 2629 706 
Q 2900 1003 2900 1516 
L 2900 3500 
L 3475 3500 
L 3475 0 
L 2900 0 
L 2900 538 
Q 2691 219 2414 64 
Q 2138 -91 1772 -91 
Q 1169 -91 856 284 
Q 544 659 544 1381 
z
M 1991 3584 
L 1991 3584 
z
" id="DejaVuSans-75" transform="scale(0.015625)"/>
      </defs>
      <use xlink:href="#DejaVuSans-74"/>
      <use x="39.208984" xlink:href="#DejaVuSans-65"/>
      <use x="100.732422" xlink:href="#DejaVuSans-6d"/>
      <use x="198.144531" xlink:href="#DejaVuSans-70"/>
      <use x="261.621094" xlink:href="#DejaVuSans-65"/>
      <use x="323.144531" xlink:href="#DejaVuSans-72"/>
      <use x="364.257812" xlink:href="#DejaVuSans-61"/>
      <use x="425.537109" xlink:href="#DejaVuSans-74"/>
      <use x="464.746094" xlink:href="#DejaVuSans-75"/>
      <use x="528.125" xlink:href="#DejaVuSans-72"/>
      <use x="566.988281" xlink:href="#DejaVuSans-65"/>
     </g>
    </g>
   </g>
  </g>
 </g>
 <defs>
  <clipPath id="pfe1773a370">
   <rect height="434.88" width="781.2" x="126" y="69.12"/>
  </clipPath>
 </defs>
</svg>
