<?xml version="1.0" encoding="utf-8" standalone="no"?>
<!DOCTYPE svg PUBLIC "-//W3C//DTD SVG 1.1//EN"
  "http://www.w3.org/Graphics/SVG/1.1/DTD/svg11.dtd">
<svg height="576pt" version="1.1" viewBox="0 0 1008 576" width="1008pt" xmlns="http://www.w3.org/2000/svg" xmlns:xlink="http://www.w3.org/1999/xlink">
 <metadata>
  <rdf:RDF xmlns:cc="http://creativecommons.org/ns#" xmlns:dc="http://purl.org/dc/elements/1.1/" xmlns:rdf="http://www.w3.org/1999/02/22-rdf-syntax-ns#">
   <cc:Work>
    <dc:type rdf:resource="http://purl.org/dc/dcmitype/StillImage"/>
    <dc:date>2022-01-13T19:10:45.778458</dc:date>
    <dc:format>image/svg+xml</dc:format>
    <dc:creator>
     <cc:Agent>
      <dc:title>Matplotlib v3.4.3, https://matplotlib.org/</dc:title>
     </cc:Agent>
    </dc:creator>
   </cc:Work>
  </rdf:RDF>
 </metadata>
 <defs>
  <style type="text/css">*{stroke-linecap:butt;stroke-linejoin:round;}</style>
 </defs>
 <g id="figure_1">
  <g id="patch_1">
   <path d="M 0 576 
L 1008 576 
L 1008 0 
L 0 0 
z
"/>
  </g>
  <g id="axes_1">
   <g id="patch_2">
    <path d="M 126 504 
L 907.2 504 
L 907.2 69.12 
L 126 69.12 
z
"/>
   </g>
   <g id="matplotlib.axis_1">
    <g id="xtick_1">
     <g id="line2d_1">
      <defs>
       <path d="M 0 0 
L 0 3.5 
" id="m23af4a9fca" style="stroke:#ffffff;stroke-width:0.8;"/>
      </defs>
      <g>
       <use style="fill:#ffffff;stroke:#ffffff;stroke-width:0.8;" x="161.509091" xlink:href="#m23af4a9fca" y="504"/>
      </g>
     </g>
     <g id="text_1">
      <!-- 0 -->
      <g style="fill:#ffffff;" transform="translate(158.327841 518.598438)scale(0.1 -0.1)">
       <defs>
        <path d="M 2034 4250 
Q 1547 4250 1301 3770 
Q 1056 3291 1056 2328 
Q 1056 1369 1301 889 
Q 1547 409 2034 409 
Q 2525 409 2770 889 
Q 3016 1369 3016 2328 
Q 3016 3291 2770 3770 
Q 2525 4250 2034 4250 
z
M 2034 4750 
Q 2819 4750 3233 4129 
Q 3647 3509 3647 2328 
Q 3647 1150 3233 529 
Q 2819 -91 2034 -91 
Q 1250 -91 836 529 
Q 422 1150 422 2328 
Q 422 3509 836 4129 
Q 1250 4750 2034 4750 
z
" id="DejaVuSans-30" transform="scale(0.015625)"/>
       </defs>
       <use xlink:href="#DejaVuSans-30"/>
      </g>
     </g>
    </g>
    <g id="xtick_2">
     <g id="line2d_2">
      <g>
       <use style="fill:#ffffff;stroke:#ffffff;stroke-width:0.8;" x="260.724209" xlink:href="#m23af4a9fca" y="504"/>
      </g>
     </g>
     <g id="text_2">
      <!-- 500 -->
      <g style="fill:#ffffff;" transform="translate(251.180459 518.598438)scale(0.1 -0.1)">
       <defs>
        <path d="M 691 4666 
L 3169 4666 
L 3169 4134 
L 1269 4134 
L 1269 2991 
Q 1406 3038 1543 3061 
Q 1681 3084 1819 3084 
Q 2600 3084 3056 2656 
Q 3513 2228 3513 1497 
Q 3513 744 3044 326 
Q 2575 -91 1722 -91 
Q 1428 -91 1123 -41 
Q 819 9 494 109 
L 494 744 
Q 775 591 1075 516 
Q 1375 441 1709 441 
Q 2250 441 2565 725 
Q 2881 1009 2881 1497 
Q 2881 1984 2565 2268 
Q 2250 2553 1709 2553 
Q 1456 2553 1204 2497 
Q 953 2441 691 2322 
L 691 4666 
z
" id="DejaVuSans-35" transform="scale(0.015625)"/>
       </defs>
       <use xlink:href="#DejaVuSans-35"/>
       <use x="63.623047" xlink:href="#DejaVuSans-30"/>
       <use x="127.246094" xlink:href="#DejaVuSans-30"/>
      </g>
     </g>
    </g>
    <g id="xtick_3">
     <g id="line2d_3">
      <g>
       <use style="fill:#ffffff;stroke:#ffffff;stroke-width:0.8;" x="359.939328" xlink:href="#m23af4a9fca" y="504"/>
      </g>
     </g>
     <g id="text_3">
      <!-- 1000 -->
      <g style="fill:#ffffff;" transform="translate(347.214328 518.598438)scale(0.1 -0.1)">
       <defs>
        <path d="M 794 531 
L 1825 531 
L 1825 4091 
L 703 3866 
L 703 4441 
L 1819 4666 
L 2450 4666 
L 2450 531 
L 3481 531 
L 3481 0 
L 794 0 
L 794 531 
z
" id="DejaVuSans-31" transform="scale(0.015625)"/>
       </defs>
       <use xlink:href="#DejaVuSans-31"/>
       <use x="63.623047" xlink:href="#DejaVuSans-30"/>
       <use x="127.246094" xlink:href="#DejaVuSans-30"/>
       <use x="190.869141" xlink:href="#DejaVuSans-30"/>
      </g>
     </g>
    </g>
    <g id="xtick_4">
     <g id="line2d_4">
      <g>
       <use style="fill:#ffffff;stroke:#ffffff;stroke-width:0.8;" x="459.154446" xlink:href="#m23af4a9fca" y="504"/>
      </g>
     </g>
     <g id="text_4">
      <!-- 1500 -->
      <g style="fill:#ffffff;" transform="translate(446.429446 518.598438)scale(0.1 -0.1)">
       <use xlink:href="#DejaVuSans-31"/>
       <use x="63.623047" xlink:href="#DejaVuSans-35"/>
       <use x="127.246094" xlink:href="#DejaVuSans-30"/>
       <use x="190.869141" xlink:href="#DejaVuSans-30"/>
      </g>
     </g>
    </g>
    <g id="xtick_5">
     <g id="line2d_5">
      <g>
       <use style="fill:#ffffff;stroke:#ffffff;stroke-width:0.8;" x="558.369565" xlink:href="#m23af4a9fca" y="504"/>
      </g>
     </g>
     <g id="text_5">
      <!-- 2000 -->
      <g style="fill:#ffffff;" transform="translate(545.644565 518.598438)scale(0.1 -0.1)">
       <defs>
        <path d="M 1228 531 
L 3431 531 
L 3431 0 
L 469 0 
L 469 531 
Q 828 903 1448 1529 
Q 2069 2156 2228 2338 
Q 2531 2678 2651 2914 
Q 2772 3150 2772 3378 
Q 2772 3750 2511 3984 
Q 2250 4219 1831 4219 
Q 1534 4219 1204 4116 
Q 875 4013 500 3803 
L 500 4441 
Q 881 4594 1212 4672 
Q 1544 4750 1819 4750 
Q 2544 4750 2975 4387 
Q 3406 4025 3406 3419 
Q 3406 3131 3298 2873 
Q 3191 2616 2906 2266 
Q 2828 2175 2409 1742 
Q 1991 1309 1228 531 
z
" id="DejaVuSans-32" transform="scale(0.015625)"/>
       </defs>
       <use xlink:href="#DejaVuSans-32"/>
       <use x="63.623047" xlink:href="#DejaVuSans-30"/>
       <use x="127.246094" xlink:href="#DejaVuSans-30"/>
       <use x="190.869141" xlink:href="#DejaVuSans-30"/>
      </g>
     </g>
    </g>
    <g id="xtick_6">
     <g id="line2d_6">
      <g>
       <use style="fill:#ffffff;stroke:#ffffff;stroke-width:0.8;" x="657.584683" xlink:href="#m23af4a9fca" y="504"/>
      </g>
     </g>
     <g id="text_6">
      <!-- 2500 -->
      <g style="fill:#ffffff;" transform="translate(644.859683 518.598438)scale(0.1 -0.1)">
       <use xlink:href="#DejaVuSans-32"/>
       <use x="63.623047" xlink:href="#DejaVuSans-35"/>
       <use x="127.246094" xlink:href="#DejaVuSans-30"/>
       <use x="190.869141" xlink:href="#DejaVuSans-30"/>
      </g>
     </g>
    </g>
    <g id="xtick_7">
     <g id="line2d_7">
      <g>
       <use style="fill:#ffffff;stroke:#ffffff;stroke-width:0.8;" x="756.799802" xlink:href="#m23af4a9fca" y="504"/>
      </g>
     </g>
     <g id="text_7">
      <!-- 3000 -->
      <g style="fill:#ffffff;" transform="translate(744.074802 518.598438)scale(0.1 -0.1)">
       <defs>
        <path d="M 2597 2516 
Q 3050 2419 3304 2112 
Q 3559 1806 3559 1356 
Q 3559 666 3084 287 
Q 2609 -91 1734 -91 
Q 1441 -91 1130 -33 
Q 819 25 488 141 
L 488 750 
Q 750 597 1062 519 
Q 1375 441 1716 441 
Q 2309 441 2620 675 
Q 2931 909 2931 1356 
Q 2931 1769 2642 2001 
Q 2353 2234 1838 2234 
L 1294 2234 
L 1294 2753 
L 1863 2753 
Q 2328 2753 2575 2939 
Q 2822 3125 2822 3475 
Q 2822 3834 2567 4026 
Q 2313 4219 1838 4219 
Q 1578 4219 1281 4162 
Q 984 4106 628 3988 
L 628 4550 
Q 988 4650 1302 4700 
Q 1616 4750 1894 4750 
Q 2613 4750 3031 4423 
Q 3450 4097 3450 3541 
Q 3450 3153 3228 2886 
Q 3006 2619 2597 2516 
z
" id="DejaVuSans-33" transform="scale(0.015625)"/>
       </defs>
       <use xlink:href="#DejaVuSans-33"/>
       <use x="63.623047" xlink:href="#DejaVuSans-30"/>
       <use x="127.246094" xlink:href="#DejaVuSans-30"/>
       <use x="190.869141" xlink:href="#DejaVuSans-30"/>
      </g>
     </g>
    </g>
    <g id="xtick_8">
     <g id="line2d_8">
      <g>
       <use style="fill:#ffffff;stroke:#ffffff;stroke-width:0.8;" x="856.01492" xlink:href="#m23af4a9fca" y="504"/>
      </g>
     </g>
     <g id="text_8">
      <!-- 3500 -->
      <g style="fill:#ffffff;" transform="translate(843.28992 518.598438)scale(0.1 -0.1)">
       <use xlink:href="#DejaVuSans-33"/>
       <use x="63.623047" xlink:href="#DejaVuSans-35"/>
       <use x="127.246094" xlink:href="#DejaVuSans-30"/>
       <use x="190.869141" xlink:href="#DejaVuSans-30"/>
      </g>
     </g>
    </g>
    <g id="text_9">
     <!-- iteration -->
     <g style="fill:#ffffff;" transform="translate(495.477344 532.276562)scale(0.1 -0.1)">
      <defs>
       <path d="M 603 3500 
L 1178 3500 
L 1178 0 
L 603 0 
L 603 3500 
z
M 603 4863 
L 1178 4863 
L 1178 4134 
L 603 4134 
L 603 4863 
z
" id="DejaVuSans-69" transform="scale(0.015625)"/>
       <path d="M 1172 4494 
L 1172 3500 
L 2356 3500 
L 2356 3053 
L 1172 3053 
L 1172 1153 
Q 1172 725 1289 603 
Q 1406 481 1766 481 
L 2356 481 
L 2356 0 
L 1766 0 
Q 1100 0 847 248 
Q 594 497 594 1153 
L 594 3053 
L 172 3053 
L 172 3500 
L 594 3500 
L 594 4494 
L 1172 4494 
z
" id="DejaVuSans-74" transform="scale(0.015625)"/>
       <path d="M 3597 1894 
L 3597 1613 
L 953 1613 
Q 991 1019 1311 708 
Q 1631 397 2203 397 
Q 2534 397 2845 478 
Q 3156 559 3463 722 
L 3463 178 
Q 3153 47 2828 -22 
Q 2503 -91 2169 -91 
Q 1331 -91 842 396 
Q 353 884 353 1716 
Q 353 2575 817 3079 
Q 1281 3584 2069 3584 
Q 2775 3584 3186 3129 
Q 3597 2675 3597 1894 
z
M 3022 2063 
Q 3016 2534 2758 2815 
Q 2500 3097 2075 3097 
Q 1594 3097 1305 2825 
Q 1016 2553 972 2059 
L 3022 2063 
z
" id="DejaVuSans-65" transform="scale(0.015625)"/>
       <path d="M 2631 2963 
Q 2534 3019 2420 3045 
Q 2306 3072 2169 3072 
Q 1681 3072 1420 2755 
Q 1159 2438 1159 1844 
L 1159 0 
L 581 0 
L 581 3500 
L 1159 3500 
L 1159 2956 
Q 1341 3275 1631 3429 
Q 1922 3584 2338 3584 
Q 2397 3584 2469 3576 
Q 2541 3569 2628 3553 
L 2631 2963 
z
" id="DejaVuSans-72" transform="scale(0.015625)"/>
       <path d="M 2194 1759 
Q 1497 1759 1228 1600 
Q 959 1441 959 1056 
Q 959 750 1161 570 
Q 1363 391 1709 391 
Q 2188 391 2477 730 
Q 2766 1069 2766 1631 
L 2766 1759 
L 2194 1759 
z
M 3341 1997 
L 3341 0 
L 2766 0 
L 2766 531 
Q 2569 213 2275 61 
Q 1981 -91 1556 -91 
Q 1019 -91 701 211 
Q 384 513 384 1019 
Q 384 1609 779 1909 
Q 1175 2209 1959 2209 
L 2766 2209 
L 2766 2266 
Q 2766 2663 2505 2880 
Q 2244 3097 1772 3097 
Q 1472 3097 1187 3025 
Q 903 2953 641 2809 
L 641 3341 
Q 956 3463 1253 3523 
Q 1550 3584 1831 3584 
Q 2591 3584 2966 3190 
Q 3341 2797 3341 1997 
z
" id="DejaVuSans-61" transform="scale(0.015625)"/>
       <path d="M 1959 3097 
Q 1497 3097 1228 2736 
Q 959 2375 959 1747 
Q 959 1119 1226 758 
Q 1494 397 1959 397 
Q 2419 397 2687 759 
Q 2956 1122 2956 1747 
Q 2956 2369 2687 2733 
Q 2419 3097 1959 3097 
z
M 1959 3584 
Q 2709 3584 3137 3096 
Q 3566 2609 3566 1747 
Q 3566 888 3137 398 
Q 2709 -91 1959 -91 
Q 1206 -91 779 398 
Q 353 888 353 1747 
Q 353 2609 779 3096 
Q 1206 3584 1959 3584 
z
" id="DejaVuSans-6f" transform="scale(0.015625)"/>
       <path d="M 3513 2113 
L 3513 0 
L 2938 0 
L 2938 2094 
Q 2938 2591 2744 2837 
Q 2550 3084 2163 3084 
Q 1697 3084 1428 2787 
Q 1159 2491 1159 1978 
L 1159 0 
L 581 0 
L 581 3500 
L 1159 3500 
L 1159 2956 
Q 1366 3272 1645 3428 
Q 1925 3584 2291 3584 
Q 2894 3584 3203 3211 
Q 3513 2838 3513 2113 
z
" id="DejaVuSans-6e" transform="scale(0.015625)"/>
      </defs>
      <use xlink:href="#DejaVuSans-69"/>
      <use x="27.783203" xlink:href="#DejaVuSans-74"/>
      <use x="66.992188" xlink:href="#DejaVuSans-65"/>
      <use x="128.515625" xlink:href="#DejaVuSans-72"/>
      <use x="169.628906" xlink:href="#DejaVuSans-61"/>
      <use x="230.908203" xlink:href="#DejaVuSans-74"/>
      <use x="270.117188" xlink:href="#DejaVuSans-69"/>
      <use x="297.900391" xlink:href="#DejaVuSans-6f"/>
      <use x="359.082031" xlink:href="#DejaVuSans-6e"/>
     </g>
    </g>
   </g>
   <g id="matplotlib.axis_2">
    <g id="ytick_1">
     <g id="line2d_9">
      <defs>
       <path d="M 0 0 
L -3.5 0 
" id="m59d025f426" style="stroke:#ffffff;stroke-width:0.8;"/>
      </defs>
      <g>
       <use style="fill:#ffffff;stroke:#ffffff;stroke-width:0.8;" x="126" xlink:href="#m59d025f426" y="484.232727"/>
      </g>
     </g>
     <g id="text_10">
      <!-- 0 -->
      <g style="fill:#ffffff;" transform="translate(112.6375 488.031946)scale(0.1 -0.1)">
       <use xlink:href="#DejaVuSans-30"/>
      </g>
     </g>
    </g>
    <g id="ytick_2">
     <g id="line2d_10">
      <g>
       <use style="fill:#ffffff;stroke:#ffffff;stroke-width:0.8;" x="126" xlink:href="#m59d025f426" y="434.613588"/>
      </g>
     </g>
     <g id="text_11">
      <!-- 5000 -->
      <g style="fill:#ffffff;" transform="translate(93.55 438.412807)scale(0.1 -0.1)">
       <use xlink:href="#DejaVuSans-35"/>
       <use x="63.623047" xlink:href="#DejaVuSans-30"/>
       <use x="127.246094" xlink:href="#DejaVuSans-30"/>
       <use x="190.869141" xlink:href="#DejaVuSans-30"/>
      </g>
     </g>
    </g>
    <g id="ytick_3">
     <g id="line2d_11">
      <g>
       <use style="fill:#ffffff;stroke:#ffffff;stroke-width:0.8;" x="126" xlink:href="#m59d025f426" y="384.994449"/>
      </g>
     </g>
     <g id="text_12">
      <!-- 10000 -->
      <g style="fill:#ffffff;" transform="translate(87.1875 388.793667)scale(0.1 -0.1)">
       <use xlink:href="#DejaVuSans-31"/>
       <use x="63.623047" xlink:href="#DejaVuSans-30"/>
       <use x="127.246094" xlink:href="#DejaVuSans-30"/>
       <use x="190.869141" xlink:href="#DejaVuSans-30"/>
       <use x="254.492188" xlink:href="#DejaVuSans-30"/>
      </g>
     </g>
    </g>
    <g id="ytick_4">
     <g id="line2d_12">
      <g>
       <use style="fill:#ffffff;stroke:#ffffff;stroke-width:0.8;" x="126" xlink:href="#m59d025f426" y="335.375309"/>
      </g>
     </g>
     <g id="text_13">
      <!-- 15000 -->
      <g style="fill:#ffffff;" transform="translate(87.1875 339.174528)scale(0.1 -0.1)">
       <use xlink:href="#DejaVuSans-31"/>
       <use x="63.623047" xlink:href="#DejaVuSans-35"/>
       <use x="127.246094" xlink:href="#DejaVuSans-30"/>
       <use x="190.869141" xlink:href="#DejaVuSans-30"/>
       <use x="254.492188" xlink:href="#DejaVuSans-30"/>
      </g>
     </g>
    </g>
    <g id="ytick_5">
     <g id="line2d_13">
      <g>
       <use style="fill:#ffffff;stroke:#ffffff;stroke-width:0.8;" x="126" xlink:href="#m59d025f426" y="285.75617"/>
      </g>
     </g>
     <g id="text_14">
      <!-- 20000 -->
      <g style="fill:#ffffff;" transform="translate(87.1875 289.555389)scale(0.1 -0.1)">
       <use xlink:href="#DejaVuSans-32"/>
       <use x="63.623047" xlink:href="#DejaVuSans-30"/>
       <use x="127.246094" xlink:href="#DejaVuSans-30"/>
       <use x="190.869141" xlink:href="#DejaVuSans-30"/>
       <use x="254.492188" xlink:href="#DejaVuSans-30"/>
      </g>
     </g>
    </g>
    <g id="ytick_6">
     <g id="line2d_14">
      <g>
       <use style="fill:#ffffff;stroke:#ffffff;stroke-width:0.8;" x="126" xlink:href="#m59d025f426" y="236.137031"/>
      </g>
     </g>
     <g id="text_15">
      <!-- 25000 -->
      <g style="fill:#ffffff;" transform="translate(87.1875 239.936249)scale(0.1 -0.1)">
       <use xlink:href="#DejaVuSans-32"/>
       <use x="63.623047" xlink:href="#DejaVuSans-35"/>
       <use x="127.246094" xlink:href="#DejaVuSans-30"/>
       <use x="190.869141" xlink:href="#DejaVuSans-30"/>
       <use x="254.492188" xlink:href="#DejaVuSans-30"/>
      </g>
     </g>
    </g>
    <g id="ytick_7">
     <g id="line2d_15">
      <g>
       <use style="fill:#ffffff;stroke:#ffffff;stroke-width:0.8;" x="126" xlink:href="#m59d025f426" y="186.517891"/>
      </g>
     </g>
     <g id="text_16">
      <!-- 30000 -->
      <g style="fill:#ffffff;" transform="translate(87.1875 190.31711)scale(0.1 -0.1)">
       <use xlink:href="#DejaVuSans-33"/>
       <use x="63.623047" xlink:href="#DejaVuSans-30"/>
       <use x="127.246094" xlink:href="#DejaVuSans-30"/>
       <use x="190.869141" xlink:href="#DejaVuSans-30"/>
       <use x="254.492188" xlink:href="#DejaVuSans-30"/>
      </g>
     </g>
    </g>
    <g id="ytick_8">
     <g id="line2d_16">
      <g>
       <use style="fill:#ffffff;stroke:#ffffff;stroke-width:0.8;" x="126" xlink:href="#m59d025f426" y="136.898752"/>
      </g>
     </g>
     <g id="text_17">
      <!-- 35000 -->
      <g style="fill:#ffffff;" transform="translate(87.1875 140.697971)scale(0.1 -0.1)">
       <use xlink:href="#DejaVuSans-33"/>
       <use x="63.623047" xlink:href="#DejaVuSans-35"/>
       <use x="127.246094" xlink:href="#DejaVuSans-30"/>
       <use x="190.869141" xlink:href="#DejaVuSans-30"/>
       <use x="254.492188" xlink:href="#DejaVuSans-30"/>
      </g>
     </g>
    </g>
    <g id="ytick_9">
     <g id="line2d_17">
      <g>
       <use style="fill:#ffffff;stroke:#ffffff;stroke-width:0.8;" x="126" xlink:href="#m59d025f426" y="87.279613"/>
      </g>
     </g>
     <g id="text_18">
      <!-- 40000 -->
      <g style="fill:#ffffff;" transform="translate(87.1875 91.078831)scale(0.1 -0.1)">
       <defs>
        <path d="M 2419 4116 
L 825 1625 
L 2419 1625 
L 2419 4116 
z
M 2253 4666 
L 3047 4666 
L 3047 1625 
L 3713 1625 
L 3713 1100 
L 3047 1100 
L 3047 0 
L 2419 0 
L 2419 1100 
L 313 1100 
L 313 1709 
L 2253 4666 
z
" id="DejaVuSans-34" transform="scale(0.015625)"/>
       </defs>
       <use xlink:href="#DejaVuSans-34"/>
       <use x="63.623047" xlink:href="#DejaVuSans-30"/>
       <use x="127.246094" xlink:href="#DejaVuSans-30"/>
       <use x="190.869141" xlink:href="#DejaVuSans-30"/>
       <use x="254.492188" xlink:href="#DejaVuSans-30"/>
      </g>
     </g>
    </g>
   </g>
   <g id="line2d_18">
    <path clip-path="url(#p0c99e2e523)" d="M 161.509091 165.171738 
L 161.707521 196.362329 
L 161.905951 201.036451 
L 162.104382 186.775911 
L 162.302812 209.918277 
L 162.501242 203.914362 
L 162.699672 210.930508 
L 162.898103 225.468916 
L 163.096533 281.687401 
L 163.294963 296.791467 
L 163.493393 288.018803 
L 163.691824 292.166963 
L 163.890254 321.769741 
L 164.088684 328.349239 
L 164.287114 311.597818 
L 164.485544 321.045302 
L 164.683975 306.784761 
L 164.882405 323.536183 
L 165.080835 330.552329 
L 165.477696 292.117344 
L 165.676126 296.265504 
L 166.072986 262.286317 
L 166.271417 251.588431 
L 166.469847 268.339852 
L 166.668277 258.832825 
L 166.866707 265.372628 
L 167.065138 250.83422 
L 167.263568 255.022075 
L 167.660428 270.533018 
L 167.858858 256.272477 
L 168.057289 280.824028 
L 168.255719 286.579848 
L 168.454149 299.6793 
L 168.652579 293.92348 
L 169.04944 329.798118 
L 169.4463 308.600822 
L 169.644731 290.410445 
L 169.843161 283.394299 
L 170.041591 299.202957 
L 170.240021 302.031248 
L 170.438452 288.931795 
L 170.835312 249.752522 
L 171.033742 260.410714 
L 171.430603 299.431205 
L 171.629033 288.773014 
L 171.827463 268.716958 
L 172.025893 293.030336 
L 172.224324 276.665944 
L 172.422754 280.814104 
L 172.621184 300.87016 
L 172.819614 286.331752 
L 173.018045 302.696144 
L 173.216475 299.867853 
L 173.414905 302.696144 
L 173.613335 315.795597 
L 174.010196 275.673561 
L 174.208626 253.602968 
L 174.407056 260.619114 
L 174.605487 277.370535 
L 175.002347 251.826603 
L 175.200777 264.271083 
L 175.399207 254.764056 
L 175.597638 235.690458 
L 175.796068 242.260032 
L 175.994498 258.06869 
L 176.192928 240.751611 
L 176.391359 237.92332 
L 176.589789 262.236698 
L 176.788219 258.088538 
L 177.18508 297.476211 
L 177.58194 329.649261 
L 177.78037 309.593205 
L 177.978801 319.100232 
L 178.177231 306.655751 
L 178.375661 317.313943 
L 178.574091 310.734445 
L 178.772522 323.178925 
L 178.970952 316.609351 
L 179.169382 339.751717 
L 179.367812 327.307237 
L 179.566242 345.497614 
L 179.764673 337.459313 
L 179.963103 336.089825 
L 180.161533 311.538275 
L 180.359963 313.57266 
L 180.558394 317.72082 
L 180.756824 330.1653 
L 180.955254 308.551203 
L 181.352115 349.010649 
L 181.550545 371.4385 
L 181.748975 346.88695 
L 181.947405 368.501047 
L 182.344266 328.160686 
L 182.542696 352.712237 
L 182.741126 342.054045 
L 182.939557 319.983452 
L 183.137987 313.44365 
L 183.336417 335.037899 
L 183.534847 333.668411 
L 183.733277 324.161384 
L 183.931708 348.474762 
L 184.130138 336.030282 
L 184.328568 141.056836 
L 184.526998 155.317376 
L 184.725429 148.807345 
L 184.923859 173.120724 
L 185.320719 157.044123 
L 185.51915 154.215832 
L 185.91601 192.720284 
L 186.11444 188.572124 
L 186.312871 205.323545 
L 186.511301 189.415649 
L 187.106591 235.601144 
L 187.305022 227.275052 
L 187.503452 210.523631 
L 187.701882 211.178604 
L 187.900312 200.907442 
L 188.098743 182.627751 
L 188.495603 218.135207 
L 188.694033 199.94483 
L 188.892464 206.484633 
L 189.090894 219.584086 
L 189.289324 205.323545 
L 189.686185 244.27457 
L 189.884615 237.734767 
L 190.083045 255.925143 
L 190.281475 240.116486 
L 190.479906 256.480878 
L 190.876766 220.973422 
L 191.075196 214.393924 
L 191.273626 228.932332 
L 191.472057 226.104041 
L 191.670487 213.004588 
L 191.868917 215.832879 
L 192.067347 228.277359 
L 192.265778 213.738951 
L 192.464208 226.838404 
L 192.662638 210.811422 
L 192.861068 205.055602 
L 193.059499 214.562629 
L 193.257929 214.562629 
L 193.456359 198.198237 
L 193.85322 236.563755 
L 194.05165 223.464302 
L 194.25008 238.00271 
L 194.44851 229.96441 
L 194.845371 351.888559 
L 195.043801 353.496219 
L 195.242231 331.882122 
L 195.440661 325.223233 
L 195.639092 342.540313 
L 195.837522 349.119811 
L 196.035952 363.658219 
L 196.432813 333.777573 
L 196.631243 198.873057 
L 196.829673 222.015424 
L 197.028103 197.463873 
L 197.424964 237.58591 
L 197.623394 221.777252 
L 197.821824 228.35675 
L 198.020255 248.412806 
L 198.218685 234.152265 
L 198.417115 246.596745 
L 198.615545 242.448585 
L 199.012406 229.904867 
L 199.210836 235.660687 
L 199.607696 215.604631 
L 199.806127 221.608547 
L 200.004557 237.417204 
L 200.202987 213.103826 
L 200.401417 206.524328 
L 200.599848 204.916668 
L 200.798278 212.637406 
L 200.996708 235.065257 
L 201.195138 240.434048 
L 201.393569 223.682627 
L 202.38572 285.210359 
L 202.58415 269.302463 
L 202.78258 293.615842 
L 202.98101 248.809759 
L 203.179441 263.348167 
L 203.377871 250.248714 
L 203.774731 268.955129 
L 203.973162 261.938983 
L 204.370022 290.847094 
L 204.568452 286.698934 
L 204.766883 264.62834 
L 204.965313 270.384161 
L 205.362173 235.283581 
L 205.560604 265.650495 
L 205.759034 251.389954 
L 205.957464 254.218245 
L 206.155894 268.816196 
L 206.354324 262.127536 
L 206.552755 279.444615 
L 206.751185 263.417633 
L 206.949615 270.374237 
L 207.148045 254.565579 
L 207.346476 270.473475 
L 207.544906 248.045624 
L 208.140197 297.327353 
L 208.537057 272.537631 
L 208.735487 294.965482 
L 208.933918 277.648403 
L 209.132348 288.306594 
L 209.330778 312.858144 
L 209.727638 268.250538 
L 210.322929 310.506197 
L 210.91822 293.24866 
L 211.11665 222.174205 
L 211.31508 216.636709 
L 211.711941 264.092454 
L 212.307232 209.471705 
L 212.505662 220.129896 
L 212.704092 213.550398 
L 212.902522 199.011991 
L 213.100953 208.409856 
L 213.299383 230.023953 
L 213.696243 194.933297 
L 214.093104 238.558445 
L 214.291534 216.130594 
L 214.489964 234.32097 
L 214.886825 203.686114 
L 215.283685 237.377509 
L 215.482115 218.303912 
L 215.680546 225.260515 
L 216.077406 196.818825 
L 216.275836 207.477016 
L 216.672697 241.089021 
L 216.871127 230.43083 
L 217.069557 252.858681 
L 217.267988 228.30713 
L 217.466418 245.058552 
L 217.863278 231.939251 
L 218.061708 241.446279 
L 218.260139 285.785941 
L 218.458569 282.957651 
L 218.656999 273.450623 
L 218.855429 272.438393 
L 219.05386 281.885877 
L 219.25229 275.316303 
L 219.64915 306.03055 
L 219.847581 281.717172 
L 220.046011 303.331269 
L 220.442871 317.939144 
L 220.839732 283.622547 
L 221.038162 264.191692 
L 221.435022 293.754775 
L 221.633453 273.698719 
L 222.030313 306.199255 
L 222.228743 286.143199 
L 222.824034 332.150065 
L 223.022464 325.133919 
L 223.220895 303.063326 
L 223.419325 321.253702 
L 223.816185 288.594385 
L 224.411476 339.960118 
L 224.609906 331.921817 
L 224.808337 353.99241 
L 225.205197 328.795811 
L 225.403627 353.10919 
L 225.800488 314.604738 
L 225.998918 333.678335 
L 226.197348 327.098837 
L 226.395778 311.071855 
L 226.594209 315.220015 
L 226.792639 329.758423 
L 227.58636 252.938071 
L 227.78479 253.593044 
L 227.98322 294.231119 
L 228.181651 308.769527 
L 228.380081 302.765611 
L 228.578511 285.448531 
L 228.776941 292.028029 
L 228.975371 276.120133 
L 229.173802 282.124049 
L 229.769092 215.177906 
L 230.165953 224.675009 
L 230.364383 241.426431 
L 230.562813 226.888023 
L 230.761244 245.0784 
L 230.959674 229.170503 
L 231.356534 248.63113 
L 231.554965 241.614984 
L 231.753395 224.297904 
L 231.951825 230.281972 
L 232.547116 255.776286 
L 232.745546 274.849883 
L 232.943976 255.419028 
L 233.142406 271.326924 
L 233.539267 238.558445 
L 233.737697 255.309866 
L 233.936127 259.458026 
L 234.531418 240.166105 
L 235.325139 288.802785 
L 235.523569 294.558605 
L 235.722 270.007055 
L 236.11886 260.103075 
L 236.31729 250.596048 
L 236.51572 269.669645 
L 236.912581 237.92332 
L 237.111011 257.443489 
L 237.309441 253.731977 
L 237.706302 272.37885 
L 237.904732 260.688581 
L 238.103162 241.257726 
L 238.301593 238.885931 
L 238.500023 219.812334 
L 238.698453 217.192443 
L 239.095314 256.421335 
L 239.293744 280.972885 
L 239.492174 266.434477 
L 239.690604 266.434477 
L 239.889035 290.747855 
L 240.087465 266.196305 
L 240.285895 271.952125 
L 240.682755 254.337331 
L 240.881186 260.916829 
L 241.079616 257.175546 
L 241.278046 264.191692 
L 241.674907 305.256492 
L 241.873337 302.428201 
L 242.071767 324.498794 
L 242.270197 312.808525 
L 242.468628 308.660365 
L 242.865488 276.249143 
L 243.063918 290.787551 
L 243.262349 313.929917 
L 243.460779 291.859324 
L 243.659209 298.428898 
L 243.857639 310.119167 
L 244.056069 300.61214 
L 244.2545 281.181285 
L 244.45293 298.498365 
L 244.84979 263.556567 
L 245.048221 279.583549 
L 245.246651 272.626946 
L 245.643511 316.311636 
L 245.841942 309.29549 
L 246.040372 328.726345 
L 246.437232 316.152855 
L 246.635663 298.994556 
L 247.032523 334.85927 
L 247.826244 360.591756 
L 248.421535 315.398644 
L 248.619965 308.858841 
L 249.016825 275.167446 
L 249.215256 281.707248 
L 249.413686 273.668948 
L 249.612116 286.7684 
L 250.008977 261.571801 
L 250.405837 214.949658 
L 250.604267 234.380513 
L 250.802698 237.208804 
L 251.001128 247.866995 
L 251.397988 239.034788 
L 251.596419 225.935336 
L 251.794849 202.792969 
L 251.993279 217.331377 
L 252.191709 220.159668 
L 252.390139 209.501477 
L 252.58857 232.643843 
L 252.787 216.735947 
L 252.98543 218.284064 
L 253.18386 222.432224 
L 253.382291 235.531677 
L 253.580721 228.991875 
L 253.977581 246.189868 
L 254.374442 229.666695 
L 255.366593 315.418491 
L 255.565023 299.054099 
L 255.763453 292.474601 
L 255.961884 232.991177 
L 256.160314 210.563326 
L 256.358744 225.101734 
L 256.557174 249.415112 
L 256.755605 242.835614 
L 257.152465 212.200758 
L 258.343047 322.930829 
L 258.938337 258.078614 
L 259.136768 253.860987 
L 259.335198 253.860987 
L 259.533628 236.543908 
L 259.732058 243.500511 
L 259.930488 256.599964 
L 260.128919 244.909694 
L 260.327349 263.100071 
L 260.525779 268.855891 
L 260.724209 249.425036 
L 260.92264 242.855462 
L 261.12107 243.897464 
L 261.3195 250.467038 
L 261.51793 243.897464 
L 261.914791 205.660955 
L 262.311651 250.417419 
L 262.510082 234.053027 
L 262.708512 254.109083 
L 262.906942 239.848542 
L 263.105372 255.6572 
L 263.303802 259.80536 
L 263.502233 243.996702 
L 263.700663 268.310081 
L 263.899093 248.254024 
L 264.097523 260.698505 
L 264.494384 225.756707 
L 264.692814 242.508128 
L 264.891244 223.434531 
L 265.089675 220.60624 
L 265.288105 204.579258 
L 265.486535 197.563112 
L 265.684965 185.118632 
L 265.883396 184.096477 
L 266.081826 186.716368 
L 266.280256 186.716368 
L 266.677117 217.281758 
L 266.875547 194.139391 
L 267.073977 209.948049 
L 267.470837 199.131077 
L 267.867698 246.110478 
L 268.066128 252.680052 
L 268.264558 270.870428 
L 268.462989 257.770975 
L 268.661419 235.343124 
L 268.859849 246.001316 
L 269.058279 221.687937 
L 269.25671 241.743993 
L 269.45514 217.192443 
L 269.65357 210.176297 
L 269.852 234.489675 
L 270.050431 219.951267 
L 270.248861 236.702689 
L 270.447291 230.162886 
L 270.645721 242.637138 
L 270.844151 267.188688 
L 271.042582 251.38003 
L 271.241012 251.38003 
L 271.439442 270.453627 
L 271.637872 248.83953 
L 271.836303 257.9893 
L 272.034733 283.304985 
L 272.233163 288.42568 
L 272.431593 296.940324 
L 272.630024 312.84822 
L 272.828454 293.417365 
L 273.026884 292.246353 
L 273.225314 282.739326 
L 273.423745 258.187776 
L 273.820605 233.656074 
L 274.217466 278.362918 
L 274.415896 204.48002 
L 274.614326 224.536076 
L 274.812756 217.966502 
L 275.011186 241.108868 
L 275.209617 234.092722 
L 275.606477 272.428469 
L 275.804907 256.520573 
L 276.003338 262.524489 
L 276.400198 299.788463 
L 276.598628 290.281436 
L 276.797059 306.645828 
L 276.995489 290.281436 
L 277.193919 284.525615 
L 277.59078 316.52996 
L 277.78921 292.216582 
L 277.98764 308.580974 
L 278.18607 334.363079 
L 278.3845 340.118899 
L 278.582931 316.976532 
L 278.781361 312.30241 
L 279.575082 239.392046 
L 279.773512 251.082315 
L 280.170373 231.423212 
L 280.368803 224.466609 
L 280.567233 239.352351 
L 280.765663 222.987959 
L 281.162524 230.63923 
L 281.360954 249.712827 
L 281.559384 230.281972 
L 281.757815 249.474655 
L 281.956245 253.622815 
L 282.353105 223.771941 
L 282.551535 253.315177 
L 282.749966 263.973368 
L 282.948396 288.286746 
L 283.146826 266.672649 
L 283.345256 273.242223 
L 283.543687 261.551954 
L 283.940547 297.456363 
L 284.138977 294.280738 
L 284.337408 287.770707 
L 284.535838 294.786853 
L 285.131129 342.709018 
L 285.527989 308.640517 
L 286.12328 330.482862 
L 286.32171 314.11847 
L 286.52014 330.482862 
L 286.71857 310.426806 
L 286.917001 334.978356 
L 287.313861 299.996863 
L 287.512291 315.904759 
L 287.710722 309.335185 
L 288.107582 322.444562 
L 288.306012 312.937535 
L 288.504443 318.94145 
L 288.702873 302.577058 
L 289.099733 289.050881 
L 289.496594 314.9223 
L 289.893454 276.943811 
L 290.091884 298.557908 
L 290.290315 285.458455 
L 290.488745 260.906905 
L 290.687175 282.977498 
L 290.885605 266.613106 
L 291.084036 273.569709 
L 291.480896 248.254024 
L 291.679326 257.761052 
L 291.877757 232.346128 
L 292.076187 249.64336 
L 292.274617 252.471651 
L 292.473047 259.428255 
L 292.869908 224.546 
L 293.068338 231.562146 
L 293.663629 279.752254 
L 293.862059 263.943596 
L 294.258919 276.904116 
L 294.45735 294.221195 
L 294.65578 297.049486 
L 295.05264 321.452179 
L 295.449501 282.600393 
L 295.846361 242.795919 
L 296.044792 255.240399 
L 296.243222 239.213417 
L 296.441652 236.385126 
L 296.640082 223.940646 
L 297.036943 260.936676 
L 297.830664 317.016228 
L 298.227524 282.947727 
L 298.425954 276.368229 
L 298.624385 292.395211 
L 298.822815 276.030819 
L 299.219675 310.09932 
L 299.418106 303.559517 
L 300.013396 261.274087 
L 300.211827 277.082744 
L 300.807117 221.042888 
L 301.005548 231.790394 
L 301.203978 234.618685 
L 301.402408 256.232782 
L 301.600838 262.772585 
L 301.799268 277.310992 
L 301.997699 266.652801 
L 302.394559 292.067725 
L 302.592989 276.159828 
L 302.79142 298.587679 
L 302.98985 282.779022 
L 303.18828 289.348596 
L 303.38671 285.200436 
L 303.585141 304.274033 
L 303.982001 284.872949 
L 304.180431 278.303375 
L 304.378862 294.330357 
L 304.577292 272.71626 
L 304.775722 263.209233 
L 304.974152 243.778378 
L 305.569443 280.099588 
L 305.767873 272.061288 
L 305.966303 305.861845 
L 306.164734 310.010005 
L 306.363164 205.174688 
L 306.561594 183.104095 
L 306.760024 204.718192 
L 306.958455 195.211165 
L 307.156885 178.052866 
L 307.355315 188.324028 
L 307.553745 191.152319 
L 307.752176 207.90374 
L 307.950606 199.86544 
L 308.149036 206.881586 
L 308.347466 190.517194 
L 308.545897 210.57325 
L 308.942757 181.446815 
L 309.538048 227.513224 
L 309.736478 220.94365 
L 309.934908 225.09181 
L 310.133338 222.263519 
L 310.331769 215.306916 
L 310.530199 221.062736 
L 310.728629 205.15484 
L 310.927059 198.575342 
L 311.12549 182.766684 
L 311.32392 197.235625 
L 311.52235 279.851492 
L 311.72078 299.907549 
L 311.919211 283.880567 
L 312.117641 294.538758 
L 312.316071 318.852136 
L 312.514501 302.487744 
L 312.712931 318.852136 
L 313.109792 298.686918 
L 313.308222 304.690834 
L 313.506652 326.304931 
L 313.903513 302.457972 
L 314.101943 295.888398 
L 314.300373 302.904545 
L 314.697234 333.469934 
L 314.895664 327.466019 
L 315.094094 311.439037 
L 315.292525 304.42289 
L 315.490955 320.449872 
L 315.689385 313.493269 
L 315.887815 296.196037 
L 316.086246 296.196037 
L 316.284676 180.891081 
L 316.483106 185.753757 
L 316.681536 201.661653 
L 316.879966 195.092079 
L 317.276827 242.587519 
L 317.475257 220.973422 
L 317.872118 224.149047 
L 318.268978 245.763144 
L 318.467408 257.453413 
L 318.665839 280.59578 
L 318.864269 287.135582 
L 319.261129 326.22554 
L 319.85642 264.271083 
L 320.05485 285.88518 
L 320.25328 291.641 
L 320.451711 285.061502 
L 320.650141 309.37488 
L 320.848571 303.61906 
L 321.047001 294.112033 
L 321.245432 203.031141 
L 321.443862 210.047287 
L 321.642292 192.888989 
L 321.840722 199.428791 
L 322.039153 183.401809 
L 322.634443 227.592615 
L 322.832874 216.934424 
L 323.031304 200.183002 
L 323.428164 246.924232 
L 323.626595 256.411411 
L 324.023455 302.577058 
L 324.420315 267.139069 
L 324.618746 264.310778 
L 325.015606 296.265504 
L 325.214036 271.713954 
L 325.412467 294.141805 
L 325.610897 276.824725 
L 325.809327 283.781328 
L 326.007757 308.094707 
L 326.206188 301.07856 
L 326.603048 266.980288 
L 326.801478 311.349722 
L 326.999909 297.019715 
L 327.198339 298.339584 
L 327.595199 316.599427 
L 327.79363 304.909158 
L 328.58735 237.218728 
L 328.785781 233.914093 
L 328.984211 217.668787 
L 329.182641 237.724843 
L 329.381071 223.186435 
L 329.777932 244.026474 
L 329.976362 250.983077 
L 330.174792 240.027171 
L 330.571653 271.723877 
L 330.968513 239.332503 
L 331.166944 245.912001 
L 331.563804 212.845807 
L 331.762234 212.032053 
L 331.960664 227.939949 
L 332.357525 219.355838 
L 332.555955 235.72023 
L 332.754385 242.289804 
L 332.952816 266.841354 
L 333.151246 272.597174 
L 333.349676 268.449014 
L 333.548106 214.393924 
L 333.746537 236.821775 
L 334.143397 258.773282 
L 334.341827 242.964624 
L 334.540258 240.136333 
L 335.135548 288.584461 
L 335.333979 282.580545 
L 335.532409 273.073518 
L 335.730839 288.981414 
L 335.929269 287.810402 
L 336.127699 307.241257 
L 336.52456 262.028298 
L 336.72299 268.032213 
L 336.92142 263.884053 
L 337.119851 288.197432 
L 337.516711 251.449497 
L 338.310432 323.427021 
L 338.508862 301.812923 
L 338.707293 309.851224 
L 339.302583 259.358788 
L 339.501013 278.432385 
L 339.699444 265.987905 
L 339.897874 280.526313 
L 340.691595 209.89843 
L 340.890025 224.15897 
L 341.088455 247.301337 
L 341.286886 224.873486 
L 341.485316 231.830089 
L 341.683746 244.27457 
L 342.477467 189.931688 
L 342.675897 209.362543 
L 342.874328 215.932117 
L 343.271188 249.613589 
L 343.469618 233.586607 
L 343.668048 227.017033 
L 344.064909 253.999921 
L 344.263339 245.96162 
L 344.461769 261.988602 
L 344.6602 257.840442 
L 344.85863 245.395962 
L 345.25549 252.372413 
L 345.652351 243.788302 
L 345.850781 268.339852 
L 346.049211 277.846879 
L 346.247642 261.482487 
L 346.446072 266.722268 
L 347.041362 221.261213 
L 347.239793 221.261213 
L 347.835083 251.598354 
L 348.033514 227.284976 
L 348.231944 245.475353 
L 348.430374 238.895855 
L 348.628804 245.336419 
L 348.827235 248.16471 
L 349.025665 229.974334 
L 349.224095 247.132632 
L 349.422525 239.094331 
L 349.819386 270.106293 
L 350.017816 267.278003 
L 350.216246 253.017462 
L 350.414677 229.875095 
L 350.613107 246.239487 
L 350.811537 251.796831 
L 351.009967 251.409802 
L 351.208397 274.552168 
L 351.406828 280.556084 
L 351.605258 269.897893 
L 352.002118 306.586285 
L 352.200549 293.486832 
L 352.398979 300.06633 
L 352.597409 293.050183 
L 352.795839 313.10624 
L 352.99427 300.661759 
L 353.39113 258.951911 
L 353.58956 269.610102 
L 353.787991 247.182251 
L 353.986421 252.938071 
L 354.184851 238.677531 
L 354.383281 262.990909 
L 354.780142 230.599535 
L 354.978572 246.626517 
L 355.177002 227.55292 
L 355.375432 246.983775 
L 355.772293 233.834703 
L 355.970723 258.386253 
L 356.169153 234.072874 
L 356.764444 274.383463 
L 357.161305 238.518749 
L 357.359735 252.77929 
L 357.558165 275.207141 
L 357.756595 265.700114 
L 357.955026 249.792218 
L 358.153456 256.808364 
L 358.550316 297.496058 
L 358.748746 233.904169 
L 359.145607 259.80536 
L 359.740898 210.295383 
L 359.939328 224.555924 
L 360.137758 223.295597 
L 360.336188 230.252201 
L 360.534619 241.94247 
L 360.733049 234.985867 
L 360.931479 221.886414 
L 361.129909 217.738254 
L 361.32834 224.694857 
L 361.52677 221.886414 
L 361.7252 212.875578 
L 361.92363 228.783474 
L 362.518921 187.559893 
L 362.717351 289.527225 
L 362.915781 283.433994 
L 363.114212 273.926967 
L 363.312642 280.883571 
L 363.511072 283.711861 
L 363.907933 250.268562 
L 364.304793 272.220069 
L 364.503223 256.312173 
L 364.900084 286.192818 
L 365.098514 300.453359 
L 365.296944 306.209179 
L 365.495375 294.51891 
L 365.693805 313.592507 
L 366.289095 295.471597 
L 366.487526 301.475513 
L 366.685956 279.40492 
L 366.884386 296.563219 
L 367.082816 290.807398 
L 367.281247 302.120562 
L 367.479677 299.193033 
L 367.678107 290.658541 
L 367.876537 294.31051 
L 368.074968 317.452876 
L 368.273398 321.104845 
L 368.670258 350.112194 
L 368.868689 332.953895 
L 369.067119 347.492303 
L 369.265549 333.231763 
L 369.463979 339.81126 
L 370.2577 288.63408 
L 370.852991 309.305414 
L 371.249851 274.423159 
L 371.646712 312.669591 
L 371.845142 300.979322 
L 372.043572 316.78798 
L 372.242003 297.357125 
L 372.440433 304.373271 
L 372.638863 297.416668 
L 372.837293 303.996166 
L 373.035724 281.568315 
L 373.432584 266.305467 
L 373.631014 235.095029 
L 373.829444 228.138425 
L 374.027875 230.321668 
L 374.226305 247.638747 
L 374.623165 224.307828 
L 374.821596 237.407281 
L 375.020026 221.042888 
L 375.218456 227.582691 
L 375.416886 221.013117 
L 375.615317 227.582691 
L 376.409038 284.088967 
L 377.004328 250.506733 
L 377.202759 225.955183 
L 377.599619 252.888452 
L 377.798049 260.926753 
L 377.996479 254.347255 
L 378.19491 237.982863 
L 378.39334 244.562361 
L 378.59177 255.220552 
L 378.7902 274.294149 
L 378.988631 267.724575 
L 379.187061 271.872735 
L 379.385491 251.816679 
L 379.583921 258.773282 
L 379.782352 251.816679 
L 379.980782 273.430776 
L 380.179212 280.387379 
L 380.576073 246.418116 
L 380.774503 252.422032 
L 380.972933 235.670611 
L 381.171363 229.666695 
L 381.369793 254.218245 
L 381.568224 241.773765 
L 381.766654 256.312173 
L 382.163514 215.624478 
L 382.361945 223.166588 
L 382.560375 217.688635 
L 382.758805 203.428094 
L 382.957235 208.915971 
L 383.155666 225.280363 
L 383.354096 228.108654 
L 383.552526 217.450463 
L 383.949387 182.012473 
L 384.346247 196.798977 
L 384.544677 286.867639 
L 384.941538 315.339101 
L 385.139968 318.167392 
L 385.536828 283.185899 
L 385.735259 302.259496 
L 386.132119 257.761052 
L 386.330549 274.91935 
L 386.52898 269.16353 
L 386.72741 250.089933 
L 386.92584 251.548735 
L 387.12427 242.041708 
L 387.521131 255.161009 
L 387.719561 248.204405 
L 387.917991 254.208321 
L 388.116422 243.55013 
L 388.314852 265.620723 
L 388.513282 272.577327 
L 388.711712 284.267596 
L 389.108573 250.209019 
L 389.307003 246.060859 
L 389.703863 232.50491 
L 390.100724 260.758048 
L 390.299154 270.265075 
L 390.497584 264.261159 
L 390.696015 280.169055 
L 390.894445 263.010757 
L 391.092875 273.668948 
L 391.489736 312.441343 
L 391.886596 290.142502 
L 392.085026 308.332878 
L 392.481887 267.754346 
L 392.680317 282.243135 
L 392.878747 194.843983 
L 393.077177 201.423481 
L 393.474038 167.811476 
L 394.069329 210.245764 
L 394.267759 204.241848 
L 394.466189 191.142395 
L 394.86305 222.501691 
L 395.06148 231.274355 
L 395.25991 232.405671 
L 395.45834 244.939466 
L 395.656771 227.622386 
L 396.053631 263.199309 
L 396.450492 238.945474 
L 396.847352 266.583335 
L 397.244212 226.689547 
L 397.442643 248.303644 
L 397.641073 241.724146 
L 397.839503 264.866512 
L 398.236364 249.355569 
L 398.831654 282.183592 
L 399.030085 306.49697 
L 399.228515 292.23643 
L 399.426945 304.68091 
L 399.625375 229.517837 
L 399.823806 253.831216 
L 400.220666 213.252684 
L 400.419096 247.708214 
L 400.617526 231.343822 
L 400.815957 234.390437 
L 401.014387 268.071909 
L 401.411247 225.329982 
L 401.609678 214.582477 
L 402.006538 255.290018 
L 402.204968 274.720873 
L 402.403399 280.476694 
L 402.800259 245.763144 
L 402.998689 252.77929 
L 403.19712 252.77929 
L 403.59398 286.996648 
L 403.990841 261.045839 
L 404.189271 267.585641 
L 404.387701 260.569495 
L 404.586131 274.869731 
L 404.784561 202.217387 
L 404.982992 179.789536 
L 405.181422 297.297582 
L 405.578282 324.895747 
L 405.776713 308.987851 
L 405.975143 302.448048 
L 406.173573 285.130969 
L 406.372003 291.670771 
L 406.570434 304.770224 
L 406.768864 310.526044 
L 406.967294 306.377884 
L 407.364155 343.899877 
L 407.959445 287.205049 
L 408.157875 311.756599 
L 408.356306 314.58489 
L 408.753166 282.868336 
L 408.951596 298.676994 
L 409.150027 282.650012 
L 409.348457 297.18842 
L 409.546887 272.63687 
L 409.745317 291.710467 
L 410.737469 242.656986 
L 410.935899 249.22656 
L 411.134329 234.688152 
L 411.332759 230.420906 
L 411.53119 214.612248 
L 411.72962 215.048896 
L 411.92805 192.978303 
L 412.12648 190.358413 
L 412.32491 210.414469 
L 412.523341 187.272102 
L 412.920201 245.872306 
L 413.118631 234.182037 
L 413.317062 241.198183 
L 413.515492 228.753703 
L 413.713922 240.443972 
L 413.912352 221.370375 
L 414.110783 250.963229 
L 414.507643 254.605274 
L 414.706073 242.587519 
L 414.904504 262.018374 
L 415.102934 268.597872 
L 415.499794 233.249197 
L 415.896655 267.843661 
L 416.293515 229.478142 
L 416.491945 296.672381 
L 416.690376 274.601787 
L 416.888806 281.14159 
L 417.484097 222.481844 
L 417.880957 253.384643 
L 418.277818 222.501691 
L 418.476248 229.458294 
L 418.674678 211.267918 
L 418.873108 224.367371 
L 419.269969 262.246622 
L 419.468399 242.190566 
L 419.666829 253.880835 
L 420.06369 221.608547 
L 420.65898 267.337545 
L 420.857411 267.337545 
L 421.055841 277.995737 
L 421.254271 270.652104 
L 421.452701 283.751557 
L 421.651132 259.438178 
L 422.047992 303.807613 
L 422.246422 311.845913 
L 422.444853 334.273764 
L 422.643283 328.517944 
L 422.841713 347.948799 
L 423.238573 318.484954 
L 423.437004 179.908622 
L 423.635434 179.253649 
L 423.833864 185.833147 
L 424.032294 179.253649 
L 424.429155 195.052383 
L 424.627585 215.108439 
L 424.826015 200.570032 
L 425.222876 230.420906 
L 425.421306 227.592615 
L 425.818167 264.558874 
L 426.016597 251.459421 
L 426.413457 266.037524 
L 426.611888 283.354604 
L 426.810318 276.78503 
L 427.008748 291.04557 
L 427.207178 276.507162 
L 427.405608 288.951643 
L 427.604039 291.779934 
L 427.802469 285.776018 
L 428.000899 268.617719 
L 428.39776 301.346504 
L 428.79462 327.575181 
L 428.99305 334.144755 
L 429.389911 295.32274 
L 429.588341 319.87429 
L 429.786771 305.335882 
L 429.985202 318.435335 
L 430.183632 298.379279 
L 430.382062 210.493859 
L 430.580492 188.423266 
L 430.778923 206.613643 
L 430.977353 213.570246 
L 431.175783 238.121796 
L 431.374213 240.950087 
L 431.771074 206.355623 
L 432.167934 248.303644 
L 432.366364 234.043103 
L 432.564795 252.233479 
L 432.763225 245.713525 
L 432.961655 252.283099 
L 433.358516 293.347898 
L 433.556946 276.596477 
L 433.953806 262.703118 
L 434.152237 246.338726 
L 434.549097 282.451535 
L 435.342818 246.695984 
L 435.541248 222.144433 
L 435.739678 222.769635 
L 435.938109 225.449068 
L 436.136539 241.356964 
L 436.334969 225.449068 
L 436.73183 249.861685 
L 436.93026 235.601144 
L 437.12869 254.674741 
L 437.525551 215.674098 
L 437.922411 251.915917 
L 438.120841 254.744208 
L 438.517702 224.486457 
L 439.112992 249.206712 
L 439.311423 227.880406 
L 439.509853 244.244798 
L 439.708283 251.260944 
L 440.105144 295.868551 
L 440.303574 288.852404 
L 440.502004 264.539026 
L 440.700434 278.799567 
L 440.898865 281.627858 
L 441.097295 305.941236 
L 441.295725 285.88518 
L 441.494155 304.958777 
L 441.692586 298.954861 
L 441.891016 305.911464 
L 442.089446 283.483613 
L 442.287876 290.063111 
L 442.684737 252.799138 
L 442.883167 259.815284 
L 443.081597 254.059464 
L 443.280027 259.815284 
L 443.478458 275.72318 
L 443.676888 261.462639 
L 443.875318 255.706819 
L 444.073748 261.710735 
L 444.272179 248.611282 
L 444.470609 270.681875 
L 445.0659 202.683807 
L 445.46276 260.708428 
L 445.66119 257.880138 
L 445.859621 261.770278 
L 446.256481 274.184987 
L 446.653341 311.826066 
L 446.851772 303.787765 
L 447.050202 179.303268 
L 447.248632 186.319415 
L 447.645493 224.41699 
L 447.843923 218.66117 
L 448.042353 241.803536 
L 448.240783 225.776554 
L 448.439214 287.641697 
L 448.637644 271.128448 
L 448.836074 278.144594 
L 449.034504 271.187991 
L 449.232935 256.649583 
L 449.629795 284.287443 
L 450.026655 249.69298 
L 450.225086 247.073089 
L 450.423516 256.580116 
L 450.621946 274.770493 
L 450.820376 258.862596 
L 451.018807 272.359002 
L 451.217237 204.728115 
L 451.415667 198.823438 
L 451.812528 157.599857 
L 452.010958 166.838941 
L 452.209388 170.10388 
L 452.606249 203.219694 
L 452.804679 190.120241 
L 453.003109 204.658649 
L 453.201539 201.830358 
L 453.39997 240.821077 
L 453.5984 242.309652 
L 453.79683 242.309652 
L 453.99526 262.365708 
L 454.19369 251.707517 
L 454.392121 251.707517 
L 454.590551 256.947298 
L 454.987411 293.099803 
L 455.185842 271.485706 
L 455.384272 290.559303 
L 455.582702 287.731012 
L 455.781132 276.040743 
L 455.979563 285.54777 
L 456.177993 268.389471 
L 456.376423 264.737503 
L 456.574853 286.3516 
L 456.773284 213.639713 
L 456.971714 211.426699 
L 457.170144 224.526152 
L 457.368574 249.077702 
L 457.567004 242.5379 
L 457.765435 262.593956 
L 457.963865 250.149476 
L 458.162295 259.656503 
L 458.360725 237.228652 
L 458.757586 277.688098 
L 458.956016 263.14969 
L 459.352877 303.49005 
L 459.551307 296.910553 
L 459.749737 315.98415 
L 459.948167 307.945849 
L 460.345028 271.525401 
L 460.543458 295.799084 
L 460.741888 276.368229 
L 460.940319 200.718889 
L 461.138749 218.035969 
L 461.337179 225.270439 
L 461.734039 232.534681 
L 461.93247 225.994879 
L 462.52776 292.762392 
L 462.726191 271.148295 
L 462.924621 264.191692 
L 463.321481 305.663369 
L 463.718342 265.769581 
L 464.115202 225.09181 
L 464.313633 271.426163 
L 464.512063 260.767971 
L 464.710493 267.347469 
L 465.107354 302.2198 
L 465.305784 295.679998 
L 465.702644 257.245013 
L 466.297935 313.870374 
L 466.496365 331.028673 
L 466.694795 328.200382 
L 466.893226 334.740184 
L 467.091656 345.398375 
L 467.290086 329.490479 
L 467.686947 365.454432 
L 468.083807 347.184665 
L 468.282237 340.228061 
L 468.480668 320.172005 
L 468.877528 330.075985 
L 469.472819 280.794256 
L 469.671249 300.225111 
L 469.869679 293.655537 
L 470.26654 261.016067 
L 470.6634 290.866941 
L 470.86183 282.828641 
L 471.060261 264.638264 
L 471.258691 258.098462 
L 471.655551 279.593473 
L 472.052412 248.581511 
L 472.449272 281.915649 
L 472.647703 277.767489 
L 473.044563 322.375095 
L 473.242993 299.947244 
L 473.441423 316.311636 
L 473.639854 294.241043 
L 474.433575 361.643682 
L 474.632005 368.659828 
L 475.028865 333.777573 
L 475.425726 372.014082 
L 475.822586 382.702044 
L 476.021017 400.019124 
L 476.417877 361.564291 
L 476.616307 373.25456 
L 476.814737 360.155108 
L 477.013168 373.25456 
L 477.410028 338.660096 
L 477.608458 361.087947 
L 477.806889 367.091863 
L 478.402179 322.930829 
L 478.79904 355.709233 
L 478.99747 352.880942 
L 479.1959 345.864795 
L 479.394331 348.693086 
L 479.592761 335.593634 
L 479.791191 354.667231 
L 479.989621 342.976961 
L 480.188052 349.546536 
L 480.584912 374.86222 
L 480.981772 332.120294 
L 481.180203 317.581886 
L 481.378633 313.433726 
L 481.577063 303.926699 
L 481.775493 310.506197 
L 481.973924 293.754775 
L 482.172354 306.199255 
L 482.370784 295.541064 
L 482.569214 273.470471 
L 482.966075 301.068636 
L 483.561366 261.125229 
L 483.958226 220.447459 
L 484.156656 236.811851 
L 484.553517 202.634188 
L 484.950377 251.499116 
L 485.148807 244.929542 
L 485.347238 259.46795 
L 485.545668 237.040099 
L 485.744098 231.036183 
L 485.942528 254.17855 
L 486.339389 213.500779 
L 486.537819 221.459689 
L 486.736249 233.904169 
L 486.93468 216.745871 
L 487.13311 266.871126 
L 487.33154 259.914522 
L 487.52997 264.062682 
L 487.926831 281.677477 
L 488.125261 303.74807 
L 488.323691 310.327568 
L 488.720552 282.352297 
L 488.918982 275.395694 
L 489.117412 250.844144 
L 489.315842 256.848059 
L 489.712703 219.226828 
L 489.911133 212.687025 
L 490.109563 230.877402 
L 490.307994 218.432922 
L 490.506424 258.654196 
L 490.704854 247.341032 
L 490.903284 250.169323 
L 491.101715 255.925143 
L 491.300145 250.169323 
L 491.697005 290.430293 
L 491.895435 283.89049 
L 492.093866 298.151031 
L 492.292296 278.720176 
L 492.689156 301.296884 
L 493.086017 276.507162 
L 493.879738 334.52186 
L 494.475029 289.338672 
L 494.673459 282.769098 
L 494.871889 305.196949 
L 495.070319 294.538758 
L 495.26875 275.46516 
L 495.46718 277.737717 
L 496.06247 334.452393 
L 496.260901 318.643736 
L 496.856191 336.943274 
L 497.054622 317.512419 
L 497.253052 334.670718 
L 497.451482 312.600124 
L 497.649912 309.771833 
L 497.848343 302.755687 
L 498.046773 285.597389 
L 498.245203 279.593473 
L 498.443633 285.597389 
L 498.642064 272.497936 
L 498.840494 283.156127 
L 499.038924 275.117827 
L 499.832645 327.604952 
L 500.031075 313.066544 
L 500.229505 221.648242 
L 500.427936 240.721839 
L 500.626366 221.648242 
L 500.824796 227.404062 
L 501.023226 243.768454 
L 501.221657 236.752308 
L 501.420087 237.139337 
L 501.618517 247.797528 
L 501.816947 231.988871 
L 502.213808 251.102163 
L 502.412238 259.140464 
L 502.610668 261.968755 
L 502.809099 255.428952 
L 503.007529 239.521056 
L 503.404389 268.329928 
L 503.602819 262.326012 
L 503.99968 240.374505 
L 504.19811 256.282401 
L 504.594971 222.948263 
L 504.793401 204.390705 
L 504.991831 208.796885 
L 505.190261 233.110263 
L 505.388692 239.114179 
L 505.587122 275.614018 
L 505.785552 275.614018 
L 505.983982 282.183592 
L 506.182413 298.45867 
L 506.579273 274.691102 
L 507.174564 311.587894 
L 507.372994 307.439734 
L 507.769854 270.850581 
L 508.166715 297.555601 
L 508.365145 275.12775 
L 508.563575 280.883571 
L 508.762006 300.314425 
L 508.960436 303.142716 
L 509.357296 340.108975 
L 509.555727 327.009522 
L 509.754157 340.108975 
L 509.952587 315.795597 
L 510.151017 331.703493 
L 510.349448 318.60404 
L 510.547878 343.15559 
L 510.746308 349.735088 
L 510.944738 330.304233 
L 511.143168 336.308149 
L 511.738459 382.930292 
L 511.936889 275.187293 
L 512.13532 281.766791 
L 512.33375 273.728491 
L 512.53218 276.556782 
L 512.73061 293.308203 
L 512.929041 271.694106 
L 513.127471 288.058498 
L 513.325901 287.482916 
L 513.524331 302.021324 
L 514.119622 249.881532 
L 514.318052 265.69019 
L 514.516483 253.24571 
L 514.714913 261.54203 
L 514.913343 249.107474 
L 515.111773 255.686972 
L 515.508634 227.245281 
L 515.707064 227.96972 
L 516.103924 233.328587 
L 516.302355 220.794793 
L 516.500785 258.32671 
L 516.699215 267.238307 
L 516.897645 284.396606 
L 517.096076 267.079526 
L 517.294506 275.117827 
L 517.492936 299.431205 
L 517.889797 286.847791 
L 518.088227 285.408836 
L 518.286657 275.633866 
L 518.485087 292.950945 
L 518.683517 278.412537 
L 518.881948 284.168358 
L 519.080378 295.858627 
L 519.874099 222.283367 
L 520.270959 222.283367 
L 520.46939 213.987047 
L 520.66782 220.566545 
L 520.86625 213.609941 
L 521.06468 191.18209 
L 521.263111 207.933512 
L 521.461541 213.937428 
L 521.659971 230.30182 
L 521.858401 207.159453 
L 522.453692 271.803268 
L 522.652122 278.819414 
L 523.048983 239.332503 
L 523.445843 273.847577 
L 523.644273 267.278003 
L 524.041134 243.143253 
L 524.239564 243.143253 
L 524.437994 224.069656 
L 524.636425 243.500511 
L 524.834855 235.46221 
L 525.033285 219.653553 
L 525.231715 231.343822 
L 525.430146 227.195662 
L 525.827006 259.33894 
L 526.223866 272.299459 
L 526.422297 250.536505 
L 526.620727 267.287926 
L 526.819157 248.730368 
L 527.216018 277.638479 
L 527.414448 271.882659 
L 527.811308 284.654625 
L 528.009739 278.898805 
L 528.208169 285.438608 
L 528.406599 269.411625 
L 528.605029 263.40771 
L 528.80346 267.059678 
L 529.00189 268.548252 
L 529.20032 274.304073 
L 529.39875 258.396177 
L 529.597181 277.827032 
L 529.795611 272.071211 
L 529.994041 205.015906 
L 530.192471 205.015906 
L 530.589332 236.762232 
L 530.986192 272.63687 
L 531.184622 251.022772 
L 531.383053 270.09637 
L 531.779913 242.27988 
L 531.978343 242.27988 
L 532.176774 230.589611 
L 532.375204 253.017462 
L 532.573634 230.589611 
L 532.772064 232.078185 
L 532.970495 232.078185 
L 533.367355 266.047448 
L 533.764215 259.070997 
L 533.962646 266.087143 
L 534.161076 247.896767 
L 534.359506 265.055065 
L 534.954797 216.993967 
L 535.153227 232.931634 
L 535.351657 239.471437 
L 535.550088 233.715617 
L 535.946948 277.549164 
L 536.145378 277.549164 
L 536.343809 281.697324 
L 536.740669 314.664281 
L 537.13753 280.188903 
L 537.33596 297.505982 
L 537.53439 303.261802 
L 537.73282 285.944723 
L 537.93125 291.948639 
L 538.129681 306.487046 
L 538.724971 265.362704 
L 539.121832 294.161652 
L 539.320262 284.654625 
L 539.518692 292.692926 
L 539.915553 262.931366 
L 540.113983 269.471168 
L 540.312413 289.527225 
L 540.510844 264.975674 
L 540.709274 271.991821 
L 541.304565 330.363776 
L 541.502995 323.794202 
L 541.701425 334.452393 
L 542.296716 281.697324 
L 542.495146 293.387594 
L 542.693576 278.849186 
L 542.892006 281.677477 
L 543.090437 275.673561 
L 543.685727 275.673561 
L 543.884158 281.677477 
L 544.082588 303.291574 
L 544.281018 290.847094 
L 544.677879 305.454968 
L 544.876309 223.781865 
L 545.273169 197.364635 
L 545.471599 213.351922 
L 545.67003 220.308525 
L 546.06689 186.120938 
L 546.463751 204.81743 
L 546.662181 198.813514 
L 546.860611 205.383088 
L 547.059041 193.692819 
L 547.257472 193.692819 
L 547.455902 206.137299 
L 547.654332 229.279666 
L 547.852762 218.621474 
L 548.051193 232.882015 
L 548.249623 213.45116 
L 548.844914 278.00566 
L 549.241774 262.951214 
L 549.440204 265.779504 
L 549.638634 245.723448 
L 550.035495 274.165139 
L 550.233925 251.022772 
L 550.432355 257.026688 
L 550.630786 251.270868 
L 550.829216 274.413235 
L 551.027646 281.429381 
L 551.226076 294.528834 
L 551.821367 238.776769 
L 552.019797 298.280041 
L 552.218228 293.645613 
L 552.416658 284.138586 
L 552.615088 299.947244 
L 552.813518 281.756867 
L 553.011948 289.715777 
L 553.210379 269.659721 
L 553.408809 269.659721 
L 553.607239 292.087572 
L 553.805669 277.827032 
L 554.0041 278.85911 
L 554.20253 288.366137 
L 554.40096 306.556513 
L 554.797821 319.705585 
L 555.194681 305.911464 
L 555.393111 286.837867 
L 555.591542 281.151514 
L 555.789972 301.20757 
L 555.988402 281.776715 
L 556.186832 301.20757 
L 556.385263 284.843178 
L 556.583693 284.843178 
L 556.782123 309.394728 
L 556.980553 287.324135 
L 557.178983 277.817108 
L 557.377414 284.833254 
L 557.774274 247.618899 
L 557.972704 257.125927 
L 558.171135 257.125927 
L 558.369565 254.694589 
L 558.567995 249.067778 
L 558.964856 285.676779 
L 559.163286 269.649797 
L 559.361716 277.688098 
L 559.560146 273.539938 
L 559.758577 273.539938 
L 559.957007 259.00153 
L 560.155437 270.116217 
L 560.552297 270.116217 
L 560.949158 301.812923 
L 561.147588 287.274516 
L 561.346018 290.102807 
L 561.742879 247.529585 
L 562.139739 284.287443 
L 562.33817 291.244047 
L 562.5366 284.287443 
L 562.73503 271.842963 
L 562.93346 271.842963 
L 563.131891 265.263465 
L 563.330321 276.556782 
L 563.528751 254.942684 
L 563.727181 272.259764 
L 563.925612 254.942684 
L 564.124042 254.942684 
L 564.322472 272.259764 
L 564.520902 272.259764 
L 564.719332 261.988602 
L 564.917763 278.352994 
L 565.116193 271.813192 
L 565.314623 285.240131 
L 565.513053 285.240131 
L 565.711484 296.9304 
L 566.108344 286.024113 
L 566.306774 300.562521 
L 566.505205 282.372145 
L 566.703635 282.372145 
L 567.100495 257.969452 
L 567.298926 277.489621 
L 567.497356 282.640088 
L 567.695786 282.640088 
L 567.894216 297.178496 
L 568.291077 272.478088 
L 568.687937 306.576361 
L 568.886367 306.576361 
L 569.084798 310.158863 
L 569.283228 309.345109 
L 569.481658 284.793559 
L 569.680088 284.793559 
L 570.076949 271.317 
L 570.67224 271.317 
L 570.87067 266.047448 
L 571.0691 271.317 
L 571.26753 205.770117 
L 571.465961 212.786264 
L 571.664391 227.324672 
L 571.862821 223.176511 
L 572.061251 242.250109 
L 572.458112 221.032965 
L 572.656542 210.374774 
L 573.053402 222.710092 
L 573.251833 208.171684 
L 573.450263 208.171684 
L 573.648693 202.415864 
L 573.847123 205.035754 
L 574.045554 219.574162 
L 574.243984 212.558016 
L 574.442414 218.313836 
L 574.839275 255.686972 
L 575.037705 245.02878 
L 575.236135 227.711701 
L 575.434565 243.520359 
L 576.029856 192.561502 
L 576.228286 192.561502 
L 576.823577 236.970632 
L 577.022007 230.966716 
L 577.220437 236.970632 
L 577.418868 231.214812 
L 577.617298 231.214812 
L 577.815728 245.872306 
L 578.014158 248.492196 
L 578.212589 255.031999 
L 578.411019 255.031999 
L 578.807879 238.985169 
L 579.00631 252.957919 
L 579.20474 252.957919 
L 579.40317 256.004534 
L 579.6016 245.257028 
L 579.80003 245.257028 
L 579.998461 251.786907 
L 580.196891 266.325315 
L 580.593751 238.270654 
L 580.990612 244.502818 
L 581.387472 203.88459 
L 581.784333 203.88459 
L 581.982763 201.314319 
L 582.181193 184.15602 
L 582.379624 216.428309 
L 582.578054 200.063916 
L 582.776484 207.02052 
L 582.974914 204.192229 
L 583.173345 214.145828 
L 583.371775 198.863133 
L 583.570205 192.859217 
L 583.768635 192.859217 
L 583.967065 195.687508 
L 584.165496 171.135958 
L 584.363926 223.48415 
L 584.562356 239.392046 
L 584.959217 202.128073 
L 585.157647 202.128073 
L 585.356077 194.129467 
L 585.554507 194.129467 
L 585.752938 208.667875 
L 585.951368 202.098301 
L 586.149798 208.667875 
L 586.546659 208.667875 
L 586.943519 192.204245 
L 587.141949 192.204245 
L 587.340379 208.231227 
L 587.53881 214.235143 
L 587.73724 214.235143 
L 587.93567 202.544873 
L 588.332531 232.306433 
L 588.530961 236.454593 
L 588.729391 232.306433 
L 588.927821 216.279451 
L 589.126252 235.353048 
L 589.324682 242.309652 
L 589.721542 207.328158 
L 589.919973 213.907656 
L 590.118403 200.808203 
L 590.316833 200.808203 
L 590.515263 180.752147 
L 590.912124 180.752147 
L 591.110554 190.259174 
L 591.308984 190.259174 
L 591.507414 197.602807 
L 591.705845 216.676404 
L 591.904275 194.605811 
L 592.102705 194.605811 
L 592.301135 200.361631 
L 592.499566 193.782133 
L 592.697996 200.361631 
L 592.896426 184.552973 
L 593.094856 209.104524 
L 593.491717 196.560805 
L 593.888577 196.560805 
L 594.087008 202.564721 
L 594.285438 195.985223 
L 594.483868 195.985223 
L 594.682298 210.523631 
L 594.880728 199.86544 
L 595.079159 199.86544 
L 595.277589 185.327032 
L 595.476019 189.475192 
L 595.674449 196.014995 
L 595.87288 196.014995 
L 596.07131 189.058391 
L 596.26974 174.519983 
L 596.46817 175.502442 
L 596.666601 191.3111 
L 596.865031 191.3111 
L 597.063461 188.482809 
L 597.857182 188.482809 
L 598.055612 178.975782 
L 598.254043 178.975782 
L 598.452473 178.380352 
L 598.650903 197.45395 
L 598.849333 197.45395 
L 599.047763 204.033447 
L 599.246194 228.346826 
L 599.444624 228.346826 
L 599.643054 239.005017 
L 599.841484 236.176726 
L 600.039915 236.176726 
L 600.238345 232.028566 
L 600.436775 225.449068 
L 600.635205 211.97251 
L 600.833636 210.890813 
L 601.032066 210.890813 
L 601.230496 193.573733 
L 601.825787 193.573733 
L 602.222647 232.365976 
L 603.016368 232.365976 
L 603.214798 207.814426 
L 603.413229 207.814426 
L 603.611659 219.504695 
L 604.008519 219.504695 
L 604.20695 200.431098 
L 604.40538 193.474495 
L 604.60381 212.90535 
L 604.80224 196.540957 
L 605.199101 196.540957 
L 605.397531 210.801498 
L 605.595961 210.801498 
L 605.794392 204.231924 
L 605.992822 205.730422 
L 606.191252 205.730422 
L 606.389682 215.237449 
L 606.588112 212.617559 
L 606.786543 193.186704 
L 606.984973 201.721196 
L 607.778694 201.721196 
L 607.977124 224.863562 
L 608.175554 217.847416 
L 608.373985 217.847416 
L 608.572415 221.995576 
L 608.770845 228.535379 
L 609.167706 188.413342 
L 609.961427 188.413342 
L 610.159857 165.985491 
L 612.54102 165.985491 
L 612.73945 159.594546 
L 612.93788 159.594546 
L 613.334741 188.314104 
L 613.533171 197.711969 
L 613.731601 200.54026 
L 614.128461 200.54026 
L 614.326892 187.440807 
L 614.922182 187.440807 
L 615.120613 176.852083 
L 615.319043 183.868229 
L 615.517473 171.423749 
L 615.715903 177.427665 
L 616.311194 177.427665 
L 616.509624 160.676244 
L 616.708055 160.676244 
L 616.906485 143.359164 
L 618.097066 143.359164 
L 618.295496 164.973261 
L 618.493927 164.973261 
L 618.692357 146.782885 
L 618.890787 148.390545 
L 619.089217 143.656879 
L 620.87509 143.656879 
L 621.07352 144.976748 
L 621.27195 138.020145 
L 621.66881 176.673454 
L 621.867241 167.166427 
L 622.065671 167.166427 
L 622.264101 152.905886 
L 624.049973 152.905886 
L 624.248404 170.222966 
L 624.446834 177.179569 
L 624.645264 170.222966 
L 624.843694 170.222966 
L 625.042125 169.657308 
L 625.240555 183.917848 
L 625.438985 183.917848 
L 625.637415 177.378046 
L 626.034276 177.378046 
L 626.232706 174.013868 
L 626.629566 173.954325 
L 626.827997 159.465537 
L 627.026427 166.561073 
L 627.621718 166.561073 
L 627.820148 176.068101 
L 628.217008 176.068101 
L 628.415439 157.877724 
L 628.613869 155.307453 
L 629.010729 155.307453 
L 629.209159 146.772961 
L 629.40759 143.94467 
L 630.399741 143.94467 
L 630.598171 150.484472 
L 631.391892 150.484472 
L 631.590322 173.626839 
L 632.185613 173.626839 
L 632.384043 167.622923 
L 632.979334 167.622923 
L 633.177764 163.554154 
L 633.376194 163.554154 
L 633.574625 167.861095 
L 633.773055 167.235894 
L 634.169915 167.235894 
L 634.368346 154.821185 
L 634.566776 162.621314 
L 635.360497 162.621314 
L 635.558927 146.376008 
L 635.757357 146.376008 
L 635.955788 152.945582 
L 636.352648 152.945582 
L 636.551078 168.754239 
L 636.749508 162.214437 
L 636.947939 162.214437 
L 637.146369 137.662887 
L 637.74166 137.662887 
L 637.94009 144.202689 
L 638.13852 144.202689 
L 638.33695 128.394031 
L 638.535381 127.818449 
L 639.329102 127.818449 
L 639.527532 133.336098 
L 641.908695 133.336098 
L 642.107125 139.836205 
L 643.694567 139.836205 
L 643.892997 131.877295 
L 644.091427 146.415703 
L 644.289858 134.725434 
L 645.083578 134.725434 
L 645.282009 132.542192 
L 645.480439 132.542192 
L 645.678869 129.862758 
L 648.060032 129.862758 
L 648.258462 147.021056 
L 648.456892 137.514029 
L 648.853753 141.503408 
L 649.052183 141.503408 
L 649.250613 138.675117 
L 652.227067 138.675117 
L 652.425497 136.462104 
L 652.623927 129.5055 
L 653.814509 129.5055 
L 654.012939 135.489568 
L 654.211369 135.489568 
L 654.4098 133.147545 
L 654.80666 133.147545 
L 655.00509 131.331485 
L 656.592532 131.331485 
L 656.790962 127.639821 
L 657.187823 127.639821 
L 657.386253 141.156074 
L 659.370556 141.156074 
L 659.568986 124.791682 
L 660.164276 124.791682 
L 660.362707 115.284655 
L 662.545439 115.284655 
L 662.74387 113.875471 
L 662.9423 114.322044 
L 664.926602 114.322044 
L 665.125032 128.582584 
L 666.315614 128.582584 
L 666.514044 114.322044 
L 672.466951 114.322044 
L 672.665381 111.424286 
L 675.641835 111.424286 
L 675.840265 112.793774 
L 677.626137 112.793774 
L 677.824568 107.305897 
L 708.382824 107.305897 
L 708.581254 99.475997 
L 721.67765 99.475997 
L 721.87608 96.856107 
L 738.14736 96.856107 
L 738.34579 96.469077 
L 742.909685 96.469077 
L 743.108116 88.887273 
L 871.690909 88.887273 
L 871.690909 88.887273 
" style="fill:none;stroke:#8dd3c7;stroke-linecap:square;stroke-width:1.5;"/>
   </g>
   <g id="line2d_19">
    <path clip-path="url(#p0c99e2e523)" d="M 161.509091 165.171738 
L 184.130138 165.171738 
L 184.328568 141.056836 
L 621.07352 141.056836 
L 621.27195 138.020145 
L 636.947939 138.020145 
L 637.146369 137.662887 
L 638.13852 137.662887 
L 638.33695 128.394031 
L 638.535381 127.818449 
L 656.592532 127.818449 
L 656.790962 127.639821 
L 659.370556 127.639821 
L 659.568986 124.791682 
L 660.164276 124.791682 
L 660.362707 115.284655 
L 662.545439 115.284655 
L 662.74387 113.875471 
L 672.466951 113.875471 
L 672.665381 111.424286 
L 677.626137 111.424286 
L 677.824568 107.305897 
L 708.382824 107.305897 
L 708.581254 99.475997 
L 721.67765 99.475997 
L 721.87608 96.856107 
L 738.14736 96.856107 
L 738.34579 96.469077 
L 742.909685 96.469077 
L 743.108116 88.887273 
L 871.690909 88.887273 
L 871.690909 88.887273 
" style="fill:none;stroke:#feffb3;stroke-linecap:square;stroke-width:1.5;"/>
   </g>
   <g id="line2d_20">
    <path clip-path="url(#p0c99e2e523)" d="M 161.509091 260.890035 
L 163.294963 260.890035 
L 163.493393 273.93451 
L 165.279265 273.93451 
L 165.477696 286.217114 
L 167.263568 286.217114 
L 167.461998 297.782344 
L 169.24787 297.782344 
L 169.4463 308.6721 
L 171.232173 308.6721 
L 171.430603 318.925833 
L 173.216475 318.925833 
L 173.414905 328.580689 
L 175.200777 328.580689 
L 175.399207 337.671648 
L 177.18508 337.671648 
L 177.38351 346.231643 
L 179.169382 346.231643 
L 179.367812 354.291686 
L 181.153684 354.291686 
L 181.352115 361.880977 
L 183.137987 361.880977 
L 183.336417 369.02701 
L 185.122289 369.02701 
L 185.320719 375.755675 
L 187.106591 375.755675 
L 187.305022 382.091348 
L 189.090894 382.091348 
L 189.289324 388.056981 
L 191.075196 388.056981 
L 191.273626 393.674188 
L 193.059499 393.674188 
L 193.257929 398.963319 
L 195.043801 398.963319 
L 195.242231 403.943534 
L 197.028103 403.943534 
L 197.226534 408.632876 
L 199.012406 408.632876 
L 199.210836 413.048335 
L 200.996708 413.048335 
L 201.195138 417.205905 
L 202.98101 417.205905 
L 203.179441 421.120651 
L 204.965313 421.120651 
L 205.163743 424.806752 
L 206.949615 424.806752 
L 207.148045 428.277565 
L 208.933918 428.277565 
L 209.132348 431.545663 
L 210.91822 431.545663 
L 211.11665 434.622885 
L 212.902522 434.622885 
L 213.100953 437.52038 
L 214.886825 437.52038 
L 215.085255 440.248645 
L 216.871127 440.248645 
L 217.069557 442.817564 
L 218.855429 442.817564 
L 219.05386 445.236443 
L 220.839732 445.236443 
L 221.038162 447.514047 
L 222.824034 447.514047 
L 223.022464 449.658625 
L 224.808337 449.658625 
L 225.006767 451.677948 
L 226.792639 451.677948 
L 226.991069 453.579331 
L 228.776941 453.579331 
L 228.975371 455.369663 
L 230.761244 455.369663 
L 230.959674 457.055429 
L 232.745546 457.055429 
L 232.943976 458.642736 
L 234.729848 458.642736 
L 234.928279 460.137337 
L 236.714151 460.137337 
L 236.912581 461.544643 
L 238.698453 461.544643 
L 238.896883 462.869756 
L 240.682755 462.869756 
L 240.881186 464.117474 
L 242.667058 464.117474 
L 242.865488 465.292318 
L 244.65136 465.292318 
L 244.84979 466.398545 
L 246.635663 466.398545 
L 246.834093 467.440162 
L 248.619965 467.440162 
L 248.818395 468.420943 
L 250.604267 468.420943 
L 250.802698 469.344441 
L 252.58857 469.344441 
L 252.787 470.214001 
L 254.572872 470.214001 
L 254.771302 471.032773 
L 256.557174 471.032773 
L 256.755605 471.803725 
L 258.541477 471.803725 
L 258.739907 472.529649 
L 260.525779 472.529649 
L 260.724209 473.213175 
L 262.510082 473.213175 
L 262.708512 473.856779 
L 264.494384 473.856779 
L 264.692814 474.462793 
L 266.478686 474.462793 
L 266.677117 475.033413 
L 268.462989 475.033413 
L 268.661419 475.570705 
L 270.447291 475.570705 
L 270.645721 476.076616 
L 272.431593 476.076616 
L 272.630024 476.552979 
L 274.415896 476.552979 
L 274.614326 477.001519 
L 276.400198 477.001519 
L 276.598628 477.423863 
L 278.3845 477.423863 
L 278.582931 477.821539 
L 280.368803 477.821539 
L 280.567233 478.195989 
L 282.353105 478.195989 
L 282.551535 478.548568 
L 284.337408 478.548568 
L 284.535838 478.880555 
L 286.32171 478.880555 
L 286.52014 479.193152 
L 288.306012 479.193152 
L 288.504443 479.487492 
L 290.290315 479.487492 
L 290.488745 479.764641 
L 292.274617 479.764641 
L 292.473047 480.025602 
L 294.258919 480.025602 
L 294.45735 480.271322 
L 296.243222 480.271322 
L 296.441652 480.50269 
L 298.227524 480.50269 
L 298.425954 480.720546 
L 300.211827 480.720546 
L 300.410257 480.925677 
L 302.196129 480.925677 
L 302.394559 481.118827 
L 304.180431 481.118827 
L 304.378862 481.300697 
L 306.164734 481.300697 
L 306.363164 481.471944 
L 308.149036 481.471944 
L 308.347466 481.633189 
L 310.133338 481.633189 
L 310.331769 481.785017 
L 312.117641 481.785017 
L 312.316071 481.927977 
L 314.101943 481.927977 
L 314.300373 482.062587 
L 316.086246 482.062587 
L 316.483106 482.189336 
L 318.070548 482.189336 
L 318.467408 482.308682 
L 320.05485 482.308682 
L 320.451711 482.421057 
L 324.023455 482.526868 
L 324.420315 482.6265 
L 327.99206 482.720313 
L 328.38892 482.808647 
L 331.960664 482.891821 
L 332.357525 482.970137 
L 335.929269 483.04388 
L 336.32613 483.113315 
L 339.897874 483.178695 
L 340.294734 483.240257 
L 343.866479 483.298223 
L 344.461769 483.352803 
L 349.819386 483.452586 
L 350.414677 483.498151 
L 355.772293 483.581452 
L 356.367584 483.61949 
L 363.709502 483.720786 
L 364.503223 483.750687 
L 373.631014 483.853815 
L 374.821596 483.875945 
L 387.521131 483.984079 
L 389.108573 483.998601 
L 409.348457 484.104468 
L 412.523341 484.119013 
L 536.343809 484.230002 
L 678.221428 484.232692 
L 871.690909 484.232727 
L 871.690909 484.232727 
" style="fill:none;stroke:#bfbbd9;stroke-linecap:square;stroke-width:1.5;"/>
   </g>
   <g id="patch_3">
    <path d="M 126 504 
L 126 69.12 
" style="fill:none;stroke:#ffffff;stroke-linecap:square;stroke-linejoin:miter;stroke-width:0.8;"/>
   </g>
   <g id="patch_4">
    <path d="M 907.2 504 
L 907.2 69.12 
" style="fill:none;stroke:#ffffff;stroke-linecap:square;stroke-linejoin:miter;stroke-width:0.8;"/>
   </g>
   <g id="patch_5">
    <path d="M 126 504 
L 907.2 504 
" style="fill:none;stroke:#ffffff;stroke-linecap:square;stroke-linejoin:miter;stroke-width:0.8;"/>
   </g>
   <g id="patch_6">
    <path d="M 126 69.12 
L 907.2 69.12 
" style="fill:none;stroke:#ffffff;stroke-linecap:square;stroke-linejoin:miter;stroke-width:0.8;"/>
   </g>
   <g id="text_19">
    <!-- instance 4 with error 0.009719356682989844 -->
    <g style="fill:#ffffff;" transform="translate(378.046875 63.12)scale(0.12 -0.12)">
     <defs>
      <path d="M 2834 3397 
L 2834 2853 
Q 2591 2978 2328 3040 
Q 2066 3103 1784 3103 
Q 1356 3103 1142 2972 
Q 928 2841 928 2578 
Q 928 2378 1081 2264 
Q 1234 2150 1697 2047 
L 1894 2003 
Q 2506 1872 2764 1633 
Q 3022 1394 3022 966 
Q 3022 478 2636 193 
Q 2250 -91 1575 -91 
Q 1294 -91 989 -36 
Q 684 19 347 128 
L 347 722 
Q 666 556 975 473 
Q 1284 391 1588 391 
Q 1994 391 2212 530 
Q 2431 669 2431 922 
Q 2431 1156 2273 1281 
Q 2116 1406 1581 1522 
L 1381 1569 
Q 847 1681 609 1914 
Q 372 2147 372 2553 
Q 372 3047 722 3315 
Q 1072 3584 1716 3584 
Q 2034 3584 2315 3537 
Q 2597 3491 2834 3397 
z
" id="DejaVuSans-73" transform="scale(0.015625)"/>
      <path d="M 3122 3366 
L 3122 2828 
Q 2878 2963 2633 3030 
Q 2388 3097 2138 3097 
Q 1578 3097 1268 2742 
Q 959 2388 959 1747 
Q 959 1106 1268 751 
Q 1578 397 2138 397 
Q 2388 397 2633 464 
Q 2878 531 3122 666 
L 3122 134 
Q 2881 22 2623 -34 
Q 2366 -91 2075 -91 
Q 1284 -91 818 406 
Q 353 903 353 1747 
Q 353 2603 823 3093 
Q 1294 3584 2113 3584 
Q 2378 3584 2631 3529 
Q 2884 3475 3122 3366 
z
" id="DejaVuSans-63" transform="scale(0.015625)"/>
      <path id="DejaVuSans-20" transform="scale(0.015625)"/>
      <path d="M 269 3500 
L 844 3500 
L 1563 769 
L 2278 3500 
L 2956 3500 
L 3675 769 
L 4391 3500 
L 4966 3500 
L 4050 0 
L 3372 0 
L 2619 2869 
L 1863 0 
L 1184 0 
L 269 3500 
z
" id="DejaVuSans-77" transform="scale(0.015625)"/>
      <path d="M 3513 2113 
L 3513 0 
L 2938 0 
L 2938 2094 
Q 2938 2591 2744 2837 
Q 2550 3084 2163 3084 
Q 1697 3084 1428 2787 
Q 1159 2491 1159 1978 
L 1159 0 
L 581 0 
L 581 4863 
L 1159 4863 
L 1159 2956 
Q 1366 3272 1645 3428 
Q 1925 3584 2291 3584 
Q 2894 3584 3203 3211 
Q 3513 2838 3513 2113 
z
" id="DejaVuSans-68" transform="scale(0.015625)"/>
      <path d="M 684 794 
L 1344 794 
L 1344 0 
L 684 0 
L 684 794 
z
" id="DejaVuSans-2e" transform="scale(0.015625)"/>
      <path d="M 703 97 
L 703 672 
Q 941 559 1184 500 
Q 1428 441 1663 441 
Q 2288 441 2617 861 
Q 2947 1281 2994 2138 
Q 2813 1869 2534 1725 
Q 2256 1581 1919 1581 
Q 1219 1581 811 2004 
Q 403 2428 403 3163 
Q 403 3881 828 4315 
Q 1253 4750 1959 4750 
Q 2769 4750 3195 4129 
Q 3622 3509 3622 2328 
Q 3622 1225 3098 567 
Q 2575 -91 1691 -91 
Q 1453 -91 1209 -44 
Q 966 3 703 97 
z
M 1959 2075 
Q 2384 2075 2632 2365 
Q 2881 2656 2881 3163 
Q 2881 3666 2632 3958 
Q 2384 4250 1959 4250 
Q 1534 4250 1286 3958 
Q 1038 3666 1038 3163 
Q 1038 2656 1286 2365 
Q 1534 2075 1959 2075 
z
" id="DejaVuSans-39" transform="scale(0.015625)"/>
      <path d="M 525 4666 
L 3525 4666 
L 3525 4397 
L 1831 0 
L 1172 0 
L 2766 4134 
L 525 4134 
L 525 4666 
z
" id="DejaVuSans-37" transform="scale(0.015625)"/>
      <path d="M 2113 2584 
Q 1688 2584 1439 2293 
Q 1191 2003 1191 1497 
Q 1191 994 1439 701 
Q 1688 409 2113 409 
Q 2538 409 2786 701 
Q 3034 994 3034 1497 
Q 3034 2003 2786 2293 
Q 2538 2584 2113 2584 
z
M 3366 4563 
L 3366 3988 
Q 3128 4100 2886 4159 
Q 2644 4219 2406 4219 
Q 1781 4219 1451 3797 
Q 1122 3375 1075 2522 
Q 1259 2794 1537 2939 
Q 1816 3084 2150 3084 
Q 2853 3084 3261 2657 
Q 3669 2231 3669 1497 
Q 3669 778 3244 343 
Q 2819 -91 2113 -91 
Q 1303 -91 875 529 
Q 447 1150 447 2328 
Q 447 3434 972 4092 
Q 1497 4750 2381 4750 
Q 2619 4750 2861 4703 
Q 3103 4656 3366 4563 
z
" id="DejaVuSans-36" transform="scale(0.015625)"/>
      <path d="M 2034 2216 
Q 1584 2216 1326 1975 
Q 1069 1734 1069 1313 
Q 1069 891 1326 650 
Q 1584 409 2034 409 
Q 2484 409 2743 651 
Q 3003 894 3003 1313 
Q 3003 1734 2745 1975 
Q 2488 2216 2034 2216 
z
M 1403 2484 
Q 997 2584 770 2862 
Q 544 3141 544 3541 
Q 544 4100 942 4425 
Q 1341 4750 2034 4750 
Q 2731 4750 3128 4425 
Q 3525 4100 3525 3541 
Q 3525 3141 3298 2862 
Q 3072 2584 2669 2484 
Q 3125 2378 3379 2068 
Q 3634 1759 3634 1313 
Q 3634 634 3220 271 
Q 2806 -91 2034 -91 
Q 1263 -91 848 271 
Q 434 634 434 1313 
Q 434 1759 690 2068 
Q 947 2378 1403 2484 
z
M 1172 3481 
Q 1172 3119 1398 2916 
Q 1625 2713 2034 2713 
Q 2441 2713 2670 2916 
Q 2900 3119 2900 3481 
Q 2900 3844 2670 4047 
Q 2441 4250 2034 4250 
Q 1625 4250 1398 4047 
Q 1172 3844 1172 3481 
z
" id="DejaVuSans-38" transform="scale(0.015625)"/>
     </defs>
     <use xlink:href="#DejaVuSans-69"/>
     <use x="27.783203" xlink:href="#DejaVuSans-6e"/>
     <use x="91.162109" xlink:href="#DejaVuSans-73"/>
     <use x="143.261719" xlink:href="#DejaVuSans-74"/>
     <use x="182.470703" xlink:href="#DejaVuSans-61"/>
     <use x="243.75" xlink:href="#DejaVuSans-6e"/>
     <use x="307.128906" xlink:href="#DejaVuSans-63"/>
     <use x="362.109375" xlink:href="#DejaVuSans-65"/>
     <use x="423.632812" xlink:href="#DejaVuSans-20"/>
     <use x="455.419922" xlink:href="#DejaVuSans-34"/>
     <use x="519.042969" xlink:href="#DejaVuSans-20"/>
     <use x="550.830078" xlink:href="#DejaVuSans-77"/>
     <use x="632.617188" xlink:href="#DejaVuSans-69"/>
     <use x="660.400391" xlink:href="#DejaVuSans-74"/>
     <use x="699.609375" xlink:href="#DejaVuSans-68"/>
     <use x="762.988281" xlink:href="#DejaVuSans-20"/>
     <use x="794.775391" xlink:href="#DejaVuSans-65"/>
     <use x="856.298828" xlink:href="#DejaVuSans-72"/>
     <use x="895.662109" xlink:href="#DejaVuSans-72"/>
     <use x="934.525391" xlink:href="#DejaVuSans-6f"/>
     <use x="995.707031" xlink:href="#DejaVuSans-72"/>
     <use x="1036.820312" xlink:href="#DejaVuSans-20"/>
     <use x="1068.607422" xlink:href="#DejaVuSans-30"/>
     <use x="1132.230469" xlink:href="#DejaVuSans-2e"/>
     <use x="1164.017578" xlink:href="#DejaVuSans-30"/>
     <use x="1227.640625" xlink:href="#DejaVuSans-30"/>
     <use x="1291.263672" xlink:href="#DejaVuSans-39"/>
     <use x="1354.886719" xlink:href="#DejaVuSans-37"/>
     <use x="1418.509766" xlink:href="#DejaVuSans-31"/>
     <use x="1482.132812" xlink:href="#DejaVuSans-39"/>
     <use x="1545.755859" xlink:href="#DejaVuSans-33"/>
     <use x="1609.378906" xlink:href="#DejaVuSans-35"/>
     <use x="1673.001953" xlink:href="#DejaVuSans-36"/>
     <use x="1736.625" xlink:href="#DejaVuSans-36"/>
     <use x="1800.248047" xlink:href="#DejaVuSans-38"/>
     <use x="1863.871094" xlink:href="#DejaVuSans-32"/>
     <use x="1927.494141" xlink:href="#DejaVuSans-39"/>
     <use x="1991.117188" xlink:href="#DejaVuSans-38"/>
     <use x="2054.740234" xlink:href="#DejaVuSans-39"/>
     <use x="2118.363281" xlink:href="#DejaVuSans-38"/>
     <use x="2181.986328" xlink:href="#DejaVuSans-34"/>
     <use x="2245.609375" xlink:href="#DejaVuSans-34"/>
    </g>
   </g>
   <g id="legend_1">
    <g id="patch_7">
     <path d="M 805.348438 499 
L 900.2 499 
Q 902.2 499 902.2 497 
L 902.2 453.965625 
Q 902.2 451.965625 900.2 451.965625 
L 805.348438 451.965625 
Q 803.348438 451.965625 803.348438 453.965625 
L 803.348438 497 
Q 803.348438 499 805.348438 499 
z
" style="opacity:0.8;stroke:#cccccc;stroke-linejoin:miter;"/>
    </g>
    <g id="line2d_21">
     <path d="M 807.348438 460.064062 
L 827.348438 460.064062 
" style="fill:none;stroke:#8dd3c7;stroke-linecap:square;stroke-width:1.5;"/>
    </g>
    <g id="line2d_22"/>
    <g id="text_20">
     <!-- cost -->
     <g style="fill:#ffffff;" transform="translate(835.348438 463.564062)scale(0.1 -0.1)">
      <use xlink:href="#DejaVuSans-63"/>
      <use x="54.980469" xlink:href="#DejaVuSans-6f"/>
      <use x="116.162109" xlink:href="#DejaVuSans-73"/>
      <use x="168.261719" xlink:href="#DejaVuSans-74"/>
     </g>
    </g>
    <g id="line2d_23">
     <path d="M 807.348438 474.742188 
L 827.348438 474.742188 
" style="fill:none;stroke:#feffb3;stroke-linecap:square;stroke-width:1.5;"/>
    </g>
    <g id="line2d_24"/>
    <g id="text_21">
     <!-- best cost -->
     <g style="fill:#ffffff;" transform="translate(835.348438 478.242188)scale(0.1 -0.1)">
      <defs>
       <path d="M 3116 1747 
Q 3116 2381 2855 2742 
Q 2594 3103 2138 3103 
Q 1681 3103 1420 2742 
Q 1159 2381 1159 1747 
Q 1159 1113 1420 752 
Q 1681 391 2138 391 
Q 2594 391 2855 752 
Q 3116 1113 3116 1747 
z
M 1159 2969 
Q 1341 3281 1617 3432 
Q 1894 3584 2278 3584 
Q 2916 3584 3314 3078 
Q 3713 2572 3713 1747 
Q 3713 922 3314 415 
Q 2916 -91 2278 -91 
Q 1894 -91 1617 61 
Q 1341 213 1159 525 
L 1159 0 
L 581 0 
L 581 4863 
L 1159 4863 
L 1159 2969 
z
" id="DejaVuSans-62" transform="scale(0.015625)"/>
      </defs>
      <use xlink:href="#DejaVuSans-62"/>
      <use x="63.476562" xlink:href="#DejaVuSans-65"/>
      <use x="125" xlink:href="#DejaVuSans-73"/>
      <use x="177.099609" xlink:href="#DejaVuSans-74"/>
      <use x="216.308594" xlink:href="#DejaVuSans-20"/>
      <use x="248.095703" xlink:href="#DejaVuSans-63"/>
      <use x="303.076172" xlink:href="#DejaVuSans-6f"/>
      <use x="364.257812" xlink:href="#DejaVuSans-73"/>
      <use x="416.357422" xlink:href="#DejaVuSans-74"/>
     </g>
    </g>
    <g id="line2d_25">
     <path d="M 807.348438 489.420313 
L 827.348438 489.420313 
" style="fill:none;stroke:#bfbbd9;stroke-linecap:square;stroke-width:1.5;"/>
    </g>
    <g id="line2d_26"/>
    <g id="text_22">
     <!-- temperature -->
     <g style="fill:#ffffff;" transform="translate(835.348438 492.920313)scale(0.1 -0.1)">
      <defs>
       <path d="M 3328 2828 
Q 3544 3216 3844 3400 
Q 4144 3584 4550 3584 
Q 5097 3584 5394 3201 
Q 5691 2819 5691 2113 
L 5691 0 
L 5113 0 
L 5113 2094 
Q 5113 2597 4934 2840 
Q 4756 3084 4391 3084 
Q 3944 3084 3684 2787 
Q 3425 2491 3425 1978 
L 3425 0 
L 2847 0 
L 2847 2094 
Q 2847 2600 2669 2842 
Q 2491 3084 2119 3084 
Q 1678 3084 1418 2786 
Q 1159 2488 1159 1978 
L 1159 0 
L 581 0 
L 581 3500 
L 1159 3500 
L 1159 2956 
Q 1356 3278 1631 3431 
Q 1906 3584 2284 3584 
Q 2666 3584 2933 3390 
Q 3200 3197 3328 2828 
z
" id="DejaVuSans-6d" transform="scale(0.015625)"/>
       <path d="M 1159 525 
L 1159 -1331 
L 581 -1331 
L 581 3500 
L 1159 3500 
L 1159 2969 
Q 1341 3281 1617 3432 
Q 1894 3584 2278 3584 
Q 2916 3584 3314 3078 
Q 3713 2572 3713 1747 
Q 3713 922 3314 415 
Q 2916 -91 2278 -91 
Q 1894 -91 1617 61 
Q 1341 213 1159 525 
z
M 3116 1747 
Q 3116 2381 2855 2742 
Q 2594 3103 2138 3103 
Q 1681 3103 1420 2742 
Q 1159 2381 1159 1747 
Q 1159 1113 1420 752 
Q 1681 391 2138 391 
Q 2594 391 2855 752 
Q 3116 1113 3116 1747 
z
" id="DejaVuSans-70" transform="scale(0.015625)"/>
       <path d="M 544 1381 
L 544 3500 
L 1119 3500 
L 1119 1403 
Q 1119 906 1312 657 
Q 1506 409 1894 409 
Q 2359 409 2629 706 
Q 2900 1003 2900 1516 
L 2900 3500 
L 3475 3500 
L 3475 0 
L 2900 0 
L 2900 538 
Q 2691 219 2414 64 
Q 2138 -91 1772 -91 
Q 1169 -91 856 284 
Q 544 659 544 1381 
z
M 1991 3584 
L 1991 3584 
z
" id="DejaVuSans-75" transform="scale(0.015625)"/>
      </defs>
      <use xlink:href="#DejaVuSans-74"/>
      <use x="39.208984" xlink:href="#DejaVuSans-65"/>
      <use x="100.732422" xlink:href="#DejaVuSans-6d"/>
      <use x="198.144531" xlink:href="#DejaVuSans-70"/>
      <use x="261.621094" xlink:href="#DejaVuSans-65"/>
      <use x="323.144531" xlink:href="#DejaVuSans-72"/>
      <use x="364.257812" xlink:href="#DejaVuSans-61"/>
      <use x="425.537109" xlink:href="#DejaVuSans-74"/>
      <use x="464.746094" xlink:href="#DejaVuSans-75"/>
      <use x="528.125" xlink:href="#DejaVuSans-72"/>
      <use x="566.988281" xlink:href="#DejaVuSans-65"/>
     </g>
    </g>
   </g>
  </g>
 </g>
 <defs>
  <clipPath id="p0c99e2e523">
   <rect height="434.88" width="781.2" x="126" y="69.12"/>
  </clipPath>
 </defs>
</svg>
