<?xml version="1.0" encoding="utf-8" standalone="no"?>
<!DOCTYPE svg PUBLIC "-//W3C//DTD SVG 1.1//EN"
  "http://www.w3.org/Graphics/SVG/1.1/DTD/svg11.dtd">
<svg height="576pt" version="1.1" viewBox="0 0 1008 576" width="1008pt" xmlns="http://www.w3.org/2000/svg" xmlns:xlink="http://www.w3.org/1999/xlink">
 <metadata>
  <rdf:RDF xmlns:cc="http://creativecommons.org/ns#" xmlns:dc="http://purl.org/dc/elements/1.1/" xmlns:rdf="http://www.w3.org/1999/02/22-rdf-syntax-ns#">
   <cc:Work>
    <dc:type rdf:resource="http://purl.org/dc/dcmitype/StillImage"/>
    <dc:date>2022-01-08T01:27:25.805904</dc:date>
    <dc:format>image/svg+xml</dc:format>
    <dc:creator>
     <cc:Agent>
      <dc:title>Matplotlib v3.4.3, https://matplotlib.org/</dc:title>
     </cc:Agent>
    </dc:creator>
   </cc:Work>
  </rdf:RDF>
 </metadata>
 <defs>
  <style type="text/css">*{stroke-linecap:butt;stroke-linejoin:round;}</style>
 </defs>
 <g id="figure_1">
  <g id="patch_1">
   <path d="M 0 576 
L 1008 576 
L 1008 0 
L 0 0 
z
"/>
  </g>
  <g id="axes_1">
   <g id="patch_2">
    <path d="M 126 504 
L 907.2 504 
L 907.2 69.12 
L 126 69.12 
z
"/>
   </g>
   <g id="matplotlib.axis_1">
    <g id="xtick_1">
     <g id="line2d_1">
      <defs>
       <path d="M 0 0 
L 0 3.5 
" id="m7bb31961e1" style="stroke:#ffffff;stroke-width:0.8;"/>
      </defs>
      <g>
       <use style="fill:#ffffff;stroke:#ffffff;stroke-width:0.8;" x="161.509091" xlink:href="#m7bb31961e1" y="504"/>
      </g>
     </g>
     <g id="text_1">
      <!-- 0 -->
      <g style="fill:#ffffff;" transform="translate(158.327841 518.598438)scale(0.1 -0.1)">
       <defs>
        <path d="M 2034 4250 
Q 1547 4250 1301 3770 
Q 1056 3291 1056 2328 
Q 1056 1369 1301 889 
Q 1547 409 2034 409 
Q 2525 409 2770 889 
Q 3016 1369 3016 2328 
Q 3016 3291 2770 3770 
Q 2525 4250 2034 4250 
z
M 2034 4750 
Q 2819 4750 3233 4129 
Q 3647 3509 3647 2328 
Q 3647 1150 3233 529 
Q 2819 -91 2034 -91 
Q 1250 -91 836 529 
Q 422 1150 422 2328 
Q 422 3509 836 4129 
Q 1250 4750 2034 4750 
z
" id="DejaVuSans-30" transform="scale(0.015625)"/>
       </defs>
       <use xlink:href="#DejaVuSans-30"/>
      </g>
     </g>
    </g>
    <g id="xtick_2">
     <g id="line2d_2">
      <g>
       <use style="fill:#ffffff;stroke:#ffffff;stroke-width:0.8;" x="255.597832" xlink:href="#m7bb31961e1" y="504"/>
      </g>
     </g>
     <g id="text_2">
      <!-- 250 -->
      <g style="fill:#ffffff;" transform="translate(246.054082 518.598438)scale(0.1 -0.1)">
       <defs>
        <path d="M 1228 531 
L 3431 531 
L 3431 0 
L 469 0 
L 469 531 
Q 828 903 1448 1529 
Q 2069 2156 2228 2338 
Q 2531 2678 2651 2914 
Q 2772 3150 2772 3378 
Q 2772 3750 2511 3984 
Q 2250 4219 1831 4219 
Q 1534 4219 1204 4116 
Q 875 4013 500 3803 
L 500 4441 
Q 881 4594 1212 4672 
Q 1544 4750 1819 4750 
Q 2544 4750 2975 4387 
Q 3406 4025 3406 3419 
Q 3406 3131 3298 2873 
Q 3191 2616 2906 2266 
Q 2828 2175 2409 1742 
Q 1991 1309 1228 531 
z
" id="DejaVuSans-32" transform="scale(0.015625)"/>
        <path d="M 691 4666 
L 3169 4666 
L 3169 4134 
L 1269 4134 
L 1269 2991 
Q 1406 3038 1543 3061 
Q 1681 3084 1819 3084 
Q 2600 3084 3056 2656 
Q 3513 2228 3513 1497 
Q 3513 744 3044 326 
Q 2575 -91 1722 -91 
Q 1428 -91 1123 -41 
Q 819 9 494 109 
L 494 744 
Q 775 591 1075 516 
Q 1375 441 1709 441 
Q 2250 441 2565 725 
Q 2881 1009 2881 1497 
Q 2881 1984 2565 2268 
Q 2250 2553 1709 2553 
Q 1456 2553 1204 2497 
Q 953 2441 691 2322 
L 691 4666 
z
" id="DejaVuSans-35" transform="scale(0.015625)"/>
       </defs>
       <use xlink:href="#DejaVuSans-32"/>
       <use x="63.623047" xlink:href="#DejaVuSans-35"/>
       <use x="127.246094" xlink:href="#DejaVuSans-30"/>
      </g>
     </g>
    </g>
    <g id="xtick_3">
     <g id="line2d_3">
      <g>
       <use style="fill:#ffffff;stroke:#ffffff;stroke-width:0.8;" x="349.686573" xlink:href="#m7bb31961e1" y="504"/>
      </g>
     </g>
     <g id="text_3">
      <!-- 500 -->
      <g style="fill:#ffffff;" transform="translate(340.142823 518.598438)scale(0.1 -0.1)">
       <use xlink:href="#DejaVuSans-35"/>
       <use x="63.623047" xlink:href="#DejaVuSans-30"/>
       <use x="127.246094" xlink:href="#DejaVuSans-30"/>
      </g>
     </g>
    </g>
    <g id="xtick_4">
     <g id="line2d_4">
      <g>
       <use style="fill:#ffffff;stroke:#ffffff;stroke-width:0.8;" x="443.775314" xlink:href="#m7bb31961e1" y="504"/>
      </g>
     </g>
     <g id="text_4">
      <!-- 750 -->
      <g style="fill:#ffffff;" transform="translate(434.231564 518.598438)scale(0.1 -0.1)">
       <defs>
        <path d="M 525 4666 
L 3525 4666 
L 3525 4397 
L 1831 0 
L 1172 0 
L 2766 4134 
L 525 4134 
L 525 4666 
z
" id="DejaVuSans-37" transform="scale(0.015625)"/>
       </defs>
       <use xlink:href="#DejaVuSans-37"/>
       <use x="63.623047" xlink:href="#DejaVuSans-35"/>
       <use x="127.246094" xlink:href="#DejaVuSans-30"/>
      </g>
     </g>
    </g>
    <g id="xtick_5">
     <g id="line2d_5">
      <g>
       <use style="fill:#ffffff;stroke:#ffffff;stroke-width:0.8;" x="537.864055" xlink:href="#m7bb31961e1" y="504"/>
      </g>
     </g>
     <g id="text_5">
      <!-- 1000 -->
      <g style="fill:#ffffff;" transform="translate(525.139055 518.598438)scale(0.1 -0.1)">
       <defs>
        <path d="M 794 531 
L 1825 531 
L 1825 4091 
L 703 3866 
L 703 4441 
L 1819 4666 
L 2450 4666 
L 2450 531 
L 3481 531 
L 3481 0 
L 794 0 
L 794 531 
z
" id="DejaVuSans-31" transform="scale(0.015625)"/>
       </defs>
       <use xlink:href="#DejaVuSans-31"/>
       <use x="63.623047" xlink:href="#DejaVuSans-30"/>
       <use x="127.246094" xlink:href="#DejaVuSans-30"/>
       <use x="190.869141" xlink:href="#DejaVuSans-30"/>
      </g>
     </g>
    </g>
    <g id="xtick_6">
     <g id="line2d_6">
      <g>
       <use style="fill:#ffffff;stroke:#ffffff;stroke-width:0.8;" x="631.952797" xlink:href="#m7bb31961e1" y="504"/>
      </g>
     </g>
     <g id="text_6">
      <!-- 1250 -->
      <g style="fill:#ffffff;" transform="translate(619.227797 518.598438)scale(0.1 -0.1)">
       <use xlink:href="#DejaVuSans-31"/>
       <use x="63.623047" xlink:href="#DejaVuSans-32"/>
       <use x="127.246094" xlink:href="#DejaVuSans-35"/>
       <use x="190.869141" xlink:href="#DejaVuSans-30"/>
      </g>
     </g>
    </g>
    <g id="xtick_7">
     <g id="line2d_7">
      <g>
       <use style="fill:#ffffff;stroke:#ffffff;stroke-width:0.8;" x="726.041538" xlink:href="#m7bb31961e1" y="504"/>
      </g>
     </g>
     <g id="text_7">
      <!-- 1500 -->
      <g style="fill:#ffffff;" transform="translate(713.316538 518.598438)scale(0.1 -0.1)">
       <use xlink:href="#DejaVuSans-31"/>
       <use x="63.623047" xlink:href="#DejaVuSans-35"/>
       <use x="127.246094" xlink:href="#DejaVuSans-30"/>
       <use x="190.869141" xlink:href="#DejaVuSans-30"/>
      </g>
     </g>
    </g>
    <g id="xtick_8">
     <g id="line2d_8">
      <g>
       <use style="fill:#ffffff;stroke:#ffffff;stroke-width:0.8;" x="820.130279" xlink:href="#m7bb31961e1" y="504"/>
      </g>
     </g>
     <g id="text_8">
      <!-- 1750 -->
      <g style="fill:#ffffff;" transform="translate(807.405279 518.598438)scale(0.1 -0.1)">
       <use xlink:href="#DejaVuSans-31"/>
       <use x="63.623047" xlink:href="#DejaVuSans-37"/>
       <use x="127.246094" xlink:href="#DejaVuSans-35"/>
       <use x="190.869141" xlink:href="#DejaVuSans-30"/>
      </g>
     </g>
    </g>
    <g id="text_9">
     <!-- iteration -->
     <g style="fill:#ffffff;" transform="translate(495.477344 532.276562)scale(0.1 -0.1)">
      <defs>
       <path d="M 603 3500 
L 1178 3500 
L 1178 0 
L 603 0 
L 603 3500 
z
M 603 4863 
L 1178 4863 
L 1178 4134 
L 603 4134 
L 603 4863 
z
" id="DejaVuSans-69" transform="scale(0.015625)"/>
       <path d="M 1172 4494 
L 1172 3500 
L 2356 3500 
L 2356 3053 
L 1172 3053 
L 1172 1153 
Q 1172 725 1289 603 
Q 1406 481 1766 481 
L 2356 481 
L 2356 0 
L 1766 0 
Q 1100 0 847 248 
Q 594 497 594 1153 
L 594 3053 
L 172 3053 
L 172 3500 
L 594 3500 
L 594 4494 
L 1172 4494 
z
" id="DejaVuSans-74" transform="scale(0.015625)"/>
       <path d="M 3597 1894 
L 3597 1613 
L 953 1613 
Q 991 1019 1311 708 
Q 1631 397 2203 397 
Q 2534 397 2845 478 
Q 3156 559 3463 722 
L 3463 178 
Q 3153 47 2828 -22 
Q 2503 -91 2169 -91 
Q 1331 -91 842 396 
Q 353 884 353 1716 
Q 353 2575 817 3079 
Q 1281 3584 2069 3584 
Q 2775 3584 3186 3129 
Q 3597 2675 3597 1894 
z
M 3022 2063 
Q 3016 2534 2758 2815 
Q 2500 3097 2075 3097 
Q 1594 3097 1305 2825 
Q 1016 2553 972 2059 
L 3022 2063 
z
" id="DejaVuSans-65" transform="scale(0.015625)"/>
       <path d="M 2631 2963 
Q 2534 3019 2420 3045 
Q 2306 3072 2169 3072 
Q 1681 3072 1420 2755 
Q 1159 2438 1159 1844 
L 1159 0 
L 581 0 
L 581 3500 
L 1159 3500 
L 1159 2956 
Q 1341 3275 1631 3429 
Q 1922 3584 2338 3584 
Q 2397 3584 2469 3576 
Q 2541 3569 2628 3553 
L 2631 2963 
z
" id="DejaVuSans-72" transform="scale(0.015625)"/>
       <path d="M 2194 1759 
Q 1497 1759 1228 1600 
Q 959 1441 959 1056 
Q 959 750 1161 570 
Q 1363 391 1709 391 
Q 2188 391 2477 730 
Q 2766 1069 2766 1631 
L 2766 1759 
L 2194 1759 
z
M 3341 1997 
L 3341 0 
L 2766 0 
L 2766 531 
Q 2569 213 2275 61 
Q 1981 -91 1556 -91 
Q 1019 -91 701 211 
Q 384 513 384 1019 
Q 384 1609 779 1909 
Q 1175 2209 1959 2209 
L 2766 2209 
L 2766 2266 
Q 2766 2663 2505 2880 
Q 2244 3097 1772 3097 
Q 1472 3097 1187 3025 
Q 903 2953 641 2809 
L 641 3341 
Q 956 3463 1253 3523 
Q 1550 3584 1831 3584 
Q 2591 3584 2966 3190 
Q 3341 2797 3341 1997 
z
" id="DejaVuSans-61" transform="scale(0.015625)"/>
       <path d="M 1959 3097 
Q 1497 3097 1228 2736 
Q 959 2375 959 1747 
Q 959 1119 1226 758 
Q 1494 397 1959 397 
Q 2419 397 2687 759 
Q 2956 1122 2956 1747 
Q 2956 2369 2687 2733 
Q 2419 3097 1959 3097 
z
M 1959 3584 
Q 2709 3584 3137 3096 
Q 3566 2609 3566 1747 
Q 3566 888 3137 398 
Q 2709 -91 1959 -91 
Q 1206 -91 779 398 
Q 353 888 353 1747 
Q 353 2609 779 3096 
Q 1206 3584 1959 3584 
z
" id="DejaVuSans-6f" transform="scale(0.015625)"/>
       <path d="M 3513 2113 
L 3513 0 
L 2938 0 
L 2938 2094 
Q 2938 2591 2744 2837 
Q 2550 3084 2163 3084 
Q 1697 3084 1428 2787 
Q 1159 2491 1159 1978 
L 1159 0 
L 581 0 
L 581 3500 
L 1159 3500 
L 1159 2956 
Q 1366 3272 1645 3428 
Q 1925 3584 2291 3584 
Q 2894 3584 3203 3211 
Q 3513 2838 3513 2113 
z
" id="DejaVuSans-6e" transform="scale(0.015625)"/>
      </defs>
      <use xlink:href="#DejaVuSans-69"/>
      <use x="27.783203" xlink:href="#DejaVuSans-74"/>
      <use x="66.992188" xlink:href="#DejaVuSans-65"/>
      <use x="128.515625" xlink:href="#DejaVuSans-72"/>
      <use x="169.628906" xlink:href="#DejaVuSans-61"/>
      <use x="230.908203" xlink:href="#DejaVuSans-74"/>
      <use x="270.117188" xlink:href="#DejaVuSans-69"/>
      <use x="297.900391" xlink:href="#DejaVuSans-6f"/>
      <use x="359.082031" xlink:href="#DejaVuSans-6e"/>
     </g>
    </g>
   </g>
   <g id="matplotlib.axis_2">
    <g id="ytick_1">
     <g id="line2d_9">
      <defs>
       <path d="M 0 0 
L -3.5 0 
" id="m8d6615fd1f" style="stroke:#ffffff;stroke-width:0.8;"/>
      </defs>
      <g>
       <use style="fill:#ffffff;stroke:#ffffff;stroke-width:0.8;" x="126" xlink:href="#m8d6615fd1f" y="484.232727"/>
      </g>
     </g>
     <g id="text_10">
      <!-- 0 -->
      <g style="fill:#ffffff;" transform="translate(112.6375 488.031946)scale(0.1 -0.1)">
       <use xlink:href="#DejaVuSans-30"/>
      </g>
     </g>
    </g>
    <g id="ytick_2">
     <g id="line2d_10">
      <g>
       <use style="fill:#ffffff;stroke:#ffffff;stroke-width:0.8;" x="126" xlink:href="#m8d6615fd1f" y="400.817714"/>
      </g>
     </g>
     <g id="text_11">
      <!-- 2000 -->
      <g style="fill:#ffffff;" transform="translate(93.55 404.616933)scale(0.1 -0.1)">
       <use xlink:href="#DejaVuSans-32"/>
       <use x="63.623047" xlink:href="#DejaVuSans-30"/>
       <use x="127.246094" xlink:href="#DejaVuSans-30"/>
       <use x="190.869141" xlink:href="#DejaVuSans-30"/>
      </g>
     </g>
    </g>
    <g id="ytick_3">
     <g id="line2d_11">
      <g>
       <use style="fill:#ffffff;stroke:#ffffff;stroke-width:0.8;" x="126" xlink:href="#m8d6615fd1f" y="317.402701"/>
      </g>
     </g>
     <g id="text_12">
      <!-- 4000 -->
      <g style="fill:#ffffff;" transform="translate(93.55 321.20192)scale(0.1 -0.1)">
       <defs>
        <path d="M 2419 4116 
L 825 1625 
L 2419 1625 
L 2419 4116 
z
M 2253 4666 
L 3047 4666 
L 3047 1625 
L 3713 1625 
L 3713 1100 
L 3047 1100 
L 3047 0 
L 2419 0 
L 2419 1100 
L 313 1100 
L 313 1709 
L 2253 4666 
z
" id="DejaVuSans-34" transform="scale(0.015625)"/>
       </defs>
       <use xlink:href="#DejaVuSans-34"/>
       <use x="63.623047" xlink:href="#DejaVuSans-30"/>
       <use x="127.246094" xlink:href="#DejaVuSans-30"/>
       <use x="190.869141" xlink:href="#DejaVuSans-30"/>
      </g>
     </g>
    </g>
    <g id="ytick_4">
     <g id="line2d_12">
      <g>
       <use style="fill:#ffffff;stroke:#ffffff;stroke-width:0.8;" x="126" xlink:href="#m8d6615fd1f" y="233.987688"/>
      </g>
     </g>
     <g id="text_13">
      <!-- 6000 -->
      <g style="fill:#ffffff;" transform="translate(93.55 237.786907)scale(0.1 -0.1)">
       <defs>
        <path d="M 2113 2584 
Q 1688 2584 1439 2293 
Q 1191 2003 1191 1497 
Q 1191 994 1439 701 
Q 1688 409 2113 409 
Q 2538 409 2786 701 
Q 3034 994 3034 1497 
Q 3034 2003 2786 2293 
Q 2538 2584 2113 2584 
z
M 3366 4563 
L 3366 3988 
Q 3128 4100 2886 4159 
Q 2644 4219 2406 4219 
Q 1781 4219 1451 3797 
Q 1122 3375 1075 2522 
Q 1259 2794 1537 2939 
Q 1816 3084 2150 3084 
Q 2853 3084 3261 2657 
Q 3669 2231 3669 1497 
Q 3669 778 3244 343 
Q 2819 -91 2113 -91 
Q 1303 -91 875 529 
Q 447 1150 447 2328 
Q 447 3434 972 4092 
Q 1497 4750 2381 4750 
Q 2619 4750 2861 4703 
Q 3103 4656 3366 4563 
z
" id="DejaVuSans-36" transform="scale(0.015625)"/>
       </defs>
       <use xlink:href="#DejaVuSans-36"/>
       <use x="63.623047" xlink:href="#DejaVuSans-30"/>
       <use x="127.246094" xlink:href="#DejaVuSans-30"/>
       <use x="190.869141" xlink:href="#DejaVuSans-30"/>
      </g>
     </g>
    </g>
    <g id="ytick_5">
     <g id="line2d_13">
      <g>
       <use style="fill:#ffffff;stroke:#ffffff;stroke-width:0.8;" x="126" xlink:href="#m8d6615fd1f" y="150.572675"/>
      </g>
     </g>
     <g id="text_14">
      <!-- 8000 -->
      <g style="fill:#ffffff;" transform="translate(93.55 154.371894)scale(0.1 -0.1)">
       <defs>
        <path d="M 2034 2216 
Q 1584 2216 1326 1975 
Q 1069 1734 1069 1313 
Q 1069 891 1326 650 
Q 1584 409 2034 409 
Q 2484 409 2743 651 
Q 3003 894 3003 1313 
Q 3003 1734 2745 1975 
Q 2488 2216 2034 2216 
z
M 1403 2484 
Q 997 2584 770 2862 
Q 544 3141 544 3541 
Q 544 4100 942 4425 
Q 1341 4750 2034 4750 
Q 2731 4750 3128 4425 
Q 3525 4100 3525 3541 
Q 3525 3141 3298 2862 
Q 3072 2584 2669 2484 
Q 3125 2378 3379 2068 
Q 3634 1759 3634 1313 
Q 3634 634 3220 271 
Q 2806 -91 2034 -91 
Q 1263 -91 848 271 
Q 434 634 434 1313 
Q 434 1759 690 2068 
Q 947 2378 1403 2484 
z
M 1172 3481 
Q 1172 3119 1398 2916 
Q 1625 2713 2034 2713 
Q 2441 2713 2670 2916 
Q 2900 3119 2900 3481 
Q 2900 3844 2670 4047 
Q 2441 4250 2034 4250 
Q 1625 4250 1398 4047 
Q 1172 3844 1172 3481 
z
" id="DejaVuSans-38" transform="scale(0.015625)"/>
       </defs>
       <use xlink:href="#DejaVuSans-38"/>
       <use x="63.623047" xlink:href="#DejaVuSans-30"/>
       <use x="127.246094" xlink:href="#DejaVuSans-30"/>
       <use x="190.869141" xlink:href="#DejaVuSans-30"/>
      </g>
     </g>
    </g>
   </g>
   <g id="line2d_14">
    <path clip-path="url(#p5795d0dced)" d="M 161.509091 386.678869 
L 161.885446 327.45421 
L 162.261801 397.814774 
L 162.638156 388.597415 
L 163.390866 475.015368 
L 164.143576 475.015368 
L 164.519931 471.678768 
L 164.896286 471.678768 
L 165.272641 414.330946 
L 165.648996 320.363934 
L 166.401705 320.363934 
L 166.77806 447.738659 
L 167.154415 422.505618 
L 167.53077 447.738659 
L 167.907125 417.000227 
L 168.28348 435.226407 
L 168.659835 412.162156 
L 169.03619 471.720475 
L 169.7889 394.186221 
L 170.165255 394.186221 
L 170.54161 367.243171 
L 170.917965 367.243171 
L 171.29432 309.770227 
L 171.670675 403.73724 
L 173.176095 403.73724 
L 173.55245 394.519881 
L 173.928805 406.23969 
L 174.30516 359.151915 
L 174.681515 380.672989 
L 175.05787 366.492436 
L 175.434225 335.754004 
L 175.81058 366.492436 
L 176.186935 285.621581 
L 176.563289 299.802133 
L 176.939644 299.802133 
L 177.692354 177.891092 
L 178.068709 204.834141 
L 178.445064 157.746366 
L 178.821419 192.530426 
L 179.197774 386.678869 
L 179.574129 323.992487 
L 179.950484 230.025475 
L 180.326839 230.025475 
L 180.703194 386.678869 
L 181.079549 397.314284 
L 181.455904 303.347271 
L 182.208614 214.426867 
L 182.584969 308.39388 
L 183.337679 308.39388 
L 183.714034 318.987586 
L 184.090389 360.820215 
L 184.466744 343.720138 
L 185.219454 289.208427 
L 185.595809 354.730919 
L 185.972164 453.327465 
L 186.724874 355.773607 
L 187.101229 436.602755 
L 187.477583 436.602755 
L 187.853938 433.474692 
L 188.230293 402.736259 
L 188.606648 436.602755 
L 188.983003 420.62878 
L 189.359358 420.62878 
L 189.735713 411.411421 
L 190.112068 317.444409 
L 190.488423 411.411421 
L 190.864778 317.444409 
L 191.241133 317.444409 
L 191.617488 420.62878 
L 191.993843 408.116528 
L 192.370198 327.245673 
L 192.746553 343.761845 
L 193.122908 343.761845 
L 193.499263 381.632261 
L 193.875618 381.632261 
L 194.251973 480.312222 
L 194.628328 480.312222 
L 195.004683 435.268115 
L 195.381038 435.268115 
L 195.757393 341.301102 
L 196.133748 390.265715 
L 196.510103 386.345209 
L 197.262813 267.437108 
L 197.639168 267.437108 
L 198.015522 236.698676 
L 198.391877 291.085264 
L 198.768232 385.052277 
L 199.520942 447.738659 
L 199.897297 444.402059 
L 200.273652 447.738659 
L 200.650007 435.226407 
L 201.026362 354.355552 
L 201.402717 325.035175 
L 201.779072 361.529243 
L 202.155427 302.304584 
L 202.531782 383.175439 
L 202.908137 285.621581 
L 203.284492 254.883149 
L 203.660847 314.107808 
L 204.413557 369.203424 
L 204.789912 480.312222 
L 205.166267 438.479593 
L 205.542622 438.35447 
L 205.918977 458.874563 
L 206.295332 458.874563 
L 206.671687 411.786788 
L 207.048042 449.323544 
L 207.424397 458.874563 
L 207.800752 458.999686 
L 208.177107 455.871623 
L 208.553461 414.038994 
L 208.929816 354.814334 
L 209.306171 376.710775 
L 209.682526 376.710775 
L 210.058881 439.063498 
L 210.435236 438.938375 
L 210.811591 480.771004 
L 211.187946 425.174898 
L 211.564301 425.174898 
L 211.940656 425.300021 
L 212.317011 480.896127 
L 212.693366 480.312222 
L 213.069721 453.369172 
L 213.446076 453.369172 
L 213.822431 390.68279 
L 214.198786 358.109227 
L 214.575141 298.550908 
L 214.951496 325.493957 
L 215.327851 388.18034 
L 215.704206 338.256454 
L 216.080561 257.385599 
L 216.456916 338.256454 
L 216.833271 338.256454 
L 217.209626 397.814774 
L 217.585981 397.814774 
L 217.962336 316.943919 
L 218.338691 397.814774 
L 218.715046 394.686711 
L 219.0914 300.719698 
L 219.467755 320.363934 
L 219.84411 320.363934 
L 220.59682 419.96146 
L 221.34953 419.96146 
L 221.725885 357.275077 
L 222.10224 390.807913 
L 222.478595 331.583253 
L 222.85495 390.807913 
L 223.231305 387.471312 
L 223.60766 387.471312 
L 223.984015 360.528263 
L 224.36037 351.310904 
L 224.736725 351.310904 
L 225.11308 360.528263 
L 225.489435 390.807913 
L 225.86579 356.023852 
L 226.242145 418.710234 
L 226.6185 449.448667 
L 226.994855 425.300021 
L 227.37121 425.300021 
L 227.747565 414.330946 
L 228.12392 420.62878 
L 228.87663 362.947298 
L 229.252985 393.01841 
L 229.629339 393.01841 
L 230.005694 419.96146 
L 230.382049 419.836337 
L 230.758404 397.689651 
L 231.134759 411.036053 
L 231.511114 397.314284 
L 231.887469 397.314284 
L 232.263824 397.189161 
L 232.640179 333.585214 
L 233.016534 333.585214 
L 233.392889 384.009589 
L 233.769244 412.829476 
L 234.145599 400.525762 
L 234.521954 367.118049 
L 234.898309 406.281398 
L 235.274664 405.7392 
L 235.651019 436.602755 
L 236.027374 377.378096 
L 236.403729 458.999686 
L 236.780084 484.232727 
L 237.156439 447.738659 
L 237.532794 447.738659 
L 237.909149 447.613537 
L 238.285504 447.613537 
L 238.661859 471.595353 
L 239.038214 429.762724 
L 239.414569 471.595353 
L 239.790924 276.529345 
L 240.167279 327.579333 
L 240.543633 230.025475 
L 240.919988 318.361974 
L 241.296343 318.361974 
L 241.672698 318.236851 
L 242.049053 318.236851 
L 242.425408 386.803992 
L 242.801763 386.803992 
L 243.178118 344.971363 
L 243.554473 339.090604 
L 243.930828 348.307963 
L 244.307183 261.38952 
L 244.683538 258.261457 
L 245.059893 258.261457 
L 245.436248 352.228469 
L 245.812603 289.542087 
L 246.188958 439.146913 
L 246.565313 369.245132 
L 246.941668 388.722537 
L 247.318023 385.594474 
L 247.694378 344.721118 
L 248.070733 458.999686 
L 248.823443 384.134712 
L 249.199798 321.448329 
L 249.576153 373.916372 
L 249.952508 373.79125 
L 250.328863 449.448667 
L 250.705218 418.710234 
L 251.081572 359.485575 
L 251.457927 449.448667 
L 251.834282 484.232727 
L 252.210637 430.680289 
L 252.586992 421.46293 
L 253.339702 421.46293 
L 253.716057 414.330946 
L 254.092412 480.896127 
L 254.468767 480.312222 
L 254.845122 417.625839 
L 255.221477 397.314284 
L 255.597832 397.314284 
L 256.350542 335.587174 
L 256.726897 370.371234 
L 257.103252 339.632802 
L 257.479607 366.575851 
L 257.855962 366.575851 
L 258.232317 397.314284 
L 258.608672 343.761845 
L 258.985027 343.761845 
L 259.361382 397.314284 
L 259.737737 355.481655 
L 260.114092 397.314284 
L 260.490447 303.347271 
L 260.866802 303.347271 
L 261.243157 414.330946 
L 261.619511 414.330946 
L 261.995866 372.498317 
L 262.372221 372.498317 
L 262.748576 375.709795 
L 263.124931 372.581732 
L 263.501286 355.481655 
L 263.877641 386.678869 
L 264.253996 350.184801 
L 265.006706 478.101724 
L 265.759416 373.541005 
L 266.135771 417.292179 
L 266.512126 385.844719 
L 266.888481 480.312222 
L 267.264836 433.224447 
L 267.641191 419.836337 
L 268.017546 466.924112 
L 268.393901 457.706753 
L 268.770256 410.744101 
L 269.146611 410.744101 
L 269.522966 397.314284 
L 269.899321 397.314284 
L 270.275676 388.096925 
L 270.652031 475.015368 
L 271.028386 474.890246 
L 271.404741 474.890246 
L 271.781096 433.057617 
L 272.15745 373.499297 
L 272.533805 279.532285 
L 272.91016 288.749644 
L 273.66287 484.107605 
L 274.039225 410.910931 
L 274.41558 410.910931 
L 274.791935 411.036053 
L 275.16829 425.300021 
L 275.544645 331.333008 
L 275.921 390.265715 
L 276.297355 292.711857 
L 276.67371 386.929115 
L 277.050065 353.771647 
L 277.42642 350.643584 
L 277.802775 350.643584 
L 278.17913 444.610596 
L 278.93184 321.781989 
L 279.308195 348.891869 
L 279.68455 348.891869 
L 280.060905 361.40412 
L 280.43726 338.590114 
L 280.813615 458.999686 
L 281.18997 425.300021 
L 281.566325 425.300021 
L 281.94268 394.561588 
L 282.319035 394.561588 
L 282.69539 385.344229 
L 283.071744 458.999686 
L 283.448099 414.330946 
L 283.824454 405.113587 
L 284.200809 345.888928 
L 284.577164 355.106287 
L 284.953519 295.547968 
L 286.082584 478.101724 
L 286.458939 415.415341 
L 286.835294 406.197983 
L 287.211649 412.328986 
L 287.588004 352.770667 
L 287.964359 266.352713 
L 288.340714 325.911032 
L 288.717069 294.630403 
L 289.093424 294.630403 
L 289.469779 267.687353 
L 290.222489 267.687353 
L 290.975199 419.96146 
L 292.104264 419.96146 
L 292.480619 357.275077 
L 292.856974 417.625839 
L 293.233329 453.327465 
L 293.609683 453.327465 
L 293.986038 440.815213 
L 294.362393 357.942397 
L 294.738748 357.942397 
L 295.115103 357.817275 
L 295.491458 357.817275 
L 295.867813 354.689212 
L 296.244168 417.375594 
L 296.620523 433.349569 
L 296.996878 433.349569 
L 297.373233 416.708274 
L 298.125943 416.708274 
L 298.502298 397.189161 
L 298.878653 463.253851 
L 299.631363 402.360892 
L 300.007718 402.360892 
L 300.384073 365.866824 
L 300.760428 365.866824 
L 301.136783 398.774046 
L 301.889493 367.076341 
L 302.265848 304.389959 
L 302.642203 367.076341 
L 303.018558 397.814774 
L 304.523977 397.814774 
L 304.900332 355.982145 
L 305.276687 352.854082 
L 305.653042 397.814774 
L 306.029397 397.814774 
L 306.405752 484.232727 
L 306.782107 419.96146 
L 307.158462 419.836337 
L 307.534817 455.871623 
L 307.911172 458.999686 
L 308.287527 458.999686 
L 308.663882 428.261253 
L 309.040237 428.261253 
L 309.416592 458.999686 
L 309.792947 396.313303 
L 310.169302 458.999686 
L 310.545657 430.680289 
L 310.922012 336.713277 
L 311.298367 365.032674 
L 311.674722 365.032674 
L 312.051077 372.9571 
L 312.427432 372.9571 
L 313.932852 203.791453 
L 314.309207 250.879228 
L 314.685561 377.461511 
L 315.061916 377.461511 
L 315.438271 419.96146 
L 316.567336 419.96146 
L 316.943691 475.015368 
L 317.320046 484.232727 
L 317.696401 435.268115 
L 318.072756 435.268115 
L 318.449111 426.050756 
L 319.201821 344.84624 
L 319.954531 436.602755 
L 320.330886 436.602755 
L 320.707241 411.036053 
L 321.083596 411.036053 
L 321.459951 369.203424 
L 321.836306 369.078302 
L 322.212661 309.853642 
L 322.589016 383.050316 
L 322.965371 296.131873 
L 323.341726 296.131873 
L 323.718081 417.542424 
L 324.094436 414.414361 
L 324.470791 355.189702 
L 324.847146 421.671467 
L 325.223501 421.546345 
L 325.599855 466.924112 
L 325.97621 466.924112 
L 326.352565 466.79899 
L 326.72892 480.312222 
L 327.105275 480.312222 
L 327.48163 449.448667 
L 327.857985 385.844719 
L 328.23434 449.448667 
L 328.610695 362.530223 
L 328.98705 446.112066 
L 329.73976 323.074922 
L 330.116115 385.844719 
L 330.49247 338.756944 
L 330.868825 385.844719 
L 331.24518 385.844719 
L 331.621535 384.134712 
L 331.99789 324.910052 
L 332.374245 312.439508 
L 332.7506 371.664167 
L 333.126955 411.036053 
L 333.50331 351.811394 
L 333.879665 411.036053 
L 334.25602 411.036053 
L 334.632375 420.62878 
L 335.385085 242.204067 
L 335.76144 242.204067 
L 336.514149 420.62878 
L 336.890504 361.40412 
L 337.266859 334.461071 
L 337.643214 274.902752 
L 338.019569 397.314284 
L 338.395924 337.755964 
L 338.772279 412.162156 
L 339.148634 349.475774 
L 339.524989 412.162156 
L 339.901344 412.162156 
L 340.277699 381.423724 
L 340.654054 403.820655 
L 341.030409 463.378974 
L 341.783119 463.378974 
L 342.159474 484.232727 
L 342.912184 361.07046 
L 343.288539 327.12055 
L 343.664894 327.12055 
L 344.041249 280.032775 
L 344.417604 339.591095 
L 344.793959 308.852662 
L 345.170314 414.330946 
L 345.546669 351.644564 
L 345.923024 367.993907 
L 346.299379 372.581732 
L 346.675733 313.357073 
L 347.052088 376.043455 
L 347.428443 282.076443 
L 348.181153 282.076443 
L 348.557508 388.514 
L 348.933863 388.514 
L 349.310218 360.7368 
L 349.686573 419.96146 
L 350.062928 360.40314 
L 350.439283 279.532285 
L 350.815638 279.532285 
L 351.191993 273.901772 
L 351.568348 417.542424 
L 351.944703 390.599375 
L 352.321058 447.738659 
L 352.697413 447.738659 
L 353.073768 444.402059 
L 353.450123 444.402059 
L 353.826478 446.112066 
L 354.202833 412.954599 
L 354.579188 353.729939 
L 354.955543 353.729939 
L 355.331898 412.954599 
L 355.708253 412.954599 
L 356.084608 480.312222 
L 356.460963 399.441366 
L 356.837318 354.397259 
L 357.213672 339.090604 
L 357.590027 335.962542 
L 357.966382 308.352172 
L 358.342737 308.352172 
L 358.719092 339.090604 
L 359.095447 403.361872 
L 359.471802 316.443428 
L 359.848157 397.314284 
L 360.224512 366.575851 
L 360.600867 366.575851 
L 360.977222 414.330946 
L 361.353577 367.243171 
L 361.729932 435.268115 
L 362.106287 404.529682 
L 362.482642 399.941857 
L 362.858997 427.343688 
L 363.235352 383.592514 
L 363.988062 383.592514 
L 364.740772 208.754647 
L 365.117127 149.196327 
L 365.493482 167.964705 
L 365.869837 152.282683 
L 366.246192 365.741701 
L 366.622547 425.300021 
L 366.998902 422.171958 
L 367.751612 362.947298 
L 368.127966 366.075361 
L 368.504321 419.96146 
L 369.257031 325.994447 
L 369.633386 348.433086 
L 370.009741 378.128831 
L 370.386096 318.570511 
L 370.762451 237.699656 
L 371.138806 378.128831 
L 371.515161 419.96146 
L 371.891516 410.744101 
L 372.644226 321.823697 
L 373.020581 411.036053 
L 373.773291 411.036053 
L 374.149646 363.948278 
L 374.526001 386.678869 
L 374.902356 417.542424 
L 375.278711 417.542424 
L 375.655066 358.317765 
L 376.031421 417.542424 
L 376.407776 397.814774 
L 376.784131 330.498858 
L 377.160486 355.773607 
L 377.536841 419.96146 
L 377.913196 393.01841 
L 378.289551 383.801052 
L 378.665905 354.105307 
L 379.04226 441.941316 
L 379.79497 441.941316 
L 380.171325 385.385937 
L 380.54768 298.967983 
L 381.30039 393.01841 
L 381.676745 466.924112 
L 382.429455 466.924112 
L 382.80581 407.365793 
L 383.182165 388.18034 
L 383.55852 466.924112 
L 383.934875 480.896127 
L 384.31123 400.025272 
L 384.687585 396.897209 
L 385.06394 433.474692 
L 385.440295 420.62878 
L 385.81665 420.62878 
L 386.193005 384.134712 
L 386.56936 478.101724 
L 386.945715 397.230869 
L 387.32207 397.230869 
L 387.698425 403.361872 
L 388.07478 399.441366 
L 388.451135 305.474354 
L 388.82749 305.474354 
L 389.203844 386.345209 
L 389.956554 386.345209 
L 390.332909 436.602755 
L 390.709264 389.51498 
L 391.085619 436.602755 
L 391.461974 425.300021 
L 391.838329 484.232727 
L 392.214684 421.546345 
L 392.591039 412.328986 
L 393.343749 253.757046 
L 393.720104 304.181422 
L 394.096459 291.710877 
L 394.472814 291.710877 
L 394.849169 354.397259 
L 395.225524 351.269196 
L 395.601879 397.814774 
L 395.978234 367.076341 
L 396.730944 367.076341 
L 397.107299 397.814774 
L 397.483654 370.871724 
L 397.860009 323.78395 
L 398.236364 370.871724 
L 398.612719 436.602755 
L 398.989074 427.385396 
L 399.741783 338.464992 
L 400.118138 347.682351 
L 400.494493 347.682351 
L 400.870848 320.739302 
L 401.623558 410.076781 
L 401.999913 406.156275 
L 402.376268 431.013949 
L 402.752623 431.013949 
L 403.128978 370.454649 
L 403.505333 363.948278 
L 403.881688 306.725579 
L 404.258043 342.635743 
L 404.634398 300.803113 
L 405.763463 397.814774 
L 406.139818 338.256454 
L 406.516173 463.378974 
L 406.892528 421.546345 
L 407.268883 463.378974 
L 407.645238 480.896127 
L 408.021593 444.402059 
L 408.397948 438.5213 
L 408.774303 480.312222 
L 409.150658 411.036053 
L 409.527013 417.542424 
L 409.903368 417.542424 
L 410.279723 323.575412 
L 410.656077 414.414361 
L 411.032432 333.543506 
L 411.408787 417.542424 
L 411.785142 354.856042 
L 412.161497 354.856042 
L 412.537852 409.034093 
L 412.914207 409.034093 
L 413.290562 471.720475 
L 414.043272 378.128831 
L 414.419627 419.96146 
L 415.548692 419.96146 
L 415.925047 378.128831 
L 416.301402 378.128831 
L 416.677757 438.479593 
L 417.054112 480.312222 
L 417.430467 430.680289 
L 417.806822 427.552226 
L 418.183177 430.680289 
L 418.559532 395.896228 
L 418.935887 385.844719 
L 419.312242 446.112066 
L 419.688597 446.112066 
L 420.064952 480.896127 
L 420.441307 480.771004 
L 421.194016 480.771004 
L 421.570371 420.503657 
L 421.946726 420.62878 
L 422.323081 399.775027 
L 422.699436 417.542424 
L 423.075791 420.62878 
L 423.452146 385.844719 
L 423.828501 417.292179 
L 424.581211 417.292179 
L 424.957566 389.723517 
L 425.333921 453.327465 
L 425.710276 453.327465 
L 426.462986 394.561588 
L 426.839341 453.327465 
L 427.215696 453.327465 
L 427.592051 449.990864 
L 427.968406 366.409021 
L 428.344761 397.314284 
L 428.721116 360.820215 
L 429.097471 350.226509 
L 429.473826 427.927593 
L 429.850181 419.836337 
L 430.226536 357.149955 
L 430.602891 404.23773 
L 430.979246 418.209744 
L 431.355601 418.209744 
L 431.731955 480.896127 
L 432.10831 444.402059 
L 432.484665 386.929115 
L 432.86102 369.411962 
L 433.237375 390.265715 
L 433.61373 377.753463 
L 433.990085 377.753463 
L 434.36644 374.6254 
L 434.742795 332.792771 
L 435.11915 429.887846 
L 435.87186 429.887846 
L 436.248215 442.400098 
L 437.000925 376.877605 
L 437.37728 436.936415 
L 437.753635 436.936415 
L 438.12999 435.226407 
L 438.8827 435.226407 
L 439.259055 471.720475 
L 439.63541 408.116528 
L 440.011765 398.899169 
L 440.38812 411.411421 
L 440.764475 398.899169 
L 441.14083 371.95612 
L 441.517185 435.560067 
L 441.89354 427.218566 
L 442.269894 457.706753 
L 442.646249 457.706753 
L 443.022604 401.818694 
L 443.398959 426.050756 
L 444.151669 426.050756 
L 444.528024 397.314284 
L 444.904379 386.678869 
L 445.280734 419.96146 
L 445.657089 397.314284 
L 446.033444 337.755964 
L 446.409799 337.755964 
L 446.786154 327.12055 
L 447.162509 264.434168 
L 447.538864 354.856042 
L 447.915219 354.856042 
L 448.291574 415.415341 
L 448.667929 361.988026 
L 449.044284 275.069582 
L 449.420639 357.275077 
L 449.796994 348.349671 
L 450.173349 348.349671 
L 450.549704 386.762284 
L 450.926059 386.762284 
L 451.302414 386.637162 
L 451.678769 386.637162 
L 452.055124 449.323544 
L 452.431479 389.765225 
L 453.560543 389.765225 
L 453.936898 425.174898 
L 455.442318 425.174898 
L 455.818673 383.342269 
L 456.195028 383.342269 
L 456.571383 375.584673 
L 456.947738 348.433086 
L 457.324093 275.236412 
L 457.700448 411.036053 
L 458.076803 410.910931 
L 458.453158 369.078302 
L 458.829513 378.671028 
L 459.205868 436.143972 
L 459.582223 426.926613 
L 459.958578 346.055758 
L 460.334933 346.180881 
L 460.711288 433.182739 
L 461.087643 346.264296 
L 461.463998 346.264296 
L 461.840353 328.538605 
L 462.216708 370.371234 
L 462.593063 397.314284 
L 463.345773 274.485677 
L 463.722127 386.261794 
L 464.098482 436.602755 
L 464.474837 436.602755 
L 464.851192 430.680289 
L 465.227547 371.12197 
L 465.603902 403.820655 
L 465.980257 322.949799 
L 466.356612 403.820655 
L 467.485677 403.820655 
L 467.862032 344.595995 
L 468.238387 478.101724 
L 468.614742 418.877065 
L 468.991097 478.101724 
L 469.367452 484.232727 
L 469.743807 457.289678 
L 470.120162 363.322666 
L 470.496517 321.490037 
L 470.872872 384.134712 
L 471.249227 353.771647 
L 471.625582 291.085264 
L 472.001937 290.960142 
L 472.378292 210.089287 
L 472.754647 210.089287 
L 473.131002 210.214409 
L 473.507357 215.970045 
L 473.883712 384.134712 
L 474.636421 384.134712 
L 475.012776 411.036053 
L 475.389131 348.349671 
L 475.765486 339.132312 
L 476.141841 348.349671 
L 476.518196 348.349671 
L 476.894551 367.993907 
L 477.270906 326.161277 
L 477.647261 358.859963 
L 478.399971 383.467391 
L 478.776326 336.379617 
L 479.152681 325.410542 
L 479.529036 325.410542 
L 479.905391 391.975723 
L 480.281746 391.8506 
L 481.034456 391.8506 
L 481.410811 405.90603 
L 481.787166 346.681371 
L 482.163521 346.556248 
L 482.539876 329.497878 
L 482.916231 418.751942 
L 483.292586 477.976601 
L 483.668941 451.033552 
L 484.045296 477.976601 
L 485.17436 477.976601 
L 485.92707 383.467391 
L 486.303425 425.300021 
L 486.67978 398.356971 
L 487.056135 384.093004 
L 487.43249 439.981063 
L 487.808845 448.072319 
L 488.1852 393.01841 
L 488.561555 411.036053 
L 488.93791 363.948278 
L 489.314265 372.873685 
L 489.69062 372.873685 
L 490.066975 313.649026 
L 490.44333 435.268115 
L 490.819685 435.268115 
L 491.19604 371.664167 
L 491.572395 389.890347 
L 491.94875 355.106287 
L 492.325105 274.235432 
L 492.70146 337.839379 
L 493.077815 337.839379 
L 493.45417 466.924112 
L 493.830525 425.300021 
L 494.583235 425.300021 
L 494.95959 425.174898 
L 495.335945 344.304043 
L 496.088654 344.304043 
L 496.465009 425.174898 
L 496.841364 471.595353 
L 497.217719 440.69009 
L 497.594074 444.652304 
L 497.970429 444.777426 
L 498.346784 444.652304 
L 498.723139 444.777426 
L 499.099494 408.283358 
L 499.475849 420.79561 
L 499.852204 339.924755 
L 500.228559 420.79561 
L 500.604914 387.387897 
L 500.981269 387.262775 
L 501.357624 387.387897 
L 501.733979 390.599375 
L 502.110334 390.599375 
L 502.486689 436.435925 
L 502.863044 447.738659 
L 503.239399 394.186221 
L 503.615754 417.000227 
L 503.992109 353.396279 
L 504.368464 353.396279 
L 504.744819 411.036053 
L 505.121174 348.349671 
L 505.497529 404.23773 
L 505.873884 345.01307 
L 506.250238 397.814774 
L 506.626593 397.689651 
L 507.002948 366.951219 
L 507.379303 394.561588 
L 507.755658 394.561588 
L 508.508368 417.000227 
L 508.884723 390.057177 
L 509.261078 411.578251 
L 509.637433 411.578251 
L 510.013788 330.707396 
L 510.390143 397.814774 
L 510.766498 338.590114 
L 511.142853 335.462051 
L 511.895563 468.592412 
L 512.271918 397.814774 
L 512.648273 397.814774 
L 513.024628 367.076341 
L 513.400983 367.076341 
L 513.777338 397.814774 
L 514.153693 463.378974 
L 514.530048 463.378974 
L 514.906403 286.288901 
L 515.282758 222.684954 
L 515.659113 222.684954 
L 516.035468 213.467595 
L 516.411823 213.467595 
L 517.164532 192.947502 
L 517.540887 369.203424 
L 517.917242 388.84766 
L 518.293597 354.063599 
L 518.669952 381.715676 
L 519.046307 381.715676 
L 519.422662 403.73724 
L 519.799017 309.770227 
L 520.175372 368.953179 
L 520.551727 375.417843 
L 520.928082 372.28978 
L 521.304437 330.457151 
L 521.680792 357.4002 
L 522.057147 328.62202 
L 522.433502 439.063498 
L 523.186212 439.063498 
L 523.562567 344.84624 
L 524.315277 344.84624 
L 524.691632 351.894809 
L 525.067987 480.312222 
L 525.820697 386.678869 
L 526.197052 386.678869 
L 526.573407 323.992487 
L 526.949762 323.992487 
L 527.326116 230.025475 
L 527.702471 230.025475 
L 528.078826 240.660889 
L 528.455181 240.660889 
L 528.831536 373.916372 
L 529.207891 420.62878 
L 529.584246 417.500717 
L 529.960601 386.762284 
L 530.336956 344.929655 
L 530.713311 375.668088 
L 531.089666 348.725039 
L 531.842376 389.890347 
L 532.218731 389.890347 
L 532.595086 417.542424 
L 532.971441 417.542424 
L 533.347796 458.999686 
L 533.724151 484.232727 
L 534.100506 471.720475 
L 534.476861 471.720475 
L 534.853216 418.168037 
L 535.229571 440.982043 
L 535.605926 367.076341 
L 535.982281 367.076341 
L 536.358636 304.389959 
L 537.864055 304.389959 
L 538.24041 372.581732 
L 538.616765 372.581732 
L 538.99312 435.268115 
L 539.369475 435.268115 
L 540.122185 397.814774 
L 540.49854 397.814774 
L 541.25125 480.896127 
L 541.627605 386.929115 
L 542.00396 386.929115 
L 542.380315 320.363934 
L 543.133025 320.363934 
L 543.50938 311.146575 
L 543.885735 381.048356 
L 544.26209 300.177501 
L 545.0148 191.654569 
L 547.649285 191.654569 
L 548.02564 219.765428 
L 548.401995 219.765428 
L 548.778349 246.49994 
L 549.531059 246.49994 
L 549.907414 306.058259 
L 551.036479 306.058259 
L 551.412834 386.929115 
L 551.789189 386.929115 
L 552.165544 355.481655 
L 553.294609 355.481655 
L 553.670964 328.538605 
L 554.423674 328.538605 
L 554.800029 328.413483 
L 555.176384 328.413483 
L 555.552739 409.534583 
L 555.929094 436.602755 
L 556.305449 427.385396 
L 556.681804 427.260273 
L 557.810869 427.260273 
L 558.187224 474.890246 
L 558.563579 401.693572 
L 558.939934 457.581631 
L 559.316288 466.79899 
L 559.692643 458.874563 
L 560.068998 458.874563 
L 560.445353 458.999686 
L 561.198063 458.999686 
L 561.574418 424.215625 
L 561.950773 478.101724 
L 562.327128 451.158675 
L 562.703483 404.0709 
L 563.079838 389.18132 
L 563.832548 389.18132 
L 564.208903 378.003708 
L 564.585258 378.003708 
L 564.961613 425.091483 
L 565.337968 425.091483 
L 565.714323 435.268115 
L 566.090678 371.664167 
L 566.467033 371.664167 
L 566.843388 361.07046 
L 567.596098 466.924112 
L 568.725163 466.924112 
L 569.101518 484.232727 
L 569.477873 414.330946 
L 569.854227 320.363934 
L 570.230582 278.531305 
L 571.359647 278.531305 
L 571.736002 325.994447 
L 572.112357 325.994447 
L 572.488712 331.333008 
L 572.865067 331.333008 
L 573.241422 331.041056 
L 573.617777 233.487198 
L 573.994132 244.623102 
L 577.381327 244.623102 
L 577.757682 330.915933 
L 578.134037 330.915933 
L 578.510392 283.828158 
L 578.886747 283.828158 
L 579.263102 252.922896 
L 579.639457 273.067622 
L 581.521231 273.067622 
L 581.897586 273.192744 
L 582.273941 273.192744 
L 582.650296 333.793751 
L 584.155716 333.793751 
L 584.532071 357.608737 
L 584.908426 357.608737 
L 585.284781 298.050418 
L 586.790201 298.050418 
L 587.166556 301.178481 
L 589.048331 301.178481 
L 589.424686 330.665688 
L 590.177396 330.665688 
L 590.553751 267.895891 
L 593.188235 267.895891 
L 593.56459 187.025036 
L 593.940945 187.025036 
L 594.3173 242.204067 
L 595.446365 242.204067 
L 595.82272 246.249695 
L 596.199075 246.249695 
L 596.57543 322.949799 
L 596.951785 275.862025 
L 598.457205 275.862025 
L 598.83356 248.918975 
L 600.715335 248.918975 
L 601.09169 234.029396 
L 601.468045 234.029396 
L 601.844399 157.329291 
L 602.973464 157.329291 
L 603.726174 179.058902 
L 604.478884 179.058902 
L 604.855239 168.423488 
L 610.876919 168.423488 
L 611.253274 136.475538 
L 615.769533 136.475538 
L 616.145888 139.937261 
L 617.651308 139.937261 
L 618.027663 98.104632 
L 622.920277 98.104632 
L 623.296632 88.887273 
L 624.425697 88.887273 
L 624.802052 98.104632 
L 648.13606 98.104632 
L 648.512415 88.887273 
L 649.64148 88.887273 
L 650.017835 98.104632 
L 651.523255 98.104632 
L 651.89961 88.887273 
L 871.690909 88.887273 
L 871.690909 88.887273 
" style="fill:none;stroke:#8dd3c7;stroke-linecap:square;stroke-width:1.5;"/>
   </g>
   <g id="line2d_15">
    <path clip-path="url(#p5795d0dced)" d="M 161.509091 386.678869 
L 161.885446 327.45421 
L 165.272641 327.45421 
L 165.648996 320.363934 
L 170.917965 320.363934 
L 171.29432 309.770227 
L 175.81058 309.770227 
L 176.186935 285.621581 
L 176.939644 285.621581 
L 177.692354 177.891092 
L 178.068709 177.891092 
L 178.445064 157.746366 
L 364.740772 157.746366 
L 365.117127 149.196327 
L 610.876919 149.196327 
L 611.253274 136.475538 
L 617.651308 136.475538 
L 618.027663 98.104632 
L 622.920277 98.104632 
L 623.296632 88.887273 
L 871.690909 88.887273 
L 871.690909 88.887273 
" style="fill:none;stroke:#feffb3;stroke-linecap:square;stroke-width:1.5;"/>
   </g>
   <g id="line2d_16">
    <path clip-path="url(#p5795d0dced)" d="M 161.509091 415.945027 
L 164.143576 415.945027 
L 164.519931 421.220614 
L 167.154415 421.220614 
L 167.53077 426.088634 
L 170.165255 426.088634 
L 170.54161 430.580574 
L 173.176095 430.580574 
L 173.55245 434.725487 
L 176.186935 434.725487 
L 176.563289 438.550184 
L 179.197774 438.550184 
L 179.574129 442.079403 
L 182.208614 442.079403 
L 182.584969 445.335971 
L 185.219454 445.335971 
L 185.595809 448.340952 
L 188.230293 448.340952 
L 188.606648 451.113782 
L 191.241133 451.113782 
L 191.617488 453.672396 
L 194.251973 453.672396 
L 194.628328 456.033344 
L 197.262813 456.033344 
L 197.639168 458.211896 
L 200.273652 458.211896 
L 200.650007 460.222143 
L 203.284492 460.222143 
L 203.660847 462.077088 
L 206.295332 462.077088 
L 206.671687 463.788729 
L 209.306171 463.788729 
L 209.682526 465.368136 
L 212.317011 465.368136 
L 212.693366 466.825526 
L 215.327851 466.825526 
L 215.704206 468.170325 
L 218.338691 468.170325 
L 218.715046 469.41123 
L 221.34953 469.41123 
L 221.725885 470.55627 
L 224.36037 470.55627 
L 224.736725 471.612849 
L 227.37121 471.612849 
L 227.747565 472.587801 
L 230.382049 472.587801 
L 230.758404 473.487433 
L 233.392889 473.487433 
L 233.769244 474.317564 
L 236.403729 474.317564 
L 236.780084 475.083563 
L 239.414569 475.083563 
L 239.790924 475.790385 
L 242.425408 475.790385 
L 242.801763 476.442601 
L 245.436248 476.442601 
L 245.812603 477.044429 
L 248.447088 477.044429 
L 248.823443 477.599763 
L 251.457927 477.599763 
L 251.834282 478.112195 
L 254.468767 478.112195 
L 254.845122 478.585039 
L 257.479607 478.585039 
L 257.855962 479.021353 
L 260.490447 479.021353 
L 260.866802 479.423959 
L 263.501286 479.423959 
L 263.877641 479.795462 
L 266.512126 479.795462 
L 266.888481 480.138264 
L 269.522966 480.138264 
L 269.899321 480.454583 
L 272.533805 480.454583 
L 272.91016 480.746465 
L 275.544645 480.746465 
L 275.921 481.015797 
L 278.555485 481.015797 
L 278.93184 481.264322 
L 281.566325 481.264322 
L 281.94268 481.493647 
L 284.577164 481.493647 
L 284.953519 481.705255 
L 287.588004 481.705255 
L 287.964359 481.900516 
L 290.598844 481.900516 
L 290.975199 482.080692 
L 293.609683 482.080692 
L 293.986038 482.246948 
L 296.620523 482.246948 
L 296.996878 482.40036 
L 299.631363 482.40036 
L 300.007718 482.54192 
L 302.642203 482.54192 
L 303.018558 482.672544 
L 305.653042 482.672544 
L 306.029397 482.793076 
L 308.663882 482.793076 
L 309.416592 482.904297 
L 314.685561 483.006925 
L 315.438271 483.101625 
L 320.707241 483.189009 
L 321.459951 483.269641 
L 326.72892 483.344045 
L 327.48163 483.4127 
L 332.7506 483.476052 
L 333.50331 483.534509 
L 341.783119 483.638224 
L 342.912184 483.684152 
L 350.815638 483.765639 
L 352.321058 483.801724 
L 362.858997 483.894097 
L 364.740772 483.920258 
L 380.924035 484.023694 
L 383.55852 484.039843 
L 414.043272 484.146407 
L 421.194016 484.164907 
L 871.690909 484.232727 
L 871.690909 484.232727 
" style="fill:none;stroke:#bfbbd9;stroke-linecap:square;stroke-width:1.5;"/>
   </g>
   <g id="patch_3">
    <path d="M 126 504 
L 126 69.12 
" style="fill:none;stroke:#ffffff;stroke-linecap:square;stroke-linejoin:miter;stroke-width:0.8;"/>
   </g>
   <g id="patch_4">
    <path d="M 907.2 504 
L 907.2 69.12 
" style="fill:none;stroke:#ffffff;stroke-linecap:square;stroke-linejoin:miter;stroke-width:0.8;"/>
   </g>
   <g id="patch_5">
    <path d="M 126 504 
L 907.2 504 
" style="fill:none;stroke:#ffffff;stroke-linecap:square;stroke-linejoin:miter;stroke-width:0.8;"/>
   </g>
   <g id="patch_6">
    <path d="M 126 69.12 
L 907.2 69.12 
" style="fill:none;stroke:#ffffff;stroke-linecap:square;stroke-linejoin:miter;stroke-width:0.8;"/>
   </g>
   <g id="text_15">
    <!-- instance 1 with error 0.18516289865039115 -->
    <g style="fill:#ffffff;" transform="translate(381.864375 63.12)scale(0.12 -0.12)">
     <defs>
      <path d="M 2834 3397 
L 2834 2853 
Q 2591 2978 2328 3040 
Q 2066 3103 1784 3103 
Q 1356 3103 1142 2972 
Q 928 2841 928 2578 
Q 928 2378 1081 2264 
Q 1234 2150 1697 2047 
L 1894 2003 
Q 2506 1872 2764 1633 
Q 3022 1394 3022 966 
Q 3022 478 2636 193 
Q 2250 -91 1575 -91 
Q 1294 -91 989 -36 
Q 684 19 347 128 
L 347 722 
Q 666 556 975 473 
Q 1284 391 1588 391 
Q 1994 391 2212 530 
Q 2431 669 2431 922 
Q 2431 1156 2273 1281 
Q 2116 1406 1581 1522 
L 1381 1569 
Q 847 1681 609 1914 
Q 372 2147 372 2553 
Q 372 3047 722 3315 
Q 1072 3584 1716 3584 
Q 2034 3584 2315 3537 
Q 2597 3491 2834 3397 
z
" id="DejaVuSans-73" transform="scale(0.015625)"/>
      <path d="M 3122 3366 
L 3122 2828 
Q 2878 2963 2633 3030 
Q 2388 3097 2138 3097 
Q 1578 3097 1268 2742 
Q 959 2388 959 1747 
Q 959 1106 1268 751 
Q 1578 397 2138 397 
Q 2388 397 2633 464 
Q 2878 531 3122 666 
L 3122 134 
Q 2881 22 2623 -34 
Q 2366 -91 2075 -91 
Q 1284 -91 818 406 
Q 353 903 353 1747 
Q 353 2603 823 3093 
Q 1294 3584 2113 3584 
Q 2378 3584 2631 3529 
Q 2884 3475 3122 3366 
z
" id="DejaVuSans-63" transform="scale(0.015625)"/>
      <path id="DejaVuSans-20" transform="scale(0.015625)"/>
      <path d="M 269 3500 
L 844 3500 
L 1563 769 
L 2278 3500 
L 2956 3500 
L 3675 769 
L 4391 3500 
L 4966 3500 
L 4050 0 
L 3372 0 
L 2619 2869 
L 1863 0 
L 1184 0 
L 269 3500 
z
" id="DejaVuSans-77" transform="scale(0.015625)"/>
      <path d="M 3513 2113 
L 3513 0 
L 2938 0 
L 2938 2094 
Q 2938 2591 2744 2837 
Q 2550 3084 2163 3084 
Q 1697 3084 1428 2787 
Q 1159 2491 1159 1978 
L 1159 0 
L 581 0 
L 581 4863 
L 1159 4863 
L 1159 2956 
Q 1366 3272 1645 3428 
Q 1925 3584 2291 3584 
Q 2894 3584 3203 3211 
Q 3513 2838 3513 2113 
z
" id="DejaVuSans-68" transform="scale(0.015625)"/>
      <path d="M 684 794 
L 1344 794 
L 1344 0 
L 684 0 
L 684 794 
z
" id="DejaVuSans-2e" transform="scale(0.015625)"/>
      <path d="M 703 97 
L 703 672 
Q 941 559 1184 500 
Q 1428 441 1663 441 
Q 2288 441 2617 861 
Q 2947 1281 2994 2138 
Q 2813 1869 2534 1725 
Q 2256 1581 1919 1581 
Q 1219 1581 811 2004 
Q 403 2428 403 3163 
Q 403 3881 828 4315 
Q 1253 4750 1959 4750 
Q 2769 4750 3195 4129 
Q 3622 3509 3622 2328 
Q 3622 1225 3098 567 
Q 2575 -91 1691 -91 
Q 1453 -91 1209 -44 
Q 966 3 703 97 
z
M 1959 2075 
Q 2384 2075 2632 2365 
Q 2881 2656 2881 3163 
Q 2881 3666 2632 3958 
Q 2384 4250 1959 4250 
Q 1534 4250 1286 3958 
Q 1038 3666 1038 3163 
Q 1038 2656 1286 2365 
Q 1534 2075 1959 2075 
z
" id="DejaVuSans-39" transform="scale(0.015625)"/>
      <path d="M 2597 2516 
Q 3050 2419 3304 2112 
Q 3559 1806 3559 1356 
Q 3559 666 3084 287 
Q 2609 -91 1734 -91 
Q 1441 -91 1130 -33 
Q 819 25 488 141 
L 488 750 
Q 750 597 1062 519 
Q 1375 441 1716 441 
Q 2309 441 2620 675 
Q 2931 909 2931 1356 
Q 2931 1769 2642 2001 
Q 2353 2234 1838 2234 
L 1294 2234 
L 1294 2753 
L 1863 2753 
Q 2328 2753 2575 2939 
Q 2822 3125 2822 3475 
Q 2822 3834 2567 4026 
Q 2313 4219 1838 4219 
Q 1578 4219 1281 4162 
Q 984 4106 628 3988 
L 628 4550 
Q 988 4650 1302 4700 
Q 1616 4750 1894 4750 
Q 2613 4750 3031 4423 
Q 3450 4097 3450 3541 
Q 3450 3153 3228 2886 
Q 3006 2619 2597 2516 
z
" id="DejaVuSans-33" transform="scale(0.015625)"/>
     </defs>
     <use xlink:href="#DejaVuSans-69"/>
     <use x="27.783203" xlink:href="#DejaVuSans-6e"/>
     <use x="91.162109" xlink:href="#DejaVuSans-73"/>
     <use x="143.261719" xlink:href="#DejaVuSans-74"/>
     <use x="182.470703" xlink:href="#DejaVuSans-61"/>
     <use x="243.75" xlink:href="#DejaVuSans-6e"/>
     <use x="307.128906" xlink:href="#DejaVuSans-63"/>
     <use x="362.109375" xlink:href="#DejaVuSans-65"/>
     <use x="423.632812" xlink:href="#DejaVuSans-20"/>
     <use x="455.419922" xlink:href="#DejaVuSans-31"/>
     <use x="519.042969" xlink:href="#DejaVuSans-20"/>
     <use x="550.830078" xlink:href="#DejaVuSans-77"/>
     <use x="632.617188" xlink:href="#DejaVuSans-69"/>
     <use x="660.400391" xlink:href="#DejaVuSans-74"/>
     <use x="699.609375" xlink:href="#DejaVuSans-68"/>
     <use x="762.988281" xlink:href="#DejaVuSans-20"/>
     <use x="794.775391" xlink:href="#DejaVuSans-65"/>
     <use x="856.298828" xlink:href="#DejaVuSans-72"/>
     <use x="895.662109" xlink:href="#DejaVuSans-72"/>
     <use x="934.525391" xlink:href="#DejaVuSans-6f"/>
     <use x="995.707031" xlink:href="#DejaVuSans-72"/>
     <use x="1036.820312" xlink:href="#DejaVuSans-20"/>
     <use x="1068.607422" xlink:href="#DejaVuSans-30"/>
     <use x="1132.230469" xlink:href="#DejaVuSans-2e"/>
     <use x="1164.017578" xlink:href="#DejaVuSans-31"/>
     <use x="1227.640625" xlink:href="#DejaVuSans-38"/>
     <use x="1291.263672" xlink:href="#DejaVuSans-35"/>
     <use x="1354.886719" xlink:href="#DejaVuSans-31"/>
     <use x="1418.509766" xlink:href="#DejaVuSans-36"/>
     <use x="1482.132812" xlink:href="#DejaVuSans-32"/>
     <use x="1545.755859" xlink:href="#DejaVuSans-38"/>
     <use x="1609.378906" xlink:href="#DejaVuSans-39"/>
     <use x="1673.001953" xlink:href="#DejaVuSans-38"/>
     <use x="1736.625" xlink:href="#DejaVuSans-36"/>
     <use x="1800.248047" xlink:href="#DejaVuSans-35"/>
     <use x="1863.871094" xlink:href="#DejaVuSans-30"/>
     <use x="1927.494141" xlink:href="#DejaVuSans-33"/>
     <use x="1991.117188" xlink:href="#DejaVuSans-39"/>
     <use x="2054.740234" xlink:href="#DejaVuSans-31"/>
     <use x="2118.363281" xlink:href="#DejaVuSans-31"/>
     <use x="2181.986328" xlink:href="#DejaVuSans-35"/>
    </g>
   </g>
   <g id="legend_1">
    <g id="patch_7">
     <path d="M 805.348438 499 
L 900.2 499 
Q 902.2 499 902.2 497 
L 902.2 453.965625 
Q 902.2 451.965625 900.2 451.965625 
L 805.348438 451.965625 
Q 803.348438 451.965625 803.348438 453.965625 
L 803.348438 497 
Q 803.348438 499 805.348438 499 
z
" style="opacity:0.8;stroke:#cccccc;stroke-linejoin:miter;"/>
    </g>
    <g id="line2d_17">
     <path d="M 807.348438 460.064062 
L 827.348438 460.064062 
" style="fill:none;stroke:#8dd3c7;stroke-linecap:square;stroke-width:1.5;"/>
    </g>
    <g id="line2d_18"/>
    <g id="text_16">
     <!-- cost -->
     <g style="fill:#ffffff;" transform="translate(835.348438 463.564062)scale(0.1 -0.1)">
      <use xlink:href="#DejaVuSans-63"/>
      <use x="54.980469" xlink:href="#DejaVuSans-6f"/>
      <use x="116.162109" xlink:href="#DejaVuSans-73"/>
      <use x="168.261719" xlink:href="#DejaVuSans-74"/>
     </g>
    </g>
    <g id="line2d_19">
     <path d="M 807.348438 474.742188 
L 827.348438 474.742188 
" style="fill:none;stroke:#feffb3;stroke-linecap:square;stroke-width:1.5;"/>
    </g>
    <g id="line2d_20"/>
    <g id="text_17">
     <!-- best cost -->
     <g style="fill:#ffffff;" transform="translate(835.348438 478.242188)scale(0.1 -0.1)">
      <defs>
       <path d="M 3116 1747 
Q 3116 2381 2855 2742 
Q 2594 3103 2138 3103 
Q 1681 3103 1420 2742 
Q 1159 2381 1159 1747 
Q 1159 1113 1420 752 
Q 1681 391 2138 391 
Q 2594 391 2855 752 
Q 3116 1113 3116 1747 
z
M 1159 2969 
Q 1341 3281 1617 3432 
Q 1894 3584 2278 3584 
Q 2916 3584 3314 3078 
Q 3713 2572 3713 1747 
Q 3713 922 3314 415 
Q 2916 -91 2278 -91 
Q 1894 -91 1617 61 
Q 1341 213 1159 525 
L 1159 0 
L 581 0 
L 581 4863 
L 1159 4863 
L 1159 2969 
z
" id="DejaVuSans-62" transform="scale(0.015625)"/>
      </defs>
      <use xlink:href="#DejaVuSans-62"/>
      <use x="63.476562" xlink:href="#DejaVuSans-65"/>
      <use x="125" xlink:href="#DejaVuSans-73"/>
      <use x="177.099609" xlink:href="#DejaVuSans-74"/>
      <use x="216.308594" xlink:href="#DejaVuSans-20"/>
      <use x="248.095703" xlink:href="#DejaVuSans-63"/>
      <use x="303.076172" xlink:href="#DejaVuSans-6f"/>
      <use x="364.257812" xlink:href="#DejaVuSans-73"/>
      <use x="416.357422" xlink:href="#DejaVuSans-74"/>
     </g>
    </g>
    <g id="line2d_21">
     <path d="M 807.348438 489.420313 
L 827.348438 489.420313 
" style="fill:none;stroke:#bfbbd9;stroke-linecap:square;stroke-width:1.5;"/>
    </g>
    <g id="line2d_22"/>
    <g id="text_18">
     <!-- temperature -->
     <g style="fill:#ffffff;" transform="translate(835.348438 492.920313)scale(0.1 -0.1)">
      <defs>
       <path d="M 3328 2828 
Q 3544 3216 3844 3400 
Q 4144 3584 4550 3584 
Q 5097 3584 5394 3201 
Q 5691 2819 5691 2113 
L 5691 0 
L 5113 0 
L 5113 2094 
Q 5113 2597 4934 2840 
Q 4756 3084 4391 3084 
Q 3944 3084 3684 2787 
Q 3425 2491 3425 1978 
L 3425 0 
L 2847 0 
L 2847 2094 
Q 2847 2600 2669 2842 
Q 2491 3084 2119 3084 
Q 1678 3084 1418 2786 
Q 1159 2488 1159 1978 
L 1159 0 
L 581 0 
L 581 3500 
L 1159 3500 
L 1159 2956 
Q 1356 3278 1631 3431 
Q 1906 3584 2284 3584 
Q 2666 3584 2933 3390 
Q 3200 3197 3328 2828 
z
" id="DejaVuSans-6d" transform="scale(0.015625)"/>
       <path d="M 1159 525 
L 1159 -1331 
L 581 -1331 
L 581 3500 
L 1159 3500 
L 1159 2969 
Q 1341 3281 1617 3432 
Q 1894 3584 2278 3584 
Q 2916 3584 3314 3078 
Q 3713 2572 3713 1747 
Q 3713 922 3314 415 
Q 2916 -91 2278 -91 
Q 1894 -91 1617 61 
Q 1341 213 1159 525 
z
M 3116 1747 
Q 3116 2381 2855 2742 
Q 2594 3103 2138 3103 
Q 1681 3103 1420 2742 
Q 1159 2381 1159 1747 
Q 1159 1113 1420 752 
Q 1681 391 2138 391 
Q 2594 391 2855 752 
Q 3116 1113 3116 1747 
z
" id="DejaVuSans-70" transform="scale(0.015625)"/>
       <path d="M 544 1381 
L 544 3500 
L 1119 3500 
L 1119 1403 
Q 1119 906 1312 657 
Q 1506 409 1894 409 
Q 2359 409 2629 706 
Q 2900 1003 2900 1516 
L 2900 3500 
L 3475 3500 
L 3475 0 
L 2900 0 
L 2900 538 
Q 2691 219 2414 64 
Q 2138 -91 1772 -91 
Q 1169 -91 856 284 
Q 544 659 544 1381 
z
M 1991 3584 
L 1991 3584 
z
" id="DejaVuSans-75" transform="scale(0.015625)"/>
      </defs>
      <use xlink:href="#DejaVuSans-74"/>
      <use x="39.208984" xlink:href="#DejaVuSans-65"/>
      <use x="100.732422" xlink:href="#DejaVuSans-6d"/>
      <use x="198.144531" xlink:href="#DejaVuSans-70"/>
      <use x="261.621094" xlink:href="#DejaVuSans-65"/>
      <use x="323.144531" xlink:href="#DejaVuSans-72"/>
      <use x="364.257812" xlink:href="#DejaVuSans-61"/>
      <use x="425.537109" xlink:href="#DejaVuSans-74"/>
      <use x="464.746094" xlink:href="#DejaVuSans-75"/>
      <use x="528.125" xlink:href="#DejaVuSans-72"/>
      <use x="566.988281" xlink:href="#DejaVuSans-65"/>
     </g>
    </g>
   </g>
  </g>
 </g>
 <defs>
  <clipPath id="p5795d0dced">
   <rect height="434.88" width="781.2" x="126" y="69.12"/>
  </clipPath>
 </defs>
</svg>
