<?xml version="1.0" encoding="utf-8" standalone="no"?>
<!DOCTYPE svg PUBLIC "-//W3C//DTD SVG 1.1//EN"
  "http://www.w3.org/Graphics/SVG/1.1/DTD/svg11.dtd">
<svg height="576pt" version="1.1" viewBox="0 0 1008 576" width="1008pt" xmlns="http://www.w3.org/2000/svg" xmlns:xlink="http://www.w3.org/1999/xlink">
 <metadata>
  <rdf:RDF xmlns:cc="http://creativecommons.org/ns#" xmlns:dc="http://purl.org/dc/elements/1.1/" xmlns:rdf="http://www.w3.org/1999/02/22-rdf-syntax-ns#">
   <cc:Work>
    <dc:type rdf:resource="http://purl.org/dc/dcmitype/StillImage"/>
    <dc:date>2022-01-08T11:44:06.291783</dc:date>
    <dc:format>image/svg+xml</dc:format>
    <dc:creator>
     <cc:Agent>
      <dc:title>Matplotlib v3.4.3, https://matplotlib.org/</dc:title>
     </cc:Agent>
    </dc:creator>
   </cc:Work>
  </rdf:RDF>
 </metadata>
 <defs>
  <style type="text/css">*{stroke-linecap:butt;stroke-linejoin:round;}</style>
 </defs>
 <g id="figure_1">
  <g id="patch_1">
   <path d="M 0 576 
L 1008 576 
L 1008 0 
L 0 0 
z
"/>
  </g>
  <g id="axes_1">
   <g id="patch_2">
    <path d="M 126 504 
L 907.2 504 
L 907.2 69.12 
L 126 69.12 
z
"/>
   </g>
   <g id="matplotlib.axis_1">
    <g id="xtick_1">
     <g id="line2d_1">
      <defs>
       <path d="M 0 0 
L 0 3.5 
" id="m847e5db0b7" style="stroke:#ffffff;stroke-width:0.8;"/>
      </defs>
      <g>
       <use style="fill:#ffffff;stroke:#ffffff;stroke-width:0.8;" x="161.509091" xlink:href="#m847e5db0b7" y="504"/>
      </g>
     </g>
     <g id="text_1">
      <!-- 0 -->
      <g style="fill:#ffffff;" transform="translate(158.327841 518.598438)scale(0.1 -0.1)">
       <defs>
        <path d="M 2034 4250 
Q 1547 4250 1301 3770 
Q 1056 3291 1056 2328 
Q 1056 1369 1301 889 
Q 1547 409 2034 409 
Q 2525 409 2770 889 
Q 3016 1369 3016 2328 
Q 3016 3291 2770 3770 
Q 2525 4250 2034 4250 
z
M 2034 4750 
Q 2819 4750 3233 4129 
Q 3647 3509 3647 2328 
Q 3647 1150 3233 529 
Q 2819 -91 2034 -91 
Q 1250 -91 836 529 
Q 422 1150 422 2328 
Q 422 3509 836 4129 
Q 1250 4750 2034 4750 
z
" id="DejaVuSans-30" transform="scale(0.015625)"/>
       </defs>
       <use xlink:href="#DejaVuSans-30"/>
      </g>
     </g>
    </g>
    <g id="xtick_2">
     <g id="line2d_2">
      <g>
       <use style="fill:#ffffff;stroke:#ffffff;stroke-width:0.8;" x="269.455864" xlink:href="#m847e5db0b7" y="504"/>
      </g>
     </g>
     <g id="text_2">
      <!-- 1000 -->
      <g style="fill:#ffffff;" transform="translate(256.730864 518.598438)scale(0.1 -0.1)">
       <defs>
        <path d="M 794 531 
L 1825 531 
L 1825 4091 
L 703 3866 
L 703 4441 
L 1819 4666 
L 2450 4666 
L 2450 531 
L 3481 531 
L 3481 0 
L 794 0 
L 794 531 
z
" id="DejaVuSans-31" transform="scale(0.015625)"/>
       </defs>
       <use xlink:href="#DejaVuSans-31"/>
       <use x="63.623047" xlink:href="#DejaVuSans-30"/>
       <use x="127.246094" xlink:href="#DejaVuSans-30"/>
       <use x="190.869141" xlink:href="#DejaVuSans-30"/>
      </g>
     </g>
    </g>
    <g id="xtick_3">
     <g id="line2d_3">
      <g>
       <use style="fill:#ffffff;stroke:#ffffff;stroke-width:0.8;" x="377.402636" xlink:href="#m847e5db0b7" y="504"/>
      </g>
     </g>
     <g id="text_3">
      <!-- 2000 -->
      <g style="fill:#ffffff;" transform="translate(364.677636 518.598438)scale(0.1 -0.1)">
       <defs>
        <path d="M 1228 531 
L 3431 531 
L 3431 0 
L 469 0 
L 469 531 
Q 828 903 1448 1529 
Q 2069 2156 2228 2338 
Q 2531 2678 2651 2914 
Q 2772 3150 2772 3378 
Q 2772 3750 2511 3984 
Q 2250 4219 1831 4219 
Q 1534 4219 1204 4116 
Q 875 4013 500 3803 
L 500 4441 
Q 881 4594 1212 4672 
Q 1544 4750 1819 4750 
Q 2544 4750 2975 4387 
Q 3406 4025 3406 3419 
Q 3406 3131 3298 2873 
Q 3191 2616 2906 2266 
Q 2828 2175 2409 1742 
Q 1991 1309 1228 531 
z
" id="DejaVuSans-32" transform="scale(0.015625)"/>
       </defs>
       <use xlink:href="#DejaVuSans-32"/>
       <use x="63.623047" xlink:href="#DejaVuSans-30"/>
       <use x="127.246094" xlink:href="#DejaVuSans-30"/>
       <use x="190.869141" xlink:href="#DejaVuSans-30"/>
      </g>
     </g>
    </g>
    <g id="xtick_4">
     <g id="line2d_4">
      <g>
       <use style="fill:#ffffff;stroke:#ffffff;stroke-width:0.8;" x="485.349409" xlink:href="#m847e5db0b7" y="504"/>
      </g>
     </g>
     <g id="text_4">
      <!-- 3000 -->
      <g style="fill:#ffffff;" transform="translate(472.624409 518.598438)scale(0.1 -0.1)">
       <defs>
        <path d="M 2597 2516 
Q 3050 2419 3304 2112 
Q 3559 1806 3559 1356 
Q 3559 666 3084 287 
Q 2609 -91 1734 -91 
Q 1441 -91 1130 -33 
Q 819 25 488 141 
L 488 750 
Q 750 597 1062 519 
Q 1375 441 1716 441 
Q 2309 441 2620 675 
Q 2931 909 2931 1356 
Q 2931 1769 2642 2001 
Q 2353 2234 1838 2234 
L 1294 2234 
L 1294 2753 
L 1863 2753 
Q 2328 2753 2575 2939 
Q 2822 3125 2822 3475 
Q 2822 3834 2567 4026 
Q 2313 4219 1838 4219 
Q 1578 4219 1281 4162 
Q 984 4106 628 3988 
L 628 4550 
Q 988 4650 1302 4700 
Q 1616 4750 1894 4750 
Q 2613 4750 3031 4423 
Q 3450 4097 3450 3541 
Q 3450 3153 3228 2886 
Q 3006 2619 2597 2516 
z
" id="DejaVuSans-33" transform="scale(0.015625)"/>
       </defs>
       <use xlink:href="#DejaVuSans-33"/>
       <use x="63.623047" xlink:href="#DejaVuSans-30"/>
       <use x="127.246094" xlink:href="#DejaVuSans-30"/>
       <use x="190.869141" xlink:href="#DejaVuSans-30"/>
      </g>
     </g>
    </g>
    <g id="xtick_5">
     <g id="line2d_5">
      <g>
       <use style="fill:#ffffff;stroke:#ffffff;stroke-width:0.8;" x="593.296182" xlink:href="#m847e5db0b7" y="504"/>
      </g>
     </g>
     <g id="text_5">
      <!-- 4000 -->
      <g style="fill:#ffffff;" transform="translate(580.571182 518.598438)scale(0.1 -0.1)">
       <defs>
        <path d="M 2419 4116 
L 825 1625 
L 2419 1625 
L 2419 4116 
z
M 2253 4666 
L 3047 4666 
L 3047 1625 
L 3713 1625 
L 3713 1100 
L 3047 1100 
L 3047 0 
L 2419 0 
L 2419 1100 
L 313 1100 
L 313 1709 
L 2253 4666 
z
" id="DejaVuSans-34" transform="scale(0.015625)"/>
       </defs>
       <use xlink:href="#DejaVuSans-34"/>
       <use x="63.623047" xlink:href="#DejaVuSans-30"/>
       <use x="127.246094" xlink:href="#DejaVuSans-30"/>
       <use x="190.869141" xlink:href="#DejaVuSans-30"/>
      </g>
     </g>
    </g>
    <g id="xtick_6">
     <g id="line2d_6">
      <g>
       <use style="fill:#ffffff;stroke:#ffffff;stroke-width:0.8;" x="701.242955" xlink:href="#m847e5db0b7" y="504"/>
      </g>
     </g>
     <g id="text_6">
      <!-- 5000 -->
      <g style="fill:#ffffff;" transform="translate(688.517955 518.598438)scale(0.1 -0.1)">
       <defs>
        <path d="M 691 4666 
L 3169 4666 
L 3169 4134 
L 1269 4134 
L 1269 2991 
Q 1406 3038 1543 3061 
Q 1681 3084 1819 3084 
Q 2600 3084 3056 2656 
Q 3513 2228 3513 1497 
Q 3513 744 3044 326 
Q 2575 -91 1722 -91 
Q 1428 -91 1123 -41 
Q 819 9 494 109 
L 494 744 
Q 775 591 1075 516 
Q 1375 441 1709 441 
Q 2250 441 2565 725 
Q 2881 1009 2881 1497 
Q 2881 1984 2565 2268 
Q 2250 2553 1709 2553 
Q 1456 2553 1204 2497 
Q 953 2441 691 2322 
L 691 4666 
z
" id="DejaVuSans-35" transform="scale(0.015625)"/>
       </defs>
       <use xlink:href="#DejaVuSans-35"/>
       <use x="63.623047" xlink:href="#DejaVuSans-30"/>
       <use x="127.246094" xlink:href="#DejaVuSans-30"/>
       <use x="190.869141" xlink:href="#DejaVuSans-30"/>
      </g>
     </g>
    </g>
    <g id="xtick_7">
     <g id="line2d_7">
      <g>
       <use style="fill:#ffffff;stroke:#ffffff;stroke-width:0.8;" x="809.189728" xlink:href="#m847e5db0b7" y="504"/>
      </g>
     </g>
     <g id="text_7">
      <!-- 6000 -->
      <g style="fill:#ffffff;" transform="translate(796.464728 518.598438)scale(0.1 -0.1)">
       <defs>
        <path d="M 2113 2584 
Q 1688 2584 1439 2293 
Q 1191 2003 1191 1497 
Q 1191 994 1439 701 
Q 1688 409 2113 409 
Q 2538 409 2786 701 
Q 3034 994 3034 1497 
Q 3034 2003 2786 2293 
Q 2538 2584 2113 2584 
z
M 3366 4563 
L 3366 3988 
Q 3128 4100 2886 4159 
Q 2644 4219 2406 4219 
Q 1781 4219 1451 3797 
Q 1122 3375 1075 2522 
Q 1259 2794 1537 2939 
Q 1816 3084 2150 3084 
Q 2853 3084 3261 2657 
Q 3669 2231 3669 1497 
Q 3669 778 3244 343 
Q 2819 -91 2113 -91 
Q 1303 -91 875 529 
Q 447 1150 447 2328 
Q 447 3434 972 4092 
Q 1497 4750 2381 4750 
Q 2619 4750 2861 4703 
Q 3103 4656 3366 4563 
z
" id="DejaVuSans-36" transform="scale(0.015625)"/>
       </defs>
       <use xlink:href="#DejaVuSans-36"/>
       <use x="63.623047" xlink:href="#DejaVuSans-30"/>
       <use x="127.246094" xlink:href="#DejaVuSans-30"/>
       <use x="190.869141" xlink:href="#DejaVuSans-30"/>
      </g>
     </g>
    </g>
    <g id="text_8">
     <!-- iteration -->
     <g style="fill:#ffffff;" transform="translate(495.477344 532.276562)scale(0.1 -0.1)">
      <defs>
       <path d="M 603 3500 
L 1178 3500 
L 1178 0 
L 603 0 
L 603 3500 
z
M 603 4863 
L 1178 4863 
L 1178 4134 
L 603 4134 
L 603 4863 
z
" id="DejaVuSans-69" transform="scale(0.015625)"/>
       <path d="M 1172 4494 
L 1172 3500 
L 2356 3500 
L 2356 3053 
L 1172 3053 
L 1172 1153 
Q 1172 725 1289 603 
Q 1406 481 1766 481 
L 2356 481 
L 2356 0 
L 1766 0 
Q 1100 0 847 248 
Q 594 497 594 1153 
L 594 3053 
L 172 3053 
L 172 3500 
L 594 3500 
L 594 4494 
L 1172 4494 
z
" id="DejaVuSans-74" transform="scale(0.015625)"/>
       <path d="M 3597 1894 
L 3597 1613 
L 953 1613 
Q 991 1019 1311 708 
Q 1631 397 2203 397 
Q 2534 397 2845 478 
Q 3156 559 3463 722 
L 3463 178 
Q 3153 47 2828 -22 
Q 2503 -91 2169 -91 
Q 1331 -91 842 396 
Q 353 884 353 1716 
Q 353 2575 817 3079 
Q 1281 3584 2069 3584 
Q 2775 3584 3186 3129 
Q 3597 2675 3597 1894 
z
M 3022 2063 
Q 3016 2534 2758 2815 
Q 2500 3097 2075 3097 
Q 1594 3097 1305 2825 
Q 1016 2553 972 2059 
L 3022 2063 
z
" id="DejaVuSans-65" transform="scale(0.015625)"/>
       <path d="M 2631 2963 
Q 2534 3019 2420 3045 
Q 2306 3072 2169 3072 
Q 1681 3072 1420 2755 
Q 1159 2438 1159 1844 
L 1159 0 
L 581 0 
L 581 3500 
L 1159 3500 
L 1159 2956 
Q 1341 3275 1631 3429 
Q 1922 3584 2338 3584 
Q 2397 3584 2469 3576 
Q 2541 3569 2628 3553 
L 2631 2963 
z
" id="DejaVuSans-72" transform="scale(0.015625)"/>
       <path d="M 2194 1759 
Q 1497 1759 1228 1600 
Q 959 1441 959 1056 
Q 959 750 1161 570 
Q 1363 391 1709 391 
Q 2188 391 2477 730 
Q 2766 1069 2766 1631 
L 2766 1759 
L 2194 1759 
z
M 3341 1997 
L 3341 0 
L 2766 0 
L 2766 531 
Q 2569 213 2275 61 
Q 1981 -91 1556 -91 
Q 1019 -91 701 211 
Q 384 513 384 1019 
Q 384 1609 779 1909 
Q 1175 2209 1959 2209 
L 2766 2209 
L 2766 2266 
Q 2766 2663 2505 2880 
Q 2244 3097 1772 3097 
Q 1472 3097 1187 3025 
Q 903 2953 641 2809 
L 641 3341 
Q 956 3463 1253 3523 
Q 1550 3584 1831 3584 
Q 2591 3584 2966 3190 
Q 3341 2797 3341 1997 
z
" id="DejaVuSans-61" transform="scale(0.015625)"/>
       <path d="M 1959 3097 
Q 1497 3097 1228 2736 
Q 959 2375 959 1747 
Q 959 1119 1226 758 
Q 1494 397 1959 397 
Q 2419 397 2687 759 
Q 2956 1122 2956 1747 
Q 2956 2369 2687 2733 
Q 2419 3097 1959 3097 
z
M 1959 3584 
Q 2709 3584 3137 3096 
Q 3566 2609 3566 1747 
Q 3566 888 3137 398 
Q 2709 -91 1959 -91 
Q 1206 -91 779 398 
Q 353 888 353 1747 
Q 353 2609 779 3096 
Q 1206 3584 1959 3584 
z
" id="DejaVuSans-6f" transform="scale(0.015625)"/>
       <path d="M 3513 2113 
L 3513 0 
L 2938 0 
L 2938 2094 
Q 2938 2591 2744 2837 
Q 2550 3084 2163 3084 
Q 1697 3084 1428 2787 
Q 1159 2491 1159 1978 
L 1159 0 
L 581 0 
L 581 3500 
L 1159 3500 
L 1159 2956 
Q 1366 3272 1645 3428 
Q 1925 3584 2291 3584 
Q 2894 3584 3203 3211 
Q 3513 2838 3513 2113 
z
" id="DejaVuSans-6e" transform="scale(0.015625)"/>
      </defs>
      <use xlink:href="#DejaVuSans-69"/>
      <use x="27.783203" xlink:href="#DejaVuSans-74"/>
      <use x="66.992188" xlink:href="#DejaVuSans-65"/>
      <use x="128.515625" xlink:href="#DejaVuSans-72"/>
      <use x="169.628906" xlink:href="#DejaVuSans-61"/>
      <use x="230.908203" xlink:href="#DejaVuSans-74"/>
      <use x="270.117188" xlink:href="#DejaVuSans-69"/>
      <use x="297.900391" xlink:href="#DejaVuSans-6f"/>
      <use x="359.082031" xlink:href="#DejaVuSans-6e"/>
     </g>
    </g>
   </g>
   <g id="matplotlib.axis_2">
    <g id="ytick_1">
     <g id="line2d_8">
      <defs>
       <path d="M 0 0 
L -3.5 0 
" id="md933a9c439" style="stroke:#ffffff;stroke-width:0.8;"/>
      </defs>
      <g>
       <use style="fill:#ffffff;stroke:#ffffff;stroke-width:0.8;" x="126" xlink:href="#md933a9c439" y="484.232727"/>
      </g>
     </g>
     <g id="text_9">
      <!-- 0.0 -->
      <g style="fill:#ffffff;" transform="translate(103.096875 488.031946)scale(0.1 -0.1)">
       <defs>
        <path d="M 684 794 
L 1344 794 
L 1344 0 
L 684 0 
L 684 794 
z
" id="DejaVuSans-2e" transform="scale(0.015625)"/>
       </defs>
       <use xlink:href="#DejaVuSans-30"/>
       <use x="63.623047" xlink:href="#DejaVuSans-2e"/>
       <use x="95.410156" xlink:href="#DejaVuSans-30"/>
      </g>
     </g>
    </g>
    <g id="ytick_2">
     <g id="line2d_9">
      <g>
       <use style="fill:#ffffff;stroke:#ffffff;stroke-width:0.8;" x="126" xlink:href="#md933a9c439" y="412.767533"/>
      </g>
     </g>
     <g id="text_10">
      <!-- 0.5 -->
      <g style="fill:#ffffff;" transform="translate(103.096875 416.566752)scale(0.1 -0.1)">
       <use xlink:href="#DejaVuSans-30"/>
       <use x="63.623047" xlink:href="#DejaVuSans-2e"/>
       <use x="95.410156" xlink:href="#DejaVuSans-35"/>
      </g>
     </g>
    </g>
    <g id="ytick_3">
     <g id="line2d_10">
      <g>
       <use style="fill:#ffffff;stroke:#ffffff;stroke-width:0.8;" x="126" xlink:href="#md933a9c439" y="341.302339"/>
      </g>
     </g>
     <g id="text_11">
      <!-- 1.0 -->
      <g style="fill:#ffffff;" transform="translate(103.096875 345.101558)scale(0.1 -0.1)">
       <use xlink:href="#DejaVuSans-31"/>
       <use x="63.623047" xlink:href="#DejaVuSans-2e"/>
       <use x="95.410156" xlink:href="#DejaVuSans-30"/>
      </g>
     </g>
    </g>
    <g id="ytick_4">
     <g id="line2d_11">
      <g>
       <use style="fill:#ffffff;stroke:#ffffff;stroke-width:0.8;" x="126" xlink:href="#md933a9c439" y="269.837145"/>
      </g>
     </g>
     <g id="text_12">
      <!-- 1.5 -->
      <g style="fill:#ffffff;" transform="translate(103.096875 273.636363)scale(0.1 -0.1)">
       <use xlink:href="#DejaVuSans-31"/>
       <use x="63.623047" xlink:href="#DejaVuSans-2e"/>
       <use x="95.410156" xlink:href="#DejaVuSans-35"/>
      </g>
     </g>
    </g>
    <g id="ytick_5">
     <g id="line2d_12">
      <g>
       <use style="fill:#ffffff;stroke:#ffffff;stroke-width:0.8;" x="126" xlink:href="#md933a9c439" y="198.37195"/>
      </g>
     </g>
     <g id="text_13">
      <!-- 2.0 -->
      <g style="fill:#ffffff;" transform="translate(103.096875 202.171169)scale(0.1 -0.1)">
       <use xlink:href="#DejaVuSans-32"/>
       <use x="63.623047" xlink:href="#DejaVuSans-2e"/>
       <use x="95.410156" xlink:href="#DejaVuSans-30"/>
      </g>
     </g>
    </g>
    <g id="ytick_6">
     <g id="line2d_13">
      <g>
       <use style="fill:#ffffff;stroke:#ffffff;stroke-width:0.8;" x="126" xlink:href="#md933a9c439" y="126.906756"/>
      </g>
     </g>
     <g id="text_14">
      <!-- 2.5 -->
      <g style="fill:#ffffff;" transform="translate(103.096875 130.705975)scale(0.1 -0.1)">
       <use xlink:href="#DejaVuSans-32"/>
       <use x="63.623047" xlink:href="#DejaVuSans-2e"/>
       <use x="95.410156" xlink:href="#DejaVuSans-35"/>
      </g>
     </g>
    </g>
    <g id="text_15">
     <!-- 1e6 -->
     <g style="fill:#ffffff;" transform="translate(126 66.12)scale(0.1 -0.1)">
      <use xlink:href="#DejaVuSans-31"/>
      <use x="63.623047" xlink:href="#DejaVuSans-65"/>
      <use x="125.146484" xlink:href="#DejaVuSans-36"/>
     </g>
    </g>
   </g>
   <g id="line2d_14">
    <path clip-path="url(#p7357ec6e66)" d="M 161.509091 480.279273 
L 161.832931 480.906737 
L 161.940878 481.090117 
L 162.048825 480.869861 
L 162.156772 481.133425 
L 162.264718 480.792107 
L 162.372665 480.932893 
L 162.480612 481.533201 
L 162.696505 481.067391 
L 162.804452 480.996212 
L 162.912399 480.685195 
L 163.128293 480.856997 
L 163.452133 480.53226 
L 163.775973 481.192026 
L 163.991867 481.055814 
L 164.099813 480.74737 
L 164.315707 481.059387 
L 164.423654 480.959336 
L 165.071334 481.774896 
L 165.179281 481.572793 
L 165.287228 481.719868 
L 165.611068 481.27121 
L 165.826962 481.421429 
L 165.934909 481.110413 
L 166.150802 481.568219 
L 166.366696 481.953131 
L 166.582589 481.328382 
L 166.690536 481.613385 
L 167.23027 480.930178 
L 167.338217 480.865144 
L 167.446163 481.150148 
L 167.662057 480.975487 
L 167.877951 480.980203 
L 167.985897 480.833128 
L 168.309738 481.183736 
L 168.417684 480.96348 
L 168.525631 481.110556 
L 168.849471 481.05953 
L 169.173312 481.662696 
L 169.605099 482.564873 
L 170.036886 482.729957 
L 170.468673 482.12722 
L 170.57662 482.457961 
L 170.792513 482.137654 
L 171.008407 481.843503 
L 171.116354 481.786188 
L 171.2243 481.98772 
L 171.548141 481.690996 
L 171.764034 482.039175 
L 171.871981 482.027597 
L 172.087875 481.605667 
L 172.195821 481.74874 
L 172.411715 482.028598 
L 172.843502 481.004502 
L 173.059396 481.482032 
L 173.167342 481.287932 
L 173.383236 481.366973 
L 173.491183 481.355396 
L 173.599129 481.070392 
L 173.707076 481.41171 
L 174.030917 480.985635 
L 174.462704 481.410567 
L 174.678597 481.444584 
L 175.110384 482.100206 
L 175.218331 482.087199 
L 175.326278 482.18725 
L 175.434225 482.02674 
L 175.542171 482.29502 
L 175.973958 481.733589 
L 176.297799 482.085198 
L 176.405746 481.960706 
L 176.837533 480.932893 
L 176.945479 480.86786 
L 177.053426 480.604296 
L 177.377267 481.202174 
L 177.485213 481.272639 
L 177.59316 480.964195 
L 177.809054 481.086544 
L 178.024947 480.951046 
L 178.240841 481.093118 
L 178.456734 481.301225 
L 178.780575 480.528972 
L 178.888521 480.813975 
L 178.996468 480.59372 
L 179.104415 480.901163 
L 179.428255 480.828125 
L 179.644149 480.986492 
L 179.752096 480.862 
L 179.860042 481.604094 
L 179.967989 481.420715 
L 180.075936 481.563788 
L 180.183883 481.420715 
L 180.291829 481.705718 
L 180.507723 481.49704 
L 180.61567 481.351108 
L 181.047457 481.92726 
L 181.479244 481.091832 
L 181.911031 482.021165 
L 182.234871 482.508129 
L 182.450765 482.061186 
L 182.666658 482.193825 
L 182.990499 481.503186 
L 183.098445 481.445871 
L 183.206392 481.138427 
L 183.422286 481.37169 
L 183.530233 481.040949 
L 183.638179 481.37169 
L 183.746126 481.225758 
L 184.069966 481.530199 
L 184.177913 481.309944 
L 184.28586 481.455876 
L 184.6097 480.820693 
L 184.717647 480.807686 
L 184.825594 481.138427 
L 184.933541 480.991352 
L 185.041487 481.298795 
L 185.257381 481.004644 
L 185.473274 481.323236 
L 185.581221 481.015793 
L 185.689168 481.115844 
L 185.905062 480.912026 
L 186.444795 481.600521 
L 186.552742 481.50047 
L 186.660689 481.807913 
L 186.876583 481.276784 
L 186.984529 481.49704 
L 187.092476 481.351108 
L 187.30837 481.705003 
L 187.416316 481.762318 
L 187.740157 481.20489 
L 187.848103 481.369832 
L 188.063997 481.102266 
L 188.279891 481.655549 
L 188.387837 481.495039 
L 188.495784 481.641828 
L 188.603731 481.447729 
L 188.819624 481.427433 
L 188.927571 481.440439 
L 189.143465 481.116416 
L 189.359358 481.404278 
L 189.575252 480.871433 
L 189.683199 481.594661 
L 189.791145 481.331097 
L 189.899092 481.402277 
L 190.114986 481.720726 
L 190.330879 481.353966 
L 190.546773 481.639255 
L 190.870613 481.650833 
L 190.97856 481.797908 
L 191.086507 481.529628 
L 191.194453 481.713007 
L 191.3024 481.588515 
L 191.410347 481.753457 
L 191.518294 481.607525 
L 191.626241 481.871088 
L 191.842134 481.720869 
L 192.165974 481.125278 
L 192.273921 481.1137 
L 192.381868 480.966625 
L 192.489815 481.016794 
L 192.597761 480.863143 
L 192.705708 481.126707 
L 193.029549 480.293423 
L 193.461336 481.273497 
L 193.569282 480.932179 
L 193.677229 481.085829 
L 193.785176 480.862143 
L 193.893123 481.008075 
L 194.109016 480.597722 
L 194.32491 480.893159 
L 194.432857 480.84299 
L 194.64875 480.546124 
L 194.864644 482.084912 
L 194.97259 482.353193 
L 195.404378 481.654263 
L 195.620271 481.335814 
L 195.836165 481.757745 
L 196.052058 481.247769 
L 196.267952 481.297938 
L 196.591792 481.740879 
L 196.699739 481.399561 
L 196.807686 481.740879 
L 197.347419 481.262062 
L 197.455366 481.422573 
L 197.67126 481.197172 
L 197.779207 481.480603 
L 197.9951 480.99564 
L 198.103047 481.045808 
L 198.426887 480.33473 
L 198.966621 481.16344 
L 199.074568 481.092975 
L 199.182515 481.217468 
L 199.290461 481.524911 
L 199.722248 481.098121 
L 200.261982 481.41071 
L 200.369929 481.209178 
L 200.477876 481.41071 
L 200.585823 481.187024 
L 200.801716 481.257345 
L 200.909663 481.114272 
L 201.01761 481.179305 
L 201.125557 481.114272 
L 201.34145 480.692342 
L 201.449397 480.999785 
L 201.66529 480.804542 
L 201.989131 481.350679 
L 202.097077 481.087115 
L 202.205024 481.14443 
L 202.312971 480.87615 
L 202.636811 481.69071 
L 202.852705 481.646688 
L 203.068598 481.320235 
L 203.392439 481.75117 
L 203.500386 481.527484 
L 203.608332 481.597948 
L 203.716279 481.866229 
L 203.932173 481.745596 
L 204.148066 481.97114 
L 204.256013 481.913825 
L 204.471906 481.458591 
L 204.6878 481.972712 
L 204.795747 482.043891 
L 205.335481 481.428719 
L 205.443427 481.58923 
L 205.551374 481.448443 
L 205.767268 481.648832 
L 205.875215 481.583798 
L 206.091108 481.235191 
L 206.414948 481.751599 
L 206.630842 481.427718 
L 206.738789 481.498183 
L 207.062629 480.815976 
L 207.386469 481.771466 
L 207.494416 481.463022 
L 207.602363 481.609812 
L 207.71031 480.856283 
L 207.818256 480.926747 
L 208.250044 481.565217 
L 208.573884 481.476315 
L 208.789777 481.88338 
L 208.897724 481.6151 
L 209.005671 481.686279 
L 209.221564 482.101349 
L 209.329511 481.833069 
L 209.437458 482.101349 
L 209.653352 481.708577 
L 209.869245 481.323093 
L 210.301032 482.548436 
L 210.516926 482.03846 
L 210.624873 482.19211 
L 210.732819 482.120931 
L 210.840766 482.429375 
L 211.272553 481.636826 
L 211.488447 481.719582 
L 211.596393 481.880093 
L 212.136127 480.946472 
L 212.352021 480.604154 
L 212.459968 480.787533 
L 212.567914 480.519253 
L 212.675861 480.643745 
L 212.783808 480.449646 
L 212.999702 480.940897 
L 213.107648 480.947758 
L 213.539435 481.486177 
L 213.755329 480.91417 
L 213.863276 480.971485 
L 214.079169 481.551925 
L 214.187116 480.91417 
L 214.295063 481.108269 
L 214.40301 480.888013 
L 214.510956 481.151577 
L 214.618903 480.810259 
L 214.834797 481.272353 
L 215.05069 480.633168 
L 215.158637 480.856854 
L 215.374531 480.399191 
L 215.590424 480.753516 
L 215.698371 480.472372 
L 215.806318 480.740652 
L 216.022211 480.334301 
L 216.561945 479.497729 
L 216.669892 479.806173 
L 216.885785 482.666782 
L 216.993732 482.383351 
L 217.101679 482.566731 
L 217.317572 482.101635 
L 217.425519 480.364459 
L 217.533466 480.421774 
L 217.74936 480.853567 
L 217.857306 480.652035 
L 218.289093 481.175303 
L 218.39704 481.050811 
L 218.612934 481.340674 
L 218.828827 481.136855 
L 218.936774 481.201888 
L 219.044721 481.036947 
L 219.152668 481.087115 
L 219.260614 480.940326 
L 219.368561 481.100837 
L 219.476508 480.832556 
L 219.692401 481.105839 
L 219.800348 481.176304 
L 219.908295 481.076253 
L 220.232135 481.638827 
L 220.663922 480.971056 
L 220.771869 481.173159 
L 220.987763 481.044665 
L 221.311603 481.814202 
L 221.527497 481.372547 
L 221.74339 480.870004 
L 221.851337 481.151148 
L 222.06723 480.801112 
L 222.283124 481.262205 
L 222.391071 481.121419 
L 222.714911 481.279357 
L 222.822858 481.590373 
L 222.930805 481.443298 
L 223.038751 481.022797 
L 223.146698 481.28636 
L 223.254645 481.161868 
L 223.470538 481.756315 
L 223.686432 481.539204 
L 223.794379 481.610383 
L 223.902326 481.408852 
L 224.118219 481.589944 
L 224.442059 482.060614 
L 224.550006 482.401932 
L 224.7659 482.049037 
L 224.873847 482.250569 
L 225.41358 481.425432 
L 225.521527 481.645687 
L 226.061261 481.020939 
L 226.277155 481.299081 
L 226.493048 481.647974 
L 226.816888 481.38827 
L 227.140729 482.183677 
L 227.248676 482.254142 
L 227.356622 481.969139 
L 227.572516 482.381636 
L 228.004303 481.575508 
L 228.11225 481.554498 
L 228.43609 480.851995 
L 228.651984 481.136569 
L 228.75993 481.079254 
L 228.975824 481.536203 
L 229.191717 481.281644 
L 229.299664 481.135712 
L 229.407611 481.359398 
L 229.515558 481.259346 
L 229.731451 481.543206 
L 229.839398 481.478173 
L 230.055292 481.834355 
L 230.379132 481.233619 
L 230.702972 481.748025 
L 230.918866 481.41314 
L 231.026813 481.556213 
L 231.242706 481.027513 
L 231.350653 481.1683 
L 231.4586 481.021224 
L 231.566546 481.186166 
L 231.674493 481.086115 
L 231.78244 481.232047 
L 232.10628 480.796252 
L 232.322174 481.116559 
L 232.646014 480.237108 
L 232.753961 480.302142 
L 232.969854 480.732648 
L 233.077801 481.733447 
L 233.185748 481.426003 
L 233.401642 481.887097 
L 233.833429 481.308514 
L 233.941375 481.591945 
L 234.265216 480.852709 
L 234.373163 480.977202 
L 234.589056 481.531629 
L 234.80495 481.284788 
L 235.12879 481.711721 
L 235.344683 481.719439 
L 235.45263 481.654406 
L 235.560577 481.43415 
L 235.884417 482.081053 
L 236.100311 481.926403 
L 236.532098 482.497266 
L 236.963885 481.843074 
L 237.179779 481.861512 
L 237.287725 481.580368 
L 237.611566 481.610669 
L 237.935406 481.539204 
L 238.1513 481.829925 
L 238.47514 481.094834 
L 238.583087 481.115844 
L 238.79898 481.259775 
L 238.906927 481.248198 
L 239.014874 481.516478 
L 239.230767 481.190454 
L 239.554608 481.883238 
L 239.770501 481.535488 
L 239.986395 482.001298 
L 240.094341 481.777612 
L 240.310235 482.194826 
L 240.634075 481.52877 
L 240.957916 481.566075 
L 241.065862 481.873518 
L 241.281756 481.674273 
L 241.389703 481.624105 
L 241.49765 481.422573 
L 241.713543 481.663268 
L 241.929437 481.72144 
L 242.14533 481.290648 
L 242.253277 481.233333 
L 242.469171 481.387984 
L 242.793011 480.713352 
L 242.900958 480.701775 
L 243.008904 480.560989 
L 243.116851 480.76252 
L 243.332745 480.305572 
L 243.440691 480.489523 
L 243.548638 480.691627 
L 243.656585 481.774468 
L 243.872479 481.60924 
L 244.088372 481.471741 
L 244.196319 481.251485 
L 244.628106 481.90482 
L 244.736053 481.757745 
L 244.951946 481.915826 
L 245.059893 481.922686 
L 245.275787 482.37792 
L 245.707574 481.704146 
L 245.81552 481.715723 
L 245.923467 481.495467 
L 246.031414 481.715723 
L 246.247308 481.5039 
L 246.571148 482.042462 
L 246.787041 481.699572 
L 246.894988 481.770751 
L 247.002935 480.695343 
L 247.110882 480.745512 
L 247.326775 481.020653 
L 247.650616 481.639541 
L 247.758562 481.331097 
L 247.866509 481.639541 
L 247.974456 481.375978 
L 248.406243 482.003871 
L 248.622137 481.670271 
L 248.730083 481.835213 
L 248.945977 481.57851 
L 249.377764 481.359969 
L 249.593658 481.115273 
L 249.701604 481.103695 
L 249.917498 481.610812 
L 250.133391 481.393558 
L 250.241338 481.536631 
L 250.349285 481.471598 
L 250.457232 481.752742 
L 250.781072 480.999642 
L 250.889019 480.87515 
L 250.996966 481.076681 
L 251.104912 480.916171 
L 251.212859 480.973486 
L 251.320806 480.632168 
L 251.536699 481.12342 
L 251.752593 481.136569 
L 251.968487 480.62788 
L 252.076433 480.829984 
L 252.400274 480.377752 
L 252.616167 480.953475 
L 252.832061 480.339303 
L 253.047954 480.431494 
L 253.155901 480.695057 
L 253.263848 480.547982 
L 253.479741 480.526971 
L 253.587688 480.36646 
L 253.695635 480.43764 
L 253.911528 480.03329 
L 254.127422 480.51082 
L 254.235369 480.821836 
L 254.343316 480.540692 
L 254.559209 480.989065 
L 254.667156 480.787533 
L 254.775103 480.887584 
L 254.990996 481.721583 
L 255.53073 481.642543 
L 255.638677 481.495467 
L 255.746624 480.970627 
L 255.962517 481.171015 
L 256.394304 480.408482 
L 256.610198 480.597007 
L 256.718145 480.744082 
L 257.041985 480.263693 
L 257.149932 480.547124 
L 257.257878 480.278844 
L 257.473772 480.504388 
L 257.581719 480.195944 
L 257.797612 480.511249 
L 257.905559 480.504388 
L 258.229399 481.060673 
L 258.55324 480.473086 
L 258.661186 480.756517 
L 258.87708 480.301284 
L 259.092974 480.656752 
L 259.416814 480.206664 
L 259.524761 479.923233 
L 259.740654 480.213239 
L 259.848601 480.360028 
L 259.956548 480.213239 
L 260.064494 482.252856 
L 260.172441 482.239849 
L 260.604228 481.426289 
L 260.712175 481.572221 
L 260.928069 481.386269 
L 261.143962 481.888097 
L 261.251909 481.606953 
L 261.467803 480.788677 
L 261.89959 479.908083 
L 262.115483 480.201947 
L 262.331377 480.138915 
L 262.979057 480.895731 
L 263.302898 480.505103 
L 263.410844 480.706635 
L 263.518791 480.559559 
L 263.842632 480.983634 
L 263.950578 480.782102 
L 264.058525 480.928034 
L 264.166472 480.774384 
L 264.490312 481.143716 
L 264.598259 481.304227 
L 264.814152 481.106125 
L 265.030046 481.348678 
L 265.137993 481.283645 
L 265.353886 480.888013 
L 265.461833 480.958478 
L 265.56978 480.812546 
L 265.677727 480.953332 
L 265.785673 480.810259 
L 265.89362 481.118703 
L 266.217461 480.720785 
L 266.433354 480.734935 
L 266.973088 479.980834 
L 267.081035 480.134484 
L 267.188981 480.06402 
L 267.296928 480.210809 
L 267.404875 480.13963 
L 267.512822 480.333729 
L 267.728715 480.039293 
L 268.268449 480.773669 
L 268.484343 481.886525 
L 268.59229 482.154805 
L 268.808183 480.240824 
L 269.024077 479.912942 
L 269.455864 480.873577 
L 269.56381 480.590146 
L 269.671757 480.858427 
L 269.887651 480.604725 
L 270.103544 480.615731 
L 270.211491 480.434209 
L 270.535331 480.909739 
L 270.643278 481.556356 
L 270.859172 481.391271 
L 270.967119 481.082827 
L 271.075065 481.383267 
L 271.183012 481.114987 
L 271.614799 481.683564 
L 271.938639 481.11027 
L 272.046586 481.373834 
L 272.478373 481.051811 
L 272.58632 480.710494 
L 272.694267 480.85128 
L 272.91016 480.434066 
L 273.449894 481.097978 
L 273.557841 480.957192 
L 274.097575 481.590659 
L 274.205522 481.520194 
L 274.421415 481.835499 
L 274.529362 481.692425 
L 274.637309 481.76289 
L 275.284989 480.94347 
L 275.392936 481.13757 
L 275.716777 480.670473 
L 275.824723 480.98149 
L 275.93267 480.779386 
L 276.364457 481.51805 
L 276.688297 481.730588 
L 276.904191 481.710292 
L 277.120085 481.868945 
L 277.228031 481.818776 
L 277.335978 481.965565 
L 277.443925 480.500529 
L 277.551872 480.694628 
L 277.767765 480.072167 
L 278.199552 480.799968 
L 278.307499 481.083399 
L 278.523393 480.471514 
L 278.739286 480.959621 
L 279.27902 481.75703 
L 279.386967 481.472027 
L 279.494914 481.543206 
L 280.142594 480.670044 
L 280.250541 480.735078 
L 280.358488 480.574567 
L 280.466435 480.857998 
L 280.682328 480.510248 
L 280.898222 480.862 
L 281.222062 480.6396 
L 281.330009 480.626594 
L 281.545902 480.949187 
L 281.761796 480.277129 
L 281.869743 480.585573 
L 282.085636 480.605869 
L 282.193583 480.826124 
L 282.30153 480.557844 
L 282.517423 480.867574 
L 282.733317 481.332098 
L 282.841264 481.048667 
L 283.273051 481.701144 
L 283.488944 481.779184 
L 284.028678 481.010933 
L 284.784305 481.974427 
L 285.216093 481.091546 
L 285.324039 480.908166 
L 285.64788 481.620389 
L 285.755826 480.845706 
L 285.863773 480.895874 
L 285.97172 480.612443 
L 286.079667 480.92346 
L 286.187613 480.642316 
L 287.051188 481.802625 
L 287.267081 481.444012 
L 287.590922 480.973343 
L 287.806815 481.088545 
L 287.914762 480.923603 
L 288.022709 481.542492 
L 288.130655 481.381981 
L 288.454496 481.461593 
L 288.562442 481.440582 
L 288.99423 480.735364 
L 289.102176 481.016508 
L 289.31807 480.856711 
L 289.426017 480.835701 
L 289.64191 480.241396 
L 289.749857 480.54984 
L 289.857804 480.266409 
L 290.073697 480.676762 
L 290.289591 480.356741 
L 290.613431 480.810545 
L 291.153165 480.568707 
L 291.477005 479.944959 
L 291.692899 480.449789 
L 291.800846 480.266409 
L 291.908792 480.42692 
L 292.016739 480.266409 
L 292.232633 480.531688 
L 292.448526 481.123563 
L 292.556473 481.111985 
L 292.772367 481.603237 
L 292.98826 480.594577 
L 293.096207 480.374321 
L 293.204154 480.431637 
L 293.3121 480.12062 
L 293.420047 480.245112 
L 293.527994 480.12062 
L 293.743888 480.361458 
L 293.851834 480.178078 
L 294.067728 480.242397 
L 294.175675 480.255403 
L 294.283621 480.538834 
L 294.607462 480.251258 
L 294.931302 480.753087 
L 295.039249 480.588145 
L 295.147196 480.463653 
L 295.255142 480.628595 
L 295.471036 480.384327 
L 295.794876 480.790249 
L 295.902823 480.506818 
L 296.118717 480.978345 
L 296.33461 481.274211 
L 296.65845 480.777814 
L 296.874344 480.905594 
L 297.198184 480.540978 
L 297.306131 480.743082 
L 297.522025 480.241539 
L 297.737918 480.531688 
L 297.953812 480.443214 
L 298.061758 480.773955 
L 298.169705 480.626879 
L 298.277652 480.890443 
L 298.385599 480.549125 
L 298.493546 480.702775 
L 298.601492 480.439212 
L 298.709439 480.504245 
L 298.817386 480.343734 
L 298.925333 480.537834 
L 299.033279 480.207093 
L 299.465067 481.096835 
L 299.68096 480.719355 
L 300.0048 481.491322 
L 300.112747 481.207891 
L 300.220694 481.258203 
L 300.328641 481.064103 
L 300.436587 481.37512 
L 300.652481 481.240765 
L 300.868375 481.625963 
L 300.976321 481.362399 
L 301.192215 481.562788 
L 301.624002 480.790964 
L 301.731949 481.059244 
L 301.839896 480.934751 
L 301.947842 480.999785 
L 302.055789 481.280929 
L 302.379629 481.030372 
L 302.595523 481.202174 
L 302.70347 481.355824 
L 303.02731 480.758232 
L 303.135257 480.687053 
L 303.35115 480.840989 
L 303.567044 480.787533 
L 303.782937 481.29465 
L 303.998831 481.007217 
L 304.214725 480.555557 
L 304.430618 480.759662 
L 304.754458 481.479888 
L 304.862405 481.640399 
L 305.078299 480.642316 
L 305.402139 481.083542 
L 305.510086 481.013077 
L 305.618033 481.178019 
L 305.725979 481.112986 
L 305.941873 481.43558 
L 306.04982 481.618959 
L 306.265713 481.281929 
L 306.37366 481.465309 
L 306.481607 481.365258 
L 306.589554 481.525769 
L 306.6975 481.454589 
L 307.129287 480.547696 
L 307.345181 480.276128 
L 307.561074 480.682479 
L 307.669021 480.4991 
L 307.884915 481.030372 
L 308.100808 480.517252 
L 308.208755 480.617303 
L 308.424649 481.093261 
L 308.640542 481.547637 
L 308.748489 481.346105 
L 308.856436 481.627249 
L 308.964383 481.466738 
L 309.072329 481.620389 
L 309.288223 481.332956 
L 309.504116 481.788189 
L 309.72001 480.476374 
L 309.827957 480.329298 
L 310.151797 480.729218 
L 310.259744 480.535118 
L 310.475637 480.742367 
L 310.799478 480.333015 
L 310.907424 480.478946 
L 311.015371 480.333015 
L 311.231265 480.821122 
L 311.339212 480.696629 
L 311.447158 481.005073 
L 311.555105 480.674332 
L 311.663052 480.876436 
L 311.770999 480.693056 
L 311.878945 480.743225 
L 312.094839 480.38061 
L 312.202786 480.691627 
L 312.310732 480.350309 
L 312.526626 480.778814 
L 312.634573 480.493811 
L 312.74252 480.774955 
L 312.850466 480.724787 
L 312.958413 480.461223 
L 313.498147 481.363686 
L 313.714041 480.902592 
L 313.929934 481.435437 
L 314.037881 481.456447 
L 314.145828 481.315661 
L 314.253774 481.476172 
L 314.361721 481.404992 
L 314.577615 481.773324 
L 314.793508 480.549697 
L 314.901455 480.649748 
L 315.009402 480.933179 
L 315.117349 480.833128 
L 315.225295 480.890443 
L 315.333242 480.707063 
L 315.441189 480.890443 
L 315.549136 480.607012 
L 315.765029 482.122646 
L 315.872976 481.791905 
L 315.980923 481.93898 
L 316.08887 481.873947 
L 316.196816 482.18139 
L 316.304763 480.284704 
L 316.520657 480.756231 
L 316.628603 480.777242 
L 316.73655 481.045523 
L 316.844497 480.714782 
L 317.06039 480.895874 
L 317.168337 480.824695 
L 317.276284 481.166013 
L 317.384231 480.854996 
L 317.492178 481.002072 
L 317.600124 480.944757 
L 317.708071 481.091546 
L 317.816018 481.041378 
L 317.923965 481.424717 
L 318.247805 480.82298 
L 319.003432 481.314375 
L 319.219326 481.089545 
L 319.43522 480.593863 
L 319.75906 480.823266 
L 319.974953 480.551412 
L 320.40674 479.881212 
L 320.514687 479.572768 
L 320.730581 479.979119 
L 320.838528 479.966112 
L 321.054421 479.785019 
L 321.162368 479.726132 
L 321.486208 480.380325 
L 321.594155 480.233249 
L 321.702102 480.376322 
L 321.917995 480.208951 
L 322.133889 480.642173 
L 322.241836 480.95319 
L 322.457729 480.571708 
L 322.565676 480.882725 
L 322.673623 480.575282 
L 322.781569 480.646461 
L 322.889516 480.382897 
L 323.10541 480.847993 
L 323.213357 480.782959 
L 323.321303 480.658467 
L 323.645144 481.030229 
L 323.75309 480.865287 
L 323.968984 481.150576 
L 324.076931 480.990066 
L 324.184878 481.173445 
L 324.292824 480.862429 
L 324.400771 481.169872 
L 324.508718 480.901592 
L 324.832558 481.672415 
L 325.156398 481.075252 
L 325.264345 481.054241 
L 325.480239 481.404992 
L 325.588186 481.141429 
L 326.019973 481.411424 
L 326.127919 481.250914 
L 326.343813 481.719868 
L 326.667653 481.096406 
L 326.883547 480.885726 
L 326.991494 480.738651 
L 327.09944 480.922031 
L 327.315334 480.573995 
L 327.423281 480.585573 
L 327.531227 480.849136 
L 327.639174 480.706063 
L 327.747121 480.991066 
L 327.855068 480.68005 
L 328.178908 481.07711 
L 328.286855 480.912168 
L 328.394802 481.0581 
L 328.610695 481.378407 
L 328.934536 480.843562 
L 329.042482 480.535118 
L 329.258376 480.959336 
L 329.582216 480.424347 
L 329.690163 480.648033 
L 329.79811 480.317292 
L 329.906056 480.382326 
L 330.12195 480.034576 
L 330.229897 480.342019 
L 330.337844 482.124075 
L 330.44579 481.977 
L 330.553737 482.284443 
L 330.877577 481.781614 
L 330.985524 480.68448 
L 331.201418 481.256488 
L 331.417311 481.169443 
L 331.525258 481.157866 
L 331.633205 480.816548 
L 331.849098 481.224043 
L 331.957045 481.022511 
L 332.064992 481.333527 
L 332.172939 481.190454 
L 332.388832 481.589087 
L 332.496779 481.742737 
L 332.820619 481.367116 
L 333.252406 481.903534 
L 333.360353 481.960849 
L 333.576247 481.663982 
L 333.79214 481.2805 
L 334.008034 481.632824 
L 334.115981 481.561644 
L 334.223927 481.755744 
L 334.331874 481.532058 
L 334.655714 481.987434 
L 334.763661 481.840358 
L 334.979555 482.207404 
L 335.195448 481.636397 
L 335.303395 481.760889 
L 335.411342 481.56679 
L 335.627235 481.84336 
L 335.735182 481.831783 
L 335.951076 481.523911 
L 336.166969 480.921173 
L 336.274916 480.909596 
L 336.382863 481.220612 
L 336.49081 481.120561 
L 336.922597 481.450873 
L 337.13849 481.452302 
L 337.354384 481.78676 
L 337.462331 481.686708 
L 337.570277 481.34539 
L 337.786171 481.85165 
L 338.110011 482.251283 
L 338.217958 481.909966 
L 338.325905 482.19111 
L 338.541798 481.73559 
L 338.757692 482.145086 
L 338.865639 482.080053 
L 339.081532 481.54778 
L 339.513319 481.868087 
L 339.621266 481.55707 
L 339.729213 481.704146 
L 339.83716 481.558214 
L 340.053053 481.969996 
L 340.48484 481.678132 
L 340.700734 481.183165 
L 340.916627 481.667556 
L 341.024574 481.484176 
L 341.132521 481.282072 
L 341.240468 481.428004 
L 341.456361 481.819491 
L 341.996095 480.474516 
L 342.211989 480.928891 
L 342.319935 480.941898 
L 342.535829 480.695915 
L 342.859669 480.84056 
L 343.075563 480.460937 
L 343.18351 480.300426 
L 343.291456 480.631167 
L 343.399403 480.566134 
L 343.723243 481.047666 
L 343.83119 481.068677 
L 344.478871 481.995295 
L 344.802711 481.386126 
L 344.910658 481.379265 
L 345.018605 481.238479 
L 345.126551 481.33853 
L 345.342445 481.82578 
L 345.450392 481.517336 
L 345.666285 481.690424 
L 345.774232 481.8375 
L 346.098072 481.067963 
L 346.421913 481.623819 
L 346.8537 482.397501 
L 346.961647 482.133937 
L 347.50138 482.496123 
L 347.609327 482.154805 
L 347.717274 482.279298 
L 348.041114 481.866515 
L 348.364955 481.608239 
L 348.688795 481.349821 
L 348.796742 481.370832 
L 349.120582 480.720356 
L 349.336476 481.148575 
L 349.444422 480.817834 
L 349.552369 481.086115 
L 349.876209 480.673332 
L 349.984156 481.792763 
L 350.092103 481.529199 
L 350.52389 482.407935 
L 350.631837 482.100492 
L 350.739784 482.385495 
L 350.84773 482.117215 
L 350.955677 482.26429 
L 351.279517 481.552211 
L 351.495411 481.334385 
L 351.711305 480.910167 
L 351.927198 481.16687 
L 352.143092 480.87272 
L 352.251038 481.156151 
L 352.574879 480.551269 
L 352.682826 480.220528 
L 352.898719 480.58886 
L 353.006666 480.609871 
L 353.330506 480.069022 
L 353.654346 480.634026 
L 353.762293 480.432494 
L 354.086134 481.206033 
L 354.19408 481.199173 
L 354.409974 481.351965 
L 354.517921 481.043522 
L 354.625867 481.204032 
L 354.841761 481.075538 
L 354.949708 481.383982 
L 355.165601 481.057529 
L 355.273548 481.182021 
L 355.489442 480.882582 
L 355.597388 480.871005 
L 355.705335 480.602724 
L 355.921229 480.883725 
L 356.137122 480.904736 
L 356.245069 481.004787 
L 356.353016 480.721356 
L 356.460963 481.744738 
L 356.676856 481.348535 
L 357.000696 481.92383 
L 357.108643 481.776754 
L 357.324537 482.048322 
L 357.756324 481.365401 
L 358.080164 480.756374 
L 358.188111 480.562275 
L 358.296058 480.61959 
L 358.619898 481.250771 
L 358.835792 481.383696 
L 358.943738 481.390556 
L 359.051685 481.207177 
L 359.375525 481.666555 
L 359.591419 481.121847 
L 359.807313 481.549924 
L 359.915259 481.409137 
L 360.2391 481.805912 
L 360.56294 481.148432 
L 360.670887 481.048381 
L 360.778833 481.316661 
L 360.88678 481.149433 
L 360.994727 481.273925 
L 361.210621 481.046237 
L 361.318567 481.33124 
L 361.534461 480.689483 
L 361.642408 480.754516 
L 361.750354 480.560417 
L 361.858301 480.86786 
L 362.074195 480.542265 
L 362.182142 481.92383 
L 362.505982 481.309658 
L 362.613929 480.96834 
L 362.829822 481.246483 
L 363.045716 481.459592 
L 363.261609 481.110985 
L 363.58545 481.760746 
L 363.693396 481.710578 
L 364.017237 481.001929 
L 364.449024 481.827066 
L 364.556971 481.840073 
L 364.772864 481.761032 
L 364.988758 481.761032 
L 365.096704 481.477601 
L 365.204651 481.671701 
L 365.312598 481.390556 
L 365.744385 482.286301 
L 366.068225 481.629965 
L 366.284119 481.961278 
L 366.392066 481.896244 
L 366.715906 482.23456 
L 366.823853 482.069619 
L 367.039746 482.006444 
L 367.363587 482.596174 
L 367.471533 482.332611 
L 367.57948 482.534143 
L 367.687427 482.462963 
L 367.795374 482.154519 
L 367.90332 482.462963 
L 368.011267 482.279584 
L 368.119214 482.329752 
L 368.227161 482.182677 
L 368.335108 482.239992 
L 368.658948 481.546922 
L 368.874841 481.890813 
L 368.982788 481.670557 
L 369.090735 482.001298 
L 369.198682 481.936265 
L 369.414575 481.540062 
L 369.522522 481.640113 
L 369.630469 481.358969 
L 369.846362 481.929976 
L 369.954309 481.618959 
L 370.062256 481.765749 
L 370.278149 480.416915 
L 370.494043 480.010564 
L 370.92583 480.791964 
L 371.24967 480.341162 
L 371.465564 480.765236 
L 371.573511 480.45422 
L 371.681458 480.511535 
L 371.789404 480.364459 
L 371.897351 480.6952 
L 372.329138 480.193372 
L 372.437085 480.501815 
L 372.545032 480.318436 
L 372.652978 480.368604 
L 372.760925 480.105041 
L 372.868872 480.205092 
L 372.976819 480.490095 
L 373.084766 480.205092 
L 373.408606 480.411055 
L 373.516553 480.34059 
L 373.840393 480.624021 
L 374.056287 480.26498 
L 374.27218 480.747084 
L 374.380127 480.758661 
L 374.488074 480.982347 
L 374.59602 480.925032 
L 374.703967 481.232475 
L 374.811914 481.182307 
L 374.919861 480.962051 
L 375.135754 481.186166 
L 375.243701 480.96248 
L 375.459595 481.834355 
L 375.567541 481.934407 
L 375.675488 481.670843 
L 375.783435 481.817918 
L 375.891382 481.760603 
L 375.999328 482.069047 
L 376.107275 480.397047 
L 376.431116 480.745226 
L 376.539062 480.591576 
L 376.754956 482.155663 
L 376.862903 482.375919 
L 377.186743 481.626392 
L 377.402636 481.618673 
L 377.61853 481.689853 
L 377.726477 481.488321 
L 377.94237 481.997868 
L 378.158264 481.685851 
L 378.374157 481.110985 
L 378.590051 481.407851 
L 378.697998 481.676131 
L 378.913891 481.254201 
L 379.021838 480.945757 
L 379.237732 481.163726 
L 379.345678 480.832985 
L 379.561572 481.24148 
L 379.885412 481.5878 
L 379.993359 481.530485 
L 380.317199 481.738163 
L 380.64104 481.809628 
L 380.748986 481.788618 
L 380.856933 481.525054 
L 380.96488 481.808485 
L 381.180774 481.506902 
L 381.396667 481.841788 
L 381.504614 481.694712 
L 381.612561 481.794764 
L 381.720507 482.125505 
L 382.044348 481.63654 
L 382.152294 481.917684 
L 382.368188 481.6434 
L 382.476135 481.844932 
L 382.692028 481.507331 
L 382.799975 481.2239 
L 382.907922 481.426003 
L 383.555603 480.370034 
L 383.771496 480.815548 
L 383.879443 480.886727 
L 384.095336 480.457936 
L 384.203283 480.601009 
L 384.527123 481.109698 
L 384.743017 481.561501 
L 384.850964 481.631966 
L 384.958911 481.471455 
L 385.174804 481.867658 
L 385.282751 481.720869 
L 385.390698 482.002013 
L 385.714538 481.586943 
L 385.930432 480.595721 
L 386.038378 480.57471 
L 386.146325 480.739652 
L 386.254272 480.579141 
L 386.686059 481.074823 
L 386.794006 480.81126 
L 386.901952 481.122276 
L 387.009899 480.853996 
L 387.225793 481.064961 
L 387.33374 481.333241 
L 387.65758 481.119275 
L 387.765527 481.132281 
L 387.98142 480.604582 
L 388.197314 480.746655 
L 388.521154 480.215383 
L 388.629101 479.947103 
L 388.952941 480.558845 
L 389.060888 480.630024 
L 389.168835 481.836071 
L 389.276781 481.823064 
L 389.384728 481.51462 
L 389.492675 481.657693 
L 389.600622 481.510904 
L 389.708569 481.664554 
L 389.816515 481.564503 
L 390.140356 482.272294 
L 390.356249 482.483259 
L 390.572143 482.102493 
L 390.68009 482.172957 
L 390.895983 482.472397 
L 391.111877 481.989721 
L 391.435717 482.504985 
L 391.65161 479.861058 
L 391.759557 479.789879 
L 391.975451 480.080028 
L 392.083398 480.022713 
L 392.299291 480.293137 
L 392.515185 480.861571 
L 392.946972 479.681252 
L 393.054919 479.875351 
L 393.162865 479.72942 
L 393.378759 480.195944 
L 393.702599 479.538322 
L 394.026439 480.28256 
L 394.134386 480.232392 
L 394.242333 480.03086 
L 394.35028 480.102039 
L 394.67412 479.923948 
L 394.890014 480.218956 
L 394.99796 479.90794 
L 395.753588 481.445013 
L 396.293322 480.466369 
L 396.509215 480.588717 
L 396.617162 480.305286 
L 396.725109 480.590289 
L 396.941002 479.974545 
L 397.156896 480.144489 
L 397.372789 480.066164 
L 397.480736 480.195373 
L 397.69663 480.687196 
L 397.804577 480.54641 
L 398.02047 480.927605 
L 398.128417 480.827554 
L 398.34431 481.23662 
L 398.452257 481.293936 
L 398.668151 481.051383 
L 398.776098 480.92689 
L 398.884044 480.618447 
L 399.099938 480.973629 
L 399.207885 480.779529 
L 399.423778 481.314946 
L 399.531725 481.414998 
L 399.639672 481.254487 
L 399.855565 481.463451 
L 399.963512 481.44244 
L 400.179406 481.230617 
L 400.287352 481.561358 
L 400.395299 481.253915 
L 400.719139 481.712722 
L 400.827086 481.51119 
L 401.04298 481.778755 
L 401.150927 482.063759 
L 401.258873 481.861655 
L 401.474767 482.372202 
L 401.582714 482.393213 
L 401.69066 482.268721 
L 401.906554 482.540574 
L 402.014501 482.257143 
L 402.122447 482.477399 
L 402.446288 481.82921 
L 402.662181 482.14823 
L 402.770128 482.14137 
L 402.986022 481.943268 
L 403.309862 482.710519 
L 403.417809 482.698941 
L 403.633702 482.398216 
L 403.849596 482.803852 
L 403.957543 482.496409 
L 404.173436 482.629334 
L 404.821117 481.549209 
L 404.929064 481.860226 
L 405.144957 481.432149 
L 405.252904 481.579225 
L 405.360851 481.592231 
L 405.468797 481.735305 
L 405.792638 481.095691 
L 405.900585 481.16687 
L 406.008531 480.83613 
L 406.440318 481.277784 
L 406.548265 481.290791 
L 406.656212 481.166299 
L 406.764159 481.49704 
L 406.980052 481.135855 
L 407.087999 481.186023 
L 407.303893 480.570279 
L 407.411839 480.716211 
L 407.519786 480.532831 
L 407.627733 480.604011 
L 407.843626 480.072881 
L 408.167467 480.68348 
L 408.38336 480.526114 
L 408.491307 480.673189 
L 408.599254 480.471657 
L 408.707201 480.528972 
L 408.923094 480.258548 
L 409.031041 480.201233 
L 409.138988 480.344306 
L 409.354881 479.902651 
L 409.462828 480.027144 
L 409.570775 480.127195 
L 409.678722 479.973545 
L 409.894615 480.155066 
L 410.002562 480.104898 
L 410.110509 480.368461 
L 410.326402 480.15135 
L 410.758189 481.252915 
L 410.974083 480.708207 
L 411.08203 480.97177 
L 411.297923 480.728646 
L 411.40587 480.952332 
L 411.513817 480.750228 
L 411.621763 480.95176 
L 411.837657 480.664184 
L 411.945604 480.804971 
L 412.161497 481.808199 
L 412.269444 480.657895 
L 412.377391 480.811545 
L 412.593284 480.447073 
L 412.917125 480.996497 
L 413.133018 480.66204 
L 413.240965 480.80883 
L 413.456859 480.506675 
L 413.672752 482.222983 
L 413.780699 481.999297 
L 413.888646 482.193396 
L 413.996592 482.047465 
L 414.104539 482.355908 
L 414.212486 482.072477 
L 414.320433 482.19697 
L 414.536326 481.808914 
L 414.644273 481.955703 
L 414.860167 481.46388 
L 415.07606 481.635968 
L 415.184007 481.614957 
L 415.399901 481.255916 
L 415.507847 481.51948 
L 415.615794 480.946615 
L 415.831688 481.14586 
L 415.939634 481.196028 
L 416.047581 480.972342 
L 416.371421 481.18831 
L 416.587315 480.696487 
L 416.803209 481.04538 
L 417.019102 481.717438 
L 417.127049 481.552497 
L 417.234996 481.623676 
L 417.450889 482.0882 
L 417.77473 481.856224 
L 418.09857 481.64826 
L 418.314463 482.055755 
L 418.530357 481.967281 
L 418.74625 482.375776 
L 419.070091 482.659064 
L 419.178038 482.922627 
L 419.501878 482.258001 
L 419.717771 479.897077 
L 419.933665 479.961253 
L 420.041612 480.229533 
L 420.149559 480.088747 
L 420.365452 480.704491 
L 420.473399 480.419487 
L 420.689292 480.876436 
L 420.905186 480.876436 
L 421.013133 481.030086 
L 421.229026 480.805542 
L 421.336973 481.660552 
L 421.44492 481.353109 
L 421.552867 481.68385 
L 421.76876 481.313088 
L 421.876707 481.507188 
L 422.0926 481.235191 
L 422.308494 481.665697 
L 422.956175 480.932036 
L 423.172068 481.22147 
L 423.387962 480.688625 
L 423.495908 480.849136 
L 423.711802 480.577568 
L 424.251536 481.492466 
L 424.683323 481.327095 
L 424.79127 481.392129 
L 425.223057 480.802541 
L 425.331004 480.64203 
L 425.654844 480.906451 
L 425.870737 481.397703 
L 426.086631 480.906451 
L 426.302525 481.460878 
L 426.410471 481.005216 
L 426.626365 481.081827 
L 426.734312 481.011362 
L 426.842258 480.743082 
L 426.950205 481.011362 
L 427.058152 480.846421 
L 427.166099 481.109984 
L 427.381992 480.88444 
L 427.489939 481.581654 
L 427.705833 481.466453 
L 428.029673 481.936694 
L 428.245566 481.724585 
L 428.569407 482.27601 
L 428.7853 482.623474 
L 429.001194 482.446955 
L 429.217087 482.728242 
L 429.325034 482.587456 
L 429.432981 482.637624 
L 429.972715 481.707147 
L 430.080662 481.83164 
L 430.296555 481.706719 
L 430.512449 482.054182 
L 430.620395 481.92969 
L 430.728342 482.070476 
L 430.944236 481.780614 
L 431.052183 481.837929 
L 431.268076 481.372833 
L 431.376023 481.656264 
L 431.48397 481.436008 
L 431.591916 481.656264 
L 431.80781 481.438438 
L 432.13165 480.757661 
L 432.347544 481.167156 
L 432.455491 481.174017 
L 432.563437 481.376121 
L 432.779331 481.214466 
L 433.103171 481.128422 
L 433.319065 481.47217 
L 433.427012 480.993925 
L 433.642905 481.419143 
L 433.750852 481.217611 
L 433.858799 481.485891 
L 433.966745 481.283787 
L 434.290586 481.691282 
L 434.398533 481.407851 
L 434.506479 481.532343 
L 434.614426 481.26878 
L 434.722373 481.579796 
L 434.938266 480.874721 
L 435.046213 481.591374 
L 435.262107 481.13028 
L 435.370053 480.862 
L 435.478 481.604094 
L 435.801841 481.461736 
L 435.909787 481.120418 
L 436.233628 481.26635 
L 436.449521 480.849136 
L 436.557468 481.072822 
L 436.881308 480.686767 
L 437.205149 481.233476 
L 437.528989 480.644746 
L 437.744882 480.901449 
L 437.852829 480.951617 
L 437.960776 480.643173 
L 438.17667 480.664184 
L 438.392563 481.962421 
L 438.50051 481.694141 
L 438.716403 482.079624 
L 438.82435 482.009159 
L 438.932297 482.079624 
L 439.148191 481.637969 
L 439.256137 481.781042 
L 439.579978 481.493181 
L 439.687924 481.435865 
L 439.903818 481.057957 
L 440.119711 481.43658 
L 440.335605 481.077539 
L 440.443552 480.736221 
L 440.659445 481.348106 
L 440.875339 480.759519 
L 441.199179 481.434722 
L 441.415073 481.196314 
L 441.52302 481.342246 
L 441.630966 481.292077 
L 441.738913 481.555641 
L 441.954807 481.068391 
L 442.062753 481.288647 
L 442.1707 480.977631 
L 442.386594 481.249627 
L 442.49454 481.084685 
L 442.710434 481.38684 
L 442.818381 481.373834 
L 443.034274 481.105696 
L 443.250168 481.142858 
L 443.358115 481.406422 
L 443.574008 481.064103 
L 443.789902 481.467024 
L 444.113742 482.02088 
L 444.545529 481.094262 
L 444.653476 480.89273 
L 444.869369 481.357397 
L 445.19321 480.846135 
L 445.301157 480.970627 
L 445.409103 480.95762 
L 445.51705 481.103552 
L 445.732944 480.770239 
L 445.948837 481.354538 
L 446.056784 481.073394 
L 446.164731 481.238336 
L 446.380624 481.060387 
L 446.488571 481.18488 
L 446.704465 480.585858 
L 446.812411 480.592719 
L 446.920358 481.873375 
L 447.028305 481.592231 
L 447.244198 481.764034 
L 447.352145 481.770894 
L 447.891879 480.968769 
L 448.107773 480.467226 
L 448.323666 480.801969 
L 448.53956 480.756231 
L 448.647507 480.979917 
L 448.8634 480.689912 
L 448.971347 480.668901 
L 449.079294 481.797193 
L 449.18724 481.48975 
L 449.295187 481.753314 
L 449.511081 481.558357 
L 449.726974 481.788903 
L 449.834921 480.677191 
L 449.942868 481.788903 
L 450.050815 481.628393 
L 450.266708 482.119216 
L 450.374655 482.112355 
L 450.482602 482.272866 
L 450.590548 481.991722 
L 450.698495 482.116214 
L 450.914389 482.003299 
L 451.130282 481.996153 
L 451.562069 481.170444 
L 451.670016 481.120275 
L 451.777963 481.388555 
L 452.101803 480.861285 
L 452.317697 481.13171 
L 452.425644 480.929606 
L 452.53359 481.536488 
L 452.857431 481.048667 
L 452.965377 481.232047 
L 453.073324 481.160867 
L 453.397165 481.771466 
L 453.613058 481.206462 
L 453.721005 481.400562 
L 453.828952 481.132281 
L 453.936898 481.333813 
L 454.044845 481.13171 
L 454.368685 481.56536 
L 454.476632 481.345105 
L 454.692526 481.786474 
L 454.800473 481.79948 
L 454.908419 481.514477 
L 455.016366 481.797908 
L 455.124313 480.668186 
L 455.448153 481.216181 
L 455.5561 481.399561 
L 455.664047 481.216181 
L 455.771994 481.362113 
L 455.987887 481.691854 
L 456.203781 481.266064 
L 456.311727 481.547208 
L 456.419674 481.476744 
L 456.635568 481.796765 
L 456.743514 481.594661 
L 456.851461 481.925402 
L 457.067355 481.757316 
L 457.175302 481.958848 
L 457.283248 481.628107 
L 457.391195 481.685422 
L 457.499142 481.868802 
L 457.715035 481.578939 
L 457.930929 481.902819 
L 458.038876 482.049894 
L 458.254769 481.77604 
L 458.470663 482.138654 
L 458.57861 481.918398 
L 458.686556 481.988863 
L 458.794503 481.680419 
L 458.90245 481.780471 
L 459.118343 482.139083 
L 459.334237 481.799623 
L 459.442184 481.870803 
L 459.550131 481.587372 
L 459.658077 481.870803 
L 459.766024 481.805769 
L 459.981918 482.237562 
L 460.197811 481.6151 
L 460.305758 481.88338 
L 460.629598 481.577938 
L 460.845492 481.532201 
L 460.953439 481.813345 
L 461.169332 481.399132 
L 461.385226 480.830698 
L 461.92496 481.656836 
L 462.032906 481.516049 
L 462.356747 480.860428 
L 462.680587 480.1938 
L 462.788534 480.258834 
L 463.220321 481.335957 
L 463.544161 480.614159 
L 463.760055 480.531402 
L 463.868001 480.655894 
L 463.975948 480.966911 
L 464.191842 480.531402 
L 465.055416 481.535774 
L 465.163363 481.54878 
L 465.27131 481.285217 
L 465.487203 481.535774 
L 465.703097 481.890956 
L 465.91899 481.43658 
L 466.026937 481.582512 
L 466.458724 480.604582 
L 466.566671 480.787962 
L 466.674618 480.716783 
L 467.106405 481.130852 
L 467.430245 480.310289 
L 467.754085 481.070392 
L 467.862032 480.846706 
L 468.185872 481.535631 
L 468.293819 481.678704 
L 468.509713 481.337815 
L 468.833553 482.138225 
L 469.157393 481.506616 
L 469.481234 482.00287 
L 469.58918 481.694427 
L 469.805074 481.930548 
L 469.913021 482.238991 
L 470.020968 482.181676 
L 470.344808 482.946783 
L 470.452755 482.82229 
L 470.668648 482.257286 
L 471.100435 482.761831 
L 471.208382 482.74082 
L 471.316329 482.432376 
L 471.532222 482.901331 
L 471.856063 482.128935 
L 471.964009 481.982145 
L 472.179903 482.265576 
L 472.28785 482.002013 
L 472.503743 482.408364 
L 472.827584 481.867801 
L 473.151424 481.809914 
L 473.259371 482.091058 
L 473.367317 481.809914 
L 473.475264 481.956704 
L 474.014998 480.393045 
L 474.122945 480.557987 
L 474.230892 480.397476 
L 474.878572 481.439296 
L 474.986519 481.026799 
L 475.202413 481.300224 
L 475.310359 481.443298 
L 475.6342 481.022654 
L 475.742146 481.286217 
L 475.850093 481.215753 
L 476.065987 481.412997 
L 476.173934 481.426003 
L 476.389827 481.01465 
L 476.605721 480.980632 
L 476.713667 480.697201 
L 476.929561 481.272925 
L 477.145455 480.863858 
L 477.253401 480.578855 
L 477.469295 480.902878 
L 477.685188 480.603439 
L 477.793135 480.62445 
L 477.901082 480.43035 
L 478.224922 481.082113 
L 478.332869 480.928463 
L 478.440816 481.093404 
L 478.548763 480.829841 
L 478.656709 481.093404 
L 478.764656 481.043236 
L 479.196443 481.559929 
L 479.412337 481.712722 
L 480.060017 480.880724 
L 480.491805 481.671844 
L 480.599751 481.511333 
L 480.707698 481.498326 
L 480.815645 480.967768 
L 480.923592 481.248912 
L 481.139485 480.936895 
L 481.247432 481.267636 
L 481.463325 481.174446 
L 481.679219 481.76532 
L 481.787166 481.563216 
L 481.895113 481.633681 
L 482.218953 481.066105 
L 482.542793 481.670557 
L 482.65074 481.389413 
L 482.758687 481.554355 
L 482.866634 481.400705 
L 482.97458 481.668985 
L 483.082527 481.338244 
L 483.190474 481.481317 
L 483.406367 481.133854 
L 483.622261 481.441726 
L 483.730208 481.317233 
L 483.946101 481.752027 
L 484.269942 482.404219 
L 484.377888 482.606322 
L 484.593782 482.400646 
L 484.917622 482.804138 
L 485.025569 482.657349 
L 485.241463 483.00567 
L 485.349409 479.460425 
L 485.457356 479.531604 
L 485.781196 479.600639 
L 485.889143 479.787163 
L 485.99709 479.646377 
L 486.32093 480.316435 
L 486.428877 479.985694 
L 486.752717 480.637027 
L 486.860664 480.476517 
L 486.968611 480.411483 
L 487.184504 480.110901 
L 487.292451 480.10404 
L 487.508345 480.252974 
L 487.616292 479.941957 
L 487.940132 480.50596 
L 488.156025 480.185082 
L 488.371919 480.400192 
L 488.587812 480.689626 
L 488.911653 480.210523 
L 489.127546 480.682051 
L 489.34344 480.226531 
L 489.451387 480.12648 
L 489.66728 480.535547 
L 489.883174 480.957334 
L 489.991121 480.810545 
L 490.207014 481.780042 
L 490.746748 481.531915 
L 490.962641 482.038174 
L 491.286482 481.375263 
L 491.394429 481.577367 
L 491.718269 481.520051 
L 491.934162 481.434007 
L 492.042109 481.579939 
L 492.258003 481.007932 
L 492.473896 481.539776 
L 492.68979 481.413711 
L 492.797737 481.554498 
L 492.905683 481.411424 
L 493.01363 481.696428 
L 493.445417 480.961337 
L 493.769258 481.740307 
L 493.877204 481.719296 
L 494.093098 480.552699 
L 494.308991 481.20146 
L 494.416938 481.180449 
L 494.524885 481.444012 
L 494.740779 481.147289 
L 494.848725 481.294078 
L 494.956672 480.952761 
L 495.064619 481.513334 
L 495.172566 481.37026 
L 495.496406 481.789046 
L 495.820246 481.310658 
L 495.928193 481.471169 
L 496.252033 481.092975 
L 496.35998 480.811831 
L 496.575874 481.01222 
L 496.68382 480.81812 
L 497.007661 481.350393 
L 497.331501 480.693485 
L 497.439448 481.004502 
L 497.655341 480.791106 
L 497.763288 480.956048 
L 497.979182 481.581226 
L 498.087128 481.568219 
L 498.303022 481.913396 
L 498.410969 481.649832 
L 498.626862 481.720154 
L 499.058649 480.580999 
L 499.166596 480.86443 
L 499.274543 480.553413 
L 499.38249 480.653464 
L 499.490437 480.553413 
L 499.70633 480.675762 
L 499.814277 480.392331 
L 499.922224 480.538263 
L 500.03017 480.392331 
L 500.138117 480.557272 
L 500.354011 480.436639 
L 500.893745 481.133996 
L 501.217585 480.915027 
L 501.433478 481.337386 
L 501.973212 481.190454 
L 502.081159 481.350965 
L 502.189106 481.039948 
L 502.297053 481.111128 
L 502.512946 480.644317 
L 502.620893 480.63274 
L 502.72884 480.479089 
L 502.836786 480.790106 
L 502.944733 480.56642 
L 503.05268 480.7498 
L 503.37652 480.456221 
L 503.484467 480.739652 
L 503.916254 480.150778 
L 504.024201 480.492096 
L 504.240095 480.370748 
L 504.671882 481.22733 
L 504.779828 480.95905 
L 504.995722 481.577509 
L 505.103669 481.862513 
L 505.211615 481.642257 
L 505.427509 481.976714 
L 505.535456 482.141656 
L 505.751349 481.984146 
L 505.859296 481.963136 
L 506.07519 481.528341 
L 506.291083 480.87272 
L 506.506977 480.995068 
L 506.614924 481.263348 
L 506.72287 480.979917 
L 506.938764 481.488607 
L 507.154657 481.124992 
L 507.262604 481.059959 
L 507.694391 481.652119 
L 508.018232 481.109412 
L 508.126178 481.052097 
L 508.342072 481.699 
L 508.450019 481.641685 
L 508.557965 481.784759 
L 508.665912 481.443441 
L 509.097699 481.740879 
L 509.313593 482.175673 
L 509.529486 481.84436 
L 509.853327 481.892242 
L 509.961273 481.751456 
L 510.06922 481.945555 
L 510.393061 481.717724 
L 510.501007 481.516192 
L 510.608954 481.616244 
L 510.824848 480.792536 
L 511.040741 480.140201 
L 511.256635 482.607037 
L 511.364582 482.752969 
L 511.580475 482.265719 
L 511.688422 480.207236 
L 511.796369 480.331728 
L 511.904315 480.068165 
L 512.012262 482.39793 
L 512.120209 482.250855 
L 512.228156 482.474541 
L 512.336102 482.417225 
L 512.551996 482.761831 
L 512.659943 482.559727 
L 512.76789 482.706517 
L 512.875836 482.399073 
L 513.09173 482.850733 
L 513.523517 482.605036 
L 513.631464 482.323892 
L 513.739411 482.394357 
L 513.955304 481.778613 
L 514.171198 481.922543 
L 514.387091 481.687137 
L 514.710931 480.92103 
L 514.818878 481.061817 
L 515.250665 481.887383 
L 515.574506 481.309515 
L 515.898346 480.76738 
L 516.11424 481.195457 
L 516.222186 480.910453 
L 516.330133 481.034946 
L 516.546027 481.3634 
L 516.869867 481.292506 
L 516.977814 481.560787 
L 517.08576 481.277356 
L 517.301654 481.754886 
L 517.517548 481.113129 
L 517.733441 481.383553 
L 518.057281 481.995295 
L 518.165228 481.848505 
L 518.273175 481.835499 
L 518.381122 481.652119 
L 518.489069 481.933263 
L 518.812909 481.818061 
L 518.920856 482.001441 
L 519.028802 481.737877 
L 519.136749 481.808342 
L 519.460589 481.338673 
L 519.676483 481.396845 
L 519.78443 481.213466 
L 520.324164 482.049323 
L 520.43211 481.884381 
L 520.540057 480.581713 
L 520.755951 481.094834 
L 520.863898 480.783817 
L 521.187738 481.277927 
L 521.295685 480.970484 
L 521.403631 481.234048 
L 521.511578 481.162868 
L 521.727472 481.221041 
L 522.051312 481.821349 
L 522.159259 481.660838 
L 522.267206 481.82578 
L 522.375152 481.517336 
L 522.591046 481.98629 
L 522.698993 481.82578 
L 522.914886 481.789475 
L 523.022833 481.448157 
L 523.13078 481.588944 
L 523.346673 481.437009 
L 523.45462 481.76775 
L 523.670514 481.379694 
L 523.77846 481.581226 
L 523.886407 481.438152 
L 523.994354 481.77947 
L 524.102301 481.632681 
L 524.318194 480.668472 
L 524.426141 480.618304 
L 524.642035 480.404909 
L 524.749981 480.735649 
L 524.857928 480.55227 
L 525.073822 480.911311 
L 525.505609 480.278272 
L 525.721502 480.62059 
L 525.829449 480.641601 
L 525.937396 480.500815 
L 526.045343 480.565848 
L 526.153289 480.849279 
L 526.47713 480.399334 
L 526.693023 480.693485 
L 526.908917 481.872661 
L 527.12481 481.554212 
L 527.232757 481.835356 
L 527.340704 481.689424 
L 527.556597 482.176674 
L 527.880438 481.815346 
L 528.096331 481.815346 
L 528.204278 481.59509 
L 528.420172 481.78533 
L 528.528118 481.796908 
L 528.744012 481.526483 
L 529.283746 482.268578 
L 529.715533 481.889955 
L 529.82348 482.036745 
L 529.931426 481.936694 
L 530.039373 482.200257 
L 530.255267 481.870517 
L 530.363214 481.72973 
L 530.687054 482.425658 
L 530.795001 482.627762 
L 530.902947 482.480972 
L 531.010894 482.645914 
L 531.118841 482.498839 
L 531.226788 482.644771 
L 531.550628 482.257572 
L 531.658575 482.278583 
L 531.874468 482.597032 
L 531.982415 482.721524 
L 532.414202 481.970282 
L 532.522149 482.172386 
L 532.630096 482.047893 
L 532.845989 482.277868 
L 533.277776 481.329811 
L 533.385723 481.476601 
L 533.49367 481.20832 
L 533.81751 481.99601 
L 533.925457 481.831068 
L 534.141351 482.061043 
L 534.249297 482.003728 
L 534.357244 481.820348 
L 534.465191 482.088629 
L 534.573138 481.942697 
L 534.789031 482.082197 
L 534.896978 482.082197 
L 535.004925 481.921686 
L 535.436712 482.382065 
L 535.544659 482.097061 
L 535.652605 482.237848 
L 535.760552 482.084198 
L 535.976446 482.568017 
L 536.300286 482.01845 
L 536.408233 482.303453 
L 536.624126 480.149635 
L 536.732073 480.417915 
L 536.84002 480.109471 
L 537.055913 480.563561 
L 537.271807 481.069821 
L 537.487701 481.491751 
L 537.595647 481.223471 
L 537.703594 481.506902 
L 537.811541 481.36097 
L 537.919488 481.668413 
L 538.135381 481.451588 
L 538.459221 481.793191 
L 538.567168 481.451874 
L 538.675115 481.516907 
L 538.891009 482.071334 
L 538.998955 481.869802 
L 539.214849 482.059757 
L 539.538689 481.421144 
L 539.754583 481.343104 
L 539.86253 481.032087 
L 539.970476 481.252343 
L 540.078423 481.187309 
L 540.18637 480.906165 
L 540.51021 481.166156 
L 540.726104 481.545779 
L 540.941997 481.181306 
L 541.049944 481.192884 
L 541.373784 480.537405 
L 541.481731 480.683337 
L 542.021465 480.031574 
L 542.129412 480.315005 
L 542.237359 480.244541 
L 542.561199 480.92103 
L 542.669146 480.849851 
L 542.777092 481.073537 
L 542.992986 480.866288 
L 543.100933 480.741795 
L 543.316826 481.18345 
L 543.424773 480.875007 
L 543.53272 481.076538 
L 543.640667 481.011505 
L 543.748613 481.194885 
L 544.1804 480.393331 
L 544.396294 480.388614 
L 544.504241 480.535404 
L 544.720134 480.194086 
L 544.828081 480.462367 
L 544.936028 480.301856 
L 545.043975 480.462367 
L 545.367815 480.156638 
L 545.799602 480.763807 
L 546.015496 480.33573 
L 546.123442 480.141631 
L 546.339336 480.529687 
L 546.447283 480.248543 
L 546.555229 480.319722 
L 546.663176 480.650463 
L 546.87907 481.822492 
L 547.20291 482.242707 
L 547.310857 481.935264 
L 547.418804 482.059757 
L 547.742644 481.54192 
L 547.850591 481.883238 
L 548.066484 481.318663 
L 548.282378 481.433864 
L 548.606218 481.008647 
L 548.714165 481.289791 
L 548.822112 481.146717 
L 549.145952 481.468454 
L 549.361846 481.174017 
L 549.901579 481.985433 
L 550.009526 481.838357 
L 550.117473 482.039889 
L 550.54926 481.580368 
L 550.657207 481.591945 
L 550.8731 481.182593 
L 551.088994 481.0581 
L 551.304887 481.473027 
L 551.520781 481.606953 
L 551.628728 481.386697 
L 551.844621 481.53949 
L 551.952568 481.610669 
L 552.168462 481.18488 
L 552.276408 481.163869 
L 552.384355 481.347249 
L 552.492302 481.201317 
L 552.600249 481.347249 
L 552.816142 480.955762 
L 553.032036 481.580797 
L 553.247929 481.757316 
L 553.463823 481.295222 
L 553.57177 481.274211 
L 553.679716 481.398704 
L 553.787663 481.298652 
L 553.89561 481.459163 
L 554.003557 481.128422 
L 554.543291 482.132794 
L 554.651237 481.802053 
L 554.759184 481.945126 
L 554.975078 481.674702 
L 555.083024 481.695713 
L 555.190971 481.432149 
L 555.298918 481.655835 
L 555.730705 481.491751 
L 555.838652 481.591802 
L 555.946599 481.900246 
L 556.378386 481.072251 
L 556.486333 481.25563 
L 556.594279 480.914312 
L 556.702226 481.079254 
L 556.810173 481.008075 
L 557.026066 481.630537 
L 557.24196 481.13614 
L 557.349907 481.193455 
L 557.457854 480.910025 
L 557.5658 481.55607 
L 557.997587 480.811545 
L 558.105534 480.832556 
L 558.213481 480.979346 
L 558.321428 480.832556 
L 558.537321 481.046237 
L 558.753215 480.709207 
L 559.077055 481.073108 
L 559.185002 480.789677 
L 559.508842 481.514477 
L 559.616789 481.207034 
L 559.724736 481.390414 
L 559.832683 481.049096 
L 559.940629 481.189882 
L 560.048576 481.139714 
L 560.26447 481.755601 
L 560.58831 481.221613 
L 560.804203 480.882153 
L 560.91215 480.953332 
L 561.128044 481.31952 
L 561.235991 481.178734 
L 561.451884 481.512762 
L 561.559831 481.666412 
L 561.775724 481.20832 
L 561.883671 480.900877 
L 561.991618 481.242195 
L 562.207512 480.754945 
L 562.315458 480.81226 
L 562.747245 480.084744 
L 563.071086 480.657324 
L 563.179032 480.840703 
L 563.286979 480.53226 
L 563.61082 481.325952 
L 563.718766 481.172302 
L 564.042607 480.829126 
L 564.2585 481.045951 
L 564.582341 480.330728 
L 564.906181 480.802684 
L 565.122074 480.791106 
L 565.230021 481.09955 
L 565.337968 480.898018 
L 565.553861 481.264492 
L 565.769755 480.758232 
L 566.093595 481.616672 
L 566.309489 482.060614 
L 566.417436 481.914682 
L 566.633329 481.951844 
L 566.741276 481.811058 
L 566.95717 481.430148 
L 567.065116 481.760889 
L 567.28101 481.458734 
L 567.496903 481.654406 
L 568.468424 482.99152 
L 568.792265 482.382779 
L 568.900211 482.375919 
L 569.008158 482.067475 
L 569.116105 482.408793 
L 569.547892 481.438724 
L 569.763786 481.064818 
L 569.871732 481.076396 
L 570.087626 481.388127 
L 570.195573 481.241337 
L 570.519413 481.817061 
L 570.735307 481.384982 
L 570.843253 481.182879 
L 570.9512 481.384982 
L 571.059147 481.319949 
L 571.27504 481.024941 
L 571.382987 481.165727 
L 571.814774 480.537834 
L 571.922721 480.879152 
L 572.138615 480.230391 
L 572.246561 480.571708 
L 572.462455 480.368461 
L 573.002189 481.122991 
L 573.110136 480.920887 
L 573.326029 481.291649 
L 573.541923 481.242195 
L 573.757816 481.528913 
L 573.865763 481.247769 
L 574.189603 481.908822 
L 574.405497 482.117786 
L 574.729337 481.698571 
L 575.053177 481.89553 
L 575.377018 481.373834 
L 575.484965 481.658837 
L 575.700858 481.244482 
L 575.808805 481.257488 
L 575.916752 481.538632 
L 576.240592 481.244482 
L 576.348539 481.385268 
L 576.456486 481.074252 
L 576.672379 481.579368 
L 576.780326 481.432578 
L 576.996219 481.308086 
L 577.104166 481.408137 
L 577.32006 480.883439 
L 577.428006 480.619876 
L 577.535953 480.780387 
L 577.6439 480.633311 
L 577.751847 480.780101 
L 577.859794 481.685994 
L 578.399527 480.284847 
L 578.507474 480.284847 
L 578.615421 482.181247 
L 578.831315 481.769894 
L 579.047208 482.246567 
L 579.586942 483.028396 
L 579.802835 482.722382 
L 579.910782 482.793561 
L 580.126676 482.547578 
L 580.342569 483.096145 
L 580.450516 482.754827 
L 580.66641 482.958074 
L 580.774356 482.907906 
L 580.99025 482.642627 
L 581.098197 482.826006 
L 581.206144 482.605751 
L 581.31409 482.947068 
L 581.529984 482.635337 
L 581.745877 482.728528 
L 582.069718 482.124218 
L 582.177664 482.059185 
L 582.285611 482.279441 
L 582.501505 481.770751 
L 582.609452 481.913825 
L 583.041239 481.251056 
L 583.149185 481.534487 
L 583.365079 481.226044 
L 583.688919 481.720154 
L 583.904813 481.374977 
L 584.01276 481.368116 
L 584.66044 482.233989 
L 584.984281 481.614671 
L 585.092227 481.685136 
L 585.524014 481.16344 
L 585.631961 481.306513 
L 585.739908 481.206462 
L 585.847855 481.491465 
L 585.955802 481.289934 
L 586.171695 481.72044 
L 586.279642 481.574508 
L 586.387589 481.263491 
L 586.603482 481.351965 
L 586.819376 480.921459 
L 587.035269 481.350822 
L 587.251163 481.408137 
L 587.35911 481.71558 
L 587.467056 481.615529 
L 587.68295 481.165012 
L 587.790897 481.165012 
L 588.114737 481.899246 
L 588.222684 481.715866 
L 588.546524 482.069762 
L 588.654471 481.849506 
L 588.762418 481.996581 
L 589.086258 481.368974 
L 589.302151 481.594518 
L 589.518045 481.601379 
L 589.625992 481.447729 
L 589.733939 481.631108 
L 590.381619 480.586001 
L 590.489566 480.30257 
L 590.70546 480.754373 
L 590.921353 480.979203 
L 591.137247 481.286646 
L 591.245193 481.554926 
L 591.35314 481.41414 
L 591.461087 481.561215 
L 591.67698 481.219898 
L 591.892874 481.047809 
L 592.000821 481.047809 
L 592.108768 481.268065 
L 592.216714 481.1976 
L 592.324661 481.338387 
L 592.432608 481.1976 
L 592.540555 481.528341 
L 592.648501 481.1976 
L 592.756448 481.34439 
L 592.864395 481.279357 
L 593.080289 480.937038 
L 593.188235 481.007503 
L 593.296182 481.290934 
L 593.620022 481.166442 
L 593.943863 481.555498 
L 594.159756 481.374405 
L 594.267703 481.515192 
L 594.483597 481.103838 
L 594.591543 481.362256 
L 594.915384 480.826839 
L 595.131277 481.804197 
L 595.239224 481.496754 
L 595.347171 481.657265 
L 595.778958 481.198172 
L 595.886905 481.363114 
L 595.994851 481.312945 
L 596.102798 481.643686 
L 596.318692 481.472456 
L 596.534585 481.731303 
L 596.750479 481.509046 
L 596.858426 481.57951 
L 596.966372 481.514477 
L 597.074319 481.585656 
L 597.290213 481.328954 
L 597.506106 481.597091 
L 597.614053 481.721583 
L 597.722 482.062901 
L 597.829947 481.861369 
L 598.04584 482.033172 
L 598.36968 481.451016 
L 598.801467 482.2277 
L 598.909414 482.086913 
L 599.341201 481.439153 
L 599.449148 481.489321 
L 599.665042 481.755887 
L 599.880935 481.620389 
L 600.312722 482.168527 
L 600.528616 481.764891 
L 600.636563 481.988577 
L 600.852456 481.834927 
L 601.06835 481.982002 
L 601.176296 481.779899 
L 601.39219 482.163381 
L 601.500137 481.83264 
L 601.608084 481.973427 
L 601.823977 481.549209 
L 601.931924 481.347677 
L 602.039871 481.655121 
L 602.147817 481.590087 
L 602.363711 482.072763 
L 602.471658 481.931977 
L 602.687551 480.515537 
L 602.903445 480.730075 
L 603.119338 480.9732 
L 603.227285 481.492895 
L 603.335232 481.181878 
L 603.443179 481.365258 
L 603.659072 481.080683 
L 603.874966 481.073823 
L 604.090859 480.58543 
L 604.306753 480.720928 
L 604.4147 480.820979 
L 604.522646 480.656037 
L 604.846487 481.558928 
L 604.954434 481.547351 
L 605.170327 481.753028 
L 605.386221 481.426432 
L 605.494167 481.550924 
L 605.925954 481.106554 
L 606.033901 481.085543 
L 606.249795 480.542693 
L 606.465688 480.766379 
L 606.681582 481.013506 
L 606.789529 480.79325 
L 607.113369 481.530914 
L 607.329263 481.608954 
L 607.437209 481.597377 
L 607.653103 481.312374 
L 607.868996 481.382838 
L 608.192837 481.674988 
L 608.40873 480.740938 
L 608.516677 480.39962 
L 608.732571 480.832842 
L 608.948464 480.6103 
L 609.380251 481.224043 
L 609.488198 480.893302 
L 609.596145 481.161582 
L 609.812038 480.979775 
L 610.027932 481.126564 
L 610.243825 480.625021 
L 610.459719 481.089545 
L 610.567666 480.825981 
L 610.675612 480.897161 
L 610.783559 480.832127 
L 610.999453 480.957049 
L 611.1074 480.957049 
L 611.323293 480.545695 
L 611.539187 480.864716 
L 611.647133 480.929749 
L 611.863027 481.119703 
L 612.294814 481.561215 
L 612.510708 481.196743 
L 612.942495 481.225472 
L 613.050441 480.914455 
L 613.158388 481.245196 
L 613.266335 480.903879 
L 613.482229 481.172159 
L 613.698122 481.37026 
L 613.806069 481.10198 
L 613.914016 481.443298 
L 614.129909 480.941898 
L 614.237856 480.941898 
L 614.561696 481.579368 
L 614.669643 481.579368 
L 614.77759 481.862799 
L 614.993483 481.755887 
L 615.209377 482.16724 
L 615.42527 481.639541 
L 615.533217 481.859797 
L 615.749111 481.859797 
L 615.857058 481.838786 
L 616.072951 481.575223 
L 616.396791 481.510189 
L 616.504738 481.364257 
L 616.612685 481.649261 
L 616.828579 481.482604 
L 617.152419 481.900389 
L 617.260366 481.829925 
L 617.476259 481.619245 
L 617.692153 481.740307 
L 617.800099 481.900818 
L 617.908046 481.592374 
L 618.12394 481.644401 
L 618.339833 481.426146 
L 618.663674 481.080969 
L 618.987514 481.099407 
L 619.203408 480.684337 
L 619.419301 480.965482 
L 619.743141 480.595292 
L 620.066982 480.992924 
L 620.174928 480.921745 
L 620.282875 481.230189 
L 620.498769 480.765665 
L 620.606716 480.765665 
L 620.822609 480.622592 
L 621.038503 480.578569 
L 621.362343 480.5284 
L 621.47029 480.5284 
L 621.686183 480.162642 
L 621.902077 480.239967 
L 622.11797 479.898649 
L 622.441811 479.962539 
L 622.657704 479.476004 
L 622.873598 479.804458 
L 622.981545 479.951533 
L 623.197438 479.943815 
L 623.305385 480.014994 
L 623.413332 480.345735 
L 623.521278 480.28842 
L 623.737172 480.578426 
L 623.845119 480.578426 
L 624.061012 480.790535 
L 624.492799 480.372463 
L 624.81664 480.386613 
L 624.924586 480.695057 
L 625.032533 480.411626 
L 625.248427 480.622592 
L 625.680214 481.045951 
L 625.896107 480.980918 
L 626.112001 480.523112 
L 626.543788 481.082113 
L 626.867628 480.726645 
L 627.191469 481.340817 
L 627.299415 481.40585 
L 627.407362 481.690853 
L 627.623256 481.228759 
L 627.947096 481.008075 
L 628.055043 481.161725 
L 628.16299 481.001214 
L 628.378883 481.309658 
L 628.48683 481.309658 
L 628.594777 481.108126 
L 628.81067 481.530485 
L 628.918617 481.223042 
L 629.026564 481.280357 
L 629.674244 479.874208 
L 629.782191 480.021283 
L 629.890138 479.737852 
L 630.321925 480.040007 
L 630.537819 480.053014 
L 630.645765 479.85091 
L 630.969606 480.247399 
L 631.077553 480.234393 
L 631.185499 480.375179 
L 631.401393 480.254117 
L 631.83318 480.183652 
L 632.049073 479.857628 
L 632.264967 479.878639 
L 632.588807 480.384469 
L 632.912648 480.086603 
L 633.020594 479.939813 
L 633.236488 480.42792 
L 633.344435 480.478089 
L 633.452382 480.331299 
L 633.668275 480.59958 
L 633.884169 480.59958 
L 633.992115 480.59958 
L 634.423902 481.68485 
L 634.531849 481.613671 
L 634.747743 481.634682 
L 634.85569 481.634682 
L 634.963636 481.918113 
L 635.287477 481.310515 
L 635.50337 481.593946 
L 635.719264 481.600807 
L 635.935157 481.43415 
L 636.151051 481.362971 
L 636.366944 480.930892 
L 636.582838 481.194885 
L 636.798732 480.853567 
L 636.906678 480.846706 
L 637.230519 480.35817 
L 637.338465 480.578426 
L 637.554359 480.077026 
L 637.662306 480.077026 
L 637.770252 480.201519 
L 637.878199 479.870778 
L 638.20204 480.318293 
L 638.417933 480.318293 
L 638.633827 480.655323 
L 638.741773 480.509391 
L 638.84972 480.669901 
L 639.065614 480.56985 
L 639.389454 481.106697 
L 639.497401 481.106697 
L 639.821241 480.679335 
L 640.253028 480.596578 
L 640.576869 481.04052 
L 640.792762 481.090689 
L 641.008656 481.161153 
L 641.440443 480.897447 
L 641.656336 480.531688 
L 641.764283 480.531688 
L 641.980177 480.812832 
L 642.088123 480.825839 
L 642.304017 480.540835 
L 642.411964 480.540835 
L 642.627857 480.851852 
L 642.951698 480.830841 
L 643.059644 481.115844 
L 643.383485 480.801683 
L 643.707325 481.095977 
L 643.815272 480.901878 
L 644.247059 481.338959 
L 644.355006 481.396274 
L 644.462952 481.212894 
L 644.570899 481.520337 
L 645.002686 480.679192 
L 645.21858 480.679192 
L 645.434473 480.537119 
L 646.190101 480.588717 
L 646.513941 480.730361 
L 646.837781 480.157782 
L 646.945728 480.070594 
L 647.161622 480.264694 
L 647.269568 480.329727 
L 647.485462 479.821038 
L 647.917249 479.750573 
L 648.025196 480.018854 
L 648.241089 479.556474 
L 648.56493 479.556474 
L 648.672877 479.409684 
L 648.88877 479.74214 
L 648.996717 479.812605 
L 649.21261 479.512022 
L 649.320557 479.512022 
L 649.752344 479.996413 
L 649.968238 479.939098 
L 650.292078 480.32401 
L 650.400025 480.32401 
L 650.723865 479.902222 
L 650.831812 479.902222 
L 651.047706 480.390758 
L 651.263599 480.18208 
L 651.371546 480.117047 
L 651.479493 480.428063 
L 651.695386 480.148206 
L 651.91128 479.637658 
L 652.019226 479.708838 
L 652.23512 479.658669 
L 652.451014 480.145204 
L 652.666907 479.991554 
L 652.882801 479.921089 
L 653.098694 479.781589 
L 653.422535 479.818751 
L 653.854322 479.907654 
L 654.070215 479.750287 
L 654.394055 479.761865 
L 654.609949 479.883927 
L 654.717896 479.883927 
L 654.825843 479.598924 
L 654.933789 479.81918 
L 655.149683 479.617648 
L 655.25763 479.617648 
L 655.365576 479.76358 
L 655.58147 479.566336 
L 655.797364 479.707122 
L 656.013257 479.700262 
L 656.229151 479.575769 
L 656.660938 479.586489 
L 656.876831 479.808746 
L 657.092725 479.614646 
L 658.496033 479.668817 
L 658.819873 480.226674 
L 658.92782 480.073024 
L 659.143713 480.130339 
L 659.25166 480.030288 
L 659.467554 479.699547 
L 660.654968 479.706408 
L 660.762915 479.541466 
L 660.978809 479.813463 
L 661.194702 479.68897 
L 661.518542 479.68897 
L 661.842383 480.037292 
L 662.166223 480.037292 
L 662.490063 479.700262 
L 662.59801 479.700262 
L 662.813904 480.035433 
L 662.921851 480.035433 
L 663.137744 479.724417 
L 663.461584 480.313004 
L 663.677478 480.03186 
L 663.893371 480.03186 
L 664.109265 479.830328 
L 664.433105 479.619077 
L 664.648999 479.74357 
L 664.756946 479.74357 
L 664.972839 479.378811 
L 665.188733 479.285049 
L 665.94436 479.285049 
L 666.2682 479.816893 
L 666.484094 479.816893 
L 666.699988 480.127909 
L 667.131775 480.268696 
L 667.347668 480.122764 
L 668.750976 480.060446 
L 669.938391 480.120763 
L 670.046338 480.267552 
L 670.262231 480.003989 
L 670.801965 480.007419 
L 671.017858 479.804744 
L 672.31322 479.750287 
L 672.529113 479.618791 
L 672.852954 479.695116 
L 673.068847 479.878496 
L 673.284741 479.593493 
L 673.500634 479.593493 
L 673.932421 479.114676 
L 674.472155 479.135687 
L 674.688049 479.282476 
L 676.199304 479.203007 
L 676.415197 479.038065 
L 677.062878 478.930296 
L 677.278771 478.859831 
L 685.590673 478.897851 
L 685.806566 478.677595 
L 687.533715 478.677595 
L 687.749608 478.818381 
L 689.69265 478.842965 
L 689.908544 479.007907 
L 690.232384 478.957738 
L 692.607213 478.932297 
L 692.823107 478.79151 
L 799.798358 478.682597 
L 800.014252 478.610703 
L 871.690909 478.610703 
L 871.690909 478.610703 
" style="fill:none;stroke:#8dd3c7;stroke-linecap:square;stroke-width:1.5;"/>
   </g>
   <g id="line2d_15">
    <path clip-path="url(#p7357ec6e66)" d="M 161.509091 480.279273 
L 216.130158 480.187511 
L 216.453998 479.568909 
L 216.669892 479.497729 
L 664.864892 479.409684 
L 665.62052 479.285049 
L 673.716528 479.285049 
L 673.932421 479.114676 
L 676.631091 479.038065 
L 676.846984 478.930296 
L 680.517174 478.859831 
L 680.733068 478.7705 
L 799.798358 478.677595 
L 800.014252 478.610703 
L 871.690909 478.610703 
L 871.690909 478.610703 
" style="fill:none;stroke:#feffb3;stroke-linecap:square;stroke-width:1.5;"/>
   </g>
   <g id="line2d_16">
    <path clip-path="url(#p7357ec6e66)" d="M 161.509091 88.887273 
L 162.480612 88.887273 
L 162.696505 104.419457 
L 163.56008 104.419457 
L 163.775973 119.341419 
L 164.639547 119.341419 
L 164.855441 133.677133 
L 165.719015 133.677133 
L 165.934909 147.44963 
L 166.798483 147.44963 
L 167.014376 160.681038 
L 167.877951 160.681038 
L 168.093844 173.392616 
L 168.957418 173.392616 
L 169.173312 185.604786 
L 170.036886 185.604786 
L 170.25278 197.337169 
L 171.116354 197.337169 
L 171.332247 208.608615 
L 172.195821 208.608615 
L 172.411715 219.437232 
L 173.275289 219.437232 
L 173.491183 229.840419 
L 174.354757 229.840419 
L 174.57065 239.834889 
L 175.434225 239.834889 
L 175.650118 249.4367 
L 176.513692 249.4367 
L 176.729586 258.661278 
L 177.59316 258.661278 
L 177.809054 267.523445 
L 178.672628 267.523445 
L 178.888521 276.037439 
L 179.752096 276.037439 
L 179.967989 284.216937 
L 180.831563 284.216937 
L 181.047457 292.075083 
L 181.911031 292.075083 
L 182.126925 299.624501 
L 182.990499 299.624501 
L 183.206392 306.87732 
L 184.069966 306.87732 
L 184.28586 313.845193 
L 185.149434 313.845193 
L 185.365328 320.539315 
L 186.228902 320.539315 
L 186.444795 326.97044 
L 187.30837 326.97044 
L 187.524263 333.148902 
L 188.387837 333.148902 
L 188.603731 339.084627 
L 189.467305 339.084627 
L 189.683199 344.787151 
L 190.546773 344.787151 
L 190.762666 350.265637 
L 191.626241 350.265637 
L 191.842134 355.528886 
L 192.705708 355.528886 
L 192.921602 360.585355 
L 193.785176 360.585355 
L 194.00107 365.443166 
L 194.864644 365.443166 
L 195.080537 370.110126 
L 195.944111 370.110126 
L 196.160005 374.593732 
L 197.023579 374.593732 
L 197.239473 378.901188 
L 198.103047 378.901188 
L 198.31894 383.039414 
L 199.182515 383.039414 
L 199.398408 387.01506 
L 200.261982 387.01506 
L 200.477876 390.834511 
L 201.34145 390.834511 
L 201.557344 394.503905 
L 202.420918 394.503905 
L 202.636811 398.029138 
L 203.500386 398.029138 
L 203.716279 401.415872 
L 204.579853 401.415872 
L 204.795747 404.66955 
L 205.659321 404.66955 
L 205.875215 407.795398 
L 206.738789 407.795398 
L 206.954682 410.798439 
L 207.818256 410.798439 
L 208.03415 413.683498 
L 208.897724 413.683498 
L 209.113618 416.45521 
L 209.977192 416.45521 
L 210.193085 419.118028 
L 211.05666 419.118028 
L 211.272553 421.67623 
L 212.136127 421.67623 
L 212.352021 424.133926 
L 213.215595 424.133926 
L 213.431489 426.495065 
L 214.295063 426.495065 
L 214.510956 428.763441 
L 215.374531 428.763441 
L 215.590424 430.942698 
L 216.453998 430.942698 
L 216.669892 433.036336 
L 217.533466 433.036336 
L 217.74936 435.047721 
L 218.612934 435.047721 
L 218.828827 436.980083 
L 219.692401 436.980083 
L 219.908295 438.836527 
L 220.771869 438.836527 
L 220.987763 440.620036 
L 221.851337 440.620036 
L 222.06723 442.333476 
L 222.930805 442.333476 
L 223.146698 443.979598 
L 224.010272 443.979598 
L 224.226166 445.561048 
L 225.08974 445.561048 
L 225.305634 447.080366 
L 226.169208 447.080366 
L 226.385101 448.539994 
L 227.248676 448.539994 
L 227.464569 449.942277 
L 228.328143 449.942277 
L 228.544037 451.289467 
L 229.407611 451.289467 
L 229.623505 452.58373 
L 230.487079 452.58373 
L 230.702972 453.827144 
L 231.566546 453.827144 
L 231.78244 455.021707 
L 232.646014 455.021707 
L 232.861908 456.169339 
L 233.725482 456.169339 
L 233.941375 457.271883 
L 234.80495 457.271883 
L 235.020843 458.33111 
L 235.884417 458.33111 
L 236.100311 459.348723 
L 236.963885 459.348723 
L 237.179779 460.326357 
L 238.043353 460.326357 
L 238.259246 461.265581 
L 239.122821 461.265581 
L 239.338714 462.167906 
L 240.202288 462.167906 
L 240.418182 463.03478 
L 241.281756 463.03478 
L 241.49765 463.867597 
L 242.361224 463.867597 
L 242.577117 464.667695 
L 243.440691 464.667695 
L 243.656585 465.436359 
L 244.520159 465.436359 
L 244.736053 466.174823 
L 245.599627 466.174823 
L 245.81552 466.884276 
L 246.679095 466.884276 
L 246.894988 467.565855 
L 247.758562 467.565855 
L 247.974456 468.220657 
L 248.83803 468.220657 
L 249.053924 468.849733 
L 249.917498 468.849733 
L 250.133391 469.454095 
L 250.996966 469.454095 
L 251.212859 470.034712 
L 252.076433 470.034712 
L 252.292327 470.592518 
L 253.155901 470.592518 
L 253.371795 471.12841 
L 254.235369 471.12841 
L 254.451262 471.643247 
L 255.314836 471.643247 
L 255.53073 472.137858 
L 256.394304 472.137858 
L 256.610198 472.613037 
L 257.473772 472.613037 
L 257.689665 473.069547 
L 258.55324 473.069547 
L 258.769133 473.508122 
L 259.632707 473.508122 
L 259.848601 473.929466 
L 260.712175 473.929466 
L 260.928069 474.334257 
L 261.791643 474.334257 
L 262.007536 474.723144 
L 262.871111 474.723144 
L 263.087004 475.096753 
L 263.950578 475.096753 
L 264.166472 475.455684 
L 265.030046 475.455684 
L 265.24594 475.800513 
L 266.109514 475.800513 
L 266.325407 476.131795 
L 267.188981 476.131795 
L 267.404875 476.450061 
L 268.268449 476.450061 
L 268.484343 476.755824 
L 269.347917 476.755824 
L 269.56381 477.049573 
L 270.427385 477.049573 
L 270.643278 477.331782 
L 271.506852 477.331782 
L 271.722746 477.602904 
L 272.58632 477.602904 
L 272.802214 477.863374 
L 273.665788 477.863374 
L 273.881681 478.113611 
L 274.745256 478.113611 
L 274.961149 478.354016 
L 275.824723 478.354016 
L 276.040617 478.584977 
L 276.904191 478.584977 
L 277.120085 478.806864 
L 277.983659 478.806864 
L 278.199552 479.020033 
L 279.063126 479.020033 
L 279.27902 479.224827 
L 280.142594 479.224827 
L 280.358488 479.421576 
L 281.222062 479.421576 
L 281.437955 479.610595 
L 282.30153 479.610595 
L 282.517423 479.792187 
L 283.380997 479.792187 
L 283.596891 479.966646 
L 284.460465 479.966646 
L 284.676359 480.13425 
L 285.539933 480.13425 
L 285.755826 480.295269 
L 286.619401 480.295269 
L 286.835294 480.449963 
L 287.698868 480.449963 
L 287.914762 480.598578 
L 288.778336 480.598578 
L 288.99423 480.741356 
L 289.857804 480.741356 
L 290.073697 480.878523 
L 290.937271 480.878523 
L 291.153165 481.010302 
L 292.016739 481.010302 
L 292.232633 481.136903 
L 293.096207 481.136903 
L 293.3121 481.258531 
L 294.175675 481.258531 
L 294.391568 481.37538 
L 295.255142 481.37538 
L 295.471036 481.487638 
L 297.414078 481.595487 
L 297.629971 481.699097 
L 299.573013 481.798638 
L 299.788907 481.894267 
L 301.731949 481.98614 
L 301.947842 482.074403 
L 303.890884 482.159198 
L 304.106778 482.240662 
L 306.04982 482.318926 
L 306.265713 482.394115 
L 308.208755 482.466349 
L 308.424649 482.535746 
L 310.367691 482.602417 
L 310.691531 482.666468 
L 312.526626 482.728002 
L 312.850466 482.787119 
L 314.685561 482.843914 
L 315.009402 482.898477 
L 317.923965 483.001257 
L 318.247805 483.049638 
L 321.162368 483.140774 
L 321.486208 483.183674 
L 324.400771 483.264484 
L 324.832558 483.302524 
L 328.718642 483.40791 
L 329.150429 483.440315 
L 333.036513 483.53009 
L 333.576247 483.557695 
L 338.433852 483.657687 
L 339.081532 483.680279 
L 344.910658 483.780602 
L 345.666285 483.798365 
L 353.5464 483.904628 
L 354.517921 483.917518 
L 365.420545 484.021606 
L 367.039746 484.037869 
L 390.248302 484.148746 
L 394.242333 484.161186 
L 871.690909 484.232727 
L 871.690909 484.232727 
" style="fill:none;stroke:#bfbbd9;stroke-linecap:square;stroke-width:1.5;"/>
   </g>
   <g id="patch_3">
    <path d="M 126 504 
L 126 69.12 
" style="fill:none;stroke:#ffffff;stroke-linecap:square;stroke-linejoin:miter;stroke-width:0.8;"/>
   </g>
   <g id="patch_4">
    <path d="M 907.2 504 
L 907.2 69.12 
" style="fill:none;stroke:#ffffff;stroke-linecap:square;stroke-linejoin:miter;stroke-width:0.8;"/>
   </g>
   <g id="patch_5">
    <path d="M 126 504 
L 907.2 504 
" style="fill:none;stroke:#ffffff;stroke-linecap:square;stroke-linejoin:miter;stroke-width:0.8;"/>
   </g>
   <g id="patch_6">
    <path d="M 126 69.12 
L 907.2 69.12 
" style="fill:none;stroke:#ffffff;stroke-linecap:square;stroke-linejoin:miter;stroke-width:0.8;"/>
   </g>
   <g id="text_16">
    <!-- instance 10 with error 0.0 -->
    <g style="fill:#ffffff;" transform="translate(439.126875 63.12)scale(0.12 -0.12)">
     <defs>
      <path d="M 2834 3397 
L 2834 2853 
Q 2591 2978 2328 3040 
Q 2066 3103 1784 3103 
Q 1356 3103 1142 2972 
Q 928 2841 928 2578 
Q 928 2378 1081 2264 
Q 1234 2150 1697 2047 
L 1894 2003 
Q 2506 1872 2764 1633 
Q 3022 1394 3022 966 
Q 3022 478 2636 193 
Q 2250 -91 1575 -91 
Q 1294 -91 989 -36 
Q 684 19 347 128 
L 347 722 
Q 666 556 975 473 
Q 1284 391 1588 391 
Q 1994 391 2212 530 
Q 2431 669 2431 922 
Q 2431 1156 2273 1281 
Q 2116 1406 1581 1522 
L 1381 1569 
Q 847 1681 609 1914 
Q 372 2147 372 2553 
Q 372 3047 722 3315 
Q 1072 3584 1716 3584 
Q 2034 3584 2315 3537 
Q 2597 3491 2834 3397 
z
" id="DejaVuSans-73" transform="scale(0.015625)"/>
      <path d="M 3122 3366 
L 3122 2828 
Q 2878 2963 2633 3030 
Q 2388 3097 2138 3097 
Q 1578 3097 1268 2742 
Q 959 2388 959 1747 
Q 959 1106 1268 751 
Q 1578 397 2138 397 
Q 2388 397 2633 464 
Q 2878 531 3122 666 
L 3122 134 
Q 2881 22 2623 -34 
Q 2366 -91 2075 -91 
Q 1284 -91 818 406 
Q 353 903 353 1747 
Q 353 2603 823 3093 
Q 1294 3584 2113 3584 
Q 2378 3584 2631 3529 
Q 2884 3475 3122 3366 
z
" id="DejaVuSans-63" transform="scale(0.015625)"/>
      <path id="DejaVuSans-20" transform="scale(0.015625)"/>
      <path d="M 269 3500 
L 844 3500 
L 1563 769 
L 2278 3500 
L 2956 3500 
L 3675 769 
L 4391 3500 
L 4966 3500 
L 4050 0 
L 3372 0 
L 2619 2869 
L 1863 0 
L 1184 0 
L 269 3500 
z
" id="DejaVuSans-77" transform="scale(0.015625)"/>
      <path d="M 3513 2113 
L 3513 0 
L 2938 0 
L 2938 2094 
Q 2938 2591 2744 2837 
Q 2550 3084 2163 3084 
Q 1697 3084 1428 2787 
Q 1159 2491 1159 1978 
L 1159 0 
L 581 0 
L 581 4863 
L 1159 4863 
L 1159 2956 
Q 1366 3272 1645 3428 
Q 1925 3584 2291 3584 
Q 2894 3584 3203 3211 
Q 3513 2838 3513 2113 
z
" id="DejaVuSans-68" transform="scale(0.015625)"/>
     </defs>
     <use xlink:href="#DejaVuSans-69"/>
     <use x="27.783203" xlink:href="#DejaVuSans-6e"/>
     <use x="91.162109" xlink:href="#DejaVuSans-73"/>
     <use x="143.261719" xlink:href="#DejaVuSans-74"/>
     <use x="182.470703" xlink:href="#DejaVuSans-61"/>
     <use x="243.75" xlink:href="#DejaVuSans-6e"/>
     <use x="307.128906" xlink:href="#DejaVuSans-63"/>
     <use x="362.109375" xlink:href="#DejaVuSans-65"/>
     <use x="423.632812" xlink:href="#DejaVuSans-20"/>
     <use x="455.419922" xlink:href="#DejaVuSans-31"/>
     <use x="519.042969" xlink:href="#DejaVuSans-30"/>
     <use x="582.666016" xlink:href="#DejaVuSans-20"/>
     <use x="614.453125" xlink:href="#DejaVuSans-77"/>
     <use x="696.240234" xlink:href="#DejaVuSans-69"/>
     <use x="724.023438" xlink:href="#DejaVuSans-74"/>
     <use x="763.232422" xlink:href="#DejaVuSans-68"/>
     <use x="826.611328" xlink:href="#DejaVuSans-20"/>
     <use x="858.398438" xlink:href="#DejaVuSans-65"/>
     <use x="919.921875" xlink:href="#DejaVuSans-72"/>
     <use x="959.285156" xlink:href="#DejaVuSans-72"/>
     <use x="998.148438" xlink:href="#DejaVuSans-6f"/>
     <use x="1059.330078" xlink:href="#DejaVuSans-72"/>
     <use x="1100.443359" xlink:href="#DejaVuSans-20"/>
     <use x="1132.230469" xlink:href="#DejaVuSans-30"/>
     <use x="1195.853516" xlink:href="#DejaVuSans-2e"/>
     <use x="1227.640625" xlink:href="#DejaVuSans-30"/>
    </g>
   </g>
   <g id="legend_1">
    <g id="patch_7">
     <path d="M 805.348438 499 
L 900.2 499 
Q 902.2 499 902.2 497 
L 902.2 453.965625 
Q 902.2 451.965625 900.2 451.965625 
L 805.348438 451.965625 
Q 803.348438 451.965625 803.348438 453.965625 
L 803.348438 497 
Q 803.348438 499 805.348438 499 
z
" style="opacity:0.8;stroke:#cccccc;stroke-linejoin:miter;"/>
    </g>
    <g id="line2d_17">
     <path d="M 807.348438 460.064062 
L 827.348438 460.064062 
" style="fill:none;stroke:#8dd3c7;stroke-linecap:square;stroke-width:1.5;"/>
    </g>
    <g id="line2d_18"/>
    <g id="text_17">
     <!-- cost -->
     <g style="fill:#ffffff;" transform="translate(835.348438 463.564062)scale(0.1 -0.1)">
      <use xlink:href="#DejaVuSans-63"/>
      <use x="54.980469" xlink:href="#DejaVuSans-6f"/>
      <use x="116.162109" xlink:href="#DejaVuSans-73"/>
      <use x="168.261719" xlink:href="#DejaVuSans-74"/>
     </g>
    </g>
    <g id="line2d_19">
     <path d="M 807.348438 474.742188 
L 827.348438 474.742188 
" style="fill:none;stroke:#feffb3;stroke-linecap:square;stroke-width:1.5;"/>
    </g>
    <g id="line2d_20"/>
    <g id="text_18">
     <!-- best cost -->
     <g style="fill:#ffffff;" transform="translate(835.348438 478.242188)scale(0.1 -0.1)">
      <defs>
       <path d="M 3116 1747 
Q 3116 2381 2855 2742 
Q 2594 3103 2138 3103 
Q 1681 3103 1420 2742 
Q 1159 2381 1159 1747 
Q 1159 1113 1420 752 
Q 1681 391 2138 391 
Q 2594 391 2855 752 
Q 3116 1113 3116 1747 
z
M 1159 2969 
Q 1341 3281 1617 3432 
Q 1894 3584 2278 3584 
Q 2916 3584 3314 3078 
Q 3713 2572 3713 1747 
Q 3713 922 3314 415 
Q 2916 -91 2278 -91 
Q 1894 -91 1617 61 
Q 1341 213 1159 525 
L 1159 0 
L 581 0 
L 581 4863 
L 1159 4863 
L 1159 2969 
z
" id="DejaVuSans-62" transform="scale(0.015625)"/>
      </defs>
      <use xlink:href="#DejaVuSans-62"/>
      <use x="63.476562" xlink:href="#DejaVuSans-65"/>
      <use x="125" xlink:href="#DejaVuSans-73"/>
      <use x="177.099609" xlink:href="#DejaVuSans-74"/>
      <use x="216.308594" xlink:href="#DejaVuSans-20"/>
      <use x="248.095703" xlink:href="#DejaVuSans-63"/>
      <use x="303.076172" xlink:href="#DejaVuSans-6f"/>
      <use x="364.257812" xlink:href="#DejaVuSans-73"/>
      <use x="416.357422" xlink:href="#DejaVuSans-74"/>
     </g>
    </g>
    <g id="line2d_21">
     <path d="M 807.348438 489.420313 
L 827.348438 489.420313 
" style="fill:none;stroke:#bfbbd9;stroke-linecap:square;stroke-width:1.5;"/>
    </g>
    <g id="line2d_22"/>
    <g id="text_19">
     <!-- temperature -->
     <g style="fill:#ffffff;" transform="translate(835.348438 492.920313)scale(0.1 -0.1)">
      <defs>
       <path d="M 3328 2828 
Q 3544 3216 3844 3400 
Q 4144 3584 4550 3584 
Q 5097 3584 5394 3201 
Q 5691 2819 5691 2113 
L 5691 0 
L 5113 0 
L 5113 2094 
Q 5113 2597 4934 2840 
Q 4756 3084 4391 3084 
Q 3944 3084 3684 2787 
Q 3425 2491 3425 1978 
L 3425 0 
L 2847 0 
L 2847 2094 
Q 2847 2600 2669 2842 
Q 2491 3084 2119 3084 
Q 1678 3084 1418 2786 
Q 1159 2488 1159 1978 
L 1159 0 
L 581 0 
L 581 3500 
L 1159 3500 
L 1159 2956 
Q 1356 3278 1631 3431 
Q 1906 3584 2284 3584 
Q 2666 3584 2933 3390 
Q 3200 3197 3328 2828 
z
" id="DejaVuSans-6d" transform="scale(0.015625)"/>
       <path d="M 1159 525 
L 1159 -1331 
L 581 -1331 
L 581 3500 
L 1159 3500 
L 1159 2969 
Q 1341 3281 1617 3432 
Q 1894 3584 2278 3584 
Q 2916 3584 3314 3078 
Q 3713 2572 3713 1747 
Q 3713 922 3314 415 
Q 2916 -91 2278 -91 
Q 1894 -91 1617 61 
Q 1341 213 1159 525 
z
M 3116 1747 
Q 3116 2381 2855 2742 
Q 2594 3103 2138 3103 
Q 1681 3103 1420 2742 
Q 1159 2381 1159 1747 
Q 1159 1113 1420 752 
Q 1681 391 2138 391 
Q 2594 391 2855 752 
Q 3116 1113 3116 1747 
z
" id="DejaVuSans-70" transform="scale(0.015625)"/>
       <path d="M 544 1381 
L 544 3500 
L 1119 3500 
L 1119 1403 
Q 1119 906 1312 657 
Q 1506 409 1894 409 
Q 2359 409 2629 706 
Q 2900 1003 2900 1516 
L 2900 3500 
L 3475 3500 
L 3475 0 
L 2900 0 
L 2900 538 
Q 2691 219 2414 64 
Q 2138 -91 1772 -91 
Q 1169 -91 856 284 
Q 544 659 544 1381 
z
M 1991 3584 
L 1991 3584 
z
" id="DejaVuSans-75" transform="scale(0.015625)"/>
      </defs>
      <use xlink:href="#DejaVuSans-74"/>
      <use x="39.208984" xlink:href="#DejaVuSans-65"/>
      <use x="100.732422" xlink:href="#DejaVuSans-6d"/>
      <use x="198.144531" xlink:href="#DejaVuSans-70"/>
      <use x="261.621094" xlink:href="#DejaVuSans-65"/>
      <use x="323.144531" xlink:href="#DejaVuSans-72"/>
      <use x="364.257812" xlink:href="#DejaVuSans-61"/>
      <use x="425.537109" xlink:href="#DejaVuSans-74"/>
      <use x="464.746094" xlink:href="#DejaVuSans-75"/>
      <use x="528.125" xlink:href="#DejaVuSans-72"/>
      <use x="566.988281" xlink:href="#DejaVuSans-65"/>
     </g>
    </g>
   </g>
  </g>
 </g>
 <defs>
  <clipPath id="p7357ec6e66">
   <rect height="434.88" width="781.2" x="126" y="69.12"/>
  </clipPath>
 </defs>
</svg>
