<?xml version="1.0" encoding="utf-8" standalone="no"?>
<!DOCTYPE svg PUBLIC "-//W3C//DTD SVG 1.1//EN"
  "http://www.w3.org/Graphics/SVG/1.1/DTD/svg11.dtd">
<svg height="576pt" version="1.1" viewBox="0 0 1008 576" width="1008pt" xmlns="http://www.w3.org/2000/svg" xmlns:xlink="http://www.w3.org/1999/xlink">
 <metadata>
  <rdf:RDF xmlns:cc="http://creativecommons.org/ns#" xmlns:dc="http://purl.org/dc/elements/1.1/" xmlns:rdf="http://www.w3.org/1999/02/22-rdf-syntax-ns#">
   <cc:Work>
    <dc:type rdf:resource="http://purl.org/dc/dcmitype/StillImage"/>
    <dc:date>2022-01-07T21:26:22.762216</dc:date>
    <dc:format>image/svg+xml</dc:format>
    <dc:creator>
     <cc:Agent>
      <dc:title>Matplotlib v3.4.3, https://matplotlib.org/</dc:title>
     </cc:Agent>
    </dc:creator>
   </cc:Work>
  </rdf:RDF>
 </metadata>
 <defs>
  <style type="text/css">*{stroke-linecap:butt;stroke-linejoin:round;}</style>
 </defs>
 <g id="figure_1">
  <g id="patch_1">
   <path d="M 0 576 
L 1008 576 
L 1008 0 
L 0 0 
z
"/>
  </g>
  <g id="axes_1">
   <g id="patch_2">
    <path d="M 126 504 
L 907.2 504 
L 907.2 69.12 
L 126 69.12 
z
"/>
   </g>
   <g id="matplotlib.axis_1">
    <g id="xtick_1">
     <g id="line2d_1">
      <defs>
       <path d="M 0 0 
L 0 3.5 
" id="md678a9290a" style="stroke:#ffffff;stroke-width:0.8;"/>
      </defs>
      <g>
       <use style="fill:#ffffff;stroke:#ffffff;stroke-width:0.8;" x="161.509091" xlink:href="#md678a9290a" y="504"/>
      </g>
     </g>
     <g id="text_1">
      <!-- 0 -->
      <g style="fill:#ffffff;" transform="translate(158.327841 518.598438)scale(0.1 -0.1)">
       <defs>
        <path d="M 2034 4250 
Q 1547 4250 1301 3770 
Q 1056 3291 1056 2328 
Q 1056 1369 1301 889 
Q 1547 409 2034 409 
Q 2525 409 2770 889 
Q 3016 1369 3016 2328 
Q 3016 3291 2770 3770 
Q 2525 4250 2034 4250 
z
M 2034 4750 
Q 2819 4750 3233 4129 
Q 3647 3509 3647 2328 
Q 3647 1150 3233 529 
Q 2819 -91 2034 -91 
Q 1250 -91 836 529 
Q 422 1150 422 2328 
Q 422 3509 836 4129 
Q 1250 4750 2034 4750 
z
" id="DejaVuSans-30" transform="scale(0.015625)"/>
       </defs>
       <use xlink:href="#DejaVuSans-30"/>
      </g>
     </g>
    </g>
    <g id="xtick_2">
     <g id="line2d_2">
      <g>
       <use style="fill:#ffffff;stroke:#ffffff;stroke-width:0.8;" x="328.453571" xlink:href="#md678a9290a" y="504"/>
      </g>
     </g>
     <g id="text_2">
      <!-- 500 -->
      <g style="fill:#ffffff;" transform="translate(318.909821 518.598438)scale(0.1 -0.1)">
       <defs>
        <path d="M 691 4666 
L 3169 4666 
L 3169 4134 
L 1269 4134 
L 1269 2991 
Q 1406 3038 1543 3061 
Q 1681 3084 1819 3084 
Q 2600 3084 3056 2656 
Q 3513 2228 3513 1497 
Q 3513 744 3044 326 
Q 2575 -91 1722 -91 
Q 1428 -91 1123 -41 
Q 819 9 494 109 
L 494 744 
Q 775 591 1075 516 
Q 1375 441 1709 441 
Q 2250 441 2565 725 
Q 2881 1009 2881 1497 
Q 2881 1984 2565 2268 
Q 2250 2553 1709 2553 
Q 1456 2553 1204 2497 
Q 953 2441 691 2322 
L 691 4666 
z
" id="DejaVuSans-35" transform="scale(0.015625)"/>
       </defs>
       <use xlink:href="#DejaVuSans-35"/>
       <use x="63.623047" xlink:href="#DejaVuSans-30"/>
       <use x="127.246094" xlink:href="#DejaVuSans-30"/>
      </g>
     </g>
    </g>
    <g id="xtick_3">
     <g id="line2d_3">
      <g>
       <use style="fill:#ffffff;stroke:#ffffff;stroke-width:0.8;" x="495.398051" xlink:href="#md678a9290a" y="504"/>
      </g>
     </g>
     <g id="text_3">
      <!-- 1000 -->
      <g style="fill:#ffffff;" transform="translate(482.673051 518.598438)scale(0.1 -0.1)">
       <defs>
        <path d="M 794 531 
L 1825 531 
L 1825 4091 
L 703 3866 
L 703 4441 
L 1819 4666 
L 2450 4666 
L 2450 531 
L 3481 531 
L 3481 0 
L 794 0 
L 794 531 
z
" id="DejaVuSans-31" transform="scale(0.015625)"/>
       </defs>
       <use xlink:href="#DejaVuSans-31"/>
       <use x="63.623047" xlink:href="#DejaVuSans-30"/>
       <use x="127.246094" xlink:href="#DejaVuSans-30"/>
       <use x="190.869141" xlink:href="#DejaVuSans-30"/>
      </g>
     </g>
    </g>
    <g id="xtick_4">
     <g id="line2d_4">
      <g>
       <use style="fill:#ffffff;stroke:#ffffff;stroke-width:0.8;" x="662.342531" xlink:href="#md678a9290a" y="504"/>
      </g>
     </g>
     <g id="text_4">
      <!-- 1500 -->
      <g style="fill:#ffffff;" transform="translate(649.617531 518.598438)scale(0.1 -0.1)">
       <use xlink:href="#DejaVuSans-31"/>
       <use x="63.623047" xlink:href="#DejaVuSans-35"/>
       <use x="127.246094" xlink:href="#DejaVuSans-30"/>
       <use x="190.869141" xlink:href="#DejaVuSans-30"/>
      </g>
     </g>
    </g>
    <g id="xtick_5">
     <g id="line2d_5">
      <g>
       <use style="fill:#ffffff;stroke:#ffffff;stroke-width:0.8;" x="829.287011" xlink:href="#md678a9290a" y="504"/>
      </g>
     </g>
     <g id="text_5">
      <!-- 2000 -->
      <g style="fill:#ffffff;" transform="translate(816.562011 518.598438)scale(0.1 -0.1)">
       <defs>
        <path d="M 1228 531 
L 3431 531 
L 3431 0 
L 469 0 
L 469 531 
Q 828 903 1448 1529 
Q 2069 2156 2228 2338 
Q 2531 2678 2651 2914 
Q 2772 3150 2772 3378 
Q 2772 3750 2511 3984 
Q 2250 4219 1831 4219 
Q 1534 4219 1204 4116 
Q 875 4013 500 3803 
L 500 4441 
Q 881 4594 1212 4672 
Q 1544 4750 1819 4750 
Q 2544 4750 2975 4387 
Q 3406 4025 3406 3419 
Q 3406 3131 3298 2873 
Q 3191 2616 2906 2266 
Q 2828 2175 2409 1742 
Q 1991 1309 1228 531 
z
" id="DejaVuSans-32" transform="scale(0.015625)"/>
       </defs>
       <use xlink:href="#DejaVuSans-32"/>
       <use x="63.623047" xlink:href="#DejaVuSans-30"/>
       <use x="127.246094" xlink:href="#DejaVuSans-30"/>
       <use x="190.869141" xlink:href="#DejaVuSans-30"/>
      </g>
     </g>
    </g>
    <g id="text_6">
     <!-- iteration -->
     <g style="fill:#ffffff;" transform="translate(495.477344 532.276562)scale(0.1 -0.1)">
      <defs>
       <path d="M 603 3500 
L 1178 3500 
L 1178 0 
L 603 0 
L 603 3500 
z
M 603 4863 
L 1178 4863 
L 1178 4134 
L 603 4134 
L 603 4863 
z
" id="DejaVuSans-69" transform="scale(0.015625)"/>
       <path d="M 1172 4494 
L 1172 3500 
L 2356 3500 
L 2356 3053 
L 1172 3053 
L 1172 1153 
Q 1172 725 1289 603 
Q 1406 481 1766 481 
L 2356 481 
L 2356 0 
L 1766 0 
Q 1100 0 847 248 
Q 594 497 594 1153 
L 594 3053 
L 172 3053 
L 172 3500 
L 594 3500 
L 594 4494 
L 1172 4494 
z
" id="DejaVuSans-74" transform="scale(0.015625)"/>
       <path d="M 3597 1894 
L 3597 1613 
L 953 1613 
Q 991 1019 1311 708 
Q 1631 397 2203 397 
Q 2534 397 2845 478 
Q 3156 559 3463 722 
L 3463 178 
Q 3153 47 2828 -22 
Q 2503 -91 2169 -91 
Q 1331 -91 842 396 
Q 353 884 353 1716 
Q 353 2575 817 3079 
Q 1281 3584 2069 3584 
Q 2775 3584 3186 3129 
Q 3597 2675 3597 1894 
z
M 3022 2063 
Q 3016 2534 2758 2815 
Q 2500 3097 2075 3097 
Q 1594 3097 1305 2825 
Q 1016 2553 972 2059 
L 3022 2063 
z
" id="DejaVuSans-65" transform="scale(0.015625)"/>
       <path d="M 2631 2963 
Q 2534 3019 2420 3045 
Q 2306 3072 2169 3072 
Q 1681 3072 1420 2755 
Q 1159 2438 1159 1844 
L 1159 0 
L 581 0 
L 581 3500 
L 1159 3500 
L 1159 2956 
Q 1341 3275 1631 3429 
Q 1922 3584 2338 3584 
Q 2397 3584 2469 3576 
Q 2541 3569 2628 3553 
L 2631 2963 
z
" id="DejaVuSans-72" transform="scale(0.015625)"/>
       <path d="M 2194 1759 
Q 1497 1759 1228 1600 
Q 959 1441 959 1056 
Q 959 750 1161 570 
Q 1363 391 1709 391 
Q 2188 391 2477 730 
Q 2766 1069 2766 1631 
L 2766 1759 
L 2194 1759 
z
M 3341 1997 
L 3341 0 
L 2766 0 
L 2766 531 
Q 2569 213 2275 61 
Q 1981 -91 1556 -91 
Q 1019 -91 701 211 
Q 384 513 384 1019 
Q 384 1609 779 1909 
Q 1175 2209 1959 2209 
L 2766 2209 
L 2766 2266 
Q 2766 2663 2505 2880 
Q 2244 3097 1772 3097 
Q 1472 3097 1187 3025 
Q 903 2953 641 2809 
L 641 3341 
Q 956 3463 1253 3523 
Q 1550 3584 1831 3584 
Q 2591 3584 2966 3190 
Q 3341 2797 3341 1997 
z
" id="DejaVuSans-61" transform="scale(0.015625)"/>
       <path d="M 1959 3097 
Q 1497 3097 1228 2736 
Q 959 2375 959 1747 
Q 959 1119 1226 758 
Q 1494 397 1959 397 
Q 2419 397 2687 759 
Q 2956 1122 2956 1747 
Q 2956 2369 2687 2733 
Q 2419 3097 1959 3097 
z
M 1959 3584 
Q 2709 3584 3137 3096 
Q 3566 2609 3566 1747 
Q 3566 888 3137 398 
Q 2709 -91 1959 -91 
Q 1206 -91 779 398 
Q 353 888 353 1747 
Q 353 2609 779 3096 
Q 1206 3584 1959 3584 
z
" id="DejaVuSans-6f" transform="scale(0.015625)"/>
       <path d="M 3513 2113 
L 3513 0 
L 2938 0 
L 2938 2094 
Q 2938 2591 2744 2837 
Q 2550 3084 2163 3084 
Q 1697 3084 1428 2787 
Q 1159 2491 1159 1978 
L 1159 0 
L 581 0 
L 581 3500 
L 1159 3500 
L 1159 2956 
Q 1366 3272 1645 3428 
Q 1925 3584 2291 3584 
Q 2894 3584 3203 3211 
Q 3513 2838 3513 2113 
z
" id="DejaVuSans-6e" transform="scale(0.015625)"/>
      </defs>
      <use xlink:href="#DejaVuSans-69"/>
      <use x="27.783203" xlink:href="#DejaVuSans-74"/>
      <use x="66.992188" xlink:href="#DejaVuSans-65"/>
      <use x="128.515625" xlink:href="#DejaVuSans-72"/>
      <use x="169.628906" xlink:href="#DejaVuSans-61"/>
      <use x="230.908203" xlink:href="#DejaVuSans-74"/>
      <use x="270.117188" xlink:href="#DejaVuSans-69"/>
      <use x="297.900391" xlink:href="#DejaVuSans-6f"/>
      <use x="359.082031" xlink:href="#DejaVuSans-6e"/>
     </g>
    </g>
   </g>
   <g id="matplotlib.axis_2">
    <g id="ytick_1">
     <g id="line2d_6">
      <defs>
       <path d="M 0 0 
L -3.5 0 
" id="m379101bbf2" style="stroke:#ffffff;stroke-width:0.8;"/>
      </defs>
      <g>
       <use style="fill:#ffffff;stroke:#ffffff;stroke-width:0.8;" x="126" xlink:href="#m379101bbf2" y="484.232727"/>
      </g>
     </g>
     <g id="text_7">
      <!-- 0 -->
      <g style="fill:#ffffff;" transform="translate(112.6375 488.031946)scale(0.1 -0.1)">
       <use xlink:href="#DejaVuSans-30"/>
      </g>
     </g>
    </g>
    <g id="ytick_2">
     <g id="line2d_7">
      <g>
       <use style="fill:#ffffff;stroke:#ffffff;stroke-width:0.8;" x="126" xlink:href="#m379101bbf2" y="434.130652"/>
      </g>
     </g>
     <g id="text_8">
      <!-- 5000 -->
      <g style="fill:#ffffff;" transform="translate(93.55 437.929871)scale(0.1 -0.1)">
       <use xlink:href="#DejaVuSans-35"/>
       <use x="63.623047" xlink:href="#DejaVuSans-30"/>
       <use x="127.246094" xlink:href="#DejaVuSans-30"/>
       <use x="190.869141" xlink:href="#DejaVuSans-30"/>
      </g>
     </g>
    </g>
    <g id="ytick_3">
     <g id="line2d_8">
      <g>
       <use style="fill:#ffffff;stroke:#ffffff;stroke-width:0.8;" x="126" xlink:href="#m379101bbf2" y="384.028577"/>
      </g>
     </g>
     <g id="text_9">
      <!-- 10000 -->
      <g style="fill:#ffffff;" transform="translate(87.1875 387.827796)scale(0.1 -0.1)">
       <use xlink:href="#DejaVuSans-31"/>
       <use x="63.623047" xlink:href="#DejaVuSans-30"/>
       <use x="127.246094" xlink:href="#DejaVuSans-30"/>
       <use x="190.869141" xlink:href="#DejaVuSans-30"/>
       <use x="254.492188" xlink:href="#DejaVuSans-30"/>
      </g>
     </g>
    </g>
    <g id="ytick_4">
     <g id="line2d_9">
      <g>
       <use style="fill:#ffffff;stroke:#ffffff;stroke-width:0.8;" x="126" xlink:href="#m379101bbf2" y="333.926502"/>
      </g>
     </g>
     <g id="text_10">
      <!-- 15000 -->
      <g style="fill:#ffffff;" transform="translate(87.1875 337.725721)scale(0.1 -0.1)">
       <use xlink:href="#DejaVuSans-31"/>
       <use x="63.623047" xlink:href="#DejaVuSans-35"/>
       <use x="127.246094" xlink:href="#DejaVuSans-30"/>
       <use x="190.869141" xlink:href="#DejaVuSans-30"/>
       <use x="254.492188" xlink:href="#DejaVuSans-30"/>
      </g>
     </g>
    </g>
    <g id="ytick_5">
     <g id="line2d_10">
      <g>
       <use style="fill:#ffffff;stroke:#ffffff;stroke-width:0.8;" x="126" xlink:href="#m379101bbf2" y="283.824427"/>
      </g>
     </g>
     <g id="text_11">
      <!-- 20000 -->
      <g style="fill:#ffffff;" transform="translate(87.1875 287.623645)scale(0.1 -0.1)">
       <use xlink:href="#DejaVuSans-32"/>
       <use x="63.623047" xlink:href="#DejaVuSans-30"/>
       <use x="127.246094" xlink:href="#DejaVuSans-30"/>
       <use x="190.869141" xlink:href="#DejaVuSans-30"/>
       <use x="254.492188" xlink:href="#DejaVuSans-30"/>
      </g>
     </g>
    </g>
    <g id="ytick_6">
     <g id="line2d_11">
      <g>
       <use style="fill:#ffffff;stroke:#ffffff;stroke-width:0.8;" x="126" xlink:href="#m379101bbf2" y="233.722352"/>
      </g>
     </g>
     <g id="text_12">
      <!-- 25000 -->
      <g style="fill:#ffffff;" transform="translate(87.1875 237.52157)scale(0.1 -0.1)">
       <use xlink:href="#DejaVuSans-32"/>
       <use x="63.623047" xlink:href="#DejaVuSans-35"/>
       <use x="127.246094" xlink:href="#DejaVuSans-30"/>
       <use x="190.869141" xlink:href="#DejaVuSans-30"/>
       <use x="254.492188" xlink:href="#DejaVuSans-30"/>
      </g>
     </g>
    </g>
    <g id="ytick_7">
     <g id="line2d_12">
      <g>
       <use style="fill:#ffffff;stroke:#ffffff;stroke-width:0.8;" x="126" xlink:href="#m379101bbf2" y="183.620276"/>
      </g>
     </g>
     <g id="text_13">
      <!-- 30000 -->
      <g style="fill:#ffffff;" transform="translate(87.1875 187.419495)scale(0.1 -0.1)">
       <defs>
        <path d="M 2597 2516 
Q 3050 2419 3304 2112 
Q 3559 1806 3559 1356 
Q 3559 666 3084 287 
Q 2609 -91 1734 -91 
Q 1441 -91 1130 -33 
Q 819 25 488 141 
L 488 750 
Q 750 597 1062 519 
Q 1375 441 1716 441 
Q 2309 441 2620 675 
Q 2931 909 2931 1356 
Q 2931 1769 2642 2001 
Q 2353 2234 1838 2234 
L 1294 2234 
L 1294 2753 
L 1863 2753 
Q 2328 2753 2575 2939 
Q 2822 3125 2822 3475 
Q 2822 3834 2567 4026 
Q 2313 4219 1838 4219 
Q 1578 4219 1281 4162 
Q 984 4106 628 3988 
L 628 4550 
Q 988 4650 1302 4700 
Q 1616 4750 1894 4750 
Q 2613 4750 3031 4423 
Q 3450 4097 3450 3541 
Q 3450 3153 3228 2886 
Q 3006 2619 2597 2516 
z
" id="DejaVuSans-33" transform="scale(0.015625)"/>
       </defs>
       <use xlink:href="#DejaVuSans-33"/>
       <use x="63.623047" xlink:href="#DejaVuSans-30"/>
       <use x="127.246094" xlink:href="#DejaVuSans-30"/>
       <use x="190.869141" xlink:href="#DejaVuSans-30"/>
       <use x="254.492188" xlink:href="#DejaVuSans-30"/>
      </g>
     </g>
    </g>
    <g id="ytick_8">
     <g id="line2d_13">
      <g>
       <use style="fill:#ffffff;stroke:#ffffff;stroke-width:0.8;" x="126" xlink:href="#m379101bbf2" y="133.518201"/>
      </g>
     </g>
     <g id="text_14">
      <!-- 35000 -->
      <g style="fill:#ffffff;" transform="translate(87.1875 137.31742)scale(0.1 -0.1)">
       <use xlink:href="#DejaVuSans-33"/>
       <use x="63.623047" xlink:href="#DejaVuSans-35"/>
       <use x="127.246094" xlink:href="#DejaVuSans-30"/>
       <use x="190.869141" xlink:href="#DejaVuSans-30"/>
       <use x="254.492188" xlink:href="#DejaVuSans-30"/>
      </g>
     </g>
    </g>
    <g id="ytick_9">
     <g id="line2d_14">
      <g>
       <use style="fill:#ffffff;stroke:#ffffff;stroke-width:0.8;" x="126" xlink:href="#m379101bbf2" y="83.416126"/>
      </g>
     </g>
     <g id="text_15">
      <!-- 40000 -->
      <g style="fill:#ffffff;" transform="translate(87.1875 87.215345)scale(0.1 -0.1)">
       <defs>
        <path d="M 2419 4116 
L 825 1625 
L 2419 1625 
L 2419 4116 
z
M 2253 4666 
L 3047 4666 
L 3047 1625 
L 3713 1625 
L 3713 1100 
L 3047 1100 
L 3047 0 
L 2419 0 
L 2419 1100 
L 313 1100 
L 313 1709 
L 2253 4666 
z
" id="DejaVuSans-34" transform="scale(0.015625)"/>
       </defs>
       <use xlink:href="#DejaVuSans-34"/>
       <use x="63.623047" xlink:href="#DejaVuSans-30"/>
       <use x="127.246094" xlink:href="#DejaVuSans-30"/>
       <use x="190.869141" xlink:href="#DejaVuSans-30"/>
       <use x="254.492188" xlink:href="#DejaVuSans-30"/>
      </g>
     </g>
    </g>
   </g>
   <g id="line2d_15">
    <path clip-path="url(#pc4a17d2ce2)" d="M 161.509091 211.386846 
L 161.84298 224.493549 
L 162.176869 227.269204 
L 162.510758 217.669647 
L 162.844647 234.513964 
L 163.178536 242.881011 
L 163.512425 224.443447 
L 163.846314 234.043005 
L 164.180203 247.320055 
L 164.514092 277.882321 
L 164.847981 287.481878 
L 165.181869 263.523066 
L 165.515758 262.120208 
L 165.849647 250.787118 
L 166.183536 267.631436 
L 166.851314 274.284992 
L 167.185203 272.331011 
L 167.519092 277.882321 
L 167.852981 269.254743 
L 168.18687 292.151392 
L 168.520759 293.55425 
L 168.854648 279.836302 
L 169.188537 278.433443 
L 169.522426 274.685808 
L 169.856315 300.237867 
L 170.524093 327.232865 
L 170.857982 306.230075 
L 171.191871 322.613453 
L 171.52576 326.120599 
L 171.859649 322.613453 
L 172.193538 301.680806 
L 172.527427 290.347717 
L 172.861316 292.301698 
L 173.195205 303.634787 
L 173.529093 286.79047 
L 173.862982 307.79326 
L 174.196871 298.193702 
L 174.53076 311.210221 
L 174.864649 294.556291 
L 175.198538 291.359779 
L 175.532427 292.762637 
L 175.866316 232.439738 
L 176.200205 246.157687 
L 176.534094 255.035774 
L 177.201872 224.663896 
L 177.535761 200.484635 
L 177.86965 223.431385 
L 178.203539 226.888429 
L 178.871317 256.338428 
L 179.205206 280.51769 
L 179.539095 259.585043 
L 179.872984 261.539024 
L 180.206873 253.171977 
L 180.540762 236.788599 
L 180.874651 257.721246 
L 181.20854 255.767265 
L 181.542429 252.99161 
L 181.876317 266.26866 
L 182.210206 244.644604 
L 182.544095 247.179769 
L 182.877984 229.563879 
L 183.211873 231.51786 
L 183.545762 249.955424 
L 183.879651 233.111106 
L 184.21354 246.829054 
L 184.547429 225.896407 
L 184.881318 222.389262 
L 185.882985 278.633852 
L 186.216874 276.679871 
L 186.550763 266.02817 
L 186.884652 263.092188 
L 187.218541 253.49263 
L 187.55243 230.54588 
L 187.886319 252.169936 
L 188.220208 255.677081 
L 188.887986 293.664474 
L 189.221875 297.392069 
L 189.555764 284.325448 
L 189.889653 307.08181 
L 190.223541 298.203722 
L 190.55743 274.24491 
L 190.891319 270.787867 
L 191.225208 281.219119 
L 191.559097 281.619935 
L 191.892986 318.986063 
L 192.226875 296.039313 
L 192.560764 291.690453 
L 192.894653 301.29001 
L 193.228542 322.2928 
L 193.562431 318.785655 
L 193.89632 294.826842 
L 194.230209 318.785655 
L 194.564098 320.739636 
L 194.897987 297.983273 
L 195.231876 311.049894 
L 195.565765 333.996645 
L 195.899654 339.547955 
L 196.233543 317.923899 
L 196.901321 324.577455 
L 197.23521 307.923525 
L 197.569099 302.372215 
L 197.902988 305.87936 
L 198.236877 328.635723 
L 198.570765 331.170888 
L 198.904654 329.216907 
L 199.238543 305.258095 
L 199.572432 301.5305 
L 199.906321 317.913879 
L 200.24021 341.872691 
L 200.574099 328.80607 
L 200.907988 337.173116 
L 201.241877 313.214304 
L 201.575766 310.278322 
L 201.909655 319.15641 
L 202.243544 301.540521 
L 202.577433 298.344008 
L 202.911322 284.62606 
L 203.245211 266.188496 
L 203.5791 283.804386 
L 203.912989 287.000898 
L 204.246878 310.959711 
L 204.914656 274.876196 
L 205.248545 288.594144 
L 205.916323 257.891593 
L 206.584101 300.538479 
L 206.917989 297.081436 
L 207.251878 310.799384 
L 207.585767 314.526978 
L 207.919656 331.180908 
L 208.253545 333.956563 
L 208.587434 324.357006 
L 208.921323 307.703076 
L 209.589101 290.708452 
L 209.92299 276.990504 
L 210.256879 254.043753 
L 210.590768 259.595063 
L 210.924657 261.549044 
L 211.258546 265.006087 
L 211.592435 241.047275 
L 211.926324 284.1551 
L 212.260213 300.999418 
L 212.594102 304.727013 
L 212.927991 300.999418 
L 213.26188 284.345488 
L 213.595769 279.435485 
L 213.929658 272.872113 
L 214.263547 255.88751 
L 214.597436 278.643872 
L 214.931325 281.840385 
L 215.265213 302.843174 
L 215.932991 272.210766 
L 216.26688 289.195369 
L 216.600769 266.298721 
L 216.934658 257.671144 
L 217.268547 261.398738 
L 217.936325 221.798058 
L 218.270214 203.360494 
L 218.604103 220.204812 
L 219.271881 267.330824 
L 219.60577 283.984753 
L 219.939659 306.881402 
L 220.607437 265.937986 
L 221.275215 282.93261 
L 221.609104 288.48392 
L 221.942993 285.547938 
L 222.94466 294.76672 
L 223.278549 277.922402 
L 223.612437 254.975652 
L 223.946326 246.608605 
L 224.614104 240.896969 
L 224.947993 263.843719 
L 225.281882 276.860238 
L 225.615771 271.308928 
L 225.94966 274.24491 
L 226.283549 257.861531 
L 226.617438 249.233954 
L 226.951327 227.609898 
L 227.285216 224.102753 
L 227.952994 269.685621 
L 228.286883 278.313198 
L 228.620772 281.820344 
L 228.954661 257.641082 
L 229.28855 278.573729 
L 229.622439 280.52771 
L 230.624106 333.816277 
L 230.957995 312.813487 
L 231.291884 309.306342 
L 231.625773 300.678765 
L 232.627439 326.551476 
L 232.961328 329.327131 
L 233.295217 316.310612 
L 233.629106 297.842987 
L 233.962995 314.827591 
L 234.296884 312.87361 
L 234.964662 278.052668 
L 235.298551 274.856155 
L 235.63244 250.897343 
L 235.966329 247.169749 
L 236.300218 249.704914 
L 236.634107 233.050984 
L 236.967996 255.807346 
L 237.301885 257.761327 
L 237.969663 215.204625 
L 238.303552 233.67225 
L 238.637441 239.223559 
L 238.97133 227.89047 
L 239.305219 222.33916 
L 239.972997 251.999589 
L 240.306885 249.063607 
L 240.640774 259.715308 
L 240.974663 265.487067 
L 241.308552 265.487067 
L 241.642441 286.660204 
L 242.310219 303.905338 
L 242.644108 290.18739 
L 242.977997 313.134141 
L 243.311886 316.591184 
L 243.645775 293.644433 
L 243.979664 310.027812 
L 244.313553 312.562977 
L 244.647442 295.718659 
L 244.981331 271.759847 
L 245.649109 277.732014 
L 246.316887 238.361804 
L 246.650776 234.854658 
L 246.984665 223.521569 
L 247.652443 264.905883 
L 247.986332 261.44884 
L 248.320221 245.065461 
L 248.65411 265.998108 
L 249.321887 223.381283 
L 249.655776 207.719375 
L 249.989665 186.716585 
L 250.323554 188.119443 
L 250.991332 222.719936 
L 251.325221 226.176979 
L 251.65911 217.298891 
L 251.992999 226.898449 
L 252.326888 251.07771 
L 252.660777 259.955798 
L 252.994666 257.180143 
L 253.328555 275.617707 
L 253.662444 273.663726 
L 253.996333 256.047836 
L 254.330222 250.496526 
L 254.664111 229.563879 
L 254.998 247.179769 
L 255.331889 243.722726 
L 255.665778 281.47965 
L 256.333556 287.211327 
L 256.667445 270.827948 
L 257.001334 267.320803 
L 257.669111 242.710664 
L 258.003 256.829429 
L 258.336889 259.364594 
L 258.670778 276.980483 
L 259.004667 255.977693 
L 259.338556 278.924444 
L 259.672445 280.327302 
L 260.006334 293.604352 
L 260.340223 297.111497 
L 261.008001 317.362756 
L 261.34189 307.763198 
L 261.675779 304.256053 
L 262.009668 281.309303 
L 262.343557 278.11279 
L 263.011335 240.526213 
L 263.345224 217.769851 
L 263.679113 241.949112 
L 264.013002 283.253263 
L 264.346891 270.236744 
L 264.68078 283.253263 
L 265.348558 241.317826 
L 265.682446 253.883427 
L 266.350224 289.756512 
L 267.018002 248.732933 
L 268.019669 197.678919 
L 268.353558 214.062297 
L 268.687447 210.605254 
L 269.021336 187.708606 
L 269.355225 182.157296 
L 269.689114 180.754438 
L 270.023003 344.447938 
L 270.356892 327.463334 
L 270.690781 326.060476 
L 271.02467 322.553331 
L 271.358559 343.556121 
L 271.692448 322.553331 
L 272.026337 313.675243 
L 272.360226 330.659847 
L 273.028004 321.380942 
L 273.361893 335.09889 
L 273.695782 321.380942 
L 274.02967 323.916107 
L 274.363559 299.736846 
L 274.697448 291.109268 
L 275.365226 314.827591 
L 275.699115 330.068642 
L 276.033004 195.133733 
L 276.700782 230.5559 
L 277.36856 236.027047 
L 277.702449 217.589483 
L 278.036338 209.222437 
L 278.370227 232.169187 
L 278.704116 218.451239 
L 279.038005 235.295557 
L 279.371894 231.567962 
L 280.039672 201.907534 
L 280.373561 205.635128 
L 280.70745 196.757041 
L 281.041339 215.224665 
L 281.375228 212.6895 
L 281.709117 194.221876 
L 282.710783 251.628833 
L 283.044672 234.64423 
L 283.378561 231.708248 
L 283.71245 255.667061 
L 284.046339 258.603042 
L 284.380228 241.758724 
L 284.714117 240.355866 
L 285.048006 217.599504 
L 285.715784 239.584294 
L 286.049673 218.581504 
L 286.383562 214.85391 
L 286.717451 237.610273 
L 287.05134 250.887323 
L 287.385229 254.614917 
L 287.719118 271.59952 
L 288.053007 257.881572 
L 288.720785 295.267741 
L 289.388563 290.538105 
L 289.722452 299.416193 
L 290.056341 296.480211 
L 290.39023 309.546832 
L 291.058007 349.638513 
L 291.391896 351.592494 
L 291.725785 361.192051 
L 292.059674 374.20857 
L 292.393563 377.144552 
L 292.727452 367.544994 
L 293.061341 349.929105 
L 293.39523 347.975124 
L 293.729119 177.227252 
L 294.063008 195.694877 
L 294.396897 187.32783 
L 294.730786 200.394451 
L 295.064675 197.859286 
L 295.398564 201.586881 
L 295.732453 198.129837 
L 296.066342 192.678732 
L 296.400231 201.556819 
L 296.73412 184.712502 
L 297.068009 187.247667 
L 297.735787 221.156751 
L 298.069676 245.115563 
L 298.403565 246.087544 
L 298.737454 248.622709 
L 299.071342 239.023151 
L 299.405231 238.7526 
L 299.73912 235.025006 
L 300.073009 255.957653 
L 300.406898 257.360511 
L 300.740787 239.744621 
L 301.074676 230.866533 
L 301.742454 260.797513 
L 302.410232 267.982151 
L 302.744121 266.579292 
L 303.07801 289.335655 
L 303.745788 250.195914 
L 304.079677 274.375175 
L 304.413566 277.571688 
L 304.747455 286.199265 
L 305.081344 289.135247 
L 305.415233 285.678204 
L 305.749122 268.833886 
L 306.083011 266.298721 
L 306.4169 242.339909 
L 306.750789 263.963964 
L 307.084678 261.027983 
L 307.418566 283.784345 
L 308.086344 257.440674 
L 308.420233 239.00311 
L 308.754122 244.55442 
L 310.089678 313.975856 
L 310.423567 211.22652 
L 310.757456 228.211123 
L 311.091345 296.991252 
L 311.425234 275.367196 
L 311.759123 283.734243 
L 312.093012 265.296679 
L 312.426901 274.896237 
L 313.094679 233.101086 
L 313.428568 236.037067 
L 313.762457 253.652957 
L 314.096346 262.531045 
L 314.764124 302.592664 
L 315.098013 292.993107 
L 315.431902 287.441797 
L 315.76579 264.545148 
L 316.099679 267.080313 
L 316.433568 276.679871 
L 316.767457 262.961923 
L 317.101346 261.007942 
L 317.435235 272.341031 
L 317.769124 255.957653 
L 318.103013 233.20129 
L 318.436902 234.604148 
L 318.770791 216.988258 
L 319.10468 308.214117 
L 319.438569 295.147496 
L 319.772458 308.164015 
L 320.106347 291.319697 
L 320.440236 309.757261 
L 320.774125 288.754471 
L 321.108014 236.447904 
L 321.441903 253.432508 
L 321.775792 236.778578 
L 322.109681 238.732559 
L 322.44357 217.729769 
L 322.777459 214.533257 
L 323.111348 203.200167 
L 323.445237 201.246186 
L 323.779126 196.276061 
L 324.113014 179.291457 
L 324.446903 197.729021 
L 324.780792 176.796374 
L 325.114681 190.514322 
L 325.44857 193.710834 
L 325.782459 214.643481 
L 326.116348 216.597462 
L 326.450237 239.353825 
L 326.784126 236.81866 
L 327.118015 247.470361 
L 327.451904 246.067503 
L 327.785793 227.599878 
L 328.119682 224.092733 
L 328.453571 215.725686 
L 328.78746 219.182729 
L 329.455238 212.519153 
L 329.789127 209.06211 
L 330.123016 198.410409 
L 330.790794 220.3952 
L 331.124683 221.798058 
L 331.458572 238.782661 
L 331.792461 261.67931 
L 332.12635 252.079752 
L 332.460238 268.463131 
L 333.128016 222.81012 
L 333.795794 262.050065 
L 334.129683 284.946713 
L 334.797461 254.574835 
L 335.13135 245.947258 
L 335.465239 270.126519 
L 336.133017 297.121517 
L 336.466906 276.18887 
L 336.800795 279.916465 
L 337.134684 268.583375 
L 337.468573 252.199997 
L 338.136351 291.439942 
L 338.47024 267.48113 
L 339.138018 243.131521 
L 339.471907 245.907176 
L 339.805796 247.310034 
L 340.139685 245.907176 
L 340.473574 224.904386 
L 340.807462 235.556088 
L 341.141351 212.609337 
L 341.47524 236.568149 
L 341.809129 250.286098 
L 342.143018 273.182746 
L 342.476907 263.583188 
L 342.810796 273.182746 
L 343.144685 269.725703 
L 343.812463 312.352548 
L 344.146352 295.698619 
L 344.480241 285.046917 
L 344.81413 288.24343 
L 345.148019 311.19018 
L 345.481908 302.823134 
L 345.815797 304.777115 
L 346.149686 316.110204 
L 346.483575 294.486148 
L 346.817464 307.763198 
L 347.151353 316.130245 
L 347.819131 345.850796 
L 348.15302 356.502497 
L 348.486909 354.548516 
L 348.820798 355.951374 
L 349.154686 350.400064 
L 349.488575 329.397274 
L 349.822464 326.461293 
L 350.156353 350.640554 
L 350.490242 339.307465 
L 351.15802 304.18591 
L 351.491909 294.586352 
L 351.825798 293.183494 
L 352.827465 238.782661 
L 353.161354 236.247496 
L 353.495243 213.300746 
L 353.829132 222.900303 
L 354.163021 201.967656 
L 354.49691 213.300746 
L 355.498577 271.669663 
L 355.832466 260.336574 
L 356.166355 257.560919 
L 356.500244 258.963777 
L 356.834133 275.808095 
L 357.168022 278.58375 
L 357.501911 287.461837 
L 357.835799 283.954692 
L 358.169688 287.682287 
L 358.837466 260.687288 
L 359.171355 277.341218 
L 359.505244 275.93836 
L 359.839133 297.562416 
L 360.173022 293.834821 
L 360.8408 253.773202 
L 361.174689 257.280347 
L 361.508578 248.913301 
L 361.842467 262.190351 
L 362.176356 283.814406 
L 362.510245 287.542001 
L 362.844134 295.909047 
L 363.178023 313.524937 
L 363.845801 283.864508 
L 364.513579 277.160851 
L 364.847468 276.339177 
L 365.181357 273.022419 
L 365.515246 280.667996 
L 365.849135 293.734617 
L 366.183023 295.137475 
L 366.516912 278.293158 
L 366.850801 246.909218 
L 367.18469 255.536795 
L 367.518579 246.909218 
L 367.852468 271.088479 
L 368.186357 246.909218 
L 368.520246 264.525107 
L 369.521913 216.687646 
L 369.855802 205.354557 
L 370.189691 182.457908 
L 370.52358 198.841287 
L 370.857469 222.800099 
L 371.191358 219.864118 
L 371.525247 228.742205 
L 371.859136 226.788224 
L 372.193025 230.29537 
L 372.526914 240.947071 
L 372.860803 242.349929 
L 373.194692 266.52919 
L 373.528581 252.811242 
L 374.196359 283.513794 
L 374.530247 291.88084 
L 374.864136 314.777489 
L 375.531914 280.176996 
L 375.865803 283.90459 
L 376.199692 280.447547 
L 376.533581 282.401528 
L 376.86747 276.850218 
L 377.201359 288.183307 
L 377.535248 284.676162 
L 377.869137 274.024461 
L 378.203026 276.960442 
L 378.536915 256.027795 
L 378.870804 254.624937 
L 379.204693 267.691559 
L 379.538582 271.148602 
L 379.872471 248.251953 
L 380.20636 269.1846 
L 380.540249 274.73591 
L 380.874138 261.669289 
L 381.208027 274.73591 
L 381.875805 314.667264 
L 382.209694 306.300218 
L 382.543583 287.832593 
L 382.877471 300.849112 
L 383.21136 298.313947 
L 383.545249 281.469629 
L 383.879138 258.522879 
L 384.213027 255.326366 
L 384.546916 278.273117 
L 384.880805 274.816074 
L 385.214694 277.351239 
L 385.882472 232.389636 
L 386.216361 229.453655 
L 387.218028 294.836863 
L 387.551917 270.657601 
L 387.885806 280.257159 
L 388.219695 304.215971 
L 388.553584 295.337884 
L 389.221362 337.954709 
L 389.555251 355.570598 
L 389.88914 364.198176 
L 390.223029 343.265529 
L 390.556918 364.198176 
L 390.890807 350.921126 
L 391.224695 326.741864 
L 391.558584 318.114287 
L 391.892473 326.481334 
L 392.89414 261.599146 
L 393.228029 278.443464 
L 393.561918 261.45886 
L 393.895807 250.676894 
L 394.229696 254.184039 
L 394.563585 271.168643 
L 394.897474 267.441048 
L 395.231363 270.898091 
L 395.565252 268.362926 
L 395.899141 282.080875 
L 396.23303 272.481317 
L 396.566919 269.024274 
L 396.900808 282.301324 
L 397.234697 303.304114 
L 397.568586 306.079769 
L 397.902475 294.746679 
L 398.236364 270.787867 
L 398.570253 274.515461 
L 398.904142 261.498942 
L 399.238031 263.703433 
L 399.571919 239.524172 
L 399.905808 236.067129 
L 400.239697 241.618439 
L 400.573586 217.659626 
L 400.907475 226.026673 
L 401.241364 217.659626 
L 401.575253 240.415989 
L 401.909142 221.948364 
L 402.243031 244.524359 
L 402.57692 244.834992 
L 402.910809 257.901613 
L 403.244698 275.517503 
L 403.578587 277.471484 
L 403.912476 268.593396 
L 404.246365 287.061021 
L 404.580254 269.445131 
L 404.914143 268.042273 
L 405.248032 271.499316 
L 405.581921 279.866363 
L 405.91581 271.499316 
L 406.249699 269.545335 
L 406.583588 283.263284 
L 407.251366 328.445335 
L 407.585255 311.601017 
L 408.253032 335.529768 
L 408.586921 336.932626 
L 408.92081 222.479446 
L 409.254699 235.546067 
L 409.922477 253.161957 
L 410.590255 218.561464 
L 410.924144 236.177353 
L 411.258033 217.73979 
L 411.591922 240.496152 
L 412.2597 235.60619 
L 412.593589 248.622709 
L 412.927478 235.60619 
L 413.261367 217.208708 
L 413.595256 307.993668 
L 413.929145 306.039687 
L 414.263034 309.236199 
L 414.596923 318.114287 
L 414.930812 295.167537 
L 415.264701 291.710493 
L 416.266367 251.348262 
L 416.600256 253.302243 
L 416.934145 257.029837 
L 417.268034 243.311889 
L 417.601923 220.41524 
L 417.935812 217.479259 
L 418.60359 198.460511 
L 418.937479 222.419323 
L 419.271368 201.416534 
L 419.605257 224.172896 
L 419.939146 207.188293 
L 420.273035 216.78785 
L 420.606924 219.723832 
L 420.940813 196.967469 
L 421.608591 232.419698 
L 421.94248 241.297785 
L 422.276369 224.643856 
L 422.610258 235.295557 
L 423.278036 216.016278 
L 423.611925 199.031675 
L 423.945814 201.56684 
L 424.279703 210.194417 
L 424.613591 207.258435 
L 424.94748 220.274955 
L 425.281369 243.221705 
L 425.615258 241.818847 
L 425.949147 223.381283 
L 426.283036 239.764662 
L 426.616925 218.832015 
L 426.950814 220.234873 
L 427.284703 242.991235 
L 427.618592 241.588377 
L 428.28637 273.302991 
L 428.620259 271.34901 
L 428.954148 274.284992 
L 429.288037 262.951902 
L 429.621926 285.848551 
L 429.955815 272.832031 
L 430.289704 269.635519 
L 430.623593 290.638309 
L 430.957482 287.131164 
L 431.291371 238.071212 
L 431.62526 241.798806 
L 431.959149 238.341763 
L 432.293038 256.809388 
L 433.294704 216.106462 
L 433.628593 232.489841 
L 433.962482 292.712535 
L 434.296371 275.727931 
L 434.964149 282.652038 
L 435.298038 274.024461 
L 435.631927 290.407839 
L 435.965816 286.680245 
L 436.299705 265.677455 
L 436.633594 260.126145 
L 436.967483 243.742767 
L 437.301372 245.696748 
L 437.635261 266.629395 
L 437.96915 279.645914 
L 438.303039 266.629395 
L 438.636928 264.09423 
L 438.970817 277.812178 
L 439.304706 255.055815 
L 439.638595 272.671705 
L 440.306373 241.989194 
L 440.640262 255.055815 
L 440.974151 257.83147 
L 441.308039 255.877489 
L 441.641928 237.439926 
L 442.309706 261.789534 
L 442.977484 235.706394 
L 443.311373 237.660375 
L 444.31304 290.397819 
L 444.646929 293.904964 
L 445.314707 263.533086 
L 445.648596 276.549605 
L 445.982485 265.216516 
L 446.316374 242.269766 
L 446.650263 240.315785 
L 446.984152 242.269766 
L 447.318041 282.93261 
L 447.65193 277.3813 
L 447.985819 255.757244 
L 448.319708 265.356802 
L 448.653597 252.290181 
L 448.987486 257.260307 
L 449.321375 237.510068 
L 449.655263 260.406717 
L 449.989152 264.795659 
L 450.990819 206.727353 
L 451.324708 225.164917 
L 451.658597 236.498007 
L 451.992486 230.946697 
L 452.326375 252.570752 
L 452.994153 230.676145 
L 453.328042 227.219102 
L 453.661931 213.942052 
L 454.329709 245.115563 
L 454.663598 269.074376 
L 454.997487 281.950609 
L 455.331376 300.177744 
L 455.665265 298.15362 
L 455.999154 308.975668 
L 456.333043 311.510833 
L 457.000821 265.807721 
L 457.668599 296.069374 
L 458.002487 277.63181 
L 458.336376 300.578561 
L 458.670265 314.296509 
L 459.004154 335.299299 
L 459.671932 295.207618 
L 460.005821 297.983273 
L 460.33971 284.706223 
L 460.673599 288.433818 
L 461.007488 270.817928 
L 461.341377 268.863947 
L 461.675266 286.479837 
L 462.009155 269.495233 
L 462.343044 246.548483 
L 462.676933 233.481862 
L 463.010822 236.678374 
L 463.344711 259.434737 
L 463.6786 235.475924 
L 464.012489 224.142835 
L 464.346378 237.209456 
L 464.680267 213.030195 
L 465.014156 231.497819 
L 465.681934 234.854658 
L 466.6836 293.935026 
L 467.017489 297.442171 
L 467.351378 296.039313 
L 467.685267 279.194995 
L 468.019156 303.153807 
L 468.353045 294.27572 
L 468.686934 312.713283 
L 469.020823 294.245658 
L 469.354712 317.142307 
L 469.688601 294.245658 
L 470.02249 312.713283 
L 470.356379 309.516771 
L 470.690268 215.685605 
L 471.024157 237.30966 
L 471.358046 239.844825 
L 471.691935 285.35755 
L 472.025824 266.889925 
L 472.359713 264.935944 
L 473.027491 309.456648 
L 474.029158 248.392239 
L 474.696936 266.869885 
L 475.030824 279.886404 
L 475.364713 282.421569 
L 475.698602 258.242307 
L 476.032491 254.735162 
L 476.36638 277.681912 
L 476.700269 254.785264 
L 477.034158 258.292409 
L 477.368047 245.225788 
L 477.701936 248.4223 
L 478.035825 270.046356 
L 478.369714 281.379445 
L 479.037492 242.830909 
L 479.371381 226.44753 
L 479.70527 203.50078 
L 480.039159 211.857806 
L 480.373048 229.473696 
L 480.706937 235.025006 
L 481.040826 251.408384 
L 481.374715 273.793991 
L 481.708604 276.329156 
L 482.042493 252.149895 
L 482.376382 255.877489 
L 482.710271 252.420446 
L 483.04416 265.436965 
L 483.378048 252.420446 
L 483.711937 268.082355 
L 484.045826 292.261616 
L 484.713604 250.847241 
L 485.047493 259.725329 
L 485.381382 246.658707 
L 485.715271 256.258265 
L 486.04916 269.535315 
L 486.716938 226.91849 
L 487.050827 251.097751 
L 487.384716 241.498194 
L 487.718605 217.318932 
L 488.052494 228.652022 
L 488.386383 232.109065 
L 488.720272 218.832015 
L 489.054161 242.790827 
L 489.38805 239.333784 
L 489.721939 285.868591 
L 490.055828 306.871381 
L 490.389717 293.80476 
L 490.723606 275.337135 
L 491.391384 306.019646 
L 491.725272 309.74724 
L 492.059161 328.214865 
L 492.39305 304.035604 
L 492.726939 306.570769 
L 493.060828 288.103144 
L 493.394717 310.999792 
L 494.062495 304.716992 
L 494.396384 283.092936 
L 494.730273 291.459983 
L 495.064162 294.967128 
L 495.398051 293.013147 
L 496.065829 314.997938 
L 496.399718 306.630891 
L 496.733607 309.406546 
L 497.067496 295.688598 
L 497.401385 304.316175 
L 498.069163 346.963062 
L 498.403052 343.506019 
L 498.736941 325.038394 
L 499.07083 345.971041 
L 499.404719 329.587662 
L 499.738608 333.044705 
L 500.072496 312.112058 
L 500.406385 314.066039 
L 500.740274 214.332849 
L 501.074163 223.932406 
L 501.408052 246.829054 
L 501.741941 249.604709 
L 502.07583 273.783971 
L 502.743608 234.503944 
L 503.077497 247.520463 
L 503.411386 270.417111 
L 503.745275 267.48113 
L 504.079164 257.881572 
L 504.413053 259.835553 
L 504.746942 256.639041 
L 506.082498 331.902378 
L 506.416387 315.248448 
L 506.750276 313.84559 
L 507.084165 317.042103 
L 507.751943 290.958962 
L 508.085832 289.586165 
L 508.41972 266.689517 
L 509.087498 293.143413 
L 509.421387 310.128016 
L 509.755276 310.128016 
L 510.089165 321.461106 
L 510.423054 324.918149 
L 510.756943 334.517706 
L 511.090832 337.453688 
L 511.424721 355.069578 
L 512.092499 315.669306 
L 512.426388 307.302259 
L 512.760277 309.837424 
L 513.094166 306.901443 
L 513.761944 267.110374 
L 514.095833 290.007023 
L 514.429722 303.023542 
L 514.763611 294.145454 
L 515.0975 291.610289 
L 515.431389 304.67691 
L 515.765278 280.497649 
L 516.099167 286.048959 
L 516.433056 272.331011 
L 516.766944 289.175328 
L 517.100833 312.122079 
L 517.768611 317.593225 
L 518.1025 304.526604 
L 518.436389 281.770242 
L 518.770278 302.702889 
L 519.104167 300.167724 
L 519.438056 308.795301 
L 520.105834 338.45573 
L 520.439723 321.611412 
L 520.773612 298.714763 
L 521.107501 307.08181 
L 521.44139 325.549435 
L 521.775279 314.216346 
L 522.443057 342.393753 
L 522.776946 323.926128 
L 523.110835 320.990146 
L 523.444724 246.768932 
L 523.778613 243.041338 
L 524.112502 243.963216 
L 524.446391 247.470361 
L 525.114168 281.469629 
L 525.448057 258.572981 
L 525.781946 245.50636 
L 526.115835 247.460341 
L 526.783613 208.911804 
L 527.117502 187.287748 
L 527.78528 213.370889 
L 528.119169 199.65294 
L 528.453058 199.65294 
L 528.786947 202.849453 
L 529.120836 322.352923 
L 529.454725 322.352923 
L 529.788614 305.368319 
L 530.122503 307.3223 
L 531.12417 238.792682 
L 531.458059 261.739432 
L 531.791948 270.61752 
L 532.459726 230.104982 
L 532.793615 228.151001 
L 533.127504 222.599691 
L 533.461392 222.599691 
L 533.795281 225.535673 
L 534.463059 256.168081 
L 534.796948 237.730518 
L 535.130837 239.684499 
L 535.464726 222.068609 
L 535.798615 225.525652 
L 536.132504 204.522862 
L 536.466393 227.419511 
L 536.800282 230.616023 
L 537.134171 230.616023 
L 537.46806 227.419511 
L 538.135838 262.511004 
L 538.469727 254.143957 
L 538.803616 235.706394 
L 539.137505 238.902906 
L 539.471394 235.445863 
L 539.805283 234.043005 
L 540.139172 239.594315 
L 540.473061 239.594315 
L 540.80695 243.10146 
L 541.140839 240.566295 
L 541.474728 223.912365 
L 541.808616 242.37999 
L 542.142505 233.501902 
L 542.810283 193.760936 
L 543.144172 216.517299 
L 543.478061 193.760936 
L 543.81195 217.719749 
L 544.145839 204.442699 
L 544.479728 222.058588 
L 544.813617 209.042069 
L 545.147506 212.499113 
L 545.481395 209.563131 
L 545.815284 232.319493 
L 546.149173 292.882882 
L 546.483062 290.347717 
L 546.816951 281.98067 
L 547.15084 264.996067 
L 547.484729 276.329156 
L 547.818618 300.287969 
L 548.152507 276.329156 
L 548.486396 263.052106 
L 548.820285 266.559252 
L 549.154174 249.714934 
L 549.488063 248.312076 
L 549.821952 236.648313 
L 550.15584 236.648313 
L 550.489729 249.925363 
L 550.823618 273.884175 
L 551.157507 265.006087 
L 551.491396 240.826826 
L 551.825285 244.023338 
L 552.159174 220.064526 
L 552.493063 216.868014 
L 552.826952 195.243958 
L 553.160841 195.243958 
L 553.49473 216.868014 
L 553.828619 230.585962 
L 554.162508 232.539943 
L 554.496397 219.523423 
L 554.830286 242.279786 
L 555.164175 230.946697 
L 555.498064 239.574274 
L 555.831953 243.031317 
L 556.165842 222.028527 
L 556.499731 230.906615 
L 556.83362 229.503757 
L 557.167509 216.226707 
L 557.501398 221.778017 
L 557.835287 219.002362 
L 558.169176 208.480926 
L 558.503064 208.480926 
L 558.836953 218.300933 
L 559.170842 222.028527 
L 559.504731 224.112774 
L 559.83862 250.606751 
L 560.506398 250.606751 
L 560.840287 256.348449 
L 561.174176 273.192766 
L 561.508065 273.192766 
L 562.175843 234.724393 
L 562.509732 243.09144 
L 562.843621 230.074921 
L 563.17751 232.610086 
L 563.511399 245.626605 
L 563.845288 279.575771 
L 564.179177 257.951715 
L 564.513066 246.618626 
L 564.846955 243.842971 
L 565.180844 268.292783 
L 565.514733 249.85522 
L 565.848622 246.127625 
L 566.182511 263.112229 
L 566.5164 246.267911 
L 566.850288 242.760766 
L 567.184177 228.331368 
L 567.518066 258.873593 
L 567.851955 262.601188 
L 568.185844 256.949674 
L 568.519733 279.706036 
L 569.187511 283.834447 
L 569.5214 297.552395 
L 570.189178 252.660936 
L 570.523067 262.260494 
L 570.856956 262.260494 
L 571.190845 239.504131 
L 571.524734 239.504131 
L 571.858623 256.348449 
L 572.192512 256.348449 
L 572.526401 274.816074 
L 572.86029 265.937986 
L 573.194179 247.470361 
L 573.528068 250.666873 
L 574.195846 225.615836 
L 574.529735 222.158793 
L 574.863624 205.314475 
L 575.197513 197.518592 
L 575.531401 197.518592 
L 575.86529 198.92145 
L 576.199179 210.25454 
L 576.533068 226.908469 
L 577.200846 220.936302 
L 577.534735 220.936302 
L 577.868624 207.088088 
L 578.536402 207.088088 
L 578.870291 201.496697 
L 579.20418 190.163607 
L 579.538069 200.815309 
L 579.871958 200.815309 
L 580.539736 207.518966 
L 580.873625 218.852056 
L 581.207514 201.236166 
L 581.541403 198.460511 
L 582.209181 154.561073 
L 582.54307 177.317435 
L 582.876959 177.317435 
L 583.210848 194.933325 
L 583.878625 154.370685 
L 584.212514 154.370685 
L 584.880292 181.365683 
L 585.214181 202.989739 
L 585.54807 181.365683 
L 585.881959 181.365683 
L 586.215848 186.916993 
L 586.549737 186.916993 
L 586.883626 181.365683 
L 587.217515 170.713982 
L 587.551404 173.489637 
L 587.885293 170.713982 
L 588.219182 161.114424 
L 588.553071 162.617487 
L 588.88696 165.553468 
L 589.220849 176.205169 
L 589.554738 176.205169 
L 589.888627 197.137816 
L 590.222516 186.486115 
L 590.556405 163.729753 
L 590.890294 152.396663 
L 591.224183 161.996221 
L 591.558072 158.799708 
L 592.559738 158.799708 
L 592.893627 182.97897 
L 593.227516 180.042988 
L 593.561405 190.694689 
L 593.895294 190.694689 
L 594.229183 177.41764 
L 594.563072 177.41764 
L 594.896961 179.211294 
L 595.23085 175.704149 
L 595.564739 175.704149 
L 595.898628 171.976554 
L 596.232517 175.483699 
L 596.566406 162.46718 
L 596.900295 198.841287 
L 598.235851 198.841287 
L 598.56974 217.278851 
L 598.903629 220.214832 
L 599.237518 220.214832 
L 599.571407 206.496884 
L 599.905296 215.124461 
L 601.240851 215.124461 
L 601.57474 228.972675 
L 601.908629 218.320974 
L 602.242518 241.267724 
L 602.576407 242.670582 
L 602.910296 233.071025 
L 603.578074 233.071025 
L 603.911963 212.138378 
L 604.579741 212.138378 
L 604.91363 220.505424 
L 606.249186 220.505424 
L 606.583075 214.793788 
L 606.916964 204.502821 
L 607.584742 204.502821 
L 607.918631 217.779871 
L 608.25252 217.779871 
L 608.586409 223.331181 
L 608.920297 220.555526 
L 609.254186 220.555526 
L 609.588075 217.098483 
L 610.255853 223.381283 
L 610.589742 200.484635 
L 610.923631 204.212229 
L 611.25752 221.828119 
L 611.591409 231.427677 
L 611.925298 245.145625 
L 612.259187 239.594315 
L 612.593076 239.594315 
L 612.926965 245.145625 
L 613.928632 245.145625 
L 614.262521 228.762246 
L 614.59641 228.762246 
L 614.930299 245.145625 
L 615.264188 241.41803 
L 615.931966 241.41803 
L 616.265855 238.221518 
L 616.599744 240.756683 
L 617.267521 240.756683 
L 617.60141 222.289058 
L 617.935299 222.289058 
L 618.269188 213.661481 
L 618.603077 212.258623 
L 618.936966 193.821059 
L 619.604744 193.821059 
L 619.938633 180.103111 
L 620.272522 180.103111 
L 620.606411 166.826061 
L 621.274189 166.826061 
L 621.608078 170.022573 
L 621.941967 161.655527 
L 623.611412 161.655527 
L 623.945301 159.120362 
L 624.27919 154.781522 
L 625.614745 154.781522 
L 625.948634 152.767419 
L 626.950301 152.767419 
L 627.28419 135.782815 
L 627.618079 139.510409 
L 630.956969 139.510409 
L 631.290858 152.526929 
L 631.958636 152.526929 
L 632.292525 176.485741 
L 633.961969 176.485741 
L 634.295858 181.916806 
L 636.96697 181.916806 
L 637.300859 178.409661 
L 637.634748 178.409661 
L 637.968637 181.916806 
L 638.636415 181.916806 
L 638.970304 178.189211 
L 639.304193 170.543635 
L 639.638082 171.946493 
L 640.639749 171.946493 
L 640.973638 166.395183 
L 641.307527 163.198671 
L 642.643082 163.198671 
L 642.976971 180.81456 
L 643.31086 180.81456 
L 643.644749 167.798041 
L 643.978638 164.290896 
L 644.312527 164.290896 
L 644.646416 165.824019 
L 644.980305 165.824019 
L 645.314194 169.331165 
L 645.648083 160.964118 
L 649.320862 160.964118 
L 649.654751 164.421161 
L 650.656417 164.421161 
L 650.990306 160.914016 
L 651.324195 160.914016 
L 651.658084 164.110528 
L 651.991973 164.110528 
L 652.325862 185.113318 
L 652.659751 171.836268 
L 653.661418 171.836268 
L 653.995307 158.960035 
L 656.666419 158.960035 
L 657.000308 154.410767 
L 657.334197 155.813625 
L 658.001975 155.813625 
L 658.335864 152.877643 
L 659.003641 152.877643 
L 659.33753 150.101988 
L 664.345865 150.101988 
L 664.679754 153.829583 
L 666.349199 153.829583 
L 666.683088 147.045762 
L 667.016977 149.821417 
L 667.350865 132.205527 
L 670.021977 132.205527 
L 670.355866 117.124802 
L 674.696423 117.124802 
L 675.030312 113.737902 
L 676.699756 113.737902 
L 677.033645 113.497412 
L 682.709758 113.497412 
L 683.043647 109.769818 
L 686.716425 109.769818 
L 687.050314 100.89173 
L 699.070317 100.89173 
L 699.404206 100.320566 
L 710.088652 100.320566 
L 710.422541 93.496664 
L 723.444211 93.496664 
L 723.7781 89.157824 
L 773.861444 89.157824 
L 774.195333 88.887273 
L 871.690909 88.887273 
L 871.690909 88.887273 
" style="fill:none;stroke:#8dd3c7;stroke-linecap:square;stroke-width:1.5;"/>
   </g>
   <g id="line2d_16">
    <path clip-path="url(#pc4a17d2ce2)" d="M 161.509091 211.386846 
L 177.201872 211.386846 
L 177.535761 200.484635 
L 249.655776 200.484635 
L 249.989665 186.716585 
L 269.021336 186.716585 
L 269.355225 182.157296 
L 269.689114 180.754438 
L 293.39523 180.754438 
L 293.729119 177.227252 
L 324.446903 177.227252 
L 324.780792 176.796374 
L 581.875292 176.796374 
L 582.209181 154.561073 
L 583.544737 154.561073 
L 583.878625 154.370685 
L 590.556405 154.370685 
L 590.890294 152.396663 
L 626.950301 152.396663 
L 627.28419 135.782815 
L 667.016977 135.782815 
L 667.350865 132.205527 
L 670.021977 132.205527 
L 670.355866 117.124802 
L 674.696423 117.124802 
L 675.030312 113.737902 
L 676.699756 113.737902 
L 677.033645 113.497412 
L 682.709758 113.497412 
L 683.043647 109.769818 
L 686.716425 109.769818 
L 687.050314 100.89173 
L 699.070317 100.89173 
L 699.404206 100.320566 
L 710.088652 100.320566 
L 710.422541 93.496664 
L 723.444211 93.496664 
L 723.7781 89.157824 
L 773.861444 89.157824 
L 774.195333 88.887273 
L 871.690909 88.887273 
L 871.690909 88.887273 
" style="fill:none;stroke:#feffb3;stroke-linecap:square;stroke-width:1.5;"/>
   </g>
   <g id="line2d_17">
    <path clip-path="url(#pc4a17d2ce2)" d="M 161.509091 293.240611 
L 163.846314 293.240611 
L 164.180203 307.995765 
L 166.517425 307.995765 
L 166.851314 321.611005 
L 169.188537 321.611005 
L 169.522426 334.174396 
L 171.859649 334.174396 
L 172.193538 345.767199 
L 174.53076 345.767199 
L 174.864649 356.464395 
L 177.201872 356.464395 
L 177.535761 366.335177 
L 179.872984 366.335177 
L 180.206873 375.443388 
L 182.544095 375.443388 
L 182.877984 383.847942 
L 185.215207 383.847942 
L 185.549096 391.603199 
L 187.886319 391.603199 
L 188.220208 398.759322 
L 190.55743 398.759322 
L 190.891319 405.362596 
L 193.228542 405.362596 
L 193.562431 411.455732 
L 195.899654 411.455732 
L 196.233543 417.078141 
L 198.570765 417.078141 
L 198.904654 422.266189 
L 201.241877 422.266189 
L 201.575766 427.053433 
L 203.912989 427.053433 
L 204.246878 431.470837 
L 206.584101 431.470837 
L 206.917989 435.546973 
L 209.255212 435.546973 
L 209.589101 439.308205 
L 211.926324 439.308205 
L 212.260213 442.778863 
L 214.597436 442.778863 
L 214.931325 445.981394 
L 217.268547 445.981394 
L 217.602436 448.936513 
L 219.939659 448.936513 
L 220.273548 451.663332 
L 222.610771 451.663332 
L 222.94466 454.179491 
L 225.281882 454.179491 
L 225.615771 456.501263 
L 227.952994 456.501263 
L 228.286883 458.643666 
L 230.624106 458.643666 
L 230.957995 460.620556 
L 233.295217 460.620556 
L 233.629106 462.444722 
L 235.966329 462.444722 
L 236.300218 464.127961 
L 238.637441 464.127961 
L 238.97133 465.681161 
L 241.308552 465.681161 
L 241.642441 467.114368 
L 243.979664 467.114368 
L 244.313553 468.436852 
L 246.650776 468.436852 
L 246.984665 469.657167 
L 249.321887 469.657167 
L 249.655776 470.783206 
L 251.992999 470.783206 
L 252.326888 471.822253 
L 254.664111 471.822253 
L 254.998 472.781028 
L 257.335222 472.781028 
L 257.669111 473.665733 
L 260.006334 473.665733 
L 260.340223 474.482089 
L 262.677446 474.482089 
L 263.011335 475.235378 
L 265.348558 475.235378 
L 265.682446 475.930471 
L 268.019669 475.930471 
L 268.353558 476.571864 
L 270.690781 476.571864 
L 271.02467 477.163706 
L 273.361893 477.163706 
L 273.695782 477.709826 
L 276.033004 477.709826 
L 276.366893 478.213755 
L 278.704116 478.213755 
L 279.038005 478.678752 
L 281.375228 478.678752 
L 281.709117 479.107826 
L 284.046339 479.107826 
L 284.380228 479.503752 
L 286.717451 479.503752 
L 287.05134 479.86909 
L 289.388563 479.86909 
L 289.722452 480.206205 
L 292.059674 480.206205 
L 292.393563 480.517275 
L 294.730786 480.517275 
L 295.064675 480.804313 
L 297.401898 480.804313 
L 297.735787 481.069176 
L 300.073009 481.069176 
L 300.406898 481.313577 
L 302.744121 481.313577 
L 303.07801 481.539097 
L 305.415233 481.539097 
L 305.749122 481.747195 
L 308.086344 481.747195 
L 308.420233 481.939215 
L 310.757456 481.939215 
L 311.091345 482.116401 
L 313.428568 482.116401 
L 313.762457 482.279899 
L 316.099679 482.279899 
L 316.433568 482.430765 
L 318.770791 482.430765 
L 319.10468 482.569976 
L 321.441903 482.569976 
L 321.775792 482.698432 
L 324.113014 482.698432 
L 324.446903 482.816965 
L 329.455238 482.92634 
L 330.123016 483.027265 
L 334.797461 483.120394 
L 335.465239 483.206327 
L 340.139685 483.285622 
L 340.807462 483.358791 
L 345.481908 483.426307 
L 346.149686 483.488608 
L 353.495243 483.599141 
L 354.49691 483.648089 
L 361.508578 483.734932 
L 362.510245 483.77339 
L 372.193025 483.871836 
L 373.528581 483.899716 
L 388.219695 484.009953 
L 390.556918 484.027163 
L 414.930812 484.13303 
L 420.606924 484.154398 
L 871.690909 484.232727 
L 871.690909 484.232727 
" style="fill:none;stroke:#bfbbd9;stroke-linecap:square;stroke-width:1.5;"/>
   </g>
   <g id="patch_3">
    <path d="M 126 504 
L 126 69.12 
" style="fill:none;stroke:#ffffff;stroke-linecap:square;stroke-linejoin:miter;stroke-width:0.8;"/>
   </g>
   <g id="patch_4">
    <path d="M 907.2 504 
L 907.2 69.12 
" style="fill:none;stroke:#ffffff;stroke-linecap:square;stroke-linejoin:miter;stroke-width:0.8;"/>
   </g>
   <g id="patch_5">
    <path d="M 126 504 
L 907.2 504 
" style="fill:none;stroke:#ffffff;stroke-linecap:square;stroke-linejoin:miter;stroke-width:0.8;"/>
   </g>
   <g id="patch_6">
    <path d="M 126 69.12 
L 907.2 69.12 
" style="fill:none;stroke:#ffffff;stroke-linecap:square;stroke-linejoin:miter;stroke-width:0.8;"/>
   </g>
   <g id="text_16">
    <!-- instance 17 with error 0.020287551836309037 -->
    <g style="fill:#ffffff;" transform="translate(374.229375 63.12)scale(0.12 -0.12)">
     <defs>
      <path d="M 2834 3397 
L 2834 2853 
Q 2591 2978 2328 3040 
Q 2066 3103 1784 3103 
Q 1356 3103 1142 2972 
Q 928 2841 928 2578 
Q 928 2378 1081 2264 
Q 1234 2150 1697 2047 
L 1894 2003 
Q 2506 1872 2764 1633 
Q 3022 1394 3022 966 
Q 3022 478 2636 193 
Q 2250 -91 1575 -91 
Q 1294 -91 989 -36 
Q 684 19 347 128 
L 347 722 
Q 666 556 975 473 
Q 1284 391 1588 391 
Q 1994 391 2212 530 
Q 2431 669 2431 922 
Q 2431 1156 2273 1281 
Q 2116 1406 1581 1522 
L 1381 1569 
Q 847 1681 609 1914 
Q 372 2147 372 2553 
Q 372 3047 722 3315 
Q 1072 3584 1716 3584 
Q 2034 3584 2315 3537 
Q 2597 3491 2834 3397 
z
" id="DejaVuSans-73" transform="scale(0.015625)"/>
      <path d="M 3122 3366 
L 3122 2828 
Q 2878 2963 2633 3030 
Q 2388 3097 2138 3097 
Q 1578 3097 1268 2742 
Q 959 2388 959 1747 
Q 959 1106 1268 751 
Q 1578 397 2138 397 
Q 2388 397 2633 464 
Q 2878 531 3122 666 
L 3122 134 
Q 2881 22 2623 -34 
Q 2366 -91 2075 -91 
Q 1284 -91 818 406 
Q 353 903 353 1747 
Q 353 2603 823 3093 
Q 1294 3584 2113 3584 
Q 2378 3584 2631 3529 
Q 2884 3475 3122 3366 
z
" id="DejaVuSans-63" transform="scale(0.015625)"/>
      <path id="DejaVuSans-20" transform="scale(0.015625)"/>
      <path d="M 525 4666 
L 3525 4666 
L 3525 4397 
L 1831 0 
L 1172 0 
L 2766 4134 
L 525 4134 
L 525 4666 
z
" id="DejaVuSans-37" transform="scale(0.015625)"/>
      <path d="M 269 3500 
L 844 3500 
L 1563 769 
L 2278 3500 
L 2956 3500 
L 3675 769 
L 4391 3500 
L 4966 3500 
L 4050 0 
L 3372 0 
L 2619 2869 
L 1863 0 
L 1184 0 
L 269 3500 
z
" id="DejaVuSans-77" transform="scale(0.015625)"/>
      <path d="M 3513 2113 
L 3513 0 
L 2938 0 
L 2938 2094 
Q 2938 2591 2744 2837 
Q 2550 3084 2163 3084 
Q 1697 3084 1428 2787 
Q 1159 2491 1159 1978 
L 1159 0 
L 581 0 
L 581 4863 
L 1159 4863 
L 1159 2956 
Q 1366 3272 1645 3428 
Q 1925 3584 2291 3584 
Q 2894 3584 3203 3211 
Q 3513 2838 3513 2113 
z
" id="DejaVuSans-68" transform="scale(0.015625)"/>
      <path d="M 684 794 
L 1344 794 
L 1344 0 
L 684 0 
L 684 794 
z
" id="DejaVuSans-2e" transform="scale(0.015625)"/>
      <path d="M 2034 2216 
Q 1584 2216 1326 1975 
Q 1069 1734 1069 1313 
Q 1069 891 1326 650 
Q 1584 409 2034 409 
Q 2484 409 2743 651 
Q 3003 894 3003 1313 
Q 3003 1734 2745 1975 
Q 2488 2216 2034 2216 
z
M 1403 2484 
Q 997 2584 770 2862 
Q 544 3141 544 3541 
Q 544 4100 942 4425 
Q 1341 4750 2034 4750 
Q 2731 4750 3128 4425 
Q 3525 4100 3525 3541 
Q 3525 3141 3298 2862 
Q 3072 2584 2669 2484 
Q 3125 2378 3379 2068 
Q 3634 1759 3634 1313 
Q 3634 634 3220 271 
Q 2806 -91 2034 -91 
Q 1263 -91 848 271 
Q 434 634 434 1313 
Q 434 1759 690 2068 
Q 947 2378 1403 2484 
z
M 1172 3481 
Q 1172 3119 1398 2916 
Q 1625 2713 2034 2713 
Q 2441 2713 2670 2916 
Q 2900 3119 2900 3481 
Q 2900 3844 2670 4047 
Q 2441 4250 2034 4250 
Q 1625 4250 1398 4047 
Q 1172 3844 1172 3481 
z
" id="DejaVuSans-38" transform="scale(0.015625)"/>
      <path d="M 2113 2584 
Q 1688 2584 1439 2293 
Q 1191 2003 1191 1497 
Q 1191 994 1439 701 
Q 1688 409 2113 409 
Q 2538 409 2786 701 
Q 3034 994 3034 1497 
Q 3034 2003 2786 2293 
Q 2538 2584 2113 2584 
z
M 3366 4563 
L 3366 3988 
Q 3128 4100 2886 4159 
Q 2644 4219 2406 4219 
Q 1781 4219 1451 3797 
Q 1122 3375 1075 2522 
Q 1259 2794 1537 2939 
Q 1816 3084 2150 3084 
Q 2853 3084 3261 2657 
Q 3669 2231 3669 1497 
Q 3669 778 3244 343 
Q 2819 -91 2113 -91 
Q 1303 -91 875 529 
Q 447 1150 447 2328 
Q 447 3434 972 4092 
Q 1497 4750 2381 4750 
Q 2619 4750 2861 4703 
Q 3103 4656 3366 4563 
z
" id="DejaVuSans-36" transform="scale(0.015625)"/>
      <path d="M 703 97 
L 703 672 
Q 941 559 1184 500 
Q 1428 441 1663 441 
Q 2288 441 2617 861 
Q 2947 1281 2994 2138 
Q 2813 1869 2534 1725 
Q 2256 1581 1919 1581 
Q 1219 1581 811 2004 
Q 403 2428 403 3163 
Q 403 3881 828 4315 
Q 1253 4750 1959 4750 
Q 2769 4750 3195 4129 
Q 3622 3509 3622 2328 
Q 3622 1225 3098 567 
Q 2575 -91 1691 -91 
Q 1453 -91 1209 -44 
Q 966 3 703 97 
z
M 1959 2075 
Q 2384 2075 2632 2365 
Q 2881 2656 2881 3163 
Q 2881 3666 2632 3958 
Q 2384 4250 1959 4250 
Q 1534 4250 1286 3958 
Q 1038 3666 1038 3163 
Q 1038 2656 1286 2365 
Q 1534 2075 1959 2075 
z
" id="DejaVuSans-39" transform="scale(0.015625)"/>
     </defs>
     <use xlink:href="#DejaVuSans-69"/>
     <use x="27.783203" xlink:href="#DejaVuSans-6e"/>
     <use x="91.162109" xlink:href="#DejaVuSans-73"/>
     <use x="143.261719" xlink:href="#DejaVuSans-74"/>
     <use x="182.470703" xlink:href="#DejaVuSans-61"/>
     <use x="243.75" xlink:href="#DejaVuSans-6e"/>
     <use x="307.128906" xlink:href="#DejaVuSans-63"/>
     <use x="362.109375" xlink:href="#DejaVuSans-65"/>
     <use x="423.632812" xlink:href="#DejaVuSans-20"/>
     <use x="455.419922" xlink:href="#DejaVuSans-31"/>
     <use x="519.042969" xlink:href="#DejaVuSans-37"/>
     <use x="582.666016" xlink:href="#DejaVuSans-20"/>
     <use x="614.453125" xlink:href="#DejaVuSans-77"/>
     <use x="696.240234" xlink:href="#DejaVuSans-69"/>
     <use x="724.023438" xlink:href="#DejaVuSans-74"/>
     <use x="763.232422" xlink:href="#DejaVuSans-68"/>
     <use x="826.611328" xlink:href="#DejaVuSans-20"/>
     <use x="858.398438" xlink:href="#DejaVuSans-65"/>
     <use x="919.921875" xlink:href="#DejaVuSans-72"/>
     <use x="959.285156" xlink:href="#DejaVuSans-72"/>
     <use x="998.148438" xlink:href="#DejaVuSans-6f"/>
     <use x="1059.330078" xlink:href="#DejaVuSans-72"/>
     <use x="1100.443359" xlink:href="#DejaVuSans-20"/>
     <use x="1132.230469" xlink:href="#DejaVuSans-30"/>
     <use x="1195.853516" xlink:href="#DejaVuSans-2e"/>
     <use x="1227.640625" xlink:href="#DejaVuSans-30"/>
     <use x="1291.263672" xlink:href="#DejaVuSans-32"/>
     <use x="1354.886719" xlink:href="#DejaVuSans-30"/>
     <use x="1418.509766" xlink:href="#DejaVuSans-32"/>
     <use x="1482.132812" xlink:href="#DejaVuSans-38"/>
     <use x="1545.755859" xlink:href="#DejaVuSans-37"/>
     <use x="1609.378906" xlink:href="#DejaVuSans-35"/>
     <use x="1673.001953" xlink:href="#DejaVuSans-35"/>
     <use x="1736.625" xlink:href="#DejaVuSans-31"/>
     <use x="1800.248047" xlink:href="#DejaVuSans-38"/>
     <use x="1863.871094" xlink:href="#DejaVuSans-33"/>
     <use x="1927.494141" xlink:href="#DejaVuSans-36"/>
     <use x="1991.117188" xlink:href="#DejaVuSans-33"/>
     <use x="2054.740234" xlink:href="#DejaVuSans-30"/>
     <use x="2118.363281" xlink:href="#DejaVuSans-39"/>
     <use x="2181.986328" xlink:href="#DejaVuSans-30"/>
     <use x="2245.609375" xlink:href="#DejaVuSans-33"/>
     <use x="2309.232422" xlink:href="#DejaVuSans-37"/>
    </g>
   </g>
   <g id="legend_1">
    <g id="patch_7">
     <path d="M 805.348438 499 
L 900.2 499 
Q 902.2 499 902.2 497 
L 902.2 453.965625 
Q 902.2 451.965625 900.2 451.965625 
L 805.348438 451.965625 
Q 803.348438 451.965625 803.348438 453.965625 
L 803.348438 497 
Q 803.348438 499 805.348438 499 
z
" style="opacity:0.8;stroke:#cccccc;stroke-linejoin:miter;"/>
    </g>
    <g id="line2d_18">
     <path d="M 807.348438 460.064062 
L 827.348438 460.064062 
" style="fill:none;stroke:#8dd3c7;stroke-linecap:square;stroke-width:1.5;"/>
    </g>
    <g id="line2d_19"/>
    <g id="text_17">
     <!-- cost -->
     <g style="fill:#ffffff;" transform="translate(835.348438 463.564062)scale(0.1 -0.1)">
      <use xlink:href="#DejaVuSans-63"/>
      <use x="54.980469" xlink:href="#DejaVuSans-6f"/>
      <use x="116.162109" xlink:href="#DejaVuSans-73"/>
      <use x="168.261719" xlink:href="#DejaVuSans-74"/>
     </g>
    </g>
    <g id="line2d_20">
     <path d="M 807.348438 474.742188 
L 827.348438 474.742188 
" style="fill:none;stroke:#feffb3;stroke-linecap:square;stroke-width:1.5;"/>
    </g>
    <g id="line2d_21"/>
    <g id="text_18">
     <!-- best cost -->
     <g style="fill:#ffffff;" transform="translate(835.348438 478.242188)scale(0.1 -0.1)">
      <defs>
       <path d="M 3116 1747 
Q 3116 2381 2855 2742 
Q 2594 3103 2138 3103 
Q 1681 3103 1420 2742 
Q 1159 2381 1159 1747 
Q 1159 1113 1420 752 
Q 1681 391 2138 391 
Q 2594 391 2855 752 
Q 3116 1113 3116 1747 
z
M 1159 2969 
Q 1341 3281 1617 3432 
Q 1894 3584 2278 3584 
Q 2916 3584 3314 3078 
Q 3713 2572 3713 1747 
Q 3713 922 3314 415 
Q 2916 -91 2278 -91 
Q 1894 -91 1617 61 
Q 1341 213 1159 525 
L 1159 0 
L 581 0 
L 581 4863 
L 1159 4863 
L 1159 2969 
z
" id="DejaVuSans-62" transform="scale(0.015625)"/>
      </defs>
      <use xlink:href="#DejaVuSans-62"/>
      <use x="63.476562" xlink:href="#DejaVuSans-65"/>
      <use x="125" xlink:href="#DejaVuSans-73"/>
      <use x="177.099609" xlink:href="#DejaVuSans-74"/>
      <use x="216.308594" xlink:href="#DejaVuSans-20"/>
      <use x="248.095703" xlink:href="#DejaVuSans-63"/>
      <use x="303.076172" xlink:href="#DejaVuSans-6f"/>
      <use x="364.257812" xlink:href="#DejaVuSans-73"/>
      <use x="416.357422" xlink:href="#DejaVuSans-74"/>
     </g>
    </g>
    <g id="line2d_22">
     <path d="M 807.348438 489.420313 
L 827.348438 489.420313 
" style="fill:none;stroke:#bfbbd9;stroke-linecap:square;stroke-width:1.5;"/>
    </g>
    <g id="line2d_23"/>
    <g id="text_19">
     <!-- temperature -->
     <g style="fill:#ffffff;" transform="translate(835.348438 492.920313)scale(0.1 -0.1)">
      <defs>
       <path d="M 3328 2828 
Q 3544 3216 3844 3400 
Q 4144 3584 4550 3584 
Q 5097 3584 5394 3201 
Q 5691 2819 5691 2113 
L 5691 0 
L 5113 0 
L 5113 2094 
Q 5113 2597 4934 2840 
Q 4756 3084 4391 3084 
Q 3944 3084 3684 2787 
Q 3425 2491 3425 1978 
L 3425 0 
L 2847 0 
L 2847 2094 
Q 2847 2600 2669 2842 
Q 2491 3084 2119 3084 
Q 1678 3084 1418 2786 
Q 1159 2488 1159 1978 
L 1159 0 
L 581 0 
L 581 3500 
L 1159 3500 
L 1159 2956 
Q 1356 3278 1631 3431 
Q 1906 3584 2284 3584 
Q 2666 3584 2933 3390 
Q 3200 3197 3328 2828 
z
" id="DejaVuSans-6d" transform="scale(0.015625)"/>
       <path d="M 1159 525 
L 1159 -1331 
L 581 -1331 
L 581 3500 
L 1159 3500 
L 1159 2969 
Q 1341 3281 1617 3432 
Q 1894 3584 2278 3584 
Q 2916 3584 3314 3078 
Q 3713 2572 3713 1747 
Q 3713 922 3314 415 
Q 2916 -91 2278 -91 
Q 1894 -91 1617 61 
Q 1341 213 1159 525 
z
M 3116 1747 
Q 3116 2381 2855 2742 
Q 2594 3103 2138 3103 
Q 1681 3103 1420 2742 
Q 1159 2381 1159 1747 
Q 1159 1113 1420 752 
Q 1681 391 2138 391 
Q 2594 391 2855 752 
Q 3116 1113 3116 1747 
z
" id="DejaVuSans-70" transform="scale(0.015625)"/>
       <path d="M 544 1381 
L 544 3500 
L 1119 3500 
L 1119 1403 
Q 1119 906 1312 657 
Q 1506 409 1894 409 
Q 2359 409 2629 706 
Q 2900 1003 2900 1516 
L 2900 3500 
L 3475 3500 
L 3475 0 
L 2900 0 
L 2900 538 
Q 2691 219 2414 64 
Q 2138 -91 1772 -91 
Q 1169 -91 856 284 
Q 544 659 544 1381 
z
M 1991 3584 
L 1991 3584 
z
" id="DejaVuSans-75" transform="scale(0.015625)"/>
      </defs>
      <use xlink:href="#DejaVuSans-74"/>
      <use x="39.208984" xlink:href="#DejaVuSans-65"/>
      <use x="100.732422" xlink:href="#DejaVuSans-6d"/>
      <use x="198.144531" xlink:href="#DejaVuSans-70"/>
      <use x="261.621094" xlink:href="#DejaVuSans-65"/>
      <use x="323.144531" xlink:href="#DejaVuSans-72"/>
      <use x="364.257812" xlink:href="#DejaVuSans-61"/>
      <use x="425.537109" xlink:href="#DejaVuSans-74"/>
      <use x="464.746094" xlink:href="#DejaVuSans-75"/>
      <use x="528.125" xlink:href="#DejaVuSans-72"/>
      <use x="566.988281" xlink:href="#DejaVuSans-65"/>
     </g>
    </g>
   </g>
  </g>
 </g>
 <defs>
  <clipPath id="pc4a17d2ce2">
   <rect height="434.88" width="781.2" x="126" y="69.12"/>
  </clipPath>
 </defs>
</svg>
