<?xml version="1.0" encoding="utf-8" standalone="no"?>
<!DOCTYPE svg PUBLIC "-//W3C//DTD SVG 1.1//EN"
  "http://www.w3.org/Graphics/SVG/1.1/DTD/svg11.dtd">
<svg height="576pt" version="1.1" viewBox="0 0 1008 576" width="1008pt" xmlns="http://www.w3.org/2000/svg" xmlns:xlink="http://www.w3.org/1999/xlink">
 <metadata>
  <rdf:RDF xmlns:cc="http://creativecommons.org/ns#" xmlns:dc="http://purl.org/dc/elements/1.1/" xmlns:rdf="http://www.w3.org/1999/02/22-rdf-syntax-ns#">
   <cc:Work>
    <dc:type rdf:resource="http://purl.org/dc/dcmitype/StillImage"/>
    <dc:date>2022-01-08T03:08:50.145255</dc:date>
    <dc:format>image/svg+xml</dc:format>
    <dc:creator>
     <cc:Agent>
      <dc:title>Matplotlib v3.4.3, https://matplotlib.org/</dc:title>
     </cc:Agent>
    </dc:creator>
   </cc:Work>
  </rdf:RDF>
 </metadata>
 <defs>
  <style type="text/css">*{stroke-linecap:butt;stroke-linejoin:round;}</style>
 </defs>
 <g id="figure_1">
  <g id="patch_1">
   <path d="M 0 576 
L 1008 576 
L 1008 0 
L 0 0 
z
"/>
  </g>
  <g id="axes_1">
   <g id="patch_2">
    <path d="M 126 504 
L 907.2 504 
L 907.2 69.12 
L 126 69.12 
z
"/>
   </g>
   <g id="matplotlib.axis_1">
    <g id="xtick_1">
     <g id="line2d_1">
      <defs>
       <path d="M 0 0 
L 0 3.5 
" id="m0c2ab73472" style="stroke:#ffffff;stroke-width:0.8;"/>
      </defs>
      <g>
       <use style="fill:#ffffff;stroke:#ffffff;stroke-width:0.8;" x="161.509091" xlink:href="#m0c2ab73472" y="504"/>
      </g>
     </g>
     <g id="text_1">
      <!-- 0 -->
      <g style="fill:#ffffff;" transform="translate(158.327841 518.598438)scale(0.1 -0.1)">
       <defs>
        <path d="M 2034 4250 
Q 1547 4250 1301 3770 
Q 1056 3291 1056 2328 
Q 1056 1369 1301 889 
Q 1547 409 2034 409 
Q 2525 409 2770 889 
Q 3016 1369 3016 2328 
Q 3016 3291 2770 3770 
Q 2525 4250 2034 4250 
z
M 2034 4750 
Q 2819 4750 3233 4129 
Q 3647 3509 3647 2328 
Q 3647 1150 3233 529 
Q 2819 -91 2034 -91 
Q 1250 -91 836 529 
Q 422 1150 422 2328 
Q 422 3509 836 4129 
Q 1250 4750 2034 4750 
z
" id="DejaVuSans-30" transform="scale(0.015625)"/>
       </defs>
       <use xlink:href="#DejaVuSans-30"/>
      </g>
     </g>
    </g>
    <g id="xtick_2">
     <g id="line2d_2">
      <g>
       <use style="fill:#ffffff;stroke:#ffffff;stroke-width:0.8;" x="308.575112" xlink:href="#m0c2ab73472" y="504"/>
      </g>
     </g>
     <g id="text_2">
      <!-- 1000 -->
      <g style="fill:#ffffff;" transform="translate(295.850112 518.598438)scale(0.1 -0.1)">
       <defs>
        <path d="M 794 531 
L 1825 531 
L 1825 4091 
L 703 3866 
L 703 4441 
L 1819 4666 
L 2450 4666 
L 2450 531 
L 3481 531 
L 3481 0 
L 794 0 
L 794 531 
z
" id="DejaVuSans-31" transform="scale(0.015625)"/>
       </defs>
       <use xlink:href="#DejaVuSans-31"/>
       <use x="63.623047" xlink:href="#DejaVuSans-30"/>
       <use x="127.246094" xlink:href="#DejaVuSans-30"/>
       <use x="190.869141" xlink:href="#DejaVuSans-30"/>
      </g>
     </g>
    </g>
    <g id="xtick_3">
     <g id="line2d_3">
      <g>
       <use style="fill:#ffffff;stroke:#ffffff;stroke-width:0.8;" x="455.641134" xlink:href="#m0c2ab73472" y="504"/>
      </g>
     </g>
     <g id="text_3">
      <!-- 2000 -->
      <g style="fill:#ffffff;" transform="translate(442.916134 518.598438)scale(0.1 -0.1)">
       <defs>
        <path d="M 1228 531 
L 3431 531 
L 3431 0 
L 469 0 
L 469 531 
Q 828 903 1448 1529 
Q 2069 2156 2228 2338 
Q 2531 2678 2651 2914 
Q 2772 3150 2772 3378 
Q 2772 3750 2511 3984 
Q 2250 4219 1831 4219 
Q 1534 4219 1204 4116 
Q 875 4013 500 3803 
L 500 4441 
Q 881 4594 1212 4672 
Q 1544 4750 1819 4750 
Q 2544 4750 2975 4387 
Q 3406 4025 3406 3419 
Q 3406 3131 3298 2873 
Q 3191 2616 2906 2266 
Q 2828 2175 2409 1742 
Q 1991 1309 1228 531 
z
" id="DejaVuSans-32" transform="scale(0.015625)"/>
       </defs>
       <use xlink:href="#DejaVuSans-32"/>
       <use x="63.623047" xlink:href="#DejaVuSans-30"/>
       <use x="127.246094" xlink:href="#DejaVuSans-30"/>
       <use x="190.869141" xlink:href="#DejaVuSans-30"/>
      </g>
     </g>
    </g>
    <g id="xtick_4">
     <g id="line2d_4">
      <g>
       <use style="fill:#ffffff;stroke:#ffffff;stroke-width:0.8;" x="602.707156" xlink:href="#m0c2ab73472" y="504"/>
      </g>
     </g>
     <g id="text_4">
      <!-- 3000 -->
      <g style="fill:#ffffff;" transform="translate(589.982156 518.598438)scale(0.1 -0.1)">
       <defs>
        <path d="M 2597 2516 
Q 3050 2419 3304 2112 
Q 3559 1806 3559 1356 
Q 3559 666 3084 287 
Q 2609 -91 1734 -91 
Q 1441 -91 1130 -33 
Q 819 25 488 141 
L 488 750 
Q 750 597 1062 519 
Q 1375 441 1716 441 
Q 2309 441 2620 675 
Q 2931 909 2931 1356 
Q 2931 1769 2642 2001 
Q 2353 2234 1838 2234 
L 1294 2234 
L 1294 2753 
L 1863 2753 
Q 2328 2753 2575 2939 
Q 2822 3125 2822 3475 
Q 2822 3834 2567 4026 
Q 2313 4219 1838 4219 
Q 1578 4219 1281 4162 
Q 984 4106 628 3988 
L 628 4550 
Q 988 4650 1302 4700 
Q 1616 4750 1894 4750 
Q 2613 4750 3031 4423 
Q 3450 4097 3450 3541 
Q 3450 3153 3228 2886 
Q 3006 2619 2597 2516 
z
" id="DejaVuSans-33" transform="scale(0.015625)"/>
       </defs>
       <use xlink:href="#DejaVuSans-33"/>
       <use x="63.623047" xlink:href="#DejaVuSans-30"/>
       <use x="127.246094" xlink:href="#DejaVuSans-30"/>
       <use x="190.869141" xlink:href="#DejaVuSans-30"/>
      </g>
     </g>
    </g>
    <g id="xtick_5">
     <g id="line2d_5">
      <g>
       <use style="fill:#ffffff;stroke:#ffffff;stroke-width:0.8;" x="749.773177" xlink:href="#m0c2ab73472" y="504"/>
      </g>
     </g>
     <g id="text_5">
      <!-- 4000 -->
      <g style="fill:#ffffff;" transform="translate(737.048177 518.598438)scale(0.1 -0.1)">
       <defs>
        <path d="M 2419 4116 
L 825 1625 
L 2419 1625 
L 2419 4116 
z
M 2253 4666 
L 3047 4666 
L 3047 1625 
L 3713 1625 
L 3713 1100 
L 3047 1100 
L 3047 0 
L 2419 0 
L 2419 1100 
L 313 1100 
L 313 1709 
L 2253 4666 
z
" id="DejaVuSans-34" transform="scale(0.015625)"/>
       </defs>
       <use xlink:href="#DejaVuSans-34"/>
       <use x="63.623047" xlink:href="#DejaVuSans-30"/>
       <use x="127.246094" xlink:href="#DejaVuSans-30"/>
       <use x="190.869141" xlink:href="#DejaVuSans-30"/>
      </g>
     </g>
    </g>
    <g id="xtick_6">
     <g id="line2d_6">
      <g>
       <use style="fill:#ffffff;stroke:#ffffff;stroke-width:0.8;" x="896.839199" xlink:href="#m0c2ab73472" y="504"/>
      </g>
     </g>
     <g id="text_6">
      <!-- 5000 -->
      <g style="fill:#ffffff;" transform="translate(884.114199 518.598438)scale(0.1 -0.1)">
       <defs>
        <path d="M 691 4666 
L 3169 4666 
L 3169 4134 
L 1269 4134 
L 1269 2991 
Q 1406 3038 1543 3061 
Q 1681 3084 1819 3084 
Q 2600 3084 3056 2656 
Q 3513 2228 3513 1497 
Q 3513 744 3044 326 
Q 2575 -91 1722 -91 
Q 1428 -91 1123 -41 
Q 819 9 494 109 
L 494 744 
Q 775 591 1075 516 
Q 1375 441 1709 441 
Q 2250 441 2565 725 
Q 2881 1009 2881 1497 
Q 2881 1984 2565 2268 
Q 2250 2553 1709 2553 
Q 1456 2553 1204 2497 
Q 953 2441 691 2322 
L 691 4666 
z
" id="DejaVuSans-35" transform="scale(0.015625)"/>
       </defs>
       <use xlink:href="#DejaVuSans-35"/>
       <use x="63.623047" xlink:href="#DejaVuSans-30"/>
       <use x="127.246094" xlink:href="#DejaVuSans-30"/>
       <use x="190.869141" xlink:href="#DejaVuSans-30"/>
      </g>
     </g>
    </g>
    <g id="text_7">
     <!-- iteration -->
     <g style="fill:#ffffff;" transform="translate(495.477344 532.276562)scale(0.1 -0.1)">
      <defs>
       <path d="M 603 3500 
L 1178 3500 
L 1178 0 
L 603 0 
L 603 3500 
z
M 603 4863 
L 1178 4863 
L 1178 4134 
L 603 4134 
L 603 4863 
z
" id="DejaVuSans-69" transform="scale(0.015625)"/>
       <path d="M 1172 4494 
L 1172 3500 
L 2356 3500 
L 2356 3053 
L 1172 3053 
L 1172 1153 
Q 1172 725 1289 603 
Q 1406 481 1766 481 
L 2356 481 
L 2356 0 
L 1766 0 
Q 1100 0 847 248 
Q 594 497 594 1153 
L 594 3053 
L 172 3053 
L 172 3500 
L 594 3500 
L 594 4494 
L 1172 4494 
z
" id="DejaVuSans-74" transform="scale(0.015625)"/>
       <path d="M 3597 1894 
L 3597 1613 
L 953 1613 
Q 991 1019 1311 708 
Q 1631 397 2203 397 
Q 2534 397 2845 478 
Q 3156 559 3463 722 
L 3463 178 
Q 3153 47 2828 -22 
Q 2503 -91 2169 -91 
Q 1331 -91 842 396 
Q 353 884 353 1716 
Q 353 2575 817 3079 
Q 1281 3584 2069 3584 
Q 2775 3584 3186 3129 
Q 3597 2675 3597 1894 
z
M 3022 2063 
Q 3016 2534 2758 2815 
Q 2500 3097 2075 3097 
Q 1594 3097 1305 2825 
Q 1016 2553 972 2059 
L 3022 2063 
z
" id="DejaVuSans-65" transform="scale(0.015625)"/>
       <path d="M 2631 2963 
Q 2534 3019 2420 3045 
Q 2306 3072 2169 3072 
Q 1681 3072 1420 2755 
Q 1159 2438 1159 1844 
L 1159 0 
L 581 0 
L 581 3500 
L 1159 3500 
L 1159 2956 
Q 1341 3275 1631 3429 
Q 1922 3584 2338 3584 
Q 2397 3584 2469 3576 
Q 2541 3569 2628 3553 
L 2631 2963 
z
" id="DejaVuSans-72" transform="scale(0.015625)"/>
       <path d="M 2194 1759 
Q 1497 1759 1228 1600 
Q 959 1441 959 1056 
Q 959 750 1161 570 
Q 1363 391 1709 391 
Q 2188 391 2477 730 
Q 2766 1069 2766 1631 
L 2766 1759 
L 2194 1759 
z
M 3341 1997 
L 3341 0 
L 2766 0 
L 2766 531 
Q 2569 213 2275 61 
Q 1981 -91 1556 -91 
Q 1019 -91 701 211 
Q 384 513 384 1019 
Q 384 1609 779 1909 
Q 1175 2209 1959 2209 
L 2766 2209 
L 2766 2266 
Q 2766 2663 2505 2880 
Q 2244 3097 1772 3097 
Q 1472 3097 1187 3025 
Q 903 2953 641 2809 
L 641 3341 
Q 956 3463 1253 3523 
Q 1550 3584 1831 3584 
Q 2591 3584 2966 3190 
Q 3341 2797 3341 1997 
z
" id="DejaVuSans-61" transform="scale(0.015625)"/>
       <path d="M 1959 3097 
Q 1497 3097 1228 2736 
Q 959 2375 959 1747 
Q 959 1119 1226 758 
Q 1494 397 1959 397 
Q 2419 397 2687 759 
Q 2956 1122 2956 1747 
Q 2956 2369 2687 2733 
Q 2419 3097 1959 3097 
z
M 1959 3584 
Q 2709 3584 3137 3096 
Q 3566 2609 3566 1747 
Q 3566 888 3137 398 
Q 2709 -91 1959 -91 
Q 1206 -91 779 398 
Q 353 888 353 1747 
Q 353 2609 779 3096 
Q 1206 3584 1959 3584 
z
" id="DejaVuSans-6f" transform="scale(0.015625)"/>
       <path d="M 3513 2113 
L 3513 0 
L 2938 0 
L 2938 2094 
Q 2938 2591 2744 2837 
Q 2550 3084 2163 3084 
Q 1697 3084 1428 2787 
Q 1159 2491 1159 1978 
L 1159 0 
L 581 0 
L 581 3500 
L 1159 3500 
L 1159 2956 
Q 1366 3272 1645 3428 
Q 1925 3584 2291 3584 
Q 2894 3584 3203 3211 
Q 3513 2838 3513 2113 
z
" id="DejaVuSans-6e" transform="scale(0.015625)"/>
      </defs>
      <use xlink:href="#DejaVuSans-69"/>
      <use x="27.783203" xlink:href="#DejaVuSans-74"/>
      <use x="66.992188" xlink:href="#DejaVuSans-65"/>
      <use x="128.515625" xlink:href="#DejaVuSans-72"/>
      <use x="169.628906" xlink:href="#DejaVuSans-61"/>
      <use x="230.908203" xlink:href="#DejaVuSans-74"/>
      <use x="270.117188" xlink:href="#DejaVuSans-69"/>
      <use x="297.900391" xlink:href="#DejaVuSans-6f"/>
      <use x="359.082031" xlink:href="#DejaVuSans-6e"/>
     </g>
    </g>
   </g>
   <g id="matplotlib.axis_2">
    <g id="ytick_1">
     <g id="line2d_7">
      <defs>
       <path d="M 0 0 
L -3.5 0 
" id="m596e4d0a73" style="stroke:#ffffff;stroke-width:0.8;"/>
      </defs>
      <g>
       <use style="fill:#ffffff;stroke:#ffffff;stroke-width:0.8;" x="126" xlink:href="#m596e4d0a73" y="484.232727"/>
      </g>
     </g>
     <g id="text_8">
      <!-- 0 -->
      <g style="fill:#ffffff;" transform="translate(112.6375 488.031946)scale(0.1 -0.1)">
       <use xlink:href="#DejaVuSans-30"/>
      </g>
     </g>
    </g>
    <g id="ytick_2">
     <g id="line2d_8">
      <g>
       <use style="fill:#ffffff;stroke:#ffffff;stroke-width:0.8;" x="126" xlink:href="#m596e4d0a73" y="429.732389"/>
      </g>
     </g>
     <g id="text_9">
      <!-- 1000 -->
      <g style="fill:#ffffff;" transform="translate(93.55 433.531608)scale(0.1 -0.1)">
       <use xlink:href="#DejaVuSans-31"/>
       <use x="63.623047" xlink:href="#DejaVuSans-30"/>
       <use x="127.246094" xlink:href="#DejaVuSans-30"/>
       <use x="190.869141" xlink:href="#DejaVuSans-30"/>
      </g>
     </g>
    </g>
    <g id="ytick_3">
     <g id="line2d_9">
      <g>
       <use style="fill:#ffffff;stroke:#ffffff;stroke-width:0.8;" x="126" xlink:href="#m596e4d0a73" y="375.232051"/>
      </g>
     </g>
     <g id="text_10">
      <!-- 2000 -->
      <g style="fill:#ffffff;" transform="translate(93.55 379.031269)scale(0.1 -0.1)">
       <use xlink:href="#DejaVuSans-32"/>
       <use x="63.623047" xlink:href="#DejaVuSans-30"/>
       <use x="127.246094" xlink:href="#DejaVuSans-30"/>
       <use x="190.869141" xlink:href="#DejaVuSans-30"/>
      </g>
     </g>
    </g>
    <g id="ytick_4">
     <g id="line2d_10">
      <g>
       <use style="fill:#ffffff;stroke:#ffffff;stroke-width:0.8;" x="126" xlink:href="#m596e4d0a73" y="320.731712"/>
      </g>
     </g>
     <g id="text_11">
      <!-- 3000 -->
      <g style="fill:#ffffff;" transform="translate(93.55 324.530931)scale(0.1 -0.1)">
       <use xlink:href="#DejaVuSans-33"/>
       <use x="63.623047" xlink:href="#DejaVuSans-30"/>
       <use x="127.246094" xlink:href="#DejaVuSans-30"/>
       <use x="190.869141" xlink:href="#DejaVuSans-30"/>
      </g>
     </g>
    </g>
    <g id="ytick_5">
     <g id="line2d_11">
      <g>
       <use style="fill:#ffffff;stroke:#ffffff;stroke-width:0.8;" x="126" xlink:href="#m596e4d0a73" y="266.231374"/>
      </g>
     </g>
     <g id="text_12">
      <!-- 4000 -->
      <g style="fill:#ffffff;" transform="translate(93.55 270.030593)scale(0.1 -0.1)">
       <use xlink:href="#DejaVuSans-34"/>
       <use x="63.623047" xlink:href="#DejaVuSans-30"/>
       <use x="127.246094" xlink:href="#DejaVuSans-30"/>
       <use x="190.869141" xlink:href="#DejaVuSans-30"/>
      </g>
     </g>
    </g>
    <g id="ytick_6">
     <g id="line2d_12">
      <g>
       <use style="fill:#ffffff;stroke:#ffffff;stroke-width:0.8;" x="126" xlink:href="#m596e4d0a73" y="211.731035"/>
      </g>
     </g>
     <g id="text_13">
      <!-- 5000 -->
      <g style="fill:#ffffff;" transform="translate(93.55 215.530254)scale(0.1 -0.1)">
       <use xlink:href="#DejaVuSans-35"/>
       <use x="63.623047" xlink:href="#DejaVuSans-30"/>
       <use x="127.246094" xlink:href="#DejaVuSans-30"/>
       <use x="190.869141" xlink:href="#DejaVuSans-30"/>
      </g>
     </g>
    </g>
    <g id="ytick_7">
     <g id="line2d_13">
      <g>
       <use style="fill:#ffffff;stroke:#ffffff;stroke-width:0.8;" x="126" xlink:href="#m596e4d0a73" y="157.230697"/>
      </g>
     </g>
     <g id="text_14">
      <!-- 6000 -->
      <g style="fill:#ffffff;" transform="translate(93.55 161.029916)scale(0.1 -0.1)">
       <defs>
        <path d="M 2113 2584 
Q 1688 2584 1439 2293 
Q 1191 2003 1191 1497 
Q 1191 994 1439 701 
Q 1688 409 2113 409 
Q 2538 409 2786 701 
Q 3034 994 3034 1497 
Q 3034 2003 2786 2293 
Q 2538 2584 2113 2584 
z
M 3366 4563 
L 3366 3988 
Q 3128 4100 2886 4159 
Q 2644 4219 2406 4219 
Q 1781 4219 1451 3797 
Q 1122 3375 1075 2522 
Q 1259 2794 1537 2939 
Q 1816 3084 2150 3084 
Q 2853 3084 3261 2657 
Q 3669 2231 3669 1497 
Q 3669 778 3244 343 
Q 2819 -91 2113 -91 
Q 1303 -91 875 529 
Q 447 1150 447 2328 
Q 447 3434 972 4092 
Q 1497 4750 2381 4750 
Q 2619 4750 2861 4703 
Q 3103 4656 3366 4563 
z
" id="DejaVuSans-36" transform="scale(0.015625)"/>
       </defs>
       <use xlink:href="#DejaVuSans-36"/>
       <use x="63.623047" xlink:href="#DejaVuSans-30"/>
       <use x="127.246094" xlink:href="#DejaVuSans-30"/>
       <use x="190.869141" xlink:href="#DejaVuSans-30"/>
      </g>
     </g>
    </g>
    <g id="ytick_8">
     <g id="line2d_14">
      <g>
       <use style="fill:#ffffff;stroke:#ffffff;stroke-width:0.8;" x="126" xlink:href="#m596e4d0a73" y="102.730359"/>
      </g>
     </g>
     <g id="text_15">
      <!-- 7000 -->
      <g style="fill:#ffffff;" transform="translate(93.55 106.529577)scale(0.1 -0.1)">
       <defs>
        <path d="M 525 4666 
L 3525 4666 
L 3525 4397 
L 1831 0 
L 1172 0 
L 2766 4134 
L 525 4134 
L 525 4666 
z
" id="DejaVuSans-37" transform="scale(0.015625)"/>
       </defs>
       <use xlink:href="#DejaVuSans-37"/>
       <use x="63.623047" xlink:href="#DejaVuSans-30"/>
       <use x="127.246094" xlink:href="#DejaVuSans-30"/>
       <use x="190.869141" xlink:href="#DejaVuSans-30"/>
      </g>
     </g>
    </g>
   </g>
   <g id="line2d_15">
    <path clip-path="url(#pa991715717)" d="M 161.509091 349.071888 
L 161.656157 234.784679 
L 161.803223 484.232727 
L 162.097355 484.232727 
L 162.244421 465.157609 
L 162.391487 404.335231 
L 162.538553 423.41035 
L 162.685619 297.569068 
L 162.832685 278.49395 
L 162.979751 297.569068 
L 163.568015 297.569068 
L 163.715081 484.232727 
L 163.862147 439.487949 
L 164.009213 482.161714 
L 164.156279 409.131261 
L 164.303345 409.131261 
L 164.450411 484.232727 
L 165.038675 484.232727 
L 165.332807 358.391446 
L 165.479873 358.391446 
L 165.62694 396.868685 
L 165.921072 396.868685 
L 166.068138 409.131261 
L 166.215204 472.842157 
L 166.36227 470.771144 
L 166.509336 482.161714 
L 166.656402 482.161714 
L 166.803468 484.232727 
L 166.950534 358.391446 
L 167.0976 356.320433 
L 167.244666 421.339337 
L 167.391732 373.815042 
L 167.538798 434.637419 
L 167.83293 434.637419 
L 167.979996 407.823253 
L 168.127062 347.000875 
L 168.274128 407.823253 
L 168.421194 407.823253 
L 168.56826 484.232727 
L 168.715326 366.293995 
L 168.862392 439.487949 
L 169.009458 439.487949 
L 169.156524 369.945518 
L 169.30359 484.232727 
L 169.450656 439.487949 
L 169.597722 461.451586 
L 169.744788 334.411297 
L 169.891854 396.868685 
L 170.03892 407.823253 
L 170.185986 407.823253 
L 170.333052 484.232727 
L 170.480118 434.637419 
L 170.627184 484.232727 
L 170.77425 369.945518 
L 170.921316 484.232727 
L 171.068382 484.232727 
L 171.215448 439.487949 
L 171.362514 439.487949 
L 171.50958 484.232727 
L 171.656646 484.232727 
L 171.803712 439.487949 
L 172.097844 439.487949 
L 172.24491 484.232727 
L 172.539043 361.116463 
L 172.833175 231.950661 
L 172.980241 231.950661 
L 173.127307 224.048112 
L 173.274373 349.889393 
L 173.421439 217.944074 
L 173.568505 421.339337 
L 173.715571 373.815042 
L 173.862637 421.339337 
L 174.009703 421.339337 
L 174.156769 439.487949 
L 174.450901 439.487949 
L 174.597967 378.665572 
L 174.745033 439.487949 
L 175.039165 409.131261 
L 175.186231 484.232727 
L 175.333297 484.232727 
L 175.480363 409.131261 
L 175.627429 456.928058 
L 175.774495 437.852939 
L 176.068627 437.852939 
L 176.362759 465.157609 
L 176.509825 420.412831 
L 176.656891 484.232727 
L 176.803957 484.232727 
L 176.951023 472.188152 
L 177.098089 472.188152 
L 177.245155 396.868685 
L 177.392221 484.232727 
L 177.539287 358.391446 
L 177.686353 484.232727 
L 177.833419 484.232727 
L 177.980485 456.928058 
L 178.127551 484.232727 
L 178.274617 409.131261 
L 178.568749 409.131261 
L 178.715815 484.232727 
L 178.862881 484.232727 
L 179.009947 409.131261 
L 179.157013 423.41035 
L 179.30408 423.41035 
L 179.451146 411.365775 
L 179.598212 484.232727 
L 179.745278 439.487949 
L 179.892344 439.487949 
L 180.03941 484.232727 
L 180.333542 366.293995 
L 180.480608 456.928058 
L 180.627674 321.767219 
L 180.77474 456.928058 
L 181.068872 484.232727 
L 181.215938 396.868685 
L 181.804202 396.868685 
L 181.951268 484.232727 
L 182.098334 407.823253 
L 182.2454 396.868685 
L 182.392466 355.502928 
L 182.833664 355.502928 
L 182.98073 396.868685 
L 183.127796 484.232727 
L 183.274862 484.232727 
L 183.568994 365.966993 
L 183.71606 323.347728 
L 183.863126 410.711771 
L 184.010192 284.87049 
L 184.157258 484.232727 
L 184.304324 482.161714 
L 184.598456 482.161714 
L 184.745522 484.232727 
L 184.892588 352.287408 
L 185.039654 352.287408 
L 185.333786 484.232727 
L 185.480852 484.232727 
L 185.627918 482.161714 
L 185.774984 482.161714 
L 185.92205 407.823253 
L 186.069117 484.232727 
L 186.216183 434.637419 
L 186.363249 472.188152 
L 186.510315 472.188152 
L 186.657381 484.232727 
L 187.539777 484.232727 
L 187.686843 396.868685 
L 187.833909 484.232727 
L 187.980975 439.487949 
L 188.128041 484.232727 
L 188.275107 461.451586 
L 188.422173 484.232727 
L 188.863371 484.232727 
L 189.010437 439.487949 
L 189.304569 439.487949 
L 189.451635 482.161714 
L 189.598701 352.287408 
L 190.039899 352.287408 
L 190.186965 472.188152 
L 190.334031 472.188152 
L 190.481097 346.346871 
L 190.628163 346.346871 
L 190.775229 484.232727 
L 190.922295 461.451586 
L 191.216427 461.451586 
L 191.363493 407.823253 
L 191.510559 484.232727 
L 191.657625 439.487949 
L 191.804691 439.487949 
L 191.951757 484.232727 
L 192.098823 484.232727 
L 192.245889 482.161714 
L 192.392955 482.161714 
L 192.540021 484.232727 
L 192.687087 484.232727 
L 192.834154 482.161714 
L 192.98122 482.161714 
L 193.128286 407.823253 
L 193.275352 484.232727 
L 193.569484 323.347728 
L 193.71655 366.293995 
L 194.157748 366.293995 
L 194.304814 484.232727 
L 194.45188 409.131261 
L 194.598946 484.232727 
L 194.893078 484.232727 
L 195.040144 369.945518 
L 195.18721 350.870399 
L 195.334276 465.157609 
L 195.628408 409.131261 
L 195.775474 409.131261 
L 195.92254 335.610305 
L 196.069606 409.131261 
L 196.363738 409.131261 
L 196.510804 461.451586 
L 196.65787 347.164376 
L 196.952002 347.164376 
L 197.099068 369.945518 
L 197.246134 484.232727 
L 197.3932 358.391446 
L 197.540266 434.637419 
L 197.981464 434.637419 
L 198.12853 484.232727 
L 198.275596 358.391446 
L 198.422662 357.192439 
L 198.569728 409.131261 
L 198.716794 409.131261 
L 198.86386 484.232727 
L 199.010926 482.161714 
L 199.157992 484.232727 
L 199.305058 484.232727 
L 199.452124 352.287408 
L 199.59919 352.287408 
L 199.746257 484.232727 
L 199.893323 369.945518 
L 200.187455 369.945518 
L 200.334521 409.131261 
L 200.481587 409.131261 
L 200.628653 484.232727 
L 200.775719 484.232727 
L 200.922785 461.451586 
L 201.216917 461.451586 
L 201.363983 420.085829 
L 201.511049 442.86697 
L 201.658115 442.86697 
L 201.805181 484.232727 
L 202.099313 398.122193 
L 202.246379 304.32711 
L 202.393445 439.487949 
L 202.540511 439.487949 
L 202.834643 324.601236 
L 202.981709 409.131261 
L 203.717039 409.131261 
L 203.864105 367.765504 
L 204.158237 484.232727 
L 204.305303 352.287408 
L 204.452369 409.131261 
L 204.599435 352.287408 
L 204.893567 352.287408 
L 205.040633 484.232727 
L 205.334765 222.031599 
L 205.481831 484.232727 
L 205.628897 410.711771 
L 205.775963 410.711771 
L 205.923029 398.667196 
L 206.070095 398.667196 
L 206.217161 472.188152 
L 206.511294 472.188152 
L 206.65836 409.131261 
L 206.952492 409.131261 
L 207.099558 484.232727 
L 207.834888 484.232727 
L 207.981954 456.928058 
L 208.12902 456.928058 
L 208.276086 434.146916 
L 208.423152 352.287408 
L 208.86435 352.287408 
L 209.011416 484.232727 
L 209.158482 357.192439 
L 209.305548 439.487949 
L 209.452614 409.131261 
L 209.59968 409.131261 
L 209.746746 484.232727 
L 209.893812 472.842157 
L 210.040878 450.061015 
L 210.187944 347.164376 
L 210.33501 350.870399 
L 210.482076 350.870399 
L 210.629142 277.349443 
L 210.776208 277.349443 
L 210.923274 365.966993 
L 211.07034 365.966993 
L 211.217406 484.232727 
L 211.364472 300.294085 
L 211.80567 484.232727 
L 211.952736 484.232727 
L 212.099802 472.842157 
L 212.541 472.842157 
L 212.688066 347.000875 
L 212.835132 484.232727 
L 213.129264 461.451586 
L 213.276331 347.164376 
L 213.423397 369.945518 
L 213.570463 484.232727 
L 213.717529 410.711771 
L 213.864595 410.711771 
L 214.011661 408.640758 
L 214.158727 409.131261 
L 214.305793 484.232727 
L 214.452859 442.86697 
L 214.599925 484.232727 
L 214.894057 484.232727 
L 215.041123 407.823253 
L 215.335255 407.823253 
L 215.482321 484.232727 
L 215.629387 484.232727 
L 215.776453 407.823253 
L 215.923519 407.823253 
L 216.070585 423.41035 
L 216.217651 484.232727 
L 216.511783 484.232727 
L 216.952981 409.131261 
L 217.247113 484.232727 
L 217.394179 484.232727 
L 217.541245 472.842157 
L 217.688311 358.554947 
L 217.982443 358.554947 
L 218.129509 350.870399 
L 218.276575 350.870399 
L 218.423641 465.157609 
L 218.570707 484.232727 
L 218.864839 244.104236 
L 219.011905 472.188152 
L 219.158971 472.188152 
L 219.306037 346.346871 
L 219.453103 484.232727 
L 219.747235 484.232727 
L 219.894301 349.071888 
L 220.041367 349.071888 
L 220.188434 484.232727 
L 220.3355 484.232727 
L 220.482566 482.161714 
L 220.629632 463.086596 
L 220.776698 463.086596 
L 220.923764 329.99677 
L 221.07083 329.99677 
L 221.217896 349.071888 
L 221.364962 349.071888 
L 221.512028 484.232727 
L 221.659094 484.232727 
L 221.80616 410.711771 
L 221.953226 399.3212 
L 222.100292 335.610305 
L 222.247358 409.131261 
L 222.394424 367.765504 
L 222.54149 484.232727 
L 222.688556 465.157609 
L 222.835622 463.086596 
L 222.982688 484.232727 
L 223.129754 484.232727 
L 223.27682 442.86697 
L 223.423886 484.232727 
L 223.570952 484.232727 
L 223.718018 472.842157 
L 223.865084 399.3212 
L 224.01215 484.232727 
L 224.159216 465.157609 
L 224.306282 465.157609 
L 224.453348 407.823253 
L 224.600414 434.637419 
L 224.74748 484.232727 
L 224.894546 352.287408 
L 225.041612 484.232727 
L 225.188678 349.071888 
L 225.335744 321.767219 
L 225.48281 434.637419 
L 225.776942 434.637419 
L 225.924008 484.232727 
L 226.071074 482.161714 
L 226.21814 472.188152 
L 226.365206 484.232727 
L 226.806404 484.232727 
L 227.100537 292.773039 
L 227.247603 292.773039 
L 227.394669 391.636652 
L 227.541735 391.636652 
L 227.688801 389.56564 
L 227.835867 334.302296 
L 227.982933 407.823253 
L 228.424131 407.823253 
L 228.571197 347.000875 
L 229.012395 347.000875 
L 229.159461 348.308883 
L 229.600659 348.308883 
L 229.747725 423.41035 
L 229.894791 423.41035 
L 230.041857 484.232727 
L 230.188923 484.232727 
L 230.483055 415.562301 
L 230.777187 415.562301 
L 230.924253 434.637419 
L 231.071319 482.161714 
L 231.218385 484.232727 
L 231.365451 484.232727 
L 231.659583 284.87049 
L 231.953715 484.232727 
L 232.100781 482.161714 
L 232.247847 409.131261 
L 232.541979 484.232727 
L 232.689045 409.131261 
L 232.836111 472.842157 
L 232.983177 434.637419 
L 233.130243 434.637419 
L 233.277309 472.842157 
L 233.424375 450.061015 
L 233.571441 461.451586 
L 233.718508 484.232727 
L 233.865574 461.451586 
L 234.01264 409.131261 
L 234.159706 484.232727 
L 234.453838 484.232727 
L 234.600904 482.161714 
L 234.895036 307.706131 
L 235.042102 484.232727 
L 235.189168 484.232727 
L 235.336234 456.928058 
L 235.4833 456.928058 
L 235.630366 484.232727 
L 235.777432 349.071888 
L 235.924498 484.232727 
L 236.071564 461.451586 
L 236.21863 484.232727 
L 236.365696 472.842157 
L 236.512762 472.842157 
L 236.659828 484.232727 
L 236.806894 472.842157 
L 237.248092 288.24951 
L 237.395158 349.071888 
L 237.542224 307.706131 
L 237.68929 442.86697 
L 237.836356 440.795958 
L 237.983422 484.232727 
L 238.277554 378.665572 
L 238.42462 423.41035 
L 238.571686 400.629208 
L 238.718752 396.10568 
L 238.865818 484.232727 
L 239.012884 472.188152 
L 239.15995 407.823253 
L 239.307016 484.232727 
L 239.454082 407.823253 
L 239.748214 407.823253 
L 239.89528 272.662414 
L 240.042346 349.071888 
L 240.189412 272.662414 
L 240.336478 272.662414 
L 240.483544 484.232727 
L 240.630611 358.391446 
L 240.777677 358.391446 
L 240.924743 317.025689 
L 241.071809 484.232727 
L 241.513007 484.232727 
L 241.807139 273.64342 
L 241.954205 273.64342 
L 242.101271 283.671482 
L 242.395403 396.868685 
L 242.689535 357.192439 
L 242.983667 357.192439 
L 243.130733 484.232727 
L 243.277799 434.637419 
L 243.424865 299.47658 
L 243.571931 349.071888 
L 243.718997 352.287408 
L 243.866063 358.391446 
L 244.307261 358.391446 
L 244.454327 484.232727 
L 244.748459 484.232727 
L 244.895525 442.86697 
L 245.042591 369.346014 
L 245.189657 442.86697 
L 245.336723 315.826682 
L 245.483789 396.868685 
L 245.924987 396.868685 
L 246.072053 484.232727 
L 246.219119 472.842157 
L 246.513251 472.842157 
L 246.660317 409.131261 
L 246.807383 484.232727 
L 247.101515 296.370061 
L 247.248581 222.849104 
L 247.395648 222.849104 
L 247.983912 472.842157 
L 248.130978 409.131261 
L 248.278044 484.232727 
L 248.42511 396.868685 
L 248.572176 461.451586 
L 248.719242 461.451586 
L 248.866308 334.411297 
L 249.013374 334.411297 
L 249.16044 461.451586 
L 249.307506 484.232727 
L 249.454572 482.161714 
L 249.601638 484.232727 
L 250.042836 484.232727 
L 250.189902 423.41035 
L 250.336968 412.019779 
L 250.484034 445.537487 
L 250.6311 445.537487 
L 250.778166 472.842157 
L 251.072298 292.773039 
L 251.219364 292.773039 
L 251.36643 484.232727 
L 251.513496 352.287408 
L 251.660562 484.232727 
L 251.807628 366.293995 
L 252.10176 366.293995 
L 252.248826 484.232727 
L 252.395892 465.157609 
L 252.542958 391.636652 
L 252.690024 465.157609 
L 252.984156 465.157609 
L 253.131222 453.113034 
L 253.425354 484.232727 
L 253.57242 472.842157 
L 253.866552 472.842157 
L 254.013618 431.4764 
L 254.160685 355.502928 
L 254.307751 484.232727 
L 254.454817 369.945518 
L 254.601883 369.945518 
L 254.748949 350.870399 
L 254.896015 484.232727 
L 255.190147 334.302296 
L 255.337213 484.232727 
L 255.631345 484.232727 
L 255.778411 407.823253 
L 255.925477 407.823253 
L 256.072543 484.232727 
L 256.219609 396.868685 
L 256.366675 396.868685 
L 256.513741 366.293995 
L 256.660807 484.232727 
L 256.954939 387.930629 
L 257.102005 484.232727 
L 257.249071 484.232727 
L 257.543203 431.4764 
L 257.690269 315.826682 
L 257.837335 357.192439 
L 257.984401 484.232727 
L 258.278533 484.232727 
L 258.425599 407.823253 
L 258.719731 407.823253 
L 258.866797 272.662414 
L 259.013863 272.662414 
L 259.160929 349.071888 
L 259.307995 337.681317 
L 259.455061 337.681317 
L 259.749193 484.232727 
L 260.043325 366.293995 
L 260.190391 484.232727 
L 260.337457 472.842157 
L 260.484523 472.842157 
L 260.631589 484.232727 
L 260.778655 484.232727 
L 260.925721 472.842157 
L 261.072788 409.131261 
L 261.661052 409.131261 
L 261.808118 335.610305 
L 261.955184 484.232727 
L 262.10225 358.391446 
L 262.396382 358.391446 
L 262.543448 407.823253 
L 262.984646 407.823253 
L 263.131712 439.487949 
L 263.278778 304.32711 
L 263.425844 349.071888 
L 263.57291 299.47658 
L 263.719976 484.232727 
L 263.867042 482.161714 
L 264.014108 396.868685 
L 264.161174 396.868685 
L 264.455306 484.232727 
L 264.602372 484.232727 
L 264.749438 434.637419 
L 265.04357 434.637419 
L 265.190636 484.232727 
L 265.484768 484.232727 
L 265.631834 465.157609 
L 265.7789 409.131261 
L 266.073032 409.131261 
L 266.220098 484.232727 
L 266.367164 349.071888 
L 266.51423 349.071888 
L 266.661296 409.131261 
L 266.808362 409.131261 
L 266.955428 366.293995 
L 267.102494 369.945518 
L 267.24956 484.232727 
L 267.396626 439.487949 
L 267.543692 439.487949 
L 267.690758 396.868685 
L 267.837825 484.232727 
L 267.984891 484.232727 
L 268.131957 461.451586 
L 268.279023 396.868685 
L 268.426089 484.232727 
L 268.573155 434.637419 
L 269.014353 434.637419 
L 269.161419 409.131261 
L 269.308485 409.131261 
L 269.455551 442.86697 
L 269.749683 401.010711 
L 270.043815 484.232727 
L 270.190881 484.232727 
L 270.337947 409.131261 
L 270.485013 409.131261 
L 270.632079 484.232727 
L 270.779145 434.637419 
L 270.926211 434.637419 
L 271.073277 484.232727 
L 271.220343 484.232727 
L 271.367409 434.637419 
L 271.514475 484.232727 
L 271.661541 352.287408 
L 271.808607 352.287408 
L 271.955673 484.232727 
L 272.102739 484.232727 
L 272.249805 407.823253 
L 272.543937 407.823253 
L 272.838069 484.232727 
L 272.985135 461.451586 
L 273.132201 484.232727 
L 273.279267 396.868685 
L 273.573399 484.232727 
L 273.720465 358.391446 
L 273.867531 356.320433 
L 274.014597 358.391446 
L 274.161663 331.086776 
L 274.308729 257.56582 
L 274.455795 272.825915 
L 274.602861 262.089348 
L 274.749928 273.479919 
L 274.896994 358.391446 
L 275.191126 358.391446 
L 275.485258 465.157609 
L 275.632324 404.335231 
L 275.77939 404.335231 
L 275.926456 423.41035 
L 276.073522 484.232727 
L 276.220588 484.232727 
L 276.367654 456.928058 
L 276.51472 456.928058 
L 276.661786 383.407101 
L 276.808852 383.407101 
L 276.955918 322.584724 
L 277.102984 383.407101 
L 277.25005 383.407101 
L 277.397116 364.331983 
L 277.691248 364.331983 
L 277.838314 347.218877 
L 277.98538 465.157609 
L 278.132446 484.232727 
L 278.279512 358.391446 
L 278.426578 484.232727 
L 278.573644 484.232727 
L 278.72071 409.131261 
L 279.161908 409.131261 
L 279.308974 357.192439 
L 279.603106 357.192439 
L 279.750172 484.232727 
L 279.897238 484.232727 
L 280.044304 352.287408 
L 280.19137 352.287408 
L 280.338436 357.192439 
L 280.485502 283.671482 
L 280.632568 283.671482 
L 280.779634 335.610305 
L 280.9267 335.610305 
L 281.073766 484.232727 
L 281.220832 442.86697 
L 281.367898 442.86697 
L 281.514965 484.232727 
L 281.662031 484.232727 
L 281.809097 349.071888 
L 281.956163 347.000875 
L 282.250295 465.157609 
L 282.397361 352.287408 
L 282.544427 352.287408 
L 282.691493 278.766452 
L 282.838559 278.766452 
L 282.985625 284.87049 
L 283.132691 283.671482 
L 283.279757 283.671482 
L 283.426823 484.232727 
L 283.868021 484.232727 
L 284.015087 465.157609 
L 284.162153 339.316328 
L 284.309219 347.000875 
L 284.456285 472.842157 
L 284.603351 484.232727 
L 284.750417 484.232727 
L 284.897483 407.823253 
L 285.485747 407.823253 
L 285.632813 484.232727 
L 285.926945 484.232727 
L 286.074011 434.637419 
L 286.221077 484.232727 
L 286.515209 453.767038 
L 286.809341 231.133156 
L 287.103473 456.928058 
L 287.250539 456.928058 
L 287.397605 396.10568 
L 287.544671 484.232727 
L 287.691737 366.293995 
L 287.838803 484.232727 
L 288.132935 484.232727 
L 288.280002 461.451586 
L 288.427068 461.451586 
L 288.574134 366.293995 
L 288.7212 366.293995 
L 288.868266 484.232727 
L 289.015332 461.451586 
L 289.162398 461.451586 
L 289.309464 484.232727 
L 289.750662 484.232727 
L 289.897728 465.157609 
L 290.044794 484.232727 
L 290.19186 439.487949 
L 290.780124 439.487949 
L 290.92719 420.412831 
L 291.074256 329.99677 
L 291.368388 329.99677 
L 291.515454 349.071888 
L 291.66252 326.290747 
L 291.809586 366.293995 
L 291.956652 366.293995 
L 292.103718 484.232727 
L 292.250784 410.711771 
L 292.39785 484.232727 
L 292.544916 482.161714 
L 292.691982 408.640758 
L 292.839048 482.161714 
L 292.986114 356.320433 
L 293.13318 358.391446 
L 293.280246 484.232727 
L 293.427312 484.232727 
L 293.574378 409.131261 
L 293.86851 409.131261 
L 294.015576 461.451586 
L 294.309708 461.451586 
L 294.456774 449.407011 
L 294.60384 459.380573 
L 294.750906 356.320433 
L 294.897972 470.771144 
L 295.045038 470.771144 
L 295.192105 399.3212 
L 295.339171 399.3212 
L 295.486237 484.232727 
L 295.633303 456.928058 
L 295.927435 456.928058 
L 296.074501 352.287408 
L 296.221567 358.391446 
L 296.368633 317.025689 
L 296.515699 317.025689 
L 296.662765 358.391446 
L 296.809831 347.000875 
L 297.398095 347.000875 
L 297.545161 484.232727 
L 297.692227 409.131261 
L 297.839293 484.232727 
L 297.986359 369.945518 
L 298.133425 484.232727 
L 298.280491 434.637419 
L 298.574623 434.637419 
L 298.721689 407.823253 
L 299.015821 292.93654 
L 299.162887 243.504733 
L 299.309953 358.391446 
L 299.457019 244.104236 
L 299.898217 244.104236 
L 300.045283 358.391446 
L 300.339415 358.391446 
L 300.486481 335.610305 
L 300.633547 396.868685 
L 300.780613 323.347728 
L 300.927679 410.711771 
L 301.074745 410.711771 
L 301.221811 361.116463 
L 301.368877 361.116463 
L 301.515943 484.232727 
L 301.663009 482.161714 
L 301.810075 408.640758 
L 302.104208 408.640758 
L 302.251274 484.232727 
L 302.39834 369.945518 
L 302.692472 369.945518 
L 302.839538 309.12314 
L 302.986604 369.945518 
L 303.13367 369.945518 
L 303.280736 456.928058 
L 303.427802 409.131261 
L 303.574868 409.131261 
L 303.721934 484.232727 
L 303.869 484.232727 
L 304.016066 465.157609 
L 304.310198 465.157609 
L 304.457264 350.870399 
L 304.60433 350.870399 
L 304.751396 439.487949 
L 305.192594 439.487949 
L 305.33966 484.232727 
L 305.486726 439.487949 
L 305.633792 484.232727 
L 305.780858 484.232727 
L 306.07499 335.610305 
L 306.222056 387.930629 
L 306.516188 387.930629 
L 306.663254 407.823253 
L 306.81032 407.823253 
L 306.957386 347.000875 
L 307.692716 347.000875 
L 307.839782 484.232727 
L 307.986848 442.86697 
L 308.133914 442.86697 
L 308.28098 484.232727 
L 308.428046 358.391446 
L 308.722179 358.391446 
L 308.869245 317.025689 
L 309.016311 357.192439 
L 309.163377 484.232727 
L 309.310443 484.232727 
L 309.457509 369.945518 
L 309.604575 350.870399 
L 309.751641 420.412831 
L 309.898707 352.287408 
L 310.339905 352.287408 
L 310.486971 484.232727 
L 310.634037 349.071888 
L 310.781103 484.232727 
L 310.928169 482.161714 
L 311.075235 484.232727 
L 311.222301 410.711771 
L 311.369367 408.640758 
L 311.516433 408.640758 
L 311.663499 385.859617 
L 311.810565 385.859617 
L 311.957631 482.161714 
L 312.104697 407.823253 
L 312.251763 461.451586 
L 312.398829 396.868685 
L 312.545895 484.232727 
L 312.692961 366.293995 
L 312.840027 366.293995 
L 312.987093 484.232727 
L 313.134159 366.293995 
L 313.281225 409.131261 
L 313.428291 409.131261 
L 313.575357 366.293995 
L 313.722423 456.928058 
L 313.869489 456.928058 
L 314.016555 369.945518 
L 314.163621 484.232727 
L 314.310687 484.232727 
L 314.457753 423.41035 
L 314.604819 484.232727 
L 314.751885 366.293995 
L 315.340149 366.293995 
L 315.487215 409.131261 
L 315.781348 409.131261 
L 315.928414 335.610305 
L 316.07548 484.232727 
L 316.222546 472.842157 
L 316.369612 412.019779 
L 316.516678 412.019779 
L 316.81081 484.232727 
L 316.957876 484.232727 
L 317.104942 434.637419 
L 317.399074 434.637419 
L 317.54614 484.232727 
L 317.840272 396.868685 
L 317.987338 261.707846 
L 318.134404 349.071888 
L 318.428536 299.47658 
L 318.575602 472.188152 
L 318.869734 472.188152 
L 319.0168 484.232727 
L 319.163866 484.232727 
L 319.310932 358.391446 
L 319.457998 331.086776 
L 319.75213 456.928058 
L 320.046262 456.928058 
L 320.193328 366.293995 
L 320.340394 484.232727 
L 320.928658 484.232727 
L 321.075724 396.868685 
L 321.663988 396.868685 
L 321.811054 409.131261 
L 321.95812 321.767219 
L 322.105186 456.928058 
L 322.252252 456.928058 
L 322.399319 484.232727 
L 322.693451 336.046307 
L 322.840517 472.842157 
L 322.987583 409.131261 
L 323.281715 409.131261 
L 323.428781 482.161714 
L 323.869979 482.161714 
L 324.017045 459.380573 
L 324.164111 366.293995 
L 324.311177 484.232727 
L 324.752375 484.232727 
L 324.899441 369.945518 
L 325.193573 369.945518 
L 325.340639 484.232727 
L 325.487705 484.232727 
L 325.634771 423.41035 
L 325.781837 484.232727 
L 325.928903 396.868685 
L 326.075969 484.232727 
L 326.223035 352.287408 
L 326.370101 472.188152 
L 326.958365 472.188152 
L 327.105431 484.232727 
L 327.252497 484.232727 
L 327.399563 366.293995 
L 327.693695 352.287408 
L 327.840761 484.232727 
L 327.987827 439.487949 
L 328.576091 439.487949 
L 328.723157 396.868685 
L 328.870223 396.868685 
L 329.017289 484.232727 
L 329.605554 484.232727 
L 329.75262 409.131261 
L 329.899686 409.131261 
L 330.046752 484.232727 
L 330.193818 461.451586 
L 330.340884 484.232727 
L 330.635016 484.232727 
L 330.782082 465.157609 
L 330.929148 347.218877 
L 331.076214 409.131261 
L 331.517412 409.131261 
L 331.664478 465.157609 
L 331.811544 453.767038 
L 331.95861 357.192439 
L 332.105676 357.192439 
L 332.252742 296.370061 
L 332.399808 423.41035 
L 332.546874 296.370061 
L 332.69394 482.161714 
L 332.841006 482.161714 
L 332.988072 408.640758 
L 333.135138 408.640758 
L 333.282204 410.711771 
L 333.42927 292.773039 
L 333.576336 292.773039 
L 333.723402 366.293995 
L 333.870468 366.293995 
L 334.017534 231.133156 
L 334.311666 484.232727 
L 334.752864 484.232727 
L 334.89993 472.188152 
L 335.046996 472.188152 
L 335.194062 484.232727 
L 335.341128 482.161714 
L 335.488194 439.487949 
L 335.63526 484.232727 
L 336.223525 484.232727 
L 336.370591 407.823253 
L 336.517657 484.232727 
L 336.664723 484.232727 
L 336.811789 465.157609 
L 336.958855 423.791852 
L 337.105921 465.157609 
L 337.400053 244.104236 
L 337.547119 244.104236 
L 337.694185 484.232727 
L 337.841251 366.293995 
L 338.135383 366.293995 
L 338.282449 484.232727 
L 338.429515 484.232727 
L 338.576581 358.391446 
L 338.870713 484.232727 
L 339.017779 352.287408 
L 339.164845 465.157609 
L 339.311911 409.131261 
L 339.458977 484.232727 
L 339.606043 456.928058 
L 339.753109 407.823253 
L 339.900175 482.161714 
L 340.047241 408.640758 
L 340.194307 482.161714 
L 340.341373 482.161714 
L 340.488439 484.232727 
L 340.635505 396.868685 
L 340.782571 461.451586 
L 340.929637 461.451586 
L 341.223769 366.457496 
L 341.370835 484.232727 
L 341.664967 484.232727 
L 341.812033 423.41035 
L 341.959099 484.232727 
L 342.106165 484.232727 
L 342.253231 349.071888 
L 342.400297 321.767219 
L 342.547363 223.230607 
L 342.841496 352.287408 
L 342.988562 484.232727 
L 343.282694 484.232727 
L 343.42976 472.842157 
L 343.576826 484.232727 
L 343.870958 484.232727 
L 344.018024 423.41035 
L 344.312156 423.41035 
L 344.459222 366.293995 
L 344.606288 484.232727 
L 344.753354 484.232727 
L 344.90042 465.157609 
L 345.194552 465.157609 
L 345.341618 347.218877 
L 345.488684 347.218877 
L 345.63575 366.293995 
L 345.929882 366.293995 
L 346.224014 482.161714 
L 346.959344 482.161714 
L 347.253476 400.629208 
L 347.400542 461.451586 
L 347.547608 461.451586 
L 347.694674 396.868685 
L 347.84174 484.232727 
L 348.282938 484.232727 
L 348.430004 465.157609 
L 348.57707 339.316328 
L 348.724136 484.232727 
L 348.871202 410.711771 
L 349.018268 408.640758 
L 349.165334 482.161714 
L 349.3124 482.161714 
L 349.459466 484.232727 
L 349.606533 484.232727 
L 349.753599 465.157609 
L 349.900665 484.232727 
L 350.194797 323.347728 
L 350.635995 323.347728 
L 350.783061 278.766452 
L 350.930127 410.711771 
L 351.077193 408.640758 
L 351.224259 484.232727 
L 351.371325 442.86697 
L 351.518391 484.232727 
L 351.665457 484.232727 
L 351.812523 352.287408 
L 351.959589 352.287408 
L 352.106655 472.842157 
L 352.253721 472.842157 
L 352.400787 412.019779 
L 352.547853 472.842157 
L 352.694919 472.842157 
L 352.841985 399.3212 
L 352.989051 399.3212 
L 353.136117 484.232727 
L 353.283183 409.131261 
L 353.430249 396.868685 
L 353.577315 484.232727 
L 353.724381 484.232727 
L 354.165579 365.966993 
L 354.312645 439.487949 
L 354.459711 407.823253 
L 354.606777 434.637419 
L 354.753843 484.232727 
L 354.900909 461.451586 
L 355.047975 484.232727 
L 355.195041 396.868685 
L 355.342107 439.487949 
L 355.489173 352.287408 
L 355.636239 349.071888 
L 355.930371 349.071888 
L 356.077437 299.47658 
L 356.371569 299.47658 
L 356.518636 484.232727 
L 356.665702 349.071888 
L 356.812768 484.232727 
L 356.959834 484.232727 
L 357.1069 349.071888 
L 357.253966 484.232727 
L 357.401032 484.232727 
L 357.548098 472.188152 
L 357.695164 484.232727 
L 357.84223 369.945518 
L 357.989296 439.487949 
L 358.136362 396.868685 
L 358.283428 396.868685 
L 358.430494 369.945518 
L 358.57756 369.945518 
L 358.724626 244.104236 
L 358.871692 484.232727 
L 359.018758 484.232727 
L 359.165824 349.071888 
L 359.31289 349.071888 
L 359.459956 484.232727 
L 359.607022 366.293995 
L 359.901154 366.293995 
L 360.04822 484.232727 
L 360.195286 484.232727 
L 360.342352 423.41035 
L 360.489418 309.12314 
L 360.636484 347.000875 
L 360.78355 347.000875 
L 360.930616 484.232727 
L 361.077682 358.391446 
L 361.224748 358.391446 
L 361.371814 484.232727 
L 361.51888 482.161714 
L 361.665946 440.795958 
L 361.813012 440.795958 
L 361.960078 442.86697 
L 362.107144 484.232727 
L 362.25421 484.232727 
L 362.401276 472.188152 
L 362.548342 472.188152 
L 362.695408 439.487949 
L 362.98954 439.487949 
L 363.283673 484.232727 
L 363.430739 461.451586 
L 363.577805 484.232727 
L 363.724871 472.842157 
L 363.871937 484.232727 
L 364.019003 484.232727 
L 364.166069 472.188152 
L 364.313135 346.346871 
L 364.460201 358.391446 
L 364.607267 484.232727 
L 364.901399 415.562301 
L 365.048465 442.86697 
L 365.195531 440.795958 
L 365.342597 440.795958 
L 365.489663 423.791852 
L 365.636729 442.86697 
L 365.783795 393.271663 
L 365.930861 393.271663 
L 366.077927 319.750706 
L 366.224993 442.86697 
L 366.372059 442.86697 
L 366.519125 430.822396 
L 366.666191 357.301439 
L 366.813257 398.667196 
L 366.960323 296.424561 
L 367.107389 296.424561 
L 367.401521 410.711771 
L 367.548587 296.424561 
L 367.695653 484.232727 
L 367.842719 366.293995 
L 368.136851 366.293995 
L 368.283917 484.232727 
L 369.166313 484.232727 
L 369.313379 366.293995 
L 369.607511 366.293995 
L 369.754577 357.192439 
L 369.901643 357.192439 
L 370.04871 358.391446 
L 370.195776 346.346871 
L 370.342842 484.232727 
L 370.489908 434.637419 
L 370.636974 434.637419 
L 370.78404 484.232727 
L 370.931106 396.868685 
L 371.078172 396.868685 
L 371.225238 355.502928 
L 371.372304 484.232727 
L 371.51937 484.232727 
L 371.666436 482.161714 
L 371.960568 482.161714 
L 372.107634 484.232727 
L 372.548832 484.232727 
L 372.695898 456.928058 
L 372.842964 484.232727 
L 372.99003 484.232727 
L 373.137096 358.391446 
L 373.431228 358.391446 
L 373.578294 484.232727 
L 373.72536 472.842157 
L 373.872426 484.232727 
L 374.019492 439.487949 
L 374.46069 439.487949 
L 374.607756 369.945518 
L 374.754822 407.823253 
L 374.901888 357.192439 
L 375.048954 396.868685 
L 375.19602 484.232727 
L 375.343086 410.711771 
L 375.490152 484.232727 
L 375.637218 472.842157 
L 375.784284 450.061015 
L 376.078416 296.315561 
L 376.225482 337.681317 
L 376.372548 484.232727 
L 376.519614 442.86697 
L 376.66668 369.346014 
L 376.813746 484.232727 
L 376.960813 358.391446 
L 377.107879 484.232727 
L 377.254945 472.842157 
L 377.402011 484.232727 
L 377.549077 484.232727 
L 377.843209 299.47658 
L 377.990275 299.47658 
L 378.137341 337.681317 
L 378.284407 472.842157 
L 378.431473 450.061015 
L 378.725605 450.061015 
L 378.872671 326.290747 
L 379.019737 461.451586 
L 379.166803 442.376467 
L 379.313869 442.376467 
L 379.460935 484.232727 
L 379.755067 355.502928 
L 379.902133 355.502928 
L 380.049199 484.232727 
L 380.196265 423.41035 
L 380.343331 423.41035 
L 380.490397 349.889393 
L 380.784529 484.232727 
L 380.931595 472.842157 
L 381.078661 484.232727 
L 381.225727 484.232727 
L 381.372793 352.287408 
L 381.519859 484.232727 
L 381.666925 369.945518 
L 381.813991 366.293995 
L 381.961057 461.451586 
L 382.108123 484.232727 
L 382.255189 357.192439 
L 382.402255 484.232727 
L 382.549321 484.232727 
L 382.696387 352.287408 
L 382.843453 352.287408 
L 383.137585 369.945518 
L 383.431717 369.945518 
L 383.578783 484.232727 
L 383.72585 409.131261 
L 383.872916 484.232727 
L 384.019982 439.487949 
L 384.314114 439.487949 
L 384.46118 365.966993 
L 384.608246 365.966993 
L 384.755312 484.232727 
L 385.049444 439.487949 
L 385.19651 484.232727 
L 385.490642 484.232727 
L 385.784774 442.376467 
L 386.078906 366.293995 
L 386.225972 396.868685 
L 386.373038 396.868685 
L 386.520104 484.232727 
L 386.66717 434.637419 
L 387.108368 434.637419 
L 387.255434 366.293995 
L 387.4025 366.293995 
L 387.549566 484.232727 
L 387.696632 423.41035 
L 387.843698 423.41035 
L 387.990764 378.665572 
L 388.13783 410.711771 
L 388.284896 484.232727 
L 388.431962 472.188152 
L 388.579028 321.767219 
L 388.726094 321.767219 
L 388.87316 349.071888 
L 389.020226 272.662414 
L 389.167292 366.293995 
L 389.314358 366.293995 
L 389.461424 396.868685 
L 389.60849 482.161714 
L 389.755556 482.161714 
L 390.049688 379.97358 
L 390.196754 470.771144 
L 390.637953 309.12314 
L 390.785019 296.370061 
L 391.226217 484.232727 
L 391.520349 369.945518 
L 391.667415 347.164376 
L 391.814481 484.232727 
L 391.961547 456.928058 
L 392.255679 456.928058 
L 392.402745 484.232727 
L 392.696877 398.122193 
L 392.843943 442.86697 
L 392.991009 369.346014 
L 393.138075 442.86697 
L 393.285141 307.706131 
L 393.432207 349.071888 
L 393.579273 326.290747 
L 393.873405 484.232727 
L 394.020471 484.232727 
L 394.167537 461.451586 
L 394.314603 484.232727 
L 394.608735 355.502928 
L 394.755801 442.86697 
L 395.049933 366.457496 
L 395.196999 407.823253 
L 395.344065 484.232727 
L 395.491131 407.823253 
L 395.638197 484.232727 
L 395.785263 484.232727 
L 395.932329 472.842157 
L 396.079395 347.000875 
L 396.226461 453.767038 
L 396.520593 244.104236 
L 396.814725 244.104236 
L 396.961791 358.554947 
L 397.108857 369.945518 
L 397.255923 366.293995 
L 397.40299 352.287408 
L 397.550056 352.287408 
L 397.697122 484.232727 
L 397.844188 410.711771 
L 397.991254 484.232727 
L 398.13832 484.232727 
L 398.432452 223.230607 
L 398.579518 409.131261 
L 398.726584 423.41035 
L 398.87365 400.629208 
L 399.020716 434.146916 
L 399.167782 321.767219 
L 399.314848 461.451586 
L 399.60898 461.451586 
L 399.756046 420.085829 
L 399.903112 315.826682 
L 400.050178 338.11732 
L 400.197244 465.157609 
L 400.34431 465.157609 
L 400.491376 352.287408 
L 400.638442 484.232727 
L 400.785508 484.232727 
L 400.932574 366.293995 
L 401.07964 396.868685 
L 401.373772 484.232727 
L 401.520838 484.232727 
L 401.667904 409.131261 
L 401.81497 407.823253 
L 401.962036 409.131261 
L 402.109102 484.232727 
L 402.256168 484.232727 
L 402.5503 378.665572 
L 402.697366 484.232727 
L 402.991498 484.232727 
L 403.28563 307.706131 
L 403.432696 307.706131 
L 403.579762 246.883754 
L 404.02096 349.071888 
L 404.168027 484.232727 
L 404.462159 352.287408 
L 404.609225 484.232727 
L 404.756291 482.161714 
L 404.903357 484.232727 
L 405.050423 410.711771 
L 405.197489 484.232727 
L 405.344555 456.928058 
L 405.491621 456.928058 
L 405.638687 484.232727 
L 405.785753 484.232727 
L 405.932819 423.41035 
L 406.079885 296.370061 
L 406.374017 296.370061 
L 406.521083 484.232727 
L 406.668149 410.711771 
L 406.815215 275.550932 
L 406.962281 256.475813 
L 407.109347 195.653436 
L 407.550545 412.019779 
L 407.697611 412.019779 
L 407.844677 472.842157 
L 407.991743 472.842157 
L 408.138809 407.823253 
L 408.285875 407.823253 
L 408.432941 484.232727 
L 408.580007 484.232727 
L 408.874139 439.487949 
L 409.021205 434.637419 
L 409.168271 484.232727 
L 409.315337 456.928058 
L 409.462403 472.188152 
L 409.756535 366.293995 
L 410.050667 366.293995 
L 410.197733 407.823253 
L 410.344799 407.823253 
L 410.491865 484.232727 
L 410.638931 434.637419 
L 410.933063 434.637419 
L 411.08013 484.232727 
L 411.227196 484.232727 
L 411.374262 407.823253 
L 411.521328 484.232727 
L 411.668394 349.071888 
L 411.81546 484.232727 
L 411.962526 484.232727 
L 412.256658 398.122193 
L 412.403724 304.32711 
L 412.55079 304.32711 
L 412.697856 349.071888 
L 412.844922 321.767219 
L 412.991988 484.232727 
L 413.139054 484.232727 
L 413.28612 472.842157 
L 413.433186 482.161714 
L 413.580252 482.161714 
L 413.727318 484.232727 
L 413.874384 409.131261 
L 414.02145 484.232727 
L 414.168516 484.232727 
L 414.315582 407.823253 
L 414.462648 484.232727 
L 414.609714 484.232727 
L 414.75678 461.451586 
L 414.903846 420.085829 
L 415.050912 420.085829 
L 415.197978 324.928238 
L 415.345044 366.293995 
L 415.786242 366.293995 
L 415.933308 409.131261 
L 416.374506 409.131261 
L 416.521572 484.232727 
L 416.668638 357.192439 
L 416.815704 357.192439 
L 416.96277 484.232727 
L 417.109836 484.232727 
L 417.256902 369.945518 
L 417.403968 484.232727 
L 417.551034 409.131261 
L 417.6981 484.232727 
L 417.845167 352.287408 
L 417.992233 484.232727 
L 418.139299 484.232727 
L 418.286365 357.192439 
L 418.580497 357.192439 
L 418.727563 456.928058 
L 418.874629 456.928058 
L 419.021695 484.232727 
L 419.168761 461.451586 
L 419.315827 420.085829 
L 419.462893 484.232727 
L 419.609959 465.157609 
L 419.757025 465.157609 
L 419.904091 484.232727 
L 420.051157 409.131261 
L 420.198223 484.232727 
L 420.345289 461.451586 
L 420.492355 461.451586 
L 420.639421 434.146916 
L 420.786487 434.146916 
L 420.933553 456.928058 
L 421.080619 439.487949 
L 421.227685 378.665572 
L 421.521817 378.665572 
L 421.668883 484.232727 
L 421.815949 484.232727 
L 421.963015 357.192439 
L 422.110081 357.192439 
L 422.257147 484.232727 
L 422.404213 484.232727 
L 422.551279 407.823253 
L 422.698345 407.823253 
L 422.845411 482.161714 
L 422.992477 434.637419 
L 423.139543 299.47658 
L 423.286609 299.47658 
L 423.580741 157.612199 
L 423.874873 317.025689 
L 424.169005 407.823253 
L 424.316071 484.232727 
L 424.463137 484.232727 
L 424.75727 336.046307 
L 424.904336 396.868685 
L 425.051402 396.868685 
L 425.198468 484.232727 
L 425.345534 442.86697 
L 425.4926 484.232727 
L 426.080864 484.232727 
L 426.22793 465.157609 
L 426.374996 423.791852 
L 426.669128 484.232727 
L 426.816194 484.232727 
L 426.96326 423.41035 
L 427.110326 309.12314 
L 427.257392 472.842157 
L 427.404458 347.000875 
L 427.551524 472.842157 
L 427.69859 445.537487 
L 427.845656 456.928058 
L 427.992722 415.562301 
L 428.139788 442.86697 
L 428.286854 442.86697 
L 428.43392 430.822396 
L 428.580986 430.822396 
L 428.728052 442.86697 
L 429.022184 442.86697 
L 429.16925 369.346014 
L 429.316316 357.955443 
L 429.463382 399.3212 
L 429.610448 399.3212 
L 429.757514 484.232727 
L 429.90458 366.293995 
L 430.345778 366.293995 
L 430.492844 484.232727 
L 430.63991 434.637419 
L 430.934042 434.637419 
L 431.081108 366.293995 
L 431.228174 472.188152 
L 431.37524 369.945518 
L 431.522307 396.868685 
L 431.816439 396.868685 
L 431.963505 409.131261 
L 432.110571 472.188152 
L 432.257637 484.232727 
L 432.404703 465.157609 
L 432.551769 484.232727 
L 432.698835 456.928058 
L 432.992967 456.928058 
L 433.140033 484.232727 
L 433.287099 407.823253 
L 433.581231 407.823253 
L 433.728297 484.232727 
L 433.875363 352.287408 
L 434.022429 352.287408 
L 434.169495 310.921651 
L 434.316561 352.287408 
L 434.610693 352.287408 
L 434.757759 484.232727 
L 435.051891 484.232727 
L 435.198957 410.711771 
L 435.346023 410.711771 
L 435.640155 372.016531 
L 435.787221 456.928058 
L 435.934287 357.192439 
L 436.081353 484.232727 
L 436.228419 349.071888 
L 436.375485 347.000875 
L 436.522551 347.000875 
L 436.669617 484.232727 
L 436.816683 482.161714 
L 436.963749 347.000875 
L 437.110815 349.071888 
L 437.257881 307.706131 
L 437.404947 222.031599 
L 437.552013 484.232727 
L 437.699079 358.391446 
L 437.846145 358.391446 
L 437.993211 484.232727 
L 438.287344 484.232727 
L 438.43441 366.293995 
L 438.728542 366.293995 
L 438.875608 439.487949 
L 439.022674 358.391446 
L 439.16974 358.391446 
L 439.316806 484.232727 
L 439.463872 482.161714 
L 439.758004 482.161714 
L 439.90507 459.380573 
L 440.052136 484.232727 
L 440.199202 482.161714 
L 440.346268 482.161714 
L 440.493334 357.192439 
L 440.6404 484.232727 
L 440.787466 349.071888 
L 440.934532 347.000875 
L 441.081598 321.767219 
L 441.228664 349.071888 
L 441.37573 222.031599 
L 441.669862 222.031599 
L 441.816928 357.192439 
L 441.963994 334.411297 
L 442.258126 472.842157 
L 442.552258 472.842157 
L 442.699324 337.681317 
L 442.84639 337.681317 
L 442.993456 472.842157 
L 443.140522 366.293995 
L 443.287588 366.293995 
L 443.434654 231.133156 
L 443.58172 349.071888 
L 443.728786 326.290747 
L 443.875852 326.290747 
L 444.022918 252.76979 
L 444.169984 368.855511 
L 444.464116 368.855511 
L 444.611182 410.711771 
L 444.758248 410.711771 
L 445.052381 357.955443 
L 445.346513 484.232727 
L 445.493579 482.161714 
L 445.640645 482.161714 
L 445.787711 347.000875 
L 445.934777 349.071888 
L 446.081843 275.550932 
L 446.228909 275.550932 
L 446.375975 252.76979 
L 446.523041 191.947413 
L 446.670107 211.404033 
L 446.817173 387.930629 
L 446.964239 327.108252 
L 447.111305 322.584724 
L 447.258371 349.889393 
L 447.405437 484.232727 
L 447.846635 484.232727 
L 447.993701 472.188152 
L 448.140767 482.161714 
L 448.434899 275.550932 
L 448.729031 275.550932 
L 448.876097 157.612199 
L 449.023163 157.612199 
L 449.170229 409.131261 
L 449.317295 409.131261 
L 449.464361 484.232727 
L 449.611427 465.157609 
L 449.758493 329.99677 
L 449.905559 349.071888 
L 450.052625 349.071888 
L 450.199691 484.232727 
L 450.346757 439.487949 
L 450.493823 439.487949 
L 450.787955 222.031599 
L 450.935021 222.031599 
L 451.229153 484.232727 
L 451.376219 423.41035 
L 451.523285 309.12314 
L 451.817417 484.232727 
L 452.11155 484.232727 
L 452.258616 434.637419 
L 452.84688 434.637419 
L 452.993946 484.232727 
L 453.435144 365.966993 
L 453.729276 484.232727 
L 453.876342 461.451586 
L 454.023408 461.451586 
L 454.170474 450.061015 
L 454.31754 376.540059 
L 454.464606 376.540059 
L 454.611672 484.232727 
L 454.758738 484.232727 
L 454.905804 461.451586 
L 455.05287 484.232727 
L 455.199936 357.192439 
L 455.347002 357.192439 
L 455.494068 296.370061 
L 455.641134 291.46503 
L 455.7882 291.46503 
L 455.935266 484.232727 
L 456.082332 358.391446 
L 456.229398 439.487949 
L 456.376464 420.412831 
L 456.52353 484.232727 
L 456.670596 461.451586 
L 456.817662 352.287408 
L 457.111794 352.287408 
L 457.25886 484.232727 
L 457.405926 396.868685 
L 457.552992 484.232727 
L 457.847124 335.610305 
L 457.99419 484.232727 
L 458.141256 461.451586 
L 458.582454 461.451586 
L 458.729521 400.629208 
L 458.876587 423.41035 
L 459.023653 309.12314 
L 459.611917 309.12314 
L 459.758983 235.602184 
L 459.906049 277.349443 
L 460.200181 442.86697 
L 460.347247 415.562301 
L 460.494313 409.131261 
L 460.641379 409.131261 
L 460.788445 461.451586 
L 460.935511 387.930629 
L 461.082577 461.451586 
L 461.229643 461.451586 
L 461.376709 484.232727 
L 461.523775 456.928058 
L 461.670841 456.928058 
L 461.817907 434.146916 
L 461.964973 321.767219 
L 462.112039 456.928058 
L 462.259105 352.287408 
L 462.553237 352.287408 
L 462.700303 484.232727 
L 462.847369 366.293995 
L 462.994435 484.232727 
L 463.141501 357.192439 
L 463.288567 472.188152 
L 463.435633 430.822396 
L 463.582699 430.822396 
L 463.729765 442.86697 
L 463.876831 442.86697 
L 464.023897 484.232727 
L 464.170963 484.232727 
L 464.318029 349.071888 
L 464.465095 349.071888 
L 464.612161 337.681317 
L 464.759227 349.071888 
L 465.200425 484.232727 
L 465.347491 357.192439 
L 465.641624 357.192439 
L 465.78869 484.232727 
L 465.935756 482.161714 
L 466.082822 482.161714 
L 466.229888 396.868685 
L 466.818152 396.868685 
L 466.965218 484.232727 
L 467.112284 482.161714 
L 467.25935 356.320433 
L 467.406416 356.320433 
L 467.553482 339.316328 
L 467.700548 350.870399 
L 467.847614 350.870399 
L 467.99468 442.376467 
L 468.141746 434.146916 
L 468.288812 456.928058 
L 468.435878 437.852939 
L 468.582944 456.928058 
L 468.73001 456.928058 
L 468.877076 407.823253 
L 469.024142 407.823253 
L 469.318274 484.232727 
L 469.612406 434.637419 
L 469.759472 369.945518 
L 470.053604 369.945518 
L 470.20067 296.424561 
L 470.347736 292.773039 
L 470.494802 366.293995 
L 470.641868 324.928238 
L 470.788934 456.928058 
L 470.936 456.928058 
L 471.083066 369.945518 
L 471.230132 369.945518 
L 471.377198 484.232727 
L 471.524264 366.293995 
L 471.67133 366.293995 
L 471.818396 472.842157 
L 471.965462 409.131261 
L 472.112528 484.232727 
L 472.259594 352.287408 
L 472.553727 352.287408 
L 472.700793 461.451586 
L 472.847859 334.411297 
L 472.994925 461.451586 
L 473.141991 461.451586 
L 473.289057 434.637419 
L 473.436123 484.232727 
L 473.583189 369.945518 
L 473.730255 369.945518 
L 473.877321 484.232727 
L 474.024387 484.232727 
L 474.171453 352.287408 
L 474.318519 484.232727 
L 474.612651 223.230607 
L 474.759717 223.230607 
L 474.906783 358.391446 
L 475.053849 357.192439 
L 475.200915 315.826682 
L 475.347981 396.868685 
L 475.495047 357.192439 
L 475.642113 366.293995 
L 475.789179 352.287408 
L 475.936245 482.161714 
L 476.230377 482.161714 
L 476.377443 366.293995 
L 476.671575 484.232727 
L 476.818641 396.868685 
L 476.965707 396.868685 
L 477.112773 484.232727 
L 477.259839 484.232727 
L 477.406905 465.157609 
L 477.553971 350.870399 
L 477.701037 350.870399 
L 477.848103 369.945518 
L 477.995169 347.164376 
L 478.142235 461.451586 
L 478.289301 400.629208 
L 478.436367 411.365775 
L 478.583433 484.232727 
L 478.877565 361.116463 
L 479.024631 361.116463 
L 479.171698 319.750706 
L 479.46583 319.750706 
L 479.612896 484.232727 
L 479.759962 357.192439 
L 479.907028 357.192439 
L 480.054094 484.232727 
L 480.642358 484.232727 
L 480.93649 231.133156 
L 481.083556 349.071888 
L 481.230622 307.706131 
L 481.524754 307.706131 
L 481.67182 349.071888 
L 481.818886 234.784679 
L 481.965952 349.071888 
L 482.260084 284.92499 
L 482.554216 430.822396 
L 482.701282 430.822396 
L 482.848348 472.188152 
L 482.995414 449.407011 
L 483.14248 335.610305 
L 483.289546 358.391446 
L 483.583678 358.391446 
L 483.730744 366.293995 
L 483.87781 484.232727 
L 484.024876 484.232727 
L 484.171942 465.157609 
L 484.319008 484.232727 
L 484.466074 409.131261 
L 484.61314 484.232727 
L 484.760206 366.293995 
L 484.907272 357.192439 
L 485.201404 357.192439 
L 485.34847 352.287408 
L 485.642602 352.287408 
L 485.789668 484.232727 
L 485.936735 484.232727 
L 486.083801 439.487949 
L 486.230867 484.232727 
L 486.672065 335.610305 
L 486.819131 410.711771 
L 486.966197 335.610305 
L 487.260329 335.610305 
L 487.554461 484.232727 
L 487.701527 439.487949 
L 488.289791 439.487949 
L 488.436857 409.131261 
L 488.583923 409.131261 
L 488.730989 484.232727 
L 489.466319 484.232727 
L 489.613385 472.188152 
L 489.760451 472.188152 
L 489.907517 484.232727 
L 490.201649 484.232727 
L 490.348715 434.637419 
L 490.789913 434.637419 
L 490.936979 484.232727 
L 491.084045 484.232727 
L 491.231111 396.868685 
L 491.378177 396.868685 
L 491.525243 465.157609 
L 491.966441 465.157609 
L 492.113507 484.232727 
L 492.260573 484.232727 
L 492.701771 157.612199 
L 493.14297 157.612199 
L 493.290036 349.071888 
L 493.437102 299.47658 
L 493.584168 484.232727 
L 493.731234 472.188152 
L 493.8783 484.232727 
L 494.025366 484.232727 
L 494.172432 369.945518 
L 494.319498 369.945518 
L 494.466564 328.579761 
L 494.61363 407.823253 
L 494.760696 407.823253 
L 494.907762 366.457496 
L 495.054828 407.823253 
L 495.201894 484.232727 
L 495.34896 357.192439 
L 495.496026 484.232727 
L 495.643092 484.232727 
L 495.790158 482.161714 
L 495.937224 484.232727 
L 496.525488 484.232727 
L 496.672554 358.391446 
L 496.81962 331.086776 
L 496.966686 357.192439 
L 497.113752 357.192439 
L 497.407884 242.305725 
L 497.702016 472.842157 
L 497.849082 450.061015 
L 497.996148 461.451586 
L 498.143214 484.232727 
L 498.29028 482.161714 
L 498.437346 421.339337 
L 498.584412 484.232727 
L 498.731478 484.232727 
L 498.878544 409.131261 
L 499.02561 409.131261 
L 499.172676 484.232727 
L 499.466808 484.232727 
L 499.760941 292.773039 
L 499.908007 366.293995 
L 500.055073 366.293995 
L 500.202139 484.232727 
L 500.496271 283.671482 
L 500.937469 484.232727 
L 501.231601 272.662414 
L 501.378667 484.232727 
L 501.966931 484.232727 
L 502.113997 358.391446 
L 502.261063 356.320433 
L 502.408129 358.391446 
L 502.555195 347.000875 
L 502.849327 347.000875 
L 502.996393 356.320433 
L 503.143459 358.391446 
L 503.290525 356.320433 
L 503.437591 282.799477 
L 503.584657 282.799477 
L 503.731723 284.87049 
L 503.878789 409.131261 
L 504.025855 409.131261 
L 504.172921 348.308883 
L 504.319987 348.308883 
L 504.467053 396.10568 
L 504.614119 331.086776 
L 504.761185 331.086776 
L 504.908251 456.928058 
L 505.055317 456.928058 
L 505.202383 445.537487 
L 505.349449 484.232727 
L 505.937713 484.232727 
L 506.084779 352.287408 
L 506.231845 349.071888 
L 506.378912 307.706131 
L 506.525978 307.706131 
L 506.673044 367.765504 
L 506.82011 484.232727 
L 506.967176 456.928058 
L 507.261308 456.928058 
L 507.408374 437.852939 
L 507.55544 437.852939 
L 507.702506 331.086776 
L 507.849572 331.086776 
L 507.996638 366.293995 
L 508.143704 484.232727 
L 508.29077 434.637419 
L 508.437836 434.637419 
L 508.584902 461.451586 
L 508.731968 461.451586 
L 508.879034 347.164376 
L 509.0261 369.945518 
L 509.173166 369.945518 
L 509.320232 484.232727 
L 509.467298 349.071888 
L 509.614364 484.232727 
L 510.055562 484.232727 
L 510.202628 407.823253 
L 510.643826 407.823253 
L 510.790892 366.457496 
L 510.937958 366.457496 
L 511.23209 465.157609 
L 511.379156 415.562301 
L 511.526222 415.562301 
L 511.673288 434.637419 
L 511.820354 434.637419 
L 512.261552 235.602184 
L 512.408618 296.424561 
L 512.555684 161.263722 
L 512.70275 275.550932 
L 512.849816 275.550932 
L 512.996882 263.506357 
L 513.291015 263.506357 
L 513.438081 149.70965 
L 513.585147 358.391446 
L 513.732213 407.823253 
L 513.879279 352.287408 
L 514.026345 352.287408 
L 514.173411 484.232727 
L 514.320477 472.188152 
L 514.467543 352.287408 
L 514.614609 439.487949 
L 514.761675 439.487949 
L 515.055807 335.610305 
L 515.349939 217.944074 
L 515.497005 349.889393 
L 515.644071 273.479919 
L 515.791137 273.479919 
L 516.085269 484.232727 
L 516.232335 484.232727 
L 516.379401 461.451586 
L 516.526467 461.451586 
L 516.673533 459.380573 
L 516.820599 439.487949 
L 516.967665 352.287408 
L 517.114731 352.287408 
L 517.261797 484.232727 
L 517.408863 407.823253 
L 517.555929 396.868685 
L 518.144193 396.868685 
L 518.291259 482.161714 
L 518.438325 366.293995 
L 518.732457 366.293995 
L 518.879523 484.232727 
L 519.173655 288.24951 
L 519.467787 288.24951 
L 519.614853 349.071888 
L 519.761919 484.232727 
L 520.056052 484.232727 
L 520.203118 358.391446 
L 520.49725 358.391446 
L 520.644316 439.487949 
L 520.791382 304.32711 
L 521.23258 304.32711 
L 521.379646 337.681317 
L 521.526712 460.797582 
L 521.673778 396.868685 
L 522.262042 396.868685 
L 522.409108 484.232727 
L 522.70324 484.232727 
L 522.850306 472.188152 
L 522.997372 369.945518 
L 523.43857 369.945518 
L 523.585636 296.424561 
L 523.879768 296.424561 
L 524.026834 369.945518 
L 524.1739 358.554947 
L 524.320966 369.945518 
L 524.615098 439.487949 
L 524.762164 434.637419 
L 524.90923 373.815042 
L 525.203362 373.815042 
L 525.350428 357.192439 
L 525.497494 357.192439 
L 525.64456 472.188152 
L 525.791626 484.232727 
L 525.938692 439.487949 
L 526.085758 484.232727 
L 526.37989 484.232727 
L 526.526956 482.161714 
L 526.674022 482.161714 
L 526.821088 456.928058 
L 526.968155 369.945518 
L 527.115221 484.232727 
L 527.262287 439.487949 
L 527.409353 484.232727 
L 527.556419 472.188152 
L 527.703485 472.188152 
L 527.850551 453.113034 
L 527.997617 472.188152 
L 528.144683 398.667196 
L 528.291749 398.667196 
L 528.438815 484.232727 
L 528.585881 484.232727 
L 528.732947 349.071888 
L 528.880013 484.232727 
L 529.027079 484.232727 
L 529.174145 472.842157 
L 529.468277 264.160361 
L 529.615343 256.475813 
L 530.350673 256.475813 
L 530.497739 277.349443 
L 530.644805 410.711771 
L 530.791871 410.711771 
L 530.938937 284.87049 
L 531.233069 484.232727 
L 531.380135 407.823253 
L 531.527201 484.232727 
L 531.674267 484.232727 
L 531.821333 357.192439 
L 531.968399 357.192439 
L 532.115465 366.293995 
L 534.027324 366.293995 
L 534.17439 472.188152 
L 534.321456 472.188152 
L 534.468522 482.161714 
L 534.762654 383.407101 
L 534.90972 335.610305 
L 535.203852 335.610305 
L 535.350918 274.787927 
L 535.792116 484.232727 
L 535.939182 439.487949 
L 536.086248 439.487949 
L 536.233314 396.868685 
L 536.38038 396.868685 
L 536.527446 409.131261 
L 536.674512 366.293995 
L 537.11571 366.293995 
L 537.262776 484.232727 
L 537.409842 465.157609 
L 537.703974 465.157609 
L 537.85104 484.232727 
L 537.998106 349.071888 
L 538.145172 321.767219 
L 538.292238 321.767219 
L 538.439304 347.000875 
L 538.58637 484.232727 
L 538.733436 352.287408 
L 539.3217 352.287408 
L 539.468766 484.232727 
L 539.909964 292.773039 
L 540.05703 292.773039 
L 540.204096 472.842157 
L 540.351162 472.842157 
L 540.498229 412.019779 
L 540.645295 412.019779 
L 540.792361 291.46503 
L 540.939427 352.287408 
L 541.527691 352.287408 
L 541.674757 484.232727 
L 541.968889 484.232727 
L 542.263021 323.347728 
L 542.410087 410.711771 
L 542.557153 398.667196 
L 542.851285 296.479062 
L 542.998351 190.584904 
L 543.145417 190.584904 
L 543.439549 396.868685 
L 543.880747 396.868685 
L 544.027813 484.232727 
L 544.321945 409.131261 
L 544.616077 409.131261 
L 544.763143 396.868685 
L 545.351407 396.868685 
L 545.498473 484.232727 
L 545.645539 484.232727 
L 545.792605 349.071888 
L 545.939671 349.071888 
L 546.086737 231.133156 
L 546.233803 231.133156 
L 546.380869 349.071888 
L 546.675001 261.707846 
L 546.822067 261.707846 
L 547.116199 484.232727 
L 547.263265 434.637419 
L 547.410332 484.232727 
L 547.557398 484.232727 
L 547.704464 472.842157 
L 547.85153 352.287408 
L 548.733926 352.287408 
L 548.880992 484.232727 
L 549.028058 366.293995 
L 549.175124 366.293995 
L 549.469256 456.928058 
L 549.763388 456.928058 
L 549.910454 484.232727 
L 550.05752 369.945518 
L 550.79285 369.945518 
L 550.939916 296.424561 
L 551.086982 472.188152 
L 551.234048 411.365775 
L 551.381114 453.113034 
L 551.52818 453.113034 
L 551.675246 472.188152 
L 551.822312 472.188152 
L 551.969378 484.232727 
L 552.116444 484.232727 
L 552.26351 369.945518 
L 552.410576 347.164376 
L 552.557642 461.451586 
L 552.704708 347.164376 
L 552.851774 347.164376 
L 552.99884 352.287408 
L 553.292972 352.287408 
L 553.440038 484.232727 
L 554.028302 484.232727 
L 554.175369 442.86697 
L 554.322435 484.232727 
L 554.469501 439.487949 
L 554.616567 439.487949 
L 554.763633 482.161714 
L 554.910699 482.161714 
L 555.057765 470.771144 
L 555.204831 484.232727 
L 555.351897 484.232727 
L 555.646029 366.293995 
L 555.793095 366.293995 
L 555.940161 484.232727 
L 556.087227 484.232727 
L 556.234293 456.928058 
L 556.381359 456.928058 
L 556.528425 321.767219 
L 556.675491 349.071888 
L 556.822557 349.071888 
L 557.116689 484.232727 
L 557.263755 369.945518 
L 557.410821 349.071888 
L 557.704953 349.071888 
L 557.852019 326.290747 
L 557.999085 449.407011 
L 558.146151 375.886055 
L 558.293217 387.930629 
L 558.734415 387.930629 
L 558.881481 368.855511 
L 559.028547 442.376467 
L 559.175613 339.316328 
L 559.322679 347.000875 
L 559.469745 347.000875 
L 559.616811 358.391446 
L 559.763877 358.391446 
L 559.910943 335.610305 
L 560.352141 335.610305 
L 560.499207 358.391446 
L 560.646273 339.316328 
L 560.793339 484.232727 
L 560.940406 472.842157 
L 561.087472 472.842157 
L 561.234538 337.681317 
L 561.381604 337.681317 
L 561.52867 264.160361 
L 561.822802 264.160361 
L 561.969868 203.337983 
L 562.705198 203.337983 
L 562.852264 214.728554 
L 563.587594 214.728554 
L 563.881726 349.071888 
L 564.028792 337.681317 
L 564.175858 223.230607 
L 564.322924 223.230607 
L 564.46999 409.131261 
L 564.617056 367.765504 
L 564.764122 367.765504 
L 564.911188 366.293995 
L 565.058254 366.293995 
L 565.20532 231.133156 
L 565.352386 231.133156 
L 565.499452 366.293995 
L 565.646518 231.133156 
L 566.381848 231.133156 
L 566.528914 366.293995 
L 566.970112 366.293995 
L 567.117178 305.471617 
L 567.264244 305.471617 
L 567.41131 366.293995 
L 567.852509 366.293995 
L 567.999575 324.928238 
L 568.293707 465.157609 
L 568.587839 335.610305 
L 568.881971 484.232727 
L 569.029037 357.192439 
L 569.176103 338.11732 
L 569.323169 338.11732 
L 569.470235 347.218877 
L 569.617301 366.293995 
L 570.058499 482.161714 
L 570.352631 482.161714 
L 570.499697 484.232727 
L 570.646763 430.822396 
L 570.793829 430.822396 
L 570.940895 317.025689 
L 571.087961 317.025689 
L 571.235027 181.86485 
L 571.382093 181.86485 
L 571.529159 223.230607 
L 571.823291 223.230607 
L 571.970357 337.681317 
L 572.117423 337.681317 
L 572.264489 352.287408 
L 573.146885 352.287408 
L 573.293951 407.823253 
L 573.588083 328.579761 
L 573.735149 328.579761 
L 573.882215 369.945518 
L 574.029281 352.287408 
L 574.176347 352.287408 
L 574.323413 381.55409 
L 574.764612 381.55409 
L 574.911678 373.815042 
L 575.794074 373.815042 
L 575.94114 423.41035 
L 576.088206 336.046307 
L 576.235272 336.046307 
L 576.382338 396.868685 
L 578.000064 396.868685 
L 578.294196 357.192439 
L 578.588328 357.192439 
L 578.735394 296.370061 
L 580.206054 296.370061 
L 580.35312 305.471617 
L 580.500186 288.24951 
L 580.794318 288.24951 
L 580.941384 260.944841 
L 581.235516 299.47658 
L 581.823781 299.47658 
L 581.970847 225.955624 
L 582.412045 225.955624 
L 582.559111 264.160361 
L 582.706177 222.794604 
L 583.000309 222.794604 
L 583.147375 203.337983 
L 584.029771 203.337983 
L 584.323903 285.033991 
L 584.765101 285.033991 
L 584.912167 369.945518 
L 585.500431 369.945518 
L 585.647497 484.232727 
L 585.794563 484.232727 
L 586.088695 382.044593 
L 586.235761 370.654022 
L 586.382827 370.654022 
L 586.676959 472.842157 
L 586.824025 472.842157 
L 586.971091 484.232727 
L 587.265223 335.610305 
L 587.559355 335.610305 
L 587.706421 349.889393 
L 588.147619 349.889393 
L 588.294686 274.787927 
L 588.735884 274.787927 
L 588.88295 409.131261 
L 589.177082 409.131261 
L 589.324148 348.308883 
L 589.471214 409.131261 
L 590.206544 409.131261 
L 590.500676 288.24951 
L 590.647742 162.408229 
L 593.147864 162.408229 
L 593.29493 256.203312 
L 595.353855 256.203312 
L 595.500921 317.025689 
L 596.236251 317.025689 
L 596.383317 484.232727 
L 596.530383 484.232727 
L 596.677449 439.487949 
L 596.824515 439.487949 
L 596.971581 484.232727 
L 597.118647 456.928058 
L 597.265713 484.232727 
L 597.412779 366.293995 
L 598.442241 366.293995 
L 598.589307 369.945518 
L 599.324637 369.945518 
L 599.471703 244.104236 
L 599.912901 244.104236 
L 600.059967 369.945518 
L 600.207033 369.945518 
L 600.354099 356.320433 
L 600.501165 356.320433 
L 600.795297 470.771144 
L 601.089429 470.771144 
L 601.236495 484.232727 
L 601.530627 396.868685 
L 601.82476 396.868685 
L 601.971826 261.707846 
L 602.707156 261.707846 
L 602.854222 329.99677 
L 603.148354 329.99677 
L 603.29542 409.131261 
L 604.03075 409.131261 
L 604.177816 407.823253 
L 604.471948 407.823253 
L 604.76608 272.662414 
L 606.383806 272.662414 
L 606.530872 223.230607 
L 606.97207 223.230607 
L 607.119136 181.86485 
L 610.060457 181.86485 
L 610.207523 108.343894 
L 614.472437 108.343894 
L 614.619503 149.70965 
L 615.207767 149.70965 
L 615.354833 88.887273 
L 617.119626 88.887273 
L 617.266692 149.70965 
L 617.854956 149.70965 
L 618.002022 108.343894 
L 623.884663 108.343894 
L 624.031729 149.70965 
L 625.649455 149.70965 
L 625.796521 148.510643 
L 628.737841 148.510643 
L 628.884907 149.70965 
L 631.532096 149.70965 
L 631.679162 157.612199 
L 634.620482 157.612199 
L 634.767548 149.70965 
L 640.503123 149.70965 
L 640.650189 108.343894 
L 643.003246 108.343894 
L 643.150312 88.887273 
L 871.690909 88.887273 
L 871.690909 88.887273 
" style="fill:none;stroke:#8dd3c7;stroke-linecap:square;stroke-width:1.5;"/>
   </g>
   <g id="line2d_16">
    <path clip-path="url(#pa991715717)" d="M 161.509091 349.071888 
L 161.656157 234.784679 
L 172.686109 234.784679 
L 172.833175 231.950661 
L 172.980241 231.950661 
L 173.127307 224.048112 
L 173.274373 224.048112 
L 173.421439 217.944074 
L 406.962281 217.944074 
L 407.109347 195.653436 
L 423.433675 195.653436 
L 423.580741 157.612199 
L 513.291015 157.612199 
L 513.438081 149.70965 
L 610.060457 149.70965 
L 610.207523 108.343894 
L 615.207767 108.343894 
L 615.354833 88.887273 
L 871.690909 88.887273 
L 871.690909 88.887273 
" style="fill:none;stroke:#feffb3;stroke-linecap:square;stroke-width:1.5;"/>
   </g>
   <g id="line2d_17">
    <path clip-path="url(#pa991715717)" d="M 161.509091 349.071888 
L 162.832685 349.071888 
L 162.979751 354.382037 
L 164.303345 354.382037 
L 164.450411 359.483562 
L 165.774006 359.483562 
L 165.921072 364.384661 
L 167.244666 364.384661 
L 167.391732 369.093207 
L 168.715326 369.093207 
L 168.862392 373.616765 
L 170.185986 373.616765 
L 170.333052 377.962604 
L 171.656646 377.962604 
L 171.803712 382.137705 
L 173.127307 382.137705 
L 173.274373 386.148776 
L 174.597967 386.148776 
L 174.745033 390.002262 
L 176.068627 390.002262 
L 176.215693 393.704353 
L 177.539287 393.704353 
L 177.686353 397.260998 
L 179.009947 397.260998 
L 179.157013 400.677911 
L 180.480608 400.677911 
L 180.627674 403.960581 
L 181.951268 403.960581 
L 182.098334 407.114283 
L 183.421928 407.114283 
L 183.568994 410.144084 
L 184.892588 410.144084 
L 185.039654 413.054851 
L 186.363249 413.054851 
L 186.510315 415.851261 
L 187.833909 415.851261 
L 187.980975 418.537806 
L 189.304569 418.537806 
L 189.451635 421.118804 
L 190.775229 421.118804 
L 190.922295 423.5984 
L 192.245889 423.5984 
L 192.392955 425.980579 
L 193.71655 425.980579 
L 193.863616 428.269167 
L 195.18721 428.269167 
L 195.334276 430.467843 
L 196.65787 430.467843 
L 196.804936 432.580138 
L 198.12853 432.580138 
L 198.275596 434.609445 
L 199.59919 434.609445 
L 199.746257 436.559026 
L 201.069851 436.559026 
L 201.216917 438.432013 
L 202.540511 438.432013 
L 202.687577 440.231414 
L 204.011171 440.231414 
L 204.158237 441.960121 
L 205.481831 441.960121 
L 205.628897 443.620912 
L 206.952492 443.620912 
L 207.099558 445.216453 
L 208.423152 445.216453 
L 208.570218 446.74931 
L 209.893812 446.74931 
L 210.040878 448.221945 
L 211.364472 448.221945 
L 211.511538 449.636723 
L 212.835132 449.636723 
L 212.982198 450.995918 
L 214.305793 450.995918 
L 214.452859 452.301713 
L 215.776453 452.301713 
L 215.923519 453.556207 
L 217.247113 453.556207 
L 217.394179 454.761415 
L 218.717773 454.761415 
L 218.864839 455.919272 
L 220.188434 455.919272 
L 220.3355 457.031641 
L 221.659094 457.031641 
L 221.80616 458.100307 
L 223.129754 458.100307 
L 223.27682 459.126988 
L 224.600414 459.126988 
L 224.74748 460.113333 
L 226.071074 460.113333 
L 226.21814 461.060926 
L 227.541735 461.060926 
L 227.688801 461.971292 
L 229.012395 461.971292 
L 229.159461 462.845891 
L 230.483055 462.845891 
L 230.630121 463.686129 
L 231.953715 463.686129 
L 232.100781 464.493356 
L 233.424375 464.493356 
L 233.571441 465.268869 
L 234.895036 465.268869 
L 235.042102 466.013914 
L 236.365696 466.013914 
L 236.512762 466.729688 
L 237.836356 466.729688 
L 237.983422 467.417341 
L 239.307016 467.417341 
L 239.454082 468.077977 
L 240.777677 468.077977 
L 240.924743 468.712659 
L 242.248337 468.712659 
L 242.395403 469.322406 
L 243.718997 469.322406 
L 243.866063 469.908197 
L 245.189657 469.908197 
L 245.336723 470.470974 
L 246.660317 470.470974 
L 246.807383 471.01164 
L 248.130978 471.01164 
L 248.278044 471.531065 
L 249.601638 471.531065 
L 249.748704 472.030083 
L 251.072298 472.030083 
L 251.219364 472.509496 
L 252.542958 472.509496 
L 252.690024 472.970074 
L 254.013618 472.970074 
L 254.160685 473.412557 
L 255.484279 473.412557 
L 255.631345 473.837656 
L 256.954939 473.837656 
L 257.102005 474.246054 
L 258.425599 474.246054 
L 258.572665 474.638406 
L 259.896259 474.638406 
L 260.043325 475.015344 
L 261.36692 475.015344 
L 261.513986 475.377474 
L 262.83758 475.377474 
L 262.984646 475.725375 
L 264.30824 475.725375 
L 264.455306 476.059609 
L 265.7789 476.059609 
L 265.925966 476.380712 
L 267.24956 476.380712 
L 267.396626 476.689199 
L 268.720221 476.689199 
L 268.867287 476.985566 
L 270.190881 476.985566 
L 270.337947 477.27029 
L 271.661541 477.27029 
L 271.808607 477.543827 
L 273.132201 477.543827 
L 273.279267 477.806618 
L 274.602861 477.806618 
L 274.749928 478.059085 
L 276.073522 478.059085 
L 276.220588 478.301633 
L 277.544182 478.301633 
L 277.691248 478.534651 
L 279.014842 478.534651 
L 279.161908 478.758515 
L 280.485502 478.758515 
L 280.632568 478.973584 
L 281.956163 478.973584 
L 282.103229 479.180203 
L 283.426823 479.180203 
L 283.573889 479.378705 
L 284.897483 479.378705 
L 285.044549 479.569408 
L 286.368143 479.569408 
L 286.515209 479.752619 
L 287.838803 479.752619 
L 287.985869 479.928632 
L 289.309464 479.928632 
L 289.603596 480.097729 
L 290.780124 480.097729 
L 291.074256 480.260183 
L 292.250784 480.260183 
L 292.544916 480.416255 
L 293.721444 480.416255 
L 294.015576 480.566195 
L 295.192105 480.566195 
L 295.486237 480.710245 
L 296.662765 480.710245 
L 296.956897 480.848635 
L 298.133425 480.848635 
L 298.427557 480.981588 
L 299.604085 480.981588 
L 299.898217 481.109317 
L 301.074745 481.109317 
L 301.368877 481.232029 
L 302.545406 481.232029 
L 302.839538 481.349919 
L 304.016066 481.349919 
L 304.310198 481.463178 
L 306.957386 481.571987 
L 307.251518 481.676521 
L 309.898707 481.776948 
L 310.192839 481.87343 
L 312.840027 481.966121 
L 313.134159 482.055171 
L 315.781348 482.140722 
L 316.07548 482.222912 
L 318.722668 482.301873 
L 319.0168 482.377731 
L 321.663988 482.45061 
L 321.95812 482.520625 
L 324.605309 482.587889 
L 324.899441 482.652511 
L 327.546629 482.714594 
L 327.987827 482.774238 
L 330.48795 482.831538 
L 330.929148 482.886588 
L 334.89993 482.990283 
L 335.341128 483.039096 
L 339.311911 483.131043 
L 339.753109 483.174326 
L 343.723892 483.255856 
L 344.16509 483.294235 
L 349.606533 483.40056 
L 350.194797 483.433254 
L 355.489173 483.523829 
L 356.224503 483.551679 
L 362.842474 483.652563 
L 363.577805 483.675356 
L 371.666436 483.776573 
L 372.695898 483.794495 
L 383.431717 483.901704 
L 384.755312 483.914709 
L 399.60898 484.019724 
L 401.81497 484.036132 
L 431.963505 484.144533 
L 437.110815 484.157597 
L 871.690909 484.232727 
L 871.690909 484.232727 
" style="fill:none;stroke:#bfbbd9;stroke-linecap:square;stroke-width:1.5;"/>
   </g>
   <g id="patch_3">
    <path d="M 126 504 
L 126 69.12 
" style="fill:none;stroke:#ffffff;stroke-linecap:square;stroke-linejoin:miter;stroke-width:0.8;"/>
   </g>
   <g id="patch_4">
    <path d="M 907.2 504 
L 907.2 69.12 
" style="fill:none;stroke:#ffffff;stroke-linecap:square;stroke-linejoin:miter;stroke-width:0.8;"/>
   </g>
   <g id="patch_5">
    <path d="M 126 504 
L 907.2 504 
" style="fill:none;stroke:#ffffff;stroke-linecap:square;stroke-linejoin:miter;stroke-width:0.8;"/>
   </g>
   <g id="patch_6">
    <path d="M 126 69.12 
L 907.2 69.12 
" style="fill:none;stroke:#ffffff;stroke-linecap:square;stroke-linejoin:miter;stroke-width:0.8;"/>
   </g>
   <g id="text_16">
    <!-- instance 15 with error 0.0 -->
    <g style="fill:#ffffff;" transform="translate(439.126875 63.12)scale(0.12 -0.12)">
     <defs>
      <path d="M 2834 3397 
L 2834 2853 
Q 2591 2978 2328 3040 
Q 2066 3103 1784 3103 
Q 1356 3103 1142 2972 
Q 928 2841 928 2578 
Q 928 2378 1081 2264 
Q 1234 2150 1697 2047 
L 1894 2003 
Q 2506 1872 2764 1633 
Q 3022 1394 3022 966 
Q 3022 478 2636 193 
Q 2250 -91 1575 -91 
Q 1294 -91 989 -36 
Q 684 19 347 128 
L 347 722 
Q 666 556 975 473 
Q 1284 391 1588 391 
Q 1994 391 2212 530 
Q 2431 669 2431 922 
Q 2431 1156 2273 1281 
Q 2116 1406 1581 1522 
L 1381 1569 
Q 847 1681 609 1914 
Q 372 2147 372 2553 
Q 372 3047 722 3315 
Q 1072 3584 1716 3584 
Q 2034 3584 2315 3537 
Q 2597 3491 2834 3397 
z
" id="DejaVuSans-73" transform="scale(0.015625)"/>
      <path d="M 3122 3366 
L 3122 2828 
Q 2878 2963 2633 3030 
Q 2388 3097 2138 3097 
Q 1578 3097 1268 2742 
Q 959 2388 959 1747 
Q 959 1106 1268 751 
Q 1578 397 2138 397 
Q 2388 397 2633 464 
Q 2878 531 3122 666 
L 3122 134 
Q 2881 22 2623 -34 
Q 2366 -91 2075 -91 
Q 1284 -91 818 406 
Q 353 903 353 1747 
Q 353 2603 823 3093 
Q 1294 3584 2113 3584 
Q 2378 3584 2631 3529 
Q 2884 3475 3122 3366 
z
" id="DejaVuSans-63" transform="scale(0.015625)"/>
      <path id="DejaVuSans-20" transform="scale(0.015625)"/>
      <path d="M 269 3500 
L 844 3500 
L 1563 769 
L 2278 3500 
L 2956 3500 
L 3675 769 
L 4391 3500 
L 4966 3500 
L 4050 0 
L 3372 0 
L 2619 2869 
L 1863 0 
L 1184 0 
L 269 3500 
z
" id="DejaVuSans-77" transform="scale(0.015625)"/>
      <path d="M 3513 2113 
L 3513 0 
L 2938 0 
L 2938 2094 
Q 2938 2591 2744 2837 
Q 2550 3084 2163 3084 
Q 1697 3084 1428 2787 
Q 1159 2491 1159 1978 
L 1159 0 
L 581 0 
L 581 4863 
L 1159 4863 
L 1159 2956 
Q 1366 3272 1645 3428 
Q 1925 3584 2291 3584 
Q 2894 3584 3203 3211 
Q 3513 2838 3513 2113 
z
" id="DejaVuSans-68" transform="scale(0.015625)"/>
      <path d="M 684 794 
L 1344 794 
L 1344 0 
L 684 0 
L 684 794 
z
" id="DejaVuSans-2e" transform="scale(0.015625)"/>
     </defs>
     <use xlink:href="#DejaVuSans-69"/>
     <use x="27.783203" xlink:href="#DejaVuSans-6e"/>
     <use x="91.162109" xlink:href="#DejaVuSans-73"/>
     <use x="143.261719" xlink:href="#DejaVuSans-74"/>
     <use x="182.470703" xlink:href="#DejaVuSans-61"/>
     <use x="243.75" xlink:href="#DejaVuSans-6e"/>
     <use x="307.128906" xlink:href="#DejaVuSans-63"/>
     <use x="362.109375" xlink:href="#DejaVuSans-65"/>
     <use x="423.632812" xlink:href="#DejaVuSans-20"/>
     <use x="455.419922" xlink:href="#DejaVuSans-31"/>
     <use x="519.042969" xlink:href="#DejaVuSans-35"/>
     <use x="582.666016" xlink:href="#DejaVuSans-20"/>
     <use x="614.453125" xlink:href="#DejaVuSans-77"/>
     <use x="696.240234" xlink:href="#DejaVuSans-69"/>
     <use x="724.023438" xlink:href="#DejaVuSans-74"/>
     <use x="763.232422" xlink:href="#DejaVuSans-68"/>
     <use x="826.611328" xlink:href="#DejaVuSans-20"/>
     <use x="858.398438" xlink:href="#DejaVuSans-65"/>
     <use x="919.921875" xlink:href="#DejaVuSans-72"/>
     <use x="959.285156" xlink:href="#DejaVuSans-72"/>
     <use x="998.148438" xlink:href="#DejaVuSans-6f"/>
     <use x="1059.330078" xlink:href="#DejaVuSans-72"/>
     <use x="1100.443359" xlink:href="#DejaVuSans-20"/>
     <use x="1132.230469" xlink:href="#DejaVuSans-30"/>
     <use x="1195.853516" xlink:href="#DejaVuSans-2e"/>
     <use x="1227.640625" xlink:href="#DejaVuSans-30"/>
    </g>
   </g>
   <g id="legend_1">
    <g id="patch_7">
     <path d="M 805.348438 499 
L 900.2 499 
Q 902.2 499 902.2 497 
L 902.2 453.965625 
Q 902.2 451.965625 900.2 451.965625 
L 805.348438 451.965625 
Q 803.348438 451.965625 803.348438 453.965625 
L 803.348438 497 
Q 803.348438 499 805.348438 499 
z
" style="opacity:0.8;stroke:#cccccc;stroke-linejoin:miter;"/>
    </g>
    <g id="line2d_18">
     <path d="M 807.348438 460.064062 
L 827.348438 460.064062 
" style="fill:none;stroke:#8dd3c7;stroke-linecap:square;stroke-width:1.5;"/>
    </g>
    <g id="line2d_19"/>
    <g id="text_17">
     <!-- cost -->
     <g style="fill:#ffffff;" transform="translate(835.348438 463.564062)scale(0.1 -0.1)">
      <use xlink:href="#DejaVuSans-63"/>
      <use x="54.980469" xlink:href="#DejaVuSans-6f"/>
      <use x="116.162109" xlink:href="#DejaVuSans-73"/>
      <use x="168.261719" xlink:href="#DejaVuSans-74"/>
     </g>
    </g>
    <g id="line2d_20">
     <path d="M 807.348438 474.742188 
L 827.348438 474.742188 
" style="fill:none;stroke:#feffb3;stroke-linecap:square;stroke-width:1.5;"/>
    </g>
    <g id="line2d_21"/>
    <g id="text_18">
     <!-- best cost -->
     <g style="fill:#ffffff;" transform="translate(835.348438 478.242188)scale(0.1 -0.1)">
      <defs>
       <path d="M 3116 1747 
Q 3116 2381 2855 2742 
Q 2594 3103 2138 3103 
Q 1681 3103 1420 2742 
Q 1159 2381 1159 1747 
Q 1159 1113 1420 752 
Q 1681 391 2138 391 
Q 2594 391 2855 752 
Q 3116 1113 3116 1747 
z
M 1159 2969 
Q 1341 3281 1617 3432 
Q 1894 3584 2278 3584 
Q 2916 3584 3314 3078 
Q 3713 2572 3713 1747 
Q 3713 922 3314 415 
Q 2916 -91 2278 -91 
Q 1894 -91 1617 61 
Q 1341 213 1159 525 
L 1159 0 
L 581 0 
L 581 4863 
L 1159 4863 
L 1159 2969 
z
" id="DejaVuSans-62" transform="scale(0.015625)"/>
      </defs>
      <use xlink:href="#DejaVuSans-62"/>
      <use x="63.476562" xlink:href="#DejaVuSans-65"/>
      <use x="125" xlink:href="#DejaVuSans-73"/>
      <use x="177.099609" xlink:href="#DejaVuSans-74"/>
      <use x="216.308594" xlink:href="#DejaVuSans-20"/>
      <use x="248.095703" xlink:href="#DejaVuSans-63"/>
      <use x="303.076172" xlink:href="#DejaVuSans-6f"/>
      <use x="364.257812" xlink:href="#DejaVuSans-73"/>
      <use x="416.357422" xlink:href="#DejaVuSans-74"/>
     </g>
    </g>
    <g id="line2d_22">
     <path d="M 807.348438 489.420313 
L 827.348438 489.420313 
" style="fill:none;stroke:#bfbbd9;stroke-linecap:square;stroke-width:1.5;"/>
    </g>
    <g id="line2d_23"/>
    <g id="text_19">
     <!-- temperature -->
     <g style="fill:#ffffff;" transform="translate(835.348438 492.920313)scale(0.1 -0.1)">
      <defs>
       <path d="M 3328 2828 
Q 3544 3216 3844 3400 
Q 4144 3584 4550 3584 
Q 5097 3584 5394 3201 
Q 5691 2819 5691 2113 
L 5691 0 
L 5113 0 
L 5113 2094 
Q 5113 2597 4934 2840 
Q 4756 3084 4391 3084 
Q 3944 3084 3684 2787 
Q 3425 2491 3425 1978 
L 3425 0 
L 2847 0 
L 2847 2094 
Q 2847 2600 2669 2842 
Q 2491 3084 2119 3084 
Q 1678 3084 1418 2786 
Q 1159 2488 1159 1978 
L 1159 0 
L 581 0 
L 581 3500 
L 1159 3500 
L 1159 2956 
Q 1356 3278 1631 3431 
Q 1906 3584 2284 3584 
Q 2666 3584 2933 3390 
Q 3200 3197 3328 2828 
z
" id="DejaVuSans-6d" transform="scale(0.015625)"/>
       <path d="M 1159 525 
L 1159 -1331 
L 581 -1331 
L 581 3500 
L 1159 3500 
L 1159 2969 
Q 1341 3281 1617 3432 
Q 1894 3584 2278 3584 
Q 2916 3584 3314 3078 
Q 3713 2572 3713 1747 
Q 3713 922 3314 415 
Q 2916 -91 2278 -91 
Q 1894 -91 1617 61 
Q 1341 213 1159 525 
z
M 3116 1747 
Q 3116 2381 2855 2742 
Q 2594 3103 2138 3103 
Q 1681 3103 1420 2742 
Q 1159 2381 1159 1747 
Q 1159 1113 1420 752 
Q 1681 391 2138 391 
Q 2594 391 2855 752 
Q 3116 1113 3116 1747 
z
" id="DejaVuSans-70" transform="scale(0.015625)"/>
       <path d="M 544 1381 
L 544 3500 
L 1119 3500 
L 1119 1403 
Q 1119 906 1312 657 
Q 1506 409 1894 409 
Q 2359 409 2629 706 
Q 2900 1003 2900 1516 
L 2900 3500 
L 3475 3500 
L 3475 0 
L 2900 0 
L 2900 538 
Q 2691 219 2414 64 
Q 2138 -91 1772 -91 
Q 1169 -91 856 284 
Q 544 659 544 1381 
z
M 1991 3584 
L 1991 3584 
z
" id="DejaVuSans-75" transform="scale(0.015625)"/>
      </defs>
      <use xlink:href="#DejaVuSans-74"/>
      <use x="39.208984" xlink:href="#DejaVuSans-65"/>
      <use x="100.732422" xlink:href="#DejaVuSans-6d"/>
      <use x="198.144531" xlink:href="#DejaVuSans-70"/>
      <use x="261.621094" xlink:href="#DejaVuSans-65"/>
      <use x="323.144531" xlink:href="#DejaVuSans-72"/>
      <use x="364.257812" xlink:href="#DejaVuSans-61"/>
      <use x="425.537109" xlink:href="#DejaVuSans-74"/>
      <use x="464.746094" xlink:href="#DejaVuSans-75"/>
      <use x="528.125" xlink:href="#DejaVuSans-72"/>
      <use x="566.988281" xlink:href="#DejaVuSans-65"/>
     </g>
    </g>
   </g>
  </g>
 </g>
 <defs>
  <clipPath id="pa991715717">
   <rect height="434.88" width="781.2" x="126" y="69.12"/>
  </clipPath>
 </defs>
</svg>
