<?xml version="1.0" encoding="utf-8" standalone="no"?>
<!DOCTYPE svg PUBLIC "-//W3C//DTD SVG 1.1//EN"
  "http://www.w3.org/Graphics/SVG/1.1/DTD/svg11.dtd">
<svg height="576pt" version="1.1" viewBox="0 0 1008 576" width="1008pt" xmlns="http://www.w3.org/2000/svg" xmlns:xlink="http://www.w3.org/1999/xlink">
 <metadata>
  <rdf:RDF xmlns:cc="http://creativecommons.org/ns#" xmlns:dc="http://purl.org/dc/elements/1.1/" xmlns:rdf="http://www.w3.org/1999/02/22-rdf-syntax-ns#">
   <cc:Work>
    <dc:type rdf:resource="http://purl.org/dc/dcmitype/StillImage"/>
    <dc:date>2022-01-07T00:32:46.024962</dc:date>
    <dc:format>image/svg+xml</dc:format>
    <dc:creator>
     <cc:Agent>
      <dc:title>Matplotlib v3.4.3, https://matplotlib.org/</dc:title>
     </cc:Agent>
    </dc:creator>
   </cc:Work>
  </rdf:RDF>
 </metadata>
 <defs>
  <style type="text/css">*{stroke-linecap:butt;stroke-linejoin:round;}</style>
 </defs>
 <g id="figure_1">
  <g id="patch_1">
   <path d="M 0 576 
L 1008 576 
L 1008 0 
L 0 0 
z
"/>
  </g>
  <g id="axes_1">
   <g id="patch_2">
    <path d="M 126 504 
L 907.2 504 
L 907.2 69.12 
L 126 69.12 
z
"/>
   </g>
   <g id="matplotlib.axis_1">
    <g id="xtick_1">
     <g id="line2d_1">
      <defs>
       <path d="M 0 0 
L 0 3.5 
" id="m44f27adec1" style="stroke:#ffffff;stroke-width:0.8;"/>
      </defs>
      <g>
       <use style="fill:#ffffff;stroke:#ffffff;stroke-width:0.8;" x="161.509091" xlink:href="#m44f27adec1" y="504"/>
      </g>
     </g>
     <g id="text_1">
      <!-- 0 -->
      <g style="fill:#ffffff;" transform="translate(158.327841 518.598438)scale(0.1 -0.1)">
       <defs>
        <path d="M 2034 4250 
Q 1547 4250 1301 3770 
Q 1056 3291 1056 2328 
Q 1056 1369 1301 889 
Q 1547 409 2034 409 
Q 2525 409 2770 889 
Q 3016 1369 3016 2328 
Q 3016 3291 2770 3770 
Q 2525 4250 2034 4250 
z
M 2034 4750 
Q 2819 4750 3233 4129 
Q 3647 3509 3647 2328 
Q 3647 1150 3233 529 
Q 2819 -91 2034 -91 
Q 1250 -91 836 529 
Q 422 1150 422 2328 
Q 422 3509 836 4129 
Q 1250 4750 2034 4750 
z
" id="DejaVuSans-30" transform="scale(0.015625)"/>
       </defs>
       <use xlink:href="#DejaVuSans-30"/>
      </g>
     </g>
    </g>
    <g id="xtick_2">
     <g id="line2d_2">
      <g>
       <use style="fill:#ffffff;stroke:#ffffff;stroke-width:0.8;" x="279.912195" xlink:href="#m44f27adec1" y="504"/>
      </g>
     </g>
     <g id="text_2">
      <!-- 500 -->
      <g style="fill:#ffffff;" transform="translate(270.368445 518.598438)scale(0.1 -0.1)">
       <defs>
        <path d="M 691 4666 
L 3169 4666 
L 3169 4134 
L 1269 4134 
L 1269 2991 
Q 1406 3038 1543 3061 
Q 1681 3084 1819 3084 
Q 2600 3084 3056 2656 
Q 3513 2228 3513 1497 
Q 3513 744 3044 326 
Q 2575 -91 1722 -91 
Q 1428 -91 1123 -41 
Q 819 9 494 109 
L 494 744 
Q 775 591 1075 516 
Q 1375 441 1709 441 
Q 2250 441 2565 725 
Q 2881 1009 2881 1497 
Q 2881 1984 2565 2268 
Q 2250 2553 1709 2553 
Q 1456 2553 1204 2497 
Q 953 2441 691 2322 
L 691 4666 
z
" id="DejaVuSans-35" transform="scale(0.015625)"/>
       </defs>
       <use xlink:href="#DejaVuSans-35"/>
       <use x="63.623047" xlink:href="#DejaVuSans-30"/>
       <use x="127.246094" xlink:href="#DejaVuSans-30"/>
      </g>
     </g>
    </g>
    <g id="xtick_3">
     <g id="line2d_3">
      <g>
       <use style="fill:#ffffff;stroke:#ffffff;stroke-width:0.8;" x="398.315299" xlink:href="#m44f27adec1" y="504"/>
      </g>
     </g>
     <g id="text_3">
      <!-- 1000 -->
      <g style="fill:#ffffff;" transform="translate(385.590299 518.598438)scale(0.1 -0.1)">
       <defs>
        <path d="M 794 531 
L 1825 531 
L 1825 4091 
L 703 3866 
L 703 4441 
L 1819 4666 
L 2450 4666 
L 2450 531 
L 3481 531 
L 3481 0 
L 794 0 
L 794 531 
z
" id="DejaVuSans-31" transform="scale(0.015625)"/>
       </defs>
       <use xlink:href="#DejaVuSans-31"/>
       <use x="63.623047" xlink:href="#DejaVuSans-30"/>
       <use x="127.246094" xlink:href="#DejaVuSans-30"/>
       <use x="190.869141" xlink:href="#DejaVuSans-30"/>
      </g>
     </g>
    </g>
    <g id="xtick_4">
     <g id="line2d_4">
      <g>
       <use style="fill:#ffffff;stroke:#ffffff;stroke-width:0.8;" x="516.718403" xlink:href="#m44f27adec1" y="504"/>
      </g>
     </g>
     <g id="text_4">
      <!-- 1500 -->
      <g style="fill:#ffffff;" transform="translate(503.993403 518.598438)scale(0.1 -0.1)">
       <use xlink:href="#DejaVuSans-31"/>
       <use x="63.623047" xlink:href="#DejaVuSans-35"/>
       <use x="127.246094" xlink:href="#DejaVuSans-30"/>
       <use x="190.869141" xlink:href="#DejaVuSans-30"/>
      </g>
     </g>
    </g>
    <g id="xtick_5">
     <g id="line2d_5">
      <g>
       <use style="fill:#ffffff;stroke:#ffffff;stroke-width:0.8;" x="635.121507" xlink:href="#m44f27adec1" y="504"/>
      </g>
     </g>
     <g id="text_5">
      <!-- 2000 -->
      <g style="fill:#ffffff;" transform="translate(622.396507 518.598438)scale(0.1 -0.1)">
       <defs>
        <path d="M 1228 531 
L 3431 531 
L 3431 0 
L 469 0 
L 469 531 
Q 828 903 1448 1529 
Q 2069 2156 2228 2338 
Q 2531 2678 2651 2914 
Q 2772 3150 2772 3378 
Q 2772 3750 2511 3984 
Q 2250 4219 1831 4219 
Q 1534 4219 1204 4116 
Q 875 4013 500 3803 
L 500 4441 
Q 881 4594 1212 4672 
Q 1544 4750 1819 4750 
Q 2544 4750 2975 4387 
Q 3406 4025 3406 3419 
Q 3406 3131 3298 2873 
Q 3191 2616 2906 2266 
Q 2828 2175 2409 1742 
Q 1991 1309 1228 531 
z
" id="DejaVuSans-32" transform="scale(0.015625)"/>
       </defs>
       <use xlink:href="#DejaVuSans-32"/>
       <use x="63.623047" xlink:href="#DejaVuSans-30"/>
       <use x="127.246094" xlink:href="#DejaVuSans-30"/>
       <use x="190.869141" xlink:href="#DejaVuSans-30"/>
      </g>
     </g>
    </g>
    <g id="xtick_6">
     <g id="line2d_6">
      <g>
       <use style="fill:#ffffff;stroke:#ffffff;stroke-width:0.8;" x="753.524611" xlink:href="#m44f27adec1" y="504"/>
      </g>
     </g>
     <g id="text_6">
      <!-- 2500 -->
      <g style="fill:#ffffff;" transform="translate(740.799611 518.598438)scale(0.1 -0.1)">
       <use xlink:href="#DejaVuSans-32"/>
       <use x="63.623047" xlink:href="#DejaVuSans-35"/>
       <use x="127.246094" xlink:href="#DejaVuSans-30"/>
       <use x="190.869141" xlink:href="#DejaVuSans-30"/>
      </g>
     </g>
    </g>
    <g id="xtick_7">
     <g id="line2d_7">
      <g>
       <use style="fill:#ffffff;stroke:#ffffff;stroke-width:0.8;" x="871.927715" xlink:href="#m44f27adec1" y="504"/>
      </g>
     </g>
     <g id="text_7">
      <!-- 3000 -->
      <g style="fill:#ffffff;" transform="translate(859.202715 518.598438)scale(0.1 -0.1)">
       <defs>
        <path d="M 2597 2516 
Q 3050 2419 3304 2112 
Q 3559 1806 3559 1356 
Q 3559 666 3084 287 
Q 2609 -91 1734 -91 
Q 1441 -91 1130 -33 
Q 819 25 488 141 
L 488 750 
Q 750 597 1062 519 
Q 1375 441 1716 441 
Q 2309 441 2620 675 
Q 2931 909 2931 1356 
Q 2931 1769 2642 2001 
Q 2353 2234 1838 2234 
L 1294 2234 
L 1294 2753 
L 1863 2753 
Q 2328 2753 2575 2939 
Q 2822 3125 2822 3475 
Q 2822 3834 2567 4026 
Q 2313 4219 1838 4219 
Q 1578 4219 1281 4162 
Q 984 4106 628 3988 
L 628 4550 
Q 988 4650 1302 4700 
Q 1616 4750 1894 4750 
Q 2613 4750 3031 4423 
Q 3450 4097 3450 3541 
Q 3450 3153 3228 2886 
Q 3006 2619 2597 2516 
z
" id="DejaVuSans-33" transform="scale(0.015625)"/>
       </defs>
       <use xlink:href="#DejaVuSans-33"/>
       <use x="63.623047" xlink:href="#DejaVuSans-30"/>
       <use x="127.246094" xlink:href="#DejaVuSans-30"/>
       <use x="190.869141" xlink:href="#DejaVuSans-30"/>
      </g>
     </g>
    </g>
    <g id="text_8">
     <!-- iteration -->
     <g style="fill:#ffffff;" transform="translate(495.477344 532.276562)scale(0.1 -0.1)">
      <defs>
       <path d="M 603 3500 
L 1178 3500 
L 1178 0 
L 603 0 
L 603 3500 
z
M 603 4863 
L 1178 4863 
L 1178 4134 
L 603 4134 
L 603 4863 
z
" id="DejaVuSans-69" transform="scale(0.015625)"/>
       <path d="M 1172 4494 
L 1172 3500 
L 2356 3500 
L 2356 3053 
L 1172 3053 
L 1172 1153 
Q 1172 725 1289 603 
Q 1406 481 1766 481 
L 2356 481 
L 2356 0 
L 1766 0 
Q 1100 0 847 248 
Q 594 497 594 1153 
L 594 3053 
L 172 3053 
L 172 3500 
L 594 3500 
L 594 4494 
L 1172 4494 
z
" id="DejaVuSans-74" transform="scale(0.015625)"/>
       <path d="M 3597 1894 
L 3597 1613 
L 953 1613 
Q 991 1019 1311 708 
Q 1631 397 2203 397 
Q 2534 397 2845 478 
Q 3156 559 3463 722 
L 3463 178 
Q 3153 47 2828 -22 
Q 2503 -91 2169 -91 
Q 1331 -91 842 396 
Q 353 884 353 1716 
Q 353 2575 817 3079 
Q 1281 3584 2069 3584 
Q 2775 3584 3186 3129 
Q 3597 2675 3597 1894 
z
M 3022 2063 
Q 3016 2534 2758 2815 
Q 2500 3097 2075 3097 
Q 1594 3097 1305 2825 
Q 1016 2553 972 2059 
L 3022 2063 
z
" id="DejaVuSans-65" transform="scale(0.015625)"/>
       <path d="M 2631 2963 
Q 2534 3019 2420 3045 
Q 2306 3072 2169 3072 
Q 1681 3072 1420 2755 
Q 1159 2438 1159 1844 
L 1159 0 
L 581 0 
L 581 3500 
L 1159 3500 
L 1159 2956 
Q 1341 3275 1631 3429 
Q 1922 3584 2338 3584 
Q 2397 3584 2469 3576 
Q 2541 3569 2628 3553 
L 2631 2963 
z
" id="DejaVuSans-72" transform="scale(0.015625)"/>
       <path d="M 2194 1759 
Q 1497 1759 1228 1600 
Q 959 1441 959 1056 
Q 959 750 1161 570 
Q 1363 391 1709 391 
Q 2188 391 2477 730 
Q 2766 1069 2766 1631 
L 2766 1759 
L 2194 1759 
z
M 3341 1997 
L 3341 0 
L 2766 0 
L 2766 531 
Q 2569 213 2275 61 
Q 1981 -91 1556 -91 
Q 1019 -91 701 211 
Q 384 513 384 1019 
Q 384 1609 779 1909 
Q 1175 2209 1959 2209 
L 2766 2209 
L 2766 2266 
Q 2766 2663 2505 2880 
Q 2244 3097 1772 3097 
Q 1472 3097 1187 3025 
Q 903 2953 641 2809 
L 641 3341 
Q 956 3463 1253 3523 
Q 1550 3584 1831 3584 
Q 2591 3584 2966 3190 
Q 3341 2797 3341 1997 
z
" id="DejaVuSans-61" transform="scale(0.015625)"/>
       <path d="M 1959 3097 
Q 1497 3097 1228 2736 
Q 959 2375 959 1747 
Q 959 1119 1226 758 
Q 1494 397 1959 397 
Q 2419 397 2687 759 
Q 2956 1122 2956 1747 
Q 2956 2369 2687 2733 
Q 2419 3097 1959 3097 
z
M 1959 3584 
Q 2709 3584 3137 3096 
Q 3566 2609 3566 1747 
Q 3566 888 3137 398 
Q 2709 -91 1959 -91 
Q 1206 -91 779 398 
Q 353 888 353 1747 
Q 353 2609 779 3096 
Q 1206 3584 1959 3584 
z
" id="DejaVuSans-6f" transform="scale(0.015625)"/>
       <path d="M 3513 2113 
L 3513 0 
L 2938 0 
L 2938 2094 
Q 2938 2591 2744 2837 
Q 2550 3084 2163 3084 
Q 1697 3084 1428 2787 
Q 1159 2491 1159 1978 
L 1159 0 
L 581 0 
L 581 3500 
L 1159 3500 
L 1159 2956 
Q 1366 3272 1645 3428 
Q 1925 3584 2291 3584 
Q 2894 3584 3203 3211 
Q 3513 2838 3513 2113 
z
" id="DejaVuSans-6e" transform="scale(0.015625)"/>
      </defs>
      <use xlink:href="#DejaVuSans-69"/>
      <use x="27.783203" xlink:href="#DejaVuSans-74"/>
      <use x="66.992188" xlink:href="#DejaVuSans-65"/>
      <use x="128.515625" xlink:href="#DejaVuSans-72"/>
      <use x="169.628906" xlink:href="#DejaVuSans-61"/>
      <use x="230.908203" xlink:href="#DejaVuSans-74"/>
      <use x="270.117188" xlink:href="#DejaVuSans-69"/>
      <use x="297.900391" xlink:href="#DejaVuSans-6f"/>
      <use x="359.082031" xlink:href="#DejaVuSans-6e"/>
     </g>
    </g>
   </g>
   <g id="matplotlib.axis_2">
    <g id="ytick_1">
     <g id="line2d_8">
      <defs>
       <path d="M 0 0 
L -3.5 0 
" id="mfe684f3c96" style="stroke:#ffffff;stroke-width:0.8;"/>
      </defs>
      <g>
       <use style="fill:#ffffff;stroke:#ffffff;stroke-width:0.8;" x="126" xlink:href="#mfe684f3c96" y="484.232816"/>
      </g>
     </g>
     <g id="text_9">
      <!-- 0 -->
      <g style="fill:#ffffff;" transform="translate(112.6375 488.032034)scale(0.1 -0.1)">
       <use xlink:href="#DejaVuSans-30"/>
      </g>
     </g>
    </g>
    <g id="ytick_2">
     <g id="line2d_9">
      <g>
       <use style="fill:#ffffff;stroke:#ffffff;stroke-width:0.8;" x="126" xlink:href="#mfe684f3c96" y="432.083292"/>
      </g>
     </g>
     <g id="text_10">
      <!-- 5000 -->
      <g style="fill:#ffffff;" transform="translate(93.55 435.88251)scale(0.1 -0.1)">
       <use xlink:href="#DejaVuSans-35"/>
       <use x="63.623047" xlink:href="#DejaVuSans-30"/>
       <use x="127.246094" xlink:href="#DejaVuSans-30"/>
       <use x="190.869141" xlink:href="#DejaVuSans-30"/>
      </g>
     </g>
    </g>
    <g id="ytick_3">
     <g id="line2d_10">
      <g>
       <use style="fill:#ffffff;stroke:#ffffff;stroke-width:0.8;" x="126" xlink:href="#mfe684f3c96" y="379.933767"/>
      </g>
     </g>
     <g id="text_11">
      <!-- 10000 -->
      <g style="fill:#ffffff;" transform="translate(87.1875 383.732986)scale(0.1 -0.1)">
       <use xlink:href="#DejaVuSans-31"/>
       <use x="63.623047" xlink:href="#DejaVuSans-30"/>
       <use x="127.246094" xlink:href="#DejaVuSans-30"/>
       <use x="190.869141" xlink:href="#DejaVuSans-30"/>
       <use x="254.492188" xlink:href="#DejaVuSans-30"/>
      </g>
     </g>
    </g>
    <g id="ytick_4">
     <g id="line2d_11">
      <g>
       <use style="fill:#ffffff;stroke:#ffffff;stroke-width:0.8;" x="126" xlink:href="#mfe684f3c96" y="327.784243"/>
      </g>
     </g>
     <g id="text_12">
      <!-- 15000 -->
      <g style="fill:#ffffff;" transform="translate(87.1875 331.583462)scale(0.1 -0.1)">
       <use xlink:href="#DejaVuSans-31"/>
       <use x="63.623047" xlink:href="#DejaVuSans-35"/>
       <use x="127.246094" xlink:href="#DejaVuSans-30"/>
       <use x="190.869141" xlink:href="#DejaVuSans-30"/>
       <use x="254.492188" xlink:href="#DejaVuSans-30"/>
      </g>
     </g>
    </g>
    <g id="ytick_5">
     <g id="line2d_12">
      <g>
       <use style="fill:#ffffff;stroke:#ffffff;stroke-width:0.8;" x="126" xlink:href="#mfe684f3c96" y="275.634719"/>
      </g>
     </g>
     <g id="text_13">
      <!-- 20000 -->
      <g style="fill:#ffffff;" transform="translate(87.1875 279.433938)scale(0.1 -0.1)">
       <use xlink:href="#DejaVuSans-32"/>
       <use x="63.623047" xlink:href="#DejaVuSans-30"/>
       <use x="127.246094" xlink:href="#DejaVuSans-30"/>
       <use x="190.869141" xlink:href="#DejaVuSans-30"/>
       <use x="254.492188" xlink:href="#DejaVuSans-30"/>
      </g>
     </g>
    </g>
    <g id="ytick_6">
     <g id="line2d_13">
      <g>
       <use style="fill:#ffffff;stroke:#ffffff;stroke-width:0.8;" x="126" xlink:href="#mfe684f3c96" y="223.485195"/>
      </g>
     </g>
     <g id="text_14">
      <!-- 25000 -->
      <g style="fill:#ffffff;" transform="translate(87.1875 227.284413)scale(0.1 -0.1)">
       <use xlink:href="#DejaVuSans-32"/>
       <use x="63.623047" xlink:href="#DejaVuSans-35"/>
       <use x="127.246094" xlink:href="#DejaVuSans-30"/>
       <use x="190.869141" xlink:href="#DejaVuSans-30"/>
       <use x="254.492188" xlink:href="#DejaVuSans-30"/>
      </g>
     </g>
    </g>
    <g id="ytick_7">
     <g id="line2d_14">
      <g>
       <use style="fill:#ffffff;stroke:#ffffff;stroke-width:0.8;" x="126" xlink:href="#mfe684f3c96" y="171.33567"/>
      </g>
     </g>
     <g id="text_15">
      <!-- 30000 -->
      <g style="fill:#ffffff;" transform="translate(87.1875 175.134889)scale(0.1 -0.1)">
       <use xlink:href="#DejaVuSans-33"/>
       <use x="63.623047" xlink:href="#DejaVuSans-30"/>
       <use x="127.246094" xlink:href="#DejaVuSans-30"/>
       <use x="190.869141" xlink:href="#DejaVuSans-30"/>
       <use x="254.492188" xlink:href="#DejaVuSans-30"/>
      </g>
     </g>
    </g>
    <g id="ytick_8">
     <g id="line2d_15">
      <g>
       <use style="fill:#ffffff;stroke:#ffffff;stroke-width:0.8;" x="126" xlink:href="#mfe684f3c96" y="119.186146"/>
      </g>
     </g>
     <g id="text_16">
      <!-- 35000 -->
      <g style="fill:#ffffff;" transform="translate(87.1875 122.985365)scale(0.1 -0.1)">
       <use xlink:href="#DejaVuSans-33"/>
       <use x="63.623047" xlink:href="#DejaVuSans-35"/>
       <use x="127.246094" xlink:href="#DejaVuSans-30"/>
       <use x="190.869141" xlink:href="#DejaVuSans-30"/>
       <use x="254.492188" xlink:href="#DejaVuSans-30"/>
      </g>
     </g>
    </g>
   </g>
   <g id="line2d_16">
    <path clip-path="url(#p1ae7bd38a0)" d="M 161.509091 195.741648 
L 161.982703 216.622317 
L 162.456316 254.910498 
L 162.693122 238.838015 
L 162.929928 258.070759 
L 163.166734 233.164146 
L 163.403541 243.437603 
L 163.640347 287.243203 
L 163.877153 262.33659 
L 164.350765 248.058051 
L 164.587572 225.362578 
L 164.824378 238.744145 
L 165.061184 237.899323 
L 165.534796 215.151701 
L 165.771603 214.202579 
L 166.245215 257.152928 
L 166.482021 262.34702 
L 166.955634 252.407321 
L 167.19244 229.899586 
L 167.666052 252.668068 
L 167.902859 245.367135 
L 168.139665 256.078647 
L 168.613277 289.350044 
L 168.850083 278.137896 
L 169.323696 304.880172 
L 169.560502 290.132287 
L 169.797308 300.864659 
L 170.270921 275.426121 
L 170.507727 268.125187 
L 170.744533 275.426121 
L 170.981339 279.087017 
L 171.218145 256.391544 
L 171.454952 267.103057 
L 171.928564 303.180098 
L 172.16537 317.886263 
L 172.638983 272.297149 
L 172.875789 293.09438 
L 173.112595 281.058269 
L 173.349401 275.864177 
L 173.586208 254.816629 
L 173.823014 259.562236 
L 174.05982 243.239434 
L 174.296626 238.493828 
L 174.533432 259.291058 
L 174.770239 248.07891 
L 175.007045 246.545714 
L 175.243851 247.390537 
L 175.480657 246.889901 
L 175.717463 236.157529 
L 175.95427 247.369677 
L 176.191076 251.030573 
L 176.427882 261.742086 
L 176.664688 245.669602 
L 176.901494 256.401974 
L 177.138301 252.741078 
L 177.375107 242.029566 
L 178.085525 277.115765 
L 179.03275 349.144688 
L 179.269557 362.526256 
L 179.979975 378.233693 
L 180.216781 374.572796 
L 180.453588 361.191228 
L 180.690394 356.049285 
L 181.164006 330.589888 
L 181.400812 354.724687 
L 181.637619 329.818075 
L 181.874425 331.351271 
L 182.111231 317.18746 
L 182.584843 305.704135 
L 182.82165 320.4103 
L 183.058456 309.969966 
L 183.295262 310.470601 
L 183.532068 298.757818 
L 184.005681 324.165066 
L 184.242487 323.320244 
L 184.479293 312.108096 
L 184.716099 292.531165 
L 184.952906 302.9715 
L 185.189712 322.548431 
L 185.426518 323.393253 
L 185.90013 290.674642 
L 186.373743 248.662985 
L 186.847355 283.509297 
L 187.084161 269.345486 
L 187.320968 276.64642 
L 187.79458 274.268401 
L 188.031386 253.471171 
L 188.268192 278.377784 
L 188.504999 263.671618 
L 188.978611 247.286238 
L 189.68903 278.79498 
L 189.925836 278.294345 
L 190.399448 280.776662 
L 190.636255 294.940473 
L 190.873061 295.785295 
L 191.109867 307.821405 
L 191.346673 328.618636 
L 191.583479 327.669514 
L 191.820286 334.970448 
L 192.057092 323.257664 
L 192.293898 342.834596 
L 193.241123 301.86593 
L 193.477929 310.950377 
L 193.714735 311.451012 
L 193.951541 327.523495 
L 194.188348 318.439048 
L 194.898766 255.473713 
L 195.135572 243.437603 
L 195.372379 238.691996 
L 195.609185 219.459251 
L 196.082797 254.003096 
L 196.55641 268.229486 
L 196.793216 245.721752 
L 197.266828 254.64975 
L 197.740441 244.762201 
L 197.977247 255.974348 
L 198.214053 255.129526 
L 198.450859 259.875133 
L 198.687666 270.315467 
L 198.924472 249.518237 
L 199.161278 238.869304 
L 199.398084 213.962692 
L 199.63489 234.759922 
L 199.871697 218.687438 
L 200.108503 241.122164 
L 200.345309 236.376557 
L 200.582115 234.843361 
L 200.818921 235.792482 
L 201.055728 246.503995 
L 201.292534 247.348817 
L 201.52934 238.26437 
L 201.766146 292.416436 
L 202.002952 279.034868 
L 202.239759 289.475203 
L 202.476565 279.034868 
L 202.713371 299.832098 
L 202.950177 283.759615 
L 203.186984 284.604437 
L 203.42379 273.955504 
L 204.371015 315.998451 
L 205.081433 277.543391 
L 205.318239 255.035657 
L 205.555046 275.718158 
L 205.791852 279.90055 
L 206.50227 333.291233 
L 206.975883 358.385584 
L 207.449495 325.771271 
L 207.686301 336.983419 
L 207.923108 335.450223 
L 208.39672 294.13737 
L 208.633526 285.052923 
L 208.870333 280.870531 
L 209.107139 258.435806 
L 209.343945 274.508289 
L 209.580751 275.457411 
L 209.817557 251.322611 
L 210.054364 275.457411 
L 210.29117 264.808478 
L 210.527976 272.109411 
L 210.764782 285.490979 
L 211.001588 287.024175 
L 211.238395 270.951692 
L 211.475201 281.600624 
L 211.712007 257.465825 
L 211.948813 255.932629 
L 212.185619 235.250127 
L 212.422426 234.301006 
L 212.659232 258.435806 
L 212.896038 247.703434 
L 213.132844 270.138159 
L 213.36965 255.974348 
L 213.606457 248.673415 
L 214.080069 271.921673 
L 214.316875 249.486947 
L 214.553682 256.787881 
L 214.790488 245.575733 
L 215.027294 241.914837 
L 215.2641 252.626349 
L 215.737713 282.591465 
L 215.974519 277.449522 
L 216.211325 292.155688 
L 216.448131 284.854755 
L 216.684937 307.28948 
L 217.15855 268.531954 
L 217.395356 284.604437 
L 217.632162 273.955504 
L 217.868968 294.638006 
L 218.342581 303.96234 
L 218.816193 282.518456 
L 219.052999 263.285712 
L 219.289806 275.321822 
L 219.763418 255.79704 
L 220.237031 296.171202 
L 220.473837 284.458418 
L 220.710643 295.169931 
L 220.947449 281.00612 
L 221.184255 284.667017 
L 221.421062 279.525073 
L 221.657868 280.474195 
L 221.894674 257.778722 
L 222.13148 256.8296 
L 222.605093 277.835429 
L 223.078705 238.952744 
L 223.315511 291.728062 
L 223.552317 272.495318 
L 223.789124 277.68941 
L 224.02593 297.266342 
L 224.262736 300.927238 
L 224.499542 290.486903 
L 224.736348 274.164102 
L 224.973155 290.236586 
L 225.209961 294.982192 
L 225.446767 293.448996 
L 225.683573 294.293819 
L 225.92038 295.827015 
L 226.157186 306.559387 
L 226.393992 286.982455 
L 226.630798 300.364023 
L 226.867604 291.279576 
L 227.104411 303.315686 
L 227.341217 292.666754 
L 227.578023 311.899498 
L 227.814829 308.238601 
L 228.051635 300.937668 
L 228.525248 259.009451 
L 228.99886 256.631432 
L 229.235666 245.89906 
L 229.472473 249.559957 
L 229.709279 238.347809 
L 229.946085 257.580554 
L 230.656504 196.774208 
L 231.603729 268.292066 
L 231.840535 243.385453 
L 232.077341 254.597601 
L 232.314147 238.2748 
L 232.550953 248.923733 
L 233.024566 218.979476 
L 233.261372 241.48721 
L 233.498178 240.538089 
L 233.734984 236.877193 
L 233.971791 214.369458 
L 234.208597 215.21428 
L 234.445403 315.466526 
L 234.682209 327.502636 
L 234.919015 347.079567 
L 235.392628 329.046262 
L 235.629434 306.350789 
L 235.86624 296.077332 
L 236.103046 276.500401 
L 236.339853 272.839504 
L 236.576659 284.051652 
L 236.813465 303.628584 
L 237.287078 266.414683 
L 237.523884 264.881487 
L 237.76069 270.07558 
L 238.471109 302.397855 
L 238.707915 277.491242 
L 238.944721 302.397855 
L 239.181527 295.096921 
L 239.418333 296.630117 
L 239.65514 284.594007 
L 239.891946 263.796777 
L 240.128752 267.457674 
L 240.365558 279.170457 
L 240.602364 267.958309 
L 240.839171 262.722497 
L 241.075977 283.404998 
L 241.549589 248.016331 
L 241.786395 251.677227 
L 242.496814 199.788451 
L 242.73362 213.952262 
L 243.207233 258.091619 
L 243.444039 246.879471 
L 243.680845 260.261039 
L 243.917651 255.119096 
L 244.154458 264.203543 
L 244.391264 286.638269 
L 244.62807 275.905896 
L 244.864876 275.061074 
L 245.101682 254.545451 
L 245.338489 255.494573 
L 245.575295 260.688665 
L 245.812101 269.99214 
L 246.048907 265.809749 
L 246.52252 278.304775 
L 246.759326 263.598609 
L 246.996132 278.304775 
L 247.232938 261.981973 
L 247.469744 266.164365 
L 247.706551 267.113487 
L 247.943357 256.673152 
L 248.180163 261.418759 
L 248.416969 256.673152 
L 248.890582 225.884073 
L 249.127388 248.318798 
L 249.364194 233.570913 
L 249.601 234.071548 
L 250.311419 273.924215 
L 250.548225 254.69147 
L 250.785031 258.873862 
L 251.021838 239.29693 
L 251.49545 282.664475 
L 251.732256 298.736958 
L 251.969062 300.270154 
L 252.205869 295.524547 
L 252.679481 271.702645 
L 253.3899 303.148808 
L 253.626706 286.826007 
L 253.863512 291.96795 
L 254.100318 311.544881 
L 254.573931 302.742042 
L 254.810737 314.454825 
L 255.047543 319.200431 
L 255.284349 315.01804 
L 255.521156 290.88324 
L 255.757962 281.798793 
L 256.231574 319.31516 
L 256.46838 324.509253 
L 256.705187 312.79647 
L 257.178799 275.353111 
L 257.415605 290.059277 
L 257.652411 279.618943 
L 257.889218 291.331726 
L 258.126024 281.058269 
L 258.36283 291.498604 
L 258.599636 295.680996 
L 258.836442 290.935389 
L 259.310055 265.496851 
L 259.783667 286.857297 
L 260.020473 303.180098 
L 260.25728 279.045298 
L 260.494086 279.545933 
L 260.730892 284.687876 
L 261.204505 259.812553 
L 261.441311 234.905941 
L 262.151729 304.629854 
L 262.388536 282.12212 
L 262.625342 292.833632 
L 262.862148 237.847174 
L 263.098954 242.989117 
L 263.33576 259.0616 
L 263.572567 259.562236 
L 264.046179 289.579502 
L 264.282985 288.734679 
L 264.519791 283.592736 
L 264.756598 283.092101 
L 265.23021 312.79647 
L 265.467016 293.219538 
L 265.703822 298.413631 
L 266.177435 328.702075 
L 266.414241 309.125143 
L 266.651047 328.702075 
L 266.887854 319.617628 
L 267.361466 286.659128 
L 267.598272 271.911243 
L 268.308691 337.192017 
L 268.545497 361.326817 
L 268.782303 346.620651 
L 269.019109 324.112917 
L 269.255916 335.325064 
L 269.492722 330.130972 
L 269.729528 352.638706 
L 270.676753 294.804884 
L 270.913559 295.649706 
L 271.150365 300.843799 
L 271.387171 312.556582 
L 272.334396 266.863169 
L 272.808009 220.293644 
L 273.044815 219.448822 
L 273.281621 232.830389 
L 273.518427 213.253458 
L 273.755234 222.337905 
L 273.99204 208.174094 
L 274.228846 232.308894 
L 274.465652 244.021677 
L 274.702458 244.522313 
L 274.939265 254.795769 
L 275.176071 274.028514 
L 275.412877 273.079392 
L 275.649683 283.811764 
L 276.123296 242.071285 
L 276.360102 246.253677 
L 276.596908 284.427129 
L 276.833714 288.609521 
L 277.07052 242.071285 
L 277.307327 256.235096 
L 277.544133 240.162613 
L 277.780939 259.395357 
L 278.017745 234.488744 
L 278.254552 245.700892 
L 278.491358 268.208627 
L 278.96497 221.566092 
L 279.201776 237.888893 
L 279.675389 204.492338 
L 279.912195 229.398951 
L 280.149001 230.348072 
L 280.385807 209.832449 
L 280.622614 229.409381 
L 280.85942 204.502768 
L 281.096226 199.757161 
L 281.333032 189.045649 
L 281.569838 166.350176 
L 282.280257 138.710928 
L 282.517063 161.218663 
L 282.753869 369.462143 
L 282.990676 369.962778 
L 283.227482 349.280277 
L 283.464288 362.661845 
L 283.937901 328.722935 
L 284.174707 201.957871 
L 284.411513 206.140263 
L 284.648319 226.937493 
L 284.885125 237.649005 
L 285.121932 222.94284 
L 285.358738 234.97895 
L 285.595544 257.674423 
L 285.83235 246.962911 
L 286.069156 261.126721 
L 286.305963 252.042274 
L 286.779575 273.194121 
L 287.016381 261.981973 
L 287.253187 258.321077 
L 287.489994 263.066684 
L 287.7268 251.030573 
L 287.963606 254.69147 
L 288.200412 243.979958 
L 288.437218 255.692741 
L 288.674025 236.115809 
L 288.910831 250.863695 
L 289.384443 261.199731 
L 289.62125 253.898797 
L 289.858056 269.971281 
L 290.094862 270.816103 
L 290.331668 294.950903 
L 290.568474 284.510568 
L 290.805281 283.665746 
L 291.042087 268.91786 
L 291.278893 246.222387 
L 291.515699 260.970273 
L 291.989312 251.593788 
L 292.69973 307.748396 
L 292.936536 296.035613 
L 293.646955 238.848445 
L 293.883761 259.364067 
L 294.120567 238.566837 
L 294.357374 233.82123 
L 294.59418 256.255956 
L 294.830986 267.468103 
L 295.067792 257.194647 
L 295.304599 261.940254 
L 295.541405 258.279357 
L 295.778211 268.719692 
L 296.015017 291.415165 
L 296.251823 280.682793 
L 296.48863 249.998013 
L 296.725436 269.230757 
L 296.962242 260.14631 
L 297.435854 303.524284 
L 297.672661 292.875352 
L 297.909467 287.681259 
L 298.146273 292.875352 
L 298.383079 278.169186 
L 298.619885 292.917071 
L 298.856692 291.383875 
L 299.093498 300.468322 
L 299.330304 305.213929 
L 299.803916 350.636165 
L 300.040723 325.729552 
L 300.277529 324.88473 
L 300.514335 339.590895 
L 300.987947 304.629854 
L 301.46156 277.845859 
L 301.698366 279.379055 
L 301.935172 295.451538 
L 302.171979 284.740026 
L 302.408785 262.044553 
L 302.645591 276.208364 
L 302.882397 265.934907 
L 303.119203 249.862424 
L 303.35601 270.659654 
L 303.592816 270.159019 
L 304.066428 295.618417 
L 304.303234 290.424324 
L 304.540041 291.373445 
L 304.776847 276.667279 
L 305.013653 300.802079 
L 305.250459 312.014227 
L 305.487265 334.7097 
L 305.724072 339.851643 
L 305.960878 319.054413 
L 306.197684 343.961026 
L 306.43449 349.155118 
L 306.671296 329.922374 
L 306.908103 330.423009 
L 307.381715 290.330455 
L 307.618521 288.797259 
L 307.855328 263.890646 
L 308.092134 260.229749 
L 308.32894 237.534277 
L 308.565746 256.767021 
L 308.802552 258.300217 
L 309.039359 254.117825 
L 309.276165 276.813298 
L 309.512971 287.462231 
L 309.749777 282.268138 
L 310.22339 258.237638 
L 310.460196 274.560439 
L 310.697002 267.259505 
L 311.170614 287.973296 
L 311.407421 283.22769 
L 311.644227 304.02492 
L 311.881033 309.219013 
L 312.591452 265.382122 
L 312.828258 279.545933 
L 313.065064 286.846867 
L 313.30187 302.91935 
L 313.775483 278.482083 
L 314.012289 288.922418 
L 314.485901 250.3422 
L 314.722708 260.615656 
L 314.959514 249.883284 
L 315.19632 261.919394 
L 315.433126 254.618461 
L 315.669932 265.267394 
L 316.380351 233.466614 
L 316.617157 258.373226 
L 316.853963 256.84003 
L 317.564382 192.664826 
L 317.801188 197.410433 
L 318.037994 218.092934 
L 318.274801 228.825306 
L 318.511607 301.8555 
L 318.748413 279.420774 
L 318.985219 301.8555 
L 319.222026 313.067647 
L 319.458832 301.8555 
L 319.695638 279.347765 
L 319.932444 290.080137 
L 320.16925 270.847393 
L 320.406057 291.529894 
L 320.879669 248.318798 
L 321.116475 237.586426 
L 321.353281 246.670873 
L 321.826894 287.128474 
L 322.300506 269.116028 
L 322.537312 283.863914 
L 322.774119 289.058006 
L 323.010925 300.270154 
L 323.247731 305.015761 
L 323.721343 296.087762 
L 323.95815 280.015279 
L 324.431762 323.038636 
L 324.668568 327.221028 
L 324.905375 316.780694 
L 325.142181 315.935871 
L 325.378987 326.647383 
L 325.615793 327.596505 
L 325.852599 350.291978 
L 326.089406 357.592911 
L 326.326212 342.845026 
L 326.563018 318.710226 
L 327.03663 309.855237 
L 327.273437 310.355872 
L 327.510243 311.200694 
L 327.747049 290.685072 
L 327.983855 294.345968 
L 328.457468 292.896211 
L 328.694274 293.396847 
L 328.93108 291.863651 
L 329.167886 287.681259 
L 329.404692 303.753742 
L 329.641499 308.895685 
L 330.351917 255.254685 
L 330.588724 256.787881 
L 330.82553 268.823991 
L 331.299142 266.445973 
L 331.535948 286.022904 
L 331.772755 276.938457 
L 332.009561 262.232291 
L 332.483173 301.073257 
L 332.719979 312.78604 
L 333.193592 287.410081 
L 333.430398 312.316694 
L 333.667204 321.401141 
L 333.90401 305.07834 
L 334.140817 316.290488 
L 334.377623 335.523233 
L 334.851235 290.580773 
L 335.088041 286.919876 
L 335.324848 290.580773 
L 335.561654 300.854229 
L 335.79846 289.642081 
L 336.035266 312.076806 
L 336.272073 296.004323 
L 336.508879 297.537519 
L 336.745685 293.876622 
L 336.982491 279.170457 
L 337.219297 292.552025 
L 337.69291 301.480023 
L 337.929716 300.979388 
L 338.166522 276.844588 
L 338.640135 265.361263 
L 338.876941 275.801597 
L 339.113747 276.64642 
L 339.350553 257.069488 
L 339.587359 252.323882 
L 339.824166 227.417269 
L 340.060972 226.572447 
L 340.297778 216.29899 
L 340.534584 231.005156 
L 340.77139 220.356223 
L 341.008197 197.66075 
L 341.481809 225.831923 
L 341.718615 304.848882 
L 341.955422 293.636735 
L 342.429034 291.842791 
L 342.66584 282.758344 
L 342.902646 266.685861 
L 343.376259 294.471127 
L 343.613065 299.61307 
L 343.849871 314.360956 
L 344.086677 303.628584 
L 344.323484 315.664694 
L 344.56029 315.164058 
L 344.797096 315.664694 
L 345.033902 338.172428 
L 345.270708 348.883941 
L 345.507515 332.56114 
L 345.744321 327.419196 
L 345.981127 304.911462 
L 346.217933 299.717369 
L 346.454739 300.562191 
L 346.691546 284.489708 
L 346.928352 300.562191 
L 347.165158 289.850679 
L 347.401964 285.105073 
L 347.875577 311.023386 
L 348.112383 324.404954 
L 348.585995 299.383612 
L 348.822802 304.577705 
L 349.059608 226.103101 
L 349.296414 229.763997 
L 349.53322 249.340929 
L 349.770026 249.841564 
L 350.006833 265.914048 
L 350.243639 290.82066 
L 350.480445 295.003052 
L 350.717251 272.495318 
L 350.954057 295.003052 
L 351.190864 275.770308 
L 351.42767 287.483091 
L 351.664476 311.617891 
L 351.901282 300.906378 
L 352.138088 321.58888 
L 352.374895 300.906378 
L 352.611701 297.245482 
L 352.848507 309.281592 
L 353.085313 289.704661 
L 353.322119 290.549483 
L 353.558926 286.367091 
L 353.795732 275.926756 
L 354.032538 286.638269 
L 354.506151 258.279357 
L 354.979763 255.901339 
L 355.453375 292.906641 
L 355.690182 287.764698 
L 355.926988 277.053186 
L 356.163794 287.493521 
L 356.4006 282.747914 
L 356.637406 303.263537 
L 357.111019 263.056254 
L 357.584631 239.223921 
L 357.821437 253.930087 
L 358.058244 242.217304 
L 358.29505 246.399696 
L 358.531856 221.493083 
L 358.768662 245.627883 
L 359.005468 257.340666 
L 359.242275 262.482609 
L 359.479081 258.300217 
L 359.952693 221.180186 
L 360.1895 235.928071 
L 360.426306 221.180186 
L 360.663112 198.74546 
L 360.899918 202.927852 
L 361.373531 244.939509 
L 361.847143 200.122208 
L 362.083949 201.655404 
L 362.320755 206.849496 
L 362.557562 226.082241 
L 362.794368 215.349869 
L 363.031174 219.010766 
L 363.26798 213.816673 
L 363.504786 202.10389 
L 363.741593 207.297982 
L 364.215205 177.791782 
L 364.452011 188.503294 
L 364.925624 235.333567 
L 365.16243 214.817944 
L 365.636042 247.536555 
L 365.872849 232.830389 
L 366.109655 240.131323 
L 366.346461 290.549483 
L 366.583267 300.989818 
L 366.820073 300.144995 
L 367.05688 305.286938 
L 367.293686 305.787574 
L 367.530492 291.039688 
L 367.767298 295.22208 
L 368.004104 284.489708 
L 368.240911 246.191098 
L 368.477717 250.373489 
L 368.714523 260.813824 
L 368.951329 248.777714 
L 369.188135 226.342989 
L 369.661748 205.170282 
L 369.898554 219.876448 
L 370.13536 218.927326 
L 370.372166 229.659698 
L 370.608973 218.948186 
L 370.845779 215.28729 
L 371.082585 194.604788 
L 371.319391 215.28729 
L 371.556198 195.710358 
L 371.793004 200.455965 
L 372.02981 212.168748 
L 372.266616 189.661013 
L 372.503422 212.168748 
L 372.740229 212.669383 
L 372.977035 212.168748 
L 373.450647 233.529193 
L 373.687453 252.761938 
L 374.161066 209.383963 
L 374.397872 209.884599 
L 374.634678 230.5671 
L 374.871484 219.855588 
L 375.108291 197.347853 
L 375.345097 218.145083 
L 375.581903 223.287027 
L 376.055515 211.240486 
L 376.529128 169.760755 
L 376.765934 192.456228 
L 377.00274 190.923032 
L 377.239547 201.634544 
L 377.476353 190.923032 
L 377.713159 339.757774 
L 377.949965 338.808653 
L 378.186771 324.644842 
L 378.423578 299.738229 
L 378.660384 300.238864 
L 378.89719 279.441634 
L 379.133996 290.090567 
L 379.370802 278.054457 
L 379.607609 276.521261 
L 379.844415 288.234044 
L 380.081221 313.140657 
L 380.318027 292.625034 
L 380.554833 238.055772 
L 380.79164 232.913829 
L 381.028446 212.116598 
L 381.265252 210.583402 
L 381.738864 168.655185 
L 381.975671 187.282995 
L 382.212477 190.099069 
L 382.449283 188.659742 
L 382.686089 185.499481 
L 383.633314 223.151438 
L 384.106927 240.725827 
L 384.580539 211.271776 
L 384.817345 212.220897 
L 385.054151 226.927063 
L 385.290958 216.194691 
L 385.527764 227.406839 
L 385.76457 248.08934 
L 386.001376 247.140219 
L 386.238182 232.434053 
L 386.474989 243.082986 
L 386.711795 231.870838 
L 387.185407 257.288516 
L 387.422213 258.821712 
L 387.65902 270.534495 
L 387.895826 266.352104 
L 388.132632 256.078647 
L 388.369438 275.311392 
L 388.606245 273.778196 
L 388.843051 269.032589 
L 389.316663 240.162613 
L 389.553469 245.304556 
L 389.790276 234.655623 
L 390.027082 244.929079 
L 390.263888 234.488744 
L 390.500694 256.996479 
L 390.7375 246.284967 
L 390.974307 223.777232 
L 391.211113 227.959624 
L 391.447919 229.49282 
L 391.684725 228.992184 
L 392.395144 196.158844 
L 392.63195 173.463371 
L 392.868756 173.964007 
L 393.105562 185.176154 
L 393.342369 180.034211 
L 393.579175 190.745723 
L 393.815981 185.551631 
L 394.052787 199.715442 
L 394.5264 178.229838 
L 394.763206 191.726134 
L 395.000012 214.640635 
L 395.236818 214.640635 
L 395.473625 219.782578 
L 395.710431 231.818689 
L 395.947237 298.862117 
L 396.420849 332.602859 
L 396.657656 198.077947 
L 396.894462 192.936003 
L 397.368074 169.009802 
L 398.078493 214.202579 
L 398.315299 239.109192 
L 398.552105 218.426691 
L 398.788911 238.003622 
L 399.262524 219.490541 
L 399.49933 221.618242 
L 399.736136 220.293644 
L 399.972942 207.047665 
L 400.209749 217.780037 
L 400.446555 219.313233 
L 400.683361 241.747958 
L 400.920167 288.932848 
L 401.156974 284.187241 
L 401.39378 276.886307 
L 401.630586 254.378573 
L 401.867392 276.302233 
L 402.104198 256.725301 
L 402.577811 278.377784 
L 402.814617 277.532962 
L 403.051423 298.215463 
L 403.288229 277.532962 
L 403.761842 256.381115 
L 403.998648 275.613859 
L 404.235454 270.471916 
L 404.47226 268.93872 
L 404.709067 252.615919 
L 404.945873 252.115283 
L 405.182679 227.208671 
L 405.419485 237.482127 
L 405.656291 226.269979 
L 405.893098 207.037235 
L 406.129904 218.249382 
L 406.36671 243.155995 
L 406.603516 231.943848 
L 406.840323 254.63932 
L 407.077129 255.484143 
L 407.313935 245.210686 
L 407.550741 254.295134 
L 407.787547 253.450311 
L 408.26116 291.93666 
L 408.497966 291.436025 
L 408.734772 286.294082 
L 408.971578 308.801816 
L 409.208385 309.302452 
L 409.445191 298.862117 
L 409.681997 304.00406 
L 409.918803 292.791912 
L 410.155609 273.214981 
L 410.392416 268.073038 
L 410.629222 247.557415 
L 410.866028 254.858348 
L 411.102834 244.209416 
L 411.33964 258.373226 
L 411.576447 242.300743 
L 412.050059 224.288297 
L 412.286865 246.98377 
L 412.523672 232.235885 
L 412.997284 258.957301 
L 413.23409 263.702908 
L 413.470896 286.137633 
L 413.707703 291.279576 
L 413.944509 302.491724 
L 414.181315 301.646902 
L 414.418121 296.504959 
L 414.654927 300.165855 
L 414.891734 310.898227 
L 415.12854 311.743049 
L 415.365346 308.082153 
L 415.602152 318.793665 
L 415.838958 211.887141 
L 416.075765 226.050951 
L 416.549377 180.628716 
L 417.022989 202.489796 
L 417.259796 223.005419 
L 417.496602 233.737791 
L 417.733408 254.420292 
L 418.207021 209.76987 
L 418.443827 234.676483 
L 418.917439 257.424105 
L 419.391052 291.363015 
L 419.627858 291.863651 
L 419.864664 303.576434 
L 420.10147 282.779204 
L 420.338276 287.973296 
L 420.575083 275.937186 
L 420.811889 255.254685 
L 421.048695 254.754049 
L 421.759114 224.257008 
L 421.99592 229.002614 
L 422.232726 217.289831 
L 422.469532 237.972333 
L 422.943145 212.596374 
L 423.179951 236.731174 
L 423.416757 238.26437 
L 423.89037 226.21783 
L 424.127176 222.035438 
L 424.363982 221.086317 
L 424.600788 243.78179 
L 424.837594 244.626612 
L 425.311207 195.585199 
L 425.548013 218.092934 
L 425.784819 214.432037 
L 426.021625 219.57398 
L 426.258432 235.646464 
L 426.495238 216.069532 
L 426.732044 240.204332 
L 426.96885 238.671136 
L 427.205656 252.052704 
L 427.442463 272.568327 
L 427.679269 251.885826 
L 428.152881 287.785558 
L 428.389687 288.286193 
L 428.626494 299.498341 
L 428.8633 300.447463 
L 429.100106 305.193069 
L 429.336912 291.811501 
L 429.573719 293.344697 
L 430.047331 249.632966 
L 430.284137 249.132331 
L 430.520943 260.845114 
L 430.75775 264.50601 
L 431.468168 316.791123 
L 431.704974 306.058751 
L 431.941781 319.440319 
L 432.415393 282.852213 
L 432.652199 277.71027 
L 433.125812 241.633229 
L 433.362618 264.328702 
L 433.599424 269.470645 
L 433.83623 293.605445 
L 434.073036 237.075361 
L 434.309843 240.736257 
L 434.546649 220.053756 
L 434.783455 242.749229 
L 435.020261 222.233606 
L 435.257068 232.507062 
L 435.73068 264.401711 
L 435.967486 253.669339 
L 436.441099 296.692697 
L 436.677905 296.192061 
L 436.914711 306.903574 
L 437.151517 284.395839 
L 437.388323 280.734942 
L 437.861936 245.88863 
L 438.098742 246.389266 
L 438.572354 254.795769 
L 438.809161 242.759659 
L 439.045967 287.921147 
L 439.282773 276.208364 
L 439.519579 280.390756 
L 439.756385 291.102268 
L 439.993192 282.017821 
L 440.229998 280.484625 
L 440.466804 266.320814 
L 440.70361 267.85401 
L 441.177223 229.023474 
L 441.414029 249.539097 
L 441.650835 238.827585 
L 441.887641 237.878463 
L 442.124448 236.345267 
L 442.59806 192.977723 
L 442.834866 215.485458 
L 443.071672 194.802956 
L 443.545285 224.747213 
L 443.782091 202.239479 
L 444.018897 201.394656 
L 444.49251 229.763997 
L 444.729316 234.509604 
L 444.966122 230.160334 
L 445.202928 223.318316 
L 445.439734 224.267438 
L 445.676541 209.561272 
L 445.913347 216.862205 
L 446.386959 176.488043 
L 446.623765 171.3461 
L 447.097378 208.184524 
L 447.334184 194.802956 
L 447.57099 206.51574 
L 447.807797 194.802956 
L 448.281409 214.16086 
L 448.755021 257.351096 
L 448.991828 256.506273 
L 449.228634 280.641073 
L 449.46544 292.353856 
L 449.702246 238.326949 
L 450.175859 202.677535 
L 450.412665 206.859926 
L 450.649471 184.164453 
L 450.886277 193.248901 
L 451.123083 184.164453 
L 451.596696 201.738843 
L 451.833502 188.357275 
L 452.070308 193.551368 
L 452.307114 193.050732 
L 452.543921 193.999854 
L 452.780727 214.682355 
L 453.017533 203.470207 
L 453.254339 203.970843 
L 453.491146 193.697386 
L 453.727952 202.781834 
L 454.201564 230.316782 
L 454.675177 209.196225 
L 454.911983 221.232335 
L 455.148789 207.068524 
L 455.385595 203.407628 
L 455.622401 217.571439 
L 455.859208 222.317045 
L 456.096014 233.028558 
L 456.33282 212.346056 
L 456.569626 224.058839 
L 457.043239 269.189038 
L 457.280045 268.344215 
L 457.753657 237.315249 
L 457.990463 232.121156 
L 458.22727 242.394612 
L 458.464076 241.445491 
L 458.700882 230.796558 
L 458.937688 226.050951 
L 459.174495 214.838804 
L 459.411301 229.586689 
L 459.884913 192.988153 
L 460.358526 214.16086 
L 460.595332 206.859926 
L 460.832138 207.704749 
L 461.068944 231.839548 
L 461.30575 221.107176 
L 461.542557 240.339921 
L 461.779363 215.433308 
L 462.016169 226.645456 
L 462.252975 207.412711 
L 462.489781 212.158318 
L 462.726588 200.445535 
L 462.963394 214.609346 
L 463.2002 190.474546 
L 463.673812 227.31297 
L 464.147425 255.400704 
L 464.621037 227.855325 
L 465.09465 264.610309 
L 465.331456 284.187241 
L 465.568262 263.50474 
L 465.805068 267.176066 
L 466.041875 253.012255 
L 466.278681 275.707728 
L 466.515487 265.058795 
L 466.752293 265.903618 
L 467.225906 294.012211 
L 467.462712 274.779467 
L 467.699518 285.219801 
L 467.936324 289.402193 
L 468.409937 268.719692 
L 468.646743 257.98732 
L 468.883549 233.080707 
L 469.120355 252.657639 
L 469.357161 243.573191 
L 469.593968 248.318798 
L 469.830774 268.834421 
L 470.06758 258.394086 
L 470.541193 250.550798 
L 470.777999 263.932366 
L 471.014805 263.087543 
L 471.251611 274.299691 
L 471.725224 242.405042 
L 471.96203 230.692259 
L 472.198836 225.498166 
L 472.435642 236.230538 
L 472.672448 236.731174 
L 472.909255 231.985567 
L 473.146061 232.830389 
L 473.619673 269.835692 
L 473.856479 247.327957 
L 474.093286 248.861153 
L 474.566898 215.902654 
L 474.803704 220.085046 
L 475.04051 230.796558 
L 475.514123 278.210905 
L 475.750929 283.352848 
L 475.987735 295.065632 
L 476.224542 235.615174 
L 476.461348 222.233606 
L 476.698154 232.965978 
L 476.93496 238.107921 
L 477.171766 254.430722 
L 477.408573 249.288779 
L 477.645379 261.324889 
L 477.882185 256.579283 
L 478.118991 279.274756 
L 478.355797 280.119578 
L 478.592604 293.501146 
L 479.066216 268.90743 
L 479.303022 282.288998 
L 479.539828 274.988065 
L 479.776635 286.700848 
L 480.013441 281.506755 
L 480.487053 238.014052 
L 481.434278 195.51219 
L 481.671084 220.418803 
L 481.907891 225.164409 
L 482.144697 211.782841 
L 482.618309 250.550798 
L 482.855115 235.802912 
L 483.091922 213.107439 
L 483.328728 220.408373 
L 483.565534 232.444483 
L 484.039146 277.647691 
L 484.275953 288.296623 
L 484.512759 273.590458 
L 484.749565 294.10608 
L 484.986371 282.393297 
L 485.223177 293.605445 
L 485.459984 271.09771 
L 485.69679 272.630906 
L 485.933596 295.138641 
L 486.170402 305.850153 
L 486.407208 224.830652 
L 486.880821 199.392115 
L 487.117627 209.665571 
L 487.354433 214.411177 
L 487.59124 228.574988 
L 487.828046 214.411177 
L 488.064852 230.483661 
L 488.301658 229.53454 
L 488.538464 213.462056 
L 488.775271 214.411177 
L 489.012077 199.663292 
L 489.248883 210.312225 
L 489.485689 199.663292 
L 489.722495 224.569905 
L 489.959302 235.281417 
L 490.196108 226.19697 
L 490.432914 248.704705 
L 490.66972 224.569905 
L 490.906526 239.31779 
L 491.143333 225.936222 
L 491.380139 229.597119 
L 491.853751 203.13645 
L 492.090557 225.831923 
L 492.327364 200.925311 
L 492.56417 212.961421 
L 492.800976 232.194165 
L 493.037782 211.396935 
L 493.274588 231.912558 
L 493.511395 228.251661 
L 493.748201 209.018917 
L 493.985007 223.182727 
L 494.221813 222.682092 
L 494.932232 274.873336 
L 495.169038 252.438611 
L 495.405844 241.226463 
L 495.879457 280.109148 
L 496.116263 281.642344 
L 496.353069 271.368888 
L 496.589875 283.081671 
L 496.826682 277.887578 
L 497.063488 297.46451 
L 497.300294 304.765443 
L 497.5371 225.915363 
L 497.773906 215.475028 
L 498.010713 222.775961 
L 498.247519 243.458462 
L 498.484325 236.157529 
L 498.721131 240.339921 
L 498.957937 226.958353 
L 499.194744 240.339921 
L 499.43155 219.65742 
L 499.668356 311.023386 
L 499.905162 330.256131 
L 500.141969 306.121331 
L 500.378775 316.853703 
L 500.615581 312.108096 
L 500.852387 334.542821 
L 501.089193 196.137984 
L 501.326 218.833457 
L 501.562806 230.54624 
L 501.799612 232.079436 
L 502.036418 251.656368 
L 502.273224 227.521568 
L 502.510031 242.269453 
L 502.746837 240.736257 
L 502.983643 235.542165 
L 503.220449 260.448777 
L 503.457255 237.753305 
L 503.694062 248.485677 
L 503.930868 244.303285 
L 504.167674 255.014797 
L 504.40448 251.3539 
L 504.641286 279.326905 
L 505.114899 240.558949 
L 505.351705 235.417006 
L 505.588511 240.558949 
L 505.825318 239.609828 
L 506.29893 264.203543 
L 506.535736 259.0616 
L 506.772542 259.562236 
L 507.009349 271.275019 
L 507.246155 266.080926 
L 507.482961 254.868778 
L 507.719767 230.733979 
L 507.956573 218.697868 
L 508.19338 223.839811 
L 508.430186 224.788933 
L 508.666992 235.437866 
L 508.903798 214.755364 
L 509.140604 215.600187 
L 509.614217 197.65032 
L 509.851023 177.134698 
L 510.087829 166.694363 
L 510.324635 144.186628 
L 510.561442 169.093241 
L 510.798248 173.838848 
L 511.035054 172.889726 
L 511.27186 158.725916 
L 511.508667 159.675037 
L 511.745473 155.377916 
L 512.455891 203.115591 
L 512.692698 192.383218 
L 512.929504 202.823553 
L 513.16631 191.11077 
L 513.403116 190.610135 
L 513.639922 202.646245 
L 514.113535 244.918649 
L 514.350341 222.223176 
L 514.587147 217.081233 
L 514.823953 239.776706 
L 515.06076 217.341981 
L 515.297566 222.536073 
L 515.534372 203.303329 
L 516.007984 237.242239 
L 516.244791 232.496632 
L 516.481597 223.412185 
L 517.192016 250.540368 
L 517.428822 238.504258 
L 517.665628 254.576741 
L 517.902434 259.322348 
L 518.13924 247.609565 
L 518.376047 260.991133 
L 518.612853 238.29566 
L 518.849659 260.730385 
L 519.086465 241.153454 
L 519.560078 277.824999 
L 519.796884 297.40193 
L 520.270496 257.486684 
L 520.507302 253.825788 
L 520.744109 252.292592 
L 520.980915 278.388214 
L 521.217721 277.887578 
L 521.454527 258.654834 
L 521.691333 262.837226 
L 521.92814 273.27756 
L 522.164946 264.193113 
L 522.401752 278.356924 
L 522.638558 266.644141 
L 522.875365 289.151876 
L 523.112171 300.864659 
L 523.348977 280.067428 
L 523.585783 275.885037 
L 523.822589 255.369414 
L 524.059396 251.708517 
L 524.533008 229.263362 
L 524.769814 242.64493 
L 525.243427 217.248112 
L 525.480233 218.092934 
L 525.717039 237.325678 
L 525.953845 226.885344 
L 526.190651 247.682574 
L 526.427458 224.987101 
L 526.664264 239.734986 
L 526.90107 244.87693 
L 527.137876 253.961377 
L 527.374682 241.925266 
L 527.611489 252.574199 
L 527.848295 277.480812 
L 528.085101 275.947616 
L 528.558714 256.151657 
L 529.032326 214.411177 
L 529.269132 234.9268 
L 529.505938 245.367135 
L 529.742745 224.851512 
L 529.979551 219.709569 
L 530.216357 206.328001 
L 530.453163 222.650802 
L 530.689969 198.516003 
L 530.926776 203.261609 
L 531.400388 177.885651 
L 531.637194 200.320376 
L 531.874 330.36043 
L 532.110807 319.628058 
L 532.347613 342.062783 
L 533.058031 305.370378 
L 533.294838 225.310428 
L 533.76845 267.050907 
L 534.005256 259.749974 
L 534.242063 260.699095 
L 534.478869 259.854273 
L 534.715675 234.94766 
L 534.952481 257.382385 
L 535.189287 264.683319 
L 535.426094 249.977153 
L 535.6629 272.672626 
L 535.899706 262.232291 
L 536.136512 287.138904 
L 536.373318 291.321296 
L 536.610125 302.533443 
L 537.083737 276.072775 
L 537.320543 275.123654 
L 537.794156 298.872547 
L 538.030962 318.449478 
L 538.267768 314.267086 
L 538.504574 318.449478 
L 538.74138 295.941744 
L 538.978187 296.786566 
L 539.214993 276.104065 
L 539.451799 268.803131 
L 539.688605 289.318754 
L 539.925412 294.512847 
L 540.162218 289.318754 
L 540.399024 303.482565 
L 540.63583 287.159764 
L 541.109443 315.247498 
L 541.346249 320.389441 
L 541.583055 309.657069 
L 542.056667 336.441064 
L 542.53028 294.773594 
L 542.767086 303.858041 
L 543.003892 289.694231 
L 543.240698 308.926975 
L 543.477505 309.876097 
L 543.714311 309.031274 
L 544.187923 286.565259 
L 544.424729 244.115546 
L 544.898342 241.737528 
L 545.135148 264.433001 
L 545.371954 257.132068 
L 545.60876 264.433001 
L 545.845567 265.277823 
L 546.082373 276.489971 
L 546.319179 281.235578 
L 546.555985 280.390756 
L 546.792792 281.339877 
L 547.029598 306.24649 
L 547.266404 305.745854 
L 547.50321 298.444921 
L 547.740016 273.538308 
L 547.976823 285.574418 
L 548.450435 325.187197 
L 548.687241 335.460653 
L 548.924047 339.643045 
L 549.160854 314.736432 
L 549.39766 335.252055 
L 549.634466 324.519683 
L 549.871272 302.011948 
L 550.344885 331.893626 
L 550.581691 327.148019 
L 551.055303 288.307053 
L 551.292109 295.607987 
L 551.528916 311.68047 
L 551.765722 304.379537 
L 552.002528 311.68047 
L 552.239334 288.984997 
L 552.476141 299.717369 
L 552.712947 289.068436 
L 552.949753 313.975049 
L 553.186559 319.116992 
L 554.133784 297.819127 
L 554.37059 272.912514 
L 554.607396 261.700366 
L 554.844203 272.912514 
L 555.081009 297.047314 
L 555.554621 268.91786 
L 555.791427 279.566793 
L 556.028234 304.473406 
L 556.26504 308.134302 
L 556.501846 287.61868 
L 556.738652 283.436288 
L 557.212265 224.736783 
L 557.449071 209.988898 
L 557.685877 232.496632 
L 557.922683 243.145565 
L 558.15949 244.094687 
L 558.633102 226.14482 
L 558.869908 229.805717 
L 559.106714 241.841827 
L 559.343521 236.699884 
L 559.580327 214.192149 
L 559.817133 208.998057 
L 560.053939 197.285274 
L 560.290745 221.420074 
L 560.527552 216.674467 
L 560.764358 230.838278 
L 561.001164 253.346012 
L 561.23797 251.812816 
L 561.474776 253.346012 
L 561.948389 274.831616 
L 562.185195 279.577223 
L 562.658807 301.730341 
L 562.895614 320.963085 
L 563.369226 287.222343 
L 563.606032 276.510831 
L 563.842839 276.010195 
L 564.079645 265.736739 
L 564.316451 273.037673 
L 564.553257 297.944285 
L 564.790063 308.593218 
L 565.02687 286.085484 
L 565.263676 300.249294 
L 565.500482 298.716098 
L 565.737288 309.44847 
L 566.210901 264.026235 
L 566.447707 253.293863 
L 566.921319 274.278831 
L 567.868544 351.15766 
L 568.10535 350.312838 
L 568.342156 331.080093 
L 568.578963 336.274186 
L 568.815769 336.774821 
L 569.052575 341.916764 
L 569.289381 342.761586 
L 569.526188 357.509472 
L 569.762994 332.602859 
L 569.9998 341.687306 
L 570.473412 315.226638 
L 570.947025 307.383349 
L 571.183831 306.882714 
L 571.420637 292.718903 
L 572.131056 273.861635 
L 572.367862 275.394831 
L 572.841474 233.122427 
L 573.078281 227.928334 
L 573.315087 238.660706 
L 573.551893 259.176329 
L 573.788699 235.041529 
L 574.025505 254.618461 
L 574.735924 224.496895 
L 574.97273 306.18391 
L 575.209537 286.951166 
L 575.446343 300.332734 
L 575.919955 340.425288 
L 576.156761 351.074221 
L 576.393568 328.639495 
L 576.630374 349.436726 
L 576.86718 329.859794 
L 577.103986 340.592166 
L 577.340792 319.794936 
L 577.577599 309.146003 
L 577.814405 288.63038 
L 578.051211 284.447989 
L 578.524823 262.461749 
L 578.76163 241.779248 
L 578.998436 261.356179 
L 579.235242 260.511357 
L 579.472048 246.347546 
L 579.708854 239.046613 
L 579.945661 259.729114 
L 580.419273 238.28523 
L 580.892886 191.454957 
L 581.129692 214.15043 
L 581.366498 218.332822 
L 581.603304 219.866018 
L 582.076917 185.541201 
L 582.313723 180.399258 
L 582.550529 190.839593 
L 582.787335 211.355215 
L 583.024141 221.628672 
L 583.260948 206.922506 
L 583.971366 263.369151 
L 584.208172 262.868515 
L 584.444979 273.517448 
L 584.681785 274.018084 
L 584.918591 251.510349 
L 585.155397 263.223132 
L 585.62901 253.846648 
L 585.865816 276.354382 
L 586.339428 252.53248 
L 586.576235 261.616927 
L 586.813041 238.921454 
L 587.049847 239.766276 
L 587.286653 238.921454 
L 587.523459 219.344522 
L 587.760266 235.667324 
L 587.997072 239.849715 
L 588.233878 236.188819 
L 588.70749 248.683845 
L 588.944297 228.001344 
L 589.181103 302.679462 
L 589.654715 273.767766 
L 589.891521 294.283389 
L 590.128328 301.584322 
L 590.365134 315.748133 
L 590.60194 305.015761 
L 591.075552 324.83258 
L 591.785971 294.575426 
L 592.49639 237.857604 
L 592.733196 230.55667 
L 592.970002 216.392859 
L 593.206808 220.575251 
L 593.443615 243.009977 
L 593.680421 250.31091 
L 594.154033 277.282644 
L 594.390839 276.333523 
L 594.627646 276.834158 
L 594.864452 263.45259 
L 595.57487 296.974304 
L 596.048483 257.225937 
L 596.285289 278.023167 
L 596.522095 288.463502 
L 596.758901 278.190046 
L 596.995708 278.190046 
L 597.232514 277.68941 
L 597.46932 292.395576 
L 597.706126 271.598346 
L 597.942932 266.852739 
L 598.179739 244.418014 
L 598.416545 237.11708 
L 598.890157 273.986794 
L 599.126964 283.071241 
L 599.36377 247.609565 
L 599.600576 236.960632 
L 599.837382 257.757862 
L 600.310995 210.927589 
L 600.547801 215.673196 
L 600.784607 201.509385 
L 601.021413 223.944111 
L 601.258219 204.367179 
L 601.495026 200.184787 
L 601.731832 330.496018 
L 601.968638 317.11445 
L 602.205444 292.979651 
L 602.44225 285.678717 
L 602.679057 260.772105 
L 602.915863 281.569335 
L 603.152669 281.068699 
L 603.389475 295.774865 
L 603.626281 296.619687 
L 604.099894 271.18115 
L 604.3367 259.499656 
L 604.573506 268.584103 
L 604.810313 289.099726 
L 605.047119 285.438829 
L 605.520731 248.433527 
L 605.757537 233.727361 
L 606.23115 273.757336 
L 606.467956 273.256701 
L 606.704762 293.939202 
L 606.941568 294.888323 
L 607.178375 287.58739 
L 607.415181 289.120586 
L 607.651987 289.621221 
L 607.888793 289.120586 
L 608.125599 268.438085 
L 608.362406 282.601895 
L 608.599212 262.086273 
L 609.546437 327.450486 
L 609.783243 305.015761 
L 610.020049 294.304249 
L 610.730468 333.228653 
L 610.967274 328.483047 
L 611.440886 338.422746 
L 611.914499 311.63875 
L 612.151305 307.977854 
L 612.388111 307.028732 
L 612.861724 349.113399 
L 613.09853 350.06252 
L 613.335336 330.829775 
L 613.572142 345.535941 
L 613.808948 340.341849 
L 614.045755 317.834114 
L 614.282561 340.341849 
L 614.519367 326.960281 
L 614.756173 330.621177 
L 614.992979 319.888805 
L 615.229786 324.071197 
L 615.466592 299.164584 
L 615.703398 297.631388 
L 615.940204 273.496588 
L 616.413817 298.590939 
L 616.650623 282.518456 
L 616.887429 306.653256 
L 617.124235 301.907649 
L 617.361042 316.655535 
L 617.597848 302.491724 
L 617.834654 309.792657 
L 618.07146 289.277034 
L 618.545073 330.944504 
L 618.781879 308.249031 
L 619.018685 318.960544 
L 619.255491 211.720262 
L 619.729104 166.131148 
L 619.96591 161.385541 
L 620.439522 205.869085 
L 620.676328 205.024263 
L 620.913135 218.405831 
L 621.149941 204.24202 
L 621.386747 205.086843 
L 621.623553 185.509911 
L 621.86036 197.222694 
L 622.097166 216.455439 
L 622.333972 193.759966 
L 622.570778 197.942358 
L 622.807584 187.209986 
L 623.044391 211.344785 
L 623.281197 199.632002 
L 623.518003 174.72539 
L 623.754809 178.386286 
L 623.991615 174.72539 
L 624.228422 197.233124 
L 624.465228 183.851556 
L 624.702034 187.512453 
L 624.93884 168.279708 
L 625.175646 175.580642 
L 625.412453 196.377872 
L 625.649259 175.580642 
L 625.886065 180.722585 
L 626.122871 179.877763 
L 626.359677 190.610135 
L 626.596484 185.468192 
L 627.070096 211.344785 
L 627.306902 206.150693 
L 627.780515 179.950772 
L 628.017321 204.857385 
L 628.254127 215.130841 
L 628.490933 215.975663 
L 628.72774 232.298464 
L 628.964546 228.116072 
L 629.201352 250.550798 
L 629.438158 246.889901 
L 629.674964 230.817418 
L 629.911771 235.959361 
L 630.148577 247.171509 
L 630.385383 230.848708 
L 630.622189 299.832098 
L 630.858995 299.832098 
L 631.095802 307.133032 
L 631.332608 287.900287 
L 631.569414 298.632659 
L 631.80622 294.450267 
L 632.043026 316.958002 
L 632.279833 213.722804 
L 632.516639 203.073871 
L 632.753445 225.581606 
L 632.990251 214.369458 
L 633.227058 218.030354 
L 633.463864 234.102838 
L 633.70067 234.102838 
L 633.937476 296.577968 
L 634.411089 333.166074 
L 635.121507 278.471653 
L 635.358313 273.726046 
L 635.831926 281.569335 
L 636.068732 283.102531 
L 636.542344 253.64848 
L 636.779151 276.083205 
L 637.252763 253.314723 
L 637.489569 277.449522 
L 637.963182 230.723549 
L 638.199988 229.878726 
L 638.436794 249.455658 
L 638.6736 239.182201 
L 638.910406 223.860671 
L 639.147213 234.572184 
L 639.620825 281.214718 
L 640.094438 298.955986 
L 640.331244 309.604919 
L 640.56805 313.787311 
L 640.804856 309.604919 
L 641.278469 329.901514 
L 641.515275 324.759571 
L 641.752081 328.941963 
L 641.988887 328.441327 
L 642.225693 329.974523 
L 642.4625 328.441327 
L 642.699306 309.208583 
L 642.936112 329.891084 
L 643.172918 315.184918 
L 643.409724 307.883985 
L 643.883337 332.321252 
L 644.120143 321.58888 
L 644.356949 328.889813 
L 644.830562 290.591202 
L 645.067368 285.39711 
L 645.54098 322.235534 
L 645.777787 301.719911 
L 646.014593 302.220546 
L 646.251399 316.926712 
L 646.488205 341.061512 
L 646.725011 340.560877 
L 647.198624 305.13049 
L 647.43543 293.417707 
L 647.672236 272.620476 
L 648.382655 242.822238 
L 649.32988 295.27423 
L 649.566686 283.561447 
L 649.803492 263.984515 
L 650.040298 274.42485 
L 650.277104 274.42485 
L 650.513911 286.137633 
L 650.750717 269.814832 
L 650.987523 292.510305 
L 651.224329 302.783761 
L 651.461136 307.925704 
L 651.697942 296.212921 
L 651.934748 310.376732 
L 652.40836 284.917334 
L 652.645167 305.432957 
L 653.118779 280.286456 
L 653.355585 275.144513 
L 653.829198 234.853791 
L 654.066004 233.320595 
L 654.30281 245.356705 
L 654.776422 224.559475 
L 655.013229 236.272258 
L 655.250035 219.949457 
L 655.486841 219.000336 
L 655.723647 199.767591 
L 655.960453 222.463064 
L 656.19726 202.886133 
L 656.434066 207.631739 
L 656.670872 218.280672 
L 656.907678 237.857604 
L 657.144485 246.942051 
L 657.381291 236.230538 
L 657.618097 240.41293 
L 657.854903 241.362052 
L 658.328516 202.854843 
L 658.565322 214.066991 
L 658.802128 213.222168 
L 659.27574 190.777013 
L 659.512547 207.099814 
L 659.749353 187.522883 
L 660.222965 233.111997 
L 660.459771 232.162876 
L 660.696578 237.356968 
L 660.933384 293.323838 
L 661.17019 292.374716 
L 661.406996 269.866982 
L 661.643802 280.307316 
L 661.880609 269.595804 
L 662.117415 280.807952 
L 662.354221 273.507018 
L 662.827834 313.119797 
L 663.06464 313.119797 
L 663.301446 323.76873 
L 663.538252 328.514336 
L 664.011865 300.72907 
L 664.248671 305.871013 
L 664.485477 328.566486 
L 664.722283 327.721664 
L 665.195896 292.499875 
L 665.432702 308.572358 
L 665.669508 309.417181 
L 665.906314 309.417181 
L 666.14312 221.263625 
L 666.616733 208.768599 
L 667.090345 229.941306 
L 667.327151 225.758914 
L 667.563958 216.674467 
L 667.800764 227.3234 
L 668.03757 248.12063 
L 668.511183 206.640898 
L 668.747989 206.640898 
L 668.984795 227.3234 
L 669.221601 206.807777 
L 669.458407 220.971588 
L 669.93202 199.88232 
L 670.168826 177.374585 
L 670.642438 219.459251 
L 671.116051 193.978994 
L 671.352857 216.674467 
L 671.826469 185.061425 
L 672.063276 205.535328 
L 672.300082 215.808785 
L 672.536888 231.881268 
L 672.773694 237.075361 
L 673.0105 236.574725 
L 673.247307 215.892224 
L 673.484113 216.737046 
L 673.957725 179.335408 
L 674.431338 146.17874 
L 674.668144 145.333918 
L 675.141756 173.463371 
L 675.378563 173.463371 
L 675.615369 160.081803 
L 676.088981 183.100603 
L 676.325787 202.677535 
L 676.7994 211.605533 
L 677.509818 277.220064 
L 677.746625 256.422834 
L 677.983431 257.267656 
L 678.220237 243.103846 
L 678.457043 268.010458 
L 678.693849 279.723242 
L 678.930656 281.256438 
L 679.167462 277.074046 
L 679.404268 275.54085 
L 679.641074 275.54085 
L 679.877881 263.50474 
L 680.114687 262.555618 
L 680.351493 266.73801 
L 680.588299 277.950158 
L 680.825105 263.202272 
L 681.061912 255.901339 
L 681.298718 263.202272 
L 681.535524 243.625341 
L 681.77233 233.351885 
L 682.009136 229.169493 
L 682.245943 248.402237 
L 682.482749 249.935433 
L 682.719555 259.019881 
L 682.956361 236.512146 
L 683.193167 225.299998 
L 683.429974 225.299998 
L 683.66678 239.463809 
L 684.140392 200.393385 
L 684.377198 193.092452 
L 684.614005 181.379669 
L 684.850811 196.127554 
L 685.087617 196.62819 
L 685.324423 195.094994 
L 685.56123 184.383481 
L 685.798036 179.637875 
L 686.034842 155.503075 
L 686.508454 189.97391 
L 687.218873 226.123961 
L 687.455679 217.039514 
L 687.692485 227.479848 
L 687.929292 248.277079 
L 688.166098 233.529193 
L 688.63971 270.784813 
L 688.876516 272.318009 
L 689.113323 281.402456 
L 689.350129 260.719955 
L 689.586935 259.875133 
L 689.823741 280.557634 
L 690.060547 264.485151 
L 690.53416 301.073257 
L 690.770966 290.361745 
L 691.007772 267.927019 
L 691.244578 268.771842 
L 691.481385 268.271206 
L 691.718191 268.271206 
L 691.954997 272.453598 
L 692.665416 216.465869 
L 692.902222 215.621046 
L 693.139028 204.888674 
L 693.375834 216.100822 
L 693.612641 207.016375 
L 693.849447 190.161649 
L 694.086253 190.161649 
L 694.323059 200.810582 
L 694.559865 221.326204 
L 694.796672 221.326204 
L 695.033478 226.071811 
L 695.270284 203.376338 
L 695.50709 226.071811 
L 695.743896 215.631476 
L 695.980703 194.834246 
L 696.217509 205.566618 
L 696.454315 206.51574 
L 696.691121 206.51574 
L 696.927927 183.820267 
L 697.164734 179.07466 
L 697.40154 198.307404 
L 697.638346 193.113312 
L 697.875152 217.248112 
L 698.111959 206.599179 
L 698.348765 206.599179 
L 698.585571 227.28168 
L 698.822377 216.069532 
L 699.059183 225.153979 
L 699.29599 201.01918 
L 699.532796 223.714653 
L 699.769602 220.053756 
L 700.006408 223.714653 
L 700.480021 268.646683 
L 701.190439 297.871276 
L 701.664052 336.628802 
L 701.900858 321.880917 
L 702.137664 329.18185 
L 702.37447 306.674116 
L 703.084889 284.458418 
L 703.321695 269.752253 
L 703.558501 273.934644 
L 703.795308 254.7019 
L 704.032114 255.202535 
L 704.26892 251.020143 
L 704.742532 273.173261 
L 704.979339 252.657639 
L 705.216145 243.573191 
L 705.452951 250.874125 
L 705.689757 262.086273 
L 705.926563 250.373489 
L 706.16337 248.840293 
L 706.400176 245.179397 
L 706.636982 264.412141 
L 706.873788 253.763208 
L 707.110594 248.569116 
L 707.347401 269.084739 
L 707.584207 248.287508 
L 707.821013 248.287508 
L 708.057819 273.194121 
L 708.531432 233.445754 
L 708.768238 252.678498 
L 709.24185 234.93723 
L 709.478657 218.614429 
L 710.189075 258.779993 
L 710.425881 269.053449 
L 710.662688 258.779993 
L 710.899494 271.900813 
L 711.1363 261.168441 
L 711.373106 269.512365 
L 711.609912 258.300217 
L 712.083525 284.896474 
L 712.320331 286.42967 
L 712.557137 263.994945 
L 712.793943 268.177337 
L 713.267556 232.100296 
L 713.504362 215.777495 
L 713.741168 238.28523 
L 713.977974 241.946126 
L 714.214781 240.997005 
L 714.688393 204.492338 
L 714.925199 192.456228 
L 715.162006 202.896563 
L 715.398812 201.363367 
L 715.635618 201.363367 
L 715.872424 182.130622 
L 716.346037 212.617234 
L 716.582843 223.266167 
L 716.819649 200.758432 
L 717.056455 221.440933 
L 717.293261 212.356486 
L 717.530068 231.589231 
L 717.766874 240.673678 
L 718.00368 229.962166 
L 718.477292 265.851468 
L 718.714099 277.564251 
L 718.950905 278.409074 
L 719.187711 279.94227 
L 719.424517 265.778459 
L 719.661323 277.814569 
L 719.89813 258.581824 
L 720.134936 272.098981 
L 720.371742 256.026498 
L 720.608548 257.559694 
L 720.845355 261.22059 
L 721.082161 277.543391 
L 721.318967 281.725783 
L 721.555773 276.980177 
L 721.792579 260.657376 
L 722.266192 296.546678 
L 722.502998 285.835166 
L 722.739804 300.583051 
L 722.97661 275.676439 
L 723.213417 299.811238 
L 723.450223 311.847349 
L 723.687029 306.653256 
L 724.160641 272.756065 
L 724.397448 281.840512 
L 724.87106 273.997224 
L 725.107866 279.191316 
L 725.344672 265.027506 
L 725.581479 269.209898 
L 725.818285 246.775172 
L 726.055091 239.474239 
L 726.291897 246.775172 
L 726.528704 247.619995 
L 726.76551 225.11226 
L 727.002316 217.811326 
L 727.239122 222.556933 
L 727.475928 233.289305 
L 727.712735 228.095213 
L 727.949541 208.862468 
L 728.423153 250.060592 
L 728.659959 257.361526 
L 729.133572 296.014753 
L 729.370378 295.514118 
L 729.607184 299.696509 
L 729.84399 299.696509 
L 730.080797 289.423053 
L 730.317603 310.220283 
L 730.554409 310.220283 
L 731.264828 256.078647 
L 731.501634 251.896255 
L 731.73844 256.078647 
L 732.212053 274.591728 
L 732.448859 283.676176 
L 732.685665 247.00463 
L 732.922471 269.439355 
L 733.159277 245.304556 
L 733.396084 234.572184 
L 733.63289 250.894985 
L 733.869696 250.894985 
L 734.106502 265.60115 
L 734.343308 260.459207 
L 734.580115 239.776706 
L 735.053727 259.593525 
L 735.290533 249.320069 
L 735.527339 247.786873 
L 735.764146 226.989643 
L 736.000952 240.371211 
L 736.237758 241.904407 
L 736.71137 220.783849 
L 736.948177 206.035964 
L 737.184983 206.035964 
L 737.658595 226.833194 
L 737.895401 216.100822 
L 738.132208 230.848708 
L 738.369014 216.142542 
L 738.60582 227.354689 
L 738.842626 204.919964 
L 739.079433 208.580861 
L 739.316239 204.919964 
L 739.553045 210.114057 
L 739.789851 205.36845 
L 740.026657 203.835254 
L 740.263464 208.580861 
L 740.50027 223.287027 
L 740.737076 208.539141 
L 740.973882 208.539141 
L 741.210688 210.072337 
L 741.447495 198.359554 
L 741.684301 202.020451 
L 741.921107 212.460785 
L 742.157913 207.266693 
L 742.394719 231.401492 
L 742.631526 231.401492 
L 742.868332 207.266693 
L 743.105138 218.979476 
L 743.341944 202.656675 
L 743.57875 226.791475 
L 743.815557 303.889331 
L 744.052363 308.634938 
L 744.289169 309.47976 
L 744.525975 304.337817 
L 744.762782 323.914748 
L 745.4732 273.068962 
L 745.710006 284.781745 
L 745.946813 280.036139 
L 746.183619 250.644667 
L 746.657231 242.238164 
L 746.894037 242.238164 
L 747.130844 221.722541 
L 747.36765 220.773419 
L 747.604456 237.096221 
L 747.841262 237.941043 
L 748.078068 218.708298 
L 748.314875 229.44067 
L 748.551681 229.44067 
L 749.262099 192.049462 
L 749.498906 191.204639 
L 749.735712 171.627708 
L 749.972518 172.576829 
L 750.209324 172.576829 
L 750.446131 176.237726 
L 750.919743 205.691777 
L 751.156549 205.691777 
L 751.393355 210.437384 
L 751.630162 210.437384 
L 751.866968 201.352937 
L 752.103774 201.352937 
L 752.34058 199.819741 
L 752.577386 185.113575 
L 752.814193 195.762508 
L 753.050999 195.762508 
L 753.287805 206.035964 
L 753.524611 206.035964 
L 753.761417 195.595629 
L 753.998224 199.778021 
L 754.471836 233.716931 
L 754.945448 270.471916 
L 755.182255 254.399433 
L 755.419061 250.217041 
L 755.655867 261.929824 
L 755.892673 261.929824 
L 756.12948 267.123917 
L 756.603092 267.123917 
L 756.839898 276.208364 
L 757.076704 275.707728 
L 757.550317 251.875396 
L 757.787123 251.875396 
L 758.023929 252.376031 
L 758.260735 248.715135 
L 758.497542 259.155469 
L 758.734348 235.020669 
L 758.971154 234.071548 
L 759.20796 234.071548 
L 759.681573 203.042581 
L 760.391991 252.073564 
L 760.628797 252.073564 
L 760.865604 253.60676 
L 761.339216 213.691514 
L 761.576022 222.775961 
L 761.812829 242.008706 
L 762.049635 219.313233 
L 762.286441 219.313233 
L 762.523247 220.158055 
L 762.760053 220.158055 
L 762.99686 208.945907 
L 763.233666 231.380633 
L 763.470472 211.803701 
L 763.707278 211.803701 
L 763.944084 206.609609 
L 764.180891 205.076413 
L 764.417697 208.737309 
L 764.654503 233.643922 
L 764.891309 229.983025 
L 765.128115 233.643922 
L 765.364922 222.994989 
L 765.601728 234.207137 
L 765.838534 214.974392 
L 766.07534 231.297193 
L 766.312146 217.915626 
L 766.548953 219.448822 
L 766.785759 203.12602 
L 767.022565 203.12602 
L 767.259371 219.198504 
L 767.496178 208.758169 
L 767.732984 186.323444 
L 767.96979 186.323444 
L 768.206596 187.272565 
L 768.443402 187.272565 
L 768.680209 186.77193 
L 768.917015 183.111033 
L 769.153821 183.111033 
L 769.627433 191.966022 
L 769.86424 191.966022 
L 770.101046 180.253239 
L 770.337852 180.253239 
L 770.574658 165.505354 
L 770.811464 178.886922 
L 771.048271 173.744979 
L 771.285077 178.886922 
L 771.521883 190.599705 
L 771.758689 211.115328 
L 772.232302 211.115328 
L 772.469108 225.863213 
L 772.705914 230.045605 
L 772.94272 225.863213 
L 773.179527 248.297938 
L 773.416333 243.155995 
L 773.653139 220.72127 
L 773.889945 215.527177 
L 774.126751 227.563287 
L 774.363558 227.563287 
L 774.600364 202.656675 
L 774.83717 202.656675 
L 775.073976 182.141052 
L 775.310782 204.575777 
L 775.784395 204.575777 
L 776.021201 203.730955 
L 776.258007 203.730955 
L 776.494813 191.694845 
L 776.968426 191.694845 
L 777.205232 188.033948 
L 777.442038 188.033948 
L 777.915651 223.589494 
L 778.152457 207.51701 
L 778.389263 230.212483 
L 778.626069 215.506318 
L 778.862876 215.506318 
L 779.099682 227.542428 
L 779.336488 248.058051 
L 779.8101 245.575733 
L 780.046907 225.06011 
L 780.283713 226.009232 
L 780.520519 229.670128 
L 780.757325 228.721007 
L 781.230938 199.214806 
L 781.70455 199.214806 
L 781.941356 194.469199 
L 782.178162 194.469199 
L 782.414969 191.757424 
L 782.651775 184.51907 
L 783.125387 184.51907 
L 783.362193 183.580379 
L 783.599 190.276378 
L 784.072612 190.276378 
L 784.309418 175.893539 
L 784.546224 199.079217 
L 784.783031 199.079217 
L 785.019837 199.92404 
L 785.256643 199.423404 
L 785.493449 199.423404 
L 785.730256 220.105906 
L 785.967062 208.393122 
L 786.203868 209.342244 
L 786.440674 194.594358 
L 786.67748 172.159633 
L 787.151093 172.159633 
L 787.387899 166.96554 
L 788.098318 176.87395 
L 788.57193 176.87395 
L 788.808736 157.641205 
L 789.282349 167.862512 
L 789.992767 167.862512 
L 790.229573 190.297238 
L 790.46638 190.297238 
L 790.703186 190.797873 
L 790.939992 202.510656 
L 791.413605 202.510656 
L 791.650411 211.595103 
L 791.887217 212.439925 
L 792.360829 204.596637 
L 792.834442 204.596637 
L 793.071248 208.779029 
L 793.54486 208.779029 
L 793.781667 228.35596 
L 794.018473 216.643177 
L 794.255279 216.643177 
L 794.492085 232.965978 
L 794.728891 232.965978 
L 794.965698 232.465343 
L 795.43931 232.465343 
L 795.676116 223.380896 
L 796.149729 249.893714 
L 796.386535 249.893714 
L 796.623341 255.087806 
L 796.860147 235.510875 
L 797.096954 235.510875 
L 797.33376 231.328483 
L 797.570566 215.005682 
L 797.807372 215.005682 
L 798.044178 200.841871 
L 798.280985 200.841871 
L 798.754597 230.295923 
L 798.991403 214.223439 
L 799.228209 233.456184 
L 799.465016 237.11708 
L 799.938628 237.11708 
L 800.175434 244.418014 
L 800.41224 243.468892 
L 800.649047 243.468892 
L 800.885853 222.786391 
L 801.596271 222.786391 
L 801.833078 217.644448 
L 802.069884 217.644448 
L 802.30669 231.026016 
L 802.780303 231.026016 
L 803.017109 230.181194 
L 803.253915 219.907737 
L 803.727527 219.907737 
L 803.964334 225.04968 
L 804.20114 247.557415 
L 804.437946 248.402237 
L 804.674752 233.654352 
L 804.911558 209.519552 
L 805.148365 198.78718 
L 805.385171 200.320376 
L 805.621977 185.61421 
L 805.858783 185.61421 
L 806.095589 189.796602 
L 806.806008 155.263187 
L 807.042814 155.263187 
L 807.27962 155.763823 
L 807.753233 155.763823 
L 807.990039 152.102926 
L 808.226845 163.815709 
L 808.700458 163.815709 
L 808.937264 158.673766 
L 809.17407 136.166031 
L 809.410876 134.956162 
L 809.647683 130.210556 
L 809.884489 130.210556 
L 810.121295 140.922068 
L 810.594907 140.922068 
L 810.831714 160.498999 
L 811.06852 149.787487 
L 811.305326 149.787487 
L 811.542132 145.605095 
L 812.015745 145.605095 
L 812.489357 173.140044 
L 812.962969 173.140044 
L 813.436582 134.382518 
L 813.910194 134.382518 
L 814.147001 149.130403 
L 814.383807 149.130403 
L 814.620613 153.87601 
L 814.857419 169.948493 
L 815.094225 150.371562 
L 816.278256 150.371562 
L 816.515063 135.623676 
L 816.988675 135.623676 
L 817.225481 146.356048 
L 817.9359 146.356048 
L 818.172706 144.822852 
L 818.409512 167.330587 
L 818.646318 166.381466 
L 818.883125 167.330587 
L 819.119931 148.097843 
L 819.356737 148.097843 
L 819.593543 147.148721 
L 819.83035 147.148721 
L 820.067156 143.237507 
L 821.014381 143.237507 
L 821.251187 162.470251 
L 821.487993 162.470251 
L 821.724799 157.276159 
L 822.198412 157.276159 
L 822.435218 160.937055 
L 822.672024 162.470251 
L 823.382443 162.470251 
L 823.619249 186.605051 
L 824.80328 186.605051 
L 825.040086 181.463108 
L 825.750505 181.463108 
L 825.987311 158.955373 
L 827.408148 158.955373 
L 827.644954 179.470996 
L 827.881761 180.420118 
L 828.118567 180.420118 
L 828.355373 185.61421 
L 828.592179 173.5781 
L 828.828985 173.5781 
L 829.065792 177.760492 
L 829.302598 177.760492 
L 829.539404 158.527747 
L 829.77621 158.527747 
L 830.013016 167.612194 
L 830.486629 167.612194 
L 830.723435 156.879822 
L 831.197048 156.879822 
L 831.433854 155.930701 
L 831.67066 154.397505 
L 831.907466 176.90524 
L 832.144272 165.192457 
L 832.617885 118.549922 
L 832.854691 130.262705 
L 833.091497 109.747082 
L 833.328303 120.458595 
L 833.56511 120.458595 
L 833.801916 113.157661 
L 834.275528 113.157661 
L 834.512334 108.412055 
L 834.749141 111.916503 
L 834.985947 113.241101 
L 835.222753 127.404911 
L 835.933172 127.404911 
L 836.169978 115.368801 
L 836.64359 115.368801 
L 836.880396 122.148239 
L 837.827621 122.148239 
L 838.064428 125.809136 
L 838.301234 126.758257 
L 838.774846 96.740991 
L 841.379714 96.740991 
L 841.616521 107.953139 
L 843.037358 107.953139 
L 843.274164 107.452503 
L 843.51097 118.164016 
L 844.458195 118.164016 
L 844.695001 106.951868 
L 846.589451 106.951868 
L 846.826257 107.452503 
L 849.194319 107.452503 
L 849.431126 118.664651 
L 849.904738 118.664651 
L 850.141544 129.104986 
L 850.37835 129.104986 
L 850.615157 143.811152 
L 850.851963 143.811152 
L 851.088769 134.726705 
L 851.325575 134.726705 
L 851.562381 123.514557 
L 852.035994 123.514557 
L 852.2728 109.350746 
L 853.220025 109.350746 
L 853.456831 98.639234 
L 854.16725 98.639234 
L 854.404056 103.509999 
L 855.588087 103.509999 
L 855.824893 108.255606 
L 856.298506 108.255606 
L 856.535312 113.397549 
L 857.008924 113.397549 
L 857.24573 101.684766 
L 857.719343 101.684766 
L 857.956149 113.397549 
L 858.192955 108.651942 
L 858.429761 108.651942 
L 858.666568 108.151307 
L 858.903374 108.651942 
L 860.324211 108.651942 
L 860.561017 104.469551 
L 862.692273 104.469551 
L 862.929079 107.588092 
L 865.060335 107.588092 
L 865.297141 102.446149 
L 865.533948 102.446149 
L 865.770754 106.628541 
L 866.481173 106.628541 
L 866.717979 111.374148 
L 868.612428 111.374148 
L 868.849235 100.933813 
L 869.559653 100.933813 
L 869.796459 111.582746 
L 870.033266 111.582746 
L 870.270072 88.887273 
L 870.98049 88.887273 
L 871.217297 103.051084 
L 871.690909 103.051084 
L 871.690909 103.051084 
" style="fill:none;stroke:#8dd3c7;stroke-linecap:square;stroke-width:1.5;"/>
   </g>
   <g id="line2d_17">
    <path clip-path="url(#p1ae7bd38a0)" d="M 161.509091 195.741648 
L 281.096226 195.741648 
L 281.333032 189.045649 
L 281.569838 166.350176 
L 282.280257 138.710928 
L 808.937264 138.710928 
L 809.17407 136.166031 
L 809.410876 134.956162 
L 809.647683 130.210556 
L 832.381079 130.210556 
L 832.617885 118.549922 
L 832.854691 118.549922 
L 833.091497 109.747082 
L 834.275528 109.747082 
L 834.512334 108.412055 
L 838.301234 108.412055 
L 838.53804 107.181326 
L 838.774846 96.740991 
L 870.033266 96.740991 
L 870.270072 88.887273 
L 871.690909 88.887273 
L 871.690909 88.887273 
" style="fill:none;stroke:#feffb3;stroke-linecap:square;stroke-width:1.5;"/>
   </g>
   <g id="line2d_18">
    <path clip-path="url(#p1ae7bd38a0)" d="M 161.509091 195.741648 
L 163.166734 195.741648 
L 163.403541 207.081358 
L 165.061184 207.081358 
L 165.29799 217.975338 
L 166.955634 217.975338 
L 167.19244 228.441109 
L 168.850083 228.441109 
L 169.08689 238.495502 
L 170.744533 238.495502 
L 170.981339 248.154688 
L 172.638983 248.154688 
L 172.875789 257.434201 
L 174.533432 257.434201 
L 174.770239 266.348964 
L 176.427882 266.348964 
L 176.664688 274.913315 
L 178.322332 274.913315 
L 178.559138 283.141028 
L 180.216781 283.141028 
L 180.453588 291.045334 
L 182.111231 291.045334 
L 182.348037 298.638946 
L 184.005681 298.638946 
L 184.242487 305.934076 
L 185.90013 305.934076 
L 186.136937 312.942457 
L 187.79458 312.942457 
L 188.031386 319.675359 
L 189.68903 319.675359 
L 189.925836 326.143612 
L 191.583479 326.143612 
L 191.820286 332.357618 
L 193.477929 332.357618 
L 193.714735 338.327369 
L 195.372379 338.327369 
L 195.609185 344.062468 
L 197.266828 344.062468 
L 197.503635 349.572138 
L 199.161278 349.572138 
L 199.398084 354.86524 
L 201.055728 354.86524 
L 201.292534 359.950285 
L 202.950177 359.950285 
L 203.186984 364.835453 
L 204.844627 364.835453 
L 205.081433 369.5286 
L 206.739077 369.5286 
L 206.975883 374.037274 
L 208.633526 374.037274 
L 208.870333 378.368725 
L 210.527976 378.368725 
L 210.764782 382.52992 
L 212.422426 382.52992 
L 212.659232 386.527552 
L 214.316875 386.527552 
L 214.553682 390.368048 
L 216.211325 390.368048 
L 216.448131 394.057587 
L 218.105775 394.057587 
L 218.342581 397.6021 
L 220.000224 397.6021 
L 220.237031 401.00729 
L 221.894674 401.00729 
L 222.13148 404.278632 
L 223.789124 404.278632 
L 224.02593 407.421388 
L 225.683573 407.421388 
L 225.92038 410.440611 
L 227.578023 410.440611 
L 227.814829 413.341158 
L 229.472473 413.341158 
L 229.709279 416.127694 
L 231.366922 416.127694 
L 231.603729 418.804699 
L 233.261372 418.804699 
L 233.498178 421.376479 
L 235.155822 421.376479 
L 235.392628 423.84717 
L 237.050271 423.84717 
L 237.287078 426.220746 
L 238.944721 426.220746 
L 239.181527 428.501024 
L 240.839171 428.501024 
L 241.075977 430.691671 
L 242.73362 430.691671 
L 242.970427 432.79621 
L 244.62807 432.79621 
L 244.864876 434.818027 
L 246.52252 434.818027 
L 246.759326 436.760372 
L 248.416969 436.760372 
L 248.653776 438.626369 
L 250.311419 438.626369 
L 250.548225 440.41902 
L 252.205869 440.41902 
L 252.442675 442.141207 
L 254.100318 442.141207 
L 254.337124 443.7957 
L 255.994768 443.7957 
L 256.231574 445.38516 
L 257.889218 445.38516 
L 258.126024 446.912143 
L 259.783667 446.912143 
L 260.020473 448.379105 
L 261.678117 448.379105 
L 261.914923 449.788405 
L 263.572567 449.788405 
L 263.809373 451.14231 
L 265.467016 451.14231 
L 265.703822 452.442997 
L 267.361466 452.442997 
L 267.598272 453.692558 
L 269.255916 453.692558 
L 269.492722 454.893003 
L 271.150365 454.893003 
L 271.387171 456.046261 
L 273.044815 456.046261 
L 273.281621 457.154189 
L 274.939265 457.154189 
L 275.176071 458.218568 
L 276.833714 458.218568 
L 277.07052 459.241108 
L 278.728164 459.241108 
L 278.96497 460.223456 
L 280.622614 460.223456 
L 280.85942 461.167191 
L 282.517063 461.167191 
L 282.753869 462.073831 
L 284.411513 462.073831 
L 284.648319 462.944833 
L 286.305963 462.944833 
L 286.542769 463.781599 
L 288.200412 463.781599 
L 288.437218 464.585474 
L 290.094862 464.585474 
L 290.331668 465.357751 
L 291.989312 465.357751 
L 292.226118 466.099672 
L 293.883761 466.099672 
L 294.120567 466.812431 
L 295.778211 466.812431 
L 296.015017 467.497173 
L 297.672661 467.497173 
L 297.909467 468.155001 
L 299.56711 468.155001 
L 299.803916 468.786971 
L 301.46156 468.786971 
L 301.698366 469.3941 
L 303.35601 469.3941 
L 303.592816 469.977364 
L 305.250459 469.977364 
L 305.487265 470.537703 
L 307.144909 470.537703 
L 307.381715 471.076016 
L 309.039359 471.076016 
L 309.276165 471.59317 
L 310.933808 471.59317 
L 311.170614 472.089996 
L 312.828258 472.089996 
L 313.065064 472.567293 
L 314.722708 472.567293 
L 314.959514 473.025829 
L 316.617157 473.025829 
L 316.853963 473.466342 
L 318.511607 473.466342 
L 318.748413 473.889539 
L 320.406057 473.889539 
L 320.642863 474.296102 
L 322.300506 474.296102 
L 322.537312 474.686684 
L 324.194956 474.686684 
L 324.431762 475.061913 
L 326.089406 475.061913 
L 326.326212 475.422394 
L 327.983855 475.422394 
L 328.220661 475.768704 
L 329.878305 475.768704 
L 330.115111 476.101403 
L 331.772755 476.101403 
L 332.009561 476.421024 
L 333.667204 476.421024 
L 333.90401 476.728082 
L 335.561654 476.728082 
L 335.79846 477.02307 
L 337.456104 477.02307 
L 337.69291 477.306463 
L 339.350553 477.306463 
L 339.587359 477.578717 
L 341.245003 477.578717 
L 341.481809 477.840269 
L 343.139453 477.840269 
L 343.376259 478.091541 
L 345.033902 478.091541 
L 345.270708 478.332936 
L 346.928352 478.332936 
L 347.165158 478.564842 
L 348.822802 478.564842 
L 349.059608 478.787633 
L 350.717251 478.787633 
L 350.954057 479.001666 
L 352.611701 479.001666 
L 352.848507 479.207287 
L 354.506151 479.207287 
L 354.742957 479.404825 
L 356.4006 479.404825 
L 356.637406 479.594599 
L 358.29505 479.594599 
L 358.531856 479.776913 
L 360.1895 479.776913 
L 360.426306 479.952061 
L 362.083949 479.952061 
L 362.320755 480.120324 
L 363.978399 480.120324 
L 364.215205 480.281974 
L 365.872849 480.281974 
L 366.109655 480.43727 
L 367.767298 480.43727 
L 368.004104 480.586461 
L 369.661748 480.586461 
L 369.898554 480.729788 
L 371.556198 480.729788 
L 371.793004 480.867481 
L 373.450647 480.867481 
L 373.687453 480.999762 
L 375.345097 480.999762 
L 375.581903 481.126844 
L 377.239547 481.126844 
L 377.713159 481.24893 
L 379.133996 481.24893 
L 379.607609 481.366218 
L 381.028446 481.366218 
L 381.502058 481.478895 
L 384.817345 481.587143 
L 385.290958 481.691136 
L 388.606245 481.791042 
L 389.079857 481.887021 
L 392.395144 481.979227 
L 392.868756 482.067809 
L 396.184043 482.152908 
L 396.657656 482.234663 
L 399.972942 482.313205 
L 400.446555 482.388659 
L 403.761842 482.461147 
L 404.235454 482.530786 
L 407.550741 482.597687 
L 408.024354 482.661959 
L 411.33964 482.723705 
L 411.813253 482.783023 
L 415.12854 482.84001 
L 415.838958 482.894757 
L 420.811889 482.99788 
L 421.522307 483.046422 
L 426.495238 483.137856 
L 427.205656 483.180895 
L 432.178587 483.261965 
L 432.889005 483.300127 
L 439.756385 483.405844 
L 440.70361 483.438349 
L 447.334184 483.528399 
L 448.518215 483.556088 
L 456.806432 483.656378 
L 457.990463 483.679036 
L 468.17313 483.779646 
L 469.830774 483.797459 
L 483.328728 483.904011 
L 485.69679 483.929352 
L 507.956573 484.03759 
L 511.982279 484.059718 
L 561.001164 484.169296 
L 572.841474 484.184842 
L 871.690909 484.232727 
L 871.690909 484.232727 
" style="fill:none;stroke:#bfbbd9;stroke-linecap:square;stroke-width:1.5;"/>
   </g>
   <g id="patch_3">
    <path d="M 126 504 
L 126 69.12 
" style="fill:none;stroke:#ffffff;stroke-linecap:square;stroke-linejoin:miter;stroke-width:0.8;"/>
   </g>
   <g id="patch_4">
    <path d="M 907.2 504 
L 907.2 69.12 
" style="fill:none;stroke:#ffffff;stroke-linecap:square;stroke-linejoin:miter;stroke-width:0.8;"/>
   </g>
   <g id="patch_5">
    <path d="M 126 504 
L 907.2 504 
" style="fill:none;stroke:#ffffff;stroke-linecap:square;stroke-linejoin:miter;stroke-width:0.8;"/>
   </g>
   <g id="patch_6">
    <path d="M 126 69.12 
L 907.2 69.12 
" style="fill:none;stroke:#ffffff;stroke-linecap:square;stroke-linejoin:miter;stroke-width:0.8;"/>
   </g>
   <g id="text_17">
    <!-- instance 10 with error 0.03632989271368281 -->
    <g style="fill:#ffffff;" transform="translate(378.046875 63.12)scale(0.12 -0.12)">
     <defs>
      <path d="M 2834 3397 
L 2834 2853 
Q 2591 2978 2328 3040 
Q 2066 3103 1784 3103 
Q 1356 3103 1142 2972 
Q 928 2841 928 2578 
Q 928 2378 1081 2264 
Q 1234 2150 1697 2047 
L 1894 2003 
Q 2506 1872 2764 1633 
Q 3022 1394 3022 966 
Q 3022 478 2636 193 
Q 2250 -91 1575 -91 
Q 1294 -91 989 -36 
Q 684 19 347 128 
L 347 722 
Q 666 556 975 473 
Q 1284 391 1588 391 
Q 1994 391 2212 530 
Q 2431 669 2431 922 
Q 2431 1156 2273 1281 
Q 2116 1406 1581 1522 
L 1381 1569 
Q 847 1681 609 1914 
Q 372 2147 372 2553 
Q 372 3047 722 3315 
Q 1072 3584 1716 3584 
Q 2034 3584 2315 3537 
Q 2597 3491 2834 3397 
z
" id="DejaVuSans-73" transform="scale(0.015625)"/>
      <path d="M 3122 3366 
L 3122 2828 
Q 2878 2963 2633 3030 
Q 2388 3097 2138 3097 
Q 1578 3097 1268 2742 
Q 959 2388 959 1747 
Q 959 1106 1268 751 
Q 1578 397 2138 397 
Q 2388 397 2633 464 
Q 2878 531 3122 666 
L 3122 134 
Q 2881 22 2623 -34 
Q 2366 -91 2075 -91 
Q 1284 -91 818 406 
Q 353 903 353 1747 
Q 353 2603 823 3093 
Q 1294 3584 2113 3584 
Q 2378 3584 2631 3529 
Q 2884 3475 3122 3366 
z
" id="DejaVuSans-63" transform="scale(0.015625)"/>
      <path id="DejaVuSans-20" transform="scale(0.015625)"/>
      <path d="M 269 3500 
L 844 3500 
L 1563 769 
L 2278 3500 
L 2956 3500 
L 3675 769 
L 4391 3500 
L 4966 3500 
L 4050 0 
L 3372 0 
L 2619 2869 
L 1863 0 
L 1184 0 
L 269 3500 
z
" id="DejaVuSans-77" transform="scale(0.015625)"/>
      <path d="M 3513 2113 
L 3513 0 
L 2938 0 
L 2938 2094 
Q 2938 2591 2744 2837 
Q 2550 3084 2163 3084 
Q 1697 3084 1428 2787 
Q 1159 2491 1159 1978 
L 1159 0 
L 581 0 
L 581 4863 
L 1159 4863 
L 1159 2956 
Q 1366 3272 1645 3428 
Q 1925 3584 2291 3584 
Q 2894 3584 3203 3211 
Q 3513 2838 3513 2113 
z
" id="DejaVuSans-68" transform="scale(0.015625)"/>
      <path d="M 684 794 
L 1344 794 
L 1344 0 
L 684 0 
L 684 794 
z
" id="DejaVuSans-2e" transform="scale(0.015625)"/>
      <path d="M 2113 2584 
Q 1688 2584 1439 2293 
Q 1191 2003 1191 1497 
Q 1191 994 1439 701 
Q 1688 409 2113 409 
Q 2538 409 2786 701 
Q 3034 994 3034 1497 
Q 3034 2003 2786 2293 
Q 2538 2584 2113 2584 
z
M 3366 4563 
L 3366 3988 
Q 3128 4100 2886 4159 
Q 2644 4219 2406 4219 
Q 1781 4219 1451 3797 
Q 1122 3375 1075 2522 
Q 1259 2794 1537 2939 
Q 1816 3084 2150 3084 
Q 2853 3084 3261 2657 
Q 3669 2231 3669 1497 
Q 3669 778 3244 343 
Q 2819 -91 2113 -91 
Q 1303 -91 875 529 
Q 447 1150 447 2328 
Q 447 3434 972 4092 
Q 1497 4750 2381 4750 
Q 2619 4750 2861 4703 
Q 3103 4656 3366 4563 
z
" id="DejaVuSans-36" transform="scale(0.015625)"/>
      <path d="M 703 97 
L 703 672 
Q 941 559 1184 500 
Q 1428 441 1663 441 
Q 2288 441 2617 861 
Q 2947 1281 2994 2138 
Q 2813 1869 2534 1725 
Q 2256 1581 1919 1581 
Q 1219 1581 811 2004 
Q 403 2428 403 3163 
Q 403 3881 828 4315 
Q 1253 4750 1959 4750 
Q 2769 4750 3195 4129 
Q 3622 3509 3622 2328 
Q 3622 1225 3098 567 
Q 2575 -91 1691 -91 
Q 1453 -91 1209 -44 
Q 966 3 703 97 
z
M 1959 2075 
Q 2384 2075 2632 2365 
Q 2881 2656 2881 3163 
Q 2881 3666 2632 3958 
Q 2384 4250 1959 4250 
Q 1534 4250 1286 3958 
Q 1038 3666 1038 3163 
Q 1038 2656 1286 2365 
Q 1534 2075 1959 2075 
z
" id="DejaVuSans-39" transform="scale(0.015625)"/>
      <path d="M 2034 2216 
Q 1584 2216 1326 1975 
Q 1069 1734 1069 1313 
Q 1069 891 1326 650 
Q 1584 409 2034 409 
Q 2484 409 2743 651 
Q 3003 894 3003 1313 
Q 3003 1734 2745 1975 
Q 2488 2216 2034 2216 
z
M 1403 2484 
Q 997 2584 770 2862 
Q 544 3141 544 3541 
Q 544 4100 942 4425 
Q 1341 4750 2034 4750 
Q 2731 4750 3128 4425 
Q 3525 4100 3525 3541 
Q 3525 3141 3298 2862 
Q 3072 2584 2669 2484 
Q 3125 2378 3379 2068 
Q 3634 1759 3634 1313 
Q 3634 634 3220 271 
Q 2806 -91 2034 -91 
Q 1263 -91 848 271 
Q 434 634 434 1313 
Q 434 1759 690 2068 
Q 947 2378 1403 2484 
z
M 1172 3481 
Q 1172 3119 1398 2916 
Q 1625 2713 2034 2713 
Q 2441 2713 2670 2916 
Q 2900 3119 2900 3481 
Q 2900 3844 2670 4047 
Q 2441 4250 2034 4250 
Q 1625 4250 1398 4047 
Q 1172 3844 1172 3481 
z
" id="DejaVuSans-38" transform="scale(0.015625)"/>
      <path d="M 525 4666 
L 3525 4666 
L 3525 4397 
L 1831 0 
L 1172 0 
L 2766 4134 
L 525 4134 
L 525 4666 
z
" id="DejaVuSans-37" transform="scale(0.015625)"/>
     </defs>
     <use xlink:href="#DejaVuSans-69"/>
     <use x="27.783203" xlink:href="#DejaVuSans-6e"/>
     <use x="91.162109" xlink:href="#DejaVuSans-73"/>
     <use x="143.261719" xlink:href="#DejaVuSans-74"/>
     <use x="182.470703" xlink:href="#DejaVuSans-61"/>
     <use x="243.75" xlink:href="#DejaVuSans-6e"/>
     <use x="307.128906" xlink:href="#DejaVuSans-63"/>
     <use x="362.109375" xlink:href="#DejaVuSans-65"/>
     <use x="423.632812" xlink:href="#DejaVuSans-20"/>
     <use x="455.419922" xlink:href="#DejaVuSans-31"/>
     <use x="519.042969" xlink:href="#DejaVuSans-30"/>
     <use x="582.666016" xlink:href="#DejaVuSans-20"/>
     <use x="614.453125" xlink:href="#DejaVuSans-77"/>
     <use x="696.240234" xlink:href="#DejaVuSans-69"/>
     <use x="724.023438" xlink:href="#DejaVuSans-74"/>
     <use x="763.232422" xlink:href="#DejaVuSans-68"/>
     <use x="826.611328" xlink:href="#DejaVuSans-20"/>
     <use x="858.398438" xlink:href="#DejaVuSans-65"/>
     <use x="919.921875" xlink:href="#DejaVuSans-72"/>
     <use x="959.285156" xlink:href="#DejaVuSans-72"/>
     <use x="998.148438" xlink:href="#DejaVuSans-6f"/>
     <use x="1059.330078" xlink:href="#DejaVuSans-72"/>
     <use x="1100.443359" xlink:href="#DejaVuSans-20"/>
     <use x="1132.230469" xlink:href="#DejaVuSans-30"/>
     <use x="1195.853516" xlink:href="#DejaVuSans-2e"/>
     <use x="1227.640625" xlink:href="#DejaVuSans-30"/>
     <use x="1291.263672" xlink:href="#DejaVuSans-33"/>
     <use x="1354.886719" xlink:href="#DejaVuSans-36"/>
     <use x="1418.509766" xlink:href="#DejaVuSans-33"/>
     <use x="1482.132812" xlink:href="#DejaVuSans-32"/>
     <use x="1545.755859" xlink:href="#DejaVuSans-39"/>
     <use x="1609.378906" xlink:href="#DejaVuSans-38"/>
     <use x="1673.001953" xlink:href="#DejaVuSans-39"/>
     <use x="1736.625" xlink:href="#DejaVuSans-32"/>
     <use x="1800.248047" xlink:href="#DejaVuSans-37"/>
     <use x="1863.871094" xlink:href="#DejaVuSans-31"/>
     <use x="1927.494141" xlink:href="#DejaVuSans-33"/>
     <use x="1991.117188" xlink:href="#DejaVuSans-36"/>
     <use x="2054.740234" xlink:href="#DejaVuSans-38"/>
     <use x="2118.363281" xlink:href="#DejaVuSans-32"/>
     <use x="2181.986328" xlink:href="#DejaVuSans-38"/>
     <use x="2245.609375" xlink:href="#DejaVuSans-31"/>
    </g>
   </g>
   <g id="legend_1">
    <g id="patch_7">
     <path d="M 805.348438 499 
L 900.2 499 
Q 902.2 499 902.2 497 
L 902.2 453.965625 
Q 902.2 451.965625 900.2 451.965625 
L 805.348438 451.965625 
Q 803.348438 451.965625 803.348438 453.965625 
L 803.348438 497 
Q 803.348438 499 805.348438 499 
z
" style="opacity:0.8;stroke:#cccccc;stroke-linejoin:miter;"/>
    </g>
    <g id="line2d_19">
     <path d="M 807.348438 460.064062 
L 827.348438 460.064062 
" style="fill:none;stroke:#8dd3c7;stroke-linecap:square;stroke-width:1.5;"/>
    </g>
    <g id="line2d_20"/>
    <g id="text_18">
     <!-- cost -->
     <g style="fill:#ffffff;" transform="translate(835.348438 463.564062)scale(0.1 -0.1)">
      <use xlink:href="#DejaVuSans-63"/>
      <use x="54.980469" xlink:href="#DejaVuSans-6f"/>
      <use x="116.162109" xlink:href="#DejaVuSans-73"/>
      <use x="168.261719" xlink:href="#DejaVuSans-74"/>
     </g>
    </g>
    <g id="line2d_21">
     <path d="M 807.348438 474.742188 
L 827.348438 474.742188 
" style="fill:none;stroke:#feffb3;stroke-linecap:square;stroke-width:1.5;"/>
    </g>
    <g id="line2d_22"/>
    <g id="text_19">
     <!-- best cost -->
     <g style="fill:#ffffff;" transform="translate(835.348438 478.242188)scale(0.1 -0.1)">
      <defs>
       <path d="M 3116 1747 
Q 3116 2381 2855 2742 
Q 2594 3103 2138 3103 
Q 1681 3103 1420 2742 
Q 1159 2381 1159 1747 
Q 1159 1113 1420 752 
Q 1681 391 2138 391 
Q 2594 391 2855 752 
Q 3116 1113 3116 1747 
z
M 1159 2969 
Q 1341 3281 1617 3432 
Q 1894 3584 2278 3584 
Q 2916 3584 3314 3078 
Q 3713 2572 3713 1747 
Q 3713 922 3314 415 
Q 2916 -91 2278 -91 
Q 1894 -91 1617 61 
Q 1341 213 1159 525 
L 1159 0 
L 581 0 
L 581 4863 
L 1159 4863 
L 1159 2969 
z
" id="DejaVuSans-62" transform="scale(0.015625)"/>
      </defs>
      <use xlink:href="#DejaVuSans-62"/>
      <use x="63.476562" xlink:href="#DejaVuSans-65"/>
      <use x="125" xlink:href="#DejaVuSans-73"/>
      <use x="177.099609" xlink:href="#DejaVuSans-74"/>
      <use x="216.308594" xlink:href="#DejaVuSans-20"/>
      <use x="248.095703" xlink:href="#DejaVuSans-63"/>
      <use x="303.076172" xlink:href="#DejaVuSans-6f"/>
      <use x="364.257812" xlink:href="#DejaVuSans-73"/>
      <use x="416.357422" xlink:href="#DejaVuSans-74"/>
     </g>
    </g>
    <g id="line2d_23">
     <path d="M 807.348438 489.420313 
L 827.348438 489.420313 
" style="fill:none;stroke:#bfbbd9;stroke-linecap:square;stroke-width:1.5;"/>
    </g>
    <g id="line2d_24"/>
    <g id="text_20">
     <!-- temperature -->
     <g style="fill:#ffffff;" transform="translate(835.348438 492.920313)scale(0.1 -0.1)">
      <defs>
       <path d="M 3328 2828 
Q 3544 3216 3844 3400 
Q 4144 3584 4550 3584 
Q 5097 3584 5394 3201 
Q 5691 2819 5691 2113 
L 5691 0 
L 5113 0 
L 5113 2094 
Q 5113 2597 4934 2840 
Q 4756 3084 4391 3084 
Q 3944 3084 3684 2787 
Q 3425 2491 3425 1978 
L 3425 0 
L 2847 0 
L 2847 2094 
Q 2847 2600 2669 2842 
Q 2491 3084 2119 3084 
Q 1678 3084 1418 2786 
Q 1159 2488 1159 1978 
L 1159 0 
L 581 0 
L 581 3500 
L 1159 3500 
L 1159 2956 
Q 1356 3278 1631 3431 
Q 1906 3584 2284 3584 
Q 2666 3584 2933 3390 
Q 3200 3197 3328 2828 
z
" id="DejaVuSans-6d" transform="scale(0.015625)"/>
       <path d="M 1159 525 
L 1159 -1331 
L 581 -1331 
L 581 3500 
L 1159 3500 
L 1159 2969 
Q 1341 3281 1617 3432 
Q 1894 3584 2278 3584 
Q 2916 3584 3314 3078 
Q 3713 2572 3713 1747 
Q 3713 922 3314 415 
Q 2916 -91 2278 -91 
Q 1894 -91 1617 61 
Q 1341 213 1159 525 
z
M 3116 1747 
Q 3116 2381 2855 2742 
Q 2594 3103 2138 3103 
Q 1681 3103 1420 2742 
Q 1159 2381 1159 1747 
Q 1159 1113 1420 752 
Q 1681 391 2138 391 
Q 2594 391 2855 752 
Q 3116 1113 3116 1747 
z
" id="DejaVuSans-70" transform="scale(0.015625)"/>
       <path d="M 544 1381 
L 544 3500 
L 1119 3500 
L 1119 1403 
Q 1119 906 1312 657 
Q 1506 409 1894 409 
Q 2359 409 2629 706 
Q 2900 1003 2900 1516 
L 2900 3500 
L 3475 3500 
L 3475 0 
L 2900 0 
L 2900 538 
Q 2691 219 2414 64 
Q 2138 -91 1772 -91 
Q 1169 -91 856 284 
Q 544 659 544 1381 
z
M 1991 3584 
L 1991 3584 
z
" id="DejaVuSans-75" transform="scale(0.015625)"/>
      </defs>
      <use xlink:href="#DejaVuSans-74"/>
      <use x="39.208984" xlink:href="#DejaVuSans-65"/>
      <use x="100.732422" xlink:href="#DejaVuSans-6d"/>
      <use x="198.144531" xlink:href="#DejaVuSans-70"/>
      <use x="261.621094" xlink:href="#DejaVuSans-65"/>
      <use x="323.144531" xlink:href="#DejaVuSans-72"/>
      <use x="364.257812" xlink:href="#DejaVuSans-61"/>
      <use x="425.537109" xlink:href="#DejaVuSans-74"/>
      <use x="464.746094" xlink:href="#DejaVuSans-75"/>
      <use x="528.125" xlink:href="#DejaVuSans-72"/>
      <use x="566.988281" xlink:href="#DejaVuSans-65"/>
     </g>
    </g>
   </g>
  </g>
 </g>
 <defs>
  <clipPath id="p1ae7bd38a0">
   <rect height="434.88" width="781.2" x="126" y="69.12"/>
  </clipPath>
 </defs>
</svg>
