<?xml version="1.0" encoding="utf-8" standalone="no"?>
<!DOCTYPE svg PUBLIC "-//W3C//DTD SVG 1.1//EN"
  "http://www.w3.org/Graphics/SVG/1.1/DTD/svg11.dtd">
<svg height="576pt" version="1.1" viewBox="0 0 1008 576" width="1008pt" xmlns="http://www.w3.org/2000/svg" xmlns:xlink="http://www.w3.org/1999/xlink">
 <metadata>
  <rdf:RDF xmlns:cc="http://creativecommons.org/ns#" xmlns:dc="http://purl.org/dc/elements/1.1/" xmlns:rdf="http://www.w3.org/1999/02/22-rdf-syntax-ns#">
   <cc:Work>
    <dc:type rdf:resource="http://purl.org/dc/dcmitype/StillImage"/>
    <dc:date>2022-01-07T00:32:36.913792</dc:date>
    <dc:format>image/svg+xml</dc:format>
    <dc:creator>
     <cc:Agent>
      <dc:title>Matplotlib v3.4.3, https://matplotlib.org/</dc:title>
     </cc:Agent>
    </dc:creator>
   </cc:Work>
  </rdf:RDF>
 </metadata>
 <defs>
  <style type="text/css">*{stroke-linecap:butt;stroke-linejoin:round;}</style>
 </defs>
 <g id="figure_1">
  <g id="patch_1">
   <path d="M 0 576 
L 1008 576 
L 1008 0 
L 0 0 
z
"/>
  </g>
  <g id="axes_1">
   <g id="patch_2">
    <path d="M 126 504 
L 907.2 504 
L 907.2 69.12 
L 126 69.12 
z
"/>
   </g>
   <g id="matplotlib.axis_1">
    <g id="xtick_1">
     <g id="line2d_1">
      <defs>
       <path d="M 0 0 
L 0 3.5 
" id="m7acfd468ba" style="stroke:#ffffff;stroke-width:0.8;"/>
      </defs>
      <g>
       <use style="fill:#ffffff;stroke:#ffffff;stroke-width:0.8;" x="161.509091" xlink:href="#m7acfd468ba" y="504"/>
      </g>
     </g>
     <g id="text_1">
      <!-- 0 -->
      <g style="fill:#ffffff;" transform="translate(158.327841 518.598438)scale(0.1 -0.1)">
       <defs>
        <path d="M 2034 4250 
Q 1547 4250 1301 3770 
Q 1056 3291 1056 2328 
Q 1056 1369 1301 889 
Q 1547 409 2034 409 
Q 2525 409 2770 889 
Q 3016 1369 3016 2328 
Q 3016 3291 2770 3770 
Q 2525 4250 2034 4250 
z
M 2034 4750 
Q 2819 4750 3233 4129 
Q 3647 3509 3647 2328 
Q 3647 1150 3233 529 
Q 2819 -91 2034 -91 
Q 1250 -91 836 529 
Q 422 1150 422 2328 
Q 422 3509 836 4129 
Q 1250 4750 2034 4750 
z
" id="DejaVuSans-30" transform="scale(0.015625)"/>
       </defs>
       <use xlink:href="#DejaVuSans-30"/>
      </g>
     </g>
    </g>
    <g id="xtick_2">
     <g id="line2d_2">
      <g>
       <use style="fill:#ffffff;stroke:#ffffff;stroke-width:0.8;" x="279.912195" xlink:href="#m7acfd468ba" y="504"/>
      </g>
     </g>
     <g id="text_2">
      <!-- 500 -->
      <g style="fill:#ffffff;" transform="translate(270.368445 518.598438)scale(0.1 -0.1)">
       <defs>
        <path d="M 691 4666 
L 3169 4666 
L 3169 4134 
L 1269 4134 
L 1269 2991 
Q 1406 3038 1543 3061 
Q 1681 3084 1819 3084 
Q 2600 3084 3056 2656 
Q 3513 2228 3513 1497 
Q 3513 744 3044 326 
Q 2575 -91 1722 -91 
Q 1428 -91 1123 -41 
Q 819 9 494 109 
L 494 744 
Q 775 591 1075 516 
Q 1375 441 1709 441 
Q 2250 441 2565 725 
Q 2881 1009 2881 1497 
Q 2881 1984 2565 2268 
Q 2250 2553 1709 2553 
Q 1456 2553 1204 2497 
Q 953 2441 691 2322 
L 691 4666 
z
" id="DejaVuSans-35" transform="scale(0.015625)"/>
       </defs>
       <use xlink:href="#DejaVuSans-35"/>
       <use x="63.623047" xlink:href="#DejaVuSans-30"/>
       <use x="127.246094" xlink:href="#DejaVuSans-30"/>
      </g>
     </g>
    </g>
    <g id="xtick_3">
     <g id="line2d_3">
      <g>
       <use style="fill:#ffffff;stroke:#ffffff;stroke-width:0.8;" x="398.315299" xlink:href="#m7acfd468ba" y="504"/>
      </g>
     </g>
     <g id="text_3">
      <!-- 1000 -->
      <g style="fill:#ffffff;" transform="translate(385.590299 518.598438)scale(0.1 -0.1)">
       <defs>
        <path d="M 794 531 
L 1825 531 
L 1825 4091 
L 703 3866 
L 703 4441 
L 1819 4666 
L 2450 4666 
L 2450 531 
L 3481 531 
L 3481 0 
L 794 0 
L 794 531 
z
" id="DejaVuSans-31" transform="scale(0.015625)"/>
       </defs>
       <use xlink:href="#DejaVuSans-31"/>
       <use x="63.623047" xlink:href="#DejaVuSans-30"/>
       <use x="127.246094" xlink:href="#DejaVuSans-30"/>
       <use x="190.869141" xlink:href="#DejaVuSans-30"/>
      </g>
     </g>
    </g>
    <g id="xtick_4">
     <g id="line2d_4">
      <g>
       <use style="fill:#ffffff;stroke:#ffffff;stroke-width:0.8;" x="516.718403" xlink:href="#m7acfd468ba" y="504"/>
      </g>
     </g>
     <g id="text_4">
      <!-- 1500 -->
      <g style="fill:#ffffff;" transform="translate(503.993403 518.598438)scale(0.1 -0.1)">
       <use xlink:href="#DejaVuSans-31"/>
       <use x="63.623047" xlink:href="#DejaVuSans-35"/>
       <use x="127.246094" xlink:href="#DejaVuSans-30"/>
       <use x="190.869141" xlink:href="#DejaVuSans-30"/>
      </g>
     </g>
    </g>
    <g id="xtick_5">
     <g id="line2d_5">
      <g>
       <use style="fill:#ffffff;stroke:#ffffff;stroke-width:0.8;" x="635.121507" xlink:href="#m7acfd468ba" y="504"/>
      </g>
     </g>
     <g id="text_5">
      <!-- 2000 -->
      <g style="fill:#ffffff;" transform="translate(622.396507 518.598438)scale(0.1 -0.1)">
       <defs>
        <path d="M 1228 531 
L 3431 531 
L 3431 0 
L 469 0 
L 469 531 
Q 828 903 1448 1529 
Q 2069 2156 2228 2338 
Q 2531 2678 2651 2914 
Q 2772 3150 2772 3378 
Q 2772 3750 2511 3984 
Q 2250 4219 1831 4219 
Q 1534 4219 1204 4116 
Q 875 4013 500 3803 
L 500 4441 
Q 881 4594 1212 4672 
Q 1544 4750 1819 4750 
Q 2544 4750 2975 4387 
Q 3406 4025 3406 3419 
Q 3406 3131 3298 2873 
Q 3191 2616 2906 2266 
Q 2828 2175 2409 1742 
Q 1991 1309 1228 531 
z
" id="DejaVuSans-32" transform="scale(0.015625)"/>
       </defs>
       <use xlink:href="#DejaVuSans-32"/>
       <use x="63.623047" xlink:href="#DejaVuSans-30"/>
       <use x="127.246094" xlink:href="#DejaVuSans-30"/>
       <use x="190.869141" xlink:href="#DejaVuSans-30"/>
      </g>
     </g>
    </g>
    <g id="xtick_6">
     <g id="line2d_6">
      <g>
       <use style="fill:#ffffff;stroke:#ffffff;stroke-width:0.8;" x="753.524611" xlink:href="#m7acfd468ba" y="504"/>
      </g>
     </g>
     <g id="text_6">
      <!-- 2500 -->
      <g style="fill:#ffffff;" transform="translate(740.799611 518.598438)scale(0.1 -0.1)">
       <use xlink:href="#DejaVuSans-32"/>
       <use x="63.623047" xlink:href="#DejaVuSans-35"/>
       <use x="127.246094" xlink:href="#DejaVuSans-30"/>
       <use x="190.869141" xlink:href="#DejaVuSans-30"/>
      </g>
     </g>
    </g>
    <g id="xtick_7">
     <g id="line2d_7">
      <g>
       <use style="fill:#ffffff;stroke:#ffffff;stroke-width:0.8;" x="871.927715" xlink:href="#m7acfd468ba" y="504"/>
      </g>
     </g>
     <g id="text_7">
      <!-- 3000 -->
      <g style="fill:#ffffff;" transform="translate(859.202715 518.598438)scale(0.1 -0.1)">
       <defs>
        <path d="M 2597 2516 
Q 3050 2419 3304 2112 
Q 3559 1806 3559 1356 
Q 3559 666 3084 287 
Q 2609 -91 1734 -91 
Q 1441 -91 1130 -33 
Q 819 25 488 141 
L 488 750 
Q 750 597 1062 519 
Q 1375 441 1716 441 
Q 2309 441 2620 675 
Q 2931 909 2931 1356 
Q 2931 1769 2642 2001 
Q 2353 2234 1838 2234 
L 1294 2234 
L 1294 2753 
L 1863 2753 
Q 2328 2753 2575 2939 
Q 2822 3125 2822 3475 
Q 2822 3834 2567 4026 
Q 2313 4219 1838 4219 
Q 1578 4219 1281 4162 
Q 984 4106 628 3988 
L 628 4550 
Q 988 4650 1302 4700 
Q 1616 4750 1894 4750 
Q 2613 4750 3031 4423 
Q 3450 4097 3450 3541 
Q 3450 3153 3228 2886 
Q 3006 2619 2597 2516 
z
" id="DejaVuSans-33" transform="scale(0.015625)"/>
       </defs>
       <use xlink:href="#DejaVuSans-33"/>
       <use x="63.623047" xlink:href="#DejaVuSans-30"/>
       <use x="127.246094" xlink:href="#DejaVuSans-30"/>
       <use x="190.869141" xlink:href="#DejaVuSans-30"/>
      </g>
     </g>
    </g>
    <g id="text_8">
     <!-- iteration -->
     <g style="fill:#ffffff;" transform="translate(495.477344 532.276562)scale(0.1 -0.1)">
      <defs>
       <path d="M 603 3500 
L 1178 3500 
L 1178 0 
L 603 0 
L 603 3500 
z
M 603 4863 
L 1178 4863 
L 1178 4134 
L 603 4134 
L 603 4863 
z
" id="DejaVuSans-69" transform="scale(0.015625)"/>
       <path d="M 1172 4494 
L 1172 3500 
L 2356 3500 
L 2356 3053 
L 1172 3053 
L 1172 1153 
Q 1172 725 1289 603 
Q 1406 481 1766 481 
L 2356 481 
L 2356 0 
L 1766 0 
Q 1100 0 847 248 
Q 594 497 594 1153 
L 594 3053 
L 172 3053 
L 172 3500 
L 594 3500 
L 594 4494 
L 1172 4494 
z
" id="DejaVuSans-74" transform="scale(0.015625)"/>
       <path d="M 3597 1894 
L 3597 1613 
L 953 1613 
Q 991 1019 1311 708 
Q 1631 397 2203 397 
Q 2534 397 2845 478 
Q 3156 559 3463 722 
L 3463 178 
Q 3153 47 2828 -22 
Q 2503 -91 2169 -91 
Q 1331 -91 842 396 
Q 353 884 353 1716 
Q 353 2575 817 3079 
Q 1281 3584 2069 3584 
Q 2775 3584 3186 3129 
Q 3597 2675 3597 1894 
z
M 3022 2063 
Q 3016 2534 2758 2815 
Q 2500 3097 2075 3097 
Q 1594 3097 1305 2825 
Q 1016 2553 972 2059 
L 3022 2063 
z
" id="DejaVuSans-65" transform="scale(0.015625)"/>
       <path d="M 2631 2963 
Q 2534 3019 2420 3045 
Q 2306 3072 2169 3072 
Q 1681 3072 1420 2755 
Q 1159 2438 1159 1844 
L 1159 0 
L 581 0 
L 581 3500 
L 1159 3500 
L 1159 2956 
Q 1341 3275 1631 3429 
Q 1922 3584 2338 3584 
Q 2397 3584 2469 3576 
Q 2541 3569 2628 3553 
L 2631 2963 
z
" id="DejaVuSans-72" transform="scale(0.015625)"/>
       <path d="M 2194 1759 
Q 1497 1759 1228 1600 
Q 959 1441 959 1056 
Q 959 750 1161 570 
Q 1363 391 1709 391 
Q 2188 391 2477 730 
Q 2766 1069 2766 1631 
L 2766 1759 
L 2194 1759 
z
M 3341 1997 
L 3341 0 
L 2766 0 
L 2766 531 
Q 2569 213 2275 61 
Q 1981 -91 1556 -91 
Q 1019 -91 701 211 
Q 384 513 384 1019 
Q 384 1609 779 1909 
Q 1175 2209 1959 2209 
L 2766 2209 
L 2766 2266 
Q 2766 2663 2505 2880 
Q 2244 3097 1772 3097 
Q 1472 3097 1187 3025 
Q 903 2953 641 2809 
L 641 3341 
Q 956 3463 1253 3523 
Q 1550 3584 1831 3584 
Q 2591 3584 2966 3190 
Q 3341 2797 3341 1997 
z
" id="DejaVuSans-61" transform="scale(0.015625)"/>
       <path d="M 1959 3097 
Q 1497 3097 1228 2736 
Q 959 2375 959 1747 
Q 959 1119 1226 758 
Q 1494 397 1959 397 
Q 2419 397 2687 759 
Q 2956 1122 2956 1747 
Q 2956 2369 2687 2733 
Q 2419 3097 1959 3097 
z
M 1959 3584 
Q 2709 3584 3137 3096 
Q 3566 2609 3566 1747 
Q 3566 888 3137 398 
Q 2709 -91 1959 -91 
Q 1206 -91 779 398 
Q 353 888 353 1747 
Q 353 2609 779 3096 
Q 1206 3584 1959 3584 
z
" id="DejaVuSans-6f" transform="scale(0.015625)"/>
       <path d="M 3513 2113 
L 3513 0 
L 2938 0 
L 2938 2094 
Q 2938 2591 2744 2837 
Q 2550 3084 2163 3084 
Q 1697 3084 1428 2787 
Q 1159 2491 1159 1978 
L 1159 0 
L 581 0 
L 581 3500 
L 1159 3500 
L 1159 2956 
Q 1366 3272 1645 3428 
Q 1925 3584 2291 3584 
Q 2894 3584 3203 3211 
Q 3513 2838 3513 2113 
z
" id="DejaVuSans-6e" transform="scale(0.015625)"/>
      </defs>
      <use xlink:href="#DejaVuSans-69"/>
      <use x="27.783203" xlink:href="#DejaVuSans-74"/>
      <use x="66.992188" xlink:href="#DejaVuSans-65"/>
      <use x="128.515625" xlink:href="#DejaVuSans-72"/>
      <use x="169.628906" xlink:href="#DejaVuSans-61"/>
      <use x="230.908203" xlink:href="#DejaVuSans-74"/>
      <use x="270.117188" xlink:href="#DejaVuSans-69"/>
      <use x="297.900391" xlink:href="#DejaVuSans-6f"/>
      <use x="359.082031" xlink:href="#DejaVuSans-6e"/>
     </g>
    </g>
   </g>
   <g id="matplotlib.axis_2">
    <g id="ytick_1">
     <g id="line2d_8">
      <defs>
       <path d="M 0 0 
L -3.5 0 
" id="m6d5353f801" style="stroke:#ffffff;stroke-width:0.8;"/>
      </defs>
      <g>
       <use style="fill:#ffffff;stroke:#ffffff;stroke-width:0.8;" x="126" xlink:href="#m6d5353f801" y="484.232727"/>
      </g>
     </g>
     <g id="text_9">
      <!-- 0 -->
      <g style="fill:#ffffff;" transform="translate(112.6375 488.031946)scale(0.1 -0.1)">
       <use xlink:href="#DejaVuSans-30"/>
      </g>
     </g>
    </g>
    <g id="ytick_2">
     <g id="line2d_9">
      <g>
       <use style="fill:#ffffff;stroke:#ffffff;stroke-width:0.8;" x="126" xlink:href="#m6d5353f801" y="413.803851"/>
      </g>
     </g>
     <g id="text_10">
      <!-- 5000 -->
      <g style="fill:#ffffff;" transform="translate(93.55 417.60307)scale(0.1 -0.1)">
       <use xlink:href="#DejaVuSans-35"/>
       <use x="63.623047" xlink:href="#DejaVuSans-30"/>
       <use x="127.246094" xlink:href="#DejaVuSans-30"/>
       <use x="190.869141" xlink:href="#DejaVuSans-30"/>
      </g>
     </g>
    </g>
    <g id="ytick_3">
     <g id="line2d_10">
      <g>
       <use style="fill:#ffffff;stroke:#ffffff;stroke-width:0.8;" x="126" xlink:href="#m6d5353f801" y="343.374975"/>
      </g>
     </g>
     <g id="text_11">
      <!-- 10000 -->
      <g style="fill:#ffffff;" transform="translate(87.1875 347.174193)scale(0.1 -0.1)">
       <use xlink:href="#DejaVuSans-31"/>
       <use x="63.623047" xlink:href="#DejaVuSans-30"/>
       <use x="127.246094" xlink:href="#DejaVuSans-30"/>
       <use x="190.869141" xlink:href="#DejaVuSans-30"/>
       <use x="254.492188" xlink:href="#DejaVuSans-30"/>
      </g>
     </g>
    </g>
    <g id="ytick_4">
     <g id="line2d_11">
      <g>
       <use style="fill:#ffffff;stroke:#ffffff;stroke-width:0.8;" x="126" xlink:href="#m6d5353f801" y="272.946098"/>
      </g>
     </g>
     <g id="text_12">
      <!-- 15000 -->
      <g style="fill:#ffffff;" transform="translate(87.1875 276.745317)scale(0.1 -0.1)">
       <use xlink:href="#DejaVuSans-31"/>
       <use x="63.623047" xlink:href="#DejaVuSans-35"/>
       <use x="127.246094" xlink:href="#DejaVuSans-30"/>
       <use x="190.869141" xlink:href="#DejaVuSans-30"/>
       <use x="254.492188" xlink:href="#DejaVuSans-30"/>
      </g>
     </g>
    </g>
    <g id="ytick_5">
     <g id="line2d_12">
      <g>
       <use style="fill:#ffffff;stroke:#ffffff;stroke-width:0.8;" x="126" xlink:href="#m6d5353f801" y="202.517222"/>
      </g>
     </g>
     <g id="text_13">
      <!-- 20000 -->
      <g style="fill:#ffffff;" transform="translate(87.1875 206.316441)scale(0.1 -0.1)">
       <use xlink:href="#DejaVuSans-32"/>
       <use x="63.623047" xlink:href="#DejaVuSans-30"/>
       <use x="127.246094" xlink:href="#DejaVuSans-30"/>
       <use x="190.869141" xlink:href="#DejaVuSans-30"/>
       <use x="254.492188" xlink:href="#DejaVuSans-30"/>
      </g>
     </g>
    </g>
    <g id="ytick_6">
     <g id="line2d_13">
      <g>
       <use style="fill:#ffffff;stroke:#ffffff;stroke-width:0.8;" x="126" xlink:href="#m6d5353f801" y="132.088346"/>
      </g>
     </g>
     <g id="text_14">
      <!-- 25000 -->
      <g style="fill:#ffffff;" transform="translate(87.1875 135.887564)scale(0.1 -0.1)">
       <use xlink:href="#DejaVuSans-32"/>
       <use x="63.623047" xlink:href="#DejaVuSans-35"/>
       <use x="127.246094" xlink:href="#DejaVuSans-30"/>
       <use x="190.869141" xlink:href="#DejaVuSans-30"/>
       <use x="254.492188" xlink:href="#DejaVuSans-30"/>
      </g>
     </g>
    </g>
   </g>
   <g id="line2d_14">
    <path clip-path="url(#p39eaac66c8)" d="M 161.509091 231.533919 
L 161.745897 222.223222 
L 162.21951 280.721446 
L 162.456316 253.197841 
L 162.693122 260.184386 
L 163.166734 305.31521 
L 163.403541 333.810733 
L 163.877153 290.975891 
L 164.113959 290.496974 
L 164.587572 308.470424 
L 164.824378 296.314399 
L 165.061184 274.185647 
L 165.29799 263.057884 
L 165.534796 267.07233 
L 166.008409 305.596925 
L 166.482021 288.130564 
L 166.718827 308.808482 
L 166.955634 284.482348 
L 167.666052 250.831431 
L 167.902859 225.913695 
L 168.139665 225.913695 
L 168.613277 258.156034 
L 168.850083 270.960004 
L 169.08689 237.478116 
L 169.323696 232.815725 
L 169.560502 208.433248 
L 170.034114 257.212287 
L 170.270921 254.183846 
L 170.507727 249.324253 
L 170.744533 261.480277 
L 171.454952 333.514932 
L 171.928564 283.172371 
L 172.16537 283.172371 
L 172.402176 251.324433 
L 172.638983 276.24217 
L 172.875789 265.762353 
L 173.112595 290.426545 
L 173.586208 242.422223 
L 173.823014 236.266739 
L 174.533432 311.794667 
L 174.770239 286.87693 
L 175.007045 278.622666 
L 175.243851 252.451295 
L 175.480657 258.606779 
L 175.717463 268.931652 
L 175.95427 262.776169 
L 176.191076 271.030433 
L 176.427882 248.718565 
L 176.664688 250.338429 
L 176.901494 256.493913 
L 177.375107 302.751599 
L 177.611913 283.918917 
L 177.848719 276.932373 
L 178.085525 256.099511 
L 178.322332 287.947449 
L 178.559138 292.807041 
L 178.795944 286.651558 
L 179.03275 265.97364 
L 179.269557 290.356117 
L 179.506363 268.227364 
L 179.743169 291.933723 
L 179.979975 271.255805 
L 180.216781 304.836294 
L 180.453588 311.639723 
L 180.690394 324.063377 
L 180.9272 344.896238 
L 181.164006 314.006133 
L 181.400812 338.92387 
L 181.637619 328.598996 
L 181.874425 323.739404 
L 182.111231 323.739404 
L 182.348037 334.219221 
L 182.584843 353.051902 
L 183.058456 324.091548 
L 183.295262 303.41363 
L 183.532068 293.87756 
L 183.768874 267.70619 
L 184.005681 278.031063 
L 184.242487 275.002621 
L 184.479293 276.044969 
L 184.716099 251.127232 
L 184.952906 255.986825 
L 185.189712 268.142849 
L 185.426518 268.142849 
L 185.663324 290.271602 
L 185.90013 262.747997 
L 186.136937 260.001271 
L 186.373743 252.690753 
L 186.610549 261.198562 
L 186.847355 277.60849 
L 187.084161 263.734001 
L 187.557774 324.894438 
L 188.268192 252.718925 
L 188.504999 254.507818 
L 188.741805 244.99992 
L 188.978611 278.481808 
L 189.452223 301.864195 
L 189.68903 290.173001 
L 189.925836 314.555478 
L 190.162642 292.609841 
L 190.399448 287.214989 
L 190.636255 312.639813 
L 190.873061 307.780221 
L 191.109867 339.628158 
L 191.346673 333.472675 
L 191.583479 312.794757 
L 192.057092 370.969008 
L 192.293898 387.773338 
L 192.530704 362.855602 
L 192.76751 384.688554 
L 193.714735 316.668345 
L 193.951541 304.977151 
L 194.425154 353.178674 
L 194.66196 354.798538 
L 194.898766 321.161707 
L 195.135572 330.669605 
L 195.372379 308.357737 
L 195.609185 311.907353 
L 195.845991 295.497425 
L 196.082797 302.483969 
L 197.030022 395.816316 
L 197.977247 313.625817 
L 198.214053 339.797188 
L 198.450859 338.177324 
L 198.687666 271.664293 
L 198.924472 288.468623 
L 199.161278 264.142489 
L 199.398084 281.482078 
L 199.63489 276.622486 
L 199.871697 299.300584 
L 200.108503 278.622666 
L 200.345309 304.794036 
L 200.582115 315.118909 
L 200.818921 289.046139 
L 201.055728 276.890115 
L 201.292534 243.408228 
L 201.52934 276.890115 
L 201.766146 288.933453 
L 202.002952 281.60885 
L 202.239759 290.919548 
L 202.476565 313.794847 
L 202.713371 304.286948 
L 202.950177 328.035565 
L 203.186984 334.191049 
L 203.897402 298.793496 
L 204.371015 318.541753 
L 204.607821 285.059865 
L 204.844627 276.439371 
L 205.318239 321.203964 
L 205.791852 304.723607 
L 206.028658 338.205495 
L 206.265464 304.568664 
L 206.50227 304.568664 
L 206.739077 282.735712 
L 206.975883 304.568664 
L 207.212689 304.385549 
L 207.686301 263.07197 
L 207.923108 260.973189 
L 208.159914 287.130474 
L 208.39672 286.623386 
L 208.870333 332.416242 
L 209.343945 281.34122 
L 209.817557 324.866266 
L 210.054364 304.033404 
L 210.29117 317.865636 
L 210.527976 317.964236 
L 210.764782 301.131735 
L 211.001588 307.597105 
L 211.475201 260.930932 
L 211.712007 271.410749 
L 211.948813 273.60813 
L 212.659232 329.261028 
L 213.132844 280.017157 
L 213.36965 278.566323 
L 213.843263 301.638823 
L 214.080069 289.482798 
L 214.316875 257.634861 
L 214.553682 256.014996 
L 214.790488 271.692464 
L 215.027294 268.664023 
L 215.500906 322.739314 
L 216.211325 241.351704 
L 216.448131 272.24181 
L 216.921744 275.34068 
L 217.15855 269.185196 
L 217.395356 278.693095 
L 217.632162 253.26827 
L 218.105775 278.228264 
L 218.342581 317.936065 
L 218.579387 334.796738 
L 219.052999 289.257426 
L 219.526612 330.768206 
L 219.763418 362.616144 
L 220.000224 341.783282 
L 220.237031 337.994209 
L 220.473837 347.02319 
L 220.710643 338.768926 
L 220.947449 359.601788 
L 221.184255 356.404317 
L 221.421062 338.585811 
L 221.657868 338.585811 
L 221.894674 345.8259 
L 222.368286 381.462911 
L 222.605093 356.798719 
L 222.841899 344.642694 
L 223.078705 319.21787 
L 223.315511 324.542293 
L 223.789124 374.293251 
L 224.262736 322.443513 
L 224.499542 334.599537 
L 224.736348 302.751599 
L 225.209961 346.417502 
L 225.446767 320.992678 
L 225.683573 352.840616 
L 226.157186 307.329476 
L 226.393992 322.866086 
L 226.630798 326.162157 
L 226.867604 333.148702 
L 227.104411 312.470784 
L 227.341217 315.499225 
L 227.814829 282.97517 
L 228.051635 289.130654 
L 228.288442 286.102212 
L 228.525248 319.739044 
L 228.762054 288.440451 
L 228.99886 285.14438 
L 229.235666 258.973009 
L 229.472473 260.015357 
L 229.709279 272.171381 
L 229.946085 278.087406 
L 230.182891 294.483249 
L 230.419697 260.846417 
L 230.656504 287.017788 
L 230.89331 276.777429 
L 231.130116 280.425645 
L 231.366922 255.761452 
L 231.603729 273.410929 
L 231.840535 275.030793 
L 232.077341 248.873508 
L 232.550953 307.273133 
L 232.78776 296.793316 
L 233.024566 263.311428 
L 233.261372 273.044699 
L 233.498178 273.044699 
L 233.734984 301.723337 
L 233.971791 294.539592 
L 234.208597 290.764604 
L 234.682209 263.353685 
L 234.919015 257.198202 
L 235.155822 279.073411 
L 235.392628 286.059955 
L 235.629434 284.440091 
L 235.86624 284.440091 
L 236.103046 273.382757 
L 236.339853 249.63414 
L 236.576659 257.888405 
L 236.813465 275.129393 
L 237.050271 253.296442 
L 237.287078 257.085515 
L 237.523884 253.296442 
L 237.76069 227.125071 
L 237.997496 258.973009 
L 238.234302 252.817525 
L 238.471109 257.282716 
L 238.707915 283.355486 
L 238.944721 277.030973 
L 239.181527 281.327135 
L 239.418333 278.298693 
L 239.65514 302.962885 
L 239.891946 294.708621 
L 240.365558 342.262198 
L 240.602364 336.106715 
L 240.839171 366.99682 
L 241.075977 377.476637 
L 241.312783 409.324575 
L 241.549589 392.928732 
L 242.496814 300.455617 
L 242.73362 307.442162 
L 242.970427 296.962345 
L 243.207233 320.710962 
L 243.680845 339.2901 
L 244.154458 293.793046 
L 244.391264 310.188888 
L 244.62807 293.793046 
L 244.864876 288.933453 
L 245.101682 278.60858 
L 245.338489 304.765865 
L 245.575295 309.625457 
L 245.812101 320.105274 
L 246.048907 323.133716 
L 246.52252 276.383027 
L 246.759326 248.859423 
L 246.996132 241.295361 
L 247.232938 217.546744 
L 247.469744 240.717844 
L 247.706551 237.689403 
L 247.943357 215.856451 
L 248.180163 249.338339 
L 248.416969 237.182315 
L 248.653776 313.132815 
L 248.890582 324.824009 
L 249.127388 328.613082 
L 249.364194 325.584641 
L 249.601 303.455888 
L 249.837807 329.627258 
L 250.074613 308.794396 
L 250.548225 346.389331 
L 251.021838 298.187808 
L 251.258644 320.316561 
L 251.49545 298.187808 
L 251.732256 186.360838 
L 251.969062 210.109455 
L 252.205869 213.081553 
L 252.442675 210.532028 
L 252.679481 242.774368 
L 252.916287 234.590532 
L 253.153093 201.108644 
L 253.3899 195.615192 
L 253.626706 237.280915 
L 253.863512 235.449764 
L 254.100318 249.831341 
L 254.337124 237.675317 
L 254.573931 257.015086 
L 254.810737 237.675317 
L 255.047543 249.831341 
L 255.521156 225.124891 
L 255.757962 240.717844 
L 256.231574 295.990427 
L 256.46838 271.664293 
L 256.705187 271.664293 
L 256.941993 295.990427 
L 257.415605 237.844346 
L 257.889218 315.611912 
L 258.126024 221.617533 
L 258.36283 245.36615 
L 258.599636 257.057344 
L 259.073249 297.075031 
L 259.310055 298.427266 
L 259.546861 293.51133 
L 260.020473 301.455707 
L 260.25728 325.781841 
L 260.494086 303.469973 
L 260.730892 313.94979 
L 261.204505 281.115848 
L 261.441311 274.960364 
L 261.678117 292.159096 
L 261.914923 280.989076 
L 262.151729 285.848668 
L 262.388536 254.958563 
L 262.625342 251.930122 
L 262.862148 254.099331 
L 263.33576 214.898618 
L 263.572567 240.929131 
L 263.809373 231.421233 
L 264.046179 257.578517 
L 264.282985 252.718925 
L 264.519791 252.211837 
L 264.756598 240.520644 
L 264.993404 260.818246 
L 265.23021 257.789804 
L 265.467016 280.101672 
L 265.703822 313.738503 
L 265.940629 287.567133 
L 266.177435 318.457238 
L 266.414241 314.668165 
L 266.887854 323.570375 
L 267.12466 309.836744 
L 267.361466 250.90186 
L 267.598272 260.635131 
L 268.071885 301.399364 
L 268.545497 278.918467 
L 268.782303 279.326954 
L 269.019109 271.678379 
L 269.255916 246.760642 
L 269.492722 248.676307 
L 269.966334 282.693455 
L 270.439947 338.811183 
L 270.676753 311.287579 
L 270.913559 305.132095 
L 271.150365 281.383478 
L 271.387171 279.369212 
L 271.623978 317.386719 
L 271.860784 295.553768 
L 272.09759 295.553768 
L 272.334396 290.736432 
L 272.571203 308.076022 
L 272.808009 287.384018 
L 273.044815 281.228534 
L 273.281621 281.228534 
L 273.518427 260.550616 
L 273.755234 256.705199 
L 273.99204 272.43901 
L 274.228846 296.821487 
L 274.465652 286.341671 
L 274.702458 303.146 
L 274.939265 269.509169 
L 275.176071 277.763433 
L 275.412877 253.099241 
L 275.649683 271.002261 
L 275.886489 277.157745 
L 276.123296 265.466552 
L 276.360102 297.483519 
L 276.833714 254.648676 
L 277.544133 279.538241 
L 277.780939 300.216159 
L 278.017745 274.044789 
L 278.254552 296.173542 
L 278.491358 295.567853 
L 278.728164 287.679819 
L 278.96497 265.367951 
L 279.201776 309.400085 
L 279.438583 310.245231 
L 279.675389 318.302295 
L 279.912195 337.994209 
L 280.149001 334.965767 
L 280.385807 334.965767 
L 280.622614 346.093529 
L 281.096226 301.666994 
L 281.333032 309.146541 
L 281.569838 292.750698 
L 282.043451 326.288929 
L 282.280257 336.909604 
L 282.753869 378.096411 
L 282.990676 355.784543 
L 283.227482 347.530278 
L 283.464288 362.573886 
L 283.701094 366.36296 
L 283.937901 362.573886 
L 284.174707 351.488381 
L 284.411513 346.445674 
L 284.648319 315.555569 
L 284.885125 305.075752 
L 285.121932 329.458229 
L 285.358738 327.443963 
L 285.595544 293.962075 
L 286.069156 335.261568 
L 286.305963 327.007304 
L 286.779575 346.952762 
L 287.016381 335.261568 
L 287.253187 330.401976 
L 287.7268 287.51079 
L 287.963606 292.370382 
L 288.200412 289.933543 
L 288.437218 266.184926 
L 288.674025 263.156484 
L 288.910831 294.539592 
L 289.384443 250.338429 
L 289.62125 252.507638 
L 289.858056 266.748357 
L 290.094862 300.385189 
L 290.331668 283.580859 
L 290.568474 310.935434 
L 290.805281 317.161347 
L 291.042087 308.540852 
L 291.278893 330.85272 
L 291.515699 308.540852 
L 291.989312 329.923059 
L 292.226118 331.909154 
L 292.69973 391.717355 
L 293.173343 345.361069 
L 293.410149 339.205585 
L 293.883761 322.767485 
L 294.120567 329.75403 
L 294.357374 297.906092 
L 294.59418 285.750068 
L 294.830986 297.906092 
L 295.067792 286.214899 
L 295.541405 327.725678 
L 296.015017 277.918377 
L 296.251823 289.60957 
L 296.48863 288.77851 
L 296.962242 284.961265 
L 297.199048 275.453366 
L 297.435854 253.620415 
L 297.672661 264.70592 
L 297.909467 240.957303 
L 298.146273 251.437119 
L 298.383079 245.281636 
L 298.619885 245.943667 
L 299.093498 296.441171 
L 299.330304 275.763253 
L 299.56711 309.400085 
L 299.803916 316.386629 
L 300.514335 229.73094 
L 300.751141 210.39117 
L 300.987947 217.715773 
L 301.224754 314.414621 
L 301.46156 328.880712 
L 301.698366 328.880712 
L 301.935172 348.220481 
L 302.171979 314.738594 
L 302.408785 322.992858 
L 302.645591 337.642064 
L 302.882397 325.48604 
L 303.119203 346.318902 
L 303.35601 320.161617 
L 303.592816 352.009555 
L 303.829622 355.798628 
L 304.066428 374.63131 
L 304.303234 370.842236 
L 304.776847 320.922249 
L 305.013653 310.597376 
L 305.250459 310.597376 
L 305.487265 322.7534 
L 305.724072 325.781841 
L 305.960878 277.495804 
L 306.197684 277.495804 
L 306.43449 283.116028 
L 307.144909 322.302655 
L 307.381715 301.469793 
L 307.618521 347.55845 
L 307.855328 337.233577 
L 308.092134 341.02265 
L 308.32894 337.994209 
L 308.565746 313.611732 
L 308.802552 301.455707 
L 309.039359 280.777789 
L 309.276165 316.555659 
L 309.512971 306.498415 
L 309.749777 347.065448 
L 309.986583 325.232496 
L 310.22339 315.724598 
L 310.460196 322.344912 
L 310.697002 334.191049 
L 310.933808 334.191049 
L 311.407421 306.780131 
L 311.644227 301.568394 
L 311.881033 323.697147 
L 312.117839 327.627078 
L 312.354645 329.246942 
L 312.591452 353.911135 
L 312.828258 364.236008 
L 313.065064 359.376415 
L 313.30187 349.868517 
L 313.538677 318.020579 
L 313.775483 309.766315 
L 314.012289 332.078183 
L 314.249095 307.41399 
L 314.485901 236.139967 
L 314.722708 258.818066 
L 314.959514 264.973549 
L 315.433126 245.140778 
L 315.669932 265.818696 
L 315.906739 299.300584 
L 316.143545 294.595935 
L 316.380351 305.075752 
L 316.617157 233.956672 
L 316.853963 227.420873 
L 317.09077 203.672255 
L 317.327576 200.643814 
L 317.564382 234.125702 
L 317.801188 246.281726 
L 318.274801 318.992498 
L 318.748413 296.356657 
L 318.985219 291.370292 
L 319.458832 238.647235 
L 319.932444 286.581129 
L 320.16925 310.329746 
L 320.406057 308.58311 
L 320.879669 271.861494 
L 321.116475 267.044158 
L 321.353281 258.789894 
L 321.590088 269.016167 
L 321.826894 269.199282 
L 322.300506 312.020039 
L 322.537312 337.92378 
L 322.774119 344.727209 
L 323.010925 297.244061 
L 323.247731 307.568934 
L 323.484537 282.651197 
L 323.721343 282.651197 
L 323.95815 279.622756 
L 324.194956 258.789894 
L 324.431762 269.269711 
L 324.668568 272.298153 
L 324.905375 303.188258 
L 325.142181 278.862124 
L 325.378987 307.033674 
L 325.615793 306.935074 
L 325.852599 294.77905 
L 326.089406 317.95015 
L 326.326212 307.470333 
L 326.563018 326.303015 
L 326.799824 306.963246 
L 327.03663 306.963246 
L 327.273437 285.130294 
L 327.510243 283.637202 
L 327.747049 295.793226 
L 327.983855 283.482258 
L 328.220661 295.469253 
L 328.457468 320.246132 
L 328.694274 330.571005 
L 329.404692 257.451745 
L 329.641499 283.623116 
L 329.878305 283.623116 
L 330.115111 269.776799 
L 330.351917 286.172641 
L 330.588724 282.383568 
L 330.82553 303.061486 
L 331.062336 297.737063 
L 331.299142 325.260668 
L 331.535948 320.401075 
L 331.772755 298.568124 
L 332.009561 320.696876 
L 332.483173 253.578157 
L 332.956786 303.920718 
L 333.430398 266.692014 
L 333.667204 266.593414 
L 333.90401 263.564972 
L 334.140817 313.738503 
L 334.377623 286.214899 
L 334.614429 280.524245 
L 334.851235 282.14411 
L 335.088041 315.780941 
L 335.561654 268.551336 
L 335.79846 237.661231 
L 336.035266 242.520824 
L 336.272073 223.688142 
L 336.508879 221.617533 
L 336.982491 297.173632 
L 337.219297 318.006493 
L 337.456104 284.369662 
L 337.69291 308.752139 
L 337.929716 302.159996 
L 338.166522 280.524245 
L 338.403328 314.161077 
L 338.640135 292.032324 
L 338.876941 316.358458 
L 339.113747 313.330016 
L 339.350553 291.018148 
L 339.587359 291.018148 
L 339.824166 316.442972 
L 340.060972 300.04713 
L 340.297778 337.247662 
L 340.534584 339.346443 
L 340.77139 339.346443 
L 341.008197 361.658311 
L 341.481809 317.231776 
L 341.718615 307.723877 
L 342.192228 272.60804 
L 342.429034 288.581309 
L 342.66584 288.581309 
L 342.902646 268.452736 
L 343.139453 268.452736 
L 343.376259 262.297252 
L 343.613065 293.863475 
L 343.849871 260.381587 
L 344.086677 282.214538 
L 344.323484 282.214538 
L 344.56029 274.284247 
L 344.797096 276.115398 
L 345.033902 282.270882 
L 345.270708 315.907713 
L 345.744321 262.311338 
L 345.981127 265.33978 
L 346.217933 234.449674 
L 346.454739 222.29365 
L 346.691546 298.215979 
L 346.928352 331.852811 
L 347.165158 307.188618 
L 347.401964 308.287308 
L 347.63877 274.805421 
L 347.875577 266.551156 
L 348.112383 269.579598 
L 348.349189 323.992948 
L 348.585995 313.513131 
L 348.822802 323.401345 
L 349.296414 289.919457 
L 349.53322 323.401345 
L 349.770026 318.541753 
L 350.006833 325.176153 
L 350.243639 311.442522 
L 350.480445 314.513221 
L 350.717251 333.345903 
L 350.954057 307.273133 
L 351.190864 317.752949 
L 351.42767 294.004332 
L 351.664476 283.524516 
L 352.138088 331.937325 
L 352.374895 342.417142 
L 352.611701 265.987725 
L 352.848507 283.707631 
L 353.322119 264.07206 
L 353.558926 267.861133 
L 353.795732 261.70565 
L 354.032538 235.548365 
L 354.269344 226.040467 
L 354.506151 277.960634 
L 354.742957 246.112696 
L 354.979763 277.960634 
L 355.216569 267.635761 
L 355.453375 250.873688 
L 355.690182 243.408228 
L 355.926988 251.747006 
L 356.163794 250.338429 
L 356.4006 274.720906 
L 356.637406 258.325064 
L 356.874213 258.325064 
L 357.111019 266.044068 
L 357.347825 256.53617 
L 357.584631 277.749348 
L 357.821437 257.07143 
L 358.058244 266.579328 
L 358.29505 293.229615 
L 358.531856 283.721716 
L 358.768662 293.229615 
L 359.005468 312.062296 
L 359.242275 289.750428 
L 359.479081 317.274033 
L 359.715887 292.609841 
L 359.952693 282.792055 
L 360.1895 259.043438 
L 360.663112 303.723517 
L 360.899918 300.610561 
L 361.136724 274.43919 
L 361.373531 321.161707 
L 361.610337 289.313769 
L 361.847143 299.737243 
L 362.083949 288.046049 
L 362.320755 257.155944 
L 362.557562 264.142489 
L 362.794368 260.353415 
L 363.031174 251.789264 
L 363.26798 268.185106 
L 363.504786 245.873238 
L 363.741593 265.213008 
L 364.215205 222.209136 
L 364.452011 253.099241 
L 364.688817 231.266289 
L 364.925624 253.099241 
L 365.16243 228.716764 
L 365.399236 228.46322 
L 365.636042 218.955322 
L 366.109655 269.410569 
L 366.346461 243.239198 
L 366.583267 265.367951 
L 366.820073 263.748087 
L 367.05688 259.959013 
L 367.293686 260.70556 
L 367.530492 284.454177 
L 367.767298 287.595305 
L 368.004104 271.762893 
L 368.240911 296.68063 
L 368.477717 286.355756 
L 368.714523 292.24361 
L 368.951329 304.399634 
L 369.188135 328.782111 
L 369.424942 303.864375 
L 369.661748 328.528568 
L 369.898554 332.317641 
L 370.13536 272.692554 
L 370.372166 297.356747 
L 370.608973 290.370202 
L 370.845779 288.172821 
L 371.082585 293.032414 
L 371.319391 283.524516 
L 371.556198 315.372453 
L 371.793004 322.358998 
L 372.02981 310.202974 
L 372.266616 285.820497 
L 372.503422 306.653359 
L 372.740229 309.6818 
L 372.977035 324.612722 
L 373.213841 324.500036 
L 373.450647 317.865636 
L 373.687453 256.240369 
L 374.161066 271.086776 
L 374.397872 283.778059 
L 374.634678 258.860323 
L 374.871484 270.044429 
L 375.345097 305.709612 
L 375.581903 278.186007 
L 375.818709 294.990337 
L 376.055515 268.917567 
L 376.292322 288.257336 
L 376.765934 262.353595 
L 377.239547 299.427356 
L 377.476353 287.736162 
L 377.713159 282.87657 
L 377.949965 293.356387 
L 378.186771 274.523705 
L 378.423578 271.495263 
L 378.660384 251.690663 
L 378.89719 263.381857 
L 379.133996 255.127593 
L 379.607609 299.272412 
L 379.844415 294.41282 
L 380.081221 284.087947 
L 380.318027 259.761813 
L 380.554833 287.285418 
L 380.79164 292.14501 
L 381.028446 317.062746 
L 381.265252 310.076202 
L 381.502058 319.5841 
L 381.738864 307.428076 
L 381.975671 311.752409 
L 382.212477 282.932913 
L 382.449283 317.724778 
L 382.686089 292.41264 
L 382.922896 318.837554 
L 383.159702 296.074941 
L 383.633314 335.951771 
L 383.87012 302.469883 
L 384.106927 302.469883 
L 384.343733 295.934084 
L 384.580539 299.962615 
L 384.817345 300.300674 
L 385.054151 330.75412 
L 385.527764 365.7291 
L 385.76457 356.221202 
L 386.238182 323.697147 
L 386.711795 342.276284 
L 386.948601 331.796467 
L 387.185407 308.04785 
L 387.422213 324.85218 
L 387.65902 319.992588 
L 387.895826 343.741205 
L 388.132632 337.585721 
L 388.369438 342.445314 
L 388.606245 338.65624 
L 388.843051 342.445314 
L 389.079857 318.696696 
L 389.316663 317.076832 
L 389.553469 328.768026 
L 389.790276 350.896779 
L 390.263888 301.061306 
L 390.500694 328.584911 
L 390.7375 318.260037 
L 390.974307 301.864195 
L 391.211113 299.934444 
L 391.447919 291.680179 
L 391.921531 335.557369 
L 392.158338 337.571635 
L 392.395144 304.089747 
L 392.868756 349.445944 
L 393.105562 339.938046 
L 393.342369 318.105094 
L 393.579175 335.501026 
L 393.815981 330.641434 
L 394.052787 338.895698 
L 394.5264 365.616414 
L 394.763206 399.253245 
L 395.236818 344.938496 
L 395.473625 351.09398 
L 395.947237 304.737693 
L 396.184043 278.566323 
L 396.420849 290.905462 
L 396.657656 290.905462 
L 396.894462 290.398374 
L 397.131268 299.906272 
L 397.368074 279.073411 
L 397.841687 320.246132 
L 398.078493 301.41345 
L 398.315299 304.441892 
L 398.552105 292.750698 
L 398.788911 287.891106 
L 399.025718 290.299773 
L 399.262524 310.977692 
L 399.49933 256.677028 
L 399.736136 288.524966 
L 399.972942 292.314039 
L 400.209749 270.481088 
L 400.446555 280.594674 
L 400.683361 314.231506 
L 400.920167 282.383568 
L 401.39378 256.479827 
L 401.630586 274.030703 
L 401.867392 304.920808 
L 402.104198 311.907353 
L 402.341005 302.399454 
L 402.577811 328.472224 
L 403.051423 280.115758 
L 403.288229 280.115758 
L 403.525036 288.370022 
L 403.761842 309.202884 
L 403.998648 277.354946 
L 404.235454 270.368401 
L 404.47226 290.961805 
L 404.709067 298.427266 
L 404.945873 325.950871 
L 405.182679 319.795387 
L 405.656291 336.275744 
L 405.893098 362.433029 
L 406.129904 359.404587 
L 406.840323 286.383928 
L 407.077129 274.227904 
L 407.313935 277.580318 
L 407.550741 305.244781 
L 408.024354 315.259767 
L 408.26116 347.107705 
L 408.734772 293.905732 
L 408.971578 324.795837 
L 409.208385 315.287939 
L 409.445191 324.795837 
L 409.681997 344.135607 
L 409.918803 318.710782 
L 410.155609 316.175343 
L 410.392416 291.792866 
L 410.629222 291.792866 
L 410.866028 234.421503 
L 411.102834 238.36552 
L 411.33964 259.198382 
L 411.576447 269.678198 
L 411.813253 247.845247 
L 412.050059 268.523165 
L 412.286865 260.268901 
L 412.523672 282.101852 
L 412.760478 279.904471 
L 412.997284 255.521994 
L 413.23409 264.607319 
L 413.470896 296.455257 
L 413.707703 265.565152 
L 413.944509 255.085335 
L 414.181315 230.167599 
L 414.654927 291.173091 
L 415.12854 258.339149 
L 415.365346 267.847048 
L 415.602152 267.847048 
L 415.838958 288.384108 
L 416.075765 264.635491 
L 416.312571 332.359898 
L 416.549377 349.164228 
L 416.786183 380.054334 
L 417.022989 370.546435 
L 417.259796 344.375065 
L 417.733408 329.669515 
L 418.207021 310.498775 
L 418.443827 289.665914 
L 418.680633 306.470243 
L 418.917439 284.637292 
L 419.154245 296.793316 
L 419.627858 254.705019 
L 419.864664 259.142039 
L 420.10147 270.833232 
L 420.338276 251.493463 
L 420.575083 265.142579 
L 420.811889 271.298063 
L 421.048695 267.508989 
L 421.522307 312.991957 
L 421.99592 268.565422 
L 422.232726 258.240549 
L 422.469532 282.411739 
L 422.706338 270.903661 
L 422.943145 292.736613 
L 423.179951 302.244511 
L 423.416757 270.396573 
L 423.653563 274.185647 
L 423.89037 263.70583 
L 424.363982 284.933093 
L 424.600788 272.777069 
L 424.837594 275.60831 
L 425.074401 297.737063 
L 425.311207 271.579778 
L 425.548013 262.07188 
L 425.784819 231.181775 
L 426.021625 250.014456 
L 426.495238 197.826659 
L 426.96885 236.46394 
L 427.205656 212.081463 
L 427.442463 210.461599 
L 427.679269 212.081463 
L 427.916075 243.929401 
L 428.152881 227.125071 
L 428.389687 240.140328 
L 428.626494 231.167689 
L 428.8633 243.323713 
L 429.100106 240.295271 
L 429.336912 250.620144 
L 429.573719 225.702408 
L 429.810525 250.239829 
L 430.284137 241.63342 
L 430.520943 219.800468 
L 430.75775 253.4373 
L 430.994556 234.604618 
L 431.231362 253.4373 
L 431.468168 232.759381 
L 431.704974 200.911444 
L 431.941781 221.589362 
L 432.178587 195.432077 
L 432.415393 204.939975 
L 432.889005 253.606329 
L 433.125812 237.210486 
L 433.362618 299.948529 
L 433.599424 275.030793 
L 433.83623 303.357287 
L 434.073036 288.313679 
L 434.309843 288.567223 
L 434.546649 307.399905 
L 435.020261 262.973369 
L 435.257068 256.860143 
L 435.493874 317.386719 
L 435.73068 292.468983 
L 436.204292 333.303645 
L 436.441099 352.136327 
L 436.677905 331.303465 
L 436.914711 226.646155 
L 437.151517 246.563441 
L 437.388323 232.379065 
L 437.62513 225.519293 
L 437.861936 231.19586 
L 438.098742 208.560019 
L 438.335548 202.404536 
L 438.572354 208.376904 
L 439.045967 258.240549 
L 439.282773 262.283166 
L 439.519579 293.933903 
L 439.993192 239.295181 
L 440.229998 239.281095 
L 440.70361 218.082004 
L 440.940417 215.053562 
L 441.177223 273.650387 
L 441.414029 272.030523 
L 441.650835 314.865366 
L 441.887641 323.697147 
L 442.124448 253.310528 
L 442.361254 297.737063 
L 442.834866 285.665553 
L 443.071672 285.665553 
L 443.308479 270.114857 
L 443.545285 277.045059 
L 443.782091 296.384828 
L 444.018897 292.595755 
L 444.255703 260.747817 
L 444.49251 279.580498 
L 444.729316 283.369572 
L 444.966122 257.296802 
L 445.202928 278.129664 
L 445.676541 238.111976 
L 446.150153 294.229705 
L 446.386959 269.311968 
L 446.623765 289.989886 
L 447.097378 269.762713 
L 447.334184 278.284607 
L 447.57099 294.032504 
L 448.044603 342.19177 
L 448.281409 333.937505 
L 448.518215 343.445404 
L 448.755021 345.572356 
L 448.991828 366.081244 
L 449.46544 325.739584 
L 449.702246 322.711142 
L 449.939052 325.739584 
L 450.175859 313.58356 
L 450.412665 325.936785 
L 450.649471 316.428887 
L 450.886277 297.244061 
L 451.123083 266.353955 
L 451.596696 294.440991 
L 451.833502 282.749798 
L 452.070308 263.410028 
L 452.307114 290.933633 
L 452.543921 299.187898 
L 452.780727 321.499766 
L 453.017533 287.862934 
L 453.254339 299.554128 
L 453.491146 304.41372 
L 453.727952 297.427176 
L 453.964758 322.091368 
L 454.201564 294.567763 
L 454.675177 277.763433 
L 455.148789 315.527397 
L 455.385595 300.202073 
L 455.622401 303.991147 
L 455.859208 331.514752 
L 456.096014 333.134616 
L 456.33282 322.654799 
L 456.569626 348.82617 
L 456.806432 315.344282 
L 457.043239 337.177234 
L 457.280045 370.659121 
L 457.516851 363.672577 
L 458.22727 305.132095 
L 458.464076 315.611912 
L 458.700882 312.58347 
L 459.174495 270.002171 
L 459.411301 279.51007 
L 459.648107 282.299053 
L 459.884913 261.621135 
L 460.121719 273.185556 
L 460.358526 247.028272 
L 460.595332 247.225473 
L 460.832138 287.060045 
L 461.068944 282.200453 
L 461.30575 288.87711 
L 461.542557 312.625727 
L 462.016169 324.471864 
L 462.489781 295.314309 
L 462.726588 293.863475 
L 462.963394 310.259317 
L 463.437006 368.560341 
L 463.673812 360.306077 
L 464.147425 320.288389 
L 464.384231 339.121071 
L 464.621037 308.230965 
L 464.857844 296.539772 
L 465.09465 275.70691 
L 465.331456 269.551426 
L 465.568262 285.383838 
L 465.805068 275.87594 
L 466.041875 283.778059 
L 466.278681 309.935344 
L 466.752293 268.889395 
L 466.989099 288.229164 
L 467.225906 286.6093 
L 467.462712 289.398284 
L 467.699518 314.31602 
L 467.936324 311.287579 
L 468.17313 323.443603 
L 468.409937 323.443603 
L 468.646743 311.752409 
L 468.883549 317.795207 
L 469.120355 235.844166 
L 469.357161 242.830711 
L 469.593968 265.142579 
L 469.830774 258.987095 
L 470.06758 290.835033 
L 470.541193 245.337979 
L 470.777999 270.762803 
L 471.014805 270.762803 
L 471.251611 265.903211 
L 471.488417 241.520734 
L 471.725224 253.676758 
L 472.198836 302.976971 
L 472.435642 313.456788 
L 472.672448 294.117019 
L 472.909255 327.598906 
L 473.146061 305.765955 
L 473.382867 331.937325 
L 473.619673 322.429427 
L 474.093286 262.776169 
L 474.566898 303.441802 
L 474.803704 311.696066 
L 475.04051 287.947449 
L 475.277317 284.919007 
L 475.514123 266.086326 
L 475.750929 290.750518 
L 475.987735 265.325694 
L 476.224542 253.16967 
L 476.461348 274.002531 
L 476.698154 307.484419 
L 476.93496 273.847588 
L 477.171766 276.87603 
L 477.408573 295.708711 
L 477.645379 284.017518 
L 477.882185 296.173542 
L 478.118991 294.553678 
L 478.355797 328.190509 
L 478.592604 325.162067 
L 478.82941 328.190509 
L 479.303022 299.032954 
L 479.539828 284.256976 
L 480.013441 338.120981 
L 480.250247 315.809112 
L 480.487053 327.500306 
L 480.960666 282.087766 
L 481.197472 304.399634 
L 481.434278 309.259227 
L 481.671084 277.411289 
L 481.907891 277.425375 
L 482.144697 287.102302 
L 482.618309 343.487661 
L 482.855115 362.82743 
L 483.328728 333.007844 
L 483.565534 343.487661 
L 483.80234 329.134256 
L 484.039146 328.21868 
L 484.275953 335.064367 
L 484.512759 337.416692 
L 484.749565 313.668075 
L 485.223177 301.652908 
L 485.459984 323.48586 
L 485.69679 313.977962 
L 485.933596 325.626898 
L 486.170402 321.837824 
L 486.407208 320.006673 
L 486.644015 298.173722 
L 486.880821 294.835393 
L 487.117627 261.353505 
L 487.354433 287.130474 
L 487.59124 299.934444 
L 487.828046 278.101492 
L 488.064852 300.41336 
L 488.538464 262.747997 
L 488.775271 256.831971 
L 489.248883 301.596565 
L 489.485689 270.70646 
L 489.722495 304.188348 
L 490.196108 293.173272 
L 490.432914 324.063377 
L 490.906526 271.241719 
L 491.380139 305.554668 
L 491.616945 262.07188 
L 491.853751 306.244871 
L 492.327364 335.75457 
L 492.56417 329.599086 
L 492.800976 327.063647 
L 493.037782 302.14591 
L 493.511395 279.665013 
L 493.748201 285.820497 
L 493.985007 265.142579 
L 494.695426 307.399905 
L 495.405844 217.138257 
L 495.642651 239.450125 
L 495.879457 236.421683 
L 496.116263 239.450125 
L 496.353069 227.294101 
L 496.589875 223.505027 
L 496.826682 249.662312 
L 497.063488 228.026561 
L 497.773906 288.384108 
L 498.010713 290.003972 
L 498.247519 283.848488 
L 498.484325 282.228624 
L 499.194744 218.02566 
L 499.43155 216.109995 
L 499.668356 307.794306 
L 499.905162 297.215889 
L 500.141969 313.611732 
L 500.378775 288.186907 
L 500.615581 310.68189 
L 500.852387 263.522715 
L 501.089193 283.440001 
L 501.326 272.960184 
L 501.799612 295.342481 
L 502.036418 320.260217 
L 502.273224 318.062837 
L 502.746837 299.173812 
L 502.983643 317.682521 
L 503.220449 284.200633 
L 503.457255 274.692734 
L 503.930868 322.471684 
L 504.167674 334.162878 
L 504.40448 356.291631 
L 504.641286 362.447114 
L 505.588511 284.87675 
L 505.825318 272.720726 
L 506.062124 282.228624 
L 506.29893 304.540492 
L 506.535736 280.791875 
L 506.772542 306.963246 
L 507.246155 259.677298 
L 507.482961 293.159186 
L 507.719767 277.70709 
L 507.956573 253.042898 
L 508.19338 277.70709 
L 508.666992 271.185376 
L 509.140604 296.14537 
L 509.377411 297.596205 
L 509.614217 297.328575 
L 509.851023 307.808392 
L 510.087829 291.004062 
L 510.324635 320.654619 
L 510.561442 311.146721 
L 510.798248 327.951051 
L 511.035054 324.922609 
L 511.27186 313.231416 
L 511.508667 324.922609 
L 511.745473 328.711683 
L 512.219085 282.017338 
L 512.692698 326.922789 
L 512.929504 306.089928 
L 513.16631 272.453096 
L 513.403116 293.285958 
L 513.639922 272.60804 
L 513.876729 265.621495 
L 514.113535 287.933363 
L 514.350341 287.933363 
L 514.587147 314.090648 
L 515.06076 251.352605 
L 515.297566 251.352605 
L 515.534372 282.24271 
L 515.771178 257.324974 
L 516.007984 246.845157 
L 516.244791 213.363269 
L 516.481597 201.517132 
L 517.192016 309.005683 
L 517.428822 333.669876 
L 517.665628 311.836924 
L 517.902434 321.344822 
L 518.376047 306.104013 
L 518.612853 314.358278 
L 518.849659 288.285508 
L 519.086465 278.777609 
L 519.323271 278.777609 
L 519.560078 252.606239 
L 519.796884 242.281366 
L 520.03369 268.452736 
L 520.270496 237.562631 
L 520.744109 283.778059 
L 521.217721 247.140958 
L 521.454527 258.226463 
L 521.691333 279.059325 
L 521.92814 255.310708 
L 522.164946 265.790524 
L 522.401752 243.478656 
L 522.875365 264.452376 
L 523.112171 248.056533 
L 523.348977 260.818246 
L 523.585783 283.130114 
L 523.822589 281.51025 
L 524.059396 281.186277 
L 524.533008 322.570285 
L 524.769814 334.261478 
L 525.243427 285.214809 
L 525.480233 280.355216 
L 525.717039 293.088757 
L 525.953845 317.767035 
L 526.190651 321.556109 
L 526.427458 314.569564 
L 526.664264 304.244691 
L 526.90107 323.091458 
L 527.374682 271.80515 
L 527.611489 271.80515 
L 527.848295 295.553768 
L 528.085101 297.173632 
L 528.321907 285.482438 
L 528.558714 284.383748 
L 528.79552 305.216609 
L 529.032326 273.368672 
L 529.269132 306.850559 
L 529.505938 280.679189 
L 529.742745 297.849749 
L 529.979551 297.849749 
L 530.216357 317.189518 
L 530.453163 324.683151 
L 530.689969 326.303015 
L 530.926776 324.683151 
L 531.163582 314.963966 
L 531.400388 290.637832 
L 531.637194 315.555569 
L 531.874 294.87765 
L 532.110807 326.725588 
L 532.347613 321.401165 
L 532.584419 328.38771 
L 532.821225 297.497605 
L 533.058031 297.497605 
L 533.294838 285.341581 
L 533.531644 259.26881 
L 533.76845 256.240369 
L 534.005256 222.758481 
L 534.242063 257.212287 
L 534.478869 262.07188 
L 534.715675 251.747006 
L 535.189287 209.405166 
L 535.426094 209.405166 
L 535.6629 236.928771 
L 535.899706 225.237577 
L 536.136512 219.730039 
L 536.373318 193.558669 
L 536.610125 193.558669 
L 536.846931 196.587111 
L 537.083737 274.988536 
L 537.320543 298.737153 
L 537.557349 298.737153 
L 537.794156 303.596745 
L 538.030962 282.918827 
L 538.267768 274.932193 
L 538.504574 287.088217 
L 538.74138 259.564612 
L 538.978187 262.593053 
L 539.214993 240.760102 
L 539.451799 250.268 
L 539.688605 272.100952 
L 539.925412 267.241359 
L 540.162218 286.581129 
L 540.399024 279.594584 
L 540.63583 300.272502 
L 540.872636 290.764604 
L 541.109443 290.764604 
L 541.346249 259.874499 
L 541.583055 247.718475 
L 541.819861 247.619874 
L 542.056667 237.140058 
L 542.767086 237.140058 
L 543.240698 296.469343 
L 543.714311 255.80371 
L 543.951117 269.861314 
L 544.187923 264.17066 
L 544.424729 291.694265 
L 544.661536 291.694265 
L 544.898342 273.354586 
L 545.135148 302.427626 
L 545.371954 290.736432 
L 545.845567 312.639813 
L 546.082373 309.611371 
L 546.319179 335.684141 
L 546.792792 288.313679 
L 547.029598 282.989256 
L 547.266404 274.889935 
L 547.50321 274.889935 
L 547.740016 248.718565 
L 548.213629 293.215529 
L 548.450435 268.297792 
L 548.687241 268.297792 
L 548.924047 257.817976 
L 549.634466 257.817976 
L 549.871272 268.297792 
L 550.108078 259.789984 
L 550.581691 340.050732 
L 550.818497 329.570915 
L 551.055303 258.874409 
L 551.292109 271.030433 
L 551.528916 245.605608 
L 552.002528 245.605608 
L 552.239334 273.129213 
L 552.476141 266.297612 
L 552.712947 275.70691 
L 552.949753 301.286678 
L 553.423365 285.059865 
L 553.660172 298.075121 
L 554.133784 246.070439 
L 554.37059 246.070439 
L 554.607396 245.408408 
L 554.844203 237.154143 
L 555.081009 245.507008 
L 555.317815 245.507008 
L 555.791427 223.843086 
L 556.028234 246.154954 
L 556.26504 246.154954 
L 556.501846 239.168409 
L 556.738652 212.997039 
L 556.975458 212.997039 
L 557.212265 237.661231 
L 557.449071 227.336358 
L 557.685877 228.801279 
L 558.396296 294.990337 
L 558.869908 274.185647 
L 559.106714 273.650387 
L 559.343521 249.90177 
L 559.580327 260.381587 
L 559.817133 286.538871 
L 560.290745 231.069088 
L 560.527552 248.310077 
L 560.764358 250.845517 
L 561.001164 274.594134 
L 561.23797 274.312418 
L 561.474776 296.14537 
L 561.711583 296.14537 
L 561.948389 314.978052 
L 562.185195 281.34122 
L 562.422001 281.679279 
L 562.658807 298.483609 
L 562.895614 286.792415 
L 563.13242 289.581399 
L 563.369226 295.694625 
L 563.606032 264.80452 
L 563.842839 286.933273 
L 564.079645 264.80452 
L 564.316451 281.200363 
L 564.553257 288.186907 
L 564.790063 285.158465 
L 565.02687 273.002441 
L 565.263676 285.158465 
L 565.500482 285.158465 
L 565.974094 244.985834 
L 566.447707 293.342301 
L 566.684513 271.030433 
L 566.921319 273.565872 
L 567.158125 283.073771 
L 567.394932 262.240909 
L 567.631738 276.115398 
L 567.868544 271.255805 
L 568.10535 320.668705 
L 568.342156 308.512681 
L 568.578963 343.713033 
L 568.815769 346.741475 
L 569.052575 314.893537 
L 569.289381 315.302025 
L 569.526188 291.553407 
L 569.762994 299.807672 
L 569.9998 331.65561 
L 570.473412 279.749528 
L 570.710219 275.805511 
L 570.947025 269.650027 
L 571.183831 295.821397 
L 571.420637 301.976881 
L 571.657443 268.494993 
L 572.131056 300.807762 
L 572.367862 320.147531 
L 572.604668 297.835663 
L 572.841474 321.58428 
L 573.078281 270.199372 
L 573.315087 277.030973 
L 573.551893 277.030973 
L 574.025505 260.198472 
L 574.262312 260.198472 
L 574.499118 232.674867 
L 574.735924 237.534459 
L 574.97273 206.644354 
L 575.446343 206.644354 
L 575.683149 210.602457 
L 575.919955 202.249592 
L 576.156761 229.773197 
L 576.393568 219.448324 
L 576.630374 219.448324 
L 576.86718 244.873148 
L 577.103986 236.618884 
L 577.340792 271.537521 
L 577.577599 245.36615 
L 577.814405 269.114767 
L 578.051211 248.436849 
L 578.288017 256.691114 
L 578.524823 249.887684 
L 578.76163 282.299053 
L 578.998436 272.678469 
L 579.472048 242.99974 
L 579.708854 275.002621 
L 579.945661 275.002621 
L 580.182467 313.456788 
L 580.419273 308.597196 
L 580.656079 308.597196 
L 580.892886 300.342931 
L 581.129692 300.821848 
L 581.366498 300.821848 
L 581.84011 313.189158 
L 582.313723 350.46012 
L 582.550529 334.064277 
L 582.787335 350.46012 
L 583.024141 350.46012 
L 583.260948 329.782202 
L 583.497754 334.641794 
L 583.73456 288.158736 
L 583.971366 288.158736 
L 584.208172 266.325784 
L 584.444979 266.325784 
L 584.681785 292.483069 
L 585.155397 273.748987 
L 585.392203 278.439551 
L 585.62901 278.439551 
L 585.865816 260.522444 
L 586.102622 262.846597 
L 586.576235 219.800468 
L 586.813041 244.464661 
L 587.049847 238.309177 
L 587.286653 218.969407 
L 587.523459 240.802359 
L 587.760266 240.802359 
L 587.997072 252.958383 
L 588.233878 247.63396 
L 588.470684 249.986285 
L 588.70749 246.957843 
L 589.181103 246.957843 
L 589.417909 216.067738 
L 589.654715 216.067738 
L 589.891521 224.617803 
L 590.128328 227.646245 
L 590.365134 222.786653 
L 590.60194 245.098521 
L 590.838746 245.098521 
L 591.075552 224.265659 
L 591.312359 213.940786 
L 591.785971 223.969858 
L 592.022777 238.900779 
L 592.49639 287.200903 
L 592.733196 282.34131 
L 592.970002 257.677118 
L 593.206808 245.521094 
L 593.443615 268.311878 
L 593.680421 268.311878 
L 593.917227 275.932283 
L 594.154033 249.859513 
L 594.390839 249.859513 
L 594.627646 245.957753 
L 594.864452 219.786382 
L 595.101258 225.181234 
L 596.048483 327.570735 
L 596.285289 317.090918 
L 596.758901 270.988176 
L 596.995708 277.143659 
L 597.46932 299.624557 
L 597.706126 320.457418 
L 597.942932 294.384648 
L 598.179739 294.384648 
L 598.416545 290.595575 
L 598.653351 272.917927 
L 598.890157 245.394322 
L 599.126964 238.210576 
L 599.36377 247.239558 
L 599.837382 215.011305 
L 600.074188 228.378705 
L 600.310995 228.378705 
L 600.547801 205.249862 
L 600.784607 200.39027 
L 601.021413 183.557768 
L 601.258219 229.82954 
L 601.495026 196.347652 
L 601.731832 196.347652 
L 601.968638 191.48806 
L 602.205444 201.967877 
L 602.915863 201.967877 
L 603.152669 228.139247 
L 603.389475 228.139247 
L 603.626281 206.306295 
L 603.863088 195.826479 
L 604.099894 202.517222 
L 604.3367 204.29203 
L 604.573506 201.263588 
L 604.810313 201.263588 
L 605.047119 214.687332 
L 605.283925 214.687332 
L 605.520731 236.942857 
L 605.757537 233.914415 
L 605.994344 240.069899 
L 606.23115 218.236947 
L 606.467956 218.236947 
L 606.704762 241.985564 
L 606.941568 241.985564 
L 607.178375 245.478836 
L 607.415181 239.323353 
L 607.651987 258.156034 
L 607.888793 224.519203 
L 608.362406 224.519203 
L 608.599212 245.352065 
L 608.836018 254.859963 
L 609.30963 254.859963 
L 609.546437 257.888405 
L 610.020049 201.65799 
L 610.256855 201.65799 
L 610.493662 222.110535 
L 610.730468 223.941686 
L 610.967274 213.616813 
L 611.20408 210.827829 
L 611.677693 210.827829 
L 611.914499 216.29311 
L 612.151305 216.29311 
L 612.388111 212.433608 
L 612.624917 220.687872 
L 612.861724 187.051041 
L 613.335336 187.051041 
L 613.572142 188.501875 
L 613.808948 188.501875 
L 614.045755 167.669014 
L 614.756173 167.669014 
L 614.992979 164.640572 
L 615.466592 164.640572 
L 615.703398 181.68436 
L 615.940204 215.321192 
L 616.177011 215.321192 
L 616.413817 205.813293 
L 616.650623 205.813293 
L 616.887429 178.289688 
L 617.124235 178.289688 
L 617.361042 170.035424 
L 617.597848 154.541071 
L 617.834654 154.541071 
L 618.07146 121.059183 
L 619.018685 121.059183 
L 619.255491 120.298552 
L 619.492297 120.298552 
L 619.729104 144.681029 
L 619.96591 147.70947 
L 620.202716 147.70947 
L 620.439522 135.553446 
L 620.676328 163.077051 
L 620.913135 140.765183 
L 621.149941 137.736741 
L 621.386747 136.384507 
L 621.623553 148.540531 
L 621.86036 154.217098 
L 622.570778 154.217098 
L 622.807584 164.696915 
L 623.044391 140.314438 
L 624.465228 140.314438 
L 624.702034 177.613571 
L 624.93884 176.31768 
L 626.83329 176.31768 
L 627.306902 167.598585 
L 628.254127 167.598585 
L 628.490933 198.48869 
L 629.438158 198.48869 
L 629.674964 176.655738 
L 632.279833 176.655738 
L 632.516639 171.444002 
L 632.990251 171.444002 
L 633.227058 170.796056 
L 633.463864 170.796056 
L 633.70067 168.387388 
L 634.411089 168.387388 
L 634.647895 173.246981 
L 635.121507 173.246981 
L 635.358313 161.090957 
L 635.59512 161.090957 
L 635.831926 157.724457 
L 636.068732 157.724457 
L 636.305538 152.864864 
L 636.542344 152.864864 
L 636.779151 157.724457 
L 637.015957 157.724457 
L 637.252763 151.568973 
L 638.199988 151.568973 
L 638.436794 154.597414 
L 639.147213 154.597414 
L 639.384019 147.906671 
L 641.041662 147.906671 
L 641.515275 159.555607 
L 642.699306 159.555607 
L 642.936112 156.527166 
L 644.593755 156.527166 
L 644.830562 163.668654 
L 645.54098 163.668654 
L 645.777787 155.414389 
L 646.251399 155.414389 
L 646.488205 179.796866 
L 646.725011 179.796866 
L 646.961818 173.641383 
L 648.619461 173.641383 
L 648.856267 167.908472 
L 649.093073 183.740883 
L 649.32988 159.992266 
L 650.987523 159.992266 
L 651.224329 163.020708 
L 652.645167 163.020708 
L 652.881973 146.948838 
L 653.829198 146.892495 
L 654.066004 137.891685 
L 658.328516 137.891685 
L 658.565322 149.582878 
L 659.986159 149.582878 
L 660.222965 146.554437 
L 660.459771 146.554437 
L 660.696578 146.892495 
L 660.933384 145.526175 
L 665.906314 145.526175 
L 666.14312 136.018277 
L 669.458407 136.018277 
L 669.695214 150.554797 
L 674.668144 150.554797 
L 674.90495 160.87967 
L 675.141756 134.7083 
L 681.77233 134.7083 
L 682.009136 138.469202 
L 683.66678 138.469202 
L 683.903586 138.131143 
L 684.140392 127.989385 
L 684.614005 127.989385 
L 684.850811 121.833901 
L 699.769602 121.833901 
L 700.006408 124.960943 
L 702.848083 124.960943 
L 703.084889 117.509568 
L 709.952269 117.509568 
L 710.189075 113.748666 
L 728.186347 113.748666 
L 728.423153 109.720134 
L 733.396084 109.720134 
L 733.63289 88.887273 
L 871.690909 88.887273 
L 871.690909 88.887273 
" style="fill:none;stroke:#8dd3c7;stroke-linecap:square;stroke-width:1.5;"/>
   </g>
   <g id="line2d_15">
    <path clip-path="url(#p39eaac66c8)" d="M 161.509091 231.533919 
L 161.745897 222.223222 
L 169.323696 222.223222 
L 169.560502 208.433248 
L 251.49545 208.433248 
L 251.732256 186.360838 
L 600.784607 186.360838 
L 601.021413 183.557768 
L 613.808948 183.557768 
L 614.045755 167.669014 
L 614.756173 167.669014 
L 614.992979 164.640572 
L 617.361042 164.640572 
L 617.597848 154.541071 
L 617.834654 154.541071 
L 618.07146 121.059183 
L 619.018685 121.059183 
L 619.255491 120.298552 
L 702.848083 120.298552 
L 703.084889 117.509568 
L 709.952269 117.509568 
L 710.189075 113.748666 
L 728.186347 113.748666 
L 728.423153 109.720134 
L 733.396084 109.720134 
L 733.63289 88.887273 
L 871.690909 88.887273 
L 871.690909 88.887273 
" style="fill:none;stroke:#feffb3;stroke-linecap:square;stroke-width:1.5;"/>
   </g>
   <g id="line2d_16">
    <path clip-path="url(#p39eaac66c8)" d="M 161.509091 231.533919 
L 163.166734 231.533919 
L 163.403541 245.343161 
L 165.061184 245.343161 
L 165.29799 258.397769 
L 166.955634 258.397769 
L 167.19244 270.738981 
L 168.850083 270.738981 
L 169.08689 282.405783 
L 170.744533 282.405783 
L 170.981339 293.435028 
L 172.638983 293.435028 
L 172.875789 303.861558 
L 174.533432 303.861558 
L 174.770239 313.718308 
L 176.427882 313.718308 
L 176.664688 323.036417 
L 178.322332 323.036417 
L 178.559138 331.845318 
L 180.216781 331.845318 
L 180.453588 340.172839 
L 182.111231 340.172839 
L 182.348037 348.045286 
L 184.005681 348.045286 
L 184.242487 355.487526 
L 185.90013 355.487526 
L 186.136937 362.523071 
L 187.79458 362.523071 
L 188.031386 369.174143 
L 189.68903 369.174143 
L 189.925836 375.461754 
L 191.583479 375.461754 
L 191.820286 381.405766 
L 193.477929 381.405766 
L 193.714735 387.024955 
L 195.372379 387.024955 
L 195.609185 392.337072 
L 197.266828 392.337072 
L 197.503635 397.358898 
L 199.161278 397.358898 
L 199.398084 402.106296 
L 201.055728 402.106296 
L 201.292534 406.594262 
L 202.950177 406.594262 
L 203.186984 410.836975 
L 204.844627 410.836975 
L 205.081433 414.847835 
L 206.739077 414.847835 
L 206.975883 418.639514 
L 208.633526 418.639514 
L 208.870333 422.223989 
L 210.527976 422.223989 
L 210.764782 425.612583 
L 212.422426 425.612583 
L 212.659232 428.816001 
L 214.316875 428.816001 
L 214.553682 431.844361 
L 216.211325 431.844361 
L 216.448131 434.70723 
L 218.105775 434.70723 
L 218.342581 437.413652 
L 220.000224 437.413652 
L 220.237031 439.972176 
L 221.894674 439.972176 
L 222.13148 442.390884 
L 223.789124 442.390884 
L 224.02593 444.677417 
L 225.683573 444.677417 
L 225.92038 446.838998 
L 227.578023 446.838998 
L 227.814829 448.882454 
L 229.472473 448.882454 
L 229.709279 450.814242 
L 231.366922 450.814242 
L 231.603729 452.640464 
L 233.261372 452.640464 
L 233.498178 454.366887 
L 235.155822 454.366887 
L 235.392628 455.998967 
L 237.050271 455.998967 
L 237.287078 457.541859 
L 238.944721 457.541859 
L 239.181527 459.000436 
L 240.839171 459.000436 
L 241.075977 460.379306 
L 242.73362 460.379306 
L 242.970427 461.682825 
L 244.62807 461.682825 
L 244.864876 462.91511 
L 246.52252 462.91511 
L 246.759326 464.080055 
L 248.416969 464.080055 
L 248.653776 465.181339 
L 250.311419 465.181339 
L 250.548225 466.222441 
L 252.205869 466.222441 
L 252.442675 467.20665 
L 254.100318 467.20665 
L 254.337124 468.137074 
L 255.994768 468.137074 
L 256.231574 469.016654 
L 257.889218 469.016654 
L 258.126024 469.848168 
L 259.783667 469.848168 
L 260.020473 470.634241 
L 261.678117 470.634241 
L 261.914923 471.377358 
L 263.572567 471.377358 
L 263.809373 472.079866 
L 265.467016 472.079866 
L 265.703822 472.743984 
L 267.361466 472.743984 
L 267.598272 473.37181 
L 269.255916 473.37181 
L 269.492722 473.965327 
L 271.150365 473.965327 
L 271.387171 474.52641 
L 273.044815 474.52641 
L 273.281621 475.056831 
L 274.939265 475.056831 
L 275.176071 475.558267 
L 276.833714 475.558267 
L 277.07052 476.032301 
L 278.728164 476.032301 
L 278.96497 476.48043 
L 280.622614 476.48043 
L 280.85942 476.90407 
L 282.517063 476.90407 
L 282.753869 477.304559 
L 284.411513 477.304559 
L 284.648319 477.683163 
L 286.305963 477.683163 
L 286.542769 478.041077 
L 288.200412 478.041077 
L 288.437218 478.379433 
L 290.094862 478.379433 
L 290.331668 478.699298 
L 291.989312 478.699298 
L 292.226118 479.001684 
L 293.883761 479.001684 
L 294.120567 479.287545 
L 295.778211 479.287545 
L 296.015017 479.557784 
L 297.672661 479.557784 
L 297.909467 479.813256 
L 299.56711 479.813256 
L 299.803916 480.054767 
L 301.46156 480.054767 
L 301.698366 480.28308 
L 303.35601 480.28308 
L 303.592816 480.498917 
L 305.250459 480.498917 
L 305.487265 480.702959 
L 307.144909 480.702959 
L 307.381715 480.89585 
L 309.039359 480.89585 
L 309.276165 481.0782 
L 310.933808 481.0782 
L 311.170614 481.250586 
L 312.828258 481.250586 
L 313.065064 481.413551 
L 314.722708 481.413551 
L 314.959514 481.567611 
L 316.617157 481.567611 
L 316.853963 481.713252 
L 318.511607 481.713252 
L 318.748413 481.850933 
L 320.406057 481.850933 
L 320.642863 481.981091 
L 322.300506 481.981091 
L 322.774119 482.104137 
L 324.194956 482.104137 
L 324.668568 482.220458 
L 327.983855 482.330422 
L 328.457468 482.434378 
L 331.772755 482.532652 
L 332.246367 482.625556 
L 335.561654 482.713384 
L 336.035266 482.796411 
L 339.350553 482.874902 
L 339.824166 482.949103 
L 343.139453 483.019249 
L 343.613065 483.085562 
L 346.928352 483.148251 
L 347.401964 483.207515 
L 352.611701 483.316503 
L 353.322119 483.366572 
L 358.29505 483.458651 
L 359.005468 483.500952 
L 363.978399 483.578745 
L 364.925624 483.614483 
L 371.556198 483.710401 
L 372.503422 483.738945 
L 381.028446 483.83835 
L 382.449283 483.859902 
L 394.289594 483.966612 
L 396.420849 483.994902 
L 418.917439 484.104556 
L 423.179951 484.124441 
L 871.690909 484.232727 
L 871.690909 484.232727 
" style="fill:none;stroke:#bfbbd9;stroke-linecap:square;stroke-width:1.5;"/>
   </g>
   <g id="patch_3">
    <path d="M 126 504 
L 126 69.12 
" style="fill:none;stroke:#ffffff;stroke-linecap:square;stroke-linejoin:miter;stroke-width:0.8;"/>
   </g>
   <g id="patch_4">
    <path d="M 907.2 504 
L 907.2 69.12 
" style="fill:none;stroke:#ffffff;stroke-linecap:square;stroke-linejoin:miter;stroke-width:0.8;"/>
   </g>
   <g id="patch_5">
    <path d="M 126 504 
L 907.2 504 
" style="fill:none;stroke:#ffffff;stroke-linecap:square;stroke-linejoin:miter;stroke-width:0.8;"/>
   </g>
   <g id="patch_6">
    <path d="M 126 69.12 
L 907.2 69.12 
" style="fill:none;stroke:#ffffff;stroke-linecap:square;stroke-linejoin:miter;stroke-width:0.8;"/>
   </g>
   <g id="text_15">
    <!-- instance 2 with error 0.0 -->
    <g style="fill:#ffffff;" transform="translate(442.944375 63.12)scale(0.12 -0.12)">
     <defs>
      <path d="M 2834 3397 
L 2834 2853 
Q 2591 2978 2328 3040 
Q 2066 3103 1784 3103 
Q 1356 3103 1142 2972 
Q 928 2841 928 2578 
Q 928 2378 1081 2264 
Q 1234 2150 1697 2047 
L 1894 2003 
Q 2506 1872 2764 1633 
Q 3022 1394 3022 966 
Q 3022 478 2636 193 
Q 2250 -91 1575 -91 
Q 1294 -91 989 -36 
Q 684 19 347 128 
L 347 722 
Q 666 556 975 473 
Q 1284 391 1588 391 
Q 1994 391 2212 530 
Q 2431 669 2431 922 
Q 2431 1156 2273 1281 
Q 2116 1406 1581 1522 
L 1381 1569 
Q 847 1681 609 1914 
Q 372 2147 372 2553 
Q 372 3047 722 3315 
Q 1072 3584 1716 3584 
Q 2034 3584 2315 3537 
Q 2597 3491 2834 3397 
z
" id="DejaVuSans-73" transform="scale(0.015625)"/>
      <path d="M 3122 3366 
L 3122 2828 
Q 2878 2963 2633 3030 
Q 2388 3097 2138 3097 
Q 1578 3097 1268 2742 
Q 959 2388 959 1747 
Q 959 1106 1268 751 
Q 1578 397 2138 397 
Q 2388 397 2633 464 
Q 2878 531 3122 666 
L 3122 134 
Q 2881 22 2623 -34 
Q 2366 -91 2075 -91 
Q 1284 -91 818 406 
Q 353 903 353 1747 
Q 353 2603 823 3093 
Q 1294 3584 2113 3584 
Q 2378 3584 2631 3529 
Q 2884 3475 3122 3366 
z
" id="DejaVuSans-63" transform="scale(0.015625)"/>
      <path id="DejaVuSans-20" transform="scale(0.015625)"/>
      <path d="M 269 3500 
L 844 3500 
L 1563 769 
L 2278 3500 
L 2956 3500 
L 3675 769 
L 4391 3500 
L 4966 3500 
L 4050 0 
L 3372 0 
L 2619 2869 
L 1863 0 
L 1184 0 
L 269 3500 
z
" id="DejaVuSans-77" transform="scale(0.015625)"/>
      <path d="M 3513 2113 
L 3513 0 
L 2938 0 
L 2938 2094 
Q 2938 2591 2744 2837 
Q 2550 3084 2163 3084 
Q 1697 3084 1428 2787 
Q 1159 2491 1159 1978 
L 1159 0 
L 581 0 
L 581 4863 
L 1159 4863 
L 1159 2956 
Q 1366 3272 1645 3428 
Q 1925 3584 2291 3584 
Q 2894 3584 3203 3211 
Q 3513 2838 3513 2113 
z
" id="DejaVuSans-68" transform="scale(0.015625)"/>
      <path d="M 684 794 
L 1344 794 
L 1344 0 
L 684 0 
L 684 794 
z
" id="DejaVuSans-2e" transform="scale(0.015625)"/>
     </defs>
     <use xlink:href="#DejaVuSans-69"/>
     <use x="27.783203" xlink:href="#DejaVuSans-6e"/>
     <use x="91.162109" xlink:href="#DejaVuSans-73"/>
     <use x="143.261719" xlink:href="#DejaVuSans-74"/>
     <use x="182.470703" xlink:href="#DejaVuSans-61"/>
     <use x="243.75" xlink:href="#DejaVuSans-6e"/>
     <use x="307.128906" xlink:href="#DejaVuSans-63"/>
     <use x="362.109375" xlink:href="#DejaVuSans-65"/>
     <use x="423.632812" xlink:href="#DejaVuSans-20"/>
     <use x="455.419922" xlink:href="#DejaVuSans-32"/>
     <use x="519.042969" xlink:href="#DejaVuSans-20"/>
     <use x="550.830078" xlink:href="#DejaVuSans-77"/>
     <use x="632.617188" xlink:href="#DejaVuSans-69"/>
     <use x="660.400391" xlink:href="#DejaVuSans-74"/>
     <use x="699.609375" xlink:href="#DejaVuSans-68"/>
     <use x="762.988281" xlink:href="#DejaVuSans-20"/>
     <use x="794.775391" xlink:href="#DejaVuSans-65"/>
     <use x="856.298828" xlink:href="#DejaVuSans-72"/>
     <use x="895.662109" xlink:href="#DejaVuSans-72"/>
     <use x="934.525391" xlink:href="#DejaVuSans-6f"/>
     <use x="995.707031" xlink:href="#DejaVuSans-72"/>
     <use x="1036.820312" xlink:href="#DejaVuSans-20"/>
     <use x="1068.607422" xlink:href="#DejaVuSans-30"/>
     <use x="1132.230469" xlink:href="#DejaVuSans-2e"/>
     <use x="1164.017578" xlink:href="#DejaVuSans-30"/>
    </g>
   </g>
   <g id="legend_1">
    <g id="patch_7">
     <path d="M 805.348438 499 
L 900.2 499 
Q 902.2 499 902.2 497 
L 902.2 453.965625 
Q 902.2 451.965625 900.2 451.965625 
L 805.348438 451.965625 
Q 803.348438 451.965625 803.348438 453.965625 
L 803.348438 497 
Q 803.348438 499 805.348438 499 
z
" style="opacity:0.8;stroke:#cccccc;stroke-linejoin:miter;"/>
    </g>
    <g id="line2d_17">
     <path d="M 807.348438 460.064062 
L 827.348438 460.064062 
" style="fill:none;stroke:#8dd3c7;stroke-linecap:square;stroke-width:1.5;"/>
    </g>
    <g id="line2d_18"/>
    <g id="text_16">
     <!-- cost -->
     <g style="fill:#ffffff;" transform="translate(835.348438 463.564062)scale(0.1 -0.1)">
      <use xlink:href="#DejaVuSans-63"/>
      <use x="54.980469" xlink:href="#DejaVuSans-6f"/>
      <use x="116.162109" xlink:href="#DejaVuSans-73"/>
      <use x="168.261719" xlink:href="#DejaVuSans-74"/>
     </g>
    </g>
    <g id="line2d_19">
     <path d="M 807.348438 474.742188 
L 827.348438 474.742188 
" style="fill:none;stroke:#feffb3;stroke-linecap:square;stroke-width:1.5;"/>
    </g>
    <g id="line2d_20"/>
    <g id="text_17">
     <!-- best cost -->
     <g style="fill:#ffffff;" transform="translate(835.348438 478.242188)scale(0.1 -0.1)">
      <defs>
       <path d="M 3116 1747 
Q 3116 2381 2855 2742 
Q 2594 3103 2138 3103 
Q 1681 3103 1420 2742 
Q 1159 2381 1159 1747 
Q 1159 1113 1420 752 
Q 1681 391 2138 391 
Q 2594 391 2855 752 
Q 3116 1113 3116 1747 
z
M 1159 2969 
Q 1341 3281 1617 3432 
Q 1894 3584 2278 3584 
Q 2916 3584 3314 3078 
Q 3713 2572 3713 1747 
Q 3713 922 3314 415 
Q 2916 -91 2278 -91 
Q 1894 -91 1617 61 
Q 1341 213 1159 525 
L 1159 0 
L 581 0 
L 581 4863 
L 1159 4863 
L 1159 2969 
z
" id="DejaVuSans-62" transform="scale(0.015625)"/>
      </defs>
      <use xlink:href="#DejaVuSans-62"/>
      <use x="63.476562" xlink:href="#DejaVuSans-65"/>
      <use x="125" xlink:href="#DejaVuSans-73"/>
      <use x="177.099609" xlink:href="#DejaVuSans-74"/>
      <use x="216.308594" xlink:href="#DejaVuSans-20"/>
      <use x="248.095703" xlink:href="#DejaVuSans-63"/>
      <use x="303.076172" xlink:href="#DejaVuSans-6f"/>
      <use x="364.257812" xlink:href="#DejaVuSans-73"/>
      <use x="416.357422" xlink:href="#DejaVuSans-74"/>
     </g>
    </g>
    <g id="line2d_21">
     <path d="M 807.348438 489.420313 
L 827.348438 489.420313 
" style="fill:none;stroke:#bfbbd9;stroke-linecap:square;stroke-width:1.5;"/>
    </g>
    <g id="line2d_22"/>
    <g id="text_18">
     <!-- temperature -->
     <g style="fill:#ffffff;" transform="translate(835.348438 492.920313)scale(0.1 -0.1)">
      <defs>
       <path d="M 3328 2828 
Q 3544 3216 3844 3400 
Q 4144 3584 4550 3584 
Q 5097 3584 5394 3201 
Q 5691 2819 5691 2113 
L 5691 0 
L 5113 0 
L 5113 2094 
Q 5113 2597 4934 2840 
Q 4756 3084 4391 3084 
Q 3944 3084 3684 2787 
Q 3425 2491 3425 1978 
L 3425 0 
L 2847 0 
L 2847 2094 
Q 2847 2600 2669 2842 
Q 2491 3084 2119 3084 
Q 1678 3084 1418 2786 
Q 1159 2488 1159 1978 
L 1159 0 
L 581 0 
L 581 3500 
L 1159 3500 
L 1159 2956 
Q 1356 3278 1631 3431 
Q 1906 3584 2284 3584 
Q 2666 3584 2933 3390 
Q 3200 3197 3328 2828 
z
" id="DejaVuSans-6d" transform="scale(0.015625)"/>
       <path d="M 1159 525 
L 1159 -1331 
L 581 -1331 
L 581 3500 
L 1159 3500 
L 1159 2969 
Q 1341 3281 1617 3432 
Q 1894 3584 2278 3584 
Q 2916 3584 3314 3078 
Q 3713 2572 3713 1747 
Q 3713 922 3314 415 
Q 2916 -91 2278 -91 
Q 1894 -91 1617 61 
Q 1341 213 1159 525 
z
M 3116 1747 
Q 3116 2381 2855 2742 
Q 2594 3103 2138 3103 
Q 1681 3103 1420 2742 
Q 1159 2381 1159 1747 
Q 1159 1113 1420 752 
Q 1681 391 2138 391 
Q 2594 391 2855 752 
Q 3116 1113 3116 1747 
z
" id="DejaVuSans-70" transform="scale(0.015625)"/>
       <path d="M 544 1381 
L 544 3500 
L 1119 3500 
L 1119 1403 
Q 1119 906 1312 657 
Q 1506 409 1894 409 
Q 2359 409 2629 706 
Q 2900 1003 2900 1516 
L 2900 3500 
L 3475 3500 
L 3475 0 
L 2900 0 
L 2900 538 
Q 2691 219 2414 64 
Q 2138 -91 1772 -91 
Q 1169 -91 856 284 
Q 544 659 544 1381 
z
M 1991 3584 
L 1991 3584 
z
" id="DejaVuSans-75" transform="scale(0.015625)"/>
      </defs>
      <use xlink:href="#DejaVuSans-74"/>
      <use x="39.208984" xlink:href="#DejaVuSans-65"/>
      <use x="100.732422" xlink:href="#DejaVuSans-6d"/>
      <use x="198.144531" xlink:href="#DejaVuSans-70"/>
      <use x="261.621094" xlink:href="#DejaVuSans-65"/>
      <use x="323.144531" xlink:href="#DejaVuSans-72"/>
      <use x="364.257812" xlink:href="#DejaVuSans-61"/>
      <use x="425.537109" xlink:href="#DejaVuSans-74"/>
      <use x="464.746094" xlink:href="#DejaVuSans-75"/>
      <use x="528.125" xlink:href="#DejaVuSans-72"/>
      <use x="566.988281" xlink:href="#DejaVuSans-65"/>
     </g>
    </g>
   </g>
  </g>
 </g>
 <defs>
  <clipPath id="p39eaac66c8">
   <rect height="434.88" width="781.2" x="126" y="69.12"/>
  </clipPath>
 </defs>
</svg>
