<?xml version="1.0" encoding="utf-8" standalone="no"?>
<!DOCTYPE svg PUBLIC "-//W3C//DTD SVG 1.1//EN"
  "http://www.w3.org/Graphics/SVG/1.1/DTD/svg11.dtd">
<svg height="576pt" version="1.1" viewBox="0 0 1008 576" width="1008pt" xmlns="http://www.w3.org/2000/svg" xmlns:xlink="http://www.w3.org/1999/xlink">
 <metadata>
  <rdf:RDF xmlns:cc="http://creativecommons.org/ns#" xmlns:dc="http://purl.org/dc/elements/1.1/" xmlns:rdf="http://www.w3.org/1999/02/22-rdf-syntax-ns#">
   <cc:Work>
    <dc:type rdf:resource="http://purl.org/dc/dcmitype/StillImage"/>
    <dc:date>2022-01-13T19:11:19.788338</dc:date>
    <dc:format>image/svg+xml</dc:format>
    <dc:creator>
     <cc:Agent>
      <dc:title>Matplotlib v3.4.3, https://matplotlib.org/</dc:title>
     </cc:Agent>
    </dc:creator>
   </cc:Work>
  </rdf:RDF>
 </metadata>
 <defs>
  <style type="text/css">*{stroke-linecap:butt;stroke-linejoin:round;}</style>
 </defs>
 <g id="figure_1">
  <g id="patch_1">
   <path d="M 0 576 
L 1008 576 
L 1008 0 
L 0 0 
z
"/>
  </g>
  <g id="axes_1">
   <g id="patch_2">
    <path d="M 126 504 
L 907.2 504 
L 907.2 69.12 
L 126 69.12 
z
"/>
   </g>
   <g id="matplotlib.axis_1">
    <g id="xtick_1">
     <g id="line2d_1">
      <defs>
       <path d="M 0 0 
L 0 3.5 
" id="md2f346010f" style="stroke:#ffffff;stroke-width:0.8;"/>
      </defs>
      <g>
       <use style="fill:#ffffff;stroke:#ffffff;stroke-width:0.8;" x="161.509091" xlink:href="#md2f346010f" y="504"/>
      </g>
     </g>
     <g id="text_1">
      <!-- 0 -->
      <g style="fill:#ffffff;" transform="translate(158.327841 518.598438)scale(0.1 -0.1)">
       <defs>
        <path d="M 2034 4250 
Q 1547 4250 1301 3770 
Q 1056 3291 1056 2328 
Q 1056 1369 1301 889 
Q 1547 409 2034 409 
Q 2525 409 2770 889 
Q 3016 1369 3016 2328 
Q 3016 3291 2770 3770 
Q 2525 4250 2034 4250 
z
M 2034 4750 
Q 2819 4750 3233 4129 
Q 3647 3509 3647 2328 
Q 3647 1150 3233 529 
Q 2819 -91 2034 -91 
Q 1250 -91 836 529 
Q 422 1150 422 2328 
Q 422 3509 836 4129 
Q 1250 4750 2034 4750 
z
" id="DejaVuSans-30" transform="scale(0.015625)"/>
       </defs>
       <use xlink:href="#DejaVuSans-30"/>
      </g>
     </g>
    </g>
    <g id="xtick_2">
     <g id="line2d_2">
      <g>
       <use style="fill:#ffffff;stroke:#ffffff;stroke-width:0.8;" x="268.319411" xlink:href="#md2f346010f" y="504"/>
      </g>
     </g>
     <g id="text_2">
      <!-- 1000 -->
      <g style="fill:#ffffff;" transform="translate(255.594411 518.598438)scale(0.1 -0.1)">
       <defs>
        <path d="M 794 531 
L 1825 531 
L 1825 4091 
L 703 3866 
L 703 4441 
L 1819 4666 
L 2450 4666 
L 2450 531 
L 3481 531 
L 3481 0 
L 794 0 
L 794 531 
z
" id="DejaVuSans-31" transform="scale(0.015625)"/>
       </defs>
       <use xlink:href="#DejaVuSans-31"/>
       <use x="63.623047" xlink:href="#DejaVuSans-30"/>
       <use x="127.246094" xlink:href="#DejaVuSans-30"/>
       <use x="190.869141" xlink:href="#DejaVuSans-30"/>
      </g>
     </g>
    </g>
    <g id="xtick_3">
     <g id="line2d_3">
      <g>
       <use style="fill:#ffffff;stroke:#ffffff;stroke-width:0.8;" x="375.129731" xlink:href="#md2f346010f" y="504"/>
      </g>
     </g>
     <g id="text_3">
      <!-- 2000 -->
      <g style="fill:#ffffff;" transform="translate(362.404731 518.598438)scale(0.1 -0.1)">
       <defs>
        <path d="M 1228 531 
L 3431 531 
L 3431 0 
L 469 0 
L 469 531 
Q 828 903 1448 1529 
Q 2069 2156 2228 2338 
Q 2531 2678 2651 2914 
Q 2772 3150 2772 3378 
Q 2772 3750 2511 3984 
Q 2250 4219 1831 4219 
Q 1534 4219 1204 4116 
Q 875 4013 500 3803 
L 500 4441 
Q 881 4594 1212 4672 
Q 1544 4750 1819 4750 
Q 2544 4750 2975 4387 
Q 3406 4025 3406 3419 
Q 3406 3131 3298 2873 
Q 3191 2616 2906 2266 
Q 2828 2175 2409 1742 
Q 1991 1309 1228 531 
z
" id="DejaVuSans-32" transform="scale(0.015625)"/>
       </defs>
       <use xlink:href="#DejaVuSans-32"/>
       <use x="63.623047" xlink:href="#DejaVuSans-30"/>
       <use x="127.246094" xlink:href="#DejaVuSans-30"/>
       <use x="190.869141" xlink:href="#DejaVuSans-30"/>
      </g>
     </g>
    </g>
    <g id="xtick_4">
     <g id="line2d_4">
      <g>
       <use style="fill:#ffffff;stroke:#ffffff;stroke-width:0.8;" x="481.940051" xlink:href="#md2f346010f" y="504"/>
      </g>
     </g>
     <g id="text_4">
      <!-- 3000 -->
      <g style="fill:#ffffff;" transform="translate(469.215051 518.598438)scale(0.1 -0.1)">
       <defs>
        <path d="M 2597 2516 
Q 3050 2419 3304 2112 
Q 3559 1806 3559 1356 
Q 3559 666 3084 287 
Q 2609 -91 1734 -91 
Q 1441 -91 1130 -33 
Q 819 25 488 141 
L 488 750 
Q 750 597 1062 519 
Q 1375 441 1716 441 
Q 2309 441 2620 675 
Q 2931 909 2931 1356 
Q 2931 1769 2642 2001 
Q 2353 2234 1838 2234 
L 1294 2234 
L 1294 2753 
L 1863 2753 
Q 2328 2753 2575 2939 
Q 2822 3125 2822 3475 
Q 2822 3834 2567 4026 
Q 2313 4219 1838 4219 
Q 1578 4219 1281 4162 
Q 984 4106 628 3988 
L 628 4550 
Q 988 4650 1302 4700 
Q 1616 4750 1894 4750 
Q 2613 4750 3031 4423 
Q 3450 4097 3450 3541 
Q 3450 3153 3228 2886 
Q 3006 2619 2597 2516 
z
" id="DejaVuSans-33" transform="scale(0.015625)"/>
       </defs>
       <use xlink:href="#DejaVuSans-33"/>
       <use x="63.623047" xlink:href="#DejaVuSans-30"/>
       <use x="127.246094" xlink:href="#DejaVuSans-30"/>
       <use x="190.869141" xlink:href="#DejaVuSans-30"/>
      </g>
     </g>
    </g>
    <g id="xtick_5">
     <g id="line2d_5">
      <g>
       <use style="fill:#ffffff;stroke:#ffffff;stroke-width:0.8;" x="588.750371" xlink:href="#md2f346010f" y="504"/>
      </g>
     </g>
     <g id="text_5">
      <!-- 4000 -->
      <g style="fill:#ffffff;" transform="translate(576.025371 518.598438)scale(0.1 -0.1)">
       <defs>
        <path d="M 2419 4116 
L 825 1625 
L 2419 1625 
L 2419 4116 
z
M 2253 4666 
L 3047 4666 
L 3047 1625 
L 3713 1625 
L 3713 1100 
L 3047 1100 
L 3047 0 
L 2419 0 
L 2419 1100 
L 313 1100 
L 313 1709 
L 2253 4666 
z
" id="DejaVuSans-34" transform="scale(0.015625)"/>
       </defs>
       <use xlink:href="#DejaVuSans-34"/>
       <use x="63.623047" xlink:href="#DejaVuSans-30"/>
       <use x="127.246094" xlink:href="#DejaVuSans-30"/>
       <use x="190.869141" xlink:href="#DejaVuSans-30"/>
      </g>
     </g>
    </g>
    <g id="xtick_6">
     <g id="line2d_6">
      <g>
       <use style="fill:#ffffff;stroke:#ffffff;stroke-width:0.8;" x="695.560691" xlink:href="#md2f346010f" y="504"/>
      </g>
     </g>
     <g id="text_6">
      <!-- 5000 -->
      <g style="fill:#ffffff;" transform="translate(682.835691 518.598438)scale(0.1 -0.1)">
       <defs>
        <path d="M 691 4666 
L 3169 4666 
L 3169 4134 
L 1269 4134 
L 1269 2991 
Q 1406 3038 1543 3061 
Q 1681 3084 1819 3084 
Q 2600 3084 3056 2656 
Q 3513 2228 3513 1497 
Q 3513 744 3044 326 
Q 2575 -91 1722 -91 
Q 1428 -91 1123 -41 
Q 819 9 494 109 
L 494 744 
Q 775 591 1075 516 
Q 1375 441 1709 441 
Q 2250 441 2565 725 
Q 2881 1009 2881 1497 
Q 2881 1984 2565 2268 
Q 2250 2553 1709 2553 
Q 1456 2553 1204 2497 
Q 953 2441 691 2322 
L 691 4666 
z
" id="DejaVuSans-35" transform="scale(0.015625)"/>
       </defs>
       <use xlink:href="#DejaVuSans-35"/>
       <use x="63.623047" xlink:href="#DejaVuSans-30"/>
       <use x="127.246094" xlink:href="#DejaVuSans-30"/>
       <use x="190.869141" xlink:href="#DejaVuSans-30"/>
      </g>
     </g>
    </g>
    <g id="xtick_7">
     <g id="line2d_7">
      <g>
       <use style="fill:#ffffff;stroke:#ffffff;stroke-width:0.8;" x="802.371011" xlink:href="#md2f346010f" y="504"/>
      </g>
     </g>
     <g id="text_7">
      <!-- 6000 -->
      <g style="fill:#ffffff;" transform="translate(789.646011 518.598438)scale(0.1 -0.1)">
       <defs>
        <path d="M 2113 2584 
Q 1688 2584 1439 2293 
Q 1191 2003 1191 1497 
Q 1191 994 1439 701 
Q 1688 409 2113 409 
Q 2538 409 2786 701 
Q 3034 994 3034 1497 
Q 3034 2003 2786 2293 
Q 2538 2584 2113 2584 
z
M 3366 4563 
L 3366 3988 
Q 3128 4100 2886 4159 
Q 2644 4219 2406 4219 
Q 1781 4219 1451 3797 
Q 1122 3375 1075 2522 
Q 1259 2794 1537 2939 
Q 1816 3084 2150 3084 
Q 2853 3084 3261 2657 
Q 3669 2231 3669 1497 
Q 3669 778 3244 343 
Q 2819 -91 2113 -91 
Q 1303 -91 875 529 
Q 447 1150 447 2328 
Q 447 3434 972 4092 
Q 1497 4750 2381 4750 
Q 2619 4750 2861 4703 
Q 3103 4656 3366 4563 
z
" id="DejaVuSans-36" transform="scale(0.015625)"/>
       </defs>
       <use xlink:href="#DejaVuSans-36"/>
       <use x="63.623047" xlink:href="#DejaVuSans-30"/>
       <use x="127.246094" xlink:href="#DejaVuSans-30"/>
       <use x="190.869141" xlink:href="#DejaVuSans-30"/>
      </g>
     </g>
    </g>
    <g id="text_8">
     <!-- iteration -->
     <g style="fill:#ffffff;" transform="translate(495.477344 532.276562)scale(0.1 -0.1)">
      <defs>
       <path d="M 603 3500 
L 1178 3500 
L 1178 0 
L 603 0 
L 603 3500 
z
M 603 4863 
L 1178 4863 
L 1178 4134 
L 603 4134 
L 603 4863 
z
" id="DejaVuSans-69" transform="scale(0.015625)"/>
       <path d="M 1172 4494 
L 1172 3500 
L 2356 3500 
L 2356 3053 
L 1172 3053 
L 1172 1153 
Q 1172 725 1289 603 
Q 1406 481 1766 481 
L 2356 481 
L 2356 0 
L 1766 0 
Q 1100 0 847 248 
Q 594 497 594 1153 
L 594 3053 
L 172 3053 
L 172 3500 
L 594 3500 
L 594 4494 
L 1172 4494 
z
" id="DejaVuSans-74" transform="scale(0.015625)"/>
       <path d="M 3597 1894 
L 3597 1613 
L 953 1613 
Q 991 1019 1311 708 
Q 1631 397 2203 397 
Q 2534 397 2845 478 
Q 3156 559 3463 722 
L 3463 178 
Q 3153 47 2828 -22 
Q 2503 -91 2169 -91 
Q 1331 -91 842 396 
Q 353 884 353 1716 
Q 353 2575 817 3079 
Q 1281 3584 2069 3584 
Q 2775 3584 3186 3129 
Q 3597 2675 3597 1894 
z
M 3022 2063 
Q 3016 2534 2758 2815 
Q 2500 3097 2075 3097 
Q 1594 3097 1305 2825 
Q 1016 2553 972 2059 
L 3022 2063 
z
" id="DejaVuSans-65" transform="scale(0.015625)"/>
       <path d="M 2631 2963 
Q 2534 3019 2420 3045 
Q 2306 3072 2169 3072 
Q 1681 3072 1420 2755 
Q 1159 2438 1159 1844 
L 1159 0 
L 581 0 
L 581 3500 
L 1159 3500 
L 1159 2956 
Q 1341 3275 1631 3429 
Q 1922 3584 2338 3584 
Q 2397 3584 2469 3576 
Q 2541 3569 2628 3553 
L 2631 2963 
z
" id="DejaVuSans-72" transform="scale(0.015625)"/>
       <path d="M 2194 1759 
Q 1497 1759 1228 1600 
Q 959 1441 959 1056 
Q 959 750 1161 570 
Q 1363 391 1709 391 
Q 2188 391 2477 730 
Q 2766 1069 2766 1631 
L 2766 1759 
L 2194 1759 
z
M 3341 1997 
L 3341 0 
L 2766 0 
L 2766 531 
Q 2569 213 2275 61 
Q 1981 -91 1556 -91 
Q 1019 -91 701 211 
Q 384 513 384 1019 
Q 384 1609 779 1909 
Q 1175 2209 1959 2209 
L 2766 2209 
L 2766 2266 
Q 2766 2663 2505 2880 
Q 2244 3097 1772 3097 
Q 1472 3097 1187 3025 
Q 903 2953 641 2809 
L 641 3341 
Q 956 3463 1253 3523 
Q 1550 3584 1831 3584 
Q 2591 3584 2966 3190 
Q 3341 2797 3341 1997 
z
" id="DejaVuSans-61" transform="scale(0.015625)"/>
       <path d="M 1959 3097 
Q 1497 3097 1228 2736 
Q 959 2375 959 1747 
Q 959 1119 1226 758 
Q 1494 397 1959 397 
Q 2419 397 2687 759 
Q 2956 1122 2956 1747 
Q 2956 2369 2687 2733 
Q 2419 3097 1959 3097 
z
M 1959 3584 
Q 2709 3584 3137 3096 
Q 3566 2609 3566 1747 
Q 3566 888 3137 398 
Q 2709 -91 1959 -91 
Q 1206 -91 779 398 
Q 353 888 353 1747 
Q 353 2609 779 3096 
Q 1206 3584 1959 3584 
z
" id="DejaVuSans-6f" transform="scale(0.015625)"/>
       <path d="M 3513 2113 
L 3513 0 
L 2938 0 
L 2938 2094 
Q 2938 2591 2744 2837 
Q 2550 3084 2163 3084 
Q 1697 3084 1428 2787 
Q 1159 2491 1159 1978 
L 1159 0 
L 581 0 
L 581 3500 
L 1159 3500 
L 1159 2956 
Q 1366 3272 1645 3428 
Q 1925 3584 2291 3584 
Q 2894 3584 3203 3211 
Q 3513 2838 3513 2113 
z
" id="DejaVuSans-6e" transform="scale(0.015625)"/>
      </defs>
      <use xlink:href="#DejaVuSans-69"/>
      <use x="27.783203" xlink:href="#DejaVuSans-74"/>
      <use x="66.992188" xlink:href="#DejaVuSans-65"/>
      <use x="128.515625" xlink:href="#DejaVuSans-72"/>
      <use x="169.628906" xlink:href="#DejaVuSans-61"/>
      <use x="230.908203" xlink:href="#DejaVuSans-74"/>
      <use x="270.117188" xlink:href="#DejaVuSans-69"/>
      <use x="297.900391" xlink:href="#DejaVuSans-6f"/>
      <use x="359.082031" xlink:href="#DejaVuSans-6e"/>
     </g>
    </g>
   </g>
   <g id="matplotlib.axis_2">
    <g id="ytick_1">
     <g id="line2d_8">
      <defs>
       <path d="M 0 0 
L -3.5 0 
" id="madade953ea" style="stroke:#ffffff;stroke-width:0.8;"/>
      </defs>
      <g>
       <use style="fill:#ffffff;stroke:#ffffff;stroke-width:0.8;" x="126" xlink:href="#madade953ea" y="484.232727"/>
      </g>
     </g>
     <g id="text_9">
      <!-- 0.0 -->
      <g style="fill:#ffffff;" transform="translate(103.096875 488.031946)scale(0.1 -0.1)">
       <defs>
        <path d="M 684 794 
L 1344 794 
L 1344 0 
L 684 0 
L 684 794 
z
" id="DejaVuSans-2e" transform="scale(0.015625)"/>
       </defs>
       <use xlink:href="#DejaVuSans-30"/>
       <use x="63.623047" xlink:href="#DejaVuSans-2e"/>
       <use x="95.410156" xlink:href="#DejaVuSans-30"/>
      </g>
     </g>
    </g>
    <g id="ytick_2">
     <g id="line2d_9">
      <g>
       <use style="fill:#ffffff;stroke:#ffffff;stroke-width:0.8;" x="126" xlink:href="#madade953ea" y="431.020515"/>
      </g>
     </g>
     <g id="text_10">
      <!-- 0.5 -->
      <g style="fill:#ffffff;" transform="translate(103.096875 434.819733)scale(0.1 -0.1)">
       <use xlink:href="#DejaVuSans-30"/>
       <use x="63.623047" xlink:href="#DejaVuSans-2e"/>
       <use x="95.410156" xlink:href="#DejaVuSans-35"/>
      </g>
     </g>
    </g>
    <g id="ytick_3">
     <g id="line2d_10">
      <g>
       <use style="fill:#ffffff;stroke:#ffffff;stroke-width:0.8;" x="126" xlink:href="#madade953ea" y="377.808302"/>
      </g>
     </g>
     <g id="text_11">
      <!-- 1.0 -->
      <g style="fill:#ffffff;" transform="translate(103.096875 381.607521)scale(0.1 -0.1)">
       <use xlink:href="#DejaVuSans-31"/>
       <use x="63.623047" xlink:href="#DejaVuSans-2e"/>
       <use x="95.410156" xlink:href="#DejaVuSans-30"/>
      </g>
     </g>
    </g>
    <g id="ytick_4">
     <g id="line2d_11">
      <g>
       <use style="fill:#ffffff;stroke:#ffffff;stroke-width:0.8;" x="126" xlink:href="#madade953ea" y="324.59609"/>
      </g>
     </g>
     <g id="text_12">
      <!-- 1.5 -->
      <g style="fill:#ffffff;" transform="translate(103.096875 328.395308)scale(0.1 -0.1)">
       <use xlink:href="#DejaVuSans-31"/>
       <use x="63.623047" xlink:href="#DejaVuSans-2e"/>
       <use x="95.410156" xlink:href="#DejaVuSans-35"/>
      </g>
     </g>
    </g>
    <g id="ytick_5">
     <g id="line2d_12">
      <g>
       <use style="fill:#ffffff;stroke:#ffffff;stroke-width:0.8;" x="126" xlink:href="#madade953ea" y="271.383877"/>
      </g>
     </g>
     <g id="text_13">
      <!-- 2.0 -->
      <g style="fill:#ffffff;" transform="translate(103.096875 275.183096)scale(0.1 -0.1)">
       <use xlink:href="#DejaVuSans-32"/>
       <use x="63.623047" xlink:href="#DejaVuSans-2e"/>
       <use x="95.410156" xlink:href="#DejaVuSans-30"/>
      </g>
     </g>
    </g>
    <g id="ytick_6">
     <g id="line2d_13">
      <g>
       <use style="fill:#ffffff;stroke:#ffffff;stroke-width:0.8;" x="126" xlink:href="#madade953ea" y="218.171664"/>
      </g>
     </g>
     <g id="text_14">
      <!-- 2.5 -->
      <g style="fill:#ffffff;" transform="translate(103.096875 221.970883)scale(0.1 -0.1)">
       <use xlink:href="#DejaVuSans-32"/>
       <use x="63.623047" xlink:href="#DejaVuSans-2e"/>
       <use x="95.410156" xlink:href="#DejaVuSans-35"/>
      </g>
     </g>
    </g>
    <g id="ytick_7">
     <g id="line2d_14">
      <g>
       <use style="fill:#ffffff;stroke:#ffffff;stroke-width:0.8;" x="126" xlink:href="#madade953ea" y="164.959452"/>
      </g>
     </g>
     <g id="text_15">
      <!-- 3.0 -->
      <g style="fill:#ffffff;" transform="translate(103.096875 168.758671)scale(0.1 -0.1)">
       <use xlink:href="#DejaVuSans-33"/>
       <use x="63.623047" xlink:href="#DejaVuSans-2e"/>
       <use x="95.410156" xlink:href="#DejaVuSans-30"/>
      </g>
     </g>
    </g>
    <g id="ytick_8">
     <g id="line2d_15">
      <g>
       <use style="fill:#ffffff;stroke:#ffffff;stroke-width:0.8;" x="126" xlink:href="#madade953ea" y="111.747239"/>
      </g>
     </g>
     <g id="text_16">
      <!-- 3.5 -->
      <g style="fill:#ffffff;" transform="translate(103.096875 115.546458)scale(0.1 -0.1)">
       <use xlink:href="#DejaVuSans-33"/>
       <use x="63.623047" xlink:href="#DejaVuSans-2e"/>
       <use x="95.410156" xlink:href="#DejaVuSans-35"/>
      </g>
     </g>
    </g>
    <g id="text_17">
     <!-- 1e6 -->
     <g style="fill:#ffffff;" transform="translate(126 66.12)scale(0.1 -0.1)">
      <use xlink:href="#DejaVuSans-31"/>
      <use x="63.623047" xlink:href="#DejaVuSans-65"/>
      <use x="125.146484" xlink:href="#DejaVuSans-36"/>
     </g>
    </g>
   </g>
   <g id="line2d_16">
    <path clip-path="url(#p18615a9a4e)" d="M 161.509091 480.279273 
L 161.829522 480.738175 
L 161.936332 480.528732 
L 162.256763 481.132584 
L 162.363573 481.182497 
L 162.470384 480.922821 
L 162.577194 481.044571 
L 162.684004 482.33933 
L 163.111246 481.428869 
L 163.324866 481.478357 
L 163.431677 481.259016 
L 163.538487 481.331172 
L 163.752108 481.065749 
L 163.965728 481.438341 
L 164.179349 481.073731 
L 164.49978 481.525928 
L 164.713401 481.240285 
L 164.927021 482.173521 
L 165.033831 482.274944 
L 165.140642 482.094767 
L 165.354262 482.284202 
L 165.567883 482.593791 
L 165.781504 482.250892 
L 165.888314 482.464379 
L 166.208745 482.030061 
L 166.422366 482.324112 
L 167.063228 481.401518 
L 167.276848 482.162134 
L 167.597279 481.905651 
L 167.704089 482.007073 
L 167.91771 481.902245 
L 168.02452 482.051559 
L 168.451762 481.600638 
L 168.772193 482.142339 
L 168.879003 482.214494 
L 168.985813 482.005051 
L 169.092624 482.126801 
L 169.413055 481.678435 
L 169.626675 481.656192 
L 170.694778 482.372428 
L 170.801589 482.112753 
L 171.015209 482.434048 
L 171.442451 481.76847 
L 171.656071 481.515499 
L 172.296933 482.314533 
L 172.510554 482.186079 
L 172.724175 481.840093 
L 173.044605 482.163304 
L 173.151416 481.977168 
L 173.365036 482.376792 
L 173.578657 482.211302 
L 173.685467 482.163198 
L 173.899088 482.60305 
L 174.112709 482.137869 
L 174.219519 482.389563 
L 174.326329 482.317407 
L 174.64676 482.705537 
L 174.753571 482.933179 
L 174.967191 482.777373 
L 175.180812 483.044818 
L 175.287622 482.817176 
L 175.394433 483.030663 
L 176.035294 482.266642 
L 176.142105 482.518336 
L 176.355725 482.104664 
L 176.569346 481.824449 
L 176.676156 481.699613 
L 176.782967 481.803058 
L 177.103398 481.354053 
L 177.210208 481.250608 
L 177.423829 481.721643 
L 177.530639 481.469417 
L 177.85107 481.831899 
L 177.95788 481.652148 
L 178.064691 481.904374 
L 178.278311 481.77262 
L 178.705552 482.306339 
L 178.812363 482.046663 
L 178.919173 482.094767 
L 179.025983 482.359125 
L 179.132794 482.321345 
L 179.346414 482.006435 
L 179.453225 482.234077 
L 179.773656 481.940558 
L 179.987276 481.363525 
L 180.094087 481.556153 
L 180.200897 481.363525 
L 180.307707 481.411629 
L 180.628138 481.915761 
L 180.734949 481.706318 
L 180.841759 481.925659 
L 180.948569 481.739522 
L 181.055379 481.924381 
L 181.269 481.601383 
L 181.589431 482.01165 
L 182.337103 482.567079 
L 182.764345 482.202575 
L 183.084776 481.683862 
L 183.191586 481.721643 
L 183.298396 481.457285 
L 183.512017 481.656405 
L 183.618827 481.684927 
L 184.152879 482.587193 
L 184.366499 482.349228 
L 184.900551 481.758892 
L 185.007361 481.721111 
L 185.114172 481.907247 
L 185.327792 481.507623 
L 185.648223 482.010585 
L 185.968654 482.187782 
L 186.182275 482.367107 
L 186.289085 482.619333 
L 186.716326 482.063053 
L 186.823137 482.100833 
L 186.929947 481.836475 
L 187.143568 482.172563 
L 187.250378 481.920337 
L 187.463999 482.071779 
L 187.677619 481.892454 
L 187.78443 482.111795 
L 188.104861 481.508688 
L 188.211671 481.556792 
L 188.425292 481.380978 
L 188.532102 481.567115 
L 188.638912 481.419185 
L 188.852533 481.899052 
L 189.066153 481.457178 
L 189.386584 481.679818 
L 189.707015 481.684075 
L 189.813826 481.868934 
L 190.347877 480.980397 
L 190.454688 481.160148 
L 190.668308 481.05532 
L 191.09555 481.558494 
L 191.20236 481.306801 
L 191.629601 481.933428 
L 192.056842 481.320636 
L 192.270463 481.160893 
L 192.377273 481.012963 
L 192.697704 481.267743 
L 192.804515 481.239221 
L 192.911325 481.425357 
L 193.018135 481.266572 
L 193.124946 481.526248 
L 193.231756 481.454092 
L 193.338566 481.578928 
L 193.552187 481.21783 
L 193.872618 480.833638 
L 193.979428 480.905793 
L 194.193049 480.574707 
L 194.299859 480.722637 
L 194.51348 480.856412 
L 194.7271 482.746829 
L 195.261152 481.909163 
L 195.474773 482.215878 
L 195.795204 482.059115 
L 195.902014 482.239291 
L 196.008824 482.104132 
L 196.436066 482.654134 
L 196.542876 482.394458 
L 196.649686 482.654134 
L 196.756497 482.440646 
L 196.863307 482.575805 
L 197.183738 482.160431 
L 197.397358 482.365511 
L 197.504169 481.01839 
L 197.610979 481.145035 
L 197.717789 481.01839 
L 197.8246 481.198567 
L 197.93141 481.050637 
L 198.145031 481.352776 
L 198.358651 481.086821 
L 198.572272 481.39641 
L 198.892703 481.829877 
L 198.999513 482.08157 
L 199.319944 481.884047 
L 199.426755 481.696314 
L 199.640375 482.108815 
L 199.853996 481.1958 
L 200.174427 481.774323 
L 200.388047 481.469311 
L 200.494858 481.548597 
L 200.601668 481.776239 
L 200.708478 481.58361 
L 200.815289 481.763361 
L 200.922099 481.58361 
L 201.13572 481.843818 
L 201.456151 481.626819 
L 201.562961 481.84616 
L 201.669771 481.636716 
L 201.776582 481.747185 
L 201.883392 481.697272 
L 202.310633 482.013778 
L 202.417443 481.74942 
L 202.524254 481.884579 
L 202.844685 481.432381 
L 203.165116 481.876171 
L 203.485547 481.340324 
L 203.805978 481.844137 
L 203.912788 482.023888 
L 204.340029 481.692908 
L 204.66046 481.853929 
L 205.087701 481.236986 
L 205.194512 481.340644 
L 205.301322 481.218894 
L 205.514943 481.490808 
L 205.621753 481.311058 
L 205.728563 481.491234 
L 206.048994 481.080223 
L 206.262615 481.176537 
L 206.476236 480.774998 
L 206.689856 481.03329 
L 206.796667 480.773614 
L 207.223908 481.291901 
L 207.330718 481.219745 
L 207.437529 482.164156 
L 207.86477 481.339473 
L 208.292011 481.903309 
L 208.719252 482.451608 
L 208.932873 482.220667 
L 209.039683 482.379452 
L 209.253304 481.968973 
L 209.360114 482.127759 
L 209.680545 481.85925 
L 209.894166 482.167029 
L 210.000976 482.195551 
L 210.214597 482.479172 
L 210.855459 481.794757 
L 211.069079 481.632459 
L 211.2827 481.920976 
L 211.496321 481.687906 
L 211.603131 481.789329 
L 211.709941 481.569988 
L 211.923562 481.579247 
L 212.137183 481.628734 
L 212.671234 482.357529 
L 212.778045 482.208215 
L 212.991665 482.379878 
L 213.098476 482.152236 
L 213.312096 482.385093 
L 213.418906 482.33518 
L 213.525717 482.414466 
L 213.632527 480.969435 
L 213.739337 481.048721 
L 213.846148 482.33518 
L 213.952958 482.149043 
L 214.166579 482.463315 
L 214.380199 482.102217 
L 214.59382 481.97025 
L 215.127872 482.59443 
L 215.234682 482.822072 
L 215.661923 482.036127 
L 215.768734 482.108283 
L 216.195975 481.476122 
L 216.302785 481.372677 
L 216.409595 482.011224 
L 216.623216 481.735265 
L 216.943647 481.945347 
L 217.050457 481.438554 
L 217.264078 481.565944 
L 217.370888 481.493788 
L 217.79813 482.179694 
L 218.118561 481.669708 
L 218.545802 482.291439 
L 218.759422 481.924169 
L 219.186664 482.288672 
L 219.293474 482.473532 
L 219.613905 481.74346 
L 219.827526 481.802313 
L 220.041146 481.579354 
L 220.147957 481.549448 
L 220.361577 481.365121 
L 220.575198 481.100976 
L 220.895629 481.677796 
L 221.21606 481.489851 
L 221.42968 481.86372 
L 221.536491 481.815616 
L 221.750111 481.598084 
L 221.963732 481.374912 
L 222.390973 482.109454 
L 222.497784 481.980041 
L 222.604594 481.40386 
L 222.711404 481.453773 
L 222.818215 481.202079 
L 223.565887 481.962481 
L 223.672697 481.827322 
L 224.099938 482.706175 
L 224.313559 482.416169 
L 224.420369 482.235992 
L 224.52718 482.422129 
L 224.7408 482.344119 
L 224.847611 482.124779 
L 224.954421 482.259938 
L 225.061231 481.995579 
L 225.168042 482.067735 
L 225.488473 481.545617 
L 225.702093 481.858079 
L 225.915714 482.037298 
L 226.129335 481.780283 
L 226.449766 482.216623 
L 226.556576 482.1152 
L 226.663386 482.329433 
L 226.877007 482.029103 
L 227.090627 482.473638 
L 227.304248 482.274411 
L 227.411058 482.086679 
L 227.517869 482.245464 
L 227.94511 481.784327 
L 228.372351 482.104345 
L 228.692782 481.630224 
L 228.906403 481.964504 
L 229.013213 481.751016 
L 229.226834 482.065394 
L 229.333644 481.885643 
L 229.440454 481.933747 
L 229.654075 482.304742 
L 229.974506 481.876065 
L 230.081316 482.089552 
L 230.294937 481.703444 
L 230.828989 482.571761 
L 230.935799 482.442349 
L 231.042609 482.66169 
L 231.36304 482.046131 
L 231.683471 482.587406 
L 232.110712 482.063265 
L 232.431143 482.499073 
L 232.537954 480.884828 
L 232.644764 480.922608 
L 232.965195 480.884828 
L 233.392436 481.194416 
L 233.712867 480.663039 
L 233.926488 480.943255 
L 234.140109 481.140246 
L 234.353729 480.956664 
L 234.46054 481.141523 
L 234.56735 481.040101 
L 234.67416 481.219852 
L 234.887781 480.960815 
L 235.101401 481.412906 
L 235.208212 481.309461 
L 235.315022 481.388747 
L 235.528643 481.165788 
L 235.635453 481.093632 
L 235.955884 481.748994 
L 236.169505 481.690567 
L 236.276315 481.838497 
L 236.489936 481.504324 
L 236.596746 481.534655 
L 236.917177 480.971351 
L 237.023987 481.120664 
L 237.558039 480.420498 
L 237.771659 480.810331 
L 237.87847 482.57357 
L 237.98528 482.523657 
L 238.09209 482.553988 
L 238.519332 483.116122 
L 238.839763 482.646152 
L 238.946573 482.747574 
L 239.160194 482.236205 
L 239.267004 482.361041 
L 239.587435 482.206087 
L 240.014676 482.046557 
L 240.228297 482.18576 
L 240.548728 481.638313 
L 240.655538 481.818489 
L 240.975969 481.479634 
L 241.18959 481.358842 
L 241.40321 481.651616 
L 241.723641 481.269871 
L 242.150883 481.861378 
L 242.257693 481.681202 
L 242.791744 482.675844 
L 242.898555 480.708057 
L 243.218986 481.067452 
L 243.325796 481.319146 
L 243.432606 481.054788 
L 243.539417 481.319146 
L 243.646227 481.215488 
L 243.859848 481.49762 
L 244.073468 481.846372 
L 244.180279 481.697059 
L 244.287089 481.846372 
L 244.393899 481.742928 
L 244.60752 481.939919 
L 244.71433 481.687694 
L 245.034761 481.945666 
L 245.141572 481.681308 
L 245.248382 481.945666 
L 245.355192 481.873511 
L 245.462002 482.053261 
L 245.889244 481.661939 
L 245.996054 481.783688 
L 246.102864 481.598829 
L 246.636916 482.505459 
L 246.850537 482.166497 
L 246.957347 482.269942 
L 247.384588 481.984405 
L 247.598209 481.785604 
L 247.705019 481.912249 
L 247.81183 481.764319 
L 247.91864 481.98366 
L 248.13226 481.794544 
L 248.239071 481.87383 
L 248.345881 481.681202 
L 248.452691 481.753357 
L 248.559502 481.534017 
L 248.879933 481.824343 
L 249.307174 481.24848 
L 249.520795 481.620859 
L 249.841226 481.19729 
L 249.948036 481.167385 
L 250.054846 481.419078 
L 250.161657 481.238902 
L 250.268467 481.342559 
L 250.375277 481.263273 
L 250.588898 481.494427 
L 250.695708 481.390769 
L 250.909329 481.722282 
L 251.122949 481.895221 
L 251.33657 481.895221 
L 251.550191 481.778154 
L 251.763811 481.97472 
L 252.084242 481.994728 
L 252.191053 481.809869 
L 252.404673 481.989194 
L 252.725104 482.425641 
L 252.938725 482.190868 
L 253.152346 482.384774 
L 253.259156 482.356252 
L 253.365966 482.142019 
L 253.472776 482.329752 
L 253.579587 482.203107 
L 253.793207 482.602624 
L 253.900018 482.389137 
L 254.006828 480.994764 
L 254.434069 481.619263 
L 254.7545 481.639483 
L 254.861311 481.744418 
L 254.968121 481.665132 
L 255.074931 481.85776 
L 255.288552 481.600638 
L 255.395362 481.73005 
L 255.608983 481.357246 
L 255.715793 481.584888 
L 256.036224 481.23539 
L 256.143034 481.362035 
L 256.570276 480.793196 
L 256.677086 480.896641 
L 256.783896 480.793196 
L 256.890707 480.94251 
L 257.211138 480.655909 
L 257.424758 480.832467 
L 257.638379 481.196013 
L 257.852 480.997212 
L 258.279241 481.518266 
L 258.599672 481.872766 
L 258.706482 481.658533 
L 258.920103 481.865848 
L 259.133723 481.590209 
L 259.240534 481.817851 
L 259.347344 481.631714 
L 259.560965 482.040703 
L 259.667775 482.088807 
L 259.881396 481.660023 
L 259.988206 481.795182 
L 260.095016 481.691525 
L 260.201827 481.431849 
L 260.415447 481.764319 
L 260.522258 481.512093 
L 260.842689 481.645443 
L 261.056309 482.087317 
L 261.37674 481.6497 
L 261.48355 481.680031 
L 261.697171 481.586803 
L 261.803981 481.839029 
L 262.017602 481.485913 
L 262.231223 481.923743 
L 262.551654 481.278811 
L 262.658464 481.40056 
L 262.872085 481.550832 
L 263.085705 481.143013 
L 263.619757 481.908311 
L 263.940188 481.417269 
L 264.046998 481.489425 
L 264.260619 481.250608 
L 264.367429 481.329895 
L 264.474239 481.208145 
L 264.68786 481.393217 
L 264.901481 481.753145 
L 265.115101 481.314782 
L 265.435532 481.838603 
L 265.649153 481.663003 
L 265.755963 481.766448 
L 265.969584 481.552002 
L 266.076394 481.701316 
L 266.183205 481.481975 
L 266.396825 481.837326 
L 266.610446 481.47378 
L 266.930877 481.899585 
L 267.144497 482.27058 
L 267.358118 482.047408 
L 267.464928 482.260896 
L 267.785359 481.744524 
L 267.89217 481.86936 
L 267.99898 481.819447 
L 268.10579 481.567221 
L 268.212601 481.754954 
L 268.319411 481.567221 
L 268.533032 482.038788 
L 268.639842 481.345113 
L 268.746652 481.53125 
L 268.853463 481.372464 
L 268.960273 482.011437 
L 269.173894 481.687055 
L 269.494325 482.110837 
L 270.135186 481.074582 
L 270.241997 481.176005 
L 270.348807 480.962518 
L 270.455617 481.097677 
L 270.562428 480.909944 
L 270.776048 481.272745 
L 270.882859 481.053404 
L 271.20329 481.601703 
L 271.630531 481.271468 
L 271.844152 482.292184 
L 271.950962 482.505672 
L 272.057772 482.402227 
L 272.164583 480.981674 
L 272.271393 481.140459 
L 272.591824 480.816078 
L 272.698634 480.942723 
L 272.805444 480.816078 
L 273.125875 481.030948 
L 273.446306 481.543169 
L 273.553117 481.393856 
L 273.766737 481.775281 
L 273.980358 481.926616 
L 274.087168 481.825194 
L 274.193979 481.565518 
L 274.300789 481.666941 
L 274.51441 481.483039 
L 274.62122 481.36129 
L 274.834841 481.582653 
L 274.941651 481.801248 
L 275.155271 481.471758 
L 275.475702 481.976742 
L 275.582513 482.169371 
L 275.689323 481.917145 
L 275.902944 482.177352 
L 276.009754 482.429578 
L 276.223375 482.028358 
L 276.436995 482.423938 
L 276.543806 482.159579 
L 276.757426 482.445223 
L 276.971047 482.201085 
L 277.077857 482.465443 
L 277.291478 482.076249 
L 277.398288 482.11403 
L 277.611909 481.760381 
L 277.718719 481.73005 
L 277.93234 482.130206 
L 278.252771 481.883195 
L 278.359581 481.811039 
L 278.466391 481.572862 
L 278.680012 482.018674 
L 279.000443 481.520075 
L 279.107253 481.707808 
L 279.214064 481.578396 
L 279.320874 481.705041 
L 279.748115 481.156955 
L 279.854926 481.376296 
L 279.961736 481.326383 
L 280.068546 481.146206 
L 280.175357 481.29552 
L 280.388977 481.143758 
L 280.495787 481.328618 
L 280.709408 481.039782 
L 281.029839 481.681627 
L 281.136649 481.501877 
L 281.24346 481.605534 
L 281.45708 481.292753 
L 281.563891 481.394175 
L 281.670701 481.422697 
L 281.777511 481.287538 
L 282.097942 481.760062 
L 282.311563 481.318188 
L 282.418373 481.348519 
L 282.631994 481.579673 
L 282.738804 481.683117 
L 282.952425 481.282961 
L 283.166045 481.706105 
L 283.486476 481.789967 
L 283.700097 482.104345 
L 283.913718 481.820724 
L 284.020528 481.970038 
L 284.127338 481.868615 
L 284.234149 482.096257 
L 284.340959 481.916506 
L 284.447769 481.996324 
L 284.66139 481.832644 
L 284.7682 481.991429 
L 284.981821 481.738458 
L 285.088631 481.886388 
L 285.302252 481.765383 
L 285.515873 482.016545 
L 285.729493 481.748994 
L 285.836303 481.484636 
L 286.156734 482.030912 
L 286.477165 481.592976 
L 286.797596 482.0655 
L 287.011217 481.663535 
L 287.118027 481.785285 
L 287.331648 481.557217 
L 287.652079 481.977807 
L 288.186131 481.318827 
L 288.399751 481.594785 
L 288.506561 481.415034 
L 288.613372 481.562964 
L 288.720182 481.343623 
L 288.933803 482.143935 
L 289.147423 481.992493 
L 289.254234 481.740799 
L 289.361044 481.875958 
L 289.574665 481.554663 
L 289.681475 481.679499 
L 289.788285 481.576054 
L 290.001906 481.835943 
L 290.108716 481.608301 
L 290.322337 481.793373 
L 290.429147 481.764851 
L 290.749578 481.945028 
L 291.176819 481.55892 
L 291.39044 481.151847 
L 291.49725 481.231133 
L 291.710871 481.500387 
L 291.817681 481.54849 
L 291.924492 481.812849 
L 292.031302 481.762936 
L 292.244923 481.573926 
L 292.351733 481.389067 
L 292.565354 481.796885 
L 292.672164 481.583398 
L 292.778974 481.742183 
L 292.885785 481.694079 
L 292.992595 481.946305 
L 293.099405 481.821469 
L 293.206216 482.009202 
L 293.419836 481.825726 
L 293.633457 482.181077 
L 293.847077 482.406271 
L 294.060698 482.249295 
L 294.167508 482.277817 
L 294.274319 482.17416 
L 294.381129 481.209741 
L 294.915181 482.178097 
L 295.021991 481.926404 
L 295.128801 482.048153 
L 295.556043 481.420675 
L 295.662853 481.648317 
L 295.769663 481.521671 
L 295.983284 481.772407 
L 296.090094 481.650658 
L 296.196905 481.902352 
L 296.517335 481.456753 
L 296.624146 481.205059 
L 296.730956 481.4244 
L 296.944577 481.090333 
L 297.158197 481.45622 
L 297.265008 481.384065 
L 297.371818 481.51071 
L 297.799059 481.20027 
L 298.226301 481.811891 
L 298.333111 481.584249 
L 298.439921 481.793692 
L 298.546732 481.613941 
L 298.760352 481.745269 
L 298.867163 481.707489 
L 299.187593 481.199312 
L 299.401214 481.44313 
L 299.721645 481.551151 
L 299.828455 481.810827 
L 300.042076 481.759317 
L 300.362507 482.228862 
L 300.469317 482.20034 
L 300.576128 482.388073 
L 300.682938 482.263237 
L 300.789748 482.343055 
L 301.43061 481.347135 
L 301.537421 481.47378 
L 301.644231 481.910121 
L 301.857851 481.509752 
L 302.178282 481.968867 
L 302.285093 481.704509 
L 302.391903 481.754422 
L 302.498713 481.561793 
L 302.605524 481.64108 
L 302.712334 481.561261 
L 303.032765 482.163836 
L 303.246386 481.753357 
L 303.566817 482.313469 
L 303.887248 482.166071 
L 304.207679 482.160963 
L 304.74173 482.570803 
L 304.955351 482.421384 
L 305.382592 481.931299 
L 305.489402 482.090084 
L 305.596213 482.010266 
L 305.703023 482.089552 
L 305.809833 482.017396 
L 305.916644 482.120841 
L 306.237075 481.505282 
L 306.343885 481.878619 
L 306.557506 481.669389 
L 306.771126 481.292327 
L 306.984747 481.763893 
L 307.305178 481.400241 
L 307.839229 481.794969 
L 307.94604 481.691312 
L 308.373281 482.251743 
L 308.586902 481.780709 
L 308.693712 481.910121 
L 308.800522 481.650445 
L 308.907333 481.830196 
L 309.014143 481.750378 
L 309.334574 481.241882 
L 309.441384 481.456114 
L 309.548195 481.242627 
L 309.655005 481.461967 
L 309.761815 481.247735 
L 309.868625 481.35118 
L 309.975436 481.141736 
L 310.295867 481.613303 
L 310.616298 481.273277 
L 310.723108 481.376721 
L 310.829918 481.304566 
L 311.043539 482.259512 
L 311.47078 482.876561 
L 311.791211 482.198424 
L 312.004832 482.690425 
L 312.111642 482.660519 
L 312.218453 482.451076 
L 312.325263 482.660519 
L 312.645694 482.076994 
L 312.859314 482.151917 
L 313.393366 482.323686 
L 313.500176 482.109454 
L 313.713797 482.58847 
L 313.927418 482.490453 
L 314.034228 482.678186 
L 314.141038 482.530256 
L 314.247849 482.580169 
L 314.354659 482.766305 
L 314.888711 481.953755 
L 314.995521 482.055177 
L 315.209141 482.113604 
L 315.529572 481.753038 
L 315.636383 481.937897 
L 315.850003 481.565625 
L 316.063624 482.010905 
L 316.277245 481.670772 
L 316.490865 481.963546 
L 316.597676 481.883727 
L 316.811296 482.090191 
L 317.024917 481.243797 
L 317.238538 481.085863 
L 317.345348 480.985399 
L 317.452158 482.398502 
L 317.879399 481.786668 
L 318.09302 481.788052 
L 318.306641 482.10807 
L 318.413451 481.848394 
L 318.520261 482.062627 
L 318.627072 481.933215 
L 318.733882 482.012501 
L 318.947503 481.792415 
L 319.054313 481.591486 
L 319.374744 482.322302 
L 319.588365 481.842435 
L 319.695175 481.922253 
L 319.801985 481.820831 
L 320.015606 482.22237 
L 320.122416 482.118712 
L 320.336037 482.404994 
L 320.442847 482.376472 
L 320.656468 481.904906 
L 320.763278 482.132548 
L 320.870088 481.923104 
L 321.29733 482.503011 
L 321.40414 482.315278 
L 321.51095 482.507907 
L 321.617761 482.404462 
L 321.724571 482.144786 
L 321.831381 482.324537 
L 322.045002 481.910759 
L 322.151812 482.138401 
L 322.258623 482.058583 
L 322.365433 482.310276 
L 322.685864 481.929383 
L 322.792674 482.058796 
L 322.899485 481.866167 
L 323.006295 481.969825 
L 323.113105 481.820511 
L 323.219916 482.039852 
L 323.433536 481.666834 
L 323.647157 482.133293 
L 323.753967 481.91906 
L 323.860777 481.956841 
L 323.967588 481.771982 
L 324.074398 481.821895 
L 324.501639 481.160361 
L 324.60845 481.28211 
L 324.82207 480.926227 
L 325.035691 480.442528 
L 325.462932 481.019987 
L 325.569743 480.982206 
L 325.890174 481.430572 
L 325.996984 481.271787 
L 326.210604 481.448345 
L 326.317415 481.300415 
L 326.424225 481.435574 
L 326.531035 481.948327 
L 326.637846 481.799014 
L 326.744656 481.848927 
L 326.958277 481.577012 
L 327.065087 481.325318 
L 327.385518 481.718557 
L 327.599139 481.566795 
L 327.705949 481.646082 
L 327.91957 481.310419 
L 328.560432 481.833176 
L 328.667242 481.783263 
L 328.987673 482.238227 
L 329.094483 482.268132 
L 329.201293 482.015906 
L 329.308104 482.2676 
L 329.628535 481.579141 
L 329.735345 481.7143 
L 329.842155 481.462606 
L 330.055776 481.584675 
L 330.162586 481.48123 
L 330.269397 481.668963 
L 330.483017 481.288602 
L 330.589828 481.540828 
L 330.910259 481.307652 
L 331.123879 481.588825 
L 331.3375 481.364908 
L 331.55112 482.148405 
L 331.657931 482.110624 
L 331.871551 482.394458 
L 331.978362 482.272709 
L 332.085172 481.111192 
L 332.832844 481.797417 
L 332.939655 481.58393 
L 333.046465 481.764106 
L 333.153275 481.549874 
L 333.260086 481.742502 
L 333.473706 481.40354 
L 333.687327 481.272213 
L 333.794137 481.37587 
L 333.900948 481.148228 
L 334.007758 481.367569 
L 334.541809 481.001682 
L 334.75543 481.158658 
L 334.969051 481.559878 
L 335.075861 481.375019 
L 335.503102 481.950668 
L 335.716723 481.518266 
L 335.823533 481.647678 
L 336.037154 481.311164 
L 336.250775 481.398858 
L 336.357585 481.650551 
L 336.571206 481.414502 
L 336.784826 481.611813 
L 336.891636 481.531995 
L 336.998447 481.280301 
L 337.212067 482.238759 
L 337.318878 482.208428 
L 337.425688 481.994196 
L 337.532498 482.207683 
L 337.746119 482.024527 
L 337.852929 481.923104 
L 338.17336 482.300166 
L 338.386981 481.891177 
L 338.707412 482.583681 
L 338.921033 482.143829 
L 339.027843 482.265578 
L 339.134653 482.186292 
L 339.455084 482.763112 
L 339.989136 482.192039 
L 340.095946 482.372215 
L 340.309567 481.89437 
L 340.416377 482.107857 
L 340.523187 481.89437 
L 340.629998 482.108602 
L 340.736808 481.97919 
L 340.843618 482.188633 
L 341.057239 481.676732 
L 341.164049 481.861591 
L 341.27086 481.713661 
L 341.698101 482.540472 
L 342.018532 482.387753 
L 342.125342 482.357848 
L 342.338963 481.888729 
L 342.445773 482.036659 
L 342.552583 481.848927 
L 342.659394 481.928213 
L 342.873014 481.352244 
L 342.979825 481.322339 
L 343.086635 481.425783 
L 343.193445 481.21634 
L 343.834307 482.486409 
L 343.941118 482.382964 
L 344.154738 482.671481 
L 344.261549 482.700003 
L 344.368359 482.520252 
L 344.68879 482.944992 
L 344.90241 482.70841 
L 345.116031 483.009911 
L 345.222841 482.906253 
L 345.436462 482.663712 
L 345.543272 482.822497 
L 345.650083 482.636361 
L 345.756893 482.708517 
L 346.184134 481.964291 
L 346.397755 481.651403 
L 346.611376 481.972698 
L 346.718186 481.843286 
L 346.824996 482.102962 
L 346.931807 481.915229 
L 347.038617 482.044641 
L 347.145427 481.972485 
L 347.252238 482.094235 
L 347.465858 481.671091 
L 347.679479 481.28658 
L 348.10672 481.270616 
L 348.320341 481.048721 
L 348.427151 481.078627 
L 348.640772 481.589996 
L 348.747582 481.560091 
L 348.854392 481.663748 
L 348.961203 481.515818 
L 349.068013 481.595104 
L 349.281634 481.259655 
L 349.495254 481.545298 
L 349.708875 481.379808 
L 350.029306 481.937685 
L 350.136116 481.808272 
L 350.349737 481.967483 
L 350.563357 481.686949 
L 350.776978 482.119351 
L 350.883788 481.26455 
L 351.097409 481.394281 
L 351.204219 481.582014 
L 351.52465 481.251566 
L 351.845081 481.329043 
L 351.951892 481.280939 
L 352.058702 481.490383 
L 352.165512 481.30265 
L 352.379133 481.485594 
L 352.485943 481.363844 
L 352.592754 481.490489 
L 352.913184 481.115237 
L 353.019995 481.328724 
L 353.126805 481.202079 
L 353.340426 481.403647 
L 353.554046 481.589357 
L 353.874477 481.16068 
L 354.194908 481.541786 
L 354.301719 481.349157 
L 354.72896 481.88692 
L 355.156201 481.10502 
L 355.263012 481.254333 
L 355.476632 481.047231 
L 355.797063 481.414821 
L 355.903873 481.60745 
L 356.010684 481.527631 
L 356.331115 482.023888 
L 356.437925 481.993557 
L 356.544735 482.152343 
L 357.078787 481.401944 
L 357.185597 481.528589 
L 357.292408 481.855312 
L 357.506028 481.63927 
L 357.612839 481.827003 
L 357.719649 481.613516 
L 357.93327 481.929064 
L 358.04008 481.799652 
L 358.2537 482.243974 
L 358.360511 481.99228 
L 358.894562 482.711922 
L 359.108183 482.4465 
L 359.214993 482.408719 
L 359.642235 481.633311 
L 359.749045 481.782624 
L 359.855855 481.702806 
L 360.069476 482.076249 
L 360.283097 482.312299 
L 360.389907 482.124566 
L 360.496717 482.17267 
L 360.710338 481.858292 
L 360.817148 481.888197 
L 361.244389 481.330852 
L 361.3512 481.368633 
L 361.45801 481.582121 
L 361.56482 481.423335 
L 361.778441 482.21226 
L 361.885251 481.171642 
L 362.098872 481.429189 
L 362.205682 481.400667 
L 362.419303 481.79465 
L 362.632924 481.570733 
L 362.846544 481.808805 
L 363.060165 481.495278 
L 363.166975 481.466756 
L 363.487406 481.988023 
L 363.807837 481.688864 
L 364.021458 481.998453 
L 364.128268 481.385448 
L 364.341889 481.824875 
L 364.448699 481.676945 
L 364.87594 482.058689 
L 364.982751 482.106793 
L 365.196371 481.830834 
L 365.409992 482.271964 
L 365.516802 482.136805 
L 365.623613 482.286118 
L 365.730423 482.136805 
L 365.944044 482.449586 
L 366.371285 481.658427 
L 366.691716 481.890113 
L 366.798526 481.860208 
L 367.012147 482.19587 
L 367.225767 481.83126 
L 367.439388 482.040916 
L 367.759819 481.446004 
L 367.866629 481.549448 
L 367.97344 481.390663 
L 368.18706 481.668218 
L 368.293871 481.488041 
L 368.400681 481.672901 
L 368.507491 481.569456 
L 368.614302 481.672901 
L 368.721112 481.593082 
L 368.934732 481.870424 
L 369.041543 481.791138 
L 369.255163 482.185973 
L 369.575594 482.133612 
L 369.789215 482.426492 
L 370.323267 481.629479 
L 370.536887 481.541786 
L 370.643698 481.756018 
L 370.857318 481.700039 
L 371.070939 482.086359 
L 371.49818 481.457817 
L 371.60499 481.537635 
L 371.818611 481.38183 
L 371.925421 481.540615 
L 372.139042 481.387045 
L 372.245852 481.601277 
L 372.352663 481.521991 
L 372.886714 482.191188 
L 372.993525 482.043258 
L 373.100335 482.146702 
L 373.207145 482.066884 
L 373.420766 482.264727 
L 373.527576 482.051239 
L 373.741197 482.051239 
L 373.954818 481.768683 
L 374.061628 481.63927 
L 374.168438 481.891496 
L 374.275248 481.787839 
L 374.488869 482.158835 
L 374.8093 481.493682 
L 374.91611 481.615431 
L 375.022921 481.645762 
L 375.129731 481.520926 
L 375.343352 481.562432 
L 375.450162 481.414502 
L 375.556972 481.67886 
L 375.770593 481.325212 
L 375.877403 481.450048 
L 376.091024 481.962375 
L 376.197834 481.748888 
L 376.304645 481.798801 
L 376.411455 481.669389 
L 376.625076 481.852119 
L 376.731886 481.531782 
L 377.052317 481.946092 
L 377.159127 482.094022 
L 377.372748 481.728241 
L 377.479558 481.65566 
L 377.586368 481.843393 
L 377.906799 481.311483 
L 378.01361 481.263379 
L 378.22723 481.004342 
L 378.334041 481.152272 
L 378.440851 481.017113 
L 378.654472 481.227195 
L 378.761282 481.189414 
L 378.868092 481.318827 
L 379.081713 481.070964 
L 379.188523 482.312937 
L 380.470247 481.019242 
L 380.683868 480.730512 
L 380.790678 480.809798 
L 381.111109 481.415141 
L 381.53835 481.186541 
L 381.645161 481.236454 
L 381.751971 481.109809 
L 382.286023 481.940771 
L 382.499643 481.755805 
L 382.606453 481.569669 
L 382.713264 481.754528 
L 382.820074 481.629692 
L 382.926884 481.817425 
L 383.033695 481.629692 
L 383.140505 481.779006 
L 383.460936 481.420994 
L 383.781367 481.681202 
L 383.888177 481.633098 
L 384.101798 481.259655 
L 384.315419 481.422377 
L 384.422229 481.470481 
L 384.74266 481.285622 
L 384.84947 481.444407 
L 384.956281 481.251779 
L 385.063091 481.503473 
L 385.169901 481.399816 
L 385.276711 481.524651 
L 385.383522 481.310419 
L 385.490332 481.432169 
L 385.597142 481.179943 
L 386.238004 481.939707 
L 386.451625 482.384561 
L 386.558435 480.99934 
L 386.985677 481.584143 
L 387.092487 481.835836 
L 387.199297 481.732179 
L 387.306108 481.857015 
L 387.412918 481.629373 
L 387.519728 481.679286 
L 387.626539 481.465054 
L 387.840159 481.80359 
L 388.16059 481.183667 
L 388.2674 481.255823 
L 388.374211 481.176537 
L 388.694642 481.706318 
L 389.121883 482.010479 
L 389.228693 481.885643 
L 389.335504 482.044428 
L 389.549124 481.658108 
L 389.762745 481.245607 
L 389.869555 482.138295 
L 389.976366 481.910653 
L 390.083176 482.014097 
L 390.189986 481.821469 
L 390.403607 481.995047 
L 390.510417 482.208535 
L 390.724038 481.768683 
L 390.830848 481.988023 
L 390.937658 481.77858 
L 391.258089 482.326347 
L 391.57852 481.829557 
L 391.685331 481.641825 
L 391.792141 481.822001 
L 392.005762 481.587974 
L 392.112572 481.461329 
L 392.326193 482.13606 
L 392.433003 482.320919 
L 392.646624 481.998879 
L 392.753434 482.078165 
L 392.860244 482.329859 
L 392.967055 482.120415 
L 393.073865 482.168519 
L 393.287485 481.99377 
L 393.394296 481.965248 
L 393.501106 482.091894 
L 393.607916 481.904161 
L 394.035158 482.595813 
L 394.248778 482.333583 
L 394.462399 482.492901 
L 394.569209 482.278668 
L 394.78283 482.656794 
L 394.88964 482.508864 
L 394.996451 482.689041 
L 395.210071 482.290694 
L 395.316882 482.475554 
L 395.530502 482.199595 
L 395.637313 482.229926 
L 395.744123 482.444158 
L 395.850933 482.263982 
L 396.064554 482.417339 
L 396.171364 482.207896 
L 396.278174 482.329646 
L 396.384985 482.115413 
L 396.812226 482.399247 
L 397.025847 482.021121 
L 397.132657 482.200872 
L 397.239467 482.121586 
L 397.453088 482.296335 
L 397.773519 482.189378 
L 398.20076 481.50475 
L 398.414381 481.719195 
L 398.628001 482.147979 
L 398.841622 481.841051 
L 399.162053 482.126056 
L 399.268863 481.912568 
L 399.375674 482.071354 
L 399.482484 481.949604 
L 399.696105 481.978977 
L 400.230156 481.41397 
L 400.443777 481.859782 
L 400.550587 481.673646 
L 400.764208 481.99079 
L 400.871018 482.020696 
L 401.191449 482.377324 
L 401.40507 482.226095 
L 401.51188 482.188314 
L 401.832311 481.767405 
L 402.045932 482.199276 
L 402.152742 482.006648 
L 402.366363 482.024846 
L 403.007225 481.46814 
L 403.114035 481.594785 
L 403.220845 481.330427 
L 403.648087 481.892454 
L 403.754897 481.862123 
L 403.861707 481.71281 
L 403.968517 481.834559 
L 404.502569 481.444514 
L 404.823 481.927042 
L 405.143431 481.492085 
L 405.570672 482.196722 
L 405.677483 482.071886 
L 405.891103 482.465869 
L 405.997914 482.251637 
L 406.104724 482.444265 
L 406.318345 482.266749 
L 406.531965 481.846479 
L 406.638775 482.060711 
L 406.959206 481.646188 
L 407.066017 481.617666 
L 407.386448 481.185051 
L 407.493258 482.19885 
L 407.813689 481.748036 
L 407.920499 481.962269 
L 408.02731 481.814339 
L 408.24093 481.933747 
L 408.347741 481.885643 
L 408.454551 481.6762 
L 408.561361 481.756018 
L 408.881792 481.408542 
L 408.988603 481.438448 
L 409.095413 481.651935 
L 409.522654 481.126305 
L 409.736275 481.385767 
L 409.949895 481.186541 
L 410.270326 481.018284 
L 410.697568 481.77262 
L 411.124809 481.435787 
L 411.33843 481.830089 
L 411.44524 481.642357 
L 411.55205 481.690461 
L 411.658861 481.504324 
L 411.872481 481.951733 
L 412.192912 481.738245 
L 412.406533 482.055709 
L 412.513343 482.025804 
L 412.620153 481.845627 
L 412.833774 482.039533 
L 412.940584 481.917783 
L 413.154205 481.336706 
L 413.261015 482.047195 
L 413.474636 481.820937 
L 413.901877 482.194912 
L 414.115498 481.900862 
L 414.542739 482.504714 
L 414.649549 482.378069 
L 414.75636 482.118393 
L 414.86317 482.267707 
L 415.076791 482.007818 
L 415.183601 481.872659 
L 415.290411 481.511242 
L 415.504032 481.685991 
L 415.610842 481.499854 
L 415.824463 481.812742 
L 415.931273 481.686097 
L 416.038084 481.937791 
L 416.144894 481.887878 
L 416.358515 481.564028 
L 416.892566 481.111618 
L 417.319807 481.816893 
L 417.640238 481.269446 
L 417.747049 481.394281 
L 417.960669 481.135244 
L 418.387911 480.75499 
L 418.494721 480.784895 
L 418.815152 481.292433 
L 418.921962 481.107574 
L 419.135583 481.375125 
L 419.242393 481.123431 
L 419.456014 481.350647 
L 419.669635 481.721643 
L 419.883255 481.604576 
L 419.990065 481.818063 
L 420.203686 481.574245 
L 420.417307 481.891177 
L 420.524117 482.070928 
L 421.164979 481.278705 
L 421.271789 482.105197 
L 421.3786 481.890964 
L 421.48541 482.040278 
L 421.805841 481.923956 
L 422.233082 482.16671 
L 422.339893 481.957267 
L 422.446703 482.036553 
L 422.660323 481.855844 
L 422.873944 481.390663 
L 423.087565 482.031019 
L 423.301185 482.188953 
L 423.407996 482.313788 
L 423.514806 482.127652 
L 423.835237 482.6867 
L 424.048858 482.305594 
L 424.155668 482.427343 
L 424.262478 482.562502 
L 424.582909 482.299421 
L 424.68972 482.551115 
L 424.90334 482.301869 
L 425.116961 482.16969 
L 425.223771 481.917996 
L 425.437392 482.077313 
L 425.651012 481.795714 
L 425.971443 481.757934 
L 426.078254 481.942793 
L 426.185064 481.763042 
L 426.719116 482.447564 
L 426.825926 482.312405 
L 426.932736 482.416062 
L 427.466788 481.815509 
L 427.573598 481.786988 
L 427.680409 481.890645 
L 428.000839 481.58957 
L 428.428081 482.150001 
L 428.534891 481.991216 
L 428.748512 482.26047 
L 428.855322 482.364127 
L 428.962132 482.184376 
L 429.068943 481.199525 
L 429.175753 481.347455 
L 429.389374 481.197609 
L 429.496184 481.385342 
L 429.602994 481.1577 
L 429.816615 481.252205 
L 429.923425 481.302118 
L 430.350667 480.661336 
L 430.564287 480.911008 
L 430.671097 480.752223 
L 430.884718 481.101614 
L 431.098339 480.923779 
L 431.205149 481.103956 
L 431.311959 480.977311 
L 431.41877 481.157061 
L 431.52558 481.053617 
L 431.846011 481.649913 
L 432.273252 480.88685 
L 432.380063 480.959006 
L 432.486873 481.151634 
L 432.593683 481.072348 
L 432.700494 481.252524 
L 432.807304 481.202611 
L 433.020925 481.593614 
L 433.127735 481.329256 
L 433.341356 481.5122 
L 433.448166 481.252524 
L 433.982217 482.04528 
L 434.089028 482.075185 
L 434.302648 481.56041 
L 434.409459 481.709723 
L 434.516269 481.561793 
L 434.8367 482.010585 
L 435.050321 481.193139 
L 435.157131 481.068303 
L 435.263941 481.24848 
L 435.691183 480.70529 
L 435.797993 480.755203 
L 435.904803 480.628558 
L 436.011614 480.880251 
L 436.118424 480.830338 
L 436.225234 481.044571 
L 436.438855 482.369661 
L 436.545665 481.01424 
L 436.866096 481.312228 
L 437.079717 482.256532 
L 437.186527 482.121373 
L 437.293337 482.269303 
L 437.506958 481.861698 
L 437.613768 482.009627 
L 437.720579 481.800184 
L 437.934199 481.851694 
L 438.14782 481.647039 
L 438.468251 481.986853 
L 438.681872 481.529866 
L 438.788682 481.567647 
L 438.895492 481.726432 
L 439.002302 481.49879 
L 439.109113 481.548703 
L 439.536354 480.963156 
L 439.643164 481.111086 
L 439.749975 482.272815 
L 439.856785 482.169158 
L 440.070406 482.357848 
L 440.177216 482.437666 
L 440.284026 482.689892 
L 440.390837 482.437666 
L 440.497647 482.541324 
L 440.711268 482.160963 
L 440.924888 482.323686 
L 441.031699 482.2444 
L 441.45894 482.575912 
L 441.56575 482.391053 
L 441.779371 482.79653 
L 441.992991 482.565376 
L 442.206612 482.790889 
L 442.313422 482.603156 
L 442.527043 482.760133 
L 442.633853 480.623769 
L 442.740664 480.843109 
L 442.847474 482.540792 
L 442.954284 482.331348 
L 443.167905 482.529192 
L 443.274715 482.479278 
L 443.381526 482.604114 
L 443.808767 481.693121 
L 444.129198 482.235354 
L 444.342818 481.819979 
L 444.449629 482.047621 
L 444.77006 481.721962 
L 444.98368 482.023888 
L 445.090491 481.360013 
L 445.197301 481.539764 
L 445.304111 481.275405 
L 445.517732 481.658214 
L 445.731353 481.987704 
L 445.944973 481.672049 
L 446.051784 481.793799 
L 446.158594 481.721643 
L 446.372215 482.098173 
L 446.585835 481.661087 
L 446.692646 481.819873 
L 446.906266 481.380446 
L 447.119887 482.191188 
L 447.226697 481.971847 
L 447.333507 482.191188 
L 447.440318 481.963546 
L 447.653938 482.186718 
L 447.867559 482.494816 
L 447.974369 480.889085 
L 448.08118 481.076817 
L 448.2948 481.02733 
L 448.401611 481.176643 
L 448.508421 480.984015 
L 448.722042 481.214318 
L 448.935662 480.956771 
L 449.042473 480.994551 
L 449.149283 480.808415 
L 449.256093 480.858328 
L 449.469714 480.643138 
L 449.576524 480.722424 
L 449.683334 480.597588 
L 449.896955 480.94698 
L 450.003765 480.811821 
L 450.217386 482.609861 
L 450.324196 482.659774 
L 450.431007 482.912 
L 450.644627 482.535471 
L 450.751438 482.684784 
L 450.858248 480.699117 
L 451.071869 482.788441 
L 451.285489 482.670842 
L 451.49911 482.417872 
L 451.712731 482.857298 
L 451.926351 482.575273 
L 452.033162 482.427343 
L 452.353592 482.670949 
L 452.567213 482.488218 
L 452.674023 482.636148 
L 452.780834 482.477363 
L 452.887644 482.58102 
L 452.994454 482.388392 
L 453.314885 482.712454 
L 453.421696 482.682549 
L 453.635316 480.449658 
L 453.742127 480.714017 
L 453.955747 480.44157 
L 454.062558 480.626429 
L 454.169368 480.467644 
L 454.276178 480.515748 
L 454.382989 480.436462 
L 454.596609 480.820973 
L 454.81023 481.165895 
L 455.130661 480.691455 
L 455.344281 480.889298 
L 455.451092 481.153656 
L 455.557902 480.89398 
L 455.878333 481.287006 
L 455.985143 481.160361 
L 456.091954 482.223541 
L 456.198764 482.096895 
L 456.305574 482.283032 
L 456.519195 481.950988 
L 456.626005 482.030806 
L 456.946436 481.592018 
L 457.053247 481.713768 
L 457.160057 481.665664 
L 457.266867 481.477931 
L 457.480488 481.833601 
L 457.800919 481.801887 
L 457.907729 481.931299 
L 458.655401 481.163553 
L 458.762212 481.192075 
L 458.975832 480.913349 
L 459.189453 481.186115 
L 459.403074 481.112363 
L 459.509884 481.376721 
L 459.723505 481.021051 
L 459.937125 481.337983 
L 460.043936 481.190053 
L 460.257556 481.533697 
L 460.364366 481.348838 
L 460.471177 481.475483 
L 460.791608 481.217191 
L 460.898418 481.289347 
L 461.112039 481.736755 
L 461.325659 481.505814 
L 461.53928 481.665557 
L 461.752901 481.714513 
L 461.859711 481.52678 
L 462.180142 482.021653 
L 462.393763 481.8518 
L 462.714194 481.406201 
L 462.821004 481.598829 
L 463.141435 481.883195 
L 463.248245 481.631501 
L 463.675486 482.048898 
L 463.889107 481.625755 
L 463.995917 481.587974 
L 464.102728 481.400241 
L 464.209538 481.438022 
L 464.316348 481.251886 
L 464.529969 481.701103 
L 464.636779 481.731434 
L 464.74359 481.983128 
L 464.8504 481.768895 
L 464.95721 481.983128 
L 465.277641 481.480272 
L 465.491262 481.430359 
L 465.598072 481.953542 
L 465.704882 481.818383 
L 465.811693 481.921827 
L 465.918503 481.694185 
L 466.025313 481.921827 
L 466.345744 481.694185 
L 466.666175 481.309142 
L 466.772986 481.518585 
L 466.986606 481.261038 
L 467.307037 481.547213 
L 467.413848 481.467395 
L 467.520658 481.652254 
L 467.841089 481.41248 
L 468.16152 481.731966 
L 468.37514 481.798269 
L 468.588761 481.46218 
L 468.802382 481.549235 
L 469.016002 481.082777 
L 469.122813 481.275405 
L 469.763675 480.916755 
L 470.084106 481.106191 
L 470.190916 480.918458 
L 470.297726 481.1461 
L 470.511347 480.857796 
L 470.618157 480.638455 
L 471.152209 481.019455 
L 471.259019 480.767761 
L 471.47264 481.152272 
L 471.68626 480.898024 
L 471.793071 480.97018 
L 472.113502 480.503935 
L 472.220312 480.400277 
L 472.647553 480.76659 
L 472.861174 480.614616 
L 472.967984 480.828103 
L 473.074795 480.77819 
L 473.181605 480.518515 
L 473.715656 481.505389 
L 474.036087 481.058619 
L 474.249708 481.318507 
L 474.356518 481.215063 
L 474.463329 481.294349 
L 474.676949 482.349228 
L 474.78376 482.470977 
L 474.89057 482.251637 
L 474.99738 482.355294 
L 475.424622 482.124459 
L 475.638242 482.234609 
L 475.745053 481.149292 
L 475.851863 481.197396 
L 475.958673 481.227727 
L 476.065484 481.420355 
L 476.172294 481.3482 
L 476.599535 481.923104 
L 476.813156 481.645762 
L 477.026776 482.032189 
L 477.347207 481.47676 
L 477.560828 481.565625 
L 477.667638 481.40684 
L 477.988069 481.63927 
L 478.09488 481.425038 
L 478.3085 481.866912 
L 478.415311 481.836581 
L 478.522121 481.97174 
L 478.628931 481.785604 
L 478.735742 481.833708 
L 478.842552 481.708872 
L 479.056172 482.002923 
L 479.269793 481.733669 
L 479.590224 481.851694 
L 479.803845 481.494427 
L 479.910655 481.722069 
L 480.017465 481.512625 
L 480.124276 481.661939 
L 480.231086 481.589783 
L 480.337896 481.799226 
L 480.444707 481.695782 
L 480.765138 482.254191 
L 481.085569 481.936088 
L 481.299189 482.111901 
L 481.61962 481.311909 
L 481.72643 481.441321 
L 481.940051 481.689184 
L 482.046861 481.475696 
L 482.260482 481.587229 
L 482.580913 481.178453 
L 482.901344 481.486764 
L 483.221775 480.993913 
L 483.328585 481.181645 
L 483.435396 480.962305 
L 483.542206 481.063727 
L 483.755827 480.87642 
L 484.076258 481.458668 
L 484.183068 481.37885 
L 484.289878 481.630544 
L 484.717119 480.875462 
L 484.82393 481.061599 
L 485.144361 480.775956 
L 485.464792 480.928355 
L 485.678412 480.706886 
L 485.785223 480.779042 
L 485.892033 480.598865 
L 485.998843 482.785036 
L 486.212464 482.450863 
L 486.319274 482.635722 
L 486.639705 482.074866 
L 486.746516 481.855525 
L 486.960136 482.051559 
L 487.173757 481.5851 
L 487.387377 481.635865 
L 487.707808 481.414608 
L 488.13505 481.885111 
L 488.34867 481.63214 
L 488.455481 481.662471 
L 488.669101 481.948859 
L 488.775912 481.998772 
L 489.096343 481.76815 
L 489.203153 481.798056 
L 489.523584 482.496732 
L 489.630394 482.277391 
L 489.844015 482.482471 
L 490.057635 482.164581 
L 490.271256 482.397438 
L 490.378066 482.183951 
L 490.484877 482.3057 
L 490.912118 481.630224 
L 491.232549 482.1533 
L 491.44617 481.681734 
L 491.55298 481.783156 
L 491.65979 481.635226 
L 491.980221 482.162347 
L 492.087032 482.200127 
L 492.300652 482.482258 
L 492.407463 482.402972 
L 492.514273 482.532384 
L 492.727893 482.267813 
L 492.834704 482.447564 
L 493.048324 482.188208 
L 493.155135 482.291652 
L 493.261945 482.132867 
L 493.689186 482.433942 
L 494.116428 481.852119 
L 494.330048 482.188208 
L 494.543669 481.936195 
L 494.650479 481.832537 
L 494.75729 481.967696 
L 494.97091 481.230069 
L 495.077721 481.489744 
L 495.184531 481.451963 
L 495.398151 481.637036 
L 495.504962 481.444407 
L 495.718582 481.617986 
L 495.825393 481.35831 
L 495.932203 482.025591 
L 496.039013 481.832963 
L 496.145824 481.905119 
L 496.359444 481.472716 
L 496.466255 481.576374 
L 496.573065 481.42706 
L 496.679875 481.641293 
L 497.107117 481.173876 
L 497.427548 481.633524 
L 497.641168 481.183029 
L 497.747979 481.40237 
L 497.854789 481.272958 
L 498.068409 481.556579 
L 498.28203 481.123006 
L 498.602461 481.756018 
L 498.922892 481.215382 
L 499.029702 481.40801 
L 499.350133 481.467289 
L 499.563754 481.882663 
L 499.670564 481.501238 
L 499.777375 481.688971 
L 499.990995 481.342985 
L 500.204616 481.770705 
L 500.418237 481.377466 
L 500.631857 481.583398 
L 500.738667 481.373954 
L 501.272719 482.395522 
L 501.48634 482.144148 
L 501.59315 482.395842 
L 501.69996 482.210982 
L 501.806771 482.390733 
L 501.913581 482.24142 
L 502.020391 482.370832 
L 502.234012 482.136379 
L 502.340822 482.284309 
L 502.554443 481.069261 
L 502.661253 481.217191 
L 502.874874 480.965604 
L 502.981684 481.179836 
L 503.088495 480.994977 
L 503.515736 481.333194 
L 503.622546 481.118961 
L 503.729356 481.243797 
L 504.049787 480.892916 
L 504.156598 481.102359 
L 504.263408 480.975714 
L 505.545132 482.567824 
L 505.758753 480.563852 
L 505.865563 480.515748 
L 506.079183 481.039782 
L 506.185994 480.890468 
L 506.506425 481.349583 
L 506.826856 481.773897 
L 506.933666 481.610004 
L 507.147287 481.869041 
L 507.360907 481.530505 
L 507.467718 481.65715 
L 507.894959 481.22081 
L 508.21539 481.75506 
L 508.3222 481.71728 
L 508.642631 482.001646 
L 508.856252 481.95269 
L 509.069872 481.383107 
L 509.176683 481.303821 
L 509.283493 481.496449 
L 509.390303 481.236773 
L 509.497114 481.316059 
L 509.710734 481.693015 
L 510.031165 481.139501 
L 510.244786 481.475164 
L 510.351596 481.327234 
L 510.458407 481.448984 
L 510.672027 481.134606 
L 510.778838 481.320742 
L 510.885648 481.241456 
L 510.992458 481.493682 
L 511.099269 481.280194 
L 511.419699 481.710043 
L 511.52651 481.630757 
L 511.63332 481.844989 
L 511.74013 481.585313 
L 511.846941 481.798588 
L 512.060561 481.401412 
L 512.167372 481.526248 
L 512.274182 481.476335 
L 512.594613 482.418936 
L 512.701423 482.369023 
L 512.808234 481.014878 
L 512.915044 481.14429 
L 513.128665 480.940168 
L 513.235475 481.132797 
L 513.449096 480.922715 
L 513.662716 481.032651 
L 513.876337 480.794048 
L 514.410388 481.540615 
L 514.517199 481.288389 
L 514.83763 481.527312 
L 515.05125 481.914697 
L 515.264871 481.50922 
L 515.585302 481.684501 
L 515.798923 481.526673 
L 516.012543 481.524864 
L 516.119354 481.332236 
L 516.439785 481.746227 
L 516.653405 482.052942 
L 516.760215 482.004838 
L 517.080646 482.497264 
L 517.507888 482.245996 
L 517.721508 481.939281 
L 517.935129 482.252062 
L 518.041939 482.125417 
L 518.25556 482.311128 
L 518.36237 482.361041 
L 519.003232 481.466863 
L 519.110043 481.546681 
L 519.216853 481.358949 
L 519.323663 481.506878 
L 519.430473 481.403434 
L 519.537284 481.583185 
L 519.750904 481.453453 
L 519.857715 481.201228 
L 520.178146 481.796779 
L 520.391766 481.384278 
L 520.498577 481.464096 
L 520.819008 481.96908 
L 521.246249 481.687906 
L 521.353059 481.717812 
L 521.45987 481.503579 
L 521.67349 481.839561 
L 521.780301 481.889474 
L 521.887111 481.494427 
L 522.100731 481.582121 
L 522.207542 481.76698 
L 522.314352 481.587229 
L 522.421162 481.736542 
L 522.527973 481.688439 
L 522.634783 481.791883 
L 522.741593 481.64257 
L 523.062024 481.862123 
L 523.168835 481.758466 
L 523.382455 481.965568 
L 523.596076 481.751123 
L 523.809697 482.132548 
L 523.916507 481.913207 
L 524.130128 482.169371 
L 524.450559 481.687587 
L 524.770989 481.163128 
L 524.8778 482.220774 
L 524.98461 482.001433 
L 525.198231 482.413721 
L 525.305041 482.264408 
L 525.518662 482.372748 
L 525.732282 482.778225 
L 525.839093 482.585596 
L 526.052713 482.593046 
L 526.266334 482.226733 
L 526.373144 482.348483 
L 527.120817 481.417801 
L 527.334437 481.817425 
L 527.441247 481.566476 
L 527.761678 482.086679 
L 527.868489 481.898946 
L 528.082109 482.158302 
L 528.616161 481.635971 
L 528.722971 481.666302 
L 528.829782 481.930661 
L 529.257023 481.621285 
L 529.470644 481.956735 
L 529.791075 481.592976 
L 529.897885 481.672262 
L 530.111505 481.450899 
L 530.431936 481.337983 
L 530.538747 481.124496 
L 530.645557 481.174409 
L 530.859178 481.403753 
L 531.072798 481.022328 
L 531.286419 480.710824 
L 531.60685 480.887914 
L 531.71366 481.017326 
L 531.820471 480.807883 
L 532.140902 481.416843 
L 532.461333 480.974969 
L 532.674953 481.33032 
L 532.781763 481.300415 
L 532.888574 481.425251 
L 533.209005 480.984122 
L 533.315815 480.804371 
L 533.422625 481.023712 
L 533.529436 480.973799 
L 533.743056 481.211231 
L 533.956677 481.394494 
L 534.170298 480.96571 
L 534.383918 481.364802 
L 534.490729 481.285516 
L 534.704349 481.524119 
L 534.81116 481.733562 
L 535.558832 481.109703 
L 535.665642 481.361396 
L 535.772452 481.313292 
L 536.092883 481.586378 
L 536.199694 481.322019 
L 536.520125 481.681734 
L 536.626935 481.729838 
L 536.733745 481.654063 
L 536.840556 481.426422 
L 536.947366 481.585207 
L 537.054176 481.481762 
L 537.374607 482.107964 
L 537.588228 481.660555 
L 537.695038 481.782305 
L 537.801849 481.62352 
L 538.22909 482.046663 
L 538.3359 481.89735 
L 538.44271 482.149043 
L 538.656331 481.754741 
L 538.869952 482.194167 
L 539.510814 482.099663 
L 539.617624 482.179481 
L 539.724434 481.927787 
L 539.938055 482.26196 
L 540.258486 481.603618 
L 540.365296 481.791351 
L 540.472107 481.539125 
L 540.792537 482.074014 
L 540.899348 481.889155 
L 541.006158 482.013991 
L 541.219779 481.86191 
L 541.54021 482.079229 
L 541.860641 481.613729 
L 542.287882 482.145957 
L 542.394692 482.398183 
L 542.608313 481.990577 
L 542.715123 482.038681 
L 542.821934 482.223541 
L 542.928744 482.098705 
L 543.142365 482.590705 
L 543.462795 482.047621 
L 544.210468 481.380872 
L 544.317278 481.482294 
L 544.530899 481.363312 
L 544.637709 481.291156 
L 544.744519 481.550832 
L 544.85133 481.291156 
L 545.06495 481.553599 
L 545.171761 481.449941 
L 545.278571 481.522097 
L 545.385381 481.73154 
L 545.599002 481.533804 
L 545.812623 481.324361 
L 545.919433 481.510497 
L 546.239864 481.083629 
L 546.560295 481.572968 
L 546.773915 481.359587 
L 546.880726 482.024314 
L 546.987536 481.875001 
L 547.201157 482.253127 
L 547.307967 482.025485 
L 547.414777 482.063265 
L 547.521588 482.314959 
L 547.842019 481.866274 
L 547.948829 482.125949 
L 548.055639 481.999304 
L 548.16245 482.187037 
L 548.589691 481.47825 
L 548.696501 481.579673 
L 549.016932 481.097889 
L 549.337363 481.463883 
L 549.550984 481.238476 
L 549.764604 481.487722 
L 549.978225 481.8021 
L 550.512277 481.235815 
L 550.725897 481.385235 
L 550.832708 481.281791 
L 550.939518 482.10211 
L 551.153139 481.662684 
L 551.259949 481.721217 
L 551.366759 481.541466 
L 551.58038 481.812529 
L 551.68719 482.076888 
L 552.007621 481.533272 
L 552.221242 481.363418 
L 552.434862 481.148441 
L 552.541673 481.357884 
L 552.755293 480.888765 
L 552.862104 481.036695 
L 552.968914 482.347206 
L 553.075724 482.09498 
L 553.289345 482.28399 
L 553.396155 482.180545 
L 553.502966 482.281968 
L 553.609776 482.146809 
L 553.716586 482.398502 
L 553.930207 482.081358 
L 554.250638 482.219071 
L 554.464258 482.349334 
L 554.677879 482.168413 
L 554.8915 482.570484 
L 554.99831 482.31879 
L 555.10512 482.453949 
L 555.425551 482.199914 
L 555.745982 481.568073 
L 555.959603 481.885004 
L 556.066413 481.726219 
L 556.280034 481.844244 
L 556.493655 481.802206 
L 556.600465 481.542531 
L 557.027706 482.394139 
L 557.134516 482.179907 
L 557.348137 482.339011 
L 557.454947 482.212366 
L 557.561758 481.171535 
L 557.775378 481.321806 
L 557.882189 481.393962 
L 557.988999 481.207826 
L 558.095809 481.342985 
L 558.20262 481.270829 
L 558.41624 481.37289 
L 558.629861 481.422377 
L 558.843482 481.653212 
L 558.950292 481.528376 
L 559.057102 481.67769 
L 559.163913 481.551045 
L 559.377533 481.891177 
L 559.591154 482.188633 
L 559.697964 482.108815 
L 559.804774 481.849139 
L 560.232016 482.184483 
L 560.338826 481.932789 
L 560.445636 482.142232 
L 560.659257 481.933534 
L 560.766067 482.118393 
L 561.51374 481.034248 
L 561.834171 480.728384 
L 562.047791 481.112895 
L 562.154602 481.062982 
L 562.368222 481.222087 
L 562.475032 481.072773 
L 562.688653 481.365653 
L 562.902274 481.535507 
L 563.222705 481.280088 
L 563.329515 481.099911 
L 563.970377 482.220561 
L 564.077187 482.095725 
L 564.183998 482.245038 
L 564.290808 482.118393 
L 564.504429 482.142445 
L 564.718049 481.812955 
L 565.252101 482.148298 
L 565.358911 482.367639 
L 565.999773 481.434829 
L 566.106583 481.561474 
L 566.213394 481.457817 
L 566.320204 481.66726 
L 566.747445 481.141417 
L 566.961066 481.317869 
L 567.281497 480.810118 
L 567.388307 481.061812 
L 567.495118 480.960389 
L 567.815548 481.468566 
L 567.922359 481.21634 
L 568.029169 481.264444 
L 568.135979 481.51667 
L 568.24279 481.307226 
L 568.45641 481.590847 
L 568.670031 481.329256 
L 568.776841 481.47857 
L 568.883652 481.375125 
L 568.990462 481.634801 
L 569.204083 481.392047 
L 569.310893 481.619688 
L 569.417703 481.360013 
L 569.631324 481.725794 
L 569.738134 481.695463 
L 569.844945 481.914803 
L 569.951755 481.842648 
L 570.058565 481.914803 
L 570.272186 481.398219 
L 570.378996 481.446323 
L 570.592617 481.268807 
L 570.806237 481.268807 
L 570.913048 481.448558 
L 571.126668 481.352244 
L 571.233479 481.473993 
L 571.447099 481.10055 
L 571.55391 481.204207 
L 571.66072 481.174302 
L 571.76753 481.433978 
L 571.874341 481.174302 
L 571.981151 481.212083 
L 572.194772 481.681202 
L 572.408392 481.52976 
L 572.622013 481.969186 
L 572.942444 481.997708 
L 573.049254 481.872872 
L 573.476495 482.511419 
L 573.690116 482.114243 
L 573.903737 482.376579 
L 574.117357 482.226733 
L 574.330978 482.047515 
L 574.544599 482.441817 
L 574.651409 482.293887 
L 574.758219 482.443201 
L 574.86503 482.341778 
L 574.97184 482.466614 
L 575.185461 482.190868 
L 575.292271 482.238972 
L 575.399081 482.50333 
L 575.612702 482.317194 
L 575.719512 482.504927 
L 575.933133 482.163836 
L 576.039943 482.133505 
L 576.146753 482.255255 
L 576.253564 482.041023 
L 576.573995 482.513547 
L 576.680805 482.261853 
L 577.001236 482.681804 
L 577.214857 482.372215 
L 577.535288 482.06699 
L 577.642098 481.316911 
L 577.748908 481.354692 
L 577.855719 481.251247 
L 577.962529 481.515605 
L 578.069339 481.25593 
L 578.28296 481.380766 
L 578.38977 482.003136 
L 578.817011 481.413757 
L 578.923822 481.665451 
L 579.137442 481.389492 
L 579.244253 481.419398 
L 579.351063 481.638738 
L 579.564684 481.455475 
L 579.671494 481.270616 
L 579.778304 481.48006 
L 579.885115 481.266572 
L 580.098735 481.364589 
L 580.312356 480.89547 
L 580.525977 481.122686 
L 580.632787 480.93655 
L 580.739597 481.121409 
L 580.846408 481.041591 
L 581.060028 481.565625 
L 581.166838 481.346284 
L 581.273649 481.41844 
L 581.487269 481.781241 
L 581.70089 481.652041 
L 581.914511 481.958437 
L 582.128131 481.645975 
L 582.662183 482.228862 
L 583.303045 481.602873 
L 583.516666 481.622881 
L 583.623476 481.430253 
L 584.157527 482.024101 
L 584.264338 481.876171 
L 584.371148 482.056348 
L 584.584769 481.733562 
L 584.691579 481.943006 
L 584.798389 481.69078 
L 585.01201 481.794437 
L 585.11882 481.584994 
L 585.332441 481.902458 
L 585.439251 481.688971 
L 585.546062 481.737075 
L 585.652872 481.556898 
L 585.973303 482.022398 
L 586.080113 481.808166 
L 586.293734 482.051984 
L 586.507354 481.795927 
L 586.614165 481.922572 
L 586.720975 481.713129 
L 586.934596 481.82232 
L 587.041406 481.78454 
L 587.148216 481.571052 
L 587.255027 481.608833 
L 587.468647 481.416205 
L 587.682268 481.261464 
L 587.895889 481.444727 
L 588.002699 481.372571 
L 588.109509 481.558707 
L 588.21632 481.331065 
L 588.42994 481.724836 
L 588.643561 481.649913 
L 588.857182 481.515925 
L 589.177612 481.18686 
L 589.284423 481.288283 
L 589.391233 481.208464 
L 589.498043 481.28062 
L 589.925285 480.921544 
L 590.032095 481.130987 
L 590.138905 481.004342 
L 590.352526 481.340324 
L 590.566147 481.054043 
L 590.672957 481.016262 
L 590.779767 480.751904 
L 590.886578 480.910689 
L 590.993388 480.788939 
L 591.100198 480.918351 
L 591.207009 480.658676 
L 591.52744 480.896109 
L 591.63425 480.81629 
L 591.954681 481.454624 
L 592.168301 481.304353 
L 592.595543 481.392366 
L 592.702353 481.31308 
L 592.809163 481.060854 
L 593.022784 481.335429 
L 593.236405 480.935805 
L 593.450025 481.341921 
L 593.663646 481.162383 
L 593.877267 481.419291 
L 594.197698 481.067878 
L 594.304508 481.037972 
L 594.411318 481.196758 
L 594.518128 481.017007 
L 594.624939 482.366894 
L 594.838559 482.109773 
L 595.05218 482.432771 
L 595.586232 481.428763 
L 595.693042 481.457285 
L 595.799852 481.272425 
L 595.906663 481.485913 
L 596.120283 481.22645 
L 596.440714 481.777303 
L 596.547525 481.597552 
L 596.867956 481.941197 
L 597.188386 481.274128 
L 597.402007 481.71398 
L 597.615628 481.664493 
L 597.722438 481.714406 
L 597.936059 482.152236 
L 598.149679 481.882982 
L 598.25649 482.007818 
L 598.3633 481.756124 
L 598.47011 481.877874 
L 598.576921 481.753038 
L 598.683731 481.879683 
L 598.790541 481.778261 
L 599.004162 482.153833 
L 599.110972 481.973656 
L 599.324593 482.282819 
L 599.431403 482.252488 
L 599.538214 482.35391 
L 599.858644 481.89586 
L 599.965455 481.975678 
L 600.179075 482.364872 
L 600.713127 481.929383 
L 600.819937 482.056029 
L 601.033558 481.814019 
L 601.140368 481.69227 
L 601.56761 482.290588 
L 601.888041 481.742928 
L 601.994851 481.864677 
L 602.101661 481.519224 
L 602.208472 481.711852 
L 602.422092 481.452389 
L 602.528903 481.680031 
L 602.742523 481.273915 
L 602.956144 482.324218 
L 603.169764 482.294313 
L 603.383385 482.532916 
L 603.810626 482.123927 
L 603.917437 482.154258 
L 604.131057 481.940771 
L 604.237868 481.837326 
L 604.344678 481.546575 
L 604.558299 481.656192 
L 604.87873 481.188031 
L 604.98554 481.158126 
L 605.09235 481.409819 
L 605.199161 481.308397 
L 605.412781 481.622775 
L 605.733212 481.213786 
L 605.946833 481.518798 
L 606.053643 481.518798 
L 606.267264 481.175899 
L 606.480884 481.566902 
L 606.801315 481.861698 
L 607.014936 482.041342 
L 607.121746 481.993238 
L 607.335367 481.620433 
L 607.548988 482.065287 
L 607.762608 481.61607 
L 607.869419 481.767831 
L 608.083039 481.360226 
L 608.189849 481.579566 
L 608.51028 481.105446 
L 609.044332 481.870956 
L 609.364763 481.381191 
L 609.792004 481.542211 
L 610.005625 481.27466 
L 610.219246 481.324573 
L 610.326056 481.144823 
L 610.432866 481.354266 
L 610.753297 481.026479 
L 611.073728 481.033928 
L 611.394159 481.424187 
L 611.60778 481.198993 
L 611.71459 481.278279 
L 611.928211 480.973692 
L 612.141831 481.095442 
L 612.248642 481.016155 
L 612.462262 481.331065 
L 612.675883 481.359587 
L 612.782693 481.099911 
L 613.103124 481.386087 
L 613.316745 481.105552 
L 613.530365 481.55296 
L 613.637176 481.55296 
L 613.850796 481.315315 
L 614.278038 481.416737 
L 614.384848 481.630224 
L 614.491658 481.480911 
L 614.9189 482.058902 
L 615.13252 481.646614 
L 615.239331 481.794544 
L 615.346141 481.659385 
L 615.452951 481.709298 
L 615.773382 481.285729 
L 615.880193 481.316059 
L 616.093813 481.058512 
L 616.307434 480.729448 
L 616.414244 480.854284 
L 616.627865 481.04042 
L 616.841485 480.663358 
L 616.948296 480.663358 
L 617.589158 481.6265 
L 617.802778 481.811359 
L 618.016399 482.012927 
L 618.23002 481.847437 
L 618.44364 482.121586 
L 618.657261 481.890645 
L 618.870881 482.078378 
L 619.084502 481.736436 
L 619.298123 482.193422 
L 619.511743 481.928745 
L 619.618554 482.113604 
L 619.938985 481.902245 
L 620.045795 481.902245 
L 620.366226 481.539125 
L 620.579847 481.866806 
L 620.793467 481.866806 
L 620.900278 481.991642 
L 621.007088 481.888197 
L 621.113898 481.967483 
L 621.327519 481.565944 
L 621.434329 481.82562 
L 621.64795 481.52976 
L 621.75476 481.577864 
L 621.86157 481.806038 
L 622.182001 481.23688 
L 622.395622 481.571052 
L 622.502432 481.423122 
L 622.716053 481.683117 
L 622.929674 481.416098 
L 623.036484 481.564028 
L 623.250105 481.346497 
L 623.356915 481.481656 
L 623.463725 481.352244 
L 623.677346 481.611281 
L 623.890967 481.3979 
L 624.104587 481.104381 
L 624.318208 480.759779 
L 624.638639 480.983696 
L 625.279501 481.073199 
L 625.493121 481.303289 
L 625.599932 481.123538 
L 625.706742 481.332981 
L 625.813552 481.203569 
L 625.920363 481.396197 
L 626.240794 481.168449 
L 626.454414 481.562432 
L 626.561225 481.490276 
L 626.668035 481.562432 
L 626.881655 481.382255 
L 627.095276 481.206442 
L 627.308897 481.501132 
L 627.736138 481.003917 
L 627.842948 481.05202 
L 628.163379 480.847153 
L 628.48381 481.309993 
L 628.804241 481.517095 
L 629.017862 481.48719 
L 629.231483 481.252737 
L 629.445103 481.369804 
L 629.658724 481.244968 
L 630.299586 481.083096 
L 630.513206 480.869609 
L 630.833637 480.899514 
L 631.047258 481.097251 
L 631.260879 481.277427 
L 631.367689 481.277427 
L 631.474499 481.049786 
L 631.68812 481.385023 
L 631.79493 481.249863 
L 632.328982 480.706354 
L 632.435792 480.958048 
L 632.649413 480.743815 
L 632.969844 481.221448 
L 633.183464 480.792664 
L 633.290275 481.020306 
L 633.397085 480.94815 
L 633.610706 481.279982 
L 633.931137 480.901111 
L 634.037947 481.027756 
L 634.144757 480.94847 
L 634.571999 481.1312 
L 634.678809 481.159722 
L 634.892429 481.532314 
L 634.99924 481.347455 
L 635.21286 481.457604 
L 635.319671 481.330959 
L 635.426481 481.457604 
L 635.533291 481.335854 
L 635.640102 481.415673 
L 635.853722 481.289028 
L 635.960533 481.289028 
L 636.067343 481.438341 
L 636.387774 481.109277 
L 636.494584 481.294136 
L 636.708205 481.246032 
L 636.921826 481.429295 
L 637.135446 481.169619 
L 637.349067 481.020306 
L 637.455877 481.020306 
L 637.669498 481.44345 
L 637.883118 480.991359 
L 637.989929 481.179091 
L 638.203549 480.898876 
L 638.41717 481.288496 
L 638.630791 481.075008 
L 638.737601 481.199844 
L 638.844411 481.120026 
L 638.951222 481.221448 
L 639.058032 481.012005 
L 639.378463 481.187818 
L 639.485273 481.237731 
L 639.698894 481.082777 
L 639.805704 481.010621 
L 639.912515 481.229962 
L 640.019325 481.094803 
L 640.232945 481.191117 
L 640.553376 481.191117 
L 640.766997 481.455475 
L 641.194238 480.963369 
L 641.514669 481.47527 
L 641.62148 481.6232 
L 641.941911 481.247841 
L 642.048721 481.351286 
L 642.262342 481.163553 
L 642.582773 481.115449 
L 642.689583 480.988804 
L 642.796393 481.203037 
L 643.010014 481.099592 
L 643.116824 481.099592 
L 643.330445 481.282855 
L 643.650876 481.106297 
L 643.971307 481.28211 
L 644.078117 481.095974 
L 644.184927 481.197396 
L 644.291738 480.937721 
L 644.505358 481.064366 
L 644.825789 481.261251 
L 645.14622 480.997105 
L 645.359841 480.816929 
L 646.000703 480.383462 
L 646.214323 480.463706 
L 646.427944 480.315776 
L 646.641565 480.315776 
L 646.855185 480.688368 
L 647.068806 480.239151 
L 647.175616 480.20137 
L 647.496047 480.567257 
L 647.602858 480.519153 
L 647.816478 480.643989 
L 648.030099 480.631857 
L 648.136909 480.631857 
L 648.45734 480.286935 
L 648.670961 480.286935 
L 648.777771 480.514577 
L 649.098202 480.279805 
L 649.205012 480.383249 
L 649.418633 480.028962 
L 649.632254 480.318969 
L 649.845874 480.468283 
L 650.059495 480.569705 
L 650.486736 480.461897 
L 650.807167 480.848537 
L 650.913977 480.848537 
L 651.020788 480.66836 
L 651.448029 480.87525 
L 651.554839 481.139608 
L 651.76846 480.844919 
L 651.87527 480.665168 
L 651.982081 480.8794 
L 652.195701 480.720615 
L 652.409322 480.587265 
L 652.729753 480.920054 
L 652.836563 481.100231 
L 653.263805 480.950704 
L 653.584235 480.459662 
L 653.904666 480.459662 
L 654.118287 480.778935 
L 654.331908 480.666126 
L 654.652339 480.696456 
L 654.865959 481.024244 
L 654.97277 480.897599 
L 655.07958 480.945702 
L 655.18639 481.210061 
L 655.293201 481.029884 
L 655.613632 481.342772 
L 655.827252 481.06543 
L 656.040873 481.187179 
L 656.147683 481.187179 
L 656.361304 481.037866 
L 657.749838 480.97167 
L 657.963459 480.892384 
L 658.070269 480.892384 
L 658.28389 480.664742 
L 658.49751 480.74456 
L 658.711131 480.74456 
L 658.924752 480.551932 
L 659.351993 480.624088 
L 659.565613 481.051808 
L 659.672424 480.950385 
L 659.886044 481.029671 
L 660.099665 480.844706 
L 660.526906 480.806925 
L 661.488199 480.764887 
L 661.80863 481.19729 
L 662.022251 481.19729 
L 662.235871 480.718699 
L 662.342682 480.718699 
L 662.556302 480.904835 
L 662.769923 480.769676 
L 663.624406 480.65974 
L 663.838026 480.423904 
L 664.158457 480.786066 
L 664.478888 480.823847 
L 664.585698 481.011579 
L 664.906129 480.638987 
L 665.01294 480.765632 
L 665.11975 480.585456 
L 665.22656 480.635369 
L 665.440181 480.383143 
L 665.546991 480.261393 
L 665.760612 480.513087 
L 666.294664 480.475307 
L 666.508284 480.261074 
L 666.721905 480.261074 
L 666.935526 480.074938 
L 667.149146 480.406024 
L 667.255956 480.406024 
L 667.469577 480.279379 
L 667.683198 480.279379 
L 667.896818 480.464238 
L 668.644491 480.435717 
L 668.858111 480.184023 
L 669.285353 480.078237 
L 669.498973 480.056846 
L 670.033025 480.028324 
L 670.246645 479.908916 
L 670.780697 479.946696 
L 670.994318 479.639768 
L 672.382852 479.711924 
L 672.596472 479.847083 
L 673.023714 479.774927 
L 673.237334 479.96266 
L 673.664576 479.857619 
L 673.878196 479.72246 
L 674.091817 479.770564 
L 674.305438 479.8954 
L 675.800782 479.790785 
L 676.121213 479.760879 
L 676.655265 479.821328 
L 678.150609 479.810473 
L 678.36423 480.062699 
L 679.966385 480.062699 
L 680.180005 479.914769 
L 680.286816 479.914769 
L 680.500436 479.700537 
L 680.927677 479.730442 
L 681.67535 479.780355 
L 681.88897 479.907 
L 682.743453 479.869219 
L 682.957074 479.780355 
L 685.734142 479.847083 
L 685.947762 479.926901 
L 687.443107 479.847615 
L 687.656728 479.767797 
L 693.317675 479.775459 
L 693.531295 479.960319 
L 694.919829 479.912215 
L 695.13345 479.757687 
L 703.785086 479.784293 
L 703.998707 479.604223 
L 714.572928 479.508866 
L 715.00017 479.478961 
L 871.690909 479.41798 
L 871.690909 479.41798 
" style="fill:none;stroke:#8dd3c7;stroke-linecap:square;stroke-width:1.5;"/>
   </g>
   <g id="line2d_17">
    <path clip-path="url(#p18615a9a4e)" d="M 161.509091 480.279273 
L 649.311823 480.20137 
L 649.525443 480.028962 
L 670.033025 480.028324 
L 670.246645 479.908916 
L 670.780697 479.908916 
L 670.994318 479.639768 
L 711.475429 479.559844 
L 711.79586 479.508866 
L 871.690909 479.41798 
L 871.690909 479.41798 
" style="fill:none;stroke:#feffb3;stroke-linecap:square;stroke-width:1.5;"/>
   </g>
   <g id="line2d_18">
    <path clip-path="url(#p18615a9a4e)" d="M 161.509091 88.887273 
L 162.470384 88.887273 
L 162.684004 104.419457 
L 163.538487 104.419457 
L 163.752108 119.341419 
L 164.60659 119.341419 
L 164.820211 133.677133 
L 165.674693 133.677133 
L 165.888314 147.44963 
L 166.742797 147.44963 
L 166.956417 160.681038 
L 167.8109 160.681038 
L 168.02452 173.392616 
L 168.879003 173.392616 
L 169.092624 185.604786 
L 169.947106 185.604786 
L 170.160727 197.337169 
L 171.015209 197.337169 
L 171.22883 208.608615 
L 172.083313 208.608615 
L 172.296933 219.437232 
L 173.151416 219.437232 
L 173.365036 229.840419 
L 174.219519 229.840419 
L 174.43314 239.834889 
L 175.287622 239.834889 
L 175.501243 249.4367 
L 176.355725 249.4367 
L 176.569346 258.661278 
L 177.423829 258.661278 
L 177.637449 267.523445 
L 178.491932 267.523445 
L 178.705552 276.037439 
L 179.560035 276.037439 
L 179.773656 284.216937 
L 180.628138 284.216937 
L 180.841759 292.075083 
L 181.696241 292.075083 
L 181.909862 299.624501 
L 182.764345 299.624501 
L 182.977965 306.87732 
L 183.832448 306.87732 
L 184.046068 313.845193 
L 184.900551 313.845193 
L 185.114172 320.539315 
L 185.968654 320.539315 
L 186.182275 326.97044 
L 187.036757 326.97044 
L 187.250378 333.148902 
L 188.104861 333.148902 
L 188.318481 339.084627 
L 189.172964 339.084627 
L 189.386584 344.787151 
L 190.241067 344.787151 
L 190.454688 350.265637 
L 191.30917 350.265637 
L 191.522791 355.528886 
L 192.377273 355.528886 
L 192.590894 360.585355 
L 193.445377 360.585355 
L 193.658997 365.443166 
L 194.51348 365.443166 
L 194.7271 370.110126 
L 195.581583 370.110126 
L 195.795204 374.593732 
L 196.649686 374.593732 
L 196.863307 378.901188 
L 197.717789 378.901188 
L 197.93141 383.039414 
L 198.785893 383.039414 
L 198.999513 387.01506 
L 199.853996 387.01506 
L 200.067616 390.834511 
L 200.922099 390.834511 
L 201.13572 394.503905 
L 201.990202 394.503905 
L 202.203823 398.029138 
L 203.058305 398.029138 
L 203.271926 401.415872 
L 204.126409 401.415872 
L 204.340029 404.66955 
L 205.194512 404.66955 
L 205.408132 407.795398 
L 206.262615 407.795398 
L 206.476236 410.798439 
L 207.330718 410.798439 
L 207.544339 413.683498 
L 208.398821 413.683498 
L 208.612442 416.45521 
L 209.466925 416.45521 
L 209.680545 419.118028 
L 210.535028 419.118028 
L 210.748648 421.67623 
L 211.603131 421.67623 
L 211.816752 424.133926 
L 212.671234 424.133926 
L 212.884855 426.495065 
L 213.739337 426.495065 
L 213.952958 428.763441 
L 214.807441 428.763441 
L 215.021061 430.942698 
L 215.875544 430.942698 
L 216.089164 433.036336 
L 216.943647 433.036336 
L 217.157268 435.047721 
L 218.01175 435.047721 
L 218.225371 436.980083 
L 219.079853 436.980083 
L 219.293474 438.836527 
L 220.147957 438.836527 
L 220.361577 440.620036 
L 221.21606 440.620036 
L 221.42968 442.333476 
L 222.284163 442.333476 
L 222.497784 443.979598 
L 223.352266 443.979598 
L 223.565887 445.561048 
L 224.420369 445.561048 
L 224.63399 447.080366 
L 225.488473 447.080366 
L 225.702093 448.539994 
L 226.556576 448.539994 
L 226.770196 449.942277 
L 227.624679 449.942277 
L 227.8383 451.289467 
L 228.692782 451.289467 
L 228.906403 452.58373 
L 229.760885 452.58373 
L 229.974506 453.827144 
L 230.828989 453.827144 
L 231.042609 455.021707 
L 231.897092 455.021707 
L 232.110712 456.169339 
L 232.965195 456.169339 
L 233.178816 457.271883 
L 234.033298 457.271883 
L 234.246919 458.33111 
L 235.101401 458.33111 
L 235.315022 459.348723 
L 236.169505 459.348723 
L 236.383125 460.326357 
L 237.237608 460.326357 
L 237.451228 461.265581 
L 238.305711 461.265581 
L 238.519332 462.167906 
L 239.373814 462.167906 
L 239.587435 463.03478 
L 240.441917 463.03478 
L 240.655538 463.867597 
L 241.510021 463.867597 
L 241.723641 464.667695 
L 242.578124 464.667695 
L 242.791744 465.436359 
L 243.646227 465.436359 
L 243.859848 466.174823 
L 244.71433 466.174823 
L 244.927951 466.884276 
L 245.782433 466.884276 
L 245.996054 467.565855 
L 246.850537 467.565855 
L 247.064157 468.220657 
L 247.91864 468.220657 
L 248.13226 468.849733 
L 248.986743 468.849733 
L 249.200364 469.454095 
L 250.054846 469.454095 
L 250.268467 470.034712 
L 251.122949 470.034712 
L 251.33657 470.592518 
L 252.191053 470.592518 
L 252.404673 471.12841 
L 253.259156 471.12841 
L 253.472776 471.643247 
L 254.327259 471.643247 
L 254.54088 472.137858 
L 255.395362 472.137858 
L 255.608983 472.613037 
L 256.463465 472.613037 
L 256.677086 473.069547 
L 257.531569 473.069547 
L 257.745189 473.508122 
L 258.599672 473.508122 
L 258.813292 473.929466 
L 259.667775 473.929466 
L 259.881396 474.334257 
L 260.735878 474.334257 
L 260.949499 474.723144 
L 261.803981 474.723144 
L 262.017602 475.096753 
L 262.872085 475.096753 
L 263.085705 475.455684 
L 263.940188 475.455684 
L 264.153809 475.800513 
L 265.008291 475.800513 
L 265.221912 476.131795 
L 266.076394 476.131795 
L 266.290015 476.450061 
L 267.144497 476.450061 
L 267.358118 476.755824 
L 268.212601 476.755824 
L 268.426221 477.049573 
L 269.280704 477.049573 
L 269.494325 477.331782 
L 270.348807 477.331782 
L 270.562428 477.602904 
L 271.41691 477.602904 
L 271.630531 477.863374 
L 272.485013 477.863374 
L 272.698634 478.113611 
L 273.553117 478.113611 
L 273.766737 478.354016 
L 274.62122 478.354016 
L 274.834841 478.584977 
L 275.689323 478.584977 
L 275.902944 478.806864 
L 276.757426 478.806864 
L 276.971047 479.020033 
L 277.825529 479.020033 
L 278.03915 479.224827 
L 278.893633 479.224827 
L 279.107253 479.421576 
L 279.961736 479.421576 
L 280.175357 479.610595 
L 281.029839 479.610595 
L 281.24346 479.792187 
L 282.097942 479.792187 
L 282.311563 479.966646 
L 283.166045 479.966646 
L 283.379666 480.13425 
L 284.234149 480.13425 
L 284.447769 480.295269 
L 285.302252 480.295269 
L 285.515873 480.449963 
L 286.370355 480.449963 
L 286.583976 480.598578 
L 287.438458 480.598578 
L 287.652079 480.741356 
L 288.506561 480.741356 
L 288.720182 480.878523 
L 289.574665 480.878523 
L 289.788285 481.010302 
L 290.642768 481.010302 
L 290.856389 481.136903 
L 291.710871 481.136903 
L 291.924492 481.258531 
L 292.778974 481.258531 
L 292.992595 481.37538 
L 293.847077 481.37538 
L 294.060698 481.487638 
L 295.983284 481.595487 
L 296.196905 481.699097 
L 298.11949 481.798638 
L 298.333111 481.894267 
L 300.255697 481.98614 
L 300.469317 482.074403 
L 302.391903 482.159198 
L 302.605524 482.240662 
L 304.528109 482.318926 
L 304.74173 482.394115 
L 306.664316 482.466349 
L 306.877937 482.535746 
L 308.800522 482.602417 
L 309.120953 482.666468 
L 310.936729 482.728002 
L 311.25716 482.787119 
L 313.072935 482.843914 
L 313.393366 482.898477 
L 316.277245 483.001257 
L 316.597676 483.049638 
L 319.481554 483.140774 
L 319.801985 483.183674 
L 322.685864 483.264484 
L 323.113105 483.302524 
L 326.958277 483.40791 
L 327.385518 483.440315 
L 331.23069 483.53009 
L 331.764741 483.557695 
L 336.571206 483.657687 
L 337.212067 483.680279 
L 342.979825 483.780602 
L 343.727497 483.798365 
L 351.52465 483.904628 
L 352.485943 483.917518 
L 363.273786 484.021606 
L 364.87594 484.037869 
L 387.840159 484.148746 
L 391.792141 484.161186 
L 871.690909 484.232727 
L 871.690909 484.232727 
" style="fill:none;stroke:#bfbbd9;stroke-linecap:square;stroke-width:1.5;"/>
   </g>
   <g id="patch_3">
    <path d="M 126 504 
L 126 69.12 
" style="fill:none;stroke:#ffffff;stroke-linecap:square;stroke-linejoin:miter;stroke-width:0.8;"/>
   </g>
   <g id="patch_4">
    <path d="M 907.2 504 
L 907.2 69.12 
" style="fill:none;stroke:#ffffff;stroke-linecap:square;stroke-linejoin:miter;stroke-width:0.8;"/>
   </g>
   <g id="patch_5">
    <path d="M 126 504 
L 907.2 504 
" style="fill:none;stroke:#ffffff;stroke-linecap:square;stroke-linejoin:miter;stroke-width:0.8;"/>
   </g>
   <g id="patch_6">
    <path d="M 126 69.12 
L 907.2 69.12 
" style="fill:none;stroke:#ffffff;stroke-linecap:square;stroke-linejoin:miter;stroke-width:0.8;"/>
   </g>
   <g id="text_18">
    <!-- instance 18 with error 0.0 -->
    <g style="fill:#ffffff;" transform="translate(439.126875 63.12)scale(0.12 -0.12)">
     <defs>
      <path d="M 2834 3397 
L 2834 2853 
Q 2591 2978 2328 3040 
Q 2066 3103 1784 3103 
Q 1356 3103 1142 2972 
Q 928 2841 928 2578 
Q 928 2378 1081 2264 
Q 1234 2150 1697 2047 
L 1894 2003 
Q 2506 1872 2764 1633 
Q 3022 1394 3022 966 
Q 3022 478 2636 193 
Q 2250 -91 1575 -91 
Q 1294 -91 989 -36 
Q 684 19 347 128 
L 347 722 
Q 666 556 975 473 
Q 1284 391 1588 391 
Q 1994 391 2212 530 
Q 2431 669 2431 922 
Q 2431 1156 2273 1281 
Q 2116 1406 1581 1522 
L 1381 1569 
Q 847 1681 609 1914 
Q 372 2147 372 2553 
Q 372 3047 722 3315 
Q 1072 3584 1716 3584 
Q 2034 3584 2315 3537 
Q 2597 3491 2834 3397 
z
" id="DejaVuSans-73" transform="scale(0.015625)"/>
      <path d="M 3122 3366 
L 3122 2828 
Q 2878 2963 2633 3030 
Q 2388 3097 2138 3097 
Q 1578 3097 1268 2742 
Q 959 2388 959 1747 
Q 959 1106 1268 751 
Q 1578 397 2138 397 
Q 2388 397 2633 464 
Q 2878 531 3122 666 
L 3122 134 
Q 2881 22 2623 -34 
Q 2366 -91 2075 -91 
Q 1284 -91 818 406 
Q 353 903 353 1747 
Q 353 2603 823 3093 
Q 1294 3584 2113 3584 
Q 2378 3584 2631 3529 
Q 2884 3475 3122 3366 
z
" id="DejaVuSans-63" transform="scale(0.015625)"/>
      <path id="DejaVuSans-20" transform="scale(0.015625)"/>
      <path d="M 2034 2216 
Q 1584 2216 1326 1975 
Q 1069 1734 1069 1313 
Q 1069 891 1326 650 
Q 1584 409 2034 409 
Q 2484 409 2743 651 
Q 3003 894 3003 1313 
Q 3003 1734 2745 1975 
Q 2488 2216 2034 2216 
z
M 1403 2484 
Q 997 2584 770 2862 
Q 544 3141 544 3541 
Q 544 4100 942 4425 
Q 1341 4750 2034 4750 
Q 2731 4750 3128 4425 
Q 3525 4100 3525 3541 
Q 3525 3141 3298 2862 
Q 3072 2584 2669 2484 
Q 3125 2378 3379 2068 
Q 3634 1759 3634 1313 
Q 3634 634 3220 271 
Q 2806 -91 2034 -91 
Q 1263 -91 848 271 
Q 434 634 434 1313 
Q 434 1759 690 2068 
Q 947 2378 1403 2484 
z
M 1172 3481 
Q 1172 3119 1398 2916 
Q 1625 2713 2034 2713 
Q 2441 2713 2670 2916 
Q 2900 3119 2900 3481 
Q 2900 3844 2670 4047 
Q 2441 4250 2034 4250 
Q 1625 4250 1398 4047 
Q 1172 3844 1172 3481 
z
" id="DejaVuSans-38" transform="scale(0.015625)"/>
      <path d="M 269 3500 
L 844 3500 
L 1563 769 
L 2278 3500 
L 2956 3500 
L 3675 769 
L 4391 3500 
L 4966 3500 
L 4050 0 
L 3372 0 
L 2619 2869 
L 1863 0 
L 1184 0 
L 269 3500 
z
" id="DejaVuSans-77" transform="scale(0.015625)"/>
      <path d="M 3513 2113 
L 3513 0 
L 2938 0 
L 2938 2094 
Q 2938 2591 2744 2837 
Q 2550 3084 2163 3084 
Q 1697 3084 1428 2787 
Q 1159 2491 1159 1978 
L 1159 0 
L 581 0 
L 581 4863 
L 1159 4863 
L 1159 2956 
Q 1366 3272 1645 3428 
Q 1925 3584 2291 3584 
Q 2894 3584 3203 3211 
Q 3513 2838 3513 2113 
z
" id="DejaVuSans-68" transform="scale(0.015625)"/>
     </defs>
     <use xlink:href="#DejaVuSans-69"/>
     <use x="27.783203" xlink:href="#DejaVuSans-6e"/>
     <use x="91.162109" xlink:href="#DejaVuSans-73"/>
     <use x="143.261719" xlink:href="#DejaVuSans-74"/>
     <use x="182.470703" xlink:href="#DejaVuSans-61"/>
     <use x="243.75" xlink:href="#DejaVuSans-6e"/>
     <use x="307.128906" xlink:href="#DejaVuSans-63"/>
     <use x="362.109375" xlink:href="#DejaVuSans-65"/>
     <use x="423.632812" xlink:href="#DejaVuSans-20"/>
     <use x="455.419922" xlink:href="#DejaVuSans-31"/>
     <use x="519.042969" xlink:href="#DejaVuSans-38"/>
     <use x="582.666016" xlink:href="#DejaVuSans-20"/>
     <use x="614.453125" xlink:href="#DejaVuSans-77"/>
     <use x="696.240234" xlink:href="#DejaVuSans-69"/>
     <use x="724.023438" xlink:href="#DejaVuSans-74"/>
     <use x="763.232422" xlink:href="#DejaVuSans-68"/>
     <use x="826.611328" xlink:href="#DejaVuSans-20"/>
     <use x="858.398438" xlink:href="#DejaVuSans-65"/>
     <use x="919.921875" xlink:href="#DejaVuSans-72"/>
     <use x="959.285156" xlink:href="#DejaVuSans-72"/>
     <use x="998.148438" xlink:href="#DejaVuSans-6f"/>
     <use x="1059.330078" xlink:href="#DejaVuSans-72"/>
     <use x="1100.443359" xlink:href="#DejaVuSans-20"/>
     <use x="1132.230469" xlink:href="#DejaVuSans-30"/>
     <use x="1195.853516" xlink:href="#DejaVuSans-2e"/>
     <use x="1227.640625" xlink:href="#DejaVuSans-30"/>
    </g>
   </g>
   <g id="legend_1">
    <g id="patch_7">
     <path d="M 805.348438 499 
L 900.2 499 
Q 902.2 499 902.2 497 
L 902.2 453.965625 
Q 902.2 451.965625 900.2 451.965625 
L 805.348438 451.965625 
Q 803.348438 451.965625 803.348438 453.965625 
L 803.348438 497 
Q 803.348438 499 805.348438 499 
z
" style="opacity:0.8;stroke:#cccccc;stroke-linejoin:miter;"/>
    </g>
    <g id="line2d_19">
     <path d="M 807.348438 460.064062 
L 827.348438 460.064062 
" style="fill:none;stroke:#8dd3c7;stroke-linecap:square;stroke-width:1.5;"/>
    </g>
    <g id="line2d_20"/>
    <g id="text_19">
     <!-- cost -->
     <g style="fill:#ffffff;" transform="translate(835.348438 463.564062)scale(0.1 -0.1)">
      <use xlink:href="#DejaVuSans-63"/>
      <use x="54.980469" xlink:href="#DejaVuSans-6f"/>
      <use x="116.162109" xlink:href="#DejaVuSans-73"/>
      <use x="168.261719" xlink:href="#DejaVuSans-74"/>
     </g>
    </g>
    <g id="line2d_21">
     <path d="M 807.348438 474.742188 
L 827.348438 474.742188 
" style="fill:none;stroke:#feffb3;stroke-linecap:square;stroke-width:1.5;"/>
    </g>
    <g id="line2d_22"/>
    <g id="text_20">
     <!-- best cost -->
     <g style="fill:#ffffff;" transform="translate(835.348438 478.242188)scale(0.1 -0.1)">
      <defs>
       <path d="M 3116 1747 
Q 3116 2381 2855 2742 
Q 2594 3103 2138 3103 
Q 1681 3103 1420 2742 
Q 1159 2381 1159 1747 
Q 1159 1113 1420 752 
Q 1681 391 2138 391 
Q 2594 391 2855 752 
Q 3116 1113 3116 1747 
z
M 1159 2969 
Q 1341 3281 1617 3432 
Q 1894 3584 2278 3584 
Q 2916 3584 3314 3078 
Q 3713 2572 3713 1747 
Q 3713 922 3314 415 
Q 2916 -91 2278 -91 
Q 1894 -91 1617 61 
Q 1341 213 1159 525 
L 1159 0 
L 581 0 
L 581 4863 
L 1159 4863 
L 1159 2969 
z
" id="DejaVuSans-62" transform="scale(0.015625)"/>
      </defs>
      <use xlink:href="#DejaVuSans-62"/>
      <use x="63.476562" xlink:href="#DejaVuSans-65"/>
      <use x="125" xlink:href="#DejaVuSans-73"/>
      <use x="177.099609" xlink:href="#DejaVuSans-74"/>
      <use x="216.308594" xlink:href="#DejaVuSans-20"/>
      <use x="248.095703" xlink:href="#DejaVuSans-63"/>
      <use x="303.076172" xlink:href="#DejaVuSans-6f"/>
      <use x="364.257812" xlink:href="#DejaVuSans-73"/>
      <use x="416.357422" xlink:href="#DejaVuSans-74"/>
     </g>
    </g>
    <g id="line2d_23">
     <path d="M 807.348438 489.420313 
L 827.348438 489.420313 
" style="fill:none;stroke:#bfbbd9;stroke-linecap:square;stroke-width:1.5;"/>
    </g>
    <g id="line2d_24"/>
    <g id="text_21">
     <!-- temperature -->
     <g style="fill:#ffffff;" transform="translate(835.348438 492.920313)scale(0.1 -0.1)">
      <defs>
       <path d="M 3328 2828 
Q 3544 3216 3844 3400 
Q 4144 3584 4550 3584 
Q 5097 3584 5394 3201 
Q 5691 2819 5691 2113 
L 5691 0 
L 5113 0 
L 5113 2094 
Q 5113 2597 4934 2840 
Q 4756 3084 4391 3084 
Q 3944 3084 3684 2787 
Q 3425 2491 3425 1978 
L 3425 0 
L 2847 0 
L 2847 2094 
Q 2847 2600 2669 2842 
Q 2491 3084 2119 3084 
Q 1678 3084 1418 2786 
Q 1159 2488 1159 1978 
L 1159 0 
L 581 0 
L 581 3500 
L 1159 3500 
L 1159 2956 
Q 1356 3278 1631 3431 
Q 1906 3584 2284 3584 
Q 2666 3584 2933 3390 
Q 3200 3197 3328 2828 
z
" id="DejaVuSans-6d" transform="scale(0.015625)"/>
       <path d="M 1159 525 
L 1159 -1331 
L 581 -1331 
L 581 3500 
L 1159 3500 
L 1159 2969 
Q 1341 3281 1617 3432 
Q 1894 3584 2278 3584 
Q 2916 3584 3314 3078 
Q 3713 2572 3713 1747 
Q 3713 922 3314 415 
Q 2916 -91 2278 -91 
Q 1894 -91 1617 61 
Q 1341 213 1159 525 
z
M 3116 1747 
Q 3116 2381 2855 2742 
Q 2594 3103 2138 3103 
Q 1681 3103 1420 2742 
Q 1159 2381 1159 1747 
Q 1159 1113 1420 752 
Q 1681 391 2138 391 
Q 2594 391 2855 752 
Q 3116 1113 3116 1747 
z
" id="DejaVuSans-70" transform="scale(0.015625)"/>
       <path d="M 544 1381 
L 544 3500 
L 1119 3500 
L 1119 1403 
Q 1119 906 1312 657 
Q 1506 409 1894 409 
Q 2359 409 2629 706 
Q 2900 1003 2900 1516 
L 2900 3500 
L 3475 3500 
L 3475 0 
L 2900 0 
L 2900 538 
Q 2691 219 2414 64 
Q 2138 -91 1772 -91 
Q 1169 -91 856 284 
Q 544 659 544 1381 
z
M 1991 3584 
L 1991 3584 
z
" id="DejaVuSans-75" transform="scale(0.015625)"/>
      </defs>
      <use xlink:href="#DejaVuSans-74"/>
      <use x="39.208984" xlink:href="#DejaVuSans-65"/>
      <use x="100.732422" xlink:href="#DejaVuSans-6d"/>
      <use x="198.144531" xlink:href="#DejaVuSans-70"/>
      <use x="261.621094" xlink:href="#DejaVuSans-65"/>
      <use x="323.144531" xlink:href="#DejaVuSans-72"/>
      <use x="364.257812" xlink:href="#DejaVuSans-61"/>
      <use x="425.537109" xlink:href="#DejaVuSans-74"/>
      <use x="464.746094" xlink:href="#DejaVuSans-75"/>
      <use x="528.125" xlink:href="#DejaVuSans-72"/>
      <use x="566.988281" xlink:href="#DejaVuSans-65"/>
     </g>
    </g>
   </g>
  </g>
 </g>
 <defs>
  <clipPath id="p18615a9a4e">
   <rect height="434.88" width="781.2" x="126" y="69.12"/>
  </clipPath>
 </defs>
</svg>
