<?xml version="1.0" encoding="utf-8" standalone="no"?>
<!DOCTYPE svg PUBLIC "-//W3C//DTD SVG 1.1//EN"
  "http://www.w3.org/Graphics/SVG/1.1/DTD/svg11.dtd">
<svg height="576pt" version="1.1" viewBox="0 0 1008 576" width="1008pt" xmlns="http://www.w3.org/2000/svg" xmlns:xlink="http://www.w3.org/1999/xlink">
 <metadata>
  <rdf:RDF xmlns:cc="http://creativecommons.org/ns#" xmlns:dc="http://purl.org/dc/elements/1.1/" xmlns:rdf="http://www.w3.org/1999/02/22-rdf-syntax-ns#">
   <cc:Work>
    <dc:type rdf:resource="http://purl.org/dc/dcmitype/StillImage"/>
    <dc:date>2022-01-13T19:10:46.648998</dc:date>
    <dc:format>image/svg+xml</dc:format>
    <dc:creator>
     <cc:Agent>
      <dc:title>Matplotlib v3.4.3, https://matplotlib.org/</dc:title>
     </cc:Agent>
    </dc:creator>
   </cc:Work>
  </rdf:RDF>
 </metadata>
 <defs>
  <style type="text/css">*{stroke-linecap:butt;stroke-linejoin:round;}</style>
 </defs>
 <g id="figure_1">
  <g id="patch_1">
   <path d="M 0 576 
L 1008 576 
L 1008 0 
L 0 0 
z
"/>
  </g>
  <g id="axes_1">
   <g id="patch_2">
    <path d="M 126 504 
L 907.2 504 
L 907.2 69.12 
L 126 69.12 
z
"/>
   </g>
   <g id="matplotlib.axis_1">
    <g id="xtick_1">
     <g id="line2d_1">
      <defs>
       <path d="M 0 0 
L 0 3.5 
" id="m364f815627" style="stroke:#ffffff;stroke-width:0.8;"/>
      </defs>
      <g>
       <use style="fill:#ffffff;stroke:#ffffff;stroke-width:0.8;" x="161.509091" xlink:href="#m364f815627" y="504"/>
      </g>
     </g>
     <g id="text_1">
      <!-- 0 -->
      <g style="fill:#ffffff;" transform="translate(158.327841 518.598438)scale(0.1 -0.1)">
       <defs>
        <path d="M 2034 4250 
Q 1547 4250 1301 3770 
Q 1056 3291 1056 2328 
Q 1056 1369 1301 889 
Q 1547 409 2034 409 
Q 2525 409 2770 889 
Q 3016 1369 3016 2328 
Q 3016 3291 2770 3770 
Q 2525 4250 2034 4250 
z
M 2034 4750 
Q 2819 4750 3233 4129 
Q 3647 3509 3647 2328 
Q 3647 1150 3233 529 
Q 2819 -91 2034 -91 
Q 1250 -91 836 529 
Q 422 1150 422 2328 
Q 422 3509 836 4129 
Q 1250 4750 2034 4750 
z
" id="DejaVuSans-30" transform="scale(0.015625)"/>
       </defs>
       <use xlink:href="#DejaVuSans-30"/>
      </g>
     </g>
    </g>
    <g id="xtick_2">
     <g id="line2d_2">
      <g>
       <use style="fill:#ffffff;stroke:#ffffff;stroke-width:0.8;" x="261.281754" xlink:href="#m364f815627" y="504"/>
      </g>
     </g>
     <g id="text_2">
      <!-- 500 -->
      <g style="fill:#ffffff;" transform="translate(251.738004 518.598438)scale(0.1 -0.1)">
       <defs>
        <path d="M 691 4666 
L 3169 4666 
L 3169 4134 
L 1269 4134 
L 1269 2991 
Q 1406 3038 1543 3061 
Q 1681 3084 1819 3084 
Q 2600 3084 3056 2656 
Q 3513 2228 3513 1497 
Q 3513 744 3044 326 
Q 2575 -91 1722 -91 
Q 1428 -91 1123 -41 
Q 819 9 494 109 
L 494 744 
Q 775 591 1075 516 
Q 1375 441 1709 441 
Q 2250 441 2565 725 
Q 2881 1009 2881 1497 
Q 2881 1984 2565 2268 
Q 2250 2553 1709 2553 
Q 1456 2553 1204 2497 
Q 953 2441 691 2322 
L 691 4666 
z
" id="DejaVuSans-35" transform="scale(0.015625)"/>
       </defs>
       <use xlink:href="#DejaVuSans-35"/>
       <use x="63.623047" xlink:href="#DejaVuSans-30"/>
       <use x="127.246094" xlink:href="#DejaVuSans-30"/>
      </g>
     </g>
    </g>
    <g id="xtick_3">
     <g id="line2d_3">
      <g>
       <use style="fill:#ffffff;stroke:#ffffff;stroke-width:0.8;" x="361.054418" xlink:href="#m364f815627" y="504"/>
      </g>
     </g>
     <g id="text_3">
      <!-- 1000 -->
      <g style="fill:#ffffff;" transform="translate(348.329418 518.598438)scale(0.1 -0.1)">
       <defs>
        <path d="M 794 531 
L 1825 531 
L 1825 4091 
L 703 3866 
L 703 4441 
L 1819 4666 
L 2450 4666 
L 2450 531 
L 3481 531 
L 3481 0 
L 794 0 
L 794 531 
z
" id="DejaVuSans-31" transform="scale(0.015625)"/>
       </defs>
       <use xlink:href="#DejaVuSans-31"/>
       <use x="63.623047" xlink:href="#DejaVuSans-30"/>
       <use x="127.246094" xlink:href="#DejaVuSans-30"/>
       <use x="190.869141" xlink:href="#DejaVuSans-30"/>
      </g>
     </g>
    </g>
    <g id="xtick_4">
     <g id="line2d_4">
      <g>
       <use style="fill:#ffffff;stroke:#ffffff;stroke-width:0.8;" x="460.827081" xlink:href="#m364f815627" y="504"/>
      </g>
     </g>
     <g id="text_4">
      <!-- 1500 -->
      <g style="fill:#ffffff;" transform="translate(448.102081 518.598438)scale(0.1 -0.1)">
       <use xlink:href="#DejaVuSans-31"/>
       <use x="63.623047" xlink:href="#DejaVuSans-35"/>
       <use x="127.246094" xlink:href="#DejaVuSans-30"/>
       <use x="190.869141" xlink:href="#DejaVuSans-30"/>
      </g>
     </g>
    </g>
    <g id="xtick_5">
     <g id="line2d_5">
      <g>
       <use style="fill:#ffffff;stroke:#ffffff;stroke-width:0.8;" x="560.599745" xlink:href="#m364f815627" y="504"/>
      </g>
     </g>
     <g id="text_5">
      <!-- 2000 -->
      <g style="fill:#ffffff;" transform="translate(547.874745 518.598438)scale(0.1 -0.1)">
       <defs>
        <path d="M 1228 531 
L 3431 531 
L 3431 0 
L 469 0 
L 469 531 
Q 828 903 1448 1529 
Q 2069 2156 2228 2338 
Q 2531 2678 2651 2914 
Q 2772 3150 2772 3378 
Q 2772 3750 2511 3984 
Q 2250 4219 1831 4219 
Q 1534 4219 1204 4116 
Q 875 4013 500 3803 
L 500 4441 
Q 881 4594 1212 4672 
Q 1544 4750 1819 4750 
Q 2544 4750 2975 4387 
Q 3406 4025 3406 3419 
Q 3406 3131 3298 2873 
Q 3191 2616 2906 2266 
Q 2828 2175 2409 1742 
Q 1991 1309 1228 531 
z
" id="DejaVuSans-32" transform="scale(0.015625)"/>
       </defs>
       <use xlink:href="#DejaVuSans-32"/>
       <use x="63.623047" xlink:href="#DejaVuSans-30"/>
       <use x="127.246094" xlink:href="#DejaVuSans-30"/>
       <use x="190.869141" xlink:href="#DejaVuSans-30"/>
      </g>
     </g>
    </g>
    <g id="xtick_6">
     <g id="line2d_6">
      <g>
       <use style="fill:#ffffff;stroke:#ffffff;stroke-width:0.8;" x="660.372408" xlink:href="#m364f815627" y="504"/>
      </g>
     </g>
     <g id="text_6">
      <!-- 2500 -->
      <g style="fill:#ffffff;" transform="translate(647.647408 518.598438)scale(0.1 -0.1)">
       <use xlink:href="#DejaVuSans-32"/>
       <use x="63.623047" xlink:href="#DejaVuSans-35"/>
       <use x="127.246094" xlink:href="#DejaVuSans-30"/>
       <use x="190.869141" xlink:href="#DejaVuSans-30"/>
      </g>
     </g>
    </g>
    <g id="xtick_7">
     <g id="line2d_7">
      <g>
       <use style="fill:#ffffff;stroke:#ffffff;stroke-width:0.8;" x="760.145071" xlink:href="#m364f815627" y="504"/>
      </g>
     </g>
     <g id="text_7">
      <!-- 3000 -->
      <g style="fill:#ffffff;" transform="translate(747.420071 518.598438)scale(0.1 -0.1)">
       <defs>
        <path d="M 2597 2516 
Q 3050 2419 3304 2112 
Q 3559 1806 3559 1356 
Q 3559 666 3084 287 
Q 2609 -91 1734 -91 
Q 1441 -91 1130 -33 
Q 819 25 488 141 
L 488 750 
Q 750 597 1062 519 
Q 1375 441 1716 441 
Q 2309 441 2620 675 
Q 2931 909 2931 1356 
Q 2931 1769 2642 2001 
Q 2353 2234 1838 2234 
L 1294 2234 
L 1294 2753 
L 1863 2753 
Q 2328 2753 2575 2939 
Q 2822 3125 2822 3475 
Q 2822 3834 2567 4026 
Q 2313 4219 1838 4219 
Q 1578 4219 1281 4162 
Q 984 4106 628 3988 
L 628 4550 
Q 988 4650 1302 4700 
Q 1616 4750 1894 4750 
Q 2613 4750 3031 4423 
Q 3450 4097 3450 3541 
Q 3450 3153 3228 2886 
Q 3006 2619 2597 2516 
z
" id="DejaVuSans-33" transform="scale(0.015625)"/>
       </defs>
       <use xlink:href="#DejaVuSans-33"/>
       <use x="63.623047" xlink:href="#DejaVuSans-30"/>
       <use x="127.246094" xlink:href="#DejaVuSans-30"/>
       <use x="190.869141" xlink:href="#DejaVuSans-30"/>
      </g>
     </g>
    </g>
    <g id="xtick_8">
     <g id="line2d_8">
      <g>
       <use style="fill:#ffffff;stroke:#ffffff;stroke-width:0.8;" x="859.917735" xlink:href="#m364f815627" y="504"/>
      </g>
     </g>
     <g id="text_8">
      <!-- 3500 -->
      <g style="fill:#ffffff;" transform="translate(847.192735 518.598438)scale(0.1 -0.1)">
       <use xlink:href="#DejaVuSans-33"/>
       <use x="63.623047" xlink:href="#DejaVuSans-35"/>
       <use x="127.246094" xlink:href="#DejaVuSans-30"/>
       <use x="190.869141" xlink:href="#DejaVuSans-30"/>
      </g>
     </g>
    </g>
    <g id="text_9">
     <!-- iteration -->
     <g style="fill:#ffffff;" transform="translate(495.477344 532.276562)scale(0.1 -0.1)">
      <defs>
       <path d="M 603 3500 
L 1178 3500 
L 1178 0 
L 603 0 
L 603 3500 
z
M 603 4863 
L 1178 4863 
L 1178 4134 
L 603 4134 
L 603 4863 
z
" id="DejaVuSans-69" transform="scale(0.015625)"/>
       <path d="M 1172 4494 
L 1172 3500 
L 2356 3500 
L 2356 3053 
L 1172 3053 
L 1172 1153 
Q 1172 725 1289 603 
Q 1406 481 1766 481 
L 2356 481 
L 2356 0 
L 1766 0 
Q 1100 0 847 248 
Q 594 497 594 1153 
L 594 3053 
L 172 3053 
L 172 3500 
L 594 3500 
L 594 4494 
L 1172 4494 
z
" id="DejaVuSans-74" transform="scale(0.015625)"/>
       <path d="M 3597 1894 
L 3597 1613 
L 953 1613 
Q 991 1019 1311 708 
Q 1631 397 2203 397 
Q 2534 397 2845 478 
Q 3156 559 3463 722 
L 3463 178 
Q 3153 47 2828 -22 
Q 2503 -91 2169 -91 
Q 1331 -91 842 396 
Q 353 884 353 1716 
Q 353 2575 817 3079 
Q 1281 3584 2069 3584 
Q 2775 3584 3186 3129 
Q 3597 2675 3597 1894 
z
M 3022 2063 
Q 3016 2534 2758 2815 
Q 2500 3097 2075 3097 
Q 1594 3097 1305 2825 
Q 1016 2553 972 2059 
L 3022 2063 
z
" id="DejaVuSans-65" transform="scale(0.015625)"/>
       <path d="M 2631 2963 
Q 2534 3019 2420 3045 
Q 2306 3072 2169 3072 
Q 1681 3072 1420 2755 
Q 1159 2438 1159 1844 
L 1159 0 
L 581 0 
L 581 3500 
L 1159 3500 
L 1159 2956 
Q 1341 3275 1631 3429 
Q 1922 3584 2338 3584 
Q 2397 3584 2469 3576 
Q 2541 3569 2628 3553 
L 2631 2963 
z
" id="DejaVuSans-72" transform="scale(0.015625)"/>
       <path d="M 2194 1759 
Q 1497 1759 1228 1600 
Q 959 1441 959 1056 
Q 959 750 1161 570 
Q 1363 391 1709 391 
Q 2188 391 2477 730 
Q 2766 1069 2766 1631 
L 2766 1759 
L 2194 1759 
z
M 3341 1997 
L 3341 0 
L 2766 0 
L 2766 531 
Q 2569 213 2275 61 
Q 1981 -91 1556 -91 
Q 1019 -91 701 211 
Q 384 513 384 1019 
Q 384 1609 779 1909 
Q 1175 2209 1959 2209 
L 2766 2209 
L 2766 2266 
Q 2766 2663 2505 2880 
Q 2244 3097 1772 3097 
Q 1472 3097 1187 3025 
Q 903 2953 641 2809 
L 641 3341 
Q 956 3463 1253 3523 
Q 1550 3584 1831 3584 
Q 2591 3584 2966 3190 
Q 3341 2797 3341 1997 
z
" id="DejaVuSans-61" transform="scale(0.015625)"/>
       <path d="M 1959 3097 
Q 1497 3097 1228 2736 
Q 959 2375 959 1747 
Q 959 1119 1226 758 
Q 1494 397 1959 397 
Q 2419 397 2687 759 
Q 2956 1122 2956 1747 
Q 2956 2369 2687 2733 
Q 2419 3097 1959 3097 
z
M 1959 3584 
Q 2709 3584 3137 3096 
Q 3566 2609 3566 1747 
Q 3566 888 3137 398 
Q 2709 -91 1959 -91 
Q 1206 -91 779 398 
Q 353 888 353 1747 
Q 353 2609 779 3096 
Q 1206 3584 1959 3584 
z
" id="DejaVuSans-6f" transform="scale(0.015625)"/>
       <path d="M 3513 2113 
L 3513 0 
L 2938 0 
L 2938 2094 
Q 2938 2591 2744 2837 
Q 2550 3084 2163 3084 
Q 1697 3084 1428 2787 
Q 1159 2491 1159 1978 
L 1159 0 
L 581 0 
L 581 3500 
L 1159 3500 
L 1159 2956 
Q 1366 3272 1645 3428 
Q 1925 3584 2291 3584 
Q 2894 3584 3203 3211 
Q 3513 2838 3513 2113 
z
" id="DejaVuSans-6e" transform="scale(0.015625)"/>
      </defs>
      <use xlink:href="#DejaVuSans-69"/>
      <use x="27.783203" xlink:href="#DejaVuSans-74"/>
      <use x="66.992188" xlink:href="#DejaVuSans-65"/>
      <use x="128.515625" xlink:href="#DejaVuSans-72"/>
      <use x="169.628906" xlink:href="#DejaVuSans-61"/>
      <use x="230.908203" xlink:href="#DejaVuSans-74"/>
      <use x="270.117188" xlink:href="#DejaVuSans-69"/>
      <use x="297.900391" xlink:href="#DejaVuSans-6f"/>
      <use x="359.082031" xlink:href="#DejaVuSans-6e"/>
     </g>
    </g>
   </g>
   <g id="matplotlib.axis_2">
    <g id="ytick_1">
     <g id="line2d_9">
      <defs>
       <path d="M 0 0 
L -3.5 0 
" id="m678529d3a3" style="stroke:#ffffff;stroke-width:0.8;"/>
      </defs>
      <g>
       <use style="fill:#ffffff;stroke:#ffffff;stroke-width:0.8;" x="126" xlink:href="#m678529d3a3" y="484.232727"/>
      </g>
     </g>
     <g id="text_10">
      <!-- 0 -->
      <g style="fill:#ffffff;" transform="translate(112.6375 488.031946)scale(0.1 -0.1)">
       <use xlink:href="#DejaVuSans-30"/>
      </g>
     </g>
    </g>
    <g id="ytick_2">
     <g id="line2d_10">
      <g>
       <use style="fill:#ffffff;stroke:#ffffff;stroke-width:0.8;" x="126" xlink:href="#m678529d3a3" y="433.324198"/>
      </g>
     </g>
     <g id="text_11">
      <!-- 5000 -->
      <g style="fill:#ffffff;" transform="translate(93.55 437.123417)scale(0.1 -0.1)">
       <use xlink:href="#DejaVuSans-35"/>
       <use x="63.623047" xlink:href="#DejaVuSans-30"/>
       <use x="127.246094" xlink:href="#DejaVuSans-30"/>
       <use x="190.869141" xlink:href="#DejaVuSans-30"/>
      </g>
     </g>
    </g>
    <g id="ytick_3">
     <g id="line2d_11">
      <g>
       <use style="fill:#ffffff;stroke:#ffffff;stroke-width:0.8;" x="126" xlink:href="#m678529d3a3" y="382.415669"/>
      </g>
     </g>
     <g id="text_12">
      <!-- 10000 -->
      <g style="fill:#ffffff;" transform="translate(87.1875 386.214888)scale(0.1 -0.1)">
       <use xlink:href="#DejaVuSans-31"/>
       <use x="63.623047" xlink:href="#DejaVuSans-30"/>
       <use x="127.246094" xlink:href="#DejaVuSans-30"/>
       <use x="190.869141" xlink:href="#DejaVuSans-30"/>
       <use x="254.492188" xlink:href="#DejaVuSans-30"/>
      </g>
     </g>
    </g>
    <g id="ytick_4">
     <g id="line2d_12">
      <g>
       <use style="fill:#ffffff;stroke:#ffffff;stroke-width:0.8;" x="126" xlink:href="#m678529d3a3" y="331.50714"/>
      </g>
     </g>
     <g id="text_13">
      <!-- 15000 -->
      <g style="fill:#ffffff;" transform="translate(87.1875 335.306359)scale(0.1 -0.1)">
       <use xlink:href="#DejaVuSans-31"/>
       <use x="63.623047" xlink:href="#DejaVuSans-35"/>
       <use x="127.246094" xlink:href="#DejaVuSans-30"/>
       <use x="190.869141" xlink:href="#DejaVuSans-30"/>
       <use x="254.492188" xlink:href="#DejaVuSans-30"/>
      </g>
     </g>
    </g>
    <g id="ytick_5">
     <g id="line2d_13">
      <g>
       <use style="fill:#ffffff;stroke:#ffffff;stroke-width:0.8;" x="126" xlink:href="#m678529d3a3" y="280.598611"/>
      </g>
     </g>
     <g id="text_14">
      <!-- 20000 -->
      <g style="fill:#ffffff;" transform="translate(87.1875 284.39783)scale(0.1 -0.1)">
       <use xlink:href="#DejaVuSans-32"/>
       <use x="63.623047" xlink:href="#DejaVuSans-30"/>
       <use x="127.246094" xlink:href="#DejaVuSans-30"/>
       <use x="190.869141" xlink:href="#DejaVuSans-30"/>
       <use x="254.492188" xlink:href="#DejaVuSans-30"/>
      </g>
     </g>
    </g>
    <g id="ytick_6">
     <g id="line2d_14">
      <g>
       <use style="fill:#ffffff;stroke:#ffffff;stroke-width:0.8;" x="126" xlink:href="#m678529d3a3" y="229.690082"/>
      </g>
     </g>
     <g id="text_15">
      <!-- 25000 -->
      <g style="fill:#ffffff;" transform="translate(87.1875 233.489301)scale(0.1 -0.1)">
       <use xlink:href="#DejaVuSans-32"/>
       <use x="63.623047" xlink:href="#DejaVuSans-35"/>
       <use x="127.246094" xlink:href="#DejaVuSans-30"/>
       <use x="190.869141" xlink:href="#DejaVuSans-30"/>
       <use x="254.492188" xlink:href="#DejaVuSans-30"/>
      </g>
     </g>
    </g>
    <g id="ytick_7">
     <g id="line2d_15">
      <g>
       <use style="fill:#ffffff;stroke:#ffffff;stroke-width:0.8;" x="126" xlink:href="#m678529d3a3" y="178.781553"/>
      </g>
     </g>
     <g id="text_16">
      <!-- 30000 -->
      <g style="fill:#ffffff;" transform="translate(87.1875 182.580772)scale(0.1 -0.1)">
       <use xlink:href="#DejaVuSans-33"/>
       <use x="63.623047" xlink:href="#DejaVuSans-30"/>
       <use x="127.246094" xlink:href="#DejaVuSans-30"/>
       <use x="190.869141" xlink:href="#DejaVuSans-30"/>
       <use x="254.492188" xlink:href="#DejaVuSans-30"/>
      </g>
     </g>
    </g>
    <g id="ytick_8">
     <g id="line2d_16">
      <g>
       <use style="fill:#ffffff;stroke:#ffffff;stroke-width:0.8;" x="126" xlink:href="#m678529d3a3" y="127.873024"/>
      </g>
     </g>
     <g id="text_17">
      <!-- 35000 -->
      <g style="fill:#ffffff;" transform="translate(87.1875 131.672243)scale(0.1 -0.1)">
       <use xlink:href="#DejaVuSans-33"/>
       <use x="63.623047" xlink:href="#DejaVuSans-35"/>
       <use x="127.246094" xlink:href="#DejaVuSans-30"/>
       <use x="190.869141" xlink:href="#DejaVuSans-30"/>
       <use x="254.492188" xlink:href="#DejaVuSans-30"/>
      </g>
     </g>
    </g>
    <g id="ytick_9">
     <g id="line2d_17">
      <g>
       <use style="fill:#ffffff;stroke:#ffffff;stroke-width:0.8;" x="126" xlink:href="#m678529d3a3" y="76.964495"/>
      </g>
     </g>
     <g id="text_18">
      <!-- 40000 -->
      <g style="fill:#ffffff;" transform="translate(87.1875 80.763714)scale(0.1 -0.1)">
       <defs>
        <path d="M 2419 4116 
L 825 1625 
L 2419 1625 
L 2419 4116 
z
M 2253 4666 
L 3047 4666 
L 3047 1625 
L 3713 1625 
L 3713 1100 
L 3047 1100 
L 3047 0 
L 2419 0 
L 2419 1100 
L 313 1100 
L 313 1709 
L 2253 4666 
z
" id="DejaVuSans-34" transform="scale(0.015625)"/>
       </defs>
       <use xlink:href="#DejaVuSans-34"/>
       <use x="63.623047" xlink:href="#DejaVuSans-30"/>
       <use x="127.246094" xlink:href="#DejaVuSans-30"/>
       <use x="190.869141" xlink:href="#DejaVuSans-30"/>
       <use x="254.492188" xlink:href="#DejaVuSans-30"/>
      </g>
     </g>
    </g>
   </g>
   <g id="line2d_18">
    <path clip-path="url(#pca7b1d944f)" d="M 161.509091 202.606745 
L 161.908182 222.99052 
L 162.307272 260.367562 
L 162.506818 244.677553 
L 162.706363 263.452619 
L 162.905908 239.138705 
L 163.105454 249.167685 
L 163.304999 291.93085 
L 163.504544 267.616936 
L 163.903635 253.678181 
L 164.10318 231.522789 
L 164.302725 244.585918 
L 164.502271 243.7612 
L 164.901361 221.554899 
L 165.100907 220.628364 
L 165.499997 262.556629 
L 165.699543 267.627118 
L 166.098633 257.923952 
L 166.298179 235.951831 
L 166.697269 258.178495 
L 166.896815 251.051301 
L 167.09636 261.507913 
L 167.495451 293.987554 
L 167.694996 283.042221 
L 168.094087 309.148114 
L 168.293632 294.751182 
L 168.493177 305.228158 
L 168.892268 280.394977 
L 169.091813 273.267783 
L 169.490904 283.968756 
L 169.690449 261.813364 
L 169.889995 272.269976 
L 170.289085 307.488496 
L 170.488631 321.844702 
L 170.887721 277.340465 
L 171.087267 297.642787 
L 171.286812 285.893098 
L 171.486357 280.822609 
L 171.685903 260.275927 
L 171.885448 264.908603 
L 172.084993 248.974233 
L 172.284539 244.341557 
L 172.484084 264.643878 
L 172.683629 253.698545 
L 172.883175 252.201834 
L 173.08272 253.026552 
L 173.282265 252.53783 
L 173.481811 242.060855 
L 173.681356 253.006189 
L 173.880901 256.579967 
L 174.080446 267.036579 
L 174.279992 251.346571 
L 174.479537 261.823546 
L 174.679082 258.249767 
L 174.878628 247.793155 
L 175.477264 282.044414 
L 176.275445 352.359274 
L 176.47499 365.422402 
L 177.073626 380.756051 
L 177.273172 377.182273 
L 177.472717 364.119144 
L 177.672262 359.099563 
L 178.071353 334.246019 
L 178.270898 357.806486 
L 178.470444 333.492573 
L 178.669989 334.989284 
L 179.06908 314.035333 
L 179.268625 309.952469 
L 179.46817 324.308674 
L 179.667716 314.116787 
L 179.867261 314.605509 
L 180.066806 303.171453 
L 180.465897 327.974088 
L 180.665442 327.14937 
L 180.864988 316.204036 
L 181.064533 297.092975 
L 181.264078 307.284862 
L 181.463624 326.395924 
L 181.663169 327.220642 
L 182.46135 254.26872 
L 182.860441 288.285799 
L 183.059986 274.459043 
L 183.259532 281.586237 
L 183.658622 279.264808 
L 183.858168 258.962486 
L 184.057713 283.2764 
L 184.456803 261.793001 
L 184.656349 252.924735 
L 185.254985 283.683668 
L 185.45453 283.194946 
L 185.853621 285.618192 
L 186.053166 299.444949 
L 186.252711 300.269667 
L 186.452257 312.019355 
L 186.651802 332.321677 
L 186.851347 331.395142 
L 187.050893 338.522336 
L 187.250438 327.08828 
L 187.449983 346.199342 
L 188.248165 306.205601 
L 188.44771 315.073867 
L 188.647255 315.562589 
L 188.846801 331.252598 
L 189.046346 322.384332 
L 189.644982 260.917374 
L 189.844527 249.167685 
L 190.044073 244.535009 
L 190.243618 225.759944 
L 190.642709 259.481753 
L 191.041799 273.3696 
L 191.241345 251.397479 
L 191.640435 260.113019 
L 192.039526 250.460762 
L 192.239071 261.406096 
L 192.438617 260.581378 
L 192.638162 265.214054 
L 192.837707 275.405941 
L 193.436343 220.394185 
L 193.635889 240.696506 
L 193.835434 225.006498 
L 194.034979 246.907347 
L 194.234525 242.274671 
L 194.43407 240.77796 
L 194.633615 241.704495 
L 194.83316 252.161107 
L 195.032706 252.985825 
L 195.232251 244.117559 
L 195.431796 296.980976 
L 195.631342 283.917847 
L 195.830887 294.109735 
L 196.030432 283.917847 
L 196.229978 304.220169 
L 196.429523 288.53016 
L 196.629068 289.354878 
L 196.828614 278.959357 
L 197.626795 320.001813 
L 198.225431 282.461863 
L 198.424976 260.489742 
L 198.624522 280.680065 
L 198.824067 284.762929 
L 199.422703 336.883081 
L 199.821794 361.380265 
L 200.220884 329.542071 
L 200.42043 340.487405 
L 200.619975 338.990694 
L 201.019066 298.660957 
L 201.418156 285.709828 
L 201.617702 263.808978 
L 201.817247 279.498987 
L 202.016792 280.425522 
L 202.216338 256.865055 
L 202.415883 280.425522 
L 202.615428 270.030001 
L 202.814974 277.157195 
L 203.014519 290.220323 
L 203.214064 291.717034 
L 203.41361 276.027025 
L 203.613155 286.422547 
L 203.8127 262.86208 
L 204.012246 261.365369 
L 204.211791 241.175046 
L 204.411336 240.248511 
L 204.610882 263.808978 
L 204.810427 253.332003 
L 205.009972 275.232852 
L 205.409063 254.278902 
L 205.808153 276.973924 
L 206.007699 255.073075 
L 206.207244 262.200269 
L 206.406789 251.254935 
L 206.606335 247.681156 
L 206.80588 258.137768 
L 207.204971 287.389809 
L 207.404516 282.370228 
L 207.604061 296.726433 
L 207.803607 289.599239 
L 208.003152 311.500088 
L 208.402243 273.66487 
L 208.601788 289.354878 
L 208.801333 278.959357 
L 209.000879 299.149679 
L 209.399969 308.252124 
L 209.79906 287.318537 
L 209.998605 268.543472 
L 210.198151 280.29316 
L 210.597241 261.233007 
L 210.996332 300.64639 
L 211.195877 289.212334 
L 211.395423 299.668946 
L 211.594968 285.84219 
L 211.794513 289.415969 
L 211.994059 284.396388 
L 212.193604 285.322923 
L 212.393149 263.167531 
L 212.592695 262.240996 
L 212.991785 282.746951 
L 213.390876 244.789552 
L 213.590421 296.308983 
L 213.789967 277.533918 
L 213.989512 282.604407 
L 214.189057 301.715469 
L 214.388603 305.289248 
L 214.588148 295.09736 
L 214.787693 279.162991 
L 214.987238 294.852999 
L 215.186784 299.485676 
L 215.386329 297.988965 
L 215.585874 298.813683 
L 215.78542 300.310394 
L 215.984965 310.787369 
L 216.18451 291.676307 
L 216.384056 304.739436 
L 216.583601 295.87117 
L 216.783146 307.620859 
L 216.982692 297.225337 
L 217.182237 316.000402 
L 217.381782 312.426624 
L 217.581328 305.29943 
L 217.980418 264.368972 
L 218.379509 262.047543 
L 218.579054 251.570568 
L 218.7786 255.144347 
L 218.978145 244.199013 
L 219.17769 262.974079 
L 219.776326 203.614734 
L 220.574508 273.43069 
L 220.774053 249.116777 
L 220.973598 260.062111 
L 221.173144 244.127741 
L 221.372689 254.523263 
L 221.77178 225.291585 
L 221.971325 247.263707 
L 222.17087 246.337171 
L 222.370416 242.763393 
L 222.569961 220.791271 
L 222.769506 221.61599 
L 222.969052 319.482546 
L 223.168597 331.232234 
L 223.368142 350.343296 
L 223.767233 332.739127 
L 224.166324 300.554755 
L 224.365869 281.443693 
L 224.565414 277.869914 
L 224.76496 288.815248 
L 224.964505 307.92631 
L 225.363595 271.597983 
L 225.563141 270.101273 
L 225.762686 275.171762 
L 226.361322 306.724868 
L 226.560867 282.410955 
L 226.760413 306.724868 
L 226.959958 299.597674 
L 227.159503 301.094385 
L 227.359049 289.344697 
L 227.558594 269.042375 
L 227.758139 272.616154 
L 227.957685 284.05021 
L 228.356775 267.99366 
L 228.556321 288.183982 
L 228.955411 253.637454 
L 229.154957 257.211233 
L 229.753593 206.557247 
L 229.953138 220.384003 
L 230.352229 263.472982 
L 230.551774 252.527648 
L 230.751319 265.590777 
L 230.950865 260.571196 
L 231.15041 269.439462 
L 231.349955 291.340311 
L 231.549501 280.863336 
L 231.749046 280.038617 
L 231.948591 260.011202 
L 232.148137 260.937737 
L 232.347682 266.008227 
L 232.547227 275.090308 
L 232.746773 271.007444 
L 233.145863 283.205128 
L 233.345409 268.848923 
L 233.544954 283.205128 
L 233.744499 267.270758 
L 233.944045 271.353622 
L 234.14359 272.280158 
L 234.343135 262.08827 
L 234.542681 266.720946 
L 234.742226 262.08827 
L 235.141317 232.031875 
L 235.340862 253.932724 
L 235.540407 239.535792 
L 235.739952 240.024514 
L 236.338588 278.928812 
L 236.538134 260.153746 
L 236.737679 264.23661 
L 236.937224 245.125548 
L 237.53586 303.15109 
L 237.735406 304.6478 
L 237.934951 300.015124 
L 238.334042 276.760108 
L 238.932678 307.457951 
L 239.132223 291.523582 
L 239.331768 296.543163 
L 239.531314 315.654224 
L 239.930404 307.060865 
L 240.12995 318.49492 
L 240.329495 323.127596 
L 240.52904 319.044732 
L 240.728586 295.484265 
L 240.928131 286.615999 
L 241.327222 323.239595 
L 241.526767 328.310085 
L 241.726312 316.876029 
L 242.125403 280.323705 
L 242.324948 294.67991 
L 242.524494 284.488023 
L 242.724039 295.922079 
L 242.923584 285.893098 
L 243.12313 296.084986 
L 243.322675 300.16785 
L 243.52222 295.535174 
L 243.921311 270.701993 
L 244.519947 307.488496 
L 244.719492 283.928029 
L 244.919038 284.416751 
L 245.118583 289.436332 
L 245.717219 240.83905 
L 246.315855 308.903753 
L 246.5154 286.931632 
L 246.714945 297.388244 
L 246.914491 243.710291 
L 247.114036 248.729872 
L 247.313581 264.419881 
L 247.513127 264.908603 
L 247.912217 294.211552 
L 248.111763 293.386834 
L 248.311308 288.367253 
L 248.510853 287.878531 
L 248.909944 316.876029 
L 249.109489 297.764967 
L 249.309035 302.835457 
L 249.708125 332.40313 
L 249.907671 313.292069 
L 250.107216 332.40313 
L 250.306761 323.534865 
L 250.705852 291.360674 
L 250.905397 276.963742 
L 251.504033 340.691039 
L 251.703579 364.251506 
L 252.102669 327.92318 
L 252.302215 338.868514 
L 252.50176 333.798024 
L 252.701305 355.770145 
L 253.499487 299.312587 
L 253.699032 300.137305 
L 253.898577 305.207794 
L 254.098123 316.64185 
L 254.896304 272.035797 
L 255.295395 226.57448 
L 255.49494 225.749762 
L 255.694485 238.812891 
L 255.89403 219.701829 
L 256.093576 228.570095 
L 256.293121 214.743338 
L 256.692212 249.737861 
L 256.891757 250.226583 
L 257.091302 260.255563 
L 257.290848 279.030629 
L 257.490393 278.104093 
L 257.689938 288.581069 
L 258.089029 247.833882 
L 258.288574 251.916746 
L 258.48812 289.181789 
L 258.687665 293.264653 
L 258.88721 247.833882 
L 259.086756 261.660639 
L 259.286301 245.97063 
L 259.485846 264.745695 
L 259.685392 240.431782 
L 259.884937 251.377116 
L 260.084482 273.349237 
L 260.483573 227.816648 
L 260.683118 243.751018 
L 261.082209 211.149196 
L 261.281754 235.463109 
L 261.4813 236.389645 
L 261.680845 216.362229 
L 261.88039 235.473291 
L 262.079936 211.159378 
L 262.279481 206.526702 
L 262.479026 196.07009 
L 262.878117 163.437723 
L 263.277208 146.933178 
L 263.476753 168.905299 
L 263.676298 372.193237 
L 263.875844 372.681959 
L 264.075389 352.491636 
L 264.274934 365.554765 
L 264.674025 332.423494 
L 264.87357 208.675042 
L 265.073116 212.757906 
L 265.472206 243.516839 
L 265.671752 229.160634 
L 265.871297 240.910322 
L 266.070842 263.065714 
L 266.270387 252.609102 
L 266.469933 266.435859 
L 266.669478 257.567593 
L 267.068569 278.216092 
L 267.268114 267.270758 
L 267.467659 263.69698 
L 267.667205 268.329656 
L 267.86675 256.579967 
L 268.066295 260.153746 
L 268.265841 249.697134 
L 268.465386 261.13119 
L 268.664931 242.020128 
L 268.864477 256.41706 
L 269.263567 266.50713 
L 269.463113 259.379936 
L 269.662658 275.069945 
L 269.862203 275.894663 
L 270.061749 299.45513 
L 270.261294 289.263243 
L 270.460839 288.438525 
L 270.85993 251.886201 
L 271.059475 266.283133 
L 271.458566 257.129779 
L 272.057202 311.948083 
L 272.256747 300.514028 
L 272.855383 244.687735 
L 273.054929 264.71515 
L 273.254474 244.412829 
L 273.454019 239.780153 
L 273.85311 272.626336 
L 274.052655 262.597355 
L 274.252201 267.230032 
L 274.451746 263.656253 
L 274.651291 273.84814 
L 274.850837 296.003532 
L 275.050382 285.526557 
L 275.249927 255.571978 
L 275.449473 274.347044 
L 275.649018 265.478778 
L 276.048109 307.824493 
L 276.447199 292.358482 
L 276.646744 297.428971 
L 276.84629 283.072766 
L 277.045835 297.469698 
L 277.24538 295.972987 
L 277.644471 309.473929 
L 278.043562 353.815258 
L 278.243107 329.501344 
L 278.442652 328.676626 
L 278.642198 343.032831 
L 279.440379 282.757133 
L 279.639924 284.253844 
L 279.83947 299.943852 
L 280.039015 289.48724 
L 280.23856 267.331849 
L 280.438106 281.158605 
L 280.637651 271.129625 
L 280.837196 255.439616 
L 281.036742 275.741938 
L 281.236287 275.253216 
L 281.635378 300.10676 
L 281.834923 295.03627 
L 282.034468 295.962805 
L 282.234014 281.6066 
L 282.633104 316.112401 
L 282.83265 338.267793 
L 283.032195 343.287374 
L 283.23174 322.985053 
L 283.431286 347.298966 
L 283.630831 352.369456 
L 283.830376 333.59439 
L 284.029922 334.083112 
L 284.429012 294.944635 
L 284.628558 293.447924 
L 284.828103 269.134011 
L 285.027648 265.560232 
L 285.227194 243.40484 
L 285.426739 262.179906 
L 285.626284 263.676616 
L 285.82583 259.593752 
L 286.22492 292.144666 
L 286.424466 287.074176 
L 286.823556 263.615526 
L 287.023101 279.549896 
L 287.222647 272.422702 
L 287.621737 292.643569 
L 287.821283 288.010893 
L 288.020828 308.313215 
L 288.220373 313.383704 
L 288.819009 270.589994 
L 289.417645 307.233954 
L 289.816736 283.378217 
L 290.016281 293.570104 
L 290.415372 255.907975 
L 290.614917 265.936955 
L 290.814463 255.45998 
L 291.014008 267.209668 
L 291.213553 260.082474 
L 291.413099 270.477996 
L 292.011735 239.433975 
L 292.21128 263.747888 
L 292.410825 262.251177 
L 293.009461 199.603142 
L 293.209007 204.235818 
L 293.608097 234.903116 
L 293.807643 306.19542 
L 294.007188 284.294571 
L 294.406279 317.140753 
L 294.605824 306.19542 
L 294.805369 284.223299 
L 295.004915 294.700274 
L 295.20446 275.925208 
L 295.404005 296.115531 
L 295.803096 253.932724 
L 296.002641 243.455749 
L 296.202187 252.324014 
L 296.601277 291.818851 
L 297.000368 274.235045 
L 297.199913 288.631977 
L 297.399458 293.702467 
L 297.599004 304.6478 
L 297.798549 309.280477 
L 298.19764 300.564936 
L 298.397185 284.874928 
L 298.796276 326.874464 
L 298.995821 330.957328 
L 299.195366 320.765441 
L 299.394912 319.940723 
L 299.594457 330.397334 
L 299.794002 331.32387 
L 299.993548 353.479261 
L 300.193093 360.606456 
L 300.392638 346.209524 
L 300.592184 322.649056 
L 300.991274 314.004788 
L 301.19082 314.49351 
L 301.390365 315.318228 
L 301.58991 295.290813 
L 301.789456 298.864592 
L 302.188546 297.449334 
L 302.388092 297.938056 
L 302.587637 296.441346 
L 302.787182 292.358482 
L 302.986728 308.04849 
L 303.186273 313.068071 
L 303.784909 260.703558 
L 303.984454 262.200269 
L 304.184 273.949957 
L 304.58309 271.628528 
L 304.782636 290.73959 
L 304.982181 281.871325 
L 305.181726 267.515119 
L 305.580817 305.431792 
L 305.780362 316.865847 
L 306.179453 292.093757 
L 306.378998 316.407671 
L 306.578544 325.275936 
L 306.778089 309.341567 
L 306.977634 320.286901 
L 307.177179 339.061966 
L 307.57627 295.188996 
L 307.775815 291.615217 
L 307.975361 295.188996 
L 308.174906 305.217976 
L 308.374451 294.272642 
L 308.573997 316.173491 
L 308.773542 300.483483 
L 308.973087 301.980193 
L 309.172633 298.406415 
L 309.372178 284.05021 
L 309.571723 297.113338 
L 309.970814 305.828878 
L 310.170359 305.340156 
L 310.369905 281.779689 
L 310.768995 270.569631 
L 310.968541 280.761519 
L 311.168086 281.586237 
L 311.367631 262.475175 
L 311.567177 257.842499 
L 311.766722 233.528585 
L 311.966267 232.703867 
L 312.165813 222.674887 
L 312.365358 237.031092 
L 312.564903 226.635571 
L 312.764449 204.480179 
L 313.163539 231.980966 
L 313.363085 309.117569 
L 313.56263 298.172236 
L 313.961721 296.420982 
L 314.161266 287.552716 
L 314.360811 271.862708 
L 314.759902 298.986772 
L 314.959447 304.006353 
L 315.158993 318.403285 
L 315.358538 307.92631 
L 315.558083 319.675998 
L 315.757629 319.187276 
L 315.957174 319.675998 
L 316.356265 352.104731 
L 316.55581 336.170362 
L 316.755355 331.150781 
L 316.954901 309.178659 
L 317.154446 304.10817 
L 317.353991 304.932888 
L 317.553536 289.24288 
L 317.753082 304.932888 
L 317.952627 294.476276 
L 318.152172 289.8436 
L 318.750808 328.208268 
L 319.149899 303.782355 
L 319.349444 308.852845 
L 319.54899 232.24569 
L 319.748535 235.819469 
L 319.94808 254.930531 
L 320.147626 255.419253 
L 320.746262 299.506039 
L 320.945807 277.533918 
L 321.145352 299.506039 
L 321.344898 280.730973 
L 321.544443 292.165029 
L 321.743988 315.725496 
L 321.943534 305.268884 
L 322.143079 325.459207 
L 322.342624 305.268884 
L 322.54217 301.695106 
L 322.741715 313.444794 
L 322.94126 294.333732 
L 323.140806 295.158451 
L 323.340351 291.075587 
L 323.539896 280.883699 
L 323.739442 291.340311 
L 324.338078 262.159542 
L 324.537623 261.334824 
L 324.936714 297.459516 
L 325.136259 292.439935 
L 325.335804 281.983323 
L 325.53535 292.175211 
L 325.734895 287.542535 
L 325.93444 307.56995 
L 326.333531 268.319474 
L 326.732622 245.054276 
L 326.932167 259.410482 
L 327.131712 247.976426 
L 327.331258 252.05929 
L 327.530803 227.745376 
L 327.929893 262.739899 
L 328.129439 267.75948 
L 328.328984 263.676616 
L 328.728075 227.439925 
L 328.92762 241.836857 
L 329.326711 205.539076 
L 329.526256 209.62194 
L 329.925347 250.633851 
L 330.324437 206.883061 
L 330.523983 208.379772 
L 330.723528 213.450262 
L 330.923073 232.225327 
L 331.122619 221.748352 
L 331.322164 225.32213 
L 331.521709 220.251641 
L 331.721255 208.817585 
L 331.9208 213.888075 
L 332.319891 185.084029 
L 332.519436 195.540641 
L 332.918527 241.2565 
L 333.118072 221.229085 
L 333.517163 253.169096 
L 333.716708 238.812891 
L 333.916253 245.940085 
L 334.115799 295.158451 
L 334.315344 305.350338 
L 334.514889 304.52562 
L 334.714435 309.545201 
L 334.91398 310.033923 
L 335.113525 295.636991 
L 335.313071 299.719855 
L 335.512616 289.24288 
L 335.712161 251.855656 
L 335.911707 255.93852 
L 336.111252 266.130407 
L 336.310797 254.380719 
L 336.709888 222.002894 
L 336.909433 211.811007 
L 337.108979 226.167212 
L 337.308524 225.240677 
L 337.508069 235.717652 
L 337.707614 225.26104 
L 337.90716 221.687262 
L 338.106705 201.496939 
L 338.30625 221.687262 
L 338.505796 202.5762 
L 338.705341 207.208876 
L 338.904886 218.642931 
L 339.104432 196.67081 
L 339.303977 218.642931 
L 339.503522 219.131653 
L 339.703068 218.642931 
L 340.102158 239.495065 
L 340.301704 258.27013 
L 340.700794 215.924416 
L 340.90034 216.413138 
L 341.099885 236.603461 
L 341.29943 226.146849 
L 341.498976 204.174728 
L 341.698521 224.477049 
L 341.898066 229.49663 
L 342.297157 217.73676 
L 342.696248 177.244116 
L 342.895793 199.399508 
L 343.095338 197.902797 
L 343.294884 208.359409 
L 343.494429 197.902797 
L 343.693974 343.195739 
L 343.89352 342.269203 
L 344.093065 328.442447 
L 344.29261 304.128533 
L 344.492156 304.617255 
L 344.691701 284.314934 
L 344.891246 294.710456 
L 345.090792 282.960767 
L 345.290337 281.464056 
L 345.489882 292.898112 
L 345.689428 317.212025 
L 345.888973 297.18461 
L 346.088518 243.913925 
L 346.288064 238.894344 
L 346.487609 218.592023 
L 346.687154 217.095312 
L 347.086245 176.164855 
L 347.28579 194.349381 
L 347.485336 197.098442 
L 347.684881 195.693367 
L 347.884426 192.60831 
L 348.682607 229.364268 
L 349.081698 246.520442 
L 349.480789 217.767305 
L 349.680334 218.69384 
L 349.879879 233.050045 
L 350.079425 222.57307 
L 350.27897 233.518404 
L 350.478515 253.708726 
L 350.678061 252.782191 
L 350.877606 238.425986 
L 351.077151 248.821507 
L 351.276697 237.876174 
L 351.675787 262.688991 
L 351.875333 264.185702 
L 352.074878 275.619757 
L 352.274423 271.536893 
L 352.473969 261.507913 
L 352.673514 280.282978 
L 352.873059 278.786268 
L 353.072605 274.153592 
L 353.471695 245.97063 
L 353.671241 250.990211 
L 353.870786 240.594689 
L 354.070331 250.623669 
L 354.269877 240.431782 
L 354.469422 262.403903 
L 354.668967 251.947291 
L 354.868513 229.97517 
L 355.068058 234.058034 
L 355.267603 235.554745 
L 355.467149 235.066023 
L 356.065785 203.014013 
L 356.26533 180.858621 
L 356.464875 181.347343 
L 356.664421 192.292677 
L 356.863966 187.273096 
L 357.063511 197.729708 
L 357.263057 192.659218 
L 357.462602 206.485975 
L 357.861693 185.511661 
L 358.061238 198.686788 
L 358.260783 221.055996 
L 358.460328 221.055996 
L 358.659874 226.075577 
L 358.859419 237.825265 
L 359.058964 303.27327 
L 359.458055 336.211088 
L 359.6576 204.887447 
L 359.857146 199.867866 
L 360.256236 176.511033 
L 360.854872 220.628364 
L 361.054418 244.942278 
L 361.253963 224.751955 
L 361.453508 243.863017 
L 361.852599 225.790489 
L 362.052144 227.867557 
L 362.25169 226.57448 
L 362.451235 213.643714 
L 362.65078 224.120689 
L 362.850326 225.6174 
L 363.049871 247.518249 
L 363.249416 293.580286 
L 363.648507 281.820416 
L 363.848052 259.848295 
L 364.047598 281.25024 
L 364.247143 262.139179 
L 364.646234 283.2764 
L 364.845779 282.451682 
L 365.045324 302.642004 
L 365.444415 271.99507 
L 365.64396 261.803182 
L 365.843506 280.578248 
L 366.043051 275.558667 
L 366.242596 274.061956 
L 366.442142 258.127587 
L 366.641687 257.638865 
L 366.841232 233.324951 
L 367.040778 243.353931 
L 367.240323 232.408598 
L 367.439868 213.633532 
L 367.639414 224.578866 
L 367.838959 248.892779 
L 368.038504 237.947446 
L 368.23805 260.102838 
L 368.437595 260.927556 
L 368.63714 250.898575 
L 368.836685 259.766841 
L 369.036231 258.942123 
L 369.435321 296.512617 
L 369.634867 296.023896 
L 369.834412 291.004315 
L 370.033957 312.976436 
L 370.233503 313.465158 
L 370.433048 303.27327 
L 370.632593 308.292851 
L 370.832139 297.347517 
L 371.031684 278.236456 
L 371.231229 273.216875 
L 371.430775 253.189459 
L 371.63032 260.316653 
L 371.829865 249.921132 
L 372.029411 263.747888 
L 372.428501 240.930685 
L 372.628047 230.474074 
L 372.827592 252.629465 
L 373.027137 238.232533 
L 373.426228 264.318064 
L 373.625773 268.95074 
L 373.825319 290.851589 
L 374.024864 295.87117 
L 374.224409 306.816504 
L 374.423955 305.991786 
L 374.6235 300.972205 
L 374.823045 304.545983 
L 375.022591 315.022959 
L 375.222136 315.847677 
L 375.421681 312.273898 
L 375.621227 322.73051 
L 375.820772 218.368025 
L 376.020317 232.194782 
L 376.419408 187.853453 
L 376.818499 209.194309 
L 377.417135 259.889022 
L 377.816225 216.301139 
L 378.015771 240.615053 
L 378.414861 262.821353 
L 378.813952 295.952624 
L 379.013497 296.441346 
L 379.213042 307.875401 
L 379.412588 287.57308 
L 379.612133 292.643569 
L 379.811678 280.893881 
L 380.011224 260.703558 
L 380.210769 260.214836 
L 380.809405 230.443529 
L 381.00895 235.076205 
L 381.208496 223.642149 
L 381.408041 243.832472 
L 381.807132 219.060381 
L 382.006677 242.620849 
L 382.206222 244.117559 
L 382.605313 232.357689 
L 382.804858 228.274825 
L 383.004404 227.34829 
L 383.203949 249.503682 
L 383.403494 250.3284 
L 383.802585 202.454019 
L 384.00213 224.42614 
L 384.201676 220.852362 
L 384.401221 225.871943 
L 384.600766 241.561951 
L 384.800312 222.450889 
L 384.999857 246.011357 
L 385.199402 244.514646 
L 385.598493 277.60519 
L 385.798038 257.414867 
L 386.197129 292.460299 
L 386.396674 292.94902 
L 386.59622 303.894354 
L 386.795765 304.820889 
L 386.99531 309.453566 
L 387.194856 296.390437 
L 387.394401 297.887148 
L 387.793492 255.215619 
L 387.993037 254.726897 
L 388.192582 266.160952 
L 388.392128 269.734731 
L 388.990763 320.775622 
L 389.190309 310.298647 
L 389.389854 323.361776 
L 389.788945 287.644352 
L 389.98849 282.624771 
L 390.387581 247.40625 
L 390.587126 269.561642 
L 390.786671 274.581223 
L 390.986217 298.14169 
L 391.185762 242.956845 
L 391.385307 246.530624 
L 391.584853 226.340301 
L 391.784398 248.495693 
L 391.983943 228.468278 
L 392.183489 238.497258 
L 392.582579 269.632914 
L 392.782125 259.155939 
L 393.181215 301.155475 
L 393.380761 300.666753 
L 393.580306 311.123365 
L 393.779851 289.151244 
L 393.979397 285.577465 
L 394.378487 251.560386 
L 394.578033 252.049108 
L 394.977123 260.255563 
L 395.176669 248.505875 
L 395.376214 292.592661 
L 395.575759 281.158605 
L 395.775305 285.241469 
L 395.97485 295.698081 
L 396.174395 286.829815 
L 396.373941 285.333105 
L 396.573486 271.506348 
L 396.773031 273.003059 
L 397.172122 235.096568 
L 397.371667 255.123983 
L 397.571213 244.667372 
L 397.770758 243.740836 
L 397.970303 242.244126 
L 398.369394 199.908593 
L 398.568939 221.880714 
L 398.768485 201.690391 
L 399.167575 230.922069 
L 399.36712 208.949948 
L 399.566666 208.125229 
L 399.965756 235.819469 
L 400.165302 240.452145 
L 400.364847 236.206374 
L 400.564392 229.527175 
L 400.763938 230.45371 
L 400.963483 216.097505 
L 401.163028 223.224699 
L 401.562119 183.811316 
L 401.761664 178.791735 
L 402.160755 214.75352 
L 402.3603 201.690391 
L 402.559846 213.124447 
L 402.759391 201.690391 
L 403.158482 220.587637 
L 403.557572 262.750081 
L 403.757118 261.925363 
L 404.156208 296.919886 
L 404.355754 244.17865 
L 404.754844 209.377579 
L 404.95439 213.460443 
L 405.153935 191.305051 
L 405.35348 200.173317 
L 405.553026 191.305051 
L 405.952116 208.461226 
L 406.151662 195.398097 
L 406.351207 200.468587 
L 406.550752 199.979865 
L 406.750298 200.9064 
L 406.949843 221.096723 
L 407.149388 210.151389 
L 407.348934 210.640111 
L 407.548479 200.611131 
L 407.748024 209.479396 
L 408.147115 236.3591 
L 408.546206 215.741145 
L 408.745751 227.490834 
L 408.945296 213.664077 
L 409.144842 210.090299 
L 409.344387 223.917055 
L 409.543932 228.549731 
L 409.743477 239.006343 
L 409.943023 218.81602 
L 410.142568 230.250076 
L 410.541659 274.306317 
L 410.741204 273.481599 
L 411.33984 238.120535 
L 411.539385 248.149515 
L 411.738931 247.22298 
L 412.337567 221.249448 
L 412.537112 235.64638 
L 412.936203 199.918775 
L 413.335293 220.587637 
L 413.534839 213.460443 
L 413.734384 214.285161 
L 413.933929 237.845629 
L 414.133475 227.368653 
L 414.33302 246.143719 
L 414.532565 221.829805 
L 414.732111 232.775139 
L 414.931656 214.000074 
L 415.131201 218.63275 
L 415.330747 207.198694 
L 415.530292 221.025451 
L 415.729837 197.464983 
L 416.328473 246.489897 
L 416.528019 260.846102 
L 416.927109 233.956217 
L 417.525745 288.94761 
L 417.725291 268.757287 
L 417.924836 272.341248 
L 418.124381 258.514491 
L 418.323927 280.669883 
L 418.523472 270.274362 
L 418.723017 271.09908 
L 419.122108 298.538777 
L 419.321653 279.763711 
L 419.521198 289.955599 
L 419.720744 294.038463 
L 420.119834 273.84814 
L 420.31938 263.371165 
L 420.518925 239.057252 
L 420.71847 258.168313 
L 420.918016 249.300048 
L 421.117561 253.932724 
L 421.317106 273.960139 
L 421.516652 263.768252 
L 421.915742 256.111609 
L 422.115288 269.174737 
L 422.314833 268.350019 
L 422.514378 279.295353 
L 422.913469 248.159697 
L 423.31256 231.655152 
L 423.512105 242.132127 
L 423.71165 242.620849 
L 423.911196 237.988173 
L 424.110741 238.812891 
L 424.509832 274.937583 
L 424.709377 252.965462 
L 424.908922 254.462173 
L 425.308013 222.287982 
L 425.507558 226.370846 
L 425.707104 236.827458 
L 426.106194 283.113493 
L 426.30574 288.133074 
L 426.505285 299.567129 
L 426.70483 241.531406 
L 426.904376 228.468278 
L 427.503012 259.899203 
L 427.702557 254.879622 
L 427.902102 266.629311 
L 428.101648 261.996635 
L 428.301193 284.152027 
L 428.500738 284.976745 
L 428.700284 298.039873 
L 429.099374 274.031411 
L 429.29892 287.09454 
L 429.498465 279.967346 
L 429.69801 291.401401 
L 429.897555 286.330912 
L 430.296646 243.873198 
L 431.094827 202.382747 
L 431.294373 226.696661 
L 431.493918 231.329337 
L 431.693463 218.266208 
L 432.092554 256.111609 
L 432.491645 219.559285 
L 432.69119 226.686479 
L 432.890735 238.436168 
L 433.489371 292.959202 
L 433.688917 278.602997 
L 433.888462 298.630412 
L 434.088007 287.196357 
L 434.287553 298.14169 
L 434.487098 276.169569 
L 434.686643 277.66628 
L 435.085734 310.095013 
L 435.285279 231.003522 
L 435.68437 206.170342 
L 436.283006 234.658755 
L 436.482551 220.831998 
L 436.682097 236.522007 
L 436.881642 235.595472 
L 437.081187 219.905463 
L 437.280733 220.831998 
L 437.480278 206.435066 
L 437.679823 216.830588 
L 437.879369 206.435066 
L 438.078914 230.74898 
L 438.278459 241.205592 
L 438.478005 232.337326 
L 438.67755 254.309447 
L 438.877095 230.74898 
L 439.076641 245.145912 
L 439.276186 232.082783 
L 439.475731 235.656562 
L 439.874822 209.825574 
L 440.074367 231.980966 
L 440.273912 207.667053 
L 440.473458 219.416741 
L 440.673003 238.191807 
L 440.872548 217.889485 
L 441.072094 237.916901 
L 441.271639 234.343122 
L 441.471184 215.568056 
L 441.67073 229.394813 
L 441.870275 228.906091 
L 442.468911 279.855347 
L 442.868002 247.009164 
L 443.267092 284.966563 
L 443.466638 286.463274 
L 443.666183 276.434294 
L 443.865728 287.868349 
L 444.065274 282.79786 
L 444.264819 301.908922 
L 444.464364 309.036116 
L 444.66391 232.06242 
L 444.863455 221.870532 
L 445.063 228.997726 
L 445.262546 249.188049 
L 445.462091 242.060855 
L 445.661636 246.143719 
L 445.861182 233.08059 
L 446.060727 246.143719 
L 446.260272 225.953396 
L 446.459818 315.145139 
L 446.659363 333.920205 
L 446.858908 310.359737 
L 447.058454 320.836713 
L 447.257999 316.204036 
L 447.457544 338.104886 
L 447.65709 202.99365 
L 448.05618 236.583097 
L 448.255726 238.079808 
L 448.455271 257.19087 
L 448.654816 233.630402 
L 448.854362 248.027334 
L 449.053907 246.530624 
L 449.253452 241.460134 
L 449.452998 265.774048 
L 449.652543 243.618656 
L 449.852088 254.095631 
L 450.051634 250.012767 
L 450.251179 260.469379 
L 450.450724 256.8956 
L 450.650269 284.202935 
L 451.04936 246.357535 
L 451.248905 241.337954 
L 451.448451 246.357535 
L 451.647996 245.430999 
L 452.047087 269.439462 
L 452.246632 264.419881 
L 452.446177 264.908603 
L 452.645723 276.342658 
L 452.845268 271.272169 
L 453.044813 260.326835 
L 453.443904 225.016679 
L 453.643449 230.03626 
L 453.842995 230.962796 
L 454.04254 241.358317 
L 454.242085 221.167995 
L 454.441631 221.992713 
L 454.840721 204.469997 
L 455.439357 152.278573 
L 455.638903 176.592487 
L 455.838448 181.225163 
L 456.037993 180.298627 
L 456.237539 166.471871 
L 456.437084 167.398406 
L 456.636629 163.203543 
L 457.03572 189.614888 
L 457.235265 189.614888 
L 457.434811 179.137913 
L 457.634356 189.3298 
L 457.833901 177.895745 
L 458.033447 177.407023 
L 458.232992 189.156711 
L 458.632083 230.423165 
L 458.831628 208.267773 
L 459.031173 203.248192 
L 459.230719 225.403584 
L 459.430264 203.502735 
L 459.629809 208.573224 
L 459.829355 189.798159 
L 460.228445 222.92943 
L 460.42799 218.296753 
L 460.627536 209.428488 
L 461.226172 235.911105 
L 461.425717 224.161416 
L 461.625262 239.851425 
L 461.824808 244.484101 
L 462.024353 233.050045 
L 462.223898 246.113174 
L 462.423444 223.957782 
L 462.622989 245.858631 
L 462.822534 226.747569 
L 463.42117 281.657509 
L 463.620716 301.847831 
L 463.820261 283.072766 
L 464.019806 279.498987 
L 464.219352 278.002276 
L 464.418897 263.096259 
L 464.618442 262.607537 
L 464.817988 243.832472 
L 465.017533 247.915336 
L 465.217078 258.107223 
L 465.416624 249.238957 
L 465.616169 263.065714 
L 465.815714 251.631658 
L 466.214805 285.037835 
L 466.41435 264.735514 
L 466.613896 260.65265 
L 466.813441 240.625234 
L 467.012986 237.051456 
L 467.412077 215.140425 
L 467.611622 228.203553 
L 468.010713 203.4111 
L 468.210258 204.235818 
L 468.409804 223.010883 
L 468.609349 212.818996 
L 468.808894 233.121317 
L 469.00844 210.965925 
L 469.207985 225.362857 
L 469.40753 230.382438 
L 469.607076 239.250704 
L 469.806621 227.501016 
L 470.006166 237.896537 
L 470.205712 262.210451 
L 470.405257 260.71374 
L 470.804347 241.388862 
L 471.203438 200.641676 
L 471.602529 230.860978 
L 471.802074 210.833563 
L 472.001619 205.813982 
L 472.201165 192.750854 
L 472.40071 208.685223 
L 472.799801 189.869431 
L 472.999346 176.96921 
L 473.198891 176.96921 
L 473.398437 187.446185 
L 473.797527 220.78109 
L 474.196618 245.166275 
L 474.396163 295.93226 
L 474.795254 255.185074 
L 474.994799 262.312268 
L 475.39389 264.063521 
L 475.593435 264.063521 
L 475.792981 285.96437 
L 475.992526 278.837176 
L 476.192071 293.193381 
L 476.391617 271.03799 
L 476.591162 281.229877 
L 476.790707 305.543791 
L 476.990253 301.460926 
L 477.189798 290.515593 
L 477.588889 316.34658 
L 477.788434 315.420045 
L 478.187525 292.236301 
L 478.38707 273.125239 
L 478.586615 277.208103 
L 478.786161 273.125239 
L 478.985706 295.09736 
L 479.185251 294.272642 
L 479.384797 274.08232 
L 479.584342 281.209514 
L 479.783887 261.182098 
L 479.983433 256.111609 
L 480.182978 261.182098 
L 480.382523 247.355342 
L 480.582069 263.289711 
L 481.180704 230.850797 
L 481.579795 257.017781 
L 481.77934 246.561169 
L 481.978886 265.336234 
L 482.178431 243.435385 
L 482.377976 234.567119 
L 482.577522 248.393876 
L 482.777067 229.61881 
L 483.176158 231.370064 
L 483.575248 253.301458 
L 483.774794 287.797077 
L 484.173884 290.118506 
L 484.37343 267.963114 
L 484.572975 275.090308 
L 484.77252 267.963114 
L 484.972066 267.138396 
L 485.171611 256.193062 
L 485.371156 260.825739 
L 485.770247 262.576992 
L 485.969792 286.890905 
L 486.169338 287.379627 
L 486.368883 294.506821 
L 486.767974 258.443219 
L 486.967519 282.757133 
L 487.36661 258.371948 
L 487.566155 254.289084 
L 487.965246 209.947755 
L 488.164791 220.42473 
L 488.364336 242.396851 
L 488.763427 213.226264 
L 488.962972 208.593588 
L 489.362063 246.51026 
L 489.561608 239.383066 
L 489.960699 262.200269 
L 490.160244 255.073075 
L 490.35979 255.073075 
L 490.559335 244.5961 
L 490.75888 254.991621 
L 490.958426 279.305535 
L 491.157971 274.285954 
L 491.956152 295.076997 
L 492.155697 270.763083 
L 492.355243 270.763083 
L 492.554788 281.708417 
L 492.754333 258.14795 
L 493.153424 285.608011 
L 493.352969 275.212489 
L 493.552515 299.526402 
L 493.75206 295.952624 
L 493.951605 295.952624 
L 494.151151 300.035488 
L 494.350696 241.063048 
L 494.749787 277.432101 
L 495.148877 245.064458 
L 495.348423 245.990993 
L 495.747513 263.513709 
L 495.947059 259.93993 
L 496.146604 248.190242 
L 496.346149 253.209823 
L 496.545695 275.181944 
L 496.74524 275.181944 
L 496.944785 286.615999 
L 497.144331 263.055532 
L 497.343876 258.422856 
L 497.543421 244.5961 
L 497.742967 222.623978 
L 497.942512 224.120689 
L 498.142057 222.623978 
L 498.341603 233.569312 
L 498.541148 223.540332 
L 498.740693 228.173008 
L 499.339329 187.771999 
L 499.73842 220.709818 
L 499.937965 231.16643 
L 500.137511 231.655152 
L 500.337056 241.684132 
L 500.536601 234.556938 
L 500.736147 258.870851 
L 500.935692 248.475329 
L 501.135237 270.447451 
L 501.334782 256.620694 
L 501.534328 258.117405 
L 501.733873 247.64043 
L 502.132964 203.299101 
L 502.332509 213.776076 
L 502.532054 203.319464 
L 502.7316 203.319464 
L 503.13069 247.935699 
L 503.330236 232.00133 
L 503.529781 232.826048 
L 503.729326 251.601113 
L 503.928872 256.671603 
L 504.128417 256.182881 
L 504.327962 251.1633 
L 504.527508 250.338582 
L 504.727053 235.94165 
L 504.926598 211.627736 
L 505.126144 242.254307 
L 505.325689 246.337171 
L 505.525234 246.825893 
L 505.924325 267.779844 
L 506.12387 267.779844 
L 506.323416 268.604562 
L 506.522961 267.107851 
L 506.922052 225.841397 
L 507.121597 220.770908 
L 507.321142 210.293933 
L 507.520688 230.321348 
L 507.720233 206.760881 
L 507.919778 225.871943 
L 508.119324 215.842962 
L 508.318869 230.199168 
L 508.518414 235.218749 
L 508.71796 305.879787 
L 508.917505 324.654852 
L 509.11705 311.591724 
L 509.516141 350.730201 
L 509.715686 340.334679 
L 509.915232 318.43383 
L 510.114777 338.736151 
L 510.713413 288.845793 
L 510.912958 299.241315 
L 511.112504 279.213899 
L 511.312049 283.296763 
L 511.711139 261.833728 
L 511.910685 241.643405 
L 512.11023 260.754467 
L 512.309775 261.579185 
L 512.908411 302.723458 
L 513.107957 292.266846 
L 513.307502 302.743821 
L 513.706593 257.027962 
L 513.906138 279.183354 
L 514.105683 275.10049 
L 514.305229 273.603779 
L 514.704319 240.095786 
L 514.903865 245.115367 
L 515.10341 234.923479 
L 515.502501 264.979875 
L 515.901591 299.638401 
L 516.101137 299.638401 
L 516.300682 283.948393 
L 516.500227 284.437114 
L 516.699773 274.041593 
L 516.899318 273.552871 
L 517.298409 306.959048 
L 517.497954 311.041912 
L 517.697499 305.971422 
L 517.897045 283.999301 
L 518.296135 307.254317 
L 518.495681 298.386051 
L 518.695226 276.23066 
L 518.894771 275.405941 
L 519.094317 276.23066 
L 519.493407 311.276091 
L 519.892498 303.619448 
L 520.092043 308.689938 
L 520.291589 301.562744 
L 520.690679 259.726114 
L 520.890225 273.552871 
L 521.08977 259.155939 
L 521.289315 259.155939 
L 521.488861 252.028745 
L 521.688406 238.201988 
L 521.887951 248.678964 
L 522.287042 229.333723 
L 522.686132 248.393876 
L 522.885678 248.393876 
L 523.085223 267.504938 
L 523.284768 245.604088 
L 523.683859 267.087488 
L 523.883404 267.087488 
L 524.08295 263.004624 
L 524.282495 263.004624 
L 524.48204 255.87743 
L 524.681586 271.811799 
L 524.881131 261.416278 
L 525.280222 260.00102 
L 525.679312 283.093129 
L 525.878858 274.224863 
L 526.277948 306.826685 
L 526.477494 306.826685 
L 526.677039 327.129007 
L 527.07613 306.908139 
L 527.275675 306.908139 
L 527.47522 307.396861 
L 528.073856 268.105658 
L 528.273402 290.006507 
L 528.472947 297.133702 
L 528.872038 263.075896 
L 529.071583 254.20763 
L 529.271128 286.890905 
L 529.470674 297.286427 
L 529.670219 317.588748 
L 530.06931 271.872889 
L 530.268855 276.505566 
L 530.4684 262.678809 
L 530.667946 240.77796 
L 530.867491 259.889022 
L 531.067036 263.971886 
L 531.466127 290.189778 
L 531.665672 266.629311 
L 531.865218 273.756505 
L 532.064763 249.442592 
L 532.264308 269.744913 
L 532.463853 270.233635 
L 532.663399 255.87743 
L 532.862944 255.052711 
L 533.062489 269.408917 
L 533.262035 258.931941 
L 533.46158 282.166594 
L 533.661125 273.298328 
L 533.860671 293.325744 
L 534.060216 289.751965 
L 534.459307 253.627273 
L 534.658852 267.983478 
L 534.858397 249.208412 
L 535.057943 269.510734 
L 535.257488 269.999456 
L 535.457033 269.999456 
L 535.656579 270.925991 
L 535.856124 278.053185 
L 536.055669 276.556474 
L 536.255215 276.067752 
L 536.45476 276.556474 
L 536.853851 310.573553 
L 537.252941 274.856129 
L 537.452487 290.790499 
L 537.652032 290.790499 
L 537.851577 300.819479 
L 538.051123 322.720328 
L 538.250668 312.263716 
L 538.849304 350.261842 
L 539.048849 345.629166 
L 539.44794 355.332332 
L 539.647485 340.9354 
L 539.847031 352.685088 
L 540.046576 349.11131 
L 540.246121 348.184774 
L 540.645212 307.101592 
L 540.844757 308.028127 
L 541.044303 326.803192 
L 541.243848 312.446987 
L 541.443393 307.376498 
L 541.642939 329.348619 
L 541.842484 307.376498 
L 542.042029 320.439626 
L 542.241574 324.013405 
L 542.44112 313.53643 
L 542.640665 309.453566 
L 542.84021 285.139652 
L 543.039756 286.636363 
L 543.438846 250.012767 
L 543.638392 261.446823 
L 543.837937 261.446823 
L 544.037482 285.00729 
L 544.237028 280.374614 
L 544.436573 280.374614 
L 545.234754 220.618182 
L 545.4343 198.717333 
L 545.633845 220.872725 
L 546.032936 220.872725 
L 546.232481 200.682402 
L 546.432026 224.996316 
L 546.631572 229.628992 
L 546.831117 248.740054 
L 547.030662 224.42614 
L 547.230208 223.601422 
L 547.629298 250.491307 
L 547.828844 251.316025 
L 548.227934 220.770908 
L 548.42748 239.545974 
L 548.627025 217.390582 
L 548.82657 221.473446 
L 549.026116 231.950421 
L 549.225661 208.389954 
L 549.425206 219.824009 
L 549.624752 244.137923 
L 549.824297 240.564144 
L 550.023842 244.137923 
L 550.223388 244.137923 
L 550.422933 231.074794 
L 550.622478 227.501016 
L 550.822024 208.72595 
L 551.021569 215.853144 
L 551.221114 195.550823 
L 551.42066 215.853144 
L 551.620205 220.872725 
L 551.81975 220.048007 
L 552.617931 179.290639 
L 552.817477 184.361128 
L 553.017022 198.187885 
L 553.216567 186.438196 
L 553.416113 162.124283 
L 553.615658 152.095302 
L 553.815203 152.920021 
L 554.014749 136.985651 
L 554.214294 132.902787 
L 554.413839 154.803636 
L 554.613385 158.377415 
L 554.81293 174.067423 
L 555.012475 179.087004 
L 555.212021 168.141671 
L 555.411566 184.07604 
L 555.810657 184.07604 
L 556.010202 176.948846 
L 556.409293 206.200887 
L 556.608838 210.283751 
L 556.808383 232.255872 
L 557.007929 232.255872 
L 557.207474 221.860351 
L 557.407019 199.888229 
L 557.606565 210.833563 
L 557.80611 207.259784 
L 558.005655 207.259784 
L 558.205201 210.833563 
L 558.404746 197.006807 
L 558.604291 191.987226 
L 558.803837 191.987226 
L 559.003382 191.162508 
L 559.202927 204.225636 
L 559.402473 202.728925 
L 559.801563 231.482063 
L 560.200654 199.104238 
L 560.400199 210.853927 
L 560.599745 234.414394 
L 560.79929 234.414394 
L 560.998835 256.386515 
L 561.198381 257.211233 
L 561.797017 306.37869 
L 561.996562 284.406569 
L 562.196107 279.33608 
L 562.395653 279.33608 
L 562.595198 255.775613 
L 562.794743 277.747734 
L 563.193834 295.066815 
L 563.393379 305.462337 
L 563.592924 301.379473 
L 563.79247 305.462337 
L 563.992015 314.330603 
L 564.19156 303.385269 
L 564.391106 308.40485 
L 564.590651 304.321986 
L 564.790196 303.833264 
L 564.989742 305.329975 
L 565.189287 303.833264 
L 565.388832 285.058198 
L 565.588378 285.058198 
L 565.987468 263.574799 
L 566.187014 253.545819 
L 566.586104 277.849551 
L 566.78565 284.976745 
L 566.985195 284.976745 
L 567.18474 271.149988 
L 567.384286 276.220478 
L 567.783376 240.258693 
L 567.982922 240.258693 
L 568.182467 240.747415 
L 568.382012 255.10362 
L 568.581558 255.10362 
L 568.781103 254.614898 
L 568.980648 274.805221 
L 569.180194 260.408289 
L 569.379739 260.408289 
L 569.579284 240.105967 
L 569.77883 231.237702 
L 569.978375 241.266682 
L 570.17792 231.074794 
L 570.377466 245.471726 
L 570.577011 245.471726 
L 570.776556 256.905782 
L 570.976102 251.835292 
L 571.175647 240.401237 
L 571.375192 221.290175 
L 571.574738 231.482063 
L 571.774283 231.482063 
L 572.173374 258.850488 
L 572.372919 281.00588 
L 572.971555 254.523263 
L 573.1711 254.523263 
L 573.370645 240.126331 
L 573.570191 250.582943 
L 573.769736 250.582943 
L 574.168827 226.03485 
L 574.368372 231.054431 
L 574.567917 231.054431 
L 574.767463 210.864108 
L 574.967008 212.360819 
L 575.166553 200.611131 
L 575.366099 200.611131 
L 575.765189 220.913452 
L 575.964735 204.979082 
L 576.16428 204.052547 
L 576.363825 204.052547 
L 576.563371 181.897155 
L 576.762916 201.008217 
L 576.962461 196.375541 
L 577.162007 185.980019 
L 577.561097 158.000692 
L 577.760643 147.54408 
L 577.960188 151.626944 
L 578.159733 152.553479 
L 578.359279 136.86347 
L 578.758369 169.709653 
L 578.957915 168.884935 
L 579.15746 158.40796 
L 579.357005 170.534372 
L 579.955641 170.534372 
L 580.155187 194.848285 
L 580.354732 193.92175 
L 580.554277 198.992239 
L 580.753823 198.992239 
L 580.953368 199.918775 
L 581.152913 177.946653 
L 581.352459 177.946653 
L 581.552004 188.403265 
L 581.951095 170.330737 
L 582.15064 146.016824 
L 582.350185 160.373029 
L 582.549731 160.373029 
L 582.948821 175.401227 
L 583.148366 175.401227 
L 583.347912 186.835283 
L 583.547457 181.815702 
L 583.747002 203.971093 
L 583.946548 204.795812 
L 584.146093 204.795812 
L 584.345638 190.439606 
L 584.545184 190.439606 
L 584.744729 189.614888 
L 585.343365 189.614888 
L 585.54291 184.544399 
L 585.942001 184.544399 
L 586.141546 180.461535 
L 586.341092 189.3298 
L 586.540637 178.934279 
L 587.139273 178.934279 
L 587.338818 155.373812 
L 587.538364 155.373812 
L 587.737909 175.401227 
L 587.937454 175.401227 
L 588.137 185.796749 
L 588.336545 185.796749 
L 588.735636 226.879931 
L 588.935181 204.90781 
L 589.334272 229.781718 
L 589.733362 188.515264 
L 589.932908 200.264953 
L 590.132453 196.691174 
L 590.331998 211.047379 
L 590.731089 223.245063 
L 590.930634 218.174573 
L 591.13018 218.663295 
L 591.329725 218.663295 
L 591.52927 219.488013 
L 591.728816 219.488013 
L 591.928361 205.131808 
L 592.127906 221.066177 
L 592.327452 221.066177 
L 592.526997 210.670656 
L 592.926088 210.670656 
L 593.125633 197.607527 
L 593.524723 197.607527 
L 593.923814 174.423783 
L 594.123359 174.423783 
L 594.322905 169.791107 
L 594.52245 173.873971 
L 594.721995 194.064294 
L 595.320631 194.064294 
L 595.520177 193.239576 
L 595.719722 207.066332 
L 596.118813 207.066332 
L 596.318358 205.569621 
L 596.517903 201.486757 
L 596.717449 202.983468 
L 596.916994 202.983468 
L 597.116539 214.733156 
L 597.316085 213.806621 
L 597.51563 217.889485 
L 597.715175 217.889485 
L 598.114266 196.365359 
L 598.513357 196.365359 
L 598.712902 206.394339 
L 598.912447 202.311475 
L 599.111993 221.086541 
L 599.311538 219.58983 
L 599.511083 219.58983 
L 599.710629 229.781718 
L 600.109719 205.925981 
L 600.309265 205.925981 
L 600.708355 231.756969 
L 600.907901 231.268247 
L 601.107446 232.764957 
L 601.306991 222.308346 
L 601.506537 226.941022 
L 601.706082 226.941022 
L 602.105173 193.290484 
L 602.304718 203.747096 
L 602.504263 193.270121 
L 603.302445 193.270121 
L 603.50199 203.299101 
L 603.701535 226.859568 
L 603.90108 206.669245 
L 604.100626 206.669245 
L 604.300171 207.493964 
L 604.699262 207.493964 
L 604.898807 187.466548 
L 605.098352 203.156557 
L 605.297898 192.699945 
L 605.497443 214.600794 
L 605.696988 213.776076 
L 605.896534 214.264798 
L 606.096079 204.235818 
L 606.295624 208.318682 
L 606.694715 173.853608 
L 606.89426 173.853608 
L 607.093806 174.678326 
L 607.492896 196.100635 
L 607.692442 187.232369 
L 607.891987 207.259784 
L 608.091532 185.358935 
L 608.291078 185.358935 
L 608.490623 186.28547 
L 608.889714 186.28547 
L 609.288804 150.323686 
L 609.48835 165.718425 
L 609.88744 165.718425 
L 610.086986 155.241449 
L 610.286531 154.314914 
L 610.685622 154.314914 
L 610.885167 159.385404 
L 611.084712 135.824936 
L 611.284258 146.220458 
L 611.882894 146.220458 
L 612.082439 147.146993 
L 612.681075 147.146993 
L 612.88062 150.720772 
L 613.080166 147.146993 
L 613.279711 147.146993 
L 613.479256 167.449315 
L 613.678802 157.053793 
L 613.878347 170.116922 
L 614.077892 165.046432 
L 614.476983 202.881651 
L 614.676528 188.484719 
L 615.275164 188.484719 
L 615.474709 184.401855 
L 615.674255 194.87883 
L 616.073345 194.87883 
L 616.272891 213.653896 
L 616.472436 213.165174 
L 616.671981 217.248038 
L 616.871527 207.05615 
L 617.071072 207.05615 
L 617.270617 196.110817 
L 617.669708 196.110817 
L 617.869253 182.406241 
L 618.068799 182.569148 
L 618.268344 187.201824 
L 618.467889 182.569148 
L 618.667435 182.569148 
L 618.86698 201.344213 
L 619.066525 182.569148 
L 619.266071 182.569148 
L 619.465616 192.761035 
L 619.665161 176.826666 
L 619.864707 191.223598 
L 620.463343 191.223598 
L 620.662888 201.252578 
L 620.862433 201.252578 
L 621.061979 190.775603 
L 621.660615 190.775603 
L 621.86016 180.746622 
L 622.059705 179.249912 
L 622.259251 157.349063 
L 622.458796 153.266199 
L 622.857887 153.266199 
L 623.057432 154.762909 
L 623.256977 154.762909 
L 623.456523 173.537975 
L 623.656068 173.537975 
L 623.855613 187.364731 
L 624.254704 187.364731 
L 624.454249 167.174409 
L 624.653794 176.042674 
L 625.052885 148.399343 
L 625.451976 148.399343 
L 625.651521 138.909993 
L 628.24561 138.909993 
L 628.445156 140.20307 
L 628.844246 140.20307 
L 629.043792 135.13258 
L 630.041518 135.13258 
L 630.241064 139.215445 
L 630.640154 139.215445 
L 630.8397 146.342639 
L 631.039245 145.51792 
L 632.436062 145.51792 
L 632.635608 146.006642 
L 632.835153 141.923778 
L 633.234244 141.923778 
L 633.433789 121.621457 
L 634.23197 121.621457 
L 634.431515 125.704321 
L 634.631061 121.621457 
L 635.828333 121.621457 
L 636.027878 132.098432 
L 636.227423 132.098432 
L 636.426969 118.271676 
L 636.626514 118.271676 
L 636.826059 123.291257 
L 637.025605 123.291257 
L 637.22515 112.814281 
L 637.624241 112.814281 
L 637.823786 111.317571 
L 638.023331 111.317571 
L 638.222877 124.380699 
L 638.422422 125.87741 
L 639.220603 125.87741 
L 639.420149 114.443354 
L 639.619694 123.31162 
L 640.617421 123.31162 
L 640.816966 119.737841 
L 641.415602 119.737841 
L 641.615147 118.241131 
L 642.014238 118.241131 
L 642.213783 132.638063 
L 642.413329 132.638063 
L 642.612874 134.134773 
L 642.812419 134.134773 
L 643.011965 137.708552 
L 643.21151 127.516665 
L 645.007418 127.516665 
L 645.206963 128.341383 
L 645.406508 123.321802 
L 646.404235 123.321802 
L 646.60378 127.954478 
L 646.803326 127.954478 
L 647.202416 119.748023 
L 647.401962 105.351091 
L 647.601507 105.351091 
L 647.801052 104.424556 
L 650.993778 104.424556 
L 651.193323 108.50742 
L 652.19105 108.50742 
L 652.390595 103.212933 
L 653.587867 103.212933 
L 653.787412 104.139468 
L 655.184229 104.139468 
L 655.383775 102.642757 
L 656.980137 102.642757 
L 657.179683 103.31475 
L 657.379228 102.642757 
L 658.776045 102.642757 
L 658.975591 101.013684 
L 660.571953 101.013684 
L 660.771499 106.084174 
L 662.367861 106.084174 
L 662.567407 105.259456 
L 664.762405 105.259456 
L 664.96195 106.756166 
L 665.161496 105.829631 
L 667.95513 105.829631 
L 668.154676 106.756166 
L 669.751038 106.756166 
L 669.950584 105.829631 
L 670.94831 105.829631 
L 671.147856 106.654349 
L 671.347401 106.165627 
L 672.544673 106.165627 
L 672.744218 112.539375 
L 675.138762 112.539375 
L 675.338307 109.973585 
L 676.336034 109.973585 
L 676.535579 114.056449 
L 676.93467 114.056449 
L 677.134215 99.292976 
L 677.732851 99.292976 
L 677.932397 99.781698 
L 678.930123 99.781698 
L 679.129669 94.711208 
L 701.877836 94.711208 
L 702.077381 94.283577 
L 793.269596 94.283577 
L 793.469141 88.887273 
L 871.690909 88.887273 
L 871.690909 88.887273 
" style="fill:none;stroke:#8dd3c7;stroke-linecap:square;stroke-width:1.5;"/>
   </g>
   <g id="line2d_19">
    <path clip-path="url(#pca7b1d944f)" d="M 161.509091 202.606745 
L 262.279481 202.606745 
L 262.479026 196.07009 
L 262.878117 163.437723 
L 263.277208 146.933178 
L 553.815203 146.933178 
L 554.014749 136.985651 
L 554.214294 132.902787 
L 633.234244 132.902787 
L 633.433789 121.621457 
L 636.227423 121.621457 
L 636.426969 118.271676 
L 637.025605 118.271676 
L 637.22515 112.814281 
L 637.624241 112.814281 
L 637.823786 111.317571 
L 647.202416 111.317571 
L 647.401962 105.351091 
L 647.601507 105.351091 
L 647.801052 104.424556 
L 652.19105 104.424556 
L 652.390595 103.212933 
L 655.184229 103.212933 
L 655.383775 102.642757 
L 658.776045 102.642757 
L 658.975591 101.013684 
L 676.93467 101.013684 
L 677.134215 99.292976 
L 678.930123 99.292976 
L 679.129669 94.711208 
L 701.877836 94.711208 
L 702.077381 94.283577 
L 793.269596 94.283577 
L 793.469141 88.887273 
L 871.690909 88.887273 
L 871.690909 88.887273 
" style="fill:none;stroke:#feffb3;stroke-linecap:square;stroke-width:1.5;"/>
   </g>
   <g id="line2d_20">
    <path clip-path="url(#pca7b1d944f)" d="M 161.509091 287.09454 
L 163.304999 287.09454 
L 163.504544 298.608524 
L 165.300452 298.608524 
L 165.499997 309.450026 
L 167.295905 309.450026 
L 167.495451 319.658323 
L 169.291359 319.658323 
L 169.490904 329.270398 
L 171.286812 329.270398 
L 171.486357 338.321074 
L 173.282265 338.321074 
L 173.481811 346.843139 
L 175.277718 346.843139 
L 175.477264 354.867467 
L 177.273172 354.867467 
L 177.472717 362.423129 
L 179.268625 362.423129 
L 179.46817 369.537498 
L 181.264078 369.537498 
L 181.463624 376.236347 
L 183.259532 376.236347 
L 183.459077 382.543946 
L 185.254985 382.543946 
L 185.45453 388.483145 
L 187.250438 388.483145 
L 187.449983 394.075462 
L 189.245891 394.075462 
L 189.445437 399.341155 
L 191.241345 399.341155 
L 191.44089 404.299303 
L 193.236798 404.299303 
L 193.436343 408.967866 
L 195.232251 408.967866 
L 195.431796 413.36376 
L 197.227704 413.36376 
L 197.42725 417.502908 
L 199.223158 417.502908 
L 199.422703 421.400306 
L 201.218611 421.400306 
L 201.418156 425.070075 
L 203.214064 425.070075 
L 203.41361 428.525508 
L 205.209517 428.525508 
L 205.409063 431.779124 
L 207.204971 431.779124 
L 207.404516 434.842711 
L 209.200424 434.842711 
L 209.399969 437.727367 
L 211.195877 437.727367 
L 211.395423 440.443543 
L 213.191331 440.443543 
L 213.390876 443.001078 
L 215.186784 443.001078 
L 215.386329 445.40924 
L 217.182237 445.40924 
L 217.381782 447.676751 
L 219.17769 447.676751 
L 219.377236 449.811826 
L 221.173144 449.811826 
L 221.372689 451.822201 
L 223.168597 451.822201 
L 223.368142 453.715159 
L 225.16405 453.715159 
L 225.363595 455.497558 
L 227.159503 455.497558 
L 227.359049 457.175854 
L 229.154957 457.175854 
L 229.354502 458.756128 
L 231.15041 458.756128 
L 231.349955 460.244105 
L 233.145863 460.244105 
L 233.345409 461.645177 
L 235.141317 461.645177 
L 235.340862 462.964417 
L 237.13677 462.964417 
L 237.336315 464.206607 
L 239.132223 464.206607 
L 239.331768 465.376245 
L 241.127676 465.376245 
L 241.327222 466.47757 
L 243.12313 466.47757 
L 243.322675 467.514572 
L 245.118583 467.514572 
L 245.318128 468.491007 
L 247.114036 468.491007 
L 247.313581 469.410412 
L 249.109489 469.410412 
L 249.309035 470.276119 
L 251.104943 470.276119 
L 251.304488 471.091264 
L 253.100396 471.091264 
L 253.299941 471.858799 
L 255.095849 471.858799 
L 255.295395 472.581507 
L 257.091302 472.581507 
L 257.290848 473.262004 
L 259.086756 473.262004 
L 259.286301 473.902756 
L 261.082209 473.902756 
L 261.281754 474.506085 
L 263.077662 474.506085 
L 263.277208 475.074176 
L 265.073116 475.074176 
L 265.272661 475.609087 
L 267.068569 475.609087 
L 267.268114 476.112756 
L 269.064022 476.112756 
L 269.263567 476.587008 
L 271.059475 476.587008 
L 271.259021 477.033562 
L 273.054929 477.033562 
L 273.254474 477.454033 
L 275.050382 477.454033 
L 275.249927 477.849948 
L 277.045835 477.849948 
L 277.24538 478.222738 
L 279.041288 478.222738 
L 279.240834 478.573755 
L 281.036742 478.573755 
L 281.236287 478.904271 
L 283.032195 478.904271 
L 283.23174 479.215483 
L 285.027648 479.215483 
L 285.227194 479.508519 
L 287.023101 479.508519 
L 287.222647 479.784439 
L 289.018555 479.784439 
L 289.2181 480.044244 
L 291.014008 480.044244 
L 291.213553 480.288875 
L 293.009461 480.288875 
L 293.209007 480.519219 
L 295.004915 480.519219 
L 295.20446 480.736108 
L 297.000368 480.736108 
L 297.199913 480.940331 
L 298.995821 480.940331 
L 299.195366 481.132625 
L 300.991274 481.132625 
L 301.19082 481.313689 
L 302.986728 481.313689 
L 303.186273 481.484177 
L 304.982181 481.484177 
L 305.181726 481.644708 
L 306.977634 481.644708 
L 307.177179 481.795863 
L 308.973087 481.795863 
L 309.172633 481.93819 
L 310.968541 481.93819 
L 311.168086 482.072204 
L 312.963994 482.072204 
L 313.363085 482.19839 
L 314.959447 482.19839 
L 315.358538 482.317207 
L 316.954901 482.317207 
L 317.353991 482.429084 
L 320.945807 482.534427 
L 321.344898 482.633618 
L 324.936714 482.727015 
L 325.335804 482.814957 
L 328.92762 482.897763 
L 329.326711 482.975732 
L 332.918527 483.049148 
L 333.317617 483.118275 
L 336.909433 483.183366 
L 337.308524 483.244654 
L 340.90034 483.302363 
L 341.498976 483.356702 
L 346.8867 483.456043 
L 347.485336 483.501406 
L 352.873059 483.584338 
L 353.471695 483.622208 
L 360.854872 483.723055 
L 361.653054 483.752823 
L 370.832139 483.855494 
L 372.029411 483.877526 
L 384.800312 483.985181 
L 386.396674 483.999639 
L 406.750298 484.105037 
L 409.943023 484.119517 
L 542.44112 484.230595 
L 723.827822 484.232718 
L 871.690909 484.232727 
L 871.690909 484.232727 
" style="fill:none;stroke:#bfbbd9;stroke-linecap:square;stroke-width:1.5;"/>
   </g>
   <g id="patch_3">
    <path d="M 126 504 
L 126 69.12 
" style="fill:none;stroke:#ffffff;stroke-linecap:square;stroke-linejoin:miter;stroke-width:0.8;"/>
   </g>
   <g id="patch_4">
    <path d="M 907.2 504 
L 907.2 69.12 
" style="fill:none;stroke:#ffffff;stroke-linecap:square;stroke-linejoin:miter;stroke-width:0.8;"/>
   </g>
   <g id="patch_5">
    <path d="M 126 504 
L 907.2 504 
" style="fill:none;stroke:#ffffff;stroke-linecap:square;stroke-linejoin:miter;stroke-width:0.8;"/>
   </g>
   <g id="patch_6">
    <path d="M 126 69.12 
L 907.2 69.12 
" style="fill:none;stroke:#ffffff;stroke-linecap:square;stroke-linejoin:miter;stroke-width:0.8;"/>
   </g>
   <g id="text_19">
    <!-- instance 10 with error 0.012838765444653455 -->
    <g style="fill:#ffffff;" transform="translate(374.229375 63.12)scale(0.12 -0.12)">
     <defs>
      <path d="M 2834 3397 
L 2834 2853 
Q 2591 2978 2328 3040 
Q 2066 3103 1784 3103 
Q 1356 3103 1142 2972 
Q 928 2841 928 2578 
Q 928 2378 1081 2264 
Q 1234 2150 1697 2047 
L 1894 2003 
Q 2506 1872 2764 1633 
Q 3022 1394 3022 966 
Q 3022 478 2636 193 
Q 2250 -91 1575 -91 
Q 1294 -91 989 -36 
Q 684 19 347 128 
L 347 722 
Q 666 556 975 473 
Q 1284 391 1588 391 
Q 1994 391 2212 530 
Q 2431 669 2431 922 
Q 2431 1156 2273 1281 
Q 2116 1406 1581 1522 
L 1381 1569 
Q 847 1681 609 1914 
Q 372 2147 372 2553 
Q 372 3047 722 3315 
Q 1072 3584 1716 3584 
Q 2034 3584 2315 3537 
Q 2597 3491 2834 3397 
z
" id="DejaVuSans-73" transform="scale(0.015625)"/>
      <path d="M 3122 3366 
L 3122 2828 
Q 2878 2963 2633 3030 
Q 2388 3097 2138 3097 
Q 1578 3097 1268 2742 
Q 959 2388 959 1747 
Q 959 1106 1268 751 
Q 1578 397 2138 397 
Q 2388 397 2633 464 
Q 2878 531 3122 666 
L 3122 134 
Q 2881 22 2623 -34 
Q 2366 -91 2075 -91 
Q 1284 -91 818 406 
Q 353 903 353 1747 
Q 353 2603 823 3093 
Q 1294 3584 2113 3584 
Q 2378 3584 2631 3529 
Q 2884 3475 3122 3366 
z
" id="DejaVuSans-63" transform="scale(0.015625)"/>
      <path id="DejaVuSans-20" transform="scale(0.015625)"/>
      <path d="M 269 3500 
L 844 3500 
L 1563 769 
L 2278 3500 
L 2956 3500 
L 3675 769 
L 4391 3500 
L 4966 3500 
L 4050 0 
L 3372 0 
L 2619 2869 
L 1863 0 
L 1184 0 
L 269 3500 
z
" id="DejaVuSans-77" transform="scale(0.015625)"/>
      <path d="M 3513 2113 
L 3513 0 
L 2938 0 
L 2938 2094 
Q 2938 2591 2744 2837 
Q 2550 3084 2163 3084 
Q 1697 3084 1428 2787 
Q 1159 2491 1159 1978 
L 1159 0 
L 581 0 
L 581 4863 
L 1159 4863 
L 1159 2956 
Q 1366 3272 1645 3428 
Q 1925 3584 2291 3584 
Q 2894 3584 3203 3211 
Q 3513 2838 3513 2113 
z
" id="DejaVuSans-68" transform="scale(0.015625)"/>
      <path d="M 684 794 
L 1344 794 
L 1344 0 
L 684 0 
L 684 794 
z
" id="DejaVuSans-2e" transform="scale(0.015625)"/>
      <path d="M 2034 2216 
Q 1584 2216 1326 1975 
Q 1069 1734 1069 1313 
Q 1069 891 1326 650 
Q 1584 409 2034 409 
Q 2484 409 2743 651 
Q 3003 894 3003 1313 
Q 3003 1734 2745 1975 
Q 2488 2216 2034 2216 
z
M 1403 2484 
Q 997 2584 770 2862 
Q 544 3141 544 3541 
Q 544 4100 942 4425 
Q 1341 4750 2034 4750 
Q 2731 4750 3128 4425 
Q 3525 4100 3525 3541 
Q 3525 3141 3298 2862 
Q 3072 2584 2669 2484 
Q 3125 2378 3379 2068 
Q 3634 1759 3634 1313 
Q 3634 634 3220 271 
Q 2806 -91 2034 -91 
Q 1263 -91 848 271 
Q 434 634 434 1313 
Q 434 1759 690 2068 
Q 947 2378 1403 2484 
z
M 1172 3481 
Q 1172 3119 1398 2916 
Q 1625 2713 2034 2713 
Q 2441 2713 2670 2916 
Q 2900 3119 2900 3481 
Q 2900 3844 2670 4047 
Q 2441 4250 2034 4250 
Q 1625 4250 1398 4047 
Q 1172 3844 1172 3481 
z
" id="DejaVuSans-38" transform="scale(0.015625)"/>
      <path d="M 525 4666 
L 3525 4666 
L 3525 4397 
L 1831 0 
L 1172 0 
L 2766 4134 
L 525 4134 
L 525 4666 
z
" id="DejaVuSans-37" transform="scale(0.015625)"/>
      <path d="M 2113 2584 
Q 1688 2584 1439 2293 
Q 1191 2003 1191 1497 
Q 1191 994 1439 701 
Q 1688 409 2113 409 
Q 2538 409 2786 701 
Q 3034 994 3034 1497 
Q 3034 2003 2786 2293 
Q 2538 2584 2113 2584 
z
M 3366 4563 
L 3366 3988 
Q 3128 4100 2886 4159 
Q 2644 4219 2406 4219 
Q 1781 4219 1451 3797 
Q 1122 3375 1075 2522 
Q 1259 2794 1537 2939 
Q 1816 3084 2150 3084 
Q 2853 3084 3261 2657 
Q 3669 2231 3669 1497 
Q 3669 778 3244 343 
Q 2819 -91 2113 -91 
Q 1303 -91 875 529 
Q 447 1150 447 2328 
Q 447 3434 972 4092 
Q 1497 4750 2381 4750 
Q 2619 4750 2861 4703 
Q 3103 4656 3366 4563 
z
" id="DejaVuSans-36" transform="scale(0.015625)"/>
     </defs>
     <use xlink:href="#DejaVuSans-69"/>
     <use x="27.783203" xlink:href="#DejaVuSans-6e"/>
     <use x="91.162109" xlink:href="#DejaVuSans-73"/>
     <use x="143.261719" xlink:href="#DejaVuSans-74"/>
     <use x="182.470703" xlink:href="#DejaVuSans-61"/>
     <use x="243.75" xlink:href="#DejaVuSans-6e"/>
     <use x="307.128906" xlink:href="#DejaVuSans-63"/>
     <use x="362.109375" xlink:href="#DejaVuSans-65"/>
     <use x="423.632812" xlink:href="#DejaVuSans-20"/>
     <use x="455.419922" xlink:href="#DejaVuSans-31"/>
     <use x="519.042969" xlink:href="#DejaVuSans-30"/>
     <use x="582.666016" xlink:href="#DejaVuSans-20"/>
     <use x="614.453125" xlink:href="#DejaVuSans-77"/>
     <use x="696.240234" xlink:href="#DejaVuSans-69"/>
     <use x="724.023438" xlink:href="#DejaVuSans-74"/>
     <use x="763.232422" xlink:href="#DejaVuSans-68"/>
     <use x="826.611328" xlink:href="#DejaVuSans-20"/>
     <use x="858.398438" xlink:href="#DejaVuSans-65"/>
     <use x="919.921875" xlink:href="#DejaVuSans-72"/>
     <use x="959.285156" xlink:href="#DejaVuSans-72"/>
     <use x="998.148438" xlink:href="#DejaVuSans-6f"/>
     <use x="1059.330078" xlink:href="#DejaVuSans-72"/>
     <use x="1100.443359" xlink:href="#DejaVuSans-20"/>
     <use x="1132.230469" xlink:href="#DejaVuSans-30"/>
     <use x="1195.853516" xlink:href="#DejaVuSans-2e"/>
     <use x="1227.640625" xlink:href="#DejaVuSans-30"/>
     <use x="1291.263672" xlink:href="#DejaVuSans-31"/>
     <use x="1354.886719" xlink:href="#DejaVuSans-32"/>
     <use x="1418.509766" xlink:href="#DejaVuSans-38"/>
     <use x="1482.132812" xlink:href="#DejaVuSans-33"/>
     <use x="1545.755859" xlink:href="#DejaVuSans-38"/>
     <use x="1609.378906" xlink:href="#DejaVuSans-37"/>
     <use x="1673.001953" xlink:href="#DejaVuSans-36"/>
     <use x="1736.625" xlink:href="#DejaVuSans-35"/>
     <use x="1800.248047" xlink:href="#DejaVuSans-34"/>
     <use x="1863.871094" xlink:href="#DejaVuSans-34"/>
     <use x="1927.494141" xlink:href="#DejaVuSans-34"/>
     <use x="1991.117188" xlink:href="#DejaVuSans-36"/>
     <use x="2054.740234" xlink:href="#DejaVuSans-35"/>
     <use x="2118.363281" xlink:href="#DejaVuSans-33"/>
     <use x="2181.986328" xlink:href="#DejaVuSans-34"/>
     <use x="2245.609375" xlink:href="#DejaVuSans-35"/>
     <use x="2309.232422" xlink:href="#DejaVuSans-35"/>
    </g>
   </g>
   <g id="legend_1">
    <g id="patch_7">
     <path d="M 805.348438 499 
L 900.2 499 
Q 902.2 499 902.2 497 
L 902.2 453.965625 
Q 902.2 451.965625 900.2 451.965625 
L 805.348438 451.965625 
Q 803.348438 451.965625 803.348438 453.965625 
L 803.348438 497 
Q 803.348438 499 805.348438 499 
z
" style="opacity:0.8;stroke:#cccccc;stroke-linejoin:miter;"/>
    </g>
    <g id="line2d_21">
     <path d="M 807.348438 460.064062 
L 827.348438 460.064062 
" style="fill:none;stroke:#8dd3c7;stroke-linecap:square;stroke-width:1.5;"/>
    </g>
    <g id="line2d_22"/>
    <g id="text_20">
     <!-- cost -->
     <g style="fill:#ffffff;" transform="translate(835.348438 463.564062)scale(0.1 -0.1)">
      <use xlink:href="#DejaVuSans-63"/>
      <use x="54.980469" xlink:href="#DejaVuSans-6f"/>
      <use x="116.162109" xlink:href="#DejaVuSans-73"/>
      <use x="168.261719" xlink:href="#DejaVuSans-74"/>
     </g>
    </g>
    <g id="line2d_23">
     <path d="M 807.348438 474.742188 
L 827.348438 474.742188 
" style="fill:none;stroke:#feffb3;stroke-linecap:square;stroke-width:1.5;"/>
    </g>
    <g id="line2d_24"/>
    <g id="text_21">
     <!-- best cost -->
     <g style="fill:#ffffff;" transform="translate(835.348438 478.242188)scale(0.1 -0.1)">
      <defs>
       <path d="M 3116 1747 
Q 3116 2381 2855 2742 
Q 2594 3103 2138 3103 
Q 1681 3103 1420 2742 
Q 1159 2381 1159 1747 
Q 1159 1113 1420 752 
Q 1681 391 2138 391 
Q 2594 391 2855 752 
Q 3116 1113 3116 1747 
z
M 1159 2969 
Q 1341 3281 1617 3432 
Q 1894 3584 2278 3584 
Q 2916 3584 3314 3078 
Q 3713 2572 3713 1747 
Q 3713 922 3314 415 
Q 2916 -91 2278 -91 
Q 1894 -91 1617 61 
Q 1341 213 1159 525 
L 1159 0 
L 581 0 
L 581 4863 
L 1159 4863 
L 1159 2969 
z
" id="DejaVuSans-62" transform="scale(0.015625)"/>
      </defs>
      <use xlink:href="#DejaVuSans-62"/>
      <use x="63.476562" xlink:href="#DejaVuSans-65"/>
      <use x="125" xlink:href="#DejaVuSans-73"/>
      <use x="177.099609" xlink:href="#DejaVuSans-74"/>
      <use x="216.308594" xlink:href="#DejaVuSans-20"/>
      <use x="248.095703" xlink:href="#DejaVuSans-63"/>
      <use x="303.076172" xlink:href="#DejaVuSans-6f"/>
      <use x="364.257812" xlink:href="#DejaVuSans-73"/>
      <use x="416.357422" xlink:href="#DejaVuSans-74"/>
     </g>
    </g>
    <g id="line2d_25">
     <path d="M 807.348438 489.420313 
L 827.348438 489.420313 
" style="fill:none;stroke:#bfbbd9;stroke-linecap:square;stroke-width:1.5;"/>
    </g>
    <g id="line2d_26"/>
    <g id="text_22">
     <!-- temperature -->
     <g style="fill:#ffffff;" transform="translate(835.348438 492.920313)scale(0.1 -0.1)">
      <defs>
       <path d="M 3328 2828 
Q 3544 3216 3844 3400 
Q 4144 3584 4550 3584 
Q 5097 3584 5394 3201 
Q 5691 2819 5691 2113 
L 5691 0 
L 5113 0 
L 5113 2094 
Q 5113 2597 4934 2840 
Q 4756 3084 4391 3084 
Q 3944 3084 3684 2787 
Q 3425 2491 3425 1978 
L 3425 0 
L 2847 0 
L 2847 2094 
Q 2847 2600 2669 2842 
Q 2491 3084 2119 3084 
Q 1678 3084 1418 2786 
Q 1159 2488 1159 1978 
L 1159 0 
L 581 0 
L 581 3500 
L 1159 3500 
L 1159 2956 
Q 1356 3278 1631 3431 
Q 1906 3584 2284 3584 
Q 2666 3584 2933 3390 
Q 3200 3197 3328 2828 
z
" id="DejaVuSans-6d" transform="scale(0.015625)"/>
       <path d="M 1159 525 
L 1159 -1331 
L 581 -1331 
L 581 3500 
L 1159 3500 
L 1159 2969 
Q 1341 3281 1617 3432 
Q 1894 3584 2278 3584 
Q 2916 3584 3314 3078 
Q 3713 2572 3713 1747 
Q 3713 922 3314 415 
Q 2916 -91 2278 -91 
Q 1894 -91 1617 61 
Q 1341 213 1159 525 
z
M 3116 1747 
Q 3116 2381 2855 2742 
Q 2594 3103 2138 3103 
Q 1681 3103 1420 2742 
Q 1159 2381 1159 1747 
Q 1159 1113 1420 752 
Q 1681 391 2138 391 
Q 2594 391 2855 752 
Q 3116 1113 3116 1747 
z
" id="DejaVuSans-70" transform="scale(0.015625)"/>
       <path d="M 544 1381 
L 544 3500 
L 1119 3500 
L 1119 1403 
Q 1119 906 1312 657 
Q 1506 409 1894 409 
Q 2359 409 2629 706 
Q 2900 1003 2900 1516 
L 2900 3500 
L 3475 3500 
L 3475 0 
L 2900 0 
L 2900 538 
Q 2691 219 2414 64 
Q 2138 -91 1772 -91 
Q 1169 -91 856 284 
Q 544 659 544 1381 
z
M 1991 3584 
L 1991 3584 
z
" id="DejaVuSans-75" transform="scale(0.015625)"/>
      </defs>
      <use xlink:href="#DejaVuSans-74"/>
      <use x="39.208984" xlink:href="#DejaVuSans-65"/>
      <use x="100.732422" xlink:href="#DejaVuSans-6d"/>
      <use x="198.144531" xlink:href="#DejaVuSans-70"/>
      <use x="261.621094" xlink:href="#DejaVuSans-65"/>
      <use x="323.144531" xlink:href="#DejaVuSans-72"/>
      <use x="364.257812" xlink:href="#DejaVuSans-61"/>
      <use x="425.537109" xlink:href="#DejaVuSans-74"/>
      <use x="464.746094" xlink:href="#DejaVuSans-75"/>
      <use x="528.125" xlink:href="#DejaVuSans-72"/>
      <use x="566.988281" xlink:href="#DejaVuSans-65"/>
     </g>
    </g>
   </g>
  </g>
 </g>
 <defs>
  <clipPath id="pca7b1d944f">
   <rect height="434.88" width="781.2" x="126" y="69.12"/>
  </clipPath>
 </defs>
</svg>
