<?xml version="1.0" encoding="utf-8" standalone="no"?>
<!DOCTYPE svg PUBLIC "-//W3C//DTD SVG 1.1//EN"
  "http://www.w3.org/Graphics/SVG/1.1/DTD/svg11.dtd">
<svg height="576pt" version="1.1" viewBox="0 0 1008 576" width="1008pt" xmlns="http://www.w3.org/2000/svg" xmlns:xlink="http://www.w3.org/1999/xlink">
 <metadata>
  <rdf:RDF xmlns:cc="http://creativecommons.org/ns#" xmlns:dc="http://purl.org/dc/elements/1.1/" xmlns:rdf="http://www.w3.org/1999/02/22-rdf-syntax-ns#">
   <cc:Work>
    <dc:type rdf:resource="http://purl.org/dc/dcmitype/StillImage"/>
    <dc:date>2022-01-13T19:10:44.343100</dc:date>
    <dc:format>image/svg+xml</dc:format>
    <dc:creator>
     <cc:Agent>
      <dc:title>Matplotlib v3.4.3, https://matplotlib.org/</dc:title>
     </cc:Agent>
    </dc:creator>
   </cc:Work>
  </rdf:RDF>
 </metadata>
 <defs>
  <style type="text/css">*{stroke-linecap:butt;stroke-linejoin:round;}</style>
 </defs>
 <g id="figure_1">
  <g id="patch_1">
   <path d="M 0 576 
L 1008 576 
L 1008 0 
L 0 0 
z
"/>
  </g>
  <g id="axes_1">
   <g id="patch_2">
    <path d="M 126 504 
L 907.2 504 
L 907.2 69.12 
L 126 69.12 
z
"/>
   </g>
   <g id="matplotlib.axis_1">
    <g id="xtick_1">
     <g id="line2d_1">
      <defs>
       <path d="M 0 0 
L 0 3.5 
" id="m7193de5567" style="stroke:#ffffff;stroke-width:0.8;"/>
      </defs>
      <g>
       <use style="fill:#ffffff;stroke:#ffffff;stroke-width:0.8;" x="161.509091" xlink:href="#m7193de5567" y="504"/>
      </g>
     </g>
     <g id="text_1">
      <!-- 0 -->
      <g style="fill:#ffffff;" transform="translate(158.327841 518.598438)scale(0.1 -0.1)">
       <defs>
        <path d="M 2034 4250 
Q 1547 4250 1301 3770 
Q 1056 3291 1056 2328 
Q 1056 1369 1301 889 
Q 1547 409 2034 409 
Q 2525 409 2770 889 
Q 3016 1369 3016 2328 
Q 3016 3291 2770 3770 
Q 2525 4250 2034 4250 
z
M 2034 4750 
Q 2819 4750 3233 4129 
Q 3647 3509 3647 2328 
Q 3647 1150 3233 529 
Q 2819 -91 2034 -91 
Q 1250 -91 836 529 
Q 422 1150 422 2328 
Q 422 3509 836 4129 
Q 1250 4750 2034 4750 
z
" id="DejaVuSans-30" transform="scale(0.015625)"/>
       </defs>
       <use xlink:href="#DejaVuSans-30"/>
      </g>
     </g>
    </g>
    <g id="xtick_2">
     <g id="line2d_2">
      <g>
       <use style="fill:#ffffff;stroke:#ffffff;stroke-width:0.8;" x="294.551769" xlink:href="#m7193de5567" y="504"/>
      </g>
     </g>
     <g id="text_2">
      <!-- 500 -->
      <g style="fill:#ffffff;" transform="translate(285.008019 518.598438)scale(0.1 -0.1)">
       <defs>
        <path d="M 691 4666 
L 3169 4666 
L 3169 4134 
L 1269 4134 
L 1269 2991 
Q 1406 3038 1543 3061 
Q 1681 3084 1819 3084 
Q 2600 3084 3056 2656 
Q 3513 2228 3513 1497 
Q 3513 744 3044 326 
Q 2575 -91 1722 -91 
Q 1428 -91 1123 -41 
Q 819 9 494 109 
L 494 744 
Q 775 591 1075 516 
Q 1375 441 1709 441 
Q 2250 441 2565 725 
Q 2881 1009 2881 1497 
Q 2881 1984 2565 2268 
Q 2250 2553 1709 2553 
Q 1456 2553 1204 2497 
Q 953 2441 691 2322 
L 691 4666 
z
" id="DejaVuSans-35" transform="scale(0.015625)"/>
       </defs>
       <use xlink:href="#DejaVuSans-35"/>
       <use x="63.623047" xlink:href="#DejaVuSans-30"/>
       <use x="127.246094" xlink:href="#DejaVuSans-30"/>
      </g>
     </g>
    </g>
    <g id="xtick_3">
     <g id="line2d_3">
      <g>
       <use style="fill:#ffffff;stroke:#ffffff;stroke-width:0.8;" x="427.594448" xlink:href="#m7193de5567" y="504"/>
      </g>
     </g>
     <g id="text_3">
      <!-- 1000 -->
      <g style="fill:#ffffff;" transform="translate(414.869448 518.598438)scale(0.1 -0.1)">
       <defs>
        <path d="M 794 531 
L 1825 531 
L 1825 4091 
L 703 3866 
L 703 4441 
L 1819 4666 
L 2450 4666 
L 2450 531 
L 3481 531 
L 3481 0 
L 794 0 
L 794 531 
z
" id="DejaVuSans-31" transform="scale(0.015625)"/>
       </defs>
       <use xlink:href="#DejaVuSans-31"/>
       <use x="63.623047" xlink:href="#DejaVuSans-30"/>
       <use x="127.246094" xlink:href="#DejaVuSans-30"/>
       <use x="190.869141" xlink:href="#DejaVuSans-30"/>
      </g>
     </g>
    </g>
    <g id="xtick_4">
     <g id="line2d_4">
      <g>
       <use style="fill:#ffffff;stroke:#ffffff;stroke-width:0.8;" x="560.637127" xlink:href="#m7193de5567" y="504"/>
      </g>
     </g>
     <g id="text_4">
      <!-- 1500 -->
      <g style="fill:#ffffff;" transform="translate(547.912127 518.598438)scale(0.1 -0.1)">
       <use xlink:href="#DejaVuSans-31"/>
       <use x="63.623047" xlink:href="#DejaVuSans-35"/>
       <use x="127.246094" xlink:href="#DejaVuSans-30"/>
       <use x="190.869141" xlink:href="#DejaVuSans-30"/>
      </g>
     </g>
    </g>
    <g id="xtick_5">
     <g id="line2d_5">
      <g>
       <use style="fill:#ffffff;stroke:#ffffff;stroke-width:0.8;" x="693.679805" xlink:href="#m7193de5567" y="504"/>
      </g>
     </g>
     <g id="text_5">
      <!-- 2000 -->
      <g style="fill:#ffffff;" transform="translate(680.954805 518.598438)scale(0.1 -0.1)">
       <defs>
        <path d="M 1228 531 
L 3431 531 
L 3431 0 
L 469 0 
L 469 531 
Q 828 903 1448 1529 
Q 2069 2156 2228 2338 
Q 2531 2678 2651 2914 
Q 2772 3150 2772 3378 
Q 2772 3750 2511 3984 
Q 2250 4219 1831 4219 
Q 1534 4219 1204 4116 
Q 875 4013 500 3803 
L 500 4441 
Q 881 4594 1212 4672 
Q 1544 4750 1819 4750 
Q 2544 4750 2975 4387 
Q 3406 4025 3406 3419 
Q 3406 3131 3298 2873 
Q 3191 2616 2906 2266 
Q 2828 2175 2409 1742 
Q 1991 1309 1228 531 
z
" id="DejaVuSans-32" transform="scale(0.015625)"/>
       </defs>
       <use xlink:href="#DejaVuSans-32"/>
       <use x="63.623047" xlink:href="#DejaVuSans-30"/>
       <use x="127.246094" xlink:href="#DejaVuSans-30"/>
       <use x="190.869141" xlink:href="#DejaVuSans-30"/>
      </g>
     </g>
    </g>
    <g id="xtick_6">
     <g id="line2d_6">
      <g>
       <use style="fill:#ffffff;stroke:#ffffff;stroke-width:0.8;" x="826.722484" xlink:href="#m7193de5567" y="504"/>
      </g>
     </g>
     <g id="text_6">
      <!-- 2500 -->
      <g style="fill:#ffffff;" transform="translate(813.997484 518.598438)scale(0.1 -0.1)">
       <use xlink:href="#DejaVuSans-32"/>
       <use x="63.623047" xlink:href="#DejaVuSans-35"/>
       <use x="127.246094" xlink:href="#DejaVuSans-30"/>
       <use x="190.869141" xlink:href="#DejaVuSans-30"/>
      </g>
     </g>
    </g>
    <g id="text_7">
     <!-- iteration -->
     <g style="fill:#ffffff;" transform="translate(495.477344 532.276562)scale(0.1 -0.1)">
      <defs>
       <path d="M 603 3500 
L 1178 3500 
L 1178 0 
L 603 0 
L 603 3500 
z
M 603 4863 
L 1178 4863 
L 1178 4134 
L 603 4134 
L 603 4863 
z
" id="DejaVuSans-69" transform="scale(0.015625)"/>
       <path d="M 1172 4494 
L 1172 3500 
L 2356 3500 
L 2356 3053 
L 1172 3053 
L 1172 1153 
Q 1172 725 1289 603 
Q 1406 481 1766 481 
L 2356 481 
L 2356 0 
L 1766 0 
Q 1100 0 847 248 
Q 594 497 594 1153 
L 594 3053 
L 172 3053 
L 172 3500 
L 594 3500 
L 594 4494 
L 1172 4494 
z
" id="DejaVuSans-74" transform="scale(0.015625)"/>
       <path d="M 3597 1894 
L 3597 1613 
L 953 1613 
Q 991 1019 1311 708 
Q 1631 397 2203 397 
Q 2534 397 2845 478 
Q 3156 559 3463 722 
L 3463 178 
Q 3153 47 2828 -22 
Q 2503 -91 2169 -91 
Q 1331 -91 842 396 
Q 353 884 353 1716 
Q 353 2575 817 3079 
Q 1281 3584 2069 3584 
Q 2775 3584 3186 3129 
Q 3597 2675 3597 1894 
z
M 3022 2063 
Q 3016 2534 2758 2815 
Q 2500 3097 2075 3097 
Q 1594 3097 1305 2825 
Q 1016 2553 972 2059 
L 3022 2063 
z
" id="DejaVuSans-65" transform="scale(0.015625)"/>
       <path d="M 2631 2963 
Q 2534 3019 2420 3045 
Q 2306 3072 2169 3072 
Q 1681 3072 1420 2755 
Q 1159 2438 1159 1844 
L 1159 0 
L 581 0 
L 581 3500 
L 1159 3500 
L 1159 2956 
Q 1341 3275 1631 3429 
Q 1922 3584 2338 3584 
Q 2397 3584 2469 3576 
Q 2541 3569 2628 3553 
L 2631 2963 
z
" id="DejaVuSans-72" transform="scale(0.015625)"/>
       <path d="M 2194 1759 
Q 1497 1759 1228 1600 
Q 959 1441 959 1056 
Q 959 750 1161 570 
Q 1363 391 1709 391 
Q 2188 391 2477 730 
Q 2766 1069 2766 1631 
L 2766 1759 
L 2194 1759 
z
M 3341 1997 
L 3341 0 
L 2766 0 
L 2766 531 
Q 2569 213 2275 61 
Q 1981 -91 1556 -91 
Q 1019 -91 701 211 
Q 384 513 384 1019 
Q 384 1609 779 1909 
Q 1175 2209 1959 2209 
L 2766 2209 
L 2766 2266 
Q 2766 2663 2505 2880 
Q 2244 3097 1772 3097 
Q 1472 3097 1187 3025 
Q 903 2953 641 2809 
L 641 3341 
Q 956 3463 1253 3523 
Q 1550 3584 1831 3584 
Q 2591 3584 2966 3190 
Q 3341 2797 3341 1997 
z
" id="DejaVuSans-61" transform="scale(0.015625)"/>
       <path d="M 1959 3097 
Q 1497 3097 1228 2736 
Q 959 2375 959 1747 
Q 959 1119 1226 758 
Q 1494 397 1959 397 
Q 2419 397 2687 759 
Q 2956 1122 2956 1747 
Q 2956 2369 2687 2733 
Q 2419 3097 1959 3097 
z
M 1959 3584 
Q 2709 3584 3137 3096 
Q 3566 2609 3566 1747 
Q 3566 888 3137 398 
Q 2709 -91 1959 -91 
Q 1206 -91 779 398 
Q 353 888 353 1747 
Q 353 2609 779 3096 
Q 1206 3584 1959 3584 
z
" id="DejaVuSans-6f" transform="scale(0.015625)"/>
       <path d="M 3513 2113 
L 3513 0 
L 2938 0 
L 2938 2094 
Q 2938 2591 2744 2837 
Q 2550 3084 2163 3084 
Q 1697 3084 1428 2787 
Q 1159 2491 1159 1978 
L 1159 0 
L 581 0 
L 581 3500 
L 1159 3500 
L 1159 2956 
Q 1366 3272 1645 3428 
Q 1925 3584 2291 3584 
Q 2894 3584 3203 3211 
Q 3513 2838 3513 2113 
z
" id="DejaVuSans-6e" transform="scale(0.015625)"/>
      </defs>
      <use xlink:href="#DejaVuSans-69"/>
      <use x="27.783203" xlink:href="#DejaVuSans-74"/>
      <use x="66.992188" xlink:href="#DejaVuSans-65"/>
      <use x="128.515625" xlink:href="#DejaVuSans-72"/>
      <use x="169.628906" xlink:href="#DejaVuSans-61"/>
      <use x="230.908203" xlink:href="#DejaVuSans-74"/>
      <use x="270.117188" xlink:href="#DejaVuSans-69"/>
      <use x="297.900391" xlink:href="#DejaVuSans-6f"/>
      <use x="359.082031" xlink:href="#DejaVuSans-6e"/>
     </g>
    </g>
   </g>
   <g id="matplotlib.axis_2">
    <g id="ytick_1">
     <g id="line2d_7">
      <defs>
       <path d="M 0 0 
L -3.5 0 
" id="mac9ab99cd6" style="stroke:#ffffff;stroke-width:0.8;"/>
      </defs>
      <g>
       <use style="fill:#ffffff;stroke:#ffffff;stroke-width:0.8;" x="126" xlink:href="#mac9ab99cd6" y="484.232727"/>
      </g>
     </g>
     <g id="text_8">
      <!-- 0 -->
      <g style="fill:#ffffff;" transform="translate(112.6375 488.031946)scale(0.1 -0.1)">
       <use xlink:href="#DejaVuSans-30"/>
      </g>
     </g>
    </g>
    <g id="ytick_2">
     <g id="line2d_8">
      <g>
       <use style="fill:#ffffff;stroke:#ffffff;stroke-width:0.8;" x="126" xlink:href="#mac9ab99cd6" y="433.977801"/>
      </g>
     </g>
     <g id="text_9">
      <!-- 5000 -->
      <g style="fill:#ffffff;" transform="translate(93.55 437.77702)scale(0.1 -0.1)">
       <use xlink:href="#DejaVuSans-35"/>
       <use x="63.623047" xlink:href="#DejaVuSans-30"/>
       <use x="127.246094" xlink:href="#DejaVuSans-30"/>
       <use x="190.869141" xlink:href="#DejaVuSans-30"/>
      </g>
     </g>
    </g>
    <g id="ytick_3">
     <g id="line2d_9">
      <g>
       <use style="fill:#ffffff;stroke:#ffffff;stroke-width:0.8;" x="126" xlink:href="#mac9ab99cd6" y="383.722875"/>
      </g>
     </g>
     <g id="text_10">
      <!-- 10000 -->
      <g style="fill:#ffffff;" transform="translate(87.1875 387.522093)scale(0.1 -0.1)">
       <use xlink:href="#DejaVuSans-31"/>
       <use x="63.623047" xlink:href="#DejaVuSans-30"/>
       <use x="127.246094" xlink:href="#DejaVuSans-30"/>
       <use x="190.869141" xlink:href="#DejaVuSans-30"/>
       <use x="254.492188" xlink:href="#DejaVuSans-30"/>
      </g>
     </g>
    </g>
    <g id="ytick_4">
     <g id="line2d_10">
      <g>
       <use style="fill:#ffffff;stroke:#ffffff;stroke-width:0.8;" x="126" xlink:href="#mac9ab99cd6" y="333.467948"/>
      </g>
     </g>
     <g id="text_11">
      <!-- 15000 -->
      <g style="fill:#ffffff;" transform="translate(87.1875 337.267167)scale(0.1 -0.1)">
       <use xlink:href="#DejaVuSans-31"/>
       <use x="63.623047" xlink:href="#DejaVuSans-35"/>
       <use x="127.246094" xlink:href="#DejaVuSans-30"/>
       <use x="190.869141" xlink:href="#DejaVuSans-30"/>
       <use x="254.492188" xlink:href="#DejaVuSans-30"/>
      </g>
     </g>
    </g>
    <g id="ytick_5">
     <g id="line2d_11">
      <g>
       <use style="fill:#ffffff;stroke:#ffffff;stroke-width:0.8;" x="126" xlink:href="#mac9ab99cd6" y="283.213022"/>
      </g>
     </g>
     <g id="text_12">
      <!-- 20000 -->
      <g style="fill:#ffffff;" transform="translate(87.1875 287.012241)scale(0.1 -0.1)">
       <use xlink:href="#DejaVuSans-32"/>
       <use x="63.623047" xlink:href="#DejaVuSans-30"/>
       <use x="127.246094" xlink:href="#DejaVuSans-30"/>
       <use x="190.869141" xlink:href="#DejaVuSans-30"/>
       <use x="254.492188" xlink:href="#DejaVuSans-30"/>
      </g>
     </g>
    </g>
    <g id="ytick_6">
     <g id="line2d_12">
      <g>
       <use style="fill:#ffffff;stroke:#ffffff;stroke-width:0.8;" x="126" xlink:href="#mac9ab99cd6" y="232.958096"/>
      </g>
     </g>
     <g id="text_13">
      <!-- 25000 -->
      <g style="fill:#ffffff;" transform="translate(87.1875 236.757314)scale(0.1 -0.1)">
       <use xlink:href="#DejaVuSans-32"/>
       <use x="63.623047" xlink:href="#DejaVuSans-35"/>
       <use x="127.246094" xlink:href="#DejaVuSans-30"/>
       <use x="190.869141" xlink:href="#DejaVuSans-30"/>
       <use x="254.492188" xlink:href="#DejaVuSans-30"/>
      </g>
     </g>
    </g>
    <g id="ytick_7">
     <g id="line2d_13">
      <g>
       <use style="fill:#ffffff;stroke:#ffffff;stroke-width:0.8;" x="126" xlink:href="#mac9ab99cd6" y="182.703169"/>
      </g>
     </g>
     <g id="text_14">
      <!-- 30000 -->
      <g style="fill:#ffffff;" transform="translate(87.1875 186.502388)scale(0.1 -0.1)">
       <defs>
        <path d="M 2597 2516 
Q 3050 2419 3304 2112 
Q 3559 1806 3559 1356 
Q 3559 666 3084 287 
Q 2609 -91 1734 -91 
Q 1441 -91 1130 -33 
Q 819 25 488 141 
L 488 750 
Q 750 597 1062 519 
Q 1375 441 1716 441 
Q 2309 441 2620 675 
Q 2931 909 2931 1356 
Q 2931 1769 2642 2001 
Q 2353 2234 1838 2234 
L 1294 2234 
L 1294 2753 
L 1863 2753 
Q 2328 2753 2575 2939 
Q 2822 3125 2822 3475 
Q 2822 3834 2567 4026 
Q 2313 4219 1838 4219 
Q 1578 4219 1281 4162 
Q 984 4106 628 3988 
L 628 4550 
Q 988 4650 1302 4700 
Q 1616 4750 1894 4750 
Q 2613 4750 3031 4423 
Q 3450 4097 3450 3541 
Q 3450 3153 3228 2886 
Q 3006 2619 2597 2516 
z
" id="DejaVuSans-33" transform="scale(0.015625)"/>
       </defs>
       <use xlink:href="#DejaVuSans-33"/>
       <use x="63.623047" xlink:href="#DejaVuSans-30"/>
       <use x="127.246094" xlink:href="#DejaVuSans-30"/>
       <use x="190.869141" xlink:href="#DejaVuSans-30"/>
       <use x="254.492188" xlink:href="#DejaVuSans-30"/>
      </g>
     </g>
    </g>
    <g id="ytick_8">
     <g id="line2d_14">
      <g>
       <use style="fill:#ffffff;stroke:#ffffff;stroke-width:0.8;" x="126" xlink:href="#mac9ab99cd6" y="132.448243"/>
      </g>
     </g>
     <g id="text_15">
      <!-- 35000 -->
      <g style="fill:#ffffff;" transform="translate(87.1875 136.247462)scale(0.1 -0.1)">
       <use xlink:href="#DejaVuSans-33"/>
       <use x="63.623047" xlink:href="#DejaVuSans-35"/>
       <use x="127.246094" xlink:href="#DejaVuSans-30"/>
       <use x="190.869141" xlink:href="#DejaVuSans-30"/>
       <use x="254.492188" xlink:href="#DejaVuSans-30"/>
      </g>
     </g>
    </g>
    <g id="ytick_9">
     <g id="line2d_15">
      <g>
       <use style="fill:#ffffff;stroke:#ffffff;stroke-width:0.8;" x="126" xlink:href="#mac9ab99cd6" y="82.193317"/>
      </g>
     </g>
     <g id="text_16">
      <!-- 40000 -->
      <g style="fill:#ffffff;" transform="translate(87.1875 85.992535)scale(0.1 -0.1)">
       <defs>
        <path d="M 2419 4116 
L 825 1625 
L 2419 1625 
L 2419 4116 
z
M 2253 4666 
L 3047 4666 
L 3047 1625 
L 3713 1625 
L 3713 1100 
L 3047 1100 
L 3047 0 
L 2419 0 
L 2419 1100 
L 313 1100 
L 313 1709 
L 2253 4666 
z
" id="DejaVuSans-34" transform="scale(0.015625)"/>
       </defs>
       <use xlink:href="#DejaVuSans-34"/>
       <use x="63.623047" xlink:href="#DejaVuSans-30"/>
       <use x="127.246094" xlink:href="#DejaVuSans-30"/>
       <use x="190.869141" xlink:href="#DejaVuSans-30"/>
       <use x="254.492188" xlink:href="#DejaVuSans-30"/>
      </g>
     </g>
    </g>
   </g>
   <g id="line2d_16">
    <path clip-path="url(#pa91a2f2f64)" d="M 161.509091 206.222475 
L 162.041262 226.344547 
L 162.307347 250.3463 
L 162.573432 263.241714 
L 162.839518 247.753146 
L 163.105603 266.287163 
L 163.371688 242.28541 
L 163.637774 252.18563 
L 163.903859 294.399769 
L 164.169944 270.398016 
L 164.43603 261.643608 
L 164.702115 256.638217 
L 164.968201 234.767273 
L 165.234286 247.662687 
L 165.500371 246.848557 
L 166.032542 224.927358 
L 166.298627 224.012719 
L 166.830798 265.402676 
L 167.096883 270.408067 
L 167.629054 260.829478 
L 167.895139 239.139452 
L 168.42731 261.080752 
L 168.693396 254.045063 
L 168.959481 264.367425 
L 169.491652 296.430068 
L 169.757737 285.625258 
L 170.289908 311.395985 
L 170.555993 297.183891 
L 170.822078 307.526355 
L 171.354249 283.012002 
L 171.620334 275.976313 
L 171.88642 283.012002 
L 172.152505 286.539898 
L 172.418591 264.668954 
L 172.684676 274.991316 
L 173.216847 309.757674 
L 173.482932 323.929563 
L 174.015103 279.996707 
L 174.281188 300.038371 
L 174.547273 288.439534 
L 174.813359 283.434144 
L 175.079444 263.151255 
L 175.345529 267.724454 
L 175.611615 251.994662 
L 175.8777 247.421463 
L 176.143786 267.463128 
L 176.409871 256.658319 
L 176.675956 255.180824 
L 176.942042 255.994954 
L 177.208127 255.512507 
L 177.474212 245.170043 
L 177.740298 255.974852 
L 178.006383 259.502748 
L 178.272468 269.82511 
L 178.538554 254.336541 
L 178.804639 264.679005 
L 179.070724 261.151109 
L 179.33681 250.828747 
L 180.135066 284.640262 
L 181.199407 354.052366 
L 181.465493 366.94778 
L 182.263749 382.084564 
L 182.529834 378.556668 
L 182.795919 365.661254 
L 183.062005 360.706118 
L 183.594176 336.171663 
L 183.860261 359.429643 
L 184.126346 335.42789 
L 184.392432 336.905385 
L 184.658517 323.256147 
L 184.924602 316.220458 
L 185.190688 312.190012 
L 185.456773 326.361902 
L 185.722858 316.300865 
L 185.988944 316.783313 
L 186.255029 305.496056 
L 186.521114 321.225848 
L 186.7872 329.980256 
L 187.053285 329.166127 
L 187.319371 318.361317 
L 187.585456 299.495618 
L 187.851541 309.556654 
L 188.117627 328.422354 
L 188.383712 329.236484 
L 188.649797 309.30538 
L 188.915883 297.706543 
L 189.448053 257.221174 
L 189.980224 290.801516 
L 190.246309 277.152278 
L 190.512395 284.187968 
L 190.77848 282.710473 
L 191.044566 281.896343 
L 191.310651 261.854678 
L 191.576736 285.856431 
L 191.842822 271.684542 
L 192.374992 255.894444 
L 192.907163 274.971214 
L 193.173248 286.25847 
L 193.439334 285.776023 
L 193.971504 288.168158 
L 194.23759 301.817396 
L 194.503675 302.631525 
L 194.769761 314.230363 
L 195.035846 334.272027 
L 195.301931 333.357387 
L 195.568017 340.393077 
L 195.834102 329.105821 
L 196.100187 347.97152 
L 197.164529 308.49125 
L 197.430614 317.245658 
L 197.696699 317.728105 
L 197.962785 333.216674 
L 198.22887 324.462266 
L 199.027126 263.784467 
L 199.293212 252.18563 
L 199.559297 247.612432 
L 199.825382 229.078415 
L 200.091468 250.768442 
L 200.623638 271.121687 
L 200.889724 276.076822 
L 201.155809 254.386796 
L 201.68798 262.99044 
L 202.220151 253.462106 
L 202.486236 264.266915 
L 202.752321 263.452785 
L 203.018407 268.025983 
L 203.284492 278.087019 
L 203.550577 258.045355 
L 203.816663 247.783299 
L 204.082748 223.781546 
L 204.348833 243.823211 
L 204.614919 228.334642 
L 204.881004 249.954312 
L 205.147089 245.381113 
L 205.413175 243.903619 
L 205.67926 244.818258 
L 205.945346 255.14062 
L 206.211431 255.95475 
L 206.477516 247.200342 
L 206.743602 299.385057 
L 207.009687 286.489643 
L 207.275772 296.550679 
L 207.541858 286.489643 
L 207.807943 306.531308 
L 208.074028 291.042739 
L 208.340114 291.856869 
L 208.606199 281.594813 
L 209.13837 303.455706 
L 209.404455 317.104944 
L 209.670541 322.110335 
L 210.468797 285.052352 
L 210.734882 263.362326 
L 211.000967 283.29343 
L 211.267053 287.323875 
L 212.065309 338.774869 
L 212.597479 362.957539 
L 213.12965 331.528108 
L 213.395736 342.332917 
L 213.661821 340.855422 
L 214.193992 301.04347 
L 214.460077 292.289062 
L 214.726162 288.258617 
L 214.992248 266.638947 
L 215.258333 282.127516 
L 215.524418 283.042155 
L 215.790504 259.784175 
L 216.056589 283.042155 
L 216.322674 272.780099 
L 216.58876 279.815789 
L 216.854845 292.711203 
L 217.120931 294.188698 
L 217.387016 278.70013 
L 217.653101 288.962186 
L 217.919187 265.704206 
L 218.185272 264.226711 
L 218.451357 244.295607 
L 218.717443 243.380967 
L 218.983528 266.638947 
L 219.249613 256.296483 
L 219.515699 277.916153 
L 219.781784 264.266915 
L 220.047869 257.231225 
L 220.58004 279.634871 
L 220.846126 258.015202 
L 221.112211 265.050892 
L 221.378296 254.246082 
L 221.644382 250.718187 
L 221.910467 261.040548 
L 222.176552 279.574565 
L 222.442638 289.917029 
L 222.708723 284.961893 
L 222.974808 299.133783 
L 223.240894 292.098093 
L 223.506979 313.717762 
L 224.03915 276.368301 
L 224.305235 291.856869 
L 224.571321 281.594813 
L 224.837406 301.525917 
L 225.369577 310.511498 
L 225.901747 289.846672 
L 226.167833 271.312655 
L 226.433918 282.911492 
L 226.966089 264.096048 
L 227.498259 303.003412 
L 227.764345 291.716155 
L 228.03043 302.038517 
L 228.296516 288.389279 
L 228.562601 291.917175 
L 228.828686 286.962039 
L 229.094772 287.876679 
L 229.360857 266.005735 
L 229.626942 265.091096 
L 230.159113 285.33378 
L 230.691284 247.863707 
L 230.957369 298.721692 
L 231.223454 280.187675 
L 231.48954 285.193066 
L 231.755625 304.058765 
L 232.021711 307.586661 
L 232.287796 297.525625 
L 232.553881 281.795833 
L 232.819967 297.284401 
L 233.086052 301.8576 
L 233.352137 300.380105 
L 233.618223 301.194235 
L 233.884308 302.671729 
L 234.150393 313.014193 
L 234.416479 294.148494 
L 234.682564 307.043908 
L 234.948649 298.2895 
L 235.214735 309.888337 
L 235.48082 299.626281 
L 235.746906 318.160298 
L 236.012991 314.632402 
L 236.279076 307.596712 
L 236.811247 267.191751 
L 237.077332 265.714257 
L 237.343418 264.900127 
L 237.609503 254.557663 
L 237.875588 258.085559 
L 238.141674 247.28075 
L 238.407759 265.814766 
L 239.206015 207.217522 
L 240.270357 276.137128 
L 240.536442 252.135375 
L 240.802527 262.940185 
L 241.068613 247.210393 
L 241.334698 257.472449 
L 241.600783 238.938432 
L 241.866869 228.61607 
L 242.132954 250.306096 
L 242.399039 249.391457 
L 242.665125 245.863561 
L 242.93121 224.173534 
L 243.197296 224.987664 
L 243.463381 321.597735 
L 243.729466 333.196572 
L 243.995552 352.062271 
L 244.527722 334.684118 
L 244.793808 312.813174 
L 245.059893 302.912953 
L 245.325978 284.047254 
L 245.592064 280.519358 
L 245.858149 291.324167 
L 246.124234 310.189866 
L 246.656405 274.327951 
L 246.922491 272.850456 
L 247.188576 277.855847 
L 247.986832 309.00385 
L 248.252917 285.002097 
L 248.519003 309.00385 
L 248.785088 301.96816 
L 249.051173 303.445655 
L 249.317259 291.846818 
L 249.583344 271.805154 
L 249.849429 275.33305 
L 250.115515 286.620306 
L 250.3816 275.815497 
L 250.647686 270.769902 
L 250.913771 290.701006 
L 251.445942 256.598013 
L 251.712027 260.125909 
L 252.510283 210.122257 
L 252.776368 223.771495 
L 253.308539 266.307265 
L 253.574624 255.502456 
L 253.84071 268.39787 
L 254.106795 263.442734 
L 254.372881 272.197142 
L 254.638966 293.816811 
L 254.905051 283.474348 
L 255.171137 282.660218 
L 255.437222 262.88993 
L 255.703307 263.804569 
L 255.969393 268.80996 
L 256.235478 277.775439 
L 256.501563 273.744994 
L 257.033734 285.786074 
L 257.299819 271.614185 
L 257.565905 285.786074 
L 257.83199 270.056282 
L 258.098076 274.086727 
L 258.364161 275.001367 
L 258.630246 264.940331 
L 258.896332 269.513529 
L 259.162417 264.940331 
L 259.428502 246.074631 
L 259.694588 235.269822 
L 259.960673 256.889492 
L 260.226758 242.677398 
L 260.492844 243.159846 
L 261.2911 281.56466 
L 261.557185 263.030644 
L 261.823271 267.061089 
L 262.089356 248.195389 
L 262.621527 289.987386 
L 262.887612 305.475954 
L 263.153697 306.953449 
L 263.419783 302.380251 
L 263.951953 279.423801 
L 264.750209 309.727521 
L 265.016295 293.997729 
L 265.28238 298.952865 
L 265.548466 317.818564 
L 266.080636 309.335533 
L 266.346722 320.622789 
L 266.612807 325.195987 
L 266.878892 321.165542 
L 267.144978 297.907562 
L 267.411063 289.153154 
L 267.677148 312.411134 
L 267.943234 325.306548 
L 268.209319 330.311939 
L 268.475404 319.024682 
L 269.007575 282.941645 
L 269.273661 297.113535 
L 269.539746 287.052498 
L 269.805831 298.339755 
L 270.071917 288.439534 
L 270.338002 298.500571 
L 270.604087 302.531016 
L 270.870173 297.957817 
L 271.402343 273.443464 
L 271.934514 294.027882 
L 272.200599 309.757674 
L 272.466685 286.499694 
L 272.73277 286.982141 
L 272.998856 291.937277 
L 273.531026 267.965677 
L 273.797112 243.963924 
L 274.595368 311.154761 
L 274.861453 289.464735 
L 275.127538 299.787097 
L 275.393624 246.798302 
L 275.659709 251.753438 
L 275.925794 267.242006 
L 276.19188 267.724454 
L 276.457965 286.590153 
L 276.724051 296.651189 
L 276.990136 295.837059 
L 277.256221 290.881924 
L 277.522307 290.399476 
L 278.054477 319.024682 
L 278.320563 300.158983 
L 278.586648 305.164374 
L 278.852733 324.030073 
L 279.118819 334.352435 
L 279.384904 315.486736 
L 279.650989 334.352435 
L 279.917075 325.598027 
L 280.449246 293.836913 
L 280.715331 279.62482 
L 281.513587 342.533937 
L 281.779672 365.791917 
L 282.045758 351.620028 
L 282.311843 329.930001 
L 282.577928 340.734811 
L 282.844014 335.72942 
L 283.110099 357.419446 
L 283.908355 311.747769 
L 284.174441 301.686733 
L 284.440526 302.500863 
L 284.706611 307.506253 
L 284.972697 318.79351 
L 286.037038 274.760143 
L 286.569209 229.882494 
L 286.835294 229.068364 
L 287.101379 241.963778 
L 287.367465 223.098079 
L 287.63355 231.852487 
L 287.899636 218.203249 
L 288.165721 241.461229 
L 288.431806 252.748486 
L 288.697892 253.230933 
L 288.963977 263.131153 
L 289.230062 281.66517 
L 289.496148 280.750531 
L 289.762233 291.092994 
L 290.294404 250.868951 
L 290.560489 254.899396 
L 290.826574 291.686003 
L 291.09266 295.716448 
L 291.358745 250.868951 
L 291.624831 264.518189 
L 291.890916 249.029621 
L 292.157001 267.563638 
L 292.423087 243.561885 
L 292.689172 254.366694 
L 292.955257 276.05672 
L 293.487428 231.108714 
L 293.753513 246.838506 
L 294.285684 214.655251 
L 294.551769 238.657004 
L 294.817855 239.571644 
L 295.08394 219.801356 
L 295.350026 238.667055 
L 295.616111 214.665302 
L 295.882196 210.092104 
L 296.148282 199.769742 
L 296.414367 177.898798 
L 296.946538 156.269078 
L 297.212623 151.263687 
L 297.478708 172.953714 
L 297.744794 373.631685 
L 298.010879 374.114133 
L 298.276964 354.183029 
L 298.54305 367.078443 
L 299.075221 334.372537 
L 299.341306 212.212862 
L 299.607391 216.243307 
L 299.873477 236.284972 
L 300.139562 246.607334 
L 300.405647 232.435444 
L 300.671733 244.034281 
L 300.937818 265.905225 
L 301.203903 255.582863 
L 301.469989 269.232101 
L 301.736074 260.477693 
L 302.268245 280.861091 
L 302.53433 270.056282 
L 302.800416 266.528386 
L 303.066501 271.101585 
L 303.332586 259.502748 
L 303.598672 263.030644 
L 303.864757 252.708282 
L 304.130842 263.995538 
L 304.396928 245.129839 
L 304.663013 259.341932 
L 305.195184 269.302458 
L 305.461269 262.266769 
L 305.727354 277.755337 
L 305.99344 278.569467 
L 306.259525 301.827447 
L 306.525611 291.76641 
L 306.791696 290.952281 
L 307.057781 276.740187 
L 307.323867 254.869243 
L 307.589952 269.081337 
L 308.122123 260.045501 
L 308.920379 314.160006 
L 309.186464 302.872749 
L 309.98472 247.763197 
L 310.250806 267.533485 
L 310.516891 247.49182 
L 310.782976 242.918622 
L 311.049062 264.538291 
L 311.315147 275.3431 
L 311.581232 265.44288 
L 311.847318 270.016078 
L 312.113403 266.488182 
L 312.379488 276.549219 
L 312.645574 298.420163 
L 312.911659 288.077699 
L 313.177744 258.5077 
L 313.44383 277.041717 
L 313.709915 268.287309 
L 314.242086 310.089357 
L 314.508171 299.827301 
L 314.774257 294.82191 
L 315.040342 299.827301 
L 315.306427 285.655411 
L 315.572513 299.867505 
L 315.838598 298.39001 
L 316.104683 307.144418 
L 316.370769 311.717616 
L 316.902939 355.489657 
L 317.169025 331.487904 
L 317.43511 330.673774 
L 317.701196 344.845664 
L 317.967281 331.196426 
L 318.499452 296.942668 
L 318.765537 285.343831 
L 319.031622 286.821326 
L 319.297708 302.309894 
L 319.563793 291.987532 
L 319.829878 270.116588 
L 320.095964 283.765826 
L 320.362049 273.865606 
L 320.628134 258.377037 
L 320.89422 278.418702 
L 321.160305 277.936255 
L 321.692476 302.47071 
L 321.958561 297.465319 
L 322.224647 298.379959 
L 322.490732 284.208069 
L 322.756817 307.466049 
L 323.022903 318.270859 
L 323.288988 340.141803 
L 323.555073 345.096938 
L 323.821159 325.055274 
L 324.087244 349.057026 
L 324.353329 354.062417 
L 324.619415 335.5284 
L 324.8855 336.010848 
L 325.417671 297.37486 
L 325.683756 295.897365 
L 325.949842 271.895613 
L 326.215927 268.367717 
L 326.482012 246.496773 
L 326.748098 265.03079 
L 327.014183 266.508284 
L 327.280268 262.477839 
L 327.546354 284.348783 
L 327.812439 294.610839 
L 328.078524 289.605449 
L 328.610695 266.447979 
L 328.876781 282.17777 
L 329.142866 275.142081 
L 329.675037 295.103338 
L 329.941122 290.530139 
L 330.207207 310.571804 
L 330.473293 315.577195 
L 331.271549 273.332903 
L 331.537634 286.982141 
L 331.803719 294.017831 
L 332.069805 309.506399 
L 332.601976 285.956941 
L 332.868061 296.017977 
L 333.400232 258.839383 
L 333.666317 268.739603 
L 333.932402 258.397139 
L 334.198488 269.995976 
L 334.464573 262.960287 
L 334.730658 273.222343 
L 335.528914 242.576889 
L 335.795 266.578641 
L 336.061085 265.101146 
L 336.859341 203.257434 
L 337.125427 207.830632 
L 337.391512 227.761736 
L 337.657597 238.1042 
L 337.923683 308.481199 
L 338.189768 286.86153 
L 338.455853 308.481199 
L 338.721939 319.286008 
L 338.988024 308.481199 
L 339.254109 286.791173 
L 339.520195 297.133637 
L 339.78628 278.59962 
L 340.052366 298.530724 
L 340.584536 256.889492 
L 340.850622 246.547028 
L 341.116707 255.301436 
L 341.648878 294.289208 
L 342.181048 276.931156 
L 342.447134 291.143249 
L 342.713219 296.14864 
L 342.979304 306.953449 
L 343.24539 311.526647 
L 343.777561 302.923004 
L 344.043646 287.434436 
L 344.575817 328.89475 
L 344.841902 332.925195 
L 345.107987 322.864159 
L 345.374073 322.050029 
L 345.640158 332.372391 
L 345.906243 333.287031 
L 346.172329 355.157975 
L 346.438414 362.193664 
L 346.704499 347.981571 
L 346.970585 324.723591 
L 347.23667 321.195695 
L 347.502756 316.190305 
L 347.768841 316.672752 
L 348.034926 317.486882 
L 348.301012 297.716594 
L 348.567097 301.24449 
L 348.833182 300.32985 
L 349.099268 299.847403 
L 349.365353 300.32985 
L 349.631438 298.852355 
L 349.897524 294.82191 
L 350.163609 310.310478 
L 350.429694 315.265614 
L 351.227951 263.573397 
L 351.494036 265.050892 
L 351.760121 276.649729 
L 352.026207 275.172234 
L 352.292292 274.358104 
L 352.558377 293.223803 
L 352.824463 284.469395 
L 353.090548 270.297506 
L 353.622719 307.727375 
L 353.888804 319.014631 
L 354.420975 294.560584 
L 354.68706 318.562337 
L 354.953146 327.316745 
L 355.219231 311.586953 
L 355.485316 322.391763 
L 355.751402 340.925779 
L 356.283572 297.616084 
L 356.549658 294.088188 
L 356.815743 297.616084 
L 357.081828 307.516304 
L 357.347914 296.711495 
L 357.613999 318.331164 
L 357.880084 302.842596 
L 358.14617 304.320091 
L 358.412255 300.792195 
L 358.678341 286.620306 
L 358.944426 299.51572 
L 359.476597 308.119363 
L 359.742682 307.636916 
L 360.008767 284.378936 
L 360.274853 277.343247 
L 360.540938 273.312801 
L 360.807023 283.373838 
L 361.073109 284.187968 
L 361.339194 265.322268 
L 361.605279 260.74907 
L 361.871365 236.747317 
L 362.13745 235.933187 
L 362.403536 226.032967 
L 362.669621 240.204856 
L 362.935706 229.9428 
L 363.201792 208.071856 
L 363.733962 235.219567 
L 364.000048 311.365832 
L 364.266133 300.561023 
L 364.798304 298.832253 
L 365.064389 290.077845 
L 365.330474 274.589277 
L 365.862645 301.365101 
L 366.128731 306.320237 
L 366.394816 320.53233 
L 366.660901 310.189866 
L 366.926987 321.788703 
L 367.193072 321.306256 
L 367.459157 321.788703 
L 367.725243 343.47873 
L 367.991328 353.801092 
L 368.257413 338.0713 
L 368.523499 333.116164 
L 368.789584 311.426138 
L 369.055669 306.420747 
L 369.321755 307.234877 
L 369.58784 291.746308 
L 369.853926 307.234877 
L 370.120011 296.912515 
L 370.386096 292.339317 
L 370.918267 317.316015 
L 371.184352 330.211429 
L 371.716523 306.099115 
L 371.982608 311.104506 
L 372.248694 235.480893 
L 372.514779 239.008789 
L 372.780864 257.874488 
L 373.04695 258.356935 
L 373.313035 273.845504 
L 373.579121 297.847257 
L 373.845206 301.877702 
L 374.111291 280.187675 
L 374.377377 301.877702 
L 374.643462 283.343685 
L 374.909547 294.630941 
L 375.175633 317.888921 
L 375.441718 307.566559 
L 375.707803 327.497663 
L 375.973889 307.566559 
L 376.239974 304.038663 
L 376.506059 315.6375 
L 376.772145 296.771801 
L 377.03823 297.585931 
L 377.304316 293.555486 
L 377.570401 283.49445 
L 377.836486 293.816811 
L 378.368657 266.488182 
L 378.634742 265.010688 
L 378.900828 264.196558 
L 379.432998 299.857454 
L 379.699084 294.902318 
L 379.965169 284.579956 
L 380.231254 294.640992 
L 380.49734 290.067794 
L 380.763425 309.838082 
L 381.295596 271.091534 
L 381.827767 248.125032 
L 382.093852 262.296922 
L 382.359937 251.009665 
L 382.626023 255.04011 
L 382.892108 231.038357 
L 383.158193 254.296337 
L 383.424279 265.583594 
L 383.690364 270.53873 
L 383.956449 266.508284 
L 384.48862 230.736828 
L 384.754706 244.948921 
L 385.020791 230.736828 
L 385.286876 209.117159 
L 385.552962 213.147604 
L 386.085132 253.632972 
L 386.617303 210.443889 
L 386.883388 211.921383 
L 387.149474 216.926774 
L 387.415559 235.460791 
L 387.681644 225.118327 
L 387.94773 228.646223 
L 388.213815 223.640832 
L 388.479901 212.353576 
L 388.745986 217.358966 
L 389.012071 198.82495 
L 389.278157 188.924729 
L 389.544242 199.247091 
L 390.076413 244.376015 
L 390.342498 224.605727 
L 390.608583 244.536831 
L 390.874669 256.135668 
L 391.140754 241.963778 
L 391.406839 248.999468 
L 391.672925 297.585931 
L 391.93901 307.646967 
L 392.205096 306.832837 
L 392.471181 311.787973 
L 392.737266 312.27042 
L 393.003352 298.058327 
L 393.269437 302.088772 
L 393.535522 291.746308 
L 393.801608 254.839091 
L 394.067693 258.869536 
L 394.333778 268.930572 
L 394.599864 257.331735 
L 394.865949 235.712066 
L 395.39812 215.308565 
L 395.664205 229.480455 
L 395.930291 228.565815 
L 396.196376 238.908279 
L 396.462461 228.585917 
L 396.728547 225.058021 
L 396.994632 205.126917 
L 397.260717 225.058021 
L 397.526803 206.192322 
L 397.792888 210.76552 
L 398.058973 222.052777 
L 398.325059 200.36275 
L 398.591144 222.052777 
L 398.857229 222.535224 
L 399.123315 222.052777 
L 399.655486 242.637194 
L 399.921571 261.171211 
L 400.453742 219.369164 
L 400.719827 219.851611 
L 400.985912 239.782715 
L 401.251998 229.460353 
L 401.518083 207.770327 
L 401.784168 227.811991 
L 402.050254 232.767127 
L 402.582424 221.158239 
L 403.114595 181.18547 
L 403.380681 203.056414 
L 403.646766 201.57892 
L 403.912851 211.901281 
L 404.178937 201.57892 
L 404.445022 345.006479 
L 404.711107 344.09184 
L 404.977193 330.442602 
L 405.243278 306.440849 
L 405.509363 306.923296 
L 405.775449 286.881632 
L 406.041534 297.143688 
L 406.307619 285.544851 
L 406.573705 284.067356 
L 406.83979 295.354612 
L 407.105876 319.356365 
L 407.371961 299.586077 
L 407.638046 246.999322 
L 407.904132 242.044186 
L 408.170217 222.002522 
L 408.436302 220.525027 
L 408.968473 180.120066 
L 409.234558 198.071126 
L 409.500644 200.784892 
L 409.766729 199.397856 
L 410.032814 196.352407 
L 411.097156 232.636464 
L 411.629327 249.572374 
L 412.161497 221.188392 
L 412.427583 222.103032 
L 412.693668 236.274921 
L 412.959753 225.932457 
L 413.225839 236.737266 
L 413.491924 256.66837 
L 413.758009 255.75373 
L 414.024095 241.581841 
L 414.29018 251.843897 
L 414.556266 241.039088 
L 415.088436 265.533339 
L 415.354522 267.010834 
L 415.620607 278.29809 
L 415.886692 274.267645 
L 416.152778 264.367425 
L 416.418863 282.901441 
L 416.684948 281.423947 
L 416.951034 276.850748 
L 417.483204 249.029621 
L 417.74929 253.984757 
L 418.015375 243.722701 
L 418.281461 253.622921 
L 418.547546 243.561885 
L 418.813631 265.251911 
L 419.079717 254.929549 
L 419.345802 233.239523 
L 419.611887 237.269968 
L 419.877973 238.747463 
L 420.144058 238.265016 
L 420.942314 206.624514 
L 421.208399 184.75357 
L 421.474485 185.236018 
L 421.74057 196.040827 
L 422.006656 191.085691 
L 422.272741 201.408053 
L 422.538826 196.402662 
L 422.804912 210.0519 
L 423.337082 189.346871 
L 423.603168 202.352845 
L 423.869253 224.43486 
L 424.135338 224.43486 
L 424.401424 229.389996 
L 424.667509 240.988833 
L 424.933594 305.596566 
L 425.465765 338.111504 
L 425.731851 208.473895 
L 425.997936 203.51876 
L 426.530107 180.4618 
L 427.328363 224.012719 
L 427.594448 248.014472 
L 427.860533 228.083368 
L 428.126619 246.949067 
L 428.658789 229.108568 
L 428.924875 231.158969 
L 429.19096 229.882494 
L 429.457046 217.117743 
L 429.723131 227.460207 
L 429.989216 228.937701 
L 430.255302 250.557371 
L 430.521387 296.028028 
L 430.787472 291.45483 
L 431.053558 284.41914 
L 431.319643 262.729114 
L 431.585728 283.856285 
L 431.851814 264.990586 
L 432.383984 285.856431 
L 432.65007 285.042301 
L 432.916155 304.973405 
L 433.182241 285.042301 
L 433.714411 264.658903 
L 433.980497 283.19292 
L 434.246582 278.237784 
L 434.512667 276.760289 
L 434.778753 261.030497 
L 435.044838 260.54805 
L 435.310923 236.546297 
L 435.577009 246.446518 
L 435.843094 235.641709 
L 436.109179 217.107692 
L 436.375265 227.912501 
L 436.64135 251.914254 
L 436.907436 241.109445 
L 437.173521 262.980389 
L 437.439606 263.794518 
L 437.705692 253.894298 
L 437.971777 262.648706 
L 438.237862 261.834576 
L 438.770033 298.922712 
L 439.036118 298.440265 
L 439.302204 293.485129 
L 439.568289 315.175155 
L 439.834374 315.657602 
L 440.10046 305.596566 
L 440.366545 310.551702 
L 440.632631 299.746893 
L 440.898716 280.881193 
L 441.164801 275.926058 
L 441.430887 256.15577 
L 441.696972 263.191459 
L 441.963057 252.929403 
L 442.229143 266.578641 
L 442.495228 251.090073 
L 442.761313 244.054383 
L 443.027399 233.732021 
L 443.293484 255.602965 
L 443.559569 241.390872 
L 444.09174 267.141497 
L 444.357826 271.714695 
L 444.623911 293.334364 
L 444.889996 298.2895 
L 445.156082 309.094309 
L 445.422167 308.280179 
L 445.688252 303.325043 
L 445.954338 306.852939 
L 446.220423 317.195403 
L 446.486508 318.009533 
L 446.752594 314.481637 
L 447.018679 324.803999 
L 447.284764 221.7814 
L 447.55085 235.430638 
L 448.083021 191.658597 
L 448.615191 212.725462 
L 448.881277 232.49575 
L 449.147362 242.838214 
L 449.413447 262.769318 
L 449.945618 219.74105 
L 450.211703 243.742803 
L 450.743874 265.664002 
L 451.276045 298.369908 
L 451.54213 298.852355 
L 451.808216 310.139611 
L 452.074301 290.097947 
L 452.340386 295.103338 
L 452.606472 283.504501 
L 452.872557 263.573397 
L 453.138642 263.090949 
L 453.936898 233.701869 
L 454.202984 238.275067 
L 454.469069 226.98781 
L 454.735154 246.918914 
L 455.267325 222.464867 
L 455.533411 245.722847 
L 455.799496 247.200342 
L 456.331667 235.591454 
L 456.597752 231.561009 
L 456.863837 230.646369 
L 457.129923 252.517313 
L 457.396008 253.331443 
L 457.928179 206.07171 
L 458.194264 227.761736 
L 458.460349 224.23384 
L 458.726435 229.188976 
L 458.99252 244.677544 
L 459.258606 225.811845 
L 459.524691 249.069825 
L 459.790776 247.59233 
L 460.056862 260.487744 
L 460.322947 280.258032 
L 460.589032 260.326928 
L 461.121203 294.92242 
L 461.387288 295.404867 
L 461.653374 306.209676 
L 461.919459 307.124316 
L 462.185544 311.697514 
L 462.45163 298.8021 
L 462.717715 300.279595 
L 463.249886 258.155916 
L 463.515971 257.673468 
L 463.782057 268.960725 
L 464.048142 272.488621 
L 464.846398 322.87421 
L 465.112483 312.531746 
L 465.378569 325.42716 
L 465.910739 290.168304 
L 466.176825 285.213168 
L 466.708996 250.44681 
L 466.975081 272.317754 
L 467.241166 277.27289 
L 467.507252 300.53087 
L 467.773337 246.054529 
L 468.039422 249.582425 
L 468.305508 229.651321 
L 468.571593 251.522265 
L 468.837678 231.751977 
L 469.103764 241.652198 
L 469.369849 261.583302 
L 469.635934 272.388111 
L 469.90202 262.045647 
L 470.434191 303.505961 
L 470.700276 303.023514 
L 470.966361 313.345876 
L 471.232447 291.65585 
L 471.498532 288.127954 
L 471.764617 274.478716 
L 472.030703 254.547612 
L 472.296788 255.030059 
L 472.562873 259.603258 
L 472.828959 259.603258 
L 473.095044 248.004421 
L 473.361129 298.580978 
L 473.627215 287.293722 
L 473.8933 291.324167 
L 474.159386 301.646529 
L 474.425471 292.892121 
L 474.691556 291.414626 
L 474.957642 277.765388 
L 475.223727 279.242883 
L 475.755898 241.823065 
L 476.021983 261.593353 
L 476.288068 251.270991 
L 476.554154 250.356351 
L 476.820239 248.878856 
L 477.35241 207.08686 
L 477.618495 228.776886 
L 477.884581 208.845782 
L 478.150666 227.379799 
L 478.416751 237.702161 
L 478.682837 216.012134 
L 478.948922 215.198005 
L 479.215007 229.369894 
L 479.481093 209.599606 
L 479.747178 219.871713 
L 480.013263 201.337696 
L 480.811519 255.401946 
L 481.077605 267.000783 
L 481.34369 267.814913 
L 481.609776 262.809522 
L 481.875861 263.724162 
L 482.141946 249.552272 
L 482.408032 256.587962 
L 482.940202 217.680598 
L 483.206288 212.725462 
L 484.270629 272.408213 
L 484.536714 261.120956 
L 485.068885 279.775585 
L 485.601056 321.396715 
L 485.867141 320.582585 
L 486.133227 343.840565 
L 486.399312 355.127822 
L 486.665397 213.328521 
L 486.931483 220.364211 
L 487.197568 224.394656 
L 487.463653 202.523712 
L 487.729739 211.27812 
L 487.995824 202.523712 
L 488.261909 212.423933 
L 488.527995 205.388243 
L 488.79408 218.283657 
L 489.060166 213.278266 
L 489.326251 217.80121 
L 489.592336 239.491236 
L 489.858422 229.591016 
L 490.124507 238.345424 
L 490.390592 254.075216 
L 490.656678 243.270406 
L 490.922763 254.869243 
L 491.454934 234.515998 
L 491.721019 220.86676 
L 491.987104 224.394656 
L 492.25319 238.043894 
L 492.519275 233.470696 
L 492.785361 243.793058 
L 493.051446 263.724162 
L 493.317531 275.011418 
L 493.849702 318.502031 
L 494.115787 317.687901 
L 494.647958 287.78622 
L 494.914043 282.78083 
L 495.180129 292.68105 
L 495.446214 293.59569 
L 495.712299 283.333634 
L 495.978385 287.906832 
L 496.510556 312.923734 
L 497.042726 277.654827 
L 497.840982 305.094017 
L 498.107068 305.908147 
L 498.373153 329.166127 
L 498.639238 318.823663 
L 498.905324 337.35768 
L 499.171409 313.355927 
L 499.437494 302.551118 
L 499.70358 284.017101 
L 499.969665 279.443902 
L 500.235751 268.156646 
L 500.501836 281.805884 
L 500.767921 258.547904 
L 501.300092 294.047984 
L 501.566177 281.15257 
L 501.832263 295.324459 
L 502.098348 281.675221 
L 502.630519 310.059204 
L 503.162689 271.2624 
L 503.428775 291.193504 
L 503.69486 255.391895 
L 503.960946 241.742657 
L 504.227031 263.613601 
L 504.493116 253.351545 
L 504.759202 254.165675 
L 505.025287 242.566838 
L 505.291372 258.055406 
L 505.557458 239.521389 
L 505.823543 249.582425 
L 506.089628 253.61287 
L 506.355714 253.61287 
L 506.621799 260.64856 
L 506.887884 250.306096 
L 507.420055 207.438644 
L 507.686141 198.684236 
L 507.952226 194.111038 
L 508.218311 213.881326 
L 508.484397 203.820289 
L 508.750482 199.789844 
L 509.016567 203.31774 
L 509.282653 216.213154 
L 509.548738 215.399024 
L 509.814823 204.594215 
L 510.080909 224.525319 
L 510.346994 235.330128 
L 510.613079 224.042872 
L 510.879165 219.037481 
L 511.14525 229.379945 
L 511.411336 228.897498 
L 511.677421 233.470696 
L 511.943506 234.284826 
L 512.209592 214.353722 
L 512.741762 251.77354 
L 513.007848 253.251035 
L 513.273933 272.116734 
L 513.540018 259.22132 
L 513.806104 263.251765 
L 514.072189 273.574127 
L 514.338274 251.884101 
L 514.60436 275.885854 
L 514.870445 280.840989 
L 515.136531 292.128246 
L 515.402616 254.457153 
L 515.668701 241.561739 
L 515.934787 251.904203 
L 516.200872 256.859339 
L 516.466957 272.589131 
L 516.733043 267.633995 
L 516.999128 256.035158 
L 517.265213 260.608356 
L 517.531299 282.4793 
L 517.797384 283.29343 
L 518.329555 306.993653 
L 518.59564 294.098239 
L 518.861726 306.993653 
L 519.127811 314.029343 
L 519.393896 325.316599 
L 519.659982 320.311209 
L 520.192152 278.3986 
L 520.458238 268.136544 
L 520.724323 279.735381 
L 521.256494 260.638509 
L 521.522579 284.640262 
L 521.788664 280.067064 
L 522.05475 267.171649 
L 522.586921 304.531162 
L 522.853006 290.319069 
L 523.119091 268.448125 
L 523.385177 261.412435 
L 523.651262 249.813598 
L 523.917347 271.684542 
L 524.183433 249.994516 
L 524.449518 260.256572 
L 524.715603 246.084682 
L 524.981689 265.85497 
L 525.513859 243.762905 
L 525.779945 265.452931 
L 526.04603 266.930426 
L 526.312116 245.2404 
L 526.578201 255.562761 
L 526.844286 291.022638 
L 527.376457 266.508284 
L 527.642542 276.408505 
L 527.908628 271.835307 
L 528.174713 285.484545 
L 528.440798 271.835307 
L 528.706884 271.835307 
L 528.972969 272.749946 
L 529.239054 272.749946 
L 529.50514 271.835307 
L 529.771225 257.623213 
L 530.037311 267.885269 
L 530.303396 257.623213 
L 530.569481 281.624966 
L 530.835567 291.947328 
L 531.101652 283.19292 
L 531.633823 238.244914 
L 531.899908 252.457007 
L 532.165993 239.561593 
L 532.432079 236.033697 
L 532.698164 221.821604 
L 532.964249 214.062243 
L 533.230335 209.991594 
L 533.49642 189.94993 
L 533.762506 209.720218 
L 534.028591 206.192322 
L 534.560762 238.375577 
L 534.826847 238.858024 
L 535.092932 254.346592 
L 535.359018 243.541783 
L 535.625103 243.541783 
L 535.891188 221.922114 
L 536.157274 232.726923 
L 536.689444 270.196996 
L 536.95553 271.674491 
L 537.221615 261.77427 
L 537.487701 273.061527 
L 537.753786 268.056136 
L 538.019871 249.190437 
L 538.285957 242.154747 
L 538.552042 304.430652 
L 539.084213 287.333926 
L 539.350298 307.26503 
L 539.616383 314.300719 
L 539.882469 318.331164 
L 540.148554 305.43575 
L 540.414639 305.43575 
L 541.478981 219.288756 
L 541.745066 229.631219 
L 542.011152 234.204418 
L 542.277237 255.824087 
L 542.543322 290.761312 
L 542.809408 268.890368 
L 543.075493 280.177624 
L 543.341578 281.655119 
L 543.873749 239.53144 
L 544.139834 253.743533 
L 544.40592 252.266038 
L 544.672005 247.260648 
L 544.938091 223.258895 
L 545.204176 223.258895 
L 545.470261 233.601359 
L 545.736347 229.570914 
L 546.002432 239.893275 
L 546.268517 236.36538 
L 546.800688 236.36538 
L 547.066773 251.853948 
L 547.332859 256.809084 
L 547.598944 251.853948 
L 547.865029 250.939308 
L 548.3972 250.939308 
L 548.663286 255.894444 
L 548.929371 256.376891 
L 549.195456 245.089635 
L 549.461542 250.095025 
L 549.993712 250.095025 
L 550.259798 261.693862 
L 550.525883 256.738727 
L 550.791968 257.653366 
L 551.058054 247.39131 
L 551.324139 267.322414 
L 551.590224 266.508284 
L 551.85631 276.77034 
L 552.122395 269.734651 
L 552.388481 289.504939 
L 552.654566 299.565975 
L 552.920651 277.875949 
L 553.186737 301.877702 
L 553.452822 306.4509 
L 553.718907 305.53626 
L 553.984993 319.185498 
L 554.251078 320.100138 
L 554.517163 332.995552 
L 554.783249 324.241144 
L 555.581505 278.237784 
L 555.84759 288.580248 
L 556.113676 278.519212 
L 556.379761 278.519212 
L 556.645846 278.036765 
L 556.911932 266.437928 
L 557.444102 307.174571 
L 557.710188 285.303627 
L 557.976273 290.258763 
L 558.508444 333.749376 
L 558.774529 328.743985 
L 559.3067 296.038079 
L 559.572785 314.572096 
L 559.838871 309.998898 
L 560.104956 318.753306 
L 560.371041 308.853085 
L 560.637127 308.853085 
L 560.903212 303.89795 
L 561.169297 315.496787 
L 561.435383 300.008218 
L 561.701468 304.581417 
L 561.967553 315.868673 
L 562.233639 302.973259 
L 563.031895 240.616946 
L 563.29798 262.306973 
L 563.564066 248.657735 
L 563.830151 248.657735 
L 564.096236 268.588838 
L 564.362322 250.054822 
L 564.628407 250.054822 
L 564.894492 251.532316 
L 565.160578 251.532316 
L 565.426663 252.014764 
L 565.692748 270.548781 
L 565.958834 274.579226 
L 566.224919 284.640262 
L 566.491004 275.885854 
L 566.75709 275.885854 
L 567.023175 264.598597 
L 567.289261 242.908571 
L 567.555346 254.195827 
L 567.821431 234.154163 
L 568.087517 230.123718 
L 568.353602 210.35343 
L 568.619687 213.881326 
L 569.151858 192.251605 
L 569.417943 205.147019 
L 569.950114 180.67287 
L 570.216199 181.487 
L 570.482285 162.952983 
L 570.74837 152.891947 
L 571.546626 209.016649 
L 571.812712 213.971784 
L 572.078797 222.726193 
L 572.344882 211.127356 
L 572.610968 221.389412 
L 572.877053 197.387659 
L 573.143138 195.910164 
L 573.675309 176.833394 
L 574.739651 246.888761 
L 575.005736 227.118473 
L 575.271821 222.163337 
L 575.537907 209.267923 
L 575.803992 224.997715 
L 576.070077 248.255695 
L 576.336163 243.682497 
L 576.868333 268.136544 
L 577.134419 289.756213 
L 577.400504 256.829186 
L 577.666589 246.486722 
L 577.932675 246.486722 
L 578.730931 211.127356 
L 578.997016 211.127356 
L 579.263102 232.817382 
L 579.529187 232.817382 
L 579.795272 225.781692 
L 580.327443 227.510462 
L 580.593528 203.508709 
L 580.859614 203.508709 
L 581.125699 210.544398 
L 581.391784 224.716288 
L 581.65787 224.716288 
L 581.923955 234.777324 
L 582.190041 258.779077 
L 582.456126 254.748632 
L 582.722211 265.553441 
L 583.254382 265.553441 
L 583.520467 264.638801 
L 583.786553 253.039964 
L 584.052638 264.327221 
L 584.318723 245.461521 
L 584.584809 249.491966 
L 584.850894 245.461521 
L 585.116979 223.771495 
L 585.383065 222.957365 
L 585.64915 222.957365 
L 585.915236 215.921676 
L 586.181321 196.151388 
L 586.447406 191.145997 
L 586.713492 196.151388 
L 586.979577 196.151388 
L 587.245662 211.881179 
L 587.777833 184.813876 
L 588.043918 179.85874 
L 588.310004 190.201204 
L 588.576089 178.240532 
L 588.842174 196.774549 
L 589.10826 196.774549 
L 589.374345 209.891084 
L 589.640431 191.357068 
L 590.172601 193.085837 
L 590.704772 214.735659 
L 590.970857 214.735659 
L 591.236943 213.258164 
L 591.503028 212.444035 
L 591.769113 190.573091 
L 592.035199 190.573091 
L 592.301284 197.60878 
L 592.567369 198.42291 
L 592.833455 187.618101 
L 593.09954 183.044903 
L 593.631711 181.316133 
L 593.897796 157.31438 
L 594.163882 157.796828 
L 594.429967 150.761138 
L 594.696052 150.761138 
L 594.962138 162.359975 
L 595.228223 162.359975 
L 595.760394 186.432085 
L 596.026479 190.46253 
L 596.55865 190.46253 
L 596.824735 180.120066 
L 597.090821 201.810092 
L 597.356906 201.810092 
L 597.622991 212.072148 
L 597.889077 216.645347 
L 598.155162 239.903326 
L 598.421247 225.731437 
L 598.687333 232.767127 
L 598.953418 232.767127 
L 599.219503 225.731437 
L 600.017759 225.731437 
L 600.283845 215.469381 
L 600.54993 215.469381 
L 600.816016 220.424517 
L 601.614272 206.936095 
L 601.880357 213.971784 
L 602.412528 213.971784 
L 602.678613 224.776594 
L 602.944698 201.518614 
L 603.210784 188.6232 
L 604.00904 188.6232 
L 604.275125 192.151095 
L 604.541211 192.151095 
L 604.807296 188.12065 
L 605.073381 188.12065 
L 605.339467 166.430624 
L 605.605552 166.430624 
L 605.871637 188.12065 
L 606.403808 188.12065 
L 606.669893 198.382706 
L 606.935979 191.347017 
L 607.202064 187.819121 
L 607.468149 176.220284 
L 607.734235 181.175419 
L 608.266406 153.203527 
L 608.798576 153.203527 
L 609.064662 154.681022 
L 609.330747 153.203527 
L 609.596832 153.685975 
L 609.862918 166.722103 
L 610.129003 162.148904 
L 611.193344 162.148904 
L 611.45943 175.798142 
L 611.725515 174.320648 
L 611.991601 184.663111 
L 612.257686 184.663111 
L 612.523771 204.433399 
L 613.322027 173.868353 
L 614.120283 173.868353 
L 614.386369 158.138561 
L 614.652454 158.952691 
L 614.918539 158.952691 
L 615.184625 153.9473 
L 615.716796 153.9473 
L 615.982881 157.977745 
L 616.781137 157.977745 
L 617.047222 158.641111 
L 617.579393 158.641111 
L 617.845478 163.646501 
L 618.111564 173.988965 
L 618.377649 154.218677 
L 618.90982 154.218677 
L 619.175905 164.118897 
L 619.441991 178.290787 
L 619.708076 173.335651 
L 620.240247 173.335651 
L 620.506332 186.231065 
L 621.038503 186.231065 
L 621.304588 175.969009 
L 621.570673 154.34934 
L 622.102844 193.256704 
L 622.368929 182.91424 
L 622.635015 162.872575 
L 623.167186 162.872575 
L 623.433271 158.84213 
L 623.699356 158.84213 
L 623.965442 165.596392 
L 624.231527 165.596392 
L 624.497612 154.309136 
L 625.295868 154.309136 
L 625.561954 158.339581 
L 625.828039 156.862086 
L 626.094124 151.645625 
L 626.36021 156.60076 
L 626.892381 156.60076 
L 627.158466 157.5154 
L 627.424551 157.5154 
L 627.690637 153.484955 
L 627.956722 152.00746 
L 628.222807 152.00746 
L 628.488893 152.82159 
L 628.754978 152.00746 
L 629.287149 152.00746 
L 629.553234 156.037905 
L 629.819319 152.510009 
L 631.948002 152.510009 
L 632.480173 157.20382 
L 633.012344 149.665581 
L 634.076685 149.665581 
L 634.342771 168.199598 
L 635.407112 168.199598 
L 635.673197 163.626399 
L 635.939283 163.626399 
L 636.205368 170.662089 
L 638.334051 170.662089 
L 638.600136 175.235287 
L 639.930563 175.235287 
L 640.196648 162.339873 
L 640.994904 162.339873 
L 641.26099 161.857426 
L 641.527075 148.167984 
L 642.857502 148.167984 
L 643.123587 149.645479 
L 643.389673 149.163031 
L 643.655758 149.645479 
L 644.454014 149.645479 
L 644.720099 142.911319 
L 644.986185 142.911319 
L 645.25227 133.011098 
L 646.582697 133.011098 
L 646.848782 128.4379 
L 647.380953 128.4379 
L 647.647038 142.649993 
L 647.913124 142.649993 
L 648.179209 143.152542 
L 650.573977 143.152542 
L 650.840063 132.810078 
L 652.70266 132.810078 
L 652.968746 123.171183 
L 655.097428 123.171183 
L 655.363514 123.985313 
L 655.895684 123.985313 
L 656.16177 123.171183 
L 658.290453 123.171183 
L 658.556538 126.699079 
L 658.822623 108.165062 
L 659.088709 108.165062 
L 659.620879 99.561419 
L 662.015648 99.561419 
L 662.281733 100.375549 
L 663.346074 100.375549 
L 663.61216 95.420413 
L 666.539099 95.420413 
L 666.805184 93.942918 
L 679.311196 93.942918 
L 679.577281 88.887273 
L 680.375537 88.887273 
L 680.641623 90.364768 
L 684.100732 90.364768 
L 684.366818 93.480573 
L 716.297061 93.480573 
L 716.563146 94.395213 
L 721.618768 94.395213 
L 721.884853 90.364768 
L 724.811792 90.364768 
L 725.077877 88.887273 
L 871.690909 88.887273 
L 871.690909 88.887273 
" style="fill:none;stroke:#8dd3c7;stroke-linecap:square;stroke-width:1.5;"/>
   </g>
   <g id="line2d_17">
    <path clip-path="url(#pa91a2f2f64)" d="M 161.509091 206.222475 
L 295.882196 206.222475 
L 296.148282 199.769742 
L 296.414367 177.898798 
L 296.946538 156.269078 
L 297.212623 151.263687 
L 594.163882 151.263687 
L 594.429967 150.761138 
L 632.746258 150.761138 
L 633.012344 149.665581 
L 641.26099 149.665581 
L 641.527075 148.167984 
L 644.454014 148.167984 
L 644.720099 142.911319 
L 644.986185 142.911319 
L 645.25227 133.011098 
L 646.582697 133.011098 
L 646.848782 128.4379 
L 652.70266 128.4379 
L 652.968746 123.171183 
L 658.556538 123.171183 
L 658.822623 108.165062 
L 659.088709 108.165062 
L 659.620879 99.561419 
L 663.346074 99.561419 
L 663.61216 95.420413 
L 666.539099 95.420413 
L 666.805184 93.942918 
L 679.311196 93.942918 
L 679.577281 88.887273 
L 871.690909 88.887273 
L 871.690909 88.887273 
" style="fill:none;stroke:#feffb3;stroke-linecap:square;stroke-width:1.5;"/>
   </g>
   <g id="line2d_18">
    <path clip-path="url(#pa91a2f2f64)" d="M 161.509091 289.625551 
L 163.903859 289.625551 
L 164.169944 304.645447 
L 166.564713 304.645447 
L 166.830798 318.506099 
L 169.225566 318.506099 
L 169.491652 331.296977 
L 171.88642 331.296977 
L 172.152505 343.100649 
L 174.547273 343.100649 
L 174.813359 353.993305 
L 177.208127 353.993305 
L 177.474212 364.045261 
L 179.868981 364.045261 
L 180.135066 373.3214 
L 182.529834 373.3214 
L 182.795919 381.881601 
L 185.190688 381.881601 
L 185.456773 389.781122 
L 187.851541 389.781122 
L 188.117627 397.070952 
L 190.512395 397.070952 
L 190.77848 403.798149 
L 193.173248 403.798149 
L 193.439334 410.006137 
L 195.834102 410.006137 
L 196.100187 415.734989 
L 198.494956 415.734989 
L 198.761041 421.021685 
L 201.155809 421.021685 
L 201.421894 425.90035 
L 203.816663 425.90035 
L 204.082748 430.402477 
L 206.477516 430.402477 
L 206.743602 434.557128 
L 209.13837 434.557128 
L 209.404455 438.39112 
L 211.799223 438.39112 
L 212.065309 441.929202 
L 214.460077 441.929202 
L 214.726162 445.194213 
L 217.120931 445.194213 
L 217.387016 448.207228 
L 219.781784 448.207228 
L 220.047869 450.987698 
L 222.442638 450.987698 
L 222.708723 453.553569 
L 225.103491 453.553569 
L 225.369577 455.921404 
L 227.764345 455.921404 
L 228.03043 458.106489 
L 230.425198 458.106489 
L 230.691284 460.122927 
L 233.086052 460.122927 
L 233.352137 461.983736 
L 235.746906 461.983736 
L 236.012991 463.700926 
L 238.407759 463.700926 
L 238.673844 465.285582 
L 241.068613 465.285582 
L 241.334698 466.747934 
L 243.729466 466.747934 
L 243.995552 468.097421 
L 246.39032 468.097421 
L 246.656405 469.342753 
L 249.051173 469.342753 
L 249.317259 470.49197 
L 251.712027 470.49197 
L 251.978112 471.55249 
L 254.372881 471.55249 
L 254.638966 472.531158 
L 257.033734 472.531158 
L 257.299819 473.434292 
L 259.694588 473.434292 
L 259.960673 474.267722 
L 262.355441 474.267722 
L 262.621527 475.036827 
L 265.016295 475.036827 
L 265.28238 475.746572 
L 267.677148 475.746572 
L 267.943234 476.401538 
L 270.338002 476.401538 
L 270.604087 477.005954 
L 272.998856 477.005954 
L 273.264941 477.563721 
L 275.659709 477.563721 
L 275.925794 478.078438 
L 278.320563 478.078438 
L 278.586648 478.55343 
L 280.981416 478.55343 
L 281.247502 478.991762 
L 283.64227 478.991762 
L 283.908355 479.396262 
L 286.303123 479.396262 
L 286.569209 479.769544 
L 288.963977 479.769544 
L 289.230062 480.114015 
L 291.624831 480.114015 
L 291.890916 480.431899 
L 294.285684 480.431899 
L 294.551769 480.72525 
L 296.946538 480.72525 
L 297.212623 480.995959 
L 299.607391 480.995959 
L 299.873477 481.245774 
L 302.268245 481.245774 
L 302.53433 481.476309 
L 304.929098 481.476309 
L 305.195184 481.689051 
L 307.589952 481.689051 
L 307.856037 481.885374 
L 310.250806 481.885374 
L 310.516891 482.066544 
L 312.911659 482.066544 
L 313.177744 482.233731 
L 315.572513 482.233731 
L 315.838598 482.388015 
L 318.233366 482.388015 
L 318.499452 482.530391 
L 320.89422 482.530391 
L 321.160305 482.661778 
L 323.555073 482.661778 
L 324.087244 482.783025 
L 326.215927 482.783025 
L 326.748098 482.894914 
L 331.537634 482.998167 
L 332.069805 483.093451 
L 336.859341 483.181381 
L 337.391512 483.262525 
L 342.181048 483.337405 
L 342.713219 483.406507 
L 347.502756 483.470275 
L 348.034926 483.529122 
L 355.485316 483.63354 
L 356.283572 483.679785 
L 363.467877 483.761844 
L 364.532218 483.798187 
L 374.111291 483.891236 
L 375.441718 483.917592 
L 390.076413 484.021826 
L 391.93901 484.038103 
L 419.345802 484.145558 
L 424.135338 484.158494 
L 871.690909 484.232727 
L 871.690909 484.232727 
" style="fill:none;stroke:#bfbbd9;stroke-linecap:square;stroke-width:1.5;"/>
   </g>
   <g id="patch_3">
    <path d="M 126 504 
L 126 69.12 
" style="fill:none;stroke:#ffffff;stroke-linecap:square;stroke-linejoin:miter;stroke-width:0.8;"/>
   </g>
   <g id="patch_4">
    <path d="M 907.2 504 
L 907.2 69.12 
" style="fill:none;stroke:#ffffff;stroke-linecap:square;stroke-linejoin:miter;stroke-width:0.8;"/>
   </g>
   <g id="patch_5">
    <path d="M 126 504 
L 907.2 504 
" style="fill:none;stroke:#ffffff;stroke-linecap:square;stroke-linejoin:miter;stroke-width:0.8;"/>
   </g>
   <g id="patch_6">
    <path d="M 126 69.12 
L 907.2 69.12 
" style="fill:none;stroke:#ffffff;stroke-linecap:square;stroke-linejoin:miter;stroke-width:0.8;"/>
   </g>
   <g id="text_17">
    <!-- instance 10 with error 0.0 -->
    <g style="fill:#ffffff;" transform="translate(439.126875 63.12)scale(0.12 -0.12)">
     <defs>
      <path d="M 2834 3397 
L 2834 2853 
Q 2591 2978 2328 3040 
Q 2066 3103 1784 3103 
Q 1356 3103 1142 2972 
Q 928 2841 928 2578 
Q 928 2378 1081 2264 
Q 1234 2150 1697 2047 
L 1894 2003 
Q 2506 1872 2764 1633 
Q 3022 1394 3022 966 
Q 3022 478 2636 193 
Q 2250 -91 1575 -91 
Q 1294 -91 989 -36 
Q 684 19 347 128 
L 347 722 
Q 666 556 975 473 
Q 1284 391 1588 391 
Q 1994 391 2212 530 
Q 2431 669 2431 922 
Q 2431 1156 2273 1281 
Q 2116 1406 1581 1522 
L 1381 1569 
Q 847 1681 609 1914 
Q 372 2147 372 2553 
Q 372 3047 722 3315 
Q 1072 3584 1716 3584 
Q 2034 3584 2315 3537 
Q 2597 3491 2834 3397 
z
" id="DejaVuSans-73" transform="scale(0.015625)"/>
      <path d="M 3122 3366 
L 3122 2828 
Q 2878 2963 2633 3030 
Q 2388 3097 2138 3097 
Q 1578 3097 1268 2742 
Q 959 2388 959 1747 
Q 959 1106 1268 751 
Q 1578 397 2138 397 
Q 2388 397 2633 464 
Q 2878 531 3122 666 
L 3122 134 
Q 2881 22 2623 -34 
Q 2366 -91 2075 -91 
Q 1284 -91 818 406 
Q 353 903 353 1747 
Q 353 2603 823 3093 
Q 1294 3584 2113 3584 
Q 2378 3584 2631 3529 
Q 2884 3475 3122 3366 
z
" id="DejaVuSans-63" transform="scale(0.015625)"/>
      <path id="DejaVuSans-20" transform="scale(0.015625)"/>
      <path d="M 269 3500 
L 844 3500 
L 1563 769 
L 2278 3500 
L 2956 3500 
L 3675 769 
L 4391 3500 
L 4966 3500 
L 4050 0 
L 3372 0 
L 2619 2869 
L 1863 0 
L 1184 0 
L 269 3500 
z
" id="DejaVuSans-77" transform="scale(0.015625)"/>
      <path d="M 3513 2113 
L 3513 0 
L 2938 0 
L 2938 2094 
Q 2938 2591 2744 2837 
Q 2550 3084 2163 3084 
Q 1697 3084 1428 2787 
Q 1159 2491 1159 1978 
L 1159 0 
L 581 0 
L 581 4863 
L 1159 4863 
L 1159 2956 
Q 1366 3272 1645 3428 
Q 1925 3584 2291 3584 
Q 2894 3584 3203 3211 
Q 3513 2838 3513 2113 
z
" id="DejaVuSans-68" transform="scale(0.015625)"/>
      <path d="M 684 794 
L 1344 794 
L 1344 0 
L 684 0 
L 684 794 
z
" id="DejaVuSans-2e" transform="scale(0.015625)"/>
     </defs>
     <use xlink:href="#DejaVuSans-69"/>
     <use x="27.783203" xlink:href="#DejaVuSans-6e"/>
     <use x="91.162109" xlink:href="#DejaVuSans-73"/>
     <use x="143.261719" xlink:href="#DejaVuSans-74"/>
     <use x="182.470703" xlink:href="#DejaVuSans-61"/>
     <use x="243.75" xlink:href="#DejaVuSans-6e"/>
     <use x="307.128906" xlink:href="#DejaVuSans-63"/>
     <use x="362.109375" xlink:href="#DejaVuSans-65"/>
     <use x="423.632812" xlink:href="#DejaVuSans-20"/>
     <use x="455.419922" xlink:href="#DejaVuSans-31"/>
     <use x="519.042969" xlink:href="#DejaVuSans-30"/>
     <use x="582.666016" xlink:href="#DejaVuSans-20"/>
     <use x="614.453125" xlink:href="#DejaVuSans-77"/>
     <use x="696.240234" xlink:href="#DejaVuSans-69"/>
     <use x="724.023438" xlink:href="#DejaVuSans-74"/>
     <use x="763.232422" xlink:href="#DejaVuSans-68"/>
     <use x="826.611328" xlink:href="#DejaVuSans-20"/>
     <use x="858.398438" xlink:href="#DejaVuSans-65"/>
     <use x="919.921875" xlink:href="#DejaVuSans-72"/>
     <use x="959.285156" xlink:href="#DejaVuSans-72"/>
     <use x="998.148438" xlink:href="#DejaVuSans-6f"/>
     <use x="1059.330078" xlink:href="#DejaVuSans-72"/>
     <use x="1100.443359" xlink:href="#DejaVuSans-20"/>
     <use x="1132.230469" xlink:href="#DejaVuSans-30"/>
     <use x="1195.853516" xlink:href="#DejaVuSans-2e"/>
     <use x="1227.640625" xlink:href="#DejaVuSans-30"/>
    </g>
   </g>
   <g id="legend_1">
    <g id="patch_7">
     <path d="M 805.348438 499 
L 900.2 499 
Q 902.2 499 902.2 497 
L 902.2 453.965625 
Q 902.2 451.965625 900.2 451.965625 
L 805.348438 451.965625 
Q 803.348438 451.965625 803.348438 453.965625 
L 803.348438 497 
Q 803.348438 499 805.348438 499 
z
" style="opacity:0.8;stroke:#cccccc;stroke-linejoin:miter;"/>
    </g>
    <g id="line2d_19">
     <path d="M 807.348438 460.064062 
L 827.348438 460.064062 
" style="fill:none;stroke:#8dd3c7;stroke-linecap:square;stroke-width:1.5;"/>
    </g>
    <g id="line2d_20"/>
    <g id="text_18">
     <!-- cost -->
     <g style="fill:#ffffff;" transform="translate(835.348438 463.564062)scale(0.1 -0.1)">
      <use xlink:href="#DejaVuSans-63"/>
      <use x="54.980469" xlink:href="#DejaVuSans-6f"/>
      <use x="116.162109" xlink:href="#DejaVuSans-73"/>
      <use x="168.261719" xlink:href="#DejaVuSans-74"/>
     </g>
    </g>
    <g id="line2d_21">
     <path d="M 807.348438 474.742188 
L 827.348438 474.742188 
" style="fill:none;stroke:#feffb3;stroke-linecap:square;stroke-width:1.5;"/>
    </g>
    <g id="line2d_22"/>
    <g id="text_19">
     <!-- best cost -->
     <g style="fill:#ffffff;" transform="translate(835.348438 478.242188)scale(0.1 -0.1)">
      <defs>
       <path d="M 3116 1747 
Q 3116 2381 2855 2742 
Q 2594 3103 2138 3103 
Q 1681 3103 1420 2742 
Q 1159 2381 1159 1747 
Q 1159 1113 1420 752 
Q 1681 391 2138 391 
Q 2594 391 2855 752 
Q 3116 1113 3116 1747 
z
M 1159 2969 
Q 1341 3281 1617 3432 
Q 1894 3584 2278 3584 
Q 2916 3584 3314 3078 
Q 3713 2572 3713 1747 
Q 3713 922 3314 415 
Q 2916 -91 2278 -91 
Q 1894 -91 1617 61 
Q 1341 213 1159 525 
L 1159 0 
L 581 0 
L 581 4863 
L 1159 4863 
L 1159 2969 
z
" id="DejaVuSans-62" transform="scale(0.015625)"/>
      </defs>
      <use xlink:href="#DejaVuSans-62"/>
      <use x="63.476562" xlink:href="#DejaVuSans-65"/>
      <use x="125" xlink:href="#DejaVuSans-73"/>
      <use x="177.099609" xlink:href="#DejaVuSans-74"/>
      <use x="216.308594" xlink:href="#DejaVuSans-20"/>
      <use x="248.095703" xlink:href="#DejaVuSans-63"/>
      <use x="303.076172" xlink:href="#DejaVuSans-6f"/>
      <use x="364.257812" xlink:href="#DejaVuSans-73"/>
      <use x="416.357422" xlink:href="#DejaVuSans-74"/>
     </g>
    </g>
    <g id="line2d_23">
     <path d="M 807.348438 489.420313 
L 827.348438 489.420313 
" style="fill:none;stroke:#bfbbd9;stroke-linecap:square;stroke-width:1.5;"/>
    </g>
    <g id="line2d_24"/>
    <g id="text_20">
     <!-- temperature -->
     <g style="fill:#ffffff;" transform="translate(835.348438 492.920313)scale(0.1 -0.1)">
      <defs>
       <path d="M 3328 2828 
Q 3544 3216 3844 3400 
Q 4144 3584 4550 3584 
Q 5097 3584 5394 3201 
Q 5691 2819 5691 2113 
L 5691 0 
L 5113 0 
L 5113 2094 
Q 5113 2597 4934 2840 
Q 4756 3084 4391 3084 
Q 3944 3084 3684 2787 
Q 3425 2491 3425 1978 
L 3425 0 
L 2847 0 
L 2847 2094 
Q 2847 2600 2669 2842 
Q 2491 3084 2119 3084 
Q 1678 3084 1418 2786 
Q 1159 2488 1159 1978 
L 1159 0 
L 581 0 
L 581 3500 
L 1159 3500 
L 1159 2956 
Q 1356 3278 1631 3431 
Q 1906 3584 2284 3584 
Q 2666 3584 2933 3390 
Q 3200 3197 3328 2828 
z
" id="DejaVuSans-6d" transform="scale(0.015625)"/>
       <path d="M 1159 525 
L 1159 -1331 
L 581 -1331 
L 581 3500 
L 1159 3500 
L 1159 2969 
Q 1341 3281 1617 3432 
Q 1894 3584 2278 3584 
Q 2916 3584 3314 3078 
Q 3713 2572 3713 1747 
Q 3713 922 3314 415 
Q 2916 -91 2278 -91 
Q 1894 -91 1617 61 
Q 1341 213 1159 525 
z
M 3116 1747 
Q 3116 2381 2855 2742 
Q 2594 3103 2138 3103 
Q 1681 3103 1420 2742 
Q 1159 2381 1159 1747 
Q 1159 1113 1420 752 
Q 1681 391 2138 391 
Q 2594 391 2855 752 
Q 3116 1113 3116 1747 
z
" id="DejaVuSans-70" transform="scale(0.015625)"/>
       <path d="M 544 1381 
L 544 3500 
L 1119 3500 
L 1119 1403 
Q 1119 906 1312 657 
Q 1506 409 1894 409 
Q 2359 409 2629 706 
Q 2900 1003 2900 1516 
L 2900 3500 
L 3475 3500 
L 3475 0 
L 2900 0 
L 2900 538 
Q 2691 219 2414 64 
Q 2138 -91 1772 -91 
Q 1169 -91 856 284 
Q 544 659 544 1381 
z
M 1991 3584 
L 1991 3584 
z
" id="DejaVuSans-75" transform="scale(0.015625)"/>
      </defs>
      <use xlink:href="#DejaVuSans-74"/>
      <use x="39.208984" xlink:href="#DejaVuSans-65"/>
      <use x="100.732422" xlink:href="#DejaVuSans-6d"/>
      <use x="198.144531" xlink:href="#DejaVuSans-70"/>
      <use x="261.621094" xlink:href="#DejaVuSans-65"/>
      <use x="323.144531" xlink:href="#DejaVuSans-72"/>
      <use x="364.257812" xlink:href="#DejaVuSans-61"/>
      <use x="425.537109" xlink:href="#DejaVuSans-74"/>
      <use x="464.746094" xlink:href="#DejaVuSans-75"/>
      <use x="528.125" xlink:href="#DejaVuSans-72"/>
      <use x="566.988281" xlink:href="#DejaVuSans-65"/>
     </g>
    </g>
   </g>
  </g>
 </g>
 <defs>
  <clipPath id="pa91a2f2f64">
   <rect height="434.88" width="781.2" x="126" y="69.12"/>
  </clipPath>
 </defs>
</svg>
