<?xml version="1.0" encoding="utf-8" standalone="no"?>
<!DOCTYPE svg PUBLIC "-//W3C//DTD SVG 1.1//EN"
  "http://www.w3.org/Graphics/SVG/1.1/DTD/svg11.dtd">
<svg height="576pt" version="1.1" viewBox="0 0 1008 576" width="1008pt" xmlns="http://www.w3.org/2000/svg" xmlns:xlink="http://www.w3.org/1999/xlink">
 <metadata>
  <rdf:RDF xmlns:cc="http://creativecommons.org/ns#" xmlns:dc="http://purl.org/dc/elements/1.1/" xmlns:rdf="http://www.w3.org/1999/02/22-rdf-syntax-ns#">
   <cc:Work>
    <dc:type rdf:resource="http://purl.org/dc/dcmitype/StillImage"/>
    <dc:date>2022-01-08T03:45:48.490550</dc:date>
    <dc:format>image/svg+xml</dc:format>
    <dc:creator>
     <cc:Agent>
      <dc:title>Matplotlib v3.4.3, https://matplotlib.org/</dc:title>
     </cc:Agent>
    </dc:creator>
   </cc:Work>
  </rdf:RDF>
 </metadata>
 <defs>
  <style type="text/css">*{stroke-linecap:butt;stroke-linejoin:round;}</style>
 </defs>
 <g id="figure_1">
  <g id="patch_1">
   <path d="M 0 576 
L 1008 576 
L 1008 0 
L 0 0 
z
"/>
  </g>
  <g id="axes_1">
   <g id="patch_2">
    <path d="M 126 504 
L 907.2 504 
L 907.2 69.12 
L 126 69.12 
z
"/>
   </g>
   <g id="matplotlib.axis_1">
    <g id="xtick_1">
     <g id="line2d_1">
      <defs>
       <path d="M 0 0 
L 0 3.5 
" id="m594967e9c1" style="stroke:#ffffff;stroke-width:0.8;"/>
      </defs>
      <g>
       <use style="fill:#ffffff;stroke:#ffffff;stroke-width:0.8;" x="161.509091" xlink:href="#m594967e9c1" y="504"/>
      </g>
     </g>
     <g id="text_1">
      <!-- 0 -->
      <g style="fill:#ffffff;" transform="translate(158.327841 518.598438)scale(0.1 -0.1)">
       <defs>
        <path d="M 2034 4250 
Q 1547 4250 1301 3770 
Q 1056 3291 1056 2328 
Q 1056 1369 1301 889 
Q 1547 409 2034 409 
Q 2525 409 2770 889 
Q 3016 1369 3016 2328 
Q 3016 3291 2770 3770 
Q 2525 4250 2034 4250 
z
M 2034 4750 
Q 2819 4750 3233 4129 
Q 3647 3509 3647 2328 
Q 3647 1150 3233 529 
Q 2819 -91 2034 -91 
Q 1250 -91 836 529 
Q 422 1150 422 2328 
Q 422 3509 836 4129 
Q 1250 4750 2034 4750 
z
" id="DejaVuSans-30" transform="scale(0.015625)"/>
       </defs>
       <use xlink:href="#DejaVuSans-30"/>
      </g>
     </g>
    </g>
    <g id="xtick_2">
     <g id="line2d_2">
      <g>
       <use style="fill:#ffffff;stroke:#ffffff;stroke-width:0.8;" x="328.296742" xlink:href="#m594967e9c1" y="504"/>
      </g>
     </g>
     <g id="text_2">
      <!-- 500 -->
      <g style="fill:#ffffff;" transform="translate(318.752992 518.598438)scale(0.1 -0.1)">
       <defs>
        <path d="M 691 4666 
L 3169 4666 
L 3169 4134 
L 1269 4134 
L 1269 2991 
Q 1406 3038 1543 3061 
Q 1681 3084 1819 3084 
Q 2600 3084 3056 2656 
Q 3513 2228 3513 1497 
Q 3513 744 3044 326 
Q 2575 -91 1722 -91 
Q 1428 -91 1123 -41 
Q 819 9 494 109 
L 494 744 
Q 775 591 1075 516 
Q 1375 441 1709 441 
Q 2250 441 2565 725 
Q 2881 1009 2881 1497 
Q 2881 1984 2565 2268 
Q 2250 2553 1709 2553 
Q 1456 2553 1204 2497 
Q 953 2441 691 2322 
L 691 4666 
z
" id="DejaVuSans-35" transform="scale(0.015625)"/>
       </defs>
       <use xlink:href="#DejaVuSans-35"/>
       <use x="63.623047" xlink:href="#DejaVuSans-30"/>
       <use x="127.246094" xlink:href="#DejaVuSans-30"/>
      </g>
     </g>
    </g>
    <g id="xtick_3">
     <g id="line2d_3">
      <g>
       <use style="fill:#ffffff;stroke:#ffffff;stroke-width:0.8;" x="495.084393" xlink:href="#m594967e9c1" y="504"/>
      </g>
     </g>
     <g id="text_3">
      <!-- 1000 -->
      <g style="fill:#ffffff;" transform="translate(482.359393 518.598438)scale(0.1 -0.1)">
       <defs>
        <path d="M 794 531 
L 1825 531 
L 1825 4091 
L 703 3866 
L 703 4441 
L 1819 4666 
L 2450 4666 
L 2450 531 
L 3481 531 
L 3481 0 
L 794 0 
L 794 531 
z
" id="DejaVuSans-31" transform="scale(0.015625)"/>
       </defs>
       <use xlink:href="#DejaVuSans-31"/>
       <use x="63.623047" xlink:href="#DejaVuSans-30"/>
       <use x="127.246094" xlink:href="#DejaVuSans-30"/>
       <use x="190.869141" xlink:href="#DejaVuSans-30"/>
      </g>
     </g>
    </g>
    <g id="xtick_4">
     <g id="line2d_4">
      <g>
       <use style="fill:#ffffff;stroke:#ffffff;stroke-width:0.8;" x="661.872044" xlink:href="#m594967e9c1" y="504"/>
      </g>
     </g>
     <g id="text_4">
      <!-- 1500 -->
      <g style="fill:#ffffff;" transform="translate(649.147044 518.598438)scale(0.1 -0.1)">
       <use xlink:href="#DejaVuSans-31"/>
       <use x="63.623047" xlink:href="#DejaVuSans-35"/>
       <use x="127.246094" xlink:href="#DejaVuSans-30"/>
       <use x="190.869141" xlink:href="#DejaVuSans-30"/>
      </g>
     </g>
    </g>
    <g id="xtick_5">
     <g id="line2d_5">
      <g>
       <use style="fill:#ffffff;stroke:#ffffff;stroke-width:0.8;" x="828.659695" xlink:href="#m594967e9c1" y="504"/>
      </g>
     </g>
     <g id="text_5">
      <!-- 2000 -->
      <g style="fill:#ffffff;" transform="translate(815.934695 518.598438)scale(0.1 -0.1)">
       <defs>
        <path d="M 1228 531 
L 3431 531 
L 3431 0 
L 469 0 
L 469 531 
Q 828 903 1448 1529 
Q 2069 2156 2228 2338 
Q 2531 2678 2651 2914 
Q 2772 3150 2772 3378 
Q 2772 3750 2511 3984 
Q 2250 4219 1831 4219 
Q 1534 4219 1204 4116 
Q 875 4013 500 3803 
L 500 4441 
Q 881 4594 1212 4672 
Q 1544 4750 1819 4750 
Q 2544 4750 2975 4387 
Q 3406 4025 3406 3419 
Q 3406 3131 3298 2873 
Q 3191 2616 2906 2266 
Q 2828 2175 2409 1742 
Q 1991 1309 1228 531 
z
" id="DejaVuSans-32" transform="scale(0.015625)"/>
       </defs>
       <use xlink:href="#DejaVuSans-32"/>
       <use x="63.623047" xlink:href="#DejaVuSans-30"/>
       <use x="127.246094" xlink:href="#DejaVuSans-30"/>
       <use x="190.869141" xlink:href="#DejaVuSans-30"/>
      </g>
     </g>
    </g>
    <g id="text_6">
     <!-- iteration -->
     <g style="fill:#ffffff;" transform="translate(495.477344 532.276562)scale(0.1 -0.1)">
      <defs>
       <path d="M 603 3500 
L 1178 3500 
L 1178 0 
L 603 0 
L 603 3500 
z
M 603 4863 
L 1178 4863 
L 1178 4134 
L 603 4134 
L 603 4863 
z
" id="DejaVuSans-69" transform="scale(0.015625)"/>
       <path d="M 1172 4494 
L 1172 3500 
L 2356 3500 
L 2356 3053 
L 1172 3053 
L 1172 1153 
Q 1172 725 1289 603 
Q 1406 481 1766 481 
L 2356 481 
L 2356 0 
L 1766 0 
Q 1100 0 847 248 
Q 594 497 594 1153 
L 594 3053 
L 172 3053 
L 172 3500 
L 594 3500 
L 594 4494 
L 1172 4494 
z
" id="DejaVuSans-74" transform="scale(0.015625)"/>
       <path d="M 3597 1894 
L 3597 1613 
L 953 1613 
Q 991 1019 1311 708 
Q 1631 397 2203 397 
Q 2534 397 2845 478 
Q 3156 559 3463 722 
L 3463 178 
Q 3153 47 2828 -22 
Q 2503 -91 2169 -91 
Q 1331 -91 842 396 
Q 353 884 353 1716 
Q 353 2575 817 3079 
Q 1281 3584 2069 3584 
Q 2775 3584 3186 3129 
Q 3597 2675 3597 1894 
z
M 3022 2063 
Q 3016 2534 2758 2815 
Q 2500 3097 2075 3097 
Q 1594 3097 1305 2825 
Q 1016 2553 972 2059 
L 3022 2063 
z
" id="DejaVuSans-65" transform="scale(0.015625)"/>
       <path d="M 2631 2963 
Q 2534 3019 2420 3045 
Q 2306 3072 2169 3072 
Q 1681 3072 1420 2755 
Q 1159 2438 1159 1844 
L 1159 0 
L 581 0 
L 581 3500 
L 1159 3500 
L 1159 2956 
Q 1341 3275 1631 3429 
Q 1922 3584 2338 3584 
Q 2397 3584 2469 3576 
Q 2541 3569 2628 3553 
L 2631 2963 
z
" id="DejaVuSans-72" transform="scale(0.015625)"/>
       <path d="M 2194 1759 
Q 1497 1759 1228 1600 
Q 959 1441 959 1056 
Q 959 750 1161 570 
Q 1363 391 1709 391 
Q 2188 391 2477 730 
Q 2766 1069 2766 1631 
L 2766 1759 
L 2194 1759 
z
M 3341 1997 
L 3341 0 
L 2766 0 
L 2766 531 
Q 2569 213 2275 61 
Q 1981 -91 1556 -91 
Q 1019 -91 701 211 
Q 384 513 384 1019 
Q 384 1609 779 1909 
Q 1175 2209 1959 2209 
L 2766 2209 
L 2766 2266 
Q 2766 2663 2505 2880 
Q 2244 3097 1772 3097 
Q 1472 3097 1187 3025 
Q 903 2953 641 2809 
L 641 3341 
Q 956 3463 1253 3523 
Q 1550 3584 1831 3584 
Q 2591 3584 2966 3190 
Q 3341 2797 3341 1997 
z
" id="DejaVuSans-61" transform="scale(0.015625)"/>
       <path d="M 1959 3097 
Q 1497 3097 1228 2736 
Q 959 2375 959 1747 
Q 959 1119 1226 758 
Q 1494 397 1959 397 
Q 2419 397 2687 759 
Q 2956 1122 2956 1747 
Q 2956 2369 2687 2733 
Q 2419 3097 1959 3097 
z
M 1959 3584 
Q 2709 3584 3137 3096 
Q 3566 2609 3566 1747 
Q 3566 888 3137 398 
Q 2709 -91 1959 -91 
Q 1206 -91 779 398 
Q 353 888 353 1747 
Q 353 2609 779 3096 
Q 1206 3584 1959 3584 
z
" id="DejaVuSans-6f" transform="scale(0.015625)"/>
       <path d="M 3513 2113 
L 3513 0 
L 2938 0 
L 2938 2094 
Q 2938 2591 2744 2837 
Q 2550 3084 2163 3084 
Q 1697 3084 1428 2787 
Q 1159 2491 1159 1978 
L 1159 0 
L 581 0 
L 581 3500 
L 1159 3500 
L 1159 2956 
Q 1366 3272 1645 3428 
Q 1925 3584 2291 3584 
Q 2894 3584 3203 3211 
Q 3513 2838 3513 2113 
z
" id="DejaVuSans-6e" transform="scale(0.015625)"/>
      </defs>
      <use xlink:href="#DejaVuSans-69"/>
      <use x="27.783203" xlink:href="#DejaVuSans-74"/>
      <use x="66.992188" xlink:href="#DejaVuSans-65"/>
      <use x="128.515625" xlink:href="#DejaVuSans-72"/>
      <use x="169.628906" xlink:href="#DejaVuSans-61"/>
      <use x="230.908203" xlink:href="#DejaVuSans-74"/>
      <use x="270.117188" xlink:href="#DejaVuSans-69"/>
      <use x="297.900391" xlink:href="#DejaVuSans-6f"/>
      <use x="359.082031" xlink:href="#DejaVuSans-6e"/>
     </g>
    </g>
   </g>
   <g id="matplotlib.axis_2">
    <g id="ytick_1">
     <g id="line2d_6">
      <defs>
       <path d="M 0 0 
L -3.5 0 
" id="me05fa6072a" style="stroke:#ffffff;stroke-width:0.8;"/>
      </defs>
      <g>
       <use style="fill:#ffffff;stroke:#ffffff;stroke-width:0.8;" x="126" xlink:href="#me05fa6072a" y="484.232727"/>
      </g>
     </g>
     <g id="text_7">
      <!-- 0 -->
      <g style="fill:#ffffff;" transform="translate(112.6375 488.031946)scale(0.1 -0.1)">
       <use xlink:href="#DejaVuSans-30"/>
      </g>
     </g>
    </g>
    <g id="ytick_2">
     <g id="line2d_7">
      <g>
       <use style="fill:#ffffff;stroke:#ffffff;stroke-width:0.8;" x="126" xlink:href="#me05fa6072a" y="433.977801"/>
      </g>
     </g>
     <g id="text_8">
      <!-- 5000 -->
      <g style="fill:#ffffff;" transform="translate(93.55 437.77702)scale(0.1 -0.1)">
       <use xlink:href="#DejaVuSans-35"/>
       <use x="63.623047" xlink:href="#DejaVuSans-30"/>
       <use x="127.246094" xlink:href="#DejaVuSans-30"/>
       <use x="190.869141" xlink:href="#DejaVuSans-30"/>
      </g>
     </g>
    </g>
    <g id="ytick_3">
     <g id="line2d_8">
      <g>
       <use style="fill:#ffffff;stroke:#ffffff;stroke-width:0.8;" x="126" xlink:href="#me05fa6072a" y="383.722875"/>
      </g>
     </g>
     <g id="text_9">
      <!-- 10000 -->
      <g style="fill:#ffffff;" transform="translate(87.1875 387.522093)scale(0.1 -0.1)">
       <use xlink:href="#DejaVuSans-31"/>
       <use x="63.623047" xlink:href="#DejaVuSans-30"/>
       <use x="127.246094" xlink:href="#DejaVuSans-30"/>
       <use x="190.869141" xlink:href="#DejaVuSans-30"/>
       <use x="254.492188" xlink:href="#DejaVuSans-30"/>
      </g>
     </g>
    </g>
    <g id="ytick_4">
     <g id="line2d_9">
      <g>
       <use style="fill:#ffffff;stroke:#ffffff;stroke-width:0.8;" x="126" xlink:href="#me05fa6072a" y="333.467948"/>
      </g>
     </g>
     <g id="text_10">
      <!-- 15000 -->
      <g style="fill:#ffffff;" transform="translate(87.1875 337.267167)scale(0.1 -0.1)">
       <use xlink:href="#DejaVuSans-31"/>
       <use x="63.623047" xlink:href="#DejaVuSans-35"/>
       <use x="127.246094" xlink:href="#DejaVuSans-30"/>
       <use x="190.869141" xlink:href="#DejaVuSans-30"/>
       <use x="254.492188" xlink:href="#DejaVuSans-30"/>
      </g>
     </g>
    </g>
    <g id="ytick_5">
     <g id="line2d_10">
      <g>
       <use style="fill:#ffffff;stroke:#ffffff;stroke-width:0.8;" x="126" xlink:href="#me05fa6072a" y="283.213022"/>
      </g>
     </g>
     <g id="text_11">
      <!-- 20000 -->
      <g style="fill:#ffffff;" transform="translate(87.1875 287.012241)scale(0.1 -0.1)">
       <use xlink:href="#DejaVuSans-32"/>
       <use x="63.623047" xlink:href="#DejaVuSans-30"/>
       <use x="127.246094" xlink:href="#DejaVuSans-30"/>
       <use x="190.869141" xlink:href="#DejaVuSans-30"/>
       <use x="254.492188" xlink:href="#DejaVuSans-30"/>
      </g>
     </g>
    </g>
    <g id="ytick_6">
     <g id="line2d_11">
      <g>
       <use style="fill:#ffffff;stroke:#ffffff;stroke-width:0.8;" x="126" xlink:href="#me05fa6072a" y="232.958096"/>
      </g>
     </g>
     <g id="text_12">
      <!-- 25000 -->
      <g style="fill:#ffffff;" transform="translate(87.1875 236.757314)scale(0.1 -0.1)">
       <use xlink:href="#DejaVuSans-32"/>
       <use x="63.623047" xlink:href="#DejaVuSans-35"/>
       <use x="127.246094" xlink:href="#DejaVuSans-30"/>
       <use x="190.869141" xlink:href="#DejaVuSans-30"/>
       <use x="254.492188" xlink:href="#DejaVuSans-30"/>
      </g>
     </g>
    </g>
    <g id="ytick_7">
     <g id="line2d_12">
      <g>
       <use style="fill:#ffffff;stroke:#ffffff;stroke-width:0.8;" x="126" xlink:href="#me05fa6072a" y="182.703169"/>
      </g>
     </g>
     <g id="text_13">
      <!-- 30000 -->
      <g style="fill:#ffffff;" transform="translate(87.1875 186.502388)scale(0.1 -0.1)">
       <defs>
        <path d="M 2597 2516 
Q 3050 2419 3304 2112 
Q 3559 1806 3559 1356 
Q 3559 666 3084 287 
Q 2609 -91 1734 -91 
Q 1441 -91 1130 -33 
Q 819 25 488 141 
L 488 750 
Q 750 597 1062 519 
Q 1375 441 1716 441 
Q 2309 441 2620 675 
Q 2931 909 2931 1356 
Q 2931 1769 2642 2001 
Q 2353 2234 1838 2234 
L 1294 2234 
L 1294 2753 
L 1863 2753 
Q 2328 2753 2575 2939 
Q 2822 3125 2822 3475 
Q 2822 3834 2567 4026 
Q 2313 4219 1838 4219 
Q 1578 4219 1281 4162 
Q 984 4106 628 3988 
L 628 4550 
Q 988 4650 1302 4700 
Q 1616 4750 1894 4750 
Q 2613 4750 3031 4423 
Q 3450 4097 3450 3541 
Q 3450 3153 3228 2886 
Q 3006 2619 2597 2516 
z
" id="DejaVuSans-33" transform="scale(0.015625)"/>
       </defs>
       <use xlink:href="#DejaVuSans-33"/>
       <use x="63.623047" xlink:href="#DejaVuSans-30"/>
       <use x="127.246094" xlink:href="#DejaVuSans-30"/>
       <use x="190.869141" xlink:href="#DejaVuSans-30"/>
       <use x="254.492188" xlink:href="#DejaVuSans-30"/>
      </g>
     </g>
    </g>
    <g id="ytick_8">
     <g id="line2d_13">
      <g>
       <use style="fill:#ffffff;stroke:#ffffff;stroke-width:0.8;" x="126" xlink:href="#me05fa6072a" y="132.448243"/>
      </g>
     </g>
     <g id="text_14">
      <!-- 35000 -->
      <g style="fill:#ffffff;" transform="translate(87.1875 136.247462)scale(0.1 -0.1)">
       <use xlink:href="#DejaVuSans-33"/>
       <use x="63.623047" xlink:href="#DejaVuSans-35"/>
       <use x="127.246094" xlink:href="#DejaVuSans-30"/>
       <use x="190.869141" xlink:href="#DejaVuSans-30"/>
       <use x="254.492188" xlink:href="#DejaVuSans-30"/>
      </g>
     </g>
    </g>
    <g id="ytick_9">
     <g id="line2d_14">
      <g>
       <use style="fill:#ffffff;stroke:#ffffff;stroke-width:0.8;" x="126" xlink:href="#me05fa6072a" y="82.193317"/>
      </g>
     </g>
     <g id="text_15">
      <!-- 40000 -->
      <g style="fill:#ffffff;" transform="translate(87.1875 85.992535)scale(0.1 -0.1)">
       <defs>
        <path d="M 2419 4116 
L 825 1625 
L 2419 1625 
L 2419 4116 
z
M 2253 4666 
L 3047 4666 
L 3047 1625 
L 3713 1625 
L 3713 1100 
L 3047 1100 
L 3047 0 
L 2419 0 
L 2419 1100 
L 313 1100 
L 313 1709 
L 2253 4666 
z
" id="DejaVuSans-34" transform="scale(0.015625)"/>
       </defs>
       <use xlink:href="#DejaVuSans-34"/>
       <use x="63.623047" xlink:href="#DejaVuSans-30"/>
       <use x="127.246094" xlink:href="#DejaVuSans-30"/>
       <use x="190.869141" xlink:href="#DejaVuSans-30"/>
       <use x="254.492188" xlink:href="#DejaVuSans-30"/>
      </g>
     </g>
    </g>
   </g>
   <g id="line2d_15">
    <path clip-path="url(#p240bf8c7b8)" d="M 161.509091 206.222475 
L 162.176242 226.344547 
L 162.509817 250.3463 
L 162.843392 263.241714 
L 163.176967 247.753146 
L 163.510543 266.287163 
L 163.844118 242.28541 
L 164.177693 252.18563 
L 164.511269 294.399769 
L 164.844844 270.398016 
L 165.178419 261.643608 
L 165.511995 256.638217 
L 165.84557 234.767273 
L 166.179145 247.662687 
L 166.51272 246.848557 
L 167.179871 224.927358 
L 167.513446 224.012719 
L 168.180597 265.402676 
L 168.514172 270.408067 
L 169.181323 260.829478 
L 169.514898 239.139452 
L 170.182049 261.080752 
L 170.515624 254.045063 
L 170.849199 264.367425 
L 171.51635 296.430068 
L 171.849925 285.625258 
L 172.517076 311.395985 
L 172.850651 297.183891 
L 173.184226 307.526355 
L 173.851377 283.012002 
L 174.184952 275.976313 
L 174.518528 283.012002 
L 174.852103 286.539898 
L 175.185678 264.668954 
L 175.519254 274.991316 
L 175.852829 296.86226 
L 176.51998 323.929563 
L 177.18713 279.996707 
L 177.520705 300.038371 
L 177.854281 288.439534 
L 178.187856 283.434144 
L 178.521431 263.151255 
L 178.855007 267.724454 
L 179.188582 251.994662 
L 179.522157 247.421463 
L 179.855733 267.463128 
L 180.189308 256.658319 
L 180.522883 255.180824 
L 180.856458 255.994954 
L 181.190034 255.512507 
L 181.523609 245.170043 
L 181.857184 255.974852 
L 182.19076 259.502748 
L 182.524335 269.82511 
L 182.85791 254.336541 
L 183.191486 264.679005 
L 183.525061 261.151109 
L 183.858636 250.828747 
L 184.859362 284.640262 
L 186.193663 354.052366 
L 186.527239 366.94778 
L 187.527964 382.084564 
L 187.86154 378.556668 
L 188.195115 365.661254 
L 188.52869 360.706118 
L 188.862266 350.383757 
L 189.195841 336.171663 
L 189.529416 359.429643 
L 189.862992 335.42789 
L 190.196567 336.905385 
L 190.530142 323.256147 
L 190.863717 316.220458 
L 191.197293 312.190012 
L 191.530868 326.361902 
L 191.864443 316.300865 
L 192.198019 316.783313 
L 192.531594 305.496056 
L 192.865169 321.225848 
L 193.198745 329.980256 
L 193.53232 329.166127 
L 193.865895 318.361317 
L 194.199471 299.495618 
L 194.533046 309.556654 
L 194.866621 328.422354 
L 195.200196 329.236484 
L 195.533772 309.30538 
L 195.867347 297.706543 
L 196.534498 257.221174 
L 197.201648 290.801516 
L 197.535224 277.152278 
L 197.868799 284.187968 
L 198.202374 282.710473 
L 198.535949 281.896343 
L 198.869525 261.854678 
L 199.2031 285.856431 
L 199.536675 271.684542 
L 200.203826 255.894444 
L 200.870977 274.971214 
L 201.204552 286.25847 
L 201.538127 285.776023 
L 201.871702 287.253518 
L 202.205278 288.168158 
L 202.538853 301.817396 
L 202.872428 302.631526 
L 203.206004 314.230363 
L 203.539579 334.272027 
L 203.873154 333.357387 
L 204.20673 340.393077 
L 204.540305 329.105821 
L 204.87388 347.97152 
L 206.208181 308.49125 
L 206.541757 317.245658 
L 206.875332 317.728105 
L 207.208907 333.216674 
L 207.542483 324.462266 
L 208.209633 285.474494 
L 208.543209 263.784467 
L 208.876784 252.18563 
L 209.210359 247.612432 
L 209.543934 229.078415 
L 209.87751 250.768442 
L 210.54466 271.121687 
L 210.878236 276.076822 
L 211.211811 254.386796 
L 211.878962 262.99044 
L 212.546112 253.462106 
L 212.879687 264.266915 
L 213.213263 263.452785 
L 213.546838 268.025983 
L 213.880413 278.087019 
L 214.213989 258.045355 
L 214.547564 247.783299 
L 214.881139 223.781546 
L 215.214715 243.823211 
L 215.54829 228.334642 
L 215.881865 249.954312 
L 216.21544 245.381113 
L 216.549016 243.903619 
L 216.882591 244.818258 
L 217.216166 255.14062 
L 217.549742 255.95475 
L 217.883317 247.200342 
L 218.216892 299.385057 
L 218.550468 286.489643 
L 218.884043 296.550679 
L 219.217618 286.489643 
L 219.551193 306.531308 
L 219.884769 291.042739 
L 220.218344 291.856869 
L 220.551919 281.594813 
L 221.21907 303.455706 
L 221.552645 317.104944 
L 221.886221 322.110335 
L 222.886946 285.052352 
L 223.220522 263.362326 
L 223.554097 283.29343 
L 223.887672 287.323875 
L 224.554823 328.713832 
L 225.221974 350.062125 
L 225.555549 362.957539 
L 226.2227 331.528108 
L 226.556275 342.332917 
L 226.88985 340.855422 
L 227.557001 301.04347 
L 227.890576 292.289062 
L 228.224151 288.258617 
L 228.557727 266.638947 
L 228.891302 282.127516 
L 229.224877 283.042155 
L 229.558453 259.784175 
L 229.892028 283.042155 
L 230.225603 272.780099 
L 230.559178 279.815789 
L 230.892754 292.711203 
L 231.226329 294.188698 
L 231.559904 278.70013 
L 231.89348 288.962186 
L 232.227055 265.704206 
L 232.56063 264.226711 
L 232.894206 244.295607 
L 233.227781 243.380967 
L 233.561356 266.638947 
L 233.894931 256.296483 
L 234.228507 277.916153 
L 234.562082 264.266915 
L 234.895657 257.231225 
L 235.229233 270.880463 
L 235.562808 279.634871 
L 235.896383 258.015202 
L 236.229959 265.050892 
L 236.563534 254.246082 
L 236.897109 250.718187 
L 237.230684 261.040548 
L 237.56426 279.574565 
L 237.897835 289.917029 
L 238.23141 284.961893 
L 238.564986 299.133783 
L 238.898561 292.098093 
L 239.232136 313.717762 
L 239.565712 297.98797 
L 239.899287 276.368301 
L 240.232862 291.856869 
L 240.566438 281.594813 
L 240.900013 301.525917 
L 241.567163 310.511498 
L 242.234314 289.846672 
L 242.567889 271.312655 
L 242.901465 282.911492 
L 243.568615 264.096048 
L 244.235766 303.003412 
L 244.569341 291.716155 
L 244.902916 302.038517 
L 245.236492 288.389279 
L 245.570067 291.917175 
L 245.903642 286.962039 
L 246.237218 287.876679 
L 246.570793 266.005735 
L 246.904368 265.091096 
L 247.571519 285.33378 
L 247.905094 262.0758 
L 248.238669 247.863707 
L 248.572245 298.721692 
L 248.90582 280.187675 
L 249.239395 285.193066 
L 249.572971 304.058765 
L 249.906546 307.586661 
L 250.240121 297.525625 
L 250.573697 281.795833 
L 250.907272 297.284401 
L 251.240847 301.8576 
L 251.574422 300.380105 
L 251.907998 301.194235 
L 252.241573 302.671729 
L 252.575148 313.014193 
L 252.908724 294.148494 
L 253.242299 307.043908 
L 253.575874 298.2895 
L 253.90945 309.888337 
L 254.243025 299.626281 
L 254.5766 318.160298 
L 254.910175 314.632402 
L 255.243751 307.596712 
L 255.910901 267.191751 
L 256.244477 265.714257 
L 256.578052 264.900127 
L 256.911627 254.557663 
L 257.245203 258.085559 
L 257.578778 247.28075 
L 257.912353 265.814766 
L 258.913079 207.217522 
L 259.913805 260.407336 
L 260.24738 276.137128 
L 260.580956 252.135376 
L 260.914531 262.940185 
L 261.248106 247.210393 
L 261.581682 257.472449 
L 261.915257 238.938432 
L 262.248832 228.61607 
L 262.582407 250.306096 
L 262.915983 249.391457 
L 263.249558 245.863561 
L 263.583133 224.173534 
L 263.916709 224.987664 
L 264.250284 321.597735 
L 264.583859 333.196572 
L 264.917435 352.062271 
L 265.584585 334.684118 
L 265.91816 312.813174 
L 266.251736 302.912953 
L 266.585311 284.047254 
L 266.918886 280.519358 
L 267.252462 291.324167 
L 267.586037 310.189866 
L 267.919612 288.49984 
L 268.253188 274.327951 
L 268.586763 272.850456 
L 268.920338 277.855847 
L 269.921064 309.00385 
L 270.254639 285.002097 
L 270.588215 309.00385 
L 270.92179 301.96816 
L 271.255365 303.445655 
L 271.588941 291.846818 
L 271.922516 271.805154 
L 272.256091 275.33305 
L 272.589667 286.620306 
L 272.923242 275.815497 
L 273.256817 270.769902 
L 273.590392 290.701006 
L 274.257543 256.598013 
L 274.591118 260.125909 
L 274.924694 244.63734 
L 275.258269 223.017671 
L 275.591844 210.122257 
L 275.92542 223.771495 
L 276.59257 266.307265 
L 276.926145 255.502456 
L 277.259721 268.39787 
L 277.593296 263.442734 
L 277.926871 272.197142 
L 278.260447 293.816811 
L 278.594022 283.474348 
L 278.927597 282.660218 
L 279.261173 262.88993 
L 279.594748 263.804569 
L 279.928323 268.80996 
L 280.261898 277.775439 
L 280.595474 273.744994 
L 280.929049 278.750384 
L 281.262624 285.786074 
L 281.5962 271.614185 
L 281.929775 285.786074 
L 282.26335 270.056282 
L 282.596926 274.086727 
L 282.930501 275.001367 
L 283.264076 264.940331 
L 283.597651 269.513529 
L 283.931227 264.940331 
L 284.264802 246.074631 
L 284.598377 235.269822 
L 284.931953 256.889492 
L 285.265528 242.677398 
L 285.599103 243.159846 
L 286.599829 281.56466 
L 286.933405 263.030644 
L 287.26698 267.061089 
L 287.600555 248.195389 
L 288.267706 289.987386 
L 288.601281 305.475954 
L 288.934856 306.953449 
L 289.268432 302.380251 
L 289.935582 279.423801 
L 290.936308 309.727521 
L 291.269883 293.997729 
L 291.603459 298.952865 
L 291.937034 317.818564 
L 292.604185 309.335533 
L 292.93776 320.622789 
L 293.271335 325.195987 
L 293.604911 321.165542 
L 293.938486 297.907562 
L 294.272061 289.153154 
L 294.605636 312.411134 
L 294.939212 325.306548 
L 295.272787 330.311939 
L 295.606362 319.024682 
L 295.939938 297.153739 
L 296.273513 282.941645 
L 296.607088 297.113535 
L 296.940664 287.052498 
L 297.274239 298.339755 
L 297.607814 288.439534 
L 297.941389 298.500571 
L 298.274965 302.531016 
L 298.60854 297.957817 
L 299.275691 273.443464 
L 299.942841 294.027882 
L 300.276417 309.757674 
L 300.609992 286.499694 
L 300.943567 286.982141 
L 301.277142 291.937277 
L 301.944293 267.965677 
L 302.277868 243.963924 
L 302.945019 287.153008 
L 303.278594 311.154761 
L 303.61217 289.464735 
L 303.945745 299.787097 
L 304.27932 246.798302 
L 304.612896 251.753438 
L 304.946471 267.242006 
L 305.280046 267.724454 
L 305.613621 286.590153 
L 305.947197 296.651189 
L 306.280772 295.837059 
L 306.614347 290.881924 
L 306.947923 290.399476 
L 307.615073 319.024682 
L 307.948649 300.158983 
L 308.282224 305.164374 
L 308.615799 324.030073 
L 308.949374 334.352435 
L 309.28295 315.486736 
L 309.616525 334.352435 
L 309.9501 325.598027 
L 310.617251 293.836913 
L 310.950826 279.62482 
L 311.617977 322.492272 
L 312.285127 365.791917 
L 312.618703 351.620028 
L 312.952278 329.930001 
L 313.285853 340.734811 
L 313.619429 335.72942 
L 313.953004 357.419446 
L 314.95373 311.747769 
L 315.287305 301.686733 
L 315.62088 302.500863 
L 315.954456 307.506253 
L 316.288031 318.79351 
L 317.622332 274.760143 
L 318.289483 229.882494 
L 318.623058 229.068364 
L 318.956634 241.963778 
L 319.290209 223.098079 
L 319.623784 231.852487 
L 319.957359 218.203249 
L 320.290935 241.461229 
L 320.62451 252.748486 
L 320.958085 253.230933 
L 321.291661 263.131153 
L 321.625236 281.66517 
L 321.958811 280.750531 
L 322.292387 291.092994 
L 322.959537 250.868951 
L 323.293112 254.899396 
L 323.626688 291.686003 
L 323.960263 295.716448 
L 324.293838 250.868951 
L 324.627414 264.518189 
L 324.960989 249.029621 
L 325.294564 267.563638 
L 325.62814 243.561885 
L 325.961715 254.366694 
L 326.29529 276.05672 
L 326.962441 231.108714 
L 327.296016 246.838506 
L 327.629591 233.189268 
L 327.963167 214.655251 
L 328.296742 238.657004 
L 328.630317 239.571644 
L 328.963893 219.801356 
L 329.297468 238.667055 
L 329.631043 214.665302 
L 329.964618 210.092104 
L 330.298194 199.769742 
L 330.631769 177.898798 
L 331.29892 156.269078 
L 331.632495 151.263687 
L 331.96607 172.953714 
L 332.299646 373.631685 
L 332.633221 374.114133 
L 332.966796 354.183029 
L 333.300371 367.078443 
L 333.967522 334.372537 
L 334.301097 212.212862 
L 334.634673 216.243307 
L 334.968248 236.284972 
L 335.301823 246.607334 
L 335.635399 232.435444 
L 335.968974 244.034281 
L 336.302549 265.905225 
L 336.636125 255.582863 
L 336.9697 269.232101 
L 337.303275 260.477693 
L 337.970426 280.861091 
L 338.304001 270.056282 
L 338.637576 266.528386 
L 338.971152 271.101585 
L 339.304727 259.502748 
L 339.638302 263.030644 
L 339.971878 252.708282 
L 340.305453 263.995538 
L 340.639028 245.129839 
L 340.972603 259.341932 
L 341.639754 269.302458 
L 341.973329 262.266769 
L 342.306905 277.755337 
L 342.64048 278.569467 
L 342.974055 301.827447 
L 343.307631 291.76641 
L 343.641206 290.952281 
L 343.974781 276.740187 
L 344.308356 254.869243 
L 344.641932 269.081337 
L 345.309082 260.045501 
L 346.309808 314.160006 
L 346.643384 302.872749 
L 347.644109 247.763197 
L 347.977685 267.533485 
L 348.31126 247.49182 
L 348.644835 242.918622 
L 348.978411 264.538291 
L 349.311986 275.3431 
L 349.645561 265.44288 
L 349.979137 270.016078 
L 350.312712 266.488182 
L 350.646287 276.549219 
L 350.979863 298.420163 
L 351.313438 288.077699 
L 351.647013 258.5077 
L 351.980588 277.041717 
L 352.314164 268.287309 
L 352.981314 310.089357 
L 353.31489 299.827301 
L 353.648465 294.82191 
L 353.98204 299.827301 
L 354.315616 285.655411 
L 354.649191 299.867505 
L 354.982766 298.39001 
L 355.316341 307.144418 
L 355.649917 311.717616 
L 356.317067 355.489657 
L 356.650643 331.487904 
L 356.984218 330.673774 
L 357.317793 344.845664 
L 357.651369 331.196426 
L 358.318519 296.942668 
L 358.652094 285.343831 
L 358.98567 286.821326 
L 359.319245 302.309894 
L 359.65282 291.987532 
L 359.986396 270.116588 
L 360.319971 283.765826 
L 360.653546 273.865606 
L 360.987122 258.377037 
L 361.320697 278.418702 
L 361.654272 277.936255 
L 362.321423 302.47071 
L 362.654998 297.465319 
L 362.988573 298.379959 
L 363.322149 284.20807 
L 363.655724 307.466049 
L 363.989299 318.270859 
L 364.322875 340.141803 
L 364.65645 345.096938 
L 364.990025 325.055274 
L 365.3236 349.057026 
L 365.657176 354.062417 
L 365.990751 335.5284 
L 366.324326 336.010848 
L 366.991477 297.37486 
L 367.325052 295.897365 
L 367.658628 271.895613 
L 367.992203 268.367717 
L 368.325778 246.496773 
L 368.659354 265.03079 
L 368.992929 266.508284 
L 369.326504 262.477839 
L 369.660079 284.348783 
L 369.993655 294.610839 
L 370.32723 289.605449 
L 370.994381 266.447979 
L 371.327956 282.17777 
L 371.661531 275.142081 
L 372.328682 295.103338 
L 372.662257 290.530139 
L 372.995832 310.571804 
L 373.329408 315.577195 
L 374.330134 273.332903 
L 374.663709 286.982141 
L 374.997284 294.017831 
L 375.33086 309.506399 
L 375.664435 299.606179 
L 375.99801 285.956941 
L 376.331585 296.017977 
L 376.665161 280.529409 
L 376.998736 258.839383 
L 377.332311 268.739603 
L 377.665887 258.397139 
L 377.999462 269.995976 
L 378.333037 262.960287 
L 378.666613 273.222343 
L 379.667338 242.576889 
L 380.000914 266.578641 
L 380.334489 265.101147 
L 381.335215 203.257434 
L 381.66879 207.830632 
L 382.002366 227.761736 
L 382.335941 238.1042 
L 382.669516 308.481199 
L 383.003092 286.86153 
L 383.336667 308.481199 
L 383.670242 319.286008 
L 384.003817 308.481199 
L 384.337393 286.791173 
L 384.670968 297.133637 
L 385.004543 278.59962 
L 385.338119 298.530724 
L 386.005269 256.889492 
L 386.338845 246.547028 
L 386.67242 255.301436 
L 387.33957 294.289208 
L 388.006721 276.931156 
L 388.340296 291.143249 
L 388.673872 296.14864 
L 389.007447 306.953449 
L 389.341022 311.526647 
L 390.008173 302.923004 
L 390.341748 287.434436 
L 391.008899 328.89475 
L 391.342474 332.925195 
L 391.676049 322.864159 
L 392.009625 322.050029 
L 392.3432 332.372391 
L 392.676775 333.287031 
L 393.010351 355.157975 
L 393.343926 362.193664 
L 393.677501 347.981571 
L 394.011076 324.723591 
L 394.344652 321.195695 
L 394.678227 316.190305 
L 395.011802 316.672752 
L 395.345378 317.486882 
L 395.678953 297.716594 
L 396.012528 301.24449 
L 396.346104 300.32985 
L 396.679679 299.847403 
L 397.013254 300.32985 
L 397.346829 298.852355 
L 397.680405 294.82191 
L 398.01398 310.310478 
L 398.347555 315.265614 
L 399.014706 276.468811 
L 399.348281 263.573397 
L 399.681857 265.050892 
L 400.015432 276.649729 
L 400.349007 275.172234 
L 400.682583 274.358104 
L 401.016158 293.223803 
L 401.349733 284.469395 
L 401.683308 270.297506 
L 402.016884 293.555486 
L 402.684034 319.014631 
L 403.351185 294.560584 
L 403.68476 318.562337 
L 404.018336 327.316745 
L 404.351911 311.586953 
L 404.685486 322.391763 
L 405.019061 340.925779 
L 405.686212 297.616084 
L 406.019787 294.088188 
L 406.353363 297.616084 
L 406.686938 307.516304 
L 407.020513 296.711495 
L 407.354089 318.331164 
L 407.687664 302.842596 
L 408.021239 304.320091 
L 408.354814 300.792195 
L 408.68839 286.620306 
L 409.021965 299.51572 
L 409.689116 308.119363 
L 410.022691 307.636916 
L 410.356266 284.378936 
L 410.689842 277.343247 
L 411.023417 273.312801 
L 411.356992 283.373838 
L 411.690567 284.187968 
L 412.024143 265.322268 
L 412.357718 260.74907 
L 412.691293 236.747317 
L 413.024869 235.933187 
L 413.358444 226.032967 
L 413.692019 240.204856 
L 414.025595 229.9428 
L 414.35917 208.071856 
L 415.026321 235.219567 
L 415.359896 311.365832 
L 415.693471 300.561023 
L 416.360622 298.832253 
L 416.694197 290.077845 
L 417.027772 274.589277 
L 417.694923 301.365101 
L 418.028498 306.320237 
L 418.362074 320.53233 
L 418.695649 310.189866 
L 419.029224 321.788703 
L 419.362799 321.306256 
L 419.696375 321.788703 
L 420.02995 343.47873 
L 420.363525 353.801092 
L 420.697101 338.0713 
L 421.030676 333.116164 
L 421.364251 311.426138 
L 421.697827 306.420747 
L 422.031402 307.234877 
L 422.364977 291.746308 
L 422.698552 307.234877 
L 423.032128 296.912515 
L 423.365703 292.339317 
L 424.032854 317.316015 
L 424.366429 330.211429 
L 425.03358 306.099115 
L 425.367155 311.104506 
L 425.70073 235.480893 
L 426.034305 239.008789 
L 426.367881 257.874488 
L 426.701456 258.356935 
L 427.035031 273.845504 
L 427.368607 297.847257 
L 427.702182 301.877702 
L 428.035757 280.187675 
L 428.369333 301.877702 
L 428.702908 283.343685 
L 429.036483 294.630941 
L 429.370058 317.888921 
L 429.703634 307.566559 
L 430.037209 327.497663 
L 430.370784 307.566559 
L 430.70436 304.038663 
L 431.037935 315.6375 
L 431.37151 296.771801 
L 431.705086 297.585931 
L 432.038661 293.555486 
L 432.372236 283.49445 
L 432.705812 293.816811 
L 433.039387 282.217974 
L 433.372962 266.488182 
L 433.706537 265.010688 
L 434.040113 264.196558 
L 434.707263 299.857454 
L 435.040839 294.902318 
L 435.374414 284.579956 
L 435.707989 294.640992 
L 436.041565 290.067794 
L 436.37514 309.838082 
L 436.708715 286.580102 
L 437.375866 256.879441 
L 437.709441 248.125032 
L 438.043016 262.296922 
L 438.376592 251.009665 
L 438.710167 255.04011 
L 439.043742 231.038357 
L 439.377318 254.296337 
L 439.710893 265.583594 
L 440.044468 270.53873 
L 440.378043 266.508284 
L 441.045194 230.736828 
L 441.378769 244.948921 
L 441.712345 230.736828 
L 442.04592 209.117159 
L 442.379495 213.147604 
L 443.046646 253.632972 
L 443.713796 210.443889 
L 444.047372 211.921383 
L 444.380947 216.926774 
L 444.714522 235.460791 
L 445.048098 225.118327 
L 445.381673 228.646223 
L 445.715248 223.640832 
L 446.048824 212.353576 
L 446.382399 217.358966 
L 446.715974 198.82495 
L 447.04955 188.924729 
L 447.383125 199.247091 
L 448.050275 244.376015 
L 448.383851 224.605727 
L 448.717426 244.536831 
L 449.051001 256.135668 
L 449.384577 241.963778 
L 449.718152 248.999468 
L 450.051727 297.585931 
L 450.385303 307.646967 
L 450.718878 306.832837 
L 451.052453 311.787973 
L 451.386028 312.27042 
L 451.719604 298.058327 
L 452.053179 302.088772 
L 452.386754 291.746308 
L 452.72033 254.839091 
L 453.053905 258.869536 
L 453.38748 268.930572 
L 453.721056 257.331735 
L 454.054631 235.712066 
L 454.721781 215.308565 
L 455.055357 229.480455 
L 455.388932 228.565815 
L 455.722507 238.908279 
L 456.056083 228.585917 
L 456.389658 225.058021 
L 456.723233 205.126917 
L 457.056809 225.058021 
L 457.390384 206.192322 
L 457.723959 210.76552 
L 458.057534 222.052777 
L 458.39111 200.36275 
L 458.724685 222.052777 
L 459.05826 222.535224 
L 459.391836 222.052777 
L 460.058986 242.637194 
L 460.392562 261.171211 
L 461.059712 219.369164 
L 461.393288 219.851611 
L 461.726863 239.782715 
L 462.060438 229.460353 
L 462.394013 207.770327 
L 462.727589 227.811991 
L 463.061164 232.767127 
L 463.394739 225.731437 
L 463.728315 221.158239 
L 464.395465 181.18547 
L 464.729041 203.056414 
L 465.062616 201.57892 
L 465.396191 211.901281 
L 465.729766 201.57892 
L 466.063342 345.006479 
L 466.396917 344.09184 
L 466.730492 330.442602 
L 467.064068 306.440849 
L 467.397643 306.923296 
L 467.731218 286.881632 
L 468.064794 297.143688 
L 468.398369 285.544851 
L 468.731944 284.067356 
L 469.065519 295.354612 
L 469.399095 319.356365 
L 469.73267 299.586077 
L 470.066245 246.999322 
L 470.399821 242.044186 
L 470.733396 222.002522 
L 471.066971 220.525027 
L 471.734122 180.120066 
L 472.067697 198.071126 
L 472.401272 200.784892 
L 472.734848 199.397856 
L 473.068423 196.352407 
L 474.069149 223.882056 
L 475.069875 249.572374 
L 475.737025 221.188392 
L 476.070601 222.103032 
L 476.404176 236.274921 
L 476.737751 225.932457 
L 477.071327 236.737266 
L 477.404902 256.66837 
L 477.738477 255.75373 
L 478.072053 241.581841 
L 478.405628 251.843897 
L 478.739203 241.039088 
L 479.406354 265.533339 
L 479.739929 267.010834 
L 480.073504 278.29809 
L 480.40708 274.267645 
L 480.740655 264.367425 
L 481.07423 282.901441 
L 481.407806 281.423947 
L 481.741381 276.850748 
L 482.408532 249.029621 
L 482.742107 253.984757 
L 483.075682 243.722701 
L 483.409257 253.622921 
L 483.742833 243.561885 
L 484.076408 265.251911 
L 484.409983 254.929549 
L 484.743559 233.239523 
L 485.077134 237.269968 
L 485.410709 238.747463 
L 485.744285 238.265016 
L 486.74501 206.624514 
L 487.078586 184.75357 
L 487.412161 185.236018 
L 487.745736 196.040827 
L 488.079312 191.085691 
L 488.412887 201.408053 
L 488.746462 196.402662 
L 489.080038 210.0519 
L 489.747188 189.346871 
L 490.080763 202.352845 
L 490.747914 202.352845 
L 491.081489 207.307981 
L 491.415065 218.906818 
L 491.74864 327.678581 
L 492.082215 341.327819 
L 492.415791 360.193518 
L 492.749366 186.391881 
L 493.082941 203.056414 
L 493.416517 190.321816 
L 494.417242 233.872735 
L 494.750818 257.874488 
L 495.084393 237.943384 
L 495.417968 256.809084 
L 495.751544 267.613893 
L 496.085119 260.578203 
L 496.418694 262.628604 
L 497.085845 243.149795 
L 497.41942 253.492259 
L 497.752995 254.969753 
L 498.086571 233.350084 
L 498.420146 313.235315 
L 498.753721 308.662117 
L 499.087297 301.626427 
L 499.420872 279.936401 
L 499.754447 266.648998 
L 500.088023 247.783299 
L 500.421598 236.97849 
L 500.755173 247.039526 
L 501.088748 246.225396 
L 501.422324 266.1565 
L 501.755899 246.225396 
L 502.42305 225.841998 
L 502.756625 207.307981 
L 503.0902 202.352845 
L 503.423776 205.880741 
L 503.757351 207.358236 
L 504.090926 230.616216 
L 504.424501 206.614463 
L 504.758077 217.419272 
L 505.091652 239.290216 
L 505.425227 240.104346 
L 506.092378 258.758975 
L 506.425953 257.944845 
L 506.759529 288.640554 
L 507.093104 302.812443 
L 507.426679 303.294891 
L 507.760254 298.339755 
L 508.09383 320.029781 
L 508.427405 319.547334 
L 508.76098 309.486297 
L 509.094556 314.441433 
L 509.428131 314.441433 
L 509.761706 295.575734 
L 510.095282 290.620598 
L 510.428857 270.85031 
L 510.762432 277.886 
L 511.429583 253.974706 
L 511.763158 238.486138 
L 512.096733 231.450448 
L 512.430309 221.128086 
L 512.763884 242.99903 
L 513.097459 228.786937 
L 513.431035 244.275505 
L 513.76461 254.537561 
L 514.098185 259.110759 
L 514.431761 237.49109 
L 514.765336 242.446226 
L 515.098911 253.251035 
L 515.432486 252.436905 
L 515.766062 247.481769 
L 516.099637 251.009665 
L 516.433212 261.352129 
L 516.766788 262.166259 
L 517.100363 258.638363 
L 517.767514 277.624674 
L 518.101089 263.975436 
L 518.434664 287.977189 
L 518.768239 268.206901 
L 519.43539 289.273766 
L 519.768965 309.044054 
L 520.102541 319.386518 
L 520.436116 339.317622 
L 521.103267 296.289354 
L 521.436842 272.287601 
L 522.103992 294.2088 
L 522.771143 326.914706 
L 523.104718 326.432259 
L 523.438294 337.719515 
L 523.771869 317.67785 
L 524.105444 312.67246 
L 524.43902 301.073623 
L 524.772595 281.142519 
L 525.10617 281.624966 
L 525.439746 271.36291 
L 525.773321 257.191021 
L 526.106896 252.235885 
L 526.440471 256.809084 
L 526.774047 245.521827 
L 527.441197 279.102169 
L 527.774773 268.29736 
L 528.108348 291.55534 
L 528.441923 290.077845 
L 528.775499 283.042155 
L 529.442649 274.438512 
L 529.776224 275.353151 
L 530.1098 297.224095 
L 530.443375 298.038225 
L 530.77695 322.039978 
L 531.110526 298.781998 
L 531.444101 298.781998 
L 531.777676 295.254102 
L 532.111252 300.209238 
L 532.444827 315.697806 
L 532.778402 296.832107 
L 533.111977 320.090087 
L 533.445553 321.567582 
L 533.779128 308.672168 
L 534.112703 328.442456 
L 534.779854 292.78156 
L 535.113429 292.78156 
L 535.447005 292.299113 
L 535.78058 292.299113 
L 536.114155 291.384473 
L 536.44773 295.957671 
L 536.781306 295.957671 
L 537.114881 294.480176 
L 537.448456 271.222197 
L 537.782032 290.087896 
L 538.115607 290.570343 
L 538.449182 301.8576 
L 538.782758 305.385495 
L 539.783483 254.999906 
L 540.117059 244.657442 
L 540.450634 257.552857 
L 541.117785 222.294 
L 541.45136 217.338864 
L 541.784935 195.467921 
L 542.118511 182.572506 
L 542.452086 204.44345 
L 542.785661 209.398586 
L 543.119237 232.656566 
L 543.452812 232.656566 
L 543.786387 229.12867 
L 544.119962 249.059774 
L 544.453538 227.18883 
L 544.787113 246.959118 
L 545.120688 256.859339 
L 545.454264 236.928235 
L 546.121414 258.075508 
L 546.45499 279.765534 
L 546.788565 259.995246 
L 547.12214 259.512799 
L 547.455715 249.190437 
L 547.789291 227.500411 
L 548.122866 231.028306 
L 548.456441 217.379068 
L 548.790017 237.310172 
L 549.123592 237.79262 
L 549.790743 229.691525 
L 550.124318 241.290362 
L 550.457893 305.295037 
L 550.791468 305.295037 
L 551.125044 301.264592 
L 551.458619 290.94223 
L 551.792194 299.696638 
L 552.12577 298.219143 
L 552.459345 284.569905 
L 552.79292 286.0474 
L 553.126496 270.317608 
L 553.793646 228.857294 
L 554.127221 239.179655 
L 554.460797 238.265016 
L 554.794372 236.787521 
L 555.461523 278.579518 
L 556.128673 320.200648 
L 556.462249 301.666631 
L 556.795824 291.344269 
L 557.129399 269.654243 
L 557.462975 270.468373 
L 557.79655 256.296483 
L 558.130125 276.066771 
L 558.4637 287.665608 
L 558.797276 291.696054 
L 559.130851 280.097217 
L 559.464426 298.631233 
L 560.465152 244.566984 
L 560.798728 244.566984 
L 561.132303 243.752854 
L 561.465878 238.747463 
L 561.799453 239.662103 
L 562.133029 239.662103 
L 562.466604 232.626413 
L 562.800179 213.760714 
L 563.133755 213.760714 
L 563.46733 218.715849 
L 563.800905 234.445641 
L 564.134481 214.675353 
L 564.468056 201.779939 
L 564.801631 213.067196 
L 565.468782 193.025531 
L 565.802357 202.925752 
L 566.135932 224.615778 
L 566.469508 204.684674 
L 566.803083 205.498804 
L 567.136658 182.240824 
L 567.470234 193.52808 
L 567.803809 193.52808 
L 568.470959 227.882348 
L 568.804535 223.851903 
L 569.13811 201.980959 
L 569.471685 210.735367 
L 570.138836 192.080739 
L 570.805987 192.080739 
L 571.139562 197.086129 
L 571.473137 197.568576 
L 571.806712 196.653937 
L 572.140288 196.653937 
L 572.473863 207.458746 
L 572.807438 206.976299 
L 573.474589 225.630927 
L 574.14174 199.096326 
L 574.475315 210.695163 
L 575.142466 190.341918 
L 575.476041 203.991156 
L 575.809616 200.46326 
L 576.143191 186.814022 
L 576.476767 182.240824 
L 576.810342 182.240824 
L 577.143917 202.171928 
L 577.477493 190.884671 
L 577.811068 212.755615 
L 578.144643 191.135946 
L 578.478219 190.321816 
L 578.811794 190.321816 
L 579.145369 206.051608 
L 579.478944 206.051608 
L 579.81252 196.050878 
L 580.146095 196.050878 
L 580.813246 219.761152 
L 581.480396 237.139305 
L 581.813972 237.953435 
L 582.147547 261.211415 
L 582.481122 250.868951 
L 583.815423 250.868951 
L 584.148999 246.295753 
L 584.482574 257.58301 
L 584.816149 243.933772 
L 585.149725 220.675792 
L 585.4833 220.675792 
L 585.816875 204.946 
L 586.15045 217.841414 
L 586.484026 217.841414 
L 586.817601 231.490652 
L 587.151176 218.595238 
L 587.484752 218.595238 
L 588.151902 179.798435 
L 588.485478 199.729538 
L 588.819053 199.729538 
L 589.152628 186.0803 
L 589.486204 164.209356 
L 589.819779 153.9473 
L 590.153354 153.133171 
L 590.486929 153.133171 
L 591.15408 187.155756 
L 591.487655 177.094719 
L 591.821231 181.125165 
L 592.154806 181.125165 
L 592.488381 174.089475 
L 592.821957 184.431939 
L 593.155532 208.433692 
L 593.489107 208.433692 
L 593.822682 217.1881 
L 594.156258 221.761298 
L 594.489833 221.761298 
L 594.823408 231.822334 
L 595.156984 227.791889 
L 595.490559 227.791889 
L 595.824134 240.687303 
L 596.15771 241.501433 
L 596.491285 252.306242 
L 596.82486 232.375138 
L 597.492011 210.283073 
L 597.825586 205.277682 
L 598.159161 194.935218 
L 598.492737 195.417666 
L 598.826312 190.844467 
L 599.159887 190.030338 
L 599.493463 209.961441 
L 599.827038 209.961441 
L 600.160613 188.271415 
L 600.494188 189.74891 
L 600.827764 189.74891 
L 601.161339 176.853496 
L 601.82849 176.853496 
L 602.162065 198.543522 
L 602.49564 174.541769 
L 602.829216 169.586633 
L 603.162791 180.87389 
L 603.496366 180.87389 
L 603.829942 193.769304 
L 604.163517 193.769304 
L 604.497092 198.72444 
L 604.830667 198.72444 
L 605.164243 193.769304 
L 605.497818 205.368141 
L 605.831393 209.941339 
L 606.164969 209.941339 
L 606.498544 210.755469 
L 606.832119 197.860055 
L 607.165695 208.664864 
L 607.49927 208.664864 
L 607.832845 221.560278 
L 608.16642 228.595968 
L 608.499996 217.308712 
L 608.833571 222.314102 
L 609.834297 222.314102 
L 610.501448 201.960857 
L 611.168598 201.960857 
L 611.502173 197.387659 
L 612.169324 169.003676 
L 613.17005 169.003676 
L 613.503625 161.967987 
L 613.837201 173.566824 
L 614.170776 173.566824 
L 614.504351 151.876797 
L 615.838652 151.876797 
L 616.172228 141.071988 
L 616.505803 141.071988 
L 616.839378 139.594493 
L 618.507255 139.594493 
L 618.84083 129.694273 
L 619.174405 134.267471 
L 619.507981 147.916709 
L 619.841556 134.267471 
L 620.842282 134.267471 
L 621.175857 144.589833 
L 622.843734 144.589833 
L 623.177309 148.117729 
L 623.510884 162.329822 
L 624.51161 162.329822 
L 624.845186 150.730985 
L 625.178761 132.196968 
L 626.179487 132.196968 
L 626.513062 143.001777 
L 627.180213 143.001777 
L 627.513788 132.196968 
L 627.847363 132.196968 
L 628.180939 117.984875 
L 628.514514 119.46237 
L 630.515966 119.46237 
L 630.849541 110.818523 
L 631.183116 114.848968 
L 633.518143 114.848968 
L 633.851719 110.275769 
L 634.852445 110.275769 
L 635.18602 103.943649 
L 637.854622 103.943649 
L 638.188198 100.656976 
L 638.521773 108.416337 
L 639.188924 108.416337 
L 639.522499 103.461201 
L 639.856074 108.416337 
L 640.189649 107.501697 
L 640.8568 107.501697 
L 641.190375 124.417506 
L 641.523951 127.643872 
L 641.857526 127.161425 
L 642.191101 127.643872 
L 642.524677 137.544092 
L 642.858252 137.544092 
L 643.191827 138.458732 
L 643.525402 128.196676 
L 644.192553 128.196676 
L 644.526128 135.232366 
L 644.859704 135.232366 
L 645.193279 125.17133 
L 645.86043 125.17133 
L 646.194005 129.744528 
L 646.52758 128.829888 
L 646.861155 128.829888 
L 647.194731 129.744528 
L 648.862607 129.744528 
L 649.196183 140.086992 
L 649.529758 140.086992 
L 649.863333 128.799735 
L 650.196908 128.799735 
L 650.530484 116.989828 
L 651.864785 116.989828 
L 652.19836 107.089607 
L 657.20199 107.089607 
L 657.535565 109.140008 
L 657.86914 109.140008 
L 658.202716 108.657561 
L 660.537743 108.657561 
L 660.871318 105.109563 
L 661.204893 105.109563 
L 661.538469 94.767099 
L 664.874222 94.767099 
L 665.207797 103.521507 
L 666.542098 103.521507 
L 666.875674 94.767099 
L 719.580571 94.767099 
L 719.914147 93.460471 
L 731.255707 93.460471 
L 731.589282 88.887273 
L 871.690909 88.887273 
L 871.690909 88.887273 
" style="fill:none;stroke:#8dd3c7;stroke-linecap:square;stroke-width:1.5;"/>
   </g>
   <g id="line2d_16">
    <path clip-path="url(#p240bf8c7b8)" d="M 161.509091 206.222475 
L 329.964618 206.222475 
L 330.298194 199.769742 
L 330.631769 177.898798 
L 331.29892 156.269078 
L 331.632495 151.263687 
L 615.838652 151.263687 
L 616.172228 141.071988 
L 616.505803 141.071988 
L 616.839378 139.594493 
L 618.507255 139.594493 
L 618.84083 129.694273 
L 627.847363 129.694273 
L 628.180939 117.984875 
L 630.515966 117.984875 
L 630.849541 110.818523 
L 633.518143 110.818523 
L 633.851719 110.275769 
L 634.852445 110.275769 
L 635.18602 103.943649 
L 637.854622 103.943649 
L 638.188198 100.656976 
L 661.204893 100.656976 
L 661.538469 94.767099 
L 719.580571 94.767099 
L 719.914147 93.460471 
L 731.255707 93.460471 
L 731.589282 88.887273 
L 871.690909 88.887273 
L 871.690909 88.887273 
" style="fill:none;stroke:#feffb3;stroke-linecap:square;stroke-width:1.5;"/>
   </g>
   <g id="line2d_17">
    <path clip-path="url(#p240bf8c7b8)" d="M 161.509091 289.625551 
L 164.511269 289.625551 
L 164.844844 308.233485 
L 167.847022 308.233485 
L 168.180597 325.062167 
L 171.182775 325.062167 
L 171.51635 340.281726 
L 174.518528 340.281726 
L 174.852103 354.046022 
L 177.854281 354.046022 
L 178.187856 366.494205 
L 181.190034 366.494205 
L 181.523609 377.752118 
L 184.525787 377.752118 
L 184.859362 387.933573 
L 187.86154 387.933573 
L 188.195115 397.141498 
L 191.197293 397.141498 
L 191.530868 405.468981 
L 194.533046 405.468981 
L 194.866621 413.000207 
L 197.868799 413.000207 
L 198.202374 419.811313 
L 201.204552 419.811313 
L 201.538127 425.971155 
L 204.540305 425.971155 
L 204.87388 431.542005 
L 207.876058 431.542005 
L 208.209633 436.580183 
L 211.211811 436.580183 
L 211.545386 441.13662 
L 214.547564 441.13662 
L 214.881139 445.257381 
L 217.883317 445.257381 
L 218.216892 448.984122 
L 221.21907 448.984122 
L 221.552645 452.354521 
L 224.554823 452.354521 
L 224.888398 455.402649 
L 227.890576 455.402649 
L 228.224151 458.159321 
L 231.226329 458.159321 
L 231.559904 460.652406 
L 234.562082 460.652406 
L 234.895657 462.907108 
L 237.897835 462.907108 
L 238.23141 464.946219 
L 241.233588 464.946219 
L 241.567163 466.790355 
L 244.569341 466.790355 
L 244.902916 468.458158 
L 247.905094 468.458158 
L 248.238669 469.96649 
L 251.240847 469.96649 
L 251.574422 471.330598 
L 254.5766 471.330598 
L 254.910175 472.564273 
L 257.912353 472.564273 
L 258.245929 473.679986 
L 261.248106 473.679986 
L 261.581682 474.689017 
L 264.583859 474.689017 
L 264.917435 475.601567 
L 267.919612 475.601567 
L 268.253188 476.426861 
L 271.255365 476.426861 
L 271.588941 477.173242 
L 274.591118 477.173242 
L 274.924694 477.848255 
L 277.926871 477.848255 
L 278.260447 478.458725 
L 281.262624 478.458725 
L 281.5962 479.010823 
L 284.598377 479.010823 
L 284.931953 479.510131 
L 287.93413 479.510131 
L 288.267706 479.961696 
L 291.269883 479.961696 
L 291.603459 480.370083 
L 294.605636 480.370083 
L 294.939212 480.739421 
L 297.941389 480.739421 
L 298.274965 481.073444 
L 301.277142 481.073444 
L 301.610718 481.375528 
L 304.612896 481.375528 
L 304.946471 481.648727 
L 307.948649 481.648727 
L 308.282224 481.895804 
L 311.284402 481.895804 
L 311.617977 482.119256 
L 314.620155 482.119256 
L 314.95373 482.321342 
L 317.955908 482.321342 
L 318.289483 482.504104 
L 321.291661 482.504104 
L 321.625236 482.669392 
L 324.627414 482.669392 
L 324.960989 482.818875 
L 327.963167 482.818875 
L 328.296742 482.954064 
L 331.29892 482.954064 
L 331.632495 483.076327 
L 337.970426 483.1869 
L 338.637576 483.2869 
L 344.641932 483.377338 
L 345.309082 483.459128 
L 351.313438 483.533098 
L 351.980588 483.599995 
L 357.984944 483.660496 
L 358.98567 483.715212 
L 367.992203 483.809448 
L 368.992929 483.849921 
L 381.335215 483.949565 
L 383.003092 483.976641 
L 401.349733 484.077793 
L 404.018336 484.092608 
L 454.721781 484.201698 
L 468.398369 484.213954 
L 871.690909 484.232727 
L 871.690909 484.232727 
" style="fill:none;stroke:#bfbbd9;stroke-linecap:square;stroke-width:1.5;"/>
   </g>
   <g id="patch_3">
    <path d="M 126 504 
L 126 69.12 
" style="fill:none;stroke:#ffffff;stroke-linecap:square;stroke-linejoin:miter;stroke-width:0.8;"/>
   </g>
   <g id="patch_4">
    <path d="M 907.2 504 
L 907.2 69.12 
" style="fill:none;stroke:#ffffff;stroke-linecap:square;stroke-linejoin:miter;stroke-width:0.8;"/>
   </g>
   <g id="patch_5">
    <path d="M 126 504 
L 907.2 504 
" style="fill:none;stroke:#ffffff;stroke-linecap:square;stroke-linejoin:miter;stroke-width:0.8;"/>
   </g>
   <g id="patch_6">
    <path d="M 126 69.12 
L 907.2 69.12 
" style="fill:none;stroke:#ffffff;stroke-linecap:square;stroke-linejoin:miter;stroke-width:0.8;"/>
   </g>
   <g id="text_16">
    <!-- instance 10 with error 0.0 -->
    <g style="fill:#ffffff;" transform="translate(439.126875 63.12)scale(0.12 -0.12)">
     <defs>
      <path d="M 2834 3397 
L 2834 2853 
Q 2591 2978 2328 3040 
Q 2066 3103 1784 3103 
Q 1356 3103 1142 2972 
Q 928 2841 928 2578 
Q 928 2378 1081 2264 
Q 1234 2150 1697 2047 
L 1894 2003 
Q 2506 1872 2764 1633 
Q 3022 1394 3022 966 
Q 3022 478 2636 193 
Q 2250 -91 1575 -91 
Q 1294 -91 989 -36 
Q 684 19 347 128 
L 347 722 
Q 666 556 975 473 
Q 1284 391 1588 391 
Q 1994 391 2212 530 
Q 2431 669 2431 922 
Q 2431 1156 2273 1281 
Q 2116 1406 1581 1522 
L 1381 1569 
Q 847 1681 609 1914 
Q 372 2147 372 2553 
Q 372 3047 722 3315 
Q 1072 3584 1716 3584 
Q 2034 3584 2315 3537 
Q 2597 3491 2834 3397 
z
" id="DejaVuSans-73" transform="scale(0.015625)"/>
      <path d="M 3122 3366 
L 3122 2828 
Q 2878 2963 2633 3030 
Q 2388 3097 2138 3097 
Q 1578 3097 1268 2742 
Q 959 2388 959 1747 
Q 959 1106 1268 751 
Q 1578 397 2138 397 
Q 2388 397 2633 464 
Q 2878 531 3122 666 
L 3122 134 
Q 2881 22 2623 -34 
Q 2366 -91 2075 -91 
Q 1284 -91 818 406 
Q 353 903 353 1747 
Q 353 2603 823 3093 
Q 1294 3584 2113 3584 
Q 2378 3584 2631 3529 
Q 2884 3475 3122 3366 
z
" id="DejaVuSans-63" transform="scale(0.015625)"/>
      <path id="DejaVuSans-20" transform="scale(0.015625)"/>
      <path d="M 269 3500 
L 844 3500 
L 1563 769 
L 2278 3500 
L 2956 3500 
L 3675 769 
L 4391 3500 
L 4966 3500 
L 4050 0 
L 3372 0 
L 2619 2869 
L 1863 0 
L 1184 0 
L 269 3500 
z
" id="DejaVuSans-77" transform="scale(0.015625)"/>
      <path d="M 3513 2113 
L 3513 0 
L 2938 0 
L 2938 2094 
Q 2938 2591 2744 2837 
Q 2550 3084 2163 3084 
Q 1697 3084 1428 2787 
Q 1159 2491 1159 1978 
L 1159 0 
L 581 0 
L 581 4863 
L 1159 4863 
L 1159 2956 
Q 1366 3272 1645 3428 
Q 1925 3584 2291 3584 
Q 2894 3584 3203 3211 
Q 3513 2838 3513 2113 
z
" id="DejaVuSans-68" transform="scale(0.015625)"/>
      <path d="M 684 794 
L 1344 794 
L 1344 0 
L 684 0 
L 684 794 
z
" id="DejaVuSans-2e" transform="scale(0.015625)"/>
     </defs>
     <use xlink:href="#DejaVuSans-69"/>
     <use x="27.783203" xlink:href="#DejaVuSans-6e"/>
     <use x="91.162109" xlink:href="#DejaVuSans-73"/>
     <use x="143.261719" xlink:href="#DejaVuSans-74"/>
     <use x="182.470703" xlink:href="#DejaVuSans-61"/>
     <use x="243.75" xlink:href="#DejaVuSans-6e"/>
     <use x="307.128906" xlink:href="#DejaVuSans-63"/>
     <use x="362.109375" xlink:href="#DejaVuSans-65"/>
     <use x="423.632812" xlink:href="#DejaVuSans-20"/>
     <use x="455.419922" xlink:href="#DejaVuSans-31"/>
     <use x="519.042969" xlink:href="#DejaVuSans-30"/>
     <use x="582.666016" xlink:href="#DejaVuSans-20"/>
     <use x="614.453125" xlink:href="#DejaVuSans-77"/>
     <use x="696.240234" xlink:href="#DejaVuSans-69"/>
     <use x="724.023438" xlink:href="#DejaVuSans-74"/>
     <use x="763.232422" xlink:href="#DejaVuSans-68"/>
     <use x="826.611328" xlink:href="#DejaVuSans-20"/>
     <use x="858.398438" xlink:href="#DejaVuSans-65"/>
     <use x="919.921875" xlink:href="#DejaVuSans-72"/>
     <use x="959.285156" xlink:href="#DejaVuSans-72"/>
     <use x="998.148438" xlink:href="#DejaVuSans-6f"/>
     <use x="1059.330078" xlink:href="#DejaVuSans-72"/>
     <use x="1100.443359" xlink:href="#DejaVuSans-20"/>
     <use x="1132.230469" xlink:href="#DejaVuSans-30"/>
     <use x="1195.853516" xlink:href="#DejaVuSans-2e"/>
     <use x="1227.640625" xlink:href="#DejaVuSans-30"/>
    </g>
   </g>
   <g id="legend_1">
    <g id="patch_7">
     <path d="M 805.348438 499 
L 900.2 499 
Q 902.2 499 902.2 497 
L 902.2 453.965625 
Q 902.2 451.965625 900.2 451.965625 
L 805.348438 451.965625 
Q 803.348438 451.965625 803.348438 453.965625 
L 803.348438 497 
Q 803.348438 499 805.348438 499 
z
" style="opacity:0.8;stroke:#cccccc;stroke-linejoin:miter;"/>
    </g>
    <g id="line2d_18">
     <path d="M 807.348438 460.064062 
L 827.348438 460.064062 
" style="fill:none;stroke:#8dd3c7;stroke-linecap:square;stroke-width:1.5;"/>
    </g>
    <g id="line2d_19"/>
    <g id="text_17">
     <!-- cost -->
     <g style="fill:#ffffff;" transform="translate(835.348438 463.564062)scale(0.1 -0.1)">
      <use xlink:href="#DejaVuSans-63"/>
      <use x="54.980469" xlink:href="#DejaVuSans-6f"/>
      <use x="116.162109" xlink:href="#DejaVuSans-73"/>
      <use x="168.261719" xlink:href="#DejaVuSans-74"/>
     </g>
    </g>
    <g id="line2d_20">
     <path d="M 807.348438 474.742188 
L 827.348438 474.742188 
" style="fill:none;stroke:#feffb3;stroke-linecap:square;stroke-width:1.5;"/>
    </g>
    <g id="line2d_21"/>
    <g id="text_18">
     <!-- best cost -->
     <g style="fill:#ffffff;" transform="translate(835.348438 478.242188)scale(0.1 -0.1)">
      <defs>
       <path d="M 3116 1747 
Q 3116 2381 2855 2742 
Q 2594 3103 2138 3103 
Q 1681 3103 1420 2742 
Q 1159 2381 1159 1747 
Q 1159 1113 1420 752 
Q 1681 391 2138 391 
Q 2594 391 2855 752 
Q 3116 1113 3116 1747 
z
M 1159 2969 
Q 1341 3281 1617 3432 
Q 1894 3584 2278 3584 
Q 2916 3584 3314 3078 
Q 3713 2572 3713 1747 
Q 3713 922 3314 415 
Q 2916 -91 2278 -91 
Q 1894 -91 1617 61 
Q 1341 213 1159 525 
L 1159 0 
L 581 0 
L 581 4863 
L 1159 4863 
L 1159 2969 
z
" id="DejaVuSans-62" transform="scale(0.015625)"/>
      </defs>
      <use xlink:href="#DejaVuSans-62"/>
      <use x="63.476562" xlink:href="#DejaVuSans-65"/>
      <use x="125" xlink:href="#DejaVuSans-73"/>
      <use x="177.099609" xlink:href="#DejaVuSans-74"/>
      <use x="216.308594" xlink:href="#DejaVuSans-20"/>
      <use x="248.095703" xlink:href="#DejaVuSans-63"/>
      <use x="303.076172" xlink:href="#DejaVuSans-6f"/>
      <use x="364.257812" xlink:href="#DejaVuSans-73"/>
      <use x="416.357422" xlink:href="#DejaVuSans-74"/>
     </g>
    </g>
    <g id="line2d_22">
     <path d="M 807.348438 489.420313 
L 827.348438 489.420313 
" style="fill:none;stroke:#bfbbd9;stroke-linecap:square;stroke-width:1.5;"/>
    </g>
    <g id="line2d_23"/>
    <g id="text_19">
     <!-- temperature -->
     <g style="fill:#ffffff;" transform="translate(835.348438 492.920313)scale(0.1 -0.1)">
      <defs>
       <path d="M 3328 2828 
Q 3544 3216 3844 3400 
Q 4144 3584 4550 3584 
Q 5097 3584 5394 3201 
Q 5691 2819 5691 2113 
L 5691 0 
L 5113 0 
L 5113 2094 
Q 5113 2597 4934 2840 
Q 4756 3084 4391 3084 
Q 3944 3084 3684 2787 
Q 3425 2491 3425 1978 
L 3425 0 
L 2847 0 
L 2847 2094 
Q 2847 2600 2669 2842 
Q 2491 3084 2119 3084 
Q 1678 3084 1418 2786 
Q 1159 2488 1159 1978 
L 1159 0 
L 581 0 
L 581 3500 
L 1159 3500 
L 1159 2956 
Q 1356 3278 1631 3431 
Q 1906 3584 2284 3584 
Q 2666 3584 2933 3390 
Q 3200 3197 3328 2828 
z
" id="DejaVuSans-6d" transform="scale(0.015625)"/>
       <path d="M 1159 525 
L 1159 -1331 
L 581 -1331 
L 581 3500 
L 1159 3500 
L 1159 2969 
Q 1341 3281 1617 3432 
Q 1894 3584 2278 3584 
Q 2916 3584 3314 3078 
Q 3713 2572 3713 1747 
Q 3713 922 3314 415 
Q 2916 -91 2278 -91 
Q 1894 -91 1617 61 
Q 1341 213 1159 525 
z
M 3116 1747 
Q 3116 2381 2855 2742 
Q 2594 3103 2138 3103 
Q 1681 3103 1420 2742 
Q 1159 2381 1159 1747 
Q 1159 1113 1420 752 
Q 1681 391 2138 391 
Q 2594 391 2855 752 
Q 3116 1113 3116 1747 
z
" id="DejaVuSans-70" transform="scale(0.015625)"/>
       <path d="M 544 1381 
L 544 3500 
L 1119 3500 
L 1119 1403 
Q 1119 906 1312 657 
Q 1506 409 1894 409 
Q 2359 409 2629 706 
Q 2900 1003 2900 1516 
L 2900 3500 
L 3475 3500 
L 3475 0 
L 2900 0 
L 2900 538 
Q 2691 219 2414 64 
Q 2138 -91 1772 -91 
Q 1169 -91 856 284 
Q 544 659 544 1381 
z
M 1991 3584 
L 1991 3584 
z
" id="DejaVuSans-75" transform="scale(0.015625)"/>
      </defs>
      <use xlink:href="#DejaVuSans-74"/>
      <use x="39.208984" xlink:href="#DejaVuSans-65"/>
      <use x="100.732422" xlink:href="#DejaVuSans-6d"/>
      <use x="198.144531" xlink:href="#DejaVuSans-70"/>
      <use x="261.621094" xlink:href="#DejaVuSans-65"/>
      <use x="323.144531" xlink:href="#DejaVuSans-72"/>
      <use x="364.257812" xlink:href="#DejaVuSans-61"/>
      <use x="425.537109" xlink:href="#DejaVuSans-74"/>
      <use x="464.746094" xlink:href="#DejaVuSans-75"/>
      <use x="528.125" xlink:href="#DejaVuSans-72"/>
      <use x="566.988281" xlink:href="#DejaVuSans-65"/>
     </g>
    </g>
   </g>
  </g>
 </g>
 <defs>
  <clipPath id="p240bf8c7b8">
   <rect height="434.88" width="781.2" x="126" y="69.12"/>
  </clipPath>
 </defs>
</svg>
