<?xml version="1.0" encoding="utf-8" standalone="no"?>
<!DOCTYPE svg PUBLIC "-//W3C//DTD SVG 1.1//EN"
  "http://www.w3.org/Graphics/SVG/1.1/DTD/svg11.dtd">
<svg height="576pt" version="1.1" viewBox="0 0 1008 576" width="1008pt" xmlns="http://www.w3.org/2000/svg" xmlns:xlink="http://www.w3.org/1999/xlink">
 <metadata>
  <rdf:RDF xmlns:cc="http://creativecommons.org/ns#" xmlns:dc="http://purl.org/dc/elements/1.1/" xmlns:rdf="http://www.w3.org/1999/02/22-rdf-syntax-ns#">
   <cc:Work>
    <dc:type rdf:resource="http://purl.org/dc/dcmitype/StillImage"/>
    <dc:date>2022-01-07T21:26:19.660168</dc:date>
    <dc:format>image/svg+xml</dc:format>
    <dc:creator>
     <cc:Agent>
      <dc:title>Matplotlib v3.4.3, https://matplotlib.org/</dc:title>
     </cc:Agent>
    </dc:creator>
   </cc:Work>
  </rdf:RDF>
 </metadata>
 <defs>
  <style type="text/css">*{stroke-linecap:butt;stroke-linejoin:round;}</style>
 </defs>
 <g id="figure_1">
  <g id="patch_1">
   <path d="M 0 576 
L 1008 576 
L 1008 0 
L 0 0 
z
"/>
  </g>
  <g id="axes_1">
   <g id="patch_2">
    <path d="M 126 504 
L 907.2 504 
L 907.2 69.12 
L 126 69.12 
z
"/>
   </g>
   <g id="matplotlib.axis_1">
    <g id="xtick_1">
     <g id="line2d_1">
      <defs>
       <path d="M 0 0 
L 0 3.5 
" id="m8dd21a7594" style="stroke:#ffffff;stroke-width:0.8;"/>
      </defs>
      <g>
       <use style="fill:#ffffff;stroke:#ffffff;stroke-width:0.8;" x="161.509091" xlink:href="#m8dd21a7594" y="504"/>
      </g>
     </g>
     <g id="text_1">
      <!-- 0 -->
      <g style="fill:#ffffff;" transform="translate(158.327841 518.598438)scale(0.1 -0.1)">
       <defs>
        <path d="M 2034 4250 
Q 1547 4250 1301 3770 
Q 1056 3291 1056 2328 
Q 1056 1369 1301 889 
Q 1547 409 2034 409 
Q 2525 409 2770 889 
Q 3016 1369 3016 2328 
Q 3016 3291 2770 3770 
Q 2525 4250 2034 4250 
z
M 2034 4750 
Q 2819 4750 3233 4129 
Q 3647 3509 3647 2328 
Q 3647 1150 3233 529 
Q 2819 -91 2034 -91 
Q 1250 -91 836 529 
Q 422 1150 422 2328 
Q 422 3509 836 4129 
Q 1250 4750 2034 4750 
z
" id="DejaVuSans-30" transform="scale(0.015625)"/>
       </defs>
       <use xlink:href="#DejaVuSans-30"/>
      </g>
     </g>
    </g>
    <g id="xtick_2">
     <g id="line2d_2">
      <g>
       <use style="fill:#ffffff;stroke:#ffffff;stroke-width:0.8;" x="249.620979" xlink:href="#m8dd21a7594" y="504"/>
      </g>
     </g>
     <g id="text_2">
      <!-- 250 -->
      <g style="fill:#ffffff;" transform="translate(240.077229 518.598438)scale(0.1 -0.1)">
       <defs>
        <path d="M 1228 531 
L 3431 531 
L 3431 0 
L 469 0 
L 469 531 
Q 828 903 1448 1529 
Q 2069 2156 2228 2338 
Q 2531 2678 2651 2914 
Q 2772 3150 2772 3378 
Q 2772 3750 2511 3984 
Q 2250 4219 1831 4219 
Q 1534 4219 1204 4116 
Q 875 4013 500 3803 
L 500 4441 
Q 881 4594 1212 4672 
Q 1544 4750 1819 4750 
Q 2544 4750 2975 4387 
Q 3406 4025 3406 3419 
Q 3406 3131 3298 2873 
Q 3191 2616 2906 2266 
Q 2828 2175 2409 1742 
Q 1991 1309 1228 531 
z
" id="DejaVuSans-32" transform="scale(0.015625)"/>
        <path d="M 691 4666 
L 3169 4666 
L 3169 4134 
L 1269 4134 
L 1269 2991 
Q 1406 3038 1543 3061 
Q 1681 3084 1819 3084 
Q 2600 3084 3056 2656 
Q 3513 2228 3513 1497 
Q 3513 744 3044 326 
Q 2575 -91 1722 -91 
Q 1428 -91 1123 -41 
Q 819 9 494 109 
L 494 744 
Q 775 591 1075 516 
Q 1375 441 1709 441 
Q 2250 441 2565 725 
Q 2881 1009 2881 1497 
Q 2881 1984 2565 2268 
Q 2250 2553 1709 2553 
Q 1456 2553 1204 2497 
Q 953 2441 691 2322 
L 691 4666 
z
" id="DejaVuSans-35" transform="scale(0.015625)"/>
       </defs>
       <use xlink:href="#DejaVuSans-32"/>
       <use x="63.623047" xlink:href="#DejaVuSans-35"/>
       <use x="127.246094" xlink:href="#DejaVuSans-30"/>
      </g>
     </g>
    </g>
    <g id="xtick_3">
     <g id="line2d_3">
      <g>
       <use style="fill:#ffffff;stroke:#ffffff;stroke-width:0.8;" x="337.732867" xlink:href="#m8dd21a7594" y="504"/>
      </g>
     </g>
     <g id="text_3">
      <!-- 500 -->
      <g style="fill:#ffffff;" transform="translate(328.189117 518.598438)scale(0.1 -0.1)">
       <use xlink:href="#DejaVuSans-35"/>
       <use x="63.623047" xlink:href="#DejaVuSans-30"/>
       <use x="127.246094" xlink:href="#DejaVuSans-30"/>
      </g>
     </g>
    </g>
    <g id="xtick_4">
     <g id="line2d_4">
      <g>
       <use style="fill:#ffffff;stroke:#ffffff;stroke-width:0.8;" x="425.844755" xlink:href="#m8dd21a7594" y="504"/>
      </g>
     </g>
     <g id="text_4">
      <!-- 750 -->
      <g style="fill:#ffffff;" transform="translate(416.301005 518.598438)scale(0.1 -0.1)">
       <defs>
        <path d="M 525 4666 
L 3525 4666 
L 3525 4397 
L 1831 0 
L 1172 0 
L 2766 4134 
L 525 4134 
L 525 4666 
z
" id="DejaVuSans-37" transform="scale(0.015625)"/>
       </defs>
       <use xlink:href="#DejaVuSans-37"/>
       <use x="63.623047" xlink:href="#DejaVuSans-35"/>
       <use x="127.246094" xlink:href="#DejaVuSans-30"/>
      </g>
     </g>
    </g>
    <g id="xtick_5">
     <g id="line2d_5">
      <g>
       <use style="fill:#ffffff;stroke:#ffffff;stroke-width:0.8;" x="513.956643" xlink:href="#m8dd21a7594" y="504"/>
      </g>
     </g>
     <g id="text_5">
      <!-- 1000 -->
      <g style="fill:#ffffff;" transform="translate(501.231643 518.598438)scale(0.1 -0.1)">
       <defs>
        <path d="M 794 531 
L 1825 531 
L 1825 4091 
L 703 3866 
L 703 4441 
L 1819 4666 
L 2450 4666 
L 2450 531 
L 3481 531 
L 3481 0 
L 794 0 
L 794 531 
z
" id="DejaVuSans-31" transform="scale(0.015625)"/>
       </defs>
       <use xlink:href="#DejaVuSans-31"/>
       <use x="63.623047" xlink:href="#DejaVuSans-30"/>
       <use x="127.246094" xlink:href="#DejaVuSans-30"/>
       <use x="190.869141" xlink:href="#DejaVuSans-30"/>
      </g>
     </g>
    </g>
    <g id="xtick_6">
     <g id="line2d_6">
      <g>
       <use style="fill:#ffffff;stroke:#ffffff;stroke-width:0.8;" x="602.068531" xlink:href="#m8dd21a7594" y="504"/>
      </g>
     </g>
     <g id="text_6">
      <!-- 1250 -->
      <g style="fill:#ffffff;" transform="translate(589.343531 518.598438)scale(0.1 -0.1)">
       <use xlink:href="#DejaVuSans-31"/>
       <use x="63.623047" xlink:href="#DejaVuSans-32"/>
       <use x="127.246094" xlink:href="#DejaVuSans-35"/>
       <use x="190.869141" xlink:href="#DejaVuSans-30"/>
      </g>
     </g>
    </g>
    <g id="xtick_7">
     <g id="line2d_7">
      <g>
       <use style="fill:#ffffff;stroke:#ffffff;stroke-width:0.8;" x="690.18042" xlink:href="#m8dd21a7594" y="504"/>
      </g>
     </g>
     <g id="text_7">
      <!-- 1500 -->
      <g style="fill:#ffffff;" transform="translate(677.45542 518.598438)scale(0.1 -0.1)">
       <use xlink:href="#DejaVuSans-31"/>
       <use x="63.623047" xlink:href="#DejaVuSans-35"/>
       <use x="127.246094" xlink:href="#DejaVuSans-30"/>
       <use x="190.869141" xlink:href="#DejaVuSans-30"/>
      </g>
     </g>
    </g>
    <g id="xtick_8">
     <g id="line2d_8">
      <g>
       <use style="fill:#ffffff;stroke:#ffffff;stroke-width:0.8;" x="778.292308" xlink:href="#m8dd21a7594" y="504"/>
      </g>
     </g>
     <g id="text_8">
      <!-- 1750 -->
      <g style="fill:#ffffff;" transform="translate(765.567308 518.598438)scale(0.1 -0.1)">
       <use xlink:href="#DejaVuSans-31"/>
       <use x="63.623047" xlink:href="#DejaVuSans-37"/>
       <use x="127.246094" xlink:href="#DejaVuSans-35"/>
       <use x="190.869141" xlink:href="#DejaVuSans-30"/>
      </g>
     </g>
    </g>
    <g id="xtick_9">
     <g id="line2d_9">
      <g>
       <use style="fill:#ffffff;stroke:#ffffff;stroke-width:0.8;" x="866.404196" xlink:href="#m8dd21a7594" y="504"/>
      </g>
     </g>
     <g id="text_9">
      <!-- 2000 -->
      <g style="fill:#ffffff;" transform="translate(853.679196 518.598438)scale(0.1 -0.1)">
       <use xlink:href="#DejaVuSans-32"/>
       <use x="63.623047" xlink:href="#DejaVuSans-30"/>
       <use x="127.246094" xlink:href="#DejaVuSans-30"/>
       <use x="190.869141" xlink:href="#DejaVuSans-30"/>
      </g>
     </g>
    </g>
    <g id="text_10">
     <!-- iteration -->
     <g style="fill:#ffffff;" transform="translate(495.477344 532.276562)scale(0.1 -0.1)">
      <defs>
       <path d="M 603 3500 
L 1178 3500 
L 1178 0 
L 603 0 
L 603 3500 
z
M 603 4863 
L 1178 4863 
L 1178 4134 
L 603 4134 
L 603 4863 
z
" id="DejaVuSans-69" transform="scale(0.015625)"/>
       <path d="M 1172 4494 
L 1172 3500 
L 2356 3500 
L 2356 3053 
L 1172 3053 
L 1172 1153 
Q 1172 725 1289 603 
Q 1406 481 1766 481 
L 2356 481 
L 2356 0 
L 1766 0 
Q 1100 0 847 248 
Q 594 497 594 1153 
L 594 3053 
L 172 3053 
L 172 3500 
L 594 3500 
L 594 4494 
L 1172 4494 
z
" id="DejaVuSans-74" transform="scale(0.015625)"/>
       <path d="M 3597 1894 
L 3597 1613 
L 953 1613 
Q 991 1019 1311 708 
Q 1631 397 2203 397 
Q 2534 397 2845 478 
Q 3156 559 3463 722 
L 3463 178 
Q 3153 47 2828 -22 
Q 2503 -91 2169 -91 
Q 1331 -91 842 396 
Q 353 884 353 1716 
Q 353 2575 817 3079 
Q 1281 3584 2069 3584 
Q 2775 3584 3186 3129 
Q 3597 2675 3597 1894 
z
M 3022 2063 
Q 3016 2534 2758 2815 
Q 2500 3097 2075 3097 
Q 1594 3097 1305 2825 
Q 1016 2553 972 2059 
L 3022 2063 
z
" id="DejaVuSans-65" transform="scale(0.015625)"/>
       <path d="M 2631 2963 
Q 2534 3019 2420 3045 
Q 2306 3072 2169 3072 
Q 1681 3072 1420 2755 
Q 1159 2438 1159 1844 
L 1159 0 
L 581 0 
L 581 3500 
L 1159 3500 
L 1159 2956 
Q 1341 3275 1631 3429 
Q 1922 3584 2338 3584 
Q 2397 3584 2469 3576 
Q 2541 3569 2628 3553 
L 2631 2963 
z
" id="DejaVuSans-72" transform="scale(0.015625)"/>
       <path d="M 2194 1759 
Q 1497 1759 1228 1600 
Q 959 1441 959 1056 
Q 959 750 1161 570 
Q 1363 391 1709 391 
Q 2188 391 2477 730 
Q 2766 1069 2766 1631 
L 2766 1759 
L 2194 1759 
z
M 3341 1997 
L 3341 0 
L 2766 0 
L 2766 531 
Q 2569 213 2275 61 
Q 1981 -91 1556 -91 
Q 1019 -91 701 211 
Q 384 513 384 1019 
Q 384 1609 779 1909 
Q 1175 2209 1959 2209 
L 2766 2209 
L 2766 2266 
Q 2766 2663 2505 2880 
Q 2244 3097 1772 3097 
Q 1472 3097 1187 3025 
Q 903 2953 641 2809 
L 641 3341 
Q 956 3463 1253 3523 
Q 1550 3584 1831 3584 
Q 2591 3584 2966 3190 
Q 3341 2797 3341 1997 
z
" id="DejaVuSans-61" transform="scale(0.015625)"/>
       <path d="M 1959 3097 
Q 1497 3097 1228 2736 
Q 959 2375 959 1747 
Q 959 1119 1226 758 
Q 1494 397 1959 397 
Q 2419 397 2687 759 
Q 2956 1122 2956 1747 
Q 2956 2369 2687 2733 
Q 2419 3097 1959 3097 
z
M 1959 3584 
Q 2709 3584 3137 3096 
Q 3566 2609 3566 1747 
Q 3566 888 3137 398 
Q 2709 -91 1959 -91 
Q 1206 -91 779 398 
Q 353 888 353 1747 
Q 353 2609 779 3096 
Q 1206 3584 1959 3584 
z
" id="DejaVuSans-6f" transform="scale(0.015625)"/>
       <path d="M 3513 2113 
L 3513 0 
L 2938 0 
L 2938 2094 
Q 2938 2591 2744 2837 
Q 2550 3084 2163 3084 
Q 1697 3084 1428 2787 
Q 1159 2491 1159 1978 
L 1159 0 
L 581 0 
L 581 3500 
L 1159 3500 
L 1159 2956 
Q 1366 3272 1645 3428 
Q 1925 3584 2291 3584 
Q 2894 3584 3203 3211 
Q 3513 2838 3513 2113 
z
" id="DejaVuSans-6e" transform="scale(0.015625)"/>
      </defs>
      <use xlink:href="#DejaVuSans-69"/>
      <use x="27.783203" xlink:href="#DejaVuSans-74"/>
      <use x="66.992188" xlink:href="#DejaVuSans-65"/>
      <use x="128.515625" xlink:href="#DejaVuSans-72"/>
      <use x="169.628906" xlink:href="#DejaVuSans-61"/>
      <use x="230.908203" xlink:href="#DejaVuSans-74"/>
      <use x="270.117188" xlink:href="#DejaVuSans-69"/>
      <use x="297.900391" xlink:href="#DejaVuSans-6f"/>
      <use x="359.082031" xlink:href="#DejaVuSans-6e"/>
     </g>
    </g>
   </g>
   <g id="matplotlib.axis_2">
    <g id="ytick_1">
     <g id="line2d_10">
      <defs>
       <path d="M 0 0 
L -3.5 0 
" id="mf1578d9824" style="stroke:#ffffff;stroke-width:0.8;"/>
      </defs>
      <g>
       <use style="fill:#ffffff;stroke:#ffffff;stroke-width:0.8;" x="126" xlink:href="#mf1578d9824" y="484.232727"/>
      </g>
     </g>
     <g id="text_11">
      <!-- 0 -->
      <g style="fill:#ffffff;" transform="translate(112.6375 488.031946)scale(0.1 -0.1)">
       <use xlink:href="#DejaVuSans-30"/>
      </g>
     </g>
    </g>
    <g id="ytick_2">
     <g id="line2d_11">
      <g>
       <use style="fill:#ffffff;stroke:#ffffff;stroke-width:0.8;" x="126" xlink:href="#mf1578d9824" y="390.792535"/>
      </g>
     </g>
     <g id="text_12">
      <!-- 5000 -->
      <g style="fill:#ffffff;" transform="translate(93.55 394.591754)scale(0.1 -0.1)">
       <use xlink:href="#DejaVuSans-35"/>
       <use x="63.623047" xlink:href="#DejaVuSans-30"/>
       <use x="127.246094" xlink:href="#DejaVuSans-30"/>
       <use x="190.869141" xlink:href="#DejaVuSans-30"/>
      </g>
     </g>
    </g>
    <g id="ytick_3">
     <g id="line2d_12">
      <g>
       <use style="fill:#ffffff;stroke:#ffffff;stroke-width:0.8;" x="126" xlink:href="#mf1578d9824" y="297.352342"/>
      </g>
     </g>
     <g id="text_13">
      <!-- 10000 -->
      <g style="fill:#ffffff;" transform="translate(87.1875 301.151561)scale(0.1 -0.1)">
       <use xlink:href="#DejaVuSans-31"/>
       <use x="63.623047" xlink:href="#DejaVuSans-30"/>
       <use x="127.246094" xlink:href="#DejaVuSans-30"/>
       <use x="190.869141" xlink:href="#DejaVuSans-30"/>
       <use x="254.492188" xlink:href="#DejaVuSans-30"/>
      </g>
     </g>
    </g>
    <g id="ytick_4">
     <g id="line2d_13">
      <g>
       <use style="fill:#ffffff;stroke:#ffffff;stroke-width:0.8;" x="126" xlink:href="#mf1578d9824" y="203.91215"/>
      </g>
     </g>
     <g id="text_14">
      <!-- 15000 -->
      <g style="fill:#ffffff;" transform="translate(87.1875 207.711369)scale(0.1 -0.1)">
       <use xlink:href="#DejaVuSans-31"/>
       <use x="63.623047" xlink:href="#DejaVuSans-35"/>
       <use x="127.246094" xlink:href="#DejaVuSans-30"/>
       <use x="190.869141" xlink:href="#DejaVuSans-30"/>
       <use x="254.492188" xlink:href="#DejaVuSans-30"/>
      </g>
     </g>
    </g>
    <g id="ytick_5">
     <g id="line2d_14">
      <g>
       <use style="fill:#ffffff;stroke:#ffffff;stroke-width:0.8;" x="126" xlink:href="#mf1578d9824" y="110.471957"/>
      </g>
     </g>
     <g id="text_15">
      <!-- 20000 -->
      <g style="fill:#ffffff;" transform="translate(87.1875 114.271176)scale(0.1 -0.1)">
       <use xlink:href="#DejaVuSans-32"/>
       <use x="63.623047" xlink:href="#DejaVuSans-30"/>
       <use x="127.246094" xlink:href="#DejaVuSans-30"/>
       <use x="190.869141" xlink:href="#DejaVuSans-30"/>
       <use x="254.492188" xlink:href="#DejaVuSans-30"/>
      </g>
     </g>
    </g>
   </g>
   <g id="line2d_15">
    <path clip-path="url(#pea35e786bd)" d="M 161.509091 318.208193 
L 162.213986 282.233719 
L 162.918881 390.306646 
L 163.623776 390.306646 
L 163.976224 410.56448 
L 164.328671 368.123944 
L 164.681119 365.918756 
L 165.033566 379.019071 
L 165.386014 421.459606 
L 165.738462 377.430587 
L 166.090909 410.583168 
L 166.443357 379.617088 
L 166.795804 333.775329 
L 167.148252 383.261255 
L 167.500699 411.050369 
L 167.853147 395.632737 
L 168.205594 373.991988 
L 168.558042 394.642271 
L 168.91049 394.642271 
L 169.262937 391.820377 
L 169.615385 440.166333 
L 169.967832 407.013752 
L 170.32028 407.013752 
L 170.672727 419.086225 
L 171.025175 380.663618 
L 171.377622 402.808944 
L 171.73007 393.745245 
L 172.082517 398.398567 
L 172.434965 398.398567 
L 172.787413 356.462608 
L 173.492308 312.545718 
L 173.844755 299.445403 
L 174.197203 299.445403 
L 174.54965 373.375283 
L 174.902098 415.685002 
L 175.254545 369.843244 
L 175.606993 338.877164 
L 175.959441 335.139556 
L 176.311888 326.991571 
L 176.664336 341.063664 
L 177.369231 414.488968 
L 177.721678 414.488968 
L 178.074126 393.464924 
L 178.426573 403.649905 
L 178.779021 399.744105 
L 179.131469 412.84442 
L 179.483916 405.500021 
L 179.836364 406.266231 
L 180.188811 363.713567 
L 180.541259 426.524065 
L 180.893706 384.662858 
L 181.246154 384.662858 
L 181.598601 430.429865 
L 181.951049 387.989329 
L 182.303497 395.333728 
L 182.655944 369.506859 
L 183.360839 351.622406 
L 183.713287 377.916476 
L 184.065734 344.763896 
L 184.418182 367.11479 
L 184.770629 363.9752 
L 185.123077 354.575116 
L 185.475524 410.807424 
L 185.827972 426.299808 
L 186.18042 421.459606 
L 186.532867 412.022147 
L 186.885315 381.056067 
L 187.237762 396.342882 
L 187.59021 359.695639 
L 187.942657 370.235693 
L 188.295105 345.062905 
L 188.647552 338.204395 
L 189 335.064804 
L 189.352448 339.905006 
L 190.057343 388.568658 
L 190.40979 324.711631 
L 191.114685 405.630837 
L 191.467133 402.491247 
L 191.81958 406.397047 
L 192.172028 402.659439 
L 192.524476 395.31504 
L 192.876923 375.468343 
L 193.229371 366.853158 
L 193.581818 404.266611 
L 193.934266 393.726557 
L 194.286713 437.755576 
L 194.639161 413.068677 
L 195.344056 339.549933 
L 195.696503 382.102597 
L 196.048951 385.840205 
L 196.401399 410.527104 
L 196.753846 385.354316 
L 197.106294 394.26851 
L 197.458741 394.754399 
L 197.811189 405.294453 
L 198.163636 405.294453 
L 198.516084 383.653704 
L 198.868531 432.354733 
L 199.220979 430.018728 
L 199.573427 445.230791 
L 199.925874 430.09348 
L 200.278322 426.953889 
L 200.630769 380.607554 
L 200.983217 376.869946 
L 201.335664 401.781102 
L 201.688112 365.133858 
L 202.040559 401.781102 
L 202.393007 411.966083 
L 203.097902 367.451175 
L 203.802797 291.745931 
L 204.155245 341.381361 
L 204.507692 298.940826 
L 204.86014 298.940826 
L 205.212587 278.402671 
L 205.565035 299.576219 
L 205.917483 309.256623 
L 206.26993 358.835989 
L 206.622378 337.811946 
L 206.974825 381.803588 
L 207.327273 360.648729 
L 207.67972 404.677748 
L 208.032168 407.817338 
L 208.384615 418.357392 
L 208.737063 375.916856 
L 209.08951 394.959967 
L 209.441958 370.273069 
L 209.794406 353.752843 
L 210.146853 393.240668 
L 210.499301 390.101077 
L 210.851748 365.189922 
L 211.204196 381.710148 
L 211.556643 360.686105 
L 211.909091 381.710148 
L 212.261538 355.883279 
L 212.613986 313.330615 
L 212.966434 292.400012 
L 213.318881 293.072782 
L 214.023776 345.025529 
L 214.376224 341.287921 
L 214.728671 325.440464 
L 215.081119 281.411445 
L 215.433566 304.90231 
L 215.786014 300.062108 
L 216.138462 304.90231 
L 216.490909 279.729522 
L 216.843357 318.71277 
L 217.548252 273.786726 
L 217.900699 286.232959 
L 218.253147 309.723824 
L 218.605594 353.752843 
L 218.958042 345.137657 
L 219.31049 386.886735 
L 219.662937 378.271549 
L 220.015385 386.886735 
L 220.367832 362.199836 
L 220.72028 408.546171 
L 221.072727 375.393591 
L 221.777622 287.111297 
L 222.13007 318.002625 
L 222.482517 360.44316 
L 222.834965 335.532005 
L 223.187413 348.426752 
L 223.53986 352.612872 
L 223.892308 369.413419 
L 224.597203 293.315726 
L 224.94965 367.993128 
L 225.302098 331.345884 
L 225.654545 349.39853 
L 226.006993 306.845866 
L 226.359441 285.205117 
L 226.711888 330.972124 
L 227.064336 352.425992 
L 227.416783 334.373347 
L 227.769231 323.833293 
L 228.121678 283.710074 
L 228.826573 394.249822 
L 229.179021 369.338667 
L 229.531469 363.11555 
L 229.883916 366.572837 
L 230.236364 344.184567 
L 230.588811 370.273069 
L 230.941259 347.828734 
L 231.293706 424.767389 
L 231.646154 440.259773 
L 231.998601 447.604172 
L 232.703497 368.516393 
L 233.055944 342.689524 
L 233.760839 378.421053 
L 234.113287 385.130059 
L 234.465734 376.514873 
L 234.818182 376.514873 
L 235.170629 398.959208 
L 235.523077 398.959208 
L 235.875524 429.925288 
L 236.227972 429.925288 
L 236.58042 409.667454 
L 236.932867 429.925288 
L 237.285315 432.111788 
L 237.99021 390.157142 
L 238.342657 422.767769 
L 238.695105 422.767769 
L 239.047552 431.382955 
L 239.4 447.473356 
L 240.104895 405.668214 
L 240.457343 416.058763 
L 240.80979 422.879897 
L 241.162238 397.968742 
L 241.514685 389.50306 
L 241.867133 447.566796 
L 242.21958 438.95161 
L 242.572028 418.693776 
L 242.924476 423.776923 
L 243.276923 415.51681 
L 243.629371 412.377219 
L 243.981818 366.535461 
L 244.334266 365.769251 
L 245.039161 312.657846 
L 245.391608 279.505266 
L 246.096503 324.730319 
L 246.448951 379.766592 
L 246.801399 355.079693 
L 247.153846 378.178109 
L 247.506294 377.243707 
L 247.858741 350.781444 
L 248.211189 306.752426 
L 248.563636 306.752426 
L 248.916084 324.954575 
L 249.268531 300.04342 
L 249.620979 341.493489 
L 249.973427 318.002625 
L 250.325874 325.926353 
L 250.678322 316.264637 
L 251.030769 316.264637 
L 251.383217 279.617394 
L 251.735664 316.264637 
L 252.088112 305.724584 
L 252.440559 388.400466 
L 253.145455 353.266954 
L 253.497902 381.560644 
L 253.85035 452.089301 
L 254.202797 426.916513 
L 254.555245 426.916513 
L 255.26014 394.17507 
L 255.612587 379.224639 
L 255.965035 376.085049 
L 256.317483 332.05603 
L 256.66993 325.832913 
L 257.022378 301.146014 
L 257.374825 351.454214 
L 257.727273 347.716606 
L 258.07972 305.163942 
L 258.784615 388.101457 
L 259.137063 384.36385 
L 259.841958 295.969427 
L 260.546853 295.969427 
L 260.899301 314.377145 
L 261.251748 303.837092 
L 261.604196 320.600262 
L 262.309091 327.47746 
L 262.661538 349.828354 
L 263.013986 338.372587 
L 263.366434 313.685688 
L 263.718881 356.238352 
L 264.071329 340.745968 
L 264.423776 333.270752 
L 264.776224 333.270752 
L 265.481119 389.465684 
L 265.833566 420.431764 
L 266.890909 363.134238 
L 267.243357 373.468723 
L 267.595804 340.316143 
L 267.948252 373.468723 
L 268.300699 361.713947 
L 268.653147 376.010296 
L 269.005594 384.625482 
L 269.358042 366.946598 
L 269.71049 321.067463 
L 270.415385 321.067463 
L 270.767832 394.586207 
L 271.12028 371.095342 
L 271.472727 330.673115 
L 271.825175 340.858096 
L 272.177622 330.673115 
L 272.53007 330.673115 
L 272.882517 352.126983 
L 273.234965 331.869149 
L 273.93986 281.355381 
L 274.644755 411.685762 
L 275.34965 366.516773 
L 275.702098 362.012956 
L 276.054545 382.270789 
L 276.406993 356.44392 
L 277.111888 402.659439 
L 277.464336 407.256697 
L 277.816783 350.987013 
L 278.169231 342.371827 
L 278.874126 363.30243 
L 279.226573 330.14985 
L 279.579021 330.14985 
L 279.931469 401.089644 
L 280.283916 399.519849 
L 280.636364 420.450452 
L 280.988811 414.115207 
L 281.341259 392.474458 
L 281.693706 395.913057 
L 282.046154 363.171614 
L 282.398601 371.076654 
L 282.751049 416.918413 
L 283.103497 385.952333 
L 283.455944 344.091127 
L 284.160839 320.600262 
L 284.513287 328.841687 
L 284.865734 328.841687 
L 285.218182 330.224602 
L 285.570629 368.647209 
L 285.923077 377.262395 
L 286.275524 358.219284 
L 286.98042 377.262395 
L 287.332867 384.606794 
L 288.037762 344.63308 
L 288.39021 351.790599 
L 289.095105 422.543512 
L 289.447552 379.990849 
L 289.8 361.938203 
L 290.152448 376.085049 
L 290.504895 372.347441 
L 290.857343 382.681926 
L 291.20979 386.419534 
L 291.562238 353.266954 
L 292.267133 272.590691 
L 292.61958 287.597186 
L 292.972028 362.106396 
L 293.324476 376.402745 
L 293.676923 403.107952 
L 294.029371 403.107952 
L 294.381818 381.953093 
L 294.734266 350.987013 
L 295.086713 336.690663 
L 295.439161 305.18263 
L 295.791608 321.702857 
L 296.144056 277.673838 
L 296.496503 256.649794 
L 296.848951 252.912187 
L 297.201399 247.268399 
L 297.553846 269.544541 
L 297.906294 244.371753 
L 298.258741 277.524333 
L 298.611189 252.818747 
L 298.963636 282.532728 
L 299.668531 409.723518 
L 300.020979 418.918033 
L 300.373427 376.982074 
L 300.725874 351.809287 
L 301.078322 396.996964 
L 301.430769 396.996964 
L 301.783217 373.487411 
L 302.135664 382.794054 
L 302.488112 353.547274 
L 302.840559 378.234173 
L 303.193007 375.094583 
L 303.545455 349.921795 
L 303.897902 345.081593 
L 304.25035 302.641057 
L 304.602797 299.501467 
L 304.955245 405.257077 
L 305.66014 360.835609 
L 306.012587 381.766212 
L 306.365035 372.571697 
L 307.06993 284.177275 
L 307.774825 284.177275 
L 308.127273 345.49273 
L 308.47972 370.179628 
L 308.832168 352.126983 
L 309.184615 357.079313 
L 309.537063 372.06712 
L 309.88951 379.411519 
L 310.241958 346.258939 
L 310.594406 345.604858 
L 310.946853 339.475181 
L 311.299301 393.22198 
L 311.651748 398.566759 
L 312.004196 400.491627 
L 312.356643 401.145708 
L 312.709091 367.993128 
L 313.061538 376.608314 
L 313.413986 339.96107 
L 313.766434 319.703236 
L 314.118881 410.807424 
L 314.471329 397.707109 
L 314.823776 407.742586 
L 315.176224 428.00042 
L 315.528671 403.089264 
L 315.881119 395.595361 
L 316.233566 420.506516 
L 316.586014 378.065981 
L 316.938462 360.013335 
L 317.290909 360.013335 
L 317.643357 365.451555 
L 317.995804 359.30319 
L 318.348252 359.30319 
L 318.700699 357.453074 
L 319.053147 382.625862 
L 319.405594 367.133478 
L 320.11049 396.772707 
L 320.462937 389.428308 
L 320.815385 439.213243 
L 321.167832 444.969159 
L 321.52028 444.969159 
L 321.872727 408.321915 
L 322.225175 427.850915 
L 322.577622 407.593082 
L 322.93007 361.751323 
L 323.282517 398.977896 
L 323.634965 411.087745 
L 323.987413 415.180425 
L 324.33986 393.539677 
L 324.692308 415.180425 
L 325.044755 372.73989 
L 325.397203 305.76196 
L 325.74965 351.603718 
L 326.102098 369.656363 
L 326.454545 369.656363 
L 326.806993 388.213586 
L 327.159441 364.610593 
L 327.511888 323.609036 
L 327.864336 342.278387 
L 328.216783 341.362673 
L 328.569231 341.362673 
L 328.921678 337.625065 
L 329.274126 321.104839 
L 329.626573 341.362673 
L 329.979021 341.362673 
L 330.331469 330.822619 
L 330.683916 344.932088 
L 331.036364 370.758958 
L 331.388811 360.573977 
L 331.741259 339.923694 
L 332.093706 358.966805 
L 332.446154 339.923694 
L 332.798601 313.125047 
L 333.151049 270.572383 
L 333.503497 274.309991 
L 333.855944 266.965592 
L 334.208392 309.069742 
L 334.560839 304.659365 
L 334.913287 308.396973 
L 335.265734 304.659365 
L 335.618182 286.176895 
L 335.970629 293.054093 
L 336.323077 309.144495 
L 336.675524 305.8554 
L 337.38042 233.383187 
L 337.732867 294.754705 
L 338.085315 316.189885 
L 338.437762 273.74935 
L 338.79021 270.609759 
L 339.142657 311.555252 
L 339.495105 307.032746 
L 339.847552 307.032746 
L 340.2 349.473282 
L 340.552448 353.846283 
L 340.904895 379.336767 
L 341.60979 379.336767 
L 341.962238 382.73799 
L 342.314685 417.42299 
L 342.667133 421.945495 
L 343.01958 421.945495 
L 343.372028 377.916476 
L 343.724476 423.683483 
L 344.076923 390.530902 
L 344.781818 347.959551 
L 345.134266 302.117792 
L 345.486713 281.859958 
L 346.191608 341.605618 
L 346.544056 322.562506 
L 346.896503 361.620507 
L 347.248951 319.179971 
L 347.601399 316.040381 
L 347.953846 325.347024 
L 348.306294 316.956095 
L 348.658741 337.886698 
L 349.011189 318.843587 
L 349.363636 321.983177 
L 349.716084 321.983177 
L 350.068531 364.423713 
L 350.420979 321.983177 
L 350.773427 318.843587 
L 351.125874 332.411103 
L 351.478322 353.416458 
L 351.830769 408.639612 
L 352.183217 408.639612 
L 352.535664 383.952713 
L 352.888112 341.512177 
L 353.240559 345.417977 
L 353.593007 332.317662 
L 353.945455 346.838268 
L 354.297902 321.927113 
L 354.65035 305.519015 
L 355.355245 236.20508 
L 355.707692 260.891979 
L 356.06014 360.891673 
L 356.412587 428.37418 
L 356.765035 392.792155 
L 357.117483 416.283019 
L 357.46993 419.42261 
L 357.822378 414.582408 
L 358.174825 415.572874 
L 358.527273 403.89285 
L 359.232168 356.798993 
L 359.584615 382.308165 
L 360.28951 291.932811 
L 360.641958 290.736777 
L 360.994406 257.584196 
L 361.346853 383.223879 
L 361.699301 404.247923 
L 362.051748 395.632737 
L 362.404196 415.927947 
L 362.756643 403.201392 
L 363.109091 428.785317 
L 363.461538 433.307823 
L 364.166434 359.789079 
L 364.518881 402.341743 
L 364.871329 414.264711 
L 365.223776 382.45767 
L 365.576224 402.715503 
L 365.928671 362.592285 
L 366.281119 371.095342 
L 366.633566 396.922212 
L 366.986014 381.429828 
L 367.338462 337.400809 
L 367.690909 358.480916 
L 368.395804 311.929012 
L 368.748252 346.352379 
L 369.100699 315.3863 
L 369.453147 346.352379 
L 369.805594 325.328336 
L 370.158042 325.328336 
L 370.51049 427.645347 
L 370.862937 446.688458 
L 371.567832 375.59916 
L 371.92028 381.392452 
L 372.272727 406.565239 
L 372.625175 383.074375 
L 372.977622 349.921795 
L 373.33007 383.074375 
L 373.682517 374.421813 
L 374.034965 380.55149 
L 374.387413 399.594601 
L 374.73986 395.072096 
L 375.092308 392.250202 
L 375.444755 413.330309 
L 375.797203 410.190719 
L 376.14965 389.932885 
L 376.502098 356.780305 
L 376.854545 389.932885 
L 377.559441 432.466861 
L 378.616783 376.178489 
L 378.969231 432.709805 
L 379.321678 343.362293 
L 379.674126 322.282186 
L 380.026573 397.277284 
L 380.731469 380.73837 
L 381.083916 388.082769 
L 381.436364 364.591905 
L 381.788811 322.151369 
L 382.493706 294.32488 
L 382.846154 294.32488 
L 383.198601 257.677637 
L 383.551049 317.38592 
L 383.903497 317.38592 
L 384.255944 296.455316 
L 384.608392 347.212029 
L 385.313287 305.930152 
L 385.665734 318.61933 
L 386.018182 380.663618 
L 386.370629 305.612455 
L 386.723077 341.213169 
L 387.075524 304.565925 
L 387.427972 338.652907 
L 387.78042 296.829077 
L 388.132867 342.259699 
L 388.485315 339.120108 
L 388.837762 396.398946 
L 389.19021 413.330309 
L 389.542657 417.759374 
L 389.895105 429.028262 
L 390.247552 262.069326 
L 390.6 340.540399 
L 391.304895 394.530143 
L 391.657343 394.530143 
L 392.00979 404.715124 
L 392.362238 378.888254 
L 392.714685 336.335591 
L 393.067133 380.364609 
L 393.772028 293.895055 
L 394.124476 303.201698 
L 394.476923 347.230717 
L 394.829371 325.589969 
L 395.181818 321.852361 
L 395.534266 343.493109 
L 395.886713 389.783381 
L 396.239161 365.096482 
L 396.591608 389.783381 
L 396.944056 353.136137 
L 397.296503 335.083492 
L 397.648951 328.224982 
L 398.001399 364.872225 
L 398.353846 360.966425 
L 398.706294 360.966425 
L 399.058741 438.278841 
L 399.763636 380.439362 
L 400.116084 392.119386 
L 400.468531 439.99814 
L 400.820979 434.298289 
L 401.173427 423.384474 
L 401.525874 440.932542 
L 401.878322 440.932542 
L 402.583217 383.653704 
L 402.935664 373.11365 
L 403.640559 422.711705 
L 403.993007 427.23421 
L 404.345455 411.741826 
L 404.697902 390.101077 
L 405.05035 400.753259 
L 405.402797 443.305923 
L 405.755245 427.813539 
L 406.107692 395.072096 
L 406.46014 377.019451 
L 406.812587 413.666694 
L 407.165035 369.637675 
L 407.517483 350.987013 
L 407.86993 356.294416 
L 408.222378 358.854677 
L 408.574825 358.854677 
L 408.927273 323.272652 
L 409.27972 330.14985 
L 409.632168 365.731875 
L 409.984615 345.474042 
L 410.337063 389.50306 
L 410.68951 399.688041 
L 411.041958 392.343642 
L 411.394406 412.956549 
L 411.746853 417.834127 
L 412.099301 381.186883 
L 412.451748 374.851638 
L 412.804196 378.589246 
L 413.156643 378.589246 
L 413.509091 395.109472 
L 413.861538 370.198316 
L 414.213986 391.839065 
L 414.566434 351.715846 
L 414.918881 327.028948 
L 415.271329 332.467167 
L 415.623776 332.467167 
L 415.976224 372.590385 
L 416.328671 330.14985 
L 416.681119 304.322981 
L 417.033566 340.970224 
L 417.386014 352.556808 
L 417.738462 394.997344 
L 418.090909 394.997344 
L 418.443357 391.857753 
L 418.795804 394.997344 
L 419.148252 392.025945 
L 419.500699 401.332589 
L 420.205594 401.426029 
L 420.91049 320.376006 
L 421.262937 375.412279 
L 421.615385 329.570521 
L 421.967832 324.449998 
L 422.32028 278.103663 
L 423.025175 232.149776 
L 423.377622 232.149776 
L 424.082517 282.009463 
L 424.434965 237.980444 
L 424.787413 214.48958 
L 425.13986 239.400735 
L 425.492308 281.953399 
L 425.844755 260.49953 
L 426.197203 283.990395 
L 426.54965 275.375209 
L 426.902098 311.779508 
L 427.254545 290.755465 
L 427.606993 248.314929 
L 427.959441 283.205497 
L 428.311888 283.205497 
L 428.664336 358.892053 
L 429.016783 368.011816 
L 429.369231 464.685039 
L 429.721678 446.632394 
L 430.074126 346.258939 
L 430.426573 367.899688 
L 430.779021 350.220803 
L 431.131469 353.958411 
L 431.483916 309.929392 
L 432.188811 361.20937 
L 432.541259 360.218904 
L 432.893706 382.401606 
L 433.246154 361.471002 
L 433.598601 315.124667 
L 433.951049 315.124667 
L 434.303497 336.05527 
L 434.655944 340.63384 
L 435.008392 303.986596 
L 435.360839 283.055993 
L 435.713287 332.523231 
L 436.065734 286.681472 
L 436.418182 332.523231 
L 436.770629 326.991571 
L 437.123077 323.253964 
L 437.475524 279.224945 
L 437.827972 279.224945 
L 438.18042 431.401643 
L 438.885315 389.746005 
L 439.237762 432.242604 
L 439.59021 423.627419 
L 439.942657 421.908119 
L 440.295105 421.908119 
L 440.647552 400.26737 
L 441 421.908119 
L 441.352448 400.977516 
L 442.057343 400.977516 
L 442.40979 405.500021 
L 442.762238 384.475978 
L 443.114685 347.828734 
L 443.467133 355.322638 
L 443.81958 355.322638 
L 444.172028 373.805108 
L 444.524476 383.990089 
L 444.876923 380.850498 
L 445.229371 365.358114 
L 445.581818 386.382158 
L 445.934266 340.035822 
L 446.286713 315.124667 
L 446.639161 304.584613 
L 446.991608 346.034683 
L 447.344056 302.005664 
L 447.696503 285.279869 
L 448.401399 264.498771 
L 448.753846 262.686031 
L 449.458741 381.859652 
L 449.811189 378.720062 
L 450.163636 368.180008 
L 451.220979 368.180008 
L 451.573427 378.720062 
L 451.925874 362.573597 
L 452.278322 402.696815 
L 452.630769 405.836406 
L 452.983217 390.699095 
L 453.335664 387.466064 
L 453.688112 408.770428 
L 454.040559 400.192618 
L 454.393007 384.700234 
L 454.745455 397.800549 
L 455.097902 366.83447 
L 455.45035 324.281806 
L 455.802797 320.992711 
L 456.155245 361.20937 
L 456.507692 318.768834 
L 456.86014 331.869149 
L 457.212587 308.378285 
L 457.565035 302.323361 
L 458.26993 346.838268 
L 458.974825 277.038444 
L 459.327273 277.038444 
L 459.67972 294.156688 
L 460.032168 294.156688 
L 460.384615 269.282908 
L 460.737063 222.936573 
L 461.08951 256.874051 
L 461.441958 261.396556 
L 461.794406 282.327159 
L 462.146853 257.416004 
L 462.499301 214.86334 
L 463.204196 284.663164 
L 463.556643 263.022416 
L 464.261538 271.637601 
L 464.613986 266.797399 
L 464.966434 309.237935 
L 465.318881 382.924871 
L 465.671329 340.372207 
L 466.023776 369.488171 
L 466.376224 439.381435 
L 466.728671 439.381435 
L 467.081119 443.829188 
L 467.433566 433.289134 
L 467.786014 433.289134 
L 468.490909 386.232654 
L 468.843357 361.545755 
L 469.195804 354.575116 
L 469.548252 371.917616 
L 469.900699 372.852018 
L 470.253147 395.614049 
L 470.605594 391.876441 
L 470.958042 402.416495 
L 471.662937 359.994647 
L 472.015385 317.554112 
L 472.367832 321.29172 
L 472.72028 342.072819 
L 473.072727 342.072819 
L 473.425175 351.099141 
L 473.777622 374.590006 
L 474.13007 353.659402 
L 474.482517 418.338704 
L 474.834965 396.697955 
L 475.187413 412.283779 
L 475.53986 412.283779 
L 475.892308 391.259736 
L 476.597203 315.255483 
L 476.94965 313.274551 
L 477.302098 270.721887 
L 477.654545 288.550276 
L 478.006993 270.497631 
L 478.359441 316.264637 
L 478.711888 290.437768 
L 479.064336 290.437768 
L 479.416783 297.27759 
L 479.769231 339.830254 
L 480.121678 319.890117 
L 480.474126 316.152509 
L 480.826573 357.079313 
L 481.179021 336.092646 
L 481.531469 290.250888 
L 481.883916 269.320285 
L 482.236364 273.057892 
L 482.941259 357.527826 
L 483.293706 364.25552 
L 483.646154 385.130059 
L 483.998601 425.253278 
L 484.351049 408.733052 
L 484.703497 377.766972 
L 485.055944 386.382158 
L 486.113287 317.441984 
L 486.465734 342.353139 
L 486.818182 342.353139 
L 487.170629 386.382158 
L 487.523077 382.64455 
L 487.875524 372.104496 
L 488.227972 368.964906 
L 488.58042 348.034303 
L 488.932867 358.574357 
L 489.285315 379.50496 
L 489.637762 342.857716 
L 490.342657 307.556011 
L 490.695105 306.397353 
L 491.047552 318.320322 
L 491.4 318.320322 
L 491.752448 364.16208 
L 492.104895 372.721202 
L 492.457343 336.073958 
L 492.80979 329.477081 
L 493.162238 392.829531 
L 493.514685 393.745245 
L 493.867133 347.903487 
L 494.572028 436.391349 
L 495.276923 430.411177 
L 495.629371 399.482473 
L 495.981818 418.338704 
L 496.334266 428.523685 
L 496.686713 432.429485 
L 497.391608 345.959931 
L 497.744056 324.935887 
L 498.096503 316.956095 
L 498.801399 361.471002 
L 499.153846 342.427891 
L 499.506294 345.567482 
L 499.858741 322.076617 
L 500.211189 341.942002 
L 500.563636 375.094583 
L 500.916084 331.065564 
L 501.268531 375.094583 
L 501.620979 371.954992 
L 502.325874 329.2902 
L 502.678322 385.709388 
L 503.030769 401.014892 
L 503.383217 354.668556 
L 504.088112 354.761997 
L 504.793007 392.848219 
L 505.145455 369.357355 
L 505.497902 356.25704 
L 505.85035 359.994647 
L 506.202797 359.994647 
L 506.555245 360.704793 
L 506.907692 356.967185 
L 507.26014 381.747524 
L 507.612587 428.09386 
L 507.965035 417.908879 
L 508.317483 397.651045 
L 508.66993 403.182704 
L 509.022378 378.009917 
L 509.374825 388.400466 
L 509.727273 392.138074 
L 510.432168 321.273032 
L 510.784615 354.425612 
L 511.137063 321.273032 
L 511.48951 344.763896 
L 511.841958 300.734877 
L 512.194406 279.281009 
L 512.546853 291.241354 
L 513.251748 303.295139 
L 513.604196 309.107119 
L 513.956643 342.259699 
L 514.661538 380.308545 
L 515.013986 370.123564 
L 515.366434 370.123564 
L 515.718881 367.656743 
L 516.071329 385.335628 
L 516.776224 327.496148 
L 517.128671 305.8554 
L 517.481119 308.99499 
L 517.833566 266.554455 
L 518.186014 293.353102 
L 518.538462 293.353102 
L 518.890909 250.912567 
L 519.243357 291.203978 
L 519.595804 297.987736 
L 520.300699 357.864211 
L 520.653147 357.864211 
L 521.358042 333.177312 
L 521.71049 289.148293 
L 522.062937 294.792081 
L 522.415385 294.792081 
L 522.767832 315.722684 
L 523.12028 315.722684 
L 523.472727 269.880926 
L 523.825175 328.785623 
L 524.53007 321.908425 
L 524.882517 368.25476 
L 525.234965 366.049572 
L 525.93986 296.249748 
L 526.292308 299.389339 
L 526.644755 324.020173 
L 526.997203 322.207434 
L 527.34965 337.699817 
L 527.702098 316.675774 
L 528.054545 347.641854 
L 528.406993 331.121628 
L 528.759441 331.121628 
L 529.111888 288.681092 
L 529.464336 297.856919 
L 529.816783 284.756604 
L 530.169231 292.101004 
L 530.521678 249.54834 
L 530.874126 245.399595 
L 531.226573 270.572383 
L 531.579021 252.519738 
L 531.931469 252.519738 
L 532.283916 293.764239 
L 532.636364 278.271855 
L 532.988811 320.71239 
L 533.341259 320.71239 
L 533.693706 339.381741 
L 534.046154 308.415661 
L 534.398601 335.289061 
L 534.751049 335.289061 
L 535.103497 369.749804 
L 535.455944 369.749804 
L 535.808392 334.093026 
L 536.513287 334.093026 
L 536.865734 336.522471 
L 537.218182 336.522471 
L 537.570629 324.935887 
L 537.923077 352.725 
L 538.275524 348.8192 
L 538.627972 369.600299 
L 538.98042 369.600299 
L 539.332867 372.440881 
L 539.685315 372.440881 
L 540.037762 390.493526 
L 540.39021 390.493526 
L 541.095105 349.996547 
L 541.447552 349.996547 
L 541.8 328.355798 
L 542.152448 372.384817 
L 542.857343 372.384817 
L 543.20979 407.98553 
L 543.914685 327.309268 
L 544.267133 319.161283 
L 544.61958 319.161283 
L 544.972028 309.480879 
L 545.324476 306.341289 
L 545.676923 306.341289 
L 546.029371 331.514077 
L 546.381818 310.583474 
L 546.734266 268.03081 
L 547.791608 268.03081 
L 548.144056 264.293202 
L 548.848951 303.276451 
L 549.201399 281.187189 
L 549.553846 342.521331 
L 549.906294 300.080796 
L 550.258741 342.521331 
L 550.963636 342.521331 
L 551.316084 338.783724 
L 551.668531 296.174996 
L 552.020979 300.884382 
L 552.725874 300.884382 
L 553.078322 293.558671 
L 553.430769 294.138 
L 553.783217 318.675394 
L 554.135664 354.25742 
L 554.488112 329.364952 
L 554.840559 366.049572 
L 555.193007 354.593804 
L 555.545455 317.946561 
L 556.25035 389.166676 
L 556.602797 428.95351 
L 556.955245 383.111751 
L 557.307692 386.400846 
L 557.66014 402.696815 
L 558.012587 410.041215 
L 558.365035 367.600679 
L 558.717483 342.427891 
L 559.06993 342.427891 
L 559.422378 355.266574 
L 559.774825 363.881759 
L 560.127273 343.287541 
L 560.832168 343.287541 
L 561.537063 297.670039 
L 561.88951 289.204358 
L 562.241958 324.263118 
L 562.594406 332.093406 
L 563.299301 331.999966 
L 563.651748 307.08881 
L 564.709091 307.08881 
L 565.061538 314.227641 
L 565.413986 314.227641 
L 565.766434 339.138796 
L 566.118881 320.095685 
L 566.471329 276.066666 
L 566.823776 357.58389 
L 567.176224 345.660922 
L 567.528671 324.730319 
L 568.233566 324.730319 
L 568.586014 332.878304 
L 568.938462 329.738713 
L 569.995804 329.738713 
L 570.348252 315.442364 
L 570.700699 330.91606 
L 571.053147 321.590728 
L 571.405594 324.730319 
L 571.758042 324.730319 
L 572.11049 320.974023 
L 572.462937 345.660922 
L 572.815385 386.905423 
L 573.167832 381.242947 
L 573.52028 360.312344 
L 573.872727 391.278424 
L 574.225175 380.73837 
L 574.577622 382.663238 
L 574.93007 382.663238 
L 575.282517 378.92563 
L 575.634965 373.393971 
L 575.987413 410.882176 
L 576.33986 431.812779 
L 576.692308 400.8467 
L 577.044755 404.191859 
L 577.397203 361.639195 
L 577.74965 358.499604 
L 578.102098 371.712048 
L 578.454545 338.559467 
L 578.806993 318.301634 
L 579.159441 382.382918 
L 579.864336 426.580129 
L 580.216783 426.580129 
L 580.569231 393.427548 
L 580.921678 426.580129 
L 581.626573 426.580129 
L 582.331469 402.734192 
L 582.683916 360.293656 
L 583.036364 364.741409 
L 583.388811 400.024426 
L 583.741259 396.884835 
L 584.093706 376.627002 
L 584.446154 376.627002 
L 584.798601 422.207128 
L 585.151049 404.602995 
L 585.503497 362.16246 
L 585.855944 265.620053 
L 586.208392 292.848525 
L 586.560839 292.848525 
L 586.913287 250.40799 
L 588.323077 250.40799 
L 588.675524 271.84317 
L 589.027972 271.84317 
L 589.38042 275.580777 
L 590.437762 275.580777 
L 590.79021 265.040724 
L 591.847552 265.040724 
L 592.2 219.198965 
L 592.904895 219.198965 
L 593.257343 282.663544 
L 593.60979 258.350406 
L 593.962238 254.612798 
L 595.01958 254.612798 
L 595.372028 237.326363 
L 597.134266 237.326363 
L 597.486713 237.550619 
L 597.839161 237.550619 
L 598.191608 234.411029 
L 598.544056 237.550619 
L 599.601399 237.550619 
L 599.953846 221.927419 
L 600.306294 179.486883 
L 601.363636 179.486883 
L 601.716084 186.289329 
L 605.945455 186.289329 
L 606.297902 159.060857 
L 607.355245 159.060857 
L 607.707692 181.673384 
L 610.87972 181.673384 
L 611.232168 163.807619 
L 612.28951 163.807619 
L 612.641958 209.574625 
L 612.994406 209.574625 
L 613.346853 196.47431 
L 614.756643 196.47431 
L 615.109091 175.450267 
L 615.461538 175.450267 
L 615.813986 171.563155 
L 616.871329 171.563155 
L 617.223776 151.305321 
L 620.748252 151.305321 
L 621.100699 164.405636 
L 621.453147 164.405636 
L 621.805594 161.266046 
L 622.158042 140.335443 
L 623.92028 140.335443 
L 624.272727 107.182862 
L 624.625175 110.322453 
L 624.977622 110.322453 
L 625.33007 131.253056 
L 626.387413 131.253056 
L 626.73986 110.229013 
L 630.264336 110.229013 
L 630.616783 99.838463 
L 632.731469 99.838463 
L 633.083916 101.258754 
L 639.075524 101.258754 
L 639.427972 99.427326 
L 641.19021 99.427326 
L 641.542657 88.887273 
L 646.124476 88.887273 
L 646.476923 92.475376 
L 792.742657 92.475376 
L 793.095105 88.887273 
L 871.690909 88.887273 
L 871.690909 88.887273 
" style="fill:none;stroke:#8dd3c7;stroke-linecap:square;stroke-width:1.5;"/>
   </g>
   <g id="line2d_16">
    <path clip-path="url(#pea35e786bd)" d="M 161.509091 318.208193 
L 162.213986 282.233719 
L 204.86014 282.233719 
L 205.212587 278.402671 
L 217.195804 278.402671 
L 217.548252 273.786726 
L 291.914685 273.786726 
L 292.267133 272.590691 
L 296.144056 272.590691 
L 296.496503 256.649794 
L 296.848951 252.912187 
L 297.201399 247.268399 
L 297.553846 247.268399 
L 297.906294 244.371753 
L 337.027972 244.371753 
L 337.38042 233.383187 
L 422.672727 233.383187 
L 423.025175 232.149776 
L 424.434965 232.149776 
L 424.787413 214.48958 
L 599.953846 214.48958 
L 600.306294 179.486883 
L 605.945455 179.486883 
L 606.297902 159.060857 
L 616.871329 159.060857 
L 617.223776 151.305321 
L 621.805594 151.305321 
L 622.158042 140.335443 
L 623.92028 140.335443 
L 624.272727 107.182862 
L 630.264336 107.182862 
L 630.616783 99.838463 
L 639.075524 99.838463 
L 639.427972 99.427326 
L 641.19021 99.427326 
L 641.542657 88.887273 
L 871.690909 88.887273 
L 871.690909 88.887273 
" style="fill:none;stroke:#feffb3;stroke-linecap:square;stroke-width:1.5;"/>
   </g>
   <g id="line2d_17">
    <path clip-path="url(#pea35e786bd)" d="M 161.509091 368.015554 
L 163.976224 368.015554 
L 164.328671 376.993947 
L 166.795804 376.993947 
L 167.148252 385.278712 
L 169.615385 385.278712 
L 169.967832 392.923434 
L 172.434965 392.923434 
L 172.787413 399.977562 
L 175.254545 399.977562 
L 175.606993 406.48672 
L 178.074126 406.48672 
L 178.426573 412.493012 
L 180.893706 412.493012 
L 181.246154 418.035285 
L 183.713287 418.035285 
L 184.065734 423.149389 
L 186.532867 423.149389 
L 186.885315 427.868401 
L 189.352448 427.868401 
L 189.704895 432.222844 
L 192.172028 432.222844 
L 192.524476 436.240884 
L 194.991608 436.240884 
L 195.344056 439.948508 
L 197.811189 439.948508 
L 198.163636 443.369699 
L 200.630769 443.369699 
L 200.983217 446.526585 
L 203.45035 446.526585 
L 203.802797 449.439584 
L 206.26993 449.439584 
L 206.622378 452.127539 
L 209.08951 452.127539 
L 209.441958 454.607835 
L 211.909091 454.607835 
L 212.261538 456.896516 
L 214.728671 456.896516 
L 215.081119 459.008383 
L 217.548252 459.008383 
L 217.900699 460.957097 
L 220.367832 460.957097 
L 220.72028 462.755263 
L 223.187413 462.755263 
L 223.53986 464.414511 
L 226.006993 464.414511 
L 226.359441 465.945574 
L 228.826573 465.945574 
L 229.179021 467.358353 
L 231.646154 467.358353 
L 231.998601 468.661988 
L 234.465734 468.661988 
L 234.818182 469.864911 
L 237.285315 469.864911 
L 237.637762 470.974901 
L 240.104895 470.974901 
L 240.457343 471.999138 
L 242.924476 471.999138 
L 243.276923 472.944248 
L 245.744056 472.944248 
L 246.096503 473.816343 
L 248.563636 473.816343 
L 248.916084 474.621064 
L 251.383217 474.621064 
L 251.735664 475.363616 
L 254.202797 475.363616 
L 254.555245 476.048802 
L 257.022378 476.048802 
L 257.374825 476.681053 
L 259.841958 476.681053 
L 260.194406 477.26446 
L 262.661538 477.26446 
L 263.013986 477.802796 
L 265.481119 477.802796 
L 265.833566 478.299542 
L 268.300699 478.299542 
L 268.653147 478.757912 
L 271.12028 478.757912 
L 271.472727 479.180871 
L 273.93986 479.180871 
L 274.292308 479.571153 
L 276.759441 479.571153 
L 277.111888 479.931285 
L 279.579021 479.931285 
L 279.931469 480.263594 
L 282.398601 480.263594 
L 282.751049 480.570231 
L 285.218182 480.570231 
L 285.570629 480.853178 
L 288.037762 480.853178 
L 288.39021 481.114266 
L 290.857343 481.114266 
L 291.20979 481.355184 
L 293.676923 481.355184 
L 294.029371 481.577489 
L 296.496503 481.577489 
L 296.848951 481.782621 
L 299.316084 481.782621 
L 299.668531 481.971904 
L 302.135664 481.971904 
L 302.488112 482.146565 
L 304.955245 482.146565 
L 305.307692 482.307732 
L 307.774825 482.307732 
L 308.127273 482.456448 
L 310.594406 482.456448 
L 310.946853 482.593675 
L 313.413986 482.593675 
L 313.766434 482.720301 
L 316.233566 482.720301 
L 316.938462 482.837144 
L 321.872727 482.94496 
L 322.577622 483.044447 
L 327.511888 483.136248 
L 328.216783 483.220957 
L 333.151049 483.299121 
L 333.855944 483.371247 
L 338.79021 483.437801 
L 339.495105 483.499214 
L 347.248951 483.608171 
L 348.306294 483.656422 
L 355.707692 483.742027 
L 356.765035 483.779937 
L 366.986014 483.87698 
L 368.748252 483.904463 
L 383.903497 484.013128 
L 386.370629 484.030093 
L 412.099301 484.134452 
L 418.090909 484.155514 
L 871.690909 484.232727 
L 871.690909 484.232727 
" style="fill:none;stroke:#bfbbd9;stroke-linecap:square;stroke-width:1.5;"/>
   </g>
   <g id="patch_3">
    <path d="M 126 504 
L 126 69.12 
" style="fill:none;stroke:#ffffff;stroke-linecap:square;stroke-linejoin:miter;stroke-width:0.8;"/>
   </g>
   <g id="patch_4">
    <path d="M 907.2 504 
L 907.2 69.12 
" style="fill:none;stroke:#ffffff;stroke-linecap:square;stroke-linejoin:miter;stroke-width:0.8;"/>
   </g>
   <g id="patch_5">
    <path d="M 126 504 
L 907.2 504 
" style="fill:none;stroke:#ffffff;stroke-linecap:square;stroke-linejoin:miter;stroke-width:0.8;"/>
   </g>
   <g id="patch_6">
    <path d="M 126 69.12 
L 907.2 69.12 
" style="fill:none;stroke:#ffffff;stroke-linecap:square;stroke-linejoin:miter;stroke-width:0.8;"/>
   </g>
   <g id="text_16">
    <!-- instance 5 with error 0.015405380247603073 -->
    <g style="fill:#ffffff;" transform="translate(378.046875 63.12)scale(0.12 -0.12)">
     <defs>
      <path d="M 2834 3397 
L 2834 2853 
Q 2591 2978 2328 3040 
Q 2066 3103 1784 3103 
Q 1356 3103 1142 2972 
Q 928 2841 928 2578 
Q 928 2378 1081 2264 
Q 1234 2150 1697 2047 
L 1894 2003 
Q 2506 1872 2764 1633 
Q 3022 1394 3022 966 
Q 3022 478 2636 193 
Q 2250 -91 1575 -91 
Q 1294 -91 989 -36 
Q 684 19 347 128 
L 347 722 
Q 666 556 975 473 
Q 1284 391 1588 391 
Q 1994 391 2212 530 
Q 2431 669 2431 922 
Q 2431 1156 2273 1281 
Q 2116 1406 1581 1522 
L 1381 1569 
Q 847 1681 609 1914 
Q 372 2147 372 2553 
Q 372 3047 722 3315 
Q 1072 3584 1716 3584 
Q 2034 3584 2315 3537 
Q 2597 3491 2834 3397 
z
" id="DejaVuSans-73" transform="scale(0.015625)"/>
      <path d="M 3122 3366 
L 3122 2828 
Q 2878 2963 2633 3030 
Q 2388 3097 2138 3097 
Q 1578 3097 1268 2742 
Q 959 2388 959 1747 
Q 959 1106 1268 751 
Q 1578 397 2138 397 
Q 2388 397 2633 464 
Q 2878 531 3122 666 
L 3122 134 
Q 2881 22 2623 -34 
Q 2366 -91 2075 -91 
Q 1284 -91 818 406 
Q 353 903 353 1747 
Q 353 2603 823 3093 
Q 1294 3584 2113 3584 
Q 2378 3584 2631 3529 
Q 2884 3475 3122 3366 
z
" id="DejaVuSans-63" transform="scale(0.015625)"/>
      <path id="DejaVuSans-20" transform="scale(0.015625)"/>
      <path d="M 269 3500 
L 844 3500 
L 1563 769 
L 2278 3500 
L 2956 3500 
L 3675 769 
L 4391 3500 
L 4966 3500 
L 4050 0 
L 3372 0 
L 2619 2869 
L 1863 0 
L 1184 0 
L 269 3500 
z
" id="DejaVuSans-77" transform="scale(0.015625)"/>
      <path d="M 3513 2113 
L 3513 0 
L 2938 0 
L 2938 2094 
Q 2938 2591 2744 2837 
Q 2550 3084 2163 3084 
Q 1697 3084 1428 2787 
Q 1159 2491 1159 1978 
L 1159 0 
L 581 0 
L 581 4863 
L 1159 4863 
L 1159 2956 
Q 1366 3272 1645 3428 
Q 1925 3584 2291 3584 
Q 2894 3584 3203 3211 
Q 3513 2838 3513 2113 
z
" id="DejaVuSans-68" transform="scale(0.015625)"/>
      <path d="M 684 794 
L 1344 794 
L 1344 0 
L 684 0 
L 684 794 
z
" id="DejaVuSans-2e" transform="scale(0.015625)"/>
      <path d="M 2419 4116 
L 825 1625 
L 2419 1625 
L 2419 4116 
z
M 2253 4666 
L 3047 4666 
L 3047 1625 
L 3713 1625 
L 3713 1100 
L 3047 1100 
L 3047 0 
L 2419 0 
L 2419 1100 
L 313 1100 
L 313 1709 
L 2253 4666 
z
" id="DejaVuSans-34" transform="scale(0.015625)"/>
      <path d="M 2597 2516 
Q 3050 2419 3304 2112 
Q 3559 1806 3559 1356 
Q 3559 666 3084 287 
Q 2609 -91 1734 -91 
Q 1441 -91 1130 -33 
Q 819 25 488 141 
L 488 750 
Q 750 597 1062 519 
Q 1375 441 1716 441 
Q 2309 441 2620 675 
Q 2931 909 2931 1356 
Q 2931 1769 2642 2001 
Q 2353 2234 1838 2234 
L 1294 2234 
L 1294 2753 
L 1863 2753 
Q 2328 2753 2575 2939 
Q 2822 3125 2822 3475 
Q 2822 3834 2567 4026 
Q 2313 4219 1838 4219 
Q 1578 4219 1281 4162 
Q 984 4106 628 3988 
L 628 4550 
Q 988 4650 1302 4700 
Q 1616 4750 1894 4750 
Q 2613 4750 3031 4423 
Q 3450 4097 3450 3541 
Q 3450 3153 3228 2886 
Q 3006 2619 2597 2516 
z
" id="DejaVuSans-33" transform="scale(0.015625)"/>
      <path d="M 2034 2216 
Q 1584 2216 1326 1975 
Q 1069 1734 1069 1313 
Q 1069 891 1326 650 
Q 1584 409 2034 409 
Q 2484 409 2743 651 
Q 3003 894 3003 1313 
Q 3003 1734 2745 1975 
Q 2488 2216 2034 2216 
z
M 1403 2484 
Q 997 2584 770 2862 
Q 544 3141 544 3541 
Q 544 4100 942 4425 
Q 1341 4750 2034 4750 
Q 2731 4750 3128 4425 
Q 3525 4100 3525 3541 
Q 3525 3141 3298 2862 
Q 3072 2584 2669 2484 
Q 3125 2378 3379 2068 
Q 3634 1759 3634 1313 
Q 3634 634 3220 271 
Q 2806 -91 2034 -91 
Q 1263 -91 848 271 
Q 434 634 434 1313 
Q 434 1759 690 2068 
Q 947 2378 1403 2484 
z
M 1172 3481 
Q 1172 3119 1398 2916 
Q 1625 2713 2034 2713 
Q 2441 2713 2670 2916 
Q 2900 3119 2900 3481 
Q 2900 3844 2670 4047 
Q 2441 4250 2034 4250 
Q 1625 4250 1398 4047 
Q 1172 3844 1172 3481 
z
" id="DejaVuSans-38" transform="scale(0.015625)"/>
      <path d="M 2113 2584 
Q 1688 2584 1439 2293 
Q 1191 2003 1191 1497 
Q 1191 994 1439 701 
Q 1688 409 2113 409 
Q 2538 409 2786 701 
Q 3034 994 3034 1497 
Q 3034 2003 2786 2293 
Q 2538 2584 2113 2584 
z
M 3366 4563 
L 3366 3988 
Q 3128 4100 2886 4159 
Q 2644 4219 2406 4219 
Q 1781 4219 1451 3797 
Q 1122 3375 1075 2522 
Q 1259 2794 1537 2939 
Q 1816 3084 2150 3084 
Q 2853 3084 3261 2657 
Q 3669 2231 3669 1497 
Q 3669 778 3244 343 
Q 2819 -91 2113 -91 
Q 1303 -91 875 529 
Q 447 1150 447 2328 
Q 447 3434 972 4092 
Q 1497 4750 2381 4750 
Q 2619 4750 2861 4703 
Q 3103 4656 3366 4563 
z
" id="DejaVuSans-36" transform="scale(0.015625)"/>
     </defs>
     <use xlink:href="#DejaVuSans-69"/>
     <use x="27.783203" xlink:href="#DejaVuSans-6e"/>
     <use x="91.162109" xlink:href="#DejaVuSans-73"/>
     <use x="143.261719" xlink:href="#DejaVuSans-74"/>
     <use x="182.470703" xlink:href="#DejaVuSans-61"/>
     <use x="243.75" xlink:href="#DejaVuSans-6e"/>
     <use x="307.128906" xlink:href="#DejaVuSans-63"/>
     <use x="362.109375" xlink:href="#DejaVuSans-65"/>
     <use x="423.632812" xlink:href="#DejaVuSans-20"/>
     <use x="455.419922" xlink:href="#DejaVuSans-35"/>
     <use x="519.042969" xlink:href="#DejaVuSans-20"/>
     <use x="550.830078" xlink:href="#DejaVuSans-77"/>
     <use x="632.617188" xlink:href="#DejaVuSans-69"/>
     <use x="660.400391" xlink:href="#DejaVuSans-74"/>
     <use x="699.609375" xlink:href="#DejaVuSans-68"/>
     <use x="762.988281" xlink:href="#DejaVuSans-20"/>
     <use x="794.775391" xlink:href="#DejaVuSans-65"/>
     <use x="856.298828" xlink:href="#DejaVuSans-72"/>
     <use x="895.662109" xlink:href="#DejaVuSans-72"/>
     <use x="934.525391" xlink:href="#DejaVuSans-6f"/>
     <use x="995.707031" xlink:href="#DejaVuSans-72"/>
     <use x="1036.820312" xlink:href="#DejaVuSans-20"/>
     <use x="1068.607422" xlink:href="#DejaVuSans-30"/>
     <use x="1132.230469" xlink:href="#DejaVuSans-2e"/>
     <use x="1164.017578" xlink:href="#DejaVuSans-30"/>
     <use x="1227.640625" xlink:href="#DejaVuSans-31"/>
     <use x="1291.263672" xlink:href="#DejaVuSans-35"/>
     <use x="1354.886719" xlink:href="#DejaVuSans-34"/>
     <use x="1418.509766" xlink:href="#DejaVuSans-30"/>
     <use x="1482.132812" xlink:href="#DejaVuSans-35"/>
     <use x="1545.755859" xlink:href="#DejaVuSans-33"/>
     <use x="1609.378906" xlink:href="#DejaVuSans-38"/>
     <use x="1673.001953" xlink:href="#DejaVuSans-30"/>
     <use x="1736.625" xlink:href="#DejaVuSans-32"/>
     <use x="1800.248047" xlink:href="#DejaVuSans-34"/>
     <use x="1863.871094" xlink:href="#DejaVuSans-37"/>
     <use x="1927.494141" xlink:href="#DejaVuSans-36"/>
     <use x="1991.117188" xlink:href="#DejaVuSans-30"/>
     <use x="2054.740234" xlink:href="#DejaVuSans-33"/>
     <use x="2118.363281" xlink:href="#DejaVuSans-30"/>
     <use x="2181.986328" xlink:href="#DejaVuSans-37"/>
     <use x="2245.609375" xlink:href="#DejaVuSans-33"/>
    </g>
   </g>
   <g id="legend_1">
    <g id="patch_7">
     <path d="M 805.348438 499 
L 900.2 499 
Q 902.2 499 902.2 497 
L 902.2 453.965625 
Q 902.2 451.965625 900.2 451.965625 
L 805.348438 451.965625 
Q 803.348438 451.965625 803.348438 453.965625 
L 803.348438 497 
Q 803.348438 499 805.348438 499 
z
" style="opacity:0.8;stroke:#cccccc;stroke-linejoin:miter;"/>
    </g>
    <g id="line2d_18">
     <path d="M 807.348438 460.064062 
L 827.348438 460.064062 
" style="fill:none;stroke:#8dd3c7;stroke-linecap:square;stroke-width:1.5;"/>
    </g>
    <g id="line2d_19"/>
    <g id="text_17">
     <!-- cost -->
     <g style="fill:#ffffff;" transform="translate(835.348438 463.564062)scale(0.1 -0.1)">
      <use xlink:href="#DejaVuSans-63"/>
      <use x="54.980469" xlink:href="#DejaVuSans-6f"/>
      <use x="116.162109" xlink:href="#DejaVuSans-73"/>
      <use x="168.261719" xlink:href="#DejaVuSans-74"/>
     </g>
    </g>
    <g id="line2d_20">
     <path d="M 807.348438 474.742188 
L 827.348438 474.742188 
" style="fill:none;stroke:#feffb3;stroke-linecap:square;stroke-width:1.5;"/>
    </g>
    <g id="line2d_21"/>
    <g id="text_18">
     <!-- best cost -->
     <g style="fill:#ffffff;" transform="translate(835.348438 478.242188)scale(0.1 -0.1)">
      <defs>
       <path d="M 3116 1747 
Q 3116 2381 2855 2742 
Q 2594 3103 2138 3103 
Q 1681 3103 1420 2742 
Q 1159 2381 1159 1747 
Q 1159 1113 1420 752 
Q 1681 391 2138 391 
Q 2594 391 2855 752 
Q 3116 1113 3116 1747 
z
M 1159 2969 
Q 1341 3281 1617 3432 
Q 1894 3584 2278 3584 
Q 2916 3584 3314 3078 
Q 3713 2572 3713 1747 
Q 3713 922 3314 415 
Q 2916 -91 2278 -91 
Q 1894 -91 1617 61 
Q 1341 213 1159 525 
L 1159 0 
L 581 0 
L 581 4863 
L 1159 4863 
L 1159 2969 
z
" id="DejaVuSans-62" transform="scale(0.015625)"/>
      </defs>
      <use xlink:href="#DejaVuSans-62"/>
      <use x="63.476562" xlink:href="#DejaVuSans-65"/>
      <use x="125" xlink:href="#DejaVuSans-73"/>
      <use x="177.099609" xlink:href="#DejaVuSans-74"/>
      <use x="216.308594" xlink:href="#DejaVuSans-20"/>
      <use x="248.095703" xlink:href="#DejaVuSans-63"/>
      <use x="303.076172" xlink:href="#DejaVuSans-6f"/>
      <use x="364.257812" xlink:href="#DejaVuSans-73"/>
      <use x="416.357422" xlink:href="#DejaVuSans-74"/>
     </g>
    </g>
    <g id="line2d_22">
     <path d="M 807.348438 489.420313 
L 827.348438 489.420313 
" style="fill:none;stroke:#bfbbd9;stroke-linecap:square;stroke-width:1.5;"/>
    </g>
    <g id="line2d_23"/>
    <g id="text_19">
     <!-- temperature -->
     <g style="fill:#ffffff;" transform="translate(835.348438 492.920313)scale(0.1 -0.1)">
      <defs>
       <path d="M 3328 2828 
Q 3544 3216 3844 3400 
Q 4144 3584 4550 3584 
Q 5097 3584 5394 3201 
Q 5691 2819 5691 2113 
L 5691 0 
L 5113 0 
L 5113 2094 
Q 5113 2597 4934 2840 
Q 4756 3084 4391 3084 
Q 3944 3084 3684 2787 
Q 3425 2491 3425 1978 
L 3425 0 
L 2847 0 
L 2847 2094 
Q 2847 2600 2669 2842 
Q 2491 3084 2119 3084 
Q 1678 3084 1418 2786 
Q 1159 2488 1159 1978 
L 1159 0 
L 581 0 
L 581 3500 
L 1159 3500 
L 1159 2956 
Q 1356 3278 1631 3431 
Q 1906 3584 2284 3584 
Q 2666 3584 2933 3390 
Q 3200 3197 3328 2828 
z
" id="DejaVuSans-6d" transform="scale(0.015625)"/>
       <path d="M 1159 525 
L 1159 -1331 
L 581 -1331 
L 581 3500 
L 1159 3500 
L 1159 2969 
Q 1341 3281 1617 3432 
Q 1894 3584 2278 3584 
Q 2916 3584 3314 3078 
Q 3713 2572 3713 1747 
Q 3713 922 3314 415 
Q 2916 -91 2278 -91 
Q 1894 -91 1617 61 
Q 1341 213 1159 525 
z
M 3116 1747 
Q 3116 2381 2855 2742 
Q 2594 3103 2138 3103 
Q 1681 3103 1420 2742 
Q 1159 2381 1159 1747 
Q 1159 1113 1420 752 
Q 1681 391 2138 391 
Q 2594 391 2855 752 
Q 3116 1113 3116 1747 
z
" id="DejaVuSans-70" transform="scale(0.015625)"/>
       <path d="M 544 1381 
L 544 3500 
L 1119 3500 
L 1119 1403 
Q 1119 906 1312 657 
Q 1506 409 1894 409 
Q 2359 409 2629 706 
Q 2900 1003 2900 1516 
L 2900 3500 
L 3475 3500 
L 3475 0 
L 2900 0 
L 2900 538 
Q 2691 219 2414 64 
Q 2138 -91 1772 -91 
Q 1169 -91 856 284 
Q 544 659 544 1381 
z
M 1991 3584 
L 1991 3584 
z
" id="DejaVuSans-75" transform="scale(0.015625)"/>
      </defs>
      <use xlink:href="#DejaVuSans-74"/>
      <use x="39.208984" xlink:href="#DejaVuSans-65"/>
      <use x="100.732422" xlink:href="#DejaVuSans-6d"/>
      <use x="198.144531" xlink:href="#DejaVuSans-70"/>
      <use x="261.621094" xlink:href="#DejaVuSans-65"/>
      <use x="323.144531" xlink:href="#DejaVuSans-72"/>
      <use x="364.257812" xlink:href="#DejaVuSans-61"/>
      <use x="425.537109" xlink:href="#DejaVuSans-74"/>
      <use x="464.746094" xlink:href="#DejaVuSans-75"/>
      <use x="528.125" xlink:href="#DejaVuSans-72"/>
      <use x="566.988281" xlink:href="#DejaVuSans-65"/>
     </g>
    </g>
   </g>
  </g>
 </g>
 <defs>
  <clipPath id="pea35e786bd">
   <rect height="434.88" width="781.2" x="126" y="69.12"/>
  </clipPath>
 </defs>
</svg>
