<?xml version="1.0" encoding="utf-8" standalone="no"?>
<!DOCTYPE svg PUBLIC "-//W3C//DTD SVG 1.1//EN"
  "http://www.w3.org/Graphics/SVG/1.1/DTD/svg11.dtd">
<svg height="576pt" version="1.1" viewBox="0 0 1008 576" width="1008pt" xmlns="http://www.w3.org/2000/svg" xmlns:xlink="http://www.w3.org/1999/xlink">
 <metadata>
  <rdf:RDF xmlns:cc="http://creativecommons.org/ns#" xmlns:dc="http://purl.org/dc/elements/1.1/" xmlns:rdf="http://www.w3.org/1999/02/22-rdf-syntax-ns#">
   <cc:Work>
    <dc:type rdf:resource="http://purl.org/dc/dcmitype/StillImage"/>
    <dc:date>2022-01-07T21:26:37.793948</dc:date>
    <dc:format>image/svg+xml</dc:format>
    <dc:creator>
     <cc:Agent>
      <dc:title>Matplotlib v3.4.3, https://matplotlib.org/</dc:title>
     </cc:Agent>
    </dc:creator>
   </cc:Work>
  </rdf:RDF>
 </metadata>
 <defs>
  <style type="text/css">*{stroke-linecap:butt;stroke-linejoin:round;}</style>
 </defs>
 <g id="figure_1">
  <g id="patch_1">
   <path d="M 0 576 
L 1008 576 
L 1008 0 
L 0 0 
z
"/>
  </g>
  <g id="axes_1">
   <g id="patch_2">
    <path d="M 126 504 
L 907.2 504 
L 907.2 69.12 
L 126 69.12 
z
"/>
   </g>
   <g id="matplotlib.axis_1">
    <g id="xtick_1">
     <g id="line2d_1">
      <defs>
       <path d="M 0 0 
L 0 3.5 
" id="me0dcdd0533" style="stroke:#ffffff;stroke-width:0.8;"/>
      </defs>
      <g>
       <use style="fill:#ffffff;stroke:#ffffff;stroke-width:0.8;" x="161.509091" xlink:href="#me0dcdd0533" y="504"/>
      </g>
     </g>
     <g id="text_1">
      <!-- 0 -->
      <g style="fill:#ffffff;" transform="translate(158.327841 518.598438)scale(0.1 -0.1)">
       <defs>
        <path d="M 2034 4250 
Q 1547 4250 1301 3770 
Q 1056 3291 1056 2328 
Q 1056 1369 1301 889 
Q 1547 409 2034 409 
Q 2525 409 2770 889 
Q 3016 1369 3016 2328 
Q 3016 3291 2770 3770 
Q 2525 4250 2034 4250 
z
M 2034 4750 
Q 2819 4750 3233 4129 
Q 3647 3509 3647 2328 
Q 3647 1150 3233 529 
Q 2819 -91 2034 -91 
Q 1250 -91 836 529 
Q 422 1150 422 2328 
Q 422 3509 836 4129 
Q 1250 4750 2034 4750 
z
" id="DejaVuSans-30" transform="scale(0.015625)"/>
       </defs>
       <use xlink:href="#DejaVuSans-30"/>
      </g>
     </g>
    </g>
    <g id="xtick_2">
     <g id="line2d_2">
      <g>
       <use style="fill:#ffffff;stroke:#ffffff;stroke-width:0.8;" x="266.47241" xlink:href="#me0dcdd0533" y="504"/>
      </g>
     </g>
     <g id="text_2">
      <!-- 500 -->
      <g style="fill:#ffffff;" transform="translate(256.92866 518.598438)scale(0.1 -0.1)">
       <defs>
        <path d="M 691 4666 
L 3169 4666 
L 3169 4134 
L 1269 4134 
L 1269 2991 
Q 1406 3038 1543 3061 
Q 1681 3084 1819 3084 
Q 2600 3084 3056 2656 
Q 3513 2228 3513 1497 
Q 3513 744 3044 326 
Q 2575 -91 1722 -91 
Q 1428 -91 1123 -41 
Q 819 9 494 109 
L 494 744 
Q 775 591 1075 516 
Q 1375 441 1709 441 
Q 2250 441 2565 725 
Q 2881 1009 2881 1497 
Q 2881 1984 2565 2268 
Q 2250 2553 1709 2553 
Q 1456 2553 1204 2497 
Q 953 2441 691 2322 
L 691 4666 
z
" id="DejaVuSans-35" transform="scale(0.015625)"/>
       </defs>
       <use xlink:href="#DejaVuSans-35"/>
       <use x="63.623047" xlink:href="#DejaVuSans-30"/>
       <use x="127.246094" xlink:href="#DejaVuSans-30"/>
      </g>
     </g>
    </g>
    <g id="xtick_3">
     <g id="line2d_3">
      <g>
       <use style="fill:#ffffff;stroke:#ffffff;stroke-width:0.8;" x="371.435729" xlink:href="#me0dcdd0533" y="504"/>
      </g>
     </g>
     <g id="text_3">
      <!-- 1000 -->
      <g style="fill:#ffffff;" transform="translate(358.710729 518.598438)scale(0.1 -0.1)">
       <defs>
        <path d="M 794 531 
L 1825 531 
L 1825 4091 
L 703 3866 
L 703 4441 
L 1819 4666 
L 2450 4666 
L 2450 531 
L 3481 531 
L 3481 0 
L 794 0 
L 794 531 
z
" id="DejaVuSans-31" transform="scale(0.015625)"/>
       </defs>
       <use xlink:href="#DejaVuSans-31"/>
       <use x="63.623047" xlink:href="#DejaVuSans-30"/>
       <use x="127.246094" xlink:href="#DejaVuSans-30"/>
       <use x="190.869141" xlink:href="#DejaVuSans-30"/>
      </g>
     </g>
    </g>
    <g id="xtick_4">
     <g id="line2d_4">
      <g>
       <use style="fill:#ffffff;stroke:#ffffff;stroke-width:0.8;" x="476.399049" xlink:href="#me0dcdd0533" y="504"/>
      </g>
     </g>
     <g id="text_4">
      <!-- 1500 -->
      <g style="fill:#ffffff;" transform="translate(463.674049 518.598438)scale(0.1 -0.1)">
       <use xlink:href="#DejaVuSans-31"/>
       <use x="63.623047" xlink:href="#DejaVuSans-35"/>
       <use x="127.246094" xlink:href="#DejaVuSans-30"/>
       <use x="190.869141" xlink:href="#DejaVuSans-30"/>
      </g>
     </g>
    </g>
    <g id="xtick_5">
     <g id="line2d_5">
      <g>
       <use style="fill:#ffffff;stroke:#ffffff;stroke-width:0.8;" x="581.362368" xlink:href="#me0dcdd0533" y="504"/>
      </g>
     </g>
     <g id="text_5">
      <!-- 2000 -->
      <g style="fill:#ffffff;" transform="translate(568.637368 518.598438)scale(0.1 -0.1)">
       <defs>
        <path d="M 1228 531 
L 3431 531 
L 3431 0 
L 469 0 
L 469 531 
Q 828 903 1448 1529 
Q 2069 2156 2228 2338 
Q 2531 2678 2651 2914 
Q 2772 3150 2772 3378 
Q 2772 3750 2511 3984 
Q 2250 4219 1831 4219 
Q 1534 4219 1204 4116 
Q 875 4013 500 3803 
L 500 4441 
Q 881 4594 1212 4672 
Q 1544 4750 1819 4750 
Q 2544 4750 2975 4387 
Q 3406 4025 3406 3419 
Q 3406 3131 3298 2873 
Q 3191 2616 2906 2266 
Q 2828 2175 2409 1742 
Q 1991 1309 1228 531 
z
" id="DejaVuSans-32" transform="scale(0.015625)"/>
       </defs>
       <use xlink:href="#DejaVuSans-32"/>
       <use x="63.623047" xlink:href="#DejaVuSans-30"/>
       <use x="127.246094" xlink:href="#DejaVuSans-30"/>
       <use x="190.869141" xlink:href="#DejaVuSans-30"/>
      </g>
     </g>
    </g>
    <g id="xtick_6">
     <g id="line2d_6">
      <g>
       <use style="fill:#ffffff;stroke:#ffffff;stroke-width:0.8;" x="686.325687" xlink:href="#me0dcdd0533" y="504"/>
      </g>
     </g>
     <g id="text_6">
      <!-- 2500 -->
      <g style="fill:#ffffff;" transform="translate(673.600687 518.598438)scale(0.1 -0.1)">
       <use xlink:href="#DejaVuSans-32"/>
       <use x="63.623047" xlink:href="#DejaVuSans-35"/>
       <use x="127.246094" xlink:href="#DejaVuSans-30"/>
       <use x="190.869141" xlink:href="#DejaVuSans-30"/>
      </g>
     </g>
    </g>
    <g id="xtick_7">
     <g id="line2d_7">
      <g>
       <use style="fill:#ffffff;stroke:#ffffff;stroke-width:0.8;" x="791.289007" xlink:href="#me0dcdd0533" y="504"/>
      </g>
     </g>
     <g id="text_7">
      <!-- 3000 -->
      <g style="fill:#ffffff;" transform="translate(778.564007 518.598438)scale(0.1 -0.1)">
       <defs>
        <path d="M 2597 2516 
Q 3050 2419 3304 2112 
Q 3559 1806 3559 1356 
Q 3559 666 3084 287 
Q 2609 -91 1734 -91 
Q 1441 -91 1130 -33 
Q 819 25 488 141 
L 488 750 
Q 750 597 1062 519 
Q 1375 441 1716 441 
Q 2309 441 2620 675 
Q 2931 909 2931 1356 
Q 2931 1769 2642 2001 
Q 2353 2234 1838 2234 
L 1294 2234 
L 1294 2753 
L 1863 2753 
Q 2328 2753 2575 2939 
Q 2822 3125 2822 3475 
Q 2822 3834 2567 4026 
Q 2313 4219 1838 4219 
Q 1578 4219 1281 4162 
Q 984 4106 628 3988 
L 628 4550 
Q 988 4650 1302 4700 
Q 1616 4750 1894 4750 
Q 2613 4750 3031 4423 
Q 3450 4097 3450 3541 
Q 3450 3153 3228 2886 
Q 3006 2619 2597 2516 
z
" id="DejaVuSans-33" transform="scale(0.015625)"/>
       </defs>
       <use xlink:href="#DejaVuSans-33"/>
       <use x="63.623047" xlink:href="#DejaVuSans-30"/>
       <use x="127.246094" xlink:href="#DejaVuSans-30"/>
       <use x="190.869141" xlink:href="#DejaVuSans-30"/>
      </g>
     </g>
    </g>
    <g id="xtick_8">
     <g id="line2d_8">
      <g>
       <use style="fill:#ffffff;stroke:#ffffff;stroke-width:0.8;" x="896.252326" xlink:href="#me0dcdd0533" y="504"/>
      </g>
     </g>
     <g id="text_8">
      <!-- 3500 -->
      <g style="fill:#ffffff;" transform="translate(883.527326 518.598438)scale(0.1 -0.1)">
       <use xlink:href="#DejaVuSans-33"/>
       <use x="63.623047" xlink:href="#DejaVuSans-35"/>
       <use x="127.246094" xlink:href="#DejaVuSans-30"/>
       <use x="190.869141" xlink:href="#DejaVuSans-30"/>
      </g>
     </g>
    </g>
    <g id="text_9">
     <!-- iteration -->
     <g style="fill:#ffffff;" transform="translate(495.477344 532.276562)scale(0.1 -0.1)">
      <defs>
       <path d="M 603 3500 
L 1178 3500 
L 1178 0 
L 603 0 
L 603 3500 
z
M 603 4863 
L 1178 4863 
L 1178 4134 
L 603 4134 
L 603 4863 
z
" id="DejaVuSans-69" transform="scale(0.015625)"/>
       <path d="M 1172 4494 
L 1172 3500 
L 2356 3500 
L 2356 3053 
L 1172 3053 
L 1172 1153 
Q 1172 725 1289 603 
Q 1406 481 1766 481 
L 2356 481 
L 2356 0 
L 1766 0 
Q 1100 0 847 248 
Q 594 497 594 1153 
L 594 3053 
L 172 3053 
L 172 3500 
L 594 3500 
L 594 4494 
L 1172 4494 
z
" id="DejaVuSans-74" transform="scale(0.015625)"/>
       <path d="M 3597 1894 
L 3597 1613 
L 953 1613 
Q 991 1019 1311 708 
Q 1631 397 2203 397 
Q 2534 397 2845 478 
Q 3156 559 3463 722 
L 3463 178 
Q 3153 47 2828 -22 
Q 2503 -91 2169 -91 
Q 1331 -91 842 396 
Q 353 884 353 1716 
Q 353 2575 817 3079 
Q 1281 3584 2069 3584 
Q 2775 3584 3186 3129 
Q 3597 2675 3597 1894 
z
M 3022 2063 
Q 3016 2534 2758 2815 
Q 2500 3097 2075 3097 
Q 1594 3097 1305 2825 
Q 1016 2553 972 2059 
L 3022 2063 
z
" id="DejaVuSans-65" transform="scale(0.015625)"/>
       <path d="M 2631 2963 
Q 2534 3019 2420 3045 
Q 2306 3072 2169 3072 
Q 1681 3072 1420 2755 
Q 1159 2438 1159 1844 
L 1159 0 
L 581 0 
L 581 3500 
L 1159 3500 
L 1159 2956 
Q 1341 3275 1631 3429 
Q 1922 3584 2338 3584 
Q 2397 3584 2469 3576 
Q 2541 3569 2628 3553 
L 2631 2963 
z
" id="DejaVuSans-72" transform="scale(0.015625)"/>
       <path d="M 2194 1759 
Q 1497 1759 1228 1600 
Q 959 1441 959 1056 
Q 959 750 1161 570 
Q 1363 391 1709 391 
Q 2188 391 2477 730 
Q 2766 1069 2766 1631 
L 2766 1759 
L 2194 1759 
z
M 3341 1997 
L 3341 0 
L 2766 0 
L 2766 531 
Q 2569 213 2275 61 
Q 1981 -91 1556 -91 
Q 1019 -91 701 211 
Q 384 513 384 1019 
Q 384 1609 779 1909 
Q 1175 2209 1959 2209 
L 2766 2209 
L 2766 2266 
Q 2766 2663 2505 2880 
Q 2244 3097 1772 3097 
Q 1472 3097 1187 3025 
Q 903 2953 641 2809 
L 641 3341 
Q 956 3463 1253 3523 
Q 1550 3584 1831 3584 
Q 2591 3584 2966 3190 
Q 3341 2797 3341 1997 
z
" id="DejaVuSans-61" transform="scale(0.015625)"/>
       <path d="M 1959 3097 
Q 1497 3097 1228 2736 
Q 959 2375 959 1747 
Q 959 1119 1226 758 
Q 1494 397 1959 397 
Q 2419 397 2687 759 
Q 2956 1122 2956 1747 
Q 2956 2369 2687 2733 
Q 2419 3097 1959 3097 
z
M 1959 3584 
Q 2709 3584 3137 3096 
Q 3566 2609 3566 1747 
Q 3566 888 3137 398 
Q 2709 -91 1959 -91 
Q 1206 -91 779 398 
Q 353 888 353 1747 
Q 353 2609 779 3096 
Q 1206 3584 1959 3584 
z
" id="DejaVuSans-6f" transform="scale(0.015625)"/>
       <path d="M 3513 2113 
L 3513 0 
L 2938 0 
L 2938 2094 
Q 2938 2591 2744 2837 
Q 2550 3084 2163 3084 
Q 1697 3084 1428 2787 
Q 1159 2491 1159 1978 
L 1159 0 
L 581 0 
L 581 3500 
L 1159 3500 
L 1159 2956 
Q 1366 3272 1645 3428 
Q 1925 3584 2291 3584 
Q 2894 3584 3203 3211 
Q 3513 2838 3513 2113 
z
" id="DejaVuSans-6e" transform="scale(0.015625)"/>
      </defs>
      <use xlink:href="#DejaVuSans-69"/>
      <use x="27.783203" xlink:href="#DejaVuSans-74"/>
      <use x="66.992188" xlink:href="#DejaVuSans-65"/>
      <use x="128.515625" xlink:href="#DejaVuSans-72"/>
      <use x="169.628906" xlink:href="#DejaVuSans-61"/>
      <use x="230.908203" xlink:href="#DejaVuSans-74"/>
      <use x="270.117188" xlink:href="#DejaVuSans-69"/>
      <use x="297.900391" xlink:href="#DejaVuSans-6f"/>
      <use x="359.082031" xlink:href="#DejaVuSans-6e"/>
     </g>
    </g>
   </g>
   <g id="matplotlib.axis_2">
    <g id="ytick_1">
     <g id="line2d_9">
      <defs>
       <path d="M 0 0 
L -3.5 0 
" id="m29a83e1939" style="stroke:#ffffff;stroke-width:0.8;"/>
      </defs>
      <g>
       <use style="fill:#ffffff;stroke:#ffffff;stroke-width:0.8;" x="126" xlink:href="#m29a83e1939" y="484.232727"/>
      </g>
     </g>
     <g id="text_10">
      <!-- 0 -->
      <g style="fill:#ffffff;" transform="translate(112.6375 488.031946)scale(0.1 -0.1)">
       <use xlink:href="#DejaVuSans-30"/>
      </g>
     </g>
    </g>
    <g id="ytick_2">
     <g id="line2d_10">
      <g>
       <use style="fill:#ffffff;stroke:#ffffff;stroke-width:0.8;" x="126" xlink:href="#m29a83e1939" y="433.531812"/>
      </g>
     </g>
     <g id="text_11">
      <!-- 2500 -->
      <g style="fill:#ffffff;" transform="translate(93.55 437.331031)scale(0.1 -0.1)">
       <use xlink:href="#DejaVuSans-32"/>
       <use x="63.623047" xlink:href="#DejaVuSans-35"/>
       <use x="127.246094" xlink:href="#DejaVuSans-30"/>
       <use x="190.869141" xlink:href="#DejaVuSans-30"/>
      </g>
     </g>
    </g>
    <g id="ytick_3">
     <g id="line2d_11">
      <g>
       <use style="fill:#ffffff;stroke:#ffffff;stroke-width:0.8;" x="126" xlink:href="#m29a83e1939" y="382.830897"/>
      </g>
     </g>
     <g id="text_12">
      <!-- 5000 -->
      <g style="fill:#ffffff;" transform="translate(93.55 386.630116)scale(0.1 -0.1)">
       <use xlink:href="#DejaVuSans-35"/>
       <use x="63.623047" xlink:href="#DejaVuSans-30"/>
       <use x="127.246094" xlink:href="#DejaVuSans-30"/>
       <use x="190.869141" xlink:href="#DejaVuSans-30"/>
      </g>
     </g>
    </g>
    <g id="ytick_4">
     <g id="line2d_12">
      <g>
       <use style="fill:#ffffff;stroke:#ffffff;stroke-width:0.8;" x="126" xlink:href="#m29a83e1939" y="332.129982"/>
      </g>
     </g>
     <g id="text_13">
      <!-- 7500 -->
      <g style="fill:#ffffff;" transform="translate(93.55 335.929201)scale(0.1 -0.1)">
       <defs>
        <path d="M 525 4666 
L 3525 4666 
L 3525 4397 
L 1831 0 
L 1172 0 
L 2766 4134 
L 525 4134 
L 525 4666 
z
" id="DejaVuSans-37" transform="scale(0.015625)"/>
       </defs>
       <use xlink:href="#DejaVuSans-37"/>
       <use x="63.623047" xlink:href="#DejaVuSans-35"/>
       <use x="127.246094" xlink:href="#DejaVuSans-30"/>
       <use x="190.869141" xlink:href="#DejaVuSans-30"/>
      </g>
     </g>
    </g>
    <g id="ytick_5">
     <g id="line2d_13">
      <g>
       <use style="fill:#ffffff;stroke:#ffffff;stroke-width:0.8;" x="126" xlink:href="#m29a83e1939" y="281.429068"/>
      </g>
     </g>
     <g id="text_14">
      <!-- 10000 -->
      <g style="fill:#ffffff;" transform="translate(87.1875 285.228286)scale(0.1 -0.1)">
       <use xlink:href="#DejaVuSans-31"/>
       <use x="63.623047" xlink:href="#DejaVuSans-30"/>
       <use x="127.246094" xlink:href="#DejaVuSans-30"/>
       <use x="190.869141" xlink:href="#DejaVuSans-30"/>
       <use x="254.492188" xlink:href="#DejaVuSans-30"/>
      </g>
     </g>
    </g>
    <g id="ytick_6">
     <g id="line2d_14">
      <g>
       <use style="fill:#ffffff;stroke:#ffffff;stroke-width:0.8;" x="126" xlink:href="#m29a83e1939" y="230.728153"/>
      </g>
     </g>
     <g id="text_15">
      <!-- 12500 -->
      <g style="fill:#ffffff;" transform="translate(87.1875 234.527371)scale(0.1 -0.1)">
       <use xlink:href="#DejaVuSans-31"/>
       <use x="63.623047" xlink:href="#DejaVuSans-32"/>
       <use x="127.246094" xlink:href="#DejaVuSans-35"/>
       <use x="190.869141" xlink:href="#DejaVuSans-30"/>
       <use x="254.492188" xlink:href="#DejaVuSans-30"/>
      </g>
     </g>
    </g>
    <g id="ytick_7">
     <g id="line2d_15">
      <g>
       <use style="fill:#ffffff;stroke:#ffffff;stroke-width:0.8;" x="126" xlink:href="#m29a83e1939" y="180.027238"/>
      </g>
     </g>
     <g id="text_16">
      <!-- 15000 -->
      <g style="fill:#ffffff;" transform="translate(87.1875 183.826456)scale(0.1 -0.1)">
       <use xlink:href="#DejaVuSans-31"/>
       <use x="63.623047" xlink:href="#DejaVuSans-35"/>
       <use x="127.246094" xlink:href="#DejaVuSans-30"/>
       <use x="190.869141" xlink:href="#DejaVuSans-30"/>
       <use x="254.492188" xlink:href="#DejaVuSans-30"/>
      </g>
     </g>
    </g>
    <g id="ytick_8">
     <g id="line2d_16">
      <g>
       <use style="fill:#ffffff;stroke:#ffffff;stroke-width:0.8;" x="126" xlink:href="#m29a83e1939" y="129.326323"/>
      </g>
     </g>
     <g id="text_17">
      <!-- 17500 -->
      <g style="fill:#ffffff;" transform="translate(87.1875 133.125541)scale(0.1 -0.1)">
       <use xlink:href="#DejaVuSans-31"/>
       <use x="63.623047" xlink:href="#DejaVuSans-37"/>
       <use x="127.246094" xlink:href="#DejaVuSans-35"/>
       <use x="190.869141" xlink:href="#DejaVuSans-30"/>
       <use x="254.492188" xlink:href="#DejaVuSans-30"/>
      </g>
     </g>
    </g>
    <g id="ytick_9">
     <g id="line2d_17">
      <g>
       <use style="fill:#ffffff;stroke:#ffffff;stroke-width:0.8;" x="126" xlink:href="#m29a83e1939" y="78.625408"/>
      </g>
     </g>
     <g id="text_18">
      <!-- 20000 -->
      <g style="fill:#ffffff;" transform="translate(87.1875 82.424626)scale(0.1 -0.1)">
       <use xlink:href="#DejaVuSans-32"/>
       <use x="63.623047" xlink:href="#DejaVuSans-30"/>
       <use x="127.246094" xlink:href="#DejaVuSans-30"/>
       <use x="190.869141" xlink:href="#DejaVuSans-30"/>
       <use x="254.492188" xlink:href="#DejaVuSans-30"/>
      </g>
     </g>
    </g>
   </g>
   <g id="line2d_18">
    <path clip-path="url(#p7f276401b7)" d="M 161.509091 286.620841 
L 161.719018 308.70616 
L 161.928944 290.737755 
L 162.138871 284.491403 
L 162.348797 284.491403 
L 162.558724 266.664961 
L 162.768651 311.220925 
L 162.978577 298.18065 
L 163.188504 347.238855 
L 163.398431 304.143077 
L 163.608357 343.243623 
L 163.818284 359.204271 
L 164.028211 335.273439 
L 164.238137 296.882706 
L 164.448064 321.44223 
L 164.867917 394.228463 
L 165.077844 404.206403 
L 165.497697 404.206403 
L 165.707624 391.206689 
L 165.91755 352.106143 
L 166.127477 352.106143 
L 166.337404 417.936211 
L 166.54733 446.67349 
L 167.387037 366.261838 
L 167.596963 384.08828 
L 167.80689 371.088566 
L 168.016817 343.831754 
L 168.226743 343.831754 
L 168.646597 385.082018 
L 169.06645 317.081951 
L 169.276377 317.081951 
L 169.486303 312.721672 
L 169.69623 294.023175 
L 170.116083 224.400678 
L 170.32601 241.699831 
L 170.535936 241.699831 
L 170.745863 297.714201 
L 170.95579 253.158237 
L 171.165716 267.597858 
L 171.58557 361.212027 
L 171.795496 345.231099 
L 172.005423 317.730923 
L 172.215349 317.730923 
L 172.425276 346.001753 
L 172.635203 346.001753 
L 172.845129 307.61102 
L 173.055056 335.111196 
L 173.264983 316.574942 
L 173.474909 316.574942 
L 173.894763 277.758321 
L 174.104689 325.863349 
L 174.314616 320.306529 
L 174.524542 320.326809 
L 174.944396 296.030931 
L 175.154322 307.327095 
L 175.364249 346.488482 
L 175.574176 330.446712 
L 175.784102 383.560991 
L 175.994029 385.264541 
L 176.203956 346.163996 
L 176.413882 373.420808 
L 176.623809 345.149977 
L 176.833736 347.725584 
L 177.043662 347.725584 
L 177.253589 369.324174 
L 177.463515 359.792402 
L 177.883369 385.365943 
L 178.303222 328.438956 
L 178.723075 373.583051 
L 178.933002 411.973783 
L 179.562782 309.27401 
L 179.772708 299.072986 
L 179.982635 342.168764 
L 180.192562 359.995205 
L 180.402488 336.42942 
L 180.612415 402.766497 
L 180.822342 377.274077 
L 181.032268 333.306244 
L 181.242195 329.270451 
L 181.452122 353.282404 
L 181.662048 349.956424 
L 181.871975 368.654922 
L 182.081901 350.078106 
L 182.291828 368.654922 
L 182.501755 349.956424 
L 182.711681 351.152966 
L 182.921608 326.816527 
L 183.131535 339.816241 
L 183.341461 318.014848 
L 183.551388 308.949524 
L 183.761315 291.123082 
L 183.971241 400.961545 
L 184.181168 391.429773 
L 184.391095 391.429773 
L 184.601021 392.301828 
L 184.810948 386.745008 
L 185.020874 391.977343 
L 185.230801 347.421378 
L 185.440728 342.006521 
L 185.650654 347.421378 
L 185.860581 328.053629 
L 186.070508 318.988305 
L 186.280434 280.597573 
L 186.490361 286.154393 
L 186.910214 224.137034 
L 187.120141 238.434692 
L 187.539994 321.056903 
L 187.749921 314.141298 
L 187.959847 358.697262 
L 188.169774 345.697547 
L 188.379701 359.16371 
L 188.589627 329.20961 
L 189.219407 309.760739 
L 189.429334 309.862141 
L 189.63926 309.781019 
L 189.849187 405.788272 
L 190.059114 414.387147 
L 190.26904 365.328942 
L 190.478967 355.594366 
L 190.688894 338.498017 
L 190.89882 335.780448 
L 191.108747 357.338477 
L 191.318674 302.784293 
L 191.738527 374.455106 
L 192.368307 262.041038 
L 192.578233 271.106361 
L 192.78816 247.094408 
L 192.998087 247.094408 
L 193.41794 359.224551 
L 193.837793 402.218927 
L 194.04772 380.21473 
L 194.257647 403.780516 
L 194.467573 449.715545 
L 194.6775 418.139015 
L 194.887426 414.00182 
L 195.097353 374.901274 
L 195.30728 375.043237 
L 195.727133 449.715545 
L 196.56684 328.864844 
L 196.986693 361.232308 
L 197.406546 298.910743 
L 197.616473 317.446998 
L 197.826399 301.486349 
L 198.036326 325.498303 
L 198.246253 301.486349 
L 198.666106 353.769133 
L 199.085959 295.321118 
L 199.505812 360.279131 
L 199.715739 358.494458 
L 200.135592 391.592016 
L 200.345519 395.72921 
L 200.765372 359.427355 
L 200.975299 333.08316 
L 201.185226 333.08316 
L 201.395152 294.692427 
L 201.605079 294.692427 
L 201.815006 263.136177 
L 202.024932 349.71306 
L 202.444785 349.71306 
L 202.654712 377.111834 
L 203.074565 340.079886 
L 203.284492 340.079886 
L 203.494419 335.942691 
L 203.704345 374.252303 
L 203.914272 370.21651 
L 204.334125 381.979122 
L 204.544052 336.044093 
L 204.753978 339.349793 
L 204.963905 304.83261 
L 205.173832 307.408216 
L 205.383758 307.408216 
L 205.593685 335.679047 
L 206.013538 322.638771 
L 206.223465 284.248038 
L 206.433392 284.146637 
L 206.643318 271.146922 
L 206.853245 311.220925 
L 207.063171 272.12038 
L 207.273098 330.34531 
L 207.483025 347.543061 
L 207.692951 338.011289 
L 208.112805 381.735758 
L 208.532658 319.718399 
L 208.742585 319.718399 
L 208.952511 298.72822 
L 209.162438 326.228396 
L 209.372364 278.123368 
L 209.582291 349.348013 
L 209.792218 349.348013 
L 210.002144 347.968948 
L 210.212071 372.305388 
L 210.421998 366.403801 
L 210.631924 347.603902 
L 211.051778 379.66716 
L 211.261704 379.66716 
L 211.471631 370.601837 
L 211.681558 346.40736 
L 211.891484 339.512036 
L 212.101411 349.084368 
L 212.311337 349.064088 
L 212.521264 349.307452 
L 212.731191 384.676411 
L 213.151044 398.953788 
L 213.360971 375.022957 
L 213.570897 401.772759 
L 213.780824 408.505841 
L 213.990751 408.505841 
L 214.200677 411.081447 
L 214.410604 395.100519 
L 214.62053 391.125567 
L 214.830457 396.357902 
L 215.040384 398.588742 
L 215.25031 349.530537 
L 215.460237 376.199218 
L 215.670164 376.199218 
L 215.88009 337.098672 
L 216.090017 335.86157 
L 216.299944 326.329798 
L 216.719797 273.012716 
L 216.929723 352.856517 
L 217.559503 467.846192 
L 217.979357 388.752764 
L 218.189283 404.733693 
L 218.609137 395.14108 
L 218.819063 400.6979 
L 219.02899 380.802861 
L 219.238917 393.559211 
L 219.448843 374.759312 
L 219.65877 427.954712 
L 219.868696 266.360756 
L 220.078623 298.484855 
L 220.28855 286.194954 
L 220.498476 314.465784 
L 220.91833 248.818239 
L 221.128256 299.539434 
L 221.338183 260.438889 
L 221.54811 294.956072 
L 221.758036 294.956072 
L 221.967963 372.44735 
L 222.177889 366.89053 
L 222.387816 366.89053 
L 222.597743 349.064088 
L 222.807669 351.781657 
L 223.017596 369.608099 
L 223.227523 369.608099 
L 223.437449 360.076327 
L 223.647376 359.630159 
L 223.857303 359.630159 
L 224.067229 355.492964 
L 224.277156 373.826415 
L 224.487082 376.361461 
L 224.906936 324.017836 
L 225.116862 300.087004 
L 225.326789 317.670082 
L 225.536716 317.670082 
L 225.746642 295.4428 
L 225.956569 321.421949 
L 226.166496 318.298773 
L 226.376422 342.229605 
L 226.586349 320.631015 
L 226.796275 315.074195 
L 227.006202 316.615503 
L 227.216129 356.608384 
L 227.635982 274.006454 
L 227.845909 308.523636 
L 228.055835 306.353637 
L 228.265762 358.109131 
L 228.475689 345.798949 
L 228.685615 378.876226 
L 228.895542 379.281833 
L 229.105469 347.705304 
L 229.315395 373.704733 
L 229.525322 334.604187 
L 229.735248 316.777745 
L 230.155102 325.112976 
L 230.365028 306.414478 
L 230.574955 302.07448 
L 230.784882 251.718331 
L 230.994808 251.718331 
L 231.204735 288.506915 
L 231.414662 283.031216 
L 231.624588 300.857658 
L 231.834515 303.595508 
L 232.044441 276.460378 
L 232.464295 319.353352 
L 232.674221 274.797388 
L 233.094075 372.812397 
L 233.304001 333.711851 
L 233.513928 324.646527 
L 233.723855 324.646527 
L 233.933781 344.480725 
L 234.143708 383.581271 
L 234.353634 374.049499 
L 234.563561 398.649583 
L 234.773488 389.300334 
L 234.983414 408.627523 
L 235.193341 378.024451 
L 235.403268 367.661184 
L 235.613194 388.5094 
L 235.823121 388.5094 
L 236.033048 415.279483 
L 236.242974 415.279483 
L 236.452901 419.092192 
L 236.662828 401.26575 
L 237.082681 354.13418 
L 237.292607 345.068856 
L 237.502534 349.206051 
L 237.712461 310.105505 
L 237.922387 349.206051 
L 238.132314 321.949239 
L 238.342241 321.807276 
L 238.552167 330.8726 
L 238.762094 330.8726 
L 238.972021 352.876797 
L 239.181947 313.776251 
L 239.391874 322.517089 
L 239.6018 316.960269 
L 239.811727 342.838016 
L 240.021654 342.838016 
L 240.441507 363.889036 
L 240.651434 318.968025 
L 240.86136 326.106714 
L 241.071287 327.059891 
L 241.281214 327.059891 
L 241.49114 375.164919 
L 241.701067 336.064374 
L 242.12092 320.975781 
L 242.330847 316.412699 
L 242.540773 314.303541 
L 242.7507 266.198513 
L 242.960627 273.763089 
L 243.170553 312.153822 
L 243.38048 294.32738 
L 243.590407 333.427926 
L 243.800333 351.254368 
L 244.01026 351.254368 
L 244.220186 356.811188 
L 244.64004 299.721958 
L 244.849966 299.721958 
L 245.059893 347.826986 
L 245.26982 365.328942 
L 245.689673 281.489909 
L 245.8996 320.833819 
L 246.109526 333.752412 
L 246.52938 333.752412 
L 246.739306 309.415973 
L 246.949233 300.350649 
L 247.159159 306.008871 
L 247.369086 266.908325 
L 247.579013 266.908325 
L 247.788939 345.83951 
L 247.998866 242.876092 
L 248.208793 260.702533 
L 248.418719 249.690295 
L 248.628646 307.651581 
L 248.838573 258.593375 
L 249.258426 336.490261 
L 249.468352 374.880994 
L 249.678279 389.239493 
L 249.888206 380.17417 
L 250.308059 321.239426 
L 250.517986 318.501577 
L 250.727912 356.892309 
L 250.937839 329.635497 
L 251.147766 338.700821 
L 251.357692 365.957633 
L 251.777545 336.97699 
L 251.987472 368.55352 
L 252.617252 325.31578 
L 252.827179 317.365876 
L 253.247032 317.244194 
L 253.456959 321.381389 
L 253.666885 271.02524 
L 253.876812 261.493468 
L 254.086739 300.147845 
L 254.296665 298.76878 
L 254.716518 377.213236 
L 254.926445 364.213522 
L 255.136372 329.696339 
L 255.556225 320.651295 
L 255.766152 332.495029 
L 256.186005 302.845134 
L 256.395932 328.438956 
L 256.605858 333.995776 
L 256.815785 361.495952 
L 257.025711 361.090345 
L 257.235638 361.090345 
L 257.445565 355.939132 
L 257.655491 313.390924 
L 257.865418 326.755686 
L 258.075345 374.860714 
L 258.285271 326.755686 
L 258.495198 317.081951 
L 258.705125 336.97699 
L 259.124978 305.441021 
L 259.334904 329.371853 
L 259.544831 280.313647 
L 259.754758 328.418676 
L 259.964684 341.41839 
L 260.174611 296.862426 
L 260.384538 345.920631 
L 260.594464 345.515024 
L 260.804391 348.374556 
L 261.224244 330.8726 
L 261.434171 355.209039 
L 261.644097 351.518012 
L 262.063951 305.623544 
L 262.273877 332.880356 
L 262.483804 315.053914 
L 262.903657 375.75305 
L 263.323511 330.223628 
L 263.533437 281.165423 
L 263.953291 332.616711 
L 264.163217 330.588675 
L 264.373144 359.934364 
L 264.58307 359.934364 
L 264.792997 383.50015 
L 265.21285 347.137453 
L 265.632704 375.915293 
L 265.84263 370.358472 
L 266.052557 282.544488 
L 266.262484 300.046443 
L 266.47241 254.111415 
L 266.682337 300.046443 
L 266.892263 287.269813 
L 267.10219 358.737823 
L 267.312117 386.237999 
L 267.522043 337.179794 
L 267.941897 350.564835 
L 268.36175 287.533458 
L 268.571677 305.035414 
L 268.781603 348.131191 
L 268.99153 343.993997 
L 269.201456 320.428211 
L 269.411383 360.015486 
L 269.62131 355.087357 
L 269.831236 357.054552 
L 270.25109 319.576436 
L 270.461016 319.576436 
L 270.670943 349.834742 
L 270.88087 398.892947 
L 271.300723 349.794181 
L 271.51065 350.199789 
L 271.720576 334.21886 
L 271.930503 334.21886 
L 272.140429 332.697833 
L 272.350356 308.604758 
L 272.560283 297.714201 
L 272.770209 296.51766 
L 272.980136 317.061671 
L 273.399989 398.548181 
L 273.819843 353.221563 
L 274.029769 334.685309 
L 274.239696 352.51175 
L 274.449622 313.411205 
L 274.659549 334.259421 
L 274.869476 326.228396 
L 275.079402 304.427003 
L 275.289329 321.888398 
L 275.499256 306.47532 
L 275.709182 302.743732 
L 275.919109 306.779525 
L 276.129036 257.72132 
L 276.338962 259.242347 
L 276.548889 259.242347 
L 276.758815 322.091201 
L 276.968742 326.228396 
L 277.178669 322.091201 
L 277.388595 322.091201 
L 277.598522 408.505841 
L 277.808449 389.705942 
L 278.228302 397.878929 
L 278.438229 374.434826 
L 278.648155 393.396968 
L 278.858082 368.431838 
L 279.068008 368.431838 
L 279.487862 289.33841 
L 279.907715 361.840719 
L 280.117642 356.283898 
L 280.327568 346.752126 
L 280.537495 297.693921 
L 280.747422 303.250741 
L 280.957348 274.979911 
L 281.167275 324.038116 
L 281.377202 333.569888 
L 281.587128 330.974002 
L 282.006981 287.208972 
L 282.216908 287.208972 
L 282.426835 252.691789 
L 282.636761 252.691789 
L 282.846688 306.657843 
L 283.056615 306.657843 
L 283.266541 323.186341 
L 283.476468 317.629521 
L 283.686395 336.42942 
L 283.896321 339.268671 
L 284.106248 339.268671 
L 284.316174 346.731846 
L 284.526101 333.732131 
L 284.736028 347.948668 
L 284.945954 344.318482 
L 285.155881 378.835665 
L 285.365808 340.444933 
L 285.575734 329.77746 
L 285.785661 370.703239 
L 285.995588 361.171467 
L 286.205514 422.823779 
L 286.625367 393.052202 
L 286.835294 394.289304 
L 287.255147 355.634927 
L 287.675001 416.090698 
L 288.094854 327.343816 
L 288.304781 346.549323 
L 288.514707 319.049146 
L 288.724634 319.028866 
L 289.144487 384.919775 
L 289.56434 338.964466 
L 289.774267 338.964466 
L 289.984194 337.443438 
L 290.19412 302.926255 
L 290.404047 296.497379 
L 290.613974 272.100099 
L 291.033827 322.801014 
L 291.243754 318.663819 
L 291.663607 389.503138 
L 291.873533 370.703239 
L 292.08346 374.840433 
L 292.293387 375.327162 
L 292.503313 324.971013 
L 292.71324 348.536799 
L 292.923167 330.710357 
L 293.133093 286.154393 
L 293.34302 282.017198 
L 293.552947 301.425508 
L 293.762873 351.781657 
L 293.9728 351.37605 
L 294.182726 338.376335 
L 294.392653 349.895583 
L 294.60258 326.289237 
L 295.022433 389.6451 
L 295.442286 333.529328 
L 295.652213 346.529042 
L 296.072066 298.261771 
L 296.281993 356.689506 
L 296.491919 354.72231 
L 296.911773 294.834389 
L 297.121699 318.765221 
L 297.331626 302.804573 
L 297.751479 302.804573 
L 297.961406 284.978132 
L 298.171333 257.112909 
L 298.381259 266.685241 
L 298.591186 308.199151 
L 298.801113 326.897648 
L 299.011039 361.414831 
L 299.430892 299.640836 
L 299.640819 334.158019 
L 299.850746 324.626247 
L 300.060672 326.796246 
L 300.270599 315.256718 
L 300.480526 296.558221 
L 300.690452 309.902701 
L 300.900379 395.749491 
L 301.110306 371.737537 
L 301.320232 417.672566 
L 301.530159 413.535372 
L 302.159939 327.506059 
L 302.369865 315.662325 
L 302.579792 334.360823 
L 302.789719 312.762233 
L 302.999645 312.762233 
L 303.209572 327.242414 
L 303.419499 309.415973 
L 303.839352 392.038184 
L 304.049278 401.569956 
L 304.469132 333.144001 
L 304.679058 349.124929 
L 304.888985 317.548399 
L 305.098912 317.548399 
L 305.308838 339.77568 
L 305.518765 343.263903 
L 305.728692 342.878576 
L 305.938618 342.878576 
L 306.148545 333.346804 
L 306.358472 336.145495 
L 306.568398 345.677267 
L 306.778325 388.773045 
L 306.988251 370.23679 
L 307.198178 324.301761 
L 307.408105 342.128203 
L 307.618031 342.128203 
L 307.827958 314.628027 
L 308.037885 333.062879 
L 308.247811 329.939703 
L 308.457738 339.005027 
L 308.877591 321.847837 
L 309.087518 323.997556 
L 309.297444 327.688582 
L 309.507371 359.265112 
L 309.717298 346.265398 
L 310.137151 346.265398 
L 310.347078 340.708577 
L 310.557004 364.274363 
L 310.766931 345.738108 
L 310.976858 307.347375 
L 311.396711 380.802861 
L 311.606637 353.302685 
L 311.816564 366.079315 
L 312.236417 303.696909 
L 312.446344 319.657557 
L 312.656271 273.722528 
L 312.866197 273.722528 
L 313.076124 391.896221 
L 313.286051 419.153033 
L 313.705904 390.415754 
L 313.91583 397.067714 
L 314.125757 358.676982 
L 314.54561 428.340039 
L 314.755537 422.783219 
L 314.965464 440.285174 
L 315.385317 355.411843 
L 315.595244 393.802575 
L 315.80517 375.976134 
L 316.43495 273.093837 
L 316.644877 307.61102 
L 317.06473 285.545982 
L 317.274657 294.611305 
L 317.484583 259.505992 
L 317.69451 300.43177 
L 318.114363 268.895801 
L 318.32429 295.300838 
L 318.534217 295.300838 
L 318.744143 276.500939 
L 318.95407 279.461872 
L 319.163996 279.461872 
L 319.373923 253.442162 
L 319.58385 297.998127 
L 319.793776 279.461872 
L 320.003703 376.219498 
L 320.21363 344.663249 
L 320.633483 318.298773 
L 320.84341 318.298773 
L 321.053336 322.801014 
L 321.263263 367.356978 
L 321.473189 380.356693 
L 321.683116 364.396045 
L 321.893043 357.886047 
L 322.102969 362.591092 
L 322.312896 353.525769 
L 322.522823 334.827271 
L 322.732749 371.149407 
L 322.942676 371.149407 
L 323.152603 365.531745 
L 323.572456 286.458598 
L 323.782383 331.014562 
L 324.412162 247.358053 
L 324.622089 279.177947 
L 324.832016 338.132971 
L 325.041942 356.831468 
L 325.251869 325.254938 
L 325.461796 337.301476 
L 325.671722 319.475034 
L 325.881649 312.802794 
L 326.301502 286.377477 
L 326.511429 325.478022 
L 326.721355 275.121874 
L 326.931282 275.121874 
L 327.141209 265.590102 
L 327.351135 264.718046 
L 327.561062 261.412346 
L 327.770989 223.021613 
L 327.980915 255.044311 
L 328.190842 227.544135 
L 328.820622 361.516233 
L 329.030548 344.014277 
L 329.240475 358.514739 
L 329.450402 358.514739 
L 329.660328 362.084083 
L 330.080182 395.080239 
L 330.290108 359.062309 
L 330.500035 386.562485 
L 330.709962 279.90804 
L 330.919888 272.444865 
L 331.129815 272.444865 
L 331.339741 313.370644 
L 331.549668 297.389716 
L 331.759595 321.928958 
L 331.969521 326.938209 
L 332.179448 292.421026 
L 332.389375 315.885409 
L 332.809228 385.142859 
L 333.229081 312.640551 
L 333.439008 308.503356 
L 333.648935 331.947459 
L 333.858861 304.690647 
L 334.068788 304.690647 
L 334.488641 376.503423 
L 334.698568 328.398395 
L 334.908494 362.915578 
L 335.118421 367.052773 
L 335.328348 343.60867 
L 335.538274 303.088498 
L 335.748201 303.088498 
L 335.958128 306.211675 
L 336.168054 293.21196 
L 336.377981 293.21196 
L 336.587907 267.111129 
L 336.797834 315.216157 
L 337.007761 287.715981 
L 337.217687 314.952513 
L 337.427614 266.847484 
L 337.637541 290.940559 
L 337.847467 295.584763 
L 338.057394 277.048508 
L 338.267321 295.848408 
L 338.477247 285.667664 
L 338.687174 285.667664 
L 338.8971 251.150481 
L 339.107027 290.149625 
L 339.316954 295.706445 
L 339.52688 295.706445 
L 339.736807 276.906546 
L 339.946734 286.641122 
L 340.15666 268.81468 
L 340.576514 309.375412 
L 340.78644 303.818592 
L 340.996367 372.062023 
L 341.206293 348.131191 
L 341.41622 355.634927 
L 341.626147 386.136597 
L 341.836073 376.604825 
L 342.046 337.504279 
L 342.255927 337.504279 
L 342.465853 312.559429 
L 342.67578 318.055408 
L 342.885707 357.155954 
L 343.095633 361.191747 
L 343.30556 337.179794 
L 343.515487 358.778383 
L 343.725413 331.278207 
L 343.93534 282.220002 
L 344.145266 313.451765 
L 344.355193 313.451765 
L 344.56512 336.875588 
L 344.775046 323.875874 
L 344.984973 323.875874 
L 345.1949 314.344102 
L 345.404826 362.48969 
L 345.614753 348.131191 
L 346.244533 240.462728 
L 346.454459 384.676411 
L 346.664386 408.242196 
L 347.084239 367.316418 
L 347.294166 394.573229 
L 347.504093 375.77333 
L 347.714019 394.573229 
L 348.343799 268.104867 
L 348.763652 367.519221 
L 349.183506 300.857658 
L 349.603359 313.14756 
L 349.813286 330.974002 
L 350.023212 359.974925 
L 350.443066 301.445789 
L 350.652992 306.008871 
L 350.862919 319.008586 
L 351.072846 319.576436 
L 351.282772 368.370997 
L 351.492699 333.853814 
L 351.702625 379.788843 
L 352.122479 290.758036 
L 352.332405 292.137101 
L 352.542332 283.071777 
L 352.752259 292.137101 
L 352.962185 353.789413 
L 353.172112 341.479231 
L 353.591965 288.425794 
L 354.011818 319.515595 
L 354.221745 351.92362 
L 354.431672 340.688297 
L 354.641598 372.244546 
L 354.851525 373.278845 
L 355.061452 352.166984 
L 355.271378 396.722948 
L 355.481305 348.61792 
L 355.691232 339.552596 
L 355.901158 318.663819 
L 356.321011 260.134683 
L 356.530938 285.566262 
L 356.740865 258.30945 
L 356.950791 252.75263 
L 357.160718 276.764583 
L 357.370645 269.220287 
L 357.580571 294.388221 
L 357.790498 303.453545 
L 358.000425 285.627103 
L 358.210351 326.552882 
L 358.420278 307.752983 
L 358.630204 326.552882 
L 358.840131 308.016627 
L 359.050058 268.916082 
L 359.259984 281.368226 
L 359.469911 259.566833 
L 359.889764 302.033919 
L 360.519544 251.860294 
L 361.359251 359.427355 
L 361.779104 289.277569 
L 361.989031 352.937638 
L 362.198957 352.917358 
L 362.408884 357.054552 
L 362.618811 375.590807 
L 362.828737 370.033987 
L 363.038664 414.589951 
L 363.248591 387.089774 
L 363.458517 392.646595 
L 363.87837 335.638486 
L 364.088297 353.525769 
L 364.50815 306.292796 
L 364.718077 325.457742 
L 364.928004 320.245688 
L 365.347857 291.325886 
L 365.557784 330.426432 
L 365.76771 333.265683 
L 365.977637 333.265683 
L 366.187563 376.361461 
L 366.39749 357.662963 
L 366.607417 386.745008 
L 366.817343 352.227825 
L 367.02727 352.633433 
L 367.237197 387.150615 
L 367.65705 287.736261 
L 367.866977 338.09241 
L 368.076903 334.056617 
L 368.28683 338.09241 
L 368.496757 306.51588 
L 368.706683 319.556156 
L 368.91661 357.946888 
L 369.126536 352.390068 
L 369.336463 352.390068 
L 369.54639 407.005094 
L 369.756316 425.703591 
L 369.966243 391.186408 
L 370.17617 387.150615 
L 370.386096 319.109988 
L 370.596023 384.676411 
L 370.80595 410.838083 
L 371.015876 386.82613 
L 371.225803 276.967387 
L 371.435729 267.435615 
L 371.855583 346.508762 
L 372.065509 342.472969 
L 372.275436 350.605396 
L 372.485363 384.899495 
L 372.695289 371.89978 
L 372.905216 372.305388 
L 373.325069 313.776251 
L 373.534996 295.077754 
L 373.744922 290.251027 
L 373.954849 299.884201 
L 374.164776 323.449986 
L 374.374702 371.555014 
L 374.584629 326.99905 
L 375.004482 406.072197 
L 375.214409 382.506412 
L 375.424336 382.100804 
L 375.634262 382.100804 
L 375.844189 382.506412 
L 376.054115 341.580633 
L 376.264042 368.837445 
L 376.473969 364.801652 
L 376.683895 384.128841 
L 376.893822 388.164634 
L 377.103749 369.628379 
L 377.313675 364.943615 
L 377.523602 356.811188 
L 377.733529 334.867832 
L 377.943455 295.767286 
L 378.153382 302.439527 
L 378.363309 350.544555 
L 378.783162 301.283546 
L 379.203015 342.026801 
L 379.412942 343.142221 
L 379.622868 345.677267 
L 379.832795 321.665314 
L 380.042722 322.517089 
L 380.252648 368.512959 
L 380.462575 355.513244 
L 380.882428 271.856735 
L 381.302281 387.880709 
L 381.512208 378.348937 
L 381.932061 415.502567 
L 382.141988 383.926037 
L 382.351915 387.231737 
L 382.561841 412.31855 
L 382.771768 412.31855 
L 382.981695 377.801367 
L 383.821401 317.446998 
L 384.031328 316.432979 
L 384.241254 359.528757 
L 384.451181 327.952227 
L 384.661108 362.48969 
L 384.871034 352.957918 
L 385.290888 314.344102 
L 385.500814 360.279131 
L 385.920668 338.214092 
L 386.130594 314.202139 
L 386.340521 344.277922 
L 386.550447 324.747929 
L 386.760374 340.708577 
L 387.180227 271.511969 
L 387.390154 273.78337 
L 387.600081 268.226549 
L 387.810007 369.506697 
L 388.229861 422.803499 
L 388.439787 423.209106 
L 388.649714 395.952294 
L 388.85964 411.912942 
L 389.279494 359.893804 
L 389.48942 332.393627 
L 389.699347 375.631368 
L 389.909274 331.663534 
L 390.1192 379.768562 
L 390.329127 374.739031 
L 390.539054 325.680826 
L 390.74898 369.729781 
L 390.958907 335.212598 
L 391.168833 342.797455 
L 391.37876 299.701677 
L 391.588687 299.701677 
L 391.798613 276.58206 
L 392.00854 238.191327 
L 392.218467 255.693283 
L 392.63832 230.180583 
L 393.058173 341.540072 
L 393.2681 291.183924 
L 393.687953 317.487558 
L 394.317733 293.901493 
L 394.52766 293.901493 
L 394.737586 299.032425 
L 394.947513 278.711498 
L 395.15744 240.320766 
L 395.367366 254.699545 
L 395.577293 328.479517 
L 395.78722 351.37605 
L 395.997146 328.479517 
L 396.207073 345.981472 
L 396.836853 333.042599 
L 397.046779 282.68645 
L 397.256706 310.937 
L 397.466633 293.435044 
L 397.676559 333.022319 
L 397.886486 335.739888 
L 398.096413 322.740173 
L 398.306339 322.740173 
L 398.516266 299.377191 
L 398.726192 333.894374 
L 398.936119 294.793829 
L 399.146046 318.237932 
L 399.355972 308.70616 
L 399.775826 240.138242 
L 399.985752 316.676344 
L 400.195679 312.640551 
L 400.405606 322.172323 
L 400.615532 346.184276 
L 400.825459 342.047081 
L 401.035385 346.184276 
L 401.245312 317.913446 
L 401.455239 317.913446 
L 401.665165 368.269595 
L 401.875092 329.169049 
L 402.085019 325.863349 
L 402.504872 302.439527 
L 402.714799 301.242985 
L 402.924725 283.416543 
L 403.134652 327.972507 
L 403.344579 322.415687 
L 403.974358 264.677485 
L 404.184285 255.145713 
L 404.394212 276.744303 
L 404.604138 226.388154 
L 404.814065 213.38844 
L 405.023992 213.38844 
L 405.233918 231.214881 
L 405.443845 258.613656 
L 405.653772 268.145428 
L 406.073625 232.431703 
L 406.283551 246.932165 
L 406.913331 345.656987 
L 407.123258 343.507268 
L 407.753038 262.852252 
L 407.962965 284.795608 
L 408.172891 331.257927 
L 408.382818 304.001115 
L 408.802671 318.623259 
L 409.012598 316.514101 
L 409.222524 297.977846 
L 409.432451 307.732702 
L 409.852304 406.538645 
L 410.062231 389.05697 
L 410.272158 361.556794 
L 410.482084 317.000829 
L 410.692011 353.890815 
L 410.901937 308.868403 
L 411.111864 313.005597 
L 411.321791 358.311935 
L 411.531717 348.739602 
L 411.741644 385.629588 
L 411.951571 370.80464 
L 412.161497 394.492108 
L 412.371424 390.354913 
L 412.791277 353.302685 
L 413.001204 372.102584 
L 413.211131 377.497161 
L 413.421057 375.327162 
L 413.630984 348.07035 
L 414.050837 373.197724 
L 414.260764 334.097178 
L 414.47069 373.197724 
L 414.680617 354.499226 
L 414.890544 315.398681 
L 415.10047 306.373918 
L 415.310397 318.866623 
L 415.520324 268.510474 
L 415.73025 259.445151 
L 415.940177 289.825139 
L 416.150103 291.995138 
L 416.36003 287.67542 
L 416.569957 300.452051 
L 416.779883 327.911666 
L 416.98981 293.394483 
L 417.199737 392.626314 
L 417.409663 410.10799 
L 417.61959 406.072197 
L 417.829517 366.971651 
L 418.039443 394.552949 
L 418.24937 400.495096 
L 418.459296 416.050137 
L 418.669223 406.700888 
L 419.299003 361.800158 
L 419.50893 359.630159 
L 419.718856 402.725937 
L 419.928783 376.564264 
L 420.13871 402.725937 
L 420.558563 362.631653 
L 420.76849 366.180717 
L 420.978416 317.122512 
L 421.188343 295.605043 
L 421.398269 337.200074 
L 421.608196 333.468487 
L 421.818123 318.70438 
L 422.028049 353.221563 
L 422.447903 270.599352 
L 422.657829 274.736547 
L 422.867756 297.896725 
L 423.077683 251.961696 
L 423.287609 270.639913 
L 423.497536 324.403163 
L 423.707462 275.344958 
L 423.917389 269.443371 
L 424.127316 273.499444 
L 424.337242 302.480087 
L 424.547169 278.468134 
L 424.757096 346.853528 
L 424.967022 364.314923 
L 425.176949 336.814747 
L 425.386876 356.223057 
L 425.596802 308.118029 
L 426.016655 289.744018 
L 426.226582 308.381674 
L 426.436509 305.806067 
L 426.646435 288.324392 
L 426.856362 307.022889 
L 427.066289 297.957566 
L 427.486142 356.304179 
L 427.696069 353.708292 
L 427.905995 368.654922 
L 428.115922 362.124644 
L 428.325848 384.149121 
L 428.535775 339.593157 
L 428.745702 347.076612 
L 428.955628 374.63763 
L 429.375482 356.628665 
L 429.585408 317.528119 
L 429.795335 356.628665 
L 430.005262 354.519507 
L 430.215188 345.454183 
L 430.425115 385.974354 
L 430.635042 370.358472 
L 430.844968 320.002324 
L 431.054895 330.771198 
L 431.264821 332.718113 
L 431.474748 308.70616 
L 431.684675 299.174388 
L 431.894601 352.795675 
L 432.104528 334.097178 
L 432.314455 352.795675 
L 432.524381 343.730352 
L 432.734308 384.433046 
L 432.944235 369.567538 
L 433.154161 299.945042 
L 433.364088 304.954292 
L 433.574014 265.853746 
L 433.783941 248.027305 
L 433.993868 248.027305 
L 434.203794 288.953083 
L 434.623648 235.636001 
L 434.833574 214.787785 
L 435.253428 329.128488 
L 435.463354 278.77234 
L 435.673281 274.635145 
L 435.883207 278.77234 
L 436.303061 330.385871 
L 436.722914 292.421026 
L 436.932841 317.02111 
L 437.142767 317.02111 
L 437.352694 322.537369 
L 437.562621 318.501577 
L 437.772547 342.51353 
L 438.402327 261.899075 
L 438.612254 289.520934 
L 438.82218 289.520934 
L 439.032107 292.522428 
L 439.242034 303.412984 
L 439.45196 346.508762 
L 439.871814 314.81055 
L 440.08174 322.902416 
L 440.291667 318.278493 
L 440.501594 358.332215 
L 440.921447 343.243623 
L 441.3413 366.768848 
L 441.551227 379.525198 
L 441.97108 300.594013 
L 442.181007 291.062241 
L 442.390933 291.062241 
L 442.60086 309.760739 
L 442.810787 261.655711 
L 443.23064 314.26298 
L 443.440566 411.000326 
L 443.650493 420.532098 
L 443.86042 301.668873 
L 444.280273 353.302685 
L 444.4902 371.838939 
L 444.700126 364.193241 
L 444.910053 346.366799 
L 445.11998 357.602122 
L 445.329906 334.158019 
L 445.539833 356.547543 
L 445.749759 328.215872 
L 445.959686 327.810265 
L 446.169613 366.91081 
L 446.379539 454.055543 
L 446.589466 434.626952 
L 446.799393 437.689288 
L 447.219246 427.954712 
L 447.849026 427.954712 
L 448.268879 394.492108 
L 448.688732 422.29649 
L 449.528439 345.31222 
L 449.738366 375.306882 
L 449.948292 378.125853 
L 450.158219 343.60867 
L 450.368146 378.125853 
L 450.578072 380.235011 
L 450.787999 336.267177 
L 450.997925 344.926893 
L 451.207852 362.023242 
L 451.417779 311.667093 
L 451.627705 335.090916 
L 452.047559 295.239997 
L 452.257485 277.413555 
L 452.467412 304.670367 
L 452.677339 300.533172 
L 452.887265 308.097749 
L 453.097192 327.465498 
L 453.307118 321.908678 
L 453.517045 321.908678 
L 453.936898 349.996985 
L 454.146825 371.595575 
L 454.356752 366.038754 
L 454.566678 405.504347 
L 454.776605 370.987164 
L 454.986532 376.543984 
L 455.196458 371.372491 
L 455.616312 318.440735 
L 455.826238 363.706512 
L 456.036165 359.569318 
L 456.246091 391.145848 
L 456.456018 346.589883 
L 456.665945 330.629235 
L 456.875871 375.1852 
L 457.085798 387.110055 
L 457.295725 362.509971 
L 457.505651 362.509971 
L 457.715578 367.803146 
L 457.925505 377.98389 
L 458.135431 428.177796 
L 458.345358 433.734616 
L 458.555284 434.140223 
L 458.765211 406.640047 
L 458.975138 430.570879 
L 459.394991 343.710071 
L 459.604918 343.710071 
L 459.814844 346.305958 
L 460.024771 360.664457 
L 460.234698 336.125215 
L 460.444624 368.269595 
L 460.654551 344.257641 
L 460.864477 344.257641 
L 461.074404 337.443438 
L 461.284331 345.474463 
L 461.494257 339.917643 
L 461.704184 330.385871 
L 461.914111 334.908393 
L 462.124037 350.889321 
L 462.543891 303.818592 
L 462.753817 358.879785 
L 462.963744 308.523636 
L 463.383597 355.675487 
L 463.593524 328.175311 
L 463.80345 328.175311 
L 464.013377 344.135959 
L 464.223304 315.398681 
L 464.43323 342.898857 
L 464.643157 329.899142 
L 464.853084 342.655492 
L 465.06301 324.829051 
L 465.272937 353.099881 
L 465.482864 312.174102 
L 465.69279 342.148483 
L 465.902717 314.891671 
L 466.742423 392.747996 
L 466.95235 368.411557 
L 467.162277 323.855593 
L 467.372203 305.157096 
L 467.58213 316.980549 
L 467.792057 361.536513 
L 468.001983 365.673708 
L 468.421836 329.311012 
L 468.631763 366.91081 
L 468.84169 361.35399 
L 469.051616 376.929311 
L 469.681396 459.97741 
L 469.891323 410.919204 
L 470.521103 358.636421 
L 470.731029 374.617349 
L 470.940956 380.17417 
L 471.150883 341.783437 
L 471.360809 360.481934 
L 471.570736 344.521286 
L 471.780663 340.485493 
L 471.990589 296.416258 
L 472.200516 296.416258 
L 472.410443 312.376906 
L 472.620369 308.239711 
L 473.040223 292.745512 
L 473.460076 317.507839 
L 473.879929 242.997774 
L 474.299782 337.52456 
L 474.509709 303.007377 
L 474.719636 337.52456 
L 474.929562 345.474463 
L 475.139489 342.635212 
L 475.349416 298.079248 
L 475.769269 298.079248 
L 475.979195 258.978702 
L 476.189122 325.619985 
L 476.399049 325.619985 
L 476.608975 323.064659 
L 477.028829 277.69748 
L 477.238755 305.136815 
L 477.448682 349.692779 
L 477.868535 291.244765 
L 478.078462 285.769066 
L 478.288388 308.259992 
L 478.498315 312.721672 
L 478.708242 347.238855 
L 478.918168 347.238855 
L 479.128095 360.603616 
L 479.338022 252.164499 
L 479.547948 286.681682 
L 479.757875 286.681682 
L 479.967802 319.515595 
L 480.387655 319.515595 
L 480.597581 339.18755 
L 480.807508 325.90391 
L 481.017435 347.5025 
L 481.227361 351.639695 
L 481.437288 325.478022 
L 481.647215 284.552244 
L 481.857141 332.251665 
L 482.067068 332.251665 
L 482.276995 305.157096 
L 482.486921 346.082874 
L 482.696848 330.122226 
L 482.906775 302.987097 
L 483.116701 329.77746 
L 483.326628 331.947459 
L 483.536554 338.6197 
L 483.746481 328.885124 
L 483.956408 328.885124 
L 484.166334 367.275857 
L 484.586188 320.387651 
L 484.796114 312.255224 
L 485.006041 336.186056 
L 485.215968 317.649801 
L 485.425894 279.259068 
L 485.635821 261.432627 
L 485.845747 335.719607 
L 486.055674 316.351858 
L 486.265601 364.456886 
L 486.475527 346.630444 
L 486.685454 342.49325 
L 486.895381 368.654922 
L 487.105307 352.673993 
L 487.315234 328.033349 
L 487.525161 337.565121 
L 487.735087 365.065297 
L 488.15494 276.318415 
L 488.364867 274.858229 
L 488.574794 313.248962 
L 488.78472 285.748785 
L 488.994647 286.01243 
L 489.204574 316.838587 
L 489.624427 305.92775 
L 489.834354 295.037193 
L 490.04428 311.322327 
L 490.254207 339.593157 
L 490.464134 330.061385 
L 490.883987 340.424652 
L 491.093913 321.726155 
L 491.30384 321.888398 
L 491.513767 343.486987 
L 491.723693 343.08138 
L 491.93362 324.281481 
L 492.143547 348.212313 
L 492.353473 351.051564 
L 492.5634 356.851749 
L 492.773327 375.388003 
L 493.19318 290.514671 
L 493.403106 354.255862 
L 493.82296 354.255862 
L 494.032886 330.730637 
L 494.242813 321.665314 
L 494.45274 325.092695 
L 494.662666 340.242129 
L 494.872593 331.176805 
L 495.08252 352.775395 
L 495.502373 297.247753 
L 495.712299 291.690933 
L 495.922226 318.947745 
L 496.132153 367.052773 
L 496.342079 343.486987 
L 496.552006 367.417819 
L 496.761933 340.161007 
L 496.971859 352.47119 
L 497.181786 357.581842 
L 497.391713 353.444647 
L 497.601639 345.880071 
L 498.021492 375.631368 
L 498.231419 343.486987 
L 498.441346 333.955215 
L 498.651272 338.09241 
L 498.861199 329.027087 
L 499.071126 324.889892 
L 499.281052 323.936715 
L 499.490979 279.968881 
L 499.700906 339.146989 
L 499.910832 326.147275 
L 500.120759 373.785854 
L 500.540612 347.52278 
L 500.750539 360.522495 
L 500.960465 317.426717 
L 501.170392 326.492041 
L 501.380319 313.492326 
L 501.590245 313.492326 
L 501.800172 323.206621 
L 502.220025 354.620908 
L 502.429952 335.922411 
L 502.639879 330.690077 
L 503.059732 396.337621 
L 503.479585 386.745008 
L 503.689512 368.918566 
L 503.899438 394.776033 
L 504.319292 331.663534 
L 504.529218 349.489976 
L 504.739145 383.702953 
L 504.949072 383.702953 
L 505.158998 339.146989 
L 505.368925 333.590169 
L 505.788778 378.632862 
L 505.998705 360.096607 
L 506.208631 394.451547 
L 506.418558 395.68865 
L 506.628485 376.88875 
L 506.838411 333.792973 
L 507.048338 352.592872 
L 507.258265 401.630797 
L 507.468191 388.631082 
L 507.678118 431.72686 
L 507.888045 383.621832 
L 508.097971 405.220422 
L 508.307898 383.621832 
L 508.517824 383.621832 
L 508.727751 392.058464 
L 508.937678 392.058464 
L 509.147604 388.428279 
L 509.357531 364.416325 
L 509.567458 368.452118 
L 509.777384 358.920346 
L 509.987311 383.459589 
L 510.407164 404.0036 
L 510.617091 394.471828 
L 510.827017 407.836589 
L 511.036944 413.900418 
L 511.246871 409.864625 
L 511.456797 391.166128 
L 511.666724 417.3278 
L 512.296504 296.314856 
L 512.506431 313.350364 
L 512.716357 294.550464 
L 512.926284 288.121588 
L 513.13621 266.117391 
L 513.346137 270.254586 
L 513.556064 241.983756 
L 513.76599 241.983756 
L 513.975917 235.818524 
L 514.39577 235.818524 
L 514.605697 298.667379 
L 514.815624 298.667379 
L 515.02555 317.345596 
L 515.235477 272.789632 
L 515.65533 280.374488 
L 515.865257 267.374774 
L 516.075183 296.112052 
L 516.28511 277.312153 
L 516.495037 271.755333 
L 516.704963 253.928891 
L 516.91489 261.878795 
L 517.124817 257.843002 
L 517.334743 298.829622 
L 517.54467 298.829622 
L 517.754597 326.086433 
L 517.964523 313.086719 
L 518.17445 285.829907 
L 518.594303 358.920346 
L 518.80423 331.42017 
L 519.014156 358.920346 
L 519.224083 368.452118 
L 519.43401 350.443153 
L 519.643936 350.443153 
L 519.853863 360.076327 
L 520.06379 347.036052 
L 520.273716 357.703524 
L 520.483643 353.667731 
L 520.693569 353.667731 
L 520.903496 336.307738 
L 521.113423 336.307738 
L 521.323349 360.23857 
L 521.743203 298.464575 
L 521.953129 293.455325 
L 522.163056 274.655425 
L 522.372983 274.655425 
L 522.582909 320.184847 
L 522.792836 328.317274 
L 523.002762 289.216728 
L 523.212689 303.696909 
L 523.632542 303.595508 
L 524.262322 363.767353 
L 524.472249 324.666808 
L 524.892102 309.172608 
L 525.102029 289.33841 
L 525.311955 289.33841 
L 525.521882 347.806705 
L 525.731809 345.231099 
L 525.941735 330.8726 
L 526.151662 303.372424 
L 526.361589 326.268957 
L 526.571515 329.818021 
L 527.411222 272.566548 
L 527.831075 318.623259 
L 528.250928 276.784864 
L 528.460855 302.946536 
L 528.670782 263.84599 
L 528.880708 263.84599 
L 529.090635 245.147493 
L 529.300562 256.707301 
L 529.510488 279.34019 
L 529.720415 279.34019 
L 529.930342 275.649163 
L 530.140268 281.064021 
L 530.350195 281.064021 
L 530.560121 325.619985 
L 530.770048 320.063165 
L 530.979975 346.97521 
L 531.189901 337.909887 
L 531.399828 343.243623 
L 531.609755 356.243338 
L 531.819681 352.207545 
L 532.029608 343.000259 
L 532.239535 303.899713 
L 532.869314 278.77234 
L 533.079241 273.215519 
L 533.289168 284.673926 
L 533.499094 287.513177 
L 533.918948 287.513177 
L 534.128874 303.473825 
L 534.338801 299.438033 
L 534.548728 333.529328 
L 534.758654 306.029151 
L 534.968581 310.064944 
L 535.178508 305.92775 
L 535.388434 313.208401 
L 535.598361 340.30297 
L 536.018214 409.398177 
L 536.228141 390.861922 
L 536.438067 394.999117 
L 536.857921 337.098672 
L 537.067847 327.5669 
L 537.277774 370.662678 
L 537.487701 366.525483 
L 537.697627 385.325383 
L 537.907554 366.525483 
L 538.11748 405.626029 
L 538.327407 400.069209 
L 538.537334 400.069209 
L 538.74726 393.903977 
L 538.957187 393.903977 
L 539.167114 348.982967 
L 539.37704 368.55352 
L 539.586967 352.572591 
L 539.796894 350.017265 
L 540.00682 350.017265 
L 540.426673 326.167555 
L 540.6366 329.716619 
L 540.846527 279.36047 
L 541.056453 329.716619 
L 541.26638 329.716619 
L 541.476307 279.36047 
L 541.686233 279.36047 
L 541.89616 261.534028 
L 542.106087 278.589816 
L 542.316013 283.092058 
L 542.52594 301.222705 
L 542.735866 301.222705 
L 542.945793 320.752697 
L 543.365646 299.985602 
L 543.575573 279.664676 
L 543.7855 277.068789 
L 543.995426 242.551606 
L 544.205353 252.73235 
L 544.625206 215.233953 
L 544.835133 260.053562 
L 545.04506 260.053562 
L 545.254986 240.361326 
L 545.464913 274.878509 
L 545.674839 273.357482 
L 545.884766 323.794752 
L 546.094693 323.794752 
L 546.304619 358.311935 
L 546.514546 335.821009 
L 546.724473 350.078106 
L 546.934399 351.558573 
L 547.144326 302.500368 
L 547.354253 319.495314 
L 547.564179 295.483361 
L 548.193959 375.469125 
L 548.403886 381.898001 
L 548.613812 399.399957 
L 548.823739 399.399957 
L 549.453519 367.316418 
L 549.873372 326.208116 
L 550.503152 326.208116 
L 550.713079 331.764936 
L 551.132932 331.764936 
L 551.342859 327.343816 
L 551.762712 371.960621 
L 551.972639 346.468201 
L 552.182565 337.402878 
L 552.392492 337.402878 
L 552.602419 298.302332 
L 552.812345 305.441021 
L 553.022272 286.641122 
L 553.861978 286.641122 
L 554.281832 308.70616 
L 554.701685 281.814394 
L 554.911612 243.423662 
L 555.121538 243.423662 
L 555.331465 255.490479 
L 555.541391 304.548685 
L 555.751318 281.104582 
L 555.961245 277.068789 
L 556.171171 277.068789 
L 556.381098 306.150834 
L 556.591025 351.680255 
L 556.800951 338.680541 
L 557.010878 348.658481 
L 557.220805 378.389497 
L 557.430731 343.872314 
L 557.640658 334.340542 
L 557.850584 300.776537 
L 558.060511 304.244479 
L 558.270438 304.244479 
L 558.480364 332.231384 
L 558.900218 332.231384 
L 559.110144 333.65101 
L 559.320071 351.132685 
L 559.949851 275.568042 
L 560.159777 324.626247 
L 560.369704 306.089993 
L 560.579631 300.533172 
L 560.789557 319.069427 
L 560.999484 301.242985 
L 561.209411 269.666455 
L 561.419337 269.666455 
L 561.629264 337.849046 
L 561.839191 299.458313 
L 562.049117 311.606252 
L 562.259044 287.67542 
L 562.468971 293.232241 
L 562.678897 293.232241 
L 563.09875 262.872533 
L 563.308677 305.96831 
L 563.938457 258.998983 
L 564.148384 258.998983 
L 564.35831 284.288599 
L 564.568237 279.279349 
L 564.778164 279.279349 
L 564.98809 255.105152 
L 565.198017 279.279349 
L 565.407943 279.279349 
L 565.61787 284.410281 
L 566.037723 341.600913 
L 566.24765 317.58896 
L 566.457577 317.58896 
L 566.667503 300.675135 
L 566.87743 261.574589 
L 567.087357 277.555518 
L 567.297283 261.59487 
L 567.50721 261.59487 
L 567.717136 280.293367 
L 567.927063 332.474749 
L 568.13699 331.237646 
L 568.346916 336.40914 
L 568.556843 303.311582 
L 568.76677 328.256433 
L 568.976696 333.12372 
L 569.39655 246.627959 
L 570.02633 246.627959 
L 570.236256 245.330016 
L 570.446183 314.79027 
L 570.656109 331.318768 
L 570.866036 327.282975 
L 571.075963 345.981472 
L 571.285889 327.445218 
L 571.495816 321.279987 
L 571.915669 374.029219 
L 572.125596 364.497447 
L 572.335523 243.808989 
L 572.545449 243.808989 
L 572.755376 265.610382 
L 572.965302 274.675706 
L 573.175229 274.675706 
L 573.385156 273.661687 
L 573.595082 251.292444 
L 573.805009 251.292444 
L 574.014936 312.05242 
L 574.224862 312.05242 
L 574.434789 306.4956 
L 574.644716 286.965607 
L 574.854642 237.907402 
L 575.064569 245.512539 
L 575.274495 265.042532 
L 575.694349 265.042532 
L 575.904275 322.070921 
L 576.114202 308.929244 
L 576.324129 318.095969 
L 576.534055 318.095969 
L 576.743982 279.705236 
L 576.953909 279.705236 
L 577.163835 291.974858 
L 577.373762 291.974858 
L 577.583688 337.382597 
L 577.793615 318.6841 
L 578.003542 318.217651 
L 578.213468 363.240064 
L 578.423395 354.681749 
L 578.633322 392.97108 
L 578.843248 358.453898 
L 579.053175 367.98567 
L 579.263102 365.572306 
L 579.473028 321.016342 
L 579.682955 316.980549 
L 580.102808 284.065515 
L 580.522661 284.065515 
L 580.732588 287.391495 
L 580.942515 288.871962 
L 581.152441 271.370006 
L 581.572295 271.370006 
L 581.782221 322.01008 
L 581.992148 309.010365 
L 582.202075 309.010365 
L 582.412001 262.791411 
L 583.671561 262.690009 
L 583.881488 289.946821 
L 584.091414 271.410567 
L 584.301341 271.410567 
L 584.511268 275.547761 
L 584.721194 226.489556 
L 584.931121 222.149558 
L 585.141047 271.207763 
L 585.350974 271.207763 
L 585.560901 265.590102 
L 586.190681 265.590102 
L 586.610534 217.241709 
L 587.660167 217.241709 
L 587.870094 240.685812 
L 588.08002 240.685812 
L 588.289947 224.704884 
L 588.499874 273.763089 
L 588.7098 273.763089 
L 588.919727 264.697766 
L 589.129654 264.697766 
L 589.33958 275.46664 
L 589.549507 257.234591 
L 590.389213 257.234591 
L 590.59914 266.299914 
L 590.809067 293.232241 
L 591.018993 265.975429 
L 591.22892 265.975429 
L 591.438847 258.025525 
L 591.8587 258.025525 
L 592.068627 280.151404 
L 592.48848 266.482438 
L 592.698406 266.482438 
L 592.908333 221.926474 
L 593.538113 221.926474 
L 593.74804 262.304682 
L 593.957966 262.304682 
L 594.37782 245.127212 
L 594.587746 252.77291 
L 594.797673 252.77291 
L 595.637379 313.005597 
L 595.847306 307.448777 
L 596.267159 318.400175 
L 596.477086 268.044026 
L 596.687013 282.990656 
L 597.946572 282.990656 
L 598.156499 311.261486 
L 598.366426 289.662896 
L 598.786279 289.662896 
L 598.996206 260.337487 
L 599.625986 260.337487 
L 599.835912 265.306177 
L 600.045839 265.306177 
L 600.255765 248.372071 
L 600.465692 262.73057 
L 600.675619 262.73057 
L 600.885545 268.023746 
L 601.095472 262.466925 
L 601.515325 262.466925 
L 601.725252 268.023746 
L 601.935179 268.023746 
L 602.145105 258.958422 
L 602.355032 236.467496 
L 602.564958 234.297497 
L 602.774885 234.297497 
L 602.984812 195.196951 
L 605.713858 195.196951 
L 605.923785 204.262275 
L 606.133711 222.798529 
L 606.553565 188.991159 
L 611.171951 188.991159 
L 611.381877 154.473976 
L 615.790337 154.473976 
L 616.000263 151.756407 
L 617.049897 151.756407 
L 617.259823 132.956508 
L 618.72931 132.956508 
L 618.939236 155.285191 
L 619.149163 155.285191 
L 619.35909 190.654149 
L 619.569016 186.618356 
L 619.778943 192.175177 
L 620.198796 162.525282 
L 623.557622 162.525282 
L 623.767549 156.562854 
L 624.607256 156.562854 
L 624.817182 147.49753 
L 626.496595 147.49753 
L 626.706522 130.441743 
L 631.534835 130.441743 
L 631.744761 133.950246 
L 633.214248 133.950246 
L 633.424174 116.123804 
L 637.622707 116.123804 
L 637.832634 129.813051 
L 646.019773 129.813051 
L 646.229699 135.613236 
L 653.577132 135.613236 
L 653.787058 126.081464 
L 663.02383 126.081464 
L 663.233757 123.911465 
L 688.0051 123.911465 
L 688.215027 121.741466 
L 691.154 121.741466 
L 691.363927 117.827355 
L 700.180845 117.827355 
L 700.390772 111.864927 
L 700.810625 111.864927 
L 701.020552 106.308107 
L 717.604756 106.308107 
L 717.814683 101.298857 
L 788.979814 101.298857 
L 789.18974 88.887273 
L 871.690909 88.887273 
L 871.690909 88.887273 
" style="fill:none;stroke:#8dd3c7;stroke-linecap:square;stroke-width:1.5;"/>
   </g>
   <g id="line2d_19">
    <path clip-path="url(#p7f276401b7)" d="M 161.509091 286.620841 
L 161.928944 286.620841 
L 162.138871 284.491403 
L 162.348797 284.491403 
L 162.558724 266.664961 
L 169.69623 266.664961 
L 169.906156 263.501224 
L 170.116083 224.400678 
L 186.700288 224.400678 
L 186.910214 224.137034 
L 327.561062 224.137034 
L 327.770989 223.021613 
L 404.604138 223.021613 
L 404.814065 213.38844 
L 602.774885 213.38844 
L 602.984812 195.196951 
L 606.343638 195.196951 
L 606.553565 188.991159 
L 611.171951 188.991159 
L 611.381877 154.473976 
L 615.790337 154.473976 
L 616.000263 151.756407 
L 617.049897 151.756407 
L 617.259823 132.956508 
L 626.496595 132.956508 
L 626.706522 130.441743 
L 633.214248 130.441743 
L 633.424174 116.123804 
L 700.180845 116.123804 
L 700.390772 111.864927 
L 700.810625 111.864927 
L 701.020552 106.308107 
L 717.604756 106.308107 
L 717.814683 101.298857 
L 788.979814 101.298857 
L 789.18974 88.887273 
L 871.690909 88.887273 
L 871.690909 88.887273 
" style="fill:none;stroke:#feffb3;stroke-linecap:square;stroke-width:1.5;"/>
   </g>
   <g id="line2d_20">
    <path clip-path="url(#p7f276401b7)" d="M 161.509091 345.904407 
L 162.978577 345.904407 
L 163.188504 352.406392 
L 164.65799 352.406392 
L 164.867917 358.602758 
L 166.337404 358.602758 
L 166.54733 364.50787 
L 168.016817 364.50787 
L 168.226743 370.135418 
L 169.69623 370.135418 
L 169.906156 375.498448 
L 171.375643 375.498448 
L 171.58557 380.609395 
L 173.055056 380.609395 
L 173.264983 385.480107 
L 174.734469 385.480107 
L 174.944396 390.121875 
L 176.413882 390.121875 
L 176.623809 394.545463 
L 178.093295 394.545463 
L 178.303222 398.761123 
L 179.772708 398.761123 
L 179.982635 402.778631 
L 181.452122 402.778631 
L 181.662048 406.6073 
L 183.131535 406.6073 
L 183.341461 410.256006 
L 184.810948 410.256006 
L 185.020874 413.733208 
L 186.490361 413.733208 
L 186.700288 417.046968 
L 188.169774 417.046968 
L 188.379701 420.204968 
L 189.849187 420.204968 
L 190.059114 423.214529 
L 191.5286 423.214529 
L 191.738527 426.082629 
L 193.208013 426.082629 
L 193.41794 428.815916 
L 194.887426 428.815916 
L 195.097353 431.420728 
L 196.56684 431.420728 
L 196.776766 433.903104 
L 198.246253 433.903104 
L 198.456179 436.268798 
L 199.925666 436.268798 
L 200.135592 438.523295 
L 201.605079 438.523295 
L 201.815006 440.671821 
L 203.284492 440.671821 
L 203.494419 442.719358 
L 204.963905 442.719358 
L 205.173832 444.670653 
L 206.643318 444.670653 
L 206.853245 446.530229 
L 208.322731 446.530229 
L 208.532658 448.302397 
L 210.002144 448.302397 
L 210.212071 449.991267 
L 211.681558 449.991267 
L 211.891484 451.600753 
L 213.360971 451.600753 
L 213.570897 453.134586 
L 215.040384 453.134586 
L 215.25031 454.596323 
L 216.719797 454.596323 
L 216.929723 455.989353 
L 218.39921 455.989353 
L 218.609137 457.316905 
L 220.078623 457.316905 
L 220.28855 458.582056 
L 221.758036 458.582056 
L 221.967963 459.787741 
L 223.437449 459.787741 
L 223.647376 460.936753 
L 225.116862 460.936753 
L 225.326789 462.031757 
L 226.796275 462.031757 
L 227.006202 463.075291 
L 228.475689 463.075291 
L 228.685615 464.069776 
L 230.155102 464.069776 
L 230.365028 465.017515 
L 231.834515 465.017515 
L 232.044441 465.920707 
L 233.513928 465.920707 
L 233.723855 466.781445 
L 235.193341 466.781445 
L 235.403268 467.601726 
L 236.872754 467.601726 
L 237.082681 468.383449 
L 238.552167 468.383449 
L 238.762094 469.128429 
L 240.23158 469.128429 
L 240.441507 469.838391 
L 241.910993 469.838391 
L 242.12092 470.514983 
L 243.590407 470.514983 
L 243.800333 471.159772 
L 245.26982 471.159772 
L 245.479746 471.774253 
L 246.949233 471.774253 
L 247.159159 472.359851 
L 248.628646 472.359851 
L 248.838573 472.917924 
L 250.308059 472.917924 
L 250.517986 473.449765 
L 251.987472 473.449765 
L 252.197399 473.956608 
L 253.666885 473.956608 
L 253.876812 474.439626 
L 255.346298 474.439626 
L 255.556225 474.899941 
L 257.025711 474.899941 
L 257.235638 475.33862 
L 258.705125 475.33862 
L 258.915051 475.756678 
L 260.384538 475.756678 
L 260.594464 476.155087 
L 262.063951 476.155087 
L 262.273877 476.534768 
L 263.743364 476.534768 
L 263.953291 476.896603 
L 265.422777 476.896603 
L 265.632704 477.24143 
L 267.10219 477.24143 
L 267.312117 477.570049 
L 268.781603 477.570049 
L 268.99153 477.883222 
L 270.461016 477.883222 
L 270.670943 478.181674 
L 272.140429 478.181674 
L 272.350356 478.466098 
L 273.819843 478.466098 
L 274.029769 478.737152 
L 275.499256 478.737152 
L 275.709182 478.995467 
L 277.178669 478.995467 
L 277.388595 479.241639 
L 278.858082 479.241639 
L 279.068008 479.47624 
L 280.537495 479.47624 
L 280.747422 479.699814 
L 282.216908 479.699814 
L 282.426835 479.912879 
L 283.896321 479.912879 
L 284.106248 480.115929 
L 285.575734 480.115929 
L 285.785661 480.309435 
L 287.255147 480.309435 
L 287.465074 480.493846 
L 288.934561 480.493846 
L 289.144487 480.669588 
L 290.613974 480.669588 
L 290.8239 480.83707 
L 292.293387 480.83707 
L 292.503313 480.996679 
L 293.9728 480.996679 
L 294.182726 481.148787 
L 295.652213 481.148787 
L 295.86214 481.293744 
L 297.331626 481.293744 
L 297.541553 481.431888 
L 299.011039 481.431888 
L 299.220966 481.563539 
L 300.690452 481.563539 
L 301.110306 481.689001 
L 302.369865 481.689001 
L 302.789719 481.808567 
L 304.049278 481.808567 
L 304.469132 481.922512 
L 307.408105 482.031101 
L 307.827958 482.134587 
L 310.766931 482.233208 
L 311.186784 482.327193 
L 314.125757 482.416761 
L 314.54561 482.502119 
L 317.484583 482.583464 
L 317.904437 482.660986 
L 320.84341 482.734864 
L 321.263263 482.80527 
L 324.202236 482.872366 
L 324.622089 482.936308 
L 327.561062 482.997245 
L 327.980915 483.055318 
L 332.599301 483.163403 
L 333.229081 483.213665 
L 337.637541 483.307214 
L 338.267321 483.350716 
L 342.67578 483.431684 
L 343.30556 483.469336 
L 349.393432 483.572003 
L 350.233139 483.60306 
L 357.790498 483.713359 
L 358.840131 483.737771 
L 367.866977 483.843662 
L 369.336463 483.86195 
L 381.302281 483.968029 
L 383.401548 483.992328 
L 404.814065 484.097823 
L 409.012598 484.115966 
L 513.975917 484.226826 
L 602.145105 484.232267 
L 871.690909 484.232727 
L 871.690909 484.232727 
" style="fill:none;stroke:#bfbbd9;stroke-linecap:square;stroke-width:1.5;"/>
   </g>
   <g id="patch_3">
    <path d="M 126 504 
L 126 69.12 
" style="fill:none;stroke:#ffffff;stroke-linecap:square;stroke-linejoin:miter;stroke-width:0.8;"/>
   </g>
   <g id="patch_4">
    <path d="M 907.2 504 
L 907.2 69.12 
" style="fill:none;stroke:#ffffff;stroke-linecap:square;stroke-linejoin:miter;stroke-width:0.8;"/>
   </g>
   <g id="patch_5">
    <path d="M 126 504 
L 907.2 504 
" style="fill:none;stroke:#ffffff;stroke-linecap:square;stroke-linejoin:miter;stroke-width:0.8;"/>
   </g>
   <g id="patch_6">
    <path d="M 126 69.12 
L 907.2 69.12 
" style="fill:none;stroke:#ffffff;stroke-linecap:square;stroke-linejoin:miter;stroke-width:0.8;"/>
   </g>
   <g id="text_19">
    <!-- instance 20 with error 0.011159582022927883 -->
    <g style="fill:#ffffff;" transform="translate(374.229375 63.12)scale(0.12 -0.12)">
     <defs>
      <path d="M 2834 3397 
L 2834 2853 
Q 2591 2978 2328 3040 
Q 2066 3103 1784 3103 
Q 1356 3103 1142 2972 
Q 928 2841 928 2578 
Q 928 2378 1081 2264 
Q 1234 2150 1697 2047 
L 1894 2003 
Q 2506 1872 2764 1633 
Q 3022 1394 3022 966 
Q 3022 478 2636 193 
Q 2250 -91 1575 -91 
Q 1294 -91 989 -36 
Q 684 19 347 128 
L 347 722 
Q 666 556 975 473 
Q 1284 391 1588 391 
Q 1994 391 2212 530 
Q 2431 669 2431 922 
Q 2431 1156 2273 1281 
Q 2116 1406 1581 1522 
L 1381 1569 
Q 847 1681 609 1914 
Q 372 2147 372 2553 
Q 372 3047 722 3315 
Q 1072 3584 1716 3584 
Q 2034 3584 2315 3537 
Q 2597 3491 2834 3397 
z
" id="DejaVuSans-73" transform="scale(0.015625)"/>
      <path d="M 3122 3366 
L 3122 2828 
Q 2878 2963 2633 3030 
Q 2388 3097 2138 3097 
Q 1578 3097 1268 2742 
Q 959 2388 959 1747 
Q 959 1106 1268 751 
Q 1578 397 2138 397 
Q 2388 397 2633 464 
Q 2878 531 3122 666 
L 3122 134 
Q 2881 22 2623 -34 
Q 2366 -91 2075 -91 
Q 1284 -91 818 406 
Q 353 903 353 1747 
Q 353 2603 823 3093 
Q 1294 3584 2113 3584 
Q 2378 3584 2631 3529 
Q 2884 3475 3122 3366 
z
" id="DejaVuSans-63" transform="scale(0.015625)"/>
      <path id="DejaVuSans-20" transform="scale(0.015625)"/>
      <path d="M 269 3500 
L 844 3500 
L 1563 769 
L 2278 3500 
L 2956 3500 
L 3675 769 
L 4391 3500 
L 4966 3500 
L 4050 0 
L 3372 0 
L 2619 2869 
L 1863 0 
L 1184 0 
L 269 3500 
z
" id="DejaVuSans-77" transform="scale(0.015625)"/>
      <path d="M 3513 2113 
L 3513 0 
L 2938 0 
L 2938 2094 
Q 2938 2591 2744 2837 
Q 2550 3084 2163 3084 
Q 1697 3084 1428 2787 
Q 1159 2491 1159 1978 
L 1159 0 
L 581 0 
L 581 4863 
L 1159 4863 
L 1159 2956 
Q 1366 3272 1645 3428 
Q 1925 3584 2291 3584 
Q 2894 3584 3203 3211 
Q 3513 2838 3513 2113 
z
" id="DejaVuSans-68" transform="scale(0.015625)"/>
      <path d="M 684 794 
L 1344 794 
L 1344 0 
L 684 0 
L 684 794 
z
" id="DejaVuSans-2e" transform="scale(0.015625)"/>
      <path d="M 703 97 
L 703 672 
Q 941 559 1184 500 
Q 1428 441 1663 441 
Q 2288 441 2617 861 
Q 2947 1281 2994 2138 
Q 2813 1869 2534 1725 
Q 2256 1581 1919 1581 
Q 1219 1581 811 2004 
Q 403 2428 403 3163 
Q 403 3881 828 4315 
Q 1253 4750 1959 4750 
Q 2769 4750 3195 4129 
Q 3622 3509 3622 2328 
Q 3622 1225 3098 567 
Q 2575 -91 1691 -91 
Q 1453 -91 1209 -44 
Q 966 3 703 97 
z
M 1959 2075 
Q 2384 2075 2632 2365 
Q 2881 2656 2881 3163 
Q 2881 3666 2632 3958 
Q 2384 4250 1959 4250 
Q 1534 4250 1286 3958 
Q 1038 3666 1038 3163 
Q 1038 2656 1286 2365 
Q 1534 2075 1959 2075 
z
" id="DejaVuSans-39" transform="scale(0.015625)"/>
      <path d="M 2034 2216 
Q 1584 2216 1326 1975 
Q 1069 1734 1069 1313 
Q 1069 891 1326 650 
Q 1584 409 2034 409 
Q 2484 409 2743 651 
Q 3003 894 3003 1313 
Q 3003 1734 2745 1975 
Q 2488 2216 2034 2216 
z
M 1403 2484 
Q 997 2584 770 2862 
Q 544 3141 544 3541 
Q 544 4100 942 4425 
Q 1341 4750 2034 4750 
Q 2731 4750 3128 4425 
Q 3525 4100 3525 3541 
Q 3525 3141 3298 2862 
Q 3072 2584 2669 2484 
Q 3125 2378 3379 2068 
Q 3634 1759 3634 1313 
Q 3634 634 3220 271 
Q 2806 -91 2034 -91 
Q 1263 -91 848 271 
Q 434 634 434 1313 
Q 434 1759 690 2068 
Q 947 2378 1403 2484 
z
M 1172 3481 
Q 1172 3119 1398 2916 
Q 1625 2713 2034 2713 
Q 2441 2713 2670 2916 
Q 2900 3119 2900 3481 
Q 2900 3844 2670 4047 
Q 2441 4250 2034 4250 
Q 1625 4250 1398 4047 
Q 1172 3844 1172 3481 
z
" id="DejaVuSans-38" transform="scale(0.015625)"/>
     </defs>
     <use xlink:href="#DejaVuSans-69"/>
     <use x="27.783203" xlink:href="#DejaVuSans-6e"/>
     <use x="91.162109" xlink:href="#DejaVuSans-73"/>
     <use x="143.261719" xlink:href="#DejaVuSans-74"/>
     <use x="182.470703" xlink:href="#DejaVuSans-61"/>
     <use x="243.75" xlink:href="#DejaVuSans-6e"/>
     <use x="307.128906" xlink:href="#DejaVuSans-63"/>
     <use x="362.109375" xlink:href="#DejaVuSans-65"/>
     <use x="423.632812" xlink:href="#DejaVuSans-20"/>
     <use x="455.419922" xlink:href="#DejaVuSans-32"/>
     <use x="519.042969" xlink:href="#DejaVuSans-30"/>
     <use x="582.666016" xlink:href="#DejaVuSans-20"/>
     <use x="614.453125" xlink:href="#DejaVuSans-77"/>
     <use x="696.240234" xlink:href="#DejaVuSans-69"/>
     <use x="724.023438" xlink:href="#DejaVuSans-74"/>
     <use x="763.232422" xlink:href="#DejaVuSans-68"/>
     <use x="826.611328" xlink:href="#DejaVuSans-20"/>
     <use x="858.398438" xlink:href="#DejaVuSans-65"/>
     <use x="919.921875" xlink:href="#DejaVuSans-72"/>
     <use x="959.285156" xlink:href="#DejaVuSans-72"/>
     <use x="998.148438" xlink:href="#DejaVuSans-6f"/>
     <use x="1059.330078" xlink:href="#DejaVuSans-72"/>
     <use x="1100.443359" xlink:href="#DejaVuSans-20"/>
     <use x="1132.230469" xlink:href="#DejaVuSans-30"/>
     <use x="1195.853516" xlink:href="#DejaVuSans-2e"/>
     <use x="1227.640625" xlink:href="#DejaVuSans-30"/>
     <use x="1291.263672" xlink:href="#DejaVuSans-31"/>
     <use x="1354.886719" xlink:href="#DejaVuSans-31"/>
     <use x="1418.509766" xlink:href="#DejaVuSans-31"/>
     <use x="1482.132812" xlink:href="#DejaVuSans-35"/>
     <use x="1545.755859" xlink:href="#DejaVuSans-39"/>
     <use x="1609.378906" xlink:href="#DejaVuSans-35"/>
     <use x="1673.001953" xlink:href="#DejaVuSans-38"/>
     <use x="1736.625" xlink:href="#DejaVuSans-32"/>
     <use x="1800.248047" xlink:href="#DejaVuSans-30"/>
     <use x="1863.871094" xlink:href="#DejaVuSans-32"/>
     <use x="1927.494141" xlink:href="#DejaVuSans-32"/>
     <use x="1991.117188" xlink:href="#DejaVuSans-39"/>
     <use x="2054.740234" xlink:href="#DejaVuSans-32"/>
     <use x="2118.363281" xlink:href="#DejaVuSans-37"/>
     <use x="2181.986328" xlink:href="#DejaVuSans-38"/>
     <use x="2245.609375" xlink:href="#DejaVuSans-38"/>
     <use x="2309.232422" xlink:href="#DejaVuSans-33"/>
    </g>
   </g>
   <g id="legend_1">
    <g id="patch_7">
     <path d="M 805.348438 499 
L 900.2 499 
Q 902.2 499 902.2 497 
L 902.2 453.965625 
Q 902.2 451.965625 900.2 451.965625 
L 805.348438 451.965625 
Q 803.348438 451.965625 803.348438 453.965625 
L 803.348438 497 
Q 803.348438 499 805.348438 499 
z
" style="opacity:0.8;stroke:#cccccc;stroke-linejoin:miter;"/>
    </g>
    <g id="line2d_21">
     <path d="M 807.348438 460.064062 
L 827.348438 460.064062 
" style="fill:none;stroke:#8dd3c7;stroke-linecap:square;stroke-width:1.5;"/>
    </g>
    <g id="line2d_22"/>
    <g id="text_20">
     <!-- cost -->
     <g style="fill:#ffffff;" transform="translate(835.348438 463.564062)scale(0.1 -0.1)">
      <use xlink:href="#DejaVuSans-63"/>
      <use x="54.980469" xlink:href="#DejaVuSans-6f"/>
      <use x="116.162109" xlink:href="#DejaVuSans-73"/>
      <use x="168.261719" xlink:href="#DejaVuSans-74"/>
     </g>
    </g>
    <g id="line2d_23">
     <path d="M 807.348438 474.742188 
L 827.348438 474.742188 
" style="fill:none;stroke:#feffb3;stroke-linecap:square;stroke-width:1.5;"/>
    </g>
    <g id="line2d_24"/>
    <g id="text_21">
     <!-- best cost -->
     <g style="fill:#ffffff;" transform="translate(835.348438 478.242188)scale(0.1 -0.1)">
      <defs>
       <path d="M 3116 1747 
Q 3116 2381 2855 2742 
Q 2594 3103 2138 3103 
Q 1681 3103 1420 2742 
Q 1159 2381 1159 1747 
Q 1159 1113 1420 752 
Q 1681 391 2138 391 
Q 2594 391 2855 752 
Q 3116 1113 3116 1747 
z
M 1159 2969 
Q 1341 3281 1617 3432 
Q 1894 3584 2278 3584 
Q 2916 3584 3314 3078 
Q 3713 2572 3713 1747 
Q 3713 922 3314 415 
Q 2916 -91 2278 -91 
Q 1894 -91 1617 61 
Q 1341 213 1159 525 
L 1159 0 
L 581 0 
L 581 4863 
L 1159 4863 
L 1159 2969 
z
" id="DejaVuSans-62" transform="scale(0.015625)"/>
      </defs>
      <use xlink:href="#DejaVuSans-62"/>
      <use x="63.476562" xlink:href="#DejaVuSans-65"/>
      <use x="125" xlink:href="#DejaVuSans-73"/>
      <use x="177.099609" xlink:href="#DejaVuSans-74"/>
      <use x="216.308594" xlink:href="#DejaVuSans-20"/>
      <use x="248.095703" xlink:href="#DejaVuSans-63"/>
      <use x="303.076172" xlink:href="#DejaVuSans-6f"/>
      <use x="364.257812" xlink:href="#DejaVuSans-73"/>
      <use x="416.357422" xlink:href="#DejaVuSans-74"/>
     </g>
    </g>
    <g id="line2d_25">
     <path d="M 807.348438 489.420313 
L 827.348438 489.420313 
" style="fill:none;stroke:#bfbbd9;stroke-linecap:square;stroke-width:1.5;"/>
    </g>
    <g id="line2d_26"/>
    <g id="text_22">
     <!-- temperature -->
     <g style="fill:#ffffff;" transform="translate(835.348438 492.920313)scale(0.1 -0.1)">
      <defs>
       <path d="M 3328 2828 
Q 3544 3216 3844 3400 
Q 4144 3584 4550 3584 
Q 5097 3584 5394 3201 
Q 5691 2819 5691 2113 
L 5691 0 
L 5113 0 
L 5113 2094 
Q 5113 2597 4934 2840 
Q 4756 3084 4391 3084 
Q 3944 3084 3684 2787 
Q 3425 2491 3425 1978 
L 3425 0 
L 2847 0 
L 2847 2094 
Q 2847 2600 2669 2842 
Q 2491 3084 2119 3084 
Q 1678 3084 1418 2786 
Q 1159 2488 1159 1978 
L 1159 0 
L 581 0 
L 581 3500 
L 1159 3500 
L 1159 2956 
Q 1356 3278 1631 3431 
Q 1906 3584 2284 3584 
Q 2666 3584 2933 3390 
Q 3200 3197 3328 2828 
z
" id="DejaVuSans-6d" transform="scale(0.015625)"/>
       <path d="M 1159 525 
L 1159 -1331 
L 581 -1331 
L 581 3500 
L 1159 3500 
L 1159 2969 
Q 1341 3281 1617 3432 
Q 1894 3584 2278 3584 
Q 2916 3584 3314 3078 
Q 3713 2572 3713 1747 
Q 3713 922 3314 415 
Q 2916 -91 2278 -91 
Q 1894 -91 1617 61 
Q 1341 213 1159 525 
z
M 3116 1747 
Q 3116 2381 2855 2742 
Q 2594 3103 2138 3103 
Q 1681 3103 1420 2742 
Q 1159 2381 1159 1747 
Q 1159 1113 1420 752 
Q 1681 391 2138 391 
Q 2594 391 2855 752 
Q 3116 1113 3116 1747 
z
" id="DejaVuSans-70" transform="scale(0.015625)"/>
       <path d="M 544 1381 
L 544 3500 
L 1119 3500 
L 1119 1403 
Q 1119 906 1312 657 
Q 1506 409 1894 409 
Q 2359 409 2629 706 
Q 2900 1003 2900 1516 
L 2900 3500 
L 3475 3500 
L 3475 0 
L 2900 0 
L 2900 538 
Q 2691 219 2414 64 
Q 2138 -91 1772 -91 
Q 1169 -91 856 284 
Q 544 659 544 1381 
z
M 1991 3584 
L 1991 3584 
z
" id="DejaVuSans-75" transform="scale(0.015625)"/>
      </defs>
      <use xlink:href="#DejaVuSans-74"/>
      <use x="39.208984" xlink:href="#DejaVuSans-65"/>
      <use x="100.732422" xlink:href="#DejaVuSans-6d"/>
      <use x="198.144531" xlink:href="#DejaVuSans-70"/>
      <use x="261.621094" xlink:href="#DejaVuSans-65"/>
      <use x="323.144531" xlink:href="#DejaVuSans-72"/>
      <use x="364.257812" xlink:href="#DejaVuSans-61"/>
      <use x="425.537109" xlink:href="#DejaVuSans-74"/>
      <use x="464.746094" xlink:href="#DejaVuSans-75"/>
      <use x="528.125" xlink:href="#DejaVuSans-72"/>
      <use x="566.988281" xlink:href="#DejaVuSans-65"/>
     </g>
    </g>
   </g>
  </g>
 </g>
 <defs>
  <clipPath id="p7f276401b7">
   <rect height="434.88" width="781.2" x="126" y="69.12"/>
  </clipPath>
 </defs>
</svg>
