<?xml version="1.0" encoding="utf-8" standalone="no"?>
<!DOCTYPE svg PUBLIC "-//W3C//DTD SVG 1.1//EN"
  "http://www.w3.org/Graphics/SVG/1.1/DTD/svg11.dtd">
<svg height="576pt" version="1.1" viewBox="0 0 1008 576" width="1008pt" xmlns="http://www.w3.org/2000/svg" xmlns:xlink="http://www.w3.org/1999/xlink">
 <metadata>
  <rdf:RDF xmlns:cc="http://creativecommons.org/ns#" xmlns:dc="http://purl.org/dc/elements/1.1/" xmlns:rdf="http://www.w3.org/1999/02/22-rdf-syntax-ns#">
   <cc:Work>
    <dc:type rdf:resource="http://purl.org/dc/dcmitype/StillImage"/>
    <dc:date>2022-01-08T03:45:59.550654</dc:date>
    <dc:format>image/svg+xml</dc:format>
    <dc:creator>
     <cc:Agent>
      <dc:title>Matplotlib v3.4.3, https://matplotlib.org/</dc:title>
     </cc:Agent>
    </dc:creator>
   </cc:Work>
  </rdf:RDF>
 </metadata>
 <defs>
  <style type="text/css">*{stroke-linecap:butt;stroke-linejoin:round;}</style>
 </defs>
 <g id="figure_1">
  <g id="patch_1">
   <path d="M 0 576 
L 1008 576 
L 1008 0 
L 0 0 
z
"/>
  </g>
  <g id="axes_1">
   <g id="patch_2">
    <path d="M 126 504 
L 907.2 504 
L 907.2 69.12 
L 126 69.12 
z
"/>
   </g>
   <g id="matplotlib.axis_1">
    <g id="xtick_1">
     <g id="line2d_1">
      <defs>
       <path d="M 0 0 
L 0 3.5 
" id="m088f8c54f2" style="stroke:#ffffff;stroke-width:0.8;"/>
      </defs>
      <g>
       <use style="fill:#ffffff;stroke:#ffffff;stroke-width:0.8;" x="161.509091" xlink:href="#m088f8c54f2" y="504"/>
      </g>
     </g>
     <g id="text_1">
      <!-- 0 -->
      <g style="fill:#ffffff;" transform="translate(158.327841 518.598438)scale(0.1 -0.1)">
       <defs>
        <path d="M 2034 4250 
Q 1547 4250 1301 3770 
Q 1056 3291 1056 2328 
Q 1056 1369 1301 889 
Q 1547 409 2034 409 
Q 2525 409 2770 889 
Q 3016 1369 3016 2328 
Q 3016 3291 2770 3770 
Q 2525 4250 2034 4250 
z
M 2034 4750 
Q 2819 4750 3233 4129 
Q 3647 3509 3647 2328 
Q 3647 1150 3233 529 
Q 2819 -91 2034 -91 
Q 1250 -91 836 529 
Q 422 1150 422 2328 
Q 422 3509 836 4129 
Q 1250 4750 2034 4750 
z
" id="DejaVuSans-30" transform="scale(0.015625)"/>
       </defs>
       <use xlink:href="#DejaVuSans-30"/>
      </g>
     </g>
    </g>
    <g id="xtick_2">
     <g id="line2d_2">
      <g>
       <use style="fill:#ffffff;stroke:#ffffff;stroke-width:0.8;" x="296.550319" xlink:href="#m088f8c54f2" y="504"/>
      </g>
     </g>
     <g id="text_2">
      <!-- 1000 -->
      <g style="fill:#ffffff;" transform="translate(283.825319 518.598438)scale(0.1 -0.1)">
       <defs>
        <path d="M 794 531 
L 1825 531 
L 1825 4091 
L 703 3866 
L 703 4441 
L 1819 4666 
L 2450 4666 
L 2450 531 
L 3481 531 
L 3481 0 
L 794 0 
L 794 531 
z
" id="DejaVuSans-31" transform="scale(0.015625)"/>
       </defs>
       <use xlink:href="#DejaVuSans-31"/>
       <use x="63.623047" xlink:href="#DejaVuSans-30"/>
       <use x="127.246094" xlink:href="#DejaVuSans-30"/>
       <use x="190.869141" xlink:href="#DejaVuSans-30"/>
      </g>
     </g>
    </g>
    <g id="xtick_3">
     <g id="line2d_3">
      <g>
       <use style="fill:#ffffff;stroke:#ffffff;stroke-width:0.8;" x="431.591547" xlink:href="#m088f8c54f2" y="504"/>
      </g>
     </g>
     <g id="text_3">
      <!-- 2000 -->
      <g style="fill:#ffffff;" transform="translate(418.866547 518.598438)scale(0.1 -0.1)">
       <defs>
        <path d="M 1228 531 
L 3431 531 
L 3431 0 
L 469 0 
L 469 531 
Q 828 903 1448 1529 
Q 2069 2156 2228 2338 
Q 2531 2678 2651 2914 
Q 2772 3150 2772 3378 
Q 2772 3750 2511 3984 
Q 2250 4219 1831 4219 
Q 1534 4219 1204 4116 
Q 875 4013 500 3803 
L 500 4441 
Q 881 4594 1212 4672 
Q 1544 4750 1819 4750 
Q 2544 4750 2975 4387 
Q 3406 4025 3406 3419 
Q 3406 3131 3298 2873 
Q 3191 2616 2906 2266 
Q 2828 2175 2409 1742 
Q 1991 1309 1228 531 
z
" id="DejaVuSans-32" transform="scale(0.015625)"/>
       </defs>
       <use xlink:href="#DejaVuSans-32"/>
       <use x="63.623047" xlink:href="#DejaVuSans-30"/>
       <use x="127.246094" xlink:href="#DejaVuSans-30"/>
       <use x="190.869141" xlink:href="#DejaVuSans-30"/>
      </g>
     </g>
    </g>
    <g id="xtick_4">
     <g id="line2d_4">
      <g>
       <use style="fill:#ffffff;stroke:#ffffff;stroke-width:0.8;" x="566.632775" xlink:href="#m088f8c54f2" y="504"/>
      </g>
     </g>
     <g id="text_4">
      <!-- 3000 -->
      <g style="fill:#ffffff;" transform="translate(553.907775 518.598438)scale(0.1 -0.1)">
       <defs>
        <path d="M 2597 2516 
Q 3050 2419 3304 2112 
Q 3559 1806 3559 1356 
Q 3559 666 3084 287 
Q 2609 -91 1734 -91 
Q 1441 -91 1130 -33 
Q 819 25 488 141 
L 488 750 
Q 750 597 1062 519 
Q 1375 441 1716 441 
Q 2309 441 2620 675 
Q 2931 909 2931 1356 
Q 2931 1769 2642 2001 
Q 2353 2234 1838 2234 
L 1294 2234 
L 1294 2753 
L 1863 2753 
Q 2328 2753 2575 2939 
Q 2822 3125 2822 3475 
Q 2822 3834 2567 4026 
Q 2313 4219 1838 4219 
Q 1578 4219 1281 4162 
Q 984 4106 628 3988 
L 628 4550 
Q 988 4650 1302 4700 
Q 1616 4750 1894 4750 
Q 2613 4750 3031 4423 
Q 3450 4097 3450 3541 
Q 3450 3153 3228 2886 
Q 3006 2619 2597 2516 
z
" id="DejaVuSans-33" transform="scale(0.015625)"/>
       </defs>
       <use xlink:href="#DejaVuSans-33"/>
       <use x="63.623047" xlink:href="#DejaVuSans-30"/>
       <use x="127.246094" xlink:href="#DejaVuSans-30"/>
       <use x="190.869141" xlink:href="#DejaVuSans-30"/>
      </g>
     </g>
    </g>
    <g id="xtick_5">
     <g id="line2d_5">
      <g>
       <use style="fill:#ffffff;stroke:#ffffff;stroke-width:0.8;" x="701.674003" xlink:href="#m088f8c54f2" y="504"/>
      </g>
     </g>
     <g id="text_5">
      <!-- 4000 -->
      <g style="fill:#ffffff;" transform="translate(688.949003 518.598438)scale(0.1 -0.1)">
       <defs>
        <path d="M 2419 4116 
L 825 1625 
L 2419 1625 
L 2419 4116 
z
M 2253 4666 
L 3047 4666 
L 3047 1625 
L 3713 1625 
L 3713 1100 
L 3047 1100 
L 3047 0 
L 2419 0 
L 2419 1100 
L 313 1100 
L 313 1709 
L 2253 4666 
z
" id="DejaVuSans-34" transform="scale(0.015625)"/>
       </defs>
       <use xlink:href="#DejaVuSans-34"/>
       <use x="63.623047" xlink:href="#DejaVuSans-30"/>
       <use x="127.246094" xlink:href="#DejaVuSans-30"/>
       <use x="190.869141" xlink:href="#DejaVuSans-30"/>
      </g>
     </g>
    </g>
    <g id="xtick_6">
     <g id="line2d_6">
      <g>
       <use style="fill:#ffffff;stroke:#ffffff;stroke-width:0.8;" x="836.715231" xlink:href="#m088f8c54f2" y="504"/>
      </g>
     </g>
     <g id="text_6">
      <!-- 5000 -->
      <g style="fill:#ffffff;" transform="translate(823.990231 518.598438)scale(0.1 -0.1)">
       <defs>
        <path d="M 691 4666 
L 3169 4666 
L 3169 4134 
L 1269 4134 
L 1269 2991 
Q 1406 3038 1543 3061 
Q 1681 3084 1819 3084 
Q 2600 3084 3056 2656 
Q 3513 2228 3513 1497 
Q 3513 744 3044 326 
Q 2575 -91 1722 -91 
Q 1428 -91 1123 -41 
Q 819 9 494 109 
L 494 744 
Q 775 591 1075 516 
Q 1375 441 1709 441 
Q 2250 441 2565 725 
Q 2881 1009 2881 1497 
Q 2881 1984 2565 2268 
Q 2250 2553 1709 2553 
Q 1456 2553 1204 2497 
Q 953 2441 691 2322 
L 691 4666 
z
" id="DejaVuSans-35" transform="scale(0.015625)"/>
       </defs>
       <use xlink:href="#DejaVuSans-35"/>
       <use x="63.623047" xlink:href="#DejaVuSans-30"/>
       <use x="127.246094" xlink:href="#DejaVuSans-30"/>
       <use x="190.869141" xlink:href="#DejaVuSans-30"/>
      </g>
     </g>
    </g>
    <g id="text_7">
     <!-- iteration -->
     <g style="fill:#ffffff;" transform="translate(495.477344 532.276562)scale(0.1 -0.1)">
      <defs>
       <path d="M 603 3500 
L 1178 3500 
L 1178 0 
L 603 0 
L 603 3500 
z
M 603 4863 
L 1178 4863 
L 1178 4134 
L 603 4134 
L 603 4863 
z
" id="DejaVuSans-69" transform="scale(0.015625)"/>
       <path d="M 1172 4494 
L 1172 3500 
L 2356 3500 
L 2356 3053 
L 1172 3053 
L 1172 1153 
Q 1172 725 1289 603 
Q 1406 481 1766 481 
L 2356 481 
L 2356 0 
L 1766 0 
Q 1100 0 847 248 
Q 594 497 594 1153 
L 594 3053 
L 172 3053 
L 172 3500 
L 594 3500 
L 594 4494 
L 1172 4494 
z
" id="DejaVuSans-74" transform="scale(0.015625)"/>
       <path d="M 3597 1894 
L 3597 1613 
L 953 1613 
Q 991 1019 1311 708 
Q 1631 397 2203 397 
Q 2534 397 2845 478 
Q 3156 559 3463 722 
L 3463 178 
Q 3153 47 2828 -22 
Q 2503 -91 2169 -91 
Q 1331 -91 842 396 
Q 353 884 353 1716 
Q 353 2575 817 3079 
Q 1281 3584 2069 3584 
Q 2775 3584 3186 3129 
Q 3597 2675 3597 1894 
z
M 3022 2063 
Q 3016 2534 2758 2815 
Q 2500 3097 2075 3097 
Q 1594 3097 1305 2825 
Q 1016 2553 972 2059 
L 3022 2063 
z
" id="DejaVuSans-65" transform="scale(0.015625)"/>
       <path d="M 2631 2963 
Q 2534 3019 2420 3045 
Q 2306 3072 2169 3072 
Q 1681 3072 1420 2755 
Q 1159 2438 1159 1844 
L 1159 0 
L 581 0 
L 581 3500 
L 1159 3500 
L 1159 2956 
Q 1341 3275 1631 3429 
Q 1922 3584 2338 3584 
Q 2397 3584 2469 3576 
Q 2541 3569 2628 3553 
L 2631 2963 
z
" id="DejaVuSans-72" transform="scale(0.015625)"/>
       <path d="M 2194 1759 
Q 1497 1759 1228 1600 
Q 959 1441 959 1056 
Q 959 750 1161 570 
Q 1363 391 1709 391 
Q 2188 391 2477 730 
Q 2766 1069 2766 1631 
L 2766 1759 
L 2194 1759 
z
M 3341 1997 
L 3341 0 
L 2766 0 
L 2766 531 
Q 2569 213 2275 61 
Q 1981 -91 1556 -91 
Q 1019 -91 701 211 
Q 384 513 384 1019 
Q 384 1609 779 1909 
Q 1175 2209 1959 2209 
L 2766 2209 
L 2766 2266 
Q 2766 2663 2505 2880 
Q 2244 3097 1772 3097 
Q 1472 3097 1187 3025 
Q 903 2953 641 2809 
L 641 3341 
Q 956 3463 1253 3523 
Q 1550 3584 1831 3584 
Q 2591 3584 2966 3190 
Q 3341 2797 3341 1997 
z
" id="DejaVuSans-61" transform="scale(0.015625)"/>
       <path d="M 1959 3097 
Q 1497 3097 1228 2736 
Q 959 2375 959 1747 
Q 959 1119 1226 758 
Q 1494 397 1959 397 
Q 2419 397 2687 759 
Q 2956 1122 2956 1747 
Q 2956 2369 2687 2733 
Q 2419 3097 1959 3097 
z
M 1959 3584 
Q 2709 3584 3137 3096 
Q 3566 2609 3566 1747 
Q 3566 888 3137 398 
Q 2709 -91 1959 -91 
Q 1206 -91 779 398 
Q 353 888 353 1747 
Q 353 2609 779 3096 
Q 1206 3584 1959 3584 
z
" id="DejaVuSans-6f" transform="scale(0.015625)"/>
       <path d="M 3513 2113 
L 3513 0 
L 2938 0 
L 2938 2094 
Q 2938 2591 2744 2837 
Q 2550 3084 2163 3084 
Q 1697 3084 1428 2787 
Q 1159 2491 1159 1978 
L 1159 0 
L 581 0 
L 581 3500 
L 1159 3500 
L 1159 2956 
Q 1366 3272 1645 3428 
Q 1925 3584 2291 3584 
Q 2894 3584 3203 3211 
Q 3513 2838 3513 2113 
z
" id="DejaVuSans-6e" transform="scale(0.015625)"/>
      </defs>
      <use xlink:href="#DejaVuSans-69"/>
      <use x="27.783203" xlink:href="#DejaVuSans-74"/>
      <use x="66.992188" xlink:href="#DejaVuSans-65"/>
      <use x="128.515625" xlink:href="#DejaVuSans-72"/>
      <use x="169.628906" xlink:href="#DejaVuSans-61"/>
      <use x="230.908203" xlink:href="#DejaVuSans-74"/>
      <use x="270.117188" xlink:href="#DejaVuSans-69"/>
      <use x="297.900391" xlink:href="#DejaVuSans-6f"/>
      <use x="359.082031" xlink:href="#DejaVuSans-6e"/>
     </g>
    </g>
   </g>
   <g id="matplotlib.axis_2">
    <g id="ytick_1">
     <g id="line2d_7">
      <defs>
       <path d="M 0 0 
L -3.5 0 
" id="m1f44724f3c" style="stroke:#ffffff;stroke-width:0.8;"/>
      </defs>
      <g>
       <use style="fill:#ffffff;stroke:#ffffff;stroke-width:0.8;" x="126" xlink:href="#m1f44724f3c" y="484.232727"/>
      </g>
     </g>
     <g id="text_8">
      <!-- 0 -->
      <g style="fill:#ffffff;" transform="translate(112.6375 488.031946)scale(0.1 -0.1)">
       <use xlink:href="#DejaVuSans-30"/>
      </g>
     </g>
    </g>
    <g id="ytick_2">
     <g id="line2d_8">
      <g>
       <use style="fill:#ffffff;stroke:#ffffff;stroke-width:0.8;" x="126" xlink:href="#m1f44724f3c" y="434.509994"/>
      </g>
     </g>
     <g id="text_9">
      <!-- 5000 -->
      <g style="fill:#ffffff;" transform="translate(93.55 438.309213)scale(0.1 -0.1)">
       <use xlink:href="#DejaVuSans-35"/>
       <use x="63.623047" xlink:href="#DejaVuSans-30"/>
       <use x="127.246094" xlink:href="#DejaVuSans-30"/>
       <use x="190.869141" xlink:href="#DejaVuSans-30"/>
      </g>
     </g>
    </g>
    <g id="ytick_3">
     <g id="line2d_9">
      <g>
       <use style="fill:#ffffff;stroke:#ffffff;stroke-width:0.8;" x="126" xlink:href="#m1f44724f3c" y="384.78726"/>
      </g>
     </g>
     <g id="text_10">
      <!-- 10000 -->
      <g style="fill:#ffffff;" transform="translate(87.1875 388.586479)scale(0.1 -0.1)">
       <use xlink:href="#DejaVuSans-31"/>
       <use x="63.623047" xlink:href="#DejaVuSans-30"/>
       <use x="127.246094" xlink:href="#DejaVuSans-30"/>
       <use x="190.869141" xlink:href="#DejaVuSans-30"/>
       <use x="254.492188" xlink:href="#DejaVuSans-30"/>
      </g>
     </g>
    </g>
    <g id="ytick_4">
     <g id="line2d_10">
      <g>
       <use style="fill:#ffffff;stroke:#ffffff;stroke-width:0.8;" x="126" xlink:href="#m1f44724f3c" y="335.064527"/>
      </g>
     </g>
     <g id="text_11">
      <!-- 15000 -->
      <g style="fill:#ffffff;" transform="translate(87.1875 338.863745)scale(0.1 -0.1)">
       <use xlink:href="#DejaVuSans-31"/>
       <use x="63.623047" xlink:href="#DejaVuSans-35"/>
       <use x="127.246094" xlink:href="#DejaVuSans-30"/>
       <use x="190.869141" xlink:href="#DejaVuSans-30"/>
       <use x="254.492188" xlink:href="#DejaVuSans-30"/>
      </g>
     </g>
    </g>
    <g id="ytick_5">
     <g id="line2d_11">
      <g>
       <use style="fill:#ffffff;stroke:#ffffff;stroke-width:0.8;" x="126" xlink:href="#m1f44724f3c" y="285.341793"/>
      </g>
     </g>
     <g id="text_12">
      <!-- 20000 -->
      <g style="fill:#ffffff;" transform="translate(87.1875 289.141012)scale(0.1 -0.1)">
       <use xlink:href="#DejaVuSans-32"/>
       <use x="63.623047" xlink:href="#DejaVuSans-30"/>
       <use x="127.246094" xlink:href="#DejaVuSans-30"/>
       <use x="190.869141" xlink:href="#DejaVuSans-30"/>
       <use x="254.492188" xlink:href="#DejaVuSans-30"/>
      </g>
     </g>
    </g>
    <g id="ytick_6">
     <g id="line2d_12">
      <g>
       <use style="fill:#ffffff;stroke:#ffffff;stroke-width:0.8;" x="126" xlink:href="#m1f44724f3c" y="235.61906"/>
      </g>
     </g>
     <g id="text_13">
      <!-- 25000 -->
      <g style="fill:#ffffff;" transform="translate(87.1875 239.418278)scale(0.1 -0.1)">
       <use xlink:href="#DejaVuSans-32"/>
       <use x="63.623047" xlink:href="#DejaVuSans-35"/>
       <use x="127.246094" xlink:href="#DejaVuSans-30"/>
       <use x="190.869141" xlink:href="#DejaVuSans-30"/>
       <use x="254.492188" xlink:href="#DejaVuSans-30"/>
      </g>
     </g>
    </g>
    <g id="ytick_7">
     <g id="line2d_13">
      <g>
       <use style="fill:#ffffff;stroke:#ffffff;stroke-width:0.8;" x="126" xlink:href="#m1f44724f3c" y="185.896326"/>
      </g>
     </g>
     <g id="text_14">
      <!-- 30000 -->
      <g style="fill:#ffffff;" transform="translate(87.1875 189.695545)scale(0.1 -0.1)">
       <use xlink:href="#DejaVuSans-33"/>
       <use x="63.623047" xlink:href="#DejaVuSans-30"/>
       <use x="127.246094" xlink:href="#DejaVuSans-30"/>
       <use x="190.869141" xlink:href="#DejaVuSans-30"/>
       <use x="254.492188" xlink:href="#DejaVuSans-30"/>
      </g>
     </g>
    </g>
    <g id="ytick_8">
     <g id="line2d_14">
      <g>
       <use style="fill:#ffffff;stroke:#ffffff;stroke-width:0.8;" x="126" xlink:href="#m1f44724f3c" y="136.173592"/>
      </g>
     </g>
     <g id="text_15">
      <!-- 35000 -->
      <g style="fill:#ffffff;" transform="translate(87.1875 139.972811)scale(0.1 -0.1)">
       <use xlink:href="#DejaVuSans-33"/>
       <use x="63.623047" xlink:href="#DejaVuSans-35"/>
       <use x="127.246094" xlink:href="#DejaVuSans-30"/>
       <use x="190.869141" xlink:href="#DejaVuSans-30"/>
       <use x="254.492188" xlink:href="#DejaVuSans-30"/>
      </g>
     </g>
    </g>
    <g id="ytick_9">
     <g id="line2d_15">
      <g>
       <use style="fill:#ffffff;stroke:#ffffff;stroke-width:0.8;" x="126" xlink:href="#m1f44724f3c" y="86.450859"/>
      </g>
     </g>
     <g id="text_16">
      <!-- 40000 -->
      <g style="fill:#ffffff;" transform="translate(87.1875 90.250078)scale(0.1 -0.1)">
       <use xlink:href="#DejaVuSans-34"/>
       <use x="63.623047" xlink:href="#DejaVuSans-30"/>
       <use x="127.246094" xlink:href="#DejaVuSans-30"/>
       <use x="190.869141" xlink:href="#DejaVuSans-30"/>
       <use x="254.492188" xlink:href="#DejaVuSans-30"/>
      </g>
     </g>
    </g>
   </g>
   <g id="line2d_16">
    <path clip-path="url(#p12ce9e63a1)" d="M 161.509091 288.225712 
L 161.779173 315.672661 
L 162.049256 335.959536 
L 162.319338 311.774398 
L 162.724462 364.480496 
L 162.859503 341.031255 
L 162.994544 212.865937 
L 163.129586 230.079947 
L 163.264627 232.566084 
L 163.399668 240.660945 
L 163.534709 259.227413 
L 163.669751 241.486342 
L 163.804792 244.807821 
L 164.074874 273.000611 
L 164.209915 262.867118 
L 164.344957 265.790814 
L 164.479998 246.498394 
L 164.885122 262.121276 
L 165.155204 286.84342 
L 165.290245 271.180759 
L 165.560328 311.913622 
L 165.695369 314.399759 
L 165.83041 269.838245 
L 166.235534 311.177725 
L 166.370575 310.521385 
L 166.505616 313.842864 
L 166.91074 342.602493 
L 167.045781 324.324416 
L 167.180822 336.586042 
L 167.450905 306.583345 
L 167.585946 325.567485 
L 167.856029 310.600942 
L 167.99107 310.392106 
L 168.126111 300.258613 
L 168.396194 320.048261 
L 168.531235 321.897947 
L 168.666276 302.605526 
L 168.801317 325.149814 
L 168.936358 322.126671 
L 169.0714 297.792366 
L 169.206441 320.923381 
L 169.341482 310.839611 
L 169.476523 287.708595 
L 169.611565 290.731737 
L 169.881647 256.502608 
L 170.016688 279.633623 
L 170.15173 276.41159 
L 170.421812 303.719315 
L 170.556853 292.074251 
L 170.691894 295.39573 
L 170.826936 276.41159 
L 170.961977 273.388448 
L 171.232059 310.143493 
L 171.367101 320.276986 
L 171.502142 316.955507 
L 171.637183 294.41122 
L 171.907265 335.233584 
L 172.042307 333.383898 
L 172.177348 323.678021 
L 172.312389 342.66216 
L 172.44743 318.407411 
L 172.852554 351.642086 
L 172.987595 329.475691 
L 173.122637 353.730441 
L 173.392719 358.901605 
L 173.797843 294.948225 
L 173.932884 305.031996 
L 174.067925 287.290924 
L 174.338008 319.541089 
L 174.60809 277.296655 
L 174.878172 312.003123 
L 175.013214 303.908262 
L 175.283296 264.01074 
L 175.823461 331.633658 
L 176.093544 312.192069 
L 176.228585 333.523122 
L 176.363626 333.731957 
L 176.498667 312.400905 
L 176.633708 323.747632 
L 176.76875 348.081938 
L 176.903791 345.058796 
L 177.038832 366.389849 
L 177.173873 356.306078 
L 177.308915 378.472473 
L 177.578997 353.730441 
L 177.714038 331.564046 
L 177.84908 351.264193 
L 177.984121 354.486226 
L 178.389244 289.916285 
L 178.524286 308.194361 
L 178.659327 311.217504 
L 178.794368 288.673216 
L 178.929409 287.837874 
L 179.064451 290.861017 
L 179.199492 280.707634 
L 179.334533 290.861017 
L 179.604615 260.649484 
L 179.739657 258.372182 
L 179.874698 260.221868 
L 180.14478 288.92183 
L 180.279822 280.826969 
L 180.414863 296.48963 
L 180.549904 296.280794 
L 180.684945 296.937135 
L 180.819987 306.533622 
L 180.955028 330.867928 
L 181.22511 289.717394 
L 181.360151 296.877467 
L 181.495193 274.33318 
L 181.630234 274.542015 
L 181.765275 277.764048 
L 181.900316 297.464196 
L 182.035358 273.209446 
L 182.170399 288.623493 
L 182.440481 263.056064 
L 182.575522 266.377542 
L 182.710564 256.781055 
L 182.845605 275.765195 
L 182.980646 256.065048 
L 183.250729 281.632477 
L 183.520811 246.985676 
L 183.655852 271.240426 
L 184.060976 234.863274 
L 184.331058 261.60416 
L 184.4661 284.148447 
L 184.736182 290.691959 
L 185.006265 258.54124 
L 185.141306 276.819317 
L 185.276347 258.402016 
L 185.546429 287.489815 
L 185.816512 274.034843 
L 185.951553 270.81281 
L 186.086594 251.52039 
L 186.221636 254.742423 
L 186.356677 274.44257 
L 186.491718 264.289188 
L 186.626759 279.951849 
L 186.761801 268.605121 
L 186.896842 268.396285 
L 187.166924 234.863274 
L 187.301965 257.029669 
L 187.707089 230.447895 
L 187.977172 249.611037 
L 188.112213 225.356287 
L 188.247254 226.271186 
L 188.787419 307.130295 
L 188.92246 294.868669 
L 189.192543 243.246527 
L 189.327584 261.524604 
L 189.462625 259.74453 
L 189.597666 249.591148 
L 189.732708 248.914918 
L 189.867749 246.826564 
L 190.00279 265.243864 
L 190.137831 246.259724 
L 190.272872 249.282867 
L 190.407914 231.541795 
L 190.677996 252.385565 
L 190.948079 234.356102 
L 191.08312 248.944752 
L 191.218161 224.610446 
L 191.488244 254.056249 
L 191.623285 235.638949 
L 191.758326 239.905159 
L 192.028408 220.722129 
L 192.568573 299.453105 
L 192.838656 268.227228 
L 192.973697 258.093735 
L 193.108738 277.077875 
L 193.243779 274.591738 
L 193.378821 251.142497 
L 193.513862 262.409668 
L 193.648903 262.409668 
L 193.783944 280.687745 
L 193.918986 282.537431 
L 194.054027 258.203125 
L 194.594192 303.908262 
L 194.729233 318.496912 
L 195.134357 266.148818 
L 195.269398 277.495546 
L 195.404439 300.039833 
L 195.53948 296.8178 
L 195.674522 279.076729 
L 195.809563 282.099871 
L 195.944604 289.259944 
L 196.079645 265.005195 
L 196.214687 262.519058 
L 196.349728 245.066379 
L 196.484769 245.275214 
L 196.61981 242.789078 
L 196.754851 246.110556 
L 196.889893 256.244049 
L 197.024934 246.110556 
L 197.159975 226.818136 
L 197.295016 226.6093 
L 197.430058 222.054698 
L 197.565099 245.185713 
L 197.70014 220.851408 
L 198.105264 273.408337 
L 198.375346 238.502978 
L 198.78047 283.949557 
L 198.915511 279.355176 
L 199.050552 258.024123 
L 199.185594 272.403938 
L 199.320635 252.703791 
L 199.455676 251.202164 
L 199.590717 274.00501 
L 199.725758 263.404123 
L 199.8608 284.367227 
L 199.995841 274.283457 
L 200.130882 274.492293 
L 200.400965 305.956838 
L 200.671047 278.062385 
L 200.806088 286.545083 
L 200.941129 274.900019 
L 201.076171 293.178096 
L 201.346253 273.010555 
L 201.616336 306.891626 
L 201.751377 298.796765 
L 201.886418 280.518688 
L 202.021459 227.066749 
L 202.156501 238.413477 
L 202.426583 209.007452 
L 202.696665 242.222239 
L 202.831707 239.199096 
L 202.966748 227.852369 
L 203.101789 237.558246 
L 203.23683 256.850667 
L 203.506913 238.711814 
L 203.641954 261.842829 
L 203.912037 220.433737 
L 204.047078 243.564752 
L 204.182119 221.935363 
L 204.452201 243.793477 
L 204.722284 206.073811 
L 204.992366 243.654253 
L 205.127408 253.787746 
L 205.262449 245.692885 
L 205.39749 221.35858 
L 205.532531 221.35858 
L 205.667572 229.174993 
L 205.802614 230.45784 
L 205.937655 220.374069 
L 206.072696 223.397212 
L 206.207737 220.911075 
L 206.342779 242.192405 
L 206.47782 244.042091 
L 206.612861 226.301019 
L 206.882944 269.201794 
L 207.017985 272.423827 
L 207.288067 253.986637 
L 207.693191 220.960798 
L 207.828232 236.374845 
L 208.098315 290.184787 
L 208.233356 274.77074 
L 208.368397 282.865601 
L 208.638479 274.472404 
L 208.773521 233.113034 
L 208.908562 232.904198 
L 209.178644 286.326303 
L 209.313686 306.02645 
L 209.448727 287.60915 
L 209.583768 302.1978 
L 209.718809 277.863494 
L 209.853851 285.958355 
L 209.988892 301.372402 
L 210.123933 293.277541 
L 210.394015 262.340057 
L 210.529057 280.757357 
L 210.664098 266.168707 
L 210.799139 290.423456 
L 210.93418 283.263383 
L 211.069222 286.505305 
L 211.204263 303.331478 
L 211.474345 307.6673 
L 211.609387 299.572439 
L 211.744428 243.743754 
L 211.879469 245.026601 
L 212.284593 292.004639 
L 212.419634 291.089741 
L 212.689716 261.1666 
L 212.959799 301.988964 
L 213.09484 291.905194 
L 213.229881 267.570888 
L 213.364922 275.387302 
L 213.499964 296.718355 
L 213.905087 252.057395 
L 214.040129 253.907081 
L 214.17517 230.776065 
L 214.445252 245.523828 
L 214.580294 234.1771 
L 214.985417 267.85928 
L 215.120458 277.94305 
L 215.2555 274.919908 
L 215.525582 323.767522 
L 215.660623 304.067375 
L 215.795665 305.439722 
L 215.930706 299.194547 
L 216.065747 303.132587 
L 216.200788 281.801534 
L 216.335829 289.617948 
L 216.470871 279.534178 
L 216.875994 316.070442 
L 217.146077 287.847819 
L 217.281118 290.870961 
L 217.551201 269.092404 
L 217.821283 303.520424 
L 217.956324 284.953956 
L 218.091365 303.938095 
L 218.361448 265.959872 
L 218.496489 266.87477 
L 218.63153 278.519834 
L 218.766572 255.070593 
L 218.901613 274.77074 
L 219.171695 242.898468 
L 219.306737 230.636842 
L 219.441778 248.914918 
L 219.576819 251.401055 
L 219.71186 227.146306 
L 219.846901 237.279799 
L 219.981943 221.865751 
L 220.116984 246.200057 
L 220.252025 245.285159 
L 220.387066 256.631887 
L 220.522108 278.798281 
L 220.657149 264.209631 
L 220.79219 261.723495 
L 221.062272 289.846673 
L 221.197314 282.686599 
L 221.467396 255.160094 
L 221.602437 254.503754 
L 221.737479 255.418652 
L 221.87252 245.26527 
L 222.007561 247.114956 
L 222.142602 237.518468 
L 222.277644 240.004605 
L 222.547726 259.754474 
L 222.682767 240.462054 
L 222.817808 243.783532 
L 222.95285 233.699762 
L 223.222932 278.480056 
L 223.357973 256.313661 
L 223.493015 253.827525 
L 223.628056 242.18246 
L 223.763097 252.266231 
L 223.898138 233.84893 
L 224.033179 245.493994 
L 224.168221 242.172516 
L 224.708386 177.294293 
L 224.843427 196.99444 
L 224.978468 188.899579 
L 225.383592 248.65636 
L 225.518633 251.977839 
L 225.653674 241.824457 
L 225.923757 262.061609 
L 226.193839 229.194882 
L 226.598963 286.008078 
L 226.734004 285.093179 
L 227.139128 230.358394 
L 227.274169 277.227043 
L 227.40921 280.449076 
L 227.544251 277.227043 
L 227.679293 301.561349 
L 227.814334 277.227043 
L 227.949375 289.548336 
L 228.084416 289.548336 
L 228.219458 268.217284 
L 228.354499 285.809187 
L 228.48954 286.018022 
L 228.624581 307.349075 
L 228.759622 287.648928 
L 229.029705 302.903863 
L 229.164746 302.695027 
L 229.434829 315.80194 
L 229.839952 272.354215 
L 229.974994 275.675694 
L 230.110035 287.93732 
L 230.380117 264.706859 
L 230.515158 262.220722 
L 230.6502 271.9266 
L 230.920282 265.174252 
L 231.055323 255.468375 
L 231.190365 265.174252 
L 231.325406 284.158392 
L 231.460447 283.949557 
L 231.730529 314.996431 
L 232.000612 276.202755 
L 232.135653 285.799242 
L 232.405736 248.248634 
L 232.540777 267.232774 
L 232.675818 270.255916 
L 232.810859 293.386931 
L 232.945901 270.842644 
L 233.215983 296.390184 
L 233.621107 272.761941 
L 233.756148 297.096247 
L 233.891189 282.507597 
L 234.02623 305.051885 
L 234.566395 243.007858 
L 234.701436 250.824271 
L 234.836478 243.007858 
L 235.10656 290.791405 
L 235.241601 287.569372 
L 235.511684 256.701499 
L 235.781766 276.938651 
L 235.916808 267.232774 
L 236.051849 270.096803 
L 236.18689 260.013033 
L 236.321931 260.211924 
L 236.456972 260.211924 
L 236.592014 250.058541 
L 236.727055 250.97344 
L 236.862096 228.429152 
L 237.132179 254.175584 
L 237.26722 253.409854 
L 237.402261 277.744159 
L 237.537302 274.721017 
L 237.807385 241.376952 
L 237.942426 249.471813 
L 238.212508 290.3439 
L 238.482591 262.071554 
L 238.617632 271.777431 
L 238.752673 263.68257 
L 238.887715 281.960647 
L 239.022756 262.668227 
L 239.292838 282.109815 
L 239.427879 279.623679 
L 239.562921 282.646821 
L 239.697962 302.346968 
L 239.968044 264.368744 
L 240.103086 285.699797 
L 240.373168 251.231998 
L 240.508209 241.63551 
L 240.643251 253.897136 
L 240.778292 277.346378 
L 240.913333 279.832514 
L 241.183415 323.280239 
L 241.318457 323.489074 
L 241.453498 331.583935 
L 241.588539 323.489074 
L 241.72358 305.071774 
L 241.858622 306.921459 
L 241.993663 322.335507 
L 242.263745 288.394769 
L 242.398786 304.05743 
L 242.533828 296.241016 
L 242.668869 277.674548 
L 242.80391 300.805563 
L 242.938951 303.828705 
L 243.073993 303.61987 
L 243.209034 293.5361 
L 243.479116 330.380645 
L 243.614158 311.088225 
L 243.749199 330.072364 
L 243.88424 327.049222 
L 244.019281 311.386561 
L 244.289364 342.025709 
L 244.424405 323.747632 
L 244.559446 333.831403 
L 244.694487 312.50035 
L 244.829529 319.660424 
L 245.099611 284.546229 
L 245.234652 296.807855 
L 245.504735 264.130075 
L 245.639776 262.280389 
L 245.774817 262.489225 
L 245.909858 247.900575 
L 246.0449 263.314622 
L 246.179941 265.164308 
L 246.314982 253.81758 
L 246.450023 253.608745 
L 246.585065 234.316324 
L 246.720106 256.482719 
L 246.855147 244.221092 
L 246.990188 256.482719 
L 247.125229 253.260685 
L 247.260271 253.469521 
L 247.395312 230.338505 
L 247.530353 233.560538 
L 247.665394 218.146491 
L 247.800436 233.809152 
L 247.935477 214.825012 
L 248.070518 217.311149 
L 248.205559 235.72845 
L 248.340601 217.987378 
L 248.475642 225.803792 
L 248.610683 223.317655 
L 248.745724 239.746046 
L 248.880765 233.113034 
L 249.015807 217.450373 
L 249.150848 218.584051 
L 249.285889 221.90553 
L 249.42093 285.679908 
L 249.826054 311.545674 
L 249.961095 196.039764 
L 250.096136 218.961944 
L 250.231178 214.795179 
L 250.50126 242.62002 
L 250.636301 252.753513 
L 250.906384 210.757693 
L 251.446549 282.835767 
L 251.58159 284.685453 
L 251.716631 276.590592 
L 251.986714 294.391331 
L 252.121755 284.685453 
L 252.256796 294.838835 
L 252.526879 258.143458 
L 252.66192 273.806119 
L 252.796961 272.891221 
L 252.932002 282.597098 
L 253.067044 266.934437 
L 253.202085 285.212514 
L 253.337126 277.117653 
L 253.472167 254.951258 
L 253.607208 266.297986 
L 253.74225 262.976508 
L 253.877291 241.645455 
L 254.147373 279.474511 
L 254.282415 280.389409 
L 254.417456 299.373548 
L 254.552497 281.095472 
L 254.687538 299.373548 
L 254.822579 234.385936 
L 254.957621 244.091813 
L 255.227703 276.41159 
L 255.362744 257.845121 
L 255.497786 276.829261 
L 255.632827 278.678947 
L 255.902909 256.930223 
L 256.037951 250.655214 
L 256.172992 258.292626 
L 256.308033 276.709927 
L 256.443074 277.624825 
L 256.713157 313.524638 
L 256.983239 348.47972 
L 257.11828 345.456578 
L 257.253322 322.007337 
L 257.523404 348.768112 
L 257.928528 290.244455 
L 258.19861 334.119795 
L 258.333651 311.575507 
L 258.468693 314.896986 
L 258.603734 338.346227 
L 258.738775 328.212734 
L 258.873816 340.47436 
L 259.008858 316.219611 
L 259.143899 326.353104 
L 259.27894 308.612032 
L 259.413981 332.946338 
L 259.549022 317.283677 
L 259.684064 341.538427 
L 259.819105 331.404933 
L 259.954146 341.558316 
L 260.089187 317.22401 
L 260.224229 327.357503 
L 260.494311 290.095286 
L 260.629352 291.944972 
L 260.764394 292.153808 
L 261.034476 250.287266 
L 261.169517 269.271406 
L 261.4396 237.80686 
L 261.574641 249.451924 
L 261.844723 227.951814 
L 261.979765 251.401055 
L 262.114806 241.317285 
L 262.249847 249.412146 
L 262.384888 267.690223 
L 262.519929 259.595362 
L 262.654971 259.386526 
L 262.790012 240.402386 
L 262.925053 250.108264 
L 263.060094 231.541795 
L 263.330177 293.257652 
L 263.465218 304.60438 
L 263.600259 286.326303 
L 263.735301 288.81244 
L 263.870342 277.167376 
L 264.140424 229.383829 
L 264.545548 280.36952 
L 264.680589 261.077099 
L 264.81563 279.4944 
L 265.085713 260.987598 
L 265.355795 279.4944 
L 265.490836 298.060868 
L 265.625878 252.594401 
L 265.89596 284.009224 
L 266.166043 253.946859 
L 266.301084 265.591923 
L 266.436125 255.45843 
L 266.571166 236.16601 
L 266.706208 250.75466 
L 266.841249 235.091999 
L 266.97629 258.223014 
L 267.111331 233.888708 
L 267.246372 230.56723 
L 267.381414 211.58309 
L 267.516455 214.019504 
L 267.651496 212.507933 
L 268.05662 261.096988 
L 268.191661 239.765935 
L 268.326702 239.467599 
L 268.461744 227.822535 
L 268.596785 250.953551 
L 268.731826 226.619245 
L 268.866867 226.131962 
L 269.001908 210.469301 
L 269.407032 254.493809 
L 269.542073 236.076509 
L 269.677115 239.318431 
L 270.082238 305.519278 
L 270.352321 266.596323 
L 270.487362 290.930628 
L 270.622403 290.01573 
L 270.892486 284.874399 
L 271.027527 287.897542 
L 271.162568 219.687896 
L 271.297609 209.554403 
L 271.432651 219.26028 
L 271.702733 256.98989 
L 271.837774 268.336618 
L 272.107857 315.80194 
L 272.242898 304.455212 
L 272.377939 311.615285 
L 272.51298 308.293807 
L 272.783063 286.49536 
L 272.918104 266.795213 
L 273.053145 270.116692 
L 273.188186 288.394769 
L 273.323228 287.479871 
L 273.728351 329.595026 
L 273.863393 350.926079 
L 273.998434 354.148112 
L 274.133475 365.49484 
L 274.268516 341.160534 
L 274.403558 344.183676 
L 274.538599 332.836948 
L 274.67364 340.653362 
L 274.808681 322.912291 
L 274.943722 319.889148 
L 275.078764 312.072735 
L 275.213805 293.794658 
L 275.348846 247.612183 
L 275.483887 257.765565 
L 275.618929 233.431259 
L 275.889011 248.019909 
L 276.024052 263.433957 
L 276.294135 232.416915 
L 276.429176 235.638949 
L 276.564217 245.722719 
L 276.699258 235.589226 
L 276.8343 245.295103 
L 276.969341 243.445418 
L 277.104382 265.611812 
L 277.239423 268.097949 
L 277.644547 224.162942 
L 277.779588 214.009559 
L 277.914629 224.143053 
L 278.049671 212.796325 
L 278.184712 234.127377 
L 278.319753 235.977063 
L 278.454794 251.639724 
L 278.589836 239.99466 
L 278.724877 264.328966 
L 278.994959 229.930779 
L 279.130001 233.252257 
L 279.265042 211.921205 
L 279.400083 212.13004 
L 279.535124 236.38479 
L 279.670165 235.469891 
L 279.805207 232.446749 
L 280.075289 262.449447 
L 280.345372 246.538172 
L 280.615454 277.585047 
L 280.750495 300.716062 
L 280.885536 285.302015 
L 281.020578 304.286155 
L 281.425701 271.866932 
L 281.560743 291.159353 
L 281.695784 268.028337 
L 281.830825 277.734215 
L 282.100908 229.14516 
L 282.37099 260.0727 
L 282.506031 241.08856 
L 282.776114 279.633623 
L 283.046196 268.07806 
L 283.181237 275.894474 
L 283.316279 252.763458 
L 283.45132 249.541425 
L 283.586361 272.990666 
L 283.721402 262.409668 
L 283.856443 242.709521 
L 283.991485 242.709521 
L 284.126526 252.972294 
L 284.261567 248.377913 
L 284.396608 249.292811 
L 284.666691 230.945123 
L 284.936773 273.0205 
L 285.206856 288.275434 
L 285.341897 278.569557 
L 285.476938 296.847634 
L 285.611979 288.752773 
L 285.882062 308.214251 
L 286.152144 333.582789 
L 286.422227 304.435323 
L 286.557268 323.001791 
L 286.692309 214.467009 
L 286.827351 232.745086 
L 286.962392 232.745086 
L 287.097433 251.162386 
L 287.637598 189.834366 
L 287.90768 214.974181 
L 288.042722 193.643128 
L 288.177763 196.129264 
L 288.447845 166.524349 
L 288.582886 167.439247 
L 288.717928 177.592629 
L 288.98801 173.396031 
L 289.393134 222.880095 
L 289.528175 230.040169 
L 289.798258 218.593996 
L 289.933299 220.443681 
L 290.203381 174.450153 
L 290.338422 182.545014 
L 290.473464 198.207675 
L 290.608505 195.184533 
L 291.283711 274.969631 
L 291.418752 252.425343 
L 291.553793 275.874585 
L 291.688835 279.196063 
L 291.823876 269.599576 
L 291.958917 272.085712 
L 292.093958 281.79159 
L 292.229 306.046339 
L 292.364041 290.383678 
L 292.499082 314.717984 
L 292.634123 305.012106 
L 292.769165 281.562865 
L 292.904206 304.107153 
L 293.174288 260.480426 
L 293.309329 279.046895 
L 293.579412 237.936139 
L 293.714453 249.581203 
L 293.984536 230.119725 
L 294.389659 285.391516 
L 294.524701 287.241201 
L 294.659742 286.326303 
L 294.794783 283.10427 
L 294.929824 286.127412 
L 295.064865 275.993919 
L 295.199907 295.28634 
L 295.334948 292.800203 
L 295.469989 316.249444 
L 295.875113 260.51026 
L 296.010154 284.844566 
L 296.145195 272.58294 
L 296.280236 275.804973 
L 296.68536 315.274879 
L 296.955443 308.930258 
L 297.225525 275.775139 
L 297.360566 278.688891 
L 297.630649 306.851848 
L 297.76569 316.985341 
L 298.170814 276.043642 
L 298.305855 293.07865 
L 298.440896 274.512182 
L 298.710979 312.629629 
L 298.84602 302.545859 
L 298.981061 302.754694 
L 299.386185 333.413732 
L 299.656267 295.694066 
L 300.061391 244.658652 
L 300.196432 254.742423 
L 300.331473 254.533587 
L 300.466515 262.350001 
L 300.601556 252.753513 
L 300.736597 255.776656 
L 300.871638 231.44235 
L 301.141721 271.439317 
L 301.276762 269.589631 
L 301.411803 272.075768 
L 301.546844 254.334696 
L 301.681886 264.040574 
L 301.816927 285.371627 
L 301.951968 285.371627 
L 302.357092 337.08327 
L 302.492133 337.292105 
L 302.762215 310.919167 
L 302.897257 325.507817 
L 303.032298 314.161089 
L 303.167339 316.010775 
L 303.437422 253.807635 
L 303.572463 275.138688 
L 303.707504 274.22379 
L 303.842545 277.246932 
L 303.977586 286.84342 
L 304.112628 311.177725 
L 304.247669 301.581238 
L 304.38271 311.177725 
L 304.517751 307.856247 
L 304.922875 313.106968 
L 305.327999 363.993213 
L 305.598081 323.707854 
L 305.733122 338.296504 
L 306.138246 287.668817 
L 306.273287 286.753919 
L 306.408329 274.492293 
L 306.54337 275.407191 
L 306.678411 278.72867 
L 306.813452 260.162201 
L 306.948493 259.247302 
L 307.218576 240.999059 
L 307.353617 251.132552 
L 307.488658 243.972479 
L 307.6237 298.398983 
L 307.758741 299.313881 
L 307.893782 319.014028 
L 308.028823 300.735951 
L 308.163865 206.849486 
L 308.433947 232.774919 
L 308.568988 224.958505 
L 308.704029 239.547155 
L 308.974112 206.541205 
L 309.244194 247.403347 
L 309.379236 247.194512 
L 309.514277 249.680649 
L 309.784359 311.40645 
L 310.054442 296.638798 
L 310.324524 316.716838 
L 310.459565 341.051144 
L 310.729648 323.240461 
L 310.99973 312.182125 
L 311.134772 327.844786 
L 311.269813 179.740652 
L 311.674936 208.808562 
L 311.809978 205.487083 
L 311.945019 205.695918 
L 312.08006 215.292406 
L 312.350143 190.033257 
L 312.485184 317.55218 
L 312.620225 310.690443 
L 312.755266 196.894995 
L 312.890308 207.326824 
L 313.295431 258.133513 
L 313.430472 277.117653 
L 313.565514 279.60379 
L 313.700555 265.01514 
L 313.835596 265.930038 
L 313.970637 283.671109 
L 314.105679 283.879945 
L 314.375761 309.974435 
L 314.645843 275.347524 
L 315.050967 290.324011 
L 315.456091 257.55673 
L 315.591132 236.225677 
L 315.726173 260.480426 
L 315.861215 248.835362 
L 315.996256 224.580613 
L 316.131297 237.528412 
L 316.401379 208.589782 
L 316.671462 236.414623 
L 316.806503 238.264309 
L 316.941544 228.558431 
L 317.076586 209.991963 
L 317.211627 233.122978 
L 317.346668 232.20808 
L 317.481709 233.122978 
L 317.616751 244.469706 
L 317.751792 243.554808 
L 317.886833 240.332775 
L 318.021874 242.818911 
L 318.291957 214.268118 
L 318.562039 254.016471 
L 318.69708 231.472184 
L 318.832122 254.921425 
L 318.967163 253.071739 
L 319.102204 241.725011 
L 319.372286 279.991627 
L 319.507328 258.660574 
L 319.642369 260.51026 
L 319.77741 270.106748 
L 319.912451 271.021646 
L 320.047493 274.243679 
L 320.317575 243.017802 
L 320.452616 254.662866 
L 320.587658 277.793882 
L 320.992781 235.897507 
L 321.397905 297.80231 
L 321.532946 275.258023 
L 321.667987 286.903087 
L 321.803029 288.752773 
L 321.93807 280.657912 
L 322.073111 297.792366 
L 322.208152 295.624454 
L 322.343193 299.433216 
L 322.478235 287.17159 
L 322.613276 309.43743 
L 322.748317 294.053216 
L 322.883358 304.136986 
L 323.0184 296.976913 
L 323.288482 317.920128 
L 323.693606 261.882607 
L 323.828647 286.216913 
L 323.963688 274.571849 
L 324.098729 277.793882 
L 324.233771 264.57758 
L 324.503853 283.183826 
L 324.638894 279.862348 
L 324.773936 289.995841 
L 324.908977 290.910739 
L 325.314101 315.791995 
L 325.449142 340.126301 
L 325.584183 327.864675 
L 325.719224 329.714361 
L 325.854265 353.96911 
L 325.989307 335.402641 
L 326.124348 333.552956 
L 326.259389 310.42194 
L 326.39443 310.213104 
L 326.529472 310.42194 
L 326.664513 318.516801 
L 326.799554 315.493659 
L 326.934595 299.830998 
L 327.069636 303.152476 
L 327.339719 293.506266 
L 327.47476 295.992403 
L 328.014925 245.324937 
L 328.149966 256.671665 
L 328.285008 238.930594 
L 328.690131 295.326118 
L 328.825172 292.104085 
L 328.960214 269.559797 
L 329.095255 281.204862 
L 329.365337 248.129299 
L 329.63542 291.606858 
L 329.770461 230.56723 
L 329.905502 227.544088 
L 330.040543 228.458986 
L 330.175585 249.392257 
L 330.445667 255.736878 
L 330.71575 301.402236 
L 330.850791 298.379094 
L 331.120873 259.535694 
L 331.390956 246.717174 
L 331.525997 264.99525 
L 331.661038 254.861757 
L 331.796079 278.310999 
L 331.931121 278.102163 
L 332.066162 292.690813 
L 332.201203 285.530739 
L 332.471286 300.179057 
L 332.741368 325.726597 
L 332.876409 322.405119 
L 333.011451 342.105266 
L 333.146492 345.426744 
L 333.281533 342.105266 
L 333.416574 343.020164 
L 333.551615 360.761235 
L 333.821698 336.019203 
L 334.09178 349.852068 
L 334.361863 330.688926 
L 334.496904 334.010405 
L 334.631945 348.599055 
L 334.766986 324.264749 
L 334.902028 348.599055 
L 335.037069 333.185007 
L 335.17211 342.781495 
L 335.307151 330.519869 
L 335.442193 340.673251 
L 335.577234 326.084601 
L 335.847316 341.061088 
L 335.982358 341.269924 
L 336.25244 262.568781 
L 336.387481 259.545639 
L 336.522522 281.712034 
L 336.657564 283.561719 
L 336.792605 273.477949 
L 337.062687 315.026265 
L 337.197729 303.381201 
L 337.33277 321.659278 
L 337.467811 311.9534 
L 337.602852 288.504159 
L 337.737893 285.18268 
L 338.143017 252.345787 
L 338.4131 282.974991 
L 338.818223 322.464786 
L 339.088306 286.445638 
L 339.223347 309.894879 
L 339.358388 286.763863 
L 339.493429 306.46401 
L 339.628471 291.87536 
L 339.763512 311.167781 
L 339.898553 314.190923 
L 340.033594 295.773623 
L 340.168636 298.259759 
L 340.303677 307.965637 
L 340.7088 281.334141 
L 340.843842 295.922791 
L 340.978883 273.378503 
L 341.248965 299.413327 
L 341.519048 278.062385 
L 341.654089 281.383863 
L 341.78913 299.66194 
L 341.924172 302.685083 
L 342.059213 283.700943 
L 342.194254 282.786045 
L 342.329295 305.91706 
L 342.464336 303.430924 
L 342.599378 321.171995 
L 342.734419 314.011921 
L 343.139543 263.364345 
L 343.274584 273.497838 
L 343.409625 271.856988 
L 343.544666 264.110186 
L 343.814749 297.394584 
L 343.94979 300.616617 
L 344.354914 244.738209 
L 344.489955 244.529373 
L 344.760037 278.83806 
L 344.895079 259.137912 
L 345.165161 277.843605 
L 345.300202 276.580647 
L 345.435243 277.495546 
L 345.570285 292.909593 
L 345.840367 291.785859 
L 346.11045 333.901015 
L 346.245491 321.639389 
L 346.380532 332.986116 
L 346.650615 315.742272 
L 346.785656 339.191514 
L 346.920697 329.05802 
L 347.055738 351.224415 
L 347.190779 328.093399 
L 347.325821 347.793546 
L 347.595903 327.934287 
L 347.865986 345.735025 
L 348.001027 343.88534 
L 348.136068 344.094175 
L 348.271109 346.580312 
L 348.40615 338.485451 
L 348.676233 358.165709 
L 348.811274 380.709996 
L 348.946315 381.624894 
L 349.081357 384.648037 
L 349.216398 381.624894 
L 349.351439 404.75591 
L 349.48648 385.463489 
L 349.621522 385.254654 
L 349.756563 393.071068 
L 349.891604 390.584931 
L 350.026645 393.90641 
L 350.161686 409.569071 
L 350.296728 180.784829 
L 350.56681 157.474811 
L 350.836893 239.199096 
L 351.242016 286.564972 
L 351.377058 274.919908 
L 351.512099 293.337209 
L 351.64714 286.177135 
L 352.052264 341.876541 
L 352.187305 329.614915 
L 352.322346 339.320793 
L 352.457387 329.1873 
L 352.72747 285.689852 
L 352.862511 282.467819 
L 352.997552 285.789298 
L 353.132593 308.920313 
L 353.267635 219.210557 
L 353.402676 241.426675 
L 353.537717 229.781611 
L 354.077882 286.84342 
L 354.212923 283.521941 
L 354.753088 340.116356 
L 354.888129 343.139499 
L 355.158212 315.264934 
L 355.293253 244.270815 
L 355.698377 298.56804 
L 355.833418 295.246562 
L 355.968459 276.262422 
L 356.1035 285.9683 
L 356.238542 276.262422 
L 356.373583 284.049002 
L 356.508624 303.341423 
L 356.643665 304.256321 
L 356.778707 280.80708 
L 356.913748 284.029113 
L 357.048789 302.30719 
L 357.318872 282.88549 
L 357.453913 290.940573 
L 357.588954 269.60952 
L 357.994078 321.768668 
L 358.129119 329.585081 
L 358.26416 305.330332 
L 358.399201 313.425193 
L 358.534243 290.294177 
L 358.804325 332.966227 
L 358.939366 322.832734 
L 359.074408 325.318871 
L 359.209449 317.22401 
L 359.479531 334.915358 
L 359.614572 327.098945 
L 359.749614 309.357873 
L 359.884655 309.149038 
L 360.019696 294.560388 
L 360.289779 328.958575 
L 360.42482 319.362087 
L 360.559861 321.211773 
L 361.100026 252.5049 
L 361.370108 267.471443 
L 361.50515 274.631516 
L 361.640191 256.214216 
L 361.775232 252.992183 
L 361.910273 261.783162 
L 362.045315 246.120501 
L 362.315397 282.040204 
L 362.450438 305.171219 
L 362.585479 290.582569 
L 362.720521 293.605711 
L 362.855562 303.202199 
L 363.395727 263.762127 
L 363.665809 296.917245 
L 363.80085 298.766931 
L 364.070933 321.171995 
L 364.476057 295.664233 
L 364.611098 303.480646 
L 364.746139 321.897947 
L 364.88118 318.576468 
L 365.016222 296.410074 
L 365.286304 329.923196 
L 365.421345 332.946338 
L 365.691428 303.858539 
L 365.826469 302.008853 
L 365.96151 313.653918 
L 366.096551 311.167781 
L 366.366634 280.956248 
L 366.636716 304.375655 
L 366.771758 280.04135 
L 366.906799 285.083235 
L 367.04184 269.669187 
L 367.176881 272.990666 
L 367.311922 254.573366 
L 367.446964 272.314437 
L 367.582005 272.105601 
L 367.717046 264.01074 
L 367.987129 233.421315 
L 368.12217 228.647932 
L 368.257211 236.464346 
L 368.392252 216.764199 
L 368.527293 241.098505 
L 368.662335 289.617948 
L 368.932417 309.079426 
L 369.067458 297.941534 
L 369.742665 351.691809 
L 370.012747 305.111552 
L 370.147788 328.560793 
L 370.417871 313.305858 
L 370.552912 315.791995 
L 370.687953 297.513918 
L 370.958036 321.022827 
L 371.093077 317.701348 
L 371.363159 297.464196 
L 371.4982 305.071774 
L 371.633242 305.280609 
L 371.768283 295.574732 
L 371.903324 276.590592 
L 372.443489 339.788186 
L 372.57853 343.109665 
L 372.983654 290.274288 
L 373.118695 286.95281 
L 373.253736 271.538762 
L 373.523819 303.271811 
L 373.65886 297.961423 
L 373.928943 272.413882 
L 374.063984 282.11976 
L 374.199025 266.457099 
L 374.334066 278.718725 
L 374.469108 276.869039 
L 374.604149 264.836138 
L 375.009272 288.842274 
L 375.144314 291.32841 
L 375.279355 289.478725 
L 375.414396 312.60974 
L 375.549437 302.52597 
L 375.684479 279.981682 
L 375.81952 281.831368 
L 375.954561 262.538947 
L 376.089602 261.624049 
L 376.359685 296.420018 
L 376.494726 294.570332 
L 376.629767 282.925268 
L 377.034891 320.625045 
L 377.169932 310.491552 
L 377.304973 320.575322 
L 377.440015 309.228594 
L 377.575056 240.790224 
L 377.710097 259.207524 
L 377.845138 258.292626 
L 378.115221 302.754694 
L 378.250262 292.601312 
L 378.520344 261.514659 
L 378.655386 279.792736 
L 378.790427 280.001571 
L 379.060509 323.956468 
L 379.19555 320.734435 
L 379.330592 345.068741 
L 379.465633 348.091883 
L 379.600674 330.350812 
L 379.735715 328.501126 
L 379.870757 309.208705 
L 380.005798 332.339721 
L 380.410922 280.319797 
L 380.545963 227.26564 
L 380.681004 221.288968 
L 380.816045 245.623273 
L 380.951086 248.944752 
L 381.086128 234.356102 
L 381.221169 244.489595 
L 381.491251 215.769744 
L 381.761334 256.800944 
L 381.896375 254.951258 
L 382.031416 266.297986 
L 382.166458 265.383088 
L 382.301499 268.40623 
L 382.706622 249.829817 
L 382.841664 249.292811 
L 383.111746 223.317655 
L 383.246787 207.654994 
L 383.651911 260.898097 
L 383.921993 279.703235 
L 384.192076 299.940388 
L 384.327117 291.845527 
L 384.5972 323.071403 
L 384.732241 310.809777 
L 384.867282 328.550849 
L 385.002323 329.465747 
L 385.137365 306.334731 
L 385.272406 324.9012 
L 385.407447 317.084786 
L 385.542488 327.218279 
L 385.812571 321.410664 
L 385.947612 323.896801 
L 386.217694 298.528262 
L 386.352736 301.551404 
L 386.487777 300.636506 
L 386.622818 290.503013 
L 387.027942 245.643163 
L 387.162983 269.092404 
L 387.298024 270.007302 
L 387.568107 289.737283 
L 387.97323 259.724641 
L 388.108272 282.855656 
L 388.243313 261.524604 
L 388.378354 261.733439 
L 388.513395 277.3961 
L 388.648436 255.229706 
L 388.918519 292.810148 
L 389.05356 289.787005 
L 389.188601 278.141941 
L 389.323643 292.730591 
L 389.458684 294.580277 
L 389.593725 313.564417 
L 389.728766 313.355581 
L 389.863807 294.371441 
L 389.998849 304.524824 
L 390.403972 347.554877 
L 390.539014 323.220572 
L 390.809096 338.803676 
L 390.944137 335.482198 
L 391.21422 288.901941 
L 391.349261 288.693105 
L 391.484302 270.275805 
L 391.619343 289.259944 
L 391.889426 258.620796 
L 392.024467 282.955102 
L 392.159508 272.821609 
L 392.29455 284.466673 
L 392.564632 258.232959 
L 392.699673 261.554437 
L 392.834715 259.704752 
L 392.969756 247.443126 
L 393.104797 257.149003 
L 393.374879 229.483274 
L 393.509921 247.900575 
L 393.644962 244.678542 
L 393.780003 226.112073 
L 394.185127 271.131036 
L 394.455209 240.054327 
L 394.725292 258.740131 
L 394.860333 243.07747 
L 394.995374 262.777617 
L 395.265457 244.012257 
L 395.535539 281.274473 
L 395.805622 237.617913 
L 396.075704 265.939982 
L 396.210745 246.647562 
L 396.615869 293.923937 
L 396.75091 293.923937 
L 396.885951 310.471663 
L 397.020993 300.31828 
L 397.291075 329.764083 
L 397.561157 295.027782 
L 397.83124 332.986116 
L 397.966281 333.901015 
L 398.101322 341.717428 
L 398.236364 333.901015 
L 398.371405 318.486967 
L 398.506446 340.653362 
L 398.641487 330.49998 
L 398.776529 340.096467 
L 399.046611 334.388297 
L 399.316693 302.834251 
L 399.451735 299.512772 
L 399.586776 314.548927 
L 399.721817 193.03651 
L 399.856858 185.220097 
L 399.9919 208.351112 
L 400.126941 299.234325 
L 400.261982 292.163752 
L 400.397023 291.845527 
L 400.532065 292.054362 
L 400.667106 281.970592 
L 400.802147 283.820277 
L 401.207271 261.783162 
L 401.342312 285.232403 
L 401.477353 225.575067 
L 401.882477 273.975176 
L 402.017518 266.815103 
L 402.152559 248.397802 
L 402.2876 266.815103 
L 402.422642 263.493624 
L 402.557683 253.409854 
L 402.692724 234.117433 
L 402.827765 246.379059 
L 402.962807 236.245566 
L 403.232889 277.972884 
L 403.36793 254.523643 
L 403.502972 253.061794 
L 403.638013 270.802866 
L 403.908095 228.14076 
L 404.043136 229.990446 
L 404.178178 222.174032 
L 404.44826 244.579096 
L 404.583301 233.461093 
L 404.988425 279.792736 
L 405.123466 291.4378 
L 405.258507 280.091072 
L 405.663631 311.307005 
L 405.798672 333.851292 
L 405.933714 315.573215 
L 406.068755 323.668076 
L 406.203796 314.071589 
L 406.338837 315.921274 
L 406.473879 312.898132 
L 406.60892 331.882272 
L 406.879002 301.670739 
L 407.014043 283.253438 
L 407.149085 280.140795 
L 407.419167 248.676249 
L 407.554208 249.809928 
L 407.68925 264.398578 
L 407.824291 244.698431 
L 407.959332 252.514844 
L 408.094373 250.028708 
L 408.229415 238.383643 
L 408.364456 238.174808 
L 408.499497 238.274253 
L 408.769579 277.346378 
L 408.904621 279.832514 
L 409.174703 245.752553 
L 409.444786 249.213255 
L 409.579827 239.507377 
L 409.714868 239.716213 
L 410.119992 308.462864 
L 410.525115 269.967524 
L 410.660157 259.814142 
L 410.795198 259.605306 
L 410.930239 259.814142 
L 411.06528 235.479836 
L 411.335363 273.269113 
L 411.470404 234.316324 
L 411.740486 268.127783 
L 411.875528 256.482719 
L 412.010569 268.893513 
L 412.280651 245.623273 
L 412.415693 269.072515 
L 412.550734 250.088375 
L 412.685775 279.792736 
L 412.820816 227.792701 
L 412.955857 250.336989 
L 413.090899 232.595917 
L 413.496022 279.325342 
L 413.631064 276.103309 
L 413.766105 268.286895 
L 413.901146 276.103309 
L 414.036187 273.617173 
L 414.171229 294.948225 
L 414.711393 233.152812 
L 414.846435 252.136952 
L 414.981476 253.986637 
L 415.116517 246.170224 
L 415.521641 274.154178 
L 415.656682 272.304492 
L 415.791723 256.890445 
L 415.926765 258.740131 
L 416.196847 293.446599 
L 416.331888 241.357063 
L 416.466929 264.488079 
L 416.601971 241.357063 
L 416.737012 259.923532 
L 417.007094 222.024864 
L 417.142136 285.560573 
L 417.277177 293.376987 
L 417.412218 272.045934 
L 417.6823 291.467634 
L 417.952383 247.920464 
L 418.087424 244.897322 
L 418.222465 249.929262 
L 418.357507 274.184012 
L 418.627589 242.918357 
L 418.897672 272.831553 
L 419.032713 250.287266 
L 419.167754 260.440648 
L 419.572878 322.25595 
L 419.707919 312.17218 
L 419.84296 312.381016 
L 419.978001 322.514509 
L 420.248084 288.434547 
L 420.383125 308.134694 
L 420.518166 288.434547 
L 420.653207 288.225712 
L 420.788249 290.075397 
L 420.92329 275.486747 
L 421.058331 273.000611 
L 421.193372 253.091628 
L 421.463455 285.341793 
L 421.598496 297.603419 
L 421.868579 266.118984 
L 422.138661 305.787781 
L 422.273702 214.059282 
L 422.408743 233.351703 
L 422.543785 223.21821 
L 422.678826 246.349225 
L 422.813867 234.087599 
L 423.489073 328.262457 
L 423.624115 309.845156 
L 423.759156 308.930258 
L 423.894197 222.989485 
L 424.029238 222.989485 
L 424.164279 232.914143 
L 424.299321 256.363384 
L 424.434362 253.877247 
L 424.569403 256.363384 
L 424.704444 266.516766 
L 425.109568 314.389814 
L 425.514692 265.800759 
L 425.649733 255.716988 
L 425.784774 258.939022 
L 425.919815 282.070037 
L 426.189898 239.397987 
L 426.595022 265.01514 
L 426.730063 262.529003 
L 426.865104 254.712589 
L 427.000145 260.967709 
L 427.135186 253.5988 
L 427.270228 234.306379 
L 427.54031 261.982053 
L 427.675351 253.887192 
L 427.810393 254.096027 
L 427.945434 257.31806 
L 428.080475 268.664788 
L 428.350557 262.956618 
L 428.62064 232.745086 
L 428.755681 247.333736 
L 429.025764 224.759614 
L 429.160805 227.981648 
L 429.295846 235.141721 
L 429.430887 219.47906 
L 429.565929 222.502202 
L 429.70097 334.776135 
L 429.836011 334.98497 
L 429.971052 347.246596 
L 430.106093 348.161495 
L 430.376176 369.641716 
L 430.916341 300.676284 
L 431.051382 307.836358 
L 431.321465 339.907521 
L 431.726588 273.78623 
L 431.861629 263.652737 
L 431.996671 243.932701 
L 432.131712 265.263753 
L 432.266753 245.563606 
L 432.401794 253.38002 
L 432.536836 269.042681 
L 432.671877 269.957579 
L 432.806918 277.117653 
L 432.941959 262.529003 
L 433.077 272.234881 
L 433.212042 262.101387 
L 433.347083 261.186489 
L 433.482124 285.520795 
L 433.617165 262.071554 
L 433.887248 299.642051 
L 434.022289 277.097764 
L 434.15733 277.097764 
L 434.292372 288.464381 
L 434.427413 219.121057 
L 434.562454 226.28113 
L 434.697495 244.847599 
L 434.832536 226.28113 
L 434.967578 250.53588 
L 435.372701 189.446529 
L 435.507743 199.152407 
L 435.642784 308.433031 
L 435.777825 315.593104 
L 436.31799 277.435878 
L 436.453031 288.891996 
L 436.588072 270.325528 
L 436.858155 305.429777 
L 436.993196 286.137357 
L 437.128237 295.843234 
L 437.263279 234.28649 
L 437.39832 234.28649 
L 437.533361 241.446564 
L 437.668402 218.902276 
L 437.803443 241.446564 
L 437.938485 238.423422 
L 438.073526 246.239835 
L 438.208567 246.448671 
L 438.343608 264.865971 
L 438.613691 263.742238 
L 438.748732 271.837099 
L 438.883773 264.020685 
L 439.018814 287.151701 
L 439.153856 285.302015 
L 439.288897 295.385785 
L 439.558979 257.676064 
L 439.694021 267.381942 
L 439.964103 252.465122 
L 440.369227 304.793326 
L 440.77435 340.006966 
L 440.909392 317.840572 
L 441.044433 317.631736 
L 441.314515 283.750666 
L 441.449557 295.39573 
L 441.584598 272.264714 
L 441.719639 282.398207 
L 441.989722 250.436434 
L 442.124763 232.019134 
L 442.394845 242.112849 
L 442.664928 288.533993 
L 442.799969 272.871331 
L 442.93501 279.991627 
L 443.070051 294.580277 
L 443.205093 294.371441 
L 443.340134 279.782791 
L 443.610216 316.537836 
L 443.880299 301.054177 
L 444.150381 332.429222 
L 444.420464 312.520239 
L 444.555505 330.798316 
L 444.690546 321.201829 
L 444.825587 331.285599 
L 445.230711 288.325157 
L 445.365752 291.855471 
L 445.500793 290.214621 
L 445.635835 280.647967 
L 445.905917 246.080723 
L 446.040958 243.594586 
L 446.176 246.080723 
L 446.311041 261.743384 
L 446.716164 202.583275 
L 446.851206 184.305198 
L 446.986247 198.893848 
L 447.121288 199.828636 
L 447.256329 218.106713 
L 447.391371 221.129855 
L 447.526412 203.388784 
L 447.661453 203.597619 
L 447.796494 200.574477 
L 448.066577 217.887933 
L 448.201618 194.756917 
L 448.4717 232.585973 
L 449.011865 318.228409 
L 449.146907 328.312179 
L 449.281948 304.862938 
L 449.416989 308.084971 
L 449.822113 256.651776 
L 449.957154 268.913402 
L 450.092195 261.753328 
L 450.227236 283.084381 
L 450.362278 263.384234 
L 450.497319 286.51525 
L 450.63236 283.293216 
L 450.902443 293.675323 
L 451.037484 282.030259 
L 451.172525 301.730406 
L 451.307566 299.244269 
L 451.442607 302.267412 
L 451.577649 324.811699 
L 451.71269 325.726597 
L 451.847731 324.811699 
L 451.982772 302.267412 
L 452.252855 343.457724 
L 452.387896 331.196098 
L 452.522937 340.792586 
L 452.657979 203.35895 
L 452.79302 187.964792 
L 452.928061 198.118174 
L 453.063102 187.964792 
L 453.333185 225.793847 
L 453.738308 254.36453 
L 453.87335 251.878393 
L 454.008391 275.327635 
L 454.143432 263.066008 
L 454.278473 270.882422 
L 454.413514 251.898282 
L 454.548556 264.159909 
L 454.683597 263.24501 
L 454.818638 260.022977 
L 455.223762 219.707785 
L 455.493844 224.600502 
L 455.628886 224.809337 
L 455.763927 247.940353 
L 455.898968 228.647932 
L 456.16905 241.466453 
L 456.439133 205.755586 
L 456.574174 198.595512 
L 456.844257 230.945123 
L 456.979298 228.458986 
L 457.114339 247.025455 
L 457.24938 238.930594 
L 457.384422 238.721758 
L 457.789545 205.43736 
L 457.924586 209.126787 
L 458.059628 226.867858 
L 458.194669 226.867858 
L 458.32971 245.145935 
L 458.464751 220.891186 
L 458.734834 247.970187 
L 459.004916 245.185713 
L 459.139957 226.907637 
L 459.41004 255.428597 
L 459.545081 240.839947 
L 459.680122 262.170999 
L 459.815164 265.01514 
L 459.950205 259.704752 
L 460.220287 286.07769 
L 460.355329 286.286525 
L 460.49037 249.173477 
L 460.625411 256.98989 
L 460.760452 255.617543 
L 460.895493 251.967894 
L 461.030535 257.477173 
L 461.165576 239.199096 
L 461.300617 247.01551 
L 461.435658 266.307931 
L 461.5707 247.89063 
L 461.840782 299.453105 
L 461.975823 300.368003 
L 462.110864 297.344861 
L 462.380947 266.715657 
L 462.515988 288.882052 
L 462.786071 259.505861 
L 462.921112 254.155695 
L 463.056153 273.448115 
L 463.191194 234.137322 
L 463.326236 237.359355 
L 463.596318 271.767487 
L 463.731359 262.061609 
L 464.001442 233.63015 
L 464.136483 241.725011 
L 464.271524 231.641241 
L 464.541607 187.606788 
L 464.94673 242.301795 
L 465.081772 244.151481 
L 465.216813 219.896731 
L 465.351854 287.688706 
L 465.486895 294.84878 
L 465.756978 331.15632 
L 466.02706 312.420794 
L 466.162101 302.714916 
L 466.297143 305.936949 
L 466.432184 321.59961 
L 466.567225 309.337984 
L 466.702266 320.684712 
L 466.837307 301.392291 
L 466.972349 303.241977 
L 467.10739 312.838465 
L 467.242431 332.130885 
L 467.377472 330.2812 
L 467.512514 349.981347 
L 467.647555 342.821273 
L 468.052679 276.789483 
L 468.18772 292.20353 
L 468.457802 271.966378 
L 468.592843 282.099871 
L 468.862926 257.11917 
L 469.26805 278.967339 
L 469.403091 297.245415 
L 469.538132 278.828115 
L 469.673173 288.533993 
L 469.808214 270.255916 
L 469.943256 288.533993 
L 470.078297 278.400499 
L 470.213338 229.184938 
L 470.348379 226.698801 
L 470.753503 256.631887 
L 470.888544 234.087599 
L 471.023586 255.418652 
L 471.158627 236.852183 
L 471.293668 244.668597 
L 471.428709 266.834992 
L 471.56375 265.920093 
L 471.698792 277.266821 
L 471.833833 277.475657 
L 471.968874 292.889704 
L 472.103915 291.040018 
L 472.238957 281.443531 
L 472.509039 286.51525 
L 472.64408 265.184197 
L 472.779122 261.962164 
L 472.914163 252.256286 
L 473.049204 261.962164 
L 473.184245 260.112478 
L 473.454328 264.050519 
L 473.589369 282.328595 
L 473.859451 239.576989 
L 473.994493 257.99429 
L 474.129534 257.785454 
L 474.264575 245.523828 
L 474.669699 310.889334 
L 474.80474 292.322865 
L 474.939781 316.657171 
L 475.074822 318.506856 
L 475.209864 317.591958 
L 475.344905 315.742272 
L 475.479946 323.837133 
L 476.020111 256.194327 
L 476.155152 275.894474 
L 476.695317 234.196989 
L 476.830358 236.046675 
L 476.9654 213.88028 
L 477.100441 217.102314 
L 477.235482 205.755586 
L 477.370523 218.017212 
L 477.505564 218.226047 
L 477.640606 235.967119 
L 477.775647 218.226047 
L 478.045729 258.54124 
L 478.450853 221.875696 
L 478.855977 281.165083 
L 478.991018 262.180944 
L 479.126059 285.630185 
L 479.2611 275.546415 
L 479.396142 297.712809 
L 479.531183 274.263568 
L 479.936307 318.64608 
L 480.071348 317.731182 
L 480.34143 312.659463 
L 480.476472 331.643603 
L 480.611513 204.641796 
L 480.746554 215.889079 
L 480.881595 215.889079 
L 481.151678 240.849891 
L 481.286719 231.253403 
L 481.42176 230.050113 
L 481.556801 235.509669 
L 481.826884 261.325713 
L 481.961925 242.759244 
L 482.096966 243.435473 
L 482.232007 224.143053 
L 482.367049 248.477358 
L 482.50209 238.343865 
L 482.637131 216.495696 
L 482.772172 240.750446 
L 482.907214 230.666675 
L 483.042255 242.928301 
L 483.177296 224.511001 
L 483.312337 224.719836 
L 483.447379 200.465087 
L 483.58242 207.625161 
L 483.717461 323.409518 
L 483.852502 326.730997 
L 483.987543 323.409518 
L 484.122585 344.740571 
L 484.257626 344.949406 
L 484.527708 370.765449 
L 484.66275 360.612067 
L 484.797791 342.045598 
L 484.932832 353.392326 
L 485.202914 335.492142 
L 485.472997 351.403417 
L 485.608038 328.85913 
L 485.743079 331.345266 
L 486.283244 262.867118 
L 486.418286 275.128744 
L 486.553327 267.31233 
L 486.688368 240.273107 
L 486.823409 237.249965 
L 487.363574 283.134104 
L 487.498615 273.537616 
L 487.633657 276.560758 
L 487.768698 276.560758 
L 487.903739 275.64586 
L 488.308863 327.984009 
L 488.713986 292.462089 
L 488.849028 274.721017 
L 488.984069 293.904048 
L 489.11911 286.087634 
L 489.389193 323.379684 
L 489.524234 302.734805 
L 489.659275 314.081533 
L 489.794316 336.247928 
L 490.064399 301.959131 
L 490.19944 311.665008 
L 490.334481 293.09854 
L 490.739605 317.969851 
L 490.874646 296.638798 
L 491.009687 296.847634 
L 491.27977 341.309702 
L 491.684893 284.188226 
L 491.819935 302.605526 
L 491.954976 299.284048 
L 492.090017 277.952995 
L 492.225058 296.519464 
L 492.3601 277.535324 
L 492.495141 280.757357 
L 492.630182 257.308116 
L 492.765223 276.600537 
L 492.900264 273.378503 
L 493.035306 276.401646 
L 493.170347 276.19281 
L 493.440429 209.226233 
L 493.575471 209.226233 
L 493.845553 243.18686 
L 494.115636 199.152407 
L 494.250677 206.31248 
L 494.385718 199.152407 
L 494.6558 226.112073 
L 494.790842 225.903237 
L 494.925883 237.249965 
L 495.060924 233.928487 
L 495.466048 269.271406 
L 495.601089 270.186304 
L 495.73613 270.186304 
L 495.871171 237.399133 
L 496.276295 254.712589 
L 496.411336 273.12989 
L 496.546378 247.482904 
L 496.681419 260.102534 
L 496.81646 260.102534 
L 496.951501 279.394954 
L 497.086543 279.60379 
L 497.356625 299.821053 
L 497.491666 287.559427 
L 497.626707 305.837504 
L 497.761749 302.615471 
L 497.89679 279.484455 
L 498.166872 291.567079 
L 498.301914 294.590222 
L 498.436955 314.290369 
L 498.571996 314.081533 
L 498.707037 306.921459 
L 498.842079 318.268187 
L 499.247202 374.415098 
L 499.787367 313.872698 
L 499.922408 305.777837 
L 500.05745 290.582569 
L 500.192491 290.582569 
L 500.327532 275.168522 
L 500.462573 284.407006 
L 500.597614 265.114585 
L 500.867697 296.062014 
L 501.137779 263.811849 
L 501.272821 285.978244 
L 501.407862 263.433957 
L 501.542903 297.633253 
L 501.677944 281.970592 
L 502.083068 310.193215 
L 502.218109 294.779168 
L 502.758274 364.977723 
L 502.893315 364.062825 
L 503.298439 311.933511 
L 503.43348 319.093585 
L 503.568521 311.277171 
L 503.703563 311.277171 
L 503.838604 289.946118 
L 503.973645 299.542606 
L 504.108686 281.125305 
L 504.243728 292.472033 
L 504.51381 275.178466 
L 504.648851 299.433216 
L 504.783893 296.947079 
L 504.918934 272.69233 
L 505.053975 270.912256 
L 505.189016 274.233734 
L 505.324057 292.511811 
L 505.459099 290.662126 
L 505.729181 327.645895 
L 505.864222 182.962685 
L 505.999264 200.703756 
L 506.269346 158.867048 
L 506.539429 199.828636 
L 506.67447 197.342499 
L 506.809511 176.011446 
L 506.944552 185.717324 
L 507.079593 207.883719 
L 507.484717 188.233294 
L 507.7548 214.894624 
L 507.889841 216.74431 
L 508.159923 206.799763 
L 508.294964 225.783903 
L 508.430006 225.575067 
L 508.565047 240.163717 
L 508.700088 240.163717 
L 508.970171 197.342499 
L 509.105212 206.262758 
L 509.375294 177.920799 
L 509.780418 224.003829 
L 510.0505 249.123754 
L 510.185542 239.527266 
L 510.320583 251.172331 
L 510.590665 222.522091 
L 510.725707 237.717359 
L 510.860748 226.072295 
L 510.995789 236.205788 
L 511.13083 259.655029 
L 511.400913 217.221648 
L 511.806036 272.781831 
L 511.941078 274.631516 
L 512.076119 252.087229 
L 512.21116 255.408707 
L 512.346201 267.053772 
L 512.616284 226.758468 
L 512.751325 216.605086 
L 512.886366 235.022387 
L 513.021407 215.729966 
L 513.156449 234.296435 
L 513.29149 224.699947 
L 513.426531 248.954697 
L 513.561572 251.977839 
L 513.696614 248.954697 
L 513.966696 278.251331 
L 514.236779 290.980351 
L 514.506861 262.857173 
L 514.776943 284.208115 
L 514.911985 264.507968 
L 515.047026 282.925268 
L 515.182067 283.134104 
L 515.317108 260.589816 
L 515.45215 257.566674 
L 515.857273 201.887157 
L 515.992314 201.887157 
L 516.262397 224.123164 
L 516.397438 211.861537 
L 516.532479 230.139614 
L 516.667521 211.573146 
L 516.937603 239.467599 
L 517.072644 229.314217 
L 517.342727 267.998504 
L 517.612809 225.883348 
L 517.74785 233.699762 
L 517.882892 256.244049 
L 518.017933 258.093735 
L 518.288015 289.647782 
L 518.423057 308.214251 
L 518.558098 295.952624 
L 518.693139 273.408337 
L 518.82818 273.408337 
L 518.963221 254.841868 
L 519.098263 273.259169 
L 519.233304 274.174067 
L 519.368345 266.079206 
L 519.503386 287.410259 
L 519.638428 269.132182 
L 519.773469 292.263198 
L 519.90851 291.348299 
L 520.313634 335.482198 
L 520.583716 295.584676 
L 520.718757 295.375841 
L 520.853799 285.779353 
L 521.123881 252.494955 
L 521.258922 250.64527 
L 521.393964 250.64527 
L 521.664046 226.430298 
L 521.799087 226.509855 
L 522.06917 258.163347 
L 522.204211 258.163347 
L 522.339252 249.42209 
L 522.474293 273.67684 
L 522.744376 242.450963 
L 523.014458 254.642977 
L 523.284541 271.508929 
L 523.689664 333.751846 
L 524.094788 366.419682 
L 524.229829 356.713805 
L 524.499912 324.016135 
L 524.634953 321.529999 
L 524.769994 336.118649 
L 524.905036 314.787596 
L 525.040077 330.201643 
L 525.175118 310.909223 
L 525.310159 321.042716 
L 525.850324 282.875545 
L 525.985365 305.419833 
L 526.120407 305.419833 
L 526.390489 308.820868 
L 526.52553 328.521015 
L 526.660571 328.521015 
L 527.065695 310.014213 
L 527.200736 287.469926 
L 527.335778 295.564787 
L 527.470819 293.07865 
L 527.60586 312.371071 
L 527.740901 288.92183 
L 527.875943 291.944972 
L 528.010984 288.722939 
L 528.146025 310.063936 
L 528.281066 311.913622 
L 528.416107 322.047115 
L 528.551149 306.384454 
L 528.68619 317.731182 
L 528.821231 303.142532 
L 528.956272 310.958945 
L 529.091314 288.792551 
L 529.226355 291.278687 
L 529.631479 228.03137 
L 529.76652 250.575658 
L 529.901561 248.725972 
L 530.036602 255.886046 
L 530.306685 237.657692 
L 530.711808 287.877652 
L 530.84685 303.540314 
L 530.981891 280.091072 
L 531.251973 314.131256 
L 531.387014 311.108114 
L 531.522056 292.830037 
L 531.657097 307.418687 
L 531.927179 269.699021 
L 532.062221 271.548707 
L 532.197262 269.699021 
L 532.332303 287.977098 
L 532.467344 277.823716 
L 532.737427 314.340091 
L 532.872468 324.493473 
L 533.007509 303.162421 
L 533.14255 303.162421 
L 533.277592 293.07865 
L 533.547674 326.890109 
L 533.817757 285.928521 
L 533.952798 278.768448 
L 534.087839 278.768448 
L 534.22288 228.81699 
L 534.357921 238.522867 
L 534.492963 257.089336 
L 534.628004 233.95832 
L 534.763045 258.21307 
L 534.898086 254.991037 
L 535.033128 256.781055 
L 535.168169 265.104641 
L 535.30321 280.767302 
L 535.438251 274.522126 
L 535.573293 282.33854 
L 535.843375 322.623899 
L 535.978416 298.289593 
L 536.113457 305.449667 
L 536.248499 295.365896 
L 536.38354 295.365896 
L 536.518581 314.350036 
L 536.653622 296.608965 
L 536.788664 320.94327 
L 536.923705 297.494029 
L 537.058746 295.644343 
L 537.193787 277.077875 
L 537.328829 289.339501 
L 537.733952 340.613584 
L 537.868993 330.480091 
L 538.004035 307.030849 
L 538.139076 306.115951 
L 538.274117 306.324787 
L 538.409158 284.993734 
L 538.5442 288.016876 
L 538.679241 279.922015 
L 538.949323 248.507192 
L 539.219406 293.287486 
L 539.354447 283.581608 
L 539.489488 263.881461 
L 539.624529 263.881461 
L 539.894612 276.073476 
L 540.029653 276.073476 
L 540.299736 233.640095 
L 540.569818 253.389964 
L 540.8399 228.647932 
L 540.974942 228.92638 
L 541.109983 228.92638 
L 541.245024 237.548302 
L 541.380065 237.548302 
L 541.515107 261.803051 
L 541.650148 262.717949 
L 541.785189 240.173662 
L 541.92023 244.668597 
L 542.055271 259.257247 
L 542.325354 231.581574 
L 542.595436 275.506636 
L 542.865519 317.035063 
L 543.00056 298.617763 
L 543.135601 317.910184 
L 543.270643 318.119019 
L 543.675766 272.811664 
L 543.810807 276.133143 
L 543.945849 268.038282 
L 544.08089 291.169297 
L 544.215931 283.352884 
L 544.486014 298.836543 
L 544.756096 274.651405 
L 544.891137 293.217874 
L 545.026178 295.704011 
L 545.16122 295.704011 
L 545.296261 302.864084 
L 545.431302 301.949186 
L 545.566343 311.545674 
L 545.701385 311.336838 
L 545.836426 295.674177 
L 545.971467 240.97917 
L 546.106508 240.97917 
L 546.511632 287.71854 
L 546.646673 272.055879 
L 546.916756 291.040018 
L 547.051797 276.451368 
L 547.186838 279.673401 
L 547.321879 289.269889 
L 547.456921 289.269889 
L 547.727003 258.004234 
L 547.997086 246.68734 
L 548.267168 279.38501 
L 548.402209 260.967709 
L 548.53725 284.098725 
L 548.672292 286.584861 
L 548.807333 284.098725 
L 549.077415 254.245196 
L 549.61758 331.792771 
L 549.752621 314.051699 
L 549.887663 313.136801 
L 550.022704 316.358834 
L 550.157745 330.947484 
L 550.427828 293.237763 
L 550.562869 293.028928 
L 550.832951 273.726563 
L 551.103034 308.840757 
L 551.508157 244.947044 
L 551.643199 254.543532 
L 551.77824 254.543532 
L 551.913281 244.410039 
L 552.048322 245.324937 
L 552.183364 245.324937 
L 552.318405 220.990631 
L 552.453446 223.476768 
L 552.588487 212.13004 
L 552.723528 222.263533 
L 552.993611 251.261831 
L 553.128652 235.59917 
L 553.398735 276.043642 
L 553.668817 256.204271 
L 553.803858 274.621572 
L 553.9389 271.59843 
L 554.073941 256.184382 
L 554.208982 264.279243 
L 554.344023 264.279243 
L 554.614106 292.979205 
L 555.154271 236.901906 
L 555.289312 236.901906 
L 555.559394 258.531295 
L 555.694436 246.538172 
L 555.829477 261.952219 
L 555.964518 257.357839 
L 556.099559 264.517912 
L 556.2346 245.533773 
L 556.369642 243.047636 
L 556.504683 235.091999 
L 556.639724 259.426304 
L 556.774765 259.426304 
L 556.909807 249.342534 
L 557.179889 272.334326 
L 557.449971 238.821204 
L 557.585013 248.974586 
L 557.720054 237.190298 
L 557.855095 239.179207 
L 557.990136 223.76516 
L 558.260219 223.76516 
L 558.530301 249.322645 
L 558.665343 252.345787 
L 558.800384 252.345787 
L 558.935425 234.06771 
L 559.205507 272.045934 
L 559.340549 260.699206 
L 559.47559 282.865601 
L 559.880714 230.696509 
L 560.015755 242.958135 
L 560.150796 242.958135 
L 560.420878 224.272332 
L 560.690961 224.272332 
L 560.826002 246.816619 
L 560.961043 248.666305 
L 561.231126 221.816029 
L 561.366167 236.404679 
L 561.501208 233.182646 
L 561.63625 221.816029 
L 561.771291 222.024864 
L 562.041373 196.865161 
L 562.176414 208.211889 
L 562.446497 208.211889 
L 562.581538 225.95296 
L 562.716579 214.606232 
L 562.851621 233.590372 
L 562.986662 233.590372 
L 563.256744 216.276916 
L 563.391786 218.38516 
L 563.661868 240.352664 
L 563.796909 228.091038 
L 564.066992 240.730557 
L 564.337074 223.208265 
L 564.472115 206.690373 
L 564.607157 231.601463 
L 564.877239 231.601463 
L 565.01228 221.44808 
L 565.147321 244.370261 
L 565.282363 244.370261 
L 565.552445 284.049002 
L 565.687486 272.403938 
L 565.822528 286.992588 
L 566.09261 239.88527 
L 566.227651 267.700167 
L 566.497734 255.816434 
L 566.632775 255.816434 
L 567.037899 291.457689 
L 567.443022 248.298357 
L 567.578064 248.507192 
L 567.983187 291.527301 
L 568.118228 281.821424 
L 568.25327 281.821424 
L 568.388311 281.612588 
L 568.928476 213.44272 
L 569.063517 223.148598 
L 569.198558 241.565898 
L 569.3336 229.304272 
L 569.468641 239.388043 
L 569.603682 229.682165 
L 569.738723 206.232924 
L 569.873764 206.232924 
L 570.008806 199.052961 
L 570.278888 220.403903 
L 570.413929 220.403903 
L 570.548971 210.250521 
L 570.684012 229.542941 
L 570.819053 219.459171 
L 570.954094 223.297766 
L 571.224177 249.113809 
L 571.359218 248.407747 
L 571.494259 248.407747 
L 571.764342 254.951258 
L 571.899383 251.729225 
L 572.034424 261.812996 
L 572.169465 251.679502 
L 572.304507 232.387082 
L 572.439548 232.387082 
L 572.574589 240.481943 
L 572.70963 230.885455 
L 572.844671 249.163532 
L 572.979713 249.163532 
L 573.114754 224.908783 
L 573.249795 244.60893 
L 573.384836 238.423422 
L 573.519878 259.754474 
L 573.654919 250.048597 
L 574.060043 250.048597 
L 574.195084 231.77052 
L 574.330125 255.219761 
L 574.465166 248.059687 
L 574.600207 257.656175 
L 574.735249 275.397246 
L 575.410455 224.560724 
L 575.545496 224.560724 
L 575.680537 227.782757 
L 575.815578 208.08261 
L 576.085661 254.662866 
L 576.220702 236.921795 
L 576.355743 251.510445 
L 576.625826 241.565898 
L 576.760867 238.542756 
L 576.895908 250.53588 
L 577.03095 250.53588 
L 577.165991 229.204827 
L 577.301032 240.014549 
L 577.436073 233.292036 
L 577.571114 254.225306 
L 577.841197 254.225306 
L 577.976238 252.186674 
L 578.111279 254.03636 
L 578.246321 235.469891 
L 578.381362 235.469891 
L 578.651444 201.588821 
L 578.921527 201.588821 
L 579.056568 204.910299 
L 579.191609 215.043792 
L 579.32665 214.834957 
L 579.461692 214.834957 
L 579.596733 215.043792 
L 579.731774 215.043792 
L 579.866815 236.374845 
L 580.001857 238.860982 
L 580.136898 215.729966 
L 580.271939 212.706824 
L 580.40698 219.866898 
L 580.677063 187.656511 
L 580.947145 160.657066 
L 581.352269 233.819097 
L 581.48731 218.156435 
L 581.757393 266.745491 
L 582.027475 248.795584 
L 582.297557 209.72346 
L 582.432599 212.746602 
L 582.56764 188.412296 
L 582.837722 209.445013 
L 582.972764 190.152592 
L 583.107805 205.427416 
L 583.242846 205.427416 
L 583.377887 193.16579 
L 583.783011 193.16579 
L 583.918052 183.082019 
L 584.188135 183.082019 
L 584.323176 206.53126 
L 584.458217 206.53126 
L 584.593258 216.615031 
L 584.7283 216.823866 
L 584.863341 226.957359 
L 585.133423 192.61884 
L 585.268464 212.428377 
L 585.403506 212.428377 
L 585.673588 232.456694 
L 585.808629 253.787746 
L 585.943671 250.764604 
L 586.078712 254.086083 
L 586.213753 235.519614 
L 586.348794 243.614475 
L 586.483836 243.614475 
L 586.618877 262.906896 
L 586.753918 262.906896 
L 586.888959 259.585417 
L 587.024 241.844346 
L 587.159042 241.128338 
L 587.294083 225.714291 
L 587.564165 225.714291 
L 587.699207 242.928301 
L 587.834248 245.414438 
L 587.969289 233.84893 
L 588.10433 233.84893 
L 588.239371 233.142867 
L 588.374413 274.44257 
L 588.509454 259.028522 
L 588.644495 282.159538 
L 588.779536 259.615251 
L 588.914578 259.824086 
L 589.049619 278.102163 
L 589.18466 262.439502 
L 589.319701 265.661535 
L 589.454743 265.661535 
L 589.589784 272.821609 
L 589.859866 272.821609 
L 589.994907 275.307745 
L 590.129949 296.638798 
L 590.26499 286.485416 
L 590.400031 267.501276 
L 590.535072 267.501276 
L 590.670114 257.417506 
L 590.805155 234.28649 
L 590.940196 231.064457 
L 591.075237 234.087599 
L 591.210278 212.756547 
L 591.34532 222.89004 
L 591.480361 219.866898 
L 591.615402 219.866898 
L 591.750443 227.961759 
L 591.885485 227.752923 
L 592.155567 268.376396 
L 592.42565 268.376396 
L 592.560691 268.585232 
L 592.695732 247.254179 
L 592.830773 247.254179 
L 592.965814 248.169077 
L 593.100856 263.583125 
L 593.235897 248.994475 
L 593.370938 248.994475 
L 593.505979 226.82808 
L 593.641021 226.619245 
L 594.046144 226.619245 
L 594.181186 219.459171 
L 594.451268 219.459171 
L 594.586309 237.876472 
L 594.72135 237.876472 
L 594.856392 213.542166 
L 595.261515 213.542166 
L 595.396557 223.625936 
L 595.531598 223.625936 
L 595.666639 226.847969 
L 595.80168 246.548116 
L 595.936721 238.731703 
L 596.071763 246.548116 
L 596.206804 246.548116 
L 596.476886 224.809337 
L 596.611928 227.832479 
L 596.746969 249.163532 
L 596.88201 246.14039 
L 597.017051 256.293772 
L 597.287134 256.293772 
L 597.557216 246.478505 
L 597.692257 227.186084 
L 597.96234 227.186084 
L 598.097381 230.507562 
L 598.232422 228.657877 
L 598.502505 230.656731 
L 598.772587 230.656731 
L 598.907628 212.378654 
L 599.04267 212.378654 
L 599.177711 202.294883 
L 599.312752 200.683867 
L 599.987958 200.683867 
L 600.123 179.352814 
L 600.258041 181.451114 
L 600.393082 181.451114 
L 600.528123 203.617508 
L 600.663164 181.451114 
L 600.933247 181.451114 
L 601.068288 202.782166 
L 601.338371 202.782166 
L 601.473412 212.865937 
L 601.608453 203.160059 
L 601.743494 203.160059 
L 601.878535 193.026566 
L 602.4187 193.026566 
L 602.553742 189.97359 
L 602.823824 189.97359 
L 602.958865 191.823276 
L 603.093907 191.823276 
L 603.228948 181.669894 
L 603.363989 181.669894 
L 603.49903 184.693036 
L 603.904154 131.83777 
L 604.039195 131.83777 
L 604.309278 150.344571 
L 604.444319 168.085643 
L 604.57936 158.001872 
L 604.714401 158.001872 
L 604.849443 165.818286 
L 605.119525 165.818286 
L 605.254566 164.903388 
L 605.389607 146.625311 
L 605.794731 146.625311 
L 605.929772 126.925164 
L 606.875061 126.925164 
L 607.010102 115.578436 
L 607.280185 115.578436 
L 607.415226 103.933372 
L 607.685308 103.933372 
L 607.82035 107.185239 
L 607.955391 123.404794 
L 608.900679 123.404794 
L 609.035721 135.049859 
L 609.170762 135.049859 
L 609.440844 122.808122 
L 609.845968 165.430449 
L 609.981009 167.70775 
L 610.11605 175.802611 
L 610.521174 175.802611 
L 610.656215 173.316474 
L 610.926298 173.316474 
L 611.061339 157.653813 
L 611.331421 157.653813 
L 611.466463 160.13995 
L 611.601504 137.973555 
L 611.736545 137.973555 
L 611.871586 160.13995 
L 612.141669 136.163648 
L 612.951916 136.163648 
L 613.221999 156.450523 
L 613.762164 156.450523 
L 613.897205 154.173222 
L 614.032246 176.717509 
L 614.167287 165.370782 
L 614.43737 165.370782 
L 614.572411 155.217399 
L 615.112576 155.217399 
L 615.247617 163.033813 
L 615.787782 163.033813 
L 615.922823 155.217399 
L 616.327947 155.217399 
L 616.462988 145.511522 
L 616.598029 145.511522 
L 616.733071 147.261762 
L 617.138194 147.261762 
L 617.273235 128.983685 
L 618.89373 128.983685 
L 619.028771 148.683832 
L 620.649266 148.683832 
L 620.784307 164.09788 
L 621.324472 164.09788 
L 621.459514 152.452815 
L 621.864637 152.452815 
L 621.999678 135.238805 
L 624.025297 135.238805 
L 624.160338 120.510931 
L 624.295379 120.510931 
L 624.430421 132.106273 
L 625.645792 132.106273 
L 625.780833 133.607899 
L 625.915874 143.313777 
L 626.185957 143.313777 
L 626.456039 121.962835 
L 628.616699 121.962835 
L 628.75174 106.548788 
L 629.697028 106.548788 
L 629.967111 153.477104 
L 630.372235 153.477104 
L 630.507276 161.571965 
L 630.777358 161.571965 
L 630.9124 146.157917 
L 631.722647 146.157917 
L 631.857688 143.134775 
L 631.992729 156.738915 
L 634.018348 156.738915 
L 634.153389 149.101503 
L 634.28843 159.185273 
L 634.558513 159.185273 
L 634.693554 147.152372 
L 636.314049 147.152372 
L 636.44909 127.859951 
L 638.069585 127.859951 
L 638.204626 123.882133 
L 639.690079 123.882133 
L 639.825121 113.74864 
L 640.365285 113.74864 
L 640.500327 104.042762 
L 645.496852 104.042762 
L 645.631893 107.195183 
L 652.248914 107.195183 
L 652.383955 113.788418 
L 653.464285 113.788418 
L 653.599326 106.72779 
L 654.00445 106.72779 
L 654.274532 94.495997 
L 655.084779 94.495997 
L 655.219821 96.982134 
L 655.624944 96.982134 
L 655.759985 96.773298 
L 667.373531 96.773298 
L 667.508572 96.982134 
L 667.643614 96.982134 
L 667.778655 96.773298 
L 668.31882 96.773298 
L 668.453861 96.982134 
L 668.588902 96.982134 
L 668.723943 96.773298 
L 668.858985 96.773298 
L 668.994026 96.982134 
L 670.344438 96.982134 
L 670.479479 96.773298 
L 675.070881 96.773298 
L 675.205922 96.982134 
L 675.340964 96.982134 
L 675.476005 88.887273 
L 871.690909 88.887273 
L 871.690909 88.887273 
" style="fill:none;stroke:#8dd3c7;stroke-linecap:square;stroke-width:1.5;"/>
   </g>
   <g id="line2d_17">
    <path clip-path="url(#p12ce9e63a1)" d="M 161.509091 288.225712 
L 162.859503 288.225712 
L 162.994544 212.865937 
L 202.291542 212.865937 
L 202.426583 209.007452 
L 204.587243 209.007452 
L 204.722284 206.073811 
L 224.303262 206.073811 
L 224.573344 187.378063 
L 224.708386 177.294293 
L 288.177763 177.294293 
L 288.312804 173.96287 
L 288.447845 166.524349 
L 350.296728 166.524349 
L 350.56681 157.474811 
L 603.634071 157.474811 
L 603.769113 151.537917 
L 603.904154 131.83777 
L 605.794731 131.83777 
L 605.929772 126.925164 
L 606.875061 126.925164 
L 607.010102 115.578436 
L 607.280185 115.578436 
L 607.415226 103.933372 
L 654.00445 103.933372 
L 654.274532 94.495997 
L 675.340964 94.495997 
L 675.476005 88.887273 
L 871.690909 88.887273 
L 871.690909 88.887273 
" style="fill:none;stroke:#feffb3;stroke-linecap:square;stroke-width:1.5;"/>
   </g>
   <g id="line2d_18">
    <path clip-path="url(#p12ce9e63a1)" d="M 161.509091 347.027816 
L 162.724462 347.027816 
L 162.859503 352.418272 
L 164.074874 352.418272 
L 164.209915 357.596949 
L 165.425287 357.596949 
L 165.560328 362.572168 
L 166.775699 362.572168 
L 166.91074 367.351923 
L 168.126111 367.351923 
L 168.261152 371.943892 
L 169.476523 371.943892 
L 169.611565 376.355454 
L 170.826936 376.355454 
L 170.961977 380.593696 
L 172.177348 380.593696 
L 172.312389 384.665427 
L 173.52776 384.665427 
L 173.662801 388.57719 
L 174.878172 388.57719 
L 175.013214 392.335269 
L 176.228585 392.335269 
L 176.363626 395.945702 
L 177.578997 395.945702 
L 177.714038 399.41429 
L 178.929409 399.41429 
L 179.064451 402.746605 
L 180.279822 402.746605 
L 180.414863 405.948001 
L 181.630234 405.948001 
L 181.765275 409.023622 
L 182.980646 409.023622 
L 183.115687 411.97841 
L 184.331058 411.97841 
L 184.4661 414.81711 
L 185.681471 414.81711 
L 185.816512 417.544285 
L 187.031883 417.544285 
L 187.166924 420.164316 
L 188.382295 420.164316 
L 188.517337 422.681412 
L 189.732708 422.681412 
L 189.867749 425.099617 
L 191.08312 425.099617 
L 191.218161 427.422816 
L 192.433532 427.422816 
L 192.568573 429.654743 
L 193.783944 429.654743 
L 193.918986 431.798982 
L 195.134357 431.798982 
L 195.269398 433.85898 
L 196.484769 433.85898 
L 196.61981 435.838045 
L 197.835181 435.838045 
L 197.970222 437.739357 
L 199.185594 437.739357 
L 199.320635 439.565971 
L 200.536006 439.565971 
L 200.671047 441.320822 
L 201.886418 441.320822 
L 202.021459 443.006729 
L 203.23683 443.006729 
L 203.371872 444.6264 
L 204.587243 444.6264 
L 204.722284 446.182439 
L 205.937655 446.182439 
L 206.072696 447.677345 
L 207.288067 447.677345 
L 207.423108 449.113519 
L 208.638479 449.113519 
L 208.773521 450.493269 
L 209.988892 450.493269 
L 210.123933 451.818812 
L 211.339304 451.818812 
L 211.474345 453.092278 
L 212.689716 453.092278 
L 212.824758 454.315712 
L 214.040129 454.315712 
L 214.17517 455.491081 
L 215.390541 455.491081 
L 215.525582 456.620272 
L 216.740953 456.620272 
L 216.875994 457.7051 
L 218.091365 457.7051 
L 218.226407 458.747307 
L 219.441778 458.747307 
L 219.576819 459.748569 
L 220.79219 459.748569 
L 220.927231 460.710494 
L 222.142602 460.710494 
L 222.277644 461.634626 
L 223.493015 461.634626 
L 223.628056 462.522452 
L 224.843427 462.522452 
L 224.978468 463.375397 
L 226.193839 463.375397 
L 226.32888 464.194832 
L 227.544251 464.194832 
L 227.679293 464.982074 
L 228.894664 464.982074 
L 229.029705 465.738386 
L 230.245076 465.738386 
L 230.380117 466.464985 
L 231.595488 466.464985 
L 231.730529 467.163037 
L 232.945901 467.163037 
L 233.080942 467.833665 
L 234.296313 467.833665 
L 234.431354 468.477945 
L 235.646725 468.477945 
L 235.781766 469.096913 
L 236.997137 469.096913 
L 237.132179 469.691563 
L 238.34755 469.691563 
L 238.482591 470.262851 
L 239.697962 470.262851 
L 239.833003 470.811694 
L 241.048374 470.811694 
L 241.183415 471.338975 
L 242.398786 471.338975 
L 242.533828 471.84554 
L 243.749199 471.84554 
L 243.88424 472.332203 
L 245.099611 472.332203 
L 245.234652 472.799746 
L 246.450023 472.799746 
L 246.585065 473.248921 
L 247.800436 473.248921 
L 247.935477 473.680449 
L 249.150848 473.680449 
L 249.285889 474.095023 
L 250.50126 474.095023 
L 250.636301 474.493309 
L 251.851672 474.493309 
L 251.986714 474.875948 
L 253.202085 474.875948 
L 253.337126 475.243553 
L 254.552497 475.243553 
L 254.687538 475.596717 
L 255.902909 475.596717 
L 256.037951 475.936005 
L 257.253322 475.936005 
L 257.388363 476.261964 
L 258.603734 476.261964 
L 258.738775 476.575116 
L 259.954146 476.575116 
L 260.089187 476.875965 
L 261.304558 476.875965 
L 261.4396 477.164995 
L 262.654971 477.164995 
L 262.790012 477.44267 
L 264.005383 477.44267 
L 264.140424 477.709435 
L 265.355795 477.709435 
L 265.490836 477.965719 
L 266.706208 477.965719 
L 266.841249 478.211935 
L 268.05662 478.211935 
L 268.191661 478.448478 
L 269.407032 478.448478 
L 269.542073 478.675727 
L 270.757444 478.675727 
L 270.892486 478.894049 
L 272.107857 478.894049 
L 272.242898 479.103793 
L 273.458269 479.103793 
L 273.59331 479.305296 
L 274.808681 479.305296 
L 275.078764 479.498883 
L 276.159094 479.498883 
L 276.429176 479.684865 
L 277.509506 479.684865 
L 277.779588 479.86354 
L 278.859918 479.86354 
L 279.130001 480.035195 
L 280.21033 480.035195 
L 280.480413 480.200106 
L 281.560743 480.200106 
L 281.830825 480.358538 
L 282.911155 480.358538 
L 283.181237 480.510746 
L 284.261567 480.510746 
L 284.53165 480.656973 
L 285.611979 480.656973 
L 285.882062 480.797456 
L 286.962392 480.797456 
L 287.232474 480.93242 
L 288.312804 480.93242 
L 288.582886 481.062081 
L 289.663216 481.062081 
L 289.933299 481.186648 
L 291.013629 481.186648 
L 291.283711 481.306322 
L 292.364041 481.306322 
L 292.634123 481.421293 
L 295.064865 481.531748 
L 295.334948 481.637863 
L 297.76569 481.739809 
L 298.035772 481.83775 
L 300.466515 481.931843 
L 300.736597 482.022239 
L 303.167339 482.109084 
L 303.437422 482.192517 
L 305.868164 482.272672 
L 306.138246 482.349678 
L 308.568988 482.423658 
L 308.839071 482.494732 
L 311.269813 482.563014 
L 311.539895 482.628613 
L 313.970637 482.691635 
L 314.375761 482.752181 
L 316.671462 482.810348 
L 317.076586 482.86623 
L 320.722699 482.971494 
L 321.127822 483.021044 
L 324.773936 483.114382 
L 325.179059 483.15832 
L 328.825172 483.241083 
L 329.230296 483.280042 
L 334.226822 483.387975 
L 334.766986 483.421163 
L 339.628471 483.513108 
L 340.303677 483.54138 
L 346.380532 483.643789 
L 347.055738 483.666927 
L 354.483006 483.769675 
L 355.428294 483.787867 
L 365.286304 483.896698 
L 366.501675 483.9099 
L 380.140839 484.016503 
L 382.166458 484.033159 
L 409.849909 484.143199 
L 414.576352 484.156461 
L 871.690909 484.232727 
L 871.690909 484.232727 
" style="fill:none;stroke:#bfbbd9;stroke-linecap:square;stroke-width:1.5;"/>
   </g>
   <g id="patch_3">
    <path d="M 126 504 
L 126 69.12 
" style="fill:none;stroke:#ffffff;stroke-linecap:square;stroke-linejoin:miter;stroke-width:0.8;"/>
   </g>
   <g id="patch_4">
    <path d="M 907.2 504 
L 907.2 69.12 
" style="fill:none;stroke:#ffffff;stroke-linecap:square;stroke-linejoin:miter;stroke-width:0.8;"/>
   </g>
   <g id="patch_5">
    <path d="M 126 504 
L 907.2 504 
" style="fill:none;stroke:#ffffff;stroke-linecap:square;stroke-linejoin:miter;stroke-width:0.8;"/>
   </g>
   <g id="patch_6">
    <path d="M 126 69.12 
L 907.2 69.12 
" style="fill:none;stroke:#ffffff;stroke-linecap:square;stroke-linejoin:miter;stroke-width:0.8;"/>
   </g>
   <g id="text_17">
    <!-- instance 14 with error 0.0 -->
    <g style="fill:#ffffff;" transform="translate(439.126875 63.12)scale(0.12 -0.12)">
     <defs>
      <path d="M 2834 3397 
L 2834 2853 
Q 2591 2978 2328 3040 
Q 2066 3103 1784 3103 
Q 1356 3103 1142 2972 
Q 928 2841 928 2578 
Q 928 2378 1081 2264 
Q 1234 2150 1697 2047 
L 1894 2003 
Q 2506 1872 2764 1633 
Q 3022 1394 3022 966 
Q 3022 478 2636 193 
Q 2250 -91 1575 -91 
Q 1294 -91 989 -36 
Q 684 19 347 128 
L 347 722 
Q 666 556 975 473 
Q 1284 391 1588 391 
Q 1994 391 2212 530 
Q 2431 669 2431 922 
Q 2431 1156 2273 1281 
Q 2116 1406 1581 1522 
L 1381 1569 
Q 847 1681 609 1914 
Q 372 2147 372 2553 
Q 372 3047 722 3315 
Q 1072 3584 1716 3584 
Q 2034 3584 2315 3537 
Q 2597 3491 2834 3397 
z
" id="DejaVuSans-73" transform="scale(0.015625)"/>
      <path d="M 3122 3366 
L 3122 2828 
Q 2878 2963 2633 3030 
Q 2388 3097 2138 3097 
Q 1578 3097 1268 2742 
Q 959 2388 959 1747 
Q 959 1106 1268 751 
Q 1578 397 2138 397 
Q 2388 397 2633 464 
Q 2878 531 3122 666 
L 3122 134 
Q 2881 22 2623 -34 
Q 2366 -91 2075 -91 
Q 1284 -91 818 406 
Q 353 903 353 1747 
Q 353 2603 823 3093 
Q 1294 3584 2113 3584 
Q 2378 3584 2631 3529 
Q 2884 3475 3122 3366 
z
" id="DejaVuSans-63" transform="scale(0.015625)"/>
      <path id="DejaVuSans-20" transform="scale(0.015625)"/>
      <path d="M 269 3500 
L 844 3500 
L 1563 769 
L 2278 3500 
L 2956 3500 
L 3675 769 
L 4391 3500 
L 4966 3500 
L 4050 0 
L 3372 0 
L 2619 2869 
L 1863 0 
L 1184 0 
L 269 3500 
z
" id="DejaVuSans-77" transform="scale(0.015625)"/>
      <path d="M 3513 2113 
L 3513 0 
L 2938 0 
L 2938 2094 
Q 2938 2591 2744 2837 
Q 2550 3084 2163 3084 
Q 1697 3084 1428 2787 
Q 1159 2491 1159 1978 
L 1159 0 
L 581 0 
L 581 4863 
L 1159 4863 
L 1159 2956 
Q 1366 3272 1645 3428 
Q 1925 3584 2291 3584 
Q 2894 3584 3203 3211 
Q 3513 2838 3513 2113 
z
" id="DejaVuSans-68" transform="scale(0.015625)"/>
      <path d="M 684 794 
L 1344 794 
L 1344 0 
L 684 0 
L 684 794 
z
" id="DejaVuSans-2e" transform="scale(0.015625)"/>
     </defs>
     <use xlink:href="#DejaVuSans-69"/>
     <use x="27.783203" xlink:href="#DejaVuSans-6e"/>
     <use x="91.162109" xlink:href="#DejaVuSans-73"/>
     <use x="143.261719" xlink:href="#DejaVuSans-74"/>
     <use x="182.470703" xlink:href="#DejaVuSans-61"/>
     <use x="243.75" xlink:href="#DejaVuSans-6e"/>
     <use x="307.128906" xlink:href="#DejaVuSans-63"/>
     <use x="362.109375" xlink:href="#DejaVuSans-65"/>
     <use x="423.632812" xlink:href="#DejaVuSans-20"/>
     <use x="455.419922" xlink:href="#DejaVuSans-31"/>
     <use x="519.042969" xlink:href="#DejaVuSans-34"/>
     <use x="582.666016" xlink:href="#DejaVuSans-20"/>
     <use x="614.453125" xlink:href="#DejaVuSans-77"/>
     <use x="696.240234" xlink:href="#DejaVuSans-69"/>
     <use x="724.023438" xlink:href="#DejaVuSans-74"/>
     <use x="763.232422" xlink:href="#DejaVuSans-68"/>
     <use x="826.611328" xlink:href="#DejaVuSans-20"/>
     <use x="858.398438" xlink:href="#DejaVuSans-65"/>
     <use x="919.921875" xlink:href="#DejaVuSans-72"/>
     <use x="959.285156" xlink:href="#DejaVuSans-72"/>
     <use x="998.148438" xlink:href="#DejaVuSans-6f"/>
     <use x="1059.330078" xlink:href="#DejaVuSans-72"/>
     <use x="1100.443359" xlink:href="#DejaVuSans-20"/>
     <use x="1132.230469" xlink:href="#DejaVuSans-30"/>
     <use x="1195.853516" xlink:href="#DejaVuSans-2e"/>
     <use x="1227.640625" xlink:href="#DejaVuSans-30"/>
    </g>
   </g>
   <g id="legend_1">
    <g id="patch_7">
     <path d="M 805.348438 499 
L 900.2 499 
Q 902.2 499 902.2 497 
L 902.2 453.965625 
Q 902.2 451.965625 900.2 451.965625 
L 805.348438 451.965625 
Q 803.348438 451.965625 803.348438 453.965625 
L 803.348438 497 
Q 803.348438 499 805.348438 499 
z
" style="opacity:0.8;stroke:#cccccc;stroke-linejoin:miter;"/>
    </g>
    <g id="line2d_19">
     <path d="M 807.348438 460.064062 
L 827.348438 460.064062 
" style="fill:none;stroke:#8dd3c7;stroke-linecap:square;stroke-width:1.5;"/>
    </g>
    <g id="line2d_20"/>
    <g id="text_18">
     <!-- cost -->
     <g style="fill:#ffffff;" transform="translate(835.348438 463.564062)scale(0.1 -0.1)">
      <use xlink:href="#DejaVuSans-63"/>
      <use x="54.980469" xlink:href="#DejaVuSans-6f"/>
      <use x="116.162109" xlink:href="#DejaVuSans-73"/>
      <use x="168.261719" xlink:href="#DejaVuSans-74"/>
     </g>
    </g>
    <g id="line2d_21">
     <path d="M 807.348438 474.742188 
L 827.348438 474.742188 
" style="fill:none;stroke:#feffb3;stroke-linecap:square;stroke-width:1.5;"/>
    </g>
    <g id="line2d_22"/>
    <g id="text_19">
     <!-- best cost -->
     <g style="fill:#ffffff;" transform="translate(835.348438 478.242188)scale(0.1 -0.1)">
      <defs>
       <path d="M 3116 1747 
Q 3116 2381 2855 2742 
Q 2594 3103 2138 3103 
Q 1681 3103 1420 2742 
Q 1159 2381 1159 1747 
Q 1159 1113 1420 752 
Q 1681 391 2138 391 
Q 2594 391 2855 752 
Q 3116 1113 3116 1747 
z
M 1159 2969 
Q 1341 3281 1617 3432 
Q 1894 3584 2278 3584 
Q 2916 3584 3314 3078 
Q 3713 2572 3713 1747 
Q 3713 922 3314 415 
Q 2916 -91 2278 -91 
Q 1894 -91 1617 61 
Q 1341 213 1159 525 
L 1159 0 
L 581 0 
L 581 4863 
L 1159 4863 
L 1159 2969 
z
" id="DejaVuSans-62" transform="scale(0.015625)"/>
      </defs>
      <use xlink:href="#DejaVuSans-62"/>
      <use x="63.476562" xlink:href="#DejaVuSans-65"/>
      <use x="125" xlink:href="#DejaVuSans-73"/>
      <use x="177.099609" xlink:href="#DejaVuSans-74"/>
      <use x="216.308594" xlink:href="#DejaVuSans-20"/>
      <use x="248.095703" xlink:href="#DejaVuSans-63"/>
      <use x="303.076172" xlink:href="#DejaVuSans-6f"/>
      <use x="364.257812" xlink:href="#DejaVuSans-73"/>
      <use x="416.357422" xlink:href="#DejaVuSans-74"/>
     </g>
    </g>
    <g id="line2d_23">
     <path d="M 807.348438 489.420313 
L 827.348438 489.420313 
" style="fill:none;stroke:#bfbbd9;stroke-linecap:square;stroke-width:1.5;"/>
    </g>
    <g id="line2d_24"/>
    <g id="text_20">
     <!-- temperature -->
     <g style="fill:#ffffff;" transform="translate(835.348438 492.920313)scale(0.1 -0.1)">
      <defs>
       <path d="M 3328 2828 
Q 3544 3216 3844 3400 
Q 4144 3584 4550 3584 
Q 5097 3584 5394 3201 
Q 5691 2819 5691 2113 
L 5691 0 
L 5113 0 
L 5113 2094 
Q 5113 2597 4934 2840 
Q 4756 3084 4391 3084 
Q 3944 3084 3684 2787 
Q 3425 2491 3425 1978 
L 3425 0 
L 2847 0 
L 2847 2094 
Q 2847 2600 2669 2842 
Q 2491 3084 2119 3084 
Q 1678 3084 1418 2786 
Q 1159 2488 1159 1978 
L 1159 0 
L 581 0 
L 581 3500 
L 1159 3500 
L 1159 2956 
Q 1356 3278 1631 3431 
Q 1906 3584 2284 3584 
Q 2666 3584 2933 3390 
Q 3200 3197 3328 2828 
z
" id="DejaVuSans-6d" transform="scale(0.015625)"/>
       <path d="M 1159 525 
L 1159 -1331 
L 581 -1331 
L 581 3500 
L 1159 3500 
L 1159 2969 
Q 1341 3281 1617 3432 
Q 1894 3584 2278 3584 
Q 2916 3584 3314 3078 
Q 3713 2572 3713 1747 
Q 3713 922 3314 415 
Q 2916 -91 2278 -91 
Q 1894 -91 1617 61 
Q 1341 213 1159 525 
z
M 3116 1747 
Q 3116 2381 2855 2742 
Q 2594 3103 2138 3103 
Q 1681 3103 1420 2742 
Q 1159 2381 1159 1747 
Q 1159 1113 1420 752 
Q 1681 391 2138 391 
Q 2594 391 2855 752 
Q 3116 1113 3116 1747 
z
" id="DejaVuSans-70" transform="scale(0.015625)"/>
       <path d="M 544 1381 
L 544 3500 
L 1119 3500 
L 1119 1403 
Q 1119 906 1312 657 
Q 1506 409 1894 409 
Q 2359 409 2629 706 
Q 2900 1003 2900 1516 
L 2900 3500 
L 3475 3500 
L 3475 0 
L 2900 0 
L 2900 538 
Q 2691 219 2414 64 
Q 2138 -91 1772 -91 
Q 1169 -91 856 284 
Q 544 659 544 1381 
z
M 1991 3584 
L 1991 3584 
z
" id="DejaVuSans-75" transform="scale(0.015625)"/>
      </defs>
      <use xlink:href="#DejaVuSans-74"/>
      <use x="39.208984" xlink:href="#DejaVuSans-65"/>
      <use x="100.732422" xlink:href="#DejaVuSans-6d"/>
      <use x="198.144531" xlink:href="#DejaVuSans-70"/>
      <use x="261.621094" xlink:href="#DejaVuSans-65"/>
      <use x="323.144531" xlink:href="#DejaVuSans-72"/>
      <use x="364.257812" xlink:href="#DejaVuSans-61"/>
      <use x="425.537109" xlink:href="#DejaVuSans-74"/>
      <use x="464.746094" xlink:href="#DejaVuSans-75"/>
      <use x="528.125" xlink:href="#DejaVuSans-72"/>
      <use x="566.988281" xlink:href="#DejaVuSans-65"/>
     </g>
    </g>
   </g>
  </g>
 </g>
 <defs>
  <clipPath id="p12ce9e63a1">
   <rect height="434.88" width="781.2" x="126" y="69.12"/>
  </clipPath>
 </defs>
</svg>
