<?xml version="1.0" encoding="utf-8" standalone="no"?>
<!DOCTYPE svg PUBLIC "-//W3C//DTD SVG 1.1//EN"
  "http://www.w3.org/Graphics/SVG/1.1/DTD/svg11.dtd">
<svg height="576pt" version="1.1" viewBox="0 0 1008 576" width="1008pt" xmlns="http://www.w3.org/2000/svg" xmlns:xlink="http://www.w3.org/1999/xlink">
 <metadata>
  <rdf:RDF xmlns:cc="http://creativecommons.org/ns#" xmlns:dc="http://purl.org/dc/elements/1.1/" xmlns:rdf="http://www.w3.org/1999/02/22-rdf-syntax-ns#">
   <cc:Work>
    <dc:type rdf:resource="http://purl.org/dc/dcmitype/StillImage"/>
    <dc:date>2022-01-07T00:38:43.122624</dc:date>
    <dc:format>image/svg+xml</dc:format>
    <dc:creator>
     <cc:Agent>
      <dc:title>Matplotlib v3.4.3, https://matplotlib.org/</dc:title>
     </cc:Agent>
    </dc:creator>
   </cc:Work>
  </rdf:RDF>
 </metadata>
 <defs>
  <style type="text/css">*{stroke-linecap:butt;stroke-linejoin:round;}</style>
 </defs>
 <g id="figure_1">
  <g id="patch_1">
   <path d="M 0 576 
L 1008 576 
L 1008 0 
L 0 0 
z
"/>
  </g>
  <g id="axes_1">
   <g id="patch_2">
    <path d="M 126 504 
L 907.2 504 
L 907.2 69.12 
L 126 69.12 
z
"/>
   </g>
   <g id="matplotlib.axis_1">
    <g id="xtick_1">
     <g id="line2d_1">
      <defs>
       <path d="M 0 0 
L 0 3.5 
" id="ma71828da2b" style="stroke:#ffffff;stroke-width:0.8;"/>
      </defs>
      <g>
       <use style="fill:#ffffff;stroke:#ffffff;stroke-width:0.8;" x="161.509091" xlink:href="#ma71828da2b" y="504"/>
      </g>
     </g>
     <g id="text_1">
      <!-- 0 -->
      <g style="fill:#ffffff;" transform="translate(158.327841 518.598438)scale(0.1 -0.1)">
       <defs>
        <path d="M 2034 4250 
Q 1547 4250 1301 3770 
Q 1056 3291 1056 2328 
Q 1056 1369 1301 889 
Q 1547 409 2034 409 
Q 2525 409 2770 889 
Q 3016 1369 3016 2328 
Q 3016 3291 2770 3770 
Q 2525 4250 2034 4250 
z
M 2034 4750 
Q 2819 4750 3233 4129 
Q 3647 3509 3647 2328 
Q 3647 1150 3233 529 
Q 2819 -91 2034 -91 
Q 1250 -91 836 529 
Q 422 1150 422 2328 
Q 422 3509 836 4129 
Q 1250 4750 2034 4750 
z
" id="DejaVuSans-30" transform="scale(0.015625)"/>
       </defs>
       <use xlink:href="#DejaVuSans-30"/>
      </g>
     </g>
    </g>
    <g id="xtick_2">
     <g id="line2d_2">
      <g>
       <use style="fill:#ffffff;stroke:#ffffff;stroke-width:0.8;" x="325.979174" xlink:href="#ma71828da2b" y="504"/>
      </g>
     </g>
     <g id="text_2">
      <!-- 500 -->
      <g style="fill:#ffffff;" transform="translate(316.435424 518.598438)scale(0.1 -0.1)">
       <defs>
        <path d="M 691 4666 
L 3169 4666 
L 3169 4134 
L 1269 4134 
L 1269 2991 
Q 1406 3038 1543 3061 
Q 1681 3084 1819 3084 
Q 2600 3084 3056 2656 
Q 3513 2228 3513 1497 
Q 3513 744 3044 326 
Q 2575 -91 1722 -91 
Q 1428 -91 1123 -41 
Q 819 9 494 109 
L 494 744 
Q 775 591 1075 516 
Q 1375 441 1709 441 
Q 2250 441 2565 725 
Q 2881 1009 2881 1497 
Q 2881 1984 2565 2268 
Q 2250 2553 1709 2553 
Q 1456 2553 1204 2497 
Q 953 2441 691 2322 
L 691 4666 
z
" id="DejaVuSans-35" transform="scale(0.015625)"/>
       </defs>
       <use xlink:href="#DejaVuSans-35"/>
       <use x="63.623047" xlink:href="#DejaVuSans-30"/>
       <use x="127.246094" xlink:href="#DejaVuSans-30"/>
      </g>
     </g>
    </g>
    <g id="xtick_3">
     <g id="line2d_3">
      <g>
       <use style="fill:#ffffff;stroke:#ffffff;stroke-width:0.8;" x="490.449257" xlink:href="#ma71828da2b" y="504"/>
      </g>
     </g>
     <g id="text_3">
      <!-- 1000 -->
      <g style="fill:#ffffff;" transform="translate(477.724257 518.598438)scale(0.1 -0.1)">
       <defs>
        <path d="M 794 531 
L 1825 531 
L 1825 4091 
L 703 3866 
L 703 4441 
L 1819 4666 
L 2450 4666 
L 2450 531 
L 3481 531 
L 3481 0 
L 794 0 
L 794 531 
z
" id="DejaVuSans-31" transform="scale(0.015625)"/>
       </defs>
       <use xlink:href="#DejaVuSans-31"/>
       <use x="63.623047" xlink:href="#DejaVuSans-30"/>
       <use x="127.246094" xlink:href="#DejaVuSans-30"/>
       <use x="190.869141" xlink:href="#DejaVuSans-30"/>
      </g>
     </g>
    </g>
    <g id="xtick_4">
     <g id="line2d_4">
      <g>
       <use style="fill:#ffffff;stroke:#ffffff;stroke-width:0.8;" x="654.91934" xlink:href="#ma71828da2b" y="504"/>
      </g>
     </g>
     <g id="text_4">
      <!-- 1500 -->
      <g style="fill:#ffffff;" transform="translate(642.19434 518.598438)scale(0.1 -0.1)">
       <use xlink:href="#DejaVuSans-31"/>
       <use x="63.623047" xlink:href="#DejaVuSans-35"/>
       <use x="127.246094" xlink:href="#DejaVuSans-30"/>
       <use x="190.869141" xlink:href="#DejaVuSans-30"/>
      </g>
     </g>
    </g>
    <g id="xtick_5">
     <g id="line2d_5">
      <g>
       <use style="fill:#ffffff;stroke:#ffffff;stroke-width:0.8;" x="819.389423" xlink:href="#ma71828da2b" y="504"/>
      </g>
     </g>
     <g id="text_5">
      <!-- 2000 -->
      <g style="fill:#ffffff;" transform="translate(806.664423 518.598438)scale(0.1 -0.1)">
       <defs>
        <path d="M 1228 531 
L 3431 531 
L 3431 0 
L 469 0 
L 469 531 
Q 828 903 1448 1529 
Q 2069 2156 2228 2338 
Q 2531 2678 2651 2914 
Q 2772 3150 2772 3378 
Q 2772 3750 2511 3984 
Q 2250 4219 1831 4219 
Q 1534 4219 1204 4116 
Q 875 4013 500 3803 
L 500 4441 
Q 881 4594 1212 4672 
Q 1544 4750 1819 4750 
Q 2544 4750 2975 4387 
Q 3406 4025 3406 3419 
Q 3406 3131 3298 2873 
Q 3191 2616 2906 2266 
Q 2828 2175 2409 1742 
Q 1991 1309 1228 531 
z
" id="DejaVuSans-32" transform="scale(0.015625)"/>
       </defs>
       <use xlink:href="#DejaVuSans-32"/>
       <use x="63.623047" xlink:href="#DejaVuSans-30"/>
       <use x="127.246094" xlink:href="#DejaVuSans-30"/>
       <use x="190.869141" xlink:href="#DejaVuSans-30"/>
      </g>
     </g>
    </g>
    <g id="text_6">
     <!-- iteration -->
     <g style="fill:#ffffff;" transform="translate(495.477344 532.276562)scale(0.1 -0.1)">
      <defs>
       <path d="M 603 3500 
L 1178 3500 
L 1178 0 
L 603 0 
L 603 3500 
z
M 603 4863 
L 1178 4863 
L 1178 4134 
L 603 4134 
L 603 4863 
z
" id="DejaVuSans-69" transform="scale(0.015625)"/>
       <path d="M 1172 4494 
L 1172 3500 
L 2356 3500 
L 2356 3053 
L 1172 3053 
L 1172 1153 
Q 1172 725 1289 603 
Q 1406 481 1766 481 
L 2356 481 
L 2356 0 
L 1766 0 
Q 1100 0 847 248 
Q 594 497 594 1153 
L 594 3053 
L 172 3053 
L 172 3500 
L 594 3500 
L 594 4494 
L 1172 4494 
z
" id="DejaVuSans-74" transform="scale(0.015625)"/>
       <path d="M 3597 1894 
L 3597 1613 
L 953 1613 
Q 991 1019 1311 708 
Q 1631 397 2203 397 
Q 2534 397 2845 478 
Q 3156 559 3463 722 
L 3463 178 
Q 3153 47 2828 -22 
Q 2503 -91 2169 -91 
Q 1331 -91 842 396 
Q 353 884 353 1716 
Q 353 2575 817 3079 
Q 1281 3584 2069 3584 
Q 2775 3584 3186 3129 
Q 3597 2675 3597 1894 
z
M 3022 2063 
Q 3016 2534 2758 2815 
Q 2500 3097 2075 3097 
Q 1594 3097 1305 2825 
Q 1016 2553 972 2059 
L 3022 2063 
z
" id="DejaVuSans-65" transform="scale(0.015625)"/>
       <path d="M 2631 2963 
Q 2534 3019 2420 3045 
Q 2306 3072 2169 3072 
Q 1681 3072 1420 2755 
Q 1159 2438 1159 1844 
L 1159 0 
L 581 0 
L 581 3500 
L 1159 3500 
L 1159 2956 
Q 1341 3275 1631 3429 
Q 1922 3584 2338 3584 
Q 2397 3584 2469 3576 
Q 2541 3569 2628 3553 
L 2631 2963 
z
" id="DejaVuSans-72" transform="scale(0.015625)"/>
       <path d="M 2194 1759 
Q 1497 1759 1228 1600 
Q 959 1441 959 1056 
Q 959 750 1161 570 
Q 1363 391 1709 391 
Q 2188 391 2477 730 
Q 2766 1069 2766 1631 
L 2766 1759 
L 2194 1759 
z
M 3341 1997 
L 3341 0 
L 2766 0 
L 2766 531 
Q 2569 213 2275 61 
Q 1981 -91 1556 -91 
Q 1019 -91 701 211 
Q 384 513 384 1019 
Q 384 1609 779 1909 
Q 1175 2209 1959 2209 
L 2766 2209 
L 2766 2266 
Q 2766 2663 2505 2880 
Q 2244 3097 1772 3097 
Q 1472 3097 1187 3025 
Q 903 2953 641 2809 
L 641 3341 
Q 956 3463 1253 3523 
Q 1550 3584 1831 3584 
Q 2591 3584 2966 3190 
Q 3341 2797 3341 1997 
z
" id="DejaVuSans-61" transform="scale(0.015625)"/>
       <path d="M 1959 3097 
Q 1497 3097 1228 2736 
Q 959 2375 959 1747 
Q 959 1119 1226 758 
Q 1494 397 1959 397 
Q 2419 397 2687 759 
Q 2956 1122 2956 1747 
Q 2956 2369 2687 2733 
Q 2419 3097 1959 3097 
z
M 1959 3584 
Q 2709 3584 3137 3096 
Q 3566 2609 3566 1747 
Q 3566 888 3137 398 
Q 2709 -91 1959 -91 
Q 1206 -91 779 398 
Q 353 888 353 1747 
Q 353 2609 779 3096 
Q 1206 3584 1959 3584 
z
" id="DejaVuSans-6f" transform="scale(0.015625)"/>
       <path d="M 3513 2113 
L 3513 0 
L 2938 0 
L 2938 2094 
Q 2938 2591 2744 2837 
Q 2550 3084 2163 3084 
Q 1697 3084 1428 2787 
Q 1159 2491 1159 1978 
L 1159 0 
L 581 0 
L 581 3500 
L 1159 3500 
L 1159 2956 
Q 1366 3272 1645 3428 
Q 1925 3584 2291 3584 
Q 2894 3584 3203 3211 
Q 3513 2838 3513 2113 
z
" id="DejaVuSans-6e" transform="scale(0.015625)"/>
      </defs>
      <use xlink:href="#DejaVuSans-69"/>
      <use x="27.783203" xlink:href="#DejaVuSans-74"/>
      <use x="66.992188" xlink:href="#DejaVuSans-65"/>
      <use x="128.515625" xlink:href="#DejaVuSans-72"/>
      <use x="169.628906" xlink:href="#DejaVuSans-61"/>
      <use x="230.908203" xlink:href="#DejaVuSans-74"/>
      <use x="270.117188" xlink:href="#DejaVuSans-69"/>
      <use x="297.900391" xlink:href="#DejaVuSans-6f"/>
      <use x="359.082031" xlink:href="#DejaVuSans-6e"/>
     </g>
    </g>
   </g>
   <g id="matplotlib.axis_2">
    <g id="ytick_1">
     <g id="line2d_6">
      <defs>
       <path d="M 0 0 
L -3.5 0 
" id="ma78a842b7b" style="stroke:#ffffff;stroke-width:0.8;"/>
      </defs>
      <g>
       <use style="fill:#ffffff;stroke:#ffffff;stroke-width:0.8;" x="126" xlink:href="#ma78a842b7b" y="484.232727"/>
      </g>
     </g>
     <g id="text_7">
      <!-- 0 -->
      <g style="fill:#ffffff;" transform="translate(112.6375 488.031946)scale(0.1 -0.1)">
       <use xlink:href="#DejaVuSans-30"/>
      </g>
     </g>
    </g>
    <g id="ytick_2">
     <g id="line2d_7">
      <g>
       <use style="fill:#ffffff;stroke:#ffffff;stroke-width:0.8;" x="126" xlink:href="#ma78a842b7b" y="431.807987"/>
      </g>
     </g>
     <g id="text_8">
      <!-- 5000 -->
      <g style="fill:#ffffff;" transform="translate(93.55 435.607205)scale(0.1 -0.1)">
       <use xlink:href="#DejaVuSans-35"/>
       <use x="63.623047" xlink:href="#DejaVuSans-30"/>
       <use x="127.246094" xlink:href="#DejaVuSans-30"/>
       <use x="190.869141" xlink:href="#DejaVuSans-30"/>
      </g>
     </g>
    </g>
    <g id="ytick_3">
     <g id="line2d_8">
      <g>
       <use style="fill:#ffffff;stroke:#ffffff;stroke-width:0.8;" x="126" xlink:href="#ma78a842b7b" y="379.383246"/>
      </g>
     </g>
     <g id="text_9">
      <!-- 10000 -->
      <g style="fill:#ffffff;" transform="translate(87.1875 383.182465)scale(0.1 -0.1)">
       <use xlink:href="#DejaVuSans-31"/>
       <use x="63.623047" xlink:href="#DejaVuSans-30"/>
       <use x="127.246094" xlink:href="#DejaVuSans-30"/>
       <use x="190.869141" xlink:href="#DejaVuSans-30"/>
       <use x="254.492188" xlink:href="#DejaVuSans-30"/>
      </g>
     </g>
    </g>
    <g id="ytick_4">
     <g id="line2d_9">
      <g>
       <use style="fill:#ffffff;stroke:#ffffff;stroke-width:0.8;" x="126" xlink:href="#ma78a842b7b" y="326.958505"/>
      </g>
     </g>
     <g id="text_10">
      <!-- 15000 -->
      <g style="fill:#ffffff;" transform="translate(87.1875 330.757724)scale(0.1 -0.1)">
       <use xlink:href="#DejaVuSans-31"/>
       <use x="63.623047" xlink:href="#DejaVuSans-35"/>
       <use x="127.246094" xlink:href="#DejaVuSans-30"/>
       <use x="190.869141" xlink:href="#DejaVuSans-30"/>
       <use x="254.492188" xlink:href="#DejaVuSans-30"/>
      </g>
     </g>
    </g>
    <g id="ytick_5">
     <g id="line2d_10">
      <g>
       <use style="fill:#ffffff;stroke:#ffffff;stroke-width:0.8;" x="126" xlink:href="#ma78a842b7b" y="274.533765"/>
      </g>
     </g>
     <g id="text_11">
      <!-- 20000 -->
      <g style="fill:#ffffff;" transform="translate(87.1875 278.332983)scale(0.1 -0.1)">
       <use xlink:href="#DejaVuSans-32"/>
       <use x="63.623047" xlink:href="#DejaVuSans-30"/>
       <use x="127.246094" xlink:href="#DejaVuSans-30"/>
       <use x="190.869141" xlink:href="#DejaVuSans-30"/>
       <use x="254.492188" xlink:href="#DejaVuSans-30"/>
      </g>
     </g>
    </g>
    <g id="ytick_6">
     <g id="line2d_11">
      <g>
       <use style="fill:#ffffff;stroke:#ffffff;stroke-width:0.8;" x="126" xlink:href="#ma78a842b7b" y="222.109024"/>
      </g>
     </g>
     <g id="text_12">
      <!-- 25000 -->
      <g style="fill:#ffffff;" transform="translate(87.1875 225.908243)scale(0.1 -0.1)">
       <use xlink:href="#DejaVuSans-32"/>
       <use x="63.623047" xlink:href="#DejaVuSans-35"/>
       <use x="127.246094" xlink:href="#DejaVuSans-30"/>
       <use x="190.869141" xlink:href="#DejaVuSans-30"/>
       <use x="254.492188" xlink:href="#DejaVuSans-30"/>
      </g>
     </g>
    </g>
    <g id="ytick_7">
     <g id="line2d_12">
      <g>
       <use style="fill:#ffffff;stroke:#ffffff;stroke-width:0.8;" x="126" xlink:href="#ma78a842b7b" y="169.684283"/>
      </g>
     </g>
     <g id="text_13">
      <!-- 30000 -->
      <g style="fill:#ffffff;" transform="translate(87.1875 173.483502)scale(0.1 -0.1)">
       <defs>
        <path d="M 2597 2516 
Q 3050 2419 3304 2112 
Q 3559 1806 3559 1356 
Q 3559 666 3084 287 
Q 2609 -91 1734 -91 
Q 1441 -91 1130 -33 
Q 819 25 488 141 
L 488 750 
Q 750 597 1062 519 
Q 1375 441 1716 441 
Q 2309 441 2620 675 
Q 2931 909 2931 1356 
Q 2931 1769 2642 2001 
Q 2353 2234 1838 2234 
L 1294 2234 
L 1294 2753 
L 1863 2753 
Q 2328 2753 2575 2939 
Q 2822 3125 2822 3475 
Q 2822 3834 2567 4026 
Q 2313 4219 1838 4219 
Q 1578 4219 1281 4162 
Q 984 4106 628 3988 
L 628 4550 
Q 988 4650 1302 4700 
Q 1616 4750 1894 4750 
Q 2613 4750 3031 4423 
Q 3450 4097 3450 3541 
Q 3450 3153 3228 2886 
Q 3006 2619 2597 2516 
z
" id="DejaVuSans-33" transform="scale(0.015625)"/>
       </defs>
       <use xlink:href="#DejaVuSans-33"/>
       <use x="63.623047" xlink:href="#DejaVuSans-30"/>
       <use x="127.246094" xlink:href="#DejaVuSans-30"/>
       <use x="190.869141" xlink:href="#DejaVuSans-30"/>
       <use x="254.492188" xlink:href="#DejaVuSans-30"/>
      </g>
     </g>
    </g>
    <g id="ytick_8">
     <g id="line2d_13">
      <g>
       <use style="fill:#ffffff;stroke:#ffffff;stroke-width:0.8;" x="126" xlink:href="#ma78a842b7b" y="117.259542"/>
      </g>
     </g>
     <g id="text_14">
      <!-- 35000 -->
      <g style="fill:#ffffff;" transform="translate(87.1875 121.058761)scale(0.1 -0.1)">
       <use xlink:href="#DejaVuSans-33"/>
       <use x="63.623047" xlink:href="#DejaVuSans-35"/>
       <use x="127.246094" xlink:href="#DejaVuSans-30"/>
       <use x="190.869141" xlink:href="#DejaVuSans-30"/>
       <use x="254.492188" xlink:href="#DejaVuSans-30"/>
      </g>
     </g>
    </g>
   </g>
   <g id="line2d_14">
    <path clip-path="url(#pe734a25eb5)" d="M 161.509091 223.283338 
L 161.838031 240.122165 
L 162.166971 242.711947 
L 162.495911 256.23753 
L 162.824852 243.068435 
L 163.153792 236.368553 
L 163.482732 233.778771 
L 163.811672 254.507514 
L 164.140612 244.567783 
L 165.127433 277.196941 
L 165.456373 269.217896 
L 165.785313 291.917809 
L 166.114253 281.925653 
L 166.443193 265.086826 
L 166.772134 289.820819 
L 167.430014 314.754026 
L 168.087894 345.118435 
L 168.416834 320.384443 
L 168.745775 345.118435 
L 169.074715 339.687232 
L 169.403655 319.923105 
L 169.732595 325.658372 
L 170.061535 345.422499 
L 170.390475 323.425078 
L 170.719416 309.899495 
L 171.048356 285.5849 
L 171.706236 322.345128 
L 172.364116 340.316329 
L 172.693057 275.026557 
L 173.021997 274.114367 
L 173.350937 292.777574 
L 173.679877 298.512841 
L 174.008817 309.312338 
L 174.337757 300.882439 
L 174.666698 276.567844 
L 174.995638 283.404031 
L 175.982458 226.072334 
L 176.311398 253.500959 
L 176.640339 249.149705 
L 176.969279 272.877143 
L 177.298219 253.731627 
L 177.627159 243.739472 
L 177.956099 259.917747 
L 178.285039 262.727713 
L 178.61398 271.157611 
L 179.27186 316.138039 
L 179.6008 309.301853 
L 179.92974 285.574415 
L 180.25868 303.189128 
L 180.587621 327.503723 
L 180.916561 313.978139 
L 181.574441 266.019987 
L 181.903381 289.244147 
L 182.232321 294.224497 
L 182.890202 279.650419 
L 183.219142 285.385686 
L 183.877022 245.700157 
L 184.205962 228.86133 
L 184.534903 252.085491 
L 184.863843 249.495708 
L 185.192783 249.013401 
L 185.521723 240.583502 
L 185.850663 244.148385 
L 186.179603 254.14054 
L 186.508544 269.993782 
L 186.837484 267.330605 
L 187.166424 244.630692 
L 187.495364 234.638537 
L 187.824304 211.414377 
L 188.153244 238.392148 
L 188.482185 222.538907 
L 188.811125 225.191599 
L 189.140065 240.258469 
L 189.469005 216.531031 
L 189.797945 232.384273 
L 190.455826 198.308192 
L 191.113706 238.622817 
L 191.442646 215.922904 
L 191.771586 222.759091 
L 192.100526 217.936014 
L 192.429467 235.424908 
L 192.758407 231.346263 
L 193.087347 209.348842 
L 193.416287 225.810211 
L 194.074167 191.734129 
L 194.732048 236.190309 
L 195.060988 223.021214 
L 195.718868 246.182465 
L 196.047808 225.93603 
L 196.376748 233.915075 
L 196.705689 216.457637 
L 197.034629 206.465481 
L 197.363569 213.186333 
L 197.692509 245.930826 
L 198.350389 279.849633 
L 198.67933 301.847054 
L 199.00827 304.510231 
L 199.66615 267.44594 
L 199.99509 260.609753 
L 200.32403 278.224466 
L 200.652971 256.782747 
L 200.981911 280.006907 
L 201.639791 256.940022 
L 201.968731 256.940022 
L 202.297671 265.36992 
L 202.626612 265.36992 
L 202.955552 256.940022 
L 203.284492 263.776208 
L 203.613432 282.921723 
L 203.942372 287.744799 
L 204.271312 296.174697 
L 204.600253 279.335871 
L 204.929193 290.051488 
L 205.258133 269.805053 
L 205.916013 314.78548 
L 206.244953 291.56132 
L 206.573894 280.845703 
L 206.902834 256.111711 
L 207.231774 271.178581 
L 207.889654 282.345051 
L 208.218594 279.681874 
L 208.547535 296.520701 
L 208.876475 293.868009 
L 209.205415 307.393592 
L 209.534355 332.127585 
L 209.863295 342.843202 
L 210.192235 363.005757 
L 210.521176 352.29014 
L 210.850116 331.561397 
L 211.179056 318.392303 
L 211.507996 299.246787 
L 211.836936 301.899479 
L 212.165876 314.250748 
L 212.494817 308.515481 
L 212.823757 291.676655 
L 213.152697 294.339832 
L 213.481637 304.331987 
L 213.810577 327.556147 
L 215.126338 259.844352 
L 215.455278 265.579619 
L 215.784218 245.333184 
L 216.113158 239.901981 
L 216.442099 239.901981 
L 217.099979 267.907277 
L 217.757859 300.546921 
L 218.086799 277.322761 
L 218.41574 245.794522 
L 218.74468 234.565142 
L 219.07362 250.743417 
L 219.40256 256.478684 
L 220.06044 211.257102 
L 220.389381 221.249258 
L 220.718321 208.080163 
L 221.047261 222.255813 
L 221.376201 227.078889 
L 221.705141 229.742066 
L 222.034081 222.90588 
L 222.363022 246.633318 
L 222.691962 229.794491 
L 223.020902 224.363288 
L 223.349842 239.430158 
L 223.678782 236.766981 
L 224.007722 259.466894 
L 224.336663 267.896792 
L 224.665603 272.300471 
L 224.994543 261.154971 
L 225.323483 263.818148 
L 225.652423 258.082881 
L 225.981363 235.382968 
L 226.310304 250.806327 
L 226.639244 235.739456 
L 226.968184 213.742035 
L 227.297124 203.74988 
L 227.626064 215.912419 
L 227.955004 221.647686 
L 228.283945 215.912419 
L 228.612885 207.482521 
L 228.941825 217.422252 
L 229.270765 242.156245 
L 229.599705 231.356748 
L 229.928645 255.671343 
L 230.586526 206.622755 
L 230.915466 213.458942 
L 231.244406 203.466786 
L 231.573346 185.852073 
L 231.902286 191.283276 
L 232.231227 173.825838 
L 232.560167 188.892708 
L 232.889107 322.974225 
L 233.218047 333.689842 
L 233.546987 316.851015 
L 234.204868 362.020172 
L 234.533808 366.843248 
L 234.862748 374.822294 
L 235.191688 234.649022 
L 235.520628 261.459034 
L 235.849568 264.143181 
L 236.836389 314.607236 
L 237.165329 322.670161 
L 237.823209 350.874672 
L 238.15215 342.444774 
L 238.48109 319.220614 
L 238.81003 327.650512 
L 239.13897 305.653091 
L 239.46791 297.674045 
L 239.79685 315.131484 
L 240.125791 295.367356 
L 240.454731 284.56786 
L 241.112611 314.554812 
L 241.441551 297.097373 
L 241.770491 307.037104 
L 242.757312 262.371225 
L 243.415192 236.987165 
L 243.744132 212.67257 
L 244.073073 254.067146 
L 244.402013 231.367233 
L 244.730953 241.485208 
L 245.388833 229.836431 
L 246.046714 266.491809 
L 246.704594 304.667505 
L 247.033534 312.646551 
L 247.362474 296.468276 
L 247.691414 302.203543 
L 248.020355 318.381818 
L 248.349295 302.203543 
L 249.007175 341.605978 
L 249.336115 319.608557 
L 249.665055 308.80906 
L 249.993996 292.630785 
L 250.651876 250.701477 
L 250.980816 242.271579 
L 251.309756 255.797162 
L 251.638696 278.497075 
L 251.967637 263.430204 
L 252.296577 255.451159 
L 252.954457 212.588691 
L 253.283397 230.203404 
L 253.612337 220.263673 
L 253.941278 203.802304 
L 254.270218 227.529742 
L 254.599158 235.508788 
L 254.928098 218.051349 
L 255.257038 235.508788 
L 255.585978 218.669961 
L 255.914919 233.736831 
L 256.572799 213.029059 
L 256.901739 221.458957 
L 257.230679 200.384211 
L 257.559619 193.548025 
L 257.88856 209.7263 
L 258.2175 212.389477 
L 258.54644 207.566401 
L 258.87538 224.405227 
L 259.20432 247.10514 
L 259.53326 244.441963 
L 259.862201 256.793232 
L 260.191141 264.164151 
L 260.520081 261.500974 
L 260.849021 261.920372 
L 261.177961 263.178566 
L 261.506901 268.913832 
L 261.835842 249.149705 
L 262.493722 283.44597 
L 262.822662 275.466925 
L 263.151602 252.767012 
L 263.480542 267.708063 
L 263.809483 273.44333 
L 264.138423 259.917747 
L 264.467363 269.909902 
L 264.796303 250.145775 
L 265.125243 249.841712 
L 265.454183 255.576978 
L 265.783123 272.038347 
L 266.112064 256.971476 
L 266.441004 251.540273 
L 266.769944 288.143227 
L 267.098884 298.942724 
L 267.427824 290.963678 
L 267.756764 313.044979 
L 268.414645 330.240294 
L 268.743585 317.889025 
L 269.072525 296.447306 
L 269.401465 289.59015 
L 270.059346 246.643802 
L 270.388286 268.085521 
L 270.717226 250.470809 
L 271.375106 277.039667 
L 271.704046 292.106538 
L 272.032987 282.166807 
L 272.361927 266.313565 
L 272.690867 271.744768 
L 273.677687 218.680446 
L 274.006628 296.090818 
L 274.664508 276.49445 
L 274.993448 284.924348 
L 275.651328 310.518107 
L 275.980269 289.789364 
L 276.309209 307.267773 
L 276.638149 314.103959 
L 276.967089 296.489246 
L 277.624969 334.832701 
L 277.95391 337.422483 
L 278.28285 326.622987 
L 278.61179 332.358254 
L 278.94073 340.337299 
L 279.26967 345.160375 
L 279.59861 331.634792 
L 279.927551 323.204894 
L 280.585431 288.373896 
L 280.914371 285.721204 
L 281.243311 268.106491 
L 281.572251 243.791897 
L 281.901192 249.338434 
L 282.230132 232.877066 
L 282.888012 281.338496 
L 283.216952 274.50231 
L 283.545892 298.816904 
L 283.874833 304.248108 
L 284.203773 324.012235 
L 284.532713 326.675412 
L 284.861653 333.511598 
L 285.190593 321.160329 
L 285.519533 301.396202 
L 285.848474 314.565297 
L 286.177414 322.544342 
L 286.506354 300.546921 
L 286.835294 287.377826 
L 287.493174 242.481278 
L 287.822115 258.942647 
L 288.151055 249.002916 
L 288.479995 233.149674 
L 288.808935 250.764387 
L 289.137875 242.785342 
L 289.795756 206.077538 
L 290.124696 213.354092 
L 290.782576 250.061896 
L 291.440456 206.63324 
L 292.098337 234.596597 
L 292.427277 218.135228 
L 292.756217 217.317403 
L 293.085157 220.431432 
L 293.414097 239.576947 
L 293.743038 222.738121 
L 294.071978 296.227122 
L 294.400918 281.894198 
L 294.729858 258.670038 
L 295.058798 264.405305 
L 295.387738 289.139297 
L 296.374559 255.293885 
L 297.032439 227.089374 
L 297.69032 263.671358 
L 298.01926 285.113077 
L 298.3482 262.413164 
L 298.67714 274.764433 
L 299.00608 258.303065 
L 299.33502 282.030502 
L 299.663961 276.295236 
L 299.992901 281.118312 
L 300.321841 300.882439 
L 300.650781 276.148447 
L 300.979721 286.947943 
L 301.308661 278.518045 
L 301.637602 273.086842 
L 301.966542 281.065887 
L 302.295482 283.655669 
L 302.953362 238.486513 
L 303.282302 243.917716 
L 303.611243 239.09464 
L 303.940183 236.504858 
L 304.269123 239.09464 
L 304.598063 232.258454 
L 304.927003 219.907185 
L 305.255943 199.178442 
L 305.584884 210.051333 
L 305.913824 200.709245 
L 306.242764 183.870418 
L 306.571704 193.862574 
L 306.900644 187.026387 
L 307.558525 226.9321 
L 307.887465 250.15626 
L 308.216405 236.630677 
L 308.545345 245.060575 
L 308.874285 258.586158 
L 309.203225 241.12872 
L 310.190046 300.75662 
L 310.847926 257.369904 
L 311.176866 242.303034 
L 311.505807 239.639857 
L 311.834747 262.33977 
L 312.163687 273.055387 
L 312.821567 310.73829 
L 313.150507 316.169494 
L 313.479448 302.643911 
L 313.808388 280.646489 
L 314.137328 292.997758 
L 314.466268 277.144517 
L 314.795208 296.552156 
L 315.124148 304.971569 
L 315.453089 289.904699 
L 315.782029 310.633441 
L 316.110969 317.469627 
L 316.439909 337.632182 
L 316.768849 332.809106 
L 317.42673 288.856204 
L 318.08461 327.042385 
L 318.41355 329.695077 
L 318.74249 318.89558 
L 319.07143 335.734407 
L 319.400371 325.742251 
L 319.729311 328.332033 
L 320.058251 325.742251 
L 320.387191 303.042339 
L 320.716131 297.307072 
L 321.045071 277.144517 
L 321.374012 274.491825 
L 321.702952 297.191737 
L 322.031892 289.212692 
L 322.360832 286.926973 
L 323.018712 297.632105 
L 323.347653 281.778864 
L 324.005533 310.371317 
L 324.334473 288.373896 
L 324.663413 299.173393 
L 324.992353 289.233662 
L 325.321294 297.212707 
L 325.650234 231.828571 
L 325.979174 249.422314 
L 326.308114 257.401359 
L 326.637054 278.130102 
L 326.965994 288.929598 
L 327.294935 286.266422 
L 327.623875 286.109147 
L 327.952815 308.106568 
L 328.281755 291.6452 
L 328.610695 308.106568 
L 329.268576 321.411968 
L 329.597516 300.683225 
L 329.926456 311.482722 
L 330.255396 288.258562 
L 330.584336 294.979413 
L 331.242217 332.756682 
L 331.571157 321.957185 
L 331.900097 332.756682 
L 332.557977 309.689796 
L 332.886917 293.511521 
L 333.215858 304.227138 
L 333.544798 295.797239 
L 333.873738 314.942755 
L 334.531618 329.757986 
L 334.860558 327.09481 
L 335.189499 343.933636 
L 335.518439 338.502433 
L 335.847379 330.523388 
L 336.176319 313.065949 
L 336.505259 321.044994 
L 336.834199 323.708171 
L 337.16314 333.647902 
L 337.49208 327.912636 
L 337.82102 336.342534 
L 338.80784 275.991172 
L 339.13678 285.983328 
L 339.465721 299.508911 
L 340.123601 254.727697 
L 340.452541 271.189066 
L 340.781481 261.19691 
L 341.110421 271.912527 
L 341.768302 238.612332 
L 342.097242 252.137915 
L 342.426182 247.314839 
L 342.755122 264.153666 
L 343.084062 258.418399 
L 343.741943 299.414546 
L 344.070883 296.824764 
L 344.399823 299.414546 
L 344.728763 312.583641 
L 345.057703 318.318908 
L 345.386644 320.982085 
L 346.044524 282.072442 
L 346.373464 279.48266 
L 346.702404 298.628175 
L 347.031344 292.892909 
L 347.689225 252.578283 
L 348.018165 249.925591 
L 348.347105 230.014675 
L 348.676045 231.115594 
L 349.004985 233.883621 
L 349.662866 210.732855 
L 349.991806 233.432768 
L 350.320746 246.224405 
L 350.649686 270.538999 
L 350.978626 273.128781 
L 351.307567 255.514069 
L 351.965447 289.065903 
L 352.294387 295.902089 
L 352.623327 298.565266 
L 352.952267 318.329393 
L 353.281208 323.152469 
L 353.610148 302.906034 
L 354.268028 342.214105 
L 354.596968 318.486667 
L 354.925908 328.426398 
L 355.254849 319.9965 
L 355.583789 317.343808 
L 355.912729 294.119648 
L 356.241669 309.186518 
L 356.899549 352.657113 
L 357.22849 336.803872 
L 357.55743 313.579711 
L 357.88637 338.313704 
L 358.21531 328.373973 
L 358.54425 314.84839 
L 358.87319 325.647887 
L 359.202131 320.824811 
L 359.531071 334.350394 
L 360.517891 283.299181 
L 360.846831 288.122257 
L 361.175772 274.596674 
L 362.162592 316.358223 
L 362.491532 322.093489 
L 362.820472 315.257303 
L 363.149413 297.799864 
L 363.807293 320.090864 
L 364.136233 317.427687 
L 364.465173 324.263874 
L 364.794113 340.117115 
L 365.123054 326.591532 
L 365.451994 306.345097 
L 365.780934 308.997789 
L 366.767754 269.427595 
L 367.096695 246.727682 
L 367.425635 254.517999 
L 367.754575 277.217911 
L 368.083515 264.866642 
L 368.412455 258.030456 
L 368.741395 255.440674 
L 369.070336 245.448518 
L 369.728216 286.130117 
L 370.057156 266.36599 
L 370.386096 268.955772 
L 370.715036 253.888902 
L 371.043977 251.23621 
L 371.372917 256.971476 
L 371.701857 264.950522 
L 372.359737 300.263827 
L 372.688677 310.203558 
L 373.017618 285.469565 
L 373.346558 277.49052 
L 373.675498 299.487941 
L 374.333378 256.101226 
L 374.991259 261.417094 
L 375.320199 239.975375 
L 375.649139 261.417094 
L 375.978079 258.764403 
L 376.307019 268.756558 
L 376.635959 283.246756 
L 376.9649 264.101241 
L 377.29384 280.279516 
L 377.95172 246.21392 
L 378.28066 244.808937 
L 378.6096 254.801092 
L 378.938541 275.047527 
L 379.267481 255.2834 
L 379.596421 249.852197 
L 379.925361 272.552109 
L 380.254301 255.713283 
L 380.583241 262.549469 
L 380.912182 251.833852 
L 381.241122 260.567814 
L 381.570062 245.500943 
L 381.899002 261.962312 
L 382.556882 227.508772 
L 382.885823 224.845595 
L 383.214763 227.498287 
L 383.543703 234.334473 
L 383.872643 254.497029 
L 384.201583 251.907246 
L 384.530523 227.592652 
L 384.859464 217.652921 
L 385.188404 232.719791 
L 385.517344 235.382968 
L 385.846284 220.316098 
L 386.175224 244.630692 
L 386.504164 259.697563 
L 386.833105 239.933436 
L 387.162045 263.660873 
L 387.490985 273.600604 
L 387.819925 296.824764 
L 388.148865 273.097327 
L 388.477805 308.714695 
L 388.806746 300.976804 
L 389.135686 311.692421 
L 389.464626 309.039729 
L 389.793566 296.62555 
L 390.122506 296.62555 
L 390.451446 318.622971 
L 390.780387 234.98454 
L 391.109327 243.414438 
L 391.438267 267.729033 
L 391.767207 261.993767 
L 392.096147 275.729049 
L 392.425087 268.892862 
L 392.754028 265.149736 
L 393.082968 281.002978 
L 393.411908 267.833883 
L 393.740848 261.144486 
L 394.069788 280.290001 
L 394.398728 260.043566 
L 394.727669 262.434134 
L 395.056609 287.168127 
L 395.385549 271.314885 
L 395.714489 283.666154 
L 396.043429 278.843078 
L 396.372369 259.078951 
L 396.70131 247.996361 
L 397.03025 256.751292 
L 397.35919 276.997727 
L 397.68813 287.713344 
L 398.01707 303.891619 
L 398.34601 306.481402 
L 398.674951 321.548272 
L 399.003891 316.725196 
L 399.332831 332.578437 
L 399.661771 310.581016 
L 400.319651 295.314932 
L 400.648592 279.136657 
L 400.977532 276.546875 
L 401.306472 259.089436 
L 401.635412 264.520639 
L 401.964352 280.698914 
L 402.622233 260.043566 
L 402.951173 243.204739 
L 403.280113 265.202161 
L 403.609053 267.435455 
L 403.937993 245.438033 
L 404.595874 291.54035 
L 404.924814 272.394835 
L 405.253754 281.055402 
L 405.582694 302.497121 
L 405.911634 299.907339 
L 406.240574 294.172072 
L 406.569515 271.47216 
L 406.898455 271.47216 
L 407.227395 274.124852 
L 407.556335 291.58229 
L 407.885275 279.231021 
L 408.214215 284.966288 
L 408.543156 308.190448 
L 408.872096 301.354262 
L 409.201036 281.107827 
L 409.529976 287.944013 
L 409.858916 267.781458 
L 410.187856 290.481371 
L 410.516796 269.039652 
L 410.845737 287.891588 
L 411.174677 270.014752 
L 411.503617 291.456471 
L 411.832557 281.464315 
L 412.490437 303.80774 
L 412.819378 301.144563 
L 413.148318 283.52985 
L 413.477258 304.258593 
L 413.806198 306.921769 
L 414.135138 296.929614 
L 414.464078 273.202176 
L 414.793019 265.223131 
L 415.121959 273.569149 
L 415.779839 306.250733 
L 416.108779 303.598041 
L 416.437719 323.760596 
L 417.0956 280.321456 
L 417.42454 280.321456 
L 417.75348 257.097296 
L 418.41136 278.539015 
L 418.740301 286.968913 
L 419.727121 231.734206 
L 420.056061 241.673937 
L 420.385001 266.40793 
L 420.713942 244.410509 
L 421.042882 236.431463 
L 421.371822 239.021245 
L 421.700762 234.198169 
L 422.029702 215.052654 
L 422.358642 230.119524 
L 422.687583 227.529742 
L 423.016523 272.761808 
L 423.345463 257.33845 
L 424.003343 292.337206 
L 424.332283 286.60194 
L 424.661224 267.456425 
L 424.990164 267.456425 
L 425.319104 277.396155 
L 425.648044 272.573079 
L 425.976984 285.742174 
L 426.634865 254.822062 
L 426.963805 244.022565 
L 427.292745 269.29129 
L 427.621685 261.417094 
L 427.950625 276.483965 
L 428.279565 273.820788 
L 428.937446 320.038439 
L 429.595326 291.802474 
L 429.924266 313.799895 
L 430.253206 321.716031 
L 430.582147 336.782902 
L 430.911087 333.490628 
L 431.240027 337.768487 
L 431.568967 338.575828 
L 431.897907 350.927097 
L 432.226847 328.929675 
L 432.555788 324.442118 
L 432.884728 308.263843 
L 433.213668 285.039683 
L 433.542608 289.348996 
L 434.200488 307.435532 
L 434.529429 324.89297 
L 434.858369 332.872016 
L 435.187309 316.033189 
L 435.516249 313.443407 
L 435.845189 329.296649 
L 436.50307 286.423696 
L 436.83201 266.26114 
L 437.16095 267.288665 
L 437.48989 274.124852 
L 437.81883 290.303127 
L 438.14777 312.300548 
L 438.476711 299.949279 
L 438.805651 305.684545 
L 439.134591 328.384458 
L 439.463531 304.069863 
L 439.792471 301.417172 
L 440.121411 283.959733 
L 440.450352 216.122118 
L 442.423993 331.896916 
L 442.752933 309.899495 
L 443.081873 331.896916 
L 443.739753 289.705484 
L 444.068693 297.68453 
L 444.397634 277.920403 
L 444.726574 295.535116 
L 445.713394 259.141861 
L 446.042334 278.905988 
L 446.371275 289.705484 
L 446.700215 269.941357 
L 447.029155 294.67535 
L 447.358095 284.683194 
L 447.687035 304.447322 
L 448.015975 281.747409 
L 448.673856 308.442087 
L 449.331736 347.341244 
L 449.660676 332.274374 
L 449.989616 354.974287 
L 450.318557 348.1381 
L 450.647497 325.438188 
L 450.976437 331.173454 
L 451.305377 285.196957 
L 451.634317 292.819514 
L 452.292198 332.557468 
L 452.621138 317.490597 
L 452.950078 293.176002 
L 453.279018 285.123562 
L 453.607958 283.739549 
L 453.936898 304.468291 
L 454.265839 279.734299 
L 454.594779 218.512687 
L 454.923719 230.863956 
L 455.252659 208.866534 
L 455.581599 230.863956 
L 455.910539 232.447183 
L 456.23948 251.592698 
L 456.56842 260.022596 
L 457.2263 234.502233 
L 457.55524 264.489184 
L 457.88418 264.489184 
L 458.871001 225.076264 
L 459.199941 235.875761 
L 459.857821 250.690992 
L 460.186762 226.376398 
L 460.844642 262.979352 
L 461.173582 275.330621 
L 461.502522 281.065887 
L 461.831462 275.634684 
L 462.160403 273.128781 
L 462.818283 301.972874 
L 463.147223 277.658279 
L 463.476163 277.920403 
L 463.805103 274.35552 
L 464.134044 257.516694 
L 464.462984 263.189051 
L 464.791924 290.774949 
L 465.120864 267.550789 
L 465.449804 277.49052 
L 465.778744 294.947959 
L 466.107685 297.60065 
L 466.436625 307.592806 
L 466.765565 286.864064 
L 467.094505 302.717305 
L 467.423445 285.259866 
L 468.081326 327.021415 
L 468.410266 316.305798 
L 468.739206 300.127523 
L 469.397086 257.181175 
L 470.054967 292.504966 
L 470.383907 289.841789 
L 470.712847 284.410586 
L 471.041787 291.246772 
L 471.370727 253.27029 
L 471.699667 274.712009 
L 472.028608 286.895518 
L 472.686488 248.05927 
L 473.344368 289.422391 
L 473.673308 288.426321 
L 474.002249 299.225817 
L 474.331189 301.878509 
L 474.660129 278.654349 
L 474.989069 268.662194 
L 475.318009 281.831288 
L 475.646949 306.145883 
L 475.97589 312.982069 
L 476.30483 336.20623 
L 476.63377 330.470963 
L 476.96271 327.807786 
L 477.949531 267.204786 
L 478.278471 288.646505 
L 478.607411 285.993813 
L 478.936351 307.991234 
L 479.265291 313.716016 
L 479.594231 328.782886 
L 479.923172 318.476182 
L 480.252112 301.637355 
L 480.909992 278.895503 
L 481.238932 227.739441 
L 481.896812 205.993659 
L 482.225753 230.727651 
L 482.554693 237.930811 
L 482.883633 254.392179 
L 483.212573 230.077584 
L 484.199394 268.29522 
L 484.528334 250.837782 
L 484.857274 255.660858 
L 485.186214 245.668702 
L 485.515154 263.126141 
L 485.844094 263.126141 
L 486.173035 250.774872 
L 486.501975 263.126141 
L 486.830915 240.426228 
L 487.159855 264.153666 
L 487.817735 220.274158 
L 488.146676 241.715877 
L 488.475616 233.736831 
L 488.804556 241.715877 
L 489.133496 221.469442 
L 489.462436 223.304308 
L 489.791376 223.304308 
L 490.449257 268.599284 
L 490.778197 258.386944 
L 491.107137 282.114382 
L 491.436077 297.181253 
L 492.093958 268.40007 
L 492.422898 266.638599 
L 492.751838 259.362045 
L 493.409718 288.174682 
L 493.738658 293.909949 
L 494.067599 280.384366 
L 494.396539 283.970218 
L 494.725479 307.697656 
L 495.054419 283.383061 
L 495.712299 321.663606 
L 496.04124 298.963694 
L 496.37018 296.300517 
L 496.69912 283.131422 
L 497.02806 277.217911 
L 497.68594 322.680646 
L 498.014881 297.946654 
L 498.343821 322.680646 
L 498.672761 322.680646 
L 499.001701 305.84182 
L 499.330641 319.010915 
L 499.659581 343.325509 
L 499.988522 345.978201 
L 500.646402 359.38845 
L 500.975342 356.735758 
L 501.633222 307.687171 
L 501.962163 292.6203 
L 502.291103 307.687171 
L 502.620043 299.257272 
L 502.948983 321.254693 
L 503.606863 297.286102 
L 503.935804 321.600697 
L 504.264744 316.169494 
L 504.593684 294.727775 
L 504.922624 282.376506 
L 505.251564 261.521944 
L 505.580504 253.092046 
L 505.909445 261.532429 
L 506.238385 277.993797 
L 506.567325 275.330621 
L 507.225205 311.75533 
L 507.554145 317.490597 
L 507.883086 314.900815 
L 508.212026 304.961084 
L 508.540966 280.227091 
L 508.869906 304.541686 
L 509.198846 294.035768 
L 509.527786 323.592837 
L 509.856727 333.532568 
L 510.185667 315.917855 
L 510.514607 291.60326 
L 510.843547 311.765815 
L 511.172487 288.038378 
L 511.501427 285.375201 
L 511.830368 293.354246 
L 512.159308 295.944029 
L 512.488248 293.291337 
L 512.817188 317.018774 
L 513.146128 306.219278 
L 513.475068 330.533873 
L 513.804009 307.309712 
L 514.132949 318.109209 
L 514.461889 300.65177 
L 514.790829 310.486652 
L 515.119769 293.385701 
L 515.448709 310.140648 
L 515.77765 293.67928 
L 516.10659 314.408022 
L 516.43553 298.229747 
L 516.76447 290.942708 
L 517.09341 304.468291 
L 517.42235 301.8156 
L 517.751291 256.887597 
L 518.080231 244.536328 
L 518.409171 265.317495 
L 518.738111 245.553368 
L 519.067051 237.12347 
L 519.395991 256.887597 
L 519.724932 244.536328 
L 520.053872 251.372514 
L 520.382812 235.194239 
L 520.711752 245.993736 
L 521.040692 243.341044 
L 521.369632 241.946546 
L 521.698573 230.738136 
L 522.027513 233.327918 
L 522.356453 246.497013 
L 522.685393 243.907231 
L 523.014333 266.607144 
L 523.343273 249.149705 
L 523.672214 261.500974 
L 524.001154 253.521928 
L 524.330094 230.822016 
L 524.987974 269.280806 
L 525.316914 246.056645 
L 525.645855 234.271564 
L 525.974795 259.005556 
L 526.303735 239.860041 
L 526.632675 269.490504 
L 526.961615 262.413164 
L 527.290555 239.713252 
L 527.619496 236.735526 
L 527.948436 253.574353 
L 528.277376 237.396078 
L 528.935256 261.637278 
L 529.593137 216.656851 
L 529.922077 229.00812 
L 530.251017 218.292503 
L 530.908897 263.189051 
L 531.237837 250.019956 
L 531.566778 245.19688 
L 531.895718 242.607097 
L 532.224658 264.604519 
L 532.553598 274.544249 
L 533.211478 318.014844 
L 533.540419 315.351668 
L 533.869359 293.909949 
L 534.527239 327.98603 
L 534.856179 318.046299 
L 535.185119 318.046299 
L 535.51406 320.636082 
L 535.843 344.877282 
L 536.17194 333.312384 
L 536.50088 326.497168 
L 536.82982 347.949371 
L 537.15876 180.903178 
L 537.487701 202.344897 
L 537.816641 196.913693 
L 538.145581 216.059209 
L 538.474521 216.625396 
L 538.803461 228.976665 
L 539.132401 231.566447 
L 539.461342 212.420932 
L 540.119222 252.630708 
L 540.448162 232.384273 
L 541.434983 308.683241 
L 541.763923 286.685819 
L 542.092863 276.263781 
L 542.421803 281.086857 
L 542.750743 281.086857 
L 543.079683 264.908582 
L 543.408624 260.085506 
L 543.737564 257.422329 
L 544.066504 257.065841 
L 544.724384 301.763175 
L 545.382265 324.054175 
L 545.711205 200.992338 
L 546.040145 178.994917 
L 546.369085 178.994917 
L 546.698025 200.436636 
L 547.026965 203.099813 
L 547.355906 213.81543 
L 547.684846 233.579557 
L 548.013786 227.84429 
L 548.342726 227.84429 
L 548.671666 245.459003 
L 549.000606 228.001565 
L 549.329547 225.338388 
L 549.658487 205.574261 
L 549.987427 217.92553 
L 550.316367 234.764356 
L 550.645307 243.194255 
L 550.974247 260.651693 
L 551.303188 284.966288 
L 551.632128 279.535085 
L 551.961068 284.966288 
L 552.290008 284.966288 
L 552.618948 306.963709 
L 552.947888 301.532506 
L 553.276828 304.195683 
L 553.605769 328.929675 
L 553.934709 311.314963 
L 554.263649 328.929675 
L 554.592589 331.582367 
L 555.250469 291.016103 
L 555.57941 288.363411 
L 556.23729 258.638583 
L 556.56623 258.638583 
L 556.89517 268.630739 
L 557.22411 244.316144 
L 557.553051 258.103851 
L 557.881991 256.877112 
L 558.210931 271.943982 
L 558.539871 292.106538 
L 558.868811 266.785388 
L 559.197751 273.621574 
L 559.526692 252.179855 
L 561.171392 349.815692 
L 561.500333 337.464423 
L 562.158213 325.197034 
L 562.487153 338.722617 
L 563.145033 317.207503 
L 563.473974 300.368677 
L 564.131854 318.790731 
L 564.460794 254.507514 
L 564.789734 247.671327 
L 565.118674 254.507514 
L 565.447615 257.17069 
L 565.776555 238.025175 
L 566.434435 238.025175 
L 566.763375 247.964906 
L 567.092315 268.211341 
L 567.421256 251.372514 
L 567.750196 276.106507 
L 568.079136 267.676608 
L 568.408076 247.430174 
L 568.737016 239.451128 
L 569.065956 219.288573 
L 569.394897 240.730292 
L 569.723837 219.288573 
L 570.052777 221.878355 
L 570.381717 235.403938 
L 570.710657 243.833836 
L 571.039597 241.244054 
L 571.368538 260.389569 
L 571.697478 249.590073 
L 572.026418 232.132634 
L 572.355358 249.747347 
L 572.684298 226.523187 
L 573.013238 216.583456 
L 573.342179 223.346248 
L 573.671119 222.822 
L 574.000059 217.443222 
L 574.328999 217.443222 
L 575.64476 284.767074 
L 575.9737 282.114382 
L 576.30264 264.656943 
L 576.63158 264.656943 
L 576.96052 253.857447 
L 577.289461 259.592713 
L 577.618401 259.592713 
L 577.947341 246.06713 
L 578.276281 262.528499 
L 578.605221 265.181191 
L 578.934161 247.860056 
L 579.263102 250.523233 
L 579.592042 270.287361 
L 579.920982 254.109086 
L 580.249922 269.962327 
L 580.578862 256.793232 
L 580.907802 272.971507 
L 581.236743 249.747347 
L 581.565683 255.482614 
L 581.894623 267.833883 
L 582.223563 272.656959 
L 582.552503 251.928216 
L 582.881443 241.212599 
L 583.210384 241.212599 
L 583.539324 230.654257 
L 583.868264 231.671297 
L 584.197204 215.493022 
L 584.526144 215.493022 
L 584.855084 191.178427 
L 585.184025 221.385562 
L 585.841905 221.385562 
L 586.170845 226.732886 
L 586.499785 206.968759 
L 586.828725 206.968759 
L 587.157666 190.958243 
L 588.473426 190.958243 
L 588.802366 215.692236 
L 589.131307 202.523141 
L 589.789187 202.523141 
L 590.118127 194.093242 
L 590.447067 194.093242 
L 590.776007 215.534961 
L 591.104948 195.288526 
L 591.433888 208.457621 
L 591.762828 208.457621 
L 592.420708 247.335809 
L 592.749648 224.635896 
L 593.078589 213.8364 
L 593.407529 196.997573 
L 593.736469 216.7617 
L 594.065409 200.583425 
L 594.394349 210.575581 
L 594.723289 205.144378 
L 595.05223 201.558525 
L 595.38117 222.287268 
L 595.71011 214.308222 
L 596.03905 211.71844 
L 596.69693 211.71844 
L 597.025871 191.954313 
L 597.354811 191.954313 
L 597.683751 177.527024 
L 598.012691 185.956923 
L 598.670571 185.956923 
L 598.999512 205.72105 
L 599.328452 216.520546 
L 599.657392 200.667305 
L 599.986332 193.139112 
L 600.315272 173.374985 
L 600.644212 173.374985 
L 601.302093 217.348857 
L 601.959973 175.576824 
L 602.288913 168.740638 
L 602.617853 168.740638 
L 603.275734 182.570284 
L 604.262554 182.570284 
L 604.591494 178.061757 
L 604.920435 178.061757 
L 605.249375 171.22557 
L 606.565135 171.22557 
L 606.894076 170.124651 
L 607.223016 178.103696 
L 607.551956 195.561135 
L 607.880896 184.761639 
L 608.209836 187.351421 
L 608.538776 194.187607 
L 608.867717 188.45234 
L 609.196657 188.45234 
L 609.854537 169.306825 
L 610.512417 169.306825 
L 610.841358 186.921538 
L 611.170298 197.721034 
L 611.499238 197.721034 
L 611.828178 186.921538 
L 612.157118 180.085352 
L 612.814999 180.085352 
L 613.143939 190.800969 
L 613.472879 167.073531 
L 613.801819 164.483749 
L 614.78864 164.483749 
L 615.11758 174.29766 
L 615.44652 174.29766 
L 615.77546 192.331771 
L 616.1044 175.870403 
L 617.420161 175.870403 
L 617.749101 152.646242 
L 618.735922 152.646242 
L 619.064862 163.445739 
L 620.051682 163.445739 
L 620.380622 152.646242 
L 620.709563 152.646242 
L 621.038503 172.903162 
L 621.367443 172.903162 
L 621.696383 171.35139 
L 622.025323 171.35139 
L 622.354263 183.702659 
L 623.012144 183.702659 
L 623.341084 167.24129 
L 623.998964 167.24129 
L 624.327904 155.739302 
L 624.656844 159.912311 
L 625.314725 199.073593 
L 625.643665 188.274096 
L 626.301545 188.274096 
L 626.630485 202.061803 
L 626.959426 189.710534 
L 627.946246 189.710534 
L 628.275186 173.532259 
L 628.604126 173.532259 
L 628.933067 170.942477 
L 635.18293 170.942477 
L 635.51187 183.293746 
L 636.16975 183.293746 
L 636.49869 185.883528 
L 636.827631 173.532259 
L 640.774913 173.532259 
L 641.103853 184.331756 
L 641.432793 174.3396 
L 642.090673 174.3396 
L 642.419613 170.051256 
L 643.077494 170.051256 
L 643.406434 172.714433 
L 644.722195 172.714433 
L 645.051135 168.730153 
L 645.380075 185.56898 
L 650.972058 185.56898 
L 651.300998 199.094563 
L 651.629938 175.367125 
L 651.958878 175.367125 
L 652.287818 158.528298 
L 652.616759 158.528298 
L 652.945699 160.488984 
L 653.274639 157.825807 
L 653.603579 177.988362 
L 653.932519 177.988362 
L 654.261459 171.152176 
L 654.5904 168.447059 
L 655.57722 168.447059 
L 655.90616 157.731442 
L 656.2351 157.731442 
L 656.564041 154.910991 
L 660.182382 154.910991 
L 660.511323 141.500743 
L 660.840263 144.163919 
L 661.169203 144.163919 
L 661.498143 141.500743 
L 661.827083 144.163919 
L 662.156023 144.163919 
L 662.484964 143.199304 
L 665.774365 143.199304 
L 666.103305 134.150794 
L 666.432246 131.561012 
L 668.076946 131.561012 
L 668.405887 115.382737 
L 679.589852 115.382737 
L 679.918792 106.501986 
L 685.839715 106.501986 
L 686.168656 109.091768 
L 690.115938 109.091768 
L 690.444878 91.477055 
L 707.549766 91.477055 
L 707.878706 88.887273 
L 871.690909 88.887273 
L 871.690909 88.887273 
" style="fill:none;stroke:#8dd3c7;stroke-linecap:square;stroke-width:1.5;"/>
   </g>
   <g id="line2d_15">
    <path clip-path="url(#pe734a25eb5)" d="M 161.509091 223.283338 
L 187.495364 223.283338 
L 187.824304 211.414377 
L 190.126885 211.414377 
L 190.455826 198.308192 
L 193.745227 198.308192 
L 194.074167 191.734129 
L 231.244406 191.734129 
L 231.573346 185.852073 
L 231.902286 185.852073 
L 232.231227 173.825838 
L 599.986332 173.825838 
L 600.315272 173.374985 
L 601.959973 173.374985 
L 602.288913 168.740638 
L 613.143939 168.740638 
L 613.472879 167.073531 
L 613.801819 164.483749 
L 617.420161 164.483749 
L 617.749101 152.646242 
L 660.182382 152.646242 
L 660.511323 141.500743 
L 665.774365 141.500743 
L 666.103305 134.150794 
L 666.432246 131.561012 
L 668.076946 131.561012 
L 668.405887 115.382737 
L 679.589852 115.382737 
L 679.918792 106.501986 
L 690.115938 106.501986 
L 690.444878 91.477055 
L 707.549766 91.477055 
L 707.878706 88.887273 
L 871.690909 88.887273 
L 871.690909 88.887273 
" style="fill:none;stroke:#feffb3;stroke-linecap:square;stroke-width:1.5;"/>
   </g>
   <g id="line2d_16">
    <path clip-path="url(#pe734a25eb5)" d="M 161.509091 223.283338 
L 163.811672 223.283338 
L 164.140612 243.443063 
L 166.443193 243.443063 
L 166.772134 262.045342 
L 169.074715 262.045342 
L 169.403655 279.210496 
L 171.706236 279.210496 
L 172.035176 295.049551 
L 174.337757 295.049551 
L 174.666698 309.664955 
L 176.969279 309.664955 
L 177.298219 323.151242 
L 179.6008 323.151242 
L 179.92974 335.595641 
L 182.232321 335.595641 
L 182.561262 347.078645 
L 184.863843 347.078645 
L 185.192783 357.674525 
L 187.495364 357.674525 
L 187.824304 367.451818 
L 190.126885 367.451818 
L 190.455826 376.473763 
L 192.758407 376.473763 
L 193.087347 384.798715 
L 195.389928 384.798715 
L 195.718868 392.48052 
L 198.021449 392.48052 
L 198.350389 399.568864 
L 200.652971 399.568864 
L 200.981911 406.109597 
L 203.284492 406.109597 
L 203.613432 412.145023 
L 205.916013 412.145023 
L 206.244953 417.714181 
L 208.547535 417.714181 
L 208.876475 422.853092 
L 211.179056 422.853092 
L 211.507996 427.594994 
L 213.810577 427.594994 
L 214.139517 431.97056 
L 216.442099 431.97056 
L 216.771039 436.008089 
L 219.07362 436.008089 
L 219.40256 439.733698 
L 221.705141 439.733698 
L 222.034081 443.171484 
L 224.336663 443.171484 
L 224.665603 446.343683 
L 226.968184 446.343683 
L 227.297124 449.270813 
L 229.599705 449.270813 
L 229.928645 451.971806 
L 232.231227 451.971806 
L 232.560167 454.464134 
L 234.862748 454.464134 
L 235.191688 456.763916 
L 237.494269 456.763916 
L 237.823209 458.886027 
L 240.125791 458.886027 
L 240.454731 460.844194 
L 242.757312 460.844194 
L 243.086252 462.651082 
L 245.388833 462.651082 
L 245.717773 464.318379 
L 248.020355 464.318379 
L 248.349295 465.856868 
L 250.651876 465.856868 
L 250.980816 467.276501 
L 253.283397 467.276501 
L 253.612337 468.586459 
L 255.914919 468.586459 
L 256.243859 469.795216 
L 258.54644 469.795216 
L 258.87538 470.910591 
L 261.177961 470.910591 
L 261.506901 471.939796 
L 263.809483 471.939796 
L 264.138423 472.889491 
L 266.441004 472.889491 
L 266.769944 473.765816 
L 269.072525 473.765816 
L 269.401465 474.57444 
L 271.704046 474.57444 
L 272.032987 475.320594 
L 274.335568 475.320594 
L 274.664508 476.009104 
L 276.967089 476.009104 
L 277.296029 476.644422 
L 279.59861 476.644422 
L 279.927551 477.230659 
L 282.230132 477.230659 
L 282.559072 477.771606 
L 284.861653 477.771606 
L 285.190593 478.270762 
L 287.493174 478.270762 
L 287.822115 478.731355 
L 290.124696 478.731355 
L 290.453636 479.156366 
L 292.756217 479.156366 
L 293.085157 479.548541 
L 295.387738 479.548541 
L 295.716679 479.91042 
L 298.01926 479.91042 
L 298.3482 480.244341 
L 300.650781 480.244341 
L 300.979721 480.552465 
L 303.282302 480.552465 
L 303.611243 480.836785 
L 305.913824 480.836785 
L 306.242764 481.099139 
L 308.545345 481.099139 
L 308.874285 481.341226 
L 311.176866 481.341226 
L 311.505807 481.564609 
L 313.808388 481.564609 
L 314.137328 481.770736 
L 316.439909 481.770736 
L 316.768849 481.960938 
L 319.07143 481.960938 
L 319.400371 482.136445 
L 321.702952 482.136445 
L 322.031892 482.298394 
L 324.334473 482.298394 
L 324.663413 482.447832 
L 326.965994 482.447832 
L 327.294935 482.585724 
L 329.597516 482.585724 
L 329.926456 482.712964 
L 332.229037 482.712964 
L 332.886917 482.830374 
L 337.49208 482.938713 
L 338.14996 483.038683 
L 342.755122 483.130929 
L 343.413003 483.216049 
L 348.018165 483.294593 
L 348.676045 483.367068 
L 353.281208 483.433945 
L 353.939088 483.495655 
L 361.175772 483.605142 
L 362.162592 483.653626 
L 369.070336 483.739647 
L 370.057156 483.77774 
L 379.596421 483.875254 
L 381.241122 483.902871 
L 395.385549 484.012062 
L 397.68813 484.02911 
L 421.700762 484.133975 
L 427.292745 484.15514 
L 871.690909 484.232727 
L 871.690909 484.232727 
" style="fill:none;stroke:#bfbbd9;stroke-linecap:square;stroke-width:1.5;"/>
   </g>
   <g id="patch_3">
    <path d="M 126 504 
L 126 69.12 
" style="fill:none;stroke:#ffffff;stroke-linecap:square;stroke-linejoin:miter;stroke-width:0.8;"/>
   </g>
   <g id="patch_4">
    <path d="M 907.2 504 
L 907.2 69.12 
" style="fill:none;stroke:#ffffff;stroke-linecap:square;stroke-linejoin:miter;stroke-width:0.8;"/>
   </g>
   <g id="patch_5">
    <path d="M 126 504 
L 907.2 504 
" style="fill:none;stroke:#ffffff;stroke-linecap:square;stroke-linejoin:miter;stroke-width:0.8;"/>
   </g>
   <g id="patch_6">
    <path d="M 126 69.12 
L 907.2 69.12 
" style="fill:none;stroke:#ffffff;stroke-linecap:square;stroke-linejoin:miter;stroke-width:0.8;"/>
   </g>
   <g id="text_15">
    <!-- instance 3 with error 0.0 -->
    <g style="fill:#ffffff;" transform="translate(442.944375 63.12)scale(0.12 -0.12)">
     <defs>
      <path d="M 2834 3397 
L 2834 2853 
Q 2591 2978 2328 3040 
Q 2066 3103 1784 3103 
Q 1356 3103 1142 2972 
Q 928 2841 928 2578 
Q 928 2378 1081 2264 
Q 1234 2150 1697 2047 
L 1894 2003 
Q 2506 1872 2764 1633 
Q 3022 1394 3022 966 
Q 3022 478 2636 193 
Q 2250 -91 1575 -91 
Q 1294 -91 989 -36 
Q 684 19 347 128 
L 347 722 
Q 666 556 975 473 
Q 1284 391 1588 391 
Q 1994 391 2212 530 
Q 2431 669 2431 922 
Q 2431 1156 2273 1281 
Q 2116 1406 1581 1522 
L 1381 1569 
Q 847 1681 609 1914 
Q 372 2147 372 2553 
Q 372 3047 722 3315 
Q 1072 3584 1716 3584 
Q 2034 3584 2315 3537 
Q 2597 3491 2834 3397 
z
" id="DejaVuSans-73" transform="scale(0.015625)"/>
      <path d="M 3122 3366 
L 3122 2828 
Q 2878 2963 2633 3030 
Q 2388 3097 2138 3097 
Q 1578 3097 1268 2742 
Q 959 2388 959 1747 
Q 959 1106 1268 751 
Q 1578 397 2138 397 
Q 2388 397 2633 464 
Q 2878 531 3122 666 
L 3122 134 
Q 2881 22 2623 -34 
Q 2366 -91 2075 -91 
Q 1284 -91 818 406 
Q 353 903 353 1747 
Q 353 2603 823 3093 
Q 1294 3584 2113 3584 
Q 2378 3584 2631 3529 
Q 2884 3475 3122 3366 
z
" id="DejaVuSans-63" transform="scale(0.015625)"/>
      <path id="DejaVuSans-20" transform="scale(0.015625)"/>
      <path d="M 269 3500 
L 844 3500 
L 1563 769 
L 2278 3500 
L 2956 3500 
L 3675 769 
L 4391 3500 
L 4966 3500 
L 4050 0 
L 3372 0 
L 2619 2869 
L 1863 0 
L 1184 0 
L 269 3500 
z
" id="DejaVuSans-77" transform="scale(0.015625)"/>
      <path d="M 3513 2113 
L 3513 0 
L 2938 0 
L 2938 2094 
Q 2938 2591 2744 2837 
Q 2550 3084 2163 3084 
Q 1697 3084 1428 2787 
Q 1159 2491 1159 1978 
L 1159 0 
L 581 0 
L 581 4863 
L 1159 4863 
L 1159 2956 
Q 1366 3272 1645 3428 
Q 1925 3584 2291 3584 
Q 2894 3584 3203 3211 
Q 3513 2838 3513 2113 
z
" id="DejaVuSans-68" transform="scale(0.015625)"/>
      <path d="M 684 794 
L 1344 794 
L 1344 0 
L 684 0 
L 684 794 
z
" id="DejaVuSans-2e" transform="scale(0.015625)"/>
     </defs>
     <use xlink:href="#DejaVuSans-69"/>
     <use x="27.783203" xlink:href="#DejaVuSans-6e"/>
     <use x="91.162109" xlink:href="#DejaVuSans-73"/>
     <use x="143.261719" xlink:href="#DejaVuSans-74"/>
     <use x="182.470703" xlink:href="#DejaVuSans-61"/>
     <use x="243.75" xlink:href="#DejaVuSans-6e"/>
     <use x="307.128906" xlink:href="#DejaVuSans-63"/>
     <use x="362.109375" xlink:href="#DejaVuSans-65"/>
     <use x="423.632812" xlink:href="#DejaVuSans-20"/>
     <use x="455.419922" xlink:href="#DejaVuSans-33"/>
     <use x="519.042969" xlink:href="#DejaVuSans-20"/>
     <use x="550.830078" xlink:href="#DejaVuSans-77"/>
     <use x="632.617188" xlink:href="#DejaVuSans-69"/>
     <use x="660.400391" xlink:href="#DejaVuSans-74"/>
     <use x="699.609375" xlink:href="#DejaVuSans-68"/>
     <use x="762.988281" xlink:href="#DejaVuSans-20"/>
     <use x="794.775391" xlink:href="#DejaVuSans-65"/>
     <use x="856.298828" xlink:href="#DejaVuSans-72"/>
     <use x="895.662109" xlink:href="#DejaVuSans-72"/>
     <use x="934.525391" xlink:href="#DejaVuSans-6f"/>
     <use x="995.707031" xlink:href="#DejaVuSans-72"/>
     <use x="1036.820312" xlink:href="#DejaVuSans-20"/>
     <use x="1068.607422" xlink:href="#DejaVuSans-30"/>
     <use x="1132.230469" xlink:href="#DejaVuSans-2e"/>
     <use x="1164.017578" xlink:href="#DejaVuSans-30"/>
    </g>
   </g>
   <g id="legend_1">
    <g id="patch_7">
     <path d="M 805.348438 499 
L 900.2 499 
Q 902.2 499 902.2 497 
L 902.2 453.965625 
Q 902.2 451.965625 900.2 451.965625 
L 805.348438 451.965625 
Q 803.348438 451.965625 803.348438 453.965625 
L 803.348438 497 
Q 803.348438 499 805.348438 499 
z
" style="opacity:0.8;stroke:#cccccc;stroke-linejoin:miter;"/>
    </g>
    <g id="line2d_17">
     <path d="M 807.348438 460.064062 
L 827.348438 460.064062 
" style="fill:none;stroke:#8dd3c7;stroke-linecap:square;stroke-width:1.5;"/>
    </g>
    <g id="line2d_18"/>
    <g id="text_16">
     <!-- cost -->
     <g style="fill:#ffffff;" transform="translate(835.348438 463.564062)scale(0.1 -0.1)">
      <use xlink:href="#DejaVuSans-63"/>
      <use x="54.980469" xlink:href="#DejaVuSans-6f"/>
      <use x="116.162109" xlink:href="#DejaVuSans-73"/>
      <use x="168.261719" xlink:href="#DejaVuSans-74"/>
     </g>
    </g>
    <g id="line2d_19">
     <path d="M 807.348438 474.742188 
L 827.348438 474.742188 
" style="fill:none;stroke:#feffb3;stroke-linecap:square;stroke-width:1.5;"/>
    </g>
    <g id="line2d_20"/>
    <g id="text_17">
     <!-- best cost -->
     <g style="fill:#ffffff;" transform="translate(835.348438 478.242188)scale(0.1 -0.1)">
      <defs>
       <path d="M 3116 1747 
Q 3116 2381 2855 2742 
Q 2594 3103 2138 3103 
Q 1681 3103 1420 2742 
Q 1159 2381 1159 1747 
Q 1159 1113 1420 752 
Q 1681 391 2138 391 
Q 2594 391 2855 752 
Q 3116 1113 3116 1747 
z
M 1159 2969 
Q 1341 3281 1617 3432 
Q 1894 3584 2278 3584 
Q 2916 3584 3314 3078 
Q 3713 2572 3713 1747 
Q 3713 922 3314 415 
Q 2916 -91 2278 -91 
Q 1894 -91 1617 61 
Q 1341 213 1159 525 
L 1159 0 
L 581 0 
L 581 4863 
L 1159 4863 
L 1159 2969 
z
" id="DejaVuSans-62" transform="scale(0.015625)"/>
      </defs>
      <use xlink:href="#DejaVuSans-62"/>
      <use x="63.476562" xlink:href="#DejaVuSans-65"/>
      <use x="125" xlink:href="#DejaVuSans-73"/>
      <use x="177.099609" xlink:href="#DejaVuSans-74"/>
      <use x="216.308594" xlink:href="#DejaVuSans-20"/>
      <use x="248.095703" xlink:href="#DejaVuSans-63"/>
      <use x="303.076172" xlink:href="#DejaVuSans-6f"/>
      <use x="364.257812" xlink:href="#DejaVuSans-73"/>
      <use x="416.357422" xlink:href="#DejaVuSans-74"/>
     </g>
    </g>
    <g id="line2d_21">
     <path d="M 807.348438 489.420313 
L 827.348438 489.420313 
" style="fill:none;stroke:#bfbbd9;stroke-linecap:square;stroke-width:1.5;"/>
    </g>
    <g id="line2d_22"/>
    <g id="text_18">
     <!-- temperature -->
     <g style="fill:#ffffff;" transform="translate(835.348438 492.920313)scale(0.1 -0.1)">
      <defs>
       <path d="M 3328 2828 
Q 3544 3216 3844 3400 
Q 4144 3584 4550 3584 
Q 5097 3584 5394 3201 
Q 5691 2819 5691 2113 
L 5691 0 
L 5113 0 
L 5113 2094 
Q 5113 2597 4934 2840 
Q 4756 3084 4391 3084 
Q 3944 3084 3684 2787 
Q 3425 2491 3425 1978 
L 3425 0 
L 2847 0 
L 2847 2094 
Q 2847 2600 2669 2842 
Q 2491 3084 2119 3084 
Q 1678 3084 1418 2786 
Q 1159 2488 1159 1978 
L 1159 0 
L 581 0 
L 581 3500 
L 1159 3500 
L 1159 2956 
Q 1356 3278 1631 3431 
Q 1906 3584 2284 3584 
Q 2666 3584 2933 3390 
Q 3200 3197 3328 2828 
z
" id="DejaVuSans-6d" transform="scale(0.015625)"/>
       <path d="M 1159 525 
L 1159 -1331 
L 581 -1331 
L 581 3500 
L 1159 3500 
L 1159 2969 
Q 1341 3281 1617 3432 
Q 1894 3584 2278 3584 
Q 2916 3584 3314 3078 
Q 3713 2572 3713 1747 
Q 3713 922 3314 415 
Q 2916 -91 2278 -91 
Q 1894 -91 1617 61 
Q 1341 213 1159 525 
z
M 3116 1747 
Q 3116 2381 2855 2742 
Q 2594 3103 2138 3103 
Q 1681 3103 1420 2742 
Q 1159 2381 1159 1747 
Q 1159 1113 1420 752 
Q 1681 391 2138 391 
Q 2594 391 2855 752 
Q 3116 1113 3116 1747 
z
" id="DejaVuSans-70" transform="scale(0.015625)"/>
       <path d="M 544 1381 
L 544 3500 
L 1119 3500 
L 1119 1403 
Q 1119 906 1312 657 
Q 1506 409 1894 409 
Q 2359 409 2629 706 
Q 2900 1003 2900 1516 
L 2900 3500 
L 3475 3500 
L 3475 0 
L 2900 0 
L 2900 538 
Q 2691 219 2414 64 
Q 2138 -91 1772 -91 
Q 1169 -91 856 284 
Q 544 659 544 1381 
z
M 1991 3584 
L 1991 3584 
z
" id="DejaVuSans-75" transform="scale(0.015625)"/>
      </defs>
      <use xlink:href="#DejaVuSans-74"/>
      <use x="39.208984" xlink:href="#DejaVuSans-65"/>
      <use x="100.732422" xlink:href="#DejaVuSans-6d"/>
      <use x="198.144531" xlink:href="#DejaVuSans-70"/>
      <use x="261.621094" xlink:href="#DejaVuSans-65"/>
      <use x="323.144531" xlink:href="#DejaVuSans-72"/>
      <use x="364.257812" xlink:href="#DejaVuSans-61"/>
      <use x="425.537109" xlink:href="#DejaVuSans-74"/>
      <use x="464.746094" xlink:href="#DejaVuSans-75"/>
      <use x="528.125" xlink:href="#DejaVuSans-72"/>
      <use x="566.988281" xlink:href="#DejaVuSans-65"/>
     </g>
    </g>
   </g>
  </g>
 </g>
 <defs>
  <clipPath id="pe734a25eb5">
   <rect height="434.88" width="781.2" x="126" y="69.12"/>
  </clipPath>
 </defs>
</svg>
