<?xml version="1.0" encoding="utf-8" standalone="no"?>
<!DOCTYPE svg PUBLIC "-//W3C//DTD SVG 1.1//EN"
  "http://www.w3.org/Graphics/SVG/1.1/DTD/svg11.dtd">
<svg height="576pt" version="1.1" viewBox="0 0 1008 576" width="1008pt" xmlns="http://www.w3.org/2000/svg" xmlns:xlink="http://www.w3.org/1999/xlink">
 <metadata>
  <rdf:RDF xmlns:cc="http://creativecommons.org/ns#" xmlns:dc="http://purl.org/dc/elements/1.1/" xmlns:rdf="http://www.w3.org/1999/02/22-rdf-syntax-ns#">
   <cc:Work>
    <dc:type rdf:resource="http://purl.org/dc/dcmitype/StillImage"/>
    <dc:date>2022-01-13T19:10:46.354873</dc:date>
    <dc:format>image/svg+xml</dc:format>
    <dc:creator>
     <cc:Agent>
      <dc:title>Matplotlib v3.4.3, https://matplotlib.org/</dc:title>
     </cc:Agent>
    </dc:creator>
   </cc:Work>
  </rdf:RDF>
 </metadata>
 <defs>
  <style type="text/css">*{stroke-linecap:butt;stroke-linejoin:round;}</style>
 </defs>
 <g id="figure_1">
  <g id="patch_1">
   <path d="M 0 576 
L 1008 576 
L 1008 0 
L 0 0 
z
"/>
  </g>
  <g id="axes_1">
   <g id="patch_2">
    <path d="M 126 504 
L 907.2 504 
L 907.2 69.12 
L 126 69.12 
z
"/>
   </g>
   <g id="matplotlib.axis_1">
    <g id="xtick_1">
     <g id="line2d_1">
      <defs>
       <path d="M 0 0 
L 0 3.5 
" id="m0041a1553a" style="stroke:#ffffff;stroke-width:0.8;"/>
      </defs>
      <g>
       <use style="fill:#ffffff;stroke:#ffffff;stroke-width:0.8;" x="161.509091" xlink:href="#m0041a1553a" y="504"/>
      </g>
     </g>
     <g id="text_1">
      <!-- 0 -->
      <g style="fill:#ffffff;" transform="translate(158.327841 518.598438)scale(0.1 -0.1)">
       <defs>
        <path d="M 2034 4250 
Q 1547 4250 1301 3770 
Q 1056 3291 1056 2328 
Q 1056 1369 1301 889 
Q 1547 409 2034 409 
Q 2525 409 2770 889 
Q 3016 1369 3016 2328 
Q 3016 3291 2770 3770 
Q 2525 4250 2034 4250 
z
M 2034 4750 
Q 2819 4750 3233 4129 
Q 3647 3509 3647 2328 
Q 3647 1150 3233 529 
Q 2819 -91 2034 -91 
Q 1250 -91 836 529 
Q 422 1150 422 2328 
Q 422 3509 836 4129 
Q 1250 4750 2034 4750 
z
" id="DejaVuSans-30" transform="scale(0.015625)"/>
       </defs>
       <use xlink:href="#DejaVuSans-30"/>
      </g>
     </g>
    </g>
    <g id="xtick_2">
     <g id="line2d_2">
      <g>
       <use style="fill:#ffffff;stroke:#ffffff;stroke-width:0.8;" x="261.562883" xlink:href="#m0041a1553a" y="504"/>
      </g>
     </g>
     <g id="text_2">
      <!-- 500 -->
      <g style="fill:#ffffff;" transform="translate(252.019133 518.598438)scale(0.1 -0.1)">
       <defs>
        <path d="M 691 4666 
L 3169 4666 
L 3169 4134 
L 1269 4134 
L 1269 2991 
Q 1406 3038 1543 3061 
Q 1681 3084 1819 3084 
Q 2600 3084 3056 2656 
Q 3513 2228 3513 1497 
Q 3513 744 3044 326 
Q 2575 -91 1722 -91 
Q 1428 -91 1123 -41 
Q 819 9 494 109 
L 494 744 
Q 775 591 1075 516 
Q 1375 441 1709 441 
Q 2250 441 2565 725 
Q 2881 1009 2881 1497 
Q 2881 1984 2565 2268 
Q 2250 2553 1709 2553 
Q 1456 2553 1204 2497 
Q 953 2441 691 2322 
L 691 4666 
z
" id="DejaVuSans-35" transform="scale(0.015625)"/>
       </defs>
       <use xlink:href="#DejaVuSans-35"/>
       <use x="63.623047" xlink:href="#DejaVuSans-30"/>
       <use x="127.246094" xlink:href="#DejaVuSans-30"/>
      </g>
     </g>
    </g>
    <g id="xtick_3">
     <g id="line2d_3">
      <g>
       <use style="fill:#ffffff;stroke:#ffffff;stroke-width:0.8;" x="361.616676" xlink:href="#m0041a1553a" y="504"/>
      </g>
     </g>
     <g id="text_3">
      <!-- 1000 -->
      <g style="fill:#ffffff;" transform="translate(348.891676 518.598438)scale(0.1 -0.1)">
       <defs>
        <path d="M 794 531 
L 1825 531 
L 1825 4091 
L 703 3866 
L 703 4441 
L 1819 4666 
L 2450 4666 
L 2450 531 
L 3481 531 
L 3481 0 
L 794 0 
L 794 531 
z
" id="DejaVuSans-31" transform="scale(0.015625)"/>
       </defs>
       <use xlink:href="#DejaVuSans-31"/>
       <use x="63.623047" xlink:href="#DejaVuSans-30"/>
       <use x="127.246094" xlink:href="#DejaVuSans-30"/>
       <use x="190.869141" xlink:href="#DejaVuSans-30"/>
      </g>
     </g>
    </g>
    <g id="xtick_4">
     <g id="line2d_4">
      <g>
       <use style="fill:#ffffff;stroke:#ffffff;stroke-width:0.8;" x="461.670468" xlink:href="#m0041a1553a" y="504"/>
      </g>
     </g>
     <g id="text_4">
      <!-- 1500 -->
      <g style="fill:#ffffff;" transform="translate(448.945468 518.598438)scale(0.1 -0.1)">
       <use xlink:href="#DejaVuSans-31"/>
       <use x="63.623047" xlink:href="#DejaVuSans-35"/>
       <use x="127.246094" xlink:href="#DejaVuSans-30"/>
       <use x="190.869141" xlink:href="#DejaVuSans-30"/>
      </g>
     </g>
    </g>
    <g id="xtick_5">
     <g id="line2d_5">
      <g>
       <use style="fill:#ffffff;stroke:#ffffff;stroke-width:0.8;" x="561.72426" xlink:href="#m0041a1553a" y="504"/>
      </g>
     </g>
     <g id="text_5">
      <!-- 2000 -->
      <g style="fill:#ffffff;" transform="translate(548.99926 518.598438)scale(0.1 -0.1)">
       <defs>
        <path d="M 1228 531 
L 3431 531 
L 3431 0 
L 469 0 
L 469 531 
Q 828 903 1448 1529 
Q 2069 2156 2228 2338 
Q 2531 2678 2651 2914 
Q 2772 3150 2772 3378 
Q 2772 3750 2511 3984 
Q 2250 4219 1831 4219 
Q 1534 4219 1204 4116 
Q 875 4013 500 3803 
L 500 4441 
Q 881 4594 1212 4672 
Q 1544 4750 1819 4750 
Q 2544 4750 2975 4387 
Q 3406 4025 3406 3419 
Q 3406 3131 3298 2873 
Q 3191 2616 2906 2266 
Q 2828 2175 2409 1742 
Q 1991 1309 1228 531 
z
" id="DejaVuSans-32" transform="scale(0.015625)"/>
       </defs>
       <use xlink:href="#DejaVuSans-32"/>
       <use x="63.623047" xlink:href="#DejaVuSans-30"/>
       <use x="127.246094" xlink:href="#DejaVuSans-30"/>
       <use x="190.869141" xlink:href="#DejaVuSans-30"/>
      </g>
     </g>
    </g>
    <g id="xtick_6">
     <g id="line2d_6">
      <g>
       <use style="fill:#ffffff;stroke:#ffffff;stroke-width:0.8;" x="661.778053" xlink:href="#m0041a1553a" y="504"/>
      </g>
     </g>
     <g id="text_6">
      <!-- 2500 -->
      <g style="fill:#ffffff;" transform="translate(649.053053 518.598438)scale(0.1 -0.1)">
       <use xlink:href="#DejaVuSans-32"/>
       <use x="63.623047" xlink:href="#DejaVuSans-35"/>
       <use x="127.246094" xlink:href="#DejaVuSans-30"/>
       <use x="190.869141" xlink:href="#DejaVuSans-30"/>
      </g>
     </g>
    </g>
    <g id="xtick_7">
     <g id="line2d_7">
      <g>
       <use style="fill:#ffffff;stroke:#ffffff;stroke-width:0.8;" x="761.831845" xlink:href="#m0041a1553a" y="504"/>
      </g>
     </g>
     <g id="text_7">
      <!-- 3000 -->
      <g style="fill:#ffffff;" transform="translate(749.106845 518.598438)scale(0.1 -0.1)">
       <defs>
        <path d="M 2597 2516 
Q 3050 2419 3304 2112 
Q 3559 1806 3559 1356 
Q 3559 666 3084 287 
Q 2609 -91 1734 -91 
Q 1441 -91 1130 -33 
Q 819 25 488 141 
L 488 750 
Q 750 597 1062 519 
Q 1375 441 1716 441 
Q 2309 441 2620 675 
Q 2931 909 2931 1356 
Q 2931 1769 2642 2001 
Q 2353 2234 1838 2234 
L 1294 2234 
L 1294 2753 
L 1863 2753 
Q 2328 2753 2575 2939 
Q 2822 3125 2822 3475 
Q 2822 3834 2567 4026 
Q 2313 4219 1838 4219 
Q 1578 4219 1281 4162 
Q 984 4106 628 3988 
L 628 4550 
Q 988 4650 1302 4700 
Q 1616 4750 1894 4750 
Q 2613 4750 3031 4423 
Q 3450 4097 3450 3541 
Q 3450 3153 3228 2886 
Q 3006 2619 2597 2516 
z
" id="DejaVuSans-33" transform="scale(0.015625)"/>
       </defs>
       <use xlink:href="#DejaVuSans-33"/>
       <use x="63.623047" xlink:href="#DejaVuSans-30"/>
       <use x="127.246094" xlink:href="#DejaVuSans-30"/>
       <use x="190.869141" xlink:href="#DejaVuSans-30"/>
      </g>
     </g>
    </g>
    <g id="xtick_8">
     <g id="line2d_8">
      <g>
       <use style="fill:#ffffff;stroke:#ffffff;stroke-width:0.8;" x="861.885637" xlink:href="#m0041a1553a" y="504"/>
      </g>
     </g>
     <g id="text_8">
      <!-- 3500 -->
      <g style="fill:#ffffff;" transform="translate(849.160637 518.598438)scale(0.1 -0.1)">
       <use xlink:href="#DejaVuSans-33"/>
       <use x="63.623047" xlink:href="#DejaVuSans-35"/>
       <use x="127.246094" xlink:href="#DejaVuSans-30"/>
       <use x="190.869141" xlink:href="#DejaVuSans-30"/>
      </g>
     </g>
    </g>
    <g id="text_9">
     <!-- iteration -->
     <g style="fill:#ffffff;" transform="translate(495.477344 532.276562)scale(0.1 -0.1)">
      <defs>
       <path d="M 603 3500 
L 1178 3500 
L 1178 0 
L 603 0 
L 603 3500 
z
M 603 4863 
L 1178 4863 
L 1178 4134 
L 603 4134 
L 603 4863 
z
" id="DejaVuSans-69" transform="scale(0.015625)"/>
       <path d="M 1172 4494 
L 1172 3500 
L 2356 3500 
L 2356 3053 
L 1172 3053 
L 1172 1153 
Q 1172 725 1289 603 
Q 1406 481 1766 481 
L 2356 481 
L 2356 0 
L 1766 0 
Q 1100 0 847 248 
Q 594 497 594 1153 
L 594 3053 
L 172 3053 
L 172 3500 
L 594 3500 
L 594 4494 
L 1172 4494 
z
" id="DejaVuSans-74" transform="scale(0.015625)"/>
       <path d="M 3597 1894 
L 3597 1613 
L 953 1613 
Q 991 1019 1311 708 
Q 1631 397 2203 397 
Q 2534 397 2845 478 
Q 3156 559 3463 722 
L 3463 178 
Q 3153 47 2828 -22 
Q 2503 -91 2169 -91 
Q 1331 -91 842 396 
Q 353 884 353 1716 
Q 353 2575 817 3079 
Q 1281 3584 2069 3584 
Q 2775 3584 3186 3129 
Q 3597 2675 3597 1894 
z
M 3022 2063 
Q 3016 2534 2758 2815 
Q 2500 3097 2075 3097 
Q 1594 3097 1305 2825 
Q 1016 2553 972 2059 
L 3022 2063 
z
" id="DejaVuSans-65" transform="scale(0.015625)"/>
       <path d="M 2631 2963 
Q 2534 3019 2420 3045 
Q 2306 3072 2169 3072 
Q 1681 3072 1420 2755 
Q 1159 2438 1159 1844 
L 1159 0 
L 581 0 
L 581 3500 
L 1159 3500 
L 1159 2956 
Q 1341 3275 1631 3429 
Q 1922 3584 2338 3584 
Q 2397 3584 2469 3576 
Q 2541 3569 2628 3553 
L 2631 2963 
z
" id="DejaVuSans-72" transform="scale(0.015625)"/>
       <path d="M 2194 1759 
Q 1497 1759 1228 1600 
Q 959 1441 959 1056 
Q 959 750 1161 570 
Q 1363 391 1709 391 
Q 2188 391 2477 730 
Q 2766 1069 2766 1631 
L 2766 1759 
L 2194 1759 
z
M 3341 1997 
L 3341 0 
L 2766 0 
L 2766 531 
Q 2569 213 2275 61 
Q 1981 -91 1556 -91 
Q 1019 -91 701 211 
Q 384 513 384 1019 
Q 384 1609 779 1909 
Q 1175 2209 1959 2209 
L 2766 2209 
L 2766 2266 
Q 2766 2663 2505 2880 
Q 2244 3097 1772 3097 
Q 1472 3097 1187 3025 
Q 903 2953 641 2809 
L 641 3341 
Q 956 3463 1253 3523 
Q 1550 3584 1831 3584 
Q 2591 3584 2966 3190 
Q 3341 2797 3341 1997 
z
" id="DejaVuSans-61" transform="scale(0.015625)"/>
       <path d="M 1959 3097 
Q 1497 3097 1228 2736 
Q 959 2375 959 1747 
Q 959 1119 1226 758 
Q 1494 397 1959 397 
Q 2419 397 2687 759 
Q 2956 1122 2956 1747 
Q 2956 2369 2687 2733 
Q 2419 3097 1959 3097 
z
M 1959 3584 
Q 2709 3584 3137 3096 
Q 3566 2609 3566 1747 
Q 3566 888 3137 398 
Q 2709 -91 1959 -91 
Q 1206 -91 779 398 
Q 353 888 353 1747 
Q 353 2609 779 3096 
Q 1206 3584 1959 3584 
z
" id="DejaVuSans-6f" transform="scale(0.015625)"/>
       <path d="M 3513 2113 
L 3513 0 
L 2938 0 
L 2938 2094 
Q 2938 2591 2744 2837 
Q 2550 3084 2163 3084 
Q 1697 3084 1428 2787 
Q 1159 2491 1159 1978 
L 1159 0 
L 581 0 
L 581 3500 
L 1159 3500 
L 1159 2956 
Q 1366 3272 1645 3428 
Q 1925 3584 2291 3584 
Q 2894 3584 3203 3211 
Q 3513 2838 3513 2113 
z
" id="DejaVuSans-6e" transform="scale(0.015625)"/>
      </defs>
      <use xlink:href="#DejaVuSans-69"/>
      <use x="27.783203" xlink:href="#DejaVuSans-74"/>
      <use x="66.992188" xlink:href="#DejaVuSans-65"/>
      <use x="128.515625" xlink:href="#DejaVuSans-72"/>
      <use x="169.628906" xlink:href="#DejaVuSans-61"/>
      <use x="230.908203" xlink:href="#DejaVuSans-74"/>
      <use x="270.117188" xlink:href="#DejaVuSans-69"/>
      <use x="297.900391" xlink:href="#DejaVuSans-6f"/>
      <use x="359.082031" xlink:href="#DejaVuSans-6e"/>
     </g>
    </g>
   </g>
   <g id="matplotlib.axis_2">
    <g id="ytick_1">
     <g id="line2d_9">
      <defs>
       <path d="M 0 0 
L -3.5 0 
" id="m87586b8cc1" style="stroke:#ffffff;stroke-width:0.8;"/>
      </defs>
      <g>
       <use style="fill:#ffffff;stroke:#ffffff;stroke-width:0.8;" x="126" xlink:href="#m87586b8cc1" y="484.232727"/>
      </g>
     </g>
     <g id="text_10">
      <!-- 0 -->
      <g style="fill:#ffffff;" transform="translate(112.6375 488.031946)scale(0.1 -0.1)">
       <use xlink:href="#DejaVuSans-30"/>
      </g>
     </g>
    </g>
    <g id="ytick_2">
     <g id="line2d_10">
      <g>
       <use style="fill:#ffffff;stroke:#ffffff;stroke-width:0.8;" x="126" xlink:href="#m87586b8cc1" y="423.158536"/>
      </g>
     </g>
     <g id="text_11">
      <!-- 5000 -->
      <g style="fill:#ffffff;" transform="translate(93.55 426.957755)scale(0.1 -0.1)">
       <use xlink:href="#DejaVuSans-35"/>
       <use x="63.623047" xlink:href="#DejaVuSans-30"/>
       <use x="127.246094" xlink:href="#DejaVuSans-30"/>
       <use x="190.869141" xlink:href="#DejaVuSans-30"/>
      </g>
     </g>
    </g>
    <g id="ytick_3">
     <g id="line2d_11">
      <g>
       <use style="fill:#ffffff;stroke:#ffffff;stroke-width:0.8;" x="126" xlink:href="#m87586b8cc1" y="362.084345"/>
      </g>
     </g>
     <g id="text_12">
      <!-- 10000 -->
      <g style="fill:#ffffff;" transform="translate(87.1875 365.883564)scale(0.1 -0.1)">
       <use xlink:href="#DejaVuSans-31"/>
       <use x="63.623047" xlink:href="#DejaVuSans-30"/>
       <use x="127.246094" xlink:href="#DejaVuSans-30"/>
       <use x="190.869141" xlink:href="#DejaVuSans-30"/>
       <use x="254.492188" xlink:href="#DejaVuSans-30"/>
      </g>
     </g>
    </g>
    <g id="ytick_4">
     <g id="line2d_12">
      <g>
       <use style="fill:#ffffff;stroke:#ffffff;stroke-width:0.8;" x="126" xlink:href="#m87586b8cc1" y="301.010154"/>
      </g>
     </g>
     <g id="text_13">
      <!-- 15000 -->
      <g style="fill:#ffffff;" transform="translate(87.1875 304.809372)scale(0.1 -0.1)">
       <use xlink:href="#DejaVuSans-31"/>
       <use x="63.623047" xlink:href="#DejaVuSans-35"/>
       <use x="127.246094" xlink:href="#DejaVuSans-30"/>
       <use x="190.869141" xlink:href="#DejaVuSans-30"/>
       <use x="254.492188" xlink:href="#DejaVuSans-30"/>
      </g>
     </g>
    </g>
    <g id="ytick_5">
     <g id="line2d_13">
      <g>
       <use style="fill:#ffffff;stroke:#ffffff;stroke-width:0.8;" x="126" xlink:href="#m87586b8cc1" y="239.935962"/>
      </g>
     </g>
     <g id="text_14">
      <!-- 20000 -->
      <g style="fill:#ffffff;" transform="translate(87.1875 243.735181)scale(0.1 -0.1)">
       <use xlink:href="#DejaVuSans-32"/>
       <use x="63.623047" xlink:href="#DejaVuSans-30"/>
       <use x="127.246094" xlink:href="#DejaVuSans-30"/>
       <use x="190.869141" xlink:href="#DejaVuSans-30"/>
       <use x="254.492188" xlink:href="#DejaVuSans-30"/>
      </g>
     </g>
    </g>
    <g id="ytick_6">
     <g id="line2d_14">
      <g>
       <use style="fill:#ffffff;stroke:#ffffff;stroke-width:0.8;" x="126" xlink:href="#m87586b8cc1" y="178.861771"/>
      </g>
     </g>
     <g id="text_15">
      <!-- 25000 -->
      <g style="fill:#ffffff;" transform="translate(87.1875 182.66099)scale(0.1 -0.1)">
       <use xlink:href="#DejaVuSans-32"/>
       <use x="63.623047" xlink:href="#DejaVuSans-35"/>
       <use x="127.246094" xlink:href="#DejaVuSans-30"/>
       <use x="190.869141" xlink:href="#DejaVuSans-30"/>
       <use x="254.492188" xlink:href="#DejaVuSans-30"/>
      </g>
     </g>
    </g>
    <g id="ytick_7">
     <g id="line2d_15">
      <g>
       <use style="fill:#ffffff;stroke:#ffffff;stroke-width:0.8;" x="126" xlink:href="#m87586b8cc1" y="117.78758"/>
      </g>
     </g>
     <g id="text_16">
      <!-- 30000 -->
      <g style="fill:#ffffff;" transform="translate(87.1875 121.586799)scale(0.1 -0.1)">
       <use xlink:href="#DejaVuSans-33"/>
       <use x="63.623047" xlink:href="#DejaVuSans-30"/>
       <use x="127.246094" xlink:href="#DejaVuSans-30"/>
       <use x="190.869141" xlink:href="#DejaVuSans-30"/>
       <use x="254.492188" xlink:href="#DejaVuSans-30"/>
      </g>
     </g>
    </g>
   </g>
   <g id="line2d_16">
    <path clip-path="url(#p86c6277c39)" d="M 161.509091 164.106247 
L 161.709198 190.820098 
L 161.909306 187.180076 
L 162.109414 196.964162 
L 162.309521 171.43515 
L 162.709736 182.062059 
L 162.909844 177.395991 
L 163.109952 194.399045 
L 163.310059 177.395991 
L 163.510167 303.795137 
L 163.910382 313.408215 
L 164.11049 336.811845 
L 164.310597 311.197329 
L 164.510705 332.744303 
L 164.710812 337.776817 
L 164.91092 316.229842 
L 165.111027 318.746099 
L 165.311135 289.418272 
L 165.511243 316.132123 
L 165.71135 311.844715 
L 165.911458 292.545271 
L 166.111565 202.36312 
L 166.311673 229.076971 
L 166.711888 210.742499 
L 166.911996 237.199839 
L 167.112103 231.947458 
L 167.312211 212.648014 
L 167.512318 217.900394 
L 167.712426 244.882972 
L 167.912534 254.667057 
L 168.112641 269.960035 
L 168.312749 256.291631 
L 168.913072 187.693099 
L 169.113179 192.725613 
L 169.513394 233.083438 
L 169.713502 244.846327 
L 169.913609 230.151877 
L 170.113717 226.511855 
L 170.313825 253.225706 
L 170.71404 208.690406 
L 170.914147 227.989851 
L 171.114255 232.655919 
L 171.314363 205.942068 
L 171.51447 232.399407 
L 171.714578 213.099963 
L 172.114793 255.63203 
L 172.3149 267.101763 
L 172.515008 294.707297 
L 172.715116 297.223554 
L 172.915223 316.522998 
L 173.115331 307.31301 
L 173.315438 280.330433 
L 173.515546 275.297919 
L 173.715654 248.84058 
L 173.915761 244.553171 
L 174.315976 297.993089 
L 174.516084 308.619998 
L 174.716192 289.320554 
L 175.116407 279.939558 
L 175.716729 241.413958 
L 175.916837 245.701366 
L 176.116945 241.145231 
L 176.51716 223.775731 
L 176.717267 227.415753 
L 176.917375 256.829084 
L 177.117483 260.713402 
L 177.31759 279.927343 
L 177.517698 267.016259 
L 177.717805 294.621793 
L 177.917913 279.927343 
L 178.11802 293.595747 
L 178.318128 322.923574 
L 178.718343 271.914409 
L 178.918451 261.898242 
L 179.118558 273.367975 
L 179.318666 269.080567 
L 179.718881 295.537906 
L 179.918989 273.258041 
L 180.319204 298.335104 
L 180.519311 302.622512 
L 180.719419 320.785977 
L 181.119634 283.323068 
L 181.319742 253.909737 
L 181.519849 250.269716 
L 181.719957 238.506826 
L 181.920065 233.498743 
L 182.520387 285.656102 
L 182.720495 281.368694 
L 183.320818 357.687003 
L 183.520925 375.850468 
L 183.721033 383.435882 
L 183.92114 410.149733 
L 184.121248 391.986269 
L 184.321356 395.626291 
L 184.521463 390.960223 
L 184.721571 409.123687 
L 184.921678 405.47145 
L 185.121786 410.79712 
L 185.321893 408.280863 
L 185.522001 378.953037 
L 185.722109 383.98555 
L 185.922216 374.775562 
L 186.122324 377.291819 
L 186.322431 406.619645 
L 186.722647 377.829271 
L 186.922754 375.313015 
L 187.122862 370.280501 
L 187.523077 379.869149 
L 187.723185 390.496059 
L 188.1234 357.723648 
L 188.523615 345.10572 
L 188.723722 367.385585 
L 189.324045 304.28373 
L 189.524153 308.949799 
L 189.924368 289.833577 
L 190.124476 290.908482 
L 190.524691 323.766397 
L 190.724798 193.788304 
L 190.924906 208.482754 
L 191.125013 182.953742 
L 191.325121 208.482754 
L 191.525229 179.154927 
L 191.725336 194.399045 
L 191.925444 198.95518 
L 192.325659 257.696337 
L 192.525767 267.480423 
L 192.725874 264.964166 
L 192.925982 278.63257 
L 193.126089 274.076435 
L 193.526304 236.528023 
L 193.92652 281.674065 
L 194.126627 272.464077 
L 194.326735 245.481499 
L 194.526842 263.55946 
L 194.72695 251.79657 
L 194.927058 229.516705 
L 195.127165 255.131221 
L 195.327273 236.967757 
L 195.52738 241.523891 
L 195.727488 264.927522 
L 196.127703 274.601673 
L 196.327811 270.949437 
L 196.527918 274.601673 
L 196.728026 249.072661 
L 196.928133 253.36007 
L 197.128241 280.342647 
L 197.328349 292.105537 
L 197.528456 287.439468 
L 197.728564 312.96848 
L 197.928671 309.316244 
L 198.528994 278.876867 
L 198.729102 282.529103 
L 199.129317 241.62161 
L 199.529532 283.188705 
L 199.72964 278.901296 
L 199.929747 260.823336 
L 200.329962 306.58012 
L 200.53007 297.370132 
L 200.730178 324.083983 
L 200.930285 334.710892 
L 201.130393 324.926807 
L 201.3305 329.214215 
L 201.530608 305.810585 
L 201.730715 300.484916 
L 201.930823 323.888546 
L 202.130931 328.554614 
L 202.331038 303.025602 
L 202.531146 316.694006 
L 202.731253 306.067097 
L 202.931361 301.510962 
L 203.331576 255.497666 
L 203.531684 264.707654 
L 203.731791 235.379828 
L 203.931899 228.979253 
L 204.132006 243.673703 
L 204.332114 214.260372 
L 204.732329 242.501079 
L 205.132544 252.761543 
L 205.332652 247.753459 
L 205.53276 274.46731 
L 205.732867 257.464255 
L 205.932975 253.812019 
L 206.133082 269.630234 
L 206.33319 297.235769 
L 206.533297 270.778429 
L 206.933513 283.689513 
L 207.333728 273.990932 
L 207.533835 273.990932 
L 207.733943 292.154396 
L 208.134158 347.011235 
L 208.334266 337.801247 
L 208.534373 364.258586 
L 208.934588 354.718797 
L 209.134696 363.928786 
L 209.534911 337.471446 
L 209.935126 286.816512 
L 210.135234 316.229842 
L 210.335342 300.582634 
L 210.535449 312.052367 
L 210.935664 269.153856 
L 211.33588 298.420608 
L 211.535987 316.242057 
L 211.736095 308.656642 
L 211.936202 325.659697 
L 212.13631 306.360253 
L 212.336417 303.843996 
L 212.536525 308.85208 
L 212.736633 335.30942 
L 212.93674 337.825676 
L 213.136848 352.520127 
L 213.336955 195.412877 
L 213.537063 187.302224 
L 213.937278 210.742499 
L 214.137386 222.505388 
L 214.537601 170.897697 
L 214.937816 226.768367 
L 215.137924 211.206663 
L 215.338031 224.875067 
L 215.738246 201.422577 
L 215.938354 204.293064 
L 216.138462 212.379287 
L 216.338569 197.08631 
L 216.538677 205.954282 
L 216.738784 232.93686 
L 216.938892 222.309951 
L 217.138999 245.896804 
L 217.339107 245.896804 
L 217.539215 233.547602 
L 217.93943 257.000092 
L 218.339645 247.118287 
L 218.539753 267.724719 
L 218.73986 238.311389 
L 218.939968 267.32163 
L 219.140075 192.481316 
L 219.340183 196.121338 
L 219.740398 242.134633 
L 219.940506 249.720048 
L 220.140613 235.025598 
L 220.340721 239.691666 
L 220.540828 251.454555 
L 220.740936 256.487068 
L 220.941044 283.469646 
L 221.141151 275.884231 
L 221.541366 232.167325 
L 221.741474 239.75274 
L 221.941581 234.42707 
L 222.141689 223.800161 
L 222.341797 206.821536 
L 222.541904 233.278876 
L 222.742012 203.865545 
L 223.142227 194.276897 
L 223.342335 197.929134 
L 223.542442 211.927338 
L 223.74255 195.412877 
L 223.942657 224.826208 
L 224.142765 230.078588 
L 224.342873 249.878841 
L 224.54298 245.591433 
L 224.743088 255.375518 
L 224.943195 282.089369 
L 225.34341 237.260913 
L 225.543518 242.586582 
L 225.943733 235.294324 
L 226.143841 224.667415 
L 226.343948 251.430125 
L 226.544056 262.057035 
L 226.744164 257.390966 
L 226.944271 279.36546 
L 227.144379 271.780046 
L 227.344486 286.474496 
L 227.544594 275.847587 
L 227.744701 279.487609 
L 227.944809 292.325404 
L 228.144917 264.719869 
L 228.545132 313.872378 
L 228.945347 266.9674 
L 229.145455 294.572934 
L 229.54567 260.676758 
L 229.745777 288.282292 
L 229.945885 272.989315 
L 230.145992 295.26918 
L 230.3461 298.921416 
L 230.546208 289.137331 
L 230.746315 286.621074 
L 230.946423 299.312291 
L 231.14653 287.549402 
L 231.346638 304.552457 
L 231.546746 296.967042 
L 231.746853 282.272592 
L 231.946961 282.272592 
L 232.147068 252.859261 
L 232.347176 240.424556 
L 232.547283 247.399229 
L 232.747391 229.504491 
L 232.947499 258.917821 
L 233.147606 255.277799 
L 233.347714 259.992727 
L 233.547821 274.687177 
L 233.747929 272.170921 
L 233.948037 281.380909 
L 234.148144 276.824774 
L 234.348252 215.286419 
L 234.548359 215.286419 
L 234.748467 211.328811 
L 235.148682 240.595564 
L 235.34879 225.302586 
L 235.548897 230.31067 
L 235.749005 204.696154 
L 236.14922 247.594666 
L 236.349328 252.627179 
L 236.549435 271.926624 
L 236.749543 266.674243 
L 236.94965 239.960392 
L 237.149758 269.373723 
L 237.349866 247.826748 
L 237.549973 252.60275 
L 238.150296 196.70765 
L 238.350403 196.70765 
L 238.550511 211.4021 
L 238.750619 238.115952 
L 239.150834 183.796566 
L 239.350941 189.53754 
L 239.551049 200.164449 
L 239.751157 204.451857 
L 239.951264 199.785789 
L 240.151372 214.48024 
L 240.351479 210.828003 
L 240.551587 218.413417 
L 240.751694 231.324502 
L 240.951802 217.656098 
L 241.15191 228.234147 
L 241.352017 232.900216 
L 241.552125 228.234147 
L 241.752232 198.820817 
L 241.95234 224.435333 
L 242.152448 221.919076 
L 242.352555 233.852973 
L 242.552663 213.490838 
L 242.75277 215.701723 
L 242.952878 210.66921 
L 243.152985 189.94063 
L 243.353093 187.204506 
L 243.553201 190.856742 
L 243.953416 231.507724 
L 244.153523 236.760105 
L 244.353631 211.231093 
L 244.553739 232.778067 
L 244.753846 211.231093 
L 244.953954 221.015178 
L 245.154061 215.286419 
L 245.354169 203.52353 
L 245.554276 204.65951 
L 245.754384 204.65951 
L 245.954492 208.42168 
L 246.154599 223.11613 
L 246.554814 201.862312 
L 246.95503 219.671546 
L 247.155137 200.372101 
L 247.355245 221.919076 
L 247.555352 216.910992 
L 247.75546 226.695078 
L 247.955568 223.042841 
L 248.155675 241.120802 
L 248.355783 235.868421 
L 248.55589 225.241512 
L 248.956105 262.814355 
L 249.156213 241.26738 
L 249.356321 232.057392 
L 249.556428 228.41737 
L 249.956643 204.525146 
L 250.156751 209.899675 
L 250.356859 219.109663 
L 250.556966 207.346774 
L 250.757074 202.790639 
L 250.957181 208.04302 
L 251.357396 255.119006 
L 251.757612 202.607417 
L 251.957719 197.281747 
L 252.157827 197.660407 
L 252.357934 202.216542 
L 252.558042 185.262346 
L 252.75815 196.73208 
L 253.158365 179.936677 
L 253.55858 213.380904 
L 253.758687 208.714836 
L 253.958795 221.491557 
L 254.158903 248.205408 
L 254.35901 218.877581 
L 254.559118 223.16499 
L 254.759225 248.694002 
L 254.959333 256.279416 
L 255.359548 211.45096 
L 255.559656 196.157982 
L 255.759763 207.920871 
L 255.959871 194.252467 
L 256.159978 216.532332 
L 256.560194 206.247439 
L 256.760301 219.915843 
L 256.960409 219.915843 
L 257.160516 194.826565 
L 257.360624 185.958592 
L 257.760839 239.313006 
L 257.960947 257.708552 
L 258.161054 228.295222 
L 258.361162 220.526585 
L 258.961485 236.955542 
L 259.161592 215.408567 
L 259.561807 255.033503 
L 259.962023 245.444855 
L 260.362238 255.143436 
L 260.562345 229.52892 
L 260.762453 232.045177 
L 260.962561 236.601312 
L 261.162668 229.015897 
L 261.362776 214.321447 
L 261.562883 233.620891 
L 261.762991 238.628975 
L 262.563421 219.70819 
L 262.763529 196.890872 
L 262.963636 265.4039 
L 263.163744 243.979074 
L 263.363852 255.741963 
L 263.764067 264.964166 
L 264.164282 289.259479 
L 264.364389 316.865014 
L 264.564497 289.882436 
L 264.764605 278.119547 
L 264.964712 248.79172 
L 265.16482 260.554609 
L 265.364927 245.860159 
L 265.765143 200.09116 
L 265.96525 209.875246 
L 266.165358 233.828543 
L 266.365465 204.415213 
L 266.565573 215.884946 
L 267.165896 267.419349 
L 267.366003 262.093679 
L 267.766218 234.80573 
L 267.966326 237.321987 
L 268.166434 213.918357 
L 268.366541 240.375697 
L 268.566649 213.918357 
L 269.166971 272.403003 
L 269.367079 267.736934 
L 269.567187 255.974045 
L 269.767294 282.431385 
L 269.967402 272.647299 
L 270.167509 299.629877 
L 270.567725 290.041229 
L 270.96794 297.333487 
L 271.168047 293.046079 
L 271.368155 297.602214 
L 271.568263 290.016799 
L 271.76837 304.71125 
L 271.968478 277.105715 
L 272.168585 282.138229 
L 272.768908 235.147746 
L 272.969016 244.931831 
L 273.169123 219.402819 
L 273.369231 214.150439 
L 273.569338 195.986974 
L 273.769446 203.572389 
L 273.969554 189.903985 
L 274.169661 277.166789 
L 274.369769 279.683046 
L 274.569876 252.077512 
L 274.769984 278.791363 
L 274.970091 249.463536 
L 275.170199 253.103558 
L 275.370307 249.463536 
L 275.570414 252.676039 
L 275.770522 248.388631 
L 275.970629 268.677477 
L 276.170737 263.425096 
L 276.370845 268.45761 
L 276.570952 249.158165 
L 276.77106 249.133736 
L 276.971167 239.34965 
L 277.57149 322.862499 
L 277.971705 314.556409 
L 278.171813 309.890341 
L 278.37192 315.6191 
L 278.572028 289.161761 
L 278.772136 318.489587 
L 278.972243 290.884053 
L 279.172351 303.795137 
L 279.372458 175.771417 
L 279.572566 164.118461 
L 279.772673 181.365813 
L 279.972781 183.45455 
L 280.172889 178.422037 
L 280.372996 204.036553 
L 280.773211 195.718248 
L 281.173427 246.409827 
L 281.373534 255.619815 
L 281.573642 282.333666 
L 281.973857 234.329352 
L 282.374072 285.289657 
L 282.57418 276.079669 
L 282.774287 293.082724 
L 282.974395 273.783279 
L 283.37461 282.687896 
L 283.774825 243.404977 
L 283.974933 272.732803 
L 284.17504 262.948718 
L 284.375148 258.66131 
L 284.575256 231.605443 
L 284.975471 252.028652 
L 285.175578 242.244567 
L 285.375686 276.043024 
L 285.575793 290.480963 
L 285.976009 299.373365 
L 286.376224 266.405517 
L 286.576331 268.921774 
L 286.976547 301.828548 
L 287.376762 292.508626 
L 287.576869 270.228761 
L 287.776977 283.897165 
L 287.977084 278.644785 
L 288.177192 266.881896 
L 288.3773 286.18134 
L 288.777515 240.265763 
L 289.17773 309.926986 
L 289.377838 177.347131 
L 289.577945 204.952666 
L 289.97816 225.925543 
L 290.178268 231.177923 
L 290.378375 226.16984 
L 290.978698 256.633646 
L 291.178806 241.939196 
L 291.378913 258.942251 
L 291.579021 255.290014 
L 291.779129 244.663105 
L 292.379451 196.951947 
L 292.579559 215.115411 
L 292.779666 220.147925 
L 292.979774 201.98446 
L 293.179882 206.271868 
L 293.379989 189.268813 
L 293.580097 199.052899 
L 293.780204 237.346417 
L 293.980312 227.562331 
L 294.18042 246.861776 
L 294.380527 253.262351 
L 294.580635 248.706216 
L 294.780742 265.709271 
L 294.98085 256.499283 
L 295.180958 268.262172 
L 295.381065 263.229659 
L 295.981388 295.110387 
L 296.381603 252.57832 
L 296.581711 260.163735 
L 296.781818 257.647478 
L 296.981926 238.348034 
L 297.182033 240.86429 
L 297.382141 245.420425 
L 297.582249 233.657536 
L 297.782356 230.017514 
L 297.982464 200.689687 
L 298.182571 230.103018 
L 298.382679 230.103018 
L 298.582786 233.743039 
L 298.782894 251.821 
L 298.983002 241.194091 
L 299.383217 282.04051 
L 299.583324 270.570777 
L 299.783432 252.492816 
L 299.98354 269.495871 
L 300.183647 265.208463 
L 300.383755 243.661488 
L 300.583862 270.644066 
L 300.78397 270.558562 
L 301.184185 290.395459 
L 301.384293 316.009975 
L 301.5844 290.395459 
L 301.784508 279.76855 
L 301.984615 309.096377 
L 302.184723 184.138581 
L 302.384831 273.148108 
L 302.584938 267.089548 
L 302.785046 272.097632 
L 303.185261 309.18188 
L 303.785584 278.718074 
L 303.985691 283.17649 
L 304.185799 296.844894 
L 304.385906 324.450428 
L 304.586014 306.372468 
L 304.786122 310.659876 
L 304.986229 322.422765 
L 305.186337 296.808249 
L 305.386444 314.800706 
L 305.586552 285.472879 
L 305.786659 296.942613 
L 305.986767 291.690232 
L 306.186875 265.232892 
L 306.386982 291.897884 
L 306.58709 295.208106 
L 306.787197 173.548317 
L 306.987305 160.47844 
L 307.587628 200.604183 
L 307.787735 186.935779 
L 307.987843 206.235224 
L 308.187951 213.820638 
L 308.788273 182.220852 
L 309.188488 212.831236 
L 309.588704 240.119185 
L 309.988919 206.748247 
L 310.189026 224.826208 
L 310.389134 219.573827 
L 310.789349 187.876322 
L 310.989457 187.876322 
L 311.189564 269.410367 
L 311.389672 286.083621 
L 311.589779 285.790465 
L 311.789887 293.37588 
L 311.989995 308.363486 
L 312.190102 293.37588 
L 312.39021 293.131583 
L 312.590317 293.131583 
L 312.790425 316.535213 
L 312.990533 305.908304 
L 313.19064 323.986264 
L 313.390748 309.291814 
L 313.590855 319.918723 
L 313.790963 293.461384 
L 313.99107 293.204872 
L 314.191178 312.504316 
L 314.391286 182.159778 
L 314.591393 171.838239 
L 314.791501 197.452755 
L 314.991608 201.104992 
L 315.391824 166.51257 
L 315.591931 137.184743 
L 315.792039 127.974755 
L 315.992146 141.5943 
L 316.192254 137.306892 
L 316.392361 146.51688 
L 316.792577 189.51311 
L 316.992684 185.873088 
L 317.192792 211.4021 
L 317.793115 236.845608 
L 317.993222 266.258939 
L 318.593545 223.042841 
L 318.99376 235.440902 
L 319.193868 230.408389 
L 319.594083 239.972607 
L 319.79419 234.720227 
L 319.994298 223.678013 
L 320.194406 223.678013 
L 320.394513 223.384857 
L 320.594621 238.897701 
L 320.794728 242.537723 
L 320.994836 260.615684 
L 321.194944 255.6076 
L 321.395051 260.640113 
L 321.595159 233.657536 
L 321.795266 245.420425 
L 321.995374 241.768188 
L 322.195481 269.373723 
L 322.395589 265.733701 
L 322.595697 236.32037 
L 322.795804 262.77771 
L 323.196019 211.768545 
L 323.396127 228.7716 
L 323.596235 202.057749 
L 323.796342 229.040327 
L 323.99645 225.705676 
L 324.196557 230.958056 
L 324.396665 203.975479 
L 324.996988 188.682501 
L 325.197095 193.934882 
L 325.397203 219.549397 
L 325.59731 202.546343 
L 325.797418 216.214747 
L 325.997526 198.136786 
L 326.197633 224.850637 
L 326.397741 222.334381 
L 326.597848 227.489042 
L 326.797956 253.946382 
L 327.198171 228.808245 
L 327.398279 270.228761 
L 327.598386 240.900935 
L 327.798494 228.148644 
L 327.998601 198.735313 
L 328.198709 203.291448 
L 328.598924 240.754357 
L 328.999139 217.521734 
L 329.399354 234.610293 
L 329.599462 232.094036 
L 329.79957 206.479521 
L 330.199785 223.372642 
L 330.399892 260.750047 
L 330.6 263.266304 
L 330.800108 248.571853 
L 331.000215 258.355939 
L 331.200323 283.970454 
L 331.40043 254.642628 
L 331.600538 250.086493 
L 331.800646 279.41432 
L 332.000753 270.204332 
L 332.200861 292.484197 
L 332.400968 287.818128 
L 332.601076 297.028116 
L 332.801183 267.70029 
L 333.001291 282.39474 
L 333.201399 260.847766 
L 333.401506 255.839682 
L 333.601614 246.055596 
L 333.801721 250.343005 
L 334.001829 222.73747 
L 334.201937 257.47647 
L 334.602152 222.529818 
L 334.802259 222.529818 
L 335.002367 248.205408 
L 335.202474 248.205408 
L 335.802797 262.679991 
L 336.002905 244.516527 
L 336.40312 279.683046 
L 336.603228 275.395638 
L 336.803335 248.41306 
L 337.003443 269.960035 
L 337.20355 266.320013 
L 337.403658 271.328097 
L 337.603765 257.659693 
L 337.803873 275.737653 
L 338.003981 279.377675 
L 338.404196 244.211156 
L 338.604303 249.536825 
L 338.804411 231.458865 
L 339.004519 202.131038 
L 339.204626 220.294503 
L 339.404734 249.622329 
L 339.604841 238.152596 
L 339.804949 264.609936 
L 340.005056 276.079669 
L 340.205164 281.112182 
L 340.405272 261.812738 
L 340.605379 275.481142 
L 340.805487 304.894472 
L 341.005594 299.642092 
L 341.40581 261.544011 
L 341.605917 271.328097 
L 341.806025 266.002427 
L 342.006132 244.455453 
L 342.20624 261.458507 
L 342.406347 256.450424 
L 342.606455 281.979436 
L 342.806563 276.946922 
L 343.00667 295.024883 
L 343.206778 300.753642 
L 343.406885 324.157272 
L 343.807101 305.102125 
L 344.007208 331.815976 
L 344.207316 336.103384 
L 344.407423 350.797834 
L 344.607531 354.450071 
L 344.807639 327.73622 
L 345.007746 318.526232 
L 345.407961 285.155294 
L 345.808176 299.397795 
L 346.008284 269.984465 
L 346.208392 281.454198 
L 346.408499 277.801961 
L 346.608607 252.187445 
L 346.808714 257.513115 
L 347.008822 284.495692 
L 347.409037 263.241874 
L 347.609145 236.259296 
L 347.809252 231.593228 
L 348.00936 217.924824 
L 348.209467 190.31929 
L 348.409575 203.987694 
L 348.609683 259.455274 
L 348.80979 274.149724 
L 349.009898 303.477551 
L 349.210005 298.811483 
L 349.410113 308.021471 
L 349.610221 300.436056 
L 349.810328 304.992191 
L 350.010436 278.009613 
L 350.210543 282.297022 
L 350.610758 240.290193 
L 350.810866 239.141998 
L 351.010974 218.853152 
L 351.211081 226.695078 
L 351.611296 195.437307 
L 351.811404 195.437307 
L 352.011512 207.200196 
L 352.411727 261.788308 
L 352.611834 257.232173 
L 352.811942 237.932729 
L 353.012049 235.416472 
L 353.412265 261.336359 
L 353.612372 231.923029 
L 353.81248 294.059911 
L 354.012587 272.317499 
L 354.212695 287.011949 
L 354.61291 332.072487 
L 354.813018 305.08991 
L 355.013125 332.072487 
L 355.213233 336.359896 
L 355.613448 285.39959 
L 355.813556 290.651971 
L 356.013663 312.931836 
L 356.213771 287.402824 
L 356.413878 316.730651 
L 356.814094 271.853335 
L 357.014201 287.146312 
L 357.214309 282.113799 
L 357.414416 255.131221 
L 357.614524 250.465153 
L 357.814632 271.926624 
L 358.014739 267.639216 
L 358.214847 238.311389 
L 358.414954 243.563769 
L 358.615062 244.699749 
L 358.815169 254.483835 
L 359.015277 233.877403 
L 359.215385 238.164811 
L 359.415492 247.777889 
L 359.6156 274.49174 
L 360.015815 230.506107 
L 360.215923 225.473594 
L 360.41603 230.909197 
L 361.016353 273.795494 
L 361.21646 277.447731 
L 361.416568 283.17649 
L 361.616676 310.159068 
L 361.816783 283.701728 
L 362.016891 277.972969 
L 362.216998 248.559638 
L 362.417106 248.559638 
L 362.617214 253.018054 
L 362.817321 275.297919 
L 363.017429 249.683403 
L 363.217536 276.140743 
L 363.617751 296.820464 
L 364.017967 288.514374 
L 364.218074 306.592335 
L 364.618289 267.895727 
L 364.818397 249.817767 
L 365.018505 251.173614 
L 365.41872 279.939558 
L 365.618827 309.352888 
L 365.818935 287.805914 
L 366.019042 315.411448 
L 366.21915 311.12404 
L 366.419258 201.373718 
L 366.819473 192.530175 
L 367.01958 219.512753 
L 367.219688 192.530175 
L 367.419796 206.198579 
L 367.619903 260.053801 
L 367.820011 263.706038 
L 368.020118 269.434797 
L 368.220226 257.671908 
L 368.620441 294.51186 
L 368.820549 289.259479 
L 369.020656 262.545628 
L 369.220764 257.989493 
L 369.620979 212.232709 
L 369.821087 252.639394 
L 370.221302 280.14721 
L 370.421409 285.155294 
L 370.621517 312.137871 
L 371.021732 283.433001 
L 371.22184 287.073023 
L 371.421947 316.486354 
L 371.622055 294.939379 
L 371.822162 313.01734 
L 372.02227 316.669576 
L 372.222378 345.997403 
L 372.422485 356.624312 
L 372.622593 351.616229 
L 372.8227 377.14524 
L 373.222916 348.782386 
L 373.423023 323.253374 
L 373.623131 327.540782 
L 373.823238 301.926267 
L 374.023346 294.340852 
L 374.223453 296.857109 
L 374.423561 312.150086 
L 374.823776 322.190683 
L 375.023884 333.660416 
L 375.223991 328.652333 
L 375.624207 283.506291 
L 375.824314 288.83196 
L 376.024422 262.118109 
L 376.224529 275.786513 
L 376.424637 302.500364 
L 376.624744 310.085779 
L 376.824852 280.672448 
L 377.02496 277.032426 
L 377.425175 220.099065 
L 377.625282 214.846685 
L 377.82539 220.099065 
L 378.225605 204.219775 
L 378.425713 202.36312 
L 378.62582 208.091879 
L 379.026036 190.722379 
L 379.226143 199.932367 
L 379.426251 194.899854 
L 379.826466 230.066373 
L 380.026573 259.479704 
L 380.226681 270.106613 
L 380.426789 299.43444 
L 380.827004 309.133021 
L 381.027111 279.719691 
L 381.227219 306.702268 
L 381.427327 311.954649 
L 381.827542 362.963813 
L 382.027649 360.447557 
L 382.227757 348.977823 
L 382.627972 307.703885 
L 382.82808 298.493897 
L 383.028187 272.036557 
L 383.228295 260.273668 
L 383.428402 256.438209 
L 383.62851 274.601673 
L 383.828618 263.13194 
L 384.028725 233.71861 
L 384.228833 282.895549 
L 384.629048 232.094036 
L 384.829155 251.393481 
L 385.029263 225.864469 
L 385.229371 252.57832 
L 385.429478 257.830701 
L 385.829693 241.035298 
L 386.029801 218.755433 
L 386.229909 259.919438 
L 386.630124 292.386478 
L 386.830231 280.623589 
L 387.030339 298.787053 
L 387.230446 279.487609 
L 387.430554 288.697597 
L 387.630662 291.213853 
L 387.830769 265.599338 
L 388.030877 273.184752 
L 388.230984 298.799268 
L 388.431092 309.426177 
L 388.6312 282.4436 
L 388.831307 277.11793 
L 389.231522 285.80268 
L 389.831845 338.754004 
L 390.031953 271.523534 
L 390.432168 284.361329 
L 390.632275 299.654307 
L 390.832383 304.210441 
L 391.032491 322.288402 
L 391.232598 328.017161 
L 391.432706 357.430492 
L 391.632813 362.438575 
L 392.233136 276.091884 
L 392.433244 271.535749 
L 392.833459 278.60814 
L 393.233674 250.245286 
L 393.433782 245.957878 
L 393.633889 271.572394 
L 393.833997 250.025419 
L 394.234212 283.042127 
L 394.43432 277.716457 
L 394.634427 250.733879 
L 395.034642 271.144874 
L 395.23475 244.431023 
L 395.434857 239.764955 
L 395.634965 220.46551 
L 395.835073 229.675498 
L 396.03518 253.079128 
L 396.435395 223.445931 
L 396.835611 209.227859 
L 397.035718 223.92231 
L 397.435933 269.068352 
L 397.836148 219.683761 
L 398.036256 237.761721 
L 398.236364 232.729208 
L 398.436471 247.423658 
L 398.636579 242.415575 
L 398.836686 227.122597 
L 399.036794 223.482575 
L 399.236902 248.608498 
L 399.637117 260.750047 
L 399.837224 241.450602 
L 400.037332 251.234688 
L 400.237439 268.237743 
L 400.437547 263.681608 
L 400.637655 278.974586 
L 400.837762 304.589101 
L 401.03787 277.87525 
L 401.237977 280.391507 
L 401.438085 271.181519 
L 401.638193 245.652507 
L 402.038408 254.337257 
L 402.238515 244.553171 
L 402.438623 248.84058 
L 402.838838 239.887103 
L 403.239053 249.426892 
L 403.639268 301.669755 
L 404.039484 275.749868 
L 404.639806 334.381092 
L 404.839914 330.093684 
L 405.040022 345.386661 
L 405.240129 327.3087 
L 405.440237 345.386661 
L 405.640344 341.734424 
L 405.840452 368.717002 
L 406.040559 374.445761 
L 406.84099 281.551916 
L 407.041097 286.108051 
L 407.241205 238.482397 
L 407.441313 267.810223 
L 407.64142 278.437133 
L 407.841528 275.920876 
L 408.041635 275.920876 
L 408.241743 305.334206 
L 408.44185 306.93435 
L 408.641958 304.002789 
L 408.842066 331.608324 
L 409.042173 343.078057 
L 409.242281 323.778612 
L 409.442388 320.13859 
L 409.642496 337.141645 
L 409.842604 332.854237 
L 410.042711 317.56126 
L 410.242819 292.032248 
L 410.442926 294.548504 
L 410.843141 271.315882 
L 411.243357 313.322711 
L 411.643572 260.994344 
L 411.843679 280.293788 
L 412.043787 280.293788 
L 412.243895 294.255348 
L 412.444002 271.450245 
L 412.844217 279.646402 
L 413.044325 291.116135 
L 413.244432 295.403543 
L 413.644648 261.409648 
L 413.844755 273.172537 
L 414.044863 267.920157 
L 414.445078 218.767648 
L 414.845293 271.096015 
L 415.045401 267.443778 
L 415.245508 295.049313 
L 415.645724 268.262172 
L 415.845831 257.635263 
L 416.045939 203.938834 
L 416.446154 257.158884 
L 416.646261 231.629872 
L 416.846369 255.033503 
L 417.246584 205.148103 
L 417.846907 279.670831 
L 418.047015 254.056315 
L 418.247122 258.61245 
L 418.44723 288.025781 
L 418.847445 257.354322 
L 419.047552 284.959856 
L 419.24766 270.265406 
L 419.447768 281.735139 
L 419.647875 277.447731 
L 419.847983 291.116135 
L 420.448306 239.850459 
L 421.048628 262.142538 
L 421.248736 279.145593 
L 421.448843 269.361508 
L 421.648951 247.081643 
L 421.849059 274.687177 
L 422.249274 282.993267 
L 422.449381 257.464255 
L 422.649489 253.824234 
L 422.849597 256.34049 
L 423.049704 226.92716 
L 423.249812 222.371025 
L 423.449919 200.82405 
L 423.650027 198.307794 
L 423.850134 220.13571 
L 424.050242 225.38809 
L 424.25035 240.082541 
L 424.450457 225.38809 
L 424.650565 202.069964 
L 425.05078 238.567901 
L 425.250888 212.110561 
L 425.450995 226.805011 
L 425.651103 273.477908 
L 426.051318 290.676401 
L 426.251425 316.290916 
L 426.451533 320.578325 
L 426.651641 309.108591 
L 426.851748 335.822443 
L 427.251963 290.945127 
L 427.452071 283.359712 
L 427.852286 328.237028 
L 428.052394 300.631494 
L 428.252501 324.035124 
L 428.452609 314.251038 
L 428.652717 309.96363 
L 428.852824 321.433363 
L 429.052932 316.877229 
L 429.253039 293.473599 
L 429.653254 303.086676 
L 429.853362 277.557664 
L 430.05347 282.565748 
L 430.253577 278.925726 
L 430.453685 251.943148 
L 430.653792 268.946203 
L 431.054008 239.313006 
L 431.254115 230.103018 
L 431.65433 182.208637 
L 431.854438 189.794051 
L 432.054545 187.485447 
L 432.254653 210.889077 
L 432.454761 206.601669 
L 432.854976 269.862316 
L 433.055083 272.378573 
L 433.255191 267.126192 
L 433.455299 269.679094 
L 433.655406 274.931474 
L 433.855514 302.537008 
L 434.055621 291.067275 
L 434.255729 191.833929 
L 434.455836 218.291269 
L 434.655944 204.622865 
L 434.856052 203.963264 
L 435.256267 212.15942 
L 435.456374 225.827824 
L 435.656482 220.819741 
L 435.85659 225.107149 
L 436.056697 213.34426 
L 436.256805 218.914226 
L 436.65702 201.642445 
L 437.057235 212.220494 
L 437.657558 152.514365 
L 437.857665 172.400122 
L 438.057773 159.611186 
L 438.457988 176.125647 
L 438.658096 152.52658 
L 438.858203 147.970445 
L 439.058311 167.26989 
L 439.258419 169.786146 
L 439.458526 197.391681 
L 439.658634 192.383597 
L 439.858741 183.173609 
L 440.058849 192.957695 
L 440.258956 171.41072 
L 440.459064 173.450598 
L 440.859279 200.506465 
L 441.059387 196.854228 
L 441.459602 253.250136 
L 441.65971 248.584068 
L 442.059925 257.268818 
L 442.260032 251.540059 
L 442.46014 265.819205 
L 442.660247 205.135888 
L 442.860355 220.428866 
L 443.060463 225.461379 
L 443.26057 253.066914 
L 443.460678 237.773936 
L 443.660785 252.468387 
L 443.860893 279.450964 
L 444.261108 253.286781 
L 444.461216 229.968654 
L 444.661323 252.028652 
L 444.861431 255.680889 
L 445.261646 300.387197 
L 445.461754 273.929857 
L 445.661861 300.387197 
L 445.861969 297.87094 
L 446.262184 244.431023 
L 446.462292 253.641011 
L 446.662399 249.353603 
L 447.062614 284.825493 
L 447.262722 263.278518 
L 447.462829 266.503236 
L 447.662937 254.862495 
L 447.863045 275.810942 
L 448.063152 276.653766 
L 448.26326 272.097632 
L 448.463367 190.917817 
L 448.663475 186.630408 
L 448.863583 195.840396 
L 449.06369 222.554248 
L 449.463905 215.481856 
L 449.86412 286.425637 
L 450.064228 291.091705 
L 450.264336 309.169666 
L 450.664551 237.224268 
L 450.864658 227.440183 
L 451.064766 239.01985 
L 451.264874 230.408389 
L 451.464981 249.707833 
L 451.665089 253.36007 
L 451.865196 250.843813 
L 452.065304 255.131221 
L 452.265412 247.545807 
L 452.465519 273.074819 
L 452.665627 277.630953 
L 452.865734 273.074819 
L 453.265949 309.316244 
L 453.466057 298.689334 
L 453.666165 303.245469 
L 453.866272 299.605447 
L 454.06638 311.368337 
L 454.666703 276.727055 
L 454.86681 286.511141 
L 455.066918 282.223732 
L 455.267025 290.835193 
L 455.467133 266.637599 
L 455.66724 256.853513 
L 455.867348 261.861597 
L 456.067456 278.864652 
L 456.467671 223.92231 
L 456.667778 249.536825 
L 456.867886 253.176847 
L 457.067994 262.960933 
L 457.468209 255.668674 
L 457.668316 269.337078 
L 457.868424 275.065837 
L 458.068531 304.479168 
L 458.468747 264.035838 
L 458.668854 250.68502 
L 458.868962 250.68502 
L 459.069069 221.27169 
L 459.269177 243.575984 
L 459.469285 232.949075 
L 459.669392 262.362405 
L 459.8695 273.832139 
L 460.069607 268.103379 
L 460.469822 228.918178 
L 460.66993 239.545088 
L 460.870038 241.194091 
L 461.270253 301.376599 
L 461.47036 296.832679 
L 461.670468 282.7734 
L 461.870576 299.776455 
L 462.070683 294.450786 
L 462.270791 275.151341 
L 462.671006 284.715559 
L 462.871114 280.049491 
L 463.071221 256.645861 
L 463.271329 274.723822 
L 463.671544 238.64119 
L 463.871651 266.246724 
L 464.271867 237.285343 
L 464.471974 253.824234 
L 464.672082 203.462455 
L 464.872189 257.195529 
L 465.072297 247.68017 
L 465.272405 221.992365 
L 465.472512 227.024878 
L 465.67262 222.35881 
L 465.872727 192.94548 
L 466.072835 228.075355 
L 466.272942 232.741423 
L 466.47305 218.046972 
L 466.673158 213.67406 
L 466.873265 221.259475 
L 467.27348 260.933269 
L 467.473588 257.281033 
L 467.673696 270.949437 
L 468.073911 308.033686 
L 468.274018 282.504674 
L 468.474126 274.919259 
L 468.674233 272.403003 
L 468.874341 300.008537 
L 469.074449 302.524794 
L 469.274556 296.796035 
L 469.474664 323.509886 
L 469.674771 318.257505 
L 469.874879 290.651971 
L 470.074987 319.979798 
L 470.275094 293.522458 
L 470.475202 283.738372 
L 470.675309 305.285347 
L 470.875417 300.997939 
L 471.075524 279.450964 
L 471.275632 275.810942 
L 471.675847 252.773757 
L 471.875955 257.061166 
L 472.476278 283.775017 
L 472.676385 256.792439 
L 472.876493 247.008354 
L 473.0766 273.990932 
L 473.476815 215.249774 
L 473.676923 242.855309 
L 473.877031 237.822795 
L 474.077138 242.37893 
L 474.277246 256.047334 
L 474.477353 233.767469 
L 474.677461 237.419706 
L 475.077676 274.394021 
L 475.477891 247.631311 
L 475.677999 277.044641 
L 475.878107 288.80753 
L 476.078214 284.251396 
L 476.278322 272.488506 
L 476.678537 327.345345 
L 476.878644 322.337261 
L 477.078752 326.893396 
L 477.27886 344.971357 
L 477.478967 350.700116 
L 477.679075 346.412707 
L 477.879182 350.700116 
L 478.279398 306.091526 
L 478.479505 301.535392 
L 478.679613 292.325404 
L 478.87972 304.088293 
L 479.079828 285.924828 
L 479.279935 283.408572 
L 479.480043 283.408572 
L 479.880258 310.171282 
L 480.080366 298.701549 
L 480.280473 294.414141 
L 480.480581 265.000811 
L 480.680689 261.788308 
L 481.080904 271.828905 
L 481.281011 268.176669 
L 481.481119 254.557124 
L 481.681226 272.720588 
L 481.881334 280.306003 
L 482.081442 258.026138 
L 482.281549 263.754897 
L 482.481657 261.23864 
L 482.681764 281.967221 
L 483.282087 242.940813 
L 483.482195 272.354143 
L 483.682302 267.32163 
L 483.88241 269.630234 
L 484.082517 274.186369 
L 484.282625 283.396357 
L 484.482733 278.730289 
L 484.882948 307.093143 
L 485.083055 280.379292 
L 485.283163 285.704961 
L 485.683378 238.97099 
L 485.883486 263.828186 
L 486.083593 258.575806 
L 486.283701 234.976738 
L 486.683916 283.970454 
L 486.884024 278.962371 
L 487.284239 291.800166 
L 487.484346 296.832679 
L 487.684454 287.622691 
L 487.884562 309.169666 
L 488.084669 305.517429 
L 488.284777 331.046441 
L 488.484884 334.698678 
L 488.684992 316.535213 
L 488.8851 202.106608 
L 489.085207 216.801059 
L 489.285315 209.215644 
L 489.485422 214.944403 
L 490.085745 289.002968 
L 490.285853 265.599338 
L 490.48596 270.925007 
L 490.886175 260.90884 
L 491.086283 263.425096 
L 491.486498 272.268639 
L 491.686606 245.554788 
L 491.886713 255.338874 
L 492.086821 250.782739 
L 492.286928 241.572751 
L 492.487036 237.932729 
L 492.687144 242.488864 
L 492.887251 250.074278 
L 493.087359 279.487609 
L 493.287466 253.873093 
L 493.487574 249.378032 
L 493.687682 219.964702 
L 493.887789 231.727591 
L 494.087897 258.184931 
L 494.288004 267.394919 
L 494.688219 220.318932 
L 495.088435 268.213313 
L 495.288542 256.74358 
L 495.48865 272.036557 
L 495.688757 246.422042 
L 495.888865 237.212054 
L 496.088973 246.422042 
L 496.28908 242.134633 
L 496.489188 234.549219 
L 496.689295 246.226604 
L 496.889403 265.526049 
L 497.08951 248.522994 
L 497.289618 265.526049 
L 497.489726 217.86375 
L 497.689833 231.275642 
L 497.889941 226.731722 
L 498.090048 226.731722 
L 498.490264 207.383419 
L 498.690371 249.90327 
L 499.290694 275.908661 
L 499.490802 301.437673 
L 499.690909 298.921416 
L 499.891017 285.253012 
L 500.091124 303.416477 
L 500.291232 294.206489 
L 500.691447 256.74358 
L 500.891555 259.259837 
L 501.091662 232.277259 
L 501.29177 261.690589 
L 501.691985 235.23325 
L 501.892093 232.655919 
L 502.0922 254.703702 
L 502.292308 254.703702 
L 502.492415 251.06368 
L 502.692523 260.432461 
L 503.092738 306.714483 
L 503.292846 312.443242 
L 503.492953 297.150265 
L 503.893168 289.784717 
L 504.093276 262.80214 
L 504.293384 280.965604 
L 504.493491 285.521739 
L 504.893706 237.517425 
L 505.093814 248.987158 
L 505.293921 244.431023 
L 505.494029 221.027393 
L 505.694137 225.314801 
L 506.094352 216.117028 
L 506.294459 225.327016 
L 506.494567 199.798004 
L 506.694675 204.830517 
L 507.09489 194.105889 
L 507.294997 217.509519 
L 507.695212 225.705676 
L 507.89532 225.705676 
L 508.095428 242.708731 
L 508.295535 220.428866 
L 508.495643 216.776629 
L 508.69575 239.056494 
L 508.895858 233.804114 
L 509.095966 259.333126 
L 509.296073 254.776991 
L 509.496181 259.333126 
L 509.696288 241.255165 
L 509.896396 245.542573 
L 510.096503 242.073559 
L 510.296611 245.38378 
L 510.496719 250.70945 
L 510.896934 229.455631 
L 511.297149 238.787768 
L 511.497257 248.571853 
L 511.697364 231.568798 
L 511.897472 243.331688 
L 512.097579 226.304203 
L 512.297687 224.22768 
L 512.497795 218.21798 
L 512.697902 223.946739 
L 512.89801 219.659331 
L 513.298225 202.289831 
L 513.498332 178.886201 
L 513.69844 174.81866 
L 513.898548 182.404074 
L 514.098655 177.371561 
L 514.298763 187.155646 
L 514.49887 187.155646 
L 514.698978 236.32037 
L 515.099193 256.206127 
L 515.299301 253.68987 
L 515.499408 281.295405 
L 515.699516 253.68987 
L 515.899623 253.68987 
L 516.099731 262.899858 
L 516.299839 233.486528 
L 516.499946 238.519041 
L 516.900161 272.451862 
L 517.100269 299.165713 
L 517.300377 282.162658 
L 517.500484 291.946744 
L 517.700592 317.475756 
L 518.100807 273.453479 
L 518.300914 251.576703 
L 518.501022 256.584787 
L 518.70113 256.584787 
L 518.901237 230.127447 
L 519.301452 257.378751 
L 519.50156 249.793337 
L 519.701668 253.433359 
L 519.901775 248.400845 
L 520.502098 317.756697 
L 520.702205 329.519586 
L 520.902313 334.075721 
L 521.702743 296.747175 
L 521.902851 301.413243 
L 522.102959 296.857109 
L 522.503174 252.150801 
L 522.703281 273.697775 
L 523.103497 226.328633 
L 523.303604 229.186905 
L 523.503712 233.743039 
L 523.703819 229.272409 
L 523.903927 229.272409 
L 524.104034 234.280492 
L 524.304142 232.839141 
L 524.50425 249.011587 
L 524.704357 254.263968 
L 524.904465 239.264146 
L 525.104572 239.264146 
L 525.30468 243.551555 
L 525.504788 255.314444 
L 525.905003 213.564127 
L 526.10511 240.021466 
L 526.305218 213.564127 
L 526.505325 205.03817 
L 526.905541 219.573827 
L 527.105648 192.591249 
L 527.505863 175.502691 
L 527.705971 175.502691 
L 527.906079 170.836623 
L 528.106186 178.422037 
L 528.306294 175.429402 
L 528.506401 198.24672 
L 528.706509 200.762976 
L 528.906616 200.762976 
L 529.106724 184.224085 
L 529.306832 213.637416 
L 529.707047 228.930393 
L 529.907154 223.201634 
L 530.107262 245.628077 
L 530.30737 245.628077 
L 530.507477 254.715917 
L 530.707585 255.558741 
L 531.1078 265.843634 
L 531.307907 260.114875 
L 531.508015 265.367256 
L 531.708123 255.58317 
L 531.90823 255.58317 
L 532.308445 310.525513 
L 532.508553 298.762623 
L 532.708661 293.75454 
L 532.908768 268.140024 
L 533.108876 273.148108 
L 533.308983 246.690768 
L 533.509091 265.086314 
L 533.709198 258.685739 
L 534.109414 232.668134 
L 534.309521 258.28265 
L 534.509629 242.989672 
L 534.709736 239.34965 
L 534.909844 249.133736 
L 535.109952 243.881355 
L 535.310059 256.926802 
L 535.510167 261.934886 
L 535.910382 315.069433 
L 536.11049 310.036919 
L 536.310597 325.329897 
L 536.510705 198.613165 
L 536.710812 225.595742 
L 536.91092 210.901292 
L 537.111027 217.277438 
L 537.311135 203.609034 
L 537.511243 203.609034 
L 537.71135 208.617117 
L 538.111565 246.092241 
L 538.511781 227.965421 
L 538.711888 198.637594 
L 538.911996 210.974581 
L 539.112103 246.312108 
L 539.512318 181.56125 
L 539.912534 231.947458 
L 540.112641 228.307436 
L 540.512856 283.335283 
L 540.712964 283.335283 
L 540.913072 301.498747 
L 541.113179 286.804297 
L 541.313287 260.346957 
L 541.513394 264.903092 
L 541.913609 279.36546 
L 542.113717 274.809326 
L 542.313825 277.325582 
L 542.513932 277.325582 
L 542.71404 304.931117 
L 542.914147 275.517786 
L 543.114255 283.103201 
L 543.314363 277.777531 
L 543.51447 268.567543 
L 543.714578 272.207565 
L 544.3149 258.172716 
L 544.515008 253.885308 
L 544.715116 242.635442 
L 544.915223 216.178102 
L 545.115331 220.84417 
L 545.315438 236.137148 
L 545.515546 240.424556 
L 545.715654 240.424556 
L 546.115869 204.476287 
L 546.315976 252.810402 
L 546.716192 270.692925 
L 546.916299 248.41306 
L 547.116407 269.862316 
L 547.316514 262.276902 
L 547.516622 246.629694 
L 547.716729 242.989672 
L 547.916837 242.989672 
L 548.116945 262.985362 
L 548.317052 215.848301 
L 548.51716 207.187981 
L 548.717267 215.823872 
L 549.117483 263.278518 
L 549.31759 258.368153 
L 549.517698 262.924288 
L 549.717805 262.924288 
L 549.917913 243.038531 
L 550.11802 265.318396 
L 550.318128 248.315342 
L 550.518236 266.393302 
L 550.718343 271.718972 
L 550.918451 242.391145 
L 551.318666 242.391145 
L 551.518774 218.987515 
L 551.718881 213.661845 
L 552.119096 258.807888 
L 552.319204 253.079128 
L 552.519311 278.693644 
L 552.919527 268.995063 
L 553.119634 268.995063 
L 553.319742 292.398693 
L 553.519849 266.784177 
L 553.920065 292.410908 
L 554.120172 274.247443 
L 554.32028 295.708914 
L 554.520387 301.437673 
L 554.920602 235.330968 
L 555.12071 244.540956 
L 555.320818 239.532873 
L 555.520925 239.532873 
L 555.92114 283.95824 
L 556.121248 270.289836 
L 556.321356 244.760824 
L 556.521463 245.115054 
L 556.721571 271.572394 
L 557.121786 289.064042 
L 557.321893 283.811661 
L 557.522001 260.408031 
L 557.722109 264.060268 
L 557.922216 264.060268 
L 558.122324 277.728672 
L 558.322431 272.403003 
L 558.522539 295.806633 
L 558.722647 301.059013 
L 558.922754 311.685922 
L 559.122862 304.100508 
L 559.322969 304.100508 
L 559.523077 315.570241 
L 559.723185 318.086498 
L 559.923292 290.480963 
L 560.1234 290.480963 
L 560.723722 223.091701 
L 560.92383 217.362941 
L 561.123938 191.748426 
L 561.324045 186.740342 
L 561.524153 239.080924 
L 561.72426 244.406593 
L 561.924368 267.810223 
L 562.124476 263.254089 
L 562.324583 251.784356 
L 562.524691 260.994344 
L 562.724798 237.590714 
L 563.125013 275.078052 
L 563.325121 271.43803 
L 563.725336 271.43803 
L 563.925444 283.078771 
L 564.125551 283.078771 
L 564.325659 302.378216 
L 564.525767 302.378216 
L 564.725874 298.090807 
L 565.126089 298.090807 
L 565.526304 314.629698 
L 565.726412 309.597185 
L 565.92652 314.15332 
L 566.126627 339.767835 
L 566.526842 294.853875 
L 566.72695 297.370132 
L 566.927058 292.813997 
L 567.127165 181.793332 
L 567.327273 162.396169 
L 567.52738 181.793332 
L 567.927595 181.793332 
L 568.127703 205.196963 
L 568.327811 205.196963 
L 568.527918 181.793332 
L 568.728026 208.250672 
L 568.928133 210.510417 
L 569.328349 249.207025 
L 569.528456 222.749685 
L 569.728564 222.749685 
L 569.928671 213.539697 
L 570.128779 210.986796 
L 570.328886 231.275642 
L 570.729102 231.275642 
L 570.929209 237.932729 
L 571.129317 212.403717 
L 571.329424 214.919974 
L 571.72964 202.668491 
L 571.929747 220.746452 
L 572.129855 250.159782 
L 572.329962 240.949794 
L 572.53007 245.615862 
L 573.130393 191.895004 
L 573.530608 191.895004 
L 573.730715 199.028469 
L 573.930823 199.028469 
L 574.130931 204.354139 
L 574.331038 233.767469 
L 574.531146 206.784891 
L 574.731253 201.459222 
L 574.931361 172.045892 
L 575.131469 194.362401 
L 575.531684 194.362401 
L 575.731791 174.965238 
L 575.931899 168.821174 
L 576.532222 168.821174 
L 576.932437 217.558379 
L 577.132544 217.558379 
L 577.332652 228.185288 
L 577.732867 219.976917 
L 577.932975 249.390247 
L 578.133082 249.390247 
L 578.33319 272.793877 
L 578.533297 243.380547 
L 578.733405 238.348034 
L 578.933513 214.944403 
L 579.13362 211.304382 
L 579.333728 214.944403 
L 579.533835 214.944403 
L 579.733943 229.638854 
L 579.934051 234.891234 
L 580.134158 254.190679 
L 580.334266 254.190679 
L 580.534373 236.112718 
L 580.934588 249.878841 
L 581.334804 239.141998 
L 581.534911 257.305462 
L 581.735019 286.633289 
L 581.935126 257.305462 
L 582.135234 275.383423 
L 582.335342 275.383423 
L 582.535449 270.131043 
L 582.735557 299.544373 
L 582.935664 297.028116 
L 583.135772 270.314265 
L 583.33588 266.026857 
L 583.535987 266.026857 
L 583.736095 246.18996 
L 583.936202 257.659693 
L 584.336417 229.15026 
L 584.736633 192.469101 
L 584.93674 168.063854 
L 585.136848 168.063854 
L 585.336955 157.436945 
L 585.537063 163.165704 
L 585.737171 158.609569 
L 585.937278 158.609569 
L 586.137386 185.323421 
L 586.337493 173.560531 
L 586.537601 178.593045 
L 586.737708 153.064033 
L 586.937816 162.274021 
L 587.137924 159.757764 
L 587.338031 159.757764 
L 587.538139 150.547776 
L 587.738246 150.291265 
L 588.138462 150.291265 
L 588.338569 162.054154 
L 588.538677 162.054154 
L 588.738784 158.401917 
L 588.938892 167.611905 
L 589.138999 160.026491 
L 589.339107 144.464787 
L 589.739322 144.464787 
L 589.93943 149.130855 
L 590.139537 149.130855 
L 590.339645 159.757764 
L 590.539753 189.171095 
L 590.939968 180.278692 
L 591.140075 150.865362 
L 591.340183 146.577954 
L 591.940506 146.577954 
L 592.140613 151.134088 
L 592.340721 158.719503 
L 592.540828 158.719503 
L 592.941044 204.488502 
L 593.141151 199.162832 
L 593.541366 199.162832 
L 593.741474 194.496764 
L 593.941581 198.136786 
L 594.141689 227.464613 
L 594.341797 227.464613 
L 594.742012 213.69849 
L 594.942119 208.690406 
L 595.342335 269.740168 
L 595.542442 244.211156 
L 595.942657 244.211156 
L 596.142765 270.668496 
L 596.342873 278.25391 
L 596.54298 251.79657 
L 596.743088 254.312827 
L 596.943195 254.312827 
L 597.143303 232.765852 
L 597.543518 241.438388 
L 597.743626 214.724536 
L 597.943733 236.515808 
L 598.143841 237.676217 
L 598.343948 211.218878 
L 598.544056 211.218878 
L 598.744164 181.805547 
L 598.944271 188.316056 
L 599.344486 223.531435 
L 599.744701 181.854407 
L 600.545132 216.32468 
L 600.945347 173.621606 
L 601.145455 199.236121 
L 601.345562 199.236121 
L 601.745777 151.231807 
L 601.945885 159.024874 
L 602.145992 159.024874 
L 602.3461 154.737466 
L 603.14653 154.737466 
L 603.346638 143.06008 
L 603.546746 147.469637 
L 603.746853 172.998649 
L 603.946961 158.304198 
L 604.347176 180.571849 
L 604.547283 154.957333 
L 604.947499 154.957333 
L 605.147606 171.960388 
L 605.347714 166.634718 
L 605.547821 157.925538 
L 605.747929 157.925538 
L 605.948037 162.591607 
L 606.148144 162.591607 
L 606.348252 192.004937 
L 606.748467 192.004937 
L 606.948575 180.730641 
L 607.548897 180.730641 
L 607.749005 177.860155 
L 607.949112 177.860155 
L 608.14922 187.070143 
L 608.349328 187.070143 
L 608.549435 182.404074 
L 608.94965 182.404074 
L 609.149758 177.84794 
L 609.549973 165.804109 
L 609.750081 165.804109 
L 609.950188 151.109659 
L 610.350403 160.331862 
L 610.550511 160.331862 
L 610.750619 149.704952 
L 611.350941 149.704952 
L 611.551049 159.72112 
L 611.751157 183.12475 
L 612.151372 183.12475 
L 612.351479 187.412158 
L 612.751694 187.412158 
L 612.951802 173.743754 
L 613.552125 173.755969 
L 613.752232 200.567539 
L 613.95234 200.567539 
L 614.152448 207.297915 
L 614.952878 207.297915 
L 615.152985 203.010506 
L 615.353093 222.309951 
L 615.553201 192.89662 
L 615.753308 192.89662 
L 615.953416 195.412877 
L 616.153523 190.404793 
L 616.753846 190.404793 
L 616.953954 171.105349 
L 617.154061 171.105349 
L 617.554276 179.777884 
L 617.754384 157.498019 
L 618.354707 157.583523 
L 618.554814 155.067266 
L 619.155137 155.067266 
L 619.355245 161.467842 
L 619.555352 156.911707 
L 619.75546 141.618729 
L 619.955568 141.618729 
L 620.155675 155.323778 
L 620.55589 155.323778 
L 620.755998 159.879913 
L 621.156213 159.879913 
L 621.356321 155.213844 
L 621.556428 155.213844 
L 621.756536 138.015352 
L 622.156751 138.015352 
L 622.556966 165.889613 
L 622.757074 147.726149 
L 622.957181 147.726149 
L 623.157289 152.734232 
L 623.957719 152.734232 
L 624.157827 143.524244 
L 624.357934 143.524244 
L 624.558042 162.225162 
L 624.75815 162.225162 
L 624.958257 161.101396 
L 625.158365 161.101396 
L 625.358472 164.741418 
L 625.55858 158.304198 
L 625.758687 162.970267 
L 625.958795 172.180255 
L 626.158903 167.62412 
L 626.35901 167.62412 
L 626.559118 182.31857 
L 626.959333 161.345693 
L 627.159441 161.345693 
L 627.359548 157.058285 
L 627.759763 157.058285 
L 627.959871 163.910809 
L 628.360086 163.910809 
L 628.560194 157.656812 
L 628.760301 147.872727 
L 628.960409 147.872727 
L 629.160516 157.656812 
L 630.161054 157.656812 
L 630.361162 161.602205 
L 630.961485 161.602205 
L 631.161592 135.9144 
L 634.363314 135.9144 
L 634.563421 149.582804 
L 634.763529 149.582804 
L 634.963636 126.179174 
L 637.565035 126.179174 
L 637.765143 127.021998 
L 638.565573 127.021998 
L 638.76568 124.811112 
L 638.965788 124.811112 
L 639.165896 129.013016 
L 640.566649 129.09852 
L 640.766756 125.275276 
L 641.367079 125.275276 
L 641.567187 107.282819 
L 642.567725 107.282819 
L 642.767832 112.290903 
L 642.96794 88.887273 
L 652.372996 88.887273 
L 652.573104 105.914757 
L 661.778053 105.914757 
L 661.97816 101.627349 
L 676.586014 101.541845 
L 676.786122 106.09798 
L 694.995912 106.09798 
L 695.196019 101.541845 
L 701.79957 101.541845 
L 701.999677 97.584238 
L 739.419796 97.681956 
L 739.619903 92.405146 
L 826.666703 92.405146 
L 826.86681 92.13642 
L 871.690909 92.13642 
L 871.690909 92.13642 
" style="fill:none;stroke:#8dd3c7;stroke-linecap:square;stroke-width:1.5;"/>
   </g>
   <g id="line2d_17">
    <path clip-path="url(#p86c6277c39)" d="M 161.509091 164.106247 
L 306.787197 164.106247 
L 306.987305 160.47844 
L 315.391824 160.47844 
L 315.591931 137.184743 
L 315.792039 127.974755 
L 634.763529 127.974755 
L 634.963636 126.179174 
L 638.565573 126.179174 
L 638.76568 124.811112 
L 641.367079 124.811112 
L 641.567187 107.282819 
L 642.767832 107.282819 
L 642.96794 88.887273 
L 871.690909 88.887273 
L 871.690909 88.887273 
" style="fill:none;stroke:#feffb3;stroke-linecap:square;stroke-width:1.5;"/>
   </g>
   <g id="line2d_18">
    <path clip-path="url(#p86c6277c39)" d="M 161.509091 260.144191 
L 163.310059 260.144191 
L 163.510167 273.232227 
L 165.311135 273.232227 
L 165.511243 285.555849 
L 167.312211 285.555849 
L 167.512318 297.159701 
L 169.313287 297.159701 
L 169.513394 308.085823 
L 171.314363 308.085823 
L 171.51447 318.373797 
L 173.315438 318.373797 
L 173.515546 328.060896 
L 175.316514 328.060896 
L 175.516622 337.182213 
L 177.31759 337.182213 
L 177.517698 345.770794 
L 179.318666 345.770794 
L 179.518774 353.857753 
L 181.319742 353.857753 
L 181.519849 361.472388 
L 183.320818 361.472388 
L 183.520925 368.642285 
L 185.321893 368.642285 
L 185.522001 375.39342 
L 187.322969 375.39342 
L 187.523077 381.750251 
L 189.324045 381.750251 
L 189.524153 387.735806 
L 191.325121 387.735806 
L 191.525229 393.371772 
L 193.326197 393.371772 
L 193.526304 398.678565 
L 195.327273 398.678565 
L 195.52738 403.675411 
L 197.328349 403.675411 
L 197.528456 408.380414 
L 199.329424 408.380414 
L 199.529532 412.810617 
L 201.3305 412.810617 
L 201.530608 416.982072 
L 203.331576 416.982072 
L 203.531684 420.90989 
L 205.332652 420.90989 
L 205.53276 424.608302 
L 207.333728 424.608302 
L 207.533835 428.090705 
L 209.334804 428.090705 
L 209.534911 431.369716 
L 211.33588 431.369716 
L 211.535987 434.457215 
L 213.336955 434.457215 
L 213.537063 437.364386 
L 215.338031 437.364386 
L 215.538139 440.101762 
L 217.339107 440.101762 
L 217.539215 442.67926 
L 219.340183 442.67926 
L 219.54029 445.106217 
L 221.341259 445.106217 
L 221.541366 447.391426 
L 223.342335 447.391426 
L 223.542442 449.543166 
L 225.34341 449.543166 
L 225.543518 451.569233 
L 227.344486 451.569233 
L 227.544594 453.476965 
L 229.345562 453.476965 
L 229.54567 455.273276 
L 231.346638 455.273276 
L 231.546746 456.964671 
L 233.347714 456.964671 
L 233.547821 458.55728 
L 235.34879 458.55728 
L 235.548897 460.056871 
L 237.349866 460.056871 
L 237.549973 461.468878 
L 239.350941 461.468878 
L 239.551049 462.798415 
L 241.352017 462.798415 
L 241.552125 464.0503 
L 243.353093 464.0503 
L 243.553201 465.229068 
L 245.354169 465.229068 
L 245.554276 466.338989 
L 247.355245 466.338989 
L 247.555352 467.384084 
L 249.356321 467.384084 
L 249.556428 468.36814 
L 251.357396 468.36814 
L 251.557504 469.294722 
L 253.358472 469.294722 
L 253.55858 470.167186 
L 255.359548 470.167186 
L 255.559656 470.988693 
L 257.360624 470.988693 
L 257.560732 471.762219 
L 259.3617 471.762219 
L 259.561807 472.490567 
L 261.362776 472.490567 
L 261.562883 473.176376 
L 263.363852 473.176376 
L 263.563959 473.822129 
L 265.364927 473.822129 
L 265.565035 474.430167 
L 267.366003 474.430167 
L 267.566111 475.002692 
L 269.367079 475.002692 
L 269.567187 475.541778 
L 271.368155 475.541778 
L 271.568263 476.049379 
L 273.369231 476.049379 
L 273.569338 476.527332 
L 275.370307 476.527332 
L 275.570414 476.977371 
L 277.371382 476.977371 
L 277.57149 477.401125 
L 279.372458 477.401125 
L 279.572566 477.800129 
L 281.373534 477.800129 
L 281.573642 478.175829 
L 283.37461 478.175829 
L 283.574718 478.529586 
L 285.375686 478.529586 
L 285.575793 478.862682 
L 287.376762 478.862682 
L 287.576869 479.176323 
L 289.377838 479.176323 
L 289.577945 479.471645 
L 291.378913 479.471645 
L 291.579021 479.74972 
L 293.379989 479.74972 
L 293.580097 480.011553 
L 295.381065 480.011553 
L 295.581173 480.258093 
L 297.382141 480.258093 
L 297.582249 480.490234 
L 299.383217 480.490234 
L 299.583324 480.708817 
L 301.384293 480.708817 
L 301.5844 480.914633 
L 303.385368 480.914633 
L 303.585476 481.108429 
L 305.386444 481.108429 
L 305.586552 481.290905 
L 307.38752 481.290905 
L 307.587628 481.462724 
L 309.388596 481.462724 
L 309.588704 481.624508 
L 311.389672 481.624508 
L 311.589779 481.776843 
L 313.390748 481.776843 
L 313.590855 481.92028 
L 315.391824 481.92028 
L 315.591931 482.05534 
L 317.392899 482.05534 
L 317.793115 482.182512 
L 319.393975 482.182512 
L 319.79419 482.302256 
L 321.395051 482.302256 
L 321.795266 482.415007 
L 325.397203 482.521172 
L 325.797418 482.621136 
L 329.399354 482.715262 
L 329.79957 482.803891 
L 333.401506 482.887343 
L 333.801721 482.965921 
L 337.403658 483.03991 
L 337.803873 483.109577 
L 341.40581 483.175175 
L 341.806025 483.236942 
L 345.407961 483.295102 
L 346.008284 483.349864 
L 351.411189 483.449981 
L 352.011512 483.495698 
L 357.414416 483.579277 
L 358.014739 483.617442 
L 365.41872 483.719077 
L 366.21915 483.749077 
L 375.424099 483.852549 
L 376.624744 483.874754 
L 389.43163 483.983248 
L 391.032491 483.997819 
L 411.443464 484.10404 
L 414.645186 484.118633 
L 535.510167 484.229644 
L 662.178268 484.232662 
L 871.690909 484.232727 
L 871.690909 484.232727 
" style="fill:none;stroke:#bfbbd9;stroke-linecap:square;stroke-width:1.5;"/>
   </g>
   <g id="patch_3">
    <path d="M 126 504 
L 126 69.12 
" style="fill:none;stroke:#ffffff;stroke-linecap:square;stroke-linejoin:miter;stroke-width:0.8;"/>
   </g>
   <g id="patch_4">
    <path d="M 907.2 504 
L 907.2 69.12 
" style="fill:none;stroke:#ffffff;stroke-linecap:square;stroke-linejoin:miter;stroke-width:0.8;"/>
   </g>
   <g id="patch_5">
    <path d="M 126 504 
L 907.2 504 
" style="fill:none;stroke:#ffffff;stroke-linecap:square;stroke-linejoin:miter;stroke-width:0.8;"/>
   </g>
   <g id="patch_6">
    <path d="M 126 69.12 
L 907.2 69.12 
" style="fill:none;stroke:#ffffff;stroke-linecap:square;stroke-linejoin:miter;stroke-width:0.8;"/>
   </g>
   <g id="text_17">
    <!-- instance 8 with error 0.008516113221418986 -->
    <g style="fill:#ffffff;" transform="translate(378.046875 63.12)scale(0.12 -0.12)">
     <defs>
      <path d="M 2834 3397 
L 2834 2853 
Q 2591 2978 2328 3040 
Q 2066 3103 1784 3103 
Q 1356 3103 1142 2972 
Q 928 2841 928 2578 
Q 928 2378 1081 2264 
Q 1234 2150 1697 2047 
L 1894 2003 
Q 2506 1872 2764 1633 
Q 3022 1394 3022 966 
Q 3022 478 2636 193 
Q 2250 -91 1575 -91 
Q 1294 -91 989 -36 
Q 684 19 347 128 
L 347 722 
Q 666 556 975 473 
Q 1284 391 1588 391 
Q 1994 391 2212 530 
Q 2431 669 2431 922 
Q 2431 1156 2273 1281 
Q 2116 1406 1581 1522 
L 1381 1569 
Q 847 1681 609 1914 
Q 372 2147 372 2553 
Q 372 3047 722 3315 
Q 1072 3584 1716 3584 
Q 2034 3584 2315 3537 
Q 2597 3491 2834 3397 
z
" id="DejaVuSans-73" transform="scale(0.015625)"/>
      <path d="M 3122 3366 
L 3122 2828 
Q 2878 2963 2633 3030 
Q 2388 3097 2138 3097 
Q 1578 3097 1268 2742 
Q 959 2388 959 1747 
Q 959 1106 1268 751 
Q 1578 397 2138 397 
Q 2388 397 2633 464 
Q 2878 531 3122 666 
L 3122 134 
Q 2881 22 2623 -34 
Q 2366 -91 2075 -91 
Q 1284 -91 818 406 
Q 353 903 353 1747 
Q 353 2603 823 3093 
Q 1294 3584 2113 3584 
Q 2378 3584 2631 3529 
Q 2884 3475 3122 3366 
z
" id="DejaVuSans-63" transform="scale(0.015625)"/>
      <path id="DejaVuSans-20" transform="scale(0.015625)"/>
      <path d="M 2034 2216 
Q 1584 2216 1326 1975 
Q 1069 1734 1069 1313 
Q 1069 891 1326 650 
Q 1584 409 2034 409 
Q 2484 409 2743 651 
Q 3003 894 3003 1313 
Q 3003 1734 2745 1975 
Q 2488 2216 2034 2216 
z
M 1403 2484 
Q 997 2584 770 2862 
Q 544 3141 544 3541 
Q 544 4100 942 4425 
Q 1341 4750 2034 4750 
Q 2731 4750 3128 4425 
Q 3525 4100 3525 3541 
Q 3525 3141 3298 2862 
Q 3072 2584 2669 2484 
Q 3125 2378 3379 2068 
Q 3634 1759 3634 1313 
Q 3634 634 3220 271 
Q 2806 -91 2034 -91 
Q 1263 -91 848 271 
Q 434 634 434 1313 
Q 434 1759 690 2068 
Q 947 2378 1403 2484 
z
M 1172 3481 
Q 1172 3119 1398 2916 
Q 1625 2713 2034 2713 
Q 2441 2713 2670 2916 
Q 2900 3119 2900 3481 
Q 2900 3844 2670 4047 
Q 2441 4250 2034 4250 
Q 1625 4250 1398 4047 
Q 1172 3844 1172 3481 
z
" id="DejaVuSans-38" transform="scale(0.015625)"/>
      <path d="M 269 3500 
L 844 3500 
L 1563 769 
L 2278 3500 
L 2956 3500 
L 3675 769 
L 4391 3500 
L 4966 3500 
L 4050 0 
L 3372 0 
L 2619 2869 
L 1863 0 
L 1184 0 
L 269 3500 
z
" id="DejaVuSans-77" transform="scale(0.015625)"/>
      <path d="M 3513 2113 
L 3513 0 
L 2938 0 
L 2938 2094 
Q 2938 2591 2744 2837 
Q 2550 3084 2163 3084 
Q 1697 3084 1428 2787 
Q 1159 2491 1159 1978 
L 1159 0 
L 581 0 
L 581 4863 
L 1159 4863 
L 1159 2956 
Q 1366 3272 1645 3428 
Q 1925 3584 2291 3584 
Q 2894 3584 3203 3211 
Q 3513 2838 3513 2113 
z
" id="DejaVuSans-68" transform="scale(0.015625)"/>
      <path d="M 684 794 
L 1344 794 
L 1344 0 
L 684 0 
L 684 794 
z
" id="DejaVuSans-2e" transform="scale(0.015625)"/>
      <path d="M 2113 2584 
Q 1688 2584 1439 2293 
Q 1191 2003 1191 1497 
Q 1191 994 1439 701 
Q 1688 409 2113 409 
Q 2538 409 2786 701 
Q 3034 994 3034 1497 
Q 3034 2003 2786 2293 
Q 2538 2584 2113 2584 
z
M 3366 4563 
L 3366 3988 
Q 3128 4100 2886 4159 
Q 2644 4219 2406 4219 
Q 1781 4219 1451 3797 
Q 1122 3375 1075 2522 
Q 1259 2794 1537 2939 
Q 1816 3084 2150 3084 
Q 2853 3084 3261 2657 
Q 3669 2231 3669 1497 
Q 3669 778 3244 343 
Q 2819 -91 2113 -91 
Q 1303 -91 875 529 
Q 447 1150 447 2328 
Q 447 3434 972 4092 
Q 1497 4750 2381 4750 
Q 2619 4750 2861 4703 
Q 3103 4656 3366 4563 
z
" id="DejaVuSans-36" transform="scale(0.015625)"/>
      <path d="M 2419 4116 
L 825 1625 
L 2419 1625 
L 2419 4116 
z
M 2253 4666 
L 3047 4666 
L 3047 1625 
L 3713 1625 
L 3713 1100 
L 3047 1100 
L 3047 0 
L 2419 0 
L 2419 1100 
L 313 1100 
L 313 1709 
L 2253 4666 
z
" id="DejaVuSans-34" transform="scale(0.015625)"/>
      <path d="M 703 97 
L 703 672 
Q 941 559 1184 500 
Q 1428 441 1663 441 
Q 2288 441 2617 861 
Q 2947 1281 2994 2138 
Q 2813 1869 2534 1725 
Q 2256 1581 1919 1581 
Q 1219 1581 811 2004 
Q 403 2428 403 3163 
Q 403 3881 828 4315 
Q 1253 4750 1959 4750 
Q 2769 4750 3195 4129 
Q 3622 3509 3622 2328 
Q 3622 1225 3098 567 
Q 2575 -91 1691 -91 
Q 1453 -91 1209 -44 
Q 966 3 703 97 
z
M 1959 2075 
Q 2384 2075 2632 2365 
Q 2881 2656 2881 3163 
Q 2881 3666 2632 3958 
Q 2384 4250 1959 4250 
Q 1534 4250 1286 3958 
Q 1038 3666 1038 3163 
Q 1038 2656 1286 2365 
Q 1534 2075 1959 2075 
z
" id="DejaVuSans-39" transform="scale(0.015625)"/>
     </defs>
     <use xlink:href="#DejaVuSans-69"/>
     <use x="27.783203" xlink:href="#DejaVuSans-6e"/>
     <use x="91.162109" xlink:href="#DejaVuSans-73"/>
     <use x="143.261719" xlink:href="#DejaVuSans-74"/>
     <use x="182.470703" xlink:href="#DejaVuSans-61"/>
     <use x="243.75" xlink:href="#DejaVuSans-6e"/>
     <use x="307.128906" xlink:href="#DejaVuSans-63"/>
     <use x="362.109375" xlink:href="#DejaVuSans-65"/>
     <use x="423.632812" xlink:href="#DejaVuSans-20"/>
     <use x="455.419922" xlink:href="#DejaVuSans-38"/>
     <use x="519.042969" xlink:href="#DejaVuSans-20"/>
     <use x="550.830078" xlink:href="#DejaVuSans-77"/>
     <use x="632.617188" xlink:href="#DejaVuSans-69"/>
     <use x="660.400391" xlink:href="#DejaVuSans-74"/>
     <use x="699.609375" xlink:href="#DejaVuSans-68"/>
     <use x="762.988281" xlink:href="#DejaVuSans-20"/>
     <use x="794.775391" xlink:href="#DejaVuSans-65"/>
     <use x="856.298828" xlink:href="#DejaVuSans-72"/>
     <use x="895.662109" xlink:href="#DejaVuSans-72"/>
     <use x="934.525391" xlink:href="#DejaVuSans-6f"/>
     <use x="995.707031" xlink:href="#DejaVuSans-72"/>
     <use x="1036.820312" xlink:href="#DejaVuSans-20"/>
     <use x="1068.607422" xlink:href="#DejaVuSans-30"/>
     <use x="1132.230469" xlink:href="#DejaVuSans-2e"/>
     <use x="1164.017578" xlink:href="#DejaVuSans-30"/>
     <use x="1227.640625" xlink:href="#DejaVuSans-30"/>
     <use x="1291.263672" xlink:href="#DejaVuSans-38"/>
     <use x="1354.886719" xlink:href="#DejaVuSans-35"/>
     <use x="1418.509766" xlink:href="#DejaVuSans-31"/>
     <use x="1482.132812" xlink:href="#DejaVuSans-36"/>
     <use x="1545.755859" xlink:href="#DejaVuSans-31"/>
     <use x="1609.378906" xlink:href="#DejaVuSans-31"/>
     <use x="1673.001953" xlink:href="#DejaVuSans-33"/>
     <use x="1736.625" xlink:href="#DejaVuSans-32"/>
     <use x="1800.248047" xlink:href="#DejaVuSans-32"/>
     <use x="1863.871094" xlink:href="#DejaVuSans-31"/>
     <use x="1927.494141" xlink:href="#DejaVuSans-34"/>
     <use x="1991.117188" xlink:href="#DejaVuSans-31"/>
     <use x="2054.740234" xlink:href="#DejaVuSans-38"/>
     <use x="2118.363281" xlink:href="#DejaVuSans-39"/>
     <use x="2181.986328" xlink:href="#DejaVuSans-38"/>
     <use x="2245.609375" xlink:href="#DejaVuSans-36"/>
    </g>
   </g>
   <g id="legend_1">
    <g id="patch_7">
     <path d="M 805.348438 499 
L 900.2 499 
Q 902.2 499 902.2 497 
L 902.2 453.965625 
Q 902.2 451.965625 900.2 451.965625 
L 805.348438 451.965625 
Q 803.348438 451.965625 803.348438 453.965625 
L 803.348438 497 
Q 803.348438 499 805.348438 499 
z
" style="opacity:0.8;stroke:#cccccc;stroke-linejoin:miter;"/>
    </g>
    <g id="line2d_19">
     <path d="M 807.348438 460.064062 
L 827.348438 460.064062 
" style="fill:none;stroke:#8dd3c7;stroke-linecap:square;stroke-width:1.5;"/>
    </g>
    <g id="line2d_20"/>
    <g id="text_18">
     <!-- cost -->
     <g style="fill:#ffffff;" transform="translate(835.348438 463.564062)scale(0.1 -0.1)">
      <use xlink:href="#DejaVuSans-63"/>
      <use x="54.980469" xlink:href="#DejaVuSans-6f"/>
      <use x="116.162109" xlink:href="#DejaVuSans-73"/>
      <use x="168.261719" xlink:href="#DejaVuSans-74"/>
     </g>
    </g>
    <g id="line2d_21">
     <path d="M 807.348438 474.742188 
L 827.348438 474.742188 
" style="fill:none;stroke:#feffb3;stroke-linecap:square;stroke-width:1.5;"/>
    </g>
    <g id="line2d_22"/>
    <g id="text_19">
     <!-- best cost -->
     <g style="fill:#ffffff;" transform="translate(835.348438 478.242188)scale(0.1 -0.1)">
      <defs>
       <path d="M 3116 1747 
Q 3116 2381 2855 2742 
Q 2594 3103 2138 3103 
Q 1681 3103 1420 2742 
Q 1159 2381 1159 1747 
Q 1159 1113 1420 752 
Q 1681 391 2138 391 
Q 2594 391 2855 752 
Q 3116 1113 3116 1747 
z
M 1159 2969 
Q 1341 3281 1617 3432 
Q 1894 3584 2278 3584 
Q 2916 3584 3314 3078 
Q 3713 2572 3713 1747 
Q 3713 922 3314 415 
Q 2916 -91 2278 -91 
Q 1894 -91 1617 61 
Q 1341 213 1159 525 
L 1159 0 
L 581 0 
L 581 4863 
L 1159 4863 
L 1159 2969 
z
" id="DejaVuSans-62" transform="scale(0.015625)"/>
      </defs>
      <use xlink:href="#DejaVuSans-62"/>
      <use x="63.476562" xlink:href="#DejaVuSans-65"/>
      <use x="125" xlink:href="#DejaVuSans-73"/>
      <use x="177.099609" xlink:href="#DejaVuSans-74"/>
      <use x="216.308594" xlink:href="#DejaVuSans-20"/>
      <use x="248.095703" xlink:href="#DejaVuSans-63"/>
      <use x="303.076172" xlink:href="#DejaVuSans-6f"/>
      <use x="364.257812" xlink:href="#DejaVuSans-73"/>
      <use x="416.357422" xlink:href="#DejaVuSans-74"/>
     </g>
    </g>
    <g id="line2d_23">
     <path d="M 807.348438 489.420313 
L 827.348438 489.420313 
" style="fill:none;stroke:#bfbbd9;stroke-linecap:square;stroke-width:1.5;"/>
    </g>
    <g id="line2d_24"/>
    <g id="text_20">
     <!-- temperature -->
     <g style="fill:#ffffff;" transform="translate(835.348438 492.920313)scale(0.1 -0.1)">
      <defs>
       <path d="M 3328 2828 
Q 3544 3216 3844 3400 
Q 4144 3584 4550 3584 
Q 5097 3584 5394 3201 
Q 5691 2819 5691 2113 
L 5691 0 
L 5113 0 
L 5113 2094 
Q 5113 2597 4934 2840 
Q 4756 3084 4391 3084 
Q 3944 3084 3684 2787 
Q 3425 2491 3425 1978 
L 3425 0 
L 2847 0 
L 2847 2094 
Q 2847 2600 2669 2842 
Q 2491 3084 2119 3084 
Q 1678 3084 1418 2786 
Q 1159 2488 1159 1978 
L 1159 0 
L 581 0 
L 581 3500 
L 1159 3500 
L 1159 2956 
Q 1356 3278 1631 3431 
Q 1906 3584 2284 3584 
Q 2666 3584 2933 3390 
Q 3200 3197 3328 2828 
z
" id="DejaVuSans-6d" transform="scale(0.015625)"/>
       <path d="M 1159 525 
L 1159 -1331 
L 581 -1331 
L 581 3500 
L 1159 3500 
L 1159 2969 
Q 1341 3281 1617 3432 
Q 1894 3584 2278 3584 
Q 2916 3584 3314 3078 
Q 3713 2572 3713 1747 
Q 3713 922 3314 415 
Q 2916 -91 2278 -91 
Q 1894 -91 1617 61 
Q 1341 213 1159 525 
z
M 3116 1747 
Q 3116 2381 2855 2742 
Q 2594 3103 2138 3103 
Q 1681 3103 1420 2742 
Q 1159 2381 1159 1747 
Q 1159 1113 1420 752 
Q 1681 391 2138 391 
Q 2594 391 2855 752 
Q 3116 1113 3116 1747 
z
" id="DejaVuSans-70" transform="scale(0.015625)"/>
       <path d="M 544 1381 
L 544 3500 
L 1119 3500 
L 1119 1403 
Q 1119 906 1312 657 
Q 1506 409 1894 409 
Q 2359 409 2629 706 
Q 2900 1003 2900 1516 
L 2900 3500 
L 3475 3500 
L 3475 0 
L 2900 0 
L 2900 538 
Q 2691 219 2414 64 
Q 2138 -91 1772 -91 
Q 1169 -91 856 284 
Q 544 659 544 1381 
z
M 1991 3584 
L 1991 3584 
z
" id="DejaVuSans-75" transform="scale(0.015625)"/>
      </defs>
      <use xlink:href="#DejaVuSans-74"/>
      <use x="39.208984" xlink:href="#DejaVuSans-65"/>
      <use x="100.732422" xlink:href="#DejaVuSans-6d"/>
      <use x="198.144531" xlink:href="#DejaVuSans-70"/>
      <use x="261.621094" xlink:href="#DejaVuSans-65"/>
      <use x="323.144531" xlink:href="#DejaVuSans-72"/>
      <use x="364.257812" xlink:href="#DejaVuSans-61"/>
      <use x="425.537109" xlink:href="#DejaVuSans-74"/>
      <use x="464.746094" xlink:href="#DejaVuSans-75"/>
      <use x="528.125" xlink:href="#DejaVuSans-72"/>
      <use x="566.988281" xlink:href="#DejaVuSans-65"/>
     </g>
    </g>
   </g>
  </g>
 </g>
 <defs>
  <clipPath id="p86c6277c39">
   <rect height="434.88" width="781.2" x="126" y="69.12"/>
  </clipPath>
 </defs>
</svg>
