<?xml version="1.0" encoding="utf-8" standalone="no"?>
<!DOCTYPE svg PUBLIC "-//W3C//DTD SVG 1.1//EN"
  "http://www.w3.org/Graphics/SVG/1.1/DTD/svg11.dtd">
<svg height="576pt" version="1.1" viewBox="0 0 1008 576" width="1008pt" xmlns="http://www.w3.org/2000/svg" xmlns:xlink="http://www.w3.org/1999/xlink">
 <metadata>
  <rdf:RDF xmlns:cc="http://creativecommons.org/ns#" xmlns:dc="http://purl.org/dc/elements/1.1/" xmlns:rdf="http://www.w3.org/1999/02/22-rdf-syntax-ns#">
   <cc:Work>
    <dc:type rdf:resource="http://purl.org/dc/dcmitype/StillImage"/>
    <dc:date>2022-01-08T03:26:55.523031</dc:date>
    <dc:format>image/svg+xml</dc:format>
    <dc:creator>
     <cc:Agent>
      <dc:title>Matplotlib v3.4.3, https://matplotlib.org/</dc:title>
     </cc:Agent>
    </dc:creator>
   </cc:Work>
  </rdf:RDF>
 </metadata>
 <defs>
  <style type="text/css">*{stroke-linecap:butt;stroke-linejoin:round;}</style>
 </defs>
 <g id="figure_1">
  <g id="patch_1">
   <path d="M 0 576 
L 1008 576 
L 1008 0 
L 0 0 
z
"/>
  </g>
  <g id="axes_1">
   <g id="patch_2">
    <path d="M 126 504 
L 907.2 504 
L 907.2 69.12 
L 126 69.12 
z
"/>
   </g>
   <g id="matplotlib.axis_1">
    <g id="xtick_1">
     <g id="line2d_1">
      <defs>
       <path d="M 0 0 
L 0 3.5 
" id="m6ae9525019" style="stroke:#ffffff;stroke-width:0.8;"/>
      </defs>
      <g>
       <use style="fill:#ffffff;stroke:#ffffff;stroke-width:0.8;" x="161.509091" xlink:href="#m6ae9525019" y="504"/>
      </g>
     </g>
     <g id="text_1">
      <!-- 0 -->
      <g style="fill:#ffffff;" transform="translate(158.327841 518.598438)scale(0.1 -0.1)">
       <defs>
        <path d="M 2034 4250 
Q 1547 4250 1301 3770 
Q 1056 3291 1056 2328 
Q 1056 1369 1301 889 
Q 1547 409 2034 409 
Q 2525 409 2770 889 
Q 3016 1369 3016 2328 
Q 3016 3291 2770 3770 
Q 2525 4250 2034 4250 
z
M 2034 4750 
Q 2819 4750 3233 4129 
Q 3647 3509 3647 2328 
Q 3647 1150 3233 529 
Q 2819 -91 2034 -91 
Q 1250 -91 836 529 
Q 422 1150 422 2328 
Q 422 3509 836 4129 
Q 1250 4750 2034 4750 
z
" id="DejaVuSans-30" transform="scale(0.015625)"/>
       </defs>
       <use xlink:href="#DejaVuSans-30"/>
      </g>
     </g>
    </g>
    <g id="xtick_2">
     <g id="line2d_2">
      <g>
       <use style="fill:#ffffff;stroke:#ffffff;stroke-width:0.8;" x="327.4782" xlink:href="#m6ae9525019" y="504"/>
      </g>
     </g>
     <g id="text_2">
      <!-- 1000 -->
      <g style="fill:#ffffff;" transform="translate(314.7532 518.598438)scale(0.1 -0.1)">
       <defs>
        <path d="M 794 531 
L 1825 531 
L 1825 4091 
L 703 3866 
L 703 4441 
L 1819 4666 
L 2450 4666 
L 2450 531 
L 3481 531 
L 3481 0 
L 794 0 
L 794 531 
z
" id="DejaVuSans-31" transform="scale(0.015625)"/>
       </defs>
       <use xlink:href="#DejaVuSans-31"/>
       <use x="63.623047" xlink:href="#DejaVuSans-30"/>
       <use x="127.246094" xlink:href="#DejaVuSans-30"/>
       <use x="190.869141" xlink:href="#DejaVuSans-30"/>
      </g>
     </g>
    </g>
    <g id="xtick_3">
     <g id="line2d_3">
      <g>
       <use style="fill:#ffffff;stroke:#ffffff;stroke-width:0.8;" x="493.447309" xlink:href="#m6ae9525019" y="504"/>
      </g>
     </g>
     <g id="text_3">
      <!-- 2000 -->
      <g style="fill:#ffffff;" transform="translate(480.722309 518.598438)scale(0.1 -0.1)">
       <defs>
        <path d="M 1228 531 
L 3431 531 
L 3431 0 
L 469 0 
L 469 531 
Q 828 903 1448 1529 
Q 2069 2156 2228 2338 
Q 2531 2678 2651 2914 
Q 2772 3150 2772 3378 
Q 2772 3750 2511 3984 
Q 2250 4219 1831 4219 
Q 1534 4219 1204 4116 
Q 875 4013 500 3803 
L 500 4441 
Q 881 4594 1212 4672 
Q 1544 4750 1819 4750 
Q 2544 4750 2975 4387 
Q 3406 4025 3406 3419 
Q 3406 3131 3298 2873 
Q 3191 2616 2906 2266 
Q 2828 2175 2409 1742 
Q 1991 1309 1228 531 
z
" id="DejaVuSans-32" transform="scale(0.015625)"/>
       </defs>
       <use xlink:href="#DejaVuSans-32"/>
       <use x="63.623047" xlink:href="#DejaVuSans-30"/>
       <use x="127.246094" xlink:href="#DejaVuSans-30"/>
       <use x="190.869141" xlink:href="#DejaVuSans-30"/>
      </g>
     </g>
    </g>
    <g id="xtick_4">
     <g id="line2d_4">
      <g>
       <use style="fill:#ffffff;stroke:#ffffff;stroke-width:0.8;" x="659.416418" xlink:href="#m6ae9525019" y="504"/>
      </g>
     </g>
     <g id="text_4">
      <!-- 3000 -->
      <g style="fill:#ffffff;" transform="translate(646.691418 518.598438)scale(0.1 -0.1)">
       <defs>
        <path d="M 2597 2516 
Q 3050 2419 3304 2112 
Q 3559 1806 3559 1356 
Q 3559 666 3084 287 
Q 2609 -91 1734 -91 
Q 1441 -91 1130 -33 
Q 819 25 488 141 
L 488 750 
Q 750 597 1062 519 
Q 1375 441 1716 441 
Q 2309 441 2620 675 
Q 2931 909 2931 1356 
Q 2931 1769 2642 2001 
Q 2353 2234 1838 2234 
L 1294 2234 
L 1294 2753 
L 1863 2753 
Q 2328 2753 2575 2939 
Q 2822 3125 2822 3475 
Q 2822 3834 2567 4026 
Q 2313 4219 1838 4219 
Q 1578 4219 1281 4162 
Q 984 4106 628 3988 
L 628 4550 
Q 988 4650 1302 4700 
Q 1616 4750 1894 4750 
Q 2613 4750 3031 4423 
Q 3450 4097 3450 3541 
Q 3450 3153 3228 2886 
Q 3006 2619 2597 2516 
z
" id="DejaVuSans-33" transform="scale(0.015625)"/>
       </defs>
       <use xlink:href="#DejaVuSans-33"/>
       <use x="63.623047" xlink:href="#DejaVuSans-30"/>
       <use x="127.246094" xlink:href="#DejaVuSans-30"/>
       <use x="190.869141" xlink:href="#DejaVuSans-30"/>
      </g>
     </g>
    </g>
    <g id="xtick_5">
     <g id="line2d_5">
      <g>
       <use style="fill:#ffffff;stroke:#ffffff;stroke-width:0.8;" x="825.385528" xlink:href="#m6ae9525019" y="504"/>
      </g>
     </g>
     <g id="text_5">
      <!-- 4000 -->
      <g style="fill:#ffffff;" transform="translate(812.660528 518.598438)scale(0.1 -0.1)">
       <defs>
        <path d="M 2419 4116 
L 825 1625 
L 2419 1625 
L 2419 4116 
z
M 2253 4666 
L 3047 4666 
L 3047 1625 
L 3713 1625 
L 3713 1100 
L 3047 1100 
L 3047 0 
L 2419 0 
L 2419 1100 
L 313 1100 
L 313 1709 
L 2253 4666 
z
" id="DejaVuSans-34" transform="scale(0.015625)"/>
       </defs>
       <use xlink:href="#DejaVuSans-34"/>
       <use x="63.623047" xlink:href="#DejaVuSans-30"/>
       <use x="127.246094" xlink:href="#DejaVuSans-30"/>
       <use x="190.869141" xlink:href="#DejaVuSans-30"/>
      </g>
     </g>
    </g>
    <g id="text_6">
     <!-- iteration -->
     <g style="fill:#ffffff;" transform="translate(495.477344 532.276562)scale(0.1 -0.1)">
      <defs>
       <path d="M 603 3500 
L 1178 3500 
L 1178 0 
L 603 0 
L 603 3500 
z
M 603 4863 
L 1178 4863 
L 1178 4134 
L 603 4134 
L 603 4863 
z
" id="DejaVuSans-69" transform="scale(0.015625)"/>
       <path d="M 1172 4494 
L 1172 3500 
L 2356 3500 
L 2356 3053 
L 1172 3053 
L 1172 1153 
Q 1172 725 1289 603 
Q 1406 481 1766 481 
L 2356 481 
L 2356 0 
L 1766 0 
Q 1100 0 847 248 
Q 594 497 594 1153 
L 594 3053 
L 172 3053 
L 172 3500 
L 594 3500 
L 594 4494 
L 1172 4494 
z
" id="DejaVuSans-74" transform="scale(0.015625)"/>
       <path d="M 3597 1894 
L 3597 1613 
L 953 1613 
Q 991 1019 1311 708 
Q 1631 397 2203 397 
Q 2534 397 2845 478 
Q 3156 559 3463 722 
L 3463 178 
Q 3153 47 2828 -22 
Q 2503 -91 2169 -91 
Q 1331 -91 842 396 
Q 353 884 353 1716 
Q 353 2575 817 3079 
Q 1281 3584 2069 3584 
Q 2775 3584 3186 3129 
Q 3597 2675 3597 1894 
z
M 3022 2063 
Q 3016 2534 2758 2815 
Q 2500 3097 2075 3097 
Q 1594 3097 1305 2825 
Q 1016 2553 972 2059 
L 3022 2063 
z
" id="DejaVuSans-65" transform="scale(0.015625)"/>
       <path d="M 2631 2963 
Q 2534 3019 2420 3045 
Q 2306 3072 2169 3072 
Q 1681 3072 1420 2755 
Q 1159 2438 1159 1844 
L 1159 0 
L 581 0 
L 581 3500 
L 1159 3500 
L 1159 2956 
Q 1341 3275 1631 3429 
Q 1922 3584 2338 3584 
Q 2397 3584 2469 3576 
Q 2541 3569 2628 3553 
L 2631 2963 
z
" id="DejaVuSans-72" transform="scale(0.015625)"/>
       <path d="M 2194 1759 
Q 1497 1759 1228 1600 
Q 959 1441 959 1056 
Q 959 750 1161 570 
Q 1363 391 1709 391 
Q 2188 391 2477 730 
Q 2766 1069 2766 1631 
L 2766 1759 
L 2194 1759 
z
M 3341 1997 
L 3341 0 
L 2766 0 
L 2766 531 
Q 2569 213 2275 61 
Q 1981 -91 1556 -91 
Q 1019 -91 701 211 
Q 384 513 384 1019 
Q 384 1609 779 1909 
Q 1175 2209 1959 2209 
L 2766 2209 
L 2766 2266 
Q 2766 2663 2505 2880 
Q 2244 3097 1772 3097 
Q 1472 3097 1187 3025 
Q 903 2953 641 2809 
L 641 3341 
Q 956 3463 1253 3523 
Q 1550 3584 1831 3584 
Q 2591 3584 2966 3190 
Q 3341 2797 3341 1997 
z
" id="DejaVuSans-61" transform="scale(0.015625)"/>
       <path d="M 1959 3097 
Q 1497 3097 1228 2736 
Q 959 2375 959 1747 
Q 959 1119 1226 758 
Q 1494 397 1959 397 
Q 2419 397 2687 759 
Q 2956 1122 2956 1747 
Q 2956 2369 2687 2733 
Q 2419 3097 1959 3097 
z
M 1959 3584 
Q 2709 3584 3137 3096 
Q 3566 2609 3566 1747 
Q 3566 888 3137 398 
Q 2709 -91 1959 -91 
Q 1206 -91 779 398 
Q 353 888 353 1747 
Q 353 2609 779 3096 
Q 1206 3584 1959 3584 
z
" id="DejaVuSans-6f" transform="scale(0.015625)"/>
       <path d="M 3513 2113 
L 3513 0 
L 2938 0 
L 2938 2094 
Q 2938 2591 2744 2837 
Q 2550 3084 2163 3084 
Q 1697 3084 1428 2787 
Q 1159 2491 1159 1978 
L 1159 0 
L 581 0 
L 581 3500 
L 1159 3500 
L 1159 2956 
Q 1366 3272 1645 3428 
Q 1925 3584 2291 3584 
Q 2894 3584 3203 3211 
Q 3513 2838 3513 2113 
z
" id="DejaVuSans-6e" transform="scale(0.015625)"/>
      </defs>
      <use xlink:href="#DejaVuSans-69"/>
      <use x="27.783203" xlink:href="#DejaVuSans-74"/>
      <use x="66.992188" xlink:href="#DejaVuSans-65"/>
      <use x="128.515625" xlink:href="#DejaVuSans-72"/>
      <use x="169.628906" xlink:href="#DejaVuSans-61"/>
      <use x="230.908203" xlink:href="#DejaVuSans-74"/>
      <use x="270.117188" xlink:href="#DejaVuSans-69"/>
      <use x="297.900391" xlink:href="#DejaVuSans-6f"/>
      <use x="359.082031" xlink:href="#DejaVuSans-6e"/>
     </g>
    </g>
   </g>
   <g id="matplotlib.axis_2">
    <g id="ytick_1">
     <g id="line2d_6">
      <defs>
       <path d="M 0 0 
L -3.5 0 
" id="mb3fbe227b6" style="stroke:#ffffff;stroke-width:0.8;"/>
      </defs>
      <g>
       <use style="fill:#ffffff;stroke:#ffffff;stroke-width:0.8;" x="126" xlink:href="#mb3fbe227b6" y="484.232727"/>
      </g>
     </g>
     <g id="text_7">
      <!-- 0 -->
      <g style="fill:#ffffff;" transform="translate(112.6375 488.031946)scale(0.1 -0.1)">
       <use xlink:href="#DejaVuSans-30"/>
      </g>
     </g>
    </g>
    <g id="ytick_2">
     <g id="line2d_7">
      <g>
       <use style="fill:#ffffff;stroke:#ffffff;stroke-width:0.8;" x="126" xlink:href="#mb3fbe227b6" y="434.975862"/>
      </g>
     </g>
     <g id="text_8">
      <!-- 5000 -->
      <g style="fill:#ffffff;" transform="translate(93.55 438.775081)scale(0.1 -0.1)">
       <defs>
        <path d="M 691 4666 
L 3169 4666 
L 3169 4134 
L 1269 4134 
L 1269 2991 
Q 1406 3038 1543 3061 
Q 1681 3084 1819 3084 
Q 2600 3084 3056 2656 
Q 3513 2228 3513 1497 
Q 3513 744 3044 326 
Q 2575 -91 1722 -91 
Q 1428 -91 1123 -41 
Q 819 9 494 109 
L 494 744 
Q 775 591 1075 516 
Q 1375 441 1709 441 
Q 2250 441 2565 725 
Q 2881 1009 2881 1497 
Q 2881 1984 2565 2268 
Q 2250 2553 1709 2553 
Q 1456 2553 1204 2497 
Q 953 2441 691 2322 
L 691 4666 
z
" id="DejaVuSans-35" transform="scale(0.015625)"/>
       </defs>
       <use xlink:href="#DejaVuSans-35"/>
       <use x="63.623047" xlink:href="#DejaVuSans-30"/>
       <use x="127.246094" xlink:href="#DejaVuSans-30"/>
       <use x="190.869141" xlink:href="#DejaVuSans-30"/>
      </g>
     </g>
    </g>
    <g id="ytick_3">
     <g id="line2d_8">
      <g>
       <use style="fill:#ffffff;stroke:#ffffff;stroke-width:0.8;" x="126" xlink:href="#mb3fbe227b6" y="385.718996"/>
      </g>
     </g>
     <g id="text_9">
      <!-- 10000 -->
      <g style="fill:#ffffff;" transform="translate(87.1875 389.518215)scale(0.1 -0.1)">
       <use xlink:href="#DejaVuSans-31"/>
       <use x="63.623047" xlink:href="#DejaVuSans-30"/>
       <use x="127.246094" xlink:href="#DejaVuSans-30"/>
       <use x="190.869141" xlink:href="#DejaVuSans-30"/>
       <use x="254.492188" xlink:href="#DejaVuSans-30"/>
      </g>
     </g>
    </g>
    <g id="ytick_4">
     <g id="line2d_9">
      <g>
       <use style="fill:#ffffff;stroke:#ffffff;stroke-width:0.8;" x="126" xlink:href="#mb3fbe227b6" y="336.462131"/>
      </g>
     </g>
     <g id="text_10">
      <!-- 15000 -->
      <g style="fill:#ffffff;" transform="translate(87.1875 340.261349)scale(0.1 -0.1)">
       <use xlink:href="#DejaVuSans-31"/>
       <use x="63.623047" xlink:href="#DejaVuSans-35"/>
       <use x="127.246094" xlink:href="#DejaVuSans-30"/>
       <use x="190.869141" xlink:href="#DejaVuSans-30"/>
       <use x="254.492188" xlink:href="#DejaVuSans-30"/>
      </g>
     </g>
    </g>
    <g id="ytick_5">
     <g id="line2d_10">
      <g>
       <use style="fill:#ffffff;stroke:#ffffff;stroke-width:0.8;" x="126" xlink:href="#mb3fbe227b6" y="287.205265"/>
      </g>
     </g>
     <g id="text_11">
      <!-- 20000 -->
      <g style="fill:#ffffff;" transform="translate(87.1875 291.004484)scale(0.1 -0.1)">
       <use xlink:href="#DejaVuSans-32"/>
       <use x="63.623047" xlink:href="#DejaVuSans-30"/>
       <use x="127.246094" xlink:href="#DejaVuSans-30"/>
       <use x="190.869141" xlink:href="#DejaVuSans-30"/>
       <use x="254.492188" xlink:href="#DejaVuSans-30"/>
      </g>
     </g>
    </g>
    <g id="ytick_6">
     <g id="line2d_11">
      <g>
       <use style="fill:#ffffff;stroke:#ffffff;stroke-width:0.8;" x="126" xlink:href="#mb3fbe227b6" y="237.948399"/>
      </g>
     </g>
     <g id="text_12">
      <!-- 25000 -->
      <g style="fill:#ffffff;" transform="translate(87.1875 241.747618)scale(0.1 -0.1)">
       <use xlink:href="#DejaVuSans-32"/>
       <use x="63.623047" xlink:href="#DejaVuSans-35"/>
       <use x="127.246094" xlink:href="#DejaVuSans-30"/>
       <use x="190.869141" xlink:href="#DejaVuSans-30"/>
       <use x="254.492188" xlink:href="#DejaVuSans-30"/>
      </g>
     </g>
    </g>
    <g id="ytick_7">
     <g id="line2d_12">
      <g>
       <use style="fill:#ffffff;stroke:#ffffff;stroke-width:0.8;" x="126" xlink:href="#mb3fbe227b6" y="188.691534"/>
      </g>
     </g>
     <g id="text_13">
      <!-- 30000 -->
      <g style="fill:#ffffff;" transform="translate(87.1875 192.490753)scale(0.1 -0.1)">
       <use xlink:href="#DejaVuSans-33"/>
       <use x="63.623047" xlink:href="#DejaVuSans-30"/>
       <use x="127.246094" xlink:href="#DejaVuSans-30"/>
       <use x="190.869141" xlink:href="#DejaVuSans-30"/>
       <use x="254.492188" xlink:href="#DejaVuSans-30"/>
      </g>
     </g>
    </g>
    <g id="ytick_8">
     <g id="line2d_13">
      <g>
       <use style="fill:#ffffff;stroke:#ffffff;stroke-width:0.8;" x="126" xlink:href="#mb3fbe227b6" y="139.434668"/>
      </g>
     </g>
     <g id="text_14">
      <!-- 35000 -->
      <g style="fill:#ffffff;" transform="translate(87.1875 143.233887)scale(0.1 -0.1)">
       <use xlink:href="#DejaVuSans-33"/>
       <use x="63.623047" xlink:href="#DejaVuSans-35"/>
       <use x="127.246094" xlink:href="#DejaVuSans-30"/>
       <use x="190.869141" xlink:href="#DejaVuSans-30"/>
       <use x="254.492188" xlink:href="#DejaVuSans-30"/>
      </g>
     </g>
    </g>
    <g id="ytick_9">
     <g id="line2d_14">
      <g>
       <use style="fill:#ffffff;stroke:#ffffff;stroke-width:0.8;" x="126" xlink:href="#mb3fbe227b6" y="90.177803"/>
      </g>
     </g>
     <g id="text_15">
      <!-- 40000 -->
      <g style="fill:#ffffff;" transform="translate(87.1875 93.977021)scale(0.1 -0.1)">
       <use xlink:href="#DejaVuSans-34"/>
       <use x="63.623047" xlink:href="#DejaVuSans-30"/>
       <use x="127.246094" xlink:href="#DejaVuSans-30"/>
       <use x="190.869141" xlink:href="#DejaVuSans-30"/>
       <use x="254.492188" xlink:href="#DejaVuSans-30"/>
      </g>
     </g>
    </g>
   </g>
   <g id="line2d_15">
    <path clip-path="url(#pc7282db560)" d="M 161.509091 215.989689 
L 161.67506 228.875285 
L 161.841029 231.604115 
L 162.006998 222.1665 
L 162.338936 246.952554 
L 162.504906 228.826028 
L 162.836844 251.316713 
L 163.002813 281.363401 
L 163.168782 290.801016 
L 163.334751 267.246383 
L 163.50072 265.867191 
L 163.666689 254.725288 
L 163.832658 271.285446 
L 164.164597 277.826758 
L 164.330566 275.90574 
L 164.496535 281.363401 
L 164.662504 272.881368 
L 164.828473 295.391756 
L 164.994442 296.770948 
L 165.160411 283.284418 
L 165.32638 281.905226 
L 165.49235 278.220813 
L 165.824288 316.828344 
L 165.990257 329.881413 
L 166.156226 309.232935 
L 166.322195 325.33993 
L 166.488164 328.787911 
L 166.654133 325.33993 
L 166.986072 293.618509 
L 167.152041 295.539527 
L 167.31801 306.68143 
L 167.483979 290.121271 
L 167.649948 310.769749 
L 167.815917 301.332134 
L 167.981886 314.129068 
L 168.147855 297.756086 
L 168.313824 294.613498 
L 168.479793 295.99269 
L 168.645763 236.687424 
L 168.977701 258.90227 
L 169.309639 229.042758 
L 169.475608 205.271395 
L 169.641577 227.831039 
L 169.807546 231.229763 
L 170.139485 260.182949 
L 170.305454 283.954312 
L 170.471423 263.374793 
L 170.637392 265.295811 
L 170.803361 257.069915 
L 170.96933 240.96292 
L 171.135299 261.542438 
L 171.467237 256.89259 
L 171.633207 269.945659 
L 171.799176 248.686396 
L 171.965145 251.178793 
L 172.131114 233.86008 
L 172.297083 235.781097 
L 172.463052 253.907624 
L 172.629021 237.347466 
L 172.79499 250.833995 
L 172.960959 230.254477 
L 173.126929 226.806496 
L 173.624836 282.102254 
L 173.790805 280.181236 
L 173.956774 269.709226 
L 174.122743 266.822774 
L 174.288712 257.385159 
L 174.454681 234.825514 
L 174.620651 256.084777 
L 174.78662 259.532758 
L 175.284527 300.544024 
L 175.450496 287.697834 
L 175.616465 310.070302 
L 175.782434 301.341985 
L 175.948403 277.787352 
L 176.114373 274.388629 
L 176.280342 284.643908 
L 176.446311 285.037963 
L 176.61228 321.773733 
L 176.778249 299.214089 
L 176.944218 294.938593 
L 177.110187 304.376208 
L 177.276156 325.024686 
L 177.442125 321.576706 
L 177.608094 298.022073 
L 177.774064 321.576706 
L 177.940033 323.497724 
L 178.106002 301.125255 
L 178.271971 313.971446 
L 178.43794 336.53109 
L 178.603909 341.988751 
L 178.769878 320.729488 
L 179.101816 327.270799 
L 179.433755 305.440157 
L 179.599724 308.888137 
L 179.765693 331.260606 
L 179.931662 333.753003 
L 180.097631 331.831985 
L 180.2636 308.277352 
L 180.429569 304.612641 
L 180.761508 344.274269 
L 180.927477 331.428079 
L 181.093446 339.653975 
L 181.259415 316.099342 
L 181.425384 313.21289 
L 181.591353 321.941207 
L 181.757322 304.622493 
L 181.923291 301.479905 
L 182.25523 269.866848 
L 182.421199 287.185562 
L 182.587168 290.32815 
L 182.753137 313.882783 
L 183.085075 278.407989 
L 183.251044 291.894519 
L 183.582982 261.709911 
L 183.914921 303.637355 
L 184.08089 300.238632 
L 184.246859 313.725161 
L 184.412828 317.389872 
L 184.578797 333.762854 
L 184.744766 336.491685 
L 184.910735 327.054069 
L 185.242674 302.455191 
L 185.574612 280.486629 
L 185.740581 257.926984 
L 186.072519 265.305663 
L 186.238488 268.704386 
L 186.404457 245.149753 
L 186.736396 304.090519 
L 186.902365 307.755229 
L 187.068334 304.090519 
L 187.234303 287.717536 
L 187.566241 276.437714 
L 187.73221 259.739637 
L 187.898179 282.112105 
L 188.064148 285.254693 
L 188.230117 305.903171 
L 188.562056 275.787524 
L 188.728025 292.485601 
L 189.059963 261.493181 
L 189.225932 265.157892 
L 189.723839 208.098739 
L 190.055778 248.43026 
L 190.553685 309.873275 
L 190.885623 269.620564 
L 191.383531 291.786153 
L 191.5495 288.899701 
L 192.047407 297.962964 
L 192.545314 250.617265 
L 192.877253 245.001983 
L 193.209191 280.358561 
L 193.37516 274.9009 
L 193.541129 277.787352 
L 194.039036 231.939062 
L 194.205005 228.491081 
L 194.702913 281.78701 
L 194.868882 285.23499 
L 195.034851 261.463627 
L 195.20082 282.043145 
L 195.366789 283.964163 
L 195.864697 336.353765 
L 196.030666 315.705287 
L 196.196635 312.257307 
L 196.362604 303.775275 
L 196.860511 329.21152 
L 197.02648 331.94035 
L 197.358418 300.987336 
L 197.524388 317.685413 
L 197.690357 315.764396 
L 198.022295 281.530874 
L 198.188264 278.388286 
L 198.354233 254.833653 
L 198.520202 251.168942 
L 198.686171 253.66134 
L 198.85214 237.288357 
L 199.01811 259.660826 
L 199.184079 261.581844 
L 199.516017 219.743062 
L 199.681986 237.899143 
L 199.847955 243.356803 
L 200.179893 226.75724 
L 200.511832 255.917304 
L 200.677801 253.030852 
L 201.009739 269.177252 
L 201.175708 269.177252 
L 201.507646 298.72152 
L 201.673615 306.947417 
L 201.839584 293.460887 
L 202.005554 316.020531 
L 202.171523 319.419255 
L 202.337492 296.859611 
L 202.503461 312.966606 
L 202.66943 315.459003 
L 203.001368 275.344212 
L 203.333306 281.21563 
L 203.665245 242.509585 
L 203.831214 239.061605 
L 203.997183 227.919702 
L 204.329121 268.605873 
L 204.49509 265.207149 
L 204.661059 249.100154 
L 204.827028 269.679672 
L 205.324936 212.384086 
L 205.490905 191.735608 
L 205.656874 193.1148 
L 205.988812 227.131592 
L 206.154781 230.530315 
L 206.32075 221.801999 
L 206.486719 231.239614 
L 206.818658 263.739294 
L 206.984627 261.010464 
L 207.150596 279.13699 
L 207.316565 277.215973 
L 207.482534 259.897259 
L 207.648503 254.439598 
L 207.814472 233.86008 
L 207.980441 251.178793 
L 208.146411 247.78007 
L 208.31238 284.900044 
L 208.644318 290.535029 
L 208.810287 274.428034 
L 208.976256 270.980053 
L 209.308194 246.785081 
L 209.474163 260.665666 
L 209.640133 263.158063 
L 209.806102 280.476777 
L 209.972071 259.828299 
L 210.13804 282.387944 
L 210.304009 283.767136 
L 210.469978 296.820205 
L 210.635947 300.268186 
L 210.967885 320.177811 
L 211.299824 307.292215 
L 211.465793 284.73257 
L 211.631762 281.589982 
L 212.129669 222.265013 
L 212.295638 246.036377 
L 212.461607 286.643737 
L 212.627577 273.846803 
L 212.793546 286.643737 
L 213.125484 245.41574 
L 213.457422 274.910751 
L 213.623391 293.037278 
L 214.287268 210.995043 
L 214.453237 202.51301 
L 214.619206 218.620005 
L 214.785175 215.221282 
L 214.951144 192.710894 
L 215.117113 187.253233 
L 215.283082 185.874041 
L 215.449051 346.806072 
L 215.615021 330.107995 
L 215.78099 328.728803 
L 215.946959 325.280822 
L 216.112928 345.9293 
L 216.444866 316.552506 
L 216.610835 333.250583 
L 216.942773 324.128211 
L 217.108742 337.614741 
L 217.274712 324.128211 
L 217.440681 326.620609 
L 217.772619 294.367213 
L 218.270526 332.669352 
L 218.436495 200.010762 
L 218.768434 234.835365 
L 219.100372 240.214215 
L 219.43231 213.861792 
L 219.598279 236.421437 
L 219.764248 222.934907 
L 219.930217 239.495065 
L 220.096186 235.830354 
L 220.428125 206.67029 
L 220.594094 210.335001 
L 220.760063 201.606684 
L 220.926032 219.762765 
L 221.092001 217.270367 
L 221.25797 199.114287 
L 221.755878 255.552803 
L 221.921847 238.854726 
L 222.087816 235.968273 
L 222.253785 259.522907 
L 222.419754 262.409359 
L 222.585723 245.849201 
L 222.751692 244.470008 
L 222.917661 222.09754 
L 223.2496 243.711453 
L 223.415569 223.062975 
L 223.581538 219.398264 
L 223.913476 254.823802 
L 224.079445 258.488512 
L 224.245414 275.18659 
L 224.411383 261.70006 
L 224.743322 298.455533 
L 225.07526 293.805685 
L 225.241229 302.534002 
L 225.407198 299.647549 
L 225.739136 330.64982 
L 225.905105 351.909084 
L 226.071074 353.830101 
L 226.568982 378.951103 
L 226.734951 369.513487 
L 226.90092 352.194773 
L 227.066889 350.273756 
L 227.232858 182.406358 
L 227.398827 200.562438 
L 227.564796 192.336542 
L 227.730765 205.182732 
L 227.896735 202.690335 
L 228.062704 206.355046 
L 228.394642 197.597175 
L 228.560611 206.325492 
L 228.72658 189.765333 
L 228.892549 192.257731 
L 229.556426 250.104994 
L 229.722395 252.597391 
L 229.888364 243.159776 
L 230.054333 242.893789 
L 230.220302 239.229078 
L 230.386271 259.808596 
L 230.55224 261.187789 
L 230.884179 235.140758 
L 231.216117 264.56681 
L 231.548055 271.630244 
L 231.714024 270.251052 
L 231.879993 292.62352 
L 232.211931 254.144057 
L 232.377901 277.91542 
L 232.54387 281.058008 
L 232.875808 292.426493 
L 233.041777 289.027769 
L 233.207746 272.467611 
L 233.373715 269.975213 
L 233.539684 246.42058 
L 233.705653 267.679843 
L 233.871623 264.793391 
L 234.037592 287.165859 
L 234.535499 243.140073 
L 234.701468 248.597734 
L 235.365344 316.848047 
L 235.531314 215.832067 
L 235.697283 232.530144 
L 235.863252 300.149969 
L 236.029221 278.890706 
L 236.19519 287.116603 
L 236.361159 268.990076 
L 236.527128 278.427692 
L 236.859066 237.337614 
L 237.025036 240.224067 
L 237.688912 305.656887 
L 238.02085 290.761611 
L 238.186819 268.251223 
L 238.352788 270.743621 
L 238.518758 280.181236 
L 238.684727 266.694706 
L 238.850696 264.773688 
L 239.016665 275.915591 
L 239.348603 237.436128 
L 239.514572 238.81532 
L 239.680541 221.496606 
L 239.84651 311.183507 
L 240.01248 298.337317 
L 240.178449 311.13425 
L 240.344418 294.574092 
L 240.510387 312.700619 
L 240.676356 292.052141 
L 240.842325 240.627973 
L 241.008294 257.32605 
L 241.174263 240.953068 
L 241.340232 242.874086 
L 241.506202 222.225608 
L 241.672171 219.08302 
L 241.83814 207.941117 
L 242.004109 206.020099 
L 242.170078 201.133818 
L 242.336047 184.435741 
L 242.502016 202.562267 
L 242.667985 181.982749 
L 242.833954 195.469279 
L 242.999924 198.611867 
L 243.165893 219.191385 
L 243.331862 221.112403 
L 243.497831 243.484871 
L 243.6638 240.992474 
L 243.829769 251.464483 
L 243.995738 250.085291 
L 244.161707 231.92921 
L 244.327676 228.48123 
L 244.493645 220.255333 
L 244.659615 223.654057 
L 245.157522 213.70417 
L 245.323491 203.232161 
L 245.655429 224.846073 
L 245.821398 226.225265 
L 246.153337 265.43373 
L 246.319306 255.996115 
L 246.485275 272.10311 
L 246.817213 227.220254 
L 246.983182 227.220254 
L 247.31512 270.989905 
L 247.813028 232.648361 
L 248.144966 269.472793 
L 248.310935 282.959323 
L 248.476904 262.379805 
L 248.642873 266.044516 
L 248.974811 238.795617 
L 249.140781 293.884496 
L 249.30675 312.011023 
L 249.638688 275.659456 
L 249.804657 264.517553 
L 250.136595 268.625575 
L 250.302564 267.246383 
L 250.468533 246.597905 
L 250.634503 257.069915 
L 250.800472 234.51027 
L 251.298379 294.061821 
L 251.464348 284.624205 
L 251.630317 294.061821 
L 251.796286 290.663097 
L 252.128225 332.570838 
L 252.460163 305.725846 
L 252.626132 308.868434 
L 252.792101 331.428079 
L 252.95807 323.202182 
L 253.124039 325.1232 
L 253.290008 336.265103 
L 253.455977 315.00584 
L 254.285823 375.975988 
L 254.451792 374.05497 
L 254.617761 375.434163 
L 254.78373 369.976502 
L 254.949699 349.328024 
L 255.115668 346.441572 
L 255.281638 370.212935 
L 255.613576 340.914951 
L 255.945514 315.104354 
L 256.111483 313.725161 
L 256.60939 260.242057 
L 256.77536 257.749659 
L 256.941329 235.190015 
L 257.107298 244.62763 
L 257.273267 224.048112 
L 257.605205 253.316541 
L 257.937143 292.574263 
L 258.103112 281.43236 
L 258.269082 278.70353 
L 258.435051 280.082722 
L 258.60102 296.64288 
L 258.766989 299.371711 
L 258.932958 308.100027 
L 259.098927 304.652047 
L 259.264896 308.316758 
L 259.596834 281.777158 
L 259.762804 298.150141 
L 259.928773 296.770948 
L 260.094742 318.030211 
L 260.260711 314.365501 
L 260.592649 274.979711 
L 260.758618 278.427692 
L 260.924587 270.201795 
L 261.588464 316.404735 
L 262.086371 269.925957 
L 262.25234 290.722205 
L 262.418309 281.993889 
L 262.584278 283.914906 
L 262.916217 261.355262 
L 263.082186 274.201452 
L 263.248155 275.580645 
L 263.414124 259.020486 
L 263.746062 282.141659 
L 263.912031 273.659627 
L 264.078 297.43099 
L 264.409939 256.340913 
L 264.575908 251.375821 
L 264.907846 276.555931 
L 265.073815 273.157207 
L 265.405753 312.818835 
L 265.571722 309.932383 
L 265.737691 301.204066 
L 265.903661 303.125084 
L 266.06963 306.573065 
L 266.235599 317.045074 
L 266.401568 318.424266 
L 266.567537 342.19563 
L 266.899475 312.011023 
L 267.231413 333.723449 
L 267.397383 311.213061 
L 267.729321 345.229853 
L 268.061259 352.293287 
L 268.227228 350.372269 
L 268.393197 344.914609 
L 268.559166 333.772706 
L 268.725135 330.324725 
L 268.891105 319.852716 
L 269.057074 322.739168 
L 269.223043 302.159649 
L 269.389012 300.780457 
L 269.554981 313.626648 
L 269.72095 310.227924 
L 270.052888 353.31783 
L 270.218857 358.775491 
L 270.384827 345.9293 
L 270.550796 358.775491 
L 270.882734 319.517769 
L 271.048703 311.291872 
L 271.214672 293.135792 
L 271.380641 305.932725 
L 271.54661 303.440328 
L 271.712579 286.88017 
L 271.878549 309.439814 
L 272.044518 306.297226 
L 272.210487 283.737582 
L 272.542425 289.628703 
L 272.874363 245.425592 
L 273.040332 242.539139 
L 273.53824 306.819349 
L 273.704209 283.047986 
L 273.870178 292.485601 
L 274.368085 348.539914 
L 275.031962 284.033123 
L 275.197931 304.612641 
L 275.3639 291.559572 
L 275.529869 304.937737 
L 275.861807 272.3888 
L 276.193745 300.859268 
L 276.359714 299.332305 
L 276.691653 292.268871 
L 276.857622 298.258506 
L 277.355529 324.413901 
L 277.521498 313.271998 
L 277.687467 289.717365 
L 277.853436 293.382076 
L 278.019406 280.585142 
L 278.351344 228.323608 
L 278.517313 224.924884 
L 278.683282 230.382545 
L 278.849251 206.827912 
L 279.01522 202.000739 
L 279.181189 224.373207 
L 279.347158 206.217127 
L 279.679097 232.796131 
L 279.845066 229.653543 
L 280.011035 242.499734 
L 280.177004 229.653543 
L 280.342973 246.972257 
L 280.508942 248.893275 
L 280.674911 257.621592 
L 280.84088 275.777672 
L 281.00685 258.458958 
L 281.172819 257.079766 
L 281.338788 253.681042 
L 281.504757 261.906939 
L 281.670726 253.681042 
L 281.836695 294.899187 
L 282.002664 278.339029 
L 282.168633 284.565097 
L 282.334602 308.33646 
L 282.500572 309.715653 
L 282.666541 222.964461 
L 282.83251 243.543979 
L 282.998479 241.051582 
L 283.330417 219.979495 
L 283.496386 229.41711 
L 283.662355 246.115188 
L 283.828324 228.796474 
L 284.326232 286.614183 
L 284.65817 281.806713 
L 284.824139 294.603646 
L 285.156077 261.227194 
L 285.488015 280.447223 
L 285.653985 303.006867 
L 285.819954 299.608144 
L 285.985923 312.405077 
L 286.151892 303.676761 
L 286.317861 321.832842 
L 286.48383 323.753859 
L 286.649799 320.089148 
L 286.815768 333.575678 
L 286.981737 311.065291 
L 287.147707 313.951743 
L 287.313676 322.17764 
L 287.479645 311.70563 
L 287.645614 288.150997 
L 287.811583 308.799475 
L 288.143521 269.728929 
L 288.30949 260.291314 
L 288.475459 257.404861 
L 288.641429 279.77733 
L 288.807398 261.621249 
L 289.305305 303.420625 
L 289.471274 313.892635 
L 290.135151 275.748118 
L 290.467089 287.116603 
L 290.633058 274.319669 
L 290.799027 251.760025 
L 290.964996 253.139217 
L 291.130965 235.01269 
L 291.462903 271.699204 
L 291.628873 270.320011 
L 291.794842 247.947543 
L 291.960811 249.326735 
L 292.12678 267.453262 
L 292.292749 254.400193 
L 292.624687 249.592722 
L 292.790656 238.450819 
L 293.122594 273.758141 
L 293.288564 276.900729 
L 293.454533 256.252251 
L 293.620502 259.700231 
L 293.786471 272.979882 
L 294.118409 265.916448 
L 294.284378 247.760367 
L 294.450347 257.424564 
L 294.616316 278.683827 
L 294.782286 253.996286 
L 294.948255 270.694364 
L 295.280193 263.887065 
L 295.446162 255.405033 
L 295.612131 239.298038 
L 295.7781 242.962748 
L 295.944069 263.611226 
L 296.110038 269.068887 
L 296.276008 285.175882 
L 296.441977 287.0969 
L 296.773915 253.720448 
L 296.939884 266.517381 
L 297.105853 269.009779 
L 297.271822 255.523249 
L 297.437791 277.895717 
L 297.60376 260.577003 
L 297.76973 277.895717 
L 297.935699 265.049527 
L 298.101668 277.895717 
L 298.433606 273.245869 
L 298.765544 242.322409 
L 298.931513 253.464312 
L 299.097482 240.618122 
L 299.263452 253.415055 
L 299.429421 255.336073 
L 299.761359 221.644377 
L 299.927328 244.204021 
L 300.093297 223.555543 
L 300.259266 223.555543 
L 300.425235 234.697446 
L 300.591204 255.956709 
L 300.923143 236.815491 
L 301.42105 291.510315 
L 301.587019 275.137333 
L 301.752988 297.696977 
L 302.084926 268.428548 
L 302.250895 273.886209 
L 302.582834 307.942405 
L 302.914772 320.069446 
L 303.080741 307.016376 
L 303.24671 304.129924 
L 303.744617 238.647847 
L 303.910587 217.388584 
L 304.242525 267.985236 
L 304.408494 271.649947 
L 304.574463 284.703016 
L 304.906401 253.582529 
L 305.07237 248.124868 
L 305.570278 308.651704 
L 305.736247 295.854771 
L 305.902216 301.312431 
L 306.068185 280.663953 
L 306.234154 277.935123 
L 306.400123 254.16376 
L 306.566092 274.812238 
L 306.732061 276.733255 
L 307.064 231.801143 
L 307.229969 248.49922 
L 307.561907 232.480887 
L 307.893845 235.08165 
L 308.059814 248.134719 
L 308.225783 244.470008 
L 308.391753 227.151294 
L 308.557722 229.072312 
L 308.723691 246.391026 
L 308.88966 229.692949 
L 309.055629 252.252593 
L 309.221598 239.406403 
L 309.387567 242.548991 
L 309.719505 196.621889 
L 310.051444 220.609983 
L 310.217413 244.381346 
L 310.383382 226.225265 
L 310.549351 224.304248 
L 310.71532 225.68344 
L 310.881289 246.942703 
L 311.213227 210.11827 
L 311.379196 213.566251 
L 311.545166 212.187059 
L 311.877104 252.30185 
L 312.043073 243.573533 
L 312.54098 302.366528 
L 312.872918 261.70006 
L 313.038888 258.557472 
L 313.536795 297.874302 
L 313.702764 236.726829 
L 314.034702 280.49648 
L 314.53261 220.462212 
L 314.698579 229.190529 
L 314.864548 222.639366 
L 315.030517 239.770903 
L 315.196486 230.697789 
L 315.362455 233.840377 
L 315.528424 255.09964 
L 315.694393 243.957737 
L 316.026332 211.517165 
L 316.35827 242.292855 
L 316.524239 259.611569 
L 316.690208 254.153908 
L 316.856177 261.818276 
L 317.022146 240.559013 
L 317.188115 243.051411 
L 317.354084 219.280047 
L 317.520054 222.944758 
L 318.017961 279.097585 
L 318.349899 247.809624 
L 318.515868 234.963433 
L 318.847806 257.454118 
L 319.013776 281.225482 
L 319.511683 229.889976 
L 319.843621 264.803243 
L 320.00959 268.201966 
L 320.175559 255.148897 
L 320.341528 231.594264 
L 320.507498 228.19554 
L 320.673467 304.484573 
L 321.005405 270.989905 
L 321.503312 319.31089 
L 321.669281 322.975601 
L 321.83525 304.81952 
L 322.001219 328.590883 
L 322.167189 331.083281 
L 322.499127 371.749749 
L 322.665096 368.301769 
L 322.831065 371.030599 
L 323.163003 341.545439 
L 323.494941 346.914437 
L 323.992849 376.754247 
L 324.158818 374.025416 
L 324.324787 387.511946 
L 324.490756 379.029914 
L 324.988663 333.703746 
L 325.154633 351.859827 
L 325.486571 315.173313 
L 325.65254 318.572037 
L 325.818509 339.151555 
L 325.984478 337.230538 
L 326.150447 212.76829 
L 326.316416 222.205905 
L 326.482385 244.716293 
L 326.648355 241.987462 
L 326.814324 246.233404 
L 326.980293 239.524619 
L 327.312231 257.887579 
L 327.644169 288.742079 
L 327.810138 292.40679 
L 327.976107 271.758312 
L 328.142077 284.604502 
L 328.474015 245.859052 
L 328.639984 247.238244 
L 328.805953 244.095656 
L 329.137891 218.452532 
L 329.801768 293.510144 
L 329.967737 306.307077 
L 330.299675 261.276451 
L 330.631613 256.409873 
L 330.797582 245.809795 
L 330.963551 249.208519 
L 331.29549 304.051113 
L 331.461459 320.611271 
L 331.627428 323.497724 
L 331.793397 340.816438 
L 331.959366 320.236919 
L 332.125335 338.393 
L 332.291304 330.167103 
L 332.623242 324.788253 
L 332.955181 285.668451 
L 333.287119 320.975772 
L 333.453088 312.247455 
L 333.619057 314.739853 
L 333.785026 301.893662 
L 333.950995 278.122299 
L 334.116964 283.57996 
L 334.282934 270.09343 
L 334.780841 312.099685 
L 334.94681 309.607287 
L 335.112779 322.453478 
L 335.444717 365.405465 
L 335.610686 367.897862 
L 335.776656 376.379894 
L 335.942625 363.326825 
L 336.108594 379.43382 
L 336.440532 340.363274 
L 336.606501 348.589171 
L 336.938439 319.291187 
L 337.436347 365.149329 
L 337.602316 362.262877 
L 337.768285 212.256018 
L 337.934254 208.591307 
L 338.100223 211.083705 
L 338.266192 196.749957 
L 338.59813 230.175666 
L 338.7641 207.665278 
L 338.930069 220.511469 
L 339.096038 218.590451 
L 339.593945 159.432956 
L 339.759914 172.229889 
L 339.925883 159.383699 
L 340.091852 177.61859 
L 340.257821 355.061523 
L 340.423791 332.689055 
L 340.58976 349.387132 
L 340.755729 347.466114 
L 341.253636 280.092574 
L 341.585574 311.380535 
L 341.917513 271.551433 
L 342.083482 273.472451 
L 342.249451 268.01479 
L 342.581389 227.328619 
L 342.747358 230.215071 
L 343.245265 278.457246 
L 343.411235 276.536228 
L 343.577204 259.217514 
L 343.743173 262.616238 
L 343.909142 241.96776 
L 344.075111 264.478147 
L 344.24108 261.335559 
L 344.407049 244.637482 
L 344.573018 247.78007 
L 344.904957 213.280561 
L 345.070926 215.526674 
L 345.236895 226.668577 
L 345.402864 226.432144 
L 345.568833 231.889805 
L 345.734802 252.538283 
L 345.900771 249.090302 
L 346.06674 249.090302 
L 346.232709 266.409016 
L 346.398679 257.6807 
L 346.730617 218.610154 
L 346.896586 240.982622 
L 347.062555 218.610154 
L 347.394493 255.217856 
L 347.726431 225.102209 
L 348.05837 218.817033 
L 348.224339 241.189501 
L 348.390308 291.490612 
L 348.556277 293.98301 
L 348.722246 285.757113 
L 348.888215 269.059036 
L 349.054184 280.200939 
L 349.220153 303.755572 
L 349.386123 280.200939 
L 349.552092 293.254008 
L 349.718061 289.806027 
L 349.88403 273.245869 
L 350.049999 271.866677 
L 350.381937 290.170528 
L 350.547906 277.373595 
L 350.713875 301.144958 
L 351.045814 275.245698 
L 351.211783 298.800331 
L 351.377752 290.072015 
L 351.543721 266.300651 
L 351.70969 269.443239 
L 351.875659 245.888606 
L 352.041628 242.746018 
L 352.373566 200.907236 
L 352.705505 235.653029 
L 352.871474 233.732012 
L 353.037443 246.528945 
L 353.203412 268.901414 
L 353.369381 257.759511 
L 353.53535 266.241543 
L 353.701319 262.842819 
L 354.033258 292.219614 
L 354.199227 293.598806 
L 354.365196 306.651876 
L 354.697134 298.465384 
L 354.863103 284.978855 
L 355.195041 319.222228 
L 355.36101 310.740195 
L 355.52698 289.480932 
L 355.692949 293.145643 
L 355.858918 277.038648 
L 356.190856 283.885352 
L 356.356825 280.9989 
L 356.522794 297.105895 
L 357.020702 245.77039 
L 357.35264 277.383446 
L 357.518609 255.010978 
L 357.684578 276.270241 
L 357.850547 279.156693 
L 358.182485 247.917989 
L 358.348454 264.478147 
L 358.846362 206.010248 
L 359.012331 214.236144 
L 359.1783 201.439211 
L 359.344269 198.946813 
L 359.510238 211.743747 
L 359.676207 320.936367 
L 360.008145 288.5352 
L 360.174115 285.80637 
L 360.340084 289.205094 
L 360.506053 289.510486 
L 360.672022 306.8292 
L 360.837991 310.493911 
L 361.169929 277.235675 
L 361.335898 273.787695 
L 361.501867 289.89469 
L 361.667837 280.457074 
L 361.833806 277.964677 
L 361.999775 254.410044 
L 362.165744 267.896574 
L 362.331713 245.386186 
L 362.497682 241.721475 
L 362.663651 258.419553 
L 362.82962 237.840034 
L 363.161559 267.719249 
L 363.327528 255.010978 
L 363.659466 294.091375 
L 363.825435 270.536742 
L 364.157373 300.553876 
L 364.489311 260.025327 
L 364.82125 289.214945 
L 364.987219 273.10795 
L 365.153188 272.270583 
L 365.319157 264.044687 
L 365.485126 267.965533 
L 365.651095 280.762467 
L 365.817064 264.202309 
L 366.149003 304.53383 
L 366.314972 287.973672 
L 366.480941 284.525692 
L 366.64691 262.153223 
L 366.812879 275.669307 
L 366.978848 270.211646 
L 367.144817 278.437543 
L 367.310786 254.88291 
L 367.476755 270.989905 
L 367.642725 261.552289 
L 367.974663 291.598977 
L 368.47257 261.759168 
L 368.638539 272.901071 
L 368.970477 279.49164 
L 369.302416 251.031023 
L 369.468385 253.759853 
L 369.634354 274.408331 
L 369.800323 251.897944 
L 369.966292 274.270412 
L 370.132261 250.499049 
L 370.29823 267.817763 
L 370.630168 227.939404 
L 370.796138 229.860422 
L 370.962107 302.819691 
L 371.294045 339.575164 
L 371.460014 326.522095 
L 371.791952 361.267888 
L 372.12389 331.782728 
L 372.28986 326.325068 
L 372.455829 326.325068 
L 372.621798 331.782728 
L 372.787767 321.310719 
L 372.953736 324.039549 
L 373.119705 321.310719 
L 373.285674 311.873103 
L 373.451643 313.794121 
L 373.783582 272.920774 
L 373.949551 275.807226 
L 374.281489 302.839394 
L 374.613427 271.787866 
L 374.779396 294.160334 
L 374.945365 283.018431 
L 375.443273 313.725161 
L 375.609242 330.098144 
L 375.775211 307.587756 
L 375.94118 328.167274 
L 376.107149 310.040748 
L 376.273118 331.300011 
L 376.439087 318.453821 
L 376.605056 326.679717 
L 376.936995 293.470738 
L 377.102964 284.988706 
L 377.268933 308.760069 
L 377.434902 305.873617 
L 377.600871 316.345627 
L 377.76684 293.785982 
L 377.932809 306.839052 
L 378.098778 284.466583 
L 378.264747 283.087391 
L 378.596686 289.027769 
L 378.762655 243.652344 
L 378.928624 239.987634 
L 379.094593 243.435614 
L 379.260562 230.638681 
L 379.758469 273.314829 
L 379.924439 270.428377 
L 380.090408 253.730299 
L 380.256377 251.001469 
L 380.422346 269.157549 
L 380.588315 263.522564 
L 380.754284 274.664467 
L 381.086222 319.59658 
L 381.418161 314.21773 
L 381.58413 303.74572 
L 381.750099 281.186076 
L 381.916068 282.565268 
L 382.082037 292.002884 
L 382.413975 264.753986 
L 382.579944 248.055908 
L 382.745913 246.13489 
L 382.911883 225.555372 
L 383.077852 307.124741 
L 383.243821 295.982838 
L 383.40979 304.208735 
L 383.575759 286.052654 
L 383.741728 304.208735 
L 383.907697 309.666396 
L 384.073666 326.226554 
L 384.239635 326.226554 
L 384.571574 295.224283 
L 384.737543 317.596751 
L 384.903512 318.975943 
L 385.069481 342.747307 
L 385.401419 336.718266 
L 385.567388 354.874347 
L 385.733357 349.416686 
L 385.899327 352.145517 
L 386.065296 339.348583 
L 386.397234 333.221029 
L 386.563203 336.669009 
L 386.729172 314.158622 
L 386.895141 317.823333 
L 387.06111 300.504619 
L 387.227079 309.942234 
L 387.393049 296.455704 
L 387.559018 301.913365 
L 387.724987 323.172628 
L 387.890956 317.714968 
L 388.222894 277.600176 
L 388.388863 286.328493 
L 388.554832 270.221498 
L 388.720801 270.221498 
L 388.88677 286.328493 
L 389.05274 282.663782 
L 389.218709 260.291314 
L 389.384678 273.137504 
L 389.550647 276.280092 
L 389.716616 273.787695 
L 389.882585 284.929598 
L 390.214523 255.631614 
L 390.380492 266.773517 
L 390.546462 258.291485 
L 390.712431 256.912293 
L 390.8784 238.785766 
L 391.542276 314.601934 
L 391.708245 327.655003 
L 392.040184 368.183552 
L 392.206153 365.040964 
L 392.538091 343.328538 
L 392.70406 320.956069 
L 392.870029 337.516228 
L 393.035998 326.374325 
L 393.201967 334.856357 
L 393.367936 337.348754 
L 393.533906 354.667468 
L 393.699875 333.408205 
L 393.865844 330.915808 
L 394.031813 343.712741 
L 394.52972 282.447052 
L 394.695689 250.233062 
L 394.861658 263.079252 
L 395.027628 244.952726 
L 395.193597 261.650803 
L 395.359566 257.986092 
L 395.525535 281.540725 
L 395.857473 237.908994 
L 396.189411 277.600176 
L 396.853288 201.439211 
L 397.019257 179.066742 
L 397.517164 222.205905 
L 397.849102 216.078351 
L 398.015071 234.204878 
L 398.181041 237.869588 
L 398.34701 254.242571 
L 398.678948 232.628658 
L 398.844917 250.784739 
L 399.010886 227.230105 
L 399.176855 224.087517 
L 399.342824 226.816348 
L 399.508793 236.253963 
L 399.674763 213.694319 
L 399.840732 237.248952 
L 400.006701 239.16997 
L 400.338639 203.724729 
L 400.504608 226.235117 
L 400.670577 222.570406 
L 401.168485 165.34378 
L 401.334454 174.072096 
L 401.500423 171.185644 
L 401.666392 157.699114 
L 401.99833 202.72974 
L 402.164299 211.211773 
L 402.330268 211.211773 
L 402.662207 186.622745 
L 402.828176 208.995214 
L 402.994145 208.995214 
L 403.160114 222.048283 
L 403.326083 310.63183 
L 403.658021 275.18659 
L 403.82399 271.738609 
L 403.989959 277.19627 
L 404.155929 275.718564 
L 404.321898 264.576661 
L 404.487867 260.91195 
L 404.653836 270.349566 
L 404.819805 253.651488 
L 404.985774 277.422851 
L 405.151743 266.950842 
L 405.317712 289.32331 
L 405.649651 280.723061 
L 405.81562 258.350593 
L 405.981589 260.842991 
L 406.147558 277.541068 
L 406.313527 260.842991 
L 406.479496 278.161704 
L 406.645465 281.560428 
L 406.811434 268.763495 
L 406.977403 272.211475 
L 407.143372 249.701088 
L 407.309342 251.08028 
L 407.475311 249.701088 
L 407.807249 279.688667 
L 408.471125 208.216955 
L 408.637094 216.442852 
L 408.803064 214.521834 
L 408.969033 232.648361 
L 409.135002 224.166328 
L 409.300971 247.720962 
L 409.632909 208.335172 
L 409.798878 213.792833 
L 410.130816 248.587882 
L 410.296786 248.587882 
L 410.462755 224.816519 
L 410.628724 235.288529 
L 410.794693 231.840548 
L 411.126631 281.481617 
L 411.2926 278.358732 
L 411.458569 281.757456 
L 411.624538 291.195071 
L 411.790508 268.684684 
L 411.956477 284.791679 
L 412.122446 267.472965 
L 412.288415 285.599491 
L 412.454384 288.328322 
L 412.620353 274.841792 
L 412.786322 271.955339 
L 412.952291 251.306861 
L 413.11826 254.754842 
L 413.450199 243.080965 
L 413.616168 246.528945 
L 413.782137 246.528945 
L 413.948106 238.647847 
L 414.114075 237.298209 
L 414.280044 232.825685 
L 414.446013 244.292684 
L 414.611982 247.021514 
L 414.943921 237.899143 
L 415.10989 249.041046 
L 415.275859 239.60343 
L 415.441828 260.182949 
L 415.607797 260.182949 
L 415.773766 276.881026 
L 416.105704 238.480374 
L 416.603612 268.999927 
L 416.93555 260.813436 
L 417.101519 264.261417 
L 417.267488 284.840935 
L 417.433457 281.698347 
L 417.599426 299.854428 
L 417.765395 282.535714 
L 417.931365 281.156522 
L 418.097334 258.784054 
L 418.263303 255.897601 
L 418.429272 259.729785 
L 418.595241 282.28943 
L 418.76121 259.729785 
L 418.927179 258.33089 
L 419.093148 254.66618 
L 419.259117 272.792706 
L 419.425087 275.285104 
L 419.591056 254.02584 
L 419.922994 284.909895 
L 420.088963 275.817078 
L 420.254932 277.19627 
L 420.420901 299.755914 
L 420.58687 283.648919 
L 420.752839 285.353207 
L 420.918809 301.460202 
L 421.084778 303.38122 
L 421.250747 290.32815 
L 421.416716 287.835753 
L 421.582685 279.609856 
L 421.914623 297.775788 
L 422.080592 301.174512 
L 422.246561 283.047986 
L 422.412531 281.668793 
L 422.5785 294.514984 
L 422.744469 276.358903 
L 422.910438 299.401265 
L 423.076407 282.703187 
L 423.242376 282.910066 
L 423.408345 282.910066 
L 423.574314 293.785982 
L 423.740283 293.785982 
L 423.906253 238.894131 
L 424.072222 220.767605 
L 424.40416 259.83815 
L 424.736098 254.616923 
L 424.902067 263.098955 
L 425.068036 246.725973 
L 425.234005 249.21837 
L 425.565944 281.698347 
L 425.731913 284.427178 
L 426.063851 245.218713 
L 426.395789 280.64425 
L 426.561758 293.441184 
L 426.893696 287.550063 
L 427.059666 266.2908 
L 427.225635 269.73878 
L 427.391604 256.941847 
L 427.557573 255.020829 
L 427.723542 238.913834 
L 427.889511 250.055737 
L 428.05548 252.942189 
L 428.221449 241.800286 
L 428.719357 283.550406 
L 428.885326 294.022415 
L 429.051295 275.866335 
L 429.217264 272.201624 
L 429.383233 294.712011 
L 429.549202 281.658942 
L 429.715171 302.30742 
L 429.88114 285.934438 
L 430.04711 283.44204 
L 430.545017 259.641123 
L 430.710986 272.487314 
L 430.876955 255.1686 
L 431.042924 254.055394 
L 431.208893 279.649262 
L 431.540832 266.694706 
L 431.706801 270.09343 
L 431.87277 282.890364 
L 432.038739 249.78975 
L 432.370677 281.521023 
L 432.536646 281.521023 
L 432.702615 284.969003 
L 432.868584 263.70974 
L 433.034554 279.816735 
L 433.366492 240.155107 
L 433.532461 243.819818 
L 433.69843 267.374451 
L 433.864399 267.374451 
L 434.030368 264.882054 
L 434.196337 256.400021 
L 434.362306 277.048499 
L 434.528276 273.600519 
L 434.694245 273.600519 
L 434.860214 290.298596 
L 435.026183 290.298596 
L 435.192152 293.746577 
L 435.358121 285.01826 
L 435.52409 287.747091 
L 435.690059 293.204751 
L 436.021997 322.6111 
L 436.187967 309.558031 
L 436.353936 286.003397 
L 436.519905 307.262661 
L 436.685874 289.136134 
L 436.851843 289.136134 
L 437.017812 272.763152 
L 437.183781 269.098441 
L 437.34975 282.151511 
L 437.681689 258.83331 
L 437.847658 238.184832 
L 438.345565 276.526377 
L 438.511534 273.078396 
L 438.843472 277.688839 
L 439.009441 254.991275 
L 439.175411 252.262445 
L 439.34138 235.889462 
L 439.507349 238.775915 
L 439.839287 214.147482 
L 440.171225 184.406186 
L 440.337194 217.270367 
L 440.503163 200.710209 
L 440.669133 209.438526 
L 440.835102 225.811508 
L 441.001071 212.965317 
L 441.16704 233.613795 
L 441.333009 237.012519 
L 441.498978 216.364041 
L 441.664947 232.471036 
L 441.830916 300.209078 
L 441.996885 276.654444 
L 442.162855 299.164832 
L 442.494793 265.78838 
L 442.660762 274.516696 
L 442.9927 235.741692 
L 443.158669 252.114674 
L 443.324638 239.268483 
L 443.490607 239.268483 
L 443.656577 244.726144 
L 443.822546 241.278164 
L 443.988515 218.718519 
L 444.154484 231.56471 
L 444.320453 218.718519 
L 444.486422 231.515453 
L 444.81836 200.798871 
L 445.150298 180.928652 
L 445.316268 202.562267 
L 445.482237 186.002109 
L 445.648206 186.002109 
L 445.814175 212.807695 
L 445.980144 207.350034 
L 446.146113 224.668748 
L 446.312082 222.176351 
L 446.478051 227.634012 
L 446.64402 245.760538 
L 446.80999 245.760538 
L 446.975959 247.139731 
L 447.141928 229.821017 
L 447.473866 263.699889 
L 447.639835 243.12037 
L 447.805804 259.227365 
L 447.971773 242.529288 
L 448.137742 251.966903 
L 448.303712 274.526548 
L 448.469681 277.413 
L 448.63565 260.852842 
L 448.801619 283.22531 
L 448.967588 283.22531 
L 449.133557 280.338858 
L 449.299526 266.852328 
L 449.465495 266.852328 
L 449.631464 288.111591 
L 449.797434 284.663611 
L 450.129372 244.026697 
L 450.295341 235.544664 
L 450.46131 246.686567 
L 450.793248 246.686567 
L 451.125186 224.452018 
L 451.291156 237.938548 
L 451.457125 240.430945 
L 451.955032 269.827443 
L 452.121001 248.56818 
L 452.452939 242.677058 
L 452.618908 220.30459 
L 452.784878 238.431117 
L 452.950847 227.289214 
L 453.116816 243.987291 
L 453.282785 227.880296 
L 453.448754 230.766748 
L 453.614723 253.139217 
L 453.780692 243.701601 
L 453.946661 264.28112 
L 454.444569 209.822729 
L 454.610538 230.402248 
L 454.776507 212.275721 
L 454.942476 215.723702 
L 455.108445 199.35072 
L 455.440383 233.879782 
L 455.606352 237.278506 
L 455.772321 253.385501 
L 456.10426 212.856952 
L 456.270229 234.116215 
L 456.436198 232.737023 
L 456.602167 211.47776 
L 456.768136 208.335172 
L 457.100074 230.825857 
L 457.266043 227.427133 
L 457.432013 218.698816 
L 457.597982 202.000739 
L 457.763951 210.482771 
L 457.92992 189.903253 
L 458.095889 198.129149 
L 458.261858 216.28523 
L 458.427827 192.513867 
L 458.593796 201.242183 
L 458.759765 201.242183 
L 459.091704 194.90775 
L 459.589611 247.849029 
L 459.75558 247.849029 
L 459.921549 284.831084 
L 460.087518 262.320696 
L 460.253487 270.546593 
L 460.419457 293.056981 
L 460.585426 276.496822 
L 461.083333 323.054412 
L 461.415271 323.054412 
L 461.747209 291.933924 
L 461.913179 300.415956 
L 462.079148 284.308961 
L 462.245117 287.451549 
L 462.411086 284.565097 
L 462.577055 251.257604 
L 462.743024 264.310674 
L 462.908993 266.231692 
L 463.074962 283.550406 
L 463.240931 284.929598 
L 463.57287 280.122128 
L 463.738839 262.803414 
L 463.904808 266.251394 
L 464.236746 259.857853 
L 464.402715 259.857853 
L 464.568684 276.555931 
L 464.734653 253.001298 
L 464.900622 253.001298 
L 465.232561 218.147139 
L 465.39853 230.99333 
L 465.564499 208.433686 
L 465.730468 230.99333 
L 465.896437 212.866803 
L 466.062406 225.663737 
L 466.228375 205.015259 
L 466.394344 215.053808 
L 466.560314 237.564196 
L 466.726283 238.775915 
L 466.892252 259.424393 
L 467.058221 253.966732 
L 467.22419 243.800115 
L 467.390159 221.289727 
L 467.556128 221.289727 
L 467.722097 208.443537 
L 467.888066 226.570063 
L 468.054036 229.062461 
L 468.220005 245.435443 
L 468.385974 249.100154 
L 468.551943 260.242057 
L 468.883881 296.849759 
L 469.04985 293.185048 
L 469.381788 266.340057 
L 469.547758 288.712525 
L 469.713727 287.333333 
L 469.879696 264.960864 
L 470.045665 262.468467 
L 470.211634 266.133178 
L 470.377603 242.578545 
L 470.543572 264.951013 
L 470.709541 256.222697 
L 470.87551 253.80911 
L 471.207449 272.162218 
L 471.373418 272.162218 
L 471.539387 251.51374 
L 471.705356 247.849029 
L 471.871325 266.00511 
L 472.037294 266.675003 
L 472.203263 279.471937 
L 472.369232 302.031582 
L 472.535202 298.888994 
L 472.701171 298.888994 
L 472.86714 275.33436 
L 473.199078 306.435145 
L 473.365047 311.892806 
L 473.531016 311.892806 
L 473.696985 300.750903 
L 473.862954 298.258506 
L 474.028923 311.745035 
L 474.194893 309.016205 
L 474.360862 311.508602 
L 474.526831 335.063236 
L 474.6928 336.984253 
L 474.858769 320.286176 
L 475.190707 306.602619 
L 475.356676 298.120586 
L 475.522645 321.89195 
L 475.688615 325.290673 
L 476.186522 278.082893 
L 476.352491 275.590496 
L 476.51846 262.793562 
L 476.850398 277.688839 
L 477.016367 276.309646 
L 477.182337 256.370467 
L 477.348306 261.828128 
L 477.514275 244.509414 
L 477.846213 250.095142 
L 478.012182 273.866506 
L 478.178151 277.314486 
L 478.34412 286.752102 
L 478.510089 307.40058 
L 478.842028 301.529162 
L 479.007997 315.015691 
L 479.173966 306.789795 
L 479.505904 266.261246 
L 479.671873 255.119343 
L 479.837842 258.518066 
L 480.003811 281.028454 
L 480.169781 260.379976 
L 480.33575 268.605873 
L 480.501719 265.207149 
L 480.667688 252.410215 
L 480.833657 252.410215 
L 481.331564 243.918332 
L 481.497533 253.582529 
L 481.663503 253.582529 
L 481.829472 250.696076 
L 481.995441 263.49301 
L 482.16141 240.982622 
L 482.327379 262.241886 
L 482.659317 268.635427 
L 482.825286 285.954141 
L 482.991255 283.461743 
L 483.157225 266.143029 
L 483.821101 306.356334 
L 483.98707 309.498922 
L 484.153039 288.919404 
L 484.319008 309.567882 
L 484.484977 310.947074 
L 484.650946 314.395055 
L 484.816916 313.015863 
L 484.982885 325.862053 
L 485.148854 313.065119 
L 485.314823 309.666396 
L 485.480792 298.524493 
L 485.81273 269.147698 
L 485.978699 272.03415 
L 486.144668 269.30532 
L 486.476607 293.500292 
L 486.642576 276.940134 
L 486.974514 276.940134 
L 487.140483 254.567666 
L 487.472421 248.93268 
L 487.80436 218.748073 
L 488.136298 247.917989 
L 488.302267 245.031537 
L 488.468236 228.658555 
L 488.634205 232.057278 
L 488.966143 201.3604 
L 489.132112 201.3604 
L 489.298082 223.920044 
L 489.464051 223.920044 
L 489.63002 201.3604 
L 489.795989 201.3604 
L 489.961958 204.502988 
L 490.127927 199.045327 
L 490.293896 215.743404 
L 490.625834 181.500031 
L 490.957773 181.500031 
L 491.123742 191.518878 
L 491.45568 237.633155 
L 491.621649 237.633155 
L 491.787618 261.404519 
L 492.119556 261.404519 
L 492.285526 270.842134 
L 492.451495 292.101397 
L 492.617464 288.653417 
L 492.949402 321.497895 
L 493.115371 308.651704 
L 493.28134 286.09206 
L 493.447309 284.171042 
L 493.613278 297.657572 
L 493.779247 300.544024 
L 494.111186 288.919404 
L 494.277155 290.840422 
L 494.443124 274.733427 
L 494.609093 295.381905 
L 494.775062 271.827272 
L 494.941031 268.162561 
L 495.107 284.535543 
L 495.272969 274.063533 
L 495.438939 274.063533 
L 495.604908 284.535543 
L 495.936846 330.64982 
L 496.102815 317.852887 
L 496.268784 314.454163 
L 496.434753 314.454163 
L 496.600722 306.228266 
L 496.932661 336.964551 
L 497.09863 335.043533 
L 497.596537 359.770479 
L 497.762506 359.770479 
L 498.260413 316.719979 
L 498.426383 316.719979 
L 498.592352 313.321255 
L 498.758321 329.42825 
L 499.256228 259.591866 
L 499.422197 251.109834 
L 499.588166 251.109834 
L 499.754135 256.567495 
L 499.920105 273.127653 
L 500.086074 275.856483 
L 500.252043 298.366871 
L 500.418012 298.366871 
L 500.74995 273.738438 
L 500.915919 284.880341 
L 501.081888 288.545052 
L 501.413827 257.986092 
L 501.579796 254.321382 
L 501.911734 254.321382 
L 502.077703 267.541924 
L 502.409641 274.605359 
L 502.57561 264.133349 
L 503.073518 296.524664 
L 503.239487 296.524664 
L 503.405456 279.826587 
L 503.737394 271.915934 
L 503.903363 273.295126 
L 504.069332 255.139045 
L 504.235301 278.910409 
L 504.40127 278.910409 
L 504.899178 217.644719 
L 505.231116 217.644719 
L 505.397085 195.134332 
L 505.563054 213.260858 
L 505.729023 195.134332 
L 506.060962 202.247023 
L 506.3929 221.447349 
L 506.558869 200.798871 
L 506.724838 198.877854 
L 506.890807 211.930923 
L 507.056776 198.877854 
L 507.720653 198.877854 
L 507.886622 207.359886 
L 508.052591 207.359886 
L 508.550498 170.929508 
L 508.882436 208.82774 
L 509.048406 203.37008 
L 509.214375 216.167013 
L 509.546313 193.883207 
L 509.712282 195.804225 
L 510.04422 240.874257 
L 510.210189 240.874257 
L 510.542128 267.7291 
L 510.708097 246.469837 
L 510.874066 249.198667 
L 511.206004 219.08302 
L 511.371973 242.637653 
L 511.86988 199.035476 
L 512.035849 216.35419 
L 512.201819 216.35419 
L 512.367788 238.726658 
L 512.533757 235.327934 
L 512.699726 212.76829 
L 512.865695 234.027553 
L 513.031664 237.170141 
L 513.197633 255.296667 
L 513.363602 255.296667 
L 513.529571 263.522564 
L 513.695541 286.082208 
L 514.027479 256.774373 
L 514.525386 256.774373 
L 514.691355 239.455659 
L 514.857324 256.015818 
L 515.023293 257.936835 
L 515.189263 247.464826 
L 515.355232 256.902441 
L 515.521201 259.788894 
L 515.853139 255.267113 
L 516.185077 216.196568 
L 516.351046 239.751201 
L 516.517015 239.751201 
L 516.682985 260.330719 
L 516.848954 261.709911 
L 517.014923 240.450648 
L 517.180892 257.148726 
L 517.51283 245.218713 
L 517.844768 252.065417 
L 518.010737 252.065417 
L 518.176707 248.617436 
L 518.508645 278.210961 
L 518.674614 276.831769 
L 518.840583 258.705243 
L 519.006552 271.502176 
L 519.172521 294.012564 
L 519.33849 297.460544 
L 519.504459 235.219569 
L 519.670429 227.47639 
L 519.836398 244.174467 
L 520.002367 244.174467 
L 520.168336 245.928012 
L 520.334305 237.948399 
L 520.500274 237.948399 
L 520.666243 245.573362 
L 520.832212 236.845046 
L 520.998181 215.585782 
L 521.662058 215.585782 
L 521.828027 199.025624 
L 522.159965 199.025624 
L 522.325934 197.804054 
L 522.491903 189.548603 
L 522.823842 235.475705 
L 522.989811 227.850742 
L 523.15578 238.322752 
L 523.321749 241.770732 
L 523.487718 238.106021 
L 523.819656 208.975511 
L 523.985625 208.975511 
L 524.151594 231.535155 
L 524.483533 231.535155 
L 524.649502 232.205049 
L 524.815471 212.787992 
L 524.98144 220.137117 
L 525.313378 191.765162 
L 525.479347 188.87871 
L 525.977255 188.87871 
L 526.309193 211.69449 
L 526.641131 211.69449 
L 526.8071 214.580942 
L 527.139038 239.869417 
L 527.305008 236.470693 
L 527.470977 236.470693 
L 527.636946 252.577688 
L 527.802915 252.577688 
L 527.968884 273.226167 
L 528.134853 270.497336 
L 528.466791 277.038648 
L 528.63276 274.546251 
L 528.79873 269.08859 
L 529.130668 269.08859 
L 529.296637 279.560599 
L 529.462606 258.912121 
L 529.794544 258.912121 
L 530.292452 218.038774 
L 530.62439 218.038774 
L 530.790359 220.767605 
L 530.956328 220.767605 
L 531.122297 233.820674 
L 531.288266 231.899656 
L 531.454235 235.564367 
L 531.620204 218.86629 
L 531.786173 218.86629 
L 532.118112 249.78975 
L 532.284081 241.563853 
L 532.45005 249.78975 
L 532.616019 266.487827 
L 532.781988 244.115359 
L 532.947957 244.115359 
L 533.113926 245.494551 
L 533.279895 247.986949 
L 533.445865 231.613966 
L 533.611834 231.613966 
L 533.943772 208.295766 
L 534.607648 208.295766 
L 534.773617 204.631056 
L 534.939587 207.517508 
L 535.105556 212.975169 
L 535.437494 212.975169 
L 535.603463 204.246852 
L 535.769432 204.246852 
L 535.935401 201.754455 
L 536.10137 212.226464 
L 536.267339 209.083876 
L 536.433309 209.083876 
L 536.765247 178.160416 
L 537.097185 178.160416 
L 537.263154 167.018513 
L 537.595092 167.018513 
L 537.761061 175.500545 
L 537.927031 177.992943 
L 538.093 177.992943 
L 538.258969 176.61375 
L 538.590907 176.61375 
L 538.756876 186.051366 
L 538.922845 186.051366 
L 539.088814 206.630884 
L 539.254783 203.902054 
L 539.420753 227.673417 
L 539.586722 227.673417 
L 539.752691 236.401734 
L 539.91866 219.841576 
L 540.084629 242.40122 
L 540.250598 233.672903 
L 540.416567 233.672903 
L 540.582536 225.447007 
L 540.748505 229.111718 
L 540.914474 220.629685 
L 541.080444 218.137288 
L 541.246413 212.679627 
L 541.578351 212.679627 
L 541.74432 210.039459 
L 542.242227 210.039459 
L 542.408196 212.531857 
L 542.740135 185.499689 
L 542.906104 167.343608 
L 543.072073 185.499689 
L 543.404011 185.499689 
L 543.56998 181.834978 
L 543.735949 181.834978 
L 543.901918 192.306988 
L 544.067888 175.60891 
L 544.233857 175.60891 
L 544.399826 184.090943 
L 544.731764 157.45283 
L 544.897733 157.45283 
L 545.063702 160.595418 
L 545.229671 160.595418 
L 545.39564 151.157802 
L 545.56161 148.27135 
L 545.893548 179.26377 
L 546.059517 156.753382 
L 546.225486 156.753382 
L 546.391455 153.354658 
L 546.723393 153.354658 
L 546.889362 158.812319 
L 547.221301 158.812319 
L 547.719208 186.908435 
L 548.051146 186.908435 
L 548.217115 183.765847 
L 548.383084 183.765847 
L 548.549054 161.206203 
L 548.880992 161.206203 
L 549.046961 168.545476 
L 549.21293 169.451802 
L 549.710837 169.451802 
L 549.876806 191.96219 
L 550.042775 191.96219 
L 550.208745 204.80838 
L 550.374714 204.80838 
L 550.540683 193.666477 
L 550.706652 208.955808 
L 550.872621 200.227492 
L 551.03859 200.227492 
L 551.370528 208.413983 
L 552.034405 208.413983 
L 552.200374 185.903595 
L 552.366343 189.046183 
L 552.532312 185.903595 
L 552.698281 180.445934 
L 552.86425 180.445934 
L 553.196189 185.824784 
L 553.362158 172.978594 
L 553.694096 172.978594 
L 553.860065 156.418435 
L 554.026034 153.019712 
L 554.357972 153.019712 
L 554.523941 140.222778 
L 554.85588 140.222778 
L 555.187818 121.268736 
L 555.519756 121.268736 
L 555.685725 123.032132 
L 558.175262 123.032132 
L 558.341231 131.514164 
L 559.171077 131.514164 
L 559.337046 155.068797 
L 559.503015 158.467521 
L 559.668984 137.888003 
L 560.166891 137.888003 
L 560.33286 154.58608 
L 560.664798 154.58608 
L 560.830768 152.093683 
L 561.162706 152.093683 
L 561.328675 160.821999 
L 561.992551 160.821999 
L 562.15852 137.267366 
L 562.32449 137.267366 
L 562.656428 147.276361 
L 562.822397 147.276361 
L 563.154335 121.849967 
L 563.320304 121.849967 
L 563.486273 123.229159 
L 563.652242 119.781179 
L 563.984181 119.781179 
L 564.15015 116.382455 
L 564.316119 116.382455 
L 564.648057 100.639961 
L 566.971625 100.639961 
L 567.137594 104.038685 
L 567.303563 114.510694 
L 567.469532 111.624242 
L 568.299378 111.624242 
L 568.465347 124.470432 
L 568.631316 108.363437 
L 568.963254 108.363437 
L 569.129223 130.735906 
L 569.959069 130.735906 
L 570.291007 154.625486 
L 570.456976 158.073466 
L 570.954883 158.073466 
L 571.120852 156.152448 
L 571.452791 156.152448 
L 571.61876 158.644846 
L 571.784729 158.644846 
L 571.950698 155.246122 
L 572.780543 155.246122 
L 572.946513 163.974439 
L 573.278451 163.974439 
L 573.44442 156.901153 
L 573.610389 163.846371 
L 573.776358 163.846371 
L 573.942327 160.39839 
L 575.27008 160.39839 
L 575.436049 177.717104 
L 575.602018 183.174765 
L 575.767987 177.717104 
L 576.597833 177.717104 
L 576.763802 160.39839 
L 577.759617 160.39839 
L 577.925586 154.80281 
L 578.257524 154.80281 
L 578.423493 147.118739 
L 579.08737 147.118739 
L 579.253339 138.390423 
L 581.908844 138.390423 
L 582.074814 155.709137 
L 582.406752 116.017954 
L 582.904659 116.017954 
L 583.070628 119.465935 
L 583.402566 119.465935 
L 583.568536 111.240038 
L 584.56435 111.240038 
L 584.730319 119.722071 
L 585.228227 119.722071 
L 585.394196 128.450387 
L 585.726134 128.450387 
L 586.058072 136.400445 
L 586.224041 136.400445 
L 586.39001 130.942785 
L 586.721949 130.942785 
L 586.887918 122.460752 
L 587.053887 119.968355 
L 587.219856 119.968355 
L 587.385825 111.240038 
L 587.551794 114.904749 
L 592.03296 114.904749 
L 592.198929 106.353757 
L 592.364898 106.353757 
L 592.530867 93.507567 
L 594.854435 93.507567 
L 595.186373 114.83579 
L 595.352342 101.989599 
L 595.518311 101.989599 
L 595.684281 98.590875 
L 603.31886 98.590875 
L 603.484829 101.083273 
L 604.480643 101.083273 
L 604.646612 97.418562 
L 605.974365 97.418562 
L 606.140334 93.970581 
L 606.97018 93.970581 
L 607.136149 97.635292 
L 613.608944 97.635292 
L 613.774913 93.970581 
L 621.409492 93.970581 
L 621.575462 94.876908 
L 632.363454 94.876908 
L 632.529423 97.369305 
L 633.857176 97.369305 
L 634.023145 94.876908 
L 693.937993 94.876908 
L 694.103962 89.842856 
L 714.020255 89.842856 
L 714.186224 89.448801 
L 752.19315 89.448801 
L 752.35912 88.887273 
L 871.690909 88.887273 
L 871.690909 88.887273 
" style="fill:none;stroke:#8dd3c7;stroke-linecap:square;stroke-width:1.5;"/>
   </g>
   <g id="line2d_16">
    <path clip-path="url(#pc7282db560)" d="M 161.509091 215.989689 
L 169.309639 215.989689 
L 169.475608 205.271395 
L 205.324936 205.271395 
L 205.490905 191.735608 
L 214.951144 191.735608 
L 215.117113 187.253233 
L 215.283082 185.874041 
L 227.066889 185.874041 
L 227.232858 182.406358 
L 242.502016 182.406358 
L 242.667985 181.982749 
L 339.262007 181.982749 
L 339.427976 180.692219 
L 339.593945 159.432956 
L 401.500423 159.383699 
L 401.666392 157.699114 
L 544.565795 157.699114 
L 544.731764 157.45283 
L 545.229671 157.45283 
L 545.56161 148.27135 
L 554.357972 148.27135 
L 554.523941 140.222778 
L 554.85588 140.222778 
L 555.187818 121.268736 
L 563.486273 121.268736 
L 563.652242 119.781179 
L 563.984181 119.781179 
L 564.15015 116.382455 
L 564.316119 116.382455 
L 564.648057 100.639961 
L 592.364898 100.639961 
L 592.530867 93.507567 
L 693.937993 93.507567 
L 694.103962 89.842856 
L 714.020255 89.842856 
L 714.186224 89.448801 
L 752.19315 89.448801 
L 752.35912 88.887273 
L 871.690909 88.887273 
L 871.690909 88.887273 
" style="fill:none;stroke:#feffb3;stroke-linecap:square;stroke-width:1.5;"/>
   </g>
   <g id="line2d_17">
    <path clip-path="url(#pc7282db560)" d="M 161.509091 481.550297 
L 164.662504 481.655683 
L 164.994442 481.756929 
L 167.981886 481.854197 
L 168.313824 481.947644 
L 171.301268 482.03742 
L 171.633207 482.123668 
L 174.620651 482.206528 
L 174.952589 482.286133 
L 177.940033 482.36261 
L 178.271971 482.436082 
L 181.259415 482.506668 
L 181.591353 482.574481 
L 184.578797 482.63963 
L 184.910735 482.702219 
L 187.898179 482.762349 
L 188.396087 482.820116 
L 192.877253 482.928932 
L 193.37516 482.980155 
L 197.856326 483.076643 
L 198.354233 483.122063 
L 202.835399 483.207619 
L 203.333306 483.247893 
L 207.814472 483.323757 
L 208.478349 483.359468 
L 214.453237 483.458402 
L 215.117113 483.488824 
L 222.751692 483.599018 
L 223.581538 483.623915 
L 232.709839 483.734474 
L 233.705653 483.754049 
L 244.327676 483.856367 
L 245.655429 483.871153 
L 260.924587 483.980648 
L 263.082186 484.000066 
L 290.799027 484.110204 
L 294.948255 484.124085 
L 871.690909 484.232727 
L 871.690909 484.232727 
" style="fill:none;stroke:#bfbbd9;stroke-linecap:square;stroke-width:1.5;"/>
   </g>
   <g id="patch_3">
    <path d="M 126 504 
L 126 69.12 
" style="fill:none;stroke:#ffffff;stroke-linecap:square;stroke-linejoin:miter;stroke-width:0.8;"/>
   </g>
   <g id="patch_4">
    <path d="M 907.2 504 
L 907.2 69.12 
" style="fill:none;stroke:#ffffff;stroke-linecap:square;stroke-linejoin:miter;stroke-width:0.8;"/>
   </g>
   <g id="patch_5">
    <path d="M 126 504 
L 907.2 504 
" style="fill:none;stroke:#ffffff;stroke-linecap:square;stroke-linejoin:miter;stroke-width:0.8;"/>
   </g>
   <g id="patch_6">
    <path d="M 126 69.12 
L 907.2 69.12 
" style="fill:none;stroke:#ffffff;stroke-linecap:square;stroke-linejoin:miter;stroke-width:0.8;"/>
   </g>
   <g id="text_16">
    <!-- instance 17 with error 0.0034764470710932915 -->
    <g style="fill:#ffffff;" transform="translate(370.411875 63.12)scale(0.12 -0.12)">
     <defs>
      <path d="M 2834 3397 
L 2834 2853 
Q 2591 2978 2328 3040 
Q 2066 3103 1784 3103 
Q 1356 3103 1142 2972 
Q 928 2841 928 2578 
Q 928 2378 1081 2264 
Q 1234 2150 1697 2047 
L 1894 2003 
Q 2506 1872 2764 1633 
Q 3022 1394 3022 966 
Q 3022 478 2636 193 
Q 2250 -91 1575 -91 
Q 1294 -91 989 -36 
Q 684 19 347 128 
L 347 722 
Q 666 556 975 473 
Q 1284 391 1588 391 
Q 1994 391 2212 530 
Q 2431 669 2431 922 
Q 2431 1156 2273 1281 
Q 2116 1406 1581 1522 
L 1381 1569 
Q 847 1681 609 1914 
Q 372 2147 372 2553 
Q 372 3047 722 3315 
Q 1072 3584 1716 3584 
Q 2034 3584 2315 3537 
Q 2597 3491 2834 3397 
z
" id="DejaVuSans-73" transform="scale(0.015625)"/>
      <path d="M 3122 3366 
L 3122 2828 
Q 2878 2963 2633 3030 
Q 2388 3097 2138 3097 
Q 1578 3097 1268 2742 
Q 959 2388 959 1747 
Q 959 1106 1268 751 
Q 1578 397 2138 397 
Q 2388 397 2633 464 
Q 2878 531 3122 666 
L 3122 134 
Q 2881 22 2623 -34 
Q 2366 -91 2075 -91 
Q 1284 -91 818 406 
Q 353 903 353 1747 
Q 353 2603 823 3093 
Q 1294 3584 2113 3584 
Q 2378 3584 2631 3529 
Q 2884 3475 3122 3366 
z
" id="DejaVuSans-63" transform="scale(0.015625)"/>
      <path id="DejaVuSans-20" transform="scale(0.015625)"/>
      <path d="M 525 4666 
L 3525 4666 
L 3525 4397 
L 1831 0 
L 1172 0 
L 2766 4134 
L 525 4134 
L 525 4666 
z
" id="DejaVuSans-37" transform="scale(0.015625)"/>
      <path d="M 269 3500 
L 844 3500 
L 1563 769 
L 2278 3500 
L 2956 3500 
L 3675 769 
L 4391 3500 
L 4966 3500 
L 4050 0 
L 3372 0 
L 2619 2869 
L 1863 0 
L 1184 0 
L 269 3500 
z
" id="DejaVuSans-77" transform="scale(0.015625)"/>
      <path d="M 3513 2113 
L 3513 0 
L 2938 0 
L 2938 2094 
Q 2938 2591 2744 2837 
Q 2550 3084 2163 3084 
Q 1697 3084 1428 2787 
Q 1159 2491 1159 1978 
L 1159 0 
L 581 0 
L 581 4863 
L 1159 4863 
L 1159 2956 
Q 1366 3272 1645 3428 
Q 1925 3584 2291 3584 
Q 2894 3584 3203 3211 
Q 3513 2838 3513 2113 
z
" id="DejaVuSans-68" transform="scale(0.015625)"/>
      <path d="M 684 794 
L 1344 794 
L 1344 0 
L 684 0 
L 684 794 
z
" id="DejaVuSans-2e" transform="scale(0.015625)"/>
      <path d="M 2113 2584 
Q 1688 2584 1439 2293 
Q 1191 2003 1191 1497 
Q 1191 994 1439 701 
Q 1688 409 2113 409 
Q 2538 409 2786 701 
Q 3034 994 3034 1497 
Q 3034 2003 2786 2293 
Q 2538 2584 2113 2584 
z
M 3366 4563 
L 3366 3988 
Q 3128 4100 2886 4159 
Q 2644 4219 2406 4219 
Q 1781 4219 1451 3797 
Q 1122 3375 1075 2522 
Q 1259 2794 1537 2939 
Q 1816 3084 2150 3084 
Q 2853 3084 3261 2657 
Q 3669 2231 3669 1497 
Q 3669 778 3244 343 
Q 2819 -91 2113 -91 
Q 1303 -91 875 529 
Q 447 1150 447 2328 
Q 447 3434 972 4092 
Q 1497 4750 2381 4750 
Q 2619 4750 2861 4703 
Q 3103 4656 3366 4563 
z
" id="DejaVuSans-36" transform="scale(0.015625)"/>
      <path d="M 703 97 
L 703 672 
Q 941 559 1184 500 
Q 1428 441 1663 441 
Q 2288 441 2617 861 
Q 2947 1281 2994 2138 
Q 2813 1869 2534 1725 
Q 2256 1581 1919 1581 
Q 1219 1581 811 2004 
Q 403 2428 403 3163 
Q 403 3881 828 4315 
Q 1253 4750 1959 4750 
Q 2769 4750 3195 4129 
Q 3622 3509 3622 2328 
Q 3622 1225 3098 567 
Q 2575 -91 1691 -91 
Q 1453 -91 1209 -44 
Q 966 3 703 97 
z
M 1959 2075 
Q 2384 2075 2632 2365 
Q 2881 2656 2881 3163 
Q 2881 3666 2632 3958 
Q 2384 4250 1959 4250 
Q 1534 4250 1286 3958 
Q 1038 3666 1038 3163 
Q 1038 2656 1286 2365 
Q 1534 2075 1959 2075 
z
" id="DejaVuSans-39" transform="scale(0.015625)"/>
     </defs>
     <use xlink:href="#DejaVuSans-69"/>
     <use x="27.783203" xlink:href="#DejaVuSans-6e"/>
     <use x="91.162109" xlink:href="#DejaVuSans-73"/>
     <use x="143.261719" xlink:href="#DejaVuSans-74"/>
     <use x="182.470703" xlink:href="#DejaVuSans-61"/>
     <use x="243.75" xlink:href="#DejaVuSans-6e"/>
     <use x="307.128906" xlink:href="#DejaVuSans-63"/>
     <use x="362.109375" xlink:href="#DejaVuSans-65"/>
     <use x="423.632812" xlink:href="#DejaVuSans-20"/>
     <use x="455.419922" xlink:href="#DejaVuSans-31"/>
     <use x="519.042969" xlink:href="#DejaVuSans-37"/>
     <use x="582.666016" xlink:href="#DejaVuSans-20"/>
     <use x="614.453125" xlink:href="#DejaVuSans-77"/>
     <use x="696.240234" xlink:href="#DejaVuSans-69"/>
     <use x="724.023438" xlink:href="#DejaVuSans-74"/>
     <use x="763.232422" xlink:href="#DejaVuSans-68"/>
     <use x="826.611328" xlink:href="#DejaVuSans-20"/>
     <use x="858.398438" xlink:href="#DejaVuSans-65"/>
     <use x="919.921875" xlink:href="#DejaVuSans-72"/>
     <use x="959.285156" xlink:href="#DejaVuSans-72"/>
     <use x="998.148438" xlink:href="#DejaVuSans-6f"/>
     <use x="1059.330078" xlink:href="#DejaVuSans-72"/>
     <use x="1100.443359" xlink:href="#DejaVuSans-20"/>
     <use x="1132.230469" xlink:href="#DejaVuSans-30"/>
     <use x="1195.853516" xlink:href="#DejaVuSans-2e"/>
     <use x="1227.640625" xlink:href="#DejaVuSans-30"/>
     <use x="1291.263672" xlink:href="#DejaVuSans-30"/>
     <use x="1354.886719" xlink:href="#DejaVuSans-33"/>
     <use x="1418.509766" xlink:href="#DejaVuSans-34"/>
     <use x="1482.132812" xlink:href="#DejaVuSans-37"/>
     <use x="1545.755859" xlink:href="#DejaVuSans-36"/>
     <use x="1609.378906" xlink:href="#DejaVuSans-34"/>
     <use x="1673.001953" xlink:href="#DejaVuSans-34"/>
     <use x="1736.625" xlink:href="#DejaVuSans-37"/>
     <use x="1800.248047" xlink:href="#DejaVuSans-30"/>
     <use x="1863.871094" xlink:href="#DejaVuSans-37"/>
     <use x="1927.494141" xlink:href="#DejaVuSans-31"/>
     <use x="1991.117188" xlink:href="#DejaVuSans-30"/>
     <use x="2054.740234" xlink:href="#DejaVuSans-39"/>
     <use x="2118.363281" xlink:href="#DejaVuSans-33"/>
     <use x="2181.986328" xlink:href="#DejaVuSans-32"/>
     <use x="2245.609375" xlink:href="#DejaVuSans-39"/>
     <use x="2309.232422" xlink:href="#DejaVuSans-31"/>
     <use x="2372.855469" xlink:href="#DejaVuSans-35"/>
    </g>
   </g>
   <g id="legend_1">
    <g id="patch_7">
     <path d="M 805.348438 499 
L 900.2 499 
Q 902.2 499 902.2 497 
L 902.2 453.965625 
Q 902.2 451.965625 900.2 451.965625 
L 805.348438 451.965625 
Q 803.348438 451.965625 803.348438 453.965625 
L 803.348438 497 
Q 803.348438 499 805.348438 499 
z
" style="opacity:0.8;stroke:#cccccc;stroke-linejoin:miter;"/>
    </g>
    <g id="line2d_18">
     <path d="M 807.348438 460.064062 
L 827.348438 460.064062 
" style="fill:none;stroke:#8dd3c7;stroke-linecap:square;stroke-width:1.5;"/>
    </g>
    <g id="line2d_19"/>
    <g id="text_17">
     <!-- cost -->
     <g style="fill:#ffffff;" transform="translate(835.348438 463.564062)scale(0.1 -0.1)">
      <use xlink:href="#DejaVuSans-63"/>
      <use x="54.980469" xlink:href="#DejaVuSans-6f"/>
      <use x="116.162109" xlink:href="#DejaVuSans-73"/>
      <use x="168.261719" xlink:href="#DejaVuSans-74"/>
     </g>
    </g>
    <g id="line2d_20">
     <path d="M 807.348438 474.742188 
L 827.348438 474.742188 
" style="fill:none;stroke:#feffb3;stroke-linecap:square;stroke-width:1.5;"/>
    </g>
    <g id="line2d_21"/>
    <g id="text_18">
     <!-- best cost -->
     <g style="fill:#ffffff;" transform="translate(835.348438 478.242188)scale(0.1 -0.1)">
      <defs>
       <path d="M 3116 1747 
Q 3116 2381 2855 2742 
Q 2594 3103 2138 3103 
Q 1681 3103 1420 2742 
Q 1159 2381 1159 1747 
Q 1159 1113 1420 752 
Q 1681 391 2138 391 
Q 2594 391 2855 752 
Q 3116 1113 3116 1747 
z
M 1159 2969 
Q 1341 3281 1617 3432 
Q 1894 3584 2278 3584 
Q 2916 3584 3314 3078 
Q 3713 2572 3713 1747 
Q 3713 922 3314 415 
Q 2916 -91 2278 -91 
Q 1894 -91 1617 61 
Q 1341 213 1159 525 
L 1159 0 
L 581 0 
L 581 4863 
L 1159 4863 
L 1159 2969 
z
" id="DejaVuSans-62" transform="scale(0.015625)"/>
      </defs>
      <use xlink:href="#DejaVuSans-62"/>
      <use x="63.476562" xlink:href="#DejaVuSans-65"/>
      <use x="125" xlink:href="#DejaVuSans-73"/>
      <use x="177.099609" xlink:href="#DejaVuSans-74"/>
      <use x="216.308594" xlink:href="#DejaVuSans-20"/>
      <use x="248.095703" xlink:href="#DejaVuSans-63"/>
      <use x="303.076172" xlink:href="#DejaVuSans-6f"/>
      <use x="364.257812" xlink:href="#DejaVuSans-73"/>
      <use x="416.357422" xlink:href="#DejaVuSans-74"/>
     </g>
    </g>
    <g id="line2d_22">
     <path d="M 807.348438 489.420313 
L 827.348438 489.420313 
" style="fill:none;stroke:#bfbbd9;stroke-linecap:square;stroke-width:1.5;"/>
    </g>
    <g id="line2d_23"/>
    <g id="text_19">
     <!-- temperature -->
     <g style="fill:#ffffff;" transform="translate(835.348438 492.920313)scale(0.1 -0.1)">
      <defs>
       <path d="M 3328 2828 
Q 3544 3216 3844 3400 
Q 4144 3584 4550 3584 
Q 5097 3584 5394 3201 
Q 5691 2819 5691 2113 
L 5691 0 
L 5113 0 
L 5113 2094 
Q 5113 2597 4934 2840 
Q 4756 3084 4391 3084 
Q 3944 3084 3684 2787 
Q 3425 2491 3425 1978 
L 3425 0 
L 2847 0 
L 2847 2094 
Q 2847 2600 2669 2842 
Q 2491 3084 2119 3084 
Q 1678 3084 1418 2786 
Q 1159 2488 1159 1978 
L 1159 0 
L 581 0 
L 581 3500 
L 1159 3500 
L 1159 2956 
Q 1356 3278 1631 3431 
Q 1906 3584 2284 3584 
Q 2666 3584 2933 3390 
Q 3200 3197 3328 2828 
z
" id="DejaVuSans-6d" transform="scale(0.015625)"/>
       <path d="M 1159 525 
L 1159 -1331 
L 581 -1331 
L 581 3500 
L 1159 3500 
L 1159 2969 
Q 1341 3281 1617 3432 
Q 1894 3584 2278 3584 
Q 2916 3584 3314 3078 
Q 3713 2572 3713 1747 
Q 3713 922 3314 415 
Q 2916 -91 2278 -91 
Q 1894 -91 1617 61 
Q 1341 213 1159 525 
z
M 3116 1747 
Q 3116 2381 2855 2742 
Q 2594 3103 2138 3103 
Q 1681 3103 1420 2742 
Q 1159 2381 1159 1747 
Q 1159 1113 1420 752 
Q 1681 391 2138 391 
Q 2594 391 2855 752 
Q 3116 1113 3116 1747 
z
" id="DejaVuSans-70" transform="scale(0.015625)"/>
       <path d="M 544 1381 
L 544 3500 
L 1119 3500 
L 1119 1403 
Q 1119 906 1312 657 
Q 1506 409 1894 409 
Q 2359 409 2629 706 
Q 2900 1003 2900 1516 
L 2900 3500 
L 3475 3500 
L 3475 0 
L 2900 0 
L 2900 538 
Q 2691 219 2414 64 
Q 2138 -91 1772 -91 
Q 1169 -91 856 284 
Q 544 659 544 1381 
z
M 1991 3584 
L 1991 3584 
z
" id="DejaVuSans-75" transform="scale(0.015625)"/>
      </defs>
      <use xlink:href="#DejaVuSans-74"/>
      <use x="39.208984" xlink:href="#DejaVuSans-65"/>
      <use x="100.732422" xlink:href="#DejaVuSans-6d"/>
      <use x="198.144531" xlink:href="#DejaVuSans-70"/>
      <use x="261.621094" xlink:href="#DejaVuSans-65"/>
      <use x="323.144531" xlink:href="#DejaVuSans-72"/>
      <use x="364.257812" xlink:href="#DejaVuSans-61"/>
      <use x="425.537109" xlink:href="#DejaVuSans-74"/>
      <use x="464.746094" xlink:href="#DejaVuSans-75"/>
      <use x="528.125" xlink:href="#DejaVuSans-72"/>
      <use x="566.988281" xlink:href="#DejaVuSans-65"/>
     </g>
    </g>
   </g>
  </g>
 </g>
 <defs>
  <clipPath id="pc7282db560">
   <rect height="434.88" width="781.2" x="126" y="69.12"/>
  </clipPath>
 </defs>
</svg>
