<?xml version="1.0" encoding="utf-8" standalone="no"?>
<!DOCTYPE svg PUBLIC "-//W3C//DTD SVG 1.1//EN"
  "http://www.w3.org/Graphics/SVG/1.1/DTD/svg11.dtd">
<svg height="576pt" version="1.1" viewBox="0 0 1008 576" width="1008pt" xmlns="http://www.w3.org/2000/svg" xmlns:xlink="http://www.w3.org/1999/xlink">
 <metadata>
  <rdf:RDF xmlns:cc="http://creativecommons.org/ns#" xmlns:dc="http://purl.org/dc/elements/1.1/" xmlns:rdf="http://www.w3.org/1999/02/22-rdf-syntax-ns#">
   <cc:Work>
    <dc:type rdf:resource="http://purl.org/dc/dcmitype/StillImage"/>
    <dc:date>2022-01-08T01:27:26.077275</dc:date>
    <dc:format>image/svg+xml</dc:format>
    <dc:creator>
     <cc:Agent>
      <dc:title>Matplotlib v3.4.3, https://matplotlib.org/</dc:title>
     </cc:Agent>
    </dc:creator>
   </cc:Work>
  </rdf:RDF>
 </metadata>
 <defs>
  <style type="text/css">*{stroke-linecap:butt;stroke-linejoin:round;}</style>
 </defs>
 <g id="figure_1">
  <g id="patch_1">
   <path d="M 0 576 
L 1008 576 
L 1008 0 
L 0 0 
z
"/>
  </g>
  <g id="axes_1">
   <g id="patch_2">
    <path d="M 126 504 
L 907.2 504 
L 907.2 69.12 
L 126 69.12 
z
"/>
   </g>
   <g id="matplotlib.axis_1">
    <g id="xtick_1">
     <g id="line2d_1">
      <defs>
       <path d="M 0 0 
L 0 3.5 
" id="m79ca2e9074" style="stroke:#ffffff;stroke-width:0.8;"/>
      </defs>
      <g>
       <use style="fill:#ffffff;stroke:#ffffff;stroke-width:0.8;" x="161.509091" xlink:href="#m79ca2e9074" y="504"/>
      </g>
     </g>
     <g id="text_1">
      <!-- 0 -->
      <g style="fill:#ffffff;" transform="translate(158.327841 518.598438)scale(0.1 -0.1)">
       <defs>
        <path d="M 2034 4250 
Q 1547 4250 1301 3770 
Q 1056 3291 1056 2328 
Q 1056 1369 1301 889 
Q 1547 409 2034 409 
Q 2525 409 2770 889 
Q 3016 1369 3016 2328 
Q 3016 3291 2770 3770 
Q 2525 4250 2034 4250 
z
M 2034 4750 
Q 2819 4750 3233 4129 
Q 3647 3509 3647 2328 
Q 3647 1150 3233 529 
Q 2819 -91 2034 -91 
Q 1250 -91 836 529 
Q 422 1150 422 2328 
Q 422 3509 836 4129 
Q 1250 4750 2034 4750 
z
" id="DejaVuSans-30" transform="scale(0.015625)"/>
       </defs>
       <use xlink:href="#DejaVuSans-30"/>
      </g>
     </g>
    </g>
    <g id="xtick_2">
     <g id="line2d_2">
      <g>
       <use style="fill:#ffffff;stroke:#ffffff;stroke-width:0.8;" x="331.653274" xlink:href="#m79ca2e9074" y="504"/>
      </g>
     </g>
     <g id="text_2">
      <!-- 500 -->
      <g style="fill:#ffffff;" transform="translate(322.109524 518.598438)scale(0.1 -0.1)">
       <defs>
        <path d="M 691 4666 
L 3169 4666 
L 3169 4134 
L 1269 4134 
L 1269 2991 
Q 1406 3038 1543 3061 
Q 1681 3084 1819 3084 
Q 2600 3084 3056 2656 
Q 3513 2228 3513 1497 
Q 3513 744 3044 326 
Q 2575 -91 1722 -91 
Q 1428 -91 1123 -41 
Q 819 9 494 109 
L 494 744 
Q 775 591 1075 516 
Q 1375 441 1709 441 
Q 2250 441 2565 725 
Q 2881 1009 2881 1497 
Q 2881 1984 2565 2268 
Q 2250 2553 1709 2553 
Q 1456 2553 1204 2497 
Q 953 2441 691 2322 
L 691 4666 
z
" id="DejaVuSans-35" transform="scale(0.015625)"/>
       </defs>
       <use xlink:href="#DejaVuSans-35"/>
       <use x="63.623047" xlink:href="#DejaVuSans-30"/>
       <use x="127.246094" xlink:href="#DejaVuSans-30"/>
      </g>
     </g>
    </g>
    <g id="xtick_3">
     <g id="line2d_3">
      <g>
       <use style="fill:#ffffff;stroke:#ffffff;stroke-width:0.8;" x="501.797456" xlink:href="#m79ca2e9074" y="504"/>
      </g>
     </g>
     <g id="text_3">
      <!-- 1000 -->
      <g style="fill:#ffffff;" transform="translate(489.072456 518.598438)scale(0.1 -0.1)">
       <defs>
        <path d="M 794 531 
L 1825 531 
L 1825 4091 
L 703 3866 
L 703 4441 
L 1819 4666 
L 2450 4666 
L 2450 531 
L 3481 531 
L 3481 0 
L 794 0 
L 794 531 
z
" id="DejaVuSans-31" transform="scale(0.015625)"/>
       </defs>
       <use xlink:href="#DejaVuSans-31"/>
       <use x="63.623047" xlink:href="#DejaVuSans-30"/>
       <use x="127.246094" xlink:href="#DejaVuSans-30"/>
       <use x="190.869141" xlink:href="#DejaVuSans-30"/>
      </g>
     </g>
    </g>
    <g id="xtick_4">
     <g id="line2d_4">
      <g>
       <use style="fill:#ffffff;stroke:#ffffff;stroke-width:0.8;" x="671.941639" xlink:href="#m79ca2e9074" y="504"/>
      </g>
     </g>
     <g id="text_4">
      <!-- 1500 -->
      <g style="fill:#ffffff;" transform="translate(659.216639 518.598438)scale(0.1 -0.1)">
       <use xlink:href="#DejaVuSans-31"/>
       <use x="63.623047" xlink:href="#DejaVuSans-35"/>
       <use x="127.246094" xlink:href="#DejaVuSans-30"/>
       <use x="190.869141" xlink:href="#DejaVuSans-30"/>
      </g>
     </g>
    </g>
    <g id="xtick_5">
     <g id="line2d_5">
      <g>
       <use style="fill:#ffffff;stroke:#ffffff;stroke-width:0.8;" x="842.085821" xlink:href="#m79ca2e9074" y="504"/>
      </g>
     </g>
     <g id="text_5">
      <!-- 2000 -->
      <g style="fill:#ffffff;" transform="translate(829.360821 518.598438)scale(0.1 -0.1)">
       <defs>
        <path d="M 1228 531 
L 3431 531 
L 3431 0 
L 469 0 
L 469 531 
Q 828 903 1448 1529 
Q 2069 2156 2228 2338 
Q 2531 2678 2651 2914 
Q 2772 3150 2772 3378 
Q 2772 3750 2511 3984 
Q 2250 4219 1831 4219 
Q 1534 4219 1204 4116 
Q 875 4013 500 3803 
L 500 4441 
Q 881 4594 1212 4672 
Q 1544 4750 1819 4750 
Q 2544 4750 2975 4387 
Q 3406 4025 3406 3419 
Q 3406 3131 3298 2873 
Q 3191 2616 2906 2266 
Q 2828 2175 2409 1742 
Q 1991 1309 1228 531 
z
" id="DejaVuSans-32" transform="scale(0.015625)"/>
       </defs>
       <use xlink:href="#DejaVuSans-32"/>
       <use x="63.623047" xlink:href="#DejaVuSans-30"/>
       <use x="127.246094" xlink:href="#DejaVuSans-30"/>
       <use x="190.869141" xlink:href="#DejaVuSans-30"/>
      </g>
     </g>
    </g>
    <g id="text_6">
     <!-- iteration -->
     <g style="fill:#ffffff;" transform="translate(495.477344 532.276562)scale(0.1 -0.1)">
      <defs>
       <path d="M 603 3500 
L 1178 3500 
L 1178 0 
L 603 0 
L 603 3500 
z
M 603 4863 
L 1178 4863 
L 1178 4134 
L 603 4134 
L 603 4863 
z
" id="DejaVuSans-69" transform="scale(0.015625)"/>
       <path d="M 1172 4494 
L 1172 3500 
L 2356 3500 
L 2356 3053 
L 1172 3053 
L 1172 1153 
Q 1172 725 1289 603 
Q 1406 481 1766 481 
L 2356 481 
L 2356 0 
L 1766 0 
Q 1100 0 847 248 
Q 594 497 594 1153 
L 594 3053 
L 172 3053 
L 172 3500 
L 594 3500 
L 594 4494 
L 1172 4494 
z
" id="DejaVuSans-74" transform="scale(0.015625)"/>
       <path d="M 3597 1894 
L 3597 1613 
L 953 1613 
Q 991 1019 1311 708 
Q 1631 397 2203 397 
Q 2534 397 2845 478 
Q 3156 559 3463 722 
L 3463 178 
Q 3153 47 2828 -22 
Q 2503 -91 2169 -91 
Q 1331 -91 842 396 
Q 353 884 353 1716 
Q 353 2575 817 3079 
Q 1281 3584 2069 3584 
Q 2775 3584 3186 3129 
Q 3597 2675 3597 1894 
z
M 3022 2063 
Q 3016 2534 2758 2815 
Q 2500 3097 2075 3097 
Q 1594 3097 1305 2825 
Q 1016 2553 972 2059 
L 3022 2063 
z
" id="DejaVuSans-65" transform="scale(0.015625)"/>
       <path d="M 2631 2963 
Q 2534 3019 2420 3045 
Q 2306 3072 2169 3072 
Q 1681 3072 1420 2755 
Q 1159 2438 1159 1844 
L 1159 0 
L 581 0 
L 581 3500 
L 1159 3500 
L 1159 2956 
Q 1341 3275 1631 3429 
Q 1922 3584 2338 3584 
Q 2397 3584 2469 3576 
Q 2541 3569 2628 3553 
L 2631 2963 
z
" id="DejaVuSans-72" transform="scale(0.015625)"/>
       <path d="M 2194 1759 
Q 1497 1759 1228 1600 
Q 959 1441 959 1056 
Q 959 750 1161 570 
Q 1363 391 1709 391 
Q 2188 391 2477 730 
Q 2766 1069 2766 1631 
L 2766 1759 
L 2194 1759 
z
M 3341 1997 
L 3341 0 
L 2766 0 
L 2766 531 
Q 2569 213 2275 61 
Q 1981 -91 1556 -91 
Q 1019 -91 701 211 
Q 384 513 384 1019 
Q 384 1609 779 1909 
Q 1175 2209 1959 2209 
L 2766 2209 
L 2766 2266 
Q 2766 2663 2505 2880 
Q 2244 3097 1772 3097 
Q 1472 3097 1187 3025 
Q 903 2953 641 2809 
L 641 3341 
Q 956 3463 1253 3523 
Q 1550 3584 1831 3584 
Q 2591 3584 2966 3190 
Q 3341 2797 3341 1997 
z
" id="DejaVuSans-61" transform="scale(0.015625)"/>
       <path d="M 1959 3097 
Q 1497 3097 1228 2736 
Q 959 2375 959 1747 
Q 959 1119 1226 758 
Q 1494 397 1959 397 
Q 2419 397 2687 759 
Q 2956 1122 2956 1747 
Q 2956 2369 2687 2733 
Q 2419 3097 1959 3097 
z
M 1959 3584 
Q 2709 3584 3137 3096 
Q 3566 2609 3566 1747 
Q 3566 888 3137 398 
Q 2709 -91 1959 -91 
Q 1206 -91 779 398 
Q 353 888 353 1747 
Q 353 2609 779 3096 
Q 1206 3584 1959 3584 
z
" id="DejaVuSans-6f" transform="scale(0.015625)"/>
       <path d="M 3513 2113 
L 3513 0 
L 2938 0 
L 2938 2094 
Q 2938 2591 2744 2837 
Q 2550 3084 2163 3084 
Q 1697 3084 1428 2787 
Q 1159 2491 1159 1978 
L 1159 0 
L 581 0 
L 581 3500 
L 1159 3500 
L 1159 2956 
Q 1366 3272 1645 3428 
Q 1925 3584 2291 3584 
Q 2894 3584 3203 3211 
Q 3513 2838 3513 2113 
z
" id="DejaVuSans-6e" transform="scale(0.015625)"/>
      </defs>
      <use xlink:href="#DejaVuSans-69"/>
      <use x="27.783203" xlink:href="#DejaVuSans-74"/>
      <use x="66.992188" xlink:href="#DejaVuSans-65"/>
      <use x="128.515625" xlink:href="#DejaVuSans-72"/>
      <use x="169.628906" xlink:href="#DejaVuSans-61"/>
      <use x="230.908203" xlink:href="#DejaVuSans-74"/>
      <use x="270.117188" xlink:href="#DejaVuSans-69"/>
      <use x="297.900391" xlink:href="#DejaVuSans-6f"/>
      <use x="359.082031" xlink:href="#DejaVuSans-6e"/>
     </g>
    </g>
   </g>
   <g id="matplotlib.axis_2">
    <g id="ytick_1">
     <g id="line2d_6">
      <defs>
       <path d="M 0 0 
L -3.5 0 
" id="m84804c7775" style="stroke:#ffffff;stroke-width:0.8;"/>
      </defs>
      <g>
       <use style="fill:#ffffff;stroke:#ffffff;stroke-width:0.8;" x="126" xlink:href="#m84804c7775" y="484.232727"/>
      </g>
     </g>
     <g id="text_7">
      <!-- 0 -->
      <g style="fill:#ffffff;" transform="translate(112.6375 488.031946)scale(0.1 -0.1)">
       <use xlink:href="#DejaVuSans-30"/>
      </g>
     </g>
    </g>
    <g id="ytick_2">
     <g id="line2d_7">
      <g>
       <use style="fill:#ffffff;stroke:#ffffff;stroke-width:0.8;" x="126" xlink:href="#m84804c7775" y="413.534327"/>
      </g>
     </g>
     <g id="text_8">
      <!-- 5000 -->
      <g style="fill:#ffffff;" transform="translate(93.55 417.333546)scale(0.1 -0.1)">
       <use xlink:href="#DejaVuSans-35"/>
       <use x="63.623047" xlink:href="#DejaVuSans-30"/>
       <use x="127.246094" xlink:href="#DejaVuSans-30"/>
       <use x="190.869141" xlink:href="#DejaVuSans-30"/>
      </g>
     </g>
    </g>
    <g id="ytick_3">
     <g id="line2d_8">
      <g>
       <use style="fill:#ffffff;stroke:#ffffff;stroke-width:0.8;" x="126" xlink:href="#m84804c7775" y="342.835927"/>
      </g>
     </g>
     <g id="text_9">
      <!-- 10000 -->
      <g style="fill:#ffffff;" transform="translate(87.1875 346.635145)scale(0.1 -0.1)">
       <use xlink:href="#DejaVuSans-31"/>
       <use x="63.623047" xlink:href="#DejaVuSans-30"/>
       <use x="127.246094" xlink:href="#DejaVuSans-30"/>
       <use x="190.869141" xlink:href="#DejaVuSans-30"/>
       <use x="254.492188" xlink:href="#DejaVuSans-30"/>
      </g>
     </g>
    </g>
    <g id="ytick_4">
     <g id="line2d_9">
      <g>
       <use style="fill:#ffffff;stroke:#ffffff;stroke-width:0.8;" x="126" xlink:href="#m84804c7775" y="272.137526"/>
      </g>
     </g>
     <g id="text_10">
      <!-- 15000 -->
      <g style="fill:#ffffff;" transform="translate(87.1875 275.936745)scale(0.1 -0.1)">
       <use xlink:href="#DejaVuSans-31"/>
       <use x="63.623047" xlink:href="#DejaVuSans-35"/>
       <use x="127.246094" xlink:href="#DejaVuSans-30"/>
       <use x="190.869141" xlink:href="#DejaVuSans-30"/>
       <use x="254.492188" xlink:href="#DejaVuSans-30"/>
      </g>
     </g>
    </g>
    <g id="ytick_5">
     <g id="line2d_10">
      <g>
       <use style="fill:#ffffff;stroke:#ffffff;stroke-width:0.8;" x="126" xlink:href="#m84804c7775" y="201.439126"/>
      </g>
     </g>
     <g id="text_11">
      <!-- 20000 -->
      <g style="fill:#ffffff;" transform="translate(87.1875 205.238345)scale(0.1 -0.1)">
       <use xlink:href="#DejaVuSans-32"/>
       <use x="63.623047" xlink:href="#DejaVuSans-30"/>
       <use x="127.246094" xlink:href="#DejaVuSans-30"/>
       <use x="190.869141" xlink:href="#DejaVuSans-30"/>
       <use x="254.492188" xlink:href="#DejaVuSans-30"/>
      </g>
     </g>
    </g>
    <g id="ytick_6">
     <g id="line2d_11">
      <g>
       <use style="fill:#ffffff;stroke:#ffffff;stroke-width:0.8;" x="126" xlink:href="#m84804c7775" y="130.740726"/>
      </g>
     </g>
     <g id="text_12">
      <!-- 25000 -->
      <g style="fill:#ffffff;" transform="translate(87.1875 134.539944)scale(0.1 -0.1)">
       <use xlink:href="#DejaVuSans-32"/>
       <use x="63.623047" xlink:href="#DejaVuSans-35"/>
       <use x="127.246094" xlink:href="#DejaVuSans-30"/>
       <use x="190.869141" xlink:href="#DejaVuSans-30"/>
       <use x="254.492188" xlink:href="#DejaVuSans-30"/>
      </g>
     </g>
    </g>
   </g>
   <g id="line2d_12">
    <path clip-path="url(#p90e36e0585)" d="M 161.509091 230.566867 
L 161.849379 221.220538 
L 162.529956 279.94263 
L 162.870244 252.313695 
L 163.210533 259.326976 
L 163.550821 278.740757 
L 164.231398 333.235084 
L 164.911975 290.236317 
L 165.252263 289.755568 
L 165.592551 297.277878 
L 165.93284 307.7978 
L 166.273128 295.595256 
L 166.613416 273.381818 
L 166.953705 262.211471 
L 167.293993 266.24128 
L 167.97457 304.913305 
L 168.314858 294.393383 
L 168.655147 287.380102 
L 168.995435 308.137152 
L 169.335723 283.717924 
L 170.356588 249.938229 
L 170.696877 224.925135 
L 171.037165 224.925135 
L 171.717742 257.290862 
L 172.05803 270.143832 
L 172.398319 236.533812 
L 172.738607 231.853578 
L 173.078895 207.377792 
L 173.759472 256.343504 
L 174.09976 253.303473 
L 174.440049 248.425283 
L 174.780337 260.627827 
L 175.801202 332.938151 
L 176.481779 282.402934 
L 176.822067 282.402934 
L 177.162356 250.433118 
L 177.502644 275.446212 
L 177.842932 264.92629 
L 178.183221 289.684869 
L 178.863798 241.49684 
L 179.204086 235.3178 
L 180.224951 311.134764 
L 180.565239 286.12167 
L 180.905528 277.835817 
L 181.245816 251.564292 
L 181.586104 257.743332 
L 181.926393 268.107718 
L 182.266681 261.928677 
L 182.60697 270.21453 
L 182.947258 247.817277 
L 183.287546 249.44334 
L 183.627835 255.62238 
L 184.308411 302.057089 
L 184.6487 283.152337 
L 184.988988 276.139056 
L 185.329276 255.226469 
L 185.669565 287.196286 
L 186.009853 292.074475 
L 186.350142 285.895435 
L 186.69043 265.138385 
L 187.030718 289.614171 
L 187.371007 267.400734 
L 187.711295 291.197815 
L 188.051583 270.440765 
L 188.391872 304.149762 
L 188.73216 310.979228 
L 189.072448 323.450425 
L 189.412737 344.363012 
L 189.753025 313.354694 
L 190.093314 338.367788 
L 190.433602 328.003402 
L 190.77389 323.125213 
L 191.114179 323.125213 
L 191.454467 333.645135 
L 191.794755 352.549887 
L 192.135044 340.347343 
L 193.155909 293.149091 
L 193.496197 266.877565 
L 193.836486 277.241951 
L 194.176774 274.20192 
L 194.517062 275.248256 
L 194.857351 250.235162 
L 195.197639 255.113352 
L 195.537927 267.315896 
L 195.878216 267.315896 
L 196.218504 289.529333 
L 196.558793 261.900398 
L 196.899081 259.14316 
L 197.239369 251.804666 
L 197.579658 260.345033 
L 197.919946 276.817761 
L 198.260234 262.890176 
L 198.940811 324.284666 
L 199.961676 251.832946 
L 200.301965 253.628685 
L 200.642253 244.084401 
L 200.982541 277.694421 
L 201.32283 287.238705 
L 201.663118 301.16629 
L 202.003406 289.430355 
L 202.343695 313.906141 
L 202.683983 291.87652 
L 203.024271 286.461022 
L 203.36456 311.983145 
L 203.704848 307.104955 
L 204.045137 339.074772 
L 204.385425 332.895732 
L 204.725713 312.138681 
L 205.40629 370.53556 
L 205.746578 387.404198 
L 206.086867 362.391104 
L 206.427155 384.307608 
L 206.767443 365.402856 
L 207.107732 337.773921 
L 207.788309 316.027093 
L 208.128597 304.291159 
L 208.809174 352.677144 
L 209.149462 354.303207 
L 209.48975 320.537651 
L 209.830039 330.081935 
L 210.170327 307.684682 
L 210.510615 311.247881 
L 210.850904 294.775154 
L 211.191192 301.788436 
L 212.552346 395.477956 
L 213.913499 312.972922 
L 214.253788 339.244448 
L 214.594076 337.618385 
L 214.934364 270.850816 
L 215.274653 287.719454 
L 215.614941 263.300226 
L 215.955229 280.706173 
L 216.295518 275.827983 
L 216.635806 298.592868 
L 216.976094 277.835817 
L 217.316383 304.107343 
L 217.656671 314.471729 
L 217.99696 288.299181 
L 218.337248 276.096637 
L 218.677536 242.486617 
L 219.017825 276.096637 
L 219.358113 288.186063 
L 219.698401 280.83343 
L 220.03869 290.179758 
L 220.378978 313.142599 
L 220.719266 303.598315 
L 221.059555 327.437815 
L 221.399843 333.616855 
L 222.08042 312.732548 
L 222.420708 298.083839 
L 223.101285 317.907671 
L 223.441573 284.297651 
L 223.781862 275.644167 
L 224.462438 320.58007 
L 224.802727 310.215685 
L 225.143015 304.036645 
L 225.483304 337.646664 
L 225.823592 303.881108 
L 226.16388 303.881108 
L 226.504169 281.964604 
L 226.844457 303.881108 
L 227.184745 303.697292 
L 227.525034 277.425767 
L 227.865322 262.225611 
L 228.20561 260.118798 
L 228.545899 286.376184 
L 228.886187 285.867156 
L 229.226476 305.57787 
L 229.566764 331.835256 
L 230.247341 280.564776 
L 230.587629 306.822162 
L 230.927917 324.256387 
L 231.268206 303.3438 
L 231.608494 317.228966 
L 231.948783 317.327944 
L 232.289071 300.431026 
L 232.629359 306.921139 
L 233.309936 260.076379 
L 233.650224 270.596301 
L 233.990513 272.802091 
L 234.330801 294.718595 
L 234.671089 306.45453 
L 235.011378 328.667967 
L 235.691955 279.235646 
L 236.032243 277.779259 
L 236.372531 292.654202 
L 236.71282 300.940055 
L 237.053108 288.737511 
L 237.393396 256.767694 
L 237.733685 255.141631 
L 238.073973 270.879095 
L 238.414261 267.839064 
L 238.75455 303.216543 
L 239.094838 322.121295 
L 239.775415 264.841451 
L 240.115703 240.422224 
L 240.455992 271.430542 
L 241.136568 274.541272 
L 241.476857 268.362232 
L 241.817145 277.906516 
L 242.157433 252.384393 
L 242.83801 277.439906 
L 243.178299 317.299665 
L 243.518587 334.224862 
L 244.199164 288.511276 
L 244.87974 330.180913 
L 245.220029 362.15073 
L 245.560317 341.238143 
L 245.900605 337.434569 
L 246.240894 346.498104 
L 246.581182 338.212251 
L 246.921471 359.124838 
L 247.261759 355.915131 
L 247.602047 338.028436 
L 247.942336 338.028436 
L 248.282624 345.296231 
L 248.963201 381.069622 
L 249.303489 356.311042 
L 249.643777 344.108498 
L 249.984066 318.586375 
L 250.324354 323.931174 
L 251.004931 373.872524 
L 251.685508 321.824362 
L 252.025796 334.026906 
L 252.366084 302.057089 
L 253.046661 345.890098 
L 253.38695 320.367975 
L 253.727238 352.337792 
L 254.407815 306.652485 
L 254.748103 322.248553 
L 255.088391 325.557238 
L 255.42868 332.570519 
L 255.768968 311.813469 
L 256.109256 314.8535 
L 256.449545 293.940913 
L 256.789833 282.204979 
L 257.130122 288.384019 
L 257.47041 285.343988 
L 257.810698 319.109544 
L 258.150987 287.691174 
L 258.491275 284.382489 
L 258.831563 258.110964 
L 259.171852 259.1573 
L 259.51214 271.359844 
L 259.852428 277.29851 
L 260.192717 293.757097 
L 260.533005 259.991541 
L 260.873294 286.263067 
L 261.213582 275.983519 
L 261.55387 279.645697 
L 261.894159 254.887117 
L 262.234447 272.604136 
L 262.574735 274.230199 
L 262.915024 247.972813 
L 263.255312 272.985907 
L 263.5956 306.595927 
L 263.935889 296.076005 
L 264.276177 262.465985 
L 264.616466 272.236504 
L 264.956754 272.236504 
L 265.297042 301.024893 
L 265.637331 293.813656 
L 265.977619 290.024222 
L 266.317907 272.87279 
L 266.658196 262.508404 
L 266.998484 256.329364 
L 267.338772 278.288287 
L 267.679061 285.301569 
L 268.019349 283.675505 
L 268.359638 283.675505 
L 268.699926 272.575856 
L 269.040214 248.736356 
L 269.380503 257.022208 
L 269.720791 274.329177 
L 270.061079 252.412673 
L 270.401368 256.216247 
L 270.741656 252.412673 
L 271.081945 226.141147 
L 271.422233 258.110964 
L 271.762521 251.931924 
L 272.10281 256.414202 
L 272.443098 282.58675 
L 272.783386 276.238034 
L 273.123675 280.550636 
L 273.463963 277.510605 
L 273.804251 302.269185 
L 274.14454 293.983332 
L 274.825117 341.718892 
L 275.165405 335.539852 
L 275.505693 366.54817 
L 275.845982 377.068092 
L 276.18627 409.037909 
L 276.526558 392.579321 
L 276.866847 367.566227 
L 277.547423 310.116707 
L 277.887712 299.752322 
L 278.228 306.765603 
L 278.568289 296.245681 
L 278.908577 320.085182 
L 279.589154 338.73542 
L 280.26973 293.064253 
L 280.610019 309.522841 
L 280.950307 293.064253 
L 281.290595 288.186063 
L 281.630884 277.821678 
L 281.971172 304.079064 
L 282.311461 308.957253 
L 282.651749 319.477175 
L 282.992037 322.517206 
L 283.672614 275.587608 
L 284.012902 247.958673 
L 284.353191 240.365665 
L 284.693479 216.526165 
L 285.033767 239.785938 
L 285.374056 236.745907 
L 285.714344 214.829403 
L 286.054633 248.439423 
L 286.394921 236.236879 
L 286.735209 312.478034 
L 287.075498 324.213968 
L 287.415786 328.017542 
L 287.756074 324.977511 
L 288.096363 302.764073 
L 288.436651 329.035599 
L 288.776939 308.123012 
L 289.117228 331.806976 
L 289.457516 345.861818 
L 290.138093 297.475833 
L 290.478381 319.68927 
L 290.81867 297.475833 
L 291.158958 185.220913 
L 291.499246 209.060414 
L 291.839535 212.043886 
L 292.179823 209.484604 
L 292.520112 241.850332 
L 292.8604 233.635178 
L 293.200688 200.025158 
L 293.540977 194.510683 
L 293.881265 236.335856 
L 294.221553 234.497698 
L 294.561842 248.934311 
L 294.90213 236.731768 
L 295.242418 256.145548 
L 295.582707 236.731768 
L 295.922995 248.934311 
L 296.603572 224.133313 
L 296.94386 239.785938 
L 297.624437 295.270043 
L 297.964725 270.850816 
L 298.305014 270.850816 
L 298.645302 295.270043 
L 299.325879 236.901444 
L 300.006456 314.966617 
L 300.346744 220.612532 
L 300.687032 244.452033 
L 301.027321 256.187967 
L 301.707897 296.358798 
L 302.048186 297.716208 
L 302.388474 292.781459 
L 302.728762 297.716208 
L 303.069051 300.756239 
L 303.409339 325.175466 
L 303.749628 302.778213 
L 304.089916 313.298135 
L 304.430204 292.541085 
L 304.770493 280.338541 
L 305.110781 274.159501 
L 305.451069 291.42405 
L 305.791358 280.211284 
L 306.131646 285.089473 
L 306.471934 254.081155 
L 306.812223 251.041124 
L 307.152511 253.218634 
L 307.833088 213.867905 
L 308.173376 239.998034 
L 308.513665 230.45375 
L 308.853953 256.711135 
L 309.194241 251.832946 
L 309.53453 251.323917 
L 309.874818 239.587983 
L 310.215107 259.963262 
L 310.555395 256.923231 
L 310.895683 279.320484 
L 311.235972 313.08604 
L 311.57626 286.814514 
L 311.916548 317.822833 
L 312.256837 314.019259 
L 312.937413 322.955537 
L 313.277702 309.169349 
L 313.61799 250.008927 
L 313.958279 259.779446 
L 314.638855 300.69968 
L 315.319432 278.132751 
L 315.65972 278.542801 
L 316.000009 270.864955 
L 316.340297 245.851861 
L 316.680585 247.774858 
L 317.361162 281.922185 
L 318.041739 338.25467 
L 318.382027 310.625736 
L 318.722316 304.446695 
L 319.062604 280.607195 
L 319.402892 278.585221 
L 319.743181 316.748217 
L 320.083469 294.831713 
L 320.423757 294.831713 
L 320.764046 289.995942 
L 321.104334 307.401888 
L 321.444623 286.630698 
L 321.784911 280.451658 
L 322.125199 280.451658 
L 322.465488 259.694608 
L 322.805776 255.834475 
L 323.146064 271.628498 
L 323.486353 296.104284 
L 323.826641 285.584362 
L 324.166929 302.453 
L 324.507218 268.687444 
L 324.847506 276.973297 
L 325.187795 252.214717 
L 325.528083 270.186251 
L 325.868371 276.365291 
L 326.20866 264.629356 
L 326.548948 296.768849 
L 327.229525 253.770082 
L 328.25039 278.754897 
L 328.590678 299.511947 
L 328.930967 273.240421 
L 329.271255 295.453859 
L 329.611543 294.845853 
L 329.951832 286.927632 
L 330.29212 264.530379 
L 330.632408 308.731018 
L 330.972697 309.579399 
L 331.312985 317.667296 
L 331.653274 337.434569 
L 331.993562 334.394538 
L 332.33385 334.394538 
L 332.674139 345.564885 
L 333.354715 300.968334 
L 333.695004 308.476504 
L 334.035292 292.017917 
L 334.37558 312.774967 
L 335.056157 336.345814 
L 335.736734 377.690238 
L 336.077022 355.292985 
L 336.417311 347.007132 
L 336.757599 362.108311 
L 337.097887 365.911885 
L 337.438176 362.108311 
L 337.778464 350.980382 
L 338.118752 345.918377 
L 338.459041 314.910059 
L 338.799329 304.390137 
L 339.139618 328.865923 
L 339.479906 326.843949 
L 339.820194 293.233929 
L 340.500771 334.691471 
L 340.841059 326.405619 
L 341.521636 346.427405 
L 341.861924 334.691471 
L 342.202213 329.813281 
L 342.88279 286.757956 
L 343.223078 291.636145 
L 343.563366 289.189981 
L 343.903655 265.35048 
L 344.243943 262.310449 
L 344.584231 293.813656 
L 345.264808 249.44334 
L 345.605096 251.620851 
L 345.945385 265.916067 
L 346.285673 299.681623 
L 346.625962 282.812985 
L 346.96625 310.272244 
L 347.306538 316.521982 
L 347.646827 307.868498 
L 347.987115 330.265751 
L 348.327403 307.868498 
L 349.00798 329.332532 
L 349.348269 331.326227 
L 350.028845 391.363309 
L 350.709422 344.829622 
L 351.04971 338.650581 
L 351.389999 328.130659 
L 351.730287 322.149575 
L 352.070575 329.162856 
L 352.410864 297.193039 
L 352.751152 284.990496 
L 353.091441 297.193039 
L 353.431729 285.457105 
L 354.112306 327.126742 
L 354.792882 277.128833 
L 355.133171 288.864768 
L 355.473459 288.030527 
L 356.154036 284.198674 
L 356.494324 274.654389 
L 356.834613 252.737885 
L 357.174901 263.865814 
L 357.515189 240.026313 
L 357.855478 250.546235 
L 358.195766 244.367195 
L 358.536054 245.03176 
L 359.216631 295.722513 
L 359.556919 274.965462 
L 359.897208 308.731018 
L 360.237496 315.7443 
L 361.258361 228.756988 
L 361.59865 209.343207 
L 361.938938 216.695841 
L 362.279226 313.764745 
L 362.619515 328.286196 
L 362.959803 328.286196 
L 363.300091 347.699977 
L 363.64038 314.089957 
L 363.980668 322.37581 
L 364.320957 337.081077 
L 364.661245 324.878533 
L 365.001533 345.79112 
L 365.341822 319.533734 
L 365.68211 351.503551 
L 366.022398 355.307125 
L 366.362687 374.211877 
L 366.702975 370.408303 
L 367.383552 320.297277 
L 367.72384 309.932891 
L 368.064129 309.932891 
L 368.404417 322.135435 
L 368.744705 325.175466 
L 369.084994 276.704643 
L 369.425282 276.704643 
L 369.76557 282.346375 
L 370.786436 321.682965 
L 371.126724 300.770379 
L 371.467012 347.035412 
L 371.807301 336.671026 
L 372.147589 340.4746 
L 372.487877 337.434569 
L 372.828166 312.958783 
L 373.168454 300.756239 
L 373.508742 279.999189 
L 373.849031 315.913976 
L 374.189319 305.818244 
L 374.529608 346.540523 
L 374.869896 324.624019 
L 375.210184 315.079735 
L 375.550473 321.725384 
L 375.890761 333.616855 
L 376.231049 333.616855 
L 376.571338 315.956395 
L 376.911626 306.101038 
L 377.251914 300.869356 
L 377.592203 323.082794 
L 377.932491 327.027764 
L 378.27278 328.653828 
L 378.613068 353.412407 
L 378.953356 363.776793 
L 379.293645 358.898603 
L 379.633933 349.354319 
L 379.974221 317.384503 
L 380.31451 309.09865 
L 380.654798 331.495903 
L 380.995086 306.737324 
L 381.335375 235.190542 
L 381.675663 257.955427 
L 382.015952 264.134467 
L 382.696528 244.225798 
L 383.036817 264.982848 
L 383.377105 298.592868 
L 383.717393 293.870215 
L 384.057682 304.390137 
L 384.39797 232.998892 
L 384.738258 226.43808 
L 385.078547 202.59858 
L 385.418835 199.558549 
L 385.759124 233.168568 
L 386.099412 245.371112 
L 386.779989 318.360141 
L 387.460565 295.637675 
L 387.800854 290.632228 
L 388.141142 268.715724 
L 388.481431 237.707405 
L 388.821719 268.715724 
L 389.162007 285.824737 
L 389.502296 309.664237 
L 389.842584 307.910917 
L 390.182872 284.071416 
L 390.523161 271.048771 
L 390.863449 266.213 
L 391.203737 257.927148 
L 391.544026 268.192556 
L 391.884314 268.376372 
L 392.564891 311.360999 
L 392.905179 337.363871 
L 393.245468 344.193336 
L 393.585756 296.528475 
L 393.926044 306.89286 
L 394.266333 281.879766 
L 394.606621 281.879766 
L 394.946909 278.839735 
L 395.287198 257.927148 
L 395.627486 268.44707 
L 395.967775 271.487101 
L 396.308063 302.49542 
L 396.648351 278.076192 
L 396.98864 306.355552 
L 397.328928 306.256574 
L 397.669216 294.054031 
L 398.009505 317.313804 
L 398.349793 306.793882 
L 398.690081 325.698635 
L 399.03037 306.284854 
L 399.370658 306.284854 
L 399.710947 284.36835 
L 400.051235 282.869544 
L 400.391523 295.072087 
L 400.731812 282.714007 
L 401.0721 294.746875 
L 401.412388 319.618572 
L 401.752677 329.982958 
L 402.433253 281.596972 
L 402.773542 256.583878 
L 403.11383 282.855404 
L 403.454119 282.855404 
L 403.794407 268.956098 
L 404.134695 285.414686 
L 404.474984 281.611112 
L 404.815272 302.368162 
L 405.15556 297.023363 
L 405.495849 324.652298 
L 405.836137 319.774109 
L 406.176425 297.857604 
L 406.516714 320.071042 
L 407.197291 252.695466 
L 407.877867 303.230683 
L 408.558444 265.859508 
L 408.898732 265.760531 
L 409.239021 262.720499 
L 409.579309 313.08604 
L 409.919598 285.457105 
L 410.259886 279.744674 
L 410.600174 281.370737 
L 410.940463 315.136293 
L 411.621039 267.725946 
L 411.961328 236.717628 
L 412.301616 241.595817 
L 412.641904 222.691065 
L 412.982193 220.612532 
L 413.322481 266.722029 
L 414.003058 317.370363 
L 414.343346 283.604807 
L 414.683635 308.080593 
L 415.023923 301.463223 
L 415.364211 279.744674 
L 415.7045 313.51023 
L 416.044788 291.296793 
L 416.385076 315.71602 
L 416.725365 312.675989 
L 417.065653 290.278736 
L 417.405942 290.278736 
L 417.74623 315.800858 
L 418.086518 299.342271 
L 418.426807 336.685166 
L 418.767095 338.791978 
L 419.107383 338.791978 
L 419.447672 361.189231 
L 420.128248 316.592681 
L 420.468537 307.048396 
L 421.149114 271.798174 
L 421.489402 287.832571 
L 421.82969 287.832571 
L 422.169979 267.626968 
L 422.510267 267.626968 
L 422.850555 261.447928 
L 423.190844 293.134951 
L 423.531132 259.524932 
L 423.87142 281.441436 
L 424.211709 281.441436 
L 424.551997 273.480796 
L 424.892286 275.318954 
L 425.232574 281.497995 
L 425.572862 315.263551 
L 426.253439 261.462068 
L 426.593727 264.502099 
L 426.934016 233.493781 
L 427.274304 221.291237 
L 427.614592 297.504112 
L 427.954881 331.269668 
L 428.295169 306.511089 
L 428.635458 307.613984 
L 428.975746 274.003964 
L 429.316034 265.718112 
L 429.656323 268.758143 
L 429.996611 323.379727 
L 430.336899 312.859805 
L 430.677188 322.78586 
L 431.357765 289.175841 
L 431.698053 322.78586 
L 432.038341 317.907671 
L 432.37863 324.56746 
L 432.718918 310.781272 
L 433.059206 313.863722 
L 433.399495 332.768475 
L 433.739783 306.595927 
L 434.080071 317.115849 
L 434.42036 293.276348 
L 434.760648 282.756426 
L 435.441225 331.354507 
L 435.781513 341.874428 
L 436.121802 265.152524 
L 436.46209 282.940242 
L 437.142667 263.229528 
L 437.482955 267.033102 
L 437.823243 260.854062 
L 438.163532 234.596676 
L 438.50382 225.052392 
L 438.844109 277.171253 
L 439.184397 245.201436 
L 439.524685 277.171253 
L 439.864974 266.806867 
L 440.205262 249.980648 
L 440.54555 242.486617 
L 440.885839 250.857308 
L 441.226127 249.44334 
L 441.566415 273.919126 
L 441.906704 257.460538 
L 442.246992 257.460538 
L 442.587281 265.209083 
L 442.927569 255.664799 
L 443.267857 276.959157 
L 443.608146 256.202107 
L 443.948434 265.746391 
L 444.288722 292.498666 
L 444.629011 282.954382 
L 444.969299 292.498666 
L 445.309587 311.403418 
L 445.649876 289.006165 
L 445.990164 316.6351 
L 446.330453 291.87652 
L 446.670741 282.021163 
L 447.011029 258.181662 
L 447.691606 303.032727 
L 448.031894 299.907858 
L 448.372183 273.636332 
L 448.712471 320.537651 
L 449.05276 288.567835 
L 449.393048 299.031198 
L 449.733336 287.295263 
L 450.073625 256.286945 
L 450.413913 263.300226 
L 450.754201 259.496652 
L 451.09449 250.899727 
L 451.434778 267.358315 
L 451.775066 244.961061 
L 452.115355 264.374842 
L 452.795932 221.206399 
L 453.13622 252.214717 
L 453.476508 230.298213 
L 453.816797 252.214717 
L 454.157085 227.738931 
L 454.497373 227.484417 
L 454.837662 217.940133 
L 455.518238 268.588467 
L 455.858527 242.316941 
L 456.198815 264.530379 
L 456.539104 262.904315 
L 456.879392 259.100741 
L 457.21968 259.850144 
L 457.559969 283.689645 
L 457.900257 286.842794 
L 458.240545 270.949793 
L 458.580834 295.962887 
L 458.921122 285.598502 
L 459.26141 291.508888 
L 459.601699 303.711432 
L 459.941987 328.187218 
L 460.282276 303.174124 
L 460.622564 327.932704 
L 460.962852 331.736278 
L 461.303141 271.883012 
L 461.643429 296.641592 
L 461.983717 289.628311 
L 462.324006 287.422521 
L 462.664294 292.30071 
L 463.004582 282.756426 
L 463.344871 314.726243 
L 463.685159 321.739524 
L 464.025448 309.53698 
L 464.365736 285.061194 
L 464.706024 305.973781 
L 465.046313 309.013812 
L 465.386601 324.001873 
L 465.726889 323.888755 
L 466.067178 317.228966 
L 466.407466 255.367866 
L 467.088043 270.271089 
L 467.428331 283.01094 
L 467.76862 257.997846 
L 468.108908 269.224752 
L 468.789485 305.026422 
L 469.129773 277.397487 
L 469.470061 277.397487 
L 469.81035 251.22494 
L 470.150638 270.63872 
L 470.490927 254.180133 
L 470.831215 244.635849 
L 471.511792 281.851487 
L 471.85208 270.115552 
L 472.192368 265.237363 
L 472.532657 275.757285 
L 472.872945 261.730722 
L 473.213233 273.466656 
L 473.553522 265.180804 
L 473.89381 282.699867 
L 474.574387 227.215763 
L 474.914675 253.487288 
L 475.254964 246.219493 
L 475.595252 221.460913 
L 475.93554 231.005197 
L 476.616117 284.226953 
L 477.296694 255.155771 
L 477.636982 282.784705 
L 478.317559 313.52437 
L 478.657847 313.52437 
L 478.998136 316.833055 
L 479.338424 308.179571 
L 479.678712 308.179571 
L 480.019001 344.631666 
L 480.359289 322.715162 
L 480.699577 344.928599 
L 481.380154 296.613313 
L 481.720443 243.858166 
L 482.060731 268.87126 
L 482.401019 267.386594 
L 482.741308 265.180804 
L 483.081596 237.551869 
L 483.421884 237.551869 
L 483.762173 262.762919 
L 484.102461 272.307203 
L 484.442749 251.394616 
L 484.783038 247.944534 
L 485.123326 247.534483 
L 485.463615 258.506875 
L 485.803903 286.13581 
L 486.144191 275.771424 
L 486.48448 281.71009 
L 486.824768 281.71009 
L 487.165056 315.320109 
L 487.505345 324.383644 
L 487.845633 324.383644 
L 488.185922 323.874616 
L 488.52621 314.330332 
L 488.866498 317.836972 
L 489.206787 293.997472 
L 489.547075 293.997472 
L 489.887363 270.172111 
L 490.227652 285.358127 
L 490.56794 262.960874 
L 490.908228 265.576715 
L 491.248517 274.62611 
L 491.588805 271.586079 
L 491.929094 280.734452 
L 492.60967 268.107718 
L 492.949959 271.487101 
L 493.630535 274.329177 
L 493.970824 281.653531 
L 494.6514 247.407226 
L 494.991689 302.226766 
L 495.331977 291.834101 
L 495.672266 300.119953 
L 496.012554 321.03254 
L 496.352842 289.062723 
L 496.693131 314.019259 
L 497.033419 330.477846 
L 497.373707 356.749372 
L 497.713996 337.84462 
L 498.054284 361.231651 
L 498.394572 347.09197 
L 498.734861 369.008475 
L 499.075149 348.251424 
L 499.415438 343.373235 
L 499.755726 362.787015 
L 500.096014 338.028436 
L 500.436303 342.906625 
L 500.776591 344.532688 
L 501.116879 334.168303 
L 501.457168 258.874507 
L 501.797456 258.874507 
L 502.137744 267.881483 
L 502.478033 262.23975 
L 503.15861 310.767132 
L 503.498898 284.509746 
L 503.839186 281.469715 
L 504.179475 259.553211 
L 504.519763 283.972439 
L 505.20034 230.071978 
L 505.540628 249.485759 
L 505.880916 218.477441 
L 506.221205 218.477441 
L 506.561493 228.997363 
L 506.901782 227.371299 
L 507.24207 235.897526 
L 507.582358 235.897526 
L 507.922647 262.154912 
L 508.262935 252.610628 
L 508.943512 299.045338 
L 509.2838 278.132751 
L 509.624089 303.145845 
L 509.964377 298.267655 
L 510.304665 277.510605 
L 510.644954 277.510605 
L 510.985242 265.308061 
L 511.32553 274.852345 
L 511.665819 248.594959 
L 512.006107 245.554928 
L 512.686684 289.925244 
L 513.026972 266.085743 
L 513.367261 267.711807 
L 513.707549 271.51538 
L 514.047837 237.749824 
L 514.388126 215.352571 
L 514.728414 255.085072 
L 515.068702 224.076754 
L 515.408991 214.53247 
L 515.749279 214.53247 
L 516.089567 213.231619 
L 516.429856 212.581194 
L 516.770144 200.37865 
L 517.110433 226.551198 
L 517.450721 199.120219 
L 517.791009 204.465018 
L 518.131298 219.325821 
L 518.811874 260.953039 
L 519.152163 254.773999 
L 519.492451 250.970425 
L 520.173028 298.154538 
L 520.513316 301.958112 
L 521.534181 229.930581 
L 521.87447 253.770082 
L 522.214758 253.770082 
L 522.895335 209.173531 
L 523.575911 191.795864 
L 523.9162 225.900773 
L 524.256488 245.314553 
L 524.596777 233.578619 
L 524.937065 240.5919 
L 525.277353 218.378463 
L 525.617642 218.378463 
L 525.95793 209.65428 
L 526.298218 206.614249 
L 526.978795 182.972704 
L 527.659372 231.358689 
L 527.99966 253.572126 
L 528.339949 265.77467 
L 528.680237 238.145736 
L 529.020525 231.132454 
L 529.360814 236.519672 
L 529.701102 210.347125 
L 530.04139 213.387156 
L 530.381679 229.845743 
L 530.721967 207.632306 
L 531.062256 229.54881 
L 531.402544 222.422411 
L 531.742832 200.505907 
L 532.083121 200.421069 
L 532.423409 232.390886 
L 532.763697 207.377792 
L 533.103986 231.217292 
L 533.444274 241.016091 
L 533.784562 241.016091 
L 534.124851 241.270605 
L 534.465139 269.040936 
L 534.805428 272.830371 
L 535.145716 291.735123 
L 535.486004 258.125103 
L 536.506869 253.246914 
L 537.187446 247.647601 
L 537.527734 273.466656 
L 537.868023 239.856637 
L 538.5486 296.316379 
L 538.888888 271.303285 
L 539.229176 268.758143 
L 539.569465 274.456434 
L 539.909753 243.448116 
L 540.250041 251.733968 
L 540.59033 245.554928 
L 541.611195 323.012095 
L 542.291772 278.839735 
L 542.63206 280.465798 
L 543.312637 270.864955 
L 543.652925 268.065299 
L 543.993213 291.904799 
L 544.333502 258.29478 
L 544.67379 261.334811 
L 545.014078 253.048958 
L 545.354367 282.996801 
L 545.694655 299.865439 
L 546.034944 330.873757 
L 546.375232 304.602232 
L 546.71552 338.212251 
L 547.055809 344.391292 
L 547.396097 327.522653 
L 547.736385 327.183301 
L 548.076674 327.183301 
L 548.416962 329.982958 
L 548.757251 349.693672 
L 549.097539 328.781085 
L 549.437827 347.502021 
L 550.118404 338.975794 
L 550.458692 258.902786 
L 550.798981 275.729005 
L 551.139269 269.79034 
L 551.479557 269.79034 
L 551.819846 249.033289 
L 552.160134 254.250831 
L 552.500423 299.455388 
L 552.840711 265.845369 
L 553.521288 310.498478 
L 553.861576 279.49016 
L 554.201864 279.49016 
L 554.542153 241.991729 
L 554.882441 243.617792 
L 555.222729 269.889317 
L 555.903306 226.735014 
L 556.243595 251.748108 
L 556.583883 239.545564 
L 556.924171 215.706063 
L 557.26446 205.186141 
L 557.604748 225.943192 
L 557.945036 233.295825 
L 558.285325 233.295825 
L 558.625613 243.603652 
L 558.965901 248.481842 
L 559.30619 265.378759 
L 559.646478 259.199719 
L 559.986767 259.199719 
L 560.327055 228.191401 
L 560.667343 237.368053 
L 562.028497 294.06817 
L 562.368785 269.592384 
L 562.709073 269.592384 
L 563.049362 291.989637 
L 563.38965 266.976543 
L 563.729939 285.881295 
L 564.750804 205.822427 
L 565.091092 205.822427 
L 565.43138 200.025158 
L 565.771669 227.654093 
L 566.111957 219.36824 
L 566.452246 219.693453 
L 567.132822 235.586453 
L 567.473111 217.713898 
L 567.813399 217.713898 
L 568.153687 247.308248 
L 568.493976 244.268217 
L 568.834264 265.180804 
L 569.174552 231.570784 
L 569.514841 294.294405 
L 569.855129 298.097979 
L 570.195418 271.826453 
L 570.535706 271.826453 
L 570.875994 249.909949 
L 571.216283 283.519969 
L 571.556571 283.519969 
L 571.896859 295.255903 
L 572.237148 286.970051 
L 572.577436 310.809551 
L 572.917724 318.077347 
L 573.258013 293.064253 
L 573.598301 315.461506 
L 573.93859 303.612454 
L 574.278878 320.735607 
L 574.619166 346.992993 
L 574.959455 346.992993 
L 575.299743 334.790449 
L 575.640031 313.877862 
L 575.98032 310.074288 
L 576.320608 336.345814 
L 576.660896 351.54597 
L 577.001185 372.458556 
L 577.341473 406.224112 
L 578.02205 368.852938 
L 578.362338 385.311526 
L 578.702627 379.132485 
L 579.042915 382.172517 
L 579.383203 380.546453 
L 579.723492 380.037425 
L 580.06378 356.197924 
L 580.404068 351.319735 
L 580.744357 358.333016 
L 581.084645 339.428264 
L 581.424934 353.822458 
L 581.765222 344.278174 
L 582.10551 313.269856 
L 582.445799 305.097121 
L 582.786087 315.461506 
L 583.126375 294.704456 
L 583.466664 294.704456 
L 583.806952 313.609208 
L 584.14724 344.617526 
L 584.487529 332.881592 
L 584.827817 332.881592 
L 585.168106 339.060632 
L 585.508394 355.51922 
L 585.848682 359.322794 
L 586.529259 323.959454 
L 586.869547 297.786906 
L 587.550124 315.263551 
L 587.890413 315.263551 
L 588.230701 309.904612 
L 588.570989 309.904612 
L 588.911278 370.08309 
L 589.251566 350.824846 
L 589.591854 257.969567 
L 589.932143 257.969567 
L 590.272431 280.36682 
L 590.612719 274.18778 
L 590.953008 274.18778 
L 591.293296 253.275193 
L 591.633585 253.275193 
L 591.973873 251.239079 
L 592.65445 263.526461 
L 592.994738 253.982177 
L 593.335026 263.526461 
L 593.675315 263.526461 
L 594.015603 262.26803 
L 594.355891 304.602232 
L 595.036468 348.265564 
L 595.376757 322.743441 
L 595.717045 310.540897 
L 596.057333 331.453484 
L 596.397622 297.843465 
L 596.73791 276.280453 
L 597.758775 276.280453 
L 598.099063 306.242435 
L 598.439352 285.570222 
L 598.77964 285.570222 
L 599.119929 273.367679 
L 600.140794 273.367679 
L 600.481082 276.492548 
L 600.82137 276.492548 
L 601.161659 262.522544 
L 601.501947 282.516052 
L 602.182524 282.516052 
L 602.522812 272.971768 
L 603.203389 243.179462 
L 603.543677 243.179462 
L 603.883966 218.166368 
L 604.224254 212.058026 
L 604.904831 212.072165 
L 605.245119 188.232665 
L 605.585408 199.92618 
L 606.265984 199.92618 
L 606.606273 206.10522 
L 606.946561 205.454795 
L 607.286849 174.446477 
L 608.307714 174.446477 
L 608.648003 169.568287 
L 609.32858 169.568287 
L 609.668868 177.090597 
L 610.009156 201.849177 
L 610.349445 198.809146 
L 611.030021 245.682185 
L 611.37031 245.682185 
L 611.710598 212.072165 
L 612.050886 205.893125 
L 612.391175 172.127569 
L 612.731463 172.127569 
L 613.071752 173.965728 
L 614.432905 173.965728 
L 614.773193 178.843917 
L 615.45377 178.843917 
L 615.794058 173.965728 
L 616.134347 180.144768 
L 616.814924 180.144768 
L 617.155212 188.359922 
L 618.856654 188.359922 
L 619.196942 176.157378 
L 619.53723 181.459758 
L 619.877519 180.356863 
L 620.898384 180.356863 
L 621.238672 154.099477 
L 621.578961 158.977667 
L 622.259537 158.977667 
L 622.599826 164.675958 
L 624.301268 164.675958 
L 624.641556 159.444276 
L 624.981844 159.444276 
L 625.322133 162.484307 
L 625.662421 162.484307 
L 626.002709 184.952259 
L 626.342998 184.952259 
L 626.683286 186.592462 
L 627.023575 186.592462 
L 627.363863 190.367757 
L 627.704151 169.412751 
L 629.405593 169.412751 
L 629.745881 169.568287 
L 630.08617 168.055341 
L 630.426458 168.055341 
L 630.766747 161.876301 
L 632.468188 161.876301 
L 632.808477 168.055341 
L 633.148765 163.177152 
L 633.829342 163.177152 
L 634.16963 156.998112 
L 635.530784 156.998112 
L 635.871072 157.761654 
L 636.21136 160.306797 
L 638.253091 160.306797 
L 638.593379 165.849551 
L 638.933667 165.849551 
L 639.273956 148.811237 
L 644.378281 148.811237 
L 644.718569 142.830152 
L 646.079723 142.830152 
L 646.420011 148.966773 
L 646.7603 148.966773 
L 647.100588 122.794226 
L 647.440876 144.71073 
L 647.781165 144.71073 
L 648.121453 141.670698 
L 649.822895 141.670698 
L 650.163183 122.794226 
L 656.628662 122.794226 
L 656.968951 123.967819 
L 660.031546 123.967819 
L 660.371834 121.945845 
L 685.893462 121.945845 
L 686.23375 121.351978 
L 687.254615 121.351978 
L 687.594904 110.832056 
L 690.657499 110.832056 
L 690.997787 105.953867 
L 697.122978 105.953867 
L 697.463266 103.748076 
L 700.185573 103.748076 
L 700.525861 105.586235 
L 722.304317 105.586235 
L 722.644605 103.748076 
L 743.402195 103.748076 
L 743.742484 102.645181 
L 803.633236 102.645181 
L 803.973524 94.401748 
L 861.14197 94.401748 
L 861.482258 88.887273 
L 871.690909 88.887273 
L 871.690909 88.887273 
" style="fill:none;stroke:#8dd3c7;stroke-linecap:square;stroke-width:1.5;"/>
   </g>
   <g id="line2d_13">
    <path clip-path="url(#p90e36e0585)" d="M 161.509091 230.566867 
L 161.849379 221.220538 
L 172.738607 221.220538 
L 173.078895 207.377792 
L 290.81867 207.377792 
L 291.158958 185.220913 
L 526.638507 185.220913 
L 526.978795 182.972704 
L 606.946561 182.972704 
L 607.286849 174.446477 
L 608.307714 174.446477 
L 608.648003 169.568287 
L 620.898384 169.568287 
L 621.238672 154.099477 
L 638.933667 154.099477 
L 639.273956 148.811237 
L 644.378281 148.811237 
L 644.718569 142.830152 
L 646.7603 142.830152 
L 647.100588 122.794226 
L 660.031546 122.794226 
L 660.371834 121.945845 
L 685.893462 121.945845 
L 686.23375 121.351978 
L 687.254615 121.351978 
L 687.594904 110.832056 
L 690.657499 110.832056 
L 690.997787 105.953867 
L 697.122978 105.953867 
L 697.463266 103.748076 
L 743.402195 103.748076 
L 743.742484 102.645181 
L 803.633236 102.645181 
L 803.973524 94.401748 
L 861.14197 94.401748 
L 861.482258 88.887273 
L 871.690909 88.887273 
L 871.690909 88.887273 
" style="fill:none;stroke:#feffb3;stroke-linecap:square;stroke-width:1.5;"/>
   </g>
   <g id="line2d_14">
    <path clip-path="url(#p90e36e0585)" d="M 161.509091 306.666625 
L 163.891109 306.666625 
L 164.231398 320.384549 
L 166.613416 320.384549 
L 166.953705 333.04269 
L 169.335723 333.04269 
L 169.676012 344.722922 
L 172.05803 344.722922 
L 172.398319 355.500795 
L 174.780337 355.500795 
L 175.120626 365.44602 
L 177.502644 365.44602 
L 177.842932 374.622923 
L 180.224951 374.622923 
L 180.565239 383.090862 
L 182.947258 383.090862 
L 183.287546 390.904608 
L 185.669565 390.904608 
L 186.009853 398.1147 
L 188.391872 398.1147 
L 188.73216 404.767775 
L 191.114179 404.767775 
L 191.454467 410.906864 
L 193.836486 410.906864 
L 194.176774 416.571676 
L 196.558793 416.571676 
L 196.899081 421.798851 
L 199.281099 421.798851 
L 199.621388 426.622199 
L 202.003406 426.622199 
L 202.343695 431.072918 
L 204.725713 431.072918 
L 205.066002 435.179796 
L 207.44802 435.179796 
L 207.788309 438.969395 
L 210.170327 438.969395 
L 210.510615 442.466227 
L 212.892634 442.466227 
L 213.232922 445.692911 
L 215.614941 445.692911 
L 215.955229 448.670316 
L 218.337248 448.670316 
L 218.677536 451.417701 
L 221.059555 451.417701 
L 221.399843 453.952836 
L 223.781862 453.952836 
L 224.12215 456.292118 
L 226.504169 456.292118 
L 226.844457 458.450679 
L 229.226476 458.450679 
L 229.566764 460.442479 
L 231.948783 460.442479 
L 232.289071 462.280402 
L 234.671089 462.280402 
L 235.011378 463.976335 
L 237.393396 463.976335 
L 237.733685 465.541249 
L 240.115703 465.541249 
L 240.455992 466.985265 
L 242.83801 466.985265 
L 243.178299 468.317723 
L 245.560317 468.317723 
L 245.900605 469.547241 
L 248.282624 469.547241 
L 248.622912 470.681773 
L 251.004931 470.681773 
L 251.345219 471.728656 
L 253.727238 471.728656 
L 254.067526 472.694662 
L 256.449545 472.694662 
L 256.789833 473.586039 
L 259.171852 473.586039 
L 259.51214 474.408552 
L 261.894159 474.408552 
L 262.234447 475.167522 
L 264.616466 475.167522 
L 264.956754 475.867857 
L 267.338772 475.867857 
L 267.679061 476.514088 
L 270.061079 476.514088 
L 270.401368 477.110393 
L 272.783386 477.110393 
L 273.123675 477.660632 
L 275.505693 477.660632 
L 275.845982 478.168361 
L 278.228 478.168361 
L 278.568289 478.636865 
L 280.950307 478.636865 
L 281.290595 479.069175 
L 283.672614 479.069175 
L 284.012902 479.468087 
L 286.394921 479.468087 
L 286.735209 479.836181 
L 289.117228 479.836181 
L 289.457516 480.175837 
L 291.839535 480.175837 
L 292.179823 480.489254 
L 294.561842 480.489254 
L 294.90213 480.778457 
L 297.284149 480.778457 
L 297.624437 481.045318 
L 300.006456 481.045318 
L 300.346744 481.291562 
L 302.728762 481.291562 
L 303.069051 481.518783 
L 305.451069 481.518783 
L 305.791358 481.728449 
L 308.173376 481.728449 
L 308.513665 481.921918 
L 310.895683 481.921918 
L 311.235972 482.10044 
L 313.61799 482.10044 
L 313.958279 482.265171 
L 316.340297 482.265171 
L 316.680585 482.417175 
L 319.062604 482.417175 
L 319.402892 482.557436 
L 321.784911 482.557436 
L 322.125199 482.686861 
L 324.507218 482.686861 
L 324.847506 482.806288 
L 329.951832 482.916488 
L 330.632408 483.018174 
L 335.396446 483.112005 
L 336.077022 483.198587 
L 340.841059 483.278479 
L 341.521636 483.3522 
L 346.285673 483.420226 
L 346.96625 483.482996 
L 351.730287 483.540916 
L 352.751152 483.594362 
L 359.897208 483.689187 
L 360.918073 483.731178 
L 370.786436 483.838671 
L 372.147589 483.869114 
L 384.39797 483.969115 
L 386.4397 483.98948 
L 406.176425 484.094174 
L 410.259886 484.114755 
L 506.901782 484.225654 
L 579.723492 484.23192 
L 871.690909 484.232727 
L 871.690909 484.232727 
" style="fill:none;stroke:#bfbbd9;stroke-linecap:square;stroke-width:1.5;"/>
   </g>
   <g id="patch_3">
    <path d="M 126 504 
L 126 69.12 
" style="fill:none;stroke:#ffffff;stroke-linecap:square;stroke-linejoin:miter;stroke-width:0.8;"/>
   </g>
   <g id="patch_4">
    <path d="M 907.2 504 
L 907.2 69.12 
" style="fill:none;stroke:#ffffff;stroke-linecap:square;stroke-linejoin:miter;stroke-width:0.8;"/>
   </g>
   <g id="patch_5">
    <path d="M 126 504 
L 907.2 504 
" style="fill:none;stroke:#ffffff;stroke-linecap:square;stroke-linejoin:miter;stroke-width:0.8;"/>
   </g>
   <g id="patch_6">
    <path d="M 126 69.12 
L 907.2 69.12 
" style="fill:none;stroke:#ffffff;stroke-linecap:square;stroke-linejoin:miter;stroke-width:0.8;"/>
   </g>
   <g id="text_13">
    <!-- instance 2 with error 0.003812306267146459 -->
    <g style="fill:#ffffff;" transform="translate(378.046875 63.12)scale(0.12 -0.12)">
     <defs>
      <path d="M 2834 3397 
L 2834 2853 
Q 2591 2978 2328 3040 
Q 2066 3103 1784 3103 
Q 1356 3103 1142 2972 
Q 928 2841 928 2578 
Q 928 2378 1081 2264 
Q 1234 2150 1697 2047 
L 1894 2003 
Q 2506 1872 2764 1633 
Q 3022 1394 3022 966 
Q 3022 478 2636 193 
Q 2250 -91 1575 -91 
Q 1294 -91 989 -36 
Q 684 19 347 128 
L 347 722 
Q 666 556 975 473 
Q 1284 391 1588 391 
Q 1994 391 2212 530 
Q 2431 669 2431 922 
Q 2431 1156 2273 1281 
Q 2116 1406 1581 1522 
L 1381 1569 
Q 847 1681 609 1914 
Q 372 2147 372 2553 
Q 372 3047 722 3315 
Q 1072 3584 1716 3584 
Q 2034 3584 2315 3537 
Q 2597 3491 2834 3397 
z
" id="DejaVuSans-73" transform="scale(0.015625)"/>
      <path d="M 3122 3366 
L 3122 2828 
Q 2878 2963 2633 3030 
Q 2388 3097 2138 3097 
Q 1578 3097 1268 2742 
Q 959 2388 959 1747 
Q 959 1106 1268 751 
Q 1578 397 2138 397 
Q 2388 397 2633 464 
Q 2878 531 3122 666 
L 3122 134 
Q 2881 22 2623 -34 
Q 2366 -91 2075 -91 
Q 1284 -91 818 406 
Q 353 903 353 1747 
Q 353 2603 823 3093 
Q 1294 3584 2113 3584 
Q 2378 3584 2631 3529 
Q 2884 3475 3122 3366 
z
" id="DejaVuSans-63" transform="scale(0.015625)"/>
      <path id="DejaVuSans-20" transform="scale(0.015625)"/>
      <path d="M 269 3500 
L 844 3500 
L 1563 769 
L 2278 3500 
L 2956 3500 
L 3675 769 
L 4391 3500 
L 4966 3500 
L 4050 0 
L 3372 0 
L 2619 2869 
L 1863 0 
L 1184 0 
L 269 3500 
z
" id="DejaVuSans-77" transform="scale(0.015625)"/>
      <path d="M 3513 2113 
L 3513 0 
L 2938 0 
L 2938 2094 
Q 2938 2591 2744 2837 
Q 2550 3084 2163 3084 
Q 1697 3084 1428 2787 
Q 1159 2491 1159 1978 
L 1159 0 
L 581 0 
L 581 4863 
L 1159 4863 
L 1159 2956 
Q 1366 3272 1645 3428 
Q 1925 3584 2291 3584 
Q 2894 3584 3203 3211 
Q 3513 2838 3513 2113 
z
" id="DejaVuSans-68" transform="scale(0.015625)"/>
      <path d="M 684 794 
L 1344 794 
L 1344 0 
L 684 0 
L 684 794 
z
" id="DejaVuSans-2e" transform="scale(0.015625)"/>
      <path d="M 2597 2516 
Q 3050 2419 3304 2112 
Q 3559 1806 3559 1356 
Q 3559 666 3084 287 
Q 2609 -91 1734 -91 
Q 1441 -91 1130 -33 
Q 819 25 488 141 
L 488 750 
Q 750 597 1062 519 
Q 1375 441 1716 441 
Q 2309 441 2620 675 
Q 2931 909 2931 1356 
Q 2931 1769 2642 2001 
Q 2353 2234 1838 2234 
L 1294 2234 
L 1294 2753 
L 1863 2753 
Q 2328 2753 2575 2939 
Q 2822 3125 2822 3475 
Q 2822 3834 2567 4026 
Q 2313 4219 1838 4219 
Q 1578 4219 1281 4162 
Q 984 4106 628 3988 
L 628 4550 
Q 988 4650 1302 4700 
Q 1616 4750 1894 4750 
Q 2613 4750 3031 4423 
Q 3450 4097 3450 3541 
Q 3450 3153 3228 2886 
Q 3006 2619 2597 2516 
z
" id="DejaVuSans-33" transform="scale(0.015625)"/>
      <path d="M 2034 2216 
Q 1584 2216 1326 1975 
Q 1069 1734 1069 1313 
Q 1069 891 1326 650 
Q 1584 409 2034 409 
Q 2484 409 2743 651 
Q 3003 894 3003 1313 
Q 3003 1734 2745 1975 
Q 2488 2216 2034 2216 
z
M 1403 2484 
Q 997 2584 770 2862 
Q 544 3141 544 3541 
Q 544 4100 942 4425 
Q 1341 4750 2034 4750 
Q 2731 4750 3128 4425 
Q 3525 4100 3525 3541 
Q 3525 3141 3298 2862 
Q 3072 2584 2669 2484 
Q 3125 2378 3379 2068 
Q 3634 1759 3634 1313 
Q 3634 634 3220 271 
Q 2806 -91 2034 -91 
Q 1263 -91 848 271 
Q 434 634 434 1313 
Q 434 1759 690 2068 
Q 947 2378 1403 2484 
z
M 1172 3481 
Q 1172 3119 1398 2916 
Q 1625 2713 2034 2713 
Q 2441 2713 2670 2916 
Q 2900 3119 2900 3481 
Q 2900 3844 2670 4047 
Q 2441 4250 2034 4250 
Q 1625 4250 1398 4047 
Q 1172 3844 1172 3481 
z
" id="DejaVuSans-38" transform="scale(0.015625)"/>
      <path d="M 2113 2584 
Q 1688 2584 1439 2293 
Q 1191 2003 1191 1497 
Q 1191 994 1439 701 
Q 1688 409 2113 409 
Q 2538 409 2786 701 
Q 3034 994 3034 1497 
Q 3034 2003 2786 2293 
Q 2538 2584 2113 2584 
z
M 3366 4563 
L 3366 3988 
Q 3128 4100 2886 4159 
Q 2644 4219 2406 4219 
Q 1781 4219 1451 3797 
Q 1122 3375 1075 2522 
Q 1259 2794 1537 2939 
Q 1816 3084 2150 3084 
Q 2853 3084 3261 2657 
Q 3669 2231 3669 1497 
Q 3669 778 3244 343 
Q 2819 -91 2113 -91 
Q 1303 -91 875 529 
Q 447 1150 447 2328 
Q 447 3434 972 4092 
Q 1497 4750 2381 4750 
Q 2619 4750 2861 4703 
Q 3103 4656 3366 4563 
z
" id="DejaVuSans-36" transform="scale(0.015625)"/>
      <path d="M 525 4666 
L 3525 4666 
L 3525 4397 
L 1831 0 
L 1172 0 
L 2766 4134 
L 525 4134 
L 525 4666 
z
" id="DejaVuSans-37" transform="scale(0.015625)"/>
      <path d="M 2419 4116 
L 825 1625 
L 2419 1625 
L 2419 4116 
z
M 2253 4666 
L 3047 4666 
L 3047 1625 
L 3713 1625 
L 3713 1100 
L 3047 1100 
L 3047 0 
L 2419 0 
L 2419 1100 
L 313 1100 
L 313 1709 
L 2253 4666 
z
" id="DejaVuSans-34" transform="scale(0.015625)"/>
      <path d="M 703 97 
L 703 672 
Q 941 559 1184 500 
Q 1428 441 1663 441 
Q 2288 441 2617 861 
Q 2947 1281 2994 2138 
Q 2813 1869 2534 1725 
Q 2256 1581 1919 1581 
Q 1219 1581 811 2004 
Q 403 2428 403 3163 
Q 403 3881 828 4315 
Q 1253 4750 1959 4750 
Q 2769 4750 3195 4129 
Q 3622 3509 3622 2328 
Q 3622 1225 3098 567 
Q 2575 -91 1691 -91 
Q 1453 -91 1209 -44 
Q 966 3 703 97 
z
M 1959 2075 
Q 2384 2075 2632 2365 
Q 2881 2656 2881 3163 
Q 2881 3666 2632 3958 
Q 2384 4250 1959 4250 
Q 1534 4250 1286 3958 
Q 1038 3666 1038 3163 
Q 1038 2656 1286 2365 
Q 1534 2075 1959 2075 
z
" id="DejaVuSans-39" transform="scale(0.015625)"/>
     </defs>
     <use xlink:href="#DejaVuSans-69"/>
     <use x="27.783203" xlink:href="#DejaVuSans-6e"/>
     <use x="91.162109" xlink:href="#DejaVuSans-73"/>
     <use x="143.261719" xlink:href="#DejaVuSans-74"/>
     <use x="182.470703" xlink:href="#DejaVuSans-61"/>
     <use x="243.75" xlink:href="#DejaVuSans-6e"/>
     <use x="307.128906" xlink:href="#DejaVuSans-63"/>
     <use x="362.109375" xlink:href="#DejaVuSans-65"/>
     <use x="423.632812" xlink:href="#DejaVuSans-20"/>
     <use x="455.419922" xlink:href="#DejaVuSans-32"/>
     <use x="519.042969" xlink:href="#DejaVuSans-20"/>
     <use x="550.830078" xlink:href="#DejaVuSans-77"/>
     <use x="632.617188" xlink:href="#DejaVuSans-69"/>
     <use x="660.400391" xlink:href="#DejaVuSans-74"/>
     <use x="699.609375" xlink:href="#DejaVuSans-68"/>
     <use x="762.988281" xlink:href="#DejaVuSans-20"/>
     <use x="794.775391" xlink:href="#DejaVuSans-65"/>
     <use x="856.298828" xlink:href="#DejaVuSans-72"/>
     <use x="895.662109" xlink:href="#DejaVuSans-72"/>
     <use x="934.525391" xlink:href="#DejaVuSans-6f"/>
     <use x="995.707031" xlink:href="#DejaVuSans-72"/>
     <use x="1036.820312" xlink:href="#DejaVuSans-20"/>
     <use x="1068.607422" xlink:href="#DejaVuSans-30"/>
     <use x="1132.230469" xlink:href="#DejaVuSans-2e"/>
     <use x="1164.017578" xlink:href="#DejaVuSans-30"/>
     <use x="1227.640625" xlink:href="#DejaVuSans-30"/>
     <use x="1291.263672" xlink:href="#DejaVuSans-33"/>
     <use x="1354.886719" xlink:href="#DejaVuSans-38"/>
     <use x="1418.509766" xlink:href="#DejaVuSans-31"/>
     <use x="1482.132812" xlink:href="#DejaVuSans-32"/>
     <use x="1545.755859" xlink:href="#DejaVuSans-33"/>
     <use x="1609.378906" xlink:href="#DejaVuSans-30"/>
     <use x="1673.001953" xlink:href="#DejaVuSans-36"/>
     <use x="1736.625" xlink:href="#DejaVuSans-32"/>
     <use x="1800.248047" xlink:href="#DejaVuSans-36"/>
     <use x="1863.871094" xlink:href="#DejaVuSans-37"/>
     <use x="1927.494141" xlink:href="#DejaVuSans-31"/>
     <use x="1991.117188" xlink:href="#DejaVuSans-34"/>
     <use x="2054.740234" xlink:href="#DejaVuSans-36"/>
     <use x="2118.363281" xlink:href="#DejaVuSans-34"/>
     <use x="2181.986328" xlink:href="#DejaVuSans-35"/>
     <use x="2245.609375" xlink:href="#DejaVuSans-39"/>
    </g>
   </g>
   <g id="legend_1">
    <g id="patch_7">
     <path d="M 805.348438 499 
L 900.2 499 
Q 902.2 499 902.2 497 
L 902.2 453.965625 
Q 902.2 451.965625 900.2 451.965625 
L 805.348438 451.965625 
Q 803.348438 451.965625 803.348438 453.965625 
L 803.348438 497 
Q 803.348438 499 805.348438 499 
z
" style="opacity:0.8;stroke:#cccccc;stroke-linejoin:miter;"/>
    </g>
    <g id="line2d_15">
     <path d="M 807.348438 460.064062 
L 827.348438 460.064062 
" style="fill:none;stroke:#8dd3c7;stroke-linecap:square;stroke-width:1.5;"/>
    </g>
    <g id="line2d_16"/>
    <g id="text_14">
     <!-- cost -->
     <g style="fill:#ffffff;" transform="translate(835.348438 463.564062)scale(0.1 -0.1)">
      <use xlink:href="#DejaVuSans-63"/>
      <use x="54.980469" xlink:href="#DejaVuSans-6f"/>
      <use x="116.162109" xlink:href="#DejaVuSans-73"/>
      <use x="168.261719" xlink:href="#DejaVuSans-74"/>
     </g>
    </g>
    <g id="line2d_17">
     <path d="M 807.348438 474.742188 
L 827.348438 474.742188 
" style="fill:none;stroke:#feffb3;stroke-linecap:square;stroke-width:1.5;"/>
    </g>
    <g id="line2d_18"/>
    <g id="text_15">
     <!-- best cost -->
     <g style="fill:#ffffff;" transform="translate(835.348438 478.242188)scale(0.1 -0.1)">
      <defs>
       <path d="M 3116 1747 
Q 3116 2381 2855 2742 
Q 2594 3103 2138 3103 
Q 1681 3103 1420 2742 
Q 1159 2381 1159 1747 
Q 1159 1113 1420 752 
Q 1681 391 2138 391 
Q 2594 391 2855 752 
Q 3116 1113 3116 1747 
z
M 1159 2969 
Q 1341 3281 1617 3432 
Q 1894 3584 2278 3584 
Q 2916 3584 3314 3078 
Q 3713 2572 3713 1747 
Q 3713 922 3314 415 
Q 2916 -91 2278 -91 
Q 1894 -91 1617 61 
Q 1341 213 1159 525 
L 1159 0 
L 581 0 
L 581 4863 
L 1159 4863 
L 1159 2969 
z
" id="DejaVuSans-62" transform="scale(0.015625)"/>
      </defs>
      <use xlink:href="#DejaVuSans-62"/>
      <use x="63.476562" xlink:href="#DejaVuSans-65"/>
      <use x="125" xlink:href="#DejaVuSans-73"/>
      <use x="177.099609" xlink:href="#DejaVuSans-74"/>
      <use x="216.308594" xlink:href="#DejaVuSans-20"/>
      <use x="248.095703" xlink:href="#DejaVuSans-63"/>
      <use x="303.076172" xlink:href="#DejaVuSans-6f"/>
      <use x="364.257812" xlink:href="#DejaVuSans-73"/>
      <use x="416.357422" xlink:href="#DejaVuSans-74"/>
     </g>
    </g>
    <g id="line2d_19">
     <path d="M 807.348438 489.420313 
L 827.348438 489.420313 
" style="fill:none;stroke:#bfbbd9;stroke-linecap:square;stroke-width:1.5;"/>
    </g>
    <g id="line2d_20"/>
    <g id="text_16">
     <!-- temperature -->
     <g style="fill:#ffffff;" transform="translate(835.348438 492.920313)scale(0.1 -0.1)">
      <defs>
       <path d="M 3328 2828 
Q 3544 3216 3844 3400 
Q 4144 3584 4550 3584 
Q 5097 3584 5394 3201 
Q 5691 2819 5691 2113 
L 5691 0 
L 5113 0 
L 5113 2094 
Q 5113 2597 4934 2840 
Q 4756 3084 4391 3084 
Q 3944 3084 3684 2787 
Q 3425 2491 3425 1978 
L 3425 0 
L 2847 0 
L 2847 2094 
Q 2847 2600 2669 2842 
Q 2491 3084 2119 3084 
Q 1678 3084 1418 2786 
Q 1159 2488 1159 1978 
L 1159 0 
L 581 0 
L 581 3500 
L 1159 3500 
L 1159 2956 
Q 1356 3278 1631 3431 
Q 1906 3584 2284 3584 
Q 2666 3584 2933 3390 
Q 3200 3197 3328 2828 
z
" id="DejaVuSans-6d" transform="scale(0.015625)"/>
       <path d="M 1159 525 
L 1159 -1331 
L 581 -1331 
L 581 3500 
L 1159 3500 
L 1159 2969 
Q 1341 3281 1617 3432 
Q 1894 3584 2278 3584 
Q 2916 3584 3314 3078 
Q 3713 2572 3713 1747 
Q 3713 922 3314 415 
Q 2916 -91 2278 -91 
Q 1894 -91 1617 61 
Q 1341 213 1159 525 
z
M 3116 1747 
Q 3116 2381 2855 2742 
Q 2594 3103 2138 3103 
Q 1681 3103 1420 2742 
Q 1159 2381 1159 1747 
Q 1159 1113 1420 752 
Q 1681 391 2138 391 
Q 2594 391 2855 752 
Q 3116 1113 3116 1747 
z
" id="DejaVuSans-70" transform="scale(0.015625)"/>
       <path d="M 544 1381 
L 544 3500 
L 1119 3500 
L 1119 1403 
Q 1119 906 1312 657 
Q 1506 409 1894 409 
Q 2359 409 2629 706 
Q 2900 1003 2900 1516 
L 2900 3500 
L 3475 3500 
L 3475 0 
L 2900 0 
L 2900 538 
Q 2691 219 2414 64 
Q 2138 -91 1772 -91 
Q 1169 -91 856 284 
Q 544 659 544 1381 
z
M 1991 3584 
L 1991 3584 
z
" id="DejaVuSans-75" transform="scale(0.015625)"/>
      </defs>
      <use xlink:href="#DejaVuSans-74"/>
      <use x="39.208984" xlink:href="#DejaVuSans-65"/>
      <use x="100.732422" xlink:href="#DejaVuSans-6d"/>
      <use x="198.144531" xlink:href="#DejaVuSans-70"/>
      <use x="261.621094" xlink:href="#DejaVuSans-65"/>
      <use x="323.144531" xlink:href="#DejaVuSans-72"/>
      <use x="364.257812" xlink:href="#DejaVuSans-61"/>
      <use x="425.537109" xlink:href="#DejaVuSans-74"/>
      <use x="464.746094" xlink:href="#DejaVuSans-75"/>
      <use x="528.125" xlink:href="#DejaVuSans-72"/>
      <use x="566.988281" xlink:href="#DejaVuSans-65"/>
     </g>
    </g>
   </g>
  </g>
 </g>
 <defs>
  <clipPath id="p90e36e0585">
   <rect height="434.88" width="781.2" x="126" y="69.12"/>
  </clipPath>
 </defs>
</svg>
