<?xml version="1.0" encoding="utf-8" standalone="no"?>
<!DOCTYPE svg PUBLIC "-//W3C//DTD SVG 1.1//EN"
  "http://www.w3.org/Graphics/SVG/1.1/DTD/svg11.dtd">
<svg height="576pt" version="1.1" viewBox="0 0 1008 576" width="1008pt" xmlns="http://www.w3.org/2000/svg" xmlns:xlink="http://www.w3.org/1999/xlink">
 <metadata>
  <rdf:RDF xmlns:cc="http://creativecommons.org/ns#" xmlns:dc="http://purl.org/dc/elements/1.1/" xmlns:rdf="http://www.w3.org/1999/02/22-rdf-syntax-ns#">
   <cc:Work>
    <dc:type rdf:resource="http://purl.org/dc/dcmitype/StillImage"/>
    <dc:date>2022-01-07T21:26:35.316556</dc:date>
    <dc:format>image/svg+xml</dc:format>
    <dc:creator>
     <cc:Agent>
      <dc:title>Matplotlib v3.4.3, https://matplotlib.org/</dc:title>
     </cc:Agent>
    </dc:creator>
   </cc:Work>
  </rdf:RDF>
 </metadata>
 <defs>
  <style type="text/css">*{stroke-linecap:butt;stroke-linejoin:round;}</style>
 </defs>
 <g id="figure_1">
  <g id="patch_1">
   <path d="M 0 576 
L 1008 576 
L 1008 0 
L 0 0 
z
"/>
  </g>
  <g id="axes_1">
   <g id="patch_2">
    <path d="M 126 504 
L 907.2 504 
L 907.2 69.12 
L 126 69.12 
z
"/>
   </g>
   <g id="matplotlib.axis_1">
    <g id="xtick_1">
     <g id="line2d_1">
      <defs>
       <path d="M 0 0 
L 0 3.5 
" id="m6132c4f687" style="stroke:#ffffff;stroke-width:0.8;"/>
      </defs>
      <g>
       <use style="fill:#ffffff;stroke:#ffffff;stroke-width:0.8;" x="161.509091" xlink:href="#m6132c4f687" y="504"/>
      </g>
     </g>
     <g id="text_1">
      <!-- 0 -->
      <g style="fill:#ffffff;" transform="translate(158.327841 518.598438)scale(0.1 -0.1)">
       <defs>
        <path d="M 2034 4250 
Q 1547 4250 1301 3770 
Q 1056 3291 1056 2328 
Q 1056 1369 1301 889 
Q 1547 409 2034 409 
Q 2525 409 2770 889 
Q 3016 1369 3016 2328 
Q 3016 3291 2770 3770 
Q 2525 4250 2034 4250 
z
M 2034 4750 
Q 2819 4750 3233 4129 
Q 3647 3509 3647 2328 
Q 3647 1150 3233 529 
Q 2819 -91 2034 -91 
Q 1250 -91 836 529 
Q 422 1150 422 2328 
Q 422 3509 836 4129 
Q 1250 4750 2034 4750 
z
" id="DejaVuSans-30" transform="scale(0.015625)"/>
       </defs>
       <use xlink:href="#DejaVuSans-30"/>
      </g>
     </g>
    </g>
    <g id="xtick_2">
     <g id="line2d_2">
      <g>
       <use style="fill:#ffffff;stroke:#ffffff;stroke-width:0.8;" x="262.87675" xlink:href="#m6132c4f687" y="504"/>
      </g>
     </g>
     <g id="text_2">
      <!-- 500 -->
      <g style="fill:#ffffff;" transform="translate(253.333 518.598438)scale(0.1 -0.1)">
       <defs>
        <path d="M 691 4666 
L 3169 4666 
L 3169 4134 
L 1269 4134 
L 1269 2991 
Q 1406 3038 1543 3061 
Q 1681 3084 1819 3084 
Q 2600 3084 3056 2656 
Q 3513 2228 3513 1497 
Q 3513 744 3044 326 
Q 2575 -91 1722 -91 
Q 1428 -91 1123 -41 
Q 819 9 494 109 
L 494 744 
Q 775 591 1075 516 
Q 1375 441 1709 441 
Q 2250 441 2565 725 
Q 2881 1009 2881 1497 
Q 2881 1984 2565 2268 
Q 2250 2553 1709 2553 
Q 1456 2553 1204 2497 
Q 953 2441 691 2322 
L 691 4666 
z
" id="DejaVuSans-35" transform="scale(0.015625)"/>
       </defs>
       <use xlink:href="#DejaVuSans-35"/>
       <use x="63.623047" xlink:href="#DejaVuSans-30"/>
       <use x="127.246094" xlink:href="#DejaVuSans-30"/>
      </g>
     </g>
    </g>
    <g id="xtick_3">
     <g id="line2d_3">
      <g>
       <use style="fill:#ffffff;stroke:#ffffff;stroke-width:0.8;" x="364.244409" xlink:href="#m6132c4f687" y="504"/>
      </g>
     </g>
     <g id="text_3">
      <!-- 1000 -->
      <g style="fill:#ffffff;" transform="translate(351.519409 518.598438)scale(0.1 -0.1)">
       <defs>
        <path d="M 794 531 
L 1825 531 
L 1825 4091 
L 703 3866 
L 703 4441 
L 1819 4666 
L 2450 4666 
L 2450 531 
L 3481 531 
L 3481 0 
L 794 0 
L 794 531 
z
" id="DejaVuSans-31" transform="scale(0.015625)"/>
       </defs>
       <use xlink:href="#DejaVuSans-31"/>
       <use x="63.623047" xlink:href="#DejaVuSans-30"/>
       <use x="127.246094" xlink:href="#DejaVuSans-30"/>
       <use x="190.869141" xlink:href="#DejaVuSans-30"/>
      </g>
     </g>
    </g>
    <g id="xtick_4">
     <g id="line2d_4">
      <g>
       <use style="fill:#ffffff;stroke:#ffffff;stroke-width:0.8;" x="465.612068" xlink:href="#m6132c4f687" y="504"/>
      </g>
     </g>
     <g id="text_4">
      <!-- 1500 -->
      <g style="fill:#ffffff;" transform="translate(452.887068 518.598438)scale(0.1 -0.1)">
       <use xlink:href="#DejaVuSans-31"/>
       <use x="63.623047" xlink:href="#DejaVuSans-35"/>
       <use x="127.246094" xlink:href="#DejaVuSans-30"/>
       <use x="190.869141" xlink:href="#DejaVuSans-30"/>
      </g>
     </g>
    </g>
    <g id="xtick_5">
     <g id="line2d_5">
      <g>
       <use style="fill:#ffffff;stroke:#ffffff;stroke-width:0.8;" x="566.979726" xlink:href="#m6132c4f687" y="504"/>
      </g>
     </g>
     <g id="text_5">
      <!-- 2000 -->
      <g style="fill:#ffffff;" transform="translate(554.254726 518.598438)scale(0.1 -0.1)">
       <defs>
        <path d="M 1228 531 
L 3431 531 
L 3431 0 
L 469 0 
L 469 531 
Q 828 903 1448 1529 
Q 2069 2156 2228 2338 
Q 2531 2678 2651 2914 
Q 2772 3150 2772 3378 
Q 2772 3750 2511 3984 
Q 2250 4219 1831 4219 
Q 1534 4219 1204 4116 
Q 875 4013 500 3803 
L 500 4441 
Q 881 4594 1212 4672 
Q 1544 4750 1819 4750 
Q 2544 4750 2975 4387 
Q 3406 4025 3406 3419 
Q 3406 3131 3298 2873 
Q 3191 2616 2906 2266 
Q 2828 2175 2409 1742 
Q 1991 1309 1228 531 
z
" id="DejaVuSans-32" transform="scale(0.015625)"/>
       </defs>
       <use xlink:href="#DejaVuSans-32"/>
       <use x="63.623047" xlink:href="#DejaVuSans-30"/>
       <use x="127.246094" xlink:href="#DejaVuSans-30"/>
       <use x="190.869141" xlink:href="#DejaVuSans-30"/>
      </g>
     </g>
    </g>
    <g id="xtick_6">
     <g id="line2d_6">
      <g>
       <use style="fill:#ffffff;stroke:#ffffff;stroke-width:0.8;" x="668.347385" xlink:href="#m6132c4f687" y="504"/>
      </g>
     </g>
     <g id="text_6">
      <!-- 2500 -->
      <g style="fill:#ffffff;" transform="translate(655.622385 518.598438)scale(0.1 -0.1)">
       <use xlink:href="#DejaVuSans-32"/>
       <use x="63.623047" xlink:href="#DejaVuSans-35"/>
       <use x="127.246094" xlink:href="#DejaVuSans-30"/>
       <use x="190.869141" xlink:href="#DejaVuSans-30"/>
      </g>
     </g>
    </g>
    <g id="xtick_7">
     <g id="line2d_7">
      <g>
       <use style="fill:#ffffff;stroke:#ffffff;stroke-width:0.8;" x="769.715044" xlink:href="#m6132c4f687" y="504"/>
      </g>
     </g>
     <g id="text_7">
      <!-- 3000 -->
      <g style="fill:#ffffff;" transform="translate(756.990044 518.598438)scale(0.1 -0.1)">
       <defs>
        <path d="M 2597 2516 
Q 3050 2419 3304 2112 
Q 3559 1806 3559 1356 
Q 3559 666 3084 287 
Q 2609 -91 1734 -91 
Q 1441 -91 1130 -33 
Q 819 25 488 141 
L 488 750 
Q 750 597 1062 519 
Q 1375 441 1716 441 
Q 2309 441 2620 675 
Q 2931 909 2931 1356 
Q 2931 1769 2642 2001 
Q 2353 2234 1838 2234 
L 1294 2234 
L 1294 2753 
L 1863 2753 
Q 2328 2753 2575 2939 
Q 2822 3125 2822 3475 
Q 2822 3834 2567 4026 
Q 2313 4219 1838 4219 
Q 1578 4219 1281 4162 
Q 984 4106 628 3988 
L 628 4550 
Q 988 4650 1302 4700 
Q 1616 4750 1894 4750 
Q 2613 4750 3031 4423 
Q 3450 4097 3450 3541 
Q 3450 3153 3228 2886 
Q 3006 2619 2597 2516 
z
" id="DejaVuSans-33" transform="scale(0.015625)"/>
       </defs>
       <use xlink:href="#DejaVuSans-33"/>
       <use x="63.623047" xlink:href="#DejaVuSans-30"/>
       <use x="127.246094" xlink:href="#DejaVuSans-30"/>
       <use x="190.869141" xlink:href="#DejaVuSans-30"/>
      </g>
     </g>
    </g>
    <g id="xtick_8">
     <g id="line2d_8">
      <g>
       <use style="fill:#ffffff;stroke:#ffffff;stroke-width:0.8;" x="871.082703" xlink:href="#m6132c4f687" y="504"/>
      </g>
     </g>
     <g id="text_8">
      <!-- 3500 -->
      <g style="fill:#ffffff;" transform="translate(858.357703 518.598438)scale(0.1 -0.1)">
       <use xlink:href="#DejaVuSans-33"/>
       <use x="63.623047" xlink:href="#DejaVuSans-35"/>
       <use x="127.246094" xlink:href="#DejaVuSans-30"/>
       <use x="190.869141" xlink:href="#DejaVuSans-30"/>
      </g>
     </g>
    </g>
    <g id="text_9">
     <!-- iteration -->
     <g style="fill:#ffffff;" transform="translate(495.477344 532.276562)scale(0.1 -0.1)">
      <defs>
       <path d="M 603 3500 
L 1178 3500 
L 1178 0 
L 603 0 
L 603 3500 
z
M 603 4863 
L 1178 4863 
L 1178 4134 
L 603 4134 
L 603 4863 
z
" id="DejaVuSans-69" transform="scale(0.015625)"/>
       <path d="M 1172 4494 
L 1172 3500 
L 2356 3500 
L 2356 3053 
L 1172 3053 
L 1172 1153 
Q 1172 725 1289 603 
Q 1406 481 1766 481 
L 2356 481 
L 2356 0 
L 1766 0 
Q 1100 0 847 248 
Q 594 497 594 1153 
L 594 3053 
L 172 3053 
L 172 3500 
L 594 3500 
L 594 4494 
L 1172 4494 
z
" id="DejaVuSans-74" transform="scale(0.015625)"/>
       <path d="M 3597 1894 
L 3597 1613 
L 953 1613 
Q 991 1019 1311 708 
Q 1631 397 2203 397 
Q 2534 397 2845 478 
Q 3156 559 3463 722 
L 3463 178 
Q 3153 47 2828 -22 
Q 2503 -91 2169 -91 
Q 1331 -91 842 396 
Q 353 884 353 1716 
Q 353 2575 817 3079 
Q 1281 3584 2069 3584 
Q 2775 3584 3186 3129 
Q 3597 2675 3597 1894 
z
M 3022 2063 
Q 3016 2534 2758 2815 
Q 2500 3097 2075 3097 
Q 1594 3097 1305 2825 
Q 1016 2553 972 2059 
L 3022 2063 
z
" id="DejaVuSans-65" transform="scale(0.015625)"/>
       <path d="M 2631 2963 
Q 2534 3019 2420 3045 
Q 2306 3072 2169 3072 
Q 1681 3072 1420 2755 
Q 1159 2438 1159 1844 
L 1159 0 
L 581 0 
L 581 3500 
L 1159 3500 
L 1159 2956 
Q 1341 3275 1631 3429 
Q 1922 3584 2338 3584 
Q 2397 3584 2469 3576 
Q 2541 3569 2628 3553 
L 2631 2963 
z
" id="DejaVuSans-72" transform="scale(0.015625)"/>
       <path d="M 2194 1759 
Q 1497 1759 1228 1600 
Q 959 1441 959 1056 
Q 959 750 1161 570 
Q 1363 391 1709 391 
Q 2188 391 2477 730 
Q 2766 1069 2766 1631 
L 2766 1759 
L 2194 1759 
z
M 3341 1997 
L 3341 0 
L 2766 0 
L 2766 531 
Q 2569 213 2275 61 
Q 1981 -91 1556 -91 
Q 1019 -91 701 211 
Q 384 513 384 1019 
Q 384 1609 779 1909 
Q 1175 2209 1959 2209 
L 2766 2209 
L 2766 2266 
Q 2766 2663 2505 2880 
Q 2244 3097 1772 3097 
Q 1472 3097 1187 3025 
Q 903 2953 641 2809 
L 641 3341 
Q 956 3463 1253 3523 
Q 1550 3584 1831 3584 
Q 2591 3584 2966 3190 
Q 3341 2797 3341 1997 
z
" id="DejaVuSans-61" transform="scale(0.015625)"/>
       <path d="M 1959 3097 
Q 1497 3097 1228 2736 
Q 959 2375 959 1747 
Q 959 1119 1226 758 
Q 1494 397 1959 397 
Q 2419 397 2687 759 
Q 2956 1122 2956 1747 
Q 2956 2369 2687 2733 
Q 2419 3097 1959 3097 
z
M 1959 3584 
Q 2709 3584 3137 3096 
Q 3566 2609 3566 1747 
Q 3566 888 3137 398 
Q 2709 -91 1959 -91 
Q 1206 -91 779 398 
Q 353 888 353 1747 
Q 353 2609 779 3096 
Q 1206 3584 1959 3584 
z
" id="DejaVuSans-6f" transform="scale(0.015625)"/>
       <path d="M 3513 2113 
L 3513 0 
L 2938 0 
L 2938 2094 
Q 2938 2591 2744 2837 
Q 2550 3084 2163 3084 
Q 1697 3084 1428 2787 
Q 1159 2491 1159 1978 
L 1159 0 
L 581 0 
L 581 3500 
L 1159 3500 
L 1159 2956 
Q 1366 3272 1645 3428 
Q 1925 3584 2291 3584 
Q 2894 3584 3203 3211 
Q 3513 2838 3513 2113 
z
" id="DejaVuSans-6e" transform="scale(0.015625)"/>
      </defs>
      <use xlink:href="#DejaVuSans-69"/>
      <use x="27.783203" xlink:href="#DejaVuSans-74"/>
      <use x="66.992188" xlink:href="#DejaVuSans-65"/>
      <use x="128.515625" xlink:href="#DejaVuSans-72"/>
      <use x="169.628906" xlink:href="#DejaVuSans-61"/>
      <use x="230.908203" xlink:href="#DejaVuSans-74"/>
      <use x="270.117188" xlink:href="#DejaVuSans-69"/>
      <use x="297.900391" xlink:href="#DejaVuSans-6f"/>
      <use x="359.082031" xlink:href="#DejaVuSans-6e"/>
     </g>
    </g>
   </g>
   <g id="matplotlib.axis_2">
    <g id="ytick_1">
     <g id="line2d_9">
      <defs>
       <path d="M 0 0 
L -3.5 0 
" id="m29d5bdac21" style="stroke:#ffffff;stroke-width:0.8;"/>
      </defs>
      <g>
       <use style="fill:#ffffff;stroke:#ffffff;stroke-width:0.8;" x="126" xlink:href="#m29d5bdac21" y="484.232727"/>
      </g>
     </g>
     <g id="text_10">
      <!-- 0 -->
      <g style="fill:#ffffff;" transform="translate(112.6375 488.031946)scale(0.1 -0.1)">
       <use xlink:href="#DejaVuSans-30"/>
      </g>
     </g>
    </g>
    <g id="ytick_2">
     <g id="line2d_10">
      <g>
       <use style="fill:#ffffff;stroke:#ffffff;stroke-width:0.8;" x="126" xlink:href="#m29d5bdac21" y="433.94456"/>
      </g>
     </g>
     <g id="text_11">
      <!-- 5000 -->
      <g style="fill:#ffffff;" transform="translate(93.55 437.743779)scale(0.1 -0.1)">
       <use xlink:href="#DejaVuSans-35"/>
       <use x="63.623047" xlink:href="#DejaVuSans-30"/>
       <use x="127.246094" xlink:href="#DejaVuSans-30"/>
       <use x="190.869141" xlink:href="#DejaVuSans-30"/>
      </g>
     </g>
    </g>
    <g id="ytick_3">
     <g id="line2d_11">
      <g>
       <use style="fill:#ffffff;stroke:#ffffff;stroke-width:0.8;" x="126" xlink:href="#m29d5bdac21" y="383.656393"/>
      </g>
     </g>
     <g id="text_12">
      <!-- 10000 -->
      <g style="fill:#ffffff;" transform="translate(87.1875 387.455612)scale(0.1 -0.1)">
       <use xlink:href="#DejaVuSans-31"/>
       <use x="63.623047" xlink:href="#DejaVuSans-30"/>
       <use x="127.246094" xlink:href="#DejaVuSans-30"/>
       <use x="190.869141" xlink:href="#DejaVuSans-30"/>
       <use x="254.492188" xlink:href="#DejaVuSans-30"/>
      </g>
     </g>
    </g>
    <g id="ytick_4">
     <g id="line2d_12">
      <g>
       <use style="fill:#ffffff;stroke:#ffffff;stroke-width:0.8;" x="126" xlink:href="#m29d5bdac21" y="333.368226"/>
      </g>
     </g>
     <g id="text_13">
      <!-- 15000 -->
      <g style="fill:#ffffff;" transform="translate(87.1875 337.167445)scale(0.1 -0.1)">
       <use xlink:href="#DejaVuSans-31"/>
       <use x="63.623047" xlink:href="#DejaVuSans-35"/>
       <use x="127.246094" xlink:href="#DejaVuSans-30"/>
       <use x="190.869141" xlink:href="#DejaVuSans-30"/>
       <use x="254.492188" xlink:href="#DejaVuSans-30"/>
      </g>
     </g>
    </g>
    <g id="ytick_5">
     <g id="line2d_13">
      <g>
       <use style="fill:#ffffff;stroke:#ffffff;stroke-width:0.8;" x="126" xlink:href="#m29d5bdac21" y="283.080059"/>
      </g>
     </g>
     <g id="text_14">
      <!-- 20000 -->
      <g style="fill:#ffffff;" transform="translate(87.1875 286.879278)scale(0.1 -0.1)">
       <use xlink:href="#DejaVuSans-32"/>
       <use x="63.623047" xlink:href="#DejaVuSans-30"/>
       <use x="127.246094" xlink:href="#DejaVuSans-30"/>
       <use x="190.869141" xlink:href="#DejaVuSans-30"/>
       <use x="254.492188" xlink:href="#DejaVuSans-30"/>
      </g>
     </g>
    </g>
    <g id="ytick_6">
     <g id="line2d_14">
      <g>
       <use style="fill:#ffffff;stroke:#ffffff;stroke-width:0.8;" x="126" xlink:href="#m29d5bdac21" y="232.791892"/>
      </g>
     </g>
     <g id="text_15">
      <!-- 25000 -->
      <g style="fill:#ffffff;" transform="translate(87.1875 236.591111)scale(0.1 -0.1)">
       <use xlink:href="#DejaVuSans-32"/>
       <use x="63.623047" xlink:href="#DejaVuSans-35"/>
       <use x="127.246094" xlink:href="#DejaVuSans-30"/>
       <use x="190.869141" xlink:href="#DejaVuSans-30"/>
       <use x="254.492188" xlink:href="#DejaVuSans-30"/>
      </g>
     </g>
    </g>
    <g id="ytick_7">
     <g id="line2d_15">
      <g>
       <use style="fill:#ffffff;stroke:#ffffff;stroke-width:0.8;" x="126" xlink:href="#m29d5bdac21" y="182.503725"/>
      </g>
     </g>
     <g id="text_16">
      <!-- 30000 -->
      <g style="fill:#ffffff;" transform="translate(87.1875 186.302943)scale(0.1 -0.1)">
       <use xlink:href="#DejaVuSans-33"/>
       <use x="63.623047" xlink:href="#DejaVuSans-30"/>
       <use x="127.246094" xlink:href="#DejaVuSans-30"/>
       <use x="190.869141" xlink:href="#DejaVuSans-30"/>
       <use x="254.492188" xlink:href="#DejaVuSans-30"/>
      </g>
     </g>
    </g>
    <g id="ytick_8">
     <g id="line2d_16">
      <g>
       <use style="fill:#ffffff;stroke:#ffffff;stroke-width:0.8;" x="126" xlink:href="#m29d5bdac21" y="132.215558"/>
      </g>
     </g>
     <g id="text_17">
      <!-- 35000 -->
      <g style="fill:#ffffff;" transform="translate(87.1875 136.014776)scale(0.1 -0.1)">
       <use xlink:href="#DejaVuSans-33"/>
       <use x="63.623047" xlink:href="#DejaVuSans-35"/>
       <use x="127.246094" xlink:href="#DejaVuSans-30"/>
       <use x="190.869141" xlink:href="#DejaVuSans-30"/>
       <use x="254.492188" xlink:href="#DejaVuSans-30"/>
      </g>
     </g>
    </g>
    <g id="ytick_9">
     <g id="line2d_17">
      <g>
       <use style="fill:#ffffff;stroke:#ffffff;stroke-width:0.8;" x="126" xlink:href="#m29d5bdac21" y="81.92739"/>
      </g>
     </g>
     <g id="text_18">
      <!-- 40000 -->
      <g style="fill:#ffffff;" transform="translate(87.1875 85.726609)scale(0.1 -0.1)">
       <defs>
        <path d="M 2419 4116 
L 825 1625 
L 2419 1625 
L 2419 4116 
z
M 2253 4666 
L 3047 4666 
L 3047 1625 
L 3713 1625 
L 3713 1100 
L 3047 1100 
L 3047 0 
L 2419 0 
L 2419 1100 
L 313 1100 
L 313 1709 
L 2253 4666 
z
" id="DejaVuSans-34" transform="scale(0.015625)"/>
       </defs>
       <use xlink:href="#DejaVuSans-34"/>
       <use x="63.623047" xlink:href="#DejaVuSans-30"/>
       <use x="127.246094" xlink:href="#DejaVuSans-30"/>
       <use x="190.869141" xlink:href="#DejaVuSans-30"/>
       <use x="254.492188" xlink:href="#DejaVuSans-30"/>
      </g>
     </g>
    </g>
   </g>
   <g id="line2d_18">
    <path clip-path="url(#pe4b53575f1)" d="M 161.509091 285.996773 
L 161.914562 313.755841 
L 162.320032 334.273413 
L 162.725503 309.813249 
L 163.333709 363.118706 
L 163.536444 339.402806 
L 163.739179 209.780026 
L 163.941915 227.18979 
L 164.14465 229.704198 
L 164.347385 237.891112 
L 164.550121 256.668714 
L 164.752856 238.725895 
L 164.955591 242.085145 
L 165.361062 270.598536 
L 165.563797 260.349807 
L 165.766533 263.306752 
L 165.969268 243.794943 
L 166.172003 248.964566 
L 166.374739 249.889869 
L 166.780209 269.844213 
L 166.982944 284.598762 
L 167.18568 268.757989 
L 167.59115 309.954055 
L 167.793886 312.468464 
L 167.996621 267.400208 
L 168.604827 309.209791 
L 168.807562 308.545987 
L 169.010298 311.905236 
L 169.415768 329.516152 
L 169.618504 340.991912 
L 169.821239 322.505982 
L 170.023974 334.907044 
L 170.429445 304.563164 
L 170.63218 323.763186 
L 170.834916 311.985697 
L 171.037651 308.626448 
L 171.240386 308.415237 
L 171.443121 298.166509 
L 171.848592 318.1812 
L 172.051327 320.051919 
L 172.254063 300.540111 
L 172.456798 323.340765 
L 172.659533 320.283245 
L 172.862269 295.672216 
L 173.065004 319.066271 
L 173.267739 308.867831 
L 173.470475 285.473776 
L 173.67321 288.531296 
L 174.078681 253.912922 
L 174.281416 277.306977 
L 174.484151 274.048304 
L 174.889622 301.666565 
L 175.092357 289.889077 
L 175.295093 293.248326 
L 175.497828 274.048304 
L 175.700563 270.990784 
L 176.106034 308.163797 
L 176.308769 318.412525 
L 176.511504 315.053276 
L 176.71424 292.252621 
L 177.11971 333.539206 
L 177.322446 331.668486 
L 177.525181 321.852236 
L 177.727916 341.052258 
L 177.930652 316.52169 
L 178.133387 328.299179 
L 178.336122 331.356699 
L 178.538858 350.134301 
L 178.741593 327.715836 
L 178.944328 352.246404 
L 179.349799 357.476373 
L 179.958005 292.795733 
L 180.16074 302.994173 
L 180.363475 285.051355 
L 180.566211 307.85201 
L 180.768946 317.66826 
L 181.174417 274.943433 
L 181.579887 310.044574 
L 181.782623 301.85766 
L 182.188093 261.506435 
L 182.390829 280.133172 
L 182.593564 288.320086 
L 182.999035 329.898342 
L 183.404505 310.235669 
L 183.607241 331.809293 
L 183.809976 332.020503 
L 184.012711 310.446879 
L 184.215447 321.922639 
L 184.418182 346.533668 
L 184.620917 343.476148 
L 184.823652 365.049771 
L 185.026388 354.851331 
L 185.229123 377.269796 
L 185.634594 352.246404 
L 185.837329 329.827939 
L 186.040064 349.752111 
L 186.2428 353.010784 
L 186.851006 287.70657 
L 187.053741 306.1925 
L 187.256476 309.250021 
L 187.459212 286.449366 
L 187.661947 285.604525 
L 187.864682 288.662045 
L 188.067418 278.393202 
L 188.270153 288.662045 
L 188.675623 258.106955 
L 188.878359 255.803757 
L 189.081094 257.674477 
L 189.486565 286.700807 
L 189.6893 278.513893 
L 189.892035 294.354666 
L 190.094771 294.143456 
L 190.297506 294.807259 
L 190.500241 304.512876 
L 190.702977 329.123905 
L 191.108447 287.505418 
L 191.311183 294.746914 
L 191.513918 271.946259 
L 191.716653 272.157469 
L 191.919389 275.416142 
L 192.122124 295.340314 
L 192.324859 270.809746 
L 192.527595 286.399078 
L 192.933065 260.540902 
L 193.1358 263.900152 
L 193.338536 254.194536 
L 193.541271 273.394558 
L 193.744006 253.470386 
L 194.149477 279.328562 
L 194.554948 244.287767 
L 194.757683 268.818335 
L 195.163154 235.286185 
L 195.365889 232.027512 
L 195.77136 259.072488 
L 195.974095 281.873143 
L 196.379566 288.491066 
L 196.582301 263.880037 
L 196.785036 255.974737 
L 196.987772 274.460667 
L 197.190507 255.83393 
L 197.595977 285.252508 
L 197.798713 275.003779 
L 198.204183 268.385856 
L 198.406919 248.874048 
L 198.609654 252.132721 
L 198.812389 272.056893 
L 199.015125 261.788049 
L 199.21786 277.628822 
L 199.420595 266.153062 
L 199.623331 265.941852 
L 200.028801 232.027512 
L 200.231537 254.445977 
L 200.839743 227.561922 
L 201.245213 246.942982 
L 201.447949 222.412414 
L 201.650684 223.337716 
L 202.25889 289.527002 
L 202.461625 305.116334 
L 202.66436 292.715272 
L 203.069831 240.506097 
L 203.272566 258.992027 
L 203.475302 257.19171 
L 203.678037 246.922867 
L 203.880772 246.238948 
L 204.083508 244.126845 
L 204.286243 262.753582 
L 204.488978 243.55356 
L 204.691714 246.61108 
L 204.894449 228.668262 
L 205.29992 249.749062 
L 205.70539 231.514572 
L 205.908126 246.269121 
L 206.110861 221.658092 
L 206.516331 251.438744 
L 206.719067 232.812007 
L 206.921802 237.126732 
L 207.124537 222.372184 
L 207.327273 217.725557 
L 207.732743 264.835512 
L 207.935479 272.740812 
L 208.138214 297.351841 
L 208.340949 273.957785 
L 208.74642 255.522143 
L 208.949155 274.722166 
L 209.151891 272.207757 
L 209.354626 248.491858 
L 209.557361 259.887156 
L 209.760097 259.887156 
L 209.962832 278.373086 
L 210.165567 280.243806 
L 210.368302 255.632777 
L 210.773773 276.180522 
L 210.976508 279.439196 
L 211.381979 316.612209 
L 211.990185 263.668826 
L 212.19292 275.144586 
L 212.395656 297.945241 
L 212.598391 294.686568 
L 212.801126 276.74375 
L 213.003862 279.80127 
L 213.206597 287.042766 
L 213.409332 262.512199 
L 213.612068 259.99779 
L 213.814803 242.346644 
L 214.017538 242.557854 
L 214.220274 240.043445 
L 214.423009 243.402695 
L 214.625744 253.651423 
L 214.828479 243.402695 
L 215.031215 223.890886 
L 215.23395 223.679676 
L 215.436685 219.07328 
L 215.639421 242.467335 
L 215.842156 217.856306 
L 216.450362 271.010899 
L 216.855833 235.708605 
L 217.261303 271.47355 
L 217.464039 281.67199 
L 217.666774 277.025364 
L 217.869509 255.45174 
L 218.072245 269.995078 
L 218.27498 250.070906 
L 218.477715 248.552203 
L 218.680451 271.614357 
L 218.883186 260.89292 
L 219.085921 282.094411 
L 219.288656 271.895971 
L 219.491392 272.107181 
L 219.896862 303.929533 
L 220.302333 275.717871 
L 220.505068 284.297033 
L 220.707804 272.519544 
L 220.910539 291.005474 
L 221.113274 276.250926 
L 221.31601 270.608593 
L 221.72148 304.874951 
L 221.924216 296.688037 
L 222.126951 278.202107 
L 222.329686 224.142327 
L 222.532422 235.618087 
L 222.937892 205.877665 
L 223.140628 229.27172 
L 223.343363 239.47016 
L 223.546098 236.41264 
L 223.748833 224.93688 
L 223.951569 234.75313 
L 224.154304 254.264939 
L 224.559775 235.919816 
L 224.76251 259.313871 
L 225.167981 217.433886 
L 225.370716 240.827941 
L 225.573451 218.952588 
L 225.978922 241.059266 
L 226.384393 202.910663 
L 226.789863 240.91846 
L 226.992599 251.167188 
L 227.195334 242.980274 
L 227.398069 218.369245 
L 227.600805 218.369245 
L 227.80354 226.274545 
L 228.006275 227.57198 
L 228.20901 217.37354 
L 228.411746 220.43106 
L 228.614481 217.916652 
L 228.817216 239.439987 
L 229.019952 241.310707 
L 229.222687 223.367889 
L 229.628158 266.75652 
L 229.830893 270.015193 
L 230.033628 254.425861 
L 230.236364 251.368341 
L 230.84457 217.96694 
L 231.047305 233.556272 
L 231.25004 276.059831 
L 231.452776 287.978126 
L 231.655511 272.388795 
L 231.858246 280.575708 
L 232.263717 272.087066 
L 232.466452 230.257368 
L 232.669187 230.046158 
L 232.871923 272.298276 
L 233.074658 284.075765 
L 233.277393 303.999936 
L 233.480129 285.373199 
L 233.682864 300.127748 
L 233.885599 275.516719 
L 234.088335 283.703632 
L 234.29107 299.292964 
L 234.493805 291.10605 
L 234.899276 259.816753 
L 235.102011 278.44349 
L 235.304747 263.688942 
L 235.507482 288.21951 
L 235.710217 280.978014 
L 235.912953 284.256802 
L 236.115688 301.274318 
L 236.521158 305.659446 
L 236.723894 297.472532 
L 236.926629 241.008978 
L 237.129364 242.306413 
L 237.73757 289.818673 
L 237.940306 288.893371 
L 238.345776 258.629952 
L 238.751247 299.916537 
L 238.953982 289.718097 
L 239.156718 265.107068 
L 239.359453 273.012368 
L 239.562188 294.585992 
L 239.764924 275.80839 
L 239.967659 267.90309 
L 240.170394 249.41716 
L 240.37313 251.28788 
L 240.575865 227.893824 
L 240.7786 240.294886 
L 240.981335 242.809295 
L 241.184071 231.333535 
L 241.386806 246.751887 
L 241.589541 249.809408 
L 241.995012 275.59718 
L 242.197747 272.539659 
L 242.603218 321.942754 
L 242.805953 302.018583 
L 243.008689 303.406536 
L 243.211424 297.090342 
L 243.414159 301.073165 
L 243.616895 279.499541 
L 243.81963 287.404841 
L 244.022365 277.206401 
L 244.225101 288.058587 
L 244.427836 292.141987 
L 244.630571 314.158146 
L 245.036042 285.614583 
L 245.238777 288.672103 
L 245.644248 266.645886 
L 246.049718 301.465413 
L 246.252454 282.687811 
L 246.455189 301.887833 
L 246.86066 263.477731 
L 247.063395 264.403034 
L 247.26613 276.180522 
L 247.468866 252.464623 
L 247.671601 272.388795 
L 247.874336 249.97033 
L 248.279807 227.753017 
L 248.482542 246.238948 
L 248.685278 248.753356 
L 248.888013 224.222788 
L 249.090748 234.471517 
L 249.293484 218.882185 
L 249.496219 243.493214 
L 249.698954 242.567911 
L 249.901689 254.043671 
L 250.104425 276.462136 
L 250.30716 261.707588 
L 250.509895 259.19318 
L 250.915366 287.636167 
L 251.118101 280.394671 
L 251.320837 257.000615 
L 251.523572 252.555141 
L 251.726307 251.891338 
L 251.929043 252.81664 
L 252.131778 242.547796 
L 252.334513 244.418516 
L 252.537249 234.7129 
L 252.739984 237.227308 
L 253.145455 257.201768 
L 253.34819 237.689959 
L 253.550925 241.049209 
L 253.75366 230.850769 
L 254.159131 276.140292 
L 254.361866 253.721827 
L 254.564602 251.207419 
L 254.767337 239.42993 
L 254.970072 249.62837 
L 255.172808 231.001633 
L 255.375543 242.779122 
L 255.578278 239.419872 
L 256.186484 184.002312 
L 256.38922 173.803872 
L 256.591955 193.728044 
L 256.79469 185.54113 
L 257.402896 245.977449 
L 257.605632 249.336699 
L 257.808367 239.067855 
L 258.213837 259.535139 
L 258.619308 226.294661 
L 259.227514 283.75392 
L 259.430249 282.828618 
L 260.038455 227.471404 
L 260.241191 274.87303 
L 260.443926 278.131703 
L 260.646661 274.87303 
L 260.849397 299.484059 
L 261.052132 274.87303 
L 261.254867 287.334438 
L 261.457603 287.334438 
L 261.660338 265.760814 
L 261.863073 283.552768 
L 262.065809 283.763978 
L 262.268544 305.337602 
L 262.471279 285.41343 
L 262.87675 300.84184 
L 263.079485 300.630629 
L 263.28222 310.82907 
L 263.484956 313.88659 
L 263.890426 270.870092 
L 264.093162 269.94479 
L 264.295897 273.304039 
L 264.498632 285.705101 
L 264.904103 262.21047 
L 265.106838 259.696061 
L 265.309574 269.512311 
L 265.715044 262.683178 
L 265.91778 252.866928 
L 266.120515 262.683178 
L 266.32325 281.883201 
L 266.525986 281.67199 
L 266.931456 313.071922 
L 267.336927 273.837094 
L 267.539662 283.54271 
L 267.945133 245.565086 
L 268.147868 264.765108 
L 268.350603 267.822629 
L 268.553339 291.216684 
L 268.756074 268.416029 
L 269.161545 294.25409 
L 269.36428 284.005361 
L 269.567015 282.134641 
L 269.769751 270.357153 
L 269.972486 294.968182 
L 270.175221 280.213633 
L 270.377957 303.014288 
L 270.986163 240.264713 
L 271.188898 240.264713 
L 271.391633 248.170013 
L 271.594368 240.264713 
L 271.999839 288.591642 
L 272.202574 285.332969 
L 272.608045 254.114075 
L 273.013516 274.581359 
L 273.216251 264.765108 
L 273.418986 267.661707 
L 273.621722 257.463267 
L 273.824457 257.664419 
L 274.027192 257.664419 
L 274.229928 247.395575 
L 274.432663 248.320878 
L 274.635398 225.520223 
L 274.838134 235.718663 
L 275.040869 251.559436 
L 275.243604 250.784998 
L 275.44634 275.396027 
L 275.649075 272.338506 
L 275.85181 247.807938 
L 276.054545 238.615262 
L 276.257281 246.802175 
L 276.662751 288.139048 
L 277.068222 259.545197 
L 277.270957 269.361447 
L 277.473693 261.174533 
L 277.676428 279.660464 
L 277.879163 260.148655 
L 278.284634 279.811328 
L 278.487369 277.29692 
L 278.690105 280.35444 
L 278.89284 300.278612 
L 279.298311 261.86851 
L 279.501046 283.442134 
L 279.703781 258.831105 
L 280.109252 238.87676 
L 280.311987 251.277822 
L 280.514722 274.993722 
L 280.717458 277.50813 
L 281.122928 321.44993 
L 281.325664 321.661141 
L 281.528399 329.848054 
L 281.731134 321.661141 
L 281.93387 303.034404 
L 282.136605 304.905123 
L 282.33934 320.494455 
L 282.744811 286.167752 
L 282.947546 302.008525 
L 283.150282 294.103225 
L 283.353017 275.325624 
L 283.555752 298.719679 
L 283.758488 301.777199 
L 283.961223 301.565989 
L 284.163958 291.367549 
L 284.569429 328.631081 
L 284.772164 309.119272 
L 284.974899 328.319294 
L 285.177635 325.261773 
L 285.38037 309.421001 
L 285.785841 340.408569 
L 285.988576 321.922639 
L 286.191311 332.121079 
L 286.394047 310.547456 
L 286.596782 317.788952 
L 287.002253 282.275448 
L 287.204988 294.67651 
L 287.407723 271.875855 
L 287.610459 261.627127 
L 287.813194 259.756407 
L 288.015929 259.967617 
L 288.218665 245.213069 
L 288.4214 260.802401 
L 288.624135 262.673121 
L 288.82687 251.197361 
L 289.029606 250.986151 
L 289.232341 231.474342 
L 289.435076 253.892807 
L 289.637812 241.491745 
L 289.840547 253.892807 
L 290.043282 250.634133 
L 290.246018 250.845344 
L 290.448753 227.451288 
L 290.651488 230.709962 
L 290.854224 215.12063 
L 291.056959 230.961402 
L 291.259694 211.76138 
L 291.46243 214.275789 
L 291.665165 232.902526 
L 291.8679 214.959708 
L 292.070636 222.865008 
L 292.273371 220.350599 
L 292.476106 236.96581 
L 292.678842 230.257368 
L 292.881577 214.416595 
L 293.084312 215.563166 
L 293.287047 218.922415 
L 293.489783 283.422018 
L 293.692518 293.620459 
L 293.895253 297.804434 
L 294.097989 309.581923 
L 294.300724 192.762511 
L 294.503459 215.945356 
L 294.706195 211.731207 
L 295.111665 239.872466 
L 295.314401 250.121194 
L 295.719871 207.647808 
L 296.530813 280.545535 
L 296.733548 282.416255 
L 296.936283 274.229341 
L 297.341754 292.232505 
L 297.544489 282.416255 
L 297.747224 292.685099 
L 298.152695 255.572431 
L 298.35543 271.413204 
L 298.558166 270.487902 
L 298.760901 280.304152 
L 298.963636 264.463379 
L 299.166372 282.94931 
L 299.369107 274.762396 
L 299.571842 252.343931 
L 299.774578 263.819691 
L 299.977313 260.460441 
L 300.180048 238.886818 
L 300.585519 277.146055 
L 300.788254 278.071357 
L 300.99099 297.27138 
L 301.193725 278.785449 
L 301.39646 297.27138 
L 301.599195 231.544745 
L 301.801931 241.360995 
L 302.207401 274.048304 
L 302.410137 255.270702 
L 302.612872 274.470725 
L 302.815607 276.341444 
L 303.221078 254.3454 
L 303.423813 247.999034 
L 303.626549 255.723296 
L 303.829284 274.350033 
L 304.032019 275.275335 
L 304.43749 311.583392 
L 304.842961 346.935973 
L 305.045696 343.878453 
L 305.248431 320.162553 
L 305.653902 347.227645 
L 306.262108 288.038472 
L 306.667578 332.412751 
L 306.870314 309.612096 
L 307.073049 312.971345 
L 307.275784 336.687245 
L 307.47852 326.438517 
L 307.681255 338.839579 
L 307.88399 314.309011 
L 308.086726 324.557739 
L 308.289461 306.614921 
L 308.492196 331.22595 
L 308.694932 315.385177 
L 308.897667 339.915745 
L 309.100402 329.667017 
L 309.303138 339.935861 
L 309.505873 315.324832 
L 309.708608 325.57356 
L 310.114079 287.887608 
L 310.316814 289.758327 
L 310.519549 289.969538 
L 310.92502 247.626901 
L 311.127755 266.826923 
L 311.533226 235.004571 
L 311.735961 246.78206 
L 312.141432 225.037456 
L 312.344167 248.753356 
L 312.546903 238.554916 
L 312.749638 246.741829 
L 312.952373 265.22776 
L 313.155109 257.040846 
L 313.357844 256.829636 
L 313.560579 237.629613 
L 313.763315 247.445864 
L 313.96605 228.668262 
L 314.371521 291.085935 
L 314.574256 302.561695 
L 314.776991 284.075765 
L 314.979726 286.590173 
L 315.182462 274.812684 
L 315.587932 226.485756 
L 316.196138 278.051242 
L 316.398874 258.539433 
L 316.601609 277.16617 
L 317.00708 258.448915 
L 317.209815 265.690411 
L 317.41255 277.16617 
L 317.615286 295.943772 
L 317.818021 249.960272 
L 318.020756 274.49084 
L 318.223492 281.732336 
L 318.426227 269.954847 
L 318.628962 251.32811 
L 318.831698 263.105599 
L 319.034433 252.85687 
L 319.237168 233.345062 
L 319.439903 248.09961 
L 319.642639 232.258837 
L 319.845374 255.652893 
L 320.048109 231.041864 
L 320.250845 227.682614 
L 320.45358 208.482592 
L 320.656315 210.946712 
L 320.859051 209.417952 
L 321.467257 258.559549 
L 321.669992 236.985925 
L 321.872727 236.684196 
L 322.075463 224.906707 
L 322.278198 248.300763 
L 322.480933 223.689734 
L 322.683669 223.196909 
L 322.886404 207.356137 
L 323.49461 251.88128 
L 323.697345 233.254543 
L 323.90008 236.533331 
L 324.508286 303.486997 
L 324.913757 264.12142 
L 325.116492 288.732449 
L 325.319228 287.807147 
L 325.724698 282.60735 
L 325.927434 285.664871 
L 326.130169 216.679563 
L 326.332904 206.430835 
L 326.53564 216.247085 
L 326.738375 244.207306 
L 327.143846 265.881506 
L 327.549316 313.88659 
L 327.752051 302.41083 
L 327.954787 309.652326 
L 328.157522 306.293077 
L 328.562993 284.246744 
L 328.765728 264.322573 
L 328.968463 267.681822 
L 329.171199 286.167752 
L 329.373934 285.24245 
L 329.576669 297.643512 
L 330.184875 349.410151 
L 330.387611 352.668825 
L 330.590346 364.144584 
L 330.793081 339.533555 
L 330.995817 342.591076 
L 331.198552 331.115316 
L 331.401287 339.020616 
L 331.604023 321.077798 
L 331.806758 318.020277 
L 332.009493 310.114978 
L 332.212228 291.629047 
L 332.414964 244.921398 
L 332.617699 255.190241 
L 332.820434 230.579212 
L 333.225905 245.333761 
L 333.42864 260.923092 
L 333.834111 229.553334 
L 334.036846 232.812007 
L 334.239582 243.010447 
L 334.442317 232.761719 
L 334.645052 242.577969 
L 334.847788 240.707249 
L 335.050523 263.125714 
L 335.253258 265.640123 
L 335.658729 231.021748 
L 336.0642 210.936654 
L 336.266935 221.185383 
L 336.46967 209.709623 
L 336.672405 231.283247 
L 336.875141 233.153967 
L 337.077876 248.994739 
L 337.280611 237.21725 
L 337.483347 261.828279 
L 337.888817 227.038925 
L 338.091553 230.398175 
L 338.294288 208.824551 
L 338.497023 209.035762 
L 338.699759 233.56633 
L 338.902494 232.641027 
L 339.105229 229.583507 
L 339.5107 259.927387 
L 339.916171 243.835173 
L 340.118906 255.310933 
L 340.524377 298.62916 
L 340.727112 283.039828 
L 340.929847 302.239851 
L 341.538053 269.451966 
L 341.740788 288.963774 
L 341.943524 265.569719 
L 342.146259 275.385969 
L 342.55173 226.244372 
L 342.754465 247.817996 
L 342.9572 257.523612 
L 343.159936 238.32359 
L 343.565406 277.306977 
L 343.768142 267.490727 
L 343.970877 265.620007 
L 344.173612 273.525307 
L 344.376348 250.131252 
L 344.579083 246.872579 
L 344.781818 270.588478 
L 344.984553 259.887156 
L 345.187289 239.962984 
L 345.390024 239.962984 
L 345.592759 250.342462 
L 345.795495 245.695835 
L 345.99823 246.621138 
L 346.200965 239.379642 
L 346.403701 228.064804 
L 346.809171 270.618651 
L 347.214642 286.047061 
L 347.417377 276.230811 
L 347.620113 294.716741 
L 347.822848 286.529827 
L 348.228319 306.212616 
L 348.633789 331.869639 
L 348.836525 310.296015 
L 349.03926 302.390715 
L 349.241995 321.168317 
L 349.44473 211.399305 
L 349.647466 229.885236 
L 349.850201 229.885236 
L 350.052936 248.511973 
L 350.661142 191.314212 
L 350.863878 186.486547 
L 351.269348 211.912245 
L 351.472084 190.338621 
L 351.674819 192.853029 
L 351.877554 170.434565 
L 352.08029 162.911455 
L 352.283025 163.836757 
L 352.48576 174.105601 
L 352.891231 169.861279 
L 353.499437 219.908063 
L 353.702172 227.149559 
L 353.904907 217.443943 
L 354.107643 215.573223 
L 354.310378 217.443943 
L 354.715849 170.927389 
L 354.918584 179.114302 
L 355.121319 194.955075 
L 355.324055 191.897554 
L 356.337731 272.589947 
L 356.540467 249.789292 
L 356.743202 273.505192 
L 356.945937 276.864441 
L 357.148673 267.158825 
L 357.351408 269.673234 
L 357.554143 279.489484 
L 357.756879 304.020052 
L 357.959614 288.179279 
L 358.162349 312.790308 
L 358.365084 302.974058 
L 358.56782 279.258158 
L 358.770555 302.058813 
L 359.176026 257.935975 
L 359.378761 276.713577 
L 359.784232 235.13532 
L 359.986967 246.912809 
L 360.392438 227.23002 
L 361.000644 283.130347 
L 361.203379 285.001067 
L 361.406114 284.075765 
L 361.60885 280.817091 
L 361.811585 283.874612 
L 362.01432 273.625883 
L 362.217056 293.137692 
L 362.419791 290.623284 
L 362.622526 314.339184 
L 362.825261 289.808616 
L 363.027997 279.539772 
L 363.230732 257.966148 
L 363.433467 282.577177 
L 363.636203 270.176115 
L 363.838938 273.434788 
L 364.447144 313.353535 
L 364.852615 306.936765 
L 365.258085 273.404616 
L 365.460821 276.351502 
L 365.866291 304.83472 
L 366.069027 315.083448 
L 366.677233 273.676172 
L 366.879968 290.904898 
L 367.082703 272.127296 
L 367.488174 310.678205 
L 367.690909 300.479765 
L 367.893644 300.690975 
L 368.09638 310.396591 
L 368.299115 313.755841 
L 368.50185 331.698659 
L 368.704586 316.944111 
L 369.312792 249.175777 
L 369.515527 241.934281 
L 369.718262 252.132721 
L 369.920998 251.921511 
L 370.123733 259.82681 
L 370.326468 250.121194 
L 370.529204 253.178715 
L 370.731939 228.567686 
L 370.934674 244.408458 
L 371.137409 269.019487 
L 371.340145 267.148768 
L 371.54288 269.663176 
L 371.745615 251.720358 
L 371.948351 261.536608 
L 372.151086 283.110232 
L 372.353821 283.110232 
L 372.962027 335.409926 
L 373.164763 335.621136 
L 373.367498 317.135206 
L 373.570233 308.948292 
L 373.772969 323.70284 
L 373.975704 312.227081 
L 374.178439 314.0978 
L 374.381175 269.964905 
L 374.58391 251.187303 
L 374.786645 272.760927 
L 374.989381 271.835625 
L 375.192116 274.893145 
L 375.394851 284.598762 
L 375.597586 309.209791 
L 375.800322 299.504174 
L 376.003057 309.209791 
L 376.205792 305.850541 
L 376.813998 311.160971 
L 377.219469 343.84828 
L 377.422204 362.625882 
L 377.827675 321.882409 
L 378.03041 336.636957 
L 378.233146 315.063333 
L 378.435881 305.357717 
L 378.638616 285.433545 
L 378.841352 284.508243 
L 379.044087 272.107181 
L 379.246822 273.032483 
L 379.449558 276.391733 
L 379.652293 257.614131 
L 379.855028 256.688829 
L 380.260499 238.233071 
L 380.463234 248.4818 
L 380.665969 241.240304 
L 380.868705 296.285732 
L 381.07144 297.211034 
L 381.274175 317.135206 
L 381.476911 298.649275 
L 381.679646 203.695158 
L 381.882381 213.943887 
L 382.085117 229.915409 
L 382.287852 222.010109 
L 382.490587 236.764657 
L 382.896058 203.383372 
L 383.098793 218.972703 
L 383.301529 244.710187 
L 383.504264 244.498977 
L 383.706999 247.013385 
L 384.11247 309.441116 
L 384.51794 294.50553 
L 384.720676 302.41083 
L 384.923411 314.811892 
L 385.126146 339.422921 
L 385.328882 324.668373 
L 385.531617 321.4097 
L 385.937088 310.225611 
L 386.139823 326.066384 
L 386.342558 176.27805 
L 386.545294 186.47649 
L 386.748029 189.835739 
L 386.950764 205.676512 
L 387.1535 202.317262 
L 387.356235 202.528473 
L 387.55897 212.234089 
L 387.761706 202.528473 
L 387.964441 186.6877 
L 388.167176 315.656734 
L 388.369912 308.716966 
L 388.572647 193.627467 
L 388.775382 204.177925 
L 389.180853 243.161312 
L 389.383588 255.562374 
L 389.586323 274.762396 
L 389.789059 277.276804 
L 389.991794 262.522256 
L 390.194529 263.447558 
L 390.397265 281.390376 
L 390.6 281.601587 
L 390.802735 300.087517 
L 391.005471 307.992817 
L 391.208206 283.522595 
L 391.410941 272.972137 
L 392.019147 288.118933 
L 392.627353 254.979031 
L 392.830088 233.405407 
L 393.032824 257.935975 
L 393.235559 246.158487 
L 393.438294 221.627919 
L 393.64103 234.722957 
L 394.0465 205.455244 
L 394.451971 233.596502 
L 394.654706 235.467222 
L 394.857442 225.650972 
L 395.060177 206.87337 
L 395.262912 230.267426 
L 395.465648 229.342123 
L 395.668383 230.267426 
L 395.871118 241.743186 
L 396.073854 240.817883 
L 396.276589 237.55921 
L 396.479324 240.073618 
L 396.884795 211.198153 
L 397.290265 251.398514 
L 397.493001 228.597859 
L 397.695736 252.313758 
L 397.898471 250.443038 
L 398.101207 238.967279 
L 398.506677 277.669052 
L 398.709413 256.095428 
L 398.912148 257.966148 
L 399.114883 267.671764 
L 399.317619 268.597067 
L 399.520354 271.85574 
L 399.723089 248.461685 
L 399.925825 240.274771 
L 400.12856 252.05226 
L 400.331295 275.446315 
L 400.939501 233.073505 
L 401.547707 295.682274 
L 401.750442 272.881619 
L 401.953178 284.659107 
L 402.155913 286.529827 
L 402.358648 278.342914 
L 402.561384 295.672216 
L 402.764119 293.479652 
L 402.966854 297.331725 
L 403.16959 284.930663 
L 403.372325 307.449705 
L 403.57506 291.890546 
L 403.777796 302.088986 
L 403.980531 294.84749 
L 404.386002 316.028866 
L 404.994208 259.354102 
L 405.196943 283.965131 
L 405.399678 272.187642 
L 405.602414 275.446315 
L 405.805149 262.07972 
L 406.007884 277.638879 
L 406.210619 280.897552 
L 406.413355 277.538303 
L 406.61609 287.787031 
L 406.818825 288.712334 
L 407.427031 313.876532 
L 407.629767 338.487561 
L 407.832502 326.086499 
L 408.035237 327.957219 
L 408.237973 352.487787 
L 408.440708 333.710186 
L 408.643443 331.839466 
L 408.846179 308.44541 
L 409.048914 308.2342 
L 409.251649 308.44541 
L 409.454385 316.632324 
L 409.65712 313.574803 
L 409.859855 297.734031 
L 410.062591 301.09328 
L 410.265326 293.851784 
L 410.468061 291.337376 
L 410.670796 293.851784 
L 410.873532 282.074296 
L 411.279002 252.85687 
L 411.481738 242.608142 
L 411.684473 254.083902 
L 411.887208 236.141084 
L 412.495414 293.177923 
L 412.69815 289.91925 
L 412.900885 267.118595 
L 413.10362 278.896083 
L 413.509091 245.444395 
L 413.914562 289.416368 
L 414.117297 227.682614 
L 414.320032 224.625093 
L 414.522767 225.550396 
L 414.725503 246.721714 
L 415.130973 253.138484 
L 415.536444 299.323137 
L 415.739179 296.265616 
L 416.14465 256.9805 
L 416.347385 247.16425 
L 416.550121 244.016211 
L 416.752856 262.502141 
L 416.955591 252.253412 
L 417.158327 275.969312 
L 417.361062 275.758102 
L 417.563797 290.51265 
L 417.766533 283.271154 
L 418.172003 298.086048 
L 418.577474 323.924108 
L 418.780209 320.564859 
L 418.982944 340.48903 
L 419.18568 343.84828 
L 419.388415 340.48903 
L 419.59115 341.414333 
L 419.793886 359.357151 
L 420.199356 334.333759 
L 420.402092 345.809519 
L 420.604827 348.323927 
L 421.010298 328.942867 
L 421.213033 332.302117 
L 421.415768 347.056665 
L 421.618504 322.445636 
L 421.821239 347.056665 
L 422.023974 331.467333 
L 422.22671 341.17295 
L 422.429445 328.771888 
L 422.63218 339.040731 
L 422.834916 324.286183 
L 423.240386 339.432979 
L 423.443121 339.644189 
L 423.645857 274.712108 
L 423.848592 260.048078 
L 424.051327 256.990558 
L 424.254063 279.409023 
L 424.456798 281.279743 
L 424.659533 271.081302 
L 425.065004 313.102095 
L 425.267739 301.324606 
L 425.470475 319.810536 
L 425.67321 309.994286 
L 425.875945 286.278386 
L 426.078681 282.919137 
L 426.484151 257.895745 
L 426.686887 249.708831 
L 426.889622 261.48632 
L 427.497828 313.383708 
L 427.700563 320.625204 
L 428.106034 284.196456 
L 428.308769 307.912356 
L 428.511504 284.5183 
L 428.71424 304.442472 
L 428.916975 289.687924 
L 429.11971 309.199733 
L 429.322446 312.257253 
L 429.525181 293.630516 
L 429.727916 296.144925 
L 429.930652 305.961175 
L 430.133387 294.485415 
L 430.336122 291.427895 
L 430.538858 279.026833 
L 430.741593 293.781381 
L 430.944328 270.980726 
L 431.349799 297.31161 
L 431.75527 275.717871 
L 431.958005 279.077121 
L 432.16074 297.563051 
L 432.363475 300.620572 
L 432.566211 281.420549 
L 432.768946 280.495247 
L 432.971681 303.889302 
L 433.174417 301.374894 
L 433.377152 319.317712 
L 433.579887 312.076216 
L 434.188093 260.852689 
L 434.390829 271.101417 
L 434.593564 269.441908 
L 434.796299 261.607012 
L 434.999035 285.001067 
L 435.20177 295.269911 
L 435.404505 298.528584 
L 436.012711 242.014742 
L 436.215447 241.803531 
L 436.620917 276.502367 
L 436.823652 256.578195 
L 437.026388 263.719115 
L 437.229123 275.496603 
L 437.431858 274.219284 
L 437.634594 275.144586 
L 437.837329 290.733918 
L 438.040064 289.808616 
L 438.2428 289.597405 
L 438.64827 332.191483 
L 438.851006 319.790421 
L 439.053741 331.266181 
L 439.459212 313.826244 
L 439.661947 337.542144 
L 439.864682 327.293415 
L 440.067418 349.71188 
L 440.270153 326.317825 
L 440.472888 346.241997 
L 440.878359 326.156903 
L 441.283829 344.160067 
L 441.486565 342.289347 
L 441.6893 342.500557 
L 441.892035 342.500557 
L 442.094771 334.313644 
L 442.500241 354.2177 
L 442.702977 377.018355 
L 442.905712 377.943657 
L 443.108447 381.001178 
L 443.311183 377.943657 
L 443.513918 401.337713 
L 443.716653 381.825904 
L 443.919389 381.614694 
L 444.122124 389.519993 
L 444.527595 395.393651 
L 444.73033 411.234424 
L 444.933065 209.991237 
L 445.338536 245.373991 
L 445.541271 245.373991 
L 445.744006 248.733241 
L 446.352212 194.42202 
L 446.757683 213.943887 
L 446.960418 237.659786 
L 447.365889 203.081643 
L 447.568624 221.70838 
L 447.77136 214.466884 
L 448.17683 247.083789 
L 448.379566 223.367889 
L 448.582301 218.872127 
L 448.785036 242.23601 
L 448.987772 226.867946 
L 449.393242 260.923092 
L 449.595977 268.164589 
L 449.798713 260.259289 
L 450.204183 224.906707 
L 450.406919 235.155436 
L 450.609654 253.782173 
L 450.812389 231.363708 
L 451.015125 221.547458 
L 451.21786 237.38823 
L 451.420595 261.918798 
L 451.623331 258.559549 
L 452.028801 287.575821 
L 452.231537 277.759571 
L 452.434272 261.918798 
L 452.637007 273.696287 
L 452.839743 266.454791 
L 453.042478 246.530619 
L 453.245213 266.042428 
L 453.447949 266.96773 
L 453.650684 290.68363 
L 453.853419 287.424957 
L 454.25889 318.311949 
L 454.66436 333.458745 
L 454.867096 311.885121 
L 455.069831 314.399529 
L 455.272566 335.973153 
L 455.880772 296.88919 
L 456.083508 272.358622 
L 456.286243 264.171708 
L 456.488978 240.777653 
L 456.691714 265.308221 
L 457.097184 236.432755 
L 457.29992 246.99327 
L 457.908126 314.560452 
L 458.110861 187.783982 
L 458.313596 187.995192 
L 458.516331 209.568816 
L 458.719067 197.167754 
L 458.921802 208.945243 
L 459.327273 256.648598 
L 459.530008 256.648598 
L 459.732743 245.695835 
L 459.935479 261.536608 
L 460.138214 246.78206 
L 460.74642 306.504287 
L 460.949155 303.446767 
L 461.151891 293.74115 
L 461.354626 305.518639 
L 461.557361 308.57616 
L 461.760097 285.182104 
L 461.962832 283.522595 
L 462.165567 275.285393 
L 462.368302 277.156113 
L 462.571038 262.401565 
L 462.773773 270.306864 
L 462.976508 262.401565 
L 463.179244 270.588478 
L 463.381979 260.882862 
L 463.584714 268.788162 
L 463.78745 287.414899 
L 463.990185 284.055649 
L 464.19292 306.474114 
L 464.395656 284.055649 
L 464.598391 295.531409 
L 464.801126 292.473889 
L 465.003862 310.416707 
L 465.206597 298.940947 
L 465.409332 297.070227 
L 465.814803 319.488692 
L 466.017538 300.71109 
L 466.220274 315.465639 
L 466.423009 291.749739 
L 466.625744 294.807259 
L 466.828479 314.319068 
L 467.031215 314.107858 
L 467.23395 310.849185 
L 467.639421 340.438742 
L 467.842156 324.59797 
L 468.044891 324.80918 
L 468.247627 207.879134 
L 468.653097 240.928517 
L 468.855833 260.440326 
L 469.058568 260.651536 
L 469.261303 268.83845 
L 469.666774 290.965243 
L 469.869509 279.187755 
L 470.072245 290.663514 
L 470.27498 292.534234 
L 470.477715 289.476714 
L 470.680451 299.18233 
L 470.883186 279.982308 
L 471.694127 323.83359 
L 472.099598 289.466656 
L 472.302333 284.176341 
L 472.505068 218.168093 
L 472.910539 265.579777 
L 473.113274 254.104017 
L 473.31601 254.315227 
L 473.518745 244.498977 
L 473.72148 263.698999 
L 474.126951 225.87224 
L 474.329686 241.713013 
L 474.532422 231.464284 
L 474.735157 228.105035 
L 475.140628 263.598423 
L 475.343363 245.655605 
L 475.546098 249.014854 
L 475.748833 264.604186 
L 475.951569 252.826698 
L 476.154304 255.341106 
L 476.357039 274.852915 
L 476.559775 267.611419 
L 476.965245 284.669165 
L 477.167981 294.917893 
L 477.776187 253.671539 
L 477.978922 241.270477 
L 478.181657 243.141197 
L 478.789863 182.393091 
L 478.992599 204.811556 
L 479.195334 202.940836 
L 479.80354 256.819578 
L 480.006275 234.018923 
L 480.20901 235.889643 
L 480.411746 216.377834 
L 480.614481 215.452532 
L 481.019952 250.644191 
L 481.222687 248.773471 
L 481.628158 272.952022 
L 481.830893 254.466092 
L 482.439099 229.291835 
L 482.641834 235.758894 
L 482.84457 254.536495 
L 483.047305 256.407215 
L 483.25004 279.20787 
L 483.452776 277.33715 
L 483.655511 296.848959 
L 483.858246 272.318391 
L 484.060981 290.945128 
L 484.263717 291.87043 
L 484.466452 268.476375 
L 485.074658 323.712898 
L 485.277393 300.912243 
L 485.480129 319.398173 
L 485.682864 319.186963 
L 485.885599 343.717531 
L 486.088335 323.793359 
L 486.29107 327.052032 
L 486.493805 302.441003 
L 486.696541 305.498524 
L 486.899276 287.555706 
L 487.102011 289.426426 
L 487.507482 246.520561 
L 487.710217 262.361334 
L 487.912953 247.606786 
L 488.115688 223.076218 
L 488.521158 251.388456 
L 488.723894 275.999485 
L 488.926629 272.640235 
L 489.129364 291.095993 
L 489.3321 211.248441 
L 489.534835 218.258611 
L 489.73757 221.316132 
L 489.940306 232.701373 
L 490.143041 212.777201 
L 490.345776 222.794604 
L 490.548512 212.596164 
L 490.751247 230.538982 
L 490.953982 230.327772 
L 491.156718 207.527117 
L 491.359453 217.79596 
L 491.764924 256.055198 
L 492.170394 218.047401 
L 492.37313 202.206629 
L 492.575865 209.448125 
L 492.7786 221.225613 
L 492.981335 210.95677 
L 493.386806 229.342123 
L 493.589541 252.736179 
L 493.792277 244.549265 
L 493.995012 256.950327 
L 494.197747 239.007509 
L 494.400483 239.932811 
L 494.603218 216.538756 
L 494.805953 235.316358 
L 495.008689 243.221658 
L 495.211424 232.972929 
L 495.616895 227.099271 
L 495.81963 229.61368 
L 496.022365 219.797429 
L 496.225101 235.638202 
L 496.427836 238.695723 
L 496.630571 237.77042 
L 496.833307 248.019149 
L 497.036042 228.50734 
L 497.644248 278.081415 
L 497.846983 279.006717 
L 498.252454 259.052373 
L 498.455189 268.757989 
L 498.657924 266.887269 
L 498.86066 248.109667 
L 499.26613 293.077347 
L 499.468866 293.288557 
L 499.671601 277.447784 
L 499.874336 299.866249 
L 500.482542 258.800932 
L 500.888013 232.268895 
L 501.090748 234.139615 
L 501.293484 214.939592 
L 501.496219 214.728382 
L 501.698954 233.928404 
L 501.901689 223.659561 
L 502.104425 242.437162 
L 502.30716 217.906594 
L 502.509895 218.117805 
L 502.712631 242.728834 
L 502.915366 230.327772 
L 503.118101 233.687021 
L 503.320837 230.327772 
L 503.523572 206.933716 
L 503.726307 206.611872 
L 503.929043 190.771099 
L 504.131778 213.571754 
L 504.537249 233.536157 
L 504.739984 248.290705 
L 504.942719 236.513216 
L 505.34819 231.283247 
L 505.956396 272.700581 
L 506.361866 232.641027 
L 506.564602 248.230359 
L 506.767337 244.971686 
L 506.970072 226.194084 
L 507.578278 272.871561 
L 507.781014 250.070906 
L 507.983749 239.872466 
L 508.186484 262.290931 
L 508.591955 241.702955 
L 508.79469 254.104017 
L 508.997426 234.903995 
L 509.402896 273.545422 
L 509.605632 276.602943 
L 509.808367 260.76217 
L 510.011102 280.686342 
L 510.213837 273.444846 
L 510.619308 235.034744 
L 510.822043 238.293417 
L 511.024779 235.235897 
L 511.227514 225.419646 
L 511.430249 225.419646 
L 511.632985 225.208436 
L 511.83572 206.581699 
L 512.241191 242.346644 
L 512.443926 245.404164 
L 512.849397 211.037231 
L 513.052132 211.037231 
L 513.254867 235.567799 
L 513.457603 225.862182 
L 513.863073 243.372522 
L 514.065809 243.372522 
L 514.268544 264.946146 
L 514.471279 264.020844 
L 514.674014 264.946146 
L 514.87675 275.144586 
L 515.079485 252.726121 
L 515.28222 270.668939 
L 515.484956 246.138371 
L 515.687691 235.939931 
L 515.890426 235.014629 
L 516.093162 213.441005 
L 516.295897 232.067742 
L 516.498632 229.553334 
L 516.904103 203.695158 
L 517.309574 238.916991 
L 517.512309 223.327659 
L 517.715044 230.37806 
L 518.32325 276.874499 
L 518.525986 268.687585 
L 518.728721 272.046835 
L 518.931456 272.258045 
L 519.336927 244.066499 
L 519.539662 255.331048 
L 519.742397 279.046948 
L 519.945133 279.258158 
L 520.147868 269.059718 
L 520.350603 270.930438 
L 520.553339 263.688942 
L 520.756074 286.489597 
L 520.958809 283.130347 
L 521.161545 307.741376 
L 521.36428 305.870656 
L 521.567015 286.670634 
L 521.769751 278.765334 
L 521.972486 278.081415 
L 522.175221 259.303813 
L 522.377957 278.694931 
L 522.580692 282.05418 
L 522.783427 271.85574 
L 522.986163 252.343931 
L 523.594368 293.479652 
L 523.797104 269.763752 
L 523.999839 293.479652 
L 524.202574 231.876647 
L 524.40531 255.592547 
L 524.608045 236.392525 
L 524.81078 239.651198 
L 525.013516 239.439987 
L 525.216251 248.763414 
L 525.418986 289.486771 
L 525.621722 292.00118 
L 525.824457 301.81743 
L 526.027192 320.30336 
L 526.229928 313.061864 
L 526.432663 293.861842 
L 526.635398 208.482592 
L 527.040869 246.621138 
L 527.44634 224.574805 
L 527.649075 232.761719 
L 527.85181 216.920946 
L 528.054545 239.721601 
L 528.460016 198.294209 
L 528.662751 198.294209 
L 528.865487 190.107296 
L 529.068222 199.812912 
L 529.270957 197.942192 
L 529.473693 202.789971 
L 529.676428 183.278162 
L 530.081899 220.682501 
L 530.284634 293.137692 
L 530.487369 273.625883 
L 530.690105 273.837094 
L 530.89284 252.26347 
L 531.095575 252.26347 
L 531.298311 244.076556 
L 531.501046 253.782173 
L 531.703781 235.296242 
L 532.311987 278.041185 
L 532.514722 296.818786 
L 532.717458 294.304378 
L 532.920193 301.545874 
L 533.122928 291.840258 
L 533.325664 269.039603 
L 533.528399 268.828392 
L 533.731134 276.733692 
L 533.93387 279.248101 
L 534.136605 267.470612 
L 534.33934 267.681822 
L 534.542076 264.423149 
L 534.744811 267.782398 
L 535.150282 261.365628 
L 535.353017 261.365628 
L 535.555752 264.724878 
L 535.961223 304.24132 
L 536.163958 301.726911 
L 536.366693 320.353648 
L 536.772164 297.27138 
L 536.974899 293.91213 
L 537.177635 208.432304 
L 537.38037 207.718212 
L 537.785841 207.718212 
L 537.988576 230.136677 
L 538.191311 230.136677 
L 538.394047 207.718212 
L 538.596782 208.643514 
L 538.799517 218.912358 
L 539.002253 218.701147 
L 539.204988 218.912358 
L 539.407723 243.523387 
L 539.610459 240.164137 
L 539.813194 239.781947 
L 540.015929 264.71482 
L 540.4214 233.425523 
L 540.624135 223.176794 
L 540.82687 234.652554 
L 541.232341 200.868963 
L 541.435076 200.868963 
L 541.637812 224.584863 
L 541.840547 205.384841 
L 542.246018 205.384841 
L 542.448753 207.25556 
L 542.854224 247.999034 
L 543.056959 260.400096 
L 543.259694 260.400096 
L 543.46243 235.789067 
L 543.665165 239.04774 
L 543.8679 246.95304 
L 544.070636 239.04774 
L 544.273371 236.533331 
L 544.476106 236.533331 
L 545.084312 287.555706 
L 545.287047 275.154644 
L 545.489783 275.154644 
L 545.692518 255.954622 
L 545.895253 254.083902 
L 546.503459 274.70205 
L 546.706195 290.291382 
L 546.90893 292.162102 
L 547.111665 276.57277 
L 547.314401 274.70205 
L 547.517136 274.70205 
L 547.719871 290.291382 
L 548.125342 253.078138 
L 548.328077 257.252056 
L 548.530813 244.850994 
L 548.733548 252.09249 
L 548.936283 276.623058 
L 549.139019 257.111249 
L 549.341754 260.16877 
L 549.747224 296.738325 
L 549.94996 296.738325 
L 550.35543 317.255897 
L 550.558166 336.033499 
L 550.760901 332.975978 
L 551.166372 285.051355 
L 551.369107 285.051355 
L 551.571842 292.956655 
L 551.774578 305.357717 
L 552.180048 279.268216 
L 552.382784 300.84184 
L 552.585519 300.84184 
L 552.788254 278.041185 
L 552.99099 267.772341 
L 553.193725 248.572319 
L 553.599195 269.089891 
L 553.801931 269.089891 
L 554.004666 292.80579 
L 554.207401 274.31986 
L 554.410137 284.5183 
L 554.612872 284.30709 
L 554.815607 274.058362 
L 555.018343 255.431625 
L 555.221078 271.272397 
L 555.423813 251.348225 
L 555.626549 271.272397 
L 555.829284 271.483608 
L 556.032019 269.612888 
L 556.234755 263.045253 
L 556.43749 270.105712 
L 556.640225 285.695044 
L 556.842961 310.225611 
L 557.045696 204.519884 
L 557.248431 185.008075 
L 557.451167 195.256804 
L 557.653902 175.221998 
L 557.856637 191.062771 
L 558.059372 192.873145 
L 558.262108 201.764093 
L 558.464843 198.917782 
L 558.667578 198.917782 
L 558.870314 222.211261 
L 559.073049 232.480105 
L 559.275784 208.794378 
L 559.47852 218.499995 
L 559.681255 199.299972 
L 559.88399 218.811781 
L 560.086726 209.106165 
L 560.492196 239.228777 
L 560.694932 242.48745 
L 560.897667 242.48745 
L 561.100402 267.018018 
L 561.505873 238.575031 
L 561.708608 230.669731 
L 561.911344 238.856645 
L 562.114079 236.342236 
L 562.316814 244.247536 
L 562.519549 266.283811 
L 562.722285 248.582376 
L 562.92502 268.506548 
L 563.127755 270.377268 
L 563.330491 258.901508 
L 563.533226 269.43185 
L 563.735961 269.43185 
L 564.141432 250.714595 
L 564.344167 250.925805 
L 564.546903 254.184478 
L 564.749638 254.184478 
L 565.155109 248.411396 
L 565.560579 217.856306 
L 565.763315 230.166849 
L 566.168785 277.548361 
L 566.371521 258.921623 
L 566.574256 278.433432 
L 566.776991 258.50926 
L 566.979726 260.842631 
L 567.182462 250.292174 
L 567.587932 250.292174 
L 567.790668 258.197474 
L 568.196138 301.354779 
L 568.398874 277.638879 
L 568.601609 287.887608 
L 568.804344 258.267877 
L 569.00708 246.249005 
L 569.209815 247.174308 
L 569.41255 254.415804 
L 569.615286 239.661255 
L 570.020756 259.726234 
L 570.223492 258.800932 
L 570.426227 234.189903 
L 570.628962 235.004571 
L 571.237168 295.802965 
L 571.439903 271.272397 
L 571.642639 281.541241 
L 572.048109 281.541241 
L 572.250845 296.295789 
L 572.45358 223.538869 
L 573.467257 288.722391 
L 573.669992 288.722391 
L 573.872727 291.095993 
L 574.075463 309.72273 
L 574.683669 309.72273 
L 574.886404 299.90648 
L 575.089139 226.968522 
L 575.291874 237.166962 
L 575.49461 227.461346 
L 575.697345 227.893824 
L 575.90008 227.893824 
L 576.102816 220.199735 
L 576.305551 238.826472 
L 576.508286 239.751774 
L 576.711022 239.540564 
L 576.913757 231.35365 
L 577.116492 231.35365 
L 577.319228 254.747706 
L 577.724698 250.583845 
L 577.927434 251.760588 
L 578.130169 274.561243 
L 578.53564 244.438631 
L 578.738375 234.733015 
L 578.94111 237.247423 
L 579.143846 260.641479 
L 579.346581 238.223014 
L 579.549316 238.011804 
L 579.954787 272.278161 
L 580.157522 284.055649 
L 580.360257 260.661594 
L 580.765728 283.311384 
L 580.968463 283.311384 
L 581.171199 301.938122 
L 581.373934 309.843421 
L 581.576669 309.843421 
L 581.779405 295.088873 
L 581.98214 298.448123 
L 582.387611 298.448123 
L 582.995817 255.693123 
L 583.198552 255.894276 
L 583.401287 248.089552 
L 583.806758 248.089552 
L 584.009493 235.85947 
L 584.212228 235.85947 
L 584.414964 255.371279 
L 584.617699 247.465979 
L 584.820434 249.336699 
L 585.02317 249.336699 
L 585.42864 217.936767 
L 585.631376 226.123681 
L 585.834111 226.123681 
L 586.036846 249.517736 
L 586.239582 252.032145 
L 586.442317 249.517736 
L 586.645052 233.676964 
L 586.847788 233.676964 
L 587.455994 296.154982 
L 587.658729 281.400434 
L 587.861464 281.400434 
L 588.266935 239.520449 
L 588.672405 239.520449 
L 588.875141 239.309238 
L 589.280611 239.309238 
L 589.483347 229.040394 
L 589.686082 229.040394 
L 589.888817 244.881167 
L 590.091553 229.704198 
L 590.294288 229.27172 
L 590.497023 229.27172 
L 590.699759 243.955865 
L 590.902494 231.554803 
L 591.713435 231.554803 
L 591.916171 223.83054 
L 592.118906 225.751548 
L 592.727112 225.751548 
L 592.929847 217.564635 
L 593.538053 217.564635 
L 593.740788 209.629162 
L 593.943524 209.246972 
L 594.146259 211.76138 
L 594.55173 211.76138 
L 594.754465 203.85608 
L 594.9572 203.85608 
L 595.159936 216.257142 
L 595.362671 215.33184 
L 595.565406 218.590513 
L 595.768142 234.179845 
L 596.173612 234.179845 
L 596.376348 214.668036 
L 596.579083 211.409363 
L 596.781818 212.334665 
L 597.187289 212.334665 
L 597.390024 200.557177 
L 597.592759 208.74409 
L 597.795495 185.350035 
L 598.606436 185.350035 
L 598.809171 203.976772 
L 599.011907 207.235445 
L 599.214642 207.235445 
L 599.417377 221.989993 
L 599.620113 221.989993 
L 599.822848 204.047175 
L 600.633789 204.047175 
L 600.836525 195.860262 
L 601.03926 193.989542 
L 601.241995 193.989542 
L 601.44473 178.40021 
L 601.647466 180.27093 
L 601.850201 173.029434 
L 602.255672 201.73392 
L 602.458407 201.050001 
L 602.661142 218.751436 
L 602.863878 198.827264 
L 603.066613 206.87337 
L 603.269348 196.67493 
L 603.472084 175.101306 
L 603.674819 175.312517 
L 603.877554 182.554013 
L 604.08029 175.312517 
L 604.283025 156.826587 
L 604.48576 156.826587 
L 604.891231 186.959256 
L 605.093966 173.13001 
L 605.296702 213.46112 
L 605.499437 213.46112 
L 605.702172 215.844779 
L 605.904907 215.844779 
L 606.107643 193.426315 
L 606.310378 200.07441 
L 606.513113 200.07441 
L 606.715849 224.604978 
L 607.121319 224.604978 
L 607.324055 200.07441 
L 607.52679 219.274432 
L 607.729525 219.274432 
L 607.932261 216.015759 
L 608.134996 239.409815 
L 608.337731 215.693915 
L 608.945937 215.693915 
L 609.148673 196.916313 
L 609.756879 196.916313 
L 609.959614 186.64747 
L 610.365084 186.64747 
L 610.56782 211.258499 
L 610.97329 211.258499 
L 611.176026 192.772568 
L 611.581496 192.772568 
L 611.784232 211.55017 
L 611.986967 195.960838 
L 612.189702 195.960838 
L 612.392438 199.219511 
L 612.595173 199.219511 
L 613.000644 175.34269 
L 613.406114 175.34269 
L 613.60885 156.565088 
L 613.811585 157.570851 
L 614.01432 157.570851 
L 614.217056 164.812347 
L 614.419791 163.887045 
L 615.230732 163.887045 
L 615.433467 166.944566 
L 615.636203 166.944566 
L 615.838938 148.317829 
L 616.447144 148.317829 
L 616.649879 156.223129 
L 617.258085 156.223129 
L 617.460821 156.011918 
L 617.663556 140.422586 
L 617.866291 140.422586 
L 618.069027 155.247538 
L 620.09638 155.247538 
L 620.299115 155.458748 
L 620.50185 155.458748 
L 620.704586 130.92818 
L 620.907321 130.92818 
L 621.110056 141.126621 
L 621.920998 141.126621 
L 622.123733 153.527683 
L 622.326468 153.316472 
L 623.54288 153.316472 
L 623.745615 146.054861 
L 624.962027 146.054861 
L 625.164763 156.323705 
L 625.570233 156.323705 
L 625.772969 168.101194 
L 625.975704 148.901171 
L 627.394851 148.901171 
L 627.597586 144.938464 
L 628.003057 122.962535 
L 628.611263 122.962535 
L 628.813998 117.511297 
L 629.62494 117.511297 
L 629.827675 107.242454 
L 630.435881 107.242454 
L 630.638616 100.091476 
L 631.044087 100.091476 
L 631.246822 124.622044 
L 631.449558 122.751324 
L 632.665969 122.751324 
L 632.868705 124.622044 
L 633.07144 123.696742 
L 633.274175 121.182334 
L 634.693323 121.182334 
L 634.896058 115.791442 
L 638.748029 115.791442 
L 638.950764 123.063111 
L 640.775382 123.143572 
L 640.978117 113.327322 
L 643.005471 113.327322 
L 643.208206 116.686572 
L 643.410941 116.686572 
L 643.613677 116.475361 
L 647.668383 116.475361 
L 647.871118 115.258388 
L 648.68206 115.258388 
L 648.884795 106.61888 
L 650.506677 106.61888 
L 650.709413 115.540001 
L 651.723089 115.540001 
L 651.925825 112.391962 
L 655.372325 112.391962 
L 655.57506 97.124475 
L 675.645857 97.124475 
L 675.848592 97.808394 
L 679.295093 97.808394 
L 679.497828 99.156116 
L 684.768946 99.156116 
L 684.971681 88.887273 
L 871.690909 88.887273 
L 871.690909 88.887273 
" style="fill:none;stroke:#8dd3c7;stroke-linecap:square;stroke-width:1.5;"/>
   </g>
   <g id="line2d_19">
    <path clip-path="url(#pe4b53575f1)" d="M 161.509091 285.996773 
L 163.536444 285.996773 
L 163.739179 209.780026 
L 222.735157 209.780026 
L 222.937892 205.877665 
L 226.181657 205.877665 
L 226.384393 202.910663 
L 255.781014 202.910663 
L 255.983749 195.779801 
L 256.38922 173.803872 
L 351.674819 173.803872 
L 351.877554 170.434565 
L 352.08029 162.911455 
L 604.08029 162.911455 
L 604.283025 156.826587 
L 613.406114 156.826587 
L 613.60885 156.565088 
L 615.636203 156.565088 
L 615.838938 148.317829 
L 617.460821 148.317829 
L 617.663556 140.422586 
L 620.50185 140.422586 
L 620.704586 130.92818 
L 627.800322 130.92818 
L 628.003057 122.962535 
L 628.611263 122.962535 
L 628.813998 117.511297 
L 629.62494 117.511297 
L 629.827675 107.242454 
L 630.435881 107.242454 
L 630.638616 100.091476 
L 655.372325 100.091476 
L 655.57506 97.124475 
L 684.768946 97.124475 
L 684.971681 88.887273 
L 871.690909 88.887273 
L 871.690909 88.887273 
" style="fill:none;stroke:#feffb3;stroke-linecap:square;stroke-width:1.5;"/>
   </g>
   <g id="line2d_20">
    <path clip-path="url(#pe4b53575f1)" d="M 161.509091 345.467559 
L 162.928238 345.467559 
L 163.130973 351.990078 
L 164.550121 351.990078 
L 164.752856 358.206012 
L 166.172003 358.206012 
L 166.374739 364.129772 
L 167.793886 364.129772 
L 167.996621 369.775092 
L 169.415768 369.775092 
L 169.618504 375.15506 
L 171.037651 375.15506 
L 171.240386 380.282147 
L 172.659533 380.282147 
L 172.862269 385.168241 
L 174.281416 385.168241 
L 174.484151 389.824668 
L 175.903298 389.824668 
L 176.106034 394.262225 
L 177.525181 394.262225 
L 177.727916 398.491199 
L 179.147064 398.491199 
L 179.349799 402.521395 
L 180.768946 402.521395 
L 180.971681 406.362155 
L 182.390829 406.362155 
L 182.593564 410.022383 
L 184.012711 410.022383 
L 184.215447 413.510567 
L 185.634594 413.510567 
L 185.837329 416.834792 
L 187.256476 416.834792 
L 187.459212 420.002765 
L 188.878359 420.002765 
L 189.081094 423.02183 
L 190.500241 423.02183 
L 190.702977 425.898988 
L 192.122124 425.898988 
L 192.324859 428.640907 
L 193.744006 428.640907 
L 193.946742 431.253945 
L 195.365889 431.253945 
L 195.568624 433.74416 
L 196.987772 433.74416 
L 197.190507 436.117325 
L 198.609654 436.117325 
L 198.812389 438.378942 
L 200.231537 438.378942 
L 200.434272 440.534253 
L 201.853419 440.534253 
L 202.056154 442.588257 
L 203.475302 442.588257 
L 203.678037 444.545714 
L 205.097184 444.545714 
L 205.29992 446.411162 
L 206.719067 446.411162 
L 206.921802 448.188927 
L 208.340949 448.188927 
L 208.543685 449.88313 
L 209.962832 449.88313 
L 210.165567 451.497699 
L 211.584714 451.497699 
L 211.78745 453.036376 
L 213.206597 453.036376 
L 213.409332 454.50273 
L 214.828479 454.50273 
L 215.031215 455.900159 
L 216.450362 455.900159 
L 216.653097 457.231903 
L 218.072245 457.231903 
L 218.27498 458.50105 
L 219.694127 458.50105 
L 219.896862 459.710542 
L 221.31601 459.710542 
L 221.518745 460.863183 
L 222.937892 460.863183 
L 223.140628 461.961645 
L 224.559775 461.961645 
L 224.76251 463.008475 
L 226.181657 463.008475 
L 226.384393 464.0061 
L 227.80354 464.0061 
L 228.006275 464.956832 
L 229.425422 464.956832 
L 229.628158 465.862877 
L 231.047305 465.862877 
L 231.25004 466.726333 
L 232.669187 466.726333 
L 232.871923 467.549204 
L 234.29107 467.549204 
L 234.493805 468.333396 
L 235.912953 468.333396 
L 236.115688 469.080729 
L 237.534835 469.080729 
L 237.73757 469.792933 
L 239.156718 469.792933 
L 239.359453 470.471661 
L 240.7786 470.471661 
L 240.981335 471.118487 
L 242.400483 471.118487 
L 242.603218 471.734909 
L 244.022365 471.734909 
L 244.225101 472.322356 
L 245.644248 472.322356 
L 245.846983 472.882191 
L 247.26613 472.882191 
L 247.468866 473.415712 
L 248.888013 473.415712 
L 249.090748 473.924155 
L 250.509895 473.924155 
L 250.712631 474.408699 
L 252.131778 474.408699 
L 252.334513 474.870468 
L 253.75366 474.870468 
L 253.956396 475.310532 
L 255.375543 475.310532 
L 255.578278 475.72991 
L 256.997426 475.72991 
L 257.200161 476.129577 
L 258.619308 476.129577 
L 258.822043 476.510457 
L 260.241191 476.510457 
L 260.443926 476.873435 
L 261.863073 476.873435 
L 262.065809 477.219351 
L 263.484956 477.219351 
L 263.687691 477.549008 
L 265.106838 477.549008 
L 265.309574 477.86317 
L 266.728721 477.86317 
L 266.931456 478.162564 
L 268.350603 478.162564 
L 268.553339 478.447886 
L 269.972486 478.447886 
L 270.175221 478.719797 
L 271.594368 478.719797 
L 271.797104 478.978927 
L 273.216251 478.978927 
L 273.418986 479.225877 
L 274.838134 479.225877 
L 275.040869 479.461219 
L 276.460016 479.461219 
L 276.662751 479.685499 
L 278.081899 479.685499 
L 278.284634 479.899237 
L 279.703781 479.899237 
L 279.906516 480.102928 
L 281.325664 480.102928 
L 281.528399 480.297045 
L 282.947546 480.297045 
L 283.150282 480.482038 
L 284.569429 480.482038 
L 284.772164 480.658335 
L 286.191311 480.658335 
L 286.394047 480.826346 
L 287.813194 480.826346 
L 288.015929 480.98646 
L 289.435076 480.98646 
L 289.637812 481.139047 
L 291.056959 481.139047 
L 291.259694 481.284463 
L 292.678842 481.284463 
L 292.881577 481.423043 
L 294.300724 481.423043 
L 294.706195 481.555109 
L 295.922607 481.555109 
L 296.328077 481.680968 
L 297.544489 481.680968 
L 297.94996 481.800911 
L 299.166372 481.800911 
L 299.571842 481.915216 
L 302.410137 482.024148 
L 302.815607 482.12796 
L 305.653902 482.226893 
L 306.059372 482.321175 
L 308.897667 482.411026 
L 309.303138 482.496653 
L 312.141432 482.578256 
L 312.546903 482.656022 
L 315.385197 482.730134 
L 315.790668 482.800762 
L 318.628962 482.86807 
L 319.034433 482.932214 
L 321.872727 482.993344 
L 322.278198 483.0516 
L 326.738375 483.160025 
L 327.346581 483.210447 
L 331.604023 483.304291 
L 332.212228 483.347931 
L 336.46967 483.429154 
L 337.077876 483.466925 
L 342.9572 483.569916 
L 343.768142 483.601071 
L 351.066613 483.711718 
L 352.08029 483.736208 
L 360.797908 483.842434 
L 362.217056 483.860779 
L 373.772969 483.967193 
L 375.800322 483.991569 
L 396.479324 484.097397 
L 400.534031 484.115597 
L 500.279807 484.226515 
L 581.171199 484.232168 
L 871.690909 484.232727 
L 871.690909 484.232727 
" style="fill:none;stroke:#bfbbd9;stroke-linecap:square;stroke-width:1.5;"/>
   </g>
   <g id="patch_3">
    <path d="M 126 504 
L 126 69.12 
" style="fill:none;stroke:#ffffff;stroke-linecap:square;stroke-linejoin:miter;stroke-width:0.8;"/>
   </g>
   <g id="patch_4">
    <path d="M 907.2 504 
L 907.2 69.12 
" style="fill:none;stroke:#ffffff;stroke-linecap:square;stroke-linejoin:miter;stroke-width:0.8;"/>
   </g>
   <g id="patch_5">
    <path d="M 126 504 
L 907.2 504 
" style="fill:none;stroke:#ffffff;stroke-linecap:square;stroke-linejoin:miter;stroke-width:0.8;"/>
   </g>
   <g id="patch_6">
    <path d="M 126 69.12 
L 907.2 69.12 
" style="fill:none;stroke:#ffffff;stroke-linecap:square;stroke-linejoin:miter;stroke-width:0.8;"/>
   </g>
   <g id="text_19">
    <!-- instance 14 with error 0.01124386869576155 -->
    <g style="fill:#ffffff;" transform="translate(378.046875 63.12)scale(0.12 -0.12)">
     <defs>
      <path d="M 2834 3397 
L 2834 2853 
Q 2591 2978 2328 3040 
Q 2066 3103 1784 3103 
Q 1356 3103 1142 2972 
Q 928 2841 928 2578 
Q 928 2378 1081 2264 
Q 1234 2150 1697 2047 
L 1894 2003 
Q 2506 1872 2764 1633 
Q 3022 1394 3022 966 
Q 3022 478 2636 193 
Q 2250 -91 1575 -91 
Q 1294 -91 989 -36 
Q 684 19 347 128 
L 347 722 
Q 666 556 975 473 
Q 1284 391 1588 391 
Q 1994 391 2212 530 
Q 2431 669 2431 922 
Q 2431 1156 2273 1281 
Q 2116 1406 1581 1522 
L 1381 1569 
Q 847 1681 609 1914 
Q 372 2147 372 2553 
Q 372 3047 722 3315 
Q 1072 3584 1716 3584 
Q 2034 3584 2315 3537 
Q 2597 3491 2834 3397 
z
" id="DejaVuSans-73" transform="scale(0.015625)"/>
      <path d="M 3122 3366 
L 3122 2828 
Q 2878 2963 2633 3030 
Q 2388 3097 2138 3097 
Q 1578 3097 1268 2742 
Q 959 2388 959 1747 
Q 959 1106 1268 751 
Q 1578 397 2138 397 
Q 2388 397 2633 464 
Q 2878 531 3122 666 
L 3122 134 
Q 2881 22 2623 -34 
Q 2366 -91 2075 -91 
Q 1284 -91 818 406 
Q 353 903 353 1747 
Q 353 2603 823 3093 
Q 1294 3584 2113 3584 
Q 2378 3584 2631 3529 
Q 2884 3475 3122 3366 
z
" id="DejaVuSans-63" transform="scale(0.015625)"/>
      <path id="DejaVuSans-20" transform="scale(0.015625)"/>
      <path d="M 269 3500 
L 844 3500 
L 1563 769 
L 2278 3500 
L 2956 3500 
L 3675 769 
L 4391 3500 
L 4966 3500 
L 4050 0 
L 3372 0 
L 2619 2869 
L 1863 0 
L 1184 0 
L 269 3500 
z
" id="DejaVuSans-77" transform="scale(0.015625)"/>
      <path d="M 3513 2113 
L 3513 0 
L 2938 0 
L 2938 2094 
Q 2938 2591 2744 2837 
Q 2550 3084 2163 3084 
Q 1697 3084 1428 2787 
Q 1159 2491 1159 1978 
L 1159 0 
L 581 0 
L 581 4863 
L 1159 4863 
L 1159 2956 
Q 1366 3272 1645 3428 
Q 1925 3584 2291 3584 
Q 2894 3584 3203 3211 
Q 3513 2838 3513 2113 
z
" id="DejaVuSans-68" transform="scale(0.015625)"/>
      <path d="M 684 794 
L 1344 794 
L 1344 0 
L 684 0 
L 684 794 
z
" id="DejaVuSans-2e" transform="scale(0.015625)"/>
      <path d="M 2034 2216 
Q 1584 2216 1326 1975 
Q 1069 1734 1069 1313 
Q 1069 891 1326 650 
Q 1584 409 2034 409 
Q 2484 409 2743 651 
Q 3003 894 3003 1313 
Q 3003 1734 2745 1975 
Q 2488 2216 2034 2216 
z
M 1403 2484 
Q 997 2584 770 2862 
Q 544 3141 544 3541 
Q 544 4100 942 4425 
Q 1341 4750 2034 4750 
Q 2731 4750 3128 4425 
Q 3525 4100 3525 3541 
Q 3525 3141 3298 2862 
Q 3072 2584 2669 2484 
Q 3125 2378 3379 2068 
Q 3634 1759 3634 1313 
Q 3634 634 3220 271 
Q 2806 -91 2034 -91 
Q 1263 -91 848 271 
Q 434 634 434 1313 
Q 434 1759 690 2068 
Q 947 2378 1403 2484 
z
M 1172 3481 
Q 1172 3119 1398 2916 
Q 1625 2713 2034 2713 
Q 2441 2713 2670 2916 
Q 2900 3119 2900 3481 
Q 2900 3844 2670 4047 
Q 2441 4250 2034 4250 
Q 1625 4250 1398 4047 
Q 1172 3844 1172 3481 
z
" id="DejaVuSans-38" transform="scale(0.015625)"/>
      <path d="M 2113 2584 
Q 1688 2584 1439 2293 
Q 1191 2003 1191 1497 
Q 1191 994 1439 701 
Q 1688 409 2113 409 
Q 2538 409 2786 701 
Q 3034 994 3034 1497 
Q 3034 2003 2786 2293 
Q 2538 2584 2113 2584 
z
M 3366 4563 
L 3366 3988 
Q 3128 4100 2886 4159 
Q 2644 4219 2406 4219 
Q 1781 4219 1451 3797 
Q 1122 3375 1075 2522 
Q 1259 2794 1537 2939 
Q 1816 3084 2150 3084 
Q 2853 3084 3261 2657 
Q 3669 2231 3669 1497 
Q 3669 778 3244 343 
Q 2819 -91 2113 -91 
Q 1303 -91 875 529 
Q 447 1150 447 2328 
Q 447 3434 972 4092 
Q 1497 4750 2381 4750 
Q 2619 4750 2861 4703 
Q 3103 4656 3366 4563 
z
" id="DejaVuSans-36" transform="scale(0.015625)"/>
      <path d="M 703 97 
L 703 672 
Q 941 559 1184 500 
Q 1428 441 1663 441 
Q 2288 441 2617 861 
Q 2947 1281 2994 2138 
Q 2813 1869 2534 1725 
Q 2256 1581 1919 1581 
Q 1219 1581 811 2004 
Q 403 2428 403 3163 
Q 403 3881 828 4315 
Q 1253 4750 1959 4750 
Q 2769 4750 3195 4129 
Q 3622 3509 3622 2328 
Q 3622 1225 3098 567 
Q 2575 -91 1691 -91 
Q 1453 -91 1209 -44 
Q 966 3 703 97 
z
M 1959 2075 
Q 2384 2075 2632 2365 
Q 2881 2656 2881 3163 
Q 2881 3666 2632 3958 
Q 2384 4250 1959 4250 
Q 1534 4250 1286 3958 
Q 1038 3666 1038 3163 
Q 1038 2656 1286 2365 
Q 1534 2075 1959 2075 
z
" id="DejaVuSans-39" transform="scale(0.015625)"/>
      <path d="M 525 4666 
L 3525 4666 
L 3525 4397 
L 1831 0 
L 1172 0 
L 2766 4134 
L 525 4134 
L 525 4666 
z
" id="DejaVuSans-37" transform="scale(0.015625)"/>
     </defs>
     <use xlink:href="#DejaVuSans-69"/>
     <use x="27.783203" xlink:href="#DejaVuSans-6e"/>
     <use x="91.162109" xlink:href="#DejaVuSans-73"/>
     <use x="143.261719" xlink:href="#DejaVuSans-74"/>
     <use x="182.470703" xlink:href="#DejaVuSans-61"/>
     <use x="243.75" xlink:href="#DejaVuSans-6e"/>
     <use x="307.128906" xlink:href="#DejaVuSans-63"/>
     <use x="362.109375" xlink:href="#DejaVuSans-65"/>
     <use x="423.632812" xlink:href="#DejaVuSans-20"/>
     <use x="455.419922" xlink:href="#DejaVuSans-31"/>
     <use x="519.042969" xlink:href="#DejaVuSans-34"/>
     <use x="582.666016" xlink:href="#DejaVuSans-20"/>
     <use x="614.453125" xlink:href="#DejaVuSans-77"/>
     <use x="696.240234" xlink:href="#DejaVuSans-69"/>
     <use x="724.023438" xlink:href="#DejaVuSans-74"/>
     <use x="763.232422" xlink:href="#DejaVuSans-68"/>
     <use x="826.611328" xlink:href="#DejaVuSans-20"/>
     <use x="858.398438" xlink:href="#DejaVuSans-65"/>
     <use x="919.921875" xlink:href="#DejaVuSans-72"/>
     <use x="959.285156" xlink:href="#DejaVuSans-72"/>
     <use x="998.148438" xlink:href="#DejaVuSans-6f"/>
     <use x="1059.330078" xlink:href="#DejaVuSans-72"/>
     <use x="1100.443359" xlink:href="#DejaVuSans-20"/>
     <use x="1132.230469" xlink:href="#DejaVuSans-30"/>
     <use x="1195.853516" xlink:href="#DejaVuSans-2e"/>
     <use x="1227.640625" xlink:href="#DejaVuSans-30"/>
     <use x="1291.263672" xlink:href="#DejaVuSans-31"/>
     <use x="1354.886719" xlink:href="#DejaVuSans-31"/>
     <use x="1418.509766" xlink:href="#DejaVuSans-32"/>
     <use x="1482.132812" xlink:href="#DejaVuSans-34"/>
     <use x="1545.755859" xlink:href="#DejaVuSans-33"/>
     <use x="1609.378906" xlink:href="#DejaVuSans-38"/>
     <use x="1673.001953" xlink:href="#DejaVuSans-36"/>
     <use x="1736.625" xlink:href="#DejaVuSans-38"/>
     <use x="1800.248047" xlink:href="#DejaVuSans-36"/>
     <use x="1863.871094" xlink:href="#DejaVuSans-39"/>
     <use x="1927.494141" xlink:href="#DejaVuSans-35"/>
     <use x="1991.117188" xlink:href="#DejaVuSans-37"/>
     <use x="2054.740234" xlink:href="#DejaVuSans-36"/>
     <use x="2118.363281" xlink:href="#DejaVuSans-31"/>
     <use x="2181.986328" xlink:href="#DejaVuSans-35"/>
     <use x="2245.609375" xlink:href="#DejaVuSans-35"/>
    </g>
   </g>
   <g id="legend_1">
    <g id="patch_7">
     <path d="M 805.348438 499 
L 900.2 499 
Q 902.2 499 902.2 497 
L 902.2 453.965625 
Q 902.2 451.965625 900.2 451.965625 
L 805.348438 451.965625 
Q 803.348438 451.965625 803.348438 453.965625 
L 803.348438 497 
Q 803.348438 499 805.348438 499 
z
" style="opacity:0.8;stroke:#cccccc;stroke-linejoin:miter;"/>
    </g>
    <g id="line2d_21">
     <path d="M 807.348438 460.064062 
L 827.348438 460.064062 
" style="fill:none;stroke:#8dd3c7;stroke-linecap:square;stroke-width:1.5;"/>
    </g>
    <g id="line2d_22"/>
    <g id="text_20">
     <!-- cost -->
     <g style="fill:#ffffff;" transform="translate(835.348438 463.564062)scale(0.1 -0.1)">
      <use xlink:href="#DejaVuSans-63"/>
      <use x="54.980469" xlink:href="#DejaVuSans-6f"/>
      <use x="116.162109" xlink:href="#DejaVuSans-73"/>
      <use x="168.261719" xlink:href="#DejaVuSans-74"/>
     </g>
    </g>
    <g id="line2d_23">
     <path d="M 807.348438 474.742188 
L 827.348438 474.742188 
" style="fill:none;stroke:#feffb3;stroke-linecap:square;stroke-width:1.5;"/>
    </g>
    <g id="line2d_24"/>
    <g id="text_21">
     <!-- best cost -->
     <g style="fill:#ffffff;" transform="translate(835.348438 478.242188)scale(0.1 -0.1)">
      <defs>
       <path d="M 3116 1747 
Q 3116 2381 2855 2742 
Q 2594 3103 2138 3103 
Q 1681 3103 1420 2742 
Q 1159 2381 1159 1747 
Q 1159 1113 1420 752 
Q 1681 391 2138 391 
Q 2594 391 2855 752 
Q 3116 1113 3116 1747 
z
M 1159 2969 
Q 1341 3281 1617 3432 
Q 1894 3584 2278 3584 
Q 2916 3584 3314 3078 
Q 3713 2572 3713 1747 
Q 3713 922 3314 415 
Q 2916 -91 2278 -91 
Q 1894 -91 1617 61 
Q 1341 213 1159 525 
L 1159 0 
L 581 0 
L 581 4863 
L 1159 4863 
L 1159 2969 
z
" id="DejaVuSans-62" transform="scale(0.015625)"/>
      </defs>
      <use xlink:href="#DejaVuSans-62"/>
      <use x="63.476562" xlink:href="#DejaVuSans-65"/>
      <use x="125" xlink:href="#DejaVuSans-73"/>
      <use x="177.099609" xlink:href="#DejaVuSans-74"/>
      <use x="216.308594" xlink:href="#DejaVuSans-20"/>
      <use x="248.095703" xlink:href="#DejaVuSans-63"/>
      <use x="303.076172" xlink:href="#DejaVuSans-6f"/>
      <use x="364.257812" xlink:href="#DejaVuSans-73"/>
      <use x="416.357422" xlink:href="#DejaVuSans-74"/>
     </g>
    </g>
    <g id="line2d_25">
     <path d="M 807.348438 489.420313 
L 827.348438 489.420313 
" style="fill:none;stroke:#bfbbd9;stroke-linecap:square;stroke-width:1.5;"/>
    </g>
    <g id="line2d_26"/>
    <g id="text_22">
     <!-- temperature -->
     <g style="fill:#ffffff;" transform="translate(835.348438 492.920313)scale(0.1 -0.1)">
      <defs>
       <path d="M 3328 2828 
Q 3544 3216 3844 3400 
Q 4144 3584 4550 3584 
Q 5097 3584 5394 3201 
Q 5691 2819 5691 2113 
L 5691 0 
L 5113 0 
L 5113 2094 
Q 5113 2597 4934 2840 
Q 4756 3084 4391 3084 
Q 3944 3084 3684 2787 
Q 3425 2491 3425 1978 
L 3425 0 
L 2847 0 
L 2847 2094 
Q 2847 2600 2669 2842 
Q 2491 3084 2119 3084 
Q 1678 3084 1418 2786 
Q 1159 2488 1159 1978 
L 1159 0 
L 581 0 
L 581 3500 
L 1159 3500 
L 1159 2956 
Q 1356 3278 1631 3431 
Q 1906 3584 2284 3584 
Q 2666 3584 2933 3390 
Q 3200 3197 3328 2828 
z
" id="DejaVuSans-6d" transform="scale(0.015625)"/>
       <path d="M 1159 525 
L 1159 -1331 
L 581 -1331 
L 581 3500 
L 1159 3500 
L 1159 2969 
Q 1341 3281 1617 3432 
Q 1894 3584 2278 3584 
Q 2916 3584 3314 3078 
Q 3713 2572 3713 1747 
Q 3713 922 3314 415 
Q 2916 -91 2278 -91 
Q 1894 -91 1617 61 
Q 1341 213 1159 525 
z
M 3116 1747 
Q 3116 2381 2855 2742 
Q 2594 3103 2138 3103 
Q 1681 3103 1420 2742 
Q 1159 2381 1159 1747 
Q 1159 1113 1420 752 
Q 1681 391 2138 391 
Q 2594 391 2855 752 
Q 3116 1113 3116 1747 
z
" id="DejaVuSans-70" transform="scale(0.015625)"/>
       <path d="M 544 1381 
L 544 3500 
L 1119 3500 
L 1119 1403 
Q 1119 906 1312 657 
Q 1506 409 1894 409 
Q 2359 409 2629 706 
Q 2900 1003 2900 1516 
L 2900 3500 
L 3475 3500 
L 3475 0 
L 2900 0 
L 2900 538 
Q 2691 219 2414 64 
Q 2138 -91 1772 -91 
Q 1169 -91 856 284 
Q 544 659 544 1381 
z
M 1991 3584 
L 1991 3584 
z
" id="DejaVuSans-75" transform="scale(0.015625)"/>
      </defs>
      <use xlink:href="#DejaVuSans-74"/>
      <use x="39.208984" xlink:href="#DejaVuSans-65"/>
      <use x="100.732422" xlink:href="#DejaVuSans-6d"/>
      <use x="198.144531" xlink:href="#DejaVuSans-70"/>
      <use x="261.621094" xlink:href="#DejaVuSans-65"/>
      <use x="323.144531" xlink:href="#DejaVuSans-72"/>
      <use x="364.257812" xlink:href="#DejaVuSans-61"/>
      <use x="425.537109" xlink:href="#DejaVuSans-74"/>
      <use x="464.746094" xlink:href="#DejaVuSans-75"/>
      <use x="528.125" xlink:href="#DejaVuSans-72"/>
      <use x="566.988281" xlink:href="#DejaVuSans-65"/>
     </g>
    </g>
   </g>
  </g>
 </g>
 <defs>
  <clipPath id="pe4b53575f1">
   <rect height="434.88" width="781.2" x="126" y="69.12"/>
  </clipPath>
 </defs>
</svg>
