<?xml version="1.0" encoding="utf-8" standalone="no"?>
<!DOCTYPE svg PUBLIC "-//W3C//DTD SVG 1.1//EN"
  "http://www.w3.org/Graphics/SVG/1.1/DTD/svg11.dtd">
<svg height="576pt" version="1.1" viewBox="0 0 1008 576" width="1008pt" xmlns="http://www.w3.org/2000/svg" xmlns:xlink="http://www.w3.org/1999/xlink">
 <metadata>
  <rdf:RDF xmlns:cc="http://creativecommons.org/ns#" xmlns:dc="http://purl.org/dc/elements/1.1/" xmlns:rdf="http://www.w3.org/1999/02/22-rdf-syntax-ns#">
   <cc:Work>
    <dc:type rdf:resource="http://purl.org/dc/dcmitype/StillImage"/>
    <dc:date>2022-01-07T00:38:58.540462</dc:date>
    <dc:format>image/svg+xml</dc:format>
    <dc:creator>
     <cc:Agent>
      <dc:title>Matplotlib v3.4.3, https://matplotlib.org/</dc:title>
     </cc:Agent>
    </dc:creator>
   </cc:Work>
  </rdf:RDF>
 </metadata>
 <defs>
  <style type="text/css">*{stroke-linecap:butt;stroke-linejoin:round;}</style>
 </defs>
 <g id="figure_1">
  <g id="patch_1">
   <path d="M 0 576 
L 1008 576 
L 1008 0 
L 0 0 
z
"/>
  </g>
  <g id="axes_1">
   <g id="patch_2">
    <path d="M 126 504 
L 907.2 504 
L 907.2 69.12 
L 126 69.12 
z
"/>
   </g>
   <g id="matplotlib.axis_1">
    <g id="xtick_1">
     <g id="line2d_1">
      <defs>
       <path d="M 0 0 
L 0 3.5 
" id="mc1c5e4d796" style="stroke:#ffffff;stroke-width:0.8;"/>
      </defs>
      <g>
       <use style="fill:#ffffff;stroke:#ffffff;stroke-width:0.8;" x="161.509091" xlink:href="#mc1c5e4d796" y="504"/>
      </g>
     </g>
     <g id="text_1">
      <!-- 0 -->
      <g style="fill:#ffffff;" transform="translate(158.327841 518.598438)scale(0.1 -0.1)">
       <defs>
        <path d="M 2034 4250 
Q 1547 4250 1301 3770 
Q 1056 3291 1056 2328 
Q 1056 1369 1301 889 
Q 1547 409 2034 409 
Q 2525 409 2770 889 
Q 3016 1369 3016 2328 
Q 3016 3291 2770 3770 
Q 2525 4250 2034 4250 
z
M 2034 4750 
Q 2819 4750 3233 4129 
Q 3647 3509 3647 2328 
Q 3647 1150 3233 529 
Q 2819 -91 2034 -91 
Q 1250 -91 836 529 
Q 422 1150 422 2328 
Q 422 3509 836 4129 
Q 1250 4750 2034 4750 
z
" id="DejaVuSans-30" transform="scale(0.015625)"/>
       </defs>
       <use xlink:href="#DejaVuSans-30"/>
      </g>
     </g>
    </g>
    <g id="xtick_2">
     <g id="line2d_2">
      <g>
       <use style="fill:#ffffff;stroke:#ffffff;stroke-width:0.8;" x="279.912195" xlink:href="#mc1c5e4d796" y="504"/>
      </g>
     </g>
     <g id="text_2">
      <!-- 500 -->
      <g style="fill:#ffffff;" transform="translate(270.368445 518.598438)scale(0.1 -0.1)">
       <defs>
        <path d="M 691 4666 
L 3169 4666 
L 3169 4134 
L 1269 4134 
L 1269 2991 
Q 1406 3038 1543 3061 
Q 1681 3084 1819 3084 
Q 2600 3084 3056 2656 
Q 3513 2228 3513 1497 
Q 3513 744 3044 326 
Q 2575 -91 1722 -91 
Q 1428 -91 1123 -41 
Q 819 9 494 109 
L 494 744 
Q 775 591 1075 516 
Q 1375 441 1709 441 
Q 2250 441 2565 725 
Q 2881 1009 2881 1497 
Q 2881 1984 2565 2268 
Q 2250 2553 1709 2553 
Q 1456 2553 1204 2497 
Q 953 2441 691 2322 
L 691 4666 
z
" id="DejaVuSans-35" transform="scale(0.015625)"/>
       </defs>
       <use xlink:href="#DejaVuSans-35"/>
       <use x="63.623047" xlink:href="#DejaVuSans-30"/>
       <use x="127.246094" xlink:href="#DejaVuSans-30"/>
      </g>
     </g>
    </g>
    <g id="xtick_3">
     <g id="line2d_3">
      <g>
       <use style="fill:#ffffff;stroke:#ffffff;stroke-width:0.8;" x="398.315299" xlink:href="#mc1c5e4d796" y="504"/>
      </g>
     </g>
     <g id="text_3">
      <!-- 1000 -->
      <g style="fill:#ffffff;" transform="translate(385.590299 518.598438)scale(0.1 -0.1)">
       <defs>
        <path d="M 794 531 
L 1825 531 
L 1825 4091 
L 703 3866 
L 703 4441 
L 1819 4666 
L 2450 4666 
L 2450 531 
L 3481 531 
L 3481 0 
L 794 0 
L 794 531 
z
" id="DejaVuSans-31" transform="scale(0.015625)"/>
       </defs>
       <use xlink:href="#DejaVuSans-31"/>
       <use x="63.623047" xlink:href="#DejaVuSans-30"/>
       <use x="127.246094" xlink:href="#DejaVuSans-30"/>
       <use x="190.869141" xlink:href="#DejaVuSans-30"/>
      </g>
     </g>
    </g>
    <g id="xtick_4">
     <g id="line2d_4">
      <g>
       <use style="fill:#ffffff;stroke:#ffffff;stroke-width:0.8;" x="516.718403" xlink:href="#mc1c5e4d796" y="504"/>
      </g>
     </g>
     <g id="text_4">
      <!-- 1500 -->
      <g style="fill:#ffffff;" transform="translate(503.993403 518.598438)scale(0.1 -0.1)">
       <use xlink:href="#DejaVuSans-31"/>
       <use x="63.623047" xlink:href="#DejaVuSans-35"/>
       <use x="127.246094" xlink:href="#DejaVuSans-30"/>
       <use x="190.869141" xlink:href="#DejaVuSans-30"/>
      </g>
     </g>
    </g>
    <g id="xtick_5">
     <g id="line2d_5">
      <g>
       <use style="fill:#ffffff;stroke:#ffffff;stroke-width:0.8;" x="635.121507" xlink:href="#mc1c5e4d796" y="504"/>
      </g>
     </g>
     <g id="text_5">
      <!-- 2000 -->
      <g style="fill:#ffffff;" transform="translate(622.396507 518.598438)scale(0.1 -0.1)">
       <defs>
        <path d="M 1228 531 
L 3431 531 
L 3431 0 
L 469 0 
L 469 531 
Q 828 903 1448 1529 
Q 2069 2156 2228 2338 
Q 2531 2678 2651 2914 
Q 2772 3150 2772 3378 
Q 2772 3750 2511 3984 
Q 2250 4219 1831 4219 
Q 1534 4219 1204 4116 
Q 875 4013 500 3803 
L 500 4441 
Q 881 4594 1212 4672 
Q 1544 4750 1819 4750 
Q 2544 4750 2975 4387 
Q 3406 4025 3406 3419 
Q 3406 3131 3298 2873 
Q 3191 2616 2906 2266 
Q 2828 2175 2409 1742 
Q 1991 1309 1228 531 
z
" id="DejaVuSans-32" transform="scale(0.015625)"/>
       </defs>
       <use xlink:href="#DejaVuSans-32"/>
       <use x="63.623047" xlink:href="#DejaVuSans-30"/>
       <use x="127.246094" xlink:href="#DejaVuSans-30"/>
       <use x="190.869141" xlink:href="#DejaVuSans-30"/>
      </g>
     </g>
    </g>
    <g id="xtick_6">
     <g id="line2d_6">
      <g>
       <use style="fill:#ffffff;stroke:#ffffff;stroke-width:0.8;" x="753.524611" xlink:href="#mc1c5e4d796" y="504"/>
      </g>
     </g>
     <g id="text_6">
      <!-- 2500 -->
      <g style="fill:#ffffff;" transform="translate(740.799611 518.598438)scale(0.1 -0.1)">
       <use xlink:href="#DejaVuSans-32"/>
       <use x="63.623047" xlink:href="#DejaVuSans-35"/>
       <use x="127.246094" xlink:href="#DejaVuSans-30"/>
       <use x="190.869141" xlink:href="#DejaVuSans-30"/>
      </g>
     </g>
    </g>
    <g id="xtick_7">
     <g id="line2d_7">
      <g>
       <use style="fill:#ffffff;stroke:#ffffff;stroke-width:0.8;" x="871.927715" xlink:href="#mc1c5e4d796" y="504"/>
      </g>
     </g>
     <g id="text_7">
      <!-- 3000 -->
      <g style="fill:#ffffff;" transform="translate(859.202715 518.598438)scale(0.1 -0.1)">
       <defs>
        <path d="M 2597 2516 
Q 3050 2419 3304 2112 
Q 3559 1806 3559 1356 
Q 3559 666 3084 287 
Q 2609 -91 1734 -91 
Q 1441 -91 1130 -33 
Q 819 25 488 141 
L 488 750 
Q 750 597 1062 519 
Q 1375 441 1716 441 
Q 2309 441 2620 675 
Q 2931 909 2931 1356 
Q 2931 1769 2642 2001 
Q 2353 2234 1838 2234 
L 1294 2234 
L 1294 2753 
L 1863 2753 
Q 2328 2753 2575 2939 
Q 2822 3125 2822 3475 
Q 2822 3834 2567 4026 
Q 2313 4219 1838 4219 
Q 1578 4219 1281 4162 
Q 984 4106 628 3988 
L 628 4550 
Q 988 4650 1302 4700 
Q 1616 4750 1894 4750 
Q 2613 4750 3031 4423 
Q 3450 4097 3450 3541 
Q 3450 3153 3228 2886 
Q 3006 2619 2597 2516 
z
" id="DejaVuSans-33" transform="scale(0.015625)"/>
       </defs>
       <use xlink:href="#DejaVuSans-33"/>
       <use x="63.623047" xlink:href="#DejaVuSans-30"/>
       <use x="127.246094" xlink:href="#DejaVuSans-30"/>
       <use x="190.869141" xlink:href="#DejaVuSans-30"/>
      </g>
     </g>
    </g>
    <g id="text_8">
     <!-- iteration -->
     <g style="fill:#ffffff;" transform="translate(495.477344 532.276562)scale(0.1 -0.1)">
      <defs>
       <path d="M 603 3500 
L 1178 3500 
L 1178 0 
L 603 0 
L 603 3500 
z
M 603 4863 
L 1178 4863 
L 1178 4134 
L 603 4134 
L 603 4863 
z
" id="DejaVuSans-69" transform="scale(0.015625)"/>
       <path d="M 1172 4494 
L 1172 3500 
L 2356 3500 
L 2356 3053 
L 1172 3053 
L 1172 1153 
Q 1172 725 1289 603 
Q 1406 481 1766 481 
L 2356 481 
L 2356 0 
L 1766 0 
Q 1100 0 847 248 
Q 594 497 594 1153 
L 594 3053 
L 172 3053 
L 172 3500 
L 594 3500 
L 594 4494 
L 1172 4494 
z
" id="DejaVuSans-74" transform="scale(0.015625)"/>
       <path d="M 3597 1894 
L 3597 1613 
L 953 1613 
Q 991 1019 1311 708 
Q 1631 397 2203 397 
Q 2534 397 2845 478 
Q 3156 559 3463 722 
L 3463 178 
Q 3153 47 2828 -22 
Q 2503 -91 2169 -91 
Q 1331 -91 842 396 
Q 353 884 353 1716 
Q 353 2575 817 3079 
Q 1281 3584 2069 3584 
Q 2775 3584 3186 3129 
Q 3597 2675 3597 1894 
z
M 3022 2063 
Q 3016 2534 2758 2815 
Q 2500 3097 2075 3097 
Q 1594 3097 1305 2825 
Q 1016 2553 972 2059 
L 3022 2063 
z
" id="DejaVuSans-65" transform="scale(0.015625)"/>
       <path d="M 2631 2963 
Q 2534 3019 2420 3045 
Q 2306 3072 2169 3072 
Q 1681 3072 1420 2755 
Q 1159 2438 1159 1844 
L 1159 0 
L 581 0 
L 581 3500 
L 1159 3500 
L 1159 2956 
Q 1341 3275 1631 3429 
Q 1922 3584 2338 3584 
Q 2397 3584 2469 3576 
Q 2541 3569 2628 3553 
L 2631 2963 
z
" id="DejaVuSans-72" transform="scale(0.015625)"/>
       <path d="M 2194 1759 
Q 1497 1759 1228 1600 
Q 959 1441 959 1056 
Q 959 750 1161 570 
Q 1363 391 1709 391 
Q 2188 391 2477 730 
Q 2766 1069 2766 1631 
L 2766 1759 
L 2194 1759 
z
M 3341 1997 
L 3341 0 
L 2766 0 
L 2766 531 
Q 2569 213 2275 61 
Q 1981 -91 1556 -91 
Q 1019 -91 701 211 
Q 384 513 384 1019 
Q 384 1609 779 1909 
Q 1175 2209 1959 2209 
L 2766 2209 
L 2766 2266 
Q 2766 2663 2505 2880 
Q 2244 3097 1772 3097 
Q 1472 3097 1187 3025 
Q 903 2953 641 2809 
L 641 3341 
Q 956 3463 1253 3523 
Q 1550 3584 1831 3584 
Q 2591 3584 2966 3190 
Q 3341 2797 3341 1997 
z
" id="DejaVuSans-61" transform="scale(0.015625)"/>
       <path d="M 1959 3097 
Q 1497 3097 1228 2736 
Q 959 2375 959 1747 
Q 959 1119 1226 758 
Q 1494 397 1959 397 
Q 2419 397 2687 759 
Q 2956 1122 2956 1747 
Q 2956 2369 2687 2733 
Q 2419 3097 1959 3097 
z
M 1959 3584 
Q 2709 3584 3137 3096 
Q 3566 2609 3566 1747 
Q 3566 888 3137 398 
Q 2709 -91 1959 -91 
Q 1206 -91 779 398 
Q 353 888 353 1747 
Q 353 2609 779 3096 
Q 1206 3584 1959 3584 
z
" id="DejaVuSans-6f" transform="scale(0.015625)"/>
       <path d="M 3513 2113 
L 3513 0 
L 2938 0 
L 2938 2094 
Q 2938 2591 2744 2837 
Q 2550 3084 2163 3084 
Q 1697 3084 1428 2787 
Q 1159 2491 1159 1978 
L 1159 0 
L 581 0 
L 581 3500 
L 1159 3500 
L 1159 2956 
Q 1366 3272 1645 3428 
Q 1925 3584 2291 3584 
Q 2894 3584 3203 3211 
Q 3513 2838 3513 2113 
z
" id="DejaVuSans-6e" transform="scale(0.015625)"/>
      </defs>
      <use xlink:href="#DejaVuSans-69"/>
      <use x="27.783203" xlink:href="#DejaVuSans-74"/>
      <use x="66.992188" xlink:href="#DejaVuSans-65"/>
      <use x="128.515625" xlink:href="#DejaVuSans-72"/>
      <use x="169.628906" xlink:href="#DejaVuSans-61"/>
      <use x="230.908203" xlink:href="#DejaVuSans-74"/>
      <use x="270.117188" xlink:href="#DejaVuSans-69"/>
      <use x="297.900391" xlink:href="#DejaVuSans-6f"/>
      <use x="359.082031" xlink:href="#DejaVuSans-6e"/>
     </g>
    </g>
   </g>
   <g id="matplotlib.axis_2">
    <g id="ytick_1">
     <g id="line2d_8">
      <defs>
       <path d="M 0 0 
L -3.5 0 
" id="m1d5ed9c8d9" style="stroke:#ffffff;stroke-width:0.8;"/>
      </defs>
      <g>
       <use style="fill:#ffffff;stroke:#ffffff;stroke-width:0.8;" x="126" xlink:href="#m1d5ed9c8d9" y="484.232815"/>
      </g>
     </g>
     <g id="text_9">
      <!-- 0 -->
      <g style="fill:#ffffff;" transform="translate(112.6375 488.032034)scale(0.1 -0.1)">
       <use xlink:href="#DejaVuSans-30"/>
      </g>
     </g>
    </g>
    <g id="ytick_2">
     <g id="line2d_9">
      <g>
       <use style="fill:#ffffff;stroke:#ffffff;stroke-width:0.8;" x="126" xlink:href="#m1d5ed9c8d9" y="426.898136"/>
      </g>
     </g>
     <g id="text_10">
      <!-- 5000 -->
      <g style="fill:#ffffff;" transform="translate(93.55 430.697355)scale(0.1 -0.1)">
       <use xlink:href="#DejaVuSans-35"/>
       <use x="63.623047" xlink:href="#DejaVuSans-30"/>
       <use x="127.246094" xlink:href="#DejaVuSans-30"/>
       <use x="190.869141" xlink:href="#DejaVuSans-30"/>
      </g>
     </g>
    </g>
    <g id="ytick_3">
     <g id="line2d_10">
      <g>
       <use style="fill:#ffffff;stroke:#ffffff;stroke-width:0.8;" x="126" xlink:href="#m1d5ed9c8d9" y="369.563458"/>
      </g>
     </g>
     <g id="text_11">
      <!-- 10000 -->
      <g style="fill:#ffffff;" transform="translate(87.1875 373.362677)scale(0.1 -0.1)">
       <use xlink:href="#DejaVuSans-31"/>
       <use x="63.623047" xlink:href="#DejaVuSans-30"/>
       <use x="127.246094" xlink:href="#DejaVuSans-30"/>
       <use x="190.869141" xlink:href="#DejaVuSans-30"/>
       <use x="254.492188" xlink:href="#DejaVuSans-30"/>
      </g>
     </g>
    </g>
    <g id="ytick_4">
     <g id="line2d_11">
      <g>
       <use style="fill:#ffffff;stroke:#ffffff;stroke-width:0.8;" x="126" xlink:href="#m1d5ed9c8d9" y="312.228779"/>
      </g>
     </g>
     <g id="text_12">
      <!-- 15000 -->
      <g style="fill:#ffffff;" transform="translate(87.1875 316.027998)scale(0.1 -0.1)">
       <use xlink:href="#DejaVuSans-31"/>
       <use x="63.623047" xlink:href="#DejaVuSans-35"/>
       <use x="127.246094" xlink:href="#DejaVuSans-30"/>
       <use x="190.869141" xlink:href="#DejaVuSans-30"/>
       <use x="254.492188" xlink:href="#DejaVuSans-30"/>
      </g>
     </g>
    </g>
    <g id="ytick_5">
     <g id="line2d_12">
      <g>
       <use style="fill:#ffffff;stroke:#ffffff;stroke-width:0.8;" x="126" xlink:href="#m1d5ed9c8d9" y="254.894101"/>
      </g>
     </g>
     <g id="text_13">
      <!-- 20000 -->
      <g style="fill:#ffffff;" transform="translate(87.1875 258.69332)scale(0.1 -0.1)">
       <use xlink:href="#DejaVuSans-32"/>
       <use x="63.623047" xlink:href="#DejaVuSans-30"/>
       <use x="127.246094" xlink:href="#DejaVuSans-30"/>
       <use x="190.869141" xlink:href="#DejaVuSans-30"/>
       <use x="254.492188" xlink:href="#DejaVuSans-30"/>
      </g>
     </g>
    </g>
    <g id="ytick_6">
     <g id="line2d_13">
      <g>
       <use style="fill:#ffffff;stroke:#ffffff;stroke-width:0.8;" x="126" xlink:href="#m1d5ed9c8d9" y="197.559422"/>
      </g>
     </g>
     <g id="text_14">
      <!-- 25000 -->
      <g style="fill:#ffffff;" transform="translate(87.1875 201.358641)scale(0.1 -0.1)">
       <use xlink:href="#DejaVuSans-32"/>
       <use x="63.623047" xlink:href="#DejaVuSans-35"/>
       <use x="127.246094" xlink:href="#DejaVuSans-30"/>
       <use x="190.869141" xlink:href="#DejaVuSans-30"/>
       <use x="254.492188" xlink:href="#DejaVuSans-30"/>
      </g>
     </g>
    </g>
    <g id="ytick_7">
     <g id="line2d_14">
      <g>
       <use style="fill:#ffffff;stroke:#ffffff;stroke-width:0.8;" x="126" xlink:href="#m1d5ed9c8d9" y="140.224744"/>
      </g>
     </g>
     <g id="text_15">
      <!-- 30000 -->
      <g style="fill:#ffffff;" transform="translate(87.1875 144.023963)scale(0.1 -0.1)">
       <use xlink:href="#DejaVuSans-33"/>
       <use x="63.623047" xlink:href="#DejaVuSans-30"/>
       <use x="127.246094" xlink:href="#DejaVuSans-30"/>
       <use x="190.869141" xlink:href="#DejaVuSans-30"/>
       <use x="254.492188" xlink:href="#DejaVuSans-30"/>
      </g>
     </g>
    </g>
    <g id="ytick_8">
     <g id="line2d_15">
      <g>
       <use style="fill:#ffffff;stroke:#ffffff;stroke-width:0.8;" x="126" xlink:href="#m1d5ed9c8d9" y="82.890065"/>
      </g>
     </g>
     <g id="text_16">
      <!-- 35000 -->
      <g style="fill:#ffffff;" transform="translate(87.1875 86.689284)scale(0.1 -0.1)">
       <use xlink:href="#DejaVuSans-33"/>
       <use x="63.623047" xlink:href="#DejaVuSans-35"/>
       <use x="127.246094" xlink:href="#DejaVuSans-30"/>
       <use x="190.869141" xlink:href="#DejaVuSans-30"/>
       <use x="254.492188" xlink:href="#DejaVuSans-30"/>
      </g>
     </g>
    </g>
   </g>
   <g id="line2d_16">
    <path clip-path="url(#p9b14d1cc28)" d="M 161.509091 198.843719 
L 161.745897 217.259618 
L 161.982703 220.091951 
L 162.21951 234.884298 
L 162.456316 220.481827 
L 162.693122 213.154455 
L 162.929928 210.322122 
L 163.166734 232.992254 
L 163.403541 222.121599 
L 164.113959 257.806702 
L 164.350765 249.080364 
L 164.587572 273.90628 
L 164.824378 262.97829 
L 165.061184 244.562392 
L 165.534796 288.010611 
L 166.008409 313.673613 
L 166.245215 332.089512 
L 166.482021 305.039011 
L 166.718827 332.089512 
L 166.955634 326.149639 
L 167.19244 304.534465 
L 167.429246 310.806879 
L 167.666052 332.422053 
L 168.376471 266.980251 
L 168.850083 307.183328 
L 169.323696 326.837655 
L 169.560502 255.433047 
L 169.797308 254.435423 
L 170.034114 274.846569 
L 170.270921 281.118983 
L 170.507727 292.929927 
L 170.744533 283.71051 
L 170.981339 257.118686 
L 171.218145 264.595128 
L 171.928564 201.893924 
L 172.16537 231.891428 
L 172.402176 227.13265 
L 172.638983 253.082325 
L 172.875789 232.1437 
L 173.112595 221.215711 
L 173.349401 238.909192 
L 173.586208 241.982331 
L 173.823014 251.201748 
L 174.296626 300.394902 
L 174.533432 292.91846 
L 174.770239 266.968784 
L 175.243851 312.82506 
L 175.480657 298.032713 
L 175.95427 245.582949 
L 176.191076 270.982212 
L 176.427882 276.429006 
L 176.901494 260.489965 
L 177.138301 266.762379 
L 177.611913 223.360028 
L 177.848719 204.944129 
L 178.085525 230.343391 
L 178.322332 227.511058 
L 178.559138 226.983579 
L 178.795944 217.764163 
L 179.03275 221.662921 
L 179.269557 232.590911 
L 179.506363 249.928918 
L 179.743169 247.016316 
L 179.979975 222.1904 
L 180.216781 211.26241 
L 180.453588 185.863148 
L 180.690394 215.367573 
L 180.9272 198.029567 
L 181.164006 200.930701 
L 181.400812 217.408688 
L 181.637619 191.459013 
L 181.874425 208.797019 
L 182.348037 171.529478 
L 182.82165 215.619846 
L 183.058456 190.79393 
L 183.295262 198.270372 
L 183.532068 192.995582 
L 183.768874 212.122431 
L 184.005681 207.661793 
L 184.242487 183.604162 
L 184.479293 201.607251 
L 184.952906 164.33971 
L 185.426518 212.959517 
L 185.663324 198.557046 
L 186.136937 223.887507 
L 186.373743 201.744854 
L 186.610549 210.471192 
L 187.084161 180.450754 
L 187.320968 187.80106 
L 187.557774 223.6123 
L 188.504999 287.67807 
L 188.978611 247.142452 
L 189.215417 239.66601 
L 189.452223 258.930462 
L 189.68903 235.480579 
L 189.925836 260.879841 
L 190.399448 235.652583 
L 190.636255 235.652583 
L 190.873061 244.871999 
L 191.109867 244.871999 
L 191.346673 235.652583 
L 191.583479 243.129025 
L 191.820286 264.067649 
L 192.057092 269.34244 
L 192.293898 278.561856 
L 192.530704 260.145957 
L 192.76751 271.865166 
L 193.004317 249.722513 
L 193.477929 298.915667 
L 193.714735 273.516404 
L 193.951541 261.797196 
L 194.188348 234.746695 
L 194.425154 251.224681 
L 194.898766 263.436968 
L 195.135572 260.524366 
L 195.372379 278.940265 
L 195.609185 276.03913 
L 195.845991 290.831477 
L 196.082797 317.881979 
L 196.319604 329.601187 
L 196.55641 351.652104 
L 196.793216 339.932896 
L 197.503635 281.921668 
L 197.740441 284.822803 
L 197.977247 298.330853 
L 198.214053 292.058439 
L 198.450859 273.642541 
L 198.687666 276.555142 
L 198.924472 287.483132 
L 199.161278 312.882395 
L 200.108503 238.828924 
L 200.345309 245.101338 
L 200.582115 222.958685 
L 200.818921 217.018812 
L 201.055728 217.018812 
L 202.002952 283.343568 
L 202.713371 211.182142 
L 202.950177 228.875624 
L 203.186984 235.148038 
L 203.660596 185.691144 
L 203.897402 196.619134 
L 204.134208 182.216662 
L 204.371015 197.719959 
L 204.844627 205.907352 
L 205.081433 198.430909 
L 205.318239 224.380585 
L 205.555046 205.964686 
L 205.791852 200.024814 
L 206.028658 216.5028 
L 206.265464 213.590198 
L 206.50227 238.416114 
L 206.739077 247.635531 
L 206.975883 252.451644 
L 207.212689 240.262291 
L 207.449495 243.174893 
L 207.686301 236.902479 
L 207.923108 212.076563 
L 208.159914 228.944425 
L 208.870333 177.480818 
L 209.107139 190.782463 
L 209.343945 197.054877 
L 209.580751 190.782463 
L 209.817557 181.563047 
L 210.054364 192.433702 
L 210.29117 219.484203 
L 210.527976 207.67326 
L 210.764782 234.265084 
L 211.238395 180.622758 
L 211.475201 188.0992 
L 211.712007 177.171211 
L 211.948813 157.906759 
L 212.185619 163.846631 
L 212.422426 144.754183 
L 212.659232 161.23217 
L 212.896038 307.871344 
L 213.132844 319.590552 
L 213.36965 301.174653 
L 213.843263 350.574212 
L 214.080069 355.849003 
L 214.316875 364.575341 
L 214.553682 211.273877 
L 214.790488 240.594832 
L 215.027294 243.530368 
L 215.737713 298.720729 
L 215.974519 307.538803 
L 216.448131 338.38486 
L 216.684937 329.165443 
L 216.921744 303.766181 
L 217.15855 312.985597 
L 217.395356 288.927966 
L 217.632162 280.201628 
L 217.868968 299.294076 
L 218.342581 265.867958 
L 218.816193 298.663394 
L 219.052999 279.570946 
L 219.289806 290.441601 
L 220.000224 241.592455 
L 220.473837 213.831004 
L 220.710643 187.23918 
L 220.947449 232.510642 
L 221.184255 207.684727 
L 221.421062 218.75032 
L 221.894674 206.010554 
L 222.368286 246.098961 
L 222.841899 287.850074 
L 223.078705 296.576412 
L 223.315511 278.88293 
L 223.552317 285.155344 
L 223.789124 302.848826 
L 224.02593 285.155344 
L 224.499542 328.248088 
L 224.736348 304.190457 
L 224.973155 292.379514 
L 225.209961 274.686032 
L 225.683573 228.829756 
L 225.92038 219.61034 
L 226.157186 234.402687 
L 226.393992 259.228603 
L 226.630798 242.750616 
L 226.867604 234.024278 
L 227.341217 187.147445 
L 227.578023 206.411897 
L 227.814829 195.541242 
L 228.051635 177.538153 
L 228.288442 203.487828 
L 228.525248 212.214166 
L 228.762054 193.121718 
L 228.99886 212.214166 
L 229.235666 193.798267 
L 229.472473 210.276254 
L 229.946085 187.629056 
L 230.182891 196.848472 
L 230.419697 173.799932 
L 230.656504 166.323489 
L 230.89331 184.016971 
L 231.130116 186.929573 
L 231.366922 181.654783 
L 231.840535 224.896597 
L 232.077341 221.983995 
L 232.550953 243.553301 
L 232.78776 240.6407 
L 233.024566 241.099377 
L 233.261372 242.475409 
L 233.498178 248.747823 
L 233.734984 227.13265 
L 234.208597 264.640996 
L 234.445403 255.914658 
L 234.682209 231.088742 
L 234.919015 247.429126 
L 235.155822 253.70154 
L 235.392628 238.909192 
L 235.629434 249.837182 
L 235.86624 228.222008 
L 236.103046 227.889467 
L 236.339853 234.161881 
L 236.576659 252.16497 
L 236.813465 235.686984 
L 237.050271 229.747111 
L 237.287078 269.778183 
L 237.523884 281.589127 
L 237.76069 272.862789 
L 237.997496 297.012156 
L 238.471109 315.81793 
L 238.707915 302.30988 
L 238.944721 278.859996 
L 239.181527 271.36062 
L 239.65514 224.392052 
L 239.891946 247.841935 
L 240.128752 228.577483 
L 240.839171 274.112685 
L 241.075977 263.24203 
L 241.312783 245.904023 
L 241.549589 251.843896 
L 242.260008 193.809734 
L 242.496814 278.470121 
L 242.970427 257.038418 
L 243.207233 266.257834 
L 243.680845 294.248624 
L 243.917651 271.578492 
L 244.154458 290.693874 
L 244.391264 298.170316 
L 244.62807 278.905864 
L 245.101682 320.840448 
L 245.338489 323.672781 
L 245.575295 311.861837 
L 246.285713 332.13538 
L 247.232938 270.030456 
L 247.469744 267.129321 
L 247.943357 221.273045 
L 248.180163 227.339054 
L 248.416969 209.335965 
L 248.890582 262.336142 
L 249.127388 254.8597 
L 249.364194 281.451524 
L 249.601 287.391397 
L 249.837807 309.00657 
L 250.074613 311.919172 
L 250.311419 319.395614 
L 250.548225 305.887564 
L 250.785031 284.27239 
L 251.258644 307.401199 
L 251.732256 268.941097 
L 252.205869 219.839678 
L 252.442675 237.842767 
L 252.679481 226.972112 
L 252.916287 209.634106 
L 253.153093 228.898558 
L 253.3899 220.17222 
L 253.863512 180.026478 
L 254.100318 187.984531 
L 254.573931 228.130273 
L 255.047543 180.634225 
L 255.521156 211.216543 
L 255.757962 193.213454 
L 255.994768 192.319033 
L 256.231574 195.724713 
L 256.46838 216.663337 
L 256.705187 198.247438 
L 256.941993 278.619191 
L 257.178799 262.94389 
L 257.415605 237.544627 
L 257.652411 243.817041 
L 257.889218 270.867542 
L 258.599636 233.852274 
L 259.073249 203.006217 
L 259.546861 243.014355 
L 259.783667 266.464239 
L 260.020473 241.638323 
L 260.25728 255.146373 
L 260.494086 237.143284 
L 260.730892 263.09296 
L 260.967698 256.820546 
L 261.204505 262.095336 
L 261.441311 283.71051 
L 261.678117 256.660009 
L 261.914923 268.470953 
L 262.388536 253.311664 
L 262.625342 262.038002 
L 262.862148 264.870335 
L 263.33576 215.470776 
L 263.572567 221.410649 
L 264.046179 213.303525 
L 264.282985 216.135858 
L 264.519791 208.659416 
L 264.756598 195.151366 
L 264.993404 172.481234 
L 265.23021 184.372446 
L 265.467016 174.155407 
L 265.703822 155.739508 
L 265.940629 166.667498 
L 266.177435 159.191055 
L 266.887854 228.233475 
L 267.12466 213.441128 
L 267.361466 222.660545 
L 267.598272 237.452892 
L 267.835078 218.360444 
L 268.545497 283.572907 
L 269.019109 236.122727 
L 269.255916 219.64474 
L 269.492722 216.732139 
L 269.729528 241.558055 
L 269.966334 253.277263 
L 270.439947 294.48943 
L 270.676753 300.429302 
L 270.913559 285.636955 
L 271.150365 261.579324 
L 271.387171 275.087375 
L 271.623978 257.749368 
L 271.860784 278.974666 
L 272.09759 288.182615 
L 272.334396 271.704629 
L 272.571203 294.37476 
L 272.808009 301.851203 
L 273.044815 323.90212 
L 273.281621 318.627329 
L 273.755234 270.557935 
L 274.228846 312.320515 
L 274.465652 315.22165 
L 274.702458 303.410706 
L 274.939265 321.826604 
L 275.176071 310.898615 
L 275.412877 313.730948 
L 275.649683 310.898615 
L 275.886489 286.072699 
L 276.123296 279.800285 
L 276.360102 257.749368 
L 276.596908 254.848233 
L 276.833714 279.674149 
L 277.07052 270.947811 
L 277.307327 268.448019 
L 277.780939 280.15576 
L 278.017745 262.817753 
L 278.491358 294.088087 
L 278.728164 270.030456 
L 278.96497 281.8414 
L 279.201776 270.970745 
L 279.438583 279.697083 
L 279.675389 208.189272 
L 279.912195 227.43079 
L 280.149001 236.157128 
L 280.385807 258.82726 
L 280.622614 270.638204 
L 280.85942 267.725602 
L 281.096226 267.553598 
L 281.333032 291.611229 
L 281.569838 273.60814 
L 281.806645 291.611229 
L 282.280257 306.16277 
L 282.517063 283.492638 
L 282.753869 295.303582 
L 282.990676 269.90432 
L 283.227482 277.254625 
L 283.701094 318.569995 
L 283.937901 306.759051 
L 284.174707 318.569995 
L 284.648319 293.342736 
L 284.885125 275.649254 
L 285.121932 287.368463 
L 285.358738 278.149046 
L 285.595544 299.087671 
L 286.069156 315.290451 
L 286.305963 312.377849 
L 286.542769 330.793748 
L 287.016381 316.127537 
L 287.253187 297.03509 
L 287.489994 305.761428 
L 287.7268 308.674029 
L 287.963606 319.544684 
L 288.200412 313.27227 
L 288.437218 322.491687 
L 289.147637 256.488005 
L 289.62125 282.208342 
L 290.094862 233.233059 
L 290.331668 251.236148 
L 290.568474 240.308159 
L 290.805281 252.027367 
L 291.278893 215.608379 
L 291.515699 230.400726 
L 291.752505 225.125936 
L 291.989312 243.541834 
L 292.226118 237.269421 
L 292.69973 282.105139 
L 292.936536 279.272806 
L 293.173343 282.105139 
L 293.410149 296.50761 
L 293.646955 302.780024 
L 293.883761 305.692626 
L 294.357374 263.138828 
L 294.59418 260.306494 
L 294.830986 281.245119 
L 295.067792 274.972705 
L 295.541405 230.882337 
L 295.778211 227.981203 
L 296.015017 206.205492 
L 296.251823 207.40952 
L 296.48863 210.436791 
L 296.962242 185.117797 
L 297.672661 250.525198 
L 297.909467 253.357531 
L 298.146273 234.093079 
L 298.856692 278.263716 
L 299.093498 281.176317 
L 299.330304 302.791491 
L 299.56711 308.066282 
L 299.803916 285.923629 
L 300.277529 328.913171 
L 300.514335 302.963495 
L 300.751141 313.83415 
L 300.987947 304.614734 
L 301.224754 301.713599 
L 301.46156 276.314337 
L 301.935172 314.934976 
L 302.171979 340.334239 
L 302.645591 297.596969 
L 302.882397 324.647471 
L 303.35601 298.984469 
L 303.592816 310.795412 
L 303.829622 305.520622 
L 304.066428 320.312969 
L 304.776847 264.480459 
L 305.013653 269.755249 
L 305.250459 254.962902 
L 306.197684 306.908121 
L 306.43449 299.431679 
L 306.671296 280.339231 
L 307.144909 304.717936 
L 307.381715 301.805335 
L 307.618521 309.281777 
L 307.855328 326.619784 
L 308.092134 311.827437 
L 308.32894 289.684784 
L 308.565746 292.585918 
L 309.276165 249.309703 
L 309.512971 224.483787 
L 309.749777 233.003721 
L 309.986583 257.829636 
L 310.460196 236.845144 
L 310.697002 234.012811 
L 310.933808 223.084821 
L 311.407421 267.576532 
L 311.644227 245.961358 
L 311.881033 248.793691 
L 312.117839 232.315704 
L 312.354645 229.41457 
L 312.828258 244.413322 
L 313.30187 283.033961 
L 313.538677 293.904616 
L 313.775483 266.854115 
L 314.012289 258.127777 
L 314.249095 282.185408 
L 314.722708 234.735228 
L 315.19632 240.548964 
L 315.433126 217.099081 
L 315.669932 240.548964 
L 315.906739 237.64783 
L 316.380351 264.423124 
L 316.617157 243.4845 
L 316.853963 261.177982 
L 317.327576 223.921908 
L 317.564382 222.385338 
L 317.801188 233.313328 
L 318.037994 255.455981 
L 318.274801 233.840807 
L 318.511607 227.900934 
L 318.748413 252.72685 
L 318.985219 234.310951 
L 319.222026 241.787393 
L 319.458832 230.068185 
L 319.695638 239.620142 
L 319.932444 223.142156 
L 320.16925 241.145245 
L 320.642863 203.464894 
L 320.879669 200.552293 
L 321.116475 203.453427 
L 321.353281 210.929869 
L 321.590088 232.980787 
L 321.826894 230.148454 
L 322.0637 203.55663 
L 322.300506 192.685975 
L 322.537312 209.163961 
L 322.774119 212.076563 
L 323.010925 195.598576 
L 323.484537 238.668387 
L 323.721343 217.053213 
L 323.95815 243.002889 
L 324.194956 253.873544 
L 324.431762 279.272806 
L 324.668568 253.323131 
L 324.905375 292.276311 
L 325.142181 283.813713 
L 325.378987 295.532921 
L 325.615793 292.631786 
L 325.852599 279.054934 
L 326.089406 279.054934 
L 326.326212 303.112565 
L 326.563018 211.640819 
L 326.799824 220.860236 
L 327.03663 247.45206 
L 327.273437 241.179646 
L 327.510243 256.201331 
L 327.983855 244.631193 
L 328.220661 261.9692 
L 328.457468 247.566729 
L 328.694274 240.250824 
L 328.93108 261.189449 
L 329.167886 239.046796 
L 329.404692 241.661257 
L 329.641499 268.711758 
L 329.878305 251.373752 
L 330.115111 264.881802 
L 330.351917 259.607011 
L 330.82553 225.871287 
L 331.062336 235.446178 
L 331.299142 257.588831 
L 331.535948 269.308039 
L 331.772755 287.001521 
L 332.009561 289.833854 
L 332.246367 306.31184 
L 332.483173 301.03705 
L 332.719979 318.375057 
L 332.956786 294.317426 
L 333.430398 277.621567 
L 333.667204 259.928086 
L 333.90401 257.095752 
L 334.140817 238.003305 
L 334.377623 243.943177 
L 334.614429 261.636659 
L 335.088041 239.046796 
L 335.324848 220.630897 
L 335.561654 244.688528 
L 335.79846 247.130985 
L 336.035266 223.073354 
L 336.508879 273.493471 
L 336.745685 252.554846 
L 336.982491 262.026535 
L 337.219297 285.476418 
L 337.456104 282.644085 
L 337.69291 276.371671 
L 337.929716 251.545756 
L 338.166522 300.933848 
L 338.403328 303.834982 
L 338.640135 322.92743 
L 338.876941 309.41938 
L 339.113747 315.691794 
L 339.350553 341.091056 
L 339.587359 333.614614 
L 339.824166 311.471962 
L 340.060972 318.948404 
L 340.297778 296.897486 
L 340.534584 321.723402 
L 340.77139 298.273519 
L 341.008197 292.001105 
L 341.245003 297.275895 
L 341.481809 289.799453 
L 341.718615 289.799453 
L 341.955422 264.973537 
L 342.192228 285.912162 
L 342.429034 282.99956 
L 342.66584 289.271974 
L 342.902646 314.09789 
L 343.139453 288.148214 
L 343.376259 296.805751 
L 343.613065 285.877761 
L 344.086677 310.313801 
L 344.323484 313.226403 
L 344.56029 293.961951 
L 344.797096 316.632083 
L 345.033902 313.719481 
L 345.270708 302.791491 
L 345.507515 328.741167 
L 345.981127 314.740038 
L 346.217933 329.532385 
L 346.691546 284.788402 
L 346.928352 304.052854 
L 347.165158 301.151719 
L 347.401964 323.202637 
L 347.875577 275.695122 
L 348.112383 275.695122 
L 348.585995 251.190281 
L 348.822802 258.666723 
L 349.296414 217.053213 
L 349.53322 222.993086 
L 349.770026 212.122431 
L 350.006833 229.56364 
L 350.480445 280.671772 
L 350.717251 289.39811 
L 350.954057 292.230443 
L 351.190864 286.955653 
L 351.42767 307.894278 
L 351.664476 291.416291 
L 351.901282 288.583958 
L 352.138088 277.713303 
L 352.611701 325.163483 
L 352.848507 341.641469 
L 353.085313 330.71348 
L 353.322119 305.314217 
L 353.558926 316.242207 
L 353.795732 338.38486 
L 354.032538 332.444987 
L 354.506151 292.964327 
L 354.742957 310.141797 
L 354.979763 286.003897 
L 355.216569 296.874552 
L 355.453375 302.149343 
L 355.690182 287.746872 
L 355.926988 305.084878 
L 356.163794 288.606892 
L 356.637406 312.137044 
L 356.874213 334.279697 
L 357.347825 297.860709 
L 357.821437 350.860886 
L 358.058244 360.080302 
L 358.29505 378.496201 
L 358.531856 375.583599 
L 358.768662 348.991775 
L 359.005468 365.469762 
L 359.242275 368.382363 
L 360.426306 277.139956 
L 360.899918 231.031408 
L 361.136724 275.03004 
L 361.847143 330.667612 
L 362.557562 268.700291 
L 362.794368 257.772302 
L 363.031174 235.10217 
L 363.26798 246.981915 
L 363.504786 271.039546 
L 363.978399 225.573146 
L 364.215205 252.16497 
L 364.452011 234.471488 
L 364.688817 259.870751 
L 365.16243 270.523534 
L 365.399236 261.797196 
L 365.636042 235.205372 
L 365.872849 261.155048 
L 366.346461 223.738437 
L 366.583267 240.216423 
L 366.820073 242.0626 
L 367.05688 260.478499 
L 367.293686 263.310832 
L 367.530492 280.648838 
L 367.767298 254.699163 
L 368.004104 259.710214 
L 368.240911 252.233772 
L 368.477717 269.927254 
L 368.714523 245.869622 
L 368.951329 259.377673 
L 369.188135 265.650087 
L 369.424942 240.824171 
L 369.661748 267.415995 
L 369.898554 270.317129 
L 370.13536 289.409577 
L 370.372166 330.415339 
L 370.608973 330.415339 
L 370.845779 319.670821 
L 371.082585 343.120704 
L 372.02981 275.247912 
L 372.266616 300.073827 
L 372.503422 306.346241 
L 372.740229 215.573978 
L 373.213841 236.604338 
L 373.450647 260.661969 
L 373.687453 260.661969 
L 373.92426 287.253793 
L 374.161066 276.325804 
L 374.397872 279.238405 
L 374.871484 321.952741 
L 375.108291 316.012868 
L 375.345097 313.100266 
L 375.581903 290.957614 
L 375.818709 288.12528 
L 376.055515 310.795412 
L 376.292322 294.317426 
L 376.529128 267.725602 
L 377.00274 247.738733 
L 377.239547 275.89006 
L 377.476353 248.839559 
L 377.949965 224.781928 
L 378.423578 210.023981 
L 378.660384 219.243398 
L 379.133996 259.27447 
L 379.370802 272.782521 
L 379.607609 266.510107 
L 379.844415 272.449979 
L 380.081221 201.974193 
L 380.318027 226.031824 
L 380.554833 231.169011 
L 381.028446 279.158137 
L 381.265252 293.560608 
L 381.502058 296.392941 
L 381.738864 293.560608 
L 381.975671 304.431263 
L 382.212477 296.484677 
L 382.449283 296.484677 
L 382.686089 308.203885 
L 382.922896 299.477547 
L 383.159702 302.390148 
L 383.396508 317.182496 
L 383.633314 314.269894 
L 384.106927 271.532625 
L 384.343733 282.40328 
L 384.580539 301.495728 
L 384.817345 298.594593 
L 385.054151 287.666603 
L 385.527764 327.674742 
L 386.948601 208.670883 
L 387.185407 235.985124 
L 387.422213 238.897726 
L 387.65902 244.677061 
L 387.895826 247.509394 
L 388.132632 222.683478 
L 388.369438 217.993502 
L 388.606245 203.797435 
L 389.316663 267.117854 
L 389.553469 247.853402 
L 390.027082 281.27952 
L 390.263888 284.180655 
L 390.500694 258.781392 
L 390.974307 284.111853 
L 391.211113 257.520029 
L 391.447919 264.996471 
L 391.684725 290.395734 
L 391.921531 284.12332 
L 392.158338 281.210718 
L 392.63195 232.934919 
L 393.105562 274.387892 
L 393.342369 271.486757 
L 393.815981 317.595305 
L 394.052787 308.375889 
L 394.5264 274.559896 
L 394.763206 296.702548 
L 395.000012 284.98334 
L 395.236818 235.767252 
L 395.473625 246.718176 
L 395.710431 237.498759 
L 395.947237 253.368998 
L 396.184043 259.641412 
L 396.420849 250.915074 
L 396.657656 234.437088 
L 396.894462 246.248031 
L 397.131268 265.340479 
L 397.368074 270.61527 
L 397.60488 281.543259 
L 398.078493 244.75733 
L 398.315299 258.26538 
L 398.552105 244.75733 
L 399.025718 193.981738 
L 399.262524 196.492997 
L 399.49933 205.219335 
L 399.736136 196.492997 
L 399.972942 195.288969 
L 400.209749 210.081316 
L 400.446555 207.180181 
L 400.683361 225.59608 
L 400.920167 220.929037 
L 401.156974 278.011443 
L 401.39378 291.829101 
L 401.630586 266.429838 
L 401.867392 220.401558 
L 402.104198 246.351234 
L 402.341005 229.873247 
L 402.577811 233.5656 
L 402.814617 252.830052 
L 403.051423 257.520029 
L 403.288229 230.469528 
L 403.525036 227.327587 
L 403.998648 268.711758 
L 404.235454 279.582413 
L 404.47226 266.074363 
L 404.945873 216.032656 
L 405.419485 259.27447 
L 405.656291 256.361869 
L 406.129904 288.102347 
L 406.36671 278.88293 
L 406.603516 264.090583 
L 406.840323 291.141085 
L 407.313935 241.420451 
L 407.550741 268.470953 
L 408.024354 228.43988 
L 408.26116 214.037409 
L 408.497966 240.629233 
L 408.734772 237.728098 
L 408.971578 268.356283 
L 409.208385 264.858868 
L 409.681997 301.816802 
L 409.918803 197.135146 
L 410.155609 240.468696 
L 410.392416 259.733148 
L 410.629222 267.20959 
L 411.102834 239.860948 
L 411.33964 241.615389 
L 411.576447 223.6123 
L 411.813253 226.524902 
L 412.286865 266.361037 
L 412.523672 260.088623 
L 412.760478 262.920956 
L 412.997284 273.791611 
L 413.470896 220.149286 
L 413.707703 205.746814 
L 413.944509 205.746814 
L 414.181315 227.533992 
L 414.418121 236.352066 
L 414.654927 257.29069 
L 414.891734 231.341015 
L 415.12854 219.530071 
L 415.365346 244.929334 
L 415.602152 256.740277 
L 415.838958 274.605763 
L 416.075765 304.488598 
L 416.312571 295.269181 
L 416.549377 318.547061 
L 416.786183 306.827853 
L 417.022989 177.733091 
L 417.259796 199.657872 
L 417.496602 186.149821 
L 417.733408 207.764995 
L 417.970214 207.145781 
L 418.207021 185.530607 
L 418.443827 194.750023 
L 418.917439 229.873247 
L 419.154245 237.349689 
L 419.391052 219.656207 
L 419.627858 231.467151 
L 419.864664 228.566016 
L 420.10147 210.562927 
L 420.338276 210.562927 
L 421.048695 270.190993 
L 421.285501 273.023326 
L 421.522307 287.425797 
L 421.759114 284.593464 
L 421.99592 309.41938 
L 422.469532 276.818882 
L 422.706338 285.54522 
L 422.943145 260.719304 
L 423.416757 302.780024 
L 423.653563 328.179287 
L 424.127176 280.614438 
L 424.363982 306.564113 
L 424.837594 266.819714 
L 425.074401 280.327764 
L 425.548013 265.661553 
L 425.784819 244.550925 
L 426.258432 281.336855 
L 426.96885 223.933374 
L 427.442463 273.126529 
L 427.679269 254.71063 
L 427.916075 273.126529 
L 428.389687 229.724177 
L 428.626494 255.12344 
L 429.336912 207.294851 
L 429.573719 213.819537 
L 429.810525 235.870455 
L 430.047331 221.467983 
L 430.520943 229.575107 
L 430.75775 205.517476 
L 430.994556 212.64991 
L 431.231362 257.542963 
L 431.704974 286.600178 
L 431.941781 259.549677 
L 432.178587 277.243159 
L 432.415393 190.117381 
L 432.652199 174.510882 
L 432.889005 179.843007 
L 433.125812 201.98566 
L 433.362618 213.704868 
L 433.83623 244.9064 
L 434.073036 249.848649 
L 434.309843 263.356699 
L 434.783455 267.92054 
L 435.020261 265.088207 
L 435.257068 267.92054 
L 435.493874 288.859164 
L 435.967486 254.137283 
L 436.204292 259.136867 
L 436.441099 256.304534 
L 436.677905 259.343272 
L 437.151517 246.936047 
L 437.388323 258.104843 
L 437.62513 282.930759 
L 437.861936 258.873128 
L 438.098742 279.525079 
L 438.335548 282.884891 
L 438.572354 200.30002 
L 439.282773 292.677654 
L 439.756385 243.794107 
L 439.993192 267.851738 
L 440.229998 261.911865 
L 440.466804 264.824467 
L 440.70361 269.663514 
L 440.940417 256.155464 
L 441.177223 270.557935 
L 441.414029 252.142036 
L 441.650835 249.240902 
L 441.887641 249.412906 
L 442.124448 271.555558 
L 442.361254 260.627569 
L 442.59806 234.035745 
L 442.834866 244.9064 
L 443.071672 270.856075 
L 443.308479 248.805158 
L 443.545285 262.313208 
L 443.782091 250.594 
L 444.018897 256.533873 
L 444.255703 233.863741 
L 444.49251 236.764875 
L 444.966122 275.293779 
L 445.439734 316.070203 
L 445.676541 302.562153 
L 445.913347 296.62228 
L 446.150153 304.098722 
L 446.386959 318.891069 
L 446.860572 295.360917 
L 447.334184 266.017028 
L 447.57099 275.236445 
L 447.807797 192.491037 
L 448.044603 198.763451 
L 448.281409 207.982867 
L 448.991828 277.862373 
L 449.46544 249.951852 
L 449.702246 263.459902 
L 449.939052 288.859164 
L 450.175859 272.381178 
L 450.412665 269.480043 
L 450.649471 255.971993 
L 450.886277 258.804326 
L 451.123083 266.280768 
L 451.35989 258.804326 
L 451.596696 261.716928 
L 451.833502 240.778303 
L 452.070308 255.57065 
L 452.307114 228.520149 
L 452.543921 241.099377 
L 452.780727 222.683478 
L 453.017533 249.73398 
L 453.964758 214.129144 
L 454.201564 214.129144 
L 454.43837 231.822626 
L 454.911983 188.420275 
L 455.148789 195.277502 
L 455.385595 198.178637 
L 455.622401 203.785968 
L 456.096014 222.1904 
L 456.33282 219.690608 
L 456.569626 219.690608 
L 456.806432 210.96427 
L 457.280045 251.144413 
L 457.753657 232.739981 
L 458.22727 277.231692 
L 458.464076 258.139244 
L 458.700882 270.156592 
L 459.174495 304.316594 
L 459.884913 254.951436 
L 460.121719 268.459486 
L 460.358526 263.184695 
L 460.595332 261.418787 
L 460.832138 266.693578 
L 461.30575 311.059152 
L 462.016169 369.895999 
L 462.489781 322.36555 
L 462.726588 317.09076 
L 462.963394 325.817098 
L 463.2002 186.826371 
L 463.437006 189.727505 
L 463.673812 168.112331 
L 464.147425 217.51189 
L 464.384231 232.304238 
L 465.09465 162.745806 
L 465.331456 308.26122 
L 465.568262 307.607604 
L 465.805068 309.751921 
L 466.041875 331.894574 
L 466.278681 337.834447 
L 466.752293 290.269597 
L 467.225906 264.354323 
L 467.462712 260.409697 
L 467.699518 236.352066 
L 467.936324 251.144413 
L 468.409937 294.294492 
L 468.646743 283.366502 
L 469.120355 318.397991 
L 469.357161 304.88994 
L 469.830774 264.686864 
L 470.06758 273.90628 
L 470.541193 319.120408 
L 470.777999 296.977755 
L 471.014805 323.569579 
L 471.251611 304.477131 
L 471.488417 297.000689 
L 472.198836 332.387652 
L 472.435642 343.315642 
L 472.672448 338.040852 
L 473.382867 296.243871 
L 473.619673 269.19337 
L 473.856479 296.243871 
L 474.330092 267.679734 
L 474.566898 281.187784 
L 474.803704 278.275183 
L 475.04051 294.248624 
L 475.277317 274.984172 
L 475.514123 269.285105 
L 475.987735 300.188497 
L 476.224542 297.356164 
L 476.461348 304.832606 
L 476.698154 298.560192 
L 476.93496 315.898199 
L 477.645379 284.031584 
L 477.882185 290.303998 
L 478.82941 213.693401 
L 479.066216 232.957853 
L 479.303022 221.146909 
L 479.539828 196.320993 
L 479.776635 208.131937 
L 480.013441 200.655495 
L 480.487053 246.993382 
L 480.723859 221.043707 
L 481.197472 244.378921 
L 481.434278 256.098129 
L 481.671084 232.648246 
L 481.907891 223.233891 
L 482.144697 197.834629 
L 482.381503 191.252608 
L 482.618309 193.763867 
L 482.855115 194.383081 
L 483.091922 172.767907 
L 483.328728 194.383081 
L 483.565534 176.379992 
L 483.80234 195.644444 
L 484.039146 177.228545 
L 484.275953 171.953755 
L 484.512759 189.956844 
L 484.749565 168.34167 
L 484.986371 185.679677 
L 485.223177 182.767075 
L 485.459984 191.493413 
L 485.69679 182.273997 
L 486.407208 231.295147 
L 486.644015 307.309464 
L 486.880821 310.210599 
L 487.117627 321.081254 
L 487.59124 289.570114 
L 487.828046 270.477666 
L 488.301658 319.326813 
L 488.538464 292.276311 
L 489.012077 327.846746 
L 489.248883 320.370304 
L 489.485689 326.310176 
L 489.722495 323.397575 
L 489.959302 308.995103 
L 490.196108 317.721442 
L 490.906526 252.864453 
L 491.143333 249.722513 
L 491.380139 252.635114 
L 491.616945 249.722513 
L 492.090557 294.776103 
L 492.56417 260.914242 
L 492.800976 252.394309 
L 493.274588 280.98138 
L 493.511395 262.565481 
L 493.748201 197.891963 
L 493.985007 202.077395 
L 494.221813 226.135026 
L 494.45862 223.176557 
L 494.695426 227.533992 
L 494.932232 223.348561 
L 495.405844 261.774262 
L 496.116263 289.937056 
L 496.353069 280.71764 
L 496.589875 277.805038 
L 496.826682 255.238109 
L 497.063488 274.330557 
L 497.300294 252.187904 
L 497.5371 278.137579 
L 497.773906 285.614022 
L 498.010713 307.756674 
L 498.247519 296.828685 
L 498.484325 299.741286 
L 498.721131 243.920243 
L 498.957937 225.917154 
L 499.194744 249.367038 
L 499.905162 186.402094 
L 500.141969 183.374823 
L 500.378775 196.882873 
L 500.615581 192.640107 
L 500.852387 214.255281 
L 501.089193 222.981619 
L 501.326 220.069017 
L 501.799612 256.361869 
L 502.036418 242.853818 
L 502.273224 256.361869 
L 502.510031 239.883882 
L 502.746837 212.833381 
L 502.983643 238.232643 
L 503.220449 220.000215 
L 503.694062 277.552766 
L 503.930868 253.495135 
L 504.167674 260.971577 
L 504.40448 235.572314 
L 504.641286 224.644324 
L 505.114899 245.674685 
L 505.351705 231.857027 
L 505.588511 246.649374 
L 506.062124 218.452179 
L 506.29893 221.238645 
L 506.535736 238.576651 
L 506.772542 231.100209 
L 507.009349 232.85465 
L 507.246155 221.043707 
L 507.719767 239.448138 
L 507.956573 220.355691 
L 508.19338 226.295563 
L 508.430186 208.292474 
L 508.903798 190.34672 
L 509.140604 209.439168 
L 509.377411 218.658584 
L 509.614217 199.566136 
L 509.851023 221.617053 
L 510.087829 212.397637 
L 510.324635 274.410825 
L 510.561442 263.482836 
L 511.035054 267.565065 
L 511.508667 296.851619 
L 512.219085 336.974427 
L 512.692698 293.331269 
L 512.929504 288.056479 
L 513.16631 277.185824 
L 513.403116 283.125697 
L 513.876729 256.522406 
L 514.113535 261.533457 
L 514.350341 243.530368 
L 514.587147 243.530368 
L 514.823953 261.533457 
L 515.06076 264.36579 
L 515.297566 269.170436 
L 515.534372 280.041091 
L 515.771178 273.768677 
L 516.244791 242.257538 
L 516.481597 257.049885 
L 516.718403 259.962486 
L 516.955209 280.901111 
L 517.192016 258.230979 
L 517.665628 294.409161 
L 518.376047 239.998551 
L 518.849659 276.956485 
L 519.086465 251.557223 
L 519.323271 248.724889 
L 519.560078 260.535833 
L 519.796884 285.935096 
L 520.03369 259.618478 
L 520.270496 260.788106 
L 520.507302 214.037409 
L 520.744109 222.614677 
L 520.980915 255.077572 
L 521.217721 245.388011 
L 521.454527 242.601546 
L 521.691333 264.652463 
L 521.92814 240.594832 
L 522.164946 233.11839 
L 522.401752 211.067473 
L 522.638558 235.125104 
L 522.875365 231.54742 
L 523.112171 252.486044 
L 523.348977 233.393596 
L 523.585783 259.343272 
L 524.059396 265.07674 
L 524.296202 259.136867 
L 524.533008 283.962783 
L 525.00662 298.628994 
L 525.243427 238.748655 
L 525.480233 247.474993 
L 525.717039 236.547004 
L 526.190651 285.28148 
L 526.427458 276.062064 
L 526.664264 252.612181 
L 526.90107 264.331389 
L 527.137876 287.781272 
L 527.374682 266.842648 
L 527.611489 292.792323 
L 527.848295 190.048579 
L 528.085101 185.060462 
L 528.321907 161.610579 
L 528.79552 206.675636 
L 529.032326 187.411184 
L 529.269132 189.612836 
L 529.505938 208.028735 
L 529.742745 190.335253 
L 530.216357 221.135442 
L 530.453163 194.543618 
L 530.689969 191.711285 
L 530.926776 206.503632 
L 531.400388 168.410472 
L 531.637194 162.814607 
L 531.874 167.412848 
L 532.110807 186.505296 
L 532.347613 181.230506 
L 532.584419 186.092487 
L 533.058031 209.622639 
L 533.294838 232.292771 
L 533.531644 208.842887 
L 533.76845 219.770877 
L 534.005256 208.842887 
L 534.242063 214.117677 
L 534.478869 239.51694 
L 534.715675 230.297524 
L 534.952481 247.991006 
L 535.189287 250.823339 
L 535.6629 232.418907 
L 535.899706 244.229851 
L 536.136512 240.617766 
L 536.373318 229.689776 
L 536.846931 235.503513 
L 537.320543 282.953692 
L 537.557349 280.121359 
L 537.794156 266.062896 
L 538.030962 289.51278 
L 538.267768 264.113517 
L 538.74138 315.462455 
L 538.978187 321.402328 
L 539.214993 334.910378 
L 539.451799 337.82298 
L 539.688605 359.438154 
L 539.925412 345.930103 
L 540.162218 321.104188 
L 540.399024 315.164315 
L 540.872636 278.378385 
L 541.346249 318.432392 
L 541.819861 312.687457 
L 542.056667 300.876513 
L 542.293474 204.107043 
L 542.767086 274.422292 
L 543.003892 279.697083 
L 543.714311 219.793811 
L 543.951117 246.385635 
L 544.187923 259.893685 
L 544.424729 233.301861 
L 544.661536 259.893685 
L 544.898342 240.629233 
L 545.135148 240.870038 
L 545.371954 250.089455 
L 545.60876 231.673556 
L 545.845567 239.149998 
L 546.082373 253.942345 
L 546.555985 231.214879 
L 547.029598 189.154158 
L 547.266404 195.426572 
L 547.50321 204.645989 
L 547.740016 207.478322 
L 547.976823 225.89422 
L 548.213629 203.843303 
L 548.450435 209.783176 
L 548.924047 240.686567 
L 549.160854 218.016436 
L 549.39766 215.115301 
L 549.871272 266.991718 
L 550.108078 242.165802 
L 550.344885 236.22593 
L 550.581691 253.919411 
L 550.818497 245.193073 
L 551.055303 253.919411 
L 551.292109 232.980787 
L 551.528916 253.919411 
L 551.765722 236.581405 
L 552.002528 255.845856 
L 552.239334 249.573443 
L 552.476141 222.981619 
L 552.712947 246.431502 
L 552.949753 228.738021 
L 553.186559 235.010434 
L 553.660172 190.64486 
L 553.896978 204.15291 
L 554.133784 230.102586 
L 554.37059 206.652702 
L 554.844203 238.748655 
L 555.317815 198.545579 
L 555.554621 251.855363 
L 555.791427 240.044419 
L 556.501846 303.502441 
L 557.212265 250.639868 
L 557.449071 262.359076 
L 557.922683 217.546291 
L 558.15949 211.732555 
L 558.396296 237.131817 
L 558.633102 215.516644 
L 558.869908 237.131817 
L 559.106714 211.732555 
L 559.343521 222.60321 
L 559.580327 204.187311 
L 559.817133 215.998255 
L 560.053939 240.055886 
L 560.290745 228.359612 
L 560.527552 231.272213 
L 560.764358 225.997423 
L 561.001164 240.78977 
L 561.23797 224.311783 
L 561.711583 263.54017 
L 562.185195 229.873247 
L 562.658807 265.214343 
L 562.895614 262.301741 
L 563.13242 262.301741 
L 563.369226 253.575403 
L 563.842839 276.257002 
L 564.079645 270.317129 
L 564.316451 277.793571 
L 564.553257 265.982628 
L 564.790063 287.597801 
L 565.02687 275.878593 
L 565.263676 285.098009 
L 565.500482 270.695538 
L 565.737288 270.294195 
L 565.974094 283.802246 
L 566.210901 266.108764 
L 566.447707 261.52199 
L 566.684513 267.198123 
L 566.921319 289.24904 
L 567.394932 264.021782 
L 567.631738 241.879129 
L 567.868544 264.916203 
L 568.342156 230.389259 
L 568.578963 243.897309 
L 568.815769 219.071394 
L 569.052575 209.851977 
L 569.289381 212.810447 
L 569.526188 239.860948 
L 569.762994 242.77355 
L 569.9998 216.181726 
L 570.236606 233.519733 
L 570.473412 210.849601 
L 570.710219 237.441425 
L 570.947025 229.964983 
L 571.420637 247.991006 
L 571.657443 272.816921 
L 571.89425 259.308871 
L 572.131056 205.655079 
L 572.367862 192.835045 
L 572.604668 210.838134 
L 572.841474 192.422235 
L 573.078281 201.125639 
L 573.315087 225.619014 
L 573.551893 228.531616 
L 573.788699 221.055174 
L 574.262312 229.254033 
L 574.499118 214.060343 
L 574.735924 190.002712 
L 575.446343 266.017028 
L 575.683149 263.184695 
L 575.919955 269.457109 
L 576.156761 283.85958 
L 576.630374 241.030576 
L 576.86718 263.700707 
L 577.103986 247.222721 
L 577.340792 266.315169 
L 577.577599 263.402567 
L 577.814405 240.732435 
L 578.051211 234.460021 
L 578.288017 215.367573 
L 578.76163 253.391932 
L 579.235242 233.244526 
L 579.472048 233.244526 
L 579.708854 226.800108 
L 579.945661 229.701243 
L 580.182467 207.650326 
L 580.419273 226.742774 
L 580.656079 202.685143 
L 580.892886 224.73606 
L 581.129692 205.643612 
L 581.366498 228.313744 
L 581.603304 204.86386 
L 581.84011 215.79185 
L 582.076917 232.269837 
L 582.313723 214.576355 
L 582.550529 223.795771 
L 582.787335 241.79886 
L 583.024141 227.396389 
L 583.260948 233.542667 
L 583.497754 250.880673 
L 583.73456 234.402687 
L 583.971366 257.85257 
L 584.208172 236.237396 
L 584.444979 258.380049 
L 585.392203 180.060878 
L 585.62901 186.333292 
L 585.865816 189.245894 
L 586.102622 186.413561 
L 586.339428 180.141147 
L 586.576235 186.413561 
L 586.813041 201.205908 
L 587.049847 265.271678 
L 587.286653 241.214047 
L 587.523459 246.832845 
L 587.760266 244.000512 
L 587.997072 235.778719 
L 588.233878 254.378089 
L 588.470684 263.895645 
L 588.70749 256.419203 
L 588.944297 267.347193 
L 589.181103 250.869206 
L 589.417909 269.961654 
L 590.365134 186.012218 
L 590.60194 213.062719 
L 590.838746 223.807238 
L 591.075552 227.006513 
L 591.312359 246.098961 
L 591.549165 226.834509 
L 591.785971 238.553717 
L 592.022777 235.652583 
L 592.259583 223.841639 
L 592.733196 255.765588 
L 592.970002 237.349689 
L 593.206808 244.826131 
L 593.443615 227.488125 
L 594.154033 227.488125 
L 594.627646 261.992134 
L 594.864452 268.264548 
L 595.101258 241.672724 
L 595.338064 253.391932 
L 595.811677 288.733028 
L 596.048483 299.661018 
L 596.995708 230.57273 
L 597.232514 230.57273 
L 597.46932 253.242862 
L 597.706126 256.075195 
L 598.416545 290.063193 
L 599.126964 256.017861 
L 599.36377 237.601962 
L 599.600576 252.004433 
L 599.837382 237.601962 
L 600.310995 243.977578 
L 600.547801 238.037705 
L 600.784607 256.040794 
L 601.021413 261.980667 
L 601.495026 211.755489 
L 601.731832 203.029151 
L 601.968638 220.367157 
L 602.205444 223.199491 
L 602.44225 241.615389 
L 602.679057 218.945257 
L 602.915863 207.134314 
L 603.152669 207.134314 
L 603.389475 247.532328 
L 603.626281 253.472201 
L 603.863088 272.564649 
L 604.099894 250.949475 
L 604.3367 259.675813 
L 604.573506 238.737188 
L 605.520731 326.837655 
L 606.23115 269.858452 
L 606.467956 267.026119 
L 606.704762 252.623648 
L 606.941568 273.562272 
L 607.178375 255.146373 
L 607.415181 266.865582 
L 607.651987 260.593168 
L 608.125599 210.55146 
L 608.599212 256.201331 
L 608.836018 238.198242 
L 609.072824 249.126232 
L 609.546437 215.321706 
L 609.783243 270.454733 
L 610.020049 261.235316 
L 610.256855 268.711758 
L 610.493662 285.189745 
L 610.730468 261.739861 
L 610.967274 207.11138 
L 611.20408 245.479747 
L 611.914499 295.08571 
L 612.151305 269.136035 
L 612.388111 282.644085 
L 612.624917 196.229258 
L 612.861724 191.894756 
L 613.09853 260.788106 
L 613.335336 296.62228 
L 613.572142 283.733444 
L 613.808948 286.244703 
L 614.045755 305.509155 
L 614.519367 253.518069 
L 614.992979 278.84853 
L 615.229786 275.798325 
L 615.466592 267.071987 
L 615.703398 249.848649 
L 615.940204 257.669099 
L 616.177011 238.404647 
L 616.413817 235.457645 
L 616.650623 217.764163 
L 616.887429 238.702788 
L 617.124235 227.774798 
L 617.361042 249.917451 
L 617.597848 225.091535 
L 617.834654 228.004137 
L 618.07146 238.874792 
L 618.308266 262.324675 
L 618.781879 283.355035 
L 619.018685 309.304711 
L 619.96591 229.322834 
L 620.202716 247.016316 
L 620.439522 252.956189 
L 620.913135 290.22373 
L 621.149941 270.959278 
L 621.386747 296.35854 
L 621.86036 277.16289 
L 622.097166 284.639332 
L 622.333972 257.588831 
L 622.570778 251.648958 
L 623.281197 190.874199 
L 623.754809 233.427997 
L 623.991615 224.208581 
L 624.465228 218.463646 
L 624.702034 200.047747 
L 624.93884 216.525734 
L 625.175646 194.91056 
L 625.412453 188.638146 
L 625.649259 217.741229 
L 625.886065 223.681102 
L 626.122871 223.681102 
L 626.596484 182.285464 
L 626.83329 185.198066 
L 627.070096 182.296931 
L 627.306902 184.498583 
L 627.543709 208.556214 
L 627.780515 197.628224 
L 628.017321 224.678725 
L 628.254127 230.951139 
L 628.490933 211.858691 
L 628.72774 208.946089 
L 628.964546 219.874079 
L 629.201352 219.874079 
L 629.674964 260.340895 
L 629.911771 234.941633 
L 630.148577 260.340895 
L 630.385383 263.253497 
L 630.622189 254.527159 
L 630.858995 271.865166 
L 631.095802 274.697499 
L 631.569414 318.787867 
L 631.80622 315.955533 
L 632.043026 335.047981 
L 632.279833 324.119992 
L 632.753445 280.201628 
L 633.227058 324.119992 
L 633.463864 316.64355 
L 633.70067 303.135499 
L 633.937476 329.727323 
L 634.174282 318.856668 
L 634.411089 329.784658 
L 634.647895 324.509867 
L 634.884701 333.729284 
L 635.121507 308.330021 
L 635.358313 305.41742 
L 635.59512 320.209767 
L 635.831926 302.206678 
L 636.068732 275.614854 
L 636.305538 269.34244 
L 636.542344 223.646701 
L 636.779151 249.596377 
L 637.015957 227.453724 
L 637.252763 242.246071 
L 637.726375 223.898974 
L 637.963182 234.769629 
L 638.199988 217.431622 
L 638.436794 215.585445 
L 638.6736 190.186183 
L 638.910406 190.186183 
L 639.147213 192.387834 
L 639.384019 198.327707 
L 639.620825 175.657575 
L 639.857631 190.060046 
L 640.094438 187.147445 
L 640.331244 209.198362 
L 640.56805 220.126352 
L 640.804856 244.183983 
L 641.041662 249.458773 
L 641.278469 223.509098 
L 641.752081 272.128905 
L 641.988887 248.071274 
L 642.225693 245.238941 
L 642.4625 219.289265 
L 642.936112 225.0342 
L 643.172918 247.176853 
L 643.409724 244.34452 
L 643.646531 221.674388 
L 643.883337 218.761786 
L 644.120143 205.253736 
L 644.593755 256.602674 
L 644.830562 259.515276 
L 645.304174 245.76642 
L 645.54098 218.715919 
L 645.777787 215.803317 
L 646.251399 163.261818 
L 646.725011 206.755905 
L 646.961818 194.944961 
L 647.198624 201.217375 
L 647.43543 190.289385 
L 647.672236 208.705284 
L 647.909042 194.302813 
L 648.145849 208.705284 
L 648.382655 201.228842 
L 648.619461 223.898974 
L 648.856267 231.375416 
L 649.093073 213.681934 
L 649.32988 207.742061 
L 649.803492 163.250351 
L 650.040298 175.061294 
L 650.277104 176.460261 
L 650.513911 198.511178 
L 650.750717 176.896004 
L 651.224329 219.059927 
L 651.461136 212.787513 
L 652.171554 261.315585 
L 652.40836 246.913114 
L 652.645167 257.841103 
L 653.355585 224.392052 
L 653.592391 231.868494 
L 653.829198 231.868494 
L 654.066004 238.725721 
L 654.30281 241.626856 
L 654.539616 260.719304 
L 655.013229 214.404351 
L 655.250035 220.676765 
L 655.723647 178.799516 
L 655.960453 175.886914 
L 656.434066 202.490205 
L 656.670872 188.087733 
L 657.144485 188.087733 
L 657.381291 177.217078 
L 657.618097 194.91056 
L 657.854903 235.790186 
L 658.091709 245.009602 
L 658.328516 267.06052 
L 658.565322 241.661257 
L 659.038934 264.790066 
L 659.512547 220.860236 
L 659.749353 211.640819 
L 659.986159 189.589902 
L 660.222965 189.291762 
L 660.459771 210.906935 
L 660.696578 208.074602 
L 660.933384 222.018396 
L 661.17019 217.832965 
L 661.406996 232.304238 
L 661.643802 232.304238 
L 661.880609 257.130153 
L 662.117415 265.856491 
L 662.354221 287.907409 
L 662.591027 298.778064 
L 662.827834 272.828388 
L 663.538252 237.808367 
L 663.775058 263.758042 
L 664.011865 244.665594 
L 664.485477 280.396566 
L 664.722283 277.495431 
L 664.959089 304.087255 
L 665.195896 298.147382 
L 665.432702 278.88293 
L 665.669508 281.875801 
L 665.906314 256.476538 
L 666.379927 299.018869 
L 666.853539 259.400607 
L 667.090345 276.738613 
L 667.563958 230.630065 
L 667.800764 249.493174 
L 668.03757 244.218384 
L 668.274376 256.029327 
L 668.511183 247.566729 
L 668.747989 225.779551 
L 668.984795 228.692153 
L 669.221601 239.620142 
L 669.458407 221.926661 
L 669.695214 227.201451 
L 670.405632 187.881329 
L 670.642438 214.473152 
L 670.879245 187.881329 
L 671.116051 208.819953 
L 671.352857 185.37007 
L 671.589663 182.82441 
L 671.826469 209.416234 
L 672.300082 174.522349 
L 672.536888 197.972232 
L 672.773694 179.969143 
L 673.0105 196.44713 
L 673.247307 188.970688 
L 673.484113 207.386586 
L 673.720919 190.9086 
L 674.194532 210.058382 
L 674.90495 250.74307 
L 675.378563 217.534824 
L 675.615369 206.664169 
L 675.852175 185.048995 
L 676.088981 196.940208 
L 676.325787 221.766124 
L 676.562594 221.502384 
L 676.7994 260.352362 
L 677.036206 254.527159 
L 677.509818 272.874256 
L 677.983431 311.334358 
L 678.220237 296.931887 
L 678.457043 270.340063 
L 678.693849 264.400191 
L 678.930656 223.130689 
L 679.167462 248.529952 
L 679.404268 248.529952 
L 679.641074 267.622399 
L 680.114687 288.65276 
L 681.061912 233.82934 
L 681.298718 243.048756 
L 681.535524 225.045667 
L 681.77233 239.448138 
L 682.009136 214.048876 
L 682.245943 221.525318 
L 682.482749 224.43792 
L 682.719555 202.387002 
L 683.193167 226.823042 
L 683.429974 221.548252 
L 683.66678 212.821914 
L 683.903586 239.872415 
L 684.140392 215.046499 
L 684.377198 232.739981 
L 684.614005 226.800108 
L 684.850811 226.800108 
L 685.087617 231.776758 
L 685.56123 277.449563 
L 685.798036 263.941513 
L 686.034842 284.880138 
L 686.271648 198.946922 
L 686.745261 242.016732 
L 686.982067 260.432631 
L 687.218873 241.294315 
L 687.692485 289.283441 
L 687.929292 262.691617 
L 688.166098 274.410825 
L 688.63971 325.06028 
L 689.113323 308.249753 
L 689.350129 283.423837 
L 689.586935 293.319802 
L 690.060547 285.866294 
L 690.297354 288.767429 
L 691.007772 232.25837 
L 691.244578 243.977578 
L 691.481385 270.569402 
L 691.718191 248.518485 
L 691.954997 251.431086 
L 692.191803 237.923036 
L 692.42861 213.865405 
L 692.665416 216.697738 
L 692.902222 239.36787 
L 693.375834 259.457941 
L 693.612641 240.193489 
L 693.849447 233.921075 
L 694.086253 257.978707 
L 694.323059 257.978707 
L 694.796672 294.386227 
L 695.033478 270.936344 
L 695.270284 287.41433 
L 695.50709 278.687992 
L 695.743896 275.786858 
L 695.980703 283.045428 
L 696.217509 281.371255 
L 696.454315 278.538922 
L 696.691121 299.076204 
L 696.927927 299.076204 
L 697.164734 289.856788 
L 697.638346 329.475051 
L 697.875152 340.40304 
L 698.111959 325.610693 
L 698.348765 299.018869 
L 698.585571 288.09088 
L 698.822377 268.321883 
L 699.059183 276.107932 
L 699.29599 270.833141 
L 699.532796 273.963615 
L 700.006408 232.086366 
L 700.243214 232.086366 
L 700.480021 214.083277 
L 700.716827 214.083277 
L 701.427245 279.181071 
L 701.900858 296.381474 
L 702.137664 290.10906 
L 702.37447 267.438928 
L 702.611276 264.537794 
L 702.848083 245.273342 
L 703.558501 294.764636 
L 704.032114 276.486341 
L 704.505726 296.519077 
L 704.742532 323.110901 
L 704.979339 296.519077 
L 705.216145 284.799869 
L 705.689757 325.794164 
L 705.926563 339.302215 
L 706.16337 345.574628 
L 706.400176 370.973891 
L 706.636982 347.524007 
L 706.873788 335.713064 
L 707.347401 356.743424 
L 707.821013 316.276608 
L 708.057819 319.177742 
L 708.294625 311.7013 
L 708.531432 322.571955 
L 708.768238 308.169484 
L 709.005044 331.619368 
L 709.478657 290.739742 
L 709.715463 308.077749 
L 709.952269 296.266805 
L 710.189075 299.099138 
L 710.425881 299.099138 
L 710.662688 313.501609 
L 711.1363 298.835398 
L 711.373106 296.003065 
L 711.609912 279.525079 
L 711.846719 301.575996 
L 712.083525 296.301206 
L 712.320331 315.565658 
L 712.557137 296.301206 
L 712.793943 318.971338 
L 713.03075 296.828685 
L 713.267556 302.103475 
L 713.504362 278.653592 
L 713.977974 256.854947 
L 714.214781 257.634698 
L 714.688393 292.264844 
L 714.925199 266.865582 
L 715.162006 285.28148 
L 715.398812 266.865582 
L 715.635618 266.865582 
L 715.872424 212.443505 
L 716.10923 192.89238 
L 716.346037 182.870278 
L 716.582843 209.920779 
L 717.056455 168.777414 
L 717.293261 168.777414 
L 717.530068 150.361515 
L 717.766874 164.763986 
L 718.240486 180.966766 
L 718.477292 166.564295 
L 718.950905 120.249342 
L 719.424517 155.189095 
L 719.661323 168.697145 
L 719.89813 162.757272 
L 720.134936 184.899925 
L 720.371742 176.173587 
L 720.608548 176.173587 
L 720.845355 198.843719 
L 721.082161 198.843719 
L 721.555773 181.643316 
L 721.792579 208.693817 
L 722.029386 205.861484 
L 722.266192 208.774085 
L 722.502998 195.266035 
L 722.739804 174.327411 
L 722.97661 174.327411 
L 723.213417 181.654783 
L 723.450223 181.654783 
L 723.687029 184.487116 
L 723.923835 181.574514 
L 724.160641 193.385458 
L 724.397448 211.388547 
L 724.634254 208.556214 
L 724.87106 258.655256 
L 725.107866 247.165386 
L 725.344672 261.567857 
L 725.581479 283.618775 
L 725.818285 265.615686 
L 726.055091 238.565184 
L 726.291897 257.829636 
L 726.76551 224.621391 
L 727.239122 260.730771 
L 727.475928 239.792147 
L 727.712735 259.83635 
L 727.949541 257.909905 
L 728.186347 239.494006 
L 728.423153 239.494006 
L 728.659959 240.594832 
L 728.896766 208.246606 
L 729.133572 231.69649 
L 729.370378 216.904143 
L 729.607184 233.382129 
L 729.84399 233.382129 
L 730.080797 241.902063 
L 730.317603 223.486164 
L 730.554409 220.802901 
L 730.791215 195.976985 
L 731.028021 214.22088 
L 731.264828 271.349154 
L 731.501634 274.250288 
L 731.73844 285.120943 
L 732.212053 265.030872 
L 732.685665 280.522702 
L 732.922471 297.860709 
L 733.159277 278.596257 
L 733.396084 278.596257 
L 733.63289 275.695122 
L 733.869696 296.633747 
L 734.106502 290.693874 
L 734.343308 290.693874 
L 734.580115 316.093137 
L 734.816921 298.090048 
L 735.053727 271.039546 
L 735.290533 285.442018 
L 735.527339 273.631074 
L 736.000952 291.978171 
L 736.474564 327.674742 
L 736.71137 219.415402 
L 736.948177 216.583069 
L 737.184983 211.67522 
L 737.658595 253.930878 
L 738.132208 253.930878 
L 738.369014 260.10009 
L 738.60582 263.012691 
L 738.842626 240.961774 
L 739.079433 243.748239 
L 739.316239 218.348977 
L 739.553045 218.348977 
L 739.789851 208.017268 
L 740.026657 212.94805 
L 740.263464 194.532151 
L 740.737076 236.959813 
L 740.973882 259.102466 
L 741.210688 245.594416 
L 741.447495 263.597505 
L 741.921107 216.869742 
L 742.157913 238.920659 
L 742.394719 222.442673 
L 742.631526 222.442673 
L 742.868332 240.858572 
L 743.105138 240.858572 
L 743.341944 229.047628 
L 743.815557 229.047628 
L 744.289169 208.957556 
L 744.525975 190.954467 
L 744.999588 190.954467 
L 745.236394 169.339294 
L 745.4732 175.279166 
L 745.710006 160.486819 
L 745.946813 180.026478 
L 746.183619 179.166457 
L 746.420425 179.166457 
L 746.657231 179.739804 
L 746.894037 203.797435 
L 747.130844 199.084525 
L 747.36765 209.232763 
L 747.604456 231.28368 
L 747.841262 212.191232 
L 748.078068 239.241734 
L 748.314875 220.825835 
L 748.788487 264.434591 
L 749.025293 258.162178 
L 749.498906 237.716631 
L 749.735712 234.884298 
L 749.972518 211.766956 
L 750.209324 225.275006 
L 750.446131 218.75032 
L 750.919743 218.75032 
L 751.156549 229.678309 
L 751.393355 211.984827 
L 751.630162 208.911689 
L 752.103774 170.004376 
L 752.34058 145.946745 
L 752.814193 189.039489 
L 753.050999 189.039489 
L 753.287805 195.311903 
L 753.761417 162.65407 
L 753.998224 197.249815 
L 754.23503 202.111796 
L 754.471836 212.638443 
L 754.708642 212.638443 
L 754.945448 224.357651 
L 755.182255 250.307327 
L 755.419061 232.96932 
L 755.655867 247.761667 
L 755.892673 221.811991 
L 756.12948 224.449387 
L 756.366286 241.787393 
L 756.603092 219.736476 
L 756.839898 230.607131 
L 757.313511 199.405599 
L 757.550317 199.761074 
L 757.787123 207.237516 
L 758.023929 207.237516 
L 758.260735 216.456932 
L 758.497542 189.865108 
L 758.734348 191.264075 
L 759.444766 224.013643 
L 759.681573 245.628817 
L 759.918379 222.178933 
L 760.155185 219.266332 
L 760.391991 196.5962 
L 760.628797 202.788345 
L 760.865604 202.788345 
L 761.10241 184.785256 
L 761.339216 185.565008 
L 761.576022 185.565008 
L 761.812829 202.903014 
L 762.049635 202.903014 
L 762.286441 217.305486 
L 762.523247 198.041034 
L 762.760053 214.51902 
L 762.99686 209.24423 
L 763.470472 253.4378 
L 763.707278 242.50981 
L 763.944084 245.410945 
L 764.180891 223.360028 
L 764.417697 223.360028 
L 764.654503 215.883586 
L 765.128115 169.740636 
L 765.364922 194.566552 
L 765.601728 185.954883 
L 765.838534 191.229674 
L 766.07534 176.437327 
L 766.312146 176.437327 
L 766.548953 194.440416 
L 766.785759 172.825242 
L 767.022565 169.992909 
L 767.732984 169.992909 
L 767.96979 192.663041 
L 768.206596 174.659952 
L 768.443402 198.717583 
L 768.680209 189.991245 
L 768.917015 198.717583 
L 769.390627 150.441784 
L 769.627433 145.648604 
L 769.86424 162.986611 
L 770.574658 162.986611 
L 770.811464 176.494661 
L 771.048271 179.326995 
L 771.285077 176.42586 
L 771.521883 203.017684 
L 771.995495 203.017684 
L 772.232302 210.494126 
L 772.469108 204.554253 
L 772.705914 234.093079 
L 772.94272 214.828627 
L 773.179527 232.166634 
L 773.653139 209.932246 
L 773.889945 200.71283 
L 774.126751 214.22088 
L 774.363558 235.836054 
L 774.600364 228.359612 
L 774.83717 242.269005 
L 775.073976 208.063135 
L 775.310782 243.473033 
L 775.547589 260.81104 
L 775.784395 267.083453 
L 776.021201 252.291106 
L 776.258007 246.351234 
L 776.494813 265.443682 
L 776.73162 259.171268 
L 776.968426 258.643789 
L 777.205232 258.643789 
L 777.442038 264.916203 
L 777.678844 247.578196 
L 777.915651 255.662386 
L 778.152457 239.184399 
L 778.389263 239.184399 
L 778.626069 212.133898 
L 778.862876 218.07377 
L 779.099682 218.07377 
L 779.336488 198.981322 
L 779.573294 223.807238 
L 779.8101 205.632145 
L 780.046907 205.632145 
L 780.283713 222.970152 
L 780.520519 222.970152 
L 780.757325 221.766124 
L 780.994131 239.769213 
L 781.230938 239.769213 
L 781.467744 247.245655 
L 781.70455 228.153207 
L 781.941356 247.394725 
L 782.414969 247.394725 
L 782.651775 238.347313 
L 783.599 238.347313 
L 783.835806 249.275302 
L 784.072612 240.055886 
L 784.309418 263.50577 
L 784.546224 272.232108 
L 784.783031 263.50577 
L 785.019837 269.445642 
L 785.256643 269.445642 
L 785.493449 248.507018 
L 785.730256 248.507018 
L 785.967062 259.377673 
L 786.203868 259.377673 
L 786.440674 280.316297 
L 786.67748 258.701123 
L 786.914287 258.701123 
L 787.151093 255.86879 
L 787.387899 239.390804 
L 787.624705 234.116013 
L 787.861511 219.713542 
L 788.098318 228.43988 
L 788.335124 209.175428 
L 788.57193 209.175428 
L 788.808736 228.43988 
L 789.045542 220.963438 
L 789.519155 220.963438 
L 789.755961 223.795771 
L 789.992767 201.125639 
L 790.229573 254.550093 
L 790.46638 257.130153 
L 790.939992 301.770934 
L 791.413605 261.739861 
L 791.650411 261.739861 
L 792.124023 213.991541 
L 792.360829 217.030279 
L 792.597636 217.030279 
L 793.071248 178.696313 
L 793.781667 178.696313 
L 794.018473 195.47244 
L 794.255279 186.654366 
L 794.728891 186.654366 
L 794.965698 182.606538 
L 795.202504 193.534528 
L 795.43931 177.056541 
L 795.912922 187.686391 
L 796.149729 175.875447 
L 796.623341 175.875447 
L 796.860147 196.814072 
L 797.096954 196.814072 
L 797.33376 210.322122 
L 797.570566 234.379753 
L 797.807372 246.098961 
L 798.044178 243.186359 
L 798.280985 225.848353 
L 798.991403 225.848353 
L 799.228209 201.790722 
L 799.465016 218.268708 
L 799.701822 192.319033 
L 799.938628 192.319033 
L 800.175434 218.268708 
L 800.41224 221.18131 
L 800.649047 215.241437 
L 800.885853 220.516228 
L 801.122659 217.615093 
L 801.359465 241.340183 
L 801.596271 244.333053 
L 801.833078 244.333053 
L 802.069884 266.475706 
L 802.30669 239.425205 
L 802.543496 239.78068 
L 803.253915 239.78068 
L 803.490721 245.05547 
L 803.727527 242.785017 
L 803.964334 217.959101 
L 804.20114 217.959101 
L 804.437946 212.684311 
L 805.148365 283.125697 
L 805.385171 283.125697 
L 806.095589 205.68948 
L 806.332396 224.105378 
L 806.569202 214.885962 
L 806.806008 220.504761 
L 807.042814 238.198242 
L 807.27962 238.198242 
L 807.516427 238.840391 
L 807.753233 221.146909 
L 808.226845 221.146909 
L 808.463652 232.590911 
L 808.937264 232.590911 
L 809.410876 214.78276 
L 809.647683 220.722632 
L 809.884489 215.447842 
L 810.121295 215.447842 
L 810.358101 190.048579 
L 810.594907 190.048579 
L 810.831714 181.654783 
L 811.06852 192.261698 
L 812.015745 192.261698 
L 812.252551 218.394845 
L 812.489357 223.979242 
L 813.199776 223.979242 
L 813.436582 198.57998 
L 813.673388 186.860771 
L 813.910194 162.034856 
L 814.620613 162.034856 
L 814.857419 176.827203 
L 815.094225 173.926068 
L 815.804644 173.926068 
L 816.04145 157.52835 
L 816.278256 179.671003 
L 816.515063 179.671003 
L 816.751869 187.147445 
L 817.225481 187.147445 
L 817.699094 209.794643 
L 817.9359 206.882041 
L 818.172706 180.290217 
L 818.409512 180.290217 
L 818.646318 177.457884 
L 818.883125 171.18547 
L 819.119931 170.405719 
L 819.356737 158.68651 
L 819.593543 180.301684 
L 819.83035 180.301684 
L 820.067156 192.020892 
L 820.303962 192.020892 
L 820.540768 215.470776 
L 821.014381 164.970391 
L 821.251187 164.970391 
L 821.487993 167.871526 
L 821.724799 150.533519 
L 821.961605 150.533519 
L 822.198412 153.446121 
L 822.672024 153.446121 
L 822.90883 131.830947 
L 823.145636 131.830947 
L 823.382443 128.918345 
L 823.619249 146.611827 
L 824.092861 146.611827 
L 824.329667 168.227001 
L 825.513699 168.227001 
L 825.750505 170.600657 
L 826.934536 170.600657 
L 827.171342 187.376783 
L 827.644954 187.376783 
L 827.881761 178.249103 
L 828.118567 178.249103 
L 828.355373 169.029686 
L 829.302598 169.029686 
L 829.539404 184.051372 
L 829.77621 184.051372 
L 830.013016 176.57493 
L 830.249823 176.57493 
L 830.486629 201.400846 
L 831.433854 201.400846 
L 831.907466 215.149702 
L 832.381079 175.118629 
L 832.617885 169.178756 
L 833.328303 169.178756 
L 833.56511 151.175667 
L 836.880396 151.175667 
L 837.117203 154.076802 
L 837.354009 145.350464 
L 837.827621 145.350464 
L 838.064428 120.524548 
L 840.906102 120.524548 
L 841.142908 122.141386 
L 841.379714 122.141386 
L 841.616521 120.937358 
L 842.326939 120.937358 
L 842.563745 118.105025 
L 844.695001 118.105025 
L 844.931808 120.042937 
L 847.063063 120.042937 
L 847.29987 122.87527 
L 849.431126 122.87527 
L 849.667932 133.80326 
L 849.904738 133.80326 
L 850.141544 153.010377 
L 850.37835 142.082387 
L 851.562381 142.082387 
L 851.799188 143.481354 
L 852.2728 143.481354 
L 852.509606 140.64902 
L 852.746412 140.64902 
L 852.983219 143.481354 
L 853.456831 143.481354 
L 853.693637 150.30418 
L 853.930443 150.30418 
L 854.16725 153.216782 
L 854.404056 153.216782 
L 854.640862 142.002119 
L 854.877668 142.002119 
L 855.114475 148.228665 
L 855.588087 148.228665 
L 855.824893 154.168538 
L 856.061699 154.168538 
L 856.298506 146.692096 
L 857.482537 146.692096 
L 857.719343 149.650565 
L 858.192955 149.650565 
L 858.429761 131.234666 
L 858.666568 131.234666 
L 858.903374 122.01525 
L 860.797824 122.01525 
L 861.03463 119.182917 
L 861.271436 126.659359 
L 861.745048 126.659359 
L 861.981855 101.833443 
L 862.218661 104.665776 
L 862.455467 97.808549 
L 863.165886 97.808549 
L 863.402692 94.907414 
L 863.639498 104.12683 
L 865.533948 104.12683 
L 865.770754 99.41392 
L 866.717979 99.41392 
L 866.954785 98.106689 
L 867.665204 98.106689 
L 867.90201 88.887273 
L 871.690909 88.887273 
L 871.690909 88.887273 
" style="fill:none;stroke:#8dd3c7;stroke-linecap:square;stroke-width:1.5;"/>
   </g>
   <g id="line2d_17">
    <path clip-path="url(#p9b14d1cc28)" d="M 161.509091 198.843719 
L 180.216781 198.843719 
L 180.453588 185.863148 
L 182.111231 185.863148 
L 182.348037 171.529478 
L 184.716099 171.529478 
L 184.952906 164.33971 
L 211.712007 164.33971 
L 211.948813 157.906759 
L 212.185619 157.906759 
L 212.422426 144.754183 
L 718.477292 144.754183 
L 718.714099 139.513794 
L 718.950905 120.249342 
L 842.326939 120.249342 
L 842.563745 118.105025 
L 861.745048 118.105025 
L 861.981855 101.833443 
L 862.218661 101.833443 
L 862.455467 97.808549 
L 863.165886 97.808549 
L 863.402692 94.907414 
L 867.665204 94.907414 
L 867.90201 88.887273 
L 871.690909 88.887273 
L 871.690909 88.887273 
" style="fill:none;stroke:#feffb3;stroke-linecap:square;stroke-width:1.5;"/>
   </g>
   <g id="line2d_18">
    <path clip-path="url(#p9b14d1cc28)" d="M 161.509091 198.843719 
L 163.166734 198.843719 
L 163.403541 210.061496 
L 165.061184 210.061496 
L 165.29799 220.838336 
L 166.955634 220.838336 
L 167.19244 231.191571 
L 168.850083 231.191571 
L 169.08689 241.137852 
L 170.744533 241.137852 
L 170.981339 250.693175 
L 172.638983 250.693175 
L 172.875789 259.872908 
L 174.533432 259.872908 
L 174.770239 268.691813 
L 176.427882 268.691813 
L 176.664688 277.164074 
L 178.322332 277.164074 
L 178.559138 285.303316 
L 180.216781 285.303316 
L 180.453588 293.122629 
L 182.111231 293.122629 
L 182.348037 300.634589 
L 184.005681 300.634589 
L 184.242487 307.851276 
L 185.90013 307.851276 
L 186.136937 314.784298 
L 187.79458 314.784298 
L 188.031386 321.444803 
L 189.68903 321.444803 
L 189.925836 327.843504 
L 191.583479 327.843504 
L 191.820286 333.990692 
L 193.477929 333.990692 
L 193.714735 339.896253 
L 195.372379 339.896253 
L 195.609185 345.569684 
L 197.266828 345.569684 
L 197.503635 351.020109 
L 199.161278 351.020109 
L 199.398084 356.256295 
L 201.055728 356.256295 
L 201.292534 361.286663 
L 202.950177 361.286663 
L 203.186984 366.119302 
L 204.844627 366.119302 
L 205.081433 370.761985 
L 206.739077 370.761985 
L 206.975883 375.222178 
L 208.633526 375.222178 
L 208.870333 379.507054 
L 210.527976 379.507054 
L 210.764782 383.623505 
L 212.422426 383.623505 
L 212.659232 387.578151 
L 214.316875 387.578151 
L 214.553682 391.377351 
L 216.211325 391.377351 
L 216.448131 395.027217 
L 218.105775 395.027217 
L 218.342581 398.533617 
L 220.000224 398.533617 
L 220.237031 401.902192 
L 221.894674 401.902192 
L 222.13148 405.138358 
L 223.789124 405.138358 
L 224.02593 408.247321 
L 225.683573 408.247321 
L 225.92038 411.234079 
L 227.578023 411.234079 
L 227.814829 414.103437 
L 229.472473 414.103437 
L 229.709279 416.86001 
L 231.366922 416.86001 
L 231.603729 419.50823 
L 233.261372 419.50823 
L 233.498178 422.052356 
L 235.155822 422.052356 
L 235.392628 424.496481 
L 237.050271 424.496481 
L 237.287078 426.844534 
L 238.944721 426.844534 
L 239.181527 429.100293 
L 240.839171 429.100293 
L 241.075977 431.267384 
L 242.73362 431.267384 
L 242.970427 433.349294 
L 244.62807 433.349294 
L 244.864876 435.349371 
L 246.52252 435.349371 
L 246.759326 437.27083 
L 248.416969 437.27083 
L 248.653776 439.116763 
L 250.311419 439.116763 
L 250.548225 440.890137 
L 252.205869 440.890137 
L 252.442675 442.593806 
L 254.100318 442.593806 
L 254.337124 444.230509 
L 255.994768 444.230509 
L 256.231574 445.802878 
L 257.889218 445.802878 
L 258.126024 447.313442 
L 259.783667 447.313442 
L 260.020473 448.76463 
L 261.678117 448.76463 
L 261.914923 450.158776 
L 263.572567 450.158776 
L 263.809373 451.498123 
L 265.467016 451.498123 
L 265.703822 452.784824 
L 267.361466 452.784824 
L 267.598272 454.020949 
L 269.255916 454.020949 
L 269.492722 455.208485 
L 271.150365 455.208485 
L 271.387171 456.349343 
L 273.044815 456.349343 
L 273.281621 457.445358 
L 274.939265 457.445358 
L 275.176071 458.498291 
L 276.833714 458.498291 
L 277.07052 459.509837 
L 278.728164 459.509837 
L 278.96497 460.481622 
L 280.622614 460.481622 
L 280.85942 461.415209 
L 282.517063 461.415209 
L 282.753869 462.3121 
L 284.411513 462.3121 
L 284.648319 463.173736 
L 286.305963 463.173736 
L 286.542769 464.001505 
L 288.200412 464.001505 
L 288.437218 464.796736 
L 290.094862 464.796736 
L 290.331668 465.560709 
L 291.989312 465.560709 
L 292.226118 466.294653 
L 293.883761 466.294653 
L 294.120567 466.999747 
L 295.778211 466.999747 
L 296.015017 467.677127 
L 297.672661 467.677127 
L 297.909467 468.32788 
L 299.56711 468.32788 
L 299.803916 468.953055 
L 301.46156 468.953055 
L 301.698366 469.553656 
L 303.35601 469.553656 
L 303.592816 470.130649 
L 305.250459 470.130649 
L 305.487265 470.684962 
L 307.144909 470.684962 
L 307.381715 471.217487 
L 309.039359 471.217487 
L 309.276165 471.72908 
L 310.933808 471.72908 
L 311.170614 472.220564 
L 312.828258 472.220564 
L 313.065064 472.692729 
L 314.722708 472.692729 
L 314.959514 473.146334 
L 316.617157 473.146334 
L 316.853963 473.58211 
L 318.511607 473.58211 
L 318.748413 474.000757 
L 320.406057 474.000757 
L 320.642863 474.402948 
L 322.300506 474.402948 
L 322.537312 474.78933 
L 324.194956 474.78933 
L 324.431762 475.160525 
L 326.089406 475.160525 
L 326.326212 475.517129 
L 327.983855 475.517129 
L 328.220661 475.859716 
L 329.878305 475.859716 
L 330.115111 476.188837 
L 331.772755 476.188837 
L 332.009561 476.505021 
L 333.667204 476.505021 
L 333.90401 476.808777 
L 335.561654 476.808777 
L 335.79846 477.100594 
L 337.456104 477.100594 
L 337.69291 477.380939 
L 339.350553 477.380939 
L 339.587359 477.650266 
L 341.245003 477.650266 
L 341.481809 477.909006 
L 343.139453 477.909006 
L 343.376259 478.157576 
L 345.033902 478.157576 
L 345.270708 478.396375 
L 346.928352 478.396375 
L 347.165158 478.625787 
L 348.822802 478.625787 
L 349.059608 478.846183 
L 350.717251 478.846183 
L 350.954057 479.057915 
L 352.611701 479.057915 
L 352.848507 479.261324 
L 354.506151 479.261324 
L 354.742957 479.456738 
L 356.4006 479.456738 
L 356.637406 479.644471 
L 358.29505 479.644471 
L 358.531856 479.824825 
L 360.1895 479.824825 
L 360.426306 479.99809 
L 362.083949 479.99809 
L 362.320755 480.164544 
L 363.978399 480.164544 
L 364.215205 480.324455 
L 365.872849 480.324455 
L 366.109655 480.478081 
L 367.767298 480.478081 
L 368.004104 480.625668 
L 369.661748 480.625668 
L 369.898554 480.767454 
L 371.556198 480.767454 
L 371.793004 480.903667 
L 373.450647 480.903667 
L 373.687453 481.034526 
L 375.345097 481.034526 
L 375.818709 481.160241 
L 377.239547 481.160241 
L 377.713159 481.281014 
L 379.133996 481.281014 
L 379.607609 481.39704 
L 381.028446 481.39704 
L 381.502058 481.508506 
L 384.817345 481.61559 
L 385.290958 481.718466 
L 388.606245 481.817297 
L 389.079857 481.912244 
L 392.395144 482.003458 
L 392.868756 482.091087 
L 396.184043 482.175272 
L 396.657656 482.256148 
L 399.972942 482.333845 
L 400.446555 482.408487 
L 403.761842 482.480196 
L 404.235454 482.549086 
L 407.550741 482.615269 
L 408.024354 482.678849 
L 411.33964 482.739931 
L 411.813253 482.798612 
L 417.022989 482.909144 
L 417.733408 482.961174 
L 422.706338 483.059178 
L 423.416757 483.10531 
L 428.389687 483.192205 
L 429.100106 483.233108 
L 434.073036 483.310155 
L 435.020261 483.346422 
L 441.650835 483.446891 
L 442.59806 483.477783 
L 449.228634 483.563364 
L 450.412665 483.589678 
L 458.700882 483.684989 
L 460.121719 483.706523 
L 470.06758 483.802139 
L 471.725224 483.819068 
L 485.223177 483.920331 
L 487.828046 483.944414 
L 511.745473 484.054572 
L 516.007984 484.074775 
L 574.262312 484.185357 
L 590.128328 484.199735 
L 871.690909 484.232727 
L 871.690909 484.232727 
" style="fill:none;stroke:#bfbbd9;stroke-linecap:square;stroke-width:1.5;"/>
   </g>
   <g id="patch_3">
    <path d="M 126 504 
L 126 69.12 
" style="fill:none;stroke:#ffffff;stroke-linecap:square;stroke-linejoin:miter;stroke-width:0.8;"/>
   </g>
   <g id="patch_4">
    <path d="M 907.2 504 
L 907.2 69.12 
" style="fill:none;stroke:#ffffff;stroke-linecap:square;stroke-linejoin:miter;stroke-width:0.8;"/>
   </g>
   <g id="patch_5">
    <path d="M 126 504 
L 907.2 504 
" style="fill:none;stroke:#ffffff;stroke-linecap:square;stroke-linejoin:miter;stroke-width:0.8;"/>
   </g>
   <g id="patch_6">
    <path d="M 126 69.12 
L 907.2 69.12 
" style="fill:none;stroke:#ffffff;stroke-linecap:square;stroke-linejoin:miter;stroke-width:0.8;"/>
   </g>
   <g id="text_17">
    <!-- instance 3 with error 0.0856362382644672 -->
    <g style="fill:#ffffff;" transform="translate(385.681875 63.12)scale(0.12 -0.12)">
     <defs>
      <path d="M 2834 3397 
L 2834 2853 
Q 2591 2978 2328 3040 
Q 2066 3103 1784 3103 
Q 1356 3103 1142 2972 
Q 928 2841 928 2578 
Q 928 2378 1081 2264 
Q 1234 2150 1697 2047 
L 1894 2003 
Q 2506 1872 2764 1633 
Q 3022 1394 3022 966 
Q 3022 478 2636 193 
Q 2250 -91 1575 -91 
Q 1294 -91 989 -36 
Q 684 19 347 128 
L 347 722 
Q 666 556 975 473 
Q 1284 391 1588 391 
Q 1994 391 2212 530 
Q 2431 669 2431 922 
Q 2431 1156 2273 1281 
Q 2116 1406 1581 1522 
L 1381 1569 
Q 847 1681 609 1914 
Q 372 2147 372 2553 
Q 372 3047 722 3315 
Q 1072 3584 1716 3584 
Q 2034 3584 2315 3537 
Q 2597 3491 2834 3397 
z
" id="DejaVuSans-73" transform="scale(0.015625)"/>
      <path d="M 3122 3366 
L 3122 2828 
Q 2878 2963 2633 3030 
Q 2388 3097 2138 3097 
Q 1578 3097 1268 2742 
Q 959 2388 959 1747 
Q 959 1106 1268 751 
Q 1578 397 2138 397 
Q 2388 397 2633 464 
Q 2878 531 3122 666 
L 3122 134 
Q 2881 22 2623 -34 
Q 2366 -91 2075 -91 
Q 1284 -91 818 406 
Q 353 903 353 1747 
Q 353 2603 823 3093 
Q 1294 3584 2113 3584 
Q 2378 3584 2631 3529 
Q 2884 3475 3122 3366 
z
" id="DejaVuSans-63" transform="scale(0.015625)"/>
      <path id="DejaVuSans-20" transform="scale(0.015625)"/>
      <path d="M 269 3500 
L 844 3500 
L 1563 769 
L 2278 3500 
L 2956 3500 
L 3675 769 
L 4391 3500 
L 4966 3500 
L 4050 0 
L 3372 0 
L 2619 2869 
L 1863 0 
L 1184 0 
L 269 3500 
z
" id="DejaVuSans-77" transform="scale(0.015625)"/>
      <path d="M 3513 2113 
L 3513 0 
L 2938 0 
L 2938 2094 
Q 2938 2591 2744 2837 
Q 2550 3084 2163 3084 
Q 1697 3084 1428 2787 
Q 1159 2491 1159 1978 
L 1159 0 
L 581 0 
L 581 4863 
L 1159 4863 
L 1159 2956 
Q 1366 3272 1645 3428 
Q 1925 3584 2291 3584 
Q 2894 3584 3203 3211 
Q 3513 2838 3513 2113 
z
" id="DejaVuSans-68" transform="scale(0.015625)"/>
      <path d="M 684 794 
L 1344 794 
L 1344 0 
L 684 0 
L 684 794 
z
" id="DejaVuSans-2e" transform="scale(0.015625)"/>
      <path d="M 2034 2216 
Q 1584 2216 1326 1975 
Q 1069 1734 1069 1313 
Q 1069 891 1326 650 
Q 1584 409 2034 409 
Q 2484 409 2743 651 
Q 3003 894 3003 1313 
Q 3003 1734 2745 1975 
Q 2488 2216 2034 2216 
z
M 1403 2484 
Q 997 2584 770 2862 
Q 544 3141 544 3541 
Q 544 4100 942 4425 
Q 1341 4750 2034 4750 
Q 2731 4750 3128 4425 
Q 3525 4100 3525 3541 
Q 3525 3141 3298 2862 
Q 3072 2584 2669 2484 
Q 3125 2378 3379 2068 
Q 3634 1759 3634 1313 
Q 3634 634 3220 271 
Q 2806 -91 2034 -91 
Q 1263 -91 848 271 
Q 434 634 434 1313 
Q 434 1759 690 2068 
Q 947 2378 1403 2484 
z
M 1172 3481 
Q 1172 3119 1398 2916 
Q 1625 2713 2034 2713 
Q 2441 2713 2670 2916 
Q 2900 3119 2900 3481 
Q 2900 3844 2670 4047 
Q 2441 4250 2034 4250 
Q 1625 4250 1398 4047 
Q 1172 3844 1172 3481 
z
" id="DejaVuSans-38" transform="scale(0.015625)"/>
      <path d="M 2113 2584 
Q 1688 2584 1439 2293 
Q 1191 2003 1191 1497 
Q 1191 994 1439 701 
Q 1688 409 2113 409 
Q 2538 409 2786 701 
Q 3034 994 3034 1497 
Q 3034 2003 2786 2293 
Q 2538 2584 2113 2584 
z
M 3366 4563 
L 3366 3988 
Q 3128 4100 2886 4159 
Q 2644 4219 2406 4219 
Q 1781 4219 1451 3797 
Q 1122 3375 1075 2522 
Q 1259 2794 1537 2939 
Q 1816 3084 2150 3084 
Q 2853 3084 3261 2657 
Q 3669 2231 3669 1497 
Q 3669 778 3244 343 
Q 2819 -91 2113 -91 
Q 1303 -91 875 529 
Q 447 1150 447 2328 
Q 447 3434 972 4092 
Q 1497 4750 2381 4750 
Q 2619 4750 2861 4703 
Q 3103 4656 3366 4563 
z
" id="DejaVuSans-36" transform="scale(0.015625)"/>
      <path d="M 2419 4116 
L 825 1625 
L 2419 1625 
L 2419 4116 
z
M 2253 4666 
L 3047 4666 
L 3047 1625 
L 3713 1625 
L 3713 1100 
L 3047 1100 
L 3047 0 
L 2419 0 
L 2419 1100 
L 313 1100 
L 313 1709 
L 2253 4666 
z
" id="DejaVuSans-34" transform="scale(0.015625)"/>
      <path d="M 525 4666 
L 3525 4666 
L 3525 4397 
L 1831 0 
L 1172 0 
L 2766 4134 
L 525 4134 
L 525 4666 
z
" id="DejaVuSans-37" transform="scale(0.015625)"/>
     </defs>
     <use xlink:href="#DejaVuSans-69"/>
     <use x="27.783203" xlink:href="#DejaVuSans-6e"/>
     <use x="91.162109" xlink:href="#DejaVuSans-73"/>
     <use x="143.261719" xlink:href="#DejaVuSans-74"/>
     <use x="182.470703" xlink:href="#DejaVuSans-61"/>
     <use x="243.75" xlink:href="#DejaVuSans-6e"/>
     <use x="307.128906" xlink:href="#DejaVuSans-63"/>
     <use x="362.109375" xlink:href="#DejaVuSans-65"/>
     <use x="423.632812" xlink:href="#DejaVuSans-20"/>
     <use x="455.419922" xlink:href="#DejaVuSans-33"/>
     <use x="519.042969" xlink:href="#DejaVuSans-20"/>
     <use x="550.830078" xlink:href="#DejaVuSans-77"/>
     <use x="632.617188" xlink:href="#DejaVuSans-69"/>
     <use x="660.400391" xlink:href="#DejaVuSans-74"/>
     <use x="699.609375" xlink:href="#DejaVuSans-68"/>
     <use x="762.988281" xlink:href="#DejaVuSans-20"/>
     <use x="794.775391" xlink:href="#DejaVuSans-65"/>
     <use x="856.298828" xlink:href="#DejaVuSans-72"/>
     <use x="895.662109" xlink:href="#DejaVuSans-72"/>
     <use x="934.525391" xlink:href="#DejaVuSans-6f"/>
     <use x="995.707031" xlink:href="#DejaVuSans-72"/>
     <use x="1036.820312" xlink:href="#DejaVuSans-20"/>
     <use x="1068.607422" xlink:href="#DejaVuSans-30"/>
     <use x="1132.230469" xlink:href="#DejaVuSans-2e"/>
     <use x="1164.017578" xlink:href="#DejaVuSans-30"/>
     <use x="1227.640625" xlink:href="#DejaVuSans-38"/>
     <use x="1291.263672" xlink:href="#DejaVuSans-35"/>
     <use x="1354.886719" xlink:href="#DejaVuSans-36"/>
     <use x="1418.509766" xlink:href="#DejaVuSans-33"/>
     <use x="1482.132812" xlink:href="#DejaVuSans-36"/>
     <use x="1545.755859" xlink:href="#DejaVuSans-32"/>
     <use x="1609.378906" xlink:href="#DejaVuSans-33"/>
     <use x="1673.001953" xlink:href="#DejaVuSans-38"/>
     <use x="1736.625" xlink:href="#DejaVuSans-32"/>
     <use x="1800.248047" xlink:href="#DejaVuSans-36"/>
     <use x="1863.871094" xlink:href="#DejaVuSans-34"/>
     <use x="1927.494141" xlink:href="#DejaVuSans-34"/>
     <use x="1991.117188" xlink:href="#DejaVuSans-36"/>
     <use x="2054.740234" xlink:href="#DejaVuSans-37"/>
     <use x="2118.363281" xlink:href="#DejaVuSans-32"/>
    </g>
   </g>
   <g id="legend_1">
    <g id="patch_7">
     <path d="M 805.348438 499 
L 900.2 499 
Q 902.2 499 902.2 497 
L 902.2 453.965625 
Q 902.2 451.965625 900.2 451.965625 
L 805.348438 451.965625 
Q 803.348438 451.965625 803.348438 453.965625 
L 803.348438 497 
Q 803.348438 499 805.348438 499 
z
" style="opacity:0.8;stroke:#cccccc;stroke-linejoin:miter;"/>
    </g>
    <g id="line2d_19">
     <path d="M 807.348438 460.064062 
L 827.348438 460.064062 
" style="fill:none;stroke:#8dd3c7;stroke-linecap:square;stroke-width:1.5;"/>
    </g>
    <g id="line2d_20"/>
    <g id="text_18">
     <!-- cost -->
     <g style="fill:#ffffff;" transform="translate(835.348438 463.564062)scale(0.1 -0.1)">
      <use xlink:href="#DejaVuSans-63"/>
      <use x="54.980469" xlink:href="#DejaVuSans-6f"/>
      <use x="116.162109" xlink:href="#DejaVuSans-73"/>
      <use x="168.261719" xlink:href="#DejaVuSans-74"/>
     </g>
    </g>
    <g id="line2d_21">
     <path d="M 807.348438 474.742188 
L 827.348438 474.742188 
" style="fill:none;stroke:#feffb3;stroke-linecap:square;stroke-width:1.5;"/>
    </g>
    <g id="line2d_22"/>
    <g id="text_19">
     <!-- best cost -->
     <g style="fill:#ffffff;" transform="translate(835.348438 478.242188)scale(0.1 -0.1)">
      <defs>
       <path d="M 3116 1747 
Q 3116 2381 2855 2742 
Q 2594 3103 2138 3103 
Q 1681 3103 1420 2742 
Q 1159 2381 1159 1747 
Q 1159 1113 1420 752 
Q 1681 391 2138 391 
Q 2594 391 2855 752 
Q 3116 1113 3116 1747 
z
M 1159 2969 
Q 1341 3281 1617 3432 
Q 1894 3584 2278 3584 
Q 2916 3584 3314 3078 
Q 3713 2572 3713 1747 
Q 3713 922 3314 415 
Q 2916 -91 2278 -91 
Q 1894 -91 1617 61 
Q 1341 213 1159 525 
L 1159 0 
L 581 0 
L 581 4863 
L 1159 4863 
L 1159 2969 
z
" id="DejaVuSans-62" transform="scale(0.015625)"/>
      </defs>
      <use xlink:href="#DejaVuSans-62"/>
      <use x="63.476562" xlink:href="#DejaVuSans-65"/>
      <use x="125" xlink:href="#DejaVuSans-73"/>
      <use x="177.099609" xlink:href="#DejaVuSans-74"/>
      <use x="216.308594" xlink:href="#DejaVuSans-20"/>
      <use x="248.095703" xlink:href="#DejaVuSans-63"/>
      <use x="303.076172" xlink:href="#DejaVuSans-6f"/>
      <use x="364.257812" xlink:href="#DejaVuSans-73"/>
      <use x="416.357422" xlink:href="#DejaVuSans-74"/>
     </g>
    </g>
    <g id="line2d_23">
     <path d="M 807.348438 489.420313 
L 827.348438 489.420313 
" style="fill:none;stroke:#bfbbd9;stroke-linecap:square;stroke-width:1.5;"/>
    </g>
    <g id="line2d_24"/>
    <g id="text_20">
     <!-- temperature -->
     <g style="fill:#ffffff;" transform="translate(835.348438 492.920313)scale(0.1 -0.1)">
      <defs>
       <path d="M 3328 2828 
Q 3544 3216 3844 3400 
Q 4144 3584 4550 3584 
Q 5097 3584 5394 3201 
Q 5691 2819 5691 2113 
L 5691 0 
L 5113 0 
L 5113 2094 
Q 5113 2597 4934 2840 
Q 4756 3084 4391 3084 
Q 3944 3084 3684 2787 
Q 3425 2491 3425 1978 
L 3425 0 
L 2847 0 
L 2847 2094 
Q 2847 2600 2669 2842 
Q 2491 3084 2119 3084 
Q 1678 3084 1418 2786 
Q 1159 2488 1159 1978 
L 1159 0 
L 581 0 
L 581 3500 
L 1159 3500 
L 1159 2956 
Q 1356 3278 1631 3431 
Q 1906 3584 2284 3584 
Q 2666 3584 2933 3390 
Q 3200 3197 3328 2828 
z
" id="DejaVuSans-6d" transform="scale(0.015625)"/>
       <path d="M 1159 525 
L 1159 -1331 
L 581 -1331 
L 581 3500 
L 1159 3500 
L 1159 2969 
Q 1341 3281 1617 3432 
Q 1894 3584 2278 3584 
Q 2916 3584 3314 3078 
Q 3713 2572 3713 1747 
Q 3713 922 3314 415 
Q 2916 -91 2278 -91 
Q 1894 -91 1617 61 
Q 1341 213 1159 525 
z
M 3116 1747 
Q 3116 2381 2855 2742 
Q 2594 3103 2138 3103 
Q 1681 3103 1420 2742 
Q 1159 2381 1159 1747 
Q 1159 1113 1420 752 
Q 1681 391 2138 391 
Q 2594 391 2855 752 
Q 3116 1113 3116 1747 
z
" id="DejaVuSans-70" transform="scale(0.015625)"/>
       <path d="M 544 1381 
L 544 3500 
L 1119 3500 
L 1119 1403 
Q 1119 906 1312 657 
Q 1506 409 1894 409 
Q 2359 409 2629 706 
Q 2900 1003 2900 1516 
L 2900 3500 
L 3475 3500 
L 3475 0 
L 2900 0 
L 2900 538 
Q 2691 219 2414 64 
Q 2138 -91 1772 -91 
Q 1169 -91 856 284 
Q 544 659 544 1381 
z
M 1991 3584 
L 1991 3584 
z
" id="DejaVuSans-75" transform="scale(0.015625)"/>
      </defs>
      <use xlink:href="#DejaVuSans-74"/>
      <use x="39.208984" xlink:href="#DejaVuSans-65"/>
      <use x="100.732422" xlink:href="#DejaVuSans-6d"/>
      <use x="198.144531" xlink:href="#DejaVuSans-70"/>
      <use x="261.621094" xlink:href="#DejaVuSans-65"/>
      <use x="323.144531" xlink:href="#DejaVuSans-72"/>
      <use x="364.257812" xlink:href="#DejaVuSans-61"/>
      <use x="425.537109" xlink:href="#DejaVuSans-74"/>
      <use x="464.746094" xlink:href="#DejaVuSans-75"/>
      <use x="528.125" xlink:href="#DejaVuSans-72"/>
      <use x="566.988281" xlink:href="#DejaVuSans-65"/>
     </g>
    </g>
   </g>
  </g>
 </g>
 <defs>
  <clipPath id="p9b14d1cc28">
   <rect height="434.88" width="781.2" x="126" y="69.12"/>
  </clipPath>
 </defs>
</svg>
