<?xml version="1.0" encoding="utf-8" standalone="no"?>
<!DOCTYPE svg PUBLIC "-//W3C//DTD SVG 1.1//EN"
  "http://www.w3.org/Graphics/SVG/1.1/DTD/svg11.dtd">
<svg height="576pt" version="1.1" viewBox="0 0 1008 576" width="1008pt" xmlns="http://www.w3.org/2000/svg" xmlns:xlink="http://www.w3.org/1999/xlink">
 <metadata>
  <rdf:RDF xmlns:cc="http://creativecommons.org/ns#" xmlns:dc="http://purl.org/dc/elements/1.1/" xmlns:rdf="http://www.w3.org/1999/02/22-rdf-syntax-ns#">
   <cc:Work>
    <dc:type rdf:resource="http://purl.org/dc/dcmitype/StillImage"/>
    <dc:date>2022-01-08T03:26:37.940881</dc:date>
    <dc:format>image/svg+xml</dc:format>
    <dc:creator>
     <cc:Agent>
      <dc:title>Matplotlib v3.4.3, https://matplotlib.org/</dc:title>
     </cc:Agent>
    </dc:creator>
   </cc:Work>
  </rdf:RDF>
 </metadata>
 <defs>
  <style type="text/css">*{stroke-linecap:butt;stroke-linejoin:round;}</style>
 </defs>
 <g id="figure_1">
  <g id="patch_1">
   <path d="M 0 576 
L 1008 576 
L 1008 0 
L 0 0 
z
"/>
  </g>
  <g id="axes_1">
   <g id="patch_2">
    <path d="M 126 504 
L 907.2 504 
L 907.2 69.12 
L 126 69.12 
z
"/>
   </g>
   <g id="matplotlib.axis_1">
    <g id="xtick_1">
     <g id="line2d_1">
      <defs>
       <path d="M 0 0 
L 0 3.5 
" id="mf9eb755d32" style="stroke:#ffffff;stroke-width:0.8;"/>
      </defs>
      <g>
       <use style="fill:#ffffff;stroke:#ffffff;stroke-width:0.8;" x="161.509091" xlink:href="#mf9eb755d32" y="504"/>
      </g>
     </g>
     <g id="text_1">
      <!-- 0 -->
      <g style="fill:#ffffff;" transform="translate(158.327841 518.598438)scale(0.1 -0.1)">
       <defs>
        <path d="M 2034 4250 
Q 1547 4250 1301 3770 
Q 1056 3291 1056 2328 
Q 1056 1369 1301 889 
Q 1547 409 2034 409 
Q 2525 409 2770 889 
Q 3016 1369 3016 2328 
Q 3016 3291 2770 3770 
Q 2525 4250 2034 4250 
z
M 2034 4750 
Q 2819 4750 3233 4129 
Q 3647 3509 3647 2328 
Q 3647 1150 3233 529 
Q 2819 -91 2034 -91 
Q 1250 -91 836 529 
Q 422 1150 422 2328 
Q 422 3509 836 4129 
Q 1250 4750 2034 4750 
z
" id="DejaVuSans-30" transform="scale(0.015625)"/>
       </defs>
       <use xlink:href="#DejaVuSans-30"/>
      </g>
     </g>
    </g>
    <g id="xtick_2">
     <g id="line2d_2">
      <g>
       <use style="fill:#ffffff;stroke:#ffffff;stroke-width:0.8;" x="255.998423" xlink:href="#mf9eb755d32" y="504"/>
      </g>
     </g>
     <g id="text_2">
      <!-- 250 -->
      <g style="fill:#ffffff;" transform="translate(246.454673 518.598438)scale(0.1 -0.1)">
       <defs>
        <path d="M 1228 531 
L 3431 531 
L 3431 0 
L 469 0 
L 469 531 
Q 828 903 1448 1529 
Q 2069 2156 2228 2338 
Q 2531 2678 2651 2914 
Q 2772 3150 2772 3378 
Q 2772 3750 2511 3984 
Q 2250 4219 1831 4219 
Q 1534 4219 1204 4116 
Q 875 4013 500 3803 
L 500 4441 
Q 881 4594 1212 4672 
Q 1544 4750 1819 4750 
Q 2544 4750 2975 4387 
Q 3406 4025 3406 3419 
Q 3406 3131 3298 2873 
Q 3191 2616 2906 2266 
Q 2828 2175 2409 1742 
Q 1991 1309 1228 531 
z
" id="DejaVuSans-32" transform="scale(0.015625)"/>
        <path d="M 691 4666 
L 3169 4666 
L 3169 4134 
L 1269 4134 
L 1269 2991 
Q 1406 3038 1543 3061 
Q 1681 3084 1819 3084 
Q 2600 3084 3056 2656 
Q 3513 2228 3513 1497 
Q 3513 744 3044 326 
Q 2575 -91 1722 -91 
Q 1428 -91 1123 -41 
Q 819 9 494 109 
L 494 744 
Q 775 591 1075 516 
Q 1375 441 1709 441 
Q 2250 441 2565 725 
Q 2881 1009 2881 1497 
Q 2881 1984 2565 2268 
Q 2250 2553 1709 2553 
Q 1456 2553 1204 2497 
Q 953 2441 691 2322 
L 691 4666 
z
" id="DejaVuSans-35" transform="scale(0.015625)"/>
       </defs>
       <use xlink:href="#DejaVuSans-32"/>
       <use x="63.623047" xlink:href="#DejaVuSans-35"/>
       <use x="127.246094" xlink:href="#DejaVuSans-30"/>
      </g>
     </g>
    </g>
    <g id="xtick_3">
     <g id="line2d_3">
      <g>
       <use style="fill:#ffffff;stroke:#ffffff;stroke-width:0.8;" x="350.487755" xlink:href="#mf9eb755d32" y="504"/>
      </g>
     </g>
     <g id="text_3">
      <!-- 500 -->
      <g style="fill:#ffffff;" transform="translate(340.944005 518.598438)scale(0.1 -0.1)">
       <use xlink:href="#DejaVuSans-35"/>
       <use x="63.623047" xlink:href="#DejaVuSans-30"/>
       <use x="127.246094" xlink:href="#DejaVuSans-30"/>
      </g>
     </g>
    </g>
    <g id="xtick_4">
     <g id="line2d_4">
      <g>
       <use style="fill:#ffffff;stroke:#ffffff;stroke-width:0.8;" x="444.977086" xlink:href="#mf9eb755d32" y="504"/>
      </g>
     </g>
     <g id="text_4">
      <!-- 750 -->
      <g style="fill:#ffffff;" transform="translate(435.433336 518.598438)scale(0.1 -0.1)">
       <defs>
        <path d="M 525 4666 
L 3525 4666 
L 3525 4397 
L 1831 0 
L 1172 0 
L 2766 4134 
L 525 4134 
L 525 4666 
z
" id="DejaVuSans-37" transform="scale(0.015625)"/>
       </defs>
       <use xlink:href="#DejaVuSans-37"/>
       <use x="63.623047" xlink:href="#DejaVuSans-35"/>
       <use x="127.246094" xlink:href="#DejaVuSans-30"/>
      </g>
     </g>
    </g>
    <g id="xtick_5">
     <g id="line2d_5">
      <g>
       <use style="fill:#ffffff;stroke:#ffffff;stroke-width:0.8;" x="539.466418" xlink:href="#mf9eb755d32" y="504"/>
      </g>
     </g>
     <g id="text_5">
      <!-- 1000 -->
      <g style="fill:#ffffff;" transform="translate(526.741418 518.598438)scale(0.1 -0.1)">
       <defs>
        <path d="M 794 531 
L 1825 531 
L 1825 4091 
L 703 3866 
L 703 4441 
L 1819 4666 
L 2450 4666 
L 2450 531 
L 3481 531 
L 3481 0 
L 794 0 
L 794 531 
z
" id="DejaVuSans-31" transform="scale(0.015625)"/>
       </defs>
       <use xlink:href="#DejaVuSans-31"/>
       <use x="63.623047" xlink:href="#DejaVuSans-30"/>
       <use x="127.246094" xlink:href="#DejaVuSans-30"/>
       <use x="190.869141" xlink:href="#DejaVuSans-30"/>
      </g>
     </g>
    </g>
    <g id="xtick_6">
     <g id="line2d_6">
      <g>
       <use style="fill:#ffffff;stroke:#ffffff;stroke-width:0.8;" x="633.95575" xlink:href="#mf9eb755d32" y="504"/>
      </g>
     </g>
     <g id="text_6">
      <!-- 1250 -->
      <g style="fill:#ffffff;" transform="translate(621.23075 518.598438)scale(0.1 -0.1)">
       <use xlink:href="#DejaVuSans-31"/>
       <use x="63.623047" xlink:href="#DejaVuSans-32"/>
       <use x="127.246094" xlink:href="#DejaVuSans-35"/>
       <use x="190.869141" xlink:href="#DejaVuSans-30"/>
      </g>
     </g>
    </g>
    <g id="xtick_7">
     <g id="line2d_7">
      <g>
       <use style="fill:#ffffff;stroke:#ffffff;stroke-width:0.8;" x="728.445082" xlink:href="#mf9eb755d32" y="504"/>
      </g>
     </g>
     <g id="text_7">
      <!-- 1500 -->
      <g style="fill:#ffffff;" transform="translate(715.720082 518.598438)scale(0.1 -0.1)">
       <use xlink:href="#DejaVuSans-31"/>
       <use x="63.623047" xlink:href="#DejaVuSans-35"/>
       <use x="127.246094" xlink:href="#DejaVuSans-30"/>
       <use x="190.869141" xlink:href="#DejaVuSans-30"/>
      </g>
     </g>
    </g>
    <g id="xtick_8">
     <g id="line2d_8">
      <g>
       <use style="fill:#ffffff;stroke:#ffffff;stroke-width:0.8;" x="822.934414" xlink:href="#mf9eb755d32" y="504"/>
      </g>
     </g>
     <g id="text_8">
      <!-- 1750 -->
      <g style="fill:#ffffff;" transform="translate(810.209414 518.598438)scale(0.1 -0.1)">
       <use xlink:href="#DejaVuSans-31"/>
       <use x="63.623047" xlink:href="#DejaVuSans-37"/>
       <use x="127.246094" xlink:href="#DejaVuSans-35"/>
       <use x="190.869141" xlink:href="#DejaVuSans-30"/>
      </g>
     </g>
    </g>
    <g id="text_9">
     <!-- iteration -->
     <g style="fill:#ffffff;" transform="translate(495.477344 532.276562)scale(0.1 -0.1)">
      <defs>
       <path d="M 603 3500 
L 1178 3500 
L 1178 0 
L 603 0 
L 603 3500 
z
M 603 4863 
L 1178 4863 
L 1178 4134 
L 603 4134 
L 603 4863 
z
" id="DejaVuSans-69" transform="scale(0.015625)"/>
       <path d="M 1172 4494 
L 1172 3500 
L 2356 3500 
L 2356 3053 
L 1172 3053 
L 1172 1153 
Q 1172 725 1289 603 
Q 1406 481 1766 481 
L 2356 481 
L 2356 0 
L 1766 0 
Q 1100 0 847 248 
Q 594 497 594 1153 
L 594 3053 
L 172 3053 
L 172 3500 
L 594 3500 
L 594 4494 
L 1172 4494 
z
" id="DejaVuSans-74" transform="scale(0.015625)"/>
       <path d="M 3597 1894 
L 3597 1613 
L 953 1613 
Q 991 1019 1311 708 
Q 1631 397 2203 397 
Q 2534 397 2845 478 
Q 3156 559 3463 722 
L 3463 178 
Q 3153 47 2828 -22 
Q 2503 -91 2169 -91 
Q 1331 -91 842 396 
Q 353 884 353 1716 
Q 353 2575 817 3079 
Q 1281 3584 2069 3584 
Q 2775 3584 3186 3129 
Q 3597 2675 3597 1894 
z
M 3022 2063 
Q 3016 2534 2758 2815 
Q 2500 3097 2075 3097 
Q 1594 3097 1305 2825 
Q 1016 2553 972 2059 
L 3022 2063 
z
" id="DejaVuSans-65" transform="scale(0.015625)"/>
       <path d="M 2631 2963 
Q 2534 3019 2420 3045 
Q 2306 3072 2169 3072 
Q 1681 3072 1420 2755 
Q 1159 2438 1159 1844 
L 1159 0 
L 581 0 
L 581 3500 
L 1159 3500 
L 1159 2956 
Q 1341 3275 1631 3429 
Q 1922 3584 2338 3584 
Q 2397 3584 2469 3576 
Q 2541 3569 2628 3553 
L 2631 2963 
z
" id="DejaVuSans-72" transform="scale(0.015625)"/>
       <path d="M 2194 1759 
Q 1497 1759 1228 1600 
Q 959 1441 959 1056 
Q 959 750 1161 570 
Q 1363 391 1709 391 
Q 2188 391 2477 730 
Q 2766 1069 2766 1631 
L 2766 1759 
L 2194 1759 
z
M 3341 1997 
L 3341 0 
L 2766 0 
L 2766 531 
Q 2569 213 2275 61 
Q 1981 -91 1556 -91 
Q 1019 -91 701 211 
Q 384 513 384 1019 
Q 384 1609 779 1909 
Q 1175 2209 1959 2209 
L 2766 2209 
L 2766 2266 
Q 2766 2663 2505 2880 
Q 2244 3097 1772 3097 
Q 1472 3097 1187 3025 
Q 903 2953 641 2809 
L 641 3341 
Q 956 3463 1253 3523 
Q 1550 3584 1831 3584 
Q 2591 3584 2966 3190 
Q 3341 2797 3341 1997 
z
" id="DejaVuSans-61" transform="scale(0.015625)"/>
       <path d="M 1959 3097 
Q 1497 3097 1228 2736 
Q 959 2375 959 1747 
Q 959 1119 1226 758 
Q 1494 397 1959 397 
Q 2419 397 2687 759 
Q 2956 1122 2956 1747 
Q 2956 2369 2687 2733 
Q 2419 3097 1959 3097 
z
M 1959 3584 
Q 2709 3584 3137 3096 
Q 3566 2609 3566 1747 
Q 3566 888 3137 398 
Q 2709 -91 1959 -91 
Q 1206 -91 779 398 
Q 353 888 353 1747 
Q 353 2609 779 3096 
Q 1206 3584 1959 3584 
z
" id="DejaVuSans-6f" transform="scale(0.015625)"/>
       <path d="M 3513 2113 
L 3513 0 
L 2938 0 
L 2938 2094 
Q 2938 2591 2744 2837 
Q 2550 3084 2163 3084 
Q 1697 3084 1428 2787 
Q 1159 2491 1159 1978 
L 1159 0 
L 581 0 
L 581 3500 
L 1159 3500 
L 1159 2956 
Q 1366 3272 1645 3428 
Q 1925 3584 2291 3584 
Q 2894 3584 3203 3211 
Q 3513 2838 3513 2113 
z
" id="DejaVuSans-6e" transform="scale(0.015625)"/>
      </defs>
      <use xlink:href="#DejaVuSans-69"/>
      <use x="27.783203" xlink:href="#DejaVuSans-74"/>
      <use x="66.992188" xlink:href="#DejaVuSans-65"/>
      <use x="128.515625" xlink:href="#DejaVuSans-72"/>
      <use x="169.628906" xlink:href="#DejaVuSans-61"/>
      <use x="230.908203" xlink:href="#DejaVuSans-74"/>
      <use x="270.117188" xlink:href="#DejaVuSans-69"/>
      <use x="297.900391" xlink:href="#DejaVuSans-6f"/>
      <use x="359.082031" xlink:href="#DejaVuSans-6e"/>
     </g>
    </g>
   </g>
   <g id="matplotlib.axis_2">
    <g id="ytick_1">
     <g id="line2d_9">
      <defs>
       <path d="M 0 0 
L -3.5 0 
" id="m654035b2e3" style="stroke:#ffffff;stroke-width:0.8;"/>
      </defs>
      <g>
       <use style="fill:#ffffff;stroke:#ffffff;stroke-width:0.8;" x="126" xlink:href="#m654035b2e3" y="484.232727"/>
      </g>
     </g>
     <g id="text_10">
      <!-- 0 -->
      <g style="fill:#ffffff;" transform="translate(112.6375 488.031946)scale(0.1 -0.1)">
       <use xlink:href="#DejaVuSans-30"/>
      </g>
     </g>
    </g>
    <g id="ytick_2">
     <g id="line2d_10">
      <g>
       <use style="fill:#ffffff;stroke:#ffffff;stroke-width:0.8;" x="126" xlink:href="#m654035b2e3" y="399.212199"/>
      </g>
     </g>
     <g id="text_11">
      <!-- 1000 -->
      <g style="fill:#ffffff;" transform="translate(93.55 403.011418)scale(0.1 -0.1)">
       <use xlink:href="#DejaVuSans-31"/>
       <use x="63.623047" xlink:href="#DejaVuSans-30"/>
       <use x="127.246094" xlink:href="#DejaVuSans-30"/>
       <use x="190.869141" xlink:href="#DejaVuSans-30"/>
      </g>
     </g>
    </g>
    <g id="ytick_3">
     <g id="line2d_11">
      <g>
       <use style="fill:#ffffff;stroke:#ffffff;stroke-width:0.8;" x="126" xlink:href="#m654035b2e3" y="314.191672"/>
      </g>
     </g>
     <g id="text_12">
      <!-- 2000 -->
      <g style="fill:#ffffff;" transform="translate(93.55 317.99089)scale(0.1 -0.1)">
       <use xlink:href="#DejaVuSans-32"/>
       <use x="63.623047" xlink:href="#DejaVuSans-30"/>
       <use x="127.246094" xlink:href="#DejaVuSans-30"/>
       <use x="190.869141" xlink:href="#DejaVuSans-30"/>
      </g>
     </g>
    </g>
    <g id="ytick_4">
     <g id="line2d_12">
      <g>
       <use style="fill:#ffffff;stroke:#ffffff;stroke-width:0.8;" x="126" xlink:href="#m654035b2e3" y="229.171144"/>
      </g>
     </g>
     <g id="text_13">
      <!-- 3000 -->
      <g style="fill:#ffffff;" transform="translate(93.55 232.970362)scale(0.1 -0.1)">
       <defs>
        <path d="M 2597 2516 
Q 3050 2419 3304 2112 
Q 3559 1806 3559 1356 
Q 3559 666 3084 287 
Q 2609 -91 1734 -91 
Q 1441 -91 1130 -33 
Q 819 25 488 141 
L 488 750 
Q 750 597 1062 519 
Q 1375 441 1716 441 
Q 2309 441 2620 675 
Q 2931 909 2931 1356 
Q 2931 1769 2642 2001 
Q 2353 2234 1838 2234 
L 1294 2234 
L 1294 2753 
L 1863 2753 
Q 2328 2753 2575 2939 
Q 2822 3125 2822 3475 
Q 2822 3834 2567 4026 
Q 2313 4219 1838 4219 
Q 1578 4219 1281 4162 
Q 984 4106 628 3988 
L 628 4550 
Q 988 4650 1302 4700 
Q 1616 4750 1894 4750 
Q 2613 4750 3031 4423 
Q 3450 4097 3450 3541 
Q 3450 3153 3228 2886 
Q 3006 2619 2597 2516 
z
" id="DejaVuSans-33" transform="scale(0.015625)"/>
       </defs>
       <use xlink:href="#DejaVuSans-33"/>
       <use x="63.623047" xlink:href="#DejaVuSans-30"/>
       <use x="127.246094" xlink:href="#DejaVuSans-30"/>
       <use x="190.869141" xlink:href="#DejaVuSans-30"/>
      </g>
     </g>
    </g>
    <g id="ytick_5">
     <g id="line2d_13">
      <g>
       <use style="fill:#ffffff;stroke:#ffffff;stroke-width:0.8;" x="126" xlink:href="#m654035b2e3" y="144.150616"/>
      </g>
     </g>
     <g id="text_14">
      <!-- 4000 -->
      <g style="fill:#ffffff;" transform="translate(93.55 147.949835)scale(0.1 -0.1)">
       <defs>
        <path d="M 2419 4116 
L 825 1625 
L 2419 1625 
L 2419 4116 
z
M 2253 4666 
L 3047 4666 
L 3047 1625 
L 3713 1625 
L 3713 1100 
L 3047 1100 
L 3047 0 
L 2419 0 
L 2419 1100 
L 313 1100 
L 313 1709 
L 2253 4666 
z
" id="DejaVuSans-34" transform="scale(0.015625)"/>
       </defs>
       <use xlink:href="#DejaVuSans-34"/>
       <use x="63.623047" xlink:href="#DejaVuSans-30"/>
       <use x="127.246094" xlink:href="#DejaVuSans-30"/>
       <use x="190.869141" xlink:href="#DejaVuSans-30"/>
      </g>
     </g>
    </g>
   </g>
   <g id="line2d_14">
    <path clip-path="url(#pa602ed19d3)" d="M 161.509091 302.033736 
L 161.887048 311.385994 
L 162.265006 417.916716 
L 162.642963 484.232727 
L 163.02092 434.495718 
L 163.398878 312.916364 
L 164.154792 312.916364 
L 164.53275 484.232727 
L 166.044579 484.232727 
L 166.422536 402.698041 
L 166.800493 231.381677 
L 167.178451 312.916364 
L 167.934365 312.916364 
L 168.312323 394.366029 
L 168.69028 336.126968 
L 169.068237 447.758921 
L 169.446195 402.698041 
L 169.824152 273.296798 
L 170.202109 281.79885 
L 170.580067 281.79885 
L 170.958024 331.535859 
L 171.335981 331.535859 
L 171.713939 281.203707 
L 172.091896 203.154862 
L 172.469853 203.154862 
L 172.847811 484.232727 
L 173.603725 314.106651 
L 173.981683 314.106651 
L 174.35964 232.571965 
L 174.737597 389.519859 
L 175.115555 389.519859 
L 175.493512 402.698041 
L 175.871469 484.232727 
L 177.005341 484.232727 
L 177.383299 302.033736 
L 178.139213 302.033736 
L 178.517171 484.232727 
L 178.895128 311.385994 
L 179.273085 484.232727 
L 180.029 203.154862 
L 180.406957 177.903765 
L 180.784915 203.154862 
L 181.162872 331.535859 
L 181.540829 309.685584 
L 183.052659 309.685584 
L 183.430616 312.916364 
L 183.808573 312.916364 
L 184.186531 394.366029 
L 184.564488 369.114933 
L 184.942445 377.446944 
L 185.320403 231.381677 
L 185.69836 484.232727 
L 186.076317 417.916716 
L 186.454275 417.916716 
L 186.832232 484.232727 
L 187.210189 394.366029 
L 187.588146 390.710147 
L 188.344061 390.710147 
L 188.722018 417.916716 
L 189.477933 417.916716 
L 189.85589 309.685584 
L 190.233848 389.859941 
L 190.611805 378.042088 
L 191.36772 378.042088 
L 191.745677 309.685584 
L 192.123634 309.685584 
L 192.501592 484.232727 
L 193.635464 312.576282 
L 194.013421 433.900575 
L 194.391378 309.685584 
L 194.769336 309.685584 
L 195.147293 484.232727 
L 195.52525 425.993666 
L 195.903208 484.232727 
L 196.281165 458.98163 
L 196.659122 458.98163 
L 197.03708 369.114933 
L 197.415037 458.98163 
L 197.792994 484.232727 
L 198.170952 473.265079 
L 198.548909 309.685584 
L 198.926866 389.859941 
L 199.304824 389.859941 
L 199.682781 484.232727 
L 200.060738 313.93661 
L 200.438696 384.928751 
L 200.816653 212.082018 
L 201.19461 311.385994 
L 201.572568 229.851308 
L 201.950525 229.851308 
L 202.328482 384.928751 
L 203.084397 384.928751 
L 203.462354 256.547754 
L 203.840312 256.547754 
L 204.218269 331.535859 
L 204.596226 203.154862 
L 204.974184 177.903765 
L 205.352141 177.903765 
L 205.730098 255.95261 
L 206.108056 484.232727 
L 206.486013 312.916364 
L 207.241928 312.916364 
L 207.619885 417.916716 
L 207.997842 484.232727 
L 208.3758 311.385994 
L 208.753757 261.648985 
L 209.131714 314.106651 
L 209.509671 314.106651 
L 209.887629 484.232727 
L 210.265586 312.916364 
L 210.643543 312.916364 
L 211.021501 484.232727 
L 211.399458 484.232727 
L 211.777415 390.115003 
L 212.155373 484.232727 
L 212.53333 331.535859 
L 212.911287 484.232727 
L 213.289245 389.859941 
L 213.667202 331.62088 
L 214.045159 389.859941 
L 214.423117 313.93661 
L 214.801074 312.916364 
L 215.179031 312.916364 
L 215.556989 384.928751 
L 215.934946 334.596598 
L 217.068818 334.596598 
L 217.446775 384.928751 
L 217.824733 484.232727 
L 218.20269 394.366029 
L 218.958605 394.366029 
L 219.336562 460.937103 
L 219.714519 484.232727 
L 220.092477 484.232727 
L 220.470434 331.535859 
L 220.848391 331.535859 
L 221.226349 394.366029 
L 221.982263 344.033877 
L 222.360221 344.033877 
L 222.738178 434.495718 
L 223.116135 434.495718 
L 223.494093 335.191742 
L 223.87205 384.928751 
L 224.250007 384.928751 
L 224.627965 326.689689 
L 225.005922 326.689689 
L 225.383879 309.685584 
L 225.761837 484.232727 
L 226.139794 484.232727 
L 226.517751 378.042088 
L 226.895709 378.042088 
L 227.273666 319.803026 
L 227.651623 326.689689 
L 228.029581 484.232727 
L 228.407538 484.232727 
L 228.785495 390.710147 
L 229.163453 378.042088 
L 229.54141 331.535859 
L 229.919367 484.232727 
L 230.297324 433.900575 
L 230.675282 484.232727 
L 231.053239 311.385994 
L 231.431196 286.134897 
L 232.565068 286.134897 
L 232.943026 272.956716 
L 233.320983 471.054545 
L 234.076898 471.054545 
L 234.832812 376.68176 
L 235.21077 421.147496 
L 235.588727 421.147496 
L 235.966684 369.455015 
L 236.344642 369.455015 
L 236.722599 407.28915 
L 237.100556 333.23627 
L 237.478514 333.23627 
L 237.856471 460.937103 
L 238.234428 484.232727 
L 238.612386 421.147496 
L 238.990343 484.232727 
L 239.3683 390.115003 
L 240.124215 276.697619 
L 240.502172 370.815343 
L 240.88013 389.859941 
L 241.258087 389.859941 
L 241.636044 484.232727 
L 242.014002 378.042088 
L 242.769916 378.042088 
L 243.147874 484.232727 
L 243.525831 312.916364 
L 243.903788 331.535859 
L 244.281746 484.232727 
L 244.659703 390.115003 
L 245.03766 207.916012 
L 245.415618 207.916012 
L 245.793575 434.495718 
L 246.171532 484.232727 
L 246.54949 473.265079 
L 247.305404 473.265079 
L 247.683362 376.256657 
L 248.061319 473.265079 
L 248.817234 473.265079 
L 249.195191 389.859941 
L 249.573148 460.937103 
L 249.951106 460.937103 
L 250.329063 390.710147 
L 250.70702 434.495718 
L 251.084978 409.244622 
L 251.462935 313.93661 
L 251.840892 471.054545 
L 252.218849 376.936821 
L 252.596807 325.24434 
L 252.974764 325.24434 
L 253.352721 419.362065 
L 253.730679 419.362065 
L 254.108636 471.054545 
L 254.486593 371.750569 
L 254.864551 371.750569 
L 255.242508 384.928751 
L 255.620465 371.750569 
L 255.998423 318.357677 
L 256.37638 331.535859 
L 256.754337 273.296798 
L 257.132295 425.993666 
L 257.510252 412.815484 
L 257.888209 484.232727 
L 258.266167 471.054545 
L 258.644124 471.054545 
L 259.022081 484.232727 
L 259.400039 394.366029 
L 259.777996 484.232727 
L 260.155953 421.147496 
L 260.533911 314.106651 
L 261.289825 314.106651 
L 261.667783 256.547754 
L 262.04574 484.232727 
L 262.423697 484.232727 
L 262.801655 433.900575 
L 263.179612 261.053842 
L 263.557569 261.053842 
L 263.935527 202.81478 
L 264.313484 253.146933 
L 264.691441 254.677302 
L 265.069399 323.798991 
L 265.447356 323.798991 
L 265.825313 417.916716 
L 266.203271 417.916716 
L 266.581228 289.535718 
L 266.959185 417.916716 
L 267.337143 359.677654 
L 267.7151 331.62088 
L 268.093057 331.62088 
L 268.471015 290.811026 
L 268.848972 290.811026 
L 269.226929 300.248305 
L 269.604887 394.366029 
L 271.116716 394.366029 
L 271.494673 344.033877 
L 271.872631 344.033877 
L 272.250588 433.900575 
L 272.628545 382.208094 
L 273.006502 433.900575 
L 273.762417 309.685584 
L 274.518332 309.685584 
L 274.896289 460.937103 
L 275.274246 390.710147 
L 275.652204 390.710147 
L 276.030161 421.147496 
L 276.408118 370.815343 
L 276.786076 370.815343 
L 277.164033 484.232727 
L 277.54199 458.98163 
L 277.919948 309.685584 
L 278.297905 309.685584 
L 278.675862 432.540246 
L 279.431777 432.540246 
L 280.187692 382.803238 
L 280.943606 207.916012 
L 281.321564 484.232727 
L 281.699521 389.859941 
L 282.077478 469.269114 
L 282.455436 460.937103 
L 282.833393 473.265079 
L 283.21135 311.385994 
L 283.589308 261.053842 
L 284.345222 261.053842 
L 284.72318 484.232727 
L 285.101137 433.900575 
L 285.479094 339.78285 
L 285.857052 484.232727 
L 286.235009 394.366029 
L 286.612966 381.187848 
L 286.990924 381.187848 
L 287.368881 287.070123 
L 287.746838 287.070123 
L 288.502753 484.232727 
L 288.88071 302.033736 
L 289.258668 238.948504 
L 289.636625 302.033736 
L 290.014582 238.948504 
L 290.39254 469.269114 
L 290.770497 469.269114 
L 291.148454 484.232727 
L 291.904369 484.232727 
L 292.282326 309.685584 
L 292.660284 434.495718 
L 293.038241 484.232727 
L 293.416198 471.054545 
L 293.794155 390.710147 
L 294.172113 458.98163 
L 294.55007 276.782639 
L 294.928027 407.28915 
L 295.305985 394.366029 
L 295.683942 394.366029 
L 296.061899 421.147496 
L 296.439857 362.908434 
L 296.817814 425.993666 
L 297.195771 425.993666 
L 297.573729 375.661513 
L 297.951686 433.900575 
L 298.707601 484.232727 
L 299.085558 460.937103 
L 299.463515 484.232727 
L 299.841473 473.265079 
L 300.21943 473.265079 
L 300.597387 394.366029 
L 300.975345 394.366029 
L 301.353302 484.232727 
L 301.731259 484.232727 
L 302.109217 434.495718 
L 302.487174 434.495718 
L 302.865131 484.232727 
L 303.243089 394.366029 
L 303.621046 394.366029 
L 303.999003 484.232727 
L 304.376961 312.916364 
L 304.754918 312.916364 
L 305.132875 331.535859 
L 305.510833 312.916364 
L 305.88879 312.916364 
L 306.266747 311.385994 
L 306.644705 417.916716 
L 307.022662 417.916716 
L 307.400619 392.665619 
L 307.778577 392.665619 
L 308.156534 367.584563 
L 308.912449 367.584563 
L 309.290406 460.937103 
L 309.668363 378.042088 
L 310.046321 484.232727 
L 311.180193 484.232727 
L 311.55815 390.115003 
L 311.936107 261.734006 
L 312.314065 261.734006 
L 312.692022 203.494944 
L 313.447937 340.377994 
L 313.825894 484.232727 
L 314.203851 394.366029 
L 314.581809 484.232727 
L 314.959766 390.115003 
L 315.337723 390.115003 
L 315.71568 484.232727 
L 316.093638 389.859941 
L 316.471595 389.859941 
L 316.849552 460.937103 
L 317.22751 433.900575 
L 317.605467 367.584563 
L 317.983424 484.232727 
L 318.361382 302.033736 
L 318.739339 314.106651 
L 319.117296 314.106651 
L 319.495254 263.774499 
L 319.873211 263.774499 
L 320.251168 484.232727 
L 320.629126 484.232727 
L 321.007083 469.269114 
L 321.762998 469.269114 
L 322.140955 390.710147 
L 322.518912 484.232727 
L 322.89687 309.685584 
L 323.274827 309.685584 
L 323.652784 390.710147 
L 324.408699 390.710147 
L 324.786656 384.928751 
L 325.164614 484.232727 
L 325.542571 433.900575 
L 325.920528 367.584563 
L 326.298486 484.232727 
L 326.676443 331.535859 
L 327.0544 484.232727 
L 327.810315 311.385994 
L 328.188272 311.385994 
L 328.56623 312.916364 
L 328.944187 312.916364 
L 329.322144 218.798639 
L 329.700102 295.742217 
L 330.456016 295.742217 
L 330.833974 237.418135 
L 331.589888 237.418135 
L 331.967846 207.916012 
L 332.345803 390.115003 
L 333.101718 109.037138 
L 333.479675 248.555824 
L 333.857632 248.555824 
L 334.23559 404.738534 
L 334.613547 471.054545 
L 334.991504 313.93661 
L 335.747419 313.93661 
L 336.125376 309.685584 
L 336.503333 309.685584 
L 336.881291 425.993666 
L 337.259248 336.126968 
L 337.637205 394.366029 
L 338.015163 300.248305 
L 338.39312 242.009243 
L 338.771077 242.009243 
L 339.149035 336.126968 
L 339.526992 242.009243 
L 339.904949 300.248305 
L 340.282907 394.366029 
L 341.038821 394.366029 
L 341.416779 371.750569 
L 341.794736 484.232727 
L 342.172693 484.232727 
L 342.550651 471.054545 
L 342.928608 471.054545 
L 343.306565 420.722393 
L 343.684523 288.855554 
L 344.06248 484.232727 
L 344.440437 402.698041 
L 344.818395 231.381677 
L 345.196352 312.916364 
L 345.574309 299.738182 
L 345.952267 407.969314 
L 346.330224 460.937103 
L 346.708181 309.685584 
L 347.086139 384.928751 
L 347.464096 484.232727 
L 347.842053 484.232727 
L 348.220011 309.685584 
L 348.597968 421.147496 
L 348.975925 394.366029 
L 349.353883 344.033877 
L 349.73184 381.187848 
L 350.109797 322.948786 
L 350.487755 336.126968 
L 351.243669 336.126968 
L 351.621627 473.265079 
L 351.999584 473.265079 
L 352.377541 469.269114 
L 352.755499 484.232727 
L 353.133456 484.232727 
L 353.511413 402.698041 
L 353.889371 402.698041 
L 354.267328 308.580317 
L 354.645285 402.698041 
L 355.023243 377.446944 
L 355.4012 312.916364 
L 355.779157 312.916364 
L 356.157115 184.535367 
L 356.535072 355.85173 
L 356.913029 185.725654 
L 357.290987 185.725654 
L 357.668944 289.535718 
L 358.046901 292.766499 
L 358.424858 355.85173 
L 358.802816 484.232727 
L 359.180773 484.232727 
L 359.936688 256.547754 
L 360.314645 484.232727 
L 360.692602 473.265079 
L 361.07056 390.710147 
L 361.448517 355.85173 
L 361.826474 355.85173 
L 362.204432 390.710147 
L 362.582389 384.928751 
L 362.960346 256.547754 
L 363.338304 484.232727 
L 363.716261 458.98163 
L 364.094218 407.28915 
L 364.472176 313.171425 
L 364.850133 309.685584 
L 365.606048 309.685584 
L 365.984005 384.928751 
L 366.361962 335.191742 
L 366.73992 335.191742 
L 367.117877 434.495718 
L 367.495834 469.269114 
L 367.873792 355.85173 
L 368.251749 355.85173 
L 368.629706 484.232727 
L 369.007664 389.859941 
L 369.385621 417.916716 
L 369.763578 311.385994 
L 370.141536 261.053842 
L 370.519493 484.232727 
L 370.89745 311.385994 
L 371.275408 484.232727 
L 371.653365 312.916364 
L 372.031322 484.232727 
L 372.40928 484.232727 
L 372.787237 389.859941 
L 373.165194 460.937103 
L 373.921109 300.248305 
L 374.299066 300.248305 
L 374.677024 237.418135 
L 375.054981 237.418135 
L 375.810896 331.535859 
L 376.188853 302.033736 
L 376.56681 302.033736 
L 376.944768 207.916012 
L 377.322725 290.811026 
L 377.700682 283.924364 
L 378.07864 378.042088 
L 378.456597 314.106651 
L 378.834554 314.106651 
L 379.212511 185.725654 
L 379.590469 185.725654 
L 379.968426 314.106651 
L 380.346383 232.571965 
L 380.724341 402.698041 
L 381.102298 313.93661 
L 381.480255 313.93661 
L 381.858213 331.535859 
L 382.23617 484.232727 
L 382.614127 390.115003 
L 382.992085 390.115003 
L 383.370042 219.818886 
L 383.747999 390.115003 
L 384.125957 308.580317 
L 384.503914 202.389677 
L 384.881871 296.507402 
L 385.259829 229.851308 
L 385.637786 296.507402 
L 386.015743 202.389677 
L 386.393701 389.519859 
L 386.771658 336.382029 
L 387.149615 390.710147 
L 387.527573 312.916364 
L 387.90553 312.916364 
L 388.283487 311.385994 
L 388.661445 259.693513 
L 389.039402 484.232727 
L 389.417359 473.265079 
L 389.795317 422.932927 
L 390.173274 473.265079 
L 390.551231 384.163566 
L 390.929189 420.722393 
L 391.307146 420.722393 
L 391.685103 262.584211 
L 392.063061 327.709935 
L 392.441018 269.470874 
L 392.818975 294.55193 
L 393.196933 350.410416 
L 393.57489 294.55193 
L 393.952847 352.790991 
L 394.330805 352.790991 
L 394.708762 458.98163 
L 395.086719 458.98163 
L 395.464677 395.896399 
L 395.842634 484.232727 
L 396.220591 355.85173 
L 396.976506 355.85173 
L 397.354463 330.600633 
L 397.732421 458.98163 
L 398.110378 243.794674 
L 398.488335 378.042088 
L 398.866293 394.366029 
L 399.24425 484.232727 
L 399.622207 378.042088 
L 400.000164 484.232727 
L 400.378122 484.232727 
L 401.134036 313.93661 
L 401.511994 219.818886 
L 401.889951 390.115003 
L 402.267908 484.232727 
L 402.645866 484.232727 
L 403.023823 311.385994 
L 403.40178 311.385994 
L 403.779738 484.232727 
L 404.157695 445.803449 
L 404.535652 458.98163 
L 404.91361 407.28915 
L 405.291567 313.93661 
L 406.425439 313.93661 
L 406.803396 484.232727 
L 407.181354 338.422522 
L 408.693183 338.422522 
L 409.07114 378.042088 
L 409.449098 378.042088 
L 409.827055 327.709935 
L 410.205012 484.232727 
L 410.58297 313.93661 
L 410.960927 331.535859 
L 411.338884 281.79885 
L 411.716842 331.535859 
L 412.094799 331.535859 
L 412.472756 281.79885 
L 412.850714 312.916364 
L 413.228671 231.381677 
L 413.606628 312.916364 
L 413.984586 421.147496 
L 414.362543 421.147496 
L 414.7405 238.948504 
L 415.118458 421.147496 
L 415.496415 421.147496 
L 415.874372 362.908434 
L 416.25233 484.232727 
L 417.008244 369.455015 
L 418.142116 369.455015 
L 418.520074 421.147496 
L 419.275988 421.147496 
L 419.653946 484.232727 
L 420.031903 390.710147 
L 420.40986 471.054545 
L 420.787818 484.232727 
L 421.165775 484.232727 
L 421.543732 460.937103 
L 421.921689 460.937103 
L 422.299647 434.495718 
L 422.677604 261.648985 
L 423.055561 484.232727 
L 423.433519 309.685584 
L 424.189433 309.685584 
L 424.567391 434.495718 
L 424.945348 376.256657 
L 425.323305 374.301185 
L 425.701263 374.301185 
L 426.07922 484.232727 
L 426.457177 484.232727 
L 426.835135 390.710147 
L 427.213092 433.900575 
L 427.591049 327.709935 
L 427.969007 314.106651 
L 428.346964 314.106651 
L 428.724921 185.725654 
L 429.102879 185.725654 
L 429.480836 255.867589 
L 429.858793 242.689408 
L 430.236751 255.867589 
L 430.614708 309.685584 
L 430.992665 469.269114 
L 431.370623 484.232727 
L 431.74858 484.232727 
L 432.126537 432.540246 
L 432.504495 484.232727 
L 432.882452 469.269114 
L 433.260409 417.916716 
L 433.638367 417.916716 
L 434.016324 384.928751 
L 434.394281 326.689689 
L 434.772239 326.689689 
L 435.150196 245.155003 
L 435.528153 333.491331 
L 435.906111 333.491331 
L 436.284068 319.207883 
L 436.662025 390.710147 
L 437.039983 355.85173 
L 437.41794 355.85173 
L 437.795897 203.154862 
L 438.173855 331.535859 
L 438.551812 158.689126 
L 438.929769 311.385994 
L 439.307727 311.385994 
L 439.685684 248.300762 
L 440.063641 484.232727 
L 440.441599 384.928751 
L 440.819556 484.232727 
L 441.197513 471.054545 
L 441.575471 421.317537 
L 441.953428 471.054545 
L 442.331385 300.928469 
L 443.0873 300.928469 
L 443.465257 484.232727 
L 443.843214 484.232727 
L 444.221172 331.535859 
L 444.599129 484.232727 
L 444.977086 425.993666 
L 445.355044 484.232727 
L 446.110958 460.086897 
L 446.488916 469.269114 
L 446.866873 417.916716 
L 447.24483 484.232727 
L 447.622788 484.232727 
L 448.000745 384.928751 
L 448.378702 212.082018 
L 449.512574 484.232727 
L 449.890532 312.916364 
L 450.268489 432.540246 
L 450.646446 432.540246 
L 451.024404 309.685584 
L 451.402361 484.232727 
L 451.780318 314.106651 
L 452.536233 314.106651 
L 452.91419 263.774499 
L 453.292148 484.232727 
L 453.670105 425.993666 
L 454.048062 425.993666 
L 454.42602 254.677302 
L 454.803977 312.916364 
L 455.181934 312.916364 
L 455.559892 484.232727 
L 455.937849 425.993666 
L 456.315806 402.698041 
L 456.693764 312.916364 
L 457.071721 312.916364 
L 457.449678 484.232727 
L 457.827636 421.147496 
L 458.58355 421.147496 
L 458.961508 292.766499 
L 459.339465 292.766499 
L 459.717422 378.042088 
L 460.473337 378.042088 
L 460.851294 249.661091 
L 461.607209 484.232727 
L 461.985166 433.900575 
L 462.363124 433.900575 
L 462.741081 309.685584 
L 464.25291 309.685584 
L 464.630867 484.232727 
L 465.008825 432.540246 
L 465.386782 484.232727 
L 465.764739 484.232727 
L 466.142697 309.685584 
L 466.520654 309.685584 
L 467.276569 484.232727 
L 467.654526 484.232727 
L 468.032483 421.147496 
L 468.410441 312.916364 
L 468.788398 314.106651 
L 469.166355 384.928751 
L 469.92227 384.928751 
L 470.300227 290.811026 
L 470.678185 290.811026 
L 471.056142 335.191742 
L 471.434099 314.106651 
L 471.812057 263.774499 
L 472.567971 263.774499 
L 473.323886 484.232727 
L 473.701843 384.928751 
L 474.079801 484.232727 
L 474.457758 394.366029 
L 474.835715 265.985032 
L 475.213673 394.366029 
L 475.59163 484.232727 
L 475.969587 471.054545 
L 476.347545 484.232727 
L 477.103459 384.163566 
L 477.481417 384.163566 
L 477.859374 352.961032 
L 478.237331 484.232727 
L 478.615289 313.93661 
L 478.993246 331.535859 
L 479.749161 331.535859 
L 480.127118 281.203707 
L 480.505075 281.203707 
L 480.883033 382.208094 
L 481.26099 382.208094 
L 481.638947 419.362065 
L 482.016905 394.110968 
L 482.394862 407.28915 
L 482.772819 458.98163 
L 483.150777 359.677654 
L 483.528734 359.677654 
L 483.906691 309.685584 
L 484.662606 309.685584 
L 485.040563 384.928751 
L 485.41852 484.232727 
L 485.796478 484.232727 
L 486.174435 473.265079 
L 486.93035 473.265079 
L 487.308307 484.232727 
L 487.686264 390.115003 
L 488.064222 237.418135 
L 488.442179 237.418135 
L 488.820136 390.115003 
L 489.198094 484.232727 
L 489.576051 378.042088 
L 490.331966 378.042088 
L 490.709923 352.790991 
L 491.08788 378.042088 
L 491.465838 390.710147 
L 491.843795 378.042088 
L 492.221752 421.147496 
L 492.59971 407.969314 
L 492.977667 407.969314 
L 493.355624 371.410487 
L 493.733582 484.232727 
L 494.489496 314.106651 
L 494.867454 314.106651 
L 495.245411 434.495718 
L 495.623368 484.232727 
L 496.001326 378.042088 
L 496.379283 378.042088 
L 496.75724 352.790991 
L 497.513155 352.790991 
L 497.891112 378.042088 
L 498.26907 434.495718 
L 498.647027 371.410487 
L 499.024984 421.147496 
L 499.402942 248.300762 
L 499.780899 394.366029 
L 500.158856 265.985032 
L 500.536814 300.248305 
L 500.914771 300.248305 
L 501.292728 308.580317 
L 501.670686 245.495085 
L 502.4266 245.495085 
L 502.804558 460.937103 
L 503.560472 460.937103 
L 503.93843 384.928751 
L 504.316387 384.928751 
L 504.694344 484.232727 
L 505.072302 484.232727 
L 505.450259 312.916364 
L 505.828216 473.265079 
L 506.962088 473.265079 
L 507.340045 484.232727 
L 508.09596 484.232727 
L 508.473917 421.147496 
L 508.851875 460.937103 
L 509.607789 460.937103 
L 509.985747 434.495718 
L 510.363704 434.495718 
L 511.119619 325.924504 
L 511.497576 363.078475 
L 511.875533 421.317537 
L 512.253491 318.357677 
L 512.631448 281.79885 
L 513.009405 484.232727 
L 513.387363 458.98163 
L 513.76532 390.710147 
L 514.143277 484.232727 
L 514.521235 331.535859 
L 514.899192 302.033736 
L 515.277149 302.033736 
L 515.655107 276.782639 
L 516.033064 302.033736 
L 516.411021 302.033736 
L 516.788979 313.93661 
L 517.166936 384.928751 
L 517.544893 326.689689 
L 517.922851 402.698041 
L 518.300808 255.867589 
L 518.678765 255.867589 
L 519.056723 312.916364 
L 519.43468 312.916364 
L 519.812637 460.937103 
L 520.190595 484.232727 
L 520.568552 458.98163 
L 520.946509 306.284762 
L 521.324467 458.98163 
L 521.702424 364.608845 
L 522.080381 389.859941 
L 522.458339 484.232727 
L 522.836296 473.265079 
L 523.214253 473.265079 
L 523.592211 460.937103 
L 523.970168 435.686006 
L 524.348125 313.93661 
L 525.481997 313.93661 
L 525.859955 255.697548 
L 526.237912 273.296798 
L 526.615869 273.296798 
L 526.993827 255.867589 
L 528.127698 255.867589 
L 528.505656 389.859941 
L 528.883613 394.366029 
L 529.26157 300.248305 
L 529.639528 300.248305 
L 530.017485 309.685584 
L 531.907272 309.685584 
L 532.285229 417.916716 
L 532.663186 484.232727 
L 533.041144 421.147496 
L 533.419101 421.147496 
L 533.797058 484.232727 
L 534.175016 484.232727 
L 534.552973 302.033736 
L 534.93093 238.948504 
L 535.308888 302.033736 
L 535.686845 302.033736 
L 536.064802 313.93661 
L 536.44276 355.85173 
L 536.820717 309.685584 
L 537.198674 484.232727 
L 537.576632 484.232727 
L 537.954589 460.937103 
L 538.332546 366.819378 
L 538.710504 390.115003 
L 539.088461 364.863906 
L 539.466418 364.863906 
L 539.844376 353.896258 
L 540.222333 311.385994 
L 540.60029 484.232727 
L 540.978248 384.928751 
L 541.734162 384.928751 
L 542.11212 303.394065 
L 542.490077 384.928751 
L 542.868034 212.082018 
L 543.245992 212.082018 
L 543.623949 384.928751 
L 544.379864 384.928751 
L 544.757821 334.596598 
L 545.135778 433.900575 
L 545.513736 327.709935 
L 545.891693 433.900575 
L 546.26965 305.519578 
L 546.647608 305.519578 
L 547.025565 292.766499 
L 547.403522 249.661091 
L 548.159437 249.661091 
L 548.537394 378.042088 
L 548.915351 378.042088 
L 549.293309 327.709935 
L 549.671266 327.709935 
L 550.049223 484.232727 
L 551.183095 484.232727 
L 551.561053 460.937103 
L 551.93901 390.710147 
L 553.072882 390.710147 
L 553.450839 484.232727 
L 553.828797 484.232727 
L 554.206754 390.710147 
L 554.584711 390.710147 
L 554.962669 484.232727 
L 555.340626 313.93661 
L 555.718583 421.147496 
L 556.096541 421.147496 
L 556.474498 473.265079 
L 556.852455 390.710147 
L 557.230413 417.916716 
L 557.60837 417.916716 
L 557.986327 434.495718 
L 558.364285 469.269114 
L 559.120199 469.269114 
L 559.498157 484.232727 
L 559.876114 384.928751 
L 560.254071 384.928751 
L 560.632029 484.232727 
L 561.387943 313.93661 
L 564.033645 313.93661 
L 564.411602 219.818886 
L 564.789559 219.818886 
L 565.167517 219.988927 
L 565.545474 314.106651 
L 565.923431 314.106651 
L 566.301389 300.928469 
L 566.679346 275.677372 
L 567.057303 300.928469 
L 567.435261 300.928469 
L 567.813218 309.685584 
L 568.191175 309.685584 
L 568.569133 484.232727 
L 568.94709 312.916364 
L 569.325047 309.685584 
L 569.703004 309.685584 
L 570.080962 425.993666 
L 570.458919 273.296798 
L 570.836876 273.296798 
L 571.214834 281.79885 
L 572.348706 281.79885 
L 572.726663 318.357677 
L 573.10462 318.357677 
L 573.482578 293.106581 
L 573.860535 293.106581 
L 574.238492 318.357677 
L 574.61645 299.738182 
L 574.994407 312.916364 
L 577.640108 312.916364 
L 578.018066 378.042088 
L 579.907852 378.042088 
L 580.28581 313.93661 
L 580.663767 313.93661 
L 581.041724 314.106651 
L 581.797639 314.106651 
L 582.175596 219.988927 
L 582.931511 219.988927 
L 583.687426 432.540246 
L 584.065383 374.301185 
L 584.44334 390.710147 
L 584.821298 389.859941 
L 585.199255 389.859941 
L 585.577212 355.85173 
L 587.089042 355.85173 
L 587.466999 304.159249 
L 587.844956 304.159249 
L 588.222914 355.85173 
L 588.600871 289.535718 
L 590.1127 289.535718 
L 590.490658 355.85173 
L 590.868615 305.519578 
L 592.758401 305.519578 
L 593.136359 355.85173 
L 593.514316 203.154862 
L 596.537975 203.154862 
L 596.915932 173.652739 
L 597.293889 173.652739 
L 597.671847 183.004997 
L 601.45142 183.004997 
L 601.829377 124.765935 
L 602.963249 124.765935 
L 603.341207 159.029208 
L 603.719164 145.851026 
L 605.608951 145.851026 
L 605.986908 159.029208 
L 609.010567 159.029208 
L 609.388524 124.765935 
L 612.034225 124.765935 
L 612.412182 88.887273 
L 871.690909 88.887273 
L 871.690909 88.887273 
" style="fill:none;stroke:#8dd3c7;stroke-linecap:square;stroke-width:1.5;"/>
   </g>
   <g id="line2d_15">
    <path clip-path="url(#pa602ed19d3)" d="M 161.509091 302.033736 
L 166.422536 302.033736 
L 166.800493 231.381677 
L 171.713939 231.381677 
L 172.091896 203.154862 
L 180.029 203.154862 
L 180.406957 177.903765 
L 332.72376 177.903765 
L 333.101718 109.037138 
L 612.034225 109.037138 
L 612.412182 88.887273 
L 871.690909 88.887273 
L 871.690909 88.887273 
" style="fill:none;stroke:#feffb3;stroke-linecap:square;stroke-width:1.5;"/>
   </g>
   <g id="line2d_16">
    <path clip-path="url(#pa602ed19d3)" d="M 161.509091 356.693433 
L 164.910707 356.693433 
L 165.288664 368.888476 
L 168.69028 368.888476 
L 169.068237 379.917454 
L 172.469853 379.917454 
L 172.847811 389.891864 
L 176.249427 389.891864 
L 176.627384 398.912542 
L 180.029 398.912542 
L 180.406957 407.070681 
L 183.808573 407.070681 
L 184.186531 414.448755 
L 187.588146 414.448755 
L 187.966104 421.121354 
L 191.36772 421.121354 
L 191.745677 427.155933 
L 195.147293 427.155933 
L 195.52525 432.613497 
L 198.926866 432.613497 
L 199.304824 437.549221 
L 202.70644 437.549221 
L 203.084397 442.013001 
L 206.486013 442.013001 
L 206.86397 446.049964 
L 210.265586 446.049964 
L 210.643543 449.70092 
L 214.045159 449.70092 
L 214.423117 453.00278 
L 217.824733 453.00278 
L 218.20269 455.988923 
L 221.604306 455.988923 
L 221.982263 458.689537 
L 225.383879 458.689537 
L 225.761837 461.131924 
L 229.163453 461.131924 
L 229.54141 463.340774 
L 232.943026 463.340774 
L 233.320983 465.33842 
L 236.722599 465.33842 
L 237.100556 467.145054 
L 240.502172 467.145054 
L 240.88013 468.778942 
L 244.281746 468.778942 
L 244.659703 470.256601 
L 248.061319 470.256601 
L 248.439276 471.592969 
L 251.840892 471.592969 
L 252.218849 472.801557 
L 255.620465 472.801557 
L 255.998423 473.894581 
L 259.400039 473.894581 
L 259.777996 474.883093 
L 263.179612 474.883093 
L 263.557569 475.777086 
L 266.959185 475.777086 
L 267.337143 476.585597 
L 270.738759 476.585597 
L 271.116716 477.3168 
L 274.518332 477.3168 
L 274.896289 477.978086 
L 278.297905 477.978086 
L 278.675862 478.576142 
L 282.077478 478.576142 
L 282.455436 479.117013 
L 285.857052 479.117013 
L 286.235009 479.606167 
L 289.636625 479.606167 
L 290.014582 480.048549 
L 293.416198 480.048549 
L 293.794155 480.448632 
L 297.195771 480.448632 
L 297.573729 480.810459 
L 300.975345 480.810459 
L 301.353302 481.137689 
L 304.754918 481.137689 
L 305.132875 481.43363 
L 308.534491 481.43363 
L 308.912449 481.701274 
L 312.314065 481.701274 
L 312.692022 481.943326 
L 316.093638 481.943326 
L 316.471595 482.162234 
L 319.873211 482.162234 
L 320.251168 482.36021 
L 323.652784 482.36021 
L 324.030742 482.539257 
L 327.432358 482.539257 
L 327.810315 482.701183 
L 331.211931 482.701183 
L 331.589888 482.847626 
L 334.991504 482.847626 
L 335.369462 482.980066 
L 338.771077 482.980066 
L 339.149035 483.099843 
L 346.330224 483.208167 
L 347.086139 483.306134 
L 353.889371 483.394733 
L 354.645285 483.47486 
L 361.448517 483.547326 
L 362.204432 483.612862 
L 369.007664 483.672132 
L 370.141536 483.725735 
L 380.346383 483.818055 
L 381.480255 483.857705 
L 395.464677 483.955323 
L 397.354463 483.981848 
L 418.142116 484.080944 
L 421.165775 484.095457 
L 482.394862 484.205235 
L 499.780899 484.216094 
L 871.690909 484.232726 
L 871.690909 484.232726 
" style="fill:none;stroke:#bfbbd9;stroke-linecap:square;stroke-width:1.5;"/>
   </g>
   <g id="patch_3">
    <path d="M 126 504 
L 126 69.12 
" style="fill:none;stroke:#ffffff;stroke-linecap:square;stroke-linejoin:miter;stroke-width:0.8;"/>
   </g>
   <g id="patch_4">
    <path d="M 907.2 504 
L 907.2 69.12 
" style="fill:none;stroke:#ffffff;stroke-linecap:square;stroke-linejoin:miter;stroke-width:0.8;"/>
   </g>
   <g id="patch_5">
    <path d="M 126 504 
L 907.2 504 
" style="fill:none;stroke:#ffffff;stroke-linecap:square;stroke-linejoin:miter;stroke-width:0.8;"/>
   </g>
   <g id="patch_6">
    <path d="M 126 69.12 
L 907.2 69.12 
" style="fill:none;stroke:#ffffff;stroke-linecap:square;stroke-linejoin:miter;stroke-width:0.8;"/>
   </g>
   <g id="text_15">
    <!-- instance 6 with error 0.0 -->
    <g style="fill:#ffffff;" transform="translate(442.944375 63.12)scale(0.12 -0.12)">
     <defs>
      <path d="M 2834 3397 
L 2834 2853 
Q 2591 2978 2328 3040 
Q 2066 3103 1784 3103 
Q 1356 3103 1142 2972 
Q 928 2841 928 2578 
Q 928 2378 1081 2264 
Q 1234 2150 1697 2047 
L 1894 2003 
Q 2506 1872 2764 1633 
Q 3022 1394 3022 966 
Q 3022 478 2636 193 
Q 2250 -91 1575 -91 
Q 1294 -91 989 -36 
Q 684 19 347 128 
L 347 722 
Q 666 556 975 473 
Q 1284 391 1588 391 
Q 1994 391 2212 530 
Q 2431 669 2431 922 
Q 2431 1156 2273 1281 
Q 2116 1406 1581 1522 
L 1381 1569 
Q 847 1681 609 1914 
Q 372 2147 372 2553 
Q 372 3047 722 3315 
Q 1072 3584 1716 3584 
Q 2034 3584 2315 3537 
Q 2597 3491 2834 3397 
z
" id="DejaVuSans-73" transform="scale(0.015625)"/>
      <path d="M 3122 3366 
L 3122 2828 
Q 2878 2963 2633 3030 
Q 2388 3097 2138 3097 
Q 1578 3097 1268 2742 
Q 959 2388 959 1747 
Q 959 1106 1268 751 
Q 1578 397 2138 397 
Q 2388 397 2633 464 
Q 2878 531 3122 666 
L 3122 134 
Q 2881 22 2623 -34 
Q 2366 -91 2075 -91 
Q 1284 -91 818 406 
Q 353 903 353 1747 
Q 353 2603 823 3093 
Q 1294 3584 2113 3584 
Q 2378 3584 2631 3529 
Q 2884 3475 3122 3366 
z
" id="DejaVuSans-63" transform="scale(0.015625)"/>
      <path id="DejaVuSans-20" transform="scale(0.015625)"/>
      <path d="M 2113 2584 
Q 1688 2584 1439 2293 
Q 1191 2003 1191 1497 
Q 1191 994 1439 701 
Q 1688 409 2113 409 
Q 2538 409 2786 701 
Q 3034 994 3034 1497 
Q 3034 2003 2786 2293 
Q 2538 2584 2113 2584 
z
M 3366 4563 
L 3366 3988 
Q 3128 4100 2886 4159 
Q 2644 4219 2406 4219 
Q 1781 4219 1451 3797 
Q 1122 3375 1075 2522 
Q 1259 2794 1537 2939 
Q 1816 3084 2150 3084 
Q 2853 3084 3261 2657 
Q 3669 2231 3669 1497 
Q 3669 778 3244 343 
Q 2819 -91 2113 -91 
Q 1303 -91 875 529 
Q 447 1150 447 2328 
Q 447 3434 972 4092 
Q 1497 4750 2381 4750 
Q 2619 4750 2861 4703 
Q 3103 4656 3366 4563 
z
" id="DejaVuSans-36" transform="scale(0.015625)"/>
      <path d="M 269 3500 
L 844 3500 
L 1563 769 
L 2278 3500 
L 2956 3500 
L 3675 769 
L 4391 3500 
L 4966 3500 
L 4050 0 
L 3372 0 
L 2619 2869 
L 1863 0 
L 1184 0 
L 269 3500 
z
" id="DejaVuSans-77" transform="scale(0.015625)"/>
      <path d="M 3513 2113 
L 3513 0 
L 2938 0 
L 2938 2094 
Q 2938 2591 2744 2837 
Q 2550 3084 2163 3084 
Q 1697 3084 1428 2787 
Q 1159 2491 1159 1978 
L 1159 0 
L 581 0 
L 581 4863 
L 1159 4863 
L 1159 2956 
Q 1366 3272 1645 3428 
Q 1925 3584 2291 3584 
Q 2894 3584 3203 3211 
Q 3513 2838 3513 2113 
z
" id="DejaVuSans-68" transform="scale(0.015625)"/>
      <path d="M 684 794 
L 1344 794 
L 1344 0 
L 684 0 
L 684 794 
z
" id="DejaVuSans-2e" transform="scale(0.015625)"/>
     </defs>
     <use xlink:href="#DejaVuSans-69"/>
     <use x="27.783203" xlink:href="#DejaVuSans-6e"/>
     <use x="91.162109" xlink:href="#DejaVuSans-73"/>
     <use x="143.261719" xlink:href="#DejaVuSans-74"/>
     <use x="182.470703" xlink:href="#DejaVuSans-61"/>
     <use x="243.75" xlink:href="#DejaVuSans-6e"/>
     <use x="307.128906" xlink:href="#DejaVuSans-63"/>
     <use x="362.109375" xlink:href="#DejaVuSans-65"/>
     <use x="423.632812" xlink:href="#DejaVuSans-20"/>
     <use x="455.419922" xlink:href="#DejaVuSans-36"/>
     <use x="519.042969" xlink:href="#DejaVuSans-20"/>
     <use x="550.830078" xlink:href="#DejaVuSans-77"/>
     <use x="632.617188" xlink:href="#DejaVuSans-69"/>
     <use x="660.400391" xlink:href="#DejaVuSans-74"/>
     <use x="699.609375" xlink:href="#DejaVuSans-68"/>
     <use x="762.988281" xlink:href="#DejaVuSans-20"/>
     <use x="794.775391" xlink:href="#DejaVuSans-65"/>
     <use x="856.298828" xlink:href="#DejaVuSans-72"/>
     <use x="895.662109" xlink:href="#DejaVuSans-72"/>
     <use x="934.525391" xlink:href="#DejaVuSans-6f"/>
     <use x="995.707031" xlink:href="#DejaVuSans-72"/>
     <use x="1036.820312" xlink:href="#DejaVuSans-20"/>
     <use x="1068.607422" xlink:href="#DejaVuSans-30"/>
     <use x="1132.230469" xlink:href="#DejaVuSans-2e"/>
     <use x="1164.017578" xlink:href="#DejaVuSans-30"/>
    </g>
   </g>
   <g id="legend_1">
    <g id="patch_7">
     <path d="M 805.348438 499 
L 900.2 499 
Q 902.2 499 902.2 497 
L 902.2 453.965625 
Q 902.2 451.965625 900.2 451.965625 
L 805.348438 451.965625 
Q 803.348438 451.965625 803.348438 453.965625 
L 803.348438 497 
Q 803.348438 499 805.348438 499 
z
" style="opacity:0.8;stroke:#cccccc;stroke-linejoin:miter;"/>
    </g>
    <g id="line2d_17">
     <path d="M 807.348438 460.064062 
L 827.348438 460.064062 
" style="fill:none;stroke:#8dd3c7;stroke-linecap:square;stroke-width:1.5;"/>
    </g>
    <g id="line2d_18"/>
    <g id="text_16">
     <!-- cost -->
     <g style="fill:#ffffff;" transform="translate(835.348438 463.564062)scale(0.1 -0.1)">
      <use xlink:href="#DejaVuSans-63"/>
      <use x="54.980469" xlink:href="#DejaVuSans-6f"/>
      <use x="116.162109" xlink:href="#DejaVuSans-73"/>
      <use x="168.261719" xlink:href="#DejaVuSans-74"/>
     </g>
    </g>
    <g id="line2d_19">
     <path d="M 807.348438 474.742188 
L 827.348438 474.742188 
" style="fill:none;stroke:#feffb3;stroke-linecap:square;stroke-width:1.5;"/>
    </g>
    <g id="line2d_20"/>
    <g id="text_17">
     <!-- best cost -->
     <g style="fill:#ffffff;" transform="translate(835.348438 478.242188)scale(0.1 -0.1)">
      <defs>
       <path d="M 3116 1747 
Q 3116 2381 2855 2742 
Q 2594 3103 2138 3103 
Q 1681 3103 1420 2742 
Q 1159 2381 1159 1747 
Q 1159 1113 1420 752 
Q 1681 391 2138 391 
Q 2594 391 2855 752 
Q 3116 1113 3116 1747 
z
M 1159 2969 
Q 1341 3281 1617 3432 
Q 1894 3584 2278 3584 
Q 2916 3584 3314 3078 
Q 3713 2572 3713 1747 
Q 3713 922 3314 415 
Q 2916 -91 2278 -91 
Q 1894 -91 1617 61 
Q 1341 213 1159 525 
L 1159 0 
L 581 0 
L 581 4863 
L 1159 4863 
L 1159 2969 
z
" id="DejaVuSans-62" transform="scale(0.015625)"/>
      </defs>
      <use xlink:href="#DejaVuSans-62"/>
      <use x="63.476562" xlink:href="#DejaVuSans-65"/>
      <use x="125" xlink:href="#DejaVuSans-73"/>
      <use x="177.099609" xlink:href="#DejaVuSans-74"/>
      <use x="216.308594" xlink:href="#DejaVuSans-20"/>
      <use x="248.095703" xlink:href="#DejaVuSans-63"/>
      <use x="303.076172" xlink:href="#DejaVuSans-6f"/>
      <use x="364.257812" xlink:href="#DejaVuSans-73"/>
      <use x="416.357422" xlink:href="#DejaVuSans-74"/>
     </g>
    </g>
    <g id="line2d_21">
     <path d="M 807.348438 489.420313 
L 827.348438 489.420313 
" style="fill:none;stroke:#bfbbd9;stroke-linecap:square;stroke-width:1.5;"/>
    </g>
    <g id="line2d_22"/>
    <g id="text_18">
     <!-- temperature -->
     <g style="fill:#ffffff;" transform="translate(835.348438 492.920313)scale(0.1 -0.1)">
      <defs>
       <path d="M 3328 2828 
Q 3544 3216 3844 3400 
Q 4144 3584 4550 3584 
Q 5097 3584 5394 3201 
Q 5691 2819 5691 2113 
L 5691 0 
L 5113 0 
L 5113 2094 
Q 5113 2597 4934 2840 
Q 4756 3084 4391 3084 
Q 3944 3084 3684 2787 
Q 3425 2491 3425 1978 
L 3425 0 
L 2847 0 
L 2847 2094 
Q 2847 2600 2669 2842 
Q 2491 3084 2119 3084 
Q 1678 3084 1418 2786 
Q 1159 2488 1159 1978 
L 1159 0 
L 581 0 
L 581 3500 
L 1159 3500 
L 1159 2956 
Q 1356 3278 1631 3431 
Q 1906 3584 2284 3584 
Q 2666 3584 2933 3390 
Q 3200 3197 3328 2828 
z
" id="DejaVuSans-6d" transform="scale(0.015625)"/>
       <path d="M 1159 525 
L 1159 -1331 
L 581 -1331 
L 581 3500 
L 1159 3500 
L 1159 2969 
Q 1341 3281 1617 3432 
Q 1894 3584 2278 3584 
Q 2916 3584 3314 3078 
Q 3713 2572 3713 1747 
Q 3713 922 3314 415 
Q 2916 -91 2278 -91 
Q 1894 -91 1617 61 
Q 1341 213 1159 525 
z
M 3116 1747 
Q 3116 2381 2855 2742 
Q 2594 3103 2138 3103 
Q 1681 3103 1420 2742 
Q 1159 2381 1159 1747 
Q 1159 1113 1420 752 
Q 1681 391 2138 391 
Q 2594 391 2855 752 
Q 3116 1113 3116 1747 
z
" id="DejaVuSans-70" transform="scale(0.015625)"/>
       <path d="M 544 1381 
L 544 3500 
L 1119 3500 
L 1119 1403 
Q 1119 906 1312 657 
Q 1506 409 1894 409 
Q 2359 409 2629 706 
Q 2900 1003 2900 1516 
L 2900 3500 
L 3475 3500 
L 3475 0 
L 2900 0 
L 2900 538 
Q 2691 219 2414 64 
Q 2138 -91 1772 -91 
Q 1169 -91 856 284 
Q 544 659 544 1381 
z
M 1991 3584 
L 1991 3584 
z
" id="DejaVuSans-75" transform="scale(0.015625)"/>
      </defs>
      <use xlink:href="#DejaVuSans-74"/>
      <use x="39.208984" xlink:href="#DejaVuSans-65"/>
      <use x="100.732422" xlink:href="#DejaVuSans-6d"/>
      <use x="198.144531" xlink:href="#DejaVuSans-70"/>
      <use x="261.621094" xlink:href="#DejaVuSans-65"/>
      <use x="323.144531" xlink:href="#DejaVuSans-72"/>
      <use x="364.257812" xlink:href="#DejaVuSans-61"/>
      <use x="425.537109" xlink:href="#DejaVuSans-74"/>
      <use x="464.746094" xlink:href="#DejaVuSans-75"/>
      <use x="528.125" xlink:href="#DejaVuSans-72"/>
      <use x="566.988281" xlink:href="#DejaVuSans-65"/>
     </g>
    </g>
   </g>
  </g>
 </g>
 <defs>
  <clipPath id="pa602ed19d3">
   <rect height="434.88" width="781.2" x="126" y="69.12"/>
  </clipPath>
 </defs>
</svg>
