<?xml version="1.0" encoding="utf-8" standalone="no"?>
<!DOCTYPE svg PUBLIC "-//W3C//DTD SVG 1.1//EN"
  "http://www.w3.org/Graphics/SVG/1.1/DTD/svg11.dtd">
<svg height="576pt" version="1.1" viewBox="0 0 1008 576" width="1008pt" xmlns="http://www.w3.org/2000/svg" xmlns:xlink="http://www.w3.org/1999/xlink">
 <metadata>
  <rdf:RDF xmlns:cc="http://creativecommons.org/ns#" xmlns:dc="http://purl.org/dc/elements/1.1/" xmlns:rdf="http://www.w3.org/1999/02/22-rdf-syntax-ns#">
   <cc:Work>
    <dc:type rdf:resource="http://purl.org/dc/dcmitype/StillImage"/>
    <dc:date>2022-01-08T01:27:36.516310</dc:date>
    <dc:format>image/svg+xml</dc:format>
    <dc:creator>
     <cc:Agent>
      <dc:title>Matplotlib v3.4.3, https://matplotlib.org/</dc:title>
     </cc:Agent>
    </dc:creator>
   </cc:Work>
  </rdf:RDF>
 </metadata>
 <defs>
  <style type="text/css">*{stroke-linecap:butt;stroke-linejoin:round;}</style>
 </defs>
 <g id="figure_1">
  <g id="patch_1">
   <path d="M 0 576 
L 1008 576 
L 1008 0 
L 0 0 
z
"/>
  </g>
  <g id="axes_1">
   <g id="patch_2">
    <path d="M 126 504 
L 907.2 504 
L 907.2 69.12 
L 126 69.12 
z
"/>
   </g>
   <g id="matplotlib.axis_1">
    <g id="xtick_1">
     <g id="line2d_1">
      <defs>
       <path d="M 0 0 
L 0 3.5 
" id="m0bcdef2dbe" style="stroke:#ffffff;stroke-width:0.8;"/>
      </defs>
      <g>
       <use style="fill:#ffffff;stroke:#ffffff;stroke-width:0.8;" x="161.509091" xlink:href="#m0bcdef2dbe" y="504"/>
      </g>
     </g>
     <g id="text_1">
      <!-- 0 -->
      <g style="fill:#ffffff;" transform="translate(158.327841 518.598438)scale(0.1 -0.1)">
       <defs>
        <path d="M 2034 4250 
Q 1547 4250 1301 3770 
Q 1056 3291 1056 2328 
Q 1056 1369 1301 889 
Q 1547 409 2034 409 
Q 2525 409 2770 889 
Q 3016 1369 3016 2328 
Q 3016 3291 2770 3770 
Q 2525 4250 2034 4250 
z
M 2034 4750 
Q 2819 4750 3233 4129 
Q 3647 3509 3647 2328 
Q 3647 1150 3233 529 
Q 2819 -91 2034 -91 
Q 1250 -91 836 529 
Q 422 1150 422 2328 
Q 422 3509 836 4129 
Q 1250 4750 2034 4750 
z
" id="DejaVuSans-30" transform="scale(0.015625)"/>
       </defs>
       <use xlink:href="#DejaVuSans-30"/>
      </g>
     </g>
    </g>
    <g id="xtick_2">
     <g id="line2d_2">
      <g>
       <use style="fill:#ffffff;stroke:#ffffff;stroke-width:0.8;" x="293.660527" xlink:href="#m0bcdef2dbe" y="504"/>
      </g>
     </g>
     <g id="text_2">
      <!-- 500 -->
      <g style="fill:#ffffff;" transform="translate(284.116777 518.598438)scale(0.1 -0.1)">
       <defs>
        <path d="M 691 4666 
L 3169 4666 
L 3169 4134 
L 1269 4134 
L 1269 2991 
Q 1406 3038 1543 3061 
Q 1681 3084 1819 3084 
Q 2600 3084 3056 2656 
Q 3513 2228 3513 1497 
Q 3513 744 3044 326 
Q 2575 -91 1722 -91 
Q 1428 -91 1123 -41 
Q 819 9 494 109 
L 494 744 
Q 775 591 1075 516 
Q 1375 441 1709 441 
Q 2250 441 2565 725 
Q 2881 1009 2881 1497 
Q 2881 1984 2565 2268 
Q 2250 2553 1709 2553 
Q 1456 2553 1204 2497 
Q 953 2441 691 2322 
L 691 4666 
z
" id="DejaVuSans-35" transform="scale(0.015625)"/>
       </defs>
       <use xlink:href="#DejaVuSans-35"/>
       <use x="63.623047" xlink:href="#DejaVuSans-30"/>
       <use x="127.246094" xlink:href="#DejaVuSans-30"/>
      </g>
     </g>
    </g>
    <g id="xtick_3">
     <g id="line2d_3">
      <g>
       <use style="fill:#ffffff;stroke:#ffffff;stroke-width:0.8;" x="425.811963" xlink:href="#m0bcdef2dbe" y="504"/>
      </g>
     </g>
     <g id="text_3">
      <!-- 1000 -->
      <g style="fill:#ffffff;" transform="translate(413.086963 518.598438)scale(0.1 -0.1)">
       <defs>
        <path d="M 794 531 
L 1825 531 
L 1825 4091 
L 703 3866 
L 703 4441 
L 1819 4666 
L 2450 4666 
L 2450 531 
L 3481 531 
L 3481 0 
L 794 0 
L 794 531 
z
" id="DejaVuSans-31" transform="scale(0.015625)"/>
       </defs>
       <use xlink:href="#DejaVuSans-31"/>
       <use x="63.623047" xlink:href="#DejaVuSans-30"/>
       <use x="127.246094" xlink:href="#DejaVuSans-30"/>
       <use x="190.869141" xlink:href="#DejaVuSans-30"/>
      </g>
     </g>
    </g>
    <g id="xtick_4">
     <g id="line2d_4">
      <g>
       <use style="fill:#ffffff;stroke:#ffffff;stroke-width:0.8;" x="557.9634" xlink:href="#m0bcdef2dbe" y="504"/>
      </g>
     </g>
     <g id="text_4">
      <!-- 1500 -->
      <g style="fill:#ffffff;" transform="translate(545.2384 518.598438)scale(0.1 -0.1)">
       <use xlink:href="#DejaVuSans-31"/>
       <use x="63.623047" xlink:href="#DejaVuSans-35"/>
       <use x="127.246094" xlink:href="#DejaVuSans-30"/>
       <use x="190.869141" xlink:href="#DejaVuSans-30"/>
      </g>
     </g>
    </g>
    <g id="xtick_5">
     <g id="line2d_5">
      <g>
       <use style="fill:#ffffff;stroke:#ffffff;stroke-width:0.8;" x="690.114836" xlink:href="#m0bcdef2dbe" y="504"/>
      </g>
     </g>
     <g id="text_5">
      <!-- 2000 -->
      <g style="fill:#ffffff;" transform="translate(677.389836 518.598438)scale(0.1 -0.1)">
       <defs>
        <path d="M 1228 531 
L 3431 531 
L 3431 0 
L 469 0 
L 469 531 
Q 828 903 1448 1529 
Q 2069 2156 2228 2338 
Q 2531 2678 2651 2914 
Q 2772 3150 2772 3378 
Q 2772 3750 2511 3984 
Q 2250 4219 1831 4219 
Q 1534 4219 1204 4116 
Q 875 4013 500 3803 
L 500 4441 
Q 881 4594 1212 4672 
Q 1544 4750 1819 4750 
Q 2544 4750 2975 4387 
Q 3406 4025 3406 3419 
Q 3406 3131 3298 2873 
Q 3191 2616 2906 2266 
Q 2828 2175 2409 1742 
Q 1991 1309 1228 531 
z
" id="DejaVuSans-32" transform="scale(0.015625)"/>
       </defs>
       <use xlink:href="#DejaVuSans-32"/>
       <use x="63.623047" xlink:href="#DejaVuSans-30"/>
       <use x="127.246094" xlink:href="#DejaVuSans-30"/>
       <use x="190.869141" xlink:href="#DejaVuSans-30"/>
      </g>
     </g>
    </g>
    <g id="xtick_6">
     <g id="line2d_6">
      <g>
       <use style="fill:#ffffff;stroke:#ffffff;stroke-width:0.8;" x="822.266272" xlink:href="#m0bcdef2dbe" y="504"/>
      </g>
     </g>
     <g id="text_6">
      <!-- 2500 -->
      <g style="fill:#ffffff;" transform="translate(809.541272 518.598438)scale(0.1 -0.1)">
       <use xlink:href="#DejaVuSans-32"/>
       <use x="63.623047" xlink:href="#DejaVuSans-35"/>
       <use x="127.246094" xlink:href="#DejaVuSans-30"/>
       <use x="190.869141" xlink:href="#DejaVuSans-30"/>
      </g>
     </g>
    </g>
    <g id="text_7">
     <!-- iteration -->
     <g style="fill:#ffffff;" transform="translate(495.477344 532.276562)scale(0.1 -0.1)">
      <defs>
       <path d="M 603 3500 
L 1178 3500 
L 1178 0 
L 603 0 
L 603 3500 
z
M 603 4863 
L 1178 4863 
L 1178 4134 
L 603 4134 
L 603 4863 
z
" id="DejaVuSans-69" transform="scale(0.015625)"/>
       <path d="M 1172 4494 
L 1172 3500 
L 2356 3500 
L 2356 3053 
L 1172 3053 
L 1172 1153 
Q 1172 725 1289 603 
Q 1406 481 1766 481 
L 2356 481 
L 2356 0 
L 1766 0 
Q 1100 0 847 248 
Q 594 497 594 1153 
L 594 3053 
L 172 3053 
L 172 3500 
L 594 3500 
L 594 4494 
L 1172 4494 
z
" id="DejaVuSans-74" transform="scale(0.015625)"/>
       <path d="M 3597 1894 
L 3597 1613 
L 953 1613 
Q 991 1019 1311 708 
Q 1631 397 2203 397 
Q 2534 397 2845 478 
Q 3156 559 3463 722 
L 3463 178 
Q 3153 47 2828 -22 
Q 2503 -91 2169 -91 
Q 1331 -91 842 396 
Q 353 884 353 1716 
Q 353 2575 817 3079 
Q 1281 3584 2069 3584 
Q 2775 3584 3186 3129 
Q 3597 2675 3597 1894 
z
M 3022 2063 
Q 3016 2534 2758 2815 
Q 2500 3097 2075 3097 
Q 1594 3097 1305 2825 
Q 1016 2553 972 2059 
L 3022 2063 
z
" id="DejaVuSans-65" transform="scale(0.015625)"/>
       <path d="M 2631 2963 
Q 2534 3019 2420 3045 
Q 2306 3072 2169 3072 
Q 1681 3072 1420 2755 
Q 1159 2438 1159 1844 
L 1159 0 
L 581 0 
L 581 3500 
L 1159 3500 
L 1159 2956 
Q 1341 3275 1631 3429 
Q 1922 3584 2338 3584 
Q 2397 3584 2469 3576 
Q 2541 3569 2628 3553 
L 2631 2963 
z
" id="DejaVuSans-72" transform="scale(0.015625)"/>
       <path d="M 2194 1759 
Q 1497 1759 1228 1600 
Q 959 1441 959 1056 
Q 959 750 1161 570 
Q 1363 391 1709 391 
Q 2188 391 2477 730 
Q 2766 1069 2766 1631 
L 2766 1759 
L 2194 1759 
z
M 3341 1997 
L 3341 0 
L 2766 0 
L 2766 531 
Q 2569 213 2275 61 
Q 1981 -91 1556 -91 
Q 1019 -91 701 211 
Q 384 513 384 1019 
Q 384 1609 779 1909 
Q 1175 2209 1959 2209 
L 2766 2209 
L 2766 2266 
Q 2766 2663 2505 2880 
Q 2244 3097 1772 3097 
Q 1472 3097 1187 3025 
Q 903 2953 641 2809 
L 641 3341 
Q 956 3463 1253 3523 
Q 1550 3584 1831 3584 
Q 2591 3584 2966 3190 
Q 3341 2797 3341 1997 
z
" id="DejaVuSans-61" transform="scale(0.015625)"/>
       <path d="M 1959 3097 
Q 1497 3097 1228 2736 
Q 959 2375 959 1747 
Q 959 1119 1226 758 
Q 1494 397 1959 397 
Q 2419 397 2687 759 
Q 2956 1122 2956 1747 
Q 2956 2369 2687 2733 
Q 2419 3097 1959 3097 
z
M 1959 3584 
Q 2709 3584 3137 3096 
Q 3566 2609 3566 1747 
Q 3566 888 3137 398 
Q 2709 -91 1959 -91 
Q 1206 -91 779 398 
Q 353 888 353 1747 
Q 353 2609 779 3096 
Q 1206 3584 1959 3584 
z
" id="DejaVuSans-6f" transform="scale(0.015625)"/>
       <path d="M 3513 2113 
L 3513 0 
L 2938 0 
L 2938 2094 
Q 2938 2591 2744 2837 
Q 2550 3084 2163 3084 
Q 1697 3084 1428 2787 
Q 1159 2491 1159 1978 
L 1159 0 
L 581 0 
L 581 3500 
L 1159 3500 
L 1159 2956 
Q 1366 3272 1645 3428 
Q 1925 3584 2291 3584 
Q 2894 3584 3203 3211 
Q 3513 2838 3513 2113 
z
" id="DejaVuSans-6e" transform="scale(0.015625)"/>
      </defs>
      <use xlink:href="#DejaVuSans-69"/>
      <use x="27.783203" xlink:href="#DejaVuSans-74"/>
      <use x="66.992188" xlink:href="#DejaVuSans-65"/>
      <use x="128.515625" xlink:href="#DejaVuSans-72"/>
      <use x="169.628906" xlink:href="#DejaVuSans-61"/>
      <use x="230.908203" xlink:href="#DejaVuSans-74"/>
      <use x="270.117188" xlink:href="#DejaVuSans-69"/>
      <use x="297.900391" xlink:href="#DejaVuSans-6f"/>
      <use x="359.082031" xlink:href="#DejaVuSans-6e"/>
     </g>
    </g>
   </g>
   <g id="matplotlib.axis_2">
    <g id="ytick_1">
     <g id="line2d_7">
      <defs>
       <path d="M 0 0 
L -3.5 0 
" id="m104430addd" style="stroke:#ffffff;stroke-width:0.8;"/>
      </defs>
      <g>
       <use style="fill:#ffffff;stroke:#ffffff;stroke-width:0.8;" x="126" xlink:href="#m104430addd" y="484.232727"/>
      </g>
     </g>
     <g id="text_8">
      <!-- 0 -->
      <g style="fill:#ffffff;" transform="translate(112.6375 488.031946)scale(0.1 -0.1)">
       <use xlink:href="#DejaVuSans-30"/>
      </g>
     </g>
    </g>
    <g id="ytick_2">
     <g id="line2d_8">
      <g>
       <use style="fill:#ffffff;stroke:#ffffff;stroke-width:0.8;" x="126" xlink:href="#m104430addd" y="400.900352"/>
      </g>
     </g>
     <g id="text_9">
      <!-- 10000 -->
      <g style="fill:#ffffff;" transform="translate(87.1875 404.699571)scale(0.1 -0.1)">
       <use xlink:href="#DejaVuSans-31"/>
       <use x="63.623047" xlink:href="#DejaVuSans-30"/>
       <use x="127.246094" xlink:href="#DejaVuSans-30"/>
       <use x="190.869141" xlink:href="#DejaVuSans-30"/>
       <use x="254.492188" xlink:href="#DejaVuSans-30"/>
      </g>
     </g>
    </g>
    <g id="ytick_3">
     <g id="line2d_9">
      <g>
       <use style="fill:#ffffff;stroke:#ffffff;stroke-width:0.8;" x="126" xlink:href="#m104430addd" y="317.567977"/>
      </g>
     </g>
     <g id="text_10">
      <!-- 20000 -->
      <g style="fill:#ffffff;" transform="translate(87.1875 321.367196)scale(0.1 -0.1)">
       <use xlink:href="#DejaVuSans-32"/>
       <use x="63.623047" xlink:href="#DejaVuSans-30"/>
       <use x="127.246094" xlink:href="#DejaVuSans-30"/>
       <use x="190.869141" xlink:href="#DejaVuSans-30"/>
       <use x="254.492188" xlink:href="#DejaVuSans-30"/>
      </g>
     </g>
    </g>
    <g id="ytick_4">
     <g id="line2d_10">
      <g>
       <use style="fill:#ffffff;stroke:#ffffff;stroke-width:0.8;" x="126" xlink:href="#m104430addd" y="234.235602"/>
      </g>
     </g>
     <g id="text_11">
      <!-- 30000 -->
      <g style="fill:#ffffff;" transform="translate(87.1875 238.03482)scale(0.1 -0.1)">
       <defs>
        <path d="M 2597 2516 
Q 3050 2419 3304 2112 
Q 3559 1806 3559 1356 
Q 3559 666 3084 287 
Q 2609 -91 1734 -91 
Q 1441 -91 1130 -33 
Q 819 25 488 141 
L 488 750 
Q 750 597 1062 519 
Q 1375 441 1716 441 
Q 2309 441 2620 675 
Q 2931 909 2931 1356 
Q 2931 1769 2642 2001 
Q 2353 2234 1838 2234 
L 1294 2234 
L 1294 2753 
L 1863 2753 
Q 2328 2753 2575 2939 
Q 2822 3125 2822 3475 
Q 2822 3834 2567 4026 
Q 2313 4219 1838 4219 
Q 1578 4219 1281 4162 
Q 984 4106 628 3988 
L 628 4550 
Q 988 4650 1302 4700 
Q 1616 4750 1894 4750 
Q 2613 4750 3031 4423 
Q 3450 4097 3450 3541 
Q 3450 3153 3228 2886 
Q 3006 2619 2597 2516 
z
" id="DejaVuSans-33" transform="scale(0.015625)"/>
       </defs>
       <use xlink:href="#DejaVuSans-33"/>
       <use x="63.623047" xlink:href="#DejaVuSans-30"/>
       <use x="127.246094" xlink:href="#DejaVuSans-30"/>
       <use x="190.869141" xlink:href="#DejaVuSans-30"/>
       <use x="254.492188" xlink:href="#DejaVuSans-30"/>
      </g>
     </g>
    </g>
    <g id="ytick_5">
     <g id="line2d_11">
      <g>
       <use style="fill:#ffffff;stroke:#ffffff;stroke-width:0.8;" x="126" xlink:href="#m104430addd" y="150.903226"/>
      </g>
     </g>
     <g id="text_12">
      <!-- 40000 -->
      <g style="fill:#ffffff;" transform="translate(87.1875 154.702445)scale(0.1 -0.1)">
       <defs>
        <path d="M 2419 4116 
L 825 1625 
L 2419 1625 
L 2419 4116 
z
M 2253 4666 
L 3047 4666 
L 3047 1625 
L 3713 1625 
L 3713 1100 
L 3047 1100 
L 3047 0 
L 2419 0 
L 2419 1100 
L 313 1100 
L 313 1709 
L 2253 4666 
z
" id="DejaVuSans-34" transform="scale(0.015625)"/>
       </defs>
       <use xlink:href="#DejaVuSans-34"/>
       <use x="63.623047" xlink:href="#DejaVuSans-30"/>
       <use x="127.246094" xlink:href="#DejaVuSans-30"/>
       <use x="190.869141" xlink:href="#DejaVuSans-30"/>
       <use x="254.492188" xlink:href="#DejaVuSans-30"/>
      </g>
     </g>
    </g>
   </g>
   <g id="line2d_12">
    <path clip-path="url(#p5dd8bc573b)" d="M 161.509091 214.352497 
L 161.773394 231.252303 
L 162.037697 211.694194 
L 163.094908 282.151717 
L 163.359211 274.501805 
L 163.623514 290.268291 
L 163.887817 270.168522 
L 164.15212 287.793319 
L 164.416423 243.527161 
L 164.680725 223.427393 
L 164.945028 223.819055 
L 165.209331 211.335865 
L 165.473634 209.385887 
L 165.737937 220.860755 
L 166.00224 206.419255 
L 166.530845 241.95218 
L 166.795148 228.360669 
L 167.059451 248.510438 
L 167.323754 234.92726 
L 167.588057 247.41045 
L 167.85236 268.060213 
L 168.380966 240.835526 
L 168.645268 220.185763 
L 168.909571 237.085569 
L 169.173874 244.252153 
L 169.438177 229.368991 
L 169.70248 301.95149 
L 169.966783 307.12643 
L 170.231086 321.201268 
L 170.759691 281.818388 
L 171.023994 276.643447 
L 171.5526 312.276371 
L 171.816903 295.376565 
L 172.081206 302.54315 
L 172.345509 295.376565 
L 172.609812 281.060063 
L 172.874114 279.110086 
L 173.138417 264.226923 
L 173.40272 266.176901 
L 173.667023 277.651769 
L 174.195629 238.818882 
L 174.459932 245.535472 
L 174.724235 235.927249 
L 174.988537 256.577011 
L 175.25284 263.993593 
L 175.781446 304.743124 
L 176.045749 314.351347 
L 176.310052 300.276509 
L 176.574355 308.018087 
L 176.838658 293.576586 
L 177.631566 344.109338 
L 177.895869 329.792836 
L 178.160172 344.675999 
L 178.424475 352.325911 
L 178.688778 335.426105 
L 178.95308 349.742607 
L 179.481686 314.709676 
L 179.745989 297.084879 
L 180.010292 297.493208 
L 180.274595 292.176602 
L 180.538898 277.435105 
L 180.803201 292.318267 
L 181.860412 230.110649 
L 182.124715 237.277233 
L 182.917624 277.510104 
L 183.181926 262.626942 
L 183.446229 267.801882 
L 183.710532 283.08504 
L 183.974835 262.985271 
L 184.239138 255.243693 
L 184.503441 254.835365 
L 184.767744 247.668781 
L 185.032047 234.018937 
L 185.296349 252.752055 
L 185.560652 247.168786 
L 185.824955 227.610678 
L 186.089258 236.527242 
L 186.353561 223.252395 
L 186.617864 223.644057 
L 186.882167 238.085557 
L 187.14647 224.010719 
L 187.675075 234.910594 
L 187.939378 229.593988 
L 188.203681 215.152488 
L 188.467984 208.435898 
L 188.732287 187.786136 
L 188.99659 193.102741 
L 189.260893 213.25251 
L 189.525195 219.969099 
L 189.789498 220.377428 
L 190.053801 219.969099 
L 190.582407 234.877261 
L 190.84671 249.318762 
L 191.111013 239.710539 
L 191.375315 259.810308 
L 191.639618 241.07719 
L 191.903921 233.910605 
L 192.168224 233.518943 
L 192.432527 233.910605 
L 192.69683 248.793768 
L 192.961133 239.877203 
L 193.225436 259.435312 
L 193.489738 251.693734 
L 193.754041 238.102224 
L 194.018344 238.510552 
L 194.282647 224.069052 
L 194.54695 244.718814 
L 195.604161 284.001696 
L 195.868464 278.685091 
L 196.132767 263.801928 
L 196.39707 263.410266 
L 196.661373 257.826997 
L 196.925676 274.726803 
L 197.189979 275.118465 
L 197.454282 255.560356 
L 197.718584 247.910444 
L 197.982887 247.518782 
L 198.24719 232.235625 
L 198.775796 260.251969 
L 199.040099 239.602207 
L 199.568705 276.018455 
L 199.833007 261.276957 
L 200.09731 281.92672 
L 200.361613 282.318382 
L 200.625916 267.876882 
L 200.890219 282.618379 
L 201.154522 261.968616 
L 201.418825 275.618459 
L 201.94743 310.709722 
L 202.476036 339.226061 
L 202.740339 318.576299 
L 203.004642 324.159568 
L 203.268945 314.551345 
L 203.533248 334.701113 
L 203.79755 314.601344 
L 204.326156 331.859479 
L 204.590459 311.709711 
L 204.854762 332.359473 
L 205.119065 340.101051 
L 205.383368 326.509541 
L 205.647671 341.392703 
L 205.911973 326.951202 
L 206.176276 326.55954 
L 206.440579 212.502518 
L 206.704882 218.085787 
L 206.969185 212.502518 
L 207.497791 229.760653 
L 207.762094 215.319152 
L 208.026396 235.468921 
L 208.290699 215.319152 
L 208.555002 235.968915 
L 208.819305 236.377244 
L 209.083608 223.894054 
L 209.876517 253.527046 
L 210.140819 267.110224 
L 210.405122 246.960455 
L 210.669425 252.543724 
L 210.933728 243.62716 
L 211.462334 270.868514 
L 211.726637 259.393646 
L 211.99094 273.468484 
L 212.255242 265.726906 
L 212.519545 272.893491 
L 212.783848 265.243578 
L 213.048151 251.652068 
L 213.312454 244.018822 
L 213.84106 279.451748 
L 214.105363 272.285164 
L 214.633968 291.50161 
L 214.898271 283.851698 
L 215.426877 248.418772 
L 215.69118 240.677194 
L 215.955483 247.393784 
L 216.748391 293.168257 
L 217.012694 313.318026 
L 217.276997 312.909697 
L 217.5413 320.076281 
L 217.805603 320.48461 
L 218.069906 320.092948 
L 218.334208 299.94318 
L 218.598511 292.776595 
L 218.862814 278.701757 
L 219.39142 307.901421 
L 219.920026 275.23513 
L 220.184329 268.535207 
L 220.712934 304.451461 
L 220.977237 291.176614 
L 221.24154 271.026845 
L 221.505843 278.676757 
L 221.770146 298.826526 
L 222.034449 292.109936 
L 222.298752 306.551437 
L 222.827357 278.018432 
L 223.09166 294.918237 
L 223.355963 279.151752 
L 223.620266 299.801514 
L 223.884569 300.193177 
L 224.413175 289.293302 
L 224.677477 279.685079 
L 224.94178 288.601643 
L 225.206083 303.484805 
L 225.470386 303.076477 
L 226.263295 260.726964 
L 226.527598 262.676941 
L 226.7919 276.268452 
L 227.584809 226.460691 
L 227.849112 231.635632 
L 228.113415 299.684849 
L 228.642021 271.435174 
L 228.906323 266.118568 
L 229.170626 251.802066 
L 229.434929 246.218797 
L 229.699232 232.94395 
L 229.963535 240.593862 
L 230.227838 219.944099 
L 230.492141 227.685677 
L 230.756443 213.244176 
L 231.020746 216.977467 
L 231.285049 218.777446 
L 231.813655 253.243716 
L 232.077958 269.010202 
L 232.342261 254.6937 
L 232.606564 247.527115 
L 232.870866 249.477093 
L 233.135169 233.710608 
L 233.399472 241.452185 
L 233.663775 255.893686 
L 233.928078 238.99388 
L 234.192381 253.310382 
L 234.456684 239.235544 
L 234.720987 255.00203 
L 235.249592 224.977375 
L 235.513895 224.569046 
L 235.778198 229.885652 
L 236.306804 264.868583 
L 236.571107 251.593735 
L 236.83541 231.493966 
L 237.364015 258.843652 
L 237.892621 222.927398 
L 238.156924 208.044236 
L 238.68553 236.377244 
L 239.214135 207.710907 
L 239.478438 207.710907 
L 239.742741 198.102684 
L 240.271347 186.069489 
L 240.53565 208.585897 
L 240.799953 213.760837 
L 241.064256 228.643999 
L 241.328558 213.760837 
L 241.592861 229.043995 
L 241.857164 211.419197 
L 242.121467 218.585782 
L 242.38577 213.410841 
L 242.650073 233.51061 
L 242.914376 213.410841 
L 243.178678 206.244257 
L 243.442981 213.985834 
L 243.707284 193.336072 
L 243.971587 183.727849 
L 244.500193 206.960915 
L 244.764496 192.886077 
L 245.028799 338.434404 
L 245.293101 331.717814 
L 245.557404 338.434404 
L 245.821707 319.701286 
L 246.08601 334.017788 
L 246.350313 341.6677 
L 246.614616 361.817468 
L 246.878919 350.3426 
L 247.143222 349.934271 
L 247.671827 314.068017 
L 247.93613 299.993179 
L 248.464736 325.909548 
L 248.729039 326.30121 
L 249.257645 289.251636 
L 249.521947 303.693136 
L 249.78625 290.109959 
L 250.050553 303.70147 
L 250.314856 291.21828 
L 250.579159 240.102201 
L 251.107765 213.969168 
L 251.372068 221.135752 
L 251.63637 221.135752 
L 251.900673 207.860905 
L 252.429279 235.102258 
L 252.693582 240.685527 
L 252.957885 261.33529 
L 253.222188 240.685527 
L 253.486491 246.002133 
L 253.750793 231.927295 
L 254.015096 211.777526 
L 254.279399 216.952467 
L 255.072308 277.310106 
L 255.336611 254.010374 
L 255.865216 283.426703 
L 256.129519 288.743308 
L 256.393822 304.026466 
L 256.658125 288.25998 
L 256.922428 280.610068 
L 257.186731 288.351646 
L 257.451034 267.701884 
L 257.715336 256.227015 
L 257.979639 261.810285 
L 258.243942 278.71009 
L 258.508245 261.085293 
L 258.772548 255.502024 
L 259.301154 227.785676 
L 259.565457 222.46907 
L 259.829759 236.910571 
L 260.094062 222.594069 
L 260.358365 231.510633 
L 260.622668 252.160396 
L 261.151274 223.227395 
L 261.415577 222.835733 
L 261.944182 249.593758 
L 262.472788 228.194004 
L 262.737091 230.143982 
L 263.001394 235.318923 
L 263.265697 254.05204 
L 263.53 259.63531 
L 263.794303 268.551874 
L 264.058605 286.176671 
L 264.322908 280.593402 
L 264.587211 294.243245 
L 265.38012 237.960559 
L 265.644423 258.110327 
L 265.908726 243.227165 
L 266.173028 256.502012 
L 266.437331 241.218855 
L 266.701634 260.776963 
L 266.965937 246.335463 
L 267.23024 246.743791 
L 267.758846 281.726722 
L 268.023148 275.010133 
L 268.287451 290.29329 
L 268.816057 255.452024 
L 269.08036 240.568862 
L 269.344663 290.751619 
L 269.608966 276.310118 
L 269.873269 268.660206 
L 270.137571 288.218314 
L 270.666177 277.31844 
L 271.194783 306.201441 
L 271.459086 286.643332 
L 271.987692 311.393048 
L 272.251994 316.709653 
L 272.516297 304.226464 
L 272.7806 298.909858 
L 273.044903 284.026696 
L 273.309206 289.343301 
L 273.573509 284.026696 
L 273.837812 283.635034 
L 274.102115 288.951639 
L 274.366417 277.476771 
L 274.63072 282.651712 
L 274.895023 277.335106 
L 275.159326 257.235337 
L 275.423629 266.84356 
L 275.687932 282.126718 
L 276.216538 248.652103 
L 277.009446 289.951628 
L 277.538052 267.068557 
L 277.802355 284.693355 
L 278.066658 290.276624 
L 278.595263 263.351934 
L 278.859566 272.268498 
L 279.123869 263.351934 
L 279.388172 246.452128 
L 279.652475 240.118867 
L 280.181081 279.826744 
L 280.445383 264.543587 
L 280.973989 290.459955 
L 281.238292 295.776561 
L 281.766898 296.576552 
L 282.295504 320.776273 
L 283.088412 267.826882 
L 283.352715 254.235372 
L 283.617018 271.135177 
L 283.881321 256.39368 
L 284.409927 285.810009 
L 284.674229 295.459898 
L 284.938532 295.034903 
L 285.202835 274.885134 
L 285.467138 280.468403 
L 285.995744 253.293716 
L 286.260047 247.97711 
L 286.52435 228.269004 
L 286.788652 226.319026 
L 287.052955 243.218832 
L 287.317258 252.135396 
L 287.581561 239.652206 
L 287.845864 254.393703 
L 288.37447 296.484886 
L 288.638773 289.768296 
L 288.903075 278.293428 
L 289.431681 312.793032 
L 289.695984 232.177292 
L 289.960287 222.569069 
L 290.22459 208.094236 
L 290.488893 228.743998 
L 290.753196 230.693976 
L 291.017498 245.577138 
L 291.546104 244.777147 
L 291.810407 229.893985 
L 292.07471 224.310716 
L 292.339013 210.235878 
L 292.867618 219.827434 
L 293.131921 205.085937 
L 293.660527 234.285601 
L 293.92483 225.369037 
L 294.189133 230.685642 
L 294.453436 225.510702 
L 295.246344 259.601977 
L 295.510647 251.952065 
L 295.77495 266.393565 
L 296.039253 251.110408 
L 296.303556 256.693677 
L 296.567859 242.252176 
L 296.832162 247.427117 
L 297.096464 245.477139 
L 297.360767 240.302199 
L 297.62507 241.402186 
L 297.889373 261.501955 
L 298.153676 269.693527 
L 298.417979 269.285199 
L 298.946585 283.501702 
L 299.210887 263.351934 
L 299.47519 277.426772 
L 299.739493 259.801974 
L 300.003796 280.451737 
L 300.268099 271.310175 
L 300.532402 273.260153 
L 300.796705 290.159959 
L 301.061008 241.160522 
L 301.32531 256.927007 
L 301.589613 256.535345 
L 301.853916 263.251935 
L 302.118219 265.201912 
L 302.646825 232.568954 
L 302.911128 245.052144 
L 303.175431 263.785262 
L 303.439733 268.960202 
L 303.704036 261.218625 
L 303.968339 261.610287 
L 304.232642 282.260049 
L 304.496945 268.676872 
L 304.761248 288.776641 
L 305.554156 235.502254 
L 305.818459 235.093925 
L 306.082762 225.485702 
L 306.347065 220.310762 
L 306.611368 240.960524 
L 307.139974 256.352014 
L 307.404276 271.235176 
L 307.668579 269.285199 
L 307.932882 269.693527 
L 308.197185 252.06873 
L 308.461488 244.418818 
L 308.725791 254.027041 
L 308.990094 234.468932 
L 309.254397 239.643873 
L 310.047305 198.68601 
L 310.311608 217.419128 
L 310.575911 202.135971 
L 310.840214 216.210809 
L 311.104517 218.160786 
L 311.36882 232.602287 
L 311.633122 222.994064 
L 312.161728 255.577023 
L 312.426031 239.810538 
L 312.954637 272.951823 
L 313.21894 278.268429 
L 313.483243 270.526851 
L 314.011848 236.11058 
L 314.276151 234.160602 
L 314.540454 249.927088 
L 314.804757 257.668666 
L 315.06906 271.318509 
L 315.333363 273.268486 
L 315.597666 293.418255 
L 315.861968 280.935065 
L 316.126271 292.409933 
L 316.390574 272.260164 
L 316.654877 285.535012 
L 317.183483 298.284865 
L 317.447786 315.909663 
L 317.712089 295.2599 
L 318.240694 317.351313 
L 318.504997 316.942984 
L 318.7693 311.359715 
L 319.033603 295.59323 
L 319.297906 296.001558 
L 319.562209 288.834974 
L 319.826511 296.484886 
L 320.090814 278.860089 
L 320.355117 278.45176 
L 320.61942 284.035029 
L 320.883723 276.385117 
L 321.148026 261.64362 
L 321.676632 296.168223 
L 321.940934 275.51846 
L 322.205237 282.685045 
L 322.46954 302.834813 
L 322.733843 297.251544 
L 322.998146 277.101775 
L 323.526752 312.084707 
L 324.31966 288.018317 
L 324.583963 286.068339 
L 324.848266 306.718102 
L 325.112569 313.434691 
L 325.376872 296.534885 
L 325.641175 234.785595 
L 325.905478 254.935364 
L 326.16978 234.785595 
L 326.434083 248.860433 
L 327.491295 187.377807 
L 327.755598 194.094396 
L 328.019901 192.536081 
L 328.284203 209.435887 
L 328.548506 209.044225 
L 328.812809 193.761067 
L 329.605718 229.085661 
L 329.870021 234.260601 
L 330.398626 260.818629 
L 330.927232 295.118235 
L 331.191535 274.468472 
L 331.455838 266.81856 
L 331.984444 295.143235 
L 332.248746 281.493392 
L 332.513049 275.910122 
L 333.305958 232.993949 
L 333.570261 234.943927 
L 334.098867 222.602402 
L 334.363169 237.88556 
L 334.891775 211.085868 
L 335.420381 245.085477 
L 335.684684 231.5023 
L 336.21329 259.410312 
L 336.477592 239.852204 
L 336.741895 259.410312 
L 337.006198 251.668735 
L 337.270501 265.318578 
L 337.534804 272.96849 
L 337.799107 287.40999 
L 338.06341 280.693401 
L 338.327713 286.010006 
L 338.856318 305.226452 
L 339.120621 284.57669 
L 339.384924 276.835112 
L 339.649227 262.393611 
L 339.91353 257.077006 
L 340.177833 257.468668 
L 340.442136 276.201786 
L 341.235044 233.268946 
L 341.499347 232.860617 
L 341.76365 218.785779 
L 342.027953 238.885548 
L 342.292256 238.493886 
L 342.556559 225.219039 
L 343.085164 255.060362 
L 343.349467 240.318865 
L 343.61377 260.468633 
L 343.878073 246.152131 
L 344.406679 278.093431 
L 344.670981 264.018593 
L 344.935284 243.868824 
L 345.199587 236.218912 
L 345.46389 243.96049 
L 345.728193 229.643988 
L 345.992496 248.377106 
L 346.521102 223.252395 
L 346.785404 243.902157 
L 347.049707 224.344049 
L 347.31401 239.627206 
L 347.578313 246.793791 
L 347.842616 260.443634 
L 348.106919 266.026903 
L 348.371222 280.468403 
L 348.635525 285.785009 
L 349.428433 230.593977 
L 350.221342 174.086293 
L 350.485645 184.619505 
L 350.749948 204.769274 
L 351.01425 209.944214 
L 351.278553 321.376266 
L 351.807159 292.859928 
L 352.071462 306.451438 
L 352.335765 306.059776 
L 352.600068 298.409864 
L 352.864371 306.059776 
L 353.128673 297.143212 
L 353.392976 311.584712 
L 353.657279 316.759653 
L 353.921582 333.659459 
L 354.450188 293.451587 
L 354.714491 313.009696 
L 355.771702 255.668689 
L 356.564611 297.334876 
L 356.828914 289.684964 
L 357.093216 297.334876 
L 357.357519 312.218038 
L 357.621822 291.568276 
L 357.886125 305.643114 
L 358.414731 275.435128 
L 358.679034 270.260187 
L 358.943337 252.63539 
L 359.207639 273.543483 
L 359.471942 265.893571 
L 359.736245 245.793802 
L 360.000548 259.443645 
L 360.264851 244.702148 
L 360.529154 259.443645 
L 360.793457 243.67716 
L 361.05776 252.593724 
L 361.322062 267.876882 
L 361.586365 252.993719 
L 361.850668 246.27713 
L 362.114971 252.993719 
L 362.379274 238.677217 
L 362.643577 259.32698 
L 362.90788 264.643585 
L 363.172183 250.202085 
L 363.436485 246.552127 
L 364.229394 282.010052 
L 364.493697 275.293463 
L 364.758 262.018616 
L 365.286606 291.343278 
L 365.550908 296.926548 
L 365.815211 317.57631 
L 366.343817 288.709975 
L 366.872423 301.534828 
L 367.136726 301.143166 
L 367.401029 319.876284 
L 367.665331 310.95972 
L 367.929634 324.609563 
L 368.45824 359.992489 
L 368.722543 368.909053 
L 369.251149 340.81771 
L 369.515452 354.092557 
L 369.779754 344.484334 
L 370.044057 339.309394 
L 370.30836 344.484334 
L 370.836966 378.283945 
L 371.101269 372.96734 
L 371.629874 337.534414 
L 371.894177 344.251003 
L 372.15848 336.509426 
L 372.687086 364.759101 
L 372.951389 347.859295 
L 373.215692 362.175797 
L 373.744297 340.776043 
L 374.0086 353.259233 
L 374.801509 304.984788 
L 375.065812 320.267946 
L 375.330115 318.317968 
L 375.594418 331.901145 
L 375.85872 325.184556 
L 376.387326 285.801675 
L 376.651629 292.96826 
L 376.915932 238.352221 
L 377.180235 243.93549 
L 377.444538 258.376991 
L 377.708841 243.93549 
L 377.973143 263.493599 
L 378.237446 268.668539 
L 378.501749 282.318382 
L 378.766052 265.418576 
L 379.030355 265.901904 
L 379.294658 279.551747 
L 379.558961 285.135016 
L 380.087566 325.934547 
L 380.351869 309.034742 
L 380.616172 303.451473 
L 380.880475 322.18459 
L 381.144778 308.59308 
L 381.673384 340.376048 
L 381.937687 326.059546 
L 382.201989 332.776135 
L 382.466292 326.059546 
L 382.730595 331.376151 
L 382.994898 310.726389 
L 383.259201 319.642953 
L 383.523504 304.901456 
L 384.052109 339.201061 
L 384.845018 284.610022 
L 385.109321 300.376508 
L 385.373624 307.093097 
L 385.637927 309.043075 
L 385.90223 328.601183 
L 386.166532 321.884594 
L 386.430835 336.767756 
L 386.695138 322.026259 
L 386.959441 331.634482 
L 387.223744 317.192981 
L 387.488047 310.026397 
L 387.75235 330.676159 
L 388.016653 321.067937 
L 388.280955 327.784526 
L 388.545258 325.834548 
L 388.809561 333.576126 
L 389.073864 318.692964 
L 389.338167 333.576126 
L 389.60247 197.744355 
L 389.866773 184.152844 
L 390.131076 184.561173 
L 390.659681 224.21905 
L 390.923984 214.610827 
L 391.188287 194.461059 
L 391.45259 215.110822 
L 391.981196 231.768963 
L 392.245499 211.669194 
L 392.509801 225.252372 
L 392.774104 306.068109 
L 393.038407 320.50961 
L 393.30271 310.901387 
L 393.567013 318.642965 
L 393.831316 302.876479 
L 394.095619 304.826457 
L 394.359922 291.234946 
L 394.624224 291.643275 
L 394.888527 284.926685 
L 395.15283 271.651838 
L 395.681436 303.718136 
L 396.210042 273.993478 
L 396.474344 274.38514 
L 396.738647 260.310302 
L 397.267253 259.510311 
L 397.531556 238.860548 
L 397.795859 239.252211 
L 398.060162 246.418795 
L 398.588767 210.06088 
L 398.85307 215.23582 
L 399.381676 247.560448 
L 399.645979 230.660643 
L 399.910282 244.735481 
L 400.174585 251.45207 
L 400.70319 219.127442 
L 401.231796 184.902835 
L 401.496099 203.635953 
L 401.760402 188.752791 
L 402.024705 181.011214 
L 402.289008 189.927778 
L 402.553311 176.277935 
L 403.081916 209.669217 
L 403.346219 217.410795 
L 403.610522 238.060558 
L 403.874825 219.32744 
L 404.139128 219.735768 
L 404.667734 254.327037 
L 404.932036 236.70224 
L 405.196339 242.285509 
L 405.724945 271.910168 
L 405.989248 257.168671 
L 406.253551 270.818514 
L 406.517854 263.076937 
L 407.046459 303.284808 
L 407.310762 294.368244 
L 407.575065 293.976581 
L 407.839368 292.026604 
L 408.103671 272.468495 
L 408.367974 286.543334 
L 409.160882 244.735481 
L 409.425185 244.327152 
L 409.689488 230.252314 
L 409.953791 247.877111 
L 410.218094 240.710527 
L 410.7467 264.668585 
L 411.011002 265.060247 
L 411.275305 278.335095 
L 411.539608 262.568609 
L 412.068214 290.593287 
L 412.59682 262.568609 
L 412.861123 241.918847 
L 413.125425 289.401634 
L 413.389728 288.993305 
L 413.654031 294.309911 
L 413.918334 237.01057 
L 414.711243 279.91841 
L 414.975546 279.510081 
L 415.239848 295.276566 
L 415.504151 295.684895 
L 415.768454 314.418013 
L 416.032757 301.143166 
L 416.29706 281.043397 
L 416.561363 274.326807 
L 416.825666 279.643413 
L 417.089969 293.718251 
L 417.618574 308.626413 
L 417.882877 295.043236 
L 418.14718 287.876652 
L 418.675786 328.084523 
L 418.940089 327.676194 
L 419.204392 329.626172 
L 419.9973 375.583977 
L 420.261603 367.842399 
L 420.525906 347.692631 
L 420.790209 248.135442 
L 421.054512 259.61031 
L 421.318814 245.168809 
L 421.583117 238.45222 
L 421.84742 245.168809 
L 422.111723 245.168809 
L 422.640329 255.635356 
L 422.904632 253.160384 
L 423.433237 283.001708 
L 423.69754 268.926869 
L 424.226146 303.101477 
L 424.490449 305.051454 
L 424.754752 319.492955 
L 425.019055 301.868157 
L 425.283358 302.25982 
L 425.54766 287.818319 
L 425.811963 243.502162 
L 426.076266 224.769044 
L 426.340569 244.327152 
L 426.604872 229.885652 
L 426.869175 244.627149 
L 427.133478 225.06904 
L 427.397781 230.652309 
L 427.926386 259.168648 
L 428.190689 253.852043 
L 428.454992 239.410542 
L 428.719295 252.993719 
L 428.983598 260.160304 
L 429.247901 240.010535 
L 429.512204 240.418864 
L 430.040809 225.602368 
L 430.305112 210.719205 
L 430.569415 212.669183 
L 430.833718 207.494242 
L 431.098021 215.144154 
L 432.155232 290.534954 
L 433.476747 216.360807 
L 434.533958 271.318509 
L 434.798261 271.726837 
L 435.062564 251.627068 
L 435.326867 265.210246 
L 435.59117 285.360014 
L 436.648381 234.085603 
L 436.912684 247.668781 
L 437.176987 232.385623 
L 437.969895 288.018317 
L 438.498501 253.518713 
L 438.762804 233.960605 
L 439.29141 215.435818 
L 439.555713 227.919008 
L 439.820016 207.269245 
L 440.084318 213.985834 
L 440.348621 233.543943 
L 440.612924 213.394175 
L 440.877227 232.127293 
L 441.14153 217.685792 
L 441.405833 238.335554 
L 441.670136 247.252119 
L 441.934439 240.535529 
L 442.198741 240.127201 
L 442.727347 269.485196 
L 443.520256 248.368772 
L 443.784559 282.951708 
L 444.048862 268.635206 
L 444.577467 295.393232 
L 444.84177 280.651735 
L 445.106073 294.968237 
L 445.370376 280.526736 
L 445.634679 272.876824 
L 445.898982 278.19343 
L 446.163285 262.910272 
L 446.427587 255.168694 
L 446.69189 243.693826 
L 446.956193 257.277003 
L 447.220496 250.560414 
L 447.484799 263.835261 
L 447.749102 258.518656 
L 448.277707 292.151602 
L 448.54201 305.743113 
L 448.806313 285.09335 
L 449.599222 319.592954 
L 449.863525 324.909559 
L 450.127828 305.351451 
L 450.39213 314.268015 
L 450.656433 299.951513 
L 450.920736 294.634907 
L 451.713645 239.960536 
L 452.242251 214.902491 
L 452.506553 222.552403 
L 452.770856 236.993903 
L 453.035159 235.043926 
L 453.299462 246.518794 
L 453.563765 248.468771 
L 454.092371 218.744113 
L 454.356674 312.576368 
L 454.620976 298.259866 
L 454.885279 291.543276 
L 455.149582 293.493254 
L 455.678188 262.285279 
L 455.942491 269.001869 
L 456.206794 283.076707 
L 456.735399 251.435404 
L 456.999702 265.018581 
L 457.528308 230.57731 
L 458.056914 259.63531 
L 458.321217 260.043638 
L 458.58552 253.327049 
L 458.849822 272.885157 
L 459.378428 237.918893 
L 459.907034 272.751825 
L 460.171337 263.835261 
L 460.43564 250.185418 
L 461.228548 266.201901 
L 461.492851 266.201901 
L 462.021457 296.226556 
L 462.28576 289.509966 
L 462.814365 320.159614 
L 463.078668 305.418117 
L 463.607274 338.592735 
L 463.871577 325.009558 
L 464.400183 359.309164 
L 464.928788 322.892916 
L 465.457394 305.634781 
L 465.986 342.051029 
L 466.250303 327.609528 
L 466.514606 340.092718 
L 467.043211 307.76809 
L 467.83612 329.859502 
L 468.100423 344.301003 
L 468.364726 331.026155 
L 468.629029 344.609333 
L 468.893332 333.134465 
L 469.157634 342.051029 
L 469.421937 333.134465 
L 469.68624 333.526127 
L 469.950543 315.901329 
L 470.214846 330.642827 
L 470.479149 337.359416 
L 470.743452 351.800917 
L 471.007755 336.517759 
L 471.272057 345.434323 
L 471.53636 231.752297 
L 471.800663 251.202073 
L 472.329269 218.052454 
L 472.593572 224.769044 
L 472.857875 210.694206 
L 473.122177 230.252314 
L 473.38648 212.627517 
L 473.650783 213.019179 
L 473.915086 199.744332 
L 474.179389 213.81917 
L 474.443692 193.169407 
L 474.707995 208.54423 
L 474.972298 196.177706 
L 475.2366 210.619206 
L 475.500903 215.052489 
L 476.029509 199.419335 
L 476.293812 234.10227 
L 477.351023 306.118109 
L 477.615326 292.04327 
L 477.879629 297.218211 
L 478.143932 317.367979 
L 478.408235 316.959651 
L 478.672538 311.376381 
L 478.936841 328.276187 
L 479.201144 335.442771 
L 480.258355 273.051822 
L 480.786961 307.226429 
L 481.051264 322.992914 
L 481.315567 302.343152 
L 481.579869 293.426588 
L 481.844172 293.834916 
L 482.372778 322.701251 
L 483.165687 279.218418 
L 483.42999 278.810089 
L 483.694292 290.284957 
L 483.958595 282.635045 
L 484.222898 289.351635 
L 484.751504 277.31844 
L 485.015807 254.002041 
L 485.28011 253.593712 
L 485.544412 251.643735 
L 485.808715 271.793503 
L 486.073018 257.352003 
L 486.337321 236.70224 
L 486.601624 229.052328 
L 486.865927 244.818813 
L 487.13023 239.235544 
L 487.394533 225.585701 
L 487.923138 244.227153 
L 488.187441 227.327348 
L 488.451744 247.427117 
L 488.716047 242.110511 
L 488.98035 276.601781 
L 489.244653 262.285279 
L 489.508956 263.293601 
L 489.773258 263.70193 
L 490.301864 295.043236 
L 490.83047 265.66024 
L 491.094773 285.218349 
L 491.623379 250.127086 
L 491.887681 243.410496 
L 492.151984 244.577149 
L 492.416287 256.052017 
L 493.209196 212.594184 
L 493.473499 227.035684 
L 493.737802 218.11912 
L 494.002104 313.20136 
L 494.266407 324.676228 
L 494.53071 307.776423 
L 494.795013 322.217923 
L 495.323619 294.501575 
L 495.852225 253.20205 
L 496.116527 251.252073 
L 496.38083 265.693573 
L 496.909436 240.143867 
L 497.173739 251.618735 
L 497.438042 240.143867 
L 497.702345 247.310451 
L 498.23095 225.910697 
L 498.495253 227.860675 
L 498.759556 218.252452 
L 499.288162 259.051983 
L 499.552465 258.660321 
L 499.816768 275.560127 
L 500.08107 255.460358 
L 500.345373 276.11012 
L 500.873979 295.2349 
L 501.138282 293.284923 
L 501.402585 298.459863 
L 501.666888 300.409841 
L 501.931191 293.243257 
L 502.195493 272.593494 
L 502.459796 270.643516 
L 502.724099 285.385014 
L 502.988402 265.235245 
L 503.517008 297.55154 
L 503.781311 306.468104 
L 504.045614 320.542943 
L 504.309916 305.801445 
L 504.574219 305.801445 
L 504.838522 320.542943 
L 505.102825 305.65978 
L 505.367128 225.6607 
L 506.424339 299.568184 
L 506.688642 299.159855 
L 506.952945 299.568184 
L 507.217248 307.218096 
L 507.481551 320.809606 
L 507.745854 313.159694 
L 508.010157 299.568184 
L 508.27446 304.743124 
L 508.538762 284.593356 
L 508.803065 304.743124 
L 509.331671 269.760193 
L 509.595974 269.368531 
L 510.12458 299.393186 
L 510.388882 294.218245 
L 511.181791 325.184556 
L 511.446094 334.10112 
L 511.710397 332.151143 
L 511.9747 352.250911 
L 512.503305 315.834663 
L 512.767608 306.226441 
L 513.031911 319.809618 
L 513.296214 305.493116 
L 513.560517 321.259601 
L 513.82482 320.851272 
L 514.089123 301.293164 
L 514.353426 308.943076 
L 514.617728 323.017914 
L 514.882031 302.918145 
L 515.146334 323.067914 
L 515.67494 293.709918 
L 515.939243 288.534977 
L 516.203546 280.7934 
L 516.467849 263.168602 
L 517.260757 239.293877 
L 517.52506 232.127293 
L 517.789363 299.193188 
L 518.317969 286.443335 
L 518.582272 279.726745 
L 518.846574 286.89333 
L 519.110877 273.243486 
L 519.37518 273.243486 
L 519.903786 291.434944 
L 520.168089 239.885537 
L 520.432392 224.119051 
L 520.696695 239.402209 
L 520.960997 222.502403 
L 522.018209 252.218728 
L 522.282512 236.935571 
L 522.546815 231.76063 
L 522.811118 263.851928 
L 523.07542 250.593747 
L 523.339723 265.476909 
L 523.604026 251.160407 
L 523.868329 280.160074 
L 524.132632 278.210096 
L 524.396935 285.860008 
L 524.661238 300.301509 
L 525.454146 260.79363 
L 525.718449 260.79363 
L 525.982752 275.23513 
L 526.247055 255.677022 
L 526.511358 264.593586 
L 526.775661 252.110396 
L 527.304266 252.110396 
L 527.832872 217.019133 
L 528.097175 230.610643 
L 528.361478 250.760412 
L 528.625781 244.043822 
L 529.418689 202.285969 
L 529.682992 215.869146 
L 529.947295 221.452415 
L 530.211598 236.193912 
L 531.004507 181.852871 
L 531.268809 181.444542 
L 531.797415 206.51092 
L 532.061718 206.902583 
L 532.590324 237.077236 
L 532.854627 237.077236 
L 533.11893 220.17743 
L 533.383232 214.594161 
L 533.647535 205.677597 
L 534.176141 245.885468 
L 534.440444 251.202073 
L 534.704747 253.152051 
L 534.96905 251.202073 
L 535.233353 265.643574 
L 535.497655 267.593551 
L 536.026261 300.22651 
L 536.290564 284.460024 
L 537.083473 339.60939 
L 537.347775 339.217728 
L 537.612078 321.592931 
L 537.876381 330.509495 
L 538.140684 316.067994 
L 538.404987 295.418232 
L 538.66929 287.768319 
L 538.933593 267.118557 
L 539.462198 246.727125 
L 539.726501 244.777147 
L 539.990804 224.627379 
L 540.255107 219.310773 
L 540.51941 204.569276 
L 540.783713 204.977605 
L 541.312319 217.0108 
L 541.840924 186.927812 
L 542.105227 193.502737 
L 542.36953 193.502737 
L 542.633833 204.319279 
L 542.898136 204.319279 
L 543.162439 204.710941 
L 543.426742 204.302612 
L 543.691044 213.219177 
L 543.955347 213.219177 
L 544.21965 204.302612 
L 544.483953 214.844158 
L 544.748256 214.844158 
L 545.012559 210.135879 
L 545.541165 238.510552 
L 545.805467 233.335612 
L 546.06977 213.185844 
L 546.334073 213.185844 
L 546.598376 228.952329 
L 546.862679 223.36906 
L 547.126982 222.677401 
L 547.391285 227.852342 
L 547.655588 227.852342 
L 547.91989 227.46068 
L 548.184193 227.46068 
L 548.712799 267.710217 
L 548.977102 275.451794 
L 549.241405 275.843457 
L 549.505708 290.726619 
L 549.77001 274.960133 
L 550.034313 289.701631 
L 550.298616 276.118453 
L 550.562919 281.701723 
L 550.827222 281.701723 
L 551.091525 296.143223 
L 551.620131 271.393508 
L 552.413039 321.401266 
L 552.677342 321.809595 
L 552.941645 341.959363 
L 553.205948 210.01088 
L 553.998856 255.977018 
L 554.263159 255.977018 
L 554.527462 273.601816 
L 555.056068 242.977168 
L 555.320371 258.743653 
L 555.584674 251.577069 
L 555.848977 237.985559 
L 556.113279 237.985559 
L 556.377582 217.88579 
L 556.641885 217.88579 
L 556.906188 225.052374 
L 557.170491 206.319256 
L 557.434794 208.269234 
L 557.699097 202.685964 
L 557.9634 222.785733 
L 558.492005 195.061052 
L 558.756308 189.886112 
L 559.020611 198.802676 
L 559.284914 198.802676 
L 559.549217 219.452438 
L 560.077823 205.219269 
L 560.342125 218.869112 
L 560.606428 205.219269 
L 561.135034 234.402266 
L 561.66364 220.519093 
L 561.927943 234.10227 
L 562.192245 221.61908 
L 562.456548 234.10227 
L 562.720851 233.693941 
L 562.985154 246.968789 
L 563.51376 246.968789 
L 563.778063 232.527288 
L 564.042366 249.427094 
L 564.306668 257.077006 
L 564.835274 226.427358 
L 565.099577 226.427358 
L 565.36388 226.035696 
L 565.628183 226.444025 
L 566.156789 255.80202 
L 566.421091 241.36052 
L 566.685394 252.835388 
L 566.949697 253.22705 
L 567.214 278.093431 
L 567.478303 285.835008 
L 567.742606 271.393508 
L 568.006909 273.343485 
L 568.271212 266.176901 
L 568.535514 273.343485 
L 568.799817 287.784986 
L 569.06412 273.710148 
L 569.592726 238.618885 
L 569.857029 252.210395 
L 570.121332 272.310164 
L 570.385635 252.752055 
L 570.649937 245.585471 
L 570.91424 225.485702 
L 571.442846 266.235234 
L 572.500058 196.127706 
L 573.292966 241.352186 
L 573.557269 241.352186 
L 574.350178 297.434875 
L 574.61448 297.434875 
L 575.143086 312.251371 
L 575.407389 305.084787 
L 575.671692 305.084787 
L 575.935995 303.134809 
L 576.464601 266.085235 
L 576.728903 286.185004 
L 576.993206 271.743504 
L 577.257509 284.226694 
L 577.521812 269.910191 
L 577.786115 284.351692 
L 578.050418 291.518276 
L 578.314721 271.418507 
L 578.579024 271.418507 
L 578.843326 285.493346 
L 579.107629 270.210188 
L 579.371932 270.210188 
L 579.636235 265.035248 
L 580.164841 265.035248 
L 580.429144 279.35175 
L 580.693447 265.768572 
L 580.957749 279.418415 
L 581.222052 251.902065 
L 581.486355 266.643562 
L 581.750658 261.468622 
L 582.279264 226.577356 
L 582.543567 226.577356 
L 582.80787 246.727125 
L 583.336475 246.727125 
L 583.865081 281.818388 
L 584.129384 296.559885 
L 584.393687 296.559885 
L 584.65799 305.476449 
L 584.922293 290.193292 
L 585.186595 310.843054 
L 585.450898 310.434726 
L 585.715201 295.693228 
L 585.979504 303.434806 
L 586.243807 295.693228 
L 586.50811 295.693228 
L 587.301018 248.502104 
L 587.565321 254.085373 
L 587.829624 238.318888 
L 588.093927 243.635494 
L 588.35823 244.043822 
L 588.622533 244.043822 
L 588.886836 224.485714 
L 589.151138 242.110511 
L 589.415441 242.110511 
L 589.944047 201.860974 
L 590.20835 201.860974 
L 590.472653 201.452645 
L 590.736956 201.452645 
L 591.529864 251.177074 
L 591.794167 233.552276 
L 592.05847 228.235671 
L 592.322773 235.885583 
L 592.851379 202.510966 
L 593.115682 188.069466 
L 593.644287 216.319141 
L 593.90859 216.319141 
L 594.172893 201.87764 
L 594.437196 201.87764 
L 594.701499 207.052581 
L 594.965802 227.15235 
L 595.230105 226.760688 
L 595.494407 221.585747 
L 595.75871 221.585747 
L 596.551619 269.110201 
L 596.815922 269.518529 
L 597.080225 276.685114 
L 597.344528 261.801951 
L 597.60883 261.801951 
L 597.873133 269.543529 
L 598.137436 267.593551 
L 598.401739 272.910157 
L 598.930345 243.527161 
L 599.194648 229.943984 
L 599.458951 229.943984 
L 599.723253 224.627379 
L 599.987556 242.252176 
L 600.251859 223.519058 
L 600.780465 223.519058 
L 601.044768 207.752573 
L 601.573373 207.752573 
L 601.837676 217.360796 
L 602.101979 222.677401 
L 602.366282 222.677401 
L 602.630585 213.069178 
L 603.159191 213.069178 
L 603.423494 232.593954 
L 603.687796 232.593954 
L 603.952099 234.543931 
L 604.216402 234.543931 
L 604.480705 243.460496 
L 604.745008 241.510518 
L 605.009311 241.510518 
L 605.273614 243.460496 
L 605.537917 257.110339 
L 606.066522 244.052155 
L 606.330825 249.227096 
L 606.595128 234.785595 
L 606.859431 229.202326 
L 607.123734 242.785503 
L 607.65234 206.427588 
L 608.180945 206.427588 
L 608.445248 198.777676 
L 608.709551 179.219567 
L 609.766763 179.219567 
L 610.031065 172.052983 
L 610.295368 172.052983 
L 610.559671 173.061305 
L 611.088277 187.519472 
L 611.35258 204.419278 
L 611.616883 204.419278 
L 611.881186 190.102776 
L 612.409791 190.102776 
L 612.674094 189.694447 
L 612.938397 198.961007 
L 613.2027 198.961007 
L 613.467003 202.21097 
L 613.731306 202.21097 
L 613.995608 195.49438 
L 614.259911 195.886043 
L 614.524214 195.886043 
L 614.788517 190.569437 
L 615.05282 170.419669 
L 615.317123 170.419669 
L 615.581426 163.253084 
L 615.845729 163.661413 
L 616.110031 163.661413 
L 616.374334 170.827997 
L 617.431546 170.827997 
L 617.695849 182.302865 
L 617.960152 182.302865 
L 618.488757 181.502875 
L 618.75306 197.26936 
L 619.017363 183.686183 
L 619.281666 183.686183 
L 619.545969 189.269452 
L 621.396089 189.269452 
L 621.660392 182.102868 
L 622.188998 182.102868 
L 622.4533 182.49453 
L 623.510512 182.49453 
L 623.774815 180.544552 
L 624.039118 180.544552 
L 624.303421 180.952881 
L 624.567723 180.952881 
L 624.832026 186.269486 
L 625.096329 172.619643 
L 625.624935 172.619643 
L 625.889238 179.786228 
L 626.153541 159.686459 
L 627.210752 159.686459 
L 627.475055 157.569816 
L 628.267964 157.569816 
L 628.532266 150.403232 
L 630.646689 150.403232 
L 630.910992 165.286394 
L 631.703901 165.286394 
L 631.968204 152.286544 
L 632.232507 157.461484 
L 632.49681 157.461484 
L 632.761112 171.777986 
L 633.025415 171.777986 
L 633.289718 157.036489 
L 633.554021 151.719884 
L 635.139838 151.719884 
L 635.404141 140.245016 
L 636.19705 140.245016 
L 636.725656 123.678539 
L 636.989958 138.961697 
L 638.840078 138.961697 
L 639.104381 140.911675 
L 639.368684 126.028512 
L 640.425896 126.028512 
L 640.690199 131.345118 
L 640.954501 131.345118 
L 641.218804 116.903617 
L 641.483107 116.903617 
L 641.74741 116.495289 
L 642.011713 116.495289 
L 642.276016 111.178683 
L 642.804622 111.178683 
L 643.068924 118.836928 
L 643.861833 118.836928 
L 644.126136 126.003513 
L 644.654742 126.003513 
L 644.919045 126.411841 
L 645.183347 126.411841 
L 645.44765 126.003513 
L 647.033468 126.003513 
L 647.29777 132.336773 
L 647.826376 132.336773 
L 648.090679 145.611621 
L 651.262313 145.611621 
L 651.526616 150.928226 
L 654.433948 150.928226 
L 654.698251 143.761642 
L 654.962554 143.761642 
L 655.226857 144.16997 
L 655.755462 144.16997 
L 656.019765 128.886813 
L 656.284068 128.886813 
L 656.548371 115.611965 
L 658.662794 115.611965 
L 658.927097 117.561943 
L 659.455703 117.561943 
L 659.720005 107.95372 
L 660.512914 107.95372 
L 660.777217 102.637115 
L 736.103536 102.637115 
L 736.367838 101.187131 
L 737.160747 101.187131 
L 737.42505 94.470542 
L 749.318679 94.470542 
L 749.582982 88.887273 
L 871.690909 88.887273 
L 871.690909 88.887273 
" style="fill:none;stroke:#8dd3c7;stroke-linecap:square;stroke-width:1.5;"/>
   </g>
   <g id="line2d_13">
    <path clip-path="url(#p5dd8bc573b)" d="M 161.509091 214.352497 
L 161.773394 214.352497 
L 162.037697 211.694194 
L 164.945028 211.694194 
L 165.209331 211.335865 
L 165.473634 209.385887 
L 165.737937 209.385887 
L 166.00224 206.419255 
L 188.467984 206.419255 
L 188.732287 187.786136 
L 240.007044 187.786136 
L 240.271347 186.069489 
L 243.707284 186.069489 
L 243.971587 183.727849 
L 349.957039 183.727849 
L 350.221342 174.086293 
L 609.766763 174.086293 
L 610.031065 172.052983 
L 614.788517 172.052983 
L 615.05282 170.419669 
L 615.317123 170.419669 
L 615.581426 163.253084 
L 625.889238 163.253084 
L 626.153541 159.686459 
L 627.210752 159.686459 
L 627.475055 157.569816 
L 628.267964 157.569816 
L 628.532266 150.403232 
L 635.139838 150.403232 
L 635.404141 140.245016 
L 636.19705 140.245016 
L 636.725656 123.678539 
L 640.954501 123.678539 
L 641.218804 116.903617 
L 641.483107 116.903617 
L 641.74741 116.495289 
L 642.011713 116.495289 
L 642.276016 111.178683 
L 659.455703 111.178683 
L 659.720005 107.95372 
L 660.512914 107.95372 
L 660.777217 102.637115 
L 736.103536 102.637115 
L 736.367838 101.187131 
L 737.160747 101.187131 
L 737.42505 94.470542 
L 749.318679 94.470542 
L 749.582982 88.887273 
L 871.690909 88.887273 
L 871.690909 88.887273 
" style="fill:none;stroke:#feffb3;stroke-linecap:square;stroke-width:1.5;"/>
   </g>
   <g id="line2d_14">
    <path clip-path="url(#p5dd8bc573b)" d="M 161.509091 295.316566 
L 163.359211 295.316566 
L 163.623514 307.074025 
L 165.473634 307.074025 
L 165.737937 318.099743 
L 167.588057 318.099743 
L 167.85236 328.43926 
L 169.70248 328.43926 
L 169.966783 338.135282 
L 171.816903 338.135282 
L 172.081206 347.227859 
L 173.931326 347.227859 
L 174.195629 355.754547 
L 176.045749 355.754547 
L 176.310052 363.750565 
L 178.160172 363.750565 
L 178.424475 371.24894 
L 180.274595 371.24894 
L 180.538898 378.280642 
L 182.389018 378.280642 
L 182.653321 384.874717 
L 184.503441 384.874717 
L 184.767744 391.058401 
L 186.617864 391.058401 
L 186.882167 396.857234 
L 188.732287 396.857234 
L 188.99659 402.295169 
L 190.84671 402.295169 
L 191.111013 407.394667 
L 192.961133 407.394667 
L 193.225436 412.17679 
L 195.075556 412.17679 
L 195.339859 416.661291 
L 197.189979 416.661291 
L 197.454282 420.866693 
L 199.304402 420.866693 
L 199.568705 424.810366 
L 201.418825 424.810366 
L 201.683128 428.5086 
L 203.533248 428.5086 
L 203.79755 431.976668 
L 205.647671 431.976668 
L 205.911973 435.228896 
L 207.762094 435.228896 
L 208.026396 438.278718 
L 209.876517 438.278718 
L 210.140819 441.138729 
L 211.99094 441.138729 
L 212.255242 443.820744 
L 214.105363 443.820744 
L 214.369665 446.33584 
L 216.219785 446.33584 
L 216.484088 448.694405 
L 218.334208 448.694405 
L 218.598511 450.906182 
L 220.448631 450.906182 
L 220.712934 452.980306 
L 222.563054 452.980306 
L 222.827357 454.925344 
L 224.677477 454.925344 
L 224.94178 456.749329 
L 226.7919 456.749329 
L 227.056203 458.459797 
L 228.906323 458.459797 
L 229.170626 460.063811 
L 231.020746 460.063811 
L 231.285049 461.567997 
L 233.135169 461.567997 
L 233.399472 462.978568 
L 235.249592 462.978568 
L 235.513895 464.30135 
L 237.364015 464.30135 
L 237.628318 465.541807 
L 239.478438 465.541807 
L 239.742741 466.705062 
L 241.592861 466.705062 
L 241.857164 467.795921 
L 243.707284 467.795921 
L 243.971587 468.818888 
L 245.821707 468.818888 
L 246.08601 469.77819 
L 247.93613 469.77819 
L 248.200433 470.677788 
L 250.050553 470.677788 
L 250.314856 471.521398 
L 252.164976 471.521398 
L 252.429279 472.312506 
L 254.279399 472.312506 
L 254.543702 473.054377 
L 256.393822 473.054377 
L 256.658125 473.750077 
L 258.508245 473.750077 
L 258.772548 474.40248 
L 260.622668 474.40248 
L 260.886971 475.014279 
L 262.737091 475.014279 
L 263.001394 475.588002 
L 264.851514 475.588002 
L 265.115817 476.126018 
L 266.965937 476.126018 
L 267.23024 476.63055 
L 269.08036 476.63055 
L 269.344663 477.103682 
L 271.194783 477.103682 
L 271.459086 477.547368 
L 273.309206 477.547368 
L 273.573509 477.963441 
L 275.423629 477.963441 
L 275.687932 478.353619 
L 277.538052 478.353619 
L 277.802355 478.719513 
L 279.652475 478.719513 
L 279.916778 479.062636 
L 281.766898 479.062636 
L 282.031201 479.384404 
L 283.881321 479.384404 
L 284.145624 479.686146 
L 285.995744 479.686146 
L 286.260047 479.969109 
L 288.110167 479.969109 
L 288.37447 480.234461 
L 290.22459 480.234461 
L 290.488893 480.483298 
L 292.339013 480.483298 
L 292.603316 480.716649 
L 294.453436 480.716649 
L 294.717739 480.935477 
L 296.567859 480.935477 
L 296.832162 481.140686 
L 298.682282 481.140686 
L 298.946585 481.333124 
L 300.796705 481.333124 
L 301.061008 481.513585 
L 302.911128 481.513585 
L 303.175431 481.682814 
L 305.025551 481.682814 
L 305.289854 481.841512 
L 307.139974 481.841512 
L 307.404276 481.990332 
L 309.254397 481.990332 
L 309.518699 482.129891 
L 311.36882 482.129891 
L 311.633122 482.260764 
L 313.483243 482.260764 
L 313.747545 482.383492 
L 315.597666 482.383492 
L 316.126271 482.498581 
L 319.826511 482.606508 
L 320.355117 482.707718 
L 324.055357 482.802629 
L 324.583963 482.891634 
L 328.284203 482.975098 
L 328.812809 483.053369 
L 332.513049 483.126768 
L 333.041655 483.195599 
L 336.741895 483.260146 
L 337.270501 483.320676 
L 343.085164 483.430669 
L 343.878073 483.480586 
L 349.428433 483.571294 
L 350.221342 483.612459 
L 357.886125 483.721211 
L 358.943337 483.753046 
L 368.45824 483.861768 
L 369.779754 483.884855 
L 381.144778 483.980445 
L 383.523504 484.01087 
L 406.517854 484.116044 
L 411.275305 484.136502 
L 871.690909 484.232727 
L 871.690909 484.232727 
" style="fill:none;stroke:#bfbbd9;stroke-linecap:square;stroke-width:1.5;"/>
   </g>
   <g id="patch_3">
    <path d="M 126 504 
L 126 69.12 
" style="fill:none;stroke:#ffffff;stroke-linecap:square;stroke-linejoin:miter;stroke-width:0.8;"/>
   </g>
   <g id="patch_4">
    <path d="M 907.2 504 
L 907.2 69.12 
" style="fill:none;stroke:#ffffff;stroke-linecap:square;stroke-linejoin:miter;stroke-width:0.8;"/>
   </g>
   <g id="patch_5">
    <path d="M 126 504 
L 907.2 504 
" style="fill:none;stroke:#ffffff;stroke-linecap:square;stroke-linejoin:miter;stroke-width:0.8;"/>
   </g>
   <g id="patch_6">
    <path d="M 126 69.12 
L 907.2 69.12 
" style="fill:none;stroke:#ffffff;stroke-linecap:square;stroke-linejoin:miter;stroke-width:0.8;"/>
   </g>
   <g id="text_13">
    <!-- instance 13 with error 0.0 -->
    <g style="fill:#ffffff;" transform="translate(439.126875 63.12)scale(0.12 -0.12)">
     <defs>
      <path d="M 2834 3397 
L 2834 2853 
Q 2591 2978 2328 3040 
Q 2066 3103 1784 3103 
Q 1356 3103 1142 2972 
Q 928 2841 928 2578 
Q 928 2378 1081 2264 
Q 1234 2150 1697 2047 
L 1894 2003 
Q 2506 1872 2764 1633 
Q 3022 1394 3022 966 
Q 3022 478 2636 193 
Q 2250 -91 1575 -91 
Q 1294 -91 989 -36 
Q 684 19 347 128 
L 347 722 
Q 666 556 975 473 
Q 1284 391 1588 391 
Q 1994 391 2212 530 
Q 2431 669 2431 922 
Q 2431 1156 2273 1281 
Q 2116 1406 1581 1522 
L 1381 1569 
Q 847 1681 609 1914 
Q 372 2147 372 2553 
Q 372 3047 722 3315 
Q 1072 3584 1716 3584 
Q 2034 3584 2315 3537 
Q 2597 3491 2834 3397 
z
" id="DejaVuSans-73" transform="scale(0.015625)"/>
      <path d="M 3122 3366 
L 3122 2828 
Q 2878 2963 2633 3030 
Q 2388 3097 2138 3097 
Q 1578 3097 1268 2742 
Q 959 2388 959 1747 
Q 959 1106 1268 751 
Q 1578 397 2138 397 
Q 2388 397 2633 464 
Q 2878 531 3122 666 
L 3122 134 
Q 2881 22 2623 -34 
Q 2366 -91 2075 -91 
Q 1284 -91 818 406 
Q 353 903 353 1747 
Q 353 2603 823 3093 
Q 1294 3584 2113 3584 
Q 2378 3584 2631 3529 
Q 2884 3475 3122 3366 
z
" id="DejaVuSans-63" transform="scale(0.015625)"/>
      <path id="DejaVuSans-20" transform="scale(0.015625)"/>
      <path d="M 269 3500 
L 844 3500 
L 1563 769 
L 2278 3500 
L 2956 3500 
L 3675 769 
L 4391 3500 
L 4966 3500 
L 4050 0 
L 3372 0 
L 2619 2869 
L 1863 0 
L 1184 0 
L 269 3500 
z
" id="DejaVuSans-77" transform="scale(0.015625)"/>
      <path d="M 3513 2113 
L 3513 0 
L 2938 0 
L 2938 2094 
Q 2938 2591 2744 2837 
Q 2550 3084 2163 3084 
Q 1697 3084 1428 2787 
Q 1159 2491 1159 1978 
L 1159 0 
L 581 0 
L 581 4863 
L 1159 4863 
L 1159 2956 
Q 1366 3272 1645 3428 
Q 1925 3584 2291 3584 
Q 2894 3584 3203 3211 
Q 3513 2838 3513 2113 
z
" id="DejaVuSans-68" transform="scale(0.015625)"/>
      <path d="M 684 794 
L 1344 794 
L 1344 0 
L 684 0 
L 684 794 
z
" id="DejaVuSans-2e" transform="scale(0.015625)"/>
     </defs>
     <use xlink:href="#DejaVuSans-69"/>
     <use x="27.783203" xlink:href="#DejaVuSans-6e"/>
     <use x="91.162109" xlink:href="#DejaVuSans-73"/>
     <use x="143.261719" xlink:href="#DejaVuSans-74"/>
     <use x="182.470703" xlink:href="#DejaVuSans-61"/>
     <use x="243.75" xlink:href="#DejaVuSans-6e"/>
     <use x="307.128906" xlink:href="#DejaVuSans-63"/>
     <use x="362.109375" xlink:href="#DejaVuSans-65"/>
     <use x="423.632812" xlink:href="#DejaVuSans-20"/>
     <use x="455.419922" xlink:href="#DejaVuSans-31"/>
     <use x="519.042969" xlink:href="#DejaVuSans-33"/>
     <use x="582.666016" xlink:href="#DejaVuSans-20"/>
     <use x="614.453125" xlink:href="#DejaVuSans-77"/>
     <use x="696.240234" xlink:href="#DejaVuSans-69"/>
     <use x="724.023438" xlink:href="#DejaVuSans-74"/>
     <use x="763.232422" xlink:href="#DejaVuSans-68"/>
     <use x="826.611328" xlink:href="#DejaVuSans-20"/>
     <use x="858.398438" xlink:href="#DejaVuSans-65"/>
     <use x="919.921875" xlink:href="#DejaVuSans-72"/>
     <use x="959.285156" xlink:href="#DejaVuSans-72"/>
     <use x="998.148438" xlink:href="#DejaVuSans-6f"/>
     <use x="1059.330078" xlink:href="#DejaVuSans-72"/>
     <use x="1100.443359" xlink:href="#DejaVuSans-20"/>
     <use x="1132.230469" xlink:href="#DejaVuSans-30"/>
     <use x="1195.853516" xlink:href="#DejaVuSans-2e"/>
     <use x="1227.640625" xlink:href="#DejaVuSans-30"/>
    </g>
   </g>
   <g id="legend_1">
    <g id="patch_7">
     <path d="M 805.348438 499 
L 900.2 499 
Q 902.2 499 902.2 497 
L 902.2 453.965625 
Q 902.2 451.965625 900.2 451.965625 
L 805.348438 451.965625 
Q 803.348438 451.965625 803.348438 453.965625 
L 803.348438 497 
Q 803.348438 499 805.348438 499 
z
" style="opacity:0.8;stroke:#cccccc;stroke-linejoin:miter;"/>
    </g>
    <g id="line2d_15">
     <path d="M 807.348438 460.064062 
L 827.348438 460.064062 
" style="fill:none;stroke:#8dd3c7;stroke-linecap:square;stroke-width:1.5;"/>
    </g>
    <g id="line2d_16"/>
    <g id="text_14">
     <!-- cost -->
     <g style="fill:#ffffff;" transform="translate(835.348438 463.564062)scale(0.1 -0.1)">
      <use xlink:href="#DejaVuSans-63"/>
      <use x="54.980469" xlink:href="#DejaVuSans-6f"/>
      <use x="116.162109" xlink:href="#DejaVuSans-73"/>
      <use x="168.261719" xlink:href="#DejaVuSans-74"/>
     </g>
    </g>
    <g id="line2d_17">
     <path d="M 807.348438 474.742188 
L 827.348438 474.742188 
" style="fill:none;stroke:#feffb3;stroke-linecap:square;stroke-width:1.5;"/>
    </g>
    <g id="line2d_18"/>
    <g id="text_15">
     <!-- best cost -->
     <g style="fill:#ffffff;" transform="translate(835.348438 478.242188)scale(0.1 -0.1)">
      <defs>
       <path d="M 3116 1747 
Q 3116 2381 2855 2742 
Q 2594 3103 2138 3103 
Q 1681 3103 1420 2742 
Q 1159 2381 1159 1747 
Q 1159 1113 1420 752 
Q 1681 391 2138 391 
Q 2594 391 2855 752 
Q 3116 1113 3116 1747 
z
M 1159 2969 
Q 1341 3281 1617 3432 
Q 1894 3584 2278 3584 
Q 2916 3584 3314 3078 
Q 3713 2572 3713 1747 
Q 3713 922 3314 415 
Q 2916 -91 2278 -91 
Q 1894 -91 1617 61 
Q 1341 213 1159 525 
L 1159 0 
L 581 0 
L 581 4863 
L 1159 4863 
L 1159 2969 
z
" id="DejaVuSans-62" transform="scale(0.015625)"/>
      </defs>
      <use xlink:href="#DejaVuSans-62"/>
      <use x="63.476562" xlink:href="#DejaVuSans-65"/>
      <use x="125" xlink:href="#DejaVuSans-73"/>
      <use x="177.099609" xlink:href="#DejaVuSans-74"/>
      <use x="216.308594" xlink:href="#DejaVuSans-20"/>
      <use x="248.095703" xlink:href="#DejaVuSans-63"/>
      <use x="303.076172" xlink:href="#DejaVuSans-6f"/>
      <use x="364.257812" xlink:href="#DejaVuSans-73"/>
      <use x="416.357422" xlink:href="#DejaVuSans-74"/>
     </g>
    </g>
    <g id="line2d_19">
     <path d="M 807.348438 489.420313 
L 827.348438 489.420313 
" style="fill:none;stroke:#bfbbd9;stroke-linecap:square;stroke-width:1.5;"/>
    </g>
    <g id="line2d_20"/>
    <g id="text_16">
     <!-- temperature -->
     <g style="fill:#ffffff;" transform="translate(835.348438 492.920313)scale(0.1 -0.1)">
      <defs>
       <path d="M 3328 2828 
Q 3544 3216 3844 3400 
Q 4144 3584 4550 3584 
Q 5097 3584 5394 3201 
Q 5691 2819 5691 2113 
L 5691 0 
L 5113 0 
L 5113 2094 
Q 5113 2597 4934 2840 
Q 4756 3084 4391 3084 
Q 3944 3084 3684 2787 
Q 3425 2491 3425 1978 
L 3425 0 
L 2847 0 
L 2847 2094 
Q 2847 2600 2669 2842 
Q 2491 3084 2119 3084 
Q 1678 3084 1418 2786 
Q 1159 2488 1159 1978 
L 1159 0 
L 581 0 
L 581 3500 
L 1159 3500 
L 1159 2956 
Q 1356 3278 1631 3431 
Q 1906 3584 2284 3584 
Q 2666 3584 2933 3390 
Q 3200 3197 3328 2828 
z
" id="DejaVuSans-6d" transform="scale(0.015625)"/>
       <path d="M 1159 525 
L 1159 -1331 
L 581 -1331 
L 581 3500 
L 1159 3500 
L 1159 2969 
Q 1341 3281 1617 3432 
Q 1894 3584 2278 3584 
Q 2916 3584 3314 3078 
Q 3713 2572 3713 1747 
Q 3713 922 3314 415 
Q 2916 -91 2278 -91 
Q 1894 -91 1617 61 
Q 1341 213 1159 525 
z
M 3116 1747 
Q 3116 2381 2855 2742 
Q 2594 3103 2138 3103 
Q 1681 3103 1420 2742 
Q 1159 2381 1159 1747 
Q 1159 1113 1420 752 
Q 1681 391 2138 391 
Q 2594 391 2855 752 
Q 3116 1113 3116 1747 
z
" id="DejaVuSans-70" transform="scale(0.015625)"/>
       <path d="M 544 1381 
L 544 3500 
L 1119 3500 
L 1119 1403 
Q 1119 906 1312 657 
Q 1506 409 1894 409 
Q 2359 409 2629 706 
Q 2900 1003 2900 1516 
L 2900 3500 
L 3475 3500 
L 3475 0 
L 2900 0 
L 2900 538 
Q 2691 219 2414 64 
Q 2138 -91 1772 -91 
Q 1169 -91 856 284 
Q 544 659 544 1381 
z
M 1991 3584 
L 1991 3584 
z
" id="DejaVuSans-75" transform="scale(0.015625)"/>
      </defs>
      <use xlink:href="#DejaVuSans-74"/>
      <use x="39.208984" xlink:href="#DejaVuSans-65"/>
      <use x="100.732422" xlink:href="#DejaVuSans-6d"/>
      <use x="198.144531" xlink:href="#DejaVuSans-70"/>
      <use x="261.621094" xlink:href="#DejaVuSans-65"/>
      <use x="323.144531" xlink:href="#DejaVuSans-72"/>
      <use x="364.257812" xlink:href="#DejaVuSans-61"/>
      <use x="425.537109" xlink:href="#DejaVuSans-74"/>
      <use x="464.746094" xlink:href="#DejaVuSans-75"/>
      <use x="528.125" xlink:href="#DejaVuSans-72"/>
      <use x="566.988281" xlink:href="#DejaVuSans-65"/>
     </g>
    </g>
   </g>
  </g>
 </g>
 <defs>
  <clipPath id="p5dd8bc573b">
   <rect height="434.88" width="781.2" x="126" y="69.12"/>
  </clipPath>
 </defs>
</svg>
