<?xml version="1.0" encoding="utf-8" standalone="no"?>
<!DOCTYPE svg PUBLIC "-//W3C//DTD SVG 1.1//EN"
  "http://www.w3.org/Graphics/SVG/1.1/DTD/svg11.dtd">
<svg height="576pt" version="1.1" viewBox="0 0 1008 576" width="1008pt" xmlns="http://www.w3.org/2000/svg" xmlns:xlink="http://www.w3.org/1999/xlink">
 <metadata>
  <rdf:RDF xmlns:cc="http://creativecommons.org/ns#" xmlns:dc="http://purl.org/dc/elements/1.1/" xmlns:rdf="http://www.w3.org/1999/02/22-rdf-syntax-ns#">
   <cc:Work>
    <dc:type rdf:resource="http://purl.org/dc/dcmitype/StillImage"/>
    <dc:date>2022-01-13T19:11:15.732778</dc:date>
    <dc:format>image/svg+xml</dc:format>
    <dc:creator>
     <cc:Agent>
      <dc:title>Matplotlib v3.4.3, https://matplotlib.org/</dc:title>
     </cc:Agent>
    </dc:creator>
   </cc:Work>
  </rdf:RDF>
 </metadata>
 <defs>
  <style type="text/css">*{stroke-linecap:butt;stroke-linejoin:round;}</style>
 </defs>
 <g id="figure_1">
  <g id="patch_1">
   <path d="M 0 576 
L 1008 576 
L 1008 0 
L 0 0 
z
"/>
  </g>
  <g id="axes_1">
   <g id="patch_2">
    <path d="M 126 504 
L 907.2 504 
L 907.2 69.12 
L 126 69.12 
z
"/>
   </g>
   <g id="matplotlib.axis_1">
    <g id="xtick_1">
     <g id="line2d_1">
      <defs>
       <path d="M 0 0 
L 0 3.5 
" id="m7ada905e79" style="stroke:#ffffff;stroke-width:0.8;"/>
      </defs>
      <g>
       <use style="fill:#ffffff;stroke:#ffffff;stroke-width:0.8;" x="161.509091" xlink:href="#m7ada905e79" y="504"/>
      </g>
     </g>
     <g id="text_1">
      <!-- 0 -->
      <g style="fill:#ffffff;" transform="translate(158.327841 518.598438)scale(0.1 -0.1)">
       <defs>
        <path d="M 2034 4250 
Q 1547 4250 1301 3770 
Q 1056 3291 1056 2328 
Q 1056 1369 1301 889 
Q 1547 409 2034 409 
Q 2525 409 2770 889 
Q 3016 1369 3016 2328 
Q 3016 3291 2770 3770 
Q 2525 4250 2034 4250 
z
M 2034 4750 
Q 2819 4750 3233 4129 
Q 3647 3509 3647 2328 
Q 3647 1150 3233 529 
Q 2819 -91 2034 -91 
Q 1250 -91 836 529 
Q 422 1150 422 2328 
Q 422 3509 836 4129 
Q 1250 4750 2034 4750 
z
" id="DejaVuSans-30" transform="scale(0.015625)"/>
       </defs>
       <use xlink:href="#DejaVuSans-30"/>
      </g>
     </g>
    </g>
    <g id="xtick_2">
     <g id="line2d_2">
      <g>
       <use style="fill:#ffffff;stroke:#ffffff;stroke-width:0.8;" x="303.00776" xlink:href="#m7ada905e79" y="504"/>
      </g>
     </g>
     <g id="text_2">
      <!-- 1000 -->
      <g style="fill:#ffffff;" transform="translate(290.28276 518.598438)scale(0.1 -0.1)">
       <defs>
        <path d="M 794 531 
L 1825 531 
L 1825 4091 
L 703 3866 
L 703 4441 
L 1819 4666 
L 2450 4666 
L 2450 531 
L 3481 531 
L 3481 0 
L 794 0 
L 794 531 
z
" id="DejaVuSans-31" transform="scale(0.015625)"/>
       </defs>
       <use xlink:href="#DejaVuSans-31"/>
       <use x="63.623047" xlink:href="#DejaVuSans-30"/>
       <use x="127.246094" xlink:href="#DejaVuSans-30"/>
       <use x="190.869141" xlink:href="#DejaVuSans-30"/>
      </g>
     </g>
    </g>
    <g id="xtick_3">
     <g id="line2d_3">
      <g>
       <use style="fill:#ffffff;stroke:#ffffff;stroke-width:0.8;" x="444.506428" xlink:href="#m7ada905e79" y="504"/>
      </g>
     </g>
     <g id="text_3">
      <!-- 2000 -->
      <g style="fill:#ffffff;" transform="translate(431.781428 518.598438)scale(0.1 -0.1)">
       <defs>
        <path d="M 1228 531 
L 3431 531 
L 3431 0 
L 469 0 
L 469 531 
Q 828 903 1448 1529 
Q 2069 2156 2228 2338 
Q 2531 2678 2651 2914 
Q 2772 3150 2772 3378 
Q 2772 3750 2511 3984 
Q 2250 4219 1831 4219 
Q 1534 4219 1204 4116 
Q 875 4013 500 3803 
L 500 4441 
Q 881 4594 1212 4672 
Q 1544 4750 1819 4750 
Q 2544 4750 2975 4387 
Q 3406 4025 3406 3419 
Q 3406 3131 3298 2873 
Q 3191 2616 2906 2266 
Q 2828 2175 2409 1742 
Q 1991 1309 1228 531 
z
" id="DejaVuSans-32" transform="scale(0.015625)"/>
       </defs>
       <use xlink:href="#DejaVuSans-32"/>
       <use x="63.623047" xlink:href="#DejaVuSans-30"/>
       <use x="127.246094" xlink:href="#DejaVuSans-30"/>
       <use x="190.869141" xlink:href="#DejaVuSans-30"/>
      </g>
     </g>
    </g>
    <g id="xtick_4">
     <g id="line2d_4">
      <g>
       <use style="fill:#ffffff;stroke:#ffffff;stroke-width:0.8;" x="586.005097" xlink:href="#m7ada905e79" y="504"/>
      </g>
     </g>
     <g id="text_4">
      <!-- 3000 -->
      <g style="fill:#ffffff;" transform="translate(573.280097 518.598438)scale(0.1 -0.1)">
       <defs>
        <path d="M 2597 2516 
Q 3050 2419 3304 2112 
Q 3559 1806 3559 1356 
Q 3559 666 3084 287 
Q 2609 -91 1734 -91 
Q 1441 -91 1130 -33 
Q 819 25 488 141 
L 488 750 
Q 750 597 1062 519 
Q 1375 441 1716 441 
Q 2309 441 2620 675 
Q 2931 909 2931 1356 
Q 2931 1769 2642 2001 
Q 2353 2234 1838 2234 
L 1294 2234 
L 1294 2753 
L 1863 2753 
Q 2328 2753 2575 2939 
Q 2822 3125 2822 3475 
Q 2822 3834 2567 4026 
Q 2313 4219 1838 4219 
Q 1578 4219 1281 4162 
Q 984 4106 628 3988 
L 628 4550 
Q 988 4650 1302 4700 
Q 1616 4750 1894 4750 
Q 2613 4750 3031 4423 
Q 3450 4097 3450 3541 
Q 3450 3153 3228 2886 
Q 3006 2619 2597 2516 
z
" id="DejaVuSans-33" transform="scale(0.015625)"/>
       </defs>
       <use xlink:href="#DejaVuSans-33"/>
       <use x="63.623047" xlink:href="#DejaVuSans-30"/>
       <use x="127.246094" xlink:href="#DejaVuSans-30"/>
       <use x="190.869141" xlink:href="#DejaVuSans-30"/>
      </g>
     </g>
    </g>
    <g id="xtick_5">
     <g id="line2d_5">
      <g>
       <use style="fill:#ffffff;stroke:#ffffff;stroke-width:0.8;" x="727.503766" xlink:href="#m7ada905e79" y="504"/>
      </g>
     </g>
     <g id="text_5">
      <!-- 4000 -->
      <g style="fill:#ffffff;" transform="translate(714.778766 518.598438)scale(0.1 -0.1)">
       <defs>
        <path d="M 2419 4116 
L 825 1625 
L 2419 1625 
L 2419 4116 
z
M 2253 4666 
L 3047 4666 
L 3047 1625 
L 3713 1625 
L 3713 1100 
L 3047 1100 
L 3047 0 
L 2419 0 
L 2419 1100 
L 313 1100 
L 313 1709 
L 2253 4666 
z
" id="DejaVuSans-34" transform="scale(0.015625)"/>
       </defs>
       <use xlink:href="#DejaVuSans-34"/>
       <use x="63.623047" xlink:href="#DejaVuSans-30"/>
       <use x="127.246094" xlink:href="#DejaVuSans-30"/>
       <use x="190.869141" xlink:href="#DejaVuSans-30"/>
      </g>
     </g>
    </g>
    <g id="xtick_6">
     <g id="line2d_6">
      <g>
       <use style="fill:#ffffff;stroke:#ffffff;stroke-width:0.8;" x="869.002434" xlink:href="#m7ada905e79" y="504"/>
      </g>
     </g>
     <g id="text_6">
      <!-- 5000 -->
      <g style="fill:#ffffff;" transform="translate(856.277434 518.598438)scale(0.1 -0.1)">
       <defs>
        <path d="M 691 4666 
L 3169 4666 
L 3169 4134 
L 1269 4134 
L 1269 2991 
Q 1406 3038 1543 3061 
Q 1681 3084 1819 3084 
Q 2600 3084 3056 2656 
Q 3513 2228 3513 1497 
Q 3513 744 3044 326 
Q 2575 -91 1722 -91 
Q 1428 -91 1123 -41 
Q 819 9 494 109 
L 494 744 
Q 775 591 1075 516 
Q 1375 441 1709 441 
Q 2250 441 2565 725 
Q 2881 1009 2881 1497 
Q 2881 1984 2565 2268 
Q 2250 2553 1709 2553 
Q 1456 2553 1204 2497 
Q 953 2441 691 2322 
L 691 4666 
z
" id="DejaVuSans-35" transform="scale(0.015625)"/>
       </defs>
       <use xlink:href="#DejaVuSans-35"/>
       <use x="63.623047" xlink:href="#DejaVuSans-30"/>
       <use x="127.246094" xlink:href="#DejaVuSans-30"/>
       <use x="190.869141" xlink:href="#DejaVuSans-30"/>
      </g>
     </g>
    </g>
    <g id="text_7">
     <!-- iteration -->
     <g style="fill:#ffffff;" transform="translate(495.477344 532.276562)scale(0.1 -0.1)">
      <defs>
       <path d="M 603 3500 
L 1178 3500 
L 1178 0 
L 603 0 
L 603 3500 
z
M 603 4863 
L 1178 4863 
L 1178 4134 
L 603 4134 
L 603 4863 
z
" id="DejaVuSans-69" transform="scale(0.015625)"/>
       <path d="M 1172 4494 
L 1172 3500 
L 2356 3500 
L 2356 3053 
L 1172 3053 
L 1172 1153 
Q 1172 725 1289 603 
Q 1406 481 1766 481 
L 2356 481 
L 2356 0 
L 1766 0 
Q 1100 0 847 248 
Q 594 497 594 1153 
L 594 3053 
L 172 3053 
L 172 3500 
L 594 3500 
L 594 4494 
L 1172 4494 
z
" id="DejaVuSans-74" transform="scale(0.015625)"/>
       <path d="M 3597 1894 
L 3597 1613 
L 953 1613 
Q 991 1019 1311 708 
Q 1631 397 2203 397 
Q 2534 397 2845 478 
Q 3156 559 3463 722 
L 3463 178 
Q 3153 47 2828 -22 
Q 2503 -91 2169 -91 
Q 1331 -91 842 396 
Q 353 884 353 1716 
Q 353 2575 817 3079 
Q 1281 3584 2069 3584 
Q 2775 3584 3186 3129 
Q 3597 2675 3597 1894 
z
M 3022 2063 
Q 3016 2534 2758 2815 
Q 2500 3097 2075 3097 
Q 1594 3097 1305 2825 
Q 1016 2553 972 2059 
L 3022 2063 
z
" id="DejaVuSans-65" transform="scale(0.015625)"/>
       <path d="M 2631 2963 
Q 2534 3019 2420 3045 
Q 2306 3072 2169 3072 
Q 1681 3072 1420 2755 
Q 1159 2438 1159 1844 
L 1159 0 
L 581 0 
L 581 3500 
L 1159 3500 
L 1159 2956 
Q 1341 3275 1631 3429 
Q 1922 3584 2338 3584 
Q 2397 3584 2469 3576 
Q 2541 3569 2628 3553 
L 2631 2963 
z
" id="DejaVuSans-72" transform="scale(0.015625)"/>
       <path d="M 2194 1759 
Q 1497 1759 1228 1600 
Q 959 1441 959 1056 
Q 959 750 1161 570 
Q 1363 391 1709 391 
Q 2188 391 2477 730 
Q 2766 1069 2766 1631 
L 2766 1759 
L 2194 1759 
z
M 3341 1997 
L 3341 0 
L 2766 0 
L 2766 531 
Q 2569 213 2275 61 
Q 1981 -91 1556 -91 
Q 1019 -91 701 211 
Q 384 513 384 1019 
Q 384 1609 779 1909 
Q 1175 2209 1959 2209 
L 2766 2209 
L 2766 2266 
Q 2766 2663 2505 2880 
Q 2244 3097 1772 3097 
Q 1472 3097 1187 3025 
Q 903 2953 641 2809 
L 641 3341 
Q 956 3463 1253 3523 
Q 1550 3584 1831 3584 
Q 2591 3584 2966 3190 
Q 3341 2797 3341 1997 
z
" id="DejaVuSans-61" transform="scale(0.015625)"/>
       <path d="M 1959 3097 
Q 1497 3097 1228 2736 
Q 959 2375 959 1747 
Q 959 1119 1226 758 
Q 1494 397 1959 397 
Q 2419 397 2687 759 
Q 2956 1122 2956 1747 
Q 2956 2369 2687 2733 
Q 2419 3097 1959 3097 
z
M 1959 3584 
Q 2709 3584 3137 3096 
Q 3566 2609 3566 1747 
Q 3566 888 3137 398 
Q 2709 -91 1959 -91 
Q 1206 -91 779 398 
Q 353 888 353 1747 
Q 353 2609 779 3096 
Q 1206 3584 1959 3584 
z
" id="DejaVuSans-6f" transform="scale(0.015625)"/>
       <path d="M 3513 2113 
L 3513 0 
L 2938 0 
L 2938 2094 
Q 2938 2591 2744 2837 
Q 2550 3084 2163 3084 
Q 1697 3084 1428 2787 
Q 1159 2491 1159 1978 
L 1159 0 
L 581 0 
L 581 3500 
L 1159 3500 
L 1159 2956 
Q 1366 3272 1645 3428 
Q 1925 3584 2291 3584 
Q 2894 3584 3203 3211 
Q 3513 2838 3513 2113 
z
" id="DejaVuSans-6e" transform="scale(0.015625)"/>
      </defs>
      <use xlink:href="#DejaVuSans-69"/>
      <use x="27.783203" xlink:href="#DejaVuSans-74"/>
      <use x="66.992188" xlink:href="#DejaVuSans-65"/>
      <use x="128.515625" xlink:href="#DejaVuSans-72"/>
      <use x="169.628906" xlink:href="#DejaVuSans-61"/>
      <use x="230.908203" xlink:href="#DejaVuSans-74"/>
      <use x="270.117188" xlink:href="#DejaVuSans-69"/>
      <use x="297.900391" xlink:href="#DejaVuSans-6f"/>
      <use x="359.082031" xlink:href="#DejaVuSans-6e"/>
     </g>
    </g>
   </g>
   <g id="matplotlib.axis_2">
    <g id="ytick_1">
     <g id="line2d_7">
      <defs>
       <path d="M 0 0 
L -3.5 0 
" id="mf67fe106eb" style="stroke:#ffffff;stroke-width:0.8;"/>
      </defs>
      <g>
       <use style="fill:#ffffff;stroke:#ffffff;stroke-width:0.8;" x="126" xlink:href="#mf67fe106eb" y="484.232727"/>
      </g>
     </g>
     <g id="text_8">
      <!-- 0 -->
      <g style="fill:#ffffff;" transform="translate(112.6375 488.031946)scale(0.1 -0.1)">
       <use xlink:href="#DejaVuSans-30"/>
      </g>
     </g>
    </g>
    <g id="ytick_2">
     <g id="line2d_8">
      <g>
       <use style="fill:#ffffff;stroke:#ffffff;stroke-width:0.8;" x="126" xlink:href="#mf67fe106eb" y="405.538222"/>
      </g>
     </g>
     <g id="text_9">
      <!-- 5000 -->
      <g style="fill:#ffffff;" transform="translate(93.55 409.337441)scale(0.1 -0.1)">
       <use xlink:href="#DejaVuSans-35"/>
       <use x="63.623047" xlink:href="#DejaVuSans-30"/>
       <use x="127.246094" xlink:href="#DejaVuSans-30"/>
       <use x="190.869141" xlink:href="#DejaVuSans-30"/>
      </g>
     </g>
    </g>
    <g id="ytick_3">
     <g id="line2d_9">
      <g>
       <use style="fill:#ffffff;stroke:#ffffff;stroke-width:0.8;" x="126" xlink:href="#mf67fe106eb" y="326.843717"/>
      </g>
     </g>
     <g id="text_10">
      <!-- 10000 -->
      <g style="fill:#ffffff;" transform="translate(87.1875 330.642936)scale(0.1 -0.1)">
       <use xlink:href="#DejaVuSans-31"/>
       <use x="63.623047" xlink:href="#DejaVuSans-30"/>
       <use x="127.246094" xlink:href="#DejaVuSans-30"/>
       <use x="190.869141" xlink:href="#DejaVuSans-30"/>
       <use x="254.492188" xlink:href="#DejaVuSans-30"/>
      </g>
     </g>
    </g>
    <g id="ytick_4">
     <g id="line2d_10">
      <g>
       <use style="fill:#ffffff;stroke:#ffffff;stroke-width:0.8;" x="126" xlink:href="#mf67fe106eb" y="248.149212"/>
      </g>
     </g>
     <g id="text_11">
      <!-- 15000 -->
      <g style="fill:#ffffff;" transform="translate(87.1875 251.948431)scale(0.1 -0.1)">
       <use xlink:href="#DejaVuSans-31"/>
       <use x="63.623047" xlink:href="#DejaVuSans-35"/>
       <use x="127.246094" xlink:href="#DejaVuSans-30"/>
       <use x="190.869141" xlink:href="#DejaVuSans-30"/>
       <use x="254.492188" xlink:href="#DejaVuSans-30"/>
      </g>
     </g>
    </g>
    <g id="ytick_5">
     <g id="line2d_11">
      <g>
       <use style="fill:#ffffff;stroke:#ffffff;stroke-width:0.8;" x="126" xlink:href="#mf67fe106eb" y="169.454707"/>
      </g>
     </g>
     <g id="text_12">
      <!-- 20000 -->
      <g style="fill:#ffffff;" transform="translate(87.1875 173.253926)scale(0.1 -0.1)">
       <use xlink:href="#DejaVuSans-32"/>
       <use x="63.623047" xlink:href="#DejaVuSans-30"/>
       <use x="127.246094" xlink:href="#DejaVuSans-30"/>
       <use x="190.869141" xlink:href="#DejaVuSans-30"/>
       <use x="254.492188" xlink:href="#DejaVuSans-30"/>
      </g>
     </g>
    </g>
    <g id="ytick_6">
     <g id="line2d_12">
      <g>
       <use style="fill:#ffffff;stroke:#ffffff;stroke-width:0.8;" x="126" xlink:href="#mf67fe106eb" y="90.760202"/>
      </g>
     </g>
     <g id="text_13">
      <!-- 25000 -->
      <g style="fill:#ffffff;" transform="translate(87.1875 94.559421)scale(0.1 -0.1)">
       <use xlink:href="#DejaVuSans-32"/>
       <use x="63.623047" xlink:href="#DejaVuSans-35"/>
       <use x="127.246094" xlink:href="#DejaVuSans-30"/>
       <use x="190.869141" xlink:href="#DejaVuSans-30"/>
       <use x="254.492188" xlink:href="#DejaVuSans-30"/>
      </g>
     </g>
    </g>
   </g>
   <g id="line2d_13">
    <path clip-path="url(#p3bf50259a1)" d="M 161.509091 398.471456 
L 161.792088 390.53905 
L 161.933587 382.040043 
L 162.075086 382.040043 
L 162.216584 378.026623 
L 162.358083 394.772814 
L 162.64108 383.582455 
L 162.782579 348.406012 
L 162.924078 433.301644 
L 163.065576 434.560756 
L 163.207075 430.893592 
L 163.490072 360.052798 
L 163.631571 398.282589 
L 163.914568 366.883481 
L 164.056067 340.69395 
L 164.339064 405.5697 
L 164.622062 344.911976 
L 164.76356 353.395243 
L 165.046558 309.357798 
L 165.188056 339.26171 
L 165.329555 334.209523 
L 165.471054 301.189309 
L 165.612552 308.019992 
L 165.754051 335.169596 
L 165.89555 340.442128 
L 166.037048 330.80992 
L 166.178547 291.919096 
L 166.320046 330.80992 
L 166.461544 308.067208 
L 166.88604 354.465489 
L 167.169038 308.649548 
L 167.310536 331.39226 
L 167.452035 301.488348 
L 167.593534 331.39226 
L 167.735032 318.801139 
L 167.876531 354.355316 
L 168.01803 333.831789 
L 168.159528 394.615425 
L 168.301027 398.282589 
L 168.584024 358.227086 
L 168.725523 388.130998 
L 168.867022 368.032421 
L 169.00852 368.032421 
L 169.150019 415.437991 
L 169.291518 410.795015 
L 169.433016 420.710523 
L 169.574515 420.710523 
L 169.716014 427.572684 
L 169.857512 427.572684 
L 170.14051 417.814565 
L 170.282008 425.05446 
L 170.565006 363.420923 
L 170.706504 402.311748 
L 170.848003 372.407836 
L 170.989502 395.071853 
L 171.131 389.516021 
L 171.413998 334.178045 
L 171.696995 394.379342 
L 172.121491 334.634473 
L 172.404488 315.149714 
L 172.545987 333.092061 
L 172.687486 333.092061 
L 172.828984 332.68285 
L 172.970483 333.092061 
L 173.111982 328.039874 
L 173.25348 328.039874 
L 173.536478 360.949916 
L 173.677976 365.293852 
L 173.819475 403.759727 
L 173.960974 398.707539 
L 174.102472 423.244486 
L 174.243971 397.054955 
L 174.38547 403.145909 
L 174.526968 420.820695 
L 174.809966 377.475762 
L 174.951464 413.942795 
L 175.092963 413.942795 
L 175.234462 388.870726 
L 175.37596 401.461847 
L 175.658958 384.416617 
L 175.800456 408.43418 
L 175.941955 397.448427 
L 176.083454 401.99697 
L 176.224952 410.480237 
L 176.50795 440.793361 
L 176.649448 452.329975 
L 176.790947 419.309761 
L 176.932446 416.88597 
L 177.073944 405.349356 
L 177.215443 408.402702 
L 177.356942 388.304126 
L 177.49844 396.661482 
L 177.639939 416.350847 
L 177.781438 401.320197 
L 177.922936 400.108301 
L 178.064435 383.629672 
L 178.205934 347.209855 
L 178.347432 350.57798 
L 178.63043 388.130998 
L 178.913427 337.310086 
L 179.054926 308.995803 
L 179.196424 347.225594 
L 179.479422 291.462668 
L 179.620921 325.631822 
L 179.762419 320.579635 
L 179.903918 300.481058 
L 180.045417 317.825327 
L 180.328414 270.482713 
L 180.469913 270.482713 
L 180.611411 246.292022 
L 181.318905 360.776788 
L 181.601902 372.439313 
L 181.743401 398.046505 
L 181.884899 359.155681 
L 182.026398 356.73189 
L 182.167897 321.523969 
L 182.309395 323.947759 
L 182.450894 330.211842 
L 182.592393 309.688315 
L 182.733891 345.793354 
L 182.87539 309.32632 
L 183.016889 348.217145 
L 183.299886 348.217145 
L 183.441385 411.660655 
L 183.582883 407.993491 
L 183.865881 367.922249 
L 184.007379 403.098693 
L 184.431875 320.264857 
L 184.573374 371.794019 
L 184.714873 366.741831 
L 184.856371 378.121057 
L 184.99787 372.470791 
L 185.139369 342.315057 
L 185.280867 369.244317 
L 185.422366 355.960684 
L 185.705363 406.639945 
L 185.846862 373.619731 
L 185.988361 378.671918 
L 186.129859 370.172912 
L 186.271358 375.823177 
L 186.412857 364.837424 
L 186.554355 364.837424 
L 186.695854 342.094712 
L 186.837353 363.515357 
L 186.978851 329.346203 
L 187.261849 374.50111 
L 187.403347 370.723773 
L 187.544846 379.22278 
L 187.686345 401.55628 
L 188.110841 312.993484 
L 188.252339 347.005249 
L 188.535337 300.182019 
L 188.676835 275.991328 
L 188.818334 302.007731 
L 188.959833 275.991328 
L 189.24283 307.343219 
L 189.384329 343.526952 
L 189.525827 343.526952 
L 189.667326 370.235867 
L 189.950323 363.373707 
L 190.091822 376.090739 
L 190.516318 471.798996 
L 190.799315 427.572684 
L 190.940814 460.404031 
L 191.082313 421.513207 
L 191.223811 427.777289 
L 191.36531 466.668114 
L 191.648307 447.576827 
L 191.789806 412.368905 
L 191.931305 450.661652 
L 192.355801 380.576325 
L 192.638798 314.032252 
L 192.921795 359.958365 
L 193.063294 395.134809 
L 193.346291 376.909161 
L 193.48779 429.319702 
L 193.770787 440.305455 
L 193.912286 429.697435 
L 194.195283 373.619731 
L 194.336782 349.42904 
L 194.478281 351.852831 
L 194.619779 351.44362 
L 194.761278 412.494817 
L 194.902777 420.018011 
L 195.327273 328.008396 
L 195.468771 341.55959 
L 195.751769 298.765518 
L 195.893267 272.749114 
L 196.176265 319.289045 
L 196.317763 316.865254 
L 196.459262 316.471781 
L 196.600761 397.8419 
L 196.742259 398.235372 
L 196.883758 382.150215 
L 197.025257 381.756743 
L 197.166755 401.902536 
L 197.308254 365.435503 
L 197.449753 384.101839 
L 197.73275 326.151206 
L 197.874249 321.429535 
L 198.015747 331.880166 
L 198.157246 331.880166 
L 198.440243 365.60863 
L 198.581742 359.344548 
L 199.006238 283.435828 
L 199.147737 283.435828 
L 199.289235 308.507898 
L 199.430734 308.507898 
L 199.572233 288.818532 
L 199.713731 288.818532 
L 199.85523 322.987686 
L 199.996729 288.975921 
L 200.138227 332.053293 
L 200.279726 317.793849 
L 200.421225 330.888615 
L 200.562723 369.779439 
L 200.704222 355.74034 
L 200.845721 377.318373 
L 200.987219 377.160984 
L 201.128718 377.554456 
L 201.270217 400.297168 
L 201.411715 396.630004 
L 201.694713 335.232551 
L 201.97771 344.487025 
L 202.119209 373.997465 
L 202.260707 355.630167 
L 202.402206 320.847196 
L 202.543705 324.51436 
L 202.685203 337.215653 
L 202.826702 371.494979 
L 203.1097 354.670094 
L 203.392697 397.338255 
L 203.675694 346.249782 
L 203.817193 371.321852 
L 203.958692 336.11393 
L 204.10019 349.539213 
L 204.383188 396.929043 
L 204.524686 358.038219 
L 204.666185 382.606644 
L 204.949182 336.302797 
L 205.090681 336.712008 
L 205.373678 403.539382 
L 205.656676 337.860948 
L 206.081172 437.189152 
L 206.788665 316.20422 
L 206.930164 350.215985 
L 207.071662 349.28739 
L 207.213161 374.359459 
L 207.35466 376.78325 
L 207.637657 329.409158 
L 207.779156 390.759394 
L 207.920654 357.73918 
L 208.062153 357.73918 
L 208.203652 334.996468 
L 208.34515 332.808761 
L 208.486649 332.808761 
L 208.628148 376.075 
L 208.769646 351.00293 
L 208.911145 386.210852 
L 209.194142 372.801308 
L 209.335641 364.47543 
L 209.47714 398.644584 
L 209.618638 363.436662 
L 209.760137 401.666453 
L 209.901636 368.425894 
L 210.043134 369.62205 
L 210.184633 394.69412 
L 210.46763 349.303129 
L 210.609129 361.563733 
L 210.750628 361.563733 
L 211.175124 253.689305 
L 211.316622 262.172573 
L 211.458121 257.120386 
L 211.59962 318.108627 
L 211.741118 281.641594 
L 211.882617 315.810748 
L 212.024116 303.219627 
L 212.165614 308.271814 
L 212.448612 336.586097 
L 212.59011 328.102829 
L 212.731609 341.543851 
L 212.873108 341.543851 
L 213.014606 414.44644 
L 213.297604 356.779107 
L 213.439102 365.262375 
L 213.580601 396.630004 
L 213.7221 392.96284 
L 214.005097 367.072348 
L 214.146596 419.813406 
L 214.288094 408.827653 
L 214.429593 369.936828 
L 214.571092 379.852336 
L 214.71259 355.095045 
L 214.854089 407.127851 
L 214.995588 368.898061 
L 215.137086 379.883814 
L 215.278585 340.992989 
L 215.420084 338.348854 
L 215.561582 338.348854 
L 215.84458 370.314562 
L 215.986078 361.815555 
L 216.127577 405.475267 
L 216.410574 347.823672 
L 216.552073 369.511878 
L 216.693572 368.347199 
L 216.83507 364.680035 
L 216.976569 364.680035 
L 217.118068 361.31191 
L 217.401065 289.636955 
L 217.542564 289.636955 
L 217.684062 366.427053 
L 217.825561 366.143753 
L 218.250057 416.508236 
L 218.391556 449.528451 
L 218.533054 425.33776 
L 218.674553 425.33776 
L 218.816052 399.148229 
L 218.95755 399.148229 
L 219.240548 351.695442 
L 219.382046 333.296667 
L 219.806542 418.349688 
L 220.231038 331.911643 
L 220.514036 388.005087 
L 220.655534 375.413966 
L 220.938532 332.903194 
L 221.221529 407.080635 
L 221.363028 407.474107 
L 221.646025 361.658166 
L 221.787524 362.067378 
L 221.929022 336.995308 
L 222.070521 372.171752 
L 222.495017 291.462668 
L 222.636516 288.582449 
L 222.778014 322.751603 
L 222.919513 317.699416 
L 223.061012 389.437327 
L 223.20251 396.960521 
L 223.344009 421.151212 
L 223.485508 401.052636 
L 223.910004 446.176065 
L 224.051502 419.986533 
L 224.193001 420.395745 
L 224.475998 371.557935 
L 224.758996 382.165954 
L 224.900494 361.642427 
L 225.183492 374.217809 
L 225.32499 360.729571 
L 225.466489 360.729571 
L 225.607988 354.119233 
L 225.749486 353.710021 
L 225.890985 379.899553 
L 226.173983 335.783413 
L 226.45698 327.567707 
L 226.739977 369.90535 
L 226.881476 369.90535 
L 227.022975 408.135141 
L 227.164473 407.741668 
L 227.305972 424.897071 
L 227.447471 394.993159 
L 227.730468 412.715161 
L 228.013465 398.99084 
L 228.154964 363.814396 
L 228.296463 373.619731 
L 228.437961 408.386963 
L 228.57946 371.91993 
L 228.720959 394.473775 
L 228.862457 394.489514 
L 229.286953 363.373707 
L 229.428452 363.373707 
L 229.711449 428.155023 
L 229.852948 405.412311 
L 229.994447 429.05214 
L 230.135945 395.040375 
L 230.277444 398.786234 
L 230.418943 363.232056 
L 230.560441 419.986533 
L 230.70194 413.722451 
L 230.843439 419.986533 
L 230.984937 397.243822 
L 231.126436 405.034578 
L 231.267935 397.794683 
L 231.409433 399.337095 
L 231.550932 380.93832 
L 231.833929 325.206872 
L 231.975428 345.730398 
L 232.116927 315.826487 
L 232.258425 368.693455 
L 232.399924 343.621386 
L 232.541423 356.212507 
L 232.682921 349.948424 
L 232.82442 401.27298 
L 232.965919 405.050316 
L 233.107417 401.383152 
L 233.248916 401.383152 
L 233.390415 419.514366 
L 233.531913 423.18153 
L 233.814911 404.27911 
L 233.956409 392.648062 
L 234.097908 392.648062 
L 234.239407 387.595875 
L 234.380905 419.561583 
L 234.522404 383.094549 
L 234.805401 429.697435 
L 234.9469 419.781928 
L 235.088399 419.781928 
L 235.229897 397.149388 
L 235.371396 393.482224 
L 235.512895 384.983218 
L 235.654393 389.24846 
L 235.795892 409.347036 
L 235.937391 336.869397 
L 236.078889 337.26287 
L 236.220388 349.853991 
L 236.503385 277.455046 
L 236.644884 277.628174 
L 236.786383 269.129167 
L 236.927881 273.96101 
L 237.06938 271.017835 
L 237.352377 339.466316 
L 237.635375 308.33477 
L 237.918372 409.677553 
L 238.059871 401.178547 
L 238.201369 371.274635 
L 238.342868 371.274635 
L 238.625865 423.62222 
L 238.767364 384.731395 
L 238.908863 390.995478 
L 239.050361 388.571687 
L 239.19186 396.110621 
L 239.333359 387.67457 
L 239.474857 394.914464 
L 239.757855 377.664629 
L 239.899353 389.075332 
L 240.040852 359.155681 
L 240.182351 354.103494 
L 240.465348 414.761218 
L 240.889844 379.128346 
L 241.172841 397.228083 
L 241.455839 456.658173 
L 241.597337 444.067052 
L 241.738836 449.119239 
L 241.880335 445.452075 
L 242.021833 411.44031 
L 242.163332 406.388123 
L 242.304831 406.388123 
L 242.587828 364.884641 
L 242.729327 373.603992 
L 242.870825 347.414461 
L 243.012324 375.618572 
L 243.153823 377.806279 
L 243.295321 369.307272 
L 243.43682 368.095377 
L 243.578319 376.594383 
L 243.719817 402.783915 
L 244.002815 359.580631 
L 244.285812 449.371062 
L 244.427311 450.425568 
L 244.851807 359.659326 
L 244.993305 370.802468 
L 245.134804 353.631327 
L 245.276303 379.144085 
L 245.417801 367.670426 
L 245.5593 328.779602 
L 245.700799 323.727415 
L 245.842297 336.318536 
L 245.983796 330.054453 
L 246.125295 311.954717 
L 246.408292 373.304953 
L 246.549791 338.128509 
L 246.691289 409.362775 
L 246.832788 409.362775 
L 246.974287 391.672251 
L 247.115785 388.005087 
L 247.257284 410.747799 
L 247.398783 374.280765 
L 247.540281 384.558267 
L 247.68178 384.967479 
L 247.823279 359.895409 
L 247.964777 382.276127 
L 248.106276 379.175563 
L 248.247775 343.967642 
L 248.389273 344.250942 
L 248.530772 311.230727 
L 248.672271 334.193784 
L 248.813769 311.451072 
L 248.955268 344.471286 
L 249.096767 351.475097 
L 249.379764 419.105155 
L 249.521263 360.477749 
L 249.662762 381.441965 
L 250.228756 261.086589 
L 250.370255 238.343877 
L 250.653252 280.382481 
L 250.794751 398.188156 
L 250.93625 398.188156 
L 251.077748 425.841405 
L 251.219247 425.841405 
L 251.360746 426.549655 
L 251.502244 431.649059 
L 251.643743 427.981895 
L 251.785242 405.239183 
L 251.92674 405.239183 
L 252.068239 368.77215 
L 252.209738 408.29253 
L 252.351236 411.959694 
L 252.492735 393.592396 
L 252.634234 393.183185 
L 252.775732 442.083951 
L 252.917231 403.193126 
L 253.200228 441.989517 
L 253.341727 436.93733 
L 253.483226 436.93733 
L 253.624724 427.021822 
L 253.766223 403.256082 
L 253.907722 408.308269 
L 254.190719 442.414467 
L 254.332218 442.414467 
L 254.473716 462.937994 
L 254.615215 427.761551 
L 254.756714 444.507741 
L 254.898212 410.338587 
L 255.039711 410.338587 
L 255.322708 363.405184 
L 255.464207 410.574671 
L 255.747204 347.918106 
L 255.888703 344.140769 
L 256.030202 384.400878 
L 256.313199 346.13961 
L 256.454698 356.747629 
L 256.596196 351.695442 
L 256.737695 371.794019 
L 256.879194 371.400546 
L 257.162191 378.372879 
L 257.30369 408.276791 
L 257.445188 401.792364 
L 257.586687 424.535076 
L 257.728186 407.222285 
L 257.869684 403.555121 
L 258.011183 364.664296 
L 258.152682 364.664296 
L 258.29418 403.555121 
L 258.435679 395.465326 
L 258.577178 375.366749 
L 258.860175 415.343558 
L 259.001674 377.113767 
L 259.143172 399.148229 
L 259.284671 389.940971 
L 259.42617 367.355648 
L 259.567668 392.427718 
L 259.709167 389.059593 
L 259.850666 423.071358 
L 259.992164 428.123545 
L 260.133663 416.586931 
L 260.275162 383.566717 
L 260.41666 378.35714 
L 260.558159 378.35714 
L 260.699658 374.689976 
L 260.841156 391.845378 
L 260.982655 379.254258 
L 261.124154 391.845378 
L 261.265652 365.828975 
L 261.407151 360.776788 
L 261.54865 395.559759 
L 261.690148 388.430037 
L 261.831647 354.418272 
L 261.973146 366.442792 
L 262.114644 358.903859 
L 262.256143 366.427053 
L 262.53914 311.451072 
L 262.680639 356.275462 
L 262.822138 364.774469 
L 262.963636 364.365257 
L 263.105135 350.530763 
L 263.388132 289.873039 
L 263.529631 302.46416 
L 263.67113 302.070687 
L 263.812628 336.082452 
L 263.954127 334.067873 
L 264.095626 354.166449 
L 264.237124 342.629835 
L 264.378623 343.55843 
L 264.520122 341.024467 
L 264.66162 369.606311 
L 264.803119 336.586097 
L 265.086116 343.999119 
L 265.369114 294.122542 
L 265.652111 329.298986 
L 265.935108 278.037385 
L 266.218106 377.019334 
L 266.359604 364.821685 
L 266.642602 323.932021 
L 266.7841 324.813399 
L 266.925599 390.287227 
L 267.067098 360.383315 
L 267.350095 360.383315 
L 267.491594 381.977088 
L 267.633092 346.769166 
L 267.774591 366.694615 
L 267.91609 426.093227 
L 268.482084 345.163798 
L 268.623583 330.904354 
L 268.90658 290.56555 
L 269.048079 308.743981 
L 269.189578 273.536059 
L 269.331076 323.396898 
L 269.614074 304.998123 
L 269.755572 317.998455 
L 270.03857 362.146072 
L 270.180068 371.951408 
L 270.321567 391.656512 
L 270.463066 376.610122 
L 270.604564 410.621887 
L 270.746063 399.636134 
L 270.887562 407.159329 
L 271.02906 368.929539 
L 271.170559 407.159329 
L 271.312058 377.255417 
L 271.453556 393.608135 
L 271.595055 382.464993 
L 271.736554 402.98852 
L 271.878052 367.812077 
L 272.019551 370.235867 
L 272.16105 333.768834 
L 272.302548 354.213666 
L 272.444047 348.248623 
L 272.727045 371.542196 
L 273.010042 399.163967 
L 273.151541 406.403862 
L 273.434538 334.272479 
L 273.576037 333.879006 
L 273.717535 340.143089 
L 273.859034 337.719298 
L 274.000533 302.542854 
L 274.142031 336.837919 
L 274.28353 331.785732 
L 274.425029 396.488354 
L 274.566527 392.616585 
L 274.708026 371.19594 
L 274.849525 375.303793 
L 275.132522 311.026122 
L 275.274021 334.776123 
L 275.415519 310.585432 
L 275.557018 310.585432 
L 275.698517 299.59968 
L 275.840015 382.732555 
L 275.981514 391.215822 
L 276.264511 352.43517 
L 276.40601 352.43517 
L 276.547509 388.823509 
L 276.689007 392.569368 
L 277.113503 348.295839 
L 277.255002 348.673573 
L 277.396501 424.031431 
L 277.537999 415.532424 
L 277.679498 377.302634 
L 277.820997 412.494817 
L 277.962495 415.375035 
L 278.103994 420.647567 
L 278.245493 420.254095 
L 278.386991 438.731565 
L 278.669989 419.435672 
L 278.811487 449.339584 
L 278.952986 435.851346 
L 279.094485 435.851346 
L 279.660479 364.302302 
L 279.801978 357.17258 
L 279.943477 415.091735 
L 280.226474 355.205217 
L 280.367973 355.205217 
L 280.509471 344.99067 
L 280.65097 322.247958 
L 280.792469 322.247958 
L 280.933967 344.99067 
L 281.075466 344.99067 
L 281.216965 355.189478 
L 281.358463 389.358632 
L 281.499962 355.346867 
L 281.641461 424.566554 
L 281.782959 388.09952 
L 281.924458 387.706047 
L 282.065957 387.926392 
L 282.207455 382.874205 
L 282.631951 314.236858 
L 282.77345 339.529271 
L 282.914949 303.062238 
L 283.197946 332.053293 
L 283.339445 394.678381 
L 283.763941 354.3081 
L 283.905439 320.296334 
L 284.329935 407.332457 
L 284.471434 441.344222 
L 284.612933 432.860955 
L 284.754431 431.601842 
L 284.89593 396.393921 
L 285.178927 396.393921 
L 285.320426 390.428877 
L 285.461925 398.912145 
L 285.603423 398.518672 
L 285.744922 398.912145 
L 285.886421 390.428877 
L 286.027919 400.627685 
L 286.169418 393.797002 
L 286.310917 407.316718 
L 286.593914 364.805946 
L 286.876911 387.359792 
L 287.01841 387.359792 
L 287.159909 395.858798 
L 287.301407 387.359792 
L 287.442906 340.882817 
L 287.584405 363.137623 
L 287.725903 354.638616 
L 287.867402 451.936503 
L 288.008901 426.864433 
L 288.150399 439.455554 
L 288.291898 403.901377 
L 288.433397 407.568541 
L 288.574895 372.360619 
L 288.716394 397.432688 
L 288.857893 388.949421 
L 288.999391 420.065228 
L 289.282389 344.70737 
L 289.565386 381.630832 
L 289.848383 358.30578 
L 290.131381 300.103324 
L 290.272879 264.549147 
L 290.414378 264.549147 
L 290.697375 350.908497 
L 290.838874 380.812409 
L 290.980373 370.20439 
L 291.121871 388.603165 
L 291.26337 388.603165 
L 291.404869 396.142098 
L 291.546367 388.902204 
L 291.687866 399.510223 
L 291.970863 341.55959 
L 292.112362 357.912308 
L 292.253861 357.361446 
L 292.395359 378.530268 
L 292.536858 377.475762 
L 292.678357 353.285071 
L 292.819855 377.475762 
L 292.961354 373.808598 
L 293.102853 373.808598 
L 293.244351 391.939812 
L 293.38585 395.606976 
L 293.527349 371.416285 
L 293.668847 384.007406 
L 293.810346 376.484211 
L 293.951845 251.18682 
L 294.093343 241.932346 
L 294.234842 269.286556 
L 294.376341 261.338411 
L 294.659338 331.81721 
L 294.800837 339.057104 
L 294.942335 328.071352 
L 295.083834 339.057104 
L 295.225333 303.502927 
L 295.366831 325.08096 
L 295.50833 291.069195 
L 295.649829 299.568202 
L 296.074325 395.717148 
L 296.215824 408.308269 
L 296.357322 395.717148 
L 296.64032 347.083944 
L 296.781818 347.272811 
L 296.923317 359.989843 
L 297.064816 352.749948 
L 297.206314 373.273475 
L 297.347813 350.530763 
L 297.63081 363.357968 
L 297.913808 317.35316 
L 298.055306 311.089077 
L 298.196805 361.327649 
L 298.338304 361.327649 
L 298.479802 367.591732 
L 298.7628 356.668935 
L 298.904298 353.001771 
L 299.045797 440.258238 
L 299.187296 424.173081 
L 299.470293 361.012871 
L 299.611792 394.25343 
L 299.75329 393.844219 
L 299.894789 382.858466 
L 300.036288 406.734379 
L 300.177786 393.135968 
L 300.319285 433.034082 
L 300.460784 423.291703 
L 300.743781 377.381328 
L 300.88528 412.58925 
L 301.026778 405.066055 
L 301.309776 411.15701 
L 301.451274 378.136796 
L 301.592773 373.084608 
L 301.734272 381.583615 
L 301.87577 374.752932 
L 302.017269 382.276127 
L 302.300266 339.434838 
L 302.441765 345.698921 
L 302.583264 311.687156 
L 302.724762 316.739343 
L 302.866261 280.272309 
L 303.149258 272.859287 
L 303.290757 261.873534 
L 303.715253 390.082622 
L 303.856752 356.070856 
L 303.99825 359.816715 
L 304.139749 393.82848 
L 304.281248 376.137955 
L 304.422746 376.137955 
L 304.564245 387.281097 
L 304.705744 387.67457 
L 304.988741 352.498126 
L 305.13024 352.088914 
L 305.271738 373.06887 
L 305.413237 373.478081 
L 305.554736 377.223939 
L 306.262229 253.4847 
L 306.545226 298.482218 
L 306.686725 323.979237 
L 306.828224 394.599686 
L 306.969722 408.087924 
L 307.111221 407.678713 
L 307.394218 363.971785 
L 307.677216 445.515031 
L 307.818714 415.611119 
L 307.960213 413.59654 
L 308.101712 434.387628 
L 308.24321 434.387628 
L 308.384709 399.179706 
L 308.667706 404.892927 
L 308.809205 438.133486 
L 309.092202 393.907174 
L 309.233701 420.946606 
L 309.3752 420.946606 
L 309.516698 417.279442 
L 309.658197 450.441307 
L 309.941194 420.710523 
L 310.082693 413.675234 
L 310.224192 393.151707 
L 310.36569 404.767016 
L 310.507189 402.248792 
L 310.648688 363.357968 
L 310.790186 362.586761 
L 310.931685 351.978742 
L 311.073184 404.074505 
L 311.214682 410.039548 
L 311.49768 348.374534 
L 311.639178 381.394748 
L 311.922176 357.817874 
L 312.063674 390.664961 
L 312.205173 391.058433 
L 312.48817 316.361609 
L 312.629669 328.95273 
L 312.771168 315.464492 
L 312.912666 315.464492 
L 313.195664 388.870726 
L 313.337162 383.818539 
L 313.478661 394.804292 
L 313.62016 356.574501 
L 313.761658 369.669267 
L 313.903157 346.926555 
L 314.044656 380.93832 
L 314.186154 351.44362 
L 314.327653 360.824005 
L 314.469152 360.414793 
L 314.61065 365.46698 
L 314.752149 356.967974 
L 314.893648 395.197764 
L 315.035146 387.67457 
L 315.459642 314.158163 
L 315.601141 336.271319 
L 315.884138 450.866257 
L 316.025637 446.065892 
L 316.167136 446.065892 
L 316.450133 399.746307 
L 316.591632 403.964332 
L 316.73313 404.86145 
L 316.874629 380.670759 
L 317.016128 384.416617 
L 317.157626 373.808598 
L 317.299125 337.341564 
L 317.440624 334.917773 
L 317.582122 321.319363 
L 317.723621 358.762209 
L 317.86512 346.186827 
L 318.006618 375.272316 
L 318.148117 347.792194 
L 318.289616 346.249782 
L 318.431114 350.593719 
L 318.572613 380.497631 
L 318.714112 380.088419 
L 318.85561 387.879175 
L 318.997109 365.136463 
L 319.138608 438.08627 
L 319.421605 383.535239 
L 319.563104 411.928216 
L 319.9876 327.300145 
L 320.129099 348.72079 
L 320.270597 389.95671 
L 320.412096 384.95174 
L 320.553595 351.931525 
L 320.695093 384.95174 
L 320.836592 362.209028 
L 320.978091 389.95671 
L 321.119589 387.53292 
L 321.261088 387.53292 
L 321.402587 441.847867 
L 321.685584 417.216487 
L 321.827083 381.662309 
L 321.968581 416.838753 
L 322.251579 354.182188 
L 322.393077 380.37172 
L 322.534576 360.682354 
L 322.676075 381.205881 
L 322.817573 351.301969 
L 322.959072 347.634805 
L 323.100571 321.445274 
L 323.242069 351.349186 
L 323.383568 321.445274 
L 323.525067 375.225099 
L 323.808064 387.422747 
L 323.949563 416.036069 
L 324.374059 343.574169 
L 324.515557 343.574169 
L 324.657056 353.111943 
L 325.081552 410.165459 
L 325.223051 409.110953 
L 325.364549 384.038884 
L 325.506048 387.721786 
L 325.647547 412.793856 
L 325.930544 353.44246 
L 326.072043 377.633151 
L 326.213541 291.541362 
L 326.496539 353.536893 
L 326.638037 358.589081 
L 326.779536 324.577315 
L 326.921035 320.910152 
L 327.062533 351.081625 
L 327.345531 286.12718 
L 327.628528 354.512705 
L 327.770027 346.029438 
L 327.911525 381.882654 
L 328.053024 389.012376 
L 328.194523 389.012376 
L 328.336021 363.216317 
L 328.47752 376.625861 
L 328.619019 372.958697 
L 328.902016 358.195608 
L 329.043515 385.707207 
L 329.468011 305.643418 
L 329.751008 244.718132 
L 329.892507 276.054284 
L 330.034005 276.054284 
L 330.317003 205.575485 
L 330.6 276.82549 
L 330.741499 276.432017 
L 330.882997 310.601171 
L 331.165995 249.203719 
L 331.307493 263.116907 
L 331.448992 252.131154 
L 331.590491 304.305611 
L 331.731989 293.162469 
L 331.873488 305.076817 
L 332.156485 267.271977 
L 332.297984 356.291201 
L 332.439483 353.01751 
L 332.580981 343.920425 
L 332.72248 344.817542 
L 332.863979 344.817542 
L 333.005477 378.593224 
L 333.146976 377.822018 
L 333.288475 390.413138 
L 333.571472 359.958365 
L 333.712971 397.070694 
L 333.854469 397.070694 
L 333.995968 392.018506 
L 334.137467 367.827815 
L 334.278965 367.827815 
L 334.420464 436.449424 
L 334.561963 443.972619 
L 334.703461 435.473612 
L 334.84496 402.453398 
L 334.986459 407.505585 
L 335.127957 405.081794 
L 335.269456 379.065391 
L 335.410955 387.926392 
L 335.552453 299.01734 
L 335.693952 295.350176 
L 335.835451 302.180859 
L 335.976949 368.551805 
L 336.118448 360.068537 
L 336.542944 366.568703 
L 336.96744 294.43732 
L 337.108939 310.018832 
L 337.250437 299.033079 
L 337.391936 334.193784 
L 337.533435 320.280596 
L 337.674933 287.260381 
L 337.816432 297.962834 
L 338.099429 379.317213 
L 338.523925 324.844877 
L 338.665424 321.177713 
L 338.948421 356.480068 
L 339.08992 347.981061 
L 339.231419 356.480068 
L 339.372917 377.003595 
L 339.655915 302.904849 
L 339.797413 338.065554 
L 339.938912 318.36045 
L 340.080411 318.36045 
L 340.363408 311.828806 
L 340.504907 314.252596 
L 340.646405 309.200409 
L 340.787904 389.059593 
L 340.929403 366.316881 
L 341.2124 397.322516 
L 341.353899 397.731727 
L 341.778395 366.914959 
L 341.919893 392.726757 
L 342.061392 381.741004 
L 342.202891 381.741004 
L 342.34439 360.430532 
L 342.485888 373.714164 
L 342.627387 350.971453 
L 342.768886 357.802136 
L 342.910384 358.730731 
L 343.051883 323.554287 
L 343.193382 323.554287 
L 343.33488 289.794344 
L 343.476379 358.762209 
L 343.617878 358.762209 
L 343.759376 347.776456 
L 343.900875 358.384475 
L 344.042374 355.960684 
L 344.183872 388.949421 
L 344.325371 388.96516 
L 344.46687 390.019666 
L 344.608368 402.610787 
L 344.749867 392.002767 
L 344.891366 358.982553 
L 345.032864 369.590572 
L 345.174363 349.067045 
L 345.45736 394.914464 
L 345.598859 394.914464 
L 345.740358 412.069866 
L 345.881856 382.165954 
L 346.023355 420.395745 
L 346.164854 419.986533 
L 346.306352 408.449919 
L 346.447851 408.449919 
L 346.58935 433.254427 
L 346.730848 433.663638 
L 346.872347 421.072518 
L 347.013846 418.522816 
L 347.155344 413.470628 
L 347.438342 369.464661 
L 347.721339 308.806937 
L 347.862838 319.79269 
L 348.145835 287.228903 
L 348.428832 334.587257 
L 348.570331 335.24829 
L 348.71183 369.732223 
L 348.853328 358.74647 
L 348.994827 418.664466 
L 349.136326 413.612279 
L 349.277824 402.626526 
L 349.419323 403.035737 
L 349.560822 414.572352 
L 349.843819 366.75757 
L 349.985318 370.424734 
L 350.409814 293.744808 
L 350.551312 291.321018 
L 350.692811 326.528939 
L 350.83431 299.820024 
L 351.117307 405.664134 
L 351.258806 397.180866 
L 351.400304 410.669104 
L 351.683302 342.472446 
L 351.8248 350.955714 
L 352.249296 296.703722 
L 352.390795 338.710849 
L 352.532294 314.520158 
L 352.673792 317.573505 
L 352.815291 317.573505 
L 352.95679 352.749948 
L 353.381286 260.944939 
L 353.522784 294.956704 
L 353.664283 260.944939 
L 354.088779 343.715819 
L 354.371776 327.976918 
L 354.513275 293.965153 
L 354.796272 312.1908 
L 354.937771 311.797328 
L 355.220768 280.634304 
L 355.362267 271.647391 
L 355.503766 248.904679 
L 355.786763 309.18467 
L 355.928262 301.944776 
L 356.06976 301.063397 
L 356.352758 410.543193 
L 356.494256 440.447105 
L 356.635755 416.256414 
L 356.777254 411.204227 
L 357.060251 346.123871 
L 357.20175 327.630662 
L 357.343248 328.134307 
L 357.484747 289.904517 
L 357.626246 323.916282 
L 357.767744 298.844212 
L 358.050742 350.105813 
L 358.19224 316.094048 
L 358.616736 375.681527 
L 358.758235 369.417444 
L 358.899734 349.318868 
L 359.041232 349.318868 
L 359.182731 315.149714 
L 359.32423 318.990006 
L 359.465728 311.592722 
L 359.748726 364.129174 
L 359.890224 327.66214 
L 360.031723 348.185667 
L 360.173222 340.662472 
L 360.456219 415.831464 
L 360.597718 393.088752 
L 360.739216 392.67954 
L 360.880715 354.843222 
L 361.022214 361.107305 
L 361.163712 335.090901 
L 361.305211 353.127682 
L 361.44671 326.938151 
L 361.729707 391.357473 
L 362.012704 374.768671 
L 362.154203 277.706868 
L 362.295702 277.706868 
L 362.4372 312.883312 
L 362.720198 255.971446 
L 363.003195 400.202735 
L 363.144694 440.462844 
L 363.427691 428.894751 
L 363.56919 425.227588 
L 363.710688 405.129011 
L 363.852187 304.541694 
L 363.993686 343.432519 
L 364.135184 413.376195 
L 364.418182 351.742659 
L 364.55968 392.773974 
L 364.701179 356.30694 
L 365.125675 419.939317 
L 365.267174 417.956215 
L 365.408672 417.956215 
L 365.550171 407.741668 
L 365.69167 372.187491 
L 365.833169 410.417282 
L 366.257665 356.322679 
L 366.399163 334.130828 
L 366.540662 331.707038 
L 366.682161 361.280433 
L 366.823659 327.111279 
L 366.965158 361.280433 
L 367.248155 292.060746 
L 367.389654 364.538385 
L 367.531153 364.538385 
L 367.81415 396.173576 
L 367.955649 379.018174 
L 368.097147 379.018174 
L 368.238646 433.411816 
L 368.380145 440.651711 
L 368.663142 404.043027 
L 368.946139 359.045509 
L 369.087638 354.496966 
L 369.229137 354.496966 
L 369.370635 380.119897 
L 369.512134 432.262876 
L 370.078129 346.454388 
L 370.219627 398.880667 
L 370.361126 390.381661 
L 370.502625 398.880667 
L 370.644123 416.429542 
L 370.785622 381.22162 
L 370.927121 416.429542 
L 371.068619 381.22162 
L 371.210118 381.22162 
L 371.493115 402.70522 
L 371.634614 403.098693 
L 371.776113 411.597699 
L 372.05911 380.167114 
L 372.200609 379.773641 
L 372.342107 387.296836 
L 372.483606 386.887625 
L 372.625105 384.857306 
L 372.766603 349.303129 
L 372.908102 404.405021 
L 373.049601 404.751277 
L 373.332598 373.934509 
L 373.615595 364.774469 
L 373.757094 353.788716 
L 373.898593 372.643919 
L 374.18159 319.997295 
L 374.323089 327.048323 
L 374.464587 294.028109 
L 374.606086 291.604318 
L 374.747585 285.733708 
L 374.889083 252.981055 
L 375.172081 308.397725 
L 375.313579 305.973934 
L 375.455078 301.157831 
L 375.596577 352.324998 
L 375.879574 365.828975 
L 376.021073 357.329969 
L 376.30407 313.748952 
L 376.445569 316.770821 
L 376.728566 255.137284 
L 376.870065 246.292022 
L 377.011563 310.994644 
L 377.153062 281.090732 
L 377.294561 302.495637 
L 377.436059 289.259222 
L 377.577558 255.247457 
L 377.719057 266.233209 
L 377.860555 314.756241 
L 378.002054 314.756241 
L 378.143553 326.025294 
L 378.285051 358.872381 
L 378.42655 350.373374 
L 378.568049 350.625197 
L 378.709547 376.814728 
L 378.851046 368.33146 
L 378.992545 400.092563 
L 379.417041 323.522809 
L 379.558539 312.537056 
L 379.700038 317.746632 
L 379.841537 297.648056 
L 379.983035 301.31522 
L 380.407531 401.320197 
L 380.54903 412.30595 
L 380.690529 378.294185 
L 380.832027 380.765192 
L 380.973526 356.574501 
L 381.115025 382.590905 
L 381.256523 382.197432 
L 381.681019 333.469795 
L 381.822518 377.349851 
L 381.964017 385.848857 
L 382.105515 386.258069 
L 382.247014 383.204722 
L 382.388513 417.216487 
L 382.67151 403.114432 
L 382.813009 403.901377 
L 382.954507 426.533916 
L 383.096006 426.533916 
L 383.237505 438.070531 
L 383.379003 412.054127 
L 383.520502 432.577654 
L 383.662001 407.505585 
L 383.944998 446.538059 
L 384.510993 360.273143 
L 384.652491 368.268505 
L 384.79399 424.204559 
L 384.935489 399.13249 
L 385.076987 399.13249 
L 385.359985 279.501103 
L 385.501483 303.31406 
L 385.784481 433.742333 
L 385.925979 433.34886 
L 386.067478 433.742333 
L 386.208977 398.565889 
L 386.350475 432.735043 
L 386.91647 342.220624 
L 387.057969 349.916946 
L 387.199467 385.124868 
L 387.340966 355.630167 
L 387.482465 405.2864 
L 387.765462 361.579472 
L 387.906961 373.116086 
L 388.048459 407.28524 
L 388.331457 344.030597 
L 388.472955 360.446271 
L 388.614454 351.774136 
L 388.755953 365.262375 
L 388.897452 364.853163 
L 389.03895 364.853163 
L 389.180449 360.509227 
L 389.463446 309.436493 
L 389.604945 343.448258 
L 389.746444 334.949251 
L 389.887942 311.388116 
L 390.453937 426.439483 
L 390.595436 421.89094 
L 390.736934 416.838753 
L 390.878433 441.910823 
L 391.019932 446.96301 
L 391.302929 390.051144 
L 391.444428 412.793856 
L 391.585926 413.077156 
L 391.727425 388.886465 
L 391.868924 387.879175 
L 392.151921 344.172247 
L 392.29342 328.08709 
L 392.576417 392.836929 
L 392.717916 392.427718 
L 392.859414 384.904523 
L 393.000913 416.272153 
L 393.28391 351.191797 
L 393.425409 353.190638 
L 393.566908 392.081462 
L 393.849905 349.397562 
L 393.991404 349.397562 
L 394.274401 380.828148 
L 394.4159 373.304953 
L 394.557398 336.837919 
L 394.698897 372.014363 
L 394.840396 372.014363 
L 394.981894 347.823672 
L 395.40639 444.035574 
L 395.547889 440.289716 
L 395.689388 403.822682 
L 395.830886 407.489846 
L 395.972385 423.118575 
L 396.113884 387.910653 
L 396.396881 439.062082 
L 396.53838 435.394918 
L 396.679878 419.451411 
L 396.821377 419.860622 
L 396.962876 384.652701 
L 397.104374 421.576162 
L 397.387372 365.813236 
L 397.52887 442.225601 
L 397.670369 437.173413 
L 397.953366 415.154691 
L 398.094865 389.547499 
L 398.236364 391.861117 
L 398.519361 441.879345 
L 398.66086 415.689813 
L 398.802358 441.706217 
L 398.943857 405.239183 
L 399.226854 392.947102 
L 399.368353 455.603666 
L 399.509852 444.617914 
L 400.075846 337.310086 
L 400.217345 357.991002 
L 400.358844 397.810422 
L 400.500342 369.496139 
L 400.641841 365.828975 
L 400.924838 393.372052 
L 401.207836 388.807771 
L 401.349334 317.573505 
L 401.490833 340.316217 
L 401.632332 340.316217 
L 401.915329 292.186657 
L 402.056828 352.655515 
L 402.198326 351.758398 
L 402.339825 389.988188 
L 402.481324 389.594716 
L 402.764321 410.716321 
L 402.90582 390.192794 
L 403.047318 424.204559 
L 403.188817 415.705552 
L 403.471814 366.442792 
L 403.613313 383.975928 
L 403.754812 383.566717 
L 403.89631 383.975928 
L 404.037809 349.964163 
L 404.179308 375.036232 
L 404.320806 364.050479 
L 404.462305 392.978579 
L 404.745302 402.689481 
L 404.886801 392.081462 
L 405.0283 403.067215 
L 405.169798 396.803132 
L 405.452796 410.102504 
L 405.735793 359.297331 
L 405.877292 356.763368 
L 406.01879 397.023477 
L 406.160289 405.522483 
L 406.301788 438.763042 
L 406.443286 418.664466 
L 406.726284 373.698426 
L 407.15078 301.45687 
L 407.292278 301.45687 
L 407.433777 314.158163 
L 407.716774 369.33875 
L 407.858273 389.437327 
L 407.999772 380.954059 
L 408.14127 385.172084 
L 408.282769 385.172084 
L 408.424268 384.007406 
L 408.565766 406.750118 
L 408.707265 372.738353 
L 408.848764 379.978247 
L 408.990262 343.511213 
L 409.131761 374.941799 
L 409.697756 343.810253 
L 409.839254 355.205217 
L 409.980753 343.164958 
L 410.122252 403.082954 
L 410.688246 301.582781 
L 411.254241 361.532255 
L 411.39574 362.429372 
L 411.537238 360.005582 
L 411.961734 391.38895 
L 412.103233 388.335604 
L 412.244732 409.409992 
L 412.386231 391.38895 
L 412.527729 420.301311 
L 412.669228 401.021158 
L 412.810727 397.353994 
L 412.952225 362.146072 
L 413.093724 398.613106 
L 413.376721 345.494315 
L 413.51822 365.592892 
L 413.659719 357.109624 
L 413.801217 365.18368 
L 413.942716 330.038714 
L 414.084215 337.278609 
L 414.225713 307.374697 
L 414.367212 307.374697 
L 414.650209 268.688478 
L 414.791708 243.159981 
L 415.074705 338.222943 
L 415.216204 375.272316 
L 415.357703 369.008233 
L 415.6407 411.15701 
L 415.782199 385.140607 
L 415.923697 391.404689 
L 416.065196 382.905683 
L 416.206695 385.140607 
L 416.348193 402.658003 
L 416.489692 390.066883 
L 416.631191 423.307442 
L 416.772689 384.416617 
L 416.914188 379.36443 
L 417.055687 344.187986 
L 417.197185 379.36443 
L 417.338684 345.195276 
L 417.480183 348.86244 
L 417.621681 337.876687 
L 417.76318 350.467808 
L 418.046177 293.713331 
L 418.187676 304.699084 
L 418.329175 290.86459 
L 418.470673 254.397556 
L 418.753671 293.304119 
L 419.178167 387.155186 
L 419.319665 364.412474 
L 419.461164 398.581628 
L 420.027159 358.415953 
L 420.168657 375.996305 
L 420.593153 301.645737 
L 420.734652 403.350515 
L 420.876151 409.834942 
L 421.017649 409.834942 
L 421.159148 381.646571 
L 421.300647 381.646571 
L 421.442145 368.362938 
L 421.583644 365.844714 
L 421.725143 331.832949 
L 421.866641 384.542528 
L 422.149639 365.655847 
L 422.291137 370.708034 
L 422.432636 390.413138 
L 422.574135 389.405849 
L 422.715633 415.422252 
L 422.998631 396.913305 
L 423.140129 361.705383 
L 423.281628 358.352997 
L 423.564625 358.352997 
L 423.706124 341.307767 
L 423.847623 366.773309 
L 423.989121 366.773309 
L 424.13062 402.327487 
L 424.272119 402.327487 
L 424.413617 398.581628 
L 424.555116 398.55015 
L 424.838113 347.619067 
L 424.979612 354.843222 
L 425.262609 305.580462 
L 425.404108 309.32632 
L 425.545607 303.062238 
L 425.828604 401.162808 
L 425.970103 381.064231 
L 426.2531 432.64061 
L 426.394599 406.451079 
L 426.536097 412.715161 
L 426.960593 386.478413 
L 427.243591 386.478413 
L 427.385089 453.809432 
L 427.526588 428.092067 
L 427.668087 428.092067 
L 427.809585 392.915624 
L 427.951084 403.019998 
L 428.092583 428.092067 
L 428.517079 345.588748 
L 428.941575 421.843724 
L 429.083073 421.843724 
L 429.366071 402.358964 
L 429.507569 363.46814 
L 429.649068 374.076159 
L 429.932065 374.076159 
L 430.073564 379.128346 
L 430.356561 316.644909 
L 430.639559 311.9075 
L 430.781057 323.632981 
L 430.922556 313.465651 
L 431.347052 375.051971 
L 431.630049 306.823835 
L 431.771548 319.698256 
L 431.913047 403.71251 
L 432.196044 354.44975 
L 432.337543 349.853991 
L 432.479041 314.646069 
L 432.62054 316.975426 
L 432.762039 304.494478 
L 432.903537 304.085266 
L 433.045036 278.304946 
L 433.186535 303.377016 
L 433.328033 268.200572 
L 433.469532 327.363101 
L 433.611031 327.363101 
L 433.752529 385.156346 
L 433.894028 396.69296 
L 434.318524 390.602005 
L 434.460023 394.269169 
L 434.601521 373.745642 
L 434.74302 402.13862 
L 434.884519 391.152867 
L 435.026017 391.152867 
L 435.167516 426.707044 
L 435.450514 379.317213 
L 435.592012 354.245144 
L 435.87501 360.477749 
L 436.016508 351.994481 
L 436.158007 353.237854 
L 436.299506 349.57069 
L 436.441004 353.033249 
L 436.582503 344.549981 
L 436.724002 320.35929 
L 436.8655 320.35929 
L 437.006999 302.653026 
L 437.148498 269.632812 
L 437.431495 282.208194 
L 437.572994 261.684667 
L 437.714492 261.684667 
L 437.855991 226.476745 
L 438.280487 326.103989 
L 438.421986 326.103989 
L 438.563484 325.694777 
L 438.704983 346.218304 
L 438.846482 323.475592 
L 438.98798 346.218304 
L 439.270978 306.697924 
L 439.412476 329.078641 
L 439.553975 324.026454 
L 439.695474 308.082947 
L 439.836972 412.1643 
L 439.978471 418.255254 
L 440.11997 383.047333 
L 440.261468 405.790045 
L 440.402967 397.291038 
L 440.544466 400.958202 
L 440.685964 399.41579 
L 440.827463 361.185999 
L 440.968962 362.083117 
L 441.11046 362.083117 
L 441.251959 400.312907 
L 441.393458 393.073013 
L 441.676455 363.169101 
L 441.817954 383.267677 
L 441.959452 362.74415 
L 442.100951 370.267345 
L 442.383948 309.609621 
L 442.525447 304.116744 
L 442.666946 375.791699 
L 442.808444 370.739512 
L 443.091442 403.42921 
L 443.23294 369.260055 
L 443.374439 374.312243 
L 443.515938 337.845209 
L 443.657436 372.014363 
L 443.798935 379.254258 
L 443.940434 346.013699 
L 444.081932 349.350346 
L 444.223431 379.254258 
L 444.36493 378.860785 
L 444.506428 376.436994 
L 444.647927 376.436994 
L 444.789426 399.384312 
L 445.072423 386.557108 
L 445.35542 339.167277 
L 445.496919 358.510386 
L 445.638418 358.510386 
L 445.779916 323.302465 
L 445.921415 362.193289 
L 446.062914 323.302465 
L 446.204412 319.635301 
L 446.345911 323.302465 
L 446.48741 358.478908 
L 446.770407 315.008064 
L 446.911906 323.869065 
L 447.053404 317.604982 
L 447.336402 388.854987 
L 447.619399 321.051802 
L 447.760898 321.051802 
L 448.043895 391.011217 
L 448.185394 355.834773 
L 448.326892 363.924568 
L 448.468391 325.033744 
L 448.60989 367.544515 
L 448.751388 365.120725 
L 448.892887 356.621718 
L 449.034386 332.431027 
L 449.317383 402.909826 
L 449.60038 360.981394 
L 449.883378 342.472446 
L 450.024876 342.472446 
L 450.166375 376.484211 
L 450.307874 340.017177 
L 450.449372 340.300478 
L 450.590871 340.300478 
L 450.73237 305.092556 
L 450.873868 312.332451 
L 451.015367 282.428539 
L 451.156866 309.751271 
L 451.439863 279.910314 
L 451.581362 279.910314 
L 451.72286 279.501103 
L 451.864359 363.924568 
L 452.005858 339.40336 
L 452.147356 339.40336 
L 452.288855 420.600351 
L 452.430354 394.993159 
L 452.571852 391.10565 
L 452.713351 407.458368 
L 452.85485 442.66629 
L 453.137847 430.673247 
L 453.703842 292.186657 
L 453.84534 297.286061 
L 453.986839 288.802793 
L 454.128338 291.226584 
L 454.269836 291.226584 
L 454.694332 444.712347 
L 454.835831 454.454727 
L 454.97733 342.157668 
L 455.118828 349.680863 
L 455.260327 314.126685 
L 455.401826 321.697097 
L 455.543324 321.697097 
L 455.684823 357.251274 
L 455.826322 337.152697 
L 455.96782 332.887455 
L 456.109319 297.742489 
L 456.250818 311.388116 
L 456.533815 398.644584 
L 456.816812 340.442128 
L 456.958311 374.453893 
L 457.09981 359.376026 
L 457.241308 359.376026 
L 457.382807 325.364261 
L 457.665804 396.645743 
L 457.807303 361.091566 
L 457.948802 360.682354 
L 458.0903 371.668107 
L 458.231799 358.589081 
L 458.373298 362.334939 
L 458.514797 341.323506 
L 458.656295 341.323506 
L 458.797794 346.470127 
L 458.939293 346.470127 
L 459.080791 342.802963 
L 459.22229 379.269997 
L 459.363789 344.093553 
L 459.505287 344.093553 
L 459.788285 396.582788 
L 459.929783 373.840076 
L 460.212781 397.369733 
L 460.495778 451.354163 
L 460.637277 442.855157 
L 460.778775 406.388123 
L 460.920274 413.628017 
L 461.203271 354.197927 
L 461.34477 357.078146 
L 461.486269 318.187322 
L 461.627767 334.776123 
L 461.769266 301.755909 
L 462.052263 362.775628 
L 462.193762 342.566879 
L 462.335261 348.830962 
L 462.476759 429.335441 
L 462.759757 362.303461 
L 462.901255 374.894582 
L 463.184253 366.065059 
L 463.325751 379.553297 
L 463.46725 379.144085 
L 463.608749 372.880003 
L 463.891746 386.66728 
L 464.033245 360.477749 
L 464.174743 394.489514 
L 464.316242 383.881495 
L 464.457741 357.865091 
L 464.599239 387.170925 
L 464.740738 387.580136 
L 464.882237 353.568371 
L 465.023735 387.580136 
L 465.165234 387.170925 
L 465.448231 373.06887 
L 465.58973 369.401706 
L 465.872727 311.19925 
L 466.014226 316.251437 
L 466.155725 349.271651 
L 466.297223 316.251437 
L 466.438722 342.26784 
L 466.580221 335.027946 
L 466.863218 306.855313 
L 467.004717 354.292361 
L 467.287714 284.41164 
L 467.570711 372.706875 
L 467.71221 369.039711 
L 467.853709 368.646238 
L 467.995207 368.646238 
L 468.136706 384.636962 
L 468.278205 422.866752 
L 468.419703 402.768176 
L 468.561202 402.358964 
L 468.702701 400.344385 
L 468.844199 424.535076 
L 469.268695 374.595543 
L 469.410194 338.128509 
L 469.551693 338.128509 
L 469.693191 323.019164 
L 469.83469 326.686328 
L 469.976189 326.686328 
L 470.117687 339.277449 
L 470.259186 305.108295 
L 470.542183 393.765524 
L 470.683682 386.52563 
L 470.825181 400.800813 
L 470.966679 397.054955 
L 471.532674 306.084107 
L 471.674173 373.179042 
L 471.95717 306.147062 
L 472.098669 319.178872 
L 472.240167 355.535734 
L 472.381666 350.483547 
L 472.523165 386.289546 
L 472.664663 375.303793 
L 472.806162 377.727584 
L 473.089159 349.177218 
L 473.230658 334.524301 
L 473.372157 386.494152 
L 473.513655 381.441965 
L 473.655154 415.45373 
L 473.796653 411.786566 
L 474.07965 354.796005 
L 474.221149 358.463169 
L 474.362647 393.639613 
L 474.504146 389.972449 
L 474.645645 422.992664 
L 474.787143 409.126692 
L 474.928642 436.606813 
L 475.211639 405.349356 
L 475.494637 448.694289 
L 476.060631 375.665788 
L 476.20213 408.906347 
L 476.343629 400.407341 
L 476.626626 349.14574 
L 476.768125 366.852004 
L 477.051122 366.852004 
L 477.192621 387.375531 
L 477.334119 386.982058 
L 477.475618 386.982058 
L 477.758615 403.555121 
L 477.900114 438.023314 
L 478.041613 267.50806 
L 478.183111 386.321024 
L 478.32461 382.65386 
L 478.466109 417.31092 
L 478.607607 415.359297 
L 478.749106 410.795015 
L 478.890605 418.03491 
L 479.032103 397.511383 
L 479.173602 407.42689 
L 479.315101 407.42689 
L 479.456599 442.981068 
L 479.881095 350.987191 
L 480.022594 416.807275 
L 480.164093 401.729408 
L 480.305591 401.729408 
L 480.44709 349.130001 
L 480.588589 369.228578 
L 480.730087 339.324666 
L 480.871586 350.86128 
L 481.154583 339.324666 
L 481.437581 379.144085 
L 481.579079 368.158332 
L 481.720578 403.71251 
L 481.862077 399.966651 
L 482.003576 438.857476 
L 482.286573 406.167778 
L 482.428072 404.405021 
L 482.56957 367.937988 
L 482.852568 375.571355 
L 483.135565 332.903194 
L 483.277064 349.838252 
L 483.418562 346.092393 
L 483.560061 370.283084 
L 483.70156 335.075162 
L 483.843058 335.075162 
L 483.984557 368.095377 
L 484.126056 371.494979 
L 484.409053 324.561577 
L 484.550552 324.561577 
L 484.833549 290.219295 
L 484.975048 315.747792 
L 485.116546 315.747792 
L 485.258045 327.898224 
L 485.541042 374.406676 
L 485.682541 354.087755 
L 485.82404 350.420591 
L 485.965538 313.953557 
L 486.248536 438.621392 
L 486.390034 434.954228 
L 486.531533 438.621392 
L 486.673032 403.413471 
L 486.81453 399.400051 
L 487.097528 345.85631 
L 487.239026 399.400051 
L 487.663522 320.64259 
L 487.805021 329.755414 
L 487.94652 418.774638 
L 488.088018 418.774638 
L 488.229517 396.031926 
L 488.371016 403.980071 
L 488.512514 422.300152 
L 488.654013 398.109461 
L 488.795512 422.300152 
L 488.93701 398.109461 
L 489.078509 422.300152 
L 489.361506 378.530268 
L 489.503005 376.106477 
L 489.644504 435.489351 
L 489.786002 440.541538 
L 489.927501 438.117747 
L 490.069 405.097533 
L 490.351997 395.54402 
L 490.634994 379.301474 
L 490.776493 408.811914 
L 490.917992 375.036232 
L 491.05949 378.404357 
L 491.200989 339.513533 
L 491.342488 378.404357 
L 491.483986 385.644251 
L 491.625485 419.813406 
L 491.908482 360.383315 
L 492.049981 360.383315 
L 492.332978 420.836434 
L 492.474477 420.836434 
L 492.615976 382.606644 
L 492.757474 385.65999 
L 492.898973 381.017015 
L 493.040472 347.9968 
L 493.323469 423.999953 
L 493.464968 425.117415 
L 493.606466 368.551805 
L 493.747965 368.961016 
L 493.889464 368.961016 
L 494.172461 360.241665 
L 494.31396 378.21549 
L 494.455458 369.716484 
L 494.879954 389.878016 
L 495.021453 416.067547 
L 495.162952 415.658336 
L 495.30445 415.674075 
L 495.445949 453.494654 
L 495.587448 453.494654 
L 495.728946 432.168443 
L 495.870445 452.267019 
L 496.011944 445.027125 
L 496.153442 411.01536 
L 496.294941 413.439151 
L 496.43644 407.175068 
L 496.719437 350.452069 
L 496.860936 375.524138 
L 497.002434 376.736033 
L 497.143933 372.848525 
L 497.42693 339.277449 
L 497.568429 369.181361 
L 497.709928 358.195608 
L 497.851426 393.372052 
L 498.134424 355.944945 
L 498.417421 314.252596 
L 498.55892 314.252596 
L 498.700418 343.873208 
L 498.841917 308.696764 
L 498.983416 402.264531 
L 499.124914 409.110953 
L 499.407912 351.14458 
L 499.54941 378.262707 
L 499.690909 346.517344 
L 499.832408 346.517344 
L 499.973906 338.018337 
L 500.115405 299.127513 
L 500.256904 300.276452 
L 500.398402 300.276452 
L 500.539901 389.453065 
L 500.822898 342.283579 
L 500.964397 342.283579 
L 501.105896 312.379667 
L 501.67189 420.348528 
L 501.813389 386.336763 
L 501.954888 393.576658 
L 502.096386 370.833946 
L 502.237885 319.824167 
L 502.520882 332.619894 
L 502.662381 363.169101 
L 502.945378 311.938978 
L 503.086877 344.959192 
L 503.228376 341.292028 
L 503.511373 313.05644 
L 503.652872 335.799152 
L 503.935869 304.116744 
L 504.077368 346.627516 
L 504.218866 312.458362 
L 504.360365 365.167941 
L 504.501864 354.182188 
L 504.643362 327.992657 
L 505.067859 376.531428 
L 505.350856 360.871221 
L 505.492355 362.020161 
L 505.633853 374.516848 
L 505.916851 343.117741 
L 506.058349 321.980397 
L 506.199848 345.746137 
L 506.341347 349.114262 
L 506.624344 408.324008 
L 506.765843 404.656844 
L 506.907341 415.642597 
L 507.190339 346.265521 
L 507.331837 368.724933 
L 507.473336 368.724933 
L 507.614835 348.626356 
L 507.756333 362.271983 
L 508.039331 314.504419 
L 508.180829 314.504419 
L 508.322328 318.171583 
L 508.605325 360.288882 
L 508.746824 323.821848 
L 508.888323 323.821848 
L 509.17132 387.218142 
L 509.312819 394.458036 
L 509.454317 414.556613 
L 509.595816 410.810754 
L 509.878813 339.135799 
L 510.020312 340.095872 
L 510.161811 376.562906 
L 510.303309 340.945773 
L 510.444808 352.482387 
L 510.586307 314.252596 
L 510.727805 371.825496 
L 510.869304 368.158332 
L 511.010803 345.41562 
L 511.152301 345.41562 
L 511.2938 379.584775 
L 511.718296 318.958528 
L 511.859795 354.512705 
L 512.001293 320.343551 
L 512.142792 379.175563 
L 512.284291 353.568371 
L 512.425789 353.568371 
L 512.708787 399.903696 
L 512.991784 368.362938 
L 513.274781 379.899553 
L 513.41628 379.50608 
L 513.557779 356.763368 
L 513.982275 356.763368 
L 514.123773 404.767016 
L 514.265272 410.039548 
L 514.406771 404.987361 
L 514.689768 359.59637 
L 514.831267 394.804292 
L 514.972765 394.788553 
L 515.114264 361.957205 
L 515.397261 439.030604 
L 515.53876 428.044851 
L 515.680259 389.154026 
L 515.963256 417.295181 
L 516.387752 322.704386 
L 516.529251 330.227581 
L 516.670749 330.227581 
L 516.812248 295.051137 
L 516.953747 409.693292 
L 517.095245 417.783087 
L 517.519741 347.807933 
L 517.802739 272.450075 
L 517.944237 272.843548 
L 518.510232 181.620878 
L 518.651731 211.115578 
L 518.793229 211.524789 
L 518.934728 191.001263 
L 519.076227 218.748945 
L 519.217725 282.6961 
L 519.359224 268.043183 
L 519.500723 290.785895 
L 519.642221 256.77413 
L 519.925219 256.77413 
L 520.208216 198.823496 
L 520.349715 198.823496 
L 520.632712 255.577973 
L 520.774211 251.910809 
L 521.198707 316.550476 
L 521.340205 302.479898 
L 521.481704 312.112106 
L 521.623203 312.395406 
L 521.764701 301.409653 
L 521.9062 320.563896 
L 522.047699 281.673071 
L 522.189197 345.966482 
L 522.330696 354.44975 
L 522.613693 312.757401 
L 522.896691 373.084608 
L 523.038189 365.293852 
L 523.179688 365.293852 
L 523.321187 341.732718 
L 523.462685 341.732718 
L 523.604184 360.524965 
L 523.887181 360.524965 
L 524.311677 409.063736 
L 524.453176 412.809595 
L 524.736173 338.364593 
L 524.877672 349.255912 
L 525.019171 369.354489 
L 525.302168 308.381986 
L 525.443667 308.381986 
L 525.585165 322.027614 
L 525.726664 293.115252 
L 526.009661 408.324008 
L 526.292659 348.122711 
L 526.434157 337.136959 
L 526.575656 337.136959 
L 526.717155 314.394247 
L 526.858653 310.727083 
L 527.000152 314.394247 
L 527.141651 298.30909 
L 527.283149 298.30909 
L 527.424648 308.224597 
L 527.566147 308.224597 
L 527.707645 318.832617 
L 527.849144 313.780429 
L 527.990643 336.523141 
L 528.132141 313.780429 
L 528.27364 316.424565 
L 528.415139 309.593882 
L 528.556638 314.646069 
L 528.698136 290.455378 
L 528.839635 314.646069 
L 529.122632 305.926718 
L 529.264131 270.718796 
L 529.40563 341.244812 
L 529.547128 341.244812 
L 529.688627 352.230565 
L 529.830126 381.347531 
L 530.113123 364.097696 
L 530.254622 364.097696 
L 530.39612 384.196273 
L 530.537619 384.196273 
L 530.679118 383.787061 
L 530.820616 377.460023 
L 530.962115 380.51337 
L 531.103614 386.840408 
L 531.245112 350.373374 
L 531.386611 388.603165 
L 531.52811 350.373374 
L 531.669608 350.373374 
L 531.811107 336.11393 
L 531.952606 333.690139 
L 532.094104 351.648225 
L 532.235603 347.981061 
L 532.660099 347.981061 
L 532.801598 345.85631 
L 532.943096 366.379837 
L 533.226094 373.131825 
L 533.509091 315.181192 
L 533.65059 348.201406 
L 533.792088 315.181192 
L 534.075086 315.181192 
L 534.216584 339.954222 
L 534.358083 326.95389 
L 534.499582 326.95389 
L 534.64108 304.211178 
L 534.782579 366.552965 
L 534.924078 366.552965 
L 535.207075 399.195445 
L 535.348574 429.791869 
L 535.490072 395.780104 
L 535.631571 428.957707 
L 535.77307 428.548496 
L 536.622062 297.034239 
L 536.76356 297.034239 
L 536.905059 277.344874 
L 537.046558 277.344874 
L 537.471054 361.374866 
L 537.612552 350.389113 
L 537.89555 323.601504 
L 538.037048 323.601504 
L 538.178547 374.64276 
L 538.320046 377.979407 
L 538.461544 342.771485 
L 538.603043 342.771485 
L 538.744542 343.70008 
L 539.027539 330.148886 
L 539.169038 342.535402 
L 539.310536 303.644577 
L 539.452035 322.137786 
L 539.593534 322.137786 
L 539.735032 317.164293 
L 540.01803 353.395243 
L 540.159528 327.205712 
L 540.442526 327.205712 
L 540.584024 302.668765 
L 541.00852 302.668765 
L 541.150019 277.722607 
L 541.291518 282.774794 
L 541.433016 294.358626 
L 541.857512 294.358626 
L 541.999011 308.507898 
L 542.14051 284.317207 
L 542.282008 319.525128 
L 542.565006 307.012702 
L 542.706504 284.26999 
L 542.848003 360.430532 
L 543.131 360.430532 
L 543.272499 333.501272 
L 543.413998 329.566547 
L 543.555496 329.566547 
L 543.838494 384.81009 
L 544.121491 395.795843 
L 544.26299 360.587921 
L 544.545987 388.38282 
L 544.828984 339.183016 
L 544.970483 335.515852 
L 545.111982 348.295839 
L 545.25348 309.405015 
L 545.394979 322.263697 
L 545.536478 322.263697 
L 545.677976 321.980397 
L 545.819475 318.313233 
L 545.960974 357.204057 
L 546.102472 342.094712 
L 546.243971 342.094712 
L 546.38547 351.254753 
L 546.526968 326.182683 
L 546.668467 322.515519 
L 546.809966 322.515519 
L 546.951464 314.016513 
L 547.092963 313.05644 
L 547.37596 341.103162 
L 547.517459 341.103162 
L 547.800456 304.163961 
L 547.941955 304.163961 
L 548.083454 293.178208 
L 548.649448 293.178208 
L 548.790947 266.988677 
L 548.932446 277.203223 
L 549.215443 277.203223 
L 549.639939 381.977088 
L 549.781438 346.800644 
L 549.922936 346.800644 
L 550.064435 346.391432 
L 550.205934 350.058596 
L 550.347432 350.058596 
L 550.771928 329.535069 
L 550.913427 329.535069 
L 551.620921 249.628669 
L 552.328414 377.633151 
L 552.469913 377.853495 
L 552.611411 404.043027 
L 552.75291 390.554789 
L 552.894409 422.300152 
L 553.035907 422.300152 
L 553.177406 428.548496 
L 553.601902 356.007901 
L 553.743401 356.007901 
L 554.026398 425.416454 
L 554.167897 425.416454 
L 554.309395 448.159166 
L 554.450894 450.582957 
L 554.592393 450.97643 
L 555.016889 407.049157 
L 555.299886 444.649391 
L 555.441385 408.182358 
L 555.724382 408.182358 
L 555.865881 388.430037 
L 556.007379 395.481065 
L 556.290377 349.665124 
L 556.431875 360.100015 
L 556.573374 324.545838 
L 556.714873 324.955049 
L 556.856371 290.785895 
L 556.99787 287.118731 
L 557.139369 296.231555 
L 557.563865 186.861932 
L 558.695854 186.861932 
L 558.837353 163.096191 
L 559.544846 163.096191 
L 559.827843 204.033073 
L 559.969342 207.700237 
L 560.252339 193.04732 
L 560.535337 228.601497 
L 560.818334 182.785556 
L 560.959833 183.179029 
L 561.101331 171.642414 
L 561.24283 171.642414 
L 561.384329 235.605308 
L 561.667326 250.258225 
L 561.808825 231.890927 
L 561.950323 242.498947 
L 562.091822 265.241659 
L 562.374819 233.905507 
L 562.516318 233.905507 
L 562.657817 198.729063 
L 562.940814 286.835431 
L 563.223811 286.835431 
L 563.36531 342.110451 
L 563.506809 327.630662 
L 563.789806 363.232056 
L 563.931305 363.625529 
L 564.072803 353.01751 
L 564.214302 328.826819 
L 564.355801 354.843222 
L 564.497299 347.603328 
L 564.638798 348.154189 
L 564.780297 313.985035 
L 564.921795 334.083612 
L 565.063294 311.3409 
L 565.204793 311.3409 
L 565.346291 277.329135 
L 565.629289 365.703064 
L 565.770787 361.469299 
L 566.053785 314.079469 
L 566.195283 308.633809 
L 566.336782 308.633809 
L 566.619779 351.742659 
L 566.761278 336.25558 
L 566.902777 377.853495 
L 567.044275 355.110783 
L 567.185774 365.026291 
L 567.327273 359.974104 
L 567.468771 321.083279 
L 567.61027 321.083279 
L 567.751769 322.011875 
L 567.893267 326.119728 
L 568.176265 344.392592 
L 568.317763 379.207041 
L 568.742259 324.010715 
L 569.166755 377.460023 
L 569.308254 367.119565 
L 569.449753 367.119565 
L 569.591251 367.528776 
L 569.73275 369.747961 
L 569.874249 376.610122 
L 570.015747 376.610122 
L 570.157246 406.104823 
L 570.581742 342.141929 
L 570.723241 347.194116 
L 570.864739 386.084941 
L 571.289235 325.096699 
L 571.430734 325.096699 
L 571.572233 328.842558 
L 571.713731 316.251437 
L 571.85523 316.251437 
L 571.996729 328.842558 
L 572.138227 293.666114 
L 572.421225 293.666114 
L 572.562723 318.36045 
L 572.704222 285.340235 
L 572.845721 318.580794 
L 572.987219 318.187322 
L 573.128718 318.187322 
L 573.411715 327.725096 
L 573.694713 327.725096 
L 573.97771 337.325825 
L 574.119209 367.229737 
L 574.260707 331.67556 
L 574.402206 327.127017 
L 574.543705 360.147232 
L 574.685203 324.970788 
L 574.826702 321.634141 
L 574.968201 321.634141 
L 575.1097 283.797823 
L 575.251198 283.797823 
L 575.392697 305.564723 
L 575.675694 305.564723 
L 575.817193 272.544509 
L 575.958692 304.510217 
L 576.10019 276.605145 
L 576.241689 276.605145 
L 576.383188 258.584104 
L 576.524686 220.354313 
L 576.666185 220.354313 
L 576.949182 200.869553 
L 577.656676 200.869553 
L 577.798174 239.099344 
L 577.939673 200.869553 
L 578.081172 200.869553 
L 578.364169 271.631652 
L 578.505668 271.631652 
L 578.647166 282.617405 
L 578.788665 282.617405 
L 578.930164 280.193615 
L 579.071662 280.193615 
L 579.213161 279.815881 
L 579.637657 279.815881 
L 579.779156 304.88795 
L 579.920654 298.828473 
L 580.486649 383.960189 
L 580.628148 308.240336 
L 580.911145 308.240336 
L 581.052644 300.16628 
L 581.194142 300.16628 
L 581.335641 303.833444 
L 581.47714 270.81323 
L 581.618638 270.81323 
L 581.760137 297.002761 
L 582.043134 297.002761 
L 582.184633 291.509884 
L 582.326132 324.750443 
L 582.46763 291.509884 
L 582.609129 318.990006 
L 582.750628 316.676387 
L 582.892126 332.131988 
L 583.033625 332.131988 
L 583.175124 357.660485 
L 583.316622 357.660485 
L 583.458121 363.719962 
L 583.59962 363.719962 
L 583.741118 369.212839 
L 583.882617 358.604819 
L 584.024116 362.350678 
L 584.165614 382.449255 
L 584.307113 346.895077 
L 584.448612 340.630995 
L 584.59011 340.630995 
L 584.873108 304.510217 
L 585.297604 304.510217 
L 585.439102 307.846864 
L 585.7221 293.193947 
L 585.863598 304.1797 
L 586.005097 295.680693 
L 586.146596 295.680693 
L 586.288094 298.104484 
L 586.571092 298.104484 
L 586.71259 300.418102 
L 586.854089 300.418102 
L 587.137086 250.116575 
L 587.420084 250.116575 
L 587.561582 262.975257 
L 587.703081 295.995471 
L 587.84458 262.975257 
L 587.986078 271.474263 
L 588.127577 271.474263 
L 588.269076 304.494478 
L 588.410574 304.494478 
L 588.693572 362.382156 
L 588.83507 362.382156 
L 588.976569 340.804122 
L 589.118068 343.463997 
L 589.259566 343.463997 
L 589.401065 343.086263 
L 589.542564 343.086263 
L 589.684062 310.066049 
L 590.250057 310.066049 
L 590.391556 336.774964 
L 590.533054 336.774964 
L 590.674553 343.999119 
L 590.816052 308.791198 
L 590.95755 308.791198 
L 591.099049 284.600507 
L 591.240548 284.600507 
L 591.382046 290.518334 
L 591.806542 290.518334 
L 591.948041 297.758228 
L 592.08954 321.948919 
L 592.231038 321.555446 
L 592.514036 321.555446 
L 592.655534 308.460681 
L 592.797033 328.559257 
L 592.938532 328.150046 
L 593.08003 340.961511 
L 593.221529 340.961511 
L 593.363028 329.975759 
L 593.504526 329.975759 
L 593.787524 362.995973 
L 593.929022 362.995973 
L 594.070521 360.572182 
L 594.353518 360.572182 
L 594.495017 383.314894 
L 594.778014 383.314894 
L 594.919513 360.572182 
L 595.20251 360.572182 
L 595.627006 382.968638 
L 595.768505 382.559427 
L 596.051502 317.479071 
L 596.193001 279.249281 
L 596.3345 271.159485 
L 596.475998 271.159485 
L 596.617497 273.583276 
L 596.758996 312.474101 
L 596.900494 301.866081 
L 597.041993 301.866081 
L 597.183492 276.794012 
L 597.466489 276.794012 
L 597.607988 284.978241 
L 597.749486 303.377016 
L 597.890985 264.486191 
L 598.032484 264.486191 
L 598.173983 229.309748 
L 598.598479 229.309748 
L 598.739977 201.341721 
L 598.881476 216.041854 
L 599.022975 216.041854 
L 599.164473 258.599842 
L 599.447471 258.599842 
L 599.588969 246.3235 
L 599.730468 282.790533 
L 599.871967 282.790533 
L 600.013465 271.80478 
L 600.154964 235.337747 
L 601.003956 235.337747 
L 601.145455 268.578306 
L 601.569951 214.043014 
L 601.711449 214.043014 
L 601.852948 213.66528 
L 602.984937 213.66528 
L 603.267935 266.909982 
L 603.409433 244.16727 
L 603.550932 240.500106 
L 603.692431 240.500106 
L 603.833929 247.440962 
L 603.975428 238.941955 
L 604.116927 238.941955 
L 604.258425 203.718295 
L 605.390415 203.718295 
L 605.814911 226.823001 
L 605.956409 226.823001 
L 606.097908 262.030923 
L 606.9469 262.030923 
L 607.088399 265.524959 
L 607.937391 265.524959 
L 608.078889 235.400702 
L 608.927881 235.400702 
L 609.06938 244.387615 
L 609.776873 244.387615 
L 609.918372 275.204383 
L 610.625865 275.204383 
L 610.767364 286.190136 
L 610.908863 282.522972 
L 611.333359 282.522972 
L 611.474857 248.511207 
L 611.616356 248.511207 
L 611.757855 252.178371 
L 611.899353 249.849013 
L 612.040852 249.849013 
L 612.182351 239.571511 
L 613.31434 239.571511 
L 613.455839 232.70935 
L 613.738836 232.70935 
L 613.880335 206.519819 
L 614.587828 206.519819 
L 614.729327 195.534066 
L 615.295321 195.534066 
L 615.43682 160.326144 
L 616.285812 160.326144 
L 616.427311 171.311897 
L 618.125295 171.311897 
L 618.266793 160.326144 
L 621.379764 160.326144 
L 621.521263 144.256727 
L 622.087258 144.256727 
L 622.228756 174.963322 
L 623.643743 174.963322 
L 623.785242 152.582605 
L 625.766223 152.582605 
L 625.907722 148.915441 
L 626.04922 126.172729 
L 628.1717 126.172729 
L 628.313199 121.907487 
L 629.020692 121.907487 
L 629.162191 88.887273 
L 629.30369 99.873026 
L 645.434538 99.873026 
L 645.576037 88.887273 
L 648.547509 88.887273 
L 648.689007 92.554437 
L 653.641461 92.554437 
L 653.782959 88.887273 
L 662.697375 88.887273 
L 662.838874 92.554437 
L 665.38585 92.554437 
L 665.527349 88.887273 
L 871.690909 88.887273 
L 871.690909 88.887273 
" style="fill:none;stroke:#8dd3c7;stroke-linecap:square;stroke-width:1.5;"/>
   </g>
   <g id="line2d_14">
    <path clip-path="url(#p3bf50259a1)" d="M 161.509091 398.471456 
L 161.792088 390.53905 
L 161.933587 382.040043 
L 162.075086 382.040043 
L 162.216584 378.026623 
L 162.64108 378.026623 
L 162.782579 348.406012 
L 163.914568 348.406012 
L 164.056067 340.69395 
L 164.76356 340.69395 
L 165.046558 309.357798 
L 165.329555 309.357798 
L 165.471054 301.189309 
L 166.037048 301.189309 
L 166.178547 291.919096 
L 179.337923 291.919096 
L 179.479422 291.462668 
L 180.186915 291.462668 
L 180.328414 270.482713 
L 180.469913 270.482713 
L 180.611411 246.292022 
L 250.228756 246.292022 
L 250.370255 238.343877 
L 330.175504 238.343877 
L 330.317003 205.575485 
L 518.227235 205.575485 
L 518.368733 181.620878 
L 558.695854 181.620878 
L 558.837353 163.096191 
L 615.295321 163.096191 
L 615.43682 160.326144 
L 621.379764 160.326144 
L 621.521263 144.256727 
L 625.907722 144.256727 
L 626.04922 126.172729 
L 628.1717 126.172729 
L 628.313199 121.907487 
L 629.020692 121.907487 
L 629.162191 88.887273 
L 871.690909 88.887273 
L 871.690909 88.887273 
" style="fill:none;stroke:#feffb3;stroke-linecap:square;stroke-width:1.5;"/>
   </g>
   <g id="line2d_15">
    <path clip-path="url(#p3bf50259a1)" d="M 161.509091 398.471456 
L 162.782579 398.471456 
L 162.924078 401.840813 
L 164.197566 401.840813 
L 164.339064 405.077795 
L 165.612552 405.077795 
L 165.754051 408.187605 
L 167.027539 408.187605 
L 167.169038 411.175237 
L 168.442526 411.175237 
L 168.584024 414.045493 
L 169.857512 414.045493 
L 169.999011 416.802982 
L 171.272499 416.802982 
L 171.413998 419.452137 
L 172.687486 419.452137 
L 172.828984 421.997213 
L 174.102472 421.997213 
L 174.243971 424.442298 
L 175.517459 424.442298 
L 175.658958 426.791322 
L 176.932446 426.791322 
L 177.073944 429.048059 
L 178.347432 429.048059 
L 178.488931 431.216134 
L 179.762419 431.216134 
L 179.903918 433.29903 
L 181.177406 433.29903 
L 181.318905 435.300094 
L 182.592393 435.300094 
L 182.733891 437.222541 
L 184.007379 437.222541 
L 184.148878 439.069459 
L 185.422366 439.069459 
L 185.563865 440.843817 
L 186.837353 440.843817 
L 186.978851 442.548464 
L 188.252339 442.548464 
L 188.393838 444.18614 
L 189.667326 444.18614 
L 189.808825 445.759475 
L 191.082313 445.759475 
L 191.223811 447.270998 
L 192.497299 447.270998 
L 192.638798 448.723137 
L 193.912286 448.723137 
L 194.053785 450.118224 
L 195.327273 450.118224 
L 195.468771 451.458502 
L 196.742259 451.458502 
L 196.883758 452.746124 
L 198.157246 452.746124 
L 198.298745 453.983158 
L 199.572233 453.983158 
L 199.713731 455.171591 
L 200.987219 455.171591 
L 201.128718 456.313335 
L 202.402206 456.313335 
L 202.543705 457.410221 
L 203.817193 457.410221 
L 203.958692 458.464014 
L 205.23218 458.464014 
L 205.373678 459.476405 
L 206.647166 459.476405 
L 206.788665 460.449023 
L 208.062153 460.449023 
L 208.203652 461.383428 
L 209.47714 461.383428 
L 209.618638 462.281123 
L 210.892126 462.281123 
L 211.033625 463.143549 
L 212.307113 463.143549 
L 212.448612 463.972093 
L 213.7221 463.972093 
L 213.863598 464.768085 
L 215.137086 464.768085 
L 215.278585 465.532805 
L 216.552073 465.532805 
L 216.693572 466.26748 
L 217.96706 466.26748 
L 218.108558 466.973292 
L 219.382046 466.973292 
L 219.523545 467.651374 
L 220.797033 467.651374 
L 220.938532 468.302816 
L 222.21202 468.302816 
L 222.353518 468.928665 
L 223.627006 468.928665 
L 223.768505 469.529925 
L 225.041993 469.529925 
L 225.183492 470.107563 
L 226.45698 470.107563 
L 226.598479 470.662507 
L 227.871967 470.662507 
L 228.013465 471.195649 
L 229.286953 471.195649 
L 229.428452 471.707845 
L 230.70194 471.707845 
L 230.843439 472.199918 
L 232.116927 472.199918 
L 232.258425 472.672659 
L 233.531913 472.672659 
L 233.673412 473.126826 
L 234.9469 473.126826 
L 235.088399 473.563151 
L 236.361887 473.563151 
L 236.503385 473.982333 
L 237.776873 473.982333 
L 237.918372 474.385047 
L 239.19186 474.385047 
L 239.333359 474.771939 
L 240.606847 474.771939 
L 240.748345 475.143631 
L 242.021833 475.143631 
L 242.163332 475.50072 
L 243.43682 475.50072 
L 243.578319 475.84378 
L 244.851807 475.84378 
L 244.993305 476.173361 
L 246.266793 476.173361 
L 246.408292 476.489995 
L 247.68178 476.489995 
L 247.823279 476.794188 
L 249.096767 476.794188 
L 249.238266 477.086431 
L 250.511754 477.086431 
L 250.653252 477.367192 
L 251.92674 477.367192 
L 252.068239 477.636923 
L 253.341727 477.636923 
L 253.483226 477.896056 
L 254.756714 477.896056 
L 254.898212 478.145009 
L 256.1717 478.145009 
L 256.313199 478.384181 
L 257.586687 478.384181 
L 257.728186 478.613956 
L 259.001674 478.613956 
L 259.143172 478.834705 
L 260.41666 478.834705 
L 260.558159 479.04678 
L 261.831647 479.04678 
L 261.973146 479.250524 
L 263.246634 479.250524 
L 263.388132 479.446263 
L 264.66162 479.446263 
L 264.803119 479.634311 
L 266.076607 479.634311 
L 266.218106 479.814972 
L 267.491594 479.814972 
L 267.774591 479.988535 
L 268.90658 479.988535 
L 269.189578 480.15528 
L 270.321567 480.15528 
L 270.604564 480.315473 
L 271.736554 480.315473 
L 272.019551 480.469372 
L 273.151541 480.469372 
L 273.434538 480.617226 
L 274.566527 480.617226 
L 274.849525 480.75927 
L 275.981514 480.75927 
L 276.264511 480.895734 
L 277.396501 480.895734 
L 277.679498 481.026837 
L 278.811487 481.026837 
L 279.094485 481.152789 
L 280.226474 481.152789 
L 280.509471 481.273792 
L 281.641461 481.273792 
L 281.924458 481.390042 
L 283.056447 481.390042 
L 283.339445 481.501724 
L 285.886421 481.609019 
L 286.169418 481.712098 
L 288.716394 481.811127 
L 288.999391 481.906266 
L 291.546367 481.997667 
L 291.829365 482.085478 
L 294.376341 482.169838 
L 294.659338 482.250884 
L 297.206314 482.328746 
L 297.489312 482.403549 
L 300.036288 482.475413 
L 300.319285 482.544454 
L 302.866261 482.610782 
L 303.149258 482.674504 
L 305.696234 482.735723 
L 306.12073 482.794537 
L 309.941194 482.905323 
L 310.36569 482.957474 
L 314.186154 483.055709 
L 314.61065 483.101951 
L 318.431114 483.189057 
L 318.85561 483.23006 
L 322.676075 483.307297 
L 323.242069 483.343655 
L 328.336021 483.444381 
L 328.902016 483.475353 
L 333.995968 483.561158 
L 334.703461 483.587543 
L 341.070901 483.683114 
L 341.919893 483.704707 
L 349.560822 483.800594 
L 350.551312 483.817571 
L 360.880715 483.919135 
L 362.4372 483.943292 
L 380.690529 484.053802 
L 383.096006 484.067585 
L 421.725143 484.176767 
L 429.507569 484.188729 
L 871.690909 484.232727 
L 871.690909 484.232727 
" style="fill:none;stroke:#bfbbd9;stroke-linecap:square;stroke-width:1.5;"/>
   </g>
   <g id="patch_3">
    <path d="M 126 504 
L 126 69.12 
" style="fill:none;stroke:#ffffff;stroke-linecap:square;stroke-linejoin:miter;stroke-width:0.8;"/>
   </g>
   <g id="patch_4">
    <path d="M 907.2 504 
L 907.2 69.12 
" style="fill:none;stroke:#ffffff;stroke-linecap:square;stroke-linejoin:miter;stroke-width:0.8;"/>
   </g>
   <g id="patch_5">
    <path d="M 126 504 
L 907.2 504 
" style="fill:none;stroke:#ffffff;stroke-linecap:square;stroke-linejoin:miter;stroke-width:0.8;"/>
   </g>
   <g id="patch_6">
    <path d="M 126 69.12 
L 907.2 69.12 
" style="fill:none;stroke:#ffffff;stroke-linecap:square;stroke-linejoin:miter;stroke-width:0.8;"/>
   </g>
   <g id="text_14">
    <!-- instance 28 with error 0.0 -->
    <g style="fill:#ffffff;" transform="translate(439.126875 63.12)scale(0.12 -0.12)">
     <defs>
      <path d="M 2834 3397 
L 2834 2853 
Q 2591 2978 2328 3040 
Q 2066 3103 1784 3103 
Q 1356 3103 1142 2972 
Q 928 2841 928 2578 
Q 928 2378 1081 2264 
Q 1234 2150 1697 2047 
L 1894 2003 
Q 2506 1872 2764 1633 
Q 3022 1394 3022 966 
Q 3022 478 2636 193 
Q 2250 -91 1575 -91 
Q 1294 -91 989 -36 
Q 684 19 347 128 
L 347 722 
Q 666 556 975 473 
Q 1284 391 1588 391 
Q 1994 391 2212 530 
Q 2431 669 2431 922 
Q 2431 1156 2273 1281 
Q 2116 1406 1581 1522 
L 1381 1569 
Q 847 1681 609 1914 
Q 372 2147 372 2553 
Q 372 3047 722 3315 
Q 1072 3584 1716 3584 
Q 2034 3584 2315 3537 
Q 2597 3491 2834 3397 
z
" id="DejaVuSans-73" transform="scale(0.015625)"/>
      <path d="M 3122 3366 
L 3122 2828 
Q 2878 2963 2633 3030 
Q 2388 3097 2138 3097 
Q 1578 3097 1268 2742 
Q 959 2388 959 1747 
Q 959 1106 1268 751 
Q 1578 397 2138 397 
Q 2388 397 2633 464 
Q 2878 531 3122 666 
L 3122 134 
Q 2881 22 2623 -34 
Q 2366 -91 2075 -91 
Q 1284 -91 818 406 
Q 353 903 353 1747 
Q 353 2603 823 3093 
Q 1294 3584 2113 3584 
Q 2378 3584 2631 3529 
Q 2884 3475 3122 3366 
z
" id="DejaVuSans-63" transform="scale(0.015625)"/>
      <path id="DejaVuSans-20" transform="scale(0.015625)"/>
      <path d="M 2034 2216 
Q 1584 2216 1326 1975 
Q 1069 1734 1069 1313 
Q 1069 891 1326 650 
Q 1584 409 2034 409 
Q 2484 409 2743 651 
Q 3003 894 3003 1313 
Q 3003 1734 2745 1975 
Q 2488 2216 2034 2216 
z
M 1403 2484 
Q 997 2584 770 2862 
Q 544 3141 544 3541 
Q 544 4100 942 4425 
Q 1341 4750 2034 4750 
Q 2731 4750 3128 4425 
Q 3525 4100 3525 3541 
Q 3525 3141 3298 2862 
Q 3072 2584 2669 2484 
Q 3125 2378 3379 2068 
Q 3634 1759 3634 1313 
Q 3634 634 3220 271 
Q 2806 -91 2034 -91 
Q 1263 -91 848 271 
Q 434 634 434 1313 
Q 434 1759 690 2068 
Q 947 2378 1403 2484 
z
M 1172 3481 
Q 1172 3119 1398 2916 
Q 1625 2713 2034 2713 
Q 2441 2713 2670 2916 
Q 2900 3119 2900 3481 
Q 2900 3844 2670 4047 
Q 2441 4250 2034 4250 
Q 1625 4250 1398 4047 
Q 1172 3844 1172 3481 
z
" id="DejaVuSans-38" transform="scale(0.015625)"/>
      <path d="M 269 3500 
L 844 3500 
L 1563 769 
L 2278 3500 
L 2956 3500 
L 3675 769 
L 4391 3500 
L 4966 3500 
L 4050 0 
L 3372 0 
L 2619 2869 
L 1863 0 
L 1184 0 
L 269 3500 
z
" id="DejaVuSans-77" transform="scale(0.015625)"/>
      <path d="M 3513 2113 
L 3513 0 
L 2938 0 
L 2938 2094 
Q 2938 2591 2744 2837 
Q 2550 3084 2163 3084 
Q 1697 3084 1428 2787 
Q 1159 2491 1159 1978 
L 1159 0 
L 581 0 
L 581 4863 
L 1159 4863 
L 1159 2956 
Q 1366 3272 1645 3428 
Q 1925 3584 2291 3584 
Q 2894 3584 3203 3211 
Q 3513 2838 3513 2113 
z
" id="DejaVuSans-68" transform="scale(0.015625)"/>
      <path d="M 684 794 
L 1344 794 
L 1344 0 
L 684 0 
L 684 794 
z
" id="DejaVuSans-2e" transform="scale(0.015625)"/>
     </defs>
     <use xlink:href="#DejaVuSans-69"/>
     <use x="27.783203" xlink:href="#DejaVuSans-6e"/>
     <use x="91.162109" xlink:href="#DejaVuSans-73"/>
     <use x="143.261719" xlink:href="#DejaVuSans-74"/>
     <use x="182.470703" xlink:href="#DejaVuSans-61"/>
     <use x="243.75" xlink:href="#DejaVuSans-6e"/>
     <use x="307.128906" xlink:href="#DejaVuSans-63"/>
     <use x="362.109375" xlink:href="#DejaVuSans-65"/>
     <use x="423.632812" xlink:href="#DejaVuSans-20"/>
     <use x="455.419922" xlink:href="#DejaVuSans-32"/>
     <use x="519.042969" xlink:href="#DejaVuSans-38"/>
     <use x="582.666016" xlink:href="#DejaVuSans-20"/>
     <use x="614.453125" xlink:href="#DejaVuSans-77"/>
     <use x="696.240234" xlink:href="#DejaVuSans-69"/>
     <use x="724.023438" xlink:href="#DejaVuSans-74"/>
     <use x="763.232422" xlink:href="#DejaVuSans-68"/>
     <use x="826.611328" xlink:href="#DejaVuSans-20"/>
     <use x="858.398438" xlink:href="#DejaVuSans-65"/>
     <use x="919.921875" xlink:href="#DejaVuSans-72"/>
     <use x="959.285156" xlink:href="#DejaVuSans-72"/>
     <use x="998.148438" xlink:href="#DejaVuSans-6f"/>
     <use x="1059.330078" xlink:href="#DejaVuSans-72"/>
     <use x="1100.443359" xlink:href="#DejaVuSans-20"/>
     <use x="1132.230469" xlink:href="#DejaVuSans-30"/>
     <use x="1195.853516" xlink:href="#DejaVuSans-2e"/>
     <use x="1227.640625" xlink:href="#DejaVuSans-30"/>
    </g>
   </g>
   <g id="legend_1">
    <g id="patch_7">
     <path d="M 805.348438 499 
L 900.2 499 
Q 902.2 499 902.2 497 
L 902.2 453.965625 
Q 902.2 451.965625 900.2 451.965625 
L 805.348438 451.965625 
Q 803.348438 451.965625 803.348438 453.965625 
L 803.348438 497 
Q 803.348438 499 805.348438 499 
z
" style="opacity:0.8;stroke:#cccccc;stroke-linejoin:miter;"/>
    </g>
    <g id="line2d_16">
     <path d="M 807.348438 460.064062 
L 827.348438 460.064062 
" style="fill:none;stroke:#8dd3c7;stroke-linecap:square;stroke-width:1.5;"/>
    </g>
    <g id="line2d_17"/>
    <g id="text_15">
     <!-- cost -->
     <g style="fill:#ffffff;" transform="translate(835.348438 463.564062)scale(0.1 -0.1)">
      <use xlink:href="#DejaVuSans-63"/>
      <use x="54.980469" xlink:href="#DejaVuSans-6f"/>
      <use x="116.162109" xlink:href="#DejaVuSans-73"/>
      <use x="168.261719" xlink:href="#DejaVuSans-74"/>
     </g>
    </g>
    <g id="line2d_18">
     <path d="M 807.348438 474.742188 
L 827.348438 474.742188 
" style="fill:none;stroke:#feffb3;stroke-linecap:square;stroke-width:1.5;"/>
    </g>
    <g id="line2d_19"/>
    <g id="text_16">
     <!-- best cost -->
     <g style="fill:#ffffff;" transform="translate(835.348438 478.242188)scale(0.1 -0.1)">
      <defs>
       <path d="M 3116 1747 
Q 3116 2381 2855 2742 
Q 2594 3103 2138 3103 
Q 1681 3103 1420 2742 
Q 1159 2381 1159 1747 
Q 1159 1113 1420 752 
Q 1681 391 2138 391 
Q 2594 391 2855 752 
Q 3116 1113 3116 1747 
z
M 1159 2969 
Q 1341 3281 1617 3432 
Q 1894 3584 2278 3584 
Q 2916 3584 3314 3078 
Q 3713 2572 3713 1747 
Q 3713 922 3314 415 
Q 2916 -91 2278 -91 
Q 1894 -91 1617 61 
Q 1341 213 1159 525 
L 1159 0 
L 581 0 
L 581 4863 
L 1159 4863 
L 1159 2969 
z
" id="DejaVuSans-62" transform="scale(0.015625)"/>
      </defs>
      <use xlink:href="#DejaVuSans-62"/>
      <use x="63.476562" xlink:href="#DejaVuSans-65"/>
      <use x="125" xlink:href="#DejaVuSans-73"/>
      <use x="177.099609" xlink:href="#DejaVuSans-74"/>
      <use x="216.308594" xlink:href="#DejaVuSans-20"/>
      <use x="248.095703" xlink:href="#DejaVuSans-63"/>
      <use x="303.076172" xlink:href="#DejaVuSans-6f"/>
      <use x="364.257812" xlink:href="#DejaVuSans-73"/>
      <use x="416.357422" xlink:href="#DejaVuSans-74"/>
     </g>
    </g>
    <g id="line2d_20">
     <path d="M 807.348438 489.420313 
L 827.348438 489.420313 
" style="fill:none;stroke:#bfbbd9;stroke-linecap:square;stroke-width:1.5;"/>
    </g>
    <g id="line2d_21"/>
    <g id="text_17">
     <!-- temperature -->
     <g style="fill:#ffffff;" transform="translate(835.348438 492.920313)scale(0.1 -0.1)">
      <defs>
       <path d="M 3328 2828 
Q 3544 3216 3844 3400 
Q 4144 3584 4550 3584 
Q 5097 3584 5394 3201 
Q 5691 2819 5691 2113 
L 5691 0 
L 5113 0 
L 5113 2094 
Q 5113 2597 4934 2840 
Q 4756 3084 4391 3084 
Q 3944 3084 3684 2787 
Q 3425 2491 3425 1978 
L 3425 0 
L 2847 0 
L 2847 2094 
Q 2847 2600 2669 2842 
Q 2491 3084 2119 3084 
Q 1678 3084 1418 2786 
Q 1159 2488 1159 1978 
L 1159 0 
L 581 0 
L 581 3500 
L 1159 3500 
L 1159 2956 
Q 1356 3278 1631 3431 
Q 1906 3584 2284 3584 
Q 2666 3584 2933 3390 
Q 3200 3197 3328 2828 
z
" id="DejaVuSans-6d" transform="scale(0.015625)"/>
       <path d="M 1159 525 
L 1159 -1331 
L 581 -1331 
L 581 3500 
L 1159 3500 
L 1159 2969 
Q 1341 3281 1617 3432 
Q 1894 3584 2278 3584 
Q 2916 3584 3314 3078 
Q 3713 2572 3713 1747 
Q 3713 922 3314 415 
Q 2916 -91 2278 -91 
Q 1894 -91 1617 61 
Q 1341 213 1159 525 
z
M 3116 1747 
Q 3116 2381 2855 2742 
Q 2594 3103 2138 3103 
Q 1681 3103 1420 2742 
Q 1159 2381 1159 1747 
Q 1159 1113 1420 752 
Q 1681 391 2138 391 
Q 2594 391 2855 752 
Q 3116 1113 3116 1747 
z
" id="DejaVuSans-70" transform="scale(0.015625)"/>
       <path d="M 544 1381 
L 544 3500 
L 1119 3500 
L 1119 1403 
Q 1119 906 1312 657 
Q 1506 409 1894 409 
Q 2359 409 2629 706 
Q 2900 1003 2900 1516 
L 2900 3500 
L 3475 3500 
L 3475 0 
L 2900 0 
L 2900 538 
Q 2691 219 2414 64 
Q 2138 -91 1772 -91 
Q 1169 -91 856 284 
Q 544 659 544 1381 
z
M 1991 3584 
L 1991 3584 
z
" id="DejaVuSans-75" transform="scale(0.015625)"/>
      </defs>
      <use xlink:href="#DejaVuSans-74"/>
      <use x="39.208984" xlink:href="#DejaVuSans-65"/>
      <use x="100.732422" xlink:href="#DejaVuSans-6d"/>
      <use x="198.144531" xlink:href="#DejaVuSans-70"/>
      <use x="261.621094" xlink:href="#DejaVuSans-65"/>
      <use x="323.144531" xlink:href="#DejaVuSans-72"/>
      <use x="364.257812" xlink:href="#DejaVuSans-61"/>
      <use x="425.537109" xlink:href="#DejaVuSans-74"/>
      <use x="464.746094" xlink:href="#DejaVuSans-75"/>
      <use x="528.125" xlink:href="#DejaVuSans-72"/>
      <use x="566.988281" xlink:href="#DejaVuSans-65"/>
     </g>
    </g>
   </g>
  </g>
 </g>
 <defs>
  <clipPath id="p3bf50259a1">
   <rect height="434.88" width="781.2" x="126" y="69.12"/>
  </clipPath>
 </defs>
</svg>
