<?xml version="1.0" encoding="utf-8" standalone="no"?>
<!DOCTYPE svg PUBLIC "-//W3C//DTD SVG 1.1//EN"
  "http://www.w3.org/Graphics/SVG/1.1/DTD/svg11.dtd">
<svg height="576pt" version="1.1" viewBox="0 0 1008 576" width="1008pt" xmlns="http://www.w3.org/2000/svg" xmlns:xlink="http://www.w3.org/1999/xlink">
 <metadata>
  <rdf:RDF xmlns:cc="http://creativecommons.org/ns#" xmlns:dc="http://purl.org/dc/elements/1.1/" xmlns:rdf="http://www.w3.org/1999/02/22-rdf-syntax-ns#">
   <cc:Work>
    <dc:type rdf:resource="http://purl.org/dc/dcmitype/StillImage"/>
    <dc:date>2022-01-08T01:27:35.044850</dc:date>
    <dc:format>image/svg+xml</dc:format>
    <dc:creator>
     <cc:Agent>
      <dc:title>Matplotlib v3.4.3, https://matplotlib.org/</dc:title>
     </cc:Agent>
    </dc:creator>
   </cc:Work>
  </rdf:RDF>
 </metadata>
 <defs>
  <style type="text/css">*{stroke-linecap:butt;stroke-linejoin:round;}</style>
 </defs>
 <g id="figure_1">
  <g id="patch_1">
   <path d="M 0 576 
L 1008 576 
L 1008 0 
L 0 0 
z
"/>
  </g>
  <g id="axes_1">
   <g id="patch_2">
    <path d="M 126 504 
L 907.2 504 
L 907.2 69.12 
L 126 69.12 
z
"/>
   </g>
   <g id="matplotlib.axis_1">
    <g id="xtick_1">
     <g id="line2d_1">
      <defs>
       <path d="M 0 0 
L 0 3.5 
" id="m935353666a" style="stroke:#ffffff;stroke-width:0.8;"/>
      </defs>
      <g>
       <use style="fill:#ffffff;stroke:#ffffff;stroke-width:0.8;" x="161.509091" xlink:href="#m935353666a" y="504"/>
      </g>
     </g>
     <g id="text_1">
      <!-- 0 -->
      <g style="fill:#ffffff;" transform="translate(158.327841 518.598438)scale(0.1 -0.1)">
       <defs>
        <path d="M 2034 4250 
Q 1547 4250 1301 3770 
Q 1056 3291 1056 2328 
Q 1056 1369 1301 889 
Q 1547 409 2034 409 
Q 2525 409 2770 889 
Q 3016 1369 3016 2328 
Q 3016 3291 2770 3770 
Q 2525 4250 2034 4250 
z
M 2034 4750 
Q 2819 4750 3233 4129 
Q 3647 3509 3647 2328 
Q 3647 1150 3233 529 
Q 2819 -91 2034 -91 
Q 1250 -91 836 529 
Q 422 1150 422 2328 
Q 422 3509 836 4129 
Q 1250 4750 2034 4750 
z
" id="DejaVuSans-30" transform="scale(0.015625)"/>
       </defs>
       <use xlink:href="#DejaVuSans-30"/>
      </g>
     </g>
    </g>
    <g id="xtick_2">
     <g id="line2d_2">
      <g>
       <use style="fill:#ffffff;stroke:#ffffff;stroke-width:0.8;" x="297.299114" xlink:href="#m935353666a" y="504"/>
      </g>
     </g>
     <g id="text_2">
      <!-- 500 -->
      <g style="fill:#ffffff;" transform="translate(287.755364 518.598438)scale(0.1 -0.1)">
       <defs>
        <path d="M 691 4666 
L 3169 4666 
L 3169 4134 
L 1269 4134 
L 1269 2991 
Q 1406 3038 1543 3061 
Q 1681 3084 1819 3084 
Q 2600 3084 3056 2656 
Q 3513 2228 3513 1497 
Q 3513 744 3044 326 
Q 2575 -91 1722 -91 
Q 1428 -91 1123 -41 
Q 819 9 494 109 
L 494 744 
Q 775 591 1075 516 
Q 1375 441 1709 441 
Q 2250 441 2565 725 
Q 2881 1009 2881 1497 
Q 2881 1984 2565 2268 
Q 2250 2553 1709 2553 
Q 1456 2553 1204 2497 
Q 953 2441 691 2322 
L 691 4666 
z
" id="DejaVuSans-35" transform="scale(0.015625)"/>
       </defs>
       <use xlink:href="#DejaVuSans-35"/>
       <use x="63.623047" xlink:href="#DejaVuSans-30"/>
       <use x="127.246094" xlink:href="#DejaVuSans-30"/>
      </g>
     </g>
    </g>
    <g id="xtick_3">
     <g id="line2d_3">
      <g>
       <use style="fill:#ffffff;stroke:#ffffff;stroke-width:0.8;" x="433.089136" xlink:href="#m935353666a" y="504"/>
      </g>
     </g>
     <g id="text_3">
      <!-- 1000 -->
      <g style="fill:#ffffff;" transform="translate(420.364136 518.598438)scale(0.1 -0.1)">
       <defs>
        <path d="M 794 531 
L 1825 531 
L 1825 4091 
L 703 3866 
L 703 4441 
L 1819 4666 
L 2450 4666 
L 2450 531 
L 3481 531 
L 3481 0 
L 794 0 
L 794 531 
z
" id="DejaVuSans-31" transform="scale(0.015625)"/>
       </defs>
       <use xlink:href="#DejaVuSans-31"/>
       <use x="63.623047" xlink:href="#DejaVuSans-30"/>
       <use x="127.246094" xlink:href="#DejaVuSans-30"/>
       <use x="190.869141" xlink:href="#DejaVuSans-30"/>
      </g>
     </g>
    </g>
    <g id="xtick_4">
     <g id="line2d_4">
      <g>
       <use style="fill:#ffffff;stroke:#ffffff;stroke-width:0.8;" x="568.879159" xlink:href="#m935353666a" y="504"/>
      </g>
     </g>
     <g id="text_4">
      <!-- 1500 -->
      <g style="fill:#ffffff;" transform="translate(556.154159 518.598438)scale(0.1 -0.1)">
       <use xlink:href="#DejaVuSans-31"/>
       <use x="63.623047" xlink:href="#DejaVuSans-35"/>
       <use x="127.246094" xlink:href="#DejaVuSans-30"/>
       <use x="190.869141" xlink:href="#DejaVuSans-30"/>
      </g>
     </g>
    </g>
    <g id="xtick_5">
     <g id="line2d_5">
      <g>
       <use style="fill:#ffffff;stroke:#ffffff;stroke-width:0.8;" x="704.669181" xlink:href="#m935353666a" y="504"/>
      </g>
     </g>
     <g id="text_5">
      <!-- 2000 -->
      <g style="fill:#ffffff;" transform="translate(691.944181 518.598438)scale(0.1 -0.1)">
       <defs>
        <path d="M 1228 531 
L 3431 531 
L 3431 0 
L 469 0 
L 469 531 
Q 828 903 1448 1529 
Q 2069 2156 2228 2338 
Q 2531 2678 2651 2914 
Q 2772 3150 2772 3378 
Q 2772 3750 2511 3984 
Q 2250 4219 1831 4219 
Q 1534 4219 1204 4116 
Q 875 4013 500 3803 
L 500 4441 
Q 881 4594 1212 4672 
Q 1544 4750 1819 4750 
Q 2544 4750 2975 4387 
Q 3406 4025 3406 3419 
Q 3406 3131 3298 2873 
Q 3191 2616 2906 2266 
Q 2828 2175 2409 1742 
Q 1991 1309 1228 531 
z
" id="DejaVuSans-32" transform="scale(0.015625)"/>
       </defs>
       <use xlink:href="#DejaVuSans-32"/>
       <use x="63.623047" xlink:href="#DejaVuSans-30"/>
       <use x="127.246094" xlink:href="#DejaVuSans-30"/>
       <use x="190.869141" xlink:href="#DejaVuSans-30"/>
      </g>
     </g>
    </g>
    <g id="xtick_6">
     <g id="line2d_6">
      <g>
       <use style="fill:#ffffff;stroke:#ffffff;stroke-width:0.8;" x="840.459204" xlink:href="#m935353666a" y="504"/>
      </g>
     </g>
     <g id="text_6">
      <!-- 2500 -->
      <g style="fill:#ffffff;" transform="translate(827.734204 518.598438)scale(0.1 -0.1)">
       <use xlink:href="#DejaVuSans-32"/>
       <use x="63.623047" xlink:href="#DejaVuSans-35"/>
       <use x="127.246094" xlink:href="#DejaVuSans-30"/>
       <use x="190.869141" xlink:href="#DejaVuSans-30"/>
      </g>
     </g>
    </g>
    <g id="text_7">
     <!-- iteration -->
     <g style="fill:#ffffff;" transform="translate(495.477344 532.276562)scale(0.1 -0.1)">
      <defs>
       <path d="M 603 3500 
L 1178 3500 
L 1178 0 
L 603 0 
L 603 3500 
z
M 603 4863 
L 1178 4863 
L 1178 4134 
L 603 4134 
L 603 4863 
z
" id="DejaVuSans-69" transform="scale(0.015625)"/>
       <path d="M 1172 4494 
L 1172 3500 
L 2356 3500 
L 2356 3053 
L 1172 3053 
L 1172 1153 
Q 1172 725 1289 603 
Q 1406 481 1766 481 
L 2356 481 
L 2356 0 
L 1766 0 
Q 1100 0 847 248 
Q 594 497 594 1153 
L 594 3053 
L 172 3053 
L 172 3500 
L 594 3500 
L 594 4494 
L 1172 4494 
z
" id="DejaVuSans-74" transform="scale(0.015625)"/>
       <path d="M 3597 1894 
L 3597 1613 
L 953 1613 
Q 991 1019 1311 708 
Q 1631 397 2203 397 
Q 2534 397 2845 478 
Q 3156 559 3463 722 
L 3463 178 
Q 3153 47 2828 -22 
Q 2503 -91 2169 -91 
Q 1331 -91 842 396 
Q 353 884 353 1716 
Q 353 2575 817 3079 
Q 1281 3584 2069 3584 
Q 2775 3584 3186 3129 
Q 3597 2675 3597 1894 
z
M 3022 2063 
Q 3016 2534 2758 2815 
Q 2500 3097 2075 3097 
Q 1594 3097 1305 2825 
Q 1016 2553 972 2059 
L 3022 2063 
z
" id="DejaVuSans-65" transform="scale(0.015625)"/>
       <path d="M 2631 2963 
Q 2534 3019 2420 3045 
Q 2306 3072 2169 3072 
Q 1681 3072 1420 2755 
Q 1159 2438 1159 1844 
L 1159 0 
L 581 0 
L 581 3500 
L 1159 3500 
L 1159 2956 
Q 1341 3275 1631 3429 
Q 1922 3584 2338 3584 
Q 2397 3584 2469 3576 
Q 2541 3569 2628 3553 
L 2631 2963 
z
" id="DejaVuSans-72" transform="scale(0.015625)"/>
       <path d="M 2194 1759 
Q 1497 1759 1228 1600 
Q 959 1441 959 1056 
Q 959 750 1161 570 
Q 1363 391 1709 391 
Q 2188 391 2477 730 
Q 2766 1069 2766 1631 
L 2766 1759 
L 2194 1759 
z
M 3341 1997 
L 3341 0 
L 2766 0 
L 2766 531 
Q 2569 213 2275 61 
Q 1981 -91 1556 -91 
Q 1019 -91 701 211 
Q 384 513 384 1019 
Q 384 1609 779 1909 
Q 1175 2209 1959 2209 
L 2766 2209 
L 2766 2266 
Q 2766 2663 2505 2880 
Q 2244 3097 1772 3097 
Q 1472 3097 1187 3025 
Q 903 2953 641 2809 
L 641 3341 
Q 956 3463 1253 3523 
Q 1550 3584 1831 3584 
Q 2591 3584 2966 3190 
Q 3341 2797 3341 1997 
z
" id="DejaVuSans-61" transform="scale(0.015625)"/>
       <path d="M 1959 3097 
Q 1497 3097 1228 2736 
Q 959 2375 959 1747 
Q 959 1119 1226 758 
Q 1494 397 1959 397 
Q 2419 397 2687 759 
Q 2956 1122 2956 1747 
Q 2956 2369 2687 2733 
Q 2419 3097 1959 3097 
z
M 1959 3584 
Q 2709 3584 3137 3096 
Q 3566 2609 3566 1747 
Q 3566 888 3137 398 
Q 2709 -91 1959 -91 
Q 1206 -91 779 398 
Q 353 888 353 1747 
Q 353 2609 779 3096 
Q 1206 3584 1959 3584 
z
" id="DejaVuSans-6f" transform="scale(0.015625)"/>
       <path d="M 3513 2113 
L 3513 0 
L 2938 0 
L 2938 2094 
Q 2938 2591 2744 2837 
Q 2550 3084 2163 3084 
Q 1697 3084 1428 2787 
Q 1159 2491 1159 1978 
L 1159 0 
L 581 0 
L 581 3500 
L 1159 3500 
L 1159 2956 
Q 1366 3272 1645 3428 
Q 1925 3584 2291 3584 
Q 2894 3584 3203 3211 
Q 3513 2838 3513 2113 
z
" id="DejaVuSans-6e" transform="scale(0.015625)"/>
      </defs>
      <use xlink:href="#DejaVuSans-69"/>
      <use x="27.783203" xlink:href="#DejaVuSans-74"/>
      <use x="66.992188" xlink:href="#DejaVuSans-65"/>
      <use x="128.515625" xlink:href="#DejaVuSans-72"/>
      <use x="169.628906" xlink:href="#DejaVuSans-61"/>
      <use x="230.908203" xlink:href="#DejaVuSans-74"/>
      <use x="270.117188" xlink:href="#DejaVuSans-69"/>
      <use x="297.900391" xlink:href="#DejaVuSans-6f"/>
      <use x="359.082031" xlink:href="#DejaVuSans-6e"/>
     </g>
    </g>
   </g>
   <g id="matplotlib.axis_2">
    <g id="ytick_1">
     <g id="line2d_7">
      <defs>
       <path d="M 0 0 
L -3.5 0 
" id="m78748fc5a0" style="stroke:#ffffff;stroke-width:0.8;"/>
      </defs>
      <g>
       <use style="fill:#ffffff;stroke:#ffffff;stroke-width:0.8;" x="126" xlink:href="#m78748fc5a0" y="484.232727"/>
      </g>
     </g>
     <g id="text_8">
      <!-- 0 -->
      <g style="fill:#ffffff;" transform="translate(112.6375 488.031946)scale(0.1 -0.1)">
       <use xlink:href="#DejaVuSans-30"/>
      </g>
     </g>
    </g>
    <g id="ytick_2">
     <g id="line2d_8">
      <g>
       <use style="fill:#ffffff;stroke:#ffffff;stroke-width:0.8;" x="126" xlink:href="#m78748fc5a0" y="419.485683"/>
      </g>
     </g>
     <g id="text_9">
      <!-- 5000 -->
      <g style="fill:#ffffff;" transform="translate(93.55 423.284901)scale(0.1 -0.1)">
       <use xlink:href="#DejaVuSans-35"/>
       <use x="63.623047" xlink:href="#DejaVuSans-30"/>
       <use x="127.246094" xlink:href="#DejaVuSans-30"/>
       <use x="190.869141" xlink:href="#DejaVuSans-30"/>
      </g>
     </g>
    </g>
    <g id="ytick_3">
     <g id="line2d_9">
      <g>
       <use style="fill:#ffffff;stroke:#ffffff;stroke-width:0.8;" x="126" xlink:href="#m78748fc5a0" y="354.738638"/>
      </g>
     </g>
     <g id="text_10">
      <!-- 10000 -->
      <g style="fill:#ffffff;" transform="translate(87.1875 358.537857)scale(0.1 -0.1)">
       <use xlink:href="#DejaVuSans-31"/>
       <use x="63.623047" xlink:href="#DejaVuSans-30"/>
       <use x="127.246094" xlink:href="#DejaVuSans-30"/>
       <use x="190.869141" xlink:href="#DejaVuSans-30"/>
       <use x="254.492188" xlink:href="#DejaVuSans-30"/>
      </g>
     </g>
    </g>
    <g id="ytick_4">
     <g id="line2d_10">
      <g>
       <use style="fill:#ffffff;stroke:#ffffff;stroke-width:0.8;" x="126" xlink:href="#m78748fc5a0" y="289.991593"/>
      </g>
     </g>
     <g id="text_11">
      <!-- 15000 -->
      <g style="fill:#ffffff;" transform="translate(87.1875 293.790812)scale(0.1 -0.1)">
       <use xlink:href="#DejaVuSans-31"/>
       <use x="63.623047" xlink:href="#DejaVuSans-35"/>
       <use x="127.246094" xlink:href="#DejaVuSans-30"/>
       <use x="190.869141" xlink:href="#DejaVuSans-30"/>
       <use x="254.492188" xlink:href="#DejaVuSans-30"/>
      </g>
     </g>
    </g>
    <g id="ytick_5">
     <g id="line2d_11">
      <g>
       <use style="fill:#ffffff;stroke:#ffffff;stroke-width:0.8;" x="126" xlink:href="#m78748fc5a0" y="225.244549"/>
      </g>
     </g>
     <g id="text_12">
      <!-- 20000 -->
      <g style="fill:#ffffff;" transform="translate(87.1875 229.043768)scale(0.1 -0.1)">
       <use xlink:href="#DejaVuSans-32"/>
       <use x="63.623047" xlink:href="#DejaVuSans-30"/>
       <use x="127.246094" xlink:href="#DejaVuSans-30"/>
       <use x="190.869141" xlink:href="#DejaVuSans-30"/>
       <use x="254.492188" xlink:href="#DejaVuSans-30"/>
      </g>
     </g>
    </g>
    <g id="ytick_6">
     <g id="line2d_12">
      <g>
       <use style="fill:#ffffff;stroke:#ffffff;stroke-width:0.8;" x="126" xlink:href="#m78748fc5a0" y="160.497504"/>
      </g>
     </g>
     <g id="text_13">
      <!-- 25000 -->
      <g style="fill:#ffffff;" transform="translate(87.1875 164.296723)scale(0.1 -0.1)">
       <use xlink:href="#DejaVuSans-32"/>
       <use x="63.623047" xlink:href="#DejaVuSans-35"/>
       <use x="127.246094" xlink:href="#DejaVuSans-30"/>
       <use x="190.869141" xlink:href="#DejaVuSans-30"/>
       <use x="254.492188" xlink:href="#DejaVuSans-30"/>
      </g>
     </g>
    </g>
    <g id="ytick_7">
     <g id="line2d_13">
      <g>
       <use style="fill:#ffffff;stroke:#ffffff;stroke-width:0.8;" x="126" xlink:href="#m78748fc5a0" y="95.750459"/>
      </g>
     </g>
     <g id="text_14">
      <!-- 30000 -->
      <g style="fill:#ffffff;" transform="translate(87.1875 99.549678)scale(0.1 -0.1)">
       <defs>
        <path d="M 2597 2516 
Q 3050 2419 3304 2112 
Q 3559 1806 3559 1356 
Q 3559 666 3084 287 
Q 2609 -91 1734 -91 
Q 1441 -91 1130 -33 
Q 819 25 488 141 
L 488 750 
Q 750 597 1062 519 
Q 1375 441 1716 441 
Q 2309 441 2620 675 
Q 2931 909 2931 1356 
Q 2931 1769 2642 2001 
Q 2353 2234 1838 2234 
L 1294 2234 
L 1294 2753 
L 1863 2753 
Q 2328 2753 2575 2939 
Q 2822 3125 2822 3475 
Q 2822 3834 2567 4026 
Q 2313 4219 1838 4219 
Q 1578 4219 1281 4162 
Q 984 4106 628 3988 
L 628 4550 
Q 988 4650 1302 4700 
Q 1616 4750 1894 4750 
Q 2613 4750 3031 4423 
Q 3450 4097 3450 3541 
Q 3450 3153 3228 2886 
Q 3006 2619 2597 2516 
z
" id="DejaVuSans-33" transform="scale(0.015625)"/>
       </defs>
       <use xlink:href="#DejaVuSans-33"/>
       <use x="63.623047" xlink:href="#DejaVuSans-30"/>
       <use x="127.246094" xlink:href="#DejaVuSans-30"/>
       <use x="190.869141" xlink:href="#DejaVuSans-30"/>
       <use x="254.492188" xlink:href="#DejaVuSans-30"/>
      </g>
     </g>
    </g>
   </g>
   <g id="line2d_14">
    <path clip-path="url(#p368dd0b5cd)" d="M 161.509091 243.555013 
L 161.780671 263.34171 
L 162.052251 263.937383 
L 162.595411 329.021112 
L 162.866991 310.43871 
L 163.138571 279.411926 
L 163.410151 347.227981 
L 163.681731 344.469757 
L 163.953311 349.144493 
L 164.224891 333.100176 
L 164.496471 303.847461 
L 164.768051 328.684427 
L 165.039631 329.927571 
L 165.311212 304.689173 
L 165.582792 291.506674 
L 165.854372 313.28758 
L 166.125952 323.129131 
L 166.397532 345.687001 
L 166.669112 331.4815 
L 166.940692 359.866604 
L 167.483852 305.103554 
L 167.755432 307.538043 
L 168.027012 297.243262 
L 168.298592 298.887837 
L 168.841752 354.673891 
L 169.113332 341.32305 
L 169.656492 282.299645 
L 169.928072 310.296267 
L 170.199652 286.883735 
L 170.742812 312.64011 
L 171.014392 300.480615 
L 171.285973 323.893146 
L 171.557553 321.458657 
L 171.829133 323.893146 
L 172.100713 294.88647 
L 172.372293 321.264416 
L 172.643873 313.72786 
L 172.915453 315.359486 
L 173.187033 285.109666 
L 173.458613 287.362863 
L 173.730193 297.657644 
L 174.273353 261.192108 
L 174.544933 258.938911 
L 174.816513 252.464206 
L 175.088093 252.464206 
L 175.359673 287.608902 
L 175.631253 279.852206 
L 175.902833 302.461874 
L 176.174413 315.03575 
L 176.445993 292.775716 
L 176.717573 280.616221 
L 176.989153 303.614372 
L 177.260734 272.587588 
L 177.532314 277.275274 
L 177.803894 263.069772 
L 178.618634 319.399701 
L 179.161794 370.355625 
L 179.433374 378.78569 
L 179.976534 367.480856 
L 180.248114 372.932558 
L 180.519694 348.095591 
L 180.791274 335.936096 
L 181.062854 344.521554 
L 181.606014 400.385305 
L 181.877594 390.971084 
L 182.149174 419.97776 
L 182.420754 414.526059 
L 182.692334 402.923389 
L 182.963914 376.545443 
L 183.235495 376.545443 
L 183.778655 331.766387 
L 184.050235 325.291682 
L 184.321815 325.382328 
L 184.593395 322.947839 
L 184.864975 308.289108 
L 185.136555 301.814404 
L 185.408135 324.372274 
L 185.679715 295.365598 
L 185.951295 318.363748 
L 186.222875 288.113929 
L 186.494455 311.643005 
L 186.766035 311.97969 
L 187.037615 292.723919 
L 187.309195 321.730595 
L 187.580775 292.723919 
L 187.852355 286.741292 
L 188.123935 316.991111 
L 188.667095 279.373078 
L 188.938675 284.229106 
L 189.210256 257.85116 
L 189.481836 284.59169 
L 189.753416 335.185031 
L 190.024996 324.786655 
L 190.296576 324.786655 
L 190.568156 350.025053 
L 190.839736 320.772338 
L 191.111316 308.302058 
L 191.382896 308.302058 
L 191.654476 320.772338 
L 191.926056 308.612843 
L 192.197636 302.138139 
L 192.469216 275.760193 
L 192.740796 293.928214 
L 193.012376 280.577373 
L 193.283956 290.263531 
L 193.555536 290.263531 
L 193.827116 303.446029 
L 194.370276 247.180848 
L 194.913436 218.536755 
L 195.185017 193.816333 
L 195.728177 258.692872 
L 196.271337 312.924997 
L 196.542917 283.672282 
L 196.814497 283.762928 
L 197.357657 256.374928 
L 197.629237 281.613326 
L 197.900817 269.453831 
L 198.172397 292.451981 
L 198.443977 293.708074 
L 198.987137 350.491232 
L 199.258717 324.113286 
L 199.530297 312.899098 
L 199.801877 287.6607 
L 200.073457 312.899098 
L 200.345037 315.294738 
L 200.616617 334.472813 
L 200.888197 308.094867 
L 201.159778 295.961271 
L 201.702938 235.681772 
L 201.974518 219.287821 
L 202.246098 233.493322 
L 202.517678 204.486646 
L 202.789258 216.646141 
L 203.060838 238.906175 
L 203.332418 212.385786 
L 203.603998 241.392462 
L 203.875578 213.39584 
L 204.147158 241.21117 
L 204.418738 234.736466 
L 204.690318 207.995936 
L 204.961898 229.776842 
L 205.233478 238.517693 
L 205.505058 263.354659 
L 205.776638 242.376617 
L 206.048218 244.552117 
L 206.319798 263.807889 
L 206.591378 237.287499 
L 206.862958 251.026822 
L 207.134539 237.675981 
L 207.677699 310.205621 
L 207.949279 283.685231 
L 208.220859 280.719817 
L 208.764019 332.646946 
L 209.035599 342.941727 
L 209.307179 330.782232 
L 209.578759 302.785609 
L 209.850339 288.580108 
L 210.121919 307.835879 
L 210.393499 285.575845 
L 210.665079 306.204253 
L 210.936659 303.005749 
L 211.208239 280.564424 
L 211.479819 321.264416 
L 211.751399 308.081918 
L 212.022979 281.561528 
L 212.294559 280.137093 
L 212.566139 281.678073 
L 212.837719 294.860571 
L 213.109299 299.7166 
L 213.38088 326.236989 
L 213.65246 300.428817 
L 213.92404 298.797192 
L 214.19562 303.588473 
L 214.73878 357.393267 
L 215.01036 333.980736 
L 215.28194 352.899822 
L 215.55352 353.236507 
L 216.09668 307.680486 
L 216.63984 342.475548 
L 216.91142 377.814485 
L 217.183 348.807809 
L 217.45458 354.142965 
L 217.72616 336.311629 
L 217.99774 346.606409 
L 218.26932 317.599733 
L 218.5409 317.599733 
L 218.81248 292.361335 
L 219.08406 297.217364 
L 219.355641 309.687644 
L 219.627221 302.151088 
L 219.898801 329.254201 
L 220.170381 334.990789 
L 220.441961 345.920091 
L 221.256701 307.123661 
L 221.528281 330.199508 
L 221.799861 303.821562 
L 222.071441 291.662067 
L 222.343021 262.409352 
L 222.614601 267.265381 
L 222.886181 260.790676 
L 223.157761 250.832581 
L 223.700921 274.309859 
L 223.972501 296.86773 
L 224.244081 309.027225 
L 224.787241 256.98355 
L 225.058821 254.549061 
L 225.330402 261.023766 
L 225.601982 229.996982 
L 225.873562 364.139909 
L 226.145142 350.957411 
L 226.416722 394.778211 
L 226.688302 394.778211 
L 226.959882 414.033982 
L 227.231462 409.177953 
L 227.503042 386.917919 
L 227.774622 387.008565 
L 228.317782 406.717566 
L 228.589362 400.242861 
L 228.860942 371.236185 
L 229.132522 393.496219 
L 229.404102 365.111115 
L 229.675682 363.479489 
L 229.947262 353.521394 
L 230.218842 324.268679 
L 230.490422 330.743383 
L 230.762002 324.268679 
L 231.033582 334.446914 
L 231.305163 339.302943 
L 231.576743 338.966258 
L 231.848323 348.717163 
L 232.119903 351.863869 
L 232.391483 367.247767 
L 232.663063 359.763009 
L 232.934643 333.954837 
L 233.206223 325.278733 
L 233.477803 294.588634 
L 233.749383 296.4145 
L 234.020963 283.06366 
L 234.292543 292.413133 
L 234.564123 285.938428 
L 234.835703 263.678394 
L 235.107283 277.029235 
L 235.378863 297.385706 
L 235.650443 290.082239 
L 235.922023 321.109023 
L 236.193603 290.082239 
L 236.736763 356.460909 
L 237.008343 329.94052 
L 237.279924 324.03559 
L 237.551504 324.009691 
L 237.823084 329.914621 
L 238.094664 306.256051 
L 238.366244 307.887677 
L 238.637824 281.509731 
L 238.909404 268.327232 
L 239.180984 277.857997 
L 239.724144 338.823815 
L 239.995724 352.200554 
L 240.267304 382.450373 
L 240.538884 370.290878 
L 240.810464 364.839177 
L 241.082044 364.839177 
L 241.353624 385.765422 
L 241.896784 366.211814 
L 242.439944 317.573834 
L 242.711524 317.573834 
L 242.983104 325.11039 
L 243.254685 325.11039 
L 243.526265 328.360692 
L 243.797845 352.420694 
L 244.069425 350.944461 
L 244.341005 378.941083 
L 244.612585 352.420694 
L 244.884165 373.087951 
L 245.155745 359.73711 
L 245.427325 294.485038 
L 245.698905 349.494127 
L 245.970485 318.467344 
L 246.242065 304.53378 
L 246.513645 305.776923 
L 246.785225 314.206988 
L 247.056805 288.96859 
L 247.328385 286.080872 
L 247.599965 299.431713 
L 247.871545 292.957008 
L 248.414705 273.260957 
L 248.686285 246.883011 
L 248.957865 245.860008 
L 249.229446 227.303505 
L 249.772606 344.897087 
L 250.044186 344.897087 
L 250.315766 319.658689 
L 250.587346 373.152698 
L 250.858926 378.604399 
L 251.130506 349.351684 
L 251.402086 335.469918 
L 251.673666 361.92556 
L 251.945246 345.479811 
L 252.216826 359.361577 
L 252.488406 351.825021 
L 252.759986 380.831697 
L 253.031566 357.833547 
L 253.303146 352.977518 
L 253.846306 293.954113 
L 254.117886 301.490669 
L 254.389466 301.374124 
L 254.661046 306.230152 
L 254.932626 283.970118 
L 255.475787 310.23152 
L 255.747367 340.481339 
L 256.018947 352.640834 
L 256.290527 376.053365 
L 256.562107 375.962719 
L 256.833687 361.757218 
L 257.105267 386.594184 
L 257.376847 358.20908 
L 257.648427 344.417959 
L 257.920007 369.941244 
L 258.463167 315.91631 
L 258.734747 329.034061 
L 259.006327 329.034061 
L 259.277907 316.563781 
L 259.549487 331.792285 
L 259.821067 360.17739 
L 260.364227 311.176826 
L 260.635807 313.611315 
L 260.907387 335.871349 
L 261.178967 307.874727 
L 261.450548 303.018699 
L 261.722128 331.015321 
L 261.993708 330.898776 
L 262.265288 315.773867 
L 262.536868 292.47788 
L 262.808448 287.634801 
L 263.080028 311.047332 
L 263.351608 321.342112 
L 263.623188 296.103714 
L 263.894768 290.652013 
L 264.166348 264.843841 
L 264.437928 265.866845 
L 264.709508 237.870222 
L 264.981088 263.10862 
L 265.252668 275.967384 
L 265.524248 246.714669 
L 265.795828 234.555174 
L 266.338988 291.804511 
L 266.610568 330.031166 
L 267.153728 320.189615 
L 267.425309 344.638099 
L 267.696889 357.820597 
L 267.968469 357.729952 
L 268.240049 355.632147 
L 268.511629 369.513914 
L 268.783209 363.039209 
L 269.054789 372.45343 
L 269.326369 367.597401 
L 269.597949 338.344686 
L 269.869529 348.639466 
L 270.412689 290.872153 
L 270.684269 317.612683 
L 270.955849 291.234737 
L 271.227429 278.764456 
L 271.770589 265.776199 
L 272.042169 268.094143 
L 272.313749 299.120927 
L 272.585329 296.543994 
L 272.856909 325.796709 
L 273.128489 316.382489 
L 273.40007 321.432758 
L 273.67165 292.180044 
L 273.94323 297.631745 
L 274.21481 272.794778 
L 274.75797 326.016849 
L 275.02955 303.756815 
L 275.30113 303.87336 
L 275.57271 277.35297 
L 275.84429 267.05819 
L 276.11587 296.310905 
L 276.65903 240.317661 
L 276.93061 269.570376 
L 277.20219 329.267151 
L 277.47377 355.78754 
L 277.74535 346.826549 
L 278.01693 368.115378 
L 278.28851 345.855344 
L 278.83167 339.484234 
L 279.374831 366.768639 
L 280.189571 298.240367 
L 280.461151 292.503779 
L 280.732731 295.10661 
L 281.004311 302.358279 
L 281.275891 277.119881 
L 281.547471 296.375652 
L 281.819051 325.628367 
L 282.090631 320.772338 
L 282.633791 279.99465 
L 282.905371 289.810302 
L 283.176951 303.692068 
L 283.448531 298.83604 
L 283.991691 272.859525 
L 284.263271 273.532895 
L 284.534851 299.910841 
L 284.806431 312.381121 
L 285.078011 312.290476 
L 285.349592 308.133715 
L 285.621172 331.546247 
L 286.164332 277.106932 
L 286.435912 286.521152 
L 286.707492 257.268437 
L 287.250652 317.547936 
L 287.522232 367.817541 
L 288.065392 321.070175 
L 288.336972 307.952424 
L 288.608552 321.134922 
L 288.880132 321.018377 
L 289.151712 314.181089 
L 289.423292 292.0376 
L 289.694872 314.297634 
L 289.966452 314.206988 
L 290.509612 294.031809 
L 290.781192 348.432276 
L 291.052772 320.5263 
L 291.324353 307.175459 
L 291.595933 326.340584 
L 292.410673 243.244227 
L 292.682253 269.052399 
L 293.225413 253.163474 
L 293.496993 336.130337 
L 293.768573 316.304792 
L 294.311733 329.759228 
L 294.583313 323.414018 
L 294.854893 320.396806 
L 295.398053 270.321441 
L 295.669633 277.728503 
L 295.941213 258.472732 
L 296.212793 258.615176 
L 296.484373 284.993122 
L 296.755953 285.083767 
L 297.027533 275.669547 
L 297.299114 285.083767 
L 297.570694 262.085617 
L 297.842274 251.790837 
L 298.113854 279.023444 
L 298.385434 279.023444 
L 298.657014 249.770729 
L 298.928594 254.212377 
L 299.200174 284.993122 
L 299.471754 277.508363 
L 299.743334 290.043391 
L 300.014914 321.070175 
L 300.286494 294.329645 
L 300.558074 323.58236 
L 300.829654 336.72601 
L 301.101234 315.747968 
L 301.372814 325.162188 
L 301.644394 299.638903 
L 301.915974 308.716439 
L 302.187554 321.898937 
L 302.459134 317.042909 
L 302.730714 329.901672 
L 303.002294 355.424957 
L 303.273875 330.031166 
L 303.545455 327.920412 
L 303.817035 323.064384 
L 304.360195 298.628849 
L 304.631775 272.250903 
L 304.903355 277.262324 
L 305.174935 302.008645 
L 305.446515 295.53394 
L 305.718095 321.342112 
L 305.989675 321.251467 
L 306.261255 318.778129 
L 306.804415 369.772902 
L 307.075995 371.404527 
L 307.347575 365.952826 
L 307.619155 352.770328 
L 307.890735 366.652094 
L 308.162315 372.103795 
L 308.705475 320.539249 
L 308.977055 320.629895 
L 309.248635 320.29321 
L 309.520216 333.475709 
L 309.791796 305.090604 
L 310.063376 317.353695 
L 310.334956 322.209723 
L 310.606536 334.680004 
L 310.878116 327.143448 
L 311.149696 302.306481 
L 311.421276 312.601261 
L 311.964436 280.162992 
L 312.236016 331.352006 
L 312.507596 346.632308 
L 312.779176 321.39391 
L 313.050756 357.587508 
L 313.322336 305.388441 
L 313.593916 304.430184 
L 313.865496 299.574156 
L 314.137076 299.70365 
L 314.408656 286.35281 
L 314.680236 281.496781 
L 314.951816 288.994489 
L 315.223396 286.806039 
L 315.494977 322.7018 
L 315.766557 328.153502 
L 316.038137 328.062856 
L 316.309717 314.712015 
L 316.581297 327.389486 
L 316.852877 355.774591 
L 317.124457 330.251306 
L 317.396037 360.501125 
L 317.667617 352.964569 
L 317.939197 323.711854 
L 318.210777 346.269725 
L 318.482357 343.835236 
L 318.753937 315.838614 
L 319.025517 315.838614 
L 319.297097 318.920573 
L 319.568677 304.715071 
L 319.840257 316.265944 
L 320.111837 287.013229 
L 320.654997 335.664159 
L 320.926577 322.48166 
L 321.198157 336.687162 
L 321.469738 329.150606 
L 321.741318 341.310101 
L 322.284478 318.855826 
L 322.556058 341.400747 
L 322.827638 397.886069 
L 323.099218 410.13621 
L 323.370798 410.13621 
L 323.642378 397.665929 
L 323.913958 397.64003 
L 324.185538 385.480535 
L 324.457118 397.950816 
L 324.728698 374.952665 
L 325.000278 397.950816 
L 325.271858 368.698101 
L 325.543438 369.293774 
L 325.815018 359.879553 
L 326.086598 373.062052 
L 326.358178 374.693677 
L 326.629758 349.455279 
L 326.901338 378.707994 
L 327.172918 352.330048 
L 327.444499 351.993363 
L 327.716079 377.231761 
L 327.987659 377.348306 
L 328.259239 358.092535 
L 328.530819 330.095913 
L 328.802399 349.791964 
L 329.073979 333.398012 
L 329.617139 324.320477 
L 329.888719 345.246721 
L 330.160299 355.541501 
L 330.431879 329.163555 
L 330.703459 357.160178 
L 330.975039 344.689897 
L 331.518199 294.433241 
L 331.789779 290.664963 
L 332.061359 304.015803 
L 332.332939 308.871832 
L 332.604519 308.535147 
L 332.876099 284.034865 
L 333.147679 308.871832 
L 333.41926 280.486727 
L 333.96242 310.063177 
L 334.234 295.857676 
L 334.50558 297.502251 
L 334.77716 306.851724 
L 335.04874 341.465494 
L 335.32032 335.016688 
L 335.5919 364.023364 
L 336.13506 315.786816 
L 336.40664 301.788505 
L 336.67822 299.470561 
L 336.9498 299.470561 
L 337.49296 353.845129 
L 337.76454 359.29683 
L 338.3077 407.947759 
L 338.57928 379.951137 
L 338.85086 367.480856 
L 339.12244 339.095752 
L 339.394021 325.213986 
L 339.665601 339.095752 
L 339.937181 331.559196 
L 340.208761 319.399701 
L 340.480341 294.161303 
L 340.751921 301.697859 
L 341.023501 270.671075 
L 341.295081 289.926846 
L 341.566661 263.5489 
L 341.838241 249.343399 
L 342.109821 251.777888 
L 342.381401 229.220017 
L 342.652981 222.745313 
L 342.924561 203.489542 
L 343.196141 217.695043 
L 343.467721 244.072989 
L 343.739301 256.54327 
L 344.010881 230.165324 
L 344.282461 230.074678 
L 344.554041 236.549383 
L 344.825621 256.672764 
L 345.368782 318.208355 
L 345.640362 303.575523 
L 345.911942 277.197577 
L 346.183522 307.447397 
L 346.455102 319.917677 
L 346.726682 283.128407 
L 346.998262 292.542627 
L 347.269842 318.493242 
L 347.541422 287.466459 
L 347.813002 301.348225 
L 348.084582 273.351603 
L 348.356162 270.826468 
L 348.627742 260.298599 
L 348.899322 239.320556 
L 349.714062 317.2242 
L 349.985642 336.479971 
L 350.257222 307.227257 
L 350.528802 295.067762 
L 350.800382 324.320477 
L 351.343542 275.682497 
L 351.615123 275.591851 
L 351.886703 275.708395 
L 352.158283 266.294175 
L 352.429863 297.320959 
L 352.701443 283.115457 
L 352.973023 257.877059 
L 353.244603 272.082561 
L 353.516183 261.787781 
L 353.787763 289.784403 
L 354.059343 276.601905 
L 354.330923 302.979851 
L 354.602503 310.762445 
L 354.874083 312.394071 
L 355.417243 360.17739 
L 355.688823 329.927571 
L 355.960403 320.51335 
L 356.231983 347.25388 
L 356.503563 327.998109 
L 357.046723 328.088755 
L 357.318303 305.530884 
L 357.589884 314.945104 
L 357.861464 289.136932 
L 358.133044 297.800087 
L 358.404624 297.800087 
L 358.676204 300.053284 
L 358.947784 328.049906 
L 359.490944 278.259429 
L 359.762524 297.5152 
L 360.034104 289.978644 
L 360.305684 291.61027 
L 360.577264 262.603594 
L 360.848844 262.487049 
L 361.120424 287.725447 
L 361.392004 301.076287 
L 361.663584 278.816254 
L 361.935164 307.82293 
L 362.206744 324.631262 
L 362.478324 323.025536 
L 362.749904 345.583406 
L 363.021484 336.169186 
L 363.293064 361.977358 
L 363.564645 361.640673 
L 363.836225 330.613889 
L 364.107805 347.383374 
L 364.650965 316.045804 
L 364.922545 316.382489 
L 365.194125 302.500722 
L 365.465705 299.392864 
L 365.737285 294.536836 
L 366.008865 320.837086 
L 366.280445 295.598688 
L 366.552025 289.123983 
L 366.823605 309.532252 
L 367.095185 318.972371 
L 367.366765 312.41997 
L 367.638345 311.850196 
L 367.909925 299.379915 
L 368.181505 274.542949 
L 368.453085 300.273424 
L 368.724665 286.935533 
L 368.996245 310.348064 
L 369.267825 303.87336 
L 369.539406 275.488255 
L 369.810986 305.038807 
L 370.082566 287.932637 
L 370.354146 337.243987 
L 370.625726 338.875612 
L 370.897306 334.019584 
L 371.168886 305.634479 
L 371.440466 355.722793 
L 371.712046 384.107898 
L 372.255206 331.857033 
L 372.798366 283.93127 
L 373.069946 296.090765 
L 373.341526 293.086502 
L 373.613106 284.060764 
L 374.427846 317.768076 
L 374.699426 294.355544 
L 374.971006 317.768076 
L 375.242586 307.473295 
L 375.514167 330.471446 
L 375.785747 312.510616 
L 376.057327 324.980896 
L 376.328907 299.172724 
L 376.600487 330.199508 
L 376.872067 344.081275 
L 377.143647 367.493806 
L 377.415227 342.462598 
L 377.686807 347.836603 
L 377.958387 349.351684 
L 378.229967 349.468229 
L 378.501547 337.308734 
L 378.773127 356.564505 
L 379.044707 334.304471 
L 379.316287 332.672845 
L 379.587867 306.294899 
L 380.131027 317.625632 
L 380.402607 305.155351 
L 380.674187 279.916953 
L 381.217347 331.533297 
L 381.760508 276.770247 
L 382.032088 279.916953 
L 382.303668 327.298841 
L 382.575248 312.122133 
L 382.846828 314.556622 
L 383.118408 289.033337 
L 383.389988 292.853413 
L 383.661568 292.555576 
L 383.933148 296.297956 
L 384.204728 296.297956 
L 384.476308 332.310262 
L 384.747888 331.844083 
L 385.019468 360.229187 
L 385.291048 358.597562 
L 385.562628 341.77628 
L 385.834208 315.25589 
L 386.105788 328.373642 
L 386.377368 297.346858 
L 386.648948 305.207149 
L 386.920528 331.727538 
L 387.192108 289.266427 
L 387.735269 347.525817 
L 388.006849 347.189133 
L 388.278429 342.449649 
L 388.550009 365.447799 
L 388.821589 346.192028 
L 389.093169 336.195085 
L 389.364749 342.669789 
L 389.636329 337.295784 
L 389.907909 350.646625 
L 390.451069 319.619841 
L 390.994229 329.94052 
L 391.265809 329.94052 
L 391.537389 335.84545 
L 392.080549 278.298277 
L 392.352129 264.507157 
L 392.895289 321.898937 
L 393.166869 319.464448 
L 393.43845 319.464448 
L 393.71003 332.815289 
L 393.98161 333.151973 
L 394.25319 347.03374 
L 394.52477 324.773706 
L 394.79635 347.03374 
L 395.06793 316.783921 
L 395.33951 319.218409 
L 395.61109 293.980011 
L 395.88267 293.889366 
L 396.15425 286.35281 
L 396.42583 284.565791 
L 396.69741 310.425761 
L 396.96899 364.99457 
L 397.24057 370.446271 
L 397.51215 357.263773 
L 398.05531 304.611476 
L 398.32689 295.53394 
L 398.59847 325.78376 
L 398.87005 339.989261 
L 399.14163 371.016045 
L 399.41321 266.863949 
L 399.684791 295.870625 
L 399.956371 270.632227 
L 400.227951 278.168783 
L 400.499531 272.717082 
L 400.771111 256.802258 
L 401.314271 279.670915 
L 401.585851 307.084813 
L 401.857431 311.940842 
L 402.129011 298.758343 
L 402.400591 294.174253 
L 402.672171 294.510937 
L 402.943751 282.040656 
L 403.215331 292.335436 
L 403.486911 289.900948 
L 403.758491 263.380558 
L 404.030071 289.900948 
L 404.301651 292.335436 
L 404.573231 269.777566 
L 404.844811 264.325865 
L 405.116391 271.810623 
L 405.387971 269.971807 
L 405.659552 256.620967 
L 406.202712 343.679843 
L 406.474292 343.679843 
L 406.745872 366.237713 
L 407.017452 346.981942 
L 407.289032 364.204656 
L 407.560612 337.684267 
L 407.832192 339.782071 
L 408.103772 353.663837 
L 408.646932 324.657161 
L 408.918512 299.418763 
L 409.190092 312.756654 
L 409.461672 286.378708 
L 409.733252 315.631423 
L 410.004832 319.360853 
L 410.276412 293.837568 
L 410.547992 314.219938 
L 410.819572 314.219938 
L 411.091152 314.349432 
L 411.634313 300.882046 
L 411.905893 326.923308 
L 412.177473 326.288787 
L 412.449053 333.825343 
L 412.720633 320.474502 
L 412.992213 289.447718 
L 413.263793 301.218731 
L 413.535373 327.026903 
L 413.806953 327.026903 
L 414.078533 300.286374 
L 414.350113 342.151813 
L 414.621693 330.225407 
L 414.893273 332.621048 
L 415.436433 283.983068 
L 415.708013 292.309538 
L 415.979593 292.309538 
L 416.251173 318.001165 
L 416.522753 286.974381 
L 416.794333 287.090926 
L 417.065913 300.441766 
L 417.337493 292.90521 
L 417.609074 300.441766 
L 417.880654 326.819712 
L 418.152234 316.524932 
L 418.423814 343.045322 
L 418.695394 314.038646 
L 418.966974 311.643005 
L 419.238554 337.451177 
L 419.510134 346.865397 
L 419.781714 366.121169 
L 420.053294 335.871349 
L 420.324874 333.43686 
L 420.596454 355.696894 
L 421.411194 280.318385 
L 421.682774 306.916471 
L 421.954354 282.61043 
L 422.225934 304.870464 
L 422.497514 292.710969 
L 423.040674 357.781749 
L 423.312254 347.03374 
L 423.583835 347.03374 
L 423.855415 344.223718 
L 424.126995 357.574559 
L 424.670155 346.839499 
L 424.941735 321.031327 
L 425.213315 311.953791 
L 425.484895 337.761963 
L 425.756475 347.176183 
L 426.028055 272.225004 
L 426.299635 316.071703 
L 426.571215 318.506192 
L 426.842795 291.765662 
L 427.114375 318.286052 
L 427.385955 289.900948 
L 427.657535 319.153662 
L 427.929115 324.980896 
L 428.200695 327.73912 
L 428.472275 315.26884 
L 428.743855 312.018538 
L 429.015435 307.16251 
L 429.287015 322.960789 
L 429.558596 322.675902 
L 429.830176 357.807648 
L 430.101756 362.663676 
L 430.373336 349.312836 
L 430.644916 349.312836 
L 430.916496 374.110954 
L 431.188076 361.951459 
L 431.459656 377.464851 
L 431.731236 378.345411 
L 432.002816 371.870706 
L 432.274396 358.727056 
L 432.545976 383.564022 
L 432.817556 374.745475 
L 433.089136 398.158006 
L 433.360716 279.165888 
L 433.632296 331.779336 
L 433.903876 336.661263 
L 434.175456 309.920734 
L 434.718616 366.794538 
L 434.990196 383.939555 
L 435.261776 369.759952 
L 435.533357 372.194441 
L 435.804937 358.843601 
L 436.076517 360.475226 
L 436.348097 358.843601 
L 436.619677 335.431069 
L 436.891257 330.665687 
L 437.162837 323.129131 
L 437.434417 298.007278 
L 437.705997 304.715071 
L 437.977577 318.260153 
L 438.249157 323.116181 
L 438.520737 300.118031 
L 438.792317 340.222351 
L 439.063897 328.062856 
L 439.335477 343.550349 
L 439.878637 321.316214 
L 440.150217 292.646222 
L 440.693377 280.318385 
L 441.508118 319.801133 
L 441.779698 290.548418 
L 442.051278 285.964327 
L 442.594438 326.22404 
L 442.866018 326.107495 
L 443.137598 295.080711 
L 443.409178 287.026179 
L 443.680758 262.189212 
L 443.952338 312.976794 
L 444.223918 337.334632 
L 444.495498 337.671317 
L 444.767078 366.924032 
L 445.038658 359.387476 
L 445.310238 369.682256 
L 445.581818 395.490428 
L 445.853398 403.026984 
L 446.124978 375.030362 
L 446.396558 367.493806 
L 446.668138 367.157121 
L 446.939718 341.348949 
L 447.211298 331.934729 
L 447.482878 329.616785 
L 447.754459 330.329002 
L 448.026039 342.799283 
L 448.297619 373.826067 
L 448.569199 382.566918 
L 448.840779 380.378468 
L 449.112359 388.808533 
L 449.383939 360.423429 
L 449.927099 364.722632 
L 450.198679 335.715956 
L 450.470259 364.722632 
L 450.741839 364.631987 
L 451.013419 391.152376 
L 451.284999 365.913978 
L 451.556579 391.437263 
L 451.828159 369.177229 
L 452.099739 391.437263 
L 452.371319 391.320718 
L 452.642899 400.734939 
L 452.914479 371.482224 
L 453.186059 371.57287 
L 453.72922 319.671639 
L 454.0008 343.563298 
L 454.27238 331.403803 
L 454.54396 369.617509 
L 454.81554 293.112401 
L 455.08712 280.952906 
L 455.3587 293.112401 
L 456.44502 366.872234 
L 456.7166 343.874084 
L 456.98818 331.403803 
L 457.25976 303.018699 
L 457.53134 350.167497 
L 458.0745 375.820276 
L 458.34608 380.676304 
L 458.88924 354.000522 
L 459.16082 325.615417 
L 459.4324 325.952102 
L 459.703981 295.702283 
L 459.975561 346.489865 
L 460.247141 340.662631 
L 460.790301 293.79872 
L 461.333461 332.452705 
L 461.605041 332.452705 
L 461.876621 351.656679 
L 462.148201 329.396645 
L 462.419781 342.579143 
L 462.691361 329.72038 
L 462.962941 323.245676 
L 463.234521 349.986205 
L 463.506101 348.354579 
L 464.049261 388.87328 
L 464.320841 362.495334 
L 464.864001 374.42174 
L 465.135581 362.262245 
L 465.678742 313.183985 
L 465.950322 322.598205 
L 466.221902 322.48166 
L 466.493482 319.723436 
L 466.765062 392.563862 
L 467.036642 380.093581 
L 467.308222 394.299082 
L 467.579802 416.856953 
L 467.851382 418.488578 
L 468.394542 363.712578 
L 468.666122 389.235863 
L 468.937702 376.053365 
L 469.209282 371.197337 
L 469.480862 263.859686 
L 469.752442 286.417557 
L 470.295602 264.843841 
L 470.567182 233.817057 
L 470.838762 233.817057 
L 471.381922 250.560643 
L 471.653503 221.307928 
L 471.925083 228.844484 
L 472.196663 279.55437 
L 472.468243 279.55437 
L 472.739823 293.759871 
L 473.011403 264.753195 
L 473.282983 294.00591 
L 473.554563 271.00776 
L 473.826143 258.848265 
L 474.097723 285.368654 
L 474.369303 293.746922 
L 474.640883 281.276641 
L 474.912463 304.96111 
L 475.455623 287.466459 
L 475.727203 264.468308 
L 475.998783 276.627803 
L 476.270363 256.802258 
L 476.541943 283.180204 
L 476.813523 271.020709 
L 477.085103 267.51142 
L 477.356683 261.036715 
L 477.628264 235.798317 
L 477.899844 261.192108 
L 478.171424 275.073874 
L 478.443004 273.442249 
L 478.714584 285.91253 
L 478.986164 305.738075 
L 479.257744 282.208999 
L 479.529324 307.045965 
L 479.800904 306.761078 
L 480.072484 373.269242 
L 480.344064 354.013471 
L 480.615644 379.329566 
L 480.887224 379.329566 
L 481.158804 404.852851 
L 481.430384 395.43863 
L 481.701964 366.431954 
L 481.973544 377.788586 
L 482.245124 364.437745 
L 482.516704 397.665929 
L 482.788284 416.9217 
L 483.059864 424.458256 
L 483.874605 367.208919 
L 484.146185 367.208919 
L 484.417765 340.947518 
L 484.689345 343.123018 
L 484.960925 326.897409 
L 485.232505 352.420694 
L 485.504085 352.420694 
L 486.318825 268.728664 
L 486.590405 295.274952 
L 486.861985 300.726653 
L 487.133565 300.726653 
L 487.676725 384.004302 
L 487.948305 390.479007 
L 488.219885 378.319512 
L 488.491465 391.670352 
L 488.763045 361.537078 
L 489.034625 358.286776 
L 489.306205 388.536595 
L 489.577786 386.102107 
L 489.849366 373.023204 
L 490.120946 352.459542 
L 490.664106 297.541099 
L 491.207266 354.091168 
L 491.478846 344.676947 
L 492.022006 312.070336 
L 492.293586 313.158086 
L 492.836746 254.898695 
L 493.379906 236.808371 
L 493.651486 210.430425 
L 493.923066 233.726412 
L 494.194646 221.566917 
L 495.009386 306.566837 
L 495.280966 284.008967 
L 495.824127 329.94052 
L 496.095707 317.470239 
L 496.367287 318.726332 
L 496.638867 318.842877 
L 496.910447 318.752231 
L 497.182027 322.93489 
L 497.453607 345.93304 
L 497.725187 319.555094 
L 497.996767 309.35096 
L 498.268347 331.90883 
L 498.539927 309.35096 
L 498.811507 307.758182 
L 499.083087 304.028753 
L 499.354667 318.234254 
L 499.626247 318.234254 
L 500.169407 262.370504 
L 500.440987 282.752874 
L 500.712567 259.754724 
L 500.984147 280.305436 
L 501.255727 273.830731 
L 501.527307 273.830731 
L 501.798888 291.921055 
L 502.070468 265.543109 
L 502.342048 268.120042 
L 502.613628 293.021755 
L 502.885208 305.492036 
L 503.428368 283.115457 
L 503.699948 313.365277 
L 503.971528 310.930788 
L 504.514688 285.588794 
L 504.786268 256.33608 
L 505.057848 266.63086 
L 505.329428 292.439032 
L 505.601008 294.873521 
L 505.872588 266.876898 
L 506.144168 289.136932 
L 506.415748 263.32876 
L 506.687328 291.713865 
L 506.958908 289.279376 
L 507.230488 266.721506 
L 507.502068 267.589116 
L 507.773649 290.146986 
L 508.588389 204.564343 
L 509.131549 259.301494 
L 509.403129 249.887274 
L 509.674709 256.361978 
L 509.946289 227.109264 
L 510.489449 227.109264 
L 510.761029 264.610752 
L 511.304189 290.652013 
L 511.575769 268.094143 
L 511.847349 288.618956 
L 512.118929 275.268115 
L 512.390509 287.738396 
L 512.662089 280.20184 
L 512.933669 303.964006 
L 513.205249 301.076287 
L 513.476829 270.049504 
L 513.74841 321.212618 
L 514.01999 347.953148 
L 514.29157 361.834914 
L 514.83473 306.774027 
L 515.10631 294.303747 
L 515.37789 294.187202 
L 515.64947 268.780462 
L 515.92105 284.293854 
L 516.19263 270.943013 
L 516.46421 281.237793 
L 516.73579 281.121248 
L 517.00737 268.961753 
L 517.27895 268.961753 
L 517.55053 318.959421 
L 517.82211 314.219938 
L 518.09369 327.570778 
L 518.36527 301.050389 
L 518.63685 302.682014 
L 518.90843 302.682014 
L 519.18001 277.443616 
L 519.45159 290.626114 
L 519.723171 290.535469 
L 519.994751 302.850357 
L 520.266331 299.354016 
L 520.537911 299.690701 
L 520.809491 299.354016 
L 521.081071 272.950171 
L 521.352651 282.364392 
L 521.624231 275.889687 
L 521.895811 275.553002 
L 522.167391 262.202162 
L 522.438971 262.538846 
L 522.710551 257.682818 
L 522.982131 262.538846 
L 523.253711 260.907221 
L 523.525291 260.622334 
L 524.068451 288.606007 
L 524.340031 315.346536 
L 524.611611 310.335115 
L 524.883191 312.588312 
L 525.426351 360.423429 
L 525.697932 360.306884 
L 525.969512 358.053687 
L 526.241092 267.394875 
L 526.512672 324.696009 
L 526.784252 301.697859 
L 527.055832 301.697859 
L 527.327412 305.466137 
L 527.598992 333.851241 
L 528.142152 319.839981 
L 528.413732 307.3697 
L 528.685312 312.225729 
L 528.956892 282.973014 
L 529.500052 258.563378 
L 529.771632 253.70735 
L 530.043212 315.799765 
L 530.314792 315.91631 
L 530.857952 294.031809 
L 531.129532 319.270207 
L 531.401112 328.684427 
L 531.672693 302.164038 
L 531.944273 300.532412 
L 532.215853 300.532412 
L 532.487433 329.785127 
L 532.759013 298.758343 
L 533.302173 344.443858 
L 533.573753 315.437182 
L 533.845333 344.443858 
L 534.116913 356.603353 
L 534.388493 361.459381 
L 534.660073 387.837327 
L 534.931653 358.830651 
L 535.203233 386.490589 
L 535.474813 359.970199 
L 535.746393 388.976875 
L 536.017973 389.09342 
L 536.289553 403.298922 
L 537.647454 293.591529 
L 537.919034 284.177309 
L 538.462194 302.410077 
L 538.733774 325.822608 
L 539.005354 302.785609 
L 539.276934 315.25589 
L 539.548514 286.249214 
L 539.820094 291.105243 
L 540.091674 320.111919 
L 540.363254 320.202564 
L 540.634834 289.175781 
L 540.906414 279.76156 
L 541.177994 289.175781 
L 541.449574 281.639225 
L 541.721154 258.641074 
L 542.264314 306.139506 
L 542.807474 279.787459 
L 543.079054 292.25774 
L 543.350634 287.401712 
L 543.622214 274.050871 
L 543.893795 305.077655 
L 544.165375 274.050871 
L 544.708535 325.861456 
L 544.980115 356.88824 
L 545.251695 330.36785 
L 545.523275 356.88824 
L 545.794855 364.424796 
L 546.609595 295.093661 
L 546.881175 295.093661 
L 547.424335 334.291521 
L 547.967495 276.744348 
L 548.239075 256.180687 
L 548.510655 257.812312 
L 548.782235 243.606811 
L 549.053815 243.606811 
L 549.596975 191.627883 
L 550.140136 247.012505 
L 550.411716 261.994971 
L 550.683296 261.994971 
L 550.954876 249.835476 
L 551.498036 301.646061 
L 551.769616 328.386591 
L 552.312776 328.386591 
L 552.855936 301.853252 
L 553.127516 294.316696 
L 553.670676 239.579544 
L 553.942256 250.236908 
L 554.213836 310.037278 
L 554.485416 303.562574 
L 554.756996 303.562574 
L 555.028576 306.527989 
L 555.571736 359.335678 
L 555.843317 359.335678 
L 556.114897 346.865397 
L 556.386477 341.413696 
L 556.658057 367.934086 
L 556.929637 354.583245 
L 557.201217 328.205299 
L 557.472797 338.500079 
L 557.744377 311.97969 
L 558.015957 318.454394 
L 558.287537 320.08602 
L 558.559117 289.059236 
L 558.830697 274.853734 
L 559.102277 274.51705 
L 559.373857 262.357555 
L 560.188597 194.450854 
L 560.731757 194.450854 
L 561.003337 220.971244 
L 561.274917 228.391255 
L 561.818078 228.391255 
L 562.089658 201.870866 
L 562.361238 201.870866 
L 562.904398 227.277606 
L 563.175978 227.614291 
L 563.447558 227.497746 
L 563.719138 214.146905 
L 564.262298 285.873681 
L 564.533878 291.325383 
L 564.805458 278.855102 
L 565.348618 297.217364 
L 565.620198 274.413454 
L 565.891778 274.413454 
L 566.163358 273.84368 
L 566.434938 278.699709 
L 566.706518 305.220098 
L 566.978098 300.36407 
L 567.249678 300.36407 
L 567.521258 327.09165 
L 567.792839 327.09165 
L 568.064419 301.853252 
L 568.335999 300.920895 
L 568.607579 313.261681 
L 568.879159 312.976794 
L 569.150739 312.976794 
L 569.422319 335.534665 
L 569.693899 310.296267 
L 569.965479 315.152295 
L 570.237059 313.520669 
L 570.508639 301.361174 
L 571.051799 301.361174 
L 571.323379 311.75955 
L 571.594959 306.903521 
L 571.866539 341.866926 
L 572.138119 341.128809 
L 572.409699 343.317259 
L 572.681279 329.228302 
L 572.952859 331.662791 
L 573.224439 318.480293 
L 573.7676 262.849632 
L 574.03918 288.372917 
L 574.31076 278.958697 
L 574.58234 278.958697 
L 574.85392 256.400827 
L 575.1255 249.926122 
L 575.39708 346.606409 
L 575.66866 346.606409 
L 575.94024 375.613085 
L 576.21182 349.235139 
L 576.4834 349.235139 
L 576.75498 336.052641 
L 577.02656 312.963845 
L 577.56972 312.963845 
L 577.8413 308.107817 
L 578.11288 320.267312 
L 578.38446 316.783921 
L 578.65604 336.039692 
L 579.1992 280.046447 
L 579.47078 308.962478 
L 579.742361 308.962478 
L 580.013941 335.560563 
L 580.285521 323.090283 
L 580.557101 323.180929 
L 580.828681 309.299162 
L 581.100261 304.326589 
L 581.643421 304.326589 
L 582.186581 245.303183 
L 582.458161 258.654024 
L 583.001321 258.654024 
L 583.272901 264.105725 
L 583.544481 233.855906 
L 584.087641 233.855906 
L 584.359221 288.282271 
L 584.630801 310.542305 
L 584.902381 369.617509 
L 585.173961 383.382731 
L 585.445541 383.473377 
L 585.717122 356.952987 
L 585.988702 349.416431 
L 586.260282 349.416431 
L 586.531862 349.753116 
L 586.803442 321.368011 
L 587.075022 321.368011 
L 587.618182 292.192993 
L 587.889762 292.192993 
L 588.161342 271.240849 
L 588.432922 271.240849 
L 588.704502 300.493564 
L 588.976082 300.493564 
L 589.247662 288.334069 
L 589.519242 288.334069 
L 589.790822 318.493242 
L 590.062402 289.240528 
L 590.333982 330.976473 
L 590.605562 330.976473 
L 590.877142 352.485441 
L 591.148722 352.485441 
L 591.420302 365.667939 
L 591.691882 342.669789 
L 591.963463 342.669789 
L 592.235043 345.635204 
L 592.506623 340.779175 
L 592.778203 325.641316 
L 593.049783 326.029798 
L 593.321363 355.282513 
L 593.592943 328.762124 
L 594.407683 328.762124 
L 594.679263 344.586301 
L 594.950843 344.586301 
L 595.222423 315.333587 
L 595.494003 316.965212 
L 595.765583 302.759711 
L 596.037163 277.922744 
L 596.308743 302.759711 
L 596.580323 289.40887 
L 596.851903 281.872314 
L 597.395063 281.872314 
L 597.666643 295.054812 
L 597.938224 298.654748 
L 598.209804 298.654748 
L 598.481384 272.276802 
L 598.752964 284.747083 
L 599.024544 284.747083 
L 599.296124 294.044758 
L 600.382444 294.044758 
L 600.654024 275.773142 
L 600.925604 273.765984 
L 602.011924 222.913655 
L 602.283504 222.913655 
L 602.555084 199.915505 
L 602.826664 244.137736 
L 603.098244 213.110953 
L 603.369824 200.640672 
L 603.641404 200.640672 
L 603.912985 188.481177 
L 604.184565 193.207711 
L 604.456145 193.207711 
L 604.727725 211.790113 
L 604.999305 211.790113 
L 605.270885 218.264817 
L 605.542465 205.587346 
L 606.085625 205.587346 
L 606.357205 231.965292 
L 607.171945 231.965292 
L 607.443525 212.994408 
L 607.715105 206.519703 
L 607.986685 206.519703 
L 608.258265 218.769844 
L 609.073005 218.769844 
L 609.344585 218.057627 
L 611.517226 218.057627 
L 611.788806 235.73357 
L 612.060386 232.573914 
L 612.331966 239.048619 
L 612.603546 239.048619 
L 612.875126 217.384258 
L 615.319346 217.384258 
L 615.590926 235.526379 
L 615.862507 236.212698 
L 616.405667 236.212698 
L 616.677247 249.395196 
L 616.948827 243.943495 
L 617.220407 243.943495 
L 617.491987 239.437101 
L 618.306727 239.437101 
L 618.578307 241.068726 
L 618.849887 241.068726 
L 619.121467 233.53217 
L 619.664627 233.53217 
L 619.936207 221.06189 
L 620.207787 221.06189 
L 620.479367 198.063739 
L 620.750947 205.600295 
L 621.022527 230.437262 
L 621.294107 204.059316 
L 621.565687 189.853814 
L 622.108848 189.853814 
L 622.380428 203.204655 
L 622.923588 203.204655 
L 623.195168 199.242136 
L 623.466748 174.003738 
L 623.738328 172.164922 
L 624.824648 172.164922 
L 625.096228 161.637052 
L 628.626769 161.637052 
L 628.898349 157.868774 
L 629.169929 156.185351 
L 629.713089 156.185351 
L 629.984669 161.041379 
L 630.527829 161.041379 
L 631.070989 138.276318 
L 631.885729 138.276318 
L 632.157309 155.99111 
L 632.428889 143.650323 
L 633.515209 143.650323 
L 633.78679 174.677107 
L 635.95943 174.677107 
L 636.23101 171.167817 
L 638.40365 171.167817 
L 638.67523 168.526138 
L 640.304711 168.526138 
L 640.576291 160.989582 
L 641.391031 160.989582 
L 641.662611 168.526138 
L 642.205771 168.526138 
L 642.477351 163.670109 
L 642.748931 163.670109 
L 643.020511 167.839819 
L 643.292091 167.839819 
L 643.563671 155.369538 
L 645.464731 155.369538 
L 645.736311 160.225567 
L 646.007892 160.225567 
L 646.279472 153.673166 
L 646.822632 153.673166 
L 647.094212 141.513671 
L 647.365792 138.651851 
L 647.637372 109.645175 
L 651.711072 109.645175 
L 651.982653 96.294335 
L 659.586894 96.294335 
L 659.858474 89.81963 
L 795.105336 89.81963 
L 795.376916 88.887273 
L 871.690909 88.887273 
L 871.690909 88.887273 
" style="fill:none;stroke:#8dd3c7;stroke-linecap:square;stroke-width:1.5;"/>
   </g>
   <g id="line2d_15">
    <path clip-path="url(#p368dd0b5cd)" d="M 161.509091 243.555013 
L 194.370276 243.555013 
L 194.641856 233.998349 
L 194.913436 218.536755 
L 195.185017 193.816333 
L 549.325395 193.816333 
L 549.596975 191.627883 
L 603.641404 191.627883 
L 603.912985 188.481177 
L 623.195168 188.481177 
L 623.466748 174.003738 
L 623.738328 172.164922 
L 624.824648 172.164922 
L 625.096228 161.637052 
L 628.626769 161.637052 
L 628.898349 157.868774 
L 629.169929 156.185351 
L 630.527829 156.185351 
L 631.070989 138.276318 
L 647.365792 138.276318 
L 647.637372 109.645175 
L 651.711072 109.645175 
L 651.982653 96.294335 
L 659.586894 96.294335 
L 659.858474 89.81963 
L 795.105336 89.81963 
L 795.376916 88.887273 
L 871.690909 88.887273 
L 871.690909 88.887273 
" style="fill:none;stroke:#feffb3;stroke-linecap:square;stroke-width:1.5;"/>
   </g>
   <g id="line2d_16">
    <path clip-path="url(#p368dd0b5cd)" d="M 161.509091 315.758327 
L 163.410151 315.758327 
L 163.681731 326.243565 
L 165.582792 326.243565 
L 165.854372 336.07624 
L 167.755432 336.07624 
L 168.027012 345.296964 
L 169.928072 345.296964 
L 170.199652 353.943824 
L 172.100713 353.943824 
L 172.372293 362.052535 
L 174.273353 362.052535 
L 174.544933 369.656589 
L 176.445993 369.656589 
L 176.717573 376.787394 
L 178.618634 376.787394 
L 178.890214 383.474403 
L 180.791274 383.474403 
L 181.062854 389.745237 
L 182.963914 389.745237 
L 183.235495 395.625797 
L 185.136555 395.625797 
L 185.408135 401.140372 
L 187.309195 401.140372 
L 187.580775 406.31174 
L 189.481836 406.31174 
L 189.753416 411.161261 
L 191.654476 411.161261 
L 191.926056 415.708965 
L 193.827116 415.708965 
L 194.098696 419.973637 
L 195.999757 419.973637 
L 196.271337 423.97289 
L 198.172397 423.97289 
L 198.443977 427.723245 
L 200.345037 427.723245 
L 200.616617 431.240191 
L 202.517678 431.240191 
L 202.789258 434.538255 
L 204.690318 434.538255 
L 204.961898 437.631059 
L 206.862958 437.631059 
L 207.134539 440.531379 
L 209.035599 440.531379 
L 209.307179 443.251193 
L 211.208239 443.251193 
L 211.479819 445.801735 
L 213.38088 445.801735 
L 213.65246 448.193541 
L 215.55352 448.193541 
L 215.8251 450.43649 
L 217.72616 450.43649 
L 217.99774 452.539846 
L 219.898801 452.539846 
L 220.170381 454.512296 
L 222.071441 454.512296 
L 222.343021 456.361989 
L 224.244081 456.361989 
L 224.515661 458.096563 
L 226.416722 458.096563 
L 226.688302 459.723183 
L 228.589362 459.723183 
L 228.860942 461.248569 
L 230.762002 461.248569 
L 231.033582 462.67902 
L 232.934643 462.67902 
L 233.206223 464.020445 
L 235.107283 464.020445 
L 235.378863 465.278384 
L 237.279924 465.278384 
L 237.551504 466.458034 
L 239.452564 466.458034 
L 239.724144 467.564267 
L 241.625204 467.564267 
L 241.896784 468.601651 
L 243.797845 468.601651 
L 244.069425 469.574473 
L 245.970485 469.574473 
L 246.242065 470.48675 
L 248.143125 470.48675 
L 248.414705 471.34225 
L 250.315766 471.34225 
L 250.587346 472.144507 
L 252.488406 472.144507 
L 252.759986 472.896834 
L 254.661046 472.896834 
L 254.932626 473.602339 
L 256.833687 473.602339 
L 257.105267 474.263936 
L 259.006327 474.263936 
L 259.277907 474.884357 
L 261.178967 474.884357 
L 261.450548 475.466166 
L 263.351608 475.466166 
L 263.623188 476.011765 
L 265.524248 476.011765 
L 265.795828 476.523408 
L 267.696889 476.523408 
L 267.968469 477.003208 
L 269.869529 477.003208 
L 270.141109 477.453148 
L 272.042169 477.453148 
L 272.313749 477.875084 
L 274.21481 477.875084 
L 274.48639 478.270761 
L 276.38745 478.270761 
L 276.65903 478.641812 
L 278.56009 478.641812 
L 278.83167 478.98977 
L 280.732731 478.98977 
L 281.004311 479.316073 
L 282.905371 479.316073 
L 283.176951 479.622068 
L 285.078011 479.622068 
L 285.349592 479.909019 
L 287.250652 479.909019 
L 287.522232 480.178111 
L 289.423292 480.178111 
L 289.694872 480.430455 
L 291.595933 480.430455 
L 291.867513 480.667095 
L 293.768573 480.667095 
L 294.040153 480.889007 
L 295.941213 480.889007 
L 296.212793 481.097108 
L 298.113854 481.097108 
L 298.385434 481.292258 
L 300.286494 481.292258 
L 300.558074 481.475262 
L 302.459134 481.475262 
L 302.730714 481.646877 
L 304.631775 481.646877 
L 304.903355 481.807811 
L 306.804415 481.807811 
L 307.075995 481.958729 
L 308.977055 481.958729 
L 309.248635 482.100254 
L 311.149696 482.100254 
L 311.421276 482.232972 
L 313.322336 482.232972 
L 313.593916 482.357429 
L 315.494977 482.357429 
L 316.038137 482.474141 
L 319.840257 482.583589 
L 320.383417 482.686226 
L 324.185538 482.782474 
L 324.728698 482.872733 
L 328.530819 482.957374 
L 329.073979 483.036747 
L 332.876099 483.111181 
L 333.41926 483.180982 
L 337.22138 483.246439 
L 337.76454 483.307822 
L 341.566661 483.365384 
L 342.381401 483.419365 
L 348.084582 483.517456 
L 348.899322 483.561972 
L 354.602503 483.642864 
L 355.688823 483.679575 
L 363.293064 483.77656 
L 364.379385 483.80495 
L 374.156266 483.901908 
L 375.785747 483.922497 
L 389.364749 484.021746 
L 392.080549 484.04719 
L 424.126995 484.157264 
L 431.459656 484.174368 
L 871.690909 484.232727 
L 871.690909 484.232727 
" style="fill:none;stroke:#bfbbd9;stroke-linecap:square;stroke-width:1.5;"/>
   </g>
   <g id="patch_3">
    <path d="M 126 504 
L 126 69.12 
" style="fill:none;stroke:#ffffff;stroke-linecap:square;stroke-linejoin:miter;stroke-width:0.8;"/>
   </g>
   <g id="patch_4">
    <path d="M 907.2 504 
L 907.2 69.12 
" style="fill:none;stroke:#ffffff;stroke-linecap:square;stroke-linejoin:miter;stroke-width:0.8;"/>
   </g>
   <g id="patch_5">
    <path d="M 126 504 
L 907.2 504 
" style="fill:none;stroke:#ffffff;stroke-linecap:square;stroke-linejoin:miter;stroke-width:0.8;"/>
   </g>
   <g id="patch_6">
    <path d="M 126 69.12 
L 907.2 69.12 
" style="fill:none;stroke:#ffffff;stroke-linecap:square;stroke-linejoin:miter;stroke-width:0.8;"/>
   </g>
   <g id="text_15">
    <!-- instance 9 with error 0.0 -->
    <g style="fill:#ffffff;" transform="translate(442.944375 63.12)scale(0.12 -0.12)">
     <defs>
      <path d="M 2834 3397 
L 2834 2853 
Q 2591 2978 2328 3040 
Q 2066 3103 1784 3103 
Q 1356 3103 1142 2972 
Q 928 2841 928 2578 
Q 928 2378 1081 2264 
Q 1234 2150 1697 2047 
L 1894 2003 
Q 2506 1872 2764 1633 
Q 3022 1394 3022 966 
Q 3022 478 2636 193 
Q 2250 -91 1575 -91 
Q 1294 -91 989 -36 
Q 684 19 347 128 
L 347 722 
Q 666 556 975 473 
Q 1284 391 1588 391 
Q 1994 391 2212 530 
Q 2431 669 2431 922 
Q 2431 1156 2273 1281 
Q 2116 1406 1581 1522 
L 1381 1569 
Q 847 1681 609 1914 
Q 372 2147 372 2553 
Q 372 3047 722 3315 
Q 1072 3584 1716 3584 
Q 2034 3584 2315 3537 
Q 2597 3491 2834 3397 
z
" id="DejaVuSans-73" transform="scale(0.015625)"/>
      <path d="M 3122 3366 
L 3122 2828 
Q 2878 2963 2633 3030 
Q 2388 3097 2138 3097 
Q 1578 3097 1268 2742 
Q 959 2388 959 1747 
Q 959 1106 1268 751 
Q 1578 397 2138 397 
Q 2388 397 2633 464 
Q 2878 531 3122 666 
L 3122 134 
Q 2881 22 2623 -34 
Q 2366 -91 2075 -91 
Q 1284 -91 818 406 
Q 353 903 353 1747 
Q 353 2603 823 3093 
Q 1294 3584 2113 3584 
Q 2378 3584 2631 3529 
Q 2884 3475 3122 3366 
z
" id="DejaVuSans-63" transform="scale(0.015625)"/>
      <path id="DejaVuSans-20" transform="scale(0.015625)"/>
      <path d="M 703 97 
L 703 672 
Q 941 559 1184 500 
Q 1428 441 1663 441 
Q 2288 441 2617 861 
Q 2947 1281 2994 2138 
Q 2813 1869 2534 1725 
Q 2256 1581 1919 1581 
Q 1219 1581 811 2004 
Q 403 2428 403 3163 
Q 403 3881 828 4315 
Q 1253 4750 1959 4750 
Q 2769 4750 3195 4129 
Q 3622 3509 3622 2328 
Q 3622 1225 3098 567 
Q 2575 -91 1691 -91 
Q 1453 -91 1209 -44 
Q 966 3 703 97 
z
M 1959 2075 
Q 2384 2075 2632 2365 
Q 2881 2656 2881 3163 
Q 2881 3666 2632 3958 
Q 2384 4250 1959 4250 
Q 1534 4250 1286 3958 
Q 1038 3666 1038 3163 
Q 1038 2656 1286 2365 
Q 1534 2075 1959 2075 
z
" id="DejaVuSans-39" transform="scale(0.015625)"/>
      <path d="M 269 3500 
L 844 3500 
L 1563 769 
L 2278 3500 
L 2956 3500 
L 3675 769 
L 4391 3500 
L 4966 3500 
L 4050 0 
L 3372 0 
L 2619 2869 
L 1863 0 
L 1184 0 
L 269 3500 
z
" id="DejaVuSans-77" transform="scale(0.015625)"/>
      <path d="M 3513 2113 
L 3513 0 
L 2938 0 
L 2938 2094 
Q 2938 2591 2744 2837 
Q 2550 3084 2163 3084 
Q 1697 3084 1428 2787 
Q 1159 2491 1159 1978 
L 1159 0 
L 581 0 
L 581 4863 
L 1159 4863 
L 1159 2956 
Q 1366 3272 1645 3428 
Q 1925 3584 2291 3584 
Q 2894 3584 3203 3211 
Q 3513 2838 3513 2113 
z
" id="DejaVuSans-68" transform="scale(0.015625)"/>
      <path d="M 684 794 
L 1344 794 
L 1344 0 
L 684 0 
L 684 794 
z
" id="DejaVuSans-2e" transform="scale(0.015625)"/>
     </defs>
     <use xlink:href="#DejaVuSans-69"/>
     <use x="27.783203" xlink:href="#DejaVuSans-6e"/>
     <use x="91.162109" xlink:href="#DejaVuSans-73"/>
     <use x="143.261719" xlink:href="#DejaVuSans-74"/>
     <use x="182.470703" xlink:href="#DejaVuSans-61"/>
     <use x="243.75" xlink:href="#DejaVuSans-6e"/>
     <use x="307.128906" xlink:href="#DejaVuSans-63"/>
     <use x="362.109375" xlink:href="#DejaVuSans-65"/>
     <use x="423.632812" xlink:href="#DejaVuSans-20"/>
     <use x="455.419922" xlink:href="#DejaVuSans-39"/>
     <use x="519.042969" xlink:href="#DejaVuSans-20"/>
     <use x="550.830078" xlink:href="#DejaVuSans-77"/>
     <use x="632.617188" xlink:href="#DejaVuSans-69"/>
     <use x="660.400391" xlink:href="#DejaVuSans-74"/>
     <use x="699.609375" xlink:href="#DejaVuSans-68"/>
     <use x="762.988281" xlink:href="#DejaVuSans-20"/>
     <use x="794.775391" xlink:href="#DejaVuSans-65"/>
     <use x="856.298828" xlink:href="#DejaVuSans-72"/>
     <use x="895.662109" xlink:href="#DejaVuSans-72"/>
     <use x="934.525391" xlink:href="#DejaVuSans-6f"/>
     <use x="995.707031" xlink:href="#DejaVuSans-72"/>
     <use x="1036.820312" xlink:href="#DejaVuSans-20"/>
     <use x="1068.607422" xlink:href="#DejaVuSans-30"/>
     <use x="1132.230469" xlink:href="#DejaVuSans-2e"/>
     <use x="1164.017578" xlink:href="#DejaVuSans-30"/>
    </g>
   </g>
   <g id="legend_1">
    <g id="patch_7">
     <path d="M 805.348438 499 
L 900.2 499 
Q 902.2 499 902.2 497 
L 902.2 453.965625 
Q 902.2 451.965625 900.2 451.965625 
L 805.348438 451.965625 
Q 803.348438 451.965625 803.348438 453.965625 
L 803.348438 497 
Q 803.348438 499 805.348438 499 
z
" style="opacity:0.8;stroke:#cccccc;stroke-linejoin:miter;"/>
    </g>
    <g id="line2d_17">
     <path d="M 807.348438 460.064062 
L 827.348438 460.064062 
" style="fill:none;stroke:#8dd3c7;stroke-linecap:square;stroke-width:1.5;"/>
    </g>
    <g id="line2d_18"/>
    <g id="text_16">
     <!-- cost -->
     <g style="fill:#ffffff;" transform="translate(835.348438 463.564062)scale(0.1 -0.1)">
      <use xlink:href="#DejaVuSans-63"/>
      <use x="54.980469" xlink:href="#DejaVuSans-6f"/>
      <use x="116.162109" xlink:href="#DejaVuSans-73"/>
      <use x="168.261719" xlink:href="#DejaVuSans-74"/>
     </g>
    </g>
    <g id="line2d_19">
     <path d="M 807.348438 474.742188 
L 827.348438 474.742188 
" style="fill:none;stroke:#feffb3;stroke-linecap:square;stroke-width:1.5;"/>
    </g>
    <g id="line2d_20"/>
    <g id="text_17">
     <!-- best cost -->
     <g style="fill:#ffffff;" transform="translate(835.348438 478.242188)scale(0.1 -0.1)">
      <defs>
       <path d="M 3116 1747 
Q 3116 2381 2855 2742 
Q 2594 3103 2138 3103 
Q 1681 3103 1420 2742 
Q 1159 2381 1159 1747 
Q 1159 1113 1420 752 
Q 1681 391 2138 391 
Q 2594 391 2855 752 
Q 3116 1113 3116 1747 
z
M 1159 2969 
Q 1341 3281 1617 3432 
Q 1894 3584 2278 3584 
Q 2916 3584 3314 3078 
Q 3713 2572 3713 1747 
Q 3713 922 3314 415 
Q 2916 -91 2278 -91 
Q 1894 -91 1617 61 
Q 1341 213 1159 525 
L 1159 0 
L 581 0 
L 581 4863 
L 1159 4863 
L 1159 2969 
z
" id="DejaVuSans-62" transform="scale(0.015625)"/>
      </defs>
      <use xlink:href="#DejaVuSans-62"/>
      <use x="63.476562" xlink:href="#DejaVuSans-65"/>
      <use x="125" xlink:href="#DejaVuSans-73"/>
      <use x="177.099609" xlink:href="#DejaVuSans-74"/>
      <use x="216.308594" xlink:href="#DejaVuSans-20"/>
      <use x="248.095703" xlink:href="#DejaVuSans-63"/>
      <use x="303.076172" xlink:href="#DejaVuSans-6f"/>
      <use x="364.257812" xlink:href="#DejaVuSans-73"/>
      <use x="416.357422" xlink:href="#DejaVuSans-74"/>
     </g>
    </g>
    <g id="line2d_21">
     <path d="M 807.348438 489.420313 
L 827.348438 489.420313 
" style="fill:none;stroke:#bfbbd9;stroke-linecap:square;stroke-width:1.5;"/>
    </g>
    <g id="line2d_22"/>
    <g id="text_18">
     <!-- temperature -->
     <g style="fill:#ffffff;" transform="translate(835.348438 492.920313)scale(0.1 -0.1)">
      <defs>
       <path d="M 3328 2828 
Q 3544 3216 3844 3400 
Q 4144 3584 4550 3584 
Q 5097 3584 5394 3201 
Q 5691 2819 5691 2113 
L 5691 0 
L 5113 0 
L 5113 2094 
Q 5113 2597 4934 2840 
Q 4756 3084 4391 3084 
Q 3944 3084 3684 2787 
Q 3425 2491 3425 1978 
L 3425 0 
L 2847 0 
L 2847 2094 
Q 2847 2600 2669 2842 
Q 2491 3084 2119 3084 
Q 1678 3084 1418 2786 
Q 1159 2488 1159 1978 
L 1159 0 
L 581 0 
L 581 3500 
L 1159 3500 
L 1159 2956 
Q 1356 3278 1631 3431 
Q 1906 3584 2284 3584 
Q 2666 3584 2933 3390 
Q 3200 3197 3328 2828 
z
" id="DejaVuSans-6d" transform="scale(0.015625)"/>
       <path d="M 1159 525 
L 1159 -1331 
L 581 -1331 
L 581 3500 
L 1159 3500 
L 1159 2969 
Q 1341 3281 1617 3432 
Q 1894 3584 2278 3584 
Q 2916 3584 3314 3078 
Q 3713 2572 3713 1747 
Q 3713 922 3314 415 
Q 2916 -91 2278 -91 
Q 1894 -91 1617 61 
Q 1341 213 1159 525 
z
M 3116 1747 
Q 3116 2381 2855 2742 
Q 2594 3103 2138 3103 
Q 1681 3103 1420 2742 
Q 1159 2381 1159 1747 
Q 1159 1113 1420 752 
Q 1681 391 2138 391 
Q 2594 391 2855 752 
Q 3116 1113 3116 1747 
z
" id="DejaVuSans-70" transform="scale(0.015625)"/>
       <path d="M 544 1381 
L 544 3500 
L 1119 3500 
L 1119 1403 
Q 1119 906 1312 657 
Q 1506 409 1894 409 
Q 2359 409 2629 706 
Q 2900 1003 2900 1516 
L 2900 3500 
L 3475 3500 
L 3475 0 
L 2900 0 
L 2900 538 
Q 2691 219 2414 64 
Q 2138 -91 1772 -91 
Q 1169 -91 856 284 
Q 544 659 544 1381 
z
M 1991 3584 
L 1991 3584 
z
" id="DejaVuSans-75" transform="scale(0.015625)"/>
      </defs>
      <use xlink:href="#DejaVuSans-74"/>
      <use x="39.208984" xlink:href="#DejaVuSans-65"/>
      <use x="100.732422" xlink:href="#DejaVuSans-6d"/>
      <use x="198.144531" xlink:href="#DejaVuSans-70"/>
      <use x="261.621094" xlink:href="#DejaVuSans-65"/>
      <use x="323.144531" xlink:href="#DejaVuSans-72"/>
      <use x="364.257812" xlink:href="#DejaVuSans-61"/>
      <use x="425.537109" xlink:href="#DejaVuSans-74"/>
      <use x="464.746094" xlink:href="#DejaVuSans-75"/>
      <use x="528.125" xlink:href="#DejaVuSans-72"/>
      <use x="566.988281" xlink:href="#DejaVuSans-65"/>
     </g>
    </g>
   </g>
  </g>
 </g>
 <defs>
  <clipPath id="p368dd0b5cd">
   <rect height="434.88" width="781.2" x="126" y="69.12"/>
  </clipPath>
 </defs>
</svg>
