<?xml version="1.0" encoding="utf-8" standalone="no"?>
<!DOCTYPE svg PUBLIC "-//W3C//DTD SVG 1.1//EN"
  "http://www.w3.org/Graphics/SVG/1.1/DTD/svg11.dtd">
<svg height="576pt" version="1.1" viewBox="0 0 1008 576" width="1008pt" xmlns="http://www.w3.org/2000/svg" xmlns:xlink="http://www.w3.org/1999/xlink">
 <metadata>
  <rdf:RDF xmlns:cc="http://creativecommons.org/ns#" xmlns:dc="http://purl.org/dc/elements/1.1/" xmlns:rdf="http://www.w3.org/1999/02/22-rdf-syntax-ns#">
   <cc:Work>
    <dc:type rdf:resource="http://purl.org/dc/dcmitype/StillImage"/>
    <dc:date>2022-01-08T01:27:32.169094</dc:date>
    <dc:format>image/svg+xml</dc:format>
    <dc:creator>
     <cc:Agent>
      <dc:title>Matplotlib v3.4.3, https://matplotlib.org/</dc:title>
     </cc:Agent>
    </dc:creator>
   </cc:Work>
  </rdf:RDF>
 </metadata>
 <defs>
  <style type="text/css">*{stroke-linecap:butt;stroke-linejoin:round;}</style>
 </defs>
 <g id="figure_1">
  <g id="patch_1">
   <path d="M 0 576 
L 1008 576 
L 1008 0 
L 0 0 
z
"/>
  </g>
  <g id="axes_1">
   <g id="patch_2">
    <path d="M 126 504 
L 907.2 504 
L 907.2 69.12 
L 126 69.12 
z
"/>
   </g>
   <g id="matplotlib.axis_1">
    <g id="xtick_1">
     <g id="line2d_1">
      <defs>
       <path d="M 0 0 
L 0 3.5 
" id="md7a3a7978f" style="stroke:#ffffff;stroke-width:0.8;"/>
      </defs>
      <g>
       <use style="fill:#ffffff;stroke:#ffffff;stroke-width:0.8;" x="161.509091" xlink:href="#md7a3a7978f" y="504"/>
      </g>
     </g>
     <g id="text_1">
      <!-- 0 -->
      <g style="fill:#ffffff;" transform="translate(158.327841 518.598438)scale(0.1 -0.1)">
       <defs>
        <path d="M 2034 4250 
Q 1547 4250 1301 3770 
Q 1056 3291 1056 2328 
Q 1056 1369 1301 889 
Q 1547 409 2034 409 
Q 2525 409 2770 889 
Q 3016 1369 3016 2328 
Q 3016 3291 2770 3770 
Q 2525 4250 2034 4250 
z
M 2034 4750 
Q 2819 4750 3233 4129 
Q 3647 3509 3647 2328 
Q 3647 1150 3233 529 
Q 2819 -91 2034 -91 
Q 1250 -91 836 529 
Q 422 1150 422 2328 
Q 422 3509 836 4129 
Q 1250 4750 2034 4750 
z
" id="DejaVuSans-30" transform="scale(0.015625)"/>
       </defs>
       <use xlink:href="#DejaVuSans-30"/>
      </g>
     </g>
    </g>
    <g id="xtick_2">
     <g id="line2d_2">
      <g>
       <use style="fill:#ffffff;stroke:#ffffff;stroke-width:0.8;" x="312.035123" xlink:href="#md7a3a7978f" y="504"/>
      </g>
     </g>
     <g id="text_2">
      <!-- 500 -->
      <g style="fill:#ffffff;" transform="translate(302.491373 518.598438)scale(0.1 -0.1)">
       <defs>
        <path d="M 691 4666 
L 3169 4666 
L 3169 4134 
L 1269 4134 
L 1269 2991 
Q 1406 3038 1543 3061 
Q 1681 3084 1819 3084 
Q 2600 3084 3056 2656 
Q 3513 2228 3513 1497 
Q 3513 744 3044 326 
Q 2575 -91 1722 -91 
Q 1428 -91 1123 -41 
Q 819 9 494 109 
L 494 744 
Q 775 591 1075 516 
Q 1375 441 1709 441 
Q 2250 441 2565 725 
Q 2881 1009 2881 1497 
Q 2881 1984 2565 2268 
Q 2250 2553 1709 2553 
Q 1456 2553 1204 2497 
Q 953 2441 691 2322 
L 691 4666 
z
" id="DejaVuSans-35" transform="scale(0.015625)"/>
       </defs>
       <use xlink:href="#DejaVuSans-35"/>
       <use x="63.623047" xlink:href="#DejaVuSans-30"/>
       <use x="127.246094" xlink:href="#DejaVuSans-30"/>
      </g>
     </g>
    </g>
    <g id="xtick_3">
     <g id="line2d_3">
      <g>
       <use style="fill:#ffffff;stroke:#ffffff;stroke-width:0.8;" x="462.561155" xlink:href="#md7a3a7978f" y="504"/>
      </g>
     </g>
     <g id="text_3">
      <!-- 1000 -->
      <g style="fill:#ffffff;" transform="translate(449.836155 518.598438)scale(0.1 -0.1)">
       <defs>
        <path d="M 794 531 
L 1825 531 
L 1825 4091 
L 703 3866 
L 703 4441 
L 1819 4666 
L 2450 4666 
L 2450 531 
L 3481 531 
L 3481 0 
L 794 0 
L 794 531 
z
" id="DejaVuSans-31" transform="scale(0.015625)"/>
       </defs>
       <use xlink:href="#DejaVuSans-31"/>
       <use x="63.623047" xlink:href="#DejaVuSans-30"/>
       <use x="127.246094" xlink:href="#DejaVuSans-30"/>
       <use x="190.869141" xlink:href="#DejaVuSans-30"/>
      </g>
     </g>
    </g>
    <g id="xtick_4">
     <g id="line2d_4">
      <g>
       <use style="fill:#ffffff;stroke:#ffffff;stroke-width:0.8;" x="613.087186" xlink:href="#md7a3a7978f" y="504"/>
      </g>
     </g>
     <g id="text_4">
      <!-- 1500 -->
      <g style="fill:#ffffff;" transform="translate(600.362186 518.598438)scale(0.1 -0.1)">
       <use xlink:href="#DejaVuSans-31"/>
       <use x="63.623047" xlink:href="#DejaVuSans-35"/>
       <use x="127.246094" xlink:href="#DejaVuSans-30"/>
       <use x="190.869141" xlink:href="#DejaVuSans-30"/>
      </g>
     </g>
    </g>
    <g id="xtick_5">
     <g id="line2d_5">
      <g>
       <use style="fill:#ffffff;stroke:#ffffff;stroke-width:0.8;" x="763.613218" xlink:href="#md7a3a7978f" y="504"/>
      </g>
     </g>
     <g id="text_5">
      <!-- 2000 -->
      <g style="fill:#ffffff;" transform="translate(750.888218 518.598438)scale(0.1 -0.1)">
       <defs>
        <path d="M 1228 531 
L 3431 531 
L 3431 0 
L 469 0 
L 469 531 
Q 828 903 1448 1529 
Q 2069 2156 2228 2338 
Q 2531 2678 2651 2914 
Q 2772 3150 2772 3378 
Q 2772 3750 2511 3984 
Q 2250 4219 1831 4219 
Q 1534 4219 1204 4116 
Q 875 4013 500 3803 
L 500 4441 
Q 881 4594 1212 4672 
Q 1544 4750 1819 4750 
Q 2544 4750 2975 4387 
Q 3406 4025 3406 3419 
Q 3406 3131 3298 2873 
Q 3191 2616 2906 2266 
Q 2828 2175 2409 1742 
Q 1991 1309 1228 531 
z
" id="DejaVuSans-32" transform="scale(0.015625)"/>
       </defs>
       <use xlink:href="#DejaVuSans-32"/>
       <use x="63.623047" xlink:href="#DejaVuSans-30"/>
       <use x="127.246094" xlink:href="#DejaVuSans-30"/>
       <use x="190.869141" xlink:href="#DejaVuSans-30"/>
      </g>
     </g>
    </g>
    <g id="text_6">
     <!-- iteration -->
     <g style="fill:#ffffff;" transform="translate(495.477344 532.276562)scale(0.1 -0.1)">
      <defs>
       <path d="M 603 3500 
L 1178 3500 
L 1178 0 
L 603 0 
L 603 3500 
z
M 603 4863 
L 1178 4863 
L 1178 4134 
L 603 4134 
L 603 4863 
z
" id="DejaVuSans-69" transform="scale(0.015625)"/>
       <path d="M 1172 4494 
L 1172 3500 
L 2356 3500 
L 2356 3053 
L 1172 3053 
L 1172 1153 
Q 1172 725 1289 603 
Q 1406 481 1766 481 
L 2356 481 
L 2356 0 
L 1766 0 
Q 1100 0 847 248 
Q 594 497 594 1153 
L 594 3053 
L 172 3053 
L 172 3500 
L 594 3500 
L 594 4494 
L 1172 4494 
z
" id="DejaVuSans-74" transform="scale(0.015625)"/>
       <path d="M 3597 1894 
L 3597 1613 
L 953 1613 
Q 991 1019 1311 708 
Q 1631 397 2203 397 
Q 2534 397 2845 478 
Q 3156 559 3463 722 
L 3463 178 
Q 3153 47 2828 -22 
Q 2503 -91 2169 -91 
Q 1331 -91 842 396 
Q 353 884 353 1716 
Q 353 2575 817 3079 
Q 1281 3584 2069 3584 
Q 2775 3584 3186 3129 
Q 3597 2675 3597 1894 
z
M 3022 2063 
Q 3016 2534 2758 2815 
Q 2500 3097 2075 3097 
Q 1594 3097 1305 2825 
Q 1016 2553 972 2059 
L 3022 2063 
z
" id="DejaVuSans-65" transform="scale(0.015625)"/>
       <path d="M 2631 2963 
Q 2534 3019 2420 3045 
Q 2306 3072 2169 3072 
Q 1681 3072 1420 2755 
Q 1159 2438 1159 1844 
L 1159 0 
L 581 0 
L 581 3500 
L 1159 3500 
L 1159 2956 
Q 1341 3275 1631 3429 
Q 1922 3584 2338 3584 
Q 2397 3584 2469 3576 
Q 2541 3569 2628 3553 
L 2631 2963 
z
" id="DejaVuSans-72" transform="scale(0.015625)"/>
       <path d="M 2194 1759 
Q 1497 1759 1228 1600 
Q 959 1441 959 1056 
Q 959 750 1161 570 
Q 1363 391 1709 391 
Q 2188 391 2477 730 
Q 2766 1069 2766 1631 
L 2766 1759 
L 2194 1759 
z
M 3341 1997 
L 3341 0 
L 2766 0 
L 2766 531 
Q 2569 213 2275 61 
Q 1981 -91 1556 -91 
Q 1019 -91 701 211 
Q 384 513 384 1019 
Q 384 1609 779 1909 
Q 1175 2209 1959 2209 
L 2766 2209 
L 2766 2266 
Q 2766 2663 2505 2880 
Q 2244 3097 1772 3097 
Q 1472 3097 1187 3025 
Q 903 2953 641 2809 
L 641 3341 
Q 956 3463 1253 3523 
Q 1550 3584 1831 3584 
Q 2591 3584 2966 3190 
Q 3341 2797 3341 1997 
z
" id="DejaVuSans-61" transform="scale(0.015625)"/>
       <path d="M 1959 3097 
Q 1497 3097 1228 2736 
Q 959 2375 959 1747 
Q 959 1119 1226 758 
Q 1494 397 1959 397 
Q 2419 397 2687 759 
Q 2956 1122 2956 1747 
Q 2956 2369 2687 2733 
Q 2419 3097 1959 3097 
z
M 1959 3584 
Q 2709 3584 3137 3096 
Q 3566 2609 3566 1747 
Q 3566 888 3137 398 
Q 2709 -91 1959 -91 
Q 1206 -91 779 398 
Q 353 888 353 1747 
Q 353 2609 779 3096 
Q 1206 3584 1959 3584 
z
" id="DejaVuSans-6f" transform="scale(0.015625)"/>
       <path d="M 3513 2113 
L 3513 0 
L 2938 0 
L 2938 2094 
Q 2938 2591 2744 2837 
Q 2550 3084 2163 3084 
Q 1697 3084 1428 2787 
Q 1159 2491 1159 1978 
L 1159 0 
L 581 0 
L 581 3500 
L 1159 3500 
L 1159 2956 
Q 1366 3272 1645 3428 
Q 1925 3584 2291 3584 
Q 2894 3584 3203 3211 
Q 3513 2838 3513 2113 
z
" id="DejaVuSans-6e" transform="scale(0.015625)"/>
      </defs>
      <use xlink:href="#DejaVuSans-69"/>
      <use x="27.783203" xlink:href="#DejaVuSans-74"/>
      <use x="66.992188" xlink:href="#DejaVuSans-65"/>
      <use x="128.515625" xlink:href="#DejaVuSans-72"/>
      <use x="169.628906" xlink:href="#DejaVuSans-61"/>
      <use x="230.908203" xlink:href="#DejaVuSans-74"/>
      <use x="270.117188" xlink:href="#DejaVuSans-69"/>
      <use x="297.900391" xlink:href="#DejaVuSans-6f"/>
      <use x="359.082031" xlink:href="#DejaVuSans-6e"/>
     </g>
    </g>
   </g>
   <g id="matplotlib.axis_2">
    <g id="ytick_1">
     <g id="line2d_6">
      <defs>
       <path d="M 0 0 
L -3.5 0 
" id="mb254e7997d" style="stroke:#ffffff;stroke-width:0.8;"/>
      </defs>
      <g>
       <use style="fill:#ffffff;stroke:#ffffff;stroke-width:0.8;" x="126" xlink:href="#mb254e7997d" y="484.232727"/>
      </g>
     </g>
     <g id="text_7">
      <!-- 0 -->
      <g style="fill:#ffffff;" transform="translate(112.6375 488.031946)scale(0.1 -0.1)">
       <use xlink:href="#DejaVuSans-30"/>
      </g>
     </g>
    </g>
    <g id="ytick_2">
     <g id="line2d_7">
      <g>
       <use style="fill:#ffffff;stroke:#ffffff;stroke-width:0.8;" x="126" xlink:href="#mb254e7997d" y="406.729207"/>
      </g>
     </g>
     <g id="text_8">
      <!-- 2000 -->
      <g style="fill:#ffffff;" transform="translate(93.55 410.528426)scale(0.1 -0.1)">
       <use xlink:href="#DejaVuSans-32"/>
       <use x="63.623047" xlink:href="#DejaVuSans-30"/>
       <use x="127.246094" xlink:href="#DejaVuSans-30"/>
       <use x="190.869141" xlink:href="#DejaVuSans-30"/>
      </g>
     </g>
    </g>
    <g id="ytick_3">
     <g id="line2d_8">
      <g>
       <use style="fill:#ffffff;stroke:#ffffff;stroke-width:0.8;" x="126" xlink:href="#mb254e7997d" y="329.225688"/>
      </g>
     </g>
     <g id="text_9">
      <!-- 4000 -->
      <g style="fill:#ffffff;" transform="translate(93.55 333.024906)scale(0.1 -0.1)">
       <defs>
        <path d="M 2419 4116 
L 825 1625 
L 2419 1625 
L 2419 4116 
z
M 2253 4666 
L 3047 4666 
L 3047 1625 
L 3713 1625 
L 3713 1100 
L 3047 1100 
L 3047 0 
L 2419 0 
L 2419 1100 
L 313 1100 
L 313 1709 
L 2253 4666 
z
" id="DejaVuSans-34" transform="scale(0.015625)"/>
       </defs>
       <use xlink:href="#DejaVuSans-34"/>
       <use x="63.623047" xlink:href="#DejaVuSans-30"/>
       <use x="127.246094" xlink:href="#DejaVuSans-30"/>
       <use x="190.869141" xlink:href="#DejaVuSans-30"/>
      </g>
     </g>
    </g>
    <g id="ytick_4">
     <g id="line2d_9">
      <g>
       <use style="fill:#ffffff;stroke:#ffffff;stroke-width:0.8;" x="126" xlink:href="#mb254e7997d" y="251.722168"/>
      </g>
     </g>
     <g id="text_10">
      <!-- 6000 -->
      <g style="fill:#ffffff;" transform="translate(93.55 255.521387)scale(0.1 -0.1)">
       <defs>
        <path d="M 2113 2584 
Q 1688 2584 1439 2293 
Q 1191 2003 1191 1497 
Q 1191 994 1439 701 
Q 1688 409 2113 409 
Q 2538 409 2786 701 
Q 3034 994 3034 1497 
Q 3034 2003 2786 2293 
Q 2538 2584 2113 2584 
z
M 3366 4563 
L 3366 3988 
Q 3128 4100 2886 4159 
Q 2644 4219 2406 4219 
Q 1781 4219 1451 3797 
Q 1122 3375 1075 2522 
Q 1259 2794 1537 2939 
Q 1816 3084 2150 3084 
Q 2853 3084 3261 2657 
Q 3669 2231 3669 1497 
Q 3669 778 3244 343 
Q 2819 -91 2113 -91 
Q 1303 -91 875 529 
Q 447 1150 447 2328 
Q 447 3434 972 4092 
Q 1497 4750 2381 4750 
Q 2619 4750 2861 4703 
Q 3103 4656 3366 4563 
z
" id="DejaVuSans-36" transform="scale(0.015625)"/>
       </defs>
       <use xlink:href="#DejaVuSans-36"/>
       <use x="63.623047" xlink:href="#DejaVuSans-30"/>
       <use x="127.246094" xlink:href="#DejaVuSans-30"/>
       <use x="190.869141" xlink:href="#DejaVuSans-30"/>
      </g>
     </g>
    </g>
    <g id="ytick_5">
     <g id="line2d_10">
      <g>
       <use style="fill:#ffffff;stroke:#ffffff;stroke-width:0.8;" x="126" xlink:href="#mb254e7997d" y="174.218648"/>
      </g>
     </g>
     <g id="text_11">
      <!-- 8000 -->
      <g style="fill:#ffffff;" transform="translate(93.55 178.017867)scale(0.1 -0.1)">
       <defs>
        <path d="M 2034 2216 
Q 1584 2216 1326 1975 
Q 1069 1734 1069 1313 
Q 1069 891 1326 650 
Q 1584 409 2034 409 
Q 2484 409 2743 651 
Q 3003 894 3003 1313 
Q 3003 1734 2745 1975 
Q 2488 2216 2034 2216 
z
M 1403 2484 
Q 997 2584 770 2862 
Q 544 3141 544 3541 
Q 544 4100 942 4425 
Q 1341 4750 2034 4750 
Q 2731 4750 3128 4425 
Q 3525 4100 3525 3541 
Q 3525 3141 3298 2862 
Q 3072 2584 2669 2484 
Q 3125 2378 3379 2068 
Q 3634 1759 3634 1313 
Q 3634 634 3220 271 
Q 2806 -91 2034 -91 
Q 1263 -91 848 271 
Q 434 634 434 1313 
Q 434 1759 690 2068 
Q 947 2378 1403 2484 
z
M 1172 3481 
Q 1172 3119 1398 2916 
Q 1625 2713 2034 2713 
Q 2441 2713 2670 2916 
Q 2900 3119 2900 3481 
Q 2900 3844 2670 4047 
Q 2441 4250 2034 4250 
Q 1625 4250 1398 4047 
Q 1172 3844 1172 3481 
z
" id="DejaVuSans-38" transform="scale(0.015625)"/>
       </defs>
       <use xlink:href="#DejaVuSans-38"/>
       <use x="63.623047" xlink:href="#DejaVuSans-30"/>
       <use x="127.246094" xlink:href="#DejaVuSans-30"/>
       <use x="190.869141" xlink:href="#DejaVuSans-30"/>
      </g>
     </g>
    </g>
    <g id="ytick_6">
     <g id="line2d_11">
      <g>
       <use style="fill:#ffffff;stroke:#ffffff;stroke-width:0.8;" x="126" xlink:href="#mb254e7997d" y="96.715128"/>
      </g>
     </g>
     <g id="text_12">
      <!-- 10000 -->
      <g style="fill:#ffffff;" transform="translate(87.1875 100.514347)scale(0.1 -0.1)">
       <use xlink:href="#DejaVuSans-31"/>
       <use x="63.623047" xlink:href="#DejaVuSans-30"/>
       <use x="127.246094" xlink:href="#DejaVuSans-30"/>
       <use x="190.869141" xlink:href="#DejaVuSans-30"/>
       <use x="254.492188" xlink:href="#DejaVuSans-30"/>
      </g>
     </g>
    </g>
   </g>
   <g id="line2d_12">
    <path clip-path="url(#p3d9dd16e46)" d="M 161.509091 393.592361 
L 161.810143 338.564862 
L 162.111195 403.939081 
L 162.412247 395.374942 
L 163.014351 475.668588 
L 163.616455 475.668588 
L 163.917507 472.568448 
L 164.218559 472.568448 
L 164.519612 419.284778 
L 164.820664 331.977063 
L 165.422768 331.977063 
L 165.72382 450.324937 
L 166.024872 426.880123 
L 166.325924 450.324937 
L 166.626976 421.76489 
L 166.928028 438.699409 
L 167.22908 417.269686 
L 167.530132 472.607199 
L 168.132236 400.567678 
L 168.433288 400.567678 
L 168.73434 375.534041 
L 169.035393 375.534041 
L 169.336445 322.134116 
L 169.637497 409.441831 
L 170.841705 409.441831 
L 171.142757 400.877692 
L 171.443809 411.766936 
L 171.744861 368.016199 
L 172.045913 388.012107 
L 172.346965 374.836509 
L 172.648017 346.276462 
L 172.949069 374.836509 
L 173.250121 299.696847 
L 173.551173 312.872445 
L 173.852226 312.872445 
L 174.45433 199.601051 
L 174.755382 224.634688 
L 175.056434 180.883951 
L 175.357486 213.202919 
L 175.658538 393.592361 
L 175.95959 335.348466 
L 176.260642 248.040751 
L 176.561694 248.040751 
L 176.862746 393.592361 
L 177.163798 403.47406 
L 177.46485 316.166345 
L 178.066954 233.547592 
L 178.368006 320.855308 
L 178.970111 320.855308 
L 179.271163 330.698255 
L 179.572215 369.56627 
L 179.873267 353.678048 
L 180.475371 303.029498 
L 180.776423 363.908513 
L 181.077475 455.517673 
L 181.679579 364.877307 
L 181.980631 439.978217 
L 182.281683 439.978217 
L 182.582735 437.071835 
L 182.883787 408.511788 
L 183.184839 439.978217 
L 183.485892 425.136293 
L 183.786944 425.136293 
L 184.087996 416.572154 
L 184.389048 329.264439 
L 184.6901 416.572154 
L 184.991152 329.264439 
L 185.292204 329.264439 
L 185.593256 425.136293 
L 185.894308 413.510765 
L 186.19536 338.371103 
L 186.496412 353.7168 
L 186.797464 353.7168 
L 187.098516 388.903398 
L 187.399568 388.903398 
L 187.70062 480.590062 
L 188.001673 480.590062 
L 188.302725 438.738161 
L 188.603777 438.738161 
L 188.904829 351.430446 
L 189.205881 396.925012 
L 189.506933 393.282347 
L 190.109037 282.801079 
L 190.410089 282.801079 
L 190.711141 254.241032 
L 191.012193 304.773327 
L 191.313245 392.081042 
L 191.915349 450.324937 
L 192.216401 447.224797 
L 192.517453 450.324937 
L 192.818506 438.699409 
L 193.119558 363.559747 
L 193.42061 336.31726 
L 193.721662 370.22505 
L 194.022714 315.197551 
L 194.323766 390.337213 
L 194.624818 299.696847 
L 194.92587 271.1368 
L 195.226922 326.164299 
L 195.829026 377.355373 
L 196.130078 480.590062 
L 196.43113 441.722047 
L 196.732182 441.605791 
L 197.033234 460.671657 
L 197.334286 460.671657 
L 197.635339 416.92092 
L 197.936391 451.797504 
L 198.237443 460.671657 
L 198.538495 460.787913 
L 198.839547 457.881531 
L 199.140599 419.013515 
L 199.441651 363.986016 
L 199.742703 384.33069 
L 200.043755 384.33069 
L 200.344807 442.264571 
L 200.645859 442.148316 
L 200.946911 481.016331 
L 201.247963 429.360235 
L 201.549015 429.360235 
L 201.850067 429.476491 
L 202.15112 481.132586 
L 202.452172 480.590062 
L 202.753224 455.556425 
L 203.054276 455.556425 
L 203.355328 397.31253 
L 203.65638 367.047405 
L 203.957432 311.709892 
L 204.258484 336.743529 
L 204.559536 394.987424 
L 204.860588 348.601568 
L 205.16164 273.461905 
L 205.462692 348.601568 
L 205.763744 348.601568 
L 206.064796 403.939081 
L 206.365848 403.939081 
L 206.6669 328.799418 
L 206.967953 403.939081 
L 207.269005 401.032699 
L 207.570057 313.724984 
L 207.871109 331.977063 
L 208.172161 331.977063 
L 208.774265 424.516265 
L 209.376369 424.516265 
L 209.677421 366.27237 
L 209.978473 397.428785 
L 210.279525 342.401286 
L 210.580577 397.428785 
L 210.881629 394.328644 
L 211.182681 394.328644 
L 211.483733 369.295007 
L 211.784786 360.730868 
L 212.085838 360.730868 
L 212.38689 369.295007 
L 212.687942 397.428785 
L 212.988994 365.109817 
L 213.290046 423.353712 
L 213.591098 451.91376 
L 213.89215 429.476491 
L 214.193202 429.476491 
L 214.494254 419.284778 
L 214.795306 425.136293 
L 215.39741 371.542609 
L 215.698462 399.482628 
L 215.999514 399.482628 
L 216.300566 424.516265 
L 216.601619 424.40001 
L 216.902671 403.822825 
L 217.203723 416.223389 
L 217.504775 403.47406 
L 217.805827 403.47406 
L 218.106879 403.357804 
L 218.407931 344.26137 
L 218.708983 344.26137 
L 219.010035 391.112248 
L 219.311087 417.889714 
L 219.612139 406.457945 
L 219.913191 375.417785 
L 220.214243 411.805688 
L 220.515295 411.301915 
L 220.816347 439.978217 
L 221.1174 384.950718 
L 221.418452 460.787913 
L 221.719504 484.232727 
L 222.020556 450.324937 
L 222.321608 450.324937 
L 222.923712 450.208682 
L 223.224764 472.490944 
L 223.525816 433.622929 
L 223.826868 472.490944 
L 224.12792 291.248963 
L 224.428972 338.681117 
L 224.730024 248.040751 
L 225.031076 330.116978 
L 225.332128 330.116978 
L 225.934233 330.000723 
L 226.235285 393.708616 
L 226.536337 393.708616 
L 226.837389 354.840601 
L 227.138441 349.376603 
L 227.439493 357.940742 
L 227.740545 277.182074 
L 228.041597 274.275692 
L 228.342649 274.275692 
L 228.643701 361.583407 
L 228.944753 303.339512 
L 229.245805 442.342075 
L 229.546857 377.394125 
L 229.847909 395.491197 
L 230.148961 392.584815 
L 230.450013 354.60809 
L 230.751066 460.787913 
L 231.35317 391.228504 
L 231.654222 332.984608 
L 231.955274 381.734322 
L 232.256326 381.618067 
L 232.557378 451.91376 
L 232.85843 423.353712 
L 233.159482 368.326213 
L 233.460534 451.91376 
L 233.761586 484.232727 
L 234.062638 434.475468 
L 234.36369 425.911329 
L 234.965794 425.911329 
L 235.266847 419.284778 
L 235.567899 481.132586 
L 235.868951 480.590062 
L 236.170003 422.346167 
L 236.471055 403.47406 
L 236.772107 403.47406 
L 237.374211 346.121455 
L 237.675263 378.440423 
L 237.976315 349.880376 
L 238.277367 374.914013 
L 238.578419 374.914013 
L 238.879471 403.47406 
L 239.180523 353.7168 
L 239.481575 353.7168 
L 239.782627 403.47406 
L 240.08368 364.606044 
L 240.384732 403.47406 
L 240.685784 316.166345 
L 240.986836 316.166345 
L 241.287888 419.284778 
L 241.58894 419.284778 
L 241.889992 380.416762 
L 242.191044 380.416762 
L 242.492096 383.400648 
L 242.793148 380.494266 
L 243.0942 364.606044 
L 243.395252 393.592361 
L 243.696304 359.684571 
L 244.298408 478.536219 
L 244.900513 381.385556 
L 245.201565 422.036153 
L 245.502617 392.817326 
L 245.803669 480.590062 
L 246.104721 436.839325 
L 246.405773 424.40001 
L 246.706825 468.150747 
L 247.007877 459.586608 
L 247.308929 415.952126 
L 247.609981 415.952126 
L 247.911033 403.47406 
L 248.212085 403.47406 
L 248.513137 394.909921 
L 248.814189 475.668588 
L 249.416293 475.552333 
L 249.717346 436.684318 
L 250.018398 381.346805 
L 250.31945 294.03909 
L 250.620502 302.603229 
L 251.222606 484.116472 
L 251.523658 416.107133 
L 251.82471 416.107133 
L 252.125762 416.223389 
L 252.426814 429.476491 
L 252.727866 342.168775 
L 253.028918 396.925012 
L 253.32997 306.284646 
L 253.631022 393.824871 
L 253.932074 363.017222 
L 254.233127 360.11084 
L 254.534179 360.11084 
L 254.835231 447.418555 
L 255.437335 333.294622 
L 255.738387 358.483266 
L 256.039439 358.483266 
L 256.340491 370.108794 
L 256.641543 348.911582 
L 256.942595 460.787913 
L 257.243647 429.476491 
L 257.544699 429.476491 
L 257.845751 400.916443 
L 258.146803 400.916443 
L 258.447855 392.352305 
L 258.748907 460.787913 
L 259.04996 419.284778 
L 259.351012 410.720639 
L 259.652064 355.69314 
L 259.953116 364.257279 
L 260.254168 308.919765 
L 261.157324 478.536219 
L 261.458376 420.292323 
L 261.759428 411.728184 
L 262.06048 417.424693 
L 262.361532 362.08718 
L 262.662584 281.793534 
L 262.963636 337.131047 
L 263.264688 308.067227 
L 263.56574 308.067227 
L 263.866793 283.03359 
L 264.468897 283.03359 
L 265.071001 424.516265 
L 265.974157 424.516265 
L 266.275209 366.27237 
L 266.576261 422.346167 
L 266.877313 455.517673 
L 267.178365 455.517673 
L 267.479417 443.892145 
L 267.780469 366.892398 
L 268.081521 366.892398 
L 268.683626 366.776143 
L 268.984678 363.869761 
L 269.28573 422.113656 
L 269.586782 436.95558 
L 269.887834 436.95558 
L 270.188886 421.493628 
L 270.79099 421.493628 
L 271.092042 403.357804 
L 271.393094 464.740592 
L 271.995198 408.163023 
L 272.29625 408.163023 
L 272.597302 374.255233 
L 272.898354 374.255233 
L 273.199407 404.830371 
L 273.801511 375.379034 
L 274.102563 317.135139 
L 274.403615 375.379034 
L 274.704667 403.939081 
L 275.908875 403.939081 
L 276.209927 365.071066 
L 276.510979 362.164684 
L 276.812031 403.939081 
L 277.113083 403.939081 
L 277.414135 484.232727 
L 277.715187 424.516265 
L 278.01624 424.40001 
L 278.317292 457.881531 
L 278.618344 460.787913 
L 278.919396 460.787913 
L 279.220448 432.227865 
L 279.5215 432.227865 
L 279.822552 460.787913 
L 280.123604 402.544017 
L 280.424656 460.787913 
L 280.725708 434.475468 
L 281.02676 347.167752 
L 281.327812 373.480197 
L 281.628864 373.480197 
L 281.929916 380.843032 
L 282.230968 380.843032 
L 283.435177 223.665894 
L 283.736229 267.416631 
L 284.037281 385.028222 
L 284.338333 385.028222 
L 284.639385 424.516265 
L 285.542541 424.516265 
L 285.843593 475.668588 
L 286.144645 484.232727 
L 286.445697 438.738161 
L 286.746749 438.738161 
L 287.047801 430.174022 
L 287.649906 354.724346 
L 288.25201 439.978217 
L 288.553062 439.978217 
L 288.854114 416.223389 
L 289.155166 416.223389 
L 289.456218 377.355373 
L 289.75727 377.239118 
L 290.058322 322.211619 
L 290.359374 390.220958 
L 290.660426 309.46229 
L 290.961478 309.46229 
L 291.26253 422.268663 
L 291.563582 419.362281 
L 291.864634 364.334782 
L 292.165687 426.105087 
L 292.466739 425.988832 
L 292.767791 468.150747 
L 293.068843 468.150747 
L 293.369895 468.034492 
L 293.670947 480.590062 
L 293.971999 480.590062 
L 294.273051 451.91376 
L 294.574103 392.817326 
L 294.875155 451.91376 
L 295.176207 371.155092 
L 295.477259 448.813619 
L 296.079363 334.495927 
L 296.380415 392.817326 
L 296.681467 349.066589 
L 296.98252 392.817326 
L 297.283572 392.817326 
L 297.584624 391.228504 
L 297.885676 336.201004 
L 298.186728 324.614228 
L 298.788832 416.223389 
L 299.089884 361.19589 
L 299.390936 416.223389 
L 299.691988 416.223389 
L 299.99304 425.136293 
L 300.595144 259.356265 
L 300.896196 259.356265 
L 301.498301 425.136293 
L 301.799353 370.108794 
L 302.100405 345.075157 
L 302.401457 289.737644 
L 302.702509 403.47406 
L 303.003561 348.136546 
L 303.304613 417.269686 
L 303.605665 359.025791 
L 303.906717 417.269686 
L 304.207769 417.269686 
L 304.508821 388.709639 
L 304.809873 409.519334 
L 305.110925 464.856847 
L 305.713029 464.856847 
L 306.014081 484.232727 
L 306.616186 369.79878 
L 306.917238 338.254848 
L 307.21829 338.254848 
L 307.519342 294.504111 
L 307.820394 349.841624 
L 308.121446 321.281577 
L 308.422498 419.284778 
L 308.72355 361.040883 
L 309.024602 376.231572 
L 309.325654 380.494266 
L 309.626706 325.466767 
L 309.927758 383.710662 
L 310.22881 296.402947 
L 310.830914 296.402947 
L 311.131967 395.297438 
L 311.433019 395.297438 
L 311.734071 369.488766 
L 312.035123 424.516265 
L 312.637227 294.03909 
L 312.938279 294.03909 
L 313.239331 288.807602 
L 313.540383 422.268663 
L 313.841435 397.235026 
L 314.142487 450.324937 
L 314.443539 450.324937 
L 314.744591 447.224797 
L 315.045643 447.224797 
L 315.346695 448.813619 
L 315.647748 418.00597 
L 315.9488 362.978471 
L 316.249852 362.978471 
L 316.550904 418.00597 
L 316.851956 418.00597 
L 317.153008 480.590062 
L 317.45406 405.450399 
L 317.755112 363.598499 
L 318.056164 349.376603 
L 318.357216 346.470221 
L 318.658268 320.816556 
L 318.95932 320.816556 
L 319.260372 349.376603 
L 319.561424 409.093065 
L 319.862476 328.334397 
L 320.163528 403.47406 
L 320.464581 374.914013 
L 320.765633 374.914013 
L 321.066685 419.284778 
L 321.367737 375.534041 
L 321.668789 438.738161 
L 321.969841 410.178114 
L 322.270893 405.915421 
L 322.571945 431.375327 
L 322.872997 390.724731 
L 323.475101 390.724731 
L 324.077205 228.277353 
L 324.378257 172.93984 
L 324.679309 190.378132 
L 324.980361 175.80747 
L 325.281414 374.138977 
L 325.582466 429.476491 
L 325.883518 426.570109 
L 326.485622 371.542609 
L 326.786674 374.448991 
L 327.087726 424.516265 
L 327.68983 337.20855 
L 328.291934 385.64825 
L 328.894038 255.171074 
L 329.19509 385.64825 
L 329.496142 424.516265 
L 329.797194 415.952126 
L 330.399299 333.333374 
L 330.700351 416.223389 
L 331.302455 416.223389 
L 331.603507 372.472652 
L 332.205611 422.268663 
L 332.506663 422.268663 
L 332.807715 367.241164 
L 333.108767 422.268663 
L 333.409819 403.939081 
L 333.710871 341.39374 
L 334.011923 364.877307 
L 334.312975 424.516265 
L 334.614028 399.482628 
L 334.91508 390.918489 
L 335.216132 363.327236 
L 335.517184 444.938443 
L 336.119288 444.938443 
L 336.42034 392.391056 
L 336.721392 312.09741 
L 337.624548 468.150747 
L 338.226652 468.150747 
L 338.527704 412.813234 
L 338.828756 394.987424 
L 339.129808 468.150747 
L 339.430861 481.132586 
L 339.731913 405.992924 
L 340.032965 403.086542 
L 340.334017 437.071835 
L 340.635069 425.136293 
L 340.936121 425.136293 
L 341.237173 391.228504 
L 341.538225 478.536219 
L 341.839277 403.396556 
L 342.140329 403.396556 
L 342.441381 409.093065 
L 342.742433 405.450399 
L 343.043485 318.142684 
L 343.344537 318.142684 
L 343.645589 393.282347 
L 344.247694 393.282347 
L 344.548746 439.978217 
L 344.849798 396.227481 
L 345.15085 439.978217 
L 345.451902 429.476491 
L 345.752954 484.232727 
L 346.054006 425.988832 
L 346.355058 417.424693 
L 346.957162 270.090502 
L 347.258214 316.94138 
L 347.559266 305.354604 
L 347.860318 305.354604 
L 348.16137 363.598499 
L 348.462422 360.692117 
L 348.763475 403.939081 
L 349.064527 375.379034 
L 349.666631 375.379034 
L 349.967683 403.939081 
L 350.268735 378.905444 
L 350.569787 335.154707 
L 350.870839 378.905444 
L 351.171891 439.978217 
L 351.472943 431.414079 
L 352.075047 348.795326 
L 352.376099 357.359465 
L 352.677151 357.359465 
L 352.978203 332.325828 
L 353.580308 415.332098 
L 353.88136 411.689433 
L 354.182412 434.785482 
L 354.483464 434.785482 
L 354.784516 378.517926 
L 355.085568 372.472652 
L 355.38662 319.305237 
L 355.687672 352.670502 
L 355.988724 313.802487 
L 356.89188 403.939081 
L 357.192932 348.601568 
L 357.493984 464.856847 
L 357.795036 425.988832 
L 358.096088 464.856847 
L 358.397141 481.132586 
L 358.698193 447.224797 
L 358.999245 441.760798 
L 359.300297 480.590062 
L 359.601349 416.223389 
L 359.902401 422.268663 
L 360.203453 422.268663 
L 360.504505 334.960948 
L 360.805557 419.362281 
L 361.106609 344.222619 
L 361.407661 422.268663 
L 361.708713 364.024768 
L 362.009765 364.024768 
L 362.310817 414.363304 
L 362.611869 414.363304 
L 362.912921 472.607199 
L 363.515026 385.64825 
L 363.816078 424.516265 
L 364.719234 424.516265 
L 365.020286 385.64825 
L 365.321338 385.64825 
L 365.923442 480.590062 
L 366.224494 434.475468 
L 366.525546 431.569086 
L 366.826598 434.475468 
L 367.12765 402.1565 
L 367.428702 392.817326 
L 367.729755 448.813619 
L 368.030807 448.813619 
L 368.331859 481.132586 
L 368.933963 481.016331 
L 369.235015 481.016331 
L 369.536067 425.020038 
L 369.837119 425.136293 
L 370.138171 405.760413 
L 370.439223 422.268663 
L 370.740275 425.136293 
L 371.041327 392.817326 
L 371.342379 422.036153 
L 371.944483 422.036153 
L 372.245535 396.421239 
L 372.546588 455.517673 
L 372.84764 455.517673 
L 373.449744 400.916443 
L 373.750796 455.517673 
L 374.051848 455.517673 
L 374.3529 452.417532 
L 374.653952 374.759006 
L 374.955004 403.47406 
L 375.256056 369.56627 
L 375.557108 359.723323 
L 375.85816 431.917851 
L 376.159212 424.40001 
L 376.460264 366.156115 
L 376.761316 409.906852 
L 377.062368 422.888691 
L 377.363421 422.888691 
L 377.664473 481.132586 
L 377.965525 447.224797 
L 378.266577 393.824871 
L 378.567629 377.549132 
L 378.868681 396.925012 
L 379.169733 385.299484 
L 379.470785 385.299484 
L 379.771837 382.393102 
L 380.072889 343.525087 
L 380.373941 433.739184 
L 380.976045 433.739184 
L 381.277097 445.364712 
L 381.879202 384.485697 
L 382.180254 440.288232 
L 382.481306 440.288232 
L 382.782358 438.699409 
L 383.384462 438.699409 
L 383.685514 472.607199 
L 383.986566 413.510765 
L 384.287618 404.946627 
L 384.58867 416.572154 
L 384.889722 404.946627 
L 385.190774 379.91299 
L 385.491826 439.009423 
L 385.792878 431.259071 
L 386.09393 459.586608 
L 386.394982 459.586608 
L 386.696035 407.65925 
L 386.997087 430.174022 
L 387.599191 430.174022 
L 387.900243 403.47406 
L 388.201295 393.592361 
L 388.502347 424.516265 
L 388.803399 403.47406 
L 389.104451 348.136546 
L 389.405503 348.136546 
L 389.706555 338.254848 
L 390.007607 280.010953 
L 390.308659 364.024768 
L 390.609711 364.024768 
L 390.910763 420.292323 
L 391.211815 370.651319 
L 391.512868 289.892651 
L 391.81392 366.27237 
L 392.114972 357.979494 
L 392.416024 357.979494 
L 392.717076 393.669864 
L 393.018128 393.669864 
L 393.620232 393.553609 
L 393.921284 451.797504 
L 394.222336 396.459991 
L 395.125492 396.459991 
L 395.426544 429.360235 
L 396.630753 429.360235 
L 396.931805 390.49222 
L 397.232857 390.49222 
L 397.533909 383.284393 
L 397.834961 358.056997 
L 398.136013 290.047658 
L 398.437065 416.223389 
L 398.738117 416.107133 
L 399.039169 377.239118 
L 399.340221 386.152023 
L 399.641273 439.551948 
L 399.942325 430.987809 
L 400.243377 355.848147 
L 400.544429 355.964402 
L 400.845482 436.800573 
L 401.146534 356.041906 
L 401.447586 356.041906 
L 401.748638 339.572408 
L 402.350742 403.47406 
L 402.952846 289.350127 
L 403.253898 393.204843 
L 403.55495 439.978217 
L 403.856002 439.978217 
L 404.157054 434.475468 
L 404.458106 379.137954 
L 404.759158 409.519334 
L 405.06021 334.379672 
L 405.361262 409.519334 
L 406.264419 409.519334 
L 406.565471 354.491835 
L 406.866523 478.536219 
L 407.167575 423.50872 
L 407.468627 478.536219 
L 407.769679 484.232727 
L 408.070731 459.19909 
L 408.371783 371.891375 
L 408.672835 333.02336 
L 408.973887 391.228504 
L 409.274939 363.017222 
L 409.575991 304.773327 
L 409.877043 304.657072 
L 410.178095 229.517409 
L 410.479148 229.517409 
L 410.7802 229.633665 
L 411.081252 234.981408 
L 411.382304 391.228504 
L 411.984408 391.228504 
L 412.28546 416.223389 
L 412.586512 357.979494 
L 412.887564 349.415355 
L 413.188616 357.979494 
L 413.489668 357.979494 
L 413.79072 376.231572 
L 414.091772 337.363557 
L 414.392824 367.744937 
L 414.994929 390.608475 
L 415.295981 346.857738 
L 415.597033 336.666026 
L 415.898085 336.666026 
L 416.199137 398.513834 
L 416.801241 398.397579 
L 417.102293 398.397579 
L 417.403345 411.456922 
L 417.704397 356.429423 
L 418.005449 356.313168 
L 418.306501 340.463698 
L 418.908605 478.419963 
L 419.209657 453.386326 
L 419.510709 478.419963 
L 420.413866 478.419963 
L 421.01597 390.608475 
L 421.317022 429.476491 
L 421.618074 404.442854 
L 421.919126 391.189752 
L 422.220178 443.11711 
L 422.52123 450.634951 
L 422.822282 399.482628 
L 423.123334 416.223389 
L 423.424386 372.472652 
L 423.725438 380.765528 
L 424.02649 380.765528 
L 424.327542 325.738029 
L 424.628595 438.738161 
L 424.929647 438.738161 
L 425.230699 379.641727 
L 425.531751 396.576246 
L 425.832803 364.257279 
L 426.133855 289.117616 
L 426.434907 348.21405 
L 426.735959 348.21405 
L 427.037011 468.150747 
L 427.338063 429.476491 
L 427.940167 429.476491 
L 428.241219 429.360235 
L 428.542271 354.220573 
L 428.843323 383.943173 
L 429.144376 380.300507 
L 429.74648 380.300507 
L 430.047532 377.394125 
L 430.348584 381.036791 
L 430.649636 372.472652 
L 430.950688 400.528926 
L 431.25174 475.668588 
L 431.853844 408.085519 
L 432.154896 475.668588 
L 432.455948 441.760798 
L 432.757 472.568448 
L 433.058052 393.592361 
L 433.359104 385.028222 
L 433.660156 464.04306 
L 433.961209 464.04306 
L 434.262261 416.223389 
L 434.563313 341.083726 
L 434.864365 349.376603 
L 435.165417 397.467537 
L 435.466469 316.708869 
L 436.369625 316.708869 
L 436.670677 353.7168 
L 437.272781 353.7168 
L 437.573833 266.409085 
L 437.874885 310.159822 
L 438.175937 241.491703 
L 438.476989 316.088841 
L 438.778042 334.960948 
L 439.380146 334.960948 
L 439.681198 367.241164 
L 439.98225 438.738161 
L 440.283302 438.738161 
L 440.584354 394.987424 
L 440.885406 394.987424 
L 441.48751 284.622412 
L 442.390666 284.622412 
L 442.691718 281.406016 
L 442.99277 339.649911 
L 443.293822 264.510249 
L 443.594875 310.004815 
L 443.895927 276.097025 
L 444.196979 275.98077 
L 444.498031 319.731506 
L 444.799083 422.152408 
L 445.100135 425.020038 
L 445.401187 425.020038 
L 445.702239 381.269301 
L 446.003291 425.020038 
L 446.304343 392.70107 
L 446.605395 392.817326 
L 446.906447 422.268663 
L 447.207499 481.132586 
L 447.508551 481.132586 
L 447.809603 393.592361 
L 448.110656 393.592361 
L 448.411708 464.856847 
L 448.71276 389.717185 
L 449.013812 380.378011 
L 449.314864 325.350512 
L 449.615916 334.689686 
L 449.916968 286.056227 
L 450.21802 286.056227 
L 450.820124 417.5797 
L 451.121176 367.822441 
L 451.422228 367.822441 
L 451.72328 472.607199 
L 452.626436 358.367011 
L 453.228541 413.045744 
L 453.529593 401.420216 
L 453.830645 326.280554 
L 454.131697 365.148569 
L 454.432749 365.148569 
L 454.733801 356.58443 
L 455.034853 356.58443 
L 455.335905 431.724093 
L 455.636957 440.288232 
L 455.938009 428.468945 
L 456.540113 383.129386 
L 457.142217 481.132586 
L 457.443269 334.495927 
L 457.744322 295.627912 
L 458.045374 334.495927 
L 458.346426 425.136293 
L 458.647478 405.760413 
L 458.94853 481.132586 
L 459.249582 481.132586 
L 459.550634 478.226204 
L 460.152738 410.798142 
L 460.45379 430.832802 
L 460.754842 390.608475 
L 461.055894 429.476491 
L 461.356946 429.476491 
L 461.657998 385.725754 
L 462.260103 385.725754 
L 462.561155 390.724731 
L 462.862207 378.517926 
L 463.163259 378.517926 
L 463.464311 334.960948 
L 463.765363 328.915674 
L 464.066415 416.223389 
L 464.367467 393.592361 
L 464.668519 481.132586 
L 465.270623 481.132586 
L 465.571675 431.375327 
L 465.872727 405.915421 
L 466.173779 350.887921 
L 466.474831 350.887921 
L 467.076936 286.986269 
L 467.377988 325.854285 
L 467.980092 192.470727 
L 468.281144 317.367649 
L 468.582196 226.727283 
L 468.883248 312.019906 
L 469.485352 429.476491 
L 469.786404 429.476491 
L 470.087456 390.608475 
L 470.388508 416.223389 
L 470.68956 361.19589 
L 470.990612 352.631751 
L 471.592716 352.631751 
L 471.893769 308.881014 
L 472.194821 438.738161 
L 472.495873 438.738161 
L 472.796925 460.787913 
L 473.399029 419.284778 
L 473.700081 419.284778 
L 474.001133 361.040883 
L 474.302185 352.476744 
L 474.603237 392.081042 
L 474.904289 337.053543 
L 475.205341 337.053543 
L 475.506393 249.745828 
L 475.807445 308.493496 
L 476.108497 308.493496 
L 476.40955 395.297438 
L 476.710602 386.733299 
L 477.011654 384.950718 
L 477.312706 403.939081 
L 477.613758 403.822825 
L 478.215862 403.939081 
L 478.516914 328.799418 
L 478.817966 349.996631 
L 479.119018 346.89649 
L 479.42007 328.799418 
L 480.022174 328.799418 
L 480.323226 422.268663 
L 480.624278 481.132586 
L 481.226383 481.132586 
L 481.527435 422.036153 
L 482.129539 422.036153 
L 482.430591 400.102657 
L 482.731643 366.194867 
L 483.032695 366.194867 
L 483.333747 425.136293 
L 483.634799 416.572154 
L 483.935851 391.228504 
L 484.236903 404.830371 
L 484.537955 404.830371 
L 484.839007 478.536219 
L 485.140059 472.607199 
L 485.441111 472.490944 
L 485.742163 443.930897 
L 486.043216 443.930897 
L 486.344268 472.490944 
L 486.64532 463.926805 
L 486.946372 388.787143 
L 487.247424 420.912352 
L 487.548476 362.668456 
L 487.849528 362.668456 
L 488.451632 459.586608 
L 488.752684 416.572154 
L 489.053736 438.738161 
L 489.354788 438.738161 
L 489.65584 427.112633 
L 489.956892 397.467537 
L 490.257944 397.351282 
L 490.558996 472.490944 
L 490.860049 472.490944 
L 491.161101 383.710662 
L 491.462153 438.738161 
L 491.763205 383.710662 
L 492.064257 361.19589 
L 492.365309 322.327874 
L 492.666361 235.020159 
L 492.967413 235.020159 
L 493.268465 312.562431 
L 493.569517 237.422768 
L 493.870569 478.536219 
L 494.171621 460.787913 
L 494.773725 460.787913 
L 495.074777 411.030653 
L 495.37583 460.787913 
L 495.676882 432.227865 
L 495.977934 376.890352 
L 496.278986 432.227865 
L 496.88109 432.227865 
L 497.182142 376.890352 
L 497.483194 376.890352 
L 497.784246 373.98397 
L 498.38635 373.98397 
L 498.687402 432.227865 
L 498.988454 460.787913 
L 499.289506 460.787913 
L 499.590558 428.468945 
L 499.89161 428.468945 
L 500.192663 460.787913 
L 500.493715 401.691479 
L 500.794767 375.379034 
L 501.095819 402.1565 
L 501.396871 402.1565 
L 501.998975 343.835101 
L 502.300027 359.684571 
L 502.601079 359.684571 
L 502.902131 450.324937 
L 503.203183 439.978217 
L 503.504235 393.592361 
L 503.805287 419.284778 
L 504.106339 480.590062 
L 504.407391 480.590062 
L 505.009496 480.473807 
L 505.310548 393.166091 
L 505.6116 393.282347 
L 505.912652 331.977063 
L 506.213704 419.284778 
L 506.514756 419.284778 
L 507.11686 320.506542 
L 507.718964 429.476491 
L 508.020016 403.47406 
L 508.321068 400.567678 
L 508.62212 371.852624 
L 509.224224 371.852624 
L 509.525277 403.47406 
L 509.826329 344.377626 
L 510.127381 403.47406 
L 510.729485 403.47406 
L 511.030537 374.914013 
L 511.331589 287.606298 
L 511.632641 337.20855 
L 512.535797 337.20855 
L 512.836849 358.056997 
L 513.137901 329.341943 
L 513.438953 337.20855 
L 514.34211 337.20855 
L 514.643162 262.068888 
L 514.944214 263.541455 
L 515.245266 342.168775 
L 515.546318 371.891375 
L 515.84737 306.943426 
L 516.148422 306.943426 
L 516.449474 385.299484 
L 516.750526 385.299484 
L 517.051578 396.925012 
L 517.35263 316.166345 
L 517.653682 291.132708 
L 517.954734 291.132708 
L 518.556838 192.354472 
L 520.062099 192.354472 
L 520.363151 247.381971 
L 520.965255 247.381971 
L 521.266307 359.723323 
L 521.567359 334.689686 
L 521.868411 334.689686 
L 522.169463 279.662187 
L 522.470515 279.662187 
L 522.771567 240.794172 
L 523.072619 232.230033 
L 523.373671 176.892519 
L 523.674723 266.990361 
L 523.975776 266.990361 
L 524.276828 322.327874 
L 524.57788 328.373149 
L 524.878932 348.446561 
L 525.481036 480.590062 
L 525.782088 480.473807 
L 526.08314 419.168522 
L 526.384192 484.116472 
L 526.685244 424.40001 
L 526.986296 429.360235 
L 527.287348 354.220573 
L 527.5884 354.220573 
L 527.889452 345.656434 
L 528.190504 342.866307 
L 528.491557 418.00597 
L 528.792609 379.137954 
L 529.093661 379.137954 
L 529.394713 393.592361 
L 529.695765 385.028222 
L 529.996817 385.028222 
L 530.297869 475.668588 
L 530.598921 446.953534 
L 530.899973 475.668588 
L 531.201025 385.028222 
L 531.803129 385.028222 
L 532.104181 376.464083 
L 532.405233 376.464083 
L 532.706285 385.028222 
L 533.007337 330.000723 
L 533.30839 304.967086 
L 533.910494 205.878836 
L 534.211546 210.761558 
L 534.512598 301.401924 
L 534.81365 272.841877 
L 535.114702 269.935495 
L 535.415754 278.499634 
L 535.716806 281.406016 
L 536.017858 247.498226 
L 536.31891 247.498226 
L 536.619962 238.934087 
L 536.921014 425.562563 
L 537.222066 425.562563 
L 537.82417 347.129001 
L 538.125223 347.129001 
L 538.426275 309.578545 
L 539.028379 309.578545 
L 539.329431 351.391694 
L 539.931535 351.391694 
L 540.232587 438.738161 
L 540.533639 379.641727 
L 541.436795 379.641727 
L 541.737847 388.980901 
L 542.038899 422.268663 
L 542.942056 422.268663 
L 543.243108 397.235026 
L 543.54416 397.235026 
L 543.845212 342.207527 
L 544.146264 342.207527 
L 544.748368 452.766298 
L 545.04942 339.882422 
L 545.350472 394.909921 
L 545.651524 339.572408 
L 545.952576 339.572408 
L 546.253628 281.328512 
L 546.55468 336.666026 
L 547.156784 336.666026 
L 547.758889 269.237963 
L 548.059941 308.105979 
L 548.662045 308.105979 
L 549.264149 335.348466 
L 551.070461 335.348466 
L 551.371513 343.912605 
L 551.672565 379.602976 
L 552.27467 379.602976 
L 552.575722 408.279278 
L 553.177826 408.279278 
L 553.478878 480.590062 
L 553.77993 472.607199 
L 554.080982 449.162385 
L 554.382034 460.787913 
L 554.683086 401.691479 
L 554.984138 401.691479 
L 555.28519 346.66398 
L 555.586242 346.66398 
L 555.887294 401.691479 
L 556.188346 405.760413 
L 557.994659 405.760413 
L 558.295711 344.377626 
L 558.596763 344.377626 
L 558.897815 319.343989 
L 559.198867 319.343989 
L 559.499919 344.26137 
L 559.800971 337.828578 
L 560.102023 337.828578 
L 560.403075 329.264439 
L 560.704127 300.704392 
L 561.005179 245.676893 
L 561.306231 274.23694 
L 561.607284 271.330558 
L 561.908336 274.23694 
L 562.209388 289.350127 
L 563.413596 289.350127 
L 563.714648 361.19589 
L 564.0157 361.19589 
L 564.316752 420.641089 
L 564.617804 392.081042 
L 564.918856 389.17466 
L 565.219908 389.17466 
L 565.52096 386.733299 
L 565.822012 403.939081 
L 566.123064 403.939081 
L 566.725169 273.461905 
L 567.327273 273.461905 
L 567.628325 229.711168 
L 569.133585 229.711168 
L 569.434637 221.147029 
L 571.542002 221.147029 
L 571.843054 237.616527 
L 572.144106 246.180666 
L 574.25147 246.180666 
L 574.552522 307.098433 
L 574.853574 252.070934 
L 575.154626 252.070934 
L 575.455678 248.854538 
L 575.756731 248.854538 
L 576.057783 209.133984 
L 576.960939 209.133984 
L 577.261991 184.100347 
L 577.864095 184.100347 
L 578.165147 175.536208 
L 579.670407 175.536208 
L 579.971459 184.100347 
L 580.272511 175.536208 
L 580.573564 183.984092 
L 580.874616 183.984092 
L 581.47672 184.100347 
L 582.680928 184.100347 
L 582.98198 175.536208 
L 583.584084 175.536208 
L 583.885136 205.917588 
L 584.186188 264.161483 
L 584.48724 264.161483 
L 584.788292 292.876537 
L 585.089344 264.31649 
L 585.691449 264.31649 
L 585.992501 272.880629 
L 586.293553 244.165575 
L 586.895657 244.165575 
L 587.196709 269.974247 
L 587.798813 269.974247 
L 588.099865 289.970155 
L 589.304073 289.970155 
L 589.605125 367.124909 
L 589.906178 361.660911 
L 590.20723 329.341943 
L 590.508282 317.910174 
L 590.809334 315.003792 
L 591.110386 273.810671 
L 591.411438 276.717053 
L 592.013542 276.717053 
L 592.314594 221.37954 
L 593.518802 221.37954 
L 593.819854 271.1368 
L 595.325115 271.1368 
L 595.626167 212.892904 
L 597.131427 212.892904 
L 597.432479 251.76092 
L 597.733531 251.76092 
L 598.034583 230.563707 
L 600.141948 230.563707 
L 600.443 247.033205 
L 602.550364 247.033205 
L 602.851416 262.223895 
L 603.152468 174.91618 
L 603.45352 166.352041 
L 606.464041 166.352041 
L 606.765093 174.91618 
L 610.377718 174.91618 
L 610.67877 119.888681 
L 610.979822 119.888681 
L 611.280874 111.324542 
L 615.796655 111.324542 
L 616.097707 150.192557 
L 618.205071 150.192557 
L 618.506124 158.756696 
L 620.312436 158.756696 
L 620.613488 150.192557 
L 622.118748 150.192557 
L 622.4198 155.850314 
L 624.226113 155.850314 
L 624.527165 177.047527 
L 624.828217 177.047527 
L 625.129269 146.51114 
L 630.849258 146.51114 
L 631.15031 149.417522 
L 631.752414 149.417522 
L 632.053466 110.549507 
L 640.783976 110.549507 
L 641.085028 88.887273 
L 871.690909 88.887273 
L 871.690909 88.887273 
" style="fill:none;stroke:#8dd3c7;stroke-linecap:square;stroke-width:1.5;"/>
   </g>
   <g id="line2d_13">
    <path clip-path="url(#p3d9dd16e46)" d="M 161.509091 393.592361 
L 161.810143 338.564862 
L 164.519612 338.564862 
L 164.820664 331.977063 
L 169.035393 331.977063 
L 169.336445 322.134116 
L 172.949069 322.134116 
L 173.250121 299.696847 
L 173.852226 299.696847 
L 174.45433 199.601051 
L 174.755382 199.601051 
L 175.056434 180.883951 
L 324.077205 180.883951 
L 324.378257 172.93984 
L 603.152468 172.93984 
L 603.45352 166.352041 
L 610.377718 166.352041 
L 610.67877 119.888681 
L 610.979822 119.888681 
L 611.280874 111.324542 
L 631.752414 111.324542 
L 632.053466 110.549507 
L 640.783976 110.549507 
L 641.085028 88.887273 
L 871.690909 88.887273 
L 871.690909 88.887273 
" style="fill:none;stroke:#feffb3;stroke-linecap:square;stroke-width:1.5;"/>
   </g>
   <g id="line2d_14">
    <path clip-path="url(#p3d9dd16e46)" d="M 161.509091 420.784471 
L 163.616455 420.784471 
L 163.917507 424.733261 
L 166.024872 424.733261 
L 166.325924 428.436293 
L 168.433288 428.436293 
L 168.73434 431.908861 
L 170.841705 431.908861 
L 171.142757 435.16531 
L 173.250121 435.16531 
L 173.551173 438.219089 
L 175.658538 438.219089 
L 175.95959 441.082811 
L 178.066954 441.082811 
L 178.368006 443.768306 
L 180.475371 443.768306 
L 180.776423 446.286665 
L 182.883787 446.286665 
L 183.184839 448.648291 
L 185.292204 448.648291 
L 185.593256 450.862938 
L 187.70062 450.862938 
L 188.001673 452.939753 
L 190.109037 452.939753 
L 190.410089 454.887315 
L 192.517453 454.887315 
L 192.818506 456.713667 
L 194.92587 456.713667 
L 195.226922 458.426354 
L 197.334286 458.426354 
L 197.635339 460.032449 
L 199.742703 460.032449 
L 200.043755 461.538587 
L 202.15112 461.538587 
L 202.452172 462.950989 
L 204.559536 462.950989 
L 204.860588 464.275487 
L 206.967953 464.275487 
L 207.269005 465.517554 
L 209.376369 465.517554 
L 209.677421 466.682318 
L 211.784786 466.682318 
L 212.085838 467.774592 
L 214.193202 467.774592 
L 214.494254 468.798887 
L 216.601619 468.798887 
L 216.902671 469.759434 
L 219.010035 469.759434 
L 219.311087 470.660199 
L 221.418452 470.660199 
L 221.719504 471.504904 
L 223.826868 471.504904 
L 224.12792 472.297038 
L 226.235285 472.297038 
L 226.536337 473.039872 
L 228.643701 473.039872 
L 228.944753 473.736475 
L 231.052118 473.736475 
L 231.35317 474.389724 
L 233.460534 474.389724 
L 233.761586 475.002317 
L 235.868951 475.002317 
L 236.170003 475.576784 
L 238.277367 475.576784 
L 238.578419 476.115499 
L 240.685784 476.115499 
L 240.986836 476.620686 
L 243.0942 476.620686 
L 243.395252 477.094432 
L 245.502617 477.094432 
L 245.803669 477.538694 
L 247.911033 477.538694 
L 248.212085 477.955306 
L 250.31945 477.955306 
L 250.620502 478.34599 
L 252.727866 478.34599 
L 253.028918 478.712359 
L 255.136283 478.712359 
L 255.437335 479.055927 
L 257.544699 479.055927 
L 257.845751 479.378112 
L 259.953116 479.378112 
L 260.254168 479.680246 
L 262.361532 479.680246 
L 262.662584 479.963576 
L 264.769949 479.963576 
L 265.071001 480.229273 
L 267.178365 480.229273 
L 267.479417 480.478433 
L 269.586782 480.478433 
L 269.887834 480.712087 
L 271.995198 480.712087 
L 272.29625 480.931199 
L 274.403615 480.931199 
L 274.704667 481.136674 
L 276.812031 481.136674 
L 277.113083 481.329361 
L 279.220448 481.329361 
L 279.5215 481.510056 
L 281.628864 481.510056 
L 281.929916 481.679505 
L 284.037281 481.679505 
L 284.338333 481.838409 
L 286.445697 481.838409 
L 286.746749 481.987422 
L 288.854114 481.987422 
L 289.155166 482.127162 
L 291.26253 482.127162 
L 291.563582 482.258205 
L 293.670947 482.258205 
L 293.971999 482.381092 
L 296.079363 482.381092 
L 296.681467 482.496331 
L 300.896196 482.604398 
L 301.498301 482.705739 
L 305.713029 482.800774 
L 306.315134 482.889893 
L 310.529862 482.973466 
L 311.131967 483.051838 
L 315.346695 483.125333 
L 315.9488 483.194253 
L 320.163528 483.258884 
L 320.765633 483.319492 
L 327.388778 483.429628 
L 328.291934 483.47961 
L 334.614028 483.570435 
L 335.517184 483.611654 
L 344.247694 483.720547 
L 345.451902 483.752423 
L 356.289776 483.861286 
L 357.795036 483.884403 
L 370.740275 483.980118 
L 373.449744 484.010582 
L 399.641273 484.115893 
L 405.06021 484.136377 
L 871.690909 484.232727 
L 871.690909 484.232727 
" style="fill:none;stroke:#bfbbd9;stroke-linecap:square;stroke-width:1.5;"/>
   </g>
   <g id="patch_3">
    <path d="M 126 504 
L 126 69.12 
" style="fill:none;stroke:#ffffff;stroke-linecap:square;stroke-linejoin:miter;stroke-width:0.8;"/>
   </g>
   <g id="patch_4">
    <path d="M 907.2 504 
L 907.2 69.12 
" style="fill:none;stroke:#ffffff;stroke-linecap:square;stroke-linejoin:miter;stroke-width:0.8;"/>
   </g>
   <g id="patch_5">
    <path d="M 126 504 
L 907.2 504 
" style="fill:none;stroke:#ffffff;stroke-linecap:square;stroke-linejoin:miter;stroke-width:0.8;"/>
   </g>
   <g id="patch_6">
    <path d="M 126 69.12 
L 907.2 69.12 
" style="fill:none;stroke:#ffffff;stroke-linecap:square;stroke-linejoin:miter;stroke-width:0.8;"/>
   </g>
   <g id="text_13">
    <!-- instance 1 with error 0.12301212069113732 -->
    <g style="fill:#ffffff;" transform="translate(381.864375 63.12)scale(0.12 -0.12)">
     <defs>
      <path d="M 2834 3397 
L 2834 2853 
Q 2591 2978 2328 3040 
Q 2066 3103 1784 3103 
Q 1356 3103 1142 2972 
Q 928 2841 928 2578 
Q 928 2378 1081 2264 
Q 1234 2150 1697 2047 
L 1894 2003 
Q 2506 1872 2764 1633 
Q 3022 1394 3022 966 
Q 3022 478 2636 193 
Q 2250 -91 1575 -91 
Q 1294 -91 989 -36 
Q 684 19 347 128 
L 347 722 
Q 666 556 975 473 
Q 1284 391 1588 391 
Q 1994 391 2212 530 
Q 2431 669 2431 922 
Q 2431 1156 2273 1281 
Q 2116 1406 1581 1522 
L 1381 1569 
Q 847 1681 609 1914 
Q 372 2147 372 2553 
Q 372 3047 722 3315 
Q 1072 3584 1716 3584 
Q 2034 3584 2315 3537 
Q 2597 3491 2834 3397 
z
" id="DejaVuSans-73" transform="scale(0.015625)"/>
      <path d="M 3122 3366 
L 3122 2828 
Q 2878 2963 2633 3030 
Q 2388 3097 2138 3097 
Q 1578 3097 1268 2742 
Q 959 2388 959 1747 
Q 959 1106 1268 751 
Q 1578 397 2138 397 
Q 2388 397 2633 464 
Q 2878 531 3122 666 
L 3122 134 
Q 2881 22 2623 -34 
Q 2366 -91 2075 -91 
Q 1284 -91 818 406 
Q 353 903 353 1747 
Q 353 2603 823 3093 
Q 1294 3584 2113 3584 
Q 2378 3584 2631 3529 
Q 2884 3475 3122 3366 
z
" id="DejaVuSans-63" transform="scale(0.015625)"/>
      <path id="DejaVuSans-20" transform="scale(0.015625)"/>
      <path d="M 269 3500 
L 844 3500 
L 1563 769 
L 2278 3500 
L 2956 3500 
L 3675 769 
L 4391 3500 
L 4966 3500 
L 4050 0 
L 3372 0 
L 2619 2869 
L 1863 0 
L 1184 0 
L 269 3500 
z
" id="DejaVuSans-77" transform="scale(0.015625)"/>
      <path d="M 3513 2113 
L 3513 0 
L 2938 0 
L 2938 2094 
Q 2938 2591 2744 2837 
Q 2550 3084 2163 3084 
Q 1697 3084 1428 2787 
Q 1159 2491 1159 1978 
L 1159 0 
L 581 0 
L 581 4863 
L 1159 4863 
L 1159 2956 
Q 1366 3272 1645 3428 
Q 1925 3584 2291 3584 
Q 2894 3584 3203 3211 
Q 3513 2838 3513 2113 
z
" id="DejaVuSans-68" transform="scale(0.015625)"/>
      <path d="M 684 794 
L 1344 794 
L 1344 0 
L 684 0 
L 684 794 
z
" id="DejaVuSans-2e" transform="scale(0.015625)"/>
      <path d="M 2597 2516 
Q 3050 2419 3304 2112 
Q 3559 1806 3559 1356 
Q 3559 666 3084 287 
Q 2609 -91 1734 -91 
Q 1441 -91 1130 -33 
Q 819 25 488 141 
L 488 750 
Q 750 597 1062 519 
Q 1375 441 1716 441 
Q 2309 441 2620 675 
Q 2931 909 2931 1356 
Q 2931 1769 2642 2001 
Q 2353 2234 1838 2234 
L 1294 2234 
L 1294 2753 
L 1863 2753 
Q 2328 2753 2575 2939 
Q 2822 3125 2822 3475 
Q 2822 3834 2567 4026 
Q 2313 4219 1838 4219 
Q 1578 4219 1281 4162 
Q 984 4106 628 3988 
L 628 4550 
Q 988 4650 1302 4700 
Q 1616 4750 1894 4750 
Q 2613 4750 3031 4423 
Q 3450 4097 3450 3541 
Q 3450 3153 3228 2886 
Q 3006 2619 2597 2516 
z
" id="DejaVuSans-33" transform="scale(0.015625)"/>
      <path d="M 703 97 
L 703 672 
Q 941 559 1184 500 
Q 1428 441 1663 441 
Q 2288 441 2617 861 
Q 2947 1281 2994 2138 
Q 2813 1869 2534 1725 
Q 2256 1581 1919 1581 
Q 1219 1581 811 2004 
Q 403 2428 403 3163 
Q 403 3881 828 4315 
Q 1253 4750 1959 4750 
Q 2769 4750 3195 4129 
Q 3622 3509 3622 2328 
Q 3622 1225 3098 567 
Q 2575 -91 1691 -91 
Q 1453 -91 1209 -44 
Q 966 3 703 97 
z
M 1959 2075 
Q 2384 2075 2632 2365 
Q 2881 2656 2881 3163 
Q 2881 3666 2632 3958 
Q 2384 4250 1959 4250 
Q 1534 4250 1286 3958 
Q 1038 3666 1038 3163 
Q 1038 2656 1286 2365 
Q 1534 2075 1959 2075 
z
" id="DejaVuSans-39" transform="scale(0.015625)"/>
      <path d="M 525 4666 
L 3525 4666 
L 3525 4397 
L 1831 0 
L 1172 0 
L 2766 4134 
L 525 4134 
L 525 4666 
z
" id="DejaVuSans-37" transform="scale(0.015625)"/>
     </defs>
     <use xlink:href="#DejaVuSans-69"/>
     <use x="27.783203" xlink:href="#DejaVuSans-6e"/>
     <use x="91.162109" xlink:href="#DejaVuSans-73"/>
     <use x="143.261719" xlink:href="#DejaVuSans-74"/>
     <use x="182.470703" xlink:href="#DejaVuSans-61"/>
     <use x="243.75" xlink:href="#DejaVuSans-6e"/>
     <use x="307.128906" xlink:href="#DejaVuSans-63"/>
     <use x="362.109375" xlink:href="#DejaVuSans-65"/>
     <use x="423.632812" xlink:href="#DejaVuSans-20"/>
     <use x="455.419922" xlink:href="#DejaVuSans-31"/>
     <use x="519.042969" xlink:href="#DejaVuSans-20"/>
     <use x="550.830078" xlink:href="#DejaVuSans-77"/>
     <use x="632.617188" xlink:href="#DejaVuSans-69"/>
     <use x="660.400391" xlink:href="#DejaVuSans-74"/>
     <use x="699.609375" xlink:href="#DejaVuSans-68"/>
     <use x="762.988281" xlink:href="#DejaVuSans-20"/>
     <use x="794.775391" xlink:href="#DejaVuSans-65"/>
     <use x="856.298828" xlink:href="#DejaVuSans-72"/>
     <use x="895.662109" xlink:href="#DejaVuSans-72"/>
     <use x="934.525391" xlink:href="#DejaVuSans-6f"/>
     <use x="995.707031" xlink:href="#DejaVuSans-72"/>
     <use x="1036.820312" xlink:href="#DejaVuSans-20"/>
     <use x="1068.607422" xlink:href="#DejaVuSans-30"/>
     <use x="1132.230469" xlink:href="#DejaVuSans-2e"/>
     <use x="1164.017578" xlink:href="#DejaVuSans-31"/>
     <use x="1227.640625" xlink:href="#DejaVuSans-32"/>
     <use x="1291.263672" xlink:href="#DejaVuSans-33"/>
     <use x="1354.886719" xlink:href="#DejaVuSans-30"/>
     <use x="1418.509766" xlink:href="#DejaVuSans-31"/>
     <use x="1482.132812" xlink:href="#DejaVuSans-32"/>
     <use x="1545.755859" xlink:href="#DejaVuSans-31"/>
     <use x="1609.378906" xlink:href="#DejaVuSans-32"/>
     <use x="1673.001953" xlink:href="#DejaVuSans-30"/>
     <use x="1736.625" xlink:href="#DejaVuSans-36"/>
     <use x="1800.248047" xlink:href="#DejaVuSans-39"/>
     <use x="1863.871094" xlink:href="#DejaVuSans-31"/>
     <use x="1927.494141" xlink:href="#DejaVuSans-31"/>
     <use x="1991.117188" xlink:href="#DejaVuSans-33"/>
     <use x="2054.740234" xlink:href="#DejaVuSans-37"/>
     <use x="2118.363281" xlink:href="#DejaVuSans-33"/>
     <use x="2181.986328" xlink:href="#DejaVuSans-32"/>
    </g>
   </g>
   <g id="legend_1">
    <g id="patch_7">
     <path d="M 805.348438 499 
L 900.2 499 
Q 902.2 499 902.2 497 
L 902.2 453.965625 
Q 902.2 451.965625 900.2 451.965625 
L 805.348438 451.965625 
Q 803.348438 451.965625 803.348438 453.965625 
L 803.348438 497 
Q 803.348438 499 805.348438 499 
z
" style="opacity:0.8;stroke:#cccccc;stroke-linejoin:miter;"/>
    </g>
    <g id="line2d_15">
     <path d="M 807.348438 460.064062 
L 827.348438 460.064062 
" style="fill:none;stroke:#8dd3c7;stroke-linecap:square;stroke-width:1.5;"/>
    </g>
    <g id="line2d_16"/>
    <g id="text_14">
     <!-- cost -->
     <g style="fill:#ffffff;" transform="translate(835.348438 463.564062)scale(0.1 -0.1)">
      <use xlink:href="#DejaVuSans-63"/>
      <use x="54.980469" xlink:href="#DejaVuSans-6f"/>
      <use x="116.162109" xlink:href="#DejaVuSans-73"/>
      <use x="168.261719" xlink:href="#DejaVuSans-74"/>
     </g>
    </g>
    <g id="line2d_17">
     <path d="M 807.348438 474.742188 
L 827.348438 474.742188 
" style="fill:none;stroke:#feffb3;stroke-linecap:square;stroke-width:1.5;"/>
    </g>
    <g id="line2d_18"/>
    <g id="text_15">
     <!-- best cost -->
     <g style="fill:#ffffff;" transform="translate(835.348438 478.242188)scale(0.1 -0.1)">
      <defs>
       <path d="M 3116 1747 
Q 3116 2381 2855 2742 
Q 2594 3103 2138 3103 
Q 1681 3103 1420 2742 
Q 1159 2381 1159 1747 
Q 1159 1113 1420 752 
Q 1681 391 2138 391 
Q 2594 391 2855 752 
Q 3116 1113 3116 1747 
z
M 1159 2969 
Q 1341 3281 1617 3432 
Q 1894 3584 2278 3584 
Q 2916 3584 3314 3078 
Q 3713 2572 3713 1747 
Q 3713 922 3314 415 
Q 2916 -91 2278 -91 
Q 1894 -91 1617 61 
Q 1341 213 1159 525 
L 1159 0 
L 581 0 
L 581 4863 
L 1159 4863 
L 1159 2969 
z
" id="DejaVuSans-62" transform="scale(0.015625)"/>
      </defs>
      <use xlink:href="#DejaVuSans-62"/>
      <use x="63.476562" xlink:href="#DejaVuSans-65"/>
      <use x="125" xlink:href="#DejaVuSans-73"/>
      <use x="177.099609" xlink:href="#DejaVuSans-74"/>
      <use x="216.308594" xlink:href="#DejaVuSans-20"/>
      <use x="248.095703" xlink:href="#DejaVuSans-63"/>
      <use x="303.076172" xlink:href="#DejaVuSans-6f"/>
      <use x="364.257812" xlink:href="#DejaVuSans-73"/>
      <use x="416.357422" xlink:href="#DejaVuSans-74"/>
     </g>
    </g>
    <g id="line2d_19">
     <path d="M 807.348438 489.420313 
L 827.348438 489.420313 
" style="fill:none;stroke:#bfbbd9;stroke-linecap:square;stroke-width:1.5;"/>
    </g>
    <g id="line2d_20"/>
    <g id="text_16">
     <!-- temperature -->
     <g style="fill:#ffffff;" transform="translate(835.348438 492.920313)scale(0.1 -0.1)">
      <defs>
       <path d="M 3328 2828 
Q 3544 3216 3844 3400 
Q 4144 3584 4550 3584 
Q 5097 3584 5394 3201 
Q 5691 2819 5691 2113 
L 5691 0 
L 5113 0 
L 5113 2094 
Q 5113 2597 4934 2840 
Q 4756 3084 4391 3084 
Q 3944 3084 3684 2787 
Q 3425 2491 3425 1978 
L 3425 0 
L 2847 0 
L 2847 2094 
Q 2847 2600 2669 2842 
Q 2491 3084 2119 3084 
Q 1678 3084 1418 2786 
Q 1159 2488 1159 1978 
L 1159 0 
L 581 0 
L 581 3500 
L 1159 3500 
L 1159 2956 
Q 1356 3278 1631 3431 
Q 1906 3584 2284 3584 
Q 2666 3584 2933 3390 
Q 3200 3197 3328 2828 
z
" id="DejaVuSans-6d" transform="scale(0.015625)"/>
       <path d="M 1159 525 
L 1159 -1331 
L 581 -1331 
L 581 3500 
L 1159 3500 
L 1159 2969 
Q 1341 3281 1617 3432 
Q 1894 3584 2278 3584 
Q 2916 3584 3314 3078 
Q 3713 2572 3713 1747 
Q 3713 922 3314 415 
Q 2916 -91 2278 -91 
Q 1894 -91 1617 61 
Q 1341 213 1159 525 
z
M 3116 1747 
Q 3116 2381 2855 2742 
Q 2594 3103 2138 3103 
Q 1681 3103 1420 2742 
Q 1159 2381 1159 1747 
Q 1159 1113 1420 752 
Q 1681 391 2138 391 
Q 2594 391 2855 752 
Q 3116 1113 3116 1747 
z
" id="DejaVuSans-70" transform="scale(0.015625)"/>
       <path d="M 544 1381 
L 544 3500 
L 1119 3500 
L 1119 1403 
Q 1119 906 1312 657 
Q 1506 409 1894 409 
Q 2359 409 2629 706 
Q 2900 1003 2900 1516 
L 2900 3500 
L 3475 3500 
L 3475 0 
L 2900 0 
L 2900 538 
Q 2691 219 2414 64 
Q 2138 -91 1772 -91 
Q 1169 -91 856 284 
Q 544 659 544 1381 
z
M 1991 3584 
L 1991 3584 
z
" id="DejaVuSans-75" transform="scale(0.015625)"/>
      </defs>
      <use xlink:href="#DejaVuSans-74"/>
      <use x="39.208984" xlink:href="#DejaVuSans-65"/>
      <use x="100.732422" xlink:href="#DejaVuSans-6d"/>
      <use x="198.144531" xlink:href="#DejaVuSans-70"/>
      <use x="261.621094" xlink:href="#DejaVuSans-65"/>
      <use x="323.144531" xlink:href="#DejaVuSans-72"/>
      <use x="364.257812" xlink:href="#DejaVuSans-61"/>
      <use x="425.537109" xlink:href="#DejaVuSans-74"/>
      <use x="464.746094" xlink:href="#DejaVuSans-75"/>
      <use x="528.125" xlink:href="#DejaVuSans-72"/>
      <use x="566.988281" xlink:href="#DejaVuSans-65"/>
     </g>
    </g>
   </g>
  </g>
 </g>
 <defs>
  <clipPath id="p3d9dd16e46">
   <rect height="434.88" width="781.2" x="126" y="69.12"/>
  </clipPath>
 </defs>
</svg>
