<?xml version="1.0" encoding="utf-8" standalone="no"?>
<!DOCTYPE svg PUBLIC "-//W3C//DTD SVG 1.1//EN"
  "http://www.w3.org/Graphics/SVG/1.1/DTD/svg11.dtd">
<svg height="576pt" version="1.1" viewBox="0 0 1008 576" width="1008pt" xmlns="http://www.w3.org/2000/svg" xmlns:xlink="http://www.w3.org/1999/xlink">
 <metadata>
  <rdf:RDF xmlns:cc="http://creativecommons.org/ns#" xmlns:dc="http://purl.org/dc/elements/1.1/" xmlns:rdf="http://www.w3.org/1999/02/22-rdf-syntax-ns#">
   <cc:Work>
    <dc:type rdf:resource="http://purl.org/dc/dcmitype/StillImage"/>
    <dc:date>2022-01-13T19:11:02.784523</dc:date>
    <dc:format>image/svg+xml</dc:format>
    <dc:creator>
     <cc:Agent>
      <dc:title>Matplotlib v3.4.3, https://matplotlib.org/</dc:title>
     </cc:Agent>
    </dc:creator>
   </cc:Work>
  </rdf:RDF>
 </metadata>
 <defs>
  <style type="text/css">*{stroke-linecap:butt;stroke-linejoin:round;}</style>
 </defs>
 <g id="figure_1">
  <g id="patch_1">
   <path d="M 0 576 
L 1008 576 
L 1008 0 
L 0 0 
z
"/>
  </g>
  <g id="axes_1">
   <g id="patch_2">
    <path d="M 126 504 
L 907.2 504 
L 907.2 69.12 
L 126 69.12 
z
"/>
   </g>
   <g id="matplotlib.axis_1">
    <g id="xtick_1">
     <g id="line2d_1">
      <defs>
       <path d="M 0 0 
L 0 3.5 
" id="mcd81553389" style="stroke:#ffffff;stroke-width:0.8;"/>
      </defs>
      <g>
       <use style="fill:#ffffff;stroke:#ffffff;stroke-width:0.8;" x="161.509091" xlink:href="#mcd81553389" y="504"/>
      </g>
     </g>
     <g id="text_1">
      <!-- 0 -->
      <g style="fill:#ffffff;" transform="translate(158.327841 518.598438)scale(0.1 -0.1)">
       <defs>
        <path d="M 2034 4250 
Q 1547 4250 1301 3770 
Q 1056 3291 1056 2328 
Q 1056 1369 1301 889 
Q 1547 409 2034 409 
Q 2525 409 2770 889 
Q 3016 1369 3016 2328 
Q 3016 3291 2770 3770 
Q 2525 4250 2034 4250 
z
M 2034 4750 
Q 2819 4750 3233 4129 
Q 3647 3509 3647 2328 
Q 3647 1150 3233 529 
Q 2819 -91 2034 -91 
Q 1250 -91 836 529 
Q 422 1150 422 2328 
Q 422 3509 836 4129 
Q 1250 4750 2034 4750 
z
" id="DejaVuSans-30" transform="scale(0.015625)"/>
       </defs>
       <use xlink:href="#DejaVuSans-30"/>
      </g>
     </g>
    </g>
    <g id="xtick_2">
     <g id="line2d_2">
      <g>
       <use style="fill:#ffffff;stroke:#ffffff;stroke-width:0.8;" x="272.163784" xlink:href="#mcd81553389" y="504"/>
      </g>
     </g>
     <g id="text_2">
      <!-- 500 -->
      <g style="fill:#ffffff;" transform="translate(262.620034 518.598438)scale(0.1 -0.1)">
       <defs>
        <path d="M 691 4666 
L 3169 4666 
L 3169 4134 
L 1269 4134 
L 1269 2991 
Q 1406 3038 1543 3061 
Q 1681 3084 1819 3084 
Q 2600 3084 3056 2656 
Q 3513 2228 3513 1497 
Q 3513 744 3044 326 
Q 2575 -91 1722 -91 
Q 1428 -91 1123 -41 
Q 819 9 494 109 
L 494 744 
Q 775 591 1075 516 
Q 1375 441 1709 441 
Q 2250 441 2565 725 
Q 2881 1009 2881 1497 
Q 2881 1984 2565 2268 
Q 2250 2553 1709 2553 
Q 1456 2553 1204 2497 
Q 953 2441 691 2322 
L 691 4666 
z
" id="DejaVuSans-35" transform="scale(0.015625)"/>
       </defs>
       <use xlink:href="#DejaVuSans-35"/>
       <use x="63.623047" xlink:href="#DejaVuSans-30"/>
       <use x="127.246094" xlink:href="#DejaVuSans-30"/>
      </g>
     </g>
    </g>
    <g id="xtick_3">
     <g id="line2d_3">
      <g>
       <use style="fill:#ffffff;stroke:#ffffff;stroke-width:0.8;" x="382.818476" xlink:href="#mcd81553389" y="504"/>
      </g>
     </g>
     <g id="text_3">
      <!-- 1000 -->
      <g style="fill:#ffffff;" transform="translate(370.093476 518.598438)scale(0.1 -0.1)">
       <defs>
        <path d="M 794 531 
L 1825 531 
L 1825 4091 
L 703 3866 
L 703 4441 
L 1819 4666 
L 2450 4666 
L 2450 531 
L 3481 531 
L 3481 0 
L 794 0 
L 794 531 
z
" id="DejaVuSans-31" transform="scale(0.015625)"/>
       </defs>
       <use xlink:href="#DejaVuSans-31"/>
       <use x="63.623047" xlink:href="#DejaVuSans-30"/>
       <use x="127.246094" xlink:href="#DejaVuSans-30"/>
       <use x="190.869141" xlink:href="#DejaVuSans-30"/>
      </g>
     </g>
    </g>
    <g id="xtick_4">
     <g id="line2d_4">
      <g>
       <use style="fill:#ffffff;stroke:#ffffff;stroke-width:0.8;" x="493.473169" xlink:href="#mcd81553389" y="504"/>
      </g>
     </g>
     <g id="text_4">
      <!-- 1500 -->
      <g style="fill:#ffffff;" transform="translate(480.748169 518.598438)scale(0.1 -0.1)">
       <use xlink:href="#DejaVuSans-31"/>
       <use x="63.623047" xlink:href="#DejaVuSans-35"/>
       <use x="127.246094" xlink:href="#DejaVuSans-30"/>
       <use x="190.869141" xlink:href="#DejaVuSans-30"/>
      </g>
     </g>
    </g>
    <g id="xtick_5">
     <g id="line2d_5">
      <g>
       <use style="fill:#ffffff;stroke:#ffffff;stroke-width:0.8;" x="604.127862" xlink:href="#mcd81553389" y="504"/>
      </g>
     </g>
     <g id="text_5">
      <!-- 2000 -->
      <g style="fill:#ffffff;" transform="translate(591.402862 518.598438)scale(0.1 -0.1)">
       <defs>
        <path d="M 1228 531 
L 3431 531 
L 3431 0 
L 469 0 
L 469 531 
Q 828 903 1448 1529 
Q 2069 2156 2228 2338 
Q 2531 2678 2651 2914 
Q 2772 3150 2772 3378 
Q 2772 3750 2511 3984 
Q 2250 4219 1831 4219 
Q 1534 4219 1204 4116 
Q 875 4013 500 3803 
L 500 4441 
Q 881 4594 1212 4672 
Q 1544 4750 1819 4750 
Q 2544 4750 2975 4387 
Q 3406 4025 3406 3419 
Q 3406 3131 3298 2873 
Q 3191 2616 2906 2266 
Q 2828 2175 2409 1742 
Q 1991 1309 1228 531 
z
" id="DejaVuSans-32" transform="scale(0.015625)"/>
       </defs>
       <use xlink:href="#DejaVuSans-32"/>
       <use x="63.623047" xlink:href="#DejaVuSans-30"/>
       <use x="127.246094" xlink:href="#DejaVuSans-30"/>
       <use x="190.869141" xlink:href="#DejaVuSans-30"/>
      </g>
     </g>
    </g>
    <g id="xtick_6">
     <g id="line2d_6">
      <g>
       <use style="fill:#ffffff;stroke:#ffffff;stroke-width:0.8;" x="714.782555" xlink:href="#mcd81553389" y="504"/>
      </g>
     </g>
     <g id="text_6">
      <!-- 2500 -->
      <g style="fill:#ffffff;" transform="translate(702.057555 518.598438)scale(0.1 -0.1)">
       <use xlink:href="#DejaVuSans-32"/>
       <use x="63.623047" xlink:href="#DejaVuSans-35"/>
       <use x="127.246094" xlink:href="#DejaVuSans-30"/>
       <use x="190.869141" xlink:href="#DejaVuSans-30"/>
      </g>
     </g>
    </g>
    <g id="xtick_7">
     <g id="line2d_7">
      <g>
       <use style="fill:#ffffff;stroke:#ffffff;stroke-width:0.8;" x="825.437248" xlink:href="#mcd81553389" y="504"/>
      </g>
     </g>
     <g id="text_7">
      <!-- 3000 -->
      <g style="fill:#ffffff;" transform="translate(812.712248 518.598438)scale(0.1 -0.1)">
       <defs>
        <path d="M 2597 2516 
Q 3050 2419 3304 2112 
Q 3559 1806 3559 1356 
Q 3559 666 3084 287 
Q 2609 -91 1734 -91 
Q 1441 -91 1130 -33 
Q 819 25 488 141 
L 488 750 
Q 750 597 1062 519 
Q 1375 441 1716 441 
Q 2309 441 2620 675 
Q 2931 909 2931 1356 
Q 2931 1769 2642 2001 
Q 2353 2234 1838 2234 
L 1294 2234 
L 1294 2753 
L 1863 2753 
Q 2328 2753 2575 2939 
Q 2822 3125 2822 3475 
Q 2822 3834 2567 4026 
Q 2313 4219 1838 4219 
Q 1578 4219 1281 4162 
Q 984 4106 628 3988 
L 628 4550 
Q 988 4650 1302 4700 
Q 1616 4750 1894 4750 
Q 2613 4750 3031 4423 
Q 3450 4097 3450 3541 
Q 3450 3153 3228 2886 
Q 3006 2619 2597 2516 
z
" id="DejaVuSans-33" transform="scale(0.015625)"/>
       </defs>
       <use xlink:href="#DejaVuSans-33"/>
       <use x="63.623047" xlink:href="#DejaVuSans-30"/>
       <use x="127.246094" xlink:href="#DejaVuSans-30"/>
       <use x="190.869141" xlink:href="#DejaVuSans-30"/>
      </g>
     </g>
    </g>
    <g id="text_8">
     <!-- iteration -->
     <g style="fill:#ffffff;" transform="translate(495.477344 532.276562)scale(0.1 -0.1)">
      <defs>
       <path d="M 603 3500 
L 1178 3500 
L 1178 0 
L 603 0 
L 603 3500 
z
M 603 4863 
L 1178 4863 
L 1178 4134 
L 603 4134 
L 603 4863 
z
" id="DejaVuSans-69" transform="scale(0.015625)"/>
       <path d="M 1172 4494 
L 1172 3500 
L 2356 3500 
L 2356 3053 
L 1172 3053 
L 1172 1153 
Q 1172 725 1289 603 
Q 1406 481 1766 481 
L 2356 481 
L 2356 0 
L 1766 0 
Q 1100 0 847 248 
Q 594 497 594 1153 
L 594 3053 
L 172 3053 
L 172 3500 
L 594 3500 
L 594 4494 
L 1172 4494 
z
" id="DejaVuSans-74" transform="scale(0.015625)"/>
       <path d="M 3597 1894 
L 3597 1613 
L 953 1613 
Q 991 1019 1311 708 
Q 1631 397 2203 397 
Q 2534 397 2845 478 
Q 3156 559 3463 722 
L 3463 178 
Q 3153 47 2828 -22 
Q 2503 -91 2169 -91 
Q 1331 -91 842 396 
Q 353 884 353 1716 
Q 353 2575 817 3079 
Q 1281 3584 2069 3584 
Q 2775 3584 3186 3129 
Q 3597 2675 3597 1894 
z
M 3022 2063 
Q 3016 2534 2758 2815 
Q 2500 3097 2075 3097 
Q 1594 3097 1305 2825 
Q 1016 2553 972 2059 
L 3022 2063 
z
" id="DejaVuSans-65" transform="scale(0.015625)"/>
       <path d="M 2631 2963 
Q 2534 3019 2420 3045 
Q 2306 3072 2169 3072 
Q 1681 3072 1420 2755 
Q 1159 2438 1159 1844 
L 1159 0 
L 581 0 
L 581 3500 
L 1159 3500 
L 1159 2956 
Q 1341 3275 1631 3429 
Q 1922 3584 2338 3584 
Q 2397 3584 2469 3576 
Q 2541 3569 2628 3553 
L 2631 2963 
z
" id="DejaVuSans-72" transform="scale(0.015625)"/>
       <path d="M 2194 1759 
Q 1497 1759 1228 1600 
Q 959 1441 959 1056 
Q 959 750 1161 570 
Q 1363 391 1709 391 
Q 2188 391 2477 730 
Q 2766 1069 2766 1631 
L 2766 1759 
L 2194 1759 
z
M 3341 1997 
L 3341 0 
L 2766 0 
L 2766 531 
Q 2569 213 2275 61 
Q 1981 -91 1556 -91 
Q 1019 -91 701 211 
Q 384 513 384 1019 
Q 384 1609 779 1909 
Q 1175 2209 1959 2209 
L 2766 2209 
L 2766 2266 
Q 2766 2663 2505 2880 
Q 2244 3097 1772 3097 
Q 1472 3097 1187 3025 
Q 903 2953 641 2809 
L 641 3341 
Q 956 3463 1253 3523 
Q 1550 3584 1831 3584 
Q 2591 3584 2966 3190 
Q 3341 2797 3341 1997 
z
" id="DejaVuSans-61" transform="scale(0.015625)"/>
       <path d="M 1959 3097 
Q 1497 3097 1228 2736 
Q 959 2375 959 1747 
Q 959 1119 1226 758 
Q 1494 397 1959 397 
Q 2419 397 2687 759 
Q 2956 1122 2956 1747 
Q 2956 2369 2687 2733 
Q 2419 3097 1959 3097 
z
M 1959 3584 
Q 2709 3584 3137 3096 
Q 3566 2609 3566 1747 
Q 3566 888 3137 398 
Q 2709 -91 1959 -91 
Q 1206 -91 779 398 
Q 353 888 353 1747 
Q 353 2609 779 3096 
Q 1206 3584 1959 3584 
z
" id="DejaVuSans-6f" transform="scale(0.015625)"/>
       <path d="M 3513 2113 
L 3513 0 
L 2938 0 
L 2938 2094 
Q 2938 2591 2744 2837 
Q 2550 3084 2163 3084 
Q 1697 3084 1428 2787 
Q 1159 2491 1159 1978 
L 1159 0 
L 581 0 
L 581 3500 
L 1159 3500 
L 1159 2956 
Q 1366 3272 1645 3428 
Q 1925 3584 2291 3584 
Q 2894 3584 3203 3211 
Q 3513 2838 3513 2113 
z
" id="DejaVuSans-6e" transform="scale(0.015625)"/>
      </defs>
      <use xlink:href="#DejaVuSans-69"/>
      <use x="27.783203" xlink:href="#DejaVuSans-74"/>
      <use x="66.992188" xlink:href="#DejaVuSans-65"/>
      <use x="128.515625" xlink:href="#DejaVuSans-72"/>
      <use x="169.628906" xlink:href="#DejaVuSans-61"/>
      <use x="230.908203" xlink:href="#DejaVuSans-74"/>
      <use x="270.117188" xlink:href="#DejaVuSans-69"/>
      <use x="297.900391" xlink:href="#DejaVuSans-6f"/>
      <use x="359.082031" xlink:href="#DejaVuSans-6e"/>
     </g>
    </g>
   </g>
   <g id="matplotlib.axis_2">
    <g id="ytick_1">
     <g id="line2d_8">
      <defs>
       <path d="M 0 0 
L -3.5 0 
" id="mcb9b5507d9" style="stroke:#ffffff;stroke-width:0.8;"/>
      </defs>
      <g>
       <use style="fill:#ffffff;stroke:#ffffff;stroke-width:0.8;" x="126" xlink:href="#mcb9b5507d9" y="484.232727"/>
      </g>
     </g>
     <g id="text_9">
      <!-- 0 -->
      <g style="fill:#ffffff;" transform="translate(112.6375 488.031946)scale(0.1 -0.1)">
       <use xlink:href="#DejaVuSans-30"/>
      </g>
     </g>
    </g>
    <g id="ytick_2">
     <g id="line2d_9">
      <g>
       <use style="fill:#ffffff;stroke:#ffffff;stroke-width:0.8;" x="126" xlink:href="#mcb9b5507d9" y="391.576532"/>
      </g>
     </g>
     <g id="text_10">
      <!-- 10000 -->
      <g style="fill:#ffffff;" transform="translate(87.1875 395.375751)scale(0.1 -0.1)">
       <use xlink:href="#DejaVuSans-31"/>
       <use x="63.623047" xlink:href="#DejaVuSans-30"/>
       <use x="127.246094" xlink:href="#DejaVuSans-30"/>
       <use x="190.869141" xlink:href="#DejaVuSans-30"/>
       <use x="254.492188" xlink:href="#DejaVuSans-30"/>
      </g>
     </g>
    </g>
    <g id="ytick_3">
     <g id="line2d_10">
      <g>
       <use style="fill:#ffffff;stroke:#ffffff;stroke-width:0.8;" x="126" xlink:href="#mcb9b5507d9" y="298.920337"/>
      </g>
     </g>
     <g id="text_11">
      <!-- 20000 -->
      <g style="fill:#ffffff;" transform="translate(87.1875 302.719555)scale(0.1 -0.1)">
       <use xlink:href="#DejaVuSans-32"/>
       <use x="63.623047" xlink:href="#DejaVuSans-30"/>
       <use x="127.246094" xlink:href="#DejaVuSans-30"/>
       <use x="190.869141" xlink:href="#DejaVuSans-30"/>
       <use x="254.492188" xlink:href="#DejaVuSans-30"/>
      </g>
     </g>
    </g>
    <g id="ytick_4">
     <g id="line2d_11">
      <g>
       <use style="fill:#ffffff;stroke:#ffffff;stroke-width:0.8;" x="126" xlink:href="#mcb9b5507d9" y="206.264141"/>
      </g>
     </g>
     <g id="text_12">
      <!-- 30000 -->
      <g style="fill:#ffffff;" transform="translate(87.1875 210.06336)scale(0.1 -0.1)">
       <use xlink:href="#DejaVuSans-33"/>
       <use x="63.623047" xlink:href="#DejaVuSans-30"/>
       <use x="127.246094" xlink:href="#DejaVuSans-30"/>
       <use x="190.869141" xlink:href="#DejaVuSans-30"/>
       <use x="254.492188" xlink:href="#DejaVuSans-30"/>
      </g>
     </g>
    </g>
    <g id="ytick_5">
     <g id="line2d_12">
      <g>
       <use style="fill:#ffffff;stroke:#ffffff;stroke-width:0.8;" x="126" xlink:href="#mcb9b5507d9" y="113.607946"/>
      </g>
     </g>
     <g id="text_13">
      <!-- 40000 -->
      <g style="fill:#ffffff;" transform="translate(87.1875 117.407164)scale(0.1 -0.1)">
       <defs>
        <path d="M 2419 4116 
L 825 1625 
L 2419 1625 
L 2419 4116 
z
M 2253 4666 
L 3047 4666 
L 3047 1625 
L 3713 1625 
L 3713 1100 
L 3047 1100 
L 3047 0 
L 2419 0 
L 2419 1100 
L 313 1100 
L 313 1709 
L 2253 4666 
z
" id="DejaVuSans-34" transform="scale(0.015625)"/>
       </defs>
       <use xlink:href="#DejaVuSans-34"/>
       <use x="63.623047" xlink:href="#DejaVuSans-30"/>
       <use x="127.246094" xlink:href="#DejaVuSans-30"/>
       <use x="190.869141" xlink:href="#DejaVuSans-30"/>
       <use x="254.492188" xlink:href="#DejaVuSans-30"/>
      </g>
     </g>
    </g>
   </g>
   <g id="line2d_13">
    <path clip-path="url(#p570307750d)" d="M 161.509091 139.486821 
L 161.7304 148.43741 
L 162.615638 211.55481 
L 162.836947 215.344448 
L 163.058257 224.739786 
L 163.279566 244.3829 
L 163.500875 224.535943 
L 163.722185 224.934364 
L 163.943494 337.307798 
L 164.164804 317.460841 
L 164.607422 308.602909 
L 164.828732 287.773796 
L 165.050041 291.563435 
L 165.713969 270.020869 
L 166.156588 241.677339 
L 166.377897 238.017419 
L 166.599207 241.84412 
L 166.820516 231.883579 
L 167.041826 228.056878 
L 167.263135 216.576776 
L 167.705754 233.61625 
L 167.927063 212.777872 
L 168.148372 219.458383 
L 168.369682 342.783779 
L 168.812301 353.846929 
L 169.03361 336.121799 
L 169.254919 344.210685 
L 169.476229 337.289267 
L 169.697538 346.239856 
L 169.918848 363.964986 
L 170.140157 355.014397 
L 170.361466 334.176019 
L 170.582776 355.014397 
L 170.804085 341.579249 
L 171.025394 320.750136 
L 171.246704 327.430648 
L 171.468013 348.259761 
L 171.689323 352.049399 
L 172.131941 314.477312 
L 172.353251 317.73881 
L 172.79587 300.143398 
L 173.017179 296.316697 
L 173.238488 265.925465 
L 173.459798 275.886006 
L 173.902416 249.340006 
L 174.123726 239.833481 
L 174.345035 243.975213 
L 174.566345 233.338281 
L 174.787654 240.111449 
L 175.008963 256.437471 
L 175.230273 247.486882 
L 175.451582 243.345151 
L 175.672892 229.910002 
L 176.11551 245.985852 
L 176.558129 268.371589 
L 176.779439 261.691077 
L 177.000748 270.910369 
L 177.222057 271.30879 
L 177.664676 231.420298 
L 178.549914 273.013664 
L 178.771223 282.974205 
L 178.992532 269.539057 
L 179.435151 303.812584 
L 179.656461 300.022945 
L 179.87777 310.595017 
L 180.320389 296.993088 
L 180.541698 312.57786 
L 180.763007 292.730903 
L 180.984317 303.367834 
L 181.205626 323.946775 
L 181.869554 267.639605 
L 182.312173 236.553451 
L 182.976101 270.549009 
L 183.197411 263.775842 
L 183.41872 267.917574 
L 183.861339 301.987257 
L 184.082648 282.677705 
L 184.303958 289.450873 
L 184.525267 292.712371 
L 184.746576 284.623486 
L 185.189195 315.598452 
L 185.410505 312.336954 
L 185.631814 291.758013 
L 186.074433 333.175332 
L 186.517051 315.765233 
L 186.738361 325.271758 
L 187.18098 362.843846 
L 187.402289 342.005467 
L 187.623598 336.974236 
L 188.066217 348.685979 
L 188.287527 336.307111 
L 188.951455 379.948179 
L 189.172764 359.369238 
L 189.615383 374.231292 
L 189.836692 364.724767 
L 190.058002 348.046651 
L 190.50062 381.263897 
L 190.72193 361.954346 
L 191.164549 350.242603 
L 191.607167 326.531883 
L 191.828477 331.563114 
L 192.271095 305.841754 
L 192.492405 300.810523 
L 193.156333 257.160189 
L 193.598952 239.110762 
L 193.820261 219.467649 
L 194.26288 239.036637 
L 194.484189 244.067869 
L 194.926808 222.015694 
L 195.148118 231.976235 
L 195.369427 249.719897 
L 195.590736 239.759356 
L 195.812046 250.331428 
L 196.033355 246.189696 
L 196.254664 239.416528 
L 196.918593 273.643726 
L 197.139902 264.424435 
L 197.361211 244.577478 
L 197.582521 235.070952 
L 197.80383 244.46629 
L 198.467758 212.203403 
L 198.689068 228.881518 
L 199.131686 242.335198 
L 199.352996 237.303967 
L 199.574305 237.303967 
L 199.795615 241.093605 
L 200.016924 226.333473 
L 200.459543 250.600131 
L 200.902162 234.431625 
L 201.123471 243.650916 
L 201.56609 226.342739 
L 201.787399 246.92168 
L 202.008708 243.094979 
L 202.230018 230.716111 
L 202.451327 238.804997 
L 202.672637 221.079867 
L 202.893946 232.559969 
L 203.115255 235.821467 
L 203.336565 218.077806 
L 203.557874 221.737726 
L 203.779184 233.403141 
L 204.000493 218.643009 
L 204.221802 231.021877 
L 204.443112 227.232238 
L 204.664421 246.875352 
L 205.10704 254.806722 
L 205.328349 265.443653 
L 205.549659 255.937127 
L 205.770968 252.277208 
L 205.992277 257.308439 
L 206.213587 275.052101 
L 206.434896 263.386686 
L 206.656206 272.782024 
L 206.877515 256.103909 
L 207.098824 271.688681 
L 207.320134 256.103909 
L 207.541443 265.3232 
L 207.762752 244.484822 
L 207.984062 240.695183 
L 208.64799 211.443622 
L 209.090609 237.665326 
L 209.311918 234.403828 
L 209.533228 251.081943 
L 209.754537 235.497171 
L 210.197156 256.113174 
L 210.418465 235.534233 
L 210.861084 276.951553 
L 211.082393 271.920321 
L 211.303703 260.254906 
L 211.525012 239.416528 
L 211.746321 235.274796 
L 211.967631 221.839648 
L 212.18894 215.159136 
L 212.41025 195.516022 
L 212.852868 175.993362 
L 213.738106 242.807745 
L 213.959415 231.14233 
L 214.402034 249.756959 
L 214.623343 253.018457 
L 214.844653 263.590529 
L 215.065962 245.846868 
L 215.508581 261.477968 
L 215.72989 281.121081 
L 215.9512 273.032196 
L 216.172509 278.063427 
L 216.836437 321.639636 
L 217.500365 282.001315 
L 217.721675 295.436464 
L 217.942984 284.864392 
L 218.164294 268.186276 
L 218.606912 305.693504 
L 218.828222 296.742916 
L 219.049531 296.344494 
L 219.270841 311.929266 
L 219.49215 318.850684 
L 219.713459 243.391479 
L 219.934769 263.034592 
L 220.156078 259.207891 
L 220.598697 291.952591 
L 221.262625 332.69352 
L 221.483934 322.732979 
L 221.705244 333.36991 
L 221.926553 326.596742 
L 222.369172 307.009222 
L 222.590481 287.699671 
L 222.811791 283.910033 
L 223.0331 288.941264 
L 223.254409 280.852378 
L 223.475719 290.07167 
L 223.918338 256.993408 
L 224.582266 318.304013 
L 225.024885 335.714112 
L 225.467503 358.099849 
L 225.688813 353.958117 
L 225.910122 334.315003 
L 226.352741 361.379878 
L 226.57405 340.800937 
L 226.79536 360.110488 
L 227.016669 340.263531 
L 227.237978 333.583019 
L 227.459288 316.99756 
L 227.680597 336.844517 
L 227.901907 340.986249 
L 228.123216 357.571708 
L 228.344525 348.352417 
L 228.565835 367.99553 
L 228.787144 374.676042 
L 229.008453 363.195939 
L 229.229763 379.874054 
L 229.451072 366.438906 
L 229.672382 377.919009 
L 229.893691 371.145841 
L 230.115 191.096322 
L 230.33631 183.007436 
L 230.557619 202.316987 
L 230.778929 211.267576 
L 231.221547 252.935067 
L 231.442857 253.333488 
L 231.885476 220.588789 
L 232.106785 224.730521 
L 232.549404 255.520175 
L 232.770713 237.795044 
L 232.992022 248.431976 
L 233.213332 244.605275 
L 233.434641 244.206853 
L 233.655951 223.368475 
L 233.87726 216.447057 
L 234.098569 236.294014 
L 234.319879 216.447057 
L 234.541188 237.285435 
L 234.762498 226.648504 
L 234.983807 234.73739 
L 235.205116 225.230864 
L 235.426426 225.230864 
L 235.647735 237.609732 
L 235.869044 233.468 
L 236.090354 328.774163 
L 236.311663 332.035661 
L 236.532973 328.774163 
L 236.975591 297.613884 
L 237.41821 276.553131 
L 237.63952 280.342769 
L 237.860829 300.92171 
L 238.303448 261.43164 
L 238.746066 253.50027 
L 238.967376 242.928198 
L 239.188685 237.896966 
L 239.631304 258.51297 
L 239.852613 265.286138 
L 240.073923 261.626218 
L 240.295232 244.948103 
L 240.516542 241.121402 
L 240.737851 321.120761 
L 240.95916 338.864422 
L 241.18047 335.037721 
L 241.623088 296.474213 
L 242.065707 330.784802 
L 242.508326 296.363026 
L 242.729635 311.123157 
L 242.950945 301.162616 
L 243.172254 311.123157 
L 243.393564 291.813606 
L 243.614873 287.671874 
L 244.278801 322.584729 
L 244.72142 305.276552 
L 244.942729 256.965611 
L 245.164039 256.965611 
L 245.827967 204.327627 
L 246.049276 223.97074 
L 246.270586 233.366078 
L 246.491895 222.729147 
L 246.713204 232.689688 
L 246.934514 236.479326 
L 247.155823 251.239458 
L 247.377132 242.28887 
L 247.598442 241.890448 
L 247.819751 227.130316 
L 248.483679 273.597398 
L 248.704989 263.025326 
L 249.147608 288.839342 
L 249.368917 278.878801 
L 249.811536 312.207235 
L 250.032845 317.238466 
L 250.254155 301.653694 
L 250.696773 294.037355 
L 250.918083 281.658487 
L 251.139392 302.4876 
L 251.360701 302.4876 
L 252.02463 347.35173 
L 252.245939 347.750152 
L 252.688558 315.246358 
L 252.909867 325.206899 
L 253.131177 307.481769 
L 253.352486 316.432357 
L 253.795105 300.532554 
L 254.016414 283.947095 
L 254.680342 326.429961 
L 254.901652 305.85102 
L 255.122961 312.531532 
L 255.34427 332.378489 
L 255.56558 335.639987 
L 256.008199 300.208258 
L 256.229508 311.68836 
L 256.450817 305.007849 
L 256.672127 257.234314 
L 257.336055 293.527746 
L 257.557364 312.837297 
L 257.778674 298.077165 
L 257.999983 304.850333 
L 258.221292 294.278261 
L 258.663911 261.366781 
L 258.885221 257.577142 
L 259.10653 238.267591 
L 259.327839 234.44089 
L 259.549149 253.750441 
L 259.770458 247.06993 
L 259.991767 227.760378 
L 260.213077 247.06993 
L 260.434386 252.101161 
L 260.655696 232.79161 
L 260.877005 236.581248 
L 261.098314 229.65983 
L 261.319624 229.65983 
L 261.540933 209.812873 
L 261.762243 219.319399 
L 262.204861 186.009497 
L 262.426171 197.489599 
L 262.868789 205.458032 
L 263.090099 193.97793 
L 263.311408 210.563389 
L 263.532718 201.056863 
L 263.754027 201.455285 
L 263.975336 216.215416 
L 264.417955 205.615548 
L 264.639265 217.994415 
L 264.860574 205.615548 
L 265.081883 214.566136 
L 265.303193 210.424404 
L 265.524502 218.51329 
L 265.745811 206.847875 
L 265.967121 222.432647 
L 266.18843 229.205815 
L 266.40974 225.416177 
L 266.631049 244.725728 
L 266.852358 239.694496 
L 267.294977 203.530783 
L 267.737596 232.235673 
L 267.958905 231.837251 
L 268.401524 268.15848 
L 268.622834 259.207891 
L 268.844143 270.687994 
L 269.286762 233.301219 
L 269.508071 328.940944 
L 269.72938 311.197282 
L 269.95069 251.04488 
L 270.171999 271.623821 
L 270.393309 262.228483 
L 270.835927 301.718554 
L 271.057237 305.860286 
L 271.278546 294.380183 
L 271.499856 309.964955 
L 271.721165 309.964955 
L 272.385093 253.157442 
L 272.827712 216.632369 
L 273.049021 212.97245 
L 273.270331 193.662899 
L 273.712949 223.470397 
L 273.934259 230.150908 
L 274.155568 250.980021 
L 274.376878 259.930609 
L 274.598187 247.551742 
L 274.819496 251.378443 
L 275.040806 262.858545 
L 275.262115 299.383617 
L 275.483424 315.709639 
L 275.926043 308.658503 
L 276.368662 271.290259 
L 276.589971 290.951904 
L 276.811281 273.208242 
L 277.03259 282.714768 
L 277.2539 276.034256 
L 277.475209 258.309126 
L 277.696518 250.22024 
L 277.917828 229.391127 
L 278.139137 236.071639 
L 278.360446 256.65058 
L 278.581756 261.681812 
L 278.803065 255.0013 
L 279.024375 240.241168 
L 279.245684 236.099436 
L 279.466993 249.534584 
L 279.688303 239.574043 
L 279.909612 247.662929 
L 280.130922 234.227781 
L 280.352231 240.908293 
L 280.57354 253.28716 
L 280.79485 272.596711 
L 281.016159 279.518129 
L 281.237468 275.691428 
L 281.458778 286.2635 
L 281.680087 307.101879 
L 281.901397 316.497217 
L 282.122706 309.724049 
L 282.344015 294.139277 
L 282.565325 308.899409 
L 282.786634 315.672577 
L 283.007944 308.751159 
L 283.229253 329.580272 
L 283.671872 340.32839 
L 283.893181 358.072052 
L 284.11449 361.731971 
L 284.3358 341.885014 
L 285.221037 305.415536 
L 285.442347 284.836595 
L 285.663656 288.496515 
L 285.884966 278.989989 
L 286.548894 304.757677 
L 286.770203 305.156098 
L 286.991513 295.195557 
L 287.212822 295.195557 
L 287.655441 259.606313 
L 287.87675 259.606313 
L 288.098059 302.63585 
L 288.319369 322.278963 
L 288.761988 330.571693 
L 288.983297 309.74258 
L 289.204606 318.961872 
L 289.425916 322.788572 
L 289.647225 318.961872 
L 289.868535 301.236741 
L 290.089844 308.158159 
L 290.311153 318.79509 
L 290.532463 313.763859 
L 290.753772 303.803318 
L 290.975081 307.463238 
L 291.196391 287.616281 
L 291.4177 307.463238 
L 291.63901 314.236406 
L 291.860319 331.961536 
L 292.081628 311.382595 
L 292.524247 294.954651 
L 292.745557 303.043537 
L 292.966866 292.406606 
L 293.409485 308.482456 
L 293.852103 349.89051 
L 294.073413 350.288931 
L 294.294722 340.893593 
L 294.516032 350.400119 
L 294.737341 334.074097 
L 294.95865 340.995515 
L 295.17996 334.315003 
L 295.401269 338.141704 
L 296.065197 288.153687 
L 296.286507 292.295419 
L 296.507816 271.466306 
L 296.729125 282.038378 
L 296.950435 272.531852 
L 297.171744 252.684895 
L 297.393054 248.858194 
L 297.614363 229.215081 
L 297.835672 245.541102 
L 298.056982 241.881183 
L 298.499601 271.827665 
L 298.72091 271.827665 
L 298.942219 258.392517 
L 299.384838 298.864743 
L 299.606147 288.227812 
L 299.827457 305.971473 
L 300.048766 285.14236 
L 300.270076 275.923069 
L 300.712694 283.539408 
L 300.934004 292.7587 
L 301.155313 276.173241 
L 301.376623 276.173241 
L 301.597932 261.413109 
L 301.819241 261.014687 
L 302.26186 280.481754 
L 302.483169 276.655053 
L 302.704479 256.076112 
L 302.925788 270.836244 
L 303.147098 251.19313 
L 303.589716 292.61045 
L 303.811026 302.005788 
L 304.032335 302.404209 
L 304.474954 267.065137 
L 304.917573 246.189696 
L 305.138882 245.791274 
L 305.581501 228.7518 
L 305.80281 207.913421 
L 306.02412 198.69413 
L 306.466738 222.673553 
L 306.688048 229.354065 
L 307.130667 259.837953 
L 307.351976 256.576455 
L 307.573285 247.06993 
L 307.794595 267.899042 
L 308.015904 257.938501 
L 308.237214 261.199999 
L 308.458523 270.150588 
L 308.679832 292.091575 
L 308.901142 280.42616 
L 309.122451 292.091575 
L 309.34376 296.233307 
L 309.56507 292.091575 
L 309.786379 280.611472 
L 310.007689 289.562061 
L 310.228998 269.918947 
L 310.450307 273.180445 
L 310.671617 294.009558 
L 310.892926 290.349638 
L 311.556854 260.783046 
L 311.778164 244.197587 
L 311.999473 250.878099 
L 312.220782 230.039721 
L 312.442092 236.961139 
L 312.663401 233.134438 
L 312.884711 237.27617 
L 313.10602 227.315629 
L 313.327329 227.315629 
L 313.548639 237.27617 
L 313.769948 227.880831 
L 313.991258 231.540751 
L 314.433876 231.540751 
L 314.655186 246.300883 
L 314.876495 253.074051 
L 315.097804 246.393539 
L 315.540423 208.886311 
L 315.761733 229.72469 
L 315.983042 222.803272 
L 316.204351 238.388044 
L 316.425661 224.952896 
L 316.64697 228.779597 
L 316.86828 245.105618 
L 317.310898 234.672531 
L 317.753517 264.785794 
L 317.974826 248.459772 
L 318.638755 293.166387 
L 319.081373 313.133797 
L 319.302683 309.872299 
L 319.523992 329.18185 
L 319.745302 332.971488 
L 320.18792 314.245671 
L 320.630539 331.65577 
L 320.851848 312.346219 
L 321.073158 317.377451 
L 321.515777 284.067548 
L 321.958395 314.171546 
L 322.179705 293.592605 
L 322.401014 289.450873 
L 322.622324 309.29783 
L 322.843633 304.266599 
L 323.064942 320.852058 
L 323.286252 324.99379 
L 323.507561 344.636903 
L 323.728871 344.636903 
L 324.171489 319.53634 
L 324.392799 332.971488 
L 324.614108 332.573067 
L 324.835417 328.431335 
L 325.056727 328.431335 
L 325.499346 308.399065 
L 326.827202 229.418924 
L 327.048511 245.003696 
L 327.269821 224.165318 
L 327.49113 241.908979 
L 327.712439 227.148848 
L 327.933749 220.37568 
L 328.155058 220.37568 
L 328.376368 230.336221 
L 328.597677 210.489264 
L 328.818986 217.262431 
L 329.040296 217.660853 
L 329.704224 265.434387 
L 329.925533 270.465619 
L 330.146843 285.225751 
L 330.368152 288.487249 
L 330.589461 273.754914 
L 330.810771 269.613182 
L 331.03208 276.38635 
L 331.25339 276.38635 
L 331.474699 281.417581 
L 331.696008 272.022243 
L 332.359937 304.368521 
L 333.023865 280.407629 
L 333.245174 264.081607 
L 333.466483 280.407629 
L 333.909102 262.247014 
L 334.130412 262.247014 
L 334.351721 251.674942 
L 334.57303 263.155045 
L 334.79434 266.981746 
L 335.236959 250.81324 
L 335.900887 276.849631 
L 336.122196 280.991363 
L 336.343505 298.716493 
L 336.564815 294.926854 
L 336.786124 301.848272 
L 337.007434 302.246694 
L 337.228743 298.419993 
L 337.450052 263.82217 
L 337.892671 296.566869 
L 338.556599 342.135186 
L 338.777909 324.391525 
L 338.999218 335.871627 
L 339.220527 324.391525 
L 339.441837 304.748411 
L 339.663146 317.127279 
L 339.884456 301.542507 
L 340.105765 301.542507 
L 340.327074 298.281009 
L 340.548384 301.542507 
L 341.433621 253.935754 
L 341.654931 271.679415 
L 341.87624 256.919283 
L 342.318859 271.688681 
L 342.540168 255.103222 
L 342.982787 272.513321 
L 343.204096 269.251823 
L 343.425406 269.251823 
L 343.868025 251.999239 
L 344.310643 276.719912 
L 344.531953 280.379832 
L 344.753262 280.379832 
L 344.974572 270.984494 
L 345.41719 282.937143 
L 345.6385 300.662273 
L 346.081118 270.539744 
L 346.302428 250.692787 
L 346.745047 278.656427 
L 346.966356 289.228498 
L 347.408975 323.557619 
L 347.851594 307.129675 
L 348.072903 314.051093 
L 348.294212 314.051093 
L 348.515522 296.307432 
L 348.736831 315.616983 
L 348.95814 315.616983 
L 349.17945 300.032211 
L 349.400759 303.293709 
L 349.622069 292.656778 
L 349.843378 288.830077 
L 350.064687 308.47319 
L 350.285997 299.522602 
L 350.507306 312.95775 
L 350.728616 316.784451 
L 350.949925 304.405583 
L 351.171234 300.578882 
L 351.392544 280.935769 
L 351.613853 281.334191 
L 351.835162 288.014702 
L 352.056472 303.599474 
L 352.277781 282.770362 
L 352.7204 275.848944 
L 352.941709 267.760058 
L 353.163019 250.034928 
L 353.384328 270.873306 
L 353.605638 270.873306 
L 353.826947 256.113174 
L 354.048256 249.340006 
L 354.269566 238.767934 
L 354.490875 222.441913 
L 354.712184 215.520495 
L 355.154803 242.214745 
L 355.376113 242.214745 
L 355.597422 224.471083 
L 355.818731 224.471083 
L 356.26135 244.225384 
L 356.48266 235.274796 
L 356.703969 250.034928 
L 356.925278 250.034928 
L 357.146588 233.356813 
L 357.367897 242.307401 
L 357.589206 235.626889 
L 357.810516 222.191741 
L 358.031825 225.453239 
L 358.253135 222.191741 
L 358.695753 192.921649 
L 358.917063 205.300517 
L 359.359682 205.300517 
L 359.580991 221.626538 
L 360.02361 196.081225 
L 360.244919 202.761737 
L 360.466229 202.761737 
L 360.687538 206.023235 
L 360.908847 226.852348 
L 361.130157 226.852348 
L 361.351466 223.59085 
L 361.572775 216.910338 
L 362.236704 248.469038 
L 362.458013 227.63066 
L 362.679322 237.591201 
L 362.900632 228.084675 
L 363.121941 231.346173 
L 363.343251 210.51706 
L 363.56456 210.51706 
L 363.785869 217.197572 
L 364.007179 210.51706 
L 364.228488 210.51706 
L 364.449797 227.195176 
L 364.671107 227.195176 
L 364.892416 247.042133 
L 365.113726 247.042133 
L 365.335035 256.548658 
L 365.556344 256.548658 
L 365.777654 248.459772 
L 365.998963 259.096704 
L 366.220273 246.717836 
L 366.441582 226.870879 
L 366.662891 230.530799 
L 366.884201 230.530799 
L 367.548129 199.81527 
L 367.990748 199.81527 
L 368.212057 183.137155 
L 368.433366 203.716096 
L 368.654676 200.454598 
L 368.875985 183.869139 
L 369.097295 190.642307 
L 369.318604 190.243885 
L 369.539913 174.659113 
L 369.761223 174.659113 
L 369.982532 169.627881 
L 370.203841 173.769613 
L 370.425151 153.190672 
L 370.64646 158.221904 
L 371.089079 143.230131 
L 371.310388 143.230131 
L 371.531698 143.628553 
L 371.753007 161.353683 
L 371.974317 168.275101 
L 372.195626 168.275101 
L 372.638245 141.599382 
L 372.859554 137.45765 
L 373.080863 140.719148 
L 373.523482 140.719148 
L 373.744792 149.93844 
L 373.966101 154.080172 
L 374.18741 171.805302 
L 374.40872 178.485814 
L 374.851339 201.501613 
L 375.072648 219.245274 
L 375.293957 218.846852 
L 375.515267 238.489966 
L 375.736576 227.853035 
L 375.957885 237.813576 
L 376.179195 220.088445 
L 376.400504 220.088445 
L 376.621814 230.660517 
L 376.843123 221.441226 
L 377.064432 221.839648 
L 377.507051 195.599413 
L 377.728361 188.918901 
L 377.94967 188.918901 
L 378.170979 171.17524 
L 378.392289 181.812171 
L 378.834908 181.812171 
L 379.056217 169.433303 
L 379.277526 174.464535 
L 379.498836 195.293648 
L 379.720145 195.293648 
L 379.941454 191.151916 
L 380.162764 180.579844 
L 380.605383 191.087056 
L 380.826692 211.665997 
L 381.048001 215.807729 
L 381.269311 215.409308 
L 381.49062 236.247686 
L 382.154548 223.600115 
L 382.375858 240.185574 
L 382.597167 220.542461 
L 382.818476 231.114533 
L 383.039786 227.454613 
L 383.261095 231.114533 
L 383.482405 220.542461 
L 383.703714 228.631347 
L 383.925023 228.631347 
L 384.146333 208.052406 
L 384.367642 227.361957 
L 384.810261 227.361957 
L 385.25288 217.021525 
L 385.474189 237.600466 
L 385.695498 237.600466 
L 385.916808 217.021525 
L 386.138117 217.021525 
L 386.359427 200.436066 
L 386.580736 200.436066 
L 386.802045 197.174568 
L 387.023355 177.865017 
L 387.244664 173.723285 
L 387.465974 159.565419 
L 387.687283 159.565419 
L 387.908592 155.618265 
L 388.129902 148.696847 
L 388.351211 148.696847 
L 388.57252 147.010504 
L 389.015139 147.010504 
L 389.236449 158.490607 
L 389.457758 158.490607 
L 389.679067 153.329657 
L 389.900377 172.639208 
L 390.121686 168.497476 
L 390.342996 183.257608 
L 390.564305 176.48444 
L 390.785614 179.745938 
L 391.006924 176.48444 
L 391.228233 169.803928 
L 391.449542 168.478945 
L 391.670852 179.115876 
L 391.892161 179.115876 
L 392.113471 195.441897 
L 392.33478 195.441897 
L 392.556089 195.840319 
L 392.777399 199.982051 
L 392.998708 219.625164 
L 393.220018 215.483433 
L 393.441327 235.33039 
L 393.662636 239.472122 
L 393.883946 218.643009 
L 394.105255 225.416177 
L 394.326564 225.017755 
L 394.547874 225.017755 
L 394.769183 218.244587 
L 395.211802 218.244587 
L 395.433111 201.918566 
L 395.654421 201.918566 
L 395.87573 190.438463 
L 396.318349 190.438463 
L 396.539658 201.010535 
L 396.760968 196.868803 
L 397.203587 166.98718 
L 397.424896 170.6471 
L 397.646205 170.6471 
L 397.867515 179.866391 
L 398.310133 179.866391 
L 398.531443 200.704769 
L 398.752752 207.385281 
L 398.974062 207.385281 
L 399.41668 223.702037 
L 400.080609 192.85679 
L 400.301918 203.428862 
L 400.523227 207.570593 
L 400.744537 207.570593 
L 401.187155 183.563373 
L 401.408465 183.563373 
L 401.629774 190.336541 
L 401.851084 190.336541 
L 402.072393 183.656029 
L 402.293702 183.656029 
L 402.515012 204.23497 
L 402.736321 184.388013 
L 402.957631 180.728094 
L 403.17894 189.947385 
L 403.400249 185.805653 
L 403.621559 189.465573 
L 403.842868 198.416161 
L 404.064177 201.677659 
L 404.285487 198.01774 
L 404.728106 198.01774 
L 404.949415 204.698251 
L 405.170724 204.698251 
L 405.392034 185.055138 
L 405.613343 185.055138 
L 406.055962 213.760027 
L 406.277271 223.266553 
L 406.498581 227.093254 
L 406.71989 235.18214 
L 406.941199 231.920642 
L 407.383818 206.375329 
L 407.605128 206.375329 
L 407.826437 216.9474 
L 408.047746 216.9474 
L 408.269056 204.568533 
L 408.490365 204.568533 
L 408.711675 183.989592 
L 408.932984 188.131324 
L 409.154293 203.716096 
L 409.375603 193.079164 
L 409.596912 172.240786 
L 409.818221 182.201327 
L 410.48215 182.201327 
L 410.703459 175.428159 
L 410.924768 175.428159 
L 411.146078 159.843387 
L 411.588697 159.843387 
L 412.031315 139.875977 
L 412.695243 139.875977 
L 412.916553 136.086339 
L 413.359172 143.007756 
L 414.0231 143.007756 
L 414.244409 138.866025 
L 414.465719 138.866025 
L 414.687028 128.905484 
L 415.129647 128.905484 
L 415.350956 144.490256 
L 416.457503 144.490256 
L 416.678812 156.155671 
L 416.900122 156.554092 
L 417.121431 147.603504 
L 417.342741 147.603504 
L 417.56405 143.943584 
L 418.006669 163.910994 
L 418.227978 184.740107 
L 418.449288 188.529745 
L 418.891906 157.128561 
L 419.113216 141.543789 
L 419.555834 141.543789 
L 419.777144 138.282291 
L 420.219763 138.282291 
L 420.441072 137.883869 
L 420.883691 145.287099 
L 421.547619 169.37771 
L 421.768928 169.37771 
L 421.990238 162.697198 
L 422.211547 151.217095 
L 422.432856 164.652244 
L 422.654166 164.652244 
L 422.875475 161.390746 
L 423.318094 187.677308 
L 423.760713 166.153274 
L 424.424641 166.153274 
L 424.86726 177.865017 
L 425.309878 177.865017 
L 425.531188 188.501948 
L 425.973807 188.501948 
L 426.195116 184.842029 
L 426.416425 178.161517 
L 426.637735 178.161517 
L 426.859044 167.524586 
L 427.522972 167.524586 
L 427.744282 170.786084 
L 428.40821 170.786084 
L 428.629519 177.559252 
L 428.850829 177.559252 
L 429.072138 181.219171 
L 429.293447 189.308057 
L 429.514757 189.308057 
L 429.736066 181.219171 
L 429.957376 181.219171 
L 430.399994 162.317308 
L 430.842613 162.317308 
L 431.285232 151.717439 
L 432.613088 151.717439 
L 432.834398 168.302898 
L 433.277016 160.85334 
L 433.719635 160.85334 
L 433.940945 155.822108 
L 434.162254 156.22053 
L 434.383563 167.700633 
L 434.604873 164.439134 
L 435.047491 164.439134 
L 435.268801 176.818002 
L 435.71142 176.818002 
L 435.932729 186.21334 
L 436.375348 186.21334 
L 436.596657 191.244572 
L 436.817967 186.21334 
L 437.039276 185.814919 
L 437.481895 185.814919 
L 437.703204 189.64162 
L 437.924513 173.315598 
L 438.145823 173.315598 
L 438.367132 176.577096 
L 438.588442 172.435364 
L 438.809751 172.435364 
L 439.03106 172.833786 
L 439.25237 177.865017 
L 439.473679 161.279558 
L 439.694989 165.42129 
L 439.916298 165.42129 
L 440.137607 160.390059 
L 440.358917 168.478945 
L 440.801535 168.478945 
L 441.022845 189.057886 
L 441.244154 179.097345 
L 441.465464 179.097345 
L 441.686773 175.835847 
L 441.908082 163.456979 
L 442.129392 163.456979 
L 442.350701 151.791564 
L 442.79332 151.791564 
L 443.014629 168.377023 
L 443.235939 164.550322 
L 443.457248 164.1519 
L 444.121176 164.1519 
L 444.342486 160.010168 
L 444.563795 153.487172 
L 444.785104 168.247304 
L 445.006414 159.296716 
L 445.227723 180.135094 
L 445.449033 180.135094 
L 445.891651 204.670455 
L 446.998198 204.670455 
L 447.219508 217.049322 
L 447.662126 180.885609 
L 447.883436 184.545529 
L 448.104745 167.96007 
L 448.326055 171.749708 
L 448.547364 171.749708 
L 448.768673 192.328649 
L 448.989983 188.539011 
L 449.211292 179.143673 
L 449.432601 182.405171 
L 449.653911 182.405171 
L 449.87522 179.143673 
L 450.09653 179.143673 
L 450.317839 158.564732 
L 450.539148 158.564732 
L 450.760458 167.784023 
L 450.981767 167.784023 
L 451.203077 159.695137 
L 451.424386 169.090475 
L 451.645695 169.090475 
L 451.867005 154.330344 
L 452.309624 154.330344 
L 452.530933 154.070906 
L 452.752242 154.070906 
L 452.973552 159.102138 
L 453.194861 169.062679 
L 453.41617 165.402759 
L 453.63748 180.162891 
L 454.080099 180.162891 
L 454.301408 183.952529 
L 454.522717 183.952529 
L 454.744027 188.094261 
L 454.965336 188.094261 
L 455.186646 183.952529 
L 455.407955 171.573662 
L 455.629264 175.400362 
L 455.850574 166.449774 
L 456.071883 166.449774 
L 456.293192 156.489233 
L 456.514502 163.262401 
L 456.735811 166.523899 
L 456.957121 166.523899 
L 457.17843 155.043796 
L 457.621049 155.043796 
L 457.842358 151.254158 
L 458.948905 151.254158 
L 459.170214 163.633026 
L 459.391524 163.633026 
L 459.612833 167.422664 
L 460.498071 167.422664 
L 460.94069 185.472091 
L 461.161999 185.472091 
L 461.604618 174.909285 
L 461.825927 179.051016 
L 462.047236 179.051016 
L 462.268546 182.840655 
L 462.489855 182.840655 
L 462.711165 170.461787 
L 462.932474 166.635086 
L 463.375093 166.635086 
L 463.817712 149.326909 
L 464.039021 144.295678 
L 464.48164 144.295678 
L 464.702949 134.335137 
L 464.924258 130.545498 
L 465.145568 121.15016 
L 466.030805 121.15016 
L 466.252115 129.239046 
L 467.579971 129.239046 
L 467.80128 125.097314 
L 469.571756 125.097314 
L 469.793065 109.549604 
L 471.342231 109.549604 
L 471.56354 116.230116 
L 471.784849 111.198885 
L 472.670087 111.198885 
L 473.112706 131.555451 
L 473.776634 131.555451 
L 473.997943 123.466565 
L 474.440562 123.466565 
L 474.661871 127.126485 
L 474.883181 113.691336 
L 475.768418 113.691336 
L 475.989728 117.833068 
L 476.432347 117.833068 
L 476.653656 113.691336 
L 476.874965 113.691336 
L 477.096275 106.769918 
L 481.522462 106.769918 
L 481.743772 113.691336 
L 481.965081 113.691336 
L 482.186391 117.518037 
L 483.071628 117.518037 
L 483.292937 110.837525 
L 483.956866 110.837525 
L 484.178175 120.232864 
L 485.94865 120.232864 
L 486.169959 116.406163 
L 488.161744 116.406163 
L 488.383053 112.746243 
L 490.374838 112.746243 
L 490.596147 118.435333 
L 491.702694 118.435333 
L 491.924004 130.100748 
L 492.145313 133.927449 
L 493.25186 133.927449 
L 493.473169 133.529028 
L 494.137097 133.529028 
L 494.358407 124.133689 
L 495.243644 124.133689 
L 495.464954 117.499506 
L 495.686263 120.761004 
L 495.907572 120.761004 
L 496.128882 106.000872 
L 497.899357 106.000872 
L 498.120666 100.969641 
L 501.661616 100.969641 
L 501.882926 94.446644 
L 502.104235 99.477876 
L 502.989473 99.477876 
L 503.210782 94.446644 
L 503.87471 94.446644 
L 504.09602 98.106564 
L 504.317329 98.106564 
L 504.538638 94.446644 
L 504.759948 94.446644 
L 504.981257 98.236283 
L 506.530423 98.236283 
L 506.751732 89.285694 
L 507.415661 89.285694 
L 507.63697 88.887273 
L 510.735301 88.887273 
L 510.956611 93.029005 
L 511.620539 93.029005 
L 511.841848 101.117891 
L 518.038511 101.117891 
L 518.25982 96.976159 
L 519.808986 96.976159 
L 520.030295 88.887273 
L 520.472914 88.887273 
L 520.694224 89.285694 
L 531.538384 89.285694 
L 531.759693 88.887273 
L 533.530168 88.887273 
L 533.751477 89.285694 
L 535.521952 89.285694 
L 535.743262 92.945614 
L 536.185881 92.945614 
L 536.40719 92.547192 
L 541.497306 92.547192 
L 541.718615 88.887273 
L 542.161234 88.887273 
L 542.382543 89.285694 
L 545.923494 89.285694 
L 546.144803 88.887273 
L 548.800516 88.887273 
L 549.021825 89.285694 
L 560.308604 89.285694 
L 560.529913 88.887273 
L 570.931454 88.887273 
L 571.152764 89.285694 
L 575.578951 89.285694 
L 575.800261 89.155976 
L 871.690909 89.155976 
L 871.690909 89.155976 
" style="fill:none;stroke:#8dd3c7;stroke-linecap:square;stroke-width:1.5;"/>
   </g>
   <g id="line2d_14">
    <path clip-path="url(#p570307750d)" d="M 161.509091 139.486821 
L 372.638245 139.486821 
L 372.859554 137.45765 
L 412.695243 137.45765 
L 412.916553 136.086339 
L 414.465719 136.086339 
L 414.687028 128.905484 
L 464.924258 128.905484 
L 465.145568 121.15016 
L 469.571756 121.15016 
L 469.793065 109.549604 
L 476.874965 109.549604 
L 477.096275 106.769918 
L 495.907572 106.769918 
L 496.128882 106.000872 
L 497.899357 106.000872 
L 498.120666 100.969641 
L 501.661616 100.969641 
L 501.882926 94.446644 
L 506.530423 94.446644 
L 506.751732 89.285694 
L 507.415661 89.285694 
L 507.63697 88.887273 
L 871.690909 88.887273 
L 871.690909 88.887273 
" style="fill:none;stroke:#feffb3;stroke-linecap:square;stroke-width:1.5;"/>
   </g>
   <g id="line2d_15">
    <path clip-path="url(#p570307750d)" d="M 161.509091 484.198253 
L 871.690909 484.232727 
L 871.690909 484.232727 
" style="fill:none;stroke:#bfbbd9;stroke-linecap:square;stroke-width:1.5;"/>
   </g>
   <g id="patch_3">
    <path d="M 126 504 
L 126 69.12 
" style="fill:none;stroke:#ffffff;stroke-linecap:square;stroke-linejoin:miter;stroke-width:0.8;"/>
   </g>
   <g id="patch_4">
    <path d="M 907.2 504 
L 907.2 69.12 
" style="fill:none;stroke:#ffffff;stroke-linecap:square;stroke-linejoin:miter;stroke-width:0.8;"/>
   </g>
   <g id="patch_5">
    <path d="M 126 504 
L 907.2 504 
" style="fill:none;stroke:#ffffff;stroke-linecap:square;stroke-linejoin:miter;stroke-width:0.8;"/>
   </g>
   <g id="patch_6">
    <path d="M 126 69.12 
L 907.2 69.12 
" style="fill:none;stroke:#ffffff;stroke-linecap:square;stroke-linejoin:miter;stroke-width:0.8;"/>
   </g>
   <g id="text_14">
    <!-- instance 16 with error 0.0 -->
    <g style="fill:#ffffff;" transform="translate(439.126875 63.12)scale(0.12 -0.12)">
     <defs>
      <path d="M 2834 3397 
L 2834 2853 
Q 2591 2978 2328 3040 
Q 2066 3103 1784 3103 
Q 1356 3103 1142 2972 
Q 928 2841 928 2578 
Q 928 2378 1081 2264 
Q 1234 2150 1697 2047 
L 1894 2003 
Q 2506 1872 2764 1633 
Q 3022 1394 3022 966 
Q 3022 478 2636 193 
Q 2250 -91 1575 -91 
Q 1294 -91 989 -36 
Q 684 19 347 128 
L 347 722 
Q 666 556 975 473 
Q 1284 391 1588 391 
Q 1994 391 2212 530 
Q 2431 669 2431 922 
Q 2431 1156 2273 1281 
Q 2116 1406 1581 1522 
L 1381 1569 
Q 847 1681 609 1914 
Q 372 2147 372 2553 
Q 372 3047 722 3315 
Q 1072 3584 1716 3584 
Q 2034 3584 2315 3537 
Q 2597 3491 2834 3397 
z
" id="DejaVuSans-73" transform="scale(0.015625)"/>
      <path d="M 3122 3366 
L 3122 2828 
Q 2878 2963 2633 3030 
Q 2388 3097 2138 3097 
Q 1578 3097 1268 2742 
Q 959 2388 959 1747 
Q 959 1106 1268 751 
Q 1578 397 2138 397 
Q 2388 397 2633 464 
Q 2878 531 3122 666 
L 3122 134 
Q 2881 22 2623 -34 
Q 2366 -91 2075 -91 
Q 1284 -91 818 406 
Q 353 903 353 1747 
Q 353 2603 823 3093 
Q 1294 3584 2113 3584 
Q 2378 3584 2631 3529 
Q 2884 3475 3122 3366 
z
" id="DejaVuSans-63" transform="scale(0.015625)"/>
      <path id="DejaVuSans-20" transform="scale(0.015625)"/>
      <path d="M 2113 2584 
Q 1688 2584 1439 2293 
Q 1191 2003 1191 1497 
Q 1191 994 1439 701 
Q 1688 409 2113 409 
Q 2538 409 2786 701 
Q 3034 994 3034 1497 
Q 3034 2003 2786 2293 
Q 2538 2584 2113 2584 
z
M 3366 4563 
L 3366 3988 
Q 3128 4100 2886 4159 
Q 2644 4219 2406 4219 
Q 1781 4219 1451 3797 
Q 1122 3375 1075 2522 
Q 1259 2794 1537 2939 
Q 1816 3084 2150 3084 
Q 2853 3084 3261 2657 
Q 3669 2231 3669 1497 
Q 3669 778 3244 343 
Q 2819 -91 2113 -91 
Q 1303 -91 875 529 
Q 447 1150 447 2328 
Q 447 3434 972 4092 
Q 1497 4750 2381 4750 
Q 2619 4750 2861 4703 
Q 3103 4656 3366 4563 
z
" id="DejaVuSans-36" transform="scale(0.015625)"/>
      <path d="M 269 3500 
L 844 3500 
L 1563 769 
L 2278 3500 
L 2956 3500 
L 3675 769 
L 4391 3500 
L 4966 3500 
L 4050 0 
L 3372 0 
L 2619 2869 
L 1863 0 
L 1184 0 
L 269 3500 
z
" id="DejaVuSans-77" transform="scale(0.015625)"/>
      <path d="M 3513 2113 
L 3513 0 
L 2938 0 
L 2938 2094 
Q 2938 2591 2744 2837 
Q 2550 3084 2163 3084 
Q 1697 3084 1428 2787 
Q 1159 2491 1159 1978 
L 1159 0 
L 581 0 
L 581 4863 
L 1159 4863 
L 1159 2956 
Q 1366 3272 1645 3428 
Q 1925 3584 2291 3584 
Q 2894 3584 3203 3211 
Q 3513 2838 3513 2113 
z
" id="DejaVuSans-68" transform="scale(0.015625)"/>
      <path d="M 684 794 
L 1344 794 
L 1344 0 
L 684 0 
L 684 794 
z
" id="DejaVuSans-2e" transform="scale(0.015625)"/>
     </defs>
     <use xlink:href="#DejaVuSans-69"/>
     <use x="27.783203" xlink:href="#DejaVuSans-6e"/>
     <use x="91.162109" xlink:href="#DejaVuSans-73"/>
     <use x="143.261719" xlink:href="#DejaVuSans-74"/>
     <use x="182.470703" xlink:href="#DejaVuSans-61"/>
     <use x="243.75" xlink:href="#DejaVuSans-6e"/>
     <use x="307.128906" xlink:href="#DejaVuSans-63"/>
     <use x="362.109375" xlink:href="#DejaVuSans-65"/>
     <use x="423.632812" xlink:href="#DejaVuSans-20"/>
     <use x="455.419922" xlink:href="#DejaVuSans-31"/>
     <use x="519.042969" xlink:href="#DejaVuSans-36"/>
     <use x="582.666016" xlink:href="#DejaVuSans-20"/>
     <use x="614.453125" xlink:href="#DejaVuSans-77"/>
     <use x="696.240234" xlink:href="#DejaVuSans-69"/>
     <use x="724.023438" xlink:href="#DejaVuSans-74"/>
     <use x="763.232422" xlink:href="#DejaVuSans-68"/>
     <use x="826.611328" xlink:href="#DejaVuSans-20"/>
     <use x="858.398438" xlink:href="#DejaVuSans-65"/>
     <use x="919.921875" xlink:href="#DejaVuSans-72"/>
     <use x="959.285156" xlink:href="#DejaVuSans-72"/>
     <use x="998.148438" xlink:href="#DejaVuSans-6f"/>
     <use x="1059.330078" xlink:href="#DejaVuSans-72"/>
     <use x="1100.443359" xlink:href="#DejaVuSans-20"/>
     <use x="1132.230469" xlink:href="#DejaVuSans-30"/>
     <use x="1195.853516" xlink:href="#DejaVuSans-2e"/>
     <use x="1227.640625" xlink:href="#DejaVuSans-30"/>
    </g>
   </g>
   <g id="legend_1">
    <g id="patch_7">
     <path d="M 805.348438 499 
L 900.2 499 
Q 902.2 499 902.2 497 
L 902.2 453.965625 
Q 902.2 451.965625 900.2 451.965625 
L 805.348438 451.965625 
Q 803.348438 451.965625 803.348438 453.965625 
L 803.348438 497 
Q 803.348438 499 805.348438 499 
z
" style="opacity:0.8;stroke:#cccccc;stroke-linejoin:miter;"/>
    </g>
    <g id="line2d_16">
     <path d="M 807.348438 460.064062 
L 827.348438 460.064062 
" style="fill:none;stroke:#8dd3c7;stroke-linecap:square;stroke-width:1.5;"/>
    </g>
    <g id="line2d_17"/>
    <g id="text_15">
     <!-- cost -->
     <g style="fill:#ffffff;" transform="translate(835.348438 463.564062)scale(0.1 -0.1)">
      <use xlink:href="#DejaVuSans-63"/>
      <use x="54.980469" xlink:href="#DejaVuSans-6f"/>
      <use x="116.162109" xlink:href="#DejaVuSans-73"/>
      <use x="168.261719" xlink:href="#DejaVuSans-74"/>
     </g>
    </g>
    <g id="line2d_18">
     <path d="M 807.348438 474.742188 
L 827.348438 474.742188 
" style="fill:none;stroke:#feffb3;stroke-linecap:square;stroke-width:1.5;"/>
    </g>
    <g id="line2d_19"/>
    <g id="text_16">
     <!-- best cost -->
     <g style="fill:#ffffff;" transform="translate(835.348438 478.242188)scale(0.1 -0.1)">
      <defs>
       <path d="M 3116 1747 
Q 3116 2381 2855 2742 
Q 2594 3103 2138 3103 
Q 1681 3103 1420 2742 
Q 1159 2381 1159 1747 
Q 1159 1113 1420 752 
Q 1681 391 2138 391 
Q 2594 391 2855 752 
Q 3116 1113 3116 1747 
z
M 1159 2969 
Q 1341 3281 1617 3432 
Q 1894 3584 2278 3584 
Q 2916 3584 3314 3078 
Q 3713 2572 3713 1747 
Q 3713 922 3314 415 
Q 2916 -91 2278 -91 
Q 1894 -91 1617 61 
Q 1341 213 1159 525 
L 1159 0 
L 581 0 
L 581 4863 
L 1159 4863 
L 1159 2969 
z
" id="DejaVuSans-62" transform="scale(0.015625)"/>
      </defs>
      <use xlink:href="#DejaVuSans-62"/>
      <use x="63.476562" xlink:href="#DejaVuSans-65"/>
      <use x="125" xlink:href="#DejaVuSans-73"/>
      <use x="177.099609" xlink:href="#DejaVuSans-74"/>
      <use x="216.308594" xlink:href="#DejaVuSans-20"/>
      <use x="248.095703" xlink:href="#DejaVuSans-63"/>
      <use x="303.076172" xlink:href="#DejaVuSans-6f"/>
      <use x="364.257812" xlink:href="#DejaVuSans-73"/>
      <use x="416.357422" xlink:href="#DejaVuSans-74"/>
     </g>
    </g>
    <g id="line2d_20">
     <path d="M 807.348438 489.420313 
L 827.348438 489.420313 
" style="fill:none;stroke:#bfbbd9;stroke-linecap:square;stroke-width:1.5;"/>
    </g>
    <g id="line2d_21"/>
    <g id="text_17">
     <!-- temperature -->
     <g style="fill:#ffffff;" transform="translate(835.348438 492.920313)scale(0.1 -0.1)">
      <defs>
       <path d="M 3328 2828 
Q 3544 3216 3844 3400 
Q 4144 3584 4550 3584 
Q 5097 3584 5394 3201 
Q 5691 2819 5691 2113 
L 5691 0 
L 5113 0 
L 5113 2094 
Q 5113 2597 4934 2840 
Q 4756 3084 4391 3084 
Q 3944 3084 3684 2787 
Q 3425 2491 3425 1978 
L 3425 0 
L 2847 0 
L 2847 2094 
Q 2847 2600 2669 2842 
Q 2491 3084 2119 3084 
Q 1678 3084 1418 2786 
Q 1159 2488 1159 1978 
L 1159 0 
L 581 0 
L 581 3500 
L 1159 3500 
L 1159 2956 
Q 1356 3278 1631 3431 
Q 1906 3584 2284 3584 
Q 2666 3584 2933 3390 
Q 3200 3197 3328 2828 
z
" id="DejaVuSans-6d" transform="scale(0.015625)"/>
       <path d="M 1159 525 
L 1159 -1331 
L 581 -1331 
L 581 3500 
L 1159 3500 
L 1159 2969 
Q 1341 3281 1617 3432 
Q 1894 3584 2278 3584 
Q 2916 3584 3314 3078 
Q 3713 2572 3713 1747 
Q 3713 922 3314 415 
Q 2916 -91 2278 -91 
Q 1894 -91 1617 61 
Q 1341 213 1159 525 
z
M 3116 1747 
Q 3116 2381 2855 2742 
Q 2594 3103 2138 3103 
Q 1681 3103 1420 2742 
Q 1159 2381 1159 1747 
Q 1159 1113 1420 752 
Q 1681 391 2138 391 
Q 2594 391 2855 752 
Q 3116 1113 3116 1747 
z
" id="DejaVuSans-70" transform="scale(0.015625)"/>
       <path d="M 544 1381 
L 544 3500 
L 1119 3500 
L 1119 1403 
Q 1119 906 1312 657 
Q 1506 409 1894 409 
Q 2359 409 2629 706 
Q 2900 1003 2900 1516 
L 2900 3500 
L 3475 3500 
L 3475 0 
L 2900 0 
L 2900 538 
Q 2691 219 2414 64 
Q 2138 -91 1772 -91 
Q 1169 -91 856 284 
Q 544 659 544 1381 
z
M 1991 3584 
L 1991 3584 
z
" id="DejaVuSans-75" transform="scale(0.015625)"/>
      </defs>
      <use xlink:href="#DejaVuSans-74"/>
      <use x="39.208984" xlink:href="#DejaVuSans-65"/>
      <use x="100.732422" xlink:href="#DejaVuSans-6d"/>
      <use x="198.144531" xlink:href="#DejaVuSans-70"/>
      <use x="261.621094" xlink:href="#DejaVuSans-65"/>
      <use x="323.144531" xlink:href="#DejaVuSans-72"/>
      <use x="364.257812" xlink:href="#DejaVuSans-61"/>
      <use x="425.537109" xlink:href="#DejaVuSans-74"/>
      <use x="464.746094" xlink:href="#DejaVuSans-75"/>
      <use x="528.125" xlink:href="#DejaVuSans-72"/>
      <use x="566.988281" xlink:href="#DejaVuSans-65"/>
     </g>
    </g>
   </g>
  </g>
 </g>
 <defs>
  <clipPath id="p570307750d">
   <rect height="434.88" width="781.2" x="126" y="69.12"/>
  </clipPath>
 </defs>
</svg>
