<?xml version="1.0" encoding="utf-8" standalone="no"?>
<!DOCTYPE svg PUBLIC "-//W3C//DTD SVG 1.1//EN"
  "http://www.w3.org/Graphics/SVG/1.1/DTD/svg11.dtd">
<svg height="576pt" version="1.1" viewBox="0 0 1008 576" width="1008pt" xmlns="http://www.w3.org/2000/svg" xmlns:xlink="http://www.w3.org/1999/xlink">
 <metadata>
  <rdf:RDF xmlns:cc="http://creativecommons.org/ns#" xmlns:dc="http://purl.org/dc/elements/1.1/" xmlns:rdf="http://www.w3.org/1999/02/22-rdf-syntax-ns#">
   <cc:Work>
    <dc:type rdf:resource="http://purl.org/dc/dcmitype/StillImage"/>
    <dc:date>2022-01-08T01:27:33.244482</dc:date>
    <dc:format>image/svg+xml</dc:format>
    <dc:creator>
     <cc:Agent>
      <dc:title>Matplotlib v3.4.3, https://matplotlib.org/</dc:title>
     </cc:Agent>
    </dc:creator>
   </cc:Work>
  </rdf:RDF>
 </metadata>
 <defs>
  <style type="text/css">*{stroke-linecap:butt;stroke-linejoin:round;}</style>
 </defs>
 <g id="figure_1">
  <g id="patch_1">
   <path d="M 0 576 
L 1008 576 
L 1008 0 
L 0 0 
z
"/>
  </g>
  <g id="axes_1">
   <g id="patch_2">
    <path d="M 126 504 
L 907.2 504 
L 907.2 69.12 
L 126 69.12 
z
"/>
   </g>
   <g id="matplotlib.axis_1">
    <g id="xtick_1">
     <g id="line2d_1">
      <defs>
       <path d="M 0 0 
L 0 3.5 
" id="m537a5ac0af" style="stroke:#ffffff;stroke-width:0.8;"/>
      </defs>
      <g>
       <use style="fill:#ffffff;stroke:#ffffff;stroke-width:0.8;" x="161.509091" xlink:href="#m537a5ac0af" y="504"/>
      </g>
     </g>
     <g id="text_1">
      <!-- 0 -->
      <g style="fill:#ffffff;" transform="translate(158.327841 518.598438)scale(0.1 -0.1)">
       <defs>
        <path d="M 2034 4250 
Q 1547 4250 1301 3770 
Q 1056 3291 1056 2328 
Q 1056 1369 1301 889 
Q 1547 409 2034 409 
Q 2525 409 2770 889 
Q 3016 1369 3016 2328 
Q 3016 3291 2770 3770 
Q 2525 4250 2034 4250 
z
M 2034 4750 
Q 2819 4750 3233 4129 
Q 3647 3509 3647 2328 
Q 3647 1150 3233 529 
Q 2819 -91 2034 -91 
Q 1250 -91 836 529 
Q 422 1150 422 2328 
Q 422 3509 836 4129 
Q 1250 4750 2034 4750 
z
" id="DejaVuSans-30" transform="scale(0.015625)"/>
       </defs>
       <use xlink:href="#DejaVuSans-30"/>
      </g>
     </g>
    </g>
    <g id="xtick_2">
     <g id="line2d_2">
      <g>
       <use style="fill:#ffffff;stroke:#ffffff;stroke-width:0.8;" x="293.660527" xlink:href="#m537a5ac0af" y="504"/>
      </g>
     </g>
     <g id="text_2">
      <!-- 500 -->
      <g style="fill:#ffffff;" transform="translate(284.116777 518.598438)scale(0.1 -0.1)">
       <defs>
        <path d="M 691 4666 
L 3169 4666 
L 3169 4134 
L 1269 4134 
L 1269 2991 
Q 1406 3038 1543 3061 
Q 1681 3084 1819 3084 
Q 2600 3084 3056 2656 
Q 3513 2228 3513 1497 
Q 3513 744 3044 326 
Q 2575 -91 1722 -91 
Q 1428 -91 1123 -41 
Q 819 9 494 109 
L 494 744 
Q 775 591 1075 516 
Q 1375 441 1709 441 
Q 2250 441 2565 725 
Q 2881 1009 2881 1497 
Q 2881 1984 2565 2268 
Q 2250 2553 1709 2553 
Q 1456 2553 1204 2497 
Q 953 2441 691 2322 
L 691 4666 
z
" id="DejaVuSans-35" transform="scale(0.015625)"/>
       </defs>
       <use xlink:href="#DejaVuSans-35"/>
       <use x="63.623047" xlink:href="#DejaVuSans-30"/>
       <use x="127.246094" xlink:href="#DejaVuSans-30"/>
      </g>
     </g>
    </g>
    <g id="xtick_3">
     <g id="line2d_3">
      <g>
       <use style="fill:#ffffff;stroke:#ffffff;stroke-width:0.8;" x="425.811963" xlink:href="#m537a5ac0af" y="504"/>
      </g>
     </g>
     <g id="text_3">
      <!-- 1000 -->
      <g style="fill:#ffffff;" transform="translate(413.086963 518.598438)scale(0.1 -0.1)">
       <defs>
        <path d="M 794 531 
L 1825 531 
L 1825 4091 
L 703 3866 
L 703 4441 
L 1819 4666 
L 2450 4666 
L 2450 531 
L 3481 531 
L 3481 0 
L 794 0 
L 794 531 
z
" id="DejaVuSans-31" transform="scale(0.015625)"/>
       </defs>
       <use xlink:href="#DejaVuSans-31"/>
       <use x="63.623047" xlink:href="#DejaVuSans-30"/>
       <use x="127.246094" xlink:href="#DejaVuSans-30"/>
       <use x="190.869141" xlink:href="#DejaVuSans-30"/>
      </g>
     </g>
    </g>
    <g id="xtick_4">
     <g id="line2d_4">
      <g>
       <use style="fill:#ffffff;stroke:#ffffff;stroke-width:0.8;" x="557.9634" xlink:href="#m537a5ac0af" y="504"/>
      </g>
     </g>
     <g id="text_4">
      <!-- 1500 -->
      <g style="fill:#ffffff;" transform="translate(545.2384 518.598438)scale(0.1 -0.1)">
       <use xlink:href="#DejaVuSans-31"/>
       <use x="63.623047" xlink:href="#DejaVuSans-35"/>
       <use x="127.246094" xlink:href="#DejaVuSans-30"/>
       <use x="190.869141" xlink:href="#DejaVuSans-30"/>
      </g>
     </g>
    </g>
    <g id="xtick_5">
     <g id="line2d_5">
      <g>
       <use style="fill:#ffffff;stroke:#ffffff;stroke-width:0.8;" x="690.114836" xlink:href="#m537a5ac0af" y="504"/>
      </g>
     </g>
     <g id="text_5">
      <!-- 2000 -->
      <g style="fill:#ffffff;" transform="translate(677.389836 518.598438)scale(0.1 -0.1)">
       <defs>
        <path d="M 1228 531 
L 3431 531 
L 3431 0 
L 469 0 
L 469 531 
Q 828 903 1448 1529 
Q 2069 2156 2228 2338 
Q 2531 2678 2651 2914 
Q 2772 3150 2772 3378 
Q 2772 3750 2511 3984 
Q 2250 4219 1831 4219 
Q 1534 4219 1204 4116 
Q 875 4013 500 3803 
L 500 4441 
Q 881 4594 1212 4672 
Q 1544 4750 1819 4750 
Q 2544 4750 2975 4387 
Q 3406 4025 3406 3419 
Q 3406 3131 3298 2873 
Q 3191 2616 2906 2266 
Q 2828 2175 2409 1742 
Q 1991 1309 1228 531 
z
" id="DejaVuSans-32" transform="scale(0.015625)"/>
       </defs>
       <use xlink:href="#DejaVuSans-32"/>
       <use x="63.623047" xlink:href="#DejaVuSans-30"/>
       <use x="127.246094" xlink:href="#DejaVuSans-30"/>
       <use x="190.869141" xlink:href="#DejaVuSans-30"/>
      </g>
     </g>
    </g>
    <g id="xtick_6">
     <g id="line2d_6">
      <g>
       <use style="fill:#ffffff;stroke:#ffffff;stroke-width:0.8;" x="822.266272" xlink:href="#m537a5ac0af" y="504"/>
      </g>
     </g>
     <g id="text_6">
      <!-- 2500 -->
      <g style="fill:#ffffff;" transform="translate(809.541272 518.598438)scale(0.1 -0.1)">
       <use xlink:href="#DejaVuSans-32"/>
       <use x="63.623047" xlink:href="#DejaVuSans-35"/>
       <use x="127.246094" xlink:href="#DejaVuSans-30"/>
       <use x="190.869141" xlink:href="#DejaVuSans-30"/>
      </g>
     </g>
    </g>
    <g id="text_7">
     <!-- iteration -->
     <g style="fill:#ffffff;" transform="translate(495.477344 532.276562)scale(0.1 -0.1)">
      <defs>
       <path d="M 603 3500 
L 1178 3500 
L 1178 0 
L 603 0 
L 603 3500 
z
M 603 4863 
L 1178 4863 
L 1178 4134 
L 603 4134 
L 603 4863 
z
" id="DejaVuSans-69" transform="scale(0.015625)"/>
       <path d="M 1172 4494 
L 1172 3500 
L 2356 3500 
L 2356 3053 
L 1172 3053 
L 1172 1153 
Q 1172 725 1289 603 
Q 1406 481 1766 481 
L 2356 481 
L 2356 0 
L 1766 0 
Q 1100 0 847 248 
Q 594 497 594 1153 
L 594 3053 
L 172 3053 
L 172 3500 
L 594 3500 
L 594 4494 
L 1172 4494 
z
" id="DejaVuSans-74" transform="scale(0.015625)"/>
       <path d="M 3597 1894 
L 3597 1613 
L 953 1613 
Q 991 1019 1311 708 
Q 1631 397 2203 397 
Q 2534 397 2845 478 
Q 3156 559 3463 722 
L 3463 178 
Q 3153 47 2828 -22 
Q 2503 -91 2169 -91 
Q 1331 -91 842 396 
Q 353 884 353 1716 
Q 353 2575 817 3079 
Q 1281 3584 2069 3584 
Q 2775 3584 3186 3129 
Q 3597 2675 3597 1894 
z
M 3022 2063 
Q 3016 2534 2758 2815 
Q 2500 3097 2075 3097 
Q 1594 3097 1305 2825 
Q 1016 2553 972 2059 
L 3022 2063 
z
" id="DejaVuSans-65" transform="scale(0.015625)"/>
       <path d="M 2631 2963 
Q 2534 3019 2420 3045 
Q 2306 3072 2169 3072 
Q 1681 3072 1420 2755 
Q 1159 2438 1159 1844 
L 1159 0 
L 581 0 
L 581 3500 
L 1159 3500 
L 1159 2956 
Q 1341 3275 1631 3429 
Q 1922 3584 2338 3584 
Q 2397 3584 2469 3576 
Q 2541 3569 2628 3553 
L 2631 2963 
z
" id="DejaVuSans-72" transform="scale(0.015625)"/>
       <path d="M 2194 1759 
Q 1497 1759 1228 1600 
Q 959 1441 959 1056 
Q 959 750 1161 570 
Q 1363 391 1709 391 
Q 2188 391 2477 730 
Q 2766 1069 2766 1631 
L 2766 1759 
L 2194 1759 
z
M 3341 1997 
L 3341 0 
L 2766 0 
L 2766 531 
Q 2569 213 2275 61 
Q 1981 -91 1556 -91 
Q 1019 -91 701 211 
Q 384 513 384 1019 
Q 384 1609 779 1909 
Q 1175 2209 1959 2209 
L 2766 2209 
L 2766 2266 
Q 2766 2663 2505 2880 
Q 2244 3097 1772 3097 
Q 1472 3097 1187 3025 
Q 903 2953 641 2809 
L 641 3341 
Q 956 3463 1253 3523 
Q 1550 3584 1831 3584 
Q 2591 3584 2966 3190 
Q 3341 2797 3341 1997 
z
" id="DejaVuSans-61" transform="scale(0.015625)"/>
       <path d="M 1959 3097 
Q 1497 3097 1228 2736 
Q 959 2375 959 1747 
Q 959 1119 1226 758 
Q 1494 397 1959 397 
Q 2419 397 2687 759 
Q 2956 1122 2956 1747 
Q 2956 2369 2687 2733 
Q 2419 3097 1959 3097 
z
M 1959 3584 
Q 2709 3584 3137 3096 
Q 3566 2609 3566 1747 
Q 3566 888 3137 398 
Q 2709 -91 1959 -91 
Q 1206 -91 779 398 
Q 353 888 353 1747 
Q 353 2609 779 3096 
Q 1206 3584 1959 3584 
z
" id="DejaVuSans-6f" transform="scale(0.015625)"/>
       <path d="M 3513 2113 
L 3513 0 
L 2938 0 
L 2938 2094 
Q 2938 2591 2744 2837 
Q 2550 3084 2163 3084 
Q 1697 3084 1428 2787 
Q 1159 2491 1159 1978 
L 1159 0 
L 581 0 
L 581 3500 
L 1159 3500 
L 1159 2956 
Q 1366 3272 1645 3428 
Q 1925 3584 2291 3584 
Q 2894 3584 3203 3211 
Q 3513 2838 3513 2113 
z
" id="DejaVuSans-6e" transform="scale(0.015625)"/>
      </defs>
      <use xlink:href="#DejaVuSans-69"/>
      <use x="27.783203" xlink:href="#DejaVuSans-74"/>
      <use x="66.992188" xlink:href="#DejaVuSans-65"/>
      <use x="128.515625" xlink:href="#DejaVuSans-72"/>
      <use x="169.628906" xlink:href="#DejaVuSans-61"/>
      <use x="230.908203" xlink:href="#DejaVuSans-74"/>
      <use x="270.117188" xlink:href="#DejaVuSans-69"/>
      <use x="297.900391" xlink:href="#DejaVuSans-6f"/>
      <use x="359.082031" xlink:href="#DejaVuSans-6e"/>
     </g>
    </g>
   </g>
   <g id="matplotlib.axis_2">
    <g id="ytick_1">
     <g id="line2d_7">
      <defs>
       <path d="M 0 0 
L -3.5 0 
" id="m9c5b0614e5" style="stroke:#ffffff;stroke-width:0.8;"/>
      </defs>
      <g>
       <use style="fill:#ffffff;stroke:#ffffff;stroke-width:0.8;" x="126" xlink:href="#m9c5b0614e5" y="484.232727"/>
      </g>
     </g>
     <g id="text_8">
      <!-- 0 -->
      <g style="fill:#ffffff;" transform="translate(112.6375 488.031946)scale(0.1 -0.1)">
       <use xlink:href="#DejaVuSans-30"/>
      </g>
     </g>
    </g>
    <g id="ytick_2">
     <g id="line2d_8">
      <g>
       <use style="fill:#ffffff;stroke:#ffffff;stroke-width:0.8;" x="126" xlink:href="#m9c5b0614e5" y="434.112868"/>
      </g>
     </g>
     <g id="text_9">
      <!-- 5000 -->
      <g style="fill:#ffffff;" transform="translate(93.55 437.912086)scale(0.1 -0.1)">
       <use xlink:href="#DejaVuSans-35"/>
       <use x="63.623047" xlink:href="#DejaVuSans-30"/>
       <use x="127.246094" xlink:href="#DejaVuSans-30"/>
       <use x="190.869141" xlink:href="#DejaVuSans-30"/>
      </g>
     </g>
    </g>
    <g id="ytick_3">
     <g id="line2d_9">
      <g>
       <use style="fill:#ffffff;stroke:#ffffff;stroke-width:0.8;" x="126" xlink:href="#m9c5b0614e5" y="383.993008"/>
      </g>
     </g>
     <g id="text_10">
      <!-- 10000 -->
      <g style="fill:#ffffff;" transform="translate(87.1875 387.792226)scale(0.1 -0.1)">
       <use xlink:href="#DejaVuSans-31"/>
       <use x="63.623047" xlink:href="#DejaVuSans-30"/>
       <use x="127.246094" xlink:href="#DejaVuSans-30"/>
       <use x="190.869141" xlink:href="#DejaVuSans-30"/>
       <use x="254.492188" xlink:href="#DejaVuSans-30"/>
      </g>
     </g>
    </g>
    <g id="ytick_4">
     <g id="line2d_10">
      <g>
       <use style="fill:#ffffff;stroke:#ffffff;stroke-width:0.8;" x="126" xlink:href="#m9c5b0614e5" y="333.873148"/>
      </g>
     </g>
     <g id="text_11">
      <!-- 15000 -->
      <g style="fill:#ffffff;" transform="translate(87.1875 337.672367)scale(0.1 -0.1)">
       <use xlink:href="#DejaVuSans-31"/>
       <use x="63.623047" xlink:href="#DejaVuSans-35"/>
       <use x="127.246094" xlink:href="#DejaVuSans-30"/>
       <use x="190.869141" xlink:href="#DejaVuSans-30"/>
       <use x="254.492188" xlink:href="#DejaVuSans-30"/>
      </g>
     </g>
    </g>
    <g id="ytick_5">
     <g id="line2d_11">
      <g>
       <use style="fill:#ffffff;stroke:#ffffff;stroke-width:0.8;" x="126" xlink:href="#m9c5b0614e5" y="283.753288"/>
      </g>
     </g>
     <g id="text_12">
      <!-- 20000 -->
      <g style="fill:#ffffff;" transform="translate(87.1875 287.552507)scale(0.1 -0.1)">
       <use xlink:href="#DejaVuSans-32"/>
       <use x="63.623047" xlink:href="#DejaVuSans-30"/>
       <use x="127.246094" xlink:href="#DejaVuSans-30"/>
       <use x="190.869141" xlink:href="#DejaVuSans-30"/>
       <use x="254.492188" xlink:href="#DejaVuSans-30"/>
      </g>
     </g>
    </g>
    <g id="ytick_6">
     <g id="line2d_12">
      <g>
       <use style="fill:#ffffff;stroke:#ffffff;stroke-width:0.8;" x="126" xlink:href="#m9c5b0614e5" y="233.633428"/>
      </g>
     </g>
     <g id="text_13">
      <!-- 25000 -->
      <g style="fill:#ffffff;" transform="translate(87.1875 237.432647)scale(0.1 -0.1)">
       <use xlink:href="#DejaVuSans-32"/>
       <use x="63.623047" xlink:href="#DejaVuSans-35"/>
       <use x="127.246094" xlink:href="#DejaVuSans-30"/>
       <use x="190.869141" xlink:href="#DejaVuSans-30"/>
       <use x="254.492188" xlink:href="#DejaVuSans-30"/>
      </g>
     </g>
    </g>
    <g id="ytick_7">
     <g id="line2d_13">
      <g>
       <use style="fill:#ffffff;stroke:#ffffff;stroke-width:0.8;" x="126" xlink:href="#m9c5b0614e5" y="183.513568"/>
      </g>
     </g>
     <g id="text_14">
      <!-- 30000 -->
      <g style="fill:#ffffff;" transform="translate(87.1875 187.312787)scale(0.1 -0.1)">
       <defs>
        <path d="M 2597 2516 
Q 3050 2419 3304 2112 
Q 3559 1806 3559 1356 
Q 3559 666 3084 287 
Q 2609 -91 1734 -91 
Q 1441 -91 1130 -33 
Q 819 25 488 141 
L 488 750 
Q 750 597 1062 519 
Q 1375 441 1716 441 
Q 2309 441 2620 675 
Q 2931 909 2931 1356 
Q 2931 1769 2642 2001 
Q 2353 2234 1838 2234 
L 1294 2234 
L 1294 2753 
L 1863 2753 
Q 2328 2753 2575 2939 
Q 2822 3125 2822 3475 
Q 2822 3834 2567 4026 
Q 2313 4219 1838 4219 
Q 1578 4219 1281 4162 
Q 984 4106 628 3988 
L 628 4550 
Q 988 4650 1302 4700 
Q 1616 4750 1894 4750 
Q 2613 4750 3031 4423 
Q 3450 4097 3450 3541 
Q 3450 3153 3228 2886 
Q 3006 2619 2597 2516 
z
" id="DejaVuSans-33" transform="scale(0.015625)"/>
       </defs>
       <use xlink:href="#DejaVuSans-33"/>
       <use x="63.623047" xlink:href="#DejaVuSans-30"/>
       <use x="127.246094" xlink:href="#DejaVuSans-30"/>
       <use x="190.869141" xlink:href="#DejaVuSans-30"/>
       <use x="254.492188" xlink:href="#DejaVuSans-30"/>
      </g>
     </g>
    </g>
    <g id="ytick_8">
     <g id="line2d_14">
      <g>
       <use style="fill:#ffffff;stroke:#ffffff;stroke-width:0.8;" x="126" xlink:href="#m9c5b0614e5" y="133.393708"/>
      </g>
     </g>
     <g id="text_15">
      <!-- 35000 -->
      <g style="fill:#ffffff;" transform="translate(87.1875 137.192927)scale(0.1 -0.1)">
       <use xlink:href="#DejaVuSans-33"/>
       <use x="63.623047" xlink:href="#DejaVuSans-35"/>
       <use x="127.246094" xlink:href="#DejaVuSans-30"/>
       <use x="190.869141" xlink:href="#DejaVuSans-30"/>
       <use x="254.492188" xlink:href="#DejaVuSans-30"/>
      </g>
     </g>
    </g>
    <g id="ytick_9">
     <g id="line2d_15">
      <g>
       <use style="fill:#ffffff;stroke:#ffffff;stroke-width:0.8;" x="126" xlink:href="#m9c5b0614e5" y="83.273848"/>
      </g>
     </g>
     <g id="text_16">
      <!-- 40000 -->
      <g style="fill:#ffffff;" transform="translate(87.1875 87.073067)scale(0.1 -0.1)">
       <defs>
        <path d="M 2419 4116 
L 825 1625 
L 2419 1625 
L 2419 4116 
z
M 2253 4666 
L 3047 4666 
L 3047 1625 
L 3713 1625 
L 3713 1100 
L 3047 1100 
L 3047 0 
L 2419 0 
L 2419 1100 
L 313 1100 
L 313 1709 
L 2253 4666 
z
" id="DejaVuSans-34" transform="scale(0.015625)"/>
       </defs>
       <use xlink:href="#DejaVuSans-34"/>
       <use x="63.623047" xlink:href="#DejaVuSans-30"/>
       <use x="127.246094" xlink:href="#DejaVuSans-30"/>
       <use x="190.869141" xlink:href="#DejaVuSans-30"/>
       <use x="254.492188" xlink:href="#DejaVuSans-30"/>
      </g>
     </g>
    </g>
   </g>
   <g id="line2d_16">
    <path clip-path="url(#p42994d3ef5)" d="M 161.509091 161.952004 
L 161.773394 193.457348 
L 162.037697 198.178639 
L 162.302 183.774191 
L 162.566302 207.150094 
L 162.830605 201.085591 
L 163.094908 208.172539 
L 163.359211 222.857658 
L 163.623514 279.643459 
L 163.887817 294.899945 
L 164.15212 286.038754 
L 164.416423 290.228774 
L 164.680725 320.130282 
L 164.945028 326.776176 
L 165.209331 309.855711 
L 165.473634 319.398532 
L 165.737937 304.994085 
L 166.00224 321.914549 
L 166.266543 329.001497 
L 166.795148 290.178654 
L 167.059451 294.368674 
L 167.588057 260.046594 
L 167.85236 249.240752 
L 168.116663 266.161217 
L 168.380966 256.558252 
L 168.645268 263.164049 
L 168.909571 248.478931 
L 169.173874 252.709047 
L 169.70248 268.376515 
L 169.966783 253.972067 
L 170.231086 278.771374 
L 170.495389 284.585278 
L 170.759691 297.816921 
L 171.023994 292.003017 
L 171.288297 306.407465 
L 171.5526 328.239676 
L 172.081206 306.828471 
L 172.345509 288.454531 
L 172.609812 281.367583 
L 172.874114 297.33577 
L 173.138417 300.192602 
L 173.40272 286.960959 
L 173.931326 247.386318 
L 174.195629 258.152063 
L 174.724235 297.566321 
L 174.988537 286.800575 
L 175.25284 266.542128 
L 175.517143 291.100859 
L 175.781446 274.57133 
L 176.045749 278.76135 
L 176.310052 299.019797 
L 176.574355 284.334678 
L 176.838658 300.864208 
L 177.10296 298.007376 
L 177.367263 300.864208 
L 177.631566 314.095851 
L 177.895869 298.127664 
L 178.424475 251.275619 
L 178.688778 258.362567 
L 178.95308 275.283032 
L 179.481686 249.481328 
L 179.745989 262.051389 
L 180.010292 252.448423 
L 180.274595 233.182349 
L 180.538898 239.818219 
L 180.803201 255.786406 
L 181.067503 238.294575 
L 181.331806 235.437743 
L 181.596109 259.996474 
L 181.860412 255.806454 
L 182.389018 295.591599 
L 182.653321 308.823242 
L 182.917624 328.089316 
L 183.181926 307.830869 
L 183.446229 317.433834 
L 183.710532 304.863773 
L 183.974835 315.629519 
L 184.239138 308.983625 
L 184.503441 321.553686 
L 184.767744 314.917817 
L 185.032047 338.293719 
L 185.296349 325.723659 
L 185.560652 344.097599 
L 185.824955 335.978182 
L 186.089258 334.594874 
L 186.353561 309.795567 
L 186.617864 311.850481 
L 186.882167 316.040502 
L 187.14647 328.610562 
L 187.410772 306.778352 
L 187.675075 322.846779 
L 188.203681 370.300262 
L 188.467984 345.500955 
L 188.732287 367.333166 
L 188.99659 351.144451 
L 189.260893 326.58572 
L 189.525195 351.385027 
L 189.789498 340.619281 
L 190.053801 318.325967 
L 190.318104 311.72017 
L 190.582407 333.532333 
L 190.84671 332.149025 
L 191.111013 322.546059 
L 191.375315 347.104791 
L 191.639618 334.53473 
L 191.903921 137.593753 
L 192.168224 151.9982 
L 192.432527 145.422475 
L 192.69683 169.981206 
L 193.225436 153.742371 
L 193.489738 150.885539 
L 194.018344 189.778551 
L 194.282647 185.58853 
L 194.54695 202.508995 
L 194.811253 186.440568 
L 195.604161 233.092134 
L 195.868464 224.682021 
L 196.132767 207.761556 
L 196.39707 208.423139 
L 196.661373 198.048328 
L 196.925676 179.584171 
L 197.454282 215.449943 
L 197.718584 197.076002 
L 197.982887 203.6818 
L 198.24719 216.913443 
L 198.511493 202.508995 
L 198.775796 218.477182 
L 199.040099 241.853085 
L 199.304402 235.247288 
L 199.568705 253.621228 
L 199.833007 237.653041 
L 200.09731 254.182571 
L 200.625916 218.316799 
L 200.890219 211.670905 
L 201.154522 226.356024 
L 201.418825 223.499192 
L 201.683128 210.267549 
L 201.94743 213.124381 
L 202.211733 225.694442 
L 202.476036 211.009323 
L 202.740339 224.240966 
L 203.004642 208.052252 
L 203.268945 202.238348 
L 203.533248 211.841313 
L 203.79755 211.841313 
L 204.061853 195.311783 
L 204.590459 234.064459 
L 204.854762 220.832816 
L 205.119065 235.517935 
L 205.383368 227.398517 
L 205.911973 350.553037 
L 206.176276 352.176921 
L 206.440579 330.34471 
L 206.704882 323.618624 
L 206.969185 341.110456 
L 207.233488 347.756349 
L 207.497791 362.441468 
L 208.026396 332.259288 
L 208.290699 195.993413 
L 208.555002 219.369316 
L 208.819305 194.570009 
L 209.083608 210.538197 
L 209.347911 235.096928 
L 209.612214 219.128741 
L 209.876517 225.774634 
L 210.140819 246.033081 
L 210.405122 231.628634 
L 210.669425 244.198694 
L 210.933728 240.008674 
L 211.462334 227.338374 
L 211.726637 233.152277 
L 211.99094 219.920634 
L 212.255242 212.89383 
L 212.519545 218.958333 
L 212.783848 234.92652 
L 213.048151 210.367789 
L 213.312454 203.721896 
L 213.576757 202.098012 
L 213.84106 209.896662 
L 214.105363 232.550839 
L 214.369665 237.973808 
L 214.633968 221.053343 
L 215.955483 283.201969 
L 216.219785 267.133542 
L 216.484088 291.692274 
L 216.748391 246.43404 
L 217.012694 261.119159 
L 217.276997 247.887516 
L 217.805603 266.782703 
L 218.069906 259.695755 
L 218.598511 288.895586 
L 218.862814 284.705565 
L 219.127117 262.412252 
L 219.39142 268.226155 
L 219.920026 232.771366 
L 220.184329 263.444721 
L 220.448631 249.040273 
L 220.712934 251.897105 
L 220.977237 266.642368 
L 221.24154 259.886211 
L 221.505843 277.378042 
L 221.770146 261.189327 
L 222.034449 268.216131 
L 222.298752 252.247944 
L 222.563054 268.316371 
L 222.827357 245.662194 
L 223.355963 278.520775 
L 223.620266 295.441239 
L 223.884569 278.520775 
L 224.148872 270.401357 
L 224.413175 293.055534 
L 224.677477 275.563703 
L 224.94178 286.329449 
L 225.206083 311.128755 
L 225.734689 266.071001 
L 226.527598 308.753074 
L 227.320506 291.321387 
L 227.584809 219.529699 
L 227.849112 213.936323 
L 228.377718 261.870957 
L 228.642021 245.90277 
L 229.170626 206.699015 
L 229.434929 217.464761 
L 229.699232 210.818868 
L 229.963535 196.133749 
L 230.227838 205.62645 
L 230.492141 227.458661 
L 231.020746 192.013896 
L 231.549352 236.079277 
L 231.813655 213.425101 
L 232.077958 231.799041 
L 232.342261 219.22898 
L 232.606564 200.85504 
L 233.135169 234.886425 
L 233.399472 215.62035 
L 233.663775 222.647155 
L 233.928078 210.838916 
L 234.192381 193.918451 
L 234.456684 204.684197 
L 234.985289 238.63539 
L 235.249592 227.869644 
L 235.513895 250.523821 
L 235.778198 225.724514 
L 236.042501 242.644979 
L 236.571107 229.393288 
L 236.83541 238.996253 
L 237.099712 283.78336 
L 237.364015 280.926528 
L 237.628318 271.323563 
L 237.892621 270.301118 
L 238.156924 279.843939 
L 238.421227 273.208069 
L 238.68553 293.466517 
L 238.949833 304.232263 
L 239.214135 279.673531 
L 239.478438 301.505742 
L 240.007044 316.261029 
L 240.53565 281.598134 
L 240.799953 261.971197 
L 241.064256 282.229644 
L 241.328558 291.832609 
L 241.592861 271.574162 
L 242.121467 304.40267 
L 242.38577 284.144223 
L 243.178678 330.615357 
L 243.442981 323.528409 
L 243.707284 301.235095 
L 243.971587 319.609036 
L 244.500193 286.620144 
L 245.293101 338.504223 
L 245.557404 330.384806 
L 245.821707 352.678119 
L 246.350313 327.227254 
L 246.614616 351.785986 
L 247.143222 312.892974 
L 247.407524 332.159049 
L 247.671827 325.513155 
L 247.93613 309.32444 
L 248.200433 313.514461 
L 248.464736 328.19958 
L 249.521947 250.604013 
L 249.78625 251.265595 
L 250.050553 292.31376 
L 250.314856 306.998879 
L 250.579159 300.934376 
L 250.843462 283.442545 
L 251.107765 290.088438 
L 251.372068 274.020011 
L 251.63637 280.084514 
L 252.429279 212.462799 
L 252.693582 216.241837 
L 252.957885 222.05574 
L 253.222188 238.976205 
L 253.486491 224.291086 
L 253.750793 242.665027 
L 254.015096 226.5966 
L 254.279399 240.189106 
L 254.543702 246.253609 
L 254.808005 239.166661 
L 255.072308 221.674829 
L 255.336611 227.719285 
L 256.129519 253.470869 
L 256.393822 272.736943 
L 256.658125 253.110006 
L 256.922428 269.178433 
L 257.451034 236.079277 
L 257.715336 252.999742 
L 257.979639 257.189762 
L 258.772548 237.703161 
L 259.829759 286.830647 
L 260.094062 292.644551 
L 260.358365 267.845244 
L 260.886971 257.84132 
L 261.151274 248.238355 
L 261.415577 267.504429 
L 261.944182 235.437743 
L 262.208485 255.154896 
L 262.472788 251.40593 
L 263.001394 270.240974 
L 263.265697 258.432735 
L 263.53 238.805798 
L 263.794303 236.410068 
L 264.058605 217.143994 
L 264.322908 214.497666 
L 264.851514 254.122427 
L 265.115817 278.921733 
L 265.38012 264.236614 
L 265.644423 264.236614 
L 265.908726 288.795346 
L 266.173028 263.996039 
L 266.437331 269.809943 
L 266.965937 252.017393 
L 267.23024 258.663286 
L 267.494543 254.884249 
L 267.758846 261.971197 
L 268.287451 303.450393 
L 268.551754 300.593561 
L 268.816057 322.886874 
L 269.08036 311.078635 
L 269.344663 306.888615 
L 269.873269 274.150323 
L 270.137571 288.835442 
L 270.401874 312.211344 
L 270.666177 289.918031 
L 270.93048 296.5539 
L 271.194783 308.362139 
L 271.459086 298.759174 
L 271.723389 279.132237 
L 271.987692 296.624068 
L 272.516297 261.329663 
L 272.7806 277.518377 
L 273.044903 270.491573 
L 273.573509 314.617098 
L 273.837812 307.530149 
L 274.102115 327.157087 
L 274.63072 314.456714 
L 274.895023 297.125267 
L 275.423629 333.351901 
L 276.48084 359.344061 
L 277.273749 313.694892 
L 277.538052 307.089095 
L 278.066658 273.05771 
L 278.330961 279.663507 
L 278.595263 271.54409 
L 278.859566 284.775733 
L 279.388172 259.324868 
L 279.916778 212.232248 
L 280.181081 231.859185 
L 280.445383 234.716017 
L 280.709686 245.481763 
L 280.973989 239.41726 
L 281.238292 236.560428 
L 281.502595 223.328785 
L 281.766898 199.952882 
L 282.031201 214.638001 
L 282.295504 217.494833 
L 282.559806 206.729087 
L 282.824109 230.10499 
L 283.088412 214.036563 
L 283.352715 215.600302 
L 283.617018 219.790323 
L 283.881321 233.021966 
L 284.145624 226.416168 
L 284.674229 243.787712 
L 285.202835 227.097798 
L 285.731441 259.595515 
L 285.995744 281.888829 
L 286.260047 288.915633 
L 286.52435 313.71494 
L 286.788652 297.18541 
L 287.052955 290.539517 
L 287.317258 230.455829 
L 287.581561 207.801652 
L 287.845864 222.486771 
L 288.110167 247.045503 
L 288.37447 240.399609 
L 288.638773 227.829548 
L 288.903075 209.455608 
L 289.167378 227.568925 
L 289.431681 238.033952 
L 290.488893 321.303087 
L 291.281801 255.79643 
L 291.546104 251.536242 
L 291.810407 251.536242 
L 292.07471 234.044411 
L 292.339013 241.071215 
L 292.603316 254.302858 
L 292.867618 242.494619 
L 293.131921 260.86856 
L 293.396224 266.682464 
L 293.660527 247.055527 
L 293.92483 240.419657 
L 294.189133 241.472174 
L 294.453436 248.108044 
L 294.717739 241.472174 
L 295.246344 202.84981 
L 295.77495 248.057924 
L 296.039253 231.528394 
L 296.303556 251.786841 
L 296.567859 237.382394 
L 296.832162 253.350581 
L 297.096464 257.540601 
L 297.360767 241.572414 
L 297.62507 266.131145 
L 297.889373 245.872698 
L 298.153676 258.442759 
L 298.682282 223.148353 
L 298.946585 240.068818 
L 299.210887 220.802744 
L 299.47519 217.945912 
L 299.739493 201.757197 
L 300.003796 194.670249 
L 300.268099 182.100188 
L 300.532402 181.067719 
L 300.796705 183.714048 
L 301.061008 183.714048 
L 301.589613 214.587881 
L 301.853916 191.211979 
L 302.118219 207.180166 
L 302.646825 196.254037 
L 303.175431 243.70752 
L 303.439733 250.343389 
L 303.704036 268.71733 
L 303.968339 255.485687 
L 304.232642 232.83151 
L 304.496945 243.597256 
L 304.761248 219.038525 
L 305.025551 239.296972 
L 305.289854 214.497666 
L 305.554156 207.410717 
L 305.818459 231.969449 
L 306.082762 217.28433 
L 306.347065 234.204794 
L 306.611368 227.598997 
L 306.875671 240.19913 
L 307.139974 264.998436 
L 307.404276 249.030249 
L 307.668579 249.030249 
L 307.932882 268.296323 
L 308.197185 246.464112 
L 308.461488 255.706214 
L 308.725791 281.277367 
L 308.990094 286.449736 
L 309.254397 295.050304 
L 309.518699 311.118731 
L 309.783002 291.491794 
L 310.047305 290.308966 
L 310.311608 280.706 
L 310.575911 255.906694 
L 311.104517 231.127435 
L 311.633122 276.285429 
L 311.897425 201.656957 
L 312.161728 221.915405 
L 312.426031 215.279535 
L 312.690334 238.655438 
L 312.954637 231.56849 
L 313.483243 270.291094 
L 313.747545 254.222666 
L 314.011848 260.28717 
L 314.540454 297.927184 
L 314.804757 288.324219 
L 315.06906 304.853749 
L 315.333363 288.324219 
L 315.597666 282.510315 
L 316.126271 314.837625 
L 316.390574 290.278894 
L 316.654877 306.808423 
L 316.91918 332.850703 
L 317.183483 338.664606 
L 317.447786 315.288704 
L 317.712089 310.567413 
L 318.7693 236.921291 
L 319.033603 248.72953 
L 319.562209 228.872041 
L 319.826511 221.845237 
L 320.090814 236.881195 
L 320.355117 220.351665 
L 320.883723 228.080148 
L 321.148026 247.346222 
L 321.412329 227.719285 
L 321.676632 247.105646 
L 321.940934 251.295667 
L 322.46954 221.143559 
L 322.733843 250.984924 
L 322.998146 261.750669 
L 323.262449 286.309401 
L 323.526752 264.47719 
L 323.791055 271.113059 
L 324.055357 259.30482 
L 324.583963 295.571551 
L 324.848266 292.36388 
L 325.112569 285.788154 
L 325.376872 292.875102 
L 326.16978 341.280863 
L 326.698386 306.868567 
L 326.962689 313.514461 
L 327.491295 328.93133 
L 327.755598 312.4018 
L 328.019901 328.93133 
L 328.284203 308.672882 
L 328.548506 333.472189 
L 329.077112 298.137688 
L 329.341415 314.206115 
L 329.605718 307.570245 
L 330.134324 320.811912 
L 330.398626 311.208947 
L 330.662929 317.27345 
L 330.927232 300.74392 
L 331.455838 287.081247 
L 331.984444 313.213742 
L 332.513049 274.852001 
L 332.777352 296.684212 
L 333.041655 283.452569 
L 333.305958 258.653262 
L 333.570261 280.946576 
L 333.834564 264.417046 
L 334.098867 271.44385 
L 334.627472 245.872698 
L 334.891775 255.475663 
L 335.156078 229.804271 
L 335.420381 247.276054 
L 335.684684 250.132886 
L 335.948987 257.15969 
L 336.477592 221.925429 
L 336.741895 229.012377 
L 337.534804 277.688785 
L 337.799107 261.720597 
L 338.327713 274.811905 
L 338.592015 292.303736 
L 338.856318 295.160568 
L 339.120621 311.690098 
L 339.384924 319.809515 
L 339.91353 280.565665 
L 340.442136 240.359513 
L 340.706438 252.929574 
L 340.970741 236.740859 
L 341.235044 233.884027 
L 341.499347 221.313966 
L 341.76365 246.113273 
L 342.556559 286.600096 
L 343.085164 315.3288 
L 343.61377 280.916504 
L 343.878073 274.27061 
L 344.142376 290.459325 
L 344.406679 273.929795 
L 344.935284 308.342091 
L 345.199587 301.736294 
L 345.992496 259.024149 
L 346.256799 274.992336 
L 347.049707 218.386967 
L 347.31401 229.242928 
L 347.578313 232.09976 
L 347.842616 253.931971 
L 348.106919 260.537769 
L 348.371222 275.222888 
L 348.635525 264.457142 
L 349.16413 290.128534 
L 349.428433 274.060107 
L 349.692736 296.714284 
L 349.957039 280.746096 
L 350.221342 287.381966 
L 350.485645 283.191945 
L 350.749948 302.45802 
L 351.01425 289.887959 
L 351.542856 276.225285 
L 351.807159 292.414 
L 352.071462 270.581789 
L 352.335765 260.978824 
L 352.600068 241.351886 
L 353.392976 278.039624 
L 353.657279 269.920207 
L 353.921582 304.061855 
L 354.185885 308.251875 
L 354.450188 202.358635 
L 354.714491 180.065322 
L 354.978794 201.897533 
L 355.243096 192.294568 
L 355.507399 174.96312 
L 355.771702 185.337931 
L 356.036005 188.194763 
L 356.300308 205.115228 
L 356.564611 196.99581 
L 356.828914 204.082759 
L 357.093216 187.553229 
L 357.357519 207.811676 
L 357.886125 178.391318 
L 358.679034 224.922596 
L 358.943337 218.286727 
L 359.207639 222.476747 
L 359.471942 219.619915 
L 359.736245 212.593111 
L 360.000548 218.407015 
L 360.264851 202.338588 
L 360.529154 195.692694 
L 360.793457 179.724507 
L 361.05776 194.339458 
L 361.322062 277.789025 
L 361.586365 298.047472 
L 361.850668 281.858757 
L 362.114971 292.624503 
L 362.379274 317.183234 
L 362.643577 300.653705 
L 362.90788 317.183234 
L 363.436485 296.814523 
L 363.700788 302.879026 
L 363.965091 324.711237 
L 364.229394 308.74305 
L 364.758 293.987763 
L 365.022303 301.074711 
L 365.550908 331.948545 
L 365.815211 325.884042 
L 366.079514 309.695327 
L 366.343817 302.608379 
L 366.60812 318.797094 
L 366.872423 311.77029 
L 367.136726 294.298506 
L 367.401029 294.298506 
L 367.665331 177.829976 
L 367.929634 182.741722 
L 368.193937 198.810149 
L 368.45824 192.17428 
L 368.986846 240.14901 
L 369.251149 218.316799 
L 369.779754 221.52447 
L 370.044057 236.329876 
L 370.30836 243.356681 
L 370.572663 255.16492 
L 370.836966 278.540822 
L 371.101269 285.14662 
L 371.629874 324.631046 
L 372.422783 262.051389 
L 372.687086 283.8836 
L 372.951389 289.697503 
L 373.215692 283.05161 
L 373.479995 307.610341 
L 373.744297 301.796437 
L 374.0086 292.193472 
L 374.272903 200.193458 
L 374.537206 207.280406 
L 374.801509 189.948958 
L 375.065812 196.554756 
L 375.330115 180.366041 
L 375.85872 210.317669 
L 376.123023 225.002788 
L 376.387326 214.237042 
L 376.651629 197.316578 
L 377.180235 244.529486 
L 377.444538 254.112403 
L 377.973143 300.74392 
L 378.501749 264.948316 
L 378.766052 262.091484 
L 379.294658 294.368674 
L 379.558961 269.569368 
L 379.823264 292.223544 
L 380.087566 274.731713 
L 380.351869 281.758517 
L 380.616172 306.317249 
L 380.880475 299.230301 
L 381.409081 264.787933 
L 381.673384 309.605112 
L 381.937687 295.130496 
L 382.201989 296.463684 
L 382.466292 308.271923 
L 382.730595 314.907793 
L 382.994898 303.099554 
L 383.523504 269.068169 
L 384.052109 234.726041 
L 384.316412 231.388058 
L 384.580715 214.978816 
L 384.845018 235.237264 
L 385.109321 220.552145 
L 385.637927 241.602486 
L 385.90223 248.62929 
L 386.166532 237.562825 
L 386.695138 269.579392 
L 387.223744 236.861147 
L 387.488047 243.50704 
L 388.016653 210.107166 
L 388.280955 209.2852 
L 388.545258 225.353627 
L 388.809561 219.539723 
L 389.073864 216.682891 
L 389.338167 233.212421 
L 389.60247 239.848291 
L 389.866773 264.647597 
L 390.131076 270.461501 
L 390.395378 266.271481 
L 390.659681 211.670905 
L 390.923984 234.325082 
L 391.45259 256.498108 
L 391.716893 240.529921 
L 391.981196 237.673089 
L 392.774104 286.61012 
L 393.038407 280.545617 
L 393.30271 270.942652 
L 393.567013 287.011079 
L 393.831316 285.82825 
L 394.095619 305.455187 
L 394.624224 259.785971 
L 394.888527 265.850474 
L 395.15283 261.660454 
L 395.417133 286.219185 
L 395.945739 249.100417 
L 397.00295 321.804286 
L 397.267253 299.972075 
L 397.531556 308.091492 
L 398.324465 257.089522 
L 398.588767 276.355597 
L 398.85307 263.785536 
L 399.117373 278.470655 
L 399.645979 245.872698 
L 399.910282 221.313966 
L 400.174585 207.130046 
L 400.438888 221.534494 
L 400.70319 244.910396 
L 400.967493 222.25622 
L 401.231796 229.283024 
L 401.496099 241.853085 
L 402.553311 186.961815 
L 402.817613 206.588752 
L 403.081916 213.224621 
L 403.610522 247.245982 
L 403.874825 231.057267 
L 404.139128 224.421398 
L 404.667734 251.676578 
L 404.932036 243.55716 
L 405.196339 259.745875 
L 405.460642 255.555855 
L 405.724945 242.985794 
L 406.253551 250.032646 
L 406.517854 244.218742 
L 406.782157 241.36191 
L 407.046459 266.161217 
L 407.310762 275.764182 
L 407.575065 259.234652 
L 407.839368 264.52731 
L 408.103671 247.035479 
L 408.367974 238.234431 
L 408.632277 218.607494 
L 408.896579 218.607494 
L 409.689488 249.250776 
L 409.953791 224.692045 
L 410.218094 243.065986 
L 410.482397 236.420092 
L 410.7467 242.92565 
L 411.011002 245.782482 
L 411.275305 227.408541 
L 411.539608 244.739989 
L 411.803911 236.620572 
L 412.332517 267.945484 
L 412.59682 265.088652 
L 412.861123 250.684204 
L 413.125425 227.308302 
L 413.389728 243.837831 
L 413.654031 249.451256 
L 413.918334 249.060321 
L 414.182637 272.436224 
L 414.44694 278.500727 
L 414.711243 267.734981 
L 415.239848 304.793605 
L 415.504151 291.561962 
L 415.768454 298.207855 
L 416.032757 291.120907 
L 416.29706 311.379355 
L 416.561363 298.809294 
L 417.089969 256.67854 
L 417.354271 267.444285 
L 417.618574 244.790109 
L 417.882877 250.604013 
L 418.14718 236.199565 
L 418.411483 260.758296 
L 418.940089 228.040052 
L 419.204392 244.228766 
L 419.468694 224.962692 
L 419.732997 244.589629 
L 420.261603 231.307867 
L 420.525906 256.107173 
L 420.790209 231.548442 
L 421.054512 248.077972 
L 421.318814 256.197389 
L 421.583117 272.265816 
L 422.111723 236.039181 
L 422.376026 250.443629 
L 422.640329 273.097806 
L 422.904632 263.494841 
L 423.168935 247.426413 
L 423.433237 254.513362 
L 423.961843 295.611647 
L 424.226146 231.378034 
L 424.754752 257.540601 
L 425.54766 207.531005 
L 425.811963 207.531005 
L 426.076266 206.257961 
L 426.340569 213.284765 
L 426.604872 225.093004 
L 426.869175 218.0662 
L 427.133478 204.834557 
L 427.397781 213.876179 
L 427.662083 212.091912 
L 427.926386 240.910832 
L 428.190689 224.942644 
L 428.454992 223.559336 
L 428.719295 213.956371 
L 428.983598 220.983175 
L 429.247901 218.126343 
L 429.512204 241.502246 
L 430.040809 200.634512 
L 430.569415 237.723209 
L 431.098021 254.413122 
L 431.362324 241.843061 
L 431.626627 257.911488 
L 431.890929 239.537548 
L 432.155232 251.345787 
L 432.419535 236.941339 
L 432.683838 231.127435 
L 433.212444 205.867026 
L 433.476747 213.465196 
L 434.005352 250.684204 
L 434.269655 257.771153 
L 434.798261 226.897319 
L 435.326867 257.079498 
L 435.59117 273.047686 
L 435.855472 258.362567 
L 436.384078 297.255578 
L 436.648381 276.997131 
L 436.912684 290.228774 
L 437.176987 232.610983 
L 437.44129 226.676791 
L 437.705593 232.741295 
L 437.969895 251.115235 
L 438.234198 244.469342 
L 438.498501 258.292399 
L 438.762804 235.999085 
L 439.027107 249.230728 
L 439.29141 230.856788 
L 439.555713 242.665027 
L 439.820016 226.696839 
L 440.084318 246.323777 
L 440.877227 267.083423 
L 441.14153 244.429246 
L 441.405833 254.032211 
L 441.670136 248.218307 
L 441.934439 282.680723 
L 442.198741 297.085171 
L 442.463044 287.92326 
L 442.727347 301.154903 
L 442.99165 284.625373 
L 443.255953 278.019576 
L 443.520256 284.655445 
L 443.784559 278.019576 
L 444.048862 292.704695 
L 444.313164 199.642139 
L 445.370376 257.039403 
L 445.634679 249.952454 
L 446.163285 292.243592 
L 446.427587 289.38676 
L 446.956193 257.490481 
L 447.220496 270.060542 
L 447.749102 255.295231 
L 448.013405 238.765702 
L 448.277707 245.411595 
L 448.54201 234.645849 
L 448.806313 215.379775 
L 449.070616 208.743906 
L 449.334919 212.933926 
L 449.599222 192.675479 
L 449.863525 199.702283 
L 450.127828 192.675479 
L 450.39213 214.50769 
L 450.656433 221.534494 
L 450.920736 236.219613 
L 451.185039 216.592676 
L 451.449342 222.657179 
L 451.713645 205.736714 
L 451.977948 199.672211 
L 452.242251 174.872904 
L 452.506553 162.302843 
L 453.035159 196.254037 
L 453.299462 174.421826 
L 453.563765 170.231805 
L 453.828068 170.231805 
L 454.092371 175.524462 
L 454.356674 171.605089 
L 454.885279 206.548656 
L 455.149582 190.480229 
L 455.413885 193.337061 
L 455.678188 173.078613 
L 455.942491 189.608143 
L 456.206794 195.672646 
L 456.471097 189.858742 
L 456.735399 205.82693 
L 456.999702 266.301553 
L 457.528308 280.415305 
L 457.792611 257.761129 
L 458.056914 268.526874 
L 458.321217 255.956814 
L 458.58552 258.813646 
L 458.849822 239.547571 
L 459.114125 242.745219 
L 459.378428 220.451905 
L 459.642731 220.451905 
L 459.907034 237.783352 
L 460.171337 270.451477 
L 460.43564 256.047029 
L 460.699942 267.855268 
L 460.964245 274.461066 
L 461.228548 299.019797 
L 461.492851 292.955294 
L 461.757154 282.189548 
L 462.021457 259.896235 
L 462.28576 266.923039 
L 462.550063 255.1148 
L 462.814365 233.282589 
L 463.078668 245.85265 
L 463.342971 241.66263 
L 463.607274 240.870736 
L 463.871577 222.957898 
L 464.13588 239.487428 
L 464.400183 245.551931 
L 464.664486 261.620358 
L 464.928788 244.28891 
L 465.193091 255.054656 
L 465.986 308.622762 
L 466.250303 300.503345 
L 467.043211 241.141383 
L 467.307514 238.284551 
L 467.83612 266.391768 
L 468.100423 205.736714 
L 468.364726 266.391768 
L 468.629029 282.460196 
L 468.893332 288.524699 
L 469.157634 275.293056 
L 469.421937 292.784887 
L 469.68624 268.226155 
L 469.950543 275.313103 
L 470.743452 320.15033 
L 471.007755 327.177134 
L 471.272057 337.94288 
L 471.53636 330.855932 
L 472.064966 292.013041 
L 472.329269 280.204802 
L 472.593572 299.470876 
L 472.857875 281.979045 
L 473.122177 277.789025 
L 473.38648 258.52295 
L 473.650783 280.545617 
L 474.443692 238.755678 
L 474.707995 238.755678 
L 474.972298 224.35123 
L 475.2366 251.967273 
L 475.500903 254.152499 
L 475.765206 258.382615 
L 476.029509 269.078193 
L 476.293812 268.055748 
L 476.558115 292.614479 
L 476.822418 299.701427 
L 477.086721 282.36998 
L 477.351023 289.015873 
L 477.615326 272.947446 
L 478.143932 260.277146 
L 478.672538 217.103898 
L 478.936841 206.247937 
L 479.201144 205.766786 
L 479.465446 193.076437 
L 479.729749 202.11806 
L 480.258355 236.971411 
L 480.522658 231.157507 
L 480.786961 215.961165 
L 481.051264 222.566963 
L 481.579869 194.309386 
L 482.372778 214.237042 
L 482.637081 214.237042 
L 482.901384 191.582866 
L 483.165687 321.172775 
L 483.42999 327.778573 
L 483.694292 341.010216 
L 483.958595 346.82412 
L 484.222898 342.634099 
L 484.751504 304.733461 
L 485.015807 304.733461 
L 485.28011 292.494191 
L 485.544412 317.854841 
L 485.808715 293.055534 
L 486.601624 313.424245 
L 486.865927 290.770068 
L 487.13023 306.838495 
L 487.394533 303.981663 
L 487.658835 288.013476 
L 488.187441 274.280634 
L 488.451744 256.949187 
L 488.716047 263.59508 
L 488.98035 273.198045 
L 489.508956 238.254479 
L 489.773258 261.630382 
L 490.301864 276.836747 
L 490.566167 301.395479 
L 490.83047 307.459982 
L 491.094773 327.086919 
L 491.359076 320.451049 
L 491.623379 342.28326 
L 491.887681 317.724529 
L 492.416287 298.829342 
L 492.944893 323.207642 
L 493.209196 303.941567 
L 493.473499 298.127664 
L 493.737802 320.78184 
L 494.002104 327.41771 
L 494.266407 330.274542 
L 494.795013 307.439934 
L 495.059316 307.439934 
L 495.323619 323.408121 
L 495.587922 316.381317 
L 495.852225 336.639764 
L 496.116527 317.012827 
L 496.38083 310.366933 
L 496.645133 327.698381 
L 497.173739 289.065993 
L 497.438042 303.751112 
L 497.966647 264.998436 
L 498.23095 237.90364 
L 498.495253 260.196954 
L 498.759556 266.802751 
L 499.023859 284.134199 
L 499.552465 242.213948 
L 500.08107 273.428597 
L 500.609676 228.611418 
L 500.873979 231.46825 
L 501.666888 192.104112 
L 501.931191 245.862674 
L 502.195493 268.51685 
L 502.459796 252.548663 
L 502.988402 284.615349 
L 503.252705 262.783139 
L 503.517008 252.017393 
L 503.781311 234.685945 
L 504.045614 250.563917 
L 504.574219 208.012156 
L 504.838522 208.012156 
L 505.102825 214.648025 
L 505.367128 208.042228 
L 505.631431 225.965089 
L 505.895734 206.699015 
L 506.160037 206.699015 
L 506.424339 206.278009 
L 506.688642 220.963127 
L 506.952945 215.149224 
L 507.217248 228.811898 
L 507.481551 221.755021 
L 507.745854 238.284551 
L 508.010157 233.843931 
L 508.27446 236.700763 
L 508.538762 248.509002 
L 509.067368 279.072093 
L 509.331671 276.215261 
L 509.595974 269.569368 
L 509.860277 269.569368 
L 510.12458 282.139428 
L 510.653185 258.803622 
L 510.917488 265.449515 
L 511.181791 245.191068 
L 511.710397 276.796651 
L 511.9747 263.565008 
L 512.239003 266.42184 
L 512.503305 289.076017 
L 512.767608 274.390898 
L 513.031911 287.622541 
L 513.296214 279.503124 
L 513.560517 286.108921 
L 513.82482 268.61709 
L 514.089123 261.981221 
L 514.353426 276.385668 
L 514.617728 261.70055 
L 514.882031 274.27061 
L 515.146334 271.413778 
L 515.410637 271.413778 
L 515.67494 286.098897 
L 515.939243 274.290658 
L 516.203546 280.926528 
L 516.732151 241.712749 
L 517.260757 281.197175 
L 517.52506 267.965532 
L 517.789363 288.223979 
L 518.053666 203.110433 
L 518.317969 180.81712 
L 518.846574 191.883585 
L 519.110877 189.026753 
L 519.639483 223.970319 
L 519.903786 246.624496 
L 520.168089 246.624496 
L 520.432392 223.970319 
L 520.696695 217.33445 
L 521.753906 154.113258 
L 522.018209 160.749128 
L 522.282512 154.113258 
L 522.546815 170.642788 
L 522.811118 173.49962 
L 523.07542 190.831068 
L 523.339723 167.455165 
L 523.604026 159.335748 
L 523.868329 166.362552 
L 524.132632 181.047671 
L 524.396935 166.362552 
L 524.661238 175.965517 
L 524.92554 172.276696 
L 525.189843 186.681143 
L 525.718449 231.107387 
L 525.982752 206.30808 
L 526.247055 218.116319 
L 526.775661 208.112395 
L 527.304266 241.672654 
L 527.832872 203.922375 
L 528.097175 237.201962 
L 528.361478 243.847855 
L 528.625781 266.502032 
L 528.890084 259.415084 
L 529.154386 243.446897 
L 529.418689 261.820837 
L 529.682992 247.416389 
L 529.947295 266.682464 
L 530.475901 224.93262 
L 530.740204 249.731927 
L 531.004507 245.010636 
L 531.268809 251.075139 
L 531.533112 233.743692 
L 531.797415 248.719506 
L 532.061718 232.189976 
L 532.326021 232.189976 
L 532.590324 211.821265 
L 532.854627 217.885768 
L 533.11893 210.858964 
L 533.383232 188.204787 
L 533.647535 220.191282 
L 533.911838 237.502681 
L 534.176141 237.502681 
L 534.96905 306.186937 
L 535.233353 312.832831 
L 535.761958 271.734546 
L 536.026261 268.877713 
L 536.290564 249.250776 
L 536.554867 252.107608 
L 536.81917 247.917588 
L 537.083473 269.54932 
L 537.347775 255.144872 
L 537.612078 260.958776 
L 537.876381 237.582873 
L 538.404987 275.603799 
L 538.66929 267.484381 
L 538.933593 211.289994 
L 539.462198 257.921512 
L 539.726501 249.802095 
L 540.255107 288.524699 
L 540.51941 214.166874 
L 540.783713 230.135062 
L 541.048016 212.803614 
L 541.576621 253.510964 
L 541.840924 267.915412 
L 542.105227 245.622099 
L 542.633833 293.075582 
L 542.898136 287.261678 
L 543.426742 254.373026 
L 544.21965 287.512277 
L 544.483953 291.702298 
L 545.276862 234.39525 
L 545.541165 234.515538 
L 545.805467 242.203924 
L 546.06977 229.924558 
L 546.334073 223.960295 
L 546.598376 199.160988 
L 546.862679 201.306118 
L 547.126982 217.274306 
L 547.391285 201.306118 
L 547.655588 220.572193 
L 547.91989 217.715361 
L 548.448496 256.868995 
L 548.712799 237.602921 
L 549.241405 276.495932 
L 549.505708 276.495932 
L 549.77001 265.730186 
L 550.034313 265.730186 
L 550.298616 246.464112 
L 550.562919 254.583529 
L 550.827222 247.556725 
L 551.091525 262.241844 
L 551.355828 262.241844 
L 551.620131 281.507918 
L 551.884433 278.651086 
L 552.677342 239.908434 
L 552.941645 265.088652 
L 553.205948 269.278672 
L 553.470251 250.012598 
L 553.734554 262.582659 
L 553.998856 281.848733 
L 554.263159 273.729316 
L 554.527462 256.237485 
L 554.791765 257.25993 
L 555.056068 277.518377 
L 555.584674 255.345351 
L 556.113279 295.491359 
L 556.377582 272.115456 
L 556.641885 286.800575 
L 557.434794 233.432949 
L 557.699097 241.552366 
L 558.227702 204.764389 
L 558.492005 214.597905 
L 558.756308 229.002353 
L 559.020611 229.002353 
L 559.284914 230.776596 
L 559.549217 205.977289 
L 559.81352 205.977289 
L 560.077823 215.580255 
L 560.342125 231.768969 
L 560.606428 218.537326 
L 560.870731 225.624274 
L 561.135034 208.70381 
L 561.399337 207.370621 
L 561.927943 248.077972 
L 562.192245 228.811898 
L 562.456548 250.644108 
L 562.720851 257.670913 
L 562.985154 257.670913 
L 563.249457 240.339465 
L 563.51376 257.25993 
L 563.778063 233.884027 
L 564.042366 258.442759 
L 564.306668 258.442759 
L 564.570971 247.99778 
L 564.835274 247.99778 
L 565.099577 230.505949 
L 565.36388 242.494619 
L 565.628183 220.201306 
L 565.892486 220.201306 
L 566.156789 203.671776 
L 566.685394 232.681151 
L 566.949697 228.49113 
L 567.214 232.681151 
L 567.478303 239.707955 
L 567.742606 256.237485 
L 568.006909 246.63452 
L 568.271212 263.554984 
L 568.535514 245.181044 
L 568.799817 259.866163 
L 569.328423 216.863323 
L 569.592726 223.499192 
L 569.857029 206.969663 
L 570.121332 182.410931 
L 570.385635 175.384127 
L 570.649937 158.463662 
L 570.91424 158.463662 
L 571.442846 144.430101 
L 571.707149 144.430101 
L 571.971452 168.988833 
L 572.235755 171.845665 
L 572.500058 178.932613 
L 572.76436 159.666539 
L 573.028663 175.634726 
L 573.292966 175.634726 
L 573.557269 159.666539 
L 574.085875 148.870721 
L 574.350178 148.870721 
L 574.61448 171.524898 
L 574.878783 171.524898 
L 575.143086 166.743463 
L 575.407389 157.70184 
L 575.671692 157.70184 
L 576.464601 185.568482 
L 576.728903 185.568482 
L 577.257509 216.642796 
L 577.521812 210.006926 
L 578.050418 235.578079 
L 578.314721 235.578079 
L 578.579024 253.952019 
L 578.843326 239.2669 
L 579.107629 252.408328 
L 579.371932 252.408328 
L 579.636235 259.054221 
L 579.900538 259.054221 
L 580.429144 225.995161 
L 580.693447 225.995161 
L 580.957749 242.524691 
L 581.222052 234.034387 
L 581.486355 246.644544 
L 581.750658 246.644544 
L 582.014961 253.280413 
L 582.279264 253.280413 
L 582.543567 230.626236 
L 582.80787 224.561733 
L 583.072172 215.87095 
L 583.336475 215.87095 
L 583.865081 183.974671 
L 584.129384 190.580468 
L 584.393687 190.580468 
L 584.65799 183.553664 
L 584.922293 190.580468 
L 585.450898 190.580468 
L 585.715201 189.999078 
L 585.979504 189.999078 
L 586.243807 201.346214 
L 586.50811 201.38631 
L 586.772413 191.783345 
L 587.036715 188.926513 
L 587.301018 172.396983 
L 587.565321 175.384127 
L 587.829624 186.149873 
L 588.093927 174.341634 
L 588.622533 174.341634 
L 588.886836 196.99581 
L 589.151138 196.99581 
L 589.415441 174.341634 
L 589.679744 183.202825 
L 589.944047 187.392845 
L 590.20835 199.201084 
L 590.472653 186.631023 
L 591.001259 216.051381 
L 591.529864 180.81712 
L 591.794167 186.631023 
L 592.322773 173.960723 
L 592.851379 137.002338 
L 593.379984 137.002338 
L 593.90859 153.311341 
L 594.172893 147.246838 
L 594.965802 147.246838 
L 595.230105 157.12045 
L 595.494407 179.774627 
L 595.75871 179.734531 
L 596.023013 198.810149 
L 596.287316 198.810149 
L 596.551619 218.076224 
L 596.815922 223.890127 
L 597.080225 240.419657 
L 597.344528 247.506605 
L 597.60883 240.870736 
L 597.873133 240.870736 
L 598.401739 207.571101 
L 598.666042 207.571101 
L 598.930345 204.714269 
L 599.194648 198.108471 
L 599.458951 194.499841 
L 599.723253 207.069902 
L 599.987556 197.466937 
L 600.251859 213.535364 
L 600.516162 213.535364 
L 601.044768 169.710559 
L 601.837676 169.710559 
L 602.101979 176.897747 
L 602.630585 176.897747 
L 602.894888 175.805134 
L 603.159191 183.924551 
L 603.423494 183.924551 
L 603.687796 201.255999 
L 603.952099 201.255999 
L 604.216402 188.685938 
L 604.480705 166.031761 
L 604.745008 160.217857 
L 605.273614 160.217857 
L 605.537917 161.671333 
L 605.802219 168.257083 
L 606.066522 168.257083 
L 606.330825 174.902976 
L 606.595128 174.902976 
L 606.859431 180.967479 
L 607.65234 133.874859 
L 608.180945 133.874859 
L 608.445248 156.529036 
L 608.709551 156.529036 
L 608.973854 149.502231 
L 609.238157 149.502231 
L 609.50246 133.874859 
L 610.295368 133.874859 
L 610.559671 144.179502 
L 610.823974 141.32267 
L 611.616883 141.32267 
L 611.881186 155.727118 
L 612.145488 155.727118 
L 612.409791 168.297179 
L 612.674094 164.107158 
L 613.467003 164.107158 
L 613.995608 175.905373 
L 614.259911 165.139628 
L 614.524214 165.139628 
L 614.788517 146.765687 
L 615.581426 146.765687 
L 615.845729 156.047885 
L 616.638637 156.047885 
L 616.90294 135.789438 
L 618.488757 135.789438 
L 618.75306 143.908855 
L 619.017363 143.908855 
L 619.281666 137.844352 
L 622.188998 137.844352 
L 622.4533 143.908855 
L 623.246209 143.908855 
L 623.510512 166.563032 
L 623.774815 166.563032 
L 624.039118 159.476083 
L 625.889238 159.476083 
L 626.153541 160.518576 
L 626.417843 137.8644 
L 628.532266 137.8644 
L 628.796569 125.294339 
L 629.060872 142.565643 
L 629.325175 142.565643 
L 629.589478 167.124374 
L 629.853781 167.124374 
L 630.118084 142.565643 
L 630.910992 142.565643 
L 631.175295 143.838687 
L 632.49681 143.838687 
L 632.761112 143.016721 
L 633.025415 143.016721 
L 633.289718 128.612274 
L 634.875535 128.612274 
L 635.139838 117.916696 
L 636.19705 117.916696 
L 636.461353 123.981199 
L 636.725656 115.861781 
L 639.89729 115.861781 
L 640.161593 126.326808 
L 640.425896 124.823212 
L 640.954501 124.823212 
L 641.218804 132.94263 
L 641.74741 102.880738 
L 642.011713 102.880738 
L 642.276016 107.070758 
L 642.540319 102.880738 
L 648.090679 102.880738 
L 648.354982 115.450798 
L 648.883588 115.450798 
L 649.147891 109.386295 
L 649.676496 109.386295 
L 649.940799 97.507889 
L 650.205102 93.768947 
L 670.29212 93.768947 
L 670.556423 95.152255 
L 677.956904 95.152255 
L 678.221206 96.415276 
L 682.450052 96.415276 
L 682.714355 98.560406 
L 683.242961 98.560406 
L 683.507264 101.417238 
L 684.300173 101.417238 
L 684.564475 94.81144 
L 688.793321 94.81144 
L 689.057624 93.668707 
L 713.902094 93.668707 
L 714.166397 92.165112 
L 751.168799 92.165112 
L 751.433102 91.744105 
L 758.304977 91.744105 
L 758.56928 88.887273 
L 871.690909 88.887273 
L 871.690909 88.887273 
" style="fill:none;stroke:#8dd3c7;stroke-linecap:square;stroke-width:1.5;"/>
   </g>
   <g id="line2d_17">
    <path clip-path="url(#p42994d3ef5)" d="M 161.509091 161.952004 
L 191.639618 161.952004 
L 191.903921 137.593753 
L 592.587076 137.593753 
L 592.851379 137.002338 
L 607.388037 137.002338 
L 607.65234 133.874859 
L 628.532266 133.874859 
L 628.796569 125.294339 
L 634.875535 125.294339 
L 635.139838 117.916696 
L 636.461353 117.916696 
L 636.725656 115.861781 
L 641.483107 115.861781 
L 641.74741 102.880738 
L 649.676496 102.880738 
L 650.205102 93.768947 
L 713.902094 93.668707 
L 714.166397 92.165112 
L 751.168799 92.165112 
L 751.433102 91.744105 
L 758.304977 91.744105 
L 758.56928 88.887273 
L 871.690909 88.887273 
L 871.690909 88.887273 
" style="fill:none;stroke:#feffb3;stroke-linecap:square;stroke-width:1.5;"/>
   </g>
   <g id="line2d_18">
    <path clip-path="url(#p42994d3ef5)" d="M 161.509091 258.636221 
L 163.359211 258.636221 
L 163.623514 272.676533 
L 165.473634 272.676533 
L 165.737937 285.843026 
L 167.588057 285.843026 
L 167.85236 298.190084 
L 169.70248 298.190084 
L 169.966783 309.768706 
L 171.816903 309.768706 
L 172.081206 320.626717 
L 173.931326 320.626717 
L 174.195629 330.808964 
L 176.045749 330.808964 
L 176.310052 340.357504 
L 178.160172 340.357504 
L 178.424475 349.311778 
L 180.274595 349.311778 
L 180.538898 357.708771 
L 182.389018 357.708771 
L 182.653321 365.583165 
L 184.503441 365.583165 
L 184.767744 372.967485 
L 186.617864 372.967485 
L 186.882167 379.892232 
L 188.732287 379.892232 
L 188.99659 386.386007 
L 190.84671 386.386007 
L 191.111013 392.475633 
L 192.961133 392.475633 
L 193.225436 398.186263 
L 195.075556 398.186263 
L 195.339859 403.541484 
L 197.189979 403.541484 
L 197.454282 408.563416 
L 199.304402 408.563416 
L 199.568705 413.2728 
L 201.418825 413.2728 
L 201.683128 417.68909 
L 203.533248 417.68909 
L 203.79755 421.830526 
L 205.647671 421.830526 
L 205.911973 425.714213 
L 207.762094 425.714213 
L 208.026396 429.356194 
L 209.876517 429.356194 
L 210.140819 432.771511 
L 211.99094 432.771511 
L 212.255242 435.974271 
L 214.105363 435.974271 
L 214.369665 438.977703 
L 216.219785 438.977703 
L 216.484088 441.794213 
L 218.334208 441.794213 
L 218.598511 444.435432 
L 220.448631 444.435432 
L 220.712934 446.912272 
L 222.563054 446.912272 
L 222.827357 449.234963 
L 224.677477 449.234963 
L 224.94178 451.413097 
L 226.7919 451.413097 
L 227.056203 453.455672 
L 228.906323 453.455672 
L 229.170626 455.371125 
L 231.020746 455.371125 
L 231.285049 457.167367 
L 233.135169 457.167367 
L 233.399472 458.851817 
L 235.249592 458.851817 
L 235.513895 460.431433 
L 237.364015 460.431433 
L 237.628318 461.91274 
L 239.478438 461.91274 
L 239.742741 463.301855 
L 241.592861 463.301855 
L 241.857164 464.604517 
L 243.707284 464.604517 
L 243.971587 465.826106 
L 245.821707 465.826106 
L 246.08601 466.971668 
L 247.93613 466.971668 
L 248.200433 468.045934 
L 250.050553 468.045934 
L 250.314856 469.053341 
L 252.164976 469.053341 
L 252.429279 469.998051 
L 254.279399 469.998051 
L 254.543702 470.883966 
L 256.393822 470.883966 
L 256.658125 471.714745 
L 258.508245 471.714745 
L 258.772548 472.493819 
L 260.622668 472.493819 
L 260.886971 473.224406 
L 262.737091 473.224406 
L 263.001394 473.909524 
L 264.851514 473.909524 
L 265.115817 474.552003 
L 266.965937 474.552003 
L 267.23024 475.154496 
L 269.08036 475.154496 
L 269.344663 475.719493 
L 271.194783 475.719493 
L 271.459086 476.249326 
L 273.309206 476.249326 
L 273.573509 476.746184 
L 275.423629 476.746184 
L 275.687932 477.212119 
L 277.538052 477.212119 
L 277.802355 477.649056 
L 279.652475 477.649056 
L 279.916778 478.0588 
L 281.766898 478.0588 
L 282.031201 478.443043 
L 283.881321 478.443043 
L 284.145624 478.803372 
L 285.995744 478.803372 
L 286.260047 479.141276 
L 288.110167 479.141276 
L 288.37447 479.458149 
L 290.22459 479.458149 
L 290.488893 479.755302 
L 292.339013 479.755302 
L 292.603316 480.033961 
L 294.453436 480.033961 
L 294.717739 480.295277 
L 296.567859 480.295277 
L 296.832162 480.540329 
L 298.682282 480.540329 
L 298.946585 480.770131 
L 300.796705 480.770131 
L 301.061008 480.98563 
L 302.911128 480.98563 
L 303.175431 481.187718 
L 305.025551 481.187718 
L 305.289854 481.377228 
L 307.139974 481.377228 
L 307.404276 481.554944 
L 309.254397 481.554944 
L 309.518699 481.7216 
L 311.36882 481.7216 
L 311.633122 481.877883 
L 313.483243 481.877883 
L 313.747545 482.02444 
L 315.597666 482.02444 
L 315.861968 482.161876 
L 317.712089 482.161876 
L 317.976391 482.290758 
L 319.826511 482.290758 
L 320.355117 482.41162 
L 321.940934 482.41162 
L 322.46954 482.524959 
L 326.16978 482.631244 
L 326.698386 482.730915 
L 330.398626 482.824382 
L 330.927232 482.912032 
L 334.627472 482.994228 
L 335.156078 483.071307 
L 338.856318 483.14359 
L 339.384924 483.211374 
L 343.085164 483.274939 
L 343.61377 483.334549 
L 349.428433 483.442868 
L 350.221342 483.492026 
L 355.771702 483.581354 
L 356.564611 483.621894 
L 364.229394 483.728991 
L 365.286606 483.760342 
L 374.801509 483.86741 
L 376.123023 483.890146 
L 389.60247 483.999745 
L 391.981196 484.027842 
L 419.204392 484.137966 
L 424.754752 484.154581 
L 871.690909 484.232727 
L 871.690909 484.232727 
" style="fill:none;stroke:#bfbbd9;stroke-linecap:square;stroke-width:1.5;"/>
   </g>
   <g id="patch_3">
    <path d="M 126 504 
L 126 69.12 
" style="fill:none;stroke:#ffffff;stroke-linecap:square;stroke-linejoin:miter;stroke-width:0.8;"/>
   </g>
   <g id="patch_4">
    <path d="M 907.2 504 
L 907.2 69.12 
" style="fill:none;stroke:#ffffff;stroke-linecap:square;stroke-linejoin:miter;stroke-width:0.8;"/>
   </g>
   <g id="patch_5">
    <path d="M 126 504 
L 907.2 504 
" style="fill:none;stroke:#ffffff;stroke-linecap:square;stroke-linejoin:miter;stroke-width:0.8;"/>
   </g>
   <g id="patch_6">
    <path d="M 126 69.12 
L 907.2 69.12 
" style="fill:none;stroke:#ffffff;stroke-linecap:square;stroke-linejoin:miter;stroke-width:0.8;"/>
   </g>
   <g id="text_17">
    <!-- instance 4 with error 0.01961271719406399 -->
    <g style="fill:#ffffff;" transform="translate(381.864375 63.12)scale(0.12 -0.12)">
     <defs>
      <path d="M 2834 3397 
L 2834 2853 
Q 2591 2978 2328 3040 
Q 2066 3103 1784 3103 
Q 1356 3103 1142 2972 
Q 928 2841 928 2578 
Q 928 2378 1081 2264 
Q 1234 2150 1697 2047 
L 1894 2003 
Q 2506 1872 2764 1633 
Q 3022 1394 3022 966 
Q 3022 478 2636 193 
Q 2250 -91 1575 -91 
Q 1294 -91 989 -36 
Q 684 19 347 128 
L 347 722 
Q 666 556 975 473 
Q 1284 391 1588 391 
Q 1994 391 2212 530 
Q 2431 669 2431 922 
Q 2431 1156 2273 1281 
Q 2116 1406 1581 1522 
L 1381 1569 
Q 847 1681 609 1914 
Q 372 2147 372 2553 
Q 372 3047 722 3315 
Q 1072 3584 1716 3584 
Q 2034 3584 2315 3537 
Q 2597 3491 2834 3397 
z
" id="DejaVuSans-73" transform="scale(0.015625)"/>
      <path d="M 3122 3366 
L 3122 2828 
Q 2878 2963 2633 3030 
Q 2388 3097 2138 3097 
Q 1578 3097 1268 2742 
Q 959 2388 959 1747 
Q 959 1106 1268 751 
Q 1578 397 2138 397 
Q 2388 397 2633 464 
Q 2878 531 3122 666 
L 3122 134 
Q 2881 22 2623 -34 
Q 2366 -91 2075 -91 
Q 1284 -91 818 406 
Q 353 903 353 1747 
Q 353 2603 823 3093 
Q 1294 3584 2113 3584 
Q 2378 3584 2631 3529 
Q 2884 3475 3122 3366 
z
" id="DejaVuSans-63" transform="scale(0.015625)"/>
      <path id="DejaVuSans-20" transform="scale(0.015625)"/>
      <path d="M 269 3500 
L 844 3500 
L 1563 769 
L 2278 3500 
L 2956 3500 
L 3675 769 
L 4391 3500 
L 4966 3500 
L 4050 0 
L 3372 0 
L 2619 2869 
L 1863 0 
L 1184 0 
L 269 3500 
z
" id="DejaVuSans-77" transform="scale(0.015625)"/>
      <path d="M 3513 2113 
L 3513 0 
L 2938 0 
L 2938 2094 
Q 2938 2591 2744 2837 
Q 2550 3084 2163 3084 
Q 1697 3084 1428 2787 
Q 1159 2491 1159 1978 
L 1159 0 
L 581 0 
L 581 4863 
L 1159 4863 
L 1159 2956 
Q 1366 3272 1645 3428 
Q 1925 3584 2291 3584 
Q 2894 3584 3203 3211 
Q 3513 2838 3513 2113 
z
" id="DejaVuSans-68" transform="scale(0.015625)"/>
      <path d="M 684 794 
L 1344 794 
L 1344 0 
L 684 0 
L 684 794 
z
" id="DejaVuSans-2e" transform="scale(0.015625)"/>
      <path d="M 703 97 
L 703 672 
Q 941 559 1184 500 
Q 1428 441 1663 441 
Q 2288 441 2617 861 
Q 2947 1281 2994 2138 
Q 2813 1869 2534 1725 
Q 2256 1581 1919 1581 
Q 1219 1581 811 2004 
Q 403 2428 403 3163 
Q 403 3881 828 4315 
Q 1253 4750 1959 4750 
Q 2769 4750 3195 4129 
Q 3622 3509 3622 2328 
Q 3622 1225 3098 567 
Q 2575 -91 1691 -91 
Q 1453 -91 1209 -44 
Q 966 3 703 97 
z
M 1959 2075 
Q 2384 2075 2632 2365 
Q 2881 2656 2881 3163 
Q 2881 3666 2632 3958 
Q 2384 4250 1959 4250 
Q 1534 4250 1286 3958 
Q 1038 3666 1038 3163 
Q 1038 2656 1286 2365 
Q 1534 2075 1959 2075 
z
" id="DejaVuSans-39" transform="scale(0.015625)"/>
      <path d="M 2113 2584 
Q 1688 2584 1439 2293 
Q 1191 2003 1191 1497 
Q 1191 994 1439 701 
Q 1688 409 2113 409 
Q 2538 409 2786 701 
Q 3034 994 3034 1497 
Q 3034 2003 2786 2293 
Q 2538 2584 2113 2584 
z
M 3366 4563 
L 3366 3988 
Q 3128 4100 2886 4159 
Q 2644 4219 2406 4219 
Q 1781 4219 1451 3797 
Q 1122 3375 1075 2522 
Q 1259 2794 1537 2939 
Q 1816 3084 2150 3084 
Q 2853 3084 3261 2657 
Q 3669 2231 3669 1497 
Q 3669 778 3244 343 
Q 2819 -91 2113 -91 
Q 1303 -91 875 529 
Q 447 1150 447 2328 
Q 447 3434 972 4092 
Q 1497 4750 2381 4750 
Q 2619 4750 2861 4703 
Q 3103 4656 3366 4563 
z
" id="DejaVuSans-36" transform="scale(0.015625)"/>
      <path d="M 525 4666 
L 3525 4666 
L 3525 4397 
L 1831 0 
L 1172 0 
L 2766 4134 
L 525 4134 
L 525 4666 
z
" id="DejaVuSans-37" transform="scale(0.015625)"/>
     </defs>
     <use xlink:href="#DejaVuSans-69"/>
     <use x="27.783203" xlink:href="#DejaVuSans-6e"/>
     <use x="91.162109" xlink:href="#DejaVuSans-73"/>
     <use x="143.261719" xlink:href="#DejaVuSans-74"/>
     <use x="182.470703" xlink:href="#DejaVuSans-61"/>
     <use x="243.75" xlink:href="#DejaVuSans-6e"/>
     <use x="307.128906" xlink:href="#DejaVuSans-63"/>
     <use x="362.109375" xlink:href="#DejaVuSans-65"/>
     <use x="423.632812" xlink:href="#DejaVuSans-20"/>
     <use x="455.419922" xlink:href="#DejaVuSans-34"/>
     <use x="519.042969" xlink:href="#DejaVuSans-20"/>
     <use x="550.830078" xlink:href="#DejaVuSans-77"/>
     <use x="632.617188" xlink:href="#DejaVuSans-69"/>
     <use x="660.400391" xlink:href="#DejaVuSans-74"/>
     <use x="699.609375" xlink:href="#DejaVuSans-68"/>
     <use x="762.988281" xlink:href="#DejaVuSans-20"/>
     <use x="794.775391" xlink:href="#DejaVuSans-65"/>
     <use x="856.298828" xlink:href="#DejaVuSans-72"/>
     <use x="895.662109" xlink:href="#DejaVuSans-72"/>
     <use x="934.525391" xlink:href="#DejaVuSans-6f"/>
     <use x="995.707031" xlink:href="#DejaVuSans-72"/>
     <use x="1036.820312" xlink:href="#DejaVuSans-20"/>
     <use x="1068.607422" xlink:href="#DejaVuSans-30"/>
     <use x="1132.230469" xlink:href="#DejaVuSans-2e"/>
     <use x="1164.017578" xlink:href="#DejaVuSans-30"/>
     <use x="1227.640625" xlink:href="#DejaVuSans-31"/>
     <use x="1291.263672" xlink:href="#DejaVuSans-39"/>
     <use x="1354.886719" xlink:href="#DejaVuSans-36"/>
     <use x="1418.509766" xlink:href="#DejaVuSans-31"/>
     <use x="1482.132812" xlink:href="#DejaVuSans-32"/>
     <use x="1545.755859" xlink:href="#DejaVuSans-37"/>
     <use x="1609.378906" xlink:href="#DejaVuSans-31"/>
     <use x="1673.001953" xlink:href="#DejaVuSans-37"/>
     <use x="1736.625" xlink:href="#DejaVuSans-31"/>
     <use x="1800.248047" xlink:href="#DejaVuSans-39"/>
     <use x="1863.871094" xlink:href="#DejaVuSans-34"/>
     <use x="1927.494141" xlink:href="#DejaVuSans-30"/>
     <use x="1991.117188" xlink:href="#DejaVuSans-36"/>
     <use x="2054.740234" xlink:href="#DejaVuSans-33"/>
     <use x="2118.363281" xlink:href="#DejaVuSans-39"/>
     <use x="2181.986328" xlink:href="#DejaVuSans-39"/>
    </g>
   </g>
   <g id="legend_1">
    <g id="patch_7">
     <path d="M 805.348438 499 
L 900.2 499 
Q 902.2 499 902.2 497 
L 902.2 453.965625 
Q 902.2 451.965625 900.2 451.965625 
L 805.348438 451.965625 
Q 803.348438 451.965625 803.348438 453.965625 
L 803.348438 497 
Q 803.348438 499 805.348438 499 
z
" style="opacity:0.8;stroke:#cccccc;stroke-linejoin:miter;"/>
    </g>
    <g id="line2d_19">
     <path d="M 807.348438 460.064062 
L 827.348438 460.064062 
" style="fill:none;stroke:#8dd3c7;stroke-linecap:square;stroke-width:1.5;"/>
    </g>
    <g id="line2d_20"/>
    <g id="text_18">
     <!-- cost -->
     <g style="fill:#ffffff;" transform="translate(835.348438 463.564062)scale(0.1 -0.1)">
      <use xlink:href="#DejaVuSans-63"/>
      <use x="54.980469" xlink:href="#DejaVuSans-6f"/>
      <use x="116.162109" xlink:href="#DejaVuSans-73"/>
      <use x="168.261719" xlink:href="#DejaVuSans-74"/>
     </g>
    </g>
    <g id="line2d_21">
     <path d="M 807.348438 474.742188 
L 827.348438 474.742188 
" style="fill:none;stroke:#feffb3;stroke-linecap:square;stroke-width:1.5;"/>
    </g>
    <g id="line2d_22"/>
    <g id="text_19">
     <!-- best cost -->
     <g style="fill:#ffffff;" transform="translate(835.348438 478.242188)scale(0.1 -0.1)">
      <defs>
       <path d="M 3116 1747 
Q 3116 2381 2855 2742 
Q 2594 3103 2138 3103 
Q 1681 3103 1420 2742 
Q 1159 2381 1159 1747 
Q 1159 1113 1420 752 
Q 1681 391 2138 391 
Q 2594 391 2855 752 
Q 3116 1113 3116 1747 
z
M 1159 2969 
Q 1341 3281 1617 3432 
Q 1894 3584 2278 3584 
Q 2916 3584 3314 3078 
Q 3713 2572 3713 1747 
Q 3713 922 3314 415 
Q 2916 -91 2278 -91 
Q 1894 -91 1617 61 
Q 1341 213 1159 525 
L 1159 0 
L 581 0 
L 581 4863 
L 1159 4863 
L 1159 2969 
z
" id="DejaVuSans-62" transform="scale(0.015625)"/>
      </defs>
      <use xlink:href="#DejaVuSans-62"/>
      <use x="63.476562" xlink:href="#DejaVuSans-65"/>
      <use x="125" xlink:href="#DejaVuSans-73"/>
      <use x="177.099609" xlink:href="#DejaVuSans-74"/>
      <use x="216.308594" xlink:href="#DejaVuSans-20"/>
      <use x="248.095703" xlink:href="#DejaVuSans-63"/>
      <use x="303.076172" xlink:href="#DejaVuSans-6f"/>
      <use x="364.257812" xlink:href="#DejaVuSans-73"/>
      <use x="416.357422" xlink:href="#DejaVuSans-74"/>
     </g>
    </g>
    <g id="line2d_23">
     <path d="M 807.348438 489.420313 
L 827.348438 489.420313 
" style="fill:none;stroke:#bfbbd9;stroke-linecap:square;stroke-width:1.5;"/>
    </g>
    <g id="line2d_24"/>
    <g id="text_20">
     <!-- temperature -->
     <g style="fill:#ffffff;" transform="translate(835.348438 492.920313)scale(0.1 -0.1)">
      <defs>
       <path d="M 3328 2828 
Q 3544 3216 3844 3400 
Q 4144 3584 4550 3584 
Q 5097 3584 5394 3201 
Q 5691 2819 5691 2113 
L 5691 0 
L 5113 0 
L 5113 2094 
Q 5113 2597 4934 2840 
Q 4756 3084 4391 3084 
Q 3944 3084 3684 2787 
Q 3425 2491 3425 1978 
L 3425 0 
L 2847 0 
L 2847 2094 
Q 2847 2600 2669 2842 
Q 2491 3084 2119 3084 
Q 1678 3084 1418 2786 
Q 1159 2488 1159 1978 
L 1159 0 
L 581 0 
L 581 3500 
L 1159 3500 
L 1159 2956 
Q 1356 3278 1631 3431 
Q 1906 3584 2284 3584 
Q 2666 3584 2933 3390 
Q 3200 3197 3328 2828 
z
" id="DejaVuSans-6d" transform="scale(0.015625)"/>
       <path d="M 1159 525 
L 1159 -1331 
L 581 -1331 
L 581 3500 
L 1159 3500 
L 1159 2969 
Q 1341 3281 1617 3432 
Q 1894 3584 2278 3584 
Q 2916 3584 3314 3078 
Q 3713 2572 3713 1747 
Q 3713 922 3314 415 
Q 2916 -91 2278 -91 
Q 1894 -91 1617 61 
Q 1341 213 1159 525 
z
M 3116 1747 
Q 3116 2381 2855 2742 
Q 2594 3103 2138 3103 
Q 1681 3103 1420 2742 
Q 1159 2381 1159 1747 
Q 1159 1113 1420 752 
Q 1681 391 2138 391 
Q 2594 391 2855 752 
Q 3116 1113 3116 1747 
z
" id="DejaVuSans-70" transform="scale(0.015625)"/>
       <path d="M 544 1381 
L 544 3500 
L 1119 3500 
L 1119 1403 
Q 1119 906 1312 657 
Q 1506 409 1894 409 
Q 2359 409 2629 706 
Q 2900 1003 2900 1516 
L 2900 3500 
L 3475 3500 
L 3475 0 
L 2900 0 
L 2900 538 
Q 2691 219 2414 64 
Q 2138 -91 1772 -91 
Q 1169 -91 856 284 
Q 544 659 544 1381 
z
M 1991 3584 
L 1991 3584 
z
" id="DejaVuSans-75" transform="scale(0.015625)"/>
      </defs>
      <use xlink:href="#DejaVuSans-74"/>
      <use x="39.208984" xlink:href="#DejaVuSans-65"/>
      <use x="100.732422" xlink:href="#DejaVuSans-6d"/>
      <use x="198.144531" xlink:href="#DejaVuSans-70"/>
      <use x="261.621094" xlink:href="#DejaVuSans-65"/>
      <use x="323.144531" xlink:href="#DejaVuSans-72"/>
      <use x="364.257812" xlink:href="#DejaVuSans-61"/>
      <use x="425.537109" xlink:href="#DejaVuSans-74"/>
      <use x="464.746094" xlink:href="#DejaVuSans-75"/>
      <use x="528.125" xlink:href="#DejaVuSans-72"/>
      <use x="566.988281" xlink:href="#DejaVuSans-65"/>
     </g>
    </g>
   </g>
  </g>
 </g>
 <defs>
  <clipPath id="p42994d3ef5">
   <rect height="434.88" width="781.2" x="126" y="69.12"/>
  </clipPath>
 </defs>
</svg>
