<?xml version="1.0" encoding="utf-8" standalone="no"?>
<!DOCTYPE svg PUBLIC "-//W3C//DTD SVG 1.1//EN"
  "http://www.w3.org/Graphics/SVG/1.1/DTD/svg11.dtd">
<svg height="576pt" version="1.1" viewBox="0 0 1008 576" width="1008pt" xmlns="http://www.w3.org/2000/svg" xmlns:xlink="http://www.w3.org/1999/xlink">
 <metadata>
  <rdf:RDF xmlns:cc="http://creativecommons.org/ns#" xmlns:dc="http://purl.org/dc/elements/1.1/" xmlns:rdf="http://www.w3.org/1999/02/22-rdf-syntax-ns#">
   <cc:Work>
    <dc:type rdf:resource="http://purl.org/dc/dcmitype/StillImage"/>
    <dc:date>2022-01-07T21:26:27.303825</dc:date>
    <dc:format>image/svg+xml</dc:format>
    <dc:creator>
     <cc:Agent>
      <dc:title>Matplotlib v3.4.3, https://matplotlib.org/</dc:title>
     </cc:Agent>
    </dc:creator>
   </cc:Work>
  </rdf:RDF>
 </metadata>
 <defs>
  <style type="text/css">*{stroke-linecap:butt;stroke-linejoin:round;}</style>
 </defs>
 <g id="figure_1">
  <g id="patch_1">
   <path d="M 0 576 
L 1008 576 
L 1008 0 
L 0 0 
z
"/>
  </g>
  <g id="axes_1">
   <g id="patch_2">
    <path d="M 126 504 
L 907.2 504 
L 907.2 69.12 
L 126 69.12 
z
"/>
   </g>
   <g id="matplotlib.axis_1">
    <g id="xtick_1">
     <g id="line2d_1">
      <defs>
       <path d="M 0 0 
L 0 3.5 
" id="mcf4dac42bf" style="stroke:#ffffff;stroke-width:0.8;"/>
      </defs>
      <g>
       <use style="fill:#ffffff;stroke:#ffffff;stroke-width:0.8;" x="161.509091" xlink:href="#mcf4dac42bf" y="504"/>
      </g>
     </g>
     <g id="text_1">
      <!-- 0 -->
      <g style="fill:#ffffff;" transform="translate(158.327841 518.598438)scale(0.1 -0.1)">
       <defs>
        <path d="M 2034 4250 
Q 1547 4250 1301 3770 
Q 1056 3291 1056 2328 
Q 1056 1369 1301 889 
Q 1547 409 2034 409 
Q 2525 409 2770 889 
Q 3016 1369 3016 2328 
Q 3016 3291 2770 3770 
Q 2525 4250 2034 4250 
z
M 2034 4750 
Q 2819 4750 3233 4129 
Q 3647 3509 3647 2328 
Q 3647 1150 3233 529 
Q 2819 -91 2034 -91 
Q 1250 -91 836 529 
Q 422 1150 422 2328 
Q 422 3509 836 4129 
Q 1250 4750 2034 4750 
z
" id="DejaVuSans-30" transform="scale(0.015625)"/>
       </defs>
       <use xlink:href="#DejaVuSans-30"/>
      </g>
     </g>
    </g>
    <g id="xtick_2">
     <g id="line2d_2">
      <g>
       <use style="fill:#ffffff;stroke:#ffffff;stroke-width:0.8;" x="293.660527" xlink:href="#mcf4dac42bf" y="504"/>
      </g>
     </g>
     <g id="text_2">
      <!-- 500 -->
      <g style="fill:#ffffff;" transform="translate(284.116777 518.598438)scale(0.1 -0.1)">
       <defs>
        <path d="M 691 4666 
L 3169 4666 
L 3169 4134 
L 1269 4134 
L 1269 2991 
Q 1406 3038 1543 3061 
Q 1681 3084 1819 3084 
Q 2600 3084 3056 2656 
Q 3513 2228 3513 1497 
Q 3513 744 3044 326 
Q 2575 -91 1722 -91 
Q 1428 -91 1123 -41 
Q 819 9 494 109 
L 494 744 
Q 775 591 1075 516 
Q 1375 441 1709 441 
Q 2250 441 2565 725 
Q 2881 1009 2881 1497 
Q 2881 1984 2565 2268 
Q 2250 2553 1709 2553 
Q 1456 2553 1204 2497 
Q 953 2441 691 2322 
L 691 4666 
z
" id="DejaVuSans-35" transform="scale(0.015625)"/>
       </defs>
       <use xlink:href="#DejaVuSans-35"/>
       <use x="63.623047" xlink:href="#DejaVuSans-30"/>
       <use x="127.246094" xlink:href="#DejaVuSans-30"/>
      </g>
     </g>
    </g>
    <g id="xtick_3">
     <g id="line2d_3">
      <g>
       <use style="fill:#ffffff;stroke:#ffffff;stroke-width:0.8;" x="425.811963" xlink:href="#mcf4dac42bf" y="504"/>
      </g>
     </g>
     <g id="text_3">
      <!-- 1000 -->
      <g style="fill:#ffffff;" transform="translate(413.086963 518.598438)scale(0.1 -0.1)">
       <defs>
        <path d="M 794 531 
L 1825 531 
L 1825 4091 
L 703 3866 
L 703 4441 
L 1819 4666 
L 2450 4666 
L 2450 531 
L 3481 531 
L 3481 0 
L 794 0 
L 794 531 
z
" id="DejaVuSans-31" transform="scale(0.015625)"/>
       </defs>
       <use xlink:href="#DejaVuSans-31"/>
       <use x="63.623047" xlink:href="#DejaVuSans-30"/>
       <use x="127.246094" xlink:href="#DejaVuSans-30"/>
       <use x="190.869141" xlink:href="#DejaVuSans-30"/>
      </g>
     </g>
    </g>
    <g id="xtick_4">
     <g id="line2d_4">
      <g>
       <use style="fill:#ffffff;stroke:#ffffff;stroke-width:0.8;" x="557.9634" xlink:href="#mcf4dac42bf" y="504"/>
      </g>
     </g>
     <g id="text_4">
      <!-- 1500 -->
      <g style="fill:#ffffff;" transform="translate(545.2384 518.598438)scale(0.1 -0.1)">
       <use xlink:href="#DejaVuSans-31"/>
       <use x="63.623047" xlink:href="#DejaVuSans-35"/>
       <use x="127.246094" xlink:href="#DejaVuSans-30"/>
       <use x="190.869141" xlink:href="#DejaVuSans-30"/>
      </g>
     </g>
    </g>
    <g id="xtick_5">
     <g id="line2d_5">
      <g>
       <use style="fill:#ffffff;stroke:#ffffff;stroke-width:0.8;" x="690.114836" xlink:href="#mcf4dac42bf" y="504"/>
      </g>
     </g>
     <g id="text_5">
      <!-- 2000 -->
      <g style="fill:#ffffff;" transform="translate(677.389836 518.598438)scale(0.1 -0.1)">
       <defs>
        <path d="M 1228 531 
L 3431 531 
L 3431 0 
L 469 0 
L 469 531 
Q 828 903 1448 1529 
Q 2069 2156 2228 2338 
Q 2531 2678 2651 2914 
Q 2772 3150 2772 3378 
Q 2772 3750 2511 3984 
Q 2250 4219 1831 4219 
Q 1534 4219 1204 4116 
Q 875 4013 500 3803 
L 500 4441 
Q 881 4594 1212 4672 
Q 1544 4750 1819 4750 
Q 2544 4750 2975 4387 
Q 3406 4025 3406 3419 
Q 3406 3131 3298 2873 
Q 3191 2616 2906 2266 
Q 2828 2175 2409 1742 
Q 1991 1309 1228 531 
z
" id="DejaVuSans-32" transform="scale(0.015625)"/>
       </defs>
       <use xlink:href="#DejaVuSans-32"/>
       <use x="63.623047" xlink:href="#DejaVuSans-30"/>
       <use x="127.246094" xlink:href="#DejaVuSans-30"/>
       <use x="190.869141" xlink:href="#DejaVuSans-30"/>
      </g>
     </g>
    </g>
    <g id="xtick_6">
     <g id="line2d_6">
      <g>
       <use style="fill:#ffffff;stroke:#ffffff;stroke-width:0.8;" x="822.266272" xlink:href="#mcf4dac42bf" y="504"/>
      </g>
     </g>
     <g id="text_6">
      <!-- 2500 -->
      <g style="fill:#ffffff;" transform="translate(809.541272 518.598438)scale(0.1 -0.1)">
       <use xlink:href="#DejaVuSans-32"/>
       <use x="63.623047" xlink:href="#DejaVuSans-35"/>
       <use x="127.246094" xlink:href="#DejaVuSans-30"/>
       <use x="190.869141" xlink:href="#DejaVuSans-30"/>
      </g>
     </g>
    </g>
    <g id="text_7">
     <!-- iteration -->
     <g style="fill:#ffffff;" transform="translate(495.477344 532.276562)scale(0.1 -0.1)">
      <defs>
       <path d="M 603 3500 
L 1178 3500 
L 1178 0 
L 603 0 
L 603 3500 
z
M 603 4863 
L 1178 4863 
L 1178 4134 
L 603 4134 
L 603 4863 
z
" id="DejaVuSans-69" transform="scale(0.015625)"/>
       <path d="M 1172 4494 
L 1172 3500 
L 2356 3500 
L 2356 3053 
L 1172 3053 
L 1172 1153 
Q 1172 725 1289 603 
Q 1406 481 1766 481 
L 2356 481 
L 2356 0 
L 1766 0 
Q 1100 0 847 248 
Q 594 497 594 1153 
L 594 3053 
L 172 3053 
L 172 3500 
L 594 3500 
L 594 4494 
L 1172 4494 
z
" id="DejaVuSans-74" transform="scale(0.015625)"/>
       <path d="M 3597 1894 
L 3597 1613 
L 953 1613 
Q 991 1019 1311 708 
Q 1631 397 2203 397 
Q 2534 397 2845 478 
Q 3156 559 3463 722 
L 3463 178 
Q 3153 47 2828 -22 
Q 2503 -91 2169 -91 
Q 1331 -91 842 396 
Q 353 884 353 1716 
Q 353 2575 817 3079 
Q 1281 3584 2069 3584 
Q 2775 3584 3186 3129 
Q 3597 2675 3597 1894 
z
M 3022 2063 
Q 3016 2534 2758 2815 
Q 2500 3097 2075 3097 
Q 1594 3097 1305 2825 
Q 1016 2553 972 2059 
L 3022 2063 
z
" id="DejaVuSans-65" transform="scale(0.015625)"/>
       <path d="M 2631 2963 
Q 2534 3019 2420 3045 
Q 2306 3072 2169 3072 
Q 1681 3072 1420 2755 
Q 1159 2438 1159 1844 
L 1159 0 
L 581 0 
L 581 3500 
L 1159 3500 
L 1159 2956 
Q 1341 3275 1631 3429 
Q 1922 3584 2338 3584 
Q 2397 3584 2469 3576 
Q 2541 3569 2628 3553 
L 2631 2963 
z
" id="DejaVuSans-72" transform="scale(0.015625)"/>
       <path d="M 2194 1759 
Q 1497 1759 1228 1600 
Q 959 1441 959 1056 
Q 959 750 1161 570 
Q 1363 391 1709 391 
Q 2188 391 2477 730 
Q 2766 1069 2766 1631 
L 2766 1759 
L 2194 1759 
z
M 3341 1997 
L 3341 0 
L 2766 0 
L 2766 531 
Q 2569 213 2275 61 
Q 1981 -91 1556 -91 
Q 1019 -91 701 211 
Q 384 513 384 1019 
Q 384 1609 779 1909 
Q 1175 2209 1959 2209 
L 2766 2209 
L 2766 2266 
Q 2766 2663 2505 2880 
Q 2244 3097 1772 3097 
Q 1472 3097 1187 3025 
Q 903 2953 641 2809 
L 641 3341 
Q 956 3463 1253 3523 
Q 1550 3584 1831 3584 
Q 2591 3584 2966 3190 
Q 3341 2797 3341 1997 
z
" id="DejaVuSans-61" transform="scale(0.015625)"/>
       <path d="M 1959 3097 
Q 1497 3097 1228 2736 
Q 959 2375 959 1747 
Q 959 1119 1226 758 
Q 1494 397 1959 397 
Q 2419 397 2687 759 
Q 2956 1122 2956 1747 
Q 2956 2369 2687 2733 
Q 2419 3097 1959 3097 
z
M 1959 3584 
Q 2709 3584 3137 3096 
Q 3566 2609 3566 1747 
Q 3566 888 3137 398 
Q 2709 -91 1959 -91 
Q 1206 -91 779 398 
Q 353 888 353 1747 
Q 353 2609 779 3096 
Q 1206 3584 1959 3584 
z
" id="DejaVuSans-6f" transform="scale(0.015625)"/>
       <path d="M 3513 2113 
L 3513 0 
L 2938 0 
L 2938 2094 
Q 2938 2591 2744 2837 
Q 2550 3084 2163 3084 
Q 1697 3084 1428 2787 
Q 1159 2491 1159 1978 
L 1159 0 
L 581 0 
L 581 3500 
L 1159 3500 
L 1159 2956 
Q 1366 3272 1645 3428 
Q 1925 3584 2291 3584 
Q 2894 3584 3203 3211 
Q 3513 2838 3513 2113 
z
" id="DejaVuSans-6e" transform="scale(0.015625)"/>
      </defs>
      <use xlink:href="#DejaVuSans-69"/>
      <use x="27.783203" xlink:href="#DejaVuSans-74"/>
      <use x="66.992188" xlink:href="#DejaVuSans-65"/>
      <use x="128.515625" xlink:href="#DejaVuSans-72"/>
      <use x="169.628906" xlink:href="#DejaVuSans-61"/>
      <use x="230.908203" xlink:href="#DejaVuSans-74"/>
      <use x="270.117188" xlink:href="#DejaVuSans-69"/>
      <use x="297.900391" xlink:href="#DejaVuSans-6f"/>
      <use x="359.082031" xlink:href="#DejaVuSans-6e"/>
     </g>
    </g>
   </g>
   <g id="matplotlib.axis_2">
    <g id="ytick_1">
     <g id="line2d_7">
      <defs>
       <path d="M 0 0 
L -3.5 0 
" id="m5a11adff12" style="stroke:#ffffff;stroke-width:0.8;"/>
      </defs>
      <g>
       <use style="fill:#ffffff;stroke:#ffffff;stroke-width:0.8;" x="126" xlink:href="#m5a11adff12" y="484.232727"/>
      </g>
     </g>
     <g id="text_8">
      <!-- 0 -->
      <g style="fill:#ffffff;" transform="translate(112.6375 488.031946)scale(0.1 -0.1)">
       <use xlink:href="#DejaVuSans-30"/>
      </g>
     </g>
    </g>
    <g id="ytick_2">
     <g id="line2d_8">
      <g>
       <use style="fill:#ffffff;stroke:#ffffff;stroke-width:0.8;" x="126" xlink:href="#m5a11adff12" y="432.121709"/>
      </g>
     </g>
     <g id="text_9">
      <!-- 5000 -->
      <g style="fill:#ffffff;" transform="translate(93.55 435.920927)scale(0.1 -0.1)">
       <use xlink:href="#DejaVuSans-35"/>
       <use x="63.623047" xlink:href="#DejaVuSans-30"/>
       <use x="127.246094" xlink:href="#DejaVuSans-30"/>
       <use x="190.869141" xlink:href="#DejaVuSans-30"/>
      </g>
     </g>
    </g>
    <g id="ytick_3">
     <g id="line2d_9">
      <g>
       <use style="fill:#ffffff;stroke:#ffffff;stroke-width:0.8;" x="126" xlink:href="#m5a11adff12" y="380.01069"/>
      </g>
     </g>
     <g id="text_10">
      <!-- 10000 -->
      <g style="fill:#ffffff;" transform="translate(87.1875 383.809909)scale(0.1 -0.1)">
       <use xlink:href="#DejaVuSans-31"/>
       <use x="63.623047" xlink:href="#DejaVuSans-30"/>
       <use x="127.246094" xlink:href="#DejaVuSans-30"/>
       <use x="190.869141" xlink:href="#DejaVuSans-30"/>
       <use x="254.492188" xlink:href="#DejaVuSans-30"/>
      </g>
     </g>
    </g>
    <g id="ytick_4">
     <g id="line2d_10">
      <g>
       <use style="fill:#ffffff;stroke:#ffffff;stroke-width:0.8;" x="126" xlink:href="#m5a11adff12" y="327.899671"/>
      </g>
     </g>
     <g id="text_11">
      <!-- 15000 -->
      <g style="fill:#ffffff;" transform="translate(87.1875 331.69889)scale(0.1 -0.1)">
       <use xlink:href="#DejaVuSans-31"/>
       <use x="63.623047" xlink:href="#DejaVuSans-35"/>
       <use x="127.246094" xlink:href="#DejaVuSans-30"/>
       <use x="190.869141" xlink:href="#DejaVuSans-30"/>
       <use x="254.492188" xlink:href="#DejaVuSans-30"/>
      </g>
     </g>
    </g>
    <g id="ytick_5">
     <g id="line2d_11">
      <g>
       <use style="fill:#ffffff;stroke:#ffffff;stroke-width:0.8;" x="126" xlink:href="#m5a11adff12" y="275.788652"/>
      </g>
     </g>
     <g id="text_12">
      <!-- 20000 -->
      <g style="fill:#ffffff;" transform="translate(87.1875 279.587871)scale(0.1 -0.1)">
       <use xlink:href="#DejaVuSans-32"/>
       <use x="63.623047" xlink:href="#DejaVuSans-30"/>
       <use x="127.246094" xlink:href="#DejaVuSans-30"/>
       <use x="190.869141" xlink:href="#DejaVuSans-30"/>
       <use x="254.492188" xlink:href="#DejaVuSans-30"/>
      </g>
     </g>
    </g>
    <g id="ytick_6">
     <g id="line2d_12">
      <g>
       <use style="fill:#ffffff;stroke:#ffffff;stroke-width:0.8;" x="126" xlink:href="#m5a11adff12" y="223.677634"/>
      </g>
     </g>
     <g id="text_13">
      <!-- 25000 -->
      <g style="fill:#ffffff;" transform="translate(87.1875 227.476853)scale(0.1 -0.1)">
       <use xlink:href="#DejaVuSans-32"/>
       <use x="63.623047" xlink:href="#DejaVuSans-35"/>
       <use x="127.246094" xlink:href="#DejaVuSans-30"/>
       <use x="190.869141" xlink:href="#DejaVuSans-30"/>
       <use x="254.492188" xlink:href="#DejaVuSans-30"/>
      </g>
     </g>
    </g>
    <g id="ytick_7">
     <g id="line2d_13">
      <g>
       <use style="fill:#ffffff;stroke:#ffffff;stroke-width:0.8;" x="126" xlink:href="#m5a11adff12" y="171.566615"/>
      </g>
     </g>
     <g id="text_14">
      <!-- 30000 -->
      <g style="fill:#ffffff;" transform="translate(87.1875 175.365834)scale(0.1 -0.1)">
       <defs>
        <path d="M 2597 2516 
Q 3050 2419 3304 2112 
Q 3559 1806 3559 1356 
Q 3559 666 3084 287 
Q 2609 -91 1734 -91 
Q 1441 -91 1130 -33 
Q 819 25 488 141 
L 488 750 
Q 750 597 1062 519 
Q 1375 441 1716 441 
Q 2309 441 2620 675 
Q 2931 909 2931 1356 
Q 2931 1769 2642 2001 
Q 2353 2234 1838 2234 
L 1294 2234 
L 1294 2753 
L 1863 2753 
Q 2328 2753 2575 2939 
Q 2822 3125 2822 3475 
Q 2822 3834 2567 4026 
Q 2313 4219 1838 4219 
Q 1578 4219 1281 4162 
Q 984 4106 628 3988 
L 628 4550 
Q 988 4650 1302 4700 
Q 1616 4750 1894 4750 
Q 2613 4750 3031 4423 
Q 3450 4097 3450 3541 
Q 3450 3153 3228 2886 
Q 3006 2619 2597 2516 
z
" id="DejaVuSans-33" transform="scale(0.015625)"/>
       </defs>
       <use xlink:href="#DejaVuSans-33"/>
       <use x="63.623047" xlink:href="#DejaVuSans-30"/>
       <use x="127.246094" xlink:href="#DejaVuSans-30"/>
       <use x="190.869141" xlink:href="#DejaVuSans-30"/>
       <use x="254.492188" xlink:href="#DejaVuSans-30"/>
      </g>
     </g>
    </g>
    <g id="ytick_8">
     <g id="line2d_14">
      <g>
       <use style="fill:#ffffff;stroke:#ffffff;stroke-width:0.8;" x="126" xlink:href="#m5a11adff12" y="119.455596"/>
      </g>
     </g>
     <g id="text_15">
      <!-- 35000 -->
      <g style="fill:#ffffff;" transform="translate(87.1875 123.254815)scale(0.1 -0.1)">
       <use xlink:href="#DejaVuSans-33"/>
       <use x="63.623047" xlink:href="#DejaVuSans-35"/>
       <use x="127.246094" xlink:href="#DejaVuSans-30"/>
       <use x="190.869141" xlink:href="#DejaVuSans-30"/>
       <use x="254.492188" xlink:href="#DejaVuSans-30"/>
      </g>
     </g>
    </g>
   </g>
   <g id="line2d_15">
    <path clip-path="url(#p0fd0b58a09)" d="M 161.509091 146.793037 
L 161.773394 161.311167 
L 162.037697 184.052415 
L 162.302 193.536621 
L 162.566302 181.259265 
L 162.830605 204.063046 
L 163.094908 202.33296 
L 163.623514 253.620625 
L 163.887817 230.816843 
L 164.15212 248.138546 
L 164.416423 281.479176 
L 164.680725 258.675394 
L 164.945028 279.926267 
L 165.209331 278.248293 
L 165.473634 286.283812 
L 165.737937 284.553726 
L 166.00224 269.660397 
L 166.266543 262.375276 
L 166.530845 238.779407 
L 166.795148 232.390596 
L 167.059451 235.590213 
L 167.323754 220.748995 
L 167.588057 222.426969 
L 167.85236 228.586492 
L 168.116663 226.908517 
L 168.380966 210.972967 
L 168.645268 218.258088 
L 168.909571 232.776218 
L 169.173874 221.614037 
L 169.438177 245.209907 
L 169.70248 284.407815 
L 169.966783 271.786526 
L 170.231086 278.738136 
L 170.495389 269.253931 
L 170.759691 276.539051 
L 171.5526 313.162675 
L 172.081206 287.482365 
L 172.345509 298.644545 
L 172.609812 278.571381 
L 172.874114 286.6069 
L 173.138417 310.202769 
L 173.40272 302.16725 
L 173.667023 300.437164 
L 173.931326 290.952959 
L 174.195629 268.149177 
L 174.459932 291.046759 
L 174.724235 303.146937 
L 174.988537 295.861817 
L 175.25284 294.183842 
L 175.517143 235.43388 
L 176.045749 225.12632 
L 176.310052 231.285842 
L 176.574355 243.386021 
L 176.838658 250.337631 
L 177.10296 260.259569 
L 177.367263 275.152898 
L 177.631566 297.894147 
L 177.895869 283.376017 
L 178.160172 276.424407 
L 178.424475 256.351242 
L 179.217383 320.406107 
L 179.481686 340.479271 
L 179.745989 316.883402 
L 180.010292 304.606046 
L 180.274595 321.927748 
L 180.538898 311.015701 
L 180.803201 307.98284 
L 181.067503 323.918389 
L 181.596109 372.861058 
L 181.860412 371.130972 
L 182.124715 364.97145 
L 182.389018 344.898286 
L 182.653321 356.060466 
L 182.917624 376.13363 
L 183.181926 377.863716 
L 183.710532 333.110773 
L 183.974835 345.732062 
L 184.239138 334.37186 
L 184.503441 311.568078 
L 184.767744 301.64614 
L 185.032047 312.558187 
L 185.824955 282.448441 
L 186.089258 280.968488 
L 186.353561 258.227239 
L 186.882167 268.513954 
L 187.410772 232.369752 
L 187.675075 239.321362 
L 187.939378 242.354223 
L 188.203681 243.834176 
L 188.467984 240.801315 
L 188.732287 255.694644 
L 188.99659 278.592225 
L 189.260893 271.307105 
L 189.525195 274.339966 
L 189.789498 271.14035 
L 190.053801 248.242768 
L 190.318104 237.330721 
L 191.111013 269.326886 
L 191.639618 242.333378 
L 191.903921 265.13716 
L 192.168224 274.621366 
L 192.432527 263.459185 
L 192.69683 284.710059 
L 192.961133 263.459185 
L 193.225436 287.055055 
L 193.489738 280.916377 
L 193.754041 303.657625 
L 194.018344 293.735687 
L 194.282647 300.124498 
L 194.54695 289.212451 
L 194.811253 304.10578 
L 195.075556 311.3909 
L 195.339859 323.491079 
L 195.604161 317.102268 
L 195.868464 328.264448 
L 196.132767 334.403126 
L 196.39707 331.370265 
L 196.661373 307.774396 
L 196.925676 329.025269 
L 197.189979 327.545316 
L 197.454282 313.027186 
L 198.24719 243.094199 
L 198.511493 264.345073 
L 198.775796 275.705275 
L 199.040099 271.557238 
L 199.304402 255.621688 
L 199.568705 248.336568 
L 199.833007 254.49609 
L 200.09731 229.149291 
L 200.361613 245.08484 
L 200.625916 252.369961 
L 200.890219 231.119087 
L 201.154522 252.276161 
L 201.418825 236.340611 
L 201.683128 230.181089 
L 202.211733 245.803972 
L 202.476036 224.646899 
L 202.740339 217.695289 
L 203.004642 202.80196 
L 203.268945 196.642437 
L 203.533248 198.12239 
L 203.79755 186.022212 
L 204.061853 198.299568 
L 204.326156 175.495786 
L 204.590459 187.595964 
L 204.854762 213.53683 
L 205.119065 216.736446 
L 205.383368 222.895968 
L 205.911973 239.206717 
L 206.440579 277.695916 
L 206.704882 298.946789 
L 206.969185 230.670932 
L 207.497791 233.880971 
L 207.762094 232.401018 
L 208.026396 244.501197 
L 208.290699 270.442062 
L 208.819305 297.612747 
L 209.083608 285.335391 
L 209.347911 292.620512 
L 209.612214 281.708464 
L 209.876517 283.386439 
L 210.140819 289.525117 
L 210.405122 282.239997 
L 210.669425 291.724202 
L 210.933728 275.788652 
L 211.198031 252.891071 
L 211.462334 262.354432 
L 211.726637 247.513214 
L 211.99094 250.71283 
L 212.255242 252.192783 
L 212.519545 246.054105 
L 212.783848 244.324019 
L 213.048151 218.97722 
L 213.312454 220.707306 
L 213.576757 213.755696 
L 213.84106 223.677634 
L 214.105363 211.577455 
L 214.369665 226.418673 
L 214.633968 247.669547 
L 214.898271 238.206186 
L 215.162574 235.006569 
L 215.426877 209.065704 
L 215.69118 215.454515 
L 215.955483 226.814717 
L 216.219785 215.454515 
L 216.748391 238.894051 
L 217.012694 237.163965 
L 217.276997 227.242027 
L 217.5413 253.182893 
L 217.805603 240.905537 
L 218.334208 262.187677 
L 218.598511 285.085258 
L 218.862814 278.696447 
L 219.39142 252.818115 
L 219.655723 256.017732 
L 219.920026 266.929779 
L 220.448631 244.855552 
L 220.712934 223.604678 
L 220.977237 220.405062 
L 221.505843 238.518852 
L 222.034449 282.187886 
L 222.298752 307.534685 
L 222.563054 322.052815 
L 222.827357 300.895741 
L 223.355963 280.249356 
L 223.620266 283.448972 
L 224.148872 276.101319 
L 224.413175 250.160453 
L 224.677477 262.437809 
L 224.94178 239.540228 
L 225.206083 260.697301 
L 225.470386 270.160662 
L 226.263295 206.699864 
L 226.527598 213.984984 
L 226.7919 235.235858 
L 227.056203 233.755905 
L 227.320506 230.723043 
L 227.584809 242.823222 
L 227.849112 248.9619 
L 228.113415 272.557769 
L 228.377718 283.469817 
L 228.906323 242.239579 
L 229.434929 256.663909 
L 229.699232 250.275098 
L 230.756443 306.096421 
L 231.020746 223.521301 
L 231.285049 198.174501 
L 231.549352 199.852476 
L 231.813655 196.819615 
L 232.077958 176.74645 
L 232.342261 175.266497 
L 232.606564 171.11846 
L 232.870866 145.177595 
L 233.135169 139.018073 
L 233.399472 148.940011 
L 233.663775 163.83334 
L 233.928078 153.911402 
L 234.192381 168.429532 
L 234.456684 171.462393 
L 234.720987 169.732307 
L 234.985289 190.983181 
L 235.249592 198.268301 
L 235.513895 210.545657 
L 236.042501 255.965621 
L 236.306804 244.803441 
L 236.571107 252.83896 
L 236.83541 227.49216 
L 237.099712 237.414098 
L 237.892621 187.929475 
L 238.156924 194.881085 
L 238.421227 220.227884 
L 238.68553 204.292335 
L 239.214135 226.564584 
L 239.478438 223.531723 
L 240.007044 269.931374 
L 240.271347 274.079411 
L 240.53565 251.275629 
L 241.328558 227.898626 
L 241.857164 178.955957 
L 242.121467 194.891507 
L 242.38577 188.502696 
L 242.650073 208.575861 
L 242.914376 192.640311 
L 243.178678 207.53364 
L 243.442981 322.084082 
L 243.707284 329.369202 
L 243.971587 326.336341 
L 244.500193 300.656031 
L 244.764496 308.69155 
L 245.028799 291.369847 
L 245.293101 294.402708 
L 245.557404 314.475873 
L 245.821707 307.524263 
L 246.08601 304.491402 
L 246.350313 288.555852 
L 246.878919 307.961995 
L 247.143222 309.63997 
L 247.671827 338.123853 
L 247.93613 325.502564 
L 248.200433 302.698783 
L 248.464736 325.502564 
L 248.993342 304.418446 
L 249.257645 297.133326 
L 249.521947 285.033147 
L 249.78625 264.959983 
L 250.050553 258.821305 
L 250.314856 265.772915 
L 250.579159 263.844807 
L 250.843462 240.947225 
L 251.107765 263.844807 
L 251.372068 273.329012 
L 251.63637 253.255848 
L 251.900673 279.196713 
L 252.164976 275.997097 
L 252.429279 277.727182 
L 252.693582 266.815135 
L 253.222188 314.965716 
L 253.486491 321.917326 
L 253.750793 320.18724 
L 254.279399 277.779293 
L 254.543702 280.97891 
L 255.072308 251.567451 
L 255.336611 266.408669 
L 255.600913 272.79748 
L 255.865216 274.475455 
L 256.129519 255.142267 
L 256.393822 245.678906 
L 256.658125 247.356881 
L 257.186731 268.003266 
L 257.451034 258.519061 
L 257.715336 254.371024 
L 258.243942 270.223196 
L 258.508245 268.743243 
L 258.772548 262.58372 
L 259.036851 268.743243 
L 259.301154 271.776104 
L 259.565457 278.727714 
L 259.829759 281.92733 
L 260.094062 294.548619 
L 260.358365 271.807371 
L 260.622668 279.092491 
L 260.886971 266.815135 
L 261.151274 262.802587 
L 261.415577 237.455787 
L 261.67988 246.919148 
L 261.944182 249.952009 
L 262.208485 238.591807 
L 262.472788 263.938607 
L 262.737091 237.997742 
L 263.001394 228.075804 
L 263.265697 234.235326 
L 263.53 235.965412 
L 263.794303 234.485459 
L 264.322908 266.325291 
L 264.587211 267.805244 
L 264.851514 263.657207 
L 265.115817 284.814281 
L 265.38012 281.78142 
L 265.644423 260.624346 
L 265.908726 280.69751 
L 266.437331 268.39931 
L 266.701634 258.935949 
L 266.965937 270.296151 
L 267.23024 291.547025 
L 267.494543 280.186822 
L 267.758846 278.456737 
L 268.023148 280.134711 
L 268.551754 294.308909 
L 268.816057 306.930197 
L 269.08036 297.445992 
L 269.344663 295.966039 
L 269.608966 289.827361 
L 269.873269 272.505658 
L 270.137571 273.985611 
L 270.93048 299.0927 
L 271.459086 272.297214 
L 271.723389 295.893084 
L 271.987692 300.041121 
L 272.251994 311.401323 
L 272.516297 288.660074 
L 272.7806 309.817148 
L 273.044903 320.729195 
L 273.837812 251.431962 
L 274.102115 240.07176 
L 274.366417 262.875542 
L 274.63072 246.939993 
L 274.895023 270.535862 
L 275.159326 259.08186 
L 275.423629 280.238933 
L 275.952235 231.55682 
L 276.216538 228.523959 
L 276.48084 230.003911 
L 276.745143 215.110582 
L 277.009446 193.953509 
L 277.273749 216.694757 
L 277.538052 220.842794 
L 277.802355 219.112709 
L 278.066658 222.14557 
L 278.330961 223.823545 
L 278.595263 220.790683 
L 278.859566 244.386553 
L 279.123869 247.419414 
L 279.388172 244.386553 
L 279.652475 265.637426 
L 279.916778 268.670287 
L 280.181081 270.400373 
L 280.445383 283.021662 
L 280.709686 279.988801 
L 280.973989 302.792582 
L 281.238292 314.892761 
L 281.502595 303.532559 
L 281.766898 313.016764 
L 282.031201 297.081215 
L 282.295504 290.129605 
L 282.559806 288.45163 
L 282.824109 304.38718 
L 283.088412 300.239142 
L 283.352715 288.138964 
L 283.617018 270.817261 
L 283.881321 269.337308 
L 284.145624 284.230638 
L 284.409927 285.908612 
L 284.674229 279.769934 
L 284.938532 285.908612 
L 285.202835 271.390483 
L 285.467138 278.342092 
L 285.731441 271.056972 
L 285.995744 267.857355 
L 286.260047 279.217558 
L 286.52435 264.324228 
L 286.788652 262.594143 
L 287.052955 265.627004 
L 287.317258 244.37613 
L 287.581561 255.288178 
L 287.845864 243.927976 
L 288.110167 237.789298 
L 288.37447 215.048049 
L 288.638773 232.369752 
L 288.903075 257.716551 
L 289.167378 251.32774 
L 289.431681 265.84587 
L 289.695984 249.910321 
L 289.960287 224.563521 
L 290.22459 234.026882 
L 290.488893 295.59084 
L 290.753196 305.054201 
L 291.017498 224.563521 
L 291.546104 265.679115 
L 291.810407 263.938607 
L 292.07471 256.653486 
L 292.339013 245.741439 
L 292.603316 220.39464 
L 292.867618 243.198421 
L 293.131921 236.80961 
L 293.396224 221.968392 
L 293.660527 225.001254 
L 293.92483 202.197472 
L 294.189133 196.037949 
L 294.453436 219.633819 
L 294.717739 227.669338 
L 294.982041 242.187468 
L 295.246344 236.04879 
L 295.510647 237.726764 
L 295.77495 221.791215 
L 296.039253 307.826507 
L 296.567859 262.187677 
L 296.832162 263.917762 
L 297.096464 238.570963 
L 297.360767 229.086758 
L 297.62507 300.530964 
L 298.153676 278.967425 
L 298.417979 255.371555 
L 298.682282 245.88735 
L 298.946585 253.17247 
L 299.210887 245.136951 
L 299.47519 268.732821 
L 299.739493 279.644868 
L 300.003796 300.895741 
L 300.268099 277.299872 
L 300.532402 275.819919 
L 300.796705 282.771529 
L 301.061008 262.698365 
L 301.32531 268.857887 
L 301.589613 261.572767 
L 302.118219 305.2418 
L 302.382522 311.380478 
L 302.646825 308.347617 
L 302.911128 320.968906 
L 303.175431 319.290931 
L 303.439733 298.133857 
L 303.704036 309.296038 
L 303.968339 283.355172 
L 304.496945 257.101641 
L 304.761248 258.581594 
L 305.025551 273.474923 
L 305.289854 260.853635 
L 305.554156 268.889154 
L 305.818459 281.510442 
L 306.082762 283.188417 
L 306.347065 292.651778 
L 306.611368 307.492996 
L 306.875671 330.296778 
L 307.139974 315.778648 
L 307.404276 309.63997 
L 307.668579 294.798752 
L 307.932882 310.734302 
L 308.197185 299.822254 
L 308.725791 326.763651 
L 308.990094 320.604129 
L 309.254397 317.404512 
L 309.518699 310.452902 
L 309.783002 327.774605 
L 310.047305 333.934127 
L 310.311608 313.860963 
L 310.575911 312.38101 
L 310.840214 304.345491 
L 311.104517 318.863621 
L 311.36882 210.754101 
L 312.161728 280.249356 
L 312.426031 272.213837 
L 312.690334 259.936481 
L 312.954637 261.614455 
L 313.21894 259.936481 
L 313.483243 250.452275 
L 313.747545 263.073564 
L 314.011848 253.151626 
L 314.276151 231.900753 
L 314.540454 238.060275 
L 314.804757 252.901493 
L 315.06906 275.705275 
L 315.333363 252.901493 
L 315.861968 277.279028 
L 316.126271 266.36698 
L 316.390574 278.467159 
L 316.654877 265.84587 
L 316.91918 258.56075 
L 317.183483 268.482688 
L 317.447786 242.541823 
L 317.712089 266.137692 
L 318.240694 285.085258 
L 318.504997 302.406961 
L 318.7693 328.347826 
L 319.033603 316.247647 
L 319.297906 338.988896 
L 319.562209 351.610185 
L 319.826511 328.014315 
L 320.090814 329.69229 
L 320.355117 323.303479 
L 321.412329 287.471943 
L 321.676632 266.314869 
L 321.940934 278.415048 
L 322.205237 301.21883 
L 322.46954 299.540855 
L 322.998146 251.452807 
L 323.262449 236.611589 
L 323.526752 233.578727 
L 323.791055 223.656789 
L 324.31966 180.779843 
L 324.583963 188.815362 
L 324.848266 214.162162 
L 325.376872 233.547461 
L 325.641175 225.511942 
L 325.905478 237.789298 
L 326.16978 239.467272 
L 326.434083 237.737187 
L 326.698386 225.459831 
L 326.962689 229.607868 
L 327.226992 240.770048 
L 327.491295 239.290095 
L 327.755598 221.968392 
L 328.019901 215.80887 
L 328.284203 203.708691 
L 328.548506 202.030717 
L 328.812809 191.118669 
L 329.077112 192.598622 
L 329.341415 167.251823 
L 329.605718 178.16387 
L 329.870021 167.00169 
L 330.134324 141.060825 
L 330.398626 158.382527 
L 330.662929 147.47048 
L 330.927232 179.956489 
L 331.191535 175.808452 
L 331.455838 158.486749 
L 331.720141 173.004879 
L 331.984444 180.29 
L 332.248746 169.127819 
L 332.513049 181.405175 
L 332.777352 182.885128 
L 333.041655 170.607772 
L 333.305958 194.203642 
L 333.570261 171.39986 
L 333.834564 161.477922 
L 334.098867 138.58034 
L 334.627472 158.716038 
L 334.891775 164.87556 
L 335.156078 187.773142 
L 335.420381 173.255012 
L 335.684684 356.36271 
L 335.948987 359.562326 
L 336.21329 356.36271 
L 336.477592 349.4111 
L 336.741895 356.36271 
L 337.270501 325.90903 
L 337.534804 300.562231 
L 337.799107 323.459812 
L 338.06341 331.495331 
L 338.327713 316.654113 
L 338.592015 331.172243 
L 338.856318 309.92137 
L 339.120621 298.561168 
L 339.384924 294.413131 
L 339.649227 318.009 
L 339.91353 306.84682 
L 340.177833 319.468108 
L 340.442136 317.790134 
L 340.706438 310.838524 
L 340.970741 316.998046 
L 341.235044 326.461407 
L 341.499347 320.301885 
L 341.76365 294.36102 
L 342.292256 325.137787 
L 342.556559 315.674426 
L 342.820861 317.154379 
L 343.085164 332.047708 
L 343.349467 308.451839 
L 343.878073 294.027509 
L 344.142376 305.189689 
L 344.406679 292.568401 
L 344.670981 303.928603 
L 344.935284 283.855438 
L 345.199587 285.533413 
L 345.728193 247.898835 
L 345.992496 233.057617 
L 346.256799 253.130782 
L 346.521102 259.519592 
L 346.785404 282.260841 
L 347.049707 259.519592 
L 347.31401 249.597654 
L 347.578313 259.061015 
L 347.842616 285.001881 
L 348.371222 240.947225 
L 348.635525 237.914364 
L 348.899827 236.184278 
L 349.428433 253.391337 
L 349.692736 243.469399 
L 349.957039 258.362728 
L 350.221342 261.395589 
L 350.485645 282.646463 
L 351.01425 261.802055 
L 351.542856 277.424938 
L 351.807159 266.512891 
L 352.071462 273.464501 
L 352.600068 229.409846 
L 352.864371 233.557883 
L 353.128673 226.606273 
L 353.392976 251.953073 
L 353.657279 236.017523 
L 353.921582 239.21714 
L 354.185885 219.143975 
L 354.450188 239.21714 
L 354.714491 221.895437 
L 354.978794 228.847047 
L 355.243096 225.64743 
L 355.507399 199.706565 
L 355.771702 209.628503 
L 356.036005 189.555339 
L 356.300308 180.071133 
L 356.564611 181.801219 
L 356.828914 172.337858 
L 357.093216 178.497381 
L 357.357519 201.238629 
L 357.621822 212.598831 
L 357.886125 201.436651 
L 358.150428 210.900012 
L 358.414731 209.420059 
L 358.679034 194.52673 
L 358.943337 191.493869 
L 359.207639 185.334346 
L 359.736245 223.031457 
L 360.000548 240.35316 
L 360.264851 249.837365 
L 360.529154 237.560009 
L 360.793457 245.595528 
L 361.05776 266.846402 
L 361.322062 268.326355 
L 361.586365 291.223936 
L 361.850668 238.393785 
L 362.114971 245.345395 
L 362.379274 260.238724 
L 362.643577 266.627535 
L 362.90788 287.878409 
L 363.172183 261.937544 
L 363.436485 287.878409 
L 363.700788 294.017087 
L 364.229394 260.238724 
L 364.493697 274.756854 
L 364.758 282.041975 
L 365.022303 304.783223 
L 365.815211 242.510556 
L 366.079514 246.658593 
L 366.60812 283.751216 
L 366.872423 285.429191 
L 367.136726 270.535862 
L 367.401029 244.594997 
L 367.929634 294.131731 
L 368.45824 281.020599 
L 368.722543 290.504804 
L 368.986846 292.23489 
L 369.515452 322.177881 
L 369.779754 320.499907 
L 370.044057 209.117815 
L 370.30836 229.19098 
L 370.572663 232.223841 
L 370.836966 209.482592 
L 371.101269 235.423457 
L 371.365572 212.619676 
L 371.629874 203.156315 
L 371.894177 219.091864 
L 372.15848 203.156315 
L 372.422783 177.809515 
L 372.687086 183.948193 
L 372.951389 172.587991 
L 373.215692 196.18386 
L 373.479995 173.286279 
L 373.744297 196.18386 
L 374.0086 176.110696 
L 374.272903 183.395816 
L 374.537206 180.362955 
L 374.801509 165.469626 
L 375.065812 174.932987 
L 375.330115 173.453034 
L 375.594418 149.857165 
L 375.85872 142.572044 
L 376.123023 146.720081 
L 376.387326 136.798143 
L 376.651629 151.691472 
L 376.915932 128.793891 
L 377.180235 124.645854 
L 377.708841 169.398797 
L 377.973143 170.87875 
L 378.237446 164.719227 
L 378.766052 190.920647 
L 379.030355 164.979782 
L 379.294658 177.601071 
L 379.558961 198.851944 
L 379.823264 208.33615 
L 380.087566 202.197472 
L 380.351869 192.734111 
L 380.616172 215.537893 
L 380.880475 204.177691 
L 381.144778 210.316369 
L 381.409081 189.159295 
L 381.673384 198.622656 
L 381.937687 202.770693 
L 382.201989 214.870872 
L 382.466292 202.249583 
L 382.730595 214.870872 
L 382.994898 218.070488 
L 383.259201 208.607127 
L 383.523504 211.639988 
L 383.787807 208.440372 
L 384.052109 219.800574 
L 384.316412 242.698156 
L 384.580715 252.620094 
L 384.845018 250.942119 
L 385.109321 276.288918 
L 385.637927 310.880212 
L 385.90223 312.558187 
L 386.166532 306.419509 
L 386.430835 304.741534 
L 386.695138 279.394735 
L 386.959441 296.716438 
L 387.223744 273.120568 
L 388.016653 238.883629 
L 388.280955 215.986047 
L 388.545258 223.271168 
L 388.809561 213.786962 
L 389.073864 224.949143 
L 389.338167 304.668579 
L 389.60247 306.148532 
L 389.866773 321.041861 
L 390.395378 277.143539 
L 390.659681 289.764828 
L 390.923984 280.301467 
L 391.188287 294.819597 
L 391.45259 234.798125 
L 391.716893 225.334764 
L 391.981196 226.814717 
L 392.245499 219.529597 
L 392.509801 222.729213 
L 392.774104 237.247343 
L 393.038407 235.76739 
L 393.567013 251.640406 
L 393.831316 237.122277 
L 394.095619 260.718146 
L 394.359922 240.644981 
L 394.624224 263.542563 
L 394.888527 240.644981 
L 395.15283 237.61212 
L 395.681436 249.910321 
L 395.945739 265.84587 
L 396.210042 249.910321 
L 396.474344 227.169072 
L 396.738647 249.910321 
L 397.00295 262.187677 
L 397.267253 238.591807 
L 397.795859 286.836188 
L 398.060162 294.871708 
L 398.588767 249.232877 
L 399.117373 288.764296 
L 399.381676 276.664118 
L 399.645979 255.507044 
L 399.910282 244.344864 
L 400.174585 238.185341 
L 400.438888 250.28552 
L 400.70319 273.183102 
L 401.231796 255.225644 
L 401.496099 231.629775 
L 402.024705 274.392077 
L 402.289008 280.780888 
L 402.553311 269.868841 
L 402.817613 292.672623 
L 403.081916 269.931374 
L 403.610522 294.308909 
L 404.139128 277.10185 
L 404.403431 283.240528 
L 404.932036 245.595528 
L 405.196339 284.022193 
L 405.460642 305.179267 
L 405.724945 317.279446 
L 405.989248 307.357508 
L 406.253551 282.010708 
L 406.782157 296.435038 
L 407.046459 285.522991 
L 407.310762 262.625409 
L 407.575065 258.477372 
L 407.839368 273.370701 
L 408.103671 256.048999 
L 408.367974 267.409201 
L 408.896579 225.001254 
L 409.160882 218.049644 
L 409.425185 228.961691 
L 409.689488 250.212564 
L 409.953791 256.372087 
L 410.218094 235.121213 
L 410.482397 246.283394 
L 410.7467 263.605096 
L 411.011002 254.120891 
L 411.275305 266.74218 
L 411.539608 260.353369 
L 411.803911 269.837574 
L 412.068214 284.355704 
L 412.332517 291.307314 
L 412.59682 314.204895 
L 412.861123 320.593706 
L 413.125425 311.109501 
L 413.389728 323.386857 
L 413.654031 316.435247 
L 413.918334 325.919452 
L 414.182637 302.323583 
L 414.711243 318.384199 
L 414.975546 327.84756 
L 415.239848 310.525858 
L 415.504151 335.872657 
L 416.032757 319.791197 
L 416.561363 299.394944 
L 416.825666 320.552018 
L 417.089969 308.274662 
L 417.354271 325.596364 
L 417.618574 327.076317 
L 417.882877 311.140768 
L 418.411483 350.672186 
L 418.675786 341.208825 
L 418.940089 351.130763 
L 419.204392 328.389515 
L 419.732997 314.965716 
L 419.9973 336.21659 
L 420.261603 328.181071 
L 420.525906 350.922319 
L 420.790209 357.873929 
L 421.318814 313.120986 
L 421.583117 314.798961 
L 421.84742 325.711008 
L 422.111723 318.759399 
L 422.640329 290.275516 
L 422.904632 288.597541 
L 423.168935 290.327627 
L 423.433237 269.076753 
L 423.69754 273.22479 
L 423.961843 247.877991 
L 424.226146 269.035064 
L 424.490449 254.193846 
L 424.754752 269.035064 
L 425.019055 247.877991 
L 425.283358 255.163111 
L 425.54766 274.45461 
L 425.811963 285.366658 
L 426.076266 282.333796 
L 426.340569 247.283925 
L 426.869175 292.036868 
L 427.133478 277.19565 
L 427.397781 288.107697 
L 427.662083 313.454497 
L 427.926386 302.542449 
L 428.190689 312.026655 
L 428.454992 307.878618 
L 428.983598 262.177254 
L 429.247901 259.144393 
L 429.512204 266.096003 
L 429.776506 277.258183 
L 430.040809 267.336245 
L 430.305112 282.177463 
L 430.569415 271.015283 
L 430.833718 248.274035 
L 431.098021 240.988914 
L 431.626627 259.936481 
L 431.890929 280.009645 
L 432.419535 249.555966 
L 432.683838 259.477904 
L 432.948141 256.278287 
L 433.212444 273.339435 
L 433.476747 267.179912 
L 433.741049 256.017732 
L 434.005352 240.082182 
L 434.269655 289.535539 
L 434.533958 292.568401 
L 434.798261 285.616791 
L 435.062564 284.136838 
L 435.326867 269.243509 
L 435.59117 292.14109 
L 436.119775 245.647639 
L 436.384078 247.127592 
L 436.912684 200.623719 
L 437.176987 190.701781 
L 437.44129 194.849818 
L 438.234198 257.716551 
L 438.498501 264.668161 
L 438.762804 290.014961 
L 439.027107 283.063351 
L 439.29141 260.259569 
L 439.555713 267.211179 
L 439.820016 259.17566 
L 440.084318 274.068989 
L 440.348621 256.747286 
L 440.612924 277.99816 
L 440.877227 263.104831 
L 441.14153 266.512891 
L 441.405833 275.997097 
L 441.670136 298.738345 
L 441.934439 277.581272 
L 442.198741 293.516821 
L 442.463044 270.775572 
L 442.727347 272.255525 
L 442.99165 293.412599 
L 443.255953 300.364209 
L 443.520256 303.39707 
L 443.784559 282.239997 
L 444.313164 308.243395 
L 444.577467 295.966039 
L 444.84177 306.878086 
L 445.106073 280.937221 
L 445.370376 269.775041 
L 445.634679 246.179172 
L 445.898982 238.143653 
L 446.163285 250.764941 
L 446.427587 276.705806 
L 446.69189 288.983162 
L 446.956193 295.142685 
L 447.220496 291.943068 
L 447.484799 313.100142 
L 447.749102 306.148532 
L 448.013405 291.255203 
L 448.277707 270.098129 
L 448.54201 290.171294 
L 448.806313 275.653164 
L 449.070616 290.546493 
L 449.334919 270.473329 
L 449.599222 294.069198 
L 449.863525 235.548524 
L 450.127828 246.460571 
L 450.656433 284.105571 
L 450.920736 296.382927 
L 451.185039 289.431317 
L 451.713645 260.071969 
L 452.242251 297.810769 
L 452.506553 286.450567 
L 452.770856 263.646785 
L 453.035159 287.242654 
L 453.299462 294.527775 
L 453.563765 269.180975 
L 453.828068 278.665181 
L 454.092371 255.923932 
L 454.356674 262.06261 
L 454.620976 249.962432 
L 454.885279 251.640406 
L 455.149582 244.355286 
L 455.413885 221.457704 
L 455.678188 244.198953 
L 456.206794 222.437392 
L 456.471097 201.280318 
L 456.735399 207.43984 
L 456.999702 201.301162 
L 457.264005 224.198744 
L 457.528308 213.286697 
L 457.792611 220.238307 
L 458.321217 241.520447 
L 458.58552 230.358266 
L 458.849822 224.198744 
L 459.114125 233.662105 
L 459.642731 219.237775 
L 459.907034 234.131104 
L 460.171337 256.934886 
L 460.43564 245.574684 
L 460.699942 261.510233 
L 460.964245 241.437069 
L 461.492851 288.535008 
L 461.757154 291.567869 
L 462.021457 302.928071 
L 462.28576 293.006133 
L 462.550063 291.276047 
L 462.814365 276.434829 
L 463.078668 253.537247 
L 463.607274 246.356349 
L 463.871577 223.615101 
L 464.13588 216.663491 
L 464.664486 229.211824 
L 464.928788 230.94191 
L 465.193091 240.863848 
L 465.457394 229.503646 
L 465.721697 232.536507 
L 465.986 255.277756 
L 466.250303 261.416434 
L 466.514606 281.489598 
L 467.043211 275.25712 
L 467.571817 307.096953 
L 467.83612 305.366867 
L 468.100423 320.208085 
L 468.629029 273.110146 
L 468.893332 281.145665 
L 469.157634 282.875751 
L 469.421937 274.840232 
L 469.68624 295.997306 
L 469.950543 307.357508 
L 470.214846 222.260214 
L 470.479149 242.333378 
L 470.743452 219.435797 
L 471.007755 211.400278 
L 471.53636 243.563199 
L 471.800663 266.46078 
L 472.064966 259.50917 
L 472.593572 289.96285 
L 472.857875 275.121631 
L 473.38648 321.458749 
L 474.443692 251.640406 
L 474.707995 228.899158 
L 474.972298 235.05868 
L 475.2366 235.05868 
L 475.500903 227.77356 
L 475.765206 301.844162 
L 476.029509 295.705484 
L 476.293812 286.242123 
L 476.558115 309.837992 
L 476.822418 288.587119 
L 477.351023 267.753133 
L 477.615326 277.675071 
L 477.879629 281.823108 
L 478.936841 221.061661 
L 479.201144 211.139723 
L 479.465446 236.486522 
L 479.729749 225.12632 
L 479.994052 241.06187 
L 480.522658 192.817488 
L 480.786961 216.413358 
L 481.051264 200.477808 
L 481.315567 197.684658 
L 481.579869 212.525876 
L 481.844172 205.240755 
L 482.372778 221.989237 
L 482.637081 247.336036 
L 482.901384 235.235858 
L 483.165687 261.176723 
L 483.42999 235.829923 
L 483.694292 228.544803 
L 483.958595 243.438132 
L 484.222898 241.760157 
L 484.487201 248.148968 
L 485.015807 268.795354 
L 485.28011 271.828215 
L 485.544412 283.928394 
L 485.808715 262.77132 
L 486.073018 258.623283 
L 486.337321 243.782065 
L 486.601624 242.051979 
L 486.865927 248.190657 
L 487.13023 242.051979 
L 487.658835 280.624555 
L 487.923138 296.560105 
L 488.187441 319.457686 
L 488.451744 304.564357 
L 488.716047 315.924559 
L 488.98035 322.063237 
L 489.244653 207.554485 
L 489.508956 210.587346 
L 489.773258 236.528211 
L 490.301864 254.027091 
L 490.566167 275.277964 
L 490.83047 254.027091 
L 491.359076 282.510974 
L 491.887681 279.102913 
L 492.151984 301.844162 
L 492.416287 308.232973 
L 492.68059 331.130554 
L 492.944893 338.082164 
L 493.473499 298.019213 
L 493.737802 319.270087 
L 494.002104 315.122049 
L 494.53071 300.885319 
L 494.795013 279.634446 
L 495.059316 286.919566 
L 495.323619 276.007519 
L 495.587922 296.080683 
L 495.852225 306.99273 
L 496.116527 300.833208 
L 496.38083 324.429077 
L 496.645133 301.531496 
L 496.909436 307.670174 
L 497.173739 299.634655 
L 497.438042 296.435038 
L 497.702345 281.541709 
L 497.966647 291.025914 
L 498.23095 295.173951 
L 498.495253 296.851926 
L 498.759556 314.173629 
L 499.023859 307.784818 
L 499.288162 295.507462 
L 499.816768 308.618594 
L 500.08107 295.997306 
L 500.345373 299.196922 
L 500.609676 288.284875 
L 500.873979 286.804922 
L 501.402585 261.124612 
L 502.195493 301.896273 
L 502.459796 276.549473 
L 502.724099 276.549473 
L 502.988402 269.597863 
L 503.252705 294.944663 
L 503.781311 282.646463 
L 504.045614 293.55851 
L 504.838522 263.209053 
L 505.102825 264.939138 
L 505.631431 244.542886 
L 505.895734 242.8128 
L 506.160037 216.871935 
L 506.424339 239.769516 
L 506.688642 236.736655 
L 506.952945 213.839073 
L 507.217248 315.778648 
L 508.010157 284.553726 
L 508.27446 299.447055 
L 508.538762 299.447055 
L 508.803065 273.50619 
L 509.067368 298.852989 
L 509.331671 297.373036 
L 509.595974 306.836397 
L 509.860277 305.106312 
L 510.12458 293.944131 
L 510.388882 308.462261 
L 510.653185 285.658479 
L 510.917488 282.625618 
L 511.181791 261.374745 
L 511.446094 255.215222 
L 511.710397 240.374004 
L 511.9747 241.853957 
L 512.239003 232.390596 
L 512.503305 252.463761 
L 512.767608 254.193846 
L 513.031911 239.300517 
L 513.296214 232.348907 
L 513.560517 209.451326 
L 513.82482 216.402936 
L 514.089123 210.264258 
L 514.353426 211.942232 
L 514.617728 197.424103 
L 514.882031 174.682854 
L 515.146334 180.842376 
L 515.410637 195.735706 
L 515.67494 218.633287 
L 515.939243 214.48525 
L 516.203546 198.549701 
L 516.467849 208.471638 
L 516.732151 211.5045 
L 516.996454 209.774414 
L 517.260757 219.237775 
L 518.053666 281.572976 
L 518.317969 302.730049 
L 518.582272 308.868727 
L 518.846574 220.748995 
L 519.110877 219.018909 
L 519.37518 204.500779 
L 519.639483 225.657852 
L 519.903786 221.509815 
L 520.168089 200.352742 
L 520.432392 202.989559 
L 520.696695 209.149082 
L 520.960997 201.113563 
L 521.2253 216.006892 
L 521.489603 217.736978 
L 521.753906 224.688588 
L 522.018209 222.958502 
L 522.282512 224.688588 
L 522.546815 213.526407 
L 522.811118 219.665085 
L 523.07542 221.34306 
L 523.339723 229.378579 
L 523.604026 241.478758 
L 523.868329 229.201402 
L 524.132632 236.486522 
L 524.396935 215.235649 
L 524.661238 229.753779 
L 524.92554 252.55756 
L 525.189843 246.398038 
L 525.454146 244.667952 
L 525.718449 218.727087 
L 525.982752 210.691568 
L 526.511358 231.348376 
L 526.775661 242.510556 
L 527.304266 227.189916 
L 527.832872 255.402822 
L 528.097175 264.887027 
L 528.361478 250.045809 
L 528.890084 236.955521 
L 529.154386 221.019972 
L 529.418689 218.383154 
L 529.682992 241.979024 
L 529.947295 287.638698 
L 530.211598 297.122904 
L 530.740204 328.962736 
L 531.004507 322.803214 
L 531.268809 333.715261 
L 531.533112 322.803214 
L 531.797415 296.862348 
L 532.061718 290.473538 
L 532.326021 290.473538 
L 532.590324 296.862348 
L 532.854627 296.862348 
L 533.11893 309.139704 
L 533.383232 296.862348 
L 533.911838 343.262 
L 534.440444 306.075577 
L 534.704747 294.715374 
L 534.96905 307.336663 
L 535.233353 305.606577 
L 535.761958 272.912124 
L 536.290564 258.737927 
L 536.554867 235.934145 
L 536.81917 243.219266 
L 537.083473 217.872466 
L 537.347775 229.972645 
L 537.612078 215.131427 
L 538.933593 320.145552 
L 539.197896 313.193942 
L 539.462198 313.193942 
L 539.726501 316.393558 
L 539.990804 323.345168 
L 540.51941 347.326659 
L 540.783713 337.404721 
L 541.048016 320.083018 
L 541.312319 326.221696 
L 541.576621 327.899671 
L 541.840924 324.86681 
L 542.105227 336.02899 
L 542.36953 193.588732 
L 542.633833 195.068684 
L 542.898136 206.230865 
L 543.162439 229.128446 
L 543.426742 217.966266 
L 543.691044 227.429627 
L 543.955347 225.699541 
L 544.21965 227.429627 
L 544.483953 204.532045 
L 544.748256 204.532045 
L 545.012559 229.878845 
L 545.541165 255.757177 
L 545.805467 249.597654 
L 546.06977 252.797271 
L 546.334073 276.820451 
L 546.598376 284.85597 
L 546.862679 278.717292 
L 547.126982 288.63923 
L 547.391285 291.672091 
L 547.655588 303.032293 
L 548.184193 280.489066 
L 548.448496 278.811092 
L 548.712799 301.614873 
L 548.977102 293.579354 
L 549.505708 317.560845 
L 550.298616 255.72591 
L 550.562919 247.690391 
L 551.091525 294.78833 
L 551.355828 273.631256 
L 551.620131 280.020067 
L 551.884433 278.289981 
L 552.413039 278.289981 
L 552.677342 301.03123 
L 552.941645 294.892552 
L 553.205948 293.214577 
L 553.734554 293.214577 
L 553.998856 300.499698 
L 554.263159 321.656771 
L 554.527462 315.26796 
L 554.791765 302.990604 
L 555.056068 325.888186 
L 555.320371 310.994857 
L 555.848977 334.434393 
L 556.113279 319.593175 
L 556.377582 318.113222 
L 556.641885 302.177672 
L 556.906188 324.981454 
L 557.434794 337.529787 
L 557.699097 348.441835 
L 557.9634 342.053024 
L 558.227702 343.78311 
L 558.492005 322.532236 
L 558.756308 326.680273 
L 559.020611 341.198403 
L 559.549217 303.782692 
L 559.81352 305.262645 
L 560.077823 305.262645 
L 560.342125 282.521396 
L 560.606428 275.236276 
L 560.870731 278.269137 
L 561.135034 286.304656 
L 561.399337 278.269137 
L 561.66364 257.112063 
L 561.927943 265.147582 
L 562.192245 261.947966 
L 562.456548 263.625941 
L 562.720851 238.279141 
L 562.985154 247.763347 
L 563.249457 273.110146 
L 563.51376 266.950624 
L 563.778063 266.950624 
L 564.042366 249.628921 
L 564.306668 255.767599 
L 564.570971 276.924673 
L 564.835274 284.209793 
L 565.099577 258.268928 
L 565.36388 264.42845 
L 565.628183 258.289772 
L 565.892486 256.559687 
L 566.156789 248.524167 
L 566.421091 251.723784 
L 566.685394 248.690923 
L 566.949697 264.626472 
L 567.214 253.714425 
L 567.478303 256.747286 
L 567.742606 279.644868 
L 568.271212 234.224904 
L 568.535514 224.302966 
L 568.799817 224.302966 
L 569.328423 272.391014 
L 569.592726 281.854375 
L 569.857029 280.374422 
L 570.121332 301.625296 
L 570.385635 312.537343 
L 570.649937 318.676021 
L 570.91424 302.740471 
L 571.178543 296.601793 
L 571.442846 308.701972 
L 571.707149 299.238611 
L 572.76436 354.809801 
L 573.028663 356.539887 
L 573.557269 331.641242 
L 573.821572 331.641242 
L 574.085875 306.294443 
L 574.350178 307.774396 
L 574.61448 295.674217 
L 574.878783 303.709736 
L 575.143086 316.331025 
L 575.671692 273.923078 
L 575.935995 266.637958 
L 576.200298 278.915314 
L 576.464601 256.111532 
L 576.728903 266.03347 
L 576.993206 287.284343 
L 577.257509 263.688474 
L 577.521812 263.688474 
L 577.786115 279.624023 
L 578.050418 264.782805 
L 578.314721 263.302852 
L 578.843326 263.302852 
L 579.107629 261.572767 
L 579.371932 257.424729 
L 579.636235 268.784932 
L 579.900538 262.625409 
L 580.164841 269.577019 
L 580.429144 258.664972 
L 580.693447 255.465355 
L 580.957749 255.465355 
L 581.222052 240.947225 
L 581.486355 244.146842 
L 581.750658 238.008164 
L 582.014961 228.523959 
L 582.279264 245.845661 
L 582.543567 245.845661 
L 582.80787 229.910112 
L 583.072172 229.910112 
L 583.336475 218.747931 
L 583.600778 225.136742 
L 584.129384 225.136742 
L 584.393687 221.937126 
L 584.922293 242.583511 
L 585.186595 234.547992 
L 585.450898 236.027945 
L 585.715201 258.831727 
L 585.979504 268.295088 
L 586.243807 261.343478 
L 586.50811 248.722189 
L 586.772413 254.860867 
L 587.036715 248.472056 
L 587.301018 255.757177 
L 587.565321 249.618499 
L 587.829624 246.585638 
L 588.093927 246.585638 
L 588.35823 262.521187 
L 588.622533 262.521187 
L 588.886836 239.623605 
L 589.151138 228.461425 
L 589.415441 243.302643 
L 589.679744 241.624669 
L 589.944047 243.302643 
L 590.20835 243.302643 
L 590.472653 247.450681 
L 590.736956 249.180766 
L 591.001259 239.696561 
L 591.794167 239.696561 
L 592.322773 288.63923 
L 592.587076 288.63923 
L 592.851379 267.388356 
L 593.115682 278.300404 
L 593.379984 252.953604 
L 593.644287 252.953604 
L 593.90859 267.846933 
L 594.172893 266.116847 
L 594.437196 266.116847 
L 594.701499 263.500874 
L 594.965802 263.500874 
L 595.230105 278.394203 
L 595.75871 259.196504 
L 596.023013 270.358684 
L 596.287316 255.465355 
L 596.815922 242.354223 
L 597.080225 257.247552 
L 597.344528 250.858741 
L 597.873133 250.858741 
L 598.137436 239.696561 
L 598.401739 239.696561 
L 598.666042 246.981681 
L 598.930345 246.981681 
L 599.194648 237.497476 
L 600.251859 237.497476 
L 600.516162 222.979346 
L 600.780465 238.914896 
L 601.044768 213.568096 
L 601.309071 225.845452 
L 601.573373 232.004975 
L 601.837676 243.365177 
L 602.101979 243.365177 
L 602.366282 254.527357 
L 602.630585 228.586492 
L 602.894888 217.424312 
L 603.687796 217.424312 
L 603.952099 205.146956 
L 604.216402 205.146956 
L 604.480705 183.989882 
L 604.745008 185.667857 
L 605.273614 185.667857 
L 605.537917 196.830037 
L 606.066522 196.830037 
L 606.330825 203.781647 
L 606.595128 192.421445 
L 606.859431 190.691359 
L 607.123734 178.07007 
L 608.180945 178.07007 
L 608.445248 187.533431 
L 608.709551 187.533431 
L 608.973854 171.597882 
L 609.238157 171.597882 
L 609.50246 187.533431 
L 610.295368 187.533431 
L 610.559671 176.371251 
L 610.823974 176.371251 
L 611.088277 169.086131 
L 611.35258 169.086131 
L 611.616883 153.150581 
L 611.881186 151.472606 
L 612.145488 145.333928 
L 612.409791 145.333928 
L 612.674094 139.174406 
L 612.938397 150.086453 
L 613.2027 150.086453 
L 613.467003 160.008391 
L 613.995608 143.134843 
L 614.259911 143.134843 
L 614.788517 155.433044 
L 615.05282 156.912997 
L 615.317123 156.912997 
L 615.581426 153.880135 
L 615.845729 142.968088 
L 616.90294 142.968088 
L 617.167243 165.77187 
L 617.431546 178.049226 
L 617.695849 178.049226 
L 617.960152 188.961273 
L 618.488757 188.961273 
L 618.75306 166.157491 
L 619.281666 195.516839 
L 619.810272 195.516839 
L 620.074575 198.549701 
L 620.60318 198.549701 
L 620.867483 202.697738 
L 621.131786 187.804408 
L 621.396089 187.804408 
L 621.660392 189.482383 
L 622.981906 189.482383 
L 623.246209 168.23151 
L 623.510512 168.23151 
L 623.774815 162.092832 
L 624.039118 162.092832 
L 624.303421 159.914591 
L 624.832026 159.914591 
L 625.096329 169.836529 
L 625.889238 169.836529 
L 626.153541 168.085599 
L 626.417843 185.407302 
L 626.682146 194.891507 
L 627.475055 194.891507 
L 627.739358 193.161421 
L 628.532266 193.161421 
L 628.796569 197.820146 
L 629.060872 180.498444 
L 629.325175 180.498444 
L 629.589478 188.533963 
L 629.853781 176.256607 
L 630.118084 170.117929 
L 630.646689 170.117929 
L 630.910992 160.195991 
L 631.175295 157.163129 
L 631.703901 157.163129 
L 631.968204 158.643082 
L 632.49681 158.643082 
L 633.025415 154.630534 
L 633.818324 154.630534 
L 634.082627 162.436765 
L 634.875535 162.436765 
L 635.139838 141.269269 
L 635.404141 141.269269 
L 635.668444 130.357221 
L 636.19705 130.357221 
L 636.461353 141.519402 
L 636.725656 141.519402 
L 636.989958 127.001272 
L 637.518564 127.001272 
L 637.782867 128.481225 
L 638.311473 128.481225 
L 638.575776 131.514086 
L 638.840078 128.314469 
L 639.368684 107.668084 
L 639.632987 107.668084 
L 639.89729 117.131445 
L 640.161593 117.131445 
L 640.425896 128.293625 
L 640.690199 124.145588 
L 641.483107 124.145588 
L 641.74741 122.415502 
L 643.068924 122.415502 
L 643.333227 110.315324 
L 644.126136 110.315324 
L 644.390439 115.088693 
L 645.183347 115.088693 
L 645.44765 103.728491 
L 646.240559 103.728491 
L 646.504862 106.928107 
L 646.769165 103.895246 
L 654.698251 103.895246 
L 654.962554 116.516535 
L 655.226857 109.231414 
L 655.755462 109.231414 
L 656.019765 104.458045 
L 657.605582 104.458045 
L 657.869885 106.188131 
L 658.398491 106.188131 
L 658.662794 96.72477 
L 665.534669 96.72477 
L 665.798971 98.402745 
L 667.649092 98.402745 
L 667.913394 95.203128 
L 670.027817 95.203128 
L 670.29212 93.525153 
L 674.520966 93.525153 
L 674.785269 95.203128 
L 679.278418 95.203128 
L 679.542721 93.525153 
L 703.329979 93.525153 
L 703.594282 94.952995 
L 703.858585 90.367226 
L 712.58058 90.367226 
L 712.844883 88.887273 
L 871.690909 88.887273 
L 871.690909 88.887273 
" style="fill:none;stroke:#8dd3c7;stroke-linecap:square;stroke-width:1.5;"/>
   </g>
   <g id="line2d_16">
    <path clip-path="url(#p0fd0b58a09)" d="M 161.509091 146.793037 
L 232.606564 146.793037 
L 232.870866 145.177595 
L 233.135169 139.018073 
L 333.834564 139.018073 
L 334.098867 138.58034 
L 376.123023 138.58034 
L 376.387326 136.798143 
L 376.651629 136.798143 
L 376.915932 128.793891 
L 377.180235 124.645854 
L 638.840078 124.645854 
L 639.104381 118.830264 
L 639.368684 107.668084 
L 645.183347 107.668084 
L 645.44765 103.728491 
L 658.398491 103.728491 
L 658.662794 96.72477 
L 667.649092 96.72477 
L 667.913394 95.203128 
L 670.027817 95.203128 
L 670.29212 93.525153 
L 703.594282 93.525153 
L 703.858585 90.367226 
L 712.58058 90.367226 
L 712.844883 88.887273 
L 871.690909 88.887273 
L 871.690909 88.887273 
" style="fill:none;stroke:#feffb3;stroke-linecap:square;stroke-width:1.5;"/>
   </g>
   <g id="line2d_17">
    <path clip-path="url(#p0fd0b58a09)" d="M 161.509091 248.024944 
L 163.359211 248.024944 
L 163.623514 262.725663 
L 165.473634 262.725663 
L 165.737937 276.511462 
L 167.588057 276.511462 
L 167.85236 289.439283 
L 169.70248 289.439283 
L 169.966783 301.562524 
L 171.816903 301.562524 
L 172.081206 312.931257 
L 173.931326 312.931257 
L 174.195629 323.592442 
L 176.045749 323.592442 
L 176.310052 333.590113 
L 178.160172 333.590113 
L 178.424475 342.965565 
L 180.274595 342.965565 
L 180.538898 351.757523 
L 182.389018 351.757523 
L 182.653321 360.002301 
L 184.503441 360.002301 
L 184.767744 367.733954 
L 186.617864 367.733954 
L 186.882167 374.984416 
L 188.732287 374.984416 
L 188.99659 381.783637 
L 190.84671 381.783637 
L 191.111013 388.159698 
L 192.961133 388.159698 
L 193.225436 394.138936 
L 195.075556 394.138936 
L 195.339859 399.746048 
L 197.189979 399.746048 
L 197.454282 405.004194 
L 199.304402 405.004194 
L 199.568705 409.935092 
L 201.418825 409.935092 
L 201.683128 414.559108 
L 203.533248 414.559108 
L 203.79755 418.895342 
L 205.647671 418.895342 
L 205.911973 422.961705 
L 207.762094 422.961705 
L 208.026396 426.774992 
L 209.876517 426.774992 
L 210.140819 430.350954 
L 211.99094 430.350954 
L 212.255242 433.704361 
L 214.105363 433.704361 
L 214.369665 436.849064 
L 216.219785 436.849064 
L 216.484088 439.798052 
L 218.334208 439.798052 
L 218.598511 442.563506 
L 220.448631 442.563506 
L 220.712934 445.156847 
L 222.563054 445.156847 
L 222.827357 447.588789 
L 224.677477 447.588789 
L 224.94178 449.869375 
L 226.7919 449.869375 
L 227.056203 452.008026 
L 228.906323 452.008026 
L 229.170626 454.013575 
L 231.020746 454.013575 
L 231.285049 455.894306 
L 233.135169 455.894306 
L 233.399472 457.657987 
L 235.249592 457.657987 
L 235.513895 459.311903 
L 237.364015 459.311903 
L 237.628318 460.862885 
L 239.478438 460.862885 
L 239.742741 462.317339 
L 241.592861 462.317339 
L 241.857164 463.681274 
L 243.707284 463.681274 
L 243.971587 464.960322 
L 245.821707 464.960322 
L 246.08601 466.159767 
L 247.93613 466.159767 
L 248.200433 467.284563 
L 250.050553 467.284563 
L 250.314856 468.339355 
L 252.164976 468.339355 
L 252.429279 469.328501 
L 254.279399 469.328501 
L 254.543702 470.256087 
L 256.393822 470.256087 
L 256.658125 471.125942 
L 258.508245 471.125942 
L 258.772548 471.941661 
L 260.622668 471.941661 
L 260.886971 472.706613 
L 262.737091 472.706613 
L 263.001394 473.423956 
L 264.851514 473.423956 
L 265.115817 474.096655 
L 266.965937 474.096655 
L 267.23024 474.727488 
L 269.08036 474.727488 
L 269.344663 475.31906 
L 271.194783 475.31906 
L 271.459086 475.873814 
L 273.309206 475.873814 
L 273.573509 476.394043 
L 275.423629 476.394043 
L 275.687932 476.881894 
L 277.538052 476.881894 
L 277.802355 477.339383 
L 279.652475 477.339383 
L 279.916778 477.7684 
L 281.766898 477.7684 
L 282.031201 478.170717 
L 283.881321 478.170717 
L 284.145624 478.547994 
L 285.995744 478.547994 
L 286.260047 478.901791 
L 288.110167 478.901791 
L 288.37447 479.23357 
L 290.22459 479.23357 
L 290.488893 479.544699 
L 292.339013 479.544699 
L 292.603316 479.836465 
L 294.453436 479.836465 
L 294.717739 480.110073 
L 296.567859 480.110073 
L 296.832162 480.366652 
L 298.682282 480.366652 
L 298.946585 480.607262 
L 300.796705 480.607262 
L 301.061008 480.832898 
L 302.911128 480.832898 
L 303.175431 481.044491 
L 305.025551 481.044491 
L 305.289854 481.242916 
L 307.139974 481.242916 
L 307.404276 481.428991 
L 309.254397 481.428991 
L 309.518699 481.603485 
L 311.36882 481.603485 
L 311.633122 481.76712 
L 313.483243 481.76712 
L 313.747545 481.92057 
L 315.597666 481.92057 
L 315.861968 482.06447 
L 317.712089 482.06447 
L 317.976391 482.199415 
L 319.826511 482.199415 
L 320.090814 482.325961 
L 321.940934 482.325961 
L 322.46954 482.444631 
L 324.055357 482.444631 
L 324.583963 482.555916 
L 328.284203 482.660275 
L 328.812809 482.758138 
L 332.513049 482.849911 
L 333.041655 482.935973 
L 336.741895 483.016678 
L 337.270501 483.092361 
L 340.970741 483.163333 
L 341.499347 483.229888 
L 345.199587 483.292301 
L 345.728193 483.35083 
L 351.542856 483.457186 
L 352.335765 483.505453 
L 357.886125 483.593162 
L 358.679034 483.632966 
L 366.343817 483.738122 
L 367.401029 483.768905 
L 376.915932 483.874032 
L 378.237446 483.896356 
L 391.716893 484.003968 
L 394.095619 484.031556 
L 421.318814 484.139684 
L 427.133478 484.155997 
L 871.690909 484.232727 
L 871.690909 484.232727 
" style="fill:none;stroke:#bfbbd9;stroke-linecap:square;stroke-width:1.5;"/>
   </g>
   <g id="patch_3">
    <path d="M 126 504 
L 126 69.12 
" style="fill:none;stroke:#ffffff;stroke-linecap:square;stroke-linejoin:miter;stroke-width:0.8;"/>
   </g>
   <g id="patch_4">
    <path d="M 907.2 504 
L 907.2 69.12 
" style="fill:none;stroke:#ffffff;stroke-linecap:square;stroke-linejoin:miter;stroke-width:0.8;"/>
   </g>
   <g id="patch_5">
    <path d="M 126 504 
L 907.2 504 
" style="fill:none;stroke:#ffffff;stroke-linecap:square;stroke-linejoin:miter;stroke-width:0.8;"/>
   </g>
   <g id="patch_6">
    <path d="M 126 69.12 
L 907.2 69.12 
" style="fill:none;stroke:#ffffff;stroke-linecap:square;stroke-linejoin:miter;stroke-width:0.8;"/>
   </g>
   <g id="text_16">
    <!-- instance 12 with error 0.025860297894196194 -->
    <g style="fill:#ffffff;" transform="translate(374.229375 63.12)scale(0.12 -0.12)">
     <defs>
      <path d="M 2834 3397 
L 2834 2853 
Q 2591 2978 2328 3040 
Q 2066 3103 1784 3103 
Q 1356 3103 1142 2972 
Q 928 2841 928 2578 
Q 928 2378 1081 2264 
Q 1234 2150 1697 2047 
L 1894 2003 
Q 2506 1872 2764 1633 
Q 3022 1394 3022 966 
Q 3022 478 2636 193 
Q 2250 -91 1575 -91 
Q 1294 -91 989 -36 
Q 684 19 347 128 
L 347 722 
Q 666 556 975 473 
Q 1284 391 1588 391 
Q 1994 391 2212 530 
Q 2431 669 2431 922 
Q 2431 1156 2273 1281 
Q 2116 1406 1581 1522 
L 1381 1569 
Q 847 1681 609 1914 
Q 372 2147 372 2553 
Q 372 3047 722 3315 
Q 1072 3584 1716 3584 
Q 2034 3584 2315 3537 
Q 2597 3491 2834 3397 
z
" id="DejaVuSans-73" transform="scale(0.015625)"/>
      <path d="M 3122 3366 
L 3122 2828 
Q 2878 2963 2633 3030 
Q 2388 3097 2138 3097 
Q 1578 3097 1268 2742 
Q 959 2388 959 1747 
Q 959 1106 1268 751 
Q 1578 397 2138 397 
Q 2388 397 2633 464 
Q 2878 531 3122 666 
L 3122 134 
Q 2881 22 2623 -34 
Q 2366 -91 2075 -91 
Q 1284 -91 818 406 
Q 353 903 353 1747 
Q 353 2603 823 3093 
Q 1294 3584 2113 3584 
Q 2378 3584 2631 3529 
Q 2884 3475 3122 3366 
z
" id="DejaVuSans-63" transform="scale(0.015625)"/>
      <path id="DejaVuSans-20" transform="scale(0.015625)"/>
      <path d="M 269 3500 
L 844 3500 
L 1563 769 
L 2278 3500 
L 2956 3500 
L 3675 769 
L 4391 3500 
L 4966 3500 
L 4050 0 
L 3372 0 
L 2619 2869 
L 1863 0 
L 1184 0 
L 269 3500 
z
" id="DejaVuSans-77" transform="scale(0.015625)"/>
      <path d="M 3513 2113 
L 3513 0 
L 2938 0 
L 2938 2094 
Q 2938 2591 2744 2837 
Q 2550 3084 2163 3084 
Q 1697 3084 1428 2787 
Q 1159 2491 1159 1978 
L 1159 0 
L 581 0 
L 581 4863 
L 1159 4863 
L 1159 2956 
Q 1366 3272 1645 3428 
Q 1925 3584 2291 3584 
Q 2894 3584 3203 3211 
Q 3513 2838 3513 2113 
z
" id="DejaVuSans-68" transform="scale(0.015625)"/>
      <path d="M 684 794 
L 1344 794 
L 1344 0 
L 684 0 
L 684 794 
z
" id="DejaVuSans-2e" transform="scale(0.015625)"/>
      <path d="M 2034 2216 
Q 1584 2216 1326 1975 
Q 1069 1734 1069 1313 
Q 1069 891 1326 650 
Q 1584 409 2034 409 
Q 2484 409 2743 651 
Q 3003 894 3003 1313 
Q 3003 1734 2745 1975 
Q 2488 2216 2034 2216 
z
M 1403 2484 
Q 997 2584 770 2862 
Q 544 3141 544 3541 
Q 544 4100 942 4425 
Q 1341 4750 2034 4750 
Q 2731 4750 3128 4425 
Q 3525 4100 3525 3541 
Q 3525 3141 3298 2862 
Q 3072 2584 2669 2484 
Q 3125 2378 3379 2068 
Q 3634 1759 3634 1313 
Q 3634 634 3220 271 
Q 2806 -91 2034 -91 
Q 1263 -91 848 271 
Q 434 634 434 1313 
Q 434 1759 690 2068 
Q 947 2378 1403 2484 
z
M 1172 3481 
Q 1172 3119 1398 2916 
Q 1625 2713 2034 2713 
Q 2441 2713 2670 2916 
Q 2900 3119 2900 3481 
Q 2900 3844 2670 4047 
Q 2441 4250 2034 4250 
Q 1625 4250 1398 4047 
Q 1172 3844 1172 3481 
z
" id="DejaVuSans-38" transform="scale(0.015625)"/>
      <path d="M 2113 2584 
Q 1688 2584 1439 2293 
Q 1191 2003 1191 1497 
Q 1191 994 1439 701 
Q 1688 409 2113 409 
Q 2538 409 2786 701 
Q 3034 994 3034 1497 
Q 3034 2003 2786 2293 
Q 2538 2584 2113 2584 
z
M 3366 4563 
L 3366 3988 
Q 3128 4100 2886 4159 
Q 2644 4219 2406 4219 
Q 1781 4219 1451 3797 
Q 1122 3375 1075 2522 
Q 1259 2794 1537 2939 
Q 1816 3084 2150 3084 
Q 2853 3084 3261 2657 
Q 3669 2231 3669 1497 
Q 3669 778 3244 343 
Q 2819 -91 2113 -91 
Q 1303 -91 875 529 
Q 447 1150 447 2328 
Q 447 3434 972 4092 
Q 1497 4750 2381 4750 
Q 2619 4750 2861 4703 
Q 3103 4656 3366 4563 
z
" id="DejaVuSans-36" transform="scale(0.015625)"/>
      <path d="M 703 97 
L 703 672 
Q 941 559 1184 500 
Q 1428 441 1663 441 
Q 2288 441 2617 861 
Q 2947 1281 2994 2138 
Q 2813 1869 2534 1725 
Q 2256 1581 1919 1581 
Q 1219 1581 811 2004 
Q 403 2428 403 3163 
Q 403 3881 828 4315 
Q 1253 4750 1959 4750 
Q 2769 4750 3195 4129 
Q 3622 3509 3622 2328 
Q 3622 1225 3098 567 
Q 2575 -91 1691 -91 
Q 1453 -91 1209 -44 
Q 966 3 703 97 
z
M 1959 2075 
Q 2384 2075 2632 2365 
Q 2881 2656 2881 3163 
Q 2881 3666 2632 3958 
Q 2384 4250 1959 4250 
Q 1534 4250 1286 3958 
Q 1038 3666 1038 3163 
Q 1038 2656 1286 2365 
Q 1534 2075 1959 2075 
z
" id="DejaVuSans-39" transform="scale(0.015625)"/>
      <path d="M 525 4666 
L 3525 4666 
L 3525 4397 
L 1831 0 
L 1172 0 
L 2766 4134 
L 525 4134 
L 525 4666 
z
" id="DejaVuSans-37" transform="scale(0.015625)"/>
      <path d="M 2419 4116 
L 825 1625 
L 2419 1625 
L 2419 4116 
z
M 2253 4666 
L 3047 4666 
L 3047 1625 
L 3713 1625 
L 3713 1100 
L 3047 1100 
L 3047 0 
L 2419 0 
L 2419 1100 
L 313 1100 
L 313 1709 
L 2253 4666 
z
" id="DejaVuSans-34" transform="scale(0.015625)"/>
     </defs>
     <use xlink:href="#DejaVuSans-69"/>
     <use x="27.783203" xlink:href="#DejaVuSans-6e"/>
     <use x="91.162109" xlink:href="#DejaVuSans-73"/>
     <use x="143.261719" xlink:href="#DejaVuSans-74"/>
     <use x="182.470703" xlink:href="#DejaVuSans-61"/>
     <use x="243.75" xlink:href="#DejaVuSans-6e"/>
     <use x="307.128906" xlink:href="#DejaVuSans-63"/>
     <use x="362.109375" xlink:href="#DejaVuSans-65"/>
     <use x="423.632812" xlink:href="#DejaVuSans-20"/>
     <use x="455.419922" xlink:href="#DejaVuSans-31"/>
     <use x="519.042969" xlink:href="#DejaVuSans-32"/>
     <use x="582.666016" xlink:href="#DejaVuSans-20"/>
     <use x="614.453125" xlink:href="#DejaVuSans-77"/>
     <use x="696.240234" xlink:href="#DejaVuSans-69"/>
     <use x="724.023438" xlink:href="#DejaVuSans-74"/>
     <use x="763.232422" xlink:href="#DejaVuSans-68"/>
     <use x="826.611328" xlink:href="#DejaVuSans-20"/>
     <use x="858.398438" xlink:href="#DejaVuSans-65"/>
     <use x="919.921875" xlink:href="#DejaVuSans-72"/>
     <use x="959.285156" xlink:href="#DejaVuSans-72"/>
     <use x="998.148438" xlink:href="#DejaVuSans-6f"/>
     <use x="1059.330078" xlink:href="#DejaVuSans-72"/>
     <use x="1100.443359" xlink:href="#DejaVuSans-20"/>
     <use x="1132.230469" xlink:href="#DejaVuSans-30"/>
     <use x="1195.853516" xlink:href="#DejaVuSans-2e"/>
     <use x="1227.640625" xlink:href="#DejaVuSans-30"/>
     <use x="1291.263672" xlink:href="#DejaVuSans-32"/>
     <use x="1354.886719" xlink:href="#DejaVuSans-35"/>
     <use x="1418.509766" xlink:href="#DejaVuSans-38"/>
     <use x="1482.132812" xlink:href="#DejaVuSans-36"/>
     <use x="1545.755859" xlink:href="#DejaVuSans-30"/>
     <use x="1609.378906" xlink:href="#DejaVuSans-32"/>
     <use x="1673.001953" xlink:href="#DejaVuSans-39"/>
     <use x="1736.625" xlink:href="#DejaVuSans-37"/>
     <use x="1800.248047" xlink:href="#DejaVuSans-38"/>
     <use x="1863.871094" xlink:href="#DejaVuSans-39"/>
     <use x="1927.494141" xlink:href="#DejaVuSans-34"/>
     <use x="1991.117188" xlink:href="#DejaVuSans-31"/>
     <use x="2054.740234" xlink:href="#DejaVuSans-39"/>
     <use x="2118.363281" xlink:href="#DejaVuSans-36"/>
     <use x="2181.986328" xlink:href="#DejaVuSans-31"/>
     <use x="2245.609375" xlink:href="#DejaVuSans-39"/>
     <use x="2309.232422" xlink:href="#DejaVuSans-34"/>
    </g>
   </g>
   <g id="legend_1">
    <g id="patch_7">
     <path d="M 805.348438 499 
L 900.2 499 
Q 902.2 499 902.2 497 
L 902.2 453.965625 
Q 902.2 451.965625 900.2 451.965625 
L 805.348438 451.965625 
Q 803.348438 451.965625 803.348438 453.965625 
L 803.348438 497 
Q 803.348438 499 805.348438 499 
z
" style="opacity:0.8;stroke:#cccccc;stroke-linejoin:miter;"/>
    </g>
    <g id="line2d_18">
     <path d="M 807.348438 460.064062 
L 827.348438 460.064062 
" style="fill:none;stroke:#8dd3c7;stroke-linecap:square;stroke-width:1.5;"/>
    </g>
    <g id="line2d_19"/>
    <g id="text_17">
     <!-- cost -->
     <g style="fill:#ffffff;" transform="translate(835.348438 463.564062)scale(0.1 -0.1)">
      <use xlink:href="#DejaVuSans-63"/>
      <use x="54.980469" xlink:href="#DejaVuSans-6f"/>
      <use x="116.162109" xlink:href="#DejaVuSans-73"/>
      <use x="168.261719" xlink:href="#DejaVuSans-74"/>
     </g>
    </g>
    <g id="line2d_20">
     <path d="M 807.348438 474.742188 
L 827.348438 474.742188 
" style="fill:none;stroke:#feffb3;stroke-linecap:square;stroke-width:1.5;"/>
    </g>
    <g id="line2d_21"/>
    <g id="text_18">
     <!-- best cost -->
     <g style="fill:#ffffff;" transform="translate(835.348438 478.242188)scale(0.1 -0.1)">
      <defs>
       <path d="M 3116 1747 
Q 3116 2381 2855 2742 
Q 2594 3103 2138 3103 
Q 1681 3103 1420 2742 
Q 1159 2381 1159 1747 
Q 1159 1113 1420 752 
Q 1681 391 2138 391 
Q 2594 391 2855 752 
Q 3116 1113 3116 1747 
z
M 1159 2969 
Q 1341 3281 1617 3432 
Q 1894 3584 2278 3584 
Q 2916 3584 3314 3078 
Q 3713 2572 3713 1747 
Q 3713 922 3314 415 
Q 2916 -91 2278 -91 
Q 1894 -91 1617 61 
Q 1341 213 1159 525 
L 1159 0 
L 581 0 
L 581 4863 
L 1159 4863 
L 1159 2969 
z
" id="DejaVuSans-62" transform="scale(0.015625)"/>
      </defs>
      <use xlink:href="#DejaVuSans-62"/>
      <use x="63.476562" xlink:href="#DejaVuSans-65"/>
      <use x="125" xlink:href="#DejaVuSans-73"/>
      <use x="177.099609" xlink:href="#DejaVuSans-74"/>
      <use x="216.308594" xlink:href="#DejaVuSans-20"/>
      <use x="248.095703" xlink:href="#DejaVuSans-63"/>
      <use x="303.076172" xlink:href="#DejaVuSans-6f"/>
      <use x="364.257812" xlink:href="#DejaVuSans-73"/>
      <use x="416.357422" xlink:href="#DejaVuSans-74"/>
     </g>
    </g>
    <g id="line2d_22">
     <path d="M 807.348438 489.420313 
L 827.348438 489.420313 
" style="fill:none;stroke:#bfbbd9;stroke-linecap:square;stroke-width:1.5;"/>
    </g>
    <g id="line2d_23"/>
    <g id="text_19">
     <!-- temperature -->
     <g style="fill:#ffffff;" transform="translate(835.348438 492.920313)scale(0.1 -0.1)">
      <defs>
       <path d="M 3328 2828 
Q 3544 3216 3844 3400 
Q 4144 3584 4550 3584 
Q 5097 3584 5394 3201 
Q 5691 2819 5691 2113 
L 5691 0 
L 5113 0 
L 5113 2094 
Q 5113 2597 4934 2840 
Q 4756 3084 4391 3084 
Q 3944 3084 3684 2787 
Q 3425 2491 3425 1978 
L 3425 0 
L 2847 0 
L 2847 2094 
Q 2847 2600 2669 2842 
Q 2491 3084 2119 3084 
Q 1678 3084 1418 2786 
Q 1159 2488 1159 1978 
L 1159 0 
L 581 0 
L 581 3500 
L 1159 3500 
L 1159 2956 
Q 1356 3278 1631 3431 
Q 1906 3584 2284 3584 
Q 2666 3584 2933 3390 
Q 3200 3197 3328 2828 
z
" id="DejaVuSans-6d" transform="scale(0.015625)"/>
       <path d="M 1159 525 
L 1159 -1331 
L 581 -1331 
L 581 3500 
L 1159 3500 
L 1159 2969 
Q 1341 3281 1617 3432 
Q 1894 3584 2278 3584 
Q 2916 3584 3314 3078 
Q 3713 2572 3713 1747 
Q 3713 922 3314 415 
Q 2916 -91 2278 -91 
Q 1894 -91 1617 61 
Q 1341 213 1159 525 
z
M 3116 1747 
Q 3116 2381 2855 2742 
Q 2594 3103 2138 3103 
Q 1681 3103 1420 2742 
Q 1159 2381 1159 1747 
Q 1159 1113 1420 752 
Q 1681 391 2138 391 
Q 2594 391 2855 752 
Q 3116 1113 3116 1747 
z
" id="DejaVuSans-70" transform="scale(0.015625)"/>
       <path d="M 544 1381 
L 544 3500 
L 1119 3500 
L 1119 1403 
Q 1119 906 1312 657 
Q 1506 409 1894 409 
Q 2359 409 2629 706 
Q 2900 1003 2900 1516 
L 2900 3500 
L 3475 3500 
L 3475 0 
L 2900 0 
L 2900 538 
Q 2691 219 2414 64 
Q 2138 -91 1772 -91 
Q 1169 -91 856 284 
Q 544 659 544 1381 
z
M 1991 3584 
L 1991 3584 
z
" id="DejaVuSans-75" transform="scale(0.015625)"/>
      </defs>
      <use xlink:href="#DejaVuSans-74"/>
      <use x="39.208984" xlink:href="#DejaVuSans-65"/>
      <use x="100.732422" xlink:href="#DejaVuSans-6d"/>
      <use x="198.144531" xlink:href="#DejaVuSans-70"/>
      <use x="261.621094" xlink:href="#DejaVuSans-65"/>
      <use x="323.144531" xlink:href="#DejaVuSans-72"/>
      <use x="364.257812" xlink:href="#DejaVuSans-61"/>
      <use x="425.537109" xlink:href="#DejaVuSans-74"/>
      <use x="464.746094" xlink:href="#DejaVuSans-75"/>
      <use x="528.125" xlink:href="#DejaVuSans-72"/>
      <use x="566.988281" xlink:href="#DejaVuSans-65"/>
     </g>
    </g>
   </g>
  </g>
 </g>
 <defs>
  <clipPath id="p0fd0b58a09">
   <rect height="434.88" width="781.2" x="126" y="69.12"/>
  </clipPath>
 </defs>
</svg>
