<?xml version="1.0" encoding="utf-8" standalone="no"?>
<!DOCTYPE svg PUBLIC "-//W3C//DTD SVG 1.1//EN"
  "http://www.w3.org/Graphics/SVG/1.1/DTD/svg11.dtd">
<svg height="576pt" version="1.1" viewBox="0 0 1008 576" width="1008pt" xmlns="http://www.w3.org/2000/svg" xmlns:xlink="http://www.w3.org/1999/xlink">
 <metadata>
  <rdf:RDF xmlns:cc="http://creativecommons.org/ns#" xmlns:dc="http://purl.org/dc/elements/1.1/" xmlns:rdf="http://www.w3.org/1999/02/22-rdf-syntax-ns#">
   <cc:Work>
    <dc:type rdf:resource="http://purl.org/dc/dcmitype/StillImage"/>
    <dc:date>2022-01-07T21:26:32.716833</dc:date>
    <dc:format>image/svg+xml</dc:format>
    <dc:creator>
     <cc:Agent>
      <dc:title>Matplotlib v3.4.3, https://matplotlib.org/</dc:title>
     </cc:Agent>
    </dc:creator>
   </cc:Work>
  </rdf:RDF>
 </metadata>
 <defs>
  <style type="text/css">*{stroke-linecap:butt;stroke-linejoin:round;}</style>
 </defs>
 <g id="figure_1">
  <g id="patch_1">
   <path d="M 0 576 
L 1008 576 
L 1008 0 
L 0 0 
z
"/>
  </g>
  <g id="axes_1">
   <g id="patch_2">
    <path d="M 126 504 
L 907.2 504 
L 907.2 69.12 
L 126 69.12 
z
"/>
   </g>
   <g id="matplotlib.axis_1">
    <g id="xtick_1">
     <g id="line2d_1">
      <defs>
       <path d="M 0 0 
L 0 3.5 
" id="m4d00fd0c57" style="stroke:#ffffff;stroke-width:0.8;"/>
      </defs>
      <g>
       <use style="fill:#ffffff;stroke:#ffffff;stroke-width:0.8;" x="161.509091" xlink:href="#m4d00fd0c57" y="504"/>
      </g>
     </g>
     <g id="text_1">
      <!-- 0 -->
      <g style="fill:#ffffff;" transform="translate(158.327841 518.598438)scale(0.1 -0.1)">
       <defs>
        <path d="M 2034 4250 
Q 1547 4250 1301 3770 
Q 1056 3291 1056 2328 
Q 1056 1369 1301 889 
Q 1547 409 2034 409 
Q 2525 409 2770 889 
Q 3016 1369 3016 2328 
Q 3016 3291 2770 3770 
Q 2525 4250 2034 4250 
z
M 2034 4750 
Q 2819 4750 3233 4129 
Q 3647 3509 3647 2328 
Q 3647 1150 3233 529 
Q 2819 -91 2034 -91 
Q 1250 -91 836 529 
Q 422 1150 422 2328 
Q 422 3509 836 4129 
Q 1250 4750 2034 4750 
z
" id="DejaVuSans-30" transform="scale(0.015625)"/>
       </defs>
       <use xlink:href="#DejaVuSans-30"/>
      </g>
     </g>
    </g>
    <g id="xtick_2">
     <g id="line2d_2">
      <g>
       <use style="fill:#ffffff;stroke:#ffffff;stroke-width:0.8;" x="261.506531" xlink:href="#m4d00fd0c57" y="504"/>
      </g>
     </g>
     <g id="text_2">
      <!-- 500 -->
      <g style="fill:#ffffff;" transform="translate(251.962781 518.598438)scale(0.1 -0.1)">
       <defs>
        <path d="M 691 4666 
L 3169 4666 
L 3169 4134 
L 1269 4134 
L 1269 2991 
Q 1406 3038 1543 3061 
Q 1681 3084 1819 3084 
Q 2600 3084 3056 2656 
Q 3513 2228 3513 1497 
Q 3513 744 3044 326 
Q 2575 -91 1722 -91 
Q 1428 -91 1123 -41 
Q 819 9 494 109 
L 494 744 
Q 775 591 1075 516 
Q 1375 441 1709 441 
Q 2250 441 2565 725 
Q 2881 1009 2881 1497 
Q 2881 1984 2565 2268 
Q 2250 2553 1709 2553 
Q 1456 2553 1204 2497 
Q 953 2441 691 2322 
L 691 4666 
z
" id="DejaVuSans-35" transform="scale(0.015625)"/>
       </defs>
       <use xlink:href="#DejaVuSans-35"/>
       <use x="63.623047" xlink:href="#DejaVuSans-30"/>
       <use x="127.246094" xlink:href="#DejaVuSans-30"/>
      </g>
     </g>
    </g>
    <g id="xtick_3">
     <g id="line2d_3">
      <g>
       <use style="fill:#ffffff;stroke:#ffffff;stroke-width:0.8;" x="361.503971" xlink:href="#m4d00fd0c57" y="504"/>
      </g>
     </g>
     <g id="text_3">
      <!-- 1000 -->
      <g style="fill:#ffffff;" transform="translate(348.778971 518.598438)scale(0.1 -0.1)">
       <defs>
        <path d="M 794 531 
L 1825 531 
L 1825 4091 
L 703 3866 
L 703 4441 
L 1819 4666 
L 2450 4666 
L 2450 531 
L 3481 531 
L 3481 0 
L 794 0 
L 794 531 
z
" id="DejaVuSans-31" transform="scale(0.015625)"/>
       </defs>
       <use xlink:href="#DejaVuSans-31"/>
       <use x="63.623047" xlink:href="#DejaVuSans-30"/>
       <use x="127.246094" xlink:href="#DejaVuSans-30"/>
       <use x="190.869141" xlink:href="#DejaVuSans-30"/>
      </g>
     </g>
    </g>
    <g id="xtick_4">
     <g id="line2d_4">
      <g>
       <use style="fill:#ffffff;stroke:#ffffff;stroke-width:0.8;" x="461.501411" xlink:href="#m4d00fd0c57" y="504"/>
      </g>
     </g>
     <g id="text_4">
      <!-- 1500 -->
      <g style="fill:#ffffff;" transform="translate(448.776411 518.598438)scale(0.1 -0.1)">
       <use xlink:href="#DejaVuSans-31"/>
       <use x="63.623047" xlink:href="#DejaVuSans-35"/>
       <use x="127.246094" xlink:href="#DejaVuSans-30"/>
       <use x="190.869141" xlink:href="#DejaVuSans-30"/>
      </g>
     </g>
    </g>
    <g id="xtick_5">
     <g id="line2d_5">
      <g>
       <use style="fill:#ffffff;stroke:#ffffff;stroke-width:0.8;" x="561.498851" xlink:href="#m4d00fd0c57" y="504"/>
      </g>
     </g>
     <g id="text_5">
      <!-- 2000 -->
      <g style="fill:#ffffff;" transform="translate(548.773851 518.598438)scale(0.1 -0.1)">
       <defs>
        <path d="M 1228 531 
L 3431 531 
L 3431 0 
L 469 0 
L 469 531 
Q 828 903 1448 1529 
Q 2069 2156 2228 2338 
Q 2531 2678 2651 2914 
Q 2772 3150 2772 3378 
Q 2772 3750 2511 3984 
Q 2250 4219 1831 4219 
Q 1534 4219 1204 4116 
Q 875 4013 500 3803 
L 500 4441 
Q 881 4594 1212 4672 
Q 1544 4750 1819 4750 
Q 2544 4750 2975 4387 
Q 3406 4025 3406 3419 
Q 3406 3131 3298 2873 
Q 3191 2616 2906 2266 
Q 2828 2175 2409 1742 
Q 1991 1309 1228 531 
z
" id="DejaVuSans-32" transform="scale(0.015625)"/>
       </defs>
       <use xlink:href="#DejaVuSans-32"/>
       <use x="63.623047" xlink:href="#DejaVuSans-30"/>
       <use x="127.246094" xlink:href="#DejaVuSans-30"/>
       <use x="190.869141" xlink:href="#DejaVuSans-30"/>
      </g>
     </g>
    </g>
    <g id="xtick_6">
     <g id="line2d_6">
      <g>
       <use style="fill:#ffffff;stroke:#ffffff;stroke-width:0.8;" x="661.49629" xlink:href="#m4d00fd0c57" y="504"/>
      </g>
     </g>
     <g id="text_6">
      <!-- 2500 -->
      <g style="fill:#ffffff;" transform="translate(648.77129 518.598438)scale(0.1 -0.1)">
       <use xlink:href="#DejaVuSans-32"/>
       <use x="63.623047" xlink:href="#DejaVuSans-35"/>
       <use x="127.246094" xlink:href="#DejaVuSans-30"/>
       <use x="190.869141" xlink:href="#DejaVuSans-30"/>
      </g>
     </g>
    </g>
    <g id="xtick_7">
     <g id="line2d_7">
      <g>
       <use style="fill:#ffffff;stroke:#ffffff;stroke-width:0.8;" x="761.49373" xlink:href="#m4d00fd0c57" y="504"/>
      </g>
     </g>
     <g id="text_7">
      <!-- 3000 -->
      <g style="fill:#ffffff;" transform="translate(748.76873 518.598438)scale(0.1 -0.1)">
       <defs>
        <path d="M 2597 2516 
Q 3050 2419 3304 2112 
Q 3559 1806 3559 1356 
Q 3559 666 3084 287 
Q 2609 -91 1734 -91 
Q 1441 -91 1130 -33 
Q 819 25 488 141 
L 488 750 
Q 750 597 1062 519 
Q 1375 441 1716 441 
Q 2309 441 2620 675 
Q 2931 909 2931 1356 
Q 2931 1769 2642 2001 
Q 2353 2234 1838 2234 
L 1294 2234 
L 1294 2753 
L 1863 2753 
Q 2328 2753 2575 2939 
Q 2822 3125 2822 3475 
Q 2822 3834 2567 4026 
Q 2313 4219 1838 4219 
Q 1578 4219 1281 4162 
Q 984 4106 628 3988 
L 628 4550 
Q 988 4650 1302 4700 
Q 1616 4750 1894 4750 
Q 2613 4750 3031 4423 
Q 3450 4097 3450 3541 
Q 3450 3153 3228 2886 
Q 3006 2619 2597 2516 
z
" id="DejaVuSans-33" transform="scale(0.015625)"/>
       </defs>
       <use xlink:href="#DejaVuSans-33"/>
       <use x="63.623047" xlink:href="#DejaVuSans-30"/>
       <use x="127.246094" xlink:href="#DejaVuSans-30"/>
       <use x="190.869141" xlink:href="#DejaVuSans-30"/>
      </g>
     </g>
    </g>
    <g id="xtick_8">
     <g id="line2d_8">
      <g>
       <use style="fill:#ffffff;stroke:#ffffff;stroke-width:0.8;" x="861.49117" xlink:href="#m4d00fd0c57" y="504"/>
      </g>
     </g>
     <g id="text_8">
      <!-- 3500 -->
      <g style="fill:#ffffff;" transform="translate(848.76617 518.598438)scale(0.1 -0.1)">
       <use xlink:href="#DejaVuSans-33"/>
       <use x="63.623047" xlink:href="#DejaVuSans-35"/>
       <use x="127.246094" xlink:href="#DejaVuSans-30"/>
       <use x="190.869141" xlink:href="#DejaVuSans-30"/>
      </g>
     </g>
    </g>
    <g id="text_9">
     <!-- iteration -->
     <g style="fill:#ffffff;" transform="translate(495.477344 532.276562)scale(0.1 -0.1)">
      <defs>
       <path d="M 603 3500 
L 1178 3500 
L 1178 0 
L 603 0 
L 603 3500 
z
M 603 4863 
L 1178 4863 
L 1178 4134 
L 603 4134 
L 603 4863 
z
" id="DejaVuSans-69" transform="scale(0.015625)"/>
       <path d="M 1172 4494 
L 1172 3500 
L 2356 3500 
L 2356 3053 
L 1172 3053 
L 1172 1153 
Q 1172 725 1289 603 
Q 1406 481 1766 481 
L 2356 481 
L 2356 0 
L 1766 0 
Q 1100 0 847 248 
Q 594 497 594 1153 
L 594 3053 
L 172 3053 
L 172 3500 
L 594 3500 
L 594 4494 
L 1172 4494 
z
" id="DejaVuSans-74" transform="scale(0.015625)"/>
       <path d="M 3597 1894 
L 3597 1613 
L 953 1613 
Q 991 1019 1311 708 
Q 1631 397 2203 397 
Q 2534 397 2845 478 
Q 3156 559 3463 722 
L 3463 178 
Q 3153 47 2828 -22 
Q 2503 -91 2169 -91 
Q 1331 -91 842 396 
Q 353 884 353 1716 
Q 353 2575 817 3079 
Q 1281 3584 2069 3584 
Q 2775 3584 3186 3129 
Q 3597 2675 3597 1894 
z
M 3022 2063 
Q 3016 2534 2758 2815 
Q 2500 3097 2075 3097 
Q 1594 3097 1305 2825 
Q 1016 2553 972 2059 
L 3022 2063 
z
" id="DejaVuSans-65" transform="scale(0.015625)"/>
       <path d="M 2631 2963 
Q 2534 3019 2420 3045 
Q 2306 3072 2169 3072 
Q 1681 3072 1420 2755 
Q 1159 2438 1159 1844 
L 1159 0 
L 581 0 
L 581 3500 
L 1159 3500 
L 1159 2956 
Q 1341 3275 1631 3429 
Q 1922 3584 2338 3584 
Q 2397 3584 2469 3576 
Q 2541 3569 2628 3553 
L 2631 2963 
z
" id="DejaVuSans-72" transform="scale(0.015625)"/>
       <path d="M 2194 1759 
Q 1497 1759 1228 1600 
Q 959 1441 959 1056 
Q 959 750 1161 570 
Q 1363 391 1709 391 
Q 2188 391 2477 730 
Q 2766 1069 2766 1631 
L 2766 1759 
L 2194 1759 
z
M 3341 1997 
L 3341 0 
L 2766 0 
L 2766 531 
Q 2569 213 2275 61 
Q 1981 -91 1556 -91 
Q 1019 -91 701 211 
Q 384 513 384 1019 
Q 384 1609 779 1909 
Q 1175 2209 1959 2209 
L 2766 2209 
L 2766 2266 
Q 2766 2663 2505 2880 
Q 2244 3097 1772 3097 
Q 1472 3097 1187 3025 
Q 903 2953 641 2809 
L 641 3341 
Q 956 3463 1253 3523 
Q 1550 3584 1831 3584 
Q 2591 3584 2966 3190 
Q 3341 2797 3341 1997 
z
" id="DejaVuSans-61" transform="scale(0.015625)"/>
       <path d="M 1959 3097 
Q 1497 3097 1228 2736 
Q 959 2375 959 1747 
Q 959 1119 1226 758 
Q 1494 397 1959 397 
Q 2419 397 2687 759 
Q 2956 1122 2956 1747 
Q 2956 2369 2687 2733 
Q 2419 3097 1959 3097 
z
M 1959 3584 
Q 2709 3584 3137 3096 
Q 3566 2609 3566 1747 
Q 3566 888 3137 398 
Q 2709 -91 1959 -91 
Q 1206 -91 779 398 
Q 353 888 353 1747 
Q 353 2609 779 3096 
Q 1206 3584 1959 3584 
z
" id="DejaVuSans-6f" transform="scale(0.015625)"/>
       <path d="M 3513 2113 
L 3513 0 
L 2938 0 
L 2938 2094 
Q 2938 2591 2744 2837 
Q 2550 3084 2163 3084 
Q 1697 3084 1428 2787 
Q 1159 2491 1159 1978 
L 1159 0 
L 581 0 
L 581 3500 
L 1159 3500 
L 1159 2956 
Q 1366 3272 1645 3428 
Q 1925 3584 2291 3584 
Q 2894 3584 3203 3211 
Q 3513 2838 3513 2113 
z
" id="DejaVuSans-6e" transform="scale(0.015625)"/>
      </defs>
      <use xlink:href="#DejaVuSans-69"/>
      <use x="27.783203" xlink:href="#DejaVuSans-74"/>
      <use x="66.992188" xlink:href="#DejaVuSans-65"/>
      <use x="128.515625" xlink:href="#DejaVuSans-72"/>
      <use x="169.628906" xlink:href="#DejaVuSans-61"/>
      <use x="230.908203" xlink:href="#DejaVuSans-74"/>
      <use x="270.117188" xlink:href="#DejaVuSans-69"/>
      <use x="297.900391" xlink:href="#DejaVuSans-6f"/>
      <use x="359.082031" xlink:href="#DejaVuSans-6e"/>
     </g>
    </g>
   </g>
   <g id="matplotlib.axis_2">
    <g id="ytick_1">
     <g id="line2d_9">
      <defs>
       <path d="M 0 0 
L -3.5 0 
" id="ma49e28d831" style="stroke:#ffffff;stroke-width:0.8;"/>
      </defs>
      <g>
       <use style="fill:#ffffff;stroke:#ffffff;stroke-width:0.8;" x="126" xlink:href="#ma49e28d831" y="484.232727"/>
      </g>
     </g>
     <g id="text_10">
      <!-- 0 -->
      <g style="fill:#ffffff;" transform="translate(112.6375 488.031946)scale(0.1 -0.1)">
       <use xlink:href="#DejaVuSans-30"/>
      </g>
     </g>
    </g>
    <g id="ytick_2">
     <g id="line2d_10">
      <g>
       <use style="fill:#ffffff;stroke:#ffffff;stroke-width:0.8;" x="126" xlink:href="#ma49e28d831" y="423.029951"/>
      </g>
     </g>
     <g id="text_11">
      <!-- 5000 -->
      <g style="fill:#ffffff;" transform="translate(93.55 426.82917)scale(0.1 -0.1)">
       <use xlink:href="#DejaVuSans-35"/>
       <use x="63.623047" xlink:href="#DejaVuSans-30"/>
       <use x="127.246094" xlink:href="#DejaVuSans-30"/>
       <use x="190.869141" xlink:href="#DejaVuSans-30"/>
      </g>
     </g>
    </g>
    <g id="ytick_3">
     <g id="line2d_11">
      <g>
       <use style="fill:#ffffff;stroke:#ffffff;stroke-width:0.8;" x="126" xlink:href="#ma49e28d831" y="361.827175"/>
      </g>
     </g>
     <g id="text_12">
      <!-- 10000 -->
      <g style="fill:#ffffff;" transform="translate(87.1875 365.626393)scale(0.1 -0.1)">
       <use xlink:href="#DejaVuSans-31"/>
       <use x="63.623047" xlink:href="#DejaVuSans-30"/>
       <use x="127.246094" xlink:href="#DejaVuSans-30"/>
       <use x="190.869141" xlink:href="#DejaVuSans-30"/>
       <use x="254.492188" xlink:href="#DejaVuSans-30"/>
      </g>
     </g>
    </g>
    <g id="ytick_4">
     <g id="line2d_12">
      <g>
       <use style="fill:#ffffff;stroke:#ffffff;stroke-width:0.8;" x="126" xlink:href="#ma49e28d831" y="300.624398"/>
      </g>
     </g>
     <g id="text_13">
      <!-- 15000 -->
      <g style="fill:#ffffff;" transform="translate(87.1875 304.423617)scale(0.1 -0.1)">
       <use xlink:href="#DejaVuSans-31"/>
       <use x="63.623047" xlink:href="#DejaVuSans-35"/>
       <use x="127.246094" xlink:href="#DejaVuSans-30"/>
       <use x="190.869141" xlink:href="#DejaVuSans-30"/>
       <use x="254.492188" xlink:href="#DejaVuSans-30"/>
      </g>
     </g>
    </g>
    <g id="ytick_5">
     <g id="line2d_13">
      <g>
       <use style="fill:#ffffff;stroke:#ffffff;stroke-width:0.8;" x="126" xlink:href="#ma49e28d831" y="239.421622"/>
      </g>
     </g>
     <g id="text_14">
      <!-- 20000 -->
      <g style="fill:#ffffff;" transform="translate(87.1875 243.22084)scale(0.1 -0.1)">
       <use xlink:href="#DejaVuSans-32"/>
       <use x="63.623047" xlink:href="#DejaVuSans-30"/>
       <use x="127.246094" xlink:href="#DejaVuSans-30"/>
       <use x="190.869141" xlink:href="#DejaVuSans-30"/>
       <use x="254.492188" xlink:href="#DejaVuSans-30"/>
      </g>
     </g>
    </g>
    <g id="ytick_6">
     <g id="line2d_14">
      <g>
       <use style="fill:#ffffff;stroke:#ffffff;stroke-width:0.8;" x="126" xlink:href="#ma49e28d831" y="178.218845"/>
      </g>
     </g>
     <g id="text_15">
      <!-- 25000 -->
      <g style="fill:#ffffff;" transform="translate(87.1875 182.018064)scale(0.1 -0.1)">
       <use xlink:href="#DejaVuSans-32"/>
       <use x="63.623047" xlink:href="#DejaVuSans-35"/>
       <use x="127.246094" xlink:href="#DejaVuSans-30"/>
       <use x="190.869141" xlink:href="#DejaVuSans-30"/>
       <use x="254.492188" xlink:href="#DejaVuSans-30"/>
      </g>
     </g>
    </g>
    <g id="ytick_7">
     <g id="line2d_15">
      <g>
       <use style="fill:#ffffff;stroke:#ffffff;stroke-width:0.8;" x="126" xlink:href="#ma49e28d831" y="117.016069"/>
      </g>
     </g>
     <g id="text_16">
      <!-- 30000 -->
      <g style="fill:#ffffff;" transform="translate(87.1875 120.815288)scale(0.1 -0.1)">
       <use xlink:href="#DejaVuSans-33"/>
       <use x="63.623047" xlink:href="#DejaVuSans-30"/>
       <use x="127.246094" xlink:href="#DejaVuSans-30"/>
       <use x="190.869141" xlink:href="#DejaVuSans-30"/>
       <use x="254.492188" xlink:href="#DejaVuSans-30"/>
      </g>
     </g>
    </g>
   </g>
   <g id="line2d_16">
    <path clip-path="url(#p079ee7aa4a)" d="M 161.509091 163.432254 
L 161.709086 190.202349 
L 161.909081 186.554663 
L 162.109076 196.359348 
L 162.30907 170.776588 
L 162.70906 181.425871 
L 162.909055 176.749979 
L 163.10905 193.788832 
L 163.309045 176.749979 
L 163.50904 303.415245 
L 163.909029 313.048562 
L 164.109024 336.501466 
L 164.309019 310.833021 
L 164.509014 332.425361 
L 164.709009 337.46847 
L 164.909004 315.87613 
L 165.108999 318.397684 
L 165.308994 289.008111 
L 165.508989 315.778206 
L 165.708983 311.481771 
L 165.908978 292.141693 
L 166.108973 201.769674 
L 166.308968 228.539768 
L 166.708958 210.166695 
L 166.908953 236.679737 
L 167.108948 231.416298 
L 167.308942 212.076221 
L 167.508937 217.33966 
L 167.708932 244.379047 
L 167.908927 254.183731 
L 168.108922 269.508907 
L 168.308917 255.811725 
L 168.908901 187.068767 
L 169.108896 192.111875 
L 169.508886 232.55467 
L 169.708881 244.342325 
L 169.908876 229.616937 
L 170.108871 225.969251 
L 170.308866 252.739346 
L 170.708855 208.110281 
L 170.90885 227.450359 
L 171.108845 232.126251 
L 171.30884 205.356156 
L 171.508835 231.869199 
L 171.70883 212.529122 
L 172.10882 255.150735 
L 172.308814 266.644617 
L 172.508809 294.308272 
L 172.708804 296.829826 
L 172.908799 316.169903 
L 173.108794 306.940525 
L 173.308789 279.901138 
L 173.508784 274.858029 
L 173.708779 248.344986 
L 173.908773 244.048552 
L 174.308763 297.600981 
L 174.508758 308.250264 
L 174.708753 288.910187 
L 175.108743 279.50944 
L 175.708727 240.902729 
L 175.908722 245.199164 
L 176.108717 240.633437 
L 176.508707 223.227367 
L 176.708702 226.875052 
L 176.908697 256.35031 
L 177.108692 260.242806 
L 177.308686 279.4972 
L 177.508681 266.558933 
L 177.708676 294.222588 
L 177.908671 279.4972 
L 178.108666 293.194381 
L 178.308661 322.583954 
L 178.708651 271.467395 
L 178.908645 261.43014 
L 179.10864 272.924021 
L 179.308635 268.627587 
L 179.708625 295.140629 
L 179.90862 272.813856 
L 180.30861 297.943716 
L 180.508604 302.240151 
L 180.708599 320.441857 
L 181.108589 282.900074 
L 181.308584 253.424817 
L 181.508579 249.777131 
L 181.708574 237.989477 
L 181.908569 232.970849 
L 182.508553 285.23802 
L 182.708548 280.941585 
L 183.308533 357.420575 
L 183.508528 375.62228 
L 183.708523 383.223665 
L 183.908517 409.99376 
L 184.108512 391.792054 
L 184.308507 395.439739 
L 184.508502 390.763847 
L 184.708497 408.965553 
L 184.908492 405.305627 
L 185.108487 410.642509 
L 185.308482 408.120955 
L 185.508476 378.731381 
L 185.708471 383.77449 
L 185.908466 374.545111 
L 186.108461 377.066666 
L 186.308456 406.456239 
L 186.708446 377.60525 
L 186.908441 375.083696 
L 187.108436 370.040587 
L 187.508425 379.649423 
L 187.70842 390.298706 
L 188.10841 357.457296 
L 188.5084 344.812803 
L 188.708395 367.139576 
L 189.308379 303.904867 
L 189.508374 308.580759 
L 189.908364 289.42429 
L 190.108359 290.501459 
L 190.508348 323.428553 
L 190.708343 193.176804 
L 190.908338 207.902192 
L 191.108333 182.319431 
L 191.308328 207.902192 
L 191.508323 178.512619 
L 191.708318 193.788832 
L 191.908313 198.354559 
L 192.308302 257.219389 
L 192.508297 267.024074 
L 192.708292 264.502519 
L 192.908287 278.199701 
L 193.108282 273.633974 
L 193.508272 236.006507 
L 193.908261 281.247599 
L 194.108256 272.01822 
L 194.308251 244.978834 
L 194.508246 263.094856 
L 194.708241 251.307201 
L 194.908236 228.980428 
L 195.108231 254.648872 
L 195.308226 236.447167 
L 195.50822 241.012894 
L 195.708215 264.465798 
L 196.108205 274.160318 
L 196.3082 270.500392 
L 196.508195 274.160318 
L 196.70819 248.577557 
L 196.908185 252.873992 
L 197.10818 279.913379 
L 197.308174 291.701033 
L 197.508169 287.025141 
L 197.708164 312.607902 
L 197.908159 308.947976 
L 198.508144 278.444512 
L 198.708139 282.104438 
L 199.108128 241.110818 
L 199.508118 282.765428 
L 199.708113 278.468993 
L 199.908108 260.352971 
L 200.308098 306.206091 
L 200.508092 296.976713 
L 200.708087 323.746807 
L 200.908082 334.39609 
L 201.108077 324.591405 
L 201.308072 328.88784 
L 201.508067 305.434936 
L 201.708062 300.098054 
L 201.908057 323.550958 
L 202.108052 328.22685 
L 202.308046 302.64409 
L 202.508041 316.341271 
L 202.708036 305.691988 
L 202.908031 301.126261 
L 203.308021 255.016089 
L 203.508016 264.245468 
L 203.708011 234.855895 
L 203.908005 228.441844 
L 204.108 243.167232 
L 204.307995 213.691974 
L 204.707985 241.992138 
L 205.107975 252.274205 
L 205.30797 247.255577 
L 205.507964 274.025671 
L 205.707959 256.986818 
L 205.907954 253.326892 
L 206.107949 269.178412 
L 206.307944 296.842067 
L 206.507939 270.329024 
L 206.907929 283.267291 
L 207.307918 273.54829 
L 207.507913 273.54829 
L 207.707908 291.749996 
L 208.107898 346.722329 
L 208.307893 337.492951 
L 208.507888 364.005993 
L 208.907877 354.44612 
L 209.107872 363.675498 
L 209.507862 337.162456 
L 209.907852 286.400873 
L 210.107847 315.87613 
L 210.307842 300.195979 
L 210.507836 311.68986 
L 210.907826 268.70103 
L 211.307816 298.0294 
L 211.507811 315.888371 
L 211.707806 308.286986 
L 211.907801 325.325839 
L 212.107795 305.985761 
L 212.30779 303.464207 
L 212.507785 308.482835 
L 212.70778 334.995877 
L 212.907775 337.517432 
L 213.10777 352.24282 
L 213.307765 194.804798 
L 213.50776 186.677069 
L 213.907749 210.166695 
L 214.107744 221.954349 
L 214.507734 170.238003 
L 214.907724 226.226303 
L 215.107719 210.631836 
L 215.307714 224.329017 
L 215.707703 200.827151 
L 215.907698 203.703681 
L 216.107693 211.806929 
L 216.307688 196.481754 
L 216.507683 205.368397 
L 216.707678 232.407783 
L 216.907673 221.7585 
L 217.107667 245.395013 
L 217.307662 245.395013 
L 217.507657 233.019811 
L 217.907647 256.521677 
L 218.307637 246.619068 
L 218.507632 267.268885 
L 218.707627 237.793628 
L 218.907621 266.864947 
L 219.107616 191.867064 
L 219.307611 195.51475 
L 219.707601 241.624922 
L 219.907596 249.226306 
L 220.107591 234.500918 
L 220.307586 239.176811 
L 220.50758 250.964465 
L 220.707575 256.007574 
L 220.90757 283.046961 
L 221.107565 275.445576 
L 221.507555 231.636628 
L 221.70755 239.238013 
L 221.907545 233.901131 
L 222.107539 223.251848 
L 222.307534 206.237476 
L 222.507529 232.750519 
L 222.707524 203.275262 
L 223.107514 193.666426 
L 223.307509 197.326352 
L 223.507504 211.354028 
L 223.707499 194.804798 
L 223.907493 224.280055 
L 224.107488 229.543494 
L 224.307483 249.385434 
L 224.507478 245.088999 
L 224.707473 254.893684 
L 224.907468 281.663778 
L 225.307458 236.74094 
L 225.507452 242.077822 
L 225.907442 234.770211 
L 226.107437 224.120928 
L 226.307432 250.939984 
L 226.507427 261.589267 
L 226.707422 256.913375 
L 226.907417 278.934134 
L 227.107411 271.332749 
L 227.307406 286.058137 
L 227.507401 275.408854 
L 227.707396 279.05654 
L 227.907391 291.921363 
L 228.107386 264.257708 
L 228.507376 313.513703 
L 228.907365 266.509971 
L 229.10736 294.173625 
L 229.50735 260.206085 
L 229.707345 287.869739 
L 229.90734 272.544564 
L 230.107335 294.871337 
L 230.30733 298.531263 
L 230.507324 288.726578 
L 230.707319 286.205024 
L 230.907314 298.922961 
L 231.107309 287.135306 
L 231.307304 304.174159 
L 231.507299 296.572774 
L 231.707294 281.847386 
L 231.907289 281.847386 
L 232.107283 252.372129 
L 232.307278 239.911244 
L 232.507273 246.900601 
L 232.707268 228.968187 
L 232.907263 258.443445 
L 233.107258 254.795759 
L 233.307253 259.520613 
L 233.507248 274.246001 
L 233.707243 271.724447 
L 233.907237 280.953826 
L 234.107232 276.388099 
L 234.307227 214.720181 
L 234.507222 214.720181 
L 234.707217 210.754241 
L 235.107207 240.082612 
L 235.307202 224.757436 
L 235.507196 229.776064 
L 235.707191 204.10762 
L 236.107181 247.09645 
L 236.307176 252.139559 
L 236.507171 271.479636 
L 236.707166 266.216197 
L 236.907161 239.446103 
L 237.107155 268.92136 
L 237.30715 247.32902 
L 237.507145 252.115077 
L 238.10713 196.102296 
L 238.307125 196.102296 
L 238.50712 210.827684 
L 238.707115 237.597779 
L 239.107104 183.16403 
L 239.307099 188.917091 
L 239.507094 199.566374 
L 239.707089 203.862809 
L 239.907084 199.186916 
L 240.107079 213.912304 
L 240.307074 210.252378 
L 240.507068 217.853763 
L 240.707063 230.79203 
L 240.907058 217.094849 
L 241.107053 227.69517 
L 241.307048 232.371062 
L 241.507043 227.69517 
L 241.707038 198.219913 
L 241.907033 223.888357 
L 242.107027 221.366803 
L 242.307022 233.325825 
L 242.507017 212.920819 
L 242.707012 215.13636 
L 242.907007 210.093251 
L 243.107002 189.321029 
L 243.306997 186.579144 
L 243.506992 190.239071 
L 243.906981 230.975639 
L 244.106976 236.239077 
L 244.306971 210.656317 
L 244.506966 232.248656 
L 244.706961 210.656317 
L 244.906956 220.461002 
L 245.106951 214.720181 
L 245.306946 202.932526 
L 245.50694 204.070898 
L 245.706935 204.070898 
L 245.90693 207.840989 
L 246.106925 222.566377 
L 246.506915 201.267811 
L 246.906905 219.11454 
L 247.106899 199.774463 
L 247.306894 221.366803 
L 247.506889 216.348175 
L 247.706884 226.15286 
L 247.906879 222.492934 
L 248.106874 240.608956 
L 248.306869 235.345517 
L 248.506864 224.696234 
L 248.906853 262.348182 
L 249.106848 240.755842 
L 249.306843 231.526463 
L 249.506838 227.878778 
L 249.906828 203.936252 
L 250.106823 209.322096 
L 250.306818 218.551475 
L 250.506812 206.76382 
L 250.706807 202.198093 
L 250.906802 207.461532 
L 251.306792 254.636632 
L 251.706782 202.014485 
L 251.906777 196.677603 
L 252.106771 197.05706 
L 252.306766 201.622787 
L 252.506761 184.632896 
L 252.706756 196.126778 
L 253.106746 179.296014 
L 253.506736 212.810654 
L 253.70673 208.134762 
L 253.906725 220.938383 
L 254.10672 247.708478 
L 254.306715 218.318904 
L 254.50671 222.615339 
L 254.706705 248.1981 
L 254.9067 255.799485 
L 255.30669 210.876647 
L 255.506684 195.551472 
L 255.706679 207.339126 
L 255.906674 193.641945 
L 256.106669 215.968718 
L 256.506659 205.66217 
L 256.706654 219.359352 
L 256.906649 219.359352 
L 257.106643 194.217251 
L 257.306638 185.330608 
L 257.706628 238.797353 
L 257.906623 257.23163 
L 258.106618 227.756372 
L 258.306613 219.971379 
L 258.906597 236.434926 
L 259.106592 214.842587 
L 259.506582 254.550948 
L 259.906572 244.942112 
L 260.306562 254.661113 
L 260.506556 228.992669 
L 260.706551 231.514223 
L 260.906546 236.07995 
L 261.106541 228.478565 
L 261.306536 213.753177 
L 261.506531 233.093255 
L 261.706526 238.111882 
L 262.506505 219.151262 
L 262.7065 196.285905 
L 262.906495 264.943179 
L 263.10649 243.473245 
L 263.306485 255.2609 
L 263.706474 264.502519 
L 264.106464 288.848984 
L 264.306459 316.512639 
L 264.506454 289.473252 
L 264.706449 277.685597 
L 264.906444 248.296024 
L 265.106439 260.083679 
L 265.306434 245.358291 
L 265.706423 199.49293 
L 265.906418 209.297615 
L 266.106413 233.301344 
L 266.306408 203.826087 
L 266.506403 215.319968 
L 267.106387 266.962871 
L 267.306382 261.625989 
L 267.706372 234.280588 
L 267.906367 236.802143 
L 268.106362 213.349239 
L 268.306357 239.862282 
L 268.506352 213.349239 
L 269.106336 271.957018 
L 269.306331 267.281125 
L 269.506326 255.493471 
L 269.706321 282.006513 
L 269.906316 272.201829 
L 270.106311 299.241215 
L 270.5063 289.632379 
L 270.90629 296.939991 
L 271.106285 292.643556 
L 271.30628 297.209283 
L 271.506275 289.607898 
L 271.70627 304.333286 
L 271.906265 276.669631 
L 272.106259 281.71274 
L 272.706244 234.623324 
L 272.906239 244.428009 
L 273.106234 218.845248 
L 273.306229 213.581809 
L 273.506224 195.380104 
L 273.706218 202.981489 
L 273.906213 189.284307 
L 274.106208 276.730834 
L 274.306203 279.252389 
L 274.506198 251.588734 
L 274.706193 278.358828 
L 274.906188 248.969255 
L 275.106183 252.61694 
L 275.306178 248.969255 
L 275.506172 252.188521 
L 275.706167 247.892086 
L 275.906162 268.223648 
L 276.106157 262.960209 
L 276.306152 268.003318 
L 276.506147 248.663241 
L 276.706142 248.63876 
L 276.906137 238.834075 
L 277.506121 322.522751 
L 277.906111 314.199174 
L 278.106106 309.523282 
L 278.306101 315.264102 
L 278.506096 288.751059 
L 278.70609 318.140633 
L 278.906085 290.476978 
L 279.10608 303.415245 
L 279.306075 175.121985 
L 279.50607 163.444495 
L 279.706065 180.728159 
L 279.90606 182.821294 
L 280.106055 177.778185 
L 280.30605 203.44663 
L 280.706039 195.110812 
L 281.106029 245.909116 
L 281.306024 255.138495 
L 281.506019 281.908589 
L 281.906009 233.803207 
L 282.305998 284.870803 
L 282.505993 275.641425 
L 282.705988 292.680278 
L 282.905983 273.3402 
L 283.305973 282.263565 
L 283.705962 242.897939 
L 283.905957 272.287513 
L 284.105952 262.482828 
L 284.305947 258.186393 
L 284.505942 231.073563 
L 284.905932 251.539771 
L 285.105927 241.735087 
L 285.305922 275.604703 
L 285.505916 290.073039 
L 285.905906 298.984164 
L 286.305896 265.946905 
L 286.505891 268.468459 
L 286.905881 301.444515 
L 287.30587 292.104972 
L 287.505865 269.778199 
L 287.70586 283.47538 
L 287.905855 278.211941 
L 288.10585 266.424287 
L 288.305845 285.764364 
L 288.705834 239.752117 
L 289.105824 309.560003 
L 289.305819 176.701016 
L 289.505814 204.364671 
L 289.905804 225.381705 
L 290.105799 230.645144 
L 290.305794 225.626516 
L 290.905778 256.154461 
L 291.105773 241.429073 
L 291.305768 258.467926 
L 291.505763 254.808 
L 291.705758 244.158717 
L 292.305742 196.347108 
L 292.505737 214.548813 
L 292.705732 219.591922 
L 292.905727 201.390216 
L 293.105722 205.686651 
L 293.305717 188.647798 
L 293.505712 198.452483 
L 293.705706 236.826624 
L 293.905701 227.021939 
L 294.105696 246.362016 
L 294.305691 252.776067 
L 294.505686 248.21034 
L 294.705681 265.249193 
L 294.905676 256.019815 
L 295.105671 267.807469 
L 295.305665 262.764361 
L 295.90565 294.71221 
L 296.30564 252.090596 
L 296.505635 259.691981 
L 296.70563 257.170427 
L 296.905625 237.830349 
L 297.105619 240.351904 
L 297.305614 244.917631 
L 297.505609 233.129976 
L 297.705604 229.482291 
L 297.905599 200.092718 
L 298.105594 229.567975 
L 298.305589 229.567975 
L 298.505584 233.21566 
L 298.705578 251.331682 
L 298.905573 240.682399 
L 299.305563 281.614816 
L 299.505558 270.120934 
L 299.705553 252.004912 
L 299.905548 269.043765 
L 300.105543 264.747331 
L 300.305537 243.154991 
L 300.505532 270.194378 
L 300.705527 270.108694 
L 301.105517 289.987356 
L 301.305512 315.6558 
L 301.505507 289.987356 
L 301.705502 279.338072 
L 301.905497 308.727646 
L 302.105491 183.506765 
L 302.305486 272.703691 
L 302.505481 266.632376 
L 302.705476 271.651004 
L 303.105466 308.81333 
L 303.70545 278.285385 
L 303.905445 282.753187 
L 304.10544 296.450369 
L 304.305435 324.114024 
L 304.50543 305.998002 
L 304.705425 310.294437 
L 304.90542 322.082092 
L 305.105415 296.413647 
L 305.305409 314.443985 
L 305.505404 285.054412 
L 305.705399 296.548293 
L 305.905394 291.284854 
L 306.105389 264.771812 
L 306.305384 291.492944 
L 306.505379 294.810134 
L 306.705374 172.894204 
L 306.905369 159.79681 
L 307.505353 200.007034 
L 307.705348 186.309852 
L 307.905343 205.64993 
L 308.105338 213.251314 
L 308.705322 181.584998 
L 309.105312 212.259829 
L 309.505302 239.60523 
L 309.905292 206.164033 
L 310.105287 224.280055 
L 310.305281 219.016616 
L 310.705271 187.252375 
L 310.905266 187.252375 
L 311.105261 268.958082 
L 311.305256 285.66644 
L 311.505251 285.372666 
L 311.705246 292.974051 
L 311.905241 307.993212 
L 312.105235 292.974051 
L 312.30523 292.72924 
L 312.505225 292.72924 
L 312.70522 316.182144 
L 312.905215 305.532861 
L 313.10521 323.648883 
L 313.305205 308.923495 
L 313.5052 319.572778 
L 313.705194 293.059735 
L 313.905189 292.802683 
L 314.105184 312.142761 
L 314.305179 181.523795 
L 314.505174 171.180526 
L 314.705169 196.84897 
L 314.905164 200.508896 
L 315.305153 165.843644 
L 315.505148 136.454071 
L 315.705143 127.224692 
L 315.905138 140.872911 
L 316.105133 136.576476 
L 316.305128 145.805855 
L 316.705118 188.892609 
L 316.905113 185.244924 
L 317.105107 210.827684 
L 317.705092 236.324761 
L 317.905087 265.800018 
L 318.505072 222.492934 
L 318.905061 234.917097 
L 319.105056 229.873989 
L 319.505046 239.458343 
L 319.705041 234.194905 
L 319.905036 223.129443 
L 320.105031 223.129443 
L 320.305025 222.835669 
L 320.50502 238.381174 
L 320.705015 242.02886 
L 320.90501 260.144882 
L 321.105005 255.126254 
L 321.305 260.169363 
L 321.504995 233.129976 
L 321.70499 244.917631 
L 321.904985 241.257705 
L 322.104979 268.92136 
L 322.304974 265.273674 
L 322.504969 235.798417 
L 322.704964 262.31146 
L 323.104954 211.194901 
L 323.304949 228.233754 
L 323.504944 201.46366 
L 323.704938 228.503046 
L 323.904933 225.161375 
L 324.104928 230.424814 
L 324.304923 203.385427 
L 324.904908 188.060252 
L 325.104903 193.32369 
L 325.304897 218.992135 
L 325.504892 201.953282 
L 325.704887 215.650463 
L 325.904882 197.534441 
L 326.104877 224.304536 
L 326.304872 221.782981 
L 326.504867 226.948496 
L 326.704862 253.461539 
L 327.104851 228.270476 
L 327.304846 269.778199 
L 327.504841 240.388626 
L 327.704836 227.609486 
L 327.904831 198.134229 
L 328.104826 202.699956 
L 328.504816 240.241739 
L 328.904805 216.960203 
L 329.304795 234.08474 
L 329.50479 231.563185 
L 329.704785 205.894741 
L 330.104775 222.823429 
L 330.304769 260.279528 
L 330.504764 262.801082 
L 330.704759 248.075694 
L 330.904754 257.880379 
L 331.104749 283.548823 
L 331.304744 254.15925 
L 331.504739 249.593523 
L 331.704734 278.983096 
L 331.904729 269.753718 
L 332.104723 292.08049 
L 332.304718 287.404598 
L 332.504713 296.633977 
L 332.704708 267.244404 
L 332.904703 281.969792 
L 333.104698 260.377452 
L 333.304693 255.358825 
L 333.504688 245.55414 
L 333.704682 249.850575 
L 333.904677 222.18692 
L 334.104672 256.999059 
L 334.504662 221.97883 
L 334.704657 221.97883 
L 334.904652 247.708478 
L 335.104647 247.708478 
L 335.704631 262.213536 
L 335.904626 244.01183 
L 336.304616 279.252389 
L 336.504611 274.955954 
L 336.704606 247.916567 
L 336.9046 269.508907 
L 337.104595 265.861221 
L 337.30459 270.879849 
L 337.504585 257.182667 
L 337.70458 275.298689 
L 337.904575 278.946375 
L 338.304565 243.705816 
L 338.50456 249.042698 
L 338.704554 230.926676 
L 338.904549 201.537103 
L 339.104544 219.738809 
L 339.304539 249.128382 
L 339.504534 237.634501 
L 339.704529 264.147543 
L 339.904524 275.641425 
L 340.104519 280.684534 
L 340.304513 261.344456 
L 340.504508 275.041638 
L 340.704503 304.516895 
L 340.904498 299.253456 
L 341.304488 261.075164 
L 341.504483 270.879849 
L 341.704478 265.542967 
L 341.904472 243.950627 
L 342.104467 260.98948 
L 342.304462 255.970852 
L 342.504457 281.553613 
L 342.704452 276.510504 
L 342.904447 294.626526 
L 343.104442 300.367346 
L 343.304437 323.82025 
L 343.704426 304.724984 
L 343.904421 331.495079 
L 344.104416 335.791513 
L 344.304411 350.516901 
L 344.504406 354.176827 
L 344.704401 327.406733 
L 344.904396 318.177354 
L 345.304385 284.736157 
L 345.704375 299.008645 
L 345.90437 269.533388 
L 346.104365 281.027269 
L 346.30436 277.367343 
L 346.504355 251.698899 
L 346.70435 257.035781 
L 346.904344 284.075167 
L 347.304334 262.776601 
L 347.504329 235.737215 
L 347.704324 231.061322 
L 347.904319 217.364141 
L 348.104314 189.700486 
L 348.304309 203.397667 
L 348.504304 258.982029 
L 348.704298 273.707417 
L 348.904293 303.09699 
L 349.104288 298.421098 
L 349.304283 307.650477 
L 349.504278 300.049092 
L 349.704273 304.614819 
L 349.904268 277.575432 
L 350.104263 281.871867 
L 350.504252 239.776598 
L 350.704247 238.625986 
L 350.904242 218.294423 
L 351.104237 226.15286 
L 351.504227 194.829279 
L 351.704222 194.829279 
L 351.904216 206.616933 
L 352.304206 261.319975 
L 352.504201 256.754248 
L 352.704196 237.414171 
L 352.904191 234.892616 
L 353.304181 260.867075 
L 353.504176 231.391817 
L 353.70417 293.659522 
L 353.904165 271.871334 
L 354.10416 286.596722 
L 354.50415 331.75213 
L 354.704145 304.712744 
L 354.90414 331.75213 
L 355.104135 336.048565 
L 355.504124 284.980968 
L 355.704119 290.244407 
L 355.904114 312.57118 
L 356.104109 286.988419 
L 356.304104 316.377993 
L 356.704094 271.406193 
L 356.904088 286.731368 
L 357.104083 281.688259 
L 357.304078 254.648872 
L 357.504073 249.97298 
L 357.704068 271.479636 
L 357.904063 267.183201 
L 358.104058 237.793628 
L 358.304053 243.057067 
L 358.504048 244.195438 
L 358.704042 254.000123 
L 358.904037 233.350306 
L 359.104032 237.646741 
L 359.304027 247.280058 
L 359.504022 274.050153 
L 359.904012 229.971913 
L 360.104007 224.928804 
L 360.304001 230.375851 
L 360.903986 273.352441 
L 361.103981 277.012367 
L 361.303976 282.753187 
L 361.503971 309.792574 
L 361.703966 283.279531 
L 361.90396 277.538711 
L 362.103955 248.063454 
L 362.30395 248.063454 
L 362.503945 252.531256 
L 362.70394 274.858029 
L 362.903935 249.189585 
L 363.10393 275.702628 
L 363.50392 296.425888 
L 363.903909 288.10231 
L 364.103904 306.218332 
L 364.503894 267.440253 
L 364.703889 249.324231 
L 364.903884 250.682933 
L 365.303873 279.50944 
L 365.503868 308.984697 
L 365.703863 287.392358 
L 365.903858 315.056013 
L 366.103853 310.759578 
L 366.303848 200.778189 
L 366.703838 191.916027 
L 366.903832 218.955413 
L 367.103827 191.916027 
L 367.303822 205.613208 
L 367.503817 259.581816 
L 367.703812 263.241742 
L 367.903807 268.982563 
L 368.103802 257.194908 
L 368.503792 294.112423 
L 368.703786 288.848984 
L 368.903781 262.078889 
L 369.103776 257.513162 
L 369.503766 211.660042 
L 369.703761 252.151799 
L 370.103751 279.71753 
L 370.303745 284.736157 
L 370.50374 311.775544 
L 370.90373 283.010239 
L 371.103725 286.657925 
L 371.30372 316.133182 
L 371.503715 294.540842 
L 371.70371 312.656864 
L 371.903704 316.31679 
L 372.103699 345.706363 
L 372.303694 356.355646 
L 372.503689 351.337019 
L 372.703684 376.919779 
L 373.103674 348.49721 
L 373.303669 322.914449 
L 373.503664 327.210884 
L 373.703658 301.54244 
L 373.903653 293.941055 
L 374.103648 296.462609 
L 374.303643 311.787785 
L 374.703633 321.849521 
L 374.903628 333.343402 
L 375.103623 328.324775 
L 375.503612 283.083682 
L 375.703607 288.420564 
L 375.903602 261.65047 
L 376.103597 275.347651 
L 376.303592 302.117746 
L 376.503587 309.719131 
L 376.703582 280.243874 
L 376.903576 276.596188 
L 377.303566 219.54296 
L 377.503561 214.279521 
L 377.703556 219.54296 
L 378.103546 203.630238 
L 378.303541 201.769674 
L 378.503535 207.510494 
L 378.903525 190.104424 
L 379.10352 199.333803 
L 379.303515 194.290694 
L 380.103495 269.655793 
L 380.303489 299.045366 
L 380.703479 308.764367 
L 380.903474 279.28911 
L 381.103469 306.328497 
L 381.303464 311.591936 
L 381.703454 362.708495 
L 381.903448 360.18694 
L 382.103443 348.693059 
L 382.503433 307.332222 
L 382.703428 298.102844 
L 383.103418 259.802146 
L 383.303413 255.958612 
L 383.503407 274.160318 
L 383.703402 262.666436 
L 383.903397 233.191179 
L 384.103392 282.471655 
L 384.503382 231.563185 
L 384.703377 250.903263 
L 384.903372 225.320502 
L 385.103367 252.090596 
L 385.303361 257.354035 
L 385.703351 240.523272 
L 385.903346 218.196499 
L 386.103341 259.44717 
L 386.503331 291.982566 
L 386.703326 280.194911 
L 386.90332 298.396617 
L 387.103315 279.05654 
L 387.30331 288.285918 
L 387.503305 290.807473 
L 387.7033 265.139028 
L 387.903295 272.740413 
L 388.10329 298.408858 
L 388.303285 309.058141 
L 388.503279 282.018754 
L 388.703274 276.681872 
L 389.103264 285.384907 
L 389.703249 338.447714 
L 389.903244 271.075698 
L 390.303233 283.940521 
L 390.503228 299.265696 
L 390.703223 303.831424 
L 390.903218 321.947445 
L 391.103213 327.688266 
L 391.303208 357.163523 
L 391.503203 362.182151 
L 392.103187 275.653665 
L 392.303182 271.087938 
L 392.703172 278.17522 
L 393.103162 249.75265 
L 393.303157 245.456215 
L 393.503151 271.12466 
L 393.703146 249.53232 
L 394.103136 282.618541 
L 394.303131 277.281659 
L 394.503126 250.242273 
L 394.903116 270.69624 
L 395.103111 243.926146 
L 395.303105 239.250254 
L 395.5031 219.910177 
L 395.703095 229.139555 
L 395.90309 252.592459 
L 396.30308 222.896872 
L 396.70307 208.648866 
L 396.903064 223.374254 
L 397.303054 268.615346 
L 397.703044 219.126781 
L 397.903039 237.242803 
L 398.103034 232.199694 
L 398.303029 246.925082 
L 398.503023 241.906454 
L 398.703018 226.581279 
L 398.903013 222.933594 
L 399.103008 248.112416 
L 399.502998 260.279528 
L 399.702993 240.939451 
L 399.902988 250.744135 
L 400.102983 267.782988 
L 400.302977 263.217261 
L 400.502972 278.542436 
L 400.702967 304.210881 
L 400.902962 277.440786 
L 401.102957 279.962341 
L 401.302952 270.732962 
L 401.502947 245.150202 
L 401.902936 253.853236 
L 402.102931 244.048552 
L 402.302926 248.344986 
L 402.702916 239.372659 
L 403.102906 248.932533 
L 403.502895 301.285388 
L 403.902885 275.31093 
L 404.50287 334.065595 
L 404.702865 329.76916 
L 404.90286 345.094335 
L 405.102855 326.978314 
L 405.302849 345.094335 
L 405.502844 341.434409 
L 405.702839 368.473796 
L 405.902834 374.214616 
L 406.702814 281.125194 
L 406.902808 285.690921 
L 407.102803 237.964996 
L 407.302798 267.354569 
L 407.502793 278.003852 
L 407.702788 275.482298 
L 408.102778 326.549894 
L 408.502767 317.846859 
L 408.702762 329.340741 
L 408.902757 331.862295 
L 409.102752 343.64995 
L 409.502742 313.746273 
L 409.702737 330.785126 
L 409.902732 335.828235 
L 410.102727 306.352978 
L 410.302721 313.954363 
L 410.502716 304.724984 
L 410.702711 332.388639 
L 410.902706 320.894758 
L 411.102701 301.55468 
L 411.302696 297.906995 
L 411.702686 312.203963 
L 411.90268 309.682409 
L 412.30267 332.963945 
L 412.70266 290.868676 
L 412.902655 282.239084 
L 413.10265 282.239084 
L 413.302645 259.385967 
L 413.502639 254.82024 
L 413.702634 258.467926 
L 413.902629 252.310926 
L 414.102624 240.523272 
L 414.302619 245.78671 
L 414.502614 236.324761 
L 414.702609 232.664835 
L 414.902604 258.33328 
L 415.102598 261.993206 
L 415.302593 289.656861 
L 415.702583 262.813323 
L 416.102573 236.006507 
L 416.302568 241.526997 
L 416.502563 241.526997 
L 416.902552 250.450362 
L 417.302542 240.621196 
L 417.502537 228.833541 
L 418.102522 298.347655 
L 418.302517 280.231633 
L 418.502511 288.861224 
L 418.702506 311.187997 
L 418.902501 283.524342 
L 419.302491 291.84792 
L 419.502486 266.265159 
L 419.902476 260.09592 
L 420.10247 235.18639 
L 420.302465 235.18639 
L 420.50246 237.707944 
L 420.702455 230.106559 
L 421.102445 272.128385 
L 421.30244 295.581289 
L 421.502435 269.068247 
L 421.70243 274.405129 
L 421.902424 269.839402 
L 422.302414 317.944784 
L 422.502409 313.648349 
L 422.702404 299.951168 
L 422.902399 211.317307 
L 423.102394 216.25025 
L 423.302389 243.020345 
L 423.502383 216.25025 
L 423.702378 209.542426 
L 423.902373 236.312521 
L 424.102368 208.648866 
L 424.302363 232.10177 
L 424.502358 241.906454 
L 424.702353 246.202889 
L 424.902348 234.709008 
L 425.102342 230.143281 
L 425.302337 233.20342 
L 425.502332 238.540302 
L 425.702327 264.123062 
L 426.102317 255.456749 
L 426.302312 282.496136 
L 426.502307 265.457283 
L 426.902296 295.15287 
L 427.102291 285.923491 
L 427.302286 260.255047 
L 427.502281 282.58182 
L 427.702276 290.183204 
L 427.902271 307.222057 
L 428.102266 301.481237 
L 428.302261 305.128922 
L 428.502255 295.324238 
L 428.70225 272.997465 
L 428.902245 267.954356 
L 429.10224 291.40726 
L 429.302235 287.110825 
L 429.50223 314.77448 
L 429.702225 189.798411 
L 429.90222 182.197026 
L 430.102214 187.460464 
L 430.302209 182.417356 
L 430.502204 193.911237 
L 430.902194 245.027796 
L 431.102189 240.462069 
L 431.302184 267.219923 
L 431.502179 271.516358 
L 431.702174 280.745736 
L 431.902168 258.418963 
L 432.102163 262.066649 
L 432.302158 248.369468 
L 432.502153 253.388095 
L 432.702148 249.09166 
L 432.902143 237.304006 
L 433.102138 256.154461 
L 433.302133 226.764887 
L 433.502127 216.421618 
L 434.102112 232.713797 
L 434.502102 284.895285 
L 434.702097 279.852176 
L 434.902092 301.444515 
L 435.102086 306.487624 
L 435.302081 300.746804 
L 435.502076 330.136377 
L 435.702071 303.623334 
L 435.902066 298.604706 
L 436.102061 301.126261 
L 436.302056 328.789916 
L 436.502051 333.808543 
L 436.702046 324.579165 
L 436.90204 334.38385 
L 437.102035 312.79151 
L 437.30203 310.269956 
L 437.502025 312.79151 
L 437.70202 285.752123 
L 437.902015 312.265166 
L 438.10201 285.495072 
L 438.302005 280.929345 
L 438.501999 265.604169 
L 438.701994 277.391824 
L 438.901989 273.731898 
L 439.101984 300.771285 
L 439.301979 271.296028 
L 439.701969 279.631846 
L 439.901964 274.588737 
L 440.101958 280.329557 
L 440.301953 268.835676 
L 440.501948 264.539241 
L 440.701943 238.870797 
L 440.901938 248.100175 
L 441.101933 271.553079 
L 441.301928 266.289641 
L 441.501923 285.629718 
L 441.701918 230.755309 
L 441.901912 256.105499 
L 442.101907 256.019815 
L 442.301902 265.249193 
L 442.701892 255.420027 
L 442.901887 232.309859 
L 443.101882 261.785116 
L 443.301877 257.109224 
L 443.501871 278.83621 
L 443.901861 288.445046 
L 444.101856 314.027806 
L 444.301851 287.257712 
L 444.501846 281.871867 
L 444.701841 265.61641 
L 444.901836 270.635038 
L 445.10183 255.90965 
L 445.301825 265.298156 
L 445.701815 315.264102 
L 445.90181 319.939994 
L 446.101805 330.589277 
L 446.3018 348.705299 
L 446.501795 354.042181 
L 446.70179 236.679737 
L 447.101779 261.271013 
L 447.301774 256.705286 
L 447.701764 295.005983 
L 447.901759 304.810668 
L 448.101754 299.069848 
L 448.301749 322.522751 
L 448.501743 295.752657 
L 448.701738 325.14223 
L 448.901733 328.802156 
L 449.101728 192.087394 
L 449.301723 217.755839 
L 449.501718 215.234284 
L 449.701713 198.317837 
L 450.301697 208.795752 
L 450.501692 216.397137 
L 450.701687 241.979898 
L 450.901682 237.414171 
L 451.101677 241.979898 
L 451.301672 260.181603 
L 451.701662 231.416298 
L 451.901656 226.850571 
L 452.101651 230.498257 
L 452.301646 242.285912 
L 452.501641 230.498257 
L 452.701636 239.727636 
L 452.901631 226.030454 
L 453.101626 235.835139 
L 453.301621 231.538704 
L 453.501615 214.499851 
L 453.70161 225.993732 
L 453.901605 199.223638 
L 454.1016 203.520073 
L 454.301595 199.860147 
L 454.50159 205.405119 
L 454.701585 176.015545 
L 454.90158 176.860144 
L 455.101574 167.936779 
L 455.501564 219.004375 
L 455.701559 189.529118 
L 455.901554 217.192773 
L 456.101549 209.591388 
L 456.301544 191.389683 
L 456.501539 220.86494 
L 456.701533 215.528058 
L 456.901528 215.601501 
L 457.101523 210.05653 
L 457.501513 243.57117 
L 457.701508 241.355629 
L 458.501487 273.230035 
L 458.701482 247.647275 
L 458.901477 275.31093 
L 459.101472 257.109224 
L 459.301467 276.449301 
L 459.501462 271.883574 
L 459.901452 281.578094 
L 460.101446 258.12519 
L 460.301441 276.241212 
L 460.501436 261.515824 
L 460.701431 234.74573 
L 460.901426 264.220987 
L 461.101421 269.557869 
L 461.501411 228.197032 
L 461.9014 267.721785 
L 462.101395 216.446099 
L 462.501385 253.902199 
L 462.70138 258.198633 
L 462.901375 242.873458 
L 463.10137 252.678143 
L 463.301365 252.678143 
L 463.501359 227.095382 
L 463.701354 232.138491 
L 463.901349 227.462599 
L 464.101344 256.937856 
L 464.501334 272.850578 
L 464.701329 258.12519 
L 464.901324 283.793635 
L 465.101318 273.98895 
L 465.301313 278.664842 
L 465.501308 293.39023 
L 465.701303 279.693049 
L 466.101293 209.371058 
L 466.301288 207.510494 
L 466.501283 226.850571 
L 466.701277 209.811718 
L 467.101267 214.193837 
L 467.301262 241.857492 
L 467.501257 212.467919 
L 467.701252 238.980962 
L 467.901247 229.176277 
L 468.101242 207.583937 
L 468.301237 211.880372 
L 468.501231 233.472712 
L 468.701226 229.825026 
L 469.101216 260.242806 
L 469.301211 265.506245 
L 469.501206 275.31093 
L 469.901196 266.314122 
L 470.301185 308.935735 
L 470.50118 303.672296 
L 470.701175 276.63291 
L 470.90117 266.828225 
L 471.30116 323.342869 
L 471.701149 279.986822 
L 471.901144 269.949567 
L 472.101139 292.276339 
L 472.301134 277.550951 
L 472.501129 289.044833 
L 472.701124 273.719658 
L 472.901119 244.2444 
L 473.101114 256.032055 
L 473.301109 251.466328 
L 473.501103 239.678673 
L 473.701098 214.095913 
L 473.901093 243.485486 
L 474.101088 238.466858 
L 474.301083 243.032585 
L 474.501078 250.585008 
L 474.901068 250.585008 
L 475.101062 279.325832 
L 475.301057 272.850578 
L 475.501052 284.34446 
L 475.701047 280.048025 
L 475.901042 309.523282 
L 476.301032 318.911788 
L 476.501027 330.699442 
L 476.701021 311.359365 
L 476.901016 316.402474 
L 477.101011 312.742548 
L 477.501001 259.900071 
L 478.100986 315.814927 
L 478.300981 297.613221 
L 478.500975 290.011837 
L 478.70097 267.685064 
L 478.900965 261.944243 
L 479.10096 284.062927 
L 479.300955 287.722853 
L 479.50095 301.420034 
L 479.700945 287.722853 
L 480.100934 316.145422 
L 480.300929 311.46953 
L 480.500924 285.801086 
L 480.700919 290.476978 
L 480.900914 271.1369 
L 481.100909 294.589804 
L 481.300904 279.864416 
L 481.500899 276.216731 
L 481.700893 259.177878 
L 481.900888 254.612151 
L 482.300878 266.926149 
L 482.500873 259.496132 
L 482.700868 285.164577 
L 482.900863 261.711673 
L 483.100858 261.711673 
L 483.300853 286.082618 
L 483.700842 295.458884 
L 483.900837 266.069311 
L 484.100832 260.805872 
L 484.300827 260.805872 
L 484.500822 287.575966 
L 484.700817 292.594594 
L 484.900812 284.993209 
L 485.100806 290.256648 
L 485.300801 285.213539 
L 485.500796 294.442918 
L 485.700791 272.850578 
L 485.900786 269.190652 
L 486.100781 294.773413 
L 486.300776 298.433339 
L 486.500771 280.231633 
L 486.700765 199.431728 
L 486.90076 225.014488 
L 487.100755 217.413103 
L 487.30075 228.711136 
L 487.500745 230.79203 
L 487.70074 257.562125 
L 488.10073 212.516881 
L 488.300725 212.516881 
L 488.500719 218.257702 
L 488.700714 215.736147 
L 489.100704 206.873985 
L 489.300699 226.764887 
L 489.500694 222.19916 
L 489.700689 236.190115 
L 489.900684 232.468986 
L 490.100678 218.943173 
L 490.300673 245.456215 
L 490.500668 254.685594 
L 490.700663 254.685594 
L 491.100653 207.42481 
L 491.500643 228.319438 
L 491.700637 218.857489 
L 491.900632 199.517411 
L 492.100627 216.556264 
L 492.300622 199.517411 
L 492.700612 283.46314 
L 492.900607 205.417359 
L 493.100602 228.870263 
L 493.500591 219.041097 
L 493.900581 262.348182 
L 494.100576 262.348182 
L 494.300571 254.746797 
L 494.500566 266.534452 
L 494.700561 211.268344 
L 494.900556 207.314645 
L 495.300545 251.809064 
L 495.50054 257.966063 
L 495.700535 257.966063 
L 496.100525 285.078893 
L 496.30052 258.56585 
L 496.900504 273.511568 
L 497.100499 268.174686 
L 497.300494 270.69624 
L 497.500489 297.735627 
L 497.700484 278.39555 
L 497.900479 284.13637 
L 498.100474 268.811195 
L 498.300468 265.151269 
L 498.900453 192.160838 
L 499.100448 192.160838 
L 499.300443 196.126778 
L 499.500438 191.56105 
L 499.700433 215.013954 
L 499.900428 219.310389 
L 500.100422 215.013954 
L 500.300417 200.288566 
L 500.500412 200.288566 
L 500.700407 210.093251 
L 500.900402 226.532317 
L 501.100397 230.828752 
L 501.300392 224.500385 
L 501.500387 245.872394 
L 501.700381 251.135833 
L 501.900376 247.488148 
L 502.100371 252.053875 
L 502.300366 252.053875 
L 502.500361 269.092728 
L 502.700356 246.765955 
L 502.900351 243.106029 
L 503.100346 265.432802 
L 503.30034 260.169363 
L 503.500335 285.752123 
L 503.70033 281.186396 
L 503.900325 285.752123 
L 504.10032 271.932536 
L 504.300315 286.572241 
L 504.50031 290.232167 
L 504.700305 263.462072 
L 504.9003 268.798954 
L 505.300289 247.500388 
L 505.700279 271.846853 
L 506.100269 316.818653 
L 506.300264 299.7798 
L 506.500259 311.567455 
L 507.300238 232.211935 
L 507.500233 261.601508 
L 507.700228 263.462072 
L 507.900223 285.788845 
L 508.100218 283.267291 
L 508.300212 301.468996 
L 508.500207 274.698902 
L 508.700202 280.439722 
L 508.900197 290.244407 
L 509.500182 243.546689 
L 509.900172 290.52594 
L 510.100166 288.910187 
L 510.300161 310.906465 
L 510.500156 286.56 
L 510.700151 295.789379 
L 510.900146 266.314122 
L 511.100141 279.387035 
L 511.300136 285.127855 
L 511.500131 259.459411 
L 511.700125 264.478038 
L 511.90012 259.141156 
L 512.100115 244.415768 
L 512.7001 288.54297 
L 512.900095 262.960209 
L 513.300084 307.075171 
L 513.500079 279.411516 
L 513.700074 274.392888 
L 514.100064 246.166168 
L 514.300059 248.149138 
L 514.500054 245.590862 
L 514.700049 248.112416 
L 515.100038 227.352434 
L 515.500028 267.513696 
L 515.700023 248.173619 
L 515.900018 255.775004 
L 516.100013 251.209276 
L 516.300008 261.013961 
L 516.899992 233.411509 
L 517.299982 242.653128 
L 517.499977 272.128385 
L 517.899967 246.704752 
L 518.099962 217.229495 
L 518.299956 230.926676 
L 518.499951 225.185856 
L 518.699946 243.387562 
L 518.899941 220.387558 
L 519.699921 238.577023 
L 519.899916 226.789369 
L 520.09991 232.530189 
L 520.299905 203.140616 
L 520.699895 224.157649 
L 521.29988 183.029383 
L 521.499875 188.292822 
L 521.699869 188.292822 
L 521.899864 178.133161 
L 522.099859 178.133161 
L 522.299854 168.144868 
L 522.499849 168.144868 
L 522.899839 209.983086 
L 523.099834 183.470043 
L 523.499823 235.565847 
L 523.699818 217.449825 
L 523.899813 226.679204 
L 524.099808 221.342321 
L 524.299803 194.302935 
L 524.499798 200.716986 
L 524.699793 193.115601 
L 525.099782 244.23216 
L 525.299777 249.250788 
L 525.499772 240.021409 
L 525.699767 243.669094 
L 525.899762 217.156052 
L 526.099757 219.677606 
L 526.499747 267.782988 
L 526.699741 238.870797 
L 526.899736 251.331682 
L 527.099731 278.995337 
L 527.299726 268.346054 
L 527.699716 313.391297 
L 527.899711 284.001724 
L 528.099706 295.495605 
L 528.2997 295.495605 
L 528.499695 299.155531 
L 528.899685 250.034183 
L 529.09968 275.702628 
L 529.699665 240.058131 
L 529.89966 240.902729 
L 530.099654 262.825563 
L 530.299649 268.162445 
L 530.699639 258.223115 
L 530.899634 259.067713 
L 531.099629 256.191182 
L 531.299624 281.859627 
L 531.499619 270.071972 
L 531.699613 275.0906 
L 531.899608 249.422155 
L 532.099603 244.403528 
L 532.299598 232.199694 
L 532.699588 241.918695 
L 532.899583 268.431738 
L 533.099578 254.734556 
L 533.299572 259.997995 
L 533.499567 285.66644 
L 533.699562 270.341264 
L 533.899557 266.693579 
L 534.099552 276.498264 
L 534.299547 271.234825 
L 534.499542 289.350847 
L 535.099526 247.635034 
L 535.299521 265.83674 
L 535.499516 270.855368 
L 535.899506 217.608952 
L 536.099501 212.565843 
L 536.299496 227.891019 
L 536.499491 287.245471 
L 536.699485 260.206085 
L 536.89948 274.931473 
L 537.099475 271.283787 
L 537.29947 263.682402 
L 537.499465 265.310396 
L 537.899455 288.812262 
L 538.09945 315.325305 
L 538.299444 190.141146 
L 538.499439 190.141146 
L 538.699434 197.742531 
L 538.899429 170.703144 
L 539.099424 182.380634 
L 539.299419 208.049078 
L 539.499414 208.049078 
L 539.899403 240.976172 
L 540.099398 240.976172 
L 540.299393 245.541899 
L 540.699383 260.034717 
L 541.099373 252.947435 
L 541.299368 252.947435 
L 541.499363 225.28378 
L 541.699357 254.759037 
L 541.899352 247.157653 
L 542.099347 252.494535 
L 542.299342 243.265156 
L 542.499337 246.912841 
L 542.699332 241.172021 
L 542.899327 266.154994 
L 543.099322 266.154994 
L 543.299316 270.451429 
L 543.499311 299.926686 
L 543.699306 295.801619 
L 543.899301 300.477511 
L 544.099296 296.181077 
L 544.299291 296.181077 
L 544.499286 318.507849 
L 544.699281 304.810668 
L 544.899275 204.021936 
L 545.09927 204.021936 
L 545.299265 215.809591 
L 545.49926 215.809591 
L 545.699255 216.91124 
L 545.89925 236.251318 
L 546.099245 239.788838 
L 546.29924 267.452493 
L 546.499235 263.156058 
L 546.699229 263.156058 
L 546.899224 267.721785 
L 547.099219 240.682399 
L 547.299214 248.283784 
L 547.499209 228.943706 
L 547.699204 232.603632 
L 547.899199 228.955947 
L 548.099194 202.185852 
L 548.299188 217.866004 
L 548.499183 212.063981 
L 548.699178 212.063981 
L 548.899173 239.727636 
L 549.099168 220.387558 
L 549.499158 220.387558 
L 549.699153 215.821831 
L 550.099142 215.821831 
L 550.499132 168.316236 
L 550.899122 207.681862 
L 551.099117 189.56584 
L 551.299112 194.902722 
L 551.499107 224.292295 
L 551.699101 216.69091 
L 552.299086 170.862271 
L 552.699076 216.103364 
L 552.899071 210.362543 
L 553.099066 236.030988 
L 553.29906 241.074097 
L 553.499055 236.398204 
L 553.69905 236.398204 
L 553.899045 259.851108 
L 554.299035 210.72976 
L 554.49903 221.648335 
L 554.699025 216.384897 
L 554.899019 221.648335 
L 555.099014 220.485483 
L 555.299009 247.255577 
L 555.499004 252.996397 
L 555.698999 225.957011 
L 555.898994 267.085277 
L 556.098989 269.606831 
L 556.298984 244.02407 
L 556.698973 291.933604 
L 556.898968 278.236422 
L 557.098963 252.653662 
L 557.298958 261.883041 
L 557.498953 234.843654 
L 557.698948 256.435993 
L 557.898943 256.435993 
L 558.098938 262.176814 
L 558.498927 300.477511 
L 558.698922 294.736691 
L 558.898917 300.00013 
L 559.098912 276.547226 
L 559.298907 280.207152 
L 559.498902 280.207152 
L 559.698897 293.904333 
L 559.898891 288.567451 
L 560.098886 312.020355 
L 560.298881 306.756916 
L 560.498876 317.406199 
L 560.698871 309.804815 
L 561.098861 278.970856 
L 561.298856 276.449301 
L 561.498851 248.785646 
L 561.89884 248.785646 
L 562.098835 225.332743 
L 562.29883 242.371595 
L 562.498825 242.371595 
L 562.69882 216.703151 
L 562.898815 214.206078 
L 563.298804 223.533381 
L 563.498799 246.986285 
L 563.698794 242.420558 
L 563.898789 253.914439 
L 564.098784 244.68506 
L 564.498774 203.030451 
L 564.698769 218.355626 
L 564.898763 213.018744 
L 565.098758 239.788838 
L 565.698743 239.788838 
L 565.898738 228.001184 
L 566.098733 228.001184 
L 566.298728 247.341261 
L 566.498723 247.341261 
L 566.698717 251.637696 
L 566.898712 251.637696 
L 567.098707 236.312521 
L 567.298702 241.355629 
L 567.498697 236.679737 
L 567.898687 263.792567 
L 568.098682 237.279524 
L 568.298676 232.236416 
L 568.498671 236.802143 
L 568.698666 262.470587 
L 569.098656 217.462065 
L 569.298651 269.998529 
L 569.498646 266.338603 
L 569.698641 266.338603 
L 569.898635 236.863346 
L 570.09863 236.863346 
L 570.49862 249.728169 
L 570.698615 225.479629 
L 570.89861 256.399272 
L 571.098605 248.136897 
L 571.2986 247.879845 
L 571.498595 250.438121 
L 571.698589 264.135303 
L 571.898584 240.682399 
L 572.098579 242.408317 
L 572.298574 242.408317 
L 572.498569 248.822368 
L 572.898559 248.822368 
L 573.098554 229.482291 
L 573.298548 229.482291 
L 573.498543 238.454618 
L 573.698538 252.678143 
L 573.898533 207.19224 
L 574.098528 207.19224 
L 574.498518 220.130507 
L 574.698513 220.130507 
L 574.898507 214.793624 
L 575.298497 271.308268 
L 575.498492 276.64515 
L 575.698487 247.169893 
L 575.898482 251.845785 
L 576.298472 251.845785 
L 576.898456 202.406182 
L 577.098451 210.007567 
L 577.298446 184.424807 
L 577.698436 193.360412 
L 577.898431 193.360412 
L 578.098426 219.028857 
L 578.29842 213.765418 
L 578.498415 202.271536 
L 578.69841 203.165097 
L 578.898405 203.165097 
L 579.0984 205.417359 
L 579.698385 205.417359 
L 580.098374 261.319975 
L 580.298369 238.993202 
L 580.498364 238.993202 
L 580.698359 249.642485 
L 580.898354 245.076758 
L 581.098349 248.736684 
L 581.298344 278.211941 
L 581.498338 251.172555 
L 581.698333 274.625459 
L 581.898328 245.150202 
L 582.098323 240.107093 
L 582.298318 216.654189 
L 582.498313 213.006503 
L 582.698308 216.654189 
L 582.898303 216.654189 
L 583.098298 201.928801 
L 583.298292 207.19224 
L 583.498287 226.532317 
L 583.698282 217.302938 
L 584.098272 244.648339 
L 584.298267 249.214066 
L 584.498262 243.473245 
L 584.698257 248.491873 
L 584.898251 266.693579 
L 585.098246 237.304006 
L 585.298241 266.693579 
L 585.498236 248.577557 
L 585.698231 248.577557 
L 585.898226 243.314118 
L 586.098221 272.789375 
L 586.298216 270.267821 
L 586.49821 270.267821 
L 586.698205 274.564256 
L 587.098195 235.125187 
L 587.29819 235.125187 
L 587.498185 215.785109 
L 587.898175 258.627053 
L 588.498159 258.627053 
L 588.698154 240.511031 
L 588.898149 240.511031 
L 589.098144 269.900604 
L 589.298139 269.900604 
L 589.498134 258.223115 
L 589.698129 258.223115 
L 589.898123 253.779793 
L 590.098118 269.643553 
L 590.298113 263.119337 
L 590.498108 268.137964 
L 590.898098 268.137964 
L 591.098093 251.099111 
L 591.298088 258.700496 
L 591.498082 258.700496 
L 591.898072 275.421095 
L 592.098067 267.81971 
L 592.298062 285.935732 
L 593.298036 190.471641 
L 593.498031 219.946898 
L 593.698026 215.650463 
L 593.898021 225.198096 
L 595.297985 225.198096 
L 595.49798 235.798417 
L 595.697975 210.129973 
L 596.097965 210.129973 
L 596.29796 239.519546 
L 596.497954 225.822365 
L 596.697949 231.085803 
L 596.897944 231.085803 
L 597.297934 240.425347 
L 597.497929 235.85962 
L 597.697924 249.556801 
L 598.097914 249.556801 
L 598.297908 220.167228 
L 598.497903 220.167228 
L 598.697898 246.680271 
L 598.897893 254.281656 
L 599.097888 227.768613 
L 599.297883 225.247059 
L 599.497878 216.274732 
L 599.897867 229.812786 
L 600.297857 229.812786 
L 600.497852 251.405125 
L 600.697847 237.707944 
L 600.897842 237.707944 
L 601.097837 252.433332 
L 601.297832 252.433332 
L 601.697821 241.833011 
L 601.897816 241.833011 
L 602.097811 251.307201 
L 602.497801 251.307201 
L 602.697796 250.205551 
L 602.897791 258.33328 
L 603.097786 259.067713 
L 603.497775 238.454618 
L 604.09776 238.454618 
L 604.297755 233.411509 
L 604.49775 236.594053 
L 605.497724 236.594053 
L 605.697719 242.530723 
L 606.497698 242.530723 
L 606.697693 243.864943 
L 606.897688 243.864943 
L 607.097683 239.568508 
L 607.297678 238.234288 
L 607.497673 251.931469 
L 607.697668 277.599914 
L 607.897663 252.017153 
L 608.097658 246.680271 
L 608.297652 255.90965 
L 608.497647 225.05121 
L 608.697642 225.05121 
L 609.097632 266.2774 
L 609.297627 266.2774 
L 609.497622 260.206085 
L 609.697617 260.206085 
L 609.897611 253.216727 
L 610.097606 250.340197 
L 610.297601 250.340197 
L 610.497596 242.738812 
L 611.297576 242.738812 
L 611.49757 241.894214 
L 611.697565 251.931469 
L 611.89756 232.138491 
L 612.097555 232.138491 
L 612.29755 227.842056 
L 612.897535 227.842056 
L 613.09753 227.621726 
L 613.697514 227.621726 
L 613.897509 234.635565 
L 614.097504 234.855895 
L 614.897483 234.855895 
L 615.097478 230.55946 
L 615.697463 181.744125 
L 615.897458 181.744125 
L 616.097453 185.550938 
L 616.297448 185.550938 
L 616.497442 197.546682 
L 616.697437 223.129443 
L 616.897432 193.739869 
L 617.097427 193.739869 
L 617.297422 189.174142 
L 617.497417 189.174142 
L 617.697412 182.037898 
L 617.897407 182.037898 
L 618.497391 159.613201 
L 618.697386 159.613201 
L 618.897381 178.953279 
L 619.097376 178.953279 
L 619.297371 188.757963 
L 619.497366 188.757963 
L 619.697361 184.082071 
L 619.897355 184.730821 
L 620.09735 184.730821 
L 620.297345 196.224702 
L 620.49734 186.420017 
L 620.697335 186.420017 
L 620.89733 174.632363 
L 621.097325 174.632363 
L 621.29732 179.675471 
L 621.497314 165.97829 
L 622.097299 165.97829 
L 622.297294 161.681855 
L 622.497289 161.681855 
L 622.697284 149.796276 
L 622.897279 149.796276 
L 623.097273 168.536566 
L 623.497263 168.536566 
L 623.697258 183.261954 
L 623.897253 183.261954 
L 624.097248 186.909639 
L 624.297243 175.415758 
L 624.497238 176.064507 
L 625.097222 176.064507 
L 625.297217 156.72443 
L 625.497212 156.72443 
L 625.697207 155.133158 
L 625.897202 158.780843 
L 626.097197 158.780843 
L 626.297192 167.434916 
L 626.897176 167.434916 
L 627.097171 162.759024 
L 628.69713 162.759024 
L 628.897125 142.598829 
L 629.09712 142.598829 
L 629.297115 138.033102 
L 633.497007 138.033102 
L 633.697002 148.682385 
L 633.896997 143.639277 
L 634.696977 143.639277 
L 634.896971 133.908035 
L 635.096966 133.908035 
L 635.296961 143.71272 
L 635.696951 143.71272 
L 635.896946 150.77552 
L 636.096941 150.77552 
L 636.296936 149.649389 
L 636.696925 149.649389 
L 636.89692 151.913892 
L 637.096915 141.264609 
L 637.29691 141.264609 
L 637.496905 142.427462 
L 639.296859 142.427462 
L 639.496854 129.330067 
L 640.696823 129.330067 
L 640.896818 125.792547 
L 642.096787 125.792547 
L 642.296782 118.729747 
L 642.496777 126.331131 
L 642.696772 126.331131 
L 642.896767 116.526447 
L 644.496726 116.526447 
L 644.696721 111.238527 
L 646.896664 111.238527 
L 647.096659 115.804254 
L 648.096633 115.804254 
L 648.296628 111.507819 
L 649.096608 111.507819 
L 649.296603 116.183711 
L 649.696593 116.183711 
L 649.896587 110.920272 
L 650.096582 110.920272 
L 650.496572 103.306647 
L 656.296424 103.306647 
L 656.496418 97.700473 
L 661.296296 97.700473 
L 661.49629 102.963911 
L 661.89628 102.963911 
L 662.096275 98.288019 
L 676.895896 98.288019 
L 677.095891 102.853746 
L 682.295758 102.853746 
L 682.495753 98.288019 
L 709.095072 98.288019 
L 709.295067 97.700473 
L 740.094278 97.700473 
L 740.294273 97.920803 
L 740.894258 97.920803 
L 741.094253 97.700473 
L 743.494191 97.700473 
L 743.694186 97.920803 
L 792.092947 97.835119 
L 792.292942 96.488658 
L 793.292916 96.488658 
L 793.492911 88.887273 
L 871.690909 88.887273 
L 871.690909 88.887273 
" style="fill:none;stroke:#8dd3c7;stroke-linecap:square;stroke-width:1.5;"/>
   </g>
   <g id="line2d_17">
    <path clip-path="url(#p079ee7aa4a)" d="M 161.509091 163.432254 
L 306.705374 163.432254 
L 306.905369 159.79681 
L 315.305153 159.79681 
L 315.505148 136.454071 
L 315.705143 127.224692 
L 640.696823 127.224692 
L 640.896818 125.792547 
L 642.096787 125.792547 
L 642.296782 118.729747 
L 642.696772 118.729747 
L 642.896767 116.526447 
L 644.496726 116.526447 
L 644.696721 111.238527 
L 649.696593 111.238527 
L 649.896587 110.920272 
L 650.096582 110.920272 
L 650.496572 103.306647 
L 656.296424 103.306647 
L 656.496418 97.700473 
L 792.092947 97.700473 
L 792.292942 96.488658 
L 793.292916 96.488658 
L 793.492911 88.887273 
L 871.690909 88.887273 
L 871.690909 88.887273 
" style="fill:none;stroke:#feffb3;stroke-linecap:square;stroke-width:1.5;"/>
   </g>
   <g id="line2d_18">
    <path clip-path="url(#p079ee7aa4a)" d="M 161.509091 259.672396 
L 162.909055 259.672396 
L 163.10905 270.227631 
L 164.509014 270.227631 
L 164.709009 280.286728 
L 166.108973 280.286728 
L 166.308968 289.873007 
L 167.708932 289.873007 
L 167.908927 299.008692 
L 169.308891 299.008692 
L 169.508886 307.714964 
L 170.90885 307.714964 
L 171.108845 316.012006 
L 172.508809 316.012006 
L 172.708804 323.919054 
L 174.108768 323.919054 
L 174.308763 331.454439 
L 175.708727 331.454439 
L 175.908722 338.63563 
L 177.308686 338.63563 
L 177.508681 345.479277 
L 178.908645 345.479277 
L 179.10864 352.001245 
L 180.508604 352.001245 
L 180.708599 358.216654 
L 182.108564 358.216654 
L 182.308558 364.139915 
L 183.708523 364.139915 
L 183.908517 369.784758 
L 185.308482 369.784758 
L 185.508476 375.164271 
L 186.908441 375.164271 
L 187.108436 380.290925 
L 188.5084 380.290925 
L 188.708395 385.176606 
L 190.108359 385.176606 
L 190.308354 389.832641 
L 191.708318 389.832641 
L 191.908313 394.269823 
L 193.308277 394.269823 
L 193.508272 398.49844 
L 194.908236 398.49844 
L 195.108231 402.528295 
L 196.508195 402.528295 
L 196.70819 406.36873 
L 198.108154 406.36873 
L 198.308149 410.02865 
L 199.708113 410.02865 
L 199.908108 413.516539 
L 201.308072 413.516539 
L 201.508067 416.840483 
L 202.908031 416.840483 
L 203.108026 420.008189 
L 204.50799 420.008189 
L 204.707985 423.026999 
L 206.107949 423.026999 
L 206.307944 425.903914 
L 207.707908 425.903914 
L 207.907903 428.645601 
L 209.307867 428.645601 
L 209.507862 431.258419 
L 210.907826 431.258419 
L 211.107821 433.748424 
L 212.507785 433.748424 
L 212.70778 436.121388 
L 214.107744 436.121388 
L 214.307739 438.382814 
L 215.707703 438.382814 
L 215.907698 440.537943 
L 217.307662 440.537943 
L 217.507657 442.591773 
L 218.907621 442.591773 
L 219.107616 444.549065 
L 220.50758 444.549065 
L 220.707575 446.414356 
L 222.107539 446.414356 
L 222.307534 448.191971 
L 223.707499 448.191971 
L 223.907493 449.886031 
L 225.307458 449.886031 
L 225.507452 451.500463 
L 226.907417 451.500463 
L 227.107411 453.039011 
L 228.507376 453.039011 
L 228.707371 454.50524 
L 230.107335 454.50524 
L 230.30733 455.902551 
L 231.707294 455.902551 
L 231.907289 457.234183 
L 233.307253 457.234183 
L 233.507248 458.503223 
L 234.907212 458.503223 
L 235.107207 459.712613 
L 236.507171 459.712613 
L 236.707166 460.865156 
L 238.10713 460.865156 
L 238.307125 461.963526 
L 239.707089 461.963526 
L 239.907084 463.010267 
L 241.307048 463.010267 
L 241.507043 464.007808 
L 242.907007 464.007808 
L 243.107002 464.95846 
L 244.506966 464.95846 
L 244.706961 465.864428 
L 246.106925 465.864428 
L 246.30692 466.727812 
L 247.706884 466.727812 
L 247.906879 467.550613 
L 249.306843 467.550613 
L 249.506838 468.334739 
L 250.906802 468.334739 
L 251.106797 469.082008 
L 252.506761 469.082008 
L 252.706756 469.794153 
L 254.10672 469.794153 
L 254.306715 470.472824 
L 255.706679 470.472824 
L 255.906674 471.119594 
L 257.306638 471.119594 
L 257.506633 471.735964 
L 258.906597 471.735964 
L 259.106592 472.323362 
L 260.506556 472.323362 
L 260.706551 472.88315 
L 262.106515 472.88315 
L 262.30651 473.416625 
L 263.706474 473.416625 
L 263.906469 473.925025 
L 265.306434 473.925025 
L 265.506428 474.409529 
L 266.906393 474.409529 
L 267.106387 474.871258 
L 268.506352 474.871258 
L 268.706346 475.311285 
L 270.106311 475.311285 
L 270.306306 475.730629 
L 271.70627 475.730629 
L 271.906265 476.130261 
L 273.306229 476.130261 
L 273.506224 476.51111 
L 274.906188 476.51111 
L 275.106183 476.874057 
L 276.506147 476.874057 
L 276.706142 477.219944 
L 278.106106 477.219944 
L 278.306101 477.549572 
L 279.706065 477.549572 
L 279.90606 477.863708 
L 281.306024 477.863708 
L 281.506019 478.163077 
L 282.905983 478.163077 
L 283.105978 478.448375 
L 284.505942 478.448375 
L 284.705937 478.720263 
L 286.105901 478.720263 
L 286.305896 478.979371 
L 287.70586 478.979371 
L 287.905855 479.226299 
L 289.305819 479.226299 
L 289.505814 479.461622 
L 290.905778 479.461622 
L 291.105773 479.685883 
L 292.505737 479.685883 
L 292.705732 479.899603 
L 294.105696 479.899603 
L 294.305691 480.103277 
L 295.705655 480.103277 
L 295.90565 480.297377 
L 297.305614 480.297377 
L 297.505609 480.482355 
L 298.905573 480.482355 
L 299.105568 480.658637 
L 300.505532 480.658637 
L 300.705527 480.826634 
L 302.105491 480.826634 
L 302.305486 480.986734 
L 303.70545 480.986734 
L 303.905445 481.139309 
L 305.305409 481.139309 
L 305.505404 481.284712 
L 306.905369 481.284712 
L 307.105363 481.42328 
L 308.505328 481.42328 
L 308.905317 481.555335 
L 310.105287 481.555335 
L 310.505276 481.681184 
L 311.705246 481.681184 
L 312.105235 481.801116 
L 313.305205 481.801116 
L 313.705194 481.915412 
L 316.505123 482.024335 
L 316.905113 482.128138 
L 319.705041 482.227062 
L 320.105031 482.321337 
L 322.904959 482.41118 
L 323.304949 482.4968 
L 326.104877 482.578395 
L 326.504867 482.656155 
L 329.304795 482.730261 
L 329.704785 482.800883 
L 332.504713 482.868185 
L 332.904703 482.932324 
L 335.704631 482.993448 
L 336.104621 483.051699 
L 340.504508 483.160116 
L 341.104493 483.210533 
L 345.304385 483.304369 
L 345.90437 483.348006 
L 350.104263 483.429222 
L 350.704247 483.46699 
L 356.504099 483.569972 
L 357.304078 483.601124 
L 364.503894 483.711762 
L 365.503868 483.73625 
L 374.103648 483.842467 
L 375.503612 483.86081 
L 386.90332 483.967216 
L 388.903269 483.991589 
L 409.302747 484.097408 
L 413.302645 484.115607 
L 511.700125 484.226516 
L 591.498082 484.232168 
L 871.690909 484.232727 
L 871.690909 484.232727 
" style="fill:none;stroke:#bfbbd9;stroke-linecap:square;stroke-width:1.5;"/>
   </g>
   <g id="patch_3">
    <path d="M 126 504 
L 126 69.12 
" style="fill:none;stroke:#ffffff;stroke-linecap:square;stroke-linejoin:miter;stroke-width:0.8;"/>
   </g>
   <g id="patch_4">
    <path d="M 907.2 504 
L 907.2 69.12 
" style="fill:none;stroke:#ffffff;stroke-linecap:square;stroke-linejoin:miter;stroke-width:0.8;"/>
   </g>
   <g id="patch_5">
    <path d="M 126 504 
L 907.2 504 
" style="fill:none;stroke:#ffffff;stroke-linecap:square;stroke-linejoin:miter;stroke-width:0.8;"/>
   </g>
   <g id="patch_6">
    <path d="M 126 69.12 
L 907.2 69.12 
" style="fill:none;stroke:#ffffff;stroke-linecap:square;stroke-linejoin:miter;stroke-width:0.8;"/>
   </g>
   <g id="text_17">
    <!-- instance 8 with error 0.010599191275578956 -->
    <g style="fill:#ffffff;" transform="translate(378.046875 63.12)scale(0.12 -0.12)">
     <defs>
      <path d="M 2834 3397 
L 2834 2853 
Q 2591 2978 2328 3040 
Q 2066 3103 1784 3103 
Q 1356 3103 1142 2972 
Q 928 2841 928 2578 
Q 928 2378 1081 2264 
Q 1234 2150 1697 2047 
L 1894 2003 
Q 2506 1872 2764 1633 
Q 3022 1394 3022 966 
Q 3022 478 2636 193 
Q 2250 -91 1575 -91 
Q 1294 -91 989 -36 
Q 684 19 347 128 
L 347 722 
Q 666 556 975 473 
Q 1284 391 1588 391 
Q 1994 391 2212 530 
Q 2431 669 2431 922 
Q 2431 1156 2273 1281 
Q 2116 1406 1581 1522 
L 1381 1569 
Q 847 1681 609 1914 
Q 372 2147 372 2553 
Q 372 3047 722 3315 
Q 1072 3584 1716 3584 
Q 2034 3584 2315 3537 
Q 2597 3491 2834 3397 
z
" id="DejaVuSans-73" transform="scale(0.015625)"/>
      <path d="M 3122 3366 
L 3122 2828 
Q 2878 2963 2633 3030 
Q 2388 3097 2138 3097 
Q 1578 3097 1268 2742 
Q 959 2388 959 1747 
Q 959 1106 1268 751 
Q 1578 397 2138 397 
Q 2388 397 2633 464 
Q 2878 531 3122 666 
L 3122 134 
Q 2881 22 2623 -34 
Q 2366 -91 2075 -91 
Q 1284 -91 818 406 
Q 353 903 353 1747 
Q 353 2603 823 3093 
Q 1294 3584 2113 3584 
Q 2378 3584 2631 3529 
Q 2884 3475 3122 3366 
z
" id="DejaVuSans-63" transform="scale(0.015625)"/>
      <path id="DejaVuSans-20" transform="scale(0.015625)"/>
      <path d="M 2034 2216 
Q 1584 2216 1326 1975 
Q 1069 1734 1069 1313 
Q 1069 891 1326 650 
Q 1584 409 2034 409 
Q 2484 409 2743 651 
Q 3003 894 3003 1313 
Q 3003 1734 2745 1975 
Q 2488 2216 2034 2216 
z
M 1403 2484 
Q 997 2584 770 2862 
Q 544 3141 544 3541 
Q 544 4100 942 4425 
Q 1341 4750 2034 4750 
Q 2731 4750 3128 4425 
Q 3525 4100 3525 3541 
Q 3525 3141 3298 2862 
Q 3072 2584 2669 2484 
Q 3125 2378 3379 2068 
Q 3634 1759 3634 1313 
Q 3634 634 3220 271 
Q 2806 -91 2034 -91 
Q 1263 -91 848 271 
Q 434 634 434 1313 
Q 434 1759 690 2068 
Q 947 2378 1403 2484 
z
M 1172 3481 
Q 1172 3119 1398 2916 
Q 1625 2713 2034 2713 
Q 2441 2713 2670 2916 
Q 2900 3119 2900 3481 
Q 2900 3844 2670 4047 
Q 2441 4250 2034 4250 
Q 1625 4250 1398 4047 
Q 1172 3844 1172 3481 
z
" id="DejaVuSans-38" transform="scale(0.015625)"/>
      <path d="M 269 3500 
L 844 3500 
L 1563 769 
L 2278 3500 
L 2956 3500 
L 3675 769 
L 4391 3500 
L 4966 3500 
L 4050 0 
L 3372 0 
L 2619 2869 
L 1863 0 
L 1184 0 
L 269 3500 
z
" id="DejaVuSans-77" transform="scale(0.015625)"/>
      <path d="M 3513 2113 
L 3513 0 
L 2938 0 
L 2938 2094 
Q 2938 2591 2744 2837 
Q 2550 3084 2163 3084 
Q 1697 3084 1428 2787 
Q 1159 2491 1159 1978 
L 1159 0 
L 581 0 
L 581 4863 
L 1159 4863 
L 1159 2956 
Q 1366 3272 1645 3428 
Q 1925 3584 2291 3584 
Q 2894 3584 3203 3211 
Q 3513 2838 3513 2113 
z
" id="DejaVuSans-68" transform="scale(0.015625)"/>
      <path d="M 684 794 
L 1344 794 
L 1344 0 
L 684 0 
L 684 794 
z
" id="DejaVuSans-2e" transform="scale(0.015625)"/>
      <path d="M 703 97 
L 703 672 
Q 941 559 1184 500 
Q 1428 441 1663 441 
Q 2288 441 2617 861 
Q 2947 1281 2994 2138 
Q 2813 1869 2534 1725 
Q 2256 1581 1919 1581 
Q 1219 1581 811 2004 
Q 403 2428 403 3163 
Q 403 3881 828 4315 
Q 1253 4750 1959 4750 
Q 2769 4750 3195 4129 
Q 3622 3509 3622 2328 
Q 3622 1225 3098 567 
Q 2575 -91 1691 -91 
Q 1453 -91 1209 -44 
Q 966 3 703 97 
z
M 1959 2075 
Q 2384 2075 2632 2365 
Q 2881 2656 2881 3163 
Q 2881 3666 2632 3958 
Q 2384 4250 1959 4250 
Q 1534 4250 1286 3958 
Q 1038 3666 1038 3163 
Q 1038 2656 1286 2365 
Q 1534 2075 1959 2075 
z
" id="DejaVuSans-39" transform="scale(0.015625)"/>
      <path d="M 525 4666 
L 3525 4666 
L 3525 4397 
L 1831 0 
L 1172 0 
L 2766 4134 
L 525 4134 
L 525 4666 
z
" id="DejaVuSans-37" transform="scale(0.015625)"/>
      <path d="M 2113 2584 
Q 1688 2584 1439 2293 
Q 1191 2003 1191 1497 
Q 1191 994 1439 701 
Q 1688 409 2113 409 
Q 2538 409 2786 701 
Q 3034 994 3034 1497 
Q 3034 2003 2786 2293 
Q 2538 2584 2113 2584 
z
M 3366 4563 
L 3366 3988 
Q 3128 4100 2886 4159 
Q 2644 4219 2406 4219 
Q 1781 4219 1451 3797 
Q 1122 3375 1075 2522 
Q 1259 2794 1537 2939 
Q 1816 3084 2150 3084 
Q 2853 3084 3261 2657 
Q 3669 2231 3669 1497 
Q 3669 778 3244 343 
Q 2819 -91 2113 -91 
Q 1303 -91 875 529 
Q 447 1150 447 2328 
Q 447 3434 972 4092 
Q 1497 4750 2381 4750 
Q 2619 4750 2861 4703 
Q 3103 4656 3366 4563 
z
" id="DejaVuSans-36" transform="scale(0.015625)"/>
     </defs>
     <use xlink:href="#DejaVuSans-69"/>
     <use x="27.783203" xlink:href="#DejaVuSans-6e"/>
     <use x="91.162109" xlink:href="#DejaVuSans-73"/>
     <use x="143.261719" xlink:href="#DejaVuSans-74"/>
     <use x="182.470703" xlink:href="#DejaVuSans-61"/>
     <use x="243.75" xlink:href="#DejaVuSans-6e"/>
     <use x="307.128906" xlink:href="#DejaVuSans-63"/>
     <use x="362.109375" xlink:href="#DejaVuSans-65"/>
     <use x="423.632812" xlink:href="#DejaVuSans-20"/>
     <use x="455.419922" xlink:href="#DejaVuSans-38"/>
     <use x="519.042969" xlink:href="#DejaVuSans-20"/>
     <use x="550.830078" xlink:href="#DejaVuSans-77"/>
     <use x="632.617188" xlink:href="#DejaVuSans-69"/>
     <use x="660.400391" xlink:href="#DejaVuSans-74"/>
     <use x="699.609375" xlink:href="#DejaVuSans-68"/>
     <use x="762.988281" xlink:href="#DejaVuSans-20"/>
     <use x="794.775391" xlink:href="#DejaVuSans-65"/>
     <use x="856.298828" xlink:href="#DejaVuSans-72"/>
     <use x="895.662109" xlink:href="#DejaVuSans-72"/>
     <use x="934.525391" xlink:href="#DejaVuSans-6f"/>
     <use x="995.707031" xlink:href="#DejaVuSans-72"/>
     <use x="1036.820312" xlink:href="#DejaVuSans-20"/>
     <use x="1068.607422" xlink:href="#DejaVuSans-30"/>
     <use x="1132.230469" xlink:href="#DejaVuSans-2e"/>
     <use x="1164.017578" xlink:href="#DejaVuSans-30"/>
     <use x="1227.640625" xlink:href="#DejaVuSans-31"/>
     <use x="1291.263672" xlink:href="#DejaVuSans-30"/>
     <use x="1354.886719" xlink:href="#DejaVuSans-35"/>
     <use x="1418.509766" xlink:href="#DejaVuSans-39"/>
     <use x="1482.132812" xlink:href="#DejaVuSans-39"/>
     <use x="1545.755859" xlink:href="#DejaVuSans-31"/>
     <use x="1609.378906" xlink:href="#DejaVuSans-39"/>
     <use x="1673.001953" xlink:href="#DejaVuSans-31"/>
     <use x="1736.625" xlink:href="#DejaVuSans-32"/>
     <use x="1800.248047" xlink:href="#DejaVuSans-37"/>
     <use x="1863.871094" xlink:href="#DejaVuSans-35"/>
     <use x="1927.494141" xlink:href="#DejaVuSans-35"/>
     <use x="1991.117188" xlink:href="#DejaVuSans-37"/>
     <use x="2054.740234" xlink:href="#DejaVuSans-38"/>
     <use x="2118.363281" xlink:href="#DejaVuSans-39"/>
     <use x="2181.986328" xlink:href="#DejaVuSans-35"/>
     <use x="2245.609375" xlink:href="#DejaVuSans-36"/>
    </g>
   </g>
   <g id="legend_1">
    <g id="patch_7">
     <path d="M 805.348438 499 
L 900.2 499 
Q 902.2 499 902.2 497 
L 902.2 453.965625 
Q 902.2 451.965625 900.2 451.965625 
L 805.348438 451.965625 
Q 803.348438 451.965625 803.348438 453.965625 
L 803.348438 497 
Q 803.348438 499 805.348438 499 
z
" style="opacity:0.8;stroke:#cccccc;stroke-linejoin:miter;"/>
    </g>
    <g id="line2d_19">
     <path d="M 807.348438 460.064062 
L 827.348438 460.064062 
" style="fill:none;stroke:#8dd3c7;stroke-linecap:square;stroke-width:1.5;"/>
    </g>
    <g id="line2d_20"/>
    <g id="text_18">
     <!-- cost -->
     <g style="fill:#ffffff;" transform="translate(835.348438 463.564062)scale(0.1 -0.1)">
      <use xlink:href="#DejaVuSans-63"/>
      <use x="54.980469" xlink:href="#DejaVuSans-6f"/>
      <use x="116.162109" xlink:href="#DejaVuSans-73"/>
      <use x="168.261719" xlink:href="#DejaVuSans-74"/>
     </g>
    </g>
    <g id="line2d_21">
     <path d="M 807.348438 474.742188 
L 827.348438 474.742188 
" style="fill:none;stroke:#feffb3;stroke-linecap:square;stroke-width:1.5;"/>
    </g>
    <g id="line2d_22"/>
    <g id="text_19">
     <!-- best cost -->
     <g style="fill:#ffffff;" transform="translate(835.348438 478.242188)scale(0.1 -0.1)">
      <defs>
       <path d="M 3116 1747 
Q 3116 2381 2855 2742 
Q 2594 3103 2138 3103 
Q 1681 3103 1420 2742 
Q 1159 2381 1159 1747 
Q 1159 1113 1420 752 
Q 1681 391 2138 391 
Q 2594 391 2855 752 
Q 3116 1113 3116 1747 
z
M 1159 2969 
Q 1341 3281 1617 3432 
Q 1894 3584 2278 3584 
Q 2916 3584 3314 3078 
Q 3713 2572 3713 1747 
Q 3713 922 3314 415 
Q 2916 -91 2278 -91 
Q 1894 -91 1617 61 
Q 1341 213 1159 525 
L 1159 0 
L 581 0 
L 581 4863 
L 1159 4863 
L 1159 2969 
z
" id="DejaVuSans-62" transform="scale(0.015625)"/>
      </defs>
      <use xlink:href="#DejaVuSans-62"/>
      <use x="63.476562" xlink:href="#DejaVuSans-65"/>
      <use x="125" xlink:href="#DejaVuSans-73"/>
      <use x="177.099609" xlink:href="#DejaVuSans-74"/>
      <use x="216.308594" xlink:href="#DejaVuSans-20"/>
      <use x="248.095703" xlink:href="#DejaVuSans-63"/>
      <use x="303.076172" xlink:href="#DejaVuSans-6f"/>
      <use x="364.257812" xlink:href="#DejaVuSans-73"/>
      <use x="416.357422" xlink:href="#DejaVuSans-74"/>
     </g>
    </g>
    <g id="line2d_23">
     <path d="M 807.348438 489.420313 
L 827.348438 489.420313 
" style="fill:none;stroke:#bfbbd9;stroke-linecap:square;stroke-width:1.5;"/>
    </g>
    <g id="line2d_24"/>
    <g id="text_20">
     <!-- temperature -->
     <g style="fill:#ffffff;" transform="translate(835.348438 492.920313)scale(0.1 -0.1)">
      <defs>
       <path d="M 3328 2828 
Q 3544 3216 3844 3400 
Q 4144 3584 4550 3584 
Q 5097 3584 5394 3201 
Q 5691 2819 5691 2113 
L 5691 0 
L 5113 0 
L 5113 2094 
Q 5113 2597 4934 2840 
Q 4756 3084 4391 3084 
Q 3944 3084 3684 2787 
Q 3425 2491 3425 1978 
L 3425 0 
L 2847 0 
L 2847 2094 
Q 2847 2600 2669 2842 
Q 2491 3084 2119 3084 
Q 1678 3084 1418 2786 
Q 1159 2488 1159 1978 
L 1159 0 
L 581 0 
L 581 3500 
L 1159 3500 
L 1159 2956 
Q 1356 3278 1631 3431 
Q 1906 3584 2284 3584 
Q 2666 3584 2933 3390 
Q 3200 3197 3328 2828 
z
" id="DejaVuSans-6d" transform="scale(0.015625)"/>
       <path d="M 1159 525 
L 1159 -1331 
L 581 -1331 
L 581 3500 
L 1159 3500 
L 1159 2969 
Q 1341 3281 1617 3432 
Q 1894 3584 2278 3584 
Q 2916 3584 3314 3078 
Q 3713 2572 3713 1747 
Q 3713 922 3314 415 
Q 2916 -91 2278 -91 
Q 1894 -91 1617 61 
Q 1341 213 1159 525 
z
M 3116 1747 
Q 3116 2381 2855 2742 
Q 2594 3103 2138 3103 
Q 1681 3103 1420 2742 
Q 1159 2381 1159 1747 
Q 1159 1113 1420 752 
Q 1681 391 2138 391 
Q 2594 391 2855 752 
Q 3116 1113 3116 1747 
z
" id="DejaVuSans-70" transform="scale(0.015625)"/>
       <path d="M 544 1381 
L 544 3500 
L 1119 3500 
L 1119 1403 
Q 1119 906 1312 657 
Q 1506 409 1894 409 
Q 2359 409 2629 706 
Q 2900 1003 2900 1516 
L 2900 3500 
L 3475 3500 
L 3475 0 
L 2900 0 
L 2900 538 
Q 2691 219 2414 64 
Q 2138 -91 1772 -91 
Q 1169 -91 856 284 
Q 544 659 544 1381 
z
M 1991 3584 
L 1991 3584 
z
" id="DejaVuSans-75" transform="scale(0.015625)"/>
      </defs>
      <use xlink:href="#DejaVuSans-74"/>
      <use x="39.208984" xlink:href="#DejaVuSans-65"/>
      <use x="100.732422" xlink:href="#DejaVuSans-6d"/>
      <use x="198.144531" xlink:href="#DejaVuSans-70"/>
      <use x="261.621094" xlink:href="#DejaVuSans-65"/>
      <use x="323.144531" xlink:href="#DejaVuSans-72"/>
      <use x="364.257812" xlink:href="#DejaVuSans-61"/>
      <use x="425.537109" xlink:href="#DejaVuSans-74"/>
      <use x="464.746094" xlink:href="#DejaVuSans-75"/>
      <use x="528.125" xlink:href="#DejaVuSans-72"/>
      <use x="566.988281" xlink:href="#DejaVuSans-65"/>
     </g>
    </g>
   </g>
  </g>
 </g>
 <defs>
  <clipPath id="p079ee7aa4a">
   <rect height="434.88" width="781.2" x="126" y="69.12"/>
  </clipPath>
 </defs>
</svg>
