<?xml version="1.0" encoding="utf-8" standalone="no"?>
<!DOCTYPE svg PUBLIC "-//W3C//DTD SVG 1.1//EN"
  "http://www.w3.org/Graphics/SVG/1.1/DTD/svg11.dtd">
<svg height="576pt" version="1.1" viewBox="0 0 1008 576" width="1008pt" xmlns="http://www.w3.org/2000/svg" xmlns:xlink="http://www.w3.org/1999/xlink">
 <metadata>
  <rdf:RDF xmlns:cc="http://creativecommons.org/ns#" xmlns:dc="http://purl.org/dc/elements/1.1/" xmlns:rdf="http://www.w3.org/1999/02/22-rdf-syntax-ns#">
   <cc:Work>
    <dc:type rdf:resource="http://purl.org/dc/dcmitype/StillImage"/>
    <dc:date>2022-01-08T03:46:40.440215</dc:date>
    <dc:format>image/svg+xml</dc:format>
    <dc:creator>
     <cc:Agent>
      <dc:title>Matplotlib v3.4.3, https://matplotlib.org/</dc:title>
     </cc:Agent>
    </dc:creator>
   </cc:Work>
  </rdf:RDF>
 </metadata>
 <defs>
  <style type="text/css">*{stroke-linecap:butt;stroke-linejoin:round;}</style>
 </defs>
 <g id="figure_1">
  <g id="patch_1">
   <path d="M 0 576 
L 1008 576 
L 1008 0 
L 0 0 
z
"/>
  </g>
  <g id="axes_1">
   <g id="patch_2">
    <path d="M 126 504 
L 907.2 504 
L 907.2 69.12 
L 126 69.12 
z
"/>
   </g>
   <g id="matplotlib.axis_1">
    <g id="xtick_1">
     <g id="line2d_1">
      <defs>
       <path d="M 0 0 
L 0 3.5 
" id="ma6b964ccd2" style="stroke:#ffffff;stroke-width:0.8;"/>
      </defs>
      <g>
       <use style="fill:#ffffff;stroke:#ffffff;stroke-width:0.8;" x="161.509091" xlink:href="#ma6b964ccd2" y="504"/>
      </g>
     </g>
     <g id="text_1">
      <!-- 0 -->
      <g style="fill:#ffffff;" transform="translate(158.327841 518.598438)scale(0.1 -0.1)">
       <defs>
        <path d="M 2034 4250 
Q 1547 4250 1301 3770 
Q 1056 3291 1056 2328 
Q 1056 1369 1301 889 
Q 1547 409 2034 409 
Q 2525 409 2770 889 
Q 3016 1369 3016 2328 
Q 3016 3291 2770 3770 
Q 2525 4250 2034 4250 
z
M 2034 4750 
Q 2819 4750 3233 4129 
Q 3647 3509 3647 2328 
Q 3647 1150 3233 529 
Q 2819 -91 2034 -91 
Q 1250 -91 836 529 
Q 422 1150 422 2328 
Q 422 3509 836 4129 
Q 1250 4750 2034 4750 
z
" id="DejaVuSans-30" transform="scale(0.015625)"/>
       </defs>
       <use xlink:href="#DejaVuSans-30"/>
      </g>
     </g>
    </g>
    <g id="xtick_2">
     <g id="line2d_2">
      <g>
       <use style="fill:#ffffff;stroke:#ffffff;stroke-width:0.8;" x="268.319411" xlink:href="#ma6b964ccd2" y="504"/>
      </g>
     </g>
     <g id="text_2">
      <!-- 1000 -->
      <g style="fill:#ffffff;" transform="translate(255.594411 518.598438)scale(0.1 -0.1)">
       <defs>
        <path d="M 794 531 
L 1825 531 
L 1825 4091 
L 703 3866 
L 703 4441 
L 1819 4666 
L 2450 4666 
L 2450 531 
L 3481 531 
L 3481 0 
L 794 0 
L 794 531 
z
" id="DejaVuSans-31" transform="scale(0.015625)"/>
       </defs>
       <use xlink:href="#DejaVuSans-31"/>
       <use x="63.623047" xlink:href="#DejaVuSans-30"/>
       <use x="127.246094" xlink:href="#DejaVuSans-30"/>
       <use x="190.869141" xlink:href="#DejaVuSans-30"/>
      </g>
     </g>
    </g>
    <g id="xtick_3">
     <g id="line2d_3">
      <g>
       <use style="fill:#ffffff;stroke:#ffffff;stroke-width:0.8;" x="375.129731" xlink:href="#ma6b964ccd2" y="504"/>
      </g>
     </g>
     <g id="text_3">
      <!-- 2000 -->
      <g style="fill:#ffffff;" transform="translate(362.404731 518.598438)scale(0.1 -0.1)">
       <defs>
        <path d="M 1228 531 
L 3431 531 
L 3431 0 
L 469 0 
L 469 531 
Q 828 903 1448 1529 
Q 2069 2156 2228 2338 
Q 2531 2678 2651 2914 
Q 2772 3150 2772 3378 
Q 2772 3750 2511 3984 
Q 2250 4219 1831 4219 
Q 1534 4219 1204 4116 
Q 875 4013 500 3803 
L 500 4441 
Q 881 4594 1212 4672 
Q 1544 4750 1819 4750 
Q 2544 4750 2975 4387 
Q 3406 4025 3406 3419 
Q 3406 3131 3298 2873 
Q 3191 2616 2906 2266 
Q 2828 2175 2409 1742 
Q 1991 1309 1228 531 
z
" id="DejaVuSans-32" transform="scale(0.015625)"/>
       </defs>
       <use xlink:href="#DejaVuSans-32"/>
       <use x="63.623047" xlink:href="#DejaVuSans-30"/>
       <use x="127.246094" xlink:href="#DejaVuSans-30"/>
       <use x="190.869141" xlink:href="#DejaVuSans-30"/>
      </g>
     </g>
    </g>
    <g id="xtick_4">
     <g id="line2d_4">
      <g>
       <use style="fill:#ffffff;stroke:#ffffff;stroke-width:0.8;" x="481.940051" xlink:href="#ma6b964ccd2" y="504"/>
      </g>
     </g>
     <g id="text_4">
      <!-- 3000 -->
      <g style="fill:#ffffff;" transform="translate(469.215051 518.598438)scale(0.1 -0.1)">
       <defs>
        <path d="M 2597 2516 
Q 3050 2419 3304 2112 
Q 3559 1806 3559 1356 
Q 3559 666 3084 287 
Q 2609 -91 1734 -91 
Q 1441 -91 1130 -33 
Q 819 25 488 141 
L 488 750 
Q 750 597 1062 519 
Q 1375 441 1716 441 
Q 2309 441 2620 675 
Q 2931 909 2931 1356 
Q 2931 1769 2642 2001 
Q 2353 2234 1838 2234 
L 1294 2234 
L 1294 2753 
L 1863 2753 
Q 2328 2753 2575 2939 
Q 2822 3125 2822 3475 
Q 2822 3834 2567 4026 
Q 2313 4219 1838 4219 
Q 1578 4219 1281 4162 
Q 984 4106 628 3988 
L 628 4550 
Q 988 4650 1302 4700 
Q 1616 4750 1894 4750 
Q 2613 4750 3031 4423 
Q 3450 4097 3450 3541 
Q 3450 3153 3228 2886 
Q 3006 2619 2597 2516 
z
" id="DejaVuSans-33" transform="scale(0.015625)"/>
       </defs>
       <use xlink:href="#DejaVuSans-33"/>
       <use x="63.623047" xlink:href="#DejaVuSans-30"/>
       <use x="127.246094" xlink:href="#DejaVuSans-30"/>
       <use x="190.869141" xlink:href="#DejaVuSans-30"/>
      </g>
     </g>
    </g>
    <g id="xtick_5">
     <g id="line2d_5">
      <g>
       <use style="fill:#ffffff;stroke:#ffffff;stroke-width:0.8;" x="588.750371" xlink:href="#ma6b964ccd2" y="504"/>
      </g>
     </g>
     <g id="text_5">
      <!-- 4000 -->
      <g style="fill:#ffffff;" transform="translate(576.025371 518.598438)scale(0.1 -0.1)">
       <defs>
        <path d="M 2419 4116 
L 825 1625 
L 2419 1625 
L 2419 4116 
z
M 2253 4666 
L 3047 4666 
L 3047 1625 
L 3713 1625 
L 3713 1100 
L 3047 1100 
L 3047 0 
L 2419 0 
L 2419 1100 
L 313 1100 
L 313 1709 
L 2253 4666 
z
" id="DejaVuSans-34" transform="scale(0.015625)"/>
       </defs>
       <use xlink:href="#DejaVuSans-34"/>
       <use x="63.623047" xlink:href="#DejaVuSans-30"/>
       <use x="127.246094" xlink:href="#DejaVuSans-30"/>
       <use x="190.869141" xlink:href="#DejaVuSans-30"/>
      </g>
     </g>
    </g>
    <g id="xtick_6">
     <g id="line2d_6">
      <g>
       <use style="fill:#ffffff;stroke:#ffffff;stroke-width:0.8;" x="695.560691" xlink:href="#ma6b964ccd2" y="504"/>
      </g>
     </g>
     <g id="text_6">
      <!-- 5000 -->
      <g style="fill:#ffffff;" transform="translate(682.835691 518.598438)scale(0.1 -0.1)">
       <defs>
        <path d="M 691 4666 
L 3169 4666 
L 3169 4134 
L 1269 4134 
L 1269 2991 
Q 1406 3038 1543 3061 
Q 1681 3084 1819 3084 
Q 2600 3084 3056 2656 
Q 3513 2228 3513 1497 
Q 3513 744 3044 326 
Q 2575 -91 1722 -91 
Q 1428 -91 1123 -41 
Q 819 9 494 109 
L 494 744 
Q 775 591 1075 516 
Q 1375 441 1709 441 
Q 2250 441 2565 725 
Q 2881 1009 2881 1497 
Q 2881 1984 2565 2268 
Q 2250 2553 1709 2553 
Q 1456 2553 1204 2497 
Q 953 2441 691 2322 
L 691 4666 
z
" id="DejaVuSans-35" transform="scale(0.015625)"/>
       </defs>
       <use xlink:href="#DejaVuSans-35"/>
       <use x="63.623047" xlink:href="#DejaVuSans-30"/>
       <use x="127.246094" xlink:href="#DejaVuSans-30"/>
       <use x="190.869141" xlink:href="#DejaVuSans-30"/>
      </g>
     </g>
    </g>
    <g id="xtick_7">
     <g id="line2d_7">
      <g>
       <use style="fill:#ffffff;stroke:#ffffff;stroke-width:0.8;" x="802.371011" xlink:href="#ma6b964ccd2" y="504"/>
      </g>
     </g>
     <g id="text_7">
      <!-- 6000 -->
      <g style="fill:#ffffff;" transform="translate(789.646011 518.598438)scale(0.1 -0.1)">
       <defs>
        <path d="M 2113 2584 
Q 1688 2584 1439 2293 
Q 1191 2003 1191 1497 
Q 1191 994 1439 701 
Q 1688 409 2113 409 
Q 2538 409 2786 701 
Q 3034 994 3034 1497 
Q 3034 2003 2786 2293 
Q 2538 2584 2113 2584 
z
M 3366 4563 
L 3366 3988 
Q 3128 4100 2886 4159 
Q 2644 4219 2406 4219 
Q 1781 4219 1451 3797 
Q 1122 3375 1075 2522 
Q 1259 2794 1537 2939 
Q 1816 3084 2150 3084 
Q 2853 3084 3261 2657 
Q 3669 2231 3669 1497 
Q 3669 778 3244 343 
Q 2819 -91 2113 -91 
Q 1303 -91 875 529 
Q 447 1150 447 2328 
Q 447 3434 972 4092 
Q 1497 4750 2381 4750 
Q 2619 4750 2861 4703 
Q 3103 4656 3366 4563 
z
" id="DejaVuSans-36" transform="scale(0.015625)"/>
       </defs>
       <use xlink:href="#DejaVuSans-36"/>
       <use x="63.623047" xlink:href="#DejaVuSans-30"/>
       <use x="127.246094" xlink:href="#DejaVuSans-30"/>
       <use x="190.869141" xlink:href="#DejaVuSans-30"/>
      </g>
     </g>
    </g>
    <g id="text_8">
     <!-- iteration -->
     <g style="fill:#ffffff;" transform="translate(495.477344 532.276562)scale(0.1 -0.1)">
      <defs>
       <path d="M 603 3500 
L 1178 3500 
L 1178 0 
L 603 0 
L 603 3500 
z
M 603 4863 
L 1178 4863 
L 1178 4134 
L 603 4134 
L 603 4863 
z
" id="DejaVuSans-69" transform="scale(0.015625)"/>
       <path d="M 1172 4494 
L 1172 3500 
L 2356 3500 
L 2356 3053 
L 1172 3053 
L 1172 1153 
Q 1172 725 1289 603 
Q 1406 481 1766 481 
L 2356 481 
L 2356 0 
L 1766 0 
Q 1100 0 847 248 
Q 594 497 594 1153 
L 594 3053 
L 172 3053 
L 172 3500 
L 594 3500 
L 594 4494 
L 1172 4494 
z
" id="DejaVuSans-74" transform="scale(0.015625)"/>
       <path d="M 3597 1894 
L 3597 1613 
L 953 1613 
Q 991 1019 1311 708 
Q 1631 397 2203 397 
Q 2534 397 2845 478 
Q 3156 559 3463 722 
L 3463 178 
Q 3153 47 2828 -22 
Q 2503 -91 2169 -91 
Q 1331 -91 842 396 
Q 353 884 353 1716 
Q 353 2575 817 3079 
Q 1281 3584 2069 3584 
Q 2775 3584 3186 3129 
Q 3597 2675 3597 1894 
z
M 3022 2063 
Q 3016 2534 2758 2815 
Q 2500 3097 2075 3097 
Q 1594 3097 1305 2825 
Q 1016 2553 972 2059 
L 3022 2063 
z
" id="DejaVuSans-65" transform="scale(0.015625)"/>
       <path d="M 2631 2963 
Q 2534 3019 2420 3045 
Q 2306 3072 2169 3072 
Q 1681 3072 1420 2755 
Q 1159 2438 1159 1844 
L 1159 0 
L 581 0 
L 581 3500 
L 1159 3500 
L 1159 2956 
Q 1341 3275 1631 3429 
Q 1922 3584 2338 3584 
Q 2397 3584 2469 3576 
Q 2541 3569 2628 3553 
L 2631 2963 
z
" id="DejaVuSans-72" transform="scale(0.015625)"/>
       <path d="M 2194 1759 
Q 1497 1759 1228 1600 
Q 959 1441 959 1056 
Q 959 750 1161 570 
Q 1363 391 1709 391 
Q 2188 391 2477 730 
Q 2766 1069 2766 1631 
L 2766 1759 
L 2194 1759 
z
M 3341 1997 
L 3341 0 
L 2766 0 
L 2766 531 
Q 2569 213 2275 61 
Q 1981 -91 1556 -91 
Q 1019 -91 701 211 
Q 384 513 384 1019 
Q 384 1609 779 1909 
Q 1175 2209 1959 2209 
L 2766 2209 
L 2766 2266 
Q 2766 2663 2505 2880 
Q 2244 3097 1772 3097 
Q 1472 3097 1187 3025 
Q 903 2953 641 2809 
L 641 3341 
Q 956 3463 1253 3523 
Q 1550 3584 1831 3584 
Q 2591 3584 2966 3190 
Q 3341 2797 3341 1997 
z
" id="DejaVuSans-61" transform="scale(0.015625)"/>
       <path d="M 1959 3097 
Q 1497 3097 1228 2736 
Q 959 2375 959 1747 
Q 959 1119 1226 758 
Q 1494 397 1959 397 
Q 2419 397 2687 759 
Q 2956 1122 2956 1747 
Q 2956 2369 2687 2733 
Q 2419 3097 1959 3097 
z
M 1959 3584 
Q 2709 3584 3137 3096 
Q 3566 2609 3566 1747 
Q 3566 888 3137 398 
Q 2709 -91 1959 -91 
Q 1206 -91 779 398 
Q 353 888 353 1747 
Q 353 2609 779 3096 
Q 1206 3584 1959 3584 
z
" id="DejaVuSans-6f" transform="scale(0.015625)"/>
       <path d="M 3513 2113 
L 3513 0 
L 2938 0 
L 2938 2094 
Q 2938 2591 2744 2837 
Q 2550 3084 2163 3084 
Q 1697 3084 1428 2787 
Q 1159 2491 1159 1978 
L 1159 0 
L 581 0 
L 581 3500 
L 1159 3500 
L 1159 2956 
Q 1366 3272 1645 3428 
Q 1925 3584 2291 3584 
Q 2894 3584 3203 3211 
Q 3513 2838 3513 2113 
z
" id="DejaVuSans-6e" transform="scale(0.015625)"/>
      </defs>
      <use xlink:href="#DejaVuSans-69"/>
      <use x="27.783203" xlink:href="#DejaVuSans-74"/>
      <use x="66.992188" xlink:href="#DejaVuSans-65"/>
      <use x="128.515625" xlink:href="#DejaVuSans-72"/>
      <use x="169.628906" xlink:href="#DejaVuSans-61"/>
      <use x="230.908203" xlink:href="#DejaVuSans-74"/>
      <use x="270.117188" xlink:href="#DejaVuSans-69"/>
      <use x="297.900391" xlink:href="#DejaVuSans-6f"/>
      <use x="359.082031" xlink:href="#DejaVuSans-6e"/>
     </g>
    </g>
   </g>
   <g id="matplotlib.axis_2">
    <g id="ytick_1">
     <g id="line2d_8">
      <defs>
       <path d="M 0 0 
L -3.5 0 
" id="madbeccd9a8" style="stroke:#ffffff;stroke-width:0.8;"/>
      </defs>
      <g>
       <use style="fill:#ffffff;stroke:#ffffff;stroke-width:0.8;" x="126" xlink:href="#madbeccd9a8" y="484.232727"/>
      </g>
     </g>
     <g id="text_9">
      <!-- 0.0 -->
      <g style="fill:#ffffff;" transform="translate(103.096875 488.031946)scale(0.1 -0.1)">
       <defs>
        <path d="M 684 794 
L 1344 794 
L 1344 0 
L 684 0 
L 684 794 
z
" id="DejaVuSans-2e" transform="scale(0.015625)"/>
       </defs>
       <use xlink:href="#DejaVuSans-30"/>
       <use x="63.623047" xlink:href="#DejaVuSans-2e"/>
       <use x="95.410156" xlink:href="#DejaVuSans-30"/>
      </g>
     </g>
    </g>
    <g id="ytick_2">
     <g id="line2d_9">
      <g>
       <use style="fill:#ffffff;stroke:#ffffff;stroke-width:0.8;" x="126" xlink:href="#madbeccd9a8" y="431.104895"/>
      </g>
     </g>
     <g id="text_10">
      <!-- 0.5 -->
      <g style="fill:#ffffff;" transform="translate(103.096875 434.904113)scale(0.1 -0.1)">
       <use xlink:href="#DejaVuSans-30"/>
       <use x="63.623047" xlink:href="#DejaVuSans-2e"/>
       <use x="95.410156" xlink:href="#DejaVuSans-35"/>
      </g>
     </g>
    </g>
    <g id="ytick_3">
     <g id="line2d_10">
      <g>
       <use style="fill:#ffffff;stroke:#ffffff;stroke-width:0.8;" x="126" xlink:href="#madbeccd9a8" y="377.977062"/>
      </g>
     </g>
     <g id="text_11">
      <!-- 1.0 -->
      <g style="fill:#ffffff;" transform="translate(103.096875 381.776281)scale(0.1 -0.1)">
       <use xlink:href="#DejaVuSans-31"/>
       <use x="63.623047" xlink:href="#DejaVuSans-2e"/>
       <use x="95.410156" xlink:href="#DejaVuSans-30"/>
      </g>
     </g>
    </g>
    <g id="ytick_4">
     <g id="line2d_11">
      <g>
       <use style="fill:#ffffff;stroke:#ffffff;stroke-width:0.8;" x="126" xlink:href="#madbeccd9a8" y="324.849229"/>
      </g>
     </g>
     <g id="text_12">
      <!-- 1.5 -->
      <g style="fill:#ffffff;" transform="translate(103.096875 328.648448)scale(0.1 -0.1)">
       <use xlink:href="#DejaVuSans-31"/>
       <use x="63.623047" xlink:href="#DejaVuSans-2e"/>
       <use x="95.410156" xlink:href="#DejaVuSans-35"/>
      </g>
     </g>
    </g>
    <g id="ytick_5">
     <g id="line2d_12">
      <g>
       <use style="fill:#ffffff;stroke:#ffffff;stroke-width:0.8;" x="126" xlink:href="#madbeccd9a8" y="271.721396"/>
      </g>
     </g>
     <g id="text_13">
      <!-- 2.0 -->
      <g style="fill:#ffffff;" transform="translate(103.096875 275.520615)scale(0.1 -0.1)">
       <use xlink:href="#DejaVuSans-32"/>
       <use x="63.623047" xlink:href="#DejaVuSans-2e"/>
       <use x="95.410156" xlink:href="#DejaVuSans-30"/>
      </g>
     </g>
    </g>
    <g id="ytick_6">
     <g id="line2d_13">
      <g>
       <use style="fill:#ffffff;stroke:#ffffff;stroke-width:0.8;" x="126" xlink:href="#madbeccd9a8" y="218.593564"/>
      </g>
     </g>
     <g id="text_14">
      <!-- 2.5 -->
      <g style="fill:#ffffff;" transform="translate(103.096875 222.392782)scale(0.1 -0.1)">
       <use xlink:href="#DejaVuSans-32"/>
       <use x="63.623047" xlink:href="#DejaVuSans-2e"/>
       <use x="95.410156" xlink:href="#DejaVuSans-35"/>
      </g>
     </g>
    </g>
    <g id="ytick_7">
     <g id="line2d_14">
      <g>
       <use style="fill:#ffffff;stroke:#ffffff;stroke-width:0.8;" x="126" xlink:href="#madbeccd9a8" y="165.465731"/>
      </g>
     </g>
     <g id="text_15">
      <!-- 3.0 -->
      <g style="fill:#ffffff;" transform="translate(103.096875 169.26495)scale(0.1 -0.1)">
       <use xlink:href="#DejaVuSans-33"/>
       <use x="63.623047" xlink:href="#DejaVuSans-2e"/>
       <use x="95.410156" xlink:href="#DejaVuSans-30"/>
      </g>
     </g>
    </g>
    <g id="ytick_8">
     <g id="line2d_15">
      <g>
       <use style="fill:#ffffff;stroke:#ffffff;stroke-width:0.8;" x="126" xlink:href="#madbeccd9a8" y="112.337898"/>
      </g>
     </g>
     <g id="text_16">
      <!-- 3.5 -->
      <g style="fill:#ffffff;" transform="translate(103.096875 116.137117)scale(0.1 -0.1)">
       <use xlink:href="#DejaVuSans-33"/>
       <use x="63.623047" xlink:href="#DejaVuSans-2e"/>
       <use x="95.410156" xlink:href="#DejaVuSans-35"/>
      </g>
     </g>
    </g>
    <g id="text_17">
     <!-- 1e6 -->
     <g style="fill:#ffffff;" transform="translate(126 66.12)scale(0.1 -0.1)">
      <use xlink:href="#DejaVuSans-31"/>
      <use x="63.623047" xlink:href="#DejaVuSans-65"/>
      <use x="125.146484" xlink:href="#DejaVuSans-36"/>
     </g>
    </g>
   </g>
   <g id="line2d_16">
    <path clip-path="url(#p2a8701038d)" d="M 161.509091 480.279273 
L 161.722712 480.569138 
L 162.149953 481.149188 
L 162.363573 481.482193 
L 162.577194 481.259162 
L 162.684004 482.547831 
L 162.897625 482.262535 
L 163.004435 482.218651 
L 163.111246 481.979788 
L 163.218056 482.023247 
L 163.645297 481.584942 
L 163.858918 481.409195 
L 163.965728 481.453079 
L 164.286159 481.16332 
L 164.49978 481.358724 
L 164.60659 481.119755 
L 164.713401 481.196365 
L 164.927021 482.690001 
L 165.033831 482.737498 
L 165.140642 482.53423 
L 165.247452 482.626992 
L 165.354262 482.547619 
L 165.674693 482.750886 
L 165.781504 482.511917 
L 165.888314 482.750886 
L 166.101935 482.357952 
L 166.208745 482.434563 
L 166.422366 482.716884 
L 166.742797 482.323419 
L 167.8109 481.355536 
L 168.131331 481.517789 
L 168.451762 481.392832 
L 168.985813 481.786403 
L 169.092624 481.790972 
L 169.306244 481.333541 
L 169.840296 481.924748 
L 169.947106 481.770677 
L 170.160727 482.163717 
L 170.267537 482.120258 
L 170.374347 482.241496 
L 170.587968 482.085513 
L 170.694778 482.264235 
L 170.801589 482.036635 
L 171.015209 482.394611 
L 171.549261 481.392407 
L 171.869692 481.782259 
L 172.083313 481.752083 
L 172.296933 482.142785 
L 172.403744 481.921348 
L 172.617364 482.036423 
L 172.724175 481.943661 
L 172.937795 482.298874 
L 173.044605 482.261472 
L 173.151416 482.025478 
L 173.365036 482.500441 
L 173.578657 482.300787 
L 173.792278 482.637405 
L 173.899088 482.840672 
L 174.112709 482.544006 
L 174.326329 482.678313 
L 174.43314 482.536356 
L 174.753571 483.03682 
L 174.860381 482.800826 
L 175.074002 482.97126 
L 175.287622 482.670982 
L 175.501243 483.051908 
L 175.714863 482.753861 
L 175.928484 482.526899 
L 176.035294 482.424256 
L 176.142105 482.481953 
L 176.676156 481.76037 
L 177.103398 481.196472 
L 177.423829 481.47858 
L 177.637449 481.225692 
L 178.064691 481.550409 
L 178.278311 481.42524 
L 178.598742 481.817749 
L 179.346414 481.113167 
L 179.560035 481.381038 
L 179.773656 481.401014 
L 179.880466 482.40598 
L 179.987276 482.362521 
L 180.094087 482.531787 
L 180.307707 482.253503 
L 180.521328 482.438919 
L 180.628138 482.333195 
L 180.841759 482.53168 
L 180.948569 482.295686 
L 181.269 482.388766 
L 181.37581 482.592034 
L 181.589431 482.422981 
L 181.696241 482.62646 
L 181.909862 482.450714 
L 182.016672 482.619979 
L 182.123483 482.478021 
L 182.230293 482.52148 
L 182.443914 482.252759 
L 182.764345 482.1923 
L 182.977965 482.176574 
L 183.084776 481.973094 
L 183.191586 482.10687 
L 183.298396 481.999127 
L 183.405207 482.190387 
L 183.512017 482.011665 
L 183.618827 482.190387 
L 183.725637 482.084663 
L 183.939258 482.36709 
L 184.259689 482.702539 
L 184.47331 482.401836 
L 184.58012 482.439238 
L 184.68693 482.247978 
L 184.793741 482.4267 
L 185.007361 482.190281 
L 185.114172 482.426275 
L 185.327792 481.951312 
L 185.541413 482.142785 
L 185.755034 482.42925 
L 186.289085 483.109074 
L 186.716326 482.342864 
L 186.823137 482.47664 
L 187.250378 482.104533 
L 187.357188 482.308012 
L 187.570809 482.128759 
L 187.677619 481.903497 
L 187.78443 481.996258 
L 187.99805 481.769296 
L 188.211671 481.438841 
L 188.532102 481.893403 
L 188.638912 481.739332 
L 188.852533 482.05183 
L 189.066153 481.621707 
L 189.279774 481.728919 
L 189.493395 481.470824 
L 189.600205 482.33617 
L 189.707015 482.110908 
L 189.813826 482.154791 
L 190.241067 481.419821 
L 190.347877 481.312078 
L 190.454688 481.426303 
L 190.561498 481.304321 
L 190.881929 481.606619 
L 191.09555 481.871514 
L 191.20236 481.813817 
L 191.30917 481.906578 
L 191.415981 481.800854 
L 191.629601 482.180187 
L 192.056842 481.355111 
L 192.484084 481.068221 
L 192.590894 481.293483 
L 192.804515 480.98311 
L 192.911325 481.219104 
L 193.018135 480.997667 
L 193.338566 481.492075 
L 193.658997 481.026781 
L 193.765808 481.132506 
L 193.979428 480.830633 
L 194.086239 480.962284 
L 194.193049 480.771024 
L 194.299859 480.925095 
L 194.406669 480.793444 
L 194.51348 480.871117 
L 194.7271 483.028638 
L 195.154342 482.226727 
L 195.261152 482.222158 
L 195.474773 482.597665 
L 195.581583 482.550169 
L 195.795204 482.197081 
L 195.902014 482.400348 
L 196.115635 482.32225 
L 196.222445 482.326819 
L 196.436066 482.645161 
L 196.542876 482.417562 
L 196.649686 482.645161 
L 196.756497 482.406192 
L 196.863307 482.528174 
L 196.970117 482.435413 
L 197.076927 482.544431 
L 197.290548 482.248403 
L 197.397358 482.295899 
L 197.610979 481.473693 
L 197.717789 481.511095 
L 197.8246 481.714362 
L 197.93141 481.560291 
L 198.251841 481.758352 
L 198.358651 481.522358 
L 198.679082 482.022716 
L 199.106324 482.111333 
L 199.319944 481.931017 
L 199.426755 481.972988 
L 199.640375 482.208132 
L 199.853996 481.395382 
L 199.960806 481.439266 
L 200.174427 481.881502 
L 200.388047 481.488037 
L 200.601668 481.882777 
L 200.708478 481.713512 
L 200.815289 481.827737 
L 200.922099 481.713512 
L 201.13572 481.982445 
L 201.456151 481.582073 
L 201.669771 481.780559 
L 201.776582 482.026435 
L 201.883392 481.801173 
L 202.310633 482.630073 
L 202.417443 482.52233 
L 202.524254 482.644311 
L 202.844685 482.317363 
L 203.165116 482.59384 
L 203.485547 482.060968 
L 203.699167 482.336276 
L 203.805978 482.194319 
L 203.912788 482.308543 
L 204.233219 481.868645 
L 204.44684 482.090826 
L 204.66046 482.276667 
L 205.087701 481.585899 
L 205.301322 481.439372 
L 205.514943 481.812117 
L 205.621753 481.697892 
L 205.728563 481.901159 
L 205.835374 481.798516 
L 206.155805 482.171049 
L 206.476236 481.683866 
L 206.583046 481.91986 
L 206.689856 481.84325 
L 206.903477 481.578248 
L 207.117098 481.98457 
L 207.223908 481.852919 
L 207.437529 481.877464 
L 207.86477 481.239824 
L 207.97158 481.409089 
L 208.07839 481.331416 
L 208.719252 482.138853 
L 208.826063 481.917416 
L 208.932873 481.994027 
L 209.039683 482.215463 
L 209.253304 481.93633 
L 209.360114 482.157767 
L 209.573735 482.034935 
L 209.680545 481.813498 
L 209.787356 482.041098 
L 209.894166 481.93208 
L 210.107787 482.314069 
L 210.428218 482.091038 
L 210.535028 482.222689 
L 210.641838 482.032491 
L 210.855459 482.136941 
L 210.962269 481.967675 
L 211.17589 482.089232 
L 211.2827 481.947274 
L 211.38951 482.089232 
L 211.603131 482.034085 
L 211.709941 481.941324 
L 211.816752 482.0751 
L 212.030372 481.818705 
L 212.137183 481.862163 
L 212.564424 482.556013 
L 212.884855 482.231402 
L 212.991665 482.456664 
L 213.098476 482.265404 
L 213.205286 482.368047 
L 213.418906 482.011134 
L 213.525717 482.214613 
L 213.632527 481.59238 
L 213.846148 482.011134 
L 213.952958 481.77514 
L 214.166579 482.108145 
L 214.380199 481.833049 
L 214.48701 481.9647 
L 214.70063 481.654327 
L 214.914251 482.080519 
L 215.021061 481.855257 
L 215.341492 482.316088 
L 215.875544 481.437353 
L 215.982354 481.33471 
L 216.089164 481.476668 
L 216.195975 481.432784 
L 216.302785 481.564435 
L 216.409595 482.242559 
L 216.516406 482.055336 
L 216.730026 482.136197 
L 216.836837 481.910935 
L 216.943647 482.114202 
L 217.050457 481.692792 
L 217.157268 481.896271 
L 217.264078 481.787253 
L 217.477699 482.067131 
L 217.79813 482.322144 
L 218.01175 482.028453 
L 218.332181 482.321825 
L 218.545802 482.590121 
L 218.973043 482.124721 
L 219.186664 482.425531 
L 219.293474 482.469415 
L 219.720715 482.079137 
L 219.827526 482.257859 
L 220.254767 481.692686 
L 220.468388 481.728175 
L 220.682008 481.482724 
L 221.002439 481.954925 
L 221.10925 481.996896 
L 221.21606 481.865245 
L 221.32287 482.101239 
L 221.42968 482.059268 
L 221.536491 482.168286 
L 221.963732 481.86822 
L 222.284163 482.305781 
L 222.390973 482.544644 
L 222.497784 482.442001 
L 222.604594 481.364993 
L 222.711404 481.590255 
L 222.925025 481.495156 
L 223.031835 481.734019 
L 223.245456 481.584411 
L 223.352266 481.628295 
L 223.565887 481.910935 
L 223.672697 481.788953 
L 223.993128 481.918904 
L 224.099938 482.146504 
L 224.420369 481.637964 
L 224.63399 481.982976 
L 224.847611 481.810842 
L 224.954421 481.932823 
L 225.274852 481.509607 
L 225.488473 481.269044 
L 225.595283 481.376787 
L 225.702093 481.267769 
L 226.022524 481.610975 
L 226.129335 481.567091 
L 226.449766 482.140341 
L 226.556576 482.092844 
L 226.663386 482.331707 
L 226.770196 482.210469 
L 227.090627 482.590971 
L 227.304248 482.178486 
L 227.411058 482.220457 
L 227.517869 482.441894 
L 227.731489 482.092313 
L 227.8383 482.246384 
L 227.94511 482.007521 
L 228.158731 482.354765 
L 228.265541 482.151285 
L 228.479162 482.495872 
L 228.799593 482.302806 
L 228.906403 482.493003 
L 229.013213 482.254034 
L 229.226834 482.427869 
L 229.440454 482.204625 
L 229.547265 482.248509 
L 229.654075 482.484503 
L 229.974506 481.853982 
L 230.081316 482.092951 
L 230.294937 481.980638 
L 230.615368 482.493641 
L 230.935799 482.263916 
L 231.042609 482.356677 
L 231.14942 482.117708 
L 231.25623 482.223433 
L 231.576661 481.871833 
L 231.683471 482.099432 
L 231.897092 482.014853 
L 232.003902 482.123871 
L 232.110712 481.885008 
L 232.324333 481.961831 
L 232.431143 482.064474 
L 232.537954 481.742519 
L 232.644764 481.876295 
L 232.858385 481.695023 
L 232.965195 481.742519 
L 233.072005 481.610869 
L 233.178816 481.713512 
L 233.499247 481.211985 
L 233.606057 481.253956 
L 233.712867 481.151313 
L 233.926488 481.387732 
L 234.033298 481.577929 
L 234.140109 481.501319 
L 234.246919 481.26235 
L 234.46054 481.385607 
L 234.56735 481.33811 
L 234.67416 481.452335 
L 234.887781 481.134631 
L 235.315022 481.535533 
L 235.528643 481.288595 
L 235.742263 481.556466 
L 235.955884 482.034298 
L 236.169505 481.776203 
L 236.276315 481.930273 
L 236.383125 481.88639 
L 236.489936 481.699167 
L 236.703556 481.818811 
L 236.917177 481.47348 
L 237.023987 481.660703 
L 237.558039 480.919038 
L 237.664849 480.95644 
L 237.771659 481.177877 
L 237.87847 481.134418 
L 238.09209 481.349161 
L 238.519332 480.870373 
L 238.732952 481.252362 
L 238.946573 480.907137 
L 239.267004 481.418227 
L 239.373814 481.475924 
L 239.587435 481.23823 
L 239.694245 481.463492 
L 239.801056 481.331841 
L 240.014676 481.619688 
L 240.228297 481.470186 
L 240.335107 481.517683 
L 240.441917 481.383907 
L 240.975969 482.014428 
L 241.2964 482.519355 
L 241.616831 481.898184 
L 241.937262 482.366559 
L 242.578124 481.633501 
L 242.898555 481.167676 
L 243.005365 481.130274 
L 243.218986 482.724216 
L 244.287089 482.045136 
L 244.393899 482.232358 
L 244.60752 481.913485 
L 244.71433 481.990095 
L 244.821141 481.799898 
L 245.141572 482.008902 
L 245.355192 482.194319 
L 245.996054 481.688435 
L 246.423295 481.999871 
L 246.850537 481.329397 
L 247.170968 481.892127 
L 247.491399 481.393257 
L 247.598209 481.571979 
L 247.81183 481.532771 
L 247.91864 481.495369 
L 248.345881 482.04131 
L 248.452691 481.837831 
L 248.666312 482.083706 
L 249.200364 481.638495 
L 249.413984 481.949931 
L 249.841226 481.547859 
L 249.948036 481.369137 
L 250.161657 481.556253 
L 250.268467 481.498556 
L 250.375277 481.295289 
L 250.588898 481.640727 
L 250.695708 481.413127 
L 250.802518 481.591849 
L 251.22976 480.934976 
L 251.33657 481.043995 
L 251.44338 480.964622 
L 251.657001 481.177771 
L 251.763811 481.38125 
L 252.084242 480.847316 
L 252.191053 480.809914 
L 252.511484 481.201041 
L 252.831915 480.900443 
L 253.045535 481.086285 
L 253.259156 480.856454 
L 253.472776 481.111786 
L 253.686397 481.39262 
L 253.900018 481.522783 
L 254.113638 481.965019 
L 254.7545 481.365949 
L 254.861311 481.569429 
L 254.968121 481.466786 
L 255.181742 482.543687 
L 255.395362 482.281661 
L 255.502173 482.415437 
L 255.608983 482.312794 
L 255.715793 482.482059 
L 255.929414 482.087532 
L 256.036224 482.190175 
L 256.143034 482.113564 
L 256.356655 482.230233 
L 256.463465 482.267635 
L 256.677086 482.603297 
L 256.783896 482.461339 
L 256.890707 482.59299 
L 257.104327 482.274117 
L 257.531569 482.868936 
L 257.638379 482.831534 
L 257.852 482.405449 
L 258.172431 482.497891 
L 258.813292 481.986057 
L 258.920103 482.22492 
L 259.026913 482.102939 
L 259.133723 482.179549 
L 259.240534 482.102939 
L 259.454154 481.512795 
L 259.560965 481.748789 
L 259.774585 481.333966 
L 259.988206 481.548709 
L 260.308637 481.192009 
L 260.522258 481.46158 
L 260.735878 482.466652 
L 260.842689 482.57567 
L 261.056309 482.228427 
L 261.26993 481.798304 
L 261.590361 482.261897 
L 262.444843 481.605343 
L 263.192516 482.485565 
L 263.406136 482.179655 
L 263.619757 482.18975 
L 263.726567 481.998489 
L 263.940188 482.307481 
L 264.046998 482.259985 
L 264.153809 482.056718 
L 264.367429 482.255309 
L 264.68786 481.914441 
L 264.79467 482.139703 
L 265.008291 481.903497 
L 265.328722 482.463995 
L 265.862774 481.976176 
L 266.183205 482.433288 
L 266.396825 482.153304 
L 266.503636 482.295261 
L 266.610446 482.237565 
L 266.930877 482.711146 
L 267.037687 482.589908 
L 267.251308 482.622635 
L 267.464928 482.339145 
L 267.571739 482.343714 
L 267.678549 482.104745 
L 267.99898 482.249784 
L 268.212601 481.834324 
L 268.426221 481.997533 
L 268.853463 481.879908 
L 268.960273 481.643914 
L 269.280704 482.06288 
L 269.601135 481.792247 
L 269.814755 482.253503 
L 269.921566 482.050236 
L 270.562428 483.013337 
L 271.096479 482.330432 
L 271.523721 481.569854 
L 271.737341 481.794479 
L 271.844152 481.660703 
L 271.950962 482.146291 
L 272.271393 481.661446 
L 272.378203 482.145547 
L 272.591824 481.876614 
L 272.805444 482.123552 
L 273.019065 482.123552 
L 273.125875 482.200163 
L 273.659927 481.372219 
L 273.766737 481.559441 
L 273.980358 481.327272 
L 274.087168 481.374769 
L 274.193979 481.600031 
L 274.300789 481.552534 
L 274.62122 482.066493 
L 274.941651 481.935692 
L 275.048461 482.013365 
L 275.262082 481.590361 
L 275.368892 481.777584 
L 275.475702 481.656346 
L 275.582513 481.787997 
L 275.796133 481.431509 
L 276.009754 481.600243 
L 276.223375 481.257569 
L 276.330185 481.215598 
L 276.436995 481.454567 
L 276.971047 481.058233 
L 277.184668 481.376469 
L 277.291478 481.268725 
L 277.505099 481.488675 
L 277.611909 481.354899 
L 277.718719 481.476137 
L 277.825529 481.42864 
L 277.93234 481.506313 
L 278.14596 481.231005 
L 278.252771 481.333648 
L 278.359581 481.255975 
L 278.466391 481.410046 
L 278.573202 481.333435 
L 278.680012 482.473558 
L 279.000443 481.967994 
L 279.214064 482.026222 
L 279.748115 482.270185 
L 279.854926 482.497785 
L 279.961736 482.421174 
L 280.068546 482.513936 
L 280.495787 481.756226 
L 280.816218 481.510563 
L 280.923029 481.547965 
L 281.029839 481.735188 
L 281.136649 481.629463 
L 281.24346 481.832731 
L 281.35027 481.711493 
L 281.884322 482.213763 
L 281.991132 482.035041 
L 282.097942 482.157023 
L 282.418373 481.600349 
L 282.631994 482.030472 
L 282.738804 481.952799 
L 282.845615 481.7252 
L 283.272856 482.310881 
L 283.486476 481.981701 
L 283.806907 481.637539 
L 284.020528 481.716912 
L 284.234149 482.128546 
L 284.55458 481.702567 
L 284.981821 482.160954 
L 285.088631 481.939518 
L 285.195442 482.12674 
L 285.409062 481.830712 
L 285.515873 482.052149 
L 285.836303 481.811161 
L 286.049924 481.725731 
L 286.156734 481.833474 
L 286.477165 481.516832 
L 286.690786 481.876933 
L 286.797596 481.698211 
L 286.904407 482.108783 
L 287.118027 481.992114 
L 287.224838 482.230977 
L 287.758889 481.996896 
L 288.07932 482.35774 
L 288.292941 482.149479 
L 288.613372 482.576945 
L 288.720182 482.389723 
L 288.826992 482.503948 
L 289.040613 482.257116 
L 289.147423 481.549878 
L 289.467854 481.818705 
L 289.574665 481.876402 
L 289.681475 481.75442 
L 289.895096 482.112395 
L 290.108716 481.790547 
L 290.322337 481.909128 
L 290.429147 482.100389 
L 290.535958 481.978407 
L 290.856389 482.514042 
L 290.963199 482.551444 
L 291.28363 482.117921 
L 291.39044 482.195594 
L 291.604061 481.950356 
L 291.924492 481.746876 
L 292.138112 482.081156 
L 292.778974 481.43034 
L 292.992595 481.872576 
L 293.313026 481.420884 
L 293.526647 481.653052 
L 294.060698 481.547328 
L 294.274319 481.641577 
L 294.381129 481.71925 
L 294.59475 481.39857 
L 294.70156 482.408424 
L 295.128801 481.636901 
L 295.342422 481.636901 
L 295.449232 481.632332 
L 295.556043 481.871301 
L 295.769663 481.871726 
L 295.876474 482.058949 
L 296.090094 481.830287 
L 296.196905 481.877783 
L 296.410525 481.695129 
L 296.517335 481.637433 
L 296.624146 481.82763 
L 296.944577 481.74507 
L 297.158197 482.073825 
L 297.265008 482.227895 
L 297.478628 481.877677 
L 297.799059 481.696511 
L 297.90587 481.935374 
L 298.01268 481.801598 
L 298.226301 482.082538 
L 298.439921 481.848456 
L 298.546732 481.843887 
L 298.653542 482.035148 
L 298.760352 481.929423 
L 298.973973 482.091144 
L 299.080783 482.011771 
L 299.508024 482.653449 
L 299.828455 482.158085 
L 300.042076 481.83018 
L 300.255697 481.555085 
L 300.362507 481.780347 
L 300.469317 481.666122 
L 300.576128 481.808079 
L 300.682938 481.572085 
L 301.003369 481.982976 
L 301.110179 482.026435 
L 301.21699 481.823168 
L 301.3238 482.059161 
L 301.43061 482.015703 
L 301.857851 482.344883 
L 301.964662 481.462111 
L 302.178282 481.936967 
L 302.391903 481.75357 
L 302.605524 481.954075 
L 302.819144 482.348602 
L 303.353196 481.532452 
L 303.566817 481.811586 
L 303.887248 481.570067 
L 304.207679 481.971075 
L 304.421299 482.001252 
L 304.955351 482.286867 
L 305.062161 482.099645 
L 305.168971 482.21387 
L 305.382592 482.098795 
L 305.489402 482.288992 
L 305.596213 482.157342 
L 305.703023 482.279323 
L 306.023454 481.810948 
L 306.130264 481.734338 
L 306.450695 482.214826 
L 306.557506 482.072868 
L 306.771126 481.690667 
L 307.518798 482.429356 
L 307.732419 482.395142 
L 308.05285 482.442638 
L 308.266471 482.061712 
L 308.373281 482.017828 
L 308.693712 481.564222 
L 308.800522 481.471461 
L 308.907333 481.529158 
L 309.014143 481.426515 
L 309.120953 481.654115 
L 309.334574 481.496431 
L 309.655005 481.92241 
L 309.761815 481.683548 
L 310.189056 482.385791 
L 310.723108 482.831215 
L 310.829918 482.699564 
L 311.043539 482.953197 
L 311.150349 482.876586 
L 311.25716 480.930407 
L 311.36397 481.133675 
L 311.791211 480.676244 
L 312.111642 481.211241 
L 312.432073 480.991611 
L 312.538883 481.097335 
L 312.645694 480.991611 
L 312.752504 481.21921 
L 312.966125 481.200297 
L 313.286556 481.431297 
L 313.606987 481.31314 
L 313.820607 481.693961 
L 313.927418 481.466361 
L 314.034228 481.559122 
L 314.247849 481.224842 
L 314.461469 481.420884 
L 314.56828 481.646146 
L 314.67509 481.410152 
L 314.888711 481.705118 
L 314.995521 481.657621 
L 315.209141 482.018997 
L 315.315952 482.066493 
L 315.529572 481.808398 
L 315.743193 481.934949 
L 315.956814 481.749107 
L 316.170434 482.209513 
L 316.384055 481.428215 
L 316.490865 481.667184 
L 316.597676 481.629782 
L 316.918107 481.143875 
L 317.131727 481.224736 
L 317.238538 482.582258 
L 317.345348 482.356996 
L 317.665779 482.752586 
L 317.772589 482.61881 
L 317.879399 481.188184 
L 317.98621 481.427046 
L 318.09302 481.285089 
L 318.520261 481.727856 
L 318.733882 481.561991 
L 318.840692 481.789591 
L 318.947503 481.550728 
L 319.374744 481.934311 
L 319.481554 481.872683 
L 319.801985 481.404839 
L 320.122416 481.760795 
L 320.336037 481.592061 
L 320.656468 481.218998 
L 320.763278 481.266494 
L 320.870088 481.445216 
L 320.976899 481.352455 
L 321.083709 481.473693 
L 321.190519 481.282432 
L 321.40414 481.425559 
L 321.617761 481.242162 
L 321.938192 480.791956 
L 322.045002 480.660306 
L 322.151812 480.887905 
L 322.258623 480.77368 
L 322.472243 481.200934 
L 322.685864 480.966216 
L 322.792674 480.908519 
L 323.006295 481.201359 
L 323.219916 481.061314 
L 323.860777 482.11282 
L 324.074398 481.75272 
L 324.288019 482.125359 
L 324.394829 482.169242 
L 324.501639 482.394504 
L 324.71526 481.965975 
L 324.928881 482.137897 
L 325.035691 482.133328 
L 325.142501 481.99137 
L 325.249312 482.112608 
L 325.356122 482.019847 
L 325.462932 482.12759 
L 325.569743 482.013365 
L 325.783363 482.198781 
L 326.103794 481.604706 
L 326.210604 481.736357 
L 326.317415 481.500363 
L 326.744656 482.138534 
L 326.958277 481.790441 
L 327.171897 482.202925 
L 327.278708 481.999446 
L 327.492328 482.226408 
L 327.599139 481.990414 
L 327.812759 482.264022 
L 328.02638 482.013046 
L 328.13319 482.216526 
L 328.240001 482.174555 
L 328.453621 482.470583 
L 328.667242 482.411399 
L 328.774052 482.490772 
L 329.521724 481.70363 
L 329.628535 481.824868 
L 329.842155 481.67441 
L 330.269397 481.943449 
L 330.376207 482.020059 
L 330.483017 482.245321 
L 330.696638 482.155642 
L 330.803448 482.324907 
L 331.123879 482.11824 
L 331.3375 482.487159 
L 331.55112 482.420431 
L 331.657931 482.656424 
L 331.764741 482.522649 
L 331.978362 481.181702 
L 332.085172 481.047926 
L 332.405603 481.39772 
L 332.619224 482.540925 
L 332.939655 481.885433 
L 333.046465 481.963106 
L 333.260086 481.601731 
L 333.580517 482.28283 
L 333.687327 482.113564 
L 333.794137 482.341164 
L 334.007758 482.090188 
L 334.221378 482.311519 
L 334.434999 482.59554 
L 334.541809 482.453582 
L 334.75543 482.878499 
L 335.075861 482.465696 
L 335.182671 482.503098 
L 335.289482 482.264129 
L 335.609913 482.3061 
L 335.823533 481.879908 
L 335.930344 481.923367 
L 336.037154 481.7201 
L 336.143964 481.841337 
L 336.250775 481.738694 
L 336.357585 481.846438 
L 336.464395 481.769827 
L 336.678016 482.128865 
L 336.784826 482.071168 
L 336.891636 482.307162 
L 337.105257 481.89064 
L 337.318878 481.924854 
L 337.425688 481.982551 
L 337.639309 481.702461 
L 337.746119 481.780134 
L 337.852929 482.018997 
L 337.95974 481.780028 
L 338.06655 482.018997 
L 338.386981 481.779603 
L 338.493791 481.857276 
L 338.600602 481.666015 
L 338.814222 482.080838 
L 339.027843 481.614269 
L 339.241464 481.93463 
L 339.668705 481.295714 
L 339.775515 481.337685 
L 340.202756 480.983854 
L 340.523187 481.480068 
L 340.736808 481.82678 
L 340.843618 481.587811 
L 340.950429 481.82678 
L 341.057239 481.587918 
L 341.164049 481.69056 
L 341.27086 481.584836 
L 341.48448 481.933673 
L 341.591291 481.88979 
L 341.698101 482.043861 
L 341.911722 481.683654 
L 342.018532 481.456054 
L 342.232152 481.456054 
L 342.445773 481.233874 
L 342.659394 481.418971 
L 342.766204 481.646571 
L 342.979825 481.450529 
L 343.086635 481.654009 
L 343.193445 482.152985 
L 343.300256 482.021334 
L 343.620687 482.338083 
L 344.047928 481.648058 
L 344.154738 481.740819 
L 344.475169 481.444047 
L 344.58198 481.586005 
L 344.68879 481.407283 
L 344.7956 481.521508 
L 344.90241 481.285514 
L 345.009221 481.417165 
L 345.116031 481.295183 
L 345.222841 481.417165 
L 345.863703 481.05292 
L 345.970514 480.831483 
L 346.290945 481.33131 
L 346.397755 481.335879 
L 346.718186 481.908172 
L 347.465858 481.148975 
L 347.679479 481.067796 
L 348.10672 481.814773 
L 348.21353 481.892446 
L 348.427151 482.161592 
L 348.533961 481.974369 
L 348.640772 482.095607 
L 348.854392 481.938561 
L 349.068013 481.653265 
L 349.388444 482.028666 
L 349.708875 482.655362 
L 349.815685 482.416393 
L 350.136116 482.692658 
L 350.456547 482.188475 
L 351.097409 482.941083 
L 351.204219 482.819846 
L 351.31103 480.987148 
L 351.52465 481.255869 
L 351.631461 481.29784 
L 351.951892 481.758777 
L 352.058702 481.867795 
L 352.165512 481.646358 
L 352.272323 481.749001 
L 352.592754 481.492287 
L 352.806374 481.837725 
L 353.019995 481.879696 
L 353.340426 482.414799 
L 353.554046 482.138428 
L 353.660857 482.215038 
L 353.874477 481.873533 
L 353.981288 482.052255 
L 354.088098 482.291117 
L 354.194908 482.087638 
L 354.301719 482.209619 
L 354.408529 481.988183 
L 354.515339 482.067556 
L 354.62215 481.946318 
L 354.83577 482.157554 
L 354.942581 482.152985 
L 355.476632 482.981673 
L 355.583442 483.087397 
L 355.903873 482.626567 
L 356.010684 482.830046 
L 356.117494 482.786163 
L 356.224304 482.917813 
L 356.437925 482.70509 
L 356.544735 482.647393 
L 356.758356 482.330857 
L 356.865166 482.40853 
L 356.971977 482.187093 
L 357.078787 482.377291 
L 357.185597 482.173811 
L 357.612839 482.648137 
L 357.719649 481.158857 
L 357.93327 481.474224 
L 358.04008 481.516195 
L 358.14689 481.755164 
L 358.360511 481.416527 
L 358.467321 481.51917 
L 358.894562 481.247262 
L 359.001373 481.025825 
L 359.214993 481.362868 
L 359.321804 481.123899 
L 359.428614 481.359893 
L 359.642235 481.022637 
L 360.069476 481.748789 
L 360.283097 481.518108 
L 360.496717 481.455842 
L 360.603528 481.219848 
L 360.710338 481.44511 
L 360.817148 481.403139 
L 361.137579 481.685991 
L 361.244389 481.606619 
L 361.3512 481.793841 
L 361.56482 481.481556 
L 361.778441 481.729556 
L 361.885251 481.490587 
L 362.098872 482.09497 
L 362.205682 482.037273 
L 362.419303 481.663997 
L 362.632924 481.951737 
L 362.846544 481.598649 
L 362.953355 481.834643 
L 363.166975 481.47943 
L 363.594216 482.259347 
L 363.807837 481.792778 
L 364.021458 482.089019 
L 364.235078 481.808079 
L 364.341889 482.011346 
L 364.66232 481.840593 
L 364.982751 482.074037 
L 365.089561 481.88384 
L 365.196371 482.087107 
L 365.303182 481.861845 
L 365.623613 482.120683 
L 365.837233 481.690454 
L 365.944044 481.812436 
L 366.050854 481.625213 
L 366.264474 481.849838 
L 366.478095 481.571873 
L 366.691716 481.869814 
L 366.905336 482.104108 
L 367.225767 482.393867 
L 367.332578 482.435838 
L 367.439388 482.281767 
L 367.653009 482.439875 
L 367.97344 482.153516 
L 368.400681 482.851935 
L 368.507491 482.660675 
L 368.614302 482.885937 
L 368.934732 482.507135 
L 369.148353 482.595327 
L 369.682405 481.785553 
L 369.896025 482.007734 
L 370.216456 481.579311 
L 370.536887 482.008902 
L 370.643698 482.247871 
L 370.750508 482.2059 
L 371.177749 481.531389 
L 371.39137 482.313006 
L 371.49818 482.085407 
L 371.711801 482.421068 
L 371.925421 482.726341 
L 372.032232 482.769799 
L 372.139042 483.005793 
L 372.245852 482.92812 
L 372.993525 481.615756 
L 373.100335 481.757714 
L 373.313956 481.376044 
L 373.527576 481.661765 
L 373.741197 481.464236 
L 374.061628 482.037485 
L 374.168438 481.928467 
L 374.488869 482.23002 
L 374.91611 481.686948 
L 375.022921 481.922942 
L 375.129731 481.83018 
L 375.343352 482.053211 
L 375.450162 481.975538 
L 375.663783 482.369215 
L 375.770593 482.23544 
L 375.877403 482.38951 
L 375.984214 482.281767 
L 376.091024 482.403005 
L 376.197834 482.355508 
L 376.304645 482.165311 
L 376.518265 481.462961 
L 376.945507 482.233314 
L 377.052317 482.364965 
L 377.265937 481.336304 
L 377.479558 481.515451 
L 377.586368 481.36138 
L 377.799989 481.421627 
L 378.01361 482.427337 
L 378.22723 482.49311 
L 378.654472 482.251378 
L 378.761282 482.097307 
L 379.081713 482.343183 
L 379.402144 482.014003 
L 379.508954 482.192725 
L 379.722575 481.482618 
L 379.829385 481.560291 
L 380.043006 481.786297 
L 380.149816 481.744326 
L 380.363437 481.91986 
L 380.470247 481.84325 
L 380.577057 482.021972 
L 380.683868 481.890321 
L 381.004299 482.40428 
L 381.111109 482.2008 
L 381.217919 482.40428 
L 381.645161 482.069362 
L 381.858781 482.378566 
L 381.965592 482.256584 
L 382.072402 482.481846 
L 382.179212 482.444444 
L 382.286023 482.647712 
L 382.606453 482.16818 
L 382.713264 482.065537 
L 382.820074 482.304506 
L 382.926884 482.125784 
L 383.033695 482.361778 
L 383.140505 482.317894 
L 383.354126 482.550063 
L 383.460936 482.508092 
L 383.674557 482.117602 
L 383.994988 482.520949 
L 384.101798 482.441576 
L 384.208608 482.583533 
L 384.315419 482.474515 
L 384.529039 482.536781 
L 384.63585 482.367515 
L 384.84947 482.555907 
L 384.956281 482.413949 
L 385.169901 482.59979 
L 385.276711 482.378353 
L 385.383522 482.547619 
L 385.597142 482.347964 
L 385.703953 482.157767 
L 385.917573 482.39206 
L 386.131194 482.655256 
L 386.344815 482.339889 
L 386.665246 482.661737 
L 386.878866 482.371234 
L 386.985677 481.435759 
L 387.092487 481.473161 
L 387.199297 481.35118 
L 387.519728 481.528202 
L 387.733349 481.196047 
L 388.05378 481.851432 
L 388.2674 481.51577 
L 388.694642 481.977238 
L 389.015073 481.474755 
L 389.335504 481.7337 
L 389.442314 481.631057 
L 389.655935 481.963213 
L 389.869555 481.704374 
L 390.189986 482.167117 
L 390.296797 481.639877 
L 390.724038 482.208663 
L 390.830848 482.256159 
L 390.937658 482.01719 
L 391.044469 482.24479 
L 391.151279 482.041523 
L 391.3649 482.240009 
L 391.57852 482.01804 
L 392.326193 482.866811 
L 392.539813 482.751736 
L 392.753434 480.816289 
L 392.860244 480.772405 
L 393.180675 481.247793 
L 393.287485 481.190096 
L 393.607916 481.367437 
L 393.714727 481.258419 
L 393.928347 481.474543 
L 394.035158 481.432572 
L 394.355589 480.921588 
L 394.569209 481.274676 
L 394.67602 481.143025 
L 394.88964 480.961009 
L 394.996451 481.199872 
L 395.103261 480.978435 
L 395.316882 481.225267 
L 395.637313 481.711387 
L 395.744123 481.667503 
L 395.850933 481.854725 
L 396.064554 481.739651 
L 396.491795 480.928601 
L 397.239467 481.613844 
L 397.346278 481.521083 
L 397.453088 481.742519 
L 397.773519 481.462217 
L 397.98714 481.749957 
L 398.09395 481.640939 
L 398.20076 481.718612 
L 398.414381 482.182205 
L 398.521191 482.040248 
L 398.734812 482.365709 
L 398.841622 482.243727 
L 398.948432 482.138003 
L 399.162053 482.422024 
L 399.268863 482.218545 
L 399.482484 482.345414 
L 399.589294 482.106445 
L 399.696105 482.345414 
L 399.909725 482.128546 
L 400.016536 482.332026 
L 400.123346 482.106764 
L 400.443777 482.418093 
L 400.550587 482.370597 
L 400.871018 481.703736 
L 400.977829 481.93973 
L 401.084639 481.700761 
L 401.191449 481.842719 
L 401.40507 481.576123 
L 401.51188 481.454142 
L 401.725501 481.644977 
L 402.045932 481.239718 
L 402.152742 481.163107 
L 402.793604 481.768977 
L 403.007225 481.557953 
L 403.220845 481.737632 
L 403.541276 481.659959 
L 403.754897 481.809673 
L 403.861707 481.70193 
L 404.182138 481.989989 
L 404.395759 482.172642 
L 404.502569 481.969163 
L 404.71619 482.302168 
L 405.357052 482.032279 
L 405.463862 481.898503 
L 405.570672 482.004227 
L 405.677483 481.812967 
L 405.784293 481.856426 
L 405.997914 481.792672 
L 406.104724 481.98287 
L 406.318345 481.629782 
L 406.425155 481.868645 
L 406.638775 481.590361 
L 406.852396 481.884265 
L 406.959206 482.05353 
L 407.066017 481.814667 
L 407.172827 481.928892 
L 407.279637 481.70363 
L 407.386448 481.747514 
L 407.600068 482.03196 
L 407.706879 481.853238 
L 408.13412 482.145016 
L 408.347741 481.727431 
L 408.454551 481.881502 
L 408.561361 481.727431 
L 408.668172 481.906153 
L 408.774982 481.797135 
L 409.095413 481.990201 
L 409.202223 481.856426 
L 409.309033 482.046623 
L 409.415844 481.96725 
L 409.629464 481.59663 
L 409.736275 481.835599 
L 409.843085 481.63212 
L 410.056706 481.93803 
L 410.163516 482.14151 
L 410.270326 481.916248 
L 410.377137 482.10347 
L 410.483947 481.89999 
L 410.804378 482.253184 
L 410.911188 482.195487 
L 411.017999 481.956518 
L 411.124809 482.004015 
L 411.231619 481.862057 
L 411.55205 482.363371 
L 411.658861 482.257647 
L 411.872481 482.171792 
L 412.086102 482.516805 
L 412.192912 482.289205 
L 412.299722 482.331176 
L 412.406533 482.105914 
L 412.620153 482.570145 
L 412.833774 482.210682 
L 412.940584 482.290055 
L 413.047395 482.086788 
L 413.261015 482.158829 
L 413.367826 482.163398 
L 413.474636 481.643595 
L 413.581446 481.746238 
L 413.688257 482.060755 
L 413.795067 482.013259 
L 414.008688 482.198888 
L 414.115498 482.076906 
L 414.542739 482.609566 
L 414.649549 482.419368 
L 414.75636 482.551019 
L 415.076791 482.168286 
L 415.183601 482.395886 
L 415.397222 482.132053 
L 415.504032 482.090082 
L 415.610842 482.212063 
L 415.717653 481.59493 
L 415.824463 481.820192 
L 415.931273 481.629995 
L 416.038084 481.865989 
L 416.144894 481.760264 
L 416.358515 481.854513 
L 416.465325 481.796816 
L 416.572135 481.571554 
L 416.678946 481.629251 
L 417.212997 481.313247 
L 417.319807 481.435228 
L 417.426618 481.199234 
L 417.640238 481.517257 
L 417.853859 482.397479 
L 418.06748 482.673532 
L 418.2811 482.279854 
L 418.494721 482.584277 
L 418.815152 482.332557 
L 418.921962 482.253184 
L 419.135583 481.846863 
L 419.456014 482.025478 
L 419.669635 482.126634 
L 419.776445 482.330113 
L 420.417307 481.319941 
L 420.737738 481.768233 
L 420.951358 481.41504 
L 421.3786 481.749426 
L 421.48541 481.707455 
L 421.59222 481.946424 
L 421.699031 481.86057 
L 421.805841 482.099432 
L 422.019462 481.70873 
L 422.233082 481.925598 
L 422.339893 482.034616 
L 422.660323 481.508013 
L 422.873944 481.817217 
L 423.087565 481.566241 
L 423.301185 481.862907 
L 423.514806 482.077862 
L 423.835237 481.6063 
L 424.048858 482.045561 
L 424.262478 481.961725 
L 424.582909 482.117496 
L 424.90334 481.843037 
L 425.010151 481.965019 
L 425.330581 481.893934 
L 425.437392 482.072656 
L 425.544202 481.930698 
L 425.651012 481.988395 
L 426.185064 481.42184 
L 426.291874 481.575911 
L 426.505495 481.377956 
L 426.612305 481.492181 
L 426.825926 481.255975 
L 427.146357 481.631376 
L 427.680409 482.262535 
L 427.894029 481.941855 
L 428.21446 482.452732 
L 428.32127 482.27401 
L 428.534891 481.418758 
L 428.641701 481.496431 
L 428.855322 481.153757 
L 429.282563 481.835174 
L 429.389374 481.949399 
L 429.709805 481.817749 
L 429.923425 481.780347 
L 430.030236 481.971607 
L 430.137046 481.781409 
L 430.243856 481.859082 
L 430.457477 482.186987 
L 430.564287 482.191556 
L 430.671097 481.988289 
L 430.884718 482.186774 
L 430.991528 482.109102 
L 431.098339 482.330538 
L 431.311959 482.134709 
L 431.63239 482.57142 
L 431.846011 482.419793 
L 432.380063 481.799473 
L 432.700494 481.967463 
L 432.807304 482.044073 
L 433.020925 481.671328 
L 433.127735 481.874595 
L 433.234545 481.649333 
L 433.341356 481.686735 
L 433.448166 481.578992 
L 433.768597 482.032172 
L 433.875407 482.259772 
L 433.982217 482.215888 
L 434.089028 481.994452 
L 434.195838 482.10347 
L 434.302648 482.045773 
L 434.516269 481.779178 
L 434.72989 481.970119 
L 434.8367 481.782897 
L 434.94351 481.936967 
L 435.263941 481.39772 
L 435.370752 482.409274 
L 435.477562 482.206007 
L 435.904803 482.900281 
L 436.011614 482.80752 
L 436.332044 483.117362 
L 436.438855 483.059665 
L 436.652475 482.59554 
L 436.866096 481.133781 
L 437.079717 482.720709 
L 437.186527 482.854485 
L 437.293337 482.633048 
L 437.506958 481.130062 
L 437.613768 481.252043 
L 437.720579 481.097973 
L 437.934199 481.479643 
L 438.04101 481.325572 
L 438.25463 481.478793 
L 438.361441 481.253531 
L 438.468251 481.443729 
L 438.681872 481.278288 
L 438.788682 481.088091 
L 439.002302 481.239293 
L 439.215923 481.542334 
L 439.322733 481.320897 
L 439.749975 482.078712 
L 440.070406 481.836875 
L 440.177216 481.970119 
L 440.604457 481.57081 
L 440.711268 481.449573 
L 441.138509 481.840062 
L 441.245319 481.670797 
L 441.35213 481.75017 
L 441.45894 481.54669 
L 441.67256 481.883946 
L 441.992991 481.672816 
L 442.099802 481.765577 
L 442.206612 481.529583 
L 442.313422 481.757183 
L 442.420233 481.578461 
L 442.954284 481.671966 
L 443.167905 482.227789 
L 443.274715 481.579205 
L 443.381526 481.684929 
L 443.488336 481.530858 
L 443.595146 481.75612 
L 443.808767 481.340661 
L 444.022388 481.687267 
L 444.129198 481.483999 
L 444.449629 481.739969 
L 444.556439 481.617988 
L 444.663249 481.809248 
L 444.77006 481.767277 
L 444.87687 481.576017 
L 445.410922 482.345308 
L 445.624542 481.347461 
L 446.265404 482.071168 
L 446.372215 481.883946 
L 446.479025 482.087213 
L 446.692646 481.800854 
L 447.013076 481.682698 
L 447.119887 481.625001 
L 447.333507 481.921985 
L 447.440318 481.700549 
L 447.547128 481.814773 
L 447.653938 481.587174 
L 447.760749 482.21982 
L 448.08118 482.177849 
L 448.18799 482.369109 
L 448.2948 482.311412 
L 448.401611 482.490134 
L 448.828852 481.683548 
L 448.935662 481.727006 
L 449.149283 481.462111 
L 449.362904 481.255444 
L 449.790145 481.80181 
L 449.896955 481.565816 
L 450.110576 481.834962 
L 450.324196 482.116114 
L 450.537817 482.545175 
L 450.644627 482.423193 
L 450.751438 482.545175 
L 450.858248 481.261819 
L 451.071869 481.620857 
L 451.178679 481.499619 
L 451.285489 481.557316 
L 451.3923 481.747514 
L 451.49911 481.560291 
L 451.60592 482.246703 
L 451.712731 481.560291 
L 451.819541 481.702249 
L 452.033162 481.611931 
L 452.139972 481.799154 
L 452.460403 481.557528 
L 452.780834 481.846969 
L 452.887644 482.050448 
L 452.994454 481.825186 
L 453.101265 482.064049 
L 453.421696 481.574848 
L 453.635316 481.938242 
L 453.848937 481.57878 
L 453.955747 481.804042 
L 454.062558 481.616819 
L 454.169368 481.696192 
L 454.382989 482.168498 
L 454.81023 481.891065 
L 455.02385 482.22152 
L 455.237471 481.827843 
L 455.451092 482.291436 
L 455.664712 481.866732 
L 455.878333 482.053849 
L 455.985143 482.279111 
L 456.732816 481.287852 
L 456.946436 482.556544 
L 457.160057 482.913776 
L 457.480488 483.0195 
L 457.694108 482.714228 
L 458.014539 482.642611 
L 458.12135 482.521374 
L 458.441781 482.81007 
L 458.655401 482.528705 
L 458.762212 482.650687 
L 458.869022 482.44742 
L 458.975832 482.626142 
L 459.082643 482.422662 
L 459.189453 482.466121 
L 459.296263 482.296855 
L 459.403074 482.373466 
L 459.509884 482.194744 
L 459.723505 482.484609 
L 460.150746 481.91901 
L 460.257556 481.811267 
L 460.364366 481.932505 
L 460.577987 481.561885 
L 460.684797 481.693536 
L 460.791608 481.847606 
L 461.005228 481.582286 
L 461.859711 481.958431 
L 462.073332 482.256478 
L 462.286952 482.076162 
L 462.500573 482.357315 
L 462.607383 482.399286 
L 463.248245 481.882777 
L 463.355055 482.072975 
L 463.461866 481.980213 
L 463.675486 482.14491 
L 463.782297 482.278686 
L 463.889107 482.088488 
L 464.209538 482.182099 
L 464.529969 482.133647 
L 464.636779 482.355083 
L 464.8504 482.263279 
L 464.95721 482.397054 
L 465.170831 482.053317 
L 465.491262 481.874064 
L 465.598072 481.635201 
L 465.811693 481.931761 
L 466.238934 482.003058 
L 466.345744 481.803935 
L 466.666175 482.248828 
L 466.879796 481.832306 
L 467.093417 482.248828 
L 467.413848 481.866414 
L 467.520658 481.760689 
L 467.627468 481.866414 
L 468.16152 481.432465 
L 468.481951 481.313778 
L 468.588761 481.467849 
L 468.695571 481.345867 
L 468.802382 481.42524 
L 469.016002 481.797879 
L 469.122813 481.619157 
L 469.336433 481.762283 
L 469.656864 481.199447 
L 469.977295 481.56656 
L 470.084106 481.330566 
L 470.724968 481.9596 
L 471.365829 481.550409 
L 471.68626 482.121533 
L 471.793071 482.346795 
L 471.899881 482.21302 
L 472.006691 482.270716 
L 472.113502 482.498316 
L 472.220312 482.308118 
L 472.754364 482.83759 
L 472.967984 482.563982 
L 473.502036 483.050952 
L 473.608846 483.09441 
L 474.036087 482.288355 
L 474.142898 482.180612 
L 474.249708 482.408211 
L 474.463329 482.132159 
L 474.570139 482.246384 
L 474.676949 482.042904 
L 474.89057 482.042904 
L 475.104191 481.834643 
L 475.211001 482.038123 
L 475.317811 481.768871 
L 475.531432 481.991902 
L 475.638242 481.89914 
L 475.851863 482.084556 
L 475.958673 481.845694 
L 476.172294 482.117602 
L 476.385914 481.829755 
L 476.599535 482.086257 
L 476.706345 482.008584 
L 476.919966 482.254459 
L 477.133587 481.910191 
L 477.240397 482.135453 
L 477.347207 482.014215 
L 477.560828 482.270929 
L 477.881259 481.688967 
L 478.09488 482.002208 
L 478.3085 481.83103 
L 478.522121 482.047898 
L 478.949362 481.28732 
L 479.162983 481.603856 
L 479.376603 481.245881 
L 479.483414 481.354899 
L 479.803845 481.761858 
L 480.017465 481.443835 
L 480.124276 481.669097 
L 480.231086 481.515026 
L 480.337896 481.558485 
L 480.444707 482.248509 
L 480.658327 481.923473 
L 480.765138 482.029197 
L 480.871948 481.841975 
L 480.978758 481.918585 
L 481.192379 481.68121 
L 481.299189 481.850475 
L 481.61962 481.648271 
L 481.833241 481.981276 
L 481.940051 481.904666 
L 482.153672 482.237883 
L 482.260482 481.56911 
L 482.367292 481.611081 
L 482.474103 481.508438 
L 482.580913 481.601199 
L 482.687723 481.422477 
L 482.794534 481.661446 
L 483.008154 481.340448 
L 483.221775 481.457223 
L 483.328585 481.578461 
L 483.435396 481.388263 
L 483.542206 481.530221 
L 483.649016 481.486762 
L 483.755827 481.67696 
L 483.862637 481.535002 
L 484.076258 481.600774 
L 484.289878 481.55551 
L 484.610309 482.124934 
L 484.717119 482.019209 
L 484.93074 482.265935 
L 485.251171 482.218439 
L 485.357981 482.26041 
L 485.464792 482.021547 
L 485.678412 482.360184 
L 485.785223 482.280811 
L 485.998843 481.967144 
L 486.105654 481.890534 
L 486.426085 482.379628 
L 486.639705 482.099751 
L 486.746516 481.707243 
L 486.853326 481.751126 
L 486.960136 481.938349 
L 487.066946 481.894465 
L 487.387377 482.16903 
L 487.814619 481.792353 
L 488.13505 482.295793 
L 488.24186 482.153835 
L 488.34867 482.197294 
L 488.455481 482.063518 
L 488.562291 482.205475 
L 488.669101 482.091251 
L 488.775912 482.225026 
L 488.882722 482.037804 
L 488.989532 482.225026 
L 489.203153 482.005396 
L 489.309963 482.244259 
L 489.416774 482.167648 
L 489.523584 482.39291 
L 489.630394 482.345414 
L 490.057635 481.646039 
L 490.164446 481.588343 
L 490.271256 481.681104 
L 490.484877 481.635839 
L 490.591687 481.777796 
L 490.805308 481.396976 
L 490.912118 481.528627 
L 491.018928 481.425984 
L 491.339359 481.881821 
L 491.44617 481.989564 
L 491.55298 481.786297 
L 491.873411 481.88639 
L 491.980221 481.732319 
L 492.087032 481.853557 
L 492.300652 481.808292 
L 492.834704 482.525517 
L 493.261945 482.018784 
L 493.475566 482.243409 
L 493.582376 482.129184 
L 493.689186 482.234908 
L 493.795997 482.009646 
L 494.009617 482.362734 
L 494.116428 482.587996 
L 494.97091 481.886602 
L 495.077721 481.8492 
L 495.398151 481.334604 
L 495.504962 481.456586 
L 495.611772 482.350408 
L 495.718582 482.114414 
L 495.825393 482.342014 
L 495.932203 482.208238 
L 496.145824 482.555482 
L 496.252634 482.386216 
L 496.359444 482.433713 
L 496.466255 482.357102 
L 497.000306 481.228348 
L 497.320737 481.678766 
L 497.427548 481.917629 
L 497.534358 481.775671 
L 497.747979 482.062137 
L 498.068409 482.281342 
L 498.17522 482.450607 
L 498.28203 482.214613 
L 498.602461 482.517761 
L 499.029702 481.774502 
L 499.350133 481.572298 
L 499.563754 482.278579 
L 499.777375 482.639105 
L 499.884185 482.559732 
L 499.990995 482.33447 
L 500.097806 482.537949 
L 500.311426 482.304718 
L 500.525047 481.460304 
L 500.738667 481.404945 
L 500.845478 481.643808 
L 500.952288 481.404839 
L 501.272719 481.961512 
L 501.379529 481.92411 
L 501.48634 482.029835 
L 501.59315 481.92411 
L 501.69996 482.016872 
L 501.913581 481.741563 
L 502.127202 482.064899 
L 502.340822 481.875552 
L 502.447633 481.919435 
L 502.554443 481.80521 
L 502.661253 481.992433 
L 502.768064 481.88979 
L 502.874874 481.997533 
L 503.088495 481.764089 
L 503.302115 482.120577 
L 503.408925 481.966506 
L 503.515736 482.120577 
L 503.622546 481.97862 
L 503.836167 482.261366 
L 504.263408 482.150329 
L 504.477029 481.721268 
L 505.01108 481.888196 
L 505.117891 481.785553 
L 505.224701 481.919329 
L 505.438322 481.800748 
L 505.545132 482.028347 
L 505.758753 481.830393 
L 505.865563 482.055655 
L 505.972373 481.946637 
L 506.185994 482.208663 
L 506.399614 481.819767 
L 506.506425 481.941005 
L 506.720045 481.724244 
L 507.040476 482.231827 
L 507.254097 482.04843 
L 507.467718 482.217907 
L 507.574528 482.175936 
L 507.788149 481.516832 
L 508.10858 482.055974 
L 508.21539 482.018572 
L 508.3222 482.208769 
L 508.535821 481.874489 
L 508.642631 482.113458 
L 508.749441 481.999233 
L 508.963062 482.213976 
L 509.283493 481.885433 
L 509.390303 482.019209 
L 509.603924 481.738057 
L 509.710734 482.068937 
L 509.924355 481.756439 
L 510.031165 481.925704 
L 510.137976 481.698105 
L 510.244786 481.901584 
L 510.458407 481.523102 
L 510.672027 481.583349 
L 510.885648 481.583349 
L 510.992458 481.429278 
L 511.206079 481.57878 
L 511.419699 481.414083 
L 511.52651 481.650077 
L 511.74013 481.32536 
L 511.953751 481.767596 
L 512.060561 481.528627 
L 512.167372 482.278367 
L 512.274182 482.074887 
L 512.380992 482.31375 
L 512.701423 481.762814 
L 512.808234 481.868539 
L 513.021854 481.453079 
L 513.235475 482.581514 
L 513.342285 482.523817 
L 513.449096 482.298555 
L 513.662716 481.405795 
L 513.769527 481.595993 
L 513.876337 481.392513 
L 513.983147 481.561779 
L 514.089957 481.358512 
L 514.196768 481.437885 
L 514.303578 481.361274 
L 514.624009 481.759945 
L 514.94444 481.530646 
L 515.05125 481.734125 
L 515.158061 481.692154 
L 515.692112 482.315875 
L 516.226164 481.772271 
L 516.546595 481.7303 
L 516.653405 481.551578 
L 516.760215 481.629251 
L 516.867026 481.459986 
L 517.080646 481.465511 
L 517.507888 480.790788 
L 517.721508 481.069071 
L 517.935129 480.877598 
L 518.041939 480.755617 
L 518.36237 481.270638 
L 518.469181 481.492075 
L 518.575991 481.454673 
L 519.110043 482.370916 
L 519.323663 482.660781 
L 519.430473 482.613285 
L 519.537284 482.374422 
L 519.964525 482.640805 
L 520.284956 482.240859 
L 520.391766 482.284317 
L 520.498577 482.059055 
L 520.819008 482.341589 
L 520.925818 482.150329 
L 521.032628 482.194212 
L 521.139439 482.385473 
L 521.246249 482.342014 
L 521.353059 482.434775 
L 521.67349 481.977238 
L 521.780301 482.2025 
L 521.887111 482.109739 
L 522.100731 481.617882 
L 522.207542 481.379019 
L 522.527973 481.838575 
L 523.062024 482.397798 
L 523.275645 482.101557 
L 523.702886 482.655149 
L 523.916507 482.381541 
L 524.130128 482.655149 
L 524.343748 482.329688 
L 524.557369 482.552719 
L 524.770989 482.268698 
L 524.8778 482.089976 
L 524.98461 482.147672 
L 525.411851 481.322278 
L 525.518662 481.398889 
L 525.625472 482.408105 
L 525.945903 482.05353 
L 526.052713 482.240752 
L 526.266334 482.018572 
L 526.479955 482.347327 
L 526.586765 482.178061 
L 526.800386 482.38951 
L 527.120817 481.94568 
L 527.334437 481.828268 
L 527.548058 481.979895 
L 527.654868 481.887133 
L 527.868489 482.086788 
L 527.975299 481.847819 
L 528.082109 482.083813 
L 528.40254 481.262775 
L 528.509351 481.108704 
L 528.616161 481.150675 
L 528.722971 481.044951 
L 528.936592 481.460411 
L 529.150213 481.324191 
L 529.363833 481.593124 
L 529.684264 481.451166 
L 529.897885 481.716062 
L 530.111505 481.303577 
L 530.645557 482.263279 
L 530.752367 482.320975 
L 530.859178 482.243302 
L 531.179609 481.819449 
L 531.60685 482.588952 
L 531.71366 482.593521 
L 531.820471 482.365921 
L 532.034091 482.447207 
L 532.140902 482.367834 
L 532.354522 482.537206 
L 532.461333 482.434563 
L 532.568143 482.540287 
L 532.674953 482.434563 
L 532.781763 482.556544 
L 532.995384 482.326819 
L 533.209005 482.702327 
L 533.315815 482.64463 
L 533.529436 482.865961 
L 533.849867 482.503629 
L 534.170298 482.768312 
L 534.277108 482.54305 
L 534.383918 482.781912 
L 535.238401 481.833368 
L 535.452021 482.040354 
L 535.665642 481.793416 
L 535.772452 482.014853 
L 535.986073 481.767171 
L 536.413314 482.136834 
L 536.626935 481.855894 
L 536.733745 481.798197 
L 536.947366 481.902647 
L 537.054176 481.950143 
L 537.374607 482.486415 
L 537.481418 482.565788 
L 537.695038 482.351046 
L 537.801849 481.455948 
L 538.015469 481.868645 
L 538.122279 481.736994 
L 538.22909 481.906259 
L 538.3359 481.667397 
L 538.44271 481.760158 
L 538.549521 481.532558 
L 538.763141 481.56996 
L 538.869952 481.348523 
L 538.976762 481.385925 
L 539.297193 480.956228 
L 539.404003 481.14345 
L 539.510814 481.085753 
L 539.938055 481.577186 
L 540.044865 481.398464 
L 540.258486 481.791928 
L 540.472107 481.510988 
L 540.578917 481.68971 
L 541.006158 481.472843 
L 541.219779 481.819449 
L 541.433399 481.663253 
L 541.64702 481.898715 
L 541.75383 481.841018 
L 541.967451 482.016553 
L 542.181072 481.830924 
L 542.715123 482.121746 
L 542.928744 481.981701 
L 543.035554 481.977132 
L 543.355985 482.359759 
L 543.569606 482.010921 
L 543.676416 482.164992 
L 543.890037 482.01209 
L 543.996847 482.202288 
L 544.424088 481.819024 
L 544.530899 481.860995 
L 545.171761 481.227711 
L 545.385381 481.279776 
L 545.492192 481.466999 
L 545.705812 481.312715 
L 545.812623 481.540315 
L 545.919433 481.312715 
L 546.133054 481.67611 
L 546.239864 481.534152 
L 546.346674 481.610762 
L 546.453484 481.505038 
L 546.560295 481.696298 
L 546.667105 481.616925 
L 546.987536 481.836875 
L 547.094346 481.667609 
L 547.735208 482.182099 
L 547.948829 481.803617 
L 548.482881 482.630073 
L 548.803312 482.401942 
L 548.910122 482.174343 
L 549.016932 482.401942 
L 549.230553 482.322569 
L 549.550984 482.648562 
L 549.764604 482.593415 
L 549.871415 482.635386 
L 550.191846 482.296643 
L 550.512277 482.451351 
L 550.619087 482.309393 
L 550.725897 482.402155 
L 550.939518 482.318213 
L 551.046328 482.487478 
L 551.366759 482.186137 
L 551.58038 482.628479 
L 551.68719 482.514254 
L 551.794 482.591927 
L 551.900811 482.460277 
L 552.007621 481.346717 
L 552.221242 481.446385 
L 552.434862 482.474834 
L 552.541673 482.470265 
L 552.755293 482.175299 
L 553.502966 482.791157 
L 553.609776 482.685432 
L 553.716586 482.791157 
L 553.930207 482.409486 
L 554.037017 481.397507 
L 554.357448 481.689179 
L 554.464258 481.557528 
L 554.784689 481.669309 
L 554.8915 481.908278 
L 554.99831 481.766321 
L 555.10512 481.945043 
L 555.211931 481.86567 
L 555.425551 482.290586 
L 555.532362 482.111864 
L 556.066413 482.517548 
L 556.280034 482.170305 
L 556.386844 482.360502 
L 556.600465 482.064262 
L 556.814086 482.299405 
L 556.920896 482.060436 
L 557.027706 482.192087 
L 557.241327 481.81658 
L 557.561758 482.073187 
L 557.668568 481.845587 
L 558.523051 482.441576 
L 558.629861 481.365418 
L 558.843482 481.648058 
L 558.950292 481.724669 
L 559.057102 481.960662 
L 559.270723 481.762071 
L 559.377533 481.838681 
L 559.484344 481.759308 
L 559.697964 481.793522 
L 559.911585 481.943661 
L 560.018395 482.133859 
L 560.232016 481.909235 
L 560.338826 481.946637 
L 560.445636 481.707668 
L 560.659257 482.069043 
L 560.766067 482.112502 
L 560.979688 481.880333 
L 561.086498 481.726262 
L 561.193309 481.857913 
L 561.300119 481.724137 
L 561.406929 481.781834 
L 561.62055 481.450848 
L 561.834171 481.185527 
L 562.047791 481.337154 
L 562.581843 481.746451 
L 562.688653 481.643808 
L 563.009084 482.244046 
L 563.222705 481.828587 
L 563.329515 482.032066 
L 563.436325 481.988608 
L 563.543136 482.17583 
L 563.649946 482.068087 
L 563.863567 482.24224 
L 564.077187 482.056611 
L 564.183998 482.10007 
L 564.397618 481.765152 
L 564.611239 481.484318 
L 564.82486 481.487931 
L 564.93167 481.366693 
L 565.14529 481.760158 
L 565.358911 481.535533 
L 565.572532 481.721162 
L 565.679342 481.517895 
L 565.892963 481.93038 
L 566.213394 481.805635 
L 566.427014 482.101664 
L 566.747445 481.578036 
L 566.854256 481.685779 
L 566.961066 481.552003 
L 567.174687 481.768127 
L 567.388307 481.520445 
L 567.708738 481.870345 
L 567.922359 481.537552 
L 568.24279 481.880227 
L 568.45641 481.866414 
L 568.563221 481.818917 
L 568.776841 482.090826 
L 568.883652 481.854832 
L 568.990462 481.976069 
L 569.204083 481.745813 
L 569.417703 482.072975 
L 569.524514 481.882777 
L 569.738134 482.230764 
L 569.951755 481.911891 
L 570.165376 482.378353 
L 570.592617 481.673028 
L 571.447099 482.010921 
L 571.55391 481.908278 
L 571.76753 482.09667 
L 572.301582 481.783428 
L 572.515203 481.845694 
L 572.835634 482.294624 
L 573.049254 482.067024 
L 573.156064 482.294624 
L 573.796926 481.729769 
L 574.224168 482.280704 
L 574.544599 482.032916 
L 574.758219 482.180612 
L 574.97184 481.832731 
L 575.07865 481.946955 
L 575.185461 481.867582 
L 575.399081 482.134178 
L 575.612702 481.98457 
L 575.719512 482.138641 
L 576.039943 481.713724 
L 576.253564 482.014003 
L 576.467184 481.797241 
L 576.573995 482.033235 
L 576.787615 481.800004 
L 577.001236 481.711812 
L 577.321667 482.023778 
L 577.535288 481.548922 
L 577.855719 481.720631 
L 578.28296 480.985342 
L 578.603391 480.664131 
L 578.710201 480.664131 
L 579.351063 481.455098 
L 579.564684 482.521161 
L 579.778304 482.92132 
L 579.885115 482.815595 
L 579.991925 482.873292 
L 580.098735 482.68607 
L 580.419166 482.710084 
L 580.739597 482.4352 
L 580.846408 482.540925 
L 580.953218 482.301956 
L 581.060028 482.410974 
L 581.166838 482.185712 
L 581.273649 482.413312 
L 581.487269 482.104108 
L 581.59408 482.258178 
L 581.70089 482.022184 
L 582.021321 482.130353 
L 582.128131 481.902753 
L 582.234942 481.995514 
L 582.341752 481.918904 
L 582.768993 482.773837 
L 582.875804 482.736435 
L 582.982614 482.85066 
L 583.196235 482.633898 
L 583.303045 482.824096 
L 583.516666 482.451564 
L 583.623476 482.585339 
L 583.837096 482.38951 
L 584.157527 482.558563 
L 584.584769 481.876508 
L 584.9052 482.237565 
L 585.11882 482.144803 
L 585.332441 481.859082 
L 585.652872 482.286761 
L 585.759682 482.392485 
L 586.186924 481.986164 
L 586.293734 482.176361 
L 586.507354 481.768127 
L 586.614165 481.877145 
L 586.827785 481.571235 
L 587.041406 481.714362 
L 587.148216 481.475499 
L 587.361837 481.792141 
L 587.575458 481.857382 
L 587.682268 481.894784 
L 588.21632 481.292208 
L 588.536751 481.595249 
L 588.857182 481.194028 
L 589.070802 481.314097 
L 589.391233 481.849094 
L 589.498043 481.746451 
L 589.604854 481.878102 
L 589.818474 481.621707 
L 589.925285 481.763664 
L 590.352526 481.414721 
L 590.886578 481.29157 
L 591.420629 481.705968 
L 591.84787 481.468061 
L 592.061491 481.242055 
L 592.168301 481.139412 
L 592.275112 481.367012 
L 592.488732 481.093404 
L 593.022784 481.361168 
L 593.129594 481.356599 
L 593.236405 481.535321 
L 593.343215 481.356599 
L 593.556836 481.547434 
L 593.877267 481.317178 
L 594.197698 481.35458 
L 594.411318 481.127618 
L 594.518128 481.366587 
L 594.624939 481.260863 
L 595.05218 481.636051 
L 595.265801 481.949506 
L 595.372611 482.028879 
L 595.586232 482.36454 
L 595.799852 481.349692 
L 596.333904 482.029622 
L 596.547525 481.709261 
L 596.867956 482.085938 
L 596.974766 481.846969 
L 597.295197 482.346477 
L 597.508817 482.021759 
L 597.829248 482.313537 
L 598.149679 482.086575 
L 598.25649 482.144272 
L 598.3633 482.371872 
L 598.47011 482.168605 
L 598.683731 482.289736 
L 598.790541 482.514998 
L 598.897352 482.457301 
L 599.324593 481.713087 
L 599.751834 481.91901 
L 599.858644 481.871514 
L 599.965455 482.062774 
L 600.072265 481.908703 
L 600.179075 482.11197 
L 600.285886 481.997746 
L 600.392696 482.100389 
L 600.606317 482.070212 
L 600.819937 482.306206 
L 601.247179 481.795541 
L 601.67442 481.682804 
L 601.994851 481.963744 
L 602.208472 481.789591 
L 602.315282 481.958856 
L 602.422092 481.916885 
L 602.635713 481.579842 
L 603.062954 481.934736 
L 603.169764 481.872258 
L 603.276575 482.041523 
L 603.383385 481.838043 
L 603.597006 482.232571 
L 603.703816 482.063305 
L 603.810626 482.302274 
L 604.024247 481.265857 
L 604.131057 481.309315 
L 604.237868 481.534577 
L 604.344678 481.412596 
L 604.558299 481.731469 
L 604.665109 481.503869 
L 604.771919 481.606512 
L 604.87873 481.503869 
L 604.98554 481.581542 
L 605.199161 481.913272 
L 605.305971 481.781622 
L 605.733212 482.542518 
L 605.946833 482.522542 
L 606.160453 482.544218 
L 606.374074 482.492153 
L 606.587695 482.848641 
L 606.801315 482.49906 
L 607.121746 482.105595 
L 607.228557 482.344564 
L 607.548988 482.096776 
L 607.655798 482.173386 
L 607.976229 481.808504 
L 608.083039 481.886177 
L 608.51028 481.486656 
L 609.044332 482.153516 
L 609.471573 481.408452 
L 609.578384 481.28647 
L 609.685194 481.489737 
L 609.898815 481.528946 
L 610.005625 482.278048 
L 610.432866 481.732106 
L 610.753297 481.905091 
L 610.860107 481.669097 
L 611.073728 481.754526 
L 611.180538 481.979788 
L 611.287349 481.935905 
L 611.394159 482.05013 
L 612.248642 481.327485 
L 612.462262 481.608425 
L 612.569073 481.612994 
L 612.675883 481.481343 
L 612.996314 481.989245 
L 613.209935 481.984676 
L 613.423555 481.666972 
L 613.530365 481.788953 
L 613.637176 481.55009 
L 613.743986 481.728813 
L 613.850796 481.501213 
L 614.171227 482.035148 
L 614.278038 482.039717 
L 614.384848 481.81828 
L 614.491658 482.045879 
L 614.812089 481.938136 
L 614.9189 481.712874 
L 615.239331 481.905516 
L 615.346141 481.868114 
L 615.452951 481.629145 
L 615.773382 482.207069 
L 615.880193 482.099326 
L 616.200623 482.494916 
L 616.414244 482.218864 
L 616.627865 482.444126 
L 616.734675 482.366453 
L 617.055106 482.664075 
L 617.482347 482.126102 
L 617.589158 482.362096 
L 617.695968 482.269335 
L 617.909589 482.390573 
L 618.016399 482.390573 
L 618.764071 483.146051 
L 619.084502 483.098023 
L 619.832174 482.371128 
L 620.045795 482.144166 
L 620.152605 482.331388 
L 620.259416 482.223645 
L 620.473036 482.436369 
L 621.007088 482.303231 
L 621.113898 482.303231 
L 621.220709 482.133965 
L 621.434329 481.551047 
L 621.75476 481.282751 
L 621.86157 481.282751 
L 622.075191 480.960903 
L 622.288812 481.164382 
L 622.502432 481.51322 
L 622.609243 482.293774 
L 623.036484 481.634245 
L 623.143294 481.824443 
L 623.250105 481.655177 
L 623.570536 482.040354 
L 623.784156 481.996896 
L 623.890967 482.038867 
L 624.104587 481.681316 
L 624.425018 482.051298 
L 624.638639 481.834431 
L 624.745449 482.03791 
L 624.852259 481.994027 
L 625.493121 481.060783 
L 625.599932 480.98311 
L 625.813552 481.085753 
L 625.920363 480.97801 
L 626.133983 481.119968 
L 626.240794 480.932745 
L 626.668035 481.2632 
L 626.774845 481.368925 
L 626.881655 481.266282 
L 627.202086 481.633076 
L 627.415707 481.514282 
L 627.522517 481.753145 
L 627.629328 481.676535 
L 627.842948 481.956412 
L 627.949759 481.802341 
L 628.163379 481.583774 
L 628.48381 481.806592 
L 628.590621 481.71383 
L 628.804241 482.006777 
L 629.231483 481.597374 
L 629.445103 481.990414 
L 629.658724 482.179868 
L 629.872344 482.269548 
L 629.979155 482.269548 
L 630.192775 481.958537 
L 630.299586 482.03791 
L 630.406396 481.904134 
L 630.620017 482.107614 
L 630.833637 482.028241 
L 631.047258 481.717868 
L 631.154068 481.820511 
L 631.58131 481.441497 
L 631.79493 481.52087 
L 631.901741 481.52087 
L 632.008551 481.71213 
L 632.222171 481.632757 
L 632.435792 481.690454 
L 632.649413 481.503763 
L 632.756223 481.742732 
L 633.290275 481.251193 
L 633.503895 481.193496 
L 633.717516 480.954634 
L 634.144757 481.267238 
L 634.251568 481.161514 
L 634.358378 481.352774 
L 634.465188 481.276163 
L 634.678809 481.580373 
L 634.99924 481.128255 
L 635.10605 481.165657 
L 635.21286 480.962178 
L 635.426481 481.165657 
L 635.960533 481.654646 
L 636.067343 481.610762 
L 636.280964 481.764833 
L 636.815015 481.679404 
L 637.028636 481.679404 
L 637.135446 481.866626 
L 637.242257 481.81913 
L 637.455877 481.62787 
L 637.776308 481.780772 
L 637.883118 481.671753 
L 637.989929 481.793735 
L 638.096739 481.566135 
L 638.203549 481.613631 
L 638.31036 481.426409 
L 638.52398 481.534152 
L 638.737601 481.426409 
L 638.951222 481.384438 
L 639.164842 481.484106 
L 639.271653 481.305384 
L 639.485273 481.614375 
L 639.698894 481.375406 
L 640.446566 481.484212 
L 640.553376 481.709474 
L 640.660187 481.66559 
L 640.766997 481.744963 
L 641.407859 481.413339 
L 641.8351 481.521083 
L 642.048721 481.71128 
L 642.262342 481.55721 
L 642.475962 481.906047 
L 642.582773 481.906047 
L 642.689583 482.060118 
L 643.010014 481.555722 
L 643.223634 481.645402 
L 643.757686 481.717018 
L 643.864496 481.955881 
L 644.184927 481.715212 
L 644.398548 481.946212 
L 644.612169 481.804254 
L 644.825789 481.928361 
L 645.03941 482.070318 
L 645.359841 481.559228 
L 645.573461 481.59663 
L 645.680272 481.80011 
L 645.787082 481.756652 
L 645.893892 481.890427 
L 646.321134 481.108811 
L 647.282427 481.16077 
L 647.496047 481.006699 
L 647.709668 481.127937 
L 647.923289 481.213791 
L 648.243719 480.928389 
L 648.45734 481.164382 
L 648.56415 481.278607 
L 648.884581 480.979391 
L 649.098202 481.113167 
L 649.205012 480.991929 
L 649.311823 481.213366 
L 649.632254 480.751367 
L 649.739064 480.751367 
L 649.952685 481.132824 
L 650.166305 480.922438 
L 650.379926 481.016687 
L 650.486736 480.825427 
L 650.913977 481.267663 
L 651.127598 481.220167 
L 651.341219 481.398889 
L 651.554839 481.195409 
L 651.66165 481.398676 
L 651.87527 481.39262 
L 651.982081 481.39262 
L 652.195701 481.189353 
L 652.409322 481.189353 
L 652.622943 481.518533 
L 652.943374 481.218892 
L 653.050184 481.457754 
L 653.263805 481.236318 
L 653.584235 481.069177 
L 653.797856 481.223248 
L 654.011477 481.332266 
L 654.225097 481.384332 
L 654.759149 480.654887 
L 654.97277 480.846147 
L 655.18639 480.654887 
L 655.293201 480.611003 
L 655.400011 480.713646 
L 655.613632 480.341007 
L 655.934063 480.41868 
L 656.147683 480.709927 
L 656.468114 480.67125 
L 656.681735 481.006168 
L 657.002166 481.009249 
L 657.215786 481.158751 
L 657.322597 481.158751 
L 657.643028 480.710564 
L 657.963459 480.789937 
L 658.177079 480.891093 
L 658.28389 480.81172 
L 658.49751 480.904481 
L 658.711131 480.904481 
L 659.031562 480.61876 
L 659.992855 480.555006 
L 660.206475 480.385741 
L 660.526906 480.443438 
L 660.633717 480.520048 
L 660.847337 480.99788 
L 660.954148 480.950384 
L 661.167768 481.153863 
L 661.381389 480.736172 
L 662.769923 480.686869 
L 662.983544 481.011374 
L 664.051647 480.542787 
L 665.11975 480.582526 
L 665.333371 480.699195 
L 665.546991 480.699195 
L 665.760612 480.832971 
L 665.974233 480.832971 
L 666.294664 480.870373 
L 666.508284 480.667106 
L 666.721905 480.545868 
L 667.149146 480.49274 
L 667.469577 480.062724 
L 667.576387 480.139334 
L 667.683198 479.985263 
L 667.896818 480.064636 
L 668.32406 479.988026 
L 668.644491 479.992595 
L 668.751301 479.992595 
L 668.964922 480.217857 
L 669.285353 480.175886 
L 669.498973 480.414749 
L 669.605784 480.414749 
L 669.819404 480.606009 
L 670.139835 480.500285 
L 670.353456 480.309024 
L 670.780697 480.346426 
L 671.101128 480.483071 
L 671.421559 480.483071 
L 671.63518 480.614722 
L 673.023714 480.671356 
L 673.237334 480.446094 
L 675.480351 480.549268 
L 675.587161 480.592727 
L 675.800782 480.353864 
L 676.762075 480.300736 
L 677.082506 480.060067 
L 677.830178 480.105438 
L 678.47104 480.489446 
L 679.218712 480.280123 
L 680.820867 480.20075 
L 681.141298 480.158779 
L 685.734142 480.170892 
L 685.947762 480.324963 
L 686.161383 480.324963 
L 686.481814 480.085462 
L 689.045262 480.043491 
L 689.258882 479.911841 
L 693.958536 479.988132 
L 694.172157 479.992701 
L 698.44457 479.90164 
L 698.658191 479.791453 
L 871.690909 479.699011 
L 871.690909 479.699011 
" style="fill:none;stroke:#8dd3c7;stroke-linecap:square;stroke-width:1.5;"/>
   </g>
   <g id="line2d_17">
    <path clip-path="url(#p2a8701038d)" d="M 161.509091 480.279273 
L 667.255956 480.279273 
L 667.576387 480.062724 
L 667.790008 479.985263 
L 689.365693 479.911841 
L 689.686124 479.854144 
L 709.339223 479.779446 
L 709.659654 479.737475 
L 871.690909 479.699011 
L 871.690909 479.699011 
" style="fill:none;stroke:#feffb3;stroke-linecap:square;stroke-width:1.5;"/>
   </g>
   <g id="line2d_18">
    <path clip-path="url(#p2a8701038d)" d="M 161.509091 88.887273 
L 162.470384 88.887273 
L 162.684004 104.419457 
L 163.538487 104.419457 
L 163.752108 119.341419 
L 164.60659 119.341419 
L 164.820211 133.677133 
L 165.674693 133.677133 
L 165.888314 147.44963 
L 166.742797 147.44963 
L 166.956417 160.681038 
L 167.8109 160.681038 
L 168.02452 173.392616 
L 168.879003 173.392616 
L 169.092624 185.604786 
L 169.947106 185.604786 
L 170.160727 197.337169 
L 171.015209 197.337169 
L 171.22883 208.608615 
L 172.083313 208.608615 
L 172.296933 219.437232 
L 173.151416 219.437232 
L 173.365036 229.840419 
L 174.219519 229.840419 
L 174.43314 239.834889 
L 175.287622 239.834889 
L 175.501243 249.4367 
L 176.355725 249.4367 
L 176.569346 258.661278 
L 177.423829 258.661278 
L 177.637449 267.523445 
L 178.491932 267.523445 
L 178.705552 276.037439 
L 179.560035 276.037439 
L 179.773656 284.216937 
L 180.628138 284.216937 
L 180.841759 292.075083 
L 181.696241 292.075083 
L 181.909862 299.624501 
L 182.764345 299.624501 
L 182.977965 306.87732 
L 183.832448 306.87732 
L 184.046068 313.845193 
L 184.900551 313.845193 
L 185.114172 320.539315 
L 185.968654 320.539315 
L 186.182275 326.97044 
L 187.036757 326.97044 
L 187.250378 333.148902 
L 188.104861 333.148902 
L 188.318481 339.084627 
L 189.172964 339.084627 
L 189.386584 344.787151 
L 190.241067 344.787151 
L 190.454688 350.265637 
L 191.30917 350.265637 
L 191.522791 355.528886 
L 192.377273 355.528886 
L 192.590894 360.585355 
L 193.445377 360.585355 
L 193.658997 365.443166 
L 194.51348 365.443166 
L 194.7271 370.110126 
L 195.581583 370.110126 
L 195.795204 374.593732 
L 196.649686 374.593732 
L 196.863307 378.901188 
L 197.717789 378.901188 
L 197.93141 383.039414 
L 198.785893 383.039414 
L 198.999513 387.01506 
L 199.853996 387.01506 
L 200.067616 390.834511 
L 200.922099 390.834511 
L 201.13572 394.503905 
L 201.990202 394.503905 
L 202.203823 398.029138 
L 203.058305 398.029138 
L 203.271926 401.415872 
L 204.126409 401.415872 
L 204.340029 404.66955 
L 205.194512 404.66955 
L 205.408132 407.795398 
L 206.262615 407.795398 
L 206.476236 410.798439 
L 207.330718 410.798439 
L 207.544339 413.683498 
L 208.398821 413.683498 
L 208.612442 416.45521 
L 209.466925 416.45521 
L 209.680545 419.118028 
L 210.535028 419.118028 
L 210.748648 421.67623 
L 211.603131 421.67623 
L 211.816752 424.133926 
L 212.671234 424.133926 
L 212.884855 426.495065 
L 213.739337 426.495065 
L 213.952958 428.763441 
L 214.807441 428.763441 
L 215.021061 430.942698 
L 215.875544 430.942698 
L 216.089164 433.036336 
L 216.943647 433.036336 
L 217.157268 435.047721 
L 218.01175 435.047721 
L 218.225371 436.980083 
L 219.079853 436.980083 
L 219.293474 438.836527 
L 220.147957 438.836527 
L 220.361577 440.620036 
L 221.21606 440.620036 
L 221.42968 442.333476 
L 222.284163 442.333476 
L 222.497784 443.979598 
L 223.352266 443.979598 
L 223.565887 445.561048 
L 224.420369 445.561048 
L 224.63399 447.080366 
L 225.488473 447.080366 
L 225.702093 448.539994 
L 226.556576 448.539994 
L 226.770196 449.942277 
L 227.624679 449.942277 
L 227.8383 451.289467 
L 228.692782 451.289467 
L 228.906403 452.58373 
L 229.760885 452.58373 
L 229.974506 453.827144 
L 230.828989 453.827144 
L 231.042609 455.021707 
L 231.897092 455.021707 
L 232.110712 456.169339 
L 232.965195 456.169339 
L 233.178816 457.271883 
L 234.033298 457.271883 
L 234.246919 458.33111 
L 235.101401 458.33111 
L 235.315022 459.348723 
L 236.169505 459.348723 
L 236.383125 460.326357 
L 237.237608 460.326357 
L 237.451228 461.265581 
L 238.305711 461.265581 
L 238.519332 462.167906 
L 239.373814 462.167906 
L 239.587435 463.03478 
L 240.441917 463.03478 
L 240.655538 463.867597 
L 241.510021 463.867597 
L 241.723641 464.667695 
L 242.578124 464.667695 
L 242.791744 465.436359 
L 243.646227 465.436359 
L 243.859848 466.174823 
L 244.71433 466.174823 
L 244.927951 466.884276 
L 245.782433 466.884276 
L 245.996054 467.565855 
L 246.850537 467.565855 
L 247.064157 468.220657 
L 247.91864 468.220657 
L 248.13226 468.849733 
L 248.986743 468.849733 
L 249.200364 469.454095 
L 250.054846 469.454095 
L 250.268467 470.034712 
L 251.122949 470.034712 
L 251.33657 470.592518 
L 252.191053 470.592518 
L 252.404673 471.12841 
L 253.259156 471.12841 
L 253.472776 471.643247 
L 254.327259 471.643247 
L 254.54088 472.137858 
L 255.395362 472.137858 
L 255.608983 472.613037 
L 256.463465 472.613037 
L 256.677086 473.069547 
L 257.531569 473.069547 
L 257.745189 473.508122 
L 258.599672 473.508122 
L 258.813292 473.929466 
L 259.667775 473.929466 
L 259.881396 474.334257 
L 260.735878 474.334257 
L 260.949499 474.723144 
L 261.803981 474.723144 
L 262.017602 475.096753 
L 262.872085 475.096753 
L 263.085705 475.455684 
L 263.940188 475.455684 
L 264.153809 475.800513 
L 265.008291 475.800513 
L 265.221912 476.131795 
L 266.076394 476.131795 
L 266.290015 476.450061 
L 267.144497 476.450061 
L 267.358118 476.755824 
L 268.212601 476.755824 
L 268.426221 477.049573 
L 269.280704 477.049573 
L 269.494325 477.331782 
L 270.348807 477.331782 
L 270.562428 477.602904 
L 271.41691 477.602904 
L 271.630531 477.863374 
L 272.485013 477.863374 
L 272.698634 478.113611 
L 273.553117 478.113611 
L 273.766737 478.354016 
L 274.62122 478.354016 
L 274.834841 478.584977 
L 275.689323 478.584977 
L 275.902944 478.806864 
L 276.757426 478.806864 
L 276.971047 479.020033 
L 277.825529 479.020033 
L 278.03915 479.224827 
L 278.893633 479.224827 
L 279.107253 479.421576 
L 279.961736 479.421576 
L 280.175357 479.610595 
L 281.029839 479.610595 
L 281.24346 479.792187 
L 282.097942 479.792187 
L 282.311563 479.966646 
L 283.166045 479.966646 
L 283.379666 480.13425 
L 284.234149 480.13425 
L 284.447769 480.295269 
L 285.302252 480.295269 
L 285.515873 480.449963 
L 286.370355 480.449963 
L 286.583976 480.598578 
L 287.438458 480.598578 
L 287.652079 480.741356 
L 288.506561 480.741356 
L 288.720182 480.878523 
L 289.574665 480.878523 
L 289.788285 481.010302 
L 290.642768 481.010302 
L 290.856389 481.136903 
L 291.710871 481.136903 
L 291.924492 481.258531 
L 292.778974 481.258531 
L 292.992595 481.37538 
L 293.847077 481.37538 
L 294.060698 481.487638 
L 295.983284 481.595487 
L 296.196905 481.699097 
L 298.11949 481.798638 
L 298.333111 481.894267 
L 300.255697 481.98614 
L 300.469317 482.074403 
L 302.391903 482.159198 
L 302.605524 482.240662 
L 304.528109 482.318926 
L 304.74173 482.394115 
L 306.664316 482.466349 
L 306.877937 482.535746 
L 308.800522 482.602417 
L 309.120953 482.666468 
L 310.936729 482.728002 
L 311.25716 482.787119 
L 313.072935 482.843914 
L 313.393366 482.898477 
L 316.277245 483.001257 
L 316.597676 483.049638 
L 319.481554 483.140774 
L 319.801985 483.183674 
L 322.685864 483.264484 
L 323.113105 483.302524 
L 326.958277 483.40791 
L 327.385518 483.440315 
L 331.23069 483.53009 
L 331.764741 483.557695 
L 336.571206 483.657687 
L 337.212067 483.680279 
L 342.979825 483.780602 
L 343.727497 483.798365 
L 351.52465 483.904628 
L 352.485943 483.917518 
L 363.273786 484.021606 
L 364.87594 484.037869 
L 387.840159 484.148746 
L 391.792141 484.161186 
L 871.690909 484.232727 
L 871.690909 484.232727 
" style="fill:none;stroke:#bfbbd9;stroke-linecap:square;stroke-width:1.5;"/>
   </g>
   <g id="patch_3">
    <path d="M 126 504 
L 126 69.12 
" style="fill:none;stroke:#ffffff;stroke-linecap:square;stroke-linejoin:miter;stroke-width:0.8;"/>
   </g>
   <g id="patch_4">
    <path d="M 907.2 504 
L 907.2 69.12 
" style="fill:none;stroke:#ffffff;stroke-linecap:square;stroke-linejoin:miter;stroke-width:0.8;"/>
   </g>
   <g id="patch_5">
    <path d="M 126 504 
L 907.2 504 
" style="fill:none;stroke:#ffffff;stroke-linecap:square;stroke-linejoin:miter;stroke-width:0.8;"/>
   </g>
   <g id="patch_6">
    <path d="M 126 69.12 
L 907.2 69.12 
" style="fill:none;stroke:#ffffff;stroke-linecap:square;stroke-linejoin:miter;stroke-width:0.8;"/>
   </g>
   <g id="text_18">
    <!-- instance 16 with error 0.0 -->
    <g style="fill:#ffffff;" transform="translate(439.126875 63.12)scale(0.12 -0.12)">
     <defs>
      <path d="M 2834 3397 
L 2834 2853 
Q 2591 2978 2328 3040 
Q 2066 3103 1784 3103 
Q 1356 3103 1142 2972 
Q 928 2841 928 2578 
Q 928 2378 1081 2264 
Q 1234 2150 1697 2047 
L 1894 2003 
Q 2506 1872 2764 1633 
Q 3022 1394 3022 966 
Q 3022 478 2636 193 
Q 2250 -91 1575 -91 
Q 1294 -91 989 -36 
Q 684 19 347 128 
L 347 722 
Q 666 556 975 473 
Q 1284 391 1588 391 
Q 1994 391 2212 530 
Q 2431 669 2431 922 
Q 2431 1156 2273 1281 
Q 2116 1406 1581 1522 
L 1381 1569 
Q 847 1681 609 1914 
Q 372 2147 372 2553 
Q 372 3047 722 3315 
Q 1072 3584 1716 3584 
Q 2034 3584 2315 3537 
Q 2597 3491 2834 3397 
z
" id="DejaVuSans-73" transform="scale(0.015625)"/>
      <path d="M 3122 3366 
L 3122 2828 
Q 2878 2963 2633 3030 
Q 2388 3097 2138 3097 
Q 1578 3097 1268 2742 
Q 959 2388 959 1747 
Q 959 1106 1268 751 
Q 1578 397 2138 397 
Q 2388 397 2633 464 
Q 2878 531 3122 666 
L 3122 134 
Q 2881 22 2623 -34 
Q 2366 -91 2075 -91 
Q 1284 -91 818 406 
Q 353 903 353 1747 
Q 353 2603 823 3093 
Q 1294 3584 2113 3584 
Q 2378 3584 2631 3529 
Q 2884 3475 3122 3366 
z
" id="DejaVuSans-63" transform="scale(0.015625)"/>
      <path id="DejaVuSans-20" transform="scale(0.015625)"/>
      <path d="M 269 3500 
L 844 3500 
L 1563 769 
L 2278 3500 
L 2956 3500 
L 3675 769 
L 4391 3500 
L 4966 3500 
L 4050 0 
L 3372 0 
L 2619 2869 
L 1863 0 
L 1184 0 
L 269 3500 
z
" id="DejaVuSans-77" transform="scale(0.015625)"/>
      <path d="M 3513 2113 
L 3513 0 
L 2938 0 
L 2938 2094 
Q 2938 2591 2744 2837 
Q 2550 3084 2163 3084 
Q 1697 3084 1428 2787 
Q 1159 2491 1159 1978 
L 1159 0 
L 581 0 
L 581 4863 
L 1159 4863 
L 1159 2956 
Q 1366 3272 1645 3428 
Q 1925 3584 2291 3584 
Q 2894 3584 3203 3211 
Q 3513 2838 3513 2113 
z
" id="DejaVuSans-68" transform="scale(0.015625)"/>
     </defs>
     <use xlink:href="#DejaVuSans-69"/>
     <use x="27.783203" xlink:href="#DejaVuSans-6e"/>
     <use x="91.162109" xlink:href="#DejaVuSans-73"/>
     <use x="143.261719" xlink:href="#DejaVuSans-74"/>
     <use x="182.470703" xlink:href="#DejaVuSans-61"/>
     <use x="243.75" xlink:href="#DejaVuSans-6e"/>
     <use x="307.128906" xlink:href="#DejaVuSans-63"/>
     <use x="362.109375" xlink:href="#DejaVuSans-65"/>
     <use x="423.632812" xlink:href="#DejaVuSans-20"/>
     <use x="455.419922" xlink:href="#DejaVuSans-31"/>
     <use x="519.042969" xlink:href="#DejaVuSans-36"/>
     <use x="582.666016" xlink:href="#DejaVuSans-20"/>
     <use x="614.453125" xlink:href="#DejaVuSans-77"/>
     <use x="696.240234" xlink:href="#DejaVuSans-69"/>
     <use x="724.023438" xlink:href="#DejaVuSans-74"/>
     <use x="763.232422" xlink:href="#DejaVuSans-68"/>
     <use x="826.611328" xlink:href="#DejaVuSans-20"/>
     <use x="858.398438" xlink:href="#DejaVuSans-65"/>
     <use x="919.921875" xlink:href="#DejaVuSans-72"/>
     <use x="959.285156" xlink:href="#DejaVuSans-72"/>
     <use x="998.148438" xlink:href="#DejaVuSans-6f"/>
     <use x="1059.330078" xlink:href="#DejaVuSans-72"/>
     <use x="1100.443359" xlink:href="#DejaVuSans-20"/>
     <use x="1132.230469" xlink:href="#DejaVuSans-30"/>
     <use x="1195.853516" xlink:href="#DejaVuSans-2e"/>
     <use x="1227.640625" xlink:href="#DejaVuSans-30"/>
    </g>
   </g>
   <g id="legend_1">
    <g id="patch_7">
     <path d="M 805.348438 499 
L 900.2 499 
Q 902.2 499 902.2 497 
L 902.2 453.965625 
Q 902.2 451.965625 900.2 451.965625 
L 805.348438 451.965625 
Q 803.348438 451.965625 803.348438 453.965625 
L 803.348438 497 
Q 803.348438 499 805.348438 499 
z
" style="opacity:0.8;stroke:#cccccc;stroke-linejoin:miter;"/>
    </g>
    <g id="line2d_19">
     <path d="M 807.348438 460.064062 
L 827.348438 460.064062 
" style="fill:none;stroke:#8dd3c7;stroke-linecap:square;stroke-width:1.5;"/>
    </g>
    <g id="line2d_20"/>
    <g id="text_19">
     <!-- cost -->
     <g style="fill:#ffffff;" transform="translate(835.348438 463.564062)scale(0.1 -0.1)">
      <use xlink:href="#DejaVuSans-63"/>
      <use x="54.980469" xlink:href="#DejaVuSans-6f"/>
      <use x="116.162109" xlink:href="#DejaVuSans-73"/>
      <use x="168.261719" xlink:href="#DejaVuSans-74"/>
     </g>
    </g>
    <g id="line2d_21">
     <path d="M 807.348438 474.742188 
L 827.348438 474.742188 
" style="fill:none;stroke:#feffb3;stroke-linecap:square;stroke-width:1.5;"/>
    </g>
    <g id="line2d_22"/>
    <g id="text_20">
     <!-- best cost -->
     <g style="fill:#ffffff;" transform="translate(835.348438 478.242188)scale(0.1 -0.1)">
      <defs>
       <path d="M 3116 1747 
Q 3116 2381 2855 2742 
Q 2594 3103 2138 3103 
Q 1681 3103 1420 2742 
Q 1159 2381 1159 1747 
Q 1159 1113 1420 752 
Q 1681 391 2138 391 
Q 2594 391 2855 752 
Q 3116 1113 3116 1747 
z
M 1159 2969 
Q 1341 3281 1617 3432 
Q 1894 3584 2278 3584 
Q 2916 3584 3314 3078 
Q 3713 2572 3713 1747 
Q 3713 922 3314 415 
Q 2916 -91 2278 -91 
Q 1894 -91 1617 61 
Q 1341 213 1159 525 
L 1159 0 
L 581 0 
L 581 4863 
L 1159 4863 
L 1159 2969 
z
" id="DejaVuSans-62" transform="scale(0.015625)"/>
      </defs>
      <use xlink:href="#DejaVuSans-62"/>
      <use x="63.476562" xlink:href="#DejaVuSans-65"/>
      <use x="125" xlink:href="#DejaVuSans-73"/>
      <use x="177.099609" xlink:href="#DejaVuSans-74"/>
      <use x="216.308594" xlink:href="#DejaVuSans-20"/>
      <use x="248.095703" xlink:href="#DejaVuSans-63"/>
      <use x="303.076172" xlink:href="#DejaVuSans-6f"/>
      <use x="364.257812" xlink:href="#DejaVuSans-73"/>
      <use x="416.357422" xlink:href="#DejaVuSans-74"/>
     </g>
    </g>
    <g id="line2d_23">
     <path d="M 807.348438 489.420313 
L 827.348438 489.420313 
" style="fill:none;stroke:#bfbbd9;stroke-linecap:square;stroke-width:1.5;"/>
    </g>
    <g id="line2d_24"/>
    <g id="text_21">
     <!-- temperature -->
     <g style="fill:#ffffff;" transform="translate(835.348438 492.920313)scale(0.1 -0.1)">
      <defs>
       <path d="M 3328 2828 
Q 3544 3216 3844 3400 
Q 4144 3584 4550 3584 
Q 5097 3584 5394 3201 
Q 5691 2819 5691 2113 
L 5691 0 
L 5113 0 
L 5113 2094 
Q 5113 2597 4934 2840 
Q 4756 3084 4391 3084 
Q 3944 3084 3684 2787 
Q 3425 2491 3425 1978 
L 3425 0 
L 2847 0 
L 2847 2094 
Q 2847 2600 2669 2842 
Q 2491 3084 2119 3084 
Q 1678 3084 1418 2786 
Q 1159 2488 1159 1978 
L 1159 0 
L 581 0 
L 581 3500 
L 1159 3500 
L 1159 2956 
Q 1356 3278 1631 3431 
Q 1906 3584 2284 3584 
Q 2666 3584 2933 3390 
Q 3200 3197 3328 2828 
z
" id="DejaVuSans-6d" transform="scale(0.015625)"/>
       <path d="M 1159 525 
L 1159 -1331 
L 581 -1331 
L 581 3500 
L 1159 3500 
L 1159 2969 
Q 1341 3281 1617 3432 
Q 1894 3584 2278 3584 
Q 2916 3584 3314 3078 
Q 3713 2572 3713 1747 
Q 3713 922 3314 415 
Q 2916 -91 2278 -91 
Q 1894 -91 1617 61 
Q 1341 213 1159 525 
z
M 3116 1747 
Q 3116 2381 2855 2742 
Q 2594 3103 2138 3103 
Q 1681 3103 1420 2742 
Q 1159 2381 1159 1747 
Q 1159 1113 1420 752 
Q 1681 391 2138 391 
Q 2594 391 2855 752 
Q 3116 1113 3116 1747 
z
" id="DejaVuSans-70" transform="scale(0.015625)"/>
       <path d="M 544 1381 
L 544 3500 
L 1119 3500 
L 1119 1403 
Q 1119 906 1312 657 
Q 1506 409 1894 409 
Q 2359 409 2629 706 
Q 2900 1003 2900 1516 
L 2900 3500 
L 3475 3500 
L 3475 0 
L 2900 0 
L 2900 538 
Q 2691 219 2414 64 
Q 2138 -91 1772 -91 
Q 1169 -91 856 284 
Q 544 659 544 1381 
z
M 1991 3584 
L 1991 3584 
z
" id="DejaVuSans-75" transform="scale(0.015625)"/>
      </defs>
      <use xlink:href="#DejaVuSans-74"/>
      <use x="39.208984" xlink:href="#DejaVuSans-65"/>
      <use x="100.732422" xlink:href="#DejaVuSans-6d"/>
      <use x="198.144531" xlink:href="#DejaVuSans-70"/>
      <use x="261.621094" xlink:href="#DejaVuSans-65"/>
      <use x="323.144531" xlink:href="#DejaVuSans-72"/>
      <use x="364.257812" xlink:href="#DejaVuSans-61"/>
      <use x="425.537109" xlink:href="#DejaVuSans-74"/>
      <use x="464.746094" xlink:href="#DejaVuSans-75"/>
      <use x="528.125" xlink:href="#DejaVuSans-72"/>
      <use x="566.988281" xlink:href="#DejaVuSans-65"/>
     </g>
    </g>
   </g>
  </g>
 </g>
 <defs>
  <clipPath id="p2a8701038d">
   <rect height="434.88" width="781.2" x="126" y="69.12"/>
  </clipPath>
 </defs>
</svg>
