<?xml version="1.0" encoding="utf-8" standalone="no"?>
<!DOCTYPE svg PUBLIC "-//W3C//DTD SVG 1.1//EN"
  "http://www.w3.org/Graphics/SVG/1.1/DTD/svg11.dtd">
<svg height="576pt" version="1.1" viewBox="0 0 1008 576" width="1008pt" xmlns="http://www.w3.org/2000/svg" xmlns:xlink="http://www.w3.org/1999/xlink">
 <metadata>
  <rdf:RDF xmlns:cc="http://creativecommons.org/ns#" xmlns:dc="http://purl.org/dc/elements/1.1/" xmlns:rdf="http://www.w3.org/1999/02/22-rdf-syntax-ns#">
   <cc:Work>
    <dc:type rdf:resource="http://purl.org/dc/dcmitype/StillImage"/>
    <dc:date>2022-01-13T19:11:11.042268</dc:date>
    <dc:format>image/svg+xml</dc:format>
    <dc:creator>
     <cc:Agent>
      <dc:title>Matplotlib v3.4.3, https://matplotlib.org/</dc:title>
     </cc:Agent>
    </dc:creator>
   </cc:Work>
  </rdf:RDF>
 </metadata>
 <defs>
  <style type="text/css">*{stroke-linecap:butt;stroke-linejoin:round;}</style>
 </defs>
 <g id="figure_1">
  <g id="patch_1">
   <path d="M 0 576 
L 1008 576 
L 1008 0 
L 0 0 
z
"/>
  </g>
  <g id="axes_1">
   <g id="patch_2">
    <path d="M 126 504 
L 907.2 504 
L 907.2 69.12 
L 126 69.12 
z
"/>
   </g>
   <g id="matplotlib.axis_1">
    <g id="xtick_1">
     <g id="line2d_1">
      <defs>
       <path d="M 0 0 
L 0 3.5 
" id="m97d8ce1f05" style="stroke:#ffffff;stroke-width:0.8;"/>
      </defs>
      <g>
       <use style="fill:#ffffff;stroke:#ffffff;stroke-width:0.8;" x="161.509091" xlink:href="#m97d8ce1f05" y="504"/>
      </g>
     </g>
     <g id="text_1">
      <!-- 0 -->
      <g style="fill:#ffffff;" transform="translate(158.327841 518.598438)scale(0.1 -0.1)">
       <defs>
        <path d="M 2034 4250 
Q 1547 4250 1301 3770 
Q 1056 3291 1056 2328 
Q 1056 1369 1301 889 
Q 1547 409 2034 409 
Q 2525 409 2770 889 
Q 3016 1369 3016 2328 
Q 3016 3291 2770 3770 
Q 2525 4250 2034 4250 
z
M 2034 4750 
Q 2819 4750 3233 4129 
Q 3647 3509 3647 2328 
Q 3647 1150 3233 529 
Q 2819 -91 2034 -91 
Q 1250 -91 836 529 
Q 422 1150 422 2328 
Q 422 3509 836 4129 
Q 1250 4750 2034 4750 
z
" id="DejaVuSans-30" transform="scale(0.015625)"/>
       </defs>
       <use xlink:href="#DejaVuSans-30"/>
      </g>
     </g>
    </g>
    <g id="xtick_2">
     <g id="line2d_2">
      <g>
       <use style="fill:#ffffff;stroke:#ffffff;stroke-width:0.8;" x="291.364973" xlink:href="#m97d8ce1f05" y="504"/>
      </g>
     </g>
     <g id="text_2">
      <!-- 1000 -->
      <g style="fill:#ffffff;" transform="translate(278.639973 518.598438)scale(0.1 -0.1)">
       <defs>
        <path d="M 794 531 
L 1825 531 
L 1825 4091 
L 703 3866 
L 703 4441 
L 1819 4666 
L 2450 4666 
L 2450 531 
L 3481 531 
L 3481 0 
L 794 0 
L 794 531 
z
" id="DejaVuSans-31" transform="scale(0.015625)"/>
       </defs>
       <use xlink:href="#DejaVuSans-31"/>
       <use x="63.623047" xlink:href="#DejaVuSans-30"/>
       <use x="127.246094" xlink:href="#DejaVuSans-30"/>
       <use x="190.869141" xlink:href="#DejaVuSans-30"/>
      </g>
     </g>
    </g>
    <g id="xtick_3">
     <g id="line2d_3">
      <g>
       <use style="fill:#ffffff;stroke:#ffffff;stroke-width:0.8;" x="421.220855" xlink:href="#m97d8ce1f05" y="504"/>
      </g>
     </g>
     <g id="text_3">
      <!-- 2000 -->
      <g style="fill:#ffffff;" transform="translate(408.495855 518.598438)scale(0.1 -0.1)">
       <defs>
        <path d="M 1228 531 
L 3431 531 
L 3431 0 
L 469 0 
L 469 531 
Q 828 903 1448 1529 
Q 2069 2156 2228 2338 
Q 2531 2678 2651 2914 
Q 2772 3150 2772 3378 
Q 2772 3750 2511 3984 
Q 2250 4219 1831 4219 
Q 1534 4219 1204 4116 
Q 875 4013 500 3803 
L 500 4441 
Q 881 4594 1212 4672 
Q 1544 4750 1819 4750 
Q 2544 4750 2975 4387 
Q 3406 4025 3406 3419 
Q 3406 3131 3298 2873 
Q 3191 2616 2906 2266 
Q 2828 2175 2409 1742 
Q 1991 1309 1228 531 
z
" id="DejaVuSans-32" transform="scale(0.015625)"/>
       </defs>
       <use xlink:href="#DejaVuSans-32"/>
       <use x="63.623047" xlink:href="#DejaVuSans-30"/>
       <use x="127.246094" xlink:href="#DejaVuSans-30"/>
       <use x="190.869141" xlink:href="#DejaVuSans-30"/>
      </g>
     </g>
    </g>
    <g id="xtick_4">
     <g id="line2d_4">
      <g>
       <use style="fill:#ffffff;stroke:#ffffff;stroke-width:0.8;" x="551.076737" xlink:href="#m97d8ce1f05" y="504"/>
      </g>
     </g>
     <g id="text_4">
      <!-- 3000 -->
      <g style="fill:#ffffff;" transform="translate(538.351737 518.598438)scale(0.1 -0.1)">
       <defs>
        <path d="M 2597 2516 
Q 3050 2419 3304 2112 
Q 3559 1806 3559 1356 
Q 3559 666 3084 287 
Q 2609 -91 1734 -91 
Q 1441 -91 1130 -33 
Q 819 25 488 141 
L 488 750 
Q 750 597 1062 519 
Q 1375 441 1716 441 
Q 2309 441 2620 675 
Q 2931 909 2931 1356 
Q 2931 1769 2642 2001 
Q 2353 2234 1838 2234 
L 1294 2234 
L 1294 2753 
L 1863 2753 
Q 2328 2753 2575 2939 
Q 2822 3125 2822 3475 
Q 2822 3834 2567 4026 
Q 2313 4219 1838 4219 
Q 1578 4219 1281 4162 
Q 984 4106 628 3988 
L 628 4550 
Q 988 4650 1302 4700 
Q 1616 4750 1894 4750 
Q 2613 4750 3031 4423 
Q 3450 4097 3450 3541 
Q 3450 3153 3228 2886 
Q 3006 2619 2597 2516 
z
" id="DejaVuSans-33" transform="scale(0.015625)"/>
       </defs>
       <use xlink:href="#DejaVuSans-33"/>
       <use x="63.623047" xlink:href="#DejaVuSans-30"/>
       <use x="127.246094" xlink:href="#DejaVuSans-30"/>
       <use x="190.869141" xlink:href="#DejaVuSans-30"/>
      </g>
     </g>
    </g>
    <g id="xtick_5">
     <g id="line2d_5">
      <g>
       <use style="fill:#ffffff;stroke:#ffffff;stroke-width:0.8;" x="680.932619" xlink:href="#m97d8ce1f05" y="504"/>
      </g>
     </g>
     <g id="text_5">
      <!-- 4000 -->
      <g style="fill:#ffffff;" transform="translate(668.207619 518.598438)scale(0.1 -0.1)">
       <defs>
        <path d="M 2419 4116 
L 825 1625 
L 2419 1625 
L 2419 4116 
z
M 2253 4666 
L 3047 4666 
L 3047 1625 
L 3713 1625 
L 3713 1100 
L 3047 1100 
L 3047 0 
L 2419 0 
L 2419 1100 
L 313 1100 
L 313 1709 
L 2253 4666 
z
" id="DejaVuSans-34" transform="scale(0.015625)"/>
       </defs>
       <use xlink:href="#DejaVuSans-34"/>
       <use x="63.623047" xlink:href="#DejaVuSans-30"/>
       <use x="127.246094" xlink:href="#DejaVuSans-30"/>
       <use x="190.869141" xlink:href="#DejaVuSans-30"/>
      </g>
     </g>
    </g>
    <g id="xtick_6">
     <g id="line2d_6">
      <g>
       <use style="fill:#ffffff;stroke:#ffffff;stroke-width:0.8;" x="810.7885" xlink:href="#m97d8ce1f05" y="504"/>
      </g>
     </g>
     <g id="text_6">
      <!-- 5000 -->
      <g style="fill:#ffffff;" transform="translate(798.0635 518.598438)scale(0.1 -0.1)">
       <defs>
        <path d="M 691 4666 
L 3169 4666 
L 3169 4134 
L 1269 4134 
L 1269 2991 
Q 1406 3038 1543 3061 
Q 1681 3084 1819 3084 
Q 2600 3084 3056 2656 
Q 3513 2228 3513 1497 
Q 3513 744 3044 326 
Q 2575 -91 1722 -91 
Q 1428 -91 1123 -41 
Q 819 9 494 109 
L 494 744 
Q 775 591 1075 516 
Q 1375 441 1709 441 
Q 2250 441 2565 725 
Q 2881 1009 2881 1497 
Q 2881 1984 2565 2268 
Q 2250 2553 1709 2553 
Q 1456 2553 1204 2497 
Q 953 2441 691 2322 
L 691 4666 
z
" id="DejaVuSans-35" transform="scale(0.015625)"/>
       </defs>
       <use xlink:href="#DejaVuSans-35"/>
       <use x="63.623047" xlink:href="#DejaVuSans-30"/>
       <use x="127.246094" xlink:href="#DejaVuSans-30"/>
       <use x="190.869141" xlink:href="#DejaVuSans-30"/>
      </g>
     </g>
    </g>
    <g id="text_7">
     <!-- iteration -->
     <g style="fill:#ffffff;" transform="translate(495.477344 532.276562)scale(0.1 -0.1)">
      <defs>
       <path d="M 603 3500 
L 1178 3500 
L 1178 0 
L 603 0 
L 603 3500 
z
M 603 4863 
L 1178 4863 
L 1178 4134 
L 603 4134 
L 603 4863 
z
" id="DejaVuSans-69" transform="scale(0.015625)"/>
       <path d="M 1172 4494 
L 1172 3500 
L 2356 3500 
L 2356 3053 
L 1172 3053 
L 1172 1153 
Q 1172 725 1289 603 
Q 1406 481 1766 481 
L 2356 481 
L 2356 0 
L 1766 0 
Q 1100 0 847 248 
Q 594 497 594 1153 
L 594 3053 
L 172 3053 
L 172 3500 
L 594 3500 
L 594 4494 
L 1172 4494 
z
" id="DejaVuSans-74" transform="scale(0.015625)"/>
       <path d="M 3597 1894 
L 3597 1613 
L 953 1613 
Q 991 1019 1311 708 
Q 1631 397 2203 397 
Q 2534 397 2845 478 
Q 3156 559 3463 722 
L 3463 178 
Q 3153 47 2828 -22 
Q 2503 -91 2169 -91 
Q 1331 -91 842 396 
Q 353 884 353 1716 
Q 353 2575 817 3079 
Q 1281 3584 2069 3584 
Q 2775 3584 3186 3129 
Q 3597 2675 3597 1894 
z
M 3022 2063 
Q 3016 2534 2758 2815 
Q 2500 3097 2075 3097 
Q 1594 3097 1305 2825 
Q 1016 2553 972 2059 
L 3022 2063 
z
" id="DejaVuSans-65" transform="scale(0.015625)"/>
       <path d="M 2631 2963 
Q 2534 3019 2420 3045 
Q 2306 3072 2169 3072 
Q 1681 3072 1420 2755 
Q 1159 2438 1159 1844 
L 1159 0 
L 581 0 
L 581 3500 
L 1159 3500 
L 1159 2956 
Q 1341 3275 1631 3429 
Q 1922 3584 2338 3584 
Q 2397 3584 2469 3576 
Q 2541 3569 2628 3553 
L 2631 2963 
z
" id="DejaVuSans-72" transform="scale(0.015625)"/>
       <path d="M 2194 1759 
Q 1497 1759 1228 1600 
Q 959 1441 959 1056 
Q 959 750 1161 570 
Q 1363 391 1709 391 
Q 2188 391 2477 730 
Q 2766 1069 2766 1631 
L 2766 1759 
L 2194 1759 
z
M 3341 1997 
L 3341 0 
L 2766 0 
L 2766 531 
Q 2569 213 2275 61 
Q 1981 -91 1556 -91 
Q 1019 -91 701 211 
Q 384 513 384 1019 
Q 384 1609 779 1909 
Q 1175 2209 1959 2209 
L 2766 2209 
L 2766 2266 
Q 2766 2663 2505 2880 
Q 2244 3097 1772 3097 
Q 1472 3097 1187 3025 
Q 903 2953 641 2809 
L 641 3341 
Q 956 3463 1253 3523 
Q 1550 3584 1831 3584 
Q 2591 3584 2966 3190 
Q 3341 2797 3341 1997 
z
" id="DejaVuSans-61" transform="scale(0.015625)"/>
       <path d="M 1959 3097 
Q 1497 3097 1228 2736 
Q 959 2375 959 1747 
Q 959 1119 1226 758 
Q 1494 397 1959 397 
Q 2419 397 2687 759 
Q 2956 1122 2956 1747 
Q 2956 2369 2687 2733 
Q 2419 3097 1959 3097 
z
M 1959 3584 
Q 2709 3584 3137 3096 
Q 3566 2609 3566 1747 
Q 3566 888 3137 398 
Q 2709 -91 1959 -91 
Q 1206 -91 779 398 
Q 353 888 353 1747 
Q 353 2609 779 3096 
Q 1206 3584 1959 3584 
z
" id="DejaVuSans-6f" transform="scale(0.015625)"/>
       <path d="M 3513 2113 
L 3513 0 
L 2938 0 
L 2938 2094 
Q 2938 2591 2744 2837 
Q 2550 3084 2163 3084 
Q 1697 3084 1428 2787 
Q 1159 2491 1159 1978 
L 1159 0 
L 581 0 
L 581 3500 
L 1159 3500 
L 1159 2956 
Q 1366 3272 1645 3428 
Q 1925 3584 2291 3584 
Q 2894 3584 3203 3211 
Q 3513 2838 3513 2113 
z
" id="DejaVuSans-6e" transform="scale(0.015625)"/>
      </defs>
      <use xlink:href="#DejaVuSans-69"/>
      <use x="27.783203" xlink:href="#DejaVuSans-74"/>
      <use x="66.992188" xlink:href="#DejaVuSans-65"/>
      <use x="128.515625" xlink:href="#DejaVuSans-72"/>
      <use x="169.628906" xlink:href="#DejaVuSans-61"/>
      <use x="230.908203" xlink:href="#DejaVuSans-74"/>
      <use x="270.117188" xlink:href="#DejaVuSans-69"/>
      <use x="297.900391" xlink:href="#DejaVuSans-6f"/>
      <use x="359.082031" xlink:href="#DejaVuSans-6e"/>
     </g>
    </g>
   </g>
   <g id="matplotlib.axis_2">
    <g id="ytick_1">
     <g id="line2d_7">
      <defs>
       <path d="M 0 0 
L -3.5 0 
" id="m61afb614cd" style="stroke:#ffffff;stroke-width:0.8;"/>
      </defs>
      <g>
       <use style="fill:#ffffff;stroke:#ffffff;stroke-width:0.8;" x="126" xlink:href="#m61afb614cd" y="484.232727"/>
      </g>
     </g>
     <g id="text_8">
      <!-- 0 -->
      <g style="fill:#ffffff;" transform="translate(112.6375 488.031946)scale(0.1 -0.1)">
       <use xlink:href="#DejaVuSans-30"/>
      </g>
     </g>
    </g>
    <g id="ytick_2">
     <g id="line2d_8">
      <g>
       <use style="fill:#ffffff;stroke:#ffffff;stroke-width:0.8;" x="126" xlink:href="#m61afb614cd" y="435.015107"/>
      </g>
     </g>
     <g id="text_9">
      <!-- 5000 -->
      <g style="fill:#ffffff;" transform="translate(93.55 438.814326)scale(0.1 -0.1)">
       <use xlink:href="#DejaVuSans-35"/>
       <use x="63.623047" xlink:href="#DejaVuSans-30"/>
       <use x="127.246094" xlink:href="#DejaVuSans-30"/>
       <use x="190.869141" xlink:href="#DejaVuSans-30"/>
      </g>
     </g>
    </g>
    <g id="ytick_3">
     <g id="line2d_9">
      <g>
       <use style="fill:#ffffff;stroke:#ffffff;stroke-width:0.8;" x="126" xlink:href="#m61afb614cd" y="385.797487"/>
      </g>
     </g>
     <g id="text_10">
      <!-- 10000 -->
      <g style="fill:#ffffff;" transform="translate(87.1875 389.596706)scale(0.1 -0.1)">
       <use xlink:href="#DejaVuSans-31"/>
       <use x="63.623047" xlink:href="#DejaVuSans-30"/>
       <use x="127.246094" xlink:href="#DejaVuSans-30"/>
       <use x="190.869141" xlink:href="#DejaVuSans-30"/>
       <use x="254.492188" xlink:href="#DejaVuSans-30"/>
      </g>
     </g>
    </g>
    <g id="ytick_4">
     <g id="line2d_10">
      <g>
       <use style="fill:#ffffff;stroke:#ffffff;stroke-width:0.8;" x="126" xlink:href="#m61afb614cd" y="336.579867"/>
      </g>
     </g>
     <g id="text_11">
      <!-- 15000 -->
      <g style="fill:#ffffff;" transform="translate(87.1875 340.379086)scale(0.1 -0.1)">
       <use xlink:href="#DejaVuSans-31"/>
       <use x="63.623047" xlink:href="#DejaVuSans-35"/>
       <use x="127.246094" xlink:href="#DejaVuSans-30"/>
       <use x="190.869141" xlink:href="#DejaVuSans-30"/>
       <use x="254.492188" xlink:href="#DejaVuSans-30"/>
      </g>
     </g>
    </g>
    <g id="ytick_5">
     <g id="line2d_11">
      <g>
       <use style="fill:#ffffff;stroke:#ffffff;stroke-width:0.8;" x="126" xlink:href="#m61afb614cd" y="287.362247"/>
      </g>
     </g>
     <g id="text_12">
      <!-- 20000 -->
      <g style="fill:#ffffff;" transform="translate(87.1875 291.161466)scale(0.1 -0.1)">
       <use xlink:href="#DejaVuSans-32"/>
       <use x="63.623047" xlink:href="#DejaVuSans-30"/>
       <use x="127.246094" xlink:href="#DejaVuSans-30"/>
       <use x="190.869141" xlink:href="#DejaVuSans-30"/>
       <use x="254.492188" xlink:href="#DejaVuSans-30"/>
      </g>
     </g>
    </g>
    <g id="ytick_6">
     <g id="line2d_12">
      <g>
       <use style="fill:#ffffff;stroke:#ffffff;stroke-width:0.8;" x="126" xlink:href="#m61afb614cd" y="238.144627"/>
      </g>
     </g>
     <g id="text_13">
      <!-- 25000 -->
      <g style="fill:#ffffff;" transform="translate(87.1875 241.943846)scale(0.1 -0.1)">
       <use xlink:href="#DejaVuSans-32"/>
       <use x="63.623047" xlink:href="#DejaVuSans-35"/>
       <use x="127.246094" xlink:href="#DejaVuSans-30"/>
       <use x="190.869141" xlink:href="#DejaVuSans-30"/>
       <use x="254.492188" xlink:href="#DejaVuSans-30"/>
      </g>
     </g>
    </g>
    <g id="ytick_7">
     <g id="line2d_13">
      <g>
       <use style="fill:#ffffff;stroke:#ffffff;stroke-width:0.8;" x="126" xlink:href="#m61afb614cd" y="188.927007"/>
      </g>
     </g>
     <g id="text_14">
      <!-- 30000 -->
      <g style="fill:#ffffff;" transform="translate(87.1875 192.726226)scale(0.1 -0.1)">
       <use xlink:href="#DejaVuSans-33"/>
       <use x="63.623047" xlink:href="#DejaVuSans-30"/>
       <use x="127.246094" xlink:href="#DejaVuSans-30"/>
       <use x="190.869141" xlink:href="#DejaVuSans-30"/>
       <use x="254.492188" xlink:href="#DejaVuSans-30"/>
      </g>
     </g>
    </g>
    <g id="ytick_8">
     <g id="line2d_14">
      <g>
       <use style="fill:#ffffff;stroke:#ffffff;stroke-width:0.8;" x="126" xlink:href="#m61afb614cd" y="139.709387"/>
      </g>
     </g>
     <g id="text_15">
      <!-- 35000 -->
      <g style="fill:#ffffff;" transform="translate(87.1875 143.508606)scale(0.1 -0.1)">
       <use xlink:href="#DejaVuSans-33"/>
       <use x="63.623047" xlink:href="#DejaVuSans-35"/>
       <use x="127.246094" xlink:href="#DejaVuSans-30"/>
       <use x="190.869141" xlink:href="#DejaVuSans-30"/>
       <use x="254.492188" xlink:href="#DejaVuSans-30"/>
      </g>
     </g>
    </g>
    <g id="ytick_9">
     <g id="line2d_15">
      <g>
       <use style="fill:#ffffff;stroke:#ffffff;stroke-width:0.8;" x="126" xlink:href="#m61afb614cd" y="90.491767"/>
      </g>
     </g>
     <g id="text_16">
      <!-- 40000 -->
      <g style="fill:#ffffff;" transform="translate(87.1875 94.290986)scale(0.1 -0.1)">
       <use xlink:href="#DejaVuSans-34"/>
       <use x="63.623047" xlink:href="#DejaVuSans-30"/>
       <use x="127.246094" xlink:href="#DejaVuSans-30"/>
       <use x="190.869141" xlink:href="#DejaVuSans-30"/>
       <use x="254.492188" xlink:href="#DejaVuSans-30"/>
      </g>
     </g>
    </g>
   </g>
   <g id="line2d_16">
    <path clip-path="url(#p0dd09a91a5)" d="M 161.509091 167.753587 
L 161.768803 203.328083 
L 161.898659 189.182939 
L 162.028514 212.138037 
L 162.15837 206.182705 
L 162.288226 213.142076 
L 162.418082 227.562839 
L 162.677794 298.308246 
L 162.80765 289.606571 
L 162.937506 293.721164 
L 163.197217 329.610652 
L 163.327073 312.994784 
L 163.456929 322.365819 
L 163.586785 308.220675 
L 163.846497 331.795915 
L 164.106209 293.671946 
L 164.236064 297.786539 
L 164.625632 253.470994 
L 164.755488 270.086863 
L 164.885344 260.656767 
L 165.0152 267.143649 
L 165.145056 252.722886 
L 165.274911 256.876853 
L 165.534623 272.262281 
L 165.664479 258.117137 
L 165.924191 288.17926 
L 166.054047 301.172711 
L 166.183903 295.463468 
L 166.443614 331.047807 
L 166.703326 310.02204 
L 166.963038 285.019489 
L 167.22275 303.505627 
L 167.482461 268.265811 
L 167.612317 251.649942 
L 167.872029 281.032861 
L 168.001885 300.926623 
L 168.131741 290.354679 
L 168.261597 270.460917 
L 168.391453 294.57755 
L 168.521309 278.345579 
L 168.651164 282.460172 
L 168.78102 302.353934 
L 168.910876 287.933172 
L 169.040732 304.165143 
L 169.170588 301.359738 
L 169.300444 304.165143 
L 169.4303 317.158594 
L 169.690011 277.361227 
L 169.819867 255.469229 
L 169.949723 262.428601 
L 170.079579 279.044469 
L 170.339291 253.707239 
L 170.469147 266.051018 
L 170.599003 256.620922 
L 170.728859 237.701669 
L 170.858714 244.218082 
L 170.98857 259.898815 
L 171.248282 239.916462 
L 171.378138 264.033095 
L 171.507994 259.918502 
L 172.027417 330.900154 
L 172.157273 311.006392 
L 172.287129 320.436488 
L 172.416985 308.092709 
L 172.546841 318.664654 
L 172.676697 312.138397 
L 172.806553 324.482176 
L 172.936409 317.965763 
L 173.066264 340.920861 
L 173.19612 328.577082 
L 173.325976 346.620262 
L 173.585688 337.288601 
L 173.715544 312.935723 
L 173.8454 314.953645 
L 173.975256 319.068238 
L 174.105111 331.412017 
L 174.234967 309.972822 
L 174.494679 350.104869 
L 174.624535 372.351234 
L 174.754391 347.998355 
L 174.884247 369.43755 
L 175.143959 329.423625 
L 175.273814 353.776504 
L 175.40367 343.204559 
L 175.663382 314.825679 
L 175.793238 336.245187 
L 175.923094 334.886781 
L 176.05295 325.456685 
L 176.182806 349.573319 
L 176.312661 337.22954 
L 176.442517 143.833824 
L 176.572373 157.978968 
L 176.702229 151.521616 
L 176.832085 175.63825 
L 177.091797 159.691741 
L 177.221653 156.886337 
L 177.481364 195.07921 
L 177.61122 190.964617 
L 177.741076 207.580485 
L 177.870932 191.801316 
L 178.2605 237.613077 
L 178.390356 229.35436 
L 178.520211 212.738492 
L 178.650067 213.388164 
L 178.909779 185.068346 
L 179.169491 220.288475 
L 179.299347 202.245295 
L 179.429203 208.732177 
L 179.559058 221.725629 
L 179.688914 207.580485 
L 179.948626 246.216317 
L 180.078482 239.729435 
L 180.208338 257.772614 
L 180.338194 242.09188 
L 180.46805 258.323851 
L 180.857617 216.577466 
L 180.987473 230.998229 
L 181.117329 228.192824 
L 181.247185 215.199373 
L 181.377041 218.004777 
L 181.506897 230.348556 
L 181.636753 215.927794 
L 181.766608 228.921245 
L 182.02632 207.31471 
L 182.156176 216.744806 
L 182.286032 216.744806 
L 182.415888 200.512835 
L 182.6756 238.567899 
L 182.805456 225.574447 
L 182.935311 239.99521 
L 183.065167 232.021955 
L 183.324879 352.959491 
L 183.454735 354.554142 
L 183.714447 326.509942 
L 184.104014 364.633911 
L 184.363726 334.99506 
L 184.493582 201.182195 
L 184.623438 224.137293 
L 184.753294 199.784414 
L 185.013006 239.581782 
L 185.142861 223.901048 
L 185.272717 230.427304 
L 185.402573 250.321066 
L 185.532429 236.175922 
L 185.662285 248.519702 
L 185.921997 237.918226 
L 186.051853 231.962894 
L 186.181708 237.672138 
L 186.44142 217.778376 
L 186.571276 223.733708 
L 186.701132 239.414442 
L 186.960844 208.771552 
L 187.0907 207.176901 
L 187.220556 214.835162 
L 187.480267 242.406873 
L 187.610123 225.791005 
L 188.259403 286.820853 
L 188.389258 271.041684 
L 188.519114 295.158318 
L 188.64897 250.714807 
L 188.778826 265.13557 
L 188.908682 252.142118 
L 189.168394 270.697161 
L 189.29825 263.73779 
L 189.557961 292.411975 
L 189.687817 288.297382 
L 189.817673 266.405385 
L 189.947529 272.114629 
L 190.207241 237.298084 
L 190.337097 267.419268 
L 190.466953 253.274124 
L 190.596808 256.079528 
L 190.726664 270.559352 
L 190.85652 263.924817 
L 190.986376 281.101766 
L 191.116232 265.204475 
L 191.246088 272.104785 
L 191.375944 256.424051 
L 191.5058 272.20322 
L 191.635656 249.956856 
L 192.025223 298.839796 
L 192.284935 274.250673 
L 192.414791 296.497038 
L 192.544647 279.320088 
L 192.674503 289.892033 
L 192.804358 314.244911 
L 193.06407 269.998271 
L 193.453638 311.911996 
L 193.843206 294.794108 
L 193.973061 224.294789 
L 194.102917 218.802103 
L 194.362629 265.873834 
L 194.752197 211.695078 
L 194.882053 222.267023 
L 195.011908 215.740767 
L 195.141764 201.320004 
L 195.27162 210.641821 
L 195.401476 232.081016 
L 195.661188 197.274316 
L 195.9209 240.546447 
L 196.050755 218.300083 
L 196.180611 236.343262 
L 196.440323 205.956304 
L 196.700035 239.375068 
L 196.829891 220.455815 
L 196.959747 227.356125 
L 197.219458 199.144585 
L 197.47917 228.635783 
L 197.609026 243.056546 
L 197.738882 232.484601 
L 197.868738 254.730965 
L 197.998594 230.378087 
L 198.12845 246.993955 
L 198.388161 233.980817 
L 198.518017 243.410913 
L 198.647873 287.391778 
L 198.777729 284.586373 
L 198.907585 275.156277 
L 199.037441 274.152238 
L 199.167297 283.523273 
L 199.297153 277.00686 
L 199.556864 307.472567 
L 199.68672 283.355933 
L 199.946432 311.311541 
L 200.076288 319.284796 
L 200.465855 265.97227 
L 200.725567 295.296128 
L 200.855423 275.402366 
L 201.115135 307.639907 
L 201.244991 287.746145 
L 201.634558 333.380722 
L 201.764414 326.421351 
L 201.89427 304.529353 
L 202.024126 322.572533 
L 202.283838 290.177495 
L 202.673405 341.127575 
L 202.803261 333.154321 
L 202.933117 355.046318 
L 203.192829 330.053611 
L 203.322685 354.170245 
L 203.582397 315.977372 
L 203.712253 334.896625 
L 203.842108 328.370368 
L 203.971964 312.473077 
L 204.10182 316.58767 
L 204.231676 331.008433 
L 204.7511 254.809713 
L 204.880955 255.459386 
L 205.140667 310.189379 
L 205.270523 304.234047 
L 205.400379 287.057098 
L 205.530235 293.583354 
L 205.660091 277.804185 
L 205.789947 283.759517 
L 206.179514 217.355105 
L 206.439226 226.775357 
L 206.569082 243.391226 
L 206.698938 228.970463 
L 206.828794 247.013642 
L 206.95865 231.234473 
L 207.218361 250.537624 
L 207.348217 243.578252 
L 207.478073 226.401303 
L 207.737785 241.767044 
L 208.127353 276.544214 
L 208.257208 257.270594 
L 208.387064 273.049763 
L 208.646776 240.546447 
L 208.906488 261.276909 
L 209.296055 242.141098 
L 209.945335 296.093453 
L 210.205047 267.625982 
L 210.464758 252.486642 
L 210.594614 271.405895 
L 210.854326 239.916462 
L 210.984182 259.278673 
L 211.114038 255.597195 
L 211.37375 274.093177 
L 212.023029 219.35334 
L 212.412597 282.617669 
L 212.542453 268.196906 
L 212.672308 268.196906 
L 212.802164 292.31354 
L 212.93202 267.960661 
L 213.061876 273.669905 
L 213.321588 256.19765 
L 213.451444 262.723907 
L 213.5813 259.012898 
L 213.711155 265.97227 
L 213.970867 306.704772 
L 214.100723 303.899368 
L 214.230579 325.791365 
L 214.750002 277.932151 
L 215.009714 315.308012 
L 215.13957 293.416015 
L 215.399282 311.528099 
L 215.529138 302.098003 
L 215.658994 282.824383 
L 215.78885 300.001332 
L 216.048561 265.342284 
L 216.178417 281.239575 
L 216.308273 274.339265 
L 216.567985 317.670458 
L 216.697841 310.711086 
L 216.827697 329.984706 
L 217.087408 317.512961 
L 217.217264 300.493508 
L 217.476976 336.068004 
L 217.9964 361.592262 
L 218.775535 276.859207 
L 218.905391 283.346089 
L 219.035247 275.372835 
L 219.165102 288.366287 
L 219.424814 263.373579 
L 219.684526 217.128703 
L 219.944238 239.207728 
L 220.074094 249.779673 
L 220.463661 228.025485 
L 220.593517 205.070387 
L 220.853229 222.296554 
L 220.983085 211.724609 
L 221.112941 234.679707 
L 221.242797 218.900538 
L 221.372652 220.436128 
L 221.502508 224.550721 
L 221.632364 237.544172 
L 221.76222 231.05729 
L 222.021932 248.116117 
L 222.281644 231.72665 
L 222.930923 316.784541 
L 223.190635 294.026313 
L 223.450347 212.777866 
L 223.710058 251.315262 
L 223.839914 244.789006 
L 224.099626 214.402047 
L 224.878761 324.236088 
L 225.268329 259.908659 
L 225.398185 255.725161 
L 225.528041 255.725161 
L 225.657897 238.548212 
L 225.787752 245.448522 
L 225.917608 258.441974 
L 226.047464 246.846302 
L 226.307176 270.598726 
L 226.566888 244.808693 
L 226.696744 245.842263 
L 226.8266 252.358676 
L 226.956455 245.842263 
L 227.216167 207.915165 
L 227.475879 252.309458 
L 227.605735 236.077487 
L 227.735591 255.971249 
L 227.865447 241.826105 
L 228.125158 261.621432 
L 228.255014 245.940698 
L 228.38487 270.057332 
L 228.514726 250.16357 
L 228.644582 262.507349 
L 228.904294 227.848301 
L 229.03415 244.46417 
L 229.293861 222.739512 
L 229.683429 187.53907 
L 229.813285 186.525187 
L 229.943141 189.123878 
L 230.072997 189.123878 
L 230.332708 219.441932 
L 230.462564 196.486834 
L 230.59242 212.167567 
L 230.852132 201.438126 
L 231.371555 272.596961 
L 231.631267 237.357145 
L 231.761123 247.92909 
L 231.890979 223.812456 
L 232.020835 243.706218 
L 232.280547 212.393968 
L 232.410402 236.510602 
L 232.540258 222.08984 
L 232.670114 238.705708 
L 232.79997 232.218826 
L 232.929826 244.592135 
L 233.059682 268.945014 
L 233.189538 253.26428 
L 233.319394 253.26428 
L 233.449249 272.183533 
L 233.579105 250.744338 
L 233.708961 259.820067 
L 233.968673 290.010155 
L 234.098529 298.455899 
L 234.228385 314.235068 
L 234.358241 294.961448 
L 234.488097 293.799912 
L 234.617952 284.369816 
L 234.877664 249.82889 
L 235.00752 235.683746 
L 235.267232 280.028822 
L 235.397088 206.743786 
L 235.526944 226.637548 
L 235.656799 220.121135 
L 235.786655 243.076233 
L 235.916511 236.116861 
L 236.176223 274.142395 
L 236.306079 258.363226 
L 236.435935 264.318558 
L 236.695647 301.28099 
L 236.825502 291.850894 
L 236.955358 308.082865 
L 237.21507 286.14165 
L 237.474782 317.887015 
L 237.604638 293.770381 
L 237.994205 341.285072 
L 238.253917 313.693674 
L 238.773341 241.373303 
L 238.903197 252.968974 
L 239.292764 226.568643 
L 239.42262 241.333929 
L 239.552476 225.101958 
L 239.812188 232.691315 
L 239.942044 251.610568 
L 240.071899 232.336948 
L 240.331611 255.488917 
L 240.591323 225.879596 
L 240.980891 289.872346 
L 241.110747 268.433151 
L 241.240602 274.949563 
L 241.370458 263.353892 
L 241.63017 298.967762 
L 241.760026 295.817834 
L 241.889882 289.360483 
L 242.019738 296.319854 
L 242.409305 343.854232 
L 242.669017 310.061414 
L 243.058585 331.72701 
L 243.188441 315.495039 
L 243.318297 331.72701 
L 243.448152 311.833248 
L 243.578008 336.186126 
L 243.83772 301.487704 
L 243.967576 317.266873 
L 244.097432 310.75046 
L 244.357144 323.753756 
L 244.486999 314.32366 
L 244.616855 320.278992 
L 244.876567 297.14671 
L 245.006423 290.630297 
L 245.266135 316.292364 
L 245.525847 278.621198 
L 245.655702 300.060393 
L 245.785558 287.066942 
L 245.915414 262.714063 
L 246.04527 284.606061 
L 246.175126 268.374089 
L 246.304982 275.2744 
L 246.564694 250.16357 
L 246.694549 259.593666 
L 246.824405 234.384401 
L 247.084117 254.347068 
L 247.213973 261.247378 
L 247.473685 226.647391 
L 247.603541 233.606763 
L 247.993108 281.406915 
L 248.122964 265.726181 
L 248.382676 278.581824 
L 248.642388 298.564178 
L 248.902099 322.769403 
L 249.421523 244.749632 
L 249.551379 257.093411 
L 249.811091 238.390715 
L 249.940946 226.046936 
L 250.200658 262.743594 
L 250.720082 318.369348 
L 251.109649 278.050274 
L 251.239505 293.947565 
L 251.369361 277.715594 
L 251.629073 311.508412 
L 251.758929 305.021529 
L 252.148496 263.078274 
L 252.278352 278.759007 
L 252.66792 223.172627 
L 253.317199 278.985408 
L 253.447055 268.413464 
L 253.706767 293.622729 
L 253.836623 277.84356 
L 253.966479 300.089924 
L 254.096335 284.40919 
L 254.226191 290.925603 
L 254.356046 286.81101 
L 254.485902 305.730263 
L 254.745614 286.486174 
L 254.87547 279.969761 
L 255.005326 295.867052 
L 255.394894 245.724141 
L 255.784461 281.751439 
L 255.914317 273.778184 
L 256.044173 307.305227 
L 256.174029 311.41982 
L 256.433741 185.540835 
L 256.563596 206.98003 
L 256.823308 180.530481 
L 257.212876 210.139801 
L 257.342732 202.166547 
L 257.472588 209.125918 
L 257.602444 192.893947 
L 257.732299 212.787709 
L 257.992011 183.896966 
L 258.381579 229.590605 
L 258.511435 223.074192 
L 258.641291 227.188785 
L 258.771146 224.383381 
L 258.901002 217.48307 
L 259.030858 223.192314 
L 259.420426 185.206155 
L 259.550282 199.558013 
L 259.809994 301.399112 
L 259.939849 285.501821 
L 260.069705 296.073766 
L 260.199561 320.1904 
L 260.329417 303.958429 
L 260.459273 320.1904 
L 260.718985 300.188359 
L 260.848841 306.143691 
L 260.978696 327.582886 
L 261.238408 303.928898 
L 261.368264 297.412485 
L 261.49812 304.371857 
L 261.757832 334.689911 
L 261.887688 328.734579 
L 262.147399 305.877916 
L 262.277255 321.775207 
L 262.407111 314.874897 
L 262.536967 297.717635 
L 262.666823 297.717635 
L 262.796679 183.345729 
L 262.926535 188.169056 
L 263.056391 203.948225 
L 263.186246 197.431812 
L 263.445958 244.542918 
L 263.575814 223.103723 
L 263.835526 226.25365 
L 264.744517 327.504138 
L 265.134085 266.051018 
L 265.393796 293.199457 
L 265.523652 286.673201 
L 265.653508 310.789834 
L 265.91322 295.650494 
L 266.043076 205.306631 
L 266.172932 212.266003 
L 266.302788 195.24655 
L 266.432643 201.733432 
L 266.562499 185.836141 
L 266.952067 229.669353 
L 267.211779 202.48154 
L 267.471491 248.844538 
L 267.601346 258.254947 
L 267.861058 304.04702 
L 268.12077 268.895796 
L 268.250626 266.090392 
L 268.510338 297.786539 
L 268.640193 273.433661 
L 268.770049 295.680025 
L 268.899905 278.503076 
L 269.029761 285.403386 
L 269.159617 309.52002 
L 269.289473 302.560648 
L 269.549185 268.7383 
L 269.679041 312.748696 
L 269.808896 298.534647 
L 269.938752 299.843836 
L 270.198464 317.95592 
L 270.458176 287.086629 
L 271.107455 219.825829 
L 271.237311 239.719591 
L 271.367167 225.298828 
L 271.756735 252.870539 
L 271.886591 242.003289 
L 272.146302 273.443504 
L 272.406014 241.314242 
L 272.53587 247.840498 
L 272.795582 215.041876 
L 272.925438 214.234707 
L 273.055293 230.013876 
L 273.315005 221.499228 
L 273.834429 274.309734 
L 273.964285 270.195141 
L 274.094141 216.577466 
L 274.353852 248.253926 
L 274.483708 260.597705 
L 274.74342 242.111567 
L 275.132988 290.167652 
L 275.392699 274.782224 
L 275.522555 290.561393 
L 275.652411 289.399857 
L 275.782267 308.673477 
L 276.041979 263.826381 
L 276.171835 269.781713 
L 276.301691 265.66712 
L 276.431546 289.783754 
L 276.691258 253.333185 
L 277.210682 324.728264 
L 277.340538 303.289069 
L 277.470393 311.262324 
L 277.859961 261.178473 
L 277.989817 280.097727 
L 278.119673 267.753947 
L 278.249529 282.17471 
L 278.768952 212.11835 
L 279.028664 249.218592 
L 279.15852 226.972227 
L 279.418232 246.216317 
L 279.937655 192.313179 
L 280.327223 235.280162 
L 280.457079 251.512133 
L 280.716791 229.098429 
L 280.976502 255.86297 
L 281.106358 247.889716 
L 281.236214 263.787007 
L 281.36607 259.672414 
L 281.495926 247.328635 
L 281.755638 254.248633 
L 282.015349 245.733984 
L 282.275061 279.516959 
L 282.404917 263.284988 
L 282.534773 268.482368 
L 282.92434 223.389185 
L 283.054196 223.389185 
L 283.443764 253.480838 
L 283.57362 229.364204 
L 283.703476 247.407383 
L 283.833332 240.881127 
L 284.093043 250.074978 
L 284.222899 232.031799 
L 284.352755 249.051252 
L 284.482611 241.077997 
L 284.742323 271.83901 
L 284.872179 269.033606 
L 285.13189 231.933364 
L 285.391602 253.677708 
L 285.521458 253.293811 
L 285.78117 282.204241 
L 285.911026 271.632296 
L 286.170738 308.023804 
L 286.300593 295.030352 
L 286.430449 301.556609 
L 286.560305 294.597237 
L 286.690161 314.490999 
L 286.820017 302.14722 
L 287.079729 260.774889 
L 287.209585 271.346834 
L 287.33944 249.100469 
L 287.469296 254.809713 
L 287.599152 240.664569 
L 287.729008 264.781203 
L 287.98872 232.651941 
L 288.118576 248.549232 
L 288.248432 229.629979 
L 288.378288 248.903599 
L 288.637999 235.86093 
L 288.767855 260.213808 
L 288.897711 236.097174 
L 289.287279 276.081569 
L 289.54699 240.507073 
L 289.806702 276.898581 
L 290.066414 251.689316 
L 290.19627 258.648688 
L 290.455982 299.007136 
L 290.585838 235.929834 
L 290.845549 261.621432 
L 291.235117 212.512091 
L 291.364973 226.657235 
L 291.494829 225.407107 
L 291.75454 243.903089 
L 291.884396 237.002778 
L 292.144108 219.894734 
L 292.273964 226.795044 
L 292.40382 224.009327 
L 292.533676 215.071407 
L 292.663532 230.850576 
L 293.053099 189.960577 
L 293.182955 291.102786 
L 293.442667 275.628767 
L 293.702379 285.334481 
L 293.96209 252.161805 
L 294.221802 273.935681 
L 294.351658 258.156512 
L 294.741226 301.940506 
L 294.871082 307.64975 
L 295.000938 296.054079 
L 295.130793 314.973332 
L 295.520361 296.999057 
L 295.650217 302.954389 
L 295.780073 281.062392 
L 295.909929 298.081845 
L 296.039785 292.372601 
L 296.16964 303.594218 
L 296.299496 300.690379 
L 296.429352 292.224948 
L 296.559208 295.847365 
L 296.81892 322.42488 
L 297.078632 351.1975 
L 297.208488 334.178047 
L 297.338343 348.59881 
L 297.468199 334.453666 
L 297.598055 340.979923 
L 298.117479 290.216869 
L 298.507046 310.72093 
L 298.766758 276.120943 
L 299.02647 314.057884 
L 299.156326 302.462213 
L 299.286182 318.142947 
L 299.416038 298.869327 
L 299.545893 305.828698 
L 299.675749 298.928388 
L 299.805605 305.454644 
L 300.065317 273.778184 
L 300.195173 268.06894 
L 300.454885 230.210747 
L 300.58474 232.376322 
L 300.714596 249.553272 
L 300.974308 226.411147 
L 301.104164 239.404598 
L 301.23402 223.172627 
L 301.363876 229.65951 
L 301.493732 223.143097 
L 301.623587 229.65951 
L 302.143011 285.708535 
L 302.532579 252.39805 
L 302.662435 228.045172 
L 302.922146 254.760496 
L 303.052002 262.73375 
L 303.181858 256.207494 
L 303.311714 239.975523 
L 303.571426 257.073724 
L 303.701282 275.992977 
L 303.831137 269.476564 
L 303.960993 273.591157 
L 304.090849 253.697395 
L 304.220705 260.597705 
L 304.350561 253.697395 
L 304.610273 282.036901 
L 304.869985 248.342518 
L 304.99984 254.29785 
L 305.259552 231.72665 
L 305.389408 256.079528 
L 305.519264 243.735749 
L 305.64912 258.156512 
L 305.908832 217.798063 
L 306.038687 225.279141 
L 306.168543 219.845516 
L 306.298399 205.700372 
L 306.428255 211.143841 
L 306.687967 230.181216 
L 306.947679 200.690018 
L 307.077535 184.458047 
L 307.337246 199.124898 
L 307.596958 304.362013 
L 307.85667 319.511197 
L 308.116382 284.812775 
L 308.246237 303.732028 
L 308.505949 259.593666 
L 308.635805 276.613119 
L 308.765661 270.903875 
L 308.895517 251.984622 
L 309.025373 253.43162 
L 309.155229 244.001524 
L 309.41494 257.014663 
L 309.544796 250.114352 
L 309.674652 256.069684 
L 309.804508 245.49774 
L 310.06422 274.290047 
L 310.194076 285.885719 
L 310.453787 252.102744 
L 310.713499 241.501269 
L 310.843355 234.541897 
L 311.232923 271.996506 
L 311.362779 266.041174 
L 311.492635 281.820343 
L 311.62249 264.80089 
L 311.882202 292.392288 
L 312.012058 313.831483 
L 312.27177 291.713085 
L 312.401626 309.756264 
L 312.661337 269.506095 
L 312.791193 283.87764 
L 312.921049 197.185724 
L 313.050905 203.71198 
L 313.310617 170.371964 
L 313.700185 212.462873 
L 313.83004 206.507541 
L 313.959896 193.514089 
L 314.349464 233.3213 
L 314.47932 234.443462 
L 314.609176 246.875833 
L 314.739032 229.698884 
L 314.998743 264.987917 
L 315.258455 240.930345 
L 315.518167 268.344559 
L 315.777879 228.773592 
L 315.907735 250.212788 
L 316.03759 243.686531 
L 316.167446 266.641629 
L 316.427158 251.256201 
L 316.816726 283.818579 
L 316.946582 307.935212 
L 317.076437 293.790068 
L 317.206293 306.133848 
L 317.336149 231.578997 
L 317.466005 255.695631 
L 317.725717 215.445461 
L 317.855573 249.622176 
L 317.985429 233.390205 
L 318.115284 236.412167 
L 318.24514 269.821087 
L 318.634708 216.764493 
L 319.024276 276.416249 
L 319.154132 282.125492 
L 319.413843 247.692846 
L 319.543699 254.652217 
L 319.673555 270.549508 
L 319.803411 254.652217 
L 319.933267 272.695396 
L 320.192979 246.954581 
L 320.322834 253.441464 
L 320.45269 246.482092 
L 320.582546 298.692143 
L 320.712402 298.810266 
L 320.972114 281.662847 
L 321.10197 288.149729 
L 321.361682 306.852425 
L 321.491537 302.737832 
L 321.751249 339.956196 
L 322.140817 283.720143 
L 322.270673 308.073022 
L 322.400529 310.878426 
L 322.66024 279.418523 
L 322.790096 295.099257 
L 322.919952 279.201966 
L 323.049808 293.622729 
L 323.179664 269.26985 
L 323.30952 288.189103 
L 323.828943 248.96266 
L 323.958799 246.491936 
L 324.088655 239.975523 
L 324.218511 269.161571 
L 324.348367 253.480838 
L 324.478223 260.007094 
L 324.608079 253.047723 
L 324.737934 236.02827 
L 324.86779 287.273656 
L 324.997646 282.450329 
L 325.127502 290.423583 
L 325.257358 271.50433 
L 325.387214 300.857719 
L 325.51707 302.334247 
L 325.646926 324.364054 
L 326.166349 269.752183 
L 326.296205 290.216869 
L 326.426061 190.846494 
L 326.555917 197.884614 
L 326.815629 256.089371 
L 327.07534 297.254989 
L 327.72462 235.506563 
L 328.114187 258.363226 
L 328.373899 233.419736 
L 328.503755 255.6661 
L 328.633611 239.985366 
L 329.023179 292.913995 
L 329.28289 265.322597 
L 329.412746 279.74336 
L 329.802314 221.341732 
L 329.93217 244.29683 
L 330.191882 231.293535 
L 330.321737 237.809947 
L 330.841161 161.591541 
L 331.100873 187.942655 
L 331.230729 173.797511 
L 331.620296 217.158234 
L 331.750152 193.0416 
L 331.880008 212.935362 
L 332.009864 204.962108 
L 332.13972 227.208472 
L 332.269576 221.499228 
L 332.399432 240.772848 
L 332.529287 227.779396 
L 332.788999 257.39856 
L 332.918855 260.203965 
L 333.048711 271.799636 
L 333.308423 241.786731 
L 333.568134 252.466955 
L 333.69799 245.940698 
L 333.957702 268.856422 
L 334.087558 256.512643 
L 334.217414 263.038899 
L 334.34727 282.932661 
L 334.606981 251.89603 
L 335.126405 304.362013 
L 335.386117 283.395307 
L 335.515973 276.908425 
L 335.775684 300.601787 
L 335.90554 286.456643 
L 336.165252 313.221185 
L 336.295108 310.41578 
L 336.424964 304.460448 
L 336.55482 321.479901 
L 336.814531 289.015959 
L 337.204099 256.483112 
L 337.463811 294.990978 
L 337.723523 262.73375 
L 337.853379 266.16914 
L 337.983234 214.894224 
L 338.11309 232.523975 
L 338.372802 218.290239 
L 338.632514 276.918268 
L 338.76237 258.875089 
L 339.022081 275.481114 
L 339.281793 237.357145 
L 339.411649 245.3304 
L 339.541505 228.714531 
L 339.671361 234.669863 
L 339.801217 256.561861 
L 339.931073 250.045448 
L 340.060929 266.277419 
L 340.190784 249.100469 
L 340.32064 267.143649 
L 340.450496 260.656767 
L 340.580352 244.424796 
L 340.710208 247.2302 
L 340.96992 287.204751 
L 341.229631 272.331186 
L 341.749055 322.198479 
L 342.138623 275.116903 
L 342.398334 318.743402 
L 342.658046 303.033137 
L 342.787902 308.742381 
L 342.917758 325.919331 
L 343.17747 290.2464 
L 343.307326 292.963212 
L 343.437181 309.579081 
L 343.567037 290.305461 
L 343.696893 306.08463 
L 343.956605 276.160317 
L 344.216317 306.862268 
L 344.605884 249.257966 
L 344.73574 248.09643 
L 344.865596 265.814773 
L 344.995452 249.582802 
L 345.255164 276.435936 
L 345.38502 252.319302 
L 345.774587 293.386484 
L 346.034299 254.573469 
L 346.164155 260.528801 
L 346.294011 253.62849 
L 346.423867 231.382126 
L 346.553723 237.908383 
L 346.813434 274.870815 
L 347.073146 262.2022 
L 347.203002 267.911444 
L 347.332858 283.690613 
L 347.59257 263.836225 
L 347.722426 257.880893 
L 347.982137 292.766342 
L 348.371705 225.318515 
L 348.501561 224.747591 
L 348.891129 256.00078 
L 349.020984 280.117414 
L 349.15084 272.144159 
L 349.410552 308.811286 
L 349.540408 314.52053 
L 349.670264 291.565432 
L 349.929976 328.901919 
L 350.059831 336.875173 
L 350.189687 239.148667 
L 350.319543 250.458876 
L 350.449399 251.394011 
L 350.579255 234.148156 
L 350.709111 236.953561 
L 350.838967 258.392756 
L 351.228534 201.211725 
L 351.35839 216.892459 
L 351.488246 208.249845 
L 351.747958 222.109527 
L 351.877814 236.530289 
L 352.267381 189.222313 
L 352.397237 203.643076 
L 352.527093 186.623623 
L 352.786805 221.676412 
L 352.916661 212.246316 
L 353.046517 230.289495 
L 353.176373 214.510326 
L 353.306228 227.503778 
L 353.695796 188.198586 
L 353.825652 210.444951 
L 353.955508 198.101172 
L 354.085364 213.998463 
L 354.345076 170.312903 
L 354.474931 179.575659 
L 354.604787 201.822024 
L 354.864499 180.185958 
L 354.994355 180.97344 
L 355.124211 180.402515 
L 355.254067 162.359336 
L 355.513778 184.871475 
L 355.643634 170.450713 
L 355.903346 212.236472 
L 356.033202 199.892693 
L 356.42277 246.69865 
L 356.682481 206.340201 
L 356.942193 229.984346 
L 357.072049 227.385655 
L 357.201905 270.293577 
L 357.331761 271.268086 
L 357.461617 255.587352 
L 357.721328 275.963446 
L 357.851184 282.863757 
L 358.240752 232.130234 
L 358.370608 252.023996 
L 358.500464 239.680217 
L 358.63032 249.110313 
L 358.760176 271.356677 
L 359.019887 231.22463 
L 359.279599 261.542684 
L 359.539311 230.899794 
L 359.799023 265.962426 
L 359.928878 263.157022 
L 360.058734 270.116393 
L 360.318446 306.566963 
L 360.448302 205.24757 
L 360.578158 215.780141 
L 360.708014 212.718805 
L 360.83787 268.344559 
L 360.967726 268.679239 
L 361.227437 227.316751 
L 361.357293 251.433385 
L 361.487149 235.201414 
L 361.617005 260.282713 
L 361.746861 249.710768 
L 361.876717 286.220398 
L 362.006573 264.328401 
L 362.136428 282.371581 
L 362.39614 258.550252 
L 362.525996 253.008348 
L 362.655852 263.580293 
L 362.785708 263.580293 
L 363.175276 234.049721 
L 363.305131 216.006542 
L 363.434987 220.859399 
L 363.564843 233.872538 
L 363.694699 215.711236 
L 363.824555 239.82787 
L 363.954411 228.232199 
L 364.214123 258.993211 
L 364.473834 225.928814 
L 364.733546 284.428877 
L 364.863402 262.53688 
L 365.123114 302.472057 
L 365.25297 278.355423 
L 365.512681 284.842305 
L 365.642537 303.761558 
L 365.902249 265.83446 
L 366.032105 281.515194 
L 366.161961 275.028312 
L 366.291817 279.142905 
L 366.421673 261.965955 
L 366.551528 284.21232 
L 366.681384 268.315028 
L 366.941096 292.904151 
L 367.070952 279.9107 
L 367.330664 314.225224 
L 367.590376 286.023528 
L 367.720231 270.342794 
L 368.109799 314.363034 
L 368.369511 294.941761 
L 368.499367 287.982389 
L 368.629223 290.787794 
L 368.759078 303.781245 
L 369.01879 273.266321 
L 369.148646 266.749908 
L 369.278502 282.430642 
L 369.408358 273.000546 
L 369.66807 230.604488 
L 369.797925 225.613821 
L 369.927781 247.702689 
L 370.057637 225.810692 
L 370.187493 253.283967 
L 370.317349 251.748377 
L 370.447205 275.697671 
L 370.577061 267.793322 
L 370.706917 273.748654 
L 370.966628 234.561584 
L 371.22634 265.204475 
L 371.486052 236.963404 
L 371.87562 274.890502 
L 372.395043 220.062074 
L 372.654755 204.755394 
L 372.784611 211.655704 
L 372.914467 201.083759 
L 373.044323 179.191762 
L 373.174178 184.261177 
L 373.304034 177.360866 
L 373.693602 258.274634 
L 373.823458 240.231454 
L 374.08317 252.841009 
L 374.213025 247.131765 
L 374.732449 307.698968 
L 374.992161 274.004585 
L 375.122017 281.97784 
L 375.251873 270.382168 
L 375.381728 274.565666 
L 375.771296 316.331738 
L 376.031008 277.469506 
L 376.160864 283.424838 
L 376.29072 276.908425 
L 376.680287 328.645987 
L 377.069855 286.289303 
L 377.199711 284.812775 
L 377.329567 196.250589 
L 377.459423 200.365182 
L 377.589278 184.467891 
L 377.84899 201.940146 
L 378.108702 192.382084 
L 378.238558 198.337416 
L 378.368414 192.382084 
L 378.49827 202.579975 
L 378.628125 185.964106 
L 378.887837 205.090074 
L 379.147549 233.862694 
L 379.277405 310.88827 
L 379.407261 310.88827 
L 379.537117 288.641905 
L 379.796828 302.11769 
L 380.05654 275.668141 
L 380.186396 291.348874 
L 380.316252 219.579741 
L 380.446108 222.385145 
L 380.575964 228.872028 
L 380.70582 244.651197 
L 380.965531 216.075446 
L 381.095387 222.030778 
L 381.225243 234.374558 
L 381.484955 209.165293 
L 381.744667 242.22969 
L 381.874523 218.113056 
L 382.004378 233.79379 
L 382.26409 226.873792 
L 382.393946 227.877832 
L 382.523802 212.197098 
L 382.653658 246.836459 
L 382.783514 232.691315 
L 383.173081 268.078784 
L 383.302937 251.059331 
L 383.432793 265.204475 
L 383.562649 258.56994 
L 383.692505 239.29632 
L 383.822361 242.101724 
L 383.952217 219.85536 
L 384.211928 246.344283 
L 384.341784 230.112312 
L 384.47164 247.131765 
L 384.601496 234.138313 
L 384.991064 312.010431 
L 385.12092 306.921329 
L 385.250775 314.894584 
L 385.380631 312.08918 
L 385.770199 257.802145 
L 386.159767 303.948585 
L 386.289623 282.056588 
L 386.419478 296.201732 
L 386.67919 268.177219 
L 386.809046 273.492722 
L 387.068758 303.495783 
L 387.32847 321.617711 
L 387.588181 289.104551 
L 387.847893 309.234558 
L 387.977749 303.525314 
L 388.237461 259.898815 
L 388.627028 316.548296 
L 388.756884 304.952625 
L 388.88674 309.067218 
L 389.146452 274.467231 
L 389.276308 280.176475 
L 389.406164 269.60453 
L 389.53602 288.87815 
L 389.665875 270.83497 
L 389.925587 307.797403 
L 390.315155 262.861716 
L 390.445011 274.093177 
L 390.574867 300.847875 
L 390.704722 294.272401 
L 391.354002 356.276759 
L 391.483858 349.789877 
L 391.613714 353.90447 
L 391.873425 309.894074 
L 392.003281 327.071023 
L 392.133137 312.65026 
L 392.262993 318.359504 
L 392.392849 329.955176 
L 392.782417 272.754458 
L 392.912272 288.533627 
L 393.042128 276.189848 
L 393.171984 282.67673 
L 393.30184 266.995996 
L 393.431696 283.611865 
L 393.561552 277.124982 
L 393.821264 303.889524 
L 394.080975 283.887483 
L 394.340687 245.025251 
L 394.470543 239.069918 
L 394.600399 255.30189 
L 394.730255 232.346792 
L 395.119822 296.467507 
L 395.249678 289.508135 
L 395.50939 328.675518 
L 395.769102 294.439741 
L 396.028814 276.327657 
L 396.15867 288.671436 
L 396.288525 227.444717 
L 396.418381 249.691081 
L 396.548237 242.967954 
L 396.678093 250.941208 
L 396.807949 267.557077 
L 397.067661 236.067644 
L 397.197517 236.067644 
L 397.327372 242.022976 
L 397.457228 235.122665 
L 397.587084 261.83799 
L 397.71694 260.853637 
L 397.976652 301.586139 
L 398.106508 215.110781 
L 398.36622 252.329145 
L 398.496075 244.355891 
L 398.625931 247.387696 
L 398.755787 266.080548 
L 398.885643 260.125216 
L 399.145355 285.866032 
L 399.275211 307.305227 
L 399.534922 266.946778 
L 399.664778 272.17369 
L 399.794634 271.366521 
L 400.054346 305.060903 
L 400.314058 298.140906 
L 400.443914 308.200988 
L 400.57377 300.296638 
L 400.703625 304.411231 
L 400.833481 217.364948 
L 400.963337 210.464638 
L 401.482761 274.979094 
L 401.742472 240.782692 
L 401.872328 246.491936 
L 402.002184 263.668885 
L 402.13204 257.713553 
L 402.391752 288.750184 
L 402.521608 234.502523 
L 402.651464 234.502523 
L 402.78132 233.025995 
L 402.911175 218.880851 
L 403.170887 236.284201 
L 403.430599 206.763473 
L 403.560455 213.250355 
L 403.950022 264.456367 
L 404.079878 330.801719 
L 404.209734 320.229774 
L 404.33959 336.461745 
L 404.469446 332.92792 
L 404.599302 337.544533 
L 404.729158 353.225266 
L 404.859014 337.544533 
L 404.988869 143.518831 
L 405.118725 157.939594 
L 405.248581 151.984262 
L 405.508293 185.767236 
L 405.768005 171.277569 
L 405.897861 309.785795 
L 406.027717 171.277569 
L 406.287428 202.442166 
L 406.417284 190.098387 
L 406.54714 202.442166 
L 406.936708 254.514408 
L 407.196419 267.37005 
L 407.456131 229.344517 
L 407.585987 223.635273 
L 407.715843 243.529035 
L 407.845699 224.609782 
L 408.105411 243.154981 
L 408.235267 237.199649 
L 408.365122 243.716062 
L 408.494978 232.120391 
L 408.624834 281.023018 
L 408.75469 271.592922 
L 409.014402 315.603318 
L 409.274114 271.464956 
L 409.663681 289.202986 
L 410.053249 241.097684 
L 410.183105 264.052782 
L 410.442817 252.388206 
L 410.572672 229.433108 
L 410.832384 268.216593 
L 411.221952 212.846771 
L 411.351808 215.652175 
L 411.481664 237.09137 
L 411.611519 222.946226 
L 411.741375 237.09137 
L 411.871231 230.604488 
L 412.001087 230.604488 
L 412.130943 252.496485 
L 412.260799 235.477032 
L 412.390655 238.154471 
L 412.650367 226.608017 
L 412.780222 221.765003 
L 413.039934 197.205411 
L 413.16979 203.731667 
L 413.299646 195.758413 
L 413.559358 262.2022 
L 413.819069 221.902813 
L 413.948925 238.134784 
L 414.078781 213.781905 
L 414.338493 245.103999 
L 414.468349 252.06337 
L 414.728061 215.150155 
L 414.987772 253.028036 
L 415.117628 235.851086 
L 415.247484 234.49268 
L 415.37734 212.600682 
L 415.637052 231.805398 
L 416.286331 309.805482 
L 416.416187 295.384719 
L 416.546043 298.190124 
L 416.935611 231.844772 
L 417.065467 244.188551 
L 417.195322 237.288241 
L 417.325178 244.188551 
L 417.455034 231.844772 
L 417.844602 264.387462 
L 417.974458 250.242318 
L 418.104314 311.882466 
L 418.364025 324.885761 
L 418.493881 318.398878 
L 418.753593 280.27491 
L 418.883449 286.761792 
L 419.013305 280.80646 
L 419.273017 247.387696 
L 419.662584 279.113374 
L 419.922296 251.836969 
L 420.052152 258.737279 
L 420.182008 244.316517 
L 420.311864 262.359696 
L 420.441719 255.872814 
L 420.571575 272.104785 
L 420.701431 264.131531 
L 420.831287 278.552293 
L 420.961143 271.651983 
L 421.090999 250.212788 
L 421.220855 258.914463 
L 421.610422 309.027844 
L 421.740278 323.172988 
L 421.99999 294.331462 
L 422.129846 305.927134 
L 422.389558 271.730731 
L 422.519414 287.5099 
L 422.649269 268.23628 
L 422.779125 272.350873 
L 423.038837 234.32534 
L 423.168693 237.130744 
L 423.298549 243.086076 
L 423.428405 257.506839 
L 423.558261 245.16306 
L 423.688116 252.122431 
L 423.817972 244.149177 
L 424.077684 258.648688 
L 424.20754 249.218592 
L 424.597108 297.855444 
L 424.986675 245.113842 
L 425.376243 290.482644 
L 425.765811 257.388717 
L 425.895666 250.429345 
L 426.025522 274.782224 
L 426.155378 251.827126 
L 426.285234 258.786497 
L 426.674802 213.043641 
L 426.804658 235.290005 
L 426.934514 218.270552 
L 427.064369 235.290005 
L 427.194225 225.859909 
L 427.324081 241.639078 
L 427.453937 219.392714 
L 427.583793 318.054355 
L 427.713649 310.287815 
L 427.843505 314.983176 
L 427.973361 305.55308 
L 428.103216 310.41578 
L 428.362928 331.795915 
L 428.492784 337.505159 
L 428.752496 374.57587 
L 429.012208 346.826976 
L 429.661487 266.178984 
L 429.791343 286.072746 
L 429.921199 264.180748 
L 430.051055 271.081059 
L 430.180911 288.258008 
L 430.310766 281.357698 
L 430.570478 321.155065 
L 430.700334 318.349661 
L 430.960046 348.214913 
L 431.349614 378.798742 
L 431.479469 372.84341 
L 431.609325 378.798742 
L 431.739181 373.089498 
L 431.869037 358.944354 
L 431.998893 206.576446 
L 432.128749 213.063328 
L 432.258605 239.443972 
L 432.518316 204.38134 
L 432.778028 232.848811 
L 432.907884 223.418715 
L 433.03774 204.499462 
L 433.167596 221.676412 
L 433.297452 266.287262 
L 433.557164 277.67622 
L 433.946731 319.924625 
L 434.336299 271.592922 
L 434.725866 312.630573 
L 434.985578 272.656022 
L 435.115434 276.770615 
L 435.24529 260.873324 
L 435.505002 298.810266 
L 435.634858 288.238321 
L 435.764714 294.725203 
L 436.154281 251.620412 
L 436.543849 296.880935 
L 436.673705 289.980625 
L 436.803561 292.786029 
L 436.933416 299.312285 
L 437.193128 284.91121 
L 437.322984 309.027844 
L 437.582696 293.642416 
L 437.842408 309.588924 
L 437.972264 300.158828 
L 438.102119 316.774697 
L 438.361831 240.516917 
L 438.491687 226.371773 
L 438.621543 253.677708 
L 438.751399 255.695631 
L 439.270822 311.646221 
L 439.400678 304.745911 
L 439.530534 285.826658 
L 439.790246 308.132083 
L 440.179813 260.824107 
L 440.309669 237.869009 
L 440.439525 254.484877 
L 440.569381 245.054781 
L 440.699237 265.962426 
L 441.088805 219.491149 
L 441.218661 231.086821 
L 441.478372 259.859441 
L 441.608228 253.333185 
L 441.997796 299.853679 
L 442.127652 293.898347 
L 442.387363 258.225416 
L 442.647075 270.707005 
L 442.906787 240.605508 
L 443.036643 251.177453 
L 443.296355 287.490213 
L 443.426211 291.604806 
L 443.556066 285.117924 
L 443.945634 247.56488 
L 444.205346 282.164867 
L 444.335202 216.006542 
L 444.594913 237.642608 
L 444.724769 248.214552 
L 444.854625 232.317261 
L 444.984481 241.747357 
L 445.114337 234.787986 
L 445.633761 282.893287 
L 445.763616 304.332483 
L 446.023328 278.896817 
L 446.153184 285.797127 
L 446.412896 317.709832 
L 446.672608 289.468761 
L 446.802463 306.488214 
L 447.062175 273.669905 
L 447.192031 270.864501 
L 447.451743 262.093921 
L 447.581599 268.610334 
L 447.711455 264.495741 
L 447.841311 216.567623 
L 448.49059 286.072746 
L 448.620446 279.172435 
L 448.750302 266.178984 
L 448.880158 279.172435 
L 449.010013 254.819557 
L 449.139869 277.065921 
L 449.269725 260.83395 
L 449.399581 267.320832 
L 449.659293 256.719357 
L 449.789149 235.280162 
L 450.048861 251.56135 
L 450.178716 245.852107 
L 450.308572 245.852107 
L 450.438428 243.755436 
L 450.957852 290.157808 
L 451.087708 276.012664 
L 451.347419 316.026589 
L 451.477275 322.926899 
L 451.607131 314.953645 
L 451.736987 329.098789 
L 451.996699 308.161613 
L 452.126555 314.648496 
L 452.256411 298.416525 
L 452.386266 297.599512 
L 452.516122 292.746655 
L 452.775834 317.975607 
L 453.035546 285.511665 
L 453.165402 289.626258 
L 453.295258 309.52002 
L 453.425113 240.930345 
L 453.684825 273.847089 
L 453.814681 236.107018 
L 453.944537 232.553506 
L 454.204249 255.528291 
L 454.334105 242.534839 
L 454.593816 271.00231 
L 454.853528 240.900814 
L 455.243096 277.715594 
L 455.372952 253.59896 
L 455.502808 275.845324 
L 455.632663 245.350087 
L 455.892375 287.224438 
L 456.022231 283.109845 
L 456.152087 283.887483 
L 456.281943 298.308246 
L 456.411799 295.502842 
L 456.541655 317.749206 
L 456.67151 296.310011 
L 456.801366 299.932427 
L 456.931222 312.925879 
L 457.061078 181.130936 
L 457.190934 179.674095 
L 457.32079 196.831357 
L 457.450646 284.232007 
L 457.710358 299.932427 
L 457.840213 324.049061 
L 458.099925 278.847599 
L 458.359637 317.306247 
L 458.619349 277.37107 
L 458.749205 281.485663 
L 459.138772 240.251141 
L 459.268628 243.056546 
L 459.398484 227.277377 
L 459.52834 255.557821 
L 459.658196 251.512133 
L 459.788052 229.620135 
L 459.917908 240.19208 
L 460.047763 262.084078 
L 460.177619 249.740299 
L 460.307475 274.998781 
L 460.697043 233.82332 
L 461.08661 269.722652 
L 461.216466 269.998271 
L 461.346322 275.953603 
L 461.476178 297.392798 
L 461.606034 280.77693 
L 461.73589 297.796383 
L 461.865746 280.619433 
L 462.255313 331.215147 
L 462.385169 335.32974 
L 462.515025 348.323191 
L 462.644881 338.893095 
L 462.904593 314.01851 
L 463.034449 309.903917 
L 463.164305 208.495933 
L 463.553872 248.667354 
L 463.683728 229.748101 
L 463.94344 251.649942 
L 464.073296 237.229179 
L 464.203152 251.374323 
L 464.333008 235.595155 
L 464.462863 235.595155 
L 464.592719 252.772104 
L 464.722575 234.728924 
L 464.852431 236.805908 
L 464.982287 220.190039 
L 465.112143 220.190039 
L 465.241999 227.149411 
L 465.371855 217.719315 
L 465.50171 274.93972 
L 465.631566 258.323851 
L 465.761422 264.033095 
L 466.021134 293.504606 
L 466.15099 275.461427 
L 466.280846 289.606571 
L 466.540558 282.686573 
L 466.800269 307.679281 
L 466.930125 331.795915 
L 467.059981 334.601319 
L 467.319693 365.63795 
L 467.70926 311.183575 
L 467.968972 331.530139 
L 468.35854 287.273656 
L 468.488396 284.468251 
L 468.618252 251.167609 
L 468.748108 256.807949 
L 469.137675 288.592688 
L 469.267531 264.476054 
L 469.397387 270.431386 
L 469.657099 261.109569 
L 469.786955 267.625982 
L 469.91681 290.58108 
L 470.046666 284.625748 
L 470.306378 250.035604 
L 470.56609 280.10757 
L 470.955658 242.003289 
L 471.085513 236.047957 
L 471.215369 272.724927 
L 471.345225 256.492956 
L 471.604937 292.382444 
L 471.734793 285.895562 
L 471.864649 292.382444 
L 472.12436 253.746613 
L 472.384072 289.321109 
L 472.513928 287.726458 
L 472.643784 300.070237 
L 472.77364 281.150984 
L 472.903496 292.746655 
L 473.163208 280.658807 
L 473.293063 339.099809 
L 473.422919 323.419076 
L 473.682631 356.119262 
L 473.812487 349.593006 
L 473.942343 336.629085 
L 474.072199 349.061456 
L 474.202055 334.689911 
L 474.33191 333.213382 
L 474.461766 335.969569 
L 474.591622 342.456451 
L 474.721478 320.564454 
L 474.851334 160.49891 
L 475.111046 197.569621 
L 475.240902 181.790452 
L 475.630469 218.871007 
L 475.890181 184.556483 
L 476.279749 221.696099 
L 476.53946 207.206431 
L 476.669316 219.55021 
L 476.799172 213.063328 
L 476.929028 193.789708 
L 477.18874 220.849556 
L 477.318596 204.233687 
L 477.578307 244.808693 
L 477.838019 206.035052 
L 477.967875 210.454794 
L 478.227587 239.483346 
L 478.357443 258.756966 
L 478.487299 256.739044 
L 478.74701 277.449819 
L 478.876866 280.255223 
L 479.006722 304.371857 
L 479.136578 285.452604 
L 479.266434 302.068472 
L 479.526146 264.397306 
L 479.656002 271.356677 
L 479.785857 265.647433 
L 480.045569 224.481816 
L 480.175425 232.45507 
L 480.435137 192.323023 
L 480.694849 223.586055 
L 481.214272 164.239449 
L 481.344128 178.384593 
L 481.473984 170.411339 
L 481.733696 201.064072 
L 481.863552 185.166781 
L 481.993407 190.246039 
L 482.123263 180.815943 
L 482.253119 180.372985 
L 482.512831 209.125918 
L 482.642687 209.125918 
L 482.772543 206.320514 
L 482.902399 216.892459 
L 483.032255 238.784456 
L 483.16211 241.589861 
L 483.291966 229.246082 
L 483.421822 229.777632 
L 483.551678 249.051252 
L 483.681534 231.008072 
L 483.941246 256.975289 
L 484.200957 219.904577 
L 484.330813 234.32534 
L 484.460669 221.981561 
L 484.590525 224.767278 
L 484.850237 251.187297 
L 485.109949 240.35942 
L 485.239805 256.256711 
L 485.36966 240.575978 
L 485.499516 247.102234 
L 485.629372 231.204943 
L 486.01894 268.659552 
L 486.278652 242.643118 
L 486.408507 253.215062 
L 486.538363 246.688806 
L 486.668219 230.072938 
L 486.798075 244.4937 
L 486.927931 237.59339 
L 487.057787 259.839754 
L 487.187643 235.486876 
L 487.317499 259.60351 
L 487.447355 243.824341 
L 487.57721 243.824341 
L 487.836922 303.230008 
L 487.966778 312.660104 
L 488.096634 289.705006 
L 488.486202 335.516767 
L 488.745913 305.690889 
L 488.875769 312.177771 
L 489.005625 305.690889 
L 489.265337 318.359504 
L 489.395193 206.881595 
L 489.525049 222.778886 
L 489.78476 196.81167 
L 490.044472 247.377853 
L 490.174328 258.973524 
L 490.304184 252.486642 
L 490.563896 223.871517 
L 490.693752 230.3584 
L 490.823607 242.702179 
L 491.083319 221.066113 
L 491.343031 207.462363 
L 491.472887 230.417461 
L 491.602743 213.398008 
L 491.862454 242.170629 
L 492.122166 216.567623 
L 492.381878 258.09745 
L 492.511734 235.142352 
L 492.771446 274.053803 
L 492.901302 280.954113 
L 493.290869 228.330634 
L 493.420725 269.909679 
L 493.550581 260.479583 
L 493.680437 263.284988 
L 493.810293 247.604254 
L 493.940149 257.03435 
L 494.070004 247.604254 
L 494.19986 266.759752 
L 494.329716 259.80038 
L 494.459572 259.80038 
L 494.589428 272.793832 
L 494.719284 256.89654 
L 494.978996 275.727202 
L 495.368563 259.997251 
L 495.628275 278.493232 
L 495.758131 264.072469 
L 495.887987 270.027801 
L 496.147699 307.364288 
L 496.277554 313.890544 
L 496.40741 306.990234 
L 496.537266 292.569471 
L 496.667122 299.528843 
L 496.926834 285.600256 
L 497.186546 249.208748 
L 497.316402 255.725161 
L 497.576113 214.726884 
L 497.835825 251.039644 
L 497.965681 241.609548 
L 498.095537 255.754692 
L 498.225393 255.754692 
L 498.485104 279.270871 
L 499.394096 158.874728 
L 499.523952 175.490597 
L 499.653807 168.974184 
L 499.783663 174.929516 
L 499.913519 199.04615 
L 500.043375 199.04615 
L 500.173231 214.825319 
L 500.303087 198.20945 
L 500.432943 202.324043 
L 500.562799 218.939912 
L 500.82251 207.865947 
L 501.212078 263.284988 
L 501.341934 279.516959 
L 501.601646 254.110823 
L 501.731502 248.401579 
L 502.121069 198.760688 
L 502.250925 204.469932 
L 502.770349 274.486918 
L 502.900204 262.143139 
L 503.03006 278.04043 
L 503.419628 258.136824 
L 503.67934 301.468017 
L 503.809196 280.028822 
L 503.939052 286.515704 
L 504.068907 306.409466 
L 504.328619 285.44276 
L 504.458475 263.550763 
L 504.588331 270.067176 
L 504.718187 254.288007 
L 504.848043 261.247378 
L 504.977899 254.347068 
L 505.107754 236.303888 
L 505.23761 253.480838 
L 505.367466 246.521466 
L 505.497322 223.566368 
L 505.757034 248.362205 
L 505.88689 238.932109 
L 506.406313 311.744656 
L 506.666025 278.256988 
L 506.795881 289.852659 
L 506.925737 314.205537 
L 507.185449 273.856932 
L 507.315304 288.277695 
L 507.834728 242.5939 
L 507.964584 249.553272 
L 508.09444 243.066389 
L 508.354151 274.742849 
L 508.484007 287.086629 
L 508.743719 258.471504 
L 509.003431 288.110355 
L 509.133287 296.08361 
L 509.263143 289.557353 
L 509.522854 252.437424 
L 509.912422 290.364522 
L 510.042278 297.264832 
L 510.172134 319.15683 
L 510.431846 283.20828 
L 510.561701 276.691867 
L 510.691557 288.287539 
L 510.821413 281.800656 
L 511.081125 256.817792 
L 511.210981 263.334205 
L 511.340837 279.231496 
L 511.470693 271.258242 
L 511.730404 232.189295 
L 512.119972 283.7103 
L 512.379684 255.744848 
L 512.50954 258.550252 
L 512.769251 242.219846 
L 512.899107 251.315262 
L 513.028963 251.315262 
L 513.158819 264.308714 
L 513.288675 250.16357 
L 513.678243 278.079804 
L 513.808099 226.991915 
L 513.937954 243.607783 
L 514.06781 236.648412 
L 514.327522 281.150984 
L 514.457378 298.170437 
L 514.587234 278.276675 
L 514.846946 304.696693 
L 514.976801 298.209811 
L 515.236513 263.255457 
L 515.366369 269.742339 
L 515.496225 256.748888 
L 515.755937 284.596217 
L 515.885793 291.555588 
L 516.015649 285.068706 
L 516.145504 307.31507 
L 516.27536 301.605826 
L 516.405216 304.411231 
L 516.535072 323.684851 
L 516.92464 279.625237 
L 517.314207 315.091454 
L 517.444063 309.136122 
L 517.703775 270.657787 
L 517.963487 317.965763 
L 518.093343 296.073766 
L 518.353054 314.618965 
L 518.48291 298.003097 
L 518.612766 312.423859 
L 518.872478 280.826147 
L 519.002334 297.058118 
L 519.262046 278.473545 
L 519.391901 282.095962 
L 519.521757 303.18079 
L 519.781469 308.200988 
L 519.911325 308.447076 
L 520.171037 322.907212 
L 520.300893 312.335268 
L 520.430749 325.328719 
L 520.69046 286.820853 
L 520.820316 280.294597 
L 520.950172 264.062626 
L 521.080028 264.102 
L 521.209884 295.502842 
L 521.33974 295.502842 
L 521.469596 287.608335 
L 521.729307 307.009921 
L 521.989019 281.200201 
L 522.118875 289.094707 
L 522.248731 266.139609 
L 522.378587 272.665866 
L 522.508443 288.445035 
L 523.027866 203.01309 
L 523.157722 209.529503 
L 523.287578 209.529503 
L 523.807001 263.422797 
L 524.196569 225.731943 
L 524.326425 232.218826 
L 524.456281 248.450797 
L 524.586137 241.550487 
L 524.715993 227.129724 
L 524.845849 240.920501 
L 524.975704 240.920501 
L 525.235416 269.496251 
L 525.495128 246.354126 
L 525.624984 260.774889 
L 525.75484 246.354126 
L 525.884696 264.397306 
L 526.274263 219.097408 
L 526.404119 240.989406 
L 526.793687 181.071875 
L 526.923543 186.781119 
L 527.053398 181.071875 
L 527.31311 204.696333 
L 527.442966 189.015599 
L 527.702678 214.008306 
L 527.832534 194.114544 
L 527.96239 194.114544 
L 528.092246 189.045129 
L 528.222101 213.398008 
L 528.481813 288.573001 
L 528.741525 311.606847 
L 529.001237 282.194397 
L 529.131093 289.153769 
L 529.260948 285.039176 
L 529.390804 285.039176 
L 529.52066 298.032627 
L 529.650516 291.545745 
L 529.780372 297.501077 
L 529.910228 275.254713 
L 530.16994 321.046786 
L 530.559507 257.762771 
L 530.819219 303.722184 
L 530.949075 317.867328 
L 531.078931 293.750694 
L 531.208787 298.367307 
L 531.338643 296.625003 
L 531.468498 304.598258 
L 531.598354 288.366287 
L 531.72821 304.263578 
L 532.247634 240.408638 
L 532.37749 246.934894 
L 532.507346 271.051528 
L 533.026769 219.530523 
L 533.286481 196.575425 
L 533.416337 194.311415 
L 533.546193 194.311415 
L 533.805904 246.22616 
L 533.93576 233.232709 
L 534.065616 237.435893 
L 534.325328 271.071215 
L 534.455184 256.650452 
L 534.58504 281.003331 
L 534.714896 283.87764 
L 534.844751 197.185724 
L 534.974607 198.957558 
L 535.104463 215.573427 
L 535.234319 198.396477 
L 535.364175 208.968422 
L 535.494031 195.97497 
L 535.623887 285.088393 
L 535.883598 266.848343 
L 536.013454 270.569195 
L 536.14331 279.94023 
L 536.273166 279.94023 
L 536.403022 201.123133 
L 536.662734 247.486132 
L 536.79259 244.680727 
L 536.922446 226.273337 
L 537.052301 237.869009 
L 537.182157 231.352596 
L 537.312013 219.008817 
L 537.441869 234.906108 
L 537.701581 212.718805 
L 537.961293 305.169182 
L 538.091148 324.442802 
L 538.35086 310.425624 
L 538.480716 328.252246 
L 538.610572 328.252246 
L 538.740428 152.811118 
L 539.259851 212.935362 
L 539.389707 200.591583 
L 539.519563 200.591583 
L 539.649419 186.446439 
L 540.168843 250.360441 
L 540.298698 266.592412 
L 540.55841 249.366245 
L 540.818122 280.530842 
L 540.947978 274.57551 
L 541.597257 356.985493 
L 541.727113 346.413548 
L 541.856969 326.519786 
L 541.986825 340.940548 
L 542.376393 275.855168 
L 542.636104 314.392564 
L 542.895816 276.367031 
L 543.155528 308.693164 
L 543.285384 294.272401 
L 543.41524 294.272401 
L 543.545095 316.518765 
L 543.804807 276.485153 
L 543.934663 269.584843 
L 544.064519 287.628022 
L 544.194375 280.668651 
L 544.324231 300.562413 
L 544.454087 300.562413 
L 544.583943 278.316049 
L 544.713798 292.736811 
L 544.843654 272.843049 
L 544.97351 279.802421 
L 545.363078 239.82787 
L 545.492934 245.783202 
L 545.62279 268.7383 
L 545.882501 236.609037 
L 546.142213 265.83446 
L 546.272069 259.318047 
L 546.531781 289.783754 
L 546.791493 252.407894 
L 547.051204 281.072235 
L 547.18106 275.362991 
L 547.310916 291.043725 
L 547.440772 285.088393 
L 547.83034 254.484877 
L 548.090051 292.274166 
L 548.219907 275.097216 
L 548.349763 273.079294 
L 548.479619 277.193887 
L 548.609475 255.754692 
L 548.739331 263.727946 
L 548.869187 263.727946 
L 549.128898 235.053761 
L 549.648322 311.282011 
L 549.908034 285.482134 
L 550.167745 259.721632 
L 550.297601 266.247888 
L 550.557313 245.222121 
L 550.687169 262.241574 
L 550.946881 239.32585 
L 551.076737 245.842263 
L 551.206593 222.887165 
L 551.466304 247.604254 
L 551.59616 266.877874 
L 551.726016 247.604254 
L 551.855872 248.440953 
L 551.985728 230.397774 
L 552.24544 230.397774 
L 552.375295 250.66559 
L 552.505151 234.984856 
L 552.635007 259.337734 
L 552.764863 260.144903 
L 552.894719 260.144903 
L 553.024575 265.47025 
L 553.154431 215.593114 
L 553.284287 233.636293 
L 553.414143 211.744296 
L 553.543998 269.319068 
L 553.673854 269.319068 
L 553.80371 275.028312 
L 554.063422 236.254671 
L 554.45299 282.814539 
L 554.712701 241.294555 
L 554.972413 281.584099 
L 555.102269 274.683788 
L 555.361981 252.516172 
L 555.491837 260.489427 
L 555.621693 236.372793 
L 555.751548 233.96113 
L 555.881404 252.880383 
L 556.01126 228.182981 
L 556.141116 234.699394 
L 556.530684 196.782139 
L 556.66054 202.491383 
L 556.790395 202.491383 
L 556.920251 211.921479 
L 557.179963 189.596367 
L 557.309819 208.51562 
L 557.439675 199.085524 
L 557.569531 222.040622 
L 557.829243 181.692017 
L 557.959098 200.493148 
L 558.088954 200.493148 
L 558.348666 219.195844 
L 558.608378 184.379299 
L 558.738234 200.158468 
L 558.86809 183.139015 
L 559.127801 183.139015 
L 559.257657 160.183917 
L 559.387513 171.779588 
L 559.517369 157.358826 
L 559.777081 187.578444 
L 559.906937 184.77304 
L 560.036792 173.177369 
L 560.296504 196.880575 
L 560.42636 196.880575 
L 560.686072 248.086586 
L 560.815928 226.647391 
L 560.945784 233.606763 
L 561.07564 226.647391 
L 561.335351 253.874579 
L 561.465207 238.193845 
L 561.595063 242.308438 
L 561.724919 232.878342 
L 561.854775 235.683746 
L 562.114487 225.082271 
L 562.374198 251.689316 
L 562.504054 258.648688 
L 562.763766 243.509348 
L 562.893622 252.939444 
L 563.023478 252.939444 
L 563.28319 267.891757 
L 563.413045 249.848577 
L 563.542901 263.993721 
L 563.672757 257.506839 
L 563.802613 258.983368 
L 563.932469 264.692611 
L 564.062325 250.547467 
L 564.192181 266.779439 
L 564.322037 259.879128 
L 564.451892 266.779439 
L 564.84146 247.476288 
L 565.101172 273.492722 
L 565.231028 267.00584 
L 565.360884 250.006074 
L 565.620595 275.599236 
L 565.750451 269.112354 
L 565.880307 282.105805 
L 566.010163 282.105805 
L 566.140019 290.07906 
L 566.269875 275.933916 
L 566.659442 317.237343 
L 566.789298 304.243891 
L 566.919154 313.673987 
L 567.04901 307.718655 
L 567.308722 276.849364 
L 567.438578 267.419268 
L 567.568434 285.551039 
L 567.69829 279.733516 
L 567.828145 286.633826 
L 567.958001 286.633826 
L 568.087857 292.34307 
L 568.217713 292.34307 
L 568.477425 254.317537 
L 568.866992 291.230752 
L 568.996848 291.230752 
L 569.25656 262.851872 
L 569.775984 199.823788 
L 569.90584 199.823788 
L 570.035695 184.143055 
L 570.165551 206.035052 
L 570.295407 206.035052 
L 570.555119 238.735239 
L 570.944687 289.54751 
L 571.074542 295.502842 
L 571.204398 271.149963 
L 571.334254 271.149963 
L 571.723822 225.968188 
L 571.853678 241.865479 
L 571.983534 241.865479 
L 572.243245 273.975055 
L 572.373101 271.809479 
L 572.502957 265.873834 
L 572.632813 288.828932 
L 572.762669 269.555312 
L 573.022381 284.458408 
L 573.152237 305.897603 
L 573.282092 291.47684 
L 573.541804 300.798658 
L 573.67166 316.695949 
L 573.801516 310.209066 
L 574.191084 357.457982 
L 574.32094 181.455772 
L 574.450795 188.415144 
L 574.710507 231.264004 
L 574.970219 184.192272 
L 575.100075 184.192272 
L 575.229931 191.092582 
L 575.359787 171.19882 
L 575.619498 171.19882 
L 575.749354 186.977989 
L 575.87921 167.704369 
L 576.138922 208.929048 
L 576.268778 194.508285 
L 576.398634 194.508285 
L 576.918057 245.379617 
L 577.307625 228.104233 
L 577.437481 228.104233 
L 577.567337 214.293769 
L 577.827048 226.529269 
L 577.956904 212.108506 
L 578.08676 212.108506 
L 578.216616 218.624919 
L 578.606184 256.985132 
L 578.736039 244.641353 
L 578.865895 258.786497 
L 579.125607 243.076233 
L 579.255463 265.322597 
L 579.385319 262.517193 
L 579.515175 279.133061 
L 579.645031 263.353892 
L 579.774887 268.167375 
L 579.904742 268.167375 
L 580.034598 268.817048 
L 580.164454 285.993997 
L 580.424166 270.086863 
L 580.554022 271.484643 
L 580.683878 271.484643 
L 580.813734 262.773124 
L 580.943589 238.420246 
L 581.073445 238.420246 
L 581.203301 244.907128 
L 581.333157 269.417503 
L 581.463013 271.258242 
L 581.722725 305.041216 
L 581.852581 280.924583 
L 581.982437 305.041216 
L 582.242148 275.185808 
L 582.372004 275.185808 
L 582.50186 272.380404 
L 582.631716 266.936935 
L 582.761572 281.357698 
L 582.891428 275.402366 
L 583.021284 282.361737 
L 583.280995 261.70018 
L 583.540707 277.065921 
L 583.670563 277.065921 
L 583.800419 270.598726 
L 583.930275 274.713319 
L 584.060131 274.713319 
L 584.189987 253.274124 
L 584.319842 253.274124 
L 584.449698 238.853361 
L 584.579554 251.19714 
L 584.839266 251.19714 
L 584.969122 250.921521 
L 585.098978 279.074 
L 585.228834 272.17369 
L 585.358689 272.17369 
L 585.488545 278.129022 
L 585.618401 258.23526 
L 585.748257 258.23526 
L 586.007969 204.784924 
L 586.137825 220.130978 
L 586.657248 166.720017 
L 586.91696 199.676135 
L 587.046816 183.778844 
L 587.176672 200.010815 
L 587.306528 281.052548 
L 587.566239 295.739086 
L 587.696095 276.465466 
L 587.955807 195.955283 
L 588.085663 195.955283 
L 588.215519 208.299062 
L 588.475231 164.052422 
L 588.605087 164.052422 
L 588.734942 182.095602 
L 588.994654 182.095602 
L 589.12451 169.033245 
L 589.384222 184.950223 
L 589.514078 178.994891 
L 589.643934 160.951712 
L 589.903645 160.951712 
L 590.033501 179.870965 
L 590.163357 179.870965 
L 590.293213 173.384083 
L 590.423069 173.384083 
L 590.552925 165.922692 
L 590.682781 181.603425 
L 590.812637 181.603425 
L 590.942492 204.558523 
L 591.072348 204.558523 
L 591.33206 174.457027 
L 591.721628 174.457027 
L 591.851484 181.357337 
L 592.241051 181.357337 
L 592.370907 195.7781 
L 592.500763 188.818728 
L 592.630619 188.818728 
L 592.760475 213.870497 
L 592.890331 213.870497 
L 593.020187 204.440401 
L 593.53961 257.103254 
L 593.669466 223.960109 
L 593.929178 223.960109 
L 594.059034 231.933364 
L 594.188889 221.361419 
L 594.318745 221.361419 
L 594.448601 214.402047 
L 594.708313 214.402047 
L 594.838169 220.258944 
L 594.968025 195.906066 
L 595.227736 195.906066 
L 595.357592 207.501737 
L 595.617304 207.501737 
L 595.74716 199.528483 
L 595.877016 203.643076 
L 596.006872 197.687744 
L 596.136728 214.707197 
L 596.266584 210.592604 
L 596.526295 216.459344 
L 596.786007 239.178197 
L 596.915863 243.29279 
L 597.045719 264.731986 
L 597.175575 264.731986 
L 597.305431 281.347854 
L 597.565142 272.055567 
L 597.694998 291.949329 
L 597.95471 268.807205 
L 598.084566 271.612609 
L 598.214422 251.738534 
L 598.344278 261.148943 
L 598.474134 259.308204 
L 598.603989 265.263536 
L 598.733845 265.263536 
L 598.863701 255.83344 
L 598.993557 236.914187 
L 599.123413 236.914187 
L 599.253269 248.834694 
L 599.383125 243.971993 
L 599.512981 227.356125 
L 599.642836 236.786221 
L 599.772692 229.885911 
L 600.16226 262.389227 
L 600.551828 212.45303 
L 600.681684 232.346792 
L 600.941395 219.904577 
L 601.460819 219.904577 
L 601.590675 236.136548 
L 601.720531 233.478797 
L 601.850386 233.478797 
L 601.980242 230.673393 
L 602.110098 230.673393 
L 602.239954 238.646647 
L 602.36981 238.646647 
L 602.759378 204.519149 
L 602.889234 218.939912 
L 603.019089 218.939912 
L 603.148945 197.500717 
L 603.278801 197.500717 
L 603.408657 190.984304 
L 603.538513 207.698607 
L 603.798225 196.427772 
L 603.928081 178.384593 
L 604.057936 191.318984 
L 604.187792 169.426986 
L 604.317648 172.23239 
L 604.447504 157.811628 
L 604.966928 157.811628 
L 605.096784 174.043599 
L 605.356495 174.043599 
L 605.616207 207.570642 
L 605.746063 201.044385 
L 605.875919 201.044385 
L 606.265486 237.081527 
L 606.395342 237.081527 
L 606.525198 243.981837 
L 606.78491 233.468953 
L 606.914766 233.468953 
L 607.044622 210.513855 
L 607.174478 224.934618 
L 607.304334 224.934618 
L 607.434189 210.513855 
L 607.693901 210.513855 
L 607.823757 205.44444 
L 607.953613 205.44444 
L 608.213325 180.048149 
L 608.473036 180.048149 
L 608.602892 184.27102 
L 608.862604 184.27102 
L 609.252172 211.586799 
L 609.382028 223.182471 
L 609.511884 223.182471 
L 609.641739 232.612567 
L 609.901451 232.612567 
L 610.031307 225.653195 
L 610.161163 212.659744 
L 610.680586 212.659744 
L 610.810442 231.933364 
L 611.070154 203.357613 
L 611.20001 203.357613 
L 611.459722 232.317261 
L 611.589578 218.172117 
L 611.849289 218.172117 
L 612.109001 185.934576 
L 612.238857 192.893947 
L 612.368713 183.463851 
L 612.498569 183.463851 
L 612.628425 167.684682 
L 612.888136 167.684682 
L 613.017992 157.969124 
L 613.147848 176.721037 
L 613.537416 176.721037 
L 613.667272 183.20792 
L 613.797128 199.439891 
L 613.926983 193.730647 
L 614.056839 210.346515 
L 614.316551 210.346515 
L 614.446407 203.446205 
L 614.576263 211.143841 
L 614.706119 211.143841 
L 614.835975 225.564604 
L 614.965831 225.564604 
L 615.095686 208.948735 
L 615.355398 208.948735 
L 615.485254 202.432322 
L 615.61511 202.432322 
L 615.744966 193.996422 
L 615.874822 193.996422 
L 616.004678 191.191018 
L 616.394245 191.191018 
L 616.524101 187.037051 
L 616.653957 187.037051 
L 616.783813 201.457813 
L 616.913669 201.457813 
L 617.173381 172.724567 
L 617.952516 172.724567 
L 618.082372 189.74402 
L 618.342083 156.492596 
L 618.471939 163.451967 
L 618.601795 159.337374 
L 618.731651 159.337374 
L 618.861507 154.573108 
L 618.991363 163.511028 
L 619.251075 163.511028 
L 619.380931 170.027441 
L 619.510786 184.172585 
L 619.640642 159.819707 
L 619.770498 177.862886 
L 619.900354 177.862886 
L 620.03021 170.962576 
L 620.160066 170.962576 
L 620.289922 168.157172 
L 620.419778 168.157172 
L 620.549633 170.529461 
L 620.679489 170.529461 
L 620.809345 167.625621 
L 621.328769 167.625621 
L 621.458625 191.9785 
L 621.588481 170.086502 
L 621.848192 170.086502 
L 621.978048 155.941358 
L 622.887039 155.941358 
L 623.276607 138.784096 
L 623.925886 138.784096 
L 624.055742 152.92924 
L 625.614013 152.92924 
L 625.743869 138.784096 
L 626.003581 138.784096 
L 626.133436 121.331528 
L 626.263292 121.331528 
L 626.523004 152.200819 
L 626.65286 145.300509 
L 627.042428 145.300509 
L 627.172283 153.79547 
L 627.561851 153.79547 
L 627.691707 160.69578 
L 627.821563 153.79547 
L 627.951419 153.79547 
L 628.081275 143.223525 
L 629.769401 143.223525 
L 629.899257 146.02893 
L 630.029113 152.92924 
L 630.158969 152.92924 
L 630.41868 187.529227 
L 630.548536 166.090032 
L 630.938104 166.090032 
L 631.06796 168.688722 
L 632.106807 168.688722 
L 632.236663 172.803315 
L 632.366519 185.796767 
L 632.62623 185.796767 
L 633.015798 169.879788 
L 633.27551 147.239683 
L 633.405366 147.239683 
L 633.535222 164.416632 
L 633.665078 164.416632 
L 633.794933 161.611228 
L 634.83378 161.611228 
L 634.963636 149.178857 
L 637.04133 149.178857 
L 637.171186 158.608953 
L 637.560754 158.608953 
L 637.69061 156.010263 
L 637.820466 149.523381 
L 637.950322 149.523381 
L 638.080178 176.327296 
L 638.599601 176.327296 
L 638.729457 183.345729 
L 638.989169 183.345729 
L 639.119025 190.246039 
L 639.508592 190.246039 
L 639.638448 197.205411 
L 639.768304 190.679154 
L 640.157872 190.679154 
L 640.287728 183.778844 
L 640.547439 183.778844 
L 640.677295 204.922734 
L 640.807151 203.899007 
L 640.937007 210.464638 
L 641.066863 210.464638 
L 641.196719 223.694334 
L 641.326575 223.694334 
L 641.45643 226.499738 
L 641.716142 226.499738 
L 641.845998 242.180472 
L 641.975854 242.180472 
L 642.10571 226.499738 
L 642.235566 226.499738 
L 642.365422 223.694334 
L 642.495278 223.694334 
L 642.754989 210.937127 
L 642.884845 204.469932 
L 643.014701 211.370242 
L 643.144557 211.370242 
L 643.274413 192.450989 
L 643.534125 192.450989 
L 643.66398 176.219018 
L 643.793836 176.219018 
L 643.923692 167.773274 
L 644.702828 167.773274 
L 644.832683 182.194037 
L 645.352107 182.194037 
L 645.481963 157.841158 
L 645.741675 157.841158 
L 645.87153 147.269214 
L 646.001386 147.269214 
L 646.131242 158.864885 
L 646.261098 141.687935 
L 646.390954 141.687935 
L 646.52081 135.171523 
L 646.910377 135.171523 
L 647.040233 123.556164 
L 648.72836 123.556164 
L 648.858216 139.236898 
L 648.988072 139.236898 
L 649.117927 123.556164 
L 652.104613 123.556164 
L 652.234469 120.721229 
L 653.013604 120.721229 
L 653.14346 113.820919 
L 654.571875 113.820919 
L 654.70173 120.721229 
L 654.831586 120.721229 
L 654.961442 136.9532 
L 657.168992 136.9532 
L 657.298848 130.05289 
L 658.467551 130.05289 
L 658.597407 113.820919 
L 660.545245 113.820919 
L 660.675101 123.251015 
L 661.064669 123.251015 
L 661.194525 128.576362 
L 661.843804 128.576362 
L 661.97366 122.640717 
L 662.882651 122.640717 
L 663.012507 113.210621 
L 669.375445 113.210621 
L 669.505301 120.140461 
L 669.635157 120.140461 
L 669.765013 118.043791 
L 670.15458 118.043791 
L 670.284436 122.227289 
L 672.102419 122.227289 
L 672.232274 123.6546 
L 675.21896 123.6546 
L 675.348816 130.171012 
L 676.647374 130.171012 
L 676.77723 115.75025 
L 678.075789 115.75025 
L 678.205645 114.273721 
L 678.335501 114.273721 
L 678.465357 97.096772 
L 681.452042 97.096772 
L 681.581898 95.97461 
L 688.853827 95.97461 
L 688.983683 91.67299 
L 725.34333 91.67299 
L 725.473186 90.245679 
L 799.620895 90.245679 
L 799.750751 88.887273 
L 871.690909 88.887273 
L 871.690909 88.887273 
" style="fill:none;stroke:#8dd3c7;stroke-linecap:square;stroke-width:1.5;"/>
   </g>
   <g id="line2d_17">
    <path clip-path="url(#p0dd09a91a5)" d="M 161.509091 167.753587 
L 176.312661 167.753587 
L 176.442517 143.833824 
L 404.859014 143.833824 
L 404.988869 143.518831 
L 623.016895 143.518831 
L 623.146751 138.784096 
L 626.003581 138.784096 
L 626.133436 121.331528 
L 652.104613 121.331528 
L 652.234469 120.721229 
L 653.013604 120.721229 
L 653.14346 113.820919 
L 662.882651 113.820919 
L 663.012507 113.210621 
L 678.335501 113.210621 
L 678.465357 97.096772 
L 681.452042 97.096772 
L 681.581898 95.97461 
L 688.853827 95.97461 
L 688.983683 91.67299 
L 725.34333 91.67299 
L 725.473186 90.245679 
L 799.620895 90.245679 
L 799.750751 88.887273 
L 871.690909 88.887273 
L 871.690909 88.887273 
" style="fill:none;stroke:#feffb3;stroke-linecap:square;stroke-width:1.5;"/>
   </g>
   <g id="line2d_18">
    <path clip-path="url(#p0dd09a91a5)" d="M 161.509091 167.753587 
L 162.677794 167.753587 
L 162.80765 180.187301 
L 163.976353 180.187301 
L 164.106209 192.132524 
L 165.274911 192.132524 
L 165.404767 203.608448 
L 166.57347 203.608448 
L 166.703326 214.63351 
L 167.872029 214.63351 
L 168.001885 225.225423 
L 169.170588 225.225423 
L 169.300444 235.401206 
L 170.469147 235.401206 
L 170.599003 245.177205 
L 171.767706 245.177205 
L 171.897561 254.56913 
L 173.066264 254.56913 
L 173.19612 263.592067 
L 174.364823 263.592067 
L 174.494679 272.260515 
L 175.663382 272.260515 
L 175.793238 280.5884 
L 176.961941 280.5884 
L 177.091797 288.589102 
L 178.2605 288.589102 
L 178.390356 296.275476 
L 179.559058 296.275476 
L 179.688914 303.65987 
L 180.857617 303.65987 
L 180.987473 310.754149 
L 182.156176 310.754149 
L 182.286032 317.569711 
L 183.454735 317.569711 
L 183.584591 324.117505 
L 184.753294 324.117505 
L 184.88315 330.408052 
L 186.051853 330.408052 
L 186.181708 336.451459 
L 187.350411 336.451459 
L 187.480267 342.257434 
L 188.64897 342.257434 
L 188.778826 347.835306 
L 189.947529 347.835306 
L 190.077385 353.194037 
L 191.246088 353.194037 
L 191.375944 358.342236 
L 192.544647 358.342236 
L 192.674503 363.288175 
L 193.843206 363.288175 
L 193.973061 368.039799 
L 195.141764 368.039799 
L 195.27162 372.604744 
L 196.440323 372.604744 
L 196.570179 376.990342 
L 197.738882 376.990342 
L 197.868738 381.203641 
L 199.037441 381.203641 
L 199.167297 385.251409 
L 200.336 385.251409 
L 200.465855 389.14015 
L 201.634558 389.14015 
L 201.764414 392.876112 
L 202.933117 392.876112 
L 203.062973 396.465297 
L 204.231676 396.465297 
L 204.361532 399.913471 
L 205.530235 399.913471 
L 205.660091 403.226174 
L 206.828794 403.226174 
L 206.95865 406.408729 
L 208.127353 406.408729 
L 208.257208 409.466249 
L 209.425911 409.466249 
L 209.555767 412.403647 
L 210.72447 412.403647 
L 210.854326 415.225641 
L 212.023029 415.225641 
L 212.152885 417.936766 
L 213.321588 417.936766 
L 213.451444 420.541377 
L 214.620147 420.541377 
L 214.750002 423.043659 
L 215.918705 423.043659 
L 216.048561 425.447632 
L 217.217264 425.447632 
L 217.34712 427.757159 
L 218.515823 427.757159 
L 218.645679 429.97595 
L 219.814382 429.97595 
L 219.944238 432.10757 
L 221.112941 432.10757 
L 221.242797 434.155444 
L 222.4115 434.155444 
L 222.541355 436.122861 
L 223.710058 436.122861 
L 223.839914 438.012984 
L 225.008617 438.012984 
L 225.138473 439.828848 
L 226.307176 439.828848 
L 226.437032 441.573371 
L 227.605735 441.573371 
L 227.735591 443.249356 
L 228.904294 443.249356 
L 229.03415 444.859495 
L 230.202852 444.859495 
L 230.332708 446.406376 
L 231.501411 446.406376 
L 231.631267 447.892483 
L 232.79997 447.892483 
L 232.929826 449.320205 
L 234.098529 449.320205 
L 234.228385 450.691835 
L 235.397088 450.691835 
L 235.526944 452.009577 
L 236.695647 452.009577 
L 236.825502 453.275549 
L 237.994205 453.275549 
L 238.124061 454.491783 
L 239.292764 454.491783 
L 239.42262 455.660234 
L 240.591323 455.660234 
L 240.721179 456.782779 
L 241.889882 456.782779 
L 242.019738 457.861223 
L 243.188441 457.861223 
L 243.318297 458.897296 
L 244.486999 458.897296 
L 244.616855 459.892665 
L 245.785558 459.892665 
L 245.915414 460.848929 
L 247.084117 460.848929 
L 247.213973 461.767623 
L 248.382676 461.767623 
L 248.512532 462.650223 
L 249.681235 462.650223 
L 249.811091 463.498149 
L 250.979794 463.498149 
L 251.109649 464.312761 
L 252.278352 464.312761 
L 252.408208 465.095369 
L 253.576911 465.095369 
L 253.706767 465.847231 
L 254.87547 465.847231 
L 255.005326 466.569553 
L 256.174029 466.569553 
L 256.303885 467.263497 
L 257.472588 467.263497 
L 257.602444 467.930178 
L 258.771146 467.930178 
L 258.901002 468.570666 
L 260.069705 468.570666 
L 260.199561 469.185992 
L 261.368264 469.185992 
L 261.49812 469.777142 
L 262.666823 469.777142 
L 262.796679 470.345068 
L 263.965382 470.345068 
L 264.095238 470.890681 
L 265.263941 470.890681 
L 265.393796 471.414858 
L 266.562499 471.414858 
L 266.692355 471.918442 
L 267.861058 471.918442 
L 267.990914 472.402241 
L 269.159617 472.402241 
L 269.289473 472.867033 
L 270.458176 472.867033 
L 270.588032 473.313564 
L 271.756735 473.313564 
L 271.886591 473.742552 
L 273.055293 473.742552 
L 273.185149 474.154686 
L 274.353852 474.154686 
L 274.483708 474.550628 
L 275.652411 474.550628 
L 275.782267 474.931015 
L 276.95097 474.931015 
L 277.080826 475.296457 
L 278.249529 475.296457 
L 278.379385 475.647542 
L 279.548088 475.647542 
L 279.677943 475.984834 
L 280.846646 475.984834 
L 280.976502 476.308874 
L 282.145205 476.308874 
L 282.275061 476.620183 
L 283.443764 476.620183 
L 283.57362 476.919262 
L 284.742323 476.919262 
L 284.872179 477.206591 
L 286.040882 477.206591 
L 286.170738 477.482631 
L 287.33944 477.482631 
L 287.469296 477.747826 
L 288.637999 477.747826 
L 288.767855 478.002603 
L 289.936558 478.002603 
L 290.066414 478.247369 
L 291.235117 478.247369 
L 291.364973 478.48252 
L 292.533676 478.48252 
L 292.663532 478.708432 
L 293.832235 478.708432 
L 293.96209 478.925468 
L 295.130793 478.925468 
L 295.390505 479.133978 
L 296.429352 479.133978 
L 296.689064 479.334296 
L 297.727911 479.334296 
L 297.987623 479.526743 
L 299.02647 479.526743 
L 299.286182 479.71163 
L 300.325029 479.71163 
L 300.58474 479.889254 
L 301.623587 479.889254 
L 301.883299 480.059898 
L 302.922146 480.059898 
L 303.181858 480.223839 
L 304.220705 480.223839 
L 304.480417 480.381339 
L 305.519264 480.381339 
L 305.778976 480.532651 
L 306.817823 480.532651 
L 307.077535 480.678018 
L 308.116382 480.678018 
L 308.376093 480.817674 
L 309.41494 480.817674 
L 309.674652 480.951843 
L 310.713499 480.951843 
L 310.973211 481.080741 
L 312.012058 481.080741 
L 312.27177 481.204575 
L 313.310617 481.204575 
L 313.570329 481.323544 
L 314.609176 481.323544 
L 314.868887 481.437839 
L 317.206293 481.547644 
L 317.466005 481.653134 
L 319.803411 481.75448 
L 320.063123 481.851845 
L 322.400529 481.945384 
L 322.66024 482.035248 
L 324.997646 482.121582 
L 325.257358 482.204524 
L 327.594764 482.284207 
L 327.854476 482.36076 
L 330.191882 482.434305 
L 330.451593 482.504961 
L 332.788999 482.572841 
L 333.048711 482.638054 
L 335.386117 482.700705 
L 335.775684 482.760894 
L 337.983234 482.818719 
L 338.372802 482.874272 
L 341.878911 482.978916 
L 342.268479 483.028176 
L 345.774587 483.120964 
L 346.164155 483.164643 
L 349.670264 483.246919 
L 350.059831 483.285649 
L 354.864499 483.392947 
L 355.383923 483.42594 
L 360.058734 483.517343 
L 360.708014 483.545449 
L 366.551528 483.647255 
L 367.200808 483.670257 
L 374.342881 483.7724 
L 375.251873 483.790485 
L 384.731352 483.898676 
L 385.900055 483.9118 
L 399.015499 484.017776 
L 400.963337 484.034334 
L 427.583793 484.143726 
L 432.128749 484.15691 
L 871.690909 484.232727 
L 871.690909 484.232727 
" style="fill:none;stroke:#bfbbd9;stroke-linecap:square;stroke-width:1.5;"/>
   </g>
   <g id="patch_3">
    <path d="M 126 504 
L 126 69.12 
" style="fill:none;stroke:#ffffff;stroke-linecap:square;stroke-linejoin:miter;stroke-width:0.8;"/>
   </g>
   <g id="patch_4">
    <path d="M 907.2 504 
L 907.2 69.12 
" style="fill:none;stroke:#ffffff;stroke-linecap:square;stroke-linejoin:miter;stroke-width:0.8;"/>
   </g>
   <g id="patch_5">
    <path d="M 126 504 
L 907.2 504 
" style="fill:none;stroke:#ffffff;stroke-linecap:square;stroke-linejoin:miter;stroke-width:0.8;"/>
   </g>
   <g id="patch_6">
    <path d="M 126 69.12 
L 907.2 69.12 
" style="fill:none;stroke:#ffffff;stroke-linecap:square;stroke-linejoin:miter;stroke-width:0.8;"/>
   </g>
   <g id="text_17">
    <!-- instance 4 with error 0.0016406075219369542 -->
    <g style="fill:#ffffff;" transform="translate(374.229375 63.12)scale(0.12 -0.12)">
     <defs>
      <path d="M 2834 3397 
L 2834 2853 
Q 2591 2978 2328 3040 
Q 2066 3103 1784 3103 
Q 1356 3103 1142 2972 
Q 928 2841 928 2578 
Q 928 2378 1081 2264 
Q 1234 2150 1697 2047 
L 1894 2003 
Q 2506 1872 2764 1633 
Q 3022 1394 3022 966 
Q 3022 478 2636 193 
Q 2250 -91 1575 -91 
Q 1294 -91 989 -36 
Q 684 19 347 128 
L 347 722 
Q 666 556 975 473 
Q 1284 391 1588 391 
Q 1994 391 2212 530 
Q 2431 669 2431 922 
Q 2431 1156 2273 1281 
Q 2116 1406 1581 1522 
L 1381 1569 
Q 847 1681 609 1914 
Q 372 2147 372 2553 
Q 372 3047 722 3315 
Q 1072 3584 1716 3584 
Q 2034 3584 2315 3537 
Q 2597 3491 2834 3397 
z
" id="DejaVuSans-73" transform="scale(0.015625)"/>
      <path d="M 3122 3366 
L 3122 2828 
Q 2878 2963 2633 3030 
Q 2388 3097 2138 3097 
Q 1578 3097 1268 2742 
Q 959 2388 959 1747 
Q 959 1106 1268 751 
Q 1578 397 2138 397 
Q 2388 397 2633 464 
Q 2878 531 3122 666 
L 3122 134 
Q 2881 22 2623 -34 
Q 2366 -91 2075 -91 
Q 1284 -91 818 406 
Q 353 903 353 1747 
Q 353 2603 823 3093 
Q 1294 3584 2113 3584 
Q 2378 3584 2631 3529 
Q 2884 3475 3122 3366 
z
" id="DejaVuSans-63" transform="scale(0.015625)"/>
      <path id="DejaVuSans-20" transform="scale(0.015625)"/>
      <path d="M 269 3500 
L 844 3500 
L 1563 769 
L 2278 3500 
L 2956 3500 
L 3675 769 
L 4391 3500 
L 4966 3500 
L 4050 0 
L 3372 0 
L 2619 2869 
L 1863 0 
L 1184 0 
L 269 3500 
z
" id="DejaVuSans-77" transform="scale(0.015625)"/>
      <path d="M 3513 2113 
L 3513 0 
L 2938 0 
L 2938 2094 
Q 2938 2591 2744 2837 
Q 2550 3084 2163 3084 
Q 1697 3084 1428 2787 
Q 1159 2491 1159 1978 
L 1159 0 
L 581 0 
L 581 4863 
L 1159 4863 
L 1159 2956 
Q 1366 3272 1645 3428 
Q 1925 3584 2291 3584 
Q 2894 3584 3203 3211 
Q 3513 2838 3513 2113 
z
" id="DejaVuSans-68" transform="scale(0.015625)"/>
      <path d="M 684 794 
L 1344 794 
L 1344 0 
L 684 0 
L 684 794 
z
" id="DejaVuSans-2e" transform="scale(0.015625)"/>
      <path d="M 2113 2584 
Q 1688 2584 1439 2293 
Q 1191 2003 1191 1497 
Q 1191 994 1439 701 
Q 1688 409 2113 409 
Q 2538 409 2786 701 
Q 3034 994 3034 1497 
Q 3034 2003 2786 2293 
Q 2538 2584 2113 2584 
z
M 3366 4563 
L 3366 3988 
Q 3128 4100 2886 4159 
Q 2644 4219 2406 4219 
Q 1781 4219 1451 3797 
Q 1122 3375 1075 2522 
Q 1259 2794 1537 2939 
Q 1816 3084 2150 3084 
Q 2853 3084 3261 2657 
Q 3669 2231 3669 1497 
Q 3669 778 3244 343 
Q 2819 -91 2113 -91 
Q 1303 -91 875 529 
Q 447 1150 447 2328 
Q 447 3434 972 4092 
Q 1497 4750 2381 4750 
Q 2619 4750 2861 4703 
Q 3103 4656 3366 4563 
z
" id="DejaVuSans-36" transform="scale(0.015625)"/>
      <path d="M 525 4666 
L 3525 4666 
L 3525 4397 
L 1831 0 
L 1172 0 
L 2766 4134 
L 525 4134 
L 525 4666 
z
" id="DejaVuSans-37" transform="scale(0.015625)"/>
      <path d="M 703 97 
L 703 672 
Q 941 559 1184 500 
Q 1428 441 1663 441 
Q 2288 441 2617 861 
Q 2947 1281 2994 2138 
Q 2813 1869 2534 1725 
Q 2256 1581 1919 1581 
Q 1219 1581 811 2004 
Q 403 2428 403 3163 
Q 403 3881 828 4315 
Q 1253 4750 1959 4750 
Q 2769 4750 3195 4129 
Q 3622 3509 3622 2328 
Q 3622 1225 3098 567 
Q 2575 -91 1691 -91 
Q 1453 -91 1209 -44 
Q 966 3 703 97 
z
M 1959 2075 
Q 2384 2075 2632 2365 
Q 2881 2656 2881 3163 
Q 2881 3666 2632 3958 
Q 2384 4250 1959 4250 
Q 1534 4250 1286 3958 
Q 1038 3666 1038 3163 
Q 1038 2656 1286 2365 
Q 1534 2075 1959 2075 
z
" id="DejaVuSans-39" transform="scale(0.015625)"/>
     </defs>
     <use xlink:href="#DejaVuSans-69"/>
     <use x="27.783203" xlink:href="#DejaVuSans-6e"/>
     <use x="91.162109" xlink:href="#DejaVuSans-73"/>
     <use x="143.261719" xlink:href="#DejaVuSans-74"/>
     <use x="182.470703" xlink:href="#DejaVuSans-61"/>
     <use x="243.75" xlink:href="#DejaVuSans-6e"/>
     <use x="307.128906" xlink:href="#DejaVuSans-63"/>
     <use x="362.109375" xlink:href="#DejaVuSans-65"/>
     <use x="423.632812" xlink:href="#DejaVuSans-20"/>
     <use x="455.419922" xlink:href="#DejaVuSans-34"/>
     <use x="519.042969" xlink:href="#DejaVuSans-20"/>
     <use x="550.830078" xlink:href="#DejaVuSans-77"/>
     <use x="632.617188" xlink:href="#DejaVuSans-69"/>
     <use x="660.400391" xlink:href="#DejaVuSans-74"/>
     <use x="699.609375" xlink:href="#DejaVuSans-68"/>
     <use x="762.988281" xlink:href="#DejaVuSans-20"/>
     <use x="794.775391" xlink:href="#DejaVuSans-65"/>
     <use x="856.298828" xlink:href="#DejaVuSans-72"/>
     <use x="895.662109" xlink:href="#DejaVuSans-72"/>
     <use x="934.525391" xlink:href="#DejaVuSans-6f"/>
     <use x="995.707031" xlink:href="#DejaVuSans-72"/>
     <use x="1036.820312" xlink:href="#DejaVuSans-20"/>
     <use x="1068.607422" xlink:href="#DejaVuSans-30"/>
     <use x="1132.230469" xlink:href="#DejaVuSans-2e"/>
     <use x="1164.017578" xlink:href="#DejaVuSans-30"/>
     <use x="1227.640625" xlink:href="#DejaVuSans-30"/>
     <use x="1291.263672" xlink:href="#DejaVuSans-31"/>
     <use x="1354.886719" xlink:href="#DejaVuSans-36"/>
     <use x="1418.509766" xlink:href="#DejaVuSans-34"/>
     <use x="1482.132812" xlink:href="#DejaVuSans-30"/>
     <use x="1545.755859" xlink:href="#DejaVuSans-36"/>
     <use x="1609.378906" xlink:href="#DejaVuSans-30"/>
     <use x="1673.001953" xlink:href="#DejaVuSans-37"/>
     <use x="1736.625" xlink:href="#DejaVuSans-35"/>
     <use x="1800.248047" xlink:href="#DejaVuSans-32"/>
     <use x="1863.871094" xlink:href="#DejaVuSans-31"/>
     <use x="1927.494141" xlink:href="#DejaVuSans-39"/>
     <use x="1991.117188" xlink:href="#DejaVuSans-33"/>
     <use x="2054.740234" xlink:href="#DejaVuSans-36"/>
     <use x="2118.363281" xlink:href="#DejaVuSans-39"/>
     <use x="2181.986328" xlink:href="#DejaVuSans-35"/>
     <use x="2245.609375" xlink:href="#DejaVuSans-34"/>
     <use x="2309.232422" xlink:href="#DejaVuSans-32"/>
    </g>
   </g>
   <g id="legend_1">
    <g id="patch_7">
     <path d="M 805.348438 499 
L 900.2 499 
Q 902.2 499 902.2 497 
L 902.2 453.965625 
Q 902.2 451.965625 900.2 451.965625 
L 805.348438 451.965625 
Q 803.348438 451.965625 803.348438 453.965625 
L 803.348438 497 
Q 803.348438 499 805.348438 499 
z
" style="opacity:0.8;stroke:#cccccc;stroke-linejoin:miter;"/>
    </g>
    <g id="line2d_19">
     <path d="M 807.348438 460.064062 
L 827.348438 460.064062 
" style="fill:none;stroke:#8dd3c7;stroke-linecap:square;stroke-width:1.5;"/>
    </g>
    <g id="line2d_20"/>
    <g id="text_18">
     <!-- cost -->
     <g style="fill:#ffffff;" transform="translate(835.348438 463.564062)scale(0.1 -0.1)">
      <use xlink:href="#DejaVuSans-63"/>
      <use x="54.980469" xlink:href="#DejaVuSans-6f"/>
      <use x="116.162109" xlink:href="#DejaVuSans-73"/>
      <use x="168.261719" xlink:href="#DejaVuSans-74"/>
     </g>
    </g>
    <g id="line2d_21">
     <path d="M 807.348438 474.742188 
L 827.348438 474.742188 
" style="fill:none;stroke:#feffb3;stroke-linecap:square;stroke-width:1.5;"/>
    </g>
    <g id="line2d_22"/>
    <g id="text_19">
     <!-- best cost -->
     <g style="fill:#ffffff;" transform="translate(835.348438 478.242188)scale(0.1 -0.1)">
      <defs>
       <path d="M 3116 1747 
Q 3116 2381 2855 2742 
Q 2594 3103 2138 3103 
Q 1681 3103 1420 2742 
Q 1159 2381 1159 1747 
Q 1159 1113 1420 752 
Q 1681 391 2138 391 
Q 2594 391 2855 752 
Q 3116 1113 3116 1747 
z
M 1159 2969 
Q 1341 3281 1617 3432 
Q 1894 3584 2278 3584 
Q 2916 3584 3314 3078 
Q 3713 2572 3713 1747 
Q 3713 922 3314 415 
Q 2916 -91 2278 -91 
Q 1894 -91 1617 61 
Q 1341 213 1159 525 
L 1159 0 
L 581 0 
L 581 4863 
L 1159 4863 
L 1159 2969 
z
" id="DejaVuSans-62" transform="scale(0.015625)"/>
      </defs>
      <use xlink:href="#DejaVuSans-62"/>
      <use x="63.476562" xlink:href="#DejaVuSans-65"/>
      <use x="125" xlink:href="#DejaVuSans-73"/>
      <use x="177.099609" xlink:href="#DejaVuSans-74"/>
      <use x="216.308594" xlink:href="#DejaVuSans-20"/>
      <use x="248.095703" xlink:href="#DejaVuSans-63"/>
      <use x="303.076172" xlink:href="#DejaVuSans-6f"/>
      <use x="364.257812" xlink:href="#DejaVuSans-73"/>
      <use x="416.357422" xlink:href="#DejaVuSans-74"/>
     </g>
    </g>
    <g id="line2d_23">
     <path d="M 807.348438 489.420313 
L 827.348438 489.420313 
" style="fill:none;stroke:#bfbbd9;stroke-linecap:square;stroke-width:1.5;"/>
    </g>
    <g id="line2d_24"/>
    <g id="text_20">
     <!-- temperature -->
     <g style="fill:#ffffff;" transform="translate(835.348438 492.920313)scale(0.1 -0.1)">
      <defs>
       <path d="M 3328 2828 
Q 3544 3216 3844 3400 
Q 4144 3584 4550 3584 
Q 5097 3584 5394 3201 
Q 5691 2819 5691 2113 
L 5691 0 
L 5113 0 
L 5113 2094 
Q 5113 2597 4934 2840 
Q 4756 3084 4391 3084 
Q 3944 3084 3684 2787 
Q 3425 2491 3425 1978 
L 3425 0 
L 2847 0 
L 2847 2094 
Q 2847 2600 2669 2842 
Q 2491 3084 2119 3084 
Q 1678 3084 1418 2786 
Q 1159 2488 1159 1978 
L 1159 0 
L 581 0 
L 581 3500 
L 1159 3500 
L 1159 2956 
Q 1356 3278 1631 3431 
Q 1906 3584 2284 3584 
Q 2666 3584 2933 3390 
Q 3200 3197 3328 2828 
z
" id="DejaVuSans-6d" transform="scale(0.015625)"/>
       <path d="M 1159 525 
L 1159 -1331 
L 581 -1331 
L 581 3500 
L 1159 3500 
L 1159 2969 
Q 1341 3281 1617 3432 
Q 1894 3584 2278 3584 
Q 2916 3584 3314 3078 
Q 3713 2572 3713 1747 
Q 3713 922 3314 415 
Q 2916 -91 2278 -91 
Q 1894 -91 1617 61 
Q 1341 213 1159 525 
z
M 3116 1747 
Q 3116 2381 2855 2742 
Q 2594 3103 2138 3103 
Q 1681 3103 1420 2742 
Q 1159 2381 1159 1747 
Q 1159 1113 1420 752 
Q 1681 391 2138 391 
Q 2594 391 2855 752 
Q 3116 1113 3116 1747 
z
" id="DejaVuSans-70" transform="scale(0.015625)"/>
       <path d="M 544 1381 
L 544 3500 
L 1119 3500 
L 1119 1403 
Q 1119 906 1312 657 
Q 1506 409 1894 409 
Q 2359 409 2629 706 
Q 2900 1003 2900 1516 
L 2900 3500 
L 3475 3500 
L 3475 0 
L 2900 0 
L 2900 538 
Q 2691 219 2414 64 
Q 2138 -91 1772 -91 
Q 1169 -91 856 284 
Q 544 659 544 1381 
z
M 1991 3584 
L 1991 3584 
z
" id="DejaVuSans-75" transform="scale(0.015625)"/>
      </defs>
      <use xlink:href="#DejaVuSans-74"/>
      <use x="39.208984" xlink:href="#DejaVuSans-65"/>
      <use x="100.732422" xlink:href="#DejaVuSans-6d"/>
      <use x="198.144531" xlink:href="#DejaVuSans-70"/>
      <use x="261.621094" xlink:href="#DejaVuSans-65"/>
      <use x="323.144531" xlink:href="#DejaVuSans-72"/>
      <use x="364.257812" xlink:href="#DejaVuSans-61"/>
      <use x="425.537109" xlink:href="#DejaVuSans-74"/>
      <use x="464.746094" xlink:href="#DejaVuSans-75"/>
      <use x="528.125" xlink:href="#DejaVuSans-72"/>
      <use x="566.988281" xlink:href="#DejaVuSans-65"/>
     </g>
    </g>
   </g>
  </g>
 </g>
 <defs>
  <clipPath id="p0dd09a91a5">
   <rect height="434.88" width="781.2" x="126" y="69.12"/>
  </clipPath>
 </defs>
</svg>
