<?xml version="1.0" encoding="utf-8" standalone="no"?>
<!DOCTYPE svg PUBLIC "-//W3C//DTD SVG 1.1//EN"
  "http://www.w3.org/Graphics/SVG/1.1/DTD/svg11.dtd">
<svg height="576pt" version="1.1" viewBox="0 0 1008 576" width="1008pt" xmlns="http://www.w3.org/2000/svg" xmlns:xlink="http://www.w3.org/1999/xlink">
 <metadata>
  <rdf:RDF xmlns:cc="http://creativecommons.org/ns#" xmlns:dc="http://purl.org/dc/elements/1.1/" xmlns:rdf="http://www.w3.org/1999/02/22-rdf-syntax-ns#">
   <cc:Work>
    <dc:type rdf:resource="http://purl.org/dc/dcmitype/StillImage"/>
    <dc:date>2022-01-07T21:26:28.483127</dc:date>
    <dc:format>image/svg+xml</dc:format>
    <dc:creator>
     <cc:Agent>
      <dc:title>Matplotlib v3.4.3, https://matplotlib.org/</dc:title>
     </cc:Agent>
    </dc:creator>
   </cc:Work>
  </rdf:RDF>
 </metadata>
 <defs>
  <style type="text/css">*{stroke-linecap:butt;stroke-linejoin:round;}</style>
 </defs>
 <g id="figure_1">
  <g id="patch_1">
   <path d="M 0 576 
L 1008 576 
L 1008 0 
L 0 0 
z
"/>
  </g>
  <g id="axes_1">
   <g id="patch_2">
    <path d="M 126 504 
L 907.2 504 
L 907.2 69.12 
L 126 69.12 
z
"/>
   </g>
   <g id="matplotlib.axis_1">
    <g id="xtick_1">
     <g id="line2d_1">
      <defs>
       <path d="M 0 0 
L 0 3.5 
" id="m395773a49b" style="stroke:#ffffff;stroke-width:0.8;"/>
      </defs>
      <g>
       <use style="fill:#ffffff;stroke:#ffffff;stroke-width:0.8;" x="161.509091" xlink:href="#m395773a49b" y="504"/>
      </g>
     </g>
     <g id="text_1">
      <!-- 0 -->
      <g style="fill:#ffffff;" transform="translate(158.327841 518.598438)scale(0.1 -0.1)">
       <defs>
        <path d="M 2034 4250 
Q 1547 4250 1301 3770 
Q 1056 3291 1056 2328 
Q 1056 1369 1301 889 
Q 1547 409 2034 409 
Q 2525 409 2770 889 
Q 3016 1369 3016 2328 
Q 3016 3291 2770 3770 
Q 2525 4250 2034 4250 
z
M 2034 4750 
Q 2819 4750 3233 4129 
Q 3647 3509 3647 2328 
Q 3647 1150 3233 529 
Q 2819 -91 2034 -91 
Q 1250 -91 836 529 
Q 422 1150 422 2328 
Q 422 3509 836 4129 
Q 1250 4750 2034 4750 
z
" id="DejaVuSans-30" transform="scale(0.015625)"/>
       </defs>
       <use xlink:href="#DejaVuSans-30"/>
      </g>
     </g>
    </g>
    <g id="xtick_2">
     <g id="line2d_2">
      <g>
       <use style="fill:#ffffff;stroke:#ffffff;stroke-width:0.8;" x="292.878277" xlink:href="#m395773a49b" y="504"/>
      </g>
     </g>
     <g id="text_2">
      <!-- 500 -->
      <g style="fill:#ffffff;" transform="translate(283.334527 518.598438)scale(0.1 -0.1)">
       <defs>
        <path d="M 691 4666 
L 3169 4666 
L 3169 4134 
L 1269 4134 
L 1269 2991 
Q 1406 3038 1543 3061 
Q 1681 3084 1819 3084 
Q 2600 3084 3056 2656 
Q 3513 2228 3513 1497 
Q 3513 744 3044 326 
Q 2575 -91 1722 -91 
Q 1428 -91 1123 -41 
Q 819 9 494 109 
L 494 744 
Q 775 591 1075 516 
Q 1375 441 1709 441 
Q 2250 441 2565 725 
Q 2881 1009 2881 1497 
Q 2881 1984 2565 2268 
Q 2250 2553 1709 2553 
Q 1456 2553 1204 2497 
Q 953 2441 691 2322 
L 691 4666 
z
" id="DejaVuSans-35" transform="scale(0.015625)"/>
       </defs>
       <use xlink:href="#DejaVuSans-35"/>
       <use x="63.623047" xlink:href="#DejaVuSans-30"/>
       <use x="127.246094" xlink:href="#DejaVuSans-30"/>
      </g>
     </g>
    </g>
    <g id="xtick_3">
     <g id="line2d_3">
      <g>
       <use style="fill:#ffffff;stroke:#ffffff;stroke-width:0.8;" x="424.247462" xlink:href="#m395773a49b" y="504"/>
      </g>
     </g>
     <g id="text_3">
      <!-- 1000 -->
      <g style="fill:#ffffff;" transform="translate(411.522462 518.598438)scale(0.1 -0.1)">
       <defs>
        <path d="M 794 531 
L 1825 531 
L 1825 4091 
L 703 3866 
L 703 4441 
L 1819 4666 
L 2450 4666 
L 2450 531 
L 3481 531 
L 3481 0 
L 794 0 
L 794 531 
z
" id="DejaVuSans-31" transform="scale(0.015625)"/>
       </defs>
       <use xlink:href="#DejaVuSans-31"/>
       <use x="63.623047" xlink:href="#DejaVuSans-30"/>
       <use x="127.246094" xlink:href="#DejaVuSans-30"/>
       <use x="190.869141" xlink:href="#DejaVuSans-30"/>
      </g>
     </g>
    </g>
    <g id="xtick_4">
     <g id="line2d_4">
      <g>
       <use style="fill:#ffffff;stroke:#ffffff;stroke-width:0.8;" x="555.616648" xlink:href="#m395773a49b" y="504"/>
      </g>
     </g>
     <g id="text_4">
      <!-- 1500 -->
      <g style="fill:#ffffff;" transform="translate(542.891648 518.598438)scale(0.1 -0.1)">
       <use xlink:href="#DejaVuSans-31"/>
       <use x="63.623047" xlink:href="#DejaVuSans-35"/>
       <use x="127.246094" xlink:href="#DejaVuSans-30"/>
       <use x="190.869141" xlink:href="#DejaVuSans-30"/>
      </g>
     </g>
    </g>
    <g id="xtick_5">
     <g id="line2d_5">
      <g>
       <use style="fill:#ffffff;stroke:#ffffff;stroke-width:0.8;" x="686.985834" xlink:href="#m395773a49b" y="504"/>
      </g>
     </g>
     <g id="text_5">
      <!-- 2000 -->
      <g style="fill:#ffffff;" transform="translate(674.260834 518.598438)scale(0.1 -0.1)">
       <defs>
        <path d="M 1228 531 
L 3431 531 
L 3431 0 
L 469 0 
L 469 531 
Q 828 903 1448 1529 
Q 2069 2156 2228 2338 
Q 2531 2678 2651 2914 
Q 2772 3150 2772 3378 
Q 2772 3750 2511 3984 
Q 2250 4219 1831 4219 
Q 1534 4219 1204 4116 
Q 875 4013 500 3803 
L 500 4441 
Q 881 4594 1212 4672 
Q 1544 4750 1819 4750 
Q 2544 4750 2975 4387 
Q 3406 4025 3406 3419 
Q 3406 3131 3298 2873 
Q 3191 2616 2906 2266 
Q 2828 2175 2409 1742 
Q 1991 1309 1228 531 
z
" id="DejaVuSans-32" transform="scale(0.015625)"/>
       </defs>
       <use xlink:href="#DejaVuSans-32"/>
       <use x="63.623047" xlink:href="#DejaVuSans-30"/>
       <use x="127.246094" xlink:href="#DejaVuSans-30"/>
       <use x="190.869141" xlink:href="#DejaVuSans-30"/>
      </g>
     </g>
    </g>
    <g id="xtick_6">
     <g id="line2d_6">
      <g>
       <use style="fill:#ffffff;stroke:#ffffff;stroke-width:0.8;" x="818.35502" xlink:href="#m395773a49b" y="504"/>
      </g>
     </g>
     <g id="text_6">
      <!-- 2500 -->
      <g style="fill:#ffffff;" transform="translate(805.63002 518.598438)scale(0.1 -0.1)">
       <use xlink:href="#DejaVuSans-32"/>
       <use x="63.623047" xlink:href="#DejaVuSans-35"/>
       <use x="127.246094" xlink:href="#DejaVuSans-30"/>
       <use x="190.869141" xlink:href="#DejaVuSans-30"/>
      </g>
     </g>
    </g>
    <g id="text_7">
     <!-- iteration -->
     <g style="fill:#ffffff;" transform="translate(495.477344 532.276562)scale(0.1 -0.1)">
      <defs>
       <path d="M 603 3500 
L 1178 3500 
L 1178 0 
L 603 0 
L 603 3500 
z
M 603 4863 
L 1178 4863 
L 1178 4134 
L 603 4134 
L 603 4863 
z
" id="DejaVuSans-69" transform="scale(0.015625)"/>
       <path d="M 1172 4494 
L 1172 3500 
L 2356 3500 
L 2356 3053 
L 1172 3053 
L 1172 1153 
Q 1172 725 1289 603 
Q 1406 481 1766 481 
L 2356 481 
L 2356 0 
L 1766 0 
Q 1100 0 847 248 
Q 594 497 594 1153 
L 594 3053 
L 172 3053 
L 172 3500 
L 594 3500 
L 594 4494 
L 1172 4494 
z
" id="DejaVuSans-74" transform="scale(0.015625)"/>
       <path d="M 3597 1894 
L 3597 1613 
L 953 1613 
Q 991 1019 1311 708 
Q 1631 397 2203 397 
Q 2534 397 2845 478 
Q 3156 559 3463 722 
L 3463 178 
Q 3153 47 2828 -22 
Q 2503 -91 2169 -91 
Q 1331 -91 842 396 
Q 353 884 353 1716 
Q 353 2575 817 3079 
Q 1281 3584 2069 3584 
Q 2775 3584 3186 3129 
Q 3597 2675 3597 1894 
z
M 3022 2063 
Q 3016 2534 2758 2815 
Q 2500 3097 2075 3097 
Q 1594 3097 1305 2825 
Q 1016 2553 972 2059 
L 3022 2063 
z
" id="DejaVuSans-65" transform="scale(0.015625)"/>
       <path d="M 2631 2963 
Q 2534 3019 2420 3045 
Q 2306 3072 2169 3072 
Q 1681 3072 1420 2755 
Q 1159 2438 1159 1844 
L 1159 0 
L 581 0 
L 581 3500 
L 1159 3500 
L 1159 2956 
Q 1341 3275 1631 3429 
Q 1922 3584 2338 3584 
Q 2397 3584 2469 3576 
Q 2541 3569 2628 3553 
L 2631 2963 
z
" id="DejaVuSans-72" transform="scale(0.015625)"/>
       <path d="M 2194 1759 
Q 1497 1759 1228 1600 
Q 959 1441 959 1056 
Q 959 750 1161 570 
Q 1363 391 1709 391 
Q 2188 391 2477 730 
Q 2766 1069 2766 1631 
L 2766 1759 
L 2194 1759 
z
M 3341 1997 
L 3341 0 
L 2766 0 
L 2766 531 
Q 2569 213 2275 61 
Q 1981 -91 1556 -91 
Q 1019 -91 701 211 
Q 384 513 384 1019 
Q 384 1609 779 1909 
Q 1175 2209 1959 2209 
L 2766 2209 
L 2766 2266 
Q 2766 2663 2505 2880 
Q 2244 3097 1772 3097 
Q 1472 3097 1187 3025 
Q 903 2953 641 2809 
L 641 3341 
Q 956 3463 1253 3523 
Q 1550 3584 1831 3584 
Q 2591 3584 2966 3190 
Q 3341 2797 3341 1997 
z
" id="DejaVuSans-61" transform="scale(0.015625)"/>
       <path d="M 1959 3097 
Q 1497 3097 1228 2736 
Q 959 2375 959 1747 
Q 959 1119 1226 758 
Q 1494 397 1959 397 
Q 2419 397 2687 759 
Q 2956 1122 2956 1747 
Q 2956 2369 2687 2733 
Q 2419 3097 1959 3097 
z
M 1959 3584 
Q 2709 3584 3137 3096 
Q 3566 2609 3566 1747 
Q 3566 888 3137 398 
Q 2709 -91 1959 -91 
Q 1206 -91 779 398 
Q 353 888 353 1747 
Q 353 2609 779 3096 
Q 1206 3584 1959 3584 
z
" id="DejaVuSans-6f" transform="scale(0.015625)"/>
       <path d="M 3513 2113 
L 3513 0 
L 2938 0 
L 2938 2094 
Q 2938 2591 2744 2837 
Q 2550 3084 2163 3084 
Q 1697 3084 1428 2787 
Q 1159 2491 1159 1978 
L 1159 0 
L 581 0 
L 581 3500 
L 1159 3500 
L 1159 2956 
Q 1366 3272 1645 3428 
Q 1925 3584 2291 3584 
Q 2894 3584 3203 3211 
Q 3513 2838 3513 2113 
z
" id="DejaVuSans-6e" transform="scale(0.015625)"/>
      </defs>
      <use xlink:href="#DejaVuSans-69"/>
      <use x="27.783203" xlink:href="#DejaVuSans-74"/>
      <use x="66.992188" xlink:href="#DejaVuSans-65"/>
      <use x="128.515625" xlink:href="#DejaVuSans-72"/>
      <use x="169.628906" xlink:href="#DejaVuSans-61"/>
      <use x="230.908203" xlink:href="#DejaVuSans-74"/>
      <use x="270.117188" xlink:href="#DejaVuSans-69"/>
      <use x="297.900391" xlink:href="#DejaVuSans-6f"/>
      <use x="359.082031" xlink:href="#DejaVuSans-6e"/>
     </g>
    </g>
   </g>
   <g id="matplotlib.axis_2">
    <g id="ytick_1">
     <g id="line2d_7">
      <defs>
       <path d="M 0 0 
L -3.5 0 
" id="m2e4ff00df5" style="stroke:#ffffff;stroke-width:0.8;"/>
      </defs>
      <g>
       <use style="fill:#ffffff;stroke:#ffffff;stroke-width:0.8;" x="126" xlink:href="#m2e4ff00df5" y="484.232727"/>
      </g>
     </g>
     <g id="text_8">
      <!-- 0 -->
      <g style="fill:#ffffff;" transform="translate(112.6375 488.031946)scale(0.1 -0.1)">
       <use xlink:href="#DejaVuSans-30"/>
      </g>
     </g>
    </g>
    <g id="ytick_2">
     <g id="line2d_8">
      <g>
       <use style="fill:#ffffff;stroke:#ffffff;stroke-width:0.8;" x="126" xlink:href="#m2e4ff00df5" y="391.576532"/>
      </g>
     </g>
     <g id="text_9">
      <!-- 10000 -->
      <g style="fill:#ffffff;" transform="translate(87.1875 395.375751)scale(0.1 -0.1)">
       <use xlink:href="#DejaVuSans-31"/>
       <use x="63.623047" xlink:href="#DejaVuSans-30"/>
       <use x="127.246094" xlink:href="#DejaVuSans-30"/>
       <use x="190.869141" xlink:href="#DejaVuSans-30"/>
       <use x="254.492188" xlink:href="#DejaVuSans-30"/>
      </g>
     </g>
    </g>
    <g id="ytick_3">
     <g id="line2d_9">
      <g>
       <use style="fill:#ffffff;stroke:#ffffff;stroke-width:0.8;" x="126" xlink:href="#m2e4ff00df5" y="298.920337"/>
      </g>
     </g>
     <g id="text_10">
      <!-- 20000 -->
      <g style="fill:#ffffff;" transform="translate(87.1875 302.719555)scale(0.1 -0.1)">
       <use xlink:href="#DejaVuSans-32"/>
       <use x="63.623047" xlink:href="#DejaVuSans-30"/>
       <use x="127.246094" xlink:href="#DejaVuSans-30"/>
       <use x="190.869141" xlink:href="#DejaVuSans-30"/>
       <use x="254.492188" xlink:href="#DejaVuSans-30"/>
      </g>
     </g>
    </g>
    <g id="ytick_4">
     <g id="line2d_10">
      <g>
       <use style="fill:#ffffff;stroke:#ffffff;stroke-width:0.8;" x="126" xlink:href="#m2e4ff00df5" y="206.264141"/>
      </g>
     </g>
     <g id="text_11">
      <!-- 30000 -->
      <g style="fill:#ffffff;" transform="translate(87.1875 210.06336)scale(0.1 -0.1)">
       <defs>
        <path d="M 2597 2516 
Q 3050 2419 3304 2112 
Q 3559 1806 3559 1356 
Q 3559 666 3084 287 
Q 2609 -91 1734 -91 
Q 1441 -91 1130 -33 
Q 819 25 488 141 
L 488 750 
Q 750 597 1062 519 
Q 1375 441 1716 441 
Q 2309 441 2620 675 
Q 2931 909 2931 1356 
Q 2931 1769 2642 2001 
Q 2353 2234 1838 2234 
L 1294 2234 
L 1294 2753 
L 1863 2753 
Q 2328 2753 2575 2939 
Q 2822 3125 2822 3475 
Q 2822 3834 2567 4026 
Q 2313 4219 1838 4219 
Q 1578 4219 1281 4162 
Q 984 4106 628 3988 
L 628 4550 
Q 988 4650 1302 4700 
Q 1616 4750 1894 4750 
Q 2613 4750 3031 4423 
Q 3450 4097 3450 3541 
Q 3450 3153 3228 2886 
Q 3006 2619 2597 2516 
z
" id="DejaVuSans-33" transform="scale(0.015625)"/>
       </defs>
       <use xlink:href="#DejaVuSans-33"/>
       <use x="63.623047" xlink:href="#DejaVuSans-30"/>
       <use x="127.246094" xlink:href="#DejaVuSans-30"/>
       <use x="190.869141" xlink:href="#DejaVuSans-30"/>
       <use x="254.492188" xlink:href="#DejaVuSans-30"/>
      </g>
     </g>
    </g>
    <g id="ytick_5">
     <g id="line2d_11">
      <g>
       <use style="fill:#ffffff;stroke:#ffffff;stroke-width:0.8;" x="126" xlink:href="#m2e4ff00df5" y="113.607946"/>
      </g>
     </g>
     <g id="text_12">
      <!-- 40000 -->
      <g style="fill:#ffffff;" transform="translate(87.1875 117.407164)scale(0.1 -0.1)">
       <defs>
        <path d="M 2419 4116 
L 825 1625 
L 2419 1625 
L 2419 4116 
z
M 2253 4666 
L 3047 4666 
L 3047 1625 
L 3713 1625 
L 3713 1100 
L 3047 1100 
L 3047 0 
L 2419 0 
L 2419 1100 
L 313 1100 
L 313 1709 
L 2253 4666 
z
" id="DejaVuSans-34" transform="scale(0.015625)"/>
       </defs>
       <use xlink:href="#DejaVuSans-34"/>
       <use x="63.623047" xlink:href="#DejaVuSans-30"/>
       <use x="127.246094" xlink:href="#DejaVuSans-30"/>
       <use x="190.869141" xlink:href="#DejaVuSans-30"/>
       <use x="254.492188" xlink:href="#DejaVuSans-30"/>
      </g>
     </g>
    </g>
   </g>
   <g id="line2d_12">
    <path clip-path="url(#p878147a780)" d="M 161.509091 139.486821 
L 161.771829 148.43741 
L 162.822783 211.55481 
L 163.085521 215.344448 
L 163.34826 224.739786 
L 163.610998 244.3829 
L 163.873736 224.535943 
L 164.136475 224.934364 
L 164.399213 337.307798 
L 164.661951 317.460841 
L 165.187428 308.602909 
L 165.450166 287.773796 
L 165.712905 291.563435 
L 166.50112 270.020869 
L 167.026597 241.677339 
L 167.289335 238.017419 
L 167.552073 241.84412 
L 167.814812 231.883579 
L 168.07755 228.056878 
L 168.340289 216.576776 
L 168.865765 233.61625 
L 169.128504 212.777872 
L 169.391242 219.458383 
L 169.65398 342.783779 
L 170.179457 353.846929 
L 170.442196 336.121799 
L 170.704934 344.210685 
L 170.967672 337.289267 
L 171.230411 346.239856 
L 171.493149 363.964986 
L 171.755887 355.014397 
L 172.018626 334.176019 
L 172.281364 355.014397 
L 172.544103 341.579249 
L 172.806841 320.750136 
L 173.069579 327.430648 
L 173.332318 348.259761 
L 173.595056 352.049399 
L 174.120533 314.477312 
L 174.383271 317.73881 
L 174.908748 300.143398 
L 175.171486 296.316697 
L 175.434225 265.925465 
L 175.696963 275.886006 
L 176.22244 249.340006 
L 176.485178 239.833481 
L 176.747916 243.975213 
L 177.010655 233.338281 
L 177.273393 240.111449 
L 177.536132 256.437471 
L 177.79887 247.486882 
L 178.061608 243.345151 
L 178.324347 229.910002 
L 178.849823 245.985852 
L 179.112562 254.936441 
L 179.3753 268.371589 
L 179.638039 261.691077 
L 179.900777 270.910369 
L 180.163515 271.30879 
L 180.688992 231.420298 
L 181.739946 273.013664 
L 182.002684 282.974205 
L 182.265422 269.539057 
L 182.790899 303.812584 
L 183.053637 300.022945 
L 183.316376 310.595017 
L 183.841852 296.993088 
L 184.104591 312.57786 
L 184.367329 292.730903 
L 184.630068 303.367834 
L 184.892806 323.946775 
L 185.681021 267.639605 
L 186.206498 236.553451 
L 186.994713 270.549009 
L 187.257451 263.775842 
L 187.52019 267.917574 
L 188.045666 301.987257 
L 188.308405 282.677705 
L 188.571143 289.450873 
L 188.833882 292.712371 
L 189.09662 284.623486 
L 189.622097 315.598452 
L 189.884835 312.336954 
L 190.147573 291.758013 
L 190.67305 333.175332 
L 191.198527 315.765233 
L 191.461265 325.271758 
L 191.986742 362.843846 
L 192.24948 342.005467 
L 192.512219 336.974236 
L 193.037695 348.685979 
L 193.300434 336.307111 
L 194.088649 379.948179 
L 194.351387 359.369238 
L 194.876864 374.231292 
L 195.139602 364.724767 
L 195.402341 348.046651 
L 195.927818 381.263897 
L 196.190556 361.954346 
L 196.716033 350.242603 
L 197.241509 326.531883 
L 197.504248 331.563114 
L 197.766986 315.237093 
L 198.029725 305.841754 
L 198.292463 300.810523 
L 199.080678 257.160189 
L 199.606155 239.110762 
L 199.868893 219.467649 
L 200.39437 239.036637 
L 200.657108 244.067869 
L 201.182585 222.015694 
L 201.445323 231.976235 
L 201.708062 249.719897 
L 201.9708 239.759356 
L 202.233538 250.331428 
L 202.496277 246.189696 
L 202.759015 239.416528 
L 203.021754 249.377069 
L 203.54723 273.643726 
L 203.809969 264.424435 
L 204.072707 244.577478 
L 204.335445 235.070952 
L 204.598184 244.46629 
L 205.386399 212.203403 
L 205.649137 228.881518 
L 206.174614 242.335198 
L 206.437352 237.303967 
L 206.700091 324.938196 
L 206.962829 321.148558 
L 207.225568 335.90869 
L 207.751044 311.642032 
L 208.276521 327.810538 
L 208.539259 318.591247 
L 209.064736 335.899424 
L 209.327475 315.320483 
L 209.590213 319.147184 
L 209.852951 331.526052 
L 210.11569 323.437166 
L 210.378428 341.162296 
L 210.641166 329.682193 
L 210.903905 326.420695 
L 211.166643 344.164357 
L 211.429381 340.504437 
L 211.69212 328.839022 
L 211.954858 343.599154 
L 212.217597 331.220286 
L 212.480335 335.009925 
L 212.743073 315.366811 
L 213.26855 307.435441 
L 213.531288 296.79851 
L 213.794027 306.305035 
L 214.056765 309.964955 
L 214.319504 304.933724 
L 214.582242 287.190062 
L 214.84498 298.855477 
L 215.107719 289.460139 
L 215.370457 306.138254 
L 215.633195 290.553482 
L 215.895934 306.138254 
L 216.158672 296.918963 
L 216.421411 317.757341 
L 216.684149 321.546979 
L 217.472364 350.79854 
L 217.997841 324.576837 
L 218.260579 327.838335 
L 218.523318 311.16022 
L 218.786056 326.744992 
L 219.311533 306.128989 
L 219.574271 326.70793 
L 220.099748 285.29061 
L 220.362486 290.321842 
L 220.625224 301.987257 
L 220.887963 322.825635 
L 221.150701 326.967367 
L 221.41344 340.402515 
L 221.676178 347.083027 
L 221.938916 366.72614 
L 222.464393 386.248801 
L 223.515347 319.434418 
L 223.778085 331.099833 
L 224.303562 312.485204 
L 224.5663 309.223705 
L 224.829038 298.651634 
L 225.091777 316.395295 
L 225.617254 300.764195 
L 225.879992 281.121081 
L 226.14273 289.209967 
L 226.405469 284.178736 
L 227.193684 240.602527 
L 227.456422 252.981395 
L 227.719161 259.661907 
L 227.981899 280.240848 
L 228.244637 266.805699 
L 228.507376 277.377771 
L 228.770114 294.055886 
L 229.295591 256.548658 
L 229.558329 265.499247 
L 229.821068 265.897668 
L 230.083806 250.312896 
L 230.346544 243.391479 
L 230.609283 318.850684 
L 230.872021 299.207571 
L 231.134759 303.034272 
L 231.660236 270.289572 
L 232.448451 229.548643 
L 232.71119 239.509184 
L 232.973928 228.872253 
L 233.236666 235.645421 
L 233.762143 255.23294 
L 234.024881 274.542492 
L 234.28762 278.33213 
L 234.550358 273.300898 
L 234.813097 281.389784 
L 235.075835 272.170493 
L 235.601312 305.248755 
L 236.389527 243.93815 
L 236.915004 226.528051 
L 237.177742 217.577463 
L 237.44048 204.142314 
L 237.703219 208.284046 
L 237.965957 227.92716 
L 238.491434 200.862285 
L 238.754172 221.441226 
L 239.016911 202.131675 
L 239.279649 221.978632 
L 239.542387 228.659144 
L 239.805126 245.244603 
L 240.067864 225.397645 
L 240.330602 221.255914 
L 240.593341 204.670455 
L 240.856079 213.889746 
L 241.118817 194.246633 
L 241.381556 187.566121 
L 241.644294 199.046223 
L 241.907033 182.368108 
L 242.169771 195.803257 
L 242.432509 184.323154 
L 242.695248 191.096322 
L 242.957986 371.145841 
L 243.220724 379.234727 
L 243.483463 359.925176 
L 243.746201 350.974587 
L 244.271678 309.307096 
L 244.534416 308.908674 
L 245.059893 341.653374 
L 245.322631 337.511642 
L 245.848108 306.721988 
L 246.110847 324.447118 
L 246.373585 313.810187 
L 246.636323 317.636888 
L 246.899062 318.03531 
L 247.1618 338.873688 
L 247.424538 345.795106 
L 247.687277 325.948149 
L 247.950015 345.795106 
L 248.212754 324.956727 
L 248.475492 335.593659 
L 248.73823 327.504773 
L 249.000969 337.011298 
L 249.526445 311.197282 
L 249.789184 315.339014 
L 250.051922 246.903148 
L 250.31466 243.64165 
L 250.577399 246.903148 
L 250.840137 264.628279 
L 251.102876 251.19313 
L 251.628352 272.253883 
L 251.891091 268.464245 
L 252.153829 247.885304 
L 252.679306 287.375375 
L 253.204783 295.306745 
L 253.467521 305.878817 
L 253.730259 310.910048 
L 254.255736 290.294045 
L 254.518474 283.520877 
L 254.781213 287.180797 
L 255.043951 303.858912 
L 255.30669 307.685613 
L 255.569428 254.55655 
L 255.832166 236.812889 
L 256.094905 240.63959 
L 256.620381 279.203098 
L 257.145858 244.892509 
L 257.671335 279.314286 
L 257.934073 264.554154 
L 258.196812 274.514695 
L 258.45955 264.554154 
L 258.722288 283.863705 
L 258.985027 288.005437 
L 259.773242 253.092582 
L 260.298719 270.40076 
L 260.561457 291.841403 
L 260.824195 272.19829 
L 261.875149 344.479388 
L 262.137887 335.08405 
L 262.400626 345.720981 
L 262.663364 335.76044 
L 262.926102 331.970801 
L 263.188841 317.210669 
L 263.451579 326.161258 
L 263.714317 326.55968 
L 263.977056 341.319812 
L 264.765271 294.85273 
L 265.290748 318.85995 
L 265.553486 306.481082 
L 265.816224 316.441623 
L 266.341701 283.11319 
L 266.60444 278.081958 
L 266.867178 293.66673 
L 267.392655 301.28307 
L 267.655393 313.661937 
L 267.918131 292.832824 
L 268.18087 285.911407 
L 268.706346 253.426145 
L 268.969085 241.047277 
L 269.231823 240.648855 
L 269.7573 273.152649 
L 270.020038 263.192108 
L 270.282777 280.917238 
L 270.545515 271.966649 
L 271.070992 287.866452 
L 271.33373 304.451911 
L 272.121945 261.969046 
L 272.384684 282.547987 
L 272.647422 275.867475 
L 272.91016 256.020518 
L 273.172899 252.75902 
L 273.698376 288.190749 
L 273.961114 276.710646 
L 274.223852 283.391158 
L 274.486591 278.851005 
L 275.012067 258.883594 
L 275.537544 223.248022 
L 275.800283 238.008154 
L 276.063021 231.234986 
L 276.325759 241.807058 
L 276.851236 274.718538 
L 277.113974 278.508177 
L 277.376713 297.817728 
L 277.639451 301.644429 
L 277.902189 282.334878 
L 278.164928 289.015389 
L 278.427666 308.32494 
L 278.690405 289.015389 
L 278.953143 283.984158 
L 279.215881 303.293709 
L 279.47862 299.504071 
L 279.741358 292.582653 
L 280.004096 273.273102 
L 280.266835 293.120059 
L 280.529573 283.613533 
L 281.05505 316.923435 
L 281.317788 305.443333 
L 281.843265 297.4749 
L 282.106003 308.955002 
L 282.368742 292.369544 
L 282.63148 301.876069 
L 282.894219 301.477648 
L 283.156957 286.717516 
L 283.419695 293.490683 
L 283.682434 297.317384 
L 283.945172 284.938517 
L 284.20791 297.317384 
L 284.470649 288.366796 
L 284.733387 292.508528 
L 284.996126 284.419642 
L 285.258864 296.085057 
L 285.521602 280.500285 
L 285.784341 273.727117 
L 286.047079 277.516755 
L 286.309817 296.826307 
L 286.572556 301.857538 
L 287.098032 338.021251 
L 287.623509 309.316362 
L 287.886248 309.714783 
L 288.148986 329.357897 
L 288.411724 312.679782 
L 288.674463 321.63037 
L 288.937201 310.150267 
L 289.199939 290.507154 
L 289.462678 308.250815 
L 289.725416 253.991347 
L 290.250893 290.507154 
L 290.513631 269.928213 
L 290.77637 279.323551 
L 291.039108 298.966665 
L 291.301846 279.119708 
L 291.564585 274.977976 
L 291.827323 286.458078 
L 292.3528 259.393204 
L 292.878277 296.557604 
L 293.141015 276.91449 
L 293.666492 313.439562 
L 293.92923 317.099482 
L 294.454707 277.942974 
L 294.980184 261.301921 
L 295.242922 240.472808 
L 295.50566 231.52222 
L 295.768399 243.901088 
L 296.031137 240.074387 
L 296.293875 251.554489 
L 296.556614 310.687673 
L 296.819352 294.361652 
L 297.344829 301.412788 
L 297.607567 281.769675 
L 297.870306 299.494805 
L 298.133044 262.747358 
L 298.395782 280.491019 
L 298.658521 270.984494 
L 298.921259 277.665005 
L 299.183998 295.390135 
L 299.446736 303.479021 
L 299.709474 324.308134 
L 299.972213 317.627622 
L 300.234951 297.048681 
L 300.497689 292.01745 
L 300.760428 298.697962 
L 301.023166 313.458094 
L 301.285905 317.599826 
L 301.811381 340.995515 
L 302.07412 332.906629 
L 302.336858 319.471481 
L 302.599596 312.790969 
L 302.862335 300.412101 
L 303.125073 319.721652 
L 303.387812 326.64307 
L 303.65055 330.469771 
L 303.913288 319.897699 
L 304.176027 299.059321 
L 304.438765 289.663983 
L 304.701503 296.43715 
L 304.964242 312.021923 
L 305.22698 297.261791 
L 305.752457 283.567205 
L 306.015195 262.738092 
L 306.277934 269.65951 
L 306.540672 265.832809 
L 306.80341 248.089148 
L 307.066149 244.429228 
L 307.328887 264.276185 
L 308.117102 289.265561 
L 308.379841 277.785458 
L 308.642579 298.364399 
L 308.905317 294.70448 
L 309.168056 304.211005 
L 309.956271 278.443317 
L 310.219009 278.044896 
L 310.744486 301.440585 
L 311.269963 337.02983 
L 311.532701 328.079241 
L 311.795439 234.162922 
L 312.058178 253.806035 
L 312.583655 245.513305 
L 312.846393 266.342418 
L 313.109131 257.123127 
L 313.37187 253.296426 
L 313.634608 257.123127 
L 313.897346 274.848257 
L 314.160085 281.769675 
L 314.422823 271.132744 
L 314.685561 276.163975 
L 314.9483 286.124516 
L 315.211038 282.464596 
L 315.473777 302.311553 
L 315.736515 282.464596 
L 315.999253 275.691428 
L 316.261992 257.966298 
L 316.52473 278.545239 
L 316.787468 288.051765 
L 317.312945 273.041461 
L 317.575684 283.678392 
L 318.10116 267.602542 
L 318.626637 226.194489 
L 318.889375 225.796067 
L 319.152114 235.191405 
L 319.414852 225.68488 
L 319.677591 242.010901 
L 320.203067 255.612831 
L 320.465806 251.78613 
L 321.254021 301.774147 
L 321.516759 297.632415 
L 321.779498 318.461528 
L 322.042236 307.889456 
L 322.304974 317.395982 
L 322.567713 337.242939 
L 322.830451 341.06964 
L 323.355928 305.100505 
L 323.618666 308.760424 
L 323.881405 328.069976 
L 324.144143 317.433044 
L 324.406881 297.586087 
L 324.66962 311.021236 
L 324.932358 290.192123 
L 325.195096 309.835236 
L 325.457835 320.472168 
L 325.720573 302.728506 
L 325.983311 323.557619 
L 326.24605 332.77691 
L 326.771527 325.160571 
L 327.034265 315.94128 
L 327.297003 332.526739 
L 327.559742 311.68836 
L 327.82248 326.448492 
L 328.085218 326.846914 
L 328.610695 307.379847 
L 328.873434 311.206548 
L 329.136172 331.785489 
L 329.661649 297.382244 
L 329.924387 276.803303 
L 330.187125 297.641681 
L 330.449864 288.246343 
L 330.712602 287.847921 
L 331.238079 323.186994 
L 331.500817 332.582332 
L 331.763556 321.10223 
L 332.026294 321.500651 
L 332.289032 312.550063 
L 332.551771 320.638949 
L 332.814509 299.80057 
L 333.077248 309.019862 
L 333.602724 285.040438 
L 333.865463 278.359927 
L 334.128201 298.206884 
L 334.390939 287.569953 
L 334.653678 290.831451 
L 334.916416 300.337976 
L 335.179154 279.508864 
L 335.441893 289.469405 
L 335.704631 286.207907 
L 335.96737 295.158495 
L 336.230108 267.083668 
L 336.492846 278.749083 
L 336.755585 267.083668 
L 337.018323 262.941936 
L 337.281061 267.083668 
L 337.5438 255.603565 
L 337.806538 264.554154 
L 338.069277 244.91104 
L 338.332015 241.649542 
L 338.594753 220.820429 
L 338.857492 224.480349 
L 339.12023 215.529761 
L 339.382968 220.560992 
L 339.908445 252.731223 
L 340.171184 246.050711 
L 340.433922 225.212333 
L 340.69666 232.133751 
L 340.959399 235.960452 
L 341.222137 231.81872 
L 341.484875 241.779261 
L 341.747614 224.035599 
L 342.010352 214.075058 
L 342.273091 223.470397 
L 342.535829 219.810477 
L 342.798567 231.290579 
L 343.061306 249.034241 
L 343.324044 234.274109 
L 343.586782 227.500941 
L 343.849521 234.181453 
L 344.374997 271.688681 
L 344.637736 292.527059 
L 344.900474 285.605641 
L 345.163213 270.020869 
L 345.425951 283.456018 
L 345.688689 279.629317 
L 345.951428 263.303295 
L 346.214166 270.076463 
L 346.476904 273.736383 
L 347.002381 243.623119 
L 347.26512 259.949141 
L 348.053335 215.242526 
L 348.578811 195.275116 
L 348.84155 198.536614 
L 349.104288 217.846166 
L 349.367027 214.056527 
L 349.892503 232.782344 
L 350.41798 215.372245 
L 350.680718 196.062694 
L 350.943457 191.031463 
L 351.468934 224.341365 
L 351.99441 194.237367 
L 352.257149 214.816308 
L 352.519887 218.95804 
L 352.782625 238.804997 
L 353.045364 243.836228 
L 353.308102 227.250769 
L 353.57084 223.109037 
L 353.833579 242.752151 
L 354.096317 231.272048 
L 354.621794 256.372612 
L 354.884532 242.937463 
L 355.147271 243.335885 
L 355.410009 247.477617 
L 355.672747 235.812202 
L 356.198224 255.844471 
L 357.774654 334.824612 
L 358.300131 298.401462 
L 358.56287 280.6578 
L 358.825608 295.417932 
L 359.088346 302.1911 
L 359.351085 321.500651 
L 359.613823 311.54011 
L 359.876561 291.693153 
L 360.1393 284.919985 
L 360.402038 284.521564 
L 360.664777 266.796434 
L 360.927515 257.577142 
L 361.190253 236.748029 
L 361.452992 231.716798 
L 361.71573 216.956666 
L 361.978468 213.695168 
L 362.241207 348.546995 
L 362.503945 352.688727 
L 362.766683 345.915559 
L 363.029422 329.237444 
L 363.29216 324.206212 
L 363.554899 333.60155 
L 364.080375 311.827345 
L 364.605852 294.333855 
L 364.86859 285.383266 
L 365.131329 293.472152 
L 365.394067 309.798174 
L 365.919544 281.99205 
L 366.182282 288.672561 
L 366.445021 272.087102 
L 366.970497 294.139277 
L 367.233236 290.312576 
L 367.758713 306.481082 
L 368.546928 280.444691 
L 368.809666 276.302959 
L 369.072404 258.577829 
L 369.335143 262.367467 
L 369.597881 269.288885 
L 369.86062 268.890464 
L 370.123358 272.717164 
L 370.386096 289.524998 
L 370.648835 276.08985 
L 371.174311 240.454277 
L 371.43705 231.058939 
L 371.962526 268.649557 
L 372.225265 280.12966 
L 372.488003 268.649557 
L 373.01348 236.627576 
L 373.276218 252.212348 
L 373.538957 245.531837 
L 373.801695 248.793335 
L 374.064433 245.531837 
L 374.852649 286.365422 
L 375.115387 293.13859 
L 375.378125 275.394928 
L 375.640864 290.15506 
L 375.903602 296.835572 
L 376.16634 288.746686 
L 376.691817 261.524296 
L 376.954556 254.751128 
L 377.217294 258.012626 
L 377.742771 285.170157 
L 378.005509 278.489645 
L 378.530986 253.768972 
L 378.793724 250.109053 
L 379.056463 234.524281 
L 379.581939 250.841037 
L 379.844678 245.809805 
L 380.107416 228.084675 
L 380.370154 240.463543 
L 380.632893 258.207204 
L 380.895631 238.360247 
L 381.158369 253.945019 
L 381.946585 213.250418 
L 382.209323 196.664959 
L 382.472061 206.171485 
L 382.7348 199.250067 
L 382.997538 206.171485 
L 383.260276 217.8369 
L 383.523015 235.580561 
L 384.048492 204.605595 
L 384.31123 189.020823 
L 384.573968 185.759325 
L 384.836707 196.396256 
L 385.099445 200.222957 
L 385.362183 219.866071 
L 385.624922 210.915482 
L 385.88766 197.480334 
L 386.150399 193.653633 
L 386.413137 206.032501 
L 386.675875 209.859201 
L 386.938614 190.216088 
L 387.201352 189.817666 
L 387.46409 196.498178 
L 387.989567 232.912063 
L 388.515044 239.833481 
L 388.777782 247.922367 
L 389.303259 286.485875 
L 390.354212 243.650916 
L 390.616951 227.324894 
L 390.879689 234.246312 
L 391.142428 251.989974 
L 391.405166 243.039385 
L 391.667904 319.202778 
L 391.930643 336.946439 
L 392.193381 322.186307 
L 392.456119 314.097421 
L 392.718858 325.762836 
L 392.981596 316.812248 
L 393.244335 331.57238 
L 393.769811 297.169134 
L 394.03255 306.119723 
L 394.295288 299.439211 
L 394.558026 312.87436 
L 394.820765 309.612861 
L 395.083503 312.87436 
L 395.346242 332.183911 
L 395.60898 342.144452 
L 395.871718 329.765584 
L 396.134457 341.245687 
L 396.659933 313.439562 
L 396.922672 329.765584 
L 397.448149 345.665387 
L 397.710887 365.308501 
L 397.973625 362.047002 
L 398.499102 324.891868 
L 398.76184 328.153366 
L 399.024579 321.472854 
L 399.287317 332.952957 
L 399.812794 312.87436 
L 400.075532 292.035981 
L 400.338271 282.07544 
L 400.601009 291.581966 
L 400.863747 288.320468 
L 401.126486 309.14958 
L 401.389224 298.512649 
L 401.651962 305.193161 
L 401.914701 298.512649 
L 402.177439 263.729513 
L 402.440178 247.051398 
L 402.702916 267.630339 
L 403.228393 231.457361 
L 403.753869 250.183178 
L 404.279346 231.457361 
L 404.542085 219.078493 
L 404.804823 238.92545 
L 405.067561 242.58537 
L 405.3303 319.656793 
L 405.855776 339.735391 
L 406.118515 329.098459 
L 406.90673 271.948118 
L 407.169468 292.527059 
L 407.432207 295.788557 
L 407.694945 312.374016 
L 407.957683 305.600848 
L 408.220422 305.99927 
L 408.745898 279.842426 
L 409.008637 284.873657 
L 409.271375 280.731925 
L 409.534114 260.152984 
L 409.796852 255.121753 
L 410.05959 265.082294 
L 410.322329 270.113525 
L 410.585067 290.951904 
L 410.847805 290.553482 
L 411.110544 308.278612 
L 411.373282 315.20003 
L 411.636021 331.878145 
L 411.898759 314.153015 
L 412.161497 305.202427 
L 412.424236 309.344159 
L 412.686974 306.08266 
L 412.949712 289.404545 
L 413.212451 307.129675 
L 413.475189 316.348967 
L 413.737928 312.207235 
L 414.000666 294.482105 
L 414.263404 301.162616 
L 414.526143 311.799548 
L 414.788881 299.42068 
L 415.051619 281.677019 
L 415.314358 282.07544 
L 415.577096 301.718554 
L 416.102573 281.121081 
L 416.890788 329.997224 
L 417.153526 320.777933 
L 417.416265 320.379511 
L 417.941741 294.139277 
L 418.20448 287.458765 
L 418.467218 298.938868 
L 418.992695 327.31946 
L 419.255433 310.993439 
L 419.518172 302.904553 
L 419.78091 315.283421 
L 420.043648 310.252189 
L 420.569125 347.407324 
L 420.831864 351.549056 
L 421.094602 340.976984 
L 421.35734 347.657495 
L 421.620079 343.830794 
L 421.882817 323.251853 
L 422.145555 319.110122 
L 422.408294 319.508543 
L 422.671032 298.670165 
L 423.459247 311.317735 
L 423.984724 275.089163 
L 424.247462 285.661235 
L 424.510201 289.321155 
L 424.772939 285.661235 
L 425.035678 275.089163 
L 425.298416 283.178049 
L 425.561154 279.064114 
L 425.823893 258.485173 
L 426.086631 277.794724 
L 426.349369 284.447439 
L 426.612108 295.019511 
L 426.874846 288.338999 
L 427.137585 291.998919 
L 427.400323 271.419978 
L 427.9258 311.642032 
L 428.188538 293.916902 
L 428.714015 330.349318 
L 428.976753 333.610816 
L 429.239491 352.920367 
L 429.50223 357.062099 
L 429.764968 377.900477 
L 430.027707 367.263546 
L 430.290445 363.603627 
L 430.815922 326.439227 
L 431.07866 318.350341 
L 431.866875 263.507139 
L 432.129614 252.027036 
L 432.65509 271.614556 
L 432.917829 259.949141 
L 433.180567 302.293022 
L 433.443305 292.332481 
L 433.706044 271.494103 
L 433.968782 260.014 
L 434.231521 302.228163 
L 434.494259 282.918612 
L 434.756997 278.77688 
L 435.019736 293.537012 
L 435.282474 300.310179 
L 435.545212 297.048681 
L 435.807951 300.310179 
L 436.070689 300.310179 
L 437.384381 228.112472 
L 437.647119 244.438494 
L 437.909858 224.591537 
L 438.172596 224.193115 
L 438.435334 228.334847 
L 438.698073 247.97796 
L 438.960811 243.836228 
L 439.22355 263.683185 
L 439.486288 267.824917 
L 439.749026 288.65403 
L 440.011765 281.880862 
L 440.274503 282.279284 
L 440.537241 277.248052 
L 440.79998 284.02122 
L 441.062718 278.220942 
L 441.325457 260.495812 
L 441.588195 276.821834 
L 441.850933 266.249762 
L 442.113672 277.729865 
L 442.639148 246.643711 
L 442.901887 257.215783 
L 443.164625 261.357515 
L 443.427364 242.047964 
L 443.690102 231.475892 
L 443.95284 227.815972 
L 444.215579 248.65435 
L 444.478317 239.435059 
L 444.741055 218.856118 
L 445.003794 228.251456 
L 445.266532 207.413078 
L 445.529271 200.732566 
L 445.792009 221.561679 
L 446.054747 228.483097 
L 446.317486 219.087759 
L 446.842962 238.267591 
L 447.105701 226.602176 
L 447.368439 237.174248 
L 447.631177 233.032516 
L 447.893916 239.805684 
L 448.419393 215.798464 
L 448.682131 224.749052 
L 448.944869 217.975884 
L 449.207608 231.411033 
L 449.470346 238.091544 
L 449.733084 324.150619 
L 450.258561 283.72472 
L 450.5213 280.064801 
L 450.784038 289.284092 
L 451.046776 285.14236 
L 451.309515 288.80228 
L 451.572253 297.752868 
L 452.09773 290.831451 
L 452.885945 332.943691 
L 453.148683 341.032577 
L 453.936898 287.338312 
L 454.462375 265.452919 
L 454.725114 261.626218 
L 454.987852 253.537332 
L 455.25059 256.79883 
L 455.513329 273.124852 
L 455.776067 263.90556 
L 456.038805 281.63069 
L 456.301544 271.058619 
L 456.82702 293.398027 
L 457.089759 290.136529 
L 457.352497 310.71547 
L 457.615236 314.857202 
L 457.877974 299.27243 
L 458.140712 309.909361 
L 458.403451 289.070983 
L 458.666189 279.110442 
L 458.928927 261.366781 
L 459.454404 298.874008 
L 459.717143 292.100841 
L 459.979881 272.253883 
L 460.768096 312.753906 
L 461.030834 323.325978 
L 461.293573 313.93064 
L 461.81905 279.036317 
L 462.081788 268.399386 
L 462.344526 264.609747 
L 462.870003 271.531165 
L 463.39548 307.426175 
L 463.658218 291.100154 
L 463.920957 286.958422 
L 464.183695 270.280307 
L 464.446433 280.240848 
L 464.709172 284.030486 
L 464.97191 294.667417 
L 465.234648 310.252189 
L 465.497387 290.942638 
L 465.760125 307.26866 
L 466.285602 281.454644 
L 466.54834 300.764195 
L 466.811079 289.09878 
L 467.073817 288.700358 
L 467.336555 279.74977 
L 467.862032 272.300212 
L 468.12477 281.69555 
L 468.387509 271.123478 
L 468.650247 250.294365 
L 468.912986 254.084004 
L 469.175724 274.913116 
L 469.438462 285.485188 
L 469.701201 269.900416 
L 469.963939 292.341747 
L 470.226677 278.906598 
L 470.489416 282.168096 
L 470.752154 302.997209 
L 471.014893 299.337289 
L 471.277631 298.938868 
L 471.803108 291.535638 
L 472.065846 282.585049 
L 472.328584 294.065152 
L 472.591323 297.725072 
L 472.854061 314.051093 
L 473.1168 320.731605 
L 473.379538 309.251502 
L 473.642276 322.686651 
L 473.905015 343.265592 
L 474.167753 346.52709 
L 474.430491 330.201068 
L 474.69323 340.161609 
L 475.218706 318.637575 
L 475.481445 243.604588 
L 475.744183 255.983456 
L 476.006922 273.727117 
L 476.532398 285.43886 
L 476.795137 274.801929 
L 477.057875 295.38087 
L 477.320613 306.017801 
L 477.84609 277.952239 
L 478.108829 281.612159 
L 478.371567 274.931648 
L 478.634305 291.609763 
L 478.897044 280.972831 
L 479.42252 316.200717 
L 479.685259 327.68082 
L 479.947997 330.942318 
L 480.210736 311.299204 
L 480.473474 317.979716 
L 480.736212 306.499613 
L 480.998951 313.272781 
L 481.261689 295.547651 
L 481.524427 291.887731 
L 481.787166 283.798845 
L 482.049904 266.055184 
L 482.312643 274.14407 
L 482.575381 293.787183 
L 482.838119 303.293709 
L 483.100858 293.898371 
L 483.363596 274.255257 
L 483.889073 259.393204 
L 484.151811 263.219904 
L 484.414549 246.541789 
L 484.940026 285.105298 
L 485.202765 265.795747 
L 485.728241 245.717149 
L 485.99098 262.302608 
L 486.253718 265.962528 
L 486.516456 262.172889 
L 486.779195 249.794022 
L 487.041933 262.172889 
L 487.304672 257.141658 
L 487.56741 256.743236 
L 487.830148 268.223339 
L 488.092887 264.961841 
L 488.355625 271.735009 
L 488.881102 243.771369 
L 489.14384 318.470794 
L 489.406579 299.161243 
L 489.669317 289.765904 
L 490.194794 251.19313 
L 490.457532 246.161899 
L 490.72027 251.19313 
L 490.983009 250.794709 
L 491.245747 271.633087 
L 491.508486 267.843449 
L 491.771224 271.670149 
L 492.033962 287.996171 
L 492.296701 271.318056 
L 492.559439 268.056558 
L 492.822177 272.19829 
L 493.084916 255.872268 
L 493.347654 256.27069 
L 493.610392 251.239458 
L 493.873131 267.824917 
L 494.135869 263.683185 
L 494.398608 255.5943 
L 494.661346 260.625531 
L 494.924084 268.714417 
L 495.449561 302.728506 
L 495.712299 282.149565 
L 495.975038 272.189024 
L 496.237776 278.869536 
L 496.500515 282.131034 
L 496.763253 269.752166 
L 497.025991 290.581279 
L 497.28873 278.915864 
L 497.551468 285.689032 
L 497.814206 303.414162 
L 498.076945 286.828703 
L 498.339683 283.002002 
L 498.602422 282.603581 
L 498.86516 299.281696 
L 499.127898 290.062404 
L 499.390637 300.022945 
L 499.653375 304.164677 
L 499.916113 297.243259 
L 500.178852 308.908674 
L 500.704329 344.247747 
L 500.967067 353.198336 
L 501.229805 332.359957 
L 501.492544 325.58679 
L 501.755282 310.002017 
L 502.01802 301.051429 
L 502.543497 261.561359 
L 502.806235 257.419627 
L 503.068974 277.06274 
L 503.331712 267.102199 
L 503.594451 279.481067 
L 503.857189 258.902126 
L 504.119927 274.486898 
L 504.382666 278.146818 
L 504.645404 294.732276 
L 504.908142 298.521915 
L 505.170881 280.796785 
L 505.433619 301.375726 
L 505.696358 297.586087 
L 505.959096 306.981426 
L 506.221834 303.719927 
L 506.484573 303.719927 
L 506.747311 306.981426 
L 507.010049 255.260737 
L 507.272788 255.260737 
L 507.535526 276.08985 
L 508.061003 260.097391 
L 508.323741 260.097391 
L 508.58648 269.492729 
L 509.111956 303.895974 
L 509.374695 286.152313 
L 509.637433 282.362674 
L 509.900172 261.524296 
L 510.16291 252.573708 
L 510.688387 213.417199 
L 510.951125 218.448431 
L 511.213863 208.48789 
L 511.476602 212.14781 
L 511.73934 197.387678 
L 512.264817 228.566487 
L 512.527555 232.356126 
L 512.790294 239.129294 
L 513.053032 234.987562 
L 513.578509 242.390792 
L 513.841247 254.769659 
L 514.103985 250.942959 
L 514.366724 259.893547 
L 514.629462 243.567525 
L 514.892201 253.528066 
L 515.154939 246.754898 
L 515.417677 243.4934 
L 515.680416 260.078859 
L 515.943154 248.598757 
L 516.205892 259.235688 
L 516.468631 278.545239 
L 516.731369 274.755601 
L 516.994108 257.011939 
L 517.256846 263.692451 
L 517.519584 275.172554 
L 517.782323 295.019511 
L 518.045061 305.591583 
L 518.307799 293.212715 
L 518.570538 269.029448 
L 518.833276 265.239809 
L 519.358753 284.76247 
L 519.621491 301.347929 
L 520.146968 282.686971 
L 520.409706 292.647512 
L 520.672445 313.476625 
L 520.935183 306.703457 
L 521.46066 314.634827 
L 521.723398 310.845189 
L 521.986137 314.634827 
L 522.511613 281.417581 
L 522.774352 277.59088 
L 523.03709 256.761768 
L 523.562567 238.035951 
L 524.088044 251.156068 
L 524.350782 242.205479 
L 524.61352 262.052436 
L 524.876259 252.091895 
L 525.138997 248.302257 
L 525.401735 257.697595 
L 525.664474 278.526708 
L 525.927212 285.448126 
L 526.189951 264.619013 
L 526.452689 285.457391 
L 526.715427 277.368505 
L 526.978166 298.197618 
L 528.291858 352.66093 
L 528.554596 348.519198 
L 528.817334 337.039095 
L 529.080073 337.039095 
L 529.605549 355.19971 
L 529.868288 207.042453 
L 530.131026 224.767583 
L 530.393765 215.816995 
L 530.656503 215.418573 
L 530.919241 205.458032 
L 531.18198 226.036973 
L 531.444718 205.458032 
L 531.707456 205.458032 
L 531.970195 222.136147 
L 532.232933 222.136147 
L 532.495671 205.458032 
L 532.75841 205.458032 
L 533.021148 214.677324 
L 533.283887 205.458032 
L 533.546625 225.304989 
L 533.809363 231.985501 
L 534.072102 231.985501 
L 534.860317 265.971793 
L 535.123055 262.182155 
L 535.385794 248.747007 
L 535.648532 241.825589 
L 535.91127 254.204457 
L 536.174009 275.033569 
L 536.436747 255.186612 
L 536.699485 247.097726 
L 536.962224 227.454613 
L 537.224962 217.948087 
L 537.487701 221.608007 
L 537.750439 235.043155 
L 538.538654 291.591231 
L 538.801392 300.98657 
L 539.064131 296.844838 
L 539.589608 328.35721 
L 539.852346 332.498942 
L 540.115084 316.91417 
L 540.377823 323.835587 
L 540.640561 313.198656 
L 540.903299 313.597078 
L 541.166038 301.21821 
L 541.428776 297.391509 
L 541.691514 278.081958 
L 541.954253 298.920337 
L 542.216991 263.321826 
L 542.47973 248.561694 
L 542.742468 269.400073 
L 543.005206 266.138575 
L 543.530683 227.556535 
L 543.793421 223.766896 
L 544.318898 230.818033 
L 544.581637 230.818033 
L 544.844375 250.461146 
L 545.107113 234.876374 
L 545.63259 215.965245 
L 545.895328 227.63066 
L 546.158067 334.611503 
L 546.420805 313.78239 
L 546.946282 336.798189 
L 547.20902 336.798189 
L 547.471759 321.213417 
L 547.734497 314.291999 
L 547.997235 303.655068 
L 548.259974 307.481769 
L 548.522712 287.634812 
L 548.785451 287.634812 
L 549.048189 278.684223 
L 549.310927 260.940562 
L 549.573666 254.26005 
L 549.836404 240.824902 
L 550.361881 240.824902 
L 550.887357 220.857492 
L 551.150096 231.429564 
L 551.412834 248.107679 
L 551.675573 251.897317 
L 551.938311 247.755585 
L 552.201049 237.183514 
L 552.726526 208.478624 
L 552.989264 204.651923 
L 553.514741 204.651923 
L 554.040218 223.312881 
L 554.302956 206.634766 
L 554.565695 215.854057 
L 554.828433 219.115555 
L 555.35391 203.123096 
L 555.616648 182.284718 
L 555.879387 178.624798 
L 556.404863 152.384563 
L 556.667602 172.231521 
L 556.93034 162.27098 
L 557.193078 178.949095 
L 557.718555 141.692039 
L 557.981294 137.9024 
L 558.244032 137.9024 
L 558.50677 154.487859 
L 558.769509 163.438448 
L 559.032247 160.176949 
L 559.294985 151.226361 
L 559.557724 165.986493 
L 559.820462 165.986493 
L 560.0832 182.312515 
L 560.345939 174.223629 
L 560.871416 214.362293 
L 561.134154 193.53318 
L 561.396892 182.961108 
L 561.659631 203.790221 
L 561.922369 215.455636 
L 562.185107 219.282337 
L 562.447846 219.282337 
L 562.710584 201.557206 
L 562.973323 221.20032 
L 563.236061 231.160861 
L 563.498799 236.192092 
L 563.761538 235.793671 
L 564.024276 235.793671 
L 564.812491 263.849967 
L 565.07523 253.889426 
L 565.337968 266.268293 
L 565.600706 270.057932 
L 565.863445 249.228819 
L 566.126183 237.563404 
L 566.388921 218.253853 
L 566.65166 229.733955 
L 567.177137 229.733955 
L 567.439875 232.995453 
L 567.702613 213.35234 
L 567.965352 213.35234 
L 568.22809 223.989271 
L 568.490828 223.989271 
L 568.753567 207.66325 
L 569.279043 245.050024 
L 569.541782 230.289893 
L 569.80452 225.258661 
L 570.067259 225.258661 
L 570.592735 201.399691 
L 571.118212 223.285084 
L 571.38095 205.541423 
L 571.643689 209.201342 
L 571.906427 222.636491 
L 572.169166 210.257623 
L 572.431904 219.208212 
L 572.694642 215.418573 
L 573.220119 231.559282 
L 573.482857 231.559282 
L 573.745596 211.916169 
L 574.008334 226.676301 
L 574.271073 217.169775 
L 574.533811 237.998888 
L 574.796549 231.07747 
L 575.059288 220.505398 
L 575.322026 225.53663 
L 575.847503 208.228452 
L 576.110241 188.381495 
L 576.37298 177.744564 
L 576.635718 172.713333 
L 576.898456 179.393844 
L 577.423933 210.51706 
L 577.686671 206.857141 
L 577.94941 192.097009 
L 578.212148 195.756929 
L 578.474886 195.756929 
L 578.737625 199.546567 
L 579.000363 182.961108 
L 579.52584 208.506421 
L 579.788578 212.648153 
L 580.051317 233.227094 
L 580.314055 244.892509 
L 580.576793 244.892509 
L 581.10227 224.276505 
L 581.365009 236.655373 
L 581.627747 236.655373 
L 581.890485 237.053795 
L 582.153224 237.053795 
L 582.415962 225.573692 
L 582.6787 205.930579 
L 582.941439 205.930579 
L 583.204177 222.608694 
L 583.992392 222.608694 
L 584.517869 261.172203 
L 584.780607 240.34309 
L 585.043346 240.34309 
L 585.568823 277.933708 
L 585.831561 273.791976 
L 586.094299 273.791976 
L 586.619776 244.734993 
L 586.882514 252.823879 
L 587.145253 265.202747 
L 587.407991 265.202747 
L 587.670729 247.459086 
L 587.933468 247.459086 
L 588.458945 265.712356 
L 588.721683 262.450858 
L 588.984421 241.61248 
L 589.509898 234.125859 
L 589.772636 237.95256 
L 590.035375 217.373619 
L 590.298113 233.959078 
L 590.560852 230.16944 
L 590.82359 212.444309 
L 591.086328 212.444309 
L 591.349067 221.394898 
L 591.874543 205.319048 
L 592.137282 224.962161 
L 592.40002 224.962161 
L 592.662759 229.993393 
L 592.925497 250.572334 
L 593.188235 230.92922 
L 593.450974 230.92922 
L 593.713712 224.156052 
L 593.97645 227.945691 
L 594.239189 222.914459 
L 594.764666 222.914459 
L 595.027404 229.687627 
L 595.290142 250.51674 
L 595.552881 250.51674 
L 595.815619 271.355118 
L 596.078357 264.58195 
L 596.341096 268.723682 
L 596.603834 258.763141 
L 596.866572 265.536309 
L 597.129311 265.536309 
L 597.392049 245.689352 
L 597.654788 245.689352 
L 597.917526 224.850974 
L 598.180264 224.850974 
L 598.443003 216.762088 
L 598.705741 216.762088 
L 598.968479 234.487218 
L 599.231218 234.088797 
L 599.756695 234.088797 
L 600.019433 237.748716 
L 600.54491 217.318025 
L 600.807648 217.318025 
L 601.333125 236.497858 
L 601.858602 203.187955 
L 602.12134 203.187955 
L 602.384078 212.583294 
L 602.909555 212.583294 
L 603.172293 191.754181 
L 603.435032 191.754181 
L 603.69777 182.534889 
L 604.223247 182.534889 
L 604.485985 178.708189 
L 604.748724 165.27304 
L 605.011462 175.845112 
L 605.2742 196.68349 
L 605.536939 196.68349 
L 605.799677 192.541759 
L 606.062415 196.68349 
L 606.325154 196.68349 
L 606.587892 192.893852 
L 607.638846 192.893852 
L 607.901584 189.233932 
L 608.427061 189.233932 
L 608.689799 200.714035 
L 608.952538 200.714035 
L 609.215276 189.233932 
L 609.740753 189.233932 
L 610.003491 198.453224 
L 610.266229 177.614845 
L 610.528968 177.614845 
L 610.791706 185.703731 
L 611.054445 175.131659 
L 611.579921 175.131659 
L 611.84266 162.752792 
L 612.105398 162.752792 
L 612.368136 152.792251 
L 612.630875 148.891425 
L 613.156352 148.891425 
L 613.41909 144.749693 
L 613.681828 145.148115 
L 613.944567 145.148115 
L 614.470043 172.287114 
L 615.783735 172.287114 
L 616.046474 171.888693 
L 616.309212 171.888693 
L 616.57195 191.73565 
L 616.834689 182.516358 
L 617.097427 182.516358 
L 617.360165 203.095299 
L 617.622904 203.095299 
L 617.885642 212.045888 
L 618.148381 192.198931 
L 618.411119 195.85885 
L 618.673857 186.908262 
L 618.936596 193.588774 
L 619.199334 193.987195 
L 619.462072 193.987195 
L 619.724811 184.591857 
L 619.987549 184.591857 
L 620.250288 168.006398 
L 620.513026 161.23323 
L 620.775764 161.23323 
L 621.038503 165.059931 
L 622.352195 165.059931 
L 622.877671 177.01258 
L 623.14041 164.633712 
L 623.665886 195.812522 
L 623.928625 195.812522 
L 624.191363 175.233581 
L 624.454102 175.233581 
L 624.71684 168.55307 
L 624.979578 168.55307 
L 625.242317 179.190001 
L 625.767793 179.190001 
L 626.030532 175.3633 
L 626.29327 184.313888 
L 626.556008 180.653969 
L 627.081485 180.653969 
L 627.344224 180.255547 
L 627.606962 197.980677 
L 628.395177 197.980677 
L 628.920654 205.430235 
L 629.183392 205.430235 
L 629.446131 214.649527 
L 629.708869 214.649527 
L 629.971607 224.156052 
L 630.234346 243.465604 
L 631.022561 215.789198 
L 631.285299 212.129278 
L 631.548038 194.385617 
L 631.810776 194.385617 
L 632.073514 194.784038 
L 632.336253 198.045537 
L 632.598991 178.735985 
L 633.124468 178.735985 
L 633.387206 199.574364 
L 633.649945 196.312866 
L 634.175421 211.943966 
L 635.226375 211.943966 
L 635.489113 201.307035 
L 635.751851 201.307035 
L 636.01459 194.385617 
L 636.277328 194.385617 
L 636.540067 179.625485 
L 636.802805 183.285405 
L 637.065543 182.886983 
L 637.328282 165.161853 
L 639.955665 165.161853 
L 640.218404 176.641955 
L 640.481142 176.641955 
L 641.006619 167.821086 
L 642.583049 167.821086 
L 642.845788 154.385937 
L 643.108526 154.385937 
L 643.371264 146.982707 
L 644.422218 146.982707 
L 644.684956 143.322788 
L 644.947694 164.161166 
L 645.210433 164.161166 
L 645.473171 155.210577 
L 646.261386 155.210577 
L 646.524125 160.241809 
L 647.575078 160.241809 
L 647.837817 139.40343 
L 648.100555 139.40343 
L 648.363293 157.147092 
L 649.414247 157.147092 
L 649.676985 140.468977 
L 649.939724 140.468977 
L 650.202462 144.258615 
L 650.4652 144.657037 
L 650.727939 139.625805 
L 652.041631 139.625805 
L 652.304369 139.227384 
L 657.296398 139.227384 
L 657.559136 133.149137 
L 664.653072 133.149137 
L 664.915811 133.547559 
L 665.178549 121.882144 
L 665.441287 115.201632 
L 665.966764 115.201632 
L 666.229503 105.027982 
L 666.492241 114.988523 
L 666.754979 114.988523 
L 667.017718 105.027982 
L 667.280456 111.9494 
L 667.543194 103.860514 
L 668.068671 103.860514 
L 668.33141 92.380411 
L 792.606659 92.417474 
L 792.869398 92.269224 
L 793.920351 92.269224 
L 794.183089 89.285694 
L 794.445828 88.887273 
L 871.690909 88.887273 
L 871.690909 88.887273 
" style="fill:none;stroke:#8dd3c7;stroke-linecap:square;stroke-width:1.5;"/>
   </g>
   <g id="line2d_13">
    <path clip-path="url(#p878147a780)" d="M 161.509091 139.486821 
L 557.718555 139.486821 
L 557.981294 137.9024 
L 657.296398 137.9024 
L 657.559136 133.149137 
L 664.915811 133.149137 
L 665.441287 115.201632 
L 665.966764 115.201632 
L 666.229503 105.027982 
L 667.280456 105.027982 
L 667.543194 103.860514 
L 668.068671 103.860514 
L 668.33141 92.380411 
L 792.606659 92.380411 
L 793.132136 92.269224 
L 793.920351 92.269224 
L 794.183089 89.285694 
L 794.445828 88.887273 
L 871.690909 88.887273 
L 871.690909 88.887273 
" style="fill:none;stroke:#feffb3;stroke-linecap:square;stroke-width:1.5;"/>
   </g>
   <g id="line2d_14">
    <path clip-path="url(#p878147a780)" d="M 161.509091 242.910593 
L 163.34826 242.910593 
L 163.610998 257.929611 
L 165.450166 257.929611 
L 165.712905 272.013899 
L 167.552073 272.013899 
L 167.814812 285.221632 
L 169.65398 285.221632 
L 169.916719 297.607364 
L 171.755887 297.607364 
L 172.018626 309.222252 
L 173.857794 309.222252 
L 174.120533 320.114272 
L 175.959701 320.114272 
L 176.22244 330.328412 
L 178.061608 330.328412 
L 178.324347 339.90686 
L 180.163515 339.90686 
L 180.426254 348.889181 
L 182.265422 348.889181 
L 182.528161 357.312474 
L 184.367329 357.312474 
L 184.630068 365.211532 
L 186.469236 365.211532 
L 186.731975 372.618981 
L 188.571143 372.618981 
L 188.833882 379.565418 
L 190.67305 379.565418 
L 190.935789 386.079533 
L 192.774957 386.079533 
L 193.037695 392.188233 
L 194.876864 392.188233 
L 195.139602 397.91675 
L 196.978771 397.91675 
L 197.241509 403.288744 
L 199.080678 403.288744 
L 199.343416 408.326405 
L 201.182585 408.326405 
L 201.445323 413.050541 
L 203.284492 413.050541 
L 203.54723 417.480663 
L 205.386399 417.480663 
L 205.649137 421.63507 
L 207.488306 421.63507 
L 207.751044 425.530922 
L 209.590213 425.530922 
L 209.852951 429.18431 
L 211.69212 429.18431 
L 211.954858 432.610325 
L 213.794027 432.610325 
L 214.056765 435.823117 
L 215.895934 435.823117 
L 216.158672 438.835956 
L 217.997841 438.835956 
L 218.260579 441.661287 
L 220.099748 441.661287 
L 220.362486 444.31078 
L 222.201655 444.31078 
L 222.464393 446.795378 
L 224.303562 446.795378 
L 224.5663 449.125343 
L 226.405469 449.125343 
L 226.668207 451.3103 
L 228.507376 451.3103 
L 228.770114 453.359273 
L 230.609283 453.359273 
L 230.872021 455.280725 
L 232.71119 455.280725 
L 232.973928 457.082593 
L 234.813097 457.082593 
L 235.075835 458.772319 
L 236.915004 458.772319 
L 237.177742 460.356883 
L 239.016911 460.356883 
L 239.279649 461.842829 
L 241.118817 461.842829 
L 241.381556 463.236296 
L 243.220724 463.236296 
L 243.483463 464.543038 
L 245.322631 464.543038 
L 245.58537 465.768453 
L 247.424538 465.768453 
L 247.687277 466.917603 
L 249.526445 466.917603 
L 249.789184 467.995233 
L 251.628352 467.995233 
L 251.891091 469.005796 
L 253.730259 469.005796 
L 253.992998 469.953466 
L 255.832166 469.953466 
L 256.094905 470.842155 
L 257.934073 470.842155 
L 258.196812 471.675536 
L 260.03598 471.675536 
L 260.298719 472.45705 
L 262.137887 472.45705 
L 262.400626 473.189926 
L 264.239794 473.189926 
L 264.502533 473.87719 
L 266.341701 473.87719 
L 266.60444 474.521681 
L 268.443608 474.521681 
L 268.706346 475.126062 
L 270.545515 475.126062 
L 270.808253 475.692828 
L 272.647422 475.692828 
L 272.91016 476.22432 
L 274.749329 476.22432 
L 275.012067 476.722734 
L 276.851236 476.722734 
L 277.113974 477.190129 
L 278.953143 477.190129 
L 279.215881 477.628435 
L 281.05505 477.628435 
L 281.317788 478.039462 
L 283.156957 478.039462 
L 283.419695 478.424909 
L 285.258864 478.424909 
L 285.521602 478.786366 
L 287.360771 478.786366 
L 287.623509 479.125328 
L 289.462678 479.125328 
L 289.725416 479.443194 
L 291.564585 479.443194 
L 291.827323 479.741278 
L 293.666492 479.741278 
L 293.92923 480.020809 
L 295.768399 480.020809 
L 296.031137 480.282944 
L 297.870306 480.282944 
L 298.133044 480.528764 
L 299.972213 480.528764 
L 300.234951 480.759285 
L 302.07412 480.759285 
L 302.336858 480.97546 
L 304.176027 480.97546 
L 304.438765 481.17818 
L 306.277934 481.17818 
L 306.540672 481.368284 
L 308.379841 481.368284 
L 308.642579 481.546557 
L 310.481748 481.546557 
L 310.744486 481.713734 
L 312.583655 481.713734 
L 312.846393 481.870507 
L 314.685561 481.870507 
L 314.9483 482.017524 
L 316.787468 482.017524 
L 317.050207 482.15539 
L 318.889375 482.15539 
L 319.152114 482.284676 
L 320.991282 482.284676 
L 321.516759 482.405915 
L 323.093189 482.405915 
L 323.618666 482.51961 
L 327.297003 482.626228 
L 327.82248 482.726211 
L 331.500817 482.819971 
L 332.026294 482.907896 
L 335.704631 482.990348 
L 336.230108 483.06767 
L 339.908445 483.140179 
L 340.433922 483.208175 
L 344.112259 483.271939 
L 344.637736 483.331735 
L 350.41798 483.440394 
L 351.206195 483.489706 
L 356.723701 483.579314 
L 357.511916 483.61998 
L 365.131329 483.727413 
L 366.182282 483.758862 
L 375.640864 483.866266 
L 376.954556 483.889073 
L 390.354212 483.999015 
L 392.718858 484.0272 
L 419.78091 484.137669 
L 425.298416 484.154336 
L 871.690909 484.232727 
L 871.690909 484.232727 
" style="fill:none;stroke:#bfbbd9;stroke-linecap:square;stroke-width:1.5;"/>
   </g>
   <g id="patch_3">
    <path d="M 126 504 
L 126 69.12 
" style="fill:none;stroke:#ffffff;stroke-linecap:square;stroke-linejoin:miter;stroke-width:0.8;"/>
   </g>
   <g id="patch_4">
    <path d="M 907.2 504 
L 907.2 69.12 
" style="fill:none;stroke:#ffffff;stroke-linecap:square;stroke-linejoin:miter;stroke-width:0.8;"/>
   </g>
   <g id="patch_5">
    <path d="M 126 504 
L 907.2 504 
" style="fill:none;stroke:#ffffff;stroke-linecap:square;stroke-linejoin:miter;stroke-width:0.8;"/>
   </g>
   <g id="patch_6">
    <path d="M 126 69.12 
L 907.2 69.12 
" style="fill:none;stroke:#ffffff;stroke-linecap:square;stroke-linejoin:miter;stroke-width:0.8;"/>
   </g>
   <g id="text_13">
    <!-- instance 16 with error 0.0 -->
    <g style="fill:#ffffff;" transform="translate(439.126875 63.12)scale(0.12 -0.12)">
     <defs>
      <path d="M 2834 3397 
L 2834 2853 
Q 2591 2978 2328 3040 
Q 2066 3103 1784 3103 
Q 1356 3103 1142 2972 
Q 928 2841 928 2578 
Q 928 2378 1081 2264 
Q 1234 2150 1697 2047 
L 1894 2003 
Q 2506 1872 2764 1633 
Q 3022 1394 3022 966 
Q 3022 478 2636 193 
Q 2250 -91 1575 -91 
Q 1294 -91 989 -36 
Q 684 19 347 128 
L 347 722 
Q 666 556 975 473 
Q 1284 391 1588 391 
Q 1994 391 2212 530 
Q 2431 669 2431 922 
Q 2431 1156 2273 1281 
Q 2116 1406 1581 1522 
L 1381 1569 
Q 847 1681 609 1914 
Q 372 2147 372 2553 
Q 372 3047 722 3315 
Q 1072 3584 1716 3584 
Q 2034 3584 2315 3537 
Q 2597 3491 2834 3397 
z
" id="DejaVuSans-73" transform="scale(0.015625)"/>
      <path d="M 3122 3366 
L 3122 2828 
Q 2878 2963 2633 3030 
Q 2388 3097 2138 3097 
Q 1578 3097 1268 2742 
Q 959 2388 959 1747 
Q 959 1106 1268 751 
Q 1578 397 2138 397 
Q 2388 397 2633 464 
Q 2878 531 3122 666 
L 3122 134 
Q 2881 22 2623 -34 
Q 2366 -91 2075 -91 
Q 1284 -91 818 406 
Q 353 903 353 1747 
Q 353 2603 823 3093 
Q 1294 3584 2113 3584 
Q 2378 3584 2631 3529 
Q 2884 3475 3122 3366 
z
" id="DejaVuSans-63" transform="scale(0.015625)"/>
      <path id="DejaVuSans-20" transform="scale(0.015625)"/>
      <path d="M 2113 2584 
Q 1688 2584 1439 2293 
Q 1191 2003 1191 1497 
Q 1191 994 1439 701 
Q 1688 409 2113 409 
Q 2538 409 2786 701 
Q 3034 994 3034 1497 
Q 3034 2003 2786 2293 
Q 2538 2584 2113 2584 
z
M 3366 4563 
L 3366 3988 
Q 3128 4100 2886 4159 
Q 2644 4219 2406 4219 
Q 1781 4219 1451 3797 
Q 1122 3375 1075 2522 
Q 1259 2794 1537 2939 
Q 1816 3084 2150 3084 
Q 2853 3084 3261 2657 
Q 3669 2231 3669 1497 
Q 3669 778 3244 343 
Q 2819 -91 2113 -91 
Q 1303 -91 875 529 
Q 447 1150 447 2328 
Q 447 3434 972 4092 
Q 1497 4750 2381 4750 
Q 2619 4750 2861 4703 
Q 3103 4656 3366 4563 
z
" id="DejaVuSans-36" transform="scale(0.015625)"/>
      <path d="M 269 3500 
L 844 3500 
L 1563 769 
L 2278 3500 
L 2956 3500 
L 3675 769 
L 4391 3500 
L 4966 3500 
L 4050 0 
L 3372 0 
L 2619 2869 
L 1863 0 
L 1184 0 
L 269 3500 
z
" id="DejaVuSans-77" transform="scale(0.015625)"/>
      <path d="M 3513 2113 
L 3513 0 
L 2938 0 
L 2938 2094 
Q 2938 2591 2744 2837 
Q 2550 3084 2163 3084 
Q 1697 3084 1428 2787 
Q 1159 2491 1159 1978 
L 1159 0 
L 581 0 
L 581 4863 
L 1159 4863 
L 1159 2956 
Q 1366 3272 1645 3428 
Q 1925 3584 2291 3584 
Q 2894 3584 3203 3211 
Q 3513 2838 3513 2113 
z
" id="DejaVuSans-68" transform="scale(0.015625)"/>
      <path d="M 684 794 
L 1344 794 
L 1344 0 
L 684 0 
L 684 794 
z
" id="DejaVuSans-2e" transform="scale(0.015625)"/>
     </defs>
     <use xlink:href="#DejaVuSans-69"/>
     <use x="27.783203" xlink:href="#DejaVuSans-6e"/>
     <use x="91.162109" xlink:href="#DejaVuSans-73"/>
     <use x="143.261719" xlink:href="#DejaVuSans-74"/>
     <use x="182.470703" xlink:href="#DejaVuSans-61"/>
     <use x="243.75" xlink:href="#DejaVuSans-6e"/>
     <use x="307.128906" xlink:href="#DejaVuSans-63"/>
     <use x="362.109375" xlink:href="#DejaVuSans-65"/>
     <use x="423.632812" xlink:href="#DejaVuSans-20"/>
     <use x="455.419922" xlink:href="#DejaVuSans-31"/>
     <use x="519.042969" xlink:href="#DejaVuSans-36"/>
     <use x="582.666016" xlink:href="#DejaVuSans-20"/>
     <use x="614.453125" xlink:href="#DejaVuSans-77"/>
     <use x="696.240234" xlink:href="#DejaVuSans-69"/>
     <use x="724.023438" xlink:href="#DejaVuSans-74"/>
     <use x="763.232422" xlink:href="#DejaVuSans-68"/>
     <use x="826.611328" xlink:href="#DejaVuSans-20"/>
     <use x="858.398438" xlink:href="#DejaVuSans-65"/>
     <use x="919.921875" xlink:href="#DejaVuSans-72"/>
     <use x="959.285156" xlink:href="#DejaVuSans-72"/>
     <use x="998.148438" xlink:href="#DejaVuSans-6f"/>
     <use x="1059.330078" xlink:href="#DejaVuSans-72"/>
     <use x="1100.443359" xlink:href="#DejaVuSans-20"/>
     <use x="1132.230469" xlink:href="#DejaVuSans-30"/>
     <use x="1195.853516" xlink:href="#DejaVuSans-2e"/>
     <use x="1227.640625" xlink:href="#DejaVuSans-30"/>
    </g>
   </g>
   <g id="legend_1">
    <g id="patch_7">
     <path d="M 805.348438 499 
L 900.2 499 
Q 902.2 499 902.2 497 
L 902.2 453.965625 
Q 902.2 451.965625 900.2 451.965625 
L 805.348438 451.965625 
Q 803.348438 451.965625 803.348438 453.965625 
L 803.348438 497 
Q 803.348438 499 805.348438 499 
z
" style="opacity:0.8;stroke:#cccccc;stroke-linejoin:miter;"/>
    </g>
    <g id="line2d_15">
     <path d="M 807.348438 460.064062 
L 827.348438 460.064062 
" style="fill:none;stroke:#8dd3c7;stroke-linecap:square;stroke-width:1.5;"/>
    </g>
    <g id="line2d_16"/>
    <g id="text_14">
     <!-- cost -->
     <g style="fill:#ffffff;" transform="translate(835.348438 463.564062)scale(0.1 -0.1)">
      <use xlink:href="#DejaVuSans-63"/>
      <use x="54.980469" xlink:href="#DejaVuSans-6f"/>
      <use x="116.162109" xlink:href="#DejaVuSans-73"/>
      <use x="168.261719" xlink:href="#DejaVuSans-74"/>
     </g>
    </g>
    <g id="line2d_17">
     <path d="M 807.348438 474.742188 
L 827.348438 474.742188 
" style="fill:none;stroke:#feffb3;stroke-linecap:square;stroke-width:1.5;"/>
    </g>
    <g id="line2d_18"/>
    <g id="text_15">
     <!-- best cost -->
     <g style="fill:#ffffff;" transform="translate(835.348438 478.242188)scale(0.1 -0.1)">
      <defs>
       <path d="M 3116 1747 
Q 3116 2381 2855 2742 
Q 2594 3103 2138 3103 
Q 1681 3103 1420 2742 
Q 1159 2381 1159 1747 
Q 1159 1113 1420 752 
Q 1681 391 2138 391 
Q 2594 391 2855 752 
Q 3116 1113 3116 1747 
z
M 1159 2969 
Q 1341 3281 1617 3432 
Q 1894 3584 2278 3584 
Q 2916 3584 3314 3078 
Q 3713 2572 3713 1747 
Q 3713 922 3314 415 
Q 2916 -91 2278 -91 
Q 1894 -91 1617 61 
Q 1341 213 1159 525 
L 1159 0 
L 581 0 
L 581 4863 
L 1159 4863 
L 1159 2969 
z
" id="DejaVuSans-62" transform="scale(0.015625)"/>
      </defs>
      <use xlink:href="#DejaVuSans-62"/>
      <use x="63.476562" xlink:href="#DejaVuSans-65"/>
      <use x="125" xlink:href="#DejaVuSans-73"/>
      <use x="177.099609" xlink:href="#DejaVuSans-74"/>
      <use x="216.308594" xlink:href="#DejaVuSans-20"/>
      <use x="248.095703" xlink:href="#DejaVuSans-63"/>
      <use x="303.076172" xlink:href="#DejaVuSans-6f"/>
      <use x="364.257812" xlink:href="#DejaVuSans-73"/>
      <use x="416.357422" xlink:href="#DejaVuSans-74"/>
     </g>
    </g>
    <g id="line2d_19">
     <path d="M 807.348438 489.420313 
L 827.348438 489.420313 
" style="fill:none;stroke:#bfbbd9;stroke-linecap:square;stroke-width:1.5;"/>
    </g>
    <g id="line2d_20"/>
    <g id="text_16">
     <!-- temperature -->
     <g style="fill:#ffffff;" transform="translate(835.348438 492.920313)scale(0.1 -0.1)">
      <defs>
       <path d="M 3328 2828 
Q 3544 3216 3844 3400 
Q 4144 3584 4550 3584 
Q 5097 3584 5394 3201 
Q 5691 2819 5691 2113 
L 5691 0 
L 5113 0 
L 5113 2094 
Q 5113 2597 4934 2840 
Q 4756 3084 4391 3084 
Q 3944 3084 3684 2787 
Q 3425 2491 3425 1978 
L 3425 0 
L 2847 0 
L 2847 2094 
Q 2847 2600 2669 2842 
Q 2491 3084 2119 3084 
Q 1678 3084 1418 2786 
Q 1159 2488 1159 1978 
L 1159 0 
L 581 0 
L 581 3500 
L 1159 3500 
L 1159 2956 
Q 1356 3278 1631 3431 
Q 1906 3584 2284 3584 
Q 2666 3584 2933 3390 
Q 3200 3197 3328 2828 
z
" id="DejaVuSans-6d" transform="scale(0.015625)"/>
       <path d="M 1159 525 
L 1159 -1331 
L 581 -1331 
L 581 3500 
L 1159 3500 
L 1159 2969 
Q 1341 3281 1617 3432 
Q 1894 3584 2278 3584 
Q 2916 3584 3314 3078 
Q 3713 2572 3713 1747 
Q 3713 922 3314 415 
Q 2916 -91 2278 -91 
Q 1894 -91 1617 61 
Q 1341 213 1159 525 
z
M 3116 1747 
Q 3116 2381 2855 2742 
Q 2594 3103 2138 3103 
Q 1681 3103 1420 2742 
Q 1159 2381 1159 1747 
Q 1159 1113 1420 752 
Q 1681 391 2138 391 
Q 2594 391 2855 752 
Q 3116 1113 3116 1747 
z
" id="DejaVuSans-70" transform="scale(0.015625)"/>
       <path d="M 544 1381 
L 544 3500 
L 1119 3500 
L 1119 1403 
Q 1119 906 1312 657 
Q 1506 409 1894 409 
Q 2359 409 2629 706 
Q 2900 1003 2900 1516 
L 2900 3500 
L 3475 3500 
L 3475 0 
L 2900 0 
L 2900 538 
Q 2691 219 2414 64 
Q 2138 -91 1772 -91 
Q 1169 -91 856 284 
Q 544 659 544 1381 
z
M 1991 3584 
L 1991 3584 
z
" id="DejaVuSans-75" transform="scale(0.015625)"/>
      </defs>
      <use xlink:href="#DejaVuSans-74"/>
      <use x="39.208984" xlink:href="#DejaVuSans-65"/>
      <use x="100.732422" xlink:href="#DejaVuSans-6d"/>
      <use x="198.144531" xlink:href="#DejaVuSans-70"/>
      <use x="261.621094" xlink:href="#DejaVuSans-65"/>
      <use x="323.144531" xlink:href="#DejaVuSans-72"/>
      <use x="364.257812" xlink:href="#DejaVuSans-61"/>
      <use x="425.537109" xlink:href="#DejaVuSans-74"/>
      <use x="464.746094" xlink:href="#DejaVuSans-75"/>
      <use x="528.125" xlink:href="#DejaVuSans-72"/>
      <use x="566.988281" xlink:href="#DejaVuSans-65"/>
     </g>
    </g>
   </g>
  </g>
 </g>
 <defs>
  <clipPath id="p878147a780">
   <rect height="434.88" width="781.2" x="126" y="69.12"/>
  </clipPath>
 </defs>
</svg>
