<?xml version="1.0" encoding="utf-8" standalone="no"?>
<!DOCTYPE svg PUBLIC "-//W3C//DTD SVG 1.1//EN"
  "http://www.w3.org/Graphics/SVG/1.1/DTD/svg11.dtd">
<svg height="576pt" version="1.1" viewBox="0 0 1008 576" width="1008pt" xmlns="http://www.w3.org/2000/svg" xmlns:xlink="http://www.w3.org/1999/xlink">
 <metadata>
  <rdf:RDF xmlns:cc="http://creativecommons.org/ns#" xmlns:dc="http://purl.org/dc/elements/1.1/" xmlns:rdf="http://www.w3.org/1999/02/22-rdf-syntax-ns#">
   <cc:Work>
    <dc:type rdf:resource="http://purl.org/dc/dcmitype/StillImage"/>
    <dc:date>2022-01-07T00:38:49.521066</dc:date>
    <dc:format>image/svg+xml</dc:format>
    <dc:creator>
     <cc:Agent>
      <dc:title>Matplotlib v3.4.3, https://matplotlib.org/</dc:title>
     </cc:Agent>
    </dc:creator>
   </cc:Work>
  </rdf:RDF>
 </metadata>
 <defs>
  <style type="text/css">*{stroke-linecap:butt;stroke-linejoin:round;}</style>
 </defs>
 <g id="figure_1">
  <g id="patch_1">
   <path d="M 0 576 
L 1008 576 
L 1008 0 
L 0 0 
z
"/>
  </g>
  <g id="axes_1">
   <g id="patch_2">
    <path d="M 126 504 
L 907.2 504 
L 907.2 69.12 
L 126 69.12 
z
"/>
   </g>
   <g id="matplotlib.axis_1">
    <g id="xtick_1">
     <g id="line2d_1">
      <defs>
       <path d="M 0 0 
L 0 3.5 
" id="m50504f9f46" style="stroke:#ffffff;stroke-width:0.8;"/>
      </defs>
      <g>
       <use style="fill:#ffffff;stroke:#ffffff;stroke-width:0.8;" x="161.509091" xlink:href="#m50504f9f46" y="504"/>
      </g>
     </g>
     <g id="text_1">
      <!-- 0 -->
      <g style="fill:#ffffff;" transform="translate(158.327841 518.598438)scale(0.1 -0.1)">
       <defs>
        <path d="M 2034 4250 
Q 1547 4250 1301 3770 
Q 1056 3291 1056 2328 
Q 1056 1369 1301 889 
Q 1547 409 2034 409 
Q 2525 409 2770 889 
Q 3016 1369 3016 2328 
Q 3016 3291 2770 3770 
Q 2525 4250 2034 4250 
z
M 2034 4750 
Q 2819 4750 3233 4129 
Q 3647 3509 3647 2328 
Q 3647 1150 3233 529 
Q 2819 -91 2034 -91 
Q 1250 -91 836 529 
Q 422 1150 422 2328 
Q 422 3509 836 4129 
Q 1250 4750 2034 4750 
z
" id="DejaVuSans-30" transform="scale(0.015625)"/>
       </defs>
       <use xlink:href="#DejaVuSans-30"/>
      </g>
     </g>
    </g>
    <g id="xtick_2">
     <g id="line2d_2">
      <g>
       <use style="fill:#ffffff;stroke:#ffffff;stroke-width:0.8;" x="310.020554" xlink:href="#m50504f9f46" y="504"/>
      </g>
     </g>
     <g id="text_2">
      <!-- 500 -->
      <g style="fill:#ffffff;" transform="translate(300.476804 518.598438)scale(0.1 -0.1)">
       <defs>
        <path d="M 691 4666 
L 3169 4666 
L 3169 4134 
L 1269 4134 
L 1269 2991 
Q 1406 3038 1543 3061 
Q 1681 3084 1819 3084 
Q 2600 3084 3056 2656 
Q 3513 2228 3513 1497 
Q 3513 744 3044 326 
Q 2575 -91 1722 -91 
Q 1428 -91 1123 -41 
Q 819 9 494 109 
L 494 744 
Q 775 591 1075 516 
Q 1375 441 1709 441 
Q 2250 441 2565 725 
Q 2881 1009 2881 1497 
Q 2881 1984 2565 2268 
Q 2250 2553 1709 2553 
Q 1456 2553 1204 2497 
Q 953 2441 691 2322 
L 691 4666 
z
" id="DejaVuSans-35" transform="scale(0.015625)"/>
       </defs>
       <use xlink:href="#DejaVuSans-35"/>
       <use x="63.623047" xlink:href="#DejaVuSans-30"/>
       <use x="127.246094" xlink:href="#DejaVuSans-30"/>
      </g>
     </g>
    </g>
    <g id="xtick_3">
     <g id="line2d_3">
      <g>
       <use style="fill:#ffffff;stroke:#ffffff;stroke-width:0.8;" x="458.532018" xlink:href="#m50504f9f46" y="504"/>
      </g>
     </g>
     <g id="text_3">
      <!-- 1000 -->
      <g style="fill:#ffffff;" transform="translate(445.807018 518.598438)scale(0.1 -0.1)">
       <defs>
        <path d="M 794 531 
L 1825 531 
L 1825 4091 
L 703 3866 
L 703 4441 
L 1819 4666 
L 2450 4666 
L 2450 531 
L 3481 531 
L 3481 0 
L 794 0 
L 794 531 
z
" id="DejaVuSans-31" transform="scale(0.015625)"/>
       </defs>
       <use xlink:href="#DejaVuSans-31"/>
       <use x="63.623047" xlink:href="#DejaVuSans-30"/>
       <use x="127.246094" xlink:href="#DejaVuSans-30"/>
       <use x="190.869141" xlink:href="#DejaVuSans-30"/>
      </g>
     </g>
    </g>
    <g id="xtick_4">
     <g id="line2d_4">
      <g>
       <use style="fill:#ffffff;stroke:#ffffff;stroke-width:0.8;" x="607.043481" xlink:href="#m50504f9f46" y="504"/>
      </g>
     </g>
     <g id="text_4">
      <!-- 1500 -->
      <g style="fill:#ffffff;" transform="translate(594.318481 518.598438)scale(0.1 -0.1)">
       <use xlink:href="#DejaVuSans-31"/>
       <use x="63.623047" xlink:href="#DejaVuSans-35"/>
       <use x="127.246094" xlink:href="#DejaVuSans-30"/>
       <use x="190.869141" xlink:href="#DejaVuSans-30"/>
      </g>
     </g>
    </g>
    <g id="xtick_5">
     <g id="line2d_5">
      <g>
       <use style="fill:#ffffff;stroke:#ffffff;stroke-width:0.8;" x="755.554945" xlink:href="#m50504f9f46" y="504"/>
      </g>
     </g>
     <g id="text_5">
      <!-- 2000 -->
      <g style="fill:#ffffff;" transform="translate(742.829945 518.598438)scale(0.1 -0.1)">
       <defs>
        <path d="M 1228 531 
L 3431 531 
L 3431 0 
L 469 0 
L 469 531 
Q 828 903 1448 1529 
Q 2069 2156 2228 2338 
Q 2531 2678 2651 2914 
Q 2772 3150 2772 3378 
Q 2772 3750 2511 3984 
Q 2250 4219 1831 4219 
Q 1534 4219 1204 4116 
Q 875 4013 500 3803 
L 500 4441 
Q 881 4594 1212 4672 
Q 1544 4750 1819 4750 
Q 2544 4750 2975 4387 
Q 3406 4025 3406 3419 
Q 3406 3131 3298 2873 
Q 3191 2616 2906 2266 
Q 2828 2175 2409 1742 
Q 1991 1309 1228 531 
z
" id="DejaVuSans-32" transform="scale(0.015625)"/>
       </defs>
       <use xlink:href="#DejaVuSans-32"/>
       <use x="63.623047" xlink:href="#DejaVuSans-30"/>
       <use x="127.246094" xlink:href="#DejaVuSans-30"/>
       <use x="190.869141" xlink:href="#DejaVuSans-30"/>
      </g>
     </g>
    </g>
    <g id="xtick_6">
     <g id="line2d_6">
      <g>
       <use style="fill:#ffffff;stroke:#ffffff;stroke-width:0.8;" x="904.066408" xlink:href="#m50504f9f46" y="504"/>
      </g>
     </g>
     <g id="text_6">
      <!-- 2500 -->
      <g style="fill:#ffffff;" transform="translate(891.341408 518.598438)scale(0.1 -0.1)">
       <use xlink:href="#DejaVuSans-32"/>
       <use x="63.623047" xlink:href="#DejaVuSans-35"/>
       <use x="127.246094" xlink:href="#DejaVuSans-30"/>
       <use x="190.869141" xlink:href="#DejaVuSans-30"/>
      </g>
     </g>
    </g>
    <g id="text_7">
     <!-- iteration -->
     <g style="fill:#ffffff;" transform="translate(495.477344 532.276562)scale(0.1 -0.1)">
      <defs>
       <path d="M 603 3500 
L 1178 3500 
L 1178 0 
L 603 0 
L 603 3500 
z
M 603 4863 
L 1178 4863 
L 1178 4134 
L 603 4134 
L 603 4863 
z
" id="DejaVuSans-69" transform="scale(0.015625)"/>
       <path d="M 1172 4494 
L 1172 3500 
L 2356 3500 
L 2356 3053 
L 1172 3053 
L 1172 1153 
Q 1172 725 1289 603 
Q 1406 481 1766 481 
L 2356 481 
L 2356 0 
L 1766 0 
Q 1100 0 847 248 
Q 594 497 594 1153 
L 594 3053 
L 172 3053 
L 172 3500 
L 594 3500 
L 594 4494 
L 1172 4494 
z
" id="DejaVuSans-74" transform="scale(0.015625)"/>
       <path d="M 3597 1894 
L 3597 1613 
L 953 1613 
Q 991 1019 1311 708 
Q 1631 397 2203 397 
Q 2534 397 2845 478 
Q 3156 559 3463 722 
L 3463 178 
Q 3153 47 2828 -22 
Q 2503 -91 2169 -91 
Q 1331 -91 842 396 
Q 353 884 353 1716 
Q 353 2575 817 3079 
Q 1281 3584 2069 3584 
Q 2775 3584 3186 3129 
Q 3597 2675 3597 1894 
z
M 3022 2063 
Q 3016 2534 2758 2815 
Q 2500 3097 2075 3097 
Q 1594 3097 1305 2825 
Q 1016 2553 972 2059 
L 3022 2063 
z
" id="DejaVuSans-65" transform="scale(0.015625)"/>
       <path d="M 2631 2963 
Q 2534 3019 2420 3045 
Q 2306 3072 2169 3072 
Q 1681 3072 1420 2755 
Q 1159 2438 1159 1844 
L 1159 0 
L 581 0 
L 581 3500 
L 1159 3500 
L 1159 2956 
Q 1341 3275 1631 3429 
Q 1922 3584 2338 3584 
Q 2397 3584 2469 3576 
Q 2541 3569 2628 3553 
L 2631 2963 
z
" id="DejaVuSans-72" transform="scale(0.015625)"/>
       <path d="M 2194 1759 
Q 1497 1759 1228 1600 
Q 959 1441 959 1056 
Q 959 750 1161 570 
Q 1363 391 1709 391 
Q 2188 391 2477 730 
Q 2766 1069 2766 1631 
L 2766 1759 
L 2194 1759 
z
M 3341 1997 
L 3341 0 
L 2766 0 
L 2766 531 
Q 2569 213 2275 61 
Q 1981 -91 1556 -91 
Q 1019 -91 701 211 
Q 384 513 384 1019 
Q 384 1609 779 1909 
Q 1175 2209 1959 2209 
L 2766 2209 
L 2766 2266 
Q 2766 2663 2505 2880 
Q 2244 3097 1772 3097 
Q 1472 3097 1187 3025 
Q 903 2953 641 2809 
L 641 3341 
Q 956 3463 1253 3523 
Q 1550 3584 1831 3584 
Q 2591 3584 2966 3190 
Q 3341 2797 3341 1997 
z
" id="DejaVuSans-61" transform="scale(0.015625)"/>
       <path d="M 1959 3097 
Q 1497 3097 1228 2736 
Q 959 2375 959 1747 
Q 959 1119 1226 758 
Q 1494 397 1959 397 
Q 2419 397 2687 759 
Q 2956 1122 2956 1747 
Q 2956 2369 2687 2733 
Q 2419 3097 1959 3097 
z
M 1959 3584 
Q 2709 3584 3137 3096 
Q 3566 2609 3566 1747 
Q 3566 888 3137 398 
Q 2709 -91 1959 -91 
Q 1206 -91 779 398 
Q 353 888 353 1747 
Q 353 2609 779 3096 
Q 1206 3584 1959 3584 
z
" id="DejaVuSans-6f" transform="scale(0.015625)"/>
       <path d="M 3513 2113 
L 3513 0 
L 2938 0 
L 2938 2094 
Q 2938 2591 2744 2837 
Q 2550 3084 2163 3084 
Q 1697 3084 1428 2787 
Q 1159 2491 1159 1978 
L 1159 0 
L 581 0 
L 581 3500 
L 1159 3500 
L 1159 2956 
Q 1366 3272 1645 3428 
Q 1925 3584 2291 3584 
Q 2894 3584 3203 3211 
Q 3513 2838 3513 2113 
z
" id="DejaVuSans-6e" transform="scale(0.015625)"/>
      </defs>
      <use xlink:href="#DejaVuSans-69"/>
      <use x="27.783203" xlink:href="#DejaVuSans-74"/>
      <use x="66.992188" xlink:href="#DejaVuSans-65"/>
      <use x="128.515625" xlink:href="#DejaVuSans-72"/>
      <use x="169.628906" xlink:href="#DejaVuSans-61"/>
      <use x="230.908203" xlink:href="#DejaVuSans-74"/>
      <use x="270.117188" xlink:href="#DejaVuSans-69"/>
      <use x="297.900391" xlink:href="#DejaVuSans-6f"/>
      <use x="359.082031" xlink:href="#DejaVuSans-6e"/>
     </g>
    </g>
   </g>
   <g id="matplotlib.axis_2">
    <g id="ytick_1">
     <g id="line2d_7">
      <defs>
       <path d="M 0 0 
L -3.5 0 
" id="m564e2eba2b" style="stroke:#ffffff;stroke-width:0.8;"/>
      </defs>
      <g>
       <use style="fill:#ffffff;stroke:#ffffff;stroke-width:0.8;" x="126" xlink:href="#m564e2eba2b" y="484.232727"/>
      </g>
     </g>
     <g id="text_8">
      <!-- 0 -->
      <g style="fill:#ffffff;" transform="translate(112.6375 488.031946)scale(0.1 -0.1)">
       <use xlink:href="#DejaVuSans-30"/>
      </g>
     </g>
    </g>
    <g id="ytick_2">
     <g id="line2d_8">
      <g>
       <use style="fill:#ffffff;stroke:#ffffff;stroke-width:0.8;" x="126" xlink:href="#m564e2eba2b" y="394.646175"/>
      </g>
     </g>
     <g id="text_9">
      <!-- 1000 -->
      <g style="fill:#ffffff;" transform="translate(93.55 398.445394)scale(0.1 -0.1)">
       <use xlink:href="#DejaVuSans-31"/>
       <use x="63.623047" xlink:href="#DejaVuSans-30"/>
       <use x="127.246094" xlink:href="#DejaVuSans-30"/>
       <use x="190.869141" xlink:href="#DejaVuSans-30"/>
      </g>
     </g>
    </g>
    <g id="ytick_3">
     <g id="line2d_9">
      <g>
       <use style="fill:#ffffff;stroke:#ffffff;stroke-width:0.8;" x="126" xlink:href="#m564e2eba2b" y="305.059623"/>
      </g>
     </g>
     <g id="text_10">
      <!-- 2000 -->
      <g style="fill:#ffffff;" transform="translate(93.55 308.858842)scale(0.1 -0.1)">
       <use xlink:href="#DejaVuSans-32"/>
       <use x="63.623047" xlink:href="#DejaVuSans-30"/>
       <use x="127.246094" xlink:href="#DejaVuSans-30"/>
       <use x="190.869141" xlink:href="#DejaVuSans-30"/>
      </g>
     </g>
    </g>
    <g id="ytick_4">
     <g id="line2d_10">
      <g>
       <use style="fill:#ffffff;stroke:#ffffff;stroke-width:0.8;" x="126" xlink:href="#m564e2eba2b" y="215.473071"/>
      </g>
     </g>
     <g id="text_11">
      <!-- 3000 -->
      <g style="fill:#ffffff;" transform="translate(93.55 219.27229)scale(0.1 -0.1)">
       <defs>
        <path d="M 2597 2516 
Q 3050 2419 3304 2112 
Q 3559 1806 3559 1356 
Q 3559 666 3084 287 
Q 2609 -91 1734 -91 
Q 1441 -91 1130 -33 
Q 819 25 488 141 
L 488 750 
Q 750 597 1062 519 
Q 1375 441 1716 441 
Q 2309 441 2620 675 
Q 2931 909 2931 1356 
Q 2931 1769 2642 2001 
Q 2353 2234 1838 2234 
L 1294 2234 
L 1294 2753 
L 1863 2753 
Q 2328 2753 2575 2939 
Q 2822 3125 2822 3475 
Q 2822 3834 2567 4026 
Q 2313 4219 1838 4219 
Q 1578 4219 1281 4162 
Q 984 4106 628 3988 
L 628 4550 
Q 988 4650 1302 4700 
Q 1616 4750 1894 4750 
Q 2613 4750 3031 4423 
Q 3450 4097 3450 3541 
Q 3450 3153 3228 2886 
Q 3006 2619 2597 2516 
z
" id="DejaVuSans-33" transform="scale(0.015625)"/>
       </defs>
       <use xlink:href="#DejaVuSans-33"/>
       <use x="63.623047" xlink:href="#DejaVuSans-30"/>
       <use x="127.246094" xlink:href="#DejaVuSans-30"/>
       <use x="190.869141" xlink:href="#DejaVuSans-30"/>
      </g>
     </g>
    </g>
    <g id="ytick_5">
     <g id="line2d_11">
      <g>
       <use style="fill:#ffffff;stroke:#ffffff;stroke-width:0.8;" x="126" xlink:href="#m564e2eba2b" y="125.886519"/>
      </g>
     </g>
     <g id="text_12">
      <!-- 4000 -->
      <g style="fill:#ffffff;" transform="translate(93.55 129.685738)scale(0.1 -0.1)">
       <defs>
        <path d="M 2419 4116 
L 825 1625 
L 2419 1625 
L 2419 4116 
z
M 2253 4666 
L 3047 4666 
L 3047 1625 
L 3713 1625 
L 3713 1100 
L 3047 1100 
L 3047 0 
L 2419 0 
L 2419 1100 
L 313 1100 
L 313 1709 
L 2253 4666 
z
" id="DejaVuSans-34" transform="scale(0.015625)"/>
       </defs>
       <use xlink:href="#DejaVuSans-34"/>
       <use x="63.623047" xlink:href="#DejaVuSans-30"/>
       <use x="127.246094" xlink:href="#DejaVuSans-30"/>
       <use x="190.869141" xlink:href="#DejaVuSans-30"/>
      </g>
     </g>
    </g>
   </g>
   <g id="line2d_12">
    <path clip-path="url(#p2e0d0c57a5)" d="M 161.509091 292.248746 
L 161.806114 302.103267 
L 162.103137 414.355217 
L 162.40016 484.232727 
L 162.697183 431.824594 
L 162.994206 303.715825 
L 163.588251 303.715825 
L 163.885274 484.232727 
L 165.073366 484.232727 
L 165.370389 398.319224 
L 165.667412 217.802321 
L 165.964435 303.715825 
L 166.558481 303.715825 
L 166.855504 389.539742 
L 167.152527 328.172953 
L 167.449549 445.800096 
L 167.746572 398.319224 
L 168.043595 261.968491 
L 168.340618 270.927147 
L 168.637641 270.927147 
L 168.934664 323.33528 
L 169.231687 323.33528 
L 169.52871 270.300041 
L 169.825733 188.059586 
L 170.122756 188.059586 
L 170.419779 484.232727 
L 171.013825 304.970036 
L 171.310847 304.970036 
L 171.60787 219.056533 
L 171.904893 384.433308 
L 172.201916 384.433308 
L 172.498939 398.319224 
L 172.795962 484.232727 
L 173.687031 484.232727 
L 173.984054 292.248746 
L 174.5781 292.248746 
L 174.875123 484.232727 
L 175.172146 302.103267 
L 175.469168 484.232727 
L 176.063214 188.059586 
L 176.360237 161.45238 
L 176.65726 188.059586 
L 176.954283 323.33528 
L 177.251306 300.311536 
L 178.439398 300.311536 
L 178.736421 303.715825 
L 179.033444 303.715825 
L 179.330467 389.539742 
L 179.627489 362.932536 
L 179.924512 371.712018 
L 180.221535 217.802321 
L 180.518558 484.232727 
L 180.815581 414.355217 
L 181.112604 414.355217 
L 181.409627 484.232727 
L 181.70665 389.539742 
L 182.003673 385.68752 
L 182.597719 385.68752 
L 182.894742 414.355217 
L 183.488787 414.355217 
L 183.78581 300.311536 
L 184.082833 384.791654 
L 184.379856 372.339124 
L 184.973902 372.339124 
L 185.270925 300.311536 
L 185.567948 300.311536 
L 185.864971 484.232727 
L 186.75604 303.357479 
L 187.053063 431.197488 
L 187.350086 300.311536 
L 187.647108 300.311536 
L 187.944131 484.232727 
L 188.241154 422.865939 
L 188.538177 484.232727 
L 188.8352 457.625521 
L 189.132223 457.625521 
L 189.429246 362.932536 
L 189.726269 457.625521 
L 190.023292 484.232727 
L 190.320315 472.676062 
L 190.617338 300.311536 
L 190.914361 384.791654 
L 191.211384 384.791654 
L 191.508407 484.232727 
L 191.805429 304.790863 
L 192.102452 379.595634 
L 192.399475 197.466174 
L 192.696498 302.103267 
L 192.993521 216.189763 
L 193.290544 216.189763 
L 193.587567 379.595634 
L 194.181613 379.595634 
L 194.478636 244.319941 
L 194.775659 244.319941 
L 195.072682 323.33528 
L 195.369705 188.059586 
L 195.666728 161.45238 
L 195.96375 161.45238 
L 196.260773 243.692835 
L 196.557796 484.232727 
L 196.854819 303.715825 
L 197.448865 303.715825 
L 198.042911 484.232727 
L 198.339934 302.103267 
L 198.636957 249.695134 
L 198.93398 304.970036 
L 199.231003 304.970036 
L 199.528026 484.232727 
L 199.825048 303.715825 
L 200.122071 303.715825 
L 200.419094 484.232727 
L 200.716117 484.232727 
L 201.01314 385.060414 
L 201.310163 484.232727 
L 201.607186 323.33528 
L 201.904209 484.232727 
L 202.201232 384.791654 
L 202.498255 323.424866 
L 202.795278 384.791654 
L 203.092301 304.790863 
L 203.389324 303.715825 
L 203.686347 303.715825 
L 203.983369 379.595634 
L 204.280392 326.560396 
L 205.171461 326.560396 
L 205.468484 379.595634 
L 205.765507 484.232727 
L 206.06253 389.539742 
L 206.656576 389.539742 
L 206.953599 459.686012 
L 207.250622 484.232727 
L 207.547645 484.232727 
L 207.844668 323.33528 
L 208.14169 323.33528 
L 208.438713 389.539742 
L 209.032759 336.504503 
L 209.329782 336.504503 
L 209.626805 431.824594 
L 209.923828 431.824594 
L 210.220851 327.187501 
L 210.517874 379.595634 
L 210.814897 379.595634 
L 211.11192 318.228846 
L 211.408943 318.228846 
L 211.705966 300.311536 
L 212.002988 484.232727 
L 212.300011 484.232727 
L 212.597034 372.339124 
L 212.894057 372.339124 
L 213.19108 310.972335 
L 213.488103 318.228846 
L 213.785126 484.232727 
L 214.082149 484.232727 
L 214.379172 385.68752 
L 214.676195 372.339124 
L 214.973218 323.33528 
L 215.270241 484.232727 
L 215.567264 431.197488 
L 215.864287 484.232727 
L 216.161309 302.103267 
L 216.458332 275.496061 
L 217.349401 275.496061 
L 217.646424 261.610145 
L 217.943447 470.346812 
L 218.537493 470.346812 
L 219.131539 370.905739 
L 219.428562 417.759506 
L 219.725585 417.759506 
L 220.022608 363.290882 
L 220.31963 363.290882 
L 220.616653 403.156898 
L 220.913676 325.127011 
L 221.210699 325.127011 
L 221.507722 459.686012 
L 221.804745 484.232727 
L 222.101768 417.759506 
L 222.398791 484.232727 
L 222.992837 318.587192 
L 223.28986 265.551954 
L 223.586883 364.724267 
L 223.883906 384.791654 
L 224.180928 384.791654 
L 224.477951 484.232727 
L 224.774974 372.339124 
L 225.36902 372.339124 
L 225.666043 484.232727 
L 225.963066 303.715825 
L 226.260089 323.33528 
L 226.557112 484.232727 
L 226.854135 385.060414 
L 227.151158 193.076433 
L 227.448181 193.076433 
L 227.745204 431.824594 
L 228.042227 484.232727 
L 228.339249 472.676062 
L 228.933295 472.676062 
L 229.230318 370.457806 
L 229.527341 472.676062 
L 230.121387 472.676062 
L 230.41841 384.791654 
L 230.715433 459.686012 
L 231.012456 459.686012 
L 231.309479 385.68752 
L 231.606502 431.824594 
L 231.903525 405.217388 
L 232.200548 304.790863 
L 232.49757 470.346812 
L 232.794593 371.174498 
L 233.091616 316.705875 
L 233.388639 316.705875 
L 233.685662 415.878188 
L 233.982685 415.878188 
L 234.279708 470.346812 
L 234.576731 365.709719 
L 234.873754 365.709719 
L 235.170777 379.595634 
L 235.4678 365.709719 
L 235.764823 309.449364 
L 236.061846 323.33528 
L 236.358868 261.968491 
L 236.655891 422.865939 
L 236.952914 408.980023 
L 237.249937 484.232727 
L 237.54696 470.346812 
L 237.843983 470.346812 
L 238.141006 484.232727 
L 238.438029 389.539742 
L 238.735052 484.232727 
L 239.032075 417.759506 
L 239.329098 304.970036 
L 239.923144 304.970036 
L 240.220167 244.319941 
L 240.517189 484.232727 
L 240.814212 484.232727 
L 241.111235 431.197488 
L 241.408258 249.068028 
L 241.705281 249.068028 
L 242.002304 187.70124 
L 242.299327 240.736479 
L 242.59635 242.349037 
L 242.893373 315.182903 
L 243.190396 315.182903 
L 243.487419 414.355217 
L 243.784442 414.355217 
L 244.081465 279.079523 
L 244.378488 414.355217 
L 244.67551 352.988428 
L 244.972533 323.424866 
L 245.269556 323.424866 
L 245.566579 280.423321 
L 245.863602 280.423321 
L 246.160625 290.367428 
L 246.457648 389.539742 
L 247.64574 389.539742 
L 247.942763 336.504503 
L 248.239786 336.504503 
L 248.536808 431.197488 
L 248.833831 376.728865 
L 249.130854 431.197488 
L 249.7249 300.311536 
L 250.318946 300.311536 
L 250.615969 459.686012 
L 250.912992 385.68752 
L 251.210015 385.68752 
L 251.507038 417.759506 
L 251.804061 364.724267 
L 252.101084 364.724267 
L 252.398107 484.232727 
L 252.695129 457.625521 
L 252.992152 300.311536 
L 253.289175 300.311536 
L 253.586198 429.764104 
L 254.180244 429.764104 
L 254.77429 377.355971 
L 255.368336 193.076433 
L 255.665359 484.232727 
L 255.962382 384.791654 
L 256.259405 468.465494 
L 256.556428 459.686012 
L 256.85345 472.676062 
L 257.150473 302.103267 
L 257.447496 249.068028 
L 258.041542 249.068028 
L 258.338565 484.232727 
L 258.635588 431.197488 
L 258.932611 332.025175 
L 259.229634 484.232727 
L 259.526657 389.539742 
L 259.82368 375.653826 
L 260.120703 375.653826 
L 260.417726 276.481513 
L 260.714748 276.481513 
L 261.308794 484.232727 
L 261.605817 292.248746 
L 261.90284 225.775524 
L 262.199863 292.248746 
L 262.496886 225.775524 
L 262.793909 468.465494 
L 263.090932 468.465494 
L 263.387955 484.232727 
L 263.982001 484.232727 
L 264.279024 300.311536 
L 264.576047 431.824594 
L 264.873069 484.232727 
L 265.170092 470.346812 
L 265.467115 385.68752 
L 265.764138 457.625521 
L 266.061161 265.64154 
L 266.358184 403.156898 
L 266.655207 389.539742 
L 266.95223 389.539742 
L 267.249253 417.759506 
L 267.546276 356.392717 
L 267.843299 422.865939 
L 268.140322 422.865939 
L 268.437345 369.8307 
L 268.734368 431.197488 
L 269.328413 484.232727 
L 269.625436 459.686012 
L 269.922459 484.232727 
L 270.219482 472.676062 
L 270.516505 472.676062 
L 270.813528 389.539742 
L 271.110551 389.539742 
L 271.407574 484.232727 
L 271.704597 484.232727 
L 272.00162 431.824594 
L 272.298643 431.824594 
L 272.595666 484.232727 
L 272.892688 389.539742 
L 273.189711 389.539742 
L 273.486734 484.232727 
L 273.783757 303.715825 
L 274.08078 303.715825 
L 274.377803 323.33528 
L 274.674826 303.715825 
L 274.971849 303.715825 
L 275.268872 302.103267 
L 275.565895 414.355217 
L 275.862918 414.355217 
L 276.159941 387.748011 
L 276.456964 387.748011 
L 276.753987 361.319978 
L 277.348032 361.319978 
L 277.645055 459.686012 
L 277.942078 372.339124 
L 278.239101 484.232727 
L 279.13017 484.232727 
L 279.724216 249.78472 
L 280.021239 249.78472 
L 280.318262 188.417932 
L 280.912308 332.652281 
L 281.20933 484.232727 
L 281.506353 389.539742 
L 281.803376 484.232727 
L 282.100399 385.060414 
L 282.397422 385.060414 
L 282.694445 484.232727 
L 282.991468 384.791654 
L 283.288491 384.791654 
L 283.585514 459.686012 
L 283.882537 431.197488 
L 284.17956 361.319978 
L 284.476583 484.232727 
L 284.773606 292.248746 
L 285.070628 304.970036 
L 285.367651 304.970036 
L 285.664674 251.934798 
L 285.961697 251.934798 
L 286.25872 484.232727 
L 286.555743 484.232727 
L 286.852766 468.465494 
L 287.446812 468.465494 
L 287.743835 385.68752 
L 288.040858 484.232727 
L 288.337881 300.311536 
L 288.634904 300.311536 
L 288.931927 385.68752 
L 289.525972 385.68752 
L 289.822995 379.595634 
L 290.120018 484.232727 
L 290.714064 361.319978 
L 291.011087 484.232727 
L 291.30811 323.33528 
L 291.605133 484.232727 
L 292.199179 302.103267 
L 292.496202 302.103267 
L 292.793225 303.715825 
L 293.090248 303.715825 
L 293.38727 204.543512 
L 293.684293 285.619341 
L 294.278339 285.619341 
L 294.575362 224.162966 
L 295.169408 224.162966 
L 295.466431 193.076433 
L 295.763454 385.060414 
L 296.3575 88.887273 
L 296.654523 235.898805 
L 296.951546 235.898805 
L 297.248568 400.469301 
L 297.545591 470.346812 
L 297.842614 304.790863 
L 298.43666 304.790863 
L 298.733683 300.311536 
L 299.030706 300.311536 
L 299.327729 422.865939 
L 299.624752 328.172953 
L 299.921775 389.539742 
L 300.218798 290.367428 
L 300.515821 229.00064 
L 300.812844 229.00064 
L 301.109867 328.172953 
L 301.406889 229.00064 
L 301.703912 290.367428 
L 302.000935 389.539742 
L 302.594981 389.539742 
L 302.892004 365.709719 
L 303.189027 484.232727 
L 303.48605 484.232727 
L 303.783073 470.346812 
L 304.080096 470.346812 
L 304.377119 417.311573 
L 304.674142 278.36283 
L 304.971165 484.232727 
L 305.268188 398.319224 
L 305.56521 217.802321 
L 305.862233 303.715825 
L 306.159256 289.829909 
L 306.456279 403.87359 
L 306.753302 459.686012 
L 307.050325 300.311536 
L 307.644371 484.232727 
L 307.941394 484.232727 
L 308.238417 300.311536 
L 308.53544 417.759506 
L 308.832463 389.539742 
L 309.129486 336.504503 
L 309.426508 375.653826 
L 309.723531 314.287038 
L 310.020554 328.172953 
L 310.6146 328.172953 
L 310.911623 472.676062 
L 311.208646 472.676062 
L 311.505669 468.465494 
L 311.802692 484.232727 
L 312.099715 484.232727 
L 312.396738 398.319224 
L 312.693761 398.319224 
L 312.990784 299.146911 
L 313.287807 398.319224 
L 313.584829 371.712018 
L 313.881852 303.715825 
L 314.178875 303.715825 
L 314.475898 168.440131 
L 314.772921 348.957034 
L 315.069944 169.694343 
L 315.366967 169.694343 
L 315.66399 279.079523 
L 315.961013 282.483812 
L 316.258036 348.957034 
L 316.555059 484.232727 
L 316.852082 484.232727 
L 317.446128 244.319941 
L 317.74315 484.232727 
L 318.040173 472.676062 
L 318.337196 385.68752 
L 318.634219 348.957034 
L 318.931242 348.957034 
L 319.228265 385.68752 
L 319.525288 379.595634 
L 319.822311 244.319941 
L 320.119334 484.232727 
L 320.416357 457.625521 
L 320.71338 403.156898 
L 321.010403 303.984584 
L 321.307426 300.311536 
L 321.901471 300.311536 
L 322.198494 379.595634 
L 322.495517 327.187501 
L 322.79254 327.187501 
L 323.089563 431.824594 
L 323.386586 468.465494 
L 323.683609 348.957034 
L 323.980632 348.957034 
L 324.277655 484.232727 
L 324.574678 384.791654 
L 324.871701 414.355217 
L 325.168724 302.103267 
L 325.465747 249.068028 
L 325.762769 484.232727 
L 326.059792 302.103267 
L 326.356815 484.232727 
L 326.653838 303.715825 
L 326.950861 484.232727 
L 327.247884 484.232727 
L 327.544907 384.791654 
L 327.84193 459.686012 
L 328.435976 290.367428 
L 328.732999 290.367428 
L 329.030022 224.162966 
L 329.327045 224.162966 
L 329.92109 323.33528 
L 330.218113 292.248746 
L 330.515136 292.248746 
L 330.812159 193.076433 
L 331.109182 280.423321 
L 331.406205 273.16681 
L 331.703228 372.339124 
L 332.000251 304.970036 
L 332.297274 304.970036 
L 332.594297 169.694343 
L 332.89132 169.694343 
L 333.188343 304.970036 
L 333.485366 219.056533 
L 333.782389 398.319224 
L 334.079411 304.790863 
L 334.376434 304.790863 
L 334.673457 323.33528 
L 334.97048 484.232727 
L 335.267503 385.060414 
L 335.564526 385.060414 
L 335.861549 205.61855 
L 336.158572 385.060414 
L 336.752618 187.253307 
L 337.049641 286.42562 
L 337.346664 216.189763 
L 337.643687 286.42562 
L 337.940709 187.253307 
L 338.237732 384.433308 
L 338.534755 328.441713 
L 338.831778 385.68752 
L 339.128801 303.715825 
L 339.425824 303.715825 
L 339.722847 302.103267 
L 340.01987 247.634643 
L 340.316893 484.232727 
L 340.613916 472.676062 
L 340.910939 419.640823 
L 341.207962 472.676062 
L 341.504985 378.789355 
L 341.802008 417.311573 
L 342.09903 417.311573 
L 342.396053 250.680586 
L 342.693076 319.303885 
L 342.990099 257.937097 
L 343.287122 284.365129 
L 343.584145 343.223494 
L 343.881168 284.365129 
L 344.178191 345.731918 
L 344.475214 345.731918 
L 344.772237 457.625521 
L 345.06926 457.625521 
L 345.366283 391.1523 
L 345.663306 484.232727 
L 345.960329 348.957034 
L 346.554374 348.957034 
L 346.851397 322.349828 
L 347.14842 457.625521 
L 347.445443 230.881958 
L 347.742466 372.339124 
L 348.039489 389.539742 
L 348.336512 484.232727 
L 348.633535 372.339124 
L 348.930558 484.232727 
L 349.227581 484.232727 
L 350.118649 205.61855 
L 350.415672 385.060414 
L 350.712695 484.232727 
L 351.009718 484.232727 
L 351.306741 302.103267 
L 351.603764 302.103267 
L 351.900787 484.232727 
L 352.19781 443.739606 
L 352.494833 457.625521 
L 352.791856 403.156898 
L 353.088879 304.790863 
L 353.979948 304.790863 
L 354.27697 484.232727 
L 354.573993 330.59179 
L 355.762085 330.59179 
L 356.059108 372.339124 
L 356.356131 372.339124 
L 356.653154 319.303885 
L 356.950177 484.232727 
L 357.2472 304.790863 
L 357.544223 323.33528 
L 357.841246 270.927147 
L 358.138269 323.33528 
L 358.435291 323.33528 
L 358.732314 270.927147 
L 359.029337 303.715825 
L 359.32636 217.802321 
L 359.920406 417.759506 
L 360.217429 417.759506 
L 360.514452 225.775524 
L 360.811475 417.759506 
L 361.108498 417.759506 
L 361.405521 356.392717 
L 361.702544 484.232727 
L 362.296589 363.290882 
L 363.187658 363.290882 
L 363.484681 417.759506 
L 364.078727 417.759506 
L 364.37575 484.232727 
L 364.672773 385.68752 
L 364.969796 470.346812 
L 365.266819 484.232727 
L 365.563842 484.232727 
L 365.860865 459.686012 
L 366.157888 459.686012 
L 366.45491 431.824594 
L 366.751933 249.695134 
L 367.048956 484.232727 
L 367.345979 300.311536 
L 367.940025 300.311536 
L 368.237048 431.824594 
L 368.534071 370.457806 
L 368.831094 368.397315 
L 369.128117 368.397315 
L 369.42514 484.232727 
L 369.722163 484.232727 
L 370.019186 385.68752 
L 370.316209 431.197488 
L 370.613231 319.303885 
L 370.910254 304.970036 
L 371.207277 304.970036 
L 371.5043 169.694343 
L 371.801323 169.694343 
L 372.098346 243.603248 
L 372.395369 229.717333 
L 372.692392 243.603248 
L 372.989415 300.311536 
L 373.286438 468.465494 
L 373.583461 484.232727 
L 373.880484 484.232727 
L 374.177507 429.764104 
L 374.474529 484.232727 
L 374.771552 468.465494 
L 375.068575 414.355217 
L 375.365598 414.355217 
L 375.662621 379.595634 
L 375.959644 318.228846 
L 376.256667 318.228846 
L 376.55369 232.315343 
L 376.850713 325.39577 
L 377.147736 325.39577 
L 377.444759 310.34523 
L 377.741782 385.68752 
L 378.038805 348.957034 
L 378.335828 348.957034 
L 378.63285 188.059586 
L 378.929873 323.33528 
L 379.226896 141.205819 
L 379.523919 302.103267 
L 379.820942 302.103267 
L 380.117965 235.630045 
L 380.414988 484.232727 
L 380.712011 379.595634 
L 381.009034 484.232727 
L 381.306057 470.346812 
L 381.60308 417.938679 
L 381.900103 470.346812 
L 382.197126 291.084121 
L 382.791171 291.084121 
L 383.088194 484.232727 
L 383.385217 484.232727 
L 383.68224 323.33528 
L 383.979263 484.232727 
L 384.276286 422.865939 
L 384.573309 484.232727 
L 385.167355 458.790146 
L 385.464378 468.465494 
L 385.761401 414.355217 
L 386.058424 484.232727 
L 386.355447 484.232727 
L 386.652469 379.595634 
L 386.949492 197.466174 
L 387.840561 484.232727 
L 388.137584 303.715825 
L 388.434607 429.764104 
L 388.73163 429.764104 
L 389.028653 300.311536 
L 389.325676 484.232727 
L 389.622699 304.970036 
L 390.216745 304.970036 
L 390.513768 251.934798 
L 390.81079 484.232727 
L 391.107813 422.865939 
L 391.404836 422.865939 
L 391.701859 242.349037 
L 391.998882 303.715825 
L 392.295905 303.715825 
L 392.592928 484.232727 
L 392.889951 422.865939 
L 393.186974 398.319224 
L 393.483997 303.715825 
L 393.78102 303.715825 
L 394.078043 484.232727 
L 394.375066 417.759506 
L 394.969111 417.759506 
L 395.266134 282.483812 
L 395.563157 282.483812 
L 395.86018 372.339124 
L 396.454226 372.339124 
L 396.751249 237.06343 
L 397.345295 484.232727 
L 397.642318 431.197488 
L 397.939341 431.197488 
L 398.236364 300.311536 
L 399.424455 300.311536 
L 399.721478 484.232727 
L 400.018501 429.764104 
L 400.315524 484.232727 
L 400.612547 484.232727 
L 400.90957 300.311536 
L 401.206593 300.311536 
L 401.800639 484.232727 
L 402.097662 484.232727 
L 402.394685 417.759506 
L 402.691708 303.715825 
L 402.98873 304.970036 
L 403.285753 379.595634 
L 403.879799 379.595634 
L 404.176822 280.423321 
L 404.473845 280.423321 
L 404.770868 327.187501 
L 405.067891 304.970036 
L 405.364914 251.934798 
L 405.95896 251.934798 
L 406.553006 484.232727 
L 406.850029 379.595634 
L 407.147051 484.232727 
L 407.444074 389.539742 
L 407.741097 254.264048 
L 408.335143 484.232727 
L 408.632166 470.346812 
L 408.929189 484.232727 
L 409.523235 378.789355 
L 409.820258 378.789355 
L 410.117281 345.911091 
L 410.414304 484.232727 
L 410.711327 304.790863 
L 411.008349 323.33528 
L 411.602395 323.33528 
L 411.899418 270.300041 
L 412.196441 270.300041 
L 412.493464 376.728865 
L 412.790487 376.728865 
L 413.08751 415.878188 
L 413.384533 389.270982 
L 413.681556 403.156898 
L 413.978579 457.625521 
L 414.275602 352.988428 
L 414.572625 352.988428 
L 414.869648 300.311536 
L 415.463693 300.311536 
L 416.057739 484.232727 
L 416.354762 484.232727 
L 416.651785 472.676062 
L 417.245831 472.676062 
L 417.542854 484.232727 
L 417.839877 385.060414 
L 418.1369 224.162966 
L 418.433923 224.162966 
L 418.730946 385.060414 
L 419.027969 484.232727 
L 419.324991 372.339124 
L 419.919037 372.339124 
L 420.21606 345.731918 
L 420.513083 372.339124 
L 420.810106 385.68752 
L 421.107129 372.339124 
L 421.404152 417.759506 
L 421.701175 403.87359 
L 421.998198 403.87359 
L 422.295221 365.351373 
L 422.592244 484.232727 
L 423.186289 304.970036 
L 423.483312 304.970036 
L 423.780335 431.824594 
L 424.077358 484.232727 
L 424.374381 372.339124 
L 424.671404 372.339124 
L 424.968427 345.731918 
L 425.26545 372.339124 
L 425.562473 468.465494 
L 425.859496 484.232727 
L 426.156519 304.970036 
L 426.750565 304.970036 
L 427.047588 484.232727 
L 427.34461 372.339124 
L 427.641633 372.339124 
L 427.938656 310.972335 
L 428.235679 310.972335 
L 428.532702 230.881958 
L 428.829725 230.881958 
L 429.126748 484.232727 
L 429.720794 249.78472 
L 430.017817 385.060414 
L 430.31484 205.797723 
L 430.908886 429.764104 
L 431.205909 403.156898 
L 431.502931 350.121659 
L 431.799954 468.465494 
L 432.096977 484.232727 
L 432.394 372.339124 
L 432.691023 310.972335 
L 432.988046 310.972335 
L 433.285069 472.676062 
L 433.879115 166.827573 
L 434.176138 166.827573 
L 434.473161 484.232727 
L 434.770184 484.232727 
L 435.364229 356.392717 
L 435.661252 329.785511 
L 435.958275 422.865939 
L 436.552321 422.865939 
L 436.849344 398.319224 
L 437.146367 431.197488 
L 437.44339 431.197488 
L 437.740413 336.504503 
L 438.037436 431.197488 
L 438.334459 250.680586 
L 438.631482 250.680586 
L 438.928505 303.715825 
L 439.225528 277.108619 
L 439.52255 358.184448 
L 439.819573 396.258733 
L 440.116596 297.08642 
L 440.413619 323.693626 
L 440.710642 484.232727 
L 441.007665 484.232727 
L 441.304688 379.595634 
L 441.898734 379.595634 
L 442.195757 313.122413 
L 442.49278 365.709719 
L 442.789803 288.217351 
L 443.086826 484.232727 
L 443.383849 457.625521 
L 443.680871 304.790863 
L 444.274917 304.790863 
L 444.57194 431.197488 
L 444.868963 249.068028 
L 445.165986 288.217351 
L 445.463009 302.103267 
L 445.760032 275.496061 
L 446.057055 275.496061 
L 446.354078 302.103267 
L 446.651101 240.736479 
L 446.948124 328.172953 
L 447.245147 468.465494 
L 447.542169 472.676062 
L 448.136215 472.676062 
L 448.730261 313.122413 
L 449.027284 280.423321 
L 449.324307 379.595634 
L 449.62133 414.355217 
L 449.918353 385.68752 
L 450.215376 398.319224 
L 450.512399 286.42562 
L 450.809422 484.232727 
L 451.106445 414.355217 
L 451.403468 275.496061 
L 451.70049 446.068856 
L 451.997513 446.068856 
L 452.294536 432.18294 
L 452.591559 391.1523 
L 452.888582 385.68752 
L 454.076674 385.68752 
L 454.373697 472.676062 
L 454.67072 472.676062 
L 454.967743 484.232727 
L 455.264766 385.68752 
L 455.561789 385.68752 
L 455.858811 414.355217 
L 456.155834 484.232727 
L 456.74988 484.232727 
L 457.046903 292.248746 
L 457.343926 225.775524 
L 457.640949 292.248746 
L 457.937972 292.248746 
L 458.234995 304.790863 
L 458.532018 348.957034 
L 458.829041 300.311536 
L 459.126064 484.232727 
L 459.423087 484.232727 
L 459.72011 459.686012 
L 460.017132 360.513699 
L 460.314155 385.060414 
L 460.611178 358.453208 
L 460.908201 457.625521 
L 461.205224 446.068856 
L 461.502247 302.103267 
L 461.79927 484.232727 
L 462.096293 379.595634 
L 462.393316 379.595634 
L 462.690339 484.232727 
L 462.987362 398.319224 
L 463.284385 219.056533 
L 463.581408 217.802321 
L 463.87843 217.802321 
L 464.175453 216.189763 
L 464.472476 304.790863 
L 465.660568 304.790863 
L 465.957591 484.232727 
L 466.254614 348.957034 
L 466.551637 348.957034 
L 466.84866 282.483812 
L 467.442706 282.483812 
L 467.739729 254.264048 
L 468.333774 254.264048 
L 468.630797 188.059586 
L 468.92782 323.33528 
L 469.224843 389.539742 
L 469.521866 389.539742 
L 469.818889 323.33528 
L 470.412935 323.33528 
L 470.709958 484.232727 
L 471.006981 300.311536 
L 471.304004 484.232727 
L 471.89805 484.232727 
L 472.195072 304.790863 
L 472.492095 484.232727 
L 472.789118 484.232727 
L 473.086141 398.319224 
L 473.383164 484.232727 
L 473.97721 377.355971 
L 474.571256 377.355971 
L 474.868279 325.127011 
L 475.165302 326.560396 
L 475.462325 319.303885 
L 475.759348 319.303885 
L 476.05637 345.731918 
L 476.353393 246.559604 
L 476.650416 273.16681 
L 476.947439 385.060414 
L 477.244462 300.311536 
L 477.541485 385.060414 
L 477.838508 385.060414 
L 478.135531 193.076433 
L 478.432554 484.232727 
L 478.729577 292.248746 
L 479.0266 484.232727 
L 479.323623 300.311536 
L 479.620646 384.791654 
L 479.917669 384.791654 
L 480.214691 348.957034 
L 480.511714 484.232727 
L 480.808737 484.232727 
L 481.402783 328.441713 
L 482.887898 328.441713 
L 483.184921 398.319224 
L 483.481944 398.319224 
L 483.778967 237.421776 
L 484.07599 484.232727 
L 484.670035 244.319941 
L 484.967058 244.319941 
L 485.264081 335.071118 
L 485.561104 249.157614 
L 485.858127 249.157614 
L 486.15515 210.008291 
L 486.452173 345.283985 
L 486.749196 373.772508 
L 487.046219 384.791654 
L 487.343242 484.232727 
L 487.640265 304.970036 
L 487.937288 304.970036 
L 488.23431 468.465494 
L 489.125379 468.465494 
L 489.422402 414.355217 
L 490.610494 414.355217 
L 490.907517 372.339124 
L 491.20454 304.790863 
L 492.392631 304.790863 
L 492.986677 484.232727 
L 493.2837 304.790863 
L 493.580723 243.424075 
L 493.877746 300.311536 
L 494.174769 385.68752 
L 494.768815 484.232727 
L 495.065838 348.957034 
L 495.659884 348.957034 
L 495.956907 384.791654 
L 496.25393 484.232727 
L 496.550952 468.465494 
L 496.847975 468.465494 
L 497.144998 484.232727 
L 497.442021 429.764104 
L 497.739044 429.764104 
L 498.036067 303.715825 
L 498.33309 304.790863 
L 498.630113 372.339124 
L 498.927136 472.676062 
L 499.224159 304.790863 
L 500.709273 304.790863 
L 501.006296 303.715825 
L 501.303319 289.829909 
L 501.600342 289.829909 
L 501.897365 300.311536 
L 502.194388 302.103267 
L 502.491411 459.686012 
L 502.788434 484.232727 
L 503.085457 303.715825 
L 503.679503 303.715825 
L 503.976526 484.232727 
L 504.273549 484.232727 
L 504.570571 459.686012 
L 504.867594 484.232727 
L 505.164617 484.232727 
L 505.758663 352.988428 
L 506.649732 352.988428 
L 506.946755 339.102513 
L 507.243778 370.905739 
L 507.540801 458.790146 
L 507.837824 458.790146 
L 508.134847 470.346812 
L 508.43187 417.311573 
L 508.728892 239.213507 
L 509.025915 295.921795 
L 509.322938 169.694343 
L 509.619961 169.694343 
L 509.916984 237.06343 
L 510.214007 156.973052 
L 510.808053 156.973052 
L 511.105076 225.775524 
L 511.402099 225.775524 
L 511.699122 292.248746 
L 512.293168 292.248746 
L 512.59019 372.339124 
L 512.887213 372.339124 
L 513.184236 273.16681 
L 513.481259 300.311536 
L 517.045534 300.311536 
L 517.342557 468.465494 
L 517.63958 385.68752 
L 518.530649 385.68752 
L 518.827672 459.686012 
L 519.124695 348.957034 
L 519.421718 335.071118 
L 519.718741 348.957034 
L 520.015764 263.04353 
L 520.60981 263.04353 
L 520.906832 237.421776 
L 521.203855 323.33528 
L 521.797901 216.996042 
L 522.094924 216.996042 
L 522.391947 457.625521 
L 522.68897 352.988428 
L 522.985993 379.595634 
L 523.283016 379.595634 
L 523.580039 327.187501 
L 523.877062 370.457806 
L 524.76813 370.457806 
L 525.065153 243.424075 
L 525.362176 336.952436 
L 525.659199 270.479214 
L 525.956222 270.479214 
L 526.550268 484.232727 
L 526.847291 431.197488 
L 527.144314 431.197488 
L 527.441337 270.300041 
L 528.035383 270.300041 
L 528.332406 431.197488 
L 528.629429 270.300041 
L 528.926451 378.789355 
L 529.223474 249.695134 
L 529.520497 249.068028 
L 529.81752 187.70124 
L 530.114543 208.933253 
L 530.411566 370.457806 
L 530.708589 271.285493 
L 531.005612 271.285493 
L 531.302635 323.693626 
L 531.599658 219.056533 
L 531.896681 323.693626 
L 532.193704 237.780122 
L 532.490727 237.780122 
L 533.084772 360.513699 
L 533.381795 280.423321 
L 533.678818 266.537406 
L 533.975841 385.68752 
L 534.272864 385.68752 
L 534.569887 484.232727 
L 534.86691 459.686012 
L 535.163933 300.311536 
L 535.460956 417.759506 
L 535.757979 365.351373 
L 536.055002 365.351373 
L 536.352025 304.790863 
L 536.649048 304.790863 
L 536.94607 243.424075 
L 537.540116 243.424075 
L 537.837139 230.881958 
L 538.134162 243.603248 
L 538.431185 242.349037 
L 538.728208 302.103267 
L 539.025231 302.103267 
L 539.322254 292.248746 
L 539.619277 372.339124 
L 539.9163 273.16681 
L 540.213323 224.162966 
L 540.510346 224.162966 
L 540.807369 332.652281 
L 541.104391 304.970036 
L 541.401414 243.603248 
L 541.698437 422.865939 
L 541.99546 484.232727 
L 542.292483 431.197488 
L 542.589506 484.232727 
L 542.886529 300.311536 
L 543.183552 348.957034 
L 543.480575 348.957034 
L 543.777598 188.059586 
L 544.371644 484.232727 
L 544.668667 385.060414 
L 544.96569 193.076433 
L 545.262712 292.248746 
L 545.559735 292.248746 
L 545.856758 300.311536 
L 546.153781 300.311536 
L 546.450804 429.764104 
L 546.747827 484.232727 
L 547.341873 166.827573 
L 547.935919 484.232727 
L 548.232942 292.248746 
L 548.529965 296.548901 
L 548.826988 166.827573 
L 549.12401 166.827573 
L 549.421033 337.400368 
L 549.718056 300.311536 
L 550.609125 300.311536 
L 550.906148 389.539742 
L 551.203171 389.539742 
L 551.500194 304.790863 
L 551.797217 304.790863 
L 552.09424 431.197488 
L 552.391263 484.232727 
L 552.985309 244.319941 
L 555.064469 244.319941 
L 555.361492 348.957034 
L 555.658515 348.957034 
L 555.955538 296.548901 
L 557.440652 296.548901 
L 557.737675 269.941695 
L 558.331721 269.941695 
L 558.628744 296.548901 
L 558.925767 296.548901 
L 559.22279 377.355971 
L 560.113859 377.355971 
L 560.410882 431.824594 
L 560.707905 431.824594 
L 561.004928 417.938679 
L 561.30195 415.878188 
L 561.598973 484.232727 
L 561.895996 484.232727 
L 562.490042 328.441713 
L 562.787065 414.355217 
L 563.084088 414.355217 
L 563.381111 302.103267 
L 563.678134 302.103267 
L 563.975157 141.205819 
L 564.27218 141.205819 
L 564.569203 270.927147 
L 564.866226 270.927147 
L 565.163249 323.33528 
L 565.460271 323.33528 
L 565.757294 261.968491 
L 567.242409 261.968491 
L 567.836455 372.339124 
L 568.133478 372.339124 
L 568.430501 431.824594 
L 568.727524 417.938679 
L 569.024547 288.217351 
L 569.32157 288.217351 
L 569.618592 470.346812 
L 570.212638 470.346812 
L 570.509661 304.790863 
L 570.806684 457.625521 
L 571.103707 405.217388 
L 571.40073 484.232727 
L 571.697753 389.539742 
L 572.291799 389.539742 
L 572.588822 362.932536 
L 572.885845 405.217388 
L 573.182868 300.311536 
L 573.47989 304.790863 
L 575.262028 304.790863 
L 575.559051 169.694343 
L 576.747143 169.694343 
L 577.044166 304.970036 
L 577.341189 278.36283 
L 577.638211 278.36283 
L 577.935234 362.932536 
L 578.232257 303.715825 
L 578.52928 303.715825 
L 578.826303 484.232727 
L 579.123326 417.759506 
L 579.420349 385.68752 
L 581.202487 385.68752 
L 581.49951 385.060414 
L 581.796532 202.930954 
L 582.390578 202.930954 
L 582.687601 193.076433 
L 583.57867 193.076433 
L 583.875693 131.709645 
L 584.172716 193.076433 
L 584.469739 202.930954 
L 585.657831 202.930954 
L 585.954853 141.205819 
L 591.895312 141.205819 
L 592.192335 323.33528 
L 592.489358 141.205819 
L 592.786381 296.728074 
L 593.083404 296.728074 
L 593.380427 323.33528 
L 593.67745 323.33528 
L 593.974472 309.449364 
L 594.271495 210.277051 
L 594.865541 210.277051 
L 595.162564 189.045038 
L 595.459587 179.190517 
L 600.508977 179.190517 
L 600.806 193.076433 
L 601.697069 193.076433 
L 601.994091 280.423321 
L 602.291114 218.698187 
L 603.479206 218.698187 
L 603.776229 224.162966 
L 604.073252 224.162966 
L 604.370275 88.887273 
L 607.637527 88.887273 
L 607.93455 126.692798 
L 608.231573 141.205819 
L 612.092871 141.205819 
L 612.389894 224.162966 
L 612.686917 197.55576 
L 613.875009 197.55576 
L 614.172031 272.539705 
L 614.469054 204.543512 
L 615.0631 204.543512 
L 615.360123 177.936306 
L 622.785696 177.936306 
L 623.082719 166.469227 
L 626.349971 166.469227 
L 626.646994 193.076433 
L 628.429132 193.076433 
L 628.726155 224.162966 
L 629.914247 224.162966 
L 630.508292 191.911808 
L 631.399361 191.911808 
L 631.696384 235.898805 
L 632.587453 235.898805 
L 632.884476 292.248746 
L 633.181499 239.213507 
L 638.230889 239.213507 
L 638.527911 177.846719 
L 638.824934 177.846719 
L 639.121957 156.973052 
L 639.41898 156.973052 
L 639.716003 95.606264 
L 660.210585 95.606264 
L 660.507608 105.460785 
L 665.259975 105.460785 
L 665.556998 95.606264 
L 871.690909 95.606264 
L 871.690909 95.606264 
" style="fill:none;stroke:#8dd3c7;stroke-linecap:square;stroke-width:1.5;"/>
   </g>
   <g id="line2d_13">
    <path clip-path="url(#p2e0d0c57a5)" d="M 161.509091 292.248746 
L 165.370389 292.248746 
L 165.667412 217.802321 
L 169.52871 217.802321 
L 169.825733 188.059586 
L 176.063214 188.059586 
L 176.360237 161.45238 
L 296.060477 161.45238 
L 296.3575 88.887273 
L 871.690909 88.887273 
L 871.690909 88.887273 
" style="fill:none;stroke:#feffb3;stroke-linecap:square;stroke-width:1.5;"/>
   </g>
   <g id="line2d_14">
    <path clip-path="url(#p2e0d0c57a5)" d="M 161.509091 292.248746 
L 163.588251 292.248746 
L 163.885274 304.197135 
L 165.964435 304.197135 
L 166.261458 315.4019 
L 168.340618 315.4019 
L 168.637641 325.909321 
L 170.716802 325.909321 
L 171.013825 335.762798 
L 173.092985 335.762798 
L 173.390008 345.00303 
L 175.469168 345.00303 
L 175.766191 353.668183 
L 177.845352 353.668183 
L 178.142375 361.794049 
L 180.221535 361.794049 
L 180.518558 369.41419 
L 182.597719 369.41419 
L 182.894742 376.560081 
L 184.973902 376.560081 
L 185.270925 383.261237 
L 187.350086 383.261237 
L 187.647108 389.545338 
L 189.726269 389.545338 
L 190.023292 395.438339 
L 192.102452 395.438339 
L 192.399475 400.964581 
L 194.478636 400.964581 
L 194.775659 406.146889 
L 196.854819 406.146889 
L 197.151842 411.00667 
L 199.231003 411.00667 
L 199.528026 415.563995 
L 201.607186 415.563995 
L 201.904209 419.837689 
L 203.983369 419.837689 
L 204.280392 423.845403 
L 206.359553 423.845403 
L 206.656576 427.603692 
L 208.735736 427.603692 
L 209.032759 431.128079 
L 211.11192 431.128079 
L 211.408943 434.43312 
L 213.488103 434.43312 
L 213.785126 437.532468 
L 215.864287 437.532468 
L 216.161309 440.438923 
L 218.24047 440.438923 
L 218.537493 443.164491 
L 220.616653 443.164491 
L 220.913676 445.72043 
L 222.992837 445.72043 
L 223.28986 448.117296 
L 225.36902 448.117296 
L 225.666043 450.36499 
L 227.745204 450.36499 
L 228.042227 452.472796 
L 230.121387 452.472796 
L 230.41841 454.449419 
L 232.49757 454.449419 
L 232.794593 456.303025 
L 234.873754 456.303025 
L 235.170777 458.041269 
L 237.249937 458.041269 
L 237.54696 459.67133 
L 239.626121 459.67133 
L 239.923144 461.199943 
L 242.002304 461.199943 
L 242.299327 462.63342 
L 244.378488 462.63342 
L 244.67551 463.977683 
L 246.754671 463.977683 
L 247.051694 465.238284 
L 249.130854 465.238284 
L 249.427877 466.420429 
L 251.507038 466.420429 
L 251.804061 467.529002 
L 253.883221 467.529002 
L 254.180244 468.568582 
L 256.259405 468.568582 
L 256.556428 469.543462 
L 258.635588 469.543462 
L 258.932611 470.457669 
L 261.011771 470.457669 
L 261.308794 471.314978 
L 263.387955 471.314978 
L 263.684978 472.118932 
L 265.764138 472.118932 
L 266.061161 472.872851 
L 268.140322 472.872851 
L 268.437345 473.579849 
L 270.516505 473.579849 
L 270.813528 474.242846 
L 272.892688 474.242846 
L 273.189711 474.86458 
L 275.268872 474.86458 
L 275.565895 475.447619 
L 277.645055 475.447619 
L 277.942078 475.994373 
L 280.021239 475.994373 
L 280.318262 476.507098 
L 282.397422 476.507098 
L 282.694445 476.987913 
L 284.773606 476.987913 
L 285.070628 477.438804 
L 287.149789 477.438804 
L 287.446812 477.861634 
L 289.525972 477.861634 
L 289.822995 478.258148 
L 291.902156 478.258148 
L 292.199179 478.629984 
L 294.278339 478.629984 
L 294.575362 478.978678 
L 296.654523 478.978678 
L 296.951546 479.305671 
L 299.030706 479.305671 
L 299.327729 479.612313 
L 301.406889 479.612313 
L 301.703912 479.899871 
L 303.783073 479.899871 
L 304.080096 480.169533 
L 306.159256 480.169533 
L 306.456279 480.422411 
L 308.53544 480.422411 
L 308.832463 480.659551 
L 310.911623 480.659551 
L 311.208646 480.881933 
L 313.287807 480.881933 
L 313.584829 481.090474 
L 315.66399 481.090474 
L 315.961013 481.286037 
L 318.040173 481.286037 
L 318.337196 481.469428 
L 320.416357 481.469428 
L 320.71338 481.641406 
L 322.79254 481.641406 
L 323.089563 481.80268 
L 325.168724 481.80268 
L 325.465747 481.953918 
L 327.544907 481.953918 
L 327.84193 482.095743 
L 329.92109 482.095743 
L 330.218113 482.228741 
L 332.297274 482.228741 
L 332.594297 482.353462 
L 334.673457 482.353462 
L 335.267503 482.47042 
L 339.425824 482.5801 
L 340.01987 482.682954 
L 344.178191 482.779406 
L 344.772237 482.869855 
L 348.930558 482.954676 
L 349.524604 483.034217 
L 353.682925 483.108808 
L 354.27697 483.178757 
L 358.435291 483.244352 
L 359.029337 483.305865 
L 363.187658 483.363549 
L 364.078727 483.417644 
L 370.316209 483.515942 
L 371.207277 483.560553 
L 377.444759 483.641616 
L 378.63285 483.678405 
L 386.949492 483.775594 
L 388.137584 483.804045 
L 398.830409 483.901208 
L 400.612547 483.92184 
L 415.463693 484.021299 
L 418.433923 484.046797 
L 453.482628 484.157104 
L 461.502247 484.174244 
L 871.690909 484.232726 
L 871.690909 484.232726 
" style="fill:none;stroke:#bfbbd9;stroke-linecap:square;stroke-width:1.5;"/>
   </g>
   <g id="patch_3">
    <path d="M 126 504 
L 126 69.12 
" style="fill:none;stroke:#ffffff;stroke-linecap:square;stroke-linejoin:miter;stroke-width:0.8;"/>
   </g>
   <g id="patch_4">
    <path d="M 907.2 504 
L 907.2 69.12 
" style="fill:none;stroke:#ffffff;stroke-linecap:square;stroke-linejoin:miter;stroke-width:0.8;"/>
   </g>
   <g id="patch_5">
    <path d="M 126 504 
L 907.2 504 
" style="fill:none;stroke:#ffffff;stroke-linecap:square;stroke-linejoin:miter;stroke-width:0.8;"/>
   </g>
   <g id="patch_6">
    <path d="M 126 69.12 
L 907.2 69.12 
" style="fill:none;stroke:#ffffff;stroke-linecap:square;stroke-linejoin:miter;stroke-width:0.8;"/>
   </g>
   <g id="text_13">
    <!-- instance 6 with error 0.05096774193548392 -->
    <g style="fill:#ffffff;" transform="translate(381.864375 63.12)scale(0.12 -0.12)">
     <defs>
      <path d="M 2834 3397 
L 2834 2853 
Q 2591 2978 2328 3040 
Q 2066 3103 1784 3103 
Q 1356 3103 1142 2972 
Q 928 2841 928 2578 
Q 928 2378 1081 2264 
Q 1234 2150 1697 2047 
L 1894 2003 
Q 2506 1872 2764 1633 
Q 3022 1394 3022 966 
Q 3022 478 2636 193 
Q 2250 -91 1575 -91 
Q 1294 -91 989 -36 
Q 684 19 347 128 
L 347 722 
Q 666 556 975 473 
Q 1284 391 1588 391 
Q 1994 391 2212 530 
Q 2431 669 2431 922 
Q 2431 1156 2273 1281 
Q 2116 1406 1581 1522 
L 1381 1569 
Q 847 1681 609 1914 
Q 372 2147 372 2553 
Q 372 3047 722 3315 
Q 1072 3584 1716 3584 
Q 2034 3584 2315 3537 
Q 2597 3491 2834 3397 
z
" id="DejaVuSans-73" transform="scale(0.015625)"/>
      <path d="M 3122 3366 
L 3122 2828 
Q 2878 2963 2633 3030 
Q 2388 3097 2138 3097 
Q 1578 3097 1268 2742 
Q 959 2388 959 1747 
Q 959 1106 1268 751 
Q 1578 397 2138 397 
Q 2388 397 2633 464 
Q 2878 531 3122 666 
L 3122 134 
Q 2881 22 2623 -34 
Q 2366 -91 2075 -91 
Q 1284 -91 818 406 
Q 353 903 353 1747 
Q 353 2603 823 3093 
Q 1294 3584 2113 3584 
Q 2378 3584 2631 3529 
Q 2884 3475 3122 3366 
z
" id="DejaVuSans-63" transform="scale(0.015625)"/>
      <path id="DejaVuSans-20" transform="scale(0.015625)"/>
      <path d="M 2113 2584 
Q 1688 2584 1439 2293 
Q 1191 2003 1191 1497 
Q 1191 994 1439 701 
Q 1688 409 2113 409 
Q 2538 409 2786 701 
Q 3034 994 3034 1497 
Q 3034 2003 2786 2293 
Q 2538 2584 2113 2584 
z
M 3366 4563 
L 3366 3988 
Q 3128 4100 2886 4159 
Q 2644 4219 2406 4219 
Q 1781 4219 1451 3797 
Q 1122 3375 1075 2522 
Q 1259 2794 1537 2939 
Q 1816 3084 2150 3084 
Q 2853 3084 3261 2657 
Q 3669 2231 3669 1497 
Q 3669 778 3244 343 
Q 2819 -91 2113 -91 
Q 1303 -91 875 529 
Q 447 1150 447 2328 
Q 447 3434 972 4092 
Q 1497 4750 2381 4750 
Q 2619 4750 2861 4703 
Q 3103 4656 3366 4563 
z
" id="DejaVuSans-36" transform="scale(0.015625)"/>
      <path d="M 269 3500 
L 844 3500 
L 1563 769 
L 2278 3500 
L 2956 3500 
L 3675 769 
L 4391 3500 
L 4966 3500 
L 4050 0 
L 3372 0 
L 2619 2869 
L 1863 0 
L 1184 0 
L 269 3500 
z
" id="DejaVuSans-77" transform="scale(0.015625)"/>
      <path d="M 3513 2113 
L 3513 0 
L 2938 0 
L 2938 2094 
Q 2938 2591 2744 2837 
Q 2550 3084 2163 3084 
Q 1697 3084 1428 2787 
Q 1159 2491 1159 1978 
L 1159 0 
L 581 0 
L 581 4863 
L 1159 4863 
L 1159 2956 
Q 1366 3272 1645 3428 
Q 1925 3584 2291 3584 
Q 2894 3584 3203 3211 
Q 3513 2838 3513 2113 
z
" id="DejaVuSans-68" transform="scale(0.015625)"/>
      <path d="M 684 794 
L 1344 794 
L 1344 0 
L 684 0 
L 684 794 
z
" id="DejaVuSans-2e" transform="scale(0.015625)"/>
      <path d="M 703 97 
L 703 672 
Q 941 559 1184 500 
Q 1428 441 1663 441 
Q 2288 441 2617 861 
Q 2947 1281 2994 2138 
Q 2813 1869 2534 1725 
Q 2256 1581 1919 1581 
Q 1219 1581 811 2004 
Q 403 2428 403 3163 
Q 403 3881 828 4315 
Q 1253 4750 1959 4750 
Q 2769 4750 3195 4129 
Q 3622 3509 3622 2328 
Q 3622 1225 3098 567 
Q 2575 -91 1691 -91 
Q 1453 -91 1209 -44 
Q 966 3 703 97 
z
M 1959 2075 
Q 2384 2075 2632 2365 
Q 2881 2656 2881 3163 
Q 2881 3666 2632 3958 
Q 2384 4250 1959 4250 
Q 1534 4250 1286 3958 
Q 1038 3666 1038 3163 
Q 1038 2656 1286 2365 
Q 1534 2075 1959 2075 
z
" id="DejaVuSans-39" transform="scale(0.015625)"/>
      <path d="M 525 4666 
L 3525 4666 
L 3525 4397 
L 1831 0 
L 1172 0 
L 2766 4134 
L 525 4134 
L 525 4666 
z
" id="DejaVuSans-37" transform="scale(0.015625)"/>
      <path d="M 2034 2216 
Q 1584 2216 1326 1975 
Q 1069 1734 1069 1313 
Q 1069 891 1326 650 
Q 1584 409 2034 409 
Q 2484 409 2743 651 
Q 3003 894 3003 1313 
Q 3003 1734 2745 1975 
Q 2488 2216 2034 2216 
z
M 1403 2484 
Q 997 2584 770 2862 
Q 544 3141 544 3541 
Q 544 4100 942 4425 
Q 1341 4750 2034 4750 
Q 2731 4750 3128 4425 
Q 3525 4100 3525 3541 
Q 3525 3141 3298 2862 
Q 3072 2584 2669 2484 
Q 3125 2378 3379 2068 
Q 3634 1759 3634 1313 
Q 3634 634 3220 271 
Q 2806 -91 2034 -91 
Q 1263 -91 848 271 
Q 434 634 434 1313 
Q 434 1759 690 2068 
Q 947 2378 1403 2484 
z
M 1172 3481 
Q 1172 3119 1398 2916 
Q 1625 2713 2034 2713 
Q 2441 2713 2670 2916 
Q 2900 3119 2900 3481 
Q 2900 3844 2670 4047 
Q 2441 4250 2034 4250 
Q 1625 4250 1398 4047 
Q 1172 3844 1172 3481 
z
" id="DejaVuSans-38" transform="scale(0.015625)"/>
     </defs>
     <use xlink:href="#DejaVuSans-69"/>
     <use x="27.783203" xlink:href="#DejaVuSans-6e"/>
     <use x="91.162109" xlink:href="#DejaVuSans-73"/>
     <use x="143.261719" xlink:href="#DejaVuSans-74"/>
     <use x="182.470703" xlink:href="#DejaVuSans-61"/>
     <use x="243.75" xlink:href="#DejaVuSans-6e"/>
     <use x="307.128906" xlink:href="#DejaVuSans-63"/>
     <use x="362.109375" xlink:href="#DejaVuSans-65"/>
     <use x="423.632812" xlink:href="#DejaVuSans-20"/>
     <use x="455.419922" xlink:href="#DejaVuSans-36"/>
     <use x="519.042969" xlink:href="#DejaVuSans-20"/>
     <use x="550.830078" xlink:href="#DejaVuSans-77"/>
     <use x="632.617188" xlink:href="#DejaVuSans-69"/>
     <use x="660.400391" xlink:href="#DejaVuSans-74"/>
     <use x="699.609375" xlink:href="#DejaVuSans-68"/>
     <use x="762.988281" xlink:href="#DejaVuSans-20"/>
     <use x="794.775391" xlink:href="#DejaVuSans-65"/>
     <use x="856.298828" xlink:href="#DejaVuSans-72"/>
     <use x="895.662109" xlink:href="#DejaVuSans-72"/>
     <use x="934.525391" xlink:href="#DejaVuSans-6f"/>
     <use x="995.707031" xlink:href="#DejaVuSans-72"/>
     <use x="1036.820312" xlink:href="#DejaVuSans-20"/>
     <use x="1068.607422" xlink:href="#DejaVuSans-30"/>
     <use x="1132.230469" xlink:href="#DejaVuSans-2e"/>
     <use x="1164.017578" xlink:href="#DejaVuSans-30"/>
     <use x="1227.640625" xlink:href="#DejaVuSans-35"/>
     <use x="1291.263672" xlink:href="#DejaVuSans-30"/>
     <use x="1354.886719" xlink:href="#DejaVuSans-39"/>
     <use x="1418.509766" xlink:href="#DejaVuSans-36"/>
     <use x="1482.132812" xlink:href="#DejaVuSans-37"/>
     <use x="1545.755859" xlink:href="#DejaVuSans-37"/>
     <use x="1609.378906" xlink:href="#DejaVuSans-34"/>
     <use x="1673.001953" xlink:href="#DejaVuSans-31"/>
     <use x="1736.625" xlink:href="#DejaVuSans-39"/>
     <use x="1800.248047" xlink:href="#DejaVuSans-33"/>
     <use x="1863.871094" xlink:href="#DejaVuSans-35"/>
     <use x="1927.494141" xlink:href="#DejaVuSans-34"/>
     <use x="1991.117188" xlink:href="#DejaVuSans-38"/>
     <use x="2054.740234" xlink:href="#DejaVuSans-33"/>
     <use x="2118.363281" xlink:href="#DejaVuSans-39"/>
     <use x="2181.986328" xlink:href="#DejaVuSans-32"/>
    </g>
   </g>
   <g id="legend_1">
    <g id="patch_7">
     <path d="M 805.348438 499 
L 900.2 499 
Q 902.2 499 902.2 497 
L 902.2 453.965625 
Q 902.2 451.965625 900.2 451.965625 
L 805.348438 451.965625 
Q 803.348438 451.965625 803.348438 453.965625 
L 803.348438 497 
Q 803.348438 499 805.348438 499 
z
" style="opacity:0.8;stroke:#cccccc;stroke-linejoin:miter;"/>
    </g>
    <g id="line2d_15">
     <path d="M 807.348438 460.064062 
L 827.348438 460.064062 
" style="fill:none;stroke:#8dd3c7;stroke-linecap:square;stroke-width:1.5;"/>
    </g>
    <g id="line2d_16"/>
    <g id="text_14">
     <!-- cost -->
     <g style="fill:#ffffff;" transform="translate(835.348438 463.564062)scale(0.1 -0.1)">
      <use xlink:href="#DejaVuSans-63"/>
      <use x="54.980469" xlink:href="#DejaVuSans-6f"/>
      <use x="116.162109" xlink:href="#DejaVuSans-73"/>
      <use x="168.261719" xlink:href="#DejaVuSans-74"/>
     </g>
    </g>
    <g id="line2d_17">
     <path d="M 807.348438 474.742188 
L 827.348438 474.742188 
" style="fill:none;stroke:#feffb3;stroke-linecap:square;stroke-width:1.5;"/>
    </g>
    <g id="line2d_18"/>
    <g id="text_15">
     <!-- best cost -->
     <g style="fill:#ffffff;" transform="translate(835.348438 478.242188)scale(0.1 -0.1)">
      <defs>
       <path d="M 3116 1747 
Q 3116 2381 2855 2742 
Q 2594 3103 2138 3103 
Q 1681 3103 1420 2742 
Q 1159 2381 1159 1747 
Q 1159 1113 1420 752 
Q 1681 391 2138 391 
Q 2594 391 2855 752 
Q 3116 1113 3116 1747 
z
M 1159 2969 
Q 1341 3281 1617 3432 
Q 1894 3584 2278 3584 
Q 2916 3584 3314 3078 
Q 3713 2572 3713 1747 
Q 3713 922 3314 415 
Q 2916 -91 2278 -91 
Q 1894 -91 1617 61 
Q 1341 213 1159 525 
L 1159 0 
L 581 0 
L 581 4863 
L 1159 4863 
L 1159 2969 
z
" id="DejaVuSans-62" transform="scale(0.015625)"/>
      </defs>
      <use xlink:href="#DejaVuSans-62"/>
      <use x="63.476562" xlink:href="#DejaVuSans-65"/>
      <use x="125" xlink:href="#DejaVuSans-73"/>
      <use x="177.099609" xlink:href="#DejaVuSans-74"/>
      <use x="216.308594" xlink:href="#DejaVuSans-20"/>
      <use x="248.095703" xlink:href="#DejaVuSans-63"/>
      <use x="303.076172" xlink:href="#DejaVuSans-6f"/>
      <use x="364.257812" xlink:href="#DejaVuSans-73"/>
      <use x="416.357422" xlink:href="#DejaVuSans-74"/>
     </g>
    </g>
    <g id="line2d_19">
     <path d="M 807.348438 489.420313 
L 827.348438 489.420313 
" style="fill:none;stroke:#bfbbd9;stroke-linecap:square;stroke-width:1.5;"/>
    </g>
    <g id="line2d_20"/>
    <g id="text_16">
     <!-- temperature -->
     <g style="fill:#ffffff;" transform="translate(835.348438 492.920313)scale(0.1 -0.1)">
      <defs>
       <path d="M 3328 2828 
Q 3544 3216 3844 3400 
Q 4144 3584 4550 3584 
Q 5097 3584 5394 3201 
Q 5691 2819 5691 2113 
L 5691 0 
L 5113 0 
L 5113 2094 
Q 5113 2597 4934 2840 
Q 4756 3084 4391 3084 
Q 3944 3084 3684 2787 
Q 3425 2491 3425 1978 
L 3425 0 
L 2847 0 
L 2847 2094 
Q 2847 2600 2669 2842 
Q 2491 3084 2119 3084 
Q 1678 3084 1418 2786 
Q 1159 2488 1159 1978 
L 1159 0 
L 581 0 
L 581 3500 
L 1159 3500 
L 1159 2956 
Q 1356 3278 1631 3431 
Q 1906 3584 2284 3584 
Q 2666 3584 2933 3390 
Q 3200 3197 3328 2828 
z
" id="DejaVuSans-6d" transform="scale(0.015625)"/>
       <path d="M 1159 525 
L 1159 -1331 
L 581 -1331 
L 581 3500 
L 1159 3500 
L 1159 2969 
Q 1341 3281 1617 3432 
Q 1894 3584 2278 3584 
Q 2916 3584 3314 3078 
Q 3713 2572 3713 1747 
Q 3713 922 3314 415 
Q 2916 -91 2278 -91 
Q 1894 -91 1617 61 
Q 1341 213 1159 525 
z
M 3116 1747 
Q 3116 2381 2855 2742 
Q 2594 3103 2138 3103 
Q 1681 3103 1420 2742 
Q 1159 2381 1159 1747 
Q 1159 1113 1420 752 
Q 1681 391 2138 391 
Q 2594 391 2855 752 
Q 3116 1113 3116 1747 
z
" id="DejaVuSans-70" transform="scale(0.015625)"/>
       <path d="M 544 1381 
L 544 3500 
L 1119 3500 
L 1119 1403 
Q 1119 906 1312 657 
Q 1506 409 1894 409 
Q 2359 409 2629 706 
Q 2900 1003 2900 1516 
L 2900 3500 
L 3475 3500 
L 3475 0 
L 2900 0 
L 2900 538 
Q 2691 219 2414 64 
Q 2138 -91 1772 -91 
Q 1169 -91 856 284 
Q 544 659 544 1381 
z
M 1991 3584 
L 1991 3584 
z
" id="DejaVuSans-75" transform="scale(0.015625)"/>
      </defs>
      <use xlink:href="#DejaVuSans-74"/>
      <use x="39.208984" xlink:href="#DejaVuSans-65"/>
      <use x="100.732422" xlink:href="#DejaVuSans-6d"/>
      <use x="198.144531" xlink:href="#DejaVuSans-70"/>
      <use x="261.621094" xlink:href="#DejaVuSans-65"/>
      <use x="323.144531" xlink:href="#DejaVuSans-72"/>
      <use x="364.257812" xlink:href="#DejaVuSans-61"/>
      <use x="425.537109" xlink:href="#DejaVuSans-74"/>
      <use x="464.746094" xlink:href="#DejaVuSans-75"/>
      <use x="528.125" xlink:href="#DejaVuSans-72"/>
      <use x="566.988281" xlink:href="#DejaVuSans-65"/>
     </g>
    </g>
   </g>
  </g>
 </g>
 <defs>
  <clipPath id="p2e0d0c57a5">
   <rect height="434.88" width="781.2" x="126" y="69.12"/>
  </clipPath>
 </defs>
</svg>
