<?xml version="1.0" encoding="utf-8" standalone="no"?>
<!DOCTYPE svg PUBLIC "-//W3C//DTD SVG 1.1//EN"
  "http://www.w3.org/Graphics/SVG/1.1/DTD/svg11.dtd">
<svg height="576pt" version="1.1" viewBox="0 0 1008 576" width="1008pt" xmlns="http://www.w3.org/2000/svg" xmlns:xlink="http://www.w3.org/1999/xlink">
 <metadata>
  <rdf:RDF xmlns:cc="http://creativecommons.org/ns#" xmlns:dc="http://purl.org/dc/elements/1.1/" xmlns:rdf="http://www.w3.org/1999/02/22-rdf-syntax-ns#">
   <cc:Work>
    <dc:type rdf:resource="http://purl.org/dc/dcmitype/StillImage"/>
    <dc:date>2022-01-08T11:43:30.039683</dc:date>
    <dc:format>image/svg+xml</dc:format>
    <dc:creator>
     <cc:Agent>
      <dc:title>Matplotlib v3.4.3, https://matplotlib.org/</dc:title>
     </cc:Agent>
    </dc:creator>
   </cc:Work>
  </rdf:RDF>
 </metadata>
 <defs>
  <style type="text/css">*{stroke-linecap:butt;stroke-linejoin:round;}</style>
 </defs>
 <g id="figure_1">
  <g id="patch_1">
   <path d="M 0 576 
L 1008 576 
L 1008 0 
L 0 0 
z
"/>
  </g>
  <g id="axes_1">
   <g id="patch_2">
    <path d="M 126 504 
L 907.2 504 
L 907.2 69.12 
L 126 69.12 
z
"/>
   </g>
   <g id="matplotlib.axis_1">
    <g id="xtick_1">
     <g id="line2d_1">
      <defs>
       <path d="M 0 0 
L 0 3.5 
" id="mcf260f773c" style="stroke:#ffffff;stroke-width:0.8;"/>
      </defs>
      <g>
       <use style="fill:#ffffff;stroke:#ffffff;stroke-width:0.8;" x="161.509091" xlink:href="#mcf260f773c" y="504"/>
      </g>
     </g>
     <g id="text_1">
      <!-- 0 -->
      <g style="fill:#ffffff;" transform="translate(158.327841 518.598438)scale(0.1 -0.1)">
       <defs>
        <path d="M 2034 4250 
Q 1547 4250 1301 3770 
Q 1056 3291 1056 2328 
Q 1056 1369 1301 889 
Q 1547 409 2034 409 
Q 2525 409 2770 889 
Q 3016 1369 3016 2328 
Q 3016 3291 2770 3770 
Q 2525 4250 2034 4250 
z
M 2034 4750 
Q 2819 4750 3233 4129 
Q 3647 3509 3647 2328 
Q 3647 1150 3233 529 
Q 2819 -91 2034 -91 
Q 1250 -91 836 529 
Q 422 1150 422 2328 
Q 422 3509 836 4129 
Q 1250 4750 2034 4750 
z
" id="DejaVuSans-30" transform="scale(0.015625)"/>
       </defs>
       <use xlink:href="#DejaVuSans-30"/>
      </g>
     </g>
    </g>
    <g id="xtick_2">
     <g id="line2d_2">
      <g>
       <use style="fill:#ffffff;stroke:#ffffff;stroke-width:0.8;" x="331.490378" xlink:href="#mcf260f773c" y="504"/>
      </g>
     </g>
     <g id="text_2">
      <!-- 500 -->
      <g style="fill:#ffffff;" transform="translate(321.946628 518.598438)scale(0.1 -0.1)">
       <defs>
        <path d="M 691 4666 
L 3169 4666 
L 3169 4134 
L 1269 4134 
L 1269 2991 
Q 1406 3038 1543 3061 
Q 1681 3084 1819 3084 
Q 2600 3084 3056 2656 
Q 3513 2228 3513 1497 
Q 3513 744 3044 326 
Q 2575 -91 1722 -91 
Q 1428 -91 1123 -41 
Q 819 9 494 109 
L 494 744 
Q 775 591 1075 516 
Q 1375 441 1709 441 
Q 2250 441 2565 725 
Q 2881 1009 2881 1497 
Q 2881 1984 2565 2268 
Q 2250 2553 1709 2553 
Q 1456 2553 1204 2497 
Q 953 2441 691 2322 
L 691 4666 
z
" id="DejaVuSans-35" transform="scale(0.015625)"/>
       </defs>
       <use xlink:href="#DejaVuSans-35"/>
       <use x="63.623047" xlink:href="#DejaVuSans-30"/>
       <use x="127.246094" xlink:href="#DejaVuSans-30"/>
      </g>
     </g>
    </g>
    <g id="xtick_3">
     <g id="line2d_3">
      <g>
       <use style="fill:#ffffff;stroke:#ffffff;stroke-width:0.8;" x="501.471665" xlink:href="#mcf260f773c" y="504"/>
      </g>
     </g>
     <g id="text_3">
      <!-- 1000 -->
      <g style="fill:#ffffff;" transform="translate(488.746665 518.598438)scale(0.1 -0.1)">
       <defs>
        <path d="M 794 531 
L 1825 531 
L 1825 4091 
L 703 3866 
L 703 4441 
L 1819 4666 
L 2450 4666 
L 2450 531 
L 3481 531 
L 3481 0 
L 794 0 
L 794 531 
z
" id="DejaVuSans-31" transform="scale(0.015625)"/>
       </defs>
       <use xlink:href="#DejaVuSans-31"/>
       <use x="63.623047" xlink:href="#DejaVuSans-30"/>
       <use x="127.246094" xlink:href="#DejaVuSans-30"/>
       <use x="190.869141" xlink:href="#DejaVuSans-30"/>
      </g>
     </g>
    </g>
    <g id="xtick_4">
     <g id="line2d_4">
      <g>
       <use style="fill:#ffffff;stroke:#ffffff;stroke-width:0.8;" x="671.452953" xlink:href="#mcf260f773c" y="504"/>
      </g>
     </g>
     <g id="text_4">
      <!-- 1500 -->
      <g style="fill:#ffffff;" transform="translate(658.727953 518.598438)scale(0.1 -0.1)">
       <use xlink:href="#DejaVuSans-31"/>
       <use x="63.623047" xlink:href="#DejaVuSans-35"/>
       <use x="127.246094" xlink:href="#DejaVuSans-30"/>
       <use x="190.869141" xlink:href="#DejaVuSans-30"/>
      </g>
     </g>
    </g>
    <g id="xtick_5">
     <g id="line2d_5">
      <g>
       <use style="fill:#ffffff;stroke:#ffffff;stroke-width:0.8;" x="841.43424" xlink:href="#mcf260f773c" y="504"/>
      </g>
     </g>
     <g id="text_5">
      <!-- 2000 -->
      <g style="fill:#ffffff;" transform="translate(828.70924 518.598438)scale(0.1 -0.1)">
       <defs>
        <path d="M 1228 531 
L 3431 531 
L 3431 0 
L 469 0 
L 469 531 
Q 828 903 1448 1529 
Q 2069 2156 2228 2338 
Q 2531 2678 2651 2914 
Q 2772 3150 2772 3378 
Q 2772 3750 2511 3984 
Q 2250 4219 1831 4219 
Q 1534 4219 1204 4116 
Q 875 4013 500 3803 
L 500 4441 
Q 881 4594 1212 4672 
Q 1544 4750 1819 4750 
Q 2544 4750 2975 4387 
Q 3406 4025 3406 3419 
Q 3406 3131 3298 2873 
Q 3191 2616 2906 2266 
Q 2828 2175 2409 1742 
Q 1991 1309 1228 531 
z
" id="DejaVuSans-32" transform="scale(0.015625)"/>
       </defs>
       <use xlink:href="#DejaVuSans-32"/>
       <use x="63.623047" xlink:href="#DejaVuSans-30"/>
       <use x="127.246094" xlink:href="#DejaVuSans-30"/>
       <use x="190.869141" xlink:href="#DejaVuSans-30"/>
      </g>
     </g>
    </g>
    <g id="text_6">
     <!-- iteration -->
     <g style="fill:#ffffff;" transform="translate(495.477344 532.276562)scale(0.1 -0.1)">
      <defs>
       <path d="M 603 3500 
L 1178 3500 
L 1178 0 
L 603 0 
L 603 3500 
z
M 603 4863 
L 1178 4863 
L 1178 4134 
L 603 4134 
L 603 4863 
z
" id="DejaVuSans-69" transform="scale(0.015625)"/>
       <path d="M 1172 4494 
L 1172 3500 
L 2356 3500 
L 2356 3053 
L 1172 3053 
L 1172 1153 
Q 1172 725 1289 603 
Q 1406 481 1766 481 
L 2356 481 
L 2356 0 
L 1766 0 
Q 1100 0 847 248 
Q 594 497 594 1153 
L 594 3053 
L 172 3053 
L 172 3500 
L 594 3500 
L 594 4494 
L 1172 4494 
z
" id="DejaVuSans-74" transform="scale(0.015625)"/>
       <path d="M 3597 1894 
L 3597 1613 
L 953 1613 
Q 991 1019 1311 708 
Q 1631 397 2203 397 
Q 2534 397 2845 478 
Q 3156 559 3463 722 
L 3463 178 
Q 3153 47 2828 -22 
Q 2503 -91 2169 -91 
Q 1331 -91 842 396 
Q 353 884 353 1716 
Q 353 2575 817 3079 
Q 1281 3584 2069 3584 
Q 2775 3584 3186 3129 
Q 3597 2675 3597 1894 
z
M 3022 2063 
Q 3016 2534 2758 2815 
Q 2500 3097 2075 3097 
Q 1594 3097 1305 2825 
Q 1016 2553 972 2059 
L 3022 2063 
z
" id="DejaVuSans-65" transform="scale(0.015625)"/>
       <path d="M 2631 2963 
Q 2534 3019 2420 3045 
Q 2306 3072 2169 3072 
Q 1681 3072 1420 2755 
Q 1159 2438 1159 1844 
L 1159 0 
L 581 0 
L 581 3500 
L 1159 3500 
L 1159 2956 
Q 1341 3275 1631 3429 
Q 1922 3584 2338 3584 
Q 2397 3584 2469 3576 
Q 2541 3569 2628 3553 
L 2631 2963 
z
" id="DejaVuSans-72" transform="scale(0.015625)"/>
       <path d="M 2194 1759 
Q 1497 1759 1228 1600 
Q 959 1441 959 1056 
Q 959 750 1161 570 
Q 1363 391 1709 391 
Q 2188 391 2477 730 
Q 2766 1069 2766 1631 
L 2766 1759 
L 2194 1759 
z
M 3341 1997 
L 3341 0 
L 2766 0 
L 2766 531 
Q 2569 213 2275 61 
Q 1981 -91 1556 -91 
Q 1019 -91 701 211 
Q 384 513 384 1019 
Q 384 1609 779 1909 
Q 1175 2209 1959 2209 
L 2766 2209 
L 2766 2266 
Q 2766 2663 2505 2880 
Q 2244 3097 1772 3097 
Q 1472 3097 1187 3025 
Q 903 2953 641 2809 
L 641 3341 
Q 956 3463 1253 3523 
Q 1550 3584 1831 3584 
Q 2591 3584 2966 3190 
Q 3341 2797 3341 1997 
z
" id="DejaVuSans-61" transform="scale(0.015625)"/>
       <path d="M 1959 3097 
Q 1497 3097 1228 2736 
Q 959 2375 959 1747 
Q 959 1119 1226 758 
Q 1494 397 1959 397 
Q 2419 397 2687 759 
Q 2956 1122 2956 1747 
Q 2956 2369 2687 2733 
Q 2419 3097 1959 3097 
z
M 1959 3584 
Q 2709 3584 3137 3096 
Q 3566 2609 3566 1747 
Q 3566 888 3137 398 
Q 2709 -91 1959 -91 
Q 1206 -91 779 398 
Q 353 888 353 1747 
Q 353 2609 779 3096 
Q 1206 3584 1959 3584 
z
" id="DejaVuSans-6f" transform="scale(0.015625)"/>
       <path d="M 3513 2113 
L 3513 0 
L 2938 0 
L 2938 2094 
Q 2938 2591 2744 2837 
Q 2550 3084 2163 3084 
Q 1697 3084 1428 2787 
Q 1159 2491 1159 1978 
L 1159 0 
L 581 0 
L 581 3500 
L 1159 3500 
L 1159 2956 
Q 1366 3272 1645 3428 
Q 1925 3584 2291 3584 
Q 2894 3584 3203 3211 
Q 3513 2838 3513 2113 
z
" id="DejaVuSans-6e" transform="scale(0.015625)"/>
      </defs>
      <use xlink:href="#DejaVuSans-69"/>
      <use x="27.783203" xlink:href="#DejaVuSans-74"/>
      <use x="66.992188" xlink:href="#DejaVuSans-65"/>
      <use x="128.515625" xlink:href="#DejaVuSans-72"/>
      <use x="169.628906" xlink:href="#DejaVuSans-61"/>
      <use x="230.908203" xlink:href="#DejaVuSans-74"/>
      <use x="270.117188" xlink:href="#DejaVuSans-69"/>
      <use x="297.900391" xlink:href="#DejaVuSans-6f"/>
      <use x="359.082031" xlink:href="#DejaVuSans-6e"/>
     </g>
    </g>
   </g>
   <g id="matplotlib.axis_2">
    <g id="ytick_1">
     <g id="line2d_6">
      <defs>
       <path d="M 0 0 
L -3.5 0 
" id="mbef8273a25" style="stroke:#ffffff;stroke-width:0.8;"/>
      </defs>
      <g>
       <use style="fill:#ffffff;stroke:#ffffff;stroke-width:0.8;" x="126" xlink:href="#mbef8273a25" y="484.232727"/>
      </g>
     </g>
     <g id="text_7">
      <!-- 0 -->
      <g style="fill:#ffffff;" transform="translate(112.6375 488.031946)scale(0.1 -0.1)">
       <use xlink:href="#DejaVuSans-30"/>
      </g>
     </g>
    </g>
    <g id="ytick_2">
     <g id="line2d_7">
      <g>
       <use style="fill:#ffffff;stroke:#ffffff;stroke-width:0.8;" x="126" xlink:href="#mbef8273a25" y="412.406585"/>
      </g>
     </g>
     <g id="text_8">
      <!-- 5000 -->
      <g style="fill:#ffffff;" transform="translate(93.55 416.205803)scale(0.1 -0.1)">
       <use xlink:href="#DejaVuSans-35"/>
       <use x="63.623047" xlink:href="#DejaVuSans-30"/>
       <use x="127.246094" xlink:href="#DejaVuSans-30"/>
       <use x="190.869141" xlink:href="#DejaVuSans-30"/>
      </g>
     </g>
    </g>
    <g id="ytick_3">
     <g id="line2d_8">
      <g>
       <use style="fill:#ffffff;stroke:#ffffff;stroke-width:0.8;" x="126" xlink:href="#mbef8273a25" y="340.580442"/>
      </g>
     </g>
     <g id="text_9">
      <!-- 10000 -->
      <g style="fill:#ffffff;" transform="translate(87.1875 344.379661)scale(0.1 -0.1)">
       <use xlink:href="#DejaVuSans-31"/>
       <use x="63.623047" xlink:href="#DejaVuSans-30"/>
       <use x="127.246094" xlink:href="#DejaVuSans-30"/>
       <use x="190.869141" xlink:href="#DejaVuSans-30"/>
       <use x="254.492188" xlink:href="#DejaVuSans-30"/>
      </g>
     </g>
    </g>
    <g id="ytick_4">
     <g id="line2d_9">
      <g>
       <use style="fill:#ffffff;stroke:#ffffff;stroke-width:0.8;" x="126" xlink:href="#mbef8273a25" y="268.754299"/>
      </g>
     </g>
     <g id="text_10">
      <!-- 15000 -->
      <g style="fill:#ffffff;" transform="translate(87.1875 272.553518)scale(0.1 -0.1)">
       <use xlink:href="#DejaVuSans-31"/>
       <use x="63.623047" xlink:href="#DejaVuSans-35"/>
       <use x="127.246094" xlink:href="#DejaVuSans-30"/>
       <use x="190.869141" xlink:href="#DejaVuSans-30"/>
       <use x="254.492188" xlink:href="#DejaVuSans-30"/>
      </g>
     </g>
    </g>
    <g id="ytick_5">
     <g id="line2d_10">
      <g>
       <use style="fill:#ffffff;stroke:#ffffff;stroke-width:0.8;" x="126" xlink:href="#mbef8273a25" y="196.928157"/>
      </g>
     </g>
     <g id="text_11">
      <!-- 20000 -->
      <g style="fill:#ffffff;" transform="translate(87.1875 200.727375)scale(0.1 -0.1)">
       <use xlink:href="#DejaVuSans-32"/>
       <use x="63.623047" xlink:href="#DejaVuSans-30"/>
       <use x="127.246094" xlink:href="#DejaVuSans-30"/>
       <use x="190.869141" xlink:href="#DejaVuSans-30"/>
       <use x="254.492188" xlink:href="#DejaVuSans-30"/>
      </g>
     </g>
    </g>
    <g id="ytick_6">
     <g id="line2d_11">
      <g>
       <use style="fill:#ffffff;stroke:#ffffff;stroke-width:0.8;" x="126" xlink:href="#mbef8273a25" y="125.102014"/>
      </g>
     </g>
     <g id="text_12">
      <!-- 25000 -->
      <g style="fill:#ffffff;" transform="translate(87.1875 128.901233)scale(0.1 -0.1)">
       <use xlink:href="#DejaVuSans-32"/>
       <use x="63.623047" xlink:href="#DejaVuSans-35"/>
       <use x="127.246094" xlink:href="#DejaVuSans-30"/>
       <use x="190.869141" xlink:href="#DejaVuSans-30"/>
       <use x="254.492188" xlink:href="#DejaVuSans-30"/>
      </g>
     </g>
    </g>
   </g>
   <g id="line2d_12">
    <path clip-path="url(#p6b7d69ede0)" d="M 161.509091 226.520527 
L 161.849053 217.025111 
L 162.528979 276.683905 
L 162.868941 248.614249 
L 163.208904 255.739402 
L 163.548866 275.462861 
L 164.228792 330.826452 
L 164.908717 287.141792 
L 165.248679 286.653374 
L 165.588642 294.295676 
L 165.928604 304.983406 
L 166.268567 292.586213 
L 166.60853 270.018439 
L 166.948492 258.669909 
L 167.288455 262.763999 
L 167.96838 302.052899 
L 168.308342 291.365169 
L 168.648305 284.240016 
L 168.988268 305.328171 
L 169.32823 280.519421 
L 170.348118 246.20089 
L 170.68808 220.788801 
L 171.028043 220.788801 
L 171.707968 253.670809 
L 172.047931 266.728802 
L 172.387893 232.582654 
L 172.727856 227.827763 
L 173.067818 202.961553 
L 173.747744 252.708339 
L 174.087706 249.619815 
L 174.427669 244.663811 
L 174.767631 257.061003 
L 175.787519 330.524782 
L 176.467444 279.183455 
L 176.807407 279.183455 
L 177.147369 246.703673 
L 177.487332 272.115763 
L 177.827294 261.428033 
L 178.167257 286.581548 
L 178.847182 237.624849 
L 179.187145 231.347244 
L 180.207033 308.3736 
L 180.546995 282.96151 
L 180.886958 274.543486 
L 181.22692 247.852892 
L 181.566883 254.130497 
L 181.906845 264.660209 
L 182.246808 258.382604 
L 182.586771 266.800628 
L 182.926733 244.046106 
L 183.266696 245.698107 
L 183.606658 251.975712 
L 184.286583 299.151123 
L 184.626546 279.944812 
L 184.966509 272.819659 
L 185.306471 251.573486 
L 185.646434 284.053268 
L 185.986396 289.009272 
L 186.326359 282.731667 
L 186.666321 261.643511 
L 187.006284 286.509722 
L 187.346247 263.941948 
L 187.686209 288.118627 
L 188.026172 267.030472 
L 188.366134 301.277177 
L 188.706097 308.215582 
L 189.046059 320.885714 
L 189.386022 342.131887 
L 189.725985 310.62894 
L 190.065947 336.04103 
L 190.40591 325.511317 
L 190.745872 320.555313 
L 191.085835 320.555313 
L 191.425797 331.243043 
L 191.76576 350.449354 
L 192.105723 338.052162 
L 193.12561 290.101029 
L 193.465573 263.410434 
L 193.805535 273.940147 
L 194.145498 270.851623 
L 194.485461 271.91465 
L 194.825423 246.50256 
L 195.165386 251.458564 
L 195.505348 263.855756 
L 195.845311 263.855756 
L 196.185274 286.42353 
L 196.525236 258.353874 
L 196.865199 255.552654 
L 197.205161 248.097101 
L 197.545124 256.773699 
L 197.885086 273.50919 
L 198.225049 259.35944 
L 198.904974 321.733262 
L 199.924862 248.125831 
L 200.264824 249.950215 
L 200.604787 240.253686 
L 200.94475 274.399834 
L 201.284712 284.096363 
L 201.624675 298.246113 
L 201.964637 286.322974 
L 202.3046 311.189184 
L 202.644562 288.808158 
L 202.984525 283.306276 
L 203.324488 309.235513 
L 203.66445 304.279509 
L 204.004413 336.759291 
L 204.344375 330.481686 
L 204.684338 309.393531 
L 205.364263 368.721925 
L 205.704226 385.859642 
L 206.044188 360.447553 
L 206.384151 382.713657 
L 206.724113 363.507347 
L 207.064076 335.43769 
L 207.744001 313.343969 
L 208.083964 301.420829 
L 208.763889 350.578641 
L 209.103851 352.230642 
L 209.443814 317.926477 
L 209.783776 327.623006 
L 210.123739 304.868484 
L 210.463702 308.488521 
L 210.803664 291.75303 
L 211.143627 298.878184 
L 212.503477 394.062188 
L 213.863327 310.241079 
L 214.20329 336.931674 
L 214.543253 335.279673 
L 214.883215 267.447064 
L 215.223178 284.584781 
L 215.56314 259.776031 
L 215.903103 277.459628 
L 216.243065 272.503624 
L 216.583028 295.631642 
L 216.922991 274.543486 
L 217.262953 301.234081 
L 217.602916 311.763794 
L 217.942878 285.173756 
L 218.282841 272.776563 
L 218.622803 238.630415 
L 218.962766 272.776563 
L 219.302729 285.058834 
L 219.642691 277.588915 
L 219.982654 287.084331 
L 220.322616 310.413462 
L 220.662579 300.716933 
L 221.002541 324.936708 
L 221.342504 331.214313 
L 222.022429 309.99687 
L 222.362392 295.114494 
L 223.042317 315.254544 
L 223.382279 281.108396 
L 223.722242 272.316876 
L 224.402167 317.969572 
L 224.74213 307.43986 
L 225.082092 301.162255 
L 225.422055 335.308403 
L 225.762017 301.004237 
L 226.10198 301.004237 
L 226.441943 278.738133 
L 226.781905 301.004237 
L 227.121868 300.817489 
L 227.46183 274.126895 
L 227.801793 258.684274 
L 228.141756 256.543855 
L 228.481718 283.220084 
L 228.821681 282.702936 
L 229.161643 302.728065 
L 229.501606 329.404294 
L 230.181531 277.315976 
L 230.521494 303.992205 
L 230.861456 321.704532 
L 231.201419 300.458359 
L 231.541381 314.565013 
L 231.881344 314.66557 
L 232.221306 297.499122 
L 232.561269 304.092762 
L 233.241194 256.500759 
L 233.581157 267.188489 
L 233.921119 269.429465 
L 234.261082 291.695569 
L 234.601044 303.618709 
L 234.941007 326.186483 
L 235.620932 275.965644 
L 235.960895 274.486025 
L 236.300857 289.598246 
L 236.64082 298.01627 
L 236.980782 285.619078 
L 237.320745 253.139296 
L 237.660708 251.487295 
L 238.00067 267.475794 
L 238.340633 264.38727 
L 238.680595 300.329072 
L 239.020558 319.535382 
L 239.700483 261.341841 
L 240.040446 236.533092 
L 240.380408 268.036038 
L 241.060333 271.196388 
L 241.400296 264.918783 
L 241.740258 274.615313 
L 242.080221 248.686075 
L 242.760146 274.14126 
L 243.100109 314.636839 
L 243.440071 331.832018 
L 244.119997 285.389234 
L 244.799922 327.723562 
L 245.139884 360.203344 
L 245.479847 338.957171 
L 245.819809 335.092925 
L 246.159772 344.301036 
L 246.499735 335.883012 
L 246.839697 357.129185 
L 247.17966 353.868278 
L 247.519622 335.696264 
L 247.859585 335.696264 
L 248.199547 343.079992 
L 248.879473 379.42402 
L 249.219435 354.270505 
L 249.559398 341.873313 
L 249.89936 315.944075 
L 250.239323 321.374131 
L 250.919248 372.112119 
L 251.599173 319.233712 
L 251.939136 331.630905 
L 252.279098 299.151123 
L 252.959023 343.683331 
L 253.298986 317.754094 
L 253.638949 350.233876 
L 254.318874 303.819822 
L 254.658836 319.664669 
L 254.998799 323.026133 
L 255.338761 330.151286 
L 255.678724 309.063131 
L 256.018687 312.151655 
L 256.358649 290.905482 
L 256.698612 278.982342 
L 257.038574 285.259947 
L 257.378537 282.171423 
L 257.718499 316.475589 
L 258.058462 284.556051 
L 258.398425 281.194587 
L 258.738387 254.503993 
L 259.07835 255.567019 
L 259.418312 267.964212 
L 259.758275 273.997608 
L 260.098238 290.718734 
L 260.4382 256.414568 
L 260.778163 283.105163 
L 261.118125 272.661641 
L 261.458088 276.382236 
L 261.79805 251.22872 
L 262.138013 269.228352 
L 262.477976 270.880353 
L 262.817938 244.204124 
L 263.157901 269.616213 
L 263.497863 303.762361 
L 263.837826 293.074631 
L 264.177788 258.928483 
L 264.517751 268.854856 
L 264.857714 268.854856 
L 265.197676 298.102461 
L 265.537639 290.776195 
L 265.877601 286.926313 
L 266.217564 269.501291 
L 266.557526 258.971579 
L 266.897489 252.693974 
L 267.237452 275.003174 
L 267.577414 282.128327 
L 267.917377 280.476326 
L 268.257339 280.476326 
L 268.597302 269.199621 
L 268.937264 244.979846 
L 269.277227 253.39787 
L 269.61719 270.98091 
L 269.957152 248.714805 
L 270.297115 252.579052 
L 270.637077 248.714805 
L 270.97704 222.024211 
L 271.317002 254.503993 
L 271.656965 248.226388 
L 271.996928 252.780165 
L 272.33689 279.370203 
L 272.676853 272.920216 
L 273.016815 277.30161 
L 273.356778 274.213086 
L 273.696741 299.366601 
L 274.036703 290.948577 
L 274.716628 339.445589 
L 275.056591 333.167984 
L 275.396553 364.67093 
L 275.736516 375.35866 
L 276.076479 407.838442 
L 276.416441 391.117316 
L 276.756404 365.705227 
L 277.436329 307.339303 
L 277.776291 296.809591 
L 278.116254 303.934744 
L 278.456217 293.247014 
L 278.796179 317.466789 
L 279.476104 336.414526 
L 280.156029 290.014838 
L 280.495992 306.735964 
L 280.835955 290.014838 
L 281.175917 285.058834 
L 281.51588 274.529121 
L 281.855842 301.205351 
L 282.195805 306.161354 
L 282.535767 316.849084 
L 282.87573 319.937609 
L 283.555655 272.259415 
L 283.895618 244.189758 
L 284.23558 236.475631 
L 284.575543 212.255855 
L 284.915505 235.886656 
L 285.255468 232.798132 
L 285.595431 210.532028 
L 285.935393 244.678176 
L 286.275356 232.280984 
L 286.615318 309.738296 
L 286.955281 321.661436 
L 287.295243 325.525682 
L 287.635206 322.437158 
L 287.975169 299.869384 
L 288.315131 326.559979 
L 288.655094 305.313806 
L 288.995056 329.375564 
L 289.335019 343.654601 
L 290.014944 294.496789 
L 290.354907 317.064563 
L 290.694869 294.496789 
L 291.034832 180.451239 
L 291.374794 204.671015 
L 291.714757 207.702078 
L 292.05472 205.101972 
L 292.394682 237.98398 
L 292.734645 229.637782 
L 293.074607 195.491634 
L 293.41457 189.889195 
L 293.754532 232.381541 
L 294.094495 230.514061 
L 294.434458 245.180959 
L 294.77442 232.783767 
L 295.114383 252.507226 
L 295.454345 232.783767 
L 295.794308 245.180959 
L 296.474233 219.984348 
L 296.814196 235.886656 
L 297.494121 292.255813 
L 297.834083 267.447064 
L 298.174046 267.447064 
L 298.514008 292.255813 
L 299.193934 232.95615 
L 299.873859 312.266577 
L 300.213821 216.407406 
L 300.553784 240.627182 
L 300.893746 252.550322 
L 301.573672 293.361936 
L 301.913634 294.740998 
L 302.253597 289.727533 
L 302.593559 294.740998 
L 302.933522 297.829522 
L 303.273484 322.638272 
L 303.613447 299.88375 
L 303.95341 310.57148 
L 304.293372 289.483324 
L 304.633335 277.086132 
L 304.973297 270.808527 
L 305.31326 288.348471 
L 305.653223 276.956845 
L 305.993185 281.912849 
L 306.333148 250.409902 
L 306.67311 247.321378 
L 307.013073 249.533624 
L 307.692998 209.555192 
L 308.032961 236.102135 
L 308.372923 226.405606 
L 308.712886 253.081835 
L 309.052848 248.125831 
L 309.392811 247.608683 
L 309.732773 235.685543 
L 310.072736 256.385838 
L 310.412699 253.297313 
L 310.752661 276.051835 
L 311.092624 310.356001 
L 311.432586 283.665407 
L 311.772549 315.168353 
L 312.112511 311.304106 
L 312.792437 320.382931 
L 313.132399 306.376833 
L 313.472362 246.272717 
L 313.812324 256.19909 
L 314.492249 297.772061 
L 315.172175 274.845156 
L 315.512137 275.261748 
L 315.8521 267.461429 
L 316.192062 242.049339 
L 316.532025 244.003011 
L 317.21195 278.695037 
L 317.891875 335.926108 
L 318.231838 307.856451 
L 318.5718 301.578847 
L 318.911763 277.359071 
L 319.251725 275.304844 
L 319.591688 314.076595 
L 319.931651 291.810491 
L 320.271613 291.810491 
L 320.611576 286.897583 
L 320.951538 304.581179 
L 321.291501 283.478659 
L 321.631464 277.201054 
L 321.971426 277.201054 
L 322.311389 256.112898 
L 322.651351 252.191191 
L 322.991314 268.237151 
L 323.331276 293.103362 
L 323.671239 282.415632 
L 324.011202 299.553349 
L 324.351164 265.249184 
L 324.691127 273.667207 
L 325.031089 248.513692 
L 325.371052 266.771898 
L 325.711014 273.049503 
L 326.050977 261.126363 
L 326.39094 293.778527 
L 327.070865 250.093867 
L 328.090752 275.477226 
L 328.430715 296.565382 
L 328.770678 269.874787 
L 329.11064 292.442561 
L 329.450603 291.824856 
L 329.790565 283.780328 
L 330.130528 261.025806 
L 330.47049 305.931511 
L 330.810453 306.793424 
L 331.150416 315.010335 
L 331.490378 335.092925 
L 331.830341 332.004401 
L 332.170303 332.004401 
L 332.510266 343.352931 
L 333.190191 298.045 
L 333.530154 305.672937 
L 333.870116 288.951811 
L 334.210079 310.039966 
L 334.890004 333.986802 
L 335.569929 375.99073 
L 335.909892 353.236208 
L 336.249854 344.818184 
L 336.589817 360.160249 
L 336.929779 364.024495 
L 337.269742 360.160249 
L 337.609705 348.854814 
L 337.949667 343.712062 
L 338.28963 312.209116 
L 338.629592 301.521386 
L 338.969555 326.387596 
L 339.309517 324.333369 
L 339.64948 290.18722 
L 340.329405 332.30607 
L 340.669368 323.888046 
L 341.349293 344.22921 
L 341.689255 332.30607 
L 342.029218 327.350067 
L 342.709143 283.607946 
L 343.049106 288.563949 
L 343.389068 286.078765 
L 343.729031 261.85899 
L 344.068993 258.770465 
L 344.408956 290.776195 
L 345.088881 245.698107 
L 345.428844 247.910353 
L 345.768806 262.433599 
L 346.108769 296.737764 
L 346.448731 279.600047 
L 346.788694 307.497321 
L 347.128657 313.846752 
L 347.468619 305.055232 
L 347.808582 327.809754 
L 348.148544 305.055232 
L 348.828469 326.861649 
L 349.168432 328.887146 
L 349.848357 389.881906 
L 350.528282 342.605939 
L 350.868245 336.328334 
L 351.208207 325.640604 
L 351.54817 319.564113 
L 351.888133 326.689266 
L 352.228095 294.209484 
L 352.568058 281.812292 
L 352.90802 294.209484 
L 353.247983 282.286345 
L 353.927908 324.620673 
L 354.607833 273.825225 
L 354.947796 285.748365 
L 355.287758 284.900816 
L 355.967684 281.007839 
L 356.307646 271.31131 
L 356.647609 249.045206 
L 356.987571 260.350641 
L 357.327534 236.130865 
L 357.667496 246.818595 
L 358.007459 240.54099 
L 358.347422 241.216156 
L 359.027347 292.715501 
L 359.367309 271.627345 
L 359.707272 305.931511 
L 360.047234 313.056664 
L 361.067122 224.681778 
L 361.407085 204.958319 
L 361.747047 212.428238 
L 362.08701 311.045532 
L 362.426972 325.798622 
L 362.766935 325.798622 
L 363.106898 345.522081 
L 363.44686 311.375932 
L 363.786823 319.793956 
L 364.126785 334.733794 
L 364.466748 322.336602 
L 364.80671 343.582775 
L 365.146673 316.906545 
L 365.486636 349.386327 
L 365.826598 353.250574 
L 366.166561 372.456884 
L 366.506523 368.592638 
L 367.186448 317.682268 
L 367.526411 307.152555 
L 367.866374 307.152555 
L 368.206336 319.549747 
L 368.546299 322.638272 
L 368.886261 273.394268 
L 369.226224 273.394268 
L 369.566187 279.125994 
L 370.586074 319.09006 
L 370.926037 297.843887 
L 371.265999 344.846915 
L 371.605962 334.317202 
L 371.945925 338.181449 
L 372.285887 335.092925 
L 372.62585 310.226714 
L 372.965812 297.829522 
L 373.305775 276.741366 
L 373.645737 313.229047 
L 373.9857 302.972274 
L 374.325663 344.344132 
L 374.665625 322.078028 
L 375.005588 312.381498 
L 375.34555 319.133156 
L 375.685513 331.214313 
L 376.025475 331.214313 
L 376.365438 313.272143 
L 376.705401 303.259578 
L 377.045363 297.944444 
L 377.385326 320.512218 
L 377.725288 324.520116 
L 378.065251 326.172118 
L 378.405213 351.325633 
L 378.745176 361.855345 
L 379.085139 356.899342 
L 379.425101 347.202812 
L 379.765064 314.723031 
L 380.105026 306.305007 
L 380.444989 329.059529 
L 380.784951 303.906014 
L 381.124914 231.217957 
L 381.464877 254.345975 
L 381.804839 260.62358 
L 382.484764 240.397338 
L 382.824727 261.485494 
L 383.164689 295.631642 
L 383.504652 290.833656 
L 383.844615 301.521386 
L 384.184577 228.991347 
L 384.52454 222.325881 
L 384.864502 198.106105 
L 385.204465 195.017581 
L 385.544428 229.163729 
L 385.88439 241.560922 
L 386.564315 315.714231 
L 387.24424 292.629309 
L 387.584203 287.544018 
L 387.924166 265.277914 
L 388.264128 233.774968 
L 388.604091 265.277914 
L 388.944053 282.659841 
L 389.284016 306.879616 
L 389.623978 305.098328 
L 389.963941 280.878552 
L 390.303904 267.648177 
L 390.643866 262.735269 
L 390.983829 254.317245 
L 391.323791 264.746401 
L 391.663754 264.933149 
L 392.343679 308.603443 
L 392.683642 335.021099 
L 393.023604 341.959504 
L 393.363567 293.534319 
L 393.703529 304.064031 
L 394.043492 278.651942 
L 394.383454 278.651942 
L 394.723417 275.563418 
L 395.06338 254.317245 
L 395.403342 265.004975 
L 395.743305 268.093499 
L 396.083267 299.596445 
L 396.42323 274.787695 
L 396.763192 303.518152 
L 397.103155 303.417596 
L 397.443118 291.020404 
L 397.78308 314.651204 
L 398.123043 303.963474 
L 398.463005 323.169785 
L 398.802968 303.446326 
L 399.142931 303.446326 
L 399.482893 281.180222 
L 399.822856 279.657508 
L 400.162818 292.0547 
L 400.502781 279.49949 
L 400.842743 291.7243 
L 401.182706 316.992737 
L 401.522669 327.522449 
L 402.202594 278.364637 
L 402.542556 252.952548 
L 402.882519 279.643143 
L 403.222481 279.643143 
L 403.562444 265.522123 
L 403.902407 282.243249 
L 404.242369 278.379002 
L 404.582332 299.467158 
L 404.922294 294.037102 
L 405.262257 322.106758 
L 405.602219 317.150754 
L 405.942182 294.88465 
L 406.282145 317.452424 
L 406.96207 249.00211 
L 407.641995 300.343437 
L 408.32192 262.376138 
L 408.661883 262.275581 
L 409.001845 259.187057 
L 409.341808 310.356001 
L 409.68177 282.286345 
L 410.021733 276.482792 
L 410.361695 278.134794 
L 410.701658 312.438959 
L 411.381583 264.272348 
L 411.721546 232.769402 
L 412.061508 237.725406 
L 412.401471 218.519095 
L 412.741433 216.407406 
L 413.081396 263.252417 
L 413.761321 314.708665 
L 414.101284 280.4045 
L 414.441246 305.27071 
L 414.781209 298.547783 
L 415.121172 276.482792 
L 415.461134 310.786958 
L 415.801097 288.219184 
L 416.141059 313.027934 
L 416.481022 309.93941 
L 416.820984 287.184888 
L 417.160947 287.184888 
L 417.50091 313.114125 
L 417.840872 296.392999 
L 418.180835 334.331568 
L 418.520797 336.471987 
L 418.86076 336.471987 
L 419.200722 359.226509 
L 419.880648 313.918578 
L 420.22061 304.222049 
L 420.900535 268.409534 
L 421.240498 284.699703 
L 421.58046 284.699703 
L 421.920423 264.171791 
L 422.260386 264.171791 
L 422.600348 257.894187 
L 422.940311 290.086664 
L 423.280273 255.940515 
L 423.620236 278.20662 
L 423.960198 278.20662 
L 424.300161 270.118996 
L 424.640124 271.986476 
L 424.980086 278.264081 
L 425.320049 312.568246 
L 425.999974 257.908552 
L 426.339936 260.997076 
L 426.679899 229.49413 
L 427.019862 217.096937 
L 427.359824 294.525519 
L 427.699787 328.829685 
L 428.039749 303.67617 
L 428.379712 304.796658 
L 428.719674 270.650509 
L 429.059637 262.232486 
L 429.3996 265.32101 
L 429.739562 320.813888 
L 430.079525 310.126157 
L 430.419487 320.210548 
L 431.099413 286.0644 
L 431.439375 320.210548 
L 431.779338 315.254544 
L 432.1193 322.020567 
L 432.459263 308.014469 
L 432.799225 311.146089 
L 433.139188 330.352399 
L 433.479151 303.762361 
L 433.819113 314.450091 
L 434.159076 290.230316 
L 434.499038 279.542586 
L 435.178963 328.915876 
L 435.518926 339.603606 
L 435.858889 261.657876 
L 436.198851 279.729334 
L 436.878776 259.704205 
L 437.218739 263.568452 
L 437.558701 257.290847 
L 437.898664 230.614618 
L 438.238627 220.918088 
L 438.578589 273.868321 
L 438.918552 241.388539 
L 439.258514 273.868321 
L 439.598477 263.338608 
L 439.938439 246.243986 
L 440.278402 238.630415 
L 440.618365 247.13463 
L 440.958327 245.698107 
L 441.29829 270.564318 
L 441.638252 253.843192 
L 441.978215 253.843192 
L 442.318177 261.715337 
L 442.65814 252.018808 
L 442.998103 273.652842 
L 443.338065 252.564687 
L 443.678028 262.261216 
L 444.01799 289.440228 
L 444.357953 279.743699 
L 444.697915 289.440228 
L 445.037878 308.646539 
L 445.377841 285.892017 
L 445.717803 313.961674 
L 446.057766 288.808158 
L 446.397728 278.795594 
L 446.737691 254.575819 
L 447.417616 300.142324 
L 447.757579 296.967608 
L 448.097541 270.277014 
L 448.437504 317.926477 
L 448.777466 285.446695 
L 449.117429 296.076964 
L 449.457392 284.153824 
L 449.797354 252.650878 
L 450.137317 259.776031 
L 450.477279 255.911785 
L 450.817242 247.177726 
L 451.157204 263.898852 
L 451.497167 241.14433 
L 451.83713 260.867789 
L 452.517055 217.010746 
L 452.857017 248.513692 
L 453.19698 226.247588 
L 453.536942 248.513692 
L 453.876905 223.647482 
L 454.216868 223.388908 
L 454.55683 213.692378 
L 455.236755 265.148627 
L 455.576718 238.458032 
L 455.91668 261.025806 
L 456.256643 259.373805 
L 456.596606 255.509559 
L 456.936568 256.270916 
L 457.276531 280.490691 
L 457.616493 283.694137 
L 457.956456 267.54762 
L 458.296418 292.959709 
L 458.636381 282.429997 
L 458.976344 288.434662 
L 459.316306 300.831855 
L 459.656269 325.698065 
L 459.996231 300.285976 
L 460.336194 325.439491 
L 460.676156 329.303738 
L 461.016119 268.495725 
L 461.356082 293.64924 
L 461.696044 286.524087 
L 462.036007 284.283111 
L 462.375969 289.239115 
L 462.715932 279.542586 
L 463.055895 312.022368 
L 463.395857 319.147521 
L 463.73582 306.750329 
L 464.075782 281.884118 
L 464.415745 303.130291 
L 464.755707 306.218815 
L 465.09567 321.445958 
L 465.435633 321.331036 
L 465.775595 314.565013 
L 466.115558 251.717138 
L 466.795483 266.858089 
L 467.135445 279.80116 
L 467.475408 254.389071 
L 467.815371 265.795062 
L 468.495296 302.167821 
L 468.835258 274.098164 
L 469.175221 274.098164 
L 469.515183 247.508126 
L 469.855146 267.231585 
L 470.195109 250.510459 
L 470.535071 240.81393 
L 471.214996 278.623211 
L 471.554959 266.700072 
L 471.894921 261.744068 
L 472.234884 272.431798 
L 472.574847 258.181491 
L 472.914809 270.104631 
L 473.254772 261.686607 
L 473.594734 279.485125 
L 474.274659 223.115968 
L 474.614622 249.806563 
L 474.954585 242.422835 
L 475.294547 217.26932 
L 475.63451 226.965849 
L 476.314435 281.03657 
L 476.99436 251.50166 
L 477.334323 279.571316 
L 478.014248 310.801323 
L 478.35421 310.801323 
L 478.694173 314.162787 
L 479.034136 305.371267 
L 479.374098 305.371267 
L 479.714061 342.404826 
L 480.054023 320.138722 
L 480.393986 342.706496 
L 481.073911 293.62051 
L 481.413874 240.023842 
L 481.753836 265.435932 
L 482.093799 263.927583 
L 482.433761 261.686607 
L 482.773724 233.61695 
L 483.113686 233.61695 
L 483.453649 259.230153 
L 483.793612 268.926682 
L 484.133574 247.680509 
L 484.473537 244.175393 
L 484.813499 243.758802 
L 485.153462 254.906219 
L 485.493424 282.975876 
L 485.833387 272.446163 
L 486.17335 278.479559 
L 486.513312 278.479559 
L 486.853275 312.625707 
L 487.193237 321.833819 
L 487.5332 321.833819 
L 487.873162 321.316671 
L 488.213125 311.620141 
L 488.553088 315.182718 
L 488.89305 290.962943 
L 489.233013 290.962943 
L 489.572975 266.757533 
L 489.912938 282.185788 
L 490.2529 259.431266 
L 490.592863 262.088833 
L 490.932826 271.28258 
L 491.272788 268.194055 
L 491.612751 277.488358 
L 492.292676 264.660209 
L 492.632638 268.093499 
L 493.312564 270.98091 
L 493.652526 278.422098 
L 494.332451 243.629515 
L 494.672414 299.323506 
L 495.012377 288.765063 
L 495.352339 297.183087 
L 495.692302 318.42926 
L 496.032264 285.949478 
L 496.372227 311.304106 
L 496.712189 328.025232 
L 497.052152 354.715827 
L 497.392115 335.509516 
L 497.732077 359.269604 
L 498.07204 344.904376 
L 498.412002 367.17048 
L 498.751965 346.082325 
L 499.091927 341.126321 
L 499.43189 360.849779 
L 499.771853 335.696264 
L 500.111815 340.652268 
L 500.451778 342.304269 
L 500.79174 331.774557 
L 501.131703 255.279715 
L 501.471665 255.279715 
L 501.811628 264.430366 
L 502.151591 258.698639 
L 502.831516 308.000104 
L 503.171478 281.323874 
L 503.511441 278.23535 
L 503.851403 255.969246 
L 504.191366 280.777996 
L 504.871291 226.017744 
L 505.211254 245.741203 
L 505.551216 214.238257 
L 505.891179 214.238257 
L 506.231141 224.925987 
L 506.571104 223.273986 
L 506.911067 231.936219 
L 507.251029 231.936219 
L 507.590992 258.612448 
L 507.930954 248.915919 
L 508.610879 296.091329 
L 508.950842 274.845156 
L 509.290805 300.257245 
L 509.630767 295.301242 
L 509.97073 274.213086 
L 510.310692 274.213086 
L 510.650655 261.815894 
L 510.990618 271.512423 
L 511.33058 244.836194 
L 511.670543 241.74767 
L 512.350468 286.825757 
L 512.69043 262.605981 
L 513.030393 264.257983 
L 513.370356 268.122229 
L 513.710318 233.818063 
L 514.050281 211.063541 
L 514.390243 251.429834 
L 514.730206 219.926887 
L 515.070168 210.230358 
L 515.410131 210.230358 
L 515.750094 208.908757 
L 516.090056 208.247957 
L 516.430019 195.850764 
L 516.769981 222.440802 
L 517.109944 194.572259 
L 517.449906 200.002315 
L 517.789869 215.100171 
L 518.469794 257.391404 
L 518.809757 251.113799 
L 519.149719 247.249552 
L 519.829644 295.18632 
L 520.169607 299.050566 
L 521.189495 225.874092 
L 521.529457 250.093867 
L 521.86942 250.093867 
L 522.549345 204.785937 
L 523.22927 187.131071 
L 523.569233 221.780002 
L 523.909195 241.503461 
L 524.249158 229.580321 
L 524.589121 236.705474 
L 524.929083 214.1377 
L 525.269046 214.1377 
L 525.609008 205.274354 
L 525.948971 202.18583 
L 526.628896 178.167168 
L 527.308821 227.32498 
L 527.648784 249.892754 
L 527.988746 262.289946 
L 528.328709 234.22029 
L 528.668671 227.095137 
L 529.008634 232.568289 
L 529.348597 205.978251 
L 529.688559 209.066775 
L 530.028522 225.787901 
L 530.368484 203.220127 
L 530.708447 225.486231 
L 531.048409 218.246156 
L 531.388372 195.980052 
L 531.728335 195.89386 
L 532.068297 228.373642 
L 532.40826 202.961553 
L 532.748222 227.181328 
L 533.088185 237.136431 
L 533.428147 237.136431 
L 533.76811 237.395005 
L 534.108073 265.608314 
L 534.448035 269.458195 
L 534.787998 288.664506 
L 535.12796 254.518358 
L 536.147848 249.562354 
L 536.827773 243.873723 
L 537.167736 270.104631 
L 537.507698 235.958483 
L 538.187623 293.31884 
L 538.527586 267.906751 
L 538.867549 265.32101 
L 539.207511 271.110197 
L 539.547474 239.607251 
L 539.887436 248.025275 
L 540.227399 241.74767 
L 541.247287 320.440392 
L 541.927212 275.563418 
L 542.267174 277.215419 
L 542.9471 267.461429 
L 543.287062 264.617113 
L 543.627025 288.836889 
L 543.966987 254.690741 
L 544.30695 257.779265 
L 544.646912 249.361241 
L 544.986875 279.786795 
L 545.326838 296.924512 
L 545.6668 328.427459 
L 546.006763 301.736864 
L 546.346725 335.883012 
L 546.686688 342.160617 
L 547.02665 325.022899 
L 547.366613 324.678134 
L 547.706576 324.678134 
L 548.046538 327.522449 
L 548.386501 347.547578 
L 548.726463 326.301405 
L 549.066426 345.320967 
L 549.746351 336.658735 
L 550.086314 255.308445 
L 550.426276 272.403067 
L 550.766239 266.369671 
L 551.106201 266.369671 
L 551.446164 245.281516 
L 551.786126 250.582285 
L 552.126089 296.507921 
L 552.466052 262.361773 
L 553.145977 307.727164 
L 553.485939 276.224218 
L 553.825902 276.224218 
L 554.165864 238.127632 
L 554.505827 239.779633 
L 554.84579 266.470228 
L 555.525715 222.62755 
L 555.865677 248.03964 
L 556.20564 235.642448 
L 556.545603 211.422672 
L 556.885565 200.734942 
L 557.225528 221.823098 
L 557.56549 229.293016 
L 557.905453 229.293016 
L 558.245415 239.765268 
L 558.585378 244.721272 
L 558.925341 261.88772 
L 559.265303 255.610115 
L 559.605266 255.610115 
L 559.945228 224.107169 
L 560.285191 233.430202 
L 561.645041 291.034769 
L 561.985004 266.168558 
L 562.324966 266.168558 
L 562.664929 288.92308 
L 563.004891 263.510991 
L 563.344854 282.717301 
L 564.364742 201.381377 
L 564.704704 201.381377 
L 565.044667 195.491634 
L 565.384629 223.56129 
L 565.724592 215.143266 
L 566.064555 215.473667 
L 566.74448 231.620184 
L 567.084442 213.462535 
L 567.424405 213.462535 
L 567.764367 243.528958 
L 568.10433 240.440434 
L 568.444293 261.686607 
L 568.784255 227.540459 
L 569.124218 291.264612 
L 569.46418 295.128859 
L 569.804143 268.438264 
L 570.144105 268.438264 
L 570.484068 246.17216 
L 570.824031 280.318308 
L 571.163993 280.318308 
L 571.503956 292.241448 
L 571.843918 283.823424 
L 572.183881 308.043199 
L 572.523844 315.426927 
L 572.863806 290.014838 
L 573.203769 312.76936 
L 573.543731 300.731298 
L 573.883694 318.12759 
L 574.223656 344.803819 
L 574.563619 344.803819 
L 574.903582 332.406627 
L 575.243544 311.160454 
L 575.583507 307.296207 
L 575.923469 333.986802 
L 576.263432 349.429423 
L 576.603394 370.675596 
L 576.943357 404.979762 
L 577.623282 367.012463 
L 577.963245 383.733589 
L 578.303207 377.455984 
L 578.64317 380.544508 
L 578.983132 378.892507 
L 579.323095 378.375358 
L 579.663058 354.155583 
L 580.00302 349.199579 
L 580.342983 356.324732 
L 580.682945 337.118422 
L 581.022908 351.742225 
L 581.36287 342.045695 
L 581.702833 310.542749 
L 582.042796 302.239647 
L 582.382758 312.76936 
L 582.722721 291.681204 
L 583.062683 291.681204 
L 583.402646 310.887515 
L 583.742608 342.390461 
L 584.082571 330.467321 
L 584.422534 330.467321 
L 584.762496 336.744926 
L 585.102459 353.466052 
L 585.442421 357.330298 
L 586.122346 321.402862 
L 586.462309 294.812824 
L 587.142234 312.568246 
L 587.482197 312.568246 
L 587.822159 307.123825 
L 588.162122 307.123825 
L 588.502085 368.262237 
L 588.842047 348.696796 
L 589.18201 254.36034 
L 589.521972 254.36034 
L 589.861935 277.114862 
L 590.201897 270.837257 
L 590.54186 270.837257 
L 590.881823 249.591084 
L 591.221785 249.591084 
L 591.561748 247.522492 
L 592.241673 260.005875 
L 592.581635 250.309346 
L 592.921598 260.005875 
L 593.261561 260.005875 
L 593.601523 258.72737 
L 593.941486 258.72737 
L 594.281448 258.468796 
L 594.621411 266.901185 
L 594.961373 266.901185 
L 595.301336 280.361404 
L 595.981261 280.361404 
L 596.321224 269.673674 
L 596.661186 269.673674 
L 597.001149 274.47166 
L 597.341111 262.404868 
L 598.021037 262.404868 
L 598.360999 278.924881 
L 599.040924 259.215788 
L 599.380887 243.069271 
L 601.0807 243.069271 
L 601.420662 238.572954 
L 601.760625 230.15493 
L 602.100587 255.308445 
L 602.780513 243.054905 
L 603.120475 252.751435 
L 603.8004 234.679977 
L 604.140363 234.679977 
L 604.480326 224.150265 
L 604.820288 224.150265 
L 605.160251 217.87266 
L 606.520101 217.87266 
L 606.860064 208.176131 
L 608.899839 208.176131 
L 609.239802 254.36034 
L 609.579764 254.36034 
L 609.919727 265.593949 
L 610.259689 262.505425 
L 610.599652 262.505425 
L 610.939614 273.193155 
L 611.279577 241.690209 
L 611.61954 241.690209 
L 611.959502 236.734205 
L 612.299465 243.01181 
L 612.97939 243.01181 
L 613.319352 261.88772 
L 613.659315 296.033868 
L 614.33924 296.033868 
L 614.679203 297.68587 
L 615.019165 285.288677 
L 615.359128 285.288677 
L 615.69909 258.598083 
L 616.039053 265.34974 
L 616.379016 268.969778 
L 616.718978 274.859521 
L 617.738866 274.859521 
L 618.078828 264.301078 
L 619.098716 264.301078 
L 619.438679 279.269647 
L 619.778641 279.269647 
L 620.118604 245.123498 
L 622.158379 245.123498 
L 622.498342 263.999409 
L 622.838305 263.999409 
L 623.178267 257.046638 
L 623.51823 245.123498 
L 623.858192 238.774067 
L 624.198155 214.554292 
L 624.538117 211.465768 
L 624.87808 214.554292 
L 625.218043 202.1571 
L 626.577893 202.1571 
L 626.917855 205.992616 
L 627.257818 192.76224 
L 628.277706 192.848432 
L 628.617668 173.713947 
L 628.957631 167.824204 
L 629.297593 141.133609 
L 638.476583 141.133609 
L 638.816546 168.025317 
L 639.836433 168.025317 
L 640.176396 178.713047 
L 640.516358 178.713047 
L 640.856321 175.624523 
L 641.196284 178.713047 
L 644.935872 178.713047 
L 645.275834 179.000351 
L 645.615797 174.044348 
L 645.95576 170.955823 
L 650.035311 170.955823 
L 650.375273 168.370082 
L 652.075086 168.370082 
L 652.415049 147.281927 
L 654.454824 147.281927 
L 655.134749 156.920995 
L 656.834562 156.920995 
L 657.174525 124.441213 
L 660.234188 124.441213 
L 660.57415 102.175109 
L 663.293851 102.175109 
L 663.633813 97.219105 
L 674.512616 97.219105 
L 674.852578 90.6111 
L 685.051456 90.6111 
L 685.391418 88.887273 
L 871.690909 88.887273 
L 871.690909 88.887273 
" style="fill:none;stroke:#8dd3c7;stroke-linecap:square;stroke-width:1.5;"/>
   </g>
   <g id="line2d_13">
    <path clip-path="url(#p6b7d69ede0)" d="M 161.509091 226.520527 
L 161.849053 217.025111 
L 172.727856 217.025111 
L 173.067818 202.961553 
L 290.694869 202.961553 
L 291.034832 180.451239 
L 526.288933 180.451239 
L 526.628896 178.167168 
L 628.277706 178.167168 
L 628.957631 167.824204 
L 629.297593 141.133609 
L 656.834562 141.133609 
L 657.174525 124.441213 
L 660.234188 124.441213 
L 660.57415 102.175109 
L 663.293851 102.175109 
L 663.633813 97.219105 
L 674.512616 97.219105 
L 674.852578 90.6111 
L 685.051456 90.6111 
L 685.391418 88.887273 
L 871.690909 88.887273 
L 871.690909 88.887273 
" style="fill:none;stroke:#feffb3;stroke-linecap:square;stroke-width:1.5;"/>
   </g>
   <g id="line2d_14">
    <path clip-path="url(#p6b7d69ede0)" d="M 161.509091 303.834187 
L 164.568754 303.834187 
L 164.908717 321.083521 
L 167.96838 321.083521 
L 168.308342 336.68351 
L 171.368006 336.68351 
L 171.707968 350.79186 
L 174.767631 350.79186 
L 175.107594 363.551199 
L 178.167257 363.551199 
L 178.50722 375.090516 
L 181.566883 375.090516 
L 181.906845 385.526468 
L 184.966509 385.526468 
L 185.306471 394.964556 
L 188.366134 394.964556 
L 188.706097 403.500193 
L 191.76576 403.500193 
L 192.105723 411.21967 
L 195.165386 411.21967 
L 195.505348 418.201027 
L 198.565012 418.201027 
L 198.904974 424.514842 
L 201.964637 424.514842 
L 202.3046 430.224942 
L 205.364263 430.224942 
L 205.704226 435.389054 
L 208.763889 435.389054 
L 209.103851 440.059385 
L 212.163515 440.059385 
L 212.503477 444.283148 
L 215.56314 444.283148 
L 215.903103 448.103044 
L 218.962766 448.103044 
L 219.302729 451.55769 
L 222.362392 451.55769 
L 222.702354 454.682009 
L 225.762017 454.682009 
L 226.10198 457.507587 
L 229.161643 457.507587 
L 229.501606 460.06299 
L 232.561269 460.06299 
L 232.901232 462.37405 
L 235.960895 462.37405 
L 236.300857 464.464131 
L 239.36052 464.464131 
L 239.700483 466.354363 
L 242.760146 466.354363 
L 243.100109 468.063855 
L 246.159772 468.063855 
L 246.499735 469.609889 
L 249.559398 469.609889 
L 249.89936 471.008095 
L 252.959023 471.008095 
L 253.298986 472.272607 
L 256.358649 472.272607 
L 256.698612 473.416209 
L 259.758275 473.416209 
L 260.098238 474.450462 
L 263.157901 474.450462 
L 263.497863 475.385822 
L 266.557526 475.385822 
L 266.897489 476.231744 
L 269.957152 476.231744 
L 270.297115 476.996782 
L 273.356778 476.996782 
L 273.696741 477.688668 
L 276.756404 477.688668 
L 277.096366 478.314397 
L 280.156029 478.314397 
L 280.495992 478.880296 
L 283.555655 478.880296 
L 283.895618 479.392084 
L 286.955281 479.392084 
L 287.295243 479.854936 
L 290.354907 479.854936 
L 290.694869 480.273532 
L 293.754532 480.273532 
L 294.094495 480.652102 
L 297.154158 480.652102 
L 297.494121 480.994474 
L 300.553784 480.994474 
L 300.893746 481.304109 
L 303.95341 481.304109 
L 304.293372 481.584137 
L 307.353035 481.584137 
L 307.692998 481.83739 
L 310.752661 481.83739 
L 311.092624 482.066427 
L 314.152287 482.066427 
L 314.492249 482.273564 
L 317.551913 482.273564 
L 317.891875 482.460895 
L 320.951538 482.460895 
L 321.291501 482.630314 
L 324.351164 482.630314 
L 324.691127 482.783534 
L 327.75079 482.783534 
L 328.090752 482.922103 
L 331.150416 482.922103 
L 331.490378 483.047422 
L 334.550041 483.047422 
L 335.229966 483.160758 
L 341.349293 483.263258 
L 342.029218 483.355956 
L 348.148544 483.439791 
L 348.828469 483.51561 
L 354.947796 483.58418 
L 355.627721 483.646192 
L 365.146673 483.752996 
L 366.166561 483.798867 
L 375.34555 483.87787 
L 376.705401 483.911801 
L 392.343679 484.018037 
L 394.383454 484.038565 
L 422.940311 484.145835 
L 428.039749 484.161658 
L 871.690909 484.232727 
L 871.690909 484.232727 
" style="fill:none;stroke:#bfbbd9;stroke-linecap:square;stroke-width:1.5;"/>
   </g>
   <g id="patch_3">
    <path d="M 126 504 
L 126 69.12 
" style="fill:none;stroke:#ffffff;stroke-linecap:square;stroke-linejoin:miter;stroke-width:0.8;"/>
   </g>
   <g id="patch_4">
    <path d="M 907.2 504 
L 907.2 69.12 
" style="fill:none;stroke:#ffffff;stroke-linecap:square;stroke-linejoin:miter;stroke-width:0.8;"/>
   </g>
   <g id="patch_5">
    <path d="M 126 504 
L 907.2 504 
" style="fill:none;stroke:#ffffff;stroke-linecap:square;stroke-linejoin:miter;stroke-width:0.8;"/>
   </g>
   <g id="patch_6">
    <path d="M 126 69.12 
L 907.2 69.12 
" style="fill:none;stroke:#ffffff;stroke-linecap:square;stroke-linejoin:miter;stroke-width:0.8;"/>
   </g>
   <g id="text_13">
    <!-- instance 2 with error 0.019453450671607198 -->
    <g style="fill:#ffffff;" transform="translate(378.046875 63.12)scale(0.12 -0.12)">
     <defs>
      <path d="M 2834 3397 
L 2834 2853 
Q 2591 2978 2328 3040 
Q 2066 3103 1784 3103 
Q 1356 3103 1142 2972 
Q 928 2841 928 2578 
Q 928 2378 1081 2264 
Q 1234 2150 1697 2047 
L 1894 2003 
Q 2506 1872 2764 1633 
Q 3022 1394 3022 966 
Q 3022 478 2636 193 
Q 2250 -91 1575 -91 
Q 1294 -91 989 -36 
Q 684 19 347 128 
L 347 722 
Q 666 556 975 473 
Q 1284 391 1588 391 
Q 1994 391 2212 530 
Q 2431 669 2431 922 
Q 2431 1156 2273 1281 
Q 2116 1406 1581 1522 
L 1381 1569 
Q 847 1681 609 1914 
Q 372 2147 372 2553 
Q 372 3047 722 3315 
Q 1072 3584 1716 3584 
Q 2034 3584 2315 3537 
Q 2597 3491 2834 3397 
z
" id="DejaVuSans-73" transform="scale(0.015625)"/>
      <path d="M 3122 3366 
L 3122 2828 
Q 2878 2963 2633 3030 
Q 2388 3097 2138 3097 
Q 1578 3097 1268 2742 
Q 959 2388 959 1747 
Q 959 1106 1268 751 
Q 1578 397 2138 397 
Q 2388 397 2633 464 
Q 2878 531 3122 666 
L 3122 134 
Q 2881 22 2623 -34 
Q 2366 -91 2075 -91 
Q 1284 -91 818 406 
Q 353 903 353 1747 
Q 353 2603 823 3093 
Q 1294 3584 2113 3584 
Q 2378 3584 2631 3529 
Q 2884 3475 3122 3366 
z
" id="DejaVuSans-63" transform="scale(0.015625)"/>
      <path id="DejaVuSans-20" transform="scale(0.015625)"/>
      <path d="M 269 3500 
L 844 3500 
L 1563 769 
L 2278 3500 
L 2956 3500 
L 3675 769 
L 4391 3500 
L 4966 3500 
L 4050 0 
L 3372 0 
L 2619 2869 
L 1863 0 
L 1184 0 
L 269 3500 
z
" id="DejaVuSans-77" transform="scale(0.015625)"/>
      <path d="M 3513 2113 
L 3513 0 
L 2938 0 
L 2938 2094 
Q 2938 2591 2744 2837 
Q 2550 3084 2163 3084 
Q 1697 3084 1428 2787 
Q 1159 2491 1159 1978 
L 1159 0 
L 581 0 
L 581 4863 
L 1159 4863 
L 1159 2956 
Q 1366 3272 1645 3428 
Q 1925 3584 2291 3584 
Q 2894 3584 3203 3211 
Q 3513 2838 3513 2113 
z
" id="DejaVuSans-68" transform="scale(0.015625)"/>
      <path d="M 684 794 
L 1344 794 
L 1344 0 
L 684 0 
L 684 794 
z
" id="DejaVuSans-2e" transform="scale(0.015625)"/>
      <path d="M 703 97 
L 703 672 
Q 941 559 1184 500 
Q 1428 441 1663 441 
Q 2288 441 2617 861 
Q 2947 1281 2994 2138 
Q 2813 1869 2534 1725 
Q 2256 1581 1919 1581 
Q 1219 1581 811 2004 
Q 403 2428 403 3163 
Q 403 3881 828 4315 
Q 1253 4750 1959 4750 
Q 2769 4750 3195 4129 
Q 3622 3509 3622 2328 
Q 3622 1225 3098 567 
Q 2575 -91 1691 -91 
Q 1453 -91 1209 -44 
Q 966 3 703 97 
z
M 1959 2075 
Q 2384 2075 2632 2365 
Q 2881 2656 2881 3163 
Q 2881 3666 2632 3958 
Q 2384 4250 1959 4250 
Q 1534 4250 1286 3958 
Q 1038 3666 1038 3163 
Q 1038 2656 1286 2365 
Q 1534 2075 1959 2075 
z
" id="DejaVuSans-39" transform="scale(0.015625)"/>
      <path d="M 2419 4116 
L 825 1625 
L 2419 1625 
L 2419 4116 
z
M 2253 4666 
L 3047 4666 
L 3047 1625 
L 3713 1625 
L 3713 1100 
L 3047 1100 
L 3047 0 
L 2419 0 
L 2419 1100 
L 313 1100 
L 313 1709 
L 2253 4666 
z
" id="DejaVuSans-34" transform="scale(0.015625)"/>
      <path d="M 2597 2516 
Q 3050 2419 3304 2112 
Q 3559 1806 3559 1356 
Q 3559 666 3084 287 
Q 2609 -91 1734 -91 
Q 1441 -91 1130 -33 
Q 819 25 488 141 
L 488 750 
Q 750 597 1062 519 
Q 1375 441 1716 441 
Q 2309 441 2620 675 
Q 2931 909 2931 1356 
Q 2931 1769 2642 2001 
Q 2353 2234 1838 2234 
L 1294 2234 
L 1294 2753 
L 1863 2753 
Q 2328 2753 2575 2939 
Q 2822 3125 2822 3475 
Q 2822 3834 2567 4026 
Q 2313 4219 1838 4219 
Q 1578 4219 1281 4162 
Q 984 4106 628 3988 
L 628 4550 
Q 988 4650 1302 4700 
Q 1616 4750 1894 4750 
Q 2613 4750 3031 4423 
Q 3450 4097 3450 3541 
Q 3450 3153 3228 2886 
Q 3006 2619 2597 2516 
z
" id="DejaVuSans-33" transform="scale(0.015625)"/>
      <path d="M 2113 2584 
Q 1688 2584 1439 2293 
Q 1191 2003 1191 1497 
Q 1191 994 1439 701 
Q 1688 409 2113 409 
Q 2538 409 2786 701 
Q 3034 994 3034 1497 
Q 3034 2003 2786 2293 
Q 2538 2584 2113 2584 
z
M 3366 4563 
L 3366 3988 
Q 3128 4100 2886 4159 
Q 2644 4219 2406 4219 
Q 1781 4219 1451 3797 
Q 1122 3375 1075 2522 
Q 1259 2794 1537 2939 
Q 1816 3084 2150 3084 
Q 2853 3084 3261 2657 
Q 3669 2231 3669 1497 
Q 3669 778 3244 343 
Q 2819 -91 2113 -91 
Q 1303 -91 875 529 
Q 447 1150 447 2328 
Q 447 3434 972 4092 
Q 1497 4750 2381 4750 
Q 2619 4750 2861 4703 
Q 3103 4656 3366 4563 
z
" id="DejaVuSans-36" transform="scale(0.015625)"/>
      <path d="M 525 4666 
L 3525 4666 
L 3525 4397 
L 1831 0 
L 1172 0 
L 2766 4134 
L 525 4134 
L 525 4666 
z
" id="DejaVuSans-37" transform="scale(0.015625)"/>
      <path d="M 2034 2216 
Q 1584 2216 1326 1975 
Q 1069 1734 1069 1313 
Q 1069 891 1326 650 
Q 1584 409 2034 409 
Q 2484 409 2743 651 
Q 3003 894 3003 1313 
Q 3003 1734 2745 1975 
Q 2488 2216 2034 2216 
z
M 1403 2484 
Q 997 2584 770 2862 
Q 544 3141 544 3541 
Q 544 4100 942 4425 
Q 1341 4750 2034 4750 
Q 2731 4750 3128 4425 
Q 3525 4100 3525 3541 
Q 3525 3141 3298 2862 
Q 3072 2584 2669 2484 
Q 3125 2378 3379 2068 
Q 3634 1759 3634 1313 
Q 3634 634 3220 271 
Q 2806 -91 2034 -91 
Q 1263 -91 848 271 
Q 434 634 434 1313 
Q 434 1759 690 2068 
Q 947 2378 1403 2484 
z
M 1172 3481 
Q 1172 3119 1398 2916 
Q 1625 2713 2034 2713 
Q 2441 2713 2670 2916 
Q 2900 3119 2900 3481 
Q 2900 3844 2670 4047 
Q 2441 4250 2034 4250 
Q 1625 4250 1398 4047 
Q 1172 3844 1172 3481 
z
" id="DejaVuSans-38" transform="scale(0.015625)"/>
     </defs>
     <use xlink:href="#DejaVuSans-69"/>
     <use x="27.783203" xlink:href="#DejaVuSans-6e"/>
     <use x="91.162109" xlink:href="#DejaVuSans-73"/>
     <use x="143.261719" xlink:href="#DejaVuSans-74"/>
     <use x="182.470703" xlink:href="#DejaVuSans-61"/>
     <use x="243.75" xlink:href="#DejaVuSans-6e"/>
     <use x="307.128906" xlink:href="#DejaVuSans-63"/>
     <use x="362.109375" xlink:href="#DejaVuSans-65"/>
     <use x="423.632812" xlink:href="#DejaVuSans-20"/>
     <use x="455.419922" xlink:href="#DejaVuSans-32"/>
     <use x="519.042969" xlink:href="#DejaVuSans-20"/>
     <use x="550.830078" xlink:href="#DejaVuSans-77"/>
     <use x="632.617188" xlink:href="#DejaVuSans-69"/>
     <use x="660.400391" xlink:href="#DejaVuSans-74"/>
     <use x="699.609375" xlink:href="#DejaVuSans-68"/>
     <use x="762.988281" xlink:href="#DejaVuSans-20"/>
     <use x="794.775391" xlink:href="#DejaVuSans-65"/>
     <use x="856.298828" xlink:href="#DejaVuSans-72"/>
     <use x="895.662109" xlink:href="#DejaVuSans-72"/>
     <use x="934.525391" xlink:href="#DejaVuSans-6f"/>
     <use x="995.707031" xlink:href="#DejaVuSans-72"/>
     <use x="1036.820312" xlink:href="#DejaVuSans-20"/>
     <use x="1068.607422" xlink:href="#DejaVuSans-30"/>
     <use x="1132.230469" xlink:href="#DejaVuSans-2e"/>
     <use x="1164.017578" xlink:href="#DejaVuSans-30"/>
     <use x="1227.640625" xlink:href="#DejaVuSans-31"/>
     <use x="1291.263672" xlink:href="#DejaVuSans-39"/>
     <use x="1354.886719" xlink:href="#DejaVuSans-34"/>
     <use x="1418.509766" xlink:href="#DejaVuSans-35"/>
     <use x="1482.132812" xlink:href="#DejaVuSans-33"/>
     <use x="1545.755859" xlink:href="#DejaVuSans-34"/>
     <use x="1609.378906" xlink:href="#DejaVuSans-35"/>
     <use x="1673.001953" xlink:href="#DejaVuSans-30"/>
     <use x="1736.625" xlink:href="#DejaVuSans-36"/>
     <use x="1800.248047" xlink:href="#DejaVuSans-37"/>
     <use x="1863.871094" xlink:href="#DejaVuSans-31"/>
     <use x="1927.494141" xlink:href="#DejaVuSans-36"/>
     <use x="1991.117188" xlink:href="#DejaVuSans-30"/>
     <use x="2054.740234" xlink:href="#DejaVuSans-37"/>
     <use x="2118.363281" xlink:href="#DejaVuSans-31"/>
     <use x="2181.986328" xlink:href="#DejaVuSans-39"/>
     <use x="2245.609375" xlink:href="#DejaVuSans-38"/>
    </g>
   </g>
   <g id="legend_1">
    <g id="patch_7">
     <path d="M 805.348438 499 
L 900.2 499 
Q 902.2 499 902.2 497 
L 902.2 453.965625 
Q 902.2 451.965625 900.2 451.965625 
L 805.348438 451.965625 
Q 803.348438 451.965625 803.348438 453.965625 
L 803.348438 497 
Q 803.348438 499 805.348438 499 
z
" style="opacity:0.8;stroke:#cccccc;stroke-linejoin:miter;"/>
    </g>
    <g id="line2d_15">
     <path d="M 807.348438 460.064062 
L 827.348438 460.064062 
" style="fill:none;stroke:#8dd3c7;stroke-linecap:square;stroke-width:1.5;"/>
    </g>
    <g id="line2d_16"/>
    <g id="text_14">
     <!-- cost -->
     <g style="fill:#ffffff;" transform="translate(835.348438 463.564062)scale(0.1 -0.1)">
      <use xlink:href="#DejaVuSans-63"/>
      <use x="54.980469" xlink:href="#DejaVuSans-6f"/>
      <use x="116.162109" xlink:href="#DejaVuSans-73"/>
      <use x="168.261719" xlink:href="#DejaVuSans-74"/>
     </g>
    </g>
    <g id="line2d_17">
     <path d="M 807.348438 474.742188 
L 827.348438 474.742188 
" style="fill:none;stroke:#feffb3;stroke-linecap:square;stroke-width:1.5;"/>
    </g>
    <g id="line2d_18"/>
    <g id="text_15">
     <!-- best cost -->
     <g style="fill:#ffffff;" transform="translate(835.348438 478.242188)scale(0.1 -0.1)">
      <defs>
       <path d="M 3116 1747 
Q 3116 2381 2855 2742 
Q 2594 3103 2138 3103 
Q 1681 3103 1420 2742 
Q 1159 2381 1159 1747 
Q 1159 1113 1420 752 
Q 1681 391 2138 391 
Q 2594 391 2855 752 
Q 3116 1113 3116 1747 
z
M 1159 2969 
Q 1341 3281 1617 3432 
Q 1894 3584 2278 3584 
Q 2916 3584 3314 3078 
Q 3713 2572 3713 1747 
Q 3713 922 3314 415 
Q 2916 -91 2278 -91 
Q 1894 -91 1617 61 
Q 1341 213 1159 525 
L 1159 0 
L 581 0 
L 581 4863 
L 1159 4863 
L 1159 2969 
z
" id="DejaVuSans-62" transform="scale(0.015625)"/>
      </defs>
      <use xlink:href="#DejaVuSans-62"/>
      <use x="63.476562" xlink:href="#DejaVuSans-65"/>
      <use x="125" xlink:href="#DejaVuSans-73"/>
      <use x="177.099609" xlink:href="#DejaVuSans-74"/>
      <use x="216.308594" xlink:href="#DejaVuSans-20"/>
      <use x="248.095703" xlink:href="#DejaVuSans-63"/>
      <use x="303.076172" xlink:href="#DejaVuSans-6f"/>
      <use x="364.257812" xlink:href="#DejaVuSans-73"/>
      <use x="416.357422" xlink:href="#DejaVuSans-74"/>
     </g>
    </g>
    <g id="line2d_19">
     <path d="M 807.348438 489.420313 
L 827.348438 489.420313 
" style="fill:none;stroke:#bfbbd9;stroke-linecap:square;stroke-width:1.5;"/>
    </g>
    <g id="line2d_20"/>
    <g id="text_16">
     <!-- temperature -->
     <g style="fill:#ffffff;" transform="translate(835.348438 492.920313)scale(0.1 -0.1)">
      <defs>
       <path d="M 3328 2828 
Q 3544 3216 3844 3400 
Q 4144 3584 4550 3584 
Q 5097 3584 5394 3201 
Q 5691 2819 5691 2113 
L 5691 0 
L 5113 0 
L 5113 2094 
Q 5113 2597 4934 2840 
Q 4756 3084 4391 3084 
Q 3944 3084 3684 2787 
Q 3425 2491 3425 1978 
L 3425 0 
L 2847 0 
L 2847 2094 
Q 2847 2600 2669 2842 
Q 2491 3084 2119 3084 
Q 1678 3084 1418 2786 
Q 1159 2488 1159 1978 
L 1159 0 
L 581 0 
L 581 3500 
L 1159 3500 
L 1159 2956 
Q 1356 3278 1631 3431 
Q 1906 3584 2284 3584 
Q 2666 3584 2933 3390 
Q 3200 3197 3328 2828 
z
" id="DejaVuSans-6d" transform="scale(0.015625)"/>
       <path d="M 1159 525 
L 1159 -1331 
L 581 -1331 
L 581 3500 
L 1159 3500 
L 1159 2969 
Q 1341 3281 1617 3432 
Q 1894 3584 2278 3584 
Q 2916 3584 3314 3078 
Q 3713 2572 3713 1747 
Q 3713 922 3314 415 
Q 2916 -91 2278 -91 
Q 1894 -91 1617 61 
Q 1341 213 1159 525 
z
M 3116 1747 
Q 3116 2381 2855 2742 
Q 2594 3103 2138 3103 
Q 1681 3103 1420 2742 
Q 1159 2381 1159 1747 
Q 1159 1113 1420 752 
Q 1681 391 2138 391 
Q 2594 391 2855 752 
Q 3116 1113 3116 1747 
z
" id="DejaVuSans-70" transform="scale(0.015625)"/>
       <path d="M 544 1381 
L 544 3500 
L 1119 3500 
L 1119 1403 
Q 1119 906 1312 657 
Q 1506 409 1894 409 
Q 2359 409 2629 706 
Q 2900 1003 2900 1516 
L 2900 3500 
L 3475 3500 
L 3475 0 
L 2900 0 
L 2900 538 
Q 2691 219 2414 64 
Q 2138 -91 1772 -91 
Q 1169 -91 856 284 
Q 544 659 544 1381 
z
M 1991 3584 
L 1991 3584 
z
" id="DejaVuSans-75" transform="scale(0.015625)"/>
      </defs>
      <use xlink:href="#DejaVuSans-74"/>
      <use x="39.208984" xlink:href="#DejaVuSans-65"/>
      <use x="100.732422" xlink:href="#DejaVuSans-6d"/>
      <use x="198.144531" xlink:href="#DejaVuSans-70"/>
      <use x="261.621094" xlink:href="#DejaVuSans-65"/>
      <use x="323.144531" xlink:href="#DejaVuSans-72"/>
      <use x="364.257812" xlink:href="#DejaVuSans-61"/>
      <use x="425.537109" xlink:href="#DejaVuSans-74"/>
      <use x="464.746094" xlink:href="#DejaVuSans-75"/>
      <use x="528.125" xlink:href="#DejaVuSans-72"/>
      <use x="566.988281" xlink:href="#DejaVuSans-65"/>
     </g>
    </g>
   </g>
  </g>
 </g>
 <defs>
  <clipPath id="p6b7d69ede0">
   <rect height="434.88" width="781.2" x="126" y="69.12"/>
  </clipPath>
 </defs>
</svg>
