<?xml version="1.0" encoding="utf-8" standalone="no"?>
<!DOCTYPE svg PUBLIC "-//W3C//DTD SVG 1.1//EN"
  "http://www.w3.org/Graphics/SVG/1.1/DTD/svg11.dtd">
<svg height="576pt" version="1.1" viewBox="0 0 1008 576" width="1008pt" xmlns="http://www.w3.org/2000/svg" xmlns:xlink="http://www.w3.org/1999/xlink">
 <metadata>
  <rdf:RDF xmlns:cc="http://creativecommons.org/ns#" xmlns:dc="http://purl.org/dc/elements/1.1/" xmlns:rdf="http://www.w3.org/1999/02/22-rdf-syntax-ns#">
   <cc:Work>
    <dc:type rdf:resource="http://purl.org/dc/dcmitype/StillImage"/>
    <dc:date>2022-01-07T00:38:44.325808</dc:date>
    <dc:format>image/svg+xml</dc:format>
    <dc:creator>
     <cc:Agent>
      <dc:title>Matplotlib v3.4.3, https://matplotlib.org/</dc:title>
     </cc:Agent>
    </dc:creator>
   </cc:Work>
  </rdf:RDF>
 </metadata>
 <defs>
  <style type="text/css">*{stroke-linecap:butt;stroke-linejoin:round;}</style>
 </defs>
 <g id="figure_1">
  <g id="patch_1">
   <path d="M 0 576 
L 1008 576 
L 1008 0 
L 0 0 
z
"/>
  </g>
  <g id="axes_1">
   <g id="patch_2">
    <path d="M 126 504 
L 907.2 504 
L 907.2 69.12 
L 126 69.12 
z
"/>
   </g>
   <g id="matplotlib.axis_1">
    <g id="xtick_1">
     <g id="line2d_1">
      <defs>
       <path d="M 0 0 
L 0 3.5 
" id="md5d3b4f751" style="stroke:#ffffff;stroke-width:0.8;"/>
      </defs>
      <g>
       <use style="fill:#ffffff;stroke:#ffffff;stroke-width:0.8;" x="161.509091" xlink:href="#md5d3b4f751" y="504"/>
      </g>
     </g>
     <g id="text_1">
      <!-- 0 -->
      <g style="fill:#ffffff;" transform="translate(158.327841 518.598438)scale(0.1 -0.1)">
       <defs>
        <path d="M 2034 4250 
Q 1547 4250 1301 3770 
Q 1056 3291 1056 2328 
Q 1056 1369 1301 889 
Q 1547 409 2034 409 
Q 2525 409 2770 889 
Q 3016 1369 3016 2328 
Q 3016 3291 2770 3770 
Q 2525 4250 2034 4250 
z
M 2034 4750 
Q 2819 4750 3233 4129 
Q 3647 3509 3647 2328 
Q 3647 1150 3233 529 
Q 2819 -91 2034 -91 
Q 1250 -91 836 529 
Q 422 1150 422 2328 
Q 422 3509 836 4129 
Q 1250 4750 2034 4750 
z
" id="DejaVuSans-30" transform="scale(0.015625)"/>
       </defs>
       <use xlink:href="#DejaVuSans-30"/>
      </g>
     </g>
    </g>
    <g id="xtick_2">
     <g id="line2d_2">
      <g>
       <use style="fill:#ffffff;stroke:#ffffff;stroke-width:0.8;" x="325.979174" xlink:href="#md5d3b4f751" y="504"/>
      </g>
     </g>
     <g id="text_2">
      <!-- 500 -->
      <g style="fill:#ffffff;" transform="translate(316.435424 518.598438)scale(0.1 -0.1)">
       <defs>
        <path d="M 691 4666 
L 3169 4666 
L 3169 4134 
L 1269 4134 
L 1269 2991 
Q 1406 3038 1543 3061 
Q 1681 3084 1819 3084 
Q 2600 3084 3056 2656 
Q 3513 2228 3513 1497 
Q 3513 744 3044 326 
Q 2575 -91 1722 -91 
Q 1428 -91 1123 -41 
Q 819 9 494 109 
L 494 744 
Q 775 591 1075 516 
Q 1375 441 1709 441 
Q 2250 441 2565 725 
Q 2881 1009 2881 1497 
Q 2881 1984 2565 2268 
Q 2250 2553 1709 2553 
Q 1456 2553 1204 2497 
Q 953 2441 691 2322 
L 691 4666 
z
" id="DejaVuSans-35" transform="scale(0.015625)"/>
       </defs>
       <use xlink:href="#DejaVuSans-35"/>
       <use x="63.623047" xlink:href="#DejaVuSans-30"/>
       <use x="127.246094" xlink:href="#DejaVuSans-30"/>
      </g>
     </g>
    </g>
    <g id="xtick_3">
     <g id="line2d_3">
      <g>
       <use style="fill:#ffffff;stroke:#ffffff;stroke-width:0.8;" x="490.449257" xlink:href="#md5d3b4f751" y="504"/>
      </g>
     </g>
     <g id="text_3">
      <!-- 1000 -->
      <g style="fill:#ffffff;" transform="translate(477.724257 518.598438)scale(0.1 -0.1)">
       <defs>
        <path d="M 794 531 
L 1825 531 
L 1825 4091 
L 703 3866 
L 703 4441 
L 1819 4666 
L 2450 4666 
L 2450 531 
L 3481 531 
L 3481 0 
L 794 0 
L 794 531 
z
" id="DejaVuSans-31" transform="scale(0.015625)"/>
       </defs>
       <use xlink:href="#DejaVuSans-31"/>
       <use x="63.623047" xlink:href="#DejaVuSans-30"/>
       <use x="127.246094" xlink:href="#DejaVuSans-30"/>
       <use x="190.869141" xlink:href="#DejaVuSans-30"/>
      </g>
     </g>
    </g>
    <g id="xtick_4">
     <g id="line2d_4">
      <g>
       <use style="fill:#ffffff;stroke:#ffffff;stroke-width:0.8;" x="654.91934" xlink:href="#md5d3b4f751" y="504"/>
      </g>
     </g>
     <g id="text_4">
      <!-- 1500 -->
      <g style="fill:#ffffff;" transform="translate(642.19434 518.598438)scale(0.1 -0.1)">
       <use xlink:href="#DejaVuSans-31"/>
       <use x="63.623047" xlink:href="#DejaVuSans-35"/>
       <use x="127.246094" xlink:href="#DejaVuSans-30"/>
       <use x="190.869141" xlink:href="#DejaVuSans-30"/>
      </g>
     </g>
    </g>
    <g id="xtick_5">
     <g id="line2d_5">
      <g>
       <use style="fill:#ffffff;stroke:#ffffff;stroke-width:0.8;" x="819.389423" xlink:href="#md5d3b4f751" y="504"/>
      </g>
     </g>
     <g id="text_5">
      <!-- 2000 -->
      <g style="fill:#ffffff;" transform="translate(806.664423 518.598438)scale(0.1 -0.1)">
       <defs>
        <path d="M 1228 531 
L 3431 531 
L 3431 0 
L 469 0 
L 469 531 
Q 828 903 1448 1529 
Q 2069 2156 2228 2338 
Q 2531 2678 2651 2914 
Q 2772 3150 2772 3378 
Q 2772 3750 2511 3984 
Q 2250 4219 1831 4219 
Q 1534 4219 1204 4116 
Q 875 4013 500 3803 
L 500 4441 
Q 881 4594 1212 4672 
Q 1544 4750 1819 4750 
Q 2544 4750 2975 4387 
Q 3406 4025 3406 3419 
Q 3406 3131 3298 2873 
Q 3191 2616 2906 2266 
Q 2828 2175 2409 1742 
Q 1991 1309 1228 531 
z
" id="DejaVuSans-32" transform="scale(0.015625)"/>
       </defs>
       <use xlink:href="#DejaVuSans-32"/>
       <use x="63.623047" xlink:href="#DejaVuSans-30"/>
       <use x="127.246094" xlink:href="#DejaVuSans-30"/>
       <use x="190.869141" xlink:href="#DejaVuSans-30"/>
      </g>
     </g>
    </g>
    <g id="text_6">
     <!-- iteration -->
     <g style="fill:#ffffff;" transform="translate(495.477344 532.276562)scale(0.1 -0.1)">
      <defs>
       <path d="M 603 3500 
L 1178 3500 
L 1178 0 
L 603 0 
L 603 3500 
z
M 603 4863 
L 1178 4863 
L 1178 4134 
L 603 4134 
L 603 4863 
z
" id="DejaVuSans-69" transform="scale(0.015625)"/>
       <path d="M 1172 4494 
L 1172 3500 
L 2356 3500 
L 2356 3053 
L 1172 3053 
L 1172 1153 
Q 1172 725 1289 603 
Q 1406 481 1766 481 
L 2356 481 
L 2356 0 
L 1766 0 
Q 1100 0 847 248 
Q 594 497 594 1153 
L 594 3053 
L 172 3053 
L 172 3500 
L 594 3500 
L 594 4494 
L 1172 4494 
z
" id="DejaVuSans-74" transform="scale(0.015625)"/>
       <path d="M 3597 1894 
L 3597 1613 
L 953 1613 
Q 991 1019 1311 708 
Q 1631 397 2203 397 
Q 2534 397 2845 478 
Q 3156 559 3463 722 
L 3463 178 
Q 3153 47 2828 -22 
Q 2503 -91 2169 -91 
Q 1331 -91 842 396 
Q 353 884 353 1716 
Q 353 2575 817 3079 
Q 1281 3584 2069 3584 
Q 2775 3584 3186 3129 
Q 3597 2675 3597 1894 
z
M 3022 2063 
Q 3016 2534 2758 2815 
Q 2500 3097 2075 3097 
Q 1594 3097 1305 2825 
Q 1016 2553 972 2059 
L 3022 2063 
z
" id="DejaVuSans-65" transform="scale(0.015625)"/>
       <path d="M 2631 2963 
Q 2534 3019 2420 3045 
Q 2306 3072 2169 3072 
Q 1681 3072 1420 2755 
Q 1159 2438 1159 1844 
L 1159 0 
L 581 0 
L 581 3500 
L 1159 3500 
L 1159 2956 
Q 1341 3275 1631 3429 
Q 1922 3584 2338 3584 
Q 2397 3584 2469 3576 
Q 2541 3569 2628 3553 
L 2631 2963 
z
" id="DejaVuSans-72" transform="scale(0.015625)"/>
       <path d="M 2194 1759 
Q 1497 1759 1228 1600 
Q 959 1441 959 1056 
Q 959 750 1161 570 
Q 1363 391 1709 391 
Q 2188 391 2477 730 
Q 2766 1069 2766 1631 
L 2766 1759 
L 2194 1759 
z
M 3341 1997 
L 3341 0 
L 2766 0 
L 2766 531 
Q 2569 213 2275 61 
Q 1981 -91 1556 -91 
Q 1019 -91 701 211 
Q 384 513 384 1019 
Q 384 1609 779 1909 
Q 1175 2209 1959 2209 
L 2766 2209 
L 2766 2266 
Q 2766 2663 2505 2880 
Q 2244 3097 1772 3097 
Q 1472 3097 1187 3025 
Q 903 2953 641 2809 
L 641 3341 
Q 956 3463 1253 3523 
Q 1550 3584 1831 3584 
Q 2591 3584 2966 3190 
Q 3341 2797 3341 1997 
z
" id="DejaVuSans-61" transform="scale(0.015625)"/>
       <path d="M 1959 3097 
Q 1497 3097 1228 2736 
Q 959 2375 959 1747 
Q 959 1119 1226 758 
Q 1494 397 1959 397 
Q 2419 397 2687 759 
Q 2956 1122 2956 1747 
Q 2956 2369 2687 2733 
Q 2419 3097 1959 3097 
z
M 1959 3584 
Q 2709 3584 3137 3096 
Q 3566 2609 3566 1747 
Q 3566 888 3137 398 
Q 2709 -91 1959 -91 
Q 1206 -91 779 398 
Q 353 888 353 1747 
Q 353 2609 779 3096 
Q 1206 3584 1959 3584 
z
" id="DejaVuSans-6f" transform="scale(0.015625)"/>
       <path d="M 3513 2113 
L 3513 0 
L 2938 0 
L 2938 2094 
Q 2938 2591 2744 2837 
Q 2550 3084 2163 3084 
Q 1697 3084 1428 2787 
Q 1159 2491 1159 1978 
L 1159 0 
L 581 0 
L 581 3500 
L 1159 3500 
L 1159 2956 
Q 1366 3272 1645 3428 
Q 1925 3584 2291 3584 
Q 2894 3584 3203 3211 
Q 3513 2838 3513 2113 
z
" id="DejaVuSans-6e" transform="scale(0.015625)"/>
      </defs>
      <use xlink:href="#DejaVuSans-69"/>
      <use x="27.783203" xlink:href="#DejaVuSans-74"/>
      <use x="66.992188" xlink:href="#DejaVuSans-65"/>
      <use x="128.515625" xlink:href="#DejaVuSans-72"/>
      <use x="169.628906" xlink:href="#DejaVuSans-61"/>
      <use x="230.908203" xlink:href="#DejaVuSans-74"/>
      <use x="270.117188" xlink:href="#DejaVuSans-69"/>
      <use x="297.900391" xlink:href="#DejaVuSans-6f"/>
      <use x="359.082031" xlink:href="#DejaVuSans-6e"/>
     </g>
    </g>
   </g>
   <g id="matplotlib.axis_2">
    <g id="ytick_1">
     <g id="line2d_6">
      <defs>
       <path d="M 0 0 
L -3.5 0 
" id="m5f5adaa515" style="stroke:#ffffff;stroke-width:0.8;"/>
      </defs>
      <g>
       <use style="fill:#ffffff;stroke:#ffffff;stroke-width:0.8;" x="126" xlink:href="#m5f5adaa515" y="484.232727"/>
      </g>
     </g>
     <g id="text_7">
      <!-- 0 -->
      <g style="fill:#ffffff;" transform="translate(112.6375 488.031946)scale(0.1 -0.1)">
       <use xlink:href="#DejaVuSans-30"/>
      </g>
     </g>
    </g>
    <g id="ytick_2">
     <g id="line2d_7">
      <g>
       <use style="fill:#ffffff;stroke:#ffffff;stroke-width:0.8;" x="126" xlink:href="#m5f5adaa515" y="422.596755"/>
      </g>
     </g>
     <g id="text_8">
      <!-- 5000 -->
      <g style="fill:#ffffff;" transform="translate(93.55 426.395974)scale(0.1 -0.1)">
       <use xlink:href="#DejaVuSans-35"/>
       <use x="63.623047" xlink:href="#DejaVuSans-30"/>
       <use x="127.246094" xlink:href="#DejaVuSans-30"/>
       <use x="190.869141" xlink:href="#DejaVuSans-30"/>
      </g>
     </g>
    </g>
    <g id="ytick_3">
     <g id="line2d_8">
      <g>
       <use style="fill:#ffffff;stroke:#ffffff;stroke-width:0.8;" x="126" xlink:href="#m5f5adaa515" y="360.960782"/>
      </g>
     </g>
     <g id="text_9">
      <!-- 10000 -->
      <g style="fill:#ffffff;" transform="translate(87.1875 364.760001)scale(0.1 -0.1)">
       <use xlink:href="#DejaVuSans-31"/>
       <use x="63.623047" xlink:href="#DejaVuSans-30"/>
       <use x="127.246094" xlink:href="#DejaVuSans-30"/>
       <use x="190.869141" xlink:href="#DejaVuSans-30"/>
       <use x="254.492188" xlink:href="#DejaVuSans-30"/>
      </g>
     </g>
    </g>
    <g id="ytick_4">
     <g id="line2d_9">
      <g>
       <use style="fill:#ffffff;stroke:#ffffff;stroke-width:0.8;" x="126" xlink:href="#m5f5adaa515" y="299.32481"/>
      </g>
     </g>
     <g id="text_10">
      <!-- 15000 -->
      <g style="fill:#ffffff;" transform="translate(87.1875 303.124029)scale(0.1 -0.1)">
       <use xlink:href="#DejaVuSans-31"/>
       <use x="63.623047" xlink:href="#DejaVuSans-35"/>
       <use x="127.246094" xlink:href="#DejaVuSans-30"/>
       <use x="190.869141" xlink:href="#DejaVuSans-30"/>
       <use x="254.492188" xlink:href="#DejaVuSans-30"/>
      </g>
     </g>
    </g>
    <g id="ytick_5">
     <g id="line2d_10">
      <g>
       <use style="fill:#ffffff;stroke:#ffffff;stroke-width:0.8;" x="126" xlink:href="#m5f5adaa515" y="237.688837"/>
      </g>
     </g>
     <g id="text_11">
      <!-- 20000 -->
      <g style="fill:#ffffff;" transform="translate(87.1875 241.488056)scale(0.1 -0.1)">
       <use xlink:href="#DejaVuSans-32"/>
       <use x="63.623047" xlink:href="#DejaVuSans-30"/>
       <use x="127.246094" xlink:href="#DejaVuSans-30"/>
       <use x="190.869141" xlink:href="#DejaVuSans-30"/>
       <use x="254.492188" xlink:href="#DejaVuSans-30"/>
      </g>
     </g>
    </g>
    <g id="ytick_6">
     <g id="line2d_11">
      <g>
       <use style="fill:#ffffff;stroke:#ffffff;stroke-width:0.8;" x="126" xlink:href="#m5f5adaa515" y="176.052865"/>
      </g>
     </g>
     <g id="text_12">
      <!-- 25000 -->
      <g style="fill:#ffffff;" transform="translate(87.1875 179.852084)scale(0.1 -0.1)">
       <use xlink:href="#DejaVuSans-32"/>
       <use x="63.623047" xlink:href="#DejaVuSans-35"/>
       <use x="127.246094" xlink:href="#DejaVuSans-30"/>
       <use x="190.869141" xlink:href="#DejaVuSans-30"/>
       <use x="254.492188" xlink:href="#DejaVuSans-30"/>
      </g>
     </g>
    </g>
    <g id="ytick_7">
     <g id="line2d_12">
      <g>
       <use style="fill:#ffffff;stroke:#ffffff;stroke-width:0.8;" x="126" xlink:href="#m5f5adaa515" y="114.416893"/>
      </g>
     </g>
     <g id="text_13">
      <!-- 30000 -->
      <g style="fill:#ffffff;" transform="translate(87.1875 118.216111)scale(0.1 -0.1)">
       <defs>
        <path d="M 2597 2516 
Q 3050 2419 3304 2112 
Q 3559 1806 3559 1356 
Q 3559 666 3084 287 
Q 2609 -91 1734 -91 
Q 1441 -91 1130 -33 
Q 819 25 488 141 
L 488 750 
Q 750 597 1062 519 
Q 1375 441 1716 441 
Q 2309 441 2620 675 
Q 2931 909 2931 1356 
Q 2931 1769 2642 2001 
Q 2353 2234 1838 2234 
L 1294 2234 
L 1294 2753 
L 1863 2753 
Q 2328 2753 2575 2939 
Q 2822 3125 2822 3475 
Q 2822 3834 2567 4026 
Q 2313 4219 1838 4219 
Q 1578 4219 1281 4162 
Q 984 4106 628 3988 
L 628 4550 
Q 988 4650 1302 4700 
Q 1616 4750 1894 4750 
Q 2613 4750 3031 4423 
Q 3450 4097 3450 3541 
Q 3450 3153 3228 2886 
Q 3006 2619 2597 2516 
z
" id="DejaVuSans-33" transform="scale(0.015625)"/>
       </defs>
       <use xlink:href="#DejaVuSans-33"/>
       <use x="63.623047" xlink:href="#DejaVuSans-30"/>
       <use x="127.246094" xlink:href="#DejaVuSans-30"/>
       <use x="190.869141" xlink:href="#DejaVuSans-30"/>
       <use x="254.492188" xlink:href="#DejaVuSans-30"/>
      </g>
     </g>
    </g>
   </g>
   <g id="line2d_13">
    <path clip-path="url(#pbfae084fef)" d="M 161.509091 161.161614 
L 161.838031 188.121188 
L 162.166971 184.447684 
L 162.495911 194.321767 
L 162.824852 168.557931 
L 163.153792 175.609086 
L 163.482732 179.28259 
L 163.811672 174.573602 
L 164.140612 191.733056 
L 164.469552 174.573602 
L 164.798493 302.13541 
L 165.456373 311.836912 
L 165.785313 335.455817 
L 166.114253 309.60569 
L 166.443193 331.350861 
L 166.772134 336.429665 
L 167.101074 314.684494 
L 167.430014 317.223896 
L 167.758954 287.626302 
L 168.087894 314.585877 
L 168.416834 310.259031 
L 168.745775 290.782064 
L 169.074715 199.770387 
L 169.403655 226.729962 
L 170.061535 208.226843 
L 170.390475 234.927546 
L 170.719416 229.626852 
L 171.048356 210.149885 
L 171.377296 215.450579 
L 171.706236 242.681351 
L 172.035176 252.555434 
L 172.364116 267.989082 
L 172.693057 254.194951 
L 173.679877 184.965427 
L 174.008817 190.044231 
L 174.666698 230.773281 
L 174.995638 242.64437 
L 175.324578 227.814755 
L 175.653518 224.141251 
L 175.982458 251.100825 
L 176.311398 232.856577 
L 176.640339 206.155874 
L 176.969279 225.632841 
L 177.298219 230.34183 
L 177.627159 203.382255 
L 177.956099 230.082958 
L 178.285039 210.605991 
L 178.94292 253.529282 
L 179.27186 265.104518 
L 179.6008 292.963978 
L 179.92974 295.50338 
L 180.25868 314.980347 
L 180.587621 305.685642 
L 180.916561 278.45487 
L 181.245501 273.376066 
L 181.574441 246.675362 
L 181.903381 242.348517 
L 182.561262 296.279993 
L 182.890202 307.004652 
L 183.219142 287.527685 
L 183.548082 281.746231 
L 183.877022 278.060399 
L 184.534903 250.755664 
L 184.863843 239.180428 
L 185.192783 243.507273 
L 185.521723 238.90923 
L 186.179603 221.379959 
L 186.508544 225.053463 
L 186.837484 254.737347 
L 187.166424 258.657395 
L 187.495364 278.048072 
L 187.824304 265.018228 
L 188.153244 292.877687 
L 188.482185 278.048072 
L 188.811125 291.842203 
L 189.140065 321.439797 
L 189.797945 269.961433 
L 190.126885 259.853133 
L 190.455826 271.428369 
L 190.784766 267.101524 
L 191.442646 293.802227 
L 191.771586 271.317424 
L 192.100526 286.751072 
L 192.429467 296.625154 
L 192.758407 300.952 
L 193.087347 319.282538 
L 193.745227 281.475032 
L 194.074167 251.791148 
L 194.403107 248.117644 
L 194.732048 236.246556 
L 195.060988 231.192406 
L 195.718868 260.210622 
L 196.047808 283.829526 
L 196.376748 279.502681 
L 197.034629 337.046025 
L 197.692509 374.853531 
L 198.021449 382.508718 
L 198.350389 409.468293 
L 198.67933 391.137755 
L 199.00827 394.811259 
L 199.33721 390.10227 
L 199.66615 408.432808 
L 199.99509 404.746977 
L 200.32403 410.121634 
L 200.652971 407.582232 
L 200.981911 377.984638 
L 201.310851 383.063442 
L 201.639791 373.768738 
L 201.968731 376.30814 
L 202.297671 405.905734 
L 202.626612 387.575195 
L 202.955552 376.850536 
L 203.284492 374.311134 
L 203.613432 369.23233 
L 204.271312 378.909178 
L 204.600253 389.633837 
L 205.258133 356.559974 
L 205.587073 351.48117 
L 205.916013 343.825982 
L 206.244953 366.310785 
L 206.573894 340.546948 
L 206.902834 325.113301 
L 207.231774 302.628498 
L 207.560714 307.337486 
L 207.889654 295.58967 
L 208.218594 288.045427 
L 208.547535 289.13022 
L 209.205415 322.290373 
L 209.534355 191.116697 
L 209.863295 205.946312 
L 210.192235 180.182475 
L 210.521176 205.946312 
L 210.850116 176.348718 
L 211.179056 191.733056 
L 211.507996 196.3311 
L 212.165876 255.612578 
L 212.494817 265.486661 
L 212.823757 262.947259 
L 213.152697 276.74139 
L 213.481637 272.143346 
L 213.810577 246.293219 
L 214.139517 234.24955 
L 214.468458 252.580088 
L 214.797398 279.810861 
L 215.126338 270.516156 
L 215.455278 243.285384 
L 215.784218 261.529632 
L 216.113158 249.658543 
L 216.442099 227.173741 
L 216.771039 253.023867 
L 217.099979 234.693329 
L 217.428919 239.291373 
L 217.757859 262.910277 
L 218.41574 272.673415 
L 218.74468 268.987584 
L 219.07362 272.673415 
L 219.40256 246.909579 
L 219.7315 251.236424 
L 220.06044 278.467197 
L 220.389381 290.338285 
L 220.718321 285.629297 
L 221.047261 311.393133 
L 221.376201 307.707302 
L 222.034081 282.042083 
L 222.363022 276.987934 
L 222.691962 280.673765 
L 223.020902 253.71419 
L 223.349842 239.38999 
L 224.007722 281.339433 
L 224.336663 277.012588 
L 224.665603 258.76834 
L 225.323483 304.946011 
L 225.652423 295.651306 
L 225.981363 322.61088 
L 226.310304 333.33554 
L 226.639244 323.461457 
L 226.968184 327.788302 
L 227.297124 304.169397 
L 227.626064 298.794741 
L 227.955004 322.413645 
L 228.283945 327.122634 
L 228.612885 301.358797 
L 228.941825 315.152928 
L 229.270765 304.428268 
L 229.599705 299.830225 
L 229.928645 280.353258 
L 230.257586 253.393683 
L 230.586526 262.688388 
L 230.915466 233.090794 
L 231.244406 226.631344 
L 231.573346 241.460959 
L 231.902286 211.777075 
L 232.231227 231.254042 
L 232.560167 240.277548 
L 233.218047 250.632392 
L 233.546987 245.578242 
L 233.875927 272.537816 
L 234.204868 255.378362 
L 234.533808 251.69253 
L 234.862748 267.656247 
L 235.191688 295.515707 
L 235.520628 268.815004 
L 236.178509 281.844848 
L 236.836389 272.057056 
L 237.165329 272.057056 
L 237.494269 290.387594 
L 238.15215 345.749024 
L 238.48109 336.45432 
L 238.81003 363.155023 
L 239.46791 353.527484 
L 239.79685 362.822189 
L 240.454731 336.121486 
L 241.112611 285.00061 
L 241.441551 314.684494 
L 241.770491 298.893358 
L 242.099432 310.468594 
L 242.428372 282.609134 
L 242.757312 267.175487 
L 243.086252 286.652454 
L 243.415192 296.711445 
L 243.744132 314.696822 
L 244.073073 307.041634 
L 244.402013 324.201088 
L 244.730953 304.724121 
L 245.059893 302.184719 
L 245.388833 307.238869 
L 245.717773 333.939572 
L 246.046714 336.478974 
L 246.375654 351.308589 
L 246.704594 192.756214 
L 247.033534 184.570956 
L 247.362474 194.22315 
L 248.020355 220.097931 
L 248.678235 168.015534 
L 249.336115 224.400122 
L 249.665055 208.695276 
L 249.993996 222.489407 
L 250.651876 198.821193 
L 250.980816 201.718084 
L 251.309756 209.878687 
L 251.638696 194.445039 
L 251.967637 203.394582 
L 252.296577 230.625355 
L 252.625517 219.900696 
L 252.954457 243.704508 
L 253.283397 243.704508 
L 253.612337 231.241715 
L 254.270218 254.909928 
L 254.928098 244.937228 
L 255.257038 265.733205 
L 255.585978 236.049321 
L 255.914919 265.326408 
L 256.243859 189.797687 
L 256.572799 193.471191 
L 257.230679 239.907732 
L 257.559619 247.56292 
L 257.88856 232.733305 
L 258.2175 237.442294 
L 258.54644 249.313382 
L 258.87538 254.392186 
L 259.20432 281.622959 
L 259.53326 273.967771 
L 259.862201 247.008197 
L 260.191141 229.848742 
L 260.520081 237.50393 
L 260.849021 232.129273 
L 261.177961 221.404614 
L 261.506901 204.269813 
L 261.835842 230.970516 
L 262.164782 201.286632 
L 262.822662 191.609784 
L 263.151602 195.295616 
L 263.480542 209.422581 
L 263.809483 192.756214 
L 264.138423 222.440098 
L 264.467363 227.740792 
L 264.796303 247.723174 
L 265.125243 243.396329 
L 265.454183 253.270411 
L 265.783123 280.229986 
L 266.441004 234.989182 
L 266.769944 240.363839 
L 267.427824 233.004504 
L 267.756764 222.279844 
L 268.085705 249.288728 
L 268.414645 260.013387 
L 268.743585 255.304398 
L 269.072525 277.481021 
L 269.401465 269.825834 
L 269.730405 284.655449 
L 270.059346 273.930789 
L 270.388286 277.604293 
L 270.717226 290.560175 
L 271.046166 262.700715 
L 271.704046 312.305346 
L 272.032987 292.828378 
L 272.361927 264.968919 
L 272.690867 292.828378 
L 273.348747 258.620414 
L 273.677687 286.479873 
L 274.006628 271.046226 
L 274.335568 293.531029 
L 274.664508 297.21686 
L 274.993448 287.342777 
L 275.322388 284.803375 
L 275.651328 297.61133 
L 275.980269 285.740242 
L 276.309209 302.899696 
L 276.638149 295.244509 
L 276.967089 280.414894 
L 277.296029 280.414894 
L 277.624969 250.731009 
L 277.95391 238.181925 
L 278.28285 245.220753 
L 278.61179 227.161413 
L 278.94073 256.845298 
L 279.26967 253.171794 
L 279.59861 257.930091 
L 279.927551 272.759706 
L 280.256491 270.220304 
L 280.585431 279.515008 
L 280.914371 274.916965 
L 281.243311 212.812559 
L 281.572251 212.812559 
L 281.901192 208.818548 
L 282.230132 229.059801 
L 282.559072 238.354506 
L 282.888012 222.920858 
L 283.216952 227.975008 
L 283.545892 202.124881 
L 283.874833 229.984341 
L 284.203773 245.417988 
L 284.532713 250.496793 
L 284.861653 269.97376 
L 285.190593 264.673066 
L 285.519533 237.713492 
L 285.848474 267.397376 
L 286.177414 245.652205 
L 286.506354 250.472138 
L 286.835294 230.995171 
L 287.164234 221.121088 
L 287.493174 194.062896 
L 287.822115 194.062896 
L 288.151055 208.892511 
L 288.479995 235.852086 
L 289.137875 181.033052 
L 289.466815 186.826833 
L 289.795756 197.551492 
L 290.124696 201.878337 
L 290.453636 197.169349 
L 290.782576 211.998964 
L 291.111516 208.313133 
L 291.440456 215.968321 
L 291.769397 228.998165 
L 292.098337 215.204035 
L 292.427277 225.879385 
L 292.756217 230.588373 
L 293.085157 225.879385 
L 293.414097 196.195501 
L 293.743038 222.045628 
L 294.071978 219.506226 
L 294.400918 231.549895 
L 294.729858 211.000461 
L 295.058798 213.231684 
L 295.387738 208.152879 
L 295.716679 187.23363 
L 296.045619 184.472339 
L 296.374559 188.15817 
L 296.703499 215.388943 
L 297.032439 229.183073 
L 297.361379 234.483767 
L 297.69032 208.71993 
L 298.01926 230.465102 
L 298.3482 208.71993 
L 298.67714 218.594013 
L 299.00608 212.812559 
L 299.33502 200.941471 
L 299.663961 202.0879 
L 299.992901 202.0879 
L 300.321841 205.884676 
L 300.650781 220.714291 
L 301.308661 199.264972 
L 301.637602 211.456568 
L 301.966542 217.238022 
L 302.295482 197.761055 
L 302.624422 219.506226 
L 302.953362 214.452076 
L 303.282302 224.326159 
L 303.611243 220.640327 
L 303.940183 238.884575 
L 304.269123 233.583882 
L 304.598063 222.859223 
L 305.255943 260.777673 
L 305.584884 239.032502 
L 305.913824 229.737797 
L 306.242764 226.064293 
L 306.900644 201.952301 
L 307.229584 207.376266 
L 307.558525 216.670971 
L 307.887465 204.799883 
L 308.216405 200.201839 
L 308.545345 205.502533 
L 309.203225 253.01154 
L 309.861106 200.016931 
L 310.190046 194.642274 
L 310.518986 195.024417 
L 310.847926 199.622461 
L 311.176866 182.512315 
L 311.505807 194.087551 
L 312.163687 177.137658 
L 312.492627 191.412549 
L 312.821567 210.889517 
L 313.150507 206.180528 
L 313.479448 219.074774 
L 313.808388 246.034348 
L 314.137328 216.436754 
L 314.466268 220.763599 
L 314.795208 246.527436 
L 315.124148 254.182624 
L 315.782029 208.94182 
L 316.110969 193.508172 
L 316.439909 205.379261 
L 316.768849 191.58513 
L 317.097789 214.069933 
L 317.75567 203.690435 
L 318.08461 217.484566 
L 318.41355 217.484566 
L 318.74249 192.164508 
L 319.07143 183.214965 
L 319.729311 237.060151 
L 320.058251 255.624905 
L 320.387191 225.941021 
L 320.716131 218.100925 
L 321.702952 234.681002 
L 322.031892 212.935831 
L 322.689772 252.92525 
L 323.347653 243.248402 
L 324.005533 253.036195 
L 324.334473 227.186068 
L 324.663413 229.72547 
L 324.992353 234.323513 
L 325.321294 226.668326 
L 325.650234 211.838711 
L 325.979174 231.315678 
L 326.308114 236.369828 
L 327.294935 220.960835 
L 327.623875 217.275003 
L 327.952815 194.247804 
L 328.281755 263.391038 
L 328.610695 241.769139 
L 328.939635 253.640227 
L 329.597516 262.947259 
L 330.255396 287.466049 
L 330.584336 315.325508 
L 330.913276 288.094736 
L 331.242217 276.223647 
L 331.571157 246.626053 
L 331.900097 258.497142 
L 332.229037 243.667527 
L 332.557977 215.808067 
L 332.886917 197.477529 
L 333.215858 207.351612 
L 333.544798 231.52524 
L 333.873738 201.841356 
L 334.202678 213.416592 
L 335.189499 265.425025 
L 335.518439 260.050368 
L 335.847379 241.80612 
L 336.176319 232.511416 
L 336.505259 235.050818 
L 336.834199 211.431913 
L 337.16314 238.132616 
L 337.49208 211.431913 
L 338.14996 246.835616 
L 338.4789 270.45452 
L 338.80784 265.745532 
L 339.13678 253.874444 
L 339.465721 280.575147 
L 339.794661 270.701064 
L 340.123601 297.931837 
L 340.781481 288.254989 
L 341.439362 295.614324 
L 341.768302 291.287479 
L 342.097242 295.885523 
L 342.426182 288.230335 
L 342.755122 303.05995 
L 343.084062 275.20049 
L 343.413003 280.279294 
L 344.399823 232.856577 
L 344.728763 242.73066 
L 345.057703 216.966824 
L 345.386644 211.66613 
L 345.715584 193.335592 
L 346.044524 200.990779 
L 346.373464 187.196649 
L 346.702404 275.262126 
L 347.031344 277.801528 
L 347.360285 249.942069 
L 347.689225 276.901643 
L 348.018165 247.304049 
L 348.347105 250.977553 
L 348.676045 247.304049 
L 349.004985 250.546101 
L 349.333926 246.219256 
L 349.662866 266.694726 
L 349.991806 261.394033 
L 350.320746 266.472837 
L 350.649686 246.995869 
L 350.978626 246.971215 
L 351.307567 237.097132 
L 352.294387 321.378161 
L 352.952267 312.995669 
L 353.281208 308.28668 
L 353.610148 314.068135 
L 353.939088 287.367431 
L 354.268028 316.965025 
L 354.596968 289.105566 
L 354.925908 302.13541 
L 355.254849 172.934085 
L 355.583789 161.173941 
L 355.912729 178.57994 
L 356.241669 180.68789 
L 356.570609 175.609086 
L 356.899549 201.459213 
L 357.55743 193.064393 
L 358.21531 244.222251 
L 358.54425 253.516955 
L 358.87319 280.47653 
L 359.531071 232.030655 
L 360.188951 283.459711 
L 360.517891 274.165006 
L 360.846831 291.324461 
L 361.175772 271.847493 
L 361.504712 275.533325 
L 361.833652 280.834018 
L 362.162592 254.983891 
L 362.491532 241.189761 
L 362.820472 270.787355 
L 363.149413 260.913272 
L 363.478353 256.586427 
L 363.807293 229.281691 
L 364.465173 249.89276 
L 364.794113 240.018677 
L 365.123054 274.128024 
L 365.451994 288.698768 
L 366.109874 297.672966 
L 366.438814 283.878835 
L 366.767754 264.401868 
L 367.096695 266.94127 
L 367.425635 289.426073 
L 367.754575 300.150732 
L 368.412455 290.745083 
L 368.741395 268.26028 
L 369.070336 282.05441 
L 369.399276 276.753717 
L 369.728216 264.882629 
L 370.057156 284.359596 
L 370.386096 264.882629 
L 370.715036 238.021672 
L 371.043977 282.473535 
L 371.372917 308.323662 
L 371.701857 174.524293 
L 372.030797 202.383752 
L 372.688677 223.549545 
L 373.017618 228.850239 
L 373.346558 223.796089 
L 374.004438 249.165456 
L 374.333378 254.540112 
L 374.662318 239.710497 
L 374.991259 256.869952 
L 375.320199 253.184121 
L 375.649139 242.459462 
L 376.307019 205.884676 
L 376.635959 194.30944 
L 376.9649 212.639978 
L 377.29384 217.718782 
L 377.62278 199.388244 
L 377.95172 203.715089 
L 378.28066 186.555635 
L 378.6096 196.429718 
L 378.938541 235.075472 
L 379.267481 225.201389 
L 379.596421 244.678357 
L 379.925361 251.137807 
L 380.254301 246.539763 
L 380.583241 263.699218 
L 380.912182 254.404513 
L 381.241122 266.275602 
L 381.570062 261.196797 
L 382.556882 293.370775 
L 383.214763 250.447484 
L 383.543703 258.102672 
L 383.872643 255.56327 
L 384.201583 236.086302 
L 384.530523 238.625704 
L 384.859464 243.223748 
L 385.188404 231.35266 
L 385.517344 227.679156 
L 385.846284 198.081562 
L 386.175224 227.765446 
L 386.504164 227.765446 
L 386.833105 231.43895 
L 387.162045 249.683198 
L 387.490985 238.958539 
L 388.148865 280.180677 
L 388.477805 268.605441 
L 388.806746 250.361193 
L 389.135686 267.520648 
L 389.464626 263.193803 
L 389.793566 241.448632 
L 390.122506 268.679404 
L 390.451446 268.593114 
L 391.109327 288.612478 
L 391.438267 314.462605 
L 391.767207 288.612478 
L 392.096147 277.887819 
L 392.425087 307.485413 
L 392.754028 181.378213 
L 393.082968 271.206479 
L 393.411908 265.092191 
L 393.740848 270.146341 
L 394.069788 295.996467 
L 394.398728 307.571703 
L 395.385549 276.82768 
L 395.714489 281.327106 
L 396.043429 295.121237 
L 396.372369 322.980696 
L 396.70131 304.736448 
L 397.03025 309.063294 
L 397.35919 320.934382 
L 397.68813 295.084255 
L 398.01707 313.242213 
L 398.34601 283.644619 
L 398.674951 295.219854 
L 399.003891 289.919161 
L 399.332831 263.218457 
L 399.661771 290.128723 
L 399.990711 293.469393 
L 400.319651 170.690535 
L 400.648592 157.500437 
L 401.306472 184.201141 
L 401.635412 197.995271 
L 401.964352 184.201141 
L 402.293292 203.678108 
L 402.622233 211.333296 
L 403.280113 191.313932 
L 403.609053 179.442843 
L 404.266933 210.334793 
L 404.595874 228.579041 
L 404.924814 237.873745 
L 405.582694 204.19585 
L 405.911634 222.440098 
L 406.240574 217.139404 
L 406.898455 185.150335 
L 407.227395 185.150335 
L 407.556335 267.434358 
L 407.885275 284.260978 
L 408.214215 283.965126 
L 408.543156 291.620313 
L 408.872096 306.745781 
L 409.201036 291.620313 
L 409.529976 291.37377 
L 409.858916 291.37377 
L 410.187856 314.992674 
L 410.516796 304.268015 
L 410.845737 322.512263 
L 411.174677 307.682648 
L 411.503617 318.407307 
L 411.832557 291.706604 
L 412.161497 291.447733 
L 412.490437 310.9247 
L 412.819378 179.381208 
L 413.148318 168.964728 
L 413.477258 194.814855 
L 413.806198 198.500686 
L 414.464078 163.590071 
L 414.793019 133.992477 
L 415.121959 124.697773 
L 415.450899 138.442595 
L 415.779839 134.115749 
L 416.108779 143.410454 
L 416.437719 173.008048 
L 416.76666 186.802179 
L 417.0956 183.128675 
L 417.42454 208.892511 
L 418.08242 229.491253 
L 418.41136 234.570057 
L 418.740301 264.253942 
L 419.727121 220.640327 
L 420.056061 228.825585 
L 420.385001 233.15243 
L 420.713942 228.073626 
L 421.371822 237.725819 
L 421.700762 232.425125 
L 422.029702 221.281342 
L 422.358642 221.281342 
L 422.687583 220.985489 
L 423.016523 236.641026 
L 423.345463 240.31453 
L 423.674403 258.558778 
L 424.003343 253.504628 
L 424.332283 258.583432 
L 424.661224 231.35266 
L 424.990164 243.223748 
L 425.319104 239.537917 
L 425.648044 267.397376 
L 425.976984 263.723872 
L 426.305924 234.039988 
L 426.634865 260.740691 
L 427.292745 209.262327 
L 427.621685 226.421782 
L 427.950625 199.462207 
L 428.279565 226.69298 
L 428.608506 223.327656 
L 428.937446 228.62835 
L 429.266386 201.397577 
L 430.253206 185.963929 
L 430.582147 191.264623 
L 430.911087 217.11475 
L 431.240027 199.955295 
L 431.568967 213.749426 
L 431.897907 195.505178 
L 432.226847 222.464752 
L 432.555788 219.92535 
L 432.884728 225.127426 
L 433.213668 251.82813 
L 433.871548 226.458763 
L 434.200488 268.26028 
L 434.529429 238.662686 
L 434.858369 225.793095 
L 435.187309 196.10921 
L 435.516249 200.707254 
L 436.174129 238.51476 
L 436.83201 215.068436 
L 437.16095 226.939524 
L 437.48989 232.314181 
L 437.81883 229.774779 
L 438.14777 203.924652 
L 438.805651 220.973162 
L 439.134591 220.973162 
L 439.463531 223.512564 
L 439.792471 208.682949 
L 440.121411 218.557032 
L 440.450352 244.407158 
L 440.779292 214.809565 
L 441.108232 210.211521 
L 441.437172 239.809115 
L 441.766112 230.51441 
L 442.095052 252.999213 
L 442.423993 248.290225 
L 442.752933 257.584929 
L 443.081873 227.987335 
L 443.410813 242.81695 
L 443.739753 221.071779 
L 444.068693 216.01763 
L 444.397634 206.143547 
L 444.726574 210.470392 
L 445.055514 182.610932 
L 446.042334 258.583432 
L 446.371275 258.583432 
L 446.700215 284.495195 
L 447.029155 257.264422 
L 448.015975 271.872148 
L 448.344916 253.54161 
L 448.673856 271.872148 
L 449.002796 254.712693 
L 449.331736 259.039538 
L 449.989616 308.015482 
L 450.318557 304.341978 
L 450.647497 309.396128 
L 450.976437 295.601997 
L 451.305377 313.846245 
L 451.634317 317.519749 
L 451.963257 334.679204 
L 452.292198 316.348666 
L 452.621138 310.974009 
L 452.950078 292.729761 
L 453.279018 285.61697 
L 453.607958 296.871698 
L 453.936898 267.187814 
L 454.265839 296.945661 
L 454.594779 275.20049 
L 454.923719 304.798084 
L 455.252659 297.142897 
L 455.581599 324.102471 
L 455.910539 319.775626 
L 456.23948 304.946011 
L 456.56842 308.631842 
L 456.89736 281.672267 
L 457.2263 277.456367 
L 457.55524 295.700615 
L 457.88418 304.995319 
L 458.213121 299.916515 
L 458.542061 270.232631 
L 458.871001 281.807867 
L 459.199941 278.122035 
L 459.528881 252.271909 
L 459.857821 254.55244 
L 460.186762 282.066738 
L 460.515702 296.896353 
L 460.844642 267.298759 
L 461.173582 272.007747 
L 461.831462 255.057855 
L 462.160403 250.459811 
L 462.489343 228.307842 
L 462.818283 255.267417 
L 463.147223 239.833769 
L 463.476163 211.97431 
L 463.805103 230.304848 
L 464.134044 225.226044 
L 464.462984 251.076171 
L 464.791924 258.731358 
L 465.120864 263.329402 
L 465.778744 317.260878 
L 466.765565 270.392884 
L 467.094505 288.637132 
L 467.423445 258.953248 
L 467.752385 280.698419 
L 468.081326 253.738845 
L 468.410266 250.065341 
L 468.739206 255.144145 
L 469.397086 283.767891 
L 469.726026 289.142547 
L 470.054967 286.603145 
L 470.383907 274.732057 
L 470.712847 302.591517 
L 471.041787 275.360744 
L 471.370727 270.7627 
L 471.699667 251.285733 
L 472.028608 253.825135 
L 472.357548 269.258783 
L 472.686488 258.534123 
L 473.015428 288.218008 
L 473.344368 235.753468 
L 473.673308 235.753468 
L 474.002249 208.522695 
L 474.331189 235.753468 
L 474.660129 231.426623 
L 475.318009 282.855678 
L 475.646949 277.554984 
L 476.30483 325.803624 
L 476.63377 296.20603 
L 476.96271 314.536568 
L 477.29165 287.576994 
L 477.62059 303.010641 
L 477.949531 308.089445 
L 478.278471 280.858673 
L 478.607411 276.149684 
L 478.936351 281.450378 
L 479.594231 270.36823 
L 479.923172 274.695075 
L 480.252112 304.292669 
L 480.581052 309.593363 
L 480.909992 307.053961 
L 481.238932 281.290124 
L 481.567872 271.416042 
L 481.896812 297.266168 
L 482.225753 267.582284 
L 482.554693 285.826532 
L 482.883633 288.365934 
L 483.212573 276.494846 
L 483.541513 273.955444 
L 484.199394 240.055659 
L 484.857274 275.73056 
L 485.186214 257.486312 
L 485.515154 261.159816 
L 485.844094 257.486312 
L 486.173035 246.219256 
L 486.501975 226.742289 
L 486.830915 259.890115 
L 487.159855 264.488158 
L 487.488795 249.054511 
L 487.817735 278.652105 
L 488.146676 287.946809 
L 488.475616 265.462007 
L 488.804556 291.312134 
L 489.133496 264.61143 
L 489.462436 260.39553 
L 489.791376 260.013387 
L 490.120317 240.080313 
L 490.449257 267.976754 
L 490.778197 263.649909 
L 491.107137 194.30944 
L 491.436077 189.982595 
L 491.765017 194.580638 
L 492.093958 221.811411 
L 492.422898 194.580638 
L 492.751838 180.786508 
L 493.080778 271.798185 
L 493.409718 281.092889 
L 493.738658 277.407058 
L 494.067599 264.845647 
L 494.396539 264.91961 
L 494.725479 268.605441 
L 495.054419 274.386896 
L 495.383359 262.515807 
L 495.712299 284.260978 
L 496.04124 268.827331 
L 496.37018 274.128024 
L 496.69912 301.087599 
L 497.02806 305.685642 
L 497.357 286.208675 
L 497.68594 312.909378 
L 498.014881 235.741141 
L 498.343821 239.414645 
L 498.672761 235.741141 
L 499.001701 252.900595 
L 499.330641 243.692181 
L 499.659581 216.461409 
L 499.988522 231.291024 
L 500.317462 226.964178 
L 500.646402 216.547699 
L 501.304282 226.680653 
L 501.633222 215.105417 
L 502.291103 256.241265 
L 502.620043 250.866608 
L 502.948983 277.826183 
L 503.277923 264.032052 
L 503.606863 237.072478 
L 503.935804 244.727666 
L 504.264744 215.043781 
L 504.593684 249.325709 
L 504.922624 244.025015 
L 505.580504 241.892411 
L 505.909445 235.913721 
L 506.238385 265.597606 
L 506.567325 238.366833 
L 507.225205 267.348067 
L 507.554145 283.151531 
L 507.883086 283.151531 
L 508.212026 288.526188 
L 508.540966 297.820892 
L 508.869906 293.222849 
L 509.198846 285.567661 
L 509.527786 267.237123 
L 509.856727 278.812358 
L 510.185667 249.128474 
L 510.514607 246.589072 
L 510.843547 276.272956 
L 511.172487 279.63828 
L 511.501427 275.42238 
L 511.830368 302.381954 
L 512.159308 275.151182 
L 512.488248 269.369727 
L 512.817188 243.605891 
L 513.146128 258.435506 
L 513.475068 249.140801 
L 513.804009 256.795989 
L 514.132949 256.795989 
L 514.790829 301.82723 
L 515.119769 272.229636 
L 515.448709 297.993473 
L 516.10659 325.298209 
L 516.43553 306.967671 
L 516.76447 326.444638 
L 517.09341 335.739343 
L 517.42235 338.278745 
L 517.751291 312.428618 
L 518.080231 304.77343 
L 518.409171 330.623557 
L 518.738111 341.348216 
L 519.067051 368.578989 
L 519.724932 359.518501 
L 520.053872 354.439697 
L 520.382812 336.195449 
L 520.711752 329.674363 
L 521.040692 150.769789 
L 521.698573 204.072578 
L 522.027513 204.072578 
L 522.356453 186.913123 
L 522.685393 279.4657 
L 523.014333 278.085054 
L 523.343273 277.44404 
L 523.672214 257.967072 
L 524.001154 263.267766 
L 524.330094 270.922954 
L 524.659034 255.489306 
L 524.987974 260.08735 
L 525.316914 278.331598 
L 525.645855 284.113052 
L 525.974795 313.796936 
L 526.303735 318.851086 
L 526.632675 348.44868 
L 526.961615 318.764796 
L 527.290555 318.764796 
L 527.619496 314.166752 
L 527.948436 318.764796 
L 528.277376 316.225394 
L 528.935256 287.601648 
L 529.264196 291.928493 
L 529.922077 244.333195 
L 530.251017 266.078366 
L 530.579957 277.653602 
L 530.908897 283.028259 
L 531.237837 255.797486 
L 531.895718 235.198744 
L 532.224658 208.23917 
L 532.553598 212.948158 
L 532.882538 232.425125 
L 533.211478 223.130421 
L 533.540419 223.130421 
L 533.869359 241.460959 
L 534.198299 229.885723 
L 534.527239 239.180428 
L 534.856179 234.126278 
L 535.185119 248.955893 
L 535.51406 276.186666 
L 535.843 257.856128 
L 536.17194 225.756113 
L 536.50088 231.537567 
L 536.82982 226.458763 
L 537.15876 211.629148 
L 537.487701 211.875692 
L 537.816641 210.334793 
L 538.474521 240.598055 
L 538.803461 214.747929 
L 539.461342 204.602647 
L 539.790282 230.366484 
L 540.448162 239.131119 
L 540.777102 229.257036 
L 541.106042 224.930191 
L 541.763923 233.966025 
L 542.421803 224.338486 
L 542.750743 224.338486 
L 543.079683 198.574649 
L 543.408624 183.141002 
L 543.737564 193.865661 
L 544.395444 242.311535 
L 544.724384 231.586876 
L 545.053324 235.913721 
L 545.382265 251.347369 
L 545.711205 251.347369 
L 546.040145 269.591617 
L 546.369085 265.905786 
L 546.698025 265.905786 
L 547.026965 260.124331 
L 547.355906 285.888168 
L 547.684846 270.45452 
L 548.013786 243.753817 
L 548.342726 243.753817 
L 548.671666 239.155774 
L 549.000606 231.673167 
L 549.658487 231.673167 
L 549.987427 257.437003 
L 550.316367 261.763848 
L 550.645307 235.063145 
L 550.974247 220.295166 
L 551.303188 220.295166 
L 551.632128 249.97905 
L 551.961068 251.347369 
L 552.290008 263.218457 
L 552.618948 251.347369 
L 552.947888 268.593114 
L 553.276828 268.593114 
L 553.605769 253.159467 
L 553.934709 261.061198 
L 554.263649 253.40601 
L 554.592589 256.96857 
L 554.921529 253.603246 
L 555.250469 243.248402 
L 555.57941 250.854281 
L 556.23729 299.63299 
L 556.56623 295.034946 
L 556.89517 298.70845 
L 557.22411 287.133215 
L 557.553051 282.806369 
L 557.881991 263.329402 
L 558.210931 268.026063 
L 558.539871 266.01673 
L 558.868811 269.702562 
L 559.197751 297.562021 
L 559.526692 280.402566 
L 559.855632 270.528484 
L 560.184572 281.253143 
L 560.513512 226.150583 
L 560.842452 248.635386 
L 561.500333 248.635386 
L 561.829273 244.037343 
L 562.158213 273.721227 
L 562.816093 242.767642 
L 563.145033 233.288029 
L 563.473974 259.051866 
L 564.131854 268.03839 
L 564.460794 262.737697 
L 564.789734 267.33574 
L 565.447615 267.33574 
L 565.776555 261.554286 
L 566.434435 293.839208 
L 566.763375 283.965126 
L 567.092315 261.480323 
L 567.750196 261.480323 
L 568.079136 266.534473 
L 568.408076 236.850588 
L 568.737016 232.252545 
L 569.065956 210.507374 
L 569.394897 213.749426 
L 569.723837 240.980198 
L 570.052777 240.980198 
L 570.381717 246.280892 
L 570.710657 231.451277 
L 571.039597 246.280892 
L 571.368538 274.140352 
L 572.026418 284.113052 
L 572.355358 310.813755 
L 572.684298 310.813755 
L 573.013238 306.48691 
L 573.342179 320.281041 
L 573.671119 252.986886 
L 574.000059 231.808766 
L 574.328999 240.437802 
L 574.657939 268.297261 
L 574.986879 244.678357 
L 575.31582 234.804274 
L 575.64476 230.477429 
L 576.30264 230.477429 
L 576.96052 240.178931 
L 577.289461 240.178931 
L 577.947341 231.451277 
L 578.276281 258.68205 
L 578.934161 294.172043 
L 579.263102 294.172043 
L 579.592042 303.466747 
L 580.249922 255.131818 
L 580.578862 262.787005 
L 580.907802 245.627551 
L 581.236743 266.5468 
L 581.894623 266.522145 
L 582.223563 268.112354 
L 582.881443 278.491851 
L 583.210384 290.067087 
L 583.868264 341.545451 
L 584.197204 336.947408 
L 584.526144 180.182475 
L 584.855084 168.126479 
L 585.184025 168.126479 
L 585.512965 164.452975 
L 586.170845 164.452975 
L 586.499785 155.712994 
L 587.157666 155.712994 
L 587.486606 161.013688 
L 587.815546 148.181078 
L 588.144486 151.854582 
L 588.473426 162.579241 
L 588.802366 156.797787 
L 589.460247 156.797787 
L 589.789187 178.419686 
L 590.118127 178.419686 
L 590.447067 168.545604 
L 590.776007 168.545604 
L 591.104948 171.085006 
L 591.433888 168.545604 
L 591.762828 195.776376 
L 592.091768 204.134214 
L 592.420708 204.134214 
L 592.749648 233.818098 
L 593.736469 233.818098 
L 594.065409 229.491253 
L 594.394349 208.94182 
L 594.723289 208.94182 
L 595.05223 214.316477 
L 595.38117 190.697572 
L 595.71011 202.272808 
L 596.03905 187.443193 
L 596.36799 163.910578 
L 596.69693 173.205283 
L 597.025871 167.904589 
L 597.354811 172.502633 
L 597.683751 172.502633 
L 598.012691 176.188464 
L 598.341631 176.188464 
L 598.670571 191.622112 
L 598.999512 164.921408 
L 599.657392 164.921408 
L 599.986332 155.626704 
L 600.315272 164.921408 
L 600.644212 160.594563 
L 600.973153 160.594563 
L 601.302093 183.079366 
L 601.631033 172.354707 
L 601.959973 187.184322 
L 602.288913 214.143896 
L 602.946794 214.143896 
L 603.275734 202.56866 
L 603.604674 180.823489 
L 603.933614 180.823489 
L 604.262554 151.225895 
L 604.591494 147.663336 
L 604.920435 152.372324 
L 605.249375 163.096984 
L 605.578315 163.096984 
L 605.907255 157.722327 
L 606.236195 157.722327 
L 606.565135 162.049172 
L 606.894076 174.499639 
L 607.223016 169.901595 
L 607.551956 172.73685 
L 607.880896 157.907235 
L 610.841358 157.907235 
L 611.499238 163.63938 
L 611.828178 163.63938 
L 612.157118 191.49884 
L 612.486058 174.339385 
L 613.472879 174.339385 
L 613.801819 178.937429 
L 614.130759 195.665431 
L 615.11758 195.665431 
L 615.44652 169.901595 
L 615.77546 177.186967 
L 616.1044 177.186967 
L 616.43334 203.037094 
L 616.762281 177.186967 
L 617.091221 173.513463 
L 617.420161 173.513463 
L 617.749101 174.881782 
L 618.078041 174.881782 
L 618.406981 179.097682 
L 619.393802 179.097682 
L 619.722742 175.683049 
L 620.051682 153.605044 
L 620.709563 153.518753 
L 621.038503 141.647665 
L 621.367443 156.47728 
L 622.025323 156.47728 
L 622.354263 166.351363 
L 622.683204 158.696175 
L 623.012144 147.971516 
L 623.341084 147.971516 
L 623.670024 159.842604 
L 624.985785 159.842604 
L 625.314725 154.467947 
L 627.617306 154.554238 
L 627.946246 132.96932 
L 629.919887 132.96932 
L 630.248827 132.315979 
L 630.906708 132.315979 
L 631.235648 143.040638 
L 631.564588 137.739945 
L 631.893528 146.529234 
L 632.222468 146.529234 
L 632.551408 150.215065 
L 632.880349 146.541561 
L 634.196109 146.529234 
L 634.525049 160.508273 
L 635.51187 160.508273 
L 635.84081 157.968871 
L 636.16975 157.968871 
L 636.49869 160.508273 
L 636.827631 158.41265 
L 637.156571 163.713343 
L 637.814451 163.713343 
L 638.143391 137.01264 
L 638.472331 137.01264 
L 638.801272 141.339485 
L 642.090673 141.339485 
L 642.419613 136.741442 
L 644.393254 136.741442 
L 644.722195 132.414596 
L 645.709015 132.414596 
L 646.037955 144.285685 
L 646.366895 137.530382 
L 646.695836 139.317825 
L 647.353716 139.317825 
L 647.682656 145.09928 
L 648.011596 141.425776 
L 648.340536 129.554687 
L 649.656297 129.554687 
L 649.985237 118.299959 
L 650.972058 118.299959 
L 651.300998 121.973463 
L 651.629938 112.469196 
L 658.208741 112.469196 
L 658.537682 111.335094 
L 658.866622 115.933137 
L 659.195562 115.933137 
L 659.524502 106.059055 
L 664.787545 106.059055 
L 665.116485 123.218509 
L 665.445425 123.218509 
L 665.774365 117.917816 
L 666.761186 117.917816 
L 667.090126 110.262628 
L 673.011049 110.262628 
L 673.339989 112.839012 
L 673.668929 118.139705 
L 674.98469 118.139705 
L 675.31363 108.635438 
L 677.945151 108.635438 
L 678.274092 101.11585 
L 678.931972 101.11585 
L 679.260912 99.944766 
L 754.91715 99.944766 
L 755.24609 97.368383 
L 818.402602 97.368383 
L 818.731542 93.214118 
L 819.060483 93.214118 
L 819.389423 88.887273 
L 871.690909 88.887273 
L 871.690909 88.887273 
" style="fill:none;stroke:#8dd3c7;stroke-linecap:square;stroke-width:1.5;"/>
   </g>
   <g id="line2d_14">
    <path clip-path="url(#pbfae084fef)" d="M 161.509091 161.161614 
L 400.319651 161.161614 
L 400.648592 157.500437 
L 414.464078 157.500437 
L 414.793019 133.992477 
L 415.121959 124.697773 
L 649.656297 124.697773 
L 649.985237 118.299959 
L 651.300998 118.299959 
L 651.629938 112.469196 
L 658.208741 112.469196 
L 658.537682 111.335094 
L 659.195562 111.335094 
L 659.524502 106.059055 
L 677.945151 106.059055 
L 678.274092 101.11585 
L 678.931972 101.11585 
L 679.260912 99.944766 
L 754.91715 99.944766 
L 755.24609 97.368383 
L 818.402602 97.368383 
L 818.731542 93.214118 
L 819.060483 93.214118 
L 819.389423 88.887273 
L 871.690909 88.887273 
L 871.690909 88.887273 
" style="fill:none;stroke:#feffb3;stroke-linecap:square;stroke-width:1.5;"/>
   </g>
   <g id="line2d_15">
    <path clip-path="url(#pbfae084fef)" d="M 161.509091 161.161614 
L 163.811672 161.161614 
L 164.140612 186.120572 
L 166.443193 186.120572 
L 166.772134 209.151317 
L 169.074715 209.151317 
L 169.403655 230.402816 
L 171.706236 230.402816 
L 172.035176 250.012523 
L 174.337757 250.012523 
L 174.666698 268.107277 
L 176.969279 268.107277 
L 177.298219 284.804114 
L 179.6008 284.804114 
L 179.92974 300.211033 
L 182.232321 300.211033 
L 182.561262 314.427685 
L 184.863843 314.427685 
L 185.192783 327.546025 
L 187.495364 327.546025 
L 187.824304 339.650904 
L 190.126885 339.650904 
L 190.455826 350.820617 
L 192.758407 350.820617 
L 193.087347 361.127411 
L 195.389928 361.127411 
L 195.718868 370.63795 
L 198.021449 370.63795 
L 198.350389 379.413749 
L 200.652971 379.413749 
L 200.981911 387.511571 
L 203.284492 387.511571 
L 203.613432 394.983794 
L 205.916013 394.983794 
L 206.244953 401.878747 
L 208.547535 401.878747 
L 208.876475 408.241029 
L 211.179056 408.241029 
L 211.507996 414.111791 
L 213.810577 414.111791 
L 214.139517 419.529005 
L 216.442099 419.529005 
L 216.771039 424.527711 
L 219.07362 424.527711 
L 219.40256 429.14024 
L 221.705141 429.14024 
L 222.034081 433.396427 
L 224.336663 433.396427 
L 224.665603 437.323801 
L 226.968184 437.323801 
L 227.297124 440.947765 
L 229.599705 440.947765 
L 229.928645 444.291758 
L 232.231227 444.291758 
L 232.560167 447.37741 
L 234.862748 447.37741 
L 235.191688 450.224678 
L 237.494269 450.224678 
L 237.823209 452.851981 
L 240.125791 452.851981 
L 240.454731 455.27631 
L 242.757312 455.27631 
L 243.086252 457.513347 
L 245.388833 457.513347 
L 245.717773 459.577561 
L 248.020355 459.577561 
L 248.349295 461.482303 
L 250.651876 461.482303 
L 250.980816 463.239894 
L 253.283397 463.239894 
L 253.612337 464.861702 
L 255.914919 464.861702 
L 256.243859 466.358216 
L 258.54644 466.358216 
L 258.87538 467.739117 
L 261.177961 467.739117 
L 261.506901 469.013336 
L 263.809483 469.013336 
L 264.138423 470.189115 
L 266.441004 470.189115 
L 266.769944 471.274058 
L 269.072525 471.274058 
L 269.401465 472.275184 
L 271.704046 472.275184 
L 272.032987 473.198968 
L 274.335568 473.198968 
L 274.664508 474.051384 
L 276.967089 474.051384 
L 277.296029 474.837947 
L 279.59861 474.837947 
L 279.927551 475.563744 
L 282.230132 475.563744 
L 282.559072 476.233469 
L 284.861653 476.233469 
L 285.190593 476.851454 
L 287.493174 476.851454 
L 287.822115 477.421696 
L 290.124696 477.421696 
L 290.453636 477.947885 
L 292.756217 477.947885 
L 293.085157 478.433422 
L 295.387738 478.433422 
L 295.716679 478.881449 
L 298.01926 478.881449 
L 298.3482 479.294864 
L 300.650781 479.294864 
L 300.979721 479.67634 
L 303.282302 479.67634 
L 303.611243 480.028345 
L 305.913824 480.028345 
L 306.242764 480.353156 
L 308.545345 480.353156 
L 308.874285 480.652873 
L 311.176866 480.652873 
L 311.505807 480.929436 
L 313.808388 480.929436 
L 314.137328 481.184633 
L 316.439909 481.184633 
L 316.768849 481.420114 
L 319.07143 481.420114 
L 319.400371 481.637404 
L 321.702952 481.637404 
L 322.031892 481.837906 
L 324.334473 481.837906 
L 324.663413 482.022919 
L 326.965994 482.022919 
L 327.294935 482.193638 
L 329.597516 482.193638 
L 329.926456 482.351169 
L 332.229037 482.351169 
L 332.557977 482.496529 
L 334.860558 482.496529 
L 335.189499 482.63066 
L 337.49208 482.63066 
L 337.82102 482.754428 
L 340.123601 482.754428 
L 340.781481 482.868634 
L 345.386644 482.974018 
L 346.044524 483.07126 
L 350.649686 483.160989 
L 351.307567 483.243787 
L 355.912729 483.320188 
L 356.570609 483.390686 
L 361.175772 483.455738 
L 361.833652 483.515765 
L 369.070336 483.622264 
L 370.057156 483.669426 
L 376.9649 483.7531 
L 378.28066 483.790154 
L 387.490985 483.885007 
L 389.135686 483.91187 
L 403.280113 484.018083 
L 405.582694 484.034665 
L 432.226847 484.14409 
L 438.476711 484.163087 
L 871.690909 484.232727 
L 871.690909 484.232727 
" style="fill:none;stroke:#bfbbd9;stroke-linecap:square;stroke-width:1.5;"/>
   </g>
   <g id="patch_3">
    <path d="M 126 504 
L 126 69.12 
" style="fill:none;stroke:#ffffff;stroke-linecap:square;stroke-linejoin:miter;stroke-width:0.8;"/>
   </g>
   <g id="patch_4">
    <path d="M 907.2 504 
L 907.2 69.12 
" style="fill:none;stroke:#ffffff;stroke-linecap:square;stroke-linejoin:miter;stroke-width:0.8;"/>
   </g>
   <g id="patch_5">
    <path d="M 126 504 
L 907.2 504 
" style="fill:none;stroke:#ffffff;stroke-linecap:square;stroke-linejoin:miter;stroke-width:0.8;"/>
   </g>
   <g id="patch_6">
    <path d="M 126 69.12 
L 907.2 69.12 
" style="fill:none;stroke:#ffffff;stroke-linecap:square;stroke-linejoin:miter;stroke-width:0.8;"/>
   </g>
   <g id="text_14">
    <!-- instance 8 with error 0.017552995956377937 -->
    <g style="fill:#ffffff;" transform="translate(378.046875 63.12)scale(0.12 -0.12)">
     <defs>
      <path d="M 2834 3397 
L 2834 2853 
Q 2591 2978 2328 3040 
Q 2066 3103 1784 3103 
Q 1356 3103 1142 2972 
Q 928 2841 928 2578 
Q 928 2378 1081 2264 
Q 1234 2150 1697 2047 
L 1894 2003 
Q 2506 1872 2764 1633 
Q 3022 1394 3022 966 
Q 3022 478 2636 193 
Q 2250 -91 1575 -91 
Q 1294 -91 989 -36 
Q 684 19 347 128 
L 347 722 
Q 666 556 975 473 
Q 1284 391 1588 391 
Q 1994 391 2212 530 
Q 2431 669 2431 922 
Q 2431 1156 2273 1281 
Q 2116 1406 1581 1522 
L 1381 1569 
Q 847 1681 609 1914 
Q 372 2147 372 2553 
Q 372 3047 722 3315 
Q 1072 3584 1716 3584 
Q 2034 3584 2315 3537 
Q 2597 3491 2834 3397 
z
" id="DejaVuSans-73" transform="scale(0.015625)"/>
      <path d="M 3122 3366 
L 3122 2828 
Q 2878 2963 2633 3030 
Q 2388 3097 2138 3097 
Q 1578 3097 1268 2742 
Q 959 2388 959 1747 
Q 959 1106 1268 751 
Q 1578 397 2138 397 
Q 2388 397 2633 464 
Q 2878 531 3122 666 
L 3122 134 
Q 2881 22 2623 -34 
Q 2366 -91 2075 -91 
Q 1284 -91 818 406 
Q 353 903 353 1747 
Q 353 2603 823 3093 
Q 1294 3584 2113 3584 
Q 2378 3584 2631 3529 
Q 2884 3475 3122 3366 
z
" id="DejaVuSans-63" transform="scale(0.015625)"/>
      <path id="DejaVuSans-20" transform="scale(0.015625)"/>
      <path d="M 2034 2216 
Q 1584 2216 1326 1975 
Q 1069 1734 1069 1313 
Q 1069 891 1326 650 
Q 1584 409 2034 409 
Q 2484 409 2743 651 
Q 3003 894 3003 1313 
Q 3003 1734 2745 1975 
Q 2488 2216 2034 2216 
z
M 1403 2484 
Q 997 2584 770 2862 
Q 544 3141 544 3541 
Q 544 4100 942 4425 
Q 1341 4750 2034 4750 
Q 2731 4750 3128 4425 
Q 3525 4100 3525 3541 
Q 3525 3141 3298 2862 
Q 3072 2584 2669 2484 
Q 3125 2378 3379 2068 
Q 3634 1759 3634 1313 
Q 3634 634 3220 271 
Q 2806 -91 2034 -91 
Q 1263 -91 848 271 
Q 434 634 434 1313 
Q 434 1759 690 2068 
Q 947 2378 1403 2484 
z
M 1172 3481 
Q 1172 3119 1398 2916 
Q 1625 2713 2034 2713 
Q 2441 2713 2670 2916 
Q 2900 3119 2900 3481 
Q 2900 3844 2670 4047 
Q 2441 4250 2034 4250 
Q 1625 4250 1398 4047 
Q 1172 3844 1172 3481 
z
" id="DejaVuSans-38" transform="scale(0.015625)"/>
      <path d="M 269 3500 
L 844 3500 
L 1563 769 
L 2278 3500 
L 2956 3500 
L 3675 769 
L 4391 3500 
L 4966 3500 
L 4050 0 
L 3372 0 
L 2619 2869 
L 1863 0 
L 1184 0 
L 269 3500 
z
" id="DejaVuSans-77" transform="scale(0.015625)"/>
      <path d="M 3513 2113 
L 3513 0 
L 2938 0 
L 2938 2094 
Q 2938 2591 2744 2837 
Q 2550 3084 2163 3084 
Q 1697 3084 1428 2787 
Q 1159 2491 1159 1978 
L 1159 0 
L 581 0 
L 581 4863 
L 1159 4863 
L 1159 2956 
Q 1366 3272 1645 3428 
Q 1925 3584 2291 3584 
Q 2894 3584 3203 3211 
Q 3513 2838 3513 2113 
z
" id="DejaVuSans-68" transform="scale(0.015625)"/>
      <path d="M 684 794 
L 1344 794 
L 1344 0 
L 684 0 
L 684 794 
z
" id="DejaVuSans-2e" transform="scale(0.015625)"/>
      <path d="M 525 4666 
L 3525 4666 
L 3525 4397 
L 1831 0 
L 1172 0 
L 2766 4134 
L 525 4134 
L 525 4666 
z
" id="DejaVuSans-37" transform="scale(0.015625)"/>
      <path d="M 703 97 
L 703 672 
Q 941 559 1184 500 
Q 1428 441 1663 441 
Q 2288 441 2617 861 
Q 2947 1281 2994 2138 
Q 2813 1869 2534 1725 
Q 2256 1581 1919 1581 
Q 1219 1581 811 2004 
Q 403 2428 403 3163 
Q 403 3881 828 4315 
Q 1253 4750 1959 4750 
Q 2769 4750 3195 4129 
Q 3622 3509 3622 2328 
Q 3622 1225 3098 567 
Q 2575 -91 1691 -91 
Q 1453 -91 1209 -44 
Q 966 3 703 97 
z
M 1959 2075 
Q 2384 2075 2632 2365 
Q 2881 2656 2881 3163 
Q 2881 3666 2632 3958 
Q 2384 4250 1959 4250 
Q 1534 4250 1286 3958 
Q 1038 3666 1038 3163 
Q 1038 2656 1286 2365 
Q 1534 2075 1959 2075 
z
" id="DejaVuSans-39" transform="scale(0.015625)"/>
      <path d="M 2113 2584 
Q 1688 2584 1439 2293 
Q 1191 2003 1191 1497 
Q 1191 994 1439 701 
Q 1688 409 2113 409 
Q 2538 409 2786 701 
Q 3034 994 3034 1497 
Q 3034 2003 2786 2293 
Q 2538 2584 2113 2584 
z
M 3366 4563 
L 3366 3988 
Q 3128 4100 2886 4159 
Q 2644 4219 2406 4219 
Q 1781 4219 1451 3797 
Q 1122 3375 1075 2522 
Q 1259 2794 1537 2939 
Q 1816 3084 2150 3084 
Q 2853 3084 3261 2657 
Q 3669 2231 3669 1497 
Q 3669 778 3244 343 
Q 2819 -91 2113 -91 
Q 1303 -91 875 529 
Q 447 1150 447 2328 
Q 447 3434 972 4092 
Q 1497 4750 2381 4750 
Q 2619 4750 2861 4703 
Q 3103 4656 3366 4563 
z
" id="DejaVuSans-36" transform="scale(0.015625)"/>
     </defs>
     <use xlink:href="#DejaVuSans-69"/>
     <use x="27.783203" xlink:href="#DejaVuSans-6e"/>
     <use x="91.162109" xlink:href="#DejaVuSans-73"/>
     <use x="143.261719" xlink:href="#DejaVuSans-74"/>
     <use x="182.470703" xlink:href="#DejaVuSans-61"/>
     <use x="243.75" xlink:href="#DejaVuSans-6e"/>
     <use x="307.128906" xlink:href="#DejaVuSans-63"/>
     <use x="362.109375" xlink:href="#DejaVuSans-65"/>
     <use x="423.632812" xlink:href="#DejaVuSans-20"/>
     <use x="455.419922" xlink:href="#DejaVuSans-38"/>
     <use x="519.042969" xlink:href="#DejaVuSans-20"/>
     <use x="550.830078" xlink:href="#DejaVuSans-77"/>
     <use x="632.617188" xlink:href="#DejaVuSans-69"/>
     <use x="660.400391" xlink:href="#DejaVuSans-74"/>
     <use x="699.609375" xlink:href="#DejaVuSans-68"/>
     <use x="762.988281" xlink:href="#DejaVuSans-20"/>
     <use x="794.775391" xlink:href="#DejaVuSans-65"/>
     <use x="856.298828" xlink:href="#DejaVuSans-72"/>
     <use x="895.662109" xlink:href="#DejaVuSans-72"/>
     <use x="934.525391" xlink:href="#DejaVuSans-6f"/>
     <use x="995.707031" xlink:href="#DejaVuSans-72"/>
     <use x="1036.820312" xlink:href="#DejaVuSans-20"/>
     <use x="1068.607422" xlink:href="#DejaVuSans-30"/>
     <use x="1132.230469" xlink:href="#DejaVuSans-2e"/>
     <use x="1164.017578" xlink:href="#DejaVuSans-30"/>
     <use x="1227.640625" xlink:href="#DejaVuSans-31"/>
     <use x="1291.263672" xlink:href="#DejaVuSans-37"/>
     <use x="1354.886719" xlink:href="#DejaVuSans-35"/>
     <use x="1418.509766" xlink:href="#DejaVuSans-35"/>
     <use x="1482.132812" xlink:href="#DejaVuSans-32"/>
     <use x="1545.755859" xlink:href="#DejaVuSans-39"/>
     <use x="1609.378906" xlink:href="#DejaVuSans-39"/>
     <use x="1673.001953" xlink:href="#DejaVuSans-35"/>
     <use x="1736.625" xlink:href="#DejaVuSans-39"/>
     <use x="1800.248047" xlink:href="#DejaVuSans-35"/>
     <use x="1863.871094" xlink:href="#DejaVuSans-36"/>
     <use x="1927.494141" xlink:href="#DejaVuSans-33"/>
     <use x="1991.117188" xlink:href="#DejaVuSans-37"/>
     <use x="2054.740234" xlink:href="#DejaVuSans-37"/>
     <use x="2118.363281" xlink:href="#DejaVuSans-39"/>
     <use x="2181.986328" xlink:href="#DejaVuSans-33"/>
     <use x="2245.609375" xlink:href="#DejaVuSans-37"/>
    </g>
   </g>
   <g id="legend_1">
    <g id="patch_7">
     <path d="M 805.348438 499 
L 900.2 499 
Q 902.2 499 902.2 497 
L 902.2 453.965625 
Q 902.2 451.965625 900.2 451.965625 
L 805.348438 451.965625 
Q 803.348438 451.965625 803.348438 453.965625 
L 803.348438 497 
Q 803.348438 499 805.348438 499 
z
" style="opacity:0.8;stroke:#cccccc;stroke-linejoin:miter;"/>
    </g>
    <g id="line2d_16">
     <path d="M 807.348438 460.064062 
L 827.348438 460.064062 
" style="fill:none;stroke:#8dd3c7;stroke-linecap:square;stroke-width:1.5;"/>
    </g>
    <g id="line2d_17"/>
    <g id="text_15">
     <!-- cost -->
     <g style="fill:#ffffff;" transform="translate(835.348438 463.564062)scale(0.1 -0.1)">
      <use xlink:href="#DejaVuSans-63"/>
      <use x="54.980469" xlink:href="#DejaVuSans-6f"/>
      <use x="116.162109" xlink:href="#DejaVuSans-73"/>
      <use x="168.261719" xlink:href="#DejaVuSans-74"/>
     </g>
    </g>
    <g id="line2d_18">
     <path d="M 807.348438 474.742188 
L 827.348438 474.742188 
" style="fill:none;stroke:#feffb3;stroke-linecap:square;stroke-width:1.5;"/>
    </g>
    <g id="line2d_19"/>
    <g id="text_16">
     <!-- best cost -->
     <g style="fill:#ffffff;" transform="translate(835.348438 478.242188)scale(0.1 -0.1)">
      <defs>
       <path d="M 3116 1747 
Q 3116 2381 2855 2742 
Q 2594 3103 2138 3103 
Q 1681 3103 1420 2742 
Q 1159 2381 1159 1747 
Q 1159 1113 1420 752 
Q 1681 391 2138 391 
Q 2594 391 2855 752 
Q 3116 1113 3116 1747 
z
M 1159 2969 
Q 1341 3281 1617 3432 
Q 1894 3584 2278 3584 
Q 2916 3584 3314 3078 
Q 3713 2572 3713 1747 
Q 3713 922 3314 415 
Q 2916 -91 2278 -91 
Q 1894 -91 1617 61 
Q 1341 213 1159 525 
L 1159 0 
L 581 0 
L 581 4863 
L 1159 4863 
L 1159 2969 
z
" id="DejaVuSans-62" transform="scale(0.015625)"/>
      </defs>
      <use xlink:href="#DejaVuSans-62"/>
      <use x="63.476562" xlink:href="#DejaVuSans-65"/>
      <use x="125" xlink:href="#DejaVuSans-73"/>
      <use x="177.099609" xlink:href="#DejaVuSans-74"/>
      <use x="216.308594" xlink:href="#DejaVuSans-20"/>
      <use x="248.095703" xlink:href="#DejaVuSans-63"/>
      <use x="303.076172" xlink:href="#DejaVuSans-6f"/>
      <use x="364.257812" xlink:href="#DejaVuSans-73"/>
      <use x="416.357422" xlink:href="#DejaVuSans-74"/>
     </g>
    </g>
    <g id="line2d_20">
     <path d="M 807.348438 489.420313 
L 827.348438 489.420313 
" style="fill:none;stroke:#bfbbd9;stroke-linecap:square;stroke-width:1.5;"/>
    </g>
    <g id="line2d_21"/>
    <g id="text_17">
     <!-- temperature -->
     <g style="fill:#ffffff;" transform="translate(835.348438 492.920313)scale(0.1 -0.1)">
      <defs>
       <path d="M 3328 2828 
Q 3544 3216 3844 3400 
Q 4144 3584 4550 3584 
Q 5097 3584 5394 3201 
Q 5691 2819 5691 2113 
L 5691 0 
L 5113 0 
L 5113 2094 
Q 5113 2597 4934 2840 
Q 4756 3084 4391 3084 
Q 3944 3084 3684 2787 
Q 3425 2491 3425 1978 
L 3425 0 
L 2847 0 
L 2847 2094 
Q 2847 2600 2669 2842 
Q 2491 3084 2119 3084 
Q 1678 3084 1418 2786 
Q 1159 2488 1159 1978 
L 1159 0 
L 581 0 
L 581 3500 
L 1159 3500 
L 1159 2956 
Q 1356 3278 1631 3431 
Q 1906 3584 2284 3584 
Q 2666 3584 2933 3390 
Q 3200 3197 3328 2828 
z
" id="DejaVuSans-6d" transform="scale(0.015625)"/>
       <path d="M 1159 525 
L 1159 -1331 
L 581 -1331 
L 581 3500 
L 1159 3500 
L 1159 2969 
Q 1341 3281 1617 3432 
Q 1894 3584 2278 3584 
Q 2916 3584 3314 3078 
Q 3713 2572 3713 1747 
Q 3713 922 3314 415 
Q 2916 -91 2278 -91 
Q 1894 -91 1617 61 
Q 1341 213 1159 525 
z
M 3116 1747 
Q 3116 2381 2855 2742 
Q 2594 3103 2138 3103 
Q 1681 3103 1420 2742 
Q 1159 2381 1159 1747 
Q 1159 1113 1420 752 
Q 1681 391 2138 391 
Q 2594 391 2855 752 
Q 3116 1113 3116 1747 
z
" id="DejaVuSans-70" transform="scale(0.015625)"/>
       <path d="M 544 1381 
L 544 3500 
L 1119 3500 
L 1119 1403 
Q 1119 906 1312 657 
Q 1506 409 1894 409 
Q 2359 409 2629 706 
Q 2900 1003 2900 1516 
L 2900 3500 
L 3475 3500 
L 3475 0 
L 2900 0 
L 2900 538 
Q 2691 219 2414 64 
Q 2138 -91 1772 -91 
Q 1169 -91 856 284 
Q 544 659 544 1381 
z
M 1991 3584 
L 1991 3584 
z
" id="DejaVuSans-75" transform="scale(0.015625)"/>
      </defs>
      <use xlink:href="#DejaVuSans-74"/>
      <use x="39.208984" xlink:href="#DejaVuSans-65"/>
      <use x="100.732422" xlink:href="#DejaVuSans-6d"/>
      <use x="198.144531" xlink:href="#DejaVuSans-70"/>
      <use x="261.621094" xlink:href="#DejaVuSans-65"/>
      <use x="323.144531" xlink:href="#DejaVuSans-72"/>
      <use x="364.257812" xlink:href="#DejaVuSans-61"/>
      <use x="425.537109" xlink:href="#DejaVuSans-74"/>
      <use x="464.746094" xlink:href="#DejaVuSans-75"/>
      <use x="528.125" xlink:href="#DejaVuSans-72"/>
      <use x="566.988281" xlink:href="#DejaVuSans-65"/>
     </g>
    </g>
   </g>
  </g>
 </g>
 <defs>
  <clipPath id="pbfae084fef">
   <rect height="434.88" width="781.2" x="126" y="69.12"/>
  </clipPath>
 </defs>
</svg>
