<?xml version="1.0" encoding="utf-8" standalone="no"?>
<!DOCTYPE svg PUBLIC "-//W3C//DTD SVG 1.1//EN"
  "http://www.w3.org/Graphics/SVG/1.1/DTD/svg11.dtd">
<svg height="576pt" version="1.1" viewBox="0 0 1008 576" width="1008pt" xmlns="http://www.w3.org/2000/svg" xmlns:xlink="http://www.w3.org/1999/xlink">
 <metadata>
  <rdf:RDF xmlns:cc="http://creativecommons.org/ns#" xmlns:dc="http://purl.org/dc/elements/1.1/" xmlns:rdf="http://www.w3.org/1999/02/22-rdf-syntax-ns#">
   <cc:Work>
    <dc:type rdf:resource="http://purl.org/dc/dcmitype/StillImage"/>
    <dc:date>2022-01-08T03:08:47.297622</dc:date>
    <dc:format>image/svg+xml</dc:format>
    <dc:creator>
     <cc:Agent>
      <dc:title>Matplotlib v3.4.3, https://matplotlib.org/</dc:title>
     </cc:Agent>
    </dc:creator>
   </cc:Work>
  </rdf:RDF>
 </metadata>
 <defs>
  <style type="text/css">*{stroke-linecap:butt;stroke-linejoin:round;}</style>
 </defs>
 <g id="figure_1">
  <g id="patch_1">
   <path d="M 0 576 
L 1008 576 
L 1008 0 
L 0 0 
z
"/>
  </g>
  <g id="axes_1">
   <g id="patch_2">
    <path d="M 126 504 
L 907.2 504 
L 907.2 69.12 
L 126 69.12 
z
"/>
   </g>
   <g id="matplotlib.axis_1">
    <g id="xtick_1">
     <g id="line2d_1">
      <defs>
       <path d="M 0 0 
L 0 3.5 
" id="mf91ee3caa6" style="stroke:#ffffff;stroke-width:0.8;"/>
      </defs>
      <g>
       <use style="fill:#ffffff;stroke:#ffffff;stroke-width:0.8;" x="161.509091" xlink:href="#mf91ee3caa6" y="504"/>
      </g>
     </g>
     <g id="text_1">
      <!-- 0 -->
      <g style="fill:#ffffff;" transform="translate(158.327841 518.598438)scale(0.1 -0.1)">
       <defs>
        <path d="M 2034 4250 
Q 1547 4250 1301 3770 
Q 1056 3291 1056 2328 
Q 1056 1369 1301 889 
Q 1547 409 2034 409 
Q 2525 409 2770 889 
Q 3016 1369 3016 2328 
Q 3016 3291 2770 3770 
Q 2525 4250 2034 4250 
z
M 2034 4750 
Q 2819 4750 3233 4129 
Q 3647 3509 3647 2328 
Q 3647 1150 3233 529 
Q 2819 -91 2034 -91 
Q 1250 -91 836 529 
Q 422 1150 422 2328 
Q 422 3509 836 4129 
Q 1250 4750 2034 4750 
z
" id="DejaVuSans-30" transform="scale(0.015625)"/>
       </defs>
       <use xlink:href="#DejaVuSans-30"/>
      </g>
     </g>
    </g>
    <g id="xtick_2">
     <g id="line2d_2">
      <g>
       <use style="fill:#ffffff;stroke:#ffffff;stroke-width:0.8;" x="253.287563" xlink:href="#mf91ee3caa6" y="504"/>
      </g>
     </g>
     <g id="text_2">
      <!-- 500 -->
      <g style="fill:#ffffff;" transform="translate(243.743813 518.598438)scale(0.1 -0.1)">
       <defs>
        <path d="M 691 4666 
L 3169 4666 
L 3169 4134 
L 1269 4134 
L 1269 2991 
Q 1406 3038 1543 3061 
Q 1681 3084 1819 3084 
Q 2600 3084 3056 2656 
Q 3513 2228 3513 1497 
Q 3513 744 3044 326 
Q 2575 -91 1722 -91 
Q 1428 -91 1123 -41 
Q 819 9 494 109 
L 494 744 
Q 775 591 1075 516 
Q 1375 441 1709 441 
Q 2250 441 2565 725 
Q 2881 1009 2881 1497 
Q 2881 1984 2565 2268 
Q 2250 2553 1709 2553 
Q 1456 2553 1204 2497 
Q 953 2441 691 2322 
L 691 4666 
z
" id="DejaVuSans-35" transform="scale(0.015625)"/>
       </defs>
       <use xlink:href="#DejaVuSans-35"/>
       <use x="63.623047" xlink:href="#DejaVuSans-30"/>
       <use x="127.246094" xlink:href="#DejaVuSans-30"/>
      </g>
     </g>
    </g>
    <g id="xtick_3">
     <g id="line2d_3">
      <g>
       <use style="fill:#ffffff;stroke:#ffffff;stroke-width:0.8;" x="345.066035" xlink:href="#mf91ee3caa6" y="504"/>
      </g>
     </g>
     <g id="text_3">
      <!-- 1000 -->
      <g style="fill:#ffffff;" transform="translate(332.341035 518.598438)scale(0.1 -0.1)">
       <defs>
        <path d="M 794 531 
L 1825 531 
L 1825 4091 
L 703 3866 
L 703 4441 
L 1819 4666 
L 2450 4666 
L 2450 531 
L 3481 531 
L 3481 0 
L 794 0 
L 794 531 
z
" id="DejaVuSans-31" transform="scale(0.015625)"/>
       </defs>
       <use xlink:href="#DejaVuSans-31"/>
       <use x="63.623047" xlink:href="#DejaVuSans-30"/>
       <use x="127.246094" xlink:href="#DejaVuSans-30"/>
       <use x="190.869141" xlink:href="#DejaVuSans-30"/>
      </g>
     </g>
    </g>
    <g id="xtick_4">
     <g id="line2d_4">
      <g>
       <use style="fill:#ffffff;stroke:#ffffff;stroke-width:0.8;" x="436.844508" xlink:href="#mf91ee3caa6" y="504"/>
      </g>
     </g>
     <g id="text_4">
      <!-- 1500 -->
      <g style="fill:#ffffff;" transform="translate(424.119508 518.598438)scale(0.1 -0.1)">
       <use xlink:href="#DejaVuSans-31"/>
       <use x="63.623047" xlink:href="#DejaVuSans-35"/>
       <use x="127.246094" xlink:href="#DejaVuSans-30"/>
       <use x="190.869141" xlink:href="#DejaVuSans-30"/>
      </g>
     </g>
    </g>
    <g id="xtick_5">
     <g id="line2d_5">
      <g>
       <use style="fill:#ffffff;stroke:#ffffff;stroke-width:0.8;" x="528.62298" xlink:href="#mf91ee3caa6" y="504"/>
      </g>
     </g>
     <g id="text_5">
      <!-- 2000 -->
      <g style="fill:#ffffff;" transform="translate(515.89798 518.598438)scale(0.1 -0.1)">
       <defs>
        <path d="M 1228 531 
L 3431 531 
L 3431 0 
L 469 0 
L 469 531 
Q 828 903 1448 1529 
Q 2069 2156 2228 2338 
Q 2531 2678 2651 2914 
Q 2772 3150 2772 3378 
Q 2772 3750 2511 3984 
Q 2250 4219 1831 4219 
Q 1534 4219 1204 4116 
Q 875 4013 500 3803 
L 500 4441 
Q 881 4594 1212 4672 
Q 1544 4750 1819 4750 
Q 2544 4750 2975 4387 
Q 3406 4025 3406 3419 
Q 3406 3131 3298 2873 
Q 3191 2616 2906 2266 
Q 2828 2175 2409 1742 
Q 1991 1309 1228 531 
z
" id="DejaVuSans-32" transform="scale(0.015625)"/>
       </defs>
       <use xlink:href="#DejaVuSans-32"/>
       <use x="63.623047" xlink:href="#DejaVuSans-30"/>
       <use x="127.246094" xlink:href="#DejaVuSans-30"/>
       <use x="190.869141" xlink:href="#DejaVuSans-30"/>
      </g>
     </g>
    </g>
    <g id="xtick_6">
     <g id="line2d_6">
      <g>
       <use style="fill:#ffffff;stroke:#ffffff;stroke-width:0.8;" x="620.401452" xlink:href="#mf91ee3caa6" y="504"/>
      </g>
     </g>
     <g id="text_6">
      <!-- 2500 -->
      <g style="fill:#ffffff;" transform="translate(607.676452 518.598438)scale(0.1 -0.1)">
       <use xlink:href="#DejaVuSans-32"/>
       <use x="63.623047" xlink:href="#DejaVuSans-35"/>
       <use x="127.246094" xlink:href="#DejaVuSans-30"/>
       <use x="190.869141" xlink:href="#DejaVuSans-30"/>
      </g>
     </g>
    </g>
    <g id="xtick_7">
     <g id="line2d_7">
      <g>
       <use style="fill:#ffffff;stroke:#ffffff;stroke-width:0.8;" x="712.179924" xlink:href="#mf91ee3caa6" y="504"/>
      </g>
     </g>
     <g id="text_7">
      <!-- 3000 -->
      <g style="fill:#ffffff;" transform="translate(699.454924 518.598438)scale(0.1 -0.1)">
       <defs>
        <path d="M 2597 2516 
Q 3050 2419 3304 2112 
Q 3559 1806 3559 1356 
Q 3559 666 3084 287 
Q 2609 -91 1734 -91 
Q 1441 -91 1130 -33 
Q 819 25 488 141 
L 488 750 
Q 750 597 1062 519 
Q 1375 441 1716 441 
Q 2309 441 2620 675 
Q 2931 909 2931 1356 
Q 2931 1769 2642 2001 
Q 2353 2234 1838 2234 
L 1294 2234 
L 1294 2753 
L 1863 2753 
Q 2328 2753 2575 2939 
Q 2822 3125 2822 3475 
Q 2822 3834 2567 4026 
Q 2313 4219 1838 4219 
Q 1578 4219 1281 4162 
Q 984 4106 628 3988 
L 628 4550 
Q 988 4650 1302 4700 
Q 1616 4750 1894 4750 
Q 2613 4750 3031 4423 
Q 3450 4097 3450 3541 
Q 3450 3153 3228 2886 
Q 3006 2619 2597 2516 
z
" id="DejaVuSans-33" transform="scale(0.015625)"/>
       </defs>
       <use xlink:href="#DejaVuSans-33"/>
       <use x="63.623047" xlink:href="#DejaVuSans-30"/>
       <use x="127.246094" xlink:href="#DejaVuSans-30"/>
       <use x="190.869141" xlink:href="#DejaVuSans-30"/>
      </g>
     </g>
    </g>
    <g id="xtick_8">
     <g id="line2d_8">
      <g>
       <use style="fill:#ffffff;stroke:#ffffff;stroke-width:0.8;" x="803.958397" xlink:href="#mf91ee3caa6" y="504"/>
      </g>
     </g>
     <g id="text_8">
      <!-- 3500 -->
      <g style="fill:#ffffff;" transform="translate(791.233397 518.598438)scale(0.1 -0.1)">
       <use xlink:href="#DejaVuSans-33"/>
       <use x="63.623047" xlink:href="#DejaVuSans-35"/>
       <use x="127.246094" xlink:href="#DejaVuSans-30"/>
       <use x="190.869141" xlink:href="#DejaVuSans-30"/>
      </g>
     </g>
    </g>
    <g id="xtick_9">
     <g id="line2d_9">
      <g>
       <use style="fill:#ffffff;stroke:#ffffff;stroke-width:0.8;" x="895.736869" xlink:href="#mf91ee3caa6" y="504"/>
      </g>
     </g>
     <g id="text_9">
      <!-- 4000 -->
      <g style="fill:#ffffff;" transform="translate(883.011869 518.598438)scale(0.1 -0.1)">
       <defs>
        <path d="M 2419 4116 
L 825 1625 
L 2419 1625 
L 2419 4116 
z
M 2253 4666 
L 3047 4666 
L 3047 1625 
L 3713 1625 
L 3713 1100 
L 3047 1100 
L 3047 0 
L 2419 0 
L 2419 1100 
L 313 1100 
L 313 1709 
L 2253 4666 
z
" id="DejaVuSans-34" transform="scale(0.015625)"/>
       </defs>
       <use xlink:href="#DejaVuSans-34"/>
       <use x="63.623047" xlink:href="#DejaVuSans-30"/>
       <use x="127.246094" xlink:href="#DejaVuSans-30"/>
       <use x="190.869141" xlink:href="#DejaVuSans-30"/>
      </g>
     </g>
    </g>
    <g id="text_10">
     <!-- iteration -->
     <g style="fill:#ffffff;" transform="translate(495.477344 532.276562)scale(0.1 -0.1)">
      <defs>
       <path d="M 603 3500 
L 1178 3500 
L 1178 0 
L 603 0 
L 603 3500 
z
M 603 4863 
L 1178 4863 
L 1178 4134 
L 603 4134 
L 603 4863 
z
" id="DejaVuSans-69" transform="scale(0.015625)"/>
       <path d="M 1172 4494 
L 1172 3500 
L 2356 3500 
L 2356 3053 
L 1172 3053 
L 1172 1153 
Q 1172 725 1289 603 
Q 1406 481 1766 481 
L 2356 481 
L 2356 0 
L 1766 0 
Q 1100 0 847 248 
Q 594 497 594 1153 
L 594 3053 
L 172 3053 
L 172 3500 
L 594 3500 
L 594 4494 
L 1172 4494 
z
" id="DejaVuSans-74" transform="scale(0.015625)"/>
       <path d="M 3597 1894 
L 3597 1613 
L 953 1613 
Q 991 1019 1311 708 
Q 1631 397 2203 397 
Q 2534 397 2845 478 
Q 3156 559 3463 722 
L 3463 178 
Q 3153 47 2828 -22 
Q 2503 -91 2169 -91 
Q 1331 -91 842 396 
Q 353 884 353 1716 
Q 353 2575 817 3079 
Q 1281 3584 2069 3584 
Q 2775 3584 3186 3129 
Q 3597 2675 3597 1894 
z
M 3022 2063 
Q 3016 2534 2758 2815 
Q 2500 3097 2075 3097 
Q 1594 3097 1305 2825 
Q 1016 2553 972 2059 
L 3022 2063 
z
" id="DejaVuSans-65" transform="scale(0.015625)"/>
       <path d="M 2631 2963 
Q 2534 3019 2420 3045 
Q 2306 3072 2169 3072 
Q 1681 3072 1420 2755 
Q 1159 2438 1159 1844 
L 1159 0 
L 581 0 
L 581 3500 
L 1159 3500 
L 1159 2956 
Q 1341 3275 1631 3429 
Q 1922 3584 2338 3584 
Q 2397 3584 2469 3576 
Q 2541 3569 2628 3553 
L 2631 2963 
z
" id="DejaVuSans-72" transform="scale(0.015625)"/>
       <path d="M 2194 1759 
Q 1497 1759 1228 1600 
Q 959 1441 959 1056 
Q 959 750 1161 570 
Q 1363 391 1709 391 
Q 2188 391 2477 730 
Q 2766 1069 2766 1631 
L 2766 1759 
L 2194 1759 
z
M 3341 1997 
L 3341 0 
L 2766 0 
L 2766 531 
Q 2569 213 2275 61 
Q 1981 -91 1556 -91 
Q 1019 -91 701 211 
Q 384 513 384 1019 
Q 384 1609 779 1909 
Q 1175 2209 1959 2209 
L 2766 2209 
L 2766 2266 
Q 2766 2663 2505 2880 
Q 2244 3097 1772 3097 
Q 1472 3097 1187 3025 
Q 903 2953 641 2809 
L 641 3341 
Q 956 3463 1253 3523 
Q 1550 3584 1831 3584 
Q 2591 3584 2966 3190 
Q 3341 2797 3341 1997 
z
" id="DejaVuSans-61" transform="scale(0.015625)"/>
       <path d="M 1959 3097 
Q 1497 3097 1228 2736 
Q 959 2375 959 1747 
Q 959 1119 1226 758 
Q 1494 397 1959 397 
Q 2419 397 2687 759 
Q 2956 1122 2956 1747 
Q 2956 2369 2687 2733 
Q 2419 3097 1959 3097 
z
M 1959 3584 
Q 2709 3584 3137 3096 
Q 3566 2609 3566 1747 
Q 3566 888 3137 398 
Q 2709 -91 1959 -91 
Q 1206 -91 779 398 
Q 353 888 353 1747 
Q 353 2609 779 3096 
Q 1206 3584 1959 3584 
z
" id="DejaVuSans-6f" transform="scale(0.015625)"/>
       <path d="M 3513 2113 
L 3513 0 
L 2938 0 
L 2938 2094 
Q 2938 2591 2744 2837 
Q 2550 3084 2163 3084 
Q 1697 3084 1428 2787 
Q 1159 2491 1159 1978 
L 1159 0 
L 581 0 
L 581 3500 
L 1159 3500 
L 1159 2956 
Q 1366 3272 1645 3428 
Q 1925 3584 2291 3584 
Q 2894 3584 3203 3211 
Q 3513 2838 3513 2113 
z
" id="DejaVuSans-6e" transform="scale(0.015625)"/>
      </defs>
      <use xlink:href="#DejaVuSans-69"/>
      <use x="27.783203" xlink:href="#DejaVuSans-74"/>
      <use x="66.992188" xlink:href="#DejaVuSans-65"/>
      <use x="128.515625" xlink:href="#DejaVuSans-72"/>
      <use x="169.628906" xlink:href="#DejaVuSans-61"/>
      <use x="230.908203" xlink:href="#DejaVuSans-74"/>
      <use x="270.117188" xlink:href="#DejaVuSans-69"/>
      <use x="297.900391" xlink:href="#DejaVuSans-6f"/>
      <use x="359.082031" xlink:href="#DejaVuSans-6e"/>
     </g>
    </g>
   </g>
   <g id="matplotlib.axis_2">
    <g id="ytick_1">
     <g id="line2d_10">
      <defs>
       <path d="M 0 0 
L -3.5 0 
" id="me9e7c009e6" style="stroke:#ffffff;stroke-width:0.8;"/>
      </defs>
      <g>
       <use style="fill:#ffffff;stroke:#ffffff;stroke-width:0.8;" x="126" xlink:href="#me9e7c009e6" y="484.232727"/>
      </g>
     </g>
     <g id="text_11">
      <!-- 0 -->
      <g style="fill:#ffffff;" transform="translate(112.6375 488.031946)scale(0.1 -0.1)">
       <use xlink:href="#DejaVuSans-30"/>
      </g>
     </g>
    </g>
    <g id="ytick_2">
     <g id="line2d_11">
      <g>
       <use style="fill:#ffffff;stroke:#ffffff;stroke-width:0.8;" x="126" xlink:href="#me9e7c009e6" y="402.728284"/>
      </g>
     </g>
     <g id="text_12">
      <!-- 5000 -->
      <g style="fill:#ffffff;" transform="translate(93.55 406.527502)scale(0.1 -0.1)">
       <use xlink:href="#DejaVuSans-35"/>
       <use x="63.623047" xlink:href="#DejaVuSans-30"/>
       <use x="127.246094" xlink:href="#DejaVuSans-30"/>
       <use x="190.869141" xlink:href="#DejaVuSans-30"/>
      </g>
     </g>
    </g>
    <g id="ytick_3">
     <g id="line2d_12">
      <g>
       <use style="fill:#ffffff;stroke:#ffffff;stroke-width:0.8;" x="126" xlink:href="#me9e7c009e6" y="321.22384"/>
      </g>
     </g>
     <g id="text_13">
      <!-- 10000 -->
      <g style="fill:#ffffff;" transform="translate(87.1875 325.023059)scale(0.1 -0.1)">
       <use xlink:href="#DejaVuSans-31"/>
       <use x="63.623047" xlink:href="#DejaVuSans-30"/>
       <use x="127.246094" xlink:href="#DejaVuSans-30"/>
       <use x="190.869141" xlink:href="#DejaVuSans-30"/>
       <use x="254.492188" xlink:href="#DejaVuSans-30"/>
      </g>
     </g>
    </g>
    <g id="ytick_4">
     <g id="line2d_13">
      <g>
       <use style="fill:#ffffff;stroke:#ffffff;stroke-width:0.8;" x="126" xlink:href="#me9e7c009e6" y="239.719396"/>
      </g>
     </g>
     <g id="text_14">
      <!-- 15000 -->
      <g style="fill:#ffffff;" transform="translate(87.1875 243.518615)scale(0.1 -0.1)">
       <use xlink:href="#DejaVuSans-31"/>
       <use x="63.623047" xlink:href="#DejaVuSans-35"/>
       <use x="127.246094" xlink:href="#DejaVuSans-30"/>
       <use x="190.869141" xlink:href="#DejaVuSans-30"/>
       <use x="254.492188" xlink:href="#DejaVuSans-30"/>
      </g>
     </g>
    </g>
    <g id="ytick_5">
     <g id="line2d_14">
      <g>
       <use style="fill:#ffffff;stroke:#ffffff;stroke-width:0.8;" x="126" xlink:href="#me9e7c009e6" y="158.214953"/>
      </g>
     </g>
     <g id="text_15">
      <!-- 20000 -->
      <g style="fill:#ffffff;" transform="translate(87.1875 162.014171)scale(0.1 -0.1)">
       <use xlink:href="#DejaVuSans-32"/>
       <use x="63.623047" xlink:href="#DejaVuSans-30"/>
       <use x="127.246094" xlink:href="#DejaVuSans-30"/>
       <use x="190.869141" xlink:href="#DejaVuSans-30"/>
       <use x="254.492188" xlink:href="#DejaVuSans-30"/>
      </g>
     </g>
    </g>
    <g id="ytick_6">
     <g id="line2d_15">
      <g>
       <use style="fill:#ffffff;stroke:#ffffff;stroke-width:0.8;" x="126" xlink:href="#me9e7c009e6" y="76.710509"/>
      </g>
     </g>
     <g id="text_16">
      <!-- 25000 -->
      <g style="fill:#ffffff;" transform="translate(87.1875 80.509728)scale(0.1 -0.1)">
       <use xlink:href="#DejaVuSans-32"/>
       <use x="63.623047" xlink:href="#DejaVuSans-35"/>
       <use x="127.246094" xlink:href="#DejaVuSans-30"/>
       <use x="190.869141" xlink:href="#DejaVuSans-30"/>
       <use x="254.492188" xlink:href="#DejaVuSans-30"/>
      </g>
     </g>
    </g>
   </g>
   <g id="line2d_16">
    <path clip-path="url(#pb469d13d3a)" d="M 161.509091 395.409185 
L 161.876205 387.193537 
L 162.059762 378.391057 
L 162.243319 378.391057 
L 162.426876 374.23433 
L 162.610433 391.578476 
L 162.977546 379.988544 
L 163.161103 343.556058 
L 163.34466 431.483051 
L 163.528217 432.787123 
L 163.711774 428.989015 
L 164.078888 355.618715 
L 164.262445 395.213574 
L 164.629559 362.693301 
L 164.813116 335.568622 
L 165.18023 402.760885 
L 165.547344 339.93726 
L 165.730901 348.723439 
L 165.914458 311.899732 
L 166.098015 303.113553 
L 166.281571 334.085241 
L 166.465128 328.852656 
L 166.648685 294.653391 
L 166.832242 301.727977 
L 167.015799 329.84701 
L 167.199356 335.307808 
L 167.382913 325.331664 
L 167.56647 285.052168 
L 167.750027 325.331664 
L 167.933584 301.77688 
L 168.117141 319.544848 
L 168.300698 324.777434 
L 168.484255 349.8319 
L 168.667812 313.366812 
L 168.851369 302.380013 
L 169.034926 325.934797 
L 169.218483 294.963108 
L 169.40204 325.934797 
L 169.585596 312.894086 
L 169.769153 349.717794 
L 169.95271 328.461435 
L 170.136267 391.415467 
L 170.319824 395.213574 
L 170.686938 353.727812 
L 170.870495 384.699501 
L 171.054052 363.883266 
L 171.237609 363.883266 
L 171.421166 412.981543 
L 171.604723 408.172781 
L 171.78828 418.44234 
L 171.971837 418.44234 
L 172.155394 425.549528 
L 172.338951 425.549528 
L 172.706065 415.442977 
L 172.889621 422.941386 
L 173.256735 359.107105 
L 173.440292 399.386602 
L 173.623849 368.414913 
L 173.807406 391.888193 
L 173.990963 386.133979 
L 174.358077 328.820054 
L 174.725191 391.170954 
L 175.275862 329.29278 
L 175.642976 309.11228 
L 175.826533 327.695293 
L 176.01009 327.695293 
L 176.193646 327.27147 
L 176.377203 327.695293 
L 176.56076 322.462708 
L 176.744317 322.462708 
L 176.927874 347.745386 
L 177.294988 361.046911 
L 177.478545 400.886283 
L 177.662102 395.653698 
L 177.845659 421.066784 
L 178.029216 393.942105 
L 178.212773 400.250549 
L 178.39633 418.556447 
L 178.579887 384.243076 
L 178.763444 373.663799 
L 178.947001 411.432958 
L 179.130558 411.432958 
L 179.314115 385.465643 
L 179.497671 398.506354 
L 179.864785 380.852491 
L 180.048342 405.727647 
L 180.231899 394.349627 
L 180.415456 399.060584 
L 180.599013 407.846763 
L 180.966127 439.242275 
L 181.149684 451.190826 
L 181.333241 416.991561 
L 181.516798 414.481225 
L 181.700355 402.532673 
L 181.883912 405.695045 
L 182.067469 384.878811 
L 182.251026 393.534582 
L 182.434583 413.926994 
L 182.61814 398.359646 
L 182.801696 397.104477 
L 182.985253 380.037447 
L 183.16881 342.31719 
L 183.352367 345.80558 
L 183.719481 384.699501 
L 183.903038 345.104642 
L 184.086595 332.063931 
L 184.270152 302.738632 
L 184.453709 342.333491 
L 184.820823 284.579442 
L 185.00438 319.968672 
L 185.187937 314.736086 
L 185.371494 293.919851 
L 185.555051 311.883431 
L 185.922165 262.850357 
L 186.105721 262.850357 
L 186.289278 237.795891 
L 186.472835 264.773862 
L 186.656392 310.970581 
L 186.839949 316.203166 
L 187.023506 326.032602 
L 187.207063 356.368556 
L 187.39062 365.464452 
L 187.574177 368.447515 
L 187.757734 394.969061 
L 187.941291 354.689565 
L 188.124848 352.179228 
L 188.308405 315.71414 
L 188.491962 318.224476 
L 188.675519 324.71223 
L 188.859076 303.455871 
L 189.042633 340.85011 
L 189.22619 303.080951 
L 189.409746 343.360447 
L 189.77686 343.360447 
L 189.960417 409.069329 
L 190.143974 405.271222 
L 190.327531 374.299534 
L 190.511088 363.76916 
L 190.694645 400.201646 
L 191.245316 314.410069 
L 191.428873 367.779178 
L 191.61243 362.546593 
L 191.795987 374.332136 
L 191.979544 368.480116 
L 192.163101 337.247614 
L 192.346658 365.138434 
L 192.530215 351.380484 
L 192.897328 403.869346 
L 193.080885 369.670081 
L 193.264442 374.902667 
L 193.447999 366.100187 
L 193.631556 371.952206 
L 193.815113 360.574185 
L 193.99867 360.574185 
L 194.182227 337.019401 
L 194.365784 359.204911 
L 194.549341 323.815681 
L 194.732898 359.204911 
L 194.916455 370.582931 
L 195.100012 366.670718 
L 195.283569 375.473198 
L 195.467126 398.604159 
L 196.017796 306.879058 
L 196.201353 342.105278 
L 196.38491 305.64019 
L 196.568467 293.610134 
L 196.752024 268.555668 
L 196.935581 295.501038 
L 197.119138 268.555668 
L 197.486252 301.027039 
L 197.669809 338.502782 
L 197.853366 338.502782 
L 198.036923 366.16539 
L 198.404037 359.058203 
L 198.587594 372.229321 
L 199.138265 471.355025 
L 199.321821 436.927548 
L 199.505378 425.549528 
L 199.688935 459.553182 
L 199.872492 419.273686 
L 200.056049 425.76144 
L 200.239606 466.040936 
L 200.60672 446.267958 
L 200.790277 409.802869 
L 200.973834 449.462932 
L 201.524505 376.875074 
L 201.891619 307.954917 
L 202.258733 355.52091 
L 202.44229 391.953396 
L 202.809403 373.076967 
L 202.99296 427.358927 
L 203.360074 438.736947 
L 203.543631 427.750148 
L 203.727188 406.493789 
L 204.094302 344.615615 
L 204.277859 347.125952 
L 204.461416 346.702129 
L 204.644973 409.933277 
L 204.82853 417.725101 
L 205.195644 343.246341 
L 205.379201 322.430106 
L 205.562758 336.465171 
L 205.746315 301.499765 
L 205.929871 292.143054 
L 206.113428 265.197685 
L 206.480542 313.399413 
L 206.664099 310.889077 
L 206.847656 310.481554 
L 207.031213 394.757149 
L 207.21477 395.164671 
L 207.398327 378.505163 
L 207.581884 378.097641 
L 207.765441 398.962778 
L 207.948998 361.193619 
L 208.132555 380.526473 
L 208.499669 320.506601 
L 208.683226 315.616334 
L 208.866783 326.440124 
L 209.05034 326.440124 
L 209.417453 361.372929 
L 209.60101 354.885175 
L 210.151681 276.265989 
L 210.335238 276.265989 
L 210.518795 302.233305 
L 210.702352 302.233305 
L 210.885909 281.840893 
L 211.069466 281.840893 
L 211.253023 317.230122 
L 211.43658 282.003902 
L 211.620137 326.619434 
L 211.803694 311.850829 
L 211.987251 325.413168 
L 212.170808 365.692664 
L 212.354365 351.152272 
L 212.537921 373.50079 
L 212.721478 373.337781 
L 212.905035 373.745304 
L 213.088592 397.300088 
L 213.272149 393.501981 
L 213.639263 329.912214 
L 214.006377 339.497136 
L 214.189934 370.061303 
L 214.373491 351.038166 
L 214.557048 315.013201 
L 214.740605 318.811308 
L 214.924162 331.966126 
L 215.107719 367.469461 
L 215.474833 350.043811 
L 215.65839 385.433041 
L 215.841946 394.235521 
L 216.20906 341.322836 
L 216.392617 367.290152 
L 216.576174 330.825063 
L 216.759731 344.729722 
L 216.943288 381.19481 
L 217.126845 393.811698 
L 217.310402 353.532201 
L 217.493959 378.977889 
L 217.861073 331.020674 
L 218.04463 331.444497 
L 218.411744 400.658071 
L 218.778858 332.634462 
L 219.329528 435.509371 
L 220.247313 310.204439 
L 220.43087 345.43066 
L 220.614427 344.468907 
L 220.797984 370.436223 
L 220.981541 372.94656 
L 221.165098 332.667064 
L 221.348655 323.880885 
L 221.532212 387.421749 
L 221.715769 353.222485 
L 221.899326 353.222485 
L 222.082883 329.6677 
L 222.26644 327.401877 
L 222.449996 327.401877 
L 222.633553 372.21302 
L 222.81711 346.245704 
L 223.000667 382.710792 
L 223.184224 371.332772 
L 223.367781 368.822435 
L 223.551338 360.199265 
L 223.734895 395.588494 
L 223.918452 359.123406 
L 224.102009 398.718265 
L 224.285566 364.290788 
L 224.469123 365.529656 
L 224.65268 391.496971 
L 225.019794 344.485208 
L 225.203351 357.183601 
L 225.386908 357.183601 
L 225.937578 245.457309 
L 226.121135 254.243488 
L 226.304692 249.010903 
L 226.488249 312.176847 
L 226.671806 274.407688 
L 226.855363 309.796917 
L 227.03892 296.756206 
L 227.222477 301.988791 
L 227.589591 331.31409 
L 227.773148 322.527911 
L 227.956705 336.44887 
L 228.140262 336.44887 
L 228.323819 411.954587 
L 228.690933 352.22813 
L 228.87449 361.014309 
L 229.058046 393.501981 
L 229.241603 389.703874 
L 229.608717 362.888912 
L 229.792274 417.51319 
L 229.975831 406.135169 
L 230.159388 365.855673 
L 230.342945 376.125233 
L 230.526502 350.483935 
L 230.710059 404.374673 
L 230.893616 364.779815 
L 231.077173 376.157835 
L 231.26073 335.878339 
L 231.444287 333.13979 
L 231.627844 333.13979 
L 231.994958 366.246895 
L 232.178515 357.444415 
L 232.362071 402.66308 
L 232.729185 342.952925 
L 232.912742 365.415549 
L 233.096299 364.209284 
L 233.279856 360.411177 
L 233.463413 360.411177 
L 233.64697 356.922786 
L 234.014084 282.688539 
L 234.197641 282.688539 
L 234.381198 362.220575 
L 234.564755 361.927159 
L 234.748312 377.885729 
L 235.298983 448.289268 
L 235.48254 423.234802 
L 235.666096 423.234802 
L 235.849653 396.110123 
L 236.03321 396.110123 
L 236.216767 358.340964 
L 236.400324 346.962943 
L 236.583881 327.907204 
L 237.134552 415.997207 
L 237.685223 326.472726 
L 238.052337 384.569094 
L 238.235894 371.528383 
L 238.419451 336.302162 
L 238.603008 327.499682 
L 238.970121 404.325771 
L 239.153678 404.733293 
L 239.337235 368.268205 
L 239.520792 357.281406 
L 239.704349 357.705229 
L 239.887906 331.737913 
L 240.071463 368.1704 
L 240.438577 295.957462 
L 240.622134 284.579442 
L 240.805691 281.596379 
L 240.989248 316.985609 
L 241.172805 311.753024 
L 241.356362 386.052475 
L 241.539919 393.844299 
L 241.723476 418.898765 
L 241.907033 398.08253 
L 242.09059 410.454905 
L 242.457703 444.817178 
L 242.64126 417.6925 
L 242.824817 418.116323 
L 243.008374 378.521464 
L 243.191931 367.534665 
L 243.375488 376.011127 
L 243.559045 378.521464 
L 243.742602 357.265105 
L 244.109716 370.289515 
L 244.293273 356.319653 
L 244.47683 356.319653 
L 244.660387 349.47328 
L 244.843944 349.049457 
L 245.027501 376.174136 
L 245.211058 339.74165 
L 245.578171 325.771788 
L 245.761728 321.973681 
L 245.945285 357.199901 
L 246.128842 365.823072 
L 246.312399 365.823072 
L 246.495956 405.41793 
L 246.679513 405.010408 
L 246.86307 422.778377 
L 247.046627 391.806688 
L 247.413741 410.161489 
L 247.597298 404.749594 
L 247.780855 395.947114 
L 247.964412 359.514628 
L 248.147969 369.670081 
L 248.331526 405.678745 
L 248.515083 367.909585 
L 248.69864 391.268759 
L 248.882196 391.28506 
L 249.432867 359.058203 
L 249.616424 359.058203 
L 249.983538 426.152661 
L 250.167095 402.597877 
L 250.350652 427.081812 
L 250.534209 391.855591 
L 250.717766 395.735202 
L 250.901323 358.911495 
L 251.08488 417.6925 
L 251.268437 411.204746 
L 251.451994 417.6925 
L 251.635551 394.137715 
L 251.819108 402.206655 
L 252.002665 394.708246 
L 252.186221 396.305734 
L 252.369778 377.249995 
L 252.736892 319.528548 
L 252.920449 340.784906 
L 253.104006 309.813218 
L 253.287563 364.567903 
L 253.47112 338.600587 
L 253.654677 351.641298 
L 253.838234 345.153545 
L 254.021791 398.310743 
L 254.205348 402.222956 
L 254.388905 398.424849 
L 254.572462 398.424849 
L 254.756019 417.203473 
L 254.939576 421.00158 
L 255.123133 405.04301 
L 255.30669 401.424213 
L 255.490246 389.377856 
L 255.673803 389.377856 
L 255.85736 384.145271 
L 256.040917 417.252376 
L 256.224474 379.483216 
L 256.591588 427.750148 
L 256.775145 417.480588 
L 256.958702 417.480588 
L 257.142259 394.03991 
L 257.325816 390.241803 
L 257.509373 381.439323 
L 257.69293 385.856864 
L 257.876487 406.673099 
L 258.060044 331.607506 
L 258.243601 332.015028 
L 258.427158 345.055739 
L 258.794271 270.071651 
L 258.977828 270.250961 
L 259.161385 261.448481 
L 259.344942 266.452854 
L 259.528499 263.404588 
L 259.895613 334.297153 
L 260.262727 302.053995 
L 260.629841 407.015417 
L 260.813398 398.212938 
L 260.996955 367.241249 
L 261.180512 367.241249 
L 261.547626 421.458005 
L 261.731183 381.178509 
L 261.91474 387.666263 
L 262.098296 385.155926 
L 262.281853 392.964051 
L 262.46541 384.226775 
L 262.648967 391.725184 
L 262.832524 385.23743 
L 263.016081 373.85941 
L 263.199638 385.677554 
L 263.383195 354.689565 
L 263.566752 349.456979 
L 263.933866 412.280605 
L 264.117423 399.680018 
L 264.30098 378.863783 
L 264.484537 375.375392 
L 264.851651 394.121414 
L 265.218765 455.67357 
L 265.402321 442.632859 
L 265.585878 447.865445 
L 265.769435 444.067338 
L 265.952992 408.841117 
L 266.136549 403.608532 
L 266.320106 403.608532 
L 266.503663 369.409267 
L 266.68722 360.623088 
L 266.870777 369.65378 
L 267.054334 342.529102 
L 267.237891 371.740294 
L 267.421448 374.006118 
L 267.605005 365.203638 
L 267.788562 363.948469 
L 267.972119 372.750949 
L 268.155676 399.875628 
L 268.52279 355.129689 
L 268.889903 448.126259 
L 269.07346 449.218418 
L 269.624131 355.211193 
L 269.807688 366.752222 
L 269.991245 348.967953 
L 270.174802 375.391693 
L 270.358359 363.508345 
L 270.541916 323.228849 
L 270.725473 317.996264 
L 270.90903 331.036975 
L 271.092587 324.549221 
L 271.276144 305.803199 
L 271.459701 329.064567 
L 271.643258 369.344064 
L 271.826815 332.911577 
L 272.010371 406.6894 
L 272.193928 406.6894 
L 272.377485 388.367201 
L 272.561042 384.569094 
L 272.744599 408.123878 
L 272.928156 370.354719 
L 273.111713 380.999199 
L 273.29527 381.423022 
L 273.478827 355.455706 
L 273.662384 378.63557 
L 273.845941 375.424295 
L 274.029498 338.959207 
L 274.213055 339.252623 
L 274.396612 305.053358 
L 274.580169 328.836355 
L 274.763726 305.281571 
L 274.947283 339.480835 
L 275.13084 346.734731 
L 275.497953 416.77965 
L 275.68151 356.058839 
L 275.865067 377.771623 
L 276.415738 264.496747 
L 276.599295 253.118727 
L 276.782852 229.563943 
L 277.149966 273.103616 
L 277.333523 395.115769 
L 277.51708 395.115769 
L 277.700637 423.75643 
L 277.884194 423.75643 
L 278.067751 424.48997 
L 278.251308 429.771458 
L 278.434865 425.973351 
L 278.618421 402.418567 
L 278.801978 402.418567 
L 278.985535 364.649408 
L 279.169092 405.580939 
L 279.352649 409.379046 
L 279.536206 390.355909 
L 279.719763 389.932086 
L 279.90332 440.578947 
L 280.086877 400.299451 
L 280.270434 430.015971 
L 280.453991 440.481142 
L 280.637548 435.248557 
L 280.821105 435.248557 
L 281.004662 424.978997 
L 281.188219 400.364655 
L 281.371776 405.59724 
L 281.555333 431.564556 
L 281.73889 440.921266 
L 281.922446 440.921266 
L 282.106003 462.177625 
L 282.28956 425.745139 
L 282.473117 443.089284 
L 282.656674 407.700055 
L 282.840231 407.700055 
L 283.207345 359.090805 
L 283.390902 407.944568 
L 283.758016 343.05073 
L 283.941573 339.138517 
L 284.12513 380.83619 
L 284.308687 352.195529 
L 284.492244 341.20873 
L 284.675801 352.195529 
L 284.859358 346.962943 
L 285.042915 367.779178 
L 285.226471 367.371656 
L 285.410028 373.256277 
L 285.593585 374.59295 
L 285.777142 405.564638 
L 285.960699 398.848672 
L 286.144256 422.403456 
L 286.327813 404.472479 
L 286.51137 400.674372 
L 286.694927 360.394876 
L 286.878484 360.394876 
L 287.062041 400.674372 
L 287.245598 392.295715 
L 287.429155 371.47948 
L 287.612712 403.445523 
L 287.796269 412.883737 
L 287.979826 373.288879 
L 288.163383 396.110123 
L 288.34694 386.574103 
L 288.530496 363.182328 
L 288.714053 389.149643 
L 288.89761 385.661253 
L 289.081167 420.887474 
L 289.264724 426.120059 
L 289.448281 414.171508 
L 289.631838 379.972243 
L 289.815395 374.576649 
L 289.998952 374.576649 
L 290.182509 370.778542 
L 290.366066 388.546511 
L 290.549623 375.5058 
L 290.73318 388.546511 
L 290.916737 361.601141 
L 291.100294 356.368556 
L 291.283851 392.39352 
L 291.467408 385.009218 
L 291.650965 349.782997 
L 291.834521 362.236876 
L 292.018078 354.42875 
L 292.201635 362.220575 
L 292.568749 305.281571 
L 292.752306 351.706502 
L 292.935863 360.508982 
L 293.11942 360.085159 
L 293.302977 345.756678 
L 293.670091 282.933052 
L 293.853648 295.973763 
L 294.037205 295.566241 
L 294.220762 330.792462 
L 294.404319 328.705948 
L 294.587876 349.522183 
L 294.771433 337.573631 
L 294.95499 338.535384 
L 295.138546 335.910941 
L 295.322103 365.513355 
L 295.50566 331.31409 
L 295.872774 338.991809 
L 296.056331 298.712313 
L 296.239888 287.334292 
L 296.607002 323.766779 
L 296.974116 270.674784 
L 297.34123 373.191073 
L 297.524787 360.557885 
L 297.708344 329.586196 
L 297.891901 318.208176 
L 298.075458 319.121025 
L 298.259015 386.932723 
L 298.442571 355.961034 
L 298.809685 355.961034 
L 298.993242 378.325853 
L 299.176799 341.860765 
L 299.360356 362.49769 
L 299.543913 424.017244 
L 299.911027 376.79357 
L 300.094584 363.752859 
L 300.828812 283.650291 
L 301.012369 302.477818 
L 301.195926 266.01273 
L 301.379483 317.653945 
L 301.746596 298.598206 
L 301.930153 312.062741 
L 302.297267 357.786733 
L 302.480824 367.942187 
L 302.664381 388.3509 
L 302.847938 372.76725 
L 303.031495 372.76725 
L 303.215052 361.38923 
L 303.398609 369.181055 
L 303.582166 329.586196 
L 303.765723 369.181055 
L 303.94928 338.209366 
L 304.316394 364.861319 
L 304.499951 368.887639 
L 304.683508 328.608143 
L 304.867065 387.193537 
L 305.050621 404.994107 
L 305.234178 404.586585 
L 305.417735 426.299369 
L 305.601292 391.073148 
L 305.784849 393.795397 
L 305.968406 368.740931 
L 306.151963 399.288796 
L 306.33552 381.92835 
L 306.702634 381.92835 
L 307.069748 434.726928 
L 307.253305 427.619741 
L 307.436862 444.980187 
L 307.620419 444.018435 
L 307.803976 435.639778 
L 307.987533 450.52249 
L 308.17109 448.012153 
L 308.354646 269.387014 
L 308.538203 241.98522 
L 308.905317 313.643927 
L 309.088874 322.430106 
L 309.272431 360.199265 
L 309.639545 297.848366 
L 309.823102 261.415879 
L 310.006659 342.023774 
L 310.190216 304.254615 
L 310.373773 317.833255 
L 310.55733 283.633991 
L 310.740887 283.633991 
L 310.924444 292.43647 
L 311.108001 292.43647 
L 311.291558 255.971382 
L 311.475115 255.971382 
L 311.658671 284.938062 
L 312.025785 301.499765 
L 312.209342 394.154016 
L 312.392899 395.115769 
L 312.576456 423.56082 
L 312.760013 427.032909 
L 312.94357 444.800878 
L 313.127127 436.014699 
L 313.310684 398.245539 
L 313.494241 394.365928 
L 314.044912 318.387485 
L 314.228469 294.832701 
L 314.595583 368.626824 
L 314.77914 331.803117 
L 314.962696 333.824427 
L 315.146253 339.285225 
L 315.32981 338.877703 
L 315.513367 343.474553 
L 315.696924 354.852573 
L 316.064038 429.44544 
L 316.247595 389.850582 
L 316.431152 377.217393 
L 316.614709 414.301915 
L 316.798266 426.935104 
L 316.981823 422.061138 
L 317.16538 445.2084 
L 317.532494 395.425486 
L 317.716051 395.425486 
L 317.899608 418.98027 
L 318.083165 418.98027 
L 318.266721 418.556447 
L 318.450278 428.15767 
L 318.633835 392.93145 
L 318.817392 384.86251 
L 319.000949 384.86251 
L 319.184506 385.889466 
L 319.368063 454.108685 
L 319.55162 448.8761 
L 319.735177 310.677165 
L 320.285848 389.899484 
L 320.469405 383.411731 
L 320.652962 346.946642 
L 320.836519 382.694491 
L 321.020076 382.694491 
L 321.203633 409.62356 
L 321.38719 386.068775 
L 321.570746 391.056847 
L 321.754303 390.633024 
L 321.93786 414.187809 
L 322.121417 402.809788 
L 322.488531 331.118479 
L 322.855645 331.118479 
L 323.039202 360.248168 
L 323.222759 371.626188 
L 323.406316 349.440678 
L 323.589873 377.16849 
L 323.77343 377.16849 
L 323.956987 368.789833 
L 324.140544 342.822518 
L 324.324101 342.822518 
L 324.507658 367.273851 
L 324.691215 332.04763 
L 324.874771 344.077686 
L 325.058328 346.376111 
L 325.241885 380.396066 
L 325.425442 389.198546 
L 325.608999 450.783304 
L 325.792556 424.815988 
L 325.976113 437.856699 
L 326.15967 401.032991 
L 326.343227 404.831098 
L 326.526784 368.36601 
L 326.710341 394.333326 
L 326.893898 385.547147 
L 327.077455 417.774004 
L 327.444569 339.725349 
L 327.811683 377.967234 
L 328.178796 353.809317 
L 328.54591 293.52863 
L 328.729467 256.704922 
L 328.913024 256.704922 
L 329.096581 327.026956 
L 329.280138 346.147899 
L 329.463695 377.119588 
L 329.647252 366.132788 
L 329.830809 385.188527 
L 330.014366 385.188527 
L 330.197923 392.996653 
L 330.38148 385.498244 
L 330.565037 396.485043 
L 330.932151 336.465171 
L 331.115708 353.401794 
L 331.299265 352.831263 
L 331.482821 374.755959 
L 331.666378 373.663799 
L 331.849935 348.609333 
L 332.033492 373.663799 
L 332.217049 369.865692 
L 332.400606 369.865692 
L 332.584163 388.644316 
L 332.76772 392.442423 
L 332.951277 367.387957 
L 333.134834 380.428668 
L 333.318391 372.636843 
L 333.501948 242.865468 
L 333.685505 233.280545 
L 333.869062 261.61149 
L 334.052619 253.379541 
L 334.419733 326.374921 
L 334.60329 333.87333 
L 334.786846 322.495309 
L 334.970403 333.87333 
L 335.15396 297.049622 
L 335.337517 319.39814 
L 335.521074 284.17192 
L 335.704631 292.9744 
L 335.888188 292.9744 
L 336.071745 304.499128 
L 336.255302 297.131126 
L 336.622416 368.154099 
L 336.805973 365.643762 
L 336.98953 356.857583 
L 337.173087 387.79667 
L 337.356644 378.99419 
L 337.540201 344.794925 
L 337.723758 332.194338 
L 337.907315 305.656491 
L 338.090871 305.656491 
L 338.274428 294.278471 
L 338.457985 328.705948 
L 338.825099 265.882323 
L 339.008656 290.936789 
L 339.192213 284.449035 
L 339.742884 367.176045 
L 339.926441 375.978525 
L 340.293555 301.385658 
L 340.477112 320.539203 
L 340.660669 327.026956 
L 340.844226 305.770597 
L 341.027783 305.770597 
L 341.21134 286.617053 
L 341.578453 380.868792 
L 341.76201 374.381038 
L 341.945567 344.436306 
L 342.129124 353.059476 
L 342.312681 353.059476 
L 342.496238 315.290316 
L 342.863352 352.749759 
L 343.046909 392.523927 
L 343.230466 406.493789 
L 343.414023 403.983452 
L 343.59758 396.501344 
L 343.781137 371.446878 
L 343.964694 384.992917 
L 344.148251 361.438133 
L 344.331808 395.458087 
L 344.515365 383.933359 
L 344.882478 411.64487 
L 345.066035 401.668726 
L 345.433149 359.808044 
L 345.616706 356.009937 
L 345.800263 381.39042 
L 345.98382 376.483853 
L 346.167377 357.819335 
L 346.350934 394.643043 
L 346.534491 351.168573 
L 346.718048 385.530846 
L 346.901605 385.107023 
L 347.085162 388.986635 
L 347.268719 399.810425 
L 347.452276 399.810425 
L 347.635833 365.008027 
L 347.81939 391.953396 
L 348.186503 373.076967 
L 348.37006 384.454987 
L 348.920731 283.536185 
L 349.104288 321.305344 
L 349.287845 284.840256 
L 349.471402 281.042149 
L 349.654959 281.042149 
L 349.838516 375.359092 
L 350.022073 386.818616 
L 350.20563 375.831817 
L 350.389187 402.956496 
L 350.572744 366.328399 
L 350.756301 364.747213 
L 350.939858 380.754686 
L 351.123415 378.570367 
L 351.306971 367.192346 
L 351.490528 368.398612 
L 351.674085 380.428668 
L 351.857642 421.115686 
L 352.041199 390.143998 
L 352.224756 392.75214 
L 352.408313 403.738939 
L 352.59187 368.512718 
L 352.775427 409.656161 
L 352.958984 383.688846 
L 353.142541 381.19481 
L 353.326098 411.742675 
L 353.509655 382.841199 
L 353.693212 374.03872 
L 353.876769 334.867684 
L 354.060326 335.226303 
L 354.243883 329.11347 
L 354.42744 328.689647 
L 354.794553 394.137715 
L 354.97811 393.175963 
L 355.161667 385.384138 
L 355.345224 413.682481 
L 355.528781 404.880001 
L 355.712338 369.65378 
L 355.895895 389.100741 
L 356.079452 428.239175 
L 356.263009 390.470015 
L 356.446566 389.035537 
L 356.630123 385.23743 
L 356.81368 359.270114 
L 356.997237 352.162927 
L 357.180794 389.932086 
L 357.364351 355.928432 
L 357.547908 364.730912 
L 357.731465 337.0031 
L 357.915021 337.0031 
L 358.098578 299.233941 
L 358.282135 310.22074 
L 358.465692 310.22074 
L 358.649249 347.989899 
L 358.832806 308.395041 
L 359.016363 312.193148 
L 359.19992 312.193148 
L 359.383477 324.842637 
L 359.567034 299.788171 
L 359.934148 369.441869 
L 360.117705 329.84701 
L 360.301262 344.843828 
L 360.484819 333.465807 
L 360.668376 333.041984 
L 360.851933 359.971053 
L 361.03549 360.394876 
L 361.219047 333.449507 
L 361.402603 373.044365 
L 361.58616 369.164754 
L 361.953274 416.355827 
L 362.320388 356.62937 
L 362.503945 360.182964 
L 362.871059 304.091606 
L 363.054616 315.078405 
L 363.238173 304.091606 
L 363.42173 341.632553 
L 363.605287 315.665237 
L 363.788844 315.665237 
L 364.155958 362.611797 
L 364.339515 327.385576 
L 364.523072 332.927878 
L 364.706628 292.648382 
L 364.890185 279.183848 
L 365.073742 300.440207 
L 365.257299 417.985916 
L 365.440856 417.985916 
L 365.624413 392.0186 
L 365.80797 429.363936 
L 366.175084 368.414913 
L 366.358641 391.855591 
L 366.542198 374.918968 
L 366.725755 338.453879 
L 366.909312 350.483935 
L 367.092869 328.00501 
L 367.459983 390.437414 
L 367.64354 426.152661 
L 367.827097 422.354554 
L 368.010653 426.853599 
L 368.19421 409.476852 
L 368.377767 436.40592 
L 368.561324 444.621568 
L 368.744881 442.111231 
L 368.928438 449.60964 
L 369.111995 442.127532 
L 369.479109 442.127532 
L 369.662666 441.475496 
L 369.846223 439.454186 
L 370.213337 413.66618 
L 370.396894 444.637869 
L 370.580451 267.561314 
L 370.764008 305.330473 
L 370.947565 301.711676 
L 371.131122 301.711676 
L 371.314678 267.512412 
L 371.498235 294.63709 
L 371.681792 281.319264 
L 371.865349 254.194585 
L 372.048906 306.944261 
L 372.232463 303.146154 
L 372.41602 266.681066 
L 372.599577 303.146154 
L 372.783134 303.146154 
L 372.966691 287.529903 
L 373.150248 298.907923 
L 373.333805 303.325464 
L 373.517362 334.297153 
L 373.700919 294.702294 
L 373.884476 326.17931 
L 374.068033 377.641216 
L 374.25159 377.934632 
L 374.435147 396.713256 
L 374.618703 367.387957 
L 374.80226 404.211665 
L 374.985817 382.955306 
L 375.169374 412.900038 
L 375.352931 421.702518 
L 375.536488 385.23743 
L 375.720045 375.081976 
L 375.903602 337.312817 
L 376.087159 368.284506 
L 376.270716 363.051921 
L 376.454273 368.284506 
L 376.821387 384.275678 
L 377.004944 393.078158 
L 377.188501 368.023692 
L 377.372058 374.511445 
L 377.555615 393.958406 
L 377.739172 393.958406 
L 377.922728 388.72582 
L 378.106285 363.671354 
L 378.289842 363.671354 
L 378.473399 434.743229 
L 378.656956 442.535054 
L 378.840513 433.732574 
L 379.02407 399.53331 
L 379.207627 404.765895 
L 379.391184 402.255558 
L 379.574741 375.310189 
L 379.758298 384.487589 
L 379.941855 292.403869 
L 380.125412 288.605762 
L 380.308969 295.680347 
L 380.492526 364.421195 
L 380.676083 355.635016 
L 381.226753 362.367283 
L 381.777424 287.66031 
L 381.960981 303.79819 
L 382.144538 292.42017 
L 382.328095 328.836355 
L 382.511652 314.426369 
L 382.695209 280.227105 
L 382.878766 291.311709 
L 383.062323 291.311709 
L 383.24588 332.063931 
L 383.429437 306.618244 
L 383.612994 310.872776 
L 383.796551 310.872776 
L 383.980108 347.305262 
L 384.163665 328.966762 
L 384.347222 297.37564 
L 384.530778 321.859575 
L 384.714335 366.89893 
L 385.081449 373.386684 
L 385.265006 410.210392 
L 385.448563 374.984171 
L 385.63212 366.197992 
L 385.815677 378.847482 
L 385.999234 370.045002 
L 386.182791 378.847482 
L 386.549905 329.912214 
L 386.917019 329.912214 
L 387.100576 338.127862 
L 387.284133 328.249523 
L 387.651247 290.904187 
L 387.834803 290.904187 
L 388.201917 307.058368 
L 388.385474 343.882075 
L 388.569031 309.682811 
L 388.752588 349.27767 
L 388.936145 325.722885 
L 389.119702 323.212548 
L 389.303259 286.388841 
L 389.670373 333.368002 
L 389.85393 335.878339 
L 390.037487 299.445853 
L 390.404601 345.577368 
L 390.771715 421.148288 
L 390.955272 426.397174 
L 391.138828 391.170954 
L 391.322385 391.170954 
L 391.505942 395.14837 
L 391.689499 395.996017 
L 392.056613 382.449978 
L 392.423727 382.449978 
L 392.790841 389.002935 
L 392.974398 379.515818 
L 393.157955 358.259459 
L 393.341512 389.002935 
L 393.525069 365.448151 
L 393.708626 360.949106 
L 393.892183 335.89464 
L 394.259297 400.495062 
L 394.442853 382.727093 
L 394.62641 391.203555 
L 394.993524 426.429776 
L 395.360638 363.997372 
L 395.544195 395.034264 
L 395.727752 387.535855 
L 395.911309 268.360058 
L 396.094866 302.559322 
L 396.278423 262.279826 
L 396.46198 272.109262 
L 396.645537 272.109262 
L 396.829094 300.570614 
L 397.012651 311.557413 
L 397.196208 304.059004 
L 397.563322 338.486481 
L 397.930435 285.573796 
L 398.297549 346.816235 
L 398.481106 337.378021 
L 398.664663 374.723357 
L 398.84822 382.107659 
L 399.031777 419.876819 
L 399.582448 367.176045 
L 399.766005 357.688928 
L 399.949562 397.283787 
L 400.316676 373.663799 
L 400.500233 337.198711 
L 400.68379 336.236959 
L 400.867347 348.870147 
L 401.050903 348.870147 
L 401.23446 370.126506 
L 401.601574 320.604406 
L 401.785131 330.091523 
L 401.968688 330.091523 
L 402.152245 293.675338 
L 402.335802 318.550494 
L 402.519359 311.052085 
L 402.702916 313.317909 
L 402.886473 336.872693 
L 403.07003 376.402348 
L 403.253587 375.994826 
L 403.437144 350.02751 
L 403.620701 362.041265 
L 403.804258 359.938451 
L 403.987815 338.682092 
L 404.354928 344.680819 
L 404.538485 353.483299 
L 404.722042 379.450615 
L 404.905599 342.985526 
L 405.089156 350.483935 
L 405.272713 324.51662 
L 405.45627 324.109097 
L 405.639827 383.03681 
L 405.823384 382.352173 
L 406.006941 414.497525 
L 406.190498 403.510726 
L 406.374055 400.038637 
L 406.924726 324.402513 
L 407.108283 324.402513 
L 407.29184 336.07395 
L 407.475397 295.794454 
L 407.658953 386.166581 
L 407.84251 398.701964 
L 408.026067 391.203555 
L 408.209624 392.801042 
L 408.393181 389.002935 
L 408.576738 365.448151 
L 408.760295 325.168655 
L 408.943852 325.168655 
L 409.127409 343.40935 
L 409.310966 343.40935 
L 409.67808 291.230205 
L 409.861637 324.761133 
L 410.045194 324.761133 
L 410.228751 313.383113 
L 410.412308 348.54413 
L 410.595865 348.772342 
L 410.779422 337.785543 
L 411.146535 273.413333 
L 411.330092 277.325547 
L 411.513649 277.325547 
L 411.880763 330.75986 
L 412.06432 332.063931 
L 412.247877 369.947196 
L 412.431434 372.343427 
L 412.614991 362.513991 
L 412.798548 362.513991 
L 412.982105 385.954669 
L 413.165662 385.547147 
L 413.349219 396.533946 
L 413.532776 358.764787 
L 413.716333 347.777988 
L 413.89989 322.218194 
L 414.083447 322.218194 
L 414.267003 318.420087 
L 414.45056 302.461517 
L 414.634117 302.461517 
L 414.817674 303.504774 
L 415.368345 381.048102 
L 415.735459 383.265023 
L 415.919016 382.841199 
L 416.102573 393.827998 
L 416.469687 318.322282 
L 416.653244 342.561703 
L 416.836801 342.561703 
L 417.020358 413.209755 
L 417.203915 374.03872 
L 417.387472 405.515736 
L 417.571028 386.362191 
L 417.754585 348.593032 
L 417.938142 261.285472 
L 418.121699 263.795809 
L 418.305256 273.983864 
L 418.488813 243.012176 
L 418.67237 269.647828 
L 418.855927 277.032131 
L 419.039484 277.032131 
L 419.223041 251.977665 
L 419.406598 334.720976 
L 419.590155 334.720976 
L 419.773712 325.413168 
L 420.324383 269.028394 
L 420.50794 265.996429 
L 420.691497 229.531341 
L 421.05861 304.010101 
L 421.242167 302.184402 
L 421.609281 395.833008 
L 421.792838 361.405531 
L 421.976395 361.813053 
L 422.159952 344.045084 
L 422.343509 355.716521 
L 422.527066 321.517256 
L 422.710623 353.303989 
L 422.89418 362.106469 
L 423.077737 353.303989 
L 423.261294 379.271305 
L 423.444851 338.991809 
L 423.628408 325.673983 
L 423.811965 360.10146 
L 423.995522 353.613706 
L 424.179078 319.414441 
L 424.546192 377.461906 
L 424.729749 398.278141 
L 424.913306 434.743229 
L 425.096863 434.335707 
L 425.28042 343.490854 
L 425.463977 361.258823 
L 425.647534 397.723911 
L 425.831091 361.258823 
L 426.014648 350.272024 
L 426.381762 290.985691 
L 426.565319 284.497938 
L 426.748876 263.241579 
L 426.932433 269.729332 
L 427.11599 260.943153 
L 427.299547 297.37564 
L 427.483103 296.951817 
L 427.66666 296.951817 
L 427.850217 288.57316 
L 428.033774 286.062823 
L 428.584445 375.619906 
L 429.318673 356.873884 
L 429.685787 383.053111 
L 429.869344 350.500236 
L 430.052901 367.45316 
L 430.236458 367.45316 
L 430.603572 390.095095 
L 430.787128 404.179063 
L 430.970685 377.576012 
L 431.154242 384.944014 
L 431.337799 361.38923 
L 431.521356 369.65378 
L 431.704913 329.374284 
L 432.072027 399.17469 
L 432.255584 399.17469 
L 432.622698 430.504998 
L 432.806255 409.688763 
L 432.989812 404.456178 
L 433.173369 417.496889 
L 433.356926 405.548337 
L 433.540483 403.282514 
L 433.72404 367.25755 
L 433.907597 365.96978 
L 434.091153 354.591759 
L 434.27471 326.554231 
L 434.641824 393.387874 
L 434.825381 430.211582 
L 435.008938 404.244266 
L 435.192495 401.73393 
L 435.559609 401.73393 
L 435.743166 395.914512 
L 435.926723 358.145353 
L 436.11028 346.767333 
L 436.293837 310.302245 
L 436.477394 310.302245 
L 436.660951 270.022748 
L 436.844508 286.74746 
L 437.028065 286.74746 
L 437.211622 323.212548 
L 437.578735 323.212548 
L 437.762292 360.981708 
L 437.945849 342.203084 
L 438.129406 353.581104 
L 438.312963 353.581104 
L 438.680077 383.102014 
L 438.863634 379.303907 
L 439.047191 362.677 
L 439.230748 417.252376 
L 439.414305 396.436141 
L 439.597862 400.234248 
L 440.148533 435.835389 
L 440.699203 349.456979 
L 440.88276 349.636289 
L 441.066317 338.258269 
L 441.249874 372.457533 
L 441.433431 372.457533 
L 441.616988 337.231313 
L 441.800545 358.944097 
L 441.984102 336.954198 
L 442.167659 336.954198 
L 442.351216 310.986882 
L 442.534773 310.986882 
L 442.71833 342.480199 
L 442.901887 345.25135 
L 443.085444 307.482191 
L 443.269001 307.482191 
L 443.452558 356.221848 
L 443.636115 350.989263 
L 443.819672 325.934797 
L 444.186785 377.934632 
L 444.370342 377.934632 
L 444.553899 357.118397 
L 444.737456 370.436223 
L 444.921013 412.264304 
L 445.10457 409.868073 
L 445.288127 373.402985 
L 445.471684 373.402985 
L 445.655241 370.892648 
L 445.838798 373.402985 
L 446.022355 406.444886 
L 446.389469 406.444886 
L 446.756583 342.186783 
L 446.94014 342.186783 
L 447.307253 282.933052 
L 447.674367 343.213739 
L 447.857924 355.16229 
L 448.041481 343.213739 
L 448.225038 380.037447 
L 448.408595 340.442588 
L 448.592152 378.488862 
L 448.775709 387.927077 
L 448.959266 362.872611 
L 449.142823 364.975425 
L 449.509937 418.637951 
L 449.877051 418.637951 
L 450.060608 424.457368 
L 450.244165 424.864891 
L 450.427722 390.437414 
L 450.611278 426.8699 
L 450.794835 426.462378 
L 450.978392 424.457368 
L 451.161949 420.659261 
L 451.345506 288.149337 
L 451.529063 279.346857 
L 451.71262 279.346857 
L 451.896177 264.936871 
L 452.079734 268.506766 
L 452.446848 268.506766 
L 452.630405 228.651093 
L 452.813962 228.651093 
L 452.997519 219.848613 
L 453.181076 219.848613 
L 453.364633 229.189022 
L 453.54819 229.189022 
L 453.915303 308.19943 
L 454.09886 342.398694 
L 454.282417 305.933606 
L 454.465974 305.933606 
L 454.649531 298.84272 
L 454.833088 304.075305 
L 455.016645 304.075305 
L 455.200202 267.642819 
L 455.383759 267.642819 
L 455.567316 258.840339 
L 455.750873 242.18083 
L 455.93443 238.382723 
L 456.117987 238.382723 
L 456.301544 274.847812 
L 456.485101 282.34622 
L 456.668658 271.359421 
L 456.852215 296.413887 
L 457.035772 296.413887 
L 457.219328 271.359421 
L 457.402885 297.326737 
L 457.586442 297.326737 
L 457.769999 322.381203 
L 458.137113 329.635099 
L 458.504227 329.635099 
L 458.687784 303.211358 
L 459.054898 303.211358 
L 459.238455 330.336037 
L 459.605569 330.336037 
L 459.789126 321.533557 
L 459.972683 354.999281 
L 460.15624 344.012482 
L 460.70691 344.012482 
L 460.890467 341.95857 
L 461.257581 353.255086 
L 461.441138 353.255086 
L 461.624695 345.463262 
L 461.808252 328.510337 
L 461.991809 328.510337 
L 462.175366 292.045249 
L 462.358923 310.546758 
L 462.54248 310.546758 
L 462.909594 385.579749 
L 463.093151 391.138352 
L 463.276708 385.905767 
L 463.460265 399.859327 
L 463.643822 399.859327 
L 463.827378 391.415467 
L 464.010935 364.290788 
L 464.194492 374.560348 
L 464.92872 374.560348 
L 465.112277 370.762241 
L 465.295834 397.414194 
L 465.479391 403.722638 
L 465.662948 374.397339 
L 465.846505 386.427395 
L 466.030062 386.427395 
L 466.213619 390.225502 
L 466.580733 390.225502 
L 466.76429 424.652979 
L 466.947847 412.704428 
L 467.131403 412.704428 
L 467.31496 431.368945 
L 467.498517 431.368945 
L 467.682074 419.990925 
L 467.865631 419.990925 
L 468.049188 394.023609 
L 468.232745 394.023609 
L 468.416302 385.221129 
L 468.966973 385.221129 
L 469.15053 396.59915 
L 469.334087 360.134061 
L 469.517644 360.134061 
L 469.701201 361.095814 
L 469.884758 369.898294 
L 470.068315 344.843828 
L 470.251872 370.811144 
L 470.435428 362.024965 
L 470.618985 362.024965 
L 470.802542 372.050011 
L 470.986099 407.276232 
L 471.169656 418.263031 
L 471.53677 404.276868 
L 471.720327 410.764622 
L 471.903884 408.254285 
L 472.087441 417.431685 
L 472.270998 417.431685 
L 472.454555 430.977724 
L 472.638112 430.977724 
L 472.821669 438.476133 
L 473.005226 417.659898 
L 473.188783 429.103122 
L 473.739453 429.119423 
L 473.92301 423.952041 
L 474.106567 442.730665 
L 474.290124 419.17588 
L 474.473681 443.790222 
L 475.024352 332.22694 
L 475.207909 391.28506 
L 475.391466 391.692582 
L 475.575023 415.247366 
L 475.75858 410.014781 
L 476.125694 397.33269 
L 476.492808 410.047383 
L 476.676365 379.075694 
L 476.859922 374.658153 
L 477.043478 338.225667 
L 477.227035 332.145435 
L 477.410592 313.855838 
L 477.594149 313.855838 
L 477.777706 276.086679 
L 477.961263 276.086679 
L 478.14482 264.708659 
L 478.695491 264.708659 
L 478.879048 278.042786 
L 480.347503 278.042786 
L 480.53106 314.475272 
L 480.714617 314.475272 
L 480.898174 274.880413 
L 481.081731 310.269643 
L 481.265288 310.269643 
L 481.448845 324.239504 
L 481.999516 233.573961 
L 482.550187 233.573961 
L 482.733744 251.912461 
L 482.917301 248.114354 
L 483.100858 248.114354 
L 483.284415 255.531258 
L 483.467972 255.531258 
L 483.651528 259.329365 
L 484.018642 259.329365 
L 484.202199 297.098525 
L 484.385756 276.28229 
L 484.569313 276.28229 
L 484.75287 282.101707 
L 484.936427 257.047241 
L 485.119984 268.425261 
L 485.487098 268.425261 
L 485.670655 264.627154 
L 486.037769 285.883513 
L 486.221326 250.494284 
L 486.404883 271.310519 
L 486.58844 271.310519 
L 486.771997 283.25907 
L 486.955553 265.491101 
L 487.13911 225.896243 
L 487.689781 258.840339 
L 488.056895 205.748344 
L 488.240452 241.137574 
L 488.424009 237.257962 
L 488.97468 237.257962 
L 489.158237 258.514321 
L 489.525351 238.350122 
L 489.708908 238.350122 
L 489.892465 247.136301 
L 490.076022 211.91008 
L 490.993806 211.91008 
L 491.177363 198.021723 
L 491.36092 160.252564 
L 491.544477 186.219879 
L 491.728034 186.219879 
L 491.911591 209.774664 
L 492.095148 175.575399 
L 493.19649 175.575399 
L 493.380047 179.373506 
L 494.297831 179.373506 
L 494.481388 153.40619 
L 494.848502 153.40619 
L 495.032059 157.204297 
L 495.215616 157.204297 
L 495.399173 197.483794 
L 495.58273 197.483794 
L 495.766287 220.940772 
L 495.949844 207.785955 
L 496.316958 207.785955 
L 496.500515 221.755817 
L 496.684072 214.257408 
L 496.867628 214.257408 
L 497.051185 200.499458 
L 497.234742 196.701351 
L 497.418299 169.576672 
L 497.96897 255.726869 
L 498.152527 230.672403 
L 498.336084 230.672403 
L 498.519641 226.792792 
L 498.703198 226.792792 
L 498.886755 194.239917 
L 499.070312 193.816094 
L 499.253869 228.015358 
L 499.437426 228.015358 
L 499.620983 267.610217 
L 499.80454 256.623418 
L 499.988097 256.623418 
L 500.171653 281.677884 
L 500.35521 281.677884 
L 500.538767 276.445299 
L 501.089438 276.445299 
L 501.272995 281.677884 
L 501.456552 276.445299 
L 502.19078 276.445299 
L 502.374337 238.676139 
L 503.292122 238.676139 
L 503.475678 203.873742 
L 504.209906 203.873742 
L 504.393463 207.671849 
L 504.57702 237.632883 
L 505.494805 237.632883 
L 505.678362 239.067361 
L 505.861919 230.835412 
L 506.045476 230.835412 
L 506.229033 240.094317 
L 506.41259 240.094317 
L 506.596147 239.165166 
L 506.779703 239.165166 
L 506.96326 253.738161 
L 507.513931 253.738161 
L 507.697488 267.626518 
L 507.881045 267.626518 
L 508.064602 256.248497 
L 508.79883 256.248497 
L 508.982387 267.626518 
L 509.716615 267.626518 
L 509.900172 272.8102 
L 510.083728 237.58398 
L 510.267285 245.962637 
L 511.368627 245.962637 
L 511.552184 246.370159 
L 511.919298 221.951428 
L 512.102855 221.951428 
L 512.286412 234.992139 
L 512.469969 232.481802 
L 512.653526 232.481802 
L 512.837083 226.173358 
L 513.02064 226.173358 
L 513.204197 220.940772 
L 513.754867 220.940772 
L 513.938424 223.451109 
L 514.305538 223.451109 
L 514.489095 219.082471 
L 515.40688 219.082471 
L 515.590437 242.001521 
L 516.141108 242.001521 
L 516.324665 279.77068 
L 516.691778 279.77068 
L 516.875335 242.001521 
L 517.058892 242.001521 
L 517.426006 205.569034 
L 517.79312 205.569034 
L 517.976677 230.6235 
L 518.343791 230.6235 
L 518.527348 224.315056 
L 518.710905 224.315056 
L 518.894462 189.088836 
L 519.445133 189.088836 
L 519.812247 194.060607 
L 520.362917 194.060607 
L 520.546474 200.597263 
L 520.730031 191.794783 
L 520.913588 191.794783 
L 521.097145 231.389642 
L 521.280702 200.417954 
L 521.831373 200.417954 
L 522.01493 175.363488 
L 522.565601 272.207068 
L 522.932715 272.207068 
L 523.116272 268.40896 
L 523.850499 268.40896 
L 524.034056 244.854176 
L 524.768284 244.854176 
L 524.951841 215.887497 
L 526.23674 215.887497 
L 526.420297 217.04486 
L 526.603853 225.1138 
L 526.78741 248.668584 
L 526.970967 248.668584 
L 527.154524 273.72305 
L 527.338081 273.72305 
L 527.705195 221.022277 
L 527.888752 218.51194 
L 528.072309 218.51194 
L 528.255866 221.022277 
L 528.806537 221.022277 
L 528.990094 215.789692 
L 529.357208 215.789692 
L 529.540765 251.015912 
L 529.724322 256.248497 
L 529.907878 256.248497 
L 530.091435 255.824674 
L 530.274992 255.824674 
L 530.458549 230.770208 
L 530.825663 230.770208 
L 531.00922 190.490712 
L 531.376334 190.490712 
L 531.559891 214.045497 
L 532.110562 214.045497 
L 532.294119 231.976474 
L 532.661233 231.976474 
L 532.84479 197.174077 
L 533.211903 197.174077 
L 533.39546 226.20596 
L 534.496802 226.20596 
L 534.863916 173.619292 
L 536.699485 173.619292 
L 536.883042 152.232526 
L 537.61727 152.232526 
L 537.800827 184.296375 
L 540.370624 184.296375 
L 540.554181 207.851159 
L 541.104852 207.851159 
L 541.288409 196.473138 
L 541.471966 196.473138 
L 541.655523 187.670659 
L 542.756865 187.670659 
L 542.940422 192.039297 
L 543.123978 191.615474 
L 544.592434 191.615474 
L 544.775991 187.817367 
L 545.510219 187.817367 
L 545.693776 193.734589 
L 546.244447 193.734589 
L 546.428003 205.112609 
L 546.61156 208.959619 
L 546.795117 208.959619 
L 546.978674 212.757726 
L 547.162231 212.757726 
L 547.345788 208.959619 
L 547.712902 208.959619 
L 547.896459 217.762099 
L 548.814244 217.762099 
L 548.997801 181.329613 
L 549.181358 182.37287 
L 550.649813 182.37287 
L 550.83337 186.170977 
L 552.485383 186.170977 
L 552.66894 184.165967 
L 552.852497 184.165967 
L 553.036053 181.655631 
L 554.504509 181.655631 
L 554.688066 181.394816 
L 555.05518 181.394816 
L 555.238737 144.929728 
L 556.156522 144.929728 
L 556.340078 133.551708 
L 558.909876 133.551708 
L 559.093433 109.996924 
L 565.334369 109.996924 
L 565.517926 101.194444 
L 569.189065 101.194444 
L 569.372622 112.572464 
L 577.449127 112.572464 
L 577.632684 121.374944 
L 577.816241 109.996924 
L 580.202481 109.996924 
L 580.386038 101.194444 
L 580.569595 101.194444 
L 580.753152 92.962495 
L 584.424291 92.962495 
L 584.607848 101.764975 
L 585.342076 101.764975 
L 585.525633 92.962495 
L 590.665227 92.962495 
L 590.848784 89.164388 
L 591.399455 89.164388 
L 591.583012 90.321751 
L 591.766569 88.887273 
L 594.336366 88.887273 
L 594.519923 90.321751 
L 595.988378 90.321751 
L 596.171935 93.092902 
L 624.256148 93.092902 
L 624.439705 96.891009 
L 630.864198 96.891009 
L 631.047755 93.092902 
L 645.365197 93.092902 
L 645.548753 96.891009 
L 645.915867 96.891009 
L 646.099424 93.728637 
L 657.847069 93.728637 
L 658.030626 89.93053 
L 724.294683 89.93053 
L 724.47824 88.887273 
L 871.690909 88.887273 
L 871.690909 88.887273 
" style="fill:none;stroke:#8dd3c7;stroke-linecap:square;stroke-width:1.5;"/>
   </g>
   <g id="line2d_17">
    <path clip-path="url(#pb469d13d3a)" d="M 161.509091 395.409185 
L 161.876205 387.193537 
L 162.059762 378.391057 
L 162.243319 378.391057 
L 162.426876 374.23433 
L 162.977546 374.23433 
L 163.161103 343.556058 
L 164.629559 343.556058 
L 164.813116 335.568622 
L 165.730901 335.568622 
L 165.914458 311.899732 
L 166.098015 303.113553 
L 166.465128 303.113553 
L 166.648685 294.653391 
L 167.382913 294.653391 
L 167.56647 285.052168 
L 184.637266 285.052168 
L 184.820823 284.579442 
L 185.738608 284.579442 
L 185.922165 262.850357 
L 186.105721 262.850357 
L 186.289278 237.795891 
L 276.599295 237.795891 
L 276.782852 229.563943 
L 452.446848 229.531341 
L 452.630405 228.651093 
L 452.813962 228.651093 
L 452.997519 219.848613 
L 487.873338 219.848613 
L 488.056895 205.748344 
L 490.993806 205.748344 
L 491.177363 198.021723 
L 491.36092 160.252564 
L 494.297831 160.252564 
L 494.481388 153.40619 
L 536.699485 153.40619 
L 536.883042 152.232526 
L 555.05518 152.232526 
L 555.238737 144.929728 
L 556.156522 144.929728 
L 556.340078 133.551708 
L 558.909876 133.551708 
L 559.093433 109.996924 
L 565.334369 109.996924 
L 565.517926 101.194444 
L 580.569595 101.194444 
L 580.753152 92.962495 
L 590.665227 92.962495 
L 590.848784 89.164388 
L 591.583012 89.164388 
L 591.766569 88.887273 
L 871.690909 88.887273 
L 871.690909 88.887273 
" style="fill:none;stroke:#feffb3;stroke-linecap:square;stroke-width:1.5;"/>
   </g>
   <g id="line2d_18">
    <path clip-path="url(#pb469d13d3a)" d="M 161.509091 483.344492 
L 168.667812 483.445123 
L 169.40204 483.476066 
L 176.01009 483.56179 
L 176.927874 483.58815 
L 185.187937 483.683631 
L 186.289278 483.705204 
L 196.201353 483.801001 
L 197.486252 483.817962 
L 210.885909 483.919431 
L 212.905035 483.943564 
L 236.583881 484.05397 
L 239.704349 484.06774 
L 289.815395 484.17682 
L 300.094584 484.18877 
L 871.690909 484.232727 
L 871.690909 484.232727 
" style="fill:none;stroke:#bfbbd9;stroke-linecap:square;stroke-width:1.5;"/>
   </g>
   <g id="patch_3">
    <path d="M 126 504 
L 126 69.12 
" style="fill:none;stroke:#ffffff;stroke-linecap:square;stroke-linejoin:miter;stroke-width:0.8;"/>
   </g>
   <g id="patch_4">
    <path d="M 907.2 504 
L 907.2 69.12 
" style="fill:none;stroke:#ffffff;stroke-linecap:square;stroke-linejoin:miter;stroke-width:0.8;"/>
   </g>
   <g id="patch_5">
    <path d="M 126 504 
L 907.2 504 
" style="fill:none;stroke:#ffffff;stroke-linecap:square;stroke-linejoin:miter;stroke-width:0.8;"/>
   </g>
   <g id="patch_6">
    <path d="M 126 69.12 
L 907.2 69.12 
" style="fill:none;stroke:#ffffff;stroke-linecap:square;stroke-linejoin:miter;stroke-width:0.8;"/>
   </g>
   <g id="text_17">
    <!-- instance 28 with error 0.03447589474103263 -->
    <g style="fill:#ffffff;" transform="translate(378.046875 63.12)scale(0.12 -0.12)">
     <defs>
      <path d="M 2834 3397 
L 2834 2853 
Q 2591 2978 2328 3040 
Q 2066 3103 1784 3103 
Q 1356 3103 1142 2972 
Q 928 2841 928 2578 
Q 928 2378 1081 2264 
Q 1234 2150 1697 2047 
L 1894 2003 
Q 2506 1872 2764 1633 
Q 3022 1394 3022 966 
Q 3022 478 2636 193 
Q 2250 -91 1575 -91 
Q 1294 -91 989 -36 
Q 684 19 347 128 
L 347 722 
Q 666 556 975 473 
Q 1284 391 1588 391 
Q 1994 391 2212 530 
Q 2431 669 2431 922 
Q 2431 1156 2273 1281 
Q 2116 1406 1581 1522 
L 1381 1569 
Q 847 1681 609 1914 
Q 372 2147 372 2553 
Q 372 3047 722 3315 
Q 1072 3584 1716 3584 
Q 2034 3584 2315 3537 
Q 2597 3491 2834 3397 
z
" id="DejaVuSans-73" transform="scale(0.015625)"/>
      <path d="M 3122 3366 
L 3122 2828 
Q 2878 2963 2633 3030 
Q 2388 3097 2138 3097 
Q 1578 3097 1268 2742 
Q 959 2388 959 1747 
Q 959 1106 1268 751 
Q 1578 397 2138 397 
Q 2388 397 2633 464 
Q 2878 531 3122 666 
L 3122 134 
Q 2881 22 2623 -34 
Q 2366 -91 2075 -91 
Q 1284 -91 818 406 
Q 353 903 353 1747 
Q 353 2603 823 3093 
Q 1294 3584 2113 3584 
Q 2378 3584 2631 3529 
Q 2884 3475 3122 3366 
z
" id="DejaVuSans-63" transform="scale(0.015625)"/>
      <path id="DejaVuSans-20" transform="scale(0.015625)"/>
      <path d="M 2034 2216 
Q 1584 2216 1326 1975 
Q 1069 1734 1069 1313 
Q 1069 891 1326 650 
Q 1584 409 2034 409 
Q 2484 409 2743 651 
Q 3003 894 3003 1313 
Q 3003 1734 2745 1975 
Q 2488 2216 2034 2216 
z
M 1403 2484 
Q 997 2584 770 2862 
Q 544 3141 544 3541 
Q 544 4100 942 4425 
Q 1341 4750 2034 4750 
Q 2731 4750 3128 4425 
Q 3525 4100 3525 3541 
Q 3525 3141 3298 2862 
Q 3072 2584 2669 2484 
Q 3125 2378 3379 2068 
Q 3634 1759 3634 1313 
Q 3634 634 3220 271 
Q 2806 -91 2034 -91 
Q 1263 -91 848 271 
Q 434 634 434 1313 
Q 434 1759 690 2068 
Q 947 2378 1403 2484 
z
M 1172 3481 
Q 1172 3119 1398 2916 
Q 1625 2713 2034 2713 
Q 2441 2713 2670 2916 
Q 2900 3119 2900 3481 
Q 2900 3844 2670 4047 
Q 2441 4250 2034 4250 
Q 1625 4250 1398 4047 
Q 1172 3844 1172 3481 
z
" id="DejaVuSans-38" transform="scale(0.015625)"/>
      <path d="M 269 3500 
L 844 3500 
L 1563 769 
L 2278 3500 
L 2956 3500 
L 3675 769 
L 4391 3500 
L 4966 3500 
L 4050 0 
L 3372 0 
L 2619 2869 
L 1863 0 
L 1184 0 
L 269 3500 
z
" id="DejaVuSans-77" transform="scale(0.015625)"/>
      <path d="M 3513 2113 
L 3513 0 
L 2938 0 
L 2938 2094 
Q 2938 2591 2744 2837 
Q 2550 3084 2163 3084 
Q 1697 3084 1428 2787 
Q 1159 2491 1159 1978 
L 1159 0 
L 581 0 
L 581 4863 
L 1159 4863 
L 1159 2956 
Q 1366 3272 1645 3428 
Q 1925 3584 2291 3584 
Q 2894 3584 3203 3211 
Q 3513 2838 3513 2113 
z
" id="DejaVuSans-68" transform="scale(0.015625)"/>
      <path d="M 684 794 
L 1344 794 
L 1344 0 
L 684 0 
L 684 794 
z
" id="DejaVuSans-2e" transform="scale(0.015625)"/>
      <path d="M 525 4666 
L 3525 4666 
L 3525 4397 
L 1831 0 
L 1172 0 
L 2766 4134 
L 525 4134 
L 525 4666 
z
" id="DejaVuSans-37" transform="scale(0.015625)"/>
      <path d="M 703 97 
L 703 672 
Q 941 559 1184 500 
Q 1428 441 1663 441 
Q 2288 441 2617 861 
Q 2947 1281 2994 2138 
Q 2813 1869 2534 1725 
Q 2256 1581 1919 1581 
Q 1219 1581 811 2004 
Q 403 2428 403 3163 
Q 403 3881 828 4315 
Q 1253 4750 1959 4750 
Q 2769 4750 3195 4129 
Q 3622 3509 3622 2328 
Q 3622 1225 3098 567 
Q 2575 -91 1691 -91 
Q 1453 -91 1209 -44 
Q 966 3 703 97 
z
M 1959 2075 
Q 2384 2075 2632 2365 
Q 2881 2656 2881 3163 
Q 2881 3666 2632 3958 
Q 2384 4250 1959 4250 
Q 1534 4250 1286 3958 
Q 1038 3666 1038 3163 
Q 1038 2656 1286 2365 
Q 1534 2075 1959 2075 
z
" id="DejaVuSans-39" transform="scale(0.015625)"/>
      <path d="M 2113 2584 
Q 1688 2584 1439 2293 
Q 1191 2003 1191 1497 
Q 1191 994 1439 701 
Q 1688 409 2113 409 
Q 2538 409 2786 701 
Q 3034 994 3034 1497 
Q 3034 2003 2786 2293 
Q 2538 2584 2113 2584 
z
M 3366 4563 
L 3366 3988 
Q 3128 4100 2886 4159 
Q 2644 4219 2406 4219 
Q 1781 4219 1451 3797 
Q 1122 3375 1075 2522 
Q 1259 2794 1537 2939 
Q 1816 3084 2150 3084 
Q 2853 3084 3261 2657 
Q 3669 2231 3669 1497 
Q 3669 778 3244 343 
Q 2819 -91 2113 -91 
Q 1303 -91 875 529 
Q 447 1150 447 2328 
Q 447 3434 972 4092 
Q 1497 4750 2381 4750 
Q 2619 4750 2861 4703 
Q 3103 4656 3366 4563 
z
" id="DejaVuSans-36" transform="scale(0.015625)"/>
     </defs>
     <use xlink:href="#DejaVuSans-69"/>
     <use x="27.783203" xlink:href="#DejaVuSans-6e"/>
     <use x="91.162109" xlink:href="#DejaVuSans-73"/>
     <use x="143.261719" xlink:href="#DejaVuSans-74"/>
     <use x="182.470703" xlink:href="#DejaVuSans-61"/>
     <use x="243.75" xlink:href="#DejaVuSans-6e"/>
     <use x="307.128906" xlink:href="#DejaVuSans-63"/>
     <use x="362.109375" xlink:href="#DejaVuSans-65"/>
     <use x="423.632812" xlink:href="#DejaVuSans-20"/>
     <use x="455.419922" xlink:href="#DejaVuSans-32"/>
     <use x="519.042969" xlink:href="#DejaVuSans-38"/>
     <use x="582.666016" xlink:href="#DejaVuSans-20"/>
     <use x="614.453125" xlink:href="#DejaVuSans-77"/>
     <use x="696.240234" xlink:href="#DejaVuSans-69"/>
     <use x="724.023438" xlink:href="#DejaVuSans-74"/>
     <use x="763.232422" xlink:href="#DejaVuSans-68"/>
     <use x="826.611328" xlink:href="#DejaVuSans-20"/>
     <use x="858.398438" xlink:href="#DejaVuSans-65"/>
     <use x="919.921875" xlink:href="#DejaVuSans-72"/>
     <use x="959.285156" xlink:href="#DejaVuSans-72"/>
     <use x="998.148438" xlink:href="#DejaVuSans-6f"/>
     <use x="1059.330078" xlink:href="#DejaVuSans-72"/>
     <use x="1100.443359" xlink:href="#DejaVuSans-20"/>
     <use x="1132.230469" xlink:href="#DejaVuSans-30"/>
     <use x="1195.853516" xlink:href="#DejaVuSans-2e"/>
     <use x="1227.640625" xlink:href="#DejaVuSans-30"/>
     <use x="1291.263672" xlink:href="#DejaVuSans-33"/>
     <use x="1354.886719" xlink:href="#DejaVuSans-34"/>
     <use x="1418.509766" xlink:href="#DejaVuSans-34"/>
     <use x="1482.132812" xlink:href="#DejaVuSans-37"/>
     <use x="1545.755859" xlink:href="#DejaVuSans-35"/>
     <use x="1609.378906" xlink:href="#DejaVuSans-38"/>
     <use x="1673.001953" xlink:href="#DejaVuSans-39"/>
     <use x="1736.625" xlink:href="#DejaVuSans-34"/>
     <use x="1800.248047" xlink:href="#DejaVuSans-37"/>
     <use x="1863.871094" xlink:href="#DejaVuSans-34"/>
     <use x="1927.494141" xlink:href="#DejaVuSans-31"/>
     <use x="1991.117188" xlink:href="#DejaVuSans-30"/>
     <use x="2054.740234" xlink:href="#DejaVuSans-33"/>
     <use x="2118.363281" xlink:href="#DejaVuSans-32"/>
     <use x="2181.986328" xlink:href="#DejaVuSans-36"/>
     <use x="2245.609375" xlink:href="#DejaVuSans-33"/>
    </g>
   </g>
   <g id="legend_1">
    <g id="patch_7">
     <path d="M 805.348438 499 
L 900.2 499 
Q 902.2 499 902.2 497 
L 902.2 453.965625 
Q 902.2 451.965625 900.2 451.965625 
L 805.348438 451.965625 
Q 803.348438 451.965625 803.348438 453.965625 
L 803.348438 497 
Q 803.348438 499 805.348438 499 
z
" style="opacity:0.8;stroke:#cccccc;stroke-linejoin:miter;"/>
    </g>
    <g id="line2d_19">
     <path d="M 807.348438 460.064062 
L 827.348438 460.064062 
" style="fill:none;stroke:#8dd3c7;stroke-linecap:square;stroke-width:1.5;"/>
    </g>
    <g id="line2d_20"/>
    <g id="text_18">
     <!-- cost -->
     <g style="fill:#ffffff;" transform="translate(835.348438 463.564062)scale(0.1 -0.1)">
      <use xlink:href="#DejaVuSans-63"/>
      <use x="54.980469" xlink:href="#DejaVuSans-6f"/>
      <use x="116.162109" xlink:href="#DejaVuSans-73"/>
      <use x="168.261719" xlink:href="#DejaVuSans-74"/>
     </g>
    </g>
    <g id="line2d_21">
     <path d="M 807.348438 474.742188 
L 827.348438 474.742188 
" style="fill:none;stroke:#feffb3;stroke-linecap:square;stroke-width:1.5;"/>
    </g>
    <g id="line2d_22"/>
    <g id="text_19">
     <!-- best cost -->
     <g style="fill:#ffffff;" transform="translate(835.348438 478.242188)scale(0.1 -0.1)">
      <defs>
       <path d="M 3116 1747 
Q 3116 2381 2855 2742 
Q 2594 3103 2138 3103 
Q 1681 3103 1420 2742 
Q 1159 2381 1159 1747 
Q 1159 1113 1420 752 
Q 1681 391 2138 391 
Q 2594 391 2855 752 
Q 3116 1113 3116 1747 
z
M 1159 2969 
Q 1341 3281 1617 3432 
Q 1894 3584 2278 3584 
Q 2916 3584 3314 3078 
Q 3713 2572 3713 1747 
Q 3713 922 3314 415 
Q 2916 -91 2278 -91 
Q 1894 -91 1617 61 
Q 1341 213 1159 525 
L 1159 0 
L 581 0 
L 581 4863 
L 1159 4863 
L 1159 2969 
z
" id="DejaVuSans-62" transform="scale(0.015625)"/>
      </defs>
      <use xlink:href="#DejaVuSans-62"/>
      <use x="63.476562" xlink:href="#DejaVuSans-65"/>
      <use x="125" xlink:href="#DejaVuSans-73"/>
      <use x="177.099609" xlink:href="#DejaVuSans-74"/>
      <use x="216.308594" xlink:href="#DejaVuSans-20"/>
      <use x="248.095703" xlink:href="#DejaVuSans-63"/>
      <use x="303.076172" xlink:href="#DejaVuSans-6f"/>
      <use x="364.257812" xlink:href="#DejaVuSans-73"/>
      <use x="416.357422" xlink:href="#DejaVuSans-74"/>
     </g>
    </g>
    <g id="line2d_23">
     <path d="M 807.348438 489.420313 
L 827.348438 489.420313 
" style="fill:none;stroke:#bfbbd9;stroke-linecap:square;stroke-width:1.5;"/>
    </g>
    <g id="line2d_24"/>
    <g id="text_20">
     <!-- temperature -->
     <g style="fill:#ffffff;" transform="translate(835.348438 492.920313)scale(0.1 -0.1)">
      <defs>
       <path d="M 3328 2828 
Q 3544 3216 3844 3400 
Q 4144 3584 4550 3584 
Q 5097 3584 5394 3201 
Q 5691 2819 5691 2113 
L 5691 0 
L 5113 0 
L 5113 2094 
Q 5113 2597 4934 2840 
Q 4756 3084 4391 3084 
Q 3944 3084 3684 2787 
Q 3425 2491 3425 1978 
L 3425 0 
L 2847 0 
L 2847 2094 
Q 2847 2600 2669 2842 
Q 2491 3084 2119 3084 
Q 1678 3084 1418 2786 
Q 1159 2488 1159 1978 
L 1159 0 
L 581 0 
L 581 3500 
L 1159 3500 
L 1159 2956 
Q 1356 3278 1631 3431 
Q 1906 3584 2284 3584 
Q 2666 3584 2933 3390 
Q 3200 3197 3328 2828 
z
" id="DejaVuSans-6d" transform="scale(0.015625)"/>
       <path d="M 1159 525 
L 1159 -1331 
L 581 -1331 
L 581 3500 
L 1159 3500 
L 1159 2969 
Q 1341 3281 1617 3432 
Q 1894 3584 2278 3584 
Q 2916 3584 3314 3078 
Q 3713 2572 3713 1747 
Q 3713 922 3314 415 
Q 2916 -91 2278 -91 
Q 1894 -91 1617 61 
Q 1341 213 1159 525 
z
M 3116 1747 
Q 3116 2381 2855 2742 
Q 2594 3103 2138 3103 
Q 1681 3103 1420 2742 
Q 1159 2381 1159 1747 
Q 1159 1113 1420 752 
Q 1681 391 2138 391 
Q 2594 391 2855 752 
Q 3116 1113 3116 1747 
z
" id="DejaVuSans-70" transform="scale(0.015625)"/>
       <path d="M 544 1381 
L 544 3500 
L 1119 3500 
L 1119 1403 
Q 1119 906 1312 657 
Q 1506 409 1894 409 
Q 2359 409 2629 706 
Q 2900 1003 2900 1516 
L 2900 3500 
L 3475 3500 
L 3475 0 
L 2900 0 
L 2900 538 
Q 2691 219 2414 64 
Q 2138 -91 1772 -91 
Q 1169 -91 856 284 
Q 544 659 544 1381 
z
M 1991 3584 
L 1991 3584 
z
" id="DejaVuSans-75" transform="scale(0.015625)"/>
      </defs>
      <use xlink:href="#DejaVuSans-74"/>
      <use x="39.208984" xlink:href="#DejaVuSans-65"/>
      <use x="100.732422" xlink:href="#DejaVuSans-6d"/>
      <use x="198.144531" xlink:href="#DejaVuSans-70"/>
      <use x="261.621094" xlink:href="#DejaVuSans-65"/>
      <use x="323.144531" xlink:href="#DejaVuSans-72"/>
      <use x="364.257812" xlink:href="#DejaVuSans-61"/>
      <use x="425.537109" xlink:href="#DejaVuSans-74"/>
      <use x="464.746094" xlink:href="#DejaVuSans-75"/>
      <use x="528.125" xlink:href="#DejaVuSans-72"/>
      <use x="566.988281" xlink:href="#DejaVuSans-65"/>
     </g>
    </g>
   </g>
  </g>
 </g>
 <defs>
  <clipPath id="pb469d13d3a">
   <rect height="434.88" width="781.2" x="126" y="69.12"/>
  </clipPath>
 </defs>
</svg>
