<?xml version="1.0" encoding="utf-8" standalone="no"?>
<!DOCTYPE svg PUBLIC "-//W3C//DTD SVG 1.1//EN"
  "http://www.w3.org/Graphics/SVG/1.1/DTD/svg11.dtd">
<svg height="576pt" version="1.1" viewBox="0 0 1008 576" width="1008pt" xmlns="http://www.w3.org/2000/svg" xmlns:xlink="http://www.w3.org/1999/xlink">
 <metadata>
  <rdf:RDF xmlns:cc="http://creativecommons.org/ns#" xmlns:dc="http://purl.org/dc/elements/1.1/" xmlns:rdf="http://www.w3.org/1999/02/22-rdf-syntax-ns#">
   <cc:Work>
    <dc:type rdf:resource="http://purl.org/dc/dcmitype/StillImage"/>
    <dc:date>2022-01-07T00:32:35.462345</dc:date>
    <dc:format>image/svg+xml</dc:format>
    <dc:creator>
     <cc:Agent>
      <dc:title>Matplotlib v3.4.3, https://matplotlib.org/</dc:title>
     </cc:Agent>
    </dc:creator>
   </cc:Work>
  </rdf:RDF>
 </metadata>
 <defs>
  <style type="text/css">*{stroke-linecap:butt;stroke-linejoin:round;}</style>
 </defs>
 <g id="figure_1">
  <g id="patch_1">
   <path d="M 0 576 
L 1008 576 
L 1008 0 
L 0 0 
z
"/>
  </g>
  <g id="axes_1">
   <g id="patch_2">
    <path d="M 126 504 
L 907.2 504 
L 907.2 69.12 
L 126 69.12 
z
"/>
   </g>
   <g id="matplotlib.axis_1">
    <g id="xtick_1">
     <g id="line2d_1">
      <defs>
       <path d="M 0 0 
L 0 3.5 
" id="m6ae6ddd13f" style="stroke:#ffffff;stroke-width:0.8;"/>
      </defs>
      <g>
       <use style="fill:#ffffff;stroke:#ffffff;stroke-width:0.8;" x="161.509091" xlink:href="#m6ae6ddd13f" y="504"/>
      </g>
     </g>
     <g id="text_1">
      <!-- 0 -->
      <g style="fill:#ffffff;" transform="translate(158.327841 518.598438)scale(0.1 -0.1)">
       <defs>
        <path d="M 2034 4250 
Q 1547 4250 1301 3770 
Q 1056 3291 1056 2328 
Q 1056 1369 1301 889 
Q 1547 409 2034 409 
Q 2525 409 2770 889 
Q 3016 1369 3016 2328 
Q 3016 3291 2770 3770 
Q 2525 4250 2034 4250 
z
M 2034 4750 
Q 2819 4750 3233 4129 
Q 3647 3509 3647 2328 
Q 3647 1150 3233 529 
Q 2819 -91 2034 -91 
Q 1250 -91 836 529 
Q 422 1150 422 2328 
Q 422 3509 836 4129 
Q 1250 4750 2034 4750 
z
" id="DejaVuSans-30" transform="scale(0.015625)"/>
       </defs>
       <use xlink:href="#DejaVuSans-30"/>
      </g>
     </g>
    </g>
    <g id="xtick_2">
     <g id="line2d_2">
      <g>
       <use style="fill:#ffffff;stroke:#ffffff;stroke-width:0.8;" x="292.490614" xlink:href="#m6ae6ddd13f" y="504"/>
      </g>
     </g>
     <g id="text_2">
      <!-- 500 -->
      <g style="fill:#ffffff;" transform="translate(282.946864 518.598438)scale(0.1 -0.1)">
       <defs>
        <path d="M 691 4666 
L 3169 4666 
L 3169 4134 
L 1269 4134 
L 1269 2991 
Q 1406 3038 1543 3061 
Q 1681 3084 1819 3084 
Q 2600 3084 3056 2656 
Q 3513 2228 3513 1497 
Q 3513 744 3044 326 
Q 2575 -91 1722 -91 
Q 1428 -91 1123 -41 
Q 819 9 494 109 
L 494 744 
Q 775 591 1075 516 
Q 1375 441 1709 441 
Q 2250 441 2565 725 
Q 2881 1009 2881 1497 
Q 2881 1984 2565 2268 
Q 2250 2553 1709 2553 
Q 1456 2553 1204 2497 
Q 953 2441 691 2322 
L 691 4666 
z
" id="DejaVuSans-35" transform="scale(0.015625)"/>
       </defs>
       <use xlink:href="#DejaVuSans-35"/>
       <use x="63.623047" xlink:href="#DejaVuSans-30"/>
       <use x="127.246094" xlink:href="#DejaVuSans-30"/>
      </g>
     </g>
    </g>
    <g id="xtick_3">
     <g id="line2d_3">
      <g>
       <use style="fill:#ffffff;stroke:#ffffff;stroke-width:0.8;" x="423.472137" xlink:href="#m6ae6ddd13f" y="504"/>
      </g>
     </g>
     <g id="text_3">
      <!-- 1000 -->
      <g style="fill:#ffffff;" transform="translate(410.747137 518.598438)scale(0.1 -0.1)">
       <defs>
        <path d="M 794 531 
L 1825 531 
L 1825 4091 
L 703 3866 
L 703 4441 
L 1819 4666 
L 2450 4666 
L 2450 531 
L 3481 531 
L 3481 0 
L 794 0 
L 794 531 
z
" id="DejaVuSans-31" transform="scale(0.015625)"/>
       </defs>
       <use xlink:href="#DejaVuSans-31"/>
       <use x="63.623047" xlink:href="#DejaVuSans-30"/>
       <use x="127.246094" xlink:href="#DejaVuSans-30"/>
       <use x="190.869141" xlink:href="#DejaVuSans-30"/>
      </g>
     </g>
    </g>
    <g id="xtick_4">
     <g id="line2d_4">
      <g>
       <use style="fill:#ffffff;stroke:#ffffff;stroke-width:0.8;" x="554.45366" xlink:href="#m6ae6ddd13f" y="504"/>
      </g>
     </g>
     <g id="text_4">
      <!-- 1500 -->
      <g style="fill:#ffffff;" transform="translate(541.72866 518.598438)scale(0.1 -0.1)">
       <use xlink:href="#DejaVuSans-31"/>
       <use x="63.623047" xlink:href="#DejaVuSans-35"/>
       <use x="127.246094" xlink:href="#DejaVuSans-30"/>
       <use x="190.869141" xlink:href="#DejaVuSans-30"/>
      </g>
     </g>
    </g>
    <g id="xtick_5">
     <g id="line2d_5">
      <g>
       <use style="fill:#ffffff;stroke:#ffffff;stroke-width:0.8;" x="685.435183" xlink:href="#m6ae6ddd13f" y="504"/>
      </g>
     </g>
     <g id="text_5">
      <!-- 2000 -->
      <g style="fill:#ffffff;" transform="translate(672.710183 518.598438)scale(0.1 -0.1)">
       <defs>
        <path d="M 1228 531 
L 3431 531 
L 3431 0 
L 469 0 
L 469 531 
Q 828 903 1448 1529 
Q 2069 2156 2228 2338 
Q 2531 2678 2651 2914 
Q 2772 3150 2772 3378 
Q 2772 3750 2511 3984 
Q 2250 4219 1831 4219 
Q 1534 4219 1204 4116 
Q 875 4013 500 3803 
L 500 4441 
Q 881 4594 1212 4672 
Q 1544 4750 1819 4750 
Q 2544 4750 2975 4387 
Q 3406 4025 3406 3419 
Q 3406 3131 3298 2873 
Q 3191 2616 2906 2266 
Q 2828 2175 2409 1742 
Q 1991 1309 1228 531 
z
" id="DejaVuSans-32" transform="scale(0.015625)"/>
       </defs>
       <use xlink:href="#DejaVuSans-32"/>
       <use x="63.623047" xlink:href="#DejaVuSans-30"/>
       <use x="127.246094" xlink:href="#DejaVuSans-30"/>
       <use x="190.869141" xlink:href="#DejaVuSans-30"/>
      </g>
     </g>
    </g>
    <g id="xtick_6">
     <g id="line2d_6">
      <g>
       <use style="fill:#ffffff;stroke:#ffffff;stroke-width:0.8;" x="816.416706" xlink:href="#m6ae6ddd13f" y="504"/>
      </g>
     </g>
     <g id="text_6">
      <!-- 2500 -->
      <g style="fill:#ffffff;" transform="translate(803.691706 518.598438)scale(0.1 -0.1)">
       <use xlink:href="#DejaVuSans-32"/>
       <use x="63.623047" xlink:href="#DejaVuSans-35"/>
       <use x="127.246094" xlink:href="#DejaVuSans-30"/>
       <use x="190.869141" xlink:href="#DejaVuSans-30"/>
      </g>
     </g>
    </g>
    <g id="text_7">
     <!-- iteration -->
     <g style="fill:#ffffff;" transform="translate(495.477344 532.276562)scale(0.1 -0.1)">
      <defs>
       <path d="M 603 3500 
L 1178 3500 
L 1178 0 
L 603 0 
L 603 3500 
z
M 603 4863 
L 1178 4863 
L 1178 4134 
L 603 4134 
L 603 4863 
z
" id="DejaVuSans-69" transform="scale(0.015625)"/>
       <path d="M 1172 4494 
L 1172 3500 
L 2356 3500 
L 2356 3053 
L 1172 3053 
L 1172 1153 
Q 1172 725 1289 603 
Q 1406 481 1766 481 
L 2356 481 
L 2356 0 
L 1766 0 
Q 1100 0 847 248 
Q 594 497 594 1153 
L 594 3053 
L 172 3053 
L 172 3500 
L 594 3500 
L 594 4494 
L 1172 4494 
z
" id="DejaVuSans-74" transform="scale(0.015625)"/>
       <path d="M 3597 1894 
L 3597 1613 
L 953 1613 
Q 991 1019 1311 708 
Q 1631 397 2203 397 
Q 2534 397 2845 478 
Q 3156 559 3463 722 
L 3463 178 
Q 3153 47 2828 -22 
Q 2503 -91 2169 -91 
Q 1331 -91 842 396 
Q 353 884 353 1716 
Q 353 2575 817 3079 
Q 1281 3584 2069 3584 
Q 2775 3584 3186 3129 
Q 3597 2675 3597 1894 
z
M 3022 2063 
Q 3016 2534 2758 2815 
Q 2500 3097 2075 3097 
Q 1594 3097 1305 2825 
Q 1016 2553 972 2059 
L 3022 2063 
z
" id="DejaVuSans-65" transform="scale(0.015625)"/>
       <path d="M 2631 2963 
Q 2534 3019 2420 3045 
Q 2306 3072 2169 3072 
Q 1681 3072 1420 2755 
Q 1159 2438 1159 1844 
L 1159 0 
L 581 0 
L 581 3500 
L 1159 3500 
L 1159 2956 
Q 1341 3275 1631 3429 
Q 1922 3584 2338 3584 
Q 2397 3584 2469 3576 
Q 2541 3569 2628 3553 
L 2631 2963 
z
" id="DejaVuSans-72" transform="scale(0.015625)"/>
       <path d="M 2194 1759 
Q 1497 1759 1228 1600 
Q 959 1441 959 1056 
Q 959 750 1161 570 
Q 1363 391 1709 391 
Q 2188 391 2477 730 
Q 2766 1069 2766 1631 
L 2766 1759 
L 2194 1759 
z
M 3341 1997 
L 3341 0 
L 2766 0 
L 2766 531 
Q 2569 213 2275 61 
Q 1981 -91 1556 -91 
Q 1019 -91 701 211 
Q 384 513 384 1019 
Q 384 1609 779 1909 
Q 1175 2209 1959 2209 
L 2766 2209 
L 2766 2266 
Q 2766 2663 2505 2880 
Q 2244 3097 1772 3097 
Q 1472 3097 1187 3025 
Q 903 2953 641 2809 
L 641 3341 
Q 956 3463 1253 3523 
Q 1550 3584 1831 3584 
Q 2591 3584 2966 3190 
Q 3341 2797 3341 1997 
z
" id="DejaVuSans-61" transform="scale(0.015625)"/>
       <path d="M 1959 3097 
Q 1497 3097 1228 2736 
Q 959 2375 959 1747 
Q 959 1119 1226 758 
Q 1494 397 1959 397 
Q 2419 397 2687 759 
Q 2956 1122 2956 1747 
Q 2956 2369 2687 2733 
Q 2419 3097 1959 3097 
z
M 1959 3584 
Q 2709 3584 3137 3096 
Q 3566 2609 3566 1747 
Q 3566 888 3137 398 
Q 2709 -91 1959 -91 
Q 1206 -91 779 398 
Q 353 888 353 1747 
Q 353 2609 779 3096 
Q 1206 3584 1959 3584 
z
" id="DejaVuSans-6f" transform="scale(0.015625)"/>
       <path d="M 3513 2113 
L 3513 0 
L 2938 0 
L 2938 2094 
Q 2938 2591 2744 2837 
Q 2550 3084 2163 3084 
Q 1697 3084 1428 2787 
Q 1159 2491 1159 1978 
L 1159 0 
L 581 0 
L 581 3500 
L 1159 3500 
L 1159 2956 
Q 1366 3272 1645 3428 
Q 1925 3584 2291 3584 
Q 2894 3584 3203 3211 
Q 3513 2838 3513 2113 
z
" id="DejaVuSans-6e" transform="scale(0.015625)"/>
      </defs>
      <use xlink:href="#DejaVuSans-69"/>
      <use x="27.783203" xlink:href="#DejaVuSans-74"/>
      <use x="66.992188" xlink:href="#DejaVuSans-65"/>
      <use x="128.515625" xlink:href="#DejaVuSans-72"/>
      <use x="169.628906" xlink:href="#DejaVuSans-61"/>
      <use x="230.908203" xlink:href="#DejaVuSans-74"/>
      <use x="270.117188" xlink:href="#DejaVuSans-69"/>
      <use x="297.900391" xlink:href="#DejaVuSans-6f"/>
      <use x="359.082031" xlink:href="#DejaVuSans-6e"/>
     </g>
    </g>
   </g>
   <g id="matplotlib.axis_2">
    <g id="ytick_1">
     <g id="line2d_7">
      <defs>
       <path d="M 0 0 
L -3.5 0 
" id="ma5214464fc" style="stroke:#ffffff;stroke-width:0.8;"/>
      </defs>
      <g>
       <use style="fill:#ffffff;stroke:#ffffff;stroke-width:0.8;" x="126" xlink:href="#ma5214464fc" y="484.232727"/>
      </g>
     </g>
     <g id="text_8">
      <!-- 0 -->
      <g style="fill:#ffffff;" transform="translate(112.6375 488.031946)scale(0.1 -0.1)">
       <use xlink:href="#DejaVuSans-30"/>
      </g>
     </g>
    </g>
    <g id="ytick_2">
     <g id="line2d_8">
      <g>
       <use style="fill:#ffffff;stroke:#ffffff;stroke-width:0.8;" x="126" xlink:href="#ma5214464fc" y="428.397706"/>
      </g>
     </g>
     <g id="text_9">
      <!-- 5000 -->
      <g style="fill:#ffffff;" transform="translate(93.55 432.196924)scale(0.1 -0.1)">
       <use xlink:href="#DejaVuSans-35"/>
       <use x="63.623047" xlink:href="#DejaVuSans-30"/>
       <use x="127.246094" xlink:href="#DejaVuSans-30"/>
       <use x="190.869141" xlink:href="#DejaVuSans-30"/>
      </g>
     </g>
    </g>
    <g id="ytick_3">
     <g id="line2d_9">
      <g>
       <use style="fill:#ffffff;stroke:#ffffff;stroke-width:0.8;" x="126" xlink:href="#ma5214464fc" y="372.562684"/>
      </g>
     </g>
     <g id="text_10">
      <!-- 10000 -->
      <g style="fill:#ffffff;" transform="translate(87.1875 376.361903)scale(0.1 -0.1)">
       <use xlink:href="#DejaVuSans-31"/>
       <use x="63.623047" xlink:href="#DejaVuSans-30"/>
       <use x="127.246094" xlink:href="#DejaVuSans-30"/>
       <use x="190.869141" xlink:href="#DejaVuSans-30"/>
       <use x="254.492188" xlink:href="#DejaVuSans-30"/>
      </g>
     </g>
    </g>
    <g id="ytick_4">
     <g id="line2d_10">
      <g>
       <use style="fill:#ffffff;stroke:#ffffff;stroke-width:0.8;" x="126" xlink:href="#ma5214464fc" y="316.727662"/>
      </g>
     </g>
     <g id="text_11">
      <!-- 15000 -->
      <g style="fill:#ffffff;" transform="translate(87.1875 320.526881)scale(0.1 -0.1)">
       <use xlink:href="#DejaVuSans-31"/>
       <use x="63.623047" xlink:href="#DejaVuSans-35"/>
       <use x="127.246094" xlink:href="#DejaVuSans-30"/>
       <use x="190.869141" xlink:href="#DejaVuSans-30"/>
       <use x="254.492188" xlink:href="#DejaVuSans-30"/>
      </g>
     </g>
    </g>
    <g id="ytick_5">
     <g id="line2d_11">
      <g>
       <use style="fill:#ffffff;stroke:#ffffff;stroke-width:0.8;" x="126" xlink:href="#ma5214464fc" y="260.892641"/>
      </g>
     </g>
     <g id="text_12">
      <!-- 20000 -->
      <g style="fill:#ffffff;" transform="translate(87.1875 264.691859)scale(0.1 -0.1)">
       <use xlink:href="#DejaVuSans-32"/>
       <use x="63.623047" xlink:href="#DejaVuSans-30"/>
       <use x="127.246094" xlink:href="#DejaVuSans-30"/>
       <use x="190.869141" xlink:href="#DejaVuSans-30"/>
       <use x="254.492188" xlink:href="#DejaVuSans-30"/>
      </g>
     </g>
    </g>
    <g id="ytick_6">
     <g id="line2d_12">
      <g>
       <use style="fill:#ffffff;stroke:#ffffff;stroke-width:0.8;" x="126" xlink:href="#ma5214464fc" y="205.057619"/>
      </g>
     </g>
     <g id="text_13">
      <!-- 25000 -->
      <g style="fill:#ffffff;" transform="translate(87.1875 208.856838)scale(0.1 -0.1)">
       <use xlink:href="#DejaVuSans-32"/>
       <use x="63.623047" xlink:href="#DejaVuSans-35"/>
       <use x="127.246094" xlink:href="#DejaVuSans-30"/>
       <use x="190.869141" xlink:href="#DejaVuSans-30"/>
       <use x="254.492188" xlink:href="#DejaVuSans-30"/>
      </g>
     </g>
    </g>
    <g id="ytick_7">
     <g id="line2d_13">
      <g>
       <use style="fill:#ffffff;stroke:#ffffff;stroke-width:0.8;" x="126" xlink:href="#ma5214464fc" y="149.222597"/>
      </g>
     </g>
     <g id="text_14">
      <!-- 30000 -->
      <g style="fill:#ffffff;" transform="translate(87.1875 153.021816)scale(0.1 -0.1)">
       <defs>
        <path d="M 2597 2516 
Q 3050 2419 3304 2112 
Q 3559 1806 3559 1356 
Q 3559 666 3084 287 
Q 2609 -91 1734 -91 
Q 1441 -91 1130 -33 
Q 819 25 488 141 
L 488 750 
Q 750 597 1062 519 
Q 1375 441 1716 441 
Q 2309 441 2620 675 
Q 2931 909 2931 1356 
Q 2931 1769 2642 2001 
Q 2353 2234 1838 2234 
L 1294 2234 
L 1294 2753 
L 1863 2753 
Q 2328 2753 2575 2939 
Q 2822 3125 2822 3475 
Q 2822 3834 2567 4026 
Q 2313 4219 1838 4219 
Q 1578 4219 1281 4162 
Q 984 4106 628 3988 
L 628 4550 
Q 988 4650 1302 4700 
Q 1616 4750 1894 4750 
Q 2613 4750 3031 4423 
Q 3450 4097 3450 3541 
Q 3450 3153 3228 2886 
Q 3006 2619 2597 2516 
z
" id="DejaVuSans-33" transform="scale(0.015625)"/>
       </defs>
       <use xlink:href="#DejaVuSans-33"/>
       <use x="63.623047" xlink:href="#DejaVuSans-30"/>
       <use x="127.246094" xlink:href="#DejaVuSans-30"/>
       <use x="190.869141" xlink:href="#DejaVuSans-30"/>
       <use x="254.492188" xlink:href="#DejaVuSans-30"/>
      </g>
     </g>
    </g>
    <g id="ytick_8">
     <g id="line2d_14">
      <g>
       <use style="fill:#ffffff;stroke:#ffffff;stroke-width:0.8;" x="126" xlink:href="#ma5214464fc" y="93.387575"/>
      </g>
     </g>
     <g id="text_15">
      <!-- 35000 -->
      <g style="fill:#ffffff;" transform="translate(87.1875 97.186794)scale(0.1 -0.1)">
       <use xlink:href="#DejaVuSans-33"/>
       <use x="63.623047" xlink:href="#DejaVuSans-35"/>
       <use x="127.246094" xlink:href="#DejaVuSans-30"/>
       <use x="190.869141" xlink:href="#DejaVuSans-30"/>
       <use x="254.492188" xlink:href="#DejaVuSans-30"/>
      </g>
     </g>
    </g>
   </g>
   <g id="line2d_15">
    <path clip-path="url(#p0ac7f23116)" d="M 161.509091 180.356205 
L 162.033017 247.380565 
L 162.29498 271.244454 
L 162.556943 246.252698 
L 163.080869 263.003204 
L 163.342832 262.31085 
L 163.604795 256.537509 
L 163.866758 282.165784 
L 164.390684 302.634903 
L 164.652647 325.426759 
L 164.914611 323.807543 
L 165.176574 302.210557 
L 165.438537 302.110054 
L 165.7005 323.70704 
L 165.962463 331.412273 
L 166.224426 305.783998 
L 166.486389 297.877759 
L 167.010315 336.93994 
L 167.272278 328.397182 
L 167.534241 334.170523 
L 167.796204 335.678069 
L 168.32013 319.686918 
L 168.582093 294.628161 
L 168.844056 305.62766 
L 169.106019 304.008444 
L 169.367982 304.108947 
L 169.629945 354.192962 
L 170.153871 336.638431 
L 170.415834 345.560867 
L 170.677798 336.515594 
L 170.939761 313.723738 
L 171.201724 344.555837 
L 171.463687 353.299601 
L 171.72565 331.322937 
L 171.987613 356.381695 
L 172.249576 349.312981 
L 172.511539 328.497685 
L 172.773502 319.229071 
L 173.035465 340.044367 
L 173.559391 298.279771 
L 173.821354 289.245665 
L 174.34528 250.786502 
L 174.607243 267.49234 
L 174.869206 276.537614 
L 175.131169 267.49234 
L 175.393132 244.700484 
L 175.917058 306.174843 
L 176.179021 284.198179 
L 176.440985 306.174843 
L 176.702948 306.07434 
L 176.964911 313.667903 
L 177.226874 305.761664 
L 177.488837 314.6841 
L 177.7508 287.793954 
L 178.012763 296.839228 
L 178.274726 321.897985 
L 178.536689 330.932092 
L 178.798652 329.424546 
L 179.060615 356.314693 
L 179.322578 333.522837 
L 179.584541 341.764086 
L 179.846504 362.579382 
L 180.108467 362.679885 
L 180.37043 340.703221 
L 180.632393 349.971834 
L 180.894356 334.137022 
L 181.418282 371.088639 
L 182.204172 297.520415 
L 182.990061 272.483991 
L 183.252024 266.71065 
L 183.513987 250.462659 
L 183.77595 259.496765 
L 184.299876 300.368001 
L 184.823802 313.399895 
L 185.085765 313.600901 
L 185.347728 307.82756 
L 185.609691 288.932988 
L 185.871654 296.001702 
L 186.133617 270.942944 
L 186.39558 276.716286 
L 186.657543 267.447672 
L 186.919506 268.955218 
L 187.181469 273.701195 
L 187.443432 281.607434 
L 187.705396 280.099888 
L 188.229322 321.607643 
L 188.491285 315.834302 
L 188.753248 306.911865 
L 189.015211 280.021719 
L 189.277174 279.921216 
L 189.539137 304.979974 
L 189.8011 283.003309 
L 190.325026 336.281087 
L 190.586989 323.729374 
L 190.848952 301.752709 
L 191.110915 294.047476 
L 191.372878 269.055721 
L 191.896804 283.829667 
L 192.158767 276.727453 
L 192.682693 318.235208 
L 193.206619 263.61739 
L 193.468583 291.345061 
L 193.730546 296.091038 
L 193.992509 273.299182 
L 194.254472 265.593949 
L 194.516435 274.516386 
L 194.778398 250.652498 
L 195.040361 245.906521 
L 195.302324 218.178849 
L 195.564287 236.984084 
L 195.82625 290.909548 
L 196.088213 290.340031 
L 196.350176 294.885002 
L 196.612139 309.748285 
L 196.874102 316.515489 
L 197.136065 316.414986 
L 197.398028 332.249798 
L 197.659991 307.258043 
L 197.921954 298.223936 
L 198.183917 276.247272 
L 198.44588 266.978658 
L 198.707843 287.793954 
L 198.969807 286.286408 
L 199.23177 294.527658 
L 199.493733 294.628161 
L 199.755696 285.582887 
L 200.017659 283.963672 
L 200.279622 265.0691 
L 200.803548 313.556233 
L 201.065511 286.666087 
L 201.327474 272.45049 
L 201.589437 281.719104 
L 201.8514 275.87876 
L 202.113363 300.870516 
L 202.375326 294.103311 
L 202.637289 314.918608 
L 202.899252 313.299392 
L 203.161215 304.030778 
L 203.423178 304.32112 
L 203.685141 298.547779 
L 203.947104 307.470216 
L 204.209067 282.411458 
L 204.47103 282.411458 
L 204.732994 304.388122 
L 204.994957 302.746573 
L 205.25692 341.373241 
L 205.518883 343.137628 
L 205.780846 349.904832 
L 206.042809 350.105838 
L 206.304772 342.847285 
L 206.566735 317.788528 
L 207.090661 334.438531 
L 207.614587 318.626053 
L 207.87655 323.37203 
L 208.138513 298.380274 
L 208.400476 298.279771 
L 208.662439 305.538324 
L 208.924402 332.42847 
L 209.186365 330.809255 
L 209.448328 323.550702 
L 209.710291 348.60946 
L 209.972254 236.046056 
L 210.234217 244.890323 
L 210.758144 286.096569 
L 211.020107 294.002808 
L 211.28207 286.096569 
L 211.544033 263.304714 
L 211.805996 272.22715 
L 212.067959 263.193043 
L 212.591885 260.066282 
L 212.853848 268.307531 
L 213.115811 261.238818 
L 213.639737 304.723133 
L 213.9017 320.557945 
L 214.163663 295.499187 
L 214.425626 286.308742 
L 214.687589 313.198889 
L 214.949552 319.966094 
L 215.211515 298.547779 
L 215.473478 211.623817 
L 215.997405 260.166785 
L 216.521331 309.022429 
L 216.783294 300.099993 
L 217.045257 305.873334 
L 217.30722 298.168101 
L 217.569183 307.436715 
L 217.831146 291.601903 
L 218.093109 300.44617 
L 218.355072 291.177556 
L 218.617035 299.921321 
L 219.140961 260.211453 
L 219.402924 279.106025 
L 219.664887 277.486809 
L 219.92685 285.728058 
L 220.188813 279.954717 
L 220.450776 279.753711 
L 220.974702 230.049375 
L 221.236665 257.777046 
L 221.498628 265.482279 
L 222.022555 250.473826 
L 222.808444 316.113477 
L 223.33237 333.62334 
L 223.856296 315.510459 
L 224.118259 315.711465 
L 224.380222 321.484806 
L 224.642185 295.856531 
L 224.904148 311.691343 
L 225.166111 306.945366 
L 225.428074 307.04587 
L 225.690037 298.302105 
L 225.952 270.574433 
L 226.475926 236.704909 
L 226.999852 270.797773 
L 227.261815 274.516386 
L 227.523779 299.575144 
L 227.785742 280.680572 
L 228.047705 270.451596 
L 228.309668 279.195361 
L 228.571631 271.490128 
L 228.833594 250.674832 
L 229.095557 243.907627 
L 229.35752 264.722923 
L 229.619483 264.62242 
L 229.881446 243.807124 
L 230.405372 286.599085 
L 230.667335 265.783788 
L 230.929298 273.489021 
L 231.191261 255.074631 
L 231.453224 275.889927 
L 231.715187 267.983688 
L 231.97715 300.948685 
L 232.239113 310.13913 
L 232.501076 311.758345 
L 232.763039 290.943049 
L 233.025003 292.450595 
L 233.548929 274.337714 
L 233.810892 249.278956 
L 234.072855 256.046161 
L 234.334818 247.804911 
L 234.596781 256.046161 
L 234.858744 240.211349 
L 235.38267 224.108528 
L 235.644633 241.752395 
L 236.168559 294.538825 
L 236.430522 286.833592 
L 236.692485 307.648888 
L 236.954448 285.672223 
L 237.216411 294.717497 
L 237.478374 266.989825 
L 237.740337 258.748576 
L 238.264263 282.567796 
L 238.78819 230.685894 
L 239.050153 246.520706 
L 239.312116 239.262153 
L 239.574079 264.253909 
L 239.836042 264.052903 
L 240.098005 303.42776 
L 240.359968 305.046976 
L 240.621931 330.675251 
L 240.883894 321.830983 
L 241.145857 294.103311 
L 241.40782 286.844759 
L 241.931746 304.633797 
L 242.193709 279.642041 
L 242.455672 271.735802 
L 242.717635 244.845655 
L 242.979598 235.655211 
L 243.241561 256.470507 
L 243.765487 270.150087 
L 244.02745 270.049584 
L 244.551377 307.481383 
L 245.075303 292.472929 
L 245.337266 299.731482 
L 245.599229 234.862353 
L 245.861192 262.913868 
L 246.123155 262.813365 
L 246.385118 288.44164 
L 246.647081 297.475747 
L 246.909044 319.072733 
L 247.171007 319.173236 
L 247.43297 328.21851 
L 247.694933 350.195174 
L 247.956896 350.094671 
L 248.480822 366.431999 
L 248.742785 368.051214 
L 249.004748 373.824555 
L 249.266711 364.790449 
L 249.528674 363.171233 
L 249.790637 363.271736 
L 250.052601 355.030487 
L 250.314564 334.215191 
L 250.576527 352.629581 
L 250.83849 345.862377 
L 251.100453 364.756948 
L 251.362416 341.965092 
L 251.624379 365.82898 
L 252.148305 313.042551 
L 252.410268 303.773937 
L 252.672231 328.832695 
L 253.196157 288.821318 
L 253.45812 307.235709 
L 253.720083 314.002913 
L 253.982046 313.801907 
L 254.244009 304.611463 
L 254.505972 312.517702 
L 254.767935 328.352514 
L 255.553824 353.04276 
L 256.077751 334.807042 
L 256.339714 336.314588 
L 256.601677 330.541247 
L 256.86364 312.89738 
L 257.387566 296.984399 
L 257.649529 302.75774 
L 257.911492 304.376955 
L 258.173455 313.645569 
L 258.435418 335.242555 
L 258.697381 319.407743 
L 258.959344 227.916477 
L 259.745233 300.200496 
L 260.007196 291.155222 
L 260.269159 292.662768 
L 260.531122 311.077158 
L 261.055048 293.120615 
L 261.317012 269.256727 
L 261.578975 269.35723 
L 261.840938 304.153615 
L 262.102901 313.187722 
L 262.364864 332.082293 
L 262.626827 330.574748 
L 262.88879 322.668509 
L 263.150753 329.435713 
L 263.674679 369.402422 
L 263.936642 360.211977 
L 264.198605 339.396681 
L 264.722531 356.225357 
L 264.984494 357.844572 
L 265.50842 311.25583 
L 265.770383 302.333394 
L 266.032346 302.132388 
L 266.294309 323.729374 
L 266.556272 318.983397 
L 266.818235 316.962169 
L 267.080199 332.082293 
L 267.342162 332.283299 
L 267.604125 333.790845 
L 268.128051 349.603323 
L 268.390014 358.871937 
L 268.651977 383.863692 
L 268.91394 374.818419 
L 269.437866 328.162675 
L 269.699829 319.318407 
L 269.961792 328.363681 
L 270.223755 319.095067 
L 270.485718 342.958955 
L 270.747681 335.700403 
L 271.009644 344.54467 
L 271.271607 328.709858 
L 271.53357 319.675751 
L 271.795533 342.467607 
L 272.057496 337.72163 
L 272.319459 346.990244 
L 272.581422 351.736221 
L 272.843386 351.635718 
L 273.105349 343.729479 
L 273.367312 352.651915 
L 273.629275 369.357754 
L 273.891238 367.850208 
L 274.153201 346.253222 
L 274.415164 352.026563 
L 274.677127 335.320725 
L 274.93909 351.155537 
L 275.201053 188.965966 
L 275.986942 243.56145 
L 276.248905 243.862959 
L 276.510868 249.6363 
L 276.772831 279.921216 
L 277.034794 274.147875 
L 277.296757 297.810757 
L 277.55872 288.921821 
L 277.820683 298.190435 
L 278.082646 273.131677 
L 278.34461 273.031174 
L 278.606573 246.141028 
L 279.392462 308.94426 
L 279.654425 281.216588 
L 279.916388 282.835804 
L 280.178351 289.603009 
L 280.440314 274.628056 
L 280.702277 299.686814 
L 280.96424 290.496369 
L 281.226203 288.877153 
L 281.488166 315.7673 
L 281.750129 330.742253 
L 282.274055 306.844863 
L 282.536018 307.04587 
L 283.059944 349.804329 
L 283.845833 304.577962 
L 284.107797 313.500398 
L 284.631723 295.543855 
L 284.893686 270.485097 
L 285.155649 291.300393 
L 285.417612 269.323729 
L 285.941538 322.679676 
L 286.203501 297.051401 
L 286.465464 288.810151 
L 286.727427 297.218906 
L 286.98939 301.663373 
L 287.251353 292.863774 
L 287.513316 299.932488 
L 287.775279 317.576355 
L 288.299205 285.705724 
L 288.561168 311.333999 
L 288.823131 319.039232 
L 289.085094 318.838226 
L 289.347057 324.611567 
L 289.60902 339.58652 
L 290.132947 289.066993 
L 290.39491 289.267999 
L 290.656873 279.999385 
L 290.918836 305.058143 
L 291.180799 284.242847 
L 291.704725 270.563266 
L 291.966688 245.504509 
L 292.228651 236.660241 
L 292.490614 211.031966 
L 292.752577 215.777943 
L 293.01454 194.180957 
L 293.276503 216.157621 
L 293.538466 225.426235 
L 293.800429 242.132073 
L 294.324355 292.461762 
L 294.848281 326.710964 
L 295.110244 317.676858 
L 295.372208 332.65181 
L 295.634171 317.676858 
L 295.896134 324.93541 
L 296.158097 324.834907 
L 296.42006 333.578672 
L 296.682023 314.6841 
L 296.943986 307.425548 
L 297.205949 314.192752 
L 297.729875 265.270106 
L 297.991838 289.133995 
L 298.253801 289.234498 
L 298.515764 283.461156 
L 298.777727 290.52987 
L 299.03969 264.901595 
L 299.301653 272.606828 
L 299.563616 254.192438 
L 300.087542 238.580966 
L 300.349505 304.95764 
L 300.611468 312.863879 
L 300.873431 312.662873 
L 301.135395 313.645569 
L 301.397358 306.096674 
L 301.659321 307.71589 
L 301.921284 350.329178 
L 302.183247 374.193067 
L 302.44521 373.992061 
L 303.493062 291.099387 
L 303.755025 346.264389 
L 304.016988 338.559156 
L 304.278951 363.550911 
L 304.540914 372.395179 
L 304.802877 372.294676 
L 305.06484 400.022348 
L 305.326803 378.425361 
L 305.588766 387.615806 
L 305.850729 404.321644 
L 306.112692 413.355751 
L 306.636618 364.93562 
L 306.898582 259.273425 
L 307.160545 233.64515 
L 307.684471 286.465081 
L 308.208397 318.324544 
L 308.47036 324.097885 
L 308.732323 315.856636 
L 308.994286 323.115189 
L 309.256249 315.856636 
L 309.518212 330.831589 
L 309.780175 315.856636 
L 310.042138 320.602613 
L 310.304101 320.50211 
L 310.566064 295.510354 
L 310.828027 287.045765 
L 311.08999 265.448778 
L 311.613916 297.12957 
L 311.875879 297.230073 
L 312.137842 304.488626 
L 312.399806 302.98108 
L 312.923732 261.294653 
L 313.185695 255.521311 
L 313.447658 257.028857 
L 313.709621 240.323019 
L 313.971584 261.920005 
L 314.233547 252.997569 
L 314.49551 252.897065 
L 314.757473 252.997569 
L 315.019436 320.881788 
L 315.281399 322.802513 
L 315.543362 340.55805 
L 315.805325 340.55805 
L 316.067288 365.616807 
L 316.329251 356.77254 
L 316.853177 403.394783 
L 317.11514 381.418118 
L 317.377103 374.349405 
L 317.639066 373.54538 
L 317.901029 395.522045 
L 318.162993 372.730189 
L 318.424956 381.574456 
L 318.686919 355.946182 
L 318.948882 374.360572 
L 319.210845 347.470425 
L 319.734771 388.933512 
L 319.996734 396.002226 
L 320.258697 379.296388 
L 320.52066 406.186534 
L 320.782623 380.558259 
L 321.044586 385.304236 
L 321.306549 378.235522 
L 321.568512 403.863797 
L 321.830475 403.9643 
L 322.092438 412.886737 
L 322.354401 404.645487 
L 322.616364 404.846494 
L 322.878327 396.002226 
L 323.14029 371.01047 
L 323.664216 356.314693 
L 323.92618 330.686418 
L 324.188143 339.731691 
L 324.450106 320.83712 
L 324.712069 316.091143 
L 324.974032 324.93541 
L 325.235995 315.666797 
L 325.497958 322.92535 
L 325.759921 322.824847 
L 326.021884 315.566294 
L 326.283847 324.287724 
L 326.54581 349.346482 
L 326.807773 356.415196 
L 327.069736 375.309767 
L 327.331699 375.41027 
L 327.593662 382.177475 
L 328.379551 357.21922 
L 328.641514 380.011076 
L 328.903477 374.751417 
L 329.16544 347.023745 
L 329.427404 337.8333 
L 329.689367 347.023745 
L 329.95133 328.129174 
L 330.213293 319.296073 
L 330.475256 328.341347 
L 330.999182 286.855926 
L 331.261145 294.762165 
L 331.523108 296.470716 
L 331.785071 291.211057 
L 332.047034 303.773937 
L 332.308997 303.773937 
L 332.57096 236.704909 
L 332.832923 257.520205 
L 333.094886 264.588919 
L 333.356849 255.320305 
L 333.880775 213.555709 
L 334.142738 230.261548 
L 334.404701 230.362051 
L 334.666664 239.630664 
L 335.190591 283.516991 
L 335.714517 265.850791 
L 336.238443 334.918712 
L 336.762369 309.792953 
L 337.024332 324.767905 
L 337.286295 315.499292 
L 337.548258 334.393863 
L 337.810221 327.325149 
L 338.334147 287.615282 
L 338.59611 296.805727 
L 338.858073 274.013871 
L 339.120036 278.759848 
L 339.381999 269.714574 
L 339.643962 245.850686 
L 339.905925 268.642542 
L 340.167888 268.542039 
L 340.953778 332.417303 
L 341.477704 321.897985 
L 341.739667 304.254118 
L 342.00163 323.14869 
L 342.263593 330.217404 
L 342.525556 355.276161 
L 342.787519 336.38159 
L 343.049482 334.762374 
L 343.311445 318.927562 
L 343.573408 293.868804 
L 343.835371 295.48802 
L 344.097334 295.588523 
L 344.359297 246.945052 
L 344.62126 301.886714 
L 344.883223 301.886714 
L 345.145186 300.412669 
L 345.407149 322.947684 
L 345.669112 327.693661 
L 346.193038 283.170814 
L 346.455002 277.397473 
L 346.716965 285.638722 
L 346.978928 302.344561 
L 347.502854 286.230573 
L 347.764817 258.502902 
L 348.02678 249.580465 
L 348.288743 272.372321 
L 348.550706 278.145662 
L 348.812669 278.346668 
L 349.598558 204.800778 
L 349.860521 198.513754 
L 350.122484 226.241426 
L 350.384447 228.01698 
L 350.64641 246.911551 
L 350.908373 248.039419 
L 351.170336 256.961855 
L 351.694262 240.066177 
L 351.956225 223.360339 
L 352.218189 232.104103 
L 352.480152 211.288807 
L 352.742115 226.26376 
L 353.004078 233.332474 
L 353.266041 260.22262 
L 353.528004 254.449279 
L 353.789967 262.154512 
L 354.05193 253.232076 
L 354.313893 225.504404 
L 354.575856 246.3197 
L 354.837819 231.344747 
L 355.099782 232.148771 
L 355.623708 193.689608 
L 356.147634 211.72432 
L 356.409597 233.321307 
L 356.67156 225.616074 
L 357.195486 185.124516 
L 357.457449 212.852188 
L 357.719412 318.63722 
L 357.981376 311.121826 
L 358.243339 311.948184 
L 358.505302 320.691949 
L 358.767265 312.4507 
L 359.291191 347.001411 
L 359.553154 371.993167 
L 359.815117 378.224355 
L 360.07708 370.965802 
L 360.339043 347.41459 
L 360.862969 329.190039 
L 361.124932 329.391045 
L 361.386895 338.425152 
L 361.648858 313.433396 
L 361.910821 341.730585 
L 362.172784 334.96338 
L 362.69671 290.686208 
L 363.220636 308.620417 
L 363.4826 300.915184 
L 363.744563 309.156433 
L 364.006526 300.915184 
L 364.268489 278.93852 
L 364.530452 270.094252 
L 364.792415 277.352805 
L 365.054378 260.646966 
L 365.316341 235.588209 
L 365.578304 263.315881 
L 365.840267 271.55713 
L 366.10223 360.625156 
L 366.364193 364.37727 
L 366.626156 347.671431 
L 366.888119 340.602718 
L 367.150082 355.57767 
L 367.412045 346.733403 
L 367.674008 324.756738 
L 368.197934 340.569217 
L 368.459897 331.53511 
L 368.72186 353.511775 
L 368.983823 362.545881 
L 369.245787 353.500608 
L 369.50775 351.881392 
L 369.769713 360.926665 
L 370.031676 355.153324 
L 370.293639 355.052821 
L 370.555602 371.75866 
L 370.817565 379.999909 
L 371.865417 290.072023 
L 372.12738 281.328259 
L 372.651306 296.939731 
L 372.913269 270.049584 
L 373.175232 265.303607 
L 373.437195 271.076949 
L 373.699158 264.008235 
L 374.223084 300.066492 
L 374.485047 292.528764 
L 374.74701 301.574037 
L 375.008974 329.301709 
L 375.5329 347.235918 
L 375.794863 339.530685 
L 376.056826 365.15896 
L 376.318789 356.113687 
L 376.580752 363.81892 
L 377.104678 323.249193 
L 377.366641 302.433897 
L 377.628604 319.139735 
L 377.890567 261.205317 
L 378.15253 286.833592 
L 378.414493 294.538825 
L 378.938419 333.165493 
L 379.200382 325.259254 
L 379.462345 304.443958 
L 379.724308 326.420622 
L 379.986271 332.193963 
L 380.248234 323.003519 
L 380.510198 332.272132 
L 380.772161 332.071126 
L 381.034124 330.451911 
L 381.296087 322.746678 
L 381.55805 297.68792 
L 382.081976 282.154617 
L 382.343939 288.921821 
L 382.605902 273.087009 
L 382.867865 283.170814 
L 383.129828 301.830878 
L 383.391791 312.495368 
L 383.653754 306.722026 
L 383.915717 285.12504 
L 384.17768 276.772121 
L 384.439643 284.477354 
L 384.701606 261.685498 
L 384.963569 279.94355 
L 385.225532 286.342243 
L 385.487495 259.452097 
L 385.749458 273.020007 
L 386.273385 321.942653 
L 386.535348 300.345667 
L 387.321237 363.148899 
L 387.5832 354.114793 
L 387.845163 332.517806 
L 388.369089 320.513277 
L 388.631052 304.075446 
L 388.893015 312.316696 
L 389.154978 305.247982 
L 389.678904 321.428971 
L 389.940867 314.170418 
L 390.20283 314.069915 
L 390.464793 213.522208 
L 390.726756 221.283276 
L 390.988719 214.024723 
L 391.512645 260.166785 
L 391.774608 267.872018 
L 392.036572 269.491234 
L 392.298535 251.076844 
L 392.560498 259.318093 
L 392.822461 237.721107 
L 393.346387 220.780761 
L 393.60835 245.772517 
L 393.870313 244.264971 
L 394.132276 253.455416 
L 394.394239 251.8362 
L 394.656202 226.844444 
L 394.918165 274.683891 
L 395.704054 298.681783 
L 396.22798 281.596267 
L 396.489943 293.243452 
L 396.751906 317.10734 
L 397.013869 294.315485 
L 397.275832 246.777547 
L 397.537796 230.071709 
L 397.799759 257.79938 
L 398.061722 258.000386 
L 398.323685 262.746363 
L 398.585648 281.640935 
L 399.109574 265.080267 
L 399.6335 302.512066 
L 399.895463 302.713072 
L 400.157426 302.612569 
L 400.419389 304.231784 
L 400.681352 299.597478 
L 400.943315 302.299893 
L 401.205278 294.48299 
L 401.467241 321.373136 
L 401.729204 316.627159 
L 401.991167 333.332998 
L 402.25313 308.27424 
L 402.515093 313.020217 
L 402.777056 335.812073 
L 403.039019 345.002517 
L 403.824909 320.569112 
L 404.086872 314.795771 
L 404.348835 287.905624 
L 404.610798 285.627555 
L 404.872761 310.686313 
L 405.134724 319.430077 
L 405.65865 286.889427 
L 406.182576 311.992852 
L 406.444539 320.234102 
L 406.706502 305.259149 
L 406.968465 314.293255 
L 407.492391 271.880973 
L 408.016317 312.372531 
L 408.540243 273.131677 
L 408.802206 266.364473 
L 409.06417 275.666587 
L 409.326133 293.310454 
L 409.588096 272.495158 
L 410.112022 288.798984 
L 410.897911 351.311875 
L 411.159874 352.93109 
L 411.421837 361.853527 
L 411.6838 235.264366 
L 411.945763 259.99928 
L 412.207726 243.293442 
L 412.469689 251.534691 
L 412.731652 250.027145 
L 412.993615 237.274426 
L 413.255578 259.251091 
L 413.517541 254.962961 
L 413.779504 247.056722 
L 414.041467 255.979159 
L 414.30343 234.002494 
L 414.565394 234.102997 
L 414.827357 259.094753 
L 415.08932 251.8362 
L 415.613246 270.295258 
L 415.875209 261.104814 
L 416.137172 279.999385 
L 416.661098 263.550388 
L 416.923061 291.278059 
L 417.446987 304.120114 
L 417.70895 313.165388 
L 417.970913 295.521521 
L 418.232876 310.775649 
L 418.494839 317.844363 
L 418.756802 336.258753 
L 419.018765 344.500002 
L 419.280728 371.390149 
L 419.804654 354.114793 
L 420.066617 348.27445 
L 420.328581 348.073443 
L 420.590544 348.27445 
L 420.852507 341.015897 
L 421.11447 315.957139 
L 421.376433 324.879575 
L 421.638396 329.625552 
L 422.162322 345.43803 
L 422.686248 328.989033 
L 422.948211 303.360758 
L 423.210174 322.255329 
L 423.472137 306.420517 
L 423.7341 330.284406 
L 423.996063 330.183903 
L 424.781952 265.571615 
L 425.043915 281.5851 
L 425.305878 254.694953 
L 425.567841 264.767591 
L 426.091768 251.925536 
L 426.353731 276.984294 
L 426.615694 250.094147 
L 427.13962 234.281669 
L 427.401583 250.987508 
L 427.663546 243.918794 
L 427.925509 251.624027 
L 428.187472 286.319909 
L 428.449435 271.981476 
L 428.711398 308.062067 
L 429.235324 321.015792 
L 429.497287 294.125645 
L 429.75925 284.857032 
L 430.021213 306.454018 
L 430.283176 298.547779 
L 430.545139 296.928564 
L 430.807102 287.738119 
L 431.069065 287.939125 
L 431.592992 326.677463 
L 431.854955 339.229176 
L 432.116918 322.411667 
L 432.378881 313.143054 
L 432.640844 338.13481 
L 432.902807 317.319514 
L 433.16477 326.364787 
L 433.426733 326.46529 
L 433.688696 341.440243 
L 433.950659 332.595975 
L 434.212622 309.80412 
L 434.736548 297.151904 
L 434.998511 304.410456 
L 435.522437 286.442747 
L 435.7844 302.277559 
L 436.046363 310.183798 
L 436.308326 300.993353 
L 436.570289 285.158541 
L 436.832252 285.058038 
L 437.094215 293.902305 
L 437.356179 314.717602 
L 437.618142 318.882894 
L 437.880105 318.882894 
L 438.142068 293.254619 
L 438.404031 302.177056 
L 438.665994 293.142949 
L 438.927957 309.848788 
L 439.451883 328.10684 
L 439.975809 279.563872 
L 440.237772 270.719604 
L 440.499735 296.347879 
L 440.761698 277.453308 
L 441.023661 241.294548 
L 441.285624 248.709439 
L 441.547587 266.353306 
L 441.80955 257.084692 
L 442.071513 265.325941 
L 442.333476 256.481674 
L 442.595439 273.187512 
L 443.381329 218.268185 
L 443.643292 204.220094 
L 443.905255 204.320597 
L 444.167218 197.810233 
L 444.691144 214.225729 
L 444.953107 239.854004 
L 445.21507 241.36155 
L 445.477033 262.176846 
L 445.738996 238.312958 
L 446.000959 253.287911 
L 446.262922 248.541934 
L 446.524885 233.566981 
L 446.786848 240.825534 
L 447.048811 241.629558 
L 447.310774 250.49616 
L 447.572737 232.852293 
L 447.8347 231.233077 
L 448.358626 246.710545 
L 448.62059 245.091329 
L 448.882553 270.150087 
L 449.144516 308.586916 
L 449.406479 311.166494 
L 449.668442 289.18983 
L 450.192368 325.839938 
L 450.454331 308.196071 
L 450.716294 333.824346 
L 450.978257 311.03249 
L 451.24022 320.077764 
L 451.502183 319.876758 
L 452.026109 360.31248 
L 452.288072 351.568716 
L 452.550035 356.314693 
L 452.811998 329.424546 
L 453.073961 314.449593 
L 453.597887 330.999094 
L 453.85985 352.975758 
L 454.121813 343.930485 
L 454.383777 343.930485 
L 454.64574 335.086217 
L 454.907703 333.198994 
L 455.169666 338.13481 
L 455.431629 334.952213 
L 455.693592 353.846785 
L 455.955555 362.892058 
L 456.479481 324.432895 
L 456.741444 324.633901 
L 457.003407 236.459235 
L 457.26537 245.64968 
L 457.527333 247.268895 
L 458.051259 279.094858 
L 458.313222 279.295864 
L 458.837148 247.615072 
L 459.099111 220.724926 
L 459.361074 220.724926 
L 459.623037 225.470903 
L 459.885001 242.176741 
L 460.408927 223.941023 
L 460.67089 281.339426 
L 460.932853 283.315985 
L 461.194816 257.721211 
L 461.456779 257.922217 
L 461.718742 250.015978 
L 461.980705 258.938415 
L 462.242668 286.666087 
L 462.766594 270.719604 
L 463.028557 270.719604 
L 463.29052 242.991933 
L 463.552483 248.765274 
L 463.814446 230.350884 
L 464.076409 237.955614 
L 464.338372 228.765169 
L 464.600335 251.914369 
L 464.862298 251.914369 
L 465.124261 234.114164 
L 465.386224 243.159438 
L 465.910151 289.033492 
L 466.172114 297.274741 
L 466.69604 343.863483 
L 466.958003 343.662477 
L 467.219966 327.827665 
L 467.481929 355.555336 
L 468.005855 339.407848 
L 468.267818 341.027064 
L 468.529781 339.407848 
L 469.053707 324.444062 
L 469.31567 326.063278 
L 469.577633 301.071522 
L 469.839596 323.863378 
L 470.101559 325.370924 
L 470.363522 323.863378 
L 470.625485 342.757949 
L 470.887448 317.699192 
L 471.149411 333.534004 
L 471.411375 314.639432 
L 471.673338 322.880682 
L 472.197264 307.068204 
L 472.459227 316.113477 
L 472.72119 307.079371 
L 473.245116 323.829877 
L 473.507079 348.888635 
L 473.769042 340.14487 
L 474.031005 340.345876 
L 474.292968 322.70201 
L 474.554931 321.082794 
L 475.078857 363.841254 
L 475.34082 356.77254 
L 475.602783 365.516304 
L 475.864746 268.140026 
L 476.126709 266.520811 
L 476.388672 275.566084 
L 476.650635 294.460656 
L 476.912599 302.701905 
L 477.174562 277.643147 
L 477.436525 269.937914 
L 477.698488 278.860351 
L 477.960451 304.488626 
L 478.74634 252.595556 
L 479.008303 243.56145 
L 479.270266 271.289122 
L 479.532229 263.137208 
L 479.794192 263.237711 
L 480.056155 290.965383 
L 480.318118 298.223936 
L 480.580081 321.015792 
L 480.842044 311.747178 
L 481.104007 307.001202 
L 481.36597 307.202208 
L 481.627933 307.001202 
L 481.889896 328.977866 
L 482.151859 336.04658 
L 482.413822 354.941151 
L 482.675786 355.142157 
L 483.199712 379.039546 
L 483.461675 370.11711 
L 483.723638 395.108866 
L 483.985601 378.403027 
L 484.247564 404.031302 
L 484.509527 381.239446 
L 484.77149 372.395179 
L 485.033453 381.440452 
L 485.295416 365.60564 
L 485.557379 388.397496 
L 485.819342 360.669824 
L 486.605231 336.113582 
L 486.867194 345.304026 
L 487.129157 336.113582 
L 487.39112 338.681993 
L 487.653083 358.168415 
L 487.915046 336.191751 
L 488.438973 353.176764 
L 488.700936 331.579778 
L 488.962899 340.424045 
L 489.224862 321.529474 
L 489.486825 313.288225 
L 489.748788 322.333498 
L 490.010751 303.919108 
L 490.272714 303.818605 
L 490.534677 313.00905 
L 490.79664 287.380775 
L 491.058603 278.112161 
L 491.320566 297.006733 
L 491.844492 243.505615 
L 492.106455 265.102601 
L 492.368418 244.287305 
L 492.630381 250.060646 
L 493.41627 250.161149 
L 493.678233 277.051296 
L 494.20216 235.543541 
L 494.464123 242.612254 
L 494.726086 267.671012 
L 494.988049 260.579964 
L 495.250012 281.395261 
L 495.511975 264.689422 
L 495.773938 272.595661 
L 496.035901 245.705515 
L 496.297864 252.472719 
L 496.82179 291.590736 
L 497.083753 297.364077 
L 497.345716 294.315485 
L 497.607679 227.391628 
L 497.869642 244.968492 
L 498.131605 225.850581 
L 498.393568 225.850581 
L 498.655531 301.272528 
L 498.917494 310.541142 
L 499.179457 326.375954 
L 499.44142 326.57696 
L 499.703384 348.553625 
L 499.965347 353.299601 
L 500.22731 351.792056 
L 500.489273 335.086217 
L 500.751236 336.593763 
L 501.013199 308.866091 
L 501.275162 325.57193 
L 501.799088 307.336212 
L 502.061051 302.590235 
L 502.323014 293.321621 
L 502.584977 293.422124 
L 503.108903 317.029171 
L 503.370866 315.409956 
L 503.632829 315.409956 
L 503.894792 325.23692 
L 504.156755 312.383698 
L 504.418718 286.755423 
L 504.680681 303.003414 
L 504.942644 282.690633 
L 505.204607 274.9854 
L 505.466571 283.226649 
L 505.728534 274.192543 
L 505.990497 253.377247 
L 506.25246 247.603905 
L 506.514423 247.402899 
L 506.776386 230.697061 
L 507.038349 230.697061 
L 507.300312 221.428447 
L 507.562275 230.172212 
L 507.824238 248.586602 
L 508.086201 239.664165 
L 508.348164 259.976946 
L 508.87209 274.940732 
L 509.134053 266.096465 
L 509.396016 275.286909 
L 509.657979 252.495053 
L 510.181905 252.495053 
L 510.443868 261.339321 
L 510.705831 261.540327 
L 510.967795 236.548571 
L 511.229758 245.471008 
L 511.491721 223.494343 
L 511.753684 216.23579 
L 512.015647 223.304504 
L 512.27761 223.304504 
L 512.801536 240.256017 
L 513.063499 231.210743 
L 513.325462 254.002599 
L 513.849388 234.605512 
L 514.111351 207.715366 
L 514.373314 213.488707 
L 514.635277 241.216379 
L 514.89724 223.572512 
L 515.159203 232.606619 
L 515.421166 232.506116 
L 515.683129 225.716577 
L 515.945092 234.985191 
L 516.207055 240.24485 
L 516.469018 256.950688 
L 516.992945 215.186092 
L 517.254908 215.286595 
L 517.516871 240.345353 
L 518.040797 270.261757 
L 518.30276 263.193043 
L 518.564723 285.169708 
L 518.826686 275.979263 
L 519.088649 293.62313 
L 519.350612 293.62313 
L 519.612575 320.513277 
L 519.874538 312.808044 
L 520.136501 317.554021 
L 520.398464 326.744465 
L 520.92239 312.22736 
L 521.184353 333.824346 
L 521.446316 312.22736 
L 521.708279 302.958746 
L 521.970242 304.466292 
L 522.232205 288.631479 
L 522.494169 261.741333 
L 523.018095 261.741333 
L 523.280058 267.514674 
L 523.542021 292.50643 
L 523.803984 285.739225 
L 524.065947 258.011553 
L 524.32791 253.265577 
L 524.589873 280.993248 
L 524.851836 259.016584 
L 525.113799 314.058748 
L 525.375762 301.306029 
L 525.637725 327.805331 
L 525.899688 328.006337 
L 526.94754 267.849684 
L 527.209503 267.849684 
L 527.471466 269.4689 
L 527.733429 260.311956 
L 527.995393 269.346063 
L 528.519319 253.008736 
L 528.781282 274.605722 
L 529.305208 291.702406 
L 529.567171 316.694161 
L 529.829134 291.702406 
L 530.091097 314.494261 
L 530.35306 323.762875 
L 530.615023 315.019111 
L 530.876986 296.60472 
L 531.138949 322.232995 
L 531.400912 322.333498 
L 531.662875 331.177766 
L 531.924838 322.333498 
L 532.186801 237.106921 
L 532.97269 283.070311 
L 533.234653 281.294758 
L 533.496616 296.26971 
L 533.75858 296.370213 
L 534.020543 305.560658 
L 534.282506 296.638221 
L 534.544469 268.307531 
L 534.806432 276.548781 
L 535.068395 267.503507 
L 535.330358 292.562265 
L 535.592321 283.639828 
L 535.854284 292.685102 
L 536.116247 283.650995 
L 536.37821 308.642751 
L 536.640173 289.312667 
L 537.164099 272.416989 
L 537.688025 315.789634 
L 537.949988 306.52102 
L 538.211951 306.722026 
L 538.473914 289.07816 
L 538.735877 311.870015 
L 539.259803 264.019402 
L 539.521767 275.219907 
L 539.78373 262.64586 
L 540.307656 246.386702 
L 540.569619 269.178558 
L 540.831582 256.291835 
L 541.093545 256.291835 
L 541.355508 256.492841 
L 541.617471 256.291835 
L 541.879434 249.223121 
L 542.141397 249.223121 
L 542.40336 271.199786 
L 542.665323 256.392338 
L 542.927286 265.136102 
L 543.189249 256.090829 
L 543.451212 230.462554 
L 543.713175 219.474221 
L 543.975138 240.792033 
L 544.237101 218.815368 
L 544.499064 253.165074 
L 544.761027 254.784289 
L 545.022991 253.165074 
L 545.284954 272.026144 
L 545.546917 253.611754 
L 545.80888 251.344852 
L 546.070843 279.072524 
L 546.332806 270.831274 
L 546.594769 251.344852 
L 546.856732 257.57604 
L 547.118695 251.802699 
L 547.904584 316.571324 
L 548.166547 295.756028 
L 548.42851 295.756028 
L 548.690473 320.747784 
L 548.952436 312.506535 
L 549.214399 318.279876 
L 549.476362 259.876443 
L 550.000288 251.679862 
L 550.262251 258.748576 
L 550.786178 301.082689 
L 551.048141 306.85603 
L 551.310104 299.597478 
L 551.572067 277.620813 
L 551.83403 272.874836 
L 552.095993 271.210953 
L 552.619919 271.210953 
L 552.881882 280.05522 
L 553.143845 280.155723 
L 553.405808 289.424337 
L 553.667771 289.625343 
L 553.929734 263.997068 
L 554.191697 288.988824 
L 554.45366 272.282985 
L 554.715623 248.419097 
L 554.977586 272.282985 
L 555.239549 272.081979 
L 555.501512 278.514173 
L 555.763475 257.698877 
L 556.025438 257.698877 
L 556.287401 251.925536 
L 556.549365 260.166785 
L 556.811328 253.399581 
L 557.335254 253.399581 
L 557.597217 234.985191 
L 557.85918 234.985191 
L 558.121143 246.945052 
L 558.383106 272.00381 
L 558.645069 241.071208 
L 558.907032 263.863064 
L 559.692921 288.966489 
L 559.954884 263.974734 
L 560.216847 284.466187 
L 560.47881 292.17142 
L 561.002736 278.692845 
L 561.526662 294.896169 
L 561.788625 277.252302 
L 562.050589 283.03681 
L 562.312552 274.002704 
L 562.574515 273.433186 
L 562.836478 273.433186 
L 563.098441 251.8362 
L 563.360404 247.804911 
L 563.88433 247.804911 
L 564.146293 249.424127 
L 564.408256 276.314274 
L 564.932182 260.524129 
L 565.456108 294.572326 
L 565.718071 272.975339 
L 565.980034 311.389834 
L 566.241997 320.234102 
L 566.50396 312.528869 
L 566.765923 312.629372 
L 567.289849 340.312375 
L 567.551812 314.6841 
L 567.813776 320.234102 
L 568.075739 293.343955 
L 568.337702 300.602508 
L 568.599665 300.502005 
L 568.861628 275.443247 
L 569.123591 269.212059 
L 569.385554 247.235394 
L 569.647517 247.235394 
L 569.90948 228.821004 
L 570.171443 228.821004 
L 570.433406 215.923114 
L 570.695369 195.107818 
L 570.957332 217.084483 
L 571.219295 354.192962 
L 571.481258 346.934409 
L 571.743221 348.553625 
L 572.005184 348.553625 
L 572.267147 357.297389 
L 572.52911 332.305633 
L 572.791073 322.076657 
L 573.053036 320.457442 
L 573.314999 198.089408 
L 573.576963 220.066073 
L 574.100889 238.770805 
L 574.362852 261.562661 
L 574.624815 261.562661 
L 574.886778 269.24556 
L 575.148741 283.662162 
L 575.410704 323.26036 
L 575.672667 323.26036 
L 576.196593 306.286513 
L 576.458556 306.18601 
L 576.720519 278.458338 
L 576.982482 270.25059 
L 577.244445 271.758136 
L 577.506408 262.835699 
L 577.768371 270.094252 
L 578.030334 268.475037 
L 578.292297 247.65974 
L 578.55426 263.784895 
L 578.816223 269.569403 
L 579.34015 269.4689 
L 579.602113 244.410142 
L 579.864076 244.410142 
L 580.126039 262.444854 
L 580.388002 254.203605 
L 580.649965 253.857428 
L 580.911928 244.45481 
L 581.173891 252.160043 
L 581.435854 233.745653 
L 581.697817 242.936098 
L 581.95978 237.162756 
L 582.221743 238.290624 
L 582.483706 238.290624 
L 582.745669 245.057828 
L 583.007632 245.057828 
L 583.269595 223.081164 
L 583.531558 223.081164 
L 583.793521 244.67815 
L 584.055484 244.67815 
L 584.317447 235.833883 
L 584.57941 251.668695 
L 584.841374 251.668695 
L 585.103337 243.963462 
L 585.3653 243.963462 
L 585.627263 239.217485 
L 585.889226 237.70994 
L 586.151189 254.415778 
L 586.413152 259.161755 
L 586.675115 234.169999 
L 586.937078 234.169999 
L 587.199041 227.402795 
L 587.722967 227.402795 
L 587.98493 229.02201 
L 588.246893 237.944447 
L 588.508856 256.358837 
L 588.770819 234.76185 
L 589.032782 234.76185 
L 589.294745 262.489522 
L 589.556708 257.743545 
L 589.818671 284.611358 
L 590.080634 263.315881 
L 590.604561 263.315881 
L 590.866524 270.083085 
L 591.39045 253.790426 
L 591.652413 253.58942 
L 591.914376 253.58942 
L 592.176339 245.683181 
L 592.438302 259.262258 
L 592.700265 266.520811 
L 592.962228 238.793139 
L 593.224191 248.139922 
L 593.486154 225.348066 
L 594.534006 225.348066 
L 594.795969 233.254305 
L 595.057932 233.254305 
L 595.319895 239.027646 
L 595.581858 239.228652 
L 595.843821 230.038208 
L 596.367748 229.937705 
L 596.629711 222.679152 
L 596.891674 230.719395 
L 597.4156 213.968888 
L 597.939526 213.968888 
L 598.201489 231.612755 
L 598.463452 229.99354 
L 598.725415 239.262153 
L 598.987378 241.149377 
L 599.249341 241.149377 
L 599.511304 250.071813 
L 599.773267 250.071813 
L 600.297193 211.61265 
L 600.559156 220.456918 
L 602.130935 220.456918 
L 602.392898 218.837702 
L 603.178787 218.837702 
L 603.44075 209.569089 
L 603.702713 209.569089 
L 603.964676 202.500375 
L 605.798417 202.600878 
L 606.06038 184.186488 
L 606.322343 184.186488 
L 606.584306 219.116877 
L 606.846269 219.317883 
L 607.108232 219.317883 
L 607.370195 228.586497 
L 607.632159 228.586497 
L 607.894122 254.214772 
L 608.156085 254.214772 
L 608.418048 232.238107 
L 608.941974 232.238107 
L 609.203937 223.047663 
L 609.4659 223.047663 
L 609.727863 214.002389 
L 609.989826 214.002389 
L 610.251789 209.18941 
L 610.513752 200.981662 
L 611.561604 200.981662 
L 612.08553 218.044845 
L 612.347493 219.664061 
L 612.609456 219.664061 
L 613.133383 252.28288 
L 613.395346 237.307927 
L 613.657309 250.663665 
L 613.919272 248.932779 
L 614.181235 270.909443 
L 614.443198 270.909443 
L 614.705161 269.647572 
L 614.967124 268.966385 
L 615.753013 268.966385 
L 616.014976 260.122117 
L 616.538902 224.488206 
L 616.800865 213.834884 
L 617.062828 191.85822 
L 617.324791 190.239004 
L 617.586754 171.344433 
L 617.848717 185.102182 
L 618.11068 185.102182 
L 618.372643 192.360735 
L 618.634606 170.763749 
L 619.420496 170.763749 
L 619.682459 164.990407 
L 619.944422 169.736384 
L 620.206385 144.744628 
L 621.254237 144.744628 
L 621.5162 153.588896 
L 621.778163 144.320282 
L 622.564052 144.320282 
L 622.826015 121.528426 
L 623.349941 121.528426 
L 623.611904 130.79704 
L 623.873867 123.728326 
L 624.13583 123.627823 
L 624.397794 115.721584 
L 627.279387 115.721584 
L 627.54135 106.452971 
L 633.042574 106.452971 
L 633.304537 115.487077 
L 635.924168 115.487077 
L 636.186131 97.84321 
L 637.233983 97.84321 
L 637.495946 105.749449 
L 641.425392 105.749449 
L 641.687355 112.840497 
L 643.521096 112.941 
L 643.783059 120.646233 
L 644.306985 120.646233 
L 644.568948 129.56867 
L 645.092874 129.468166 
L 645.354837 129.468166 
L 645.6168 120.43406 
L 646.402689 120.43406 
L 646.664652 122.053276 
L 647.712505 122.053276 
L 647.974468 113.130839 
L 651.64195 113.130839 
L 651.903913 105.425606 
L 652.165876 105.425606 
L 652.427839 128.217462 
L 652.951766 128.317965 
L 653.213729 121.226917 
L 653.737655 121.126414 
L 653.999618 119.350861 
L 660.024768 119.350861 
L 660.286731 128.273297 
L 661.858509 128.273297 
L 662.120472 105.481441 
L 665.525992 105.481441 
L 665.787955 97.575202 
L 668.145622 97.575202 
L 668.407585 95.955986 
L 680.457885 95.955986 
L 680.719848 88.887273 
L 871.690909 88.887273 
L 871.690909 88.887273 
" style="fill:none;stroke:#8dd3c7;stroke-linecap:square;stroke-width:1.5;"/>
   </g>
   <g id="line2d_16">
    <path clip-path="url(#p0ac7f23116)" d="M 161.509091 180.356205 
L 617.324791 180.356205 
L 617.586754 171.344433 
L 618.372643 171.344433 
L 618.634606 170.763749 
L 619.420496 170.763749 
L 619.682459 164.990407 
L 619.944422 164.990407 
L 620.206385 144.744628 
L 621.5162 144.744628 
L 621.778163 144.320282 
L 622.564052 144.320282 
L 622.826015 121.528426 
L 624.13583 121.528426 
L 624.397794 115.721584 
L 627.279387 115.721584 
L 627.54135 106.452971 
L 635.924168 106.452971 
L 636.186131 97.84321 
L 665.525992 97.84321 
L 665.787955 97.575202 
L 668.145622 97.575202 
L 668.407585 95.955986 
L 680.457885 95.955986 
L 680.719848 88.887273 
L 871.690909 88.887273 
L 871.690909 88.887273 
" style="fill:none;stroke:#feffb3;stroke-linecap:square;stroke-width:1.5;"/>
   </g>
   <g id="line2d_17">
    <path clip-path="url(#p0ac7f23116)" d="M 161.509091 180.356205 
L 163.342832 180.356205 
L 163.604795 199.268382 
L 165.438537 199.268382 
L 165.7005 217.003533 
L 167.534241 217.003533 
L 167.796204 233.634913 
L 169.629945 233.634913 
L 169.891908 249.231216 
L 171.72565 249.231216 
L 171.987613 263.856861 
L 173.821354 263.856861 
L 174.083317 277.572258 
L 175.917058 277.572258 
L 176.179021 290.434059 
L 178.012763 290.434059 
L 178.274726 302.495388 
L 180.108467 302.495388 
L 180.37043 313.806064 
L 182.204172 313.806064 
L 182.466135 324.412803 
L 184.299876 324.412803 
L 184.561839 334.359418 
L 186.39558 334.359418 
L 186.657543 343.686991 
L 188.491285 343.686991 
L 188.753248 352.43405 
L 190.586989 352.43405 
L 190.848952 360.636724 
L 192.682693 360.636724 
L 192.944656 368.328892 
L 194.778398 368.328892 
L 195.040361 375.542328 
L 196.874102 375.542328 
L 197.136065 382.306826 
L 198.969807 382.306826 
L 199.23177 388.650326 
L 201.065511 388.650326 
L 201.327474 394.599029 
L 203.161215 394.599029 
L 203.423178 400.177507 
L 205.25692 400.177507 
L 205.518883 405.4088 
L 207.352624 405.4088 
L 207.614587 410.314517 
L 209.448328 410.314517 
L 209.710291 414.914919 
L 211.544033 414.914919 
L 211.805996 419.229009 
L 213.639737 419.229009 
L 213.9017 423.274605 
L 215.735441 423.274605 
L 215.997405 427.068419 
L 217.831146 427.068419 
L 218.093109 430.626119 
L 219.92685 430.626119 
L 220.188813 433.9624 
L 222.022555 433.9624 
L 222.284518 437.091044 
L 224.118259 437.091044 
L 224.380222 440.024972 
L 226.213963 440.024972 
L 226.475926 442.776303 
L 228.309668 442.776303 
L 228.571631 445.356401 
L 230.405372 445.356401 
L 230.667335 447.775923 
L 232.501076 447.775923 
L 232.763039 450.044863 
L 234.596781 450.044863 
L 234.858744 452.172592 
L 236.692485 452.172592 
L 236.954448 454.167899 
L 238.78819 454.167899 
L 239.050153 456.039025 
L 240.883894 456.039025 
L 241.145857 457.7937 
L 242.979598 457.7937 
L 243.241561 459.439169 
L 245.075303 459.439169 
L 245.337266 460.982231 
L 247.171007 460.982231 
L 247.43297 462.429258 
L 249.266711 462.429258 
L 249.528674 463.786227 
L 251.362416 463.786227 
L 251.624379 465.058743 
L 253.45812 465.058743 
L 253.720083 466.252063 
L 255.553824 466.252063 
L 255.815788 467.371114 
L 257.649529 467.371114 
L 257.911492 468.42052 
L 259.745233 468.42052 
L 260.007196 469.404615 
L 261.840938 469.404615 
L 262.102901 470.327463 
L 263.936642 470.327463 
L 264.198605 471.192876 
L 266.032346 471.192876 
L 266.294309 472.00443 
L 268.128051 472.00443 
L 268.390014 472.765475 
L 270.223755 472.765475 
L 270.485718 473.479155 
L 272.319459 473.479155 
L 272.581422 474.148418 
L 274.415164 474.148418 
L 274.677127 474.776029 
L 276.510868 474.776029 
L 276.772831 475.36458 
L 278.606573 475.36458 
L 278.868536 475.916502 
L 280.702277 475.916502 
L 280.96424 476.434073 
L 282.797981 476.434073 
L 283.059944 476.919433 
L 284.893686 476.919433 
L 285.155649 477.374586 
L 286.98939 477.374586 
L 287.251353 477.801412 
L 289.085094 477.801412 
L 289.347057 478.201674 
L 291.180799 478.201674 
L 291.442762 478.577025 
L 293.276503 478.577025 
L 293.538466 478.929016 
L 295.372208 478.929016 
L 295.634171 479.259099 
L 297.467912 479.259099 
L 297.729875 479.56864 
L 299.563616 479.56864 
L 299.825579 479.858916 
L 301.659321 479.858916 
L 301.921284 480.131126 
L 303.755025 480.131126 
L 304.016988 480.386395 
L 305.850729 480.386395 
L 306.112692 480.625777 
L 307.946434 480.625777 
L 308.208397 480.85026 
L 310.042138 480.85026 
L 310.304101 481.060773 
L 312.137842 481.060773 
L 312.399806 481.258184 
L 314.233547 481.258184 
L 314.49551 481.443309 
L 316.329251 481.443309 
L 316.591214 481.616912 
L 318.424956 481.616912 
L 318.686919 481.779711 
L 320.52066 481.779711 
L 320.782623 481.932378 
L 322.616364 481.932378 
L 322.878327 482.075543 
L 324.712069 482.075543 
L 324.974032 482.209799 
L 326.807773 482.209799 
L 327.069736 482.335698 
L 328.903477 482.335698 
L 329.427404 482.453763 
L 333.094886 482.564479 
L 333.618812 482.668305 
L 337.286295 482.765669 
L 337.810221 482.856973 
L 341.477704 482.942595 
L 342.00163 483.022888 
L 345.669112 483.098184 
L 346.193038 483.168794 
L 349.860521 483.23501 
L 350.384447 483.297104 
L 354.05193 483.355334 
L 354.837819 483.40994 
L 360.339043 483.509167 
L 361.124932 483.554199 
L 366.626156 483.636029 
L 367.674008 483.673166 
L 375.008974 483.771274 
L 376.056826 483.799993 
L 385.487495 483.898074 
L 387.059274 483.918902 
L 400.157426 484.019301 
L 402.777056 484.04504 
L 431.592992 484.151323 
L 438.142068 484.169773 
L 871.690909 484.232727 
L 871.690909 484.232727 
" style="fill:none;stroke:#bfbbd9;stroke-linecap:square;stroke-width:1.5;"/>
   </g>
   <g id="patch_3">
    <path d="M 126 504 
L 126 69.12 
" style="fill:none;stroke:#ffffff;stroke-linecap:square;stroke-linejoin:miter;stroke-width:0.8;"/>
   </g>
   <g id="patch_4">
    <path d="M 907.2 504 
L 907.2 69.12 
" style="fill:none;stroke:#ffffff;stroke-linecap:square;stroke-linejoin:miter;stroke-width:0.8;"/>
   </g>
   <g id="patch_5">
    <path d="M 126 504 
L 907.2 504 
" style="fill:none;stroke:#ffffff;stroke-linecap:square;stroke-linejoin:miter;stroke-width:0.8;"/>
   </g>
   <g id="patch_6">
    <path d="M 126 69.12 
L 907.2 69.12 
" style="fill:none;stroke:#ffffff;stroke-linecap:square;stroke-linejoin:miter;stroke-width:0.8;"/>
   </g>
   <g id="text_16">
    <!-- instance 7 with error 0.0008748659479596022 -->
    <g style="fill:#ffffff;" transform="translate(374.229375 63.12)scale(0.12 -0.12)">
     <defs>
      <path d="M 2834 3397 
L 2834 2853 
Q 2591 2978 2328 3040 
Q 2066 3103 1784 3103 
Q 1356 3103 1142 2972 
Q 928 2841 928 2578 
Q 928 2378 1081 2264 
Q 1234 2150 1697 2047 
L 1894 2003 
Q 2506 1872 2764 1633 
Q 3022 1394 3022 966 
Q 3022 478 2636 193 
Q 2250 -91 1575 -91 
Q 1294 -91 989 -36 
Q 684 19 347 128 
L 347 722 
Q 666 556 975 473 
Q 1284 391 1588 391 
Q 1994 391 2212 530 
Q 2431 669 2431 922 
Q 2431 1156 2273 1281 
Q 2116 1406 1581 1522 
L 1381 1569 
Q 847 1681 609 1914 
Q 372 2147 372 2553 
Q 372 3047 722 3315 
Q 1072 3584 1716 3584 
Q 2034 3584 2315 3537 
Q 2597 3491 2834 3397 
z
" id="DejaVuSans-73" transform="scale(0.015625)"/>
      <path d="M 3122 3366 
L 3122 2828 
Q 2878 2963 2633 3030 
Q 2388 3097 2138 3097 
Q 1578 3097 1268 2742 
Q 959 2388 959 1747 
Q 959 1106 1268 751 
Q 1578 397 2138 397 
Q 2388 397 2633 464 
Q 2878 531 3122 666 
L 3122 134 
Q 2881 22 2623 -34 
Q 2366 -91 2075 -91 
Q 1284 -91 818 406 
Q 353 903 353 1747 
Q 353 2603 823 3093 
Q 1294 3584 2113 3584 
Q 2378 3584 2631 3529 
Q 2884 3475 3122 3366 
z
" id="DejaVuSans-63" transform="scale(0.015625)"/>
      <path id="DejaVuSans-20" transform="scale(0.015625)"/>
      <path d="M 525 4666 
L 3525 4666 
L 3525 4397 
L 1831 0 
L 1172 0 
L 2766 4134 
L 525 4134 
L 525 4666 
z
" id="DejaVuSans-37" transform="scale(0.015625)"/>
      <path d="M 269 3500 
L 844 3500 
L 1563 769 
L 2278 3500 
L 2956 3500 
L 3675 769 
L 4391 3500 
L 4966 3500 
L 4050 0 
L 3372 0 
L 2619 2869 
L 1863 0 
L 1184 0 
L 269 3500 
z
" id="DejaVuSans-77" transform="scale(0.015625)"/>
      <path d="M 3513 2113 
L 3513 0 
L 2938 0 
L 2938 2094 
Q 2938 2591 2744 2837 
Q 2550 3084 2163 3084 
Q 1697 3084 1428 2787 
Q 1159 2491 1159 1978 
L 1159 0 
L 581 0 
L 581 4863 
L 1159 4863 
L 1159 2956 
Q 1366 3272 1645 3428 
Q 1925 3584 2291 3584 
Q 2894 3584 3203 3211 
Q 3513 2838 3513 2113 
z
" id="DejaVuSans-68" transform="scale(0.015625)"/>
      <path d="M 684 794 
L 1344 794 
L 1344 0 
L 684 0 
L 684 794 
z
" id="DejaVuSans-2e" transform="scale(0.015625)"/>
      <path d="M 2034 2216 
Q 1584 2216 1326 1975 
Q 1069 1734 1069 1313 
Q 1069 891 1326 650 
Q 1584 409 2034 409 
Q 2484 409 2743 651 
Q 3003 894 3003 1313 
Q 3003 1734 2745 1975 
Q 2488 2216 2034 2216 
z
M 1403 2484 
Q 997 2584 770 2862 
Q 544 3141 544 3541 
Q 544 4100 942 4425 
Q 1341 4750 2034 4750 
Q 2731 4750 3128 4425 
Q 3525 4100 3525 3541 
Q 3525 3141 3298 2862 
Q 3072 2584 2669 2484 
Q 3125 2378 3379 2068 
Q 3634 1759 3634 1313 
Q 3634 634 3220 271 
Q 2806 -91 2034 -91 
Q 1263 -91 848 271 
Q 434 634 434 1313 
Q 434 1759 690 2068 
Q 947 2378 1403 2484 
z
M 1172 3481 
Q 1172 3119 1398 2916 
Q 1625 2713 2034 2713 
Q 2441 2713 2670 2916 
Q 2900 3119 2900 3481 
Q 2900 3844 2670 4047 
Q 2441 4250 2034 4250 
Q 1625 4250 1398 4047 
Q 1172 3844 1172 3481 
z
" id="DejaVuSans-38" transform="scale(0.015625)"/>
      <path d="M 2419 4116 
L 825 1625 
L 2419 1625 
L 2419 4116 
z
M 2253 4666 
L 3047 4666 
L 3047 1625 
L 3713 1625 
L 3713 1100 
L 3047 1100 
L 3047 0 
L 2419 0 
L 2419 1100 
L 313 1100 
L 313 1709 
L 2253 4666 
z
" id="DejaVuSans-34" transform="scale(0.015625)"/>
      <path d="M 2113 2584 
Q 1688 2584 1439 2293 
Q 1191 2003 1191 1497 
Q 1191 994 1439 701 
Q 1688 409 2113 409 
Q 2538 409 2786 701 
Q 3034 994 3034 1497 
Q 3034 2003 2786 2293 
Q 2538 2584 2113 2584 
z
M 3366 4563 
L 3366 3988 
Q 3128 4100 2886 4159 
Q 2644 4219 2406 4219 
Q 1781 4219 1451 3797 
Q 1122 3375 1075 2522 
Q 1259 2794 1537 2939 
Q 1816 3084 2150 3084 
Q 2853 3084 3261 2657 
Q 3669 2231 3669 1497 
Q 3669 778 3244 343 
Q 2819 -91 2113 -91 
Q 1303 -91 875 529 
Q 447 1150 447 2328 
Q 447 3434 972 4092 
Q 1497 4750 2381 4750 
Q 2619 4750 2861 4703 
Q 3103 4656 3366 4563 
z
" id="DejaVuSans-36" transform="scale(0.015625)"/>
      <path d="M 703 97 
L 703 672 
Q 941 559 1184 500 
Q 1428 441 1663 441 
Q 2288 441 2617 861 
Q 2947 1281 2994 2138 
Q 2813 1869 2534 1725 
Q 2256 1581 1919 1581 
Q 1219 1581 811 2004 
Q 403 2428 403 3163 
Q 403 3881 828 4315 
Q 1253 4750 1959 4750 
Q 2769 4750 3195 4129 
Q 3622 3509 3622 2328 
Q 3622 1225 3098 567 
Q 2575 -91 1691 -91 
Q 1453 -91 1209 -44 
Q 966 3 703 97 
z
M 1959 2075 
Q 2384 2075 2632 2365 
Q 2881 2656 2881 3163 
Q 2881 3666 2632 3958 
Q 2384 4250 1959 4250 
Q 1534 4250 1286 3958 
Q 1038 3666 1038 3163 
Q 1038 2656 1286 2365 
Q 1534 2075 1959 2075 
z
" id="DejaVuSans-39" transform="scale(0.015625)"/>
     </defs>
     <use xlink:href="#DejaVuSans-69"/>
     <use x="27.783203" xlink:href="#DejaVuSans-6e"/>
     <use x="91.162109" xlink:href="#DejaVuSans-73"/>
     <use x="143.261719" xlink:href="#DejaVuSans-74"/>
     <use x="182.470703" xlink:href="#DejaVuSans-61"/>
     <use x="243.75" xlink:href="#DejaVuSans-6e"/>
     <use x="307.128906" xlink:href="#DejaVuSans-63"/>
     <use x="362.109375" xlink:href="#DejaVuSans-65"/>
     <use x="423.632812" xlink:href="#DejaVuSans-20"/>
     <use x="455.419922" xlink:href="#DejaVuSans-37"/>
     <use x="519.042969" xlink:href="#DejaVuSans-20"/>
     <use x="550.830078" xlink:href="#DejaVuSans-77"/>
     <use x="632.617188" xlink:href="#DejaVuSans-69"/>
     <use x="660.400391" xlink:href="#DejaVuSans-74"/>
     <use x="699.609375" xlink:href="#DejaVuSans-68"/>
     <use x="762.988281" xlink:href="#DejaVuSans-20"/>
     <use x="794.775391" xlink:href="#DejaVuSans-65"/>
     <use x="856.298828" xlink:href="#DejaVuSans-72"/>
     <use x="895.662109" xlink:href="#DejaVuSans-72"/>
     <use x="934.525391" xlink:href="#DejaVuSans-6f"/>
     <use x="995.707031" xlink:href="#DejaVuSans-72"/>
     <use x="1036.820312" xlink:href="#DejaVuSans-20"/>
     <use x="1068.607422" xlink:href="#DejaVuSans-30"/>
     <use x="1132.230469" xlink:href="#DejaVuSans-2e"/>
     <use x="1164.017578" xlink:href="#DejaVuSans-30"/>
     <use x="1227.640625" xlink:href="#DejaVuSans-30"/>
     <use x="1291.263672" xlink:href="#DejaVuSans-30"/>
     <use x="1354.886719" xlink:href="#DejaVuSans-38"/>
     <use x="1418.509766" xlink:href="#DejaVuSans-37"/>
     <use x="1482.132812" xlink:href="#DejaVuSans-34"/>
     <use x="1545.755859" xlink:href="#DejaVuSans-38"/>
     <use x="1609.378906" xlink:href="#DejaVuSans-36"/>
     <use x="1673.001953" xlink:href="#DejaVuSans-35"/>
     <use x="1736.625" xlink:href="#DejaVuSans-39"/>
     <use x="1800.248047" xlink:href="#DejaVuSans-34"/>
     <use x="1863.871094" xlink:href="#DejaVuSans-37"/>
     <use x="1927.494141" xlink:href="#DejaVuSans-39"/>
     <use x="1991.117188" xlink:href="#DejaVuSans-35"/>
     <use x="2054.740234" xlink:href="#DejaVuSans-39"/>
     <use x="2118.363281" xlink:href="#DejaVuSans-36"/>
     <use x="2181.986328" xlink:href="#DejaVuSans-30"/>
     <use x="2245.609375" xlink:href="#DejaVuSans-32"/>
     <use x="2309.232422" xlink:href="#DejaVuSans-32"/>
    </g>
   </g>
   <g id="legend_1">
    <g id="patch_7">
     <path d="M 805.348438 499 
L 900.2 499 
Q 902.2 499 902.2 497 
L 902.2 453.965625 
Q 902.2 451.965625 900.2 451.965625 
L 805.348438 451.965625 
Q 803.348438 451.965625 803.348438 453.965625 
L 803.348438 497 
Q 803.348438 499 805.348438 499 
z
" style="opacity:0.8;stroke:#cccccc;stroke-linejoin:miter;"/>
    </g>
    <g id="line2d_18">
     <path d="M 807.348438 460.064062 
L 827.348438 460.064062 
" style="fill:none;stroke:#8dd3c7;stroke-linecap:square;stroke-width:1.5;"/>
    </g>
    <g id="line2d_19"/>
    <g id="text_17">
     <!-- cost -->
     <g style="fill:#ffffff;" transform="translate(835.348438 463.564062)scale(0.1 -0.1)">
      <use xlink:href="#DejaVuSans-63"/>
      <use x="54.980469" xlink:href="#DejaVuSans-6f"/>
      <use x="116.162109" xlink:href="#DejaVuSans-73"/>
      <use x="168.261719" xlink:href="#DejaVuSans-74"/>
     </g>
    </g>
    <g id="line2d_20">
     <path d="M 807.348438 474.742188 
L 827.348438 474.742188 
" style="fill:none;stroke:#feffb3;stroke-linecap:square;stroke-width:1.5;"/>
    </g>
    <g id="line2d_21"/>
    <g id="text_18">
     <!-- best cost -->
     <g style="fill:#ffffff;" transform="translate(835.348438 478.242188)scale(0.1 -0.1)">
      <defs>
       <path d="M 3116 1747 
Q 3116 2381 2855 2742 
Q 2594 3103 2138 3103 
Q 1681 3103 1420 2742 
Q 1159 2381 1159 1747 
Q 1159 1113 1420 752 
Q 1681 391 2138 391 
Q 2594 391 2855 752 
Q 3116 1113 3116 1747 
z
M 1159 2969 
Q 1341 3281 1617 3432 
Q 1894 3584 2278 3584 
Q 2916 3584 3314 3078 
Q 3713 2572 3713 1747 
Q 3713 922 3314 415 
Q 2916 -91 2278 -91 
Q 1894 -91 1617 61 
Q 1341 213 1159 525 
L 1159 0 
L 581 0 
L 581 4863 
L 1159 4863 
L 1159 2969 
z
" id="DejaVuSans-62" transform="scale(0.015625)"/>
      </defs>
      <use xlink:href="#DejaVuSans-62"/>
      <use x="63.476562" xlink:href="#DejaVuSans-65"/>
      <use x="125" xlink:href="#DejaVuSans-73"/>
      <use x="177.099609" xlink:href="#DejaVuSans-74"/>
      <use x="216.308594" xlink:href="#DejaVuSans-20"/>
      <use x="248.095703" xlink:href="#DejaVuSans-63"/>
      <use x="303.076172" xlink:href="#DejaVuSans-6f"/>
      <use x="364.257812" xlink:href="#DejaVuSans-73"/>
      <use x="416.357422" xlink:href="#DejaVuSans-74"/>
     </g>
    </g>
    <g id="line2d_22">
     <path d="M 807.348438 489.420313 
L 827.348438 489.420313 
" style="fill:none;stroke:#bfbbd9;stroke-linecap:square;stroke-width:1.5;"/>
    </g>
    <g id="line2d_23"/>
    <g id="text_19">
     <!-- temperature -->
     <g style="fill:#ffffff;" transform="translate(835.348438 492.920313)scale(0.1 -0.1)">
      <defs>
       <path d="M 3328 2828 
Q 3544 3216 3844 3400 
Q 4144 3584 4550 3584 
Q 5097 3584 5394 3201 
Q 5691 2819 5691 2113 
L 5691 0 
L 5113 0 
L 5113 2094 
Q 5113 2597 4934 2840 
Q 4756 3084 4391 3084 
Q 3944 3084 3684 2787 
Q 3425 2491 3425 1978 
L 3425 0 
L 2847 0 
L 2847 2094 
Q 2847 2600 2669 2842 
Q 2491 3084 2119 3084 
Q 1678 3084 1418 2786 
Q 1159 2488 1159 1978 
L 1159 0 
L 581 0 
L 581 3500 
L 1159 3500 
L 1159 2956 
Q 1356 3278 1631 3431 
Q 1906 3584 2284 3584 
Q 2666 3584 2933 3390 
Q 3200 3197 3328 2828 
z
" id="DejaVuSans-6d" transform="scale(0.015625)"/>
       <path d="M 1159 525 
L 1159 -1331 
L 581 -1331 
L 581 3500 
L 1159 3500 
L 1159 2969 
Q 1341 3281 1617 3432 
Q 1894 3584 2278 3584 
Q 2916 3584 3314 3078 
Q 3713 2572 3713 1747 
Q 3713 922 3314 415 
Q 2916 -91 2278 -91 
Q 1894 -91 1617 61 
Q 1341 213 1159 525 
z
M 3116 1747 
Q 3116 2381 2855 2742 
Q 2594 3103 2138 3103 
Q 1681 3103 1420 2742 
Q 1159 2381 1159 1747 
Q 1159 1113 1420 752 
Q 1681 391 2138 391 
Q 2594 391 2855 752 
Q 3116 1113 3116 1747 
z
" id="DejaVuSans-70" transform="scale(0.015625)"/>
       <path d="M 544 1381 
L 544 3500 
L 1119 3500 
L 1119 1403 
Q 1119 906 1312 657 
Q 1506 409 1894 409 
Q 2359 409 2629 706 
Q 2900 1003 2900 1516 
L 2900 3500 
L 3475 3500 
L 3475 0 
L 2900 0 
L 2900 538 
Q 2691 219 2414 64 
Q 2138 -91 1772 -91 
Q 1169 -91 856 284 
Q 544 659 544 1381 
z
M 1991 3584 
L 1991 3584 
z
" id="DejaVuSans-75" transform="scale(0.015625)"/>
      </defs>
      <use xlink:href="#DejaVuSans-74"/>
      <use x="39.208984" xlink:href="#DejaVuSans-65"/>
      <use x="100.732422" xlink:href="#DejaVuSans-6d"/>
      <use x="198.144531" xlink:href="#DejaVuSans-70"/>
      <use x="261.621094" xlink:href="#DejaVuSans-65"/>
      <use x="323.144531" xlink:href="#DejaVuSans-72"/>
      <use x="364.257812" xlink:href="#DejaVuSans-61"/>
      <use x="425.537109" xlink:href="#DejaVuSans-74"/>
      <use x="464.746094" xlink:href="#DejaVuSans-75"/>
      <use x="528.125" xlink:href="#DejaVuSans-72"/>
      <use x="566.988281" xlink:href="#DejaVuSans-65"/>
     </g>
    </g>
   </g>
  </g>
 </g>
 <defs>
  <clipPath id="p0ac7f23116">
   <rect height="434.88" width="781.2" x="126" y="69.12"/>
  </clipPath>
 </defs>
</svg>
