<?xml version="1.0" encoding="utf-8" standalone="no"?>
<!DOCTYPE svg PUBLIC "-//W3C//DTD SVG 1.1//EN"
  "http://www.w3.org/Graphics/SVG/1.1/DTD/svg11.dtd">
<svg height="576pt" version="1.1" viewBox="0 0 1008 576" width="1008pt" xmlns="http://www.w3.org/2000/svg" xmlns:xlink="http://www.w3.org/1999/xlink">
 <metadata>
  <rdf:RDF xmlns:cc="http://creativecommons.org/ns#" xmlns:dc="http://purl.org/dc/elements/1.1/" xmlns:rdf="http://www.w3.org/1999/02/22-rdf-syntax-ns#">
   <cc:Work>
    <dc:type rdf:resource="http://purl.org/dc/dcmitype/StillImage"/>
    <dc:date>2022-01-13T19:10:48.991175</dc:date>
    <dc:format>image/svg+xml</dc:format>
    <dc:creator>
     <cc:Agent>
      <dc:title>Matplotlib v3.4.3, https://matplotlib.org/</dc:title>
     </cc:Agent>
    </dc:creator>
   </cc:Work>
  </rdf:RDF>
 </metadata>
 <defs>
  <style type="text/css">*{stroke-linecap:butt;stroke-linejoin:round;}</style>
 </defs>
 <g id="figure_1">
  <g id="patch_1">
   <path d="M 0 576 
L 1008 576 
L 1008 0 
L 0 0 
z
"/>
  </g>
  <g id="axes_1">
   <g id="patch_2">
    <path d="M 126 504 
L 907.2 504 
L 907.2 69.12 
L 126 69.12 
z
"/>
   </g>
   <g id="matplotlib.axis_1">
    <g id="xtick_1">
     <g id="line2d_1">
      <defs>
       <path d="M 0 0 
L 0 3.5 
" id="m40ef1595d0" style="stroke:#ffffff;stroke-width:0.8;"/>
      </defs>
      <g>
       <use style="fill:#ffffff;stroke:#ffffff;stroke-width:0.8;" x="161.509091" xlink:href="#m40ef1595d0" y="504"/>
      </g>
     </g>
     <g id="text_1">
      <!-- 0 -->
      <g style="fill:#ffffff;" transform="translate(158.327841 518.598438)scale(0.1 -0.1)">
       <defs>
        <path d="M 2034 4250 
Q 1547 4250 1301 3770 
Q 1056 3291 1056 2328 
Q 1056 1369 1301 889 
Q 1547 409 2034 409 
Q 2525 409 2770 889 
Q 3016 1369 3016 2328 
Q 3016 3291 2770 3770 
Q 2525 4250 2034 4250 
z
M 2034 4750 
Q 2819 4750 3233 4129 
Q 3647 3509 3647 2328 
Q 3647 1150 3233 529 
Q 2819 -91 2034 -91 
Q 1250 -91 836 529 
Q 422 1150 422 2328 
Q 422 3509 836 4129 
Q 1250 4750 2034 4750 
z
" id="DejaVuSans-30" transform="scale(0.015625)"/>
       </defs>
       <use xlink:href="#DejaVuSans-30"/>
      </g>
     </g>
    </g>
    <g id="xtick_2">
     <g id="line2d_2">
      <g>
       <use style="fill:#ffffff;stroke:#ffffff;stroke-width:0.8;" x="297.065842" xlink:href="#m40ef1595d0" y="504"/>
      </g>
     </g>
     <g id="text_2">
      <!-- 1000 -->
      <g style="fill:#ffffff;" transform="translate(284.340842 518.598438)scale(0.1 -0.1)">
       <defs>
        <path d="M 794 531 
L 1825 531 
L 1825 4091 
L 703 3866 
L 703 4441 
L 1819 4666 
L 2450 4666 
L 2450 531 
L 3481 531 
L 3481 0 
L 794 0 
L 794 531 
z
" id="DejaVuSans-31" transform="scale(0.015625)"/>
       </defs>
       <use xlink:href="#DejaVuSans-31"/>
       <use x="63.623047" xlink:href="#DejaVuSans-30"/>
       <use x="127.246094" xlink:href="#DejaVuSans-30"/>
       <use x="190.869141" xlink:href="#DejaVuSans-30"/>
      </g>
     </g>
    </g>
    <g id="xtick_3">
     <g id="line2d_3">
      <g>
       <use style="fill:#ffffff;stroke:#ffffff;stroke-width:0.8;" x="432.622593" xlink:href="#m40ef1595d0" y="504"/>
      </g>
     </g>
     <g id="text_3">
      <!-- 2000 -->
      <g style="fill:#ffffff;" transform="translate(419.897593 518.598438)scale(0.1 -0.1)">
       <defs>
        <path d="M 1228 531 
L 3431 531 
L 3431 0 
L 469 0 
L 469 531 
Q 828 903 1448 1529 
Q 2069 2156 2228 2338 
Q 2531 2678 2651 2914 
Q 2772 3150 2772 3378 
Q 2772 3750 2511 3984 
Q 2250 4219 1831 4219 
Q 1534 4219 1204 4116 
Q 875 4013 500 3803 
L 500 4441 
Q 881 4594 1212 4672 
Q 1544 4750 1819 4750 
Q 2544 4750 2975 4387 
Q 3406 4025 3406 3419 
Q 3406 3131 3298 2873 
Q 3191 2616 2906 2266 
Q 2828 2175 2409 1742 
Q 1991 1309 1228 531 
z
" id="DejaVuSans-32" transform="scale(0.015625)"/>
       </defs>
       <use xlink:href="#DejaVuSans-32"/>
       <use x="63.623047" xlink:href="#DejaVuSans-30"/>
       <use x="127.246094" xlink:href="#DejaVuSans-30"/>
       <use x="190.869141" xlink:href="#DejaVuSans-30"/>
      </g>
     </g>
    </g>
    <g id="xtick_4">
     <g id="line2d_4">
      <g>
       <use style="fill:#ffffff;stroke:#ffffff;stroke-width:0.8;" x="568.179344" xlink:href="#m40ef1595d0" y="504"/>
      </g>
     </g>
     <g id="text_4">
      <!-- 3000 -->
      <g style="fill:#ffffff;" transform="translate(555.454344 518.598438)scale(0.1 -0.1)">
       <defs>
        <path d="M 2597 2516 
Q 3050 2419 3304 2112 
Q 3559 1806 3559 1356 
Q 3559 666 3084 287 
Q 2609 -91 1734 -91 
Q 1441 -91 1130 -33 
Q 819 25 488 141 
L 488 750 
Q 750 597 1062 519 
Q 1375 441 1716 441 
Q 2309 441 2620 675 
Q 2931 909 2931 1356 
Q 2931 1769 2642 2001 
Q 2353 2234 1838 2234 
L 1294 2234 
L 1294 2753 
L 1863 2753 
Q 2328 2753 2575 2939 
Q 2822 3125 2822 3475 
Q 2822 3834 2567 4026 
Q 2313 4219 1838 4219 
Q 1578 4219 1281 4162 
Q 984 4106 628 3988 
L 628 4550 
Q 988 4650 1302 4700 
Q 1616 4750 1894 4750 
Q 2613 4750 3031 4423 
Q 3450 4097 3450 3541 
Q 3450 3153 3228 2886 
Q 3006 2619 2597 2516 
z
" id="DejaVuSans-33" transform="scale(0.015625)"/>
       </defs>
       <use xlink:href="#DejaVuSans-33"/>
       <use x="63.623047" xlink:href="#DejaVuSans-30"/>
       <use x="127.246094" xlink:href="#DejaVuSans-30"/>
       <use x="190.869141" xlink:href="#DejaVuSans-30"/>
      </g>
     </g>
    </g>
    <g id="xtick_5">
     <g id="line2d_5">
      <g>
       <use style="fill:#ffffff;stroke:#ffffff;stroke-width:0.8;" x="703.736095" xlink:href="#m40ef1595d0" y="504"/>
      </g>
     </g>
     <g id="text_5">
      <!-- 4000 -->
      <g style="fill:#ffffff;" transform="translate(691.011095 518.598438)scale(0.1 -0.1)">
       <defs>
        <path d="M 2419 4116 
L 825 1625 
L 2419 1625 
L 2419 4116 
z
M 2253 4666 
L 3047 4666 
L 3047 1625 
L 3713 1625 
L 3713 1100 
L 3047 1100 
L 3047 0 
L 2419 0 
L 2419 1100 
L 313 1100 
L 313 1709 
L 2253 4666 
z
" id="DejaVuSans-34" transform="scale(0.015625)"/>
       </defs>
       <use xlink:href="#DejaVuSans-34"/>
       <use x="63.623047" xlink:href="#DejaVuSans-30"/>
       <use x="127.246094" xlink:href="#DejaVuSans-30"/>
       <use x="190.869141" xlink:href="#DejaVuSans-30"/>
      </g>
     </g>
    </g>
    <g id="xtick_6">
     <g id="line2d_6">
      <g>
       <use style="fill:#ffffff;stroke:#ffffff;stroke-width:0.8;" x="839.292846" xlink:href="#m40ef1595d0" y="504"/>
      </g>
     </g>
     <g id="text_6">
      <!-- 5000 -->
      <g style="fill:#ffffff;" transform="translate(826.567846 518.598438)scale(0.1 -0.1)">
       <defs>
        <path d="M 691 4666 
L 3169 4666 
L 3169 4134 
L 1269 4134 
L 1269 2991 
Q 1406 3038 1543 3061 
Q 1681 3084 1819 3084 
Q 2600 3084 3056 2656 
Q 3513 2228 3513 1497 
Q 3513 744 3044 326 
Q 2575 -91 1722 -91 
Q 1428 -91 1123 -41 
Q 819 9 494 109 
L 494 744 
Q 775 591 1075 516 
Q 1375 441 1709 441 
Q 2250 441 2565 725 
Q 2881 1009 2881 1497 
Q 2881 1984 2565 2268 
Q 2250 2553 1709 2553 
Q 1456 2553 1204 2497 
Q 953 2441 691 2322 
L 691 4666 
z
" id="DejaVuSans-35" transform="scale(0.015625)"/>
       </defs>
       <use xlink:href="#DejaVuSans-35"/>
       <use x="63.623047" xlink:href="#DejaVuSans-30"/>
       <use x="127.246094" xlink:href="#DejaVuSans-30"/>
       <use x="190.869141" xlink:href="#DejaVuSans-30"/>
      </g>
     </g>
    </g>
    <g id="text_7">
     <!-- iteration -->
     <g style="fill:#ffffff;" transform="translate(495.477344 532.276562)scale(0.1 -0.1)">
      <defs>
       <path d="M 603 3500 
L 1178 3500 
L 1178 0 
L 603 0 
L 603 3500 
z
M 603 4863 
L 1178 4863 
L 1178 4134 
L 603 4134 
L 603 4863 
z
" id="DejaVuSans-69" transform="scale(0.015625)"/>
       <path d="M 1172 4494 
L 1172 3500 
L 2356 3500 
L 2356 3053 
L 1172 3053 
L 1172 1153 
Q 1172 725 1289 603 
Q 1406 481 1766 481 
L 2356 481 
L 2356 0 
L 1766 0 
Q 1100 0 847 248 
Q 594 497 594 1153 
L 594 3053 
L 172 3053 
L 172 3500 
L 594 3500 
L 594 4494 
L 1172 4494 
z
" id="DejaVuSans-74" transform="scale(0.015625)"/>
       <path d="M 3597 1894 
L 3597 1613 
L 953 1613 
Q 991 1019 1311 708 
Q 1631 397 2203 397 
Q 2534 397 2845 478 
Q 3156 559 3463 722 
L 3463 178 
Q 3153 47 2828 -22 
Q 2503 -91 2169 -91 
Q 1331 -91 842 396 
Q 353 884 353 1716 
Q 353 2575 817 3079 
Q 1281 3584 2069 3584 
Q 2775 3584 3186 3129 
Q 3597 2675 3597 1894 
z
M 3022 2063 
Q 3016 2534 2758 2815 
Q 2500 3097 2075 3097 
Q 1594 3097 1305 2825 
Q 1016 2553 972 2059 
L 3022 2063 
z
" id="DejaVuSans-65" transform="scale(0.015625)"/>
       <path d="M 2631 2963 
Q 2534 3019 2420 3045 
Q 2306 3072 2169 3072 
Q 1681 3072 1420 2755 
Q 1159 2438 1159 1844 
L 1159 0 
L 581 0 
L 581 3500 
L 1159 3500 
L 1159 2956 
Q 1341 3275 1631 3429 
Q 1922 3584 2338 3584 
Q 2397 3584 2469 3576 
Q 2541 3569 2628 3553 
L 2631 2963 
z
" id="DejaVuSans-72" transform="scale(0.015625)"/>
       <path d="M 2194 1759 
Q 1497 1759 1228 1600 
Q 959 1441 959 1056 
Q 959 750 1161 570 
Q 1363 391 1709 391 
Q 2188 391 2477 730 
Q 2766 1069 2766 1631 
L 2766 1759 
L 2194 1759 
z
M 3341 1997 
L 3341 0 
L 2766 0 
L 2766 531 
Q 2569 213 2275 61 
Q 1981 -91 1556 -91 
Q 1019 -91 701 211 
Q 384 513 384 1019 
Q 384 1609 779 1909 
Q 1175 2209 1959 2209 
L 2766 2209 
L 2766 2266 
Q 2766 2663 2505 2880 
Q 2244 3097 1772 3097 
Q 1472 3097 1187 3025 
Q 903 2953 641 2809 
L 641 3341 
Q 956 3463 1253 3523 
Q 1550 3584 1831 3584 
Q 2591 3584 2966 3190 
Q 3341 2797 3341 1997 
z
" id="DejaVuSans-61" transform="scale(0.015625)"/>
       <path d="M 1959 3097 
Q 1497 3097 1228 2736 
Q 959 2375 959 1747 
Q 959 1119 1226 758 
Q 1494 397 1959 397 
Q 2419 397 2687 759 
Q 2956 1122 2956 1747 
Q 2956 2369 2687 2733 
Q 2419 3097 1959 3097 
z
M 1959 3584 
Q 2709 3584 3137 3096 
Q 3566 2609 3566 1747 
Q 3566 888 3137 398 
Q 2709 -91 1959 -91 
Q 1206 -91 779 398 
Q 353 888 353 1747 
Q 353 2609 779 3096 
Q 1206 3584 1959 3584 
z
" id="DejaVuSans-6f" transform="scale(0.015625)"/>
       <path d="M 3513 2113 
L 3513 0 
L 2938 0 
L 2938 2094 
Q 2938 2591 2744 2837 
Q 2550 3084 2163 3084 
Q 1697 3084 1428 2787 
Q 1159 2491 1159 1978 
L 1159 0 
L 581 0 
L 581 3500 
L 1159 3500 
L 1159 2956 
Q 1366 3272 1645 3428 
Q 1925 3584 2291 3584 
Q 2894 3584 3203 3211 
Q 3513 2838 3513 2113 
z
" id="DejaVuSans-6e" transform="scale(0.015625)"/>
      </defs>
      <use xlink:href="#DejaVuSans-69"/>
      <use x="27.783203" xlink:href="#DejaVuSans-74"/>
      <use x="66.992188" xlink:href="#DejaVuSans-65"/>
      <use x="128.515625" xlink:href="#DejaVuSans-72"/>
      <use x="169.628906" xlink:href="#DejaVuSans-61"/>
      <use x="230.908203" xlink:href="#DejaVuSans-74"/>
      <use x="270.117188" xlink:href="#DejaVuSans-69"/>
      <use x="297.900391" xlink:href="#DejaVuSans-6f"/>
      <use x="359.082031" xlink:href="#DejaVuSans-6e"/>
     </g>
    </g>
   </g>
   <g id="matplotlib.axis_2">
    <g id="ytick_1">
     <g id="line2d_7">
      <defs>
       <path d="M 0 0 
L -3.5 0 
" id="ma03ba72a6f" style="stroke:#ffffff;stroke-width:0.8;"/>
      </defs>
      <g>
       <use style="fill:#ffffff;stroke:#ffffff;stroke-width:0.8;" x="126" xlink:href="#ma03ba72a6f" y="484.232727"/>
      </g>
     </g>
     <g id="text_8">
      <!-- 0 -->
      <g style="fill:#ffffff;" transform="translate(112.6375 488.031946)scale(0.1 -0.1)">
       <use xlink:href="#DejaVuSans-30"/>
      </g>
     </g>
    </g>
    <g id="ytick_2">
     <g id="line2d_8">
      <g>
       <use style="fill:#ffffff;stroke:#ffffff;stroke-width:0.8;" x="126" xlink:href="#ma03ba72a6f" y="419.485683"/>
      </g>
     </g>
     <g id="text_9">
      <!-- 5000 -->
      <g style="fill:#ffffff;" transform="translate(93.55 423.284901)scale(0.1 -0.1)">
       <use xlink:href="#DejaVuSans-35"/>
       <use x="63.623047" xlink:href="#DejaVuSans-30"/>
       <use x="127.246094" xlink:href="#DejaVuSans-30"/>
       <use x="190.869141" xlink:href="#DejaVuSans-30"/>
      </g>
     </g>
    </g>
    <g id="ytick_3">
     <g id="line2d_9">
      <g>
       <use style="fill:#ffffff;stroke:#ffffff;stroke-width:0.8;" x="126" xlink:href="#ma03ba72a6f" y="354.738638"/>
      </g>
     </g>
     <g id="text_10">
      <!-- 10000 -->
      <g style="fill:#ffffff;" transform="translate(87.1875 358.537857)scale(0.1 -0.1)">
       <use xlink:href="#DejaVuSans-31"/>
       <use x="63.623047" xlink:href="#DejaVuSans-30"/>
       <use x="127.246094" xlink:href="#DejaVuSans-30"/>
       <use x="190.869141" xlink:href="#DejaVuSans-30"/>
       <use x="254.492188" xlink:href="#DejaVuSans-30"/>
      </g>
     </g>
    </g>
    <g id="ytick_4">
     <g id="line2d_10">
      <g>
       <use style="fill:#ffffff;stroke:#ffffff;stroke-width:0.8;" x="126" xlink:href="#ma03ba72a6f" y="289.991593"/>
      </g>
     </g>
     <g id="text_11">
      <!-- 15000 -->
      <g style="fill:#ffffff;" transform="translate(87.1875 293.790812)scale(0.1 -0.1)">
       <use xlink:href="#DejaVuSans-31"/>
       <use x="63.623047" xlink:href="#DejaVuSans-35"/>
       <use x="127.246094" xlink:href="#DejaVuSans-30"/>
       <use x="190.869141" xlink:href="#DejaVuSans-30"/>
       <use x="254.492188" xlink:href="#DejaVuSans-30"/>
      </g>
     </g>
    </g>
    <g id="ytick_5">
     <g id="line2d_11">
      <g>
       <use style="fill:#ffffff;stroke:#ffffff;stroke-width:0.8;" x="126" xlink:href="#ma03ba72a6f" y="225.244549"/>
      </g>
     </g>
     <g id="text_12">
      <!-- 20000 -->
      <g style="fill:#ffffff;" transform="translate(87.1875 229.043768)scale(0.1 -0.1)">
       <use xlink:href="#DejaVuSans-32"/>
       <use x="63.623047" xlink:href="#DejaVuSans-30"/>
       <use x="127.246094" xlink:href="#DejaVuSans-30"/>
       <use x="190.869141" xlink:href="#DejaVuSans-30"/>
       <use x="254.492188" xlink:href="#DejaVuSans-30"/>
      </g>
     </g>
    </g>
    <g id="ytick_6">
     <g id="line2d_12">
      <g>
       <use style="fill:#ffffff;stroke:#ffffff;stroke-width:0.8;" x="126" xlink:href="#ma03ba72a6f" y="160.497504"/>
      </g>
     </g>
     <g id="text_13">
      <!-- 25000 -->
      <g style="fill:#ffffff;" transform="translate(87.1875 164.296723)scale(0.1 -0.1)">
       <use xlink:href="#DejaVuSans-32"/>
       <use x="63.623047" xlink:href="#DejaVuSans-35"/>
       <use x="127.246094" xlink:href="#DejaVuSans-30"/>
       <use x="190.869141" xlink:href="#DejaVuSans-30"/>
       <use x="254.492188" xlink:href="#DejaVuSans-30"/>
      </g>
     </g>
    </g>
    <g id="ytick_7">
     <g id="line2d_13">
      <g>
       <use style="fill:#ffffff;stroke:#ffffff;stroke-width:0.8;" x="126" xlink:href="#ma03ba72a6f" y="95.750459"/>
      </g>
     </g>
     <g id="text_14">
      <!-- 30000 -->
      <g style="fill:#ffffff;" transform="translate(87.1875 99.549678)scale(0.1 -0.1)">
       <use xlink:href="#DejaVuSans-33"/>
       <use x="63.623047" xlink:href="#DejaVuSans-30"/>
       <use x="127.246094" xlink:href="#DejaVuSans-30"/>
       <use x="190.869141" xlink:href="#DejaVuSans-30"/>
       <use x="254.492188" xlink:href="#DejaVuSans-30"/>
      </g>
     </g>
    </g>
   </g>
   <g id="line2d_14">
    <path clip-path="url(#pc1210df9f9)" d="M 161.509091 243.555013 
L 161.644648 263.34171 
L 161.780204 263.937383 
L 162.051318 329.021112 
L 162.322431 279.411926 
L 162.457988 347.227981 
L 162.593545 344.469757 
L 162.729102 349.144493 
L 162.864658 333.100176 
L 163.000215 303.847461 
L 163.135772 328.684427 
L 163.271329 329.927571 
L 163.542442 291.506674 
L 163.949112 345.687001 
L 164.084669 331.4815 
L 164.220226 359.866604 
L 164.491339 305.103554 
L 164.626896 307.538043 
L 164.762453 297.243262 
L 164.89801 298.887837 
L 165.169123 354.673891 
L 165.30468 341.32305 
L 165.575793 282.299645 
L 165.71135 310.296267 
L 165.846907 286.883735 
L 166.11802 312.64011 
L 166.253577 300.480615 
L 166.389134 323.893146 
L 166.524691 321.458657 
L 166.660247 323.893146 
L 166.795804 294.88647 
L 166.931361 321.264416 
L 167.066918 313.72786 
L 167.202474 315.359486 
L 167.338031 285.109666 
L 167.473588 287.362863 
L 167.609145 297.657644 
L 167.880258 261.192108 
L 168.015815 258.938911 
L 168.151372 252.464206 
L 168.286928 252.464206 
L 168.422485 287.608902 
L 168.558042 279.852206 
L 168.829155 315.03575 
L 169.100269 280.616221 
L 169.235826 303.614372 
L 169.371382 272.587588 
L 169.506939 277.275274 
L 169.642496 263.069772 
L 170.184723 345.117227 
L 170.455836 378.78569 
L 170.72695 367.480856 
L 170.862507 372.932558 
L 171.13362 335.936096 
L 171.269177 344.521554 
L 171.54029 400.385305 
L 171.675847 390.971084 
L 171.811404 419.97776 
L 171.946961 414.526059 
L 172.082517 402.923389 
L 172.218074 376.545443 
L 172.353631 376.545443 
L 172.624744 331.766387 
L 172.760301 325.291682 
L 172.895858 325.382328 
L 173.031415 322.947839 
L 173.302528 301.814404 
L 173.438085 324.372274 
L 173.573642 295.365598 
L 173.709198 318.363748 
L 173.844755 288.113929 
L 173.980312 311.643005 
L 174.115869 311.97969 
L 174.251425 292.723919 
L 174.386982 321.730595 
L 174.658096 286.741292 
L 174.793653 316.991111 
L 175.064766 279.373078 
L 175.200323 284.229106 
L 175.33588 257.85116 
L 175.471436 284.59169 
L 175.606993 335.185031 
L 175.74255 324.786655 
L 175.878107 324.786655 
L 176.013663 350.025053 
L 176.284777 308.302058 
L 176.420334 308.302058 
L 176.55589 320.772338 
L 176.962561 275.760193 
L 177.098117 293.928214 
L 177.233674 280.577373 
L 177.369231 290.263531 
L 177.504788 290.263531 
L 177.640344 303.446029 
L 178.047015 233.998349 
L 178.318128 193.816333 
L 178.724798 287.945587 
L 178.860355 312.924997 
L 178.995912 283.672282 
L 179.131469 283.762928 
L 179.402582 256.374928 
L 179.538139 281.613326 
L 179.673696 269.453831 
L 179.809252 292.451981 
L 179.944809 293.708074 
L 180.215923 350.491232 
L 180.622593 287.6607 
L 180.75815 312.899098 
L 180.893706 315.294738 
L 181.029263 334.472813 
L 181.707047 219.287821 
L 181.842604 233.493322 
L 181.97816 204.486646 
L 182.113717 216.646141 
L 182.249274 238.906175 
L 182.384831 212.385786 
L 182.520387 241.392462 
L 182.655944 213.39584 
L 182.791501 241.21117 
L 182.927058 234.736466 
L 183.062614 207.995936 
L 183.469285 263.354659 
L 183.604841 242.376617 
L 183.740398 244.552117 
L 183.875955 263.807889 
L 184.011512 237.287499 
L 184.147068 251.026822 
L 184.282625 237.675981 
L 184.553739 310.205621 
L 184.689295 283.685231 
L 184.824852 280.719817 
L 185.231522 342.941727 
L 185.367079 330.782232 
L 185.638193 288.580108 
L 185.773749 307.835879 
L 185.909306 285.575845 
L 186.044863 306.204253 
L 186.18042 303.005749 
L 186.315976 280.564424 
L 186.451533 321.264416 
L 186.58709 308.081918 
L 186.722647 281.561528 
L 186.858203 280.137093 
L 186.99376 281.678073 
L 187.40043 326.236989 
L 187.535987 300.428817 
L 187.671544 298.797192 
L 187.807101 303.588473 
L 188.078214 357.393267 
L 188.213771 333.980736 
L 188.349328 352.899822 
L 188.484884 353.236507 
L 188.755998 307.680486 
L 189.027111 342.475548 
L 189.162668 377.814485 
L 189.298225 348.807809 
L 189.433782 354.142965 
L 189.569338 336.311629 
L 189.704895 346.606409 
L 189.840452 317.599733 
L 189.976009 317.599733 
L 190.111565 292.361335 
L 190.247122 297.217364 
L 190.382679 309.687644 
L 190.518236 302.151088 
L 190.789349 334.990789 
L 190.924906 345.920091 
L 191.331576 307.123661 
L 191.467133 330.199508 
L 191.873803 262.409352 
L 192.00936 267.265381 
L 192.280473 250.832581 
L 192.8227 309.027225 
L 193.093814 256.98355 
L 193.229371 254.549061 
L 193.364927 261.023766 
L 193.500484 229.996982 
L 193.636041 364.139909 
L 193.771598 350.957411 
L 193.907154 394.778211 
L 194.042711 394.778211 
L 194.178268 414.033982 
L 194.313825 409.177953 
L 194.449381 386.917919 
L 194.584938 387.008565 
L 194.856052 406.717566 
L 194.991608 400.242861 
L 195.127165 371.236185 
L 195.262722 393.496219 
L 195.398279 365.111115 
L 195.533835 363.479489 
L 195.669392 353.521394 
L 195.804949 324.268679 
L 195.940506 330.743383 
L 196.076062 324.268679 
L 196.347176 339.302943 
L 196.482733 338.966258 
L 196.889403 367.247767 
L 197.02496 359.763009 
L 197.43163 294.588634 
L 197.567187 296.4145 
L 197.702743 283.06366 
L 197.8383 292.413133 
L 197.973857 285.938428 
L 198.109414 263.678394 
L 198.380527 297.385706 
L 198.516084 290.082239 
L 198.651641 321.109023 
L 198.787197 290.082239 
L 199.058311 356.460909 
L 199.329424 324.03559 
L 199.464981 324.009691 
L 199.600538 329.914621 
L 199.736095 306.256051 
L 199.871651 307.887677 
L 200.142765 268.327232 
L 200.278322 277.857997 
L 200.820549 382.450373 
L 201.091662 364.839177 
L 201.227219 364.839177 
L 201.362776 385.765422 
L 201.769446 343.95178 
L 201.905003 317.573834 
L 202.040559 317.573834 
L 202.176116 325.11039 
L 202.311673 325.11039 
L 202.44723 328.360692 
L 202.582786 352.420694 
L 202.718343 350.944461 
L 202.8539 378.941083 
L 202.989457 352.420694 
L 203.125013 373.087951 
L 203.26057 359.73711 
L 203.396127 294.485038 
L 203.531684 349.494127 
L 203.802797 304.53378 
L 203.938354 305.776923 
L 204.073911 314.206988 
L 204.209467 288.96859 
L 204.345024 286.080872 
L 204.480581 299.431713 
L 204.616138 292.957008 
L 205.293921 227.303505 
L 205.565035 344.897087 
L 205.700592 344.897087 
L 205.836148 319.658689 
L 205.971705 373.152698 
L 206.107262 378.604399 
L 206.378375 335.469918 
L 206.513932 361.92556 
L 206.649489 345.479811 
L 206.785046 359.361577 
L 206.920602 351.825021 
L 207.056159 380.831697 
L 207.598386 293.954113 
L 207.733943 301.490669 
L 207.8695 301.374124 
L 208.005056 306.230152 
L 208.140613 283.970118 
L 208.411727 310.23152 
L 208.68284 352.640834 
L 208.818397 376.053365 
L 208.953954 375.962719 
L 209.08951 361.757218 
L 209.225067 386.594184 
L 209.496181 344.417959 
L 209.631737 369.941244 
L 209.902851 315.91631 
L 210.038408 329.034061 
L 210.173964 329.034061 
L 210.309521 316.563781 
L 210.445078 331.792285 
L 210.580635 360.17739 
L 210.851748 311.176826 
L 210.987305 313.611315 
L 211.122862 335.871349 
L 211.258419 307.874727 
L 211.393975 303.018699 
L 211.529532 331.015321 
L 211.665089 330.898776 
L 212.071759 287.634801 
L 212.342873 321.342112 
L 212.749543 264.843841 
L 212.8851 265.866845 
L 213.020656 237.870222 
L 213.29177 275.967384 
L 213.562883 234.555174 
L 213.969554 330.031166 
L 214.10511 325.032694 
L 214.240667 320.189615 
L 214.511781 357.820597 
L 214.647337 357.729952 
L 214.782894 355.632147 
L 214.918451 369.513914 
L 215.054008 363.039209 
L 215.189564 372.45343 
L 215.325121 367.597401 
L 215.460678 338.344686 
L 215.596235 348.639466 
L 215.867348 290.872153 
L 216.002905 317.612683 
L 216.274018 278.764456 
L 216.545132 265.776199 
L 216.680689 268.094143 
L 216.816245 299.120927 
L 216.951802 296.543994 
L 217.087359 325.796709 
L 217.222916 316.382489 
L 217.358472 321.432758 
L 217.494029 292.180044 
L 217.629586 297.631745 
L 217.765143 272.794778 
L 218.036256 326.016849 
L 218.171813 303.756815 
L 218.30737 303.87336 
L 218.578483 267.05819 
L 218.71404 296.310905 
L 218.985153 240.317661 
L 219.12071 269.570376 
L 219.391824 355.78754 
L 219.52738 346.826549 
L 219.662937 368.115378 
L 219.798494 345.855344 
L 220.069607 339.484234 
L 220.340721 366.768639 
L 220.882948 292.503779 
L 221.018505 295.10661 
L 221.154061 302.358279 
L 221.289618 277.119881 
L 221.560732 325.628367 
L 221.696288 320.772338 
L 221.967402 279.99465 
L 222.238515 303.692068 
L 222.374072 298.83604 
L 222.645186 272.859525 
L 222.780742 273.532895 
L 223.051856 312.381121 
L 223.187413 312.290476 
L 223.322969 308.133715 
L 223.458526 331.546247 
L 223.72964 277.106932 
L 223.865196 286.521152 
L 224.000753 257.268437 
L 224.407423 367.817541 
L 224.814094 307.952424 
L 224.94965 321.134922 
L 225.085207 321.018377 
L 225.220764 314.181089 
L 225.356321 292.0376 
L 225.491877 314.297634 
L 225.627434 314.206988 
L 225.898548 294.031809 
L 226.034104 348.432276 
L 226.305218 307.175459 
L 226.440775 326.340584 
L 226.847445 243.244227 
L 226.983002 269.052399 
L 227.254115 253.163474 
L 227.389672 336.130337 
L 227.525229 316.304792 
L 227.796342 329.759228 
L 228.067456 320.396806 
L 228.338569 270.321441 
L 228.474126 277.728503 
L 228.609683 258.472732 
L 228.745239 258.615176 
L 228.880796 284.993122 
L 229.016353 285.083767 
L 229.15191 275.669547 
L 229.287466 285.083767 
L 229.55858 251.790837 
L 229.694137 279.023444 
L 229.829693 279.023444 
L 229.96525 249.770729 
L 230.100807 254.212377 
L 230.236364 284.993122 
L 230.37192 277.508363 
L 230.507477 290.043391 
L 230.643034 321.070175 
L 230.778591 294.329645 
L 231.049704 336.72601 
L 231.185261 315.747968 
L 231.320818 325.162188 
L 231.456374 299.638903 
L 231.727488 321.898937 
L 231.863045 317.042909 
L 231.998601 329.901672 
L 232.134158 355.424957 
L 232.269715 330.031166 
L 232.405272 327.920412 
L 232.540828 323.064384 
L 232.811942 298.628849 
L 232.947499 272.250903 
L 233.083055 277.262324 
L 233.218612 302.008645 
L 233.354169 295.53394 
L 233.489726 321.342112 
L 233.625282 321.251467 
L 233.760839 318.778129 
L 234.167509 371.404527 
L 234.303066 365.952826 
L 234.438623 352.770328 
L 234.709736 372.103795 
L 234.98085 320.539249 
L 235.116407 320.629895 
L 235.251963 320.29321 
L 235.38752 333.475709 
L 235.523077 305.090604 
L 235.929747 334.680004 
L 236.065304 327.143448 
L 236.200861 302.306481 
L 236.336417 312.601261 
L 236.607531 280.162992 
L 236.878644 346.632308 
L 237.014201 321.39391 
L 237.149758 357.587508 
L 237.285315 305.388441 
L 237.420871 304.430184 
L 237.556428 299.574156 
L 237.691985 299.70365 
L 237.963098 281.496781 
L 238.098655 288.994489 
L 238.234212 286.806039 
L 238.369769 322.7018 
L 238.505325 328.153502 
L 238.640882 328.062856 
L 238.776439 314.712015 
L 238.911996 327.389486 
L 239.047552 355.774591 
L 239.183109 330.251306 
L 239.318666 360.501125 
L 239.454223 352.964569 
L 239.589779 323.711854 
L 239.725336 346.269725 
L 239.860893 343.835236 
L 239.99645 315.838614 
L 240.132006 315.838614 
L 240.267563 318.920573 
L 240.40312 304.715071 
L 240.538677 316.265944 
L 240.674233 287.013229 
L 240.945347 335.664159 
L 241.080904 322.48166 
L 241.21646 336.687162 
L 241.352017 329.150606 
L 241.487574 341.310101 
L 241.758687 318.855826 
L 241.894244 341.400747 
L 242.165358 410.136209 
L 242.300914 410.136209 
L 242.436471 397.665929 
L 242.572028 397.64003 
L 242.707585 385.480535 
L 242.843141 397.950816 
L 242.978698 374.952665 
L 243.114255 397.950816 
L 243.249812 368.698101 
L 243.385368 369.293774 
L 243.520925 359.879553 
L 243.656482 373.062052 
L 243.792039 374.693677 
L 243.927595 349.455279 
L 244.063152 378.707994 
L 244.198709 352.330048 
L 244.334266 351.993363 
L 244.469822 377.231761 
L 244.605379 377.348306 
L 244.876493 330.095913 
L 245.012049 349.791964 
L 245.283163 328.282996 
L 245.41872 324.320477 
L 245.689833 355.541501 
L 245.82539 329.163555 
L 245.960947 357.160178 
L 246.096503 344.689897 
L 246.367617 294.433241 
L 246.503174 290.664963 
L 246.774287 308.871832 
L 246.909844 308.535147 
L 247.045401 284.034865 
L 247.180958 308.871832 
L 247.316514 280.486727 
L 247.587628 310.063177 
L 247.723185 295.857676 
L 247.858741 297.502251 
L 247.994298 306.851724 
L 248.129855 341.465494 
L 248.265412 335.016688 
L 248.400968 364.023364 
L 248.807639 301.788505 
L 248.943195 299.470561 
L 249.078752 299.470561 
L 249.485422 359.29683 
L 249.756536 407.947759 
L 250.163206 339.095752 
L 250.298763 325.213986 
L 250.43432 339.095752 
L 250.705433 319.399701 
L 250.84099 294.161303 
L 250.976547 301.697859 
L 251.112103 270.671075 
L 251.24766 289.926846 
L 251.518774 249.343399 
L 251.65433 251.777888 
L 251.925444 222.745313 
L 252.061001 203.489542 
L 252.196557 217.695043 
L 252.467671 256.54327 
L 252.603228 230.165324 
L 252.738784 230.074678 
L 252.874341 236.549383 
L 253.009898 256.672764 
L 253.281011 318.208355 
L 253.552125 277.197577 
L 253.823238 319.917677 
L 253.958795 283.128407 
L 254.094352 292.542627 
L 254.229909 318.493242 
L 254.365465 287.466459 
L 254.501022 301.348225 
L 254.636579 273.351603 
L 254.772136 270.826468 
L 254.907692 260.298599 
L 255.043249 239.320556 
L 255.585476 336.479971 
L 255.85659 295.067762 
L 255.992146 324.320477 
L 256.26326 275.682497 
L 256.398817 275.591851 
L 256.534373 275.708395 
L 256.66993 266.294175 
L 256.805487 297.320959 
L 257.0766 257.877059 
L 257.212157 272.082561 
L 257.347714 261.787781 
L 257.483271 289.784403 
L 257.618827 276.601905 
L 257.889941 310.762445 
L 258.025498 312.394071 
L 258.296611 360.17739 
L 258.567725 320.51335 
L 258.703281 347.25388 
L 258.838838 327.998109 
L 259.109952 328.088755 
L 259.245508 305.530884 
L 259.381065 314.945104 
L 259.516622 289.136932 
L 259.652179 297.800087 
L 259.787735 297.800087 
L 259.923292 300.053284 
L 260.058849 328.049906 
L 260.329962 278.259429 
L 260.465519 297.5152 
L 260.601076 289.978644 
L 260.736633 291.61027 
L 260.872189 262.603594 
L 261.007746 262.487049 
L 261.27886 301.076287 
L 261.414416 278.816254 
L 261.68553 324.631262 
L 261.821087 323.025536 
L 261.956643 345.583406 
L 262.0922 336.169186 
L 262.227757 361.977358 
L 262.363314 361.640673 
L 262.49887 330.613889 
L 262.634427 347.383374 
L 263.176654 302.500722 
L 263.447768 294.536836 
L 263.583324 320.837086 
L 263.854438 289.123983 
L 264.125551 318.972371 
L 264.261108 312.41997 
L 264.396665 311.850196 
L 264.532222 299.379915 
L 264.667778 274.542949 
L 264.803335 300.273424 
L 264.938892 286.935533 
L 265.074449 310.348064 
L 265.210005 303.87336 
L 265.345562 275.488255 
L 265.481119 305.038807 
L 265.616676 287.932637 
L 265.752232 337.243987 
L 265.887789 338.875612 
L 266.023346 334.019584 
L 266.158903 305.634479 
L 266.430016 384.107898 
L 266.972243 283.93127 
L 267.1078 296.090765 
L 267.243357 293.086502 
L 267.378913 284.060764 
L 267.785584 317.768076 
L 267.92114 294.355544 
L 268.056697 317.768076 
L 268.192254 307.473295 
L 268.327811 330.471446 
L 268.463367 312.510616 
L 268.598924 324.980896 
L 268.734481 299.172724 
L 269.141151 367.493806 
L 269.276708 342.462598 
L 269.547821 349.351684 
L 269.683378 349.468229 
L 269.818935 337.308734 
L 269.954492 356.564505 
L 270.090048 334.304471 
L 270.225605 332.672845 
L 270.361162 306.294899 
L 270.632275 317.625632 
L 270.767832 305.155351 
L 270.903389 279.916953 
L 271.174502 331.533297 
L 271.445616 276.770247 
L 271.581173 279.916953 
L 271.716729 327.298841 
L 271.852286 312.122133 
L 271.987843 314.556622 
L 272.1234 289.033337 
L 272.258956 292.853413 
L 272.394513 292.555576 
L 272.53007 296.297956 
L 272.665627 296.297956 
L 272.801183 332.310262 
L 272.93674 331.844083 
L 273.072297 360.229187 
L 273.207854 358.597562 
L 273.478967 315.25589 
L 273.614524 328.373642 
L 273.750081 297.346858 
L 273.885637 305.207149 
L 274.021194 331.727538 
L 274.156751 289.266427 
L 274.427864 347.525817 
L 274.563421 347.189133 
L 274.698978 342.449649 
L 274.834535 365.447799 
L 275.105648 336.195085 
L 275.241205 342.669789 
L 275.376762 337.295784 
L 275.512318 350.646625 
L 275.783432 319.619841 
L 276.054545 329.94052 
L 276.190102 329.94052 
L 276.325659 335.84545 
L 276.732329 264.507157 
L 277.003443 321.898937 
L 277.138999 319.464448 
L 277.274556 319.464448 
L 277.410113 332.815289 
L 277.54567 333.151973 
L 277.681226 347.03374 
L 277.816783 324.773706 
L 277.95234 347.03374 
L 278.087897 316.783921 
L 278.223453 319.218409 
L 278.35901 293.980011 
L 278.494567 293.889366 
L 278.76568 284.565791 
L 278.901237 310.425761 
L 279.036794 364.99457 
L 279.172351 370.446271 
L 279.307907 357.263773 
L 279.714578 295.53394 
L 280.121248 371.016045 
L 280.256805 266.863949 
L 280.392361 295.870625 
L 280.527918 270.632227 
L 280.663475 278.168783 
L 280.799032 272.717082 
L 280.934588 256.802258 
L 281.476815 311.940842 
L 281.747929 294.174253 
L 281.883486 294.510937 
L 282.019042 282.040656 
L 282.154599 292.335436 
L 282.290156 289.900948 
L 282.425713 263.380558 
L 282.561269 289.900948 
L 282.696826 292.335436 
L 282.96794 264.325865 
L 283.103497 271.810623 
L 283.239053 269.971807 
L 283.37461 256.620967 
L 283.645724 343.679843 
L 283.78128 343.679843 
L 283.916837 366.237713 
L 284.052394 346.981942 
L 284.187951 364.204656 
L 284.323507 337.684267 
L 284.459064 339.782071 
L 284.594621 353.663837 
L 284.865734 324.657161 
L 285.001291 299.418763 
L 285.136848 312.756654 
L 285.272405 286.378708 
L 285.407961 315.631423 
L 285.543518 319.360853 
L 285.679075 293.837568 
L 285.814632 314.219938 
L 285.950188 314.219938 
L 286.085745 314.349432 
L 286.356859 300.882046 
L 286.492415 326.923308 
L 286.627972 326.288787 
L 286.763529 333.825343 
L 286.899086 320.474502 
L 287.034642 289.447718 
L 287.170199 301.218731 
L 287.305756 327.026903 
L 287.441313 327.026903 
L 287.576869 300.286374 
L 287.712426 342.151813 
L 287.847983 330.225407 
L 287.98354 332.621048 
L 288.254653 283.983068 
L 288.39021 292.309538 
L 288.525767 292.309538 
L 288.661323 318.001165 
L 288.79688 286.974381 
L 288.932437 287.090926 
L 289.067994 300.441766 
L 289.20355 292.90521 
L 289.339107 300.441766 
L 289.474664 326.819712 
L 289.610221 316.524932 
L 289.745777 343.045322 
L 289.881334 314.038646 
L 290.016891 311.643005 
L 290.288004 346.865397 
L 290.423561 366.121169 
L 290.559118 335.871349 
L 290.694675 333.43686 
L 290.830231 355.696894 
L 291.236902 280.318385 
L 291.372458 306.916471 
L 291.508015 282.61043 
L 291.643572 304.870464 
L 291.779129 292.710969 
L 292.050242 357.781749 
L 292.185799 347.03374 
L 292.321356 347.03374 
L 292.456912 344.223718 
L 292.592469 357.574559 
L 292.863583 346.839499 
L 293.134696 311.953791 
L 293.40581 347.176183 
L 293.541366 272.225004 
L 293.676923 316.071703 
L 293.81248 318.506192 
L 293.948037 291.765662 
L 294.083593 318.286052 
L 294.21915 289.900948 
L 294.490264 324.980896 
L 294.62582 327.73912 
L 294.896934 312.018538 
L 295.032491 307.16251 
L 295.168047 322.960789 
L 295.303604 322.675902 
L 295.439161 357.807648 
L 295.574718 362.663676 
L 295.710274 349.312836 
L 295.845831 349.312836 
L 295.981388 374.110954 
L 296.116945 361.951459 
L 296.252501 377.464851 
L 296.388058 378.345411 
L 296.523615 371.870706 
L 296.659172 358.727056 
L 296.794728 383.564022 
L 296.930285 374.745475 
L 297.065842 398.158006 
L 297.201399 279.165888 
L 297.336955 331.779336 
L 297.472512 336.661263 
L 297.608069 309.920734 
L 298.014739 383.939555 
L 298.150296 369.759952 
L 298.285853 372.194441 
L 298.421409 358.843601 
L 298.556966 360.475226 
L 298.692523 358.843601 
L 298.963636 330.665687 
L 299.099193 323.129131 
L 299.23475 298.007278 
L 299.370307 304.715071 
L 299.64142 323.116181 
L 299.776977 300.118031 
L 299.912534 340.222351 
L 300.04809 328.062856 
L 300.183647 343.550349 
L 300.454761 321.316214 
L 300.725874 285.109666 
L 300.861431 280.318385 
L 301.268101 319.801133 
L 301.403658 290.548418 
L 301.539215 285.964327 
L 301.810328 326.22404 
L 301.945885 326.107495 
L 302.216998 287.026179 
L 302.352555 262.189212 
L 302.623669 337.334632 
L 302.759225 337.671317 
L 302.894782 366.924032 
L 303.030339 359.387476 
L 303.165896 369.682256 
L 303.437009 403.026984 
L 303.708123 367.493806 
L 303.843679 367.157121 
L 304.114793 331.934729 
L 304.25035 329.616785 
L 304.385906 330.329002 
L 304.521463 342.799283 
L 304.792577 382.566918 
L 304.928133 380.378468 
L 305.06369 388.808533 
L 305.199247 360.423429 
L 305.47036 364.722632 
L 305.605917 335.715956 
L 305.741474 364.722632 
L 305.877031 364.631987 
L 306.012587 391.152376 
L 306.148144 365.913978 
L 306.283701 391.437263 
L 306.419258 369.177229 
L 306.554814 391.437263 
L 306.690371 391.320718 
L 306.825928 400.734939 
L 306.961485 371.482224 
L 307.097041 371.57287 
L 307.368155 319.671639 
L 307.503712 343.563298 
L 307.639268 331.403803 
L 307.774825 369.617509 
L 307.910382 293.112401 
L 308.045939 280.952906 
L 308.317052 313.06744 
L 308.588166 354.401953 
L 308.723722 366.872234 
L 309.130393 303.018699 
L 309.401506 362.637778 
L 309.67262 380.676304 
L 309.943733 354.000522 
L 310.07929 325.615417 
L 310.214847 325.952102 
L 310.350403 295.702283 
L 310.48596 346.489865 
L 310.621517 340.662631 
L 310.89263 293.79872 
L 311.434857 351.656679 
L 311.570414 329.396645 
L 311.705971 342.579143 
L 311.977084 323.245676 
L 312.112641 349.986205 
L 312.248198 348.354579 
L 312.519311 388.87328 
L 312.654868 362.495334 
L 312.925982 374.42174 
L 313.061538 362.262245 
L 313.332652 313.183985 
L 313.468209 322.598205 
L 313.603765 322.48166 
L 313.739322 319.723436 
L 313.874879 392.563862 
L 314.010436 380.093581 
L 314.417106 418.488578 
L 314.688219 363.712578 
L 314.823776 389.235863 
L 315.09489 371.197337 
L 315.230446 263.859686 
L 315.366003 286.417557 
L 315.637117 264.843841 
L 315.772673 233.817057 
L 315.90823 362.326992 
L 316.043787 348.989101 
L 316.3149 390.712096 
L 316.450457 415.549062 
L 316.586014 388.808533 
L 316.721571 394.260234 
L 316.992684 354.389004 
L 317.128241 341.206506 
L 317.399354 300.894996 
L 317.534911 330.147711 
L 317.670468 322.611155 
L 317.806025 322.947839 
L 317.941581 297.709441 
L 318.077138 297.709441 
L 318.348252 321.212618 
L 318.483808 309.053123 
L 318.619365 316.589679 
L 318.754922 342.397851 
L 318.890479 332.103071 
L 319.161592 283.866523 
L 319.432706 300.286374 
L 319.703819 362.883816 
L 319.974933 364.398897 
L 320.246046 366.380157 
L 320.51716 313.158086 
L 320.788273 352.200554 
L 320.92383 326.677269 
L 321.3305 385.881967 
L 321.466057 356.875291 
L 321.601614 385.881967 
L 321.737171 385.545282 
L 321.872727 360.708316 
L 322.008284 372.026099 
L 322.143841 345.50571 
L 322.414954 379.66625 
L 322.686068 344.094224 
L 322.821625 335.664159 
L 322.957181 338.966258 
L 323.092738 333.514557 
L 323.363852 367.014678 
L 323.499408 367.014678 
L 323.634965 393.535067 
L 323.770522 390.232968 
L 324.041635 356.693999 
L 324.448306 291.428978 
L 324.583862 314.504825 
L 324.854976 265.853895 
L 324.990533 278.324176 
L 325.397203 359.361577 
L 325.53276 381.919447 
L 325.668316 374.382891 
L 325.803873 400.191063 
L 325.93943 390.776843 
L 326.074987 359.750059 
L 326.210543 359.633515 
L 326.3461 359.970199 
L 326.617214 324.916149 
L 326.75277 325.809659 
L 326.888327 330.251306 
L 327.159441 316.240045 
L 327.294997 327.544879 
L 327.430554 355.929984 
L 327.566111 349.455279 
L 327.701668 326.042748 
L 327.837224 340.507238 
L 327.972781 328.347743 
L 328.108338 299.962638 
L 328.243895 308.263209 
L 328.786122 367.869339 
L 328.921678 343.032372 
L 329.057235 374.059156 
L 329.192792 369.203128 
L 329.463905 376.493645 
L 329.599462 370.018941 
L 329.870576 321.083124 
L 330.141689 321.17377 
L 330.277246 297.709441 
L 330.548359 334.174977 
L 330.819473 279.9817 
L 331.226143 366.134118 
L 331.497257 328.723276 
L 331.632813 322.248571 
L 331.76837 292.995856 
L 331.903927 328.503136 
L 332.17504 339.937464 
L 332.310597 219.676303 
L 332.446154 292.218892 
L 332.717267 317.871671 
L 332.852824 295.611637 
L 332.988381 295.520991 
L 333.123938 283.361496 
L 333.259494 321.17377 
L 333.395051 308.315007 
L 333.530608 279.062292 
L 333.666165 279.062292 
L 333.937278 330.60094 
L 334.072835 330.691586 
L 334.208392 317.340745 
L 334.343948 327.635525 
L 334.479505 327.518981 
L 334.750619 305.064705 
L 334.886175 310.891939 
L 335.021732 305.064705 
L 335.157289 305.090604 
L 335.292846 318.441445 
L 335.428402 291.921055 
L 335.563959 293.552681 
L 335.699516 320.07307 
L 335.970629 281.652174 
L 336.106186 281.74282 
L 336.3773 258.123098 
L 336.648413 313.261681 
L 336.919527 255.856951 
L 337.055083 286.883735 
L 337.19064 263.807889 
L 337.326197 273.222109 
L 337.461754 266.747404 
L 337.732867 302.746761 
L 337.868424 302.630217 
L 338.139537 277.106932 
L 338.410651 350.374687 
L 338.546208 350.491232 
L 338.817321 307.771132 
L 339.088435 339.043954 
L 339.223991 312.523565 
L 339.359548 310.43871 
L 339.495105 314.59547 
L 339.630662 323.271574 
L 339.766218 316.79687 
L 339.901775 324.333426 
L 340.037332 324.670111 
L 340.172889 331.144815 
L 340.444002 372.867811 
L 340.579559 360.39753 
L 340.715116 337.39938 
L 340.850672 351.281146 
L 341.257343 286.547051 
L 341.528456 328.425439 
L 341.664013 301.90505 
L 341.79957 341.841027 
L 341.935126 331.662791 
L 342.070683 305.284845 
L 342.20624 302.034544 
L 342.341797 305.776923 
L 342.477353 315.191143 
L 342.61291 286.806039 
L 342.748467 289.059236 
L 343.01958 240.822688 
L 343.155137 257.113044 
L 343.290694 244.953549 
L 343.426251 286.11972 
L 343.561807 263.859686 
L 343.697364 277.650807 
L 343.832921 280.124144 
L 343.968478 279.502572 
L 344.104034 292.68507 
L 344.239591 321.691746 
L 344.375148 316.835718 
L 344.510705 287.829042 
L 344.646261 287.919688 
L 344.917375 247.478684 
L 345.052932 256.892904 
L 345.188488 249.356348 
L 345.595159 319.85293 
L 345.730715 305.971164 
L 345.866272 318.441445 
L 346.001829 305.971164 
L 346.137386 310.827192 
L 346.272942 297.476352 
L 346.408499 328.503136 
L 346.544056 297.476352 
L 346.679613 300.739603 
L 347.357396 364.942772 
L 347.492953 384.198543 
L 348.03518 279.748611 
L 348.170737 282.947115 
L 348.306294 260.687081 
L 348.44185 284.57874 
L 348.577407 284.915425 
L 348.712964 279.463724 
L 348.984077 330.108862 
L 349.119634 325.252834 
L 349.255191 300.415868 
L 349.390748 299.70365 
L 349.526304 304.559678 
L 349.661861 298.084974 
L 349.797418 275.086824 
L 350.339645 344.249617 
L 350.475202 313.999798 
L 350.610758 322.792446 
L 350.746315 322.792446 
L 350.881872 347.629413 
L 351.017429 324.631262 
L 351.152985 321.109023 
L 351.288542 335.314525 
L 351.559656 283.698181 
L 351.695212 310.43871 
L 351.830769 281.432034 
L 352.101883 338.059799 
L 352.372996 283.322648 
L 352.508553 296.505146 
L 352.779666 252.295864 
L 352.915223 261.710084 
L 353.05078 290.962799 
L 353.186337 277.611958 
L 353.321893 251.803786 
L 353.45745 315.92926 
L 353.86412 342.190661 
L 354.270791 412.713142 
L 354.406347 382.579867 
L 354.677461 438.521314 
L 354.813018 438.61196 
L 354.948575 431.075404 
L 355.084131 438.61196 
L 355.355245 404.334874 
L 355.490802 417.517373 
L 355.626358 408.103152 
L 355.897472 332.426807 
L 356.033029 325.952102 
L 356.168585 338.202243 
L 356.304142 367.208919 
L 356.439699 341.685634 
L 356.710812 341.685634 
L 356.846369 329.526139 
L 357.117483 376.506595 
L 357.253039 364.787379 
L 357.388596 369.643408 
L 357.524153 386.037359 
L 357.795266 349.856711 
L 357.930823 332.763491 
L 358.06638 369.306723 
L 358.337493 316.408388 
L 358.47305 342.061167 
L 358.608607 312.808452 
L 358.87972 348.704214 
L 359.015277 335.521715 
L 359.150834 349.403482 
L 359.286391 335.521715 
L 359.421947 358.934247 
L 359.557504 346.463966 
L 359.964174 277.469515 
L 360.235288 319.917677 
L 360.506401 364.826228 
L 360.641958 338.305838 
L 360.777515 345.842394 
L 360.913072 320.034222 
L 361.048628 320.124868 
L 361.184185 306.243102 
L 361.319742 421.971969 
L 361.455299 408.621129 
L 361.590855 410.252754 
L 361.726412 252.101623 
L 362.133082 321.277365 
L 362.404196 328.813921 
L 362.539753 297.787138 
L 362.675309 309.946633 
L 362.946423 259.586381 
L 363.08198 347.215032 
L 363.217536 316.188248 
L 363.353093 328.658529 
L 363.48865 316.188248 
L 363.624207 360.591771 
L 363.759763 338.810865 
L 363.89532 390.608501 
L 364.030877 396.060202 
L 364.166434 365.810383 
L 364.30199 373.670674 
L 364.437547 394.506273 
L 364.708661 367.817541 
L 364.844217 390.038727 
L 365.115331 327.31179 
L 365.250888 352.472492 
L 365.386444 347.331576 
L 365.522001 311.643005 
L 365.657558 311.643005 
L 365.793115 313.909152 
L 365.928671 310.140874 
L 366.199785 275.837889 
L 366.335342 275.811991 
L 366.742012 361.990307 
L 366.877569 336.842555 
L 367.013125 336.842555 
L 367.148682 307.58984 
L 367.284239 307.706385 
L 367.419796 332.944783 
L 367.555352 332.608098 
L 367.690909 306.087709 
L 367.826466 305.388441 
L 367.962023 333.773545 
L 368.097579 336.208034 
L 368.639806 234.619921 
L 368.775363 228.171115 
L 368.91092 258.330289 
L 369.046477 245.14779 
L 369.31759 294.951217 
L 369.453147 294.951217 
L 369.588704 323.336321 
L 369.72426 323.673006 
L 369.995374 314.504825 
L 370.130931 322.559357 
L 370.266487 309.208516 
L 370.402044 316.745072 
L 370.537601 340.157604 
L 370.673158 311.150928 
L 370.808714 311.150928 
L 370.944271 312.782553 
L 371.079828 302.487773 
L 371.215385 315.838614 
L 371.486498 351.566033 
L 371.622055 361.860813 
L 371.893168 307.771132 
L 372.164282 361.860813 
L 372.435395 324.553566 
L 372.706509 310.23152 
L 372.842066 324.03559 
L 372.977622 350.555979 
L 373.248736 329.966419 
L 373.384293 342.125914 
L 373.519849 312.873199 
L 373.655406 332.465655 
L 373.790963 310.205621 
L 373.92652 381.116584 
L 374.062076 374.64188 
L 374.197633 354.285409 
L 374.33319 352.783277 
L 374.468747 378.591449 
L 374.604303 369.177229 
L 374.73986 369.177229 
L 374.875417 375.651934 
L 375.010974 350.931512 
L 375.14653 363.790275 
L 375.282087 365.4219 
L 375.417644 358.947196 
L 375.553201 365.4219 
L 375.688757 363.790275 
L 375.824314 369.37147 
L 376.095428 330.419648 
L 376.366541 370.964247 
L 376.502098 342.579143 
L 376.637655 361.834914 
L 376.908768 345.945989 
L 377.044325 355.36021 
L 377.179882 391.489061 
L 377.315438 376.933925 
L 377.450995 350.413536 
L 377.586552 373.411686 
L 377.722109 376.519544 
L 377.857665 352.964569 
L 377.993222 265.983389 
L 378.128779 270.839418 
L 378.399892 318.260153 
L 378.535449 293.423187 
L 378.671006 306.774027 
L 378.806563 331.610994 
L 378.942119 331.494449 
L 379.077676 329.875773 
L 379.213233 332.698744 
L 379.34879 332.815289 
L 379.484346 327.363588 
L 379.619903 334.848346 
L 379.75546 303.821562 
L 379.891017 330.341952 
L 380.16213 294.899419 
L 380.297687 325.149239 
L 380.704357 245.82116 
L 380.975471 294.329645 
L 381.111027 275.073874 
L 381.246584 276.7055 
L 381.382141 307.732284 
L 381.517698 298.318063 
L 381.653254 311.500562 
L 381.788811 311.163877 
L 382.059925 346.619359 
L 382.195481 346.956043 
L 382.466595 316.421337 
L 382.602152 341.258303 
L 382.873265 300.674856 
L 383.008822 322.662952 
L 383.279935 260.622334 
L 383.415492 309.014275 
L 383.551049 307.550992 
L 383.822162 333.398012 
L 383.957719 323.983792 
L 384.093276 324.100337 
L 384.364389 275.591851 
L 384.499946 282.066555 
L 384.635503 301.322326 
L 384.77106 282.066555 
L 385.042173 362.896766 
L 385.17773 349.714267 
L 385.448843 298.097923 
L 385.5844 323.336321 
L 385.719957 300.338171 
L 385.99107 335.806602 
L 386.126627 329.331898 
L 386.397741 294.174253 
L 386.668854 281.341388 
L 386.804411 304.339539 
L 386.939968 357.082481 
L 387.075524 358.493967 
L 387.211081 333.255569 
L 387.346638 334.887194 
L 387.482195 341.361899 
L 387.617751 341.245354 
L 387.753308 331.831134 
L 387.888865 355.243665 
L 388.024422 341.038163 
L 388.159978 353.508444 
L 388.295535 351.993363 
L 388.431092 342.151813 
L 388.566649 365.913978 
L 388.702205 339.173449 
L 388.973319 343.653944 
L 389.108876 334.239724 
L 389.244432 289.149882 
L 389.379989 291.014597 
L 389.515546 278.855102 
L 389.651103 247.828318 
L 389.786659 317.534986 
L 389.922216 317.534986 
L 390.057773 345.350317 
L 390.19333 347.784805 
L 390.328886 340.248249 
L 390.464443 316.35659 
L 390.6 321.808291 
L 390.735557 307.926525 
L 390.871114 334.667054 
L 391.00667 312.40702 
L 391.142227 337.645418 
L 391.413341 298.60295 
L 391.548897 275.6048 
L 391.820011 296.725286 
L 391.955568 346.645258 
L 392.226681 299.431713 
L 392.497795 332.633997 
L 392.768908 281.678073 
L 392.904465 311.927892 
L 393.040022 310.296267 
L 393.175578 310.296267 
L 393.311135 324.799605 
L 393.446692 323.167979 
L 393.853362 256.905854 
L 393.988919 322.287419 
L 394.124476 331.818184 
L 394.260032 331.818184 
L 394.531146 350.879714 
L 394.666703 322.49461 
L 394.802259 336.376376 
L 394.937816 367.40316 
L 395.073373 367.066475 
L 395.480043 292.723919 
L 395.6156 322.973738 
L 395.751157 322.883092 
L 396.02227 373.52823 
L 396.157827 344.521554 
L 396.42894 386.710729 
L 396.835611 333.903039 
L 396.971167 364.152858 
L 397.242281 341.387797 
L 397.648951 280.564424 
L 397.920065 312.886148 
L 398.191178 283.413294 
L 398.462292 361.886712 
L 398.597848 361.796066 
L 398.733405 357.056582 
L 398.868962 361.912611 
L 399.004519 371.326831 
L 399.275632 343.912932 
L 399.411189 349.364633 
L 399.682302 303.730916 
L 399.953416 351.125753 
L 400.224529 331.740488 
L 400.360086 351.695527 
L 400.495643 339.536032 
L 400.766756 301.542466 
L 400.902313 303.976955 
L 401.173427 264.533055 
L 401.308983 328.503136 
L 401.44454 325.524772 
L 401.580097 327.156397 
L 401.715654 355.541501 
L 401.986767 321.264416 
L 402.122324 308.081918 
L 402.257881 333.475709 
L 402.393437 315.773867 
L 402.664551 331.960628 
L 402.935664 308.483349 
L 403.342335 354.298358 
L 403.477891 363.712578 
L 403.613448 350.361738 
L 403.749005 375.885023 
L 403.884562 368.348467 
L 404.020118 375.885023 
L 404.155675 275.695446 
L 404.291232 276.498309 
L 404.426789 303.238839 
L 404.697902 279.593218 
L 404.969016 328.39954 
L 405.104572 301.659011 
L 405.240129 329.655633 
L 405.375686 324.929099 
L 405.646799 270.554531 
L 405.782356 270.554531 
L 406.05347 336.259832 
L 406.189026 337.891457 
L 406.46014 296.375652 
L 406.731253 343.472652 
L 407.002367 289.667858 
L 407.137924 318.920573 
L 407.27348 292.400183 
L 407.409037 343.938831 
L 407.544594 331.093017 
L 407.680151 305.854619 
L 407.815707 304.08055 
L 408.086821 260.894272 
L 408.357934 298.861939 
L 408.629048 261.658287 
L 408.764605 291.908106 
L 408.900161 291.571421 
L 409.035718 278.220581 
L 409.171275 334.395117 
L 409.306832 333.100176 
L 409.442388 333.100176 
L 409.577945 334.731801 
L 409.713502 334.615257 
L 409.849059 356.991835 
L 410.120172 331.4815 
L 410.255729 331.598044 
L 410.391286 329.966419 
L 410.526842 331.598044 
L 410.662399 306.074759 
L 410.797956 315.48898 
L 410.933513 287.103875 
L 411.069069 286.857836 
L 411.204626 261.619438 
L 411.340183 312.912047 
L 411.47574 281.885263 
L 411.746853 312.937946 
L 412.017967 347.176183 
L 412.28908 330.484395 
L 412.424637 328.386591 
L 412.560194 328.386591 
L 412.69575 330.82108 
L 412.831307 304.08055 
L 412.966864 334.7577 
L 413.102421 333.255569 
L 413.237977 343.485602 
L 413.373534 371.870706 
L 413.509091 369.436217 
L 413.644648 375.224603 
L 413.780204 375.224603 
L 413.915761 377.568446 
L 414.322431 334.265623 
L 414.457988 338.448282 
L 414.593545 334.433965 
L 414.729102 303.407181 
L 415.000215 326.0039 
L 415.271329 288.593057 
L 415.406885 311.150928 
L 415.542442 306.294899 
L 415.677999 293.436136 
L 415.813556 293.34549 
L 415.949112 277.521313 
L 416.084669 278.492518 
L 416.220226 278.492518 
L 416.355783 303.329485 
L 416.491339 293.034705 
L 416.626896 310.102026 
L 416.762453 311.927892 
L 416.89801 316.926364 
L 417.033566 340.222351 
L 417.169123 317.962317 
L 417.30468 323.685955 
L 417.440237 321.458657 
L 417.575793 331.753437 
L 417.846907 313.546568 
L 417.982464 326.897409 
L 418.11802 326.806763 
L 418.253577 357.833547 
L 418.389134 326.806763 
L 418.524691 343.628045 
L 418.660247 331.46855 
L 418.795804 305.090604 
L 419.066918 336.920251 
L 419.202474 307.667537 
L 419.338031 319.218409 
L 419.473588 303.989904 
L 419.609145 304.08055 
L 419.744701 275.073874 
L 419.880258 275.073874 
L 420.015815 271.564585 
L 420.151372 353.935775 
L 420.286928 365.706787 
L 420.422485 397.523485 
L 420.558042 366.496701 
L 420.693599 385.752472 
L 420.829155 355.502653 
L 420.964712 362.754322 
L 421.100269 348.548821 
L 421.235826 358.843601 
L 421.642496 327.026903 
L 421.778053 328.658529 
L 421.913609 318.363748 
L 422.049166 289.111034 
L 422.32028 354.233611 
L 422.455836 338.189293 
L 422.591393 336.855504 
L 422.72695 327.324739 
L 422.998063 353.055215 
L 423.13362 347.603514 
L 423.404734 298.82309 
L 423.54029 309.312112 
L 423.675847 303.238839 
L 423.811404 337.282835 
L 423.946961 327.868615 
L 424.082517 342.074116 
L 424.218074 335.599412 
L 424.353631 323.129131 
L 424.489188 335.599412 
L 424.624744 322.248571 
L 424.760301 348.768961 
L 425.031415 293.241895 
L 425.166971 322.779497 
L 425.302528 316.79687 
L 425.438085 316.79687 
L 425.573642 340.209401 
L 426.115869 223.548176 
L 426.251425 231.809899 
L 426.386982 219.339618 
L 426.522539 223.081997 
L 426.658096 211.828961 
L 426.793653 185.451015 
L 426.929209 192.612038 
L 427.064766 205.962879 
L 427.606993 317.081757 
L 427.74255 311.630056 
L 428.013663 323.828399 
L 428.14922 316.291843 
L 428.284777 328.671478 
L 428.420334 358.921297 
L 428.55589 346.451016 
L 428.691447 360.565872 
L 428.827004 360.656518 
L 429.098117 335.146182 
L 429.233674 348.497023 
L 429.369231 348.406377 
L 429.504788 363.621933 
L 429.640344 361.342837 
L 429.911458 328.490186 
L 430.047015 354.181814 
L 430.182571 342.022319 
L 430.318128 351.436539 
L 430.453685 349.895559 
L 430.589242 374.732525 
L 430.724798 345.479811 
L 430.860355 347.111436 
L 431.267025 299.107977 
L 431.402582 272.367448 
L 431.538139 279.904004 
L 431.809252 334.304471 
L 431.944809 334.421015 
L 432.080366 360.798961 
L 432.215923 360.462277 
L 432.351479 372.621772 
L 432.487036 341.594988 
L 432.622593 340.856872 
L 432.75815 339.018056 
L 432.893706 339.108702 
L 433.029263 343.96473 
L 433.300377 331.403803 
L 433.435933 360.293935 
L 433.57149 360.630619 
L 433.842604 376.519544 
L 433.97816 368.982988 
L 434.113717 343.74459 
L 434.249274 377.25766 
L 434.384831 377.25766 
L 434.520387 378.552601 
L 434.655944 371.016045 
L 434.927058 323.116181 
L 435.062614 348.807809 
L 435.198171 335.456968 
L 435.333728 308.936579 
L 435.469285 318.065912 
L 435.604841 343.589197 
L 435.740398 346.023686 
L 436.147068 294.01886 
L 436.282625 269.868212 
L 436.689295 316.291843 
L 436.960409 281.820516 
L 437.095966 255.44257 
L 437.231522 264.856791 
L 437.367079 293.241895 
L 437.773749 245.173689 
L 437.909306 271.551635 
L 438.044863 248.838372 
L 438.18042 248.838372 
L 438.315976 245.639868 
L 438.451533 233.169587 
L 438.858203 267.343077 
L 439.129317 245.639868 
L 439.40043 276.226372 
L 439.535987 264.066877 
L 439.671544 315.605524 
L 439.807101 289.227578 
L 439.942657 289.227578 
L 440.213771 333.799444 
L 440.349328 400.087468 
L 440.484884 375.250502 
L 440.620441 386.89202 
L 440.755998 361.174494 
L 440.891555 360.242137 
L 441.027111 369.954194 
L 441.162668 395.063098 
L 441.298225 381.712257 
L 441.569338 347.176183 
L 441.704895 333.993685 
L 441.976009 354.091168 
L 442.247122 323.180929 
L 442.382679 342.4367 
L 442.789349 263.32876 
L 442.924906 263.32876 
L 443.060463 289.136932 
L 443.331576 254.458415 
L 443.467133 283.465091 
L 443.60269 270.994811 
L 443.738246 270.994811 
L 443.873803 283.465091 
L 444.00936 269.25959 
L 444.144917 297.644694 
L 444.280473 271.266748 
L 444.551587 304.766869 
L 444.687144 337.321683 
L 444.8227 323.970842 
L 445.093814 285.290958 
L 445.364927 345.402114 
L 445.500484 316.149399 
L 445.636041 326.44418 
L 445.771598 317.029959 
L 445.907154 329.189454 
L 446.042711 317.871671 
L 446.178268 343.394956 
L 446.449381 320.603996 
L 446.584938 298.343962 
L 446.720495 295.715232 
L 446.856052 267.71861 
L 446.991608 300.182778 
L 447.127165 275.345812 
L 447.262722 361.032051 
L 447.533835 307.745233 
L 447.804949 375.211654 
L 448.076062 338.111597 
L 448.347176 387.3323 
L 448.482733 373.450534 
L 448.753846 416.338976 
L 448.889403 435.594747 
L 449.702743 347.538767 
L 449.8383 361.420533 
L 450.109414 415.950494 
L 450.787197 317.586784 
L 450.922754 340.584934 
L 451.058311 312.19983 
L 451.193868 324.359325 
L 451.329424 296.362703 
L 451.464981 357.574559 
L 451.600538 352.213503 
L 451.871651 335.780703 
L 452.007208 333.915989 
L 452.142765 329.05996 
L 452.278322 354.868132 
L 452.413878 354.777486 
L 452.820549 305.233048 
L 452.956105 327.790918 
L 453.091662 308.535147 
L 453.227219 360.345732 
L 453.362776 333.825343 
L 453.498332 356.823493 
L 453.633889 356.914139 
L 453.769446 331.390854 
L 453.905003 331.390854 
L 454.176116 399.349352 
L 454.311673 418.605123 
L 454.44723 395.606973 
L 454.582786 395.490428 
L 454.8539 353.922825 
L 455.125013 368.672202 
L 455.26057 368.335517 
L 455.396127 398.585337 
L 455.66724 376.700836 
L 455.938354 335.301575 
L 456.073911 370.67936 
L 456.209467 359.931351 
L 456.345024 379.187122 
L 456.480581 365.836282 
L 456.751694 334.006634 
L 457.158365 298.020227 
L 457.293921 298.020227 
L 457.429478 307.434447 
L 457.700592 273.286856 
L 457.971705 253.331817 
L 458.107262 226.953871 
L 458.378375 279.76156 
L 458.513932 272.225004 
L 458.785046 298.046126 
L 458.920602 292.594425 
L 459.056159 304.75392 
L 459.327273 254.432517 
L 459.462829 241.366563 
L 459.598386 264.779094 
L 459.733943 262.344605 
L 460.005056 285.433401 
L 460.27617 315.683221 
L 460.411727 328.865719 
L 460.547283 353.702685 
L 460.818397 318.480293 
L 461.08951 327.609626 
L 461.225067 353.417798 
L 461.496181 298.926686 
L 461.631737 328.1794 
L 461.902851 288.204575 
L 462.038408 294.679279 
L 462.309521 256.491473 
L 462.580635 306.424393 
L 462.716192 306.424393 
L 462.851748 377.426003 
L 462.987305 350.905613 
L 463.122862 350.996259 
L 463.258419 327.583728 
L 463.393975 350.996259 
L 463.529532 344.521554 
L 463.665089 371.041944 
L 463.800646 342.65684 
L 463.936202 342.566194 
L 464.071759 356.473859 
L 464.207316 358.105484 
L 464.342873 329.098808 
L 464.478429 351.656679 
L 464.613986 344.120123 
L 465.020656 252.218168 
L 465.156213 252.554852 
L 465.29177 279.075242 
L 465.427327 382.670513 
L 465.69844 355.554451 
L 465.833997 268.107092 
L 465.969554 268.107092 
L 466.376224 296.997224 
L 466.511781 274.73719 
L 466.647337 274.827836 
L 466.782894 289.033337 
L 467.054008 271.111355 
L 467.189564 302.138139 
L 467.325121 307.58984 
L 467.460678 278.337125 
L 467.596235 278.220581 
L 467.731791 252.412409 
L 467.867348 268.948804 
L 468.002905 268.948804 
L 468.138462 269.065349 
L 468.274018 268.728664 
L 468.409575 283.594585 
L 468.545132 252.567802 
L 468.680689 269.971807 
L 468.816245 243.593861 
L 468.951802 281.781668 
L 469.087359 288.256373 
L 469.222916 263.419406 
L 469.358472 290.159936 
L 469.494029 262.163314 
L 469.629586 274.322809 
L 469.765143 300.700755 
L 469.900699 275.462357 
L 470.036256 274.452303 
L 470.171813 271.486888 
L 470.30737 271.486888 
L 470.442926 294.899419 
L 470.849597 216.594344 
L 470.985153 240.149318 
L 471.12071 240.149318 
L 471.256267 223.043149 
L 471.391824 227.899178 
L 471.662937 178.523081 
L 471.798494 207.775796 
L 472.069607 289.590162 
L 472.205164 315.812715 
L 472.340721 313.948 
L 472.476278 313.948 
L 472.611834 300.648957 
L 472.747391 378.151169 
L 472.882948 355.153019 
L 473.018505 384.069049 
L 473.154061 384.069049 
L 473.289618 371.909554 
L 473.696288 318.065912 
L 473.831845 326.729067 
L 473.967402 314.258786 
L 474.102959 287.738396 
L 474.238515 288.191626 
L 474.374072 289.823251 
L 474.509629 275.941485 
L 474.645186 302.682014 
L 475.051856 212.152696 
L 475.322969 260.894272 
L 475.458526 369.008887 
L 475.72964 333.87714 
L 476.000753 386.309297 
L 476.271867 341.400747 
L 476.407423 334.408066 
L 476.54298 307.033016 
L 476.678537 311.889044 
L 476.814094 305.414339 
L 476.94965 283.154306 
L 477.085207 311.53941 
L 477.220764 299.379915 
L 477.356321 313.585417 
L 477.627434 263.030924 
L 477.762991 285.290958 
L 477.898548 280.43493 
L 478.034104 286.909634 
L 478.169661 263.911484 
L 478.305218 263.911484 
L 478.711888 334.006634 
L 478.847445 360.060845 
L 478.983002 333.540456 
L 479.118558 347.745957 
L 479.254115 333.864191 
L 479.525229 241.016929 
L 479.660785 241.418361 
L 480.067456 287.686599 
L 480.203012 281.95001 
L 480.474126 299.92379 
L 480.745239 268.314283 
L 480.880796 267.433723 
L 481.016353 335.495816 
L 481.15191 322.144976 
L 481.287466 323.867247 
L 481.423023 294.614532 
L 481.55858 293.099452 
L 481.694137 293.436136 
L 481.829693 285.89958 
L 481.96525 285.783036 
L 482.100807 297.942531 
L 482.236364 293.57858 
L 482.37192 308.949528 
L 482.507477 306.838774 
L 482.643034 306.838774 
L 482.778591 343.835236 
L 483.049704 290.600216 
L 483.185261 298.007278 
L 483.320818 293.992961 
L 483.456374 309.817139 
L 483.591931 311.448764 
L 483.863045 294.122455 
L 483.998601 322.119077 
L 484.134158 293.733973 
L 484.269715 307.615739 
L 484.405272 336.000843 
L 484.676385 310.270368 
L 484.811942 329.526139 
L 485.083055 292.231841 
L 485.489726 354.958778 
L 485.625282 326.962156 
L 485.760839 340.597884 
L 485.896396 328.438389 
L 486.031953 269.0265 
L 486.167509 281.561528 
L 486.438623 321.860089 
L 486.57418 318.609787 
L 486.709736 289.603111 
L 486.845293 303.808613 
L 486.98085 332.193717 
L 487.116407 319.723436 
L 487.251963 319.63279 
L 487.38752 347.24093 
L 487.523077 347.331576 
L 487.79419 295.572789 
L 488.065304 343.835236 
L 488.200861 349.286937 
L 488.336417 326.729067 
L 488.607531 326.521876 
L 488.743088 351.760274 
L 489.014201 317.845772 
L 489.149758 317.845772 
L 489.285315 339.782071 
L 489.420871 323.336321 
L 489.556428 323.116181 
L 489.963098 261.502894 
L 490.234212 313.701961 
L 490.369769 341.698583 
L 490.505325 328.516085 
L 490.640882 330.147711 
L 490.776439 330.031166 
L 490.911996 341.387797 
L 491.047552 382.359727 
L 491.183109 369.889447 
L 491.454223 266.812151 
L 491.725336 245.924755 
L 492.132006 309.648796 
L 492.40312 282.688127 
L 492.538677 282.688127 
L 492.80979 347.370424 
L 492.945347 338.940359 
L 493.080904 365.680889 
L 493.21646 363.2464 
L 493.352017 336.72601 
L 493.487574 336.72601 
L 493.623131 348.937303 
L 493.758687 322.559357 
L 493.894244 323.297473 
L 494.029801 349.675419 
L 494.165358 349.675419 
L 494.300914 371.935453 
L 494.572028 343.692792 
L 494.978698 316.499034 
L 495.114255 315.25589 
L 495.249812 301.257579 
L 495.385368 324.670111 
L 495.520925 324.670111 
L 495.656482 349.507077 
L 495.792039 349.170392 
L 495.927595 374.978564 
L 496.063152 360.773063 
L 496.198709 334.395117 
L 496.469822 378.850438 
L 496.605379 349.597723 
L 496.740936 371.857757 
L 497.012049 343.848185 
L 497.147606 330.303103 
L 497.283163 331.934729 
L 497.554276 277.741453 
L 497.689833 306.126557 
L 497.82539 275.099773 
L 497.960947 288.450614 
L 498.096503 267.472571 
L 498.367617 284.099612 
L 498.638731 236.264496 
L 498.774287 236.264496 
L 498.909844 261.982022 
L 499.045401 338.953309 
L 499.180958 326.094546 
L 499.587628 402.755046 
L 500.129855 316.175298 
L 500.265412 342.915828 
L 500.400968 338.059799 
L 500.536525 325.589519 
L 500.672082 325.589519 
L 500.807639 352.109908 
L 501.214309 321.044276 
L 501.349866 325.900304 
L 501.620979 362.326992 
L 501.756536 361.303988 
L 501.892093 386.140955 
L 502.298763 318.247204 
L 502.43432 318.247204 
L 502.84099 393.418523 
L 503.24766 318.907624 
L 503.383217 313.935051 
L 503.518774 335.534665 
L 503.789887 313.015643 
L 503.925444 311.720702 
L 504.061001 318.195406 
L 504.196557 367.18302 
L 504.332114 366.380157 
L 504.467671 376.778532 
L 505.009898 289.162831 
L 505.145455 288.877944 
L 505.281011 311.75955 
L 505.552125 252.464206 
L 505.687682 262.758986 
L 505.823238 248.553485 
L 506.094352 282.014758 
L 506.636579 230.929339 
L 506.907692 256.245434 
L 507.314363 199.229186 
L 507.449919 211.803062 
L 507.585476 302.176987 
L 507.721033 275.799041 
L 507.85659 288.269322 
L 507.992146 275.799041 
L 508.127703 251.829685 
L 508.26326 254.989341 
L 508.398817 279.826307 
L 508.534373 251.829685 
L 508.66993 264.092776 
L 508.805487 289.616061 
L 508.941044 283.141356 
L 509.212157 242.415465 
L 509.347714 261.671236 
L 509.483271 249.511741 
L 509.618827 249.848426 
L 509.754384 224.040254 
L 509.889941 224.040254 
L 510.161054 197.001888 
L 510.703281 310.21857 
L 510.838838 297.748289 
L 511.109952 245.083043 
L 511.245508 257.553324 
L 511.381065 286.56 
L 511.516622 273.377502 
L 511.652179 300.118031 
L 511.787735 269.091247 
L 511.923292 275.565952 
L 512.058849 249.75778 
L 512.194406 261.917275 
L 512.465519 219.507961 
L 512.601076 232.690459 
L 512.736633 207.853493 
L 512.872189 208.591609 
L 513.143303 257.669869 
L 513.27886 257.579223 
L 513.414416 244.396725 
L 513.549973 244.396725 
L 513.68553 273.649439 
L 513.821087 268.288384 
L 513.956643 290.548418 
L 514.227757 241.172322 
L 514.363314 267.550268 
L 514.49887 322.883092 
L 514.634427 323.880197 
L 514.769984 299.04323 
L 514.905541 299.04323 
L 515.041097 343.420855 
L 515.176654 317.612683 
L 515.312211 313.455922 
L 515.447768 313.960949 
L 515.583324 310.814243 
L 515.718881 330.406699 
L 515.854438 322.624104 
L 515.989995 348.432276 
L 516.532222 299.807245 
L 516.667778 330.834029 
L 516.803335 310.87899 
L 516.938892 342.592093 
L 517.074449 316.162349 
L 517.210005 338.422383 
L 517.345562 342.333104 
L 517.481119 371.585819 
L 517.752232 350.012104 
L 518.023346 409.68298 
L 518.158903 409.346296 
L 518.294459 435.776039 
L 518.565573 415.782152 
L 518.70113 405.824056 
L 518.836686 374.797273 
L 518.972243 386.956768 
L 519.243357 432.189053 
L 519.378913 439.725609 
L 519.650027 402.224121 
L 519.92114 345.453912 
L 520.056697 353.145861 
L 520.192254 348.354579 
L 520.327811 350.076851 
L 520.463367 363.880921 
L 520.734481 363.880921 
L 520.870038 369.332622 
L 521.005594 363.880921 
L 521.141151 378.086422 
L 521.276708 378.177068 
L 521.412265 377.840384 
L 521.818935 308.496299 
L 521.954492 314.971003 
L 522.090048 295.715232 
L 522.225605 318.273103 
L 522.361162 316.641477 
L 522.496719 303.290636 
L 522.632275 306.644533 
L 522.767832 333.385063 
L 522.903389 308.548096 
L 523.038946 308.457451 
L 523.310059 348.328681 
L 523.581173 323.59531 
L 523.716729 323.59531 
L 523.987843 373.877864 
L 524.394513 308.056019 
L 524.53007 322.26152 
L 524.93674 252.852689 
L 525.072297 370.277929 
L 525.207854 371.909554 
L 525.478967 336.648314 
L 525.614524 336.648314 
L 525.750081 349.830812 
L 525.885637 320.824136 
L 526.021194 343.822286 
L 526.156751 318.583888 
L 526.292308 318.583888 
L 526.427864 326.120444 
L 526.563421 326.029798 
L 526.698978 331.4815 
L 526.834535 304.96111 
L 527.105648 316.175298 
L 527.241205 316.175298 
L 527.376762 309.700594 
L 527.647875 309.79124 
L 527.783432 316.265944 
L 527.918989 288.269322 
L 528.054545 289.525415 
L 528.190102 316.265944 
L 528.325659 311.409916 
L 528.461216 321.160821 
L 528.596772 314.686116 
L 528.732329 328.490186 
L 528.867886 328.490186 
L 529.003443 323.59531 
L 529.138999 322.973738 
L 529.274556 297.73534 
L 529.54567 380.261923 
L 529.681226 386.736628 
L 530.223453 307.641638 
L 530.35901 307.758182 
L 530.494567 307.667537 
L 530.630124 285.407503 
L 530.76568 328.321844 
L 530.901237 301.943898 
L 531.036794 298.926686 
L 531.172351 286.456405 
L 531.579021 339.561931 
L 531.714578 317.00406 
L 531.850134 343.74459 
L 532.121248 320.098969 
L 532.256805 342.65684 
L 532.392361 342.65684 
L 532.527918 348.108541 
L 532.934588 265.271172 
L 533.070145 277.741453 
L 533.612372 262.176263 
L 533.747929 258.161946 
L 533.883486 259.094304 
L 534.019042 297.29506 
L 534.154599 269.47973 
L 534.561269 337.231037 
L 534.696826 314.232887 
L 534.832383 339.756172 
L 534.96794 339.419487 
L 535.103497 311.034383 
L 535.239053 373.774269 
L 535.37461 361.614774 
L 535.645724 404.904648 
L 535.916837 362.715474 
L 536.052394 366.30246 
L 536.187951 376.59724 
L 536.594621 317.00406 
L 536.730178 317.00406 
L 536.865734 317.340745 
L 537.001291 304.870464 
L 537.272405 309.208516 
L 537.407961 309.208516 
L 537.814632 376.105163 
L 537.950188 350.866765 
L 538.221302 350.866765 
L 538.492415 373.567079 
L 538.627972 358.623461 
L 538.899086 320.668743 
L 539.034642 320.668743 
L 539.170199 277.624908 
L 539.305756 288.295221 
L 539.441313 275.82494 
L 539.576869 301.633112 
L 539.712426 296.181411 
L 539.847983 326.43123 
L 539.98354 300.907945 
L 540.119096 300.907945 
L 540.254653 296.064866 
L 540.39021 282.895317 
L 540.661323 321.562252 
L 540.79688 314.776762 
L 540.932437 319.63279 
L 541.20355 285.666491 
L 541.339107 311.189776 
L 541.474664 298.719495 
L 541.610221 298.38281 
L 541.745777 306.851724 
L 541.881334 306.851724 
L 542.016891 297.774188 
L 542.152448 297.774188 
L 542.288004 299.871992 
L 542.423561 322.870143 
L 542.559118 320.189615 
L 542.694675 325.641316 
L 542.830231 320.785288 
L 543.101345 277.57311 
L 543.236902 288.877944 
L 543.372458 282.40324 
L 543.914685 317.327796 
L 544.050242 343.135968 
L 544.185799 330.665687 
L 544.456912 326.923308 
L 544.592469 314.763813 
L 544.728026 314.763813 
L 544.863583 326.923308 
L 545.541366 286.702444 
L 545.676923 260.182054 
L 545.81248 257.035348 
L 545.948037 268.676866 
L 546.083593 268.676866 
L 546.354707 262.487049 
L 546.62582 299.444662 
L 546.761377 299.444662 
L 546.896934 286.093821 
L 547.032491 290.94985 
L 547.168047 283.413294 
L 547.439161 245.717564 
L 547.574718 267.045241 
L 547.710274 237.792526 
L 547.845831 243.244227 
L 548.116945 277.301173 
L 548.252501 277.301173 
L 548.388058 250.560643 
L 548.523615 250.560643 
L 548.659172 243.024087 
L 548.794728 229.142321 
L 548.930285 251.402355 
L 549.065842 251.402355 
L 549.201399 252.658447 
L 549.336955 265.128728 
L 549.472512 290.367126 
L 549.608069 261.36045 
L 549.743626 261.36045 
L 550.014739 287.984435 
L 550.150296 283.128407 
L 550.285853 283.128407 
L 550.421409 292.426082 
L 550.692523 349.597723 
L 550.963636 346.15318 
L 551.099193 333.993685 
L 551.23475 335.625311 
L 551.370307 328.088755 
L 551.64142 328.088755 
L 551.776977 323.232726 
L 552.04809 349.597723 
L 552.183647 349.714267 
L 552.319204 349.623622 
L 552.454761 373.036153 
L 552.996988 296.556944 
L 553.132544 296.556944 
L 553.268101 310.762445 
L 553.403658 310.87899 
L 553.539215 285.070818 
L 553.674771 308.962478 
L 553.945885 308.962478 
L 554.081442 279.709763 
L 554.216998 281.004704 
L 554.488112 319.542145 
L 554.623669 307.071864 
L 554.894782 350.827917 
L 555.165896 394.674615 
L 555.301452 369.436217 
L 555.437009 369.436217 
L 555.708123 319.127764 
L 555.843679 338.383535 
L 555.979236 324.178033 
L 556.385906 324.178033 
L 556.521463 334.926042 
L 556.65702 321.575202 
L 556.792577 350.517131 
L 556.928133 343.679843 
L 557.06369 343.679843 
L 557.199247 347.409273 
L 557.334804 373.929662 
L 557.47036 347.409273 
L 557.741474 347.409273 
L 558.012587 317.288947 
L 558.148144 317.379593 
L 558.419258 265.569008 
L 558.554814 288.98154 
L 558.825928 247.659976 
L 558.961485 247.659976 
L 559.097041 236.212698 
L 559.232598 236.60118 
L 559.368155 307.887677 
L 559.503712 303.627321 
L 559.639268 291.467826 
L 559.910382 303.238839 
L 560.045939 274.853734 
L 560.181495 274.853734 
L 560.317052 277.249375 
L 560.452609 318.726332 
L 560.588166 310.697698 
L 560.859279 360.630619 
L 561.265949 278.868051 
L 561.401506 278.868051 
L 561.537063 255.313076 
L 561.67262 255.999395 
L 561.808176 281.237793 
L 561.943733 258.239643 
L 562.07929 264.934487 
L 562.214847 264.934487 
L 562.48596 285.498149 
L 562.621517 325.835557 
L 562.757074 325.835557 
L 562.89263 307.279054 
L 563.028187 307.279054 
L 563.163744 312.691907 
L 563.299301 306.217203 
L 563.434857 329.513189 
L 563.570414 303.705017 
L 563.705971 334.731801 
L 564.112641 276.7055 
L 564.519311 309.972531 
L 564.654868 302.435975 
L 564.790425 307.292004 
L 564.925982 295.132509 
L 565.061538 340.934568 
L 565.197095 340.054008 
L 565.332652 354.25951 
L 565.468209 346.722954 
L 565.603765 371.080792 
L 565.739322 340.054008 
L 565.874879 336.143287 
L 566.010436 338.577776 
L 566.281549 290.315329 
L 566.417106 302.785609 
L 566.552663 302.785609 
L 566.823776 259.974864 
L 566.959333 259.974864 
L 567.09489 255.818103 
L 567.230446 255.818103 
L 567.366003 270.023605 
L 567.50156 264.66255 
L 567.637117 264.66255 
L 567.772673 271.137254 
L 567.90823 268.884057 
L 568.043787 274.335758 
L 568.179344 274.335758 
L 568.3149 260.130256 
L 568.450457 290.380076 
L 568.857127 239.747887 
L 568.992684 239.747887 
L 569.128241 243.231278 
L 569.263798 235.694722 
L 569.670468 235.694722 
L 569.806025 261.075563 
L 569.941581 261.075563 
L 570.212695 299.172724 
L 570.483808 299.05618 
L 570.754922 329.668582 
L 571.026036 271.150203 
L 571.161592 275.501205 
L 571.297149 271.344445 
L 571.432706 271.344445 
L 571.568263 249.084411 
L 571.839376 305.142402 
L 572.11049 290.872153 
L 572.51716 238.621288 
L 572.652717 242.583807 
L 572.788273 237.585335 
L 572.92383 242.441364 
L 573.059387 267.679762 
L 573.194944 241.159372 
L 573.3305 254.510213 
L 573.466057 282.895317 
L 573.601614 257.656919 
L 574.143841 257.656919 
L 574.414954 233.027144 
L 574.550511 233.027144 
L 574.686068 210.028993 
L 574.821625 210.028993 
L 574.957181 203.554289 
L 575.092738 230.074678 
L 575.228295 203.696732 
L 575.363852 213.110953 
L 575.499408 205.574397 
L 575.634965 205.574397 
L 575.770522 217.733892 
L 575.906079 212.877863 
L 576.041635 212.877863 
L 576.312749 239.993926 
L 576.448306 214.470641 
L 576.583862 214.470641 
L 576.719419 211.608821 
L 576.854976 193.246559 
L 577.53276 193.246559 
L 577.668316 206.429058 
L 577.803873 206.429058 
L 577.93943 227.756734 
L 578.074987 227.756734 
L 578.210543 202.919768 
L 578.3461 202.919768 
L 578.481657 171.892984 
L 578.617214 197.131382 
L 578.75277 170.610992 
L 578.888327 168.785126 
L 579.023884 168.785126 
L 579.159441 181.255407 
L 579.430554 232.353774 
L 579.566111 232.353774 
L 579.701668 239.89033 
L 579.972781 201.870866 
L 580.650565 201.870866 
L 580.786122 195.396161 
L 580.921678 195.396161 
L 581.057235 217.733892 
L 581.192792 212.877863 
L 581.328349 212.877863 
L 581.463905 200.718368 
L 581.870576 200.718368 
L 582.141689 209.770005 
L 582.277246 196.419164 
L 582.412803 225.671879 
L 582.683916 225.671879 
L 582.819473 230.527908 
L 582.95503 243.878748 
L 583.090586 224.739522 
L 583.3617 224.739522 
L 583.497257 218.264817 
L 583.632813 220.453267 
L 583.76837 260.259751 
L 583.903927 246.90891 
L 584.039484 244.72046 
L 584.17504 264.675499 
L 584.310597 238.155109 
L 584.852824 238.155109 
L 584.988381 233.998349 
L 585.123938 234.594022 
L 585.395051 234.594022 
L 585.530608 251.221063 
L 586.208392 251.221063 
L 586.343948 254.820999 
L 586.479505 254.820999 
L 586.615062 225.568284 
L 586.886175 225.568284 
L 587.021732 229.82864 
L 587.157289 229.82864 
L 587.292846 198.801856 
L 587.563959 244.137736 
L 587.835073 208.229025 
L 587.970629 218.523806 
L 588.106186 237.779577 
L 588.3773 218.070576 
L 589.326197 218.070576 
L 589.461754 241.599652 
L 589.868424 241.599652 
L 590.003981 266.708556 
L 590.275094 266.708556 
L 590.546208 305.129452 
L 590.817321 287.207471 
L 590.952878 287.207471 
L 591.223991 237.831374 
L 591.359548 250.301655 
L 591.630662 250.301655 
L 591.766218 255.753356 
L 591.901775 248.2168 
L 592.037332 248.2168 
L 592.172889 219.831696 
L 592.715116 219.831696 
L 592.986229 256.620967 
L 593.121786 231.784 
L 593.392899 231.784 
L 593.528456 240.136369 
L 593.664013 224.830168 
L 593.79957 229.686196 
L 593.935126 229.686196 
L 594.070683 227.575442 
L 594.20624 253.953388 
L 594.341797 246.416832 
L 594.477353 223.418682 
L 594.884024 223.418682 
L 595.01958 246.416832 
L 595.155137 295.339699 
L 595.290694 290.483671 
L 595.426251 278.220581 
L 595.561807 303.458979 
L 595.968478 303.458979 
L 596.104034 291.985802 
L 596.239591 291.985802 
L 596.375148 289.40887 
L 596.510705 266.41072 
L 596.646261 266.41072 
L 596.781818 295.417396 
L 597.052932 245.678716 
L 597.324045 245.678716 
L 597.459602 219.870544 
L 597.595159 231.809899 
L 597.730715 231.809899 
L 597.866272 243.736305 
L 598.137386 243.852849 
L 598.272942 255.300127 
L 598.408499 226.293451 
L 598.679613 226.293451 
L 598.815169 257.125994 
L 598.950726 257.125994 
L 599.086283 276.096878 
L 599.22184 269.622173 
L 599.357396 276.420613 
L 599.764067 276.420613 
L 599.899623 280.577373 
L 600.306294 280.577373 
L 600.44185 285.627643 
L 600.712964 260.285649 
L 600.984077 260.285649 
L 601.119634 266.760354 
L 601.255191 257.954756 
L 601.390748 257.954756 
L 601.526304 264.42946 
L 601.932975 264.42946 
L 602.068531 264.714347 
L 602.204088 266.980494 
L 602.339645 266.980494 
L 602.475202 279.450775 
L 602.881872 196.911242 
L 603.017429 208.306722 
L 603.152985 233.54512 
L 603.288542 233.54512 
L 603.424099 228.689092 
L 603.695212 228.689092 
L 603.830769 244.228382 
L 603.966326 244.616865 
L 604.101883 244.616865 
L 604.237439 254.458415 
L 604.508553 212.72247 
L 604.64411 213.136851 
L 604.779666 205.600295 
L 604.915223 205.600295 
L 605.05078 179.222349 
L 605.186337 179.222349 
L 605.321893 210.249133 
L 605.45745 206.739843 
L 605.999677 206.739843 
L 606.135234 233.117789 
L 606.541904 233.117789 
L 606.677461 244.811106 
L 607.084131 244.811106 
L 607.219688 252.347662 
L 607.355245 252.347662 
L 607.490802 225.969716 
L 607.626358 223.535227 
L 607.761915 223.535227 
L 607.897472 239.061568 
L 608.033029 239.061568 
L 608.168585 218.938187 
L 608.439699 218.938187 
L 608.575256 244.746359 
L 608.710812 218.225969 
L 608.846369 218.225969 
L 608.981926 211.751265 
L 609.117483 241.003979 
L 609.253039 236.536433 
L 609.388596 250.301655 
L 609.524153 237.119157 
L 609.65971 256.944702 
L 609.795266 256.944702 
L 609.930823 227.691987 
L 610.201937 227.691987 
L 610.337493 196.665203 
L 610.47305 196.665203 
L 610.608607 194.269563 
L 610.744164 216.827433 
L 611.015277 216.736787 
L 611.421947 216.736787 
L 611.557504 243.257177 
L 611.693061 243.257177 
L 611.828618 255.727457 
L 612.099731 255.727457 
L 612.370845 224.014355 
L 612.506401 224.014355 
L 612.777515 224.1309 
L 613.048628 224.014355 
L 613.184185 224.014355 
L 613.319742 199.177389 
L 614.404196 199.177389 
L 614.539753 200.200392 
L 614.946423 177.733167 
L 615.08198 177.733167 
L 615.217536 174.107333 
L 616.030877 174.107333 
L 616.166434 160.756492 
L 616.30199 167.516084 
L 616.437547 144.517933 
L 616.573104 159.72054 
L 617.115331 159.72054 
L 617.250888 181.436698 
L 617.657558 181.436698 
L 617.793115 188.973254 
L 618.064228 188.973254 
L 618.335342 196.704051 
L 619.148682 196.704051 
L 619.284239 172.903038 
L 619.419796 182.899982 
L 619.555352 182.899982 
L 619.826466 230.437262 
L 619.962023 230.437262 
L 620.097579 252.697296 
L 620.233136 252.697296 
L 620.368693 245.16074 
L 620.50425 245.16074 
L 620.639806 246.895961 
L 620.91092 246.895961 
L 621.046477 220.375571 
L 621.31759 220.375571 
L 621.453147 227.912127 
L 621.72426 227.912127 
L 621.859817 233.286132 
L 621.995374 258.123098 
L 622.130931 248.708878 
L 622.944271 248.708878 
L 623.079828 255.688609 
L 623.486498 255.688609 
L 623.622055 253.26707 
L 623.757612 253.26707 
L 623.893168 240.084571 
L 624.570952 240.084571 
L 624.706509 233.609867 
L 624.842066 233.609867 
L 624.977622 238.465895 
L 625.113179 238.465895 
L 625.248736 210.469273 
L 626.197633 210.469273 
L 626.33319 215.882126 
L 626.468747 206.467906 
L 628.366541 206.467906 
L 628.502098 238.608339 
L 629.722109 238.608339 
L 629.857665 229.077574 
L 630.671006 229.077574 
L 630.806563 215.726733 
L 631.34879 215.726733 
L 631.484346 217.500802 
L 631.619903 221.761158 
L 632.026573 221.761158 
L 632.16213 224.363989 
L 632.704357 224.363989 
L 632.839914 225.374043 
L 633.111027 225.374043 
L 633.246584 198.996097 
L 633.788811 198.996097 
L 633.924368 186.836602 
L 634.602152 186.836602 
L 634.737708 184.557506 
L 634.873265 180.387796 
L 636.228833 180.387796 
L 636.364389 189.465332 
L 637.042173 189.465332 
L 637.17773 181.851079 
L 637.313287 181.851079 
L 637.448843 178.587828 
L 637.719957 178.587828 
L 637.99107 178.445385 
L 638.262184 178.445385 
L 638.397741 180.064061 
L 638.804411 180.064061 
L 638.939968 157.804027 
L 639.075524 157.804027 
L 639.211081 150.604156 
L 639.346638 150.604156 
L 639.482195 151.471766 
L 640.837762 151.471766 
L 640.973319 135.569892 
L 642.057773 135.569892 
L 642.19333 139.11803 
L 643.00667 139.11803 
L 643.142227 125.767189 
L 645.446692 125.767189 
L 645.582249 140.814403 
L 645.853362 140.814403 
L 645.988919 140.477718 
L 646.666703 140.477718 
L 646.802259 123.876576 
L 648.293384 123.876576 
L 648.42894 136.346856 
L 649.106724 136.346856 
L 649.242281 131.620322 
L 649.784508 131.620322 
L 650.055621 121.81762 
L 650.868962 121.81762 
L 651.004519 109.347339 
L 651.953416 109.347339 
L 652.088973 115.822043 
L 659.27348 115.822043 
L 659.409037 128.292324 
L 659.815707 128.292324 
L 659.951264 121.81762 
L 665.102421 121.81762 
L 665.237977 124.070817 
L 665.373534 118.619116 
L 669.440237 118.619116 
L 669.575793 121.260795 
L 671.880258 121.260795 
L 672.015815 98.262645 
L 672.286928 98.262645 
L 672.422485 93.32892 
L 718.511781 93.32892 
L 718.647337 93.613807 
L 728.678537 93.613807 
L 728.814094 88.887273 
L 871.690909 88.887273 
L 871.690909 88.887273 
" style="fill:none;stroke:#8dd3c7;stroke-linecap:square;stroke-width:1.5;"/>
   </g>
   <g id="line2d_15">
    <path clip-path="url(#pc1210df9f9)" d="M 161.509091 243.555013 
L 177.911458 243.555013 
L 178.182571 218.536755 
L 178.318128 193.816333 
L 426.658096 193.816333 
L 426.793653 185.451015 
L 471.52738 185.451015 
L 471.662937 178.523081 
L 578.3461 178.523081 
L 578.481657 171.892984 
L 578.617214 171.892984 
L 579.023884 168.785126 
L 616.030877 168.785126 
L 616.166434 160.756492 
L 616.30199 160.756492 
L 616.437547 144.517933 
L 640.837762 144.517933 
L 640.973319 135.569892 
L 643.00667 135.569892 
L 643.142227 125.767189 
L 646.666703 125.767189 
L 646.802259 123.876576 
L 649.920065 123.876576 
L 650.055621 121.81762 
L 650.868962 121.81762 
L 651.004519 109.347339 
L 671.880258 109.347339 
L 672.015815 98.262645 
L 672.286928 98.262645 
L 672.422485 93.32892 
L 728.678537 93.32892 
L 728.814094 88.887273 
L 871.690909 88.887273 
L 871.690909 88.887273 
" style="fill:none;stroke:#feffb3;stroke-linecap:square;stroke-width:1.5;"/>
   </g>
   <g id="line2d_16">
    <path clip-path="url(#pc1210df9f9)" d="M 161.509091 315.758327 
L 162.729102 315.758327 
L 162.864658 322.377287 
L 164.084669 322.377287 
L 164.220226 328.736203 
L 165.440237 328.736203 
L 165.575793 334.845292 
L 166.795804 334.845292 
L 166.931361 340.71437 
L 168.151372 340.71437 
L 168.286928 346.352866 
L 169.506939 346.352866 
L 169.642496 351.769838 
L 170.862507 351.769838 
L 170.998063 356.973991 
L 172.218074 356.973991 
L 172.353631 361.973684 
L 173.573642 361.973684 
L 173.709198 366.776952 
L 174.929209 366.776952 
L 175.064766 371.391511 
L 176.284777 371.391511 
L 176.420334 375.824774 
L 177.640344 375.824774 
L 177.775901 380.083865 
L 178.995912 380.083865 
L 179.131469 384.175627 
L 180.351479 384.175627 
L 180.487036 388.106633 
L 181.707047 388.106633 
L 181.842604 391.883199 
L 183.062614 391.883199 
L 183.198171 395.511393 
L 184.418182 395.511393 
L 184.553739 398.997043 
L 185.773749 398.997043 
L 185.909306 402.345751 
L 187.129317 402.345751 
L 187.264874 405.562896 
L 188.484884 405.562896 
L 188.620441 408.653647 
L 189.840452 408.653647 
L 189.976009 411.62297 
L 191.196019 411.62297 
L 191.331576 414.475635 
L 192.551587 414.475635 
L 192.687144 417.216225 
L 193.907154 417.216225 
L 194.042711 419.849145 
L 195.262722 419.849145 
L 195.398279 422.378623 
L 196.618289 422.378623 
L 196.753846 424.808724 
L 197.973857 424.808724 
L 198.109414 427.143352 
L 199.329424 427.143352 
L 199.464981 429.386258 
L 200.684992 429.386258 
L 200.820549 431.541045 
L 202.040559 431.541045 
L 202.176116 433.611177 
L 203.396127 433.611177 
L 203.531684 435.599977 
L 204.751694 435.599977 
L 204.887251 437.510643 
L 206.107262 437.510643 
L 206.242819 439.346242 
L 207.462829 439.346242 
L 207.598386 441.109726 
L 208.818397 441.109726 
L 208.953954 442.803926 
L 210.173964 442.803926 
L 210.309521 444.431565 
L 211.529532 444.431565 
L 211.665089 445.995259 
L 212.8851 445.995259 
L 213.020656 447.497518 
L 214.240667 447.497518 
L 214.376224 448.940757 
L 215.596235 448.940757 
L 215.731791 450.327295 
L 216.951802 450.327295 
L 217.087359 451.659359 
L 218.30737 451.659359 
L 218.442926 452.939089 
L 219.662937 452.939089 
L 219.798494 454.168542 
L 221.018505 454.168542 
L 221.154061 455.349693 
L 222.374072 455.349693 
L 222.509629 456.484438 
L 223.72964 456.484438 
L 223.865196 457.574603 
L 225.085207 457.574603 
L 225.220764 458.621937 
L 226.440775 458.621937 
L 226.576331 459.628124 
L 227.796342 459.628124 
L 227.931899 460.594781 
L 229.15191 460.594781 
L 229.287466 461.52346 
L 230.507477 461.52346 
L 230.643034 462.415653 
L 231.863045 462.415653 
L 231.998601 463.272794 
L 233.218612 463.272794 
L 233.354169 464.09626 
L 234.57418 464.09626 
L 234.709736 464.887374 
L 235.929747 464.887374 
L 236.065304 465.647407 
L 237.285315 465.647407 
L 237.420871 466.37758 
L 238.640882 466.37758 
L 238.776439 467.079067 
L 239.99645 467.079067 
L 240.132006 467.752993 
L 241.352017 467.752993 
L 241.487574 468.400443 
L 242.707585 468.400443 
L 242.843141 469.022456 
L 244.063152 469.022456 
L 244.198709 469.620031 
L 245.41872 469.620031 
L 245.554276 470.194129 
L 246.774287 470.194129 
L 246.909844 470.745673 
L 248.129855 470.745673 
L 248.265412 471.275547 
L 249.485422 471.275547 
L 249.620979 471.784604 
L 250.84099 471.784604 
L 250.976547 472.273661 
L 252.196557 472.273661 
L 252.332114 472.743504 
L 253.552125 472.743504 
L 253.687682 473.194889 
L 254.907692 473.194889 
L 255.043249 473.628539 
L 256.26326 473.628539 
L 256.398817 474.045152 
L 257.618827 474.045152 
L 257.754384 474.445398 
L 258.974395 474.445398 
L 259.109952 474.829919 
L 260.329962 474.829919 
L 260.465519 475.199333 
L 261.68553 475.199333 
L 261.821087 475.554234 
L 263.041097 475.554234 
L 263.176654 475.895191 
L 264.396665 475.895191 
L 264.532222 476.222753 
L 265.752232 476.222753 
L 265.887789 476.537446 
L 267.1078 476.537446 
L 267.243357 476.839775 
L 268.463367 476.839775 
L 268.598924 477.130227 
L 269.818935 477.130227 
L 269.954492 477.409267 
L 271.174502 477.409267 
L 271.310059 477.677345 
L 272.53007 477.677345 
L 272.665627 477.93489 
L 273.885637 477.93489 
L 274.021194 478.182317 
L 275.241205 478.182317 
L 275.376762 478.420024 
L 276.596772 478.420024 
L 276.732329 478.648391 
L 277.95234 478.648391 
L 278.087897 478.867786 
L 279.307907 478.867786 
L 279.443464 479.078562 
L 280.663475 479.078562 
L 280.799032 479.281057 
L 282.019042 479.281057 
L 282.154599 479.475596 
L 283.37461 479.475596 
L 283.645724 479.662493 
L 284.730178 479.662493 
L 285.001291 479.842046 
L 286.085745 479.842046 
L 286.356859 480.014546 
L 287.441313 480.014546 
L 287.712426 480.180268 
L 288.79688 480.180268 
L 289.067994 480.33948 
L 290.152448 480.33948 
L 290.423561 480.492436 
L 291.508015 480.492436 
L 291.779129 480.639383 
L 292.863583 480.639383 
L 293.134696 480.780557 
L 294.21915 480.780557 
L 294.490264 480.916185 
L 295.574718 480.916185 
L 295.845831 481.046484 
L 296.930285 481.046484 
L 297.201399 481.171664 
L 298.285853 481.171664 
L 298.556966 481.291926 
L 299.64142 481.291926 
L 299.912534 481.407463 
L 302.352555 481.518461 
L 302.623669 481.625098 
L 305.06369 481.727546 
L 305.334804 481.825968 
L 307.774825 481.920524 
L 308.045939 482.011365 
L 310.48596 482.098637 
L 310.757074 482.18248 
L 313.197095 482.26303 
L 313.468209 482.340414 
L 315.90823 482.414759 
L 316.179344 482.486183 
L 318.619365 482.5548 
L 318.890479 482.620722 
L 321.3305 482.684054 
L 321.737171 482.744898 
L 324.041635 482.803351 
L 324.448306 482.859508 
L 328.108338 482.965289 
L 328.515008 483.015084 
L 332.17504 483.108881 
L 332.581711 483.153034 
L 336.241743 483.236205 
L 336.648413 483.275356 
L 341.664013 483.383819 
L 342.20624 483.417171 
L 347.086283 483.509568 
L 347.62851 483.537979 
L 353.86412 483.640892 
L 354.541904 483.664144 
L 361.997526 483.767397 
L 362.946423 483.785679 
L 372.842066 483.895045 
L 374.062076 483.908312 
L 387.753308 484.015439 
L 389.786659 484.032177 
L 417.575793 484.142759 
L 422.32028 484.156086 
L 871.690909 484.232727 
L 871.690909 484.232727 
" style="fill:none;stroke:#bfbbd9;stroke-linecap:square;stroke-width:1.5;"/>
   </g>
   <g id="patch_3">
    <path d="M 126 504 
L 126 69.12 
" style="fill:none;stroke:#ffffff;stroke-linecap:square;stroke-linejoin:miter;stroke-width:0.8;"/>
   </g>
   <g id="patch_4">
    <path d="M 907.2 504 
L 907.2 69.12 
" style="fill:none;stroke:#ffffff;stroke-linecap:square;stroke-linejoin:miter;stroke-width:0.8;"/>
   </g>
   <g id="patch_5">
    <path d="M 126 504 
L 907.2 504 
" style="fill:none;stroke:#ffffff;stroke-linecap:square;stroke-linejoin:miter;stroke-width:0.8;"/>
   </g>
   <g id="patch_6">
    <path d="M 126 69.12 
L 907.2 69.12 
" style="fill:none;stroke:#ffffff;stroke-linecap:square;stroke-linejoin:miter;stroke-width:0.8;"/>
   </g>
   <g id="text_15">
    <!-- instance 9 with error 0.0 -->
    <g style="fill:#ffffff;" transform="translate(442.944375 63.12)scale(0.12 -0.12)">
     <defs>
      <path d="M 2834 3397 
L 2834 2853 
Q 2591 2978 2328 3040 
Q 2066 3103 1784 3103 
Q 1356 3103 1142 2972 
Q 928 2841 928 2578 
Q 928 2378 1081 2264 
Q 1234 2150 1697 2047 
L 1894 2003 
Q 2506 1872 2764 1633 
Q 3022 1394 3022 966 
Q 3022 478 2636 193 
Q 2250 -91 1575 -91 
Q 1294 -91 989 -36 
Q 684 19 347 128 
L 347 722 
Q 666 556 975 473 
Q 1284 391 1588 391 
Q 1994 391 2212 530 
Q 2431 669 2431 922 
Q 2431 1156 2273 1281 
Q 2116 1406 1581 1522 
L 1381 1569 
Q 847 1681 609 1914 
Q 372 2147 372 2553 
Q 372 3047 722 3315 
Q 1072 3584 1716 3584 
Q 2034 3584 2315 3537 
Q 2597 3491 2834 3397 
z
" id="DejaVuSans-73" transform="scale(0.015625)"/>
      <path d="M 3122 3366 
L 3122 2828 
Q 2878 2963 2633 3030 
Q 2388 3097 2138 3097 
Q 1578 3097 1268 2742 
Q 959 2388 959 1747 
Q 959 1106 1268 751 
Q 1578 397 2138 397 
Q 2388 397 2633 464 
Q 2878 531 3122 666 
L 3122 134 
Q 2881 22 2623 -34 
Q 2366 -91 2075 -91 
Q 1284 -91 818 406 
Q 353 903 353 1747 
Q 353 2603 823 3093 
Q 1294 3584 2113 3584 
Q 2378 3584 2631 3529 
Q 2884 3475 3122 3366 
z
" id="DejaVuSans-63" transform="scale(0.015625)"/>
      <path id="DejaVuSans-20" transform="scale(0.015625)"/>
      <path d="M 703 97 
L 703 672 
Q 941 559 1184 500 
Q 1428 441 1663 441 
Q 2288 441 2617 861 
Q 2947 1281 2994 2138 
Q 2813 1869 2534 1725 
Q 2256 1581 1919 1581 
Q 1219 1581 811 2004 
Q 403 2428 403 3163 
Q 403 3881 828 4315 
Q 1253 4750 1959 4750 
Q 2769 4750 3195 4129 
Q 3622 3509 3622 2328 
Q 3622 1225 3098 567 
Q 2575 -91 1691 -91 
Q 1453 -91 1209 -44 
Q 966 3 703 97 
z
M 1959 2075 
Q 2384 2075 2632 2365 
Q 2881 2656 2881 3163 
Q 2881 3666 2632 3958 
Q 2384 4250 1959 4250 
Q 1534 4250 1286 3958 
Q 1038 3666 1038 3163 
Q 1038 2656 1286 2365 
Q 1534 2075 1959 2075 
z
" id="DejaVuSans-39" transform="scale(0.015625)"/>
      <path d="M 269 3500 
L 844 3500 
L 1563 769 
L 2278 3500 
L 2956 3500 
L 3675 769 
L 4391 3500 
L 4966 3500 
L 4050 0 
L 3372 0 
L 2619 2869 
L 1863 0 
L 1184 0 
L 269 3500 
z
" id="DejaVuSans-77" transform="scale(0.015625)"/>
      <path d="M 3513 2113 
L 3513 0 
L 2938 0 
L 2938 2094 
Q 2938 2591 2744 2837 
Q 2550 3084 2163 3084 
Q 1697 3084 1428 2787 
Q 1159 2491 1159 1978 
L 1159 0 
L 581 0 
L 581 4863 
L 1159 4863 
L 1159 2956 
Q 1366 3272 1645 3428 
Q 1925 3584 2291 3584 
Q 2894 3584 3203 3211 
Q 3513 2838 3513 2113 
z
" id="DejaVuSans-68" transform="scale(0.015625)"/>
      <path d="M 684 794 
L 1344 794 
L 1344 0 
L 684 0 
L 684 794 
z
" id="DejaVuSans-2e" transform="scale(0.015625)"/>
     </defs>
     <use xlink:href="#DejaVuSans-69"/>
     <use x="27.783203" xlink:href="#DejaVuSans-6e"/>
     <use x="91.162109" xlink:href="#DejaVuSans-73"/>
     <use x="143.261719" xlink:href="#DejaVuSans-74"/>
     <use x="182.470703" xlink:href="#DejaVuSans-61"/>
     <use x="243.75" xlink:href="#DejaVuSans-6e"/>
     <use x="307.128906" xlink:href="#DejaVuSans-63"/>
     <use x="362.109375" xlink:href="#DejaVuSans-65"/>
     <use x="423.632812" xlink:href="#DejaVuSans-20"/>
     <use x="455.419922" xlink:href="#DejaVuSans-39"/>
     <use x="519.042969" xlink:href="#DejaVuSans-20"/>
     <use x="550.830078" xlink:href="#DejaVuSans-77"/>
     <use x="632.617188" xlink:href="#DejaVuSans-69"/>
     <use x="660.400391" xlink:href="#DejaVuSans-74"/>
     <use x="699.609375" xlink:href="#DejaVuSans-68"/>
     <use x="762.988281" xlink:href="#DejaVuSans-20"/>
     <use x="794.775391" xlink:href="#DejaVuSans-65"/>
     <use x="856.298828" xlink:href="#DejaVuSans-72"/>
     <use x="895.662109" xlink:href="#DejaVuSans-72"/>
     <use x="934.525391" xlink:href="#DejaVuSans-6f"/>
     <use x="995.707031" xlink:href="#DejaVuSans-72"/>
     <use x="1036.820312" xlink:href="#DejaVuSans-20"/>
     <use x="1068.607422" xlink:href="#DejaVuSans-30"/>
     <use x="1132.230469" xlink:href="#DejaVuSans-2e"/>
     <use x="1164.017578" xlink:href="#DejaVuSans-30"/>
    </g>
   </g>
   <g id="legend_1">
    <g id="patch_7">
     <path d="M 805.348438 499 
L 900.2 499 
Q 902.2 499 902.2 497 
L 902.2 453.965625 
Q 902.2 451.965625 900.2 451.965625 
L 805.348438 451.965625 
Q 803.348438 451.965625 803.348438 453.965625 
L 803.348438 497 
Q 803.348438 499 805.348438 499 
z
" style="opacity:0.8;stroke:#cccccc;stroke-linejoin:miter;"/>
    </g>
    <g id="line2d_17">
     <path d="M 807.348438 460.064062 
L 827.348438 460.064062 
" style="fill:none;stroke:#8dd3c7;stroke-linecap:square;stroke-width:1.5;"/>
    </g>
    <g id="line2d_18"/>
    <g id="text_16">
     <!-- cost -->
     <g style="fill:#ffffff;" transform="translate(835.348438 463.564062)scale(0.1 -0.1)">
      <use xlink:href="#DejaVuSans-63"/>
      <use x="54.980469" xlink:href="#DejaVuSans-6f"/>
      <use x="116.162109" xlink:href="#DejaVuSans-73"/>
      <use x="168.261719" xlink:href="#DejaVuSans-74"/>
     </g>
    </g>
    <g id="line2d_19">
     <path d="M 807.348438 474.742188 
L 827.348438 474.742188 
" style="fill:none;stroke:#feffb3;stroke-linecap:square;stroke-width:1.5;"/>
    </g>
    <g id="line2d_20"/>
    <g id="text_17">
     <!-- best cost -->
     <g style="fill:#ffffff;" transform="translate(835.348438 478.242188)scale(0.1 -0.1)">
      <defs>
       <path d="M 3116 1747 
Q 3116 2381 2855 2742 
Q 2594 3103 2138 3103 
Q 1681 3103 1420 2742 
Q 1159 2381 1159 1747 
Q 1159 1113 1420 752 
Q 1681 391 2138 391 
Q 2594 391 2855 752 
Q 3116 1113 3116 1747 
z
M 1159 2969 
Q 1341 3281 1617 3432 
Q 1894 3584 2278 3584 
Q 2916 3584 3314 3078 
Q 3713 2572 3713 1747 
Q 3713 922 3314 415 
Q 2916 -91 2278 -91 
Q 1894 -91 1617 61 
Q 1341 213 1159 525 
L 1159 0 
L 581 0 
L 581 4863 
L 1159 4863 
L 1159 2969 
z
" id="DejaVuSans-62" transform="scale(0.015625)"/>
      </defs>
      <use xlink:href="#DejaVuSans-62"/>
      <use x="63.476562" xlink:href="#DejaVuSans-65"/>
      <use x="125" xlink:href="#DejaVuSans-73"/>
      <use x="177.099609" xlink:href="#DejaVuSans-74"/>
      <use x="216.308594" xlink:href="#DejaVuSans-20"/>
      <use x="248.095703" xlink:href="#DejaVuSans-63"/>
      <use x="303.076172" xlink:href="#DejaVuSans-6f"/>
      <use x="364.257812" xlink:href="#DejaVuSans-73"/>
      <use x="416.357422" xlink:href="#DejaVuSans-74"/>
     </g>
    </g>
    <g id="line2d_21">
     <path d="M 807.348438 489.420313 
L 827.348438 489.420313 
" style="fill:none;stroke:#bfbbd9;stroke-linecap:square;stroke-width:1.5;"/>
    </g>
    <g id="line2d_22"/>
    <g id="text_18">
     <!-- temperature -->
     <g style="fill:#ffffff;" transform="translate(835.348438 492.920313)scale(0.1 -0.1)">
      <defs>
       <path d="M 3328 2828 
Q 3544 3216 3844 3400 
Q 4144 3584 4550 3584 
Q 5097 3584 5394 3201 
Q 5691 2819 5691 2113 
L 5691 0 
L 5113 0 
L 5113 2094 
Q 5113 2597 4934 2840 
Q 4756 3084 4391 3084 
Q 3944 3084 3684 2787 
Q 3425 2491 3425 1978 
L 3425 0 
L 2847 0 
L 2847 2094 
Q 2847 2600 2669 2842 
Q 2491 3084 2119 3084 
Q 1678 3084 1418 2786 
Q 1159 2488 1159 1978 
L 1159 0 
L 581 0 
L 581 3500 
L 1159 3500 
L 1159 2956 
Q 1356 3278 1631 3431 
Q 1906 3584 2284 3584 
Q 2666 3584 2933 3390 
Q 3200 3197 3328 2828 
z
" id="DejaVuSans-6d" transform="scale(0.015625)"/>
       <path d="M 1159 525 
L 1159 -1331 
L 581 -1331 
L 581 3500 
L 1159 3500 
L 1159 2969 
Q 1341 3281 1617 3432 
Q 1894 3584 2278 3584 
Q 2916 3584 3314 3078 
Q 3713 2572 3713 1747 
Q 3713 922 3314 415 
Q 2916 -91 2278 -91 
Q 1894 -91 1617 61 
Q 1341 213 1159 525 
z
M 3116 1747 
Q 3116 2381 2855 2742 
Q 2594 3103 2138 3103 
Q 1681 3103 1420 2742 
Q 1159 2381 1159 1747 
Q 1159 1113 1420 752 
Q 1681 391 2138 391 
Q 2594 391 2855 752 
Q 3116 1113 3116 1747 
z
" id="DejaVuSans-70" transform="scale(0.015625)"/>
       <path d="M 544 1381 
L 544 3500 
L 1119 3500 
L 1119 1403 
Q 1119 906 1312 657 
Q 1506 409 1894 409 
Q 2359 409 2629 706 
Q 2900 1003 2900 1516 
L 2900 3500 
L 3475 3500 
L 3475 0 
L 2900 0 
L 2900 538 
Q 2691 219 2414 64 
Q 2138 -91 1772 -91 
Q 1169 -91 856 284 
Q 544 659 544 1381 
z
M 1991 3584 
L 1991 3584 
z
" id="DejaVuSans-75" transform="scale(0.015625)"/>
      </defs>
      <use xlink:href="#DejaVuSans-74"/>
      <use x="39.208984" xlink:href="#DejaVuSans-65"/>
      <use x="100.732422" xlink:href="#DejaVuSans-6d"/>
      <use x="198.144531" xlink:href="#DejaVuSans-70"/>
      <use x="261.621094" xlink:href="#DejaVuSans-65"/>
      <use x="323.144531" xlink:href="#DejaVuSans-72"/>
      <use x="364.257812" xlink:href="#DejaVuSans-61"/>
      <use x="425.537109" xlink:href="#DejaVuSans-74"/>
      <use x="464.746094" xlink:href="#DejaVuSans-75"/>
      <use x="528.125" xlink:href="#DejaVuSans-72"/>
      <use x="566.988281" xlink:href="#DejaVuSans-65"/>
     </g>
    </g>
   </g>
  </g>
 </g>
 <defs>
  <clipPath id="pc1210df9f9">
   <rect height="434.88" width="781.2" x="126" y="69.12"/>
  </clipPath>
 </defs>
</svg>
