<?xml version="1.0" encoding="utf-8" standalone="no"?>
<!DOCTYPE svg PUBLIC "-//W3C//DTD SVG 1.1//EN"
  "http://www.w3.org/Graphics/SVG/1.1/DTD/svg11.dtd">
<svg height="576pt" version="1.1" viewBox="0 0 1008 576" width="1008pt" xmlns="http://www.w3.org/2000/svg" xmlns:xlink="http://www.w3.org/1999/xlink">
 <metadata>
  <rdf:RDF xmlns:cc="http://creativecommons.org/ns#" xmlns:dc="http://purl.org/dc/elements/1.1/" xmlns:rdf="http://www.w3.org/1999/02/22-rdf-syntax-ns#">
   <cc:Work>
    <dc:type rdf:resource="http://purl.org/dc/dcmitype/StillImage"/>
    <dc:date>2022-01-07T00:38:47.928457</dc:date>
    <dc:format>image/svg+xml</dc:format>
    <dc:creator>
     <cc:Agent>
      <dc:title>Matplotlib v3.4.3, https://matplotlib.org/</dc:title>
     </cc:Agent>
    </dc:creator>
   </cc:Work>
  </rdf:RDF>
 </metadata>
 <defs>
  <style type="text/css">*{stroke-linecap:butt;stroke-linejoin:round;}</style>
 </defs>
 <g id="figure_1">
  <g id="patch_1">
   <path d="M 0 576 
L 1008 576 
L 1008 0 
L 0 0 
z
"/>
  </g>
  <g id="axes_1">
   <g id="patch_2">
    <path d="M 126 504 
L 907.2 504 
L 907.2 69.12 
L 126 69.12 
z
"/>
   </g>
   <g id="matplotlib.axis_1">
    <g id="xtick_1">
     <g id="line2d_1">
      <defs>
       <path d="M 0 0 
L 0 3.5 
" id="m2ecf28bcb9" style="stroke:#ffffff;stroke-width:0.8;"/>
      </defs>
      <g>
       <use style="fill:#ffffff;stroke:#ffffff;stroke-width:0.8;" x="161.509091" xlink:href="#m2ecf28bcb9" y="504"/>
      </g>
     </g>
     <g id="text_1">
      <!-- 0 -->
      <g style="fill:#ffffff;" transform="translate(158.327841 518.598438)scale(0.1 -0.1)">
       <defs>
        <path d="M 2034 4250 
Q 1547 4250 1301 3770 
Q 1056 3291 1056 2328 
Q 1056 1369 1301 889 
Q 1547 409 2034 409 
Q 2525 409 2770 889 
Q 3016 1369 3016 2328 
Q 3016 3291 2770 3770 
Q 2525 4250 2034 4250 
z
M 2034 4750 
Q 2819 4750 3233 4129 
Q 3647 3509 3647 2328 
Q 3647 1150 3233 529 
Q 2819 -91 2034 -91 
Q 1250 -91 836 529 
Q 422 1150 422 2328 
Q 422 3509 836 4129 
Q 1250 4750 2034 4750 
z
" id="DejaVuSans-30" transform="scale(0.015625)"/>
       </defs>
       <use xlink:href="#DejaVuSans-30"/>
      </g>
     </g>
    </g>
    <g id="xtick_2">
     <g id="line2d_2">
      <g>
       <use style="fill:#ffffff;stroke:#ffffff;stroke-width:0.8;" x="309.52531" xlink:href="#m2ecf28bcb9" y="504"/>
      </g>
     </g>
     <g id="text_2">
      <!-- 500 -->
      <g style="fill:#ffffff;" transform="translate(299.98156 518.598438)scale(0.1 -0.1)">
       <defs>
        <path d="M 691 4666 
L 3169 4666 
L 3169 4134 
L 1269 4134 
L 1269 2991 
Q 1406 3038 1543 3061 
Q 1681 3084 1819 3084 
Q 2600 3084 3056 2656 
Q 3513 2228 3513 1497 
Q 3513 744 3044 326 
Q 2575 -91 1722 -91 
Q 1428 -91 1123 -41 
Q 819 9 494 109 
L 494 744 
Q 775 591 1075 516 
Q 1375 441 1709 441 
Q 2250 441 2565 725 
Q 2881 1009 2881 1497 
Q 2881 1984 2565 2268 
Q 2250 2553 1709 2553 
Q 1456 2553 1204 2497 
Q 953 2441 691 2322 
L 691 4666 
z
" id="DejaVuSans-35" transform="scale(0.015625)"/>
       </defs>
       <use xlink:href="#DejaVuSans-35"/>
       <use x="63.623047" xlink:href="#DejaVuSans-30"/>
       <use x="127.246094" xlink:href="#DejaVuSans-30"/>
      </g>
     </g>
    </g>
    <g id="xtick_3">
     <g id="line2d_3">
      <g>
       <use style="fill:#ffffff;stroke:#ffffff;stroke-width:0.8;" x="457.541529" xlink:href="#m2ecf28bcb9" y="504"/>
      </g>
     </g>
     <g id="text_3">
      <!-- 1000 -->
      <g style="fill:#ffffff;" transform="translate(444.816529 518.598438)scale(0.1 -0.1)">
       <defs>
        <path d="M 794 531 
L 1825 531 
L 1825 4091 
L 703 3866 
L 703 4441 
L 1819 4666 
L 2450 4666 
L 2450 531 
L 3481 531 
L 3481 0 
L 794 0 
L 794 531 
z
" id="DejaVuSans-31" transform="scale(0.015625)"/>
       </defs>
       <use xlink:href="#DejaVuSans-31"/>
       <use x="63.623047" xlink:href="#DejaVuSans-30"/>
       <use x="127.246094" xlink:href="#DejaVuSans-30"/>
       <use x="190.869141" xlink:href="#DejaVuSans-30"/>
      </g>
     </g>
    </g>
    <g id="xtick_4">
     <g id="line2d_4">
      <g>
       <use style="fill:#ffffff;stroke:#ffffff;stroke-width:0.8;" x="605.557748" xlink:href="#m2ecf28bcb9" y="504"/>
      </g>
     </g>
     <g id="text_4">
      <!-- 1500 -->
      <g style="fill:#ffffff;" transform="translate(592.832748 518.598438)scale(0.1 -0.1)">
       <use xlink:href="#DejaVuSans-31"/>
       <use x="63.623047" xlink:href="#DejaVuSans-35"/>
       <use x="127.246094" xlink:href="#DejaVuSans-30"/>
       <use x="190.869141" xlink:href="#DejaVuSans-30"/>
      </g>
     </g>
    </g>
    <g id="xtick_5">
     <g id="line2d_5">
      <g>
       <use style="fill:#ffffff;stroke:#ffffff;stroke-width:0.8;" x="753.573966" xlink:href="#m2ecf28bcb9" y="504"/>
      </g>
     </g>
     <g id="text_5">
      <!-- 2000 -->
      <g style="fill:#ffffff;" transform="translate(740.848966 518.598438)scale(0.1 -0.1)">
       <defs>
        <path d="M 1228 531 
L 3431 531 
L 3431 0 
L 469 0 
L 469 531 
Q 828 903 1448 1529 
Q 2069 2156 2228 2338 
Q 2531 2678 2651 2914 
Q 2772 3150 2772 3378 
Q 2772 3750 2511 3984 
Q 2250 4219 1831 4219 
Q 1534 4219 1204 4116 
Q 875 4013 500 3803 
L 500 4441 
Q 881 4594 1212 4672 
Q 1544 4750 1819 4750 
Q 2544 4750 2975 4387 
Q 3406 4025 3406 3419 
Q 3406 3131 3298 2873 
Q 3191 2616 2906 2266 
Q 2828 2175 2409 1742 
Q 1991 1309 1228 531 
z
" id="DejaVuSans-32" transform="scale(0.015625)"/>
       </defs>
       <use xlink:href="#DejaVuSans-32"/>
       <use x="63.623047" xlink:href="#DejaVuSans-30"/>
       <use x="127.246094" xlink:href="#DejaVuSans-30"/>
       <use x="190.869141" xlink:href="#DejaVuSans-30"/>
      </g>
     </g>
    </g>
    <g id="xtick_6">
     <g id="line2d_6">
      <g>
       <use style="fill:#ffffff;stroke:#ffffff;stroke-width:0.8;" x="901.590185" xlink:href="#m2ecf28bcb9" y="504"/>
      </g>
     </g>
     <g id="text_6">
      <!-- 2500 -->
      <g style="fill:#ffffff;" transform="translate(888.865185 518.598438)scale(0.1 -0.1)">
       <use xlink:href="#DejaVuSans-32"/>
       <use x="63.623047" xlink:href="#DejaVuSans-35"/>
       <use x="127.246094" xlink:href="#DejaVuSans-30"/>
       <use x="190.869141" xlink:href="#DejaVuSans-30"/>
      </g>
     </g>
    </g>
    <g id="text_7">
     <!-- iteration -->
     <g style="fill:#ffffff;" transform="translate(495.477344 532.276562)scale(0.1 -0.1)">
      <defs>
       <path d="M 603 3500 
L 1178 3500 
L 1178 0 
L 603 0 
L 603 3500 
z
M 603 4863 
L 1178 4863 
L 1178 4134 
L 603 4134 
L 603 4863 
z
" id="DejaVuSans-69" transform="scale(0.015625)"/>
       <path d="M 1172 4494 
L 1172 3500 
L 2356 3500 
L 2356 3053 
L 1172 3053 
L 1172 1153 
Q 1172 725 1289 603 
Q 1406 481 1766 481 
L 2356 481 
L 2356 0 
L 1766 0 
Q 1100 0 847 248 
Q 594 497 594 1153 
L 594 3053 
L 172 3053 
L 172 3500 
L 594 3500 
L 594 4494 
L 1172 4494 
z
" id="DejaVuSans-74" transform="scale(0.015625)"/>
       <path d="M 3597 1894 
L 3597 1613 
L 953 1613 
Q 991 1019 1311 708 
Q 1631 397 2203 397 
Q 2534 397 2845 478 
Q 3156 559 3463 722 
L 3463 178 
Q 3153 47 2828 -22 
Q 2503 -91 2169 -91 
Q 1331 -91 842 396 
Q 353 884 353 1716 
Q 353 2575 817 3079 
Q 1281 3584 2069 3584 
Q 2775 3584 3186 3129 
Q 3597 2675 3597 1894 
z
M 3022 2063 
Q 3016 2534 2758 2815 
Q 2500 3097 2075 3097 
Q 1594 3097 1305 2825 
Q 1016 2553 972 2059 
L 3022 2063 
z
" id="DejaVuSans-65" transform="scale(0.015625)"/>
       <path d="M 2631 2963 
Q 2534 3019 2420 3045 
Q 2306 3072 2169 3072 
Q 1681 3072 1420 2755 
Q 1159 2438 1159 1844 
L 1159 0 
L 581 0 
L 581 3500 
L 1159 3500 
L 1159 2956 
Q 1341 3275 1631 3429 
Q 1922 3584 2338 3584 
Q 2397 3584 2469 3576 
Q 2541 3569 2628 3553 
L 2631 2963 
z
" id="DejaVuSans-72" transform="scale(0.015625)"/>
       <path d="M 2194 1759 
Q 1497 1759 1228 1600 
Q 959 1441 959 1056 
Q 959 750 1161 570 
Q 1363 391 1709 391 
Q 2188 391 2477 730 
Q 2766 1069 2766 1631 
L 2766 1759 
L 2194 1759 
z
M 3341 1997 
L 3341 0 
L 2766 0 
L 2766 531 
Q 2569 213 2275 61 
Q 1981 -91 1556 -91 
Q 1019 -91 701 211 
Q 384 513 384 1019 
Q 384 1609 779 1909 
Q 1175 2209 1959 2209 
L 2766 2209 
L 2766 2266 
Q 2766 2663 2505 2880 
Q 2244 3097 1772 3097 
Q 1472 3097 1187 3025 
Q 903 2953 641 2809 
L 641 3341 
Q 956 3463 1253 3523 
Q 1550 3584 1831 3584 
Q 2591 3584 2966 3190 
Q 3341 2797 3341 1997 
z
" id="DejaVuSans-61" transform="scale(0.015625)"/>
       <path d="M 1959 3097 
Q 1497 3097 1228 2736 
Q 959 2375 959 1747 
Q 959 1119 1226 758 
Q 1494 397 1959 397 
Q 2419 397 2687 759 
Q 2956 1122 2956 1747 
Q 2956 2369 2687 2733 
Q 2419 3097 1959 3097 
z
M 1959 3584 
Q 2709 3584 3137 3096 
Q 3566 2609 3566 1747 
Q 3566 888 3137 398 
Q 2709 -91 1959 -91 
Q 1206 -91 779 398 
Q 353 888 353 1747 
Q 353 2609 779 3096 
Q 1206 3584 1959 3584 
z
" id="DejaVuSans-6f" transform="scale(0.015625)"/>
       <path d="M 3513 2113 
L 3513 0 
L 2938 0 
L 2938 2094 
Q 2938 2591 2744 2837 
Q 2550 3084 2163 3084 
Q 1697 3084 1428 2787 
Q 1159 2491 1159 1978 
L 1159 0 
L 581 0 
L 581 3500 
L 1159 3500 
L 1159 2956 
Q 1366 3272 1645 3428 
Q 1925 3584 2291 3584 
Q 2894 3584 3203 3211 
Q 3513 2838 3513 2113 
z
" id="DejaVuSans-6e" transform="scale(0.015625)"/>
      </defs>
      <use xlink:href="#DejaVuSans-69"/>
      <use x="27.783203" xlink:href="#DejaVuSans-74"/>
      <use x="66.992188" xlink:href="#DejaVuSans-65"/>
      <use x="128.515625" xlink:href="#DejaVuSans-72"/>
      <use x="169.628906" xlink:href="#DejaVuSans-61"/>
      <use x="230.908203" xlink:href="#DejaVuSans-74"/>
      <use x="270.117188" xlink:href="#DejaVuSans-69"/>
      <use x="297.900391" xlink:href="#DejaVuSans-6f"/>
      <use x="359.082031" xlink:href="#DejaVuSans-6e"/>
     </g>
    </g>
   </g>
   <g id="matplotlib.axis_2">
    <g id="ytick_1">
     <g id="line2d_7">
      <defs>
       <path d="M 0 0 
L -3.5 0 
" id="mdfba3d0287" style="stroke:#ffffff;stroke-width:0.8;"/>
      </defs>
      <g>
       <use style="fill:#ffffff;stroke:#ffffff;stroke-width:0.8;" x="126" xlink:href="#mdfba3d0287" y="484.232727"/>
      </g>
     </g>
     <g id="text_8">
      <!-- 0 -->
      <g style="fill:#ffffff;" transform="translate(112.6375 488.031946)scale(0.1 -0.1)">
       <use xlink:href="#DejaVuSans-30"/>
      </g>
     </g>
    </g>
    <g id="ytick_2">
     <g id="line2d_8">
      <g>
       <use style="fill:#ffffff;stroke:#ffffff;stroke-width:0.8;" x="126" xlink:href="#mdfba3d0287" y="416.26308"/>
      </g>
     </g>
     <g id="text_9">
      <!-- 2000 -->
      <g style="fill:#ffffff;" transform="translate(93.55 420.062299)scale(0.1 -0.1)">
       <use xlink:href="#DejaVuSans-32"/>
       <use x="63.623047" xlink:href="#DejaVuSans-30"/>
       <use x="127.246094" xlink:href="#DejaVuSans-30"/>
       <use x="190.869141" xlink:href="#DejaVuSans-30"/>
      </g>
     </g>
    </g>
    <g id="ytick_3">
     <g id="line2d_9">
      <g>
       <use style="fill:#ffffff;stroke:#ffffff;stroke-width:0.8;" x="126" xlink:href="#mdfba3d0287" y="348.293432"/>
      </g>
     </g>
     <g id="text_10">
      <!-- 4000 -->
      <g style="fill:#ffffff;" transform="translate(93.55 352.092651)scale(0.1 -0.1)">
       <defs>
        <path d="M 2419 4116 
L 825 1625 
L 2419 1625 
L 2419 4116 
z
M 2253 4666 
L 3047 4666 
L 3047 1625 
L 3713 1625 
L 3713 1100 
L 3047 1100 
L 3047 0 
L 2419 0 
L 2419 1100 
L 313 1100 
L 313 1709 
L 2253 4666 
z
" id="DejaVuSans-34" transform="scale(0.015625)"/>
       </defs>
       <use xlink:href="#DejaVuSans-34"/>
       <use x="63.623047" xlink:href="#DejaVuSans-30"/>
       <use x="127.246094" xlink:href="#DejaVuSans-30"/>
       <use x="190.869141" xlink:href="#DejaVuSans-30"/>
      </g>
     </g>
    </g>
    <g id="ytick_4">
     <g id="line2d_10">
      <g>
       <use style="fill:#ffffff;stroke:#ffffff;stroke-width:0.8;" x="126" xlink:href="#mdfba3d0287" y="280.323785"/>
      </g>
     </g>
     <g id="text_11">
      <!-- 6000 -->
      <g style="fill:#ffffff;" transform="translate(93.55 284.123004)scale(0.1 -0.1)">
       <defs>
        <path d="M 2113 2584 
Q 1688 2584 1439 2293 
Q 1191 2003 1191 1497 
Q 1191 994 1439 701 
Q 1688 409 2113 409 
Q 2538 409 2786 701 
Q 3034 994 3034 1497 
Q 3034 2003 2786 2293 
Q 2538 2584 2113 2584 
z
M 3366 4563 
L 3366 3988 
Q 3128 4100 2886 4159 
Q 2644 4219 2406 4219 
Q 1781 4219 1451 3797 
Q 1122 3375 1075 2522 
Q 1259 2794 1537 2939 
Q 1816 3084 2150 3084 
Q 2853 3084 3261 2657 
Q 3669 2231 3669 1497 
Q 3669 778 3244 343 
Q 2819 -91 2113 -91 
Q 1303 -91 875 529 
Q 447 1150 447 2328 
Q 447 3434 972 4092 
Q 1497 4750 2381 4750 
Q 2619 4750 2861 4703 
Q 3103 4656 3366 4563 
z
" id="DejaVuSans-36" transform="scale(0.015625)"/>
       </defs>
       <use xlink:href="#DejaVuSans-36"/>
       <use x="63.623047" xlink:href="#DejaVuSans-30"/>
       <use x="127.246094" xlink:href="#DejaVuSans-30"/>
       <use x="190.869141" xlink:href="#DejaVuSans-30"/>
      </g>
     </g>
    </g>
    <g id="ytick_5">
     <g id="line2d_11">
      <g>
       <use style="fill:#ffffff;stroke:#ffffff;stroke-width:0.8;" x="126" xlink:href="#mdfba3d0287" y="212.354137"/>
      </g>
     </g>
     <g id="text_12">
      <!-- 8000 -->
      <g style="fill:#ffffff;" transform="translate(93.55 216.153356)scale(0.1 -0.1)">
       <defs>
        <path d="M 2034 2216 
Q 1584 2216 1326 1975 
Q 1069 1734 1069 1313 
Q 1069 891 1326 650 
Q 1584 409 2034 409 
Q 2484 409 2743 651 
Q 3003 894 3003 1313 
Q 3003 1734 2745 1975 
Q 2488 2216 2034 2216 
z
M 1403 2484 
Q 997 2584 770 2862 
Q 544 3141 544 3541 
Q 544 4100 942 4425 
Q 1341 4750 2034 4750 
Q 2731 4750 3128 4425 
Q 3525 4100 3525 3541 
Q 3525 3141 3298 2862 
Q 3072 2584 2669 2484 
Q 3125 2378 3379 2068 
Q 3634 1759 3634 1313 
Q 3634 634 3220 271 
Q 2806 -91 2034 -91 
Q 1263 -91 848 271 
Q 434 634 434 1313 
Q 434 1759 690 2068 
Q 947 2378 1403 2484 
z
M 1172 3481 
Q 1172 3119 1398 2916 
Q 1625 2713 2034 2713 
Q 2441 2713 2670 2916 
Q 2900 3119 2900 3481 
Q 2900 3844 2670 4047 
Q 2441 4250 2034 4250 
Q 1625 4250 1398 4047 
Q 1172 3844 1172 3481 
z
" id="DejaVuSans-38" transform="scale(0.015625)"/>
       </defs>
       <use xlink:href="#DejaVuSans-38"/>
       <use x="63.623047" xlink:href="#DejaVuSans-30"/>
       <use x="127.246094" xlink:href="#DejaVuSans-30"/>
       <use x="190.869141" xlink:href="#DejaVuSans-30"/>
      </g>
     </g>
    </g>
    <g id="ytick_6">
     <g id="line2d_12">
      <g>
       <use style="fill:#ffffff;stroke:#ffffff;stroke-width:0.8;" x="126" xlink:href="#mdfba3d0287" y="144.38449"/>
      </g>
     </g>
     <g id="text_13">
      <!-- 10000 -->
      <g style="fill:#ffffff;" transform="translate(87.1875 148.183709)scale(0.1 -0.1)">
       <use xlink:href="#DejaVuSans-31"/>
       <use x="63.623047" xlink:href="#DejaVuSans-30"/>
       <use x="127.246094" xlink:href="#DejaVuSans-30"/>
       <use x="190.869141" xlink:href="#DejaVuSans-30"/>
       <use x="254.492188" xlink:href="#DejaVuSans-30"/>
      </g>
     </g>
    </g>
    <g id="ytick_7">
     <g id="line2d_13">
      <g>
       <use style="fill:#ffffff;stroke:#ffffff;stroke-width:0.8;" x="126" xlink:href="#mdfba3d0287" y="76.414842"/>
      </g>
     </g>
     <g id="text_14">
      <!-- 12000 -->
      <g style="fill:#ffffff;" transform="translate(87.1875 80.214061)scale(0.1 -0.1)">
       <use xlink:href="#DejaVuSans-31"/>
       <use x="63.623047" xlink:href="#DejaVuSans-32"/>
       <use x="127.246094" xlink:href="#DejaVuSans-30"/>
       <use x="190.869141" xlink:href="#DejaVuSans-30"/>
       <use x="254.492188" xlink:href="#DejaVuSans-30"/>
      </g>
     </g>
    </g>
   </g>
   <g id="line2d_14">
    <path clip-path="url(#p42e67f092c)" d="M 161.509091 404.742225 
L 161.805123 356.483775 
L 162.101156 413.816172 
L 162.397188 406.305526 
L 162.989253 476.722081 
L 163.581318 476.722081 
L 163.87735 474.003295 
L 164.173383 474.003295 
L 164.469415 427.274163 
L 164.765448 350.706355 
L 165.357513 350.706355 
L 165.653545 454.496007 
L 165.949577 433.935188 
L 166.24561 454.496007 
L 166.541642 429.449191 
L 166.837675 444.300559 
L 167.133707 425.506952 
L 167.42974 474.03728 
L 168.021805 410.859493 
L 168.317837 410.859493 
L 168.613869 388.905297 
L 168.909902 388.905297 
L 169.205934 342.07421 
L 169.501967 418.642017 
L 170.686096 418.642017 
L 170.982129 411.131371 
L 171.278161 420.681107 
L 171.574194 382.312241 
L 171.870226 399.84841 
L 172.166259 388.29357 
L 172.462291 363.246755 
L 172.758324 388.29357 
L 173.054356 322.396997 
L 173.350388 333.951837 
L 173.646421 333.951837 
L 174.238486 234.614197 
L 174.534518 256.568393 
L 174.830551 218.199527 
L 175.126583 246.54287 
L 175.422615 404.742225 
L 175.718648 353.663034 
L 176.01468 277.095227 
L 176.310713 277.095227 
L 176.606745 404.742225 
L 176.902778 413.408355 
L 177.19881 336.840547 
L 177.790875 264.384903 
L 178.086907 340.95271 
L 178.678972 340.95271 
L 178.975005 349.584856 
L 179.271037 383.671634 
L 179.56707 369.737856 
L 180.159134 325.319691 
L 180.455167 378.70985 
L 180.751199 459.049973 
L 181.343264 379.55947 
L 181.639297 445.422059 
L 181.935329 445.422059 
L 182.231362 442.873197 
L 182.527394 417.826382 
L 182.823426 445.422059 
L 183.119459 432.405871 
L 183.415491 432.405871 
L 183.711524 424.895225 
L 184.007556 348.327417 
L 184.303589 424.895225 
L 184.599621 348.327417 
L 184.895653 348.327417 
L 185.191686 432.405871 
L 185.487718 422.210424 
L 185.783751 356.313851 
L 186.079783 369.771841 
L 186.375816 369.771841 
L 186.671848 400.630061 
L 186.967881 400.630061 
L 187.263913 481.038154 
L 187.559945 481.038154 
L 187.855978 444.334544 
L 188.15201 444.334544 
L 188.448043 367.766736 
L 188.744075 407.664919 
L 189.040108 404.470346 
L 189.632172 307.579613 
L 189.928205 307.579613 
L 190.224237 282.532798 
L 190.52027 326.849009 
L 190.816302 403.416816 
L 191.408367 454.496007 
L 191.7044 451.777221 
L 192.000432 454.496007 
L 192.296464 444.300559 
L 192.592497 378.403986 
L 192.888529 354.512655 
L 193.184562 384.249376 
L 193.480594 335.990926 
L 193.776627 401.887499 
L 194.072659 322.396997 
L 194.368692 297.350182 
L 194.664724 345.608631 
L 195.256789 390.502583 
L 195.552821 481.038154 
L 195.848854 446.951376 
L 196.144886 446.849421 
L 196.440919 463.569954 
L 196.736951 463.569954 
L 197.032983 425.201088 
L 197.329016 455.78743 
L 197.625048 463.569954 
L 197.921081 463.671909 
L 198.217113 461.123047 
L 198.513146 427.036269 
L 198.809178 378.777819 
L 199.105211 396.619852 
L 199.401243 396.619852 
L 199.697275 447.427163 
L 199.993308 447.325209 
L 200.28934 481.411987 
L 200.585373 436.110217 
L 201.177438 436.212171 
L 201.47347 481.513941 
L 201.769502 481.038154 
L 202.065535 459.083958 
L 202.361567 459.083958 
L 202.6576 408.004768 
L 202.953632 381.46262 
L 203.249665 332.932292 
L 203.545697 354.886488 
L 203.84173 405.965678 
L 204.137762 365.285844 
L 204.433794 299.389271 
L 204.729827 365.285844 
L 205.025859 365.285844 
L 205.321892 413.816172 
L 205.617924 413.816172 
L 205.913957 347.919599 
L 206.209989 413.816172 
L 206.506021 411.267311 
L 206.802054 334.699503 
L 207.098086 350.706355 
L 207.394119 350.706355 
L 207.986184 431.862114 
L 208.578249 431.862114 
L 208.874281 380.782924 
L 209.170313 408.106722 
L 209.466346 359.848272 
L 209.762378 408.106722 
L 210.058411 405.387936 
L 210.354443 405.387936 
L 210.650476 383.43374 
L 210.946508 375.923094 
L 211.24254 375.923094 
L 211.538573 383.43374 
L 211.834605 408.106722 
L 212.130638 379.763379 
L 212.42667 430.842569 
L 212.722703 455.889384 
L 213.018735 436.212171 
L 213.314768 436.212171 
L 213.6108 427.274163 
L 213.906832 432.405871 
L 214.498897 385.40486 
L 214.79493 409.907918 
L 215.090962 409.907918 
L 215.386995 431.862114 
L 215.683027 431.760159 
L 215.979059 413.714218 
L 216.275092 424.589362 
L 216.571124 413.408355 
L 217.163189 413.3064 
L 217.459222 361.479544 
L 217.755254 361.479544 
L 218.051287 402.567196 
L 218.347319 426.050709 
L 218.643351 416.025186 
L 218.939384 388.803342 
L 219.235416 420.715092 
L 219.531449 420.273289 
L 219.827481 445.422059 
L 220.123514 397.163609 
L 220.419546 463.671909 
L 220.715578 484.232727 
L 221.011611 454.496007 
L 221.899708 454.394052 
L 222.195741 473.935326 
L 222.491773 439.848547 
L 222.787806 473.935326 
L 223.083838 314.988305 
L 223.37987 356.585729 
L 223.675903 277.095227 
L 223.971935 349.075083 
L 224.860033 348.973129 
L 225.156065 404.844179 
L 225.452097 404.844179 
L 225.74813 370.757401 
L 226.044162 365.965541 
L 226.340195 373.476187 
L 226.636227 302.651814 
L 226.93226 300.102952 
L 227.228292 300.102952 
L 227.524325 376.67076 
L 227.820357 325.59157 
L 228.116389 447.495133 
L 228.412422 390.536568 
L 228.708454 406.407481 
L 229.004487 403.858619 
L 229.300519 370.553492 
L 229.596552 463.671909 
L 230.188616 402.66915 
L 230.484649 351.58996 
L 230.780681 394.342868 
L 231.076714 394.240914 
L 231.372746 455.889384 
L 231.668779 430.842569 
L 231.964811 382.584119 
L 232.260844 455.889384 
L 232.556876 484.232727 
L 232.852908 440.596214 
L 233.148941 433.085568 
L 233.741006 433.085568 
L 234.037038 427.274163 
L 234.333071 481.513941 
L 234.629103 481.038154 
L 234.925135 429.958964 
L 235.221168 413.408355 
L 235.5172 413.408355 
L 236.109265 363.110815 
L 236.405298 391.454158 
L 236.70133 366.407343 
L 236.997363 388.36154 
L 237.293395 388.36154 
L 237.589427 413.408355 
L 237.88546 369.771841 
L 238.181492 369.771841 
L 238.477525 413.408355 
L 238.773557 379.321576 
L 239.06959 413.408355 
L 239.365622 336.840547 
L 239.661654 336.840547 
L 239.957687 427.274163 
L 240.253719 427.274163 
L 240.549752 393.187384 
L 240.845784 393.187384 
L 241.141817 395.804216 
L 241.437849 393.255354 
L 241.733882 379.321576 
L 242.029914 404.742225 
L 242.325946 375.005504 
L 242.918011 479.236958 
L 243.510076 394.037005 
L 243.806109 429.687085 
L 244.102141 404.062528 
L 244.398173 481.038154 
L 244.694206 442.669288 
L 244.990238 431.760159 
L 245.286271 470.129025 
L 245.582303 462.618379 
L 245.878336 424.351468 
L 246.174368 424.351468 
L 246.470401 413.408355 
L 246.766433 413.408355 
L 247.062465 405.897709 
L 247.358498 476.722081 
L 247.950563 476.620127 
L 248.246595 442.533349 
L 248.542628 394.00302 
L 248.83866 317.435212 
L 249.134692 324.945858 
L 249.726757 484.130773 
L 250.02279 424.487407 
L 250.614855 424.589362 
L 250.910887 436.212171 
L 251.20692 359.644363 
L 251.502952 407.664919 
L 251.798984 328.174417 
L 252.095017 404.946133 
L 252.391049 377.928199 
L 252.687082 375.379337 
L 252.983114 375.379337 
L 253.279147 451.947145 
L 253.871211 351.861839 
L 254.167244 373.951974 
L 254.463276 373.951974 
L 254.759309 384.147421 
L 255.055341 365.557723 
L 255.351374 463.671909 
L 255.647406 436.212171 
L 255.943439 436.212171 
L 256.239471 411.165356 
L 256.535503 411.165356 
L 256.831536 403.65471 
L 257.127568 463.671909 
L 257.423601 427.274163 
L 257.719633 419.763517 
L 258.015666 371.505067 
L 258.311698 379.015713 
L 258.60773 330.485385 
L 259.495828 479.236958 
L 259.79186 428.157768 
L 260.087893 420.647122 
L 260.383925 425.642891 
L 260.679958 377.112563 
L 260.97599 306.696008 
L 261.272022 355.226336 
L 261.568055 329.737719 
L 261.864087 329.737719 
L 262.16012 307.783522 
L 262.752185 307.783522 
L 263.344249 431.862114 
L 264.232347 431.862114 
L 264.528379 380.782924 
L 264.824412 429.958964 
L 265.120444 459.049973 
L 265.416477 459.049973 
L 265.712509 448.854526 
L 266.008541 381.326681 
L 266.896639 381.224727 
L 267.192671 378.675865 
L 267.488704 429.755055 
L 267.784736 442.771242 
L 268.080769 442.771242 
L 268.376801 429.211298 
L 268.968866 429.211298 
L 269.264898 413.3064 
L 269.560931 467.138361 
L 270.152996 417.520518 
L 270.449028 417.520518 
L 270.74506 387.783798 
L 271.041093 387.783798 
L 271.337125 414.597823 
L 271.92919 388.769357 
L 272.225223 337.690167 
L 272.521255 388.769357 
L 272.817288 413.816172 
L 274.001417 413.816172 
L 274.29745 379.729394 
L 274.593482 377.180532 
L 274.889515 413.816172 
L 275.185547 413.816172 
L 275.481579 484.232727 
L 275.777612 431.862114 
L 276.073644 431.760159 
L 276.369677 461.123047 
L 276.665709 463.671909 
L 276.961742 463.671909 
L 277.257774 438.625094 
L 277.553807 438.625094 
L 277.849839 463.671909 
L 278.145871 412.592719 
L 278.441904 463.671909 
L 278.737936 440.596214 
L 279.033969 364.028406 
L 279.330001 387.104101 
L 279.626034 387.104101 
L 279.922066 393.561218 
L 280.218098 393.561218 
L 281.402228 255.718772 
L 281.698261 294.087638 
L 281.994293 397.231579 
L 282.290326 397.231579 
L 282.586358 431.862114 
L 283.474455 431.862114 
L 283.770488 476.722081 
L 284.06652 484.232727 
L 284.362553 444.334544 
L 284.658585 444.334544 
L 284.954617 436.823898 
L 285.546682 370.655446 
L 286.138747 445.422059 
L 286.43478 445.422059 
L 286.730812 424.589362 
L 287.026845 424.589362 
L 287.322877 390.502583 
L 287.618909 390.400629 
L 287.914942 342.142179 
L 288.210974 401.785545 
L 288.507007 330.961172 
L 288.803039 330.961172 
L 289.099072 429.890994 
L 289.395104 427.342132 
L 289.691136 379.083683 
L 289.987169 433.255492 
L 290.283201 433.153537 
L 290.579234 470.129025 
L 291.171299 470.027071 
L 291.467331 481.038154 
L 291.763364 481.038154 
L 292.059396 455.889384 
L 292.355428 404.062528 
L 292.651461 455.889384 
L 292.947493 385.065012 
L 293.243526 453.170598 
L 293.835591 352.915368 
L 294.131623 404.062528 
L 294.427655 365.693662 
L 294.723688 404.062528 
L 295.01972 404.062528 
L 295.315753 402.66915 
L 295.611785 354.410701 
L 295.907818 344.249238 
L 296.499883 424.589362 
L 296.795915 376.330912 
L 297.091947 424.589362 
L 297.38798 424.589362 
L 297.684012 432.405871 
L 298.276077 287.018795 
L 298.57211 287.018795 
L 299.164174 432.405871 
L 299.460207 384.147421 
L 299.756239 362.193225 
L 300.052272 313.662897 
L 300.348304 413.408355 
L 300.644337 364.878026 
L 300.940369 425.506952 
L 301.236402 374.427762 
L 301.532434 425.506952 
L 301.828466 425.506952 
L 302.124499 400.460137 
L 302.420531 418.709987 
L 302.716564 467.240315 
L 303.308629 467.240315 
L 303.604661 484.232727 
L 304.196726 383.875543 
L 304.492758 356.211896 
L 304.788791 356.211896 
L 305.084823 317.84303 
L 305.380856 366.373359 
L 305.676888 341.326543 
L 305.972921 427.274163 
L 306.268953 376.194973 
L 306.564985 389.517024 
L 306.861018 393.255354 
L 307.15705 344.996904 
L 307.453083 396.076094 
L 307.749115 319.508287 
L 308.34118 319.508287 
L 308.637212 406.237557 
L 308.933245 406.237557 
L 309.229277 383.603664 
L 309.52531 431.862114 
L 310.117375 317.435212 
L 310.413407 317.435212 
L 310.70944 312.847261 
L 311.005472 429.890994 
L 311.301504 407.936798 
L 311.597537 454.496007 
L 311.893569 454.496007 
L 312.189602 451.777221 
L 312.485634 451.777221 
L 312.781667 453.170598 
L 313.077699 426.152664 
L 313.373731 377.894214 
L 313.669764 377.894214 
L 313.965796 426.152664 
L 314.261829 426.152664 
L 314.557861 481.038154 
L 314.853894 415.141581 
L 315.149926 378.437971 
L 315.445959 365.965541 
L 315.741991 363.416679 
L 316.038023 340.918726 
L 316.334056 340.918726 
L 316.630088 365.965541 
L 316.926121 418.336154 
L 317.222153 347.511781 
L 317.518186 413.408355 
L 317.814218 388.36154 
L 318.11025 388.36154 
L 318.406283 427.274163 
L 318.702315 388.905297 
L 318.998348 444.334544 
L 319.29438 419.287729 
L 319.590413 415.549398 
L 319.886445 437.877428 
L 320.182478 402.227348 
L 320.774542 402.227348 
L 321.366607 259.762966 
L 321.66264 211.232638 
L 321.958672 226.525809 
L 322.254705 213.747515 
L 322.550737 387.681843 
L 322.846769 436.212171 
L 323.142802 433.66331 
L 323.734867 385.40486 
L 324.030899 387.953722 
L 324.326932 431.862114 
L 324.918997 355.294306 
L 325.511061 397.775336 
L 326.103126 283.348434 
L 326.399159 397.775336 
L 326.695191 431.862114 
L 326.991224 424.351468 
L 327.583288 351.895824 
L 327.879321 424.589362 
L 328.471386 424.589362 
L 328.767418 386.220496 
L 329.359483 429.890994 
L 329.655516 429.890994 
L 329.951548 381.632544 
L 330.24758 429.890994 
L 330.543613 413.816172 
L 330.839645 358.964667 
L 331.135678 379.55947 
L 331.43171 431.862114 
L 331.727743 409.907918 
L 332.023775 402.397272 
L 332.319807 378.200077 
L 332.61584 449.772116 
L 333.207905 449.772116 
L 333.503937 403.688695 
L 333.79997 333.27214 
L 334.688067 470.129025 
L 335.280132 470.129025 
L 335.576164 421.598697 
L 335.872197 405.965678 
L 336.168229 470.129025 
L 336.464262 481.513941 
L 336.760294 415.617368 
L 337.056326 413.068506 
L 337.352359 442.873197 
L 337.648391 432.405871 
L 337.944424 432.405871 
L 338.240456 402.66915 
L 338.536489 479.236958 
L 338.832521 413.340385 
L 339.128554 413.340385 
L 339.424586 418.336154 
L 339.720618 415.141581 
L 340.016651 338.573773 
L 340.312683 338.573773 
L 340.608716 404.470346 
L 341.200781 404.470346 
L 341.496813 445.422059 
L 341.792846 407.053193 
L 342.088878 445.422059 
L 342.38491 436.212171 
L 342.680943 484.232727 
L 342.976975 433.153537 
L 343.273008 425.642891 
L 343.865073 296.432591 
L 344.161105 337.520243 
L 344.457137 327.358781 
L 344.75317 327.358781 
L 345.049202 378.437971 
L 345.345235 375.889109 
L 345.641267 413.816172 
L 345.9373 388.769357 
L 346.529365 388.769357 
L 346.825397 413.816172 
L 347.121429 391.861976 
L 347.417462 353.49311 
L 347.713494 391.861976 
L 348.009527 445.422059 
L 348.305559 437.911413 
L 348.897624 365.455768 
L 349.193656 372.966414 
L 349.489689 372.966414 
L 349.785721 351.012218 
L 350.377786 423.807711 
L 350.673819 420.613137 
L 350.969851 440.868092 
L 351.265884 440.868092 
L 351.561916 391.522128 
L 351.857948 386.220496 
L 352.153981 339.593317 
L 352.450013 368.854251 
L 352.746046 334.767472 
L 353.634143 413.816172 
L 353.930175 365.285844 
L 354.226208 467.240315 
L 354.52224 433.153537 
L 354.818273 467.240315 
L 355.114305 481.513941 
L 355.410338 451.777221 
L 355.70637 446.98536 
L 356.002403 481.038154 
L 356.298435 424.589362 
L 356.594467 429.890994 
L 356.8905 429.890994 
L 357.186532 353.323186 
L 357.482565 427.342132 
L 357.778597 361.445559 
L 358.07463 429.890994 
L 358.370662 378.811804 
L 358.666694 378.811804 
L 358.962727 422.95809 
L 359.258759 422.95809 
L 359.554792 474.03728 
L 360.146857 397.775336 
L 360.442889 431.862114 
L 361.330986 431.862114 
L 361.627019 397.775336 
L 361.923051 397.775336 
L 362.515116 481.038154 
L 362.811149 440.596214 
L 363.107181 438.047352 
L 363.403213 440.596214 
L 363.699246 412.252871 
L 363.995278 404.062528 
L 364.291311 453.170598 
L 364.587343 453.170598 
L 364.883376 481.513941 
L 365.475441 481.411987 
L 365.771473 481.411987 
L 366.067505 432.303917 
L 366.363538 432.405871 
L 366.65957 415.413459 
L 366.955603 429.890994 
L 367.251635 432.405871 
L 367.547668 404.062528 
L 367.8437 429.687085 
L 368.435765 429.687085 
L 368.731797 407.223117 
L 369.02783 459.049973 
L 369.323862 459.049973 
L 369.915927 411.165356 
L 370.21196 459.049973 
L 370.507992 459.049973 
L 370.804024 456.331187 
L 371.100057 388.2256 
L 371.396089 413.408355 
L 371.692122 383.671634 
L 371.988154 375.039489 
L 372.284187 438.353215 
L 372.580219 431.760159 
L 372.876251 380.680969 
L 373.172284 419.049835 
L 373.468316 430.434751 
L 373.764349 430.434751 
L 374.060381 481.513941 
L 374.356414 451.777221 
L 374.652446 404.946133 
L 374.948479 390.672508 
L 375.244511 407.664919 
L 375.540543 397.469472 
L 375.836576 397.469472 
L 376.132608 394.92061 
L 376.428641 360.833832 
L 376.724673 439.950502 
L 377.316738 439.950502 
L 377.61277 450.145949 
L 378.204835 396.755791 
L 378.500868 445.693937 
L 378.7969 445.693937 
L 379.092933 444.300559 
L 379.684998 444.300559 
L 379.98103 474.03728 
L 380.277062 422.210424 
L 380.573095 414.699778 
L 380.869127 424.895225 
L 381.16516 414.699778 
L 381.461192 392.745582 
L 381.757225 444.572438 
L 382.053257 437.775473 
L 382.349289 462.618379 
L 382.645322 462.618379 
L 382.941354 417.078716 
L 383.237387 436.823898 
L 383.829452 436.823898 
L 384.125484 413.408355 
L 384.421517 404.742225 
L 384.717549 431.862114 
L 385.013581 413.408355 
L 385.309614 364.878026 
L 385.605646 364.878026 
L 385.901679 356.211896 
L 386.197711 305.132706 
L 386.493744 378.811804 
L 386.789776 378.811804 
L 387.085808 428.157768 
L 387.381841 384.623209 
L 387.677873 313.798836 
L 387.973906 380.782924 
L 388.269938 373.510172 
L 388.565971 373.510172 
L 388.862003 404.810194 
L 389.7501 404.70824 
L 390.046133 455.78743 
L 390.342165 407.257102 
L 391.230263 407.257102 
L 391.526295 436.110217 
L 392.710425 436.110217 
L 393.006457 402.023439 
L 393.30249 402.023439 
L 393.598522 395.702261 
L 393.894555 373.578141 
L 394.190587 313.934776 
L 394.486619 424.589362 
L 394.782652 424.487407 
L 395.078684 390.400629 
L 395.374717 398.217138 
L 395.670749 445.048226 
L 395.966782 437.537579 
L 396.262814 371.641006 
L 396.558846 371.742961 
L 396.854879 442.635303 
L 397.150911 371.81093 
L 397.446944 371.81093 
L 397.742976 357.36738 
L 398.335041 413.408355 
L 398.927106 313.323049 
L 399.223138 404.402376 
L 399.519171 445.422059 
L 399.815203 445.422059 
L 400.111236 440.596214 
L 400.407268 392.065885 
L 400.703301 418.709987 
L 400.999333 352.813414 
L 401.295365 418.709987 
L 402.183463 418.709987 
L 402.479495 370.451537 
L 402.775528 479.236958 
L 403.07156 430.978508 
L 403.367593 479.236958 
L 403.663625 484.232727 
L 403.959657 462.278531 
L 404.25569 385.710723 
L 404.551722 351.623945 
L 404.847755 402.66915 
L 405.143787 377.928199 
L 405.43982 326.849009 
L 405.735852 326.747054 
L 406.031884 260.850481 
L 406.623949 260.952435 
L 406.919982 265.642341 
L 407.216014 402.66915 
L 407.808079 402.66915 
L 408.104112 424.589362 
L 408.400144 373.510172 
L 408.696176 365.999525 
L 408.992209 373.510172 
L 409.288241 373.510172 
L 409.584274 389.517024 
L 409.880306 355.430245 
L 410.176339 382.074347 
L 410.768404 402.125393 
L 411.064436 363.756527 
L 411.360468 354.818518 
L 411.656501 354.818518 
L 411.952533 409.058297 
L 412.544598 408.956343 
L 412.840631 408.956343 
L 413.136663 420.409228 
L 413.432695 372.150779 
L 413.728728 372.048824 
L 414.02476 358.149031 
L 414.616825 479.135004 
L 414.912858 457.180808 
L 415.20889 479.135004 
L 416.096987 479.135004 
L 416.689052 402.125393 
L 416.985085 436.212171 
L 417.281117 414.257975 
L 417.57715 402.635165 
L 417.873182 448.174829 
L 418.169214 454.767885 
L 418.465247 409.907918 
L 418.761279 424.589362 
L 419.057312 386.220496 
L 419.353344 393.493248 
L 419.649377 393.493248 
L 419.945409 345.234798 
L 420.241442 444.334544 
L 420.537474 444.334544 
L 420.833506 392.507688 
L 421.129539 407.359056 
L 421.425571 379.015713 
L 421.721604 313.11914 
L 422.017636 364.945996 
L 422.313669 364.945996 
L 422.609701 470.129025 
L 422.905733 436.212171 
L 423.793831 436.110217 
L 424.089863 370.213644 
L 424.385896 396.280003 
L 424.681928 393.08543 
L 424.977961 393.08543 
L 425.273993 415.039626 
L 425.570025 412.490764 
L 425.866058 415.685338 
L 426.16209 408.174692 
L 426.458123 410.825508 
L 426.754155 476.722081 
L 427.34622 417.452549 
L 427.642252 476.722081 
L 427.938285 446.98536 
L 428.234317 474.003295 
L 428.53035 404.742225 
L 428.826382 397.231579 
L 429.122415 466.526634 
L 429.418447 466.526634 
L 429.71448 424.589362 
L 430.010512 358.692788 
L 430.306544 365.965541 
L 430.602577 408.140707 
L 430.898609 337.316334 
L 431.786707 337.316334 
L 432.082739 369.771841 
L 432.674804 369.771841 
L 432.970836 293.204033 
L 433.266869 331.572899 
L 433.562901 271.351791 
L 433.858934 336.772577 
L 434.154966 353.323186 
L 434.747031 353.323186 
L 435.043063 381.632544 
L 435.339096 444.334544 
L 435.635128 444.334544 
L 435.931161 405.965678 
L 436.227193 405.965678 
L 436.819258 309.1769 
L 437.707355 309.1769 
L 438.003388 306.35616 
L 438.29942 357.43535 
L 438.595453 291.538777 
L 438.891485 331.43696 
L 439.187518 301.700239 
L 439.48355 301.598285 
L 439.779582 339.967151 
L 440.075615 429.78904 
L 440.371647 432.303917 
L 440.66768 432.303917 
L 440.963712 393.935051 
L 441.259745 432.303917 
L 441.555777 403.960574 
L 441.851809 404.062528 
L 442.147842 429.890994 
L 442.443874 481.513941 
L 442.739907 481.513941 
L 443.035939 404.742225 
L 443.331972 404.742225 
L 443.628004 467.240315 
L 443.924037 401.343742 
L 444.220069 393.1534 
L 444.516101 344.89495 
L 444.812134 353.085292 
L 445.108166 310.434339 
L 445.404199 310.434339 
L 445.996264 425.77883 
L 446.292296 382.142317 
L 446.588328 382.142317 
L 446.884361 474.03728 
L 447.772458 373.85002 
L 448.364523 421.802606 
L 448.660556 411.607159 
L 448.956588 345.710586 
L 449.25262 379.797364 
L 449.548653 379.797364 
L 449.844685 372.286718 
L 450.140718 372.286718 
L 450.43675 438.183291 
L 450.732783 445.693937 
L 451.028815 435.328566 
L 451.62088 395.566322 
L 452.212945 481.513941 
L 452.508977 352.915368 
L 452.80501 318.82859 
L 453.101042 352.915368 
L 453.397075 432.405871 
L 453.693107 415.413459 
L 453.989139 481.513941 
L 454.285172 481.513941 
L 454.581204 478.96508 
L 455.173269 419.831486 
L 455.469302 437.40164 
L 455.765334 402.125393 
L 456.061366 436.212171 
L 456.357399 436.212171 
L 456.653431 397.843305 
L 457.245496 397.843305 
L 457.541529 402.227348 
L 457.837561 391.522128 
L 458.133594 391.522128 
L 458.429626 353.323186 
L 458.725658 348.021554 
L 459.021691 424.589362 
L 459.317723 404.742225 
L 459.613756 481.513941 
L 460.205821 481.513941 
L 460.501853 437.877428 
L 460.797885 415.549398 
L 461.093918 367.290949 
L 461.38995 367.290949 
L 461.982015 311.249974 
L 462.278048 345.336753 
L 462.870113 228.360989 
L 463.166145 337.894076 
L 463.462177 258.403574 
L 463.75821 333.204171 
L 464.350275 436.212171 
L 464.646307 436.212171 
L 464.94234 402.125393 
L 465.238372 424.589362 
L 465.534404 376.330912 
L 465.830437 368.820266 
L 466.422502 368.820266 
L 466.718534 330.4514 
L 467.014567 444.334544 
L 467.310599 444.334544 
L 467.606632 463.671909 
L 468.198696 427.274163 
L 468.494729 427.274163 
L 468.790761 376.194973 
L 469.086794 368.684327 
L 469.382826 403.416816 
L 469.678859 355.158367 
L 469.974891 355.158367 
L 470.270923 278.590559 
L 470.566956 330.111552 
L 470.862988 330.111552 
L 471.159021 406.237557 
L 471.455053 398.726911 
L 471.751086 397.163609 
L 472.047118 413.816172 
L 472.343151 413.714218 
L 472.639183 413.816172 
L 472.935215 455.889384 
L 473.52728 338.165955 
L 473.823313 335.617093 
L 474.119345 387.341995 
L 474.415378 387.443949 
L 474.71141 336.364759 
L 475.007442 321.071589 
L 475.303475 353.153262 
L 475.599507 314.784396 
L 475.89554 435.668414 
L 476.191572 435.668414 
L 476.487605 388.905297 
L 476.783637 424.589362 
L 477.07967 424.589362 
L 477.375702 399.542547 
L 477.671734 442.1935 
L 477.967767 442.1935 
L 478.263799 410.757538 
L 478.559832 405.863724 
L 479.151897 405.965678 
L 479.447929 367.596812 
L 480.039994 430.400766 
L 480.336026 422.210424 
L 480.928091 422.210424 
L 481.224124 414.699778 
L 481.520156 348.803205 
L 481.816189 428.701525 
L 482.112221 377.622335 
L 482.408253 377.622335 
L 483.000318 462.618379 
L 483.296351 424.895225 
L 483.592383 444.334544 
L 483.888416 444.334544 
L 484.184448 434.139097 
L 484.480481 408.140707 
L 484.776513 408.038752 
L 485.072545 473.935326 
L 485.368578 473.935326 
L 485.66461 396.076094 
L 485.960643 444.334544 
L 486.256675 396.076094 
L 486.552708 376.330912 
L 486.84874 342.244134 
L 487.144772 265.676326 
L 487.440805 265.676326 
L 487.736837 333.679958 
L 488.03287 267.783385 
L 488.328902 479.236958 
L 488.624935 463.671909 
L 489.217 463.671909 
L 489.513032 420.035395 
L 489.809064 463.671909 
L 490.105097 438.625094 
L 490.401129 390.094766 
L 490.697162 438.625094 
L 491.289227 438.625094 
L 491.585259 390.094766 
L 491.881291 390.094766 
L 492.177324 387.545904 
L 492.769389 387.545904 
L 493.065421 438.625094 
L 493.361454 463.671909 
L 493.657486 463.671909 
L 493.953519 435.328566 
L 494.249551 435.328566 
L 494.545583 463.671909 
L 494.841616 411.845053 
L 495.137648 388.769357 
L 495.433681 412.252871 
L 495.729713 412.252871 
L 496.321778 361.105711 
L 496.61781 375.005504 
L 496.913843 375.005504 
L 497.209875 454.496007 
L 497.505908 445.422059 
L 497.80194 404.742225 
L 498.097973 427.274163 
L 498.394005 481.038154 
L 499.282102 480.936199 
L 499.578135 404.368391 
L 499.874167 404.470346 
L 500.1702 350.706355 
L 500.466232 427.274163 
L 500.762265 427.274163 
L 501.354329 340.646847 
L 501.946394 436.212171 
L 502.242427 413.408355 
L 502.538459 410.859493 
L 502.834492 385.676738 
L 503.426557 385.676738 
L 503.722589 413.408355 
L 504.018621 361.581498 
L 504.314654 413.408355 
L 504.906719 413.408355 
L 505.202751 388.36154 
L 505.498784 311.793732 
L 505.794816 355.294306 
L 506.682913 355.294306 
L 506.978946 373.578141 
L 507.274978 348.395387 
L 507.571011 355.294306 
L 508.459108 355.294306 
L 508.75514 289.397733 
L 509.051173 290.689156 
L 509.347205 359.644363 
L 509.643238 385.710723 
L 509.93927 328.752159 
L 510.235303 328.752159 
L 510.531335 397.469472 
L 510.827367 397.469472 
L 511.1234 407.664919 
L 511.419432 336.840547 
L 511.715465 314.886351 
L 512.011497 314.886351 
L 512.603562 228.259035 
L 514.083724 228.259035 
L 514.379757 276.517485 
L 514.971822 276.517485 
L 515.267854 375.039489 
L 515.563886 353.085292 
L 515.859919 353.085292 
L 516.155951 304.826843 
L 516.451984 415.413459 
L 516.748016 381.326681 
L 517.044049 373.816035 
L 517.340081 325.285707 
L 517.636114 341.972255 
L 517.932146 390.502583 
L 518.228178 387.953722 
L 518.524211 444.878301 
L 518.820243 433.493385 
L 519.412308 319.066484 
L 519.708341 401.68359 
L 520.004373 394.172944 
L 520.300405 394.07099 
L 520.596438 393.1534 
L 520.89247 379.525485 
L 521.188503 379.525485 
L 521.484535 354.47867 
L 521.780568 479.236958 
L 522.0766 479.236958 
L 522.372633 404.742225 
L 522.668665 404.742225 
L 522.964697 370.655446 
L 523.26073 294.087638 
L 523.556762 294.087638 
L 523.852795 269.040823 
L 524.44486 269.040823 
L 524.740892 245.55731 
L 525.332957 245.55731 
L 525.628989 404.742225 
L 525.925022 404.742225 
L 526.221054 375.005504 
L 526.517087 413.816172 
L 526.813119 413.816172 
L 527.109152 454.496007 
L 527.405184 454.496007 
L 527.701216 388.599433 
L 528.589314 261.020405 
L 528.885346 265.302493 
L 529.181379 313.832821 
L 529.477411 306.322175 
L 529.773443 306.322175 
L 530.069476 284.367979 
L 530.365508 306.322175 
L 530.661541 413.816172 
L 530.957573 379.729394 
L 531.253606 313.832821 
L 531.549638 313.832821 
L 531.845671 379.729394 
L 532.141703 331.199066 
L 532.437735 331.199066 
L 532.733768 282.940616 
L 533.0298 303.161586 
L 533.621865 303.161586 
L 533.917898 413.816172 
L 534.21393 379.729394 
L 534.509962 379.729394 
L 534.805995 440.596214 
L 535.102027 374.69964 
L 535.39806 340.612862 
L 535.694092 340.612862 
L 535.990125 264.045054 
L 536.286157 264.045054 
L 536.58219 242.090858 
L 536.878222 193.56053 
L 537.174254 219.049148 
L 538.062352 219.049148 
L 538.358384 316.959425 
L 538.654417 274.478395 
L 538.950449 296.432591 
L 539.246481 296.432591 
L 539.838546 237.298998 
L 540.134579 271.385776 
L 540.726644 271.385776 
L 541.318709 295.277107 
L 541.910773 295.277107 
L 542.206806 311.691777 
L 543.094903 311.691777 
L 543.390936 304.181131 
L 543.686968 335.481154 
L 543.983 335.481154 
L 544.279033 342.9918 
L 544.575065 368.140569 
L 544.871098 368.140569 
L 545.16713 390.094766 
L 545.463163 481.038154 
L 545.759195 474.03728 
L 546.055228 453.476462 
L 546.35126 463.671909 
L 546.647292 411.845053 
L 546.943325 411.845053 
L 547.239357 363.586603 
L 547.53539 363.586603 
L 547.831422 411.845053 
L 548.127455 415.413459 
L 549.015552 415.413459 
L 549.311584 432.405871 
L 549.607617 383.875543 
L 549.903649 376.364897 
L 550.495714 376.364897 
L 550.791747 383.331786 
L 553.456039 383.331786 
L 553.752071 349.245007 
L 554.344136 349.245007 
L 554.640168 415.141581 
L 554.936201 381.054802 
L 555.232233 381.054802 
L 555.528266 415.141581 
L 555.824298 413.816172 
L 556.12033 413.816172 
L 556.712395 299.389271 
L 557.30446 299.389271 
L 557.600493 261.020405 
L 559.080655 261.020405 
L 559.376687 253.509759 
L 559.67272 299.491225 
L 559.968752 299.491225 
L 560.264785 372.898445 
L 560.560817 324.639995 
L 560.856849 315.566047 
L 561.152882 315.566047 
L 561.448914 395.05655 
L 561.744947 395.05655 
L 562.040979 369.873795 
L 562.337012 293.305988 
L 562.633044 293.305988 
L 562.929077 269.210747 
L 563.225109 269.210747 
L 563.521141 220.680419 
L 564.409239 220.680419 
L 564.705271 213.169773 
L 565.001304 264.996629 
L 565.297336 230.909851 
L 565.889401 230.807897 
L 566.185433 293.917714 
L 566.481466 291.368853 
L 566.777498 269.414656 
L 567.073531 317.944985 
L 567.961628 317.944985 
L 568.25766 279.576119 
L 568.553693 320.493847 
L 568.849725 320.493847 
L 569.145758 375.991064 
L 570.62592 375.991064 
L 570.921952 383.50171 
L 571.217985 431.760159 
L 571.514017 431.862114 
L 571.81005 424.351468 
L 572.106082 402.397272 
L 572.402115 402.397272 
L 572.698147 424.351468 
L 572.994179 402.397272 
L 573.290212 402.397272 
L 573.586244 397.231579 
L 573.882277 404.742225 
L 574.178309 356.483775 
L 574.474342 356.483775 
L 574.770374 322.396997 
L 575.066406 322.396997 
L 575.362439 353.866943 
L 575.658471 346.356297 
L 576.250536 346.356297 
L 576.546569 385.132981 
L 576.842601 397.843305 
L 577.138634 436.212171 
L 577.730698 436.212171 
L 578.026731 427.274163 
L 578.322763 427.274163 
L 578.618796 376.194973 
L 578.914828 362.329165 
L 580.098958 362.329165 
L 580.39499 314.070715 
L 580.691023 289.0239 
L 580.987055 289.0239 
L 581.283088 250.655034 
L 581.875153 250.655034 
L 582.171185 289.0239 
L 582.76325 289.0239 
L 583.059282 240.493571 
L 586.019607 240.493571 
L 586.315639 234.750136 
L 586.611672 308.055401 
L 588.091834 308.055401 
L 588.387866 269.686535 
L 590.164061 269.584581 
L 590.460093 203.688007 
L 591.348191 203.688007 
L 591.644223 201.139146 
L 592.828353 201.139146 
L 593.124385 203.688007 
L 593.420418 280.255815 
L 593.71645 280.255815 
L 594.012482 258.301619 
L 595.492645 258.301619 
L 595.788677 289.159839 
L 597.268839 289.159839 
L 597.564872 296.670485 
L 597.860904 271.487731 
L 599.933131 271.487731 
L 600.229164 246.54287 
L 600.525196 260.98642 
L 603.48552 260.98642 
L 603.781553 247.800309 
L 604.373618 247.800309 
L 604.66965 245.251447 
L 606.445845 245.251447 
L 606.741877 267.205643 
L 607.03791 259.694997 
L 607.333942 237.740801 
L 607.629975 189.482351 
L 609.406169 189.482351 
L 609.702202 196.992997 
L 609.998234 196.992997 
L 610.294267 168.683639 
L 614.438721 168.683639 
L 614.734753 171.232501 
L 616.80698 171.232501 
L 617.103013 168.683639 
L 617.399045 171.232501 
L 622.727629 171.232501 
L 623.023661 173.781362 
L 623.319694 173.781362 
L 623.615726 125.522913 
L 628.94431 125.522913 
L 629.240343 118.012267 
L 667.132495 118.012267 
L 667.428527 115.463405 
L 670.388851 115.463405 
L 670.684884 118.012267 
L 676.605533 118.012267 
L 676.901565 115.463405 
L 688.44683 115.463405 
L 688.742863 99.490538 
L 694.663511 99.490538 
L 694.959544 91.979892 
L 832.022562 91.979892 
L 832.318595 88.887273 
L 871.690909 88.887273 
L 871.690909 88.887273 
" style="fill:none;stroke:#8dd3c7;stroke-linecap:square;stroke-width:1.5;"/>
   </g>
   <g id="line2d_15">
    <path clip-path="url(#p42e67f092c)" d="M 161.509091 404.742225 
L 161.805123 356.483775 
L 164.469415 356.483775 
L 164.765448 350.706355 
L 168.909902 350.706355 
L 169.205934 342.07421 
L 172.758324 342.07421 
L 173.054356 322.396997 
L 173.646421 322.396997 
L 174.238486 234.614197 
L 174.534518 234.614197 
L 174.830551 218.199527 
L 321.366607 218.199527 
L 321.66264 211.232638 
L 536.58219 211.232638 
L 536.878222 193.56053 
L 607.333942 193.56053 
L 607.629975 189.482351 
L 609.998234 189.482351 
L 610.294267 168.683639 
L 623.319694 168.683639 
L 623.615726 125.522913 
L 628.94431 125.522913 
L 629.240343 118.012267 
L 667.132495 118.012267 
L 667.428527 115.463405 
L 688.44683 115.463405 
L 688.742863 99.490538 
L 694.663511 99.490538 
L 694.959544 91.979892 
L 832.022562 91.979892 
L 832.318595 88.887273 
L 871.690909 88.887273 
L 871.690909 88.887273 
" style="fill:none;stroke:#feffb3;stroke-linecap:square;stroke-width:1.5;"/>
   </g>
   <g id="line2d_16">
    <path clip-path="url(#p42e67f092c)" d="M 161.509091 404.742225 
L 163.581318 404.742225 
L 163.87735 409.689426 
L 165.949577 409.689426 
L 166.24561 414.328732 
L 168.317837 414.328732 
L 168.613869 418.679304 
L 170.686096 418.679304 
L 170.982129 422.759112 
L 173.054356 422.759112 
L 173.350388 426.585008 
L 175.422615 426.585008 
L 175.718648 430.172794 
L 177.790875 430.172794 
L 178.086907 433.537289 
L 180.159134 433.537289 
L 180.455167 436.69239 
L 182.527394 436.69239 
L 182.823426 439.651129 
L 184.895653 439.651129 
L 185.191686 442.425726 
L 187.263913 442.425726 
L 187.559945 445.027643 
L 189.632172 445.027643 
L 189.928205 447.467626 
L 192.000432 447.467626 
L 192.296464 449.755753 
L 194.368692 449.755753 
L 194.664724 451.901475 
L 196.736951 451.901475 
L 197.032983 453.913655 
L 199.105211 453.913655 
L 199.401243 455.800605 
L 201.47347 455.800605 
L 201.769502 457.570117 
L 203.84173 457.570117 
L 204.137762 459.229502 
L 206.209989 459.229502 
L 206.506021 460.785612 
L 208.578249 460.785612 
L 208.874281 462.244876 
L 210.946508 462.244876 
L 211.24254 463.613321 
L 213.314768 463.613321 
L 213.6108 464.896598 
L 215.683027 464.896598 
L 215.979059 466.100009 
L 218.051287 466.100009 
L 218.347319 467.228524 
L 220.419546 467.228524 
L 220.715578 468.286804 
L 222.787806 468.286804 
L 223.083838 469.279221 
L 225.156065 469.279221 
L 225.452097 470.209873 
L 227.524325 470.209873 
L 227.820357 471.082605 
L 229.892584 471.082605 
L 230.188616 471.901021 
L 232.260844 471.901021 
L 232.556876 472.668502 
L 234.629103 472.668502 
L 234.925135 473.388217 
L 236.997363 473.388217 
L 237.293395 474.06314 
L 239.365622 474.06314 
L 239.661654 474.696059 
L 241.733882 474.696059 
L 242.029914 475.289586 
L 244.102141 475.289586 
L 244.398173 475.846175 
L 246.470401 475.846175 
L 246.766433 476.368124 
L 248.83866 476.368124 
L 249.134692 476.857588 
L 251.20692 476.857588 
L 251.502952 477.31659 
L 253.575179 477.31659 
L 253.871211 477.747026 
L 255.943439 477.747026 
L 256.239471 478.150672 
L 258.311698 478.150672 
L 258.60773 478.529198 
L 260.679958 478.529198 
L 260.97599 478.884165 
L 263.048217 478.884165 
L 263.344249 479.21704 
L 265.416477 479.21704 
L 265.712509 479.529198 
L 267.784736 479.529198 
L 268.080769 479.821929 
L 270.152996 479.821929 
L 270.449028 480.096441 
L 272.521255 480.096441 
L 272.817288 480.353868 
L 274.889515 480.353868 
L 275.185547 480.595275 
L 277.257774 480.595275 
L 277.553807 480.821657 
L 279.626034 480.821657 
L 279.922066 481.033949 
L 281.994293 481.033949 
L 282.290326 481.23303 
L 284.362553 481.23303 
L 284.658585 481.41972 
L 286.730812 481.41972 
L 287.026845 481.594791 
L 289.099072 481.594791 
L 289.395104 481.758967 
L 291.467331 481.758967 
L 291.763364 481.912925 
L 293.835591 481.912925 
L 294.131623 482.057301 
L 296.20385 482.057301 
L 296.499883 482.192692 
L 298.57211 482.192692 
L 298.868142 482.319656 
L 300.940369 482.319656 
L 301.532434 482.438719 
L 303.308629 482.438719 
L 303.900693 482.550371 
L 308.045148 482.655075 
L 308.637212 482.753262 
L 312.781667 482.845339 
L 313.373731 482.931685 
L 317.518186 483.012657 
L 318.11025 483.08859 
L 322.254705 483.159797 
L 322.846769 483.226572 
L 326.991224 483.289192 
L 327.583288 483.347914 
L 334.096002 483.454622 
L 334.984099 483.503048 
L 341.200781 483.591047 
L 342.088878 483.630983 
L 350.673819 483.736487 
L 351.857948 483.767371 
L 362.515116 483.872846 
L 363.995278 483.895244 
L 379.092933 484.003211 
L 381.757225 484.030891 
L 412.248566 484.139376 
L 418.465247 484.155743 
L 871.690909 484.232727 
L 871.690909 484.232727 
" style="fill:none;stroke:#bfbbd9;stroke-linecap:square;stroke-width:1.5;"/>
   </g>
   <g id="patch_3">
    <path d="M 126 504 
L 126 69.12 
" style="fill:none;stroke:#ffffff;stroke-linecap:square;stroke-linejoin:miter;stroke-width:0.8;"/>
   </g>
   <g id="patch_4">
    <path d="M 907.2 504 
L 907.2 69.12 
" style="fill:none;stroke:#ffffff;stroke-linecap:square;stroke-linejoin:miter;stroke-width:0.8;"/>
   </g>
   <g id="patch_5">
    <path d="M 126 504 
L 907.2 504 
" style="fill:none;stroke:#ffffff;stroke-linecap:square;stroke-linejoin:miter;stroke-width:0.8;"/>
   </g>
   <g id="patch_6">
    <path d="M 126 69.12 
L 907.2 69.12 
" style="fill:none;stroke:#ffffff;stroke-linecap:square;stroke-linejoin:miter;stroke-width:0.8;"/>
   </g>
   <g id="text_15">
    <!-- instance 1 with error 0.0 -->
    <g style="fill:#ffffff;" transform="translate(442.944375 63.12)scale(0.12 -0.12)">
     <defs>
      <path d="M 2834 3397 
L 2834 2853 
Q 2591 2978 2328 3040 
Q 2066 3103 1784 3103 
Q 1356 3103 1142 2972 
Q 928 2841 928 2578 
Q 928 2378 1081 2264 
Q 1234 2150 1697 2047 
L 1894 2003 
Q 2506 1872 2764 1633 
Q 3022 1394 3022 966 
Q 3022 478 2636 193 
Q 2250 -91 1575 -91 
Q 1294 -91 989 -36 
Q 684 19 347 128 
L 347 722 
Q 666 556 975 473 
Q 1284 391 1588 391 
Q 1994 391 2212 530 
Q 2431 669 2431 922 
Q 2431 1156 2273 1281 
Q 2116 1406 1581 1522 
L 1381 1569 
Q 847 1681 609 1914 
Q 372 2147 372 2553 
Q 372 3047 722 3315 
Q 1072 3584 1716 3584 
Q 2034 3584 2315 3537 
Q 2597 3491 2834 3397 
z
" id="DejaVuSans-73" transform="scale(0.015625)"/>
      <path d="M 3122 3366 
L 3122 2828 
Q 2878 2963 2633 3030 
Q 2388 3097 2138 3097 
Q 1578 3097 1268 2742 
Q 959 2388 959 1747 
Q 959 1106 1268 751 
Q 1578 397 2138 397 
Q 2388 397 2633 464 
Q 2878 531 3122 666 
L 3122 134 
Q 2881 22 2623 -34 
Q 2366 -91 2075 -91 
Q 1284 -91 818 406 
Q 353 903 353 1747 
Q 353 2603 823 3093 
Q 1294 3584 2113 3584 
Q 2378 3584 2631 3529 
Q 2884 3475 3122 3366 
z
" id="DejaVuSans-63" transform="scale(0.015625)"/>
      <path id="DejaVuSans-20" transform="scale(0.015625)"/>
      <path d="M 269 3500 
L 844 3500 
L 1563 769 
L 2278 3500 
L 2956 3500 
L 3675 769 
L 4391 3500 
L 4966 3500 
L 4050 0 
L 3372 0 
L 2619 2869 
L 1863 0 
L 1184 0 
L 269 3500 
z
" id="DejaVuSans-77" transform="scale(0.015625)"/>
      <path d="M 3513 2113 
L 3513 0 
L 2938 0 
L 2938 2094 
Q 2938 2591 2744 2837 
Q 2550 3084 2163 3084 
Q 1697 3084 1428 2787 
Q 1159 2491 1159 1978 
L 1159 0 
L 581 0 
L 581 4863 
L 1159 4863 
L 1159 2956 
Q 1366 3272 1645 3428 
Q 1925 3584 2291 3584 
Q 2894 3584 3203 3211 
Q 3513 2838 3513 2113 
z
" id="DejaVuSans-68" transform="scale(0.015625)"/>
      <path d="M 684 794 
L 1344 794 
L 1344 0 
L 684 0 
L 684 794 
z
" id="DejaVuSans-2e" transform="scale(0.015625)"/>
     </defs>
     <use xlink:href="#DejaVuSans-69"/>
     <use x="27.783203" xlink:href="#DejaVuSans-6e"/>
     <use x="91.162109" xlink:href="#DejaVuSans-73"/>
     <use x="143.261719" xlink:href="#DejaVuSans-74"/>
     <use x="182.470703" xlink:href="#DejaVuSans-61"/>
     <use x="243.75" xlink:href="#DejaVuSans-6e"/>
     <use x="307.128906" xlink:href="#DejaVuSans-63"/>
     <use x="362.109375" xlink:href="#DejaVuSans-65"/>
     <use x="423.632812" xlink:href="#DejaVuSans-20"/>
     <use x="455.419922" xlink:href="#DejaVuSans-31"/>
     <use x="519.042969" xlink:href="#DejaVuSans-20"/>
     <use x="550.830078" xlink:href="#DejaVuSans-77"/>
     <use x="632.617188" xlink:href="#DejaVuSans-69"/>
     <use x="660.400391" xlink:href="#DejaVuSans-74"/>
     <use x="699.609375" xlink:href="#DejaVuSans-68"/>
     <use x="762.988281" xlink:href="#DejaVuSans-20"/>
     <use x="794.775391" xlink:href="#DejaVuSans-65"/>
     <use x="856.298828" xlink:href="#DejaVuSans-72"/>
     <use x="895.662109" xlink:href="#DejaVuSans-72"/>
     <use x="934.525391" xlink:href="#DejaVuSans-6f"/>
     <use x="995.707031" xlink:href="#DejaVuSans-72"/>
     <use x="1036.820312" xlink:href="#DejaVuSans-20"/>
     <use x="1068.607422" xlink:href="#DejaVuSans-30"/>
     <use x="1132.230469" xlink:href="#DejaVuSans-2e"/>
     <use x="1164.017578" xlink:href="#DejaVuSans-30"/>
    </g>
   </g>
   <g id="legend_1">
    <g id="patch_7">
     <path d="M 805.348438 499 
L 900.2 499 
Q 902.2 499 902.2 497 
L 902.2 453.965625 
Q 902.2 451.965625 900.2 451.965625 
L 805.348438 451.965625 
Q 803.348438 451.965625 803.348438 453.965625 
L 803.348438 497 
Q 803.348438 499 805.348438 499 
z
" style="opacity:0.8;stroke:#cccccc;stroke-linejoin:miter;"/>
    </g>
    <g id="line2d_17">
     <path d="M 807.348438 460.064062 
L 827.348438 460.064062 
" style="fill:none;stroke:#8dd3c7;stroke-linecap:square;stroke-width:1.5;"/>
    </g>
    <g id="line2d_18"/>
    <g id="text_16">
     <!-- cost -->
     <g style="fill:#ffffff;" transform="translate(835.348438 463.564062)scale(0.1 -0.1)">
      <use xlink:href="#DejaVuSans-63"/>
      <use x="54.980469" xlink:href="#DejaVuSans-6f"/>
      <use x="116.162109" xlink:href="#DejaVuSans-73"/>
      <use x="168.261719" xlink:href="#DejaVuSans-74"/>
     </g>
    </g>
    <g id="line2d_19">
     <path d="M 807.348438 474.742188 
L 827.348438 474.742188 
" style="fill:none;stroke:#feffb3;stroke-linecap:square;stroke-width:1.5;"/>
    </g>
    <g id="line2d_20"/>
    <g id="text_17">
     <!-- best cost -->
     <g style="fill:#ffffff;" transform="translate(835.348438 478.242188)scale(0.1 -0.1)">
      <defs>
       <path d="M 3116 1747 
Q 3116 2381 2855 2742 
Q 2594 3103 2138 3103 
Q 1681 3103 1420 2742 
Q 1159 2381 1159 1747 
Q 1159 1113 1420 752 
Q 1681 391 2138 391 
Q 2594 391 2855 752 
Q 3116 1113 3116 1747 
z
M 1159 2969 
Q 1341 3281 1617 3432 
Q 1894 3584 2278 3584 
Q 2916 3584 3314 3078 
Q 3713 2572 3713 1747 
Q 3713 922 3314 415 
Q 2916 -91 2278 -91 
Q 1894 -91 1617 61 
Q 1341 213 1159 525 
L 1159 0 
L 581 0 
L 581 4863 
L 1159 4863 
L 1159 2969 
z
" id="DejaVuSans-62" transform="scale(0.015625)"/>
      </defs>
      <use xlink:href="#DejaVuSans-62"/>
      <use x="63.476562" xlink:href="#DejaVuSans-65"/>
      <use x="125" xlink:href="#DejaVuSans-73"/>
      <use x="177.099609" xlink:href="#DejaVuSans-74"/>
      <use x="216.308594" xlink:href="#DejaVuSans-20"/>
      <use x="248.095703" xlink:href="#DejaVuSans-63"/>
      <use x="303.076172" xlink:href="#DejaVuSans-6f"/>
      <use x="364.257812" xlink:href="#DejaVuSans-73"/>
      <use x="416.357422" xlink:href="#DejaVuSans-74"/>
     </g>
    </g>
    <g id="line2d_21">
     <path d="M 807.348438 489.420313 
L 827.348438 489.420313 
" style="fill:none;stroke:#bfbbd9;stroke-linecap:square;stroke-width:1.5;"/>
    </g>
    <g id="line2d_22"/>
    <g id="text_18">
     <!-- temperature -->
     <g style="fill:#ffffff;" transform="translate(835.348438 492.920313)scale(0.1 -0.1)">
      <defs>
       <path d="M 3328 2828 
Q 3544 3216 3844 3400 
Q 4144 3584 4550 3584 
Q 5097 3584 5394 3201 
Q 5691 2819 5691 2113 
L 5691 0 
L 5113 0 
L 5113 2094 
Q 5113 2597 4934 2840 
Q 4756 3084 4391 3084 
Q 3944 3084 3684 2787 
Q 3425 2491 3425 1978 
L 3425 0 
L 2847 0 
L 2847 2094 
Q 2847 2600 2669 2842 
Q 2491 3084 2119 3084 
Q 1678 3084 1418 2786 
Q 1159 2488 1159 1978 
L 1159 0 
L 581 0 
L 581 3500 
L 1159 3500 
L 1159 2956 
Q 1356 3278 1631 3431 
Q 1906 3584 2284 3584 
Q 2666 3584 2933 3390 
Q 3200 3197 3328 2828 
z
" id="DejaVuSans-6d" transform="scale(0.015625)"/>
       <path d="M 1159 525 
L 1159 -1331 
L 581 -1331 
L 581 3500 
L 1159 3500 
L 1159 2969 
Q 1341 3281 1617 3432 
Q 1894 3584 2278 3584 
Q 2916 3584 3314 3078 
Q 3713 2572 3713 1747 
Q 3713 922 3314 415 
Q 2916 -91 2278 -91 
Q 1894 -91 1617 61 
Q 1341 213 1159 525 
z
M 3116 1747 
Q 3116 2381 2855 2742 
Q 2594 3103 2138 3103 
Q 1681 3103 1420 2742 
Q 1159 2381 1159 1747 
Q 1159 1113 1420 752 
Q 1681 391 2138 391 
Q 2594 391 2855 752 
Q 3116 1113 3116 1747 
z
" id="DejaVuSans-70" transform="scale(0.015625)"/>
       <path d="M 544 1381 
L 544 3500 
L 1119 3500 
L 1119 1403 
Q 1119 906 1312 657 
Q 1506 409 1894 409 
Q 2359 409 2629 706 
Q 2900 1003 2900 1516 
L 2900 3500 
L 3475 3500 
L 3475 0 
L 2900 0 
L 2900 538 
Q 2691 219 2414 64 
Q 2138 -91 1772 -91 
Q 1169 -91 856 284 
Q 544 659 544 1381 
z
M 1991 3584 
L 1991 3584 
z
" id="DejaVuSans-75" transform="scale(0.015625)"/>
      </defs>
      <use xlink:href="#DejaVuSans-74"/>
      <use x="39.208984" xlink:href="#DejaVuSans-65"/>
      <use x="100.732422" xlink:href="#DejaVuSans-6d"/>
      <use x="198.144531" xlink:href="#DejaVuSans-70"/>
      <use x="261.621094" xlink:href="#DejaVuSans-65"/>
      <use x="323.144531" xlink:href="#DejaVuSans-72"/>
      <use x="364.257812" xlink:href="#DejaVuSans-61"/>
      <use x="425.537109" xlink:href="#DejaVuSans-74"/>
      <use x="464.746094" xlink:href="#DejaVuSans-75"/>
      <use x="528.125" xlink:href="#DejaVuSans-72"/>
      <use x="566.988281" xlink:href="#DejaVuSans-65"/>
     </g>
    </g>
   </g>
  </g>
 </g>
 <defs>
  <clipPath id="p42e67f092c">
   <rect height="434.88" width="781.2" x="126" y="69.12"/>
  </clipPath>
 </defs>
</svg>
