<?xml version="1.0" encoding="utf-8" standalone="no"?>
<!DOCTYPE svg PUBLIC "-//W3C//DTD SVG 1.1//EN"
  "http://www.w3.org/Graphics/SVG/1.1/DTD/svg11.dtd">
<svg height="576pt" version="1.1" viewBox="0 0 1008 576" width="1008pt" xmlns="http://www.w3.org/2000/svg" xmlns:xlink="http://www.w3.org/1999/xlink">
 <metadata>
  <rdf:RDF xmlns:cc="http://creativecommons.org/ns#" xmlns:dc="http://purl.org/dc/elements/1.1/" xmlns:rdf="http://www.w3.org/1999/02/22-rdf-syntax-ns#">
   <cc:Work>
    <dc:type rdf:resource="http://purl.org/dc/dcmitype/StillImage"/>
    <dc:date>2022-01-13T19:11:09.832657</dc:date>
    <dc:format>image/svg+xml</dc:format>
    <dc:creator>
     <cc:Agent>
      <dc:title>Matplotlib v3.4.3, https://matplotlib.org/</dc:title>
     </cc:Agent>
    </dc:creator>
   </cc:Work>
  </rdf:RDF>
 </metadata>
 <defs>
  <style type="text/css">*{stroke-linecap:butt;stroke-linejoin:round;}</style>
 </defs>
 <g id="figure_1">
  <g id="patch_1">
   <path d="M 0 576 
L 1008 576 
L 1008 0 
L 0 0 
z
"/>
  </g>
  <g id="axes_1">
   <g id="patch_2">
    <path d="M 126 504 
L 907.2 504 
L 907.2 69.12 
L 126 69.12 
z
"/>
   </g>
   <g id="matplotlib.axis_1">
    <g id="xtick_1">
     <g id="line2d_1">
      <defs>
       <path d="M 0 0 
L 0 3.5 
" id="m0b67153db6" style="stroke:#ffffff;stroke-width:0.8;"/>
      </defs>
      <g>
       <use style="fill:#ffffff;stroke:#ffffff;stroke-width:0.8;" x="161.509091" xlink:href="#m0b67153db6" y="504"/>
      </g>
     </g>
     <g id="text_1">
      <!-- 0 -->
      <g style="fill:#ffffff;" transform="translate(158.327841 518.598438)scale(0.1 -0.1)">
       <defs>
        <path d="M 2034 4250 
Q 1547 4250 1301 3770 
Q 1056 3291 1056 2328 
Q 1056 1369 1301 889 
Q 1547 409 2034 409 
Q 2525 409 2770 889 
Q 3016 1369 3016 2328 
Q 3016 3291 2770 3770 
Q 2525 4250 2034 4250 
z
M 2034 4750 
Q 2819 4750 3233 4129 
Q 3647 3509 3647 2328 
Q 3647 1150 3233 529 
Q 2819 -91 2034 -91 
Q 1250 -91 836 529 
Q 422 1150 422 2328 
Q 422 3509 836 4129 
Q 1250 4750 2034 4750 
z
" id="DejaVuSans-30" transform="scale(0.015625)"/>
       </defs>
       <use xlink:href="#DejaVuSans-30"/>
      </g>
     </g>
    </g>
    <g id="xtick_2">
     <g id="line2d_2">
      <g>
       <use style="fill:#ffffff;stroke:#ffffff;stroke-width:0.8;" x="248.562513" xlink:href="#m0b67153db6" y="504"/>
      </g>
     </g>
     <g id="text_2">
      <!-- 500 -->
      <g style="fill:#ffffff;" transform="translate(239.018763 518.598438)scale(0.1 -0.1)">
       <defs>
        <path d="M 691 4666 
L 3169 4666 
L 3169 4134 
L 1269 4134 
L 1269 2991 
Q 1406 3038 1543 3061 
Q 1681 3084 1819 3084 
Q 2600 3084 3056 2656 
Q 3513 2228 3513 1497 
Q 3513 744 3044 326 
Q 2575 -91 1722 -91 
Q 1428 -91 1123 -41 
Q 819 9 494 109 
L 494 744 
Q 775 591 1075 516 
Q 1375 441 1709 441 
Q 2250 441 2565 725 
Q 2881 1009 2881 1497 
Q 2881 1984 2565 2268 
Q 2250 2553 1709 2553 
Q 1456 2553 1204 2497 
Q 953 2441 691 2322 
L 691 4666 
z
" id="DejaVuSans-35" transform="scale(0.015625)"/>
       </defs>
       <use xlink:href="#DejaVuSans-35"/>
       <use x="63.623047" xlink:href="#DejaVuSans-30"/>
       <use x="127.246094" xlink:href="#DejaVuSans-30"/>
      </g>
     </g>
    </g>
    <g id="xtick_3">
     <g id="line2d_3">
      <g>
       <use style="fill:#ffffff;stroke:#ffffff;stroke-width:0.8;" x="335.615935" xlink:href="#m0b67153db6" y="504"/>
      </g>
     </g>
     <g id="text_3">
      <!-- 1000 -->
      <g style="fill:#ffffff;" transform="translate(322.890935 518.598438)scale(0.1 -0.1)">
       <defs>
        <path d="M 794 531 
L 1825 531 
L 1825 4091 
L 703 3866 
L 703 4441 
L 1819 4666 
L 2450 4666 
L 2450 531 
L 3481 531 
L 3481 0 
L 794 0 
L 794 531 
z
" id="DejaVuSans-31" transform="scale(0.015625)"/>
       </defs>
       <use xlink:href="#DejaVuSans-31"/>
       <use x="63.623047" xlink:href="#DejaVuSans-30"/>
       <use x="127.246094" xlink:href="#DejaVuSans-30"/>
       <use x="190.869141" xlink:href="#DejaVuSans-30"/>
      </g>
     </g>
    </g>
    <g id="xtick_4">
     <g id="line2d_4">
      <g>
       <use style="fill:#ffffff;stroke:#ffffff;stroke-width:0.8;" x="422.669357" xlink:href="#m0b67153db6" y="504"/>
      </g>
     </g>
     <g id="text_4">
      <!-- 1500 -->
      <g style="fill:#ffffff;" transform="translate(409.944357 518.598438)scale(0.1 -0.1)">
       <use xlink:href="#DejaVuSans-31"/>
       <use x="63.623047" xlink:href="#DejaVuSans-35"/>
       <use x="127.246094" xlink:href="#DejaVuSans-30"/>
       <use x="190.869141" xlink:href="#DejaVuSans-30"/>
      </g>
     </g>
    </g>
    <g id="xtick_5">
     <g id="line2d_5">
      <g>
       <use style="fill:#ffffff;stroke:#ffffff;stroke-width:0.8;" x="509.72278" xlink:href="#m0b67153db6" y="504"/>
      </g>
     </g>
     <g id="text_5">
      <!-- 2000 -->
      <g style="fill:#ffffff;" transform="translate(496.99778 518.598438)scale(0.1 -0.1)">
       <defs>
        <path d="M 1228 531 
L 3431 531 
L 3431 0 
L 469 0 
L 469 531 
Q 828 903 1448 1529 
Q 2069 2156 2228 2338 
Q 2531 2678 2651 2914 
Q 2772 3150 2772 3378 
Q 2772 3750 2511 3984 
Q 2250 4219 1831 4219 
Q 1534 4219 1204 4116 
Q 875 4013 500 3803 
L 500 4441 
Q 881 4594 1212 4672 
Q 1544 4750 1819 4750 
Q 2544 4750 2975 4387 
Q 3406 4025 3406 3419 
Q 3406 3131 3298 2873 
Q 3191 2616 2906 2266 
Q 2828 2175 2409 1742 
Q 1991 1309 1228 531 
z
" id="DejaVuSans-32" transform="scale(0.015625)"/>
       </defs>
       <use xlink:href="#DejaVuSans-32"/>
       <use x="63.623047" xlink:href="#DejaVuSans-30"/>
       <use x="127.246094" xlink:href="#DejaVuSans-30"/>
       <use x="190.869141" xlink:href="#DejaVuSans-30"/>
      </g>
     </g>
    </g>
    <g id="xtick_6">
     <g id="line2d_6">
      <g>
       <use style="fill:#ffffff;stroke:#ffffff;stroke-width:0.8;" x="596.776202" xlink:href="#m0b67153db6" y="504"/>
      </g>
     </g>
     <g id="text_6">
      <!-- 2500 -->
      <g style="fill:#ffffff;" transform="translate(584.051202 518.598438)scale(0.1 -0.1)">
       <use xlink:href="#DejaVuSans-32"/>
       <use x="63.623047" xlink:href="#DejaVuSans-35"/>
       <use x="127.246094" xlink:href="#DejaVuSans-30"/>
       <use x="190.869141" xlink:href="#DejaVuSans-30"/>
      </g>
     </g>
    </g>
    <g id="xtick_7">
     <g id="line2d_7">
      <g>
       <use style="fill:#ffffff;stroke:#ffffff;stroke-width:0.8;" x="683.829624" xlink:href="#m0b67153db6" y="504"/>
      </g>
     </g>
     <g id="text_7">
      <!-- 3000 -->
      <g style="fill:#ffffff;" transform="translate(671.104624 518.598438)scale(0.1 -0.1)">
       <defs>
        <path d="M 2597 2516 
Q 3050 2419 3304 2112 
Q 3559 1806 3559 1356 
Q 3559 666 3084 287 
Q 2609 -91 1734 -91 
Q 1441 -91 1130 -33 
Q 819 25 488 141 
L 488 750 
Q 750 597 1062 519 
Q 1375 441 1716 441 
Q 2309 441 2620 675 
Q 2931 909 2931 1356 
Q 2931 1769 2642 2001 
Q 2353 2234 1838 2234 
L 1294 2234 
L 1294 2753 
L 1863 2753 
Q 2328 2753 2575 2939 
Q 2822 3125 2822 3475 
Q 2822 3834 2567 4026 
Q 2313 4219 1838 4219 
Q 1578 4219 1281 4162 
Q 984 4106 628 3988 
L 628 4550 
Q 988 4650 1302 4700 
Q 1616 4750 1894 4750 
Q 2613 4750 3031 4423 
Q 3450 4097 3450 3541 
Q 3450 3153 3228 2886 
Q 3006 2619 2597 2516 
z
" id="DejaVuSans-33" transform="scale(0.015625)"/>
       </defs>
       <use xlink:href="#DejaVuSans-33"/>
       <use x="63.623047" xlink:href="#DejaVuSans-30"/>
       <use x="127.246094" xlink:href="#DejaVuSans-30"/>
       <use x="190.869141" xlink:href="#DejaVuSans-30"/>
      </g>
     </g>
    </g>
    <g id="xtick_8">
     <g id="line2d_8">
      <g>
       <use style="fill:#ffffff;stroke:#ffffff;stroke-width:0.8;" x="770.883046" xlink:href="#m0b67153db6" y="504"/>
      </g>
     </g>
     <g id="text_8">
      <!-- 3500 -->
      <g style="fill:#ffffff;" transform="translate(758.158046 518.598438)scale(0.1 -0.1)">
       <use xlink:href="#DejaVuSans-33"/>
       <use x="63.623047" xlink:href="#DejaVuSans-35"/>
       <use x="127.246094" xlink:href="#DejaVuSans-30"/>
       <use x="190.869141" xlink:href="#DejaVuSans-30"/>
      </g>
     </g>
    </g>
    <g id="xtick_9">
     <g id="line2d_9">
      <g>
       <use style="fill:#ffffff;stroke:#ffffff;stroke-width:0.8;" x="857.936468" xlink:href="#m0b67153db6" y="504"/>
      </g>
     </g>
     <g id="text_9">
      <!-- 4000 -->
      <g style="fill:#ffffff;" transform="translate(845.211468 518.598438)scale(0.1 -0.1)">
       <defs>
        <path d="M 2419 4116 
L 825 1625 
L 2419 1625 
L 2419 4116 
z
M 2253 4666 
L 3047 4666 
L 3047 1625 
L 3713 1625 
L 3713 1100 
L 3047 1100 
L 3047 0 
L 2419 0 
L 2419 1100 
L 313 1100 
L 313 1709 
L 2253 4666 
z
" id="DejaVuSans-34" transform="scale(0.015625)"/>
       </defs>
       <use xlink:href="#DejaVuSans-34"/>
       <use x="63.623047" xlink:href="#DejaVuSans-30"/>
       <use x="127.246094" xlink:href="#DejaVuSans-30"/>
       <use x="190.869141" xlink:href="#DejaVuSans-30"/>
      </g>
     </g>
    </g>
    <g id="text_10">
     <!-- iteration -->
     <g style="fill:#ffffff;" transform="translate(495.477344 532.276562)scale(0.1 -0.1)">
      <defs>
       <path d="M 603 3500 
L 1178 3500 
L 1178 0 
L 603 0 
L 603 3500 
z
M 603 4863 
L 1178 4863 
L 1178 4134 
L 603 4134 
L 603 4863 
z
" id="DejaVuSans-69" transform="scale(0.015625)"/>
       <path d="M 1172 4494 
L 1172 3500 
L 2356 3500 
L 2356 3053 
L 1172 3053 
L 1172 1153 
Q 1172 725 1289 603 
Q 1406 481 1766 481 
L 2356 481 
L 2356 0 
L 1766 0 
Q 1100 0 847 248 
Q 594 497 594 1153 
L 594 3053 
L 172 3053 
L 172 3500 
L 594 3500 
L 594 4494 
L 1172 4494 
z
" id="DejaVuSans-74" transform="scale(0.015625)"/>
       <path d="M 3597 1894 
L 3597 1613 
L 953 1613 
Q 991 1019 1311 708 
Q 1631 397 2203 397 
Q 2534 397 2845 478 
Q 3156 559 3463 722 
L 3463 178 
Q 3153 47 2828 -22 
Q 2503 -91 2169 -91 
Q 1331 -91 842 396 
Q 353 884 353 1716 
Q 353 2575 817 3079 
Q 1281 3584 2069 3584 
Q 2775 3584 3186 3129 
Q 3597 2675 3597 1894 
z
M 3022 2063 
Q 3016 2534 2758 2815 
Q 2500 3097 2075 3097 
Q 1594 3097 1305 2825 
Q 1016 2553 972 2059 
L 3022 2063 
z
" id="DejaVuSans-65" transform="scale(0.015625)"/>
       <path d="M 2631 2963 
Q 2534 3019 2420 3045 
Q 2306 3072 2169 3072 
Q 1681 3072 1420 2755 
Q 1159 2438 1159 1844 
L 1159 0 
L 581 0 
L 581 3500 
L 1159 3500 
L 1159 2956 
Q 1341 3275 1631 3429 
Q 1922 3584 2338 3584 
Q 2397 3584 2469 3576 
Q 2541 3569 2628 3553 
L 2631 2963 
z
" id="DejaVuSans-72" transform="scale(0.015625)"/>
       <path d="M 2194 1759 
Q 1497 1759 1228 1600 
Q 959 1441 959 1056 
Q 959 750 1161 570 
Q 1363 391 1709 391 
Q 2188 391 2477 730 
Q 2766 1069 2766 1631 
L 2766 1759 
L 2194 1759 
z
M 3341 1997 
L 3341 0 
L 2766 0 
L 2766 531 
Q 2569 213 2275 61 
Q 1981 -91 1556 -91 
Q 1019 -91 701 211 
Q 384 513 384 1019 
Q 384 1609 779 1909 
Q 1175 2209 1959 2209 
L 2766 2209 
L 2766 2266 
Q 2766 2663 2505 2880 
Q 2244 3097 1772 3097 
Q 1472 3097 1187 3025 
Q 903 2953 641 2809 
L 641 3341 
Q 956 3463 1253 3523 
Q 1550 3584 1831 3584 
Q 2591 3584 2966 3190 
Q 3341 2797 3341 1997 
z
" id="DejaVuSans-61" transform="scale(0.015625)"/>
       <path d="M 1959 3097 
Q 1497 3097 1228 2736 
Q 959 2375 959 1747 
Q 959 1119 1226 758 
Q 1494 397 1959 397 
Q 2419 397 2687 759 
Q 2956 1122 2956 1747 
Q 2956 2369 2687 2733 
Q 2419 3097 1959 3097 
z
M 1959 3584 
Q 2709 3584 3137 3096 
Q 3566 2609 3566 1747 
Q 3566 888 3137 398 
Q 2709 -91 1959 -91 
Q 1206 -91 779 398 
Q 353 888 353 1747 
Q 353 2609 779 3096 
Q 1206 3584 1959 3584 
z
" id="DejaVuSans-6f" transform="scale(0.015625)"/>
       <path d="M 3513 2113 
L 3513 0 
L 2938 0 
L 2938 2094 
Q 2938 2591 2744 2837 
Q 2550 3084 2163 3084 
Q 1697 3084 1428 2787 
Q 1159 2491 1159 1978 
L 1159 0 
L 581 0 
L 581 3500 
L 1159 3500 
L 1159 2956 
Q 1366 3272 1645 3428 
Q 1925 3584 2291 3584 
Q 2894 3584 3203 3211 
Q 3513 2838 3513 2113 
z
" id="DejaVuSans-6e" transform="scale(0.015625)"/>
      </defs>
      <use xlink:href="#DejaVuSans-69"/>
      <use x="27.783203" xlink:href="#DejaVuSans-74"/>
      <use x="66.992188" xlink:href="#DejaVuSans-65"/>
      <use x="128.515625" xlink:href="#DejaVuSans-72"/>
      <use x="169.628906" xlink:href="#DejaVuSans-61"/>
      <use x="230.908203" xlink:href="#DejaVuSans-74"/>
      <use x="270.117188" xlink:href="#DejaVuSans-69"/>
      <use x="297.900391" xlink:href="#DejaVuSans-6f"/>
      <use x="359.082031" xlink:href="#DejaVuSans-6e"/>
     </g>
    </g>
   </g>
   <g id="matplotlib.axis_2">
    <g id="ytick_1">
     <g id="line2d_10">
      <defs>
       <path d="M 0 0 
L -3.5 0 
" id="m4ac50507b8" style="stroke:#ffffff;stroke-width:0.8;"/>
      </defs>
      <g>
       <use style="fill:#ffffff;stroke:#ffffff;stroke-width:0.8;" x="126" xlink:href="#m4ac50507b8" y="484.232727"/>
      </g>
     </g>
     <g id="text_11">
      <!-- 0 -->
      <g style="fill:#ffffff;" transform="translate(112.6375 488.031946)scale(0.1 -0.1)">
       <use xlink:href="#DejaVuSans-30"/>
      </g>
     </g>
    </g>
    <g id="ytick_2">
     <g id="line2d_11">
      <g>
       <use style="fill:#ffffff;stroke:#ffffff;stroke-width:0.8;" x="126" xlink:href="#m4ac50507b8" y="408.373979"/>
      </g>
     </g>
     <g id="text_12">
      <!-- 5000 -->
      <g style="fill:#ffffff;" transform="translate(93.55 412.173197)scale(0.1 -0.1)">
       <use xlink:href="#DejaVuSans-35"/>
       <use x="63.623047" xlink:href="#DejaVuSans-30"/>
       <use x="127.246094" xlink:href="#DejaVuSans-30"/>
       <use x="190.869141" xlink:href="#DejaVuSans-30"/>
      </g>
     </g>
    </g>
    <g id="ytick_3">
     <g id="line2d_12">
      <g>
       <use style="fill:#ffffff;stroke:#ffffff;stroke-width:0.8;" x="126" xlink:href="#m4ac50507b8" y="332.51523"/>
      </g>
     </g>
     <g id="text_13">
      <!-- 10000 -->
      <g style="fill:#ffffff;" transform="translate(87.1875 336.314449)scale(0.1 -0.1)">
       <use xlink:href="#DejaVuSans-31"/>
       <use x="63.623047" xlink:href="#DejaVuSans-30"/>
       <use x="127.246094" xlink:href="#DejaVuSans-30"/>
       <use x="190.869141" xlink:href="#DejaVuSans-30"/>
       <use x="254.492188" xlink:href="#DejaVuSans-30"/>
      </g>
     </g>
    </g>
    <g id="ytick_4">
     <g id="line2d_13">
      <g>
       <use style="fill:#ffffff;stroke:#ffffff;stroke-width:0.8;" x="126" xlink:href="#m4ac50507b8" y="256.656481"/>
      </g>
     </g>
     <g id="text_14">
      <!-- 15000 -->
      <g style="fill:#ffffff;" transform="translate(87.1875 260.4557)scale(0.1 -0.1)">
       <use xlink:href="#DejaVuSans-31"/>
       <use x="63.623047" xlink:href="#DejaVuSans-35"/>
       <use x="127.246094" xlink:href="#DejaVuSans-30"/>
       <use x="190.869141" xlink:href="#DejaVuSans-30"/>
       <use x="254.492188" xlink:href="#DejaVuSans-30"/>
      </g>
     </g>
    </g>
    <g id="ytick_5">
     <g id="line2d_14">
      <g>
       <use style="fill:#ffffff;stroke:#ffffff;stroke-width:0.8;" x="126" xlink:href="#m4ac50507b8" y="180.797733"/>
      </g>
     </g>
     <g id="text_15">
      <!-- 20000 -->
      <g style="fill:#ffffff;" transform="translate(87.1875 184.596951)scale(0.1 -0.1)">
       <use xlink:href="#DejaVuSans-32"/>
       <use x="63.623047" xlink:href="#DejaVuSans-30"/>
       <use x="127.246094" xlink:href="#DejaVuSans-30"/>
       <use x="190.869141" xlink:href="#DejaVuSans-30"/>
       <use x="254.492188" xlink:href="#DejaVuSans-30"/>
      </g>
     </g>
    </g>
    <g id="ytick_6">
     <g id="line2d_15">
      <g>
       <use style="fill:#ffffff;stroke:#ffffff;stroke-width:0.8;" x="126" xlink:href="#m4ac50507b8" y="104.938984"/>
      </g>
     </g>
     <g id="text_16">
      <!-- 25000 -->
      <g style="fill:#ffffff;" transform="translate(87.1875 108.738203)scale(0.1 -0.1)">
       <use xlink:href="#DejaVuSans-32"/>
       <use x="63.623047" xlink:href="#DejaVuSans-35"/>
       <use x="127.246094" xlink:href="#DejaVuSans-30"/>
       <use x="190.869141" xlink:href="#DejaVuSans-30"/>
       <use x="254.492188" xlink:href="#DejaVuSans-30"/>
      </g>
     </g>
    </g>
   </g>
   <g id="line2d_16">
    <path clip-path="url(#p90bd672a78)" d="M 161.509091 295.086523 
L 162.031411 250.800186 
L 162.205518 254.486921 
L 162.553732 289.002652 
L 162.727839 232.594086 
L 162.901946 215.63207 
L 163.250159 246.764501 
L 163.424266 231.683781 
L 163.598373 246.764501 
L 163.77248 242.07643 
L 164.120694 283.116013 
L 164.2948 270.189682 
L 164.468907 320.757124 
L 164.643014 316.509034 
L 164.817121 347.459404 
L 164.991228 331.55941 
L 165.165335 348.855205 
L 165.339441 336.672289 
L 165.513548 346.488412 
L 165.861762 377.590499 
L 166.209976 328.904354 
L 166.384083 330.406357 
L 166.732296 310.273445 
L 166.906403 335.413034 
L 167.08051 341.26933 
L 167.254617 339.767326 
L 167.60283 292.173547 
L 167.951044 317.677259 
L 168.125151 290.656373 
L 168.299258 317.677259 
L 168.473365 302.59654 
L 168.647472 320.590235 
L 168.821578 322.092238 
L 168.995685 312.276116 
L 169.343899 275.772886 
L 169.518006 290.853605 
L 169.692113 320.362658 
L 170.040326 259.903236 
L 170.214433 272.25304 
L 170.38854 255.457913 
L 170.562647 255.457913 
L 171.084967 319.786132 
L 171.259074 317.965522 
L 171.433181 288.456469 
L 171.607288 301.337284 
L 171.955502 260.343217 
L 172.129608 261.602472 
L 172.477822 301.716578 
L 172.651929 331.225631 
L 173.000143 291.490819 
L 173.174249 296.087859 
L 173.348356 271.312392 
L 173.522463 266.715351 
L 173.870677 303.931654 
L 174.044784 302.42965 
L 174.218891 307.02669 
L 174.567104 341.982402 
L 174.741211 321.530883 
L 174.915318 343.863699 
L 175.089425 334.047577 
L 175.263532 306.510851 
L 175.437638 319.315808 
L 175.785852 311.805792 
L 175.959959 316.418004 
L 176.134066 326.234126 
L 176.308173 353.770851 
L 176.48228 355.272855 
L 176.656386 375.724373 
L 177.352814 292.006658 
L 177.526921 303.931654 
L 177.875134 341.421047 
L 178.223348 300.351121 
L 178.397455 325.126588 
L 178.919775 264.9706 
L 179.093882 272.222697 
L 179.267989 297.665721 
L 179.442096 272.890254 
L 179.616203 285.69521 
L 179.79031 258.158485 
L 179.964416 254.395891 
L 180.486737 302.384135 
L 180.834951 268.551133 
L 181.009057 286.544828 
L 181.183164 259.008103 
L 181.357271 250.481579 
L 181.531378 248.312019 
L 181.705485 260.570793 
L 181.879592 231.06174 
L 182.053699 253.34904 
L 182.227805 257.111634 
L 182.401912 240.149618 
L 182.576019 241.484732 
L 182.750126 273.603326 
L 183.09834 252.666311 
L 183.272446 269.628327 
L 183.446553 265.941592 
L 183.62066 248.478908 
L 183.794767 272.131666 
L 183.968874 274.377085 
L 184.142981 313.444341 
L 184.317088 296.482324 
L 184.491194 308.665239 
L 184.665301 295.784424 
L 184.839408 301.185567 
L 185.187622 262.649322 
L 185.361729 279.611339 
L 185.535835 285.467634 
L 185.884049 237.206298 
L 186.232263 280.976796 
L 186.580476 272.60199 
L 186.754583 287.68271 
L 186.92869 285.209714 
L 187.102797 288.89645 
L 187.276904 306.890145 
L 187.451011 305.388142 
L 187.625118 288.426125 
L 187.799224 293.114196 
L 187.973331 278.837579 
L 188.147438 275.150844 
L 188.321545 258.355717 
L 188.495652 271.236533 
L 188.669759 244.215647 
L 188.843865 315.462183 
L 189.017972 340.601773 
L 189.192079 328.418858 
L 189.366186 297.468488 
L 189.540293 314.263615 
L 189.7144 310.501021 
L 190.23672 365.862736 
L 190.410827 342.543757 
L 190.584934 342.92305 
L 190.759041 352.071615 
L 190.933148 344.060932 
L 191.281361 300.244918 
L 191.455468 318.238614 
L 191.629575 308.422491 
L 191.803682 313.110562 
L 191.977789 325.035557 
L 192.151896 310.758941 
L 192.326002 260.009438 
L 192.500109 295.66305 
L 192.674216 300.26009 
L 192.848323 295.66305 
L 193.196537 314.840142 
L 193.370643 301.140052 
L 193.54475 301.140052 
L 193.718857 288.213721 
L 193.892964 288.213721 
L 194.067071 301.140052 
L 194.241178 286.969637 
L 194.415284 286.30208 
L 194.589391 298.636713 
L 194.763498 319.088232 
L 194.937605 288.137862 
L 195.111712 307.314954 
L 195.285819 294.434138 
L 195.459926 325.733458 
L 195.634032 302.793772 
L 195.808139 306.723255 
L 195.982246 329.056071 
L 196.156353 304.781272 
L 196.33046 317.662087 
L 196.678673 278.534144 
L 196.85278 292.856276 
L 197.026887 278.124507 
L 197.200994 296.421637 
L 197.375101 277.669355 
L 197.549208 293.569348 
L 197.723315 287.713053 
L 197.897421 265.380237 
L 198.071528 269.73453 
L 198.245635 286.529657 
L 198.767956 242.531582 
L 198.942062 254.30486 
L 199.116169 292.962478 
L 199.290276 305.888809 
L 199.63849 277.001798 
L 199.812597 291.278414 
L 199.986704 290.610857 
L 200.16081 278.427942 
L 200.509024 285.877271 
L 200.683131 302.839288 
L 200.857238 286.044161 
L 201.031345 282.357425 
L 201.379558 246.051428 
L 201.901879 291.718395 
L 202.075986 269.506953 
L 202.250092 263.650658 
L 202.424199 241.317842 
L 202.598306 245.914883 
L 202.772413 276.865252 
L 202.94652 274.392257 
L 203.120627 291.354273 
L 203.642947 249.70782 
L 203.817054 351.616463 
L 203.991161 374.935442 
L 204.165268 372.462447 
L 204.513481 319.179262 
L 204.861695 375.269221 
L 205.035802 360.992604 
L 205.209909 356.304534 
L 205.384016 360.901574 
L 205.558123 337.582594 
L 205.732229 342.270665 
L 206.080443 299.3953 
L 206.25455 293.539005 
L 206.428657 309.438999 
L 206.602764 296.512668 
L 206.77687 273.572982 
L 206.950977 281.811242 
L 207.125084 283.313246 
L 207.473298 261.981766 
L 207.647405 264.454761 
L 207.821512 254.411062 
L 207.995618 266.336058 
L 208.343832 227.329489 
L 208.692046 276.561817 
L 209.040259 262.148655 
L 209.214366 262.148655 
L 209.388473 249.96574 
L 209.56258 254.56278 
L 209.736687 249.874709 
L 209.910794 275.014299 
L 210.0849 272.541303 
L 210.433114 309.484514 
L 210.607221 308.528694 
L 210.781328 320.817811 
L 210.955435 297.878125 
L 211.129542 313.778119 
L 211.303648 282.82775 
L 211.477755 295.75408 
L 211.651862 299.516674 
L 212.000076 326.567904 
L 212.174183 312.291288 
L 212.348289 309.818292 
L 212.87061 254.729669 
L 213.044717 241.803338 
L 213.218824 238.116603 
L 213.392931 269.415923 
L 213.567037 247.204481 
L 213.741144 241.348186 
L 213.915251 246.294176 
L 214.089358 247.796179 
L 214.437572 253.95591 
L 214.611678 271.949605 
L 214.785785 247.174138 
L 214.959892 244.701143 
L 215.133999 224.249624 
L 215.308106 237.175955 
L 215.482213 218.423672 
L 215.65632 238.875191 
L 216.004533 204.61738 
L 216.17864 229.756969 
L 216.526854 212.977014 
L 216.700961 222.793136 
L 217.049174 197.926638 
L 217.571495 255.77652 
L 217.745602 230.636931 
L 217.919708 258.173656 
L 218.267922 229.195614 
L 218.442029 246.157631 
L 218.616136 247.113451 
L 218.790243 249.586446 
L 218.96435 260.085297 
L 219.138456 237.752481 
L 219.312563 266.867069 
L 219.48667 260.707339 
L 219.660777 315.750447 
L 219.834884 317.25245 
L 220.008991 348.202819 
L 220.357204 341.96723 
L 220.531311 357.047949 
L 220.879525 328.26714 
L 221.053632 332.955211 
L 221.227739 320.02888 
L 221.401845 288.72956 
L 221.575952 290.990151 
L 221.924166 311.972681 
L 222.27238 300.351121 
L 222.446486 283.389104 
L 222.620593 306.708084 
L 222.7947 288.714389 
L 222.968807 290.216392 
L 223.142914 284.360096 
L 223.317021 313.86915 
L 223.491128 304.386806 
L 223.665234 318.55722 
L 223.839341 289.048167 
L 224.013448 308.225259 
L 224.187555 293.948642 
L 224.361662 290.261907 
L 224.535769 273.46678 
L 224.709875 286.271737 
L 224.883982 281.583666 
L 225.058089 286.271737 
L 225.232196 274.088822 
L 225.406303 288.365438 
L 225.58041 275.560482 
L 225.754516 248.023756 
L 225.928623 266.017451 
L 226.276837 336.960553 
L 226.625051 308.999018 
L 226.973264 271.964777 
L 227.147371 273.224032 
L 227.321478 250.891216 
L 227.495585 254.077284 
L 227.843799 223.946189 
L 228.017905 231.941701 
L 228.192012 259.478427 
L 228.366119 231.941701 
L 228.540226 229.832828 
L 229.062547 181.677694 
L 229.236653 198.63971 
L 229.41076 176.428269 
L 229.584867 189.035993 
L 229.758974 170.010619 
L 229.933081 246.506581 
L 230.107188 251.194651 
L 230.281294 245.338356 
L 230.455401 266.487775 
L 230.629508 249.692648 
L 230.803615 253.379383 
L 230.977722 241.454388 
L 231.151829 259.523942 
L 231.325936 248.054099 
L 231.500042 253.910395 
L 231.674149 230.591415 
L 231.848256 256.03444 
L 232.022363 241.879197 
L 232.370577 288.046832 
L 232.544683 296.421637 
L 232.892897 328.069907 
L 233.067004 339.994903 
L 233.415218 292.27975 
L 233.589324 311.456841 
L 233.763431 301.640719 
L 233.937538 317.540713 
L 234.285752 288.835763 
L 234.459859 313.61123 
L 234.633966 319.467525 
L 234.808072 332.272482 
L 234.982179 319.391667 
L 235.330393 277.123172 
L 235.5045 264.196841 
L 235.678607 260.510106 
L 235.852713 243.54809 
L 236.02682 248.23616 
L 236.200927 261.162491 
L 236.549141 236.311165 
L 236.723248 239.9979 
L 236.897355 252.180815 
L 237.071461 221.230446 
L 237.245568 234.111261 
L 237.419675 236.584256 
L 237.767889 283.070498 
L 238.116102 245.581104 
L 238.290209 230.500385 
L 238.638423 322.987371 
L 238.81253 343.43889 
L 238.986637 312.48852 
L 239.160743 308.801785 
L 239.33485 284.526986 
L 239.508957 286.999981 
L 239.683064 274.877753 
L 240.031278 322.623249 
L 240.205385 312.807127 
L 240.553598 274.786722 
L 240.727705 279.383762 
L 240.901812 289.199885 
L 241.075919 313.474684 
L 241.250026 311.001689 
L 241.424132 293.007994 
L 241.598239 262.057624 
L 241.772346 293.007994 
L 241.946453 221.852487 
L 242.12056 203.100205 
L 242.294667 229.180443 
L 242.468774 216.997528 
L 242.64288 231.167942 
L 242.816987 228.072905 
L 242.991094 234.354009 
L 243.165201 214.67625 
L 243.339308 210.989515 
L 243.513415 196.394291 
L 243.861628 220.83598 
L 244.035735 224.522715 
L 244.209842 206.52902 
L 244.383949 201.93198 
L 244.558056 216.102394 
L 244.732163 220.031877 
L 244.906269 216.345142 
L 245.080376 220.062221 
L 245.254483 236.857348 
L 245.602697 189.111852 
L 245.95091 231.881014 
L 246.125017 205.178734 
L 246.299124 219.455351 
L 246.473231 196.515665 
L 246.821445 240.392366 
L 246.995551 267.413252 
L 247.169658 253.136635 
L 247.343765 265.31955 
L 247.866086 218.560218 
L 248.040193 189.051165 
L 248.214299 179.690195 
L 248.388406 192.57101 
L 248.562513 214.782452 
L 248.73662 192.57101 
L 249.084834 238.829675 
L 249.433047 298.879461 
L 249.781261 261.5873 
L 249.955368 261.5873 
L 250.129475 262.846555 
L 250.303582 307.512186 
L 250.477688 305.039191 
L 250.651795 309.636231 
L 251.000009 260.950087 
L 251.174116 273.133002 
L 251.348223 258.856385 
L 251.522329 255.16965 
L 251.870543 291.779082 
L 252.04465 277.502465 
L 252.392864 281.477464 
L 252.566971 269.294549 
L 252.741077 239.785496 
L 252.915184 238.283492 
L 253.089291 290.534999 
L 253.263398 303.339955 
L 253.611612 289.032995 
L 253.785718 301.913811 
L 253.959825 324.246626 
L 254.308039 269.977278 
L 254.482146 310.167243 
L 254.656253 310.167243 
L 254.830359 330.618761 
L 255.004466 316.448347 
L 255.178573 339.388033 
L 255.35268 334.790992 
L 255.526787 326.552732 
L 255.700894 336.004732 
L 255.875001 320.924013 
L 256.049107 325.521053 
L 256.223214 300.745586 
L 256.397321 296.982992 
L 256.571428 299.455987 
L 256.745535 297.953984 
L 256.919642 275.621169 
L 257.093748 276.910767 
L 257.267855 272.693021 
L 257.441962 278.549316 
L 257.616069 291.430132 
L 257.790176 273.436437 
L 257.964283 292.188719 
L 258.312496 245.702478 
L 258.486603 264.87957 
L 258.66071 259.023274 
L 259.008924 213.447338 
L 259.183031 217.209932 
L 259.531244 261.905907 
L 259.705351 249.025091 
L 259.879458 254.881387 
L 260.053565 223.582067 
L 260.227672 238.677958 
L 260.401779 279.307904 
L 260.575885 289.715724 
L 260.749992 244.670799 
L 261.272313 300.214575 
L 261.44642 295.40513 
L 261.620526 326.3555 
L 261.794633 330.118094 
L 261.96874 312.124398 
L 262.142847 315.811134 
L 262.316954 328.691949 
L 263.013381 265.789875 
L 263.187488 282.585002 
L 263.535702 347.42906 
L 263.709809 351.115795 
L 263.883915 327.796816 
L 264.058022 329.298819 
L 264.232129 316.372488 
L 264.406236 312.609894 
L 264.580343 326.780309 
L 264.928556 305.843294 
L 265.27677 292.264578 
L 265.450877 323.214947 
L 265.624984 304.462665 
L 265.799091 302.353792 
L 265.973198 314.278787 
L 266.321411 293.296257 
L 266.495518 268.52079 
L 266.843732 310.789284 
L 267.017839 309.287281 
L 267.191945 296.406466 
L 267.366052 308.331461 
L 267.540159 214.145239 
L 267.888373 169.236859 
L 268.06248 177.505463 
L 268.410693 210.959171 
L 268.5848 187.640192 
L 268.933014 240.468224 
L 269.107121 213.447338 
L 269.281228 208.759267 
L 269.455334 235.780154 
L 269.629441 240.999236 
L 269.977655 277.19903 
L 270.151762 274.726035 
L 270.325869 261.921079 
L 270.499975 261.921079 
L 270.848189 236.811833 
L 271.022296 237.646279 
L 271.37051 258.204 
L 271.544617 256.019268 
L 271.718723 230.955537 
L 271.89283 241.924712 
L 272.241044 288.213721 
L 272.589258 236.402195 
L 272.763364 250.997419 
L 272.937471 255.275852 
L 273.111578 251.316025 
L 273.285685 240.34685 
L 273.459792 221.594568 
L 273.633899 250.496751 
L 273.808006 249.328526 
L 273.982112 227.117085 
L 274.156219 252.256674 
L 274.330326 227.481207 
L 274.504433 222.793136 
L 275.20086 293.356944 
L 275.374967 274.179852 
L 275.897288 314.82497 
L 276.071395 296.072687 
L 276.419608 351.798524 
L 276.593715 335.003397 
L 276.767822 357.336213 
L 277.290142 277.19903 
L 277.464249 300.457323 
L 277.812463 253.986253 
L 277.98657 248.615454 
L 278.160677 248.615454 
L 278.50889 283.237387 
L 278.857104 249.10095 
L 279.205318 218.029207 
L 279.379425 231.334831 
L 279.901745 311.79062 
L 280.075852 289.579178 
L 280.249959 286.393111 
L 280.772279 240.665457 
L 281.120493 282.175364 
L 281.468707 258.067454 
L 281.642814 270.993785 
L 281.81692 296.436809 
L 281.991027 290.155705 
L 282.165134 275.074986 
L 282.339241 250.299518 
L 282.513348 269.051801 
L 282.687455 250.299518 
L 282.861561 253.561444 
L 283.035668 277.836244 
L 283.209775 264.955428 
L 283.732096 333.1221 
L 283.906203 277.396263 
L 284.080309 280.203037 
L 284.60263 241.075094 
L 284.776737 240.119274 
L 284.950844 254.623467 
L 285.12495 252.150472 
L 285.299057 255.002761 
L 285.473164 242.07643 
L 285.647271 245.763165 
L 285.821378 259.933579 
L 285.995485 256.246844 
L 286.169591 264.454761 
L 286.517805 308.543865 
L 286.691912 285.224886 
L 286.866019 312.761612 
L 287.040126 317.358652 
L 287.736553 271.403422 
L 287.91066 277.259717 
L 288.258874 233.443704 
L 288.43298 264.909913 
L 288.781194 245.399043 
L 288.955301 256.701997 
L 289.129408 250.633297 
L 289.303515 291.263242 
L 289.477622 261.754189 
L 289.651728 292.704559 
L 289.825835 296.391294 
L 289.999942 313.186421 
L 290.348156 265.83539 
L 290.522263 288.046832 
L 290.696369 265.107146 
L 290.870476 283.859429 
L 291.044583 289.821926 
L 291.392797 255.154478 
L 291.566904 267.959435 
L 291.74101 252.878716 
L 291.915117 267.04913 
L 292.089224 264.576135 
L 292.437438 312.04854 
L 292.785652 272.996456 
L 292.959758 257.096462 
L 293.133865 269.021457 
L 293.307972 272.784051 
L 293.656186 237.540077 
L 293.830293 231.683781 
L 294.004399 256.459249 
L 294.178506 231.683781 
L 294.700827 283.389104 
L 294.874934 287.68271 
L 295.049041 295.845111 
L 295.397254 228.588744 
L 295.571361 262.178998 
L 295.745468 243.532918 
L 295.919575 245.034921 
L 296.093682 267.367737 
L 296.267788 245.156295 
L 296.616002 278.913438 
L 296.790109 275.226703 
L 296.964216 254.775184 
L 297.138323 282.812578 
L 297.31243 292.6287 
L 297.486536 290.155705 
L 297.83475 256.428905 
L 298.008857 280.703705 
L 298.182964 285.391775 
L 298.705284 225.038555 
L 298.879391 210.761938 
L 299.053498 225.038555 
L 299.227605 254.942074 
L 299.401712 251.17948 
L 299.575818 264.560963 
L 300.098139 348.506254 
L 300.272246 321.803975 
L 300.446353 338.765991 
L 300.794566 297.195397 
L 300.968673 324.216283 
L 301.490994 266.927756 
L 301.839207 306.101214 
L 302.013314 275.150844 
L 302.187421 275.150844 
L 302.361528 269.097316 
L 302.535635 258.765355 
L 302.709742 259.721175 
L 303.057955 315.795962 
L 303.406169 273.694356 
L 303.580276 304.644726 
L 303.754383 306.146729 
L 303.92849 324.140424 
L 304.102596 326.613419 
L 304.276703 320.757124 
L 304.624917 290.868777 
L 304.973131 255.77652 
L 305.147238 261.632815 
L 305.495451 235.279486 
L 305.669558 212.3398 
L 305.843665 304.41715 
L 306.017772 282.979467 
L 306.365985 282.888437 
L 306.714199 259.584629 
L 306.888306 285.027653 
L 307.23652 244.731486 
L 307.410626 261.693502 
L 307.584733 256.459249 
L 307.75884 285.968302 
L 307.932947 269.006286 
L 308.107054 274.862581 
L 308.629374 232.806491 
L 308.803481 259.827377 
L 308.977588 235.05191 
L 309.325802 262.937586 
L 309.674015 223.308975 
L 309.848122 219.546381 
L 310.022229 207.424153 
L 310.370443 247.325855 
L 310.54455 220.304969 
L 310.718657 220.304969 
L 310.892763 233.261643 
L 311.06687 223.445521 
L 311.240977 253.910395 
L 311.415084 224.401341 
L 311.763298 287.060668 
L 312.111511 327.265805 
L 312.285618 221.503537 
L 312.459725 217.740943 
L 312.633832 249.040263 
L 312.807939 217.740943 
L 313.504366 311.305124 
L 313.678473 288.365438 
L 313.85258 295.784424 
L 314.026687 321.819146 
L 314.200793 328.100251 
L 314.723114 268.657335 
L 315.071328 306.389477 
L 315.245434 294.464482 
L 315.419541 274.604661 
L 315.593648 287.530992 
L 315.767755 314.551878 
L 315.941862 291.232899 
L 316.290076 325.74863 
L 316.464182 324.246626 
L 316.638289 343.423718 
L 316.812396 318.648251 
L 317.16061 336.141278 
L 317.508823 285.664867 
L 317.857037 252.211159 
L 318.205251 295.632706 
L 318.553465 255.351711 
L 318.727571 268.232526 
L 318.901678 269.47661 
L 319.075785 226.176436 
L 319.249892 239.102767 
L 319.423999 238.586927 
L 319.598106 250.769842 
L 319.772212 225.630253 
L 319.946319 244.382536 
L 320.120426 244.382536 
L 320.294533 232.457541 
L 320.46864 251.634632 
L 320.642747 249.161637 
L 320.816854 236.978722 
L 320.99096 240.134446 
L 321.339174 288.213721 
L 321.513281 376.209869 
L 321.687388 360.719513 
L 321.861495 385.859102 
L 322.209708 352.177818 
L 322.383815 215.28312 
L 322.557922 239.861354 
L 322.732029 288.775076 
L 322.906136 253.880051 
L 323.254349 295.814767 
L 323.428456 301.671063 
L 323.950777 252.013926 
L 324.124884 249.540931 
L 324.29899 249.540931 
L 324.473097 231.547236 
L 324.647204 244.473566 
L 324.995418 216.466516 
L 325.169525 228.98321 
L 325.343631 215.965849 
L 325.517738 211.823961 
L 325.691845 221.640083 
L 326.040059 198.943145 
L 326.388273 220.441515 
L 327.0847 274.028135 
L 327.258807 292.02183 
L 327.60702 338.32601 
L 327.955234 309.878979 
L 328.303448 260.525278 
L 328.651662 302.626883 
L 328.999875 274.801894 
L 329.173982 243.502574 
L 329.348089 238.389695 
L 329.522196 251.194651 
L 329.696303 274.513631 
L 329.870409 243.563261 
L 330.218623 274.695692 
L 330.566837 220.047049 
L 330.91505 245.763165 
L 331.263264 213.068044 
L 331.437371 231.06174 
L 331.611478 260.570793 
L 331.785585 236.295993 
L 331.959692 282.888437 
L 332.133798 279.201701 
L 332.307905 270.842067 
L 332.482012 270.842067 
L 332.656119 272.283384 
L 332.830226 280.643018 
L 333.004333 278.170022 
L 333.178439 280.643018 
L 333.352546 305.782607 
L 333.526653 295.966485 
L 333.70076 279.004469 
L 334.048974 272.435101 
L 334.397187 327.280976 
L 334.571294 314.400161 
L 334.919508 345.2595 
L 335.093615 320.119911 
L 335.267722 336.019904 
L 335.615935 296.816103 
L 335.790042 309.742434 
L 335.964149 310.516193 
L 336.312363 268.778709 
L 336.48647 267.413252 
L 336.660576 263.332051 
L 337.00879 289.533663 
L 337.182897 271.539968 
L 337.531111 344.91055 
L 337.705217 320.135082 
L 337.879324 338.128777 
L 338.053431 325.323821 
L 338.401645 366.803384 
L 338.749858 319.695102 
L 338.923965 313.201593 
L 339.098072 332.317997 
L 339.272179 328.631262 
L 339.446286 336.475057 
L 339.620393 325.096244 
L 339.7945 343.848527 
L 339.968606 331.923532 
L 340.142713 335.109599 
L 340.31682 354.286691 
L 340.490927 330.967712 
L 340.665034 334.654447 
L 340.839141 258.871557 
L 341.361461 313.429169 
L 341.535568 300.502838 
L 342.057889 235.901528 
L 342.231995 250.982247 
L 342.406102 235.901528 
L 342.580209 248.569939 
L 342.754316 252.256674 
L 342.928423 231.805155 
L 343.10253 280.718876 
L 343.276636 283.191872 
L 343.450743 264.697509 
L 343.62485 312.913329 
L 344.147171 349.188983 
L 344.321277 332.226967 
L 344.495384 302.717914 
L 344.669491 310.986517 
L 344.843598 308.513522 
L 345.017705 294.358279 
L 345.191812 291.172212 
L 345.540025 337.643281 
L 345.714132 321.743288 
L 345.888239 323.472867 
L 346.236453 350.448238 
L 346.41056 348.946235 
L 346.584666 362.34289 
L 346.758773 366.93993 
L 347.106987 339.342517 
L 347.281094 337.248816 
L 347.455201 350.175147 
L 347.629308 337.294331 
L 347.977521 354.165317 
L 348.325735 341.785169 
L 348.499842 343.287172 
L 348.673949 341.785169 
L 348.848055 347.641465 
L 349.022162 343.878871 
L 349.196269 343.878871 
L 349.370376 348.566941 
L 349.544483 332.666948 
L 349.71859 346.837362 
L 349.892697 322.562562 
L 350.066803 322.562562 
L 350.24091 320.741952 
L 350.415017 303.779936 
L 350.589124 320.484032 
L 350.763231 316.797297 
L 350.937338 341.072097 
L 351.111444 313.535371 
L 351.285551 341.072097 
L 351.459658 316.29663 
L 351.633765 328.221625 
L 351.981979 292.962478 
L 352.156085 287.106183 
L 352.504299 270.113823 
L 352.678406 282.994639 
L 352.852513 286.757233 
L 353.02662 253.273181 
L 353.200727 245.793509 
L 353.374833 267.853233 
L 353.54894 269.021457 
L 353.723047 269.112488 
L 354.071261 244.261162 
L 354.593581 301.337284 
L 354.767688 276.197695 
L 354.941795 301.337284 
L 355.464116 260.661823 
L 355.638222 273.46678 
L 355.812329 250.527094 
L 355.986436 261.996937 
L 356.33465 311.350639 
L 356.508757 298.469824 
L 356.682863 276.258382 
L 356.85697 289.063339 
L 357.031077 311.27478 
L 357.205184 286.999981 
L 357.379291 285.497978 
L 357.553398 222.611075 
L 357.901611 250.420892 
L 358.075718 277.699698 
L 358.249825 272.60199 
L 358.423932 250.390549 
L 358.598039 272.723364 
L 358.772146 260.176327 
L 358.946252 266.123653 
L 359.120359 243.790838 
L 359.294466 250.587781 
L 359.468573 287.121355 
L 359.64268 263.802375 
L 359.990893 311.517528 
L 360.165 330.69462 
L 360.513214 270.614491 
L 360.687321 295.389958 
L 360.861428 284.451127 
L 361.035535 303.628219 
L 361.209641 307.314954 
L 361.557855 260.11564 
L 361.731962 292.461811 
L 361.906069 270.128995 
L 362.080176 310.015525 
L 362.254282 293.220398 
L 362.428389 294.722401 
L 362.602496 291.005323 
L 362.776603 302.930318 
L 363.124817 265.638157 
L 363.298924 290.413625 
L 363.47303 271.661342 
L 363.647137 296.800931 
L 363.821244 265.850562 
L 363.995351 268.050465 
L 364.169458 251.088449 
L 364.517671 283.389104 
L 364.865885 335.670954 
L 365.039992 335.670954 
L 365.214099 341.527249 
L 365.388206 310.57688 
L 365.562313 309.074877 
L 365.736419 326.036893 
L 365.910526 301.261426 
L 366.084633 302.763429 
L 366.25874 324.97487 
L 366.432847 304.523352 
L 366.606954 314.56705 
L 366.955167 297.165053 
L 367.129274 273.846074 
L 367.303381 298.424308 
L 367.477488 294.661714 
L 367.651595 285.08834 
L 367.825701 305.539859 
L 367.999808 285.08834 
L 368.173915 294.904462 
L 368.348022 270.629663 
L 368.522129 291.081182 
L 368.696236 287.394446 
L 368.870343 287.394446 
L 369.044449 274.468116 
L 369.218556 286.651031 
L 369.392663 270.751037 
L 369.56677 275.439108 
L 369.740877 257.445412 
L 369.914984 273.345406 
L 370.08909 270.872411 
L 370.263197 258.067454 
L 370.437304 270.94827 
L 370.611411 250.496751 
L 370.959625 293.948642 
L 371.133732 306.753599 
L 371.307838 309.226594 
L 371.656052 261.147319 
L 371.830159 292.097689 
L 372.178373 248.281675 
L 372.352479 279.171358 
L 372.526586 256.959916 
L 372.700693 260.72251 
L 373.048907 290.443968 
L 373.397121 250.329862 
L 373.745334 302.126215 
L 373.919441 305.81295 
L 374.093548 293.007994 
L 374.441762 241.166125 
L 374.615868 227.845329 
L 374.789975 257.354382 
L 374.964082 257.354382 
L 375.312296 238.010401 
L 375.660509 291.172212 
L 376.008723 257.33921 
L 376.18283 253.652475 
L 376.705151 324.064565 
L 376.879257 301.73175 
L 377.053364 319.725445 
L 377.227471 315.037374 
L 377.401578 319.634415 
L 377.749792 272.647506 
L 377.923898 294.858947 
L 378.272112 247.113451 
L 378.620326 287.060668 
L 378.794433 222.641418 
L 379.316753 282.372597 
L 379.49086 254.835871 
L 379.664967 279.110671 
L 380.013181 287.561336 
L 380.361394 283.586337 
L 380.709608 256.565451 
L 380.883715 275.317734 
L 381.406035 226.191608 
L 381.580142 237.509733 
L 382.102463 315.568386 
L 382.27657 303.64339 
L 382.450676 331.180116 
L 382.972997 268.687679 
L 383.321211 295.860283 
L 383.495317 322.820482 
L 383.669424 298.045015 
L 383.843531 310.92583 
L 384.017638 301.686235 
L 384.191745 279.474793 
L 384.539959 275.120501 
L 384.714065 302.141387 
L 384.888172 303.64339 
L 385.062279 272.693021 
L 385.236386 269.006286 
L 385.5846 331.255975 
L 386.10692 248.357534 
L 386.281027 279.656854 
L 386.455134 267.731859 
L 386.629241 269.233862 
L 386.803348 266.760867 
L 386.977454 235.810497 
L 387.151561 232.123762 
L 387.325668 246.400379 
L 387.499775 250.087114 
L 387.673882 225.311646 
L 387.847989 228.588744 
L 388.022095 206.377303 
L 388.196202 208.197913 
L 388.370309 220.122908 
L 388.544416 203.327781 
L 388.89263 235.370516 
L 389.240843 217.331306 
L 389.41495 216.815467 
L 389.589057 205.118047 
L 389.763164 229.392847 
L 389.937271 219.576725 
L 390.111378 220.74495 
L 390.285484 205.66423 
L 390.633698 246.021085 
L 390.981912 211.065373 
L 391.330125 259.963923 
L 391.504232 239.512404 
L 391.678339 261.541785 
L 391.852446 252.089785 
L 392.026553 272.677849 
L 392.20066 258.401233 
L 392.374767 258.401233 
L 392.548873 280.734048 
L 392.72298 233.185784 
L 392.897087 239.922041 
L 393.071194 287.060668 
L 393.245301 264.849226 
L 393.941728 367.425426 
L 394.289942 324.990042 
L 394.464049 329.587082 
L 394.986369 253.789021 
L 395.160476 269.689014 
L 395.334583 265.000944 
L 395.50869 254.65381 
L 395.682797 225.144757 
L 395.856903 225.144757 
L 396.03101 227.617752 
L 396.205117 224.21928 
L 396.901544 317.206935 
L 397.075651 339.53975 
L 397.249758 334.851679 
L 397.423865 321.925349 
L 397.597972 318.238614 
L 397.772079 328.054736 
L 398.120292 279.596167 
L 398.468506 336.960553 
L 398.81672 299.895968 
L 399.33904 263.40791 
L 399.513147 292.916963 
L 399.687254 283.100841 
L 400.035468 237.873855 
L 400.209575 238.420038 
L 400.383681 226.237123 
L 400.557788 226.237123 
L 400.731895 248.569939 
L 400.906002 244.883204 
L 401.254216 304.690241 
L 401.428322 303.522016 
L 401.602429 290.095018 
L 401.776536 317.115904 
L 401.950643 300.320777 
L 402.12475 296.634042 
L 402.298857 296.634042 
L 402.472964 289.427461 
L 402.64707 267.216019 
L 402.995284 294.722401 
L 403.169391 297.620206 
L 403.343498 284.73939 
L 403.517605 288.426125 
L 403.691711 270.007621 
L 403.865818 286.802748 
L 404.039925 274.877753 
L 404.214032 274.877753 
L 404.388139 273.406093 
L 404.562246 269.719358 
L 404.736352 294.130703 
L 404.910459 281.204372 
L 405.084566 281.204372 
L 405.258673 308.24043 
L 405.43278 305.084707 
L 405.606887 325.536225 
L 405.780994 311.365811 
L 405.9551 280.415441 
L 406.129207 286.195878 
L 406.303314 279.62651 
L 406.651528 250.709155 
L 406.825635 262.634151 
L 406.999741 262.634151 
L 407.173848 250.709155 
L 407.347955 251.467743 
L 407.522062 251.467743 
L 407.696169 221.95869 
L 407.870276 240.058587 
L 408.044383 227.875672 
L 408.218489 269.628327 
L 408.392596 246.309348 
L 408.566703 257.521271 
L 408.74081 247.113451 
L 408.914917 293.58452 
L 409.26313 319.16409 
L 409.437237 289.655037 
L 409.611344 289.655037 
L 410.133665 263.14999 
L 410.307772 288.28958 
L 410.481878 282.433284 
L 410.655985 287.121355 
L 410.830092 285.619352 
L 411.004199 287.121355 
L 411.178306 314.658081 
L 411.352413 295.905798 
L 411.526519 264.606478 
L 411.700626 267.701515 
L 412.04884 221.761457 
L 412.222947 251.27051 
L 412.397054 252.772513 
L 412.57116 249.085778 
L 412.745267 231.092083 
L 412.919374 262.042452 
L 413.093481 246.961733 
L 413.267588 250.648468 
L 413.441695 250.648468 
L 413.615802 249.146465 
L 413.789908 236.96355 
L 413.964015 259.296366 
L 414.138122 246.370035 
L 414.312229 222.095235 
L 414.486336 226.64676 
L 414.660443 240.923377 
L 414.834549 269.021457 
L 415.35687 222.429014 
L 415.705084 245.990741 
L 416.053297 245.990741 
L 416.227404 216.481688 
L 416.401511 260.358388 
L 416.575618 264.955428 
L 416.749725 289.730896 
L 416.923832 270.978613 
L 417.097938 294.631371 
L 417.272045 294.631371 
L 417.446152 308.801785 
L 417.620259 310.303788 
L 417.794366 280.794735 
L 417.968473 270.978613 
L 418.14258 283.161528 
L 418.316686 268.884912 
L 418.490793 265.198176 
L 418.6649 237.661451 
L 418.839007 242.243319 
L 419.013114 291.187384 
L 419.187221 261.678331 
L 419.361327 261.678331 
L 419.535434 274.604661 
L 419.883648 316.615236 
L 420.057755 306.207416 
L 420.231862 335.716469 
L 420.754182 279.125843 
L 420.928289 281.598838 
L 421.102396 254.062112 
L 421.276503 272.404758 
L 421.45061 277.001798 
L 421.624716 306.510851 
L 421.798823 289.715724 
L 422.147037 321.819146 
L 422.321144 309.636231 
L 422.495251 308.134228 
L 422.669357 295.329271 
L 422.843464 299.880796 
L 423.017571 292.856276 
L 423.191678 279.929945 
L 423.365785 257.59713 
L 423.539892 262.2852 
L 423.713999 252.469078 
L 423.888105 265.395409 
L 424.062212 246.218318 
L 424.236319 273.755043 
L 424.410426 269.992449 
L 424.584533 240.483396 
L 424.75864 241.363358 
L 424.932746 237.676622 
L 425.106853 241.439216 
L 425.455067 279.368591 
L 425.629174 255.093791 
L 425.803281 267.276706 
L 425.977388 253.00009 
L 426.151494 221.70077 
L 426.325601 223.885502 
L 426.499708 235.810497 
L 426.673815 204.860128 
L 426.847922 225.311646 
L 427.022029 221.549052 
L 427.196135 237.449046 
L 427.370242 216.997528 
L 427.718456 277.381091 
L 427.892563 250.345033 
L 428.06667 263.271364 
L 428.240776 255.852379 
L 428.414883 278.792064 
L 428.58899 254.517265 
L 428.763097 276.728706 
L 428.937204 272.131666 
L 429.111311 297.362286 
L 429.285418 283.085669 
L 429.633631 336.869522 
L 429.807738 318.875827 
L 429.981845 318.875827 
L 430.155952 333.152444 
L 430.330059 333.152444 
L 430.504165 321.227448 
L 430.678272 344.546428 
L 430.852379 340.571429 
L 431.200593 382.673035 
L 431.3747 368.50262 
L 431.548807 380.685535 
L 431.722913 378.21254 
L 431.89702 353.437073 
L 432.071127 358.034113 
L 432.245234 356.53211 
L 432.419341 339.736983 
L 432.593448 218.92434 
L 433.115768 253.849708 
L 433.289875 235.856012 
L 433.638089 275.059814 
L 433.812196 254.608295 
L 433.986302 276.941111 
L 434.334516 270.037965 
L 434.508623 255.442741 
L 434.68273 254.183486 
L 435.030943 299.592533 
L 435.20505 287.485477 
L 435.379157 295.723737 
L 435.553264 296.709901 
L 435.727371 316.949015 
L 436.075584 325.369336 
L 436.249691 307.375641 
L 436.423798 307.375641 
L 436.597905 338.32601 
L 436.946119 350.615127 
L 437.120226 350.615127 
L 437.294332 326.340328 
L 437.468439 350.615127 
L 437.816653 313.201593 
L 437.99076 326.006549 
L 438.164867 307.254267 
L 438.338973 307.254267 
L 438.861294 340.920379 
L 439.035401 328.115423 
L 439.209508 298.606369 
L 439.383615 319.057888 
L 439.731828 309.514857 
L 439.905935 296.588527 
L 440.080042 309.514857 
L 440.254149 281.978132 
L 440.428256 295.359615 
L 440.602362 288.335095 
L 440.950576 244.807345 
L 441.29879 303.64339 
L 441.472897 316.524206 
L 441.82111 294.525169 
L 441.995217 263.574799 
L 442.169324 282.327082 
L 442.517538 251.361541 
L 442.691645 261.693502 
L 442.865751 248.327191 
L 443.388072 289.093682 
L 443.562179 257.794363 
L 443.910392 262.983101 
L 444.084499 250.102285 
L 444.258606 266.897412 
L 444.432713 252.726998 
L 444.60682 229.408019 
L 444.955034 265.911249 
L 445.303247 316.766954 
L 445.477354 303.961997 
L 445.651461 316.842813 
L 445.999675 280.643018 
L 446.173781 301.094536 
L 446.521995 292.643872 
L 446.696102 292.643872 
L 446.870209 279.763056 
L 447.044316 284.451127 
L 447.218423 297.331942 
L 447.392529 275.120501 
L 447.566636 293.114196 
L 447.740743 280.187865 
L 447.91485 309.696918 
L 448.263064 278.458286 
L 448.611277 226.29781 
L 448.785384 230.379011 
L 448.959491 252.590452 
L 449.133598 246.218318 
L 449.307705 223.885502 
L 449.655918 253.273181 
L 449.830025 237.373187 
L 450.004132 237.373187 
L 450.178239 249.556102 
L 450.352346 220.047049 
L 450.700559 247.872038 
L 450.874666 270.204854 
L 451.22288 235.067081 
L 451.396987 257.399897 
L 451.571094 236.948378 
L 451.7452 261.723846 
L 451.919307 230.773476 
L 452.093414 260.28253 
L 452.267521 238.071088 
L 452.441628 262.072796 
L 452.615735 237.297329 
L 452.789842 250.602953 
L 452.963948 248.129958 
L 453.138055 238.313836 
L 453.486269 238.313836 
L 453.660376 258.765355 
L 453.834483 258.765355 
L 454.008589 272.070979 
L 454.182696 251.224995 
L 454.356803 261.041117 
L 454.53091 251.224995 
L 454.879124 251.224995 
L 455.227337 271.494453 
L 455.401444 271.494453 
L 455.575551 261.966594 
L 455.749658 262.831383 
L 455.923765 262.831383 
L 456.097872 309.499686 
L 456.271978 278.549316 
L 456.446085 268.065637 
L 456.620192 271.752372 
L 456.968406 222.702105 
L 457.142513 249.404385 
L 457.316619 249.404385 
L 457.490726 281.265059 
L 457.664833 258.932244 
L 457.83894 261.723846 
L 458.013047 272.177181 
L 458.187154 255.382054 
L 458.361261 255.382054 
L 458.535367 293.599692 
L 458.709474 279.429278 
L 458.883581 291.217727 
L 459.057688 317.828976 
L 459.231795 319.33098 
L 459.405902 319.33098 
L 459.580008 323.92802 
L 459.928222 278.458286 
L 460.102329 292.734902 
L 460.62465 240.240648 
L 460.798756 260.692167 
L 460.972863 236.417367 
L 461.14697 246.749329 
L 461.669291 202.751255 
L 462.713932 270.993785 
L 462.888039 269.491782 
L 463.062145 269.491782 
L 463.236252 241.955056 
L 463.410359 246.552096 
L 463.758573 246.476237 
L 463.93268 243.3812 
L 464.106786 218.605733 
L 464.455 265.820218 
L 464.629107 261.132148 
L 464.803214 261.132148 
L 464.977321 290.641201 
L 465.325534 250.420892 
L 465.673748 286.059332 
L 466.196069 254.805528 
L 466.370175 247.553431 
L 466.544282 247.553431 
L 466.718389 259.721175 
L 466.892496 259.721175 
L 467.066603 237.509733 
L 467.24071 256.079955 
L 467.414816 253.864879 
L 467.588923 250.178144 
L 467.76303 269.355236 
L 467.937137 259.539114 
L 468.111244 282.858093 
L 468.285351 286.544828 
L 468.807671 225.675768 
L 468.981778 244.85286 
L 469.155885 220.57806 
L 469.329992 234.854677 
L 469.504099 238.617271 
L 469.678205 246.112115 
L 469.852312 229.150099 
L 470.026419 229.150099 
L 470.200526 215.844475 
L 470.374633 215.844475 
L 470.54874 232.806491 
L 470.722847 232.806491 
L 470.896953 229.711454 
L 471.07106 229.711454 
L 471.245167 244.792173 
L 471.419274 231.911358 
L 471.593381 254.122799 
L 471.767488 246.32452 
L 471.941594 227.572237 
L 472.115701 250.891216 
L 472.289808 254.65381 
L 472.463915 223.354491 
L 472.638022 237.722138 
L 472.812129 238.632443 
L 472.986235 220.638747 
L 473.508556 276.319069 
L 473.682663 264.394074 
L 474.030877 296.436809 
L 474.204983 323.973535 
L 474.727304 255.943409 
L 474.901411 243.017078 
L 475.075518 274.316398 
L 475.249624 272.814395 
L 475.423731 262.998273 
L 475.597838 260.798369 
L 475.771945 285.937958 
L 475.946052 258.401233 
L 476.120159 271.327563 
L 476.294266 239.891698 
L 476.468372 244.701143 
L 476.642479 241.014407 
L 476.816586 228.088077 
L 476.990693 232.685117 
L 477.338907 194.239903 
L 477.513013 195.969482 
L 477.68712 195.969482 
L 477.861227 183.786567 
L 478.383548 183.786567 
L 478.557655 187.033322 
L 478.905868 187.033322 
L 479.079975 164.700506 
L 479.254082 192.237232 
L 479.428189 187.549161 
L 479.602296 205.542856 
L 479.776402 209.229592 
L 479.950509 209.229592 
L 480.124616 207.727588 
L 480.298723 207.727588 
L 480.47283 211.596385 
L 480.646937 201.780263 
L 480.821043 216.056879 
L 480.99515 212.294285 
L 481.169257 231.471377 
L 481.343364 204.45049 
L 481.691578 204.45049 
L 481.865685 211.975678 
L 482.039791 195.180551 
L 482.213898 250.982247 
L 482.388005 250.982247 
L 482.736219 196.394291 
L 483.084432 196.394291 
L 483.258539 321.667429 
L 483.432646 299.334613 
L 483.606753 225.311646 
L 483.78086 207.317951 
L 483.954967 224.113078 
L 484.129074 199.838279 
L 484.30318 211.141232 
L 484.477287 204.571864 
L 484.651394 209.168905 
L 484.825501 206.695909 
L 484.999608 237.646279 
L 485.173715 206.695909 
L 485.347821 220.866324 
L 485.521928 216.178253 
L 485.696035 235.203627 
L 486.044249 235.203627 
L 486.218356 235.977386 
L 486.566569 202.554022 
L 486.740676 202.554022 
L 486.914783 205.649059 
L 487.08889 199.276924 
L 487.61121 199.276924 
L 487.785317 195.51433 
L 487.959424 201.32511 
L 488.133531 213.250105 
L 488.307638 213.250105 
L 488.481745 190.91729 
L 488.655851 190.91729 
L 488.829958 179.219871 
L 489.178172 179.219871 
L 489.352279 199.671389 
L 489.526386 203.433983 
L 489.700493 172.483614 
L 490.048706 225.766799 
L 490.222813 221.078728 
L 490.39692 190.128359 
L 490.745134 190.128359 
L 490.91924 221.427678 
L 491.093347 221.427678 
L 491.267454 217.665085 
L 491.441561 207.029688 
L 491.615668 207.788275 
L 491.789775 194.861945 
L 491.963882 194.861945 
L 492.486202 244.564597 
L 492.660309 232.639602 
L 492.834416 251.816693 
L 493.008523 233.06441 
L 493.182629 247.341027 
L 493.356736 226.889508 
L 493.530843 238.814504 
L 493.70495 223.733784 
L 493.879057 223.733784 
L 494.053164 220.047049 
L 494.22727 232.97338 
L 494.401377 232.97338 
L 494.575484 220.047049 
L 494.749591 197.714234 
L 494.923698 197.714234 
L 495.097805 194.452307 
L 495.271912 177.65718 
L 495.446018 181.101168 
L 495.620125 181.101168 
L 496.142446 244.883204 
L 496.316553 221.564224 
L 496.490659 225.326818 
L 496.664766 215.510696 
L 497.01298 215.510696 
L 497.187087 238.450382 
L 497.361194 221.655255 
L 497.535301 219.182259 
L 497.709407 248.266504 
L 497.883514 256.793027 
L 498.231728 299.668392 
L 498.405835 295.905798 
L 498.754048 254.608295 
L 498.928155 254.608295 
L 499.102262 257.870221 
L 499.624583 257.870221 
L 499.79869 239.117939 
L 500.146903 271.069644 
L 500.32101 271.069644 
L 500.495117 272.571647 
L 500.669224 276.258382 
L 500.843331 271.570311 
L 501.017437 275.332905 
L 501.191544 252.39322 
L 501.365651 273.163345 
L 501.539758 273.163345 
L 501.887972 244.898375 
L 502.062078 239.436545 
L 502.236185 268.26287 
L 502.410292 274.543974 
L 502.584399 249.768507 
L 502.758506 266.730523 
L 502.932613 253.804192 
L 503.10672 253.804192 
L 503.454933 283.722883 
L 503.803147 275.272218 
L 504.151361 275.272218 
L 504.325467 272.177181 
L 504.499574 272.177181 
L 504.673681 283.024982 
L 504.847788 277.214202 
L 505.021895 277.214202 
L 505.196002 274.741207 
L 505.370109 274.741207 
L 505.718322 263.241021 
L 506.066536 263.241021 
L 506.240643 277.411435 
L 506.41475 260.616308 
L 506.588856 267.109817 
L 506.93707 251.149136 
L 507.111177 255.746176 
L 507.285284 251.058106 
L 507.633498 251.149136 
L 507.807604 226.373669 
L 507.981711 240.650285 
L 508.504032 171.831229 
L 508.678139 184.636185 
L 508.852245 180.94945 
L 509.026352 203.282266 
L 509.200459 184.529983 
L 509.374566 184.529983 
L 509.72278 154.823697 
L 510.070993 194.755742 
L 510.2451 194.755742 
L 510.419207 211.717759 
L 510.593314 213.538369 
L 510.767421 202.781598 
L 510.941528 232.290651 
L 511.115634 218.014035 
L 511.289741 218.014035 
L 511.463848 230.818992 
L 511.637955 206.043524 
L 511.812062 229.362504 
L 511.986169 229.362504 
L 512.160275 224.674433 
L 512.334382 224.674433 
L 512.508489 207.712417 
L 512.682596 207.712417 
L 512.856703 211.399152 
L 513.03081 205.542856 
L 513.379023 205.542856 
L 513.55313 213.523197 
L 513.727237 231.865842 
L 513.901344 231.865842 
L 514.075451 222.747621 
L 514.249558 227.435691 
L 514.423664 208.2586 
L 514.597771 210.625393 
L 514.771878 195.969482 
L 514.945985 195.969482 
L 515.120092 202.250587 
L 515.468306 202.250587 
L 515.642412 200.429977 
L 515.990626 245.505245 
L 516.164733 243.03225 
L 516.33884 226.070234 
L 516.512947 226.070234 
L 516.86116 196.303261 
L 517.383481 196.303261 
L 517.557588 209.259935 
L 517.731694 209.259935 
L 517.905801 212.294285 
L 518.079908 212.294285 
L 518.254015 226.464699 
L 518.428122 230.773476 
L 519.124549 230.773476 
L 519.472763 255.548944 
L 519.64687 255.548944 
L 519.820977 258.643981 
L 519.995083 236.432539 
L 521.039725 236.432539 
L 521.387938 265.410581 
L 521.562045 265.410581 
L 521.910259 240.25582 
L 522.258472 278.701034 
L 522.432579 275.014299 
L 522.606686 265.198176 
L 522.780793 265.198176 
L 522.9549 253.015261 
L 523.129007 253.015261 
L 523.303114 222.064892 
L 523.47722 240.559255 
L 524.173648 240.559255 
L 524.347755 244.24599 
L 524.521861 231.365175 
L 524.695968 240.51374 
L 524.870075 265.061631 
L 525.044182 241.742651 
L 525.218289 241.742651 
L 525.392396 253.925566 
L 525.914716 254.001425 
L 526.088823 241.075094 
L 526.611144 241.075094 
L 526.78525 247.598947 
L 526.959357 243.912212 
L 527.133464 246.385207 
L 528.003998 246.385207 
L 528.178105 242.622613 
L 528.526319 290.747403 
L 528.700426 280.688533 
L 529.048639 280.688533 
L 529.222746 277.274889 
L 529.396853 277.274889 
L 529.57096 275.985291 
L 529.745067 287.910286 
L 529.919174 275.02947 
L 530.09328 280.885766 
L 530.267387 263.923749 
L 530.441494 287.242729 
L 530.615601 287.242729 
L 531.137922 212.916327 
L 531.312028 237.22147 
L 531.660242 210.018523 
L 532.182563 210.018523 
L 532.356669 206.255929 
L 532.530776 220.532545 
L 532.87899 220.532545 
L 533.053097 221.139415 
L 533.40131 186.745059 
L 533.575417 186.745059 
L 533.749524 191.842766 
L 534.097738 191.842766 
L 534.271845 205.527685 
L 534.445952 209.290279 
L 534.620058 221.473194 
L 534.968272 201.173393 
L 535.142379 197.486657 
L 535.316486 197.486657 
L 535.490593 219.698099 
L 535.664699 219.698099 
L 535.838806 225.645425 
L 536.012913 225.645425 
L 536.18702 219.773958 
L 536.361127 222.262125 
L 536.535234 209.335794 
L 536.709341 209.335794 
L 536.883447 228.057733 
L 537.057554 211.095717 
L 537.231661 211.095717 
L 537.405768 210.109553 
L 537.579875 214.706593 
L 537.928088 188.353264 
L 538.102195 188.353264 
L 538.276302 166.141822 
L 538.97273 166.141822 
L 539.146836 178.324737 
L 539.320943 182.011473 
L 539.49505 178.324737 
L 539.669157 178.324737 
L 539.843264 175.851742 
L 540.887905 175.851742 
L 541.062012 178.946779 
L 541.236118 169.130657 
L 542.106653 169.130657 
L 542.28076 173.22703 
L 542.454866 173.22703 
L 542.628973 171.40642 
L 542.80308 162.637148 
L 542.977187 162.637148 
L 543.151294 155.658143 
L 543.499507 191.402786 
L 543.673614 208.364802 
L 543.847721 208.364802 
L 544.544149 155.27885 
L 544.718255 166.248025 
L 545.066469 166.248025 
L 545.240576 154.323029 
L 546.459324 154.323029 
L 546.807537 171.694683 
L 546.981644 171.694683 
L 547.155751 159.511768 
L 547.503965 159.511768 
L 547.678072 176.306895 
L 547.852179 176.306895 
L 548.026285 176.731704 
L 548.374499 176.731704 
L 548.548606 166.915582 
L 548.89682 166.915582 
L 549.070926 159.769688 
L 549.41914 159.769688 
L 549.593247 186.790574 
L 549.767354 186.790574 
L 549.941461 159.769688 
L 550.115568 171.952603 
L 550.289674 171.952603 
L 550.463781 183.346587 
L 552.901277 183.346587 
L 553.075384 169.024455 
L 553.249491 173.606323 
L 553.597704 173.606323 
L 553.771811 186.41128 
L 553.945918 182.648686 
L 554.294132 182.648686 
L 554.468239 186.638856 
L 554.642345 183.149354 
L 555.51288 183.149354 
L 555.686987 168.068635 
L 555.861093 168.068635 
L 556.0352 158.540776 
L 556.209307 141.745649 
L 557.253948 141.745649 
L 557.776269 173.439434 
L 557.950376 173.439434 
L 558.124482 155.445739 
L 558.298589 164.928082 
L 558.472696 182.921778 
L 558.82091 182.921778 
L 558.995017 179.857084 
L 559.865551 179.857084 
L 560.039658 162.895068 
L 562.303047 162.895068 
L 562.477153 173.302888 
L 562.65126 192.47998 
L 562.825367 192.47998 
L 562.999474 168.20518 
L 563.521795 168.20518 
L 563.695901 172.893251 
L 563.870008 160.710336 
L 564.044115 160.710336 
L 564.218222 163.183331 
L 564.392329 159.496596 
L 564.566436 159.496596 
L 564.740542 145.326182 
L 565.95929 145.326182 
L 566.133397 162.288198 
L 566.655718 162.288198 
L 566.829825 149.407382 
L 568.048573 149.407382 
L 568.222679 153.169976 
L 568.570893 153.169976 
L 568.745 148.057097 
L 569.26732 148.057097 
L 569.441427 135.130766 
L 569.615534 143.308339 
L 572.05303 143.308339 
L 572.227137 155.491254 
L 572.749457 155.491254 
L 572.923564 143.308339 
L 576.405701 143.308339 
L 576.579808 155.491254 
L 577.276235 155.491254 
L 577.450342 143.308339 
L 578.146769 143.308339 
L 578.320876 134.114259 
L 578.494983 117.152242 
L 584.414616 117.152242 
L 584.588723 125.967029 
L 588.244966 125.967029 
L 588.59318 117.622567 
L 603.392262 117.622567 
L 603.566369 112.509687 
L 611.575284 112.509687 
L 611.74939 118.457013 
L 633.686853 118.457013 
L 633.86096 120.656917 
L 635.079708 120.656917 
L 635.253814 120.277623 
L 638.039524 120.277623 
L 638.213631 105.196904 
L 674.079641 105.121045 
L 674.253748 100.508833 
L 681.218021 100.508833 
L 681.392128 99.750246 
L 702.110843 99.750246 
L 702.28495 94.637366 
L 705.767086 94.637366 
L 705.941193 94.212557 
L 715.691177 94.212557 
L 715.865283 92.012653 
L 723.177771 92.012653 
L 723.351878 89.64586 
L 736.932212 89.64586 
L 737.106318 88.887273 
L 871.690909 88.887273 
L 871.690909 88.887273 
" style="fill:none;stroke:#8dd3c7;stroke-linecap:square;stroke-width:1.5;"/>
   </g>
   <g id="line2d_17">
    <path clip-path="url(#p90bd672a78)" d="M 161.509091 295.086523 
L 162.031411 250.800186 
L 162.553732 250.800186 
L 162.901946 215.63207 
L 215.830426 215.63207 
L 216.004533 204.61738 
L 216.875067 204.61738 
L 217.049174 197.926638 
L 228.88844 197.926638 
L 229.062547 181.677694 
L 229.236653 181.677694 
L 229.41076 176.428269 
L 229.584867 176.428269 
L 229.758974 170.010619 
L 267.714266 170.010619 
L 267.888373 169.236859 
L 478.905868 169.236859 
L 479.079975 164.700506 
L 509.548673 164.700506 
L 509.72278 154.823697 
L 545.066469 154.823697 
L 545.240576 154.323029 
L 556.0352 154.323029 
L 556.209307 141.745649 
L 569.26732 141.745649 
L 569.441427 135.130766 
L 578.146769 135.130766 
L 578.320876 134.114259 
L 578.494983 117.152242 
L 603.392262 117.152242 
L 603.566369 112.509687 
L 638.039524 112.509687 
L 638.213631 105.196904 
L 674.079641 105.121045 
L 674.253748 100.508833 
L 681.218021 100.508833 
L 681.392128 99.750246 
L 702.110843 99.750246 
L 702.28495 94.637366 
L 705.767086 94.637366 
L 705.941193 94.212557 
L 715.691177 94.212557 
L 715.865283 92.012653 
L 723.177771 92.012653 
L 723.351878 89.64586 
L 736.932212 89.64586 
L 737.106318 88.887273 
L 871.690909 88.887273 
L 871.690909 88.887273 
" style="fill:none;stroke:#feffb3;stroke-linecap:square;stroke-width:1.5;"/>
   </g>
   <g id="line2d_18">
    <path clip-path="url(#p90bd672a78)" d="M 161.509091 482.341265 
L 164.817121 482.415576 
L 165.165335 482.486968 
L 168.299258 482.555555 
L 168.647472 482.621447 
L 171.781395 482.68475 
L 172.129608 482.745567 
L 175.263532 482.803994 
L 175.785852 482.860125 
L 180.486737 482.965859 
L 181.009057 483.015631 
L 185.709942 483.109386 
L 186.232263 483.15352 
L 190.933148 483.236653 
L 191.455468 483.275786 
L 197.897421 483.384201 
L 198.593849 483.417538 
L 204.861695 483.509893 
L 205.558123 483.538291 
L 213.567037 483.641158 
L 214.437572 483.664399 
L 224.013448 483.767606 
L 225.232196 483.78588 
L 237.941996 483.895197 
L 239.508957 483.908458 
L 257.093748 484.015537 
L 259.531244 484.032268 
L 295.397254 484.142799 
L 301.490994 484.15612 
L 871.690909 484.232727 
L 871.690909 484.232727 
" style="fill:none;stroke:#bfbbd9;stroke-linecap:square;stroke-width:1.5;"/>
   </g>
   <g id="patch_3">
    <path d="M 126 504 
L 126 69.12 
" style="fill:none;stroke:#ffffff;stroke-linecap:square;stroke-linejoin:miter;stroke-width:0.8;"/>
   </g>
   <g id="patch_4">
    <path d="M 907.2 504 
L 907.2 69.12 
" style="fill:none;stroke:#ffffff;stroke-linecap:square;stroke-linejoin:miter;stroke-width:0.8;"/>
   </g>
   <g id="patch_5">
    <path d="M 126 504 
L 907.2 504 
" style="fill:none;stroke:#ffffff;stroke-linecap:square;stroke-linejoin:miter;stroke-width:0.8;"/>
   </g>
   <g id="patch_6">
    <path d="M 126 69.12 
L 907.2 69.12 
" style="fill:none;stroke:#ffffff;stroke-linecap:square;stroke-linejoin:miter;stroke-width:0.8;"/>
   </g>
   <g id="text_17">
    <!-- instance 27 with error 0.006708851109247571 -->
    <g style="fill:#ffffff;" transform="translate(374.229375 63.12)scale(0.12 -0.12)">
     <defs>
      <path d="M 2834 3397 
L 2834 2853 
Q 2591 2978 2328 3040 
Q 2066 3103 1784 3103 
Q 1356 3103 1142 2972 
Q 928 2841 928 2578 
Q 928 2378 1081 2264 
Q 1234 2150 1697 2047 
L 1894 2003 
Q 2506 1872 2764 1633 
Q 3022 1394 3022 966 
Q 3022 478 2636 193 
Q 2250 -91 1575 -91 
Q 1294 -91 989 -36 
Q 684 19 347 128 
L 347 722 
Q 666 556 975 473 
Q 1284 391 1588 391 
Q 1994 391 2212 530 
Q 2431 669 2431 922 
Q 2431 1156 2273 1281 
Q 2116 1406 1581 1522 
L 1381 1569 
Q 847 1681 609 1914 
Q 372 2147 372 2553 
Q 372 3047 722 3315 
Q 1072 3584 1716 3584 
Q 2034 3584 2315 3537 
Q 2597 3491 2834 3397 
z
" id="DejaVuSans-73" transform="scale(0.015625)"/>
      <path d="M 3122 3366 
L 3122 2828 
Q 2878 2963 2633 3030 
Q 2388 3097 2138 3097 
Q 1578 3097 1268 2742 
Q 959 2388 959 1747 
Q 959 1106 1268 751 
Q 1578 397 2138 397 
Q 2388 397 2633 464 
Q 2878 531 3122 666 
L 3122 134 
Q 2881 22 2623 -34 
Q 2366 -91 2075 -91 
Q 1284 -91 818 406 
Q 353 903 353 1747 
Q 353 2603 823 3093 
Q 1294 3584 2113 3584 
Q 2378 3584 2631 3529 
Q 2884 3475 3122 3366 
z
" id="DejaVuSans-63" transform="scale(0.015625)"/>
      <path id="DejaVuSans-20" transform="scale(0.015625)"/>
      <path d="M 525 4666 
L 3525 4666 
L 3525 4397 
L 1831 0 
L 1172 0 
L 2766 4134 
L 525 4134 
L 525 4666 
z
" id="DejaVuSans-37" transform="scale(0.015625)"/>
      <path d="M 269 3500 
L 844 3500 
L 1563 769 
L 2278 3500 
L 2956 3500 
L 3675 769 
L 4391 3500 
L 4966 3500 
L 4050 0 
L 3372 0 
L 2619 2869 
L 1863 0 
L 1184 0 
L 269 3500 
z
" id="DejaVuSans-77" transform="scale(0.015625)"/>
      <path d="M 3513 2113 
L 3513 0 
L 2938 0 
L 2938 2094 
Q 2938 2591 2744 2837 
Q 2550 3084 2163 3084 
Q 1697 3084 1428 2787 
Q 1159 2491 1159 1978 
L 1159 0 
L 581 0 
L 581 4863 
L 1159 4863 
L 1159 2956 
Q 1366 3272 1645 3428 
Q 1925 3584 2291 3584 
Q 2894 3584 3203 3211 
Q 3513 2838 3513 2113 
z
" id="DejaVuSans-68" transform="scale(0.015625)"/>
      <path d="M 684 794 
L 1344 794 
L 1344 0 
L 684 0 
L 684 794 
z
" id="DejaVuSans-2e" transform="scale(0.015625)"/>
      <path d="M 2113 2584 
Q 1688 2584 1439 2293 
Q 1191 2003 1191 1497 
Q 1191 994 1439 701 
Q 1688 409 2113 409 
Q 2538 409 2786 701 
Q 3034 994 3034 1497 
Q 3034 2003 2786 2293 
Q 2538 2584 2113 2584 
z
M 3366 4563 
L 3366 3988 
Q 3128 4100 2886 4159 
Q 2644 4219 2406 4219 
Q 1781 4219 1451 3797 
Q 1122 3375 1075 2522 
Q 1259 2794 1537 2939 
Q 1816 3084 2150 3084 
Q 2853 3084 3261 2657 
Q 3669 2231 3669 1497 
Q 3669 778 3244 343 
Q 2819 -91 2113 -91 
Q 1303 -91 875 529 
Q 447 1150 447 2328 
Q 447 3434 972 4092 
Q 1497 4750 2381 4750 
Q 2619 4750 2861 4703 
Q 3103 4656 3366 4563 
z
" id="DejaVuSans-36" transform="scale(0.015625)"/>
      <path d="M 2034 2216 
Q 1584 2216 1326 1975 
Q 1069 1734 1069 1313 
Q 1069 891 1326 650 
Q 1584 409 2034 409 
Q 2484 409 2743 651 
Q 3003 894 3003 1313 
Q 3003 1734 2745 1975 
Q 2488 2216 2034 2216 
z
M 1403 2484 
Q 997 2584 770 2862 
Q 544 3141 544 3541 
Q 544 4100 942 4425 
Q 1341 4750 2034 4750 
Q 2731 4750 3128 4425 
Q 3525 4100 3525 3541 
Q 3525 3141 3298 2862 
Q 3072 2584 2669 2484 
Q 3125 2378 3379 2068 
Q 3634 1759 3634 1313 
Q 3634 634 3220 271 
Q 2806 -91 2034 -91 
Q 1263 -91 848 271 
Q 434 634 434 1313 
Q 434 1759 690 2068 
Q 947 2378 1403 2484 
z
M 1172 3481 
Q 1172 3119 1398 2916 
Q 1625 2713 2034 2713 
Q 2441 2713 2670 2916 
Q 2900 3119 2900 3481 
Q 2900 3844 2670 4047 
Q 2441 4250 2034 4250 
Q 1625 4250 1398 4047 
Q 1172 3844 1172 3481 
z
" id="DejaVuSans-38" transform="scale(0.015625)"/>
      <path d="M 703 97 
L 703 672 
Q 941 559 1184 500 
Q 1428 441 1663 441 
Q 2288 441 2617 861 
Q 2947 1281 2994 2138 
Q 2813 1869 2534 1725 
Q 2256 1581 1919 1581 
Q 1219 1581 811 2004 
Q 403 2428 403 3163 
Q 403 3881 828 4315 
Q 1253 4750 1959 4750 
Q 2769 4750 3195 4129 
Q 3622 3509 3622 2328 
Q 3622 1225 3098 567 
Q 2575 -91 1691 -91 
Q 1453 -91 1209 -44 
Q 966 3 703 97 
z
M 1959 2075 
Q 2384 2075 2632 2365 
Q 2881 2656 2881 3163 
Q 2881 3666 2632 3958 
Q 2384 4250 1959 4250 
Q 1534 4250 1286 3958 
Q 1038 3666 1038 3163 
Q 1038 2656 1286 2365 
Q 1534 2075 1959 2075 
z
" id="DejaVuSans-39" transform="scale(0.015625)"/>
     </defs>
     <use xlink:href="#DejaVuSans-69"/>
     <use x="27.783203" xlink:href="#DejaVuSans-6e"/>
     <use x="91.162109" xlink:href="#DejaVuSans-73"/>
     <use x="143.261719" xlink:href="#DejaVuSans-74"/>
     <use x="182.470703" xlink:href="#DejaVuSans-61"/>
     <use x="243.75" xlink:href="#DejaVuSans-6e"/>
     <use x="307.128906" xlink:href="#DejaVuSans-63"/>
     <use x="362.109375" xlink:href="#DejaVuSans-65"/>
     <use x="423.632812" xlink:href="#DejaVuSans-20"/>
     <use x="455.419922" xlink:href="#DejaVuSans-32"/>
     <use x="519.042969" xlink:href="#DejaVuSans-37"/>
     <use x="582.666016" xlink:href="#DejaVuSans-20"/>
     <use x="614.453125" xlink:href="#DejaVuSans-77"/>
     <use x="696.240234" xlink:href="#DejaVuSans-69"/>
     <use x="724.023438" xlink:href="#DejaVuSans-74"/>
     <use x="763.232422" xlink:href="#DejaVuSans-68"/>
     <use x="826.611328" xlink:href="#DejaVuSans-20"/>
     <use x="858.398438" xlink:href="#DejaVuSans-65"/>
     <use x="919.921875" xlink:href="#DejaVuSans-72"/>
     <use x="959.285156" xlink:href="#DejaVuSans-72"/>
     <use x="998.148438" xlink:href="#DejaVuSans-6f"/>
     <use x="1059.330078" xlink:href="#DejaVuSans-72"/>
     <use x="1100.443359" xlink:href="#DejaVuSans-20"/>
     <use x="1132.230469" xlink:href="#DejaVuSans-30"/>
     <use x="1195.853516" xlink:href="#DejaVuSans-2e"/>
     <use x="1227.640625" xlink:href="#DejaVuSans-30"/>
     <use x="1291.263672" xlink:href="#DejaVuSans-30"/>
     <use x="1354.886719" xlink:href="#DejaVuSans-36"/>
     <use x="1418.509766" xlink:href="#DejaVuSans-37"/>
     <use x="1482.132812" xlink:href="#DejaVuSans-30"/>
     <use x="1545.755859" xlink:href="#DejaVuSans-38"/>
     <use x="1609.378906" xlink:href="#DejaVuSans-38"/>
     <use x="1673.001953" xlink:href="#DejaVuSans-35"/>
     <use x="1736.625" xlink:href="#DejaVuSans-31"/>
     <use x="1800.248047" xlink:href="#DejaVuSans-31"/>
     <use x="1863.871094" xlink:href="#DejaVuSans-30"/>
     <use x="1927.494141" xlink:href="#DejaVuSans-39"/>
     <use x="1991.117188" xlink:href="#DejaVuSans-32"/>
     <use x="2054.740234" xlink:href="#DejaVuSans-34"/>
     <use x="2118.363281" xlink:href="#DejaVuSans-37"/>
     <use x="2181.986328" xlink:href="#DejaVuSans-35"/>
     <use x="2245.609375" xlink:href="#DejaVuSans-37"/>
     <use x="2309.232422" xlink:href="#DejaVuSans-31"/>
    </g>
   </g>
   <g id="legend_1">
    <g id="patch_7">
     <path d="M 805.348438 499 
L 900.2 499 
Q 902.2 499 902.2 497 
L 902.2 453.965625 
Q 902.2 451.965625 900.2 451.965625 
L 805.348438 451.965625 
Q 803.348438 451.965625 803.348438 453.965625 
L 803.348438 497 
Q 803.348438 499 805.348438 499 
z
" style="opacity:0.8;stroke:#cccccc;stroke-linejoin:miter;"/>
    </g>
    <g id="line2d_19">
     <path d="M 807.348438 460.064062 
L 827.348438 460.064062 
" style="fill:none;stroke:#8dd3c7;stroke-linecap:square;stroke-width:1.5;"/>
    </g>
    <g id="line2d_20"/>
    <g id="text_18">
     <!-- cost -->
     <g style="fill:#ffffff;" transform="translate(835.348438 463.564062)scale(0.1 -0.1)">
      <use xlink:href="#DejaVuSans-63"/>
      <use x="54.980469" xlink:href="#DejaVuSans-6f"/>
      <use x="116.162109" xlink:href="#DejaVuSans-73"/>
      <use x="168.261719" xlink:href="#DejaVuSans-74"/>
     </g>
    </g>
    <g id="line2d_21">
     <path d="M 807.348438 474.742188 
L 827.348438 474.742188 
" style="fill:none;stroke:#feffb3;stroke-linecap:square;stroke-width:1.5;"/>
    </g>
    <g id="line2d_22"/>
    <g id="text_19">
     <!-- best cost -->
     <g style="fill:#ffffff;" transform="translate(835.348438 478.242188)scale(0.1 -0.1)">
      <defs>
       <path d="M 3116 1747 
Q 3116 2381 2855 2742 
Q 2594 3103 2138 3103 
Q 1681 3103 1420 2742 
Q 1159 2381 1159 1747 
Q 1159 1113 1420 752 
Q 1681 391 2138 391 
Q 2594 391 2855 752 
Q 3116 1113 3116 1747 
z
M 1159 2969 
Q 1341 3281 1617 3432 
Q 1894 3584 2278 3584 
Q 2916 3584 3314 3078 
Q 3713 2572 3713 1747 
Q 3713 922 3314 415 
Q 2916 -91 2278 -91 
Q 1894 -91 1617 61 
Q 1341 213 1159 525 
L 1159 0 
L 581 0 
L 581 4863 
L 1159 4863 
L 1159 2969 
z
" id="DejaVuSans-62" transform="scale(0.015625)"/>
      </defs>
      <use xlink:href="#DejaVuSans-62"/>
      <use x="63.476562" xlink:href="#DejaVuSans-65"/>
      <use x="125" xlink:href="#DejaVuSans-73"/>
      <use x="177.099609" xlink:href="#DejaVuSans-74"/>
      <use x="216.308594" xlink:href="#DejaVuSans-20"/>
      <use x="248.095703" xlink:href="#DejaVuSans-63"/>
      <use x="303.076172" xlink:href="#DejaVuSans-6f"/>
      <use x="364.257812" xlink:href="#DejaVuSans-73"/>
      <use x="416.357422" xlink:href="#DejaVuSans-74"/>
     </g>
    </g>
    <g id="line2d_23">
     <path d="M 807.348438 489.420313 
L 827.348438 489.420313 
" style="fill:none;stroke:#bfbbd9;stroke-linecap:square;stroke-width:1.5;"/>
    </g>
    <g id="line2d_24"/>
    <g id="text_20">
     <!-- temperature -->
     <g style="fill:#ffffff;" transform="translate(835.348438 492.920313)scale(0.1 -0.1)">
      <defs>
       <path d="M 3328 2828 
Q 3544 3216 3844 3400 
Q 4144 3584 4550 3584 
Q 5097 3584 5394 3201 
Q 5691 2819 5691 2113 
L 5691 0 
L 5113 0 
L 5113 2094 
Q 5113 2597 4934 2840 
Q 4756 3084 4391 3084 
Q 3944 3084 3684 2787 
Q 3425 2491 3425 1978 
L 3425 0 
L 2847 0 
L 2847 2094 
Q 2847 2600 2669 2842 
Q 2491 3084 2119 3084 
Q 1678 3084 1418 2786 
Q 1159 2488 1159 1978 
L 1159 0 
L 581 0 
L 581 3500 
L 1159 3500 
L 1159 2956 
Q 1356 3278 1631 3431 
Q 1906 3584 2284 3584 
Q 2666 3584 2933 3390 
Q 3200 3197 3328 2828 
z
" id="DejaVuSans-6d" transform="scale(0.015625)"/>
       <path d="M 1159 525 
L 1159 -1331 
L 581 -1331 
L 581 3500 
L 1159 3500 
L 1159 2969 
Q 1341 3281 1617 3432 
Q 1894 3584 2278 3584 
Q 2916 3584 3314 3078 
Q 3713 2572 3713 1747 
Q 3713 922 3314 415 
Q 2916 -91 2278 -91 
Q 1894 -91 1617 61 
Q 1341 213 1159 525 
z
M 3116 1747 
Q 3116 2381 2855 2742 
Q 2594 3103 2138 3103 
Q 1681 3103 1420 2742 
Q 1159 2381 1159 1747 
Q 1159 1113 1420 752 
Q 1681 391 2138 391 
Q 2594 391 2855 752 
Q 3116 1113 3116 1747 
z
" id="DejaVuSans-70" transform="scale(0.015625)"/>
       <path d="M 544 1381 
L 544 3500 
L 1119 3500 
L 1119 1403 
Q 1119 906 1312 657 
Q 1506 409 1894 409 
Q 2359 409 2629 706 
Q 2900 1003 2900 1516 
L 2900 3500 
L 3475 3500 
L 3475 0 
L 2900 0 
L 2900 538 
Q 2691 219 2414 64 
Q 2138 -91 1772 -91 
Q 1169 -91 856 284 
Q 544 659 544 1381 
z
M 1991 3584 
L 1991 3584 
z
" id="DejaVuSans-75" transform="scale(0.015625)"/>
      </defs>
      <use xlink:href="#DejaVuSans-74"/>
      <use x="39.208984" xlink:href="#DejaVuSans-65"/>
      <use x="100.732422" xlink:href="#DejaVuSans-6d"/>
      <use x="198.144531" xlink:href="#DejaVuSans-70"/>
      <use x="261.621094" xlink:href="#DejaVuSans-65"/>
      <use x="323.144531" xlink:href="#DejaVuSans-72"/>
      <use x="364.257812" xlink:href="#DejaVuSans-61"/>
      <use x="425.537109" xlink:href="#DejaVuSans-74"/>
      <use x="464.746094" xlink:href="#DejaVuSans-75"/>
      <use x="528.125" xlink:href="#DejaVuSans-72"/>
      <use x="566.988281" xlink:href="#DejaVuSans-65"/>
     </g>
    </g>
   </g>
  </g>
 </g>
 <defs>
  <clipPath id="p90bd672a78">
   <rect height="434.88" width="781.2" x="126" y="69.12"/>
  </clipPath>
 </defs>
</svg>
