<?xml version="1.0" encoding="utf-8" standalone="no"?>
<!DOCTYPE svg PUBLIC "-//W3C//DTD SVG 1.1//EN"
  "http://www.w3.org/Graphics/SVG/1.1/DTD/svg11.dtd">
<svg height="576pt" version="1.1" viewBox="0 0 1008 576" width="1008pt" xmlns="http://www.w3.org/2000/svg" xmlns:xlink="http://www.w3.org/1999/xlink">
 <metadata>
  <rdf:RDF xmlns:cc="http://creativecommons.org/ns#" xmlns:dc="http://purl.org/dc/elements/1.1/" xmlns:rdf="http://www.w3.org/1999/02/22-rdf-syntax-ns#">
   <cc:Work>
    <dc:type rdf:resource="http://purl.org/dc/dcmitype/StillImage"/>
    <dc:date>2022-01-13T19:11:07.841757</dc:date>
    <dc:format>image/svg+xml</dc:format>
    <dc:creator>
     <cc:Agent>
      <dc:title>Matplotlib v3.4.3, https://matplotlib.org/</dc:title>
     </cc:Agent>
    </dc:creator>
   </cc:Work>
  </rdf:RDF>
 </metadata>
 <defs>
  <style type="text/css">*{stroke-linecap:butt;stroke-linejoin:round;}</style>
 </defs>
 <g id="figure_1">
  <g id="patch_1">
   <path d="M 0 576 
L 1008 576 
L 1008 0 
L 0 0 
z
"/>
  </g>
  <g id="axes_1">
   <g id="patch_2">
    <path d="M 126 504 
L 907.2 504 
L 907.2 69.12 
L 126 69.12 
z
"/>
   </g>
   <g id="matplotlib.axis_1">
    <g id="xtick_1">
     <g id="line2d_1">
      <defs>
       <path d="M 0 0 
L 0 3.5 
" id="m2b304e1d89" style="stroke:#ffffff;stroke-width:0.8;"/>
      </defs>
      <g>
       <use style="fill:#ffffff;stroke:#ffffff;stroke-width:0.8;" x="161.509091" xlink:href="#m2b304e1d89" y="504"/>
      </g>
     </g>
     <g id="text_1">
      <!-- 0 -->
      <g style="fill:#ffffff;" transform="translate(158.327841 518.598438)scale(0.1 -0.1)">
       <defs>
        <path d="M 2034 4250 
Q 1547 4250 1301 3770 
Q 1056 3291 1056 2328 
Q 1056 1369 1301 889 
Q 1547 409 2034 409 
Q 2525 409 2770 889 
Q 3016 1369 3016 2328 
Q 3016 3291 2770 3770 
Q 2525 4250 2034 4250 
z
M 2034 4750 
Q 2819 4750 3233 4129 
Q 3647 3509 3647 2328 
Q 3647 1150 3233 529 
Q 2819 -91 2034 -91 
Q 1250 -91 836 529 
Q 422 1150 422 2328 
Q 422 3509 836 4129 
Q 1250 4750 2034 4750 
z
" id="DejaVuSans-30" transform="scale(0.015625)"/>
       </defs>
       <use xlink:href="#DejaVuSans-30"/>
      </g>
     </g>
    </g>
    <g id="xtick_2">
     <g id="line2d_2">
      <g>
       <use style="fill:#ffffff;stroke:#ffffff;stroke-width:0.8;" x="258.027414" xlink:href="#m2b304e1d89" y="504"/>
      </g>
     </g>
     <g id="text_2">
      <!-- 500 -->
      <g style="fill:#ffffff;" transform="translate(248.483664 518.598438)scale(0.1 -0.1)">
       <defs>
        <path d="M 691 4666 
L 3169 4666 
L 3169 4134 
L 1269 4134 
L 1269 2991 
Q 1406 3038 1543 3061 
Q 1681 3084 1819 3084 
Q 2600 3084 3056 2656 
Q 3513 2228 3513 1497 
Q 3513 744 3044 326 
Q 2575 -91 1722 -91 
Q 1428 -91 1123 -41 
Q 819 9 494 109 
L 494 744 
Q 775 591 1075 516 
Q 1375 441 1709 441 
Q 2250 441 2565 725 
Q 2881 1009 2881 1497 
Q 2881 1984 2565 2268 
Q 2250 2553 1709 2553 
Q 1456 2553 1204 2497 
Q 953 2441 691 2322 
L 691 4666 
z
" id="DejaVuSans-35" transform="scale(0.015625)"/>
       </defs>
       <use xlink:href="#DejaVuSans-35"/>
       <use x="63.623047" xlink:href="#DejaVuSans-30"/>
       <use x="127.246094" xlink:href="#DejaVuSans-30"/>
      </g>
     </g>
    </g>
    <g id="xtick_3">
     <g id="line2d_3">
      <g>
       <use style="fill:#ffffff;stroke:#ffffff;stroke-width:0.8;" x="354.545736" xlink:href="#m2b304e1d89" y="504"/>
      </g>
     </g>
     <g id="text_3">
      <!-- 1000 -->
      <g style="fill:#ffffff;" transform="translate(341.820736 518.598438)scale(0.1 -0.1)">
       <defs>
        <path d="M 794 531 
L 1825 531 
L 1825 4091 
L 703 3866 
L 703 4441 
L 1819 4666 
L 2450 4666 
L 2450 531 
L 3481 531 
L 3481 0 
L 794 0 
L 794 531 
z
" id="DejaVuSans-31" transform="scale(0.015625)"/>
       </defs>
       <use xlink:href="#DejaVuSans-31"/>
       <use x="63.623047" xlink:href="#DejaVuSans-30"/>
       <use x="127.246094" xlink:href="#DejaVuSans-30"/>
       <use x="190.869141" xlink:href="#DejaVuSans-30"/>
      </g>
     </g>
    </g>
    <g id="xtick_4">
     <g id="line2d_4">
      <g>
       <use style="fill:#ffffff;stroke:#ffffff;stroke-width:0.8;" x="451.064059" xlink:href="#m2b304e1d89" y="504"/>
      </g>
     </g>
     <g id="text_4">
      <!-- 1500 -->
      <g style="fill:#ffffff;" transform="translate(438.339059 518.598438)scale(0.1 -0.1)">
       <use xlink:href="#DejaVuSans-31"/>
       <use x="63.623047" xlink:href="#DejaVuSans-35"/>
       <use x="127.246094" xlink:href="#DejaVuSans-30"/>
       <use x="190.869141" xlink:href="#DejaVuSans-30"/>
      </g>
     </g>
    </g>
    <g id="xtick_5">
     <g id="line2d_5">
      <g>
       <use style="fill:#ffffff;stroke:#ffffff;stroke-width:0.8;" x="547.582382" xlink:href="#m2b304e1d89" y="504"/>
      </g>
     </g>
     <g id="text_5">
      <!-- 2000 -->
      <g style="fill:#ffffff;" transform="translate(534.857382 518.598438)scale(0.1 -0.1)">
       <defs>
        <path d="M 1228 531 
L 3431 531 
L 3431 0 
L 469 0 
L 469 531 
Q 828 903 1448 1529 
Q 2069 2156 2228 2338 
Q 2531 2678 2651 2914 
Q 2772 3150 2772 3378 
Q 2772 3750 2511 3984 
Q 2250 4219 1831 4219 
Q 1534 4219 1204 4116 
Q 875 4013 500 3803 
L 500 4441 
Q 881 4594 1212 4672 
Q 1544 4750 1819 4750 
Q 2544 4750 2975 4387 
Q 3406 4025 3406 3419 
Q 3406 3131 3298 2873 
Q 3191 2616 2906 2266 
Q 2828 2175 2409 1742 
Q 1991 1309 1228 531 
z
" id="DejaVuSans-32" transform="scale(0.015625)"/>
       </defs>
       <use xlink:href="#DejaVuSans-32"/>
       <use x="63.623047" xlink:href="#DejaVuSans-30"/>
       <use x="127.246094" xlink:href="#DejaVuSans-30"/>
       <use x="190.869141" xlink:href="#DejaVuSans-30"/>
      </g>
     </g>
    </g>
    <g id="xtick_6">
     <g id="line2d_6">
      <g>
       <use style="fill:#ffffff;stroke:#ffffff;stroke-width:0.8;" x="644.100704" xlink:href="#m2b304e1d89" y="504"/>
      </g>
     </g>
     <g id="text_6">
      <!-- 2500 -->
      <g style="fill:#ffffff;" transform="translate(631.375704 518.598438)scale(0.1 -0.1)">
       <use xlink:href="#DejaVuSans-32"/>
       <use x="63.623047" xlink:href="#DejaVuSans-35"/>
       <use x="127.246094" xlink:href="#DejaVuSans-30"/>
       <use x="190.869141" xlink:href="#DejaVuSans-30"/>
      </g>
     </g>
    </g>
    <g id="xtick_7">
     <g id="line2d_7">
      <g>
       <use style="fill:#ffffff;stroke:#ffffff;stroke-width:0.8;" x="740.619027" xlink:href="#m2b304e1d89" y="504"/>
      </g>
     </g>
     <g id="text_7">
      <!-- 3000 -->
      <g style="fill:#ffffff;" transform="translate(727.894027 518.598438)scale(0.1 -0.1)">
       <defs>
        <path d="M 2597 2516 
Q 3050 2419 3304 2112 
Q 3559 1806 3559 1356 
Q 3559 666 3084 287 
Q 2609 -91 1734 -91 
Q 1441 -91 1130 -33 
Q 819 25 488 141 
L 488 750 
Q 750 597 1062 519 
Q 1375 441 1716 441 
Q 2309 441 2620 675 
Q 2931 909 2931 1356 
Q 2931 1769 2642 2001 
Q 2353 2234 1838 2234 
L 1294 2234 
L 1294 2753 
L 1863 2753 
Q 2328 2753 2575 2939 
Q 2822 3125 2822 3475 
Q 2822 3834 2567 4026 
Q 2313 4219 1838 4219 
Q 1578 4219 1281 4162 
Q 984 4106 628 3988 
L 628 4550 
Q 988 4650 1302 4700 
Q 1616 4750 1894 4750 
Q 2613 4750 3031 4423 
Q 3450 4097 3450 3541 
Q 3450 3153 3228 2886 
Q 3006 2619 2597 2516 
z
" id="DejaVuSans-33" transform="scale(0.015625)"/>
       </defs>
       <use xlink:href="#DejaVuSans-33"/>
       <use x="63.623047" xlink:href="#DejaVuSans-30"/>
       <use x="127.246094" xlink:href="#DejaVuSans-30"/>
       <use x="190.869141" xlink:href="#DejaVuSans-30"/>
      </g>
     </g>
    </g>
    <g id="xtick_8">
     <g id="line2d_8">
      <g>
       <use style="fill:#ffffff;stroke:#ffffff;stroke-width:0.8;" x="837.13735" xlink:href="#m2b304e1d89" y="504"/>
      </g>
     </g>
     <g id="text_8">
      <!-- 3500 -->
      <g style="fill:#ffffff;" transform="translate(824.41235 518.598438)scale(0.1 -0.1)">
       <use xlink:href="#DejaVuSans-33"/>
       <use x="63.623047" xlink:href="#DejaVuSans-35"/>
       <use x="127.246094" xlink:href="#DejaVuSans-30"/>
       <use x="190.869141" xlink:href="#DejaVuSans-30"/>
      </g>
     </g>
    </g>
    <g id="text_9">
     <!-- iteration -->
     <g style="fill:#ffffff;" transform="translate(495.477344 532.276562)scale(0.1 -0.1)">
      <defs>
       <path d="M 603 3500 
L 1178 3500 
L 1178 0 
L 603 0 
L 603 3500 
z
M 603 4863 
L 1178 4863 
L 1178 4134 
L 603 4134 
L 603 4863 
z
" id="DejaVuSans-69" transform="scale(0.015625)"/>
       <path d="M 1172 4494 
L 1172 3500 
L 2356 3500 
L 2356 3053 
L 1172 3053 
L 1172 1153 
Q 1172 725 1289 603 
Q 1406 481 1766 481 
L 2356 481 
L 2356 0 
L 1766 0 
Q 1100 0 847 248 
Q 594 497 594 1153 
L 594 3053 
L 172 3053 
L 172 3500 
L 594 3500 
L 594 4494 
L 1172 4494 
z
" id="DejaVuSans-74" transform="scale(0.015625)"/>
       <path d="M 3597 1894 
L 3597 1613 
L 953 1613 
Q 991 1019 1311 708 
Q 1631 397 2203 397 
Q 2534 397 2845 478 
Q 3156 559 3463 722 
L 3463 178 
Q 3153 47 2828 -22 
Q 2503 -91 2169 -91 
Q 1331 -91 842 396 
Q 353 884 353 1716 
Q 353 2575 817 3079 
Q 1281 3584 2069 3584 
Q 2775 3584 3186 3129 
Q 3597 2675 3597 1894 
z
M 3022 2063 
Q 3016 2534 2758 2815 
Q 2500 3097 2075 3097 
Q 1594 3097 1305 2825 
Q 1016 2553 972 2059 
L 3022 2063 
z
" id="DejaVuSans-65" transform="scale(0.015625)"/>
       <path d="M 2631 2963 
Q 2534 3019 2420 3045 
Q 2306 3072 2169 3072 
Q 1681 3072 1420 2755 
Q 1159 2438 1159 1844 
L 1159 0 
L 581 0 
L 581 3500 
L 1159 3500 
L 1159 2956 
Q 1341 3275 1631 3429 
Q 1922 3584 2338 3584 
Q 2397 3584 2469 3576 
Q 2541 3569 2628 3553 
L 2631 2963 
z
" id="DejaVuSans-72" transform="scale(0.015625)"/>
       <path d="M 2194 1759 
Q 1497 1759 1228 1600 
Q 959 1441 959 1056 
Q 959 750 1161 570 
Q 1363 391 1709 391 
Q 2188 391 2477 730 
Q 2766 1069 2766 1631 
L 2766 1759 
L 2194 1759 
z
M 3341 1997 
L 3341 0 
L 2766 0 
L 2766 531 
Q 2569 213 2275 61 
Q 1981 -91 1556 -91 
Q 1019 -91 701 211 
Q 384 513 384 1019 
Q 384 1609 779 1909 
Q 1175 2209 1959 2209 
L 2766 2209 
L 2766 2266 
Q 2766 2663 2505 2880 
Q 2244 3097 1772 3097 
Q 1472 3097 1187 3025 
Q 903 2953 641 2809 
L 641 3341 
Q 956 3463 1253 3523 
Q 1550 3584 1831 3584 
Q 2591 3584 2966 3190 
Q 3341 2797 3341 1997 
z
" id="DejaVuSans-61" transform="scale(0.015625)"/>
       <path d="M 1959 3097 
Q 1497 3097 1228 2736 
Q 959 2375 959 1747 
Q 959 1119 1226 758 
Q 1494 397 1959 397 
Q 2419 397 2687 759 
Q 2956 1122 2956 1747 
Q 2956 2369 2687 2733 
Q 2419 3097 1959 3097 
z
M 1959 3584 
Q 2709 3584 3137 3096 
Q 3566 2609 3566 1747 
Q 3566 888 3137 398 
Q 2709 -91 1959 -91 
Q 1206 -91 779 398 
Q 353 888 353 1747 
Q 353 2609 779 3096 
Q 1206 3584 1959 3584 
z
" id="DejaVuSans-6f" transform="scale(0.015625)"/>
       <path d="M 3513 2113 
L 3513 0 
L 2938 0 
L 2938 2094 
Q 2938 2591 2744 2837 
Q 2550 3084 2163 3084 
Q 1697 3084 1428 2787 
Q 1159 2491 1159 1978 
L 1159 0 
L 581 0 
L 581 3500 
L 1159 3500 
L 1159 2956 
Q 1366 3272 1645 3428 
Q 1925 3584 2291 3584 
Q 2894 3584 3203 3211 
Q 3513 2838 3513 2113 
z
" id="DejaVuSans-6e" transform="scale(0.015625)"/>
      </defs>
      <use xlink:href="#DejaVuSans-69"/>
      <use x="27.783203" xlink:href="#DejaVuSans-74"/>
      <use x="66.992188" xlink:href="#DejaVuSans-65"/>
      <use x="128.515625" xlink:href="#DejaVuSans-72"/>
      <use x="169.628906" xlink:href="#DejaVuSans-61"/>
      <use x="230.908203" xlink:href="#DejaVuSans-74"/>
      <use x="270.117188" xlink:href="#DejaVuSans-69"/>
      <use x="297.900391" xlink:href="#DejaVuSans-6f"/>
      <use x="359.082031" xlink:href="#DejaVuSans-6e"/>
     </g>
    </g>
   </g>
   <g id="matplotlib.axis_2">
    <g id="ytick_1">
     <g id="line2d_9">
      <defs>
       <path d="M 0 0 
L -3.5 0 
" id="me29e11491e" style="stroke:#ffffff;stroke-width:0.8;"/>
      </defs>
      <g>
       <use style="fill:#ffffff;stroke:#ffffff;stroke-width:0.8;" x="126" xlink:href="#me29e11491e" y="484.232727"/>
      </g>
     </g>
     <g id="text_10">
      <!-- 0 -->
      <g style="fill:#ffffff;" transform="translate(112.6375 488.031946)scale(0.1 -0.1)">
       <use xlink:href="#DejaVuSans-30"/>
      </g>
     </g>
    </g>
    <g id="ytick_2">
     <g id="line2d_10">
      <g>
       <use style="fill:#ffffff;stroke:#ffffff;stroke-width:0.8;" x="126" xlink:href="#me29e11491e" y="429.732389"/>
      </g>
     </g>
     <g id="text_11">
      <!-- 1000 -->
      <g style="fill:#ffffff;" transform="translate(93.55 433.531608)scale(0.1 -0.1)">
       <use xlink:href="#DejaVuSans-31"/>
       <use x="63.623047" xlink:href="#DejaVuSans-30"/>
       <use x="127.246094" xlink:href="#DejaVuSans-30"/>
       <use x="190.869141" xlink:href="#DejaVuSans-30"/>
      </g>
     </g>
    </g>
    <g id="ytick_3">
     <g id="line2d_11">
      <g>
       <use style="fill:#ffffff;stroke:#ffffff;stroke-width:0.8;" x="126" xlink:href="#me29e11491e" y="375.232051"/>
      </g>
     </g>
     <g id="text_12">
      <!-- 2000 -->
      <g style="fill:#ffffff;" transform="translate(93.55 379.031269)scale(0.1 -0.1)">
       <use xlink:href="#DejaVuSans-32"/>
       <use x="63.623047" xlink:href="#DejaVuSans-30"/>
       <use x="127.246094" xlink:href="#DejaVuSans-30"/>
       <use x="190.869141" xlink:href="#DejaVuSans-30"/>
      </g>
     </g>
    </g>
    <g id="ytick_4">
     <g id="line2d_12">
      <g>
       <use style="fill:#ffffff;stroke:#ffffff;stroke-width:0.8;" x="126" xlink:href="#me29e11491e" y="320.731712"/>
      </g>
     </g>
     <g id="text_13">
      <!-- 3000 -->
      <g style="fill:#ffffff;" transform="translate(93.55 324.530931)scale(0.1 -0.1)">
       <use xlink:href="#DejaVuSans-33"/>
       <use x="63.623047" xlink:href="#DejaVuSans-30"/>
       <use x="127.246094" xlink:href="#DejaVuSans-30"/>
       <use x="190.869141" xlink:href="#DejaVuSans-30"/>
      </g>
     </g>
    </g>
    <g id="ytick_5">
     <g id="line2d_13">
      <g>
       <use style="fill:#ffffff;stroke:#ffffff;stroke-width:0.8;" x="126" xlink:href="#me29e11491e" y="266.231374"/>
      </g>
     </g>
     <g id="text_14">
      <!-- 4000 -->
      <g style="fill:#ffffff;" transform="translate(93.55 270.030593)scale(0.1 -0.1)">
       <defs>
        <path d="M 2419 4116 
L 825 1625 
L 2419 1625 
L 2419 4116 
z
M 2253 4666 
L 3047 4666 
L 3047 1625 
L 3713 1625 
L 3713 1100 
L 3047 1100 
L 3047 0 
L 2419 0 
L 2419 1100 
L 313 1100 
L 313 1709 
L 2253 4666 
z
" id="DejaVuSans-34" transform="scale(0.015625)"/>
       </defs>
       <use xlink:href="#DejaVuSans-34"/>
       <use x="63.623047" xlink:href="#DejaVuSans-30"/>
       <use x="127.246094" xlink:href="#DejaVuSans-30"/>
       <use x="190.869141" xlink:href="#DejaVuSans-30"/>
      </g>
     </g>
    </g>
    <g id="ytick_6">
     <g id="line2d_14">
      <g>
       <use style="fill:#ffffff;stroke:#ffffff;stroke-width:0.8;" x="126" xlink:href="#me29e11491e" y="211.731035"/>
      </g>
     </g>
     <g id="text_15">
      <!-- 5000 -->
      <g style="fill:#ffffff;" transform="translate(93.55 215.530254)scale(0.1 -0.1)">
       <use xlink:href="#DejaVuSans-35"/>
       <use x="63.623047" xlink:href="#DejaVuSans-30"/>
       <use x="127.246094" xlink:href="#DejaVuSans-30"/>
       <use x="190.869141" xlink:href="#DejaVuSans-30"/>
      </g>
     </g>
    </g>
    <g id="ytick_7">
     <g id="line2d_15">
      <g>
       <use style="fill:#ffffff;stroke:#ffffff;stroke-width:0.8;" x="126" xlink:href="#me29e11491e" y="157.230697"/>
      </g>
     </g>
     <g id="text_16">
      <!-- 6000 -->
      <g style="fill:#ffffff;" transform="translate(93.55 161.029916)scale(0.1 -0.1)">
       <defs>
        <path d="M 2113 2584 
Q 1688 2584 1439 2293 
Q 1191 2003 1191 1497 
Q 1191 994 1439 701 
Q 1688 409 2113 409 
Q 2538 409 2786 701 
Q 3034 994 3034 1497 
Q 3034 2003 2786 2293 
Q 2538 2584 2113 2584 
z
M 3366 4563 
L 3366 3988 
Q 3128 4100 2886 4159 
Q 2644 4219 2406 4219 
Q 1781 4219 1451 3797 
Q 1122 3375 1075 2522 
Q 1259 2794 1537 2939 
Q 1816 3084 2150 3084 
Q 2853 3084 3261 2657 
Q 3669 2231 3669 1497 
Q 3669 778 3244 343 
Q 2819 -91 2113 -91 
Q 1303 -91 875 529 
Q 447 1150 447 2328 
Q 447 3434 972 4092 
Q 1497 4750 2381 4750 
Q 2619 4750 2861 4703 
Q 3103 4656 3366 4563 
z
" id="DejaVuSans-36" transform="scale(0.015625)"/>
       </defs>
       <use xlink:href="#DejaVuSans-36"/>
       <use x="63.623047" xlink:href="#DejaVuSans-30"/>
       <use x="127.246094" xlink:href="#DejaVuSans-30"/>
       <use x="190.869141" xlink:href="#DejaVuSans-30"/>
      </g>
     </g>
    </g>
    <g id="ytick_8">
     <g id="line2d_16">
      <g>
       <use style="fill:#ffffff;stroke:#ffffff;stroke-width:0.8;" x="126" xlink:href="#me29e11491e" y="102.730359"/>
      </g>
     </g>
     <g id="text_17">
      <!-- 7000 -->
      <g style="fill:#ffffff;" transform="translate(93.55 106.529577)scale(0.1 -0.1)">
       <defs>
        <path d="M 525 4666 
L 3525 4666 
L 3525 4397 
L 1831 0 
L 1172 0 
L 2766 4134 
L 525 4134 
L 525 4666 
z
" id="DejaVuSans-37" transform="scale(0.015625)"/>
       </defs>
       <use xlink:href="#DejaVuSans-37"/>
       <use x="63.623047" xlink:href="#DejaVuSans-30"/>
       <use x="127.246094" xlink:href="#DejaVuSans-30"/>
       <use x="190.869141" xlink:href="#DejaVuSans-30"/>
      </g>
     </g>
    </g>
   </g>
   <g id="line2d_17">
    <path clip-path="url(#p328528afe2)" d="M 161.509091 349.071888 
L 161.702128 234.784679 
L 161.895164 484.232727 
L 162.281237 484.232727 
L 162.474274 465.157609 
L 162.667311 404.335231 
L 162.860347 423.41035 
L 163.053384 297.569068 
L 163.246421 278.49395 
L 163.439457 297.569068 
L 164.211604 297.569068 
L 164.404641 484.232727 
L 164.597677 439.487949 
L 164.790714 482.161714 
L 164.983751 409.131261 
L 165.176787 409.131261 
L 165.369824 484.232727 
L 166.14197 484.232727 
L 166.528044 358.391446 
L 166.72108 358.391446 
L 166.914117 396.868685 
L 167.30019 396.868685 
L 167.493227 409.131261 
L 167.686264 472.842157 
L 167.8793 470.771144 
L 168.072337 482.161714 
L 168.265373 482.161714 
L 168.45841 484.232727 
L 168.651447 358.391446 
L 168.844483 356.320433 
L 169.03752 421.339337 
L 169.230557 373.815042 
L 169.423593 434.637419 
L 169.809667 434.637419 
L 170.002703 407.823253 
L 170.19574 347.000875 
L 170.388777 407.823253 
L 170.581813 407.823253 
L 170.77485 484.232727 
L 170.967887 366.293995 
L 171.160923 439.487949 
L 171.35396 439.487949 
L 171.546996 369.945518 
L 171.740033 484.232727 
L 171.93307 439.487949 
L 172.126106 461.451586 
L 172.319143 334.411297 
L 172.51218 396.868685 
L 172.705216 407.823253 
L 172.898253 407.823253 
L 173.09129 484.232727 
L 173.284326 434.637419 
L 173.477363 484.232727 
L 173.6704 369.945518 
L 173.863436 484.232727 
L 174.056473 484.232727 
L 174.24951 439.487949 
L 174.442546 439.487949 
L 174.635583 484.232727 
L 174.828619 484.232727 
L 175.021656 439.487949 
L 175.407729 439.487949 
L 175.600766 484.232727 
L 175.986839 361.116463 
L 176.372913 231.950661 
L 176.565949 231.950661 
L 176.758986 224.048112 
L 176.952023 349.889393 
L 177.145059 217.944074 
L 177.338096 421.339337 
L 177.531132 373.815042 
L 177.724169 421.339337 
L 177.917206 421.339337 
L 178.110242 439.487949 
L 178.496316 439.487949 
L 178.689352 378.665572 
L 178.882389 439.487949 
L 179.268462 409.131261 
L 179.461499 484.232727 
L 179.654536 484.232727 
L 179.847572 409.131261 
L 180.040609 456.928058 
L 180.233646 437.852939 
L 180.619719 437.852939 
L 181.005792 465.157609 
L 181.198829 420.412831 
L 181.391865 484.232727 
L 181.584902 484.232727 
L 181.777939 472.188152 
L 181.970975 472.188152 
L 182.164012 396.868685 
L 182.357049 484.232727 
L 182.550085 358.391446 
L 182.743122 484.232727 
L 182.936159 484.232727 
L 183.129195 456.928058 
L 183.322232 484.232727 
L 183.515268 409.131261 
L 183.901342 409.131261 
L 184.094378 484.232727 
L 184.287415 484.232727 
L 184.480452 409.131261 
L 184.673488 423.41035 
L 184.866525 423.41035 
L 185.059562 411.365775 
L 185.252598 484.232727 
L 185.445635 439.487949 
L 185.638672 439.487949 
L 185.831708 484.232727 
L 186.024745 396.868685 
L 186.217782 366.293995 
L 186.410818 456.928058 
L 186.603855 321.767219 
L 186.796891 456.928058 
L 187.182965 484.232727 
L 187.376001 396.868685 
L 188.148148 396.868685 
L 188.341185 484.232727 
L 188.534221 407.823253 
L 188.727258 396.868685 
L 188.920295 355.502928 
L 189.499404 355.502928 
L 189.692441 396.868685 
L 189.885478 484.232727 
L 190.078514 484.232727 
L 190.464588 365.966993 
L 190.657624 323.347728 
L 190.850661 410.711771 
L 191.043698 284.87049 
L 191.236734 484.232727 
L 191.429771 482.161714 
L 191.815844 482.161714 
L 192.008881 484.232727 
L 192.201918 352.287408 
L 192.394954 352.287408 
L 192.781027 484.232727 
L 192.974064 484.232727 
L 193.167101 482.161714 
L 193.360137 482.161714 
L 193.553174 407.823253 
L 193.746211 484.232727 
L 193.939247 434.637419 
L 194.132284 472.188152 
L 194.325321 472.188152 
L 194.518357 484.232727 
L 195.676577 484.232727 
L 195.869614 396.868685 
L 196.06265 484.232727 
L 196.255687 439.487949 
L 196.448724 484.232727 
L 196.64176 461.451586 
L 196.834797 484.232727 
L 197.413907 484.232727 
L 197.606944 439.487949 
L 197.993017 439.487949 
L 198.186054 482.161714 
L 198.37909 352.287408 
L 198.9582 352.287408 
L 199.151237 472.188152 
L 199.344273 472.188152 
L 199.53731 346.346871 
L 199.730347 346.346871 
L 199.923383 484.232727 
L 200.11642 461.451586 
L 200.502493 461.451586 
L 200.69553 407.823253 
L 200.888567 484.232727 
L 201.081603 439.487949 
L 201.27464 439.487949 
L 201.467676 484.232727 
L 201.660713 484.232727 
L 201.85375 482.161714 
L 202.046786 482.161714 
L 202.239823 484.232727 
L 202.43286 484.232727 
L 202.625896 482.161714 
L 202.818933 482.161714 
L 203.01197 407.823253 
L 203.205006 484.232727 
L 203.59108 323.347728 
L 203.784116 366.293995 
L 204.363226 366.293995 
L 204.556263 484.232727 
L 204.749299 409.131261 
L 204.942336 484.232727 
L 205.328409 484.232727 
L 205.521446 369.945518 
L 205.714483 350.870399 
L 205.907519 465.157609 
L 206.293593 409.131261 
L 206.486629 409.131261 
L 206.679666 335.610305 
L 206.872703 409.131261 
L 207.258776 409.131261 
L 207.451812 461.451586 
L 207.644849 347.164376 
L 208.030922 347.164376 
L 208.223959 369.945518 
L 208.416996 484.232727 
L 208.610032 358.391446 
L 208.803069 434.637419 
L 209.382179 434.637419 
L 209.575216 484.232727 
L 209.768252 358.391446 
L 209.961289 357.192439 
L 210.154326 409.131261 
L 210.347362 409.131261 
L 210.540399 484.232727 
L 210.733435 482.161714 
L 210.926472 484.232727 
L 211.119509 484.232727 
L 211.312545 352.287408 
L 211.505582 352.287408 
L 211.698619 484.232727 
L 211.891655 369.945518 
L 212.277729 369.945518 
L 212.470765 409.131261 
L 212.663802 409.131261 
L 212.856839 484.232727 
L 213.049875 484.232727 
L 213.242912 461.451586 
L 213.628985 461.451586 
L 213.822022 420.085829 
L 214.015058 442.86697 
L 214.208095 442.86697 
L 214.401132 484.232727 
L 214.787205 398.122193 
L 214.980242 304.32711 
L 215.173278 439.487949 
L 215.366315 439.487949 
L 215.752388 324.601236 
L 215.945425 409.131261 
L 216.910608 409.131261 
L 217.103645 367.765504 
L 217.489718 484.232727 
L 217.682755 352.287408 
L 217.875791 409.131261 
L 218.068828 352.287408 
L 218.454901 352.287408 
L 218.647938 484.232727 
L 219.034011 222.031599 
L 219.227048 484.232727 
L 219.420085 410.711771 
L 219.613121 410.711771 
L 219.806158 398.667196 
L 219.999194 398.667196 
L 220.192231 472.188152 
L 220.578304 472.188152 
L 220.771341 409.131261 
L 221.543488 409.131261 
L 221.736524 484.232727 
L 222.315634 484.232727 
L 222.508671 456.928058 
L 222.701707 456.928058 
L 222.894744 434.146916 
L 223.087781 352.287408 
L 223.666891 352.287408 
L 223.859927 484.232727 
L 224.052964 357.192439 
L 224.246001 439.487949 
L 224.439037 409.131261 
L 224.632074 409.131261 
L 224.825111 484.232727 
L 225.018147 472.842157 
L 225.211184 450.061015 
L 225.404221 347.164376 
L 225.597257 350.870399 
L 225.790294 350.870399 
L 225.98333 277.349443 
L 226.176367 277.349443 
L 226.369404 365.966993 
L 226.56244 365.966993 
L 226.755477 484.232727 
L 226.948514 300.294085 
L 227.527624 484.232727 
L 227.72066 484.232727 
L 227.913697 472.842157 
L 228.492807 472.842157 
L 228.685843 347.000875 
L 228.87888 484.232727 
L 229.264953 461.451586 
L 229.45799 347.164376 
L 229.651027 369.945518 
L 229.844063 484.232727 
L 230.0371 410.711771 
L 230.230137 410.711771 
L 230.423173 408.640758 
L 230.61621 409.131261 
L 230.809247 484.232727 
L 231.002283 442.86697 
L 231.19532 484.232727 
L 231.581393 484.232727 
L 231.77443 407.823253 
L 232.160503 407.823253 
L 232.35354 484.232727 
L 232.546576 484.232727 
L 232.739613 407.823253 
L 232.93265 407.823253 
L 233.125686 423.41035 
L 233.318723 423.41035 
L 233.51176 484.232727 
L 233.704796 484.232727 
L 233.897833 456.928058 
L 234.09087 409.131261 
L 234.283906 409.131261 
L 234.669979 484.232727 
L 234.863016 484.232727 
L 235.056053 472.842157 
L 235.249089 358.554947 
L 235.635163 358.554947 
L 235.828199 350.870399 
L 236.021236 350.870399 
L 236.214273 465.157609 
L 236.407309 484.232727 
L 236.793383 244.104236 
L 236.986419 472.188152 
L 237.179456 472.188152 
L 237.372493 346.346871 
L 237.565529 484.232727 
L 237.951602 484.232727 
L 238.144639 349.071888 
L 238.337676 349.071888 
L 238.530712 484.232727 
L 238.723749 484.232727 
L 238.916786 482.161714 
L 239.109822 463.086596 
L 239.302859 463.086596 
L 239.495896 329.99677 
L 239.688932 329.99677 
L 239.881969 349.071888 
L 240.075006 349.071888 
L 240.268042 484.232727 
L 240.461079 484.232727 
L 240.654115 410.711771 
L 240.847152 399.3212 
L 241.040189 335.610305 
L 241.233225 409.131261 
L 241.426262 367.765504 
L 241.619299 484.232727 
L 241.812335 465.157609 
L 242.005372 463.086596 
L 242.198409 484.232727 
L 242.391445 484.232727 
L 242.584482 442.86697 
L 242.777519 484.232727 
L 242.970555 484.232727 
L 243.163592 472.842157 
L 243.356629 399.3212 
L 243.549665 484.232727 
L 243.742702 465.157609 
L 243.935738 465.157609 
L 244.128775 407.823253 
L 244.321812 434.637419 
L 244.514848 484.232727 
L 244.707885 352.287408 
L 244.900922 484.232727 
L 245.093958 349.071888 
L 245.286995 321.767219 
L 245.480032 434.637419 
L 245.866105 434.637419 
L 246.059142 484.232727 
L 246.252178 482.161714 
L 246.445215 472.188152 
L 246.638252 484.232727 
L 247.217361 484.232727 
L 247.603435 292.773039 
L 247.796471 292.773039 
L 247.989508 391.636652 
L 248.182545 391.636652 
L 248.375581 389.56564 
L 248.568618 334.302296 
L 248.761655 407.823253 
L 249.340765 407.823253 
L 249.533801 347.000875 
L 250.112911 347.000875 
L 250.305948 348.308883 
L 250.885058 348.308883 
L 251.078094 423.41035 
L 251.271131 423.41035 
L 251.464168 484.232727 
L 251.657204 484.232727 
L 251.850241 434.637419 
L 252.043278 415.562301 
L 252.429351 415.562301 
L 252.622388 434.637419 
L 252.815424 482.161714 
L 253.008461 484.232727 
L 253.201497 484.232727 
L 253.394534 410.711771 
L 253.587571 284.87049 
L 253.973644 484.232727 
L 254.166681 482.161714 
L 254.359717 409.131261 
L 254.745791 484.232727 
L 254.938827 409.131261 
L 255.131864 472.842157 
L 255.324901 434.637419 
L 255.517937 434.637419 
L 255.710974 472.842157 
L 255.90401 450.061015 
L 256.097047 461.451586 
L 256.290084 484.232727 
L 256.48312 461.451586 
L 256.676157 409.131261 
L 256.869194 484.232727 
L 257.255267 484.232727 
L 257.448304 482.161714 
L 257.64134 357.192439 
L 257.834377 307.706131 
L 258.027414 484.232727 
L 258.22045 484.232727 
L 258.413487 456.928058 
L 258.606524 456.928058 
L 258.79956 484.232727 
L 258.992597 349.071888 
L 259.185633 484.232727 
L 259.37867 461.451586 
L 259.571707 484.232727 
L 259.764743 472.842157 
L 259.95778 472.842157 
L 260.150817 484.232727 
L 260.343853 472.842157 
L 260.922963 288.24951 
L 261.116 349.071888 
L 261.309037 307.706131 
L 261.502073 442.86697 
L 261.69511 440.795958 
L 261.888146 484.232727 
L 262.27422 378.665572 
L 262.467256 423.41035 
L 262.660293 400.629208 
L 262.85333 396.10568 
L 263.046366 484.232727 
L 263.239403 472.188152 
L 263.43244 407.823253 
L 263.625476 484.232727 
L 263.818513 407.823253 
L 264.204586 407.823253 
L 264.397623 272.662414 
L 264.59066 349.071888 
L 264.783696 272.662414 
L 264.976733 272.662414 
L 265.169769 484.232727 
L 265.362806 358.391446 
L 265.555843 358.391446 
L 265.748879 317.025689 
L 265.941916 484.232727 
L 266.521026 484.232727 
L 266.907099 273.64342 
L 267.100136 273.64342 
L 267.293173 283.671482 
L 267.679246 396.868685 
L 267.872282 366.293995 
L 268.065319 357.192439 
L 268.451392 357.192439 
L 268.644429 484.232727 
L 268.837466 434.637419 
L 269.030502 299.47658 
L 269.223539 349.071888 
L 269.416576 352.287408 
L 269.609612 358.391446 
L 270.188722 358.391446 
L 270.381759 484.232727 
L 270.767832 484.232727 
L 270.960869 442.86697 
L 271.153905 369.346014 
L 271.346942 442.86697 
L 271.539979 315.826682 
L 271.733015 396.868685 
L 272.312125 396.868685 
L 272.505162 484.232727 
L 272.698199 472.842157 
L 273.084272 472.842157 
L 273.277309 409.131261 
L 273.470345 484.232727 
L 273.856418 296.370061 
L 274.049455 222.849104 
L 274.242492 222.849104 
L 274.821602 409.131261 
L 275.014638 472.842157 
L 275.207675 409.131261 
L 275.400712 484.232727 
L 275.593748 396.868685 
L 275.786785 461.451586 
L 275.979822 461.451586 
L 276.172858 334.411297 
L 276.365895 334.411297 
L 276.558932 461.451586 
L 276.751968 484.232727 
L 276.945005 482.161714 
L 277.138041 484.232727 
L 277.717151 484.232727 
L 277.910188 423.41035 
L 278.103225 412.019779 
L 278.296261 445.537487 
L 278.489298 445.537487 
L 278.682335 472.842157 
L 279.068408 292.773039 
L 279.261445 292.773039 
L 279.454481 484.232727 
L 279.647518 352.287408 
L 279.840554 484.232727 
L 280.033591 366.293995 
L 280.419664 366.293995 
L 280.612701 484.232727 
L 280.805738 465.157609 
L 280.998774 391.636652 
L 281.191811 465.157609 
L 281.577884 465.157609 
L 281.770921 453.113034 
L 282.156994 484.232727 
L 282.350031 472.842157 
L 282.736104 472.842157 
L 282.929141 431.4764 
L 283.122177 355.502928 
L 283.315214 484.232727 
L 283.508251 369.945518 
L 283.701287 369.945518 
L 283.894324 350.870399 
L 284.087361 484.232727 
L 284.473434 334.302296 
L 284.666471 484.232727 
L 285.052544 484.232727 
L 285.245581 407.823253 
L 285.438617 407.823253 
L 285.631654 484.232727 
L 285.824691 396.868685 
L 286.017727 396.868685 
L 286.210764 366.293995 
L 286.4038 484.232727 
L 286.596837 410.711771 
L 286.789874 387.930629 
L 286.98291 484.232727 
L 287.175947 484.232727 
L 287.368984 442.86697 
L 287.56202 431.4764 
L 287.755057 315.826682 
L 287.948094 357.192439 
L 288.14113 484.232727 
L 288.527204 484.232727 
L 288.72024 407.823253 
L 289.106313 407.823253 
L 289.29935 272.662414 
L 289.492387 272.662414 
L 289.685423 349.071888 
L 289.87846 337.681317 
L 290.071497 337.681317 
L 290.264533 445.537487 
L 290.45757 484.232727 
L 290.843643 366.293995 
L 291.03668 484.232727 
L 291.229717 472.842157 
L 291.422753 472.842157 
L 291.61579 484.232727 
L 291.808827 484.232727 
L 292.001863 472.842157 
L 292.1949 409.131261 
L 292.967046 409.131261 
L 293.160083 335.610305 
L 293.35312 484.232727 
L 293.546156 358.391446 
L 293.93223 358.391446 
L 294.125266 407.823253 
L 294.704376 407.823253 
L 294.897413 439.487949 
L 295.090449 304.32711 
L 295.283486 349.071888 
L 295.476523 299.47658 
L 295.669559 484.232727 
L 295.862596 482.161714 
L 296.055633 396.868685 
L 296.248669 396.868685 
L 296.441706 461.451586 
L 296.634743 484.232727 
L 296.827779 484.232727 
L 297.020816 434.637419 
L 297.406889 434.637419 
L 297.599926 484.232727 
L 297.985999 484.232727 
L 298.179036 465.157609 
L 298.372072 409.131261 
L 298.758146 409.131261 
L 298.951182 484.232727 
L 299.144219 349.071888 
L 299.337256 349.071888 
L 299.530292 409.131261 
L 299.723329 409.131261 
L 299.916366 366.293995 
L 300.109402 369.945518 
L 300.302439 484.232727 
L 300.495476 439.487949 
L 300.688512 439.487949 
L 300.881549 396.868685 
L 301.074585 484.232727 
L 301.267622 484.232727 
L 301.460659 461.451586 
L 301.653695 396.868685 
L 301.846732 484.232727 
L 302.039769 434.637419 
L 302.618879 434.637419 
L 302.811915 409.131261 
L 303.004952 409.131261 
L 303.197989 442.86697 
L 303.584062 401.010711 
L 303.777099 461.451586 
L 303.970135 484.232727 
L 304.163172 484.232727 
L 304.356208 409.131261 
L 304.549245 409.131261 
L 304.742282 484.232727 
L 304.935318 434.637419 
L 305.128355 434.637419 
L 305.321392 484.232727 
L 305.514428 484.232727 
L 305.707465 434.637419 
L 305.900502 484.232727 
L 306.093538 352.287408 
L 306.286575 352.287408 
L 306.479612 484.232727 
L 306.672648 484.232727 
L 306.865685 407.823253 
L 307.251758 407.823253 
L 307.637831 484.232727 
L 307.830868 461.451586 
L 308.023905 484.232727 
L 308.216941 396.868685 
L 308.603015 484.232727 
L 308.796051 358.391446 
L 308.989088 356.320433 
L 309.182125 358.391446 
L 309.375161 331.086776 
L 309.568198 257.56582 
L 309.761235 272.825915 
L 309.954271 262.089348 
L 310.147308 273.479919 
L 310.340344 358.391446 
L 310.726418 358.391446 
L 311.112491 465.157609 
L 311.305528 404.335231 
L 311.498564 404.335231 
L 311.691601 423.41035 
L 311.884638 484.232727 
L 312.077674 484.232727 
L 312.270711 456.928058 
L 312.463748 456.928058 
L 312.656784 383.407101 
L 312.849821 383.407101 
L 313.042857 322.584724 
L 313.235894 383.407101 
L 313.428931 383.407101 
L 313.621967 364.331983 
L 314.008041 364.331983 
L 314.201077 347.218877 
L 314.394114 465.157609 
L 314.587151 484.232727 
L 314.780187 358.391446 
L 314.973224 484.232727 
L 315.166261 484.232727 
L 315.359297 409.131261 
L 315.938407 409.131261 
L 316.131444 357.192439 
L 316.517517 357.192439 
L 316.710554 484.232727 
L 316.90359 484.232727 
L 317.096627 352.287408 
L 317.289664 352.287408 
L 317.4827 357.192439 
L 317.675737 283.671482 
L 317.868774 283.671482 
L 318.06181 335.610305 
L 318.254847 335.610305 
L 318.447884 484.232727 
L 318.64092 442.86697 
L 318.833957 442.86697 
L 319.026994 484.232727 
L 319.22003 484.232727 
L 319.413067 349.071888 
L 319.606103 347.000875 
L 319.992177 465.157609 
L 320.185213 352.287408 
L 320.37825 352.287408 
L 320.571287 278.766452 
L 320.764323 278.766452 
L 320.95736 284.87049 
L 321.150397 283.671482 
L 321.343433 283.671482 
L 321.53647 484.232727 
L 322.11558 484.232727 
L 322.308616 465.157609 
L 322.501653 339.316328 
L 322.69469 347.000875 
L 322.887726 472.842157 
L 323.080763 484.232727 
L 323.2738 484.232727 
L 323.466836 407.823253 
L 324.238983 407.823253 
L 324.43202 484.232727 
L 324.818093 484.232727 
L 325.01113 434.637419 
L 325.204166 484.232727 
L 325.397203 472.842157 
L 325.590239 453.767038 
L 325.976313 231.133156 
L 326.362386 456.928058 
L 326.555423 456.928058 
L 326.748459 396.10568 
L 326.941496 484.232727 
L 327.134533 366.293995 
L 327.327569 484.232727 
L 327.713643 484.232727 
L 327.906679 461.451586 
L 328.099716 461.451586 
L 328.292752 366.293995 
L 328.485789 366.293995 
L 328.678826 484.232727 
L 328.871862 461.451586 
L 329.064899 461.451586 
L 329.257936 484.232727 
L 329.837046 484.232727 
L 330.030082 465.157609 
L 330.223119 484.232727 
L 330.416156 439.487949 
L 331.188302 439.487949 
L 331.381339 420.412831 
L 331.574375 329.99677 
L 331.960449 329.99677 
L 332.153485 349.071888 
L 332.346522 326.290747 
L 332.539559 366.293995 
L 332.925632 366.293995 
L 333.118669 292.773039 
L 333.311705 484.232727 
L 333.504742 482.161714 
L 333.697779 408.640758 
L 333.890815 482.161714 
L 334.083852 356.320433 
L 334.276888 358.391446 
L 334.469925 484.232727 
L 334.662962 484.232727 
L 334.855998 409.131261 
L 335.242072 409.131261 
L 335.435108 461.451586 
L 335.821182 461.451586 
L 336.014218 449.407011 
L 336.207255 459.380573 
L 336.400292 356.320433 
L 336.593328 470.771144 
L 336.786365 470.771144 
L 336.979402 399.3212 
L 337.365475 399.3212 
L 337.558511 372.016531 
L 337.751548 372.016531 
L 337.944585 445.537487 
L 338.137621 352.287408 
L 338.330658 358.391446 
L 338.523695 317.025689 
L 338.716731 317.025689 
L 338.909768 358.391446 
L 339.102805 347.000875 
L 339.874951 347.000875 
L 340.067988 484.232727 
L 340.261024 409.131261 
L 340.454061 484.232727 
L 340.647098 369.945518 
L 340.840134 484.232727 
L 341.033171 434.637419 
L 341.419244 434.637419 
L 341.612281 407.823253 
L 341.998354 292.93654 
L 342.191391 243.504733 
L 342.384428 358.391446 
L 342.577464 244.104236 
L 343.156574 244.104236 
L 343.349611 358.391446 
L 343.735684 358.391446 
L 343.928721 335.610305 
L 344.121757 396.868685 
L 344.314794 323.347728 
L 344.507831 410.711771 
L 344.700867 410.711771 
L 344.893904 361.116463 
L 345.279977 361.116463 
L 345.859087 482.161714 
L 346.438197 482.161714 
L 347.017307 378.665572 
L 347.210344 396.10568 
L 347.40338 396.10568 
L 347.596417 456.928058 
L 347.789454 415.562301 
L 347.98249 398.122193 
L 348.175527 472.188152 
L 348.368564 484.232727 
L 348.5616 410.711771 
L 348.754637 292.773039 
L 348.947674 410.711771 
L 349.14071 283.671482 
L 349.333747 242.305725 
L 349.526783 323.347728 
L 349.71982 335.610305 
L 349.912857 284.87049 
L 350.29893 284.87049 
L 350.491967 484.232727 
L 350.685003 369.945518 
L 350.87804 484.232727 
L 351.071077 407.823253 
L 351.264113 407.823253 
L 351.45715 484.232727 
L 351.650187 484.232727 
L 351.843223 410.711771 
L 352.03626 278.766452 
L 352.422333 407.823253 
L 352.61537 407.823253 
L 352.808406 484.232727 
L 353.001443 472.188152 
L 353.19448 484.232727 
L 353.387516 484.232727 
L 353.580553 461.451586 
L 353.77359 409.131261 
L 354.3527 409.131261 
L 354.545736 456.928058 
L 354.738773 456.928058 
L 354.93181 366.293995 
L 355.124846 369.945518 
L 355.317883 369.945518 
L 355.510919 407.823253 
L 355.896993 310.921651 
L 356.090029 484.232727 
L 356.283066 472.188152 
L 356.476103 409.131261 
L 356.669139 407.823253 
L 356.862176 407.823253 
L 357.055213 347.000875 
L 357.441286 484.232727 
L 357.634323 366.293995 
L 357.827359 409.131261 
L 358.020396 409.131261 
L 358.213433 366.293995 
L 358.406469 456.928058 
L 358.599506 456.928058 
L 358.792542 369.945518 
L 358.985579 484.232727 
L 359.178616 484.232727 
L 359.371652 423.41035 
L 359.564689 423.41035 
L 359.757726 305.471617 
L 360.336836 305.471617 
L 360.722909 409.131261 
L 361.108982 409.131261 
L 361.302019 335.610305 
L 361.495055 335.610305 
L 361.688092 472.842157 
L 362.267202 472.842157 
L 362.460239 453.767038 
L 362.653275 453.767038 
L 362.846312 484.232727 
L 363.039349 409.131261 
L 363.232385 484.232727 
L 363.425422 484.232727 
L 363.618459 410.711771 
L 363.811495 410.711771 
L 364.004532 365.966993 
L 364.197569 365.966993 
L 364.390605 410.711771 
L 364.583642 278.766452 
L 364.776678 484.232727 
L 364.969715 352.287408 
L 365.355788 352.287408 
L 365.548825 484.232727 
L 365.741862 484.232727 
L 365.934898 352.287408 
L 366.320972 352.287408 
L 366.514008 472.188152 
L 366.900082 472.188152 
L 367.093118 346.346871 
L 367.286155 346.346871 
L 367.479191 409.131261 
L 368.058301 409.131261 
L 368.251338 407.823253 
L 368.637411 407.823253 
L 368.830448 409.131261 
L 369.023485 409.131261 
L 369.216521 484.232727 
L 369.795631 484.232727 
L 369.988668 396.868685 
L 370.181705 472.188152 
L 370.374741 430.822396 
L 370.567778 472.188152 
L 370.760814 409.131261 
L 370.953851 472.188152 
L 371.146888 472.188152 
L 371.339924 352.287408 
L 371.532961 352.287408 
L 371.725998 358.391446 
L 372.112071 358.391446 
L 372.305108 396.868685 
L 372.498144 369.945518 
L 372.691181 484.232727 
L 373.656364 484.232727 
L 373.849401 366.293995 
L 374.235474 352.287408 
L 374.428511 484.232727 
L 374.621547 439.487949 
L 375.393694 439.487949 
L 375.586731 396.868685 
L 375.779767 396.868685 
L 375.972804 484.232727 
L 376.74495 484.232727 
L 376.937987 409.131261 
L 377.131024 409.131261 
L 377.32406 484.232727 
L 377.517097 461.451586 
L 377.710134 484.232727 
L 378.096207 484.232727 
L 378.289244 465.157609 
L 378.48228 347.218877 
L 378.675317 409.131261 
L 379.254427 409.131261 
L 379.447463 465.157609 
L 379.6405 453.767038 
L 379.833537 357.192439 
L 380.026573 357.192439 
L 380.21961 296.370061 
L 380.412647 423.41035 
L 380.605683 296.370061 
L 380.79872 482.161714 
L 380.991757 482.161714 
L 381.184793 408.640758 
L 381.37783 408.640758 
L 381.570867 410.711771 
L 381.763903 292.773039 
L 381.95694 292.773039 
L 382.149977 366.293995 
L 382.343013 366.293995 
L 382.53605 231.133156 
L 382.922123 484.232727 
L 383.501233 484.232727 
L 383.69427 472.188152 
L 383.887306 472.188152 
L 384.080343 484.232727 
L 384.27338 482.161714 
L 384.466416 439.487949 
L 384.659453 484.232727 
L 385.431599 484.232727 
L 385.624636 407.823253 
L 385.817673 484.232727 
L 386.010709 484.232727 
L 386.203746 465.157609 
L 386.396783 423.791852 
L 386.589819 465.157609 
L 386.975893 244.104236 
L 387.555003 244.104236 
L 387.748039 223.230607 
L 387.941076 482.161714 
L 388.134113 484.232727 
L 388.327149 434.637419 
L 388.713222 484.232727 
L 388.906259 482.161714 
L 389.292332 296.424561 
L 389.871442 484.232727 
L 390.257516 369.945518 
L 390.450552 369.945518 
L 390.643589 358.554947 
L 390.836626 369.945518 
L 391.029662 369.945518 
L 391.222699 484.232727 
L 391.608772 358.391446 
L 391.801809 358.391446 
L 391.994845 346.346871 
L 392.187882 244.104236 
L 392.380919 244.104236 
L 392.573955 369.945518 
L 392.766992 369.945518 
L 392.960029 328.579761 
L 393.153065 423.791852 
L 393.346102 338.11732 
L 393.539139 357.192439 
L 393.732175 352.287408 
L 394.118249 472.842157 
L 394.504322 472.842157 
L 394.697358 431.4764 
L 394.890395 445.537487 
L 395.083432 472.842157 
L 395.276468 472.842157 
L 395.469505 460.797582 
L 395.662542 460.797582 
L 395.855578 430.822396 
L 396.048615 328.579761 
L 396.241652 307.706131 
L 396.434688 307.706131 
L 396.627725 324.928238 
L 397.399872 324.928238 
L 397.592908 347.218877 
L 397.785945 484.232727 
L 397.978981 423.41035 
L 398.172018 484.232727 
L 398.365055 407.823253 
L 398.558091 484.232727 
L 398.751128 472.842157 
L 398.944165 407.823253 
L 399.137201 407.823253 
L 399.330238 272.662414 
L 399.523275 357.192439 
L 399.716311 357.192439 
L 399.909348 484.232727 
L 400.102385 434.637419 
L 400.681494 434.637419 
L 400.874531 299.47658 
L 401.067568 409.131261 
L 401.453641 409.131261 
L 401.646678 367.765504 
L 402.032751 484.232727 
L 402.225788 472.188152 
L 402.418824 357.192439 
L 402.611861 338.11732 
L 402.804898 338.11732 
L 402.997934 357.192439 
L 403.190971 357.192439 
L 403.384008 296.370061 
L 403.770081 296.370061 
L 403.963117 357.192439 
L 404.349191 357.192439 
L 404.542227 484.232727 
L 404.735264 484.232727 
L 404.928301 442.86697 
L 405.121337 440.795958 
L 405.314374 440.795958 
L 405.507411 379.97358 
L 405.700447 379.97358 
L 405.893484 484.232727 
L 406.279557 484.232727 
L 406.472594 465.157609 
L 406.66563 484.232727 
L 407.051704 323.347728 
L 407.630814 323.347728 
L 407.82385 278.766452 
L 408.016887 278.766452 
L 408.209924 408.640758 
L 408.40296 408.640758 
L 408.595997 367.275001 
L 408.789034 367.275001 
L 408.98207 369.346014 
L 409.175107 237.400695 
L 409.368144 310.921651 
L 409.56118 431.4764 
L 409.754217 431.4764 
L 409.947253 370.654022 
L 410.14029 431.4764 
L 410.333327 431.4764 
L 410.526363 357.955443 
L 411.105473 357.955443 
L 411.29851 237.400695 
L 411.684583 484.232727 
L 411.87762 456.928058 
L 412.649766 456.928058 
L 412.842803 484.232727 
L 413.03584 482.161714 
L 413.228876 408.640758 
L 413.421913 484.232727 
L 413.61495 472.188152 
L 413.807986 484.232727 
L 414.001023 396.868685 
L 414.19406 439.487949 
L 414.387096 352.287408 
L 414.580133 349.071888 
L 414.966206 349.071888 
L 415.159243 299.47658 
L 415.545316 299.47658 
L 415.738353 484.232727 
L 415.931389 349.071888 
L 416.124426 484.232727 
L 416.317463 484.232727 
L 416.510499 349.071888 
L 416.703536 349.071888 
L 416.896573 484.232727 
L 417.089609 472.188152 
L 417.282646 484.232727 
L 417.475683 369.945518 
L 417.668719 439.487949 
L 417.861756 396.868685 
L 418.054793 396.868685 
L 418.247829 369.945518 
L 418.440866 369.945518 
L 418.633902 244.104236 
L 418.826939 244.104236 
L 419.019976 358.391446 
L 419.213012 223.230607 
L 419.406049 223.230607 
L 419.599086 484.232727 
L 419.792122 366.293995 
L 420.564269 366.293995 
L 420.757306 305.471617 
L 421.143379 305.471617 
L 421.336416 291.46503 
L 421.915525 291.46503 
L 422.108562 484.232727 
L 422.301599 349.071888 
L 422.494635 352.287408 
L 422.687672 484.232727 
L 422.880709 484.232727 
L 423.073745 472.188152 
L 423.266782 472.188152 
L 423.459819 439.487949 
L 423.845892 439.487949 
L 424.038929 472.188152 
L 424.231965 484.232727 
L 424.425002 461.451586 
L 424.618038 484.232727 
L 424.811075 472.842157 
L 425.004112 484.232727 
L 425.197148 484.232727 
L 425.390185 472.188152 
L 425.583222 346.346871 
L 425.776258 358.391446 
L 425.969295 358.391446 
L 426.162332 317.025689 
L 426.355368 317.025689 
L 426.548405 442.86697 
L 426.741442 366.457496 
L 427.320552 366.457496 
L 427.513588 307.706131 
L 427.706625 307.706131 
L 427.899661 442.86697 
L 428.092698 442.86697 
L 428.285735 310.921651 
L 428.671808 310.921651 
L 428.864845 440.795958 
L 429.057881 482.161714 
L 429.250918 440.795958 
L 429.443955 440.795958 
L 429.636991 434.637419 
L 429.830028 456.928058 
L 430.216101 420.412831 
L 430.409138 420.412831 
L 430.602175 396.868685 
L 430.795211 355.502928 
L 431.374321 355.502928 
L 431.567358 307.706131 
L 431.953431 307.706131 
L 432.146468 442.86697 
L 432.339504 431.4764 
L 432.725578 431.4764 
L 432.918614 370.654022 
L 433.111651 431.4764 
L 433.497724 431.4764 
L 433.690761 484.232727 
L 434.076834 484.232727 
L 434.269871 366.293995 
L 434.655944 366.293995 
L 434.848981 357.192439 
L 435.042017 357.192439 
L 435.235054 358.391446 
L 435.428091 346.346871 
L 436.200237 346.346871 
L 436.393274 358.391446 
L 436.586311 396.868685 
L 436.779347 396.868685 
L 436.972384 484.232727 
L 437.16542 484.232727 
L 437.358457 352.287408 
L 437.551494 484.232727 
L 437.74453 357.192439 
L 438.32364 357.192439 
L 438.516677 369.945518 
L 438.709714 369.945518 
L 438.90275 484.232727 
L 439.095787 484.232727 
L 439.288824 439.487949 
L 439.48186 439.487949 
L 439.674897 484.232727 
L 439.867933 358.391446 
L 440.06097 358.391446 
L 440.447043 337.681317 
L 440.64008 337.681317 
L 440.833117 347.000875 
L 441.026153 347.000875 
L 441.21919 482.161714 
L 441.412227 484.232727 
L 441.7983 442.376467 
L 441.991337 442.376467 
L 442.184373 334.411297 
L 442.37741 334.411297 
L 442.570447 387.930629 
L 442.763483 273.64342 
L 443.149556 273.64342 
L 443.53563 482.161714 
L 443.728666 484.232727 
L 443.921703 465.157609 
L 444.11474 350.870399 
L 445.465996 350.870399 
L 445.659033 357.192439 
L 445.852069 357.192439 
L 446.045106 472.842157 
L 446.238143 337.681317 
L 446.431179 337.681317 
L 446.624216 460.797582 
L 446.817253 472.188152 
L 447.010289 352.287408 
L 448.168509 352.287408 
L 448.361546 472.188152 
L 448.554583 396.868685 
L 448.747619 396.868685 
L 448.940656 409.131261 
L 449.133692 409.131261 
L 449.326729 461.451586 
L 449.519766 459.380573 
L 449.712802 439.487949 
L 449.905839 407.823253 
L 450.098876 407.823253 
L 450.291912 409.131261 
L 450.484949 409.131261 
L 450.677986 335.610305 
L 451.257096 335.610305 
L 451.450132 409.131261 
L 451.643169 409.131261 
L 451.836205 369.945518 
L 452.222279 369.945518 
L 452.415315 350.870399 
L 452.608352 347.164376 
L 453.380499 347.164376 
L 453.573535 369.945518 
L 454.152645 369.945518 
L 454.345682 350.870399 
L 454.538719 352.287408 
L 454.924792 352.287408 
L 455.310865 217.944074 
L 456.469085 217.944074 
L 456.662122 237.400695 
L 457.048195 237.400695 
L 457.241232 278.766452 
L 457.434268 278.766452 
L 457.627305 321.767219 
L 457.820341 321.767219 
L 458.013378 349.071888 
L 458.206415 272.662414 
L 458.399451 366.293995 
L 458.592488 366.293995 
L 458.785525 396.868685 
L 459.171598 396.868685 
L 459.557671 294.68055 
L 459.750708 396.868685 
L 459.943745 396.868685 
L 460.136781 357.192439 
L 461.295001 357.192439 
L 461.488038 484.232727 
L 461.681074 369.945518 
L 461.874111 369.945518 
L 462.067148 409.131261 
L 462.260184 409.131261 
L 462.453221 484.232727 
L 462.839294 484.232727 
L 463.032331 434.637419 
L 463.225368 484.232727 
L 463.804478 484.232727 
L 463.997514 358.391446 
L 464.190551 347.000875 
L 464.383587 347.000875 
L 464.576624 358.391446 
L 464.769661 358.391446 
L 464.962697 284.87049 
L 465.348771 284.87049 
L 465.541807 149.70965 
L 465.927881 149.70965 
L 466.120917 88.887273 
L 466.506991 88.887273 
L 466.700027 461.451586 
L 467.0861 461.451586 
L 467.279137 420.085829 
L 467.472174 315.826682 
L 467.66521 338.11732 
L 467.858247 465.157609 
L 468.051284 465.157609 
L 468.24432 352.287408 
L 469.788614 352.287408 
L 469.98165 291.46503 
L 470.174687 288.24951 
L 470.56076 288.24951 
L 470.753797 265.468369 
L 470.946833 265.468369 
L 471.13987 269.174392 
L 471.332907 347.218877 
L 471.525943 347.218877 
L 471.71898 366.293995 
L 471.912017 369.945518 
L 472.105053 244.104236 
L 473.263273 244.104236 
L 473.45631 170.58328 
L 473.649346 257.56582 
L 474.03542 257.56582 
L 474.228456 296.424561 
L 474.421493 410.711771 
L 474.61453 278.766452 
L 474.807566 358.391446 
L 475.000603 358.391446 
L 475.19364 407.823253 
L 475.386676 407.823253 
L 475.579713 357.192439 
L 475.77275 357.192439 
L 475.965786 409.131261 
L 476.158823 409.131261 
L 476.351859 484.232727 
L 476.544896 357.192439 
L 476.737933 357.192439 
L 477.124006 439.487949 
L 477.317043 366.293995 
L 477.510079 484.232727 
L 477.703116 484.232727 
L 477.896153 352.287408 
L 478.089189 366.293995 
L 478.475263 366.293995 
L 478.668299 357.192439 
L 478.861336 283.671482 
L 479.440446 283.671482 
L 479.633482 264.596364 
L 480.019556 264.596364 
L 480.212592 222.849104 
L 480.405629 222.849104 
L 480.598666 357.192439 
L 481.563849 357.192439 
L 481.756886 366.293995 
L 482.142959 366.293995 
L 482.335995 231.133156 
L 482.915105 231.133156 
L 483.108142 305.471617 
L 483.301179 305.471617 
L 483.687252 434.637419 
L 483.880289 299.47658 
L 484.266362 299.47658 
L 484.459399 349.071888 
L 485.038508 349.071888 
L 485.231545 272.662414 
L 486.389765 272.662414 
L 486.582802 329.99677 
L 486.775838 329.99677 
L 486.968875 337.681317 
L 487.161912 272.662414 
L 487.354948 272.662414 
L 487.547985 349.071888 
L 488.127095 349.071888 
L 488.320131 299.47658 
L 488.899241 299.47658 
L 489.092278 234.784679 
L 489.285315 369.945518 
L 489.478351 396.868685 
L 489.864425 396.868685 
L 490.057461 355.502928 
L 490.250498 355.502928 
L 490.443535 396.868685 
L 490.829608 396.868685 
L 491.022644 357.192439 
L 491.408718 357.192439 
L 491.601754 296.370061 
L 491.794791 296.370061 
L 491.987828 222.031599 
L 500.674477 222.031599 
L 500.867513 223.230607 
L 502.411807 223.230607 
L 502.79788 162.408229 
L 503.37699 162.408229 
L 503.570026 335.610305 
L 503.763063 262.089348 
L 504.921283 262.089348 
L 505.11432 273.64342 
L 505.307356 262.089348 
L 506.079503 262.089348 
L 506.272539 257.56582 
L 507.044686 257.56582 
L 507.237723 282.799477 
L 508.782016 282.799477 
L 508.975053 170.58328 
L 512.063639 170.58328 
L 512.256675 292.773039 
L 513.414895 292.773039 
L 513.607932 231.950661 
L 516.117408 231.950661 
L 516.310445 292.773039 
L 517.082592 292.773039 
L 517.275628 251.407282 
L 517.661702 251.407282 
L 517.854738 255.058804 
L 518.819921 255.058804 
L 519.012958 277.349443 
L 520.750288 277.349443 
L 520.943325 296.424561 
L 522.873691 296.424561 
L 523.066728 292.773039 
L 525.769241 292.773039 
L 525.962277 323.347728 
L 526.155314 323.347728 
L 526.348351 365.966993 
L 526.541387 365.966993 
L 526.734424 335.610305 
L 527.313534 335.610305 
L 527.50657 274.787927 
L 527.699607 273.479919 
L 528.857827 273.479919 
L 529.050864 272.662414 
L 535.035 272.662414 
L 535.228036 222.031599 
L 535.61411 222.031599 
L 535.807146 148.510643 
L 542.756465 148.510643 
L 542.949502 161.263722 
L 547.003272 161.263722 
L 547.196308 188.186889 
L 555.110811 188.186889 
L 555.303847 161.263722 
L 569.781596 161.263722 
L 569.974632 148.510643 
L 570.939816 148.510643 
L 571.132852 149.70965 
L 571.518926 149.70965 
L 571.711962 88.887273 
L 871.690909 88.887273 
L 871.690909 88.887273 
" style="fill:none;stroke:#8dd3c7;stroke-linecap:square;stroke-width:1.5;"/>
   </g>
   <g id="line2d_18">
    <path clip-path="url(#p328528afe2)" d="M 161.509091 349.071888 
L 161.702128 234.784679 
L 176.179876 234.784679 
L 176.372913 231.950661 
L 176.565949 231.950661 
L 176.758986 224.048112 
L 176.952023 224.048112 
L 177.145059 217.944074 
L 465.348771 217.944074 
L 465.541807 149.70965 
L 465.927881 149.70965 
L 466.120917 88.887273 
L 871.690909 88.887273 
L 871.690909 88.887273 
" style="fill:none;stroke:#feffb3;stroke-linecap:square;stroke-width:1.5;"/>
   </g>
   <g id="line2d_19">
    <path clip-path="url(#p328528afe2)" d="M 161.509091 482.881119 
L 167.107154 482.985236 
L 167.686264 483.034247 
L 172.898253 483.126568 
L 173.477363 483.170026 
L 178.689352 483.251888 
L 179.268462 483.290423 
L 186.410818 483.397179 
L 187.182965 483.430006 
L 194.132284 483.520949 
L 195.097467 483.548913 
L 203.784116 483.650206 
L 204.749299 483.673092 
L 215.366315 483.77472 
L 216.717571 483.792714 
L 230.809247 483.900359 
L 232.546576 483.913417 
L 252.043278 484.018859 
L 254.938827 484.035334 
L 294.51134 484.144175 
L 301.267622 484.157292 
L 871.690909 484.232727 
L 871.690909 484.232727 
" style="fill:none;stroke:#bfbbd9;stroke-linecap:square;stroke-width:1.5;"/>
   </g>
   <g id="patch_3">
    <path d="M 126 504 
L 126 69.12 
" style="fill:none;stroke:#ffffff;stroke-linecap:square;stroke-linejoin:miter;stroke-width:0.8;"/>
   </g>
   <g id="patch_4">
    <path d="M 907.2 504 
L 907.2 69.12 
" style="fill:none;stroke:#ffffff;stroke-linecap:square;stroke-linejoin:miter;stroke-width:0.8;"/>
   </g>
   <g id="patch_5">
    <path d="M 126 504 
L 907.2 504 
" style="fill:none;stroke:#ffffff;stroke-linecap:square;stroke-linejoin:miter;stroke-width:0.8;"/>
   </g>
   <g id="patch_6">
    <path d="M 126 69.12 
L 907.2 69.12 
" style="fill:none;stroke:#ffffff;stroke-linecap:square;stroke-linejoin:miter;stroke-width:0.8;"/>
   </g>
   <g id="text_18">
    <!-- instance 15 with error 0.0 -->
    <g style="fill:#ffffff;" transform="translate(439.126875 63.12)scale(0.12 -0.12)">
     <defs>
      <path d="M 2834 3397 
L 2834 2853 
Q 2591 2978 2328 3040 
Q 2066 3103 1784 3103 
Q 1356 3103 1142 2972 
Q 928 2841 928 2578 
Q 928 2378 1081 2264 
Q 1234 2150 1697 2047 
L 1894 2003 
Q 2506 1872 2764 1633 
Q 3022 1394 3022 966 
Q 3022 478 2636 193 
Q 2250 -91 1575 -91 
Q 1294 -91 989 -36 
Q 684 19 347 128 
L 347 722 
Q 666 556 975 473 
Q 1284 391 1588 391 
Q 1994 391 2212 530 
Q 2431 669 2431 922 
Q 2431 1156 2273 1281 
Q 2116 1406 1581 1522 
L 1381 1569 
Q 847 1681 609 1914 
Q 372 2147 372 2553 
Q 372 3047 722 3315 
Q 1072 3584 1716 3584 
Q 2034 3584 2315 3537 
Q 2597 3491 2834 3397 
z
" id="DejaVuSans-73" transform="scale(0.015625)"/>
      <path d="M 3122 3366 
L 3122 2828 
Q 2878 2963 2633 3030 
Q 2388 3097 2138 3097 
Q 1578 3097 1268 2742 
Q 959 2388 959 1747 
Q 959 1106 1268 751 
Q 1578 397 2138 397 
Q 2388 397 2633 464 
Q 2878 531 3122 666 
L 3122 134 
Q 2881 22 2623 -34 
Q 2366 -91 2075 -91 
Q 1284 -91 818 406 
Q 353 903 353 1747 
Q 353 2603 823 3093 
Q 1294 3584 2113 3584 
Q 2378 3584 2631 3529 
Q 2884 3475 3122 3366 
z
" id="DejaVuSans-63" transform="scale(0.015625)"/>
      <path id="DejaVuSans-20" transform="scale(0.015625)"/>
      <path d="M 269 3500 
L 844 3500 
L 1563 769 
L 2278 3500 
L 2956 3500 
L 3675 769 
L 4391 3500 
L 4966 3500 
L 4050 0 
L 3372 0 
L 2619 2869 
L 1863 0 
L 1184 0 
L 269 3500 
z
" id="DejaVuSans-77" transform="scale(0.015625)"/>
      <path d="M 3513 2113 
L 3513 0 
L 2938 0 
L 2938 2094 
Q 2938 2591 2744 2837 
Q 2550 3084 2163 3084 
Q 1697 3084 1428 2787 
Q 1159 2491 1159 1978 
L 1159 0 
L 581 0 
L 581 4863 
L 1159 4863 
L 1159 2956 
Q 1366 3272 1645 3428 
Q 1925 3584 2291 3584 
Q 2894 3584 3203 3211 
Q 3513 2838 3513 2113 
z
" id="DejaVuSans-68" transform="scale(0.015625)"/>
      <path d="M 684 794 
L 1344 794 
L 1344 0 
L 684 0 
L 684 794 
z
" id="DejaVuSans-2e" transform="scale(0.015625)"/>
     </defs>
     <use xlink:href="#DejaVuSans-69"/>
     <use x="27.783203" xlink:href="#DejaVuSans-6e"/>
     <use x="91.162109" xlink:href="#DejaVuSans-73"/>
     <use x="143.261719" xlink:href="#DejaVuSans-74"/>
     <use x="182.470703" xlink:href="#DejaVuSans-61"/>
     <use x="243.75" xlink:href="#DejaVuSans-6e"/>
     <use x="307.128906" xlink:href="#DejaVuSans-63"/>
     <use x="362.109375" xlink:href="#DejaVuSans-65"/>
     <use x="423.632812" xlink:href="#DejaVuSans-20"/>
     <use x="455.419922" xlink:href="#DejaVuSans-31"/>
     <use x="519.042969" xlink:href="#DejaVuSans-35"/>
     <use x="582.666016" xlink:href="#DejaVuSans-20"/>
     <use x="614.453125" xlink:href="#DejaVuSans-77"/>
     <use x="696.240234" xlink:href="#DejaVuSans-69"/>
     <use x="724.023438" xlink:href="#DejaVuSans-74"/>
     <use x="763.232422" xlink:href="#DejaVuSans-68"/>
     <use x="826.611328" xlink:href="#DejaVuSans-20"/>
     <use x="858.398438" xlink:href="#DejaVuSans-65"/>
     <use x="919.921875" xlink:href="#DejaVuSans-72"/>
     <use x="959.285156" xlink:href="#DejaVuSans-72"/>
     <use x="998.148438" xlink:href="#DejaVuSans-6f"/>
     <use x="1059.330078" xlink:href="#DejaVuSans-72"/>
     <use x="1100.443359" xlink:href="#DejaVuSans-20"/>
     <use x="1132.230469" xlink:href="#DejaVuSans-30"/>
     <use x="1195.853516" xlink:href="#DejaVuSans-2e"/>
     <use x="1227.640625" xlink:href="#DejaVuSans-30"/>
    </g>
   </g>
   <g id="legend_1">
    <g id="patch_7">
     <path d="M 805.348438 499 
L 900.2 499 
Q 902.2 499 902.2 497 
L 902.2 453.965625 
Q 902.2 451.965625 900.2 451.965625 
L 805.348438 451.965625 
Q 803.348438 451.965625 803.348438 453.965625 
L 803.348438 497 
Q 803.348438 499 805.348438 499 
z
" style="opacity:0.8;stroke:#cccccc;stroke-linejoin:miter;"/>
    </g>
    <g id="line2d_20">
     <path d="M 807.348438 460.064062 
L 827.348438 460.064062 
" style="fill:none;stroke:#8dd3c7;stroke-linecap:square;stroke-width:1.5;"/>
    </g>
    <g id="line2d_21"/>
    <g id="text_19">
     <!-- cost -->
     <g style="fill:#ffffff;" transform="translate(835.348438 463.564062)scale(0.1 -0.1)">
      <use xlink:href="#DejaVuSans-63"/>
      <use x="54.980469" xlink:href="#DejaVuSans-6f"/>
      <use x="116.162109" xlink:href="#DejaVuSans-73"/>
      <use x="168.261719" xlink:href="#DejaVuSans-74"/>
     </g>
    </g>
    <g id="line2d_22">
     <path d="M 807.348438 474.742188 
L 827.348438 474.742188 
" style="fill:none;stroke:#feffb3;stroke-linecap:square;stroke-width:1.5;"/>
    </g>
    <g id="line2d_23"/>
    <g id="text_20">
     <!-- best cost -->
     <g style="fill:#ffffff;" transform="translate(835.348438 478.242188)scale(0.1 -0.1)">
      <defs>
       <path d="M 3116 1747 
Q 3116 2381 2855 2742 
Q 2594 3103 2138 3103 
Q 1681 3103 1420 2742 
Q 1159 2381 1159 1747 
Q 1159 1113 1420 752 
Q 1681 391 2138 391 
Q 2594 391 2855 752 
Q 3116 1113 3116 1747 
z
M 1159 2969 
Q 1341 3281 1617 3432 
Q 1894 3584 2278 3584 
Q 2916 3584 3314 3078 
Q 3713 2572 3713 1747 
Q 3713 922 3314 415 
Q 2916 -91 2278 -91 
Q 1894 -91 1617 61 
Q 1341 213 1159 525 
L 1159 0 
L 581 0 
L 581 4863 
L 1159 4863 
L 1159 2969 
z
" id="DejaVuSans-62" transform="scale(0.015625)"/>
      </defs>
      <use xlink:href="#DejaVuSans-62"/>
      <use x="63.476562" xlink:href="#DejaVuSans-65"/>
      <use x="125" xlink:href="#DejaVuSans-73"/>
      <use x="177.099609" xlink:href="#DejaVuSans-74"/>
      <use x="216.308594" xlink:href="#DejaVuSans-20"/>
      <use x="248.095703" xlink:href="#DejaVuSans-63"/>
      <use x="303.076172" xlink:href="#DejaVuSans-6f"/>
      <use x="364.257812" xlink:href="#DejaVuSans-73"/>
      <use x="416.357422" xlink:href="#DejaVuSans-74"/>
     </g>
    </g>
    <g id="line2d_24">
     <path d="M 807.348438 489.420313 
L 827.348438 489.420313 
" style="fill:none;stroke:#bfbbd9;stroke-linecap:square;stroke-width:1.5;"/>
    </g>
    <g id="line2d_25"/>
    <g id="text_21">
     <!-- temperature -->
     <g style="fill:#ffffff;" transform="translate(835.348438 492.920313)scale(0.1 -0.1)">
      <defs>
       <path d="M 3328 2828 
Q 3544 3216 3844 3400 
Q 4144 3584 4550 3584 
Q 5097 3584 5394 3201 
Q 5691 2819 5691 2113 
L 5691 0 
L 5113 0 
L 5113 2094 
Q 5113 2597 4934 2840 
Q 4756 3084 4391 3084 
Q 3944 3084 3684 2787 
Q 3425 2491 3425 1978 
L 3425 0 
L 2847 0 
L 2847 2094 
Q 2847 2600 2669 2842 
Q 2491 3084 2119 3084 
Q 1678 3084 1418 2786 
Q 1159 2488 1159 1978 
L 1159 0 
L 581 0 
L 581 3500 
L 1159 3500 
L 1159 2956 
Q 1356 3278 1631 3431 
Q 1906 3584 2284 3584 
Q 2666 3584 2933 3390 
Q 3200 3197 3328 2828 
z
" id="DejaVuSans-6d" transform="scale(0.015625)"/>
       <path d="M 1159 525 
L 1159 -1331 
L 581 -1331 
L 581 3500 
L 1159 3500 
L 1159 2969 
Q 1341 3281 1617 3432 
Q 1894 3584 2278 3584 
Q 2916 3584 3314 3078 
Q 3713 2572 3713 1747 
Q 3713 922 3314 415 
Q 2916 -91 2278 -91 
Q 1894 -91 1617 61 
Q 1341 213 1159 525 
z
M 3116 1747 
Q 3116 2381 2855 2742 
Q 2594 3103 2138 3103 
Q 1681 3103 1420 2742 
Q 1159 2381 1159 1747 
Q 1159 1113 1420 752 
Q 1681 391 2138 391 
Q 2594 391 2855 752 
Q 3116 1113 3116 1747 
z
" id="DejaVuSans-70" transform="scale(0.015625)"/>
       <path d="M 544 1381 
L 544 3500 
L 1119 3500 
L 1119 1403 
Q 1119 906 1312 657 
Q 1506 409 1894 409 
Q 2359 409 2629 706 
Q 2900 1003 2900 1516 
L 2900 3500 
L 3475 3500 
L 3475 0 
L 2900 0 
L 2900 538 
Q 2691 219 2414 64 
Q 2138 -91 1772 -91 
Q 1169 -91 856 284 
Q 544 659 544 1381 
z
M 1991 3584 
L 1991 3584 
z
" id="DejaVuSans-75" transform="scale(0.015625)"/>
      </defs>
      <use xlink:href="#DejaVuSans-74"/>
      <use x="39.208984" xlink:href="#DejaVuSans-65"/>
      <use x="100.732422" xlink:href="#DejaVuSans-6d"/>
      <use x="198.144531" xlink:href="#DejaVuSans-70"/>
      <use x="261.621094" xlink:href="#DejaVuSans-65"/>
      <use x="323.144531" xlink:href="#DejaVuSans-72"/>
      <use x="364.257812" xlink:href="#DejaVuSans-61"/>
      <use x="425.537109" xlink:href="#DejaVuSans-74"/>
      <use x="464.746094" xlink:href="#DejaVuSans-75"/>
      <use x="528.125" xlink:href="#DejaVuSans-72"/>
      <use x="566.988281" xlink:href="#DejaVuSans-65"/>
     </g>
    </g>
   </g>
  </g>
 </g>
 <defs>
  <clipPath id="p328528afe2">
   <rect height="434.88" width="781.2" x="126" y="69.12"/>
  </clipPath>
 </defs>
</svg>
