<?xml version="1.0" encoding="utf-8" standalone="no"?>
<!DOCTYPE svg PUBLIC "-//W3C//DTD SVG 1.1//EN"
  "http://www.w3.org/Graphics/SVG/1.1/DTD/svg11.dtd">
<svg height="576pt" version="1.1" viewBox="0 0 1008 576" width="1008pt" xmlns="http://www.w3.org/2000/svg" xmlns:xlink="http://www.w3.org/1999/xlink">
 <metadata>
  <rdf:RDF xmlns:cc="http://creativecommons.org/ns#" xmlns:dc="http://purl.org/dc/elements/1.1/" xmlns:rdf="http://www.w3.org/1999/02/22-rdf-syntax-ns#">
   <cc:Work>
    <dc:type rdf:resource="http://purl.org/dc/dcmitype/StillImage"/>
    <dc:date>2022-01-07T00:38:53.230634</dc:date>
    <dc:format>image/svg+xml</dc:format>
    <dc:creator>
     <cc:Agent>
      <dc:title>Matplotlib v3.4.3, https://matplotlib.org/</dc:title>
     </cc:Agent>
    </dc:creator>
   </cc:Work>
  </rdf:RDF>
 </metadata>
 <defs>
  <style type="text/css">*{stroke-linecap:butt;stroke-linejoin:round;}</style>
 </defs>
 <g id="figure_1">
  <g id="patch_1">
   <path d="M 0 576 
L 1008 576 
L 1008 0 
L 0 0 
z
"/>
  </g>
  <g id="axes_1">
   <g id="patch_2">
    <path d="M 126 504 
L 907.2 504 
L 907.2 69.12 
L 126 69.12 
z
"/>
   </g>
   <g id="matplotlib.axis_1">
    <g id="xtick_1">
     <g id="line2d_1">
      <defs>
       <path d="M 0 0 
L 0 3.5 
" id="m60d7a95d5d" style="stroke:#ffffff;stroke-width:0.8;"/>
      </defs>
      <g>
       <use style="fill:#ffffff;stroke:#ffffff;stroke-width:0.8;" x="161.509091" xlink:href="#m60d7a95d5d" y="504"/>
      </g>
     </g>
     <g id="text_1">
      <!-- 0 -->
      <g style="fill:#ffffff;" transform="translate(158.327841 518.598438)scale(0.1 -0.1)">
       <defs>
        <path d="M 2034 4250 
Q 1547 4250 1301 3770 
Q 1056 3291 1056 2328 
Q 1056 1369 1301 889 
Q 1547 409 2034 409 
Q 2525 409 2770 889 
Q 3016 1369 3016 2328 
Q 3016 3291 2770 3770 
Q 2525 4250 2034 4250 
z
M 2034 4750 
Q 2819 4750 3233 4129 
Q 3647 3509 3647 2328 
Q 3647 1150 3233 529 
Q 2819 -91 2034 -91 
Q 1250 -91 836 529 
Q 422 1150 422 2328 
Q 422 3509 836 4129 
Q 1250 4750 2034 4750 
z
" id="DejaVuSans-30" transform="scale(0.015625)"/>
       </defs>
       <use xlink:href="#DejaVuSans-30"/>
      </g>
     </g>
    </g>
    <g id="xtick_2">
     <g id="line2d_2">
      <g>
       <use style="fill:#ffffff;stroke:#ffffff;stroke-width:0.8;" x="279.912195" xlink:href="#m60d7a95d5d" y="504"/>
      </g>
     </g>
     <g id="text_2">
      <!-- 500 -->
      <g style="fill:#ffffff;" transform="translate(270.368445 518.598438)scale(0.1 -0.1)">
       <defs>
        <path d="M 691 4666 
L 3169 4666 
L 3169 4134 
L 1269 4134 
L 1269 2991 
Q 1406 3038 1543 3061 
Q 1681 3084 1819 3084 
Q 2600 3084 3056 2656 
Q 3513 2228 3513 1497 
Q 3513 744 3044 326 
Q 2575 -91 1722 -91 
Q 1428 -91 1123 -41 
Q 819 9 494 109 
L 494 744 
Q 775 591 1075 516 
Q 1375 441 1709 441 
Q 2250 441 2565 725 
Q 2881 1009 2881 1497 
Q 2881 1984 2565 2268 
Q 2250 2553 1709 2553 
Q 1456 2553 1204 2497 
Q 953 2441 691 2322 
L 691 4666 
z
" id="DejaVuSans-35" transform="scale(0.015625)"/>
       </defs>
       <use xlink:href="#DejaVuSans-35"/>
       <use x="63.623047" xlink:href="#DejaVuSans-30"/>
       <use x="127.246094" xlink:href="#DejaVuSans-30"/>
      </g>
     </g>
    </g>
    <g id="xtick_3">
     <g id="line2d_3">
      <g>
       <use style="fill:#ffffff;stroke:#ffffff;stroke-width:0.8;" x="398.315299" xlink:href="#m60d7a95d5d" y="504"/>
      </g>
     </g>
     <g id="text_3">
      <!-- 1000 -->
      <g style="fill:#ffffff;" transform="translate(385.590299 518.598438)scale(0.1 -0.1)">
       <defs>
        <path d="M 794 531 
L 1825 531 
L 1825 4091 
L 703 3866 
L 703 4441 
L 1819 4666 
L 2450 4666 
L 2450 531 
L 3481 531 
L 3481 0 
L 794 0 
L 794 531 
z
" id="DejaVuSans-31" transform="scale(0.015625)"/>
       </defs>
       <use xlink:href="#DejaVuSans-31"/>
       <use x="63.623047" xlink:href="#DejaVuSans-30"/>
       <use x="127.246094" xlink:href="#DejaVuSans-30"/>
       <use x="190.869141" xlink:href="#DejaVuSans-30"/>
      </g>
     </g>
    </g>
    <g id="xtick_4">
     <g id="line2d_4">
      <g>
       <use style="fill:#ffffff;stroke:#ffffff;stroke-width:0.8;" x="516.718403" xlink:href="#m60d7a95d5d" y="504"/>
      </g>
     </g>
     <g id="text_4">
      <!-- 1500 -->
      <g style="fill:#ffffff;" transform="translate(503.993403 518.598438)scale(0.1 -0.1)">
       <use xlink:href="#DejaVuSans-31"/>
       <use x="63.623047" xlink:href="#DejaVuSans-35"/>
       <use x="127.246094" xlink:href="#DejaVuSans-30"/>
       <use x="190.869141" xlink:href="#DejaVuSans-30"/>
      </g>
     </g>
    </g>
    <g id="xtick_5">
     <g id="line2d_5">
      <g>
       <use style="fill:#ffffff;stroke:#ffffff;stroke-width:0.8;" x="635.121507" xlink:href="#m60d7a95d5d" y="504"/>
      </g>
     </g>
     <g id="text_5">
      <!-- 2000 -->
      <g style="fill:#ffffff;" transform="translate(622.396507 518.598438)scale(0.1 -0.1)">
       <defs>
        <path d="M 1228 531 
L 3431 531 
L 3431 0 
L 469 0 
L 469 531 
Q 828 903 1448 1529 
Q 2069 2156 2228 2338 
Q 2531 2678 2651 2914 
Q 2772 3150 2772 3378 
Q 2772 3750 2511 3984 
Q 2250 4219 1831 4219 
Q 1534 4219 1204 4116 
Q 875 4013 500 3803 
L 500 4441 
Q 881 4594 1212 4672 
Q 1544 4750 1819 4750 
Q 2544 4750 2975 4387 
Q 3406 4025 3406 3419 
Q 3406 3131 3298 2873 
Q 3191 2616 2906 2266 
Q 2828 2175 2409 1742 
Q 1991 1309 1228 531 
z
" id="DejaVuSans-32" transform="scale(0.015625)"/>
       </defs>
       <use xlink:href="#DejaVuSans-32"/>
       <use x="63.623047" xlink:href="#DejaVuSans-30"/>
       <use x="127.246094" xlink:href="#DejaVuSans-30"/>
       <use x="190.869141" xlink:href="#DejaVuSans-30"/>
      </g>
     </g>
    </g>
    <g id="xtick_6">
     <g id="line2d_6">
      <g>
       <use style="fill:#ffffff;stroke:#ffffff;stroke-width:0.8;" x="753.524611" xlink:href="#m60d7a95d5d" y="504"/>
      </g>
     </g>
     <g id="text_6">
      <!-- 2500 -->
      <g style="fill:#ffffff;" transform="translate(740.799611 518.598438)scale(0.1 -0.1)">
       <use xlink:href="#DejaVuSans-32"/>
       <use x="63.623047" xlink:href="#DejaVuSans-35"/>
       <use x="127.246094" xlink:href="#DejaVuSans-30"/>
       <use x="190.869141" xlink:href="#DejaVuSans-30"/>
      </g>
     </g>
    </g>
    <g id="xtick_7">
     <g id="line2d_7">
      <g>
       <use style="fill:#ffffff;stroke:#ffffff;stroke-width:0.8;" x="871.927715" xlink:href="#m60d7a95d5d" y="504"/>
      </g>
     </g>
     <g id="text_7">
      <!-- 3000 -->
      <g style="fill:#ffffff;" transform="translate(859.202715 518.598438)scale(0.1 -0.1)">
       <defs>
        <path d="M 2597 2516 
Q 3050 2419 3304 2112 
Q 3559 1806 3559 1356 
Q 3559 666 3084 287 
Q 2609 -91 1734 -91 
Q 1441 -91 1130 -33 
Q 819 25 488 141 
L 488 750 
Q 750 597 1062 519 
Q 1375 441 1716 441 
Q 2309 441 2620 675 
Q 2931 909 2931 1356 
Q 2931 1769 2642 2001 
Q 2353 2234 1838 2234 
L 1294 2234 
L 1294 2753 
L 1863 2753 
Q 2328 2753 2575 2939 
Q 2822 3125 2822 3475 
Q 2822 3834 2567 4026 
Q 2313 4219 1838 4219 
Q 1578 4219 1281 4162 
Q 984 4106 628 3988 
L 628 4550 
Q 988 4650 1302 4700 
Q 1616 4750 1894 4750 
Q 2613 4750 3031 4423 
Q 3450 4097 3450 3541 
Q 3450 3153 3228 2886 
Q 3006 2619 2597 2516 
z
" id="DejaVuSans-33" transform="scale(0.015625)"/>
       </defs>
       <use xlink:href="#DejaVuSans-33"/>
       <use x="63.623047" xlink:href="#DejaVuSans-30"/>
       <use x="127.246094" xlink:href="#DejaVuSans-30"/>
       <use x="190.869141" xlink:href="#DejaVuSans-30"/>
      </g>
     </g>
    </g>
    <g id="text_8">
     <!-- iteration -->
     <g style="fill:#ffffff;" transform="translate(495.477344 532.276562)scale(0.1 -0.1)">
      <defs>
       <path d="M 603 3500 
L 1178 3500 
L 1178 0 
L 603 0 
L 603 3500 
z
M 603 4863 
L 1178 4863 
L 1178 4134 
L 603 4134 
L 603 4863 
z
" id="DejaVuSans-69" transform="scale(0.015625)"/>
       <path d="M 1172 4494 
L 1172 3500 
L 2356 3500 
L 2356 3053 
L 1172 3053 
L 1172 1153 
Q 1172 725 1289 603 
Q 1406 481 1766 481 
L 2356 481 
L 2356 0 
L 1766 0 
Q 1100 0 847 248 
Q 594 497 594 1153 
L 594 3053 
L 172 3053 
L 172 3500 
L 594 3500 
L 594 4494 
L 1172 4494 
z
" id="DejaVuSans-74" transform="scale(0.015625)"/>
       <path d="M 3597 1894 
L 3597 1613 
L 953 1613 
Q 991 1019 1311 708 
Q 1631 397 2203 397 
Q 2534 397 2845 478 
Q 3156 559 3463 722 
L 3463 178 
Q 3153 47 2828 -22 
Q 2503 -91 2169 -91 
Q 1331 -91 842 396 
Q 353 884 353 1716 
Q 353 2575 817 3079 
Q 1281 3584 2069 3584 
Q 2775 3584 3186 3129 
Q 3597 2675 3597 1894 
z
M 3022 2063 
Q 3016 2534 2758 2815 
Q 2500 3097 2075 3097 
Q 1594 3097 1305 2825 
Q 1016 2553 972 2059 
L 3022 2063 
z
" id="DejaVuSans-65" transform="scale(0.015625)"/>
       <path d="M 2631 2963 
Q 2534 3019 2420 3045 
Q 2306 3072 2169 3072 
Q 1681 3072 1420 2755 
Q 1159 2438 1159 1844 
L 1159 0 
L 581 0 
L 581 3500 
L 1159 3500 
L 1159 2956 
Q 1341 3275 1631 3429 
Q 1922 3584 2338 3584 
Q 2397 3584 2469 3576 
Q 2541 3569 2628 3553 
L 2631 2963 
z
" id="DejaVuSans-72" transform="scale(0.015625)"/>
       <path d="M 2194 1759 
Q 1497 1759 1228 1600 
Q 959 1441 959 1056 
Q 959 750 1161 570 
Q 1363 391 1709 391 
Q 2188 391 2477 730 
Q 2766 1069 2766 1631 
L 2766 1759 
L 2194 1759 
z
M 3341 1997 
L 3341 0 
L 2766 0 
L 2766 531 
Q 2569 213 2275 61 
Q 1981 -91 1556 -91 
Q 1019 -91 701 211 
Q 384 513 384 1019 
Q 384 1609 779 1909 
Q 1175 2209 1959 2209 
L 2766 2209 
L 2766 2266 
Q 2766 2663 2505 2880 
Q 2244 3097 1772 3097 
Q 1472 3097 1187 3025 
Q 903 2953 641 2809 
L 641 3341 
Q 956 3463 1253 3523 
Q 1550 3584 1831 3584 
Q 2591 3584 2966 3190 
Q 3341 2797 3341 1997 
z
" id="DejaVuSans-61" transform="scale(0.015625)"/>
       <path d="M 1959 3097 
Q 1497 3097 1228 2736 
Q 959 2375 959 1747 
Q 959 1119 1226 758 
Q 1494 397 1959 397 
Q 2419 397 2687 759 
Q 2956 1122 2956 1747 
Q 2956 2369 2687 2733 
Q 2419 3097 1959 3097 
z
M 1959 3584 
Q 2709 3584 3137 3096 
Q 3566 2609 3566 1747 
Q 3566 888 3137 398 
Q 2709 -91 1959 -91 
Q 1206 -91 779 398 
Q 353 888 353 1747 
Q 353 2609 779 3096 
Q 1206 3584 1959 3584 
z
" id="DejaVuSans-6f" transform="scale(0.015625)"/>
       <path d="M 3513 2113 
L 3513 0 
L 2938 0 
L 2938 2094 
Q 2938 2591 2744 2837 
Q 2550 3084 2163 3084 
Q 1697 3084 1428 2787 
Q 1159 2491 1159 1978 
L 1159 0 
L 581 0 
L 581 3500 
L 1159 3500 
L 1159 2956 
Q 1366 3272 1645 3428 
Q 1925 3584 2291 3584 
Q 2894 3584 3203 3211 
Q 3513 2838 3513 2113 
z
" id="DejaVuSans-6e" transform="scale(0.015625)"/>
      </defs>
      <use xlink:href="#DejaVuSans-69"/>
      <use x="27.783203" xlink:href="#DejaVuSans-74"/>
      <use x="66.992188" xlink:href="#DejaVuSans-65"/>
      <use x="128.515625" xlink:href="#DejaVuSans-72"/>
      <use x="169.628906" xlink:href="#DejaVuSans-61"/>
      <use x="230.908203" xlink:href="#DejaVuSans-74"/>
      <use x="270.117188" xlink:href="#DejaVuSans-69"/>
      <use x="297.900391" xlink:href="#DejaVuSans-6f"/>
      <use x="359.082031" xlink:href="#DejaVuSans-6e"/>
     </g>
    </g>
   </g>
   <g id="matplotlib.axis_2">
    <g id="ytick_1">
     <g id="line2d_8">
      <defs>
       <path d="M 0 0 
L -3.5 0 
" id="m365b353832" style="stroke:#ffffff;stroke-width:0.8;"/>
      </defs>
      <g>
       <use style="fill:#ffffff;stroke:#ffffff;stroke-width:0.8;" x="126" xlink:href="#m365b353832" y="484.232727"/>
      </g>
     </g>
     <g id="text_9">
      <!-- 0 -->
      <g style="fill:#ffffff;" transform="translate(112.6375 488.031946)scale(0.1 -0.1)">
       <use xlink:href="#DejaVuSans-30"/>
      </g>
     </g>
    </g>
    <g id="ytick_2">
     <g id="line2d_9">
      <g>
       <use style="fill:#ffffff;stroke:#ffffff;stroke-width:0.8;" x="126" xlink:href="#m365b353832" y="428.276002"/>
      </g>
     </g>
     <g id="text_10">
      <!-- 5000 -->
      <g style="fill:#ffffff;" transform="translate(93.55 432.075221)scale(0.1 -0.1)">
       <use xlink:href="#DejaVuSans-35"/>
       <use x="63.623047" xlink:href="#DejaVuSans-30"/>
       <use x="127.246094" xlink:href="#DejaVuSans-30"/>
       <use x="190.869141" xlink:href="#DejaVuSans-30"/>
      </g>
     </g>
    </g>
    <g id="ytick_3">
     <g id="line2d_10">
      <g>
       <use style="fill:#ffffff;stroke:#ffffff;stroke-width:0.8;" x="126" xlink:href="#m365b353832" y="372.319277"/>
      </g>
     </g>
     <g id="text_11">
      <!-- 10000 -->
      <g style="fill:#ffffff;" transform="translate(87.1875 376.118496)scale(0.1 -0.1)">
       <use xlink:href="#DejaVuSans-31"/>
       <use x="63.623047" xlink:href="#DejaVuSans-30"/>
       <use x="127.246094" xlink:href="#DejaVuSans-30"/>
       <use x="190.869141" xlink:href="#DejaVuSans-30"/>
       <use x="254.492188" xlink:href="#DejaVuSans-30"/>
      </g>
     </g>
    </g>
    <g id="ytick_4">
     <g id="line2d_11">
      <g>
       <use style="fill:#ffffff;stroke:#ffffff;stroke-width:0.8;" x="126" xlink:href="#m365b353832" y="316.362552"/>
      </g>
     </g>
     <g id="text_12">
      <!-- 15000 -->
      <g style="fill:#ffffff;" transform="translate(87.1875 320.161771)scale(0.1 -0.1)">
       <use xlink:href="#DejaVuSans-31"/>
       <use x="63.623047" xlink:href="#DejaVuSans-35"/>
       <use x="127.246094" xlink:href="#DejaVuSans-30"/>
       <use x="190.869141" xlink:href="#DejaVuSans-30"/>
       <use x="254.492188" xlink:href="#DejaVuSans-30"/>
      </g>
     </g>
    </g>
    <g id="ytick_5">
     <g id="line2d_12">
      <g>
       <use style="fill:#ffffff;stroke:#ffffff;stroke-width:0.8;" x="126" xlink:href="#m365b353832" y="260.405827"/>
      </g>
     </g>
     <g id="text_13">
      <!-- 20000 -->
      <g style="fill:#ffffff;" transform="translate(87.1875 264.205046)scale(0.1 -0.1)">
       <use xlink:href="#DejaVuSans-32"/>
       <use x="63.623047" xlink:href="#DejaVuSans-30"/>
       <use x="127.246094" xlink:href="#DejaVuSans-30"/>
       <use x="190.869141" xlink:href="#DejaVuSans-30"/>
       <use x="254.492188" xlink:href="#DejaVuSans-30"/>
      </g>
     </g>
    </g>
    <g id="ytick_6">
     <g id="line2d_13">
      <g>
       <use style="fill:#ffffff;stroke:#ffffff;stroke-width:0.8;" x="126" xlink:href="#m365b353832" y="204.449102"/>
      </g>
     </g>
     <g id="text_14">
      <!-- 25000 -->
      <g style="fill:#ffffff;" transform="translate(87.1875 208.24832)scale(0.1 -0.1)">
       <use xlink:href="#DejaVuSans-32"/>
       <use x="63.623047" xlink:href="#DejaVuSans-35"/>
       <use x="127.246094" xlink:href="#DejaVuSans-30"/>
       <use x="190.869141" xlink:href="#DejaVuSans-30"/>
       <use x="254.492188" xlink:href="#DejaVuSans-30"/>
      </g>
     </g>
    </g>
    <g id="ytick_7">
     <g id="line2d_14">
      <g>
       <use style="fill:#ffffff;stroke:#ffffff;stroke-width:0.8;" x="126" xlink:href="#m365b353832" y="148.492376"/>
      </g>
     </g>
     <g id="text_15">
      <!-- 30000 -->
      <g style="fill:#ffffff;" transform="translate(87.1875 152.291595)scale(0.1 -0.1)">
       <use xlink:href="#DejaVuSans-33"/>
       <use x="63.623047" xlink:href="#DejaVuSans-30"/>
       <use x="127.246094" xlink:href="#DejaVuSans-30"/>
       <use x="190.869141" xlink:href="#DejaVuSans-30"/>
       <use x="254.492188" xlink:href="#DejaVuSans-30"/>
      </g>
     </g>
    </g>
    <g id="ytick_8">
     <g id="line2d_15">
      <g>
       <use style="fill:#ffffff;stroke:#ffffff;stroke-width:0.8;" x="126" xlink:href="#m365b353832" y="92.535651"/>
      </g>
     </g>
     <g id="text_16">
      <!-- 35000 -->
      <g style="fill:#ffffff;" transform="translate(87.1875 96.33487)scale(0.1 -0.1)">
       <use xlink:href="#DejaVuSans-33"/>
       <use x="63.623047" xlink:href="#DejaVuSans-35"/>
       <use x="127.246094" xlink:href="#DejaVuSans-30"/>
       <use x="190.869141" xlink:href="#DejaVuSans-30"/>
       <use x="254.492188" xlink:href="#DejaVuSans-30"/>
      </g>
     </g>
    </g>
   </g>
   <g id="line2d_16">
    <path clip-path="url(#pcaabb1dd9e)" d="M 161.509091 179.693846 
L 161.982703 246.864299 
L 162.21951 270.780204 
L 162.456316 245.733973 
L 162.929928 262.520991 
L 163.166734 261.827128 
L 163.403541 256.041202 
L 163.640347 281.725339 
L 164.350765 325.08061 
L 164.587572 323.457865 
L 164.824378 301.813803 
L 165.061184 301.713081 
L 165.29799 323.357143 
L 165.534796 331.079171 
L 165.771603 305.395034 
L 166.008409 297.471562 
L 166.482021 336.618886 
L 166.718827 328.057508 
L 166.955634 333.843433 
L 167.19244 335.354264 
L 167.666052 319.328258 
L 167.902859 294.21488 
L 168.139665 305.238355 
L 168.376471 303.61561 
L 168.613277 303.716332 
L 168.850083 353.909515 
L 169.323696 336.31672 
L 169.560502 345.258605 
L 169.797308 336.193615 
L 170.034114 313.35208 
L 170.270921 344.251384 
L 170.507727 353.014207 
L 170.744533 330.98964 
L 170.981339 356.103018 
L 171.218145 349.018897 
L 171.454952 328.15823 
L 171.691758 318.869413 
L 171.928564 339.73008 
L 172.402176 297.87445 
L 172.638983 288.820652 
L 173.112595 250.27766 
L 173.586208 276.084901 
L 173.823014 267.019912 
L 174.05982 244.178376 
L 174.533432 305.786731 
L 174.770239 283.762164 
L 175.007045 305.786731 
L 175.243851 305.686009 
L 175.480657 313.296123 
L 175.717463 305.372651 
L 175.95427 314.314536 
L 176.191076 287.365777 
L 176.427882 296.430766 
L 176.664688 321.544145 
L 176.901494 330.597943 
L 177.138301 329.087111 
L 177.375107 356.03587 
L 177.611913 333.194335 
L 177.848719 341.453548 
L 178.085525 362.314215 
L 178.322332 362.414937 
L 178.559138 340.39037 
L 178.795944 349.679186 
L 179.03275 333.809859 
L 179.506363 370.84202 
L 180.216781 297.113438 
L 180.9272 272.022443 
L 181.164006 266.236518 
L 181.400812 249.95311 
L 181.637619 259.006909 
L 182.111231 299.967231 
L 182.584843 313.027531 
L 182.82165 313.228975 
L 183.058456 307.44305 
L 183.295262 288.507294 
L 183.532068 295.591416 
L 183.768874 270.478037 
L 184.005681 276.263963 
L 184.242487 266.975146 
L 184.479293 268.485978 
L 184.716099 273.2423 
L 184.952906 281.165772 
L 185.189712 279.65494 
L 185.663324 321.25317 
L 185.90013 315.467244 
L 186.136937 306.52536 
L 186.373743 279.576601 
L 186.610549 279.475879 
L 186.847355 304.589257 
L 187.084161 282.56469 
L 187.557774 335.958597 
L 187.79458 323.379525 
L 188.031386 301.354958 
L 188.268192 293.63293 
L 188.504999 268.5867 
L 188.978611 283.392849 
L 189.215417 276.275154 
L 189.68903 317.873384 
L 190.162642 263.136515 
L 190.399448 290.924625 
L 190.636255 295.680946 
L 190.873061 272.839411 
L 191.109867 265.117383 
L 191.346673 274.059268 
L 191.583479 250.143363 
L 191.820286 245.387042 
L 192.057092 217.598932 
L 192.293898 236.445157 
L 192.530704 290.488162 
L 192.76751 289.917404 
L 193.004317 294.472281 
L 193.241123 309.367961 
L 193.477929 316.149916 
L 193.714735 316.049194 
L 193.951541 331.918522 
L 194.188348 306.872291 
L 194.425154 297.818493 
L 194.66196 275.793926 
L 194.898766 266.50511 
L 195.135572 287.365777 
L 195.372379 285.854945 
L 195.609185 294.114158 
L 195.845991 294.21488 
L 196.082797 285.149891 
L 196.319604 283.527146 
L 196.55641 264.59139 
L 197.030022 313.18421 
L 197.266828 286.235451 
L 197.503635 271.988869 
L 197.740441 281.277685 
L 197.977247 275.424612 
L 198.214053 300.470842 
L 198.450859 293.688887 
L 198.687666 314.549554 
L 198.924472 312.926809 
L 199.161278 303.637993 
L 199.398084 303.928968 
L 199.63489 298.143042 
L 199.871697 307.084927 
L 200.108503 281.971549 
L 200.345309 281.971549 
L 200.582115 303.996116 
L 200.818921 302.350988 
L 201.055728 341.06185 
L 201.292534 342.830083 
L 201.52934 349.612038 
L 201.766146 349.813482 
L 202.002952 342.539108 
L 202.239759 317.42573 
L 202.713371 334.112025 
L 203.186984 318.265081 
L 203.42379 323.021402 
L 203.660596 297.975172 
L 203.897402 297.87445 
L 204.134208 305.148824 
L 204.371015 332.097583 
L 204.607821 330.474838 
L 204.844627 323.200464 
L 205.081433 348.313842 
L 205.318239 235.505084 
L 205.555046 244.368629 
L 206.028658 285.664693 
L 206.265464 293.588165 
L 206.50227 285.664693 
L 206.739077 262.823157 
L 206.975883 271.765042 
L 207.212689 262.711244 
L 207.686301 259.577667 
L 207.923108 267.83688 
L 208.159914 260.752758 
L 208.633526 304.331856 
L 208.870333 320.201183 
L 209.107139 295.087805 
L 209.343945 285.877328 
L 209.580751 312.826087 
L 209.817557 319.608042 
L 210.054364 298.143042 
L 210.29117 211.029612 
L 210.764782 259.678389 
L 211.238395 308.640524 
L 211.475201 299.698639 
L 211.712007 305.484565 
L 211.948813 297.762536 
L 212.185619 307.051353 
L 212.422426 291.182026 
L 212.659232 300.045571 
L 212.896038 290.756755 
L 213.132844 299.519578 
L 213.606457 259.723155 
L 213.843263 278.658911 
L 214.080069 277.036165 
L 214.316875 285.295378 
L 214.553682 279.509453 
L 214.790488 279.308009 
L 215.2641 229.495332 
L 215.500906 257.283441 
L 215.737713 265.00547 
L 216.211325 249.964302 
L 216.921744 315.747028 
L 217.395356 333.295057 
L 217.868968 315.142695 
L 218.105775 315.34414 
L 218.342581 321.130065 
L 218.579387 295.445928 
L 218.816193 311.315255 
L 219.052999 306.558934 
L 219.289806 306.659656 
L 219.526612 297.896833 
L 220.000224 255.101129 
L 220.237031 236.165373 
L 220.710643 270.33255 
L 220.947449 274.059268 
L 221.184255 299.172646 
L 221.657868 269.985618 
L 221.894674 278.748441 
L 222.13148 271.026413 
L 222.368286 250.165746 
L 222.605093 243.383791 
L 222.841899 264.244458 
L 223.078705 264.143736 
L 223.315511 243.283069 
L 223.789124 286.168303 
L 224.02593 265.307636 
L 224.262736 273.029664 
L 224.499542 254.575136 
L 224.736348 275.435803 
L 224.973155 267.512331 
L 225.209961 300.549181 
L 225.446767 309.759658 
L 225.683573 311.382403 
L 225.92038 290.521736 
L 226.157186 292.032568 
L 226.630798 273.880206 
L 226.867604 248.766828 
L 227.104411 255.548783 
L 227.341217 247.28957 
L 227.578023 255.548783 
L 227.814829 239.679456 
L 228.288442 223.541536 
L 228.525248 241.223861 
L 228.99886 294.125349 
L 229.235666 286.403321 
L 229.472473 307.263988 
L 229.709279 285.239421 
L 229.946085 294.304411 
L 230.182891 266.516301 
L 230.419697 258.257089 
L 230.89331 282.128227 
L 231.366922 230.133238 
L 231.603729 246.002566 
L 231.840535 238.728191 
L 232.077341 263.774422 
L 232.314147 263.572977 
L 232.550953 303.03366 
L 232.78776 304.656405 
L 233.024566 330.340542 
L 233.261372 321.476997 
L 233.498178 293.688887 
L 233.734984 286.414513 
L 234.208597 304.242325 
L 234.445403 279.196095 
L 234.682209 271.272623 
L 234.919015 244.323864 
L 235.155822 235.113387 
L 235.392628 255.974054 
L 235.86624 269.683452 
L 236.103046 269.58273 
L 236.576659 307.096118 
L 237.050271 292.054951 
L 237.287078 299.329325 
L 237.523884 234.318801 
L 237.76069 262.43146 
L 237.997496 262.330738 
L 238.234302 288.014875 
L 238.471109 297.068673 
L 238.707915 318.712734 
L 238.944721 318.813457 
L 239.181527 327.878446 
L 239.418333 349.903013 
L 239.65514 349.802291 
L 240.128752 366.175229 
L 240.365558 367.797974 
L 240.602364 373.583899 
L 240.839171 364.530101 
L 241.075977 362.907356 
L 241.312783 363.008078 
L 241.549589 354.748865 
L 241.786395 333.888198 
L 242.023202 352.342726 
L 242.260008 345.560771 
L 242.496814 364.496527 
L 242.73362 341.654992 
L 242.970427 365.570896 
L 243.444039 312.669408 
L 243.680845 303.380592 
L 243.917651 328.49397 
L 244.391264 288.395381 
L 244.62807 306.849909 
L 244.864876 313.631864 
L 245.101682 313.43042 
L 245.338489 304.219943 
L 245.575295 312.143415 
L 245.812101 328.012742 
L 246.52252 352.756806 
L 246.996132 334.48134 
L 247.232938 335.992171 
L 247.469744 330.206246 
L 247.706551 312.523921 
L 248.180163 296.576254 
L 248.416969 302.362179 
L 248.653776 303.984924 
L 248.890582 313.273741 
L 249.127388 334.917802 
L 249.364194 319.048475 
L 249.601 227.357785 
L 250.311419 299.799361 
L 250.548225 290.734372 
L 250.785031 292.245203 
L 251.021838 310.699731 
L 251.49545 292.704049 
L 251.732256 268.788144 
L 251.969062 268.888866 
L 252.205869 303.761097 
L 252.442675 312.814896 
L 252.679481 331.750651 
L 252.916287 330.23982 
L 253.153093 322.316348 
L 253.3899 329.098303 
L 253.863512 369.152126 
L 254.100318 359.94165 
L 254.337124 339.080982 
L 254.810737 355.946339 
L 255.047543 357.569084 
L 255.757962 301.936908 
L 255.994768 301.735464 
L 256.231574 323.379525 
L 256.46838 318.623204 
L 256.705187 316.59757 
L 256.941993 331.750651 
L 257.178799 331.952096 
L 257.415605 333.462927 
L 257.889218 349.309872 
L 258.126024 358.598688 
L 258.36283 383.644918 
L 258.599636 374.579929 
L 259.073249 327.822489 
L 259.310055 318.958944 
L 259.546861 328.023933 
L 259.783667 318.735117 
L 260.020473 342.651021 
L 260.25728 335.376647 
L 260.494086 344.240192 
L 260.967698 319.317067 
L 261.204505 342.158602 
L 261.441311 337.402281 
L 261.678117 346.691097 
L 261.914923 351.447419 
L 262.151729 351.346697 
L 262.388536 343.423224 
L 262.625342 352.365109 
L 262.862148 369.107361 
L 263.098954 367.59653 
L 263.33576 345.952468 
L 263.572567 351.738394 
L 263.809373 334.996141 
L 264.046179 350.865469 
L 264.282985 188.322373 
L 264.993404 243.036859 
L 265.23021 243.339026 
L 265.467016 249.124951 
L 265.703822 279.475879 
L 265.940629 273.689953 
L 266.177435 297.404413 
L 266.414241 288.496103 
L 266.651047 297.784919 
L 266.887854 272.671541 
L 267.12466 272.570819 
L 267.361466 245.62206 
L 268.071885 308.562184 
L 268.308691 280.774075 
L 268.545497 282.39682 
L 268.782303 289.178775 
L 269.019109 274.171181 
L 269.255916 299.284559 
L 269.492722 290.074082 
L 269.729528 288.451337 
L 270.20314 330.40769 
L 270.676753 306.458212 
L 270.913559 306.659656 
L 271.387171 349.511316 
L 272.09759 304.186369 
L 272.334396 313.128253 
L 272.808009 295.13257 
L 273.044815 270.019192 
L 273.281621 290.879859 
L 273.518427 268.855292 
L 273.99204 322.327539 
L 274.228846 296.643402 
L 274.465652 288.384189 
L 274.702458 296.811272 
L 274.939265 301.265427 
L 275.176071 292.446648 
L 275.412877 299.530769 
L 275.649683 317.213094 
L 276.123296 285.272995 
L 276.360102 310.957132 
L 276.596908 318.67916 
L 276.833714 318.477716 
L 277.07052 324.263642 
L 277.307327 339.271235 
L 277.780939 288.64159 
L 278.017745 288.843035 
L 278.254552 279.554218 
L 278.491358 304.667596 
L 278.728164 283.806929 
L 279.201776 270.097532 
L 279.438583 244.984153 
L 279.675389 236.120608 
L 279.912195 210.436471 
L 280.149001 215.192793 
L 280.385807 193.548732 
L 280.622614 215.573299 
L 280.85942 224.862115 
L 281.096226 241.604367 
L 281.569838 292.043759 
L 282.043451 326.367614 
L 282.280257 317.313816 
L 282.517063 332.32141 
L 282.753869 317.313816 
L 282.990676 324.588191 
L 283.227482 324.487468 
L 283.464288 333.250292 
L 283.701094 314.314536 
L 283.937901 307.040162 
L 284.174707 313.822117 
L 284.648319 264.792834 
L 284.885125 288.708738 
L 285.121932 288.80946 
L 285.358738 283.023535 
L 285.595544 290.107656 
L 285.83235 264.42352 
L 286.069156 272.145548 
L 286.305963 253.69102 
L 286.779575 238.045519 
L 287.016381 304.566874 
L 287.253187 312.490347 
L 287.489994 312.288902 
L 287.7268 313.273741 
L 287.963606 305.708391 
L 288.200412 307.331137 
L 288.674025 373.953214 
L 288.910831 373.751769 
L 289.858056 290.678415 
L 290.094862 345.96366 
L 290.331668 338.241631 
L 290.568474 363.287862 
L 290.805281 372.151407 
L 291.042087 372.050685 
L 291.278893 399.838795 
L 291.515699 378.194733 
L 291.752505 387.40521 
L 292.226118 413.201261 
L 292.69973 364.675588 
L 292.936536 258.783082 
L 293.173343 233.098945 
L 293.883761 302.093587 
L 294.120567 317.962914 
L 294.357374 323.74884 
L 294.59418 315.489627 
L 294.830986 322.764001 
L 295.067792 315.489627 
L 295.304599 330.497221 
L 295.541405 315.489627 
L 295.778211 320.245949 
L 296.015017 320.145227 
L 296.251823 295.098996 
L 296.48863 286.615957 
L 296.725436 264.971896 
L 297.199048 296.721741 
L 297.435854 296.822464 
L 297.672661 304.096838 
L 297.909467 302.586006 
L 298.383079 260.808715 
L 298.619885 255.02279 
L 298.856692 256.533621 
L 299.093498 239.791369 
L 299.330304 261.435431 
L 299.56711 252.493546 
L 299.803916 252.392824 
L 300.040723 252.493546 
L 300.277529 320.525732 
L 300.514335 322.450644 
L 300.751141 340.244882 
L 300.987947 340.244882 
L 301.224754 365.358261 
L 301.46156 356.494715 
L 301.935172 403.218581 
L 302.171979 381.194014 
L 302.408785 374.109892 
L 302.645591 373.304115 
L 302.882397 395.328683 
L 303.119203 372.487147 
L 303.35601 381.350693 
L 303.592816 355.666556 
L 303.829622 374.121084 
L 304.066428 347.172325 
L 304.540041 388.725789 
L 304.776847 395.80991 
L 305.013653 379.067658 
L 305.250459 406.016417 
L 305.487265 380.33228 
L 305.724072 385.088602 
L 305.960878 378.00448 
L 306.197684 403.688617 
L 306.43449 403.789339 
L 306.671296 412.731224 
L 306.908103 404.472011 
L 307.144909 404.673456 
L 307.381715 395.80991 
L 307.618521 370.76368 
L 308.092134 356.03587 
L 308.32894 330.351733 
L 308.565746 339.416723 
L 308.802552 320.480967 
L 309.039359 315.724645 
L 309.276165 324.588191 
L 309.512971 315.299374 
L 309.749777 322.573748 
L 309.986583 322.473026 
L 310.22339 315.198652 
L 310.460196 323.939093 
L 310.697002 349.052471 
L 310.933808 356.136592 
L 311.170614 375.072348 
L 311.407421 375.17307 
L 311.644227 381.955025 
L 312.354645 356.942369 
L 312.591452 379.783904 
L 312.828258 374.512781 
L 313.065064 346.724671 
L 313.30187 337.514194 
L 313.538677 346.724671 
L 313.775483 327.788915 
L 314.012289 318.936561 
L 314.249095 328.001551 
L 314.722708 286.425704 
L 314.959514 294.349176 
L 315.19632 296.061452 
L 315.433126 290.790329 
L 315.669932 303.380592 
L 315.906739 303.380592 
L 316.143545 236.165373 
L 316.380351 257.026041 
L 316.617157 264.110162 
L 316.853963 254.821346 
L 317.327576 212.965715 
L 317.564382 229.707967 
L 317.801188 229.808689 
L 318.037994 239.097506 
L 318.511607 283.079492 
L 318.985219 265.374784 
L 319.458832 334.593253 
L 319.932444 309.412727 
L 320.16925 324.42032 
L 320.406057 315.131504 
L 320.642863 334.06726 
L 320.879669 326.983138 
L 321.353281 287.186715 
L 321.590088 296.397192 
L 321.826894 273.555657 
L 322.0637 278.311979 
L 322.300506 269.246989 
L 322.537312 245.331085 
L 322.774119 268.17262 
L 323.010925 268.071898 
L 323.721343 332.086392 
L 324.194956 321.544145 
L 324.431762 303.86182 
L 324.668568 322.797575 
L 324.905375 329.881697 
L 325.142181 354.995075 
L 325.378987 336.059319 
L 325.615793 334.436574 
L 325.852599 318.567247 
L 326.089406 293.453869 
L 326.326212 295.076614 
L 326.563018 295.177336 
L 326.799824 246.427837 
L 327.03663 301.489254 
L 327.273437 301.489254 
L 327.510243 300.011997 
L 327.747049 322.596131 
L 327.983855 327.352453 
L 328.457468 282.73256 
L 328.694274 276.946635 
L 328.93108 285.205847 
L 329.167886 301.9481 
L 329.641499 285.798989 
L 329.878305 258.010879 
L 330.115111 249.068994 
L 330.351917 271.910529 
L 330.588724 277.696455 
L 330.82553 277.897899 
L 331.535948 204.191701 
L 331.772755 197.890973 
L 332.009561 225.679083 
L 332.246367 227.458507 
L 332.483173 246.394263 
L 332.719979 247.524589 
L 332.956786 256.466473 
L 333.430398 239.533968 
L 333.667204 222.791716 
L 333.90401 231.554539 
L 334.140817 210.693872 
L 334.377623 225.701466 
L 334.614429 232.785587 
L 334.851235 259.734346 
L 335.088041 253.948421 
L 335.324848 261.670449 
L 335.561654 252.728564 
L 335.79846 224.940454 
L 336.035266 245.801121 
L 336.272073 230.793528 
L 336.508879 231.599305 
L 336.982491 193.056312 
L 337.456104 211.130335 
L 337.69291 232.774396 
L 337.929716 225.052368 
L 338.403328 184.472551 
L 338.640135 212.26066 
L 338.876941 318.276272 
L 339.113747 310.744497 
L 339.350553 311.572656 
L 339.587359 320.335479 
L 339.824166 312.076267 
L 340.297778 346.702288 
L 340.534584 371.748519 
L 340.77139 377.993289 
L 341.008197 370.718915 
L 341.245003 347.116368 
L 341.718615 328.852093 
L 341.955422 329.053537 
L 342.192228 338.107335 
L 342.429034 313.061105 
L 342.66584 341.419973 
L 342.902646 334.638018 
L 343.376259 290.264335 
L 343.849871 308.237635 
L 344.086677 300.515607 
L 344.323484 308.77482 
L 344.56029 300.515607 
L 344.797096 278.49104 
L 345.033902 269.627495 
L 345.270708 276.901869 
L 345.507515 260.159617 
L 345.744321 235.046239 
L 345.981127 262.834349 
L 346.217933 271.093561 
L 346.454739 360.355729 
L 346.691546 364.116021 
L 346.928352 347.373769 
L 347.165158 340.289648 
L 347.401964 355.297241 
L 347.63877 346.433696 
L 347.875577 324.409129 
L 348.349189 340.256074 
L 348.585995 331.202275 
L 348.822802 353.226842 
L 349.059608 362.280641 
L 349.296414 353.215651 
L 349.53322 351.592906 
L 349.770026 360.657896 
L 350.006833 354.87197 
L 350.243639 354.771248 
L 350.480445 371.5135 
L 350.717251 379.772713 
L 351.901282 280.885988 
L 352.374895 296.531489 
L 352.611701 269.58273 
L 352.848507 264.826408 
L 353.085313 270.612333 
L 353.322119 263.528212 
L 353.795732 299.665065 
L 354.032538 292.110907 
L 354.269344 301.175897 
L 354.506151 328.964006 
L 354.979763 346.937307 
L 355.216569 339.215279 
L 355.453375 364.899415 
L 355.690182 355.834426 
L 355.926988 363.556454 
L 356.637406 302.03763 
L 356.874213 318.779882 
L 357.111019 260.719184 
L 357.347825 286.403321 
L 357.584631 294.125349 
L 358.058244 332.836212 
L 358.29505 324.91274 
L 358.531856 304.052072 
L 358.768662 326.076639 
L 359.005468 331.862565 
L 359.242275 322.652088 
L 359.479081 331.940904 
L 359.715887 331.73946 
L 359.952693 330.116715 
L 360.1895 322.394687 
L 360.426306 297.281309 
L 360.899918 281.714148 
L 361.136724 288.496103 
L 361.373531 272.626776 
L 361.610337 282.73256 
L 362.083949 312.121032 
L 362.320755 306.335107 
L 362.557562 284.691045 
L 362.794368 276.319919 
L 363.031174 284.041947 
L 363.26798 261.200412 
L 363.504786 279.498261 
L 363.741593 285.910902 
L 363.978399 258.962143 
L 364.215205 272.559627 
L 364.688817 321.58891 
L 364.925624 299.944849 
L 365.636042 362.884973 
L 365.872849 353.831175 
L 366.109655 332.187114 
L 366.583267 320.156418 
L 366.820073 303.682758 
L 367.05688 311.941971 
L 367.293686 304.857849 
L 367.767298 321.074108 
L 368.004104 313.799734 
L 368.240911 313.699012 
L 368.477717 212.932141 
L 368.714523 220.710126 
L 368.951329 213.435752 
L 369.424942 259.678389 
L 369.661748 267.400417 
L 369.898554 269.023162 
L 370.13536 250.568634 
L 370.372166 258.827847 
L 370.608973 237.183786 
L 371.082585 220.206515 
L 371.319391 245.252746 
L 371.556198 243.741914 
L 371.793004 252.952391 
L 372.02981 251.329646 
L 372.266616 226.283416 
L 372.503422 274.227138 
L 373.213841 298.277338 
L 373.687453 281.15458 
L 373.92426 292.827153 
L 374.161066 316.743058 
L 374.397872 293.901522 
L 374.634678 246.259967 
L 374.871484 229.517714 
L 375.108291 257.305824 
L 375.345097 257.507268 
L 375.581903 262.26359 
L 375.818709 281.199346 
L 376.292322 264.602581 
L 376.765934 302.11597 
L 377.00274 302.317414 
L 377.239547 302.216692 
L 377.476353 303.839437 
L 377.713159 299.195029 
L 377.949965 301.903334 
L 378.186771 294.069393 
L 378.423578 321.018151 
L 378.660384 316.26183 
L 378.89719 333.004082 
L 379.133996 307.890704 
L 379.370802 312.647025 
L 379.607609 335.488561 
L 379.844415 344.699038 
L 380.554833 320.212375 
L 380.79164 314.426449 
L 381.028446 287.47769 
L 381.265252 285.194656 
L 381.502058 310.308034 
L 381.738864 319.070857 
L 382.212477 286.459278 
L 382.686089 311.617422 
L 382.922896 319.876634 
L 383.159702 304.869041 
L 383.396508 313.922839 
L 383.87012 271.41811 
L 384.343733 311.997927 
L 384.817345 272.671541 
L 385.054151 265.889586 
L 385.290958 275.211976 
L 385.527764 292.894301 
L 385.76457 272.033634 
L 386.238182 288.372998 
L 386.948601 351.022148 
L 387.185407 352.644893 
L 387.422213 361.586777 
L 387.65902 234.72169 
L 387.895826 259.510519 
L 388.132632 242.768267 
L 388.369438 251.02748 
L 388.606245 249.516648 
L 388.843051 236.736132 
L 389.079857 258.760699 
L 389.316663 254.463223 
L 389.553469 246.53975 
L 389.790276 255.481635 
L 390.027082 233.457068 
L 390.263888 233.55779 
L 390.500694 258.60402 
L 390.7375 251.329646 
L 391.211113 269.828939 
L 391.447919 260.618462 
L 391.684725 279.554218 
L 392.158338 263.069367 
L 392.395144 290.857477 
L 392.868756 303.727523 
L 393.105562 312.792513 
L 393.342369 295.110188 
L 393.579175 310.397565 
L 393.815981 317.481686 
L 394.052787 335.936214 
L 394.289594 344.195427 
L 394.5264 371.144186 
L 395.236818 347.978102 
L 395.473625 347.776657 
L 395.710431 347.978102 
L 395.947237 340.703727 
L 396.184043 315.590349 
L 396.657656 329.288555 
L 397.131268 345.1355 
L 397.60488 328.650649 
L 397.841687 302.966512 
L 398.078493 321.902268 
L 398.315299 306.03294 
L 398.552105 329.948845 
L 398.788911 329.848123 
L 399.49933 265.095 
L 399.736136 281.143389 
L 399.972942 254.19463 
L 400.209749 264.289223 
L 400.683361 251.419177 
L 400.920167 276.532555 
L 401.156974 249.583796 
L 401.630586 233.736852 
L 401.867392 250.479104 
L 402.104198 243.394982 
L 402.341005 251.11701 
L 402.577811 285.888519 
L 402.814617 271.518832 
L 403.051423 307.678068 
L 403.525036 320.660028 
L 403.761842 293.71127 
L 403.998648 284.422453 
L 404.235454 306.066515 
L 404.47226 298.143042 
L 404.709067 296.520297 
L 404.945873 287.30982 
L 405.182679 287.511264 
L 405.656291 326.33404 
L 405.893098 338.913112 
L 406.36671 312.77013 
L 406.603516 337.81636 
L 406.840323 316.955693 
L 407.077129 326.020683 
L 407.313935 326.121405 
L 407.550741 341.128999 
L 407.787547 332.265453 
L 408.024354 309.423918 
L 408.497966 296.744124 
L 408.734772 304.018498 
L 409.208385 286.011624 
L 409.445191 301.880951 
L 409.681997 309.804424 
L 409.918803 300.593947 
L 410.155609 284.72462 
L 410.392416 284.623897 
L 410.629222 293.487443 
L 410.866028 314.34811 
L 411.102834 318.522482 
L 411.33964 318.522482 
L 411.576447 292.838345 
L 411.813253 301.780229 
L 412.050059 292.726431 
L 412.523672 318.556056 
L 412.760478 327.766533 
L 413.23409 279.117756 
L 413.470896 270.25421 
L 413.707703 295.938347 
L 413.944509 277.002591 
L 414.181315 240.765016 
L 414.418121 248.196069 
L 414.654927 265.878394 
L 414.891734 256.589578 
L 415.12854 264.848791 
L 415.365346 255.985245 
L 415.602152 272.727498 
L 416.312571 217.688463 
L 416.549377 203.609751 
L 416.786183 203.710473 
L 417.022989 197.185919 
L 417.496602 213.637196 
L 417.733408 239.321333 
L 417.970214 240.832164 
L 418.207021 261.692831 
L 418.443827 237.776927 
L 418.680633 252.784521 
L 418.917439 248.028199 
L 419.154245 233.020605 
L 419.391052 240.29498 
L 419.627858 241.100757 
L 419.864664 249.986685 
L 420.10147 232.304359 
L 420.338276 230.681614 
L 420.811889 246.192819 
L 421.048695 244.570074 
L 421.285501 269.683452 
L 421.522307 308.204061 
L 421.759114 310.789262 
L 421.99592 288.764695 
L 422.469532 325.494689 
L 422.706338 307.812364 
L 422.943145 333.496501 
L 423.179951 310.654966 
L 423.416757 319.719955 
L 423.653563 319.518511 
L 424.127176 360.042372 
L 424.363982 351.279548 
L 424.600788 356.03587 
L 425.074401 314.079518 
L 425.548013 330.665091 
L 425.784819 352.689658 
L 426.021625 343.624668 
L 426.258432 343.624668 
L 426.495238 334.761123 
L 426.732044 332.869786 
L 426.96885 337.81636 
L 427.205656 334.626827 
L 427.442463 353.562583 
L 427.679269 362.627572 
L 428.152881 324.08458 
L 428.389687 324.286024 
L 428.626494 235.919164 
L 428.8633 245.129641 
L 429.100106 246.752386 
L 429.573719 278.647719 
L 429.810525 278.849163 
L 430.284137 247.099318 
L 430.520943 220.150559 
L 430.75775 220.150559 
L 430.994556 224.90688 
L 431.231362 241.649132 
L 431.704974 223.373666 
L 431.941781 280.89718 
L 432.178587 282.878048 
L 432.415393 257.227485 
L 432.652199 257.428929 
L 432.889005 249.505457 
L 433.125812 258.447341 
L 433.362618 286.235451 
L 433.83623 270.25421 
L 434.073036 294.170115 
L 434.309843 266.382005 
L 434.546649 272.16793 
L 434.783455 253.713402 
L 435.020261 244.648413 
L 435.257068 267.489948 
L 435.73068 250.244085 
L 435.967486 269.079119 
L 436.441099 286.213068 
L 436.677905 280.427143 
L 436.914711 301.28781 
L 437.151517 293.364338 
L 437.388323 268.25096 
L 437.62513 260.528932 
L 437.861936 269.593921 
L 438.098742 294.707299 
L 438.335548 273.846632 
L 438.572354 282.105845 
L 439.045967 328.796136 
L 439.282773 328.594692 
L 439.519579 312.725365 
L 439.756385 340.513475 
L 439.993192 332.254262 
L 440.229998 340.177734 
L 440.466804 341.800479 
L 440.70361 340.177734 
L 441.177223 355.174137 
L 441.414029 356.796882 
L 441.887641 308.909116 
L 442.124448 310.419948 
L 442.361254 308.909116 
L 442.834866 264.859982 
L 443.545285 307.924278 
L 444.018897 292.077333 
L 444.255703 301.142323 
L 444.729316 284.165052 
L 444.966122 293.028598 
L 445.202928 318.141976 
L 445.439734 326.904799 
L 445.676541 327.106243 
L 445.913347 309.423918 
L 446.150153 307.801173 
L 446.623765 264.949513 
L 447.097378 249.102568 
L 447.334184 268.665039 
L 447.57099 275.939414 
L 447.807797 300.269398 
L 448.044603 306.055323 
L 448.281409 306.256767 
L 448.518215 307.879512 
L 448.755021 298.937628 
L 448.991828 282.016314 
L 449.228634 289.939786 
L 449.46544 268.295725 
L 449.702246 259.43218 
L 449.939052 236.590645 
L 450.175859 245.45419 
L 450.412665 224.593523 
L 450.649471 222.511932 
L 450.886277 222.612655 
L 451.123083 194.824545 
L 451.35989 187.550171 
L 451.596696 210.391706 
L 451.833502 201.102889 
L 452.070308 221.963557 
L 452.307114 216.177631 
L 452.543921 215.976187 
L 452.780727 217.184852 
L 453.491146 263.953483 
L 453.727952 254.743006 
L 453.964758 270.612333 
L 454.201564 247.770798 
L 454.43837 275.558908 
L 454.911983 259.711963 
L 455.148789 268.41883 
L 455.385595 294.102967 
L 455.622401 266.314857 
L 455.859208 284.612706 
L 456.33282 302.765068 
L 456.569626 284.31054 
L 456.806432 282.799708 
L 457.043239 282.799708 
L 457.280045 280.393569 
L 457.516851 258.369002 
L 457.753657 258.872612 
L 457.990463 250.009067 
L 458.22727 268.944823 
L 458.464076 277.204036 
L 459.648107 234.542628 
L 460.121719 260.226765 
L 460.358526 269.280563 
L 460.595332 261.021351 
L 460.832138 283.045918 
L 461.068944 291.30513 
L 461.30575 282.542307 
L 461.779363 230.547318 
L 462.252975 273.052047 
L 462.726588 262.5098 
L 462.963394 250.512678 
L 463.2002 259.275501 
L 463.437006 259.174779 
L 463.673812 259.376223 
L 463.910619 286.324982 
L 464.147425 262.409078 
L 464.384231 280.091403 
L 464.621037 287.175524 
L 464.857844 262.062146 
L 465.09465 271.239049 
L 465.331456 261.950232 
L 465.568262 245.20798 
L 465.805068 237.284508 
L 466.041875 210.436471 
L 466.515487 254.02676 
L 466.989099 238.896062 
L 467.225906 216.054526 
L 467.462712 223.977999 
L 467.699518 249.662136 
L 467.936324 240.608337 
L 468.409937 251.150584 
L 468.646743 275.066489 
L 468.883549 266.807276 
L 469.120355 285.743032 
L 469.357161 264.098971 
L 469.593968 289.212349 
L 469.830774 298.422826 
L 470.541193 223.709406 
L 470.777999 240.451659 
L 471.014805 285.910902 
L 471.251611 307.935469 
L 471.488417 312.691791 
L 471.725224 311.180959 
L 471.96203 327.923211 
L 472.198836 329.434043 
L 472.672448 284.903681 
L 473.146061 303.179147 
L 473.382867 298.422826 
L 473.856479 281.859635 
L 474.093286 260.998968 
L 474.330092 268.273342 
L 474.566898 249.818814 
L 474.803704 265.688142 
L 475.04051 244.04408 
L 475.277317 264.904747 
L 475.514123 255.850949 
L 475.750929 257.473694 
L 475.987735 231.789558 
L 476.224542 225.007602 
L 476.461348 208.948022 
L 476.698154 202.703252 
L 477.171766 251.228924 
L 477.408573 242.466101 
L 477.645379 270.25421 
L 477.882185 275.010532 
L 478.118991 283.874077 
L 478.355797 305.518139 
L 478.592604 313.240167 
L 478.82941 287.55603 
L 479.303022 271.574789 
L 479.539828 280.628587 
L 479.776635 259.76792 
L 480.013441 265.553845 
L 480.250247 265.352401 
L 480.487053 282.094653 
L 480.723859 280.583822 
L 480.960666 287.130759 
L 481.197472 287.130759 
L 481.434278 286.324982 
L 481.671084 295.266867 
L 481.907891 295.468311 
L 482.618309 272.716306 
L 483.091922 314.471215 
L 483.328728 312.84847 
L 483.80234 329.512382 
L 484.039146 307.487815 
L 484.512759 293.12932 
L 484.749565 318.813457 
L 485.223177 335.801918 
L 485.459984 326.736929 
L 485.69679 303.895394 
L 485.933596 295.636181 
L 486.170402 314.090709 
L 486.407208 315.120313 
L 486.644015 288.171554 
L 486.880821 282.385628 
L 487.117627 310.173738 
L 487.354433 292.491413 
L 487.59124 301.545211 
L 487.828046 301.645933 
L 488.064852 285.776606 
L 488.301658 297.12463 
L 488.538464 297.12463 
L 488.775271 272.011252 
L 489.012077 287.880579 
L 489.248883 294.9647 
L 489.485689 272.940133 
L 489.722495 263.729656 
L 489.959302 281.411981 
L 490.196108 281.411981 
L 490.432914 308.36074 
L 490.66972 300.638712 
L 490.906526 305.395034 
L 491.143333 314.605511 
L 491.380139 305.842688 
L 491.616945 311.628613 
L 491.853751 289.984552 
L 492.090557 311.628613 
L 492.327364 302.339797 
L 492.56417 303.850628 
L 492.800976 287.981301 
L 493.037782 261.032542 
L 493.274588 270.321358 
L 493.511395 248.677297 
L 493.748201 242.891372 
L 494.221813 298.79214 
L 494.45862 292.211629 
L 494.695426 299.441238 
L 494.932232 217.263192 
L 495.169038 215.640447 
L 495.405844 236.501114 
L 495.642651 236.501114 
L 495.879457 217.565358 
L 496.116263 226.428903 
L 496.353069 226.630347 
L 496.589875 235.919164 
L 496.826682 227.659951 
L 497.063488 236.870428 
L 497.300294 258.894995 
L 497.5371 236.05346 
L 498.484325 261.961424 
L 498.721131 236.915194 
L 498.957937 232.158872 
L 499.194744 266.035073 
L 499.43155 256.824596 
L 499.668356 281.870827 
L 499.905162 256.824596 
L 500.141969 279.666132 
L 500.378775 270.377315 
L 500.615581 298.232573 
L 500.852387 305.014528 
L 501.089193 279.90115 
L 501.562806 261.827128 
L 501.799612 279.509453 
L 502.036418 279.308009 
L 502.273224 279.308009 
L 502.510031 287.030037 
L 502.746837 286.526426 
L 502.983643 287.030037 
L 503.220449 287.231481 
L 503.457255 279.308009 
L 503.694062 294.315602 
L 503.930868 294.21488 
L 504.40448 276.062518 
L 504.641286 257.93254 
L 504.878093 276.65566 
L 505.114899 283.930034 
L 505.588511 245.163215 
L 506.062124 292.234012 
L 506.29893 292.13329 
L 506.535736 284.858916 
L 506.772542 292.580944 
L 507.009349 293.386721 
L 507.956573 263.214854 
L 508.19338 294.573003 
L 508.430186 294.673725 
L 508.666992 276.219197 
L 508.903798 284.14267 
L 509.140604 256.35456 
L 509.377411 265.408358 
L 509.614217 265.408358 
L 510.087829 282.855665 
L 510.324635 278.893929 
L 510.561442 294.763256 
L 510.798248 320.447393 
L 511.035054 295.401163 
L 511.508667 305.94341 
L 511.745473 290.074082 
L 511.982279 290.566502 
L 512.219085 292.043759 
L 512.455891 306.603699 
L 512.692698 306.805143 
L 512.929504 306.603699 
L 513.16631 299.519578 
L 513.639922 254.653475 
L 514.113535 280.248082 
L 514.587147 283.090683 
L 514.823953 286.56 
L 515.06076 264.535433 
L 515.534372 298.859288 
L 515.771178 324.543425 
L 516.007984 317.459304 
L 516.244791 335.141629 
L 516.481597 336.764374 
L 516.718403 335.141629 
L 516.955209 341.923584 
L 517.192016 336.137659 
L 517.428822 327.195774 
L 517.665628 332.981699 
L 518.13924 288.843035 
L 518.849659 315.09793 
L 519.086465 316.720675 
L 519.560078 300.649904 
L 519.796884 272.861794 
L 520.03369 264.602581 
L 520.270496 292.390691 
L 520.744109 309.412727 
L 520.980915 281.624617 
L 521.217721 305.014528 
L 521.454527 310.800453 
L 521.691333 235.672954 
L 521.92814 261.536153 
L 522.164946 252.672607 
L 522.401752 251.049862 
L 522.875365 265.900777 
L 523.348977 250.826035 
L 523.585783 233.14371 
L 523.822589 255.906906 
L 524.059396 264.770451 
L 524.296202 264.871173 
L 524.533008 274.15999 
L 524.769814 274.361434 
L 525.243427 325.091801 
L 525.717039 284.433645 
L 525.953845 308.349549 
L 526.190651 308.148105 
L 526.427458 316.407317 
L 526.664264 308.483845 
L 526.90107 315.2658 
L 527.137876 294.405133 
L 527.374682 292.894301 
L 527.611489 314.918868 
L 528.085101 281.456747 
L 528.321907 259.43218 
L 528.558714 259.43218 
L 528.79552 251.172967 
L 529.032326 288.507294 
L 529.505938 247.065743 
L 529.742745 230.89425 
L 529.979551 247.065743 
L 530.216357 245.442998 
L 530.453163 237.519526 
L 530.689969 239.142271 
L 530.926776 237.519526 
L 531.163582 296.609828 
L 531.400388 277.674072 
L 531.637194 292.681666 
L 531.874 294.304411 
L 532.110807 287.030037 
L 532.347613 313.978795 
L 533.058031 342.125028 
L 533.294838 351.413845 
L 533.531644 342.125028 
L 533.76845 323.6705 
L 534.005256 323.469056 
L 534.242063 323.6705 
L 534.715675 287.052419 
L 534.952481 304.734744 
L 535.189287 304.734744 
L 535.426094 295.680946 
L 535.899706 312.669408 
L 536.136512 284.881298 
L 536.373318 275.670821 
L 536.610125 257.988496 
L 536.846931 267.198973 
L 537.083737 250.456721 
L 537.320543 225.343343 
L 537.557349 355.017458 
L 537.794156 328.068699 
L 538.030962 342.22575 
L 538.267768 369.174509 
L 538.504574 367.551764 
L 538.74138 340.603005 
L 539.688605 302.03763 
L 539.925412 309.961103 
L 540.162218 301.735464 
L 540.399024 325.024653 
L 540.63583 317.940532 
L 540.872636 326.804077 
L 541.109443 326.703355 
L 541.346249 332.948125 
L 541.583055 342.158602 
L 541.819861 333.104804 
L 542.056667 342.158602 
L 542.767086 265.397167 
L 543.003892 265.397167 
L 543.240698 293.185276 
L 543.951117 238.123859 
L 544.187923 221.381607 
L 544.424729 221.381607 
L 544.661536 248.330365 
L 544.898342 248.330365 
L 545.135148 246.70762 
L 545.371954 297.807302 
L 545.60876 279.543027 
L 545.845567 310.85641 
L 546.319179 265.990308 
L 546.555985 291.103686 
L 546.792792 292.726431 
L 547.029598 292.524987 
L 547.50321 289.212349 
L 547.740016 310.073016 
L 548.213629 292.524987 
L 548.450435 301.28781 
L 548.687241 326.33404 
L 549.160854 292.871919 
L 549.39766 243.562852 
L 549.634466 252.504737 
L 549.871272 230.48017 
L 550.108078 221.426372 
L 550.344885 229.349844 
L 550.581691 227.06681 
L 550.818497 204.225275 
L 551.292109 292.54737 
L 551.528916 267.433991 
L 551.765722 258.570446 
L 552.002528 260.081278 
L 552.239334 269.291755 
L 552.476141 250.355999 
L 552.712947 243.081625 
L 553.186559 286.649531 
L 553.423365 258.861421 
L 554.133784 309.35677 
L 554.37059 337.14488 
L 554.607396 336.943435 
L 554.844203 329.221407 
L 555.081009 338.510224 
L 555.317815 338.610946 
L 555.554621 310.822836 
L 555.791427 325.83043 
L 556.26504 301.198279 
L 556.501846 302.821024 
L 556.738652 294.561812 
L 556.975458 276.107284 
L 557.212265 267.83688 
L 557.449071 284.579132 
L 557.685877 267.83688 
L 557.922683 273.622805 
L 558.15949 272.111974 
L 558.396296 272.111974 
L 558.633102 280.035446 
L 558.869908 278.099343 
L 559.106714 277.998621 
L 559.343521 261.939041 
L 559.580327 262.140485 
L 559.817133 262.140485 
L 560.053939 271.350962 
L 560.290745 266.594641 
L 560.527552 264.188501 
L 560.764358 265.699333 
L 561.23797 249.751666 
L 561.474776 258.514489 
L 561.948389 240.171875 
L 562.185195 240.171875 
L 562.422001 257.8542 
L 562.658807 249.091377 
L 562.895614 271.115944 
L 563.13242 278.837972 
L 563.369226 260.383444 
L 563.606032 270.108723 
L 563.842839 286.850975 
L 564.079645 278.927503 
L 564.316451 286.850975 
L 564.553257 303.212722 
L 564.790063 303.212722 
L 565.263676 337.536577 
L 565.500482 329.814549 
L 565.737288 279.050608 
L 565.974094 299.071924 
L 566.210901 305.853879 
L 566.447707 296.990334 
L 566.684513 296.990334 
L 566.921319 295.367589 
L 567.158125 304.309473 
L 567.394932 322.764001 
L 568.10535 255.649505 
L 568.342156 260.405827 
L 568.578963 243.663575 
L 568.815769 234.900751 
L 569.052575 252.583077 
L 569.289381 252.583077 
L 569.526188 271.518832 
L 569.762994 280.807649 
L 569.9998 280.706927 
L 570.236606 271.641937 
L 570.473412 278.916311 
L 570.710219 258.055644 
L 570.947025 258.055644 
L 571.183831 250.333616 
L 571.420637 232.651291 
L 571.657443 241.514836 
L 571.89425 223.060308 
L 572.131056 213.849831 
L 572.367862 211.947303 
L 572.604668 232.953457 
L 572.841474 242.007256 
L 573.078281 234.934325 
L 573.315087 243.999315 
L 573.551893 218.953085 
L 573.788699 218.953085 
L 574.025505 240.977652 
L 574.499118 257.663947 
L 574.97273 233.031797 
L 575.446343 233.132519 
L 575.683149 252.258528 
L 575.919955 229.416992 
L 576.156761 229.416992 
L 576.393568 221.49352 
L 576.630374 227.279445 
L 577.103986 247.155274 
L 577.340792 238.291729 
L 577.577599 238.101476 
L 577.814405 259.745537 
L 578.051211 250.456721 
L 578.288017 266.326048 
L 578.524823 264.703303 
L 578.76163 247.020978 
L 578.998436 247.020978 
L 579.235242 255.962863 
L 579.708854 290.38744 
L 579.945661 269.526773 
L 580.182467 260.663228 
L 580.419273 260.663228 
L 580.656079 259.152396 
L 580.892886 237.508335 
L 581.366498 286.101155 
L 581.603304 260.987777 
L 581.84011 252.045892 
L 582.076917 276.969017 
L 582.313723 278.479849 
L 582.550529 287.533647 
L 582.787335 262.487417 
L 583.024141 262.487417 
L 583.260948 264.110162 
L 583.497754 271.83219 
L 583.73456 289.066861 
L 583.971366 289.167584 
L 584.208172 297.426796 
L 584.444979 324.375555 
L 584.681785 244.29029 
L 584.918591 262.744818 
L 585.155397 262.744818 
L 585.392203 263.192472 
L 585.865816 295.759286 
L 586.102622 288.037258 
L 586.339428 266.012691 
L 586.576235 266.012691 
L 586.813041 258.928569 
L 587.049847 265.565037 
L 587.523459 227.178723 
L 587.760266 227.178723 
L 587.997072 225.197855 
L 588.470684 225.197855 
L 588.70749 224.40327 
L 588.944297 224.604714 
L 589.181103 223.093882 
L 589.417909 223.093882 
L 589.654715 242.029638 
L 589.891521 241.828194 
L 590.128328 237.955989 
L 590.365134 237.955989 
L 590.60194 220.273663 
L 591.549165 276.118475 
L 591.785971 276.219197 
L 592.022777 251.172967 
L 592.259583 244.088846 
L 592.49639 244.088846 
L 592.970002 293.106937 
L 593.206808 302.160735 
L 593.443615 293.106937 
L 593.917227 308.450271 
L 594.154033 286.80621 
L 594.627646 271.272623 
L 594.864452 271.272623 
L 595.101258 261.827128 
L 595.338064 274.876236 
L 595.57487 279.632558 
L 595.811677 304.678788 
L 596.048483 297.404413 
L 596.522095 251.497516 
L 596.758901 251.497516 
L 596.995708 267.66901 
L 597.232514 274.417391 
L 597.46932 303.682758 
L 597.706126 271.306197 
L 597.942932 280.595013 
L 598.179739 273.510892 
L 598.653351 273.611614 
L 598.890157 263.293194 
L 599.126964 278.300787 
L 599.36377 256.656726 
L 599.600576 264.266841 
L 600.074188 249.460691 
L 600.310995 227.436124 
L 600.547801 236.646601 
L 600.784607 236.445157 
L 601.021413 245.733973 
L 601.495026 245.733973 
L 601.731832 266.023882 
L 601.968638 272.805837 
L 602.205444 245.857078 
L 602.44225 236.568262 
L 602.679057 218.113734 
L 602.915863 218.113734 
L 603.626281 266.874424 
L 603.863088 250.132172 
L 604.3367 250.132172 
L 604.573506 272.973707 
L 604.810313 267.187782 
L 605.047119 267.389226 
L 605.283925 284.131478 
L 605.520731 288.8878 
L 605.757537 284.131478 
L 605.994344 275.07768 
L 606.23115 275.07768 
L 606.467956 273.454935 
L 606.704762 282.743751 
L 606.941568 284.366496 
L 607.178375 284.366496 
L 607.415181 262.341929 
L 607.651987 255.559974 
L 607.888793 261.3459 
L 608.125599 253.120261 
L 608.362406 238.258155 
L 608.599212 236.63541 
L 608.836018 244.894623 
L 609.072824 266.538684 
L 609.30963 259.756729 
L 609.546437 243.014477 
L 609.783243 243.014477 
L 610.020049 234.64335 
L 610.256855 234.64335 
L 610.493662 225.365725 
L 610.730468 232.6401 
L 610.967274 225.858145 
L 611.20408 227.458507 
L 611.440886 227.458507 
L 611.677693 212.227086 
L 611.914499 236.142991 
L 612.151305 228.219518 
L 612.388111 228.219518 
L 612.624917 219.16572 
L 612.861724 223.922042 
L 613.09853 223.922042 
L 613.335336 214.980157 
L 613.572142 214.980157 
L 613.808948 205.76968 
L 614.282561 205.76968 
L 614.519367 188.087355 
L 614.756173 179.22381 
L 614.992979 179.22381 
L 615.466592 224.783776 
L 615.703398 215.494959 
L 615.940204 223.418431 
L 616.177011 223.216987 
L 616.413817 223.216987 
L 616.650623 238.224581 
L 616.887429 214.308677 
L 617.124235 214.308677 
L 617.361042 223.519154 
L 617.597848 214.308677 
L 617.834654 214.308677 
L 618.308266 232.461038 
L 618.545073 223.597493 
L 618.781879 223.597493 
L 619.018685 219.210486 
L 619.96591 219.210486 
L 620.202716 197.185919 
L 620.439522 197.185919 
L 620.676328 187.897102 
L 621.386747 187.897102 
L 621.623553 186.419845 
L 622.097166 186.419845 
L 622.333972 228.197136 
L 622.570778 229.707967 
L 623.044391 229.707967 
L 623.281197 238.649852 
L 623.754809 238.649852 
L 623.991615 247.714841 
L 624.228422 240.440467 
L 624.465228 215.394237 
L 624.93884 197.320215 
L 625.175646 178.865687 
L 625.886065 178.865687 
L 626.122871 171.781565 
L 627.070096 171.781565 
L 627.306902 146.097429 
L 627.780515 146.097429 
L 628.017321 153.338229 
L 628.254127 132.477562 
L 628.72774 132.477562 
L 628.964546 140.736774 
L 629.201352 131.873229 
L 629.438158 133.495974 
L 629.674964 157.411878 
L 630.148577 157.411878 
L 630.622189 174.187705 
L 630.858995 197.02924 
L 631.095802 196.928518 
L 631.332608 188.669305 
L 631.569414 188.669305 
L 631.80622 179.615507 
L 632.043026 179.615507 
L 632.279833 173.829582 
L 632.516639 158.821988 
L 632.990251 183.487712 
L 633.227058 183.487712 
L 633.463864 182.502874 
L 633.70067 174.780846 
L 634.174282 174.780846 
L 634.411089 166.857374 
L 634.884701 166.958096 
L 635.831926 166.958096 
L 636.068732 167.15954 
L 636.305538 167.15954 
L 636.542344 158.295995 
L 636.779151 158.217655 
L 637.015957 164.003581 
L 637.252763 164.003581 
L 637.489569 156.460614 
L 637.726375 175.39637 
L 637.963182 175.39637 
L 638.199988 152.554835 
L 638.436794 152.43173 
L 638.6736 150.808985 
L 639.147213 150.808985 
L 639.384019 152.43173 
L 640.804856 152.43173 
L 641.041662 169.173982 
L 641.515275 169.173982 
L 641.752081 185.916234 
L 641.988887 185.916234 
L 642.225693 211.029612 
L 642.4625 202.166067 
L 642.699306 202.166067 
L 642.936112 203.307584 
L 643.172918 210.391706 
L 643.646531 210.391706 
L 643.883337 231.252373 
L 644.120143 229.629628 
L 645.777787 229.629628 
L 646.251399 193.906855 
L 646.488205 193.906855 
L 646.725011 188.120929 
L 647.672236 188.120929 
L 647.909042 191.62382 
L 648.145849 191.62382 
L 648.382655 184.539699 
L 648.619461 184.539699 
L 648.856267 187.404683 
L 649.566686 187.404683 
L 649.803492 180.130309 
L 651.934748 180.130309 
L 652.171554 185.916234 
L 652.645167 185.916234 
L 652.881973 193.638262 
L 653.118779 171.613695 
L 653.829198 171.613695 
L 654.066004 161.541485 
L 656.19726 161.541485 
L 656.434066 144.922337 
L 656.907678 144.922337 
L 657.144485 136.058792 
L 657.618097 136.058792 
L 657.854903 120.155891 
L 658.802128 120.155891 
L 659.038934 127.430265 
L 659.986159 127.430265 
L 660.222965 136.484063 
L 661.17019 136.484063 
L 661.406996 127.430265 
L 661.643802 127.430265 
L 661.880609 119.506793 
L 662.117415 119.506793 
L 662.354221 123.625208 
L 662.827834 123.625208 
L 663.06464 125.247953 
L 665.195896 125.247953 
L 665.432702 119.462027 
L 669.458407 119.361305 
L 669.695214 107.442523 
L 669.93202 107.442523 
L 670.168826 125.124848 
L 670.405632 117.40282 
L 671.116051 117.40282 
L 671.352857 108.192343 
L 672.063276 108.192343 
L 672.300082 106.569598 
L 672.536888 88.887273 
L 674.90495 88.887273 
L 675.141756 90.510018 
L 683.429974 90.61074 
L 683.66678 88.987995 
L 701.900858 88.887273 
L 702.137664 90.510018 
L 704.505726 90.510018 
L 704.742532 88.887273 
L 735.290533 88.887273 
L 735.527339 90.510018 
L 735.764146 88.887273 
L 871.690909 88.887273 
L 871.690909 88.887273 
" style="fill:none;stroke:#8dd3c7;stroke-linecap:square;stroke-width:1.5;"/>
   </g>
   <g id="line2d_17">
    <path clip-path="url(#pcaabb1dd9e)" d="M 161.509091 179.693846 
L 614.519367 179.693846 
L 614.756173 179.22381 
L 624.93884 179.22381 
L 625.175646 178.865687 
L 625.886065 178.865687 
L 626.122871 171.781565 
L 627.070096 171.781565 
L 627.306902 146.097429 
L 628.017321 146.097429 
L 628.254127 132.477562 
L 628.964546 132.477562 
L 629.201352 131.873229 
L 657.618097 131.873229 
L 657.854903 120.155891 
L 661.643802 120.155891 
L 661.880609 119.506793 
L 666.853539 119.462027 
L 667.327151 119.361305 
L 669.458407 119.361305 
L 669.695214 107.442523 
L 672.063276 107.442523 
L 672.300082 106.569598 
L 672.536888 88.887273 
L 871.690909 88.887273 
L 871.690909 88.887273 
" style="fill:none;stroke:#feffb3;stroke-linecap:square;stroke-width:1.5;"/>
   </g>
   <g id="line2d_18">
    <path clip-path="url(#pcaabb1dd9e)" d="M 161.509091 179.693846 
L 163.166734 179.693846 
L 163.403541 196.335995 
L 165.061184 196.335995 
L 165.29799 212.0687 
L 166.955634 212.0687 
L 167.19244 226.941658 
L 168.850083 226.941658 
L 169.08689 241.001854 
L 170.744533 241.001854 
L 170.981339 254.293701 
L 172.638983 254.293701 
L 172.875789 266.859189 
L 174.533432 266.859189 
L 174.770239 278.738009 
L 176.427882 278.738009 
L 176.664688 289.967688 
L 178.322332 289.967688 
L 178.559138 300.583697 
L 180.216781 300.583697 
L 180.453588 310.619573 
L 182.111231 310.619573 
L 182.348037 320.107018 
L 184.005681 320.107018 
L 184.242487 329.076003 
L 185.90013 329.076003 
L 186.136937 337.554859 
L 187.79458 337.554859 
L 188.031386 345.57037 
L 189.68903 345.57037 
L 189.925836 353.147858 
L 191.583479 353.147858 
L 191.820286 360.311258 
L 193.477929 360.311258 
L 193.714735 367.083199 
L 195.372379 367.083199 
L 195.609185 373.485075 
L 197.266828 373.485075 
L 197.503635 379.537106 
L 199.161278 379.537106 
L 199.398084 385.258412 
L 201.055728 385.258412 
L 201.292534 390.667065 
L 202.950177 390.667065 
L 203.186984 395.780152 
L 204.844627 395.780152 
L 205.081433 400.613823 
L 206.739077 400.613823 
L 206.975883 405.183349 
L 208.633526 405.183349 
L 208.870333 409.503164 
L 210.527976 409.503164 
L 210.764782 413.586913 
L 212.422426 413.586913 
L 212.659232 417.447498 
L 214.316875 417.447498 
L 214.553682 421.097113 
L 216.211325 421.097113 
L 216.448131 424.547288 
L 218.105775 424.547288 
L 218.342581 427.80892 
L 220.000224 427.80892 
L 220.237031 430.892314 
L 221.894674 430.892314 
L 222.13148 433.80721 
L 223.789124 433.80721 
L 224.02593 436.562815 
L 225.683573 436.562815 
L 225.92038 439.167835 
L 227.578023 439.167835 
L 227.814829 441.630498 
L 229.472473 441.630498 
L 229.709279 443.958584 
L 231.366922 443.958584 
L 231.603729 446.159447 
L 233.261372 446.159447 
L 233.498178 448.240039 
L 235.155822 448.240039 
L 235.392628 450.206933 
L 237.050271 450.206933 
L 237.287078 452.066342 
L 238.944721 452.066342 
L 239.181527 453.82414 
L 240.839171 453.82414 
L 241.075977 455.485879 
L 242.73362 455.485879 
L 242.970427 457.056809 
L 244.62807 457.056809 
L 244.864876 458.541893 
L 246.52252 458.541893 
L 246.759326 459.945821 
L 248.416969 459.945821 
L 248.653776 461.273028 
L 250.311419 461.273028 
L 250.548225 462.527708 
L 252.205869 462.527708 
L 252.442675 463.713823 
L 254.100318 463.713823 
L 254.337124 464.83512 
L 255.994768 464.83512 
L 256.231574 465.895142 
L 257.889218 465.895142 
L 258.126024 466.897237 
L 259.783667 466.897237 
L 260.020473 467.84457 
L 261.678117 467.84457 
L 261.914923 468.740135 
L 263.572567 468.740135 
L 263.809373 469.586759 
L 265.467016 469.586759 
L 265.703822 470.387118 
L 267.361466 470.387118 
L 267.598272 471.143739 
L 269.255916 471.143739 
L 269.492722 471.859014 
L 271.150365 471.859014 
L 271.387171 472.535201 
L 273.044815 472.535201 
L 273.281621 473.174436 
L 274.939265 473.174436 
L 275.176071 473.778739 
L 276.833714 473.778739 
L 277.07052 474.350018 
L 278.728164 474.350018 
L 278.96497 474.890079 
L 280.622614 474.890079 
L 280.85942 475.400627 
L 282.517063 475.400627 
L 282.753869 475.883275 
L 284.411513 475.883275 
L 284.648319 476.339548 
L 286.305963 476.339548 
L 286.542769 476.770887 
L 288.200412 476.770887 
L 288.437218 477.178655 
L 290.094862 477.178655 
L 290.331668 477.564139 
L 291.989312 477.564139 
L 292.226118 477.928557 
L 293.883761 477.928557 
L 294.120567 478.273062 
L 295.778211 478.273062 
L 296.015017 478.59874 
L 297.672661 478.59874 
L 297.909467 478.906621 
L 299.56711 478.906621 
L 299.803916 479.197677 
L 301.46156 479.197677 
L 301.698366 479.472827 
L 303.35601 479.472827 
L 303.592816 479.732942 
L 305.250459 479.732942 
L 305.487265 479.978842 
L 307.144909 479.978842 
L 307.381715 480.211304 
L 309.039359 480.211304 
L 309.276165 480.431063 
L 310.933808 480.431063 
L 311.170614 480.638813 
L 312.828258 480.638813 
L 313.065064 480.835209 
L 314.722708 480.835209 
L 314.959514 481.020874 
L 316.617157 481.020874 
L 316.853963 481.196392 
L 318.511607 481.196392 
L 318.748413 481.362319 
L 320.406057 481.362319 
L 320.642863 481.519178 
L 322.300506 481.519178 
L 322.537312 481.667466 
L 324.194956 481.667466 
L 324.431762 481.807649 
L 326.089406 481.807649 
L 326.326212 481.940173 
L 327.983855 481.940173 
L 328.457468 482.065454 
L 329.878305 482.065454 
L 330.351917 482.183889 
L 331.772755 482.183889 
L 332.246367 482.295852 
L 335.561654 482.401697 
L 336.035266 482.501757 
L 339.350553 482.59635 
L 339.824166 482.685773 
L 343.139453 482.770309 
L 343.613065 482.850226 
L 346.928352 482.925776 
L 347.401964 482.997197 
L 350.717251 483.064715 
L 351.190864 483.128543 
L 354.506151 483.188884 
L 355.216569 483.245927 
L 360.1895 483.350831 
L 360.899918 483.399024 
L 365.872849 483.487653 
L 366.583267 483.52837 
L 373.450647 483.637647 
L 374.397872 483.670167 
L 381.028446 483.757446 
L 382.212477 483.783418 
L 392.395144 483.893481 
L 394.052787 483.91202 
L 407.550741 484.016323 
L 410.155609 484.039328 
L 439.756385 484.149481 
L 446.386959 484.16624 
L 871.690909 484.232727 
L 871.690909 484.232727 
" style="fill:none;stroke:#bfbbd9;stroke-linecap:square;stroke-width:1.5;"/>
   </g>
   <g id="patch_3">
    <path d="M 126 504 
L 126 69.12 
" style="fill:none;stroke:#ffffff;stroke-linecap:square;stroke-linejoin:miter;stroke-width:0.8;"/>
   </g>
   <g id="patch_4">
    <path d="M 907.2 504 
L 907.2 69.12 
" style="fill:none;stroke:#ffffff;stroke-linecap:square;stroke-linejoin:miter;stroke-width:0.8;"/>
   </g>
   <g id="patch_5">
    <path d="M 126 504 
L 907.2 504 
" style="fill:none;stroke:#ffffff;stroke-linecap:square;stroke-linejoin:miter;stroke-width:0.8;"/>
   </g>
   <g id="patch_6">
    <path d="M 126 69.12 
L 907.2 69.12 
" style="fill:none;stroke:#ffffff;stroke-linecap:square;stroke-linejoin:miter;stroke-width:0.8;"/>
   </g>
   <g id="text_17">
    <!-- instance 7 with error 0.003047920076762467 -->
    <g style="fill:#ffffff;" transform="translate(378.046875 63.12)scale(0.12 -0.12)">
     <defs>
      <path d="M 2834 3397 
L 2834 2853 
Q 2591 2978 2328 3040 
Q 2066 3103 1784 3103 
Q 1356 3103 1142 2972 
Q 928 2841 928 2578 
Q 928 2378 1081 2264 
Q 1234 2150 1697 2047 
L 1894 2003 
Q 2506 1872 2764 1633 
Q 3022 1394 3022 966 
Q 3022 478 2636 193 
Q 2250 -91 1575 -91 
Q 1294 -91 989 -36 
Q 684 19 347 128 
L 347 722 
Q 666 556 975 473 
Q 1284 391 1588 391 
Q 1994 391 2212 530 
Q 2431 669 2431 922 
Q 2431 1156 2273 1281 
Q 2116 1406 1581 1522 
L 1381 1569 
Q 847 1681 609 1914 
Q 372 2147 372 2553 
Q 372 3047 722 3315 
Q 1072 3584 1716 3584 
Q 2034 3584 2315 3537 
Q 2597 3491 2834 3397 
z
" id="DejaVuSans-73" transform="scale(0.015625)"/>
      <path d="M 3122 3366 
L 3122 2828 
Q 2878 2963 2633 3030 
Q 2388 3097 2138 3097 
Q 1578 3097 1268 2742 
Q 959 2388 959 1747 
Q 959 1106 1268 751 
Q 1578 397 2138 397 
Q 2388 397 2633 464 
Q 2878 531 3122 666 
L 3122 134 
Q 2881 22 2623 -34 
Q 2366 -91 2075 -91 
Q 1284 -91 818 406 
Q 353 903 353 1747 
Q 353 2603 823 3093 
Q 1294 3584 2113 3584 
Q 2378 3584 2631 3529 
Q 2884 3475 3122 3366 
z
" id="DejaVuSans-63" transform="scale(0.015625)"/>
      <path id="DejaVuSans-20" transform="scale(0.015625)"/>
      <path d="M 525 4666 
L 3525 4666 
L 3525 4397 
L 1831 0 
L 1172 0 
L 2766 4134 
L 525 4134 
L 525 4666 
z
" id="DejaVuSans-37" transform="scale(0.015625)"/>
      <path d="M 269 3500 
L 844 3500 
L 1563 769 
L 2278 3500 
L 2956 3500 
L 3675 769 
L 4391 3500 
L 4966 3500 
L 4050 0 
L 3372 0 
L 2619 2869 
L 1863 0 
L 1184 0 
L 269 3500 
z
" id="DejaVuSans-77" transform="scale(0.015625)"/>
      <path d="M 3513 2113 
L 3513 0 
L 2938 0 
L 2938 2094 
Q 2938 2591 2744 2837 
Q 2550 3084 2163 3084 
Q 1697 3084 1428 2787 
Q 1159 2491 1159 1978 
L 1159 0 
L 581 0 
L 581 4863 
L 1159 4863 
L 1159 2956 
Q 1366 3272 1645 3428 
Q 1925 3584 2291 3584 
Q 2894 3584 3203 3211 
Q 3513 2838 3513 2113 
z
" id="DejaVuSans-68" transform="scale(0.015625)"/>
      <path d="M 684 794 
L 1344 794 
L 1344 0 
L 684 0 
L 684 794 
z
" id="DejaVuSans-2e" transform="scale(0.015625)"/>
      <path d="M 2419 4116 
L 825 1625 
L 2419 1625 
L 2419 4116 
z
M 2253 4666 
L 3047 4666 
L 3047 1625 
L 3713 1625 
L 3713 1100 
L 3047 1100 
L 3047 0 
L 2419 0 
L 2419 1100 
L 313 1100 
L 313 1709 
L 2253 4666 
z
" id="DejaVuSans-34" transform="scale(0.015625)"/>
      <path d="M 703 97 
L 703 672 
Q 941 559 1184 500 
Q 1428 441 1663 441 
Q 2288 441 2617 861 
Q 2947 1281 2994 2138 
Q 2813 1869 2534 1725 
Q 2256 1581 1919 1581 
Q 1219 1581 811 2004 
Q 403 2428 403 3163 
Q 403 3881 828 4315 
Q 1253 4750 1959 4750 
Q 2769 4750 3195 4129 
Q 3622 3509 3622 2328 
Q 3622 1225 3098 567 
Q 2575 -91 1691 -91 
Q 1453 -91 1209 -44 
Q 966 3 703 97 
z
M 1959 2075 
Q 2384 2075 2632 2365 
Q 2881 2656 2881 3163 
Q 2881 3666 2632 3958 
Q 2384 4250 1959 4250 
Q 1534 4250 1286 3958 
Q 1038 3666 1038 3163 
Q 1038 2656 1286 2365 
Q 1534 2075 1959 2075 
z
" id="DejaVuSans-39" transform="scale(0.015625)"/>
      <path d="M 2113 2584 
Q 1688 2584 1439 2293 
Q 1191 2003 1191 1497 
Q 1191 994 1439 701 
Q 1688 409 2113 409 
Q 2538 409 2786 701 
Q 3034 994 3034 1497 
Q 3034 2003 2786 2293 
Q 2538 2584 2113 2584 
z
M 3366 4563 
L 3366 3988 
Q 3128 4100 2886 4159 
Q 2644 4219 2406 4219 
Q 1781 4219 1451 3797 
Q 1122 3375 1075 2522 
Q 1259 2794 1537 2939 
Q 1816 3084 2150 3084 
Q 2853 3084 3261 2657 
Q 3669 2231 3669 1497 
Q 3669 778 3244 343 
Q 2819 -91 2113 -91 
Q 1303 -91 875 529 
Q 447 1150 447 2328 
Q 447 3434 972 4092 
Q 1497 4750 2381 4750 
Q 2619 4750 2861 4703 
Q 3103 4656 3366 4563 
z
" id="DejaVuSans-36" transform="scale(0.015625)"/>
     </defs>
     <use xlink:href="#DejaVuSans-69"/>
     <use x="27.783203" xlink:href="#DejaVuSans-6e"/>
     <use x="91.162109" xlink:href="#DejaVuSans-73"/>
     <use x="143.261719" xlink:href="#DejaVuSans-74"/>
     <use x="182.470703" xlink:href="#DejaVuSans-61"/>
     <use x="243.75" xlink:href="#DejaVuSans-6e"/>
     <use x="307.128906" xlink:href="#DejaVuSans-63"/>
     <use x="362.109375" xlink:href="#DejaVuSans-65"/>
     <use x="423.632812" xlink:href="#DejaVuSans-20"/>
     <use x="455.419922" xlink:href="#DejaVuSans-37"/>
     <use x="519.042969" xlink:href="#DejaVuSans-20"/>
     <use x="550.830078" xlink:href="#DejaVuSans-77"/>
     <use x="632.617188" xlink:href="#DejaVuSans-69"/>
     <use x="660.400391" xlink:href="#DejaVuSans-74"/>
     <use x="699.609375" xlink:href="#DejaVuSans-68"/>
     <use x="762.988281" xlink:href="#DejaVuSans-20"/>
     <use x="794.775391" xlink:href="#DejaVuSans-65"/>
     <use x="856.298828" xlink:href="#DejaVuSans-72"/>
     <use x="895.662109" xlink:href="#DejaVuSans-72"/>
     <use x="934.525391" xlink:href="#DejaVuSans-6f"/>
     <use x="995.707031" xlink:href="#DejaVuSans-72"/>
     <use x="1036.820312" xlink:href="#DejaVuSans-20"/>
     <use x="1068.607422" xlink:href="#DejaVuSans-30"/>
     <use x="1132.230469" xlink:href="#DejaVuSans-2e"/>
     <use x="1164.017578" xlink:href="#DejaVuSans-30"/>
     <use x="1227.640625" xlink:href="#DejaVuSans-30"/>
     <use x="1291.263672" xlink:href="#DejaVuSans-33"/>
     <use x="1354.886719" xlink:href="#DejaVuSans-30"/>
     <use x="1418.509766" xlink:href="#DejaVuSans-34"/>
     <use x="1482.132812" xlink:href="#DejaVuSans-37"/>
     <use x="1545.755859" xlink:href="#DejaVuSans-39"/>
     <use x="1609.378906" xlink:href="#DejaVuSans-32"/>
     <use x="1673.001953" xlink:href="#DejaVuSans-30"/>
     <use x="1736.625" xlink:href="#DejaVuSans-30"/>
     <use x="1800.248047" xlink:href="#DejaVuSans-37"/>
     <use x="1863.871094" xlink:href="#DejaVuSans-36"/>
     <use x="1927.494141" xlink:href="#DejaVuSans-37"/>
     <use x="1991.117188" xlink:href="#DejaVuSans-36"/>
     <use x="2054.740234" xlink:href="#DejaVuSans-32"/>
     <use x="2118.363281" xlink:href="#DejaVuSans-34"/>
     <use x="2181.986328" xlink:href="#DejaVuSans-36"/>
     <use x="2245.609375" xlink:href="#DejaVuSans-37"/>
    </g>
   </g>
   <g id="legend_1">
    <g id="patch_7">
     <path d="M 805.348438 499 
L 900.2 499 
Q 902.2 499 902.2 497 
L 902.2 453.965625 
Q 902.2 451.965625 900.2 451.965625 
L 805.348438 451.965625 
Q 803.348438 451.965625 803.348438 453.965625 
L 803.348438 497 
Q 803.348438 499 805.348438 499 
z
" style="opacity:0.8;stroke:#cccccc;stroke-linejoin:miter;"/>
    </g>
    <g id="line2d_19">
     <path d="M 807.348438 460.064062 
L 827.348438 460.064062 
" style="fill:none;stroke:#8dd3c7;stroke-linecap:square;stroke-width:1.5;"/>
    </g>
    <g id="line2d_20"/>
    <g id="text_18">
     <!-- cost -->
     <g style="fill:#ffffff;" transform="translate(835.348438 463.564062)scale(0.1 -0.1)">
      <use xlink:href="#DejaVuSans-63"/>
      <use x="54.980469" xlink:href="#DejaVuSans-6f"/>
      <use x="116.162109" xlink:href="#DejaVuSans-73"/>
      <use x="168.261719" xlink:href="#DejaVuSans-74"/>
     </g>
    </g>
    <g id="line2d_21">
     <path d="M 807.348438 474.742188 
L 827.348438 474.742188 
" style="fill:none;stroke:#feffb3;stroke-linecap:square;stroke-width:1.5;"/>
    </g>
    <g id="line2d_22"/>
    <g id="text_19">
     <!-- best cost -->
     <g style="fill:#ffffff;" transform="translate(835.348438 478.242188)scale(0.1 -0.1)">
      <defs>
       <path d="M 3116 1747 
Q 3116 2381 2855 2742 
Q 2594 3103 2138 3103 
Q 1681 3103 1420 2742 
Q 1159 2381 1159 1747 
Q 1159 1113 1420 752 
Q 1681 391 2138 391 
Q 2594 391 2855 752 
Q 3116 1113 3116 1747 
z
M 1159 2969 
Q 1341 3281 1617 3432 
Q 1894 3584 2278 3584 
Q 2916 3584 3314 3078 
Q 3713 2572 3713 1747 
Q 3713 922 3314 415 
Q 2916 -91 2278 -91 
Q 1894 -91 1617 61 
Q 1341 213 1159 525 
L 1159 0 
L 581 0 
L 581 4863 
L 1159 4863 
L 1159 2969 
z
" id="DejaVuSans-62" transform="scale(0.015625)"/>
      </defs>
      <use xlink:href="#DejaVuSans-62"/>
      <use x="63.476562" xlink:href="#DejaVuSans-65"/>
      <use x="125" xlink:href="#DejaVuSans-73"/>
      <use x="177.099609" xlink:href="#DejaVuSans-74"/>
      <use x="216.308594" xlink:href="#DejaVuSans-20"/>
      <use x="248.095703" xlink:href="#DejaVuSans-63"/>
      <use x="303.076172" xlink:href="#DejaVuSans-6f"/>
      <use x="364.257812" xlink:href="#DejaVuSans-73"/>
      <use x="416.357422" xlink:href="#DejaVuSans-74"/>
     </g>
    </g>
    <g id="line2d_23">
     <path d="M 807.348438 489.420313 
L 827.348438 489.420313 
" style="fill:none;stroke:#bfbbd9;stroke-linecap:square;stroke-width:1.5;"/>
    </g>
    <g id="line2d_24"/>
    <g id="text_20">
     <!-- temperature -->
     <g style="fill:#ffffff;" transform="translate(835.348438 492.920313)scale(0.1 -0.1)">
      <defs>
       <path d="M 3328 2828 
Q 3544 3216 3844 3400 
Q 4144 3584 4550 3584 
Q 5097 3584 5394 3201 
Q 5691 2819 5691 2113 
L 5691 0 
L 5113 0 
L 5113 2094 
Q 5113 2597 4934 2840 
Q 4756 3084 4391 3084 
Q 3944 3084 3684 2787 
Q 3425 2491 3425 1978 
L 3425 0 
L 2847 0 
L 2847 2094 
Q 2847 2600 2669 2842 
Q 2491 3084 2119 3084 
Q 1678 3084 1418 2786 
Q 1159 2488 1159 1978 
L 1159 0 
L 581 0 
L 581 3500 
L 1159 3500 
L 1159 2956 
Q 1356 3278 1631 3431 
Q 1906 3584 2284 3584 
Q 2666 3584 2933 3390 
Q 3200 3197 3328 2828 
z
" id="DejaVuSans-6d" transform="scale(0.015625)"/>
       <path d="M 1159 525 
L 1159 -1331 
L 581 -1331 
L 581 3500 
L 1159 3500 
L 1159 2969 
Q 1341 3281 1617 3432 
Q 1894 3584 2278 3584 
Q 2916 3584 3314 3078 
Q 3713 2572 3713 1747 
Q 3713 922 3314 415 
Q 2916 -91 2278 -91 
Q 1894 -91 1617 61 
Q 1341 213 1159 525 
z
M 3116 1747 
Q 3116 2381 2855 2742 
Q 2594 3103 2138 3103 
Q 1681 3103 1420 2742 
Q 1159 2381 1159 1747 
Q 1159 1113 1420 752 
Q 1681 391 2138 391 
Q 2594 391 2855 752 
Q 3116 1113 3116 1747 
z
" id="DejaVuSans-70" transform="scale(0.015625)"/>
       <path d="M 544 1381 
L 544 3500 
L 1119 3500 
L 1119 1403 
Q 1119 906 1312 657 
Q 1506 409 1894 409 
Q 2359 409 2629 706 
Q 2900 1003 2900 1516 
L 2900 3500 
L 3475 3500 
L 3475 0 
L 2900 0 
L 2900 538 
Q 2691 219 2414 64 
Q 2138 -91 1772 -91 
Q 1169 -91 856 284 
Q 544 659 544 1381 
z
M 1991 3584 
L 1991 3584 
z
" id="DejaVuSans-75" transform="scale(0.015625)"/>
      </defs>
      <use xlink:href="#DejaVuSans-74"/>
      <use x="39.208984" xlink:href="#DejaVuSans-65"/>
      <use x="100.732422" xlink:href="#DejaVuSans-6d"/>
      <use x="198.144531" xlink:href="#DejaVuSans-70"/>
      <use x="261.621094" xlink:href="#DejaVuSans-65"/>
      <use x="323.144531" xlink:href="#DejaVuSans-72"/>
      <use x="364.257812" xlink:href="#DejaVuSans-61"/>
      <use x="425.537109" xlink:href="#DejaVuSans-74"/>
      <use x="464.746094" xlink:href="#DejaVuSans-75"/>
      <use x="528.125" xlink:href="#DejaVuSans-72"/>
      <use x="566.988281" xlink:href="#DejaVuSans-65"/>
     </g>
    </g>
   </g>
  </g>
 </g>
 <defs>
  <clipPath id="pcaabb1dd9e">
   <rect height="434.88" width="781.2" x="126" y="69.12"/>
  </clipPath>
 </defs>
</svg>
