<?xml version="1.0" encoding="utf-8" standalone="no"?>
<!DOCTYPE svg PUBLIC "-//W3C//DTD SVG 1.1//EN"
  "http://www.w3.org/Graphics/SVG/1.1/DTD/svg11.dtd">
<svg height="576pt" version="1.1" viewBox="0 0 1008 576" width="1008pt" xmlns="http://www.w3.org/2000/svg" xmlns:xlink="http://www.w3.org/1999/xlink">
 <metadata>
  <rdf:RDF xmlns:cc="http://creativecommons.org/ns#" xmlns:dc="http://purl.org/dc/elements/1.1/" xmlns:rdf="http://www.w3.org/1999/02/22-rdf-syntax-ns#">
   <cc:Work>
    <dc:type rdf:resource="http://purl.org/dc/dcmitype/StillImage"/>
    <dc:date>2022-01-07T00:38:46.911244</dc:date>
    <dc:format>image/svg+xml</dc:format>
    <dc:creator>
     <cc:Agent>
      <dc:title>Matplotlib v3.4.3, https://matplotlib.org/</dc:title>
     </cc:Agent>
    </dc:creator>
   </cc:Work>
  </rdf:RDF>
 </metadata>
 <defs>
  <style type="text/css">*{stroke-linecap:butt;stroke-linejoin:round;}</style>
 </defs>
 <g id="figure_1">
  <g id="patch_1">
   <path d="M 0 576 
L 1008 576 
L 1008 0 
L 0 0 
z
"/>
  </g>
  <g id="axes_1">
   <g id="patch_2">
    <path d="M 126 504 
L 907.2 504 
L 907.2 69.12 
L 126 69.12 
z
"/>
   </g>
   <g id="matplotlib.axis_1">
    <g id="xtick_1">
     <g id="line2d_1">
      <defs>
       <path d="M 0 0 
L 0 3.5 
" id="m491d775675" style="stroke:#ffffff;stroke-width:0.8;"/>
      </defs>
      <g>
       <use style="fill:#ffffff;stroke:#ffffff;stroke-width:0.8;" x="161.509091" xlink:href="#m491d775675" y="504"/>
      </g>
     </g>
     <g id="text_1">
      <!-- 0 -->
      <g style="fill:#ffffff;" transform="translate(158.327841 518.598438)scale(0.1 -0.1)">
       <defs>
        <path d="M 2034 4250 
Q 1547 4250 1301 3770 
Q 1056 3291 1056 2328 
Q 1056 1369 1301 889 
Q 1547 409 2034 409 
Q 2525 409 2770 889 
Q 3016 1369 3016 2328 
Q 3016 3291 2770 3770 
Q 2525 4250 2034 4250 
z
M 2034 4750 
Q 2819 4750 3233 4129 
Q 3647 3509 3647 2328 
Q 3647 1150 3233 529 
Q 2819 -91 2034 -91 
Q 1250 -91 836 529 
Q 422 1150 422 2328 
Q 422 3509 836 4129 
Q 1250 4750 2034 4750 
z
" id="DejaVuSans-30" transform="scale(0.015625)"/>
       </defs>
       <use xlink:href="#DejaVuSans-30"/>
      </g>
     </g>
    </g>
    <g id="xtick_2">
     <g id="line2d_2">
      <g>
       <use style="fill:#ffffff;stroke:#ffffff;stroke-width:0.8;" x="309.033357" xlink:href="#m491d775675" y="504"/>
      </g>
     </g>
     <g id="text_2">
      <!-- 500 -->
      <g style="fill:#ffffff;" transform="translate(299.489607 518.598438)scale(0.1 -0.1)">
       <defs>
        <path d="M 691 4666 
L 3169 4666 
L 3169 4134 
L 1269 4134 
L 1269 2991 
Q 1406 3038 1543 3061 
Q 1681 3084 1819 3084 
Q 2600 3084 3056 2656 
Q 3513 2228 3513 1497 
Q 3513 744 3044 326 
Q 2575 -91 1722 -91 
Q 1428 -91 1123 -41 
Q 819 9 494 109 
L 494 744 
Q 775 591 1075 516 
Q 1375 441 1709 441 
Q 2250 441 2565 725 
Q 2881 1009 2881 1497 
Q 2881 1984 2565 2268 
Q 2250 2553 1709 2553 
Q 1456 2553 1204 2497 
Q 953 2441 691 2322 
L 691 4666 
z
" id="DejaVuSans-35" transform="scale(0.015625)"/>
       </defs>
       <use xlink:href="#DejaVuSans-35"/>
       <use x="63.623047" xlink:href="#DejaVuSans-30"/>
       <use x="127.246094" xlink:href="#DejaVuSans-30"/>
      </g>
     </g>
    </g>
    <g id="xtick_3">
     <g id="line2d_3">
      <g>
       <use style="fill:#ffffff;stroke:#ffffff;stroke-width:0.8;" x="456.557624" xlink:href="#m491d775675" y="504"/>
      </g>
     </g>
     <g id="text_3">
      <!-- 1000 -->
      <g style="fill:#ffffff;" transform="translate(443.832624 518.598438)scale(0.1 -0.1)">
       <defs>
        <path d="M 794 531 
L 1825 531 
L 1825 4091 
L 703 3866 
L 703 4441 
L 1819 4666 
L 2450 4666 
L 2450 531 
L 3481 531 
L 3481 0 
L 794 0 
L 794 531 
z
" id="DejaVuSans-31" transform="scale(0.015625)"/>
       </defs>
       <use xlink:href="#DejaVuSans-31"/>
       <use x="63.623047" xlink:href="#DejaVuSans-30"/>
       <use x="127.246094" xlink:href="#DejaVuSans-30"/>
       <use x="190.869141" xlink:href="#DejaVuSans-30"/>
      </g>
     </g>
    </g>
    <g id="xtick_4">
     <g id="line2d_4">
      <g>
       <use style="fill:#ffffff;stroke:#ffffff;stroke-width:0.8;" x="604.08189" xlink:href="#m491d775675" y="504"/>
      </g>
     </g>
     <g id="text_4">
      <!-- 1500 -->
      <g style="fill:#ffffff;" transform="translate(591.35689 518.598438)scale(0.1 -0.1)">
       <use xlink:href="#DejaVuSans-31"/>
       <use x="63.623047" xlink:href="#DejaVuSans-35"/>
       <use x="127.246094" xlink:href="#DejaVuSans-30"/>
       <use x="190.869141" xlink:href="#DejaVuSans-30"/>
      </g>
     </g>
    </g>
    <g id="xtick_5">
     <g id="line2d_5">
      <g>
       <use style="fill:#ffffff;stroke:#ffffff;stroke-width:0.8;" x="751.606156" xlink:href="#m491d775675" y="504"/>
      </g>
     </g>
     <g id="text_5">
      <!-- 2000 -->
      <g style="fill:#ffffff;" transform="translate(738.881156 518.598438)scale(0.1 -0.1)">
       <defs>
        <path d="M 1228 531 
L 3431 531 
L 3431 0 
L 469 0 
L 469 531 
Q 828 903 1448 1529 
Q 2069 2156 2228 2338 
Q 2531 2678 2651 2914 
Q 2772 3150 2772 3378 
Q 2772 3750 2511 3984 
Q 2250 4219 1831 4219 
Q 1534 4219 1204 4116 
Q 875 4013 500 3803 
L 500 4441 
Q 881 4594 1212 4672 
Q 1544 4750 1819 4750 
Q 2544 4750 2975 4387 
Q 3406 4025 3406 3419 
Q 3406 3131 3298 2873 
Q 3191 2616 2906 2266 
Q 2828 2175 2409 1742 
Q 1991 1309 1228 531 
z
" id="DejaVuSans-32" transform="scale(0.015625)"/>
       </defs>
       <use xlink:href="#DejaVuSans-32"/>
       <use x="63.623047" xlink:href="#DejaVuSans-30"/>
       <use x="127.246094" xlink:href="#DejaVuSans-30"/>
       <use x="190.869141" xlink:href="#DejaVuSans-30"/>
      </g>
     </g>
    </g>
    <g id="xtick_6">
     <g id="line2d_6">
      <g>
       <use style="fill:#ffffff;stroke:#ffffff;stroke-width:0.8;" x="899.130423" xlink:href="#m491d775675" y="504"/>
      </g>
     </g>
     <g id="text_6">
      <!-- 2500 -->
      <g style="fill:#ffffff;" transform="translate(886.405423 518.598438)scale(0.1 -0.1)">
       <use xlink:href="#DejaVuSans-32"/>
       <use x="63.623047" xlink:href="#DejaVuSans-35"/>
       <use x="127.246094" xlink:href="#DejaVuSans-30"/>
       <use x="190.869141" xlink:href="#DejaVuSans-30"/>
      </g>
     </g>
    </g>
    <g id="text_7">
     <!-- iteration -->
     <g style="fill:#ffffff;" transform="translate(495.477344 532.276562)scale(0.1 -0.1)">
      <defs>
       <path d="M 603 3500 
L 1178 3500 
L 1178 0 
L 603 0 
L 603 3500 
z
M 603 4863 
L 1178 4863 
L 1178 4134 
L 603 4134 
L 603 4863 
z
" id="DejaVuSans-69" transform="scale(0.015625)"/>
       <path d="M 1172 4494 
L 1172 3500 
L 2356 3500 
L 2356 3053 
L 1172 3053 
L 1172 1153 
Q 1172 725 1289 603 
Q 1406 481 1766 481 
L 2356 481 
L 2356 0 
L 1766 0 
Q 1100 0 847 248 
Q 594 497 594 1153 
L 594 3053 
L 172 3053 
L 172 3500 
L 594 3500 
L 594 4494 
L 1172 4494 
z
" id="DejaVuSans-74" transform="scale(0.015625)"/>
       <path d="M 3597 1894 
L 3597 1613 
L 953 1613 
Q 991 1019 1311 708 
Q 1631 397 2203 397 
Q 2534 397 2845 478 
Q 3156 559 3463 722 
L 3463 178 
Q 3153 47 2828 -22 
Q 2503 -91 2169 -91 
Q 1331 -91 842 396 
Q 353 884 353 1716 
Q 353 2575 817 3079 
Q 1281 3584 2069 3584 
Q 2775 3584 3186 3129 
Q 3597 2675 3597 1894 
z
M 3022 2063 
Q 3016 2534 2758 2815 
Q 2500 3097 2075 3097 
Q 1594 3097 1305 2825 
Q 1016 2553 972 2059 
L 3022 2063 
z
" id="DejaVuSans-65" transform="scale(0.015625)"/>
       <path d="M 2631 2963 
Q 2534 3019 2420 3045 
Q 2306 3072 2169 3072 
Q 1681 3072 1420 2755 
Q 1159 2438 1159 1844 
L 1159 0 
L 581 0 
L 581 3500 
L 1159 3500 
L 1159 2956 
Q 1341 3275 1631 3429 
Q 1922 3584 2338 3584 
Q 2397 3584 2469 3576 
Q 2541 3569 2628 3553 
L 2631 2963 
z
" id="DejaVuSans-72" transform="scale(0.015625)"/>
       <path d="M 2194 1759 
Q 1497 1759 1228 1600 
Q 959 1441 959 1056 
Q 959 750 1161 570 
Q 1363 391 1709 391 
Q 2188 391 2477 730 
Q 2766 1069 2766 1631 
L 2766 1759 
L 2194 1759 
z
M 3341 1997 
L 3341 0 
L 2766 0 
L 2766 531 
Q 2569 213 2275 61 
Q 1981 -91 1556 -91 
Q 1019 -91 701 211 
Q 384 513 384 1019 
Q 384 1609 779 1909 
Q 1175 2209 1959 2209 
L 2766 2209 
L 2766 2266 
Q 2766 2663 2505 2880 
Q 2244 3097 1772 3097 
Q 1472 3097 1187 3025 
Q 903 2953 641 2809 
L 641 3341 
Q 956 3463 1253 3523 
Q 1550 3584 1831 3584 
Q 2591 3584 2966 3190 
Q 3341 2797 3341 1997 
z
" id="DejaVuSans-61" transform="scale(0.015625)"/>
       <path d="M 1959 3097 
Q 1497 3097 1228 2736 
Q 959 2375 959 1747 
Q 959 1119 1226 758 
Q 1494 397 1959 397 
Q 2419 397 2687 759 
Q 2956 1122 2956 1747 
Q 2956 2369 2687 2733 
Q 2419 3097 1959 3097 
z
M 1959 3584 
Q 2709 3584 3137 3096 
Q 3566 2609 3566 1747 
Q 3566 888 3137 398 
Q 2709 -91 1959 -91 
Q 1206 -91 779 398 
Q 353 888 353 1747 
Q 353 2609 779 3096 
Q 1206 3584 1959 3584 
z
" id="DejaVuSans-6f" transform="scale(0.015625)"/>
       <path d="M 3513 2113 
L 3513 0 
L 2938 0 
L 2938 2094 
Q 2938 2591 2744 2837 
Q 2550 3084 2163 3084 
Q 1697 3084 1428 2787 
Q 1159 2491 1159 1978 
L 1159 0 
L 581 0 
L 581 3500 
L 1159 3500 
L 1159 2956 
Q 1366 3272 1645 3428 
Q 1925 3584 2291 3584 
Q 2894 3584 3203 3211 
Q 3513 2838 3513 2113 
z
" id="DejaVuSans-6e" transform="scale(0.015625)"/>
      </defs>
      <use xlink:href="#DejaVuSans-69"/>
      <use x="27.783203" xlink:href="#DejaVuSans-74"/>
      <use x="66.992188" xlink:href="#DejaVuSans-65"/>
      <use x="128.515625" xlink:href="#DejaVuSans-72"/>
      <use x="169.628906" xlink:href="#DejaVuSans-61"/>
      <use x="230.908203" xlink:href="#DejaVuSans-74"/>
      <use x="270.117188" xlink:href="#DejaVuSans-69"/>
      <use x="297.900391" xlink:href="#DejaVuSans-6f"/>
      <use x="359.082031" xlink:href="#DejaVuSans-6e"/>
     </g>
    </g>
   </g>
   <g id="matplotlib.axis_2">
    <g id="ytick_1">
     <g id="line2d_7">
      <defs>
       <path d="M 0 0 
L -3.5 0 
" id="me9a6a21c14" style="stroke:#ffffff;stroke-width:0.8;"/>
      </defs>
      <g>
       <use style="fill:#ffffff;stroke:#ffffff;stroke-width:0.8;" x="126" xlink:href="#me9a6a21c14" y="484.232727"/>
      </g>
     </g>
     <g id="text_8">
      <!-- 0 -->
      <g style="fill:#ffffff;" transform="translate(112.6375 488.031946)scale(0.1 -0.1)">
       <use xlink:href="#DejaVuSans-30"/>
      </g>
     </g>
    </g>
    <g id="ytick_2">
     <g id="line2d_8">
      <g>
       <use style="fill:#ffffff;stroke:#ffffff;stroke-width:0.8;" x="126" xlink:href="#me9a6a21c14" y="428.276002"/>
      </g>
     </g>
     <g id="text_9">
      <!-- 5000 -->
      <g style="fill:#ffffff;" transform="translate(93.55 432.075221)scale(0.1 -0.1)">
       <use xlink:href="#DejaVuSans-35"/>
       <use x="63.623047" xlink:href="#DejaVuSans-30"/>
       <use x="127.246094" xlink:href="#DejaVuSans-30"/>
       <use x="190.869141" xlink:href="#DejaVuSans-30"/>
      </g>
     </g>
    </g>
    <g id="ytick_3">
     <g id="line2d_9">
      <g>
       <use style="fill:#ffffff;stroke:#ffffff;stroke-width:0.8;" x="126" xlink:href="#me9a6a21c14" y="372.319277"/>
      </g>
     </g>
     <g id="text_10">
      <!-- 10000 -->
      <g style="fill:#ffffff;" transform="translate(87.1875 376.118496)scale(0.1 -0.1)">
       <use xlink:href="#DejaVuSans-31"/>
       <use x="63.623047" xlink:href="#DejaVuSans-30"/>
       <use x="127.246094" xlink:href="#DejaVuSans-30"/>
       <use x="190.869141" xlink:href="#DejaVuSans-30"/>
       <use x="254.492188" xlink:href="#DejaVuSans-30"/>
      </g>
     </g>
    </g>
    <g id="ytick_4">
     <g id="line2d_10">
      <g>
       <use style="fill:#ffffff;stroke:#ffffff;stroke-width:0.8;" x="126" xlink:href="#me9a6a21c14" y="316.362552"/>
      </g>
     </g>
     <g id="text_11">
      <!-- 15000 -->
      <g style="fill:#ffffff;" transform="translate(87.1875 320.161771)scale(0.1 -0.1)">
       <use xlink:href="#DejaVuSans-31"/>
       <use x="63.623047" xlink:href="#DejaVuSans-35"/>
       <use x="127.246094" xlink:href="#DejaVuSans-30"/>
       <use x="190.869141" xlink:href="#DejaVuSans-30"/>
       <use x="254.492188" xlink:href="#DejaVuSans-30"/>
      </g>
     </g>
    </g>
    <g id="ytick_5">
     <g id="line2d_11">
      <g>
       <use style="fill:#ffffff;stroke:#ffffff;stroke-width:0.8;" x="126" xlink:href="#me9a6a21c14" y="260.405827"/>
      </g>
     </g>
     <g id="text_12">
      <!-- 20000 -->
      <g style="fill:#ffffff;" transform="translate(87.1875 264.205045)scale(0.1 -0.1)">
       <use xlink:href="#DejaVuSans-32"/>
       <use x="63.623047" xlink:href="#DejaVuSans-30"/>
       <use x="127.246094" xlink:href="#DejaVuSans-30"/>
       <use x="190.869141" xlink:href="#DejaVuSans-30"/>
       <use x="254.492188" xlink:href="#DejaVuSans-30"/>
      </g>
     </g>
    </g>
    <g id="ytick_6">
     <g id="line2d_12">
      <g>
       <use style="fill:#ffffff;stroke:#ffffff;stroke-width:0.8;" x="126" xlink:href="#me9a6a21c14" y="204.449102"/>
      </g>
     </g>
     <g id="text_13">
      <!-- 25000 -->
      <g style="fill:#ffffff;" transform="translate(87.1875 208.24832)scale(0.1 -0.1)">
       <use xlink:href="#DejaVuSans-32"/>
       <use x="63.623047" xlink:href="#DejaVuSans-35"/>
       <use x="127.246094" xlink:href="#DejaVuSans-30"/>
       <use x="190.869141" xlink:href="#DejaVuSans-30"/>
       <use x="254.492188" xlink:href="#DejaVuSans-30"/>
      </g>
     </g>
    </g>
    <g id="ytick_7">
     <g id="line2d_13">
      <g>
       <use style="fill:#ffffff;stroke:#ffffff;stroke-width:0.8;" x="126" xlink:href="#me9a6a21c14" y="148.492376"/>
      </g>
     </g>
     <g id="text_14">
      <!-- 30000 -->
      <g style="fill:#ffffff;" transform="translate(87.1875 152.291595)scale(0.1 -0.1)">
       <defs>
        <path d="M 2597 2516 
Q 3050 2419 3304 2112 
Q 3559 1806 3559 1356 
Q 3559 666 3084 287 
Q 2609 -91 1734 -91 
Q 1441 -91 1130 -33 
Q 819 25 488 141 
L 488 750 
Q 750 597 1062 519 
Q 1375 441 1716 441 
Q 2309 441 2620 675 
Q 2931 909 2931 1356 
Q 2931 1769 2642 2001 
Q 2353 2234 1838 2234 
L 1294 2234 
L 1294 2753 
L 1863 2753 
Q 2328 2753 2575 2939 
Q 2822 3125 2822 3475 
Q 2822 3834 2567 4026 
Q 2313 4219 1838 4219 
Q 1578 4219 1281 4162 
Q 984 4106 628 3988 
L 628 4550 
Q 988 4650 1302 4700 
Q 1616 4750 1894 4750 
Q 2613 4750 3031 4423 
Q 3450 4097 3450 3541 
Q 3450 3153 3228 2886 
Q 3006 2619 2597 2516 
z
" id="DejaVuSans-33" transform="scale(0.015625)"/>
       </defs>
       <use xlink:href="#DejaVuSans-33"/>
       <use x="63.623047" xlink:href="#DejaVuSans-30"/>
       <use x="127.246094" xlink:href="#DejaVuSans-30"/>
       <use x="190.869141" xlink:href="#DejaVuSans-30"/>
       <use x="254.492188" xlink:href="#DejaVuSans-30"/>
      </g>
     </g>
    </g>
    <g id="ytick_8">
     <g id="line2d_14">
      <g>
       <use style="fill:#ffffff;stroke:#ffffff;stroke-width:0.8;" x="126" xlink:href="#me9a6a21c14" y="92.535651"/>
      </g>
     </g>
     <g id="text_15">
      <!-- 35000 -->
      <g style="fill:#ffffff;" transform="translate(87.1875 96.33487)scale(0.1 -0.1)">
       <use xlink:href="#DejaVuSans-33"/>
       <use x="63.623047" xlink:href="#DejaVuSans-35"/>
       <use x="127.246094" xlink:href="#DejaVuSans-30"/>
       <use x="190.869141" xlink:href="#DejaVuSans-30"/>
       <use x="254.492188" xlink:href="#DejaVuSans-30"/>
      </g>
     </g>
    </g>
   </g>
   <g id="line2d_15">
    <path clip-path="url(#pe4ab5a9bcc)" d="M 161.509091 179.693846 
L 162.099188 246.864299 
L 162.394237 270.780204 
L 162.689285 245.733973 
L 163.279382 262.520991 
L 163.574431 261.827128 
L 163.869479 256.041202 
L 164.164528 281.725339 
L 164.754625 302.239074 
L 165.049673 325.08061 
L 165.344722 323.457865 
L 165.63977 301.813803 
L 165.934819 301.713081 
L 166.229867 323.357143 
L 166.524916 331.079171 
L 166.819964 305.395034 
L 167.115013 297.471561 
L 167.70511 336.618886 
L 168.000159 328.057507 
L 168.295207 333.843433 
L 168.590256 335.354264 
L 169.180353 319.328258 
L 169.475401 294.21488 
L 169.77045 305.238355 
L 170.065498 303.61561 
L 170.360547 303.716332 
L 170.655595 353.909514 
L 171.245692 336.31672 
L 171.540741 345.258605 
L 171.83579 336.193615 
L 172.130838 313.35208 
L 172.425887 344.251384 
L 172.720935 353.014207 
L 173.015984 330.98964 
L 173.311032 356.103018 
L 173.606081 349.018897 
L 173.901129 328.15823 
L 174.196178 318.869413 
L 174.491226 339.73008 
L 175.081323 297.87445 
L 175.376372 288.820652 
L 175.966469 250.277659 
L 176.261518 267.019912 
L 176.556566 276.084901 
L 176.851615 267.019912 
L 177.146663 244.178376 
L 177.441712 282.945196 
L 177.73676 305.786731 
L 178.031809 283.762164 
L 178.326857 305.786731 
L 178.621906 305.686009 
L 178.916954 313.296123 
L 179.212003 305.372651 
L 179.507051 314.314536 
L 179.8021 287.365777 
L 180.097148 296.430766 
L 180.392197 321.544145 
L 180.687246 330.597943 
L 180.982294 329.087111 
L 181.277343 356.03587 
L 181.572391 333.194335 
L 181.86744 341.453547 
L 182.162488 362.314215 
L 182.457537 362.414937 
L 182.752585 340.39037 
L 183.047634 349.679186 
L 183.342682 333.809859 
L 183.932779 370.84202 
L 184.817925 297.113438 
L 185.703071 272.022443 
L 185.998119 266.236517 
L 186.293168 249.95311 
L 186.588216 259.006909 
L 187.178313 299.967231 
L 187.76841 313.027531 
L 188.063459 313.228975 
L 188.358507 307.44305 
L 188.653556 288.507294 
L 188.948604 295.591415 
L 189.243653 270.478037 
L 189.538702 276.263963 
L 189.83375 266.975146 
L 190.128799 268.485978 
L 190.423847 273.242299 
L 190.718896 281.165772 
L 191.013944 279.65494 
L 191.604041 321.25317 
L 191.89909 315.467244 
L 192.194138 306.52536 
L 192.489187 279.576601 
L 192.784235 279.475879 
L 193.079284 304.589257 
L 193.374332 282.56469 
L 193.96443 335.958597 
L 194.259478 323.379525 
L 194.554527 301.354958 
L 194.849575 293.63293 
L 195.144624 268.5867 
L 195.734721 283.392849 
L 196.029769 276.275154 
L 196.619866 317.873383 
L 197.209963 263.136515 
L 197.505012 290.924625 
L 197.80006 295.680946 
L 198.095109 272.839411 
L 198.390157 265.117383 
L 198.685206 274.059268 
L 198.980255 250.143363 
L 199.275303 245.387042 
L 199.570352 217.598932 
L 199.8654 236.445157 
L 200.160449 290.488162 
L 200.455497 289.917404 
L 200.750546 294.472281 
L 201.045594 309.367961 
L 201.340643 316.149916 
L 201.635691 316.049194 
L 201.93074 331.918521 
L 202.225788 306.872291 
L 202.520837 297.818493 
L 202.815885 275.793926 
L 203.110934 266.50511 
L 203.405983 287.365777 
L 203.701031 285.854945 
L 203.99608 294.114158 
L 204.291128 294.21488 
L 204.586177 285.149891 
L 204.881225 283.527146 
L 205.176274 264.59139 
L 205.766371 313.18421 
L 206.061419 286.235451 
L 206.356468 271.988869 
L 206.651516 281.277685 
L 206.946565 275.424612 
L 207.241613 300.470842 
L 207.536662 293.688887 
L 207.831711 314.549554 
L 208.126759 312.926809 
L 208.421808 303.637993 
L 208.716856 303.928968 
L 209.011905 298.143042 
L 209.306953 307.084927 
L 209.602002 281.971549 
L 209.89705 281.971549 
L 210.192099 303.996116 
L 210.487147 302.350988 
L 210.782196 341.06185 
L 211.077244 342.830083 
L 211.372293 349.612038 
L 211.667341 349.813482 
L 211.96239 342.539108 
L 212.257439 317.42573 
L 212.847536 334.112025 
L 213.437633 318.265081 
L 213.732681 323.021402 
L 214.02773 297.975172 
L 214.322778 297.87445 
L 214.617827 305.148824 
L 214.912875 332.097583 
L 215.207924 330.474838 
L 215.502972 323.200464 
L 215.798021 348.313842 
L 216.093069 235.505084 
L 216.388118 244.368629 
L 216.978215 285.664692 
L 217.273264 293.588165 
L 217.568312 285.664692 
L 217.863361 262.823157 
L 218.158409 271.765042 
L 218.453458 262.711244 
L 219.043555 259.577667 
L 219.338603 267.83688 
L 219.633652 260.752758 
L 220.223749 304.331856 
L 220.518797 320.201183 
L 220.813846 295.087805 
L 221.108895 285.877328 
L 221.403943 312.826087 
L 221.698992 319.608042 
L 221.99404 298.143042 
L 222.289089 211.029612 
L 222.879186 259.678389 
L 223.469283 308.640524 
L 223.764331 299.698639 
L 224.05938 305.484565 
L 224.354428 297.762536 
L 224.649477 307.051353 
L 224.944525 291.182026 
L 225.239574 300.045571 
L 225.534623 290.756754 
L 225.829671 299.519578 
L 226.419768 259.723155 
L 226.714817 278.65891 
L 227.009865 277.036165 
L 227.304914 285.295378 
L 227.599962 279.509453 
L 227.895011 279.308008 
L 228.485108 229.495332 
L 228.780156 257.283441 
L 229.075205 265.00547 
L 229.665302 249.964302 
L 230.550448 315.747028 
L 231.140545 333.295057 
L 231.730642 315.142695 
L 232.02569 315.344139 
L 232.320739 321.130065 
L 232.615787 295.445928 
L 232.910836 311.315255 
L 233.205884 306.558934 
L 233.500933 306.659656 
L 233.795981 297.896833 
L 234.09103 270.108723 
L 234.681127 236.165373 
L 235.271224 270.33255 
L 235.566273 274.059268 
L 235.861321 299.172646 
L 236.15637 280.23689 
L 236.451418 269.985618 
L 236.746467 278.748441 
L 237.041515 271.026413 
L 237.336564 250.165746 
L 237.631612 243.383791 
L 237.926661 264.244458 
L 238.221709 264.143736 
L 238.516758 243.283069 
L 239.106855 286.168303 
L 239.401904 265.307636 
L 239.696952 273.029664 
L 239.992001 254.575136 
L 240.287049 275.435803 
L 240.582098 267.512331 
L 240.877146 300.549181 
L 241.172195 309.759658 
L 241.467243 311.382403 
L 241.762292 290.521736 
L 242.05734 292.032568 
L 242.647437 273.880206 
L 242.942486 248.766828 
L 243.237534 255.548783 
L 243.532583 247.28957 
L 243.827632 255.548783 
L 244.12268 239.679456 
L 244.712777 223.541536 
L 245.007826 241.223861 
L 245.597923 294.125349 
L 245.892971 286.403321 
L 246.18802 307.263988 
L 246.483068 285.239421 
L 246.778117 294.304411 
L 247.073165 266.516301 
L 247.368214 258.257088 
L 247.663262 273.264682 
L 247.958311 282.128227 
L 248.548408 230.133238 
L 248.843457 246.002566 
L 249.138505 238.728191 
L 249.433554 263.774422 
L 249.728602 263.572977 
L 250.023651 303.03366 
L 250.318699 304.656405 
L 250.613748 330.340542 
L 250.908796 321.476997 
L 251.203845 293.688887 
L 251.498893 286.414513 
L 252.08899 304.242325 
L 252.384039 279.196095 
L 252.679088 271.272623 
L 252.974136 244.323864 
L 253.269185 235.113387 
L 253.564233 255.974054 
L 254.15433 269.683452 
L 254.449379 269.58273 
L 255.039476 307.096118 
L 255.629573 292.05495 
L 255.924621 299.329325 
L 256.21967 234.318801 
L 256.514718 262.43146 
L 256.809767 262.330738 
L 257.104816 288.014875 
L 257.399864 297.068673 
L 257.694913 318.712734 
L 257.989961 318.813456 
L 258.28501 327.878446 
L 258.580058 349.903013 
L 258.875107 349.802291 
L 259.465204 366.175229 
L 259.760252 367.797974 
L 260.055301 373.583899 
L 260.350349 364.530101 
L 260.645398 362.907356 
L 260.940446 363.008078 
L 261.235495 354.748865 
L 261.530543 333.888198 
L 261.825592 352.342726 
L 262.120641 345.560771 
L 262.415689 364.496527 
L 262.710738 341.654992 
L 263.005786 365.570896 
L 263.595883 312.669408 
L 263.890932 303.380592 
L 264.18598 328.49397 
L 264.776077 288.395381 
L 265.071126 306.849909 
L 265.366174 313.631864 
L 265.661223 313.430419 
L 265.956271 304.219943 
L 266.25132 312.143415 
L 266.546369 328.012742 
L 267.431514 352.756806 
L 268.021611 334.481339 
L 268.31666 335.992171 
L 268.611708 330.206246 
L 268.906757 312.523921 
L 269.496854 296.576254 
L 269.791902 302.362179 
L 270.086951 303.984924 
L 270.381999 313.273741 
L 270.677048 334.917802 
L 270.972097 319.048475 
L 271.267145 227.357785 
L 272.152291 299.799361 
L 272.447339 290.734372 
L 272.742388 292.245203 
L 273.037436 310.699731 
L 273.627533 292.704048 
L 273.922582 268.788144 
L 274.21763 268.888866 
L 274.512679 303.761097 
L 274.807727 312.814896 
L 275.102776 331.750651 
L 275.397825 330.23982 
L 275.692873 322.316347 
L 275.987922 329.098303 
L 276.28297 354.144533 
L 276.578019 369.152126 
L 276.873067 359.941649 
L 277.168116 339.080982 
L 277.758213 355.946339 
L 278.053261 357.569084 
L 278.643358 310.878793 
L 278.938407 301.936908 
L 279.233455 301.735464 
L 279.528504 323.379525 
L 279.823553 318.623204 
L 280.118601 316.59757 
L 280.41365 331.750651 
L 280.708698 331.952096 
L 281.003747 333.462927 
L 281.593844 349.309872 
L 281.888892 358.598688 
L 282.183941 383.644918 
L 282.478989 374.579929 
L 283.069086 327.822489 
L 283.364135 318.958944 
L 283.659183 328.023933 
L 283.954232 318.735117 
L 284.249281 342.651021 
L 284.544329 335.376647 
L 284.839378 344.240192 
L 285.134426 328.370865 
L 285.429475 319.317067 
L 285.724523 342.158602 
L 286.019572 337.402281 
L 286.31462 346.691097 
L 286.609669 351.447419 
L 286.904717 351.346696 
L 287.199766 343.423224 
L 287.494814 352.365109 
L 287.789863 369.107361 
L 288.084911 367.596529 
L 288.37996 345.952468 
L 288.675008 351.738394 
L 288.970057 334.996141 
L 289.265106 350.865469 
L 289.560154 188.322373 
L 289.855203 206.004699 
L 290.150251 231.118077 
L 290.4453 243.036859 
L 290.740348 243.339026 
L 291.035397 249.124951 
L 291.330445 279.475879 
L 291.625494 273.689953 
L 291.920542 297.404413 
L 292.215591 288.496103 
L 292.510639 297.784919 
L 292.805688 272.671541 
L 293.100736 272.570819 
L 293.395785 245.62206 
L 294.280931 308.562184 
L 294.575979 280.774075 
L 294.871028 282.39682 
L 295.166076 289.178775 
L 295.461125 274.171181 
L 295.756173 299.284559 
L 296.051222 290.074082 
L 296.34627 288.451337 
L 296.641319 315.400096 
L 296.936367 330.40769 
L 297.231416 315.400096 
L 297.526464 306.458212 
L 297.821513 306.659656 
L 298.41161 349.511316 
L 299.296756 304.186368 
L 299.591804 313.128253 
L 300.181901 295.13257 
L 300.47695 270.019192 
L 300.771998 290.879859 
L 301.067047 268.855292 
L 301.657144 322.327539 
L 301.952192 296.643402 
L 302.247241 288.384189 
L 302.54229 296.811272 
L 302.837338 301.265427 
L 303.132387 292.446648 
L 303.427435 299.530769 
L 303.722484 317.213094 
L 304.312581 285.272995 
L 304.607629 310.957132 
L 304.902678 318.67916 
L 305.197726 318.477716 
L 305.492775 324.263641 
L 305.787823 339.271235 
L 306.37792 288.64159 
L 306.672969 288.843034 
L 306.968018 279.554218 
L 307.263066 304.667596 
L 307.558115 283.806929 
L 308.148212 270.097532 
L 308.44326 244.984153 
L 308.738309 236.120608 
L 309.033357 210.436471 
L 309.328406 215.192793 
L 309.623454 193.548731 
L 309.918503 215.573299 
L 310.213551 224.862115 
L 310.5086 241.604367 
L 310.803648 273.108003 
L 311.688794 326.367614 
L 311.983843 317.313816 
L 312.278891 332.32141 
L 312.57394 317.313816 
L 312.868988 324.58819 
L 313.164037 324.487468 
L 313.459085 333.250292 
L 313.754134 314.314536 
L 314.049182 307.040161 
L 314.344231 313.822117 
L 314.934328 264.792834 
L 315.229376 288.708738 
L 315.524425 288.80946 
L 315.819474 283.023535 
L 316.114522 290.107656 
L 316.409571 264.42352 
L 316.704619 272.145548 
L 316.999668 253.69102 
L 317.589765 238.045519 
L 317.884813 304.566874 
L 318.179862 312.490347 
L 318.47491 312.288902 
L 318.769959 313.273741 
L 319.065007 305.708391 
L 319.360056 307.331136 
L 319.655104 350.037309 
L 319.950153 373.953213 
L 320.245201 373.751769 
L 321.425396 290.678415 
L 321.720444 345.963659 
L 322.015493 338.241631 
L 322.310541 363.287862 
L 322.60559 372.151407 
L 322.900638 372.050685 
L 323.195687 399.838794 
L 323.490735 378.194733 
L 323.785784 387.40521 
L 324.080832 404.147462 
L 324.375881 413.20126 
L 324.965978 364.675588 
L 325.261027 258.783082 
L 325.556075 233.098945 
L 326.146172 286.034007 
L 326.736269 317.962914 
L 327.031318 323.74884 
L 327.326366 315.489627 
L 327.621415 322.764001 
L 327.916463 315.489627 
L 328.211512 330.497221 
L 328.50656 315.489627 
L 328.801609 320.245949 
L 329.096657 320.145227 
L 329.391706 295.098996 
L 329.686755 286.615957 
L 329.981803 264.971895 
L 330.5719 296.721741 
L 330.866949 296.822463 
L 331.161997 304.096838 
L 331.457046 302.586006 
L 332.047143 260.808715 
L 332.342191 255.02279 
L 332.63724 256.533621 
L 332.932288 239.791369 
L 333.227337 261.43543 
L 333.522385 252.493546 
L 333.817434 252.392824 
L 334.112483 252.493546 
L 334.407531 320.525732 
L 334.70258 322.450644 
L 334.997628 340.244882 
L 335.292677 340.244882 
L 335.587725 365.35826 
L 335.882774 356.494715 
L 336.472871 403.218581 
L 336.767919 381.194014 
L 337.062968 374.109892 
L 337.358016 373.304115 
L 337.653065 395.328682 
L 337.948113 372.487147 
L 338.243162 381.350692 
L 338.538211 355.666556 
L 338.833259 374.121084 
L 339.128308 347.172325 
L 339.423356 372.856462 
L 339.718405 388.725789 
L 340.013453 395.80991 
L 340.308502 379.067658 
L 340.60355 406.016417 
L 340.898599 380.33228 
L 341.193647 385.088602 
L 341.488696 378.00448 
L 341.783744 403.688617 
L 342.078793 403.789339 
L 342.373841 412.731224 
L 342.66889 404.472011 
L 342.963939 404.673456 
L 343.258987 395.80991 
L 343.554036 370.76368 
L 344.144133 356.03587 
L 344.439181 330.351733 
L 344.73423 339.416723 
L 345.029278 320.480967 
L 345.324327 315.724645 
L 345.619375 324.58819 
L 345.914424 315.299374 
L 346.209472 322.573748 
L 346.504521 322.473026 
L 346.799569 315.198652 
L 347.094618 323.939092 
L 347.389667 349.052471 
L 347.684715 356.136592 
L 347.979764 375.072348 
L 348.274812 375.17307 
L 348.569861 381.955025 
L 349.455006 356.942369 
L 349.750055 379.783904 
L 350.045103 374.512781 
L 350.340152 346.724671 
L 350.6352 337.514194 
L 350.930249 346.724671 
L 351.225297 327.788915 
L 351.520346 318.936561 
L 351.815394 328.001551 
L 352.405492 286.425704 
L 352.70054 294.349176 
L 352.995589 296.061452 
L 353.290637 290.790328 
L 353.585686 303.380592 
L 353.880734 303.380592 
L 354.175783 236.165373 
L 354.470831 257.026041 
L 354.76588 264.110162 
L 355.060928 254.821346 
L 355.651025 212.965715 
L 355.946074 229.707967 
L 356.241122 229.808689 
L 356.536171 239.097506 
L 357.126268 283.079492 
L 357.716365 265.374784 
L 358.011414 308.909116 
L 358.306462 334.593253 
L 358.896559 309.412727 
L 359.191608 324.42032 
L 359.486656 315.131504 
L 359.781705 334.06726 
L 360.076753 326.983138 
L 360.66685 287.186715 
L 360.961899 296.397192 
L 361.256948 273.555657 
L 361.551996 278.311979 
L 361.847045 269.246989 
L 362.142093 245.331085 
L 362.437142 268.17262 
L 362.73219 268.071898 
L 363.617336 332.086392 
L 364.207433 321.544145 
L 364.502481 303.861819 
L 364.79753 322.797575 
L 365.092578 329.881697 
L 365.387627 354.995075 
L 365.682676 336.059319 
L 365.977724 334.436574 
L 366.272773 318.567247 
L 366.567821 293.453869 
L 366.86287 295.076614 
L 367.157918 295.177336 
L 367.452967 246.427837 
L 367.748015 301.489254 
L 368.043064 301.489254 
L 368.338112 300.011997 
L 368.633161 322.596131 
L 368.928209 327.352453 
L 369.518306 282.73256 
L 369.813355 276.946635 
L 370.108404 285.205847 
L 370.403452 301.948099 
L 370.993549 285.798989 
L 371.288598 258.010879 
L 371.583646 249.068994 
L 371.878695 271.910529 
L 372.173743 277.696455 
L 372.468792 277.897899 
L 373.353937 204.191701 
L 373.648986 197.890973 
L 373.944034 225.679083 
L 374.239083 227.458507 
L 374.534132 246.394263 
L 374.82918 247.524589 
L 375.124229 256.466473 
L 375.714326 239.533968 
L 376.009374 222.791716 
L 376.304423 231.554539 
L 376.599471 210.693872 
L 376.89452 225.701466 
L 377.189568 232.785587 
L 377.484617 259.734346 
L 377.779665 253.948421 
L 378.074714 261.670449 
L 378.369762 252.728564 
L 378.664811 224.940454 
L 378.95986 245.801121 
L 379.254908 230.793528 
L 379.549957 231.599305 
L 380.140054 193.056312 
L 380.730151 211.130335 
L 381.025199 232.774396 
L 381.320248 225.052368 
L 381.910345 184.472551 
L 382.205393 212.26066 
L 382.500442 318.276272 
L 382.79549 310.744497 
L 383.090539 311.572656 
L 383.385587 320.335479 
L 383.680636 312.076267 
L 384.270733 346.702288 
L 384.565782 371.748518 
L 384.86083 377.993289 
L 385.155879 370.718915 
L 385.450927 347.116368 
L 386.041024 328.852093 
L 386.336073 329.053537 
L 386.631121 338.107335 
L 386.92617 313.061105 
L 387.221218 341.419973 
L 387.516267 334.638018 
L 388.106364 290.264335 
L 388.696461 308.237635 
L 388.99151 300.515607 
L 389.286558 308.77482 
L 389.581607 300.515607 
L 389.876655 278.49104 
L 390.171704 269.627495 
L 390.466752 276.901869 
L 390.761801 260.159617 
L 391.056849 235.046239 
L 391.351898 262.834349 
L 391.646946 271.093561 
L 391.941995 360.355729 
L 392.237043 364.116021 
L 392.532092 347.373769 
L 392.827141 340.289648 
L 393.122189 355.297241 
L 393.417238 346.433696 
L 393.712286 324.409129 
L 394.302383 340.256074 
L 394.597432 331.202275 
L 394.89248 353.226842 
L 395.187529 362.280641 
L 395.482577 353.215651 
L 395.777626 351.592906 
L 396.072674 360.657896 
L 396.367723 354.87197 
L 396.662771 354.771248 
L 396.95782 371.5135 
L 397.252869 379.772713 
L 398.433063 289.648811 
L 398.728111 280.885988 
L 399.318208 296.531488 
L 399.613257 269.58273 
L 399.908305 264.826408 
L 400.203354 270.612333 
L 400.498402 263.528212 
L 401.088499 299.665065 
L 401.383548 292.110907 
L 401.678597 301.175897 
L 401.973645 328.964006 
L 402.563742 346.937307 
L 402.858791 339.215278 
L 403.153839 364.899415 
L 403.448888 355.834426 
L 403.743936 363.556454 
L 404.334033 322.898297 
L 404.629082 302.03763 
L 404.92413 318.779882 
L 405.219179 260.719184 
L 405.514227 286.403321 
L 405.809276 294.125349 
L 406.399373 332.836212 
L 406.694422 324.912739 
L 406.98947 304.052072 
L 407.284519 326.076639 
L 407.579567 331.862565 
L 407.874616 322.652088 
L 408.169664 331.940904 
L 408.464713 331.73946 
L 408.759761 330.116715 
L 409.05481 322.394687 
L 409.349858 297.281309 
L 409.939955 281.714148 
L 410.235004 288.496103 
L 410.530052 272.626775 
L 410.825101 282.73256 
L 411.12015 301.433298 
L 411.415198 312.121032 
L 411.710247 306.335107 
L 412.005295 284.691045 
L 412.300344 276.319919 
L 412.595392 284.041947 
L 412.890441 261.200412 
L 413.185489 279.498261 
L 413.480538 285.910902 
L 413.775586 258.962143 
L 414.070635 272.559627 
L 414.660732 321.58891 
L 414.95578 299.944849 
L 415.545878 340.043438 
L 415.840926 362.884973 
L 416.135975 353.831175 
L 416.431023 332.187114 
L 417.02112 320.156418 
L 417.316169 303.682758 
L 417.611217 311.941971 
L 417.906266 304.857849 
L 418.496363 321.074108 
L 418.791411 313.799734 
L 419.08646 313.699012 
L 419.381508 212.932141 
L 419.676557 220.710126 
L 419.971606 213.435752 
L 420.561703 259.678389 
L 420.856751 267.400417 
L 421.1518 269.023162 
L 421.446848 250.568634 
L 421.741897 258.827847 
L 422.036945 237.183786 
L 422.627042 220.206515 
L 422.922091 245.252746 
L 423.217139 243.741914 
L 423.512188 252.952391 
L 423.807236 251.329646 
L 424.102285 226.283416 
L 424.397334 274.227138 
L 425.282479 298.277338 
L 425.872576 281.15458 
L 426.167625 292.827153 
L 426.462673 316.743058 
L 426.757722 293.901522 
L 427.05277 246.259967 
L 427.347819 229.517714 
L 427.642867 257.305824 
L 427.937916 257.507268 
L 428.232964 262.26359 
L 428.528013 281.199346 
L 429.11811 264.602581 
L 429.708207 302.11597 
L 430.003256 302.317414 
L 430.298304 302.216692 
L 430.593353 303.839437 
L 430.888401 299.195029 
L 431.18345 301.903334 
L 431.478498 294.069393 
L 431.773547 321.018151 
L 432.068595 316.26183 
L 432.363644 333.004082 
L 432.658692 307.890704 
L 432.953741 312.647025 
L 433.24879 335.488561 
L 433.543838 344.699038 
L 434.428984 320.212375 
L 434.724032 314.426449 
L 435.019081 287.47769 
L 435.314129 285.194656 
L 435.609178 310.308034 
L 435.904226 319.070857 
L 436.494323 286.459278 
L 436.789372 302.328605 
L 437.379469 319.876634 
L 437.674518 304.869041 
L 437.969566 313.922839 
L 438.559663 271.41811 
L 439.14976 311.997927 
L 439.739857 272.671541 
L 440.034906 265.889586 
L 440.329954 275.211976 
L 440.625003 292.894301 
L 440.920051 272.033634 
L 441.510148 288.372998 
L 442.100245 325.975917 
L 442.395294 325.975917 
L 442.690343 327.598662 
L 442.985391 336.540547 
L 443.28044 258.257088 
L 443.870537 274.283095 
L 444.165585 269.67226 
L 444.460634 261.871893 
L 444.755682 262.073337 
L 445.050731 256.287412 
L 445.345779 264.210884 
L 445.640828 255.268999 
L 445.935876 233.244432 
L 446.230925 233.14371 
L 446.525973 258.18994 
L 446.821022 265.464315 
L 447.411119 246.965021 
L 447.706168 256.175498 
L 448.001216 237.239742 
L 448.591313 253.724594 
L 448.886362 225.936484 
L 449.18141 231.722409 
L 449.771507 215.573299 
L 450.066556 197.890973 
L 450.361604 331.963287 
L 450.656653 338.118527 
L 450.951701 310.330417 
L 451.24675 310.229695 
L 451.541799 313.631864 
L 452.131896 296.419575 
L 452.426944 296.621019 
L 452.721993 289.536898 
L 453.017041 271.08237 
L 453.31209 279.341583 
L 453.607138 252.392824 
L 454.197235 235.079813 
L 454.492284 214.219146 
L 454.787332 214.219146 
L 455.082381 221.49352 
L 455.377429 196.380142 
L 455.672478 214.532503 
L 455.967527 219.288825 
L 456.262575 212.50687 
L 456.557624 229.237931 
L 456.852672 221.045866 
L 457.147721 228.06284 
L 457.442769 268.150237 
L 458.032866 255.280191 
L 458.327915 280.393569 
L 458.622963 253.44481 
L 458.918012 261.368282 
L 459.21306 246.360689 
L 459.508109 249.20329 
L 459.803157 258.066836 
L 460.098206 257.865391 
L 460.393255 276.890678 
L 460.688303 315.735837 
L 460.983352 323.659309 
L 461.573449 370.416748 
L 462.458594 310.061825 
L 462.753643 314.818146 
L 463.048691 306.894674 
L 463.34374 287.958918 
L 463.638788 294.740873 
L 463.933837 293.118128 
L 464.818983 342.818892 
L 465.114031 342.818892 
L 465.40908 349.903013 
L 465.704128 377.691123 
L 465.999177 385.413151 
L 466.294225 366.958623 
L 466.589274 362.202301 
L 466.884322 354.278829 
L 467.179371 355.901574 
L 467.474419 346.691097 
L 467.769468 346.892541 
L 468.064516 279.587792 
L 468.359565 279.095373 
L 468.654613 287.354586 
L 468.949662 315.142695 
L 469.244711 309.35677 
L 469.539759 300.29178 
L 470.129856 316.508039 
L 471.015002 291.618488 
L 471.31005 297.404413 
L 471.605099 298.087085 
L 471.900147 277.226418 
L 472.195196 286.291408 
L 472.490244 286.39213 
L 472.785293 271.384536 
L 473.080341 280.248081 
L 473.37539 257.406546 
L 473.670438 249.483074 
L 473.965487 269.772983 
L 474.260536 302.61958 
L 474.555584 293.756035 
L 474.850633 295.266866 
L 475.44073 278.580571 
L 475.735778 280.013063 
L 476.030827 296.755315 
L 476.325875 321.868694 
L 476.915972 281.389599 
L 477.211021 299.844127 
L 477.506069 308.103339 
L 477.801118 309.726084 
L 478.096166 309.927528 
L 478.391215 324.935122 
L 478.686264 315.870133 
L 478.981312 338.711668 
L 479.276361 338.610946 
L 479.571409 313.497568 
L 479.866458 322.439452 
L 480.161506 300.795391 
L 480.456555 321.656058 
L 480.751603 314.874103 
L 481.046652 299.004776 
L 481.3417 289.794299 
L 481.931797 241.145522 
L 482.226846 257.966113 
L 482.521894 239.030358 
L 482.816943 285.709458 
L 483.111992 287.220289 
L 483.40704 291.976611 
L 483.702089 282.766134 
L 483.997137 282.56469 
L 484.292186 290.823903 
L 484.587234 281.960357 
L 484.882283 298.702609 
L 486.062477 220.822039 
L 486.357525 204.079787 
L 486.652574 213.044055 
L 487.242671 163.611884 
L 487.53772 185.255945 
L 487.832768 185.457389 
L 488.127817 194.399274 
L 488.717914 233.714469 
L 489.012962 214.778713 
L 489.308011 205.489897 
L 489.898108 223.563919 
L 490.193156 249.248056 
L 490.488205 247.737224 
L 491.078302 202.960653 
L 491.37335 217.968246 
L 491.668399 213.211925 
L 491.963448 198.204331 
L 492.258496 205.478705 
L 492.553545 222.332871 
L 492.848593 231.800749 
L 493.43869 192.888442 
L 493.733739 210.570767 
L 494.028787 212.193512 
L 494.323836 203.430689 
L 494.618884 211.488458 
L 494.913933 227.469698 
L 495.208981 220.66536 
L 495.799078 257.395355 
L 496.094127 239.71303 
L 496.389176 214.028893 
L 496.979273 251.721343 
L 497.274321 251.922787 
L 497.56937 229.081252 
L 497.864418 237.844075 
L 498.159467 233.087753 
L 498.454515 260.036512 
L 498.749564 275.044106 
L 499.044612 282.766134 
L 499.339661 273.902589 
L 499.634709 295.927156 
L 499.929758 304.992145 
L 500.224806 279.945915 
L 500.519855 270.735438 
L 500.814904 272.24627 
L 501.405001 290.398631 
L 501.995098 256.93651 
L 502.290146 282.620647 
L 502.585195 281.109815 
L 502.880243 286.89574 
L 503.47034 327.419601 
L 503.765389 306.558934 
L 504.060437 298.881671 
L 504.355486 211.75705 
L 504.945583 262.386695 
L 505.240631 270.310167 
L 505.53568 271.820999 
L 505.830729 286.828592 
L 506.125777 261.144455 
L 506.715874 311.941971 
L 507.010923 296.072643 
L 507.305971 272.201504 
L 507.60102 281.06505 
L 507.896068 272.302226 
L 508.191117 259.60005 
L 508.486165 257.44012 
L 508.781214 266.493918 
L 509.076262 264.871173 
L 509.371311 291.819932 
L 509.666359 284.545558 
L 510.551505 220.631786 
L 511.141602 236.131799 
L 511.731699 221.135397 
L 512.026748 222.758142 
L 512.321796 231.935045 
L 512.616845 259.723155 
L 513.206942 275.704395 
L 513.797039 224.000381 
L 514.682185 205.0982 
L 514.977233 210.123113 
L 515.272282 209.250189 
L 515.56733 236.198947 
L 515.862379 228.275475 
L 516.157427 226.65273 
L 516.452476 228.275475 
L 516.747524 235.549849 
L 517.042573 227.827821 
L 517.337621 226.205076 
L 517.927718 274.092842 
L 518.222767 272.58201 
L 518.517815 274.092842 
L 518.812864 255.157086 
L 519.107913 280.270464 
L 519.402961 264.401137 
L 519.69801 283.336893 
L 519.993058 275.07768 
L 520.583155 290.924625 
L 521.173252 272.805837 
L 521.468301 280.729309 
L 521.763349 271.865764 
L 522.058398 246.752386 
L 522.353446 280.785266 
L 522.648495 272.156739 
L 522.943543 272.156739 
L 523.238592 265.184531 
L 523.533641 264.983087 
L 523.828689 266.572258 
L 524.123738 258.648786 
L 524.418786 265.900777 
L 524.713835 267.523522 
L 525.008883 291.439426 
L 525.303932 284.355305 
L 525.59898 280.382378 
L 525.894029 280.382378 
L 526.189077 272.458905 
L 526.484126 288.328233 
L 526.779174 279.274434 
L 527.074223 251.486325 
L 527.369271 300.616329 
L 527.66432 300.515607 
L 527.959369 272.727498 
L 528.254417 280.001872 
L 528.549466 302.843407 
L 528.844514 293.554591 
L 529.139563 288.798269 
L 529.434611 288.999713 
L 529.72966 288.798269 
L 530.024708 266.773702 
L 530.319757 273.857823 
L 530.614805 255.123512 
L 530.909854 265.800055 
L 531.204902 264.031823 
L 531.499951 279.039416 
L 531.794999 288.249893 
L 532.090048 304.11922 
L 532.385096 281.277685 
L 532.680145 309.065795 
L 532.975194 318.130784 
L 533.565291 302.586006 
L 533.860339 293.375529 
L 534.155388 302.586006 
L 534.450436 287.578412 
L 534.745485 313.262549 
L 535.040533 285.47444 
L 535.335582 300.482033 
L 535.63063 283.739781 
L 535.925679 302.194309 
L 536.220727 293.935096 
L 536.515776 295.445928 
L 536.810824 317.470495 
L 537.105873 308.60695 
L 537.400922 317.895766 
L 537.69597 299.441238 
L 537.991019 297.930407 
L 538.581116 312.971574 
L 538.876164 304.712362 
L 539.171213 304.712362 
L 539.466261 295.423545 
L 539.76131 273.398978 
L 540.351407 290.421014 
L 540.646455 312.065075 
L 540.941504 320.928621 
L 541.236552 320.928621 
L 541.82665 303.604419 
L 542.121698 322.058947 
L 542.416747 322.159669 
L 542.711795 312.949192 
L 543.006844 287.265055 
L 543.301892 296.553871 
L 543.596941 315.489627 
L 543.891989 261.480196 
L 544.187038 283.124257 
L 544.777135 240.619529 
L 545.072183 246.405454 
L 545.66228 246.506176 
L 545.957329 246.70762 
L 546.252378 273.656379 
L 546.842475 232.05815 
L 547.137523 239.142271 
L 547.432572 264.255649 
L 547.72762 257.149145 
L 548.022669 278.009812 
L 548.317717 261.26756 
L 548.612766 269.191033 
L 548.907814 242.242274 
L 549.202863 249.024229 
L 549.79296 317.145946 
L 550.088008 317.145946 
L 550.383057 325.405159 
L 550.973154 284.825342 
L 551.268203 284.825342 
L 551.563251 294.035819 
L 552.153348 256.365751 
L 552.448397 304.846658 
L 552.743445 312.277711 
L 553.038494 306.491786 
L 553.333542 284.467219 
L 553.628591 285.97805 
L 553.923639 276.689234 
L 554.218688 283.963608 
L 554.513736 263.102941 
L 554.808785 255.828567 
L 555.103834 274.283095 
L 555.693931 236.769706 
L 555.988979 257.630373 
L 556.284028 266.684171 
L 556.579076 268.306916 
L 556.874125 242.622779 
L 557.169173 268.799335 
L 557.464222 283.806929 
L 557.75927 267.064677 
L 558.054319 241.951299 
L 558.349367 263.59536 
L 558.644416 237.911223 
L 558.939464 237.911223 
L 559.82461 194.611909 
L 560.119659 200.397835 
L 560.414707 200.397835 
L 560.709756 238.784148 
L 561.004804 215.942613 
L 561.594901 215.942613 
L 562.184998 233.546599 
L 562.480047 255.571166 
L 563.070144 241.21267 
L 563.365192 263.416299 
L 563.660241 240.574763 
L 563.955289 292.222821 
L 564.250338 292.122099 
L 564.545387 286.336173 
L 564.840435 258.548063 
L 565.135484 257.708713 
L 565.430532 266.997529 
L 566.020629 276.387067 
L 566.315678 267.098251 
L 566.610726 276.308728 
L 566.905775 300.224632 
L 567.200823 300.12391 
L 567.495872 317.806235 
L 567.79092 317.806235 
L 568.085969 302.798642 
L 568.381017 293.935096 
L 568.676066 294.136541 
L 569.266163 253.433619 
L 569.561212 269.302946 
L 569.85626 276.387067 
L 570.151309 254.3625 
L 570.446357 245.152023 
L 570.741406 227.469698 
L 571.036454 240.977652 
L 571.626551 240.977652 
L 571.9216 257.798243 
L 572.216648 248.509427 
L 572.511697 250.020259 
L 572.806745 234.150931 
L 573.101794 207.202172 
L 573.396843 207.202172 
L 573.691891 213.446943 
L 573.98694 213.446943 
L 574.281988 248.722062 
L 574.577037 257.787052 
L 574.872085 256.164307 
L 575.167134 257.787052 
L 575.462182 229.998942 
L 575.757231 228.488111 
L 576.052279 233.244432 
L 576.347328 240.96646 
L 576.642376 234.184505 
L 576.937425 216.50218 
L 577.232473 216.50218 
L 577.527522 198.047652 
L 577.822571 192.284109 
L 578.117619 207.090259 
L 578.412668 208.992788 
L 578.707716 209.194232 
L 579.002765 199.905415 
L 579.297813 199.905415 
L 579.592862 206.687371 
L 579.88791 187.751615 
L 580.478007 172.408281 
L 581.068104 172.329941 
L 581.363153 172.329941 
L 581.658201 181.618758 
L 581.95325 181.618758 
L 582.248299 188.702879 
L 582.543347 188.702879 
L 582.838396 317.750279 
L 583.133444 319.373024 
L 583.428493 301.690699 
L 583.723541 301.892143 
L 584.01859 280.248081 
L 584.608687 296.732933 
L 584.903735 289.458558 
L 585.198784 287.835813 
L 585.493832 287.835813 
L 585.788881 271.093561 
L 586.083929 279.017034 
L 586.674027 279.117756 
L 587.264124 260.965394 
L 587.559172 271.518832 
L 587.854221 271.518832 
L 588.444318 321.678441 
L 588.739366 299.653874 
L 589.034415 299.754596 
L 589.329463 292.480222 
L 589.91956 308.461462 
L 590.214609 283.348084 
L 591.099755 256.287412 
L 591.394803 235.997503 
L 591.689852 234.374758 
L 591.9849 243.316643 
L 592.279949 244.939388 
L 592.574997 244.939388 
L 592.870046 248.386322 
L 593.165094 254.172248 
L 593.460143 253.601489 
L 593.755191 244.312673 
L 594.05024 244.312673 
L 594.345288 266.33724 
L 594.935385 266.33724 
L 595.230434 264.714495 
L 595.525482 288.249893 
L 595.820531 270.567568 
L 596.11558 265.408358 
L 597.000725 265.408358 
L 597.590822 300.437268 
L 597.885871 307.219223 
L 598.180919 332.265453 
L 598.475968 315.523201 
L 598.771016 306.312724 
L 599.066065 329.154259 
L 599.361113 222.265723 
L 599.656162 203.531411 
L 599.95121 210.615533 
L 600.836356 210.615533 
L 601.131405 226.48486 
L 601.426453 217.722037 
L 601.721502 233.703277 
L 602.01655 242.566823 
L 602.311599 242.566823 
L 602.606647 262.700052 
L 602.901696 262.700052 
L 603.196744 260.025321 
L 603.491793 282.049888 
L 603.786841 282.049888 
L 604.08189 280.427143 
L 604.376938 282.049888 
L 604.671987 282.049888 
L 604.967036 276.263963 
L 605.557133 290.991773 
L 605.852181 265.307636 
L 606.14723 283.762164 
L 606.442278 274.708366 
L 606.737327 274.820279 
L 607.032375 281.602234 
L 607.327424 281.602234 
L 607.622472 273.343022 
L 607.917521 273.343022 
L 608.212569 281.602234 
L 608.802666 281.602234 
L 609.097715 278.860355 
L 609.392764 269.806557 
L 609.687812 253.019539 
L 609.982861 258.805464 
L 610.868006 258.805464 
L 611.163055 231.856706 
L 611.458103 246.360689 
L 611.753152 246.360689 
L 612.0482 243.95455 
L 612.638297 243.95455 
L 612.933346 242.331804 
L 613.228394 242.331804 
L 613.523443 251.19535 
L 614.408589 251.19535 
L 614.703637 249.460691 
L 614.998686 240.742633 
L 616.17888 240.742633 
L 616.473928 232.516995 
L 616.768977 232.516995 
L 617.064025 228.64479 
L 617.359074 228.64479 
L 617.654122 219.702905 
L 617.949171 219.702905 
L 618.24422 227.536846 
L 618.539268 220.452725 
L 620.014511 220.452725 
L 620.309559 214.6668 
L 620.604608 232.349125 
L 621.489753 232.349125 
L 621.784802 239.824943 
L 622.07985 239.824943 
L 622.374899 232.102915 
L 622.669948 232.102915 
L 622.964996 232.259594 
L 623.260045 230.524935 
L 623.850142 230.524935 
L 624.14519 221.314459 
L 624.735287 221.314459 
L 625.030336 230.077282 
L 625.325384 230.077282 
L 625.915481 182.749084 
L 626.21053 182.749084 
L 626.800627 200.901445 
L 627.095675 200.901445 
L 627.390724 191.690968 
L 627.685773 191.690968 
L 627.980821 190.068223 
L 629.751112 190.068223 
L 630.046161 194.824545 
L 630.341209 186.901073 
L 630.636258 171.893479 
L 631.226355 171.893479 
L 631.521403 178.9776 
L 632.701598 178.876878 
L 632.996646 187.930676 
L 633.291695 178.876878 
L 634.17684 178.876878 
L 634.471889 158.016211 
L 635.947131 158.016211 
L 636.24218 174.758463 
L 636.832277 174.758463 
L 637.127326 177.030306 
L 637.717423 177.131028 
L 638.602568 177.131028 
L 638.897617 199.155595 
L 644.20849 199.054873 
L 644.503539 204.035022 
L 645.388685 204.035022 
L 645.683733 196.760648 
L 645.978782 196.760648 
L 646.27383 178.30612 
L 653.354995 178.406842 
L 653.650043 176.593844 
L 654.535189 176.593844 
L 654.830238 159.952314 
L 655.715383 159.952314 
L 656.010432 137.927747 
L 657.485674 137.927747 
L 657.780723 128.873949 
L 681.679654 128.873949 
L 681.974703 130.496694 
L 684.925188 130.496694 
L 685.220236 123.412572 
L 688.46577 123.412572 
L 688.760819 119.506793 
L 689.645964 119.506793 
L 689.941013 117.884048 
L 700.267712 117.884048 
L 700.56276 119.506793 
L 708.234022 119.506793 
L 708.529071 117.884048 
L 729.477516 117.884048 
L 729.772565 116.149389 
L 731.542856 116.149389 
L 731.837905 97.213633 
L 766.063534 97.213633 
L 766.358583 88.987995 
L 871.690909 88.887273 
L 871.690909 88.887273 
" style="fill:none;stroke:#8dd3c7;stroke-linecap:square;stroke-width:1.5;"/>
   </g>
   <g id="line2d_16">
    <path clip-path="url(#pe4ab5a9bcc)" d="M 161.509091 179.693846 
L 486.947622 179.693846 
L 487.242671 163.611884 
L 634.17684 163.611884 
L 634.471889 158.016211 
L 655.715383 158.016211 
L 656.010432 137.927747 
L 657.485674 137.927747 
L 657.780723 128.873949 
L 684.925188 128.873949 
L 685.220236 123.412572 
L 688.46577 123.412572 
L 688.760819 119.506793 
L 689.645964 119.506793 
L 689.941013 117.884048 
L 729.477516 117.884048 
L 729.772565 116.149389 
L 731.542856 116.149389 
L 731.837905 97.213633 
L 766.063534 97.112911 
L 766.358583 88.987995 
L 871.690909 88.887273 
L 871.690909 88.887273 
" style="fill:none;stroke:#feffb3;stroke-linecap:square;stroke-width:1.5;"/>
   </g>
   <g id="line2d_17">
    <path clip-path="url(#pe4ab5a9bcc)" d="M 161.509091 179.693846 
L 163.574431 179.693846 
L 163.869479 200.942245 
L 165.934819 200.942245 
L 166.229867 220.708093 
L 168.295207 220.708093 
L 168.590256 239.094831 
L 170.655595 239.094831 
L 170.950644 256.198682 
L 173.015984 256.198682 
L 173.311032 272.109158 
L 175.376372 272.109158 
L 175.67142 286.909521 
L 177.73676 286.909521 
L 178.031809 300.677229 
L 180.097148 300.677229 
L 180.392197 313.484331 
L 182.457537 313.484331 
L 182.752585 325.397851 
L 184.817925 325.397851 
L 185.112974 336.480136 
L 187.178313 336.480136 
L 187.473362 346.789184 
L 189.538702 346.789184 
L 189.83375 356.378946 
L 191.89909 356.378946 
L 192.194138 365.299607 
L 194.259478 365.299607 
L 194.554527 373.597852 
L 196.619866 373.597852 
L 196.914915 381.317109 
L 198.980255 381.317109 
L 199.275303 388.497776 
L 201.340643 388.497776 
L 201.635691 395.17743 
L 203.701031 395.17743 
L 203.99608 401.391029 
L 206.061419 401.391029 
L 206.356468 407.171091 
L 208.421808 407.171091 
L 208.716856 412.547863 
L 210.782196 412.547863 
L 211.077244 417.549486 
L 213.142584 417.549486 
L 213.437633 422.202134 
L 215.502972 422.202134 
L 215.798021 426.530155 
L 217.863361 426.530155 
L 218.158409 430.5562 
L 220.223749 430.5562 
L 220.518797 434.301339 
L 222.584137 434.301339 
L 222.879186 437.78517 
L 224.944525 437.78517 
L 225.239574 441.025926 
L 227.304914 441.025926 
L 227.599962 444.040567 
L 229.665302 444.040567 
L 229.96035 446.844869 
L 232.02569 446.844869 
L 232.320739 449.453508 
L 234.386078 449.453508 
L 234.681127 451.880137 
L 236.746467 451.880137 
L 237.041515 454.137454 
L 239.106855 454.137454 
L 239.401904 456.237272 
L 241.467243 456.237272 
L 241.762292 458.190581 
L 243.827632 458.190581 
L 244.12268 460.007604 
L 246.18802 460.007604 
L 246.483068 461.697848 
L 248.548408 461.697848 
L 248.843457 463.27016 
L 250.908796 463.27016 
L 251.203845 464.732768 
L 253.269185 464.732768 
L 253.564233 466.093326 
L 255.629573 466.093326 
L 255.924621 467.358955 
L 257.989961 467.358955 
L 258.28501 468.536278 
L 260.350349 468.536278 
L 260.645398 469.631457 
L 262.710738 469.631457 
L 263.005786 470.650222 
L 265.071126 470.650222 
L 265.366174 471.597905 
L 267.431514 471.597905 
L 267.726563 472.479467 
L 269.791902 472.479467 
L 270.086951 473.29952 
L 272.152291 473.29952 
L 272.447339 474.062355 
L 274.512679 474.062355 
L 274.807727 474.771966 
L 276.873067 474.771966 
L 277.168116 475.432066 
L 279.233455 475.432066 
L 279.528504 476.046109 
L 281.593844 476.046109 
L 281.888892 476.617309 
L 283.954232 476.617309 
L 284.249281 477.148655 
L 286.31462 477.148655 
L 286.609669 477.642927 
L 288.675008 477.642927 
L 288.970057 478.102713 
L 291.035397 478.102713 
L 291.330445 478.530419 
L 293.395785 478.530419 
L 293.690834 478.928282 
L 295.756173 478.928282 
L 296.051222 479.298386 
L 298.116562 479.298386 
L 298.41161 479.642667 
L 300.47695 479.642667 
L 300.771998 479.962926 
L 302.837338 479.962926 
L 303.132387 480.26084 
L 305.197726 480.26084 
L 305.492775 480.537968 
L 307.558115 480.537968 
L 307.853163 480.79576 
L 309.918503 480.79576 
L 310.213551 481.035566 
L 312.278891 481.035566 
L 312.57394 481.258639 
L 314.639279 481.258639 
L 314.934328 481.466148 
L 316.999668 481.466148 
L 317.294716 481.659179 
L 319.360056 481.659179 
L 319.655104 481.838742 
L 321.720444 481.838742 
L 322.015493 482.005776 
L 324.080832 482.005776 
L 324.375881 482.161155 
L 326.441221 482.161155 
L 326.736269 482.305694 
L 328.801609 482.305694 
L 329.096657 482.440148 
L 331.161997 482.440148 
L 331.457046 482.56522 
L 333.522385 482.56522 
L 334.112483 482.681566 
L 338.243162 482.789794 
L 338.833259 482.890471 
L 342.963939 482.984124 
L 343.554036 483.071242 
L 347.684715 483.152281 
L 348.274812 483.227666 
L 352.405492 483.297792 
L 352.995589 483.363025 
L 357.126268 483.423706 
L 358.011414 483.480153 
L 364.207433 483.581507 
L 365.092578 483.626944 
L 371.288598 483.708529 
L 372.468792 483.745104 
L 380.730151 483.840216 
L 382.205393 483.867602 
L 394.89248 483.978403 
L 396.95782 483.996148 
L 416.135975 484.100082 
L 419.971606 484.117947 
L 531.794999 484.228894 
L 658.37082 484.23265 
L 871.690909 484.232727 
L 871.690909 484.232727 
" style="fill:none;stroke:#bfbbd9;stroke-linecap:square;stroke-width:1.5;"/>
   </g>
   <g id="patch_3">
    <path d="M 126 504 
L 126 69.12 
" style="fill:none;stroke:#ffffff;stroke-linecap:square;stroke-linejoin:miter;stroke-width:0.8;"/>
   </g>
   <g id="patch_4">
    <path d="M 907.2 504 
L 907.2 69.12 
" style="fill:none;stroke:#ffffff;stroke-linecap:square;stroke-linejoin:miter;stroke-width:0.8;"/>
   </g>
   <g id="patch_5">
    <path d="M 126 504 
L 907.2 504 
" style="fill:none;stroke:#ffffff;stroke-linecap:square;stroke-linejoin:miter;stroke-width:0.8;"/>
   </g>
   <g id="patch_6">
    <path d="M 126 69.12 
L 907.2 69.12 
" style="fill:none;stroke:#ffffff;stroke-linecap:square;stroke-linejoin:miter;stroke-width:0.8;"/>
   </g>
   <g id="text_16">
    <!-- instance 7 with error 0.003047920076762467 -->
    <g style="fill:#ffffff;" transform="translate(378.046875 63.12)scale(0.12 -0.12)">
     <defs>
      <path d="M 2834 3397 
L 2834 2853 
Q 2591 2978 2328 3040 
Q 2066 3103 1784 3103 
Q 1356 3103 1142 2972 
Q 928 2841 928 2578 
Q 928 2378 1081 2264 
Q 1234 2150 1697 2047 
L 1894 2003 
Q 2506 1872 2764 1633 
Q 3022 1394 3022 966 
Q 3022 478 2636 193 
Q 2250 -91 1575 -91 
Q 1294 -91 989 -36 
Q 684 19 347 128 
L 347 722 
Q 666 556 975 473 
Q 1284 391 1588 391 
Q 1994 391 2212 530 
Q 2431 669 2431 922 
Q 2431 1156 2273 1281 
Q 2116 1406 1581 1522 
L 1381 1569 
Q 847 1681 609 1914 
Q 372 2147 372 2553 
Q 372 3047 722 3315 
Q 1072 3584 1716 3584 
Q 2034 3584 2315 3537 
Q 2597 3491 2834 3397 
z
" id="DejaVuSans-73" transform="scale(0.015625)"/>
      <path d="M 3122 3366 
L 3122 2828 
Q 2878 2963 2633 3030 
Q 2388 3097 2138 3097 
Q 1578 3097 1268 2742 
Q 959 2388 959 1747 
Q 959 1106 1268 751 
Q 1578 397 2138 397 
Q 2388 397 2633 464 
Q 2878 531 3122 666 
L 3122 134 
Q 2881 22 2623 -34 
Q 2366 -91 2075 -91 
Q 1284 -91 818 406 
Q 353 903 353 1747 
Q 353 2603 823 3093 
Q 1294 3584 2113 3584 
Q 2378 3584 2631 3529 
Q 2884 3475 3122 3366 
z
" id="DejaVuSans-63" transform="scale(0.015625)"/>
      <path id="DejaVuSans-20" transform="scale(0.015625)"/>
      <path d="M 525 4666 
L 3525 4666 
L 3525 4397 
L 1831 0 
L 1172 0 
L 2766 4134 
L 525 4134 
L 525 4666 
z
" id="DejaVuSans-37" transform="scale(0.015625)"/>
      <path d="M 269 3500 
L 844 3500 
L 1563 769 
L 2278 3500 
L 2956 3500 
L 3675 769 
L 4391 3500 
L 4966 3500 
L 4050 0 
L 3372 0 
L 2619 2869 
L 1863 0 
L 1184 0 
L 269 3500 
z
" id="DejaVuSans-77" transform="scale(0.015625)"/>
      <path d="M 3513 2113 
L 3513 0 
L 2938 0 
L 2938 2094 
Q 2938 2591 2744 2837 
Q 2550 3084 2163 3084 
Q 1697 3084 1428 2787 
Q 1159 2491 1159 1978 
L 1159 0 
L 581 0 
L 581 4863 
L 1159 4863 
L 1159 2956 
Q 1366 3272 1645 3428 
Q 1925 3584 2291 3584 
Q 2894 3584 3203 3211 
Q 3513 2838 3513 2113 
z
" id="DejaVuSans-68" transform="scale(0.015625)"/>
      <path d="M 684 794 
L 1344 794 
L 1344 0 
L 684 0 
L 684 794 
z
" id="DejaVuSans-2e" transform="scale(0.015625)"/>
      <path d="M 2419 4116 
L 825 1625 
L 2419 1625 
L 2419 4116 
z
M 2253 4666 
L 3047 4666 
L 3047 1625 
L 3713 1625 
L 3713 1100 
L 3047 1100 
L 3047 0 
L 2419 0 
L 2419 1100 
L 313 1100 
L 313 1709 
L 2253 4666 
z
" id="DejaVuSans-34" transform="scale(0.015625)"/>
      <path d="M 703 97 
L 703 672 
Q 941 559 1184 500 
Q 1428 441 1663 441 
Q 2288 441 2617 861 
Q 2947 1281 2994 2138 
Q 2813 1869 2534 1725 
Q 2256 1581 1919 1581 
Q 1219 1581 811 2004 
Q 403 2428 403 3163 
Q 403 3881 828 4315 
Q 1253 4750 1959 4750 
Q 2769 4750 3195 4129 
Q 3622 3509 3622 2328 
Q 3622 1225 3098 567 
Q 2575 -91 1691 -91 
Q 1453 -91 1209 -44 
Q 966 3 703 97 
z
M 1959 2075 
Q 2384 2075 2632 2365 
Q 2881 2656 2881 3163 
Q 2881 3666 2632 3958 
Q 2384 4250 1959 4250 
Q 1534 4250 1286 3958 
Q 1038 3666 1038 3163 
Q 1038 2656 1286 2365 
Q 1534 2075 1959 2075 
z
" id="DejaVuSans-39" transform="scale(0.015625)"/>
      <path d="M 2113 2584 
Q 1688 2584 1439 2293 
Q 1191 2003 1191 1497 
Q 1191 994 1439 701 
Q 1688 409 2113 409 
Q 2538 409 2786 701 
Q 3034 994 3034 1497 
Q 3034 2003 2786 2293 
Q 2538 2584 2113 2584 
z
M 3366 4563 
L 3366 3988 
Q 3128 4100 2886 4159 
Q 2644 4219 2406 4219 
Q 1781 4219 1451 3797 
Q 1122 3375 1075 2522 
Q 1259 2794 1537 2939 
Q 1816 3084 2150 3084 
Q 2853 3084 3261 2657 
Q 3669 2231 3669 1497 
Q 3669 778 3244 343 
Q 2819 -91 2113 -91 
Q 1303 -91 875 529 
Q 447 1150 447 2328 
Q 447 3434 972 4092 
Q 1497 4750 2381 4750 
Q 2619 4750 2861 4703 
Q 3103 4656 3366 4563 
z
" id="DejaVuSans-36" transform="scale(0.015625)"/>
     </defs>
     <use xlink:href="#DejaVuSans-69"/>
     <use x="27.783203" xlink:href="#DejaVuSans-6e"/>
     <use x="91.162109" xlink:href="#DejaVuSans-73"/>
     <use x="143.261719" xlink:href="#DejaVuSans-74"/>
     <use x="182.470703" xlink:href="#DejaVuSans-61"/>
     <use x="243.75" xlink:href="#DejaVuSans-6e"/>
     <use x="307.128906" xlink:href="#DejaVuSans-63"/>
     <use x="362.109375" xlink:href="#DejaVuSans-65"/>
     <use x="423.632812" xlink:href="#DejaVuSans-20"/>
     <use x="455.419922" xlink:href="#DejaVuSans-37"/>
     <use x="519.042969" xlink:href="#DejaVuSans-20"/>
     <use x="550.830078" xlink:href="#DejaVuSans-77"/>
     <use x="632.617188" xlink:href="#DejaVuSans-69"/>
     <use x="660.400391" xlink:href="#DejaVuSans-74"/>
     <use x="699.609375" xlink:href="#DejaVuSans-68"/>
     <use x="762.988281" xlink:href="#DejaVuSans-20"/>
     <use x="794.775391" xlink:href="#DejaVuSans-65"/>
     <use x="856.298828" xlink:href="#DejaVuSans-72"/>
     <use x="895.662109" xlink:href="#DejaVuSans-72"/>
     <use x="934.525391" xlink:href="#DejaVuSans-6f"/>
     <use x="995.707031" xlink:href="#DejaVuSans-72"/>
     <use x="1036.820312" xlink:href="#DejaVuSans-20"/>
     <use x="1068.607422" xlink:href="#DejaVuSans-30"/>
     <use x="1132.230469" xlink:href="#DejaVuSans-2e"/>
     <use x="1164.017578" xlink:href="#DejaVuSans-30"/>
     <use x="1227.640625" xlink:href="#DejaVuSans-30"/>
     <use x="1291.263672" xlink:href="#DejaVuSans-33"/>
     <use x="1354.886719" xlink:href="#DejaVuSans-30"/>
     <use x="1418.509766" xlink:href="#DejaVuSans-34"/>
     <use x="1482.132812" xlink:href="#DejaVuSans-37"/>
     <use x="1545.755859" xlink:href="#DejaVuSans-39"/>
     <use x="1609.378906" xlink:href="#DejaVuSans-32"/>
     <use x="1673.001953" xlink:href="#DejaVuSans-30"/>
     <use x="1736.625" xlink:href="#DejaVuSans-30"/>
     <use x="1800.248047" xlink:href="#DejaVuSans-37"/>
     <use x="1863.871094" xlink:href="#DejaVuSans-36"/>
     <use x="1927.494141" xlink:href="#DejaVuSans-37"/>
     <use x="1991.117188" xlink:href="#DejaVuSans-36"/>
     <use x="2054.740234" xlink:href="#DejaVuSans-32"/>
     <use x="2118.363281" xlink:href="#DejaVuSans-34"/>
     <use x="2181.986328" xlink:href="#DejaVuSans-36"/>
     <use x="2245.609375" xlink:href="#DejaVuSans-37"/>
    </g>
   </g>
   <g id="legend_1">
    <g id="patch_7">
     <path d="M 805.348438 499 
L 900.2 499 
Q 902.2 499 902.2 497 
L 902.2 453.965625 
Q 902.2 451.965625 900.2 451.965625 
L 805.348438 451.965625 
Q 803.348438 451.965625 803.348438 453.965625 
L 803.348438 497 
Q 803.348438 499 805.348438 499 
z
" style="opacity:0.8;stroke:#cccccc;stroke-linejoin:miter;"/>
    </g>
    <g id="line2d_18">
     <path d="M 807.348438 460.064062 
L 827.348438 460.064062 
" style="fill:none;stroke:#8dd3c7;stroke-linecap:square;stroke-width:1.5;"/>
    </g>
    <g id="line2d_19"/>
    <g id="text_17">
     <!-- cost -->
     <g style="fill:#ffffff;" transform="translate(835.348438 463.564062)scale(0.1 -0.1)">
      <use xlink:href="#DejaVuSans-63"/>
      <use x="54.980469" xlink:href="#DejaVuSans-6f"/>
      <use x="116.162109" xlink:href="#DejaVuSans-73"/>
      <use x="168.261719" xlink:href="#DejaVuSans-74"/>
     </g>
    </g>
    <g id="line2d_20">
     <path d="M 807.348438 474.742188 
L 827.348438 474.742188 
" style="fill:none;stroke:#feffb3;stroke-linecap:square;stroke-width:1.5;"/>
    </g>
    <g id="line2d_21"/>
    <g id="text_18">
     <!-- best cost -->
     <g style="fill:#ffffff;" transform="translate(835.348438 478.242188)scale(0.1 -0.1)">
      <defs>
       <path d="M 3116 1747 
Q 3116 2381 2855 2742 
Q 2594 3103 2138 3103 
Q 1681 3103 1420 2742 
Q 1159 2381 1159 1747 
Q 1159 1113 1420 752 
Q 1681 391 2138 391 
Q 2594 391 2855 752 
Q 3116 1113 3116 1747 
z
M 1159 2969 
Q 1341 3281 1617 3432 
Q 1894 3584 2278 3584 
Q 2916 3584 3314 3078 
Q 3713 2572 3713 1747 
Q 3713 922 3314 415 
Q 2916 -91 2278 -91 
Q 1894 -91 1617 61 
Q 1341 213 1159 525 
L 1159 0 
L 581 0 
L 581 4863 
L 1159 4863 
L 1159 2969 
z
" id="DejaVuSans-62" transform="scale(0.015625)"/>
      </defs>
      <use xlink:href="#DejaVuSans-62"/>
      <use x="63.476562" xlink:href="#DejaVuSans-65"/>
      <use x="125" xlink:href="#DejaVuSans-73"/>
      <use x="177.099609" xlink:href="#DejaVuSans-74"/>
      <use x="216.308594" xlink:href="#DejaVuSans-20"/>
      <use x="248.095703" xlink:href="#DejaVuSans-63"/>
      <use x="303.076172" xlink:href="#DejaVuSans-6f"/>
      <use x="364.257812" xlink:href="#DejaVuSans-73"/>
      <use x="416.357422" xlink:href="#DejaVuSans-74"/>
     </g>
    </g>
    <g id="line2d_22">
     <path d="M 807.348438 489.420313 
L 827.348438 489.420313 
" style="fill:none;stroke:#bfbbd9;stroke-linecap:square;stroke-width:1.5;"/>
    </g>
    <g id="line2d_23"/>
    <g id="text_19">
     <!-- temperature -->
     <g style="fill:#ffffff;" transform="translate(835.348438 492.920313)scale(0.1 -0.1)">
      <defs>
       <path d="M 3328 2828 
Q 3544 3216 3844 3400 
Q 4144 3584 4550 3584 
Q 5097 3584 5394 3201 
Q 5691 2819 5691 2113 
L 5691 0 
L 5113 0 
L 5113 2094 
Q 5113 2597 4934 2840 
Q 4756 3084 4391 3084 
Q 3944 3084 3684 2787 
Q 3425 2491 3425 1978 
L 3425 0 
L 2847 0 
L 2847 2094 
Q 2847 2600 2669 2842 
Q 2491 3084 2119 3084 
Q 1678 3084 1418 2786 
Q 1159 2488 1159 1978 
L 1159 0 
L 581 0 
L 581 3500 
L 1159 3500 
L 1159 2956 
Q 1356 3278 1631 3431 
Q 1906 3584 2284 3584 
Q 2666 3584 2933 3390 
Q 3200 3197 3328 2828 
z
" id="DejaVuSans-6d" transform="scale(0.015625)"/>
       <path d="M 1159 525 
L 1159 -1331 
L 581 -1331 
L 581 3500 
L 1159 3500 
L 1159 2969 
Q 1341 3281 1617 3432 
Q 1894 3584 2278 3584 
Q 2916 3584 3314 3078 
Q 3713 2572 3713 1747 
Q 3713 922 3314 415 
Q 2916 -91 2278 -91 
Q 1894 -91 1617 61 
Q 1341 213 1159 525 
z
M 3116 1747 
Q 3116 2381 2855 2742 
Q 2594 3103 2138 3103 
Q 1681 3103 1420 2742 
Q 1159 2381 1159 1747 
Q 1159 1113 1420 752 
Q 1681 391 2138 391 
Q 2594 391 2855 752 
Q 3116 1113 3116 1747 
z
" id="DejaVuSans-70" transform="scale(0.015625)"/>
       <path d="M 544 1381 
L 544 3500 
L 1119 3500 
L 1119 1403 
Q 1119 906 1312 657 
Q 1506 409 1894 409 
Q 2359 409 2629 706 
Q 2900 1003 2900 1516 
L 2900 3500 
L 3475 3500 
L 3475 0 
L 2900 0 
L 2900 538 
Q 2691 219 2414 64 
Q 2138 -91 1772 -91 
Q 1169 -91 856 284 
Q 544 659 544 1381 
z
M 1991 3584 
L 1991 3584 
z
" id="DejaVuSans-75" transform="scale(0.015625)"/>
      </defs>
      <use xlink:href="#DejaVuSans-74"/>
      <use x="39.208984" xlink:href="#DejaVuSans-65"/>
      <use x="100.732422" xlink:href="#DejaVuSans-6d"/>
      <use x="198.144531" xlink:href="#DejaVuSans-70"/>
      <use x="261.621094" xlink:href="#DejaVuSans-65"/>
      <use x="323.144531" xlink:href="#DejaVuSans-72"/>
      <use x="364.257812" xlink:href="#DejaVuSans-61"/>
      <use x="425.537109" xlink:href="#DejaVuSans-74"/>
      <use x="464.746094" xlink:href="#DejaVuSans-75"/>
      <use x="528.125" xlink:href="#DejaVuSans-72"/>
      <use x="566.988281" xlink:href="#DejaVuSans-65"/>
     </g>
    </g>
   </g>
  </g>
 </g>
 <defs>
  <clipPath id="pe4ab5a9bcc">
   <rect height="434.88" width="781.2" x="126" y="69.12"/>
  </clipPath>
 </defs>
</svg>
