<?xml version="1.0" encoding="utf-8" standalone="no"?>
<!DOCTYPE svg PUBLIC "-//W3C//DTD SVG 1.1//EN"
  "http://www.w3.org/Graphics/SVG/1.1/DTD/svg11.dtd">
<svg height="576pt" version="1.1" viewBox="0 0 1008 576" width="1008pt" xmlns="http://www.w3.org/2000/svg" xmlns:xlink="http://www.w3.org/1999/xlink">
 <metadata>
  <rdf:RDF xmlns:cc="http://creativecommons.org/ns#" xmlns:dc="http://purl.org/dc/elements/1.1/" xmlns:rdf="http://www.w3.org/1999/02/22-rdf-syntax-ns#">
   <cc:Work>
    <dc:type rdf:resource="http://purl.org/dc/dcmitype/StillImage"/>
    <dc:date>2022-01-07T00:32:44.159463</dc:date>
    <dc:format>image/svg+xml</dc:format>
    <dc:creator>
     <cc:Agent>
      <dc:title>Matplotlib v3.4.3, https://matplotlib.org/</dc:title>
     </cc:Agent>
    </dc:creator>
   </cc:Work>
  </rdf:RDF>
 </metadata>
 <defs>
  <style type="text/css">*{stroke-linecap:butt;stroke-linejoin:round;}</style>
 </defs>
 <g id="figure_1">
  <g id="patch_1">
   <path d="M 0 576 
L 1008 576 
L 1008 0 
L 0 0 
z
"/>
  </g>
  <g id="axes_1">
   <g id="patch_2">
    <path d="M 126 504 
L 907.2 504 
L 907.2 69.12 
L 126 69.12 
z
"/>
   </g>
   <g id="matplotlib.axis_1">
    <g id="xtick_1">
     <g id="line2d_1">
      <defs>
       <path d="M 0 0 
L 0 3.5 
" id="md34a30da90" style="stroke:#ffffff;stroke-width:0.8;"/>
      </defs>
      <g>
       <use style="fill:#ffffff;stroke:#ffffff;stroke-width:0.8;" x="161.509091" xlink:href="#md34a30da90" y="504"/>
      </g>
     </g>
     <g id="text_1">
      <!-- 0 -->
      <g style="fill:#ffffff;" transform="translate(158.327841 518.598438)scale(0.1 -0.1)">
       <defs>
        <path d="M 2034 4250 
Q 1547 4250 1301 3770 
Q 1056 3291 1056 2328 
Q 1056 1369 1301 889 
Q 1547 409 2034 409 
Q 2525 409 2770 889 
Q 3016 1369 3016 2328 
Q 3016 3291 2770 3770 
Q 2525 4250 2034 4250 
z
M 2034 4750 
Q 2819 4750 3233 4129 
Q 3647 3509 3647 2328 
Q 3647 1150 3233 529 
Q 2819 -91 2034 -91 
Q 1250 -91 836 529 
Q 422 1150 422 2328 
Q 422 3509 836 4129 
Q 1250 4750 2034 4750 
z
" id="DejaVuSans-30" transform="scale(0.015625)"/>
       </defs>
       <use xlink:href="#DejaVuSans-30"/>
      </g>
     </g>
    </g>
    <g id="xtick_2">
     <g id="line2d_2">
      <g>
       <use style="fill:#ffffff;stroke:#ffffff;stroke-width:0.8;" x="279.912195" xlink:href="#md34a30da90" y="504"/>
      </g>
     </g>
     <g id="text_2">
      <!-- 500 -->
      <g style="fill:#ffffff;" transform="translate(270.368445 518.598438)scale(0.1 -0.1)">
       <defs>
        <path d="M 691 4666 
L 3169 4666 
L 3169 4134 
L 1269 4134 
L 1269 2991 
Q 1406 3038 1543 3061 
Q 1681 3084 1819 3084 
Q 2600 3084 3056 2656 
Q 3513 2228 3513 1497 
Q 3513 744 3044 326 
Q 2575 -91 1722 -91 
Q 1428 -91 1123 -41 
Q 819 9 494 109 
L 494 744 
Q 775 591 1075 516 
Q 1375 441 1709 441 
Q 2250 441 2565 725 
Q 2881 1009 2881 1497 
Q 2881 1984 2565 2268 
Q 2250 2553 1709 2553 
Q 1456 2553 1204 2497 
Q 953 2441 691 2322 
L 691 4666 
z
" id="DejaVuSans-35" transform="scale(0.015625)"/>
       </defs>
       <use xlink:href="#DejaVuSans-35"/>
       <use x="63.623047" xlink:href="#DejaVuSans-30"/>
       <use x="127.246094" xlink:href="#DejaVuSans-30"/>
      </g>
     </g>
    </g>
    <g id="xtick_3">
     <g id="line2d_3">
      <g>
       <use style="fill:#ffffff;stroke:#ffffff;stroke-width:0.8;" x="398.315299" xlink:href="#md34a30da90" y="504"/>
      </g>
     </g>
     <g id="text_3">
      <!-- 1000 -->
      <g style="fill:#ffffff;" transform="translate(385.590299 518.598438)scale(0.1 -0.1)">
       <defs>
        <path d="M 794 531 
L 1825 531 
L 1825 4091 
L 703 3866 
L 703 4441 
L 1819 4666 
L 2450 4666 
L 2450 531 
L 3481 531 
L 3481 0 
L 794 0 
L 794 531 
z
" id="DejaVuSans-31" transform="scale(0.015625)"/>
       </defs>
       <use xlink:href="#DejaVuSans-31"/>
       <use x="63.623047" xlink:href="#DejaVuSans-30"/>
       <use x="127.246094" xlink:href="#DejaVuSans-30"/>
       <use x="190.869141" xlink:href="#DejaVuSans-30"/>
      </g>
     </g>
    </g>
    <g id="xtick_4">
     <g id="line2d_4">
      <g>
       <use style="fill:#ffffff;stroke:#ffffff;stroke-width:0.8;" x="516.718403" xlink:href="#md34a30da90" y="504"/>
      </g>
     </g>
     <g id="text_4">
      <!-- 1500 -->
      <g style="fill:#ffffff;" transform="translate(503.993403 518.598438)scale(0.1 -0.1)">
       <use xlink:href="#DejaVuSans-31"/>
       <use x="63.623047" xlink:href="#DejaVuSans-35"/>
       <use x="127.246094" xlink:href="#DejaVuSans-30"/>
       <use x="190.869141" xlink:href="#DejaVuSans-30"/>
      </g>
     </g>
    </g>
    <g id="xtick_5">
     <g id="line2d_5">
      <g>
       <use style="fill:#ffffff;stroke:#ffffff;stroke-width:0.8;" x="635.121507" xlink:href="#md34a30da90" y="504"/>
      </g>
     </g>
     <g id="text_5">
      <!-- 2000 -->
      <g style="fill:#ffffff;" transform="translate(622.396507 518.598438)scale(0.1 -0.1)">
       <defs>
        <path d="M 1228 531 
L 3431 531 
L 3431 0 
L 469 0 
L 469 531 
Q 828 903 1448 1529 
Q 2069 2156 2228 2338 
Q 2531 2678 2651 2914 
Q 2772 3150 2772 3378 
Q 2772 3750 2511 3984 
Q 2250 4219 1831 4219 
Q 1534 4219 1204 4116 
Q 875 4013 500 3803 
L 500 4441 
Q 881 4594 1212 4672 
Q 1544 4750 1819 4750 
Q 2544 4750 2975 4387 
Q 3406 4025 3406 3419 
Q 3406 3131 3298 2873 
Q 3191 2616 2906 2266 
Q 2828 2175 2409 1742 
Q 1991 1309 1228 531 
z
" id="DejaVuSans-32" transform="scale(0.015625)"/>
       </defs>
       <use xlink:href="#DejaVuSans-32"/>
       <use x="63.623047" xlink:href="#DejaVuSans-30"/>
       <use x="127.246094" xlink:href="#DejaVuSans-30"/>
       <use x="190.869141" xlink:href="#DejaVuSans-30"/>
      </g>
     </g>
    </g>
    <g id="xtick_6">
     <g id="line2d_6">
      <g>
       <use style="fill:#ffffff;stroke:#ffffff;stroke-width:0.8;" x="753.524611" xlink:href="#md34a30da90" y="504"/>
      </g>
     </g>
     <g id="text_6">
      <!-- 2500 -->
      <g style="fill:#ffffff;" transform="translate(740.799611 518.598438)scale(0.1 -0.1)">
       <use xlink:href="#DejaVuSans-32"/>
       <use x="63.623047" xlink:href="#DejaVuSans-35"/>
       <use x="127.246094" xlink:href="#DejaVuSans-30"/>
       <use x="190.869141" xlink:href="#DejaVuSans-30"/>
      </g>
     </g>
    </g>
    <g id="xtick_7">
     <g id="line2d_7">
      <g>
       <use style="fill:#ffffff;stroke:#ffffff;stroke-width:0.8;" x="871.927715" xlink:href="#md34a30da90" y="504"/>
      </g>
     </g>
     <g id="text_7">
      <!-- 3000 -->
      <g style="fill:#ffffff;" transform="translate(859.202715 518.598438)scale(0.1 -0.1)">
       <defs>
        <path d="M 2597 2516 
Q 3050 2419 3304 2112 
Q 3559 1806 3559 1356 
Q 3559 666 3084 287 
Q 2609 -91 1734 -91 
Q 1441 -91 1130 -33 
Q 819 25 488 141 
L 488 750 
Q 750 597 1062 519 
Q 1375 441 1716 441 
Q 2309 441 2620 675 
Q 2931 909 2931 1356 
Q 2931 1769 2642 2001 
Q 2353 2234 1838 2234 
L 1294 2234 
L 1294 2753 
L 1863 2753 
Q 2328 2753 2575 2939 
Q 2822 3125 2822 3475 
Q 2822 3834 2567 4026 
Q 2313 4219 1838 4219 
Q 1578 4219 1281 4162 
Q 984 4106 628 3988 
L 628 4550 
Q 988 4650 1302 4700 
Q 1616 4750 1894 4750 
Q 2613 4750 3031 4423 
Q 3450 4097 3450 3541 
Q 3450 3153 3228 2886 
Q 3006 2619 2597 2516 
z
" id="DejaVuSans-33" transform="scale(0.015625)"/>
       </defs>
       <use xlink:href="#DejaVuSans-33"/>
       <use x="63.623047" xlink:href="#DejaVuSans-30"/>
       <use x="127.246094" xlink:href="#DejaVuSans-30"/>
       <use x="190.869141" xlink:href="#DejaVuSans-30"/>
      </g>
     </g>
    </g>
    <g id="text_8">
     <!-- iteration -->
     <g style="fill:#ffffff;" transform="translate(495.477344 532.276562)scale(0.1 -0.1)">
      <defs>
       <path d="M 603 3500 
L 1178 3500 
L 1178 0 
L 603 0 
L 603 3500 
z
M 603 4863 
L 1178 4863 
L 1178 4134 
L 603 4134 
L 603 4863 
z
" id="DejaVuSans-69" transform="scale(0.015625)"/>
       <path d="M 1172 4494 
L 1172 3500 
L 2356 3500 
L 2356 3053 
L 1172 3053 
L 1172 1153 
Q 1172 725 1289 603 
Q 1406 481 1766 481 
L 2356 481 
L 2356 0 
L 1766 0 
Q 1100 0 847 248 
Q 594 497 594 1153 
L 594 3053 
L 172 3053 
L 172 3500 
L 594 3500 
L 594 4494 
L 1172 4494 
z
" id="DejaVuSans-74" transform="scale(0.015625)"/>
       <path d="M 3597 1894 
L 3597 1613 
L 953 1613 
Q 991 1019 1311 708 
Q 1631 397 2203 397 
Q 2534 397 2845 478 
Q 3156 559 3463 722 
L 3463 178 
Q 3153 47 2828 -22 
Q 2503 -91 2169 -91 
Q 1331 -91 842 396 
Q 353 884 353 1716 
Q 353 2575 817 3079 
Q 1281 3584 2069 3584 
Q 2775 3584 3186 3129 
Q 3597 2675 3597 1894 
z
M 3022 2063 
Q 3016 2534 2758 2815 
Q 2500 3097 2075 3097 
Q 1594 3097 1305 2825 
Q 1016 2553 972 2059 
L 3022 2063 
z
" id="DejaVuSans-65" transform="scale(0.015625)"/>
       <path d="M 2631 2963 
Q 2534 3019 2420 3045 
Q 2306 3072 2169 3072 
Q 1681 3072 1420 2755 
Q 1159 2438 1159 1844 
L 1159 0 
L 581 0 
L 581 3500 
L 1159 3500 
L 1159 2956 
Q 1341 3275 1631 3429 
Q 1922 3584 2338 3584 
Q 2397 3584 2469 3576 
Q 2541 3569 2628 3553 
L 2631 2963 
z
" id="DejaVuSans-72" transform="scale(0.015625)"/>
       <path d="M 2194 1759 
Q 1497 1759 1228 1600 
Q 959 1441 959 1056 
Q 959 750 1161 570 
Q 1363 391 1709 391 
Q 2188 391 2477 730 
Q 2766 1069 2766 1631 
L 2766 1759 
L 2194 1759 
z
M 3341 1997 
L 3341 0 
L 2766 0 
L 2766 531 
Q 2569 213 2275 61 
Q 1981 -91 1556 -91 
Q 1019 -91 701 211 
Q 384 513 384 1019 
Q 384 1609 779 1909 
Q 1175 2209 1959 2209 
L 2766 2209 
L 2766 2266 
Q 2766 2663 2505 2880 
Q 2244 3097 1772 3097 
Q 1472 3097 1187 3025 
Q 903 2953 641 2809 
L 641 3341 
Q 956 3463 1253 3523 
Q 1550 3584 1831 3584 
Q 2591 3584 2966 3190 
Q 3341 2797 3341 1997 
z
" id="DejaVuSans-61" transform="scale(0.015625)"/>
       <path d="M 1959 3097 
Q 1497 3097 1228 2736 
Q 959 2375 959 1747 
Q 959 1119 1226 758 
Q 1494 397 1959 397 
Q 2419 397 2687 759 
Q 2956 1122 2956 1747 
Q 2956 2369 2687 2733 
Q 2419 3097 1959 3097 
z
M 1959 3584 
Q 2709 3584 3137 3096 
Q 3566 2609 3566 1747 
Q 3566 888 3137 398 
Q 2709 -91 1959 -91 
Q 1206 -91 779 398 
Q 353 888 353 1747 
Q 353 2609 779 3096 
Q 1206 3584 1959 3584 
z
" id="DejaVuSans-6f" transform="scale(0.015625)"/>
       <path d="M 3513 2113 
L 3513 0 
L 2938 0 
L 2938 2094 
Q 2938 2591 2744 2837 
Q 2550 3084 2163 3084 
Q 1697 3084 1428 2787 
Q 1159 2491 1159 1978 
L 1159 0 
L 581 0 
L 581 3500 
L 1159 3500 
L 1159 2956 
Q 1366 3272 1645 3428 
Q 1925 3584 2291 3584 
Q 2894 3584 3203 3211 
Q 3513 2838 3513 2113 
z
" id="DejaVuSans-6e" transform="scale(0.015625)"/>
      </defs>
      <use xlink:href="#DejaVuSans-69"/>
      <use x="27.783203" xlink:href="#DejaVuSans-74"/>
      <use x="66.992188" xlink:href="#DejaVuSans-65"/>
      <use x="128.515625" xlink:href="#DejaVuSans-72"/>
      <use x="169.628906" xlink:href="#DejaVuSans-61"/>
      <use x="230.908203" xlink:href="#DejaVuSans-74"/>
      <use x="270.117188" xlink:href="#DejaVuSans-69"/>
      <use x="297.900391" xlink:href="#DejaVuSans-6f"/>
      <use x="359.082031" xlink:href="#DejaVuSans-6e"/>
     </g>
    </g>
   </g>
   <g id="matplotlib.axis_2">
    <g id="ytick_1">
     <g id="line2d_8">
      <defs>
       <path d="M 0 0 
L -3.5 0 
" id="m7b1ab3d2d1" style="stroke:#ffffff;stroke-width:0.8;"/>
      </defs>
      <g>
       <use style="fill:#ffffff;stroke:#ffffff;stroke-width:0.8;" x="126" xlink:href="#m7b1ab3d2d1" y="484.232837"/>
      </g>
     </g>
     <g id="text_9">
      <!-- 0 -->
      <g style="fill:#ffffff;" transform="translate(112.6375 488.032056)scale(0.1 -0.1)">
       <use xlink:href="#DejaVuSans-30"/>
      </g>
     </g>
    </g>
    <g id="ytick_2">
     <g id="line2d_9">
      <g>
       <use style="fill:#ffffff;stroke:#ffffff;stroke-width:0.8;" x="126" xlink:href="#m7b1ab3d2d1" y="428.507981"/>
      </g>
     </g>
     <g id="text_10">
      <!-- 5000 -->
      <g style="fill:#ffffff;" transform="translate(93.55 432.3072)scale(0.1 -0.1)">
       <use xlink:href="#DejaVuSans-35"/>
       <use x="63.623047" xlink:href="#DejaVuSans-30"/>
       <use x="127.246094" xlink:href="#DejaVuSans-30"/>
       <use x="190.869141" xlink:href="#DejaVuSans-30"/>
      </g>
     </g>
    </g>
    <g id="ytick_3">
     <g id="line2d_10">
      <g>
       <use style="fill:#ffffff;stroke:#ffffff;stroke-width:0.8;" x="126" xlink:href="#m7b1ab3d2d1" y="372.783125"/>
      </g>
     </g>
     <g id="text_11">
      <!-- 10000 -->
      <g style="fill:#ffffff;" transform="translate(87.1875 376.582344)scale(0.1 -0.1)">
       <use xlink:href="#DejaVuSans-31"/>
       <use x="63.623047" xlink:href="#DejaVuSans-30"/>
       <use x="127.246094" xlink:href="#DejaVuSans-30"/>
       <use x="190.869141" xlink:href="#DejaVuSans-30"/>
       <use x="254.492188" xlink:href="#DejaVuSans-30"/>
      </g>
     </g>
    </g>
    <g id="ytick_4">
     <g id="line2d_11">
      <g>
       <use style="fill:#ffffff;stroke:#ffffff;stroke-width:0.8;" x="126" xlink:href="#m7b1ab3d2d1" y="317.058269"/>
      </g>
     </g>
     <g id="text_12">
      <!-- 15000 -->
      <g style="fill:#ffffff;" transform="translate(87.1875 320.857487)scale(0.1 -0.1)">
       <use xlink:href="#DejaVuSans-31"/>
       <use x="63.623047" xlink:href="#DejaVuSans-35"/>
       <use x="127.246094" xlink:href="#DejaVuSans-30"/>
       <use x="190.869141" xlink:href="#DejaVuSans-30"/>
       <use x="254.492188" xlink:href="#DejaVuSans-30"/>
      </g>
     </g>
    </g>
    <g id="ytick_5">
     <g id="line2d_12">
      <g>
       <use style="fill:#ffffff;stroke:#ffffff;stroke-width:0.8;" x="126" xlink:href="#m7b1ab3d2d1" y="261.333413"/>
      </g>
     </g>
     <g id="text_13">
      <!-- 20000 -->
      <g style="fill:#ffffff;" transform="translate(87.1875 265.132631)scale(0.1 -0.1)">
       <use xlink:href="#DejaVuSans-32"/>
       <use x="63.623047" xlink:href="#DejaVuSans-30"/>
       <use x="127.246094" xlink:href="#DejaVuSans-30"/>
       <use x="190.869141" xlink:href="#DejaVuSans-30"/>
       <use x="254.492188" xlink:href="#DejaVuSans-30"/>
      </g>
     </g>
    </g>
    <g id="ytick_6">
     <g id="line2d_13">
      <g>
       <use style="fill:#ffffff;stroke:#ffffff;stroke-width:0.8;" x="126" xlink:href="#m7b1ab3d2d1" y="205.608556"/>
      </g>
     </g>
     <g id="text_14">
      <!-- 25000 -->
      <g style="fill:#ffffff;" transform="translate(87.1875 209.407775)scale(0.1 -0.1)">
       <use xlink:href="#DejaVuSans-32"/>
       <use x="63.623047" xlink:href="#DejaVuSans-35"/>
       <use x="127.246094" xlink:href="#DejaVuSans-30"/>
       <use x="190.869141" xlink:href="#DejaVuSans-30"/>
       <use x="254.492188" xlink:href="#DejaVuSans-30"/>
      </g>
     </g>
    </g>
    <g id="ytick_7">
     <g id="line2d_14">
      <g>
       <use style="fill:#ffffff;stroke:#ffffff;stroke-width:0.8;" x="126" xlink:href="#m7b1ab3d2d1" y="149.8837"/>
      </g>
     </g>
     <g id="text_15">
      <!-- 30000 -->
      <g style="fill:#ffffff;" transform="translate(87.1875 153.682919)scale(0.1 -0.1)">
       <use xlink:href="#DejaVuSans-33"/>
       <use x="63.623047" xlink:href="#DejaVuSans-30"/>
       <use x="127.246094" xlink:href="#DejaVuSans-30"/>
       <use x="190.869141" xlink:href="#DejaVuSans-30"/>
       <use x="254.492188" xlink:href="#DejaVuSans-30"/>
      </g>
     </g>
    </g>
    <g id="ytick_8">
     <g id="line2d_15">
      <g>
       <use style="fill:#ffffff;stroke:#ffffff;stroke-width:0.8;" x="126" xlink:href="#m7b1ab3d2d1" y="94.158844"/>
      </g>
     </g>
     <g id="text_16">
      <!-- 35000 -->
      <g style="fill:#ffffff;" transform="translate(87.1875 97.958063)scale(0.1 -0.1)">
       <use xlink:href="#DejaVuSans-33"/>
       <use x="63.623047" xlink:href="#DejaVuSans-35"/>
       <use x="127.246094" xlink:href="#DejaVuSans-30"/>
       <use x="190.869141" xlink:href="#DejaVuSans-30"/>
       <use x="254.492188" xlink:href="#DejaVuSans-30"/>
      </g>
     </g>
    </g>
   </g>
   <g id="line2d_16">
    <path clip-path="url(#pd802116bd8)" d="M 161.509091 125.910867 
L 161.745897 160.939512 
L 161.982703 166.188793 
L 162.21951 150.17347 
L 162.456316 176.163542 
L 162.693122 169.420835 
L 162.929928 177.300329 
L 163.166734 193.627712 
L 163.403541 256.763974 
L 163.640347 273.726621 
L 163.877153 263.874466 
L 164.113959 268.533064 
L 164.350765 301.778513 
L 164.587572 309.167629 
L 164.824378 290.354918 
L 165.061184 300.96493 
L 165.29799 284.949607 
L 165.534796 303.762318 
L 165.771603 311.641813 
L 166.245215 268.477339 
L 166.482021 273.135937 
L 166.955634 234.975556 
L 167.19244 222.961277 
L 167.429246 241.773988 
L 167.666052 231.097106 
L 167.902859 238.441642 
L 168.139665 222.114259 
L 168.376471 226.817437 
L 168.850083 244.237027 
L 169.08689 228.221703 
L 169.323696 255.794362 
L 169.560502 262.258445 
L 169.797308 276.969807 
L 170.034114 270.505724 
L 170.270921 286.521048 
L 170.507727 310.794795 
L 170.981339 286.989136 
L 171.218145 266.560404 
L 171.454952 258.680909 
L 171.691758 276.434849 
L 171.928564 279.611165 
L 172.16537 264.899803 
L 172.638983 220.899457 
L 172.875789 232.869156 
L 173.349401 276.691183 
L 173.586208 264.721484 
L 173.823014 242.197497 
L 174.05982 269.502676 
L 174.296626 251.124619 
L 174.533432 255.783217 
L 174.770239 278.307204 
L 175.007045 261.979821 
L 175.243851 280.357878 
L 175.480657 277.181562 
L 175.717463 280.357878 
L 175.95427 295.06924 
L 176.191076 277.315301 
L 176.664688 225.223706 
L 176.901494 233.1032 
L 177.138301 251.915912 
L 177.611913 223.228756 
L 177.848719 237.20455 
L 178.085525 226.527667 
L 178.322332 205.107033 
L 178.559138 212.485004 
L 178.795944 230.238943 
L 179.03275 210.790968 
L 179.269557 207.614651 
L 179.506363 234.919831 
L 179.743169 230.261233 
L 180.216781 274.495624 
L 180.690394 310.62762 
L 180.9272 288.103633 
L 181.164006 298.780516 
L 181.400812 284.804722 
L 181.637619 296.774421 
L 181.874425 289.385305 
L 182.111231 303.361099 
L 182.348037 295.983128 
L 182.584843 321.973201 
L 182.82165 307.997407 
L 183.058456 328.426139 
L 183.295262 319.398713 
L 183.532068 317.860707 
L 183.768874 290.288048 
L 184.005681 292.572767 
L 184.242487 297.231365 
L 184.479293 311.207159 
L 184.716099 286.933411 
L 184.952906 304.7988 
L 185.426518 357.559094 
L 185.663324 329.986435 
L 185.90013 354.260183 
L 186.136937 336.261054 
L 186.373743 308.955875 
L 186.610549 336.528533 
L 186.847355 324.558834 
L 187.084161 299.772418 
L 187.320968 292.427882 
L 187.557774 316.67934 
L 187.79458 315.141334 
L 188.031386 304.464451 
L 188.268192 331.769631 
L 188.504999 317.793837 
L 188.741805 98.828587 
L 188.978611 114.843911 
L 189.215417 107.53281 
L 189.452223 134.837989 
L 189.925836 116.783136 
L 190.162642 113.606819 
L 190.636255 156.849307 
L 190.873061 152.190709 
L 191.109867 171.003421 
L 191.346673 153.138032 
L 192.057092 205.006728 
L 192.293898 195.656097 
L 192.530704 176.843386 
L 192.76751 177.578954 
L 193.004317 166.043909 
L 193.241123 145.514872 
L 193.714735 185.391579 
L 193.951541 164.962846 
L 194.188348 172.307382 
L 194.425154 187.018744 
L 194.66196 171.003421 
L 195.135572 214.747433 
L 195.372379 207.402897 
L 195.609185 227.831629 
L 195.845991 210.07769 
L 196.082797 228.455747 
L 196.55641 188.57904 
L 196.793216 181.189924 
L 197.030022 197.517307 
L 197.266828 194.340991 
L 197.503635 179.629628 
L 197.740441 182.805945 
L 197.977247 196.781739 
L 198.214053 180.454356 
L 198.450859 195.165718 
L 198.687666 177.16659 
L 198.924472 170.702507 
L 199.161278 181.379389 
L 199.398084 181.379389 
L 199.63489 163.001331 
L 200.108503 206.08779 
L 200.345309 191.376428 
L 200.582115 207.703811 
L 200.818921 198.676384 
L 201.292534 335.603501 
L 201.52934 337.408986 
L 201.766146 313.135239 
L 202.002952 305.656963 
L 202.239759 325.104938 
L 202.476565 332.494054 
L 202.713371 348.821437 
L 203.186984 315.263928 
L 203.42379 163.759189 
L 203.660596 189.749262 
L 203.897402 162.176604 
L 204.134208 179.930543 
L 204.371015 207.235722 
L 204.607821 189.481783 
L 204.844627 196.870899 
L 205.081433 219.394886 
L 205.318239 203.379562 
L 205.555046 217.355356 
L 205.791852 212.696758 
L 206.265464 198.609514 
L 206.50227 205.073598 
L 206.975883 182.549611 
L 207.212689 189.292319 
L 207.449495 207.046258 
L 207.686301 179.741078 
L 207.923108 172.351962 
L 208.159914 170.546477 
L 208.39672 179.217265 
L 208.633526 204.4049 
L 208.870333 210.434329 
L 209.107139 191.621618 
L 210.29117 260.720439 
L 210.527976 242.85505 
L 210.764782 270.16023 
L 211.001588 219.840685 
L 211.238395 236.168068 
L 211.475201 221.456706 
L 211.948813 242.464976 
L 212.185619 234.585482 
L 212.659232 267.050783 
L 212.896038 262.392185 
L 213.132844 237.605769 
L 213.36965 244.069852 
L 213.843263 204.650089 
L 214.080069 238.753701 
L 214.316875 222.738377 
L 214.553682 225.914694 
L 214.790488 242.308947 
L 215.027294 234.797236 
L 215.2641 254.245211 
L 215.500906 236.246082 
L 215.737713 244.058707 
L 215.974519 226.304768 
L 216.211325 244.170157 
L 216.448131 218.982522 
L 217.15855 274.328449 
L 217.395356 255.515738 
L 217.632162 246.488311 
L 217.868968 271.675946 
L 218.105775 252.227971 
L 218.342581 264.19767 
L 218.579387 291.770329 
L 219.052999 241.673683 
L 219.763418 289.128971 
L 220.473837 269.747866 
L 220.710643 189.927582 
L 220.947449 183.708688 
L 221.421062 237.00394 
L 221.657868 219.250001 
L 222.13148 175.662019 
L 222.368286 187.631718 
L 222.605093 180.242602 
L 222.841899 163.915219 
L 223.078705 174.469507 
L 223.315511 198.743254 
L 223.789124 159.334636 
L 224.262736 208.327929 
L 224.499542 183.140294 
L 224.736348 203.569027 
L 225.209961 169.1645 
L 225.683573 207.001678 
L 225.92038 185.581043 
L 226.157186 193.393668 
L 226.630798 161.45218 
L 226.867604 173.42188 
L 227.341217 211.169897 
L 227.578023 199.200198 
L 227.814829 224.387833 
L 228.051635 196.815174 
L 228.288442 215.627886 
L 228.762054 200.894234 
L 228.99886 211.571116 
L 229.235666 261.366847 
L 229.472473 258.190531 
L 229.709279 247.513648 
L 229.946085 246.376861 
L 230.182891 256.986874 
L 230.419697 249.608903 
L 230.89331 284.102589 
L 231.130116 256.797409 
L 231.366922 281.071157 
L 231.840535 297.476554 
L 232.314147 258.937244 
L 232.550953 237.11539 
L 232.78776 259.639377 
L 233.024566 270.316259 
L 233.261372 247.792273 
L 233.734984 284.292053 
L 233.971791 261.768066 
L 234.682209 313.436153 
L 234.919015 305.556658 
L 235.155822 280.770242 
L 235.392628 301.198975 
L 235.86624 264.520874 
L 236.576659 322.207245 
L 236.813465 313.179819 
L 237.050271 337.966235 
L 237.523884 309.669153 
L 237.76069 336.974332 
L 238.234302 293.731844 
L 238.471109 315.152479 
L 238.707915 307.763363 
L 238.944721 289.764234 
L 239.181527 294.422832 
L 239.418333 310.750215 
L 240.365558 224.476993 
L 240.602364 225.212561 
L 240.839171 270.851218 
L 241.075977 287.178601 
L 241.312783 280.435893 
L 241.549589 260.987918 
L 241.786395 268.377034 
L 242.023202 250.511645 
L 242.260008 257.254353 
L 242.970427 182.070377 
L 243.207233 186.272031 
L 243.444039 192.736115 
L 243.680845 211.548826 
L 243.917651 195.221443 
L 244.154458 215.650175 
L 244.391264 197.784787 
L 244.62807 212.897368 
L 244.864876 219.640075 
L 245.101682 211.760581 
L 245.338489 192.312606 
L 245.575295 199.033023 
L 246.285713 227.664454 
L 246.52252 249.085089 
L 246.759326 227.263236 
L 246.996132 245.128624 
L 247.469744 208.327929 
L 247.706551 227.140641 
L 247.943357 231.799239 
L 248.653776 210.133415 
L 249.601 264.754919 
L 249.837807 271.219002 
L 250.074613 243.646343 
L 250.548225 232.523662 
L 250.785031 221.846779 
L 251.021838 243.267414 
L 251.49545 207.614651 
L 251.732256 229.53681 
L 251.969062 225.36859 
L 252.442675 246.309991 
L 252.679481 233.181215 
L 252.916287 211.359362 
L 253.153093 208.695713 
L 253.3899 187.275079 
L 253.626706 184.332806 
L 254.100318 228.388878 
L 254.337124 255.961536 
L 254.573931 239.634154 
L 254.810737 239.634154 
L 255.047543 266.939333 
L 255.284349 239.366674 
L 255.521156 245.830758 
L 255.994768 226.048434 
L 256.231574 233.43755 
L 256.46838 229.235895 
L 256.705187 237.11539 
L 257.178799 283.233281 
L 257.415605 280.056964 
L 257.652411 304.84338 
L 257.889218 291.714604 
L 258.126024 287.056006 
L 258.599636 250.65653 
L 258.836442 266.983913 
L 259.073249 292.973986 
L 259.310055 268.18757 
L 259.546861 275.565541 
L 259.783667 288.694317 
L 260.020473 278.017434 
L 260.25728 256.195581 
L 260.494086 275.643556 
L 260.967698 236.402112 
L 261.204505 254.40124 
L 261.441311 246.588616 
L 261.914923 295.648779 
L 262.151729 287.769284 
L 262.388536 309.591138 
L 262.862148 295.470459 
L 263.098954 276.200804 
L 263.572567 316.47873 
L 264.519791 345.377641 
L 265.23021 294.623442 
L 265.467016 287.278906 
L 265.940629 249.441728 
L 266.177435 256.786264 
L 266.414241 247.758838 
L 266.651047 262.4702 
L 267.12466 234.173118 
L 267.598272 181.814043 
L 267.835078 203.635897 
L 268.071885 206.812213 
L 268.308691 218.781912 
L 268.545497 212.039205 
L 268.782303 208.862888 
L 269.019109 194.151526 
L 269.255916 168.161453 
L 269.492722 184.488836 
L 269.729528 187.665153 
L 269.966334 175.695454 
L 270.20314 201.685527 
L 270.439947 183.820138 
L 270.676753 185.558753 
L 270.913559 190.217351 
L 271.150365 204.928713 
L 271.387171 197.584177 
L 271.860784 216.898412 
L 272.334396 198.342035 
L 273.518427 294.645732 
L 273.755234 276.267674 
L 273.99204 268.878558 
L 274.228846 202.075601 
L 274.465652 176.887966 
L 274.702458 193.215348 
L 274.939265 220.520528 
L 275.176071 213.131412 
L 275.649683 178.726886 
L 277.07052 303.082475 
L 277.780939 230.250088 
L 278.017745 225.513475 
L 278.254552 225.513475 
L 278.491358 206.0655 
L 278.728164 213.878125 
L 278.96497 228.589487 
L 279.201776 215.460711 
L 279.438583 235.889443 
L 279.675389 242.353527 
L 279.912195 220.531673 
L 280.149001 213.153702 
L 280.385807 214.323924 
L 280.622614 221.701895 
L 280.85942 214.323924 
L 281.333032 171.38235 
L 281.806645 221.64617 
L 282.043451 203.268112 
L 282.280257 225.792099 
L 282.517063 209.776776 
L 282.753869 227.530715 
L 282.990676 232.189313 
L 283.227482 214.435374 
L 283.464288 241.740553 
L 283.701094 219.216566 
L 283.937901 233.19236 
L 284.411513 193.950917 
L 284.648319 212.763628 
L 284.885125 191.342993 
L 285.121932 188.166676 
L 285.358738 170.167548 
L 285.595544 162.288053 
L 285.83235 148.312259 
L 286.069156 147.164327 
L 286.305963 150.1066 
L 286.542769 150.1066 
L 287.016381 184.433111 
L 287.253187 158.443038 
L 287.489994 176.196977 
L 287.963606 164.048959 
L 288.437218 216.809253 
L 288.674025 224.187223 
L 288.910831 244.615956 
L 289.147637 229.904594 
L 289.384443 204.716959 
L 289.62125 216.686658 
L 289.858056 189.381478 
L 290.094862 211.905465 
L 290.331668 184.332806 
L 290.568474 176.453312 
L 290.805281 203.758491 
L 291.042087 187.431108 
L 291.278893 206.24382 
L 291.515699 198.899284 
L 291.752505 212.908513 
L 291.989312 240.481171 
L 292.226118 222.727232 
L 292.462924 222.727232 
L 292.69973 244.147867 
L 292.936536 219.87412 
L 293.173343 230.149783 
L 293.410149 258.580605 
L 293.646955 264.33141 
L 293.883761 273.893795 
L 294.120567 291.759184 
L 294.357374 269.93733 
L 294.59418 268.622224 
L 294.830986 257.945341 
L 295.067792 230.372682 
L 295.541405 202.822314 
L 296.015017 253.030409 
L 296.251823 170.056098 
L 296.48863 192.580085 
L 296.725436 185.202114 
L 296.962242 211.192187 
L 297.199048 203.312692 
L 297.672661 246.365716 
L 297.909467 228.500327 
L 298.146273 235.243035 
L 298.619885 277.092402 
L 298.856692 266.415519 
L 299.093498 284.793577 
L 299.330304 266.415519 
L 299.56711 259.951436 
L 300.040723 295.893968 
L 300.277529 268.588789 
L 300.514335 286.966846 
L 300.751141 315.921482 
L 300.987947 322.385565 
L 301.224754 296.395492 
L 301.46156 291.146211 
L 302.408785 209.264107 
L 302.645591 222.392883 
L 303.119203 200.314695 
L 303.35601 192.50207 
L 303.592816 209.219527 
L 303.829622 190.84147 
L 304.303234 199.434242 
L 304.540041 220.854877 
L 304.776847 199.033023 
L 305.013653 220.587398 
L 305.250459 225.245996 
L 305.724072 191.721922 
L 305.960878 224.900502 
L 306.197684 236.870201 
L 306.43449 264.17538 
L 306.671296 239.901633 
L 306.908103 247.279604 
L 307.144909 234.150828 
L 307.618521 274.473334 
L 307.855328 270.906943 
L 308.092134 263.595842 
L 308.32894 271.475336 
L 309.039359 325.294402 
L 309.512971 287.033716 
L 310.22339 311.563798 
L 310.460196 293.18574 
L 310.697002 311.563798 
L 310.933808 289.039811 
L 311.170614 316.61247 
L 311.644227 277.326446 
L 311.881033 295.191835 
L 312.117839 287.813864 
L 312.591452 302.536371 
L 312.828258 291.859489 
L 313.065064 298.602196 
L 313.30187 280.224139 
L 313.775483 265.033543 
L 314.249095 294.088483 
L 314.722708 251.436678 
L 314.959514 275.710425 
L 315.19632 260.999063 
L 315.433126 233.426405 
L 315.669932 258.212821 
L 315.906739 239.834763 
L 316.143545 247.647388 
L 316.617157 219.216566 
L 316.853963 229.893449 
L 317.09077 201.351177 
L 317.327576 220.776862 
L 317.564382 223.953179 
L 317.801188 231.765804 
L 318.274801 192.59123 
L 318.511607 200.470725 
L 319.222026 254.590705 
L 319.458832 236.836766 
L 319.932444 251.392098 
L 320.16925 270.840073 
L 320.406057 274.01639 
L 320.642863 292.394447 
L 320.879669 301.421874 
L 321.353281 257.789312 
L 321.826894 213.086832 
L 322.0637 227.062626 
L 322.300506 209.063497 
L 322.537312 205.887181 
L 322.774119 191.911387 
L 323.010925 219.484046 
L 323.721343 264.498584 
L 324.194956 296.440072 
L 324.668568 258.179386 
L 324.905375 250.79027 
L 325.142181 268.789398 
L 325.378987 250.411341 
L 325.852599 288.672027 
L 326.089406 281.327491 
L 326.799824 233.838769 
L 327.03663 251.592708 
L 327.747049 188.657055 
L 327.983855 200.727059 
L 328.220661 203.903376 
L 328.457468 228.177123 
L 328.694274 235.521659 
L 328.93108 251.849042 
L 329.167886 239.879343 
L 329.641499 268.421614 
L 329.878305 250.556225 
L 330.115111 275.74386 
L 330.351917 257.989921 
L 330.588724 265.367892 
L 330.82553 260.709294 
L 331.062336 282.129929 
L 331.535948 260.34151 
L 331.772755 252.963539 
L 332.009561 270.962668 
L 332.246367 246.68892 
L 332.483173 236.012038 
L 332.719979 214.190184 
L 333.430398 254.980779 
L 333.667204 245.953352 
L 333.90401 283.913124 
L 334.140817 288.571722 
L 334.377623 170.836246 
L 334.614429 146.04983 
L 334.851235 170.323578 
L 335.088041 159.646695 
L 335.324848 140.37704 
L 335.561654 151.912085 
L 335.79846 155.088402 
L 336.035266 173.901113 
L 336.272073 164.873687 
L 336.508879 172.753181 
L 336.745685 154.375124 
L 336.982491 176.899111 
L 337.456104 144.18862 
L 338.166522 195.923576 
L 338.403328 188.545605 
L 338.640135 193.204203 
L 338.876941 190.027887 
L 339.113747 182.215262 
L 339.350553 188.679345 
L 339.587359 170.813956 
L 339.824166 163.42484 
L 340.060972 145.670901 
L 340.297778 161.920269 
L 340.534584 254.702155 
L 340.77139 277.226142 
L 341.008197 259.227013 
L 341.245003 271.196712 
L 341.481809 298.501892 
L 341.718615 280.123834 
L 341.955422 298.501892 
L 342.429034 275.85531 
L 342.66584 282.598018 
L 342.902646 306.871765 
L 343.139453 289.117826 
L 343.613065 272.712428 
L 343.849871 280.591923 
L 344.323484 314.918434 
L 344.56029 308.175727 
L 344.797096 290.176598 
L 345.033902 282.297103 
L 345.270708 300.296232 
L 345.507515 292.483607 
L 345.744321 273.057922 
L 345.981127 273.057922 
L 346.217933 143.564502 
L 346.454739 149.025537 
L 346.691546 166.890926 
L 346.928352 159.512955 
L 347.401964 212.852788 
L 347.63877 188.57904 
L 348.112383 192.145431 
L 348.349189 208.606554 
L 348.585995 216.419179 
L 348.822802 229.547955 
L 349.059608 255.538028 
L 349.296414 262.882564 
L 349.770026 306.782605 
L 350.480445 237.20455 
L 350.717251 261.478297 
L 350.954057 267.942381 
L 351.190864 260.553265 
L 351.42767 287.858444 
L 351.664476 281.394361 
L 351.901282 270.717478 
L 352.138088 168.428932 
L 352.374895 176.308427 
L 352.611701 157.038772 
L 352.848507 164.383308 
L 353.085313 146.384179 
L 353.795732 196.012736 
L 354.032538 184.043037 
L 354.269344 165.230326 
L 354.742957 217.72314 
L 354.979763 228.377733 
L 355.453375 280.224139 
L 355.926988 240.425447 
L 356.163794 237.24913 
L 356.637406 273.135937 
L 356.874213 245.563278 
L 357.111019 270.750913 
L 357.347825 251.302938 
L 357.584631 259.115563 
L 357.821437 286.420743 
L 358.058244 278.541248 
L 358.531856 240.247127 
L 358.768662 290.076293 
L 359.005468 273.982955 
L 359.242275 275.465236 
L 359.715887 295.971983 
L 359.952693 282.843207 
L 360.663112 227.252091 
L 360.899918 206.823358 
L 361.136724 203.112083 
L 361.373531 184.867765 
L 361.610337 207.391752 
L 361.847143 191.064369 
L 362.320755 214.468809 
L 362.557562 222.281433 
L 362.794368 209.977385 
L 363.26798 245.574423 
L 363.741593 209.197237 
L 363.978399 216.586353 
L 364.452011 179.451309 
L 364.688817 178.537421 
L 364.925624 196.40281 
L 365.16243 189.938727 
L 365.399236 186.76241 
L 365.636042 205.140468 
L 365.872849 212.518439 
L 366.109655 240.091097 
L 366.346461 246.555181 
L 366.583267 241.896583 
L 366.820073 181.189924 
L 367.05688 206.377559 
L 367.530492 231.030236 
L 367.767298 213.276297 
L 368.004104 210.09998 
L 368.714523 264.509729 
L 368.951329 257.767022 
L 369.188135 247.090139 
L 369.424942 264.955528 
L 369.661748 263.640422 
L 369.898554 285.462275 
L 370.372166 234.685786 
L 370.608973 241.428494 
L 370.845779 236.769896 
L 371.082585 264.075075 
L 371.556198 222.805247 
L 372.503422 303.639723 
L 372.740229 279.365976 
L 372.977035 288.393403 
L 373.687453 231.687789 
L 373.92426 253.108424 
L 374.161066 239.13263 
L 374.397872 255.460013 
L 374.871484 219.216566 
L 375.345097 176.141252 
L 375.581903 192.156576 
L 375.818709 218.146649 
L 376.055515 192.959014 
L 376.292322 200.771639 
L 376.529128 214.747433 
L 377.476353 153.71757 
L 377.713159 175.539424 
L 377.949965 182.917395 
L 378.423578 220.743427 
L 378.660384 202.744299 
L 378.89719 195.366328 
L 379.370802 225.669505 
L 379.607609 216.642078 
L 379.844415 234.641206 
L 380.081221 229.982608 
L 380.318027 216.006815 
L 380.79164 223.841729 
L 381.028446 217.377646 
L 381.265252 214.201329 
L 381.502058 241.773988 
L 381.738864 252.45087 
L 381.975671 234.072813 
L 382.212477 239.957358 
L 382.449283 220.509383 
L 382.686089 210.724098 
L 382.922896 188.902245 
L 383.159702 188.902245 
L 383.87012 222.972422 
L 384.106927 195.667242 
L 384.343733 216.095974 
L 384.580539 208.706858 
L 384.817345 215.939945 
L 385.054151 219.116262 
L 385.290958 198.687529 
L 385.527764 217.957185 
L 385.76457 208.929758 
L 386.238182 243.757793 
L 386.474989 240.581476 
L 386.711795 224.566152 
L 386.948601 198.57608 
L 387.185407 216.954137 
L 387.422213 223.195321 
L 387.65902 222.760667 
L 387.895826 248.75074 
L 388.132632 255.493448 
L 388.369438 243.523749 
L 388.843051 284.726707 
L 389.079857 270.015345 
L 389.316663 277.404461 
L 389.553469 269.524966 
L 389.790276 292.048953 
L 390.027082 278.073159 
L 390.500694 231.230845 
L 390.7375 243.200544 
L 390.974307 218.012909 
L 391.211113 224.476993 
L 391.447919 208.461669 
L 391.684725 235.766849 
L 392.158338 199.389662 
L 392.395144 217.388791 
L 392.63195 195.968156 
L 392.868756 217.79001 
L 393.342369 203.022923 
L 393.579175 230.595582 
L 393.815981 203.290402 
L 394.052787 221.66846 
L 394.289594 230.695887 
L 394.5264 248.561276 
L 395.000012 208.28335 
L 395.236818 224.298673 
L 395.473625 249.486308 
L 395.710431 238.809426 
L 395.947237 220.944037 
L 396.184043 228.823531 
L 396.657656 274.517914 
L 396.894462 203.100938 
L 397.368074 232.189313 
L 398.078493 176.587051 
L 398.315299 192.602375 
L 398.552105 191.186964 
L 398.788911 198.999588 
L 399.025718 212.128365 
L 399.262524 204.31574 
L 399.49933 189.604378 
L 399.736136 184.94578 
L 399.972942 192.758405 
L 400.209749 189.604378 
L 400.446555 179.484744 
L 400.683361 197.350133 
L 401.39378 151.053922 
L 401.630586 265.568502 
L 401.867392 258.725489 
L 402.104198 248.048607 
L 402.341005 255.861232 
L 402.577811 259.037548 
L 402.814617 233.047476 
L 403.051423 221.478995 
L 403.525036 246.131672 
L 403.761842 228.266283 
L 404.235454 261.823791 
L 404.47226 277.839115 
L 404.709067 284.303198 
L 404.945873 271.174422 
L 405.182679 292.595057 
L 405.893098 272.244339 
L 406.129904 278.987047 
L 406.36671 254.200631 
L 406.603516 273.470286 
L 406.840323 267.006203 
L 407.077129 279.71147 
L 407.313935 276.423704 
L 407.550741 266.839028 
L 407.787547 270.940378 
L 408.024354 296.930451 
L 408.26116 301.0318 
L 408.734772 333.608551 
L 408.971578 314.338896 
L 409.208385 330.666279 
L 409.445191 314.650955 
L 409.681997 322.040071 
L 410.629222 264.565454 
L 411.33964 287.780429 
L 411.813253 248.605855 
L 412.286865 291.558575 
L 412.523672 278.429798 
L 412.760478 296.183738 
L 412.997284 274.361884 
L 413.23409 282.241379 
L 413.470896 274.428754 
L 413.707703 281.81787 
L 413.944509 256.630235 
L 414.418121 239.489269 
L 414.654927 204.438334 
L 414.891734 196.62571 
L 415.12854 199.077603 
L 415.365346 218.525578 
L 415.838958 192.323751 
L 416.075765 207.035113 
L 416.312571 188.657055 
L 416.549377 196.001591 
L 416.786183 188.62362 
L 417.022989 196.001591 
L 417.970214 259.461057 
L 418.207021 247.491358 
L 418.443827 229.625969 
L 418.680633 221.746475 
L 418.917439 194.173816 
L 419.391052 224.421268 
L 419.627858 233.448695 
L 419.864664 226.059579 
L 420.10147 207.681521 
L 420.338276 215.070637 
L 420.575083 227.040336 
L 420.811889 248.460971 
L 421.048695 241.083 
L 421.285501 245.741598 
L 421.522307 223.217611 
L 421.759114 231.030236 
L 421.99592 223.217611 
L 422.232726 247.491358 
L 422.469532 255.303983 
L 422.943145 217.154747 
L 423.179951 223.897454 
L 423.416757 205.084743 
L 423.653563 198.342035 
L 423.89037 225.914694 
L 424.127176 211.9389 
L 424.363982 228.266283 
L 424.837594 182.571901 
L 425.074401 191.042079 
L 425.311207 184.890055 
L 425.548013 168.874731 
L 425.784819 175.0379 
L 426.021625 193.415958 
L 426.258432 196.592275 
L 426.495238 184.622576 
L 426.96885 144.823883 
L 427.442463 161.42989 
L 427.679269 262.581649 
L 428.152881 294.556572 
L 428.389687 297.732889 
L 428.8633 258.446865 
L 429.100106 279.8675 
L 429.573719 229.893449 
L 429.810525 249.163104 
L 430.047331 242.699021 
L 430.284137 221.278386 
L 430.520943 222.916697 
L 430.75775 212.239814 
L 431.231362 226.973466 
L 431.468168 219.160841 
L 431.704974 225.903549 
L 431.941781 213.93385 
L 432.178587 238.720266 
L 432.415393 246.532891 
L 432.652199 259.661667 
L 433.125812 221.412126 
L 433.362618 216.753528 
L 433.83623 201.529497 
L 434.309843 233.25923 
L 434.546649 243.936112 
L 434.783455 237.193405 
L 435.020261 255.058794 
L 435.257068 235.789139 
L 435.493874 247.758838 
L 435.967486 291.30224 
L 436.441099 266.25949 
L 436.677905 286.688222 
L 437.151517 241.116435 
L 437.388323 257.388093 
L 437.62513 159.234331 
L 437.861936 166.623447 
L 438.335548 128.875429 
L 439.045967 176.531326 
L 439.282773 169.788619 
L 439.519579 155.077257 
L 439.993192 190.295366 
L 440.229998 200.147521 
L 440.466804 201.418047 
L 440.70361 215.494146 
L 440.940417 196.046171 
L 441.414029 236.000893 
L 441.887641 208.762583 
L 442.361254 239.801328 
L 442.834866 194.998544 
L 443.071672 219.272291 
L 443.308479 211.883175 
L 443.545285 237.873248 
L 444.018897 220.453658 
L 444.729316 257.321223 
L 444.966122 284.626402 
L 445.202928 268.611079 
L 445.439734 282.586873 
L 445.676541 198.174861 
L 445.913347 225.48004 
L 446.150153 207.480912 
L 446.386959 179.908253 
L 446.623765 218.603593 
L 446.860572 200.225535 
L 447.097378 203.647041 
L 447.334184 241.473074 
L 447.807797 193.471683 
L 448.044603 181.401679 
L 448.518215 227.118351 
L 448.755021 248.940205 
L 448.991828 255.404288 
L 449.46544 216.419179 
L 449.702246 224.298673 
L 449.939052 242.297802 
L 450.175859 224.298673 
L 450.412665 244.727405 
L 450.886277 215.583306 
L 451.123083 222.927842 
L 451.35989 215.048347 
L 451.596696 215.048347 
L 452.070308 246.042512 
L 452.307114 228.177123 
L 452.543921 220.832587 
L 452.780727 201.384612 
L 453.017533 208.729148 
L 453.254339 223.44051 
L 453.491146 216.976427 
L 453.727952 239.623009 
L 454.201564 205.251917 
L 454.43837 232.824576 
L 454.675177 236.000893 
L 454.911983 253.866282 
L 455.148789 236.112343 
L 455.859208 288.192793 
L 456.33282 239.1995 
L 456.806432 220.487093 
L 457.043239 243.01108 
L 457.280045 239.834763 
L 457.516851 229.157881 
L 457.753657 236.535852 
L 458.22727 205.497107 
L 458.464076 197.617612 
L 458.700882 193.449393 
L 458.937688 205.419092 
L 459.174495 187.665153 
L 459.411301 188.155531 
L 459.648107 163.369115 
L 459.884913 160.426843 
L 460.358526 203.323837 
L 460.595332 210.712953 
L 460.832138 194.38557 
L 461.068944 200.849654 
L 461.30575 179.0278 
L 461.542557 171.649829 
L 461.779363 195.923576 
L 462.016169 168.618397 
L 462.252975 202.242775 
L 462.489781 260.664714 
L 462.726588 276.992097 
L 462.963394 251.002024 
L 463.2002 261.678907 
L 463.437006 252.127666 
L 463.673812 256.786264 
L 463.910619 238.408207 
L 464.147425 260.23006 
L 464.384231 252.840944 
L 464.621037 267.96467 
L 464.857844 259.015259 
L 465.09465 265.757966 
L 465.331456 249.742642 
L 466.041875 298.880821 
L 466.278681 282.553438 
L 466.752293 235.243035 
L 466.989099 242.632151 
L 467.225906 267.418567 
L 467.462712 260.074031 
L 467.936324 215.616741 
L 468.409937 253.364758 
L 468.646743 234.986701 
L 469.120355 284.815867 
L 469.357161 281.63955 
L 469.830774 314.72897 
L 470.304386 296.662971 
L 470.541193 288.850347 
L 470.777999 268.421614 
L 471.014805 276.234239 
L 471.251611 301.421874 
L 471.725224 261.143948 
L 471.96203 274.272724 
L 472.198836 249.998977 
L 472.435642 238.029278 
L 472.672448 257.298933 
L 473.146061 222.158839 
L 473.382867 197.372423 
L 473.856479 245.886482 
L 474.093286 238.508511 
L 474.566898 253.231018 
L 475.04051 213.944995 
L 475.514123 166.935506 
L 476.224542 212.785918 
L 476.698154 190.997499 
L 476.93496 163.69232 
L 477.171766 190.997499 
L 477.408573 168.473512 
L 477.645379 177.500939 
L 477.882185 202.688574 
L 478.118991 209.152657 
L 478.355797 230.974511 
L 478.82941 197.885091 
L 479.066216 262.113561 
L 479.303022 249.586613 
L 479.539828 267.452002 
L 479.776635 244.928015 
L 480.250247 270.082215 
L 480.487053 277.426751 
L 480.723859 257.978776 
L 480.960666 265.356747 
L 481.197472 281.372071 
L 481.671084 251.068894 
L 481.907891 247.892577 
L 482.144697 241.14987 
L 482.381503 260.419525 
L 482.618309 235.633109 
L 483.328728 277.058967 
L 483.565534 269.680996 
L 483.80234 250.868285 
L 484.039146 275.654701 
L 484.275953 248.082042 
L 484.512759 264.409425 
L 484.749565 249.698063 
L 484.986371 272.222049 
L 485.223177 196.391665 
L 485.459984 220.665413 
L 485.69679 217.489096 
L 486.170402 256.340465 
L 486.407208 231.15283 
L 486.644015 276.557443 
L 486.880821 283.300151 
L 487.117627 258.513735 
L 487.354433 265.891706 
L 487.59124 247.513648 
L 488.064852 281.672985 
L 488.301658 263.919046 
L 488.538464 256.541075 
L 488.775271 263.919046 
L 489.012077 282.297103 
L 489.248883 279.120787 
L 489.722495 233.861058 
L 489.959302 250.823705 
L 490.196108 280.168414 
L 490.432914 286.632497 
L 490.66972 259.059838 
L 491.380139 321.583127 
L 491.853751 310.460446 
L 492.090557 291.012471 
L 492.327364 285.116781 
L 492.56417 259.929146 
L 493.037782 299.415779 
L 493.274588 124.551181 
L 493.511395 114.074908 
L 493.748201 88.887273 
L 493.985007 98.873167 
L 494.45862 136.309125 
L 495.169038 210.300589 
L 495.405844 223.429365 
L 495.642651 220.253049 
L 495.879457 205.541687 
L 496.116263 224.811342 
L 496.353069 218.068634 
L 496.589875 201.741251 
L 497.063488 220.230759 
L 497.300294 215.66132 
L 497.5371 215.66132 
L 498.010713 258.981824 
L 498.247519 255.805507 
L 498.484325 235.889443 
L 498.721131 257.310078 
L 498.957937 250.56737 
L 499.194744 258.379995 
L 499.43155 233.19236 
L 499.668356 268.755963 
L 499.905162 275.498671 
L 500.141969 268.755963 
L 500.378775 280.034674 
L 500.615581 305.222309 
L 501.089193 319.955961 
L 501.562806 274.261579 
L 501.799612 277.437896 
L 502.036418 255.616042 
L 502.273224 252.439726 
L 502.510031 257.098323 
L 502.746837 249.218829 
L 503.457255 286.142119 
L 503.694062 277.114692 
L 503.930868 139.507732 
L 504.167674 159.936464 
L 504.40448 152.614218 
L 504.641286 177.801853 
L 504.878093 159.936464 
L 505.114899 256.68596 
L 505.351705 258.36885 
L 505.588511 264.832934 
L 506.29893 195.778692 
L 506.535736 215.048347 
L 506.772542 189.058274 
L 507.009349 187.654008 
L 507.246155 176.977125 
L 507.482961 149.404467 
L 507.719767 142.594889 
L 508.19338 179.16154 
L 508.430186 175.06019 
L 508.666992 194.485875 
L 508.903798 171.839294 
L 509.140604 171.839294 
L 509.377411 191.108949 
L 509.851023 151.421706 
L 510.087829 162.098589 
L 510.324635 164.193843 
L 510.561442 252.428581 
L 511.035054 284.403503 
L 511.508667 234.942121 
L 511.745473 245.318089 
L 511.982279 234.306857 
L 512.692698 292.918261 
L 512.929504 278.206899 
L 513.16631 294.534282 
L 513.403116 297.710599 
L 513.639922 305.099715 
L 513.876729 319.811077 
L 514.113535 299.382344 
L 514.350341 296.206028 
L 514.587147 274.384174 
L 514.823953 283.411601 
L 515.06076 302.681256 
L 515.297566 283.411601 
L 515.534372 290.789572 
L 515.771178 271.97686 
L 516.007984 292.405592 
L 516.244791 285.027621 
L 517.665628 177.01056 
L 517.902434 165.040861 
L 518.13924 178.169637 
L 518.849659 246.198542 
L 519.086465 224.777907 
L 519.560078 259.271593 
L 519.796884 273.247387 
L 520.03369 294.668022 
L 520.507302 277.82797 
L 520.744109 294.155353 
L 520.980915 318.4291 
L 521.217721 297.008465 
L 521.454527 300.184782 
L 521.691333 287.056006 
L 521.92814 297.732889 
L 522.401752 335.815255 
L 522.638558 323.845556 
L 522.875365 299.571809 
L 523.112171 162.756142 
L 523.348977 169.49885 
L 523.585783 161.686225 
L 524.059396 211.78287 
L 524.296202 204.438334 
L 524.533008 181.914348 
L 525.00662 206.567024 
L 525.243427 181.379389 
L 525.717039 226.817437 
L 525.953845 210.490054 
L 526.190651 228.489182 
L 526.427458 255.794362 
L 526.664264 248.405246 
L 526.90107 226.984611 
L 527.137876 217.957185 
L 527.374682 240.481171 
L 527.611489 222.103114 
L 527.848295 229.982608 
L 528.085101 210.534634 
L 528.321907 232.356487 
L 528.558714 231.186265 
L 528.79552 241.863148 
L 529.032326 259.862276 
L 529.269132 245.150914 
L 529.505938 253.030409 
L 529.742745 271.84312 
L 529.979551 276.501718 
L 530.216357 269.157182 
L 530.453163 296.729841 
L 530.926776 249.319134 
L 531.163582 273.592881 
L 531.400388 265.780256 
L 531.637194 293.085436 
L 532.110807 255.003069 
L 532.347613 280.993142 
L 532.821225 235.309905 
L 533.058031 181.312519 
L 533.294838 193.928627 
L 533.531644 214.357359 
L 533.76845 206.979388 
L 534.005256 210.155705 
L 534.242063 203.446432 
L 534.715675 164.639642 
L 534.952481 201.262018 
L 535.189287 214.335069 
L 535.426094 218.993667 
L 535.6629 214.335069 
L 535.899706 206.522444 
L 536.136512 224.900502 
L 536.373318 214.223619 
L 536.610125 213.164847 
L 536.846931 228.021094 
L 537.083737 235.399065 
L 537.320543 217.021007 
L 537.557349 189.715827 
L 537.794156 197.528452 
L 538.030962 178.715741 
L 538.267768 185.023795 
L 538.504574 164.595062 
L 538.74138 173.577909 
L 538.978187 157.562585 
L 539.688605 213.811255 
L 539.925412 209.152657 
L 540.162218 186.62867 
L 540.872636 257.767022 
L 541.109443 232.980606 
L 541.583055 278.195754 
L 541.819861 305.500934 
L 542.056667 302.324617 
L 542.293474 294.445122 
L 542.53028 280.413603 
L 543.003892 237.472029 
L 543.477505 249.475163 
L 543.714311 230.027188 
L 544.187923 273.213952 
L 544.661536 245.373814 
L 544.898342 260.085176 
L 545.135148 282.609163 
L 545.371954 266.28178 
L 545.60876 241.094145 
L 545.845567 234.351437 
L 546.082373 252.105376 
L 546.319179 238.129582 
L 546.555985 252.996974 
L 546.792792 256.151001 
L 547.029598 275.598976 
L 547.50321 227.597585 
L 547.740016 220.297628 
L 547.976823 232.267328 
L 548.213629 207.480912 
L 548.450435 220.609688 
L 549.160854 171.861584 
L 549.39766 185.837377 
L 549.634466 167.45932 
L 550.108078 146.04983 
L 550.344885 165.319485 
L 550.581691 139.329413 
L 550.818497 128.65253 
L 551.055303 144.979913 
L 551.292109 172.285092 
L 551.528916 164.907121 
L 551.765722 181.234504 
L 552.002528 206.422139 
L 552.239334 199.679432 
L 552.712947 244.047562 
L 552.949753 216.742383 
L 553.186559 209.353267 
L 553.660172 260.374945 
L 553.896978 267.764061 
L 554.133784 248.316086 
L 554.37059 260.285785 
L 554.607396 252.47316 
L 554.844203 280.045819 
L 555.081009 286.788527 
L 555.317815 308.610381 
L 555.554621 288.181648 
L 555.791427 280.837112 
L 556.028234 301.265844 
L 556.26504 287.290051 
L 556.501846 157.629455 
L 556.738652 157.629455 
L 556.975458 182.415871 
L 557.212265 175.071335 
L 557.685877 212.908513 
L 557.922683 196.58113 
L 558.396296 218.737333 
L 558.633102 204.025971 
L 559.817133 287.992184 
L 560.053939 262.804549 
L 560.290745 269.547256 
L 560.527552 262.169285 
L 560.764358 287.35692 
L 561.001164 299.326619 
L 561.23797 277.905985 
L 561.474776 297.17564 
L 562.185195 250.489356 
L 562.422001 271.90999 
L 562.658807 254.156051 
L 563.13242 240.94926 
L 563.369226 248.293796 
L 563.842839 207.202287 
L 564.079645 231.988703 
L 564.316451 228.812387 
L 564.790063 246.945255 
L 565.02687 240.202547 
L 565.263676 254.913909 
L 565.500482 242.94421 
L 565.737288 250.244166 
L 565.974094 272.06602 
L 566.210901 244.76084 
L 566.447707 235.811428 
L 566.684513 253.810557 
L 566.921319 262.837984 
L 567.394932 296.919306 
L 567.631738 280.591923 
L 567.868544 255.404288 
L 568.10535 247.591663 
L 568.578963 222.548913 
L 568.815769 213.71095 
L 569.052575 238.898585 
L 569.289381 246.77808 
L 569.526188 239.400109 
L 569.762994 250.076992 
L 569.9998 238.185307 
L 570.236606 244.928015 
L 570.473412 235.900588 
L 570.710219 239.076905 
L 570.947025 231.732369 
L 571.657443 281.951609 
L 571.89425 275.208902 
L 572.604668 239.15492 
L 572.841474 248.182347 
L 573.315087 259.583652 
L 573.551893 252.974684 
L 573.788699 163.64774 
L 574.262312 187.185919 
L 574.499118 180.342907 
L 574.735924 178.760321 
L 575.683149 253.208729 
L 575.919955 246.744645 
L 576.156761 224.922792 
L 576.393568 221.746475 
L 576.630374 211.270202 
L 576.86718 238.842861 
L 577.103986 253.275598 
L 577.340792 255.560317 
L 577.577599 230.773901 
L 578.051211 245.931062 
L 578.288017 271.118697 
L 578.524823 245.931062 
L 578.76163 263.930191 
L 579.235242 235.243035 
L 579.472048 207.369462 
L 579.945661 228.277428 
L 580.182467 236.090053 
L 580.656079 193.003594 
L 580.892886 211.381652 
L 581.129692 218.770767 
L 581.603304 195.812127 
L 582.076917 247.602808 
L 582.313723 261.578602 
L 582.550529 254.189486 
L 583.024141 286.130974 
L 583.260948 304.130102 
L 583.497754 287.802719 
L 583.73456 281.338636 
L 583.971366 287.802719 
L 584.444979 337.197232 
L 584.681785 319.443293 
L 585.155397 273.057922 
L 585.392203 259.929146 
L 585.62901 264.587744 
L 585.865816 282.341683 
L 586.102622 260.921049 
L 586.339428 263.484392 
L 586.576235 284.905027 
L 587.049847 243.05566 
L 587.286653 241.406204 
L 587.523459 268.978863 
L 587.760266 249.062799 
L 587.997072 255.081084 
L 588.470684 248.527841 
L 588.70749 229.079866 
L 588.944297 238.107293 
L 589.181103 265.412472 
L 589.654715 251.280649 
L 590.128328 286.420743 
L 590.365134 279.076207 
L 590.60194 283.734805 
L 590.838746 256.429625 
L 591.312359 298.401587 
L 591.549165 282.074204 
L 591.785971 288.538287 
L 592.022777 301.667063 
L 592.49639 264.476294 
L 592.733196 292.048953 
L 593.206808 260.20777 
L 593.443615 267.552307 
L 593.680421 249.798367 
L 593.917227 268.611079 
L 594.154033 261.266543 
L 594.627646 291.56972 
L 595.101258 268.923138 
L 595.57487 224.922792 
L 595.811677 231.665499 
L 596.048483 250.043557 
L 596.285289 224.053484 
L 596.995708 296.651826 
L 597.232514 304.531321 
L 598.179739 221.423271 
L 598.416545 214.0453 
L 598.653351 200.916524 
L 598.890157 214.892317 
L 599.126964 214.892317 
L 599.36377 193.471683 
L 599.600576 215.293536 
L 599.837382 206.26611 
L 600.310995 237.148825 
L 600.547801 232.490227 
L 600.784607 214.736288 
L 601.021413 233.08091 
L 601.495026 247.636243 
L 601.731832 200.961103 
L 602.44225 249.987832 
L 602.679057 272.511819 
L 602.915863 179.830238 
L 603.389475 173.678214 
L 603.626281 180.420921 
L 603.863088 171.393495 
L 604.099894 155.378171 
L 604.3367 162.811867 
L 604.810313 206.711909 
L 605.283925 248.68387 
L 605.757537 234.563192 
L 605.994344 241.027275 
L 606.23115 223.161886 
L 606.467956 244.98374 
L 606.704762 238.519656 
L 606.941568 178.102767 
L 607.178375 203.702766 
L 607.651987 171.29319 
L 607.888793 184.421966 
L 608.125599 171.29319 
L 608.362406 196.480825 
L 608.599212 171.29319 
L 608.836018 187.620573 
L 609.072824 211.89432 
L 609.30963 195.566937 
L 609.546437 217.388791 
L 609.783243 222.047389 
L 610.020049 218.871072 
L 610.256855 210.991578 
L 610.730468 171.29319 
L 611.20408 206.890228 
L 611.440886 188.512171 
L 611.677693 215.81735 
L 611.914499 269.747866 
L 612.151305 266.627274 
L 612.388111 273.091357 
L 612.624917 292.539332 
L 612.861724 299.28204 
L 613.09853 315.609422 
L 613.335336 296.796711 
L 613.572142 217.177037 
L 613.808948 217.177037 
L 614.045755 215.505291 
L 614.282561 231.520615 
L 614.519367 220.843732 
L 614.992979 252.339421 
L 615.229786 271.609076 
L 615.466592 276.267674 
L 615.703398 271.609076 
L 615.940204 252.161101 
L 616.413817 286.565627 
L 616.650623 264.041641 
L 616.887429 256.66367 
L 617.124235 187.263934 
L 617.361042 199.233633 
L 618.07146 139.986966 
L 618.308266 140.833984 
L 618.545073 157.161366 
L 618.781879 160.337683 
L 619.018685 153.594976 
L 619.255491 175.416829 
L 619.729104 122.924015 
L 619.96591 120.639296 
L 620.202716 175.606294 
L 620.439522 175.606294 
L 620.676328 179.629628 
L 620.913135 187.018744 
L 621.149941 179.640773 
L 621.623553 196.46968 
L 621.86036 175.049045 
L 622.333972 208.294494 
L 622.570778 194.318701 
L 622.807584 221.62388 
L 623.044391 228.087963 
L 623.281197 202.900328 
L 623.754809 188.344996 
L 623.991615 213.532631 
L 624.228422 195.667242 
L 624.465228 189.203159 
L 624.702034 186.127147 
L 624.93884 206.745343 
L 625.175646 206.745343 
L 625.412453 220.721137 
L 625.649259 246.71121 
L 626.122871 274.696233 
L 626.359677 252.874379 
L 626.596484 275.398366 
L 627.070096 225.424315 
L 627.306902 234.451742 
L 627.543709 226.572247 
L 627.780515 223.39593 
L 628.254127 182.059232 
L 628.490933 195.188008 
L 628.72774 169.197935 
L 628.964546 175.940643 
L 629.201352 169.47656 
L 629.438158 195.466633 
L 629.674964 203.346127 
L 630.148577 169.18679 
L 630.385383 193.973206 
L 630.622189 175.595149 
L 630.858995 275.041727 
L 631.095802 282.921222 
L 631.332608 257.733587 
L 631.569414 269.123747 
L 631.80622 244.85 
L 632.043026 234.864106 
L 632.279833 219.729235 
L 632.516639 230.406117 
L 632.753445 214.390794 
L 632.990251 226.360493 
L 633.227058 215.68361 
L 633.463864 195.254878 
L 633.70067 202.632849 
L 633.937476 195.243733 
L 634.174282 204.27116 
L 634.411089 197.807077 
L 634.647895 201.574077 
L 635.358313 269.703286 
L 635.831926 237.126535 
L 636.068732 243.590618 
L 636.305538 266.114605 
L 636.542344 244.292752 
L 636.779151 266.114605 
L 637.015957 247.736548 
L 637.252763 247.736548 
L 637.489569 220.163889 
L 637.726375 244.950305 
L 637.963182 255.627187 
L 638.199988 247.747693 
L 638.436794 228.478037 
L 638.6736 219.929844 
L 638.910406 227.31896 
L 639.147213 202.131325 
L 639.620825 248.70616 
L 639.857631 256.050696 
L 640.331244 296.952741 
L 640.804856 255.838942 
L 641.041662 237.839813 
L 641.278469 228.812387 
L 641.515275 224.153789 
L 641.752081 212.184089 
L 642.4625 253.866282 
L 642.699306 239.890488 
L 643.172918 269.034588 
L 643.409724 249.764932 
L 643.646531 277.337591 
L 644.120143 228.823531 
L 644.356949 212.496149 
L 644.830562 248.093187 
L 645.067368 244.91687 
L 645.304174 270.906943 
L 645.777787 221.77991 
L 646.014593 235.755704 
L 646.251399 227.943079 
L 646.488205 235.755704 
L 646.961818 205.452527 
L 647.198624 202.722009 
L 648.145849 263.863321 
L 648.382655 256.050696 
L 648.619461 260.107466 
L 648.856267 241.729408 
L 649.093073 239.166065 
L 649.32988 251.135764 
L 649.566686 240.458881 
L 649.803492 237.282565 
L 650.040298 255.147954 
L 650.277104 232.623967 
L 650.513911 241.651393 
L 650.750717 257.666717 
L 650.987523 241.339334 
L 651.224329 257.666717 
L 651.461136 244.537941 
L 651.697942 263.807596 
L 652.171554 226.494232 
L 653.118779 307.161534 
L 653.355585 315.041029 
L 653.592391 306.013602 
L 654.066004 322.430145 
L 654.30281 311.753262 
L 654.539616 311.753262 
L 654.776422 293.999323 
L 655.013229 311.864712 
L 655.486841 272.578689 
L 655.960453 314.428056 
L 656.19726 295.1584 
L 656.434066 305.835283 
L 656.907678 275.108597 
L 657.144485 281.851305 
L 657.381291 273.97181 
L 657.854903 220.409078 
L 658.091709 228.288573 
L 658.328516 246.042512 
L 658.565322 239.578429 
L 658.802128 267.151088 
L 659.038934 241.963453 
L 659.27574 261.233108 
L 659.749353 231.28657 
L 660.222965 274.339594 
L 660.459771 209.821356 
L 660.696578 209.821356 
L 660.933384 231.24199 
L 661.17019 185.380434 
L 661.406996 210.16685 
L 661.643802 218.146649 
L 662.117415 253.922007 
L 662.354221 236.168068 
L 662.591027 254.546125 
L 663.06464 222.158839 
L 663.301446 229.971464 
L 663.538252 193.393668 
L 664.011865 232.791141 
L 664.248671 252.239116 
L 664.485477 259.583652 
L 664.959089 241.528799 
L 665.195896 258.45801 
L 665.432702 263.116608 
L 665.669508 273.79349 
L 666.14312 232.924881 
L 666.379927 183.697543 
L 666.853539 216.006815 
L 667.327151 228.901546 
L 667.563958 245.228929 
L 667.800764 226.850872 
L 668.03757 239.979648 
L 668.274376 239.979648 
L 668.511183 230.952221 
L 668.984795 193.516263 
L 669.221601 202.543689 
L 669.458407 223.964324 
L 669.93202 178.704596 
L 670.168826 183.363194 
L 671.116051 256.284741 
L 671.352857 248.940205 
L 671.826469 283.76824 
L 672.063276 269.792446 
L 672.300082 283.76824 
L 672.536888 265.769111 
L 672.773694 285.038766 
L 673.0105 277.226142 
L 673.247307 280.402458 
L 673.484113 287.791574 
L 673.720919 274.662798 
L 673.957725 271.486481 
L 674.194532 298.791661 
L 674.668144 316.211251 
L 674.90495 323.589222 
L 675.141756 312.912339 
L 675.378563 323.589222 
L 675.615369 304.77651 
L 675.852175 215.026057 
L 676.088981 209.620746 
L 676.325787 214.279344 
L 676.562594 197.951961 
L 677.273012 263.272638 
L 677.509818 270.650609 
L 677.746625 263.272638 
L 677.983431 241.852003 
L 678.220237 269.157182 
L 678.457043 261.344558 
L 678.693849 272.02144 
L 678.930656 265.278732 
L 679.167462 247.279604 
L 679.404268 254.022311 
L 679.641074 279.209946 
L 679.877881 266.08117 
L 680.351493 299.504939 
L 680.588299 294.846341 
L 680.825105 299.504939 
L 681.535524 346.737327 
L 681.77233 325.316692 
L 682.009136 343.182081 
L 682.245943 350.571197 
L 682.482749 365.282559 
L 682.719555 365.282559 
L 683.429974 297.955788 
L 683.66678 287.278906 
L 683.903586 203.736201 
L 684.140392 178.949785 
L 684.377198 195.277168 
L 684.850811 157.874645 
L 685.087617 183.06228 
L 685.324423 190.451396 
L 685.56123 183.06228 
L 685.798036 200.816219 
L 686.034842 228.388878 
L 686.508454 242.476121 
L 686.745261 260.34151 
L 686.982067 237.817523 
L 687.218873 231.074816 
L 687.455679 238.463932 
L 688.166098 192.41291 
L 688.63971 233.526709 
L 688.876516 238.185307 
L 689.113323 230.840771 
L 689.350129 249.218829 
L 689.586935 241.406204 
L 690.060547 203.658186 
L 690.297354 221.412126 
L 690.53416 213.075687 
L 690.770966 220.955182 
L 691.007772 204.627799 
L 691.244578 222.381738 
L 691.481385 215.639031 
L 691.718191 241.918873 
L 691.954997 252.49545 
L 692.191803 244.682826 
L 693.139028 189.403768 
L 693.375834 214.591403 
L 693.612641 226.561102 
L 693.849447 229.737419 
L 694.086253 255.727492 
L 694.323059 260.38609 
L 694.559865 252.996974 
L 694.796672 230.472987 
L 695.033478 239.500414 
L 695.270284 234.841816 
L 695.50709 234.841816 
L 695.743896 208.851743 
L 696.217509 241.272464 
L 696.454315 267.262537 
L 696.691121 255.292838 
L 696.927927 268.421614 
L 697.164734 261.678907 
L 697.638346 217.043297 
L 697.875152 236.312952 
L 698.111959 206.299545 
L 698.348765 198.48692 
L 698.585571 198.48692 
L 698.822377 213.198282 
L 699.059183 240.770941 
L 699.29599 215.583306 
L 699.532796 233.961363 
L 699.769602 241.305899 
L 700.243214 229.302765 
L 700.716827 268.533064 
L 700.953633 279.209946 
L 701.190439 273.113647 
L 701.427245 287.089441 
L 701.664052 308.911295 
L 701.900858 281.338636 
L 702.137664 273.960665 
L 702.848083 302.491791 
L 703.084889 198.687529 
L 703.321695 180.309472 
L 703.558501 180.309472 
L 703.795308 187.709733 
L 704.032114 203.725056 
L 704.26892 193.861757 
L 704.505726 193.226493 
L 704.979339 220.230759 
L 705.216145 200.961103 
L 705.452951 208.840598 
L 705.689757 202.376515 
L 705.926563 224.198368 
L 706.16337 217.455661 
L 706.400176 242.242077 
L 706.636982 230.272378 
L 706.873788 263.573552 
L 707.110594 276.702328 
L 707.347401 258.836939 
L 707.584207 251.492403 
L 707.821013 278.797582 
L 708.057819 261.043643 
L 708.294625 261.043643 
L 708.531432 280.313299 
L 708.768238 188.991404 
L 709.005044 207.369462 
L 709.24185 198.821269 
L 709.478657 218.090924 
L 709.715463 211.348217 
L 709.952269 216.419179 
L 710.189075 216.419179 
L 710.425881 243.958402 
L 710.662688 258.402285 
L 710.899494 251.224924 
L 711.1363 278.530103 
L 711.373106 259.260448 
L 711.609912 265.925141 
L 711.846719 256.340465 
L 712.320331 214.257054 
L 712.557137 239.444689 
L 712.793943 231.632064 
L 713.03075 231.632064 
L 713.267556 184.99036 
L 713.504362 184.99036 
L 713.741168 181.769463 
L 713.977974 234.852961 
L 714.214781 234.852961 
L 714.451587 243.880388 
L 714.688393 218.692753 
L 714.925199 206.723054 
L 715.162006 187.910342 
L 715.398812 187.910342 
L 715.635618 189.883002 
L 715.872424 190.585135 
L 717.056455 310.092662 
L 717.293261 289.663929 
L 717.530068 294.322527 
L 718.240486 247.636243 
L 718.477292 250.81256 
L 718.714099 232.947171 
L 718.950905 226.204463 
L 719.187711 242.531846 
L 719.424517 223.262191 
L 719.661323 223.262191 
L 719.89813 213.075687 
L 720.371742 240.938115 
L 720.608548 247.680823 
L 721.318967 298.958835 
L 721.555773 305.422919 
L 722.029386 264.520874 
L 722.266192 261.344558 
L 722.502998 279.722615 
L 722.739804 271.90999 
L 722.97661 251.481258 
L 723.450223 237.360579 
L 723.687029 244.749695 
L 723.923835 262.748824 
L 724.160641 270.561449 
L 724.397448 259.884566 
L 724.87106 224.421268 
L 725.107866 243.690923 
L 725.344672 237.22684 
L 725.581479 237.22684 
L 726.055091 280.814822 
L 726.291897 287.55753 
L 726.528704 311.831277 
L 727.002316 273.748911 
L 727.475928 315.018739 
L 727.949541 279.555441 
L 728.186347 284.214038 
L 728.423153 269.502676 
L 728.659959 280.179559 
L 728.896766 258.758924 
L 729.370378 247.357619 
L 729.607184 183.240599 
L 729.84399 197.818222 
L 730.080797 197.818222 
L 730.554409 214.234764 
L 730.791215 200.25897 
L 731.028021 214.234764 
L 731.264828 207.492057 
L 731.73844 256.886569 
L 731.975246 249.508598 
L 732.212053 274.295014 
L 732.448859 256.429625 
L 732.685665 263.807596 
L 732.922471 242.386961 
L 733.159277 237.728363 
L 733.63289 277.014387 
L 734.106502 237.728363 
L 734.343308 236.301807 
L 734.580115 210.311734 
L 734.816921 214.970332 
L 735.527339 161.117831 
L 735.764146 167.860539 
L 736.000952 149.047827 
L 736.237758 149.047827 
L 736.71137 167.604205 
L 737.184983 167.604205 
L 737.421789 170.780521 
L 738.132208 223.674555 
L 738.369014 207.347172 
L 738.60582 179.774513 
L 738.842626 179.774513 
L 739.079433 175.115915 
L 739.553045 210.512344 
L 739.789851 195.800982 
L 740.026657 192.624665 
L 740.263464 242.063757 
L 740.50027 216.073684 
L 741.210688 193.014739 
L 741.447495 200.39271 
L 741.684301 194.508165 
L 741.921107 169.32053 
L 742.157913 169.32053 
L 742.394719 196.62571 
L 742.631526 203.368417 
L 742.868332 221.122356 
L 743.57875 188.991404 
L 743.815557 188.991404 
L 744.052363 183.508078 
L 744.289169 165.754139 
L 744.525975 173.633634 
L 744.999588 133.433723 
L 745.236394 133.433723 
L 745.710006 192.557795 
L 745.946813 199.021878 
L 746.183619 212.997672 
L 746.657231 178.448262 
L 746.894037 169.420835 
L 747.130844 193.527408 
L 747.36765 198.186006 
L 747.604456 193.527408 
L 747.841262 165.954749 
L 748.314875 207.157707 
L 748.551681 199.345083 
L 748.788487 181.591143 
L 749.025293 200.860799 
L 749.262099 200.860799 
L 749.498906 193.471683 
L 749.735712 178.793756 
L 750.209324 217.143602 
L 750.446131 202.43224 
L 750.682937 227.218656 
L 750.919743 237.895538 
L 751.156549 240.247127 
L 751.393355 240.247127 
L 751.630162 220.799152 
L 751.866968 243.323139 
L 752.103774 238.586526 
L 752.34058 230.773901 
L 752.577386 235.432499 
L 752.814193 227.553005 
L 753.050999 226.148738 
L 753.287805 245.418394 
L 753.524611 226.148738 
L 753.761417 217.210471 
L 753.998224 226.237898 
L 754.23503 218.859927 
L 754.471836 232.835721 
L 754.945448 232.835721 
L 755.182255 240.715216 
L 755.419061 268.287875 
L 755.655867 247.859142 
L 755.892673 238.831716 
L 756.12948 257.644427 
L 756.366286 238.831716 
L 756.603092 238.831716 
L 756.839898 259.260448 
L 757.313511 229.26933 
L 757.550317 229.26933 
L 757.787123 251.091184 
L 758.023929 258.903809 
L 758.260735 284.893882 
L 758.497542 257.321223 
L 758.734348 276.590878 
L 758.971154 252.317131 
L 759.20796 252.317131 
L 759.444766 266.292925 
L 759.918379 226.605682 
L 760.155185 235.633109 
L 760.391991 219.305726 
L 760.865604 262.938288 
L 761.10241 249.809512 
L 761.339216 257.154048 
L 761.812829 242.420396 
L 762.049635 224.042339 
L 762.286441 240.369722 
L 762.523247 218.949087 
L 763.233666 280.413603 
L 763.707278 266.070025 
L 763.944084 241.283609 
L 764.180891 263.105463 
L 764.417697 254.078036 
L 764.654503 228.087963 
L 764.891309 247.535938 
L 765.128115 254.980779 
L 765.364922 244.73855 
L 765.601728 225.290576 
L 766.07534 251.548128 
L 766.312146 249.196539 
L 766.548953 249.196539 
L 766.785759 256.719394 
L 767.022565 244.660536 
L 767.259371 263.930191 
L 767.496178 242.509556 
L 767.732984 242.509556 
L 767.96979 239.333239 
L 768.206596 225.357445 
L 768.443402 231.743514 
L 768.680209 231.776949 
L 768.917015 243.846953 
L 769.153821 243.846953 
L 769.390627 238.374772 
L 769.627433 240.458881 
L 769.86424 240.458881 
L 770.101046 246.922965 
L 770.337852 232.947171 
L 770.574658 264.732629 
L 770.811464 255.760927 
L 771.048271 255.760927 
L 771.285077 273.760055 
L 771.521883 273.760055 
L 771.758689 252.339421 
L 771.995495 256.998019 
L 772.232302 243.869243 
L 772.705914 272.166325 
L 772.94272 279.555441 
L 773.416333 244.415346 
L 773.653139 236.602721 
L 773.889945 211.415086 
L 774.126751 238.987745 
L 774.363558 211.682566 
L 774.600364 229.547955 
L 774.83717 206.344125 
L 775.073976 210.278299 
L 775.310782 182.705641 
L 775.547589 182.705641 
L 775.784395 190.083611 
L 776.258007 190.083611 
L 776.494813 182.705641 
L 776.73162 164.060104 
L 776.968426 164.060104 
L 777.205232 171.40464 
L 777.442038 164.060104 
L 777.915651 179.451309 
L 778.152457 237.171115 
L 778.389263 237.171115 
L 778.626069 241.829713 
L 778.862876 214.524533 
L 779.099682 232.389922 
L 779.336488 232.389922 
L 779.8101 264.119655 
L 780.283713 227.987659 
L 780.994131 280.970852 
L 781.230938 294.099628 
L 781.467744 286.755092 
L 781.70455 266.32636 
L 782.178162 285.640595 
L 782.651775 253.910862 
L 783.125387 269.680996 
L 783.362193 244.493361 
L 783.599 239.834763 
L 784.072612 198.564935 
L 784.309418 213.276297 
L 784.546224 195.410908 
L 784.783031 217.934895 
L 785.019837 211.470811 
L 785.256643 212.317829 
L 785.493449 212.317829 
L 785.730256 219.706945 
L 786.440674 141.357797 
L 786.67748 207.012823 
L 786.914287 213.476906 
L 787.151093 213.476906 
L 787.387899 234.897541 
L 787.624705 234.897541 
L 787.861511 227.508425 
L 788.098318 245.262364 
L 788.335124 234.585482 
L 788.57193 245.262364 
L 788.808736 245.262364 
L 789.045542 235.956313 
L 789.282349 243.345429 
L 789.519155 234.318002 
L 789.755961 244.80542 
L 789.992767 226.427363 
L 790.229573 224.844777 
L 790.46638 232.222748 
L 790.939992 264.565454 
L 791.176798 264.565454 
L 791.413605 248.238071 
L 791.650411 241.773988 
L 791.887217 223.908599 
L 792.597636 223.908599 
L 792.834442 225.59149 
L 793.54486 225.59149 
L 794.018473 262.347605 
L 794.255279 237.561189 
L 794.492085 226.884306 
L 794.728891 210.868983 
L 794.965698 210.868983 
L 795.202504 192.056271 
L 795.43931 184.243647 
L 795.676116 184.243647 
L 795.912922 188.066372 
L 796.149729 181.658013 
L 796.386535 181.658013 
L 796.623341 189.537508 
L 797.096954 175.416829 
L 797.33376 175.416829 
L 797.807372 150.396369 
L 798.280985 195.199153 
L 798.517791 187.319659 
L 798.754597 191.978257 
L 798.991403 165.988184 
L 799.465016 185.112954 
L 799.701822 163.69232 
L 800.175434 177.500939 
L 800.41224 177.500939 
L 800.649047 161.173556 
L 800.885853 161.173556 
L 801.122659 154.709473 
L 801.596271 194.40786 
L 802.069884 154.832067 
L 802.30669 154.832067 
L 802.543496 166.801767 
L 803.017109 166.801767 
L 803.490721 151.644606 
L 803.727527 151.644606 
L 803.964334 151.009342 
L 804.20114 139.117658 
L 804.674752 183.10686 
L 804.911558 183.10686 
L 805.148365 178.448262 
L 805.385171 189.125144 
L 805.621977 178.448262 
L 805.858783 155.634505 
L 806.095589 155.634505 
L 806.332396 180.420921 
L 807.27962 180.420921 
L 807.516427 187.765457 
L 807.753233 162.577822 
L 807.990039 173.254705 
L 808.226845 159.278911 
L 808.937264 159.278911 
L 809.17407 167.091536 
L 809.647683 114.732461 
L 809.884489 170.044953 
L 810.358101 181.167635 
L 810.594907 173.789664 
L 810.831714 155.790535 
L 811.06852 155.790535 
L 811.305326 143.820836 
L 811.542132 123.392104 
L 811.778938 123.392104 
L 812.015745 123.213784 
L 812.726163 123.213784 
L 812.962969 115.401159 
L 813.199776 136.49859 
L 813.436582 136.49859 
L 813.673388 134.916004 
L 813.910194 134.916004 
L 814.147001 153.294061 
L 814.383807 153.294061 
L 814.620613 165.999329 
L 814.857419 169.175645 
L 815.331032 169.175645 
L 815.567838 181.145345 
L 816.04145 181.145345 
L 816.278256 173.800809 
L 816.515063 187.776602 
L 816.751869 195.154573 
L 817.225481 163.64774 
L 817.462287 158.989142 
L 817.699094 158.989142 
L 817.9359 176.743081 
L 818.172706 176.743081 
L 818.409512 184.087617 
L 818.646318 198.798979 
L 819.119931 198.798979 
L 819.593543 183.574948 
L 819.83035 208.762583 
L 820.303962 208.762583 
L 820.540768 181.189924 
L 821.487993 181.189924 
L 821.724799 174.870726 
L 821.961605 183.820138 
L 822.198412 174.235462 
L 822.435218 181.579998 
L 822.672024 172.552572 
L 822.90883 183.10686 
L 823.382443 183.10686 
L 823.619249 177.422924 
L 823.856055 158.610213 
L 824.092861 162.054009 
L 825.040086 162.042864 
L 825.276892 166.612302 
L 825.513699 181.323664 
L 826.224117 181.323664 
L 826.460923 170.646782 
L 826.69773 186.974165 
L 826.934536 167.704509 
L 827.171342 183.719833 
L 827.408148 191.108949 
L 827.644954 183.764413 
L 827.881761 183.764413 
L 828.118567 175.951788 
L 828.355373 159.624405 
L 829.065792 159.624405 
L 829.302598 133.634332 
L 829.539404 129.109474 
L 830.013016 129.109474 
L 830.249823 121.163109 
L 831.197048 121.163109 
L 831.433854 95.975474 
L 832.381079 95.975474 
L 832.617885 99.68675 
L 832.854691 99.68675 
L 833.328303 122.600811 
L 833.56511 122.600811 
L 833.801916 139.307123 
L 834.275528 139.307123 
L 834.512334 146.651659 
L 834.985947 146.651659 
L 835.222753 165.921314 
L 835.459559 165.921314 
L 835.696365 151.94552 
L 835.933172 151.94552 
L 836.406784 117.117485 
L 836.64359 117.117485 
L 836.880396 122.344476 
L 837.354009 122.344476 
L 837.590815 151.85636 
L 838.064428 151.85636 
L 838.301234 165.832154 
L 838.774846 165.832154 
L 839.011652 167.470465 
L 839.248459 167.470465 
L 839.485265 164.294148 
L 839.722071 164.294148 
L 839.958877 165.453225 
L 840.195683 165.453225 
L 840.43249 157.6406 
L 840.669296 157.6406 
L 840.906102 165.029716 
L 841.379714 133.522883 
L 841.616521 133.522883 
L 841.853327 135.138903 
L 842.090133 147.108602 
L 842.326939 127.838947 
L 842.563745 127.838947 
L 842.800552 130.78122 
L 843.037358 130.78122 
L 843.51097 165.196891 
L 843.747777 165.196891 
L 843.984583 153.227192 
L 844.458195 153.227192 
L 844.695001 161.039816 
L 844.931808 145.024493 
L 845.168614 155.701375 
L 846.352645 155.701375 
L 846.589451 130.51374 
L 846.826257 130.51374 
L 847.063063 133.690057 
L 847.29987 133.690057 
L 847.536676 119.714263 
L 848.010288 119.714263 
L 848.247094 137.713392 
L 848.483901 137.713392 
L 848.720707 149.683091 
L 848.957513 142.30512 
L 849.194319 124.551181 
L 849.431126 132.430675 
L 849.667932 113.617964 
L 849.904738 113.617964 
L 850.141544 128.329326 
L 850.37835 120.94021 
L 850.851963 120.94021 
L 851.088769 110.263328 
L 851.325575 126.59071 
L 851.562381 126.59071 
L 851.799188 133.968681 
L 852.035994 133.968681 
L 852.2728 158.755097 
L 852.509606 146.785398 
L 852.746412 146.785398 
L 852.983219 171.059146 
L 855.114475 171.059146 
L 855.588087 156.436943 
L 856.061699 156.436943 
L 856.298506 149.092407 
L 857.008924 149.092407 
L 857.24573 134.447915 
L 857.482537 141.190623 
L 858.192955 141.190623 
L 858.429761 123.325234 
L 860.087405 123.325234 
L 860.324211 122.901725 
L 860.561017 140.064981 
L 861.508242 140.064981 
L 861.745048 142.3497 
L 861.981855 142.3497 
L 862.218661 123.971642 
L 863.402692 123.971642 
L 863.639498 126.456971 
L 864.11311 126.456971 
L 864.349917 128.507645 
L 866.244366 128.507645 
L 866.481173 126.022317 
L 866.954785 126.022317 
L 867.191591 118.209692 
L 867.428397 118.209692 
L 867.665204 128.886574 
L 868.375622 128.886574 
L 868.612428 140.856274 
L 870.033266 140.856274 
L 870.506878 118.209692 
L 871.690909 118.209692 
L 871.690909 118.209692 
" style="fill:none;stroke:#8dd3c7;stroke-linecap:square;stroke-width:1.5;"/>
   </g>
   <g id="line2d_17">
    <path clip-path="url(#pd802116bd8)" d="M 161.509091 125.910867 
L 188.504999 125.910867 
L 188.741805 98.828587 
L 493.511395 98.828587 
L 493.748201 88.887273 
L 871.690909 88.887273 
L 871.690909 88.887273 
" style="fill:none;stroke:#feffb3;stroke-linecap:square;stroke-width:1.5;"/>
   </g>
   <g id="line2d_18">
    <path clip-path="url(#pd802116bd8)" d="M 161.509091 125.910867 
L 163.166734 125.910867 
L 163.403541 139.995413 
L 165.061184 139.995413 
L 165.29799 153.526339 
L 166.955634 153.526339 
L 167.19244 166.525405 
L 168.850083 166.525405 
L 169.08689 179.013517 
L 170.744533 179.013517 
L 170.981339 191.010759 
L 172.638983 191.010759 
L 172.875789 202.536427 
L 174.533432 202.536427 
L 174.770239 213.609055 
L 176.427882 213.609055 
L 176.664688 224.246452 
L 178.322332 224.246452 
L 178.559138 234.465726 
L 180.216781 234.465726 
L 180.453588 244.283311 
L 182.111231 244.283311 
L 182.348037 253.714996 
L 184.005681 253.714996 
L 184.242487 262.775951 
L 185.90013 262.775951 
L 186.136937 271.480747 
L 187.79458 271.480747 
L 188.031386 279.843384 
L 189.68903 279.843384 
L 189.925836 287.877312 
L 191.583479 287.877312 
L 191.820286 295.59545 
L 193.477929 295.59545 
L 193.714735 303.010211 
L 195.372379 303.010211 
L 195.609185 310.133521 
L 197.266828 310.133521 
L 197.503635 316.976836 
L 199.161278 316.976836 
L 199.398084 323.55116 
L 201.055728 323.55116 
L 201.292534 329.867068 
L 202.950177 329.867068 
L 203.186984 335.934716 
L 204.844627 335.934716 
L 205.081433 341.763864 
L 206.739077 341.763864 
L 206.975883 347.363886 
L 208.633526 347.363886 
L 208.870333 352.743788 
L 210.527976 352.743788 
L 210.764782 357.912222 
L 212.422426 357.912222 
L 212.659232 362.877501 
L 214.316875 362.877501 
L 214.553682 367.64761 
L 216.211325 367.64761 
L 216.448131 372.23022 
L 218.105775 372.23022 
L 218.342581 376.632702 
L 220.000224 376.632702 
L 220.237031 380.862136 
L 221.894674 380.862136 
L 222.13148 384.925324 
L 223.789124 384.925324 
L 224.02593 388.8288 
L 225.683573 388.8288 
L 225.92038 392.578842 
L 227.578023 392.578842 
L 227.814829 396.181482 
L 229.472473 396.181482 
L 229.709279 399.642512 
L 231.366922 399.642512 
L 231.603729 402.967501 
L 233.261372 402.967501 
L 233.498178 406.161794 
L 235.155822 406.161794 
L 235.392628 409.230529 
L 237.050271 409.230529 
L 237.287078 412.178641 
L 238.944721 412.178641 
L 239.181527 415.010872 
L 240.839171 415.010872 
L 241.075977 417.731777 
L 242.73362 417.731777 
L 242.970427 420.345731 
L 244.62807 420.345731 
L 244.864876 422.856939 
L 246.52252 422.856939 
L 246.759326 425.269439 
L 248.416969 425.269439 
L 248.653776 427.587111 
L 250.311419 427.587111 
L 250.548225 429.813682 
L 252.205869 429.813682 
L 252.442675 431.952733 
L 254.100318 431.952733 
L 254.337124 434.007705 
L 255.994768 434.007705 
L 256.231574 435.981902 
L 257.889218 435.981902 
L 258.126024 437.878499 
L 259.783667 437.878499 
L 260.020473 439.700547 
L 261.678117 439.700547 
L 261.914923 441.450976 
L 263.572567 441.450976 
L 263.809373 443.132601 
L 265.467016 443.132601 
L 265.703822 444.748126 
L 267.361466 444.748126 
L 267.598272 446.30015 
L 269.255916 446.30015 
L 269.492722 447.791168 
L 271.150365 447.791168 
L 271.387171 449.223579 
L 273.044815 449.223579 
L 273.281621 450.599687 
L 274.939265 450.599687 
L 275.176071 451.921704 
L 276.833714 451.921704 
L 277.07052 453.191756 
L 278.728164 453.191756 
L 278.96497 454.411886 
L 280.622614 454.411886 
L 280.85942 455.584057 
L 282.517063 455.584057 
L 282.753869 456.710153 
L 284.411513 456.710153 
L 284.648319 457.791986 
L 286.305963 457.791986 
L 286.542769 458.831296 
L 288.200412 458.831296 
L 288.437218 459.829753 
L 290.094862 459.829753 
L 290.331668 460.788964 
L 291.989312 460.788964 
L 292.226118 461.710471 
L 293.883761 461.710471 
L 294.120567 462.595757 
L 295.778211 462.595757 
L 296.015017 463.446245 
L 297.672661 463.446245 
L 297.909467 464.263302 
L 299.56711 464.263302 
L 299.803916 465.048244 
L 301.46156 465.048244 
L 301.698366 465.802332 
L 303.35601 465.802332 
L 303.592816 466.526779 
L 305.250459 466.526779 
L 305.487265 467.22275 
L 307.144909 467.22275 
L 307.381715 467.891365 
L 309.039359 467.891365 
L 309.276165 468.533699 
L 310.933808 468.533699 
L 311.170614 469.150784 
L 312.828258 469.150784 
L 313.065064 469.743614 
L 314.722708 469.743614 
L 314.959514 470.313141 
L 316.617157 470.313141 
L 316.853963 470.860282 
L 318.511607 470.860282 
L 318.748413 471.385916 
L 320.406057 471.385916 
L 320.642863 471.89089 
L 322.300506 471.89089 
L 322.537312 472.376014 
L 324.194956 472.376014 
L 324.431762 472.84207 
L 326.089406 472.84207 
L 326.326212 473.289806 
L 327.983855 473.289806 
L 328.220661 473.719943 
L 329.878305 473.719943 
L 330.115111 474.133173 
L 331.772755 474.133173 
L 332.009561 474.53016 
L 333.667204 474.53016 
L 333.90401 474.911543 
L 335.561654 474.911543 
L 335.79846 475.277935 
L 337.456104 475.277935 
L 337.69291 475.629925 
L 339.350553 475.629925 
L 339.587359 475.968079 
L 341.245003 475.968079 
L 341.481809 476.292941 
L 343.139453 476.292941 
L 343.376259 476.605034 
L 345.033902 476.605034 
L 345.270708 476.90486 
L 346.928352 476.90486 
L 347.165158 477.192901 
L 348.822802 477.192901 
L 349.059608 477.469619 
L 350.717251 477.469619 
L 350.954057 477.735461 
L 352.611701 477.735461 
L 352.848507 477.990853 
L 354.506151 477.990853 
L 354.742957 478.236206 
L 356.4006 478.236206 
L 356.637406 478.471915 
L 358.29505 478.471915 
L 358.531856 478.69836 
L 360.1895 478.69836 
L 360.426306 478.915903 
L 362.083949 478.915903 
L 362.320755 479.124896 
L 363.978399 479.124896 
L 364.215205 479.325673 
L 365.872849 479.325673 
L 366.109655 479.518559 
L 367.767298 479.518559 
L 368.004104 479.703863 
L 369.661748 479.703863 
L 369.898554 479.881883 
L 371.556198 479.881883 
L 371.793004 480.052906 
L 373.450647 480.052906 
L 373.687453 480.217206 
L 375.345097 480.217206 
L 375.581903 480.375049 
L 377.239547 480.375049 
L 377.476353 480.526686 
L 379.133996 480.526686 
L 379.370802 480.672364 
L 381.028446 480.672364 
L 381.265252 480.812315 
L 382.922896 480.812315 
L 383.159702 480.946766 
L 384.817345 480.946766 
L 385.054151 481.075931 
L 386.711795 481.075931 
L 387.185407 481.200019 
L 388.606245 481.200019 
L 389.079857 481.31923 
L 390.500694 481.31923 
L 390.974307 481.433755 
L 394.289594 481.543779 
L 394.763206 481.649477 
L 398.078493 481.751021 
L 398.552105 481.848574 
L 401.867392 481.942292 
L 402.341005 482.032327 
L 405.656291 482.118822 
L 406.129904 482.201917 
L 409.445191 482.281747 
L 409.918803 482.358438 
L 413.23409 482.432115 
L 413.707703 482.502896 
L 417.022989 482.570895 
L 417.496602 482.636221 
L 420.811889 482.698979 
L 421.285501 482.75927 
L 424.600788 482.817191 
L 425.311207 482.872836 
L 430.284137 482.97765 
L 430.994556 483.026987 
L 435.967486 483.119921 
L 436.677905 483.163666 
L 441.650835 483.246066 
L 442.361254 483.284853 
L 449.228634 483.392304 
L 450.175859 483.425343 
L 456.806432 483.516869 
L 457.753657 483.545012 
L 466.278681 483.646946 
L 467.462712 483.669976 
L 477.645379 483.772236 
L 479.303022 483.790341 
L 492.800976 483.898641 
L 495.169038 483.924397 
L 517.428822 484.034409 
L 521.454527 484.056901 
L 568.578963 484.165634 
L 579.708854 484.180005 
L 871.690909 484.232727 
L 871.690909 484.232727 
" style="fill:none;stroke:#bfbbd9;stroke-linecap:square;stroke-width:1.5;"/>
   </g>
   <g id="patch_3">
    <path d="M 126 504 
L 126 69.12 
" style="fill:none;stroke:#ffffff;stroke-linecap:square;stroke-linejoin:miter;stroke-width:0.8;"/>
   </g>
   <g id="patch_4">
    <path d="M 907.2 504 
L 907.2 69.12 
" style="fill:none;stroke:#ffffff;stroke-linecap:square;stroke-linejoin:miter;stroke-width:0.8;"/>
   </g>
   <g id="patch_5">
    <path d="M 126 504 
L 907.2 504 
" style="fill:none;stroke:#ffffff;stroke-linecap:square;stroke-linejoin:miter;stroke-width:0.8;"/>
   </g>
   <g id="patch_6">
    <path d="M 126 69.12 
L 907.2 69.12 
" style="fill:none;stroke:#ffffff;stroke-linecap:square;stroke-linejoin:miter;stroke-width:0.8;"/>
   </g>
   <g id="text_17">
    <!-- instance 4 with error 0.11822317233836288 -->
    <g style="fill:#ffffff;" transform="translate(381.864375 63.12)scale(0.12 -0.12)">
     <defs>
      <path d="M 2834 3397 
L 2834 2853 
Q 2591 2978 2328 3040 
Q 2066 3103 1784 3103 
Q 1356 3103 1142 2972 
Q 928 2841 928 2578 
Q 928 2378 1081 2264 
Q 1234 2150 1697 2047 
L 1894 2003 
Q 2506 1872 2764 1633 
Q 3022 1394 3022 966 
Q 3022 478 2636 193 
Q 2250 -91 1575 -91 
Q 1294 -91 989 -36 
Q 684 19 347 128 
L 347 722 
Q 666 556 975 473 
Q 1284 391 1588 391 
Q 1994 391 2212 530 
Q 2431 669 2431 922 
Q 2431 1156 2273 1281 
Q 2116 1406 1581 1522 
L 1381 1569 
Q 847 1681 609 1914 
Q 372 2147 372 2553 
Q 372 3047 722 3315 
Q 1072 3584 1716 3584 
Q 2034 3584 2315 3537 
Q 2597 3491 2834 3397 
z
" id="DejaVuSans-73" transform="scale(0.015625)"/>
      <path d="M 3122 3366 
L 3122 2828 
Q 2878 2963 2633 3030 
Q 2388 3097 2138 3097 
Q 1578 3097 1268 2742 
Q 959 2388 959 1747 
Q 959 1106 1268 751 
Q 1578 397 2138 397 
Q 2388 397 2633 464 
Q 2878 531 3122 666 
L 3122 134 
Q 2881 22 2623 -34 
Q 2366 -91 2075 -91 
Q 1284 -91 818 406 
Q 353 903 353 1747 
Q 353 2603 823 3093 
Q 1294 3584 2113 3584 
Q 2378 3584 2631 3529 
Q 2884 3475 3122 3366 
z
" id="DejaVuSans-63" transform="scale(0.015625)"/>
      <path id="DejaVuSans-20" transform="scale(0.015625)"/>
      <path d="M 2419 4116 
L 825 1625 
L 2419 1625 
L 2419 4116 
z
M 2253 4666 
L 3047 4666 
L 3047 1625 
L 3713 1625 
L 3713 1100 
L 3047 1100 
L 3047 0 
L 2419 0 
L 2419 1100 
L 313 1100 
L 313 1709 
L 2253 4666 
z
" id="DejaVuSans-34" transform="scale(0.015625)"/>
      <path d="M 269 3500 
L 844 3500 
L 1563 769 
L 2278 3500 
L 2956 3500 
L 3675 769 
L 4391 3500 
L 4966 3500 
L 4050 0 
L 3372 0 
L 2619 2869 
L 1863 0 
L 1184 0 
L 269 3500 
z
" id="DejaVuSans-77" transform="scale(0.015625)"/>
      <path d="M 3513 2113 
L 3513 0 
L 2938 0 
L 2938 2094 
Q 2938 2591 2744 2837 
Q 2550 3084 2163 3084 
Q 1697 3084 1428 2787 
Q 1159 2491 1159 1978 
L 1159 0 
L 581 0 
L 581 4863 
L 1159 4863 
L 1159 2956 
Q 1366 3272 1645 3428 
Q 1925 3584 2291 3584 
Q 2894 3584 3203 3211 
Q 3513 2838 3513 2113 
z
" id="DejaVuSans-68" transform="scale(0.015625)"/>
      <path d="M 684 794 
L 1344 794 
L 1344 0 
L 684 0 
L 684 794 
z
" id="DejaVuSans-2e" transform="scale(0.015625)"/>
      <path d="M 2034 2216 
Q 1584 2216 1326 1975 
Q 1069 1734 1069 1313 
Q 1069 891 1326 650 
Q 1584 409 2034 409 
Q 2484 409 2743 651 
Q 3003 894 3003 1313 
Q 3003 1734 2745 1975 
Q 2488 2216 2034 2216 
z
M 1403 2484 
Q 997 2584 770 2862 
Q 544 3141 544 3541 
Q 544 4100 942 4425 
Q 1341 4750 2034 4750 
Q 2731 4750 3128 4425 
Q 3525 4100 3525 3541 
Q 3525 3141 3298 2862 
Q 3072 2584 2669 2484 
Q 3125 2378 3379 2068 
Q 3634 1759 3634 1313 
Q 3634 634 3220 271 
Q 2806 -91 2034 -91 
Q 1263 -91 848 271 
Q 434 634 434 1313 
Q 434 1759 690 2068 
Q 947 2378 1403 2484 
z
M 1172 3481 
Q 1172 3119 1398 2916 
Q 1625 2713 2034 2713 
Q 2441 2713 2670 2916 
Q 2900 3119 2900 3481 
Q 2900 3844 2670 4047 
Q 2441 4250 2034 4250 
Q 1625 4250 1398 4047 
Q 1172 3844 1172 3481 
z
" id="DejaVuSans-38" transform="scale(0.015625)"/>
      <path d="M 525 4666 
L 3525 4666 
L 3525 4397 
L 1831 0 
L 1172 0 
L 2766 4134 
L 525 4134 
L 525 4666 
z
" id="DejaVuSans-37" transform="scale(0.015625)"/>
      <path d="M 2113 2584 
Q 1688 2584 1439 2293 
Q 1191 2003 1191 1497 
Q 1191 994 1439 701 
Q 1688 409 2113 409 
Q 2538 409 2786 701 
Q 3034 994 3034 1497 
Q 3034 2003 2786 2293 
Q 2538 2584 2113 2584 
z
M 3366 4563 
L 3366 3988 
Q 3128 4100 2886 4159 
Q 2644 4219 2406 4219 
Q 1781 4219 1451 3797 
Q 1122 3375 1075 2522 
Q 1259 2794 1537 2939 
Q 1816 3084 2150 3084 
Q 2853 3084 3261 2657 
Q 3669 2231 3669 1497 
Q 3669 778 3244 343 
Q 2819 -91 2113 -91 
Q 1303 -91 875 529 
Q 447 1150 447 2328 
Q 447 3434 972 4092 
Q 1497 4750 2381 4750 
Q 2619 4750 2861 4703 
Q 3103 4656 3366 4563 
z
" id="DejaVuSans-36" transform="scale(0.015625)"/>
     </defs>
     <use xlink:href="#DejaVuSans-69"/>
     <use x="27.783203" xlink:href="#DejaVuSans-6e"/>
     <use x="91.162109" xlink:href="#DejaVuSans-73"/>
     <use x="143.261719" xlink:href="#DejaVuSans-74"/>
     <use x="182.470703" xlink:href="#DejaVuSans-61"/>
     <use x="243.75" xlink:href="#DejaVuSans-6e"/>
     <use x="307.128906" xlink:href="#DejaVuSans-63"/>
     <use x="362.109375" xlink:href="#DejaVuSans-65"/>
     <use x="423.632812" xlink:href="#DejaVuSans-20"/>
     <use x="455.419922" xlink:href="#DejaVuSans-34"/>
     <use x="519.042969" xlink:href="#DejaVuSans-20"/>
     <use x="550.830078" xlink:href="#DejaVuSans-77"/>
     <use x="632.617188" xlink:href="#DejaVuSans-69"/>
     <use x="660.400391" xlink:href="#DejaVuSans-74"/>
     <use x="699.609375" xlink:href="#DejaVuSans-68"/>
     <use x="762.988281" xlink:href="#DejaVuSans-20"/>
     <use x="794.775391" xlink:href="#DejaVuSans-65"/>
     <use x="856.298828" xlink:href="#DejaVuSans-72"/>
     <use x="895.662109" xlink:href="#DejaVuSans-72"/>
     <use x="934.525391" xlink:href="#DejaVuSans-6f"/>
     <use x="995.707031" xlink:href="#DejaVuSans-72"/>
     <use x="1036.820312" xlink:href="#DejaVuSans-20"/>
     <use x="1068.607422" xlink:href="#DejaVuSans-30"/>
     <use x="1132.230469" xlink:href="#DejaVuSans-2e"/>
     <use x="1164.017578" xlink:href="#DejaVuSans-31"/>
     <use x="1227.640625" xlink:href="#DejaVuSans-31"/>
     <use x="1291.263672" xlink:href="#DejaVuSans-38"/>
     <use x="1354.886719" xlink:href="#DejaVuSans-32"/>
     <use x="1418.509766" xlink:href="#DejaVuSans-32"/>
     <use x="1482.132812" xlink:href="#DejaVuSans-33"/>
     <use x="1545.755859" xlink:href="#DejaVuSans-31"/>
     <use x="1609.378906" xlink:href="#DejaVuSans-37"/>
     <use x="1673.001953" xlink:href="#DejaVuSans-32"/>
     <use x="1736.625" xlink:href="#DejaVuSans-33"/>
     <use x="1800.248047" xlink:href="#DejaVuSans-33"/>
     <use x="1863.871094" xlink:href="#DejaVuSans-38"/>
     <use x="1927.494141" xlink:href="#DejaVuSans-33"/>
     <use x="1991.117188" xlink:href="#DejaVuSans-36"/>
     <use x="2054.740234" xlink:href="#DejaVuSans-32"/>
     <use x="2118.363281" xlink:href="#DejaVuSans-38"/>
     <use x="2181.986328" xlink:href="#DejaVuSans-38"/>
    </g>
   </g>
   <g id="legend_1">
    <g id="patch_7">
     <path d="M 805.348438 499 
L 900.2 499 
Q 902.2 499 902.2 497 
L 902.2 453.965625 
Q 902.2 451.965625 900.2 451.965625 
L 805.348438 451.965625 
Q 803.348438 451.965625 803.348438 453.965625 
L 803.348438 497 
Q 803.348438 499 805.348438 499 
z
" style="opacity:0.8;stroke:#cccccc;stroke-linejoin:miter;"/>
    </g>
    <g id="line2d_19">
     <path d="M 807.348438 460.064062 
L 827.348438 460.064062 
" style="fill:none;stroke:#8dd3c7;stroke-linecap:square;stroke-width:1.5;"/>
    </g>
    <g id="line2d_20"/>
    <g id="text_18">
     <!-- cost -->
     <g style="fill:#ffffff;" transform="translate(835.348438 463.564062)scale(0.1 -0.1)">
      <use xlink:href="#DejaVuSans-63"/>
      <use x="54.980469" xlink:href="#DejaVuSans-6f"/>
      <use x="116.162109" xlink:href="#DejaVuSans-73"/>
      <use x="168.261719" xlink:href="#DejaVuSans-74"/>
     </g>
    </g>
    <g id="line2d_21">
     <path d="M 807.348438 474.742188 
L 827.348438 474.742188 
" style="fill:none;stroke:#feffb3;stroke-linecap:square;stroke-width:1.5;"/>
    </g>
    <g id="line2d_22"/>
    <g id="text_19">
     <!-- best cost -->
     <g style="fill:#ffffff;" transform="translate(835.348438 478.242188)scale(0.1 -0.1)">
      <defs>
       <path d="M 3116 1747 
Q 3116 2381 2855 2742 
Q 2594 3103 2138 3103 
Q 1681 3103 1420 2742 
Q 1159 2381 1159 1747 
Q 1159 1113 1420 752 
Q 1681 391 2138 391 
Q 2594 391 2855 752 
Q 3116 1113 3116 1747 
z
M 1159 2969 
Q 1341 3281 1617 3432 
Q 1894 3584 2278 3584 
Q 2916 3584 3314 3078 
Q 3713 2572 3713 1747 
Q 3713 922 3314 415 
Q 2916 -91 2278 -91 
Q 1894 -91 1617 61 
Q 1341 213 1159 525 
L 1159 0 
L 581 0 
L 581 4863 
L 1159 4863 
L 1159 2969 
z
" id="DejaVuSans-62" transform="scale(0.015625)"/>
      </defs>
      <use xlink:href="#DejaVuSans-62"/>
      <use x="63.476562" xlink:href="#DejaVuSans-65"/>
      <use x="125" xlink:href="#DejaVuSans-73"/>
      <use x="177.099609" xlink:href="#DejaVuSans-74"/>
      <use x="216.308594" xlink:href="#DejaVuSans-20"/>
      <use x="248.095703" xlink:href="#DejaVuSans-63"/>
      <use x="303.076172" xlink:href="#DejaVuSans-6f"/>
      <use x="364.257812" xlink:href="#DejaVuSans-73"/>
      <use x="416.357422" xlink:href="#DejaVuSans-74"/>
     </g>
    </g>
    <g id="line2d_23">
     <path d="M 807.348438 489.420313 
L 827.348438 489.420313 
" style="fill:none;stroke:#bfbbd9;stroke-linecap:square;stroke-width:1.5;"/>
    </g>
    <g id="line2d_24"/>
    <g id="text_20">
     <!-- temperature -->
     <g style="fill:#ffffff;" transform="translate(835.348438 492.920313)scale(0.1 -0.1)">
      <defs>
       <path d="M 3328 2828 
Q 3544 3216 3844 3400 
Q 4144 3584 4550 3584 
Q 5097 3584 5394 3201 
Q 5691 2819 5691 2113 
L 5691 0 
L 5113 0 
L 5113 2094 
Q 5113 2597 4934 2840 
Q 4756 3084 4391 3084 
Q 3944 3084 3684 2787 
Q 3425 2491 3425 1978 
L 3425 0 
L 2847 0 
L 2847 2094 
Q 2847 2600 2669 2842 
Q 2491 3084 2119 3084 
Q 1678 3084 1418 2786 
Q 1159 2488 1159 1978 
L 1159 0 
L 581 0 
L 581 3500 
L 1159 3500 
L 1159 2956 
Q 1356 3278 1631 3431 
Q 1906 3584 2284 3584 
Q 2666 3584 2933 3390 
Q 3200 3197 3328 2828 
z
" id="DejaVuSans-6d" transform="scale(0.015625)"/>
       <path d="M 1159 525 
L 1159 -1331 
L 581 -1331 
L 581 3500 
L 1159 3500 
L 1159 2969 
Q 1341 3281 1617 3432 
Q 1894 3584 2278 3584 
Q 2916 3584 3314 3078 
Q 3713 2572 3713 1747 
Q 3713 922 3314 415 
Q 2916 -91 2278 -91 
Q 1894 -91 1617 61 
Q 1341 213 1159 525 
z
M 3116 1747 
Q 3116 2381 2855 2742 
Q 2594 3103 2138 3103 
Q 1681 3103 1420 2742 
Q 1159 2381 1159 1747 
Q 1159 1113 1420 752 
Q 1681 391 2138 391 
Q 2594 391 2855 752 
Q 3116 1113 3116 1747 
z
" id="DejaVuSans-70" transform="scale(0.015625)"/>
       <path d="M 544 1381 
L 544 3500 
L 1119 3500 
L 1119 1403 
Q 1119 906 1312 657 
Q 1506 409 1894 409 
Q 2359 409 2629 706 
Q 2900 1003 2900 1516 
L 2900 3500 
L 3475 3500 
L 3475 0 
L 2900 0 
L 2900 538 
Q 2691 219 2414 64 
Q 2138 -91 1772 -91 
Q 1169 -91 856 284 
Q 544 659 544 1381 
z
M 1991 3584 
L 1991 3584 
z
" id="DejaVuSans-75" transform="scale(0.015625)"/>
      </defs>
      <use xlink:href="#DejaVuSans-74"/>
      <use x="39.208984" xlink:href="#DejaVuSans-65"/>
      <use x="100.732422" xlink:href="#DejaVuSans-6d"/>
      <use x="198.144531" xlink:href="#DejaVuSans-70"/>
      <use x="261.621094" xlink:href="#DejaVuSans-65"/>
      <use x="323.144531" xlink:href="#DejaVuSans-72"/>
      <use x="364.257812" xlink:href="#DejaVuSans-61"/>
      <use x="425.537109" xlink:href="#DejaVuSans-74"/>
      <use x="464.746094" xlink:href="#DejaVuSans-75"/>
      <use x="528.125" xlink:href="#DejaVuSans-72"/>
      <use x="566.988281" xlink:href="#DejaVuSans-65"/>
     </g>
    </g>
   </g>
  </g>
 </g>
 <defs>
  <clipPath id="pd802116bd8">
   <rect height="434.88" width="781.2" x="126" y="69.12"/>
  </clipPath>
 </defs>
</svg>
