<?xml version="1.0" encoding="utf-8" standalone="no"?>
<!DOCTYPE svg PUBLIC "-//W3C//DTD SVG 1.1//EN"
  "http://www.w3.org/Graphics/SVG/1.1/DTD/svg11.dtd">
<svg height="576pt" version="1.1" viewBox="0 0 1008 576" width="1008pt" xmlns="http://www.w3.org/2000/svg" xmlns:xlink="http://www.w3.org/1999/xlink">
 <metadata>
  <rdf:RDF xmlns:cc="http://creativecommons.org/ns#" xmlns:dc="http://purl.org/dc/elements/1.1/" xmlns:rdf="http://www.w3.org/1999/02/22-rdf-syntax-ns#">
   <cc:Work>
    <dc:type rdf:resource="http://purl.org/dc/dcmitype/StillImage"/>
    <dc:date>2022-01-08T01:27:29.239714</dc:date>
    <dc:format>image/svg+xml</dc:format>
    <dc:creator>
     <cc:Agent>
      <dc:title>Matplotlib v3.4.3, https://matplotlib.org/</dc:title>
     </cc:Agent>
    </dc:creator>
   </cc:Work>
  </rdf:RDF>
 </metadata>
 <defs>
  <style type="text/css">*{stroke-linecap:butt;stroke-linejoin:round;}</style>
 </defs>
 <g id="figure_1">
  <g id="patch_1">
   <path d="M 0 576 
L 1008 576 
L 1008 0 
L 0 0 
z
"/>
  </g>
  <g id="axes_1">
   <g id="patch_2">
    <path d="M 126 504 
L 907.2 504 
L 907.2 69.12 
L 126 69.12 
z
"/>
   </g>
   <g id="matplotlib.axis_1">
    <g id="xtick_1">
     <g id="line2d_1">
      <defs>
       <path d="M 0 0 
L 0 3.5 
" id="m1c2934ff26" style="stroke:#ffffff;stroke-width:0.8;"/>
      </defs>
      <g>
       <use style="fill:#ffffff;stroke:#ffffff;stroke-width:0.8;" x="161.509091" xlink:href="#m1c2934ff26" y="504"/>
      </g>
     </g>
     <g id="text_1">
      <!-- 0 -->
      <g style="fill:#ffffff;" transform="translate(158.327841 518.598438)scale(0.1 -0.1)">
       <defs>
        <path d="M 2034 4250 
Q 1547 4250 1301 3770 
Q 1056 3291 1056 2328 
Q 1056 1369 1301 889 
Q 1547 409 2034 409 
Q 2525 409 2770 889 
Q 3016 1369 3016 2328 
Q 3016 3291 2770 3770 
Q 2525 4250 2034 4250 
z
M 2034 4750 
Q 2819 4750 3233 4129 
Q 3647 3509 3647 2328 
Q 3647 1150 3233 529 
Q 2819 -91 2034 -91 
Q 1250 -91 836 529 
Q 422 1150 422 2328 
Q 422 3509 836 4129 
Q 1250 4750 2034 4750 
z
" id="DejaVuSans-30" transform="scale(0.015625)"/>
       </defs>
       <use xlink:href="#DejaVuSans-30"/>
      </g>
     </g>
    </g>
    <g id="xtick_2">
     <g id="line2d_2">
      <g>
       <use style="fill:#ffffff;stroke:#ffffff;stroke-width:0.8;" x="327.207135" xlink:href="#m1c2934ff26" y="504"/>
      </g>
     </g>
     <g id="text_2">
      <!-- 500 -->
      <g style="fill:#ffffff;" transform="translate(317.663385 518.598438)scale(0.1 -0.1)">
       <defs>
        <path d="M 691 4666 
L 3169 4666 
L 3169 4134 
L 1269 4134 
L 1269 2991 
Q 1406 3038 1543 3061 
Q 1681 3084 1819 3084 
Q 2600 3084 3056 2656 
Q 3513 2228 3513 1497 
Q 3513 744 3044 326 
Q 2575 -91 1722 -91 
Q 1428 -91 1123 -41 
Q 819 9 494 109 
L 494 744 
Q 775 591 1075 516 
Q 1375 441 1709 441 
Q 2250 441 2565 725 
Q 2881 1009 2881 1497 
Q 2881 1984 2565 2268 
Q 2250 2553 1709 2553 
Q 1456 2553 1204 2497 
Q 953 2441 691 2322 
L 691 4666 
z
" id="DejaVuSans-35" transform="scale(0.015625)"/>
       </defs>
       <use xlink:href="#DejaVuSans-35"/>
       <use x="63.623047" xlink:href="#DejaVuSans-30"/>
       <use x="127.246094" xlink:href="#DejaVuSans-30"/>
      </g>
     </g>
    </g>
    <g id="xtick_3">
     <g id="line2d_3">
      <g>
       <use style="fill:#ffffff;stroke:#ffffff;stroke-width:0.8;" x="492.90518" xlink:href="#m1c2934ff26" y="504"/>
      </g>
     </g>
     <g id="text_3">
      <!-- 1000 -->
      <g style="fill:#ffffff;" transform="translate(480.18018 518.598438)scale(0.1 -0.1)">
       <defs>
        <path d="M 794 531 
L 1825 531 
L 1825 4091 
L 703 3866 
L 703 4441 
L 1819 4666 
L 2450 4666 
L 2450 531 
L 3481 531 
L 3481 0 
L 794 0 
L 794 531 
z
" id="DejaVuSans-31" transform="scale(0.015625)"/>
       </defs>
       <use xlink:href="#DejaVuSans-31"/>
       <use x="63.623047" xlink:href="#DejaVuSans-30"/>
       <use x="127.246094" xlink:href="#DejaVuSans-30"/>
       <use x="190.869141" xlink:href="#DejaVuSans-30"/>
      </g>
     </g>
    </g>
    <g id="xtick_4">
     <g id="line2d_4">
      <g>
       <use style="fill:#ffffff;stroke:#ffffff;stroke-width:0.8;" x="658.603224" xlink:href="#m1c2934ff26" y="504"/>
      </g>
     </g>
     <g id="text_4">
      <!-- 1500 -->
      <g style="fill:#ffffff;" transform="translate(645.878224 518.598438)scale(0.1 -0.1)">
       <use xlink:href="#DejaVuSans-31"/>
       <use x="63.623047" xlink:href="#DejaVuSans-35"/>
       <use x="127.246094" xlink:href="#DejaVuSans-30"/>
       <use x="190.869141" xlink:href="#DejaVuSans-30"/>
      </g>
     </g>
    </g>
    <g id="xtick_5">
     <g id="line2d_5">
      <g>
       <use style="fill:#ffffff;stroke:#ffffff;stroke-width:0.8;" x="824.301268" xlink:href="#m1c2934ff26" y="504"/>
      </g>
     </g>
     <g id="text_5">
      <!-- 2000 -->
      <g style="fill:#ffffff;" transform="translate(811.576268 518.598438)scale(0.1 -0.1)">
       <defs>
        <path d="M 1228 531 
L 3431 531 
L 3431 0 
L 469 0 
L 469 531 
Q 828 903 1448 1529 
Q 2069 2156 2228 2338 
Q 2531 2678 2651 2914 
Q 2772 3150 2772 3378 
Q 2772 3750 2511 3984 
Q 2250 4219 1831 4219 
Q 1534 4219 1204 4116 
Q 875 4013 500 3803 
L 500 4441 
Q 881 4594 1212 4672 
Q 1544 4750 1819 4750 
Q 2544 4750 2975 4387 
Q 3406 4025 3406 3419 
Q 3406 3131 3298 2873 
Q 3191 2616 2906 2266 
Q 2828 2175 2409 1742 
Q 1991 1309 1228 531 
z
" id="DejaVuSans-32" transform="scale(0.015625)"/>
       </defs>
       <use xlink:href="#DejaVuSans-32"/>
       <use x="63.623047" xlink:href="#DejaVuSans-30"/>
       <use x="127.246094" xlink:href="#DejaVuSans-30"/>
       <use x="190.869141" xlink:href="#DejaVuSans-30"/>
      </g>
     </g>
    </g>
    <g id="text_6">
     <!-- iteration -->
     <g style="fill:#ffffff;" transform="translate(495.477344 532.276562)scale(0.1 -0.1)">
      <defs>
       <path d="M 603 3500 
L 1178 3500 
L 1178 0 
L 603 0 
L 603 3500 
z
M 603 4863 
L 1178 4863 
L 1178 4134 
L 603 4134 
L 603 4863 
z
" id="DejaVuSans-69" transform="scale(0.015625)"/>
       <path d="M 1172 4494 
L 1172 3500 
L 2356 3500 
L 2356 3053 
L 1172 3053 
L 1172 1153 
Q 1172 725 1289 603 
Q 1406 481 1766 481 
L 2356 481 
L 2356 0 
L 1766 0 
Q 1100 0 847 248 
Q 594 497 594 1153 
L 594 3053 
L 172 3053 
L 172 3500 
L 594 3500 
L 594 4494 
L 1172 4494 
z
" id="DejaVuSans-74" transform="scale(0.015625)"/>
       <path d="M 3597 1894 
L 3597 1613 
L 953 1613 
Q 991 1019 1311 708 
Q 1631 397 2203 397 
Q 2534 397 2845 478 
Q 3156 559 3463 722 
L 3463 178 
Q 3153 47 2828 -22 
Q 2503 -91 2169 -91 
Q 1331 -91 842 396 
Q 353 884 353 1716 
Q 353 2575 817 3079 
Q 1281 3584 2069 3584 
Q 2775 3584 3186 3129 
Q 3597 2675 3597 1894 
z
M 3022 2063 
Q 3016 2534 2758 2815 
Q 2500 3097 2075 3097 
Q 1594 3097 1305 2825 
Q 1016 2553 972 2059 
L 3022 2063 
z
" id="DejaVuSans-65" transform="scale(0.015625)"/>
       <path d="M 2631 2963 
Q 2534 3019 2420 3045 
Q 2306 3072 2169 3072 
Q 1681 3072 1420 2755 
Q 1159 2438 1159 1844 
L 1159 0 
L 581 0 
L 581 3500 
L 1159 3500 
L 1159 2956 
Q 1341 3275 1631 3429 
Q 1922 3584 2338 3584 
Q 2397 3584 2469 3576 
Q 2541 3569 2628 3553 
L 2631 2963 
z
" id="DejaVuSans-72" transform="scale(0.015625)"/>
       <path d="M 2194 1759 
Q 1497 1759 1228 1600 
Q 959 1441 959 1056 
Q 959 750 1161 570 
Q 1363 391 1709 391 
Q 2188 391 2477 730 
Q 2766 1069 2766 1631 
L 2766 1759 
L 2194 1759 
z
M 3341 1997 
L 3341 0 
L 2766 0 
L 2766 531 
Q 2569 213 2275 61 
Q 1981 -91 1556 -91 
Q 1019 -91 701 211 
Q 384 513 384 1019 
Q 384 1609 779 1909 
Q 1175 2209 1959 2209 
L 2766 2209 
L 2766 2266 
Q 2766 2663 2505 2880 
Q 2244 3097 1772 3097 
Q 1472 3097 1187 3025 
Q 903 2953 641 2809 
L 641 3341 
Q 956 3463 1253 3523 
Q 1550 3584 1831 3584 
Q 2591 3584 2966 3190 
Q 3341 2797 3341 1997 
z
" id="DejaVuSans-61" transform="scale(0.015625)"/>
       <path d="M 1959 3097 
Q 1497 3097 1228 2736 
Q 959 2375 959 1747 
Q 959 1119 1226 758 
Q 1494 397 1959 397 
Q 2419 397 2687 759 
Q 2956 1122 2956 1747 
Q 2956 2369 2687 2733 
Q 2419 3097 1959 3097 
z
M 1959 3584 
Q 2709 3584 3137 3096 
Q 3566 2609 3566 1747 
Q 3566 888 3137 398 
Q 2709 -91 1959 -91 
Q 1206 -91 779 398 
Q 353 888 353 1747 
Q 353 2609 779 3096 
Q 1206 3584 1959 3584 
z
" id="DejaVuSans-6f" transform="scale(0.015625)"/>
       <path d="M 3513 2113 
L 3513 0 
L 2938 0 
L 2938 2094 
Q 2938 2591 2744 2837 
Q 2550 3084 2163 3084 
Q 1697 3084 1428 2787 
Q 1159 2491 1159 1978 
L 1159 0 
L 581 0 
L 581 3500 
L 1159 3500 
L 1159 2956 
Q 1366 3272 1645 3428 
Q 1925 3584 2291 3584 
Q 2894 3584 3203 3211 
Q 3513 2838 3513 2113 
z
" id="DejaVuSans-6e" transform="scale(0.015625)"/>
      </defs>
      <use xlink:href="#DejaVuSans-69"/>
      <use x="27.783203" xlink:href="#DejaVuSans-74"/>
      <use x="66.992188" xlink:href="#DejaVuSans-65"/>
      <use x="128.515625" xlink:href="#DejaVuSans-72"/>
      <use x="169.628906" xlink:href="#DejaVuSans-61"/>
      <use x="230.908203" xlink:href="#DejaVuSans-74"/>
      <use x="270.117188" xlink:href="#DejaVuSans-69"/>
      <use x="297.900391" xlink:href="#DejaVuSans-6f"/>
      <use x="359.082031" xlink:href="#DejaVuSans-6e"/>
     </g>
    </g>
   </g>
   <g id="matplotlib.axis_2">
    <g id="ytick_1">
     <g id="line2d_6">
      <defs>
       <path d="M 0 0 
L -3.5 0 
" id="m3d3e05451e" style="stroke:#ffffff;stroke-width:0.8;"/>
      </defs>
      <g>
       <use style="fill:#ffffff;stroke:#ffffff;stroke-width:0.8;" x="126" xlink:href="#m3d3e05451e" y="484.232727"/>
      </g>
     </g>
     <g id="text_7">
      <!-- 0 -->
      <g style="fill:#ffffff;" transform="translate(112.6375 488.031946)scale(0.1 -0.1)">
       <use xlink:href="#DejaVuSans-30"/>
      </g>
     </g>
    </g>
    <g id="ytick_2">
     <g id="line2d_7">
      <g>
       <use style="fill:#ffffff;stroke:#ffffff;stroke-width:0.8;" x="126" xlink:href="#m3d3e05451e" y="433.465404"/>
      </g>
     </g>
     <g id="text_8">
      <!-- 5000 -->
      <g style="fill:#ffffff;" transform="translate(93.55 437.264623)scale(0.1 -0.1)">
       <use xlink:href="#DejaVuSans-35"/>
       <use x="63.623047" xlink:href="#DejaVuSans-30"/>
       <use x="127.246094" xlink:href="#DejaVuSans-30"/>
       <use x="190.869141" xlink:href="#DejaVuSans-30"/>
      </g>
     </g>
    </g>
    <g id="ytick_3">
     <g id="line2d_8">
      <g>
       <use style="fill:#ffffff;stroke:#ffffff;stroke-width:0.8;" x="126" xlink:href="#m3d3e05451e" y="382.69808"/>
      </g>
     </g>
     <g id="text_9">
      <!-- 10000 -->
      <g style="fill:#ffffff;" transform="translate(87.1875 386.497299)scale(0.1 -0.1)">
       <use xlink:href="#DejaVuSans-31"/>
       <use x="63.623047" xlink:href="#DejaVuSans-30"/>
       <use x="127.246094" xlink:href="#DejaVuSans-30"/>
       <use x="190.869141" xlink:href="#DejaVuSans-30"/>
       <use x="254.492188" xlink:href="#DejaVuSans-30"/>
      </g>
     </g>
    </g>
    <g id="ytick_4">
     <g id="line2d_9">
      <g>
       <use style="fill:#ffffff;stroke:#ffffff;stroke-width:0.8;" x="126" xlink:href="#m3d3e05451e" y="331.930757"/>
      </g>
     </g>
     <g id="text_10">
      <!-- 15000 -->
      <g style="fill:#ffffff;" transform="translate(87.1875 335.729976)scale(0.1 -0.1)">
       <use xlink:href="#DejaVuSans-31"/>
       <use x="63.623047" xlink:href="#DejaVuSans-35"/>
       <use x="127.246094" xlink:href="#DejaVuSans-30"/>
       <use x="190.869141" xlink:href="#DejaVuSans-30"/>
       <use x="254.492188" xlink:href="#DejaVuSans-30"/>
      </g>
     </g>
    </g>
    <g id="ytick_5">
     <g id="line2d_10">
      <g>
       <use style="fill:#ffffff;stroke:#ffffff;stroke-width:0.8;" x="126" xlink:href="#m3d3e05451e" y="281.163434"/>
      </g>
     </g>
     <g id="text_11">
      <!-- 20000 -->
      <g style="fill:#ffffff;" transform="translate(87.1875 284.962652)scale(0.1 -0.1)">
       <use xlink:href="#DejaVuSans-32"/>
       <use x="63.623047" xlink:href="#DejaVuSans-30"/>
       <use x="127.246094" xlink:href="#DejaVuSans-30"/>
       <use x="190.869141" xlink:href="#DejaVuSans-30"/>
       <use x="254.492188" xlink:href="#DejaVuSans-30"/>
      </g>
     </g>
    </g>
    <g id="ytick_6">
     <g id="line2d_11">
      <g>
       <use style="fill:#ffffff;stroke:#ffffff;stroke-width:0.8;" x="126" xlink:href="#m3d3e05451e" y="230.39611"/>
      </g>
     </g>
     <g id="text_12">
      <!-- 25000 -->
      <g style="fill:#ffffff;" transform="translate(87.1875 234.195329)scale(0.1 -0.1)">
       <use xlink:href="#DejaVuSans-32"/>
       <use x="63.623047" xlink:href="#DejaVuSans-35"/>
       <use x="127.246094" xlink:href="#DejaVuSans-30"/>
       <use x="190.869141" xlink:href="#DejaVuSans-30"/>
       <use x="254.492188" xlink:href="#DejaVuSans-30"/>
      </g>
     </g>
    </g>
    <g id="ytick_7">
     <g id="line2d_12">
      <g>
       <use style="fill:#ffffff;stroke:#ffffff;stroke-width:0.8;" x="126" xlink:href="#m3d3e05451e" y="179.628787"/>
      </g>
     </g>
     <g id="text_13">
      <!-- 30000 -->
      <g style="fill:#ffffff;" transform="translate(87.1875 183.428005)scale(0.1 -0.1)">
       <defs>
        <path d="M 2597 2516 
Q 3050 2419 3304 2112 
Q 3559 1806 3559 1356 
Q 3559 666 3084 287 
Q 2609 -91 1734 -91 
Q 1441 -91 1130 -33 
Q 819 25 488 141 
L 488 750 
Q 750 597 1062 519 
Q 1375 441 1716 441 
Q 2309 441 2620 675 
Q 2931 909 2931 1356 
Q 2931 1769 2642 2001 
Q 2353 2234 1838 2234 
L 1294 2234 
L 1294 2753 
L 1863 2753 
Q 2328 2753 2575 2939 
Q 2822 3125 2822 3475 
Q 2822 3834 2567 4026 
Q 2313 4219 1838 4219 
Q 1578 4219 1281 4162 
Q 984 4106 628 3988 
L 628 4550 
Q 988 4650 1302 4700 
Q 1616 4750 1894 4750 
Q 2613 4750 3031 4423 
Q 3450 4097 3450 3541 
Q 3450 3153 3228 2886 
Q 3006 2619 2597 2516 
z
" id="DejaVuSans-33" transform="scale(0.015625)"/>
       </defs>
       <use xlink:href="#DejaVuSans-33"/>
       <use x="63.623047" xlink:href="#DejaVuSans-30"/>
       <use x="127.246094" xlink:href="#DejaVuSans-30"/>
       <use x="190.869141" xlink:href="#DejaVuSans-30"/>
       <use x="254.492188" xlink:href="#DejaVuSans-30"/>
      </g>
     </g>
    </g>
    <g id="ytick_8">
     <g id="line2d_13">
      <g>
       <use style="fill:#ffffff;stroke:#ffffff;stroke-width:0.8;" x="126" xlink:href="#m3d3e05451e" y="128.861463"/>
      </g>
     </g>
     <g id="text_14">
      <!-- 35000 -->
      <g style="fill:#ffffff;" transform="translate(87.1875 132.660682)scale(0.1 -0.1)">
       <use xlink:href="#DejaVuSans-33"/>
       <use x="63.623047" xlink:href="#DejaVuSans-35"/>
       <use x="127.246094" xlink:href="#DejaVuSans-30"/>
       <use x="190.869141" xlink:href="#DejaVuSans-30"/>
       <use x="254.492188" xlink:href="#DejaVuSans-30"/>
      </g>
     </g>
    </g>
    <g id="ytick_9">
     <g id="line2d_14">
      <g>
       <use style="fill:#ffffff;stroke:#ffffff;stroke-width:0.8;" x="126" xlink:href="#m3d3e05451e" y="78.09414"/>
      </g>
     </g>
     <g id="text_15">
      <!-- 40000 -->
      <g style="fill:#ffffff;" transform="translate(87.1875 81.893359)scale(0.1 -0.1)">
       <defs>
        <path d="M 2419 4116 
L 825 1625 
L 2419 1625 
L 2419 4116 
z
M 2253 4666 
L 3047 4666 
L 3047 1625 
L 3713 1625 
L 3713 1100 
L 3047 1100 
L 3047 0 
L 2419 0 
L 2419 1100 
L 313 1100 
L 313 1709 
L 2253 4666 
z
" id="DejaVuSans-34" transform="scale(0.015625)"/>
       </defs>
       <use xlink:href="#DejaVuSans-34"/>
       <use x="63.623047" xlink:href="#DejaVuSans-30"/>
       <use x="127.246094" xlink:href="#DejaVuSans-30"/>
       <use x="190.869141" xlink:href="#DejaVuSans-30"/>
       <use x="254.492188" xlink:href="#DejaVuSans-30"/>
      </g>
     </g>
    </g>
   </g>
   <g id="line2d_15">
    <path clip-path="url(#pa2bb9c48a2)" d="M 161.509091 155.494001 
L 161.840487 169.637777 
L 162.171883 191.792637 
L 162.503279 201.03229 
L 162.834675 189.071509 
L 163.166071 211.28729 
L 163.497467 209.601814 
L 164.16026 259.567014 
L 164.491656 237.351233 
L 164.823052 254.226292 
L 165.154448 286.707225 
L 165.485844 264.491445 
L 165.81724 285.194359 
L 166.148636 283.559651 
L 166.480032 291.387973 
L 166.811428 289.702497 
L 167.142824 275.193196 
L 167.474221 268.095925 
L 167.805617 245.10848 
L 168.137013 238.884407 
L 168.468409 242.00152 
L 168.799805 227.542987 
L 169.131201 229.177694 
L 169.462597 235.178392 
L 169.793993 233.543684 
L 170.125389 218.019037 
L 170.456785 225.116308 
L 170.788181 239.260085 
L 171.119577 228.385724 
L 171.450974 251.373168 
L 171.78237 289.560349 
L 172.113766 277.264503 
L 172.445162 284.036864 
L 172.776558 274.797211 
L 173.107954 281.894483 
L 174.102142 317.573758 
L 174.764934 292.555621 
L 175.096331 303.429982 
L 175.427727 283.874409 
L 175.759123 291.70273 
L 176.090519 314.690174 
L 176.421915 306.861853 
L 176.753311 305.176378 
L 177.084707 295.936725 
L 177.416103 273.720944 
L 177.747499 296.028106 
L 178.078895 307.816278 
L 178.410291 300.719007 
L 178.741688 299.084299 
L 179.073084 241.849218 
L 179.735876 231.807442 
L 180.067272 237.808139 
L 180.398668 249.596312 
L 180.730064 256.368673 
L 181.06146 266.034771 
L 181.392856 280.544072 
L 181.724252 302.698932 
L 182.055648 288.555156 
L 182.387045 281.782795 
L 182.718441 262.227222 
L 183.712629 324.630416 
L 184.044025 344.185989 
L 184.375421 321.198545 
L 184.706817 309.237763 
L 185.038213 326.112822 
L 185.369609 315.482144 
L 185.701005 312.527486 
L 186.032401 328.052134 
L 186.695194 375.732804 
L 187.02659 374.047329 
L 187.357986 368.046631 
L 187.689382 348.491058 
L 188.020778 359.365419 
L 188.352174 378.920992 
L 188.68357 380.606467 
L 189.346362 337.007489 
L 189.677758 349.303335 
L 190.009155 338.236059 
L 190.340551 316.020278 
L 190.671947 306.354179 
L 191.003343 316.984857 
L 191.997531 287.651498 
L 192.328927 286.209706 
L 192.660323 264.054846 
L 193.323115 274.076315 
L 193.985908 238.8641 
L 194.317304 245.636461 
L 194.6487 248.591119 
L 194.980096 250.032911 
L 195.311492 247.078253 
L 195.642888 261.587554 
L 195.974284 283.894716 
L 196.30568 276.797444 
L 196.637076 279.752102 
L 196.968472 276.634988 
L 197.299868 254.327826 
L 197.631265 243.697149 
L 198.625453 274.868285 
L 199.288245 248.570812 
L 199.619641 270.786593 
L 199.951037 280.026246 
L 200.282433 269.151885 
L 200.613829 289.854799 
L 200.945225 269.151885 
L 201.276622 292.139329 
L 201.608018 286.158938 
L 201.939414 308.313798 
L 202.27081 298.6477 
L 202.602206 304.871774 
L 202.933602 294.241096 
L 203.264998 308.750397 
L 203.596394 315.847669 
L 203.92779 327.635841 
L 204.259186 321.411768 
L 204.590582 332.286128 
L 204.921979 338.266519 
L 205.253375 335.311861 
L 205.584771 312.324417 
L 205.916167 333.027331 
L 206.247563 331.585539 
L 206.578959 317.441763 
L 207.573147 249.312015 
L 207.904543 270.014929 
L 208.235939 281.082206 
L 208.567336 277.041127 
L 208.898732 261.516479 
L 209.230128 254.419208 
L 209.561524 260.419905 
L 209.89292 235.726679 
L 210.224316 251.251327 
L 210.555712 258.348598 
L 210.887108 237.645684 
L 211.218504 258.257217 
L 211.5499 242.73257 
L 211.881296 236.731872 
L 212.212692 245.951218 
L 212.544089 251.951916 
L 212.875485 231.340382 
L 213.206881 224.568021 
L 213.538277 210.05872 
L 213.869673 204.058023 
L 214.201069 205.499815 
L 214.532465 193.711642 
L 214.863861 205.672424 
L 215.195257 183.456643 
L 215.526653 195.244815 
L 215.858049 220.516789 
L 216.189446 223.633903 
L 216.520842 229.6346 
L 216.852238 239.300699 
L 217.183634 245.524773 
L 217.51503 268.512217 
L 217.846426 283.021518 
L 218.177822 303.724432 
L 218.509218 237.209085 
L 219.17201 240.336352 
L 219.503406 238.89456 
L 219.834803 250.682733 
L 220.166199 275.954706 
L 220.828991 302.424789 
L 221.160387 290.464007 
L 221.491783 297.561279 
L 221.823179 286.930602 
L 222.154575 288.565309 
L 222.485971 294.5457 
L 222.817367 287.448428 
L 223.148763 296.688081 
L 223.48016 281.163434 
L 223.811556 258.856272 
L 224.142952 268.075618 
L 224.474348 253.617084 
L 224.805744 256.734198 
L 225.13714 258.17599 
L 225.468536 252.195599 
L 225.799932 250.510124 
L 226.131328 225.816898 
L 226.462724 227.502373 
L 226.79412 220.730012 
L 227.125516 230.39611 
L 227.456913 218.607938 
L 227.788309 233.066471 
L 228.119705 253.769386 
L 228.451101 244.55004 
L 228.782497 241.432926 
L 229.113893 216.160953 
L 229.445289 222.385026 
L 229.776685 233.452303 
L 230.108081 222.385026 
L 230.770873 245.220169 
L 231.10227 243.534693 
L 231.433666 233.868595 
L 231.765062 259.140569 
L 232.096458 247.179787 
L 232.75925 267.913162 
L 233.090646 290.220324 
L 233.422042 283.99625 
L 234.084834 258.785197 
L 234.41623 261.902311 
L 234.747627 272.532989 
L 235.410419 251.02795 
L 235.741815 230.325036 
L 236.073211 227.207922 
L 236.404607 238.082283 
L 236.736003 244.854644 
L 237.398795 287.397661 
L 237.730191 312.090887 
L 238.061587 326.234663 
L 238.392983 305.62313 
L 239.055776 285.509116 
L 239.387172 288.62623 
L 240.049964 281.468038 
L 240.38136 256.196064 
L 240.712756 268.156845 
L 241.044152 245.849683 
L 241.375548 266.461217 
L 241.706944 275.680563 
L 242.03834 252.693119 
L 242.369737 238.549342 
L 242.701133 213.856116 
L 243.032529 220.953388 
L 243.363925 241.656302 
L 243.695321 240.21451 
L 244.026717 237.259852 
L 244.358113 249.048025 
L 244.689509 255.028415 
L 245.020905 278.01586 
L 245.352301 288.646537 
L 246.015094 248.479431 
L 246.677886 262.531826 
L 247.009282 256.307752 
L 248.334866 310.689709 
L 248.666262 230.243808 
L 248.997658 205.550582 
L 249.329054 207.18529 
L 249.660451 204.230632 
L 249.991847 184.675059 
L 250.323243 183.233267 
L 250.654639 179.192188 
L 250.986035 153.920214 
L 251.317431 147.919516 
L 251.648827 157.585615 
L 251.980223 172.094916 
L 252.311619 162.428817 
L 252.643015 176.572594 
L 252.974411 179.527252 
L 253.305807 177.841777 
L 253.637204 198.544691 
L 253.9686 205.641963 
L 254.299996 217.602745 
L 254.962788 261.851544 
L 255.294184 250.977183 
L 255.62558 258.805504 
L 255.956976 234.112278 
L 256.288372 243.778377 
L 257.282561 195.569726 
L 257.613957 202.342087 
L 257.945353 227.035313 
L 258.276749 211.510666 
L 258.939541 233.20862 
L 259.270937 230.253962 
L 259.933729 275.457186 
L 260.265125 279.498265 
L 260.596521 257.282485 
L 260.927918 250.510124 
L 261.259314 246.469045 
L 261.59071 234.508263 
L 262.253502 186.827593 
L 262.584898 202.352241 
L 262.916294 196.128167 
L 263.24769 215.68374 
L 263.579086 200.159092 
L 263.910482 214.668393 
L 264.241878 326.265124 
L 264.573275 333.362396 
L 264.904671 330.407737 
L 265.567463 305.3896 
L 265.898859 313.217922 
L 266.230255 296.342863 
L 266.561651 299.297522 
L 266.893047 318.853095 
L 267.224443 312.080734 
L 267.555839 309.126075 
L 267.887235 293.601428 
L 268.550028 312.507179 
L 268.881424 314.141887 
L 269.21282 331.016945 
L 269.544216 341.891306 
L 269.875612 329.59546 
L 270.207008 307.379679 
L 270.538404 329.59546 
L 271.201196 309.055001 
L 271.532592 301.957729 
L 271.863988 290.169557 
L 272.195385 270.613984 
L 272.526781 264.633593 
L 272.858177 271.405954 
L 273.189573 269.527563 
L 273.520969 247.220401 
L 273.852365 269.527563 
L 274.183761 278.767216 
L 274.515157 259.211643 
L 274.846553 284.483617 
L 275.177949 281.366503 
L 275.509345 283.051978 
L 275.840742 272.4213 
L 276.503534 319.330307 
L 276.83493 326.102668 
L 277.166326 324.417193 
L 277.829118 283.102745 
L 278.160514 286.219859 
L 278.823306 257.566782 
L 279.154702 272.025315 
L 279.486099 278.249389 
L 279.817495 279.884097 
L 280.148891 261.04942 
L 280.480287 251.830074 
L 280.811683 253.464782 
L 281.474475 273.578795 
L 281.805871 264.339143 
L 282.137267 260.298064 
L 282.800059 275.741483 
L 283.131455 274.299691 
L 283.462852 268.298994 
L 283.794248 274.299691 
L 284.125644 277.25435 
L 284.45704 284.026711 
L 284.788436 287.143824 
L 285.119832 299.43967 
L 285.451228 277.28481 
L 285.782624 284.382082 
L 286.11402 272.4213 
L 286.445416 268.512217 
L 286.776812 243.81899 
L 287.108209 253.038336 
L 287.439605 255.992995 
L 287.771001 244.925718 
L 288.102397 269.618944 
L 288.433793 244.346971 
L 288.765189 234.680872 
L 289.096585 240.68157 
L 289.427981 242.367045 
L 289.759377 240.925253 
L 290.422169 271.944088 
L 290.753566 273.38588 
L 291.084962 269.344801 
L 291.416358 289.956334 
L 291.747754 287.001676 
L 292.07915 266.390142 
L 292.410546 285.945715 
L 293.073338 273.964627 
L 293.404734 264.745281 
L 293.73613 275.812558 
L 294.067526 296.515472 
L 294.398922 285.448196 
L 294.730319 283.762721 
L 295.061715 285.397428 
L 295.724507 299.20614 
L 296.055903 311.501986 
L 296.387299 302.262333 
L 296.718695 300.820541 
L 297.050091 294.840151 
L 297.381487 277.965092 
L 297.712883 279.406884 
L 298.044279 288.62623 
L 298.375676 294.626928 
L 298.707072 303.866581 
L 299.369864 277.762023 
L 299.70126 300.749467 
L 300.032656 304.790546 
L 300.364052 315.857822 
L 300.695448 293.702962 
L 301.026844 314.314496 
L 301.35824 324.945173 
L 302.352429 257.434787 
L 302.683825 246.36751 
L 303.015221 268.583291 
L 303.346617 253.058643 
L 303.678013 276.046087 
L 304.009409 264.88743 
L 304.340805 285.498963 
L 305.003597 238.072129 
L 305.334993 235.117471 
L 305.66639 236.559263 
L 305.997786 222.049962 
L 306.329182 201.438429 
L 306.660578 223.593289 
L 306.991974 227.634368 
L 307.32337 225.948893 
L 307.654766 228.903551 
L 307.986162 230.538259 
L 308.317558 227.5836 
L 308.648954 250.571044 
L 308.98035 253.525703 
L 309.311746 250.571044 
L 309.643143 271.273959 
L 309.974539 274.228617 
L 310.305935 275.914092 
L 310.637331 288.209938 
L 310.968727 285.25528 
L 311.300123 307.471061 
L 311.631519 319.259233 
L 311.962915 308.191957 
L 312.294311 317.431609 
L 312.625707 301.906962 
L 312.957103 295.134601 
L 313.2885 293.499893 
L 313.619896 309.024541 
L 313.951292 304.983462 
L 314.282688 293.195289 
L 314.614084 276.320231 
L 314.94548 274.878439 
L 315.276876 289.38774 
L 315.608272 291.022448 
L 315.939668 285.042057 
L 316.271064 291.022448 
L 316.60246 276.878671 
L 316.933857 283.651032 
L 317.265253 276.553761 
L 317.596649 273.436647 
L 317.928045 284.503923 
L 318.259441 269.994622 
L 318.590837 268.309147 
L 318.922233 271.263805 
L 319.253629 250.560891 
L 319.585025 261.191569 
L 319.916421 250.124292 
L 320.247817 244.143901 
L 320.579214 221.989041 
L 320.91061 238.8641 
L 321.242006 263.557326 
L 321.573402 257.333252 
L 321.904798 271.477028 
L 322.236194 255.952381 
L 322.56759 231.259155 
L 322.898986 240.478501 
L 323.230382 300.455016 
L 323.561778 309.674362 
L 323.893174 231.259155 
L 324.555967 271.314573 
L 324.887363 269.618944 
L 325.218759 262.521672 
L 325.550155 251.890995 
L 325.881551 227.197769 
L 326.212947 249.413549 
L 326.544343 243.189476 
L 326.875739 228.730942 
L 327.207135 231.6856 
L 327.538531 209.469819 
L 327.869927 203.469122 
L 328.201324 226.456566 
L 328.53272 234.284887 
L 328.864116 248.428663 
L 329.195512 242.448273 
L 329.526908 244.082981 
L 329.858304 228.558333 
L 330.1897 312.375184 
L 330.852492 267.913162 
L 331.183888 269.598637 
L 331.515284 244.905411 
L 331.846681 235.665758 
L 332.178077 305.267759 
L 332.840869 284.26024 
L 333.172265 261.272796 
L 333.503661 252.033143 
L 333.835057 259.130415 
L 334.166453 251.302094 
L 334.497849 274.289538 
L 334.829245 284.920216 
L 335.160641 305.62313 
L 335.492038 282.635686 
L 335.823434 281.193894 
L 336.15483 287.966255 
L 336.486226 268.410682 
L 336.817622 274.41138 
L 337.149018 267.314108 
L 337.81181 309.857125 
L 338.143206 315.837515 
L 338.474602 312.882857 
L 338.805998 325.178703 
L 339.137394 323.543995 
L 339.468791 302.932462 
L 339.800187 313.806823 
L 340.131583 288.534849 
L 340.794375 262.958271 
L 341.125771 264.400063 
L 341.457167 278.909364 
L 341.788563 266.613519 
L 342.119959 274.44184 
L 342.451355 286.737686 
L 342.782751 288.372394 
L 343.114148 297.591739 
L 343.445544 312.050273 
L 343.77694 334.266054 
L 344.108336 320.122278 
L 344.439732 314.141887 
L 344.771128 299.683353 
L 345.102524 315.208001 
L 345.43392 304.577323 
L 346.096712 330.824029 
L 346.428108 324.823332 
L 346.759505 321.706218 
L 347.090901 314.933857 
L 347.422297 331.808915 
L 347.753693 337.809613 
L 348.085089 318.25404 
L 348.416485 316.812248 
L 348.747881 308.983927 
L 349.079277 323.127703 
L 349.410673 217.805814 
L 350.404861 285.509116 
L 350.736258 277.680795 
L 351.067654 265.720014 
L 351.39905 267.354722 
L 351.730446 265.720014 
L 352.061842 256.480361 
L 352.393238 268.776207 
L 352.724634 259.110108 
L 353.05603 238.407194 
L 353.387426 244.407891 
L 353.718822 258.866425 
L 354.050218 281.082206 
L 354.381615 258.866425 
L 354.713011 273.375726 
L 355.044407 282.615379 
L 355.375803 271.984701 
L 355.707199 283.772874 
L 356.038595 271.477028 
L 356.369991 264.379756 
L 356.701387 274.045855 
L 357.032783 248.773881 
L 357.364179 271.761325 
L 357.695575 279.589647 
L 358.026972 290.220324 
L 358.358368 307.095382 
L 358.689764 332.367356 
L 359.02116 320.579184 
L 359.352556 342.734043 
L 359.683952 355.029889 
L 360.015348 332.042445 
L 360.346744 333.677153 
L 360.67814 327.453079 
L 362.003725 292.545467 
L 362.335121 271.933934 
L 362.666517 283.722107 
L 362.997913 305.937887 
L 363.329309 304.30318 
L 363.992101 257.455094 
L 364.323497 242.99656 
L 364.654893 240.041902 
L 364.986289 230.375803 
L 365.649082 188.604449 
L 365.980478 196.432771 
L 366.311874 221.125997 
L 366.974666 240.011441 
L 367.306062 232.18312 
L 367.637458 244.143901 
L 367.968854 245.778609 
L 368.30025 244.093134 
L 368.631646 232.132353 
L 368.963042 236.173432 
L 369.294439 247.047792 
L 369.625835 245.606 
L 369.957231 228.730942 
L 370.288627 222.730244 
L 370.620023 210.942072 
L 370.951419 209.307364 
L 371.282815 198.676686 
L 371.614211 200.118478 
L 371.945607 175.425252 
L 372.277003 186.05593 
L 372.608399 175.181569 
L 372.939796 149.909596 
L 373.271192 166.784654 
L 373.602588 156.153976 
L 373.933984 187.802326 
L 374.26538 183.761247 
L 374.596776 166.886188 
L 374.928172 181.029965 
L 375.259568 188.127237 
L 375.590964 177.252876 
L 375.92236 189.213657 
L 376.253756 190.655449 
L 376.585153 178.694668 
L 376.916549 201.682112 
L 377.247945 179.466331 
L 377.579341 169.800233 
L 377.910737 147.493071 
L 378.242133 159.281243 
L 378.904925 173.110262 
L 379.236321 195.417424 
L 379.567717 181.273648 
L 379.899113 359.659869 
L 380.230509 362.776983 
L 380.561906 359.659869 
L 380.893302 352.887508 
L 381.224698 359.659869 
L 381.88749 329.991445 
L 382.218886 305.298219 
L 382.550282 327.605381 
L 382.881678 335.433702 
L 383.213074 320.975169 
L 383.54447 335.118945 
L 383.875866 314.41603 
L 384.207263 303.348754 
L 384.538659 299.307675 
L 384.870055 322.295119 
L 385.201451 311.420758 
L 385.532847 323.716604 
L 385.864243 322.081896 
L 386.195639 315.309535 
L 386.527035 321.310233 
L 386.858431 330.529579 
L 387.189827 324.528881 
L 387.521223 299.256908 
L 388.184016 329.240089 
L 388.515412 320.020743 
L 388.846808 321.462535 
L 389.178204 335.971836 
L 389.5096 312.984392 
L 390.172392 298.931997 
L 390.503788 309.806357 
L 390.835184 297.510512 
L 391.16658 308.577788 
L 391.497976 289.022215 
L 391.829373 290.656923 
L 392.160769 268.502063 
L 392.823561 239.534228 
L 393.154957 259.089801 
L 393.486353 265.313875 
L 393.817749 287.468735 
L 394.149145 265.313875 
L 394.480541 255.647777 
L 394.811937 264.867123 
L 395.143333 290.139096 
L 395.806126 247.220401 
L 396.137522 244.265743 
L 396.468918 242.580268 
L 397.13171 259.343638 
L 397.463106 249.67754 
L 397.794502 264.186841 
L 398.125898 267.141499 
L 398.457294 287.844413 
L 399.120087 267.537484 
L 399.451483 276.777137 
L 399.782879 282.757528 
L 400.114275 272.12685 
L 400.445671 278.899211 
L 401.108463 235.980516 
L 401.439859 240.021595 
L 401.771255 233.249234 
L 402.102651 257.94246 
L 402.434047 242.417812 
L 402.765444 245.534926 
L 403.09684 225.979353 
L 403.428236 245.534926 
L 403.759632 228.659868 
L 404.091028 235.432229 
L 404.422424 232.315115 
L 404.75382 207.043141 
L 405.085216 216.70924 
L 405.416612 197.153667 
L 405.748008 187.914014 
L 406.079404 189.599489 
L 406.4108 180.380143 
L 406.742197 186.380841 
L 407.073593 208.535701 
L 407.404989 219.602977 
L 407.736385 208.728616 
L 408.067781 217.947962 
L 408.399177 216.50617 
L 408.730573 201.996869 
L 409.061969 199.042211 
L 409.393365 193.041514 
L 409.724761 215.257294 
L 410.71895 255.881306 
L 411.050346 243.920525 
L 411.381742 251.748846 
L 411.713138 272.451761 
L 412.044534 273.893553 
L 412.37593 296.200715 
L 412.707326 244.732802 
L 413.038722 251.505163 
L 413.370118 266.014464 
L 413.701514 272.238538 
L 414.032911 292.941453 
L 414.364307 267.669479 
L 414.695703 292.941453 
L 415.027099 298.921843 
L 415.358495 278.31031 
L 415.689891 266.014464 
L 416.021287 280.158241 
L 416.352683 287.255512 
L 416.684079 309.410372 
L 417.678268 248.743421 
L 418.009664 252.7845 
L 418.672456 288.920681 
L 419.003852 290.555388 
L 419.335248 276.046087 
L 419.666644 250.774114 
L 420.329436 299.033531 
L 420.992228 286.260473 
L 421.323624 295.500126 
L 421.655021 297.185601 
L 421.986417 309.481447 
L 422.317813 326.356505 
L 422.649209 324.721797 
L 422.980605 216.21172 
L 423.312001 235.767293 
L 423.643397 238.721951 
L 423.974793 216.567091 
L 424.306189 241.839065 
L 424.637585 219.623284 
L 424.968981 210.403938 
L 425.300378 225.928586 
L 425.631774 210.403938 
L 425.96317 185.710712 
L 426.294566 191.691103 
L 426.625962 180.623826 
L 426.957358 203.61127 
L 427.288754 181.304108 
L 427.62015 203.61127 
L 427.951546 184.055697 
L 428.282942 191.152969 
L 428.614338 188.198311 
L 428.945735 173.68901 
L 429.277131 182.908356 
L 429.608527 181.466564 
L 429.939923 158.47912 
L 430.271319 151.381848 
L 430.602715 155.422927 
L 430.934111 145.756828 
L 431.265507 160.26613 
L 431.596903 137.958968 
L 431.928299 133.917889 
L 432.591092 177.516866 
L 432.922488 178.958658 
L 433.253884 172.95796 
L 433.916676 198.483771 
L 434.248072 173.211797 
L 434.579468 185.507643 
L 434.910864 206.210557 
L 435.24226 215.45021 
L 435.573656 209.469819 
L 435.905052 200.250473 
L 436.236448 222.466254 
L 436.567845 211.398978 
L 436.899241 217.379368 
L 437.230637 196.767835 
L 437.562033 205.987181 
L 437.893429 210.02826 
L 438.224825 221.816432 
L 438.556221 209.520587 
L 438.887617 221.816432 
L 439.219013 224.933546 
L 439.550409 215.7142 
L 439.881805 218.668858 
L 440.213202 215.551745 
L 440.544598 226.619021 
L 440.875994 248.926183 
L 441.20739 258.592282 
L 441.538786 256.957574 
L 441.870182 281.6508 
L 442.201578 295.794576 
L 442.532974 315.350149 
L 442.86437 316.984857 
L 443.195766 311.004466 
L 443.527162 309.369758 
L 443.858559 284.676532 
L 444.189955 301.551591 
L 444.521351 278.564147 
L 445.515539 245.210015 
L 445.846935 222.902853 
L 446.178331 230.000125 
L 446.509727 220.760472 
L 446.841123 231.634833 
L 447.172519 309.298684 
L 447.503915 310.740476 
L 447.835312 325.249777 
L 448.498104 282.483384 
L 448.8295 294.77923 
L 449.160896 285.559884 
L 449.492292 299.70366 
L 449.823688 241.229857 
L 450.155084 232.010511 
L 450.48648 233.452303 
L 450.817876 226.355031 
L 451.149272 229.472145 
L 451.480669 243.615921 
L 451.812065 242.174129 
L 452.474857 257.637856 
L 452.806253 243.49408 
L 453.137649 266.481524 
L 453.469045 246.925951 
L 453.800441 269.233113 
L 454.131837 246.925951 
L 454.463233 243.971292 
L 455.126026 255.952381 
L 455.457422 271.477028 
L 455.788818 255.952381 
L 456.120214 233.797521 
L 456.45161 255.952381 
L 456.783006 267.913162 
L 457.114402 244.925718 
L 457.777194 291.926106 
L 458.10859 299.754427 
L 458.771383 255.292406 
L 459.434175 293.804497 
L 459.765571 282.016325 
L 460.096967 261.404791 
L 460.428363 250.530431 
L 460.759759 244.529733 
L 461.091155 256.317905 
L 461.422551 278.625067 
L 462.085343 261.130648 
L 462.416739 238.143204 
L 463.079532 279.802869 
L 463.410928 286.026943 
L 463.742324 275.396266 
L 464.07372 297.612046 
L 464.405116 275.457186 
L 465.067908 299.20614 
L 465.399304 292.108869 
L 465.7307 282.44277 
L 466.062096 288.423161 
L 466.393493 266.20738 
L 466.724889 251.748846 
L 467.056285 289.184671 
L 467.387681 309.796204 
L 467.719077 321.584377 
L 468.050473 311.918278 
L 468.381869 287.225052 
L 469.044661 301.277447 
L 469.376057 290.64677 
L 469.707453 268.339608 
L 470.03885 264.298529 
L 470.370246 278.80783 
L 470.701642 261.932771 
L 471.033038 273.000048 
L 471.69583 231.6856 
L 472.027226 224.913239 
L 472.358622 235.543917 
L 472.690018 256.246831 
L 473.021414 262.247529 
L 473.35281 241.544614 
L 473.684207 252.418975 
L 474.015603 269.294033 
L 474.346999 260.05438 
L 474.678395 272.350226 
L 475.009791 266.126152 
L 475.341187 275.365805 
L 475.672583 289.509582 
L 476.003979 296.281942 
L 476.335375 318.589104 
L 476.666771 324.813178 
L 476.998167 315.573525 
L 477.329563 327.534307 
L 477.66096 320.761946 
L 477.992356 330.001599 
L 478.323752 307.014155 
L 478.655148 316.680253 
L 478.986544 322.660644 
L 479.31794 331.87999 
L 479.649336 315.004931 
L 479.980732 339.698158 
L 480.312128 330.032059 
L 480.643524 324.031361 
L 481.306317 304.161031 
L 481.637713 324.772564 
L 481.969109 312.811783 
L 482.300505 329.686841 
L 482.631901 331.128633 
L 482.963297 315.603986 
L 483.626089 354.116077 
L 483.957485 344.896731 
L 484.288881 354.56283 
L 484.620277 332.40797 
L 485.28307 319.330307 
L 485.614466 340.033222 
L 485.945862 332.204901 
L 486.277258 354.359761 
L 486.608654 361.132121 
L 487.271446 317.533144 
L 487.602842 319.167852 
L 487.934238 329.798529 
L 488.265634 323.026168 
L 488.597031 306.15111 
L 488.928427 295.276749 
L 489.259823 293.642042 
L 489.591219 295.327517 
L 489.922615 274.624602 
L 490.254011 278.665681 
L 490.585407 253.972455 
L 490.916803 274.583988 
L 491.248199 260.125455 
L 491.579595 274.583988 
L 491.910991 253.972455 
L 492.242387 261.069727 
L 492.573784 279.86379 
L 492.90518 290.494468 
L 493.236576 287.539809 
L 493.567972 253.393708 
L 494.230764 296.992685 
L 494.56216 282.534151 
L 494.893556 293.164829 
L 495.224952 317.858055 
L 495.556348 307.227377 
L 495.887744 316.46703 
L 496.219141 312.425951 
L 496.881933 267.903009 
L 497.213329 264.94835 
L 497.544725 271.720711 
L 497.876121 282.595072 
L 498.207517 272.928974 
L 498.538913 287.387507 
L 498.870309 276.513147 
L 499.201705 254.358287 
L 499.533101 247.261015 
L 500.195894 265.720014 
L 500.52729 285.275587 
L 501.190082 255.607163 
L 501.521478 265.273261 
L 501.852874 262.156148 
L 502.18427 278.777369 
L 502.515666 272.776672 
L 502.847062 261.902311 
L 503.178458 246.377664 
L 503.509854 294.555853 
L 503.841251 297.510512 
L 504.172647 290.738151 
L 504.504043 289.296359 
L 504.835439 274.787058 
L 505.166835 297.09422 
L 505.829627 251.799614 
L 506.161023 253.241406 
L 506.823815 207.936646 
L 507.155211 198.270548 
L 507.486608 202.311627 
L 508.480796 263.557326 
L 508.812192 270.329687 
L 509.143588 295.022913 
L 509.474984 288.250552 
L 509.80638 266.034771 
L 510.137776 272.807132 
L 510.469172 264.978811 
L 510.800568 279.488112 
L 511.131965 262.613054 
L 511.463361 283.315968 
L 511.794757 268.806667 
L 512.126153 272.12685 
L 512.457549 281.366503 
L 512.788945 303.521363 
L 513.120341 282.909829 
L 513.451737 298.434477 
L 513.783133 276.279617 
L 514.114529 277.721409 
L 514.445925 298.332942 
L 514.777322 298.332942 
L 515.108718 301.287601 
L 515.440114 280.676067 
L 516.102906 306.008962 
L 516.434302 294.04818 
L 516.765698 294.04818 
L 517.097094 268.776207 
L 517.42849 257.901846 
L 517.759886 234.914402 
L 518.091282 227.086081 
L 518.422678 239.381926 
L 518.754075 264.6539 
L 519.085471 276.614681 
L 519.416867 282.615379 
L 519.748263 279.498265 
L 520.079659 300.109799 
L 520.411055 306.88216 
L 520.742451 292.372859 
L 521.073847 271.761325 
L 521.405243 291.316898 
L 521.736639 277.173122 
L 522.068035 291.682423 
L 522.399432 272.12685 
L 522.730828 295.114294 
L 523.062224 245.819223 
L 523.39362 235.188545 
L 523.725016 257.404326 
L 524.387808 283.823641 
L 524.719204 290.596002 
L 525.381996 261.993692 
L 525.713392 284.300854 
L 526.044789 298.759388 
L 526.376185 287.692111 
L 526.707581 265.476331 
L 527.038977 288.463775 
L 527.370373 295.561047 
L 527.701769 270.86782 
L 528.033165 280.107473 
L 528.364561 257.952613 
L 528.695957 263.933004 
L 529.027353 252.144831 
L 529.358749 253.779539 
L 529.690146 246.682267 
L 530.021542 224.375106 
L 530.352938 224.375106 
L 531.01573 203.174671 
L 531.347126 182.563138 
L 531.678522 188.563836 
L 532.009918 182.583445 
L 532.341314 204.890607 
L 532.67271 215.521284 
L 533.004106 208.748923 
L 533.666899 229.482298 
L 533.998295 218.607938 
L 534.329691 212.60724 
L 534.661087 221.826586 
L 535.323879 207.774191 
L 535.655275 222.283492 
L 535.986671 244.499273 
L 536.318067 233.431996 
L 536.649463 233.431996 
L 536.980859 213.876423 
L 537.312256 234.487956 
L 537.643652 234.487956 
L 537.975048 237.442615 
L 538.306444 248.509891 
L 538.63784 238.843793 
L 538.969236 237.158318 
L 539.300632 222.699784 
L 539.632028 200.392622 
L 540.29482 193.396885 
L 540.626216 215.551745 
L 540.957613 215.551745 
L 541.620405 227.776516 
L 541.951801 229.461991 
L 542.283197 239.12809 
L 542.614593 228.060813 
L 542.945989 231.015471 
L 543.277385 208.860612 
L 543.608781 214.841002 
L 543.940177 234.396575 
L 544.602969 228.324803 
L 545.265762 259.343638 
L 545.597158 257.658163 
L 545.928554 257.658163 
L 546.25995 282.930136 
L 546.591346 262.318603 
L 546.922742 270.146924 
L 547.254138 271.8324 
L 547.585534 264.004078 
L 547.91693 284.615612 
L 548.248326 295.682888 
L 548.579723 245.250629 
L 548.911119 264.806202 
L 549.242515 242.49904 
L 549.573911 234.670719 
L 549.905307 220.212185 
L 550.568099 259.394405 
L 550.899495 252.622044 
L 551.230891 266.765821 
L 551.562287 251.241173 
L 551.893683 265.699707 
L 552.22508 243.544847 
L 552.887872 282.056938 
L 553.219268 262.501365 
L 553.550664 273.132043 
L 553.88206 250.824881 
L 554.213456 272.979741 
L 554.544852 278.980439 
L 554.876248 278.980439 
L 555.207644 271.883167 
L 555.53904 269.05035 
L 555.870437 263.069959 
L 556.201833 253.850614 
L 556.533229 276.838058 
L 556.864625 256.135143 
L 557.196021 246.469045 
L 557.527417 246.469045 
L 557.858813 256.135143 
L 558.190209 260.176222 
L 558.853001 290.159403 
L 559.184397 267.171959 
L 559.515793 260.947885 
L 559.84719 251.281787 
L 560.178586 275.975013 
L 560.509982 264.907737 
L 560.841378 249.383089 
L 561.50417 202.382701 
L 562.166962 202.382701 
L 562.498358 187.8734 
L 562.829754 197.113053 
L 563.16115 182.654519 
L 563.492547 175.557247 
L 563.823943 175.557247 
L 564.155339 182.654519 
L 564.486735 207.347745 
L 564.818131 219.135918 
L 565.480923 169.170718 
L 565.812319 162.073446 
L 566.143715 176.582747 
L 566.475111 174.948039 
L 566.806507 181.172113 
L 567.137904 171.93246 
L 567.4693 171.93246 
L 567.800696 174.887119 
L 568.132092 163.098946 
L 568.463488 164.794575 
L 568.794884 176.755356 
L 569.12628 182.735747 
L 569.457676 176.755356 
L 570.120468 214.333329 
L 570.451864 229.857976 
L 570.783261 207.550815 
L 571.114657 193.041514 
L 571.446053 204.10879 
L 571.777449 210.089181 
L 572.108845 210.089181 
L 572.440241 207.134523 
L 572.771637 232.406496 
L 573.103033 241.625842 
L 573.434429 233.797521 
L 573.765825 213.094606 
L 574.097221 233.797521 
L 574.428617 216.922462 
L 574.760014 216.922462 
L 575.09141 215.236987 
L 575.422806 216.871695 
L 575.754202 239.026555 
L 576.085598 232.802481 
L 576.416994 232.802481 
L 576.74839 226.03012 
L 577.079786 203.87526 
L 577.411182 203.87526 
L 577.742578 194.960518 
L 578.073974 198.402543 
L 578.405371 205.499815 
L 578.736767 226.202729 
L 579.068163 219.105457 
L 579.399559 229.736135 
L 579.730955 210.180562 
L 580.062351 199.549884 
L 580.393747 205.550582 
L 580.725143 205.550582 
L 581.056539 227.857744 
L 581.387935 221.877353 
L 581.719331 229.705675 
L 582.050728 232.822788 
L 582.382124 218.313487 
L 582.71352 218.313487 
L 583.044916 214.272408 
L 583.376312 212.6377 
L 583.707708 229.512759 
L 584.039104 235.736833 
L 584.3705 223.776051 
L 584.701896 217.775354 
L 585.033292 224.547714 
L 585.364688 224.547714 
L 585.696085 221.430601 
L 586.027481 232.061278 
L 586.358877 233.50307 
L 587.021669 258.521207 
L 587.353065 258.521207 
L 587.684461 269.588484 
L 588.015857 255.444708 
L 588.347253 255.444708 
L 588.678649 233.228927 
L 589.010045 226.456566 
L 589.341441 226.456566 
L 590.004234 238.437654 
L 590.667026 216.7397 
L 590.998422 231.198234 
L 591.329818 235.239313 
L 591.661214 236.924788 
L 591.99261 236.924788 
L 592.324006 247.555465 
L 592.655402 245.86999 
L 593.318195 198.290855 
L 593.649591 198.290855 
L 593.980987 220.598017 
L 594.312383 220.598017 
L 594.975175 202.139018 
L 595.306571 214.099799 
L 595.969363 214.099799 
L 596.632155 264.064999 
L 596.963552 262.623207 
L 597.294948 253.403861 
L 597.626344 253.403861 
L 597.95774 242.5295 
L 598.289136 256.673277 
L 598.620532 278.889057 
L 598.951928 281.843716 
L 599.283324 261.140801 
L 599.61472 255.140104 
L 599.946116 240.68157 
L 600.277512 242.123362 
L 600.608908 251.342708 
L 600.940305 251.342708 
L 601.271701 253.028183 
L 601.603097 253.028183 
L 601.934493 259.800544 
L 602.265889 237.493382 
L 602.928681 224.74063 
L 603.260077 226.375338 
L 603.591473 212.231562 
L 603.922869 212.231562 
L 604.254265 218.232259 
L 604.585662 232.74156 
L 604.917058 255.048722 
L 605.248454 251.007643 
L 605.57985 235.482996 
L 605.911246 235.482996 
L 606.242642 232.528338 
L 606.574038 230.842863 
L 606.905434 221.623517 
L 607.23683 221.623517 
L 607.568226 237.148164 
L 607.899622 214.932383 
L 608.231019 214.932383 
L 608.562415 220.912774 
L 608.893811 220.912774 
L 609.225207 222.598249 
L 609.887999 222.598249 
L 610.219395 226.639328 
L 610.550791 226.639328 
L 610.882187 233.7366 
L 611.213583 227.735902 
L 611.544979 227.735902 
L 611.876376 213.226601 
L 612.207772 211.541126 
L 612.539168 218.313487 
L 612.870564 218.313487 
L 613.20196 219.998962 
L 613.533356 230.873323 
L 613.864752 224.892932 
L 614.196148 223.258224 
L 614.527544 231.086546 
L 615.190336 207.337592 
L 615.521732 200.24032 
L 616.847317 200.24032 
L 617.178713 198.554845 
L 617.510109 173.282871 
L 617.841505 165.45455 
L 619.829882 165.45455 
L 620.161278 171.434941 
L 620.492674 164.66258 
L 621.486862 164.66258 
L 621.818258 147.787521 
L 622.149654 153.788219 
L 622.48105 164.418897 
L 622.812446 153.788219 
L 623.143843 153.788219 
L 623.475239 147.564145 
L 625.463615 147.564145 
L 625.795011 170.551589 
L 626.126407 170.551589 
L 626.457803 155.026942 
L 627.451992 155.026942 
L 627.783388 174.582515 
L 628.114784 186.87836 
L 628.44618 180.89797 
L 629.440368 180.89797 
L 629.771764 171.729391 
L 630.10316 171.729391 
L 630.434556 161.393164 
L 630.765953 161.393164 
L 631.097349 149.097318 
L 631.428745 155.869679 
L 631.760141 155.869679 
L 632.091537 158.986793 
L 632.422933 152.214432 
L 633.748517 152.214432 
L 634.079913 158.194823 
L 634.742706 158.194823 
L 635.074102 147.320462 
L 635.405498 147.320462 
L 635.736894 145.87867 
L 639.050855 145.87867 
L 639.382251 147.513378 
L 640.707835 147.513378 
L 641.039231 124.525934 
L 645.015984 124.525934 
L 645.34738 130.750008 
L 646.341569 130.750008 
L 646.672965 141.624368 
L 647.004361 141.624368 
L 647.335757 143.06616 
L 647.667153 127.541513 
L 648.329945 127.541513 
L 648.661341 121.317439 
L 649.986926 121.317439 
L 650.318322 117.27636 
L 653.632283 117.27636 
L 653.963679 108.950519 
L 656.283451 108.950519 
L 656.614847 106.828445 
L 661.585789 106.828445 
L 661.917185 115.306588 
L 662.248581 115.306588 
L 662.579977 108.676375 
L 678.486989 108.656068 
L 678.818385 107.001054 
L 679.149782 107.001054 
L 679.481178 116.240707 
L 682.463742 116.240707 
L 682.795139 107.001054 
L 685.446307 107.001054 
L 685.777703 105.366346 
L 688.428872 105.366346 
L 688.760268 102.249232 
L 702.347508 102.249232 
L 702.678904 99.294574 
L 709.306826 99.294574 
L 709.638222 99.132119 
L 744.103415 99.132119 
L 744.434811 97.304495 
L 746.423188 97.304495 
L 746.754584 90.207223 
L 772.934875 90.207223 
L 773.266271 88.887273 
L 871.690909 88.887273 
L 871.690909 88.887273 
" style="fill:none;stroke:#8dd3c7;stroke-linecap:square;stroke-width:1.5;"/>
   </g>
   <g id="line2d_16">
    <path clip-path="url(#pa2bb9c48a2)" d="M 161.509091 155.494001 
L 250.654639 155.494001 
L 250.986035 153.920214 
L 251.317431 147.919516 
L 377.579341 147.919516 
L 377.910737 147.493071 
L 430.602715 147.493071 
L 430.934111 145.756828 
L 431.265507 145.756828 
L 431.596903 137.958968 
L 431.928299 133.917889 
L 640.707835 133.917889 
L 641.039231 124.525934 
L 648.329945 124.525934 
L 648.661341 121.317439 
L 649.986926 121.317439 
L 650.318322 117.27636 
L 653.632283 117.27636 
L 653.963679 108.950519 
L 656.283451 108.950519 
L 656.614847 106.828445 
L 685.446307 106.828445 
L 685.777703 105.366346 
L 688.428872 105.366346 
L 688.760268 102.249232 
L 702.347508 102.249232 
L 702.678904 99.294574 
L 709.306826 99.294574 
L 709.638222 99.132119 
L 744.103415 99.132119 
L 744.434811 97.304495 
L 746.423188 97.304495 
L 746.754584 90.207223 
L 772.934875 90.207223 
L 773.266271 88.887273 
L 871.690909 88.887273 
L 871.690909 88.887273 
" style="fill:none;stroke:#feffb3;stroke-linecap:square;stroke-width:1.5;"/>
   </g>
   <g id="line2d_17">
    <path clip-path="url(#pa2bb9c48a2)" d="M 161.509091 254.115619 
L 163.828864 254.115619 
L 164.16026 271.893387 
L 166.480032 271.893387 
L 166.811428 288.297727 
L 169.131201 288.297727 
L 169.462597 303.434745 
L 171.78237 303.434745 
L 172.113766 317.402349 
L 174.433538 317.402349 
L 174.764934 330.290881 
L 177.084707 330.290881 
L 177.416103 342.183705 
L 179.735876 342.183705 
L 180.067272 353.157746 
L 182.387045 353.157746 
L 182.718441 363.283983 
L 185.038213 363.283983 
L 185.369609 372.627916 
L 187.689382 372.627916 
L 188.020778 381.249979 
L 190.340551 381.249979 
L 190.671947 389.205943 
L 192.991719 389.205943 
L 193.323115 396.547266 
L 195.642888 396.547266 
L 195.974284 403.321433 
L 198.294057 403.321433 
L 198.625453 409.57226 
L 200.945225 409.57226 
L 201.276622 415.340177 
L 203.596394 415.340177 
L 203.92779 420.662492 
L 206.247563 420.662492 
L 206.578959 425.57363 
L 208.898732 425.57363 
L 209.230128 430.105357 
L 211.5499 430.105357 
L 211.881296 434.286983 
L 214.201069 434.286983 
L 214.532465 438.145557 
L 216.852238 438.145557 
L 217.183634 441.706036 
L 219.503406 441.706036 
L 219.834803 444.991448 
L 222.154575 444.991448 
L 222.485971 448.023045 
L 224.805744 448.023045 
L 225.13714 450.820435 
L 227.456913 450.820435 
L 227.788309 453.401712 
L 230.108081 453.401712 
L 230.439477 455.783572 
L 232.75925 455.783572 
L 233.090646 457.98142 
L 235.410419 457.98142 
L 235.741815 460.009473 
L 238.061587 460.009473 
L 238.392983 461.880848 
L 240.712756 461.880848 
L 241.044152 463.607649 
L 243.363925 463.607649 
L 243.695321 465.201046 
L 246.015094 465.201046 
L 246.34649 466.671344 
L 248.666262 466.671344 
L 248.997658 468.028054 
L 251.317431 468.028054 
L 251.648827 469.279951 
L 253.9686 469.279951 
L 254.299996 470.435132 
L 256.619768 470.435132 
L 256.951164 471.50107 
L 259.270937 471.50107 
L 259.602333 472.484658 
L 261.922106 472.484658 
L 262.253502 473.392259 
L 264.573275 473.392259 
L 264.904671 474.229742 
L 267.224443 474.229742 
L 267.555839 475.002526 
L 269.875612 475.002526 
L 270.207008 475.715608 
L 272.526781 475.715608 
L 272.858177 476.373601 
L 275.177949 476.373601 
L 275.509345 476.98076 
L 277.829118 476.98076 
L 278.160514 477.541013 
L 280.480287 477.541013 
L 280.811683 478.057983 
L 283.131455 478.057983 
L 283.462852 478.535015 
L 285.782624 478.535015 
L 286.11402 478.975194 
L 288.433793 478.975194 
L 288.765189 479.381366 
L 291.084962 479.381366 
L 291.416358 479.756159 
L 293.73613 479.756159 
L 294.067526 480.101998 
L 296.387299 480.101998 
L 296.718695 480.421119 
L 299.038468 480.421119 
L 299.369864 480.715586 
L 301.689636 480.715586 
L 302.021033 480.987304 
L 304.340805 480.987304 
L 304.672201 481.23803 
L 306.991974 481.23803 
L 307.32337 481.469386 
L 309.643143 481.469386 
L 309.974539 481.682869 
L 312.294311 481.682869 
L 312.625707 481.879859 
L 314.94548 481.879859 
L 315.276876 482.061631 
L 317.596649 482.061631 
L 317.928045 482.229359 
L 320.247817 482.229359 
L 320.579214 482.38413 
L 322.898986 482.38413 
L 323.230382 482.526944 
L 325.550155 482.526944 
L 325.881551 482.658725 
L 328.201324 482.658725 
L 328.53272 482.780325 
L 330.852492 482.780325 
L 331.515284 482.892531 
L 336.15483 482.996068 
L 336.817622 483.091606 
L 341.457167 483.179764 
L 342.119959 483.261111 
L 346.759505 483.336174 
L 347.422297 483.405437 
L 352.061842 483.46935 
L 352.724634 483.528325 
L 360.015348 483.632958 
L 361.009536 483.679294 
L 367.968854 483.761502 
L 369.294439 483.797907 
L 378.573529 483.891098 
L 380.230509 483.917491 
L 394.480541 484.021843 
L 396.800314 484.038135 
L 423.643397 484.145643 
L 429.939923 484.164307 
L 871.690909 484.232727 
L 871.690909 484.232727 
" style="fill:none;stroke:#bfbbd9;stroke-linecap:square;stroke-width:1.5;"/>
   </g>
   <g id="patch_3">
    <path d="M 126 504 
L 126 69.12 
" style="fill:none;stroke:#ffffff;stroke-linecap:square;stroke-linejoin:miter;stroke-width:0.8;"/>
   </g>
   <g id="patch_4">
    <path d="M 907.2 504 
L 907.2 69.12 
" style="fill:none;stroke:#ffffff;stroke-linecap:square;stroke-linejoin:miter;stroke-width:0.8;"/>
   </g>
   <g id="patch_5">
    <path d="M 126 504 
L 907.2 504 
" style="fill:none;stroke:#ffffff;stroke-linecap:square;stroke-linejoin:miter;stroke-width:0.8;"/>
   </g>
   <g id="patch_6">
    <path d="M 126 69.12 
L 907.2 69.12 
" style="fill:none;stroke:#ffffff;stroke-linecap:square;stroke-linejoin:miter;stroke-width:0.8;"/>
   </g>
   <g id="text_16">
    <!-- instance 12 with error 7.70416024653553e-05 -->
    <g style="fill:#ffffff;" transform="translate(376.007812 63.12)scale(0.12 -0.12)">
     <defs>
      <path d="M 2834 3397 
L 2834 2853 
Q 2591 2978 2328 3040 
Q 2066 3103 1784 3103 
Q 1356 3103 1142 2972 
Q 928 2841 928 2578 
Q 928 2378 1081 2264 
Q 1234 2150 1697 2047 
L 1894 2003 
Q 2506 1872 2764 1633 
Q 3022 1394 3022 966 
Q 3022 478 2636 193 
Q 2250 -91 1575 -91 
Q 1294 -91 989 -36 
Q 684 19 347 128 
L 347 722 
Q 666 556 975 473 
Q 1284 391 1588 391 
Q 1994 391 2212 530 
Q 2431 669 2431 922 
Q 2431 1156 2273 1281 
Q 2116 1406 1581 1522 
L 1381 1569 
Q 847 1681 609 1914 
Q 372 2147 372 2553 
Q 372 3047 722 3315 
Q 1072 3584 1716 3584 
Q 2034 3584 2315 3537 
Q 2597 3491 2834 3397 
z
" id="DejaVuSans-73" transform="scale(0.015625)"/>
      <path d="M 3122 3366 
L 3122 2828 
Q 2878 2963 2633 3030 
Q 2388 3097 2138 3097 
Q 1578 3097 1268 2742 
Q 959 2388 959 1747 
Q 959 1106 1268 751 
Q 1578 397 2138 397 
Q 2388 397 2633 464 
Q 2878 531 3122 666 
L 3122 134 
Q 2881 22 2623 -34 
Q 2366 -91 2075 -91 
Q 1284 -91 818 406 
Q 353 903 353 1747 
Q 353 2603 823 3093 
Q 1294 3584 2113 3584 
Q 2378 3584 2631 3529 
Q 2884 3475 3122 3366 
z
" id="DejaVuSans-63" transform="scale(0.015625)"/>
      <path id="DejaVuSans-20" transform="scale(0.015625)"/>
      <path d="M 269 3500 
L 844 3500 
L 1563 769 
L 2278 3500 
L 2956 3500 
L 3675 769 
L 4391 3500 
L 4966 3500 
L 4050 0 
L 3372 0 
L 2619 2869 
L 1863 0 
L 1184 0 
L 269 3500 
z
" id="DejaVuSans-77" transform="scale(0.015625)"/>
      <path d="M 3513 2113 
L 3513 0 
L 2938 0 
L 2938 2094 
Q 2938 2591 2744 2837 
Q 2550 3084 2163 3084 
Q 1697 3084 1428 2787 
Q 1159 2491 1159 1978 
L 1159 0 
L 581 0 
L 581 4863 
L 1159 4863 
L 1159 2956 
Q 1366 3272 1645 3428 
Q 1925 3584 2291 3584 
Q 2894 3584 3203 3211 
Q 3513 2838 3513 2113 
z
" id="DejaVuSans-68" transform="scale(0.015625)"/>
      <path d="M 525 4666 
L 3525 4666 
L 3525 4397 
L 1831 0 
L 1172 0 
L 2766 4134 
L 525 4134 
L 525 4666 
z
" id="DejaVuSans-37" transform="scale(0.015625)"/>
      <path d="M 684 794 
L 1344 794 
L 1344 0 
L 684 0 
L 684 794 
z
" id="DejaVuSans-2e" transform="scale(0.015625)"/>
      <path d="M 2113 2584 
Q 1688 2584 1439 2293 
Q 1191 2003 1191 1497 
Q 1191 994 1439 701 
Q 1688 409 2113 409 
Q 2538 409 2786 701 
Q 3034 994 3034 1497 
Q 3034 2003 2786 2293 
Q 2538 2584 2113 2584 
z
M 3366 4563 
L 3366 3988 
Q 3128 4100 2886 4159 
Q 2644 4219 2406 4219 
Q 1781 4219 1451 3797 
Q 1122 3375 1075 2522 
Q 1259 2794 1537 2939 
Q 1816 3084 2150 3084 
Q 2853 3084 3261 2657 
Q 3669 2231 3669 1497 
Q 3669 778 3244 343 
Q 2819 -91 2113 -91 
Q 1303 -91 875 529 
Q 447 1150 447 2328 
Q 447 3434 972 4092 
Q 1497 4750 2381 4750 
Q 2619 4750 2861 4703 
Q 3103 4656 3366 4563 
z
" id="DejaVuSans-36" transform="scale(0.015625)"/>
      <path d="M 313 2009 
L 1997 2009 
L 1997 1497 
L 313 1497 
L 313 2009 
z
" id="DejaVuSans-2d" transform="scale(0.015625)"/>
     </defs>
     <use xlink:href="#DejaVuSans-69"/>
     <use x="27.783203" xlink:href="#DejaVuSans-6e"/>
     <use x="91.162109" xlink:href="#DejaVuSans-73"/>
     <use x="143.261719" xlink:href="#DejaVuSans-74"/>
     <use x="182.470703" xlink:href="#DejaVuSans-61"/>
     <use x="243.75" xlink:href="#DejaVuSans-6e"/>
     <use x="307.128906" xlink:href="#DejaVuSans-63"/>
     <use x="362.109375" xlink:href="#DejaVuSans-65"/>
     <use x="423.632812" xlink:href="#DejaVuSans-20"/>
     <use x="455.419922" xlink:href="#DejaVuSans-31"/>
     <use x="519.042969" xlink:href="#DejaVuSans-32"/>
     <use x="582.666016" xlink:href="#DejaVuSans-20"/>
     <use x="614.453125" xlink:href="#DejaVuSans-77"/>
     <use x="696.240234" xlink:href="#DejaVuSans-69"/>
     <use x="724.023438" xlink:href="#DejaVuSans-74"/>
     <use x="763.232422" xlink:href="#DejaVuSans-68"/>
     <use x="826.611328" xlink:href="#DejaVuSans-20"/>
     <use x="858.398438" xlink:href="#DejaVuSans-65"/>
     <use x="919.921875" xlink:href="#DejaVuSans-72"/>
     <use x="959.285156" xlink:href="#DejaVuSans-72"/>
     <use x="998.148438" xlink:href="#DejaVuSans-6f"/>
     <use x="1059.330078" xlink:href="#DejaVuSans-72"/>
     <use x="1100.443359" xlink:href="#DejaVuSans-20"/>
     <use x="1132.230469" xlink:href="#DejaVuSans-37"/>
     <use x="1195.853516" xlink:href="#DejaVuSans-2e"/>
     <use x="1227.640625" xlink:href="#DejaVuSans-37"/>
     <use x="1291.263672" xlink:href="#DejaVuSans-30"/>
     <use x="1354.886719" xlink:href="#DejaVuSans-34"/>
     <use x="1418.509766" xlink:href="#DejaVuSans-31"/>
     <use x="1482.132812" xlink:href="#DejaVuSans-36"/>
     <use x="1545.755859" xlink:href="#DejaVuSans-30"/>
     <use x="1609.378906" xlink:href="#DejaVuSans-32"/>
     <use x="1673.001953" xlink:href="#DejaVuSans-34"/>
     <use x="1736.625" xlink:href="#DejaVuSans-36"/>
     <use x="1800.248047" xlink:href="#DejaVuSans-35"/>
     <use x="1863.871094" xlink:href="#DejaVuSans-33"/>
     <use x="1927.494141" xlink:href="#DejaVuSans-35"/>
     <use x="1991.117188" xlink:href="#DejaVuSans-35"/>
     <use x="2054.740234" xlink:href="#DejaVuSans-33"/>
     <use x="2118.363281" xlink:href="#DejaVuSans-65"/>
     <use x="2179.886719" xlink:href="#DejaVuSans-2d"/>
     <use x="2215.970703" xlink:href="#DejaVuSans-30"/>
     <use x="2279.59375" xlink:href="#DejaVuSans-35"/>
    </g>
   </g>
   <g id="legend_1">
    <g id="patch_7">
     <path d="M 805.348438 499 
L 900.2 499 
Q 902.2 499 902.2 497 
L 902.2 453.965625 
Q 902.2 451.965625 900.2 451.965625 
L 805.348438 451.965625 
Q 803.348438 451.965625 803.348438 453.965625 
L 803.348438 497 
Q 803.348438 499 805.348438 499 
z
" style="opacity:0.8;stroke:#cccccc;stroke-linejoin:miter;"/>
    </g>
    <g id="line2d_18">
     <path d="M 807.348438 460.064062 
L 827.348438 460.064062 
" style="fill:none;stroke:#8dd3c7;stroke-linecap:square;stroke-width:1.5;"/>
    </g>
    <g id="line2d_19"/>
    <g id="text_17">
     <!-- cost -->
     <g style="fill:#ffffff;" transform="translate(835.348438 463.564062)scale(0.1 -0.1)">
      <use xlink:href="#DejaVuSans-63"/>
      <use x="54.980469" xlink:href="#DejaVuSans-6f"/>
      <use x="116.162109" xlink:href="#DejaVuSans-73"/>
      <use x="168.261719" xlink:href="#DejaVuSans-74"/>
     </g>
    </g>
    <g id="line2d_20">
     <path d="M 807.348438 474.742188 
L 827.348438 474.742188 
" style="fill:none;stroke:#feffb3;stroke-linecap:square;stroke-width:1.5;"/>
    </g>
    <g id="line2d_21"/>
    <g id="text_18">
     <!-- best cost -->
     <g style="fill:#ffffff;" transform="translate(835.348438 478.242188)scale(0.1 -0.1)">
      <defs>
       <path d="M 3116 1747 
Q 3116 2381 2855 2742 
Q 2594 3103 2138 3103 
Q 1681 3103 1420 2742 
Q 1159 2381 1159 1747 
Q 1159 1113 1420 752 
Q 1681 391 2138 391 
Q 2594 391 2855 752 
Q 3116 1113 3116 1747 
z
M 1159 2969 
Q 1341 3281 1617 3432 
Q 1894 3584 2278 3584 
Q 2916 3584 3314 3078 
Q 3713 2572 3713 1747 
Q 3713 922 3314 415 
Q 2916 -91 2278 -91 
Q 1894 -91 1617 61 
Q 1341 213 1159 525 
L 1159 0 
L 581 0 
L 581 4863 
L 1159 4863 
L 1159 2969 
z
" id="DejaVuSans-62" transform="scale(0.015625)"/>
      </defs>
      <use xlink:href="#DejaVuSans-62"/>
      <use x="63.476562" xlink:href="#DejaVuSans-65"/>
      <use x="125" xlink:href="#DejaVuSans-73"/>
      <use x="177.099609" xlink:href="#DejaVuSans-74"/>
      <use x="216.308594" xlink:href="#DejaVuSans-20"/>
      <use x="248.095703" xlink:href="#DejaVuSans-63"/>
      <use x="303.076172" xlink:href="#DejaVuSans-6f"/>
      <use x="364.257812" xlink:href="#DejaVuSans-73"/>
      <use x="416.357422" xlink:href="#DejaVuSans-74"/>
     </g>
    </g>
    <g id="line2d_22">
     <path d="M 807.348438 489.420313 
L 827.348438 489.420313 
" style="fill:none;stroke:#bfbbd9;stroke-linecap:square;stroke-width:1.5;"/>
    </g>
    <g id="line2d_23"/>
    <g id="text_19">
     <!-- temperature -->
     <g style="fill:#ffffff;" transform="translate(835.348438 492.920313)scale(0.1 -0.1)">
      <defs>
       <path d="M 3328 2828 
Q 3544 3216 3844 3400 
Q 4144 3584 4550 3584 
Q 5097 3584 5394 3201 
Q 5691 2819 5691 2113 
L 5691 0 
L 5113 0 
L 5113 2094 
Q 5113 2597 4934 2840 
Q 4756 3084 4391 3084 
Q 3944 3084 3684 2787 
Q 3425 2491 3425 1978 
L 3425 0 
L 2847 0 
L 2847 2094 
Q 2847 2600 2669 2842 
Q 2491 3084 2119 3084 
Q 1678 3084 1418 2786 
Q 1159 2488 1159 1978 
L 1159 0 
L 581 0 
L 581 3500 
L 1159 3500 
L 1159 2956 
Q 1356 3278 1631 3431 
Q 1906 3584 2284 3584 
Q 2666 3584 2933 3390 
Q 3200 3197 3328 2828 
z
" id="DejaVuSans-6d" transform="scale(0.015625)"/>
       <path d="M 1159 525 
L 1159 -1331 
L 581 -1331 
L 581 3500 
L 1159 3500 
L 1159 2969 
Q 1341 3281 1617 3432 
Q 1894 3584 2278 3584 
Q 2916 3584 3314 3078 
Q 3713 2572 3713 1747 
Q 3713 922 3314 415 
Q 2916 -91 2278 -91 
Q 1894 -91 1617 61 
Q 1341 213 1159 525 
z
M 3116 1747 
Q 3116 2381 2855 2742 
Q 2594 3103 2138 3103 
Q 1681 3103 1420 2742 
Q 1159 2381 1159 1747 
Q 1159 1113 1420 752 
Q 1681 391 2138 391 
Q 2594 391 2855 752 
Q 3116 1113 3116 1747 
z
" id="DejaVuSans-70" transform="scale(0.015625)"/>
       <path d="M 544 1381 
L 544 3500 
L 1119 3500 
L 1119 1403 
Q 1119 906 1312 657 
Q 1506 409 1894 409 
Q 2359 409 2629 706 
Q 2900 1003 2900 1516 
L 2900 3500 
L 3475 3500 
L 3475 0 
L 2900 0 
L 2900 538 
Q 2691 219 2414 64 
Q 2138 -91 1772 -91 
Q 1169 -91 856 284 
Q 544 659 544 1381 
z
M 1991 3584 
L 1991 3584 
z
" id="DejaVuSans-75" transform="scale(0.015625)"/>
      </defs>
      <use xlink:href="#DejaVuSans-74"/>
      <use x="39.208984" xlink:href="#DejaVuSans-65"/>
      <use x="100.732422" xlink:href="#DejaVuSans-6d"/>
      <use x="198.144531" xlink:href="#DejaVuSans-70"/>
      <use x="261.621094" xlink:href="#DejaVuSans-65"/>
      <use x="323.144531" xlink:href="#DejaVuSans-72"/>
      <use x="364.257812" xlink:href="#DejaVuSans-61"/>
      <use x="425.537109" xlink:href="#DejaVuSans-74"/>
      <use x="464.746094" xlink:href="#DejaVuSans-75"/>
      <use x="528.125" xlink:href="#DejaVuSans-72"/>
      <use x="566.988281" xlink:href="#DejaVuSans-65"/>
     </g>
    </g>
   </g>
  </g>
 </g>
 <defs>
  <clipPath id="pa2bb9c48a2">
   <rect height="434.88" width="781.2" x="126" y="69.12"/>
  </clipPath>
 </defs>
</svg>
