<?xml version="1.0" encoding="utf-8" standalone="no"?>
<!DOCTYPE svg PUBLIC "-//W3C//DTD SVG 1.1//EN"
  "http://www.w3.org/Graphics/SVG/1.1/DTD/svg11.dtd">
<svg height="576pt" version="1.1" viewBox="0 0 1008 576" width="1008pt" xmlns="http://www.w3.org/2000/svg" xmlns:xlink="http://www.w3.org/1999/xlink">
 <metadata>
  <rdf:RDF xmlns:cc="http://creativecommons.org/ns#" xmlns:dc="http://purl.org/dc/elements/1.1/" xmlns:rdf="http://www.w3.org/1999/02/22-rdf-syntax-ns#">
   <cc:Work>
    <dc:type rdf:resource="http://purl.org/dc/dcmitype/StillImage"/>
    <dc:date>2022-01-13T19:11:04.332547</dc:date>
    <dc:format>image/svg+xml</dc:format>
    <dc:creator>
     <cc:Agent>
      <dc:title>Matplotlib v3.4.3, https://matplotlib.org/</dc:title>
     </cc:Agent>
    </dc:creator>
   </cc:Work>
  </rdf:RDF>
 </metadata>
 <defs>
  <style type="text/css">*{stroke-linecap:butt;stroke-linejoin:round;}</style>
 </defs>
 <g id="figure_1">
  <g id="patch_1">
   <path d="M 0 576 
L 1008 576 
L 1008 0 
L 0 0 
z
"/>
  </g>
  <g id="axes_1">
   <g id="patch_2">
    <path d="M 126 504 
L 907.2 504 
L 907.2 69.12 
L 126 69.12 
z
"/>
   </g>
   <g id="matplotlib.axis_1">
    <g id="xtick_1">
     <g id="line2d_1">
      <defs>
       <path d="M 0 0 
L 0 3.5 
" id="m71c5f932f7" style="stroke:#ffffff;stroke-width:0.8;"/>
      </defs>
      <g>
       <use style="fill:#ffffff;stroke:#ffffff;stroke-width:0.8;" x="161.509091" xlink:href="#m71c5f932f7" y="504"/>
      </g>
     </g>
     <g id="text_1">
      <!-- 0 -->
      <g style="fill:#ffffff;" transform="translate(158.327841 518.598438)scale(0.1 -0.1)">
       <defs>
        <path d="M 2034 4250 
Q 1547 4250 1301 3770 
Q 1056 3291 1056 2328 
Q 1056 1369 1301 889 
Q 1547 409 2034 409 
Q 2525 409 2770 889 
Q 3016 1369 3016 2328 
Q 3016 3291 2770 3770 
Q 2525 4250 2034 4250 
z
M 2034 4750 
Q 2819 4750 3233 4129 
Q 3647 3509 3647 2328 
Q 3647 1150 3233 529 
Q 2819 -91 2034 -91 
Q 1250 -91 836 529 
Q 422 1150 422 2328 
Q 422 3509 836 4129 
Q 1250 4750 2034 4750 
z
" id="DejaVuSans-30" transform="scale(0.015625)"/>
       </defs>
       <use xlink:href="#DejaVuSans-30"/>
      </g>
     </g>
    </g>
    <g id="xtick_2">
     <g id="line2d_2">
      <g>
       <use style="fill:#ffffff;stroke:#ffffff;stroke-width:0.8;" x="287.027263" xlink:href="#m71c5f932f7" y="504"/>
      </g>
     </g>
     <g id="text_2">
      <!-- 500 -->
      <g style="fill:#ffffff;" transform="translate(277.483513 518.598438)scale(0.1 -0.1)">
       <defs>
        <path d="M 691 4666 
L 3169 4666 
L 3169 4134 
L 1269 4134 
L 1269 2991 
Q 1406 3038 1543 3061 
Q 1681 3084 1819 3084 
Q 2600 3084 3056 2656 
Q 3513 2228 3513 1497 
Q 3513 744 3044 326 
Q 2575 -91 1722 -91 
Q 1428 -91 1123 -41 
Q 819 9 494 109 
L 494 744 
Q 775 591 1075 516 
Q 1375 441 1709 441 
Q 2250 441 2565 725 
Q 2881 1009 2881 1497 
Q 2881 1984 2565 2268 
Q 2250 2553 1709 2553 
Q 1456 2553 1204 2497 
Q 953 2441 691 2322 
L 691 4666 
z
" id="DejaVuSans-35" transform="scale(0.015625)"/>
       </defs>
       <use xlink:href="#DejaVuSans-35"/>
       <use x="63.623047" xlink:href="#DejaVuSans-30"/>
       <use x="127.246094" xlink:href="#DejaVuSans-30"/>
      </g>
     </g>
    </g>
    <g id="xtick_3">
     <g id="line2d_3">
      <g>
       <use style="fill:#ffffff;stroke:#ffffff;stroke-width:0.8;" x="412.545435" xlink:href="#m71c5f932f7" y="504"/>
      </g>
     </g>
     <g id="text_3">
      <!-- 1000 -->
      <g style="fill:#ffffff;" transform="translate(399.820435 518.598438)scale(0.1 -0.1)">
       <defs>
        <path d="M 794 531 
L 1825 531 
L 1825 4091 
L 703 3866 
L 703 4441 
L 1819 4666 
L 2450 4666 
L 2450 531 
L 3481 531 
L 3481 0 
L 794 0 
L 794 531 
z
" id="DejaVuSans-31" transform="scale(0.015625)"/>
       </defs>
       <use xlink:href="#DejaVuSans-31"/>
       <use x="63.623047" xlink:href="#DejaVuSans-30"/>
       <use x="127.246094" xlink:href="#DejaVuSans-30"/>
       <use x="190.869141" xlink:href="#DejaVuSans-30"/>
      </g>
     </g>
    </g>
    <g id="xtick_4">
     <g id="line2d_4">
      <g>
       <use style="fill:#ffffff;stroke:#ffffff;stroke-width:0.8;" x="538.063607" xlink:href="#m71c5f932f7" y="504"/>
      </g>
     </g>
     <g id="text_4">
      <!-- 1500 -->
      <g style="fill:#ffffff;" transform="translate(525.338607 518.598438)scale(0.1 -0.1)">
       <use xlink:href="#DejaVuSans-31"/>
       <use x="63.623047" xlink:href="#DejaVuSans-35"/>
       <use x="127.246094" xlink:href="#DejaVuSans-30"/>
       <use x="190.869141" xlink:href="#DejaVuSans-30"/>
      </g>
     </g>
    </g>
    <g id="xtick_5">
     <g id="line2d_5">
      <g>
       <use style="fill:#ffffff;stroke:#ffffff;stroke-width:0.8;" x="663.58178" xlink:href="#m71c5f932f7" y="504"/>
      </g>
     </g>
     <g id="text_5">
      <!-- 2000 -->
      <g style="fill:#ffffff;" transform="translate(650.85678 518.598438)scale(0.1 -0.1)">
       <defs>
        <path d="M 1228 531 
L 3431 531 
L 3431 0 
L 469 0 
L 469 531 
Q 828 903 1448 1529 
Q 2069 2156 2228 2338 
Q 2531 2678 2651 2914 
Q 2772 3150 2772 3378 
Q 2772 3750 2511 3984 
Q 2250 4219 1831 4219 
Q 1534 4219 1204 4116 
Q 875 4013 500 3803 
L 500 4441 
Q 881 4594 1212 4672 
Q 1544 4750 1819 4750 
Q 2544 4750 2975 4387 
Q 3406 4025 3406 3419 
Q 3406 3131 3298 2873 
Q 3191 2616 2906 2266 
Q 2828 2175 2409 1742 
Q 1991 1309 1228 531 
z
" id="DejaVuSans-32" transform="scale(0.015625)"/>
       </defs>
       <use xlink:href="#DejaVuSans-32"/>
       <use x="63.623047" xlink:href="#DejaVuSans-30"/>
       <use x="127.246094" xlink:href="#DejaVuSans-30"/>
       <use x="190.869141" xlink:href="#DejaVuSans-30"/>
      </g>
     </g>
    </g>
    <g id="xtick_6">
     <g id="line2d_6">
      <g>
       <use style="fill:#ffffff;stroke:#ffffff;stroke-width:0.8;" x="789.099952" xlink:href="#m71c5f932f7" y="504"/>
      </g>
     </g>
     <g id="text_6">
      <!-- 2500 -->
      <g style="fill:#ffffff;" transform="translate(776.374952 518.598438)scale(0.1 -0.1)">
       <use xlink:href="#DejaVuSans-32"/>
       <use x="63.623047" xlink:href="#DejaVuSans-35"/>
       <use x="127.246094" xlink:href="#DejaVuSans-30"/>
       <use x="190.869141" xlink:href="#DejaVuSans-30"/>
      </g>
     </g>
    </g>
    <g id="text_7">
     <!-- iteration -->
     <g style="fill:#ffffff;" transform="translate(495.477344 532.276562)scale(0.1 -0.1)">
      <defs>
       <path d="M 603 3500 
L 1178 3500 
L 1178 0 
L 603 0 
L 603 3500 
z
M 603 4863 
L 1178 4863 
L 1178 4134 
L 603 4134 
L 603 4863 
z
" id="DejaVuSans-69" transform="scale(0.015625)"/>
       <path d="M 1172 4494 
L 1172 3500 
L 2356 3500 
L 2356 3053 
L 1172 3053 
L 1172 1153 
Q 1172 725 1289 603 
Q 1406 481 1766 481 
L 2356 481 
L 2356 0 
L 1766 0 
Q 1100 0 847 248 
Q 594 497 594 1153 
L 594 3053 
L 172 3053 
L 172 3500 
L 594 3500 
L 594 4494 
L 1172 4494 
z
" id="DejaVuSans-74" transform="scale(0.015625)"/>
       <path d="M 3597 1894 
L 3597 1613 
L 953 1613 
Q 991 1019 1311 708 
Q 1631 397 2203 397 
Q 2534 397 2845 478 
Q 3156 559 3463 722 
L 3463 178 
Q 3153 47 2828 -22 
Q 2503 -91 2169 -91 
Q 1331 -91 842 396 
Q 353 884 353 1716 
Q 353 2575 817 3079 
Q 1281 3584 2069 3584 
Q 2775 3584 3186 3129 
Q 3597 2675 3597 1894 
z
M 3022 2063 
Q 3016 2534 2758 2815 
Q 2500 3097 2075 3097 
Q 1594 3097 1305 2825 
Q 1016 2553 972 2059 
L 3022 2063 
z
" id="DejaVuSans-65" transform="scale(0.015625)"/>
       <path d="M 2631 2963 
Q 2534 3019 2420 3045 
Q 2306 3072 2169 3072 
Q 1681 3072 1420 2755 
Q 1159 2438 1159 1844 
L 1159 0 
L 581 0 
L 581 3500 
L 1159 3500 
L 1159 2956 
Q 1341 3275 1631 3429 
Q 1922 3584 2338 3584 
Q 2397 3584 2469 3576 
Q 2541 3569 2628 3553 
L 2631 2963 
z
" id="DejaVuSans-72" transform="scale(0.015625)"/>
       <path d="M 2194 1759 
Q 1497 1759 1228 1600 
Q 959 1441 959 1056 
Q 959 750 1161 570 
Q 1363 391 1709 391 
Q 2188 391 2477 730 
Q 2766 1069 2766 1631 
L 2766 1759 
L 2194 1759 
z
M 3341 1997 
L 3341 0 
L 2766 0 
L 2766 531 
Q 2569 213 2275 61 
Q 1981 -91 1556 -91 
Q 1019 -91 701 211 
Q 384 513 384 1019 
Q 384 1609 779 1909 
Q 1175 2209 1959 2209 
L 2766 2209 
L 2766 2266 
Q 2766 2663 2505 2880 
Q 2244 3097 1772 3097 
Q 1472 3097 1187 3025 
Q 903 2953 641 2809 
L 641 3341 
Q 956 3463 1253 3523 
Q 1550 3584 1831 3584 
Q 2591 3584 2966 3190 
Q 3341 2797 3341 1997 
z
" id="DejaVuSans-61" transform="scale(0.015625)"/>
       <path d="M 1959 3097 
Q 1497 3097 1228 2736 
Q 959 2375 959 1747 
Q 959 1119 1226 758 
Q 1494 397 1959 397 
Q 2419 397 2687 759 
Q 2956 1122 2956 1747 
Q 2956 2369 2687 2733 
Q 2419 3097 1959 3097 
z
M 1959 3584 
Q 2709 3584 3137 3096 
Q 3566 2609 3566 1747 
Q 3566 888 3137 398 
Q 2709 -91 1959 -91 
Q 1206 -91 779 398 
Q 353 888 353 1747 
Q 353 2609 779 3096 
Q 1206 3584 1959 3584 
z
" id="DejaVuSans-6f" transform="scale(0.015625)"/>
       <path d="M 3513 2113 
L 3513 0 
L 2938 0 
L 2938 2094 
Q 2938 2591 2744 2837 
Q 2550 3084 2163 3084 
Q 1697 3084 1428 2787 
Q 1159 2491 1159 1978 
L 1159 0 
L 581 0 
L 581 3500 
L 1159 3500 
L 1159 2956 
Q 1366 3272 1645 3428 
Q 1925 3584 2291 3584 
Q 2894 3584 3203 3211 
Q 3513 2838 3513 2113 
z
" id="DejaVuSans-6e" transform="scale(0.015625)"/>
      </defs>
      <use xlink:href="#DejaVuSans-69"/>
      <use x="27.783203" xlink:href="#DejaVuSans-74"/>
      <use x="66.992188" xlink:href="#DejaVuSans-65"/>
      <use x="128.515625" xlink:href="#DejaVuSans-72"/>
      <use x="169.628906" xlink:href="#DejaVuSans-61"/>
      <use x="230.908203" xlink:href="#DejaVuSans-74"/>
      <use x="270.117188" xlink:href="#DejaVuSans-69"/>
      <use x="297.900391" xlink:href="#DejaVuSans-6f"/>
      <use x="359.082031" xlink:href="#DejaVuSans-6e"/>
     </g>
    </g>
   </g>
   <g id="matplotlib.axis_2">
    <g id="ytick_1">
     <g id="line2d_7">
      <defs>
       <path d="M 0 0 
L -3.5 0 
" id="m9f0cf613bc" style="stroke:#ffffff;stroke-width:0.8;"/>
      </defs>
      <g>
       <use style="fill:#ffffff;stroke:#ffffff;stroke-width:0.8;" x="126" xlink:href="#m9f0cf613bc" y="484.232727"/>
      </g>
     </g>
     <g id="text_8">
      <!-- 0 -->
      <g style="fill:#ffffff;" transform="translate(112.6375 488.031946)scale(0.1 -0.1)">
       <use xlink:href="#DejaVuSans-30"/>
      </g>
     </g>
    </g>
    <g id="ytick_2">
     <g id="line2d_8">
      <g>
       <use style="fill:#ffffff;stroke:#ffffff;stroke-width:0.8;" x="126" xlink:href="#m9f0cf613bc" y="388.474976"/>
      </g>
     </g>
     <g id="text_9">
      <!-- 5000 -->
      <g style="fill:#ffffff;" transform="translate(93.55 392.274194)scale(0.1 -0.1)">
       <use xlink:href="#DejaVuSans-35"/>
       <use x="63.623047" xlink:href="#DejaVuSans-30"/>
       <use x="127.246094" xlink:href="#DejaVuSans-30"/>
       <use x="190.869141" xlink:href="#DejaVuSans-30"/>
      </g>
     </g>
    </g>
    <g id="ytick_3">
     <g id="line2d_9">
      <g>
       <use style="fill:#ffffff;stroke:#ffffff;stroke-width:0.8;" x="126" xlink:href="#m9f0cf613bc" y="292.717224"/>
      </g>
     </g>
     <g id="text_10">
      <!-- 10000 -->
      <g style="fill:#ffffff;" transform="translate(87.1875 296.516442)scale(0.1 -0.1)">
       <use xlink:href="#DejaVuSans-31"/>
       <use x="63.623047" xlink:href="#DejaVuSans-30"/>
       <use x="127.246094" xlink:href="#DejaVuSans-30"/>
       <use x="190.869141" xlink:href="#DejaVuSans-30"/>
       <use x="254.492188" xlink:href="#DejaVuSans-30"/>
      </g>
     </g>
    </g>
    <g id="ytick_4">
     <g id="line2d_10">
      <g>
       <use style="fill:#ffffff;stroke:#ffffff;stroke-width:0.8;" x="126" xlink:href="#m9f0cf613bc" y="196.959472"/>
      </g>
     </g>
     <g id="text_11">
      <!-- 15000 -->
      <g style="fill:#ffffff;" transform="translate(87.1875 200.75869)scale(0.1 -0.1)">
       <use xlink:href="#DejaVuSans-31"/>
       <use x="63.623047" xlink:href="#DejaVuSans-35"/>
       <use x="127.246094" xlink:href="#DejaVuSans-30"/>
       <use x="190.869141" xlink:href="#DejaVuSans-30"/>
       <use x="254.492188" xlink:href="#DejaVuSans-30"/>
      </g>
     </g>
    </g>
    <g id="ytick_5">
     <g id="line2d_11">
      <g>
       <use style="fill:#ffffff;stroke:#ffffff;stroke-width:0.8;" x="126" xlink:href="#m9f0cf613bc" y="101.20172"/>
      </g>
     </g>
     <g id="text_12">
      <!-- 20000 -->
      <g style="fill:#ffffff;" transform="translate(87.1875 105.000938)scale(0.1 -0.1)">
       <use xlink:href="#DejaVuSans-32"/>
       <use x="63.623047" xlink:href="#DejaVuSans-30"/>
       <use x="127.246094" xlink:href="#DejaVuSans-30"/>
       <use x="190.869141" xlink:href="#DejaVuSans-30"/>
       <use x="254.492188" xlink:href="#DejaVuSans-30"/>
      </g>
     </g>
    </g>
   </g>
   <g id="line2d_12">
    <path clip-path="url(#pb167c6b698)" d="M 161.509091 326.711225 
L 161.760127 349.175994 
L 162.011164 333.375965 
L 162.2622 357.794192 
L 162.513236 349.195146 
L 162.764273 357.794192 
L 163.015309 291.721343 
L 163.266345 271.30579 
L 163.517382 270.884456 
L 163.768418 308.191676 
L 164.019454 282.873327 
L 164.270491 304.361366 
L 164.772563 321.770125 
L 165.274636 381.9826 
L 165.525672 362.371412 
L 165.776709 391.079586 
L 166.027745 381.465508 
L 166.278781 347.14593 
L 166.780854 342.128224 
L 167.03189 326.232437 
L 167.282927 342.549558 
L 167.533963 349.310055 
L 167.785 333.452571 
L 168.036036 340.940827 
L 168.287072 358.215526 
L 168.538109 360.935046 
L 168.789145 353.178668 
L 169.040181 377.730956 
L 169.291218 379.799323 
L 169.542254 395.656807 
L 169.79329 366.374086 
L 170.044327 370.089487 
L 170.295363 377.845865 
L 170.546399 380.182354 
L 170.797436 357.717586 
L 171.048472 349.961208 
L 171.299508 334.161179 
L 171.550545 293.54074 
L 171.801581 301.297118 
L 172.303654 279.426048 
L 172.55469 303.518698 
L 172.805726 340.021553 
L 173.056763 332.265175 
L 173.307799 308.842829 
L 173.558835 337.627609 
L 173.809872 318.341998 
L 174.562981 379.914232 
L 174.814017 381.025022 
L 175.31609 345.881927 
L 175.567126 343.545438 
L 175.818163 337.799973 
L 176.069199 372.215309 
L 176.822308 347.950295 
L 177.073344 307.329856 
L 177.324381 310.757984 
L 177.575417 330.292565 
L 177.826453 295.858078 
L 178.07749 313.496656 
L 178.328526 313.496656 
L 178.579562 345.17332 
L 178.830599 334.774028 
L 179.081635 298.673356 
L 179.332671 306.429734 
L 179.583708 306.199915 
L 179.834744 290.304128 
L 180.08578 290.304128 
L 180.587853 298.960629 
L 180.838889 317.824906 
L 181.843035 236.411665 
L 182.094071 261.959834 
L 182.345107 259.623344 
L 182.596144 283.869207 
L 183.098217 283.869207 
L 183.349253 278.449319 
L 183.600289 278.449319 
L 183.851326 318.073876 
L 184.102362 283.754298 
L 184.855471 349.942056 
L 185.106507 348.831266 
L 186.110653 299.937358 
L 186.612725 232.945235 
L 187.365834 346.322413 
L 187.616871 330.426626 
L 187.867907 324.623707 
L 188.118943 356.300371 
L 188.36998 357.411161 
L 188.621016 238.6907 
L 188.872052 253.437394 
L 189.123089 281.877446 
L 189.374125 282.624356 
L 189.625161 282.624356 
L 189.876198 309.781255 
L 190.127234 318.380301 
L 190.378271 320.71679 
L 190.629307 308.459798 
L 190.880343 285.037452 
L 191.13138 287.699517 
L 191.382416 278.085439 
L 191.884489 295.455895 
L 192.135525 332.246024 
L 193.13967 221.952245 
L 193.390707 239.361004 
L 193.641743 278.985562 
L 193.892779 271.765427 
L 194.143816 267.954269 
L 194.394852 257.746493 
L 194.645888 274.63816 
L 195.147961 220.53503 
L 195.398997 255.888792 
L 195.650034 308.97689 
L 195.90107 288.082548 
L 196.152106 276.572467 
L 196.403143 294.594075 
L 196.654179 293.483286 
L 196.905215 285.765211 
L 197.407288 305.376398 
L 197.658324 337.053063 
L 197.909361 321.253034 
L 198.160397 312.653988 
L 198.913506 264.775112 
L 199.164543 255.429155 
L 199.415579 255.103579 
L 199.666615 276.476709 
L 199.917652 277.223619 
L 200.168688 281.034778 
L 200.419724 296.930565 
L 200.670761 337.551003 
L 201.172833 312.079441 
L 201.42387 309.742952 
L 201.674906 325.600436 
L 201.925942 316.503449 
L 202.176979 345.211623 
L 202.428015 315.718236 
L 202.679051 334.582513 
L 202.930088 330.637293 
L 203.181124 330.637293 
L 203.43216 308.172525 
L 203.683197 339.849189 
L 203.934233 343.794408 
L 204.185269 343.794408 
L 204.436306 341.726041 
L 204.687342 337.780822 
L 204.938378 316.407691 
L 205.189415 316.407691 
L 205.440451 329.411594 
L 205.691488 303.059061 
L 205.942524 331.614022 
L 206.19356 341.228101 
L 206.444597 308.383192 
L 206.695633 342.70277 
L 206.946669 308.383192 
L 207.197706 292.525708 
L 207.448742 318.878241 
L 207.699778 318.878241 
L 207.950815 372.71325 
L 208.201851 375.854104 
L 208.703924 314.990477 
L 208.95496 349.310055 
L 209.205996 304.610336 
L 209.457033 310.681378 
L 209.708069 290.265825 
L 209.959105 285.38218 
L 210.210142 292.602314 
L 210.461178 263.108927 
L 210.712214 299.899055 
L 210.963251 292.67892 
L 211.214287 308.536404 
L 211.465323 310.604772 
L 211.71636 308.268282 
L 211.967396 290.706311 
L 212.218432 290.974432 
L 212.469469 282.107265 
L 212.720505 284.175632 
L 212.971542 264.890021 
L 213.222578 217.145206 
L 213.473614 217.145206 
L 213.724651 273.489067 
L 213.975687 241.812403 
L 214.226723 241.812403 
L 214.728796 286.454667 
L 214.979832 286.454667 
L 215.230869 270.597183 
L 215.481905 270.597183 
L 215.732941 222.852368 
L 215.983978 254.701396 
L 216.235014 242.616768 
L 216.48605 242.616768 
L 216.737087 208.297189 
L 216.988123 215.555627 
L 217.239159 253.76297 
L 217.490196 254.87376 
L 217.741232 222.028851 
L 217.992268 238.652397 
L 218.243305 238.652397 
L 218.494341 315.430962 
L 218.745377 328.37741 
L 218.996414 312.519927 
L 219.498486 333.203601 
L 219.749523 325.983467 
L 220.000559 305.567914 
L 220.251595 298.041355 
L 220.502632 300.990693 
L 220.753668 316.848177 
L 221.004705 278.411015 
L 221.255741 286.167393 
L 221.506777 245.546955 
L 222.00885 317.844058 
L 222.761959 243.248769 
L 223.012995 279.751624 
L 223.264032 263.951595 
L 223.515068 279.751624 
L 223.766104 250.966844 
L 224.017141 250.966844 
L 224.268177 231.681232 
L 224.519213 230.570443 
L 224.77025 247.979202 
L 225.021286 313.726474 
L 225.272322 317.365269 
L 225.523359 355.993946 
L 225.774395 365.608024 
L 226.025431 335.999727 
L 226.276468 348.25672 
L 226.527504 369.859669 
L 226.77854 341.151494 
L 227.029577 369.859669 
L 227.280613 369.62985 
L 227.531649 350.765573 
L 227.782686 390.390131 
L 228.033722 390.619949 
L 228.284759 381.005871 
L 228.535795 333.261056 
L 228.786831 330.311717 
L 229.037868 330.311717 
L 229.288904 361.988381 
L 229.790977 314.933022 
L 230.042013 314.933022 
L 230.293049 362.677837 
L 230.544086 355.66837 
L 230.795122 353.600002 
L 231.046158 289.46146 
L 231.297195 309.877013 
L 231.548231 309.877013 
L 231.799267 262.132198 
L 232.050304 262.132198 
L 232.30134 259.125404 
L 232.552376 239.55252 
L 233.054449 310.757984 
L 233.305485 281.973204 
L 233.556522 281.456112 
L 233.807558 344.503016 
L 234.058594 343.392226 
L 234.309631 322.919219 
L 234.560667 314.320172 
L 234.811703 332.5716 
L 235.06274 369.074455 
L 235.313776 307.138341 
L 235.564812 310.08768 
L 235.815849 309.857861 
L 236.066885 309.857861 
L 236.317922 290.57225 
L 236.568958 292.908739 
L 236.819994 269.486393 
L 237.322067 319.529394 
L 237.573103 316.675813 
L 237.82414 296.26026 
L 238.075176 304.054941 
L 238.326212 341.764344 
L 238.577249 341.994163 
L 238.828285 318.571817 
L 239.079321 319.682606 
L 239.330358 303.825123 
L 239.581394 327.247469 
L 239.83243 327.247469 
L 240.334503 269.869424 
L 240.585539 274.657312 
L 241.087612 238.575791 
L 241.589685 282.643508 
L 242.091757 202.398512 
L 242.342794 208.68022 
L 242.59383 233.404872 
L 242.844866 243.01895 
L 243.095903 282.643508 
L 243.346939 298.443537 
L 243.849012 221.837336 
L 244.100048 220.305212 
L 244.351085 276.189436 
L 244.602121 273.852946 
L 244.853157 273.852946 
L 245.104194 288.59964 
L 245.35523 314.875567 
L 245.606266 267.130752 
L 245.857303 260.102133 
L 246.108339 260.102133 
L 246.359375 227.544498 
L 246.610412 227.544498 
L 246.861448 248.304778 
L 247.112484 213.9852 
L 247.363521 229.880987 
L 247.614557 227.812619 
L 247.865593 269.792818 
L 248.11663 231.355656 
L 248.367666 234.304995 
L 248.618702 251.866967 
L 248.869739 242.252888 
L 249.120775 213.468108 
L 249.371811 261.212923 
L 249.622848 243.650951 
L 249.873884 242.904041 
L 250.12492 279.406896 
L 250.375957 296.968868 
L 250.626993 275.365919 
L 250.878029 234.745481 
L 251.129066 217.183509 
L 251.380102 212.357318 
L 251.882175 212.357318 
L 252.133211 241.142098 
L 252.384248 193.397283 
L 252.635284 215.976961 
L 252.88632 207.550279 
L 253.137357 170.760151 
L 253.388393 211.380589 
L 253.639429 211.380589 
L 253.890466 248.553748 
L 254.141502 268.969301 
L 254.392538 268.969301 
L 254.643575 276.227739 
L 254.894611 293.483286 
L 255.145647 295.551653 
L 255.64772 243.440284 
L 255.898756 267.705299 
L 256.149793 245.24053 
L 256.400829 233.289963 
L 256.651865 215.727991 
L 257.153938 215.727991 
L 257.404974 252.518119 
L 257.656011 240.433491 
L 257.907047 238.365124 
L 258.40912 188.724305 
L 258.660156 217.509085 
L 258.911193 215.172596 
L 259.162229 241.237856 
L 259.413265 233.883661 
L 259.664302 233.883661 
L 259.915338 248.802718 
L 260.166374 218.294299 
L 260.417411 254.797154 
L 260.668447 223.120489 
L 260.919483 225.303766 
L 261.17052 224.192976 
L 261.421556 253.686364 
L 261.672592 301.431179 
L 261.923629 289.174187 
L 262.174665 261.500196 
L 262.425701 281.111384 
L 262.927774 344.215743 
L 263.429847 289.116732 
L 263.680883 289.116732 
L 263.931919 268.701179 
L 264.182956 300.20548 
L 264.433992 306.774462 
L 264.685028 310.432408 
L 264.936065 305.318944 
L 265.187101 325.734496 
L 265.438137 291.414918 
L 265.689174 297.830688 
L 265.94021 297.830688 
L 266.191247 315.392659 
L 266.442283 317.461027 
L 266.693319 301.660998 
L 266.944356 276.936346 
L 267.195392 276.706527 
L 267.446428 320.525275 
L 267.697465 302.024877 
L 268.199537 330.733051 
L 268.450574 282.988236 
L 268.70161 267.092449 
L 268.952646 284.731027 
L 269.203683 324.930131 
L 269.454719 325.428072 
L 269.956792 294.383408 
L 270.207828 294.383408 
L 270.458864 293.54074 
L 270.709901 277.644953 
L 270.960937 314.032899 
L 271.211973 314.032899 
L 271.46301 313.860535 
L 271.714046 347.835386 
L 271.965082 347.835386 
L 272.216119 340.270523 
L 272.467155 342.377194 
L 272.718191 342.607012 
L 272.969228 302.982455 
L 273.220264 331.767235 
L 273.4713 329.698867 
L 273.722337 329.698867 
L 273.973373 281.954052 
L 274.22441 264.392081 
L 274.475446 264.392081 
L 274.726482 281.954052 
L 274.977519 313.783929 
L 275.228555 314.894719 
L 275.479591 203.509302 
L 275.730628 243.01895 
L 275.981664 244.12974 
L 276.2327 242.061373 
L 276.483737 242.061373 
L 276.985809 322.861764 
L 277.236846 322.861764 
L 277.487882 338.719248 
L 277.738918 375.509376 
L 277.989955 367.752998 
L 278.492027 272.16761 
L 278.743064 317.097147 
L 278.9941 317.097147 
L 279.245136 298.23287 
L 279.496173 298.23287 
L 279.747209 299.228751 
L 279.998245 289.614672 
L 280.249282 329.23923 
L 280.751354 308.555556 
L 281.002391 288.082548 
L 281.253427 288.082548 
L 281.504464 277.242771 
L 281.7555 314.530839 
L 282.006536 294.115287 
L 282.508609 299.152144 
L 282.759645 319.567697 
L 283.010682 320.946609 
L 283.261718 300.531056 
L 283.512754 310.145134 
L 283.763791 330.560687 
L 284.014827 335.118756 
L 284.265863 337.455245 
L 284.5169 349.405813 
L 284.767936 349.405813 
L 285.270009 306.065854 
L 285.521045 313.285989 
L 285.772081 329.086018 
L 286.274154 268.624573 
L 286.52519 287.48885 
L 286.776227 257.995463 
L 287.027263 286.780243 
L 287.278299 284.443754 
L 287.529336 321.233882 
L 287.780372 315.813993 
L 288.031408 299.95651 
L 288.282445 315.813993 
L 288.533481 355.438551 
L 288.784517 343.181559 
L 289.035554 355.993946 
L 289.28659 353.925579 
L 289.537627 344.081682 
L 289.788663 346.150049 
L 290.039699 314.281869 
L 290.290736 310.643075 
L 290.541772 326.538862 
L 290.792808 314.281869 
L 291.043845 314.281869 
L 291.294881 335.884818 
L 291.545917 333.548329 
L 291.796954 324.949283 
L 292.04799 324.949283 
L 292.550063 293.828013 
L 292.801099 388.436672 
L 293.052135 377.807562 
L 293.303172 360.915894 
L 293.805244 299.726691 
L 294.056281 339.351249 
L 294.307317 339.351249 
L 294.558353 368.136029 
L 295.060426 302.56112 
L 295.311462 302.273847 
L 295.562499 275.902162 
L 295.813535 276.131981 
L 296.064571 255.716428 
L 296.315608 272.895369 
L 296.566644 272.895369 
L 296.817681 255.333397 
L 297.319753 288.561337 
L 297.57079 254.241759 
L 297.821826 254.241759 
L 298.072862 299.171296 
L 298.323899 270.386516 
L 298.574935 262.381168 
L 298.825971 258.570009 
L 299.077008 276.131981 
L 299.328044 253.667212 
L 299.57908 277.089558 
L 299.830117 245.412894 
L 300.081153 243.344527 
L 300.332189 272.837914 
L 300.583226 274.906282 
L 301.085298 345.728715 
L 301.336335 337.129669 
L 301.838407 309.015193 
L 302.089444 327.87947 
L 302.34048 327.649651 
L 302.591516 298.577598 
L 303.093589 329.047715 
L 303.344625 332.418388 
L 303.595662 347.03102 
L 303.846698 347.03102 
L 304.097735 359.115649 
L 304.348771 349.50157 
L 304.599807 333.701541 
L 304.850844 293.713104 
L 305.10188 285.114058 
L 305.352916 321.214731 
L 305.603953 322.057399 
L 305.854989 318.24624 
L 306.106025 337.723367 
L 306.357062 265.50287 
L 306.608098 326.921893 
L 306.859134 279.177077 
L 307.110171 283.122297 
L 307.361207 281.053929 
L 307.612243 273.833795 
L 307.86328 300.20548 
L 308.114316 309.379072 
L 308.365352 310.08768 
L 308.616389 305.874339 
L 308.867425 313.094473 
L 309.118461 304.495427 
L 309.369498 284.079874 
L 309.620534 320.870003 
L 309.87157 308.785374 
L 310.122607 311.275076 
L 310.373643 359.019891 
L 310.624679 353.312729 
L 310.875716 361.911775 
L 311.126752 354.691641 
L 311.377788 352.623273 
L 311.628825 342.549558 
L 311.879861 351.684847 
L 312.130898 352.795637 
L 312.381934 352.795637 
L 312.63297 317.154602 
L 312.884007 304.208154 
L 313.135043 304.208154 
L 313.386079 284.922543 
L 313.888152 284.922543 
L 314.139188 265.962508 
L 314.390225 268.298997 
L 314.641261 264.353777 
L 314.892297 223.733339 
L 315.645406 223.733339 
L 315.896443 256.042005 
L 316.147479 235.626452 
L 316.398515 235.626452 
L 316.900588 230.436382 
L 317.402661 230.436382 
L 317.904733 283.083994 
L 318.15577 293.29177 
L 318.406806 283.869207 
L 318.657842 293.713104 
L 318.908879 325.389769 
L 319.159915 337.340336 
L 319.410952 336.229546 
L 319.661988 349.482419 
L 319.913024 331.920447 
L 320.164061 346.207504 
L 320.415097 328.645532 
L 320.666133 346.207504 
L 320.91717 350.72727 
L 321.419242 350.72727 
L 321.670279 232.14087 
L 321.921315 256.386732 
L 322.423388 256.386732 
L 322.674424 285.171513 
L 322.92546 248.381384 
L 323.176497 229.000015 
L 323.427533 194.680437 
L 323.678569 203.279483 
L 324.180642 196.365774 
L 324.933751 196.365774 
L 325.184787 199.200203 
L 325.435824 220.094544 
L 325.68686 220.094544 
L 325.937896 221.205334 
L 326.188933 221.205334 
L 326.439969 243.670103 
L 326.691005 235.913725 
L 326.942042 243.210466 
L 327.193078 206.420337 
L 327.444115 206.420337 
L 327.946187 241.984767 
L 328.197224 222.699155 
L 328.699296 222.699155 
L 328.950333 202.283603 
L 329.703442 202.283603 
L 329.954478 214.368231 
L 330.958623 214.368231 
L 331.20966 219.17527 
L 331.460696 201.613298 
L 331.711732 249.358113 
L 332.715878 249.358113 
L 332.966914 248.400536 
L 333.468987 283.390419 
L 333.971059 333.088692 
L 334.222096 321.004063 
L 334.473132 321.004063 
L 334.724169 303.805971 
L 334.975205 273.967856 
L 335.226241 264.832566 
L 335.477278 264.832566 
L 335.728314 258.340191 
L 335.97935 237.924638 
L 336.230387 246.064047 
L 336.732459 246.064047 
L 336.983496 282.566902 
L 337.234532 246.064047 
L 337.485568 230.857716 
L 337.736605 267.647844 
L 338.238677 235.990331 
L 338.489714 245.910834 
L 338.74075 245.910834 
L 338.991786 266.096569 
L 341.251113 266.096569 
L 341.753186 260.159588 
L 342.004223 262.496077 
L 342.506295 232.677113 
L 342.757332 248.477142 
L 343.008368 248.477142 
L 343.259404 211.687014 
L 343.761477 211.687014 
L 344.514586 254.356668 
L 344.765622 245.757622 
L 345.016659 245.757622 
L 345.267695 254.069395 
L 345.518731 229.229834 
L 345.769768 229.229834 
L 346.020804 188.609396 
L 346.27184 198.606505 
L 346.773913 198.606505 
L 347.024949 190.716066 
L 347.275986 190.716066 
L 347.527022 191.558734 
L 347.778058 191.558734 
L 348.029095 229.995896 
L 348.280131 191.558734 
L 348.782204 191.558734 
L 349.03324 219.098664 
L 349.284276 219.098664 
L 349.535313 210.499618 
L 350.288422 210.499618 
L 350.539458 232.313234 
L 350.790495 236.124392 
L 351.041531 215.708839 
L 351.292567 239.131186 
L 351.543604 236.794696 
L 351.79464 245.891683 
L 352.045676 274.676463 
L 352.296713 235.051905 
L 352.547749 244.74259 
L 352.798785 247.864293 
L 353.049822 247.634474 
L 353.300858 248.706961 
L 353.551894 248.706961 
L 353.802931 214.387382 
L 354.053967 219.194422 
L 354.305003 253.360787 
L 354.55604 251.29242 
L 354.807076 255.237639 
L 355.058112 245.623561 
L 355.309149 245.623561 
L 355.560185 245.910834 
L 355.811221 240.759067 
L 356.313294 246.313017 
L 356.56433 201.38348 
L 356.815367 201.38348 
L 357.066403 183.821508 
L 357.31744 183.821508 
L 357.568476 191.041643 
L 358.321585 191.041643 
L 358.572621 152.604481 
L 358.823658 152.604481 
L 359.074694 136.746997 
L 360.078839 136.746997 
L 360.329876 168.117237 
L 360.831948 168.117237 
L 361.082985 158.503158 
L 361.334021 158.503158 
L 361.585057 156.434791 
L 363.593348 156.434791 
L 363.844384 163.195288 
L 364.346457 163.195288 
L 364.597493 168.998208 
L 364.84853 151.436236 
L 365.350603 151.436236 
L 365.601639 127.611708 
L 366.354748 127.611708 
L 366.605784 150.076476 
L 367.107857 150.076476 
L 367.358893 141.47743 
L 368.614075 141.47743 
L 369.116148 200.062023 
L 369.367184 192.765282 
L 370.120293 192.765282 
L 370.371329 234.573117 
L 370.622366 227.046557 
L 370.873402 227.046557 
L 371.124438 207.760946 
L 371.375475 261.653409 
L 371.626511 261.653409 
L 371.877547 275.346767 
L 372.128584 234.726329 
L 372.630657 234.726329 
L 372.881693 205.386154 
L 373.132729 191.692795 
L 373.634802 247.442958 
L 373.885838 227.027406 
L 374.136875 239.284398 
L 374.387911 239.284398 
L 374.638947 216.819629 
L 374.889984 216.589811 
L 375.14102 216.589811 
L 375.392056 199.027839 
L 376.396202 199.027839 
L 376.647238 207.626885 
L 376.898274 207.626885 
L 377.149311 217.126054 
L 377.400347 240.5484 
L 377.651383 236.603181 
L 377.90242 236.603181 
L 378.153456 249.415568 
L 378.404492 242.118827 
L 378.655529 242.118827 
L 378.906565 246.064047 
L 379.157601 238.843912 
L 379.408638 242.482707 
L 379.659674 242.482707 
L 379.91071 232.868629 
L 380.161747 232.868629 
L 380.412783 229.746926 
L 380.66382 209.331373 
L 380.914856 218.945451 
L 381.165892 201.38348 
L 381.416929 204.869062 
L 382.170038 204.869062 
L 382.421074 235.798816 
L 382.923147 200.310993 
L 384.680401 200.310993 
L 384.931437 196.499834 
L 385.43351 196.499834 
L 385.684546 189.471215 
L 386.688692 189.471215 
L 386.939728 188.360425 
L 388.19491 188.360425 
L 388.696983 229.746926 
L 389.199055 233.021841 
L 389.701128 233.021841 
L 389.952164 223.924855 
L 391.207346 223.924855 
L 391.458382 242.386949 
L 391.960455 242.386949 
L 392.211491 241.965615 
L 392.462528 241.965615 
L 392.9646 203.451847 
L 393.717709 203.451847 
L 393.968746 192.209887 
L 394.219782 171.334697 
L 394.470818 171.334697 
L 394.721855 150.919144 
L 395.223928 150.919144 
L 395.474964 132.399595 
L 395.726 130.331228 
L 395.977037 120.008542 
L 396.479109 120.008542 
L 396.730146 154.500484 
L 398.738436 154.500484 
L 398.989473 191.060794 
L 399.742582 191.060794 
L 399.993618 191.290613 
L 400.244654 154.500484 
L 401.2488 154.500484 
L 401.499836 157.334914 
L 401.750872 128.550134 
L 403.759163 128.550134 
L 404.0102 110.375312 
L 408.528854 110.375312 
L 408.77989 119.759572 
L 411.290254 119.759572 
L 411.54129 114.454593 
L 411.792326 114.454593 
L 412.294399 131.499472 
L 413.298544 131.499472 
L 413.549581 145.824832 
L 414.30269 145.824832 
L 414.553726 136.210754 
L 414.804762 136.210754 
L 415.055799 145.824832 
L 416.059944 145.824832 
L 416.31098 128.26286 
L 416.813053 128.26286 
L 417.315126 108.019672 
L 418.821344 108.019672 
L 419.07238 120.1043 
L 419.323417 100.818689 
L 419.825489 100.818689 
L 420.076526 98.750321 
L 420.578598 98.750321 
L 420.829635 108.364399 
L 421.582744 108.364399 
L 421.83378 110.432767 
L 422.084816 94.632738 
L 425.348289 94.632738 
L 425.599325 99.592989 
L 428.611761 99.592989 
L 428.862798 117.154961 
L 429.113834 126.366857 
L 429.866943 126.366857 
L 430.117979 116.752779 
L 430.620052 116.752779 
L 430.871088 133.950871 
L 438.402179 133.950871 
L 438.653215 140.443246 
L 443.422906 140.443246 
L 443.673942 143.622404 
L 448.192596 143.564949 
L 448.443633 141.860461 
L 450.451923 141.860461 
L 450.70296 139.792094 
L 453.966432 139.792094 
L 454.217468 164.229472 
L 454.719541 164.229472 
L 454.970577 123.609034 
L 457.731977 123.609034 
L 457.983014 119.472299 
L 459.489232 119.472299 
L 459.740268 111.869133 
L 462.501668 111.869133 
L 462.752704 105.376758 
L 465.012031 105.376758 
L 465.263068 116.848536 
L 480.827321 116.848536 
L 481.078357 118.916904 
L 481.329394 109.302825 
L 491.87292 109.302825 
L 492.123956 88.887273 
L 514.717227 88.887273 
L 514.968264 98.501351 
L 516.474482 98.501351 
L 516.725518 88.887273 
L 871.690909 88.887273 
L 871.690909 88.887273 
" style="fill:none;stroke:#8dd3c7;stroke-linecap:square;stroke-width:1.5;"/>
   </g>
   <g id="line2d_13">
    <path clip-path="url(#pb167c6b698)" d="M 161.509091 326.711225 
L 162.764273 326.711225 
L 163.266345 271.30579 
L 163.517382 270.884456 
L 181.340962 270.884456 
L 181.591998 261.730015 
L 181.843035 236.411665 
L 186.361689 236.411665 
L 186.612725 232.945235 
L 192.888634 232.945235 
L 193.13967 221.952245 
L 194.896925 221.952245 
L 195.147961 220.53503 
L 212.971542 220.53503 
L 213.222578 217.145206 
L 216.48605 217.145206 
L 216.737087 208.297189 
L 241.840721 208.297189 
L 242.091757 202.398512 
L 252.133211 202.398512 
L 252.384248 193.397283 
L 252.88632 193.397283 
L 253.137357 170.760151 
L 358.321585 170.760151 
L 358.572621 152.604481 
L 358.823658 152.604481 
L 359.074694 136.746997 
L 365.350603 136.746997 
L 365.601639 127.611708 
L 395.726 127.611708 
L 395.977037 120.008542 
L 403.759163 120.008542 
L 404.0102 110.375312 
L 417.064089 110.375312 
L 417.315126 108.019672 
L 419.07238 108.019672 
L 419.323417 100.818689 
L 419.825489 100.818689 
L 420.076526 98.750321 
L 421.83378 98.750321 
L 422.084816 94.632738 
L 491.87292 94.632738 
L 492.123956 88.887273 
L 871.690909 88.887273 
L 871.690909 88.887273 
" style="fill:none;stroke:#feffb3;stroke-linecap:square;stroke-width:1.5;"/>
   </g>
   <g id="line2d_14">
    <path clip-path="url(#pb167c6b698)" d="M 161.509091 484.216975 
L 871.690909 484.232727 
L 871.690909 484.232727 
" style="fill:none;stroke:#bfbbd9;stroke-linecap:square;stroke-width:1.5;"/>
   </g>
   <g id="patch_3">
    <path d="M 126 504 
L 126 69.12 
" style="fill:none;stroke:#ffffff;stroke-linecap:square;stroke-linejoin:miter;stroke-width:0.8;"/>
   </g>
   <g id="patch_4">
    <path d="M 907.2 504 
L 907.2 69.12 
" style="fill:none;stroke:#ffffff;stroke-linecap:square;stroke-linejoin:miter;stroke-width:0.8;"/>
   </g>
   <g id="patch_5">
    <path d="M 126 504 
L 907.2 504 
" style="fill:none;stroke:#ffffff;stroke-linecap:square;stroke-linejoin:miter;stroke-width:0.8;"/>
   </g>
   <g id="patch_6">
    <path d="M 126 69.12 
L 907.2 69.12 
" style="fill:none;stroke:#ffffff;stroke-linecap:square;stroke-linejoin:miter;stroke-width:0.8;"/>
   </g>
   <g id="text_13">
    <!-- instance 26 with error 0.03207202138134757 -->
    <g style="fill:#ffffff;" transform="translate(378.046875 63.12)scale(0.12 -0.12)">
     <defs>
      <path d="M 2834 3397 
L 2834 2853 
Q 2591 2978 2328 3040 
Q 2066 3103 1784 3103 
Q 1356 3103 1142 2972 
Q 928 2841 928 2578 
Q 928 2378 1081 2264 
Q 1234 2150 1697 2047 
L 1894 2003 
Q 2506 1872 2764 1633 
Q 3022 1394 3022 966 
Q 3022 478 2636 193 
Q 2250 -91 1575 -91 
Q 1294 -91 989 -36 
Q 684 19 347 128 
L 347 722 
Q 666 556 975 473 
Q 1284 391 1588 391 
Q 1994 391 2212 530 
Q 2431 669 2431 922 
Q 2431 1156 2273 1281 
Q 2116 1406 1581 1522 
L 1381 1569 
Q 847 1681 609 1914 
Q 372 2147 372 2553 
Q 372 3047 722 3315 
Q 1072 3584 1716 3584 
Q 2034 3584 2315 3537 
Q 2597 3491 2834 3397 
z
" id="DejaVuSans-73" transform="scale(0.015625)"/>
      <path d="M 3122 3366 
L 3122 2828 
Q 2878 2963 2633 3030 
Q 2388 3097 2138 3097 
Q 1578 3097 1268 2742 
Q 959 2388 959 1747 
Q 959 1106 1268 751 
Q 1578 397 2138 397 
Q 2388 397 2633 464 
Q 2878 531 3122 666 
L 3122 134 
Q 2881 22 2623 -34 
Q 2366 -91 2075 -91 
Q 1284 -91 818 406 
Q 353 903 353 1747 
Q 353 2603 823 3093 
Q 1294 3584 2113 3584 
Q 2378 3584 2631 3529 
Q 2884 3475 3122 3366 
z
" id="DejaVuSans-63" transform="scale(0.015625)"/>
      <path id="DejaVuSans-20" transform="scale(0.015625)"/>
      <path d="M 2113 2584 
Q 1688 2584 1439 2293 
Q 1191 2003 1191 1497 
Q 1191 994 1439 701 
Q 1688 409 2113 409 
Q 2538 409 2786 701 
Q 3034 994 3034 1497 
Q 3034 2003 2786 2293 
Q 2538 2584 2113 2584 
z
M 3366 4563 
L 3366 3988 
Q 3128 4100 2886 4159 
Q 2644 4219 2406 4219 
Q 1781 4219 1451 3797 
Q 1122 3375 1075 2522 
Q 1259 2794 1537 2939 
Q 1816 3084 2150 3084 
Q 2853 3084 3261 2657 
Q 3669 2231 3669 1497 
Q 3669 778 3244 343 
Q 2819 -91 2113 -91 
Q 1303 -91 875 529 
Q 447 1150 447 2328 
Q 447 3434 972 4092 
Q 1497 4750 2381 4750 
Q 2619 4750 2861 4703 
Q 3103 4656 3366 4563 
z
" id="DejaVuSans-36" transform="scale(0.015625)"/>
      <path d="M 269 3500 
L 844 3500 
L 1563 769 
L 2278 3500 
L 2956 3500 
L 3675 769 
L 4391 3500 
L 4966 3500 
L 4050 0 
L 3372 0 
L 2619 2869 
L 1863 0 
L 1184 0 
L 269 3500 
z
" id="DejaVuSans-77" transform="scale(0.015625)"/>
      <path d="M 3513 2113 
L 3513 0 
L 2938 0 
L 2938 2094 
Q 2938 2591 2744 2837 
Q 2550 3084 2163 3084 
Q 1697 3084 1428 2787 
Q 1159 2491 1159 1978 
L 1159 0 
L 581 0 
L 581 4863 
L 1159 4863 
L 1159 2956 
Q 1366 3272 1645 3428 
Q 1925 3584 2291 3584 
Q 2894 3584 3203 3211 
Q 3513 2838 3513 2113 
z
" id="DejaVuSans-68" transform="scale(0.015625)"/>
      <path d="M 684 794 
L 1344 794 
L 1344 0 
L 684 0 
L 684 794 
z
" id="DejaVuSans-2e" transform="scale(0.015625)"/>
      <path d="M 2597 2516 
Q 3050 2419 3304 2112 
Q 3559 1806 3559 1356 
Q 3559 666 3084 287 
Q 2609 -91 1734 -91 
Q 1441 -91 1130 -33 
Q 819 25 488 141 
L 488 750 
Q 750 597 1062 519 
Q 1375 441 1716 441 
Q 2309 441 2620 675 
Q 2931 909 2931 1356 
Q 2931 1769 2642 2001 
Q 2353 2234 1838 2234 
L 1294 2234 
L 1294 2753 
L 1863 2753 
Q 2328 2753 2575 2939 
Q 2822 3125 2822 3475 
Q 2822 3834 2567 4026 
Q 2313 4219 1838 4219 
Q 1578 4219 1281 4162 
Q 984 4106 628 3988 
L 628 4550 
Q 988 4650 1302 4700 
Q 1616 4750 1894 4750 
Q 2613 4750 3031 4423 
Q 3450 4097 3450 3541 
Q 3450 3153 3228 2886 
Q 3006 2619 2597 2516 
z
" id="DejaVuSans-33" transform="scale(0.015625)"/>
      <path d="M 525 4666 
L 3525 4666 
L 3525 4397 
L 1831 0 
L 1172 0 
L 2766 4134 
L 525 4134 
L 525 4666 
z
" id="DejaVuSans-37" transform="scale(0.015625)"/>
      <path d="M 2034 2216 
Q 1584 2216 1326 1975 
Q 1069 1734 1069 1313 
Q 1069 891 1326 650 
Q 1584 409 2034 409 
Q 2484 409 2743 651 
Q 3003 894 3003 1313 
Q 3003 1734 2745 1975 
Q 2488 2216 2034 2216 
z
M 1403 2484 
Q 997 2584 770 2862 
Q 544 3141 544 3541 
Q 544 4100 942 4425 
Q 1341 4750 2034 4750 
Q 2731 4750 3128 4425 
Q 3525 4100 3525 3541 
Q 3525 3141 3298 2862 
Q 3072 2584 2669 2484 
Q 3125 2378 3379 2068 
Q 3634 1759 3634 1313 
Q 3634 634 3220 271 
Q 2806 -91 2034 -91 
Q 1263 -91 848 271 
Q 434 634 434 1313 
Q 434 1759 690 2068 
Q 947 2378 1403 2484 
z
M 1172 3481 
Q 1172 3119 1398 2916 
Q 1625 2713 2034 2713 
Q 2441 2713 2670 2916 
Q 2900 3119 2900 3481 
Q 2900 3844 2670 4047 
Q 2441 4250 2034 4250 
Q 1625 4250 1398 4047 
Q 1172 3844 1172 3481 
z
" id="DejaVuSans-38" transform="scale(0.015625)"/>
      <path d="M 2419 4116 
L 825 1625 
L 2419 1625 
L 2419 4116 
z
M 2253 4666 
L 3047 4666 
L 3047 1625 
L 3713 1625 
L 3713 1100 
L 3047 1100 
L 3047 0 
L 2419 0 
L 2419 1100 
L 313 1100 
L 313 1709 
L 2253 4666 
z
" id="DejaVuSans-34" transform="scale(0.015625)"/>
     </defs>
     <use xlink:href="#DejaVuSans-69"/>
     <use x="27.783203" xlink:href="#DejaVuSans-6e"/>
     <use x="91.162109" xlink:href="#DejaVuSans-73"/>
     <use x="143.261719" xlink:href="#DejaVuSans-74"/>
     <use x="182.470703" xlink:href="#DejaVuSans-61"/>
     <use x="243.75" xlink:href="#DejaVuSans-6e"/>
     <use x="307.128906" xlink:href="#DejaVuSans-63"/>
     <use x="362.109375" xlink:href="#DejaVuSans-65"/>
     <use x="423.632812" xlink:href="#DejaVuSans-20"/>
     <use x="455.419922" xlink:href="#DejaVuSans-32"/>
     <use x="519.042969" xlink:href="#DejaVuSans-36"/>
     <use x="582.666016" xlink:href="#DejaVuSans-20"/>
     <use x="614.453125" xlink:href="#DejaVuSans-77"/>
     <use x="696.240234" xlink:href="#DejaVuSans-69"/>
     <use x="724.023438" xlink:href="#DejaVuSans-74"/>
     <use x="763.232422" xlink:href="#DejaVuSans-68"/>
     <use x="826.611328" xlink:href="#DejaVuSans-20"/>
     <use x="858.398438" xlink:href="#DejaVuSans-65"/>
     <use x="919.921875" xlink:href="#DejaVuSans-72"/>
     <use x="959.285156" xlink:href="#DejaVuSans-72"/>
     <use x="998.148438" xlink:href="#DejaVuSans-6f"/>
     <use x="1059.330078" xlink:href="#DejaVuSans-72"/>
     <use x="1100.443359" xlink:href="#DejaVuSans-20"/>
     <use x="1132.230469" xlink:href="#DejaVuSans-30"/>
     <use x="1195.853516" xlink:href="#DejaVuSans-2e"/>
     <use x="1227.640625" xlink:href="#DejaVuSans-30"/>
     <use x="1291.263672" xlink:href="#DejaVuSans-33"/>
     <use x="1354.886719" xlink:href="#DejaVuSans-32"/>
     <use x="1418.509766" xlink:href="#DejaVuSans-30"/>
     <use x="1482.132812" xlink:href="#DejaVuSans-37"/>
     <use x="1545.755859" xlink:href="#DejaVuSans-32"/>
     <use x="1609.378906" xlink:href="#DejaVuSans-30"/>
     <use x="1673.001953" xlink:href="#DejaVuSans-32"/>
     <use x="1736.625" xlink:href="#DejaVuSans-31"/>
     <use x="1800.248047" xlink:href="#DejaVuSans-33"/>
     <use x="1863.871094" xlink:href="#DejaVuSans-38"/>
     <use x="1927.494141" xlink:href="#DejaVuSans-31"/>
     <use x="1991.117188" xlink:href="#DejaVuSans-33"/>
     <use x="2054.740234" xlink:href="#DejaVuSans-34"/>
     <use x="2118.363281" xlink:href="#DejaVuSans-37"/>
     <use x="2181.986328" xlink:href="#DejaVuSans-35"/>
     <use x="2245.609375" xlink:href="#DejaVuSans-37"/>
    </g>
   </g>
   <g id="legend_1">
    <g id="patch_7">
     <path d="M 805.348438 499 
L 900.2 499 
Q 902.2 499 902.2 497 
L 902.2 453.965625 
Q 902.2 451.965625 900.2 451.965625 
L 805.348438 451.965625 
Q 803.348438 451.965625 803.348438 453.965625 
L 803.348438 497 
Q 803.348438 499 805.348438 499 
z
" style="opacity:0.8;stroke:#cccccc;stroke-linejoin:miter;"/>
    </g>
    <g id="line2d_15">
     <path d="M 807.348438 460.064062 
L 827.348438 460.064062 
" style="fill:none;stroke:#8dd3c7;stroke-linecap:square;stroke-width:1.5;"/>
    </g>
    <g id="line2d_16"/>
    <g id="text_14">
     <!-- cost -->
     <g style="fill:#ffffff;" transform="translate(835.348438 463.564062)scale(0.1 -0.1)">
      <use xlink:href="#DejaVuSans-63"/>
      <use x="54.980469" xlink:href="#DejaVuSans-6f"/>
      <use x="116.162109" xlink:href="#DejaVuSans-73"/>
      <use x="168.261719" xlink:href="#DejaVuSans-74"/>
     </g>
    </g>
    <g id="line2d_17">
     <path d="M 807.348438 474.742188 
L 827.348438 474.742188 
" style="fill:none;stroke:#feffb3;stroke-linecap:square;stroke-width:1.5;"/>
    </g>
    <g id="line2d_18"/>
    <g id="text_15">
     <!-- best cost -->
     <g style="fill:#ffffff;" transform="translate(835.348438 478.242188)scale(0.1 -0.1)">
      <defs>
       <path d="M 3116 1747 
Q 3116 2381 2855 2742 
Q 2594 3103 2138 3103 
Q 1681 3103 1420 2742 
Q 1159 2381 1159 1747 
Q 1159 1113 1420 752 
Q 1681 391 2138 391 
Q 2594 391 2855 752 
Q 3116 1113 3116 1747 
z
M 1159 2969 
Q 1341 3281 1617 3432 
Q 1894 3584 2278 3584 
Q 2916 3584 3314 3078 
Q 3713 2572 3713 1747 
Q 3713 922 3314 415 
Q 2916 -91 2278 -91 
Q 1894 -91 1617 61 
Q 1341 213 1159 525 
L 1159 0 
L 581 0 
L 581 4863 
L 1159 4863 
L 1159 2969 
z
" id="DejaVuSans-62" transform="scale(0.015625)"/>
      </defs>
      <use xlink:href="#DejaVuSans-62"/>
      <use x="63.476562" xlink:href="#DejaVuSans-65"/>
      <use x="125" xlink:href="#DejaVuSans-73"/>
      <use x="177.099609" xlink:href="#DejaVuSans-74"/>
      <use x="216.308594" xlink:href="#DejaVuSans-20"/>
      <use x="248.095703" xlink:href="#DejaVuSans-63"/>
      <use x="303.076172" xlink:href="#DejaVuSans-6f"/>
      <use x="364.257812" xlink:href="#DejaVuSans-73"/>
      <use x="416.357422" xlink:href="#DejaVuSans-74"/>
     </g>
    </g>
    <g id="line2d_19">
     <path d="M 807.348438 489.420313 
L 827.348438 489.420313 
" style="fill:none;stroke:#bfbbd9;stroke-linecap:square;stroke-width:1.5;"/>
    </g>
    <g id="line2d_20"/>
    <g id="text_16">
     <!-- temperature -->
     <g style="fill:#ffffff;" transform="translate(835.348438 492.920313)scale(0.1 -0.1)">
      <defs>
       <path d="M 3328 2828 
Q 3544 3216 3844 3400 
Q 4144 3584 4550 3584 
Q 5097 3584 5394 3201 
Q 5691 2819 5691 2113 
L 5691 0 
L 5113 0 
L 5113 2094 
Q 5113 2597 4934 2840 
Q 4756 3084 4391 3084 
Q 3944 3084 3684 2787 
Q 3425 2491 3425 1978 
L 3425 0 
L 2847 0 
L 2847 2094 
Q 2847 2600 2669 2842 
Q 2491 3084 2119 3084 
Q 1678 3084 1418 2786 
Q 1159 2488 1159 1978 
L 1159 0 
L 581 0 
L 581 3500 
L 1159 3500 
L 1159 2956 
Q 1356 3278 1631 3431 
Q 1906 3584 2284 3584 
Q 2666 3584 2933 3390 
Q 3200 3197 3328 2828 
z
" id="DejaVuSans-6d" transform="scale(0.015625)"/>
       <path d="M 1159 525 
L 1159 -1331 
L 581 -1331 
L 581 3500 
L 1159 3500 
L 1159 2969 
Q 1341 3281 1617 3432 
Q 1894 3584 2278 3584 
Q 2916 3584 3314 3078 
Q 3713 2572 3713 1747 
Q 3713 922 3314 415 
Q 2916 -91 2278 -91 
Q 1894 -91 1617 61 
Q 1341 213 1159 525 
z
M 3116 1747 
Q 3116 2381 2855 2742 
Q 2594 3103 2138 3103 
Q 1681 3103 1420 2742 
Q 1159 2381 1159 1747 
Q 1159 1113 1420 752 
Q 1681 391 2138 391 
Q 2594 391 2855 752 
Q 3116 1113 3116 1747 
z
" id="DejaVuSans-70" transform="scale(0.015625)"/>
       <path d="M 544 1381 
L 544 3500 
L 1119 3500 
L 1119 1403 
Q 1119 906 1312 657 
Q 1506 409 1894 409 
Q 2359 409 2629 706 
Q 2900 1003 2900 1516 
L 2900 3500 
L 3475 3500 
L 3475 0 
L 2900 0 
L 2900 538 
Q 2691 219 2414 64 
Q 2138 -91 1772 -91 
Q 1169 -91 856 284 
Q 544 659 544 1381 
z
M 1991 3584 
L 1991 3584 
z
" id="DejaVuSans-75" transform="scale(0.015625)"/>
      </defs>
      <use xlink:href="#DejaVuSans-74"/>
      <use x="39.208984" xlink:href="#DejaVuSans-65"/>
      <use x="100.732422" xlink:href="#DejaVuSans-6d"/>
      <use x="198.144531" xlink:href="#DejaVuSans-70"/>
      <use x="261.621094" xlink:href="#DejaVuSans-65"/>
      <use x="323.144531" xlink:href="#DejaVuSans-72"/>
      <use x="364.257812" xlink:href="#DejaVuSans-61"/>
      <use x="425.537109" xlink:href="#DejaVuSans-74"/>
      <use x="464.746094" xlink:href="#DejaVuSans-75"/>
      <use x="528.125" xlink:href="#DejaVuSans-72"/>
      <use x="566.988281" xlink:href="#DejaVuSans-65"/>
     </g>
    </g>
   </g>
  </g>
 </g>
 <defs>
  <clipPath id="pb167c6b698">
   <rect height="434.88" width="781.2" x="126" y="69.12"/>
  </clipPath>
 </defs>
</svg>
