<?xml version="1.0" encoding="utf-8" standalone="no"?>
<!DOCTYPE svg PUBLIC "-//W3C//DTD SVG 1.1//EN"
  "http://www.w3.org/Graphics/SVG/1.1/DTD/svg11.dtd">
<svg height="576pt" version="1.1" viewBox="0 0 1008 576" width="1008pt" xmlns="http://www.w3.org/2000/svg" xmlns:xlink="http://www.w3.org/1999/xlink">
 <metadata>
  <rdf:RDF xmlns:cc="http://creativecommons.org/ns#" xmlns:dc="http://purl.org/dc/elements/1.1/" xmlns:rdf="http://www.w3.org/1999/02/22-rdf-syntax-ns#">
   <cc:Work>
    <dc:type rdf:resource="http://purl.org/dc/dcmitype/StillImage"/>
    <dc:date>2022-01-08T11:43:38.706724</dc:date>
    <dc:format>image/svg+xml</dc:format>
    <dc:creator>
     <cc:Agent>
      <dc:title>Matplotlib v3.4.3, https://matplotlib.org/</dc:title>
     </cc:Agent>
    </dc:creator>
   </cc:Work>
  </rdf:RDF>
 </metadata>
 <defs>
  <style type="text/css">*{stroke-linecap:butt;stroke-linejoin:round;}</style>
 </defs>
 <g id="figure_1">
  <g id="patch_1">
   <path d="M 0 576 
L 1008 576 
L 1008 0 
L 0 0 
z
"/>
  </g>
  <g id="axes_1">
   <g id="patch_2">
    <path d="M 126 504 
L 907.2 504 
L 907.2 69.12 
L 126 69.12 
z
"/>
   </g>
   <g id="matplotlib.axis_1">
    <g id="xtick_1">
     <g id="line2d_1">
      <defs>
       <path d="M 0 0 
L 0 3.5 
" id="m90da65af83" style="stroke:#ffffff;stroke-width:0.8;"/>
      </defs>
      <g>
       <use style="fill:#ffffff;stroke:#ffffff;stroke-width:0.8;" x="161.509091" xlink:href="#m90da65af83" y="504"/>
      </g>
     </g>
     <g id="text_1">
      <!-- 0 -->
      <g style="fill:#ffffff;" transform="translate(158.327841 518.598438)scale(0.1 -0.1)">
       <defs>
        <path d="M 2034 4250 
Q 1547 4250 1301 3770 
Q 1056 3291 1056 2328 
Q 1056 1369 1301 889 
Q 1547 409 2034 409 
Q 2525 409 2770 889 
Q 3016 1369 3016 2328 
Q 3016 3291 2770 3770 
Q 2525 4250 2034 4250 
z
M 2034 4750 
Q 2819 4750 3233 4129 
Q 3647 3509 3647 2328 
Q 3647 1150 3233 529 
Q 2819 -91 2034 -91 
Q 1250 -91 836 529 
Q 422 1150 422 2328 
Q 422 3509 836 4129 
Q 1250 4750 2034 4750 
z
" id="DejaVuSans-30" transform="scale(0.015625)"/>
       </defs>
       <use xlink:href="#DejaVuSans-30"/>
      </g>
     </g>
    </g>
    <g id="xtick_2">
     <g id="line2d_2">
      <g>
       <use style="fill:#ffffff;stroke:#ffffff;stroke-width:0.8;" x="311.368095" xlink:href="#m90da65af83" y="504"/>
      </g>
     </g>
     <g id="text_2">
      <!-- 1000 -->
      <g style="fill:#ffffff;" transform="translate(298.643095 518.598438)scale(0.1 -0.1)">
       <defs>
        <path d="M 794 531 
L 1825 531 
L 1825 4091 
L 703 3866 
L 703 4441 
L 1819 4666 
L 2450 4666 
L 2450 531 
L 3481 531 
L 3481 0 
L 794 0 
L 794 531 
z
" id="DejaVuSans-31" transform="scale(0.015625)"/>
       </defs>
       <use xlink:href="#DejaVuSans-31"/>
       <use x="63.623047" xlink:href="#DejaVuSans-30"/>
       <use x="127.246094" xlink:href="#DejaVuSans-30"/>
       <use x="190.869141" xlink:href="#DejaVuSans-30"/>
      </g>
     </g>
    </g>
    <g id="xtick_3">
     <g id="line2d_3">
      <g>
       <use style="fill:#ffffff;stroke:#ffffff;stroke-width:0.8;" x="461.227098" xlink:href="#m90da65af83" y="504"/>
      </g>
     </g>
     <g id="text_3">
      <!-- 2000 -->
      <g style="fill:#ffffff;" transform="translate(448.502098 518.598438)scale(0.1 -0.1)">
       <defs>
        <path d="M 1228 531 
L 3431 531 
L 3431 0 
L 469 0 
L 469 531 
Q 828 903 1448 1529 
Q 2069 2156 2228 2338 
Q 2531 2678 2651 2914 
Q 2772 3150 2772 3378 
Q 2772 3750 2511 3984 
Q 2250 4219 1831 4219 
Q 1534 4219 1204 4116 
Q 875 4013 500 3803 
L 500 4441 
Q 881 4594 1212 4672 
Q 1544 4750 1819 4750 
Q 2544 4750 2975 4387 
Q 3406 4025 3406 3419 
Q 3406 3131 3298 2873 
Q 3191 2616 2906 2266 
Q 2828 2175 2409 1742 
Q 1991 1309 1228 531 
z
" id="DejaVuSans-32" transform="scale(0.015625)"/>
       </defs>
       <use xlink:href="#DejaVuSans-32"/>
       <use x="63.623047" xlink:href="#DejaVuSans-30"/>
       <use x="127.246094" xlink:href="#DejaVuSans-30"/>
       <use x="190.869141" xlink:href="#DejaVuSans-30"/>
      </g>
     </g>
    </g>
    <g id="xtick_4">
     <g id="line2d_4">
      <g>
       <use style="fill:#ffffff;stroke:#ffffff;stroke-width:0.8;" x="611.086102" xlink:href="#m90da65af83" y="504"/>
      </g>
     </g>
     <g id="text_4">
      <!-- 3000 -->
      <g style="fill:#ffffff;" transform="translate(598.361102 518.598438)scale(0.1 -0.1)">
       <defs>
        <path d="M 2597 2516 
Q 3050 2419 3304 2112 
Q 3559 1806 3559 1356 
Q 3559 666 3084 287 
Q 2609 -91 1734 -91 
Q 1441 -91 1130 -33 
Q 819 25 488 141 
L 488 750 
Q 750 597 1062 519 
Q 1375 441 1716 441 
Q 2309 441 2620 675 
Q 2931 909 2931 1356 
Q 2931 1769 2642 2001 
Q 2353 2234 1838 2234 
L 1294 2234 
L 1294 2753 
L 1863 2753 
Q 2328 2753 2575 2939 
Q 2822 3125 2822 3475 
Q 2822 3834 2567 4026 
Q 2313 4219 1838 4219 
Q 1578 4219 1281 4162 
Q 984 4106 628 3988 
L 628 4550 
Q 988 4650 1302 4700 
Q 1616 4750 1894 4750 
Q 2613 4750 3031 4423 
Q 3450 4097 3450 3541 
Q 3450 3153 3228 2886 
Q 3006 2619 2597 2516 
z
" id="DejaVuSans-33" transform="scale(0.015625)"/>
       </defs>
       <use xlink:href="#DejaVuSans-33"/>
       <use x="63.623047" xlink:href="#DejaVuSans-30"/>
       <use x="127.246094" xlink:href="#DejaVuSans-30"/>
       <use x="190.869141" xlink:href="#DejaVuSans-30"/>
      </g>
     </g>
    </g>
    <g id="xtick_5">
     <g id="line2d_5">
      <g>
       <use style="fill:#ffffff;stroke:#ffffff;stroke-width:0.8;" x="760.945105" xlink:href="#m90da65af83" y="504"/>
      </g>
     </g>
     <g id="text_5">
      <!-- 4000 -->
      <g style="fill:#ffffff;" transform="translate(748.220105 518.598438)scale(0.1 -0.1)">
       <defs>
        <path d="M 2419 4116 
L 825 1625 
L 2419 1625 
L 2419 4116 
z
M 2253 4666 
L 3047 4666 
L 3047 1625 
L 3713 1625 
L 3713 1100 
L 3047 1100 
L 3047 0 
L 2419 0 
L 2419 1100 
L 313 1100 
L 313 1709 
L 2253 4666 
z
" id="DejaVuSans-34" transform="scale(0.015625)"/>
       </defs>
       <use xlink:href="#DejaVuSans-34"/>
       <use x="63.623047" xlink:href="#DejaVuSans-30"/>
       <use x="127.246094" xlink:href="#DejaVuSans-30"/>
       <use x="190.869141" xlink:href="#DejaVuSans-30"/>
      </g>
     </g>
    </g>
    <g id="text_6">
     <!-- iteration -->
     <g style="fill:#ffffff;" transform="translate(495.477344 532.276562)scale(0.1 -0.1)">
      <defs>
       <path d="M 603 3500 
L 1178 3500 
L 1178 0 
L 603 0 
L 603 3500 
z
M 603 4863 
L 1178 4863 
L 1178 4134 
L 603 4134 
L 603 4863 
z
" id="DejaVuSans-69" transform="scale(0.015625)"/>
       <path d="M 1172 4494 
L 1172 3500 
L 2356 3500 
L 2356 3053 
L 1172 3053 
L 1172 1153 
Q 1172 725 1289 603 
Q 1406 481 1766 481 
L 2356 481 
L 2356 0 
L 1766 0 
Q 1100 0 847 248 
Q 594 497 594 1153 
L 594 3053 
L 172 3053 
L 172 3500 
L 594 3500 
L 594 4494 
L 1172 4494 
z
" id="DejaVuSans-74" transform="scale(0.015625)"/>
       <path d="M 3597 1894 
L 3597 1613 
L 953 1613 
Q 991 1019 1311 708 
Q 1631 397 2203 397 
Q 2534 397 2845 478 
Q 3156 559 3463 722 
L 3463 178 
Q 3153 47 2828 -22 
Q 2503 -91 2169 -91 
Q 1331 -91 842 396 
Q 353 884 353 1716 
Q 353 2575 817 3079 
Q 1281 3584 2069 3584 
Q 2775 3584 3186 3129 
Q 3597 2675 3597 1894 
z
M 3022 2063 
Q 3016 2534 2758 2815 
Q 2500 3097 2075 3097 
Q 1594 3097 1305 2825 
Q 1016 2553 972 2059 
L 3022 2063 
z
" id="DejaVuSans-65" transform="scale(0.015625)"/>
       <path d="M 2631 2963 
Q 2534 3019 2420 3045 
Q 2306 3072 2169 3072 
Q 1681 3072 1420 2755 
Q 1159 2438 1159 1844 
L 1159 0 
L 581 0 
L 581 3500 
L 1159 3500 
L 1159 2956 
Q 1341 3275 1631 3429 
Q 1922 3584 2338 3584 
Q 2397 3584 2469 3576 
Q 2541 3569 2628 3553 
L 2631 2963 
z
" id="DejaVuSans-72" transform="scale(0.015625)"/>
       <path d="M 2194 1759 
Q 1497 1759 1228 1600 
Q 959 1441 959 1056 
Q 959 750 1161 570 
Q 1363 391 1709 391 
Q 2188 391 2477 730 
Q 2766 1069 2766 1631 
L 2766 1759 
L 2194 1759 
z
M 3341 1997 
L 3341 0 
L 2766 0 
L 2766 531 
Q 2569 213 2275 61 
Q 1981 -91 1556 -91 
Q 1019 -91 701 211 
Q 384 513 384 1019 
Q 384 1609 779 1909 
Q 1175 2209 1959 2209 
L 2766 2209 
L 2766 2266 
Q 2766 2663 2505 2880 
Q 2244 3097 1772 3097 
Q 1472 3097 1187 3025 
Q 903 2953 641 2809 
L 641 3341 
Q 956 3463 1253 3523 
Q 1550 3584 1831 3584 
Q 2591 3584 2966 3190 
Q 3341 2797 3341 1997 
z
" id="DejaVuSans-61" transform="scale(0.015625)"/>
       <path d="M 1959 3097 
Q 1497 3097 1228 2736 
Q 959 2375 959 1747 
Q 959 1119 1226 758 
Q 1494 397 1959 397 
Q 2419 397 2687 759 
Q 2956 1122 2956 1747 
Q 2956 2369 2687 2733 
Q 2419 3097 1959 3097 
z
M 1959 3584 
Q 2709 3584 3137 3096 
Q 3566 2609 3566 1747 
Q 3566 888 3137 398 
Q 2709 -91 1959 -91 
Q 1206 -91 779 398 
Q 353 888 353 1747 
Q 353 2609 779 3096 
Q 1206 3584 1959 3584 
z
" id="DejaVuSans-6f" transform="scale(0.015625)"/>
       <path d="M 3513 2113 
L 3513 0 
L 2938 0 
L 2938 2094 
Q 2938 2591 2744 2837 
Q 2550 3084 2163 3084 
Q 1697 3084 1428 2787 
Q 1159 2491 1159 1978 
L 1159 0 
L 581 0 
L 581 3500 
L 1159 3500 
L 1159 2956 
Q 1366 3272 1645 3428 
Q 1925 3584 2291 3584 
Q 2894 3584 3203 3211 
Q 3513 2838 3513 2113 
z
" id="DejaVuSans-6e" transform="scale(0.015625)"/>
      </defs>
      <use xlink:href="#DejaVuSans-69"/>
      <use x="27.783203" xlink:href="#DejaVuSans-74"/>
      <use x="66.992188" xlink:href="#DejaVuSans-65"/>
      <use x="128.515625" xlink:href="#DejaVuSans-72"/>
      <use x="169.628906" xlink:href="#DejaVuSans-61"/>
      <use x="230.908203" xlink:href="#DejaVuSans-74"/>
      <use x="270.117188" xlink:href="#DejaVuSans-69"/>
      <use x="297.900391" xlink:href="#DejaVuSans-6f"/>
      <use x="359.082031" xlink:href="#DejaVuSans-6e"/>
     </g>
    </g>
   </g>
   <g id="matplotlib.axis_2">
    <g id="ytick_1">
     <g id="line2d_6">
      <defs>
       <path d="M 0 0 
L -3.5 0 
" id="m083091f6c5" style="stroke:#ffffff;stroke-width:0.8;"/>
      </defs>
      <g>
       <use style="fill:#ffffff;stroke:#ffffff;stroke-width:0.8;" x="126" xlink:href="#m083091f6c5" y="484.232727"/>
      </g>
     </g>
     <g id="text_7">
      <!-- 0 -->
      <g style="fill:#ffffff;" transform="translate(112.6375 488.031946)scale(0.1 -0.1)">
       <use xlink:href="#DejaVuSans-30"/>
      </g>
     </g>
    </g>
    <g id="ytick_2">
     <g id="line2d_7">
      <g>
       <use style="fill:#ffffff;stroke:#ffffff;stroke-width:0.8;" x="126" xlink:href="#m083091f6c5" y="429.732389"/>
      </g>
     </g>
     <g id="text_8">
      <!-- 1000 -->
      <g style="fill:#ffffff;" transform="translate(93.55 433.531608)scale(0.1 -0.1)">
       <use xlink:href="#DejaVuSans-31"/>
       <use x="63.623047" xlink:href="#DejaVuSans-30"/>
       <use x="127.246094" xlink:href="#DejaVuSans-30"/>
       <use x="190.869141" xlink:href="#DejaVuSans-30"/>
      </g>
     </g>
    </g>
    <g id="ytick_3">
     <g id="line2d_8">
      <g>
       <use style="fill:#ffffff;stroke:#ffffff;stroke-width:0.8;" x="126" xlink:href="#m083091f6c5" y="375.232051"/>
      </g>
     </g>
     <g id="text_9">
      <!-- 2000 -->
      <g style="fill:#ffffff;" transform="translate(93.55 379.031269)scale(0.1 -0.1)">
       <use xlink:href="#DejaVuSans-32"/>
       <use x="63.623047" xlink:href="#DejaVuSans-30"/>
       <use x="127.246094" xlink:href="#DejaVuSans-30"/>
       <use x="190.869141" xlink:href="#DejaVuSans-30"/>
      </g>
     </g>
    </g>
    <g id="ytick_4">
     <g id="line2d_9">
      <g>
       <use style="fill:#ffffff;stroke:#ffffff;stroke-width:0.8;" x="126" xlink:href="#m083091f6c5" y="320.731712"/>
      </g>
     </g>
     <g id="text_10">
      <!-- 3000 -->
      <g style="fill:#ffffff;" transform="translate(93.55 324.530931)scale(0.1 -0.1)">
       <use xlink:href="#DejaVuSans-33"/>
       <use x="63.623047" xlink:href="#DejaVuSans-30"/>
       <use x="127.246094" xlink:href="#DejaVuSans-30"/>
       <use x="190.869141" xlink:href="#DejaVuSans-30"/>
      </g>
     </g>
    </g>
    <g id="ytick_5">
     <g id="line2d_10">
      <g>
       <use style="fill:#ffffff;stroke:#ffffff;stroke-width:0.8;" x="126" xlink:href="#m083091f6c5" y="266.231374"/>
      </g>
     </g>
     <g id="text_11">
      <!-- 4000 -->
      <g style="fill:#ffffff;" transform="translate(93.55 270.030593)scale(0.1 -0.1)">
       <use xlink:href="#DejaVuSans-34"/>
       <use x="63.623047" xlink:href="#DejaVuSans-30"/>
       <use x="127.246094" xlink:href="#DejaVuSans-30"/>
       <use x="190.869141" xlink:href="#DejaVuSans-30"/>
      </g>
     </g>
    </g>
    <g id="ytick_6">
     <g id="line2d_11">
      <g>
       <use style="fill:#ffffff;stroke:#ffffff;stroke-width:0.8;" x="126" xlink:href="#m083091f6c5" y="211.731035"/>
      </g>
     </g>
     <g id="text_12">
      <!-- 5000 -->
      <g style="fill:#ffffff;" transform="translate(93.55 215.530254)scale(0.1 -0.1)">
       <defs>
        <path d="M 691 4666 
L 3169 4666 
L 3169 4134 
L 1269 4134 
L 1269 2991 
Q 1406 3038 1543 3061 
Q 1681 3084 1819 3084 
Q 2600 3084 3056 2656 
Q 3513 2228 3513 1497 
Q 3513 744 3044 326 
Q 2575 -91 1722 -91 
Q 1428 -91 1123 -41 
Q 819 9 494 109 
L 494 744 
Q 775 591 1075 516 
Q 1375 441 1709 441 
Q 2250 441 2565 725 
Q 2881 1009 2881 1497 
Q 2881 1984 2565 2268 
Q 2250 2553 1709 2553 
Q 1456 2553 1204 2497 
Q 953 2441 691 2322 
L 691 4666 
z
" id="DejaVuSans-35" transform="scale(0.015625)"/>
       </defs>
       <use xlink:href="#DejaVuSans-35"/>
       <use x="63.623047" xlink:href="#DejaVuSans-30"/>
       <use x="127.246094" xlink:href="#DejaVuSans-30"/>
       <use x="190.869141" xlink:href="#DejaVuSans-30"/>
      </g>
     </g>
    </g>
    <g id="ytick_7">
     <g id="line2d_12">
      <g>
       <use style="fill:#ffffff;stroke:#ffffff;stroke-width:0.8;" x="126" xlink:href="#m083091f6c5" y="157.230697"/>
      </g>
     </g>
     <g id="text_13">
      <!-- 6000 -->
      <g style="fill:#ffffff;" transform="translate(93.55 161.029916)scale(0.1 -0.1)">
       <defs>
        <path d="M 2113 2584 
Q 1688 2584 1439 2293 
Q 1191 2003 1191 1497 
Q 1191 994 1439 701 
Q 1688 409 2113 409 
Q 2538 409 2786 701 
Q 3034 994 3034 1497 
Q 3034 2003 2786 2293 
Q 2538 2584 2113 2584 
z
M 3366 4563 
L 3366 3988 
Q 3128 4100 2886 4159 
Q 2644 4219 2406 4219 
Q 1781 4219 1451 3797 
Q 1122 3375 1075 2522 
Q 1259 2794 1537 2939 
Q 1816 3084 2150 3084 
Q 2853 3084 3261 2657 
Q 3669 2231 3669 1497 
Q 3669 778 3244 343 
Q 2819 -91 2113 -91 
Q 1303 -91 875 529 
Q 447 1150 447 2328 
Q 447 3434 972 4092 
Q 1497 4750 2381 4750 
Q 2619 4750 2861 4703 
Q 3103 4656 3366 4563 
z
" id="DejaVuSans-36" transform="scale(0.015625)"/>
       </defs>
       <use xlink:href="#DejaVuSans-36"/>
       <use x="63.623047" xlink:href="#DejaVuSans-30"/>
       <use x="127.246094" xlink:href="#DejaVuSans-30"/>
       <use x="190.869141" xlink:href="#DejaVuSans-30"/>
      </g>
     </g>
    </g>
    <g id="ytick_8">
     <g id="line2d_13">
      <g>
       <use style="fill:#ffffff;stroke:#ffffff;stroke-width:0.8;" x="126" xlink:href="#m083091f6c5" y="102.730359"/>
      </g>
     </g>
     <g id="text_14">
      <!-- 7000 -->
      <g style="fill:#ffffff;" transform="translate(93.55 106.529577)scale(0.1 -0.1)">
       <defs>
        <path d="M 525 4666 
L 3525 4666 
L 3525 4397 
L 1831 0 
L 1172 0 
L 2766 4134 
L 525 4134 
L 525 4666 
z
" id="DejaVuSans-37" transform="scale(0.015625)"/>
       </defs>
       <use xlink:href="#DejaVuSans-37"/>
       <use x="63.623047" xlink:href="#DejaVuSans-30"/>
       <use x="127.246094" xlink:href="#DejaVuSans-30"/>
       <use x="190.869141" xlink:href="#DejaVuSans-30"/>
      </g>
     </g>
    </g>
   </g>
   <g id="line2d_14">
    <path clip-path="url(#p9580af5b28)" d="M 161.509091 349.071888 
L 161.65895 234.784679 
L 161.808809 484.232727 
L 162.108527 484.232727 
L 162.258386 465.157609 
L 162.408245 404.335231 
L 162.558104 423.41035 
L 162.707963 297.569068 
L 162.857822 278.49395 
L 163.007681 297.569068 
L 163.607117 297.569068 
L 163.756976 484.232727 
L 163.906835 439.487949 
L 164.056694 482.161714 
L 164.206553 409.131261 
L 164.356412 409.131261 
L 164.506271 484.232727 
L 165.105707 484.232727 
L 165.405425 358.391446 
L 165.555284 358.391446 
L 165.705143 396.868685 
L 166.004861 396.868685 
L 166.15472 409.131261 
L 166.304579 472.842157 
L 166.454438 470.771144 
L 166.604297 482.161714 
L 166.754156 482.161714 
L 166.904015 484.232727 
L 167.053874 358.391446 
L 167.203733 356.320433 
L 167.353592 421.339337 
L 167.503451 373.815042 
L 167.65331 434.637419 
L 167.953028 434.637419 
L 168.102887 407.823253 
L 168.252746 347.000875 
L 168.402605 407.823253 
L 168.552464 407.823253 
L 168.702323 484.232727 
L 168.852182 366.293995 
L 169.002041 439.487949 
L 169.1519 439.487949 
L 169.301759 369.945518 
L 169.451618 484.232727 
L 169.601477 439.487949 
L 169.751336 461.451586 
L 169.901195 334.411297 
L 170.051054 396.868685 
L 170.200913 407.823253 
L 170.350772 407.823253 
L 170.500631 484.232727 
L 170.65049 434.637419 
L 170.800349 484.232727 
L 170.950208 369.945518 
L 171.100067 484.232727 
L 171.249926 484.232727 
L 171.399785 439.487949 
L 171.549644 439.487949 
L 171.699503 484.232727 
L 171.849362 484.232727 
L 171.999221 439.487949 
L 172.298939 439.487949 
L 172.448798 484.232727 
L 172.748516 361.116463 
L 173.048234 231.950661 
L 173.198093 231.950661 
L 173.347952 224.048112 
L 173.497811 349.889393 
L 173.64767 217.944074 
L 173.797529 421.339337 
L 173.947388 373.815042 
L 174.097247 421.339337 
L 174.247106 421.339337 
L 174.396965 439.487949 
L 174.696683 439.487949 
L 174.846542 378.665572 
L 174.996401 439.487949 
L 175.296119 409.131261 
L 175.445978 484.232727 
L 175.595837 484.232727 
L 175.745696 409.131261 
L 175.895555 456.928058 
L 176.045414 437.852939 
L 176.345132 437.852939 
L 176.64485 465.157609 
L 176.794709 420.412831 
L 176.944568 484.232727 
L 177.094427 484.232727 
L 177.244286 472.188152 
L 177.394145 472.188152 
L 177.544004 396.868685 
L 177.693863 484.232727 
L 177.843722 358.391446 
L 177.993581 484.232727 
L 178.14344 484.232727 
L 178.293299 456.928058 
L 178.443158 484.232727 
L 178.593017 409.131261 
L 178.892735 409.131261 
L 179.042594 484.232727 
L 179.192453 484.232727 
L 179.342312 409.131261 
L 179.492171 423.41035 
L 179.64203 423.41035 
L 179.791889 411.365775 
L 179.941748 484.232727 
L 180.091607 439.487949 
L 180.241466 439.487949 
L 180.391325 484.232727 
L 180.691043 366.293995 
L 180.840902 456.928058 
L 180.990761 321.767219 
L 181.14062 456.928058 
L 181.440338 484.232727 
L 181.590197 396.868685 
L 182.189633 396.868685 
L 182.339492 484.232727 
L 182.489351 407.823253 
L 182.63921 396.868685 
L 182.789069 355.502928 
L 183.238646 355.502928 
L 183.388505 396.868685 
L 183.538364 484.232727 
L 183.688223 484.232727 
L 183.987941 365.966993 
L 184.1378 323.347728 
L 184.287659 410.711771 
L 184.437518 284.87049 
L 184.587377 484.232727 
L 184.737236 482.161714 
L 185.036954 482.161714 
L 185.186813 484.232727 
L 185.336672 352.287408 
L 185.486531 352.287408 
L 185.786249 484.232727 
L 185.936109 484.232727 
L 186.085968 482.161714 
L 186.235827 482.161714 
L 186.385686 407.823253 
L 186.535545 484.232727 
L 186.685404 434.637419 
L 186.835263 472.188152 
L 186.985122 472.188152 
L 187.134981 484.232727 
L 188.034135 484.232727 
L 188.183994 396.868685 
L 188.333853 484.232727 
L 188.483712 439.487949 
L 188.633571 484.232727 
L 188.78343 461.451586 
L 188.933289 484.232727 
L 189.382866 484.232727 
L 189.532725 439.487949 
L 189.832443 439.487949 
L 189.982302 482.161714 
L 190.132161 352.287408 
L 190.581738 352.287408 
L 190.731597 472.188152 
L 190.881456 472.188152 
L 191.031315 346.346871 
L 191.181174 346.346871 
L 191.331033 484.232727 
L 191.480892 461.451586 
L 191.78061 461.451586 
L 191.930469 407.823253 
L 192.080328 484.232727 
L 192.230187 439.487949 
L 192.380046 439.487949 
L 192.529905 484.232727 
L 192.679764 484.232727 
L 192.829623 482.161714 
L 192.979482 482.161714 
L 193.129341 484.232727 
L 193.2792 484.232727 
L 193.429059 482.161714 
L 193.578918 482.161714 
L 193.728777 407.823253 
L 193.878636 484.232727 
L 194.178354 323.347728 
L 194.328213 366.293995 
L 194.77779 366.293995 
L 194.927649 484.232727 
L 195.077508 409.131261 
L 195.227367 484.232727 
L 195.527085 484.232727 
L 195.676944 369.945518 
L 195.826803 350.870399 
L 195.976662 465.157609 
L 196.27638 409.131261 
L 196.426239 409.131261 
L 196.576098 335.610305 
L 196.725957 409.131261 
L 197.025675 409.131261 
L 197.175534 461.451586 
L 197.325393 347.164376 
L 197.625111 347.164376 
L 197.77497 369.945518 
L 197.924829 484.232727 
L 198.074688 358.391446 
L 198.224547 434.637419 
L 198.674124 434.637419 
L 198.823983 484.232727 
L 198.973842 358.391446 
L 199.123701 357.192439 
L 199.27356 409.131261 
L 199.423419 409.131261 
L 199.573278 484.232727 
L 199.723137 482.161714 
L 199.872996 484.232727 
L 200.022855 484.232727 
L 200.172714 352.287408 
L 200.322573 352.287408 
L 200.472432 484.232727 
L 200.622291 369.945518 
L 200.922009 369.945518 
L 201.071868 409.131261 
L 201.221727 409.131261 
L 201.371586 484.232727 
L 201.521445 484.232727 
L 201.671304 461.451586 
L 201.971022 461.451586 
L 202.120881 420.085829 
L 202.27074 442.86697 
L 202.420599 442.86697 
L 202.570458 484.232727 
L 202.870176 398.122193 
L 203.020035 304.32711 
L 203.169894 439.487949 
L 203.319753 439.487949 
L 203.619471 324.601236 
L 203.76933 409.131261 
L 204.518625 409.131261 
L 204.668484 367.765504 
L 204.968202 484.232727 
L 205.118061 352.287408 
L 205.26792 409.131261 
L 205.417779 352.287408 
L 205.717497 352.287408 
L 205.867356 484.232727 
L 206.167074 222.031599 
L 206.316933 484.232727 
L 206.466792 410.711771 
L 206.616651 410.711771 
L 206.76651 398.667196 
L 206.916369 398.667196 
L 207.066228 472.188152 
L 207.365946 472.188152 
L 207.515805 409.131261 
L 207.815523 409.131261 
L 207.965382 484.232727 
L 208.714677 484.232727 
L 208.864536 456.928058 
L 209.014395 456.928058 
L 209.164254 434.146916 
L 209.314113 352.287408 
L 209.76369 352.287408 
L 209.913549 484.232727 
L 210.063408 357.192439 
L 210.213267 439.487949 
L 210.363126 409.131261 
L 210.512985 409.131261 
L 210.662844 484.232727 
L 210.812703 472.842157 
L 210.962562 450.061015 
L 211.112421 347.164376 
L 211.26228 350.870399 
L 211.412139 350.870399 
L 211.561998 277.349443 
L 211.711857 277.349443 
L 211.861716 365.966993 
L 212.011575 365.966993 
L 212.161434 484.232727 
L 212.311293 300.294085 
L 212.76087 484.232727 
L 212.910729 484.232727 
L 213.060588 472.842157 
L 213.510165 472.842157 
L 213.660024 347.000875 
L 213.809883 484.232727 
L 214.109601 461.451586 
L 214.25946 347.164376 
L 214.409319 369.945518 
L 214.559178 484.232727 
L 214.709037 410.711771 
L 214.858896 410.711771 
L 215.008755 408.640758 
L 215.158614 409.131261 
L 215.308473 484.232727 
L 215.458332 442.86697 
L 215.608191 484.232727 
L 215.907909 484.232727 
L 216.057768 407.823253 
L 216.357486 407.823253 
L 216.507345 484.232727 
L 216.657204 484.232727 
L 216.807063 407.823253 
L 216.956922 407.823253 
L 217.106781 423.41035 
L 217.25664 484.232727 
L 217.556358 484.232727 
L 217.706217 456.928058 
L 217.856076 409.131261 
L 218.005935 409.131261 
L 218.305653 484.232727 
L 218.455512 484.232727 
L 218.605371 472.842157 
L 218.75523 358.554947 
L 219.054948 358.554947 
L 219.204807 350.870399 
L 219.354666 350.870399 
L 219.504525 465.157609 
L 219.654384 484.232727 
L 219.954102 244.104236 
L 220.103961 472.188152 
L 220.25382 472.188152 
L 220.403679 346.346871 
L 220.553538 484.232727 
L 220.853256 484.232727 
L 221.003115 349.071888 
L 221.152974 349.071888 
L 221.302833 484.232727 
L 221.452692 484.232727 
L 221.602551 482.161714 
L 221.75241 463.086596 
L 221.902269 463.086596 
L 222.052128 329.99677 
L 222.201987 329.99677 
L 222.351846 349.071888 
L 222.501705 349.071888 
L 222.651564 484.232727 
L 222.801423 484.232727 
L 222.951282 410.711771 
L 223.101141 399.3212 
L 223.251 335.610305 
L 223.400859 409.131261 
L 223.550718 367.765504 
L 223.700577 484.232727 
L 223.850436 465.157609 
L 224.000295 463.086596 
L 224.150154 484.232727 
L 224.300013 484.232727 
L 224.449872 442.86697 
L 224.599731 484.232727 
L 224.74959 484.232727 
L 224.899449 472.842157 
L 225.049308 399.3212 
L 225.199167 484.232727 
L 225.349026 465.157609 
L 225.498885 465.157609 
L 225.648744 407.823253 
L 225.798603 434.637419 
L 225.948462 484.232727 
L 226.098321 352.287408 
L 226.24818 484.232727 
L 226.398039 349.071888 
L 226.547898 321.767219 
L 226.697757 434.637419 
L 226.997475 434.637419 
L 227.147334 484.232727 
L 227.297194 482.161714 
L 227.447053 472.188152 
L 227.596912 484.232727 
L 228.046489 484.232727 
L 228.346207 292.773039 
L 228.496066 292.773039 
L 228.645925 391.636652 
L 228.795784 391.636652 
L 228.945643 389.56564 
L 229.095502 334.302296 
L 229.245361 407.823253 
L 229.694938 407.823253 
L 229.844797 347.000875 
L 230.294374 347.000875 
L 230.444233 348.308883 
L 230.89381 348.308883 
L 231.043669 423.41035 
L 231.193528 423.41035 
L 231.343387 484.232727 
L 231.493246 484.232727 
L 231.792964 415.562301 
L 232.092682 415.562301 
L 232.242541 434.637419 
L 232.3924 482.161714 
L 232.542259 484.232727 
L 232.692118 484.232727 
L 232.991836 284.87049 
L 233.291554 484.232727 
L 233.441413 482.161714 
L 233.591272 409.131261 
L 233.89099 484.232727 
L 234.040849 409.131261 
L 234.190708 472.842157 
L 234.340567 434.637419 
L 234.490426 434.637419 
L 234.640285 472.842157 
L 234.790144 450.061015 
L 234.940003 461.451586 
L 235.089862 484.232727 
L 235.239721 461.451586 
L 235.38958 409.131261 
L 235.539439 484.232727 
L 235.839157 484.232727 
L 235.989016 482.161714 
L 236.288734 307.706131 
L 236.438593 484.232727 
L 236.588452 484.232727 
L 236.738311 456.928058 
L 236.88817 456.928058 
L 237.038029 484.232727 
L 237.187888 349.071888 
L 237.337747 484.232727 
L 237.487606 461.451586 
L 237.637465 484.232727 
L 237.787324 472.842157 
L 237.937183 472.842157 
L 238.087042 484.232727 
L 238.236901 472.842157 
L 238.686478 288.24951 
L 238.836337 349.071888 
L 238.986196 307.706131 
L 239.136055 442.86697 
L 239.285914 440.795958 
L 239.435773 484.232727 
L 239.735491 378.665572 
L 239.88535 423.41035 
L 240.035209 400.629208 
L 240.185068 396.10568 
L 240.334927 484.232727 
L 240.484786 472.188152 
L 240.634645 407.823253 
L 240.784504 484.232727 
L 240.934363 407.823253 
L 241.234081 407.823253 
L 241.38394 272.662414 
L 241.533799 349.071888 
L 241.683658 272.662414 
L 241.833517 272.662414 
L 241.983376 484.232727 
L 242.133235 358.391446 
L 242.283094 358.391446 
L 242.432953 317.025689 
L 242.582812 484.232727 
L 243.032389 484.232727 
L 243.332107 273.64342 
L 243.481966 273.64342 
L 243.631825 283.671482 
L 243.931543 396.868685 
L 244.231261 357.192439 
L 244.530979 357.192439 
L 244.680838 484.232727 
L 244.830697 434.637419 
L 244.980556 299.47658 
L 245.130415 349.071888 
L 245.280274 352.287408 
L 245.430133 358.391446 
L 245.87971 358.391446 
L 246.029569 484.232727 
L 246.329287 484.232727 
L 246.479146 442.86697 
L 246.629005 369.346014 
L 246.778864 442.86697 
L 246.928723 315.826682 
L 247.078582 396.868685 
L 247.528159 396.868685 
L 247.678018 484.232727 
L 247.827877 472.842157 
L 248.127595 472.842157 
L 248.277454 409.131261 
L 248.427313 484.232727 
L 248.727031 296.370061 
L 248.87689 222.849104 
L 249.026749 222.849104 
L 249.626185 472.842157 
L 249.776044 409.131261 
L 249.925903 484.232727 
L 250.075762 396.868685 
L 250.225621 461.451586 
L 250.37548 461.451586 
L 250.525339 334.411297 
L 250.675198 334.411297 
L 250.825057 461.451586 
L 250.974916 484.232727 
L 251.124775 482.161714 
L 251.274634 484.232727 
L 251.724211 484.232727 
L 251.87407 423.41035 
L 252.023929 412.019779 
L 252.173788 445.537487 
L 252.323647 445.537487 
L 252.473506 472.842157 
L 252.773224 292.773039 
L 252.923083 292.773039 
L 253.072942 484.232727 
L 253.222801 352.287408 
L 253.37266 484.232727 
L 253.522519 366.293995 
L 253.822237 366.293995 
L 253.972096 484.232727 
L 254.121955 465.157609 
L 254.271814 391.636652 
L 254.421673 465.157609 
L 254.721391 465.157609 
L 254.87125 453.113034 
L 255.170968 484.232727 
L 255.320827 472.842157 
L 255.620545 472.842157 
L 255.770404 431.4764 
L 255.920263 355.502928 
L 256.070122 484.232727 
L 256.219981 369.945518 
L 256.36984 369.945518 
L 256.519699 350.870399 
L 256.669558 484.232727 
L 256.969276 334.302296 
L 257.119135 484.232727 
L 257.418853 484.232727 
L 257.568712 407.823253 
L 257.718571 407.823253 
L 257.86843 484.232727 
L 258.018289 396.868685 
L 258.168148 396.868685 
L 258.318007 366.293995 
L 258.467866 484.232727 
L 258.767584 387.930629 
L 258.917443 484.232727 
L 259.067302 484.232727 
L 259.36702 431.4764 
L 259.516879 315.826682 
L 259.666738 357.192439 
L 259.816597 484.232727 
L 260.116315 484.232727 
L 260.266174 407.823253 
L 260.565892 407.823253 
L 260.715751 272.662414 
L 260.86561 272.662414 
L 261.015469 349.071888 
L 261.165328 337.681317 
L 261.315187 337.681317 
L 261.614905 484.232727 
L 261.914623 366.293995 
L 262.064482 484.232727 
L 262.214341 472.842157 
L 262.3642 472.842157 
L 262.514059 484.232727 
L 262.663918 484.232727 
L 262.813777 472.842157 
L 262.963636 409.131261 
L 263.563072 409.131261 
L 263.712931 335.610305 
L 263.86279 484.232727 
L 264.012649 358.391446 
L 264.312367 358.391446 
L 264.462226 407.823253 
L 264.911803 407.823253 
L 265.061662 439.487949 
L 265.211521 304.32711 
L 265.36138 349.071888 
L 265.511239 299.47658 
L 265.661098 484.232727 
L 265.810957 482.161714 
L 265.960816 396.868685 
L 266.110675 396.868685 
L 266.410393 484.232727 
L 266.560252 484.232727 
L 266.710111 434.637419 
L 267.009829 434.637419 
L 267.159688 484.232727 
L 267.459406 484.232727 
L 267.609265 465.157609 
L 267.759124 409.131261 
L 268.058842 409.131261 
L 268.208701 484.232727 
L 268.35856 349.071888 
L 268.508419 349.071888 
L 268.658279 409.131261 
L 268.808138 409.131261 
L 268.957997 366.293995 
L 269.107856 369.945518 
L 269.257715 484.232727 
L 269.407574 439.487949 
L 269.557433 439.487949 
L 269.707292 396.868685 
L 269.857151 484.232727 
L 270.00701 484.232727 
L 270.156869 461.451586 
L 270.306728 396.868685 
L 270.456587 484.232727 
L 270.606446 434.637419 
L 271.056023 434.637419 
L 271.205882 409.131261 
L 271.355741 409.131261 
L 271.5056 442.86697 
L 271.805318 401.010711 
L 272.105036 484.232727 
L 272.254895 484.232727 
L 272.404754 409.131261 
L 272.554613 409.131261 
L 272.704472 484.232727 
L 272.854331 434.637419 
L 273.00419 434.637419 
L 273.154049 484.232727 
L 273.303908 484.232727 
L 273.453767 434.637419 
L 273.603626 484.232727 
L 273.753485 352.287408 
L 273.903344 352.287408 
L 274.053203 484.232727 
L 274.203062 484.232727 
L 274.352921 407.823253 
L 274.652639 407.823253 
L 274.952357 484.232727 
L 275.102216 461.451586 
L 275.252075 484.232727 
L 275.401934 396.868685 
L 275.701652 484.232727 
L 275.851511 358.391446 
L 276.00137 356.320433 
L 276.151229 358.391446 
L 276.301088 331.086776 
L 276.450947 257.56582 
L 276.600806 272.825915 
L 276.750665 262.089348 
L 276.900524 273.479919 
L 277.050383 358.391446 
L 277.350101 358.391446 
L 277.649819 465.157609 
L 277.799678 404.335231 
L 277.949537 404.335231 
L 278.099396 423.41035 
L 278.249255 484.232727 
L 278.399114 484.232727 
L 278.548973 456.928058 
L 278.698832 456.928058 
L 278.848691 383.407101 
L 278.99855 383.407101 
L 279.148409 322.584724 
L 279.298268 383.407101 
L 279.448127 383.407101 
L 279.597986 364.331983 
L 279.897704 364.331983 
L 280.047563 347.218877 
L 280.197422 465.157609 
L 280.347281 484.232727 
L 280.49714 358.391446 
L 280.646999 484.232727 
L 280.796858 484.232727 
L 280.946717 409.131261 
L 281.396294 409.131261 
L 281.546153 357.192439 
L 281.845871 357.192439 
L 281.99573 484.232727 
L 282.145589 484.232727 
L 282.295448 352.287408 
L 282.445307 352.287408 
L 282.595166 357.192439 
L 282.745025 283.671482 
L 282.894884 283.671482 
L 283.044743 335.610305 
L 283.194602 335.610305 
L 283.344461 484.232727 
L 283.49432 442.86697 
L 283.644179 442.86697 
L 283.794038 484.232727 
L 283.943897 484.232727 
L 284.093756 349.071888 
L 284.243615 347.000875 
L 284.543333 465.157609 
L 284.693192 352.287408 
L 284.843051 352.287408 
L 284.99291 278.766452 
L 285.142769 278.766452 
L 285.292628 284.87049 
L 285.442487 283.671482 
L 285.592346 283.671482 
L 285.742205 484.232727 
L 286.191782 484.232727 
L 286.341641 465.157609 
L 286.4915 339.316328 
L 286.641359 347.000875 
L 286.791218 472.842157 
L 286.941077 484.232727 
L 287.090936 484.232727 
L 287.240795 407.823253 
L 287.840231 407.823253 
L 287.99009 484.232727 
L 288.289808 484.232727 
L 288.439667 434.637419 
L 288.589526 484.232727 
L 288.889244 453.767038 
L 289.188962 231.133156 
L 289.48868 456.928058 
L 289.638539 456.928058 
L 289.788398 396.10568 
L 289.938257 484.232727 
L 290.088116 366.293995 
L 290.237975 484.232727 
L 290.537693 484.232727 
L 290.687552 461.451586 
L 290.837411 461.451586 
L 290.98727 366.293995 
L 291.137129 366.293995 
L 291.286988 484.232727 
L 291.436847 461.451586 
L 291.586706 461.451586 
L 291.736565 484.232727 
L 292.186142 484.232727 
L 292.336001 465.157609 
L 292.48586 484.232727 
L 292.635719 439.487949 
L 293.235155 439.487949 
L 293.385014 420.412831 
L 293.534873 329.99677 
L 293.834591 329.99677 
L 293.98445 349.071888 
L 294.134309 326.290747 
L 294.284168 366.293995 
L 294.434027 366.293995 
L 294.583886 484.232727 
L 294.733745 410.711771 
L 294.883604 484.232727 
L 295.033463 482.161714 
L 295.183322 408.640758 
L 295.333181 482.161714 
L 295.48304 356.320433 
L 295.632899 358.391446 
L 295.782758 484.232727 
L 295.932617 484.232727 
L 296.082476 409.131261 
L 296.382194 409.131261 
L 296.532053 461.451586 
L 296.831771 461.451586 
L 296.98163 449.407011 
L 297.131489 459.380573 
L 297.281348 356.320433 
L 297.431207 470.771144 
L 297.581066 470.771144 
L 297.730925 399.3212 
L 297.880784 399.3212 
L 298.030643 484.232727 
L 298.180502 456.928058 
L 298.48022 456.928058 
L 298.630079 352.287408 
L 298.779938 358.391446 
L 298.929797 317.025689 
L 299.079656 317.025689 
L 299.229515 358.391446 
L 299.379374 347.000875 
L 299.97881 347.000875 
L 300.128669 484.232727 
L 300.278528 409.131261 
L 300.428387 484.232727 
L 300.578246 369.945518 
L 300.728105 484.232727 
L 300.877964 434.637419 
L 301.177682 434.637419 
L 301.327541 407.823253 
L 301.627259 292.93654 
L 301.777118 243.504733 
L 301.926977 358.391446 
L 302.076836 244.104236 
L 302.526413 244.104236 
L 302.676272 358.391446 
L 302.97599 358.391446 
L 303.125849 335.610305 
L 303.275708 396.868685 
L 303.425567 323.347728 
L 303.575426 410.711771 
L 303.725285 410.711771 
L 303.875144 361.116463 
L 304.025003 361.116463 
L 304.174862 484.232727 
L 304.324721 482.161714 
L 304.47458 408.640758 
L 304.774298 408.640758 
L 304.924157 484.232727 
L 305.074016 369.945518 
L 305.373734 369.945518 
L 305.523593 309.12314 
L 305.673452 369.945518 
L 305.823311 369.945518 
L 305.97317 456.928058 
L 306.123029 409.131261 
L 306.272888 409.131261 
L 306.422747 484.232727 
L 306.572606 484.232727 
L 306.722465 465.157609 
L 307.022183 465.157609 
L 307.172042 350.870399 
L 307.321901 350.870399 
L 307.47176 439.487949 
L 307.921337 439.487949 
L 308.071196 484.232727 
L 308.221055 439.487949 
L 308.370914 484.232727 
L 308.520773 484.232727 
L 308.820491 335.610305 
L 308.97035 387.930629 
L 309.270068 387.930629 
L 309.419927 407.823253 
L 309.569786 407.823253 
L 309.719645 347.000875 
L 310.468941 347.000875 
L 310.6188 484.232727 
L 310.768659 442.86697 
L 310.918518 442.86697 
L 311.068377 484.232727 
L 311.218236 358.391446 
L 311.517954 358.391446 
L 311.667813 317.025689 
L 311.817672 357.192439 
L 311.967531 484.232727 
L 312.11739 484.232727 
L 312.267249 369.945518 
L 312.417108 350.870399 
L 312.566967 420.412831 
L 312.716826 352.287408 
L 313.166403 352.287408 
L 313.316262 484.232727 
L 313.466121 349.071888 
L 313.61598 484.232727 
L 313.765839 482.161714 
L 313.915698 484.232727 
L 314.065557 410.711771 
L 314.215416 408.640758 
L 314.365275 408.640758 
L 314.515134 385.859617 
L 314.664993 385.859617 
L 314.814852 482.161714 
L 314.964711 407.823253 
L 315.11457 461.451586 
L 315.264429 396.868685 
L 315.414288 484.232727 
L 315.564147 366.293995 
L 315.714006 366.293995 
L 315.863865 484.232727 
L 316.013724 366.293995 
L 316.163583 409.131261 
L 316.313442 409.131261 
L 316.463301 366.293995 
L 316.61316 456.928058 
L 316.763019 456.928058 
L 316.912878 369.945518 
L 317.062737 484.232727 
L 317.212596 484.232727 
L 317.362455 423.41035 
L 317.512314 423.41035 
L 317.662173 305.471617 
L 318.11175 305.471617 
L 318.411468 409.131261 
L 318.711186 409.131261 
L 318.861045 335.610305 
L 319.010904 484.232727 
L 319.160763 472.842157 
L 319.310622 412.019779 
L 319.460481 412.019779 
L 319.760199 484.232727 
L 319.910058 484.232727 
L 320.059917 434.637419 
L 320.359635 434.637419 
L 320.509494 484.232727 
L 320.809212 396.868685 
L 320.959071 261.707846 
L 321.10893 349.071888 
L 321.408648 299.47658 
L 321.558507 472.188152 
L 321.858225 472.188152 
L 322.008084 484.232727 
L 322.157943 484.232727 
L 322.307802 358.391446 
L 322.457661 331.086776 
L 322.757379 456.928058 
L 323.057097 456.928058 
L 323.206956 366.293995 
L 323.356815 484.232727 
L 323.956251 484.232727 
L 324.10611 396.868685 
L 324.705546 396.868685 
L 324.855405 409.131261 
L 325.005264 321.767219 
L 325.155123 456.928058 
L 325.304982 456.928058 
L 325.454841 484.232727 
L 325.754559 336.046307 
L 325.904418 472.842157 
L 326.054277 409.131261 
L 326.353995 409.131261 
L 326.503854 482.161714 
L 326.953431 482.161714 
L 327.10329 459.380573 
L 327.253149 366.293995 
L 327.403008 484.232727 
L 327.852585 484.232727 
L 328.002444 369.945518 
L 328.302162 369.945518 
L 328.452021 484.232727 
L 328.60188 484.232727 
L 328.751739 423.41035 
L 328.901598 484.232727 
L 329.051457 396.868685 
L 329.201316 484.232727 
L 329.351175 352.287408 
L 329.501034 472.188152 
L 330.10047 472.188152 
L 330.250329 484.232727 
L 330.400188 484.232727 
L 330.550047 366.293995 
L 330.849765 352.287408 
L 330.999624 484.232727 
L 331.149483 439.487949 
L 331.748919 439.487949 
L 331.898778 396.868685 
L 332.048637 396.868685 
L 332.198496 484.232727 
L 332.797932 484.232727 
L 332.947791 409.131261 
L 333.09765 409.131261 
L 333.247509 484.232727 
L 333.397368 461.451586 
L 333.547227 484.232727 
L 333.846945 484.232727 
L 333.996804 465.157609 
L 334.146663 347.218877 
L 334.296522 409.131261 
L 334.746099 409.131261 
L 334.895958 465.157609 
L 335.045817 453.767038 
L 335.195676 357.192439 
L 335.345535 357.192439 
L 335.495394 296.370061 
L 335.645253 423.41035 
L 335.795112 296.370061 
L 335.944971 482.161714 
L 336.09483 482.161714 
L 336.244689 408.640758 
L 336.394548 408.640758 
L 336.544407 410.711771 
L 336.694266 292.773039 
L 336.844125 292.773039 
L 336.993984 366.293995 
L 337.143843 366.293995 
L 337.293702 231.133156 
L 337.59342 484.232727 
L 338.042997 484.232727 
L 338.192856 472.188152 
L 338.342715 472.188152 
L 338.492574 484.232727 
L 338.642433 482.161714 
L 338.792292 439.487949 
L 338.942151 484.232727 
L 339.541587 484.232727 
L 339.691446 407.823253 
L 339.841305 484.232727 
L 339.991164 484.232727 
L 340.141023 465.157609 
L 340.290882 423.791852 
L 340.440741 465.157609 
L 340.740459 244.104236 
L 340.890318 244.104236 
L 341.040177 484.232727 
L 341.190036 366.293995 
L 341.489754 366.293995 
L 341.639613 484.232727 
L 341.789472 484.232727 
L 341.939331 358.391446 
L 342.239049 484.232727 
L 342.388908 352.287408 
L 342.538767 465.157609 
L 342.688626 409.131261 
L 342.838485 484.232727 
L 342.988344 456.928058 
L 343.138203 407.823253 
L 343.288062 482.161714 
L 343.437921 408.640758 
L 343.737639 408.640758 
L 343.887498 410.711771 
L 344.037357 323.347728 
L 344.187216 461.451586 
L 344.337075 461.451586 
L 344.636793 366.457496 
L 344.786652 484.232727 
L 345.08637 484.232727 
L 345.236229 423.41035 
L 345.386088 484.232727 
L 345.535947 484.232727 
L 345.685806 349.071888 
L 345.835665 321.767219 
L 345.985524 223.230607 
L 346.285242 352.287408 
L 346.435101 484.232727 
L 346.734819 484.232727 
L 346.884678 472.842157 
L 347.034537 484.232727 
L 347.334255 484.232727 
L 347.484114 423.41035 
L 347.783832 423.41035 
L 347.933691 366.293995 
L 348.08355 484.232727 
L 348.233409 484.232727 
L 348.383268 465.157609 
L 348.682986 465.157609 
L 348.832845 347.218877 
L 348.982704 347.218877 
L 349.132563 366.293995 
L 349.432281 366.293995 
L 349.731999 482.161714 
L 350.481294 482.161714 
L 350.781012 400.629208 
L 350.930871 461.451586 
L 351.08073 461.451586 
L 351.230589 396.868685 
L 351.380449 484.232727 
L 351.830026 484.232727 
L 351.979885 465.157609 
L 352.129744 339.316328 
L 352.279603 484.232727 
L 352.429462 410.711771 
L 352.579321 408.640758 
L 352.72918 482.161714 
L 352.879039 482.161714 
L 353.028898 484.232727 
L 353.178757 484.232727 
L 353.328616 465.157609 
L 353.478475 484.232727 
L 353.778193 323.347728 
L 354.22777 323.347728 
L 354.377629 278.766452 
L 354.527488 410.711771 
L 354.677347 408.640758 
L 354.827206 484.232727 
L 354.977065 442.86697 
L 355.126924 484.232727 
L 355.276783 484.232727 
L 355.426642 352.287408 
L 355.576501 352.287408 
L 355.72636 472.842157 
L 355.876219 472.842157 
L 356.026078 412.019779 
L 356.175937 472.842157 
L 356.325796 472.842157 
L 356.475655 399.3212 
L 356.625514 399.3212 
L 356.775373 484.232727 
L 356.925232 409.131261 
L 357.075091 396.868685 
L 357.22495 484.232727 
L 357.374809 484.232727 
L 357.824386 365.966993 
L 357.974245 439.487949 
L 358.124104 407.823253 
L 358.273963 434.637419 
L 358.423822 484.232727 
L 358.573681 461.451586 
L 358.72354 484.232727 
L 358.873399 396.868685 
L 359.023258 439.487949 
L 359.173117 352.287408 
L 359.322976 349.071888 
L 359.622694 349.071888 
L 359.772553 299.47658 
L 360.072271 299.47658 
L 360.22213 484.232727 
L 360.371989 349.071888 
L 360.521848 484.232727 
L 360.671707 484.232727 
L 360.821566 349.071888 
L 360.971425 484.232727 
L 361.121284 484.232727 
L 361.271143 472.188152 
L 361.421002 484.232727 
L 361.570861 369.945518 
L 361.72072 439.487949 
L 361.870579 396.868685 
L 362.020438 396.868685 
L 362.170297 369.945518 
L 362.320156 369.945518 
L 362.470015 244.104236 
L 362.619874 484.232727 
L 362.769733 484.232727 
L 362.919592 349.071888 
L 363.069451 349.071888 
L 363.21931 484.232727 
L 363.369169 366.293995 
L 363.668887 366.293995 
L 363.818746 484.232727 
L 363.968605 484.232727 
L 364.118464 423.41035 
L 364.268323 309.12314 
L 364.418182 347.000875 
L 364.568041 347.000875 
L 364.7179 484.232727 
L 364.867759 358.391446 
L 365.017618 358.391446 
L 365.167477 484.232727 
L 365.317336 482.161714 
L 365.467195 440.795958 
L 365.617054 440.795958 
L 365.766913 442.86697 
L 365.916772 484.232727 
L 366.066631 484.232727 
L 366.21649 472.188152 
L 366.366349 472.188152 
L 366.516208 439.487949 
L 366.815926 439.487949 
L 367.115644 484.232727 
L 367.265503 461.451586 
L 367.415362 484.232727 
L 367.565221 472.842157 
L 367.71508 484.232727 
L 367.864939 484.232727 
L 368.014798 472.188152 
L 368.164657 346.346871 
L 368.314516 358.391446 
L 368.464375 484.232727 
L 368.764093 415.562301 
L 368.913952 442.86697 
L 369.063811 440.795958 
L 369.21367 440.795958 
L 369.363529 423.791852 
L 369.513388 442.86697 
L 369.663247 393.271663 
L 369.813106 393.271663 
L 369.962965 319.750706 
L 370.112824 442.86697 
L 370.262683 442.86697 
L 370.412542 430.822396 
L 370.562401 357.301439 
L 370.71226 398.667196 
L 370.862119 296.424561 
L 371.011978 296.424561 
L 371.311696 410.711771 
L 371.461555 296.424561 
L 371.611414 484.232727 
L 371.761273 366.293995 
L 372.060991 366.293995 
L 372.21085 484.232727 
L 373.110004 484.232727 
L 373.259863 366.293995 
L 373.559581 366.293995 
L 373.70944 357.192439 
L 373.859299 357.192439 
L 374.009158 358.391446 
L 374.159017 346.346871 
L 374.308876 484.232727 
L 374.458735 434.637419 
L 374.608594 434.637419 
L 374.758453 484.232727 
L 374.908312 396.868685 
L 375.058171 396.868685 
L 375.20803 355.502928 
L 375.357889 484.232727 
L 375.507748 484.232727 
L 375.657607 482.161714 
L 375.957325 482.161714 
L 376.107184 484.232727 
L 376.556761 484.232727 
L 376.70662 456.928058 
L 376.856479 484.232727 
L 377.006338 484.232727 
L 377.156197 358.391446 
L 377.455915 358.391446 
L 377.605774 484.232727 
L 377.755633 472.842157 
L 377.905492 484.232727 
L 378.055351 439.487949 
L 378.504928 439.487949 
L 378.654787 369.945518 
L 378.804646 407.823253 
L 378.954505 357.192439 
L 379.104364 396.868685 
L 379.254223 484.232727 
L 379.404082 410.711771 
L 379.553941 484.232727 
L 379.7038 472.842157 
L 379.853659 450.061015 
L 380.153377 296.315561 
L 380.303236 337.681317 
L 380.453095 484.232727 
L 380.602954 442.86697 
L 380.752813 369.346014 
L 380.902672 484.232727 
L 381.052531 358.391446 
L 381.20239 484.232727 
L 381.352249 472.842157 
L 381.502108 484.232727 
L 381.651967 484.232727 
L 381.951685 299.47658 
L 382.101544 299.47658 
L 382.251403 337.681317 
L 382.401262 472.842157 
L 382.551121 450.061015 
L 382.850839 450.061015 
L 383.000698 326.290747 
L 383.150557 461.451586 
L 383.300416 442.376467 
L 383.450275 442.376467 
L 383.600134 484.232727 
L 383.899852 355.502928 
L 384.049711 355.502928 
L 384.19957 484.232727 
L 384.349429 423.41035 
L 384.499288 423.41035 
L 384.649147 349.889393 
L 384.948865 484.232727 
L 385.098724 472.842157 
L 385.248583 484.232727 
L 385.398442 484.232727 
L 385.548301 352.287408 
L 385.69816 484.232727 
L 385.848019 369.945518 
L 385.997878 366.293995 
L 386.147737 461.451586 
L 386.297596 484.232727 
L 386.447455 357.192439 
L 386.597314 484.232727 
L 386.747173 484.232727 
L 386.897032 352.287408 
L 387.046891 352.287408 
L 387.346609 369.945518 
L 387.646327 369.945518 
L 387.796186 484.232727 
L 387.946045 409.131261 
L 388.095904 484.232727 
L 388.245763 439.487949 
L 388.545481 439.487949 
L 388.69534 365.966993 
L 388.845199 365.966993 
L 388.995058 484.232727 
L 389.294776 439.487949 
L 389.444635 484.232727 
L 389.744353 484.232727 
L 390.044071 442.376467 
L 390.343789 366.293995 
L 390.493648 396.868685 
L 390.643507 396.868685 
L 390.793366 484.232727 
L 390.943225 434.637419 
L 391.392802 434.637419 
L 391.542661 366.293995 
L 391.69252 366.293995 
L 391.842379 484.232727 
L 391.992238 423.41035 
L 392.142097 423.41035 
L 392.291956 378.665572 
L 392.441815 410.711771 
L 392.591674 484.232727 
L 392.741534 472.188152 
L 392.891393 321.767219 
L 393.041252 321.767219 
L 393.191111 349.071888 
L 393.34097 272.662414 
L 393.490829 366.293995 
L 393.640688 366.293995 
L 393.790547 396.868685 
L 393.940406 482.161714 
L 394.090265 482.161714 
L 394.389983 379.97358 
L 394.539842 470.771144 
L 394.689701 412.019779 
L 394.83956 309.12314 
L 394.989419 309.12314 
L 395.139278 296.370061 
L 395.588855 484.232727 
L 395.888573 369.945518 
L 396.038432 347.164376 
L 396.188291 484.232727 
L 396.33815 456.928058 
L 396.637868 456.928058 
L 396.787727 484.232727 
L 397.087445 398.122193 
L 397.237304 442.86697 
L 397.387163 369.346014 
L 397.537022 442.86697 
L 397.686881 307.706131 
L 397.83674 349.071888 
L 397.986599 326.290747 
L 398.286317 484.232727 
L 398.436176 484.232727 
L 398.586035 461.451586 
L 398.735894 484.232727 
L 399.035612 355.502928 
L 399.185471 442.86697 
L 399.485189 366.457496 
L 399.635048 407.823253 
L 399.784907 484.232727 
L 399.934766 407.823253 
L 400.084625 484.232727 
L 400.234484 484.232727 
L 400.384343 472.842157 
L 400.534202 347.000875 
L 400.684061 453.767038 
L 400.983779 244.104236 
L 401.283497 244.104236 
L 401.433356 358.554947 
L 401.583215 369.945518 
L 401.733074 366.293995 
L 401.882933 352.287408 
L 402.032792 352.287408 
L 402.182651 484.232727 
L 402.33251 410.711771 
L 402.482369 484.232727 
L 402.632228 484.232727 
L 402.931946 223.230607 
L 403.081805 409.131261 
L 403.231664 423.41035 
L 403.381523 400.629208 
L 403.531382 434.146916 
L 403.681241 321.767219 
L 403.8311 461.451586 
L 404.130818 461.451586 
L 404.280677 420.085829 
L 404.430536 315.826682 
L 404.580395 338.11732 
L 404.730254 465.157609 
L 404.880113 465.157609 
L 405.029972 352.287408 
L 405.179831 484.232727 
L 405.32969 484.232727 
L 405.479549 366.293995 
L 405.629408 396.868685 
L 405.929126 484.232727 
L 406.078985 484.232727 
L 406.228844 409.131261 
L 406.378703 407.823253 
L 406.528562 409.131261 
L 406.678421 484.232727 
L 406.82828 484.232727 
L 407.127998 378.665572 
L 407.277857 484.232727 
L 407.577575 484.232727 
L 407.877293 307.706131 
L 408.027152 307.706131 
L 408.177011 246.883754 
L 408.626588 349.071888 
L 408.776447 484.232727 
L 409.076165 352.287408 
L 409.226024 484.232727 
L 409.375883 482.161714 
L 409.525742 484.232727 
L 409.675601 410.711771 
L 409.82546 484.232727 
L 409.975319 456.928058 
L 410.125178 456.928058 
L 410.275037 484.232727 
L 410.424896 484.232727 
L 410.574755 423.41035 
L 410.724614 296.370061 
L 411.024332 296.370061 
L 411.174191 484.232727 
L 411.32405 410.711771 
L 411.473909 275.550932 
L 411.623768 256.475813 
L 411.773627 195.653436 
L 412.223204 412.019779 
L 412.373063 412.019779 
L 412.522922 472.842157 
L 412.672781 472.842157 
L 412.82264 407.823253 
L 412.972499 407.823253 
L 413.122358 484.232727 
L 413.272217 484.232727 
L 413.571935 439.487949 
L 413.721794 434.637419 
L 413.871653 484.232727 
L 414.021512 456.928058 
L 414.171371 472.188152 
L 414.471089 366.293995 
L 414.770807 366.293995 
L 414.920666 407.823253 
L 415.070525 407.823253 
L 415.220384 484.232727 
L 415.370243 434.637419 
L 415.669961 434.637419 
L 415.81982 484.232727 
L 415.969679 484.232727 
L 416.119538 407.823253 
L 416.269397 484.232727 
L 416.419256 349.071888 
L 416.569115 484.232727 
L 416.718974 484.232727 
L 417.018692 398.122193 
L 417.168551 304.32711 
L 417.31841 304.32711 
L 417.468269 349.071888 
L 417.618128 321.767219 
L 417.767987 484.232727 
L 417.917846 484.232727 
L 418.067705 472.842157 
L 418.217564 482.161714 
L 418.367423 482.161714 
L 418.517282 484.232727 
L 418.667141 409.131261 
L 418.817 484.232727 
L 418.966859 484.232727 
L 419.116718 407.823253 
L 419.266577 484.232727 
L 419.416436 484.232727 
L 419.566295 461.451586 
L 419.716154 420.085829 
L 419.866013 420.085829 
L 420.015872 324.928238 
L 420.165731 366.293995 
L 420.615308 366.293995 
L 420.765167 409.131261 
L 421.214744 409.131261 
L 421.364603 484.232727 
L 421.514462 357.192439 
L 421.664321 357.192439 
L 421.81418 484.232727 
L 421.964039 484.232727 
L 422.113898 369.945518 
L 422.263757 484.232727 
L 422.413616 409.131261 
L 422.563475 484.232727 
L 422.713334 352.287408 
L 422.863193 484.232727 
L 423.013052 484.232727 
L 423.162911 357.192439 
L 423.462629 357.192439 
L 423.612488 456.928058 
L 423.762347 456.928058 
L 423.912206 484.232727 
L 424.062065 461.451586 
L 424.211924 420.085829 
L 424.361783 484.232727 
L 424.511642 465.157609 
L 424.661501 465.157609 
L 424.81136 484.232727 
L 424.961219 409.131261 
L 425.111078 484.232727 
L 425.260937 461.451586 
L 425.410796 461.451586 
L 425.560655 434.146916 
L 425.710514 434.146916 
L 425.860373 456.928058 
L 426.010232 439.487949 
L 426.160091 378.665572 
L 426.459809 378.665572 
L 426.609668 484.232727 
L 426.759527 484.232727 
L 426.909386 357.192439 
L 427.059245 357.192439 
L 427.209104 484.232727 
L 427.358963 484.232727 
L 427.508822 407.823253 
L 427.658681 407.823253 
L 427.80854 482.161714 
L 427.958399 434.637419 
L 428.108258 299.47658 
L 428.258117 299.47658 
L 428.557835 157.612199 
L 428.857553 317.025689 
L 429.157271 407.823253 
L 429.30713 484.232727 
L 429.456989 484.232727 
L 429.756707 336.046307 
L 429.906566 396.868685 
L 430.056425 396.868685 
L 430.206284 484.232727 
L 430.356143 442.86697 
L 430.506002 484.232727 
L 431.105438 484.232727 
L 431.255297 465.157609 
L 431.405156 423.791852 
L 431.704874 484.232727 
L 431.854733 484.232727 
L 432.004592 423.41035 
L 432.154451 309.12314 
L 432.30431 472.842157 
L 432.454169 347.000875 
L 432.604028 472.842157 
L 432.753887 445.537487 
L 432.903746 456.928058 
L 433.053605 415.562301 
L 433.203464 442.86697 
L 433.353323 442.86697 
L 433.503182 430.822396 
L 433.653041 430.822396 
L 433.8029 442.86697 
L 434.102619 442.86697 
L 434.252478 369.346014 
L 434.402337 357.955443 
L 434.552196 399.3212 
L 434.702055 399.3212 
L 434.851914 484.232727 
L 435.001773 366.293995 
L 435.45135 366.293995 
L 435.601209 484.232727 
L 435.751068 434.637419 
L 436.050786 434.637419 
L 436.200645 366.293995 
L 436.350504 472.188152 
L 436.500363 369.945518 
L 436.650222 396.868685 
L 436.94994 396.868685 
L 437.099799 409.131261 
L 437.399517 409.131261 
L 437.549376 456.928058 
L 437.699235 456.928058 
L 437.849094 445.537487 
L 437.998953 411.365775 
L 438.298671 411.365775 
L 438.44853 409.131261 
L 438.598389 352.287408 
L 438.898107 352.287408 
L 439.047966 484.232727 
L 439.197825 472.188152 
L 439.347684 484.232727 
L 439.94712 484.232727 
L 440.096979 439.487949 
L 440.246838 439.487949 
L 440.396697 482.161714 
L 440.546556 482.161714 
L 440.696415 484.232727 
L 440.846274 352.287408 
L 440.996133 352.287408 
L 441.145992 310.921651 
L 441.295851 352.287408 
L 441.595569 352.287408 
L 441.745428 484.232727 
L 442.045146 484.232727 
L 442.195005 410.711771 
L 442.344864 410.711771 
L 442.644582 372.016531 
L 442.794441 456.928058 
L 442.9443 357.192439 
L 443.094159 484.232727 
L 443.244018 349.071888 
L 443.393877 347.000875 
L 443.543736 347.000875 
L 443.693595 484.232727 
L 443.843454 482.161714 
L 443.993313 347.000875 
L 444.143172 349.071888 
L 444.293031 307.706131 
L 444.44289 222.031599 
L 444.592749 484.232727 
L 444.742608 358.391446 
L 444.892467 358.391446 
L 445.042326 484.232727 
L 445.342044 484.232727 
L 445.491903 366.293995 
L 445.791621 366.293995 
L 445.94148 439.487949 
L 446.091339 358.391446 
L 446.241198 358.391446 
L 446.391057 484.232727 
L 446.540916 482.161714 
L 446.840634 482.161714 
L 446.990493 459.380573 
L 447.140352 484.232727 
L 447.290211 482.161714 
L 447.44007 482.161714 
L 447.589929 357.192439 
L 447.739788 484.232727 
L 447.889647 349.071888 
L 448.039506 347.000875 
L 448.189365 321.767219 
L 448.339224 349.071888 
L 448.489083 222.031599 
L 448.788801 222.031599 
L 448.93866 357.192439 
L 449.088519 334.411297 
L 449.388237 472.842157 
L 449.687955 472.842157 
L 449.837814 337.681317 
L 449.987673 337.681317 
L 450.137532 472.842157 
L 450.287391 366.293995 
L 450.43725 366.293995 
L 450.587109 231.133156 
L 450.736968 349.071888 
L 450.886827 326.290747 
L 451.036686 326.290747 
L 451.186545 252.76979 
L 451.336404 368.855511 
L 451.636122 368.855511 
L 451.785981 410.711771 
L 451.93584 410.711771 
L 452.235558 357.955443 
L 452.535276 484.232727 
L 452.685135 482.161714 
L 452.834994 482.161714 
L 452.984853 347.000875 
L 453.134712 349.071888 
L 453.284571 275.550932 
L 453.43443 275.550932 
L 453.584289 252.76979 
L 453.734148 191.947413 
L 453.884007 211.404033 
L 454.033866 387.930629 
L 454.183725 327.108252 
L 454.333584 322.584724 
L 454.483443 349.889393 
L 454.633302 484.232727 
L 455.082879 484.232727 
L 455.232738 472.188152 
L 455.382597 482.161714 
L 455.682315 275.550932 
L 455.982033 275.550932 
L 456.131892 157.612199 
L 456.281751 157.612199 
L 456.43161 409.131261 
L 456.581469 409.131261 
L 456.731328 484.232727 
L 456.881187 465.157609 
L 457.031046 329.99677 
L 457.180905 349.071888 
L 457.330764 349.071888 
L 457.480623 484.232727 
L 457.630482 439.487949 
L 457.780341 439.487949 
L 458.080059 222.031599 
L 458.229918 222.031599 
L 458.529636 484.232727 
L 458.679495 423.41035 
L 458.829354 309.12314 
L 459.129072 484.232727 
L 459.42879 484.232727 
L 459.578649 434.637419 
L 460.178085 434.637419 
L 460.327944 484.232727 
L 460.777521 365.966993 
L 461.077239 484.232727 
L 461.227098 461.451586 
L 461.376957 461.451586 
L 461.526816 450.061015 
L 461.676675 376.540059 
L 461.826534 376.540059 
L 461.976393 484.232727 
L 462.126252 484.232727 
L 462.276111 461.451586 
L 462.42597 484.232727 
L 462.575829 357.192439 
L 462.725688 357.192439 
L 462.875547 296.370061 
L 463.025406 291.46503 
L 463.175265 291.46503 
L 463.325124 484.232727 
L 463.474983 358.391446 
L 463.624842 439.487949 
L 463.774701 420.412831 
L 463.92456 484.232727 
L 464.074419 461.451586 
L 464.224278 352.287408 
L 464.523996 352.287408 
L 464.673855 484.232727 
L 464.823714 396.868685 
L 464.973573 484.232727 
L 465.273291 335.610305 
L 465.42315 484.232727 
L 465.573009 461.451586 
L 466.022586 461.451586 
L 466.172445 400.629208 
L 466.322304 423.41035 
L 466.472163 309.12314 
L 467.071599 309.12314 
L 467.221458 235.602184 
L 467.371317 277.349443 
L 467.671035 442.86697 
L 467.820894 415.562301 
L 467.970753 409.131261 
L 468.120612 409.131261 
L 468.270471 461.451586 
L 468.42033 387.930629 
L 468.570189 461.451586 
L 468.720048 461.451586 
L 468.869907 484.232727 
L 469.019766 456.928058 
L 469.169625 456.928058 
L 469.319484 434.146916 
L 469.469343 321.767219 
L 469.619202 456.928058 
L 469.769061 352.287408 
L 470.068779 352.287408 
L 470.218638 484.232727 
L 470.368497 366.293995 
L 470.518356 484.232727 
L 470.668215 357.192439 
L 470.818074 472.188152 
L 470.967933 430.822396 
L 471.117792 430.822396 
L 471.267651 442.86697 
L 471.41751 442.86697 
L 471.567369 484.232727 
L 471.717228 484.232727 
L 471.867087 349.071888 
L 472.016946 349.071888 
L 472.166805 337.681317 
L 472.316664 349.071888 
L 472.616382 456.928058 
L 472.766241 484.232727 
L 472.9161 357.192439 
L 473.215818 357.192439 
L 473.365677 484.232727 
L 473.515536 482.161714 
L 473.665395 482.161714 
L 473.815254 396.868685 
L 474.41469 396.868685 
L 474.564549 484.232727 
L 474.714408 482.161714 
L 474.864267 356.320433 
L 475.014126 356.320433 
L 475.163985 339.316328 
L 475.313845 350.870399 
L 475.463704 350.870399 
L 475.613563 442.376467 
L 475.763422 434.146916 
L 475.913281 456.928058 
L 476.06314 437.852939 
L 476.212999 456.928058 
L 476.362858 456.928058 
L 476.512717 407.823253 
L 476.662576 407.823253 
L 476.962294 484.232727 
L 477.262012 434.637419 
L 477.411871 369.945518 
L 477.711589 369.945518 
L 477.861448 296.424561 
L 478.011307 292.773039 
L 478.161166 366.293995 
L 478.311025 324.928238 
L 478.460884 456.928058 
L 478.610743 456.928058 
L 478.760602 369.945518 
L 478.910461 369.945518 
L 479.06032 484.232727 
L 479.210179 366.293995 
L 479.360038 366.293995 
L 479.509897 472.842157 
L 479.659756 409.131261 
L 479.809615 484.232727 
L 479.959474 352.287408 
L 480.259192 352.287408 
L 480.409051 461.451586 
L 480.55891 334.411297 
L 480.708769 334.411297 
L 480.858628 461.451586 
L 481.008487 434.637419 
L 481.158346 484.232727 
L 481.308205 369.945518 
L 481.458064 369.945518 
L 481.607923 484.232727 
L 481.757782 484.232727 
L 481.907641 352.287408 
L 482.0575 484.232727 
L 482.357218 223.230607 
L 482.507077 223.230607 
L 482.656936 358.391446 
L 482.806795 357.192439 
L 482.956654 315.826682 
L 483.106513 396.868685 
L 483.256372 357.192439 
L 483.406231 366.293995 
L 483.55609 352.287408 
L 483.705949 482.161714 
L 484.005667 482.161714 
L 484.155526 366.293995 
L 484.305385 409.131261 
L 484.455244 484.232727 
L 484.605103 396.868685 
L 484.754962 396.868685 
L 484.904821 484.232727 
L 485.05468 484.232727 
L 485.204539 465.157609 
L 485.354398 350.870399 
L 485.504257 350.870399 
L 485.654116 369.945518 
L 485.803975 347.164376 
L 485.953834 461.451586 
L 486.103693 400.629208 
L 486.253552 411.365775 
L 486.403411 484.232727 
L 486.703129 361.116463 
L 486.852988 361.116463 
L 487.002847 319.750706 
L 487.302565 319.750706 
L 487.452424 484.232727 
L 487.602283 357.192439 
L 487.752142 357.192439 
L 487.902001 484.232727 
L 488.501437 484.232727 
L 488.801155 231.133156 
L 488.951014 349.071888 
L 489.100873 307.706131 
L 489.400591 307.706131 
L 489.55045 349.071888 
L 489.700309 234.784679 
L 489.850168 349.071888 
L 490.149886 284.92499 
L 490.449604 430.822396 
L 490.599463 430.822396 
L 490.749322 472.188152 
L 490.899181 449.407011 
L 491.04904 335.610305 
L 491.198899 358.391446 
L 491.498617 358.391446 
L 491.648476 366.293995 
L 491.798335 484.232727 
L 491.948194 484.232727 
L 492.098053 465.157609 
L 492.247912 484.232727 
L 492.397771 409.131261 
L 492.54763 484.232727 
L 492.697489 366.293995 
L 492.847348 357.192439 
L 493.147066 357.192439 
L 493.296925 352.287408 
L 493.596643 352.287408 
L 493.746502 484.232727 
L 493.896361 484.232727 
L 494.04622 439.487949 
L 494.196079 484.232727 
L 494.645656 335.610305 
L 494.795515 410.711771 
L 494.945374 335.610305 
L 495.245092 335.610305 
L 495.394951 409.131261 
L 495.694669 409.131261 
L 495.844528 461.451586 
L 495.994387 459.380573 
L 496.144246 459.380573 
L 496.294105 484.232727 
L 496.593823 404.335231 
L 496.743682 484.232727 
L 496.893541 484.232727 
L 497.0434 349.071888 
L 497.193259 349.071888 
L 497.343118 484.232727 
L 497.492977 472.842157 
L 497.642836 484.232727 
L 497.792695 484.232727 
L 497.942554 472.188152 
L 498.092413 484.232727 
L 498.242272 484.232727 
L 498.392131 369.945518 
L 498.54199 369.945518 
L 498.691849 328.579761 
L 498.841708 407.823253 
L 498.991567 407.823253 
L 499.141426 366.457496 
L 499.291285 407.823253 
L 499.441144 484.232727 
L 499.591003 357.192439 
L 499.740862 484.232727 
L 499.890721 484.232727 
L 500.04058 482.161714 
L 500.190439 484.232727 
L 500.789875 484.232727 
L 500.939734 358.391446 
L 501.089593 331.086776 
L 501.239452 357.192439 
L 501.389311 357.192439 
L 501.689029 242.305725 
L 501.988747 472.842157 
L 502.138606 450.061015 
L 502.288465 461.451586 
L 502.438324 484.232727 
L 502.588183 482.161714 
L 502.738042 421.339337 
L 502.887901 484.232727 
L 503.03776 484.232727 
L 503.187619 409.131261 
L 503.337478 409.131261 
L 503.487337 484.232727 
L 503.787055 484.232727 
L 504.086773 292.773039 
L 504.236632 366.293995 
L 504.386491 366.293995 
L 504.53635 484.232727 
L 504.836068 283.671482 
L 505.285645 484.232727 
L 505.585363 272.662414 
L 505.735222 272.662414 
L 505.885081 349.071888 
L 506.334658 349.071888 
L 506.484517 223.230607 
L 506.634376 223.230607 
L 506.934094 108.343894 
L 507.083953 108.343894 
L 507.383671 284.87049 
L 507.53353 284.87049 
L 507.683389 282.799477 
L 507.833248 482.161714 
L 507.983107 482.161714 
L 508.132966 440.795958 
L 508.282825 440.795958 
L 508.432684 442.86697 
L 508.582543 382.044593 
L 508.732402 379.97358 
L 508.882261 379.97358 
L 509.03212 482.161714 
L 509.181979 434.637419 
L 509.331838 484.232727 
L 509.481697 484.232727 
L 509.631556 352.287408 
L 509.781415 349.071888 
L 509.931274 307.706131 
L 510.081133 307.706131 
L 510.230992 367.765504 
L 510.380851 484.232727 
L 510.53071 456.928058 
L 510.830428 456.928058 
L 510.980287 437.852939 
L 511.130146 437.852939 
L 511.280005 331.086776 
L 511.429864 331.086776 
L 511.579723 366.293995 
L 511.729582 484.232727 
L 511.879441 434.637419 
L 512.0293 434.637419 
L 512.179159 461.451586 
L 512.329018 461.451586 
L 512.478877 347.164376 
L 512.628736 369.945518 
L 512.778595 369.945518 
L 512.928454 484.232727 
L 513.078313 349.071888 
L 513.378031 349.071888 
L 513.52789 484.232727 
L 513.677749 484.232727 
L 513.827608 407.823253 
L 514.277185 407.823253 
L 514.427044 366.457496 
L 514.576903 366.457496 
L 514.876621 465.157609 
L 515.02648 415.562301 
L 515.176339 415.562301 
L 515.326198 434.637419 
L 515.476057 434.637419 
L 515.925634 235.602184 
L 516.075493 296.424561 
L 516.225352 161.263722 
L 516.375211 275.550932 
L 516.52507 275.550932 
L 516.67493 263.506357 
L 516.974648 263.506357 
L 517.124507 149.70965 
L 517.274366 358.391446 
L 517.424225 407.823253 
L 517.574084 352.287408 
L 517.723943 352.287408 
L 517.873802 484.232727 
L 518.023661 472.188152 
L 518.17352 352.287408 
L 518.323379 439.487949 
L 518.473238 439.487949 
L 518.772956 335.610305 
L 519.072674 217.944074 
L 519.222533 349.889393 
L 519.372392 273.479919 
L 519.522251 273.479919 
L 519.67211 423.41035 
L 519.971828 423.41035 
L 520.121687 400.629208 
L 520.271546 400.629208 
L 520.421405 421.339337 
L 520.721123 484.232727 
L 521.020841 484.232727 
L 521.620277 224.048112 
L 521.770136 297.569068 
L 521.919995 297.569068 
L 522.069854 411.365775 
L 522.219713 411.365775 
L 522.369572 276.204936 
L 522.519431 276.204936 
L 522.66929 337.027313 
L 522.819149 337.027313 
L 522.969008 321.767219 
L 523.868162 321.767219 
L 524.018021 349.071888 
L 524.16788 321.767219 
L 524.317739 321.767219 
L 524.467598 307.706131 
L 524.617457 307.706131 
L 524.767316 442.86697 
L 524.917175 366.457496 
L 525.216893 461.451586 
L 525.516611 359.263451 
L 525.66647 359.263451 
L 525.966188 434.637419 
L 526.116047 434.637419 
L 526.265906 484.232727 
L 526.415765 357.192439 
L 526.865342 357.192439 
L 527.015201 338.11732 
L 527.16506 357.192439 
L 527.314919 439.487949 
L 527.464778 409.131261 
L 527.614637 423.41035 
L 527.764496 305.471617 
L 527.914355 348.308883 
L 528.363932 348.308883 
L 528.513791 288.24951 
L 528.66365 349.071888 
L 528.813509 304.32711 
L 528.963368 347.000875 
L 529.113227 347.000875 
L 529.263086 326.290747 
L 529.412945 349.071888 
L 529.562804 349.071888 
L 529.712663 484.232727 
L 530.012381 449.407011 
L 530.16224 461.451586 
L 530.611817 461.451586 
L 530.761676 347.164376 
L 531.061394 347.164376 
L 531.211253 420.085829 
L 531.361112 401.010711 
L 531.510971 346.564873 
L 531.66083 346.564873 
L 531.810689 242.305725 
L 531.960548 242.305725 
L 532.260266 410.711771 
L 532.410125 410.711771 
L 532.709843 368.855511 
L 533.009561 368.855511 
L 533.15942 391.636652 
L 533.608997 391.636652 
L 533.758856 256.475813 
L 533.908715 256.475813 
L 534.058574 326.290747 
L 534.208433 326.290747 
L 534.358292 461.451586 
L 534.508151 366.293995 
L 536.006741 366.293995 
L 536.1566 472.188152 
L 536.306459 472.188152 
L 536.456318 482.161714 
L 536.756036 383.407101 
L 536.905895 335.610305 
L 537.205613 335.610305 
L 537.355472 274.787927 
L 537.805049 484.232727 
L 537.954908 439.487949 
L 538.104767 439.487949 
L 538.254626 396.868685 
L 538.404485 396.868685 
L 538.554344 409.131261 
L 538.704203 366.293995 
L 539.15378 366.293995 
L 539.303639 484.232727 
L 539.453498 465.157609 
L 539.753216 465.157609 
L 539.903075 484.232727 
L 540.052934 349.071888 
L 540.202793 321.767219 
L 540.352652 321.767219 
L 540.502511 347.000875 
L 540.65237 347.000875 
L 540.802229 352.287408 
L 540.952088 352.287408 
L 541.101947 291.46503 
L 541.401665 291.46503 
L 541.551524 423.41035 
L 542.001101 231.950661 
L 542.15096 231.950661 
L 542.300819 472.842157 
L 542.450678 472.842157 
L 542.600537 412.019779 
L 542.750396 412.019779 
L 542.900255 291.46503 
L 543.050114 352.287408 
L 543.64955 352.287408 
L 543.799409 484.232727 
L 544.099127 484.232727 
L 544.398845 323.347728 
L 544.548704 410.711771 
L 544.698563 398.667196 
L 544.998281 296.479062 
L 545.14814 190.584904 
L 545.297999 190.584904 
L 545.597717 396.868685 
L 546.047294 396.868685 
L 546.197153 484.232727 
L 546.496871 409.131261 
L 546.796589 409.131261 
L 546.946448 396.868685 
L 547.545884 396.868685 
L 547.695743 484.232727 
L 547.845602 484.232727 
L 547.995461 349.071888 
L 548.14532 349.071888 
L 548.295179 231.133156 
L 548.445038 231.133156 
L 548.594897 349.071888 
L 548.894615 261.707846 
L 549.044474 261.707846 
L 549.344192 484.232727 
L 549.494051 434.637419 
L 549.64391 484.232727 
L 549.793769 484.232727 
L 549.943628 472.842157 
L 550.093487 352.287408 
L 550.992641 352.287408 
L 551.1425 484.232727 
L 551.292359 366.293995 
L 551.442218 366.293995 
L 551.741936 456.928058 
L 552.041654 456.928058 
L 552.191513 484.232727 
L 552.341372 369.945518 
L 553.090667 369.945518 
L 553.240526 296.424561 
L 553.390385 472.188152 
L 553.540244 411.365775 
L 553.690103 453.113034 
L 553.839962 453.113034 
L 553.989821 472.188152 
L 554.13968 472.188152 
L 554.289539 484.232727 
L 554.439398 484.232727 
L 554.589257 369.945518 
L 554.739116 347.164376 
L 554.888975 461.451586 
L 555.038834 347.164376 
L 555.188693 347.164376 
L 555.338552 352.287408 
L 555.63827 352.287408 
L 555.788129 484.232727 
L 556.387565 484.232727 
L 556.537424 442.86697 
L 556.687283 484.232727 
L 556.837142 439.487949 
L 556.987001 439.487949 
L 557.13686 482.161714 
L 557.286719 482.161714 
L 557.436578 470.771144 
L 557.586437 484.232727 
L 557.736296 484.232727 
L 558.036015 366.293995 
L 558.185874 366.293995 
L 558.335733 484.232727 
L 558.485592 484.232727 
L 558.635451 456.928058 
L 558.78531 456.928058 
L 558.935169 321.767219 
L 559.085028 349.071888 
L 559.234887 349.071888 
L 559.534605 484.232727 
L 559.684464 369.945518 
L 559.834323 349.071888 
L 560.134041 349.071888 
L 560.2839 326.290747 
L 560.433759 449.407011 
L 560.583618 375.886055 
L 560.733477 387.930629 
L 561.183054 387.930629 
L 561.332913 368.855511 
L 561.482772 442.376467 
L 561.632631 339.316328 
L 561.78249 347.000875 
L 561.932349 347.000875 
L 562.082208 358.391446 
L 562.232067 358.391446 
L 562.381926 335.610305 
L 562.831503 335.610305 
L 562.981362 358.391446 
L 563.131221 339.316328 
L 563.28108 484.232727 
L 563.430939 472.842157 
L 563.580798 472.842157 
L 563.730657 337.681317 
L 563.880516 337.681317 
L 564.030375 264.160361 
L 564.330093 264.160361 
L 564.479952 203.337983 
L 565.229247 203.337983 
L 565.379106 214.728554 
L 566.128401 214.728554 
L 566.27826 275.550932 
L 566.428119 275.550932 
L 566.577978 264.160361 
L 566.727837 149.70965 
L 566.877696 149.70965 
L 567.027555 335.610305 
L 567.177414 294.244548 
L 567.327273 294.244548 
L 567.477132 292.773039 
L 567.626991 292.773039 
L 567.77685 157.612199 
L 568.975722 157.612199 
L 569.125581 292.773039 
L 569.575158 292.773039 
L 569.725017 231.950661 
L 570.474312 231.950661 
L 570.624171 190.584904 
L 570.77403 289.448518 
L 570.923889 289.448518 
L 571.073748 409.131261 
L 571.223607 335.610305 
L 571.523325 484.232727 
L 571.673184 357.192439 
L 571.823043 338.11732 
L 571.972902 338.11732 
L 572.122761 347.218877 
L 572.27262 366.293995 
L 572.572338 434.637419 
L 573.021915 434.637419 
L 573.171774 484.232727 
L 573.321633 430.822396 
L 573.471492 430.822396 
L 573.621351 317.025689 
L 573.77121 317.025689 
L 573.921069 181.86485 
L 576.168954 181.86485 
L 576.318813 223.230607 
L 576.918249 223.230607 
L 577.068108 162.408229 
L 577.817403 162.408229 
L 577.967262 88.887273 
L 590.105841 88.887273 
L 590.2557 149.70965 
L 591.004995 149.70965 
L 591.154854 223.230607 
L 593.702457 223.230607 
L 593.852316 181.86485 
L 597.598791 181.86485 
L 597.74865 108.343894 
L 634.464106 108.343894 
L 634.613965 149.70965 
L 636.112555 149.70965 
L 636.262414 148.510643 
L 658.741265 148.510643 
L 658.891124 149.70965 
L 661.288868 149.70965 
L 661.438727 88.887273 
L 871.690909 88.887273 
L 871.690909 88.887273 
" style="fill:none;stroke:#8dd3c7;stroke-linecap:square;stroke-width:1.5;"/>
   </g>
   <g id="line2d_15">
    <path clip-path="url(#p9580af5b28)" d="M 161.509091 349.071888 
L 161.65895 234.784679 
L 172.898375 234.784679 
L 173.048234 231.950661 
L 173.198093 231.950661 
L 173.347952 224.048112 
L 173.497811 224.048112 
L 173.64767 217.944074 
L 411.623768 217.944074 
L 411.773627 195.653436 
L 428.407976 195.653436 
L 428.557835 157.612199 
L 506.634376 157.612199 
L 506.784235 149.70965 
L 506.934094 108.343894 
L 577.817403 108.343894 
L 577.967262 88.887273 
L 871.690909 88.887273 
L 871.690909 88.887273 
" style="fill:none;stroke:#feffb3;stroke-linecap:square;stroke-width:1.5;"/>
   </g>
   <g id="line2d_16">
    <path clip-path="url(#p9580af5b28)" d="M 161.509091 389.62014 
L 162.857822 389.62014 
L 163.007681 393.337244 
L 164.356412 393.337244 
L 164.506271 396.908312 
L 165.855002 396.908312 
L 166.004861 400.339081 
L 167.353592 400.339081 
L 167.503451 403.635063 
L 168.852182 403.635063 
L 169.002041 406.801554 
L 170.350772 406.801554 
L 170.500631 409.843641 
L 171.849362 409.843641 
L 171.999221 412.766212 
L 173.347952 412.766212 
L 173.497811 415.573961 
L 174.846542 415.573961 
L 174.996401 418.271401 
L 176.345132 418.271401 
L 176.494991 420.862865 
L 177.843722 420.862865 
L 177.993581 423.352517 
L 179.342312 423.352517 
L 179.492171 425.744356 
L 180.840902 425.744356 
L 180.990761 428.042225 
L 182.339492 428.042225 
L 182.489351 430.249816 
L 183.838082 430.249816 
L 183.987941 432.370677 
L 185.336672 432.370677 
L 185.486531 434.408214 
L 186.835263 434.408214 
L 186.985122 436.365701 
L 188.333853 436.365701 
L 188.483712 438.246282 
L 189.832443 438.246282 
L 189.982302 440.052981 
L 191.331033 440.052981 
L 191.480892 441.788698 
L 192.829623 441.788698 
L 192.979482 443.456223 
L 194.328213 443.456223 
L 194.478072 445.058235 
L 195.826803 445.058235 
L 195.976662 446.597308 
L 197.325393 446.597308 
L 197.475252 448.075914 
L 198.823983 448.075914 
L 198.973842 449.49643 
L 200.322573 449.49643 
L 200.472432 450.861136 
L 201.821163 450.861136 
L 201.971022 452.172227 
L 203.319753 452.172227 
L 203.469612 453.431808 
L 204.818343 453.431808 
L 204.968202 454.641903 
L 206.316933 454.641903 
L 206.466792 455.804456 
L 207.815523 455.804456 
L 207.965382 456.921336 
L 209.314113 456.921336 
L 209.463972 457.994335 
L 210.812703 457.994335 
L 210.962562 459.025179 
L 212.311293 459.025179 
L 212.461152 460.015524 
L 213.809883 460.015524 
L 213.959742 460.966961 
L 215.308473 460.966961 
L 215.458332 461.881017 
L 216.807063 461.881017 
L 216.956922 462.759163 
L 218.305653 462.759163 
L 218.455512 463.602808 
L 219.804243 463.602808 
L 219.954102 464.413309 
L 221.302833 464.413309 
L 221.452692 465.191967 
L 222.801423 465.191967 
L 222.951282 465.940033 
L 224.300013 465.940033 
L 224.449872 466.65871 
L 225.798603 466.65871 
L 225.948462 467.349151 
L 227.297194 467.349151 
L 227.447053 468.012467 
L 228.795784 468.012467 
L 228.945643 468.649722 
L 230.294374 468.649722 
L 230.444233 469.261942 
L 231.792964 469.261942 
L 231.942823 469.850108 
L 233.291554 469.850108 
L 233.441413 470.415167 
L 234.790144 470.415167 
L 234.940003 470.958026 
L 236.288734 470.958026 
L 236.438593 471.479558 
L 237.787324 471.479558 
L 237.937183 471.9806 
L 239.285914 471.9806 
L 239.435773 472.461957 
L 240.784504 472.461957 
L 240.934363 472.924402 
L 242.283094 472.924402 
L 242.432953 473.368679 
L 243.781684 473.368679 
L 243.931543 473.795502 
L 245.280274 473.795502 
L 245.430133 474.205556 
L 246.778864 474.205556 
L 246.928723 474.5995 
L 248.277454 474.5995 
L 248.427313 474.977966 
L 249.776044 474.977966 
L 249.925903 475.341564 
L 251.274634 475.341564 
L 251.424493 475.690877 
L 252.773224 475.690877 
L 252.923083 476.026466 
L 254.271814 476.026466 
L 254.421673 476.34887 
L 255.770404 476.34887 
L 255.920263 476.658608 
L 257.268994 476.658608 
L 257.418853 476.956177 
L 258.767584 476.956177 
L 258.917443 477.242056 
L 260.266174 477.242056 
L 260.416033 477.516703 
L 261.764764 477.516703 
L 261.914623 477.780559 
L 263.263354 477.780559 
L 263.413213 478.03405 
L 264.761944 478.03405 
L 264.911803 478.277581 
L 266.260534 478.277581 
L 266.410393 478.511545 
L 267.759124 478.511545 
L 267.908983 478.736316 
L 269.257715 478.736316 
L 269.407574 478.952257 
L 270.756305 478.952257 
L 270.906164 479.159714 
L 272.254895 479.159714 
L 272.404754 479.359021 
L 273.753485 479.359021 
L 273.903344 479.550497 
L 275.252075 479.550497 
L 275.401934 479.734451 
L 276.750665 479.734451 
L 276.900524 479.911178 
L 278.249255 479.911178 
L 278.399114 480.080961 
L 279.747845 480.080961 
L 280.047563 480.244074 
L 281.246435 480.244074 
L 281.546153 480.400779 
L 282.745025 480.400779 
L 283.044743 480.551327 
L 284.243615 480.551327 
L 284.543333 480.69596 
L 285.742205 480.69596 
L 286.041923 480.834912 
L 287.240795 480.834912 
L 287.540513 480.968404 
L 288.739385 480.968404 
L 289.039103 481.096651 
L 290.237975 481.096651 
L 290.537693 481.21986 
L 291.736565 481.21986 
L 292.036283 481.338229 
L 293.235155 481.338229 
L 293.534873 481.451947 
L 296.232335 481.561197 
L 296.532053 481.666155 
L 299.229515 481.76699 
L 299.529233 481.863863 
L 302.226695 481.95693 
L 302.526413 482.04634 
L 305.223875 482.132238 
L 305.523593 482.214761 
L 308.221055 482.294043 
L 308.520773 482.370209 
L 311.218236 482.443383 
L 311.517954 482.513682 
L 314.215416 482.581219 
L 314.515134 482.646103 
L 317.212596 482.708438 
L 317.512314 482.768323 
L 320.209776 482.825856 
L 320.659353 482.881129 
L 324.705546 482.985245 
L 325.155123 483.034256 
L 329.201316 483.126576 
L 329.650893 483.170034 
L 333.697086 483.251895 
L 334.146663 483.29043 
L 339.691446 483.397185 
L 340.290882 483.430012 
L 345.685806 483.520954 
L 346.435101 483.548918 
L 353.178757 483.65021 
L 353.928052 483.673096 
L 362.170297 483.774724 
L 363.21931 483.792717 
L 374.159017 483.900362 
L 375.507748 483.91342 
L 390.643507 484.01886 
L 392.891393 484.035335 
L 423.612488 484.144175 
L 428.857553 484.157293 
L 871.690909 484.232727 
L 871.690909 484.232727 
" style="fill:none;stroke:#bfbbd9;stroke-linecap:square;stroke-width:1.5;"/>
   </g>
   <g id="patch_3">
    <path d="M 126 504 
L 126 69.12 
" style="fill:none;stroke:#ffffff;stroke-linecap:square;stroke-linejoin:miter;stroke-width:0.8;"/>
   </g>
   <g id="patch_4">
    <path d="M 907.2 504 
L 907.2 69.12 
" style="fill:none;stroke:#ffffff;stroke-linecap:square;stroke-linejoin:miter;stroke-width:0.8;"/>
   </g>
   <g id="patch_5">
    <path d="M 126 504 
L 907.2 504 
" style="fill:none;stroke:#ffffff;stroke-linecap:square;stroke-linejoin:miter;stroke-width:0.8;"/>
   </g>
   <g id="patch_6">
    <path d="M 126 69.12 
L 907.2 69.12 
" style="fill:none;stroke:#ffffff;stroke-linecap:square;stroke-linejoin:miter;stroke-width:0.8;"/>
   </g>
   <g id="text_15">
    <!-- instance 15 with error 0.0 -->
    <g style="fill:#ffffff;" transform="translate(439.126875 63.12)scale(0.12 -0.12)">
     <defs>
      <path d="M 2834 3397 
L 2834 2853 
Q 2591 2978 2328 3040 
Q 2066 3103 1784 3103 
Q 1356 3103 1142 2972 
Q 928 2841 928 2578 
Q 928 2378 1081 2264 
Q 1234 2150 1697 2047 
L 1894 2003 
Q 2506 1872 2764 1633 
Q 3022 1394 3022 966 
Q 3022 478 2636 193 
Q 2250 -91 1575 -91 
Q 1294 -91 989 -36 
Q 684 19 347 128 
L 347 722 
Q 666 556 975 473 
Q 1284 391 1588 391 
Q 1994 391 2212 530 
Q 2431 669 2431 922 
Q 2431 1156 2273 1281 
Q 2116 1406 1581 1522 
L 1381 1569 
Q 847 1681 609 1914 
Q 372 2147 372 2553 
Q 372 3047 722 3315 
Q 1072 3584 1716 3584 
Q 2034 3584 2315 3537 
Q 2597 3491 2834 3397 
z
" id="DejaVuSans-73" transform="scale(0.015625)"/>
      <path d="M 3122 3366 
L 3122 2828 
Q 2878 2963 2633 3030 
Q 2388 3097 2138 3097 
Q 1578 3097 1268 2742 
Q 959 2388 959 1747 
Q 959 1106 1268 751 
Q 1578 397 2138 397 
Q 2388 397 2633 464 
Q 2878 531 3122 666 
L 3122 134 
Q 2881 22 2623 -34 
Q 2366 -91 2075 -91 
Q 1284 -91 818 406 
Q 353 903 353 1747 
Q 353 2603 823 3093 
Q 1294 3584 2113 3584 
Q 2378 3584 2631 3529 
Q 2884 3475 3122 3366 
z
" id="DejaVuSans-63" transform="scale(0.015625)"/>
      <path id="DejaVuSans-20" transform="scale(0.015625)"/>
      <path d="M 269 3500 
L 844 3500 
L 1563 769 
L 2278 3500 
L 2956 3500 
L 3675 769 
L 4391 3500 
L 4966 3500 
L 4050 0 
L 3372 0 
L 2619 2869 
L 1863 0 
L 1184 0 
L 269 3500 
z
" id="DejaVuSans-77" transform="scale(0.015625)"/>
      <path d="M 3513 2113 
L 3513 0 
L 2938 0 
L 2938 2094 
Q 2938 2591 2744 2837 
Q 2550 3084 2163 3084 
Q 1697 3084 1428 2787 
Q 1159 2491 1159 1978 
L 1159 0 
L 581 0 
L 581 4863 
L 1159 4863 
L 1159 2956 
Q 1366 3272 1645 3428 
Q 1925 3584 2291 3584 
Q 2894 3584 3203 3211 
Q 3513 2838 3513 2113 
z
" id="DejaVuSans-68" transform="scale(0.015625)"/>
      <path d="M 684 794 
L 1344 794 
L 1344 0 
L 684 0 
L 684 794 
z
" id="DejaVuSans-2e" transform="scale(0.015625)"/>
     </defs>
     <use xlink:href="#DejaVuSans-69"/>
     <use x="27.783203" xlink:href="#DejaVuSans-6e"/>
     <use x="91.162109" xlink:href="#DejaVuSans-73"/>
     <use x="143.261719" xlink:href="#DejaVuSans-74"/>
     <use x="182.470703" xlink:href="#DejaVuSans-61"/>
     <use x="243.75" xlink:href="#DejaVuSans-6e"/>
     <use x="307.128906" xlink:href="#DejaVuSans-63"/>
     <use x="362.109375" xlink:href="#DejaVuSans-65"/>
     <use x="423.632812" xlink:href="#DejaVuSans-20"/>
     <use x="455.419922" xlink:href="#DejaVuSans-31"/>
     <use x="519.042969" xlink:href="#DejaVuSans-35"/>
     <use x="582.666016" xlink:href="#DejaVuSans-20"/>
     <use x="614.453125" xlink:href="#DejaVuSans-77"/>
     <use x="696.240234" xlink:href="#DejaVuSans-69"/>
     <use x="724.023438" xlink:href="#DejaVuSans-74"/>
     <use x="763.232422" xlink:href="#DejaVuSans-68"/>
     <use x="826.611328" xlink:href="#DejaVuSans-20"/>
     <use x="858.398438" xlink:href="#DejaVuSans-65"/>
     <use x="919.921875" xlink:href="#DejaVuSans-72"/>
     <use x="959.285156" xlink:href="#DejaVuSans-72"/>
     <use x="998.148438" xlink:href="#DejaVuSans-6f"/>
     <use x="1059.330078" xlink:href="#DejaVuSans-72"/>
     <use x="1100.443359" xlink:href="#DejaVuSans-20"/>
     <use x="1132.230469" xlink:href="#DejaVuSans-30"/>
     <use x="1195.853516" xlink:href="#DejaVuSans-2e"/>
     <use x="1227.640625" xlink:href="#DejaVuSans-30"/>
    </g>
   </g>
   <g id="legend_1">
    <g id="patch_7">
     <path d="M 805.348438 499 
L 900.2 499 
Q 902.2 499 902.2 497 
L 902.2 453.965625 
Q 902.2 451.965625 900.2 451.965625 
L 805.348438 451.965625 
Q 803.348438 451.965625 803.348438 453.965625 
L 803.348438 497 
Q 803.348438 499 805.348438 499 
z
" style="opacity:0.8;stroke:#cccccc;stroke-linejoin:miter;"/>
    </g>
    <g id="line2d_17">
     <path d="M 807.348438 460.064062 
L 827.348438 460.064062 
" style="fill:none;stroke:#8dd3c7;stroke-linecap:square;stroke-width:1.5;"/>
    </g>
    <g id="line2d_18"/>
    <g id="text_16">
     <!-- cost -->
     <g style="fill:#ffffff;" transform="translate(835.348438 463.564062)scale(0.1 -0.1)">
      <use xlink:href="#DejaVuSans-63"/>
      <use x="54.980469" xlink:href="#DejaVuSans-6f"/>
      <use x="116.162109" xlink:href="#DejaVuSans-73"/>
      <use x="168.261719" xlink:href="#DejaVuSans-74"/>
     </g>
    </g>
    <g id="line2d_19">
     <path d="M 807.348438 474.742188 
L 827.348438 474.742188 
" style="fill:none;stroke:#feffb3;stroke-linecap:square;stroke-width:1.5;"/>
    </g>
    <g id="line2d_20"/>
    <g id="text_17">
     <!-- best cost -->
     <g style="fill:#ffffff;" transform="translate(835.348438 478.242188)scale(0.1 -0.1)">
      <defs>
       <path d="M 3116 1747 
Q 3116 2381 2855 2742 
Q 2594 3103 2138 3103 
Q 1681 3103 1420 2742 
Q 1159 2381 1159 1747 
Q 1159 1113 1420 752 
Q 1681 391 2138 391 
Q 2594 391 2855 752 
Q 3116 1113 3116 1747 
z
M 1159 2969 
Q 1341 3281 1617 3432 
Q 1894 3584 2278 3584 
Q 2916 3584 3314 3078 
Q 3713 2572 3713 1747 
Q 3713 922 3314 415 
Q 2916 -91 2278 -91 
Q 1894 -91 1617 61 
Q 1341 213 1159 525 
L 1159 0 
L 581 0 
L 581 4863 
L 1159 4863 
L 1159 2969 
z
" id="DejaVuSans-62" transform="scale(0.015625)"/>
      </defs>
      <use xlink:href="#DejaVuSans-62"/>
      <use x="63.476562" xlink:href="#DejaVuSans-65"/>
      <use x="125" xlink:href="#DejaVuSans-73"/>
      <use x="177.099609" xlink:href="#DejaVuSans-74"/>
      <use x="216.308594" xlink:href="#DejaVuSans-20"/>
      <use x="248.095703" xlink:href="#DejaVuSans-63"/>
      <use x="303.076172" xlink:href="#DejaVuSans-6f"/>
      <use x="364.257812" xlink:href="#DejaVuSans-73"/>
      <use x="416.357422" xlink:href="#DejaVuSans-74"/>
     </g>
    </g>
    <g id="line2d_21">
     <path d="M 807.348438 489.420313 
L 827.348438 489.420313 
" style="fill:none;stroke:#bfbbd9;stroke-linecap:square;stroke-width:1.5;"/>
    </g>
    <g id="line2d_22"/>
    <g id="text_18">
     <!-- temperature -->
     <g style="fill:#ffffff;" transform="translate(835.348438 492.920313)scale(0.1 -0.1)">
      <defs>
       <path d="M 3328 2828 
Q 3544 3216 3844 3400 
Q 4144 3584 4550 3584 
Q 5097 3584 5394 3201 
Q 5691 2819 5691 2113 
L 5691 0 
L 5113 0 
L 5113 2094 
Q 5113 2597 4934 2840 
Q 4756 3084 4391 3084 
Q 3944 3084 3684 2787 
Q 3425 2491 3425 1978 
L 3425 0 
L 2847 0 
L 2847 2094 
Q 2847 2600 2669 2842 
Q 2491 3084 2119 3084 
Q 1678 3084 1418 2786 
Q 1159 2488 1159 1978 
L 1159 0 
L 581 0 
L 581 3500 
L 1159 3500 
L 1159 2956 
Q 1356 3278 1631 3431 
Q 1906 3584 2284 3584 
Q 2666 3584 2933 3390 
Q 3200 3197 3328 2828 
z
" id="DejaVuSans-6d" transform="scale(0.015625)"/>
       <path d="M 1159 525 
L 1159 -1331 
L 581 -1331 
L 581 3500 
L 1159 3500 
L 1159 2969 
Q 1341 3281 1617 3432 
Q 1894 3584 2278 3584 
Q 2916 3584 3314 3078 
Q 3713 2572 3713 1747 
Q 3713 922 3314 415 
Q 2916 -91 2278 -91 
Q 1894 -91 1617 61 
Q 1341 213 1159 525 
z
M 3116 1747 
Q 3116 2381 2855 2742 
Q 2594 3103 2138 3103 
Q 1681 3103 1420 2742 
Q 1159 2381 1159 1747 
Q 1159 1113 1420 752 
Q 1681 391 2138 391 
Q 2594 391 2855 752 
Q 3116 1113 3116 1747 
z
" id="DejaVuSans-70" transform="scale(0.015625)"/>
       <path d="M 544 1381 
L 544 3500 
L 1119 3500 
L 1119 1403 
Q 1119 906 1312 657 
Q 1506 409 1894 409 
Q 2359 409 2629 706 
Q 2900 1003 2900 1516 
L 2900 3500 
L 3475 3500 
L 3475 0 
L 2900 0 
L 2900 538 
Q 2691 219 2414 64 
Q 2138 -91 1772 -91 
Q 1169 -91 856 284 
Q 544 659 544 1381 
z
M 1991 3584 
L 1991 3584 
z
" id="DejaVuSans-75" transform="scale(0.015625)"/>
      </defs>
      <use xlink:href="#DejaVuSans-74"/>
      <use x="39.208984" xlink:href="#DejaVuSans-65"/>
      <use x="100.732422" xlink:href="#DejaVuSans-6d"/>
      <use x="198.144531" xlink:href="#DejaVuSans-70"/>
      <use x="261.621094" xlink:href="#DejaVuSans-65"/>
      <use x="323.144531" xlink:href="#DejaVuSans-72"/>
      <use x="364.257812" xlink:href="#DejaVuSans-61"/>
      <use x="425.537109" xlink:href="#DejaVuSans-74"/>
      <use x="464.746094" xlink:href="#DejaVuSans-75"/>
      <use x="528.125" xlink:href="#DejaVuSans-72"/>
      <use x="566.988281" xlink:href="#DejaVuSans-65"/>
     </g>
    </g>
   </g>
  </g>
 </g>
 <defs>
  <clipPath id="p9580af5b28">
   <rect height="434.88" width="781.2" x="126" y="69.12"/>
  </clipPath>
 </defs>
</svg>
