<?xml version="1.0" encoding="utf-8" standalone="no"?>
<!DOCTYPE svg PUBLIC "-//W3C//DTD SVG 1.1//EN"
  "http://www.w3.org/Graphics/SVG/1.1/DTD/svg11.dtd">
<svg height="576pt" version="1.1" viewBox="0 0 1008 576" width="1008pt" xmlns="http://www.w3.org/2000/svg" xmlns:xlink="http://www.w3.org/1999/xlink">
 <metadata>
  <rdf:RDF xmlns:cc="http://creativecommons.org/ns#" xmlns:dc="http://purl.org/dc/elements/1.1/" xmlns:rdf="http://www.w3.org/1999/02/22-rdf-syntax-ns#">
   <cc:Work>
    <dc:type rdf:resource="http://purl.org/dc/dcmitype/StillImage"/>
    <dc:date>2022-01-08T03:08:33.276448</dc:date>
    <dc:format>image/svg+xml</dc:format>
    <dc:creator>
     <cc:Agent>
      <dc:title>Matplotlib v3.4.3, https://matplotlib.org/</dc:title>
     </cc:Agent>
    </dc:creator>
   </cc:Work>
  </rdf:RDF>
 </metadata>
 <defs>
  <style type="text/css">*{stroke-linecap:butt;stroke-linejoin:round;}</style>
 </defs>
 <g id="figure_1">
  <g id="patch_1">
   <path d="M 0 576 
L 1008 576 
L 1008 0 
L 0 0 
z
"/>
  </g>
  <g id="axes_1">
   <g id="patch_2">
    <path d="M 126 504 
L 907.2 504 
L 907.2 69.12 
L 126 69.12 
z
"/>
   </g>
   <g id="matplotlib.axis_1">
    <g id="xtick_1">
     <g id="line2d_1">
      <defs>
       <path d="M 0 0 
L 0 3.5 
" id="m02c2cbc83e" style="stroke:#ffffff;stroke-width:0.8;"/>
      </defs>
      <g>
       <use style="fill:#ffffff;stroke:#ffffff;stroke-width:0.8;" x="161.509091" xlink:href="#m02c2cbc83e" y="504"/>
      </g>
     </g>
     <g id="text_1">
      <!-- 0 -->
      <g style="fill:#ffffff;" transform="translate(158.327841 518.598438)scale(0.1 -0.1)">
       <defs>
        <path d="M 2034 4250 
Q 1547 4250 1301 3770 
Q 1056 3291 1056 2328 
Q 1056 1369 1301 889 
Q 1547 409 2034 409 
Q 2525 409 2770 889 
Q 3016 1369 3016 2328 
Q 3016 3291 2770 3770 
Q 2525 4250 2034 4250 
z
M 2034 4750 
Q 2819 4750 3233 4129 
Q 3647 3509 3647 2328 
Q 3647 1150 3233 529 
Q 2819 -91 2034 -91 
Q 1250 -91 836 529 
Q 422 1150 422 2328 
Q 422 3509 836 4129 
Q 1250 4750 2034 4750 
z
" id="DejaVuSans-30" transform="scale(0.015625)"/>
       </defs>
       <use xlink:href="#DejaVuSans-30"/>
      </g>
     </g>
    </g>
    <g id="xtick_2">
     <g id="line2d_2">
      <g>
       <use style="fill:#ffffff;stroke:#ffffff;stroke-width:0.8;" x="293.562237" xlink:href="#m02c2cbc83e" y="504"/>
      </g>
     </g>
     <g id="text_2">
      <!-- 500 -->
      <g style="fill:#ffffff;" transform="translate(284.018487 518.598438)scale(0.1 -0.1)">
       <defs>
        <path d="M 691 4666 
L 3169 4666 
L 3169 4134 
L 1269 4134 
L 1269 2991 
Q 1406 3038 1543 3061 
Q 1681 3084 1819 3084 
Q 2600 3084 3056 2656 
Q 3513 2228 3513 1497 
Q 3513 744 3044 326 
Q 2575 -91 1722 -91 
Q 1428 -91 1123 -41 
Q 819 9 494 109 
L 494 744 
Q 775 591 1075 516 
Q 1375 441 1709 441 
Q 2250 441 2565 725 
Q 2881 1009 2881 1497 
Q 2881 1984 2565 2268 
Q 2250 2553 1709 2553 
Q 1456 2553 1204 2497 
Q 953 2441 691 2322 
L 691 4666 
z
" id="DejaVuSans-35" transform="scale(0.015625)"/>
       </defs>
       <use xlink:href="#DejaVuSans-35"/>
       <use x="63.623047" xlink:href="#DejaVuSans-30"/>
       <use x="127.246094" xlink:href="#DejaVuSans-30"/>
      </g>
     </g>
    </g>
    <g id="xtick_3">
     <g id="line2d_3">
      <g>
       <use style="fill:#ffffff;stroke:#ffffff;stroke-width:0.8;" x="425.615383" xlink:href="#m02c2cbc83e" y="504"/>
      </g>
     </g>
     <g id="text_3">
      <!-- 1000 -->
      <g style="fill:#ffffff;" transform="translate(412.890383 518.598438)scale(0.1 -0.1)">
       <defs>
        <path d="M 794 531 
L 1825 531 
L 1825 4091 
L 703 3866 
L 703 4441 
L 1819 4666 
L 2450 4666 
L 2450 531 
L 3481 531 
L 3481 0 
L 794 0 
L 794 531 
z
" id="DejaVuSans-31" transform="scale(0.015625)"/>
       </defs>
       <use xlink:href="#DejaVuSans-31"/>
       <use x="63.623047" xlink:href="#DejaVuSans-30"/>
       <use x="127.246094" xlink:href="#DejaVuSans-30"/>
       <use x="190.869141" xlink:href="#DejaVuSans-30"/>
      </g>
     </g>
    </g>
    <g id="xtick_4">
     <g id="line2d_4">
      <g>
       <use style="fill:#ffffff;stroke:#ffffff;stroke-width:0.8;" x="557.668528" xlink:href="#m02c2cbc83e" y="504"/>
      </g>
     </g>
     <g id="text_4">
      <!-- 1500 -->
      <g style="fill:#ffffff;" transform="translate(544.943528 518.598438)scale(0.1 -0.1)">
       <use xlink:href="#DejaVuSans-31"/>
       <use x="63.623047" xlink:href="#DejaVuSans-35"/>
       <use x="127.246094" xlink:href="#DejaVuSans-30"/>
       <use x="190.869141" xlink:href="#DejaVuSans-30"/>
      </g>
     </g>
    </g>
    <g id="xtick_5">
     <g id="line2d_5">
      <g>
       <use style="fill:#ffffff;stroke:#ffffff;stroke-width:0.8;" x="689.721674" xlink:href="#m02c2cbc83e" y="504"/>
      </g>
     </g>
     <g id="text_5">
      <!-- 2000 -->
      <g style="fill:#ffffff;" transform="translate(676.996674 518.598438)scale(0.1 -0.1)">
       <defs>
        <path d="M 1228 531 
L 3431 531 
L 3431 0 
L 469 0 
L 469 531 
Q 828 903 1448 1529 
Q 2069 2156 2228 2338 
Q 2531 2678 2651 2914 
Q 2772 3150 2772 3378 
Q 2772 3750 2511 3984 
Q 2250 4219 1831 4219 
Q 1534 4219 1204 4116 
Q 875 4013 500 3803 
L 500 4441 
Q 881 4594 1212 4672 
Q 1544 4750 1819 4750 
Q 2544 4750 2975 4387 
Q 3406 4025 3406 3419 
Q 3406 3131 3298 2873 
Q 3191 2616 2906 2266 
Q 2828 2175 2409 1742 
Q 1991 1309 1228 531 
z
" id="DejaVuSans-32" transform="scale(0.015625)"/>
       </defs>
       <use xlink:href="#DejaVuSans-32"/>
       <use x="63.623047" xlink:href="#DejaVuSans-30"/>
       <use x="127.246094" xlink:href="#DejaVuSans-30"/>
       <use x="190.869141" xlink:href="#DejaVuSans-30"/>
      </g>
     </g>
    </g>
    <g id="xtick_6">
     <g id="line2d_6">
      <g>
       <use style="fill:#ffffff;stroke:#ffffff;stroke-width:0.8;" x="821.77482" xlink:href="#m02c2cbc83e" y="504"/>
      </g>
     </g>
     <g id="text_6">
      <!-- 2500 -->
      <g style="fill:#ffffff;" transform="translate(809.04982 518.598438)scale(0.1 -0.1)">
       <use xlink:href="#DejaVuSans-32"/>
       <use x="63.623047" xlink:href="#DejaVuSans-35"/>
       <use x="127.246094" xlink:href="#DejaVuSans-30"/>
       <use x="190.869141" xlink:href="#DejaVuSans-30"/>
      </g>
     </g>
    </g>
    <g id="text_7">
     <!-- iteration -->
     <g style="fill:#ffffff;" transform="translate(495.477344 532.276562)scale(0.1 -0.1)">
      <defs>
       <path d="M 603 3500 
L 1178 3500 
L 1178 0 
L 603 0 
L 603 3500 
z
M 603 4863 
L 1178 4863 
L 1178 4134 
L 603 4134 
L 603 4863 
z
" id="DejaVuSans-69" transform="scale(0.015625)"/>
       <path d="M 1172 4494 
L 1172 3500 
L 2356 3500 
L 2356 3053 
L 1172 3053 
L 1172 1153 
Q 1172 725 1289 603 
Q 1406 481 1766 481 
L 2356 481 
L 2356 0 
L 1766 0 
Q 1100 0 847 248 
Q 594 497 594 1153 
L 594 3053 
L 172 3053 
L 172 3500 
L 594 3500 
L 594 4494 
L 1172 4494 
z
" id="DejaVuSans-74" transform="scale(0.015625)"/>
       <path d="M 3597 1894 
L 3597 1613 
L 953 1613 
Q 991 1019 1311 708 
Q 1631 397 2203 397 
Q 2534 397 2845 478 
Q 3156 559 3463 722 
L 3463 178 
Q 3153 47 2828 -22 
Q 2503 -91 2169 -91 
Q 1331 -91 842 396 
Q 353 884 353 1716 
Q 353 2575 817 3079 
Q 1281 3584 2069 3584 
Q 2775 3584 3186 3129 
Q 3597 2675 3597 1894 
z
M 3022 2063 
Q 3016 2534 2758 2815 
Q 2500 3097 2075 3097 
Q 1594 3097 1305 2825 
Q 1016 2553 972 2059 
L 3022 2063 
z
" id="DejaVuSans-65" transform="scale(0.015625)"/>
       <path d="M 2631 2963 
Q 2534 3019 2420 3045 
Q 2306 3072 2169 3072 
Q 1681 3072 1420 2755 
Q 1159 2438 1159 1844 
L 1159 0 
L 581 0 
L 581 3500 
L 1159 3500 
L 1159 2956 
Q 1341 3275 1631 3429 
Q 1922 3584 2338 3584 
Q 2397 3584 2469 3576 
Q 2541 3569 2628 3553 
L 2631 2963 
z
" id="DejaVuSans-72" transform="scale(0.015625)"/>
       <path d="M 2194 1759 
Q 1497 1759 1228 1600 
Q 959 1441 959 1056 
Q 959 750 1161 570 
Q 1363 391 1709 391 
Q 2188 391 2477 730 
Q 2766 1069 2766 1631 
L 2766 1759 
L 2194 1759 
z
M 3341 1997 
L 3341 0 
L 2766 0 
L 2766 531 
Q 2569 213 2275 61 
Q 1981 -91 1556 -91 
Q 1019 -91 701 211 
Q 384 513 384 1019 
Q 384 1609 779 1909 
Q 1175 2209 1959 2209 
L 2766 2209 
L 2766 2266 
Q 2766 2663 2505 2880 
Q 2244 3097 1772 3097 
Q 1472 3097 1187 3025 
Q 903 2953 641 2809 
L 641 3341 
Q 956 3463 1253 3523 
Q 1550 3584 1831 3584 
Q 2591 3584 2966 3190 
Q 3341 2797 3341 1997 
z
" id="DejaVuSans-61" transform="scale(0.015625)"/>
       <path d="M 1959 3097 
Q 1497 3097 1228 2736 
Q 959 2375 959 1747 
Q 959 1119 1226 758 
Q 1494 397 1959 397 
Q 2419 397 2687 759 
Q 2956 1122 2956 1747 
Q 2956 2369 2687 2733 
Q 2419 3097 1959 3097 
z
M 1959 3584 
Q 2709 3584 3137 3096 
Q 3566 2609 3566 1747 
Q 3566 888 3137 398 
Q 2709 -91 1959 -91 
Q 1206 -91 779 398 
Q 353 888 353 1747 
Q 353 2609 779 3096 
Q 1206 3584 1959 3584 
z
" id="DejaVuSans-6f" transform="scale(0.015625)"/>
       <path d="M 3513 2113 
L 3513 0 
L 2938 0 
L 2938 2094 
Q 2938 2591 2744 2837 
Q 2550 3084 2163 3084 
Q 1697 3084 1428 2787 
Q 1159 2491 1159 1978 
L 1159 0 
L 581 0 
L 581 3500 
L 1159 3500 
L 1159 2956 
Q 1366 3272 1645 3428 
Q 1925 3584 2291 3584 
Q 2894 3584 3203 3211 
Q 3513 2838 3513 2113 
z
" id="DejaVuSans-6e" transform="scale(0.015625)"/>
      </defs>
      <use xlink:href="#DejaVuSans-69"/>
      <use x="27.783203" xlink:href="#DejaVuSans-74"/>
      <use x="66.992188" xlink:href="#DejaVuSans-65"/>
      <use x="128.515625" xlink:href="#DejaVuSans-72"/>
      <use x="169.628906" xlink:href="#DejaVuSans-61"/>
      <use x="230.908203" xlink:href="#DejaVuSans-74"/>
      <use x="270.117188" xlink:href="#DejaVuSans-69"/>
      <use x="297.900391" xlink:href="#DejaVuSans-6f"/>
      <use x="359.082031" xlink:href="#DejaVuSans-6e"/>
     </g>
    </g>
   </g>
   <g id="matplotlib.axis_2">
    <g id="ytick_1">
     <g id="line2d_7">
      <defs>
       <path d="M 0 0 
L -3.5 0 
" id="md4a5d20396" style="stroke:#ffffff;stroke-width:0.8;"/>
      </defs>
      <g>
       <use style="fill:#ffffff;stroke:#ffffff;stroke-width:0.8;" x="126" xlink:href="#md4a5d20396" y="484.232727"/>
      </g>
     </g>
     <g id="text_8">
      <!-- 0 -->
      <g style="fill:#ffffff;" transform="translate(112.6375 488.031946)scale(0.1 -0.1)">
       <use xlink:href="#DejaVuSans-30"/>
      </g>
     </g>
    </g>
    <g id="ytick_2">
     <g id="line2d_8">
      <g>
       <use style="fill:#ffffff;stroke:#ffffff;stroke-width:0.8;" x="126" xlink:href="#md4a5d20396" y="435.095854"/>
      </g>
     </g>
     <g id="text_9">
      <!-- 5000 -->
      <g style="fill:#ffffff;" transform="translate(93.55 438.895073)scale(0.1 -0.1)">
       <use xlink:href="#DejaVuSans-35"/>
       <use x="63.623047" xlink:href="#DejaVuSans-30"/>
       <use x="127.246094" xlink:href="#DejaVuSans-30"/>
       <use x="190.869141" xlink:href="#DejaVuSans-30"/>
      </g>
     </g>
    </g>
    <g id="ytick_3">
     <g id="line2d_9">
      <g>
       <use style="fill:#ffffff;stroke:#ffffff;stroke-width:0.8;" x="126" xlink:href="#md4a5d20396" y="385.958981"/>
      </g>
     </g>
     <g id="text_10">
      <!-- 10000 -->
      <g style="fill:#ffffff;" transform="translate(87.1875 389.7582)scale(0.1 -0.1)">
       <use xlink:href="#DejaVuSans-31"/>
       <use x="63.623047" xlink:href="#DejaVuSans-30"/>
       <use x="127.246094" xlink:href="#DejaVuSans-30"/>
       <use x="190.869141" xlink:href="#DejaVuSans-30"/>
       <use x="254.492188" xlink:href="#DejaVuSans-30"/>
      </g>
     </g>
    </g>
    <g id="ytick_4">
     <g id="line2d_10">
      <g>
       <use style="fill:#ffffff;stroke:#ffffff;stroke-width:0.8;" x="126" xlink:href="#md4a5d20396" y="336.822108"/>
      </g>
     </g>
     <g id="text_11">
      <!-- 15000 -->
      <g style="fill:#ffffff;" transform="translate(87.1875 340.621326)scale(0.1 -0.1)">
       <use xlink:href="#DejaVuSans-31"/>
       <use x="63.623047" xlink:href="#DejaVuSans-35"/>
       <use x="127.246094" xlink:href="#DejaVuSans-30"/>
       <use x="190.869141" xlink:href="#DejaVuSans-30"/>
       <use x="254.492188" xlink:href="#DejaVuSans-30"/>
      </g>
     </g>
    </g>
    <g id="ytick_5">
     <g id="line2d_11">
      <g>
       <use style="fill:#ffffff;stroke:#ffffff;stroke-width:0.8;" x="126" xlink:href="#md4a5d20396" y="287.685234"/>
      </g>
     </g>
     <g id="text_12">
      <!-- 20000 -->
      <g style="fill:#ffffff;" transform="translate(87.1875 291.484453)scale(0.1 -0.1)">
       <use xlink:href="#DejaVuSans-32"/>
       <use x="63.623047" xlink:href="#DejaVuSans-30"/>
       <use x="127.246094" xlink:href="#DejaVuSans-30"/>
       <use x="190.869141" xlink:href="#DejaVuSans-30"/>
       <use x="254.492188" xlink:href="#DejaVuSans-30"/>
      </g>
     </g>
    </g>
    <g id="ytick_6">
     <g id="line2d_12">
      <g>
       <use style="fill:#ffffff;stroke:#ffffff;stroke-width:0.8;" x="126" xlink:href="#md4a5d20396" y="238.548361"/>
      </g>
     </g>
     <g id="text_13">
      <!-- 25000 -->
      <g style="fill:#ffffff;" transform="translate(87.1875 242.34758)scale(0.1 -0.1)">
       <use xlink:href="#DejaVuSans-32"/>
       <use x="63.623047" xlink:href="#DejaVuSans-35"/>
       <use x="127.246094" xlink:href="#DejaVuSans-30"/>
       <use x="190.869141" xlink:href="#DejaVuSans-30"/>
       <use x="254.492188" xlink:href="#DejaVuSans-30"/>
      </g>
     </g>
    </g>
    <g id="ytick_7">
     <g id="line2d_13">
      <g>
       <use style="fill:#ffffff;stroke:#ffffff;stroke-width:0.8;" x="126" xlink:href="#md4a5d20396" y="189.411488"/>
      </g>
     </g>
     <g id="text_14">
      <!-- 30000 -->
      <g style="fill:#ffffff;" transform="translate(87.1875 193.210707)scale(0.1 -0.1)">
       <defs>
        <path d="M 2597 2516 
Q 3050 2419 3304 2112 
Q 3559 1806 3559 1356 
Q 3559 666 3084 287 
Q 2609 -91 1734 -91 
Q 1441 -91 1130 -33 
Q 819 25 488 141 
L 488 750 
Q 750 597 1062 519 
Q 1375 441 1716 441 
Q 2309 441 2620 675 
Q 2931 909 2931 1356 
Q 2931 1769 2642 2001 
Q 2353 2234 1838 2234 
L 1294 2234 
L 1294 2753 
L 1863 2753 
Q 2328 2753 2575 2939 
Q 2822 3125 2822 3475 
Q 2822 3834 2567 4026 
Q 2313 4219 1838 4219 
Q 1578 4219 1281 4162 
Q 984 4106 628 3988 
L 628 4550 
Q 988 4650 1302 4700 
Q 1616 4750 1894 4750 
Q 2613 4750 3031 4423 
Q 3450 4097 3450 3541 
Q 3450 3153 3228 2886 
Q 3006 2619 2597 2516 
z
" id="DejaVuSans-33" transform="scale(0.015625)"/>
       </defs>
       <use xlink:href="#DejaVuSans-33"/>
       <use x="63.623047" xlink:href="#DejaVuSans-30"/>
       <use x="127.246094" xlink:href="#DejaVuSans-30"/>
       <use x="190.869141" xlink:href="#DejaVuSans-30"/>
       <use x="254.492188" xlink:href="#DejaVuSans-30"/>
      </g>
     </g>
    </g>
    <g id="ytick_8">
     <g id="line2d_14">
      <g>
       <use style="fill:#ffffff;stroke:#ffffff;stroke-width:0.8;" x="126" xlink:href="#md4a5d20396" y="140.274615"/>
      </g>
     </g>
     <g id="text_15">
      <!-- 35000 -->
      <g style="fill:#ffffff;" transform="translate(87.1875 144.073834)scale(0.1 -0.1)">
       <use xlink:href="#DejaVuSans-33"/>
       <use x="63.623047" xlink:href="#DejaVuSans-35"/>
       <use x="127.246094" xlink:href="#DejaVuSans-30"/>
       <use x="190.869141" xlink:href="#DejaVuSans-30"/>
       <use x="254.492188" xlink:href="#DejaVuSans-30"/>
      </g>
     </g>
    </g>
    <g id="ytick_9">
     <g id="line2d_15">
      <g>
       <use style="fill:#ffffff;stroke:#ffffff;stroke-width:0.8;" x="126" xlink:href="#md4a5d20396" y="91.137742"/>
      </g>
     </g>
     <g id="text_16">
      <!-- 40000 -->
      <g style="fill:#ffffff;" transform="translate(87.1875 94.93696)scale(0.1 -0.1)">
       <defs>
        <path d="M 2419 4116 
L 825 1625 
L 2419 1625 
L 2419 4116 
z
M 2253 4666 
L 3047 4666 
L 3047 1625 
L 3713 1625 
L 3713 1100 
L 3047 1100 
L 3047 0 
L 2419 0 
L 2419 1100 
L 313 1100 
L 313 1709 
L 2253 4666 
z
" id="DejaVuSans-34" transform="scale(0.015625)"/>
       </defs>
       <use xlink:href="#DejaVuSans-34"/>
       <use x="63.623047" xlink:href="#DejaVuSans-30"/>
       <use x="127.246094" xlink:href="#DejaVuSans-30"/>
       <use x="190.869141" xlink:href="#DejaVuSans-30"/>
       <use x="254.492188" xlink:href="#DejaVuSans-30"/>
      </g>
     </g>
    </g>
   </g>
   <g id="line2d_16">
    <path clip-path="url(#pb4e990f361)" d="M 161.509091 168.272805 
L 161.773197 199.160244 
L 162.037303 203.788937 
L 162.30141 189.667 
L 162.565516 212.584437 
L 162.829622 206.638876 
L 163.093729 213.58683 
L 163.357835 227.983933 
L 163.621941 283.656011 
L 163.886048 298.613275 
L 164.150154 289.925876 
L 164.41426 294.033718 
L 164.678366 323.348777 
L 164.942473 329.864326 
L 165.206579 313.275718 
L 165.470685 322.631379 
L 165.734792 308.509441 
L 165.998898 325.09805 
L 166.263004 332.046004 
L 166.791217 293.984582 
L 167.055323 298.092424 
L 167.583536 264.443493 
L 167.847642 253.849584 
L 168.111748 270.438192 
L 168.375854 261.023567 
L 168.639961 267.499807 
L 168.904067 253.102703 
L 169.168173 257.249855 
L 169.696386 272.610042 
L 169.960492 258.488104 
L 170.224599 282.801029 
L 170.488705 288.500907 
L 170.752811 301.473041 
L 171.016917 295.773164 
L 171.281024 309.895101 
L 171.54513 331.299123 
L 172.073343 310.307851 
L 172.337449 292.294273 
L 172.601555 285.346319 
L 172.865661 301.001327 
L 173.129768 303.802129 
L 173.393874 290.829994 
L 173.922087 252.031519 
L 174.186193 262.58612 
L 174.714405 301.227357 
L 174.978512 290.672756 
L 175.242618 270.811632 
L 175.506724 294.8887 
L 175.770831 278.683359 
L 176.034937 282.791202 
L 176.299043 302.652326 
L 176.56315 288.255222 
L 176.827256 304.460563 
L 177.091362 301.659761 
L 177.355468 304.460563 
L 177.619575 317.432698 
L 177.883681 301.77769 
L 178.411894 255.844541 
L 178.676 262.792494 
L 178.940106 279.381103 
L 179.468319 254.085441 
L 179.732425 266.408968 
L 179.996531 256.994343 
L 180.260638 238.106129 
L 180.524744 244.611851 
L 180.78885 260.266859 
L 181.052956 243.11809 
L 181.317063 240.317289 
L 181.581169 264.394357 
L 181.845275 260.286514 
L 182.373488 299.291364 
L 182.637594 312.263498 
L 182.901701 331.151713 
L 183.165807 311.290588 
L 183.429913 320.705213 
L 183.694019 308.381685 
L 183.958126 318.936286 
L 184.222232 312.420736 
L 184.486338 324.744264 
L 184.750445 318.238542 
L 185.014551 341.15598 
L 185.278657 328.832452 
L 185.542763 346.84603 
L 185.80687 338.885856 
L 186.070976 337.529679 
L 186.335082 313.216754 
L 186.599189 315.231366 
L 186.863295 319.339208 
L 187.127401 331.662736 
L 187.391507 310.258714 
L 187.655614 326.011996 
L 188.183826 372.534787 
L 188.447933 348.221862 
L 188.712039 369.625884 
L 188.976145 353.754674 
L 189.240252 329.677606 
L 189.504358 353.990531 
L 189.768464 343.435931 
L 190.03257 321.57985 
L 190.296677 315.10361 
L 190.560783 336.487977 
L 190.824889 335.131799 
L 191.088996 325.717174 
L 191.353102 349.794242 
L 191.617208 337.470714 
L 191.881314 144.392285 
L 192.145421 158.514222 
L 192.409527 152.067464 
L 192.673633 176.144532 
L 193.201846 160.224185 
L 193.465952 157.423384 
L 193.994165 195.553597 
L 194.258271 191.445755 
L 194.522377 208.034363 
L 194.786484 192.281081 
L 195.578803 238.017683 
L 195.842909 229.772516 
L 196.107015 213.183907 
L 196.371121 213.832514 
L 196.635228 203.661181 
L 196.899334 185.559157 
L 197.427547 220.721504 
L 197.691653 202.707926 
L 197.955759 209.184166 
L 198.219865 222.1563 
L 198.483972 208.034363 
L 198.748078 223.689371 
L 199.012184 246.606808 
L 199.276291 240.130569 
L 199.540397 258.144146 
L 199.804503 242.489138 
L 200.068609 258.694479 
L 200.596822 223.532133 
L 200.860928 217.016583 
L 201.125035 231.413687 
L 201.389141 228.612885 
L 201.653247 215.640751 
L 201.917354 218.441553 
L 202.18146 230.76508 
L 202.445566 216.367977 
L 202.709672 229.340111 
L 202.973779 213.468901 
L 203.237885 207.769024 
L 203.501991 217.183649 
L 203.766098 217.183649 
L 204.030204 200.978308 
L 204.558416 238.970938 
L 204.822523 225.998804 
L 205.086629 240.395908 
L 205.350735 232.435734 
L 205.878948 353.174859 
L 206.143054 354.766894 
L 206.40716 333.362872 
L 206.671267 326.768703 
L 206.935373 343.917472 
L 207.199479 350.433022 
L 207.463586 364.830125 
L 207.991798 335.2399 
L 208.255905 201.646569 
L 208.520011 224.564007 
L 208.784117 200.251082 
L 209.048223 215.90609 
L 209.31233 239.983158 
L 209.576436 224.32815 
L 209.840542 230.843699 
L 210.104649 250.704824 
L 210.368755 236.582886 
L 210.632861 248.906414 
L 210.896967 244.798571 
L 211.42518 232.37677 
L 211.689286 238.076647 
L 211.953393 225.104513 
L 212.217499 218.215523 
L 212.481605 224.161085 
L 212.745711 239.816093 
L 213.009818 215.739025 
L 213.273924 209.223475 
L 213.53803 207.631441 
L 213.802137 215.277138 
L 214.066243 237.487005 
L 214.330349 242.803614 
L 214.594456 226.215006 
L 215.914987 287.144729 
L 216.179093 271.391447 
L 216.4432 295.468515 
L 216.707306 251.097919 
L 216.971412 265.495022 
L 217.235518 252.522888 
L 217.763731 271.047489 
L 218.027837 264.099535 
L 218.55605 292.726678 
L 218.820156 288.618835 
L 219.084262 266.762754 
L 219.348369 272.462631 
L 219.876581 237.703207 
L 220.140688 267.774973 
L 220.404794 253.653036 
L 220.6689 256.453838 
L 220.933007 270.909906 
L 221.197113 264.286255 
L 221.461219 281.435024 
L 221.725325 265.563814 
L 221.989432 272.452804 
L 222.253538 256.797796 
L 222.517644 272.551077 
L 222.781751 250.341211 
L 223.309963 282.555345 
L 223.574069 299.143953 
L 223.838176 282.555345 
L 224.102282 274.595171 
L 224.366388 296.805038 
L 224.630495 279.656269 
L 224.894601 290.21087 
L 225.158707 314.523795 
L 225.68692 270.349746 
L 226.479239 312.194707 
L 227.271558 295.104902 
L 227.535664 224.721245 
L 227.79977 219.23757 
L 228.327983 266.232076 
L 228.592089 250.577068 
L 229.120302 212.142206 
L 229.384408 222.696806 
L 229.648514 216.181257 
L 229.91262 201.784153 
L 230.176727 211.090676 
L 230.440833 232.494698 
L 230.969046 197.745102 
L 231.497258 240.946241 
L 231.761364 218.736374 
L 232.025471 236.749952 
L 232.289577 224.426424 
L 232.553683 206.412846 
L 233.081896 239.776783 
L 233.346002 220.888569 
L 233.610109 227.777559 
L 233.874215 216.200911 
L 234.138321 199.612303 
L 234.402427 210.166903 
L 234.93064 243.452221 
L 235.194746 232.897621 
L 235.458853 255.107487 
L 235.722959 230.794563 
L 235.987065 247.383171 
L 236.515278 234.391382 
L 236.779384 243.806007 
L 237.04349 287.714717 
L 237.307597 284.913915 
L 237.571703 275.49929 
L 237.835809 274.496898 
L 238.099915 283.852558 
L 238.364022 277.346836 
L 238.628128 297.20796 
L 238.892234 307.762561 
L 239.156341 283.685493 
L 239.420447 305.089515 
L 239.94866 319.55541 
L 240.476872 285.572349 
L 240.740978 266.330349 
L 241.005085 286.191474 
L 241.269191 295.606098 
L 241.533297 275.744974 
L 242.06151 307.929626 
L 242.325616 288.068502 
L 243.117935 333.628211 
L 243.382041 326.680257 
L 243.646148 304.824176 
L 243.910254 322.837754 
L 244.438466 290.495864 
L 245.230785 341.362355 
L 245.494892 333.402181 
L 245.758998 355.258263 
L 246.287211 330.306558 
L 246.551317 354.383626 
L 247.079529 316.253413 
L 247.343636 335.141627 
L 247.607742 328.626077 
L 247.871848 312.754867 
L 248.135955 316.86271 
L 248.400061 331.259814 
L 249.456486 255.186106 
L 249.720592 255.834713 
L 249.984699 296.077812 
L 250.248805 310.474916 
L 250.512911 304.529355 
L 250.777017 287.380586 
L 251.041124 293.896135 
L 251.30523 278.142854 
L 251.569336 284.088415 
L 252.361655 217.792946 
L 252.625762 221.497866 
L 252.889868 227.197743 
L 253.153974 243.786352 
L 253.41808 229.389248 
L 253.682187 247.402826 
L 253.946293 231.649544 
L 254.210399 244.975464 
L 254.474506 250.921026 
L 254.738612 243.973072 
L 255.002718 226.824303 
L 255.266824 232.75021 
L 256.059143 257.996736 
L 256.32325 276.88495 
L 256.587356 257.64295 
L 256.851462 273.396232 
L 257.379675 240.946241 
L 257.643781 257.534849 
L 257.907887 261.642692 
L 258.700206 242.538275 
L 259.756631 290.702238 
L 260.020738 296.402116 
L 260.284844 272.089191 
L 260.813057 262.281471 
L 261.077163 252.866846 
L 261.341269 271.75506 
L 261.869482 240.317289 
L 262.133588 259.647735 
L 262.397694 255.972296 
L 262.925907 274.437933 
L 263.190013 262.861286 
L 263.454119 243.619287 
L 263.718226 241.270544 
L 263.982332 222.38233 
L 264.246438 219.787903 
L 264.774651 258.635515 
L 265.038757 282.94844 
L 265.302864 268.551336 
L 265.56697 268.551336 
L 265.831076 292.628404 
L 266.095182 268.315479 
L 266.359289 274.015356 
L 266.887501 256.571766 
L 267.151608 263.087316 
L 267.415714 259.382395 
L 267.67982 266.330349 
L 268.208033 306.996026 
L 268.472139 304.195224 
L 268.736245 326.051305 
L 269.000352 314.474658 
L 269.264458 310.366815 
L 269.79267 278.27061 
L 270.056777 292.667713 
L 270.320883 315.585151 
L 270.584989 293.72907 
L 270.849096 300.234792 
L 271.113202 311.811439 
L 271.377308 302.396814 
L 271.641415 283.154815 
L 271.905521 300.303583 
L 272.433733 265.701397 
L 272.69784 281.572607 
L 272.961946 274.683618 
L 273.490159 317.943721 
L 273.754265 310.995767 
L 274.018371 330.237767 
L 274.546584 317.786483 
L 274.81069 300.794952 
L 275.338903 336.311084 
L 276.395328 361.793467 
L 277.187647 317.039603 
L 277.451753 310.563363 
L 277.979966 277.199426 
L 278.244072 283.675666 
L 278.508178 275.715492 
L 278.772284 288.687627 
L 279.300497 263.735922 
L 279.82871 217.566916 
L 280.092816 236.808916 
L 280.356922 239.609718 
L 280.621028 250.164318 
L 280.885135 244.218756 
L 281.149241 241.417955 
L 281.413347 228.44582 
L 281.677454 205.528382 
L 281.94156 219.925486 
L 282.205666 222.726288 
L 282.469772 212.171688 
L 282.733879 235.089125 
L 282.997985 219.335844 
L 283.262091 220.868914 
L 283.526198 224.976757 
L 283.790304 237.948891 
L 284.05441 231.472651 
L 284.582623 248.503492 
L 285.110835 232.140913 
L 285.639048 264.001262 
L 285.903154 285.857343 
L 286.167261 292.746332 
L 286.431367 317.059257 
L 286.695473 300.853916 
L 286.959579 294.338367 
L 287.223686 235.433083 
L 287.487792 213.223217 
L 287.751898 227.620321 
L 288.016005 251.697388 
L 288.280111 245.181839 
L 288.544217 232.858311 
L 288.808323 214.844734 
L 289.07243 232.6028 
L 289.336536 242.862579 
L 290.392961 324.49858 
L 291.18528 260.276687 
L 291.449386 256.100052 
L 291.713493 256.100052 
L 291.977599 238.951284 
L 292.241705 245.840273 
L 292.505812 258.812408 
L 292.769918 247.23576 
L 293.034024 265.249338 
L 293.29813 270.949215 
L 293.562237 251.707216 
L 293.826343 245.201494 
L 294.090449 246.233368 
L 294.354556 252.73909 
L 294.618662 246.233368 
L 295.146874 208.368494 
L 295.675087 252.689953 
L 295.939193 236.484613 
L 296.2033 256.345737 
L 296.467406 242.223799 
L 296.731512 257.878807 
L 296.995619 261.98665 
L 297.259725 246.331642 
L 297.523831 270.40871 
L 297.787937 250.547586 
L 298.052044 262.871113 
L 298.580256 228.268927 
L 298.844363 244.857536 
L 299.108469 225.969322 
L 299.372575 223.16852 
L 299.636681 207.29731 
L 299.900788 200.349356 
L 300.164894 188.025828 
L 300.429 187.013609 
L 300.693107 189.608035 
L 300.957213 189.608035 
L 301.485425 219.876349 
L 301.749532 196.958912 
L 302.013638 212.61392 
L 302.541851 201.902081 
L 303.070063 248.424873 
L 303.33417 254.930595 
L 303.598276 272.944172 
L 303.862382 259.972038 
L 304.126488 237.762171 
L 304.390595 248.316772 
L 304.654701 224.239704 
L 304.918807 244.100828 
L 305.182914 219.787903 
L 305.44702 212.839949 
L 305.711126 236.917017 
L 305.975232 222.519913 
L 306.239339 239.108522 
L 306.503445 232.632282 
L 306.767551 244.985292 
L 307.031658 269.298216 
L 307.295764 253.643209 
L 307.55987 253.643209 
L 307.823976 272.531423 
L 308.088083 251.127401 
L 308.352189 260.18824 
L 308.616295 285.257873 
L 308.880402 290.328798 
L 309.144508 298.760686 
L 309.408614 314.513967 
L 309.672721 295.271968 
L 309.936827 294.112337 
L 310.200933 284.697713 
L 310.465039 260.384788 
L 310.993252 236.091518 
L 311.521465 280.36384 
L 311.785571 207.199036 
L 312.049677 227.06016 
L 312.313783 220.554438 
L 312.57789 243.471876 
L 312.841996 236.523922 
L 313.370209 274.48707 
L 313.634315 258.733789 
L 313.898421 264.67935 
L 314.426634 301.581142 
L 314.69074 292.166517 
L 314.954846 308.371858 
L 315.218953 292.166517 
L 315.483059 286.46664 
L 316.011272 318.159923 
L 316.275378 294.082855 
L 316.539484 310.288196 
L 316.80359 335.819715 
L 317.067697 341.519593 
L 317.331803 318.602155 
L 317.595909 313.973462 
L 318.652334 241.77174 
L 318.916441 253.348387 
L 319.444653 233.880358 
L 319.70876 226.991369 
L 319.972866 241.732431 
L 320.236972 225.52709 
L 320.765185 233.103996 
L 321.029291 251.99221 
L 321.293397 232.75021 
L 321.557504 251.756353 
L 321.82161 255.864195 
L 322.349823 226.303452 
L 322.613929 255.559547 
L 322.878035 266.114147 
L 323.142141 290.191215 
L 323.406248 268.787193 
L 323.670354 275.292915 
L 323.93446 263.716268 
L 324.462673 299.271709 
L 324.726779 296.126949 
L 324.990885 289.680191 
L 325.254992 296.628145 
L 326.047311 344.084538 
L 326.575523 310.34716 
L 326.839629 316.86271 
L 327.367842 331.977212 
L 327.631948 315.771871 
L 327.896055 331.977212 
L 328.160161 312.116088 
L 328.424267 336.429013 
L 328.95248 301.787517 
L 329.216586 317.540799 
L 329.480692 311.035077 
L 330.008905 324.017039 
L 330.273011 314.602414 
L 330.537118 320.547975 
L 330.801224 304.342634 
L 331.329436 290.947923 
L 331.857649 316.567889 
L 332.385862 278.958526 
L 332.649968 300.362548 
L 332.914074 287.390413 
L 333.17818 263.077488 
L 333.442287 284.93357 
L 333.706393 268.728229 
L 333.970499 275.617218 
L 334.498712 250.547586 
L 334.762818 259.962211 
L 335.026925 234.794304 
L 335.291031 251.923418 
L 335.555137 254.72422 
L 335.819243 261.61321 
L 336.347456 227.069988 
L 336.611562 234.017942 
L 337.403881 281.739673 
L 337.667987 266.084665 
L 338.1962 278.919216 
L 338.460306 296.067985 
L 338.724413 298.868787 
L 338.988519 315.074128 
L 339.252625 323.034301 
L 339.780838 284.560129 
L 340.30905 245.14253 
L 340.573157 257.466057 
L 340.837263 241.594847 
L 341.101369 238.794046 
L 341.365476 226.470518 
L 341.629582 250.783443 
L 342.421901 290.476209 
L 342.950113 318.641465 
L 343.478326 284.904087 
L 343.742432 278.388538 
L 344.006538 294.259748 
L 344.270645 278.054407 
L 344.798857 311.791784 
L 345.062964 305.315545 
L 345.855282 263.441101 
L 346.119389 279.096109 
L 346.911708 223.600924 
L 347.175814 234.243971 
L 347.43992 237.044773 
L 347.704027 258.448795 
L 347.968133 264.925035 
L 348.232239 279.322139 
L 348.496345 268.767538 
L 349.024558 293.935445 
L 349.288664 278.182163 
L 349.552771 300.39203 
L 349.816877 284.737022 
L 350.080983 291.242744 
L 350.345089 287.134901 
L 350.609196 306.023116 
L 350.873302 293.699588 
L 351.401515 280.304876 
L 351.665621 296.176086 
L 351.929727 274.772064 
L 352.193833 265.357439 
L 352.45794 246.11544 
L 353.250259 282.083631 
L 353.514365 274.123457 
L 353.778471 307.595495 
L 354.042578 311.703338 
L 354.306684 207.886952 
L 354.57079 186.030871 
L 354.834896 207.434893 
L 355.099003 198.020268 
L 355.363109 181.028737 
L 355.627215 191.20007 
L 355.891322 194.000872 
L 356.155428 210.58948 
L 356.419534 202.629307 
L 356.68364 209.577261 
L 356.947747 193.37192 
L 357.211853 213.233044 
L 357.740066 184.3897 
L 358.532384 230.008373 
L 358.796491 223.502651 
L 359.060597 227.610493 
L 359.324703 224.809691 
L 359.58881 217.920702 
L 359.852916 223.620579 
L 360.117022 207.867298 
L 360.381129 201.351748 
L 360.645235 185.69674 
L 360.909341 200.025053 
L 361.173447 281.837947 
L 361.437554 301.699071 
L 361.70166 285.827861 
L 361.965766 296.382461 
L 362.229873 320.459529 
L 362.493979 304.254188 
L 362.758085 320.459529 
L 363.286298 300.490304 
L 363.550404 306.435865 
L 363.81451 327.839887 
L 364.078617 312.184879 
L 364.606829 297.718984 
L 364.870935 304.666938 
L 365.399148 334.935252 
L 365.663254 328.98969 
L 365.927361 313.11848 
L 366.191467 306.170526 
L 366.455573 322.041736 
L 366.71968 315.152747 
L 366.983786 298.023633 
L 367.247892 298.023633 
L 367.511998 183.839367 
L 367.776105 188.65478 
L 368.040211 204.408062 
L 368.304317 197.90234 
L 368.83253 244.936155 
L 369.096636 223.532133 
L 369.624849 226.676893 
L 369.888955 241.191925 
L 370.153061 248.080915 
L 370.417168 259.657562 
L 370.681274 282.575 
L 370.94538 289.05124 
L 371.473593 327.761268 
L 372.265912 266.408968 
L 372.530018 287.81299 
L 372.794124 293.512868 
L 373.058231 286.997318 
L 373.322337 311.074386 
L 373.586443 305.374509 
L 373.850549 295.959884 
L 374.114656 205.764239 
L 374.378762 212.712193 
L 374.642868 195.720663 
L 374.906975 202.196902 
L 375.171081 186.325692 
L 375.699293 215.689888 
L 375.9634 230.086992 
L 376.227506 219.532391 
L 376.491612 202.943783 
L 377.019825 249.230717 
L 377.283931 258.625688 
L 377.812144 304.342634 
L 378.340356 269.24908 
L 378.604463 266.448278 
L 379.132675 298.092424 
L 379.396782 273.779499 
L 379.660888 295.989366 
L 379.924994 278.840597 
L 380.1891 285.729587 
L 380.453207 309.806655 
L 380.717313 302.858701 
L 381.245526 269.091842 
L 381.509632 313.030034 
L 381.773738 298.839305 
L 382.037844 300.146345 
L 382.301951 311.722993 
L 382.566057 318.228715 
L 382.830163 306.652068 
L 383.358376 273.288131 
L 383.886588 239.619545 
L 384.150695 236.347029 
L 384.414801 220.259617 
L 384.678907 240.120741 
L 384.943014 225.723637 
L 385.471226 246.361124 
L 385.735332 253.250114 
L 385.999439 242.400692 
L 386.527651 273.789327 
L 387.055864 241.712776 
L 387.31997 248.228325 
L 387.848183 215.483513 
L 388.112289 214.677668 
L 388.376395 230.43095 
L 388.640502 224.731072 
L 388.904608 221.930271 
L 389.168714 238.135611 
L 389.432821 244.641333 
L 389.696927 268.954258 
L 389.961033 274.654136 
L 390.225139 270.546293 
L 390.489246 217.016583 
L 390.753352 239.22645 
L 391.281565 260.964603 
L 391.545671 245.309595 
L 391.809777 242.508793 
L 392.602096 290.486036 
L 392.866202 284.540475 
L 393.130309 275.12585 
L 393.394415 290.879131 
L 393.658521 289.719501 
L 393.922628 308.961501 
L 394.45084 264.187982 
L 394.714946 270.133543 
L 394.979053 266.025701 
L 395.243159 290.102769 
L 395.771372 253.712 
L 396.827797 324.989949 
L 397.091903 303.585927 
L 397.356009 311.5461 
L 398.148328 261.544418 
L 398.412434 280.432632 
L 398.676541 268.109104 
L 398.940647 282.506208 
L 399.46886 250.547586 
L 399.732966 226.470518 
L 399.997072 212.564783 
L 400.261179 226.68672 
L 400.525285 249.604158 
L 400.789391 227.394291 
L 401.053497 234.283281 
L 401.317604 246.606808 
L 402.374029 192.792105 
L 402.638135 212.034104 
L 402.902241 218.539826 
L 403.430454 251.893936 
L 403.69456 236.022726 
L 403.958667 229.517004 
L 404.486879 256.237636 
L 404.750985 248.277462 
L 405.015092 264.148672 
L 405.279198 260.04083 
L 405.543304 247.717302 
L 406.071517 254.625946 
L 406.335623 248.926069 
L 406.59973 246.125267 
L 406.863836 270.438192 
L 407.127942 279.852817 
L 407.392048 263.647476 
L 407.656155 268.83633 
L 407.920261 251.687561 
L 408.184367 243.059126 
L 408.448474 223.817127 
L 408.71258 223.817127 
L 409.504899 253.859411 
L 409.769005 229.782343 
L 410.033111 247.795921 
L 410.297218 241.280371 
L 410.561324 247.658338 
L 410.82543 250.459139 
L 411.089536 232.445562 
L 411.353643 249.437092 
L 411.617749 241.476919 
L 412.145962 272.187465 
L 412.410068 269.386663 
L 412.674174 255.264725 
L 412.938281 232.347288 
L 413.202387 248.552629 
L 413.466493 254.055958 
L 413.730599 253.672691 
L 413.994706 276.590128 
L 414.258812 282.53569 
L 414.522918 271.98109 
L 415.051131 308.312894 
L 415.315237 295.340759 
L 415.579343 301.856309 
L 415.84345 294.908355 
L 416.107556 314.769479 
L 416.371662 302.445951 
L 416.899875 261.141496 
L 417.163981 271.696096 
L 417.428087 249.486229 
L 417.692194 255.186106 
L 417.9563 241.064169 
L 418.220406 265.141237 
L 418.748619 233.064686 
L 419.012725 248.935896 
L 419.276832 230.047682 
L 419.540938 249.289682 
L 420.06915 236.26841 
L 420.333257 260.581335 
L 420.597363 236.504267 
L 420.861469 252.709608 
L 421.125576 260.669782 
L 421.389682 276.423063 
L 421.917894 240.906931 
L 422.182001 255.028868 
L 422.446107 277.238735 
L 422.710213 267.82411 
L 422.97432 252.070829 
L 423.238426 259.018783 
L 423.766638 299.311019 
L 424.030745 236.337202 
L 424.558957 261.98665 
L 425.351276 212.957878 
L 425.615383 212.957878 
L 425.879489 211.709801 
L 426.143595 218.598791 
L 426.407701 230.175438 
L 426.671808 223.286448 
L 426.935914 210.314314 
L 427.20002 219.178606 
L 427.464127 217.429333 
L 427.728233 245.683035 
L 427.992339 230.028027 
L 428.256445 228.67185 
L 428.520552 219.257225 
L 428.784658 226.146214 
L 429.048764 223.345413 
L 429.312871 246.26285 
L 429.841083 206.196644 
L 430.369296 242.55793 
L 430.897508 258.920509 
L 431.161615 246.596981 
L 431.425721 262.350263 
L 431.689827 244.336685 
L 431.953934 255.913332 
L 432.21804 241.791395 
L 432.482146 236.091518 
L 433.010359 211.326533 
L 433.274465 218.775683 
L 433.802678 255.264725 
L 434.066784 262.212679 
L 434.594996 231.944365 
L 435.123209 261.534591 
L 435.387315 277.189598 
L 435.651422 262.792494 
L 436.179634 300.922708 
L 436.44374 281.061584 
L 436.707847 294.033718 
L 436.971953 237.545969 
L 437.236059 231.728163 
L 437.500166 237.673725 
L 437.764272 255.687303 
L 438.028378 249.171753 
L 438.292485 262.723703 
L 438.556591 240.867622 
L 438.820697 253.839756 
L 439.084803 235.826178 
L 439.34891 247.402826 
L 439.613016 231.747818 
L 439.877122 250.989818 
L 440.669441 271.34231 
L 440.933547 249.132444 
L 441.197654 258.547069 
L 441.46176 252.847191 
L 441.725866 286.633705 
L 441.989973 300.755643 
L 442.254079 291.773422 
L 442.518185 304.745557 
L 442.782291 288.540216 
L 443.046398 282.063976 
L 443.310504 288.569698 
L 443.57461 282.063976 
L 443.838717 296.46108 
L 444.102823 205.223734 
L 445.159248 261.495281 
L 445.423354 254.547327 
L 445.951567 296.009021 
L 446.215673 293.208219 
L 446.743886 261.937513 
L 447.007992 274.261041 
L 447.536205 259.785318 
L 447.800311 243.579977 
L 448.064417 250.095526 
L 448.328524 239.540926 
L 448.59263 220.652712 
L 448.856736 214.14699 
L 449.120842 218.254833 
L 449.384949 198.393708 
L 449.649055 205.282698 
L 449.913161 198.393708 
L 450.177268 219.79773 
L 450.441374 226.68672 
L 450.70548 241.083824 
L 450.969587 221.841824 
L 451.233693 227.787386 
L 451.497799 211.198778 
L 451.761905 205.253216 
L 452.026012 180.940291 
L 452.290118 168.616763 
L 452.818331 201.902081 
L 453.082437 180.498059 
L 453.346543 176.390217 
L 453.610649 176.390217 
L 453.874756 181.57907 
L 454.138862 177.736567 
L 454.667075 211.994795 
L 454.931181 196.241513 
L 455.195287 199.042315 
L 455.459393 179.181191 
L 455.7235 195.386532 
L 455.987606 201.332093 
L 456.251712 195.632216 
L 456.515819 211.287224 
L 456.779925 270.575775 
L 457.308138 284.412719 
L 457.572244 262.202852 
L 457.83635 272.757452 
L 458.100456 260.433925 
L 458.364563 263.234726 
L 458.628669 244.346512 
L 458.892775 247.481445 
L 459.156882 225.625364 
L 459.420988 225.625364 
L 459.685094 242.616894 
L 459.9492 274.644308 
L 460.213307 260.522371 
L 460.477413 272.099018 
L 460.741519 278.575258 
L 461.005626 302.652326 
L 461.269732 296.706764 
L 461.533838 286.152164 
L 461.797944 264.296083 
L 462.062051 271.185072 
L 462.326157 259.608425 
L 462.590263 238.204403 
L 462.85437 250.527931 
L 463.118476 246.420088 
L 463.382582 245.643726 
L 463.646689 228.082207 
L 463.910795 244.287548 
L 464.174901 250.23311 
L 464.439007 265.986391 
L 464.703114 248.99486 
L 464.96722 259.549461 
L 465.759539 312.066951 
L 466.023645 304.106777 
L 466.815964 245.909065 
L 467.08007 243.108263 
L 467.608283 270.664222 
L 467.872389 211.198778 
L 468.136495 270.664222 
L 468.400602 286.417503 
L 468.664708 292.363065 
L 468.928814 279.39093 
L 469.192921 296.539699 
L 469.457027 272.462631 
L 469.721133 279.410585 
L 470.513452 323.368432 
L 470.777558 330.257421 
L 471.041665 340.812022 
L 471.305771 333.864068 
L 471.833984 295.782991 
L 472.09809 284.206344 
L 472.362196 303.094558 
L 472.626302 285.945789 
L 472.890409 281.837947 
L 473.154515 262.949732 
L 473.418621 284.540475 
L 474.21094 243.57015 
L 474.475046 243.57015 
L 474.739153 229.448212 
L 475.003259 256.522629 
L 475.267365 258.664997 
L 475.531472 262.812149 
L 475.795578 273.297958 
L 476.059684 272.295566 
L 476.323791 296.372634 
L 476.587897 303.320588 
L 476.852003 286.329057 
L 477.116109 292.844606 
L 477.380216 277.091325 
L 477.908428 264.669523 
L 478.436641 222.34302 
L 478.700747 211.699974 
L 478.964853 211.22826 
L 479.22896 198.786803 
L 479.493066 207.651095 
L 480.021279 241.820877 
L 480.285385 236.121 
L 480.549491 221.2227 
L 480.813597 227.69894 
L 481.34181 199.99557 
L 482.134129 219.532391 
L 482.398235 219.532391 
L 482.662342 197.322525 
L 482.926448 324.370824 
L 483.190554 330.847064 
L 483.45466 343.819198 
L 483.718767 349.519076 
L 483.982873 345.411233 
L 484.511086 308.25393 
L 484.775192 308.25393 
L 485.039298 296.254705 
L 485.303404 321.117963 
L 485.567511 296.805038 
L 486.35983 316.774263 
L 486.623936 294.564397 
L 486.888042 310.317678 
L 487.152148 307.516876 
L 487.416255 291.861869 
L 487.944467 278.398365 
L 488.208574 261.406835 
L 488.47268 267.922384 
L 488.736786 277.337009 
L 489.264999 243.078781 
L 489.529105 265.996219 
L 490.057318 280.904346 
L 490.321424 304.981414 
L 490.58553 310.926975 
L 490.849637 330.168975 
L 491.113743 323.663253 
L 491.377849 345.067275 
L 491.641955 320.990207 
L 492.170168 302.465606 
L 492.698381 326.365781 
L 492.962487 307.477567 
L 493.226593 301.77769 
L 493.490699 323.987556 
L 493.754806 330.493278 
L 494.018912 333.29408 
L 494.547125 310.907321 
L 494.811231 310.907321 
L 495.075337 326.562329 
L 495.339444 319.673339 
L 495.60355 339.534463 
L 495.867656 320.292464 
L 496.131762 313.776914 
L 496.395869 330.768445 
L 496.924081 292.893743 
L 497.188188 307.290847 
L 497.7164 269.298216 
L 497.980506 242.734823 
L 498.244613 264.590904 
L 498.508719 271.067144 
L 498.772825 288.058675 
L 499.301038 246.960594 
L 499.82925 277.563039 
L 500.357463 233.624847 
L 500.621569 236.425648 
L 501.413888 197.833548 
L 501.677995 250.537758 
L 501.942101 272.747625 
L 502.206207 257.092617 
L 502.73442 288.530389 
L 502.998526 267.126367 
L 503.262632 256.571766 
L 503.526739 239.580236 
L 503.790845 255.146797 
L 504.319057 213.429592 
L 504.583164 236.347029 
L 504.84727 242.852751 
L 505.375483 229.870789 
L 505.639589 245.624071 
L 506.431908 195.838591 
L 506.696014 219.915659 
L 506.96012 195.838591 
L 507.752439 249.152098 
L 508.016546 243.452221 
L 508.280652 243.452221 
L 508.544758 238.410778 
L 508.808864 241.21158 
L 509.072971 252.788227 
L 509.601183 282.751892 
L 509.86529 279.951091 
L 510.129396 286.46664 
L 510.393502 279.951091 
L 510.657608 267.627563 
L 511.449927 297.02124 
L 511.714034 316.882365 
L 511.97814 302.485261 
L 512.242246 319.073869 
L 512.506352 306.101735 
L 512.770459 308.902536 
L 513.034565 286.69267 
L 513.298671 286.69267 
L 513.562778 299.664804 
L 514.09099 285.228391 
L 514.355097 268.079622 
L 514.619203 261.5739 
L 514.883309 275.695837 
L 515.411522 248.975206 
L 515.939734 283.488945 
L 516.203841 270.516811 
L 516.732053 231.207312 
L 516.996159 241.801222 
L 517.260266 247.746784 
L 517.524372 244.945982 
L 517.788478 259.343086 
L 518.316691 217.272095 
L 518.580797 298.25949 
L 518.844903 311.231624 
L 519.10901 311.231624 
L 519.373116 289.375543 
L 519.637222 295.881265 
L 519.901329 279.292656 
L 520.165435 255.215589 
L 520.429541 271.804197 
L 520.693648 296.490562 
L 520.957754 280.285221 
L 521.22186 297.43399 
L 521.485966 297.43399 
L 521.750073 303.91023 
L 522.014179 320.115571 
L 522.542392 314.720342 
L 522.806498 322.680516 
L 523.070604 315.791526 
L 523.33471 301.394422 
L 523.598817 315.791526 
L 524.127029 294.800254 
L 524.391136 311.791784 
L 524.655242 306.091907 
L 524.919348 304.69642 
L 525.183454 316.273067 
L 525.711667 326.080787 
L 525.975773 308.932018 
L 526.23988 324.6853 
L 526.503986 304.824176 
L 526.768092 321.972945 
L 527.032199 327.918506 
L 527.296305 311.329898 
L 527.560411 311.329898 
L 527.824517 295.576616 
L 528.088624 311.329898 
L 528.35273 297.20796 
L 528.616836 291.508083 
L 528.880943 298.023633 
L 529.145049 275.813766 
L 529.409155 282.76172 
L 529.937368 249.093134 
L 530.201474 263.215072 
L 530.729687 221.40942 
L 531.257899 263.735922 
L 531.522005 252.159275 
L 531.786112 254.960077 
L 532.578431 219.05085 
L 532.842537 219.05085 
L 533.106643 202.845509 
L 533.37075 222.706633 
L 533.634856 215.758679 
L 533.898962 239.835747 
L 534.163068 225.71381 
L 534.691281 220.692021 
L 534.955387 220.692021 
L 535.4836 233.526573 
L 535.747706 255.736439 
L 536.011812 249.22089 
L 536.275919 231.207312 
L 536.540025 250.095526 
L 537.068238 262.743358 
L 537.332344 257.04348 
L 537.59645 241.290199 
L 537.860556 255.412136 
L 538.124663 261.112013 
L 538.388769 255.166452 
L 538.652875 268.138586 
L 538.916982 246.282505 
L 539.181088 268.138586 
L 539.445194 246.734564 
L 539.709301 270.811632 
L 539.973407 277.327182 
L 540.237513 298.731204 
L 540.501619 279.842989 
L 540.765726 282.643791 
L 541.029832 301.885791 
L 541.293938 299.084989 
L 541.558045 294.977146 
L 541.822151 288.029193 
L 542.086257 302.426296 
L 542.350363 278.349229 
L 542.61447 270.389055 
L 542.878576 248.179188 
L 543.142682 249.437092 
L 543.406789 272.35453 
L 543.670895 250.950508 
L 543.935001 249.456747 
L 544.199107 236.484613 
L 544.463214 242.430174 
L 544.72732 282.201559 
L 544.991426 298.072769 
L 545.519639 286.044063 
L 546.047852 325.953031 
L 546.311958 311.831094 
L 547.104277 243.452221 
L 547.368383 249.152098 
L 548.160702 205.331835 
L 548.424808 219.728939 
L 548.953021 230.352331 
L 549.217127 248.365908 
L 549.481233 283.567564 
L 549.74534 301.581142 
L 550.009446 308.175311 
L 550.273552 295.851783 
L 550.537658 278.04458 
L 550.801765 290.368108 
L 551.329977 253.092876 
L 551.594084 255.195934 
L 551.85819 255.195934 
L 552.122296 261.141496 
L 552.650509 228.347546 
L 552.914615 231.128693 
L 553.706934 279.263174 
L 553.97104 275.155332 
L 554.235147 292.146863 
L 554.499253 275.155332 
L 554.763359 268.64961 
L 555.291572 268.64961 
L 555.555678 246.793529 
L 555.819784 246.793529 
L 556.083891 253.682518 
L 556.347997 257.2302 
L 556.612103 238.341986 
L 556.876209 231.423515 
L 557.140316 231.423515 
L 557.404422 241.978115 
L 557.668528 229.654587 
L 558.196741 261.98665 
L 558.460847 267.381878 
L 558.724954 257.967254 
L 558.98906 260.217722 
L 559.253166 245.32925 
L 559.517272 249.437092 
L 559.781379 230.548878 
L 560.045485 242.872406 
L 560.309591 261.76062 
L 560.573698 269.720794 
L 560.837804 252.572025 
L 561.366016 239.737474 
L 561.630123 259.598598 
L 561.894229 235.285673 
L 562.158335 228.809433 
L 562.686548 196.624781 
L 562.950654 206.039406 
L 563.742973 268.315479 
L 564.007079 253.918375 
L 564.271186 250.370693 
L 564.535292 249.800705 
L 564.799398 263.55903 
L 565.327611 236.248756 
L 565.591717 233.447954 
L 565.855823 235.187399 
L 566.11993 213.675276 
L 566.384036 204.260651 
L 566.912249 233.103996 
L 567.176355 226.156042 
L 567.440461 209.567433 
L 567.704567 211.965313 
L 567.968674 236.278238 
L 568.23278 233.221924 
L 568.496886 248.641075 
L 568.760993 239.560581 
L 569.289205 205.017359 
L 569.553311 205.017359 
L 569.817418 224.259358 
L 570.081524 213.704758 
L 570.34563 250.390348 
L 570.873843 212.328926 
L 571.137949 212.328926 
L 571.402056 228.534266 
L 571.666162 275.489463 
L 572.194374 311.103868 
L 572.458481 322.680516 
L 572.722587 329.196065 
L 572.986693 322.307075 
L 573.2508 302.445951 
L 573.514906 298.338109 
L 573.779012 304.037986 
L 574.307225 268.207378 
L 574.571331 281.179512 
L 574.835437 281.179512 
L 575.099544 274.67379 
L 575.36365 258.46845 
L 575.627756 234.391382 
L 575.891862 241.280371 
L 576.155969 257.86898 
L 576.420075 265.829153 
L 576.684181 247.815576 
L 576.948288 241.339336 
L 577.212394 226.942232 
L 577.4765 220.053242 
L 578.004713 189.342696 
L 578.268819 189.342696 
L 578.532925 177.343472 
L 578.797032 181.451315 
L 579.061138 181.451315 
L 579.325244 157.13839 
L 579.853457 195.553597 
L 580.117563 173.697516 
L 580.645776 173.697516 
L 580.909882 197.774584 
L 581.173988 200.575386 
L 581.438095 193.627432 
L 581.702201 193.627432 
L 581.966307 209.28244 
L 582.49452 171.417565 
L 582.758626 171.417565 
L 583.022732 167.309722 
L 583.286839 166.032164 
L 583.550945 167.152484 
L 583.815051 158.288192 
L 584.343264 158.288192 
L 584.60737 172.685296 
L 584.871476 172.685296 
L 585.135583 166.739735 
L 585.399689 182.394742 
L 585.663795 170.071215 
L 585.927902 177.235371 
L 586.192008 177.235371 
L 586.456114 191.583338 
L 586.72022 194.38414 
L 586.984327 194.38414 
L 587.248433 213.272354 
L 587.512539 201.695706 
L 587.776646 208.201428 
L 588.304858 183.131796 
L 588.568964 183.131796 
L 588.833071 201.145373 
L 589.097177 201.145373 
L 589.361283 208.614178 
L 589.62539 230.470259 
L 589.889496 218.893612 
L 590.153602 218.893612 
L 590.945921 258.448795 
L 591.210027 242.243454 
L 591.474134 218.166386 
L 591.73824 218.166386 
L 592.002346 195.248949 
L 592.266453 210.58948 
L 593.058771 210.58948 
L 593.322878 216.535042 
L 593.586984 193.617604 
L 594.115197 193.617604 
L 594.379303 194.050009 
L 594.643409 194.050009 
L 595.171622 211.04154 
L 595.435728 211.04154 
L 595.699834 189.185458 
L 595.963941 195.701008 
L 596.228047 178.552239 
L 596.492153 178.552239 
L 596.75626 171.663249 
L 597.020366 171.663249 
L 597.284472 165.717688 
L 597.548578 184.959687 
L 597.812685 166.94611 
L 598.076791 173.422349 
L 598.340897 191.435927 
L 598.605004 179.112399 
L 599.133216 179.112399 
L 599.397322 161.098822 
L 599.661429 167.987811 
L 600.189641 190.856112 
L 600.453748 185.225026 
L 600.717854 199.346964 
L 601.246066 199.346964 
L 601.774279 226.676893 
L 602.038385 226.676893 
L 602.302492 248.886759 
L 602.566598 242.37121 
L 602.830704 242.37121 
L 603.094811 220.161343 
L 603.358917 214.215782 
L 603.887129 214.215782 
L 604.151236 203.661181 
L 604.415342 207.867298 
L 604.679448 188.625298 
L 604.943555 188.625298 
L 605.207661 204.496508 
L 605.471767 204.496508 
L 605.735873 188.8415 
L 605.99998 188.8415 
L 606.264086 189.411488 
L 606.528192 193.519331 
L 606.792299 177.648121 
L 607.056405 177.648121 
L 607.320511 170.759131 
L 608.11283 170.759131 
L 608.376936 181.313731 
L 608.905149 167.722472 
L 609.169255 195.396359 
L 609.433362 195.396359 
L 609.697468 214.284573 
L 609.961574 219.984451 
L 610.22568 236.189791 
L 610.489787 229.241837 
L 610.753893 229.625105 
L 611.546212 229.625105 
L 611.810318 227.030678 
L 612.074424 251.107746 
L 612.338531 245.162184 
L 612.602637 257.485712 
L 612.866743 248.071087 
L 613.923168 187.68187 
L 614.451381 226.254316 
L 614.715487 220.554438 
L 616.036019 220.554438 
L 616.300125 210.510861 
L 616.564231 187.593424 
L 616.828338 193.293301 
L 617.092444 193.293301 
L 617.35655 190.492499 
L 617.620657 168.282632 
L 617.884763 166.857663 
L 620.261719 166.857663 
L 620.525826 189.06753 
L 620.789932 166.857663 
L 621.582251 166.857663 
L 621.846357 148.844085 
L 622.110464 148.844085 
L 622.37457 158.946627 
L 622.638676 161.747428 
L 622.902782 161.747428 
L 623.166889 146.092421 
L 623.430995 146.092421 
L 623.695101 160.214358 
L 623.959208 160.214358 
L 624.223314 147.89083 
L 624.751526 147.89083 
L 625.015633 160.214358 
L 625.543845 160.214358 
L 625.807952 147.242223 
L 626.60027 147.242223 
L 626.864377 171.319291 
L 627.920802 171.319291 
L 628.184908 182.895939 
L 628.449015 178.788096 
L 628.977227 178.788096 
L 629.241333 173.088219 
L 629.50544 183.642819 
L 631.090077 183.642819 
L 631.354184 182.109749 
L 632.938821 182.109749 
L 633.202928 179.849452 
L 634.259353 179.849452 
L 634.523459 174.385432 
L 635.843991 174.385432 
L 636.108097 166.169747 
L 639.277372 166.169747 
L 639.541479 155.615147 
L 639.805585 173.628724 
L 640.069691 156.479956 
L 643.503073 156.479956 
L 643.767179 153.797082 
L 644.295392 153.797082 
L 644.559498 147.320842 
L 644.823605 155.281016 
L 645.087711 141.159078 
L 645.615923 141.159078 
L 645.88003 124.953738 
L 646.672349 124.953738 
L 646.936455 118.448016 
L 659.349451 118.448016 
L 659.613557 117.799409 
L 666.48032 117.799409 
L 666.744427 112.757966 
L 670.441915 112.757966 
L 670.706021 112.286252 
L 678.893316 112.286252 
L 679.157422 116.551332 
L 751.522546 116.551332 
L 751.786653 106.910678 
L 753.635397 106.910678 
L 753.899503 100.021688 
L 754.427716 100.021688 
L 754.691822 97.427261 
L 762.086798 97.427261 
L 762.350904 95.353685 
L 834.716028 95.353685 
L 834.980135 88.887273 
L 871.690909 88.887273 
L 871.690909 88.887273 
" style="fill:none;stroke:#8dd3c7;stroke-linecap:square;stroke-width:1.5;"/>
   </g>
   <g id="line2d_17">
    <path clip-path="url(#pb4e990f361)" d="M 161.509091 168.272805 
L 191.617208 168.272805 
L 191.881314 144.392285 
L 644.823605 144.392285 
L 645.087711 141.159078 
L 645.615923 141.159078 
L 645.88003 124.953738 
L 646.672349 124.953738 
L 646.936455 118.448016 
L 659.349451 118.448016 
L 659.613557 117.799409 
L 666.48032 117.799409 
L 666.744427 112.757966 
L 670.441915 112.757966 
L 670.706021 112.286252 
L 751.522546 112.286252 
L 751.786653 106.910678 
L 753.635397 106.910678 
L 753.899503 100.021688 
L 754.427716 100.021688 
L 754.691822 97.427261 
L 762.086798 97.427261 
L 762.350904 95.353685 
L 834.716028 95.353685 
L 834.980135 88.887273 
L 871.690909 88.887273 
L 871.690909 88.887273 
" style="fill:none;stroke:#feffb3;stroke-linecap:square;stroke-width:1.5;"/>
   </g>
   <g id="line2d_18">
    <path clip-path="url(#pb4e990f361)" d="M 161.509091 263.060782 
L 163.886048 263.060782 
L 164.150154 280.130963 
L 166.52711 280.130963 
L 166.791217 295.883657 
L 169.168173 295.883657 
L 169.43228 310.420549 
L 171.809236 310.420549 
L 172.073343 323.835475 
L 174.450299 323.835475 
L 174.714405 336.215029 
L 177.091362 336.215029 
L 177.355468 347.639122 
L 179.732425 347.639122 
L 179.996531 358.181497 
L 182.373488 358.181497 
L 182.637594 367.910205 
L 185.014551 367.910205 
L 185.278657 376.888046 
L 187.655614 376.888046 
L 187.91972 385.172971 
L 190.296677 385.172971 
L 190.560783 392.818462 
L 192.93774 392.818462 
L 193.201846 399.873868 
L 195.578803 399.873868 
L 195.842909 406.384735 
L 198.219865 406.384735 
L 198.483972 412.393089 
L 200.860928 412.393089 
L 201.125035 417.937714 
L 203.501991 417.937714 
L 203.766098 423.054402 
L 206.143054 423.054402 
L 206.40716 427.776181 
L 208.784117 427.776181 
L 209.048223 432.133531 
L 211.42518 432.133531 
L 211.689286 436.154577 
L 214.066243 436.154577 
L 214.330349 439.865277 
L 216.707306 439.865277 
L 216.971412 443.289583 
L 219.348369 443.289583 
L 219.612475 446.449599 
L 221.989432 446.449599 
L 222.253538 449.365723 
L 224.630495 449.365723 
L 224.894601 452.056779 
L 227.271558 452.056779 
L 227.535664 454.540138 
L 229.91262 454.540138 
L 230.176727 456.831829 
L 232.553683 456.831829 
L 232.81779 458.946647 
L 235.194746 458.946647 
L 235.458853 460.898241 
L 237.835809 460.898241 
L 238.099915 462.699211 
L 240.476872 462.699211 
L 240.740978 464.36118 
L 243.117935 464.36118 
L 243.382041 465.894878 
L 245.758998 465.894878 
L 246.023104 467.310204 
L 248.400061 467.310204 
L 248.664167 468.616294 
L 251.041124 468.616294 
L 251.30523 469.82158 
L 253.682187 469.82158 
L 253.946293 470.93384 
L 256.32325 470.93384 
L 256.587356 471.960256 
L 258.964313 471.960256 
L 259.228419 472.907453 
L 261.605375 472.907453 
L 261.869482 473.781544 
L 264.246438 473.781544 
L 264.510545 474.588173 
L 266.887501 474.588173 
L 267.151608 475.332545 
L 269.528564 475.332545 
L 269.79267 476.019466 
L 272.169627 476.019466 
L 272.433733 476.653371 
L 274.81069 476.653371 
L 275.074796 477.23835 
L 277.451753 477.23835 
L 277.715859 477.77818 
L 280.092816 477.77818 
L 280.356922 478.276346 
L 282.733879 478.276346 
L 282.997985 478.736063 
L 285.374942 478.736063 
L 285.639048 479.160299 
L 288.016005 479.160299 
L 288.280111 479.551792 
L 290.657068 479.551792 
L 290.921174 479.913069 
L 293.29813 479.913069 
L 293.562237 480.246463 
L 295.939193 480.246463 
L 296.2033 480.554125 
L 298.580256 480.554125 
L 298.844363 480.838042 
L 301.221319 480.838042 
L 301.485425 481.100046 
L 303.862382 481.100046 
L 304.126488 481.341828 
L 306.503445 481.341828 
L 306.767551 481.564949 
L 309.144508 481.564949 
L 309.408614 481.77085 
L 311.785571 481.77085 
L 312.049677 481.960859 
L 314.426634 481.960859 
L 314.69074 482.136203 
L 317.067697 482.136203 
L 317.331803 482.298014 
L 319.70876 482.298014 
L 319.972866 482.447336 
L 322.349823 482.447336 
L 322.613929 482.585134 
L 324.990885 482.585134 
L 325.254992 482.712296 
L 327.631948 482.712296 
L 328.160161 482.829644 
L 332.914074 482.937935 
L 333.442287 483.037868 
L 338.1962 483.130088 
L 338.724413 483.21519 
L 343.478326 483.293724 
L 344.006538 483.366197 
L 348.760452 483.433076 
L 349.288664 483.494794 
L 356.68364 483.604306 
L 357.475959 483.652808 
L 364.606829 483.738871 
L 365.399148 483.776987 
L 375.171081 483.874575 
L 376.491612 483.902217 
L 391.017458 484.011536 
L 392.866202 484.028608 
L 417.428087 484.133659 
L 421.653788 484.148361 
L 871.690909 484.232727 
L 871.690909 484.232727 
" style="fill:none;stroke:#bfbbd9;stroke-linecap:square;stroke-width:1.5;"/>
   </g>
   <g id="patch_3">
    <path d="M 126 504 
L 126 69.12 
" style="fill:none;stroke:#ffffff;stroke-linecap:square;stroke-linejoin:miter;stroke-width:0.8;"/>
   </g>
   <g id="patch_4">
    <path d="M 907.2 504 
L 907.2 69.12 
" style="fill:none;stroke:#ffffff;stroke-linecap:square;stroke-linejoin:miter;stroke-width:0.8;"/>
   </g>
   <g id="patch_5">
    <path d="M 126 504 
L 907.2 504 
" style="fill:none;stroke:#ffffff;stroke-linecap:square;stroke-linejoin:miter;stroke-width:0.8;"/>
   </g>
   <g id="patch_6">
    <path d="M 126 69.12 
L 907.2 69.12 
" style="fill:none;stroke:#ffffff;stroke-linecap:square;stroke-linejoin:miter;stroke-width:0.8;"/>
   </g>
   <g id="text_17">
    <!-- instance 4 with error 0.0 -->
    <g style="fill:#ffffff;" transform="translate(442.944375 63.12)scale(0.12 -0.12)">
     <defs>
      <path d="M 2834 3397 
L 2834 2853 
Q 2591 2978 2328 3040 
Q 2066 3103 1784 3103 
Q 1356 3103 1142 2972 
Q 928 2841 928 2578 
Q 928 2378 1081 2264 
Q 1234 2150 1697 2047 
L 1894 2003 
Q 2506 1872 2764 1633 
Q 3022 1394 3022 966 
Q 3022 478 2636 193 
Q 2250 -91 1575 -91 
Q 1294 -91 989 -36 
Q 684 19 347 128 
L 347 722 
Q 666 556 975 473 
Q 1284 391 1588 391 
Q 1994 391 2212 530 
Q 2431 669 2431 922 
Q 2431 1156 2273 1281 
Q 2116 1406 1581 1522 
L 1381 1569 
Q 847 1681 609 1914 
Q 372 2147 372 2553 
Q 372 3047 722 3315 
Q 1072 3584 1716 3584 
Q 2034 3584 2315 3537 
Q 2597 3491 2834 3397 
z
" id="DejaVuSans-73" transform="scale(0.015625)"/>
      <path d="M 3122 3366 
L 3122 2828 
Q 2878 2963 2633 3030 
Q 2388 3097 2138 3097 
Q 1578 3097 1268 2742 
Q 959 2388 959 1747 
Q 959 1106 1268 751 
Q 1578 397 2138 397 
Q 2388 397 2633 464 
Q 2878 531 3122 666 
L 3122 134 
Q 2881 22 2623 -34 
Q 2366 -91 2075 -91 
Q 1284 -91 818 406 
Q 353 903 353 1747 
Q 353 2603 823 3093 
Q 1294 3584 2113 3584 
Q 2378 3584 2631 3529 
Q 2884 3475 3122 3366 
z
" id="DejaVuSans-63" transform="scale(0.015625)"/>
      <path id="DejaVuSans-20" transform="scale(0.015625)"/>
      <path d="M 269 3500 
L 844 3500 
L 1563 769 
L 2278 3500 
L 2956 3500 
L 3675 769 
L 4391 3500 
L 4966 3500 
L 4050 0 
L 3372 0 
L 2619 2869 
L 1863 0 
L 1184 0 
L 269 3500 
z
" id="DejaVuSans-77" transform="scale(0.015625)"/>
      <path d="M 3513 2113 
L 3513 0 
L 2938 0 
L 2938 2094 
Q 2938 2591 2744 2837 
Q 2550 3084 2163 3084 
Q 1697 3084 1428 2787 
Q 1159 2491 1159 1978 
L 1159 0 
L 581 0 
L 581 4863 
L 1159 4863 
L 1159 2956 
Q 1366 3272 1645 3428 
Q 1925 3584 2291 3584 
Q 2894 3584 3203 3211 
Q 3513 2838 3513 2113 
z
" id="DejaVuSans-68" transform="scale(0.015625)"/>
      <path d="M 684 794 
L 1344 794 
L 1344 0 
L 684 0 
L 684 794 
z
" id="DejaVuSans-2e" transform="scale(0.015625)"/>
     </defs>
     <use xlink:href="#DejaVuSans-69"/>
     <use x="27.783203" xlink:href="#DejaVuSans-6e"/>
     <use x="91.162109" xlink:href="#DejaVuSans-73"/>
     <use x="143.261719" xlink:href="#DejaVuSans-74"/>
     <use x="182.470703" xlink:href="#DejaVuSans-61"/>
     <use x="243.75" xlink:href="#DejaVuSans-6e"/>
     <use x="307.128906" xlink:href="#DejaVuSans-63"/>
     <use x="362.109375" xlink:href="#DejaVuSans-65"/>
     <use x="423.632812" xlink:href="#DejaVuSans-20"/>
     <use x="455.419922" xlink:href="#DejaVuSans-34"/>
     <use x="519.042969" xlink:href="#DejaVuSans-20"/>
     <use x="550.830078" xlink:href="#DejaVuSans-77"/>
     <use x="632.617188" xlink:href="#DejaVuSans-69"/>
     <use x="660.400391" xlink:href="#DejaVuSans-74"/>
     <use x="699.609375" xlink:href="#DejaVuSans-68"/>
     <use x="762.988281" xlink:href="#DejaVuSans-20"/>
     <use x="794.775391" xlink:href="#DejaVuSans-65"/>
     <use x="856.298828" xlink:href="#DejaVuSans-72"/>
     <use x="895.662109" xlink:href="#DejaVuSans-72"/>
     <use x="934.525391" xlink:href="#DejaVuSans-6f"/>
     <use x="995.707031" xlink:href="#DejaVuSans-72"/>
     <use x="1036.820312" xlink:href="#DejaVuSans-20"/>
     <use x="1068.607422" xlink:href="#DejaVuSans-30"/>
     <use x="1132.230469" xlink:href="#DejaVuSans-2e"/>
     <use x="1164.017578" xlink:href="#DejaVuSans-30"/>
    </g>
   </g>
   <g id="legend_1">
    <g id="patch_7">
     <path d="M 805.348438 499 
L 900.2 499 
Q 902.2 499 902.2 497 
L 902.2 453.965625 
Q 902.2 451.965625 900.2 451.965625 
L 805.348438 451.965625 
Q 803.348438 451.965625 803.348438 453.965625 
L 803.348438 497 
Q 803.348438 499 805.348438 499 
z
" style="opacity:0.8;stroke:#cccccc;stroke-linejoin:miter;"/>
    </g>
    <g id="line2d_19">
     <path d="M 807.348438 460.064062 
L 827.348438 460.064062 
" style="fill:none;stroke:#8dd3c7;stroke-linecap:square;stroke-width:1.5;"/>
    </g>
    <g id="line2d_20"/>
    <g id="text_18">
     <!-- cost -->
     <g style="fill:#ffffff;" transform="translate(835.348438 463.564062)scale(0.1 -0.1)">
      <use xlink:href="#DejaVuSans-63"/>
      <use x="54.980469" xlink:href="#DejaVuSans-6f"/>
      <use x="116.162109" xlink:href="#DejaVuSans-73"/>
      <use x="168.261719" xlink:href="#DejaVuSans-74"/>
     </g>
    </g>
    <g id="line2d_21">
     <path d="M 807.348438 474.742188 
L 827.348438 474.742188 
" style="fill:none;stroke:#feffb3;stroke-linecap:square;stroke-width:1.5;"/>
    </g>
    <g id="line2d_22"/>
    <g id="text_19">
     <!-- best cost -->
     <g style="fill:#ffffff;" transform="translate(835.348438 478.242188)scale(0.1 -0.1)">
      <defs>
       <path d="M 3116 1747 
Q 3116 2381 2855 2742 
Q 2594 3103 2138 3103 
Q 1681 3103 1420 2742 
Q 1159 2381 1159 1747 
Q 1159 1113 1420 752 
Q 1681 391 2138 391 
Q 2594 391 2855 752 
Q 3116 1113 3116 1747 
z
M 1159 2969 
Q 1341 3281 1617 3432 
Q 1894 3584 2278 3584 
Q 2916 3584 3314 3078 
Q 3713 2572 3713 1747 
Q 3713 922 3314 415 
Q 2916 -91 2278 -91 
Q 1894 -91 1617 61 
Q 1341 213 1159 525 
L 1159 0 
L 581 0 
L 581 4863 
L 1159 4863 
L 1159 2969 
z
" id="DejaVuSans-62" transform="scale(0.015625)"/>
      </defs>
      <use xlink:href="#DejaVuSans-62"/>
      <use x="63.476562" xlink:href="#DejaVuSans-65"/>
      <use x="125" xlink:href="#DejaVuSans-73"/>
      <use x="177.099609" xlink:href="#DejaVuSans-74"/>
      <use x="216.308594" xlink:href="#DejaVuSans-20"/>
      <use x="248.095703" xlink:href="#DejaVuSans-63"/>
      <use x="303.076172" xlink:href="#DejaVuSans-6f"/>
      <use x="364.257812" xlink:href="#DejaVuSans-73"/>
      <use x="416.357422" xlink:href="#DejaVuSans-74"/>
     </g>
    </g>
    <g id="line2d_23">
     <path d="M 807.348438 489.420313 
L 827.348438 489.420313 
" style="fill:none;stroke:#bfbbd9;stroke-linecap:square;stroke-width:1.5;"/>
    </g>
    <g id="line2d_24"/>
    <g id="text_20">
     <!-- temperature -->
     <g style="fill:#ffffff;" transform="translate(835.348438 492.920313)scale(0.1 -0.1)">
      <defs>
       <path d="M 3328 2828 
Q 3544 3216 3844 3400 
Q 4144 3584 4550 3584 
Q 5097 3584 5394 3201 
Q 5691 2819 5691 2113 
L 5691 0 
L 5113 0 
L 5113 2094 
Q 5113 2597 4934 2840 
Q 4756 3084 4391 3084 
Q 3944 3084 3684 2787 
Q 3425 2491 3425 1978 
L 3425 0 
L 2847 0 
L 2847 2094 
Q 2847 2600 2669 2842 
Q 2491 3084 2119 3084 
Q 1678 3084 1418 2786 
Q 1159 2488 1159 1978 
L 1159 0 
L 581 0 
L 581 3500 
L 1159 3500 
L 1159 2956 
Q 1356 3278 1631 3431 
Q 1906 3584 2284 3584 
Q 2666 3584 2933 3390 
Q 3200 3197 3328 2828 
z
" id="DejaVuSans-6d" transform="scale(0.015625)"/>
       <path d="M 1159 525 
L 1159 -1331 
L 581 -1331 
L 581 3500 
L 1159 3500 
L 1159 2969 
Q 1341 3281 1617 3432 
Q 1894 3584 2278 3584 
Q 2916 3584 3314 3078 
Q 3713 2572 3713 1747 
Q 3713 922 3314 415 
Q 2916 -91 2278 -91 
Q 1894 -91 1617 61 
Q 1341 213 1159 525 
z
M 3116 1747 
Q 3116 2381 2855 2742 
Q 2594 3103 2138 3103 
Q 1681 3103 1420 2742 
Q 1159 2381 1159 1747 
Q 1159 1113 1420 752 
Q 1681 391 2138 391 
Q 2594 391 2855 752 
Q 3116 1113 3116 1747 
z
" id="DejaVuSans-70" transform="scale(0.015625)"/>
       <path d="M 544 1381 
L 544 3500 
L 1119 3500 
L 1119 1403 
Q 1119 906 1312 657 
Q 1506 409 1894 409 
Q 2359 409 2629 706 
Q 2900 1003 2900 1516 
L 2900 3500 
L 3475 3500 
L 3475 0 
L 2900 0 
L 2900 538 
Q 2691 219 2414 64 
Q 2138 -91 1772 -91 
Q 1169 -91 856 284 
Q 544 659 544 1381 
z
M 1991 3584 
L 1991 3584 
z
" id="DejaVuSans-75" transform="scale(0.015625)"/>
      </defs>
      <use xlink:href="#DejaVuSans-74"/>
      <use x="39.208984" xlink:href="#DejaVuSans-65"/>
      <use x="100.732422" xlink:href="#DejaVuSans-6d"/>
      <use x="198.144531" xlink:href="#DejaVuSans-70"/>
      <use x="261.621094" xlink:href="#DejaVuSans-65"/>
      <use x="323.144531" xlink:href="#DejaVuSans-72"/>
      <use x="364.257812" xlink:href="#DejaVuSans-61"/>
      <use x="425.537109" xlink:href="#DejaVuSans-74"/>
      <use x="464.746094" xlink:href="#DejaVuSans-75"/>
      <use x="528.125" xlink:href="#DejaVuSans-72"/>
      <use x="566.988281" xlink:href="#DejaVuSans-65"/>
     </g>
    </g>
   </g>
  </g>
 </g>
 <defs>
  <clipPath id="pb4e990f361">
   <rect height="434.88" width="781.2" x="126" y="69.12"/>
  </clipPath>
 </defs>
</svg>
