<?xml version="1.0" encoding="utf-8" standalone="no"?>
<!DOCTYPE svg PUBLIC "-//W3C//DTD SVG 1.1//EN"
  "http://www.w3.org/Graphics/SVG/1.1/DTD/svg11.dtd">
<svg height="576pt" version="1.1" viewBox="0 0 1008 576" width="1008pt" xmlns="http://www.w3.org/2000/svg" xmlns:xlink="http://www.w3.org/1999/xlink">
 <metadata>
  <rdf:RDF xmlns:cc="http://creativecommons.org/ns#" xmlns:dc="http://purl.org/dc/elements/1.1/" xmlns:rdf="http://www.w3.org/1999/02/22-rdf-syntax-ns#">
   <cc:Work>
    <dc:type rdf:resource="http://purl.org/dc/dcmitype/StillImage"/>
    <dc:date>2022-01-08T03:45:57.325621</dc:date>
    <dc:format>image/svg+xml</dc:format>
    <dc:creator>
     <cc:Agent>
      <dc:title>Matplotlib v3.4.3, https://matplotlib.org/</dc:title>
     </cc:Agent>
    </dc:creator>
   </cc:Work>
  </rdf:RDF>
 </metadata>
 <defs>
  <style type="text/css">*{stroke-linecap:butt;stroke-linejoin:round;}</style>
 </defs>
 <g id="figure_1">
  <g id="patch_1">
   <path d="M 0 576 
L 1008 576 
L 1008 0 
L 0 0 
z
"/>
  </g>
  <g id="axes_1">
   <g id="patch_2">
    <path d="M 126 504 
L 907.2 504 
L 907.2 69.12 
L 126 69.12 
z
"/>
   </g>
   <g id="matplotlib.axis_1">
    <g id="xtick_1">
     <g id="line2d_1">
      <defs>
       <path d="M 0 0 
L 0 3.5 
" id="m77e2975fc9" style="stroke:#ffffff;stroke-width:0.8;"/>
      </defs>
      <g>
       <use style="fill:#ffffff;stroke:#ffffff;stroke-width:0.8;" x="161.509091" xlink:href="#m77e2975fc9" y="504"/>
      </g>
     </g>
     <g id="text_1">
      <!-- 0 -->
      <g style="fill:#ffffff;" transform="translate(158.327841 518.598438)scale(0.1 -0.1)">
       <defs>
        <path d="M 2034 4250 
Q 1547 4250 1301 3770 
Q 1056 3291 1056 2328 
Q 1056 1369 1301 889 
Q 1547 409 2034 409 
Q 2525 409 2770 889 
Q 3016 1369 3016 2328 
Q 3016 3291 2770 3770 
Q 2525 4250 2034 4250 
z
M 2034 4750 
Q 2819 4750 3233 4129 
Q 3647 3509 3647 2328 
Q 3647 1150 3233 529 
Q 2819 -91 2034 -91 
Q 1250 -91 836 529 
Q 422 1150 422 2328 
Q 422 3509 836 4129 
Q 1250 4750 2034 4750 
z
" id="DejaVuSans-30" transform="scale(0.015625)"/>
       </defs>
       <use xlink:href="#DejaVuSans-30"/>
      </g>
     </g>
    </g>
    <g id="xtick_2">
     <g id="line2d_2">
      <g>
       <use style="fill:#ffffff;stroke:#ffffff;stroke-width:0.8;" x="301.888972" xlink:href="#m77e2975fc9" y="504"/>
      </g>
     </g>
     <g id="text_2">
      <!-- 1000 -->
      <g style="fill:#ffffff;" transform="translate(289.163972 518.598438)scale(0.1 -0.1)">
       <defs>
        <path d="M 794 531 
L 1825 531 
L 1825 4091 
L 703 3866 
L 703 4441 
L 1819 4666 
L 2450 4666 
L 2450 531 
L 3481 531 
L 3481 0 
L 794 0 
L 794 531 
z
" id="DejaVuSans-31" transform="scale(0.015625)"/>
       </defs>
       <use xlink:href="#DejaVuSans-31"/>
       <use x="63.623047" xlink:href="#DejaVuSans-30"/>
       <use x="127.246094" xlink:href="#DejaVuSans-30"/>
       <use x="190.869141" xlink:href="#DejaVuSans-30"/>
      </g>
     </g>
    </g>
    <g id="xtick_3">
     <g id="line2d_3">
      <g>
       <use style="fill:#ffffff;stroke:#ffffff;stroke-width:0.8;" x="442.268853" xlink:href="#m77e2975fc9" y="504"/>
      </g>
     </g>
     <g id="text_3">
      <!-- 2000 -->
      <g style="fill:#ffffff;" transform="translate(429.543853 518.598438)scale(0.1 -0.1)">
       <defs>
        <path d="M 1228 531 
L 3431 531 
L 3431 0 
L 469 0 
L 469 531 
Q 828 903 1448 1529 
Q 2069 2156 2228 2338 
Q 2531 2678 2651 2914 
Q 2772 3150 2772 3378 
Q 2772 3750 2511 3984 
Q 2250 4219 1831 4219 
Q 1534 4219 1204 4116 
Q 875 4013 500 3803 
L 500 4441 
Q 881 4594 1212 4672 
Q 1544 4750 1819 4750 
Q 2544 4750 2975 4387 
Q 3406 4025 3406 3419 
Q 3406 3131 3298 2873 
Q 3191 2616 2906 2266 
Q 2828 2175 2409 1742 
Q 1991 1309 1228 531 
z
" id="DejaVuSans-32" transform="scale(0.015625)"/>
       </defs>
       <use xlink:href="#DejaVuSans-32"/>
       <use x="63.623047" xlink:href="#DejaVuSans-30"/>
       <use x="127.246094" xlink:href="#DejaVuSans-30"/>
       <use x="190.869141" xlink:href="#DejaVuSans-30"/>
      </g>
     </g>
    </g>
    <g id="xtick_4">
     <g id="line2d_4">
      <g>
       <use style="fill:#ffffff;stroke:#ffffff;stroke-width:0.8;" x="582.648734" xlink:href="#m77e2975fc9" y="504"/>
      </g>
     </g>
     <g id="text_4">
      <!-- 3000 -->
      <g style="fill:#ffffff;" transform="translate(569.923734 518.598438)scale(0.1 -0.1)">
       <defs>
        <path d="M 2597 2516 
Q 3050 2419 3304 2112 
Q 3559 1806 3559 1356 
Q 3559 666 3084 287 
Q 2609 -91 1734 -91 
Q 1441 -91 1130 -33 
Q 819 25 488 141 
L 488 750 
Q 750 597 1062 519 
Q 1375 441 1716 441 
Q 2309 441 2620 675 
Q 2931 909 2931 1356 
Q 2931 1769 2642 2001 
Q 2353 2234 1838 2234 
L 1294 2234 
L 1294 2753 
L 1863 2753 
Q 2328 2753 2575 2939 
Q 2822 3125 2822 3475 
Q 2822 3834 2567 4026 
Q 2313 4219 1838 4219 
Q 1578 4219 1281 4162 
Q 984 4106 628 3988 
L 628 4550 
Q 988 4650 1302 4700 
Q 1616 4750 1894 4750 
Q 2613 4750 3031 4423 
Q 3450 4097 3450 3541 
Q 3450 3153 3228 2886 
Q 3006 2619 2597 2516 
z
" id="DejaVuSans-33" transform="scale(0.015625)"/>
       </defs>
       <use xlink:href="#DejaVuSans-33"/>
       <use x="63.623047" xlink:href="#DejaVuSans-30"/>
       <use x="127.246094" xlink:href="#DejaVuSans-30"/>
       <use x="190.869141" xlink:href="#DejaVuSans-30"/>
      </g>
     </g>
    </g>
    <g id="xtick_5">
     <g id="line2d_5">
      <g>
       <use style="fill:#ffffff;stroke:#ffffff;stroke-width:0.8;" x="723.028615" xlink:href="#m77e2975fc9" y="504"/>
      </g>
     </g>
     <g id="text_5">
      <!-- 4000 -->
      <g style="fill:#ffffff;" transform="translate(710.303615 518.598438)scale(0.1 -0.1)">
       <defs>
        <path d="M 2419 4116 
L 825 1625 
L 2419 1625 
L 2419 4116 
z
M 2253 4666 
L 3047 4666 
L 3047 1625 
L 3713 1625 
L 3713 1100 
L 3047 1100 
L 3047 0 
L 2419 0 
L 2419 1100 
L 313 1100 
L 313 1709 
L 2253 4666 
z
" id="DejaVuSans-34" transform="scale(0.015625)"/>
       </defs>
       <use xlink:href="#DejaVuSans-34"/>
       <use x="63.623047" xlink:href="#DejaVuSans-30"/>
       <use x="127.246094" xlink:href="#DejaVuSans-30"/>
       <use x="190.869141" xlink:href="#DejaVuSans-30"/>
      </g>
     </g>
    </g>
    <g id="xtick_6">
     <g id="line2d_6">
      <g>
       <use style="fill:#ffffff;stroke:#ffffff;stroke-width:0.8;" x="863.408496" xlink:href="#m77e2975fc9" y="504"/>
      </g>
     </g>
     <g id="text_6">
      <!-- 5000 -->
      <g style="fill:#ffffff;" transform="translate(850.683496 518.598438)scale(0.1 -0.1)">
       <defs>
        <path d="M 691 4666 
L 3169 4666 
L 3169 4134 
L 1269 4134 
L 1269 2991 
Q 1406 3038 1543 3061 
Q 1681 3084 1819 3084 
Q 2600 3084 3056 2656 
Q 3513 2228 3513 1497 
Q 3513 744 3044 326 
Q 2575 -91 1722 -91 
Q 1428 -91 1123 -41 
Q 819 9 494 109 
L 494 744 
Q 775 591 1075 516 
Q 1375 441 1709 441 
Q 2250 441 2565 725 
Q 2881 1009 2881 1497 
Q 2881 1984 2565 2268 
Q 2250 2553 1709 2553 
Q 1456 2553 1204 2497 
Q 953 2441 691 2322 
L 691 4666 
z
" id="DejaVuSans-35" transform="scale(0.015625)"/>
       </defs>
       <use xlink:href="#DejaVuSans-35"/>
       <use x="63.623047" xlink:href="#DejaVuSans-30"/>
       <use x="127.246094" xlink:href="#DejaVuSans-30"/>
       <use x="190.869141" xlink:href="#DejaVuSans-30"/>
      </g>
     </g>
    </g>
    <g id="text_7">
     <!-- iteration -->
     <g style="fill:#ffffff;" transform="translate(495.477344 532.276562)scale(0.1 -0.1)">
      <defs>
       <path d="M 603 3500 
L 1178 3500 
L 1178 0 
L 603 0 
L 603 3500 
z
M 603 4863 
L 1178 4863 
L 1178 4134 
L 603 4134 
L 603 4863 
z
" id="DejaVuSans-69" transform="scale(0.015625)"/>
       <path d="M 1172 4494 
L 1172 3500 
L 2356 3500 
L 2356 3053 
L 1172 3053 
L 1172 1153 
Q 1172 725 1289 603 
Q 1406 481 1766 481 
L 2356 481 
L 2356 0 
L 1766 0 
Q 1100 0 847 248 
Q 594 497 594 1153 
L 594 3053 
L 172 3053 
L 172 3500 
L 594 3500 
L 594 4494 
L 1172 4494 
z
" id="DejaVuSans-74" transform="scale(0.015625)"/>
       <path d="M 3597 1894 
L 3597 1613 
L 953 1613 
Q 991 1019 1311 708 
Q 1631 397 2203 397 
Q 2534 397 2845 478 
Q 3156 559 3463 722 
L 3463 178 
Q 3153 47 2828 -22 
Q 2503 -91 2169 -91 
Q 1331 -91 842 396 
Q 353 884 353 1716 
Q 353 2575 817 3079 
Q 1281 3584 2069 3584 
Q 2775 3584 3186 3129 
Q 3597 2675 3597 1894 
z
M 3022 2063 
Q 3016 2534 2758 2815 
Q 2500 3097 2075 3097 
Q 1594 3097 1305 2825 
Q 1016 2553 972 2059 
L 3022 2063 
z
" id="DejaVuSans-65" transform="scale(0.015625)"/>
       <path d="M 2631 2963 
Q 2534 3019 2420 3045 
Q 2306 3072 2169 3072 
Q 1681 3072 1420 2755 
Q 1159 2438 1159 1844 
L 1159 0 
L 581 0 
L 581 3500 
L 1159 3500 
L 1159 2956 
Q 1341 3275 1631 3429 
Q 1922 3584 2338 3584 
Q 2397 3584 2469 3576 
Q 2541 3569 2628 3553 
L 2631 2963 
z
" id="DejaVuSans-72" transform="scale(0.015625)"/>
       <path d="M 2194 1759 
Q 1497 1759 1228 1600 
Q 959 1441 959 1056 
Q 959 750 1161 570 
Q 1363 391 1709 391 
Q 2188 391 2477 730 
Q 2766 1069 2766 1631 
L 2766 1759 
L 2194 1759 
z
M 3341 1997 
L 3341 0 
L 2766 0 
L 2766 531 
Q 2569 213 2275 61 
Q 1981 -91 1556 -91 
Q 1019 -91 701 211 
Q 384 513 384 1019 
Q 384 1609 779 1909 
Q 1175 2209 1959 2209 
L 2766 2209 
L 2766 2266 
Q 2766 2663 2505 2880 
Q 2244 3097 1772 3097 
Q 1472 3097 1187 3025 
Q 903 2953 641 2809 
L 641 3341 
Q 956 3463 1253 3523 
Q 1550 3584 1831 3584 
Q 2591 3584 2966 3190 
Q 3341 2797 3341 1997 
z
" id="DejaVuSans-61" transform="scale(0.015625)"/>
       <path d="M 1959 3097 
Q 1497 3097 1228 2736 
Q 959 2375 959 1747 
Q 959 1119 1226 758 
Q 1494 397 1959 397 
Q 2419 397 2687 759 
Q 2956 1122 2956 1747 
Q 2956 2369 2687 2733 
Q 2419 3097 1959 3097 
z
M 1959 3584 
Q 2709 3584 3137 3096 
Q 3566 2609 3566 1747 
Q 3566 888 3137 398 
Q 2709 -91 1959 -91 
Q 1206 -91 779 398 
Q 353 888 353 1747 
Q 353 2609 779 3096 
Q 1206 3584 1959 3584 
z
" id="DejaVuSans-6f" transform="scale(0.015625)"/>
       <path d="M 3513 2113 
L 3513 0 
L 2938 0 
L 2938 2094 
Q 2938 2591 2744 2837 
Q 2550 3084 2163 3084 
Q 1697 3084 1428 2787 
Q 1159 2491 1159 1978 
L 1159 0 
L 581 0 
L 581 3500 
L 1159 3500 
L 1159 2956 
Q 1366 3272 1645 3428 
Q 1925 3584 2291 3584 
Q 2894 3584 3203 3211 
Q 3513 2838 3513 2113 
z
" id="DejaVuSans-6e" transform="scale(0.015625)"/>
      </defs>
      <use xlink:href="#DejaVuSans-69"/>
      <use x="27.783203" xlink:href="#DejaVuSans-74"/>
      <use x="66.992188" xlink:href="#DejaVuSans-65"/>
      <use x="128.515625" xlink:href="#DejaVuSans-72"/>
      <use x="169.628906" xlink:href="#DejaVuSans-61"/>
      <use x="230.908203" xlink:href="#DejaVuSans-74"/>
      <use x="270.117188" xlink:href="#DejaVuSans-69"/>
      <use x="297.900391" xlink:href="#DejaVuSans-6f"/>
      <use x="359.082031" xlink:href="#DejaVuSans-6e"/>
     </g>
    </g>
   </g>
   <g id="matplotlib.axis_2">
    <g id="ytick_1">
     <g id="line2d_7">
      <defs>
       <path d="M 0 0 
L -3.5 0 
" id="m2b7d2e4c94" style="stroke:#ffffff;stroke-width:0.8;"/>
      </defs>
      <g>
       <use style="fill:#ffffff;stroke:#ffffff;stroke-width:0.8;" x="126" xlink:href="#m2b7d2e4c94" y="484.232727"/>
      </g>
     </g>
     <g id="text_8">
      <!-- 0 -->
      <g style="fill:#ffffff;" transform="translate(112.6375 488.031946)scale(0.1 -0.1)">
       <use xlink:href="#DejaVuSans-30"/>
      </g>
     </g>
    </g>
    <g id="ytick_2">
     <g id="line2d_8">
      <g>
       <use style="fill:#ffffff;stroke:#ffffff;stroke-width:0.8;" x="126" xlink:href="#m2b7d2e4c94" y="434.431073"/>
      </g>
     </g>
     <g id="text_9">
      <!-- 2500 -->
      <g style="fill:#ffffff;" transform="translate(93.55 438.230291)scale(0.1 -0.1)">
       <use xlink:href="#DejaVuSans-32"/>
       <use x="63.623047" xlink:href="#DejaVuSans-35"/>
       <use x="127.246094" xlink:href="#DejaVuSans-30"/>
       <use x="190.869141" xlink:href="#DejaVuSans-30"/>
      </g>
     </g>
    </g>
    <g id="ytick_3">
     <g id="line2d_9">
      <g>
       <use style="fill:#ffffff;stroke:#ffffff;stroke-width:0.8;" x="126" xlink:href="#m2b7d2e4c94" y="384.629418"/>
      </g>
     </g>
     <g id="text_10">
      <!-- 5000 -->
      <g style="fill:#ffffff;" transform="translate(93.55 388.428637)scale(0.1 -0.1)">
       <use xlink:href="#DejaVuSans-35"/>
       <use x="63.623047" xlink:href="#DejaVuSans-30"/>
       <use x="127.246094" xlink:href="#DejaVuSans-30"/>
       <use x="190.869141" xlink:href="#DejaVuSans-30"/>
      </g>
     </g>
    </g>
    <g id="ytick_4">
     <g id="line2d_10">
      <g>
       <use style="fill:#ffffff;stroke:#ffffff;stroke-width:0.8;" x="126" xlink:href="#m2b7d2e4c94" y="334.827764"/>
      </g>
     </g>
     <g id="text_11">
      <!-- 7500 -->
      <g style="fill:#ffffff;" transform="translate(93.55 338.626982)scale(0.1 -0.1)">
       <defs>
        <path d="M 525 4666 
L 3525 4666 
L 3525 4397 
L 1831 0 
L 1172 0 
L 2766 4134 
L 525 4134 
L 525 4666 
z
" id="DejaVuSans-37" transform="scale(0.015625)"/>
       </defs>
       <use xlink:href="#DejaVuSans-37"/>
       <use x="63.623047" xlink:href="#DejaVuSans-35"/>
       <use x="127.246094" xlink:href="#DejaVuSans-30"/>
       <use x="190.869141" xlink:href="#DejaVuSans-30"/>
      </g>
     </g>
    </g>
    <g id="ytick_5">
     <g id="line2d_11">
      <g>
       <use style="fill:#ffffff;stroke:#ffffff;stroke-width:0.8;" x="126" xlink:href="#m2b7d2e4c94" y="285.026109"/>
      </g>
     </g>
     <g id="text_12">
      <!-- 10000 -->
      <g style="fill:#ffffff;" transform="translate(87.1875 288.825328)scale(0.1 -0.1)">
       <use xlink:href="#DejaVuSans-31"/>
       <use x="63.623047" xlink:href="#DejaVuSans-30"/>
       <use x="127.246094" xlink:href="#DejaVuSans-30"/>
       <use x="190.869141" xlink:href="#DejaVuSans-30"/>
       <use x="254.492188" xlink:href="#DejaVuSans-30"/>
      </g>
     </g>
    </g>
    <g id="ytick_6">
     <g id="line2d_12">
      <g>
       <use style="fill:#ffffff;stroke:#ffffff;stroke-width:0.8;" x="126" xlink:href="#m2b7d2e4c94" y="235.224454"/>
      </g>
     </g>
     <g id="text_13">
      <!-- 12500 -->
      <g style="fill:#ffffff;" transform="translate(87.1875 239.023673)scale(0.1 -0.1)">
       <use xlink:href="#DejaVuSans-31"/>
       <use x="63.623047" xlink:href="#DejaVuSans-32"/>
       <use x="127.246094" xlink:href="#DejaVuSans-35"/>
       <use x="190.869141" xlink:href="#DejaVuSans-30"/>
       <use x="254.492188" xlink:href="#DejaVuSans-30"/>
      </g>
     </g>
    </g>
    <g id="ytick_7">
     <g id="line2d_13">
      <g>
       <use style="fill:#ffffff;stroke:#ffffff;stroke-width:0.8;" x="126" xlink:href="#m2b7d2e4c94" y="185.4228"/>
      </g>
     </g>
     <g id="text_14">
      <!-- 15000 -->
      <g style="fill:#ffffff;" transform="translate(87.1875 189.222019)scale(0.1 -0.1)">
       <use xlink:href="#DejaVuSans-31"/>
       <use x="63.623047" xlink:href="#DejaVuSans-35"/>
       <use x="127.246094" xlink:href="#DejaVuSans-30"/>
       <use x="190.869141" xlink:href="#DejaVuSans-30"/>
       <use x="254.492188" xlink:href="#DejaVuSans-30"/>
      </g>
     </g>
    </g>
    <g id="ytick_8">
     <g id="line2d_14">
      <g>
       <use style="fill:#ffffff;stroke:#ffffff;stroke-width:0.8;" x="126" xlink:href="#m2b7d2e4c94" y="135.621145"/>
      </g>
     </g>
     <g id="text_15">
      <!-- 17500 -->
      <g style="fill:#ffffff;" transform="translate(87.1875 139.420364)scale(0.1 -0.1)">
       <use xlink:href="#DejaVuSans-31"/>
       <use x="63.623047" xlink:href="#DejaVuSans-37"/>
       <use x="127.246094" xlink:href="#DejaVuSans-35"/>
       <use x="190.869141" xlink:href="#DejaVuSans-30"/>
       <use x="254.492188" xlink:href="#DejaVuSans-30"/>
      </g>
     </g>
    </g>
    <g id="ytick_9">
     <g id="line2d_15">
      <g>
       <use style="fill:#ffffff;stroke:#ffffff;stroke-width:0.8;" x="126" xlink:href="#m2b7d2e4c94" y="85.819491"/>
      </g>
     </g>
     <g id="text_16">
      <!-- 20000 -->
      <g style="fill:#ffffff;" transform="translate(87.1875 89.61871)scale(0.1 -0.1)">
       <use xlink:href="#DejaVuSans-32"/>
       <use x="63.623047" xlink:href="#DejaVuSans-30"/>
       <use x="127.246094" xlink:href="#DejaVuSans-30"/>
       <use x="190.869141" xlink:href="#DejaVuSans-30"/>
       <use x="254.492188" xlink:href="#DejaVuSans-30"/>
      </g>
     </g>
    </g>
   </g>
   <g id="line2d_16">
    <path clip-path="url(#pbe1c17b589)" d="M 161.509091 307.257568 
L 161.789851 268.910294 
L 162.21099 384.111481 
L 162.35137 384.111481 
L 162.49175 405.705478 
L 162.63213 360.465655 
L 162.77251 358.115017 
L 162.91289 372.079401 
L 163.05327 417.319224 
L 163.193649 370.386145 
L 163.334029 405.725399 
L 163.614789 323.851479 
L 163.895549 406.223416 
L 164.176309 366.720743 
L 164.316689 388.733074 
L 164.457068 388.733074 
L 164.597448 385.725055 
L 164.737828 437.259807 
L 164.878208 401.920553 
L 165.018588 401.920553 
L 165.158968 414.7893 
L 165.299348 373.832419 
L 165.439728 397.438404 
L 165.580107 387.776883 
L 165.720487 392.737128 
L 165.860867 392.737128 
L 166.141627 321.202031 
L 166.422387 287.257223 
L 166.562767 287.257223 
L 166.843526 411.16374 
L 167.124286 329.28982 
L 167.264666 325.305687 
L 167.405046 316.620279 
L 167.545426 331.620537 
L 167.826186 409.888817 
L 167.966565 409.888817 
L 168.106945 387.478073 
L 168.247325 398.334833 
L 168.387705 394.171415 
L 168.528085 408.135799 
L 168.668465 400.306979 
L 168.808845 401.123726 
L 168.949225 355.764379 
L 169.089604 422.717724 
L 169.229984 378.095441 
L 169.370364 378.095441 
L 169.510744 426.881142 
L 169.651124 381.641319 
L 169.791504 389.470139 
L 170.072264 350.704531 
L 170.212644 342.875711 
L 170.353023 370.904082 
L 170.493403 335.564828 
L 170.633783 359.38994 
L 170.774163 356.043268 
L 170.914543 346.023176 
L 171.195303 422.478676 
L 171.335683 417.319224 
L 171.476062 407.25929 
L 171.616442 374.250753 
L 171.756822 390.545855 
L 171.897202 351.481437 
L 172.037582 362.71669 
L 172.318342 328.572676 
L 172.458722 325.226005 
L 172.599102 330.385456 
L 172.879861 382.258859 
L 173.020241 314.189958 
L 173.301001 400.446424 
L 173.441381 397.099752 
L 173.581761 401.263171 
L 173.722141 397.279038 
L 173.86252 389.450218 
L 174.14328 359.11105 
L 174.28366 398.992215 
L 174.42404 387.756962 
L 174.56442 434.690041 
L 174.84518 363.0155 
L 174.985559 330.006963 
L 175.125939 375.36631 
L 175.266319 379.350443 
L 175.406699 405.665637 
L 175.547079 378.832506 
L 175.687459 388.334661 
L 175.827839 388.852598 
L 175.968219 400.087852 
L 176.108599 400.087852 
L 176.248978 377.019725 
L 176.389358 428.93297 
L 176.529738 426.442887 
L 176.670118 442.658306 
L 176.810498 426.52257 
L 176.950878 423.175899 
L 177.091258 373.772657 
L 177.231638 369.788525 
L 177.372017 396.342767 
L 177.512397 357.278349 
L 177.793157 407.199528 
L 178.214297 314.389165 
L 178.354677 279.04991 
L 178.495057 331.959188 
L 178.635436 286.719365 
L 178.775816 286.719365 
L 178.916196 264.826558 
L 179.196956 297.715571 
L 179.337336 350.565086 
L 179.477716 328.154342 
L 179.618096 375.04758 
L 179.758475 352.497391 
L 179.898855 399.43047 
L 180.039235 402.777141 
L 180.179615 414.012394 
L 180.319995 368.772571 
L 180.460375 389.071726 
L 180.741135 345.146666 
L 180.881514 387.239025 
L 181.021894 383.892354 
L 181.162274 357.338111 
L 181.302654 374.947977 
L 181.443034 352.537232 
L 181.583414 374.947977 
L 182.004554 279.747134 
L 182.144933 280.464277 
L 182.425693 335.843717 
L 182.566073 331.859585 
L 182.706453 314.966864 
L 182.846833 268.033785 
L 182.987213 293.074056 
L 183.127593 287.914605 
L 183.267972 293.074056 
L 183.408352 266.240925 
L 183.548732 307.795426 
L 183.829492 259.906154 
L 183.969872 273.173315 
L 184.110252 298.213587 
L 184.250632 345.146666 
L 184.391012 335.963241 
L 184.531391 380.466 
L 184.671771 371.282575 
L 184.812151 380.466 
L 184.952531 354.150806 
L 185.092911 403.554047 
L 185.514051 274.109586 
L 185.79481 352.278263 
L 185.93519 325.724021 
L 186.35633 361.840181 
L 186.63709 280.723246 
L 186.777469 360.326211 
L 186.917849 321.261793 
L 187.058229 340.505152 
L 187.338989 272.077679 
L 187.619749 343.732299 
L 187.900509 313.253687 
L 188.040888 270.484026 
L 188.321648 388.314741 
L 188.602408 355.126918 
L 188.742788 358.81224 
L 188.883168 334.947288 
L 189.023548 362.756531 
L 189.163927 338.831817 
L 189.304307 420.845181 
L 189.585067 445.18823 
L 190.006207 333.353635 
L 190.286967 371.44194 
L 190.427346 378.593458 
L 190.567726 369.410033 
L 190.708106 369.410033 
L 190.848486 393.334747 
L 190.988866 393.334747 
L 191.129246 426.343284 
L 191.269626 426.343284 
L 191.410006 404.749287 
L 191.550385 426.343284 
L 191.690765 428.674001 
L 191.971525 383.952116 
L 192.111905 418.713671 
L 192.252285 418.713671 
L 192.392665 427.897096 
L 192.533045 445.048785 
L 192.813804 400.486265 
L 193.094564 418.833195 
L 193.375324 383.254892 
L 193.515704 445.148389 
L 193.656084 435.964964 
L 193.796464 414.370966 
L 193.936843 419.789386 
L 194.217603 407.637783 
L 194.357983 358.772399 
L 194.498363 357.955652 
L 194.919503 266.001877 
L 195.200262 314.209879 
L 195.340642 372.876228 
L 195.481022 346.561033 
L 195.621402 371.182971 
L 195.761782 370.186938 
L 196.182922 295.046202 
L 196.323301 314.448927 
L 196.463681 287.894684 
L 196.604061 332.078712 
L 196.744441 307.03844 
L 196.884821 315.484801 
L 197.025201 305.185819 
L 197.165581 305.185819 
L 197.305961 266.121401 
L 197.44634 305.185819 
L 197.58672 293.950566 
L 197.7271 382.079573 
L 198.00786 344.628729 
L 198.14824 374.788611 
L 198.28862 449.969189 
L 198.429 423.136057 
L 198.56938 423.136057 
L 198.990519 372.298528 
L 199.130899 368.951857 
L 199.271279 322.018778 
L 199.411659 315.385198 
L 199.552039 289.070003 
L 199.692419 342.696425 
L 199.832798 338.712293 
L 199.973178 293.352946 
L 200.253938 381.760843 
L 200.394318 377.77671 
L 200.675078 283.55198 
L 200.955837 283.55198 
L 201.096217 303.173832 
L 201.236597 291.938579 
L 201.376977 309.807412 
L 201.657737 317.138216 
L 201.798117 340.963327 
L 201.938497 328.751962 
L 202.078877 302.436767 
L 202.219256 347.796114 
L 202.500016 323.313621 
L 202.640396 323.313621 
L 203.061536 416.223588 
L 203.482675 355.146839 
L 203.623055 366.162965 
L 203.763435 330.823711 
L 203.903815 366.162965 
L 204.044195 353.632868 
L 204.324955 378.0556 
L 204.465335 359.210654 
L 204.605714 310.305429 
L 204.886474 310.305429 
L 205.026854 388.673313 
L 205.307614 320.544649 
L 205.447994 331.40141 
L 205.588374 320.544649 
L 205.728753 320.544649 
L 205.869133 343.413569 
L 206.290273 267.974023 
L 206.571033 406.900718 
L 206.992172 353.951599 
L 207.132552 375.545596 
L 207.272932 348.015242 
L 207.694072 402.179521 
L 207.834452 342.198408 
L 207.974832 333.014983 
L 208.255591 355.326125 
L 208.395971 319.986871 
L 208.536351 319.986871 
L 208.676731 395.605703 
L 208.817111 393.932367 
L 208.957491 416.243508 
L 209.097871 409.490404 
L 209.23825 386.422278 
L 209.37863 390.087679 
L 209.51901 355.18668 
L 209.65939 363.61312 
L 209.79977 412.478503 
L 210.22091 323.612431 
L 210.36129 309.807412 
L 210.501669 318.592424 
L 210.642049 318.592424 
L 210.782429 320.066553 
L 211.063189 370.206859 
L 211.203569 349.907705 
L 211.624708 378.035679 
L 211.905468 335.425383 
L 212.045848 343.054997 
L 212.326608 418.474623 
L 212.607368 353.871916 
L 212.747747 368.951857 
L 212.888127 364.967725 
L 213.168887 379.967983 
L 213.590027 258.631232 
L 213.730407 274.627524 
L 213.870787 354.051202 
L 214.011166 369.290509 
L 214.151546 397.757134 
L 214.291926 397.757134 
L 214.853446 293.372866 
L 214.993826 310.982731 
L 215.274585 241.638908 
L 215.555345 231.638735 
L 215.695725 255.384164 
L 215.836105 228.551033 
L 215.976485 263.890287 
L 216.116865 237.555172 
L 216.257245 269.229024 
L 216.538004 404.809049 
L 216.678384 414.610014 
L 216.959144 343.074918 
L 217.099524 391.243078 
L 217.239904 391.243078 
L 217.380284 366.182885 
L 217.520663 376.103375 
L 217.661043 344.927539 
L 217.801423 371.242733 
L 217.941803 367.896062 
L 218.082183 341.062931 
L 218.222563 335.903479 
L 218.362943 290.663656 
L 218.503323 287.316985 
L 218.643702 400.04801 
L 218.924462 352.696597 
L 219.064842 375.007738 
L 219.205222 365.206773 
L 219.485982 270.982042 
L 219.766742 270.982042 
L 220.047501 362.656928 
L 220.187881 343.413569 
L 220.328261 348.692544 
L 220.609021 372.497735 
L 220.749401 337.158481 
L 220.889781 336.461258 
L 221.03016 329.927281 
L 221.17054 387.219104 
L 221.4513 394.968242 
L 221.59168 395.665465 
L 221.73206 360.326211 
L 221.87244 369.509636 
L 222.1532 308.851221 
L 222.293579 405.964447 
L 222.433959 392.000063 
L 222.574339 402.697458 
L 222.714719 424.291456 
L 222.995479 389.749028 
L 223.135859 416.30327 
L 223.416618 351.820088 
L 223.556998 351.820088 
L 223.697378 357.617001 
L 223.837758 351.063103 
L 223.978138 351.063103 
L 224.118518 349.090957 
L 224.258898 375.924089 
L 224.399278 359.40986 
L 224.680037 391.00403 
L 224.820417 383.17521 
L 224.960797 436.243853 
L 225.101177 442.379417 
L 225.241557 442.379417 
L 225.381937 403.314999 
L 225.522317 424.132091 
L 225.662697 402.538093 
L 225.803076 353.67271 
L 226.083836 406.263257 
L 226.224216 410.625882 
L 226.364596 387.557755 
L 226.504976 410.625882 
L 226.785736 293.990407 
L 227.066495 362.09915 
L 227.206875 362.09915 
L 227.347255 381.880367 
L 227.628015 313.014639 
L 227.768395 332.91538 
L 227.908775 331.939268 
L 228.049155 331.939268 
L 228.189534 327.955135 
L 228.329914 310.34527 
L 228.470294 331.939268 
L 228.610674 331.939268 
L 228.751054 320.704014 
L 228.891434 335.744114 
L 229.031814 363.274469 
L 229.172194 352.417708 
L 229.312573 330.405377 
L 229.452953 350.704531 
L 229.733713 301.839148 
L 229.874093 256.479801 
L 230.014473 260.463933 
L 230.154853 252.635113 
L 230.295233 297.516364 
L 230.435612 292.815088 
L 230.575992 296.79922 
L 230.716372 292.815088 
L 230.856752 273.113553 
L 230.997132 280.444357 
L 231.137512 297.596047 
L 231.277892 294.09001 
L 231.558652 216.837684 
L 231.839411 305.106136 
L 231.979791 259.866313 
L 232.120171 256.519642 
L 232.260551 300.165812 
L 232.400931 295.345012 
L 232.541311 295.345012 
L 232.681691 340.584835 
L 232.82207 345.24627 
L 232.96245 372.418052 
L 233.24321 372.418052 
L 233.38359 376.043613 
L 233.52397 413.016361 
L 233.66435 417.837161 
L 233.80473 417.837161 
L 233.94511 370.904082 
L 234.085489 419.689783 
L 234.787389 268.51188 
L 235.068149 332.198236 
L 235.208528 311.899082 
L 235.348908 353.533265 
L 235.489288 308.293442 
L 235.629668 304.946771 
L 235.770048 314.86726 
L 235.910428 305.922883 
L 236.050808 328.234025 
L 236.191188 307.93487 
L 236.331568 311.281541 
L 236.471947 311.281541 
L 236.612327 356.521364 
L 236.752707 311.281541 
L 236.893087 307.93487 
L 237.173847 344.788095 
L 237.314227 403.65365 
L 237.454607 403.65365 
L 237.735366 332.098633 
L 237.875746 336.262051 
L 238.016126 322.297667 
L 238.156506 337.776022 
L 238.718025 219.845704 
L 238.858405 246.160898 
L 239.139165 424.689869 
L 239.279545 386.760929 
L 239.419925 411.801201 
L 239.560305 415.147872 
L 239.700685 409.988421 
L 239.841065 411.044216 
L 239.981444 398.593802 
L 240.262204 348.393734 
L 240.402584 375.585438 
L 240.683344 279.249117 
L 240.823724 277.974195 
L 240.964104 242.634941 
L 241.104483 376.56155 
L 241.244863 398.972295 
L 241.385243 389.78887 
L 241.525623 411.422708 
L 241.666003 397.856738 
L 241.806383 425.128124 
L 241.946763 429.948924 
L 242.227523 351.58104 
L 242.508282 409.649769 
L 242.648662 375.744803 
L 242.789042 397.3388 
L 242.929422 354.569139 
L 243.069802 363.633041 
L 243.210182 391.163395 
L 243.350562 374.649167 
L 243.490941 327.716087 
L 243.631321 350.186594 
L 243.912081 300.564225 
L 244.052461 337.258084 
L 244.192841 304.249548 
L 244.333221 337.258084 
L 244.473601 314.84734 
L 244.61398 314.84734 
L 244.75436 423.912963 
L 244.89474 444.212118 
L 245.1755 368.43392 
L 245.31588 374.609325 
L 245.45626 401.442457 
L 245.73702 341.062931 
L 245.877399 376.402185 
L 246.017779 367.178918 
L 246.158159 373.712895 
L 246.298539 394.01205 
L 246.579299 386.18323 
L 246.719679 408.653736 
L 246.860059 405.307065 
L 247.140818 348.373814 
L 247.561958 429.052494 
L 247.983098 369.051461 
L 248.123478 429.311463 
L 248.404237 311.600272 
L 248.544617 391.541888 
L 248.825377 373.912102 
L 248.965757 381.740922 
L 249.106137 356.70065 
L 249.386896 295.763346 
L 249.527276 281.798962 
L 249.667656 281.798962 
L 249.808036 242.734544 
L 249.948416 306.381059 
L 250.088796 306.381059 
L 250.229176 284.069917 
L 250.369556 338.174435 
L 250.650315 294.169693 
L 250.790695 307.695822 
L 250.931075 373.832419 
L 251.071455 293.831042 
L 251.211835 331.779902 
L 251.352215 292.715485 
L 251.492595 329.050772 
L 251.632975 284.468331 
L 251.773354 332.895459 
L 251.913734 329.548788 
L 252.194494 408.653736 
L 252.334874 413.374933 
L 252.475254 425.387092 
L 252.615634 247.4159 
L 252.896393 363.573279 
L 253.036773 388.613551 
L 253.177153 388.613551 
L 253.317533 399.470311 
L 253.598293 326.58061 
L 253.738673 373.513689 
L 254.019433 281.340787 
L 254.159812 291.261276 
L 254.300192 338.194355 
L 254.440572 315.126229 
L 254.580952 311.142097 
L 254.721332 334.210223 
L 254.861712 383.553702 
L 255.002092 357.238508 
L 255.142472 383.553702 
L 255.423231 325.245925 
L 255.563611 317.935042 
L 255.703991 356.99946 
L 255.844371 352.836042 
L 255.984751 352.836042 
L 256.125131 435.24782 
L 256.40589 373.593372 
L 256.54627 386.043785 
L 256.68665 437.080521 
L 256.82703 431.004719 
L 256.96741 419.371052 
L 257.10779 438.076554 
L 257.24817 438.076554 
L 257.52893 377.019725 
L 257.669309 365.784472 
L 257.950069 418.653909 
L 258.090449 423.474709 
L 258.371209 383.892354 
L 258.511589 395.247131 
L 258.651969 440.606478 
L 258.792348 424.092249 
L 259.073108 369.94789 
L 259.213488 409.012308 
L 259.494248 342.198408 
L 259.775008 350.585007 
L 259.915388 350.585007 
L 260.055767 312.656067 
L 260.196147 319.986871 
L 260.336527 357.915811 
L 260.476907 336.321813 
L 260.757667 394.111653 
L 260.898047 386.282833 
L 261.178806 413.454616 
L 261.319186 374.390198 
L 261.459566 367.637094 
L 261.599946 371.621226 
L 261.880706 434.490835 
L 262.021086 407.936592 
L 262.161466 431.004719 
L 262.301845 388.235058 
L 262.442225 388.474106 
L 262.582605 371.262654 
L 262.722985 367.915983 
L 262.863365 377.716949 
L 263.003745 358.891923 
L 263.144125 310.02654 
L 263.284505 352.796201 
L 263.424885 307.436854 
L 263.565264 303.273435 
L 263.705644 317.078454 
L 263.846024 365.943837 
L 263.986404 342.875711 
L 264.126784 338.891579 
L 264.267164 351.919691 
L 264.547924 424.371138 
L 264.688303 415.187713 
L 264.828683 405.127779 
L 264.969063 382.717035 
L 265.109443 337.477212 
L 265.249823 336.52102 
L 265.530583 357.816207 
L 265.670963 357.816207 
L 265.811343 341.959361 
L 265.951722 381.960049 
L 266.092102 381.960049 
L 266.232482 363.553358 
L 266.372862 360.206687 
L 266.653622 408.115878 
L 267.074761 368.872175 
L 267.215141 320.006791 
L 267.355521 348.5531 
L 267.495901 348.5531 
L 267.776661 400.067931 
L 267.917041 376.999805 
L 268.057421 376.999805 
L 268.1978 343.991268 
L 268.33818 342.457377 
L 268.47856 365.525503 
L 268.61894 349.011275 
L 268.75932 394.231177 
L 268.8997 385.705134 
L 269.18046 347.915638 
L 269.32084 343.931506 
L 269.461219 329.967122 
L 269.601599 347.576987 
L 269.741979 329.967122 
L 269.882359 355.007394 
L 270.022739 332.696253 
L 270.163119 332.696253 
L 270.303499 350.306118 
L 270.584258 279.02999 
L 270.865018 264.448065 
L 271.005398 269.527834 
L 271.286158 269.527834 
L 271.426538 264.248859 
L 271.707298 271.579662 
L 271.847677 293.990407 
L 271.988057 289.169607 
L 272.128437 311.480748 
L 272.268817 311.480748 
L 272.409197 289.070003 
L 272.689957 389.529901 
L 272.830337 344.290078 
L 273.111096 377.298615 
L 273.251476 358.453669 
L 273.391856 356.760412 
L 273.532236 352.935645 
L 273.672616 354.29025 
L 273.812996 351.541199 
L 273.953376 304.30931 
L 274.093756 362.019467 
L 274.234135 355.385887 
L 274.374515 336.142527 
L 274.655275 384.868466 
L 274.795655 363.274469 
L 275.076415 292.097944 
L 275.216795 256.75869 
L 275.357174 253.033526 
L 275.497554 360.246528 
L 275.637934 332.975142 
L 275.778314 415.645889 
L 275.918694 415.645889 
L 276.339834 347.298098 
L 276.480213 390.067759 
L 276.620593 385.246959 
L 276.760973 391.262999 
L 276.901353 383.434178 
L 277.182113 384.908307 
L 277.462873 330.405377 
L 277.603253 375.764724 
L 277.743632 330.405377 
L 277.884012 333.353635 
L 278.024392 349.808101 
L 278.164772 328.214104 
L 278.305152 350.36588 
L 278.585912 350.36588 
L 278.726292 350.485404 
L 278.866671 324.17021 
L 279.147431 399.271105 
L 279.568571 270.464105 
L 279.849331 258.651153 
L 280.13009 402.577934 
L 280.27047 357.218587 
L 280.55123 409.9685 
L 280.69161 406.183574 
L 280.97237 406.223416 
L 281.11275 379.908221 
L 281.253129 385.067673 
L 281.393509 368.613206 
L 281.533889 367.139077 
L 281.674269 373.792578 
L 281.814649 365.266535 
L 281.955029 376.342423 
L 282.095409 376.342423 
L 282.235789 380.326555 
L 282.376168 411.502391 
L 282.516548 389.091646 
L 282.797308 418.853115 
L 282.937688 373.613292 
L 283.078068 373.613292 
L 283.358828 385.605531 
L 283.639587 317.795598 
L 283.779967 284.787061 
L 284.060727 359.788353 
L 284.201107 359.788353 
L 284.341487 421.283436 
L 284.481867 394.968242 
L 284.622247 420.008514 
L 284.762626 408.77326 
L 284.903006 427.259634 
L 285.043386 382.019811 
L 285.183766 373.314482 
L 285.324146 351.720485 
L 285.464526 378.035679 
L 285.745286 317.656153 
L 286.026045 398.23523 
L 286.166425 355.565173 
L 286.306805 378.633299 
L 286.447185 353.593027 
L 286.587565 400.526106 
L 286.727945 378.115362 
L 286.868325 404.430556 
L 287.008705 359.190733 
L 287.289464 354.051202 
L 287.429844 305.185819 
L 287.710604 376.461947 
L 287.850984 387.039818 
L 288.131744 324.927195 
L 288.272123 303.333197 
L 288.412503 303.333197 
L 288.552883 343.553013 
L 288.693263 308.213759 
L 288.833643 318.811551 
L 288.974023 318.811551 
L 289.114403 307.576298 
L 289.254783 353.473503 
L 289.395163 310.703842 
L 289.535542 321.939095 
L 289.675922 276.579748 
L 289.816302 298.173746 
L 289.956682 345.106825 
L 290.237442 309.13011 
L 290.377822 335.445304 
L 290.518202 316.201945 
L 290.658581 316.201945 
L 290.798961 332.178316 
L 291.079721 255.025592 
L 291.220101 268.073626 
L 291.500861 341.222296 
L 291.641241 357.736525 
L 291.922 286.56 
L 292.06238 282.575868 
L 292.20276 299.787319 
L 292.34314 345.027142 
L 292.48352 439.251873 
L 292.6239 414.211601 
L 292.76428 443.216085 
L 292.90466 438.395284 
L 293.045039 423.315343 
L 293.185419 376.382264 
L 293.325799 380.366397 
L 293.746939 343.473331 
L 293.887319 354.708584 
L 294.027699 377.019725 
L 294.448838 270.862518 
L 294.589218 290.105878 
L 294.729598 274.607603 
L 294.869978 274.607603 
L 295.291118 325.026798 
L 295.431497 313.791545 
L 295.852637 252.057414 
L 295.993017 296.659776 
L 296.133397 296.659776 
L 296.273777 299.827161 
L 296.554536 373.434006 
L 296.694916 373.434006 
L 296.975676 416.402874 
L 297.116056 412.617948 
L 297.256436 401.561981 
L 297.537196 437.95703 
L 297.677576 432.797578 
L 297.958335 432.797578 
L 298.098715 427.777572 
L 298.239095 401.223329 
L 298.379475 428.454874 
L 298.519855 427.399079 
L 298.660235 423.375105 
L 298.800615 411.681677 
L 299.081374 340.12666 
L 299.221754 378.792664 
L 299.362134 331.859585 
L 299.502514 377.099408 
L 299.642894 377.338456 
L 299.783274 373.991785 
L 299.923654 373.991785 
L 300.064033 423.614153 
L 300.204413 426.960825 
L 300.485173 390.665379 
L 300.625553 386.521881 
L 300.765933 401.601822 
L 300.906313 401.601822 
L 301.046693 386.521881 
L 301.327452 394.90848 
L 301.467832 391.800856 
L 301.608212 396.701339 
L 301.748592 410.586041 
L 301.888972 384.270846 
L 302.029352 379.011792 
L 302.169732 339.329833 
L 302.450491 373.175038 
L 302.590871 350.764293 
L 302.871631 422.379072 
L 303.012011 418.39494 
L 303.152391 418.39494 
L 303.573531 362.71669 
L 303.85429 330.863552 
L 303.99467 330.624504 
L 304.13505 330.624504 
L 304.27543 334.608636 
L 304.55619 247.13701 
L 304.69657 247.13701 
L 304.836949 249.905982 
L 304.977329 285.245236 
L 305.117709 236.379853 
L 305.258089 236.379853 
L 305.819609 371.74075 
L 305.959988 362.298356 
L 306.100368 362.298356 
L 306.240748 358.951685 
L 306.381128 325.943148 
L 306.521508 325.943148 
L 306.661888 290.603894 
L 306.942648 329.269899 
L 307.083028 312.75567 
L 307.363787 388.533868 
L 307.784927 300.125971 
L 307.925307 309.309396 
L 308.065687 305.325263 
L 308.206067 329.508947 
L 308.346446 284.269124 
L 308.486826 290.962466 
L 308.627206 328.353549 
L 308.767586 328.353549 
L 309.048346 372.139163 
L 309.188726 406.083971 
L 309.329106 377.238853 
L 309.469486 407.179607 
L 309.750245 361.919864 
L 309.890625 391.860618 
L 310.031005 384.031798 
L 310.171385 385.545769 
L 310.311765 361.621054 
L 310.452145 375.426072 
L 310.592525 375.426072 
L 310.732904 374.350357 
L 310.873284 370.366224 
L 311.154044 331.580696 
L 311.434804 376.202978 
L 311.575184 380.187111 
L 311.715564 392.657445 
L 311.855944 370.346304 
L 312.136703 417.000494 
L 312.557843 292.058103 
L 312.698223 300.046288 
L 312.978983 400.565948 
L 313.119362 400.565948 
L 313.259742 390.764982 
L 313.400122 390.764982 
L 313.680882 352.118898 
L 313.961642 401.661584 
L 314.102022 382.418225 
L 314.382781 320.664173 
L 314.523161 329.58863 
L 314.663541 374.828453 
L 314.944301 360.166845 
L 315.084681 407.000321 
L 315.225061 416.004461 
L 315.6462 329.249978 
L 315.78658 325.903307 
L 315.92696 352.098977 
L 316.06734 334.389509 
L 316.20772 331.042838 
L 316.48848 358.214621 
L 316.628859 358.214621 
L 316.769239 426.721777 
L 316.909619 393.71324 
L 317.049999 419.988593 
L 317.190379 410.805168 
L 317.330759 379.031712 
L 317.471139 383.195131 
L 317.751899 323.831558 
L 317.892278 362.856135 
L 318.032658 317.616312 
L 318.173038 319.07052 
L 318.313418 333.154428 
L 318.453798 329.807757 
L 318.594178 344.867777 
L 318.734558 328.353549 
L 318.874938 331.70022 
L 319.015317 340.724279 
L 319.296077 340.724279 
L 319.436457 426.52257 
L 319.857597 349.668657 
L 320.278736 409.868897 
L 320.419116 388.274899 
L 320.559496 388.274899 
L 320.980636 325.126401 
L 321.121016 423.175899 
L 321.401775 423.175899 
L 321.542155 376.24282 
L 321.822915 369.151064 
L 321.963295 347.198495 
L 322.103675 414.231522 
L 322.244055 397.717293 
L 322.384435 440.486954 
L 322.524814 420.1878 
L 322.805574 451.742128 
L 323.086334 410.088024 
L 323.226714 441.024812 
L 323.367094 405.685558 
L 323.507474 419.01248 
L 323.788233 364.131057 
L 323.928613 364.131057 
L 324.068993 356.322158 
L 324.209373 309.389078 
L 324.349753 327.636405 
L 324.490133 410.56612 
L 324.630513 410.56612 
L 324.770893 377.557583 
L 324.911272 377.557583 
L 325.051652 392.597683 
L 325.192032 388.613551 
L 325.332412 373.573451 
L 325.472792 443.773863 
L 325.893932 406.621829 
L 326.034311 422.219707 
L 326.174691 415.865016 
L 326.315071 403.394682 
L 326.736211 286.081904 
L 327.016971 419.689783 
L 327.157351 420.964705 
L 327.29773 360.90391 
L 327.43811 360.405893 
L 327.71887 361.860102 
L 327.85925 354.230488 
L 327.99963 373.075434 
L 328.28039 357.955652 
L 328.420769 407.358893 
L 328.701529 335.445304 
L 328.982289 375.505755 
L 329.122669 420.865102 
L 329.263049 403.275158 
L 329.403429 354.409774 
L 329.543809 348.712465 
L 329.964948 388.135455 
L 330.105328 361.302323 
L 330.245708 387.09958 
L 330.386088 381.66124 
L 330.526468 325.006877 
L 330.666848 374.410119 
L 330.807227 375.6452 
L 330.947607 387.657359 
L 331.087987 362.617087 
L 331.228367 362.617087 
L 331.368747 390.386489 
L 331.509127 392.936334 
L 331.649507 388.952202 
L 331.789887 380.565603 
L 331.930266 380.565603 
L 332.211026 312.915036 
L 332.351406 290.603894 
L 332.632166 358.154859 
L 332.912926 289.846909 
L 333.053306 312.915036 
L 333.193685 384.589577 
L 333.334065 379.390284 
L 333.474445 397.000149 
L 333.755205 380.944096 
L 334.035965 319.66814 
L 334.316724 406.303098 
L 334.457104 406.303098 
L 334.597484 397.119673 
L 334.737864 374.768691 
L 334.878244 379.589491 
L 335.018624 360.346131 
L 335.159004 356.361999 
L 335.299384 356.361999 
L 335.439764 353.015328 
L 335.580143 395.605703 
L 335.860903 362.597166 
L 336.001283 327.257912 
L 336.141663 327.257912 
L 336.282043 335.385542 
L 336.422423 333.911413 
L 336.562803 336.620623 
L 336.703182 291.261276 
L 336.843562 373.075434 
L 336.983942 373.075434 
L 337.124322 372.457894 
L 337.264702 372.457894 
L 337.405082 353.214534 
L 337.545462 304.349151 
L 337.685842 341.301979 
L 337.826221 318.990837 
L 338.106981 404.908652 
L 338.247361 399.450391 
L 338.387741 377.856393 
L 338.528121 332.497046 
L 338.668501 379.450046 
L 338.808881 360.206687 
L 339.08964 390.685299 
L 339.3704 332.636491 
L 339.79154 430.885195 
L 339.93192 430.885195 
L 340.0723 391.820777 
L 340.212679 384.191164 
L 340.493439 346.640716 
L 340.633819 397.478245 
L 340.774199 375.0675 
L 340.914579 328.134421 
L 341.054959 339.369674 
L 341.195339 378.434092 
L 341.335719 356.840095 
L 341.476098 311.480748 
L 341.616478 323.931162 
L 341.756858 356.840095 
L 341.897238 356.840095 
L 342.037618 423.136057 
L 342.177998 418.972639 
L 342.318378 445.805771 
L 342.458758 423.395026 
L 342.599137 419.410894 
L 342.739517 419.410894 
L 342.879897 408.17564 
L 343.020277 430.586385 
L 343.160657 419.510497 
L 343.441417 357.975573 
L 343.581797 397.03999 
L 343.722176 385.864499 
L 343.862556 385.864499 
L 344.002936 346.800081 
L 344.143316 371.840353 
L 344.283696 353.134852 
L 344.424076 317.795598 
L 344.564456 392.059825 
L 344.704836 372.816466 
L 344.845216 371.760671 
L 344.985595 373.035593 
L 345.125975 386.840612 
L 345.266355 363.752565 
L 345.547115 363.752565 
L 345.687495 402.916586 
L 345.827875 383.673226 
L 345.968255 383.673226 
L 346.108634 394.90848 
L 346.389394 313.03456 
L 346.529774 373.85234 
L 346.810534 317.357343 
L 346.950914 317.357343 
L 347.091294 313.373211 
L 347.231674 302.357085 
L 347.372053 279.288958 
L 347.652813 337.198322 
L 347.793193 358.79232 
L 348.073953 324.648305 
L 348.214333 361.322244 
L 348.354713 365.485662 
L 348.495092 388.553789 
L 348.635472 380.724968 
L 348.916232 296.918744 
L 349.056612 296.918744 
L 349.196992 319.488854 
L 349.477752 403.793095 
L 349.618132 384.549736 
L 349.758511 390.565775 
L 349.898891 390.565775 
L 350.179651 326.142355 
L 350.320031 304.548358 
L 350.460411 319.787664 
L 350.600791 399.769121 
L 350.741171 402.797062 
L 351.02193 341.381661 
L 351.30269 326.799737 
L 351.58345 332.078712 
L 351.72383 339.668484 
L 352.004589 414.131918 
L 352.144969 391.721174 
L 352.285349 387.557755 
L 352.566109 329.827677 
L 352.706489 341.062931 
L 352.846869 314.229799 
L 352.987249 333.174349 
L 353.127629 334.688319 
L 353.408388 325.883386 
L 353.548768 276.480145 
L 353.689148 279.826816 
L 353.829528 260.583457 
L 354.110288 303.353118 
L 354.391047 364.987646 
L 354.531427 348.473417 
L 354.671807 390.087679 
L 354.812187 357.079143 
L 354.952567 390.087679 
L 355.092947 386.103547 
L 355.233327 435.506788 
L 355.373707 424.650028 
L 355.514087 447.718154 
L 355.654466 426.124157 
L 355.935226 426.124157 
L 356.075606 413.912791 
L 356.215986 365.047408 
L 356.356366 363.095183 
L 356.496746 379.609411 
L 356.637126 379.609411 
L 356.917885 330.744028 
L 357.198645 362.975659 
L 357.339025 363.31431 
L 357.479405 340.903565 
L 357.619785 386.382436 
L 357.760165 259.268693 
L 357.900544 263.232905 
L 358.040924 227.893651 
L 358.321684 333.174349 
L 358.462064 328.353549 
L 358.602444 346.899685 
L 358.883204 300.026367 
L 359.444723 435.705995 
L 359.865863 459.829917 
L 360.146623 399.350787 
L 360.287002 442.120448 
L 360.567762 382.756876 
L 360.708142 360.445735 
L 360.848522 385.446165 
L 360.988902 352.437629 
L 361.129282 375.306548 
L 361.410042 335.724193 
L 361.550421 331.740061 
L 361.690801 383.593544 
L 361.831181 338.353721 
L 361.971561 332.31776 
L 362.111941 343.174521 
L 362.252321 388.414344 
L 362.392701 392.398476 
L 362.533081 349.628815 
L 362.67346 388.095613 
L 362.81384 388.095613 
L 362.95422 395.426417 
L 363.0946 438.196078 
L 363.23498 433.036626 
L 363.37536 387.796803 
L 363.51574 383.812671 
L 363.65612 421.622087 
L 363.796499 376.382264 
L 363.936879 370.684955 
L 364.077259 374.669087 
L 364.217639 370.684955 
L 364.498399 427.359238 
L 364.638779 436.542663 
L 364.779159 422.578279 
L 365.059918 440.526795 
L 365.200298 432.697975 
L 365.340678 393.633557 
L 365.481058 393.633557 
L 365.621438 371.481781 
L 365.761818 322.07854 
L 365.902198 322.07854 
L 366.042578 371.481781 
L 366.182957 357.517397 
L 366.323337 330.524901 
L 366.463717 369.589318 
L 366.604097 369.589318 
L 366.884857 307.456774 
L 367.025237 326.700134 
L 367.165617 326.700134 
L 367.446376 281.659517 
L 367.586756 330.445218 
L 367.727136 302.914863 
L 367.867516 393.235144 
L 368.148276 340.365708 
L 368.288656 371.581385 
L 368.429036 349.17064 
L 368.569415 357.178746 
L 368.850175 299.647875 
L 368.990555 299.647875 
L 369.130935 436.662187 
L 369.411695 398.494199 
L 369.552075 398.494199 
L 369.692454 353.134852 
L 369.832834 369.788525 
L 369.973214 336.779988 
L 370.113594 353.294217 
L 370.253974 331.70022 
L 370.394354 358.214621 
L 370.534734 358.214621 
L 370.675114 407.896751 
L 370.955873 362.676849 
L 371.236633 278.472211 
L 371.517393 302.954705 
L 371.657773 257.714882 
L 371.798153 257.714882 
L 371.938533 387.09958 
L 372.078912 387.09958 
L 372.219292 379.27076 
L 372.500052 338.63261 
L 372.640432 335.285939 
L 372.780812 351.222468 
L 372.921192 385.446165 
L 373.061572 358.891923 
L 373.482711 379.330522 
L 373.623091 359.449702 
L 373.763471 355.465569 
L 374.044231 312.73575 
L 374.184611 384.868466 
L 374.324991 381.521795 
L 374.46537 336.281972 
L 374.60575 330.086646 
L 374.74613 355.126918 
L 375.02689 285.96238 
L 375.30765 311.082335 
L 375.44803 297.117951 
L 375.588409 251.758604 
L 375.728789 297.117951 
L 375.869169 279.508086 
L 376.009549 311.919003 
L 376.149929 276.579748 
L 376.571069 378.095441 
L 376.711449 357.796287 
L 376.851828 357.796287 
L 377.132588 391.382523 
L 377.272968 358.373986 
L 377.413348 354.389854 
L 377.553728 323.034732 
L 377.694108 323.034732 
L 377.834488 319.688061 
L 377.974867 328.871486 
L 378.115247 302.556291 
L 378.255627 342.198408 
L 378.396007 416.263429 
L 378.536387 369.33035 
L 378.676767 374.15115 
L 378.957527 344.070951 
L 379.097907 420.586213 
L 379.378666 378.274727 
L 379.519046 412.578107 
L 379.659426 418.773433 
L 379.940186 357.676763 
L 380.080566 404.609842 
L 380.501705 334.469192 
L 380.782465 372.6571 
L 380.922845 339.648564 
L 381.063225 343.413569 
L 381.203605 407.677624 
L 381.343985 407.677624 
L 381.484364 363.055341 
L 381.624744 370.067414 
L 381.765124 358.832161 
L 381.905504 397.518086 
L 382.045884 387.577676 
L 382.186264 411.103978 
L 382.607404 313.771624 
L 382.888163 428.215826 
L 383.028543 450.367602 
L 383.309303 441.363463 
L 383.449683 408.354926 
L 383.590063 414.809221 
L 383.730443 407.338973 
L 383.870822 368.274555 
L 384.011202 371.621226 
L 384.151582 380.326555 
L 384.291962 445.945215 
L 384.432342 410.605961 
L 384.572722 419.29137 
L 384.853482 378.732902 
L 384.993862 329.329661 
L 385.274621 364.350184 
L 385.415001 341.282058 
L 385.695761 378.832506 
L 385.836141 345.823969 
L 385.976521 345.823969 
L 386.25728 392.597683 
L 386.39766 369.529556 
L 386.53804 369.529556 
L 386.67842 382.816638 
L 386.95918 349.310085 
L 387.09956 355.326125 
L 387.23994 332.656411 
L 387.38032 364.569312 
L 387.520699 342.25817 
L 387.661079 342.25817 
L 387.801459 369.091302 
L 387.941839 330.026884 
L 388.082219 326.042752 
L 388.222599 360.824227 
L 388.362979 364.80836 
L 388.503359 382.019811 
L 388.643738 382.019811 
L 388.784118 403.613809 
L 388.924498 442.678227 
L 389.064878 442.678227 
L 389.205258 445.347595 
L 389.345638 456.204356 
L 389.766777 370.127176 
L 390.047537 403.135713 
L 390.187917 367.796459 
L 390.328297 413.036282 
L 390.468677 364.170898 
L 390.609057 358.035335 
L 390.749437 357.836128 
L 390.889817 332.118554 
L 391.030196 367.457808 
L 391.310956 324.508861 
L 391.451336 279.149514 
L 391.591716 391.62157 
L 391.732096 387.637438 
L 391.872476 392.458238 
L 392.012856 384.629418 
L 392.153235 422.179866 
L 392.293615 389.171329 
L 392.433995 393.155461 
L 392.714755 275.922367 
L 392.995515 291.241356 
L 393.135895 311.83932 
L 393.276275 290.245322 
L 393.416654 374.689008 
L 393.697414 360.107083 
L 393.837794 408.295164 
L 393.978174 389.051805 
L 394.118554 389.051805 
L 394.258934 356.043268 
L 394.399314 357.716604 
L 394.539693 357.716604 
L 394.680073 382.896321 
L 394.820453 382.896321 
L 394.960833 347.557067 
L 395.101213 347.557067 
L 395.241593 375.426072 
L 395.381973 375.884248 
L 395.522353 375.884248 
L 395.662732 328.951168 
L 395.943492 321.620365 
L 396.083872 301.91883 
L 396.224252 344.688491 
L 396.364632 336.859671 
L 396.645392 399.689438 
L 396.785772 403.673571 
L 396.926151 384.430212 
L 397.066531 406.840956 
L 397.347291 322.636319 
L 397.487671 321.102428 
L 397.768431 259.687027 
L 398.04919 349.130799 
L 398.18957 358.035335 
L 398.32995 354.389854 
L 398.61071 367.557411 
L 398.89147 397.03999 
L 399.03185 389.21117 
L 399.17223 398.294992 
L 399.312609 398.852771 
L 399.452989 365.844234 
L 399.593369 398.852771 
L 399.733749 387.617517 
L 399.874129 349.449529 
L 400.014509 354.27033 
L 400.154889 350.106911 
L 400.295269 375.147183 
L 400.435648 350.624848 
L 400.576028 373.175038 
L 400.716408 373.175038 
L 400.856788 396.043957 
L 401.277928 357.915811 
L 401.418308 360.6051 
L 401.558687 378.214965 
L 401.699067 329.429264 
L 401.839447 329.429264 
L 402.120207 403.494285 
L 402.400967 403.494285 
L 402.541347 397.239197 
L 402.962486 342.83587 
L 403.102866 342.83587 
L 403.243246 321.241872 
L 403.383626 343.553013 
L 403.664386 223.610709 
L 403.804766 220.264037 
L 403.945145 379.410205 
L 404.225905 289.86683 
L 404.506665 356.322158 
L 404.647045 306.918916 
L 404.787425 301.799306 
L 405.068185 355.704617 
L 405.208564 334.11062 
L 405.348944 359.150892 
L 405.629704 316.839406 
L 405.770084 281.500152 
L 405.910464 281.500152 
L 406.050844 330.903393 
L 406.191224 308.492649 
L 406.331603 308.492649 
L 406.471983 327.736008 
L 406.612363 324.389337 
L 406.752743 298.074143 
L 406.893123 319.66814 
L 407.033503 286.659603 
L 407.173883 289.149686 
L 407.314263 315.46488 
L 407.595022 273.91038 
L 407.735402 285.783094 
L 407.875782 240.423747 
L 408.016162 245.383992 
L 408.577682 392.139508 
L 408.718061 362.198753 
L 408.858441 358.852082 
L 408.998821 336.142527 
L 409.139201 332.158395 
L 409.419961 394.251098 
L 409.560341 355.18668 
L 409.700721 360.405893 
L 409.98148 391.90046 
L 410.12186 384.37045 
L 410.26224 384.37045 
L 410.40262 380.386317 
L 410.543 392.896493 
L 410.68338 351.859929 
L 410.82376 348.513258 
L 411.104519 432.717896 
L 411.244899 418.753512 
L 411.385279 418.753512 
L 411.525659 400.705392 
L 411.666039 414.669776 
L 411.806419 345.644683 
L 411.946799 331.879506 
L 412.087179 334.210223 
L 412.227558 285.34484 
L 412.367938 291.599927 
L 412.508318 314.130196 
L 412.648698 314.130196 
L 412.789078 335.724193 
L 412.929458 309.169951 
L 413.069838 348.772227 
L 413.210218 341.541027 
L 413.350597 350.226435 
L 413.490977 327.815691 
L 413.631357 327.815691 
L 413.771737 324.210051 
L 414.052497 399.470311 
L 414.192877 373.155117 
L 414.333257 373.155117 
L 414.473637 350.843976 
L 414.614016 350.843976 
L 414.754396 372.716862 
L 414.894776 367.637094 
L 415.035156 391.223157 
L 415.175536 387.876486 
L 415.315916 366.282489 
L 415.596676 411.821122 
L 415.737055 449.311807 
L 415.877435 437.618379 
L 416.017815 454.132607 
L 416.298575 434.94901 
L 416.438955 452.558875 
L 416.719715 419.29137 
L 416.860095 419.29137 
L 417.140854 428.375192 
L 417.281234 402.059997 
L 417.421614 428.375192 
L 417.561994 418.056289 
L 417.983134 312.038526 
L 418.123513 330.385456 
L 418.263893 325.564656 
L 418.404273 301.739544 
L 418.544653 301.739544 
L 418.685033 306.560344 
L 418.825413 292.595961 
L 418.965793 315.664087 
L 419.106173 293.253342 
L 419.667692 373.453927 
L 419.808072 326.520848 
L 419.948452 447.917361 
L 420.088832 445.247992 
L 420.229212 423.653995 
L 420.369592 420.307323 
L 420.509971 374.947977 
L 420.650351 425.227727 
L 420.790731 413.992474 
L 421.071491 367.059394 
L 421.211871 369.549477 
L 421.352251 366.521537 
L 421.492631 377.75679 
L 421.63301 358.513431 
L 421.77339 405.44651 
L 421.91377 356.581126 
L 422.05415 359.609067 
L 422.19453 384.649339 
L 422.33491 361.780419 
L 422.47529 379.609411 
L 422.75605 325.08656 
L 422.896429 322.895287 
L 423.036809 328.971089 
L 423.177189 325.006877 
L 423.598329 405.068017 
L 423.738709 355.664776 
L 423.879089 360.943751 
L 424.019468 410.346993 
L 424.159848 410.346993 
L 424.300228 388.752995 
L 424.580988 325.803704 
L 424.861748 273.093633 
L 425.002128 306.102169 
L 425.142508 273.093633 
L 425.282887 269.746961 
L 425.563647 296.420728 
L 425.704027 296.420728 
L 425.844407 353.274296 
L 425.984787 353.274296 
L 426.125167 416.223588 
L 426.265547 412.199614 
L 426.405926 394.549908 
L 426.546306 401.303012 
L 426.686686 375.96393 
L 426.967446 420.845181 
L 427.107826 371.44194 
L 427.248206 419.371052 
L 427.528965 419.371052 
L 427.669345 424.191853 
L 427.809725 420.20772 
L 428.090485 432.558531 
L 428.230865 387.318708 
L 428.371245 387.318708 
L 428.511625 348.772227 
L 428.652005 354.031282 
L 428.792384 353.194614 
L 428.932764 397.717293 
L 429.073144 402.538093 
L 429.213524 353.67271 
L 429.353904 345.84389 
L 429.494284 392.019984 
L 429.634664 382.836559 
L 429.775044 396.900546 
L 429.915423 423.295423 
L 430.055803 415.307237 
L 430.196183 424.749631 
L 430.757703 296.380886 
L 430.898083 322.536715 
L 431.178842 401.24325 
L 431.459602 371.103289 
L 431.740362 405.227382 
L 431.880742 394.370622 
L 432.021122 323.413224 
L 432.161502 345.784128 
L 432.442261 317.297581 
L 432.582641 272.057758 
L 432.723021 295.982473 
L 432.863401 269.667279 
L 433.144161 396.342767 
L 433.284541 371.820433 
L 433.42492 378.274727 
L 433.5653 332.91538 
L 433.70568 334.150461 
L 433.84606 373.155117 
L 433.98644 361.919864 
L 434.12682 362.09915 
L 434.2672 348.134766 
L 434.40758 374.44996 
L 434.54796 347.895718 
L 434.688339 344.549047 
L 434.969099 354.728505 
L 435.109479 332.31776 
L 435.249859 331.759982 
L 435.390239 352.059136 
L 435.530619 346.899685 
L 435.670999 373.453927 
L 435.811378 359.648908 
L 435.951758 374.728849 
L 436.092138 352.955566 
L 436.232518 385.964102 
L 436.372898 376.780677 
L 436.513278 355.106997 
L 436.653658 377.119329 
L 436.794038 381.103461 
L 437.074797 359.509464 
L 437.355557 280.125626 
L 437.495937 325.365449 
L 437.636317 325.365449 
L 437.776697 306.12209 
L 437.917077 306.12209 
L 438.057457 325.365449 
L 438.197836 384.968069 
L 438.478596 347.67659 
L 438.618976 302.317244 
L 438.899736 429.988765 
L 439.320875 390.864585 
L 439.461255 345.624762 
L 439.601635 341.839837 
L 439.742015 342.895632 
L 439.882395 326.680213 
L 440.022775 326.680213 
L 440.163155 372.159084 
L 440.303535 349.748339 
L 440.443915 354.569139 
L 440.724674 282.376661 
L 440.865054 311.221779 
L 441.005434 283.532059 
L 441.145814 283.532059 
L 441.286194 290.862863 
L 441.426574 290.862863 
L 441.566954 283.532059 
L 441.707333 303.233594 
L 441.847713 303.233594 
L 441.988093 295.404774 
L 442.128473 346.1427 
L 442.268853 336.959274 
L 442.549613 368.832333 
L 442.689993 333.493079 
L 442.830373 328.672279 
L 442.970752 313.193925 
L 443.111132 314.668054 
L 443.391892 388.155375 
L 443.532272 385.58561 
L 443.672652 404.430556 
L 443.953412 346.381747 
L 444.234171 311.899082 
L 444.374551 289.587941 
L 444.655311 199.466867 
L 444.936071 262.914174 
L 445.076451 236.081043 
L 445.35721 306.679868 
L 445.49759 319.468933 
L 445.63797 308.23368 
L 446.05911 220.463244 
L 446.19949 196.359243 
L 446.33987 231.698497 
L 446.480249 236.519297 
L 446.761009 163.031976 
L 446.901389 403.813015 
L 447.041769 406.641749 
L 447.182149 384.231005 
L 447.322529 392.21919 
L 447.462909 414.629935 
L 447.603288 269.328628 
L 447.743668 269.328628 
L 447.884048 291.739372 
L 448.164808 412.856996 
L 448.305188 401.621743 
L 448.445568 275.643477 
L 448.585948 293.392787 
L 448.866707 385.266879 
L 449.147467 329.847598 
L 449.287847 381.103461 
L 449.849367 362.238594 
L 449.989746 340.644597 
L 450.270506 283.014122 
L 450.410886 334.588716 
L 450.691646 309.050427 
L 450.832026 365.784472 
L 450.972406 355.465569 
L 451.112785 377.059567 
L 451.674305 279.966261 
L 451.814685 335.146494 
L 451.955065 296.082076 
L 452.095445 318.393218 
L 452.376204 246.718676 
L 452.516584 197.853293 
L 452.797344 358.453669 
L 452.937724 378.414172 
L 453.358864 245.244547 
L 453.499243 249.706776 
L 453.780003 408.77326 
L 453.920383 361.840181 
L 454.060763 394.848718 
L 454.201143 371.780591 
L 454.481903 412.996441 
L 454.622283 429.450907 
L 454.762662 429.450907 
L 454.903042 439.231952 
L 455.043422 435.24782 
L 455.183802 461.563014 
L 455.324182 447.59863 
L 455.604942 379.250839 
L 455.745322 414.590094 
L 455.885701 397.9165 
L 456.026081 396.561895 
L 456.166461 400.546027 
L 456.306841 375.505755 
L 456.447221 386.521881 
L 456.587601 360.206687 
L 456.727981 376.720915 
L 456.868361 353.652789 
L 457.00874 362.178832 
L 457.14912 339.867691 
L 457.2895 366.182885 
L 457.42988 346.939526 
L 457.57026 307.875108 
L 457.71064 321.839492 
L 457.85102 300.245495 
L 457.9914 300.245495 
L 458.13178 255.005672 
L 458.412539 335.485145 
L 458.552919 324.249892 
L 459.114439 405.984368 
L 459.254819 359.051288 
L 459.395198 397.597769 
L 459.535578 400.62571 
L 459.816338 328.6922 
L 459.956718 369.489715 
L 460.097098 330.425297 
L 460.237478 326.660292 
L 460.377858 337.895546 
L 460.518238 333.911413 
L 460.658617 337.895546 
L 460.939377 280.065864 
L 461.079757 258.113295 
L 461.360517 294.68763 
L 461.500897 343.553013 
L 461.641277 329.58863 
L 461.781656 433.813532 
L 462.202796 376.740836 
L 462.343176 376.740836 
L 462.623936 307.496616 
L 462.904696 362.895976 
L 463.045075 346.441509 
L 463.185455 380.027745 
L 463.325835 340.963327 
L 463.466215 340.963327 
L 463.606595 314.409085 
L 463.746975 333.652445 
L 463.887355 380.585524 
L 464.168114 309.408999 
L 464.308494 329.269899 
L 464.448874 284.030076 
L 464.589254 310.584318 
L 464.729634 306.600186 
L 464.870014 321.640285 
L 465.010394 350.784214 
L 465.150774 301.380972 
L 465.291153 296.18168 
L 465.431533 345.047063 
L 465.571913 312.038526 
L 465.712293 332.576729 
L 465.993053 415.665809 
L 466.133433 393.294906 
L 466.273813 344.429523 
L 466.554572 331.301806 
L 466.694952 380.705048 
L 466.835332 369.469795 
L 466.975712 369.469795 
L 467.396852 287.217382 
L 467.677611 377.059567 
L 467.817991 409.948579 
L 467.958371 405.964447 
L 468.098751 361.382006 
L 468.239131 391.940301 
L 468.379511 380.346476 
L 468.519891 380.346476 
L 468.660271 396.860705 
L 468.94103 351.222468 
L 469.08141 347.875797 
L 469.22179 374.430039 
L 469.36217 352.118898 
L 469.50255 352.118898 
L 469.64293 320.943062 
L 469.78331 320.943062 
L 469.92369 310.245667 
L 470.064069 310.245667 
L 470.204449 308.791459 
L 470.344829 322.67616 
L 470.485209 296.360966 
L 470.625589 363.633041 
L 470.906349 308.313363 
L 471.046729 345.465397 
L 471.187108 346.182541 
L 471.327488 339.54896 
L 471.608248 421.960738 
L 471.748628 376.601391 
L 471.889008 421.960738 
L 472.169768 353.612948 
L 472.310148 345.784128 
L 472.450527 345.784128 
L 472.731287 404.191508 
L 472.871667 395.008083 
L 473.012047 397.677452 
L 473.152427 402.876744 
L 473.292807 436.223932 
L 473.433187 413.155806 
L 473.573566 367.796459 
L 473.713946 381.242906 
L 473.994706 314.946943 
L 474.135086 311.600272 
L 474.275466 367.676935 
L 474.415846 318.811551 
L 474.556226 315.026626 
L 474.696606 268.093546 
L 474.836985 316.95893 
L 474.977365 316.95893 
L 475.117745 305.723677 
L 475.258125 357.417794 
L 475.538885 310.066381 
L 475.679265 358.294303 
L 475.819645 361.640974 
L 475.960024 382.657273 
L 476.100404 378.872347 
L 476.381164 448.534901 
L 476.802304 384.569656 
L 476.942684 383.912274 
L 477.083063 383.812671 
L 477.223443 403.05603 
L 477.363823 376.501788 
L 477.504203 403.454444 
L 477.925343 288.611828 
L 478.065723 293.890804 
L 478.206103 340.823883 
L 478.346482 350.525245 
L 478.486862 375.565517 
L 478.627242 350.525245 
L 478.767622 432.160117 
L 478.908002 405.605875 
L 479.188762 429.590352 
L 479.329142 411.860963 
L 479.469521 367.23868 
L 479.609901 373.434006 
L 479.750281 372.816466 
L 479.890661 380.804651 
L 480.311801 344.628729 
L 480.452181 345.027142 
L 480.73294 426.662015 
L 480.87332 437.518775 
L 481.29446 315.405118 
L 481.43484 322.97497 
L 481.57522 369.908049 
L 481.855979 347.497305 
L 481.996359 358.613034 
L 482.136739 402.318966 
L 482.277119 402.318966 
L 482.417499 384.948149 
L 482.557879 411.502391 
L 482.698259 392.259032 
L 482.838639 437.817585 
L 482.979018 434.470914 
L 483.119398 399.13166 
L 483.259778 434.470914 
L 483.680918 376.820519 
L 483.821298 412.159773 
L 483.961678 408.17564 
L 484.102058 416.622001 
L 484.382817 339.369674 
L 484.523197 375.485834 
L 484.663577 375.485834 
L 484.803957 360.226607 
L 484.944337 360.764465 
L 485.225097 385.685213 
L 485.365476 340.44539 
L 485.505856 332.61657 
L 485.646236 343.692458 
L 485.786616 343.692458 
L 485.926996 338.03499 
L 486.067376 291.101911 
L 486.207756 339.967294 
L 486.348136 291.101911 
L 486.488516 336.341734 
L 486.628895 340.325866 
L 486.909655 281.081818 
L 487.050035 258.770677 
L 487.330795 258.770677 
L 487.471175 213.530854 
L 487.751934 287.974367 
L 487.892314 277.894512 
L 488.032694 232.535165 
L 488.173074 281.320866 
L 488.313454 258.451946 
L 488.453834 258.451946 
L 489.155733 213.670298 
L 489.436493 278.771021 
L 489.576873 305.325263 
L 489.857633 238.371919 
L 489.998013 314.429006 
L 490.138392 321.18211 
L 490.278772 321.18211 
L 490.419152 456.363721 
L 490.559532 451.542921 
L 490.699912 451.542921 
L 490.840292 446.7022 
L 490.980672 375.465914 
L 491.121052 371.481781 
L 491.261431 415.745492 
L 491.542191 332.437284 
L 491.682571 332.437284 
L 491.963331 441.981004 
L 492.384471 373.892181 
L 492.52485 369.908049 
L 492.66523 369.908049 
L 492.80561 376.163137 
L 492.94599 346.003255 
L 493.22675 381.36243 
L 493.50751 406.263257 
L 493.647889 393.573795 
L 493.788269 407.139766 
L 493.928649 390.685299 
L 494.069029 407.139766 
L 494.209409 360.206687 
L 494.490169 360.206687 
L 494.630549 327.19815 
L 494.770928 351.063103 
L 494.911308 345.983334 
L 495.051688 359.947718 
L 495.192068 355.126918 
L 495.332448 384.131402 
L 495.472828 364.888042 
L 495.613208 387.956169 
L 495.753588 339.090785 
L 495.893968 336.321813 
L 496.174727 415.446682 
L 496.315107 415.446682 
L 496.595867 433.056547 
L 496.736247 406.741353 
L 496.876627 414.570173 
L 497.297766 484.232727 
L 497.438146 450.566809 
L 497.578526 446.542835 
L 497.718906 446.542835 
L 497.859286 427.299476 
L 497.999666 427.299476 
L 498.140046 392.398476 
L 498.280426 392.398476 
L 498.701565 349.051116 
L 498.841945 388.115534 
L 498.982325 395.944354 
L 499.122705 396.342767 
L 499.263085 399.689438 
L 499.403465 396.004116 
L 499.543844 373.593372 
L 499.824604 433.913136 
L 500.386124 403.63373 
L 500.526504 399.649597 
L 500.666884 399.649597 
L 500.807263 368.294475 
L 500.947643 375.525676 
L 501.088023 348.891751 
L 501.228403 375.525676 
L 501.368783 330.285853 
L 501.509163 375.525676 
L 501.649543 384.709101 
L 501.789923 363.115103 
L 501.930302 364.868122 
L 502.070682 358.413827 
L 502.211062 358.413827 
L 502.351442 368.055428 
L 502.632202 361.342164 
L 502.772582 375.306548 
L 502.912962 352.995407 
L 503.053341 303.592166 
L 503.193721 307.576298 
L 503.334101 355.923744 
L 503.474481 334.329747 
L 503.614861 354.628901 
L 503.755241 350.465483 
L 503.895621 315.126229 
L 504.036001 318.014725 
L 504.176381 340.325866 
L 504.31676 340.325866 
L 504.45714 317.915122 
L 504.59752 317.915122 
L 504.87828 280.284992 
L 505.01866 325.166243 
L 505.15904 333.951254 
L 505.29942 333.951254 
L 505.580179 362.41788 
L 505.860939 330.883473 
L 506.001319 334.230144 
L 506.141699 381.163223 
L 506.422459 348.154686 
L 506.562839 327.098547 
L 506.703218 323.751876 
L 506.983978 346.600875 
L 507.124358 311.261621 
L 507.405118 339.748167 
L 507.545498 294.508344 
L 507.826257 365.824313 
L 508.107017 281.619676 
L 508.247397 330.485059 
L 508.387777 325.325608 
L 508.528157 370.565431 
L 508.668537 375.724882 
L 508.808917 355.425728 
L 508.949296 352.656756 
L 509.089676 356.640888 
L 509.230056 340.12666 
L 509.370436 294.886837 
L 509.510816 308.851221 
L 509.651196 286.898651 
L 509.791576 295.922711 
L 510.072336 337.935387 
L 510.212715 298.870969 
L 510.353095 315.624246 
L 510.493475 315.624246 
L 510.633855 319.787664 
L 510.914615 268.870452 
L 511.054995 268.870452 
L 511.195375 282.755154 
L 511.335754 282.755154 
L 511.476134 317.656153 
L 511.616514 272.296806 
L 511.756894 272.296806 
L 511.897274 321.082507 
L 512.037654 301.839148 
L 512.178034 266.499894 
L 512.318414 351.700564 
L 512.458794 325.38537 
L 512.599173 322.038699 
L 512.739553 330.006963 
L 512.879933 376.282661 
L 513.160693 287.077937 
L 513.301073 330.345615 
L 513.441453 330.345615 
L 513.581833 292.735405 
L 513.722212 369.151064 
L 514.002972 292.735405 
L 514.143352 335.505066 
L 514.283732 321.540682 
L 514.424112 370.326383 
L 514.564492 366.162965 
L 514.704872 366.162965 
L 514.845251 369.509636 
L 514.985631 322.576557 
L 515.126011 322.576557 
L 515.266391 375.246786 
L 515.406771 382.318621 
L 515.547151 355.306204 
L 515.687531 374.549563 
L 515.827911 354.250409 
L 515.968291 354.250409 
L 516.10867 368.214793 
L 516.24905 415.147872 
L 516.38943 407.319052 
L 516.52981 384.908307 
L 516.67019 407.319052 
L 516.95095 407.319052 
L 517.09133 422.458755 
L 517.231709 380.884334 
L 517.512469 380.884334 
L 517.652849 402.13968 
L 517.793229 379.728935 
L 517.933609 375.744803 
L 518.073989 411.18366 
L 518.214369 415.964619 
L 518.354749 370.724796 
L 518.495128 375.884248 
L 518.635508 349.569053 
L 518.775888 377.099408 
L 519.197028 332.815777 
L 519.337408 352.059136 
L 519.477788 333.21419 
L 519.758547 363.135024 
L 519.898927 377.099408 
L 520.179687 334.030937 
L 520.320067 343.214362 
L 520.600827 275.982129 
L 520.741206 275.982129 
L 520.881586 259.487821 
L 521.162346 310.106222 
L 521.443106 386.18323 
L 521.583486 412.498424 
L 521.723866 403.314999 
L 521.864246 376.760757 
L 522.004625 327.895373 
L 522.145005 343.75222 
L 522.285385 376.760757 
L 522.425765 327.895373 
L 522.566145 321.441079 
L 522.706525 303.11407 
L 522.846905 351.979453 
L 522.987285 340.7442 
L 523.268044 281.818882 
L 523.408424 253.989718 
L 523.829564 308.153997 
L 523.969944 258.750756 
L 524.110324 255.404085 
L 524.250704 258.750756 
L 524.391083 258.750756 
L 524.671843 316.66012 
L 525.092983 203.829491 
L 525.233363 227.813968 
L 525.373743 216.578715 
L 525.514122 278.332767 
L 525.654502 274.348634 
L 525.794882 245.503516 
L 525.935262 292.436595 
L 526.075642 398.434437 
L 526.496782 308.412966 
L 526.637161 334.13054 
L 526.777541 311.819399 
L 527.479441 387.119501 
L 527.619821 455.248164 
L 527.760201 419.90891 
L 527.90058 414.888903 
L 528.04096 392.478159 
L 528.18134 403.33492 
L 528.32172 381.740922 
L 528.4621 377.577504 
L 528.60248 386.382436 
L 528.74286 386.721088 
L 528.88324 386.721088 
L 529.023619 364.569312 
L 529.163999 361.222641 
L 529.304379 370.406066 
L 529.444759 345.365794 
L 529.725519 407.020242 
L 529.865899 397.836817 
L 530.146659 444.471086 
L 530.287038 433.235833 
L 530.567798 369.370191 
L 530.708178 372.816466 
L 530.848558 352.198581 
L 530.988938 303.333197 
L 531.129318 348.214448 
L 531.269698 306.839234 
L 531.410077 306.44082 
L 531.550457 318.034646 
L 531.690837 318.034646 
L 531.831217 322.496874 
L 531.971597 275.563795 
L 532.111977 275.563795 
L 532.252357 253.15305 
L 532.533116 331.261965 
L 532.673496 340.44539 
L 532.813876 337.098719 
L 532.954256 298.034301 
L 533.094636 290.205481 
L 533.235016 298.034301 
L 533.375396 339.23023 
L 533.515776 339.23023 
L 533.936915 385.167276 
L 534.217675 327.118467 
L 534.358055 328.214104 
L 534.498435 372.816466 
L 534.638815 361.581212 
L 535.200334 361.581212 
L 535.621474 421.562325 
L 535.761854 402.318966 
L 535.902234 402.318966 
L 536.042614 421.562325 
L 536.182993 395.008083 
L 536.323373 395.008083 
L 536.463753 384.649339 
L 536.604133 401.163567 
L 536.744513 378.852426 
L 536.884893 412.219535 
L 537.025273 409.530245 
L 537.165653 419.331211 
L 537.306032 418.673829 
L 537.446412 383.334575 
L 537.586792 404.928573 
L 537.727172 404.928573 
L 537.867552 423.773519 
L 538.007932 419.6101 
L 538.148312 380.545682 
L 538.288692 415.884937 
L 538.569451 381.601478 
L 538.709831 332.736094 
L 538.990591 391.043871 
L 539.130971 410.26731 
L 539.552111 329.130454 
L 539.97325 329.130454 
L 540.11363 290.066036 
L 540.25401 299.249462 
L 540.39439 299.249462 
L 540.67515 243.172799 
L 540.815529 282.735233 
L 540.955909 387.796803 
L 541.096289 367.497649 
L 541.377049 295.384853 
L 541.517429 315.684008 
L 541.657809 446.7022 
L 541.798189 427.000666 
L 541.938569 427.000666 
L 542.078948 445.845612 
L 542.500088 376.083454 
L 542.640468 376.083454 
L 542.780848 383.314654 
L 542.921228 428.03654 
L 543.061608 405.625796 
L 543.201987 421.482643 
L 543.342367 421.482643 
L 543.482747 402.239283 
L 543.623127 402.239283 
L 543.763507 419.869069 
L 543.903887 380.804651 
L 544.184647 428.614239 
L 544.746166 305.22566 
L 544.886546 259.985837 
L 545.026926 259.985837 
L 545.167306 277.356654 
L 545.307686 277.356654 
L 545.448066 330.465139 
L 545.588445 331.281886 
L 545.728825 284.348807 
L 546.149965 392.119587 
L 546.290345 397.279038 
L 546.571105 313.592338 
L 546.711484 337.357688 
L 546.992244 307.177885 
L 547.132624 335.186336 
L 547.413384 260.782664 
L 547.553764 296.121918 
L 547.694144 250.762571 
L 547.834524 250.762571 
L 547.974903 269.607517 
L 548.115283 264.786717 
L 548.255663 303.213673 
L 548.396043 280.145547 
L 548.536423 363.872089 
L 548.817183 283.930473 
L 549.238322 283.930473 
L 549.378702 302.974625 
L 549.519082 381.701081 
L 549.659462 336.461258 
L 549.940222 336.461258 
L 550.080602 363.872089 
L 550.220982 340.803962 
L 550.361361 343.373728 
L 550.501741 388.733074 
L 550.642121 343.493251 
L 550.782501 346.839923 
L 550.922881 297.436681 
L 551.063261 297.436681 
L 551.344021 332.91538 
L 551.4844 316.401151 
L 551.62478 349.369847 
L 551.76516 345.584921 
L 551.90554 344.96738 
L 552.04592 322.656239 
L 552.1863 319.309568 
L 552.32668 274.069745 
L 552.46706 274.069745 
L 552.607439 269.448151 
L 552.747819 345.126746 
L 552.888199 322.058619 
L 553.028579 344.927539 
L 553.168959 340.943407 
L 553.309339 364.011533 
L 553.730479 296.141838 
L 553.870858 307.217726 
L 554.011238 307.217726 
L 554.151618 317.55655 
L 554.291998 315.225832 
L 554.432378 287.137699 
L 554.572758 282.316899 
L 554.853518 282.316899 
L 555.134277 364.589232 
L 555.274657 361.242561 
L 555.415037 387.557755 
L 555.555417 342.198408 
L 555.695797 363.075262 
L 555.836177 415.68573 
L 555.976557 410.665723 
L 556.257316 339.110706 
L 556.397696 348.294131 
L 556.538076 337.058878 
L 556.678456 297.99446 
L 556.818836 294.886837 
L 556.959216 281.320866 
L 557.239976 281.320866 
L 557.380355 276.958241 
L 557.520735 276.958241 
L 557.801495 348.513258 
L 557.941875 305.743597 
L 558.082255 344.389681 
L 558.222635 341.660551 
L 558.363015 335.02697 
L 558.503394 322.158223 
L 558.784154 342.397615 
L 558.924534 342.397615 
L 559.345674 274.089666 
L 559.907193 398.53404 
L 560.047573 376.123296 
L 560.187953 376.123296 
L 560.468713 312.118209 
L 560.609093 334.528954 
L 560.749473 314.229799 
L 560.889852 314.229799 
L 561.030232 329.369502 
L 561.310992 329.369502 
L 561.591752 283.173487 
L 561.732132 236.240408 
L 561.872512 261.28068 
L 562.012892 238.969539 
L 562.293651 238.969539 
L 562.434031 203.630285 
L 562.574411 208.351482 
L 562.714791 207.972989 
L 562.855171 185.104069 
L 562.995551 210.941168 
L 563.135931 210.941168 
L 563.27631 183.849068 
L 563.41669 202.27568 
L 563.55707 202.27568 
L 563.69745 249.208759 
L 563.97821 249.208759 
L 564.25897 210.144341 
L 564.399349 210.144341 
L 564.680109 171.916591 
L 564.820489 171.916591 
L 564.960869 168.291031 
L 565.241629 168.291031 
L 565.382009 199.466867 
L 565.522389 182.952638 
L 565.662768 205.263779 
L 565.803148 205.263779 
L 565.943528 198.909088 
L 566.224288 198.909088 
L 566.364668 195.223766 
L 566.505048 181.259382 
L 566.645428 181.259382 
L 566.785807 207.813624 
L 566.926187 162.573801 
L 567.066567 209.50688 
L 567.487707 209.50688 
L 567.768467 280.504119 
L 567.908847 294.468503 
L 568.049226 285.285078 
L 568.470366 285.285078 
L 568.610746 262.973936 
L 568.891506 197.195911 
L 569.172265 223.033009 
L 569.453025 214.905379 
L 569.593405 214.905379 
L 569.733785 230.762226 
L 569.874165 230.762226 
L 570.014545 222.774041 
L 570.856824 222.774041 
L 570.997204 268.133388 
L 571.418344 196.458847 
L 571.558723 215.463158 
L 572.260623 215.463158 
L 572.401003 265.065606 
L 572.541383 265.065606 
L 572.681762 287.356826 
L 572.822142 287.356826 
L 572.962522 298.59208 
L 573.102902 298.59208 
L 573.243282 313.891148 
L 573.524042 313.891148 
L 573.664422 278.551894 
L 573.945181 323.931162 
L 574.225941 245.563278 
L 574.366321 258.153136 
L 574.506701 258.153136 
L 574.647081 272.11752 
L 575.06822 350.485404 
L 575.2086 341.301979 
L 575.34898 321.002824 
L 575.48936 317.656153 
L 575.77012 333.154428 
L 575.9105 329.170296 
L 576.05088 332.516967 
L 576.19126 285.583888 
L 576.331639 332.516967 
L 576.472019 327.775849 
L 576.612399 350.644769 
L 576.752779 341.461344 
L 577.033539 341.461344 
L 577.173919 292.675643 
L 577.314299 289.328972 
L 577.595058 376.920122 
L 577.735438 376.920122 
L 577.875818 395.765068 
L 578.016198 350.405721 
L 578.156578 354.389854 
L 578.437338 305.245581 
L 578.718097 305.245581 
L 578.858477 286.002221 
L 578.998857 286.002221 
L 579.139237 289.348893 
L 579.419997 289.348893 
L 579.700757 340.12666 
L 579.841136 340.12666 
L 579.981516 357.338111 
L 580.121896 351.87985 
L 580.543036 294.946599 
L 580.964175 294.946599 
L 581.104555 330.285853 
L 581.244935 315.245753 
L 581.806455 315.245753 
L 581.946835 279.906499 
L 582.087215 315.245753 
L 582.227594 315.245753 
L 582.367974 327.078626 
L 582.508354 327.078626 
L 582.648734 323.094494 
L 582.789114 368.334317 
L 582.929494 374.330436 
L 583.210254 418.873036 
L 583.491013 328.333628 
L 583.631393 311.938923 
L 583.771773 311.938923 
L 583.912153 356.740492 
L 584.052533 317.676074 
L 584.192913 317.676074 
L 584.333293 314.329403 
L 584.473672 281.320866 
L 584.614052 281.320866 
L 584.754432 320.385284 
L 585.035192 320.385284 
L 585.175572 321.002824 
L 585.315952 303.293356 
L 585.596712 303.293356 
L 585.737091 282.994202 
L 585.877471 282.994202 
L 586.017851 286.340873 
L 586.298611 286.340873 
L 586.438991 328.592596 
L 586.579371 328.592596 
L 586.719751 313.452893 
L 587.00051 361.640974 
L 587.14089 322.576557 
L 587.42165 322.476953 
L 587.56203 322.476953 
L 587.70241 299.110017 
L 587.84279 299.110017 
L 587.98317 298.432714 
L 588.123549 298.432714 
L 588.263929 287.197461 
L 588.965829 287.197461 
L 589.106209 306.71971 
L 589.246588 283.651583 
L 589.386968 283.651583 
L 589.527348 248.312329 
L 589.808108 248.312329 
L 589.948488 202.952982 
L 590.088868 202.952982 
L 590.229248 205.2837 
L 590.369627 205.2837 
L 590.510007 238.292236 
L 590.650387 241.638908 
L 590.790767 208.630371 
L 591.071527 259.228852 
L 591.211907 213.989029 
L 591.633046 213.989029 
L 591.913806 205.841478 
L 592.475326 205.841478 
L 592.615706 269.169262 
L 592.756085 265.822591 
L 592.896465 243.870022 
L 593.177225 243.870022 
L 593.317605 217.31578 
L 593.457985 217.31578 
L 593.598365 228.551033 
L 594.440644 228.551033 
L 594.581024 231.897704 
L 594.721404 210.303707 
L 594.861784 255.54353 
L 595.282923 255.54353 
L 595.423303 252.196858 
L 595.563683 252.196858 
L 595.704063 258.212898 
L 595.984823 258.212898 
L 596.125203 212.973075 
L 596.265582 216.319746 
L 596.405962 216.319746 
L 596.546342 214.746014 
L 596.827102 214.746014 
L 596.967482 231.200481 
L 597.107862 231.200481 
L 597.248242 214.885459 
L 597.388622 214.885459 
L 597.529001 195.841306 
L 598.371281 195.841306 
L 598.511661 226.001188 
L 599.21356 226.001188 
L 599.35394 203.590444 
L 600.055839 203.590444 
L 600.196219 248.830267 
L 600.476979 248.830267 
L 600.617359 275.384509 
L 600.898119 275.384509 
L 601.038498 236.320091 
L 602.442297 236.320091 
L 602.582677 232.335959 
L 602.863437 232.335959 
L 603.003817 254.746703 
L 603.144197 231.678577 
L 603.284577 231.678577 
L 603.424956 278.611656 
L 603.705716 278.611656 
L 603.846096 279.368641 
L 603.986476 279.368641 
L 604.126856 283.591821 
L 604.267236 283.591821 
L 604.547995 224.606742 
L 604.969135 224.606742 
L 605.109515 234.268263 
L 605.249895 234.268263 
L 605.390275 239.288269 
L 605.811414 239.288269 
L 605.951794 220.582768 
L 606.372934 220.582768 
L 606.513314 265.822591 
L 606.653694 272.276885 
L 606.794074 288.37278 
L 606.934453 288.37278 
L 607.074833 266.001877 
L 607.215213 262.655206 
L 607.636353 212.355535 
L 607.776733 212.355535 
L 607.917113 205.662192 
L 608.619012 205.662192 
L 608.759392 209.905293 
L 609.320911 209.905293 
L 609.461291 164.545946 
L 609.882431 182.833114 
L 610.72471 182.833114 
L 610.86509 162.215229 
L 611.00547 162.215229 
L 611.14585 165.5619 
L 611.28623 159.764987 
L 612.409269 159.764987 
L 612.549649 173.570006 
L 612.690029 150.50188 
L 613.251548 150.50188 
L 613.391928 161.737133 
L 613.953448 161.737133 
L 614.093827 140.143136 
L 615.216866 140.143136 
L 615.357246 136.796464 
L 615.497626 136.796464 
L 615.638006 109.525078 
L 618.024464 109.525078 
L 618.164844 112.87175 
L 618.866743 112.87175 
L 619.007123 109.525078 
L 619.568643 109.525078 
L 619.709023 110.242222 
L 623.780039 110.242222 
L 623.920419 113.588893 
L 624.341559 113.588893 
L 624.481939 116.756279 
L 625.183838 116.756279 
L 625.324218 116.039135 
L 626.868397 116.039135 
L 627.008776 138.350276 
L 628.131815 138.350276 
L 628.272195 143.629251 
L 629.535614 143.629251 
L 629.675994 152.633391 
L 629.816374 149.286719 
L 632.483592 149.286719 
L 632.623972 141.657106 
L 632.764352 141.657106 
L 632.904731 115.341912 
L 635.291189 115.341912 
L 635.431569 112.672543 
L 644.837021 112.672543 
L 644.977401 116.676596 
L 648.908038 116.676596 
L 649.048418 122.692636 
L 649.188798 111.278097 
L 654.102093 111.278097 
L 654.382853 94.903313 
L 659.436529 94.903313 
L 659.576909 98.249984 
L 660.980708 98.249984 
L 661.121088 94.903313 
L 661.963367 94.903313 
L 662.103747 88.887273 
L 669.263121 88.887273 
L 669.403501 92.233944 
L 671.930338 92.233944 
L 672.070718 88.887273 
L 871.690909 88.887273 
L 871.690909 88.887273 
" style="fill:none;stroke:#8dd3c7;stroke-linecap:square;stroke-width:1.5;"/>
   </g>
   <g id="line2d_17">
    <path clip-path="url(#pbe1c17b589)" d="M 161.509091 307.257568 
L 161.789851 268.910294 
L 178.775816 268.910294 
L 178.916196 264.826558 
L 183.689112 264.826558 
L 183.829492 259.906154 
L 213.449647 259.906154 
L 213.590027 258.631232 
L 215.134205 258.631232 
L 215.414965 237.654775 
L 215.555345 231.638735 
L 215.695725 231.638735 
L 215.836105 228.551033 
L 231.418272 228.551033 
L 231.558652 216.837684 
L 444.514931 216.837684 
L 444.655311 199.466867 
L 446.05911 199.466867 
L 446.19949 196.359243 
L 446.480249 196.359243 
L 446.620629 189.586218 
L 446.761009 163.031976 
L 566.785807 163.031976 
L 566.926187 162.573801 
L 610.72471 162.573801 
L 610.86509 162.215229 
L 611.14585 162.215229 
L 611.28623 159.764987 
L 612.549649 159.764987 
L 612.690029 150.50188 
L 613.953448 150.50188 
L 614.093827 140.143136 
L 615.216866 140.143136 
L 615.357246 136.796464 
L 615.497626 136.796464 
L 615.638006 109.525078 
L 654.102093 109.525078 
L 654.382853 94.903313 
L 661.963367 94.903313 
L 662.103747 88.887273 
L 871.690909 88.887273 
L 871.690909 88.887273 
" style="fill:none;stroke:#feffb3;stroke-linecap:square;stroke-width:1.5;"/>
   </g>
   <g id="line2d_18">
    <path clip-path="url(#pbe1c17b589)" d="M 161.509091 360.350116 
L 162.77251 360.350116 
L 162.91289 365.217169 
L 164.176309 365.217169 
L 164.316689 369.893008 
L 165.580107 369.893008 
L 165.720487 374.385144 
L 166.983906 374.385144 
L 167.124286 378.700795 
L 168.387705 378.700795 
L 168.528085 382.846894 
L 169.791504 382.846894 
L 169.931884 386.830103 
L 171.195303 386.830103 
L 171.335683 390.656821 
L 172.599102 390.656821 
L 172.739481 394.333196 
L 174.0029 394.333196 
L 174.14328 397.865135 
L 175.406699 397.865135 
L 175.547079 401.258313 
L 176.810498 401.258313 
L 176.950878 404.518181 
L 178.214297 404.518181 
L 178.354677 407.649976 
L 179.618096 407.649976 
L 179.758475 410.658731 
L 181.021894 410.658731 
L 181.162274 413.549278 
L 182.425693 413.549278 
L 182.566073 416.326263 
L 183.829492 416.326263 
L 183.969872 418.994147 
L 185.233291 418.994147 
L 185.373671 421.557216 
L 186.63709 421.557216 
L 186.777469 424.019588 
L 188.040888 424.019588 
L 188.181268 426.385219 
L 189.444687 426.385219 
L 189.585067 428.657911 
L 190.848486 428.657911 
L 190.988866 430.841313 
L 192.252285 430.841313 
L 192.392665 432.938935 
L 193.656084 432.938935 
L 193.796464 434.954147 
L 195.059882 434.954147 
L 195.200262 436.890185 
L 196.463681 436.890185 
L 196.604061 438.750161 
L 197.86748 438.750161 
L 198.00786 440.537063 
L 199.271279 440.537063 
L 199.411659 442.253762 
L 200.675078 442.253762 
L 200.815458 443.903016 
L 202.078877 443.903016 
L 202.219256 445.487475 
L 203.482675 445.487475 
L 203.623055 447.009684 
L 204.886474 447.009684 
L 205.026854 448.472089 
L 206.290273 448.472089 
L 206.430653 449.877039 
L 207.694072 449.877039 
L 207.834452 451.226793 
L 209.097871 451.226793 
L 209.23825 452.523518 
L 210.501669 452.523518 
L 210.642049 453.769297 
L 211.905468 453.769297 
L 212.045848 454.966133 
L 213.309267 454.966133 
L 213.449647 456.115948 
L 214.713066 456.115948 
L 214.853446 457.22059 
L 216.116865 457.22059 
L 216.257245 458.281832 
L 217.520663 458.281832 
L 217.661043 459.301381 
L 218.924462 459.301381 
L 219.064842 460.280875 
L 220.328261 460.280875 
L 220.468641 461.221886 
L 221.73206 461.221886 
L 221.87244 462.125928 
L 223.135859 462.125928 
L 223.276239 462.994451 
L 224.539657 462.994451 
L 224.680037 463.828853 
L 225.943456 463.828853 
L 226.083836 464.630473 
L 227.347255 464.630473 
L 227.487635 465.400599 
L 228.751054 465.400599 
L 228.891434 466.140468 
L 230.154853 466.140468 
L 230.295233 466.85127 
L 231.558652 466.85127 
L 231.699031 467.534146 
L 232.96245 467.534146 
L 233.10283 468.190194 
L 234.366249 468.190194 
L 234.506629 468.820467 
L 235.770048 468.820467 
L 235.910428 469.425978 
L 237.173847 469.425978 
L 237.314227 470.0077 
L 238.577646 470.0077 
L 238.718025 470.566568 
L 239.981444 470.566568 
L 240.121824 471.103479 
L 241.385243 471.103479 
L 241.525623 471.619296 
L 242.789042 471.619296 
L 242.929422 472.114848 
L 244.192841 472.114848 
L 244.333221 472.59093 
L 245.59664 472.59093 
L 245.73702 473.048309 
L 247.000438 473.048309 
L 247.140818 473.487718 
L 248.404237 473.487718 
L 248.544617 473.909864 
L 249.808036 473.909864 
L 249.948416 474.315425 
L 251.211835 474.315425 
L 251.352215 474.705052 
L 252.615634 474.705052 
L 252.756014 475.079372 
L 254.019433 475.079372 
L 254.159812 475.438985 
L 255.423231 475.438985 
L 255.563611 475.784471 
L 256.82703 475.784471 
L 256.96741 476.116383 
L 258.230829 476.116383 
L 258.371209 476.435255 
L 259.634628 476.435255 
L 259.775008 476.741599 
L 261.038427 476.741599 
L 261.178806 477.035907 
L 262.442225 477.035907 
L 262.582605 477.318653 
L 263.846024 477.318653 
L 263.986404 477.590291 
L 265.249823 477.590291 
L 265.390203 477.851256 
L 266.653622 477.851256 
L 266.794002 478.101969 
L 268.057421 478.101969 
L 268.1978 478.342832 
L 269.461219 478.342832 
L 269.601599 478.574232 
L 270.865018 478.574232 
L 271.005398 478.796541 
L 272.268817 478.796541 
L 272.409197 479.010116 
L 273.672616 479.010116 
L 273.812996 479.2153 
L 275.076415 479.2153 
L 275.216795 479.412423 
L 276.480213 479.412423 
L 276.620593 479.601801 
L 277.884012 479.601801 
L 278.024392 479.783739 
L 279.287811 479.783739 
L 279.568571 479.958529 
L 280.69161 479.958529 
L 280.97237 480.126452 
L 282.095409 480.126452 
L 282.376168 480.287778 
L 283.499208 480.287778 
L 283.779967 480.442766 
L 284.903006 480.442766 
L 285.183766 480.591665 
L 286.306805 480.591665 
L 286.587565 480.734713 
L 287.710604 480.734713 
L 287.991364 480.872142 
L 289.114403 480.872142 
L 289.395163 481.004171 
L 290.518202 481.004171 
L 290.798961 481.131014 
L 291.922 481.131014 
L 292.20276 481.252873 
L 293.325799 481.252873 
L 293.606559 481.369944 
L 294.729598 481.369944 
L 295.010358 481.482416 
L 297.537196 481.590469 
L 297.817955 481.694277 
L 300.344793 481.794007 
L 300.625553 481.889818 
L 303.152391 481.981866 
L 303.433151 482.070297 
L 305.959988 482.155254 
L 306.240748 482.236873 
L 308.767586 482.315285 
L 309.048346 482.390617 
L 311.575184 482.462989 
L 311.855944 482.532518 
L 314.382781 482.599315 
L 314.663541 482.663488 
L 317.190379 482.725139 
L 317.611519 482.784369 
L 319.997977 482.841272 
L 320.419116 482.895939 
L 324.209373 482.998914 
L 324.630513 483.047387 
L 328.420769 483.138696 
L 328.841909 483.181678 
L 332.632166 483.262642 
L 333.193685 483.300754 
L 338.247361 483.40634 
L 338.808881 483.438807 
L 343.862556 483.528753 
L 344.564456 483.55641 
L 350.88155 483.656593 
L 351.58345 483.679228 
L 359.304343 483.779742 
L 360.287002 483.797539 
L 370.534734 483.904003 
L 371.798153 483.916918 
L 385.976521 484.021204 
L 388.082219 484.037498 
L 418.263893 484.148587 
L 423.457949 484.16105 
L 871.690909 484.232727 
L 871.690909 484.232727 
" style="fill:none;stroke:#bfbbd9;stroke-linecap:square;stroke-width:1.5;"/>
   </g>
   <g id="patch_3">
    <path d="M 126 504 
L 126 69.12 
" style="fill:none;stroke:#ffffff;stroke-linecap:square;stroke-linejoin:miter;stroke-width:0.8;"/>
   </g>
   <g id="patch_4">
    <path d="M 907.2 504 
L 907.2 69.12 
" style="fill:none;stroke:#ffffff;stroke-linecap:square;stroke-linejoin:miter;stroke-width:0.8;"/>
   </g>
   <g id="patch_5">
    <path d="M 126 504 
L 907.2 504 
" style="fill:none;stroke:#ffffff;stroke-linecap:square;stroke-linejoin:miter;stroke-width:0.8;"/>
   </g>
   <g id="patch_6">
    <path d="M 126 69.12 
L 907.2 69.12 
" style="fill:none;stroke:#ffffff;stroke-linecap:square;stroke-linejoin:miter;stroke-width:0.8;"/>
   </g>
   <g id="text_17">
    <!-- instance 5 with error 0.07632877222377366 -->
    <g style="fill:#ffffff;" transform="translate(381.864375 63.12)scale(0.12 -0.12)">
     <defs>
      <path d="M 2834 3397 
L 2834 2853 
Q 2591 2978 2328 3040 
Q 2066 3103 1784 3103 
Q 1356 3103 1142 2972 
Q 928 2841 928 2578 
Q 928 2378 1081 2264 
Q 1234 2150 1697 2047 
L 1894 2003 
Q 2506 1872 2764 1633 
Q 3022 1394 3022 966 
Q 3022 478 2636 193 
Q 2250 -91 1575 -91 
Q 1294 -91 989 -36 
Q 684 19 347 128 
L 347 722 
Q 666 556 975 473 
Q 1284 391 1588 391 
Q 1994 391 2212 530 
Q 2431 669 2431 922 
Q 2431 1156 2273 1281 
Q 2116 1406 1581 1522 
L 1381 1569 
Q 847 1681 609 1914 
Q 372 2147 372 2553 
Q 372 3047 722 3315 
Q 1072 3584 1716 3584 
Q 2034 3584 2315 3537 
Q 2597 3491 2834 3397 
z
" id="DejaVuSans-73" transform="scale(0.015625)"/>
      <path d="M 3122 3366 
L 3122 2828 
Q 2878 2963 2633 3030 
Q 2388 3097 2138 3097 
Q 1578 3097 1268 2742 
Q 959 2388 959 1747 
Q 959 1106 1268 751 
Q 1578 397 2138 397 
Q 2388 397 2633 464 
Q 2878 531 3122 666 
L 3122 134 
Q 2881 22 2623 -34 
Q 2366 -91 2075 -91 
Q 1284 -91 818 406 
Q 353 903 353 1747 
Q 353 2603 823 3093 
Q 1294 3584 2113 3584 
Q 2378 3584 2631 3529 
Q 2884 3475 3122 3366 
z
" id="DejaVuSans-63" transform="scale(0.015625)"/>
      <path id="DejaVuSans-20" transform="scale(0.015625)"/>
      <path d="M 269 3500 
L 844 3500 
L 1563 769 
L 2278 3500 
L 2956 3500 
L 3675 769 
L 4391 3500 
L 4966 3500 
L 4050 0 
L 3372 0 
L 2619 2869 
L 1863 0 
L 1184 0 
L 269 3500 
z
" id="DejaVuSans-77" transform="scale(0.015625)"/>
      <path d="M 3513 2113 
L 3513 0 
L 2938 0 
L 2938 2094 
Q 2938 2591 2744 2837 
Q 2550 3084 2163 3084 
Q 1697 3084 1428 2787 
Q 1159 2491 1159 1978 
L 1159 0 
L 581 0 
L 581 4863 
L 1159 4863 
L 1159 2956 
Q 1366 3272 1645 3428 
Q 1925 3584 2291 3584 
Q 2894 3584 3203 3211 
Q 3513 2838 3513 2113 
z
" id="DejaVuSans-68" transform="scale(0.015625)"/>
      <path d="M 684 794 
L 1344 794 
L 1344 0 
L 684 0 
L 684 794 
z
" id="DejaVuSans-2e" transform="scale(0.015625)"/>
      <path d="M 2113 2584 
Q 1688 2584 1439 2293 
Q 1191 2003 1191 1497 
Q 1191 994 1439 701 
Q 1688 409 2113 409 
Q 2538 409 2786 701 
Q 3034 994 3034 1497 
Q 3034 2003 2786 2293 
Q 2538 2584 2113 2584 
z
M 3366 4563 
L 3366 3988 
Q 3128 4100 2886 4159 
Q 2644 4219 2406 4219 
Q 1781 4219 1451 3797 
Q 1122 3375 1075 2522 
Q 1259 2794 1537 2939 
Q 1816 3084 2150 3084 
Q 2853 3084 3261 2657 
Q 3669 2231 3669 1497 
Q 3669 778 3244 343 
Q 2819 -91 2113 -91 
Q 1303 -91 875 529 
Q 447 1150 447 2328 
Q 447 3434 972 4092 
Q 1497 4750 2381 4750 
Q 2619 4750 2861 4703 
Q 3103 4656 3366 4563 
z
" id="DejaVuSans-36" transform="scale(0.015625)"/>
      <path d="M 2034 2216 
Q 1584 2216 1326 1975 
Q 1069 1734 1069 1313 
Q 1069 891 1326 650 
Q 1584 409 2034 409 
Q 2484 409 2743 651 
Q 3003 894 3003 1313 
Q 3003 1734 2745 1975 
Q 2488 2216 2034 2216 
z
M 1403 2484 
Q 997 2584 770 2862 
Q 544 3141 544 3541 
Q 544 4100 942 4425 
Q 1341 4750 2034 4750 
Q 2731 4750 3128 4425 
Q 3525 4100 3525 3541 
Q 3525 3141 3298 2862 
Q 3072 2584 2669 2484 
Q 3125 2378 3379 2068 
Q 3634 1759 3634 1313 
Q 3634 634 3220 271 
Q 2806 -91 2034 -91 
Q 1263 -91 848 271 
Q 434 634 434 1313 
Q 434 1759 690 2068 
Q 947 2378 1403 2484 
z
M 1172 3481 
Q 1172 3119 1398 2916 
Q 1625 2713 2034 2713 
Q 2441 2713 2670 2916 
Q 2900 3119 2900 3481 
Q 2900 3844 2670 4047 
Q 2441 4250 2034 4250 
Q 1625 4250 1398 4047 
Q 1172 3844 1172 3481 
z
" id="DejaVuSans-38" transform="scale(0.015625)"/>
     </defs>
     <use xlink:href="#DejaVuSans-69"/>
     <use x="27.783203" xlink:href="#DejaVuSans-6e"/>
     <use x="91.162109" xlink:href="#DejaVuSans-73"/>
     <use x="143.261719" xlink:href="#DejaVuSans-74"/>
     <use x="182.470703" xlink:href="#DejaVuSans-61"/>
     <use x="243.75" xlink:href="#DejaVuSans-6e"/>
     <use x="307.128906" xlink:href="#DejaVuSans-63"/>
     <use x="362.109375" xlink:href="#DejaVuSans-65"/>
     <use x="423.632812" xlink:href="#DejaVuSans-20"/>
     <use x="455.419922" xlink:href="#DejaVuSans-35"/>
     <use x="519.042969" xlink:href="#DejaVuSans-20"/>
     <use x="550.830078" xlink:href="#DejaVuSans-77"/>
     <use x="632.617188" xlink:href="#DejaVuSans-69"/>
     <use x="660.400391" xlink:href="#DejaVuSans-74"/>
     <use x="699.609375" xlink:href="#DejaVuSans-68"/>
     <use x="762.988281" xlink:href="#DejaVuSans-20"/>
     <use x="794.775391" xlink:href="#DejaVuSans-65"/>
     <use x="856.298828" xlink:href="#DejaVuSans-72"/>
     <use x="895.662109" xlink:href="#DejaVuSans-72"/>
     <use x="934.525391" xlink:href="#DejaVuSans-6f"/>
     <use x="995.707031" xlink:href="#DejaVuSans-72"/>
     <use x="1036.820312" xlink:href="#DejaVuSans-20"/>
     <use x="1068.607422" xlink:href="#DejaVuSans-30"/>
     <use x="1132.230469" xlink:href="#DejaVuSans-2e"/>
     <use x="1164.017578" xlink:href="#DejaVuSans-30"/>
     <use x="1227.640625" xlink:href="#DejaVuSans-37"/>
     <use x="1291.263672" xlink:href="#DejaVuSans-36"/>
     <use x="1354.886719" xlink:href="#DejaVuSans-33"/>
     <use x="1418.509766" xlink:href="#DejaVuSans-32"/>
     <use x="1482.132812" xlink:href="#DejaVuSans-38"/>
     <use x="1545.755859" xlink:href="#DejaVuSans-37"/>
     <use x="1609.378906" xlink:href="#DejaVuSans-37"/>
     <use x="1673.001953" xlink:href="#DejaVuSans-32"/>
     <use x="1736.625" xlink:href="#DejaVuSans-32"/>
     <use x="1800.248047" xlink:href="#DejaVuSans-32"/>
     <use x="1863.871094" xlink:href="#DejaVuSans-33"/>
     <use x="1927.494141" xlink:href="#DejaVuSans-37"/>
     <use x="1991.117188" xlink:href="#DejaVuSans-37"/>
     <use x="2054.740234" xlink:href="#DejaVuSans-33"/>
     <use x="2118.363281" xlink:href="#DejaVuSans-36"/>
     <use x="2181.986328" xlink:href="#DejaVuSans-36"/>
    </g>
   </g>
   <g id="legend_1">
    <g id="patch_7">
     <path d="M 805.348438 499 
L 900.2 499 
Q 902.2 499 902.2 497 
L 902.2 453.965625 
Q 902.2 451.965625 900.2 451.965625 
L 805.348438 451.965625 
Q 803.348438 451.965625 803.348438 453.965625 
L 803.348438 497 
Q 803.348438 499 805.348438 499 
z
" style="opacity:0.8;stroke:#cccccc;stroke-linejoin:miter;"/>
    </g>
    <g id="line2d_19">
     <path d="M 807.348438 460.064062 
L 827.348438 460.064062 
" style="fill:none;stroke:#8dd3c7;stroke-linecap:square;stroke-width:1.5;"/>
    </g>
    <g id="line2d_20"/>
    <g id="text_18">
     <!-- cost -->
     <g style="fill:#ffffff;" transform="translate(835.348438 463.564062)scale(0.1 -0.1)">
      <use xlink:href="#DejaVuSans-63"/>
      <use x="54.980469" xlink:href="#DejaVuSans-6f"/>
      <use x="116.162109" xlink:href="#DejaVuSans-73"/>
      <use x="168.261719" xlink:href="#DejaVuSans-74"/>
     </g>
    </g>
    <g id="line2d_21">
     <path d="M 807.348438 474.742188 
L 827.348438 474.742188 
" style="fill:none;stroke:#feffb3;stroke-linecap:square;stroke-width:1.5;"/>
    </g>
    <g id="line2d_22"/>
    <g id="text_19">
     <!-- best cost -->
     <g style="fill:#ffffff;" transform="translate(835.348438 478.242188)scale(0.1 -0.1)">
      <defs>
       <path d="M 3116 1747 
Q 3116 2381 2855 2742 
Q 2594 3103 2138 3103 
Q 1681 3103 1420 2742 
Q 1159 2381 1159 1747 
Q 1159 1113 1420 752 
Q 1681 391 2138 391 
Q 2594 391 2855 752 
Q 3116 1113 3116 1747 
z
M 1159 2969 
Q 1341 3281 1617 3432 
Q 1894 3584 2278 3584 
Q 2916 3584 3314 3078 
Q 3713 2572 3713 1747 
Q 3713 922 3314 415 
Q 2916 -91 2278 -91 
Q 1894 -91 1617 61 
Q 1341 213 1159 525 
L 1159 0 
L 581 0 
L 581 4863 
L 1159 4863 
L 1159 2969 
z
" id="DejaVuSans-62" transform="scale(0.015625)"/>
      </defs>
      <use xlink:href="#DejaVuSans-62"/>
      <use x="63.476562" xlink:href="#DejaVuSans-65"/>
      <use x="125" xlink:href="#DejaVuSans-73"/>
      <use x="177.099609" xlink:href="#DejaVuSans-74"/>
      <use x="216.308594" xlink:href="#DejaVuSans-20"/>
      <use x="248.095703" xlink:href="#DejaVuSans-63"/>
      <use x="303.076172" xlink:href="#DejaVuSans-6f"/>
      <use x="364.257812" xlink:href="#DejaVuSans-73"/>
      <use x="416.357422" xlink:href="#DejaVuSans-74"/>
     </g>
    </g>
    <g id="line2d_23">
     <path d="M 807.348438 489.420313 
L 827.348438 489.420313 
" style="fill:none;stroke:#bfbbd9;stroke-linecap:square;stroke-width:1.5;"/>
    </g>
    <g id="line2d_24"/>
    <g id="text_20">
     <!-- temperature -->
     <g style="fill:#ffffff;" transform="translate(835.348438 492.920313)scale(0.1 -0.1)">
      <defs>
       <path d="M 3328 2828 
Q 3544 3216 3844 3400 
Q 4144 3584 4550 3584 
Q 5097 3584 5394 3201 
Q 5691 2819 5691 2113 
L 5691 0 
L 5113 0 
L 5113 2094 
Q 5113 2597 4934 2840 
Q 4756 3084 4391 3084 
Q 3944 3084 3684 2787 
Q 3425 2491 3425 1978 
L 3425 0 
L 2847 0 
L 2847 2094 
Q 2847 2600 2669 2842 
Q 2491 3084 2119 3084 
Q 1678 3084 1418 2786 
Q 1159 2488 1159 1978 
L 1159 0 
L 581 0 
L 581 3500 
L 1159 3500 
L 1159 2956 
Q 1356 3278 1631 3431 
Q 1906 3584 2284 3584 
Q 2666 3584 2933 3390 
Q 3200 3197 3328 2828 
z
" id="DejaVuSans-6d" transform="scale(0.015625)"/>
       <path d="M 1159 525 
L 1159 -1331 
L 581 -1331 
L 581 3500 
L 1159 3500 
L 1159 2969 
Q 1341 3281 1617 3432 
Q 1894 3584 2278 3584 
Q 2916 3584 3314 3078 
Q 3713 2572 3713 1747 
Q 3713 922 3314 415 
Q 2916 -91 2278 -91 
Q 1894 -91 1617 61 
Q 1341 213 1159 525 
z
M 3116 1747 
Q 3116 2381 2855 2742 
Q 2594 3103 2138 3103 
Q 1681 3103 1420 2742 
Q 1159 2381 1159 1747 
Q 1159 1113 1420 752 
Q 1681 391 2138 391 
Q 2594 391 2855 752 
Q 3116 1113 3116 1747 
z
" id="DejaVuSans-70" transform="scale(0.015625)"/>
       <path d="M 544 1381 
L 544 3500 
L 1119 3500 
L 1119 1403 
Q 1119 906 1312 657 
Q 1506 409 1894 409 
Q 2359 409 2629 706 
Q 2900 1003 2900 1516 
L 2900 3500 
L 3475 3500 
L 3475 0 
L 2900 0 
L 2900 538 
Q 2691 219 2414 64 
Q 2138 -91 1772 -91 
Q 1169 -91 856 284 
Q 544 659 544 1381 
z
M 1991 3584 
L 1991 3584 
z
" id="DejaVuSans-75" transform="scale(0.015625)"/>
      </defs>
      <use xlink:href="#DejaVuSans-74"/>
      <use x="39.208984" xlink:href="#DejaVuSans-65"/>
      <use x="100.732422" xlink:href="#DejaVuSans-6d"/>
      <use x="198.144531" xlink:href="#DejaVuSans-70"/>
      <use x="261.621094" xlink:href="#DejaVuSans-65"/>
      <use x="323.144531" xlink:href="#DejaVuSans-72"/>
      <use x="364.257812" xlink:href="#DejaVuSans-61"/>
      <use x="425.537109" xlink:href="#DejaVuSans-74"/>
      <use x="464.746094" xlink:href="#DejaVuSans-75"/>
      <use x="528.125" xlink:href="#DejaVuSans-72"/>
      <use x="566.988281" xlink:href="#DejaVuSans-65"/>
     </g>
    </g>
   </g>
  </g>
 </g>
 <defs>
  <clipPath id="pbe1c17b589">
   <rect height="434.88" width="781.2" x="126" y="69.12"/>
  </clipPath>
 </defs>
</svg>
