<?xml version="1.0" encoding="utf-8" standalone="no"?>
<!DOCTYPE svg PUBLIC "-//W3C//DTD SVG 1.1//EN"
  "http://www.w3.org/Graphics/SVG/1.1/DTD/svg11.dtd">
<svg height="576pt" version="1.1" viewBox="0 0 1008 576" width="1008pt" xmlns="http://www.w3.org/2000/svg" xmlns:xlink="http://www.w3.org/1999/xlink">
 <metadata>
  <rdf:RDF xmlns:cc="http://creativecommons.org/ns#" xmlns:dc="http://purl.org/dc/elements/1.1/" xmlns:rdf="http://www.w3.org/1999/02/22-rdf-syntax-ns#">
   <cc:Work>
    <dc:type rdf:resource="http://purl.org/dc/dcmitype/StillImage"/>
    <dc:date>2022-01-07T21:26:30.176962</dc:date>
    <dc:format>image/svg+xml</dc:format>
    <dc:creator>
     <cc:Agent>
      <dc:title>Matplotlib v3.4.3, https://matplotlib.org/</dc:title>
     </cc:Agent>
    </dc:creator>
   </cc:Work>
  </rdf:RDF>
 </metadata>
 <defs>
  <style type="text/css">*{stroke-linecap:butt;stroke-linejoin:round;}</style>
 </defs>
 <g id="figure_1">
  <g id="patch_1">
   <path d="M 0 576 
L 1008 576 
L 1008 0 
L 0 0 
z
"/>
  </g>
  <g id="axes_1">
   <g id="patch_2">
    <path d="M 126 504 
L 907.2 504 
L 907.2 69.12 
L 126 69.12 
z
"/>
   </g>
   <g id="matplotlib.axis_1">
    <g id="xtick_1">
     <g id="line2d_1">
      <defs>
       <path d="M 0 0 
L 0 3.5 
" id="ma34381306c" style="stroke:#ffffff;stroke-width:0.8;"/>
      </defs>
      <g>
       <use style="fill:#ffffff;stroke:#ffffff;stroke-width:0.8;" x="161.509091" xlink:href="#ma34381306c" y="504"/>
      </g>
     </g>
     <g id="text_1">
      <!-- 0 -->
      <g style="fill:#ffffff;" transform="translate(158.327841 518.598438)scale(0.1 -0.1)">
       <defs>
        <path d="M 2034 4250 
Q 1547 4250 1301 3770 
Q 1056 3291 1056 2328 
Q 1056 1369 1301 889 
Q 1547 409 2034 409 
Q 2525 409 2770 889 
Q 3016 1369 3016 2328 
Q 3016 3291 2770 3770 
Q 2525 4250 2034 4250 
z
M 2034 4750 
Q 2819 4750 3233 4129 
Q 3647 3509 3647 2328 
Q 3647 1150 3233 529 
Q 2819 -91 2034 -91 
Q 1250 -91 836 529 
Q 422 1150 422 2328 
Q 422 3509 836 4129 
Q 1250 4750 2034 4750 
z
" id="DejaVuSans-30" transform="scale(0.015625)"/>
       </defs>
       <use xlink:href="#DejaVuSans-30"/>
      </g>
     </g>
    </g>
    <g id="xtick_2">
     <g id="line2d_2">
      <g>
       <use style="fill:#ffffff;stroke:#ffffff;stroke-width:0.8;" x="274.487427" xlink:href="#ma34381306c" y="504"/>
      </g>
     </g>
     <g id="text_2">
      <!-- 500 -->
      <g style="fill:#ffffff;" transform="translate(264.943677 518.598438)scale(0.1 -0.1)">
       <defs>
        <path d="M 691 4666 
L 3169 4666 
L 3169 4134 
L 1269 4134 
L 1269 2991 
Q 1406 3038 1543 3061 
Q 1681 3084 1819 3084 
Q 2600 3084 3056 2656 
Q 3513 2228 3513 1497 
Q 3513 744 3044 326 
Q 2575 -91 1722 -91 
Q 1428 -91 1123 -41 
Q 819 9 494 109 
L 494 744 
Q 775 591 1075 516 
Q 1375 441 1709 441 
Q 2250 441 2565 725 
Q 2881 1009 2881 1497 
Q 2881 1984 2565 2268 
Q 2250 2553 1709 2553 
Q 1456 2553 1204 2497 
Q 953 2441 691 2322 
L 691 4666 
z
" id="DejaVuSans-35" transform="scale(0.015625)"/>
       </defs>
       <use xlink:href="#DejaVuSans-35"/>
       <use x="63.623047" xlink:href="#DejaVuSans-30"/>
       <use x="127.246094" xlink:href="#DejaVuSans-30"/>
      </g>
     </g>
    </g>
    <g id="xtick_3">
     <g id="line2d_3">
      <g>
       <use style="fill:#ffffff;stroke:#ffffff;stroke-width:0.8;" x="387.465762" xlink:href="#ma34381306c" y="504"/>
      </g>
     </g>
     <g id="text_3">
      <!-- 1000 -->
      <g style="fill:#ffffff;" transform="translate(374.740762 518.598438)scale(0.1 -0.1)">
       <defs>
        <path d="M 794 531 
L 1825 531 
L 1825 4091 
L 703 3866 
L 703 4441 
L 1819 4666 
L 2450 4666 
L 2450 531 
L 3481 531 
L 3481 0 
L 794 0 
L 794 531 
z
" id="DejaVuSans-31" transform="scale(0.015625)"/>
       </defs>
       <use xlink:href="#DejaVuSans-31"/>
       <use x="63.623047" xlink:href="#DejaVuSans-30"/>
       <use x="127.246094" xlink:href="#DejaVuSans-30"/>
       <use x="190.869141" xlink:href="#DejaVuSans-30"/>
      </g>
     </g>
    </g>
    <g id="xtick_4">
     <g id="line2d_4">
      <g>
       <use style="fill:#ffffff;stroke:#ffffff;stroke-width:0.8;" x="500.444098" xlink:href="#ma34381306c" y="504"/>
      </g>
     </g>
     <g id="text_4">
      <!-- 1500 -->
      <g style="fill:#ffffff;" transform="translate(487.719098 518.598438)scale(0.1 -0.1)">
       <use xlink:href="#DejaVuSans-31"/>
       <use x="63.623047" xlink:href="#DejaVuSans-35"/>
       <use x="127.246094" xlink:href="#DejaVuSans-30"/>
       <use x="190.869141" xlink:href="#DejaVuSans-30"/>
      </g>
     </g>
    </g>
    <g id="xtick_5">
     <g id="line2d_5">
      <g>
       <use style="fill:#ffffff;stroke:#ffffff;stroke-width:0.8;" x="613.422434" xlink:href="#ma34381306c" y="504"/>
      </g>
     </g>
     <g id="text_5">
      <!-- 2000 -->
      <g style="fill:#ffffff;" transform="translate(600.697434 518.598438)scale(0.1 -0.1)">
       <defs>
        <path d="M 1228 531 
L 3431 531 
L 3431 0 
L 469 0 
L 469 531 
Q 828 903 1448 1529 
Q 2069 2156 2228 2338 
Q 2531 2678 2651 2914 
Q 2772 3150 2772 3378 
Q 2772 3750 2511 3984 
Q 2250 4219 1831 4219 
Q 1534 4219 1204 4116 
Q 875 4013 500 3803 
L 500 4441 
Q 881 4594 1212 4672 
Q 1544 4750 1819 4750 
Q 2544 4750 2975 4387 
Q 3406 4025 3406 3419 
Q 3406 3131 3298 2873 
Q 3191 2616 2906 2266 
Q 2828 2175 2409 1742 
Q 1991 1309 1228 531 
z
" id="DejaVuSans-32" transform="scale(0.015625)"/>
       </defs>
       <use xlink:href="#DejaVuSans-32"/>
       <use x="63.623047" xlink:href="#DejaVuSans-30"/>
       <use x="127.246094" xlink:href="#DejaVuSans-30"/>
       <use x="190.869141" xlink:href="#DejaVuSans-30"/>
      </g>
     </g>
    </g>
    <g id="xtick_6">
     <g id="line2d_6">
      <g>
       <use style="fill:#ffffff;stroke:#ffffff;stroke-width:0.8;" x="726.400769" xlink:href="#ma34381306c" y="504"/>
      </g>
     </g>
     <g id="text_6">
      <!-- 2500 -->
      <g style="fill:#ffffff;" transform="translate(713.675769 518.598438)scale(0.1 -0.1)">
       <use xlink:href="#DejaVuSans-32"/>
       <use x="63.623047" xlink:href="#DejaVuSans-35"/>
       <use x="127.246094" xlink:href="#DejaVuSans-30"/>
       <use x="190.869141" xlink:href="#DejaVuSans-30"/>
      </g>
     </g>
    </g>
    <g id="xtick_7">
     <g id="line2d_7">
      <g>
       <use style="fill:#ffffff;stroke:#ffffff;stroke-width:0.8;" x="839.379105" xlink:href="#ma34381306c" y="504"/>
      </g>
     </g>
     <g id="text_7">
      <!-- 3000 -->
      <g style="fill:#ffffff;" transform="translate(826.654105 518.598438)scale(0.1 -0.1)">
       <defs>
        <path d="M 2597 2516 
Q 3050 2419 3304 2112 
Q 3559 1806 3559 1356 
Q 3559 666 3084 287 
Q 2609 -91 1734 -91 
Q 1441 -91 1130 -33 
Q 819 25 488 141 
L 488 750 
Q 750 597 1062 519 
Q 1375 441 1716 441 
Q 2309 441 2620 675 
Q 2931 909 2931 1356 
Q 2931 1769 2642 2001 
Q 2353 2234 1838 2234 
L 1294 2234 
L 1294 2753 
L 1863 2753 
Q 2328 2753 2575 2939 
Q 2822 3125 2822 3475 
Q 2822 3834 2567 4026 
Q 2313 4219 1838 4219 
Q 1578 4219 1281 4162 
Q 984 4106 628 3988 
L 628 4550 
Q 988 4650 1302 4700 
Q 1616 4750 1894 4750 
Q 2613 4750 3031 4423 
Q 3450 4097 3450 3541 
Q 3450 3153 3228 2886 
Q 3006 2619 2597 2516 
z
" id="DejaVuSans-33" transform="scale(0.015625)"/>
       </defs>
       <use xlink:href="#DejaVuSans-33"/>
       <use x="63.623047" xlink:href="#DejaVuSans-30"/>
       <use x="127.246094" xlink:href="#DejaVuSans-30"/>
       <use x="190.869141" xlink:href="#DejaVuSans-30"/>
      </g>
     </g>
    </g>
    <g id="text_8">
     <!-- iteration -->
     <g style="fill:#ffffff;" transform="translate(495.477344 532.276562)scale(0.1 -0.1)">
      <defs>
       <path d="M 603 3500 
L 1178 3500 
L 1178 0 
L 603 0 
L 603 3500 
z
M 603 4863 
L 1178 4863 
L 1178 4134 
L 603 4134 
L 603 4863 
z
" id="DejaVuSans-69" transform="scale(0.015625)"/>
       <path d="M 1172 4494 
L 1172 3500 
L 2356 3500 
L 2356 3053 
L 1172 3053 
L 1172 1153 
Q 1172 725 1289 603 
Q 1406 481 1766 481 
L 2356 481 
L 2356 0 
L 1766 0 
Q 1100 0 847 248 
Q 594 497 594 1153 
L 594 3053 
L 172 3053 
L 172 3500 
L 594 3500 
L 594 4494 
L 1172 4494 
z
" id="DejaVuSans-74" transform="scale(0.015625)"/>
       <path d="M 3597 1894 
L 3597 1613 
L 953 1613 
Q 991 1019 1311 708 
Q 1631 397 2203 397 
Q 2534 397 2845 478 
Q 3156 559 3463 722 
L 3463 178 
Q 3153 47 2828 -22 
Q 2503 -91 2169 -91 
Q 1331 -91 842 396 
Q 353 884 353 1716 
Q 353 2575 817 3079 
Q 1281 3584 2069 3584 
Q 2775 3584 3186 3129 
Q 3597 2675 3597 1894 
z
M 3022 2063 
Q 3016 2534 2758 2815 
Q 2500 3097 2075 3097 
Q 1594 3097 1305 2825 
Q 1016 2553 972 2059 
L 3022 2063 
z
" id="DejaVuSans-65" transform="scale(0.015625)"/>
       <path d="M 2631 2963 
Q 2534 3019 2420 3045 
Q 2306 3072 2169 3072 
Q 1681 3072 1420 2755 
Q 1159 2438 1159 1844 
L 1159 0 
L 581 0 
L 581 3500 
L 1159 3500 
L 1159 2956 
Q 1341 3275 1631 3429 
Q 1922 3584 2338 3584 
Q 2397 3584 2469 3576 
Q 2541 3569 2628 3553 
L 2631 2963 
z
" id="DejaVuSans-72" transform="scale(0.015625)"/>
       <path d="M 2194 1759 
Q 1497 1759 1228 1600 
Q 959 1441 959 1056 
Q 959 750 1161 570 
Q 1363 391 1709 391 
Q 2188 391 2477 730 
Q 2766 1069 2766 1631 
L 2766 1759 
L 2194 1759 
z
M 3341 1997 
L 3341 0 
L 2766 0 
L 2766 531 
Q 2569 213 2275 61 
Q 1981 -91 1556 -91 
Q 1019 -91 701 211 
Q 384 513 384 1019 
Q 384 1609 779 1909 
Q 1175 2209 1959 2209 
L 2766 2209 
L 2766 2266 
Q 2766 2663 2505 2880 
Q 2244 3097 1772 3097 
Q 1472 3097 1187 3025 
Q 903 2953 641 2809 
L 641 3341 
Q 956 3463 1253 3523 
Q 1550 3584 1831 3584 
Q 2591 3584 2966 3190 
Q 3341 2797 3341 1997 
z
" id="DejaVuSans-61" transform="scale(0.015625)"/>
       <path d="M 1959 3097 
Q 1497 3097 1228 2736 
Q 959 2375 959 1747 
Q 959 1119 1226 758 
Q 1494 397 1959 397 
Q 2419 397 2687 759 
Q 2956 1122 2956 1747 
Q 2956 2369 2687 2733 
Q 2419 3097 1959 3097 
z
M 1959 3584 
Q 2709 3584 3137 3096 
Q 3566 2609 3566 1747 
Q 3566 888 3137 398 
Q 2709 -91 1959 -91 
Q 1206 -91 779 398 
Q 353 888 353 1747 
Q 353 2609 779 3096 
Q 1206 3584 1959 3584 
z
" id="DejaVuSans-6f" transform="scale(0.015625)"/>
       <path d="M 3513 2113 
L 3513 0 
L 2938 0 
L 2938 2094 
Q 2938 2591 2744 2837 
Q 2550 3084 2163 3084 
Q 1697 3084 1428 2787 
Q 1159 2491 1159 1978 
L 1159 0 
L 581 0 
L 581 3500 
L 1159 3500 
L 1159 2956 
Q 1366 3272 1645 3428 
Q 1925 3584 2291 3584 
Q 2894 3584 3203 3211 
Q 3513 2838 3513 2113 
z
" id="DejaVuSans-6e" transform="scale(0.015625)"/>
      </defs>
      <use xlink:href="#DejaVuSans-69"/>
      <use x="27.783203" xlink:href="#DejaVuSans-74"/>
      <use x="66.992188" xlink:href="#DejaVuSans-65"/>
      <use x="128.515625" xlink:href="#DejaVuSans-72"/>
      <use x="169.628906" xlink:href="#DejaVuSans-61"/>
      <use x="230.908203" xlink:href="#DejaVuSans-74"/>
      <use x="270.117188" xlink:href="#DejaVuSans-69"/>
      <use x="297.900391" xlink:href="#DejaVuSans-6f"/>
      <use x="359.082031" xlink:href="#DejaVuSans-6e"/>
     </g>
    </g>
   </g>
   <g id="matplotlib.axis_2">
    <g id="ytick_1">
     <g id="line2d_8">
      <defs>
       <path d="M 0 0 
L -3.5 0 
" id="m5de7f590c5" style="stroke:#ffffff;stroke-width:0.8;"/>
      </defs>
      <g>
       <use style="fill:#ffffff;stroke:#ffffff;stroke-width:0.8;" x="126" xlink:href="#m5de7f590c5" y="484.232727"/>
      </g>
     </g>
     <g id="text_9">
      <!-- 0 -->
      <g style="fill:#ffffff;" transform="translate(112.6375 488.031946)scale(0.1 -0.1)">
       <use xlink:href="#DejaVuSans-30"/>
      </g>
     </g>
    </g>
    <g id="ytick_2">
     <g id="line2d_9">
      <g>
       <use style="fill:#ffffff;stroke:#ffffff;stroke-width:0.8;" x="126" xlink:href="#m5de7f590c5" y="416.26308"/>
      </g>
     </g>
     <g id="text_10">
      <!-- 2000 -->
      <g style="fill:#ffffff;" transform="translate(93.55 420.062299)scale(0.1 -0.1)">
       <use xlink:href="#DejaVuSans-32"/>
       <use x="63.623047" xlink:href="#DejaVuSans-30"/>
       <use x="127.246094" xlink:href="#DejaVuSans-30"/>
       <use x="190.869141" xlink:href="#DejaVuSans-30"/>
      </g>
     </g>
    </g>
    <g id="ytick_3">
     <g id="line2d_10">
      <g>
       <use style="fill:#ffffff;stroke:#ffffff;stroke-width:0.8;" x="126" xlink:href="#m5de7f590c5" y="348.293432"/>
      </g>
     </g>
     <g id="text_11">
      <!-- 4000 -->
      <g style="fill:#ffffff;" transform="translate(93.55 352.092651)scale(0.1 -0.1)">
       <defs>
        <path d="M 2419 4116 
L 825 1625 
L 2419 1625 
L 2419 4116 
z
M 2253 4666 
L 3047 4666 
L 3047 1625 
L 3713 1625 
L 3713 1100 
L 3047 1100 
L 3047 0 
L 2419 0 
L 2419 1100 
L 313 1100 
L 313 1709 
L 2253 4666 
z
" id="DejaVuSans-34" transform="scale(0.015625)"/>
       </defs>
       <use xlink:href="#DejaVuSans-34"/>
       <use x="63.623047" xlink:href="#DejaVuSans-30"/>
       <use x="127.246094" xlink:href="#DejaVuSans-30"/>
       <use x="190.869141" xlink:href="#DejaVuSans-30"/>
      </g>
     </g>
    </g>
    <g id="ytick_4">
     <g id="line2d_11">
      <g>
       <use style="fill:#ffffff;stroke:#ffffff;stroke-width:0.8;" x="126" xlink:href="#m5de7f590c5" y="280.323785"/>
      </g>
     </g>
     <g id="text_12">
      <!-- 6000 -->
      <g style="fill:#ffffff;" transform="translate(93.55 284.123004)scale(0.1 -0.1)">
       <defs>
        <path d="M 2113 2584 
Q 1688 2584 1439 2293 
Q 1191 2003 1191 1497 
Q 1191 994 1439 701 
Q 1688 409 2113 409 
Q 2538 409 2786 701 
Q 3034 994 3034 1497 
Q 3034 2003 2786 2293 
Q 2538 2584 2113 2584 
z
M 3366 4563 
L 3366 3988 
Q 3128 4100 2886 4159 
Q 2644 4219 2406 4219 
Q 1781 4219 1451 3797 
Q 1122 3375 1075 2522 
Q 1259 2794 1537 2939 
Q 1816 3084 2150 3084 
Q 2853 3084 3261 2657 
Q 3669 2231 3669 1497 
Q 3669 778 3244 343 
Q 2819 -91 2113 -91 
Q 1303 -91 875 529 
Q 447 1150 447 2328 
Q 447 3434 972 4092 
Q 1497 4750 2381 4750 
Q 2619 4750 2861 4703 
Q 3103 4656 3366 4563 
z
" id="DejaVuSans-36" transform="scale(0.015625)"/>
       </defs>
       <use xlink:href="#DejaVuSans-36"/>
       <use x="63.623047" xlink:href="#DejaVuSans-30"/>
       <use x="127.246094" xlink:href="#DejaVuSans-30"/>
       <use x="190.869141" xlink:href="#DejaVuSans-30"/>
      </g>
     </g>
    </g>
    <g id="ytick_5">
     <g id="line2d_12">
      <g>
       <use style="fill:#ffffff;stroke:#ffffff;stroke-width:0.8;" x="126" xlink:href="#m5de7f590c5" y="212.354137"/>
      </g>
     </g>
     <g id="text_13">
      <!-- 8000 -->
      <g style="fill:#ffffff;" transform="translate(93.55 216.153356)scale(0.1 -0.1)">
       <defs>
        <path d="M 2034 2216 
Q 1584 2216 1326 1975 
Q 1069 1734 1069 1313 
Q 1069 891 1326 650 
Q 1584 409 2034 409 
Q 2484 409 2743 651 
Q 3003 894 3003 1313 
Q 3003 1734 2745 1975 
Q 2488 2216 2034 2216 
z
M 1403 2484 
Q 997 2584 770 2862 
Q 544 3141 544 3541 
Q 544 4100 942 4425 
Q 1341 4750 2034 4750 
Q 2731 4750 3128 4425 
Q 3525 4100 3525 3541 
Q 3525 3141 3298 2862 
Q 3072 2584 2669 2484 
Q 3125 2378 3379 2068 
Q 3634 1759 3634 1313 
Q 3634 634 3220 271 
Q 2806 -91 2034 -91 
Q 1263 -91 848 271 
Q 434 634 434 1313 
Q 434 1759 690 2068 
Q 947 2378 1403 2484 
z
M 1172 3481 
Q 1172 3119 1398 2916 
Q 1625 2713 2034 2713 
Q 2441 2713 2670 2916 
Q 2900 3119 2900 3481 
Q 2900 3844 2670 4047 
Q 2441 4250 2034 4250 
Q 1625 4250 1398 4047 
Q 1172 3844 1172 3481 
z
" id="DejaVuSans-38" transform="scale(0.015625)"/>
       </defs>
       <use xlink:href="#DejaVuSans-38"/>
       <use x="63.623047" xlink:href="#DejaVuSans-30"/>
       <use x="127.246094" xlink:href="#DejaVuSans-30"/>
       <use x="190.869141" xlink:href="#DejaVuSans-30"/>
      </g>
     </g>
    </g>
    <g id="ytick_6">
     <g id="line2d_13">
      <g>
       <use style="fill:#ffffff;stroke:#ffffff;stroke-width:0.8;" x="126" xlink:href="#m5de7f590c5" y="144.38449"/>
      </g>
     </g>
     <g id="text_14">
      <!-- 10000 -->
      <g style="fill:#ffffff;" transform="translate(87.1875 148.183709)scale(0.1 -0.1)">
       <use xlink:href="#DejaVuSans-31"/>
       <use x="63.623047" xlink:href="#DejaVuSans-30"/>
       <use x="127.246094" xlink:href="#DejaVuSans-30"/>
       <use x="190.869141" xlink:href="#DejaVuSans-30"/>
       <use x="254.492188" xlink:href="#DejaVuSans-30"/>
      </g>
     </g>
    </g>
    <g id="ytick_7">
     <g id="line2d_14">
      <g>
       <use style="fill:#ffffff;stroke:#ffffff;stroke-width:0.8;" x="126" xlink:href="#m5de7f590c5" y="76.414842"/>
      </g>
     </g>
     <g id="text_15">
      <!-- 12000 -->
      <g style="fill:#ffffff;" transform="translate(87.1875 80.214061)scale(0.1 -0.1)">
       <use xlink:href="#DejaVuSans-31"/>
       <use x="63.623047" xlink:href="#DejaVuSans-32"/>
       <use x="127.246094" xlink:href="#DejaVuSans-30"/>
       <use x="190.869141" xlink:href="#DejaVuSans-30"/>
       <use x="254.492188" xlink:href="#DejaVuSans-30"/>
      </g>
     </g>
    </g>
   </g>
   <g id="line2d_15">
    <path clip-path="url(#pdc9981a03d)" d="M 161.509091 404.742225 
L 161.735048 356.483775 
L 161.961004 413.816172 
L 162.186961 406.305526 
L 162.638874 476.722081 
L 163.090788 476.722081 
L 163.316744 474.003295 
L 163.542701 474.003295 
L 163.768658 427.274163 
L 163.994614 350.706355 
L 164.446528 350.706355 
L 164.672484 454.496007 
L 164.898441 433.935188 
L 165.124398 454.496007 
L 165.350354 429.449191 
L 165.576311 444.300559 
L 165.802268 425.506952 
L 166.028224 474.03728 
L 166.480138 410.859493 
L 166.706094 410.859493 
L 166.932051 388.905297 
L 167.158008 388.905297 
L 167.383964 342.07421 
L 167.609921 418.642017 
L 168.513748 418.642017 
L 168.739704 411.131371 
L 168.965661 420.681107 
L 169.191618 382.312241 
L 169.417574 399.84841 
L 169.643531 388.29357 
L 169.869488 363.246755 
L 170.095444 388.29357 
L 170.321401 322.396997 
L 170.547358 333.951837 
L 170.773314 333.951837 
L 171.225228 234.614197 
L 171.451184 256.568393 
L 171.677141 218.199527 
L 171.903098 246.54287 
L 172.129054 404.742225 
L 172.355011 353.663034 
L 172.580968 277.095227 
L 172.806924 277.095227 
L 173.032881 404.742225 
L 173.258838 413.408355 
L 173.484794 336.840547 
L 173.936708 264.384903 
L 174.162665 340.95271 
L 174.614578 340.95271 
L 174.840535 349.584856 
L 175.066491 383.671634 
L 175.292448 369.737856 
L 175.744361 325.319691 
L 175.970318 378.70985 
L 176.196275 459.049973 
L 176.648188 379.55947 
L 176.874145 445.422059 
L 177.100101 445.422059 
L 177.326058 442.873197 
L 177.552015 417.826382 
L 177.777971 445.422059 
L 178.003928 432.405871 
L 178.229885 432.405871 
L 178.455841 424.895225 
L 178.681798 348.327417 
L 178.907755 424.895225 
L 179.133711 348.327417 
L 179.359668 348.327417 
L 179.585625 432.405871 
L 179.811581 422.210424 
L 180.037538 356.313851 
L 180.263495 369.771841 
L 180.489451 369.771841 
L 180.715408 400.630061 
L 180.941365 400.630061 
L 181.167321 481.038154 
L 181.393278 481.038154 
L 181.619235 444.334544 
L 181.845191 444.334544 
L 182.071148 367.766736 
L 182.297105 407.664919 
L 182.523061 404.470346 
L 182.974975 307.579613 
L 183.200931 307.579613 
L 183.426888 282.532798 
L 183.652845 326.849009 
L 183.878801 403.416816 
L 184.330715 454.496007 
L 184.556671 451.777221 
L 184.782628 454.496007 
L 185.008585 444.300559 
L 185.234541 378.403986 
L 185.460498 354.512655 
L 185.686455 384.249376 
L 185.912411 335.990926 
L 186.138368 401.887499 
L 186.364325 322.396997 
L 186.590281 297.350182 
L 186.816238 345.608631 
L 187.268151 390.502583 
L 187.494108 481.038154 
L 187.720065 446.951376 
L 187.946021 446.849421 
L 188.171978 463.569954 
L 188.397935 463.569954 
L 188.623891 425.201088 
L 188.849848 455.78743 
L 189.075805 463.569954 
L 189.301761 463.671909 
L 189.527718 461.123047 
L 189.979632 378.777819 
L 190.205588 396.619852 
L 190.431545 396.619852 
L 190.657502 447.427163 
L 190.883458 447.325209 
L 191.109415 481.411987 
L 191.335372 436.110217 
L 191.787285 436.212171 
L 192.013242 481.513941 
L 192.239198 481.038154 
L 192.465155 459.083958 
L 192.691112 459.083958 
L 193.143025 381.46262 
L 193.368982 332.932292 
L 193.594938 354.886488 
L 193.820895 405.965678 
L 194.046852 365.285844 
L 194.272808 299.389271 
L 194.498765 365.285844 
L 194.724722 365.285844 
L 194.950678 413.816172 
L 195.176635 413.816172 
L 195.402592 347.919599 
L 195.628548 413.816172 
L 195.854505 411.267311 
L 196.080462 334.699503 
L 196.306418 350.706355 
L 196.532375 350.706355 
L 196.984288 431.862114 
L 197.436202 431.862114 
L 197.662158 380.782924 
L 197.888115 408.106722 
L 198.114072 359.848272 
L 198.340028 408.106722 
L 198.565985 405.387936 
L 198.791942 405.387936 
L 199.017898 383.43374 
L 199.243855 375.923094 
L 199.469812 375.923094 
L 199.695768 383.43374 
L 199.921725 408.106722 
L 200.147682 379.763379 
L 200.373638 430.842569 
L 200.599595 455.889384 
L 200.825552 436.212171 
L 201.051508 436.212171 
L 201.277465 427.274163 
L 201.503422 432.405871 
L 201.955335 385.40486 
L 202.181292 409.907918 
L 202.407248 409.907918 
L 202.633205 431.862114 
L 202.859162 431.760159 
L 203.085118 413.714218 
L 203.311075 424.589362 
L 203.537032 413.408355 
L 203.988945 413.3064 
L 204.214902 361.479544 
L 204.440858 361.479544 
L 204.892772 426.050709 
L 205.118728 416.025186 
L 205.344685 388.803342 
L 205.570642 420.715092 
L 205.796599 420.273289 
L 206.022555 445.422059 
L 206.248512 397.163609 
L 206.474469 463.671909 
L 206.700425 484.232727 
L 206.926382 454.496007 
L 207.604252 454.394052 
L 207.830209 473.935326 
L 208.056165 439.848547 
L 208.282122 473.935326 
L 208.508079 314.988305 
L 208.734035 356.585729 
L 208.959992 277.095227 
L 209.185949 349.075083 
L 209.863819 348.973129 
L 210.089775 404.844179 
L 210.315732 404.844179 
L 210.541689 370.757401 
L 210.767645 365.965541 
L 210.993602 373.476187 
L 211.219559 302.651814 
L 211.445515 300.102952 
L 211.671472 300.102952 
L 211.897429 376.67076 
L 212.123385 325.59157 
L 212.349342 447.495133 
L 212.575299 390.536568 
L 212.801255 406.407481 
L 213.027212 403.858619 
L 213.253169 370.553492 
L 213.479125 463.671909 
L 213.931039 402.66915 
L 214.156995 351.58996 
L 214.382952 394.342868 
L 214.608909 394.240914 
L 214.834865 455.889384 
L 215.060822 430.842569 
L 215.286779 382.584119 
L 215.512735 455.889384 
L 215.738692 484.232727 
L 215.964649 440.596214 
L 216.190605 433.085568 
L 216.642519 433.085568 
L 216.868475 427.274163 
L 217.094432 481.513941 
L 217.320389 481.038154 
L 217.546345 429.958964 
L 217.772302 413.408355 
L 217.998259 413.408355 
L 218.450172 363.110815 
L 218.676129 391.454158 
L 218.902085 366.407343 
L 219.128042 388.36154 
L 219.353999 388.36154 
L 219.579955 413.408355 
L 219.805912 369.771841 
L 220.031869 369.771841 
L 220.257825 413.408355 
L 220.483782 379.321576 
L 220.709739 413.408355 
L 220.935695 336.840547 
L 221.161652 336.840547 
L 221.387609 427.274163 
L 221.613565 427.274163 
L 221.839522 393.187384 
L 222.065479 393.187384 
L 222.291436 395.804216 
L 222.517392 393.255354 
L 222.743349 379.321576 
L 222.969306 404.742225 
L 223.195262 375.005504 
L 223.647176 479.236958 
L 224.099089 394.037005 
L 224.325046 429.687085 
L 224.551002 404.062528 
L 224.776959 481.038154 
L 225.002916 442.669288 
L 225.228872 431.760159 
L 225.454829 470.129025 
L 225.680786 462.618379 
L 225.906742 424.351468 
L 226.132699 424.351468 
L 226.358656 413.408355 
L 226.584612 413.408355 
L 226.810569 405.897709 
L 227.036526 476.722081 
L 227.488439 476.620127 
L 227.940352 394.00302 
L 228.166309 317.435212 
L 228.392266 324.945858 
L 228.844179 484.130773 
L 229.070136 424.487407 
L 229.522049 424.589362 
L 229.748006 436.212171 
L 229.973962 359.644363 
L 230.199919 407.664919 
L 230.425876 328.174417 
L 230.651832 404.946133 
L 230.877789 377.928199 
L 231.103746 375.379337 
L 231.329702 375.379337 
L 231.555659 451.947145 
L 232.007572 351.861839 
L 232.233529 373.951974 
L 232.459486 373.951974 
L 232.685442 384.147421 
L 232.911399 365.557723 
L 233.137356 463.671909 
L 233.363312 436.212171 
L 233.589269 436.212171 
L 233.815226 411.165356 
L 234.041182 411.165356 
L 234.267139 403.65471 
L 234.493096 463.671909 
L 234.719052 427.274163 
L 234.945009 419.763517 
L 235.170966 371.505067 
L 235.396922 379.015713 
L 235.622879 330.485385 
L 236.300749 479.236958 
L 236.526706 428.157768 
L 236.752662 420.647122 
L 236.978619 425.642891 
L 237.430532 306.696008 
L 237.656489 355.226336 
L 237.882446 329.737719 
L 238.108403 329.737719 
L 238.334359 307.783522 
L 238.786273 307.783522 
L 239.238186 431.862114 
L 239.916056 431.862114 
L 240.142013 380.782924 
L 240.593926 459.049973 
L 240.819883 459.049973 
L 241.045839 448.854526 
L 241.271796 381.326681 
L 241.949666 381.224727 
L 242.175623 378.675865 
L 242.401579 429.755055 
L 242.627536 442.771242 
L 242.853493 442.771242 
L 243.079449 429.211298 
L 243.531363 429.211298 
L 243.757319 413.3064 
L 243.983276 467.138361 
L 244.435189 417.520518 
L 244.661146 417.520518 
L 244.887103 387.783798 
L 245.113059 387.783798 
L 245.339016 414.597823 
L 245.790929 388.769357 
L 246.016886 337.690167 
L 246.242843 388.769357 
L 246.468799 413.816172 
L 247.372626 413.816172 
L 247.598583 379.729394 
L 247.824539 377.180532 
L 248.050496 413.816172 
L 248.276453 413.816172 
L 248.502409 484.232727 
L 248.728366 431.862114 
L 248.954323 431.760159 
L 249.180279 461.123047 
L 249.406236 463.671909 
L 249.632193 463.671909 
L 249.858149 438.625094 
L 250.084106 438.625094 
L 250.310063 463.671909 
L 250.536019 412.592719 
L 250.761976 463.671909 
L 250.987933 440.596214 
L 251.213889 364.028406 
L 251.439846 387.104101 
L 251.665803 387.104101 
L 251.891759 393.561218 
L 252.117716 393.561218 
L 253.021543 255.718772 
L 253.247499 294.087638 
L 253.473456 397.231579 
L 253.699413 397.231579 
L 253.92537 431.862114 
L 254.60324 431.862114 
L 254.829196 476.722081 
L 255.055153 484.232727 
L 255.28111 444.334544 
L 255.507066 444.334544 
L 255.733023 436.823898 
L 256.184936 370.655446 
L 256.63685 445.422059 
L 256.862806 445.422059 
L 257.088763 424.589362 
L 257.31472 424.589362 
L 257.540676 390.502583 
L 257.766633 390.400629 
L 257.99259 342.142179 
L 258.218546 401.785545 
L 258.444503 330.961172 
L 258.67046 330.961172 
L 258.896416 429.890994 
L 259.122373 427.342132 
L 259.34833 379.083683 
L 259.574286 433.255492 
L 259.800243 433.153537 
L 260.0262 470.129025 
L 260.478113 470.027071 
L 260.70407 481.038154 
L 260.930026 481.038154 
L 261.155983 455.889384 
L 261.38194 404.062528 
L 261.607896 455.889384 
L 261.833853 385.065012 
L 262.05981 453.170598 
L 262.511723 352.915368 
L 262.73768 404.062528 
L 262.963636 365.693662 
L 263.189593 404.062528 
L 263.41555 404.062528 
L 263.641506 402.66915 
L 263.867463 354.410701 
L 264.09342 344.249238 
L 264.545333 424.589362 
L 264.77129 376.330912 
L 264.997246 424.589362 
L 265.223203 424.589362 
L 265.44916 432.405871 
L 265.901073 287.018795 
L 266.12703 287.018795 
L 266.578943 432.405871 
L 266.8049 384.147421 
L 267.030856 362.193225 
L 267.256813 313.662897 
L 267.48277 413.408355 
L 267.708726 364.878026 
L 267.934683 425.506952 
L 268.16064 374.427762 
L 268.386596 425.506952 
L 268.612553 425.506952 
L 268.83851 400.460137 
L 269.064466 418.709987 
L 269.290423 467.240315 
L 269.742337 467.240315 
L 269.968293 484.232727 
L 270.420207 383.875543 
L 270.646163 356.211896 
L 270.87212 356.211896 
L 271.098077 317.84303 
L 271.324033 366.373359 
L 271.54999 341.326543 
L 271.775947 427.274163 
L 272.001903 376.194973 
L 272.22786 389.517024 
L 272.453817 393.255354 
L 272.679773 344.996904 
L 272.90573 396.076094 
L 273.131687 319.508287 
L 273.5836 319.508287 
L 273.809557 406.237557 
L 274.035513 406.237557 
L 274.26147 383.603664 
L 274.487427 431.862114 
L 274.93934 317.435212 
L 275.165297 317.435212 
L 275.391253 312.847261 
L 275.61721 429.890994 
L 275.843167 407.936798 
L 276.069123 454.496007 
L 276.29508 454.496007 
L 276.521037 451.777221 
L 276.746993 451.777221 
L 276.97295 453.170598 
L 277.198907 426.152664 
L 277.424863 377.894214 
L 277.65082 377.894214 
L 277.876777 426.152664 
L 278.102733 426.152664 
L 278.32869 481.038154 
L 278.780603 378.437971 
L 279.00656 365.965541 
L 279.232517 363.416679 
L 279.458473 340.918726 
L 279.68443 340.918726 
L 279.910387 365.965541 
L 280.136343 418.336154 
L 280.3623 347.511781 
L 280.588257 413.408355 
L 280.814213 388.36154 
L 281.04017 388.36154 
L 281.266127 427.274163 
L 281.492083 388.905297 
L 281.71804 444.334544 
L 281.943997 419.287729 
L 282.169953 415.549398 
L 282.39591 437.877428 
L 282.621867 402.227348 
L 283.07378 402.227348 
L 283.525693 259.762966 
L 283.75165 211.232638 
L 283.977607 226.525809 
L 284.203563 213.747515 
L 284.42952 387.681843 
L 284.655477 436.212171 
L 284.881433 433.66331 
L 285.333347 385.40486 
L 285.559304 387.953722 
L 285.78526 431.862114 
L 286.237174 355.294306 
L 286.689087 397.775336 
L 287.141 283.348434 
L 287.366957 397.775336 
L 287.592914 431.862114 
L 287.81887 424.351468 
L 288.270784 351.895824 
L 288.49674 424.589362 
L 288.948654 424.589362 
L 289.17461 386.220496 
L 289.626524 429.890994 
L 289.85248 429.890994 
L 290.078437 381.632544 
L 290.304394 429.890994 
L 290.53035 413.816172 
L 290.756307 358.964667 
L 290.982264 379.55947 
L 291.20822 431.862114 
L 291.434177 409.907918 
L 291.660134 402.397272 
L 291.88609 378.200077 
L 292.112047 449.772116 
L 292.56396 449.772116 
L 292.789917 403.688695 
L 293.015874 333.27214 
L 293.693744 470.129025 
L 294.145657 470.129025 
L 294.371614 421.598697 
L 294.59757 405.965678 
L 294.823527 470.129025 
L 295.049484 481.513941 
L 295.27544 415.617368 
L 295.501397 413.068506 
L 295.727354 442.873197 
L 295.95331 432.405871 
L 296.179267 432.405871 
L 296.405224 402.66915 
L 296.63118 479.236958 
L 296.857137 413.340385 
L 297.083094 413.340385 
L 297.30905 418.336154 
L 297.535007 415.141581 
L 297.760964 338.573773 
L 297.98692 338.573773 
L 298.212877 404.470346 
L 298.66479 404.470346 
L 298.890747 445.422059 
L 299.116704 407.053193 
L 299.34266 445.422059 
L 299.568617 436.212171 
L 299.794574 484.232727 
L 300.02053 433.153537 
L 300.246487 425.642891 
L 300.6984 296.432591 
L 300.924357 337.520243 
L 301.150314 327.358781 
L 301.376271 327.358781 
L 301.602227 378.437971 
L 301.828184 375.889109 
L 302.054141 413.816172 
L 302.280097 388.769357 
L 302.732011 388.769357 
L 302.957967 413.816172 
L 303.183924 391.861976 
L 303.409881 353.49311 
L 303.861794 445.422059 
L 304.087751 437.911413 
L 304.539664 365.455768 
L 304.765621 372.966414 
L 304.991577 372.966414 
L 305.217534 351.012218 
L 305.669447 423.807711 
L 305.895404 420.613137 
L 306.121361 440.868092 
L 306.347317 440.868092 
L 306.573274 391.522128 
L 306.799231 386.220496 
L 307.025187 339.593317 
L 307.251144 368.854251 
L 307.477101 334.767472 
L 308.154971 413.816172 
L 308.380927 365.285844 
L 308.606884 467.240315 
L 308.832841 433.153537 
L 309.058797 467.240315 
L 309.284754 481.513941 
L 309.510711 451.777221 
L 309.736667 446.98536 
L 309.962624 481.038154 
L 310.188581 424.589362 
L 310.414537 429.890994 
L 310.640494 429.890994 
L 310.866451 353.323186 
L 311.092407 427.342132 
L 311.318364 361.445559 
L 311.544321 429.890994 
L 311.770277 378.811804 
L 311.996234 378.811804 
L 312.222191 422.95809 
L 312.448147 422.95809 
L 312.674104 474.03728 
L 313.126017 397.775336 
L 313.351974 431.862114 
L 314.029844 431.862114 
L 314.255801 397.775336 
L 314.481757 397.775336 
L 314.933671 481.038154 
L 315.159627 440.596214 
L 315.385584 438.047352 
L 315.611541 440.596214 
L 315.837497 412.252871 
L 316.063454 404.062528 
L 316.289411 453.170598 
L 316.515367 453.170598 
L 316.741324 481.513941 
L 317.193237 481.411987 
L 317.419194 481.411987 
L 317.645151 432.303917 
L 317.871108 432.405871 
L 318.097064 415.413459 
L 318.323021 429.890994 
L 318.548978 432.405871 
L 318.774934 404.062528 
L 319.000891 429.687085 
L 319.452804 429.687085 
L 319.678761 407.223117 
L 319.904718 459.049973 
L 320.130674 459.049973 
L 320.582588 411.165356 
L 320.808544 459.049973 
L 321.034501 459.049973 
L 321.260458 456.331187 
L 321.486414 388.2256 
L 321.712371 413.408355 
L 321.938328 383.671634 
L 322.164284 375.039489 
L 322.390241 438.353215 
L 322.616198 431.760159 
L 322.842154 380.680969 
L 323.068111 419.049835 
L 323.294068 430.434751 
L 323.520024 430.434751 
L 323.745981 481.513941 
L 323.971938 451.777221 
L 324.197894 404.946133 
L 324.423851 390.672508 
L 324.649808 407.664919 
L 324.875764 397.469472 
L 325.101721 397.469472 
L 325.327678 394.92061 
L 325.553634 360.833832 
L 325.779591 439.950502 
L 326.231504 439.950502 
L 326.457461 450.145949 
L 326.909374 396.755791 
L 327.135331 445.693937 
L 327.361288 445.693937 
L 327.587244 444.300559 
L 328.039158 444.300559 
L 328.265114 474.03728 
L 328.491071 422.210424 
L 328.717028 414.699778 
L 328.942984 424.895225 
L 329.168941 414.699778 
L 329.394898 392.745582 
L 329.620854 444.572438 
L 329.846811 437.775473 
L 330.072768 462.618379 
L 330.298724 462.618379 
L 330.524681 417.078716 
L 330.750638 436.823898 
L 331.202551 436.823898 
L 331.428508 413.408355 
L 331.654464 404.742225 
L 331.880421 431.862114 
L 332.106378 413.408355 
L 332.332334 364.878026 
L 332.558291 364.878026 
L 332.784248 356.211896 
L 333.010204 305.132706 
L 333.236161 378.811804 
L 333.462118 378.811804 
L 333.688075 428.157768 
L 333.914031 384.623209 
L 334.139988 313.798836 
L 334.365945 380.782924 
L 334.591901 373.510172 
L 334.817858 373.510172 
L 335.043815 404.810194 
L 335.721685 404.70824 
L 335.947641 455.78743 
L 336.173598 407.257102 
L 336.851468 407.257102 
L 337.077425 436.110217 
L 337.981251 436.110217 
L 338.207208 402.023439 
L 338.433165 402.023439 
L 338.659121 395.702261 
L 338.885078 373.578141 
L 339.111035 313.934776 
L 339.336991 424.589362 
L 339.562948 424.487407 
L 339.788905 390.400629 
L 340.014861 398.217138 
L 340.240818 445.048226 
L 340.466775 437.537579 
L 340.692731 371.641006 
L 340.918688 371.742961 
L 341.144645 442.635303 
L 341.370601 371.81093 
L 341.596558 371.81093 
L 341.822515 357.36738 
L 342.274428 413.408355 
L 342.726341 313.323049 
L 342.952298 404.402376 
L 343.178255 445.422059 
L 343.404211 445.422059 
L 343.630168 440.596214 
L 343.856125 392.065885 
L 344.082081 418.709987 
L 344.308038 352.813414 
L 344.533995 418.709987 
L 345.211865 418.709987 
L 345.437821 370.451537 
L 345.663778 479.236958 
L 345.889735 430.978508 
L 346.115691 479.236958 
L 346.341648 484.232727 
L 346.567605 462.278531 
L 346.793561 385.710723 
L 347.019518 351.623945 
L 347.245475 402.66915 
L 347.471431 377.928199 
L 347.697388 326.849009 
L 347.923345 326.747054 
L 348.149301 260.850481 
L 348.601215 260.952435 
L 348.827171 265.642341 
L 349.053128 402.66915 
L 349.505042 402.66915 
L 349.730998 424.589362 
L 349.956955 373.510172 
L 350.182912 365.999525 
L 350.408868 373.510172 
L 350.634825 373.510172 
L 350.860782 389.517024 
L 351.086738 355.430245 
L 351.312695 382.074347 
L 351.764608 402.125393 
L 351.990565 363.756527 
L 352.216522 354.818518 
L 352.442478 354.818518 
L 352.668435 409.058297 
L 353.120348 408.956343 
L 353.346305 408.956343 
L 353.572262 420.409228 
L 353.798218 372.150779 
L 354.024175 372.048824 
L 354.250132 358.149031 
L 354.702045 479.135004 
L 354.928002 457.180808 
L 355.153958 479.135004 
L 355.831828 479.135004 
L 356.283742 402.125393 
L 356.509698 436.212171 
L 356.961612 402.635165 
L 357.187568 448.174829 
L 357.413525 454.767885 
L 357.639482 409.907918 
L 357.865438 424.589362 
L 358.091395 386.220496 
L 358.317352 393.493248 
L 358.543308 393.493248 
L 358.769265 345.234798 
L 358.995222 444.334544 
L 359.221178 444.334544 
L 359.447135 392.507688 
L 359.673092 407.359056 
L 359.899048 379.015713 
L 360.125005 313.11914 
L 360.350962 364.945996 
L 360.576918 364.945996 
L 360.802875 470.129025 
L 361.028832 436.212171 
L 361.706702 436.110217 
L 361.932658 370.213644 
L 362.158615 396.280003 
L 362.384572 393.08543 
L 362.610528 393.08543 
L 362.836485 415.039626 
L 363.062442 412.490764 
L 363.288398 415.685338 
L 363.514355 408.174692 
L 363.740312 410.825508 
L 363.966268 476.722081 
L 364.418182 417.452549 
L 364.644138 476.722081 
L 364.870095 446.98536 
L 365.096052 474.003295 
L 365.322009 404.742225 
L 365.547965 397.231579 
L 365.773922 466.526634 
L 365.999879 466.526634 
L 366.225835 424.589362 
L 366.451792 358.692788 
L 366.677749 365.965541 
L 366.903705 408.140707 
L 367.129662 337.316334 
L 367.581575 337.316334 
L 367.807532 408.140707 
L 368.033489 369.771841 
L 368.259445 445.693937 
L 368.711359 368.99019 
L 368.937315 368.99019 
L 369.163272 429.890994 
L 369.389229 429.890994 
L 369.615185 381.360666 
L 369.841142 435.702399 
L 370.067099 407.359056 
L 370.293055 330.791248 
L 370.519012 319.236408 
L 370.744969 285.14963 
L 370.970925 285.14963 
L 371.196882 382.482165 
L 371.648795 295.854849 
L 371.874752 413.170461 
L 372.100709 420.681107 
L 372.326665 442.057561 
L 372.552622 429.890994 
L 372.778579 381.360666 
L 373.004535 381.360666 
L 373.230492 413.748203 
L 373.456449 343.331648 
L 373.682405 413.816172 
L 374.134319 413.816172 
L 374.360275 391.861976 
L 374.586232 391.760022 
L 374.812189 458.982003 
L 375.038145 391.760022 
L 375.264102 391.760022 
L 375.490059 445.286119 
L 375.941972 445.286119 
L 376.167929 438.896972 
L 376.393885 438.896972 
L 376.619842 379.321576 
L 377.071755 379.321576 
L 377.297712 331.063127 
L 377.523669 323.552481 
L 377.749625 400.120289 
L 377.975582 378.166092 
L 378.201539 455.889384 
L 378.427495 448.378738 
L 378.879409 348.76922 
L 379.105365 397.299548 
L 379.331322 404.810194 
L 379.557279 366.441328 
L 379.783235 394.784671 
L 380.235149 306.35616 
L 380.461105 412.592719 
L 380.687062 336.024911 
L 380.913019 435.328566 
L 381.138976 413.816172 
L 381.364932 362.736982 
L 381.590889 373.510172 
L 381.816846 373.510172 
L 382.042802 365.999525 
L 382.268759 417.078716 
L 382.946629 417.078716 
L 383.172586 463.671909 
L 383.398542 463.671909 
L 384.076412 366.951101 
L 384.302369 421.190879 
L 384.528326 443.145075 
L 384.754282 436.212171 
L 384.980239 455.889384 
L 385.206196 407.359056 
L 385.432152 385.065012 
L 385.658109 412.252871 
L 385.884066 412.252871 
L 386.110022 430.842569 
L 386.335979 430.842569 
L 386.787892 306.016312 
L 387.239806 476.722081 
L 387.465762 474.003295 
L 387.691719 474.003295 
L 388.143632 403.416816 
L 388.369589 369.330038 
L 388.595546 394.376853 
L 389.047459 359.372485 
L 389.273416 359.372485 
L 389.725329 481.038154 
L 389.951286 481.038154 
L 390.177242 442.669288 
L 390.403199 442.567333 
L 390.629156 394.308884 
L 390.855112 318.012954 
L 391.307026 318.114909 
L 391.532982 353.968898 
L 391.758939 353.968898 
L 391.984896 328.922083 
L 392.210852 326.373221 
L 392.436809 374.529716 
L 392.662766 377.078578 
L 393.114679 456.365172 
L 393.340636 456.467126 
L 393.566592 481.513941 
L 393.792549 456.331187 
L 394.018506 456.331187 
L 394.470419 358.692788 
L 394.696376 422.210424 
L 394.922332 373.680096 
L 395.148289 388.123646 
L 395.374246 388.123646 
L 395.600202 448.854526 
L 395.826159 426.90033 
L 396.052116 448.752571 
L 396.278072 436.212171 
L 396.504029 436.212171 
L 396.729986 402.125393 
L 396.955942 424.589362 
L 397.181899 376.330912 
L 397.407856 368.820266 
L 397.633813 368.820266 
L 397.859769 474.003295 
L 398.537639 347.375842 
L 398.763596 347.273888 
L 398.989553 373.306263 
L 399.215509 380.816909 
L 399.441466 380.918863 
L 399.667423 420.817046 
L 400.345293 258.131695 
L 400.571249 181.563887 
L 400.797206 181.563887 
L 401.023163 159.609691 
L 401.475076 249.36361 
L 401.701033 249.36361 
L 401.926989 431.862114 
L 402.152946 355.294306 
L 402.378903 431.862114 
L 402.604859 431.862114 
L 402.830816 383.603664 
L 403.056773 365.149905 
L 403.282729 362.601043 
L 403.508686 339.967151 
L 403.734643 410.791523 
L 403.960599 334.223715 
L 404.186556 309.1769 
L 404.412513 301.666254 
L 404.638469 367.155009 
L 404.864426 367.155009 
L 405.090383 362.601043 
L 405.316339 384.283361 
L 405.542296 318.386787 
L 405.768253 315.837926 
L 405.994209 405.387936 
L 406.446123 405.387936 
L 406.672079 407.936798 
L 406.898036 462.278531 
L 407.349949 454.7339 
L 407.801863 454.7339 
L 408.027819 427.274163 
L 408.253776 427.274163 
L 408.479733 350.706355 
L 408.931646 454.190143 
L 409.157603 388.29357 
L 409.383559 354.920473 
L 409.609516 420.817046 
L 409.835473 418.09826 
L 410.061429 382.006377 
L 410.287386 382.006377 
L 410.513343 455.889384 
L 410.739299 389.992811 
L 410.965256 368.038615 
L 411.191213 368.038615 
L 411.417169 389.992811 
L 411.643126 338.913621 
L 411.869083 338.913621 
L 412.095039 313.730867 
L 412.320996 393.255354 
L 412.546953 344.725026 
L 412.772909 380.782924 
L 412.998866 381.326681 
L 413.224823 381.326681 
L 413.45078 347.239903 
L 413.676736 351.58996 
L 414.12865 479.236958 
L 414.354606 474.03728 
L 414.580563 473.935326 
L 414.80652 448.888511 
L 415.032476 448.888511 
L 415.258433 473.935326 
L 415.48439 466.42468 
L 415.710346 400.528106 
L 415.936303 428.701525 
L 416.16226 377.622335 
L 416.388216 377.622335 
L 416.84013 462.618379 
L 417.066086 424.895225 
L 417.292043 444.334544 
L 417.518 444.334544 
L 417.743956 434.139097 
L 417.969913 408.140707 
L 418.19587 408.038752 
L 418.421826 473.935326 
L 418.647783 473.935326 
L 418.87374 396.076094 
L 419.099696 444.334544 
L 419.325653 396.076094 
L 419.55161 376.330912 
L 419.777566 342.244134 
L 420.003523 265.676326 
L 420.22948 447.427163 
L 420.455436 410.247766 
L 420.681393 410.247766 
L 420.90735 379.729394 
L 421.133306 413.816172 
L 421.359263 470.129025 
L 421.58522 470.129025 
L 421.811176 413.816172 
L 422.037133 413.816172 
L 422.26309 337.248365 
L 422.489046 407.664919 
L 422.715003 355.838063 
L 422.94096 361.581498 
L 423.166916 361.581498 
L 423.392873 445.422059 
L 423.61883 429.890994 
L 423.844786 431.862114 
L 424.070743 431.862114 
L 424.2967 444.334544 
L 424.522656 470.129025 
L 424.748613 436.042247 
L 424.97457 447.427163 
L 425.200526 481.513941 
L 425.426483 430.434751 
L 425.65244 437.877428 
L 425.878396 429.78904 
L 426.33031 429.890994 
L 426.556266 353.323186 
L 427.00818 353.323186 
L 427.234136 367.766736 
L 427.460093 404.470346 
L 427.912006 333.679958 
L 428.137963 333.679958 
L 428.36392 410.247766 
L 428.589876 379.321576 
L 428.815833 330.791248 
L 429.04179 330.791248 
L 429.267747 349.788765 
L 429.493703 432.405871 
L 429.71966 429.687085 
L 429.945617 432.405871 
L 430.171573 424.895225 
L 430.39753 432.405871 
L 430.623487 411.845053 
L 430.849443 435.328566 
L 431.0754 417.520518 
L 431.527313 350.230567 
L 431.979227 350.230567 
L 432.205183 428.871449 
L 432.43114 438.353215 
L 432.883053 338.369864 
L 433.10901 365.965541 
L 433.334967 365.965541 
L 433.560923 418.336154 
L 433.78688 365.965541 
L 434.012837 410.825508 
L 434.238793 367.188994 
L 434.46475 367.188994 
L 434.690707 374.69964 
L 434.916663 374.69964 
L 435.14262 372.150779 
L 435.368577 386.050571 
L 435.594533 334.223715 
L 435.82049 326.713069 
L 436.046447 432.405871 
L 436.272403 352.915368 
L 436.49836 375.005504 
L 436.724317 426.152664 
L 436.950273 444.300559 
L 437.17623 474.03728 
L 437.402187 474.03728 
L 437.628143 466.526634 
L 437.8541 444.300559 
L 438.080057 435.668414 
L 438.306013 435.668414 
L 438.53197 474.03728 
L 438.757927 474.03728 
L 439.20984 411.607159 
L 439.435797 411.607159 
L 439.661753 412.252871 
L 439.88771 363.994421 
L 440.113667 437.877428 
L 440.339623 413.816172 
L 440.56558 413.816172 
L 440.791537 454.496007 
L 441.017493 410.859493 
L 441.24345 437.877428 
L 441.469407 374.69964 
L 441.695363 361.377589 
L 441.92132 361.377589 
L 442.373233 476.722081 
L 442.825147 476.722081 
L 443.051103 442.635303 
L 443.27706 366.067495 
L 443.503017 366.067495 
L 443.728973 341.02068 
L 444.180887 341.02068 
L 444.406843 317.537167 
L 444.6328 394.104975 
L 444.858757 349.788765 
L 445.084714 349.788765 
L 445.31067 342.278119 
L 445.536627 391.386189 
L 445.762584 398.896835 
L 445.98854 398.896835 
L 446.440454 349.924704 
L 446.66641 394.104975 
L 446.892367 476.722081 
L 447.118324 436.823898 
L 447.34428 479.236958 
L 447.570237 479.236958 
L 447.796194 471.726312 
L 448.02215 473.527508 
L 448.248107 481.038154 
L 448.70002 481.038154 
L 448.925977 446.951376 
L 449.151934 381.054802 
L 449.603847 355.906033 
L 449.829804 421.802606 
L 450.05576 373.272278 
L 450.281717 398.421047 
L 450.507674 360.052181 
L 450.73363 401.071864 
L 450.959587 359.950227 
L 451.185544 411.777083 
L 451.4115 382.040362 
L 451.637457 330.961172 
L 452.08937 411.777083 
L 452.315327 352.133717 
L 452.541284 424.589362 
L 452.76724 445.422059 
L 452.993197 432.405871 
L 453.219154 429.890994 
L 453.44511 429.890994 
L 453.671067 353.323186 
L 454.12298 456.161263 
L 454.348937 470.129025 
L 454.574894 470.129025 
L 454.80085 421.598697 
L 455.026807 421.598697 
L 455.252764 370.519507 
L 455.47872 419.049835 
L 455.704677 376.194973 
L 455.930634 430.434751 
L 456.15659 361.343605 
L 456.608504 379.321576 
L 456.83446 330.791248 
L 457.060417 432.54181 
L 457.286374 391.454158 
L 457.51233 413.408355 
L 457.738287 413.408355 
L 458.1902 326.781039 
L 458.416157 397.605412 
L 458.642114 395.05655 
L 458.86807 324.232177 
L 459.319984 383.603664 
L 459.54594 431.862114 
L 459.771897 431.862114 
L 459.997854 445.422059 
L 460.22381 484.232727 
L 460.449767 436.212171 
L 460.675724 414.257975 
L 460.901681 406.747329 
L 461.353594 341.190604 
L 461.579551 290.111414 
L 461.805507 290.111414 
L 462.031464 341.190604 
L 462.257421 341.190604 
L 462.483377 363.1448 
L 462.709334 424.351468 
L 462.935291 376.093018 
L 463.387204 375.991064 
L 463.613161 433.323461 
L 463.839117 376.364897 
L 464.065074 376.330912 
L 464.291031 424.589362 
L 464.516987 424.589362 
L 464.742944 348.021554 
L 464.968901 382.482165 
L 465.194857 459.049973 
L 465.420814 459.049973 
L 465.646771 479.236958 
L 465.872727 445.15018 
L 466.098684 450.145949 
L 466.324641 395.804216 
L 466.550597 431.862114 
L 466.776554 432.405871 
L 467.002511 432.405871 
L 467.228467 361.581498 
L 467.454424 361.581498 
L 467.680381 415.413459 
L 467.906337 398.319093 
L 468.132294 450.145949 
L 468.358251 424.963195 
L 468.584207 459.049973 
L 468.810164 437.095777 
L 469.036121 429.585131 
L 469.262077 454.767885 
L 469.488034 454.767885 
L 469.713991 411.131371 
L 469.939947 411.131371 
L 470.165904 440.596214 
L 470.391861 413.408355 
L 470.617817 413.408355 
L 470.843774 392.847536 
L 471.069731 392.847536 
L 471.295687 435.328566 
L 471.521644 453.340522 
L 471.747601 481.038154 
L 471.973557 474.03728 
L 472.199514 471.488418 
L 472.425471 471.488418 
L 472.651427 451.947145 
L 472.877384 467.240315 
L 473.103341 467.240315 
L 473.555254 352.813414 
L 473.781211 352.813414 
L 474.233124 395.804216 
L 474.459081 383.331786 
L 474.685037 383.331786 
L 474.910994 431.862114 
L 475.136951 431.862114 
L 475.362907 383.331786 
L 475.588864 383.331786 
L 475.814821 376.059033 
L 476.040777 436.212171 
L 476.266734 436.212171 
L 476.492691 387.681843 
L 476.718647 407.359056 
L 476.944604 330.791248 
L 477.170561 307.307735 
L 477.396518 355.838063 
L 477.622474 321.751285 
L 477.848431 321.751285 
L 478.074388 355.838063 
L 478.300344 353.323186 
L 478.526301 378.811804 
L 478.752258 378.811804 
L 478.978214 433.153537 
L 479.656084 297.248227 
L 479.882041 355.838063 
L 480.107998 307.307735 
L 480.333954 319.236408 
L 480.559911 364.878026 
L 480.785868 364.878026 
L 481.011824 436.212171 
L 481.237781 436.212171 
L 481.463738 413.816172 
L 481.689694 406.305526 
L 481.915651 406.305526 
L 482.141608 476.722081 
L 482.367564 436.823898 
L 482.593521 436.823898 
L 482.819478 407.087177 
L 483.045434 473.527508 
L 483.271391 424.997179 
L 483.497348 424.997179 
L 483.723304 425.472967 
L 483.949261 432.983613 
L 484.175218 435.702399 
L 484.401174 366.373359 
L 484.627131 332.28658 
L 484.853088 379.729394 
L 485.079044 402.125393 
L 485.530958 402.125393 
L 485.756914 394.614747 
L 485.982871 372.660551 
L 486.208828 439.916517 
L 486.434784 424.351468 
L 486.660741 424.895225 
L 486.886698 354.070852 
L 487.112654 354.070852 
L 487.338611 404.334407 
L 487.564568 356.075957 
L 487.790524 432.405871 
L 488.016481 407.223117 
L 488.242438 358.964667 
L 488.468394 373.951974 
L 488.694351 363.586603 
L 488.920308 363.586603 
L 489.146264 413.816172 
L 489.372221 424.589362 
L 489.824134 424.589362 
L 490.050091 467.240315 
L 490.276048 442.1935 
L 490.502004 467.240315 
L 490.953918 413.816172 
L 491.405831 413.816172 
L 491.631788 411.267311 
L 491.857744 433.66331 
L 492.309658 433.66331 
L 492.535614 451.947145 
L 492.761571 461.123047 
L 492.987528 453.612401 
L 493.213485 415.243535 
L 493.439441 415.243535 
L 493.665398 413.3064 
L 493.891355 391.352204 
L 494.117311 391.352204 
L 494.343268 342.821876 
L 494.795181 424.589362 
L 495.247095 424.589362 
L 495.473051 445.422059 
L 495.699008 427.274163 
L 495.924965 378.743834 
L 496.150921 427.274163 
L 496.376878 388.905297 
L 496.602835 431.760159 
L 496.828791 429.211298 
L 497.054748 421.700652 
L 497.280705 460.069518 
L 497.506661 474.173219 
L 497.732618 407.562965 
L 497.958575 407.562965 
L 498.184531 436.110217 
L 498.410488 427.172208 
L 498.636445 480.936199 
L 498.862401 432.303917 
L 499.088358 424.793271 
L 499.314315 476.722081 
L 499.540271 451.675266 
L 499.766228 400.596076 
L 499.992185 451.675266 
L 500.218141 451.573312 
L 500.444098 403.314862 
L 500.670055 381.360666 
L 500.896011 381.360666 
L 501.121968 332.830338 
L 501.799838 332.830338 
L 502.025795 340.340984 
L 502.251751 311.997641 
L 502.477708 333.951837 
L 503.155578 333.951837 
L 503.381535 430.842569 
L 503.607491 423.331923 
L 503.833448 455.889384 
L 504.059405 445.422059 
L 504.963231 445.422059 
L 505.189188 427.274163 
L 505.415145 350.706355 
L 505.641101 328.174417 
L 505.867058 418.132245 
L 506.093015 425.642891 
L 506.318971 359.746318 
L 506.544928 339.1855 
L 506.770885 405.082073 
L 507.674711 404.980118 
L 507.900668 371.301158 
L 508.352581 463.977772 
L 508.804495 384.011482 
L 509.030452 394.037005 
L 509.256408 383.841558 
L 509.482365 388.123646 
L 509.708322 388.123646 
L 509.934278 397.469472 
L 510.160235 390.672508 
L 510.612148 364.028406 
L 510.838105 342.07421 
L 511.290018 432.54181 
L 511.741932 432.54181 
L 511.967888 462.278531 
L 512.193845 452.083084 
L 512.419802 401.003894 
L 512.645758 401.003894 
L 512.871715 452.083084 
L 513.097672 427.036269 
L 513.323628 427.036269 
L 513.549585 392.949491 
L 513.775542 437.231716 
L 514.001498 411.165356 
L 514.227455 403.65471 
L 514.453412 406.747329 
L 514.679368 424.895225 
L 514.905325 354.070852 
L 515.131282 413.408355 
L 515.357238 392.847536 
L 515.583195 392.847536 
L 515.809152 481.038154 
L 516.035108 463.671909 
L 516.261065 413.816172 
L 516.487022 413.816172 
L 516.712978 365.557723 
L 516.938935 418.981866 
L 517.616805 418.981866 
L 518.068718 335.073336 
L 518.294675 333.102216 
L 518.520632 336.364759 
L 518.746588 346.084419 
L 519.198502 275.701849 
L 519.876372 275.701849 
L 520.102328 250.213231 
L 520.328285 250.213231 
L 520.780198 344.113299 
L 521.006155 319.066484 
L 521.232112 319.066484 
L 521.458068 434.003158 
L 521.909982 368.106585 
L 522.135938 393.1534 
L 522.361895 353.255217 
L 523.039765 353.255217 
L 523.265722 359.066621 
L 523.491678 330.723278 
L 523.717635 330.723278 
L 523.943592 317.537167 
L 524.169548 383.43374 
L 524.395505 335.17529 
L 524.847419 405.082073 
L 525.073375 405.082073 
L 525.299332 418.981866 
L 525.525289 415.413459 
L 525.751245 435.974278 
L 525.977202 430.978508 
L 526.203159 392.609642 
L 526.429115 430.978508 
L 526.655072 402.66915 
L 526.881029 424.963195 
L 527.106985 422.414333 
L 527.332942 390.638523 
L 527.784855 378.845789 
L 528.010812 378.845789 
L 528.236769 427.274163 
L 528.688682 427.274163 
L 528.914639 419.763517 
L 529.140595 419.763517 
L 529.366552 427.274163 
L 529.592509 402.227348 
L 529.818465 402.125393 
L 530.044422 427.172208 
L 530.270379 402.125393 
L 530.496335 402.125393 
L 530.722292 408.106722 
L 530.948249 406.815299 
L 531.174205 408.106722 
L 531.400162 408.106722 
L 531.626119 411.165356 
L 531.852075 411.165356 
L 532.078032 387.953722 
L 532.303989 387.953722 
L 532.529945 349.584856 
L 532.755902 387.953722 
L 533.433772 387.953722 
L 533.659729 322.057148 
L 533.885685 370.077704 
L 534.111642 313.11914 
L 534.563555 313.11914 
L 534.789512 310.570278 
L 535.015469 310.570278 
L 535.241425 344.89495 
L 535.467382 353.255217 
L 535.693339 442.057561 
L 536.145252 442.057561 
L 536.371209 444.334544 
L 536.597165 404.742225 
L 536.823122 424.589362 
L 537.049079 376.059033 
L 537.275035 376.059033 
L 537.500992 414.29196 
L 538.178862 240.527556 
L 538.404819 248.038202 
L 538.630775 282.124981 
L 538.856732 274.614334 
L 539.082689 274.614334 
L 539.308645 226.355885 
L 539.534602 226.355885 
L 539.760559 320.153998 
L 540.212472 334.155746 
L 540.438429 331.606884 
L 540.664386 297.520106 
L 540.890342 363.416679 
L 541.342256 342.957815 
L 541.568212 374.971519 
L 541.794169 355.294306 
L 542.020126 289.397733 
L 542.246082 289.397733 
L 542.472039 429.890994 
L 542.923952 429.890994 
L 543.149909 404.742225 
L 543.375866 404.64027 
L 543.601822 413.3064 
L 543.827779 379.219622 
L 544.053736 379.219622 
L 544.279692 411.233326 
L 544.505649 411.233326 
L 544.731606 429.890994 
L 544.957562 363.994421 
L 545.183519 363.994421 
L 545.409476 444.334544 
L 545.635432 424.589362 
L 546.087346 424.589362 
L 546.313302 470.129025 
L 546.539259 463.671909 
L 546.765216 436.212171 
L 546.991172 387.953722 
L 547.443086 387.953722 
L 547.669042 365.149905 
L 548.346912 365.149905 
L 548.572869 313.323049 
L 549.250739 313.323049 
L 549.476696 384.147421 
L 549.702652 381.632544 
L 550.154566 381.632544 
L 550.380522 429.890994 
L 550.606479 429.890994 
L 550.832436 404.742225 
L 551.058392 404.742225 
L 551.284349 356.483775 
L 551.510306 279.915967 
L 551.736262 328.174417 
L 552.188176 328.174417 
L 552.414132 325.625555 
L 552.640089 325.625555 
L 552.866046 402.193363 
L 553.092002 353.934913 
L 553.317959 394.614747 
L 553.543916 394.614747 
L 553.769872 328.718174 
L 553.995829 397.231579 
L 554.221786 352.915368 
L 554.447742 432.405871 
L 554.673699 422.210424 
L 554.899656 373.951974 
L 555.125612 366.441328 
L 555.351569 366.441328 
L 555.577526 414.699778 
L 555.803482 407.902813 
L 556.933266 407.902813 
L 557.159223 415.413459 
L 557.837093 415.413459 
L 558.063049 418.981866 
L 558.289006 418.981866 
L 558.740919 375.209413 
L 558.966876 375.209413 
L 559.192833 397.163609 
L 559.418789 331.267036 
L 560.096659 331.267036 
L 560.322616 328.718174 
L 560.548573 328.718174 
L 560.774529 290.349308 
L 561.000486 290.349308 
L 561.226443 328.718174 
L 561.904313 328.718174 
L 562.130269 306.763978 
L 562.356226 299.253332 
L 563.034096 299.253332 
L 563.260053 313.425003 
L 563.486009 313.425003 
L 563.937923 330.009597 
L 564.163879 330.009597 
L 564.389836 354.512655 
L 564.615793 329.329901 
L 564.841749 329.329901 
L 565.067706 307.239765 
L 565.293663 332.42252 
L 565.519619 331.878762 
L 565.745576 333.170186 
L 565.971533 333.170186 
L 566.197489 329.975612 
L 566.423446 329.975612 
L 566.875359 238.8623 
L 567.327273 238.8623 
L 567.553229 356.313851 
L 567.779186 334.359655 
L 568.005143 334.359655 
L 568.231099 400.256228 
L 568.457056 400.256228 
L 568.683013 426.90033 
L 569.134926 426.90033 
L 569.360883 437.095777 
L 569.586839 412.048962 
L 570.038753 451.675266 
L 570.264709 451.675266 
L 570.490666 476.722081 
L 570.716623 476.722081 
L 570.942579 397.231579 
L 572.072363 397.231579 
L 572.298319 331.335005 
L 573.202146 331.335005 
L 573.428103 302.991662 
L 575.0098 302.991662 
L 575.235756 310.502308 
L 576.36554 310.502308 
L 576.591496 302.991662 
L 576.817453 302.991662 
L 577.04341 283.076556 
L 577.269366 290.587202 
L 577.72128 230.264139 
L 577.947236 288.480143 
L 579.528933 288.480143 
L 579.75489 285.931281 
L 580.206803 285.931281 
L 580.43276 296.70447 
L 580.658716 271.657655 
L 580.884673 271.657655 
L 581.11063 317.299273 
L 581.336586 268.768945 
L 581.7885 268.768945 
L 582.014456 242.73657 
L 582.240413 242.73657 
L 582.46637 208.649792 
L 583.82211 208.649792 
L 584.048066 211.198653 
L 585.629763 211.198653 
L 585.85572 184.554552 
L 588.793157 184.554552 
L 589.019113 159.507736 
L 589.24507 159.507736 
L 589.471027 184.554552 
L 589.696983 162.600355 
L 590.374853 162.600355 
L 590.60081 211.130684 
L 591.052723 211.130684 
L 591.27868 262.209874 
L 592.408463 262.209874 
L 592.63442 258.981316 
L 594.216117 258.981316 
L 594.442073 280.085891 
L 594.66803 280.085891 
L 594.893987 271.045928 
L 596.475683 271.045928 
L 596.70164 222.787478 
L 601.672687 222.787478 
L 601.898643 215.276832 
L 603.254383 215.276832 
L 603.48034 263.807161 
L 604.83608 263.705206 
L 605.062037 271.215852 
L 608.9033 271.317807 
L 609.129257 246.270991 
L 612.744564 246.270991 
L 612.97052 180.374418 
L 617.71561 180.374418 
L 617.941567 209.499412 
L 622.460701 209.499412 
L 622.686657 186.015899 
L 628.109617 186.015899 
L 628.335574 221.869888 
L 631.724924 221.869888 
L 631.950881 214.359242 
L 632.628751 214.359242 
L 632.854707 163.280052 
L 633.984491 163.280052 
L 634.210447 175.990376 
L 649.801458 175.990376 
L 650.027414 163.280052 
L 664.036728 163.280052 
L 664.262685 130.348758 
L 664.488641 130.246803 
L 664.714598 105.301943 
L 673.300952 105.301943 
L 673.526908 112.812589 
L 688.891962 112.812589 
L 689.117919 105.301943 
L 738.150516 105.301943 
L 738.376473 88.887273 
L 871.690909 88.887273 
L 871.690909 88.887273 
" style="fill:none;stroke:#8dd3c7;stroke-linecap:square;stroke-width:1.5;"/>
   </g>
   <g id="line2d_16">
    <path clip-path="url(#pdc9981a03d)" d="M 161.509091 404.742225 
L 161.735048 356.483775 
L 163.768658 356.483775 
L 163.994614 350.706355 
L 167.158008 350.706355 
L 167.383964 342.07421 
L 170.095444 342.07421 
L 170.321401 322.396997 
L 170.773314 322.396997 
L 171.225228 234.614197 
L 171.451184 234.614197 
L 171.677141 218.199527 
L 283.525693 218.199527 
L 283.75165 211.232638 
L 400.345293 211.232638 
L 400.571249 181.563887 
L 400.797206 181.563887 
L 401.023163 159.609691 
L 664.036728 159.507736 
L 664.262685 130.348758 
L 664.488641 130.246803 
L 664.714598 105.301943 
L 738.150516 105.301943 
L 738.376473 88.887273 
L 871.690909 88.887273 
L 871.690909 88.887273 
" style="fill:none;stroke:#feffb3;stroke-linecap:square;stroke-width:1.5;"/>
   </g>
   <g id="line2d_17">
    <path clip-path="url(#pdc9981a03d)" d="M 161.509091 428.589375 
L 163.090788 428.589375 
L 163.316744 431.204836 
L 164.898441 431.204836 
L 165.124398 433.697359 
L 166.706094 433.697359 
L 166.932051 436.072724 
L 168.513748 436.072724 
L 168.739704 438.336437 
L 170.321401 438.336437 
L 170.547358 440.493746 
L 172.129054 440.493746 
L 172.355011 442.549654 
L 173.936708 442.549654 
L 174.162665 444.508925 
L 175.744361 444.508925 
L 175.970318 446.376103 
L 177.552015 446.376103 
L 177.777971 448.155516 
L 179.359668 448.155516 
L 179.585625 449.851289 
L 181.167321 449.851289 
L 181.393278 451.467355 
L 182.974975 451.467355 
L 183.200931 453.007458 
L 184.782628 453.007458 
L 185.008585 454.475171 
L 186.590281 454.475171 
L 186.816238 455.873896 
L 188.397935 455.873896 
L 188.623891 457.206874 
L 190.205588 457.206874 
L 190.431545 458.477198 
L 192.013242 458.477198 
L 192.239198 459.687811 
L 193.820895 459.687811 
L 194.046852 460.84152 
L 195.628548 460.84152 
L 195.854505 461.941 
L 197.436202 461.941 
L 197.662158 462.988801 
L 199.243855 462.988801 
L 199.469812 463.987351 
L 201.051508 463.987351 
L 201.277465 464.938964 
L 202.859162 464.938964 
L 203.085118 465.845848 
L 204.666815 465.845848 
L 204.892772 466.710105 
L 206.474469 466.710105 
L 206.700425 467.533739 
L 208.282122 467.533739 
L 208.508079 468.318658 
L 210.089775 468.318658 
L 210.315732 469.066683 
L 211.897429 469.066683 
L 212.123385 469.779548 
L 213.705082 469.779548 
L 213.931039 470.458905 
L 215.512735 470.458905 
L 215.738692 471.10633 
L 217.320389 471.10633 
L 217.546345 471.723323 
L 219.128042 471.723323 
L 219.353999 472.311315 
L 220.935695 472.311315 
L 221.161652 472.87167 
L 222.743349 472.87167 
L 222.969306 473.405685 
L 224.551002 473.405685 
L 224.776959 473.914599 
L 226.358656 473.914599 
L 226.584612 474.399593 
L 228.166309 474.399593 
L 228.392266 474.861789 
L 229.973962 474.861789 
L 230.199919 475.302261 
L 231.781616 475.302261 
L 232.007572 475.722029 
L 233.589269 475.722029 
L 233.815226 476.122066 
L 235.396922 476.122066 
L 235.622879 476.503299 
L 237.204576 476.503299 
L 237.430532 476.866613 
L 239.012229 476.866613 
L 239.238186 477.21285 
L 240.819883 477.21285 
L 241.045839 477.542812 
L 242.627536 477.542812 
L 242.853493 477.857265 
L 244.435189 477.857265 
L 244.661146 478.156937 
L 246.242843 478.156937 
L 246.468799 478.442524 
L 248.050496 478.442524 
L 248.276453 478.714687 
L 249.858149 478.714687 
L 250.084106 478.974057 
L 251.665803 478.974057 
L 251.891759 479.221235 
L 253.473456 479.221235 
L 253.699413 479.456795 
L 255.28111 479.456795 
L 255.507066 479.681283 
L 257.088763 479.681283 
L 257.31472 479.895219 
L 258.896416 479.895219 
L 259.122373 480.0991 
L 260.70407 480.0991 
L 260.930026 480.293397 
L 262.511723 480.293397 
L 262.73768 480.478561 
L 264.319376 480.478561 
L 264.545333 480.655022 
L 266.12703 480.655022 
L 266.352986 480.823188 
L 267.934683 480.823188 
L 268.16064 480.98345 
L 269.742337 480.98345 
L 269.968293 481.136179 
L 271.54999 481.136179 
L 271.775947 481.28173 
L 273.357643 481.28173 
L 273.5836 481.420438 
L 275.165297 481.420438 
L 275.391253 481.552627 
L 276.97295 481.552627 
L 277.424863 481.678603 
L 278.780603 481.678603 
L 279.232517 481.798657 
L 280.588257 481.798657 
L 281.04017 481.913068 
L 284.203563 482.022101 
L 284.655477 482.126009 
L 287.81887 482.225034 
L 288.270784 482.319403 
L 291.434177 482.409337 
L 291.88609 482.495044 
L 295.049484 482.576722 
L 295.501397 482.654561 
L 298.66479 482.728741 
L 299.116704 482.799434 
L 302.280097 482.866805 
L 302.732011 482.931009 
L 305.895404 482.992195 
L 306.347317 483.050505 
L 311.318364 483.159031 
L 311.996234 483.209499 
L 316.741324 483.30343 
L 317.419194 483.347111 
L 322.164284 483.428409 
L 322.842154 483.466215 
L 329.394898 483.569302 
L 330.298724 483.600485 
L 338.433165 483.711235 
L 339.562948 483.735748 
L 349.279085 483.842072 
L 350.860782 483.860434 
L 363.740312 483.966947 
L 365.999879 483.991345 
L 389.047459 484.097271 
L 393.566592 484.115489 
L 504.737275 484.22651 
L 594.893987 484.232167 
L 871.690909 484.232727 
L 871.690909 484.232727 
" style="fill:none;stroke:#bfbbd9;stroke-linecap:square;stroke-width:1.5;"/>
   </g>
   <g id="patch_3">
    <path d="M 126 504 
L 126 69.12 
" style="fill:none;stroke:#ffffff;stroke-linecap:square;stroke-linejoin:miter;stroke-width:0.8;"/>
   </g>
   <g id="patch_4">
    <path d="M 907.2 504 
L 907.2 69.12 
" style="fill:none;stroke:#ffffff;stroke-linecap:square;stroke-linejoin:miter;stroke-width:0.8;"/>
   </g>
   <g id="patch_5">
    <path d="M 126 504 
L 907.2 504 
" style="fill:none;stroke:#ffffff;stroke-linecap:square;stroke-linejoin:miter;stroke-width:0.8;"/>
   </g>
   <g id="patch_6">
    <path d="M 126 69.12 
L 907.2 69.12 
" style="fill:none;stroke:#ffffff;stroke-linecap:square;stroke-linejoin:miter;stroke-width:0.8;"/>
   </g>
   <g id="text_16">
    <!-- instance 1 with error 0.0 -->
    <g style="fill:#ffffff;" transform="translate(442.944375 63.12)scale(0.12 -0.12)">
     <defs>
      <path d="M 2834 3397 
L 2834 2853 
Q 2591 2978 2328 3040 
Q 2066 3103 1784 3103 
Q 1356 3103 1142 2972 
Q 928 2841 928 2578 
Q 928 2378 1081 2264 
Q 1234 2150 1697 2047 
L 1894 2003 
Q 2506 1872 2764 1633 
Q 3022 1394 3022 966 
Q 3022 478 2636 193 
Q 2250 -91 1575 -91 
Q 1294 -91 989 -36 
Q 684 19 347 128 
L 347 722 
Q 666 556 975 473 
Q 1284 391 1588 391 
Q 1994 391 2212 530 
Q 2431 669 2431 922 
Q 2431 1156 2273 1281 
Q 2116 1406 1581 1522 
L 1381 1569 
Q 847 1681 609 1914 
Q 372 2147 372 2553 
Q 372 3047 722 3315 
Q 1072 3584 1716 3584 
Q 2034 3584 2315 3537 
Q 2597 3491 2834 3397 
z
" id="DejaVuSans-73" transform="scale(0.015625)"/>
      <path d="M 3122 3366 
L 3122 2828 
Q 2878 2963 2633 3030 
Q 2388 3097 2138 3097 
Q 1578 3097 1268 2742 
Q 959 2388 959 1747 
Q 959 1106 1268 751 
Q 1578 397 2138 397 
Q 2388 397 2633 464 
Q 2878 531 3122 666 
L 3122 134 
Q 2881 22 2623 -34 
Q 2366 -91 2075 -91 
Q 1284 -91 818 406 
Q 353 903 353 1747 
Q 353 2603 823 3093 
Q 1294 3584 2113 3584 
Q 2378 3584 2631 3529 
Q 2884 3475 3122 3366 
z
" id="DejaVuSans-63" transform="scale(0.015625)"/>
      <path id="DejaVuSans-20" transform="scale(0.015625)"/>
      <path d="M 269 3500 
L 844 3500 
L 1563 769 
L 2278 3500 
L 2956 3500 
L 3675 769 
L 4391 3500 
L 4966 3500 
L 4050 0 
L 3372 0 
L 2619 2869 
L 1863 0 
L 1184 0 
L 269 3500 
z
" id="DejaVuSans-77" transform="scale(0.015625)"/>
      <path d="M 3513 2113 
L 3513 0 
L 2938 0 
L 2938 2094 
Q 2938 2591 2744 2837 
Q 2550 3084 2163 3084 
Q 1697 3084 1428 2787 
Q 1159 2491 1159 1978 
L 1159 0 
L 581 0 
L 581 4863 
L 1159 4863 
L 1159 2956 
Q 1366 3272 1645 3428 
Q 1925 3584 2291 3584 
Q 2894 3584 3203 3211 
Q 3513 2838 3513 2113 
z
" id="DejaVuSans-68" transform="scale(0.015625)"/>
      <path d="M 684 794 
L 1344 794 
L 1344 0 
L 684 0 
L 684 794 
z
" id="DejaVuSans-2e" transform="scale(0.015625)"/>
     </defs>
     <use xlink:href="#DejaVuSans-69"/>
     <use x="27.783203" xlink:href="#DejaVuSans-6e"/>
     <use x="91.162109" xlink:href="#DejaVuSans-73"/>
     <use x="143.261719" xlink:href="#DejaVuSans-74"/>
     <use x="182.470703" xlink:href="#DejaVuSans-61"/>
     <use x="243.75" xlink:href="#DejaVuSans-6e"/>
     <use x="307.128906" xlink:href="#DejaVuSans-63"/>
     <use x="362.109375" xlink:href="#DejaVuSans-65"/>
     <use x="423.632812" xlink:href="#DejaVuSans-20"/>
     <use x="455.419922" xlink:href="#DejaVuSans-31"/>
     <use x="519.042969" xlink:href="#DejaVuSans-20"/>
     <use x="550.830078" xlink:href="#DejaVuSans-77"/>
     <use x="632.617188" xlink:href="#DejaVuSans-69"/>
     <use x="660.400391" xlink:href="#DejaVuSans-74"/>
     <use x="699.609375" xlink:href="#DejaVuSans-68"/>
     <use x="762.988281" xlink:href="#DejaVuSans-20"/>
     <use x="794.775391" xlink:href="#DejaVuSans-65"/>
     <use x="856.298828" xlink:href="#DejaVuSans-72"/>
     <use x="895.662109" xlink:href="#DejaVuSans-72"/>
     <use x="934.525391" xlink:href="#DejaVuSans-6f"/>
     <use x="995.707031" xlink:href="#DejaVuSans-72"/>
     <use x="1036.820312" xlink:href="#DejaVuSans-20"/>
     <use x="1068.607422" xlink:href="#DejaVuSans-30"/>
     <use x="1132.230469" xlink:href="#DejaVuSans-2e"/>
     <use x="1164.017578" xlink:href="#DejaVuSans-30"/>
    </g>
   </g>
   <g id="legend_1">
    <g id="patch_7">
     <path d="M 805.348438 499 
L 900.2 499 
Q 902.2 499 902.2 497 
L 902.2 453.965625 
Q 902.2 451.965625 900.2 451.965625 
L 805.348438 451.965625 
Q 803.348438 451.965625 803.348438 453.965625 
L 803.348438 497 
Q 803.348438 499 805.348438 499 
z
" style="opacity:0.8;stroke:#cccccc;stroke-linejoin:miter;"/>
    </g>
    <g id="line2d_18">
     <path d="M 807.348438 460.064062 
L 827.348438 460.064062 
" style="fill:none;stroke:#8dd3c7;stroke-linecap:square;stroke-width:1.5;"/>
    </g>
    <g id="line2d_19"/>
    <g id="text_17">
     <!-- cost -->
     <g style="fill:#ffffff;" transform="translate(835.348438 463.564062)scale(0.1 -0.1)">
      <use xlink:href="#DejaVuSans-63"/>
      <use x="54.980469" xlink:href="#DejaVuSans-6f"/>
      <use x="116.162109" xlink:href="#DejaVuSans-73"/>
      <use x="168.261719" xlink:href="#DejaVuSans-74"/>
     </g>
    </g>
    <g id="line2d_20">
     <path d="M 807.348438 474.742188 
L 827.348438 474.742188 
" style="fill:none;stroke:#feffb3;stroke-linecap:square;stroke-width:1.5;"/>
    </g>
    <g id="line2d_21"/>
    <g id="text_18">
     <!-- best cost -->
     <g style="fill:#ffffff;" transform="translate(835.348438 478.242188)scale(0.1 -0.1)">
      <defs>
       <path d="M 3116 1747 
Q 3116 2381 2855 2742 
Q 2594 3103 2138 3103 
Q 1681 3103 1420 2742 
Q 1159 2381 1159 1747 
Q 1159 1113 1420 752 
Q 1681 391 2138 391 
Q 2594 391 2855 752 
Q 3116 1113 3116 1747 
z
M 1159 2969 
Q 1341 3281 1617 3432 
Q 1894 3584 2278 3584 
Q 2916 3584 3314 3078 
Q 3713 2572 3713 1747 
Q 3713 922 3314 415 
Q 2916 -91 2278 -91 
Q 1894 -91 1617 61 
Q 1341 213 1159 525 
L 1159 0 
L 581 0 
L 581 4863 
L 1159 4863 
L 1159 2969 
z
" id="DejaVuSans-62" transform="scale(0.015625)"/>
      </defs>
      <use xlink:href="#DejaVuSans-62"/>
      <use x="63.476562" xlink:href="#DejaVuSans-65"/>
      <use x="125" xlink:href="#DejaVuSans-73"/>
      <use x="177.099609" xlink:href="#DejaVuSans-74"/>
      <use x="216.308594" xlink:href="#DejaVuSans-20"/>
      <use x="248.095703" xlink:href="#DejaVuSans-63"/>
      <use x="303.076172" xlink:href="#DejaVuSans-6f"/>
      <use x="364.257812" xlink:href="#DejaVuSans-73"/>
      <use x="416.357422" xlink:href="#DejaVuSans-74"/>
     </g>
    </g>
    <g id="line2d_22">
     <path d="M 807.348438 489.420313 
L 827.348438 489.420313 
" style="fill:none;stroke:#bfbbd9;stroke-linecap:square;stroke-width:1.5;"/>
    </g>
    <g id="line2d_23"/>
    <g id="text_19">
     <!-- temperature -->
     <g style="fill:#ffffff;" transform="translate(835.348438 492.920313)scale(0.1 -0.1)">
      <defs>
       <path d="M 3328 2828 
Q 3544 3216 3844 3400 
Q 4144 3584 4550 3584 
Q 5097 3584 5394 3201 
Q 5691 2819 5691 2113 
L 5691 0 
L 5113 0 
L 5113 2094 
Q 5113 2597 4934 2840 
Q 4756 3084 4391 3084 
Q 3944 3084 3684 2787 
Q 3425 2491 3425 1978 
L 3425 0 
L 2847 0 
L 2847 2094 
Q 2847 2600 2669 2842 
Q 2491 3084 2119 3084 
Q 1678 3084 1418 2786 
Q 1159 2488 1159 1978 
L 1159 0 
L 581 0 
L 581 3500 
L 1159 3500 
L 1159 2956 
Q 1356 3278 1631 3431 
Q 1906 3584 2284 3584 
Q 2666 3584 2933 3390 
Q 3200 3197 3328 2828 
z
" id="DejaVuSans-6d" transform="scale(0.015625)"/>
       <path d="M 1159 525 
L 1159 -1331 
L 581 -1331 
L 581 3500 
L 1159 3500 
L 1159 2969 
Q 1341 3281 1617 3432 
Q 1894 3584 2278 3584 
Q 2916 3584 3314 3078 
Q 3713 2572 3713 1747 
Q 3713 922 3314 415 
Q 2916 -91 2278 -91 
Q 1894 -91 1617 61 
Q 1341 213 1159 525 
z
M 3116 1747 
Q 3116 2381 2855 2742 
Q 2594 3103 2138 3103 
Q 1681 3103 1420 2742 
Q 1159 2381 1159 1747 
Q 1159 1113 1420 752 
Q 1681 391 2138 391 
Q 2594 391 2855 752 
Q 3116 1113 3116 1747 
z
" id="DejaVuSans-70" transform="scale(0.015625)"/>
       <path d="M 544 1381 
L 544 3500 
L 1119 3500 
L 1119 1403 
Q 1119 906 1312 657 
Q 1506 409 1894 409 
Q 2359 409 2629 706 
Q 2900 1003 2900 1516 
L 2900 3500 
L 3475 3500 
L 3475 0 
L 2900 0 
L 2900 538 
Q 2691 219 2414 64 
Q 2138 -91 1772 -91 
Q 1169 -91 856 284 
Q 544 659 544 1381 
z
M 1991 3584 
L 1991 3584 
z
" id="DejaVuSans-75" transform="scale(0.015625)"/>
      </defs>
      <use xlink:href="#DejaVuSans-74"/>
      <use x="39.208984" xlink:href="#DejaVuSans-65"/>
      <use x="100.732422" xlink:href="#DejaVuSans-6d"/>
      <use x="198.144531" xlink:href="#DejaVuSans-70"/>
      <use x="261.621094" xlink:href="#DejaVuSans-65"/>
      <use x="323.144531" xlink:href="#DejaVuSans-72"/>
      <use x="364.257812" xlink:href="#DejaVuSans-61"/>
      <use x="425.537109" xlink:href="#DejaVuSans-74"/>
      <use x="464.746094" xlink:href="#DejaVuSans-75"/>
      <use x="528.125" xlink:href="#DejaVuSans-72"/>
      <use x="566.988281" xlink:href="#DejaVuSans-65"/>
     </g>
    </g>
   </g>
  </g>
 </g>
 <defs>
  <clipPath id="pdc9981a03d">
   <rect height="434.88" width="781.2" x="126" y="69.12"/>
  </clipPath>
 </defs>
</svg>
