<?xml version="1.0" encoding="utf-8" standalone="no"?>
<!DOCTYPE svg PUBLIC "-//W3C//DTD SVG 1.1//EN"
  "http://www.w3.org/Graphics/SVG/1.1/DTD/svg11.dtd">
<svg height="576pt" version="1.1" viewBox="0 0 1008 576" width="1008pt" xmlns="http://www.w3.org/2000/svg" xmlns:xlink="http://www.w3.org/1999/xlink">
 <metadata>
  <rdf:RDF xmlns:cc="http://creativecommons.org/ns#" xmlns:dc="http://purl.org/dc/elements/1.1/" xmlns:rdf="http://www.w3.org/1999/02/22-rdf-syntax-ns#">
   <cc:Work>
    <dc:type rdf:resource="http://purl.org/dc/dcmitype/StillImage"/>
    <dc:date>2022-01-13T19:11:14.506463</dc:date>
    <dc:format>image/svg+xml</dc:format>
    <dc:creator>
     <cc:Agent>
      <dc:title>Matplotlib v3.4.3, https://matplotlib.org/</dc:title>
     </cc:Agent>
    </dc:creator>
   </cc:Work>
  </rdf:RDF>
 </metadata>
 <defs>
  <style type="text/css">*{stroke-linecap:butt;stroke-linejoin:round;}</style>
 </defs>
 <g id="figure_1">
  <g id="patch_1">
   <path d="M 0 576 
L 1008 576 
L 1008 0 
L 0 0 
z
"/>
  </g>
  <g id="axes_1">
   <g id="patch_2">
    <path d="M 126 504 
L 907.2 504 
L 907.2 69.12 
L 126 69.12 
z
"/>
   </g>
   <g id="matplotlib.axis_1">
    <g id="xtick_1">
     <g id="line2d_1">
      <defs>
       <path d="M 0 0 
L 0 3.5 
" id="ma04092ad5d" style="stroke:#ffffff;stroke-width:0.8;"/>
      </defs>
      <g>
       <use style="fill:#ffffff;stroke:#ffffff;stroke-width:0.8;" x="161.509091" xlink:href="#ma04092ad5d" y="504"/>
      </g>
     </g>
     <g id="text_1">
      <!-- 0 -->
      <g style="fill:#ffffff;" transform="translate(158.327841 518.598438)scale(0.1 -0.1)">
       <defs>
        <path d="M 2034 4250 
Q 1547 4250 1301 3770 
Q 1056 3291 1056 2328 
Q 1056 1369 1301 889 
Q 1547 409 2034 409 
Q 2525 409 2770 889 
Q 3016 1369 3016 2328 
Q 3016 3291 2770 3770 
Q 2525 4250 2034 4250 
z
M 2034 4750 
Q 2819 4750 3233 4129 
Q 3647 3509 3647 2328 
Q 3647 1150 3233 529 
Q 2819 -91 2034 -91 
Q 1250 -91 836 529 
Q 422 1150 422 2328 
Q 422 3509 836 4129 
Q 1250 4750 2034 4750 
z
" id="DejaVuSans-30" transform="scale(0.015625)"/>
       </defs>
       <use xlink:href="#DejaVuSans-30"/>
      </g>
     </g>
    </g>
    <g id="xtick_2">
     <g id="line2d_2">
      <g>
       <use style="fill:#ffffff;stroke:#ffffff;stroke-width:0.8;" x="291.841596" xlink:href="#ma04092ad5d" y="504"/>
      </g>
     </g>
     <g id="text_2">
      <!-- 1000 -->
      <g style="fill:#ffffff;" transform="translate(279.116596 518.598438)scale(0.1 -0.1)">
       <defs>
        <path d="M 794 531 
L 1825 531 
L 1825 4091 
L 703 3866 
L 703 4441 
L 1819 4666 
L 2450 4666 
L 2450 531 
L 3481 531 
L 3481 0 
L 794 0 
L 794 531 
z
" id="DejaVuSans-31" transform="scale(0.015625)"/>
       </defs>
       <use xlink:href="#DejaVuSans-31"/>
       <use x="63.623047" xlink:href="#DejaVuSans-30"/>
       <use x="127.246094" xlink:href="#DejaVuSans-30"/>
       <use x="190.869141" xlink:href="#DejaVuSans-30"/>
      </g>
     </g>
    </g>
    <g id="xtick_3">
     <g id="line2d_3">
      <g>
       <use style="fill:#ffffff;stroke:#ffffff;stroke-width:0.8;" x="422.1741" xlink:href="#ma04092ad5d" y="504"/>
      </g>
     </g>
     <g id="text_3">
      <!-- 2000 -->
      <g style="fill:#ffffff;" transform="translate(409.4491 518.598438)scale(0.1 -0.1)">
       <defs>
        <path d="M 1228 531 
L 3431 531 
L 3431 0 
L 469 0 
L 469 531 
Q 828 903 1448 1529 
Q 2069 2156 2228 2338 
Q 2531 2678 2651 2914 
Q 2772 3150 2772 3378 
Q 2772 3750 2511 3984 
Q 2250 4219 1831 4219 
Q 1534 4219 1204 4116 
Q 875 4013 500 3803 
L 500 4441 
Q 881 4594 1212 4672 
Q 1544 4750 1819 4750 
Q 2544 4750 2975 4387 
Q 3406 4025 3406 3419 
Q 3406 3131 3298 2873 
Q 3191 2616 2906 2266 
Q 2828 2175 2409 1742 
Q 1991 1309 1228 531 
z
" id="DejaVuSans-32" transform="scale(0.015625)"/>
       </defs>
       <use xlink:href="#DejaVuSans-32"/>
       <use x="63.623047" xlink:href="#DejaVuSans-30"/>
       <use x="127.246094" xlink:href="#DejaVuSans-30"/>
       <use x="190.869141" xlink:href="#DejaVuSans-30"/>
      </g>
     </g>
    </g>
    <g id="xtick_4">
     <g id="line2d_4">
      <g>
       <use style="fill:#ffffff;stroke:#ffffff;stroke-width:0.8;" x="552.506605" xlink:href="#ma04092ad5d" y="504"/>
      </g>
     </g>
     <g id="text_4">
      <!-- 3000 -->
      <g style="fill:#ffffff;" transform="translate(539.781605 518.598438)scale(0.1 -0.1)">
       <defs>
        <path d="M 2597 2516 
Q 3050 2419 3304 2112 
Q 3559 1806 3559 1356 
Q 3559 666 3084 287 
Q 2609 -91 1734 -91 
Q 1441 -91 1130 -33 
Q 819 25 488 141 
L 488 750 
Q 750 597 1062 519 
Q 1375 441 1716 441 
Q 2309 441 2620 675 
Q 2931 909 2931 1356 
Q 2931 1769 2642 2001 
Q 2353 2234 1838 2234 
L 1294 2234 
L 1294 2753 
L 1863 2753 
Q 2328 2753 2575 2939 
Q 2822 3125 2822 3475 
Q 2822 3834 2567 4026 
Q 2313 4219 1838 4219 
Q 1578 4219 1281 4162 
Q 984 4106 628 3988 
L 628 4550 
Q 988 4650 1302 4700 
Q 1616 4750 1894 4750 
Q 2613 4750 3031 4423 
Q 3450 4097 3450 3541 
Q 3450 3153 3228 2886 
Q 3006 2619 2597 2516 
z
" id="DejaVuSans-33" transform="scale(0.015625)"/>
       </defs>
       <use xlink:href="#DejaVuSans-33"/>
       <use x="63.623047" xlink:href="#DejaVuSans-30"/>
       <use x="127.246094" xlink:href="#DejaVuSans-30"/>
       <use x="190.869141" xlink:href="#DejaVuSans-30"/>
      </g>
     </g>
    </g>
    <g id="xtick_5">
     <g id="line2d_5">
      <g>
       <use style="fill:#ffffff;stroke:#ffffff;stroke-width:0.8;" x="682.83911" xlink:href="#ma04092ad5d" y="504"/>
      </g>
     </g>
     <g id="text_5">
      <!-- 4000 -->
      <g style="fill:#ffffff;" transform="translate(670.11411 518.598438)scale(0.1 -0.1)">
       <defs>
        <path d="M 2419 4116 
L 825 1625 
L 2419 1625 
L 2419 4116 
z
M 2253 4666 
L 3047 4666 
L 3047 1625 
L 3713 1625 
L 3713 1100 
L 3047 1100 
L 3047 0 
L 2419 0 
L 2419 1100 
L 313 1100 
L 313 1709 
L 2253 4666 
z
" id="DejaVuSans-34" transform="scale(0.015625)"/>
       </defs>
       <use xlink:href="#DejaVuSans-34"/>
       <use x="63.623047" xlink:href="#DejaVuSans-30"/>
       <use x="127.246094" xlink:href="#DejaVuSans-30"/>
       <use x="190.869141" xlink:href="#DejaVuSans-30"/>
      </g>
     </g>
    </g>
    <g id="xtick_6">
     <g id="line2d_6">
      <g>
       <use style="fill:#ffffff;stroke:#ffffff;stroke-width:0.8;" x="813.171614" xlink:href="#ma04092ad5d" y="504"/>
      </g>
     </g>
     <g id="text_6">
      <!-- 5000 -->
      <g style="fill:#ffffff;" transform="translate(800.446614 518.598438)scale(0.1 -0.1)">
       <defs>
        <path d="M 691 4666 
L 3169 4666 
L 3169 4134 
L 1269 4134 
L 1269 2991 
Q 1406 3038 1543 3061 
Q 1681 3084 1819 3084 
Q 2600 3084 3056 2656 
Q 3513 2228 3513 1497 
Q 3513 744 3044 326 
Q 2575 -91 1722 -91 
Q 1428 -91 1123 -41 
Q 819 9 494 109 
L 494 744 
Q 775 591 1075 516 
Q 1375 441 1709 441 
Q 2250 441 2565 725 
Q 2881 1009 2881 1497 
Q 2881 1984 2565 2268 
Q 2250 2553 1709 2553 
Q 1456 2553 1204 2497 
Q 953 2441 691 2322 
L 691 4666 
z
" id="DejaVuSans-35" transform="scale(0.015625)"/>
       </defs>
       <use xlink:href="#DejaVuSans-35"/>
       <use x="63.623047" xlink:href="#DejaVuSans-30"/>
       <use x="127.246094" xlink:href="#DejaVuSans-30"/>
       <use x="190.869141" xlink:href="#DejaVuSans-30"/>
      </g>
     </g>
    </g>
    <g id="text_7">
     <!-- iteration -->
     <g style="fill:#ffffff;" transform="translate(495.477344 532.276562)scale(0.1 -0.1)">
      <defs>
       <path d="M 603 3500 
L 1178 3500 
L 1178 0 
L 603 0 
L 603 3500 
z
M 603 4863 
L 1178 4863 
L 1178 4134 
L 603 4134 
L 603 4863 
z
" id="DejaVuSans-69" transform="scale(0.015625)"/>
       <path d="M 1172 4494 
L 1172 3500 
L 2356 3500 
L 2356 3053 
L 1172 3053 
L 1172 1153 
Q 1172 725 1289 603 
Q 1406 481 1766 481 
L 2356 481 
L 2356 0 
L 1766 0 
Q 1100 0 847 248 
Q 594 497 594 1153 
L 594 3053 
L 172 3053 
L 172 3500 
L 594 3500 
L 594 4494 
L 1172 4494 
z
" id="DejaVuSans-74" transform="scale(0.015625)"/>
       <path d="M 3597 1894 
L 3597 1613 
L 953 1613 
Q 991 1019 1311 708 
Q 1631 397 2203 397 
Q 2534 397 2845 478 
Q 3156 559 3463 722 
L 3463 178 
Q 3153 47 2828 -22 
Q 2503 -91 2169 -91 
Q 1331 -91 842 396 
Q 353 884 353 1716 
Q 353 2575 817 3079 
Q 1281 3584 2069 3584 
Q 2775 3584 3186 3129 
Q 3597 2675 3597 1894 
z
M 3022 2063 
Q 3016 2534 2758 2815 
Q 2500 3097 2075 3097 
Q 1594 3097 1305 2825 
Q 1016 2553 972 2059 
L 3022 2063 
z
" id="DejaVuSans-65" transform="scale(0.015625)"/>
       <path d="M 2631 2963 
Q 2534 3019 2420 3045 
Q 2306 3072 2169 3072 
Q 1681 3072 1420 2755 
Q 1159 2438 1159 1844 
L 1159 0 
L 581 0 
L 581 3500 
L 1159 3500 
L 1159 2956 
Q 1341 3275 1631 3429 
Q 1922 3584 2338 3584 
Q 2397 3584 2469 3576 
Q 2541 3569 2628 3553 
L 2631 2963 
z
" id="DejaVuSans-72" transform="scale(0.015625)"/>
       <path d="M 2194 1759 
Q 1497 1759 1228 1600 
Q 959 1441 959 1056 
Q 959 750 1161 570 
Q 1363 391 1709 391 
Q 2188 391 2477 730 
Q 2766 1069 2766 1631 
L 2766 1759 
L 2194 1759 
z
M 3341 1997 
L 3341 0 
L 2766 0 
L 2766 531 
Q 2569 213 2275 61 
Q 1981 -91 1556 -91 
Q 1019 -91 701 211 
Q 384 513 384 1019 
Q 384 1609 779 1909 
Q 1175 2209 1959 2209 
L 2766 2209 
L 2766 2266 
Q 2766 2663 2505 2880 
Q 2244 3097 1772 3097 
Q 1472 3097 1187 3025 
Q 903 2953 641 2809 
L 641 3341 
Q 956 3463 1253 3523 
Q 1550 3584 1831 3584 
Q 2591 3584 2966 3190 
Q 3341 2797 3341 1997 
z
" id="DejaVuSans-61" transform="scale(0.015625)"/>
       <path d="M 1959 3097 
Q 1497 3097 1228 2736 
Q 959 2375 959 1747 
Q 959 1119 1226 758 
Q 1494 397 1959 397 
Q 2419 397 2687 759 
Q 2956 1122 2956 1747 
Q 2956 2369 2687 2733 
Q 2419 3097 1959 3097 
z
M 1959 3584 
Q 2709 3584 3137 3096 
Q 3566 2609 3566 1747 
Q 3566 888 3137 398 
Q 2709 -91 1959 -91 
Q 1206 -91 779 398 
Q 353 888 353 1747 
Q 353 2609 779 3096 
Q 1206 3584 1959 3584 
z
" id="DejaVuSans-6f" transform="scale(0.015625)"/>
       <path d="M 3513 2113 
L 3513 0 
L 2938 0 
L 2938 2094 
Q 2938 2591 2744 2837 
Q 2550 3084 2163 3084 
Q 1697 3084 1428 2787 
Q 1159 2491 1159 1978 
L 1159 0 
L 581 0 
L 581 3500 
L 1159 3500 
L 1159 2956 
Q 1366 3272 1645 3428 
Q 1925 3584 2291 3584 
Q 2894 3584 3203 3211 
Q 3513 2838 3513 2113 
z
" id="DejaVuSans-6e" transform="scale(0.015625)"/>
      </defs>
      <use xlink:href="#DejaVuSans-69"/>
      <use x="27.783203" xlink:href="#DejaVuSans-74"/>
      <use x="66.992188" xlink:href="#DejaVuSans-65"/>
      <use x="128.515625" xlink:href="#DejaVuSans-72"/>
      <use x="169.628906" xlink:href="#DejaVuSans-61"/>
      <use x="230.908203" xlink:href="#DejaVuSans-74"/>
      <use x="270.117188" xlink:href="#DejaVuSans-69"/>
      <use x="297.900391" xlink:href="#DejaVuSans-6f"/>
      <use x="359.082031" xlink:href="#DejaVuSans-6e"/>
     </g>
    </g>
   </g>
   <g id="matplotlib.axis_2">
    <g id="ytick_1">
     <g id="line2d_7">
      <defs>
       <path d="M 0 0 
L -3.5 0 
" id="m041e3d8b48" style="stroke:#ffffff;stroke-width:0.8;"/>
      </defs>
      <g>
       <use style="fill:#ffffff;stroke:#ffffff;stroke-width:0.8;" x="126" xlink:href="#m041e3d8b48" y="484.232727"/>
      </g>
     </g>
     <g id="text_8">
      <!-- 0 -->
      <g style="fill:#ffffff;" transform="translate(112.6375 488.031946)scale(0.1 -0.1)">
       <use xlink:href="#DejaVuSans-30"/>
      </g>
     </g>
    </g>
    <g id="ytick_2">
     <g id="line2d_8">
      <g>
       <use style="fill:#ffffff;stroke:#ffffff;stroke-width:0.8;" x="126" xlink:href="#m041e3d8b48" y="387.971355"/>
      </g>
     </g>
     <g id="text_9">
      <!-- 10000 -->
      <g style="fill:#ffffff;" transform="translate(87.1875 391.770574)scale(0.1 -0.1)">
       <use xlink:href="#DejaVuSans-31"/>
       <use x="63.623047" xlink:href="#DejaVuSans-30"/>
       <use x="127.246094" xlink:href="#DejaVuSans-30"/>
       <use x="190.869141" xlink:href="#DejaVuSans-30"/>
       <use x="254.492188" xlink:href="#DejaVuSans-30"/>
      </g>
     </g>
    </g>
    <g id="ytick_3">
     <g id="line2d_9">
      <g>
       <use style="fill:#ffffff;stroke:#ffffff;stroke-width:0.8;" x="126" xlink:href="#m041e3d8b48" y="291.709983"/>
      </g>
     </g>
     <g id="text_10">
      <!-- 20000 -->
      <g style="fill:#ffffff;" transform="translate(87.1875 295.509202)scale(0.1 -0.1)">
       <use xlink:href="#DejaVuSans-32"/>
       <use x="63.623047" xlink:href="#DejaVuSans-30"/>
       <use x="127.246094" xlink:href="#DejaVuSans-30"/>
       <use x="190.869141" xlink:href="#DejaVuSans-30"/>
       <use x="254.492188" xlink:href="#DejaVuSans-30"/>
      </g>
     </g>
    </g>
    <g id="ytick_4">
     <g id="line2d_10">
      <g>
       <use style="fill:#ffffff;stroke:#ffffff;stroke-width:0.8;" x="126" xlink:href="#m041e3d8b48" y="195.448611"/>
      </g>
     </g>
     <g id="text_11">
      <!-- 30000 -->
      <g style="fill:#ffffff;" transform="translate(87.1875 199.24783)scale(0.1 -0.1)">
       <use xlink:href="#DejaVuSans-33"/>
       <use x="63.623047" xlink:href="#DejaVuSans-30"/>
       <use x="127.246094" xlink:href="#DejaVuSans-30"/>
       <use x="190.869141" xlink:href="#DejaVuSans-30"/>
       <use x="254.492188" xlink:href="#DejaVuSans-30"/>
      </g>
     </g>
    </g>
    <g id="ytick_5">
     <g id="line2d_11">
      <g>
       <use style="fill:#ffffff;stroke:#ffffff;stroke-width:0.8;" x="126" xlink:href="#m041e3d8b48" y="99.18724"/>
      </g>
     </g>
     <g id="text_12">
      <!-- 40000 -->
      <g style="fill:#ffffff;" transform="translate(87.1875 102.986458)scale(0.1 -0.1)">
       <use xlink:href="#DejaVuSans-34"/>
       <use x="63.623047" xlink:href="#DejaVuSans-30"/>
       <use x="127.246094" xlink:href="#DejaVuSans-30"/>
       <use x="190.869141" xlink:href="#DejaVuSans-30"/>
       <use x="254.492188" xlink:href="#DejaVuSans-30"/>
      </g>
     </g>
    </g>
   </g>
   <g id="line2d_12">
    <path clip-path="url(#pe4f4dac7c7)" d="M 161.509091 191.915819 
L 162.030421 238.939499 
L 162.160753 232.701762 
L 162.421418 193.735159 
L 162.551751 210.734917 
L 162.682083 312.945242 
L 162.812416 306.707505 
L 162.942748 283.277487 
L 163.073081 288.292705 
L 163.203413 303.588637 
L 163.724743 232.93279 
L 163.855076 221.978246 
L 163.985408 231.065319 
L 164.246074 202.523822 
L 164.376406 199.337571 
L 164.506739 204.352788 
L 164.897736 251.867402 
L 165.028069 233.674002 
L 165.549399 297.22576 
L 165.679731 289.881017 
L 165.810064 309.672355 
L 165.940396 298.91996 
L 166.201061 320.068584 
L 166.461726 288.071304 
L 166.592059 306.264703 
L 166.722391 292.913251 
L 166.983056 328.019773 
L 167.504386 277.116759 
L 167.634719 281.05385 
L 167.895384 242.019863 
L 168.025716 247.035081 
L 168.156049 276.645079 
L 168.286381 279.83133 
L 168.416714 303.367236 
L 168.547046 300.180984 
L 168.677379 280.938336 
L 168.807711 297.216134 
L 168.938044 284.057204 
L 169.198709 308.199556 
L 169.589706 264.766425 
L 169.720039 284.577016 
L 169.850371 267.635014 
L 170.111036 294.790347 
L 170.241369 274.979757 
L 170.762699 310.55796 
L 170.893031 296.638566 
L 171.023364 316.449156 
L 171.153696 311.433939 
L 171.284029 289.409337 
L 171.414361 292.595588 
L 171.544694 279.244136 
L 171.935691 332.813589 
L 172.066024 331.533313 
L 172.457021 285.626265 
L 172.587354 279.388528 
L 172.717686 292.547457 
L 172.848019 285.857292 
L 173.239016 243.252009 
L 173.369349 238.515949 
L 173.760346 192.079463 
L 173.890679 215.509481 
L 174.021011 206.480165 
L 174.151344 222.757963 
L 174.281676 214.094439 
L 174.542341 227.494022 
L 174.803006 240.460429 
L 175.063671 212.005567 
L 175.194004 202.918494 
L 175.585001 261.397277 
L 175.715334 252.367961 
L 175.975999 277.848346 
L 176.106331 285.193089 
L 176.366996 243.569671 
L 176.757994 299.613042 
L 176.888326 314.726077 
L 177.018659 301.567148 
L 177.409656 328.241174 
L 177.800654 278.252644 
L 177.930987 296.446043 
L 178.061319 283.64328 
L 178.191652 292.306804 
L 178.582649 244.330136 
L 178.712982 230.526255 
L 178.843314 253.956273 
L 178.973647 238.843238 
L 179.103979 255.785239 
L 179.364644 217.011159 
L 179.755642 274.257797 
L 180.016307 266.056328 
L 180.276972 232.345595 
L 180.407304 255.775613 
L 180.537637 257.05589 
L 180.928634 291.228677 
L 181.189299 286.762149 
L 181.449964 261.455034 
L 181.710629 269.377345 
L 181.840962 288.619993 
L 182.231959 252.377587 
L 182.492624 226.348512 
L 182.622957 223.16226 
L 183.144287 276.115641 
L 183.274619 252.685623 
L 183.665617 297.755198 
L 183.795949 293.019138 
L 184.056614 256.834488 
L 184.186947 265.863805 
L 184.317279 255.101784 
L 184.447612 265.863805 
L 184.577944 246.072467 
L 184.708277 252.762632 
L 184.838609 247.747415 
L 184.968942 234.944652 
L 185.229607 262.080733 
L 185.359939 276.000128 
L 185.490272 272.063037 
L 185.620604 289.130179 
L 185.881269 256.516826 
L 186.011602 261.252885 
L 186.141934 274.055648 
L 186.402599 247.015828 
L 186.532932 269.04043 
L 186.663264 252.762632 
L 186.923929 285.16421 
L 187.054262 308.690489 
L 187.314927 268.19333 
L 187.445259 277.280404 
L 187.705924 305.176949 
L 187.836257 289.832887 
L 187.966589 305.176949 
L 188.096922 294.414928 
L 188.227254 312.608327 
L 188.618252 260.482794 
L 188.748584 271.244816 
L 188.878917 255.900753 
L 189.139582 272.996773 
L 189.269914 262.042229 
L 189.400247 277.386291 
L 189.660912 254.495337 
L 189.791244 247.805172 
L 189.921577 229.611772 
L 190.051909 236.301938 
L 190.442907 287.012428 
L 191.094569 355.271367 
L 191.224902 353.991091 
L 191.355234 346.646348 
L 191.615899 319.365876 
L 191.876565 351.988855 
L 192.006897 368.930856 
L 192.267562 354.231745 
L 192.397895 355.512021 
L 192.528227 372.579162 
L 192.788892 338.964691 
L 192.919225 333.949473 
L 193.310222 285.992058 
L 193.440555 294.655581 
L 193.70122 262.610171 
L 193.831552 282.420761 
L 193.961885 275.730596 
L 194.092217 262.379143 
L 194.22255 261.098867 
L 194.483215 287.349343 
L 194.613547 276.394799 
L 194.874212 299.661173 
L 195.395542 245.100227 
L 195.525875 240.08501 
L 195.656207 248.748533 
L 195.916872 230.661021 
L 196.177537 271.138928 
L 196.30787 274.32518 
L 196.568535 296.513426 
L 196.698867 283.354496 
L 196.8292 297.158377 
L 196.959532 288.494854 
L 197.480862 212.486874 
L 197.611195 217.502092 
L 197.741527 230.853544 
L 197.87186 212.660145 
L 198.002192 227.956077 
L 198.132525 222.940859 
L 198.262857 236.099789 
L 198.523522 213.266591 
L 198.653855 199.915139 
L 199.044852 235.127549 
L 199.305517 213.093321 
L 199.566182 227.994581 
L 199.696515 247.805172 
L 199.95718 218.031529 
L 200.087512 201.753731 
L 200.348177 236.051658 
L 200.47851 231.036441 
L 200.608842 211.22585 
L 200.869507 229.765791 
L 200.99984 293.914369 
L 201.130172 274.123031 
L 201.260505 282.786554 
L 201.52117 250.789274 
L 201.651502 266.085206 
L 202.0425 234.607738 
L 202.172832 218.32994 
L 202.303165 226.993463 
L 202.433497 213.074069 
L 202.694162 233.577741 
L 202.824495 228.562523 
L 202.954827 238.025016 
L 203.215492 266.970811 
L 203.345825 260.733074 
L 203.476157 266.970811 
L 203.736822 235.618482 
L 204.258152 300.806683 
L 204.388485 317.084481 
L 204.518817 206.595678 
L 204.909815 262.225125 
L 205.300812 280.168245 
L 205.431145 296.446043 
L 205.561478 274.421441 
L 205.69181 273.141165 
L 205.952475 240.624073 
L 206.21314 217.790876 
L 206.473805 245.475646 
L 206.604138 262.542788 
L 206.73447 257.52757 
L 206.864803 239.334171 
L 206.995135 246.678914 
L 207.125468 239.334171 
L 207.2558 215.798266 
L 207.516465 246.842558 
L 207.907463 216.298825 
L 208.037795 215.220697 
L 208.168128 206.557174 
L 208.428793 226.916454 
L 208.689458 196.815523 
L 208.81979 193.629272 
L 208.950123 215.653873 
L 209.080455 210.917814 
L 209.34112 234.184188 
L 209.471453 238.920247 
L 209.601785 215.384342 
L 209.732118 216.664618 
L 209.86245 225.328141 
L 209.992783 224.047865 
L 210.514113 270.455473 
L 210.644445 255.11141 
L 210.90511 293.88549 
L 211.035443 271.860889 
L 211.165775 276.876106 
L 211.296108 264.073344 
L 211.687105 297.466413 
L 211.817438 292.730354 
L 211.94777 305.533116 
L 212.078103 296.070624 
L 212.208435 300.806683 
L 212.4691 280.55329 
L 212.599433 273.208548 
L 212.860098 248.642646 
L 213.120763 291.989141 
L 213.381428 261.532043 
L 213.51176 262.81232 
L 213.642093 256.122154 
L 213.902758 230.073827 
L 214.03309 226.136737 
L 214.293755 247.718536 
L 214.424088 233.799142 
L 214.684753 270.070427 
L 214.815085 271.350703 
L 215.07575 239.295666 
L 215.336415 252.695249 
L 215.466748 243.665933 
L 215.59708 242.385656 
L 215.857745 281.034597 
L 216.11841 250.346472 
L 216.379075 264.025213 
L 216.509408 283.835803 
L 216.63974 275.17228 
L 216.770073 283.835803 
L 216.900405 307.265821 
L 217.030738 298.602298 
L 217.291403 331.379295 
L 217.552068 346.280555 
L 217.6824 327.037907 
L 217.812733 342.38197 
L 217.943065 335.037227 
L 218.073398 321.117833 
L 218.20373 337.395631 
L 218.334063 332.380413 
L 218.464395 346.299807 
L 218.594728 322.763902 
L 218.72506 342.00655 
L 218.985725 327.807998 
L 219.376723 354.655295 
L 219.767721 311.770853 
L 219.898053 291.979515 
L 220.028386 301.066589 
L 220.810381 215.884901 
L 221.071046 244.031726 
L 221.201378 228.918691 
L 221.462043 243.396401 
L 221.592376 232.441857 
L 221.722708 246.245737 
L 221.983373 227.311126 
L 222.113706 225.35702 
L 222.244038 242.424161 
L 222.374371 281.255998 
L 222.504703 274.565833 
L 222.765368 252.608614 
L 222.895701 258.846351 
L 223.156366 228.649159 
L 223.417031 257.912616 
L 223.547363 234.37671 
L 223.808028 246.082093 
L 224.068693 228.889812 
L 224.329358 196.700009 
L 224.590023 206.123998 
L 224.720356 225.934588 
L 224.850688 210.638656 
L 225.241686 242.260517 
L 225.372018 228.341122 
L 225.502351 295.339037 
L 225.763016 276.288912 
L 226.023681 303.328731 
L 226.154013 310.673474 
L 226.284346 213.006686 
L 226.545011 249.316475 
L 226.675343 229.505885 
L 226.805676 236.850628 
L 226.936008 217.059289 
L 227.196673 252.165812 
L 227.327006 245.475646 
L 227.587671 202.235038 
L 227.718003 197.498979 
L 227.848336 213.776777 
L 228.109001 197.239073 
L 228.499998 250.192454 
L 228.630331 237.389691 
L 228.890996 256.80561 
L 229.151661 250.510116 
L 229.412326 285.645517 
L 229.672991 261.272138 
L 229.803323 266.008197 
L 229.933656 275.037514 
L 230.194321 248.989187 
L 230.454986 264.756799 
L 230.585318 247.689658 
L 230.715651 271.215937 
L 230.845983 264.9782 
L 230.976316 251.17432 
L 231.106648 263.977082 
L 231.236981 240.450803 
L 231.627978 284.586642 
L 231.758311 265.343994 
L 231.888643 268.530245 
L 232.018976 277.617319 
L 232.149308 261.339521 
L 232.279641 270.802013 
L 232.409973 267.615762 
L 232.670638 249.52825 
L 232.931303 278.628063 
L 233.191969 240.036879 
L 233.322301 216.606861 
L 233.452634 220.543951 
L 233.582966 235.839883 
L 233.713299 225.077862 
L 233.843631 230.093079 
L 233.973964 225.077862 
L 234.234629 243.175 
L 234.364961 230.01607 
L 234.495294 253.446088 
L 234.625626 250.259837 
L 234.755959 273.786116 
L 234.886291 267.548379 
L 235.146956 282.815433 
L 235.277289 275.47069 
L 235.407621 282.160855 
L 235.668286 252.165812 
L 236.189616 321.868671 
L 236.450281 299.882574 
L 236.580614 309.345067 
L 236.710946 292.403065 
L 237.101944 337.511144 
L 237.232276 317.700554 
L 237.362609 322.715771 
L 237.492941 311.761227 
L 237.623274 319.10597 
L 237.883939 287.484109 
L 238.014271 302.780041 
L 238.144604 301.499765 
L 238.405269 276.01938 
L 238.535601 271.004162 
L 238.665934 276.01938 
L 238.926599 237.380065 
L 239.056931 246.043589 
L 239.187264 232.884659 
L 239.317596 239.122396 
L 239.708594 205.459794 
L 239.838926 218.618724 
L 239.969259 201.551582 
L 240.229924 227.609536 
L 240.360256 232.624753 
L 240.620921 199.83813 
L 240.881586 228.504767 
L 241.011919 247.747415 
L 241.142251 242.732197 
L 241.272584 249.422363 
L 241.402916 244.686303 
L 241.533249 249.701521 
L 241.663581 243.011355 
L 242.054579 198.413462 
L 242.315244 209.839687 
L 242.836574 263.967456 
L 242.966906 244.176118 
L 243.227571 273.131539 
L 243.357904 268.395479 
L 243.488236 257.633458 
L 243.618569 277.444048 
L 243.748901 271.206311 
L 244.270231 222.757963 
L 244.400564 227.77318 
L 244.661229 273.882377 
L 244.791561 264.795304 
L 244.921894 273.882377 
L 245.052226 257.604579 
L 245.443224 301.605652 
L 245.573556 306.62087 
L 245.703889 302.68378 
L 246.094886 250.057688 
L 246.225219 273.487706 
L 246.485884 234.607738 
L 246.876881 283.364123 
L 247.007214 288.37934 
L 247.137547 272.101542 
L 247.267879 275.287793 
L 247.398212 292.354935 
L 247.528544 289.168683 
L 247.789209 329.636964 
L 248.180207 293.914369 
L 248.310539 302.943686 
L 248.571204 272.178551 
L 248.701537 287.474483 
L 248.962202 258.528689 
L 249.092534 273.872751 
L 249.744197 207.83745 
L 250.135194 247.256482 
L 250.395859 218.984517 
L 250.526192 236.051658 
L 250.656524 219.109657 
L 250.786857 217.82938 
L 250.917189 221.766471 
L 251.047522 230.429994 
L 251.308187 265.613526 
L 251.568852 232.663258 
L 251.699184 241.692575 
L 251.829517 233.029051 
L 251.959849 209.599033 
L 252.090182 216.943776 
L 252.481179 181.452208 
L 252.611512 188.142373 
L 252.741844 204.420171 
L 252.872177 198.182434 
L 253.132842 245.148358 
L 253.393507 223.855342 
L 253.523839 237.774737 
L 253.784504 215.336211 
L 254.566499 293.615959 
L 254.696832 280.264506 
L 254.827164 287.609249 
L 255.087829 248.517506 
L 255.218162 251.703757 
L 255.869824 322.157455 
L 256.000157 313.128139 
L 256.130489 321.791662 
L 256.260822 318.605411 
L 256.521487 333.872464 
L 257.042817 291.007275 
L 257.303482 262.841198 
L 257.433814 258.904108 
L 257.564147 264.776052 
L 257.955144 301.03771 
L 258.085477 277.607692 
L 258.215809 294.549694 
L 258.476474 264.80493 
L 258.606807 263.524654 
L 258.867472 238.968378 
L 258.997804 219.17704 
L 259.128137 234.290075 
L 259.258469 219.17704 
L 259.388802 233.096434 
L 259.519134 213.285844 
L 259.649467 236.821749 
L 259.779799 238.102025 
L 260.040464 219.167414 
L 260.170797 210.138097 
L 260.301129 227.080098 
L 260.431462 210.138097 
L 260.561794 229.948687 
L 260.692127 226.762436 
L 261.083125 181.115293 
L 261.213457 191.867688 
L 261.34379 182.405196 
L 261.474122 187.420413 
L 261.604455 336.259746 
L 261.734787 349.611199 
L 261.995452 325.83464 
L 262.516782 271.668366 
L 262.777447 290.602978 
L 263.038112 262.456153 
L 263.298777 286.203833 
L 263.42911 282.266743 
L 263.689775 249.123952 
L 263.820107 257.787476 
L 263.95044 248.758159 
L 264.211105 270.56136 
L 264.341437 250.75077 
L 264.602102 294.078013 
L 264.732435 280.919084 
L 264.9931 293.88549 
L 265.123432 270.349585 
L 265.253765 271.629861 
L 265.384097 291.440452 
L 265.644762 283.518141 
L 266.03576 339.330484 
L 266.166092 350.082879 
L 266.426757 319.308119 
L 266.55709 332.110881 
L 266.687422 315.04374 
L 266.817755 321.281477 
L 267.07842 293.134652 
L 267.208752 291.854376 
L 267.469417 332.457422 
L 267.730082 302.462379 
L 267.860415 313.214774 
L 267.990747 304.1277 
L 268.251412 278.397036 
L 268.903075 317.065229 
L 269.033407 312.050011 
L 269.16374 298.246131 
L 269.294072 311.597583 
L 269.424405 306.582365 
L 269.68507 324.400345 
L 269.815402 329.415563 
L 269.945735 319.95307 
L 270.2064 284.798417 
L 270.336732 300.094349 
L 270.467065 276.56807 
L 270.597397 280.50516 
L 270.72773 260.713822 
L 270.858062 268.058564 
L 270.988395 249.865165 
L 271.118727 273.814994 
L 271.24906 269.078935 
L 271.379392 278.108252 
L 271.509725 276.827975 
L 271.77039 256.950002 
L 271.900722 274.017143 
L 272.031055 269.281084 
L 272.161387 289.072422 
L 272.29172 279.985348 
L 272.552385 298.525289 
L 272.682717 291.180546 
L 272.81305 302.13509 
L 272.943382 288.331209 
L 273.073715 308.1418 
L 273.33438 290.853257 
L 273.464712 294.790347 
L 273.725377 306.640122 
L 273.986042 279.917965 
L 274.116375 293.83736 
L 274.246707 278.724324 
L 274.507372 304.599381 
L 274.637705 284.788791 
L 274.768038 289.804008 
L 274.89837 285.866918 
L 275.159035 255.457951 
L 275.289368 259.395041 
L 275.4197 279.205631 
L 275.550033 265.286237 
L 275.680365 284.528885 
L 275.810698 283.248609 
L 275.94103 301.442008 
L 276.071363 298.255757 
L 276.332028 275.076018 
L 276.46236 290.37195 
L 276.723025 257.40243 
L 276.853358 277.213021 
L 276.98369 246.467139 
L 277.374688 270.349585 
L 277.635353 235.993901 
L 277.896018 266.547261 
L 278.417348 210.821553 
L 278.54768 312.858607 
L 278.678013 314.138883 
L 278.938678 281.737305 
L 279.06901 276.722088 
L 279.199343 261.426156 
L 279.460008 279.070865 
L 279.59034 283.007955 
L 279.720673 259.47205 
L 280.11167 293.307922 
L 280.242003 292.027646 
L 280.372335 315.457664 
L 280.763333 269.059683 
L 280.893665 272.245934 
L 281.023998 295.675952 
L 281.284663 268.02006 
L 281.414995 275.364802 
L 281.805993 246.31312 
L 282.066658 276.394799 
L 282.19699 272.457709 
L 282.587988 301.519017 
L 282.978985 258.085886 
L 283.109318 271.244816 
L 283.369983 248.719655 
L 283.630648 256.690096 
L 283.76098 245.928075 
L 283.891313 255.390568 
L 284.021645 250.654508 
L 284.28231 284.384493 
L 284.412643 270.465099 
L 284.542975 287.53224 
L 284.80364 259.260275 
L 285.064305 291.854376 
L 285.194638 268.424358 
L 285.585635 315.111123 
L 285.715968 313.830847 
L 285.976633 289.005039 
L 286.106965 282.314874 
L 286.36763 256.574583 
L 286.628295 279.783199 
L 286.758628 257.758598 
L 287.149625 309.739738 
L 287.279958 311.020015 
L 287.41029 287.493735 
L 287.540623 311.020015 
L 287.670955 309.739738 
L 287.801288 289.9484 
L 287.93162 233.731759 
L 288.061953 227.041594 
L 288.192285 235.705117 
L 288.322618 287.975042 
L 288.45295 289.255318 
L 288.583283 309.065909 
L 288.843948 278.849464 
L 288.974281 273.834247 
L 289.104613 280.524412 
L 289.234946 273.179669 
L 289.495611 243.406027 
L 289.625943 247.343117 
L 289.756276 256.006641 
L 289.886608 272.284439 
L 290.016941 254.091039 
L 290.277606 290.776248 
L 290.407938 308.969647 
L 290.538271 293.856612 
L 290.668603 313.64795 
L 290.798936 306.957785 
L 290.929268 291.661853 
L 291.189933 318.932699 
L 291.450598 291.969889 
L 291.580931 301.056963 
L 291.711263 222.623197 
L 291.841596 225.809448 
L 292.232593 265.757918 
L 292.362926 257.094394 
L 292.493258 240.816596 
L 292.623591 245.552656 
L 292.884256 232.586249 
L 293.014588 236.523339 
L 293.275253 211.976689 
L 293.405586 216.991907 
L 293.535918 215.71163 
L 293.796583 252.406465 
L 294.057248 273.757238 
L 294.317913 299.497528 
L 294.448246 294.482311 
L 294.708911 271.966776 
L 295.099908 312.569823 
L 295.230241 303.10733 
L 295.490906 270.647995 
L 295.751571 245.687422 
L 295.881903 260.800457 
L 296.012236 259.520181 
L 296.142568 245.600786 
L 296.272901 246.765549 
L 296.403233 231.768027 
L 296.533566 248.045825 
L 296.663898 239.382302 
L 296.794231 253.215061 
L 296.924563 235.021662 
L 297.054896 248.700402 
L 297.185228 237.948007 
L 297.315561 254.890009 
L 297.576226 240.941736 
L 297.706558 250.028809 
L 297.836891 251.309086 
L 298.097556 226.001971 
L 298.227888 224.721695 
L 298.358221 238.073147 
L 298.488553 224.269266 
L 298.618886 233.298583 
L 298.749218 219.947131 
L 298.879551 239.757721 
L 299.140216 290.612604 
L 299.270548 296.850341 
L 299.661546 246.284242 
L 299.791878 269.810521 
L 300.443541 206.961472 
L 300.573873 226.772062 
L 300.704206 206.980724 
L 300.834538 211.995941 
L 300.964871 204.651199 
L 301.095203 219.764234 
L 301.225536 206.961472 
L 301.355868 226.20412 
L 301.486201 221.188902 
L 301.746866 244.917331 
L 301.877198 229.804295 
L 302.137863 247.911059 
L 302.268196 246.630783 
L 302.398529 243.444532 
L 302.528861 256.247294 
L 302.789526 245.620039 
L 303.050191 277.241899 
L 303.180524 264.08297 
L 303.441189 285.46262 
L 303.701854 257.440935 
L 303.962519 281.766184 
L 304.092851 288.003921 
L 304.483849 245.389011 
L 304.614181 246.669288 
L 304.744514 263.611289 
L 304.874846 254.947765 
L 305.526509 332.938729 
L 305.656841 309.402824 
L 305.917506 333.179382 
L 306.047839 316.901584 
L 306.178171 327.856129 
L 306.308504 324.669877 
L 306.699501 274.142283 
L 306.960166 250.365724 
L 307.090499 237.562962 
L 307.481496 268.665011 
L 307.742161 291.931385 
L 307.872494 313.955987 
L 308.133159 273.487706 
L 308.263491 272.207429 
L 308.524156 234.886896 
L 308.654489 250.182828 
L 308.784821 251.463104 
L 308.915154 266.807167 
L 309.045486 256.872993 
L 309.436484 289.457467 
L 309.566816 265.931188 
L 309.697149 275.393681 
L 309.827481 271.456591 
L 309.957814 255.178793 
L 310.088146 268.982674 
L 310.218479 255.063279 
L 310.348811 278.589558 
L 310.479144 263.476523 
L 310.739809 297.206508 
L 311.000474 277.16489 
L 311.130806 281.10198 
L 311.261139 296.215016 
L 311.391471 293.028764 
L 311.652136 326.171555 
L 311.782469 197.508605 
L 312.043134 227.378509 
L 312.434131 283.778046 
L 312.564464 277.087881 
L 312.694796 263.928952 
L 313.085794 324.910531 
L 313.346459 294.145396 
L 313.476791 307.304326 
L 313.607124 302.289108 
L 313.867789 273.025651 
L 314.128454 281.977959 
L 314.389119 315.707943 
L 314.649784 299.333884 
L 314.780116 275.807605 
L 314.910449 295.598943 
L 315.431779 234.482598 
L 315.822776 276.231155 
L 316.344107 308.574976 
L 316.604772 281.718053 
L 316.735104 300.960701 
L 316.865437 299.680425 
L 316.995769 276.14452 
L 317.256434 321.695401 
L 317.386767 308.892638 
L 317.517099 321.695401 
L 317.647432 298.265383 
L 317.777764 307.727876 
L 318.038429 289.871391 
L 318.168762 280.842075 
L 318.299094 296.186137 
L 318.429427 283.383375 
L 318.690092 231.633261 
L 318.820424 248.575263 
L 319.211422 192.782171 
L 319.472087 225.674682 
L 319.602419 207.481283 
L 319.863084 234.521102 
L 319.993417 219.408067 
L 320.123749 230.362611 
L 320.254082 226.425521 
L 320.514747 257.816354 
L 320.645079 248.353862 
L 320.905744 201.387938 
L 321.036077 201.387938 
L 321.166409 200.897005 
L 321.296742 194.20684 
L 321.427074 213.998178 
L 321.557407 212.717902 
L 321.948404 247.217977 
L 322.209069 219.119283 
L 322.339402 228.206356 
L 322.469734 219.17704 
L 322.600067 226.521782 
L 322.730399 250.057688 
L 322.860732 245.04247 
L 322.991064 254.504963 
L 323.121397 243.550419 
L 323.382062 257.498692 
L 323.773059 221.381425 
L 323.903392 228.07159 
L 324.033724 223.335531 
L 324.164057 209.53165 
L 324.555054 252.098429 
L 324.815719 270.917527 
L 324.946052 264.67979 
L 325.076384 280.957588 
L 325.337049 272.756119 
L 325.467382 285.558882 
L 325.597714 278.868716 
L 325.728047 263.524654 
L 325.858379 287.050933 
L 325.988712 263.515028 
L 326.119044 285.53963 
L 326.249377 278.194887 
L 326.379709 284.885052 
L 326.640374 245.918449 
L 327.031372 276.115641 
L 327.161704 260.819709 
L 327.552702 300.402385 
L 327.813367 278.445166 
L 327.943699 273.709107 
L 328.204364 234.617364 
L 328.465029 266.614644 
L 328.725694 251.713383 
L 328.856027 228.283365 
L 328.986359 231.469617 
L 329.247024 259.731956 
L 329.638022 312.175151 
L 329.768354 303.145834 
L 329.898687 319.423632 
L 330.02902 315.486542 
L 330.159352 299.208744 
L 330.289685 312.011507 
L 330.420017 306.996289 
L 330.55035 293.192409 
L 330.680682 308.305444 
L 330.811015 305.119193 
L 331.07168 318.085599 
L 331.202012 294.549694 
L 331.332345 308.469088 
L 331.462677 295.310159 
L 331.59301 303.973682 
L 331.853675 264.881939 
L 331.984007 284.692529 
L 332.11434 270.773135 
L 332.244672 277.010872 
L 332.375005 275.730596 
L 332.896335 224.923844 
L 333.026667 223.643567 
L 333.157 200.107662 
L 333.287332 201.387938 
L 333.417665 221.179276 
L 333.547997 217.993025 
L 333.67833 202.697093 
L 333.808662 211.726409 
L 333.938995 233.751011 
L 334.19966 195.448611 
L 334.460325 235.666613 
L 334.72099 217.848633 
L 335.111987 263.149234 
L 335.372652 219.927878 
L 335.633317 239.969496 
L 335.76365 243.155747 
L 336.154647 188.893212 
L 336.415312 214.941539 
L 336.545645 196.74814 
L 336.675977 216.539478 
L 337.066975 176.56213 
L 337.197307 183.906873 
L 337.588305 236.513713 
L 337.718637 250.433107 
L 337.979302 223.354783 
L 338.109635 243.165374 
L 338.3703 287.859529 
L 338.630965 311.125902 
L 338.761297 314.312154 
L 338.89163 307.621988 
L 339.021962 314.312154 
L 339.282627 286.415608 
L 339.673625 325.064549 
L 339.803957 314.302527 
L 340.194955 351.112876 
L 340.585952 298.419401 
L 340.716285 287.667006 
L 340.97695 252.290952 
L 341.237615 275.846109 
L 341.49828 254.31244 
L 342.01961 321.887924 
L 342.149942 335.239376 
L 342.410607 323.533993 
L 342.671272 291.478956 
L 342.931937 313.994491 
L 343.06227 323.081565 
L 343.192602 306.803767 
L 343.322935 322.147829 
L 344.235263 244.099109 
L 344.365595 279.581051 
L 344.495928 284.31711 
L 344.62626 266.123711 
L 344.756593 270.060801 
L 344.886925 288.2542 
L 345.14759 249.162457 
L 345.277923 271.187059 
L 345.408255 267.249969 
L 345.538588 256.430191 
L 345.66892 261.445408 
L 345.929585 232.297465 
L 346.059918 229.111213 
L 346.19025 220.02414 
L 346.320583 303.65602 
L 346.972245 238.39081 
L 347.102578 227.638414 
L 347.23291 240.797344 
L 347.363243 235.782126 
L 347.493575 242.019863 
L 347.623908 257.315795 
L 347.75424 243.511915 
L 348.145238 293.741098 
L 348.27557 229.939061 
L 348.666568 263.457271 
L 348.7969 262.176995 
L 348.927233 251.22245 
L 349.187898 289.52485 
L 349.31823 290.805127 
L 349.448563 305.918162 
L 350.230558 235.406707 
L 350.36089 246.361251 
L 350.621555 231.66214 
L 350.88222 251.453478 
L 351.012553 269.646877 
L 351.142885 246.120598 
L 351.273218 250.856657 
L 351.533883 271.013788 
L 351.664215 274.20004 
L 351.794548 263.245496 
L 352.055213 280.890205 
L 352.185545 258.865603 
L 352.315878 282.295621 
L 352.576543 244.955835 
L 352.706875 248.892925 
L 352.837208 262.696806 
L 352.96754 257.960746 
L 353.097873 270.763509 
L 353.228205 255.650474 
L 353.358538 275.441812 
L 353.619203 251.482356 
L 353.749535 266.778288 
L 353.879868 268.058564 
L 354.0102 252.762632 
L 354.270865 266.864923 
L 354.53153 254.504963 
L 354.661863 259.520181 
L 354.792195 256.333929 
L 354.922528 232.903911 
L 355.05286 242.366404 
L 355.183193 229.563642 
L 355.313525 228.283365 
L 355.57419 191.550026 
L 355.704523 194.736277 
L 355.965188 229.563642 
L 356.09552 244.859574 
L 356.225853 235.7725 
L 356.356185 244.436024 
L 356.61685 223.826464 
L 356.747183 215.16294 
L 356.877515 231.017188 
L 357.007848 225.125992 
L 357.13818 298.554167 
L 357.268513 283.441132 
L 357.398845 288.456349 
L 357.789843 243.22313 
L 357.920176 236.532965 
L 358.050508 249.335728 
L 358.441506 203.370922 
L 358.571838 220.438064 
L 358.702171 196.911784 
L 359.614498 289.438215 
L 359.744831 284.422998 
L 359.875163 289.159057 
L 360.135828 323.697637 
L 360.266161 312.945242 
L 360.396493 311.664966 
L 360.657158 354.886322 
L 360.787491 344.1243 
L 360.917823 350.362037 
L 361.178488 313.77309 
L 361.308821 293.9625 
L 361.439153 298.977717 
L 361.699818 336.423391 
L 361.830151 331.687331 
L 361.960483 308.161052 
L 362.090816 309.441328 
L 362.481813 248.536758 
L 362.612146 251.72301 
L 362.742478 235.445212 
L 362.872811 242.135377 
L 363.003143 233.048303 
L 363.263808 304.435737 
L 363.394141 295.348663 
L 363.654806 315.496168 
L 363.785138 306.033676 
L 364.045803 203.727089 
L 364.176136 198.711872 
L 364.436801 227.859815 
L 364.958131 185.312289 
L 365.088463 192.657032 
L 365.218796 177.3611 
L 365.479461 188.334896 
L 365.609793 171.267755 
L 366.000791 211.100711 
L 366.261456 180.354828 
L 366.522121 158.888542 
L 366.652453 175.955684 
L 366.782786 158.888542 
L 367.304116 216.674244 
L 367.434448 209.329501 
L 367.695113 225.10674 
L 367.825446 218.416575 
L 368.216443 271.321825 
L 368.346776 270.041549 
L 368.477108 283.845429 
L 368.607441 266.903428 
L 368.868106 291.729236 
L 368.998438 300.816309 
L 369.128771 277.386291 
L 369.259103 284.076457 
L 369.389436 279.061239 
L 369.519768 290.015783 
L 369.650101 280.986467 
L 369.780433 258.961865 
L 369.910766 282.391883 
L 370.171431 228.129347 
L 370.432096 203.804099 
L 370.562428 185.610699 
L 370.953426 229.111213 
L 371.083758 232.297465 
L 371.214091 223.268148 
L 371.474756 240.460429 
L 371.996086 181.124919 
L 372.387084 204.169892 
L 372.778081 157.338734 
L 373.038746 185.062009 
L 373.169079 180.046792 
L 373.299411 190.808813 
L 373.429744 187.622562 
L 373.560076 202.966625 
L 373.690409 200.637099 
L 373.820741 206.874836 
L 373.951074 189.932835 
L 374.081406 208.126234 
L 374.211739 189.932835 
L 374.342071 205.228767 
L 374.733069 174.425128 
L 374.863401 210.157349 
L 375.124066 197.951407 
L 375.254399 202.687467 
L 375.384731 187.391535 
L 375.515064 193.629272 
L 375.775729 230.507003 
L 376.166726 290.025409 
L 376.557724 254.591598 
L 376.948721 294.501563 
L 377.079054 307.853016 
L 377.209386 288.061677 
L 377.339719 286.781401 
L 377.470051 300.700796 
L 377.600384 295.685578 
L 377.861049 323.832403 
L 377.991381 320.646152 
L 378.121714 313.955987 
L 378.382379 286.877663 
L 378.512711 300.036592 
L 378.643044 283.758794 
L 378.903709 296.407538 
L 379.034041 283.604776 
L 379.294706 293.356053 
L 379.555371 308.709742 
L 380.076701 246.130224 
L 380.207034 252.367961 
L 380.337366 241.605939 
L 380.467699 255.525334 
L 380.598031 248.835168 
L 380.728364 235.676239 
L 380.858696 249.48012 
L 380.989029 243.242383 
L 381.119361 266.768662 
L 381.249694 252.964781 
L 381.510359 282.237864 
L 381.640691 273.574341 
L 381.771024 256.63234 
L 381.901356 262.870076 
L 382.162021 230.304854 
L 382.292354 225.289637 
L 382.422686 230.304854 
L 382.553019 245.41789 
L 382.683351 246.698166 
L 382.944016 266.479878 
L 383.074349 260.242141 
L 383.335014 226.059728 
L 383.465346 238.86249 
L 383.595679 225.511038 
L 383.726011 242.578179 
L 383.856344 227.465144 
L 383.986676 234.155309 
L 384.117009 252.348708 
L 384.377674 223.508801 
L 384.508006 236.667731 
L 384.638339 235.05054 
L 384.768671 230.035322 
L 384.899004 243.839203 
L 385.159669 204.968861 
L 385.420334 242.472292 
L 385.680999 274.662094 
L 385.941664 294.511189 
L 386.332662 252.801137 
L 386.462994 272.043785 
L 386.593327 261.281764 
L 386.984324 207.885581 
L 387.114657 198.423088 
L 387.244989 202.360178 
L 387.375322 211.023701 
L 387.896652 173.17373 
L 388.417982 237.428196 
L 388.548314 222.132264 
L 388.678647 239.199405 
L 388.939312 217.376952 
L 389.069644 228.129347 
L 389.199977 226.849071 
L 389.330309 222.113012 
L 389.590974 255.101784 
L 389.721307 247.757041 
L 389.851639 228.514393 
L 389.981972 237.177916 
L 390.112304 254.119918 
L 390.242637 239.006882 
L 390.503302 264.881939 
L 390.633634 250.962545 
L 390.763967 263.765307 
L 390.894299 246.698166 
L 391.024632 251.713383 
L 391.285297 270.368837 
L 391.415629 248.344235 
L 391.676294 287.070185 
L 391.806627 296.099502 
L 392.067292 278.406662 
L 392.458289 332.361161 
L 392.588622 327.345943 
L 392.849287 349.476433 
L 392.979619 178.140817 
L 393.109952 171.450651 
L 393.240284 182.203047 
L 393.500949 223.922725 
L 393.631282 230.612891 
L 393.761614 244.416771 
L 393.891947 230.612891 
L 394.152612 258.778968 
L 394.282944 235.34895 
L 394.413277 249.152831 
L 394.543609 240.489307 
L 394.673942 249.576381 
L 394.804274 242.231638 
L 395.064939 217.348074 
L 395.195272 234.415215 
L 395.325604 225.328141 
L 395.977267 303.887047 
L 396.107599 281.862445 
L 396.237932 291.324938 
L 396.498597 321.445121 
L 396.628929 326.460339 
L 396.889594 283.691411 
L 397.019927 278.955352 
L 397.410924 243.627428 
L 397.541257 250.972171 
L 397.801922 273.401071 
L 397.932254 282.488144 
L 398.062587 264.294745 
L 398.192919 272.958268 
L 398.323252 256.959628 
L 398.583917 286.964298 
L 398.844582 256.324303 
L 398.974914 259.510555 
L 399.365912 283.951317 
L 399.496245 301.018458 
L 399.626577 222.661701 
L 399.75691 244.686303 
L 399.887242 229.342241 
L 400.408572 288.12906 
L 400.669237 271.755001 
L 400.79957 279.099744 
L 401.060235 258.384296 
L 401.190567 281.814314 
L 401.451232 244.936583 
L 401.581565 248.873673 
L 401.84223 279.754321 
L 401.972562 284.769539 
L 402.233227 319.125222 
L 402.36356 315.188132 
L 402.624225 344.336076 
L 402.754557 357.495005 
L 402.88489 342.38197 
L 403.145555 361.432095 
L 403.275887 354.74193 
L 403.40622 378.268209 
L 403.666885 337.790302 
L 403.797217 353.086234 
L 404.057882 334.536668 
L 404.44888 280.447403 
L 404.579212 293.798855 
L 404.709545 290.612604 
L 405.100542 309.566468 
L 405.230875 329.357806 
L 405.752205 282.468892 
L 405.882537 293.423436 
L 406.273535 276.048258 
L 406.403867 289.967653 
L 406.5342 276.048258 
L 406.794865 311.424312 
L 407.05553 280.55329 
L 407.185862 286.791027 
L 407.707192 223.460671 
L 407.967857 255.746735 
L 408.09819 252.560483 
L 408.228522 241.808088 
L 408.358855 248.498254 
L 408.489187 230.304854 
L 408.749852 258.846351 
L 408.880185 267.933425 
L 409.010517 252.637493 
L 409.14085 272.448083 
L 409.271182 251.232077 
L 409.531847 261.406904 
L 409.66218 258.220652 
L 409.922845 243.319392 
L 410.053177 252.348708 
L 410.18351 230.324107 
L 410.313842 237.014272 
L 410.444175 227.984955 
L 410.574507 236.648479 
L 410.70484 223.845716 
L 410.835172 228.860934 
L 411.22617 182.69398 
L 411.617167 217.078542 
L 411.7475 230.429994 
L 412.008165 203.159147 
L 412.26883 238.535202 
L 412.399162 233.519984 
L 412.529495 215.326585 
L 412.659827 234.569233 
L 412.79016 215.326585 
L 412.920493 214.046309 
L 413.31149 238.159782 
L 413.572155 218.666854 
L 413.702488 213.651637 
L 413.83282 220.341802 
L 413.963153 240.13314 
L 414.223818 224.432911 
L 414.35415 215.403594 
L 414.484483 191.867688 
L 414.745148 218.021903 
L 414.87548 204.670451 
L 415.005813 221.612452 
L 415.136145 220.332176 
L 415.266478 204.054378 
L 415.39681 227.590284 
L 415.657475 311.433939 
L 415.91814 288.225322 
L 416.178805 319.096344 
L 416.309138 305.176949 
L 416.43947 218.50321 
L 416.569803 229.265231 
L 416.700135 215.345837 
L 416.9608 244.975087 
L 417.221465 211.755288 
L 417.351798 311.924872 
L 417.612463 271.456591 
L 417.873128 317.007472 
L 418.133793 294.578572 
L 418.264125 277.511431 
L 418.785455 322.118951 
L 418.915788 331.206024 
L 419.04612 317.402144 
L 419.176453 337.193482 
L 419.306785 321.849419 
L 419.437118 221.622079 
L 419.56745 231.084571 
L 419.828115 264.814556 
L 419.958448 269.829774 
L 420.479778 202.562327 
L 420.61011 207.298386 
L 420.870775 194.582259 
L 421.13144 234.290075 
L 421.261773 235.570351 
L 421.392105 252.637493 
L 421.522438 237.524457 
L 421.65277 250.683387 
L 421.913435 232.50924 
L 422.043768 228.57215 
L 422.1741 235.916892 
L 422.304433 254.110292 
L 422.69543 224.153753 
L 422.825763 205.960353 
L 423.086428 227.994581 
L 423.21676 222.979364 
L 423.347093 199.443458 
L 423.477425 222.969738 
L 423.607758 199.443458 
L 423.73809 214.556494 
L 423.998755 202.822233 
L 424.129088 215.624995 
L 424.389753 180.297072 
L 424.650418 184.378554 
L 424.911083 170.978971 
L 425.041415 170.978971 
L 425.30208 207.317639 
L 425.562745 232.076064 
L 425.693078 230.795787 
L 425.953743 211.302859 
L 426.214408 241.865845 
L 426.34474 265.392124 
L 426.475073 258.047382 
L 426.735738 264.063717 
L 426.996403 255.679352 
L 427.126736 242.520422 
L 427.257068 262.31176 
L 427.517733 226.07898 
L 428.169396 283.652907 
L 428.299728 274.989383 
L 428.430061 278.175635 
L 428.560393 267.413613 
L 428.690726 276.077137 
L 429.081723 336.384886 
L 429.212056 325.430342 
L 429.342388 342.372344 
L 429.733386 307.978155 
L 430.254716 249.172083 
L 430.385048 253.109173 
L 430.515381 246.871436 
L 430.645713 257.825981 
L 430.776046 252.810763 
L 431.036711 281.823941 
L 431.297376 263.168487 
L 431.427708 282.979077 
L 431.558041 266.701279 
L 431.688373 284.894678 
L 431.818706 278.656941 
L 431.949038 286.001684 
L 432.079371 305.793022 
L 432.209703 295.031001 
L 432.340036 298.217252 
L 432.470368 315.159254 
L 432.600701 302.356491 
L 432.731033 301.076215 
L 432.861366 316.372147 
L 432.991698 307.34283 
L 433.252363 276.471808 
L 433.382696 259.529807 
L 433.643361 272.496214 
L 433.773693 251.183946 
L 434.034358 274.392563 
L 434.164691 269.656503 
L 434.295023 283.460384 
L 434.686021 232.201203 
L 434.946686 255.380942 
L 435.207351 220.794231 
L 435.337683 216.857141 
L 435.598348 186.640696 
L 435.859013 202.138777 
L 436.119678 217.492466 
L 436.380343 242.164255 
L 436.510676 228.360375 
L 436.901673 272.111168 
L 437.162338 251.414973 
L 437.292671 246.399756 
L 437.423003 228.206356 
L 437.553336 233.221574 
L 437.814001 252.271699 
L 437.944333 261.301016 
L 438.074666 246.005084 
L 438.204998 253.349827 
L 438.465663 292.229795 
L 438.726328 272.005281 
L 438.856661 287.301213 
L 439.117326 257.931868 
L 439.247658 279.95647 
L 439.638656 238.698846 
L 439.768988 241.885097 
L 439.899321 258.952239 
L 440.029653 255.015148 
L 440.159986 274.257797 
L 440.550983 230.641769 
L 440.681316 237.331934 
L 440.811649 231.094198 
L 441.072314 257.05589 
L 441.332979 226.829819 
L 441.593644 257.383178 
L 441.854309 285.404864 
L 442.114974 258.37467 
L 442.245306 276.56807 
L 442.375639 258.37467 
L 442.636304 276.500687 
L 442.766636 259.433545 
L 442.896969 264.448763 
L 443.157634 301.03771 
L 443.287966 287.118316 
L 443.548631 310.740857 
L 443.678964 304.050691 
L 443.939629 316.978594 
L 444.069961 335.171993 
L 444.200294 322.36923 
L 444.330626 333.121626 
L 444.851956 281.852819 
L 445.112621 306.283955 
L 445.242954 286.492617 
L 445.503619 320.107088 
L 445.633951 312.762345 
L 445.894616 284.596268 
L 446.024949 303.838916 
L 446.155281 293.086521 
L 446.937276 367.313665 
L 447.067609 363.376575 
L 447.197941 346.434573 
L 447.458606 386.902854 
L 447.719271 358.00519 
L 447.849604 348.975874 
L 447.979936 364.088909 
L 448.110269 354.626416 
L 448.240601 371.693557 
L 448.370934 366.67834 
L 448.501266 349.736338 
L 448.631599 353.673429 
L 448.761931 362.702745 
L 449.022596 332.621067 
L 449.283261 285.664769 
L 449.413594 294.751843 
L 449.674259 273.035277 
L 449.804591 251.010675 
L 449.934924 261.772697 
L 450.065256 285.298976 
L 450.195589 261.763071 
L 450.325921 264.949322 
L 450.456254 249.65339 
L 450.716919 269.685382 
L 450.847251 250.442733 
L 451.107916 275.201158 
L 451.238249 270.465099 
L 451.498914 251.982915 
L 451.629246 256.998133 
L 451.759579 251.982915 
L 452.020244 225.876831 
L 452.280909 264.650912 
L 452.411241 259.029248 
L 452.541574 269.983792 
L 452.802239 308.757872 
L 453.062904 280.110488 
L 453.193236 293.46194 
L 453.844899 221.073389 
L 453.975231 230.160462 
L 454.105564 206.624557 
L 454.366229 235.570351 
L 454.496562 249.489746 
L 454.626894 231.296346 
L 454.887559 262.167368 
L 455.017892 254.822626 
L 455.148224 237.755484 
L 455.278557 242.770702 
L 455.539222 274.950879 
L 455.669554 270.214819 
L 455.799887 257.412057 
L 455.930219 280.938336 
L 456.060552 257.508318 
L 456.190884 275.701717 
L 456.321217 259.423919 
L 456.581882 285.385611 
L 456.842547 267.018942 
L 457.103212 282.79618 
L 457.233544 259.269901 
L 457.494209 285.202715 
L 457.624542 291.440452 
L 457.885207 319.981948 
L 458.015539 314.966731 
L 458.145872 296.773332 
L 458.276204 301.509391 
L 458.406537 325.045297 
L 458.536869 314.292901 
L 458.667202 321.637644 
L 458.927867 292.364561 
L 459.058199 301.827054 
L 459.188532 221.853106 
L 459.318864 235.656987 
L 459.579529 304.300971 
L 459.840194 271.302573 
L 460.231192 231.989428 
L 460.491857 269.309962 
L 460.622189 292.845868 
L 460.752522 278.926473 
L 460.882854 292.277926 
L 461.013187 281.323381 
L 461.143519 285.260472 
L 461.273852 279.022735 
L 461.404184 263.909699 
L 461.534517 283.72029 
L 461.664849 260.19401 
L 461.795182 273.35294 
L 462.055847 245.312002 
L 462.316512 275.538073 
L 462.446844 286.300094 
L 462.577177 272.3807 
L 462.707509 276.31779 
L 462.837842 252.887772 
L 462.968174 257.90299 
L 463.489504 337.087594 
L 463.619837 349.890357 
L 463.750169 340.86104 
L 463.880502 354.01997 
L 464.010834 347.329804 
L 464.141167 367.121142 
L 464.271499 362.105925 
L 464.401832 201.946254 
L 464.532164 198.760003 
L 464.792829 236.215303 
L 464.923162 214.190701 
L 465.183827 244.753686 
L 465.314159 250.991423 
L 465.574824 286.126824 
L 465.705157 281.111606 
L 466.096154 350.092506 
L 466.356819 319.673912 
L 466.487152 324.689129 
L 466.617484 317.998964 
L 467.008482 362.346578 
L 467.399479 321.204468 
L 467.660144 342.584119 
L 467.790477 356.387999 
L 468.051142 346.357564 
L 468.181474 350.294654 
L 468.44214 308.574976 
L 468.572472 259.558685 
L 468.702805 274.902748 
L 468.833137 255.6601 
L 468.96347 270.956032 
L 469.093802 260.19401 
L 469.224135 277.261152 
L 469.354467 260.19401 
L 469.4848 276.471808 
L 469.615132 258.278409 
L 469.745465 281.708427 
L 470.00613 232.884659 
L 470.136462 248.228722 
L 470.397127 210.888936 
L 470.52746 217.579101 
L 470.657792 210.234358 
L 470.788125 232.480361 
L 470.918457 235.252689 
L 471.04879 248.411618 
L 471.179122 232.355221 
L 471.439787 249.345354 
L 471.57012 234.001291 
L 471.700452 246.804053 
L 471.961117 233.770264 
L 472.221782 251.886654 
L 472.352115 248.700402 
L 472.482447 235.541473 
L 472.61278 238.727724 
L 472.743112 231.382982 
L 473.003777 261.926715 
L 473.13411 275.085645 
L 473.525107 244.19537 
L 473.65544 249.210588 
L 473.916105 277.357413 
L 474.17677 249.210588 
L 474.437435 288.090556 
L 474.567767 235.589604 
L 474.6981 238.775855 
L 474.828432 247.805172 
L 474.958765 246.524895 
L 475.089097 237.861372 
L 475.21943 246.524895 
L 475.349762 266.316234 
L 475.480095 261.301016 
L 475.74076 245.312002 
L 476.001425 291.71961 
L 476.131757 288.533358 
L 476.26209 277.780963 
L 476.392422 254.254684 
L 476.522755 265.209228 
L 476.653087 241.673322 
L 476.78342 250.702639 
L 476.913752 245.687422 
L 477.174417 222.421048 
L 477.30475 229.765791 
L 477.435082 219.003769 
L 477.565415 238.795107 
L 477.695747 229.765791 
L 477.82608 238.429314 
L 477.956412 227.47477 
L 478.086745 227.47477 
L 478.217077 214.123318 
L 478.34741 224.875713 
L 478.608075 213.59388 
L 478.738407 216.780132 
L 479.129405 264.891565 
L 479.259737 251.732636 
L 479.39007 259.077378 
L 479.520402 248.315357 
L 479.650735 224.885339 
L 479.781067 234.347832 
L 479.9114 214.537242 
L 480.041732 219.273301 
L 480.302397 194.861417 
L 480.563062 203.813725 
L 480.693395 186.871723 
L 480.95406 220.880866 
L 481.214725 201.840367 
L 481.47539 188.161626 
L 481.866387 245.947327 
L 481.99672 235.194932 
L 482.127053 211.764914 
L 482.257385 211.764914 
L 482.387718 196.651879 
L 482.51805 210.003331 
L 482.648383 205.267271 
L 482.778715 189.923209 
L 482.909048 200.877753 
L 483.03938 322.802407 
L 483.169713 315.457664 
L 483.300045 291.921758 
L 483.430378 299.266501 
L 483.691043 279.850582 
L 483.821375 299.64192 
L 483.951708 286.482991 
L 484.212373 295.435299 
L 484.473038 266.990063 
L 484.60337 251.694131 
L 484.864035 281.015345 
L 485.1247 226.387016 
L 485.385365 244.137613 
L 485.515698 279.542546 
L 485.64603 284.557764 
L 485.906695 258.047382 
L 486.037028 264.285119 
L 486.16736 277.636571 
L 486.297693 264.285119 
L 486.428025 275.04714 
L 486.819023 230.218219 
L 487.21002 288.937656 
L 487.470685 249.971053 
L 487.601018 254.707112 
L 487.861683 272.457709 
L 487.992015 261.503165 
L 488.122348 266.518382 
L 488.383013 294.98287 
L 488.77401 262.696806 
L 488.904343 260.983354 
L 489.034675 248.180591 
L 489.29534 267.59651 
L 489.425673 245.571908 
L 489.556005 246.852184 
L 489.686338 245.571908 
L 489.81667 258.37467 
L 489.947003 234.848391 
L 490.077335 239.584451 
L 490.207668 234.848391 
L 490.338 224.095996 
L 490.468333 241.163137 
L 490.598665 224.095996 
L 490.728998 233.183069 
L 490.85933 234.463346 
L 491.38066 193.879551 
L 491.510993 200.117288 
L 491.641325 184.773225 
L 491.90199 217.386578 
L 492.162655 189.923209 
L 492.292988 198.952525 
L 492.42332 324.727634 
L 492.553653 304.936296 
L 492.683985 218.743864 
L 492.814318 229.505885 
L 492.94465 216.154433 
L 493.074983 221.16965 
L 493.205315 216.154433 
L 493.335648 239.690338 
L 493.46598 222.748337 
L 493.596313 238.044269 
L 493.856978 229.41925 
L 493.98731 209.627912 
L 494.247975 246.31312 
L 494.50864 219.17704 
L 494.769305 243.483036 
L 494.899638 232.528492 
L 495.02997 237.543709 
L 495.160303 247.006202 
L 495.290635 239.66146 
L 495.420968 284.0187 
L 495.5513 280.832448 
L 495.681633 263.890447 
L 495.811965 277.241899 
L 495.942298 273.304809 
L 496.072631 288.600741 
L 496.202963 265.074462 
L 496.333296 271.312199 
L 496.724293 233.558489 
L 497.245623 302.645275 
L 497.506288 268.260713 
L 497.766953 287.686258 
L 497.897286 290.87251 
L 498.027618 284.634773 
L 498.288283 215.519108 
L 498.418616 235.310446 
L 498.809613 181.134545 
L 499.070278 205.142132 
L 499.200611 190.029096 
L 499.330943 333.651063 
L 499.591608 288.100182 
L 499.721941 297.129499 
L 499.982606 277.280404 
L 500.112938 281.217494 
L 500.243271 294.020256 
L 500.503936 272.313317 
L 500.634268 281.400391 
L 500.764601 274.710225 
L 500.894933 279.725443 
L 501.155598 265.680908 
L 501.416263 225.077862 
L 501.676928 253.532723 
L 501.807261 240.373794 
L 502.067926 292.393439 
L 502.328591 298.688933 
L 502.458923 322.118951 
L 502.980253 240.210149 
L 503.110586 227.407387 
L 503.240918 236.49446 
L 503.371251 258.519062 
L 503.501583 243.406027 
L 504.153246 312.194403 
L 504.283578 298.842951 
L 504.544243 320.92531 
L 504.804908 288.562237 
L 505.195906 324.496607 
L 505.326238 311.693844 
L 505.456571 316.429904 
L 505.717236 287.878781 
L 505.977901 313.744211 
L 506.108233 209.935948 
L 506.238566 233.365966 
L 506.368898 216.423964 
L 506.499231 221.160024 
L 506.629563 243.184626 
L 506.759896 238.169408 
L 506.890228 246.832932 
L 507.020561 266.07558 
L 507.411558 219.234796 
L 507.672223 203.881108 
L 508.454218 280.158619 
L 508.714883 249.961426 
L 508.845216 253.898517 
L 509.105881 273.718733 
L 509.236213 267.028568 
L 509.366546 268.308844 
L 509.496878 290.333446 
L 509.757544 257.546823 
L 509.887876 263.784559 
L 510.148541 245.29275 
L 510.539539 201.243546 
L 510.669871 187.324152 
L 510.800204 196.353468 
L 510.930536 185.601073 
L 511.321534 227.907946 
L 511.451866 220.563203 
L 511.712531 188.151999 
L 511.973196 214.912661 
L 512.233861 250.067314 
L 512.624859 197.614492 
L 513.146189 251.463104 
L 513.276521 252.74338 
L 513.537186 284.856174 
L 513.928184 248.921804 
L 514.058516 243.906586 
L 514.188849 248.921804 
L 514.319181 244.984713 
L 514.449514 244.984713 
L 514.579846 241.798462 
L 514.710179 261.04111 
L 514.840511 261.04111 
L 515.101176 302.799293 
L 515.231509 319.866435 
L 515.361841 310.837118 
L 515.492174 334.363397 
L 515.622506 323.601376 
L 515.883171 336.20199 
L 516.013504 316.959341 
L 516.143836 326.421834 
L 516.274169 310.144036 
L 516.404501 333.679942 
L 516.665166 309.152544 
L 516.795499 299.690051 
L 516.925831 308.777125 
L 517.577494 205.507925 
L 517.707826 208.694176 
L 517.968491 183.088651 
L 518.229156 210.888936 
L 518.359489 227.830937 
L 518.489821 222.81572 
L 518.620154 231.845036 
L 518.880819 270.570986 
L 519.141484 231.845036 
L 519.271816 241.307529 
L 519.402149 227.503648 
L 519.532481 238.256044 
L 519.662814 260.280646 
L 519.793146 263.399514 
L 520.184144 301.432382 
L 520.444809 285.46262 
L 520.575141 290.477838 
L 520.705474 301.432382 
L 520.835806 294.087639 
L 520.966139 294.087639 
L 521.226804 269.406224 
L 521.357136 280.168245 
L 521.487469 260.925597 
L 521.617801 264.862687 
L 521.878466 249.085448 
L 522.008799 249.085448 
L 522.139131 244.07023 
L 522.399796 264.285119 
L 523.051459 202.639336 
L 523.442456 240.104262 
L 523.572789 238.159782 
L 523.703122 233.423723 
L 523.963787 259.924478 
L 524.094119 273.843873 
L 524.224452 265.180349 
L 524.354784 241.644444 
L 524.485117 241.644444 
L 524.615449 250.731517 
L 524.745782 241.269025 
L 524.876114 252.02142 
L 525.136779 217.540596 
L 525.267112 203.621202 
L 525.527777 214.941539 
L 525.658109 208.251374 
L 525.788442 213.266591 
L 525.918774 204.179518 
L 526.179439 245.543029 
L 526.309772 230.198967 
L 526.440104 243.001729 
L 526.570437 243.001729 
L 526.700769 223.191139 
L 526.961434 263.40914 
L 527.222099 252.156186 
L 527.352432 255.342437 
L 527.613097 278.522175 
L 527.743429 291.681105 
L 528.004094 275.143401 
L 528.264759 300.825935 
L 528.395092 294.13577 
L 528.525424 270.609491 
L 528.786089 288.80289 
L 529.177087 248.844795 
L 529.437752 272.371074 
L 529.698417 300.922197 
L 529.828749 302.202473 
L 529.959082 316.006354 
L 530.089414 302.654901 
L 530.219747 313.609446 
L 531.001742 263.072225 
L 531.262407 281.198242 
L 531.392739 272.534718 
L 531.523072 253.29207 
L 531.783737 279.542546 
L 532.044402 255.217297 
L 532.435399 294.30904 
L 532.565732 270.773135 
L 532.696064 275.509195 
L 532.826397 275.509195 
L 533.087062 330.022009 
L 533.217394 342.824772 
L 533.347727 331.870228 
L 533.478059 191.809932 
L 533.608392 191.809932 
L 533.999389 240.749213 
L 534.260054 274.055648 
L 534.520719 261.031484 
L 534.651052 271.783879 
L 534.781384 273.064156 
L 534.911717 249.52825 
L 535.172382 284.355615 
L 535.302714 307.89152 
L 535.433047 295.088758 
L 535.563379 312.030759 
L 535.693712 312.030759 
L 535.824044 292.239421 
L 536.084709 317.180742 
L 536.215042 301.83668 
L 536.345374 306.572739 
L 536.475707 306.572739 
L 536.606039 299.227997 
L 536.866704 253.773377 
L 536.997037 277.203395 
L 537.127369 260.925597 
L 537.257702 284.451876 
L 537.388035 269.155944 
L 537.518367 275.846109 
L 537.909365 244.599668 
L 538.039697 253.628985 
L 538.17003 273.439575 
L 538.300362 268.424358 
L 538.561027 233.500732 
L 538.821692 260.656065 
L 538.952025 263.024095 
L 539.082357 258.008877 
L 539.21269 242.895842 
L 539.343022 247.911059 
L 539.473355 234.107178 
L 539.603687 257.537196 
L 539.73402 260.723448 
L 539.864352 240.93211 
L 539.994685 254.283562 
L 540.25535 219.744982 
L 540.385682 221.025258 
L 540.516015 238.092399 
L 541.037345 178.833899 
L 541.167677 191.636661 
L 541.29801 188.45041 
L 541.558675 212.650519 
L 541.81934 184.734721 
L 542.080005 209.059969 
L 542.210337 228.87056 
L 542.34067 223.855342 
L 542.471002 207.577544 
L 542.601335 212.592762 
L 542.862 184.773225 
L 542.992332 195.727769 
L 543.122665 172.297752 
L 543.252997 192.08909 
L 543.38333 172.297752 
L 543.643995 201.378312 
L 543.90466 173.279618 
L 544.295657 219.196292 
L 544.42599 209.733799 
L 544.556322 218.397323 
L 544.816987 242.684067 
L 544.94732 222.873476 
L 545.077652 300.806683 
L 545.207985 277.376665 
L 545.338317 290.728117 
L 545.46865 292.008394 
L 545.598982 272.217056 
L 545.729315 288.494854 
L 545.859647 275.143401 
L 545.98998 294.934739 
L 546.120312 288.697003 
L 546.250645 269.454354 
L 546.380977 278.541428 
L 546.51131 277.261152 
L 546.771975 249.441615 
L 546.902307 263.245496 
L 547.03264 249.441615 
L 547.162972 262.600545 
L 547.293305 259.414293 
L 547.814635 297.77445 
L 547.944967 292.759232 
L 548.0753 306.563113 
L 548.335965 283.941691 
L 548.466297 279.205631 
L 548.726962 307.910772 
L 548.987627 277.357413 
L 549.11796 281.294503 
L 549.508957 244.108735 
L 549.769622 266.412495 
L 550.16062 244.397519 
L 550.290952 257.556449 
L 550.551617 247.805172 
L 550.68195 264.08297 
L 550.812282 264.08297 
L 550.942615 270.320707 
L 551.333613 228.812803 
L 551.72461 250.240584 
L 551.854943 235.127549 
L 551.985275 235.127549 
L 552.115608 222.324787 
L 552.506605 280.226002 
L 552.636938 256.699722 
L 552.897603 278.502923 
L 553.027935 271.812758 
L 553.2886 308.546097 
L 554.070595 225.809448 
L 554.461593 262.966338 
L 554.591925 257.95112 
L 554.85259 275.018262 
L 554.982923 251.491982 
L 555.113255 272.188177 
L 555.37392 228.87056 
L 555.504253 224.93347 
L 555.634585 240.229402 
L 555.764918 222.036002 
L 556.025583 243.415653 
L 556.286248 264.419884 
L 556.41658 275.181906 
L 556.546913 264.419884 
L 556.677245 284.211223 
L 556.807578 282.930946 
L 556.93791 296.282399 
L 557.068243 291.546339 
L 557.850238 217.53097 
L 558.371568 272.3807 
L 558.632233 242.270143 
L 558.762565 255.621595 
L 559.02323 229.46738 
L 559.153563 244.763312 
L 559.283895 239.748095 
L 559.414228 243.685185 
L 559.54456 243.685185 
L 559.674893 252.714502 
L 559.805225 252.714502 
L 560.06589 213.882664 
L 560.326555 245.369759 
L 560.58722 219.494702 
L 560.717553 215.557612 
L 560.847885 215.557612 
L 560.978218 224.644686 
L 561.238883 181.307816 
L 561.499548 196.363095 
L 561.62988 201.378312 
L 561.760213 220.62096 
L 561.890545 215.884901 
L 562.020878 235.676239 
L 562.15121 227.012715 
L 562.281543 296.667444 
L 562.411875 297.94772 
L 562.542208 317.190369 
L 562.933205 278.897595 
L 563.063538 298.688933 
L 563.19387 287.926912 
L 563.584868 310.115158 
L 563.7152 286.588878 
L 563.845533 237.091281 
L 563.975865 233.90503 
L 564.23653 254.158422 
L 564.497195 266.759036 
L 564.627528 266.759036 
L 564.75786 286.001684 
L 564.888193 280.986467 
L 565.018526 299.179866 
L 565.148858 295.993615 
L 565.279191 315.784953 
L 565.409523 315.784953 
L 565.670188 297.235386 
L 565.800521 297.235386 
L 565.930853 306.32246 
L 566.061186 306.32246 
L 566.191518 289.255318 
L 566.321851 234.424841 
L 566.452183 253.667489 
L 566.712848 231.864289 
L 566.843181 238.102025 
L 566.973513 238.102025 
L 567.234178 264.169605 
L 567.364511 281.111606 
L 567.494843 281.111606 
L 567.625176 304.637886 
L 567.885841 267.760154 
L 568.016173 281.111606 
L 568.146506 271.649114 
L 568.276838 276.385173 
L 568.537503 292.537831 
L 568.667836 292.537831 
L 568.798168 291.257555 
L 568.928501 291.257555 
L 569.058833 283.912812 
L 569.189166 302.106212 
L 569.449831 204.506807 
L 569.580163 219.802739 
L 569.840828 219.802739 
L 570.101493 185.514438 
L 570.231826 185.514438 
L 570.362158 190.529655 
L 570.492491 190.529655 
L 570.622823 196.767392 
L 570.883488 168.322157 
L 571.144153 168.322157 
L 571.274486 191.858062 
L 571.404818 191.858062 
L 571.535151 196.594122 
L 571.665483 189.249379 
L 571.926148 219.812365 
L 572.186813 202.061768 
L 572.447478 175.021948 
L 572.577811 184.051265 
L 573.359806 274.893122 
L 573.490138 255.101784 
L 573.620471 268.260713 
L 573.750803 269.540989 
L 573.881136 269.540989 
L 574.011468 276.231155 
L 574.141801 262.31176 
L 574.272133 267.326978 
L 574.402466 276.789471 
L 574.663131 242.510796 
L 574.923796 218.137417 
L 575.054128 213.401357 
L 575.184461 197.123559 
L 575.314793 220.649839 
L 575.445126 197.113933 
L 575.575458 197.113933 
L 575.705791 210.465386 
L 575.836123 191.222737 
L 575.966456 195.958797 
L 576.227121 195.958797 
L 576.357453 205.04587 
L 576.487786 191.886941 
L 576.618118 191.886941 
L 576.748451 210.08034 
L 576.878783 196.728888 
L 577.009116 205.392411 
L 577.269781 194.765156 
L 577.400113 198.702246 
L 577.530446 183.406314 
L 577.660778 198.750377 
L 577.791111 193.735159 
L 577.921443 193.735159 
L 578.051776 207.53904 
L 578.182108 207.53904 
L 578.312441 222.834972 
L 578.442773 203.024381 
L 578.573106 213.978926 
L 578.703438 213.978926 
L 578.833771 190.452646 
L 578.964104 203.804099 
L 579.094436 203.804099 
L 579.224769 206.99035 
L 579.355101 206.99035 
L 579.485434 212.005567 
L 579.615766 210.725291 
L 579.746099 218.070034 
L 579.876431 218.070034 
L 580.006764 207.11549 
L 580.137096 212.130707 
L 580.267429 223.085251 
L 580.528094 264.901191 
L 580.658426 246.707792 
L 580.919091 279.321145 
L 581.049424 274.305927 
L 581.179756 254.514589 
L 581.310089 254.514589 
L 581.440421 265.266985 
L 581.570754 249.971053 
L 581.701086 265.266985 
L 581.831419 255.804492 
L 582.613414 285.16421 
L 583.004411 236.889132 
L 583.265076 264.80493 
L 583.395409 245.013592 
L 583.525741 245.013592 
L 583.656074 232.210829 
L 583.786406 232.210829 
L 583.916739 245.013592 
L 584.047071 231.854662 
L 584.307736 231.854662 
L 584.438069 222.39217 
L 584.568401 222.39217 
L 584.829066 248.690776 
L 584.959399 225.260758 
L 585.089731 225.260758 
L 585.220064 231.498495 
L 585.350396 251.309086 
L 585.871726 251.309086 
L 586.132391 220.851988 
L 586.262724 220.851988 
L 586.393056 214.161822 
L 586.653721 238.68922 
L 586.914386 220.57283 
L 587.305384 244.07023 
L 587.435716 257.22916 
L 587.696381 244.580416 
L 587.826714 248.517506 
L 588.087379 215.923405 
L 588.217711 215.923405 
L 588.478376 191.039841 
L 588.739041 191.039841 
L 588.999706 213.054816 
L 589.260371 178.766516 
L 589.390704 173.751298 
L 589.521036 173.751298 
L 589.651369 192.26236 
L 589.912034 192.26236 
L 590.172699 206.306894 
L 590.433364 206.306894 
L 590.694029 238.361931 
L 590.824361 233.346714 
L 591.085026 233.346714 
L 591.215359 224.317397 
L 591.345691 229.332614 
L 591.736689 196.363095 
L 591.997354 185.11014 
L 592.258019 203.60195 
L 592.388351 203.60195 
L 592.518684 198.586732 
L 592.649017 214.460232 
L 592.779349 215.798266 
L 592.909682 226.560287 
L 593.040014 213.401357 
L 593.170347 211.755288 
L 593.300679 203.091764 
L 593.431012 203.091764 
L 593.561344 226.521782 
L 593.822009 226.521782 
L 593.952342 202.985877 
L 594.343339 202.985877 
L 594.473672 183.492949 
L 594.604004 183.492949 
L 594.734337 196.651879 
L 594.864669 185.889857 
L 594.995002 185.889857 
L 595.255667 208.867447 
L 595.646664 208.867447 
L 595.776997 219.629468 
L 595.907329 219.629468 
L 596.037662 206.470539 
L 596.298327 206.470539 
L 596.689324 179.334458 
L 596.819657 202.764476 
L 596.949989 202.764476 
L 597.210654 177.024185 
L 597.340987 182.039402 
L 597.471319 182.039402 
L 597.601652 189.384145 
L 597.731984 189.384145 
L 597.862317 200.146166 
L 598.122982 200.146166 
L 598.253314 189.191622 
L 598.383647 197.855146 
L 598.513979 197.855146 
L 598.644312 193.119086 
L 599.035309 158.031816 
L 599.165642 158.031816 
L 599.295974 167.494309 
L 599.426307 158.830786 
L 599.556639 158.830786 
L 599.686972 182.366691 
L 600.208302 133.061616 
L 600.338634 133.061616 
L 600.729632 200.329063 
L 600.859964 176.899045 
L 600.990297 176.899045 
L 601.120629 171.883828 
L 601.381294 204.121761 
L 601.641959 204.121761 
L 601.772292 202.841485 
L 602.163289 202.841485 
L 602.293622 207.856702 
L 602.554287 174.858304 
L 602.684619 165.828987 
L 602.814952 174.916061 
L 602.945284 174.916061 
L 603.075617 185.678082 
L 603.205949 174.916061 
L 603.336282 174.916061 
L 603.466614 170.978971 
L 603.727279 193.244226 
L 603.857612 187.17976 
L 603.987944 193.417497 
L 604.118277 180.066044 
L 604.248609 180.066044 
L 604.378942 175.050827 
L 604.509274 175.050827 
L 604.639607 158.108825 
L 604.900272 158.108825 
L 605.160937 168.639819 
L 605.291269 146.615217 
L 605.421602 146.615217 
L 605.551934 150.552308 
L 605.682267 141.089815 
L 605.812599 141.089815 
L 606.073264 165.232167 
L 606.333929 139.18384 
L 606.594595 139.18384 
L 606.724927 126.381077 
L 607.115925 158.99443 
L 607.246257 148.039886 
L 607.506922 169.554302 
L 607.637255 166.368051 
L 607.767587 159.677886 
L 608.288917 159.677886 
L 608.41925 176.68727 
L 608.679915 152.51604 
L 608.94058 152.51604 
L 609.070912 172.307378 
L 609.201245 172.307378 
L 609.331577 183.261922 
L 609.46191 174.174848 
L 609.592242 174.174848 
L 609.722575 169.679442 
L 609.852907 176.793158 
L 610.113572 176.793158 
L 610.243905 179.979409 
L 610.374237 172.865694 
L 610.634902 172.865694 
L 610.895567 201.128032 
L 611.0259 201.128032 
L 611.156232 214.286962 
L 611.286565 214.286962 
L 611.416897 230.56476 
L 611.54723 230.56476 
L 611.677562 217.761998 
L 611.807895 217.761998 
L 611.938227 207.009602 
L 612.06856 216.472095 
L 612.198892 211.736036 
L 612.329225 225.539916 
L 612.58989 208.732681 
L 612.720222 193.436749 
L 613.241552 193.436749 
L 613.502217 181.837253 
L 613.762882 181.837253 
L 613.893215 171.075232 
L 614.023547 171.075232 
L 614.15388 177.495866 
L 614.284212 177.495866 
L 614.414545 190.134984 
L 614.544877 190.134984 
L 614.67521 181.105667 
L 615.457205 181.105667 
L 615.587537 196.44973 
L 615.71787 196.44973 
L 615.848202 181.105667 
L 615.978535 185.841727 
L 616.108867 185.841727 
L 616.2392 174.261484 
L 616.76053 174.261484 
L 616.890862 192.454883 
L 617.021195 191.886941 
L 617.28186 191.886941 
L 617.412192 179.363336 
L 618.194187 179.363336 
L 618.454852 225.549543 
L 618.84585 192.580023 
L 618.976182 192.580023 
L 619.106515 201.609339 
L 619.236847 183.521828 
L 619.36718 203.313166 
L 619.497512 203.313166 
L 619.758177 184.26304 
L 619.88851 184.26304 
L 620.018842 166.069641 
L 620.540173 166.069641 
L 620.670505 163.133669 
L 621.061503 163.133669 
L 621.191835 185.158271 
L 621.582833 185.158271 
L 621.713165 194.620764 
L 621.97383 194.620764 
L 622.104163 172.596162 
L 622.234495 172.596162 
L 622.49516 183.560332 
L 622.625493 178.545115 
L 622.755825 178.545115 
L 622.886158 185.889857 
L 623.01649 185.889857 
L 623.277155 171.845323 
L 623.407488 156.50126 
L 623.798485 156.50126 
L 623.928818 152.236882 
L 624.05915 152.236882 
L 624.189483 142.774389 
L 624.450148 142.774389 
L 624.58048 158.118451 
L 624.841145 158.118451 
L 624.971478 163.133669 
L 625.10181 163.133669 
L 625.232143 146.855871 
L 625.362475 146.855871 
L 625.492808 142.119811 
L 625.62314 148.809977 
L 627.447795 148.809977 
L 627.578128 145.623725 
L 627.70846 149.560815 
L 628.22979 149.560815 
L 628.360123 136.758053 
L 628.490455 147.510448 
L 628.620788 141.272711 
L 629.011785 141.272711 
L 629.142118 164.702729 
L 629.27245 164.702729 
L 629.533115 138.606271 
L 629.663448 149.358667 
L 629.79378 149.358667 
L 629.924113 163.162547 
L 630.054445 161.882271 
L 630.966773 161.882271 
L 631.097105 151.129876 
L 631.35777 151.129876 
L 631.488103 161.891897 
L 631.618435 156.87668 
L 632.139765 156.87668 
L 632.270098 167.831224 
L 632.661095 167.831224 
L 633.052093 150.186514 
L 633.182425 150.186514 
L 633.312758 148.213156 
L 633.703755 148.213156 
L 633.834088 126.063415 
L 634.225086 126.063415 
L 634.355418 130.799474 
L 634.616083 130.799474 
L 634.746416 120.037453 
L 634.876748 120.037453 
L 635.007081 135.150488 
L 636.310406 135.150488 
L 636.440738 128.460323 
L 637.092401 128.460323 
L 637.222733 118.362505 
L 637.353066 118.362505 
L 637.483398 121.548756 
L 637.613731 118.362505 
L 638.004728 118.362505 
L 638.135061 113.626445 
L 640.741711 113.626445 
L 640.872043 132.869094 
L 641.002376 125.524351 
L 641.132708 125.524351 
L 641.263041 136.286372 
L 642.045036 136.286372 
L 642.175368 141.022432 
L 643.478693 141.022432 
L 643.609026 144.208683 
L 643.739358 159.321719 
L 644.651686 159.321719 
L 644.912351 134.755816 
L 645.042683 138.163469 
L 646.215676 138.163469 
L 646.346008 148.781098 
L 646.476341 138.201974 
L 647.128003 138.201974 
L 647.258336 133.465914 
L 648.952659 133.465914 
L 649.082991 135.699178 
L 650.646981 135.708804 
L 650.777314 113.684202 
L 652.601969 113.684202 
L 652.732301 123.146695 
L 652.862634 123.146695 
L 652.992966 118.410636 
L 654.426624 118.410636 
L 654.556956 117.842693 
L 658.206266 117.842693 
L 658.336599 121.028945 
L 658.857929 121.028945 
L 658.988261 118.179608 
L 661.725244 118.179608 
L 661.855577 124.619494 
L 661.985909 121.433243 
L 662.767904 121.433243 
L 662.898237 128.123408 
L 663.810564 128.123408 
L 663.940897 131.309659 
L 664.201562 131.309659 
L 664.331894 117.505779 
L 664.462227 117.505779 
L 664.592559 108.043286 
L 665.504887 108.043286 
L 665.635219 106.849645 
L 667.981204 106.849645 
L 668.111537 111.585704 
L 672.021512 111.585704 
L 672.151844 106.849645 
L 674.758494 106.849645 
L 674.888827 108.591976 
L 675.670822 108.591976 
L 675.801155 101.90181 
L 677.495477 101.90181 
L 677.62581 101.333868 
L 677.756142 101.333868 
L 677.886475 106.069928 
L 683.099775 106.069928 
L 683.230107 103.345731 
L 686.358087 103.345731 
L 686.48842 93.623332 
L 690.919725 93.623332 
L 691.050058 88.887273 
L 871.690909 88.887273 
L 871.690909 88.887273 
" style="fill:none;stroke:#8dd3c7;stroke-linecap:square;stroke-width:1.5;"/>
   </g>
   <g id="line2d_13">
    <path clip-path="url(#pe4f4dac7c7)" d="M 161.509091 191.915819 
L 252.350847 191.915819 
L 252.481179 181.452208 
L 260.952792 181.452208 
L 261.083125 181.115293 
L 336.936642 181.115293 
L 337.066975 176.56213 
L 365.479461 176.56213 
L 365.609793 171.267755 
L 366.261456 171.267755 
L 366.391788 167.552066 
L 366.522121 158.888542 
L 372.647749 158.888542 
L 372.778081 157.338734 
L 599.817304 157.338734 
L 600.077969 133.061616 
L 606.594595 133.061616 
L 606.724927 126.381077 
L 633.703755 126.381077 
L 633.834088 126.063415 
L 634.616083 126.063415 
L 634.746416 120.037453 
L 637.092401 120.037453 
L 637.222733 118.362505 
L 638.004728 118.362505 
L 638.135061 113.626445 
L 664.462227 113.626445 
L 664.592559 108.043286 
L 665.504887 108.043286 
L 665.635219 106.849645 
L 675.670822 106.849645 
L 675.801155 101.90181 
L 677.495477 101.90181 
L 677.62581 101.333868 
L 686.358087 101.333868 
L 686.48842 93.623332 
L 690.919725 93.623332 
L 691.050058 88.887273 
L 871.690909 88.887273 
L 871.690909 88.887273 
" style="fill:none;stroke:#feffb3;stroke-linecap:square;stroke-width:1.5;"/>
   </g>
   <g id="line2d_14">
    <path clip-path="url(#pe4f4dac7c7)" d="M 161.509091 191.915819 
L 162.682083 191.915819 
L 162.812416 203.400257 
L 163.985408 203.400257 
L 164.115741 214.433498 
L 165.288734 214.433498 
L 165.419066 225.033269 
L 166.592059 225.033269 
L 166.722391 235.216601 
L 167.895384 235.216601 
L 168.025716 244.999853 
L 169.198709 244.999853 
L 169.329041 254.398745 
L 170.502034 254.398745 
L 170.632366 263.428377 
L 171.805359 263.428377 
L 171.935691 272.103256 
L 173.108684 272.103256 
L 173.239016 280.437319 
L 174.412009 280.437319 
L 174.542341 288.443957 
L 175.715334 288.443957 
L 175.845666 296.136033 
L 177.018659 296.136033 
L 177.148991 303.525906 
L 178.321984 303.525906 
L 178.452317 310.625448 
L 179.625309 310.625448 
L 179.755642 317.446066 
L 180.928634 317.446066 
L 181.058967 323.998718 
L 182.231959 323.998718 
L 182.362292 330.293932 
L 183.535284 330.293932 
L 183.665617 336.341822 
L 184.838609 336.341822 
L 184.968942 342.152104 
L 186.141934 342.152104 
L 186.272267 347.734115 
L 187.445259 347.734115 
L 187.575592 353.096821 
L 188.748584 353.096821 
L 188.878917 358.24884 
L 190.051909 358.24884 
L 190.182242 363.198448 
L 191.355234 363.198448 
L 191.485567 367.953597 
L 192.65856 367.953597 
L 192.788892 372.521928 
L 193.961885 372.521928 
L 194.092217 376.91078 
L 195.26521 376.91078 
L 195.395542 381.127205 
L 196.568535 381.127205 
L 196.698867 385.177976 
L 197.87186 385.177976 
L 198.002192 389.069602 
L 199.175185 389.069602 
L 199.305517 392.808336 
L 200.47851 392.808336 
L 200.608842 396.400183 
L 201.781835 396.400183 
L 201.912167 399.850915 
L 203.08516 399.850915 
L 203.215492 403.166076 
L 204.388485 403.166076 
L 204.518817 406.350993 
L 205.69181 406.350993 
L 205.822143 409.410781 
L 206.995135 409.410781 
L 207.125468 412.350358 
L 208.29846 412.350358 
L 208.428793 415.174446 
L 209.601785 415.174446 
L 209.732118 417.887581 
L 210.90511 417.887581 
L 211.035443 420.494125 
L 212.208435 420.494125 
L 212.338768 422.998263 
L 213.51176 422.998263 
L 213.642093 425.40402 
L 214.815085 425.40402 
L 214.945418 427.71526 
L 216.11841 427.71526 
L 216.248743 429.935697 
L 217.421735 429.935697 
L 217.552068 432.068899 
L 218.72506 432.068899 
L 218.855393 434.118292 
L 220.028386 434.118292 
L 220.158718 436.087169 
L 221.331711 436.087169 
L 221.462043 437.978694 
L 222.635036 437.978694 
L 222.765368 439.795905 
L 223.938361 439.795905 
L 224.068693 441.541722 
L 225.241686 441.541722 
L 225.372018 443.218951 
L 226.545011 443.218951 
L 226.675343 444.830284 
L 227.848336 444.830284 
L 227.978668 446.378313 
L 229.151661 446.378313 
L 229.281993 447.865523 
L 230.454986 447.865523 
L 230.585318 449.294304 
L 231.758311 449.294304 
L 231.888643 450.666952 
L 233.061636 450.666952 
L 233.191969 451.985672 
L 234.364961 451.985672 
L 234.495294 453.252582 
L 235.668286 453.252582 
L 235.798619 454.469718 
L 236.971611 454.469718 
L 237.101944 455.639036 
L 238.274936 455.639036 
L 238.405269 456.762414 
L 239.578261 456.762414 
L 239.708594 457.841658 
L 240.881586 457.841658 
L 241.011919 458.8785 
L 242.184911 458.8785 
L 242.315244 459.874608 
L 243.488236 459.874608 
L 243.618569 460.83158 
L 244.791561 460.83158 
L 244.921894 461.750956 
L 246.094886 461.750956 
L 246.225219 462.634211 
L 247.398212 462.634211 
L 247.528544 463.482766 
L 248.701537 463.482766 
L 248.831869 464.297983 
L 250.004862 464.297983 
L 250.135194 465.081171 
L 251.308187 465.081171 
L 251.438519 465.833591 
L 252.611512 465.833591 
L 252.741844 466.556449 
L 253.914837 466.556449 
L 254.045169 467.250908 
L 255.218162 467.250908 
L 255.348494 467.918083 
L 256.521487 467.918083 
L 256.651819 468.559047 
L 257.824812 468.559047 
L 257.955144 469.174829 
L 259.128137 469.174829 
L 259.258469 469.766418 
L 260.431462 469.766418 
L 260.561794 470.334765 
L 261.734787 470.334765 
L 261.86512 470.880783 
L 263.038112 470.880783 
L 263.168445 471.405349 
L 264.341437 471.405349 
L 264.47177 471.909306 
L 265.644762 471.909306 
L 265.775095 472.393464 
L 266.948087 472.393464 
L 267.07842 472.858601 
L 268.251412 472.858601 
L 268.381745 473.305463 
L 269.554737 473.305463 
L 269.68507 473.734769 
L 270.858062 473.734769 
L 270.988395 474.147209 
L 272.161387 474.147209 
L 272.29172 474.543445 
L 273.464712 474.543445 
L 273.595045 474.924114 
L 274.768038 474.924114 
L 274.89837 475.289828 
L 276.071363 475.289828 
L 276.201695 475.641173 
L 277.374688 475.641173 
L 277.50502 475.978715 
L 278.678013 475.978715 
L 278.808345 476.302995 
L 279.981338 476.302995 
L 280.11167 476.614536 
L 281.284663 476.614536 
L 281.414995 476.913836 
L 282.587988 476.913836 
L 282.71832 477.201378 
L 283.891313 477.201378 
L 284.021645 477.477623 
L 285.194638 477.477623 
L 285.32497 477.743015 
L 286.497963 477.743015 
L 286.628295 477.997981 
L 287.801288 477.997981 
L 287.93162 478.242929 
L 289.104613 478.242929 
L 289.234946 478.478254 
L 290.407938 478.478254 
L 290.538271 478.704334 
L 291.711263 478.704334 
L 291.841596 478.921531 
L 293.014588 478.921531 
L 293.275253 479.130195 
L 294.317913 479.130195 
L 294.578578 479.330662 
L 295.621238 479.330662 
L 295.881903 479.523252 
L 296.924563 479.523252 
L 297.185228 479.708276 
L 298.227888 479.708276 
L 298.488553 479.886031 
L 299.531213 479.886031 
L 299.791878 480.056803 
L 300.834538 480.056803 
L 301.095203 480.220865 
L 302.137863 480.220865 
L 302.398529 480.378481 
L 303.441189 480.378481 
L 303.701854 480.529906 
L 304.744514 480.529906 
L 305.005179 480.675381 
L 306.047839 480.675381 
L 306.308504 480.81514 
L 307.351164 480.81514 
L 307.611829 480.949409 
L 308.654489 480.949409 
L 308.915154 481.078403 
L 309.957814 481.078403 
L 310.218479 481.202329 
L 311.261139 481.202329 
L 311.521804 481.321386 
L 312.564464 481.321386 
L 312.825129 481.435766 
L 315.171114 481.545652 
L 315.431779 481.651221 
L 317.777764 481.752642 
L 318.038429 481.850079 
L 320.384414 481.943687 
L 320.645079 482.033618 
L 322.991064 482.120016 
L 323.251729 482.203019 
L 325.597714 482.282762 
L 325.858379 482.359371 
L 328.204364 482.432971 
L 328.465029 482.503679 
L 330.811015 482.571609 
L 331.07168 482.636871 
L 333.417665 482.699568 
L 333.808662 482.759802 
L 336.024315 482.81767 
L 336.415312 482.873264 
L 339.93429 482.977986 
L 340.325287 483.027282 
L 343.844265 483.120139 
L 344.235263 483.16385 
L 347.75424 483.246188 
L 348.145238 483.284947 
L 352.96754 483.392324 
L 353.48887 483.425341 
L 358.180841 483.516812 
L 358.832503 483.544939 
L 364.697466 483.646821 
L 365.349128 483.66984 
L 372.517416 483.772059 
L 373.429744 483.790157 
L 382.944016 483.898428 
L 384.117009 483.911562 
L 397.280592 484.017616 
L 399.23558 484.034187 
L 425.953743 484.14366 
L 430.515381 484.156854 
L 871.690909 484.232727 
L 871.690909 484.232727 
" style="fill:none;stroke:#bfbbd9;stroke-linecap:square;stroke-width:1.5;"/>
   </g>
   <g id="patch_3">
    <path d="M 126 504 
L 126 69.12 
" style="fill:none;stroke:#ffffff;stroke-linecap:square;stroke-linejoin:miter;stroke-width:0.8;"/>
   </g>
   <g id="patch_4">
    <path d="M 907.2 504 
L 907.2 69.12 
" style="fill:none;stroke:#ffffff;stroke-linecap:square;stroke-linejoin:miter;stroke-width:0.8;"/>
   </g>
   <g id="patch_5">
    <path d="M 126 504 
L 907.2 504 
" style="fill:none;stroke:#ffffff;stroke-linecap:square;stroke-linejoin:miter;stroke-width:0.8;"/>
   </g>
   <g id="patch_6">
    <path d="M 126 69.12 
L 907.2 69.12 
" style="fill:none;stroke:#ffffff;stroke-linecap:square;stroke-linejoin:miter;stroke-width:0.8;"/>
   </g>
   <g id="text_13">
    <!-- instance 21 with error 0.0 -->
    <g style="fill:#ffffff;" transform="translate(439.126875 63.12)scale(0.12 -0.12)">
     <defs>
      <path d="M 2834 3397 
L 2834 2853 
Q 2591 2978 2328 3040 
Q 2066 3103 1784 3103 
Q 1356 3103 1142 2972 
Q 928 2841 928 2578 
Q 928 2378 1081 2264 
Q 1234 2150 1697 2047 
L 1894 2003 
Q 2506 1872 2764 1633 
Q 3022 1394 3022 966 
Q 3022 478 2636 193 
Q 2250 -91 1575 -91 
Q 1294 -91 989 -36 
Q 684 19 347 128 
L 347 722 
Q 666 556 975 473 
Q 1284 391 1588 391 
Q 1994 391 2212 530 
Q 2431 669 2431 922 
Q 2431 1156 2273 1281 
Q 2116 1406 1581 1522 
L 1381 1569 
Q 847 1681 609 1914 
Q 372 2147 372 2553 
Q 372 3047 722 3315 
Q 1072 3584 1716 3584 
Q 2034 3584 2315 3537 
Q 2597 3491 2834 3397 
z
" id="DejaVuSans-73" transform="scale(0.015625)"/>
      <path d="M 3122 3366 
L 3122 2828 
Q 2878 2963 2633 3030 
Q 2388 3097 2138 3097 
Q 1578 3097 1268 2742 
Q 959 2388 959 1747 
Q 959 1106 1268 751 
Q 1578 397 2138 397 
Q 2388 397 2633 464 
Q 2878 531 3122 666 
L 3122 134 
Q 2881 22 2623 -34 
Q 2366 -91 2075 -91 
Q 1284 -91 818 406 
Q 353 903 353 1747 
Q 353 2603 823 3093 
Q 1294 3584 2113 3584 
Q 2378 3584 2631 3529 
Q 2884 3475 3122 3366 
z
" id="DejaVuSans-63" transform="scale(0.015625)"/>
      <path id="DejaVuSans-20" transform="scale(0.015625)"/>
      <path d="M 269 3500 
L 844 3500 
L 1563 769 
L 2278 3500 
L 2956 3500 
L 3675 769 
L 4391 3500 
L 4966 3500 
L 4050 0 
L 3372 0 
L 2619 2869 
L 1863 0 
L 1184 0 
L 269 3500 
z
" id="DejaVuSans-77" transform="scale(0.015625)"/>
      <path d="M 3513 2113 
L 3513 0 
L 2938 0 
L 2938 2094 
Q 2938 2591 2744 2837 
Q 2550 3084 2163 3084 
Q 1697 3084 1428 2787 
Q 1159 2491 1159 1978 
L 1159 0 
L 581 0 
L 581 4863 
L 1159 4863 
L 1159 2956 
Q 1366 3272 1645 3428 
Q 1925 3584 2291 3584 
Q 2894 3584 3203 3211 
Q 3513 2838 3513 2113 
z
" id="DejaVuSans-68" transform="scale(0.015625)"/>
      <path d="M 684 794 
L 1344 794 
L 1344 0 
L 684 0 
L 684 794 
z
" id="DejaVuSans-2e" transform="scale(0.015625)"/>
     </defs>
     <use xlink:href="#DejaVuSans-69"/>
     <use x="27.783203" xlink:href="#DejaVuSans-6e"/>
     <use x="91.162109" xlink:href="#DejaVuSans-73"/>
     <use x="143.261719" xlink:href="#DejaVuSans-74"/>
     <use x="182.470703" xlink:href="#DejaVuSans-61"/>
     <use x="243.75" xlink:href="#DejaVuSans-6e"/>
     <use x="307.128906" xlink:href="#DejaVuSans-63"/>
     <use x="362.109375" xlink:href="#DejaVuSans-65"/>
     <use x="423.632812" xlink:href="#DejaVuSans-20"/>
     <use x="455.419922" xlink:href="#DejaVuSans-32"/>
     <use x="519.042969" xlink:href="#DejaVuSans-31"/>
     <use x="582.666016" xlink:href="#DejaVuSans-20"/>
     <use x="614.453125" xlink:href="#DejaVuSans-77"/>
     <use x="696.240234" xlink:href="#DejaVuSans-69"/>
     <use x="724.023438" xlink:href="#DejaVuSans-74"/>
     <use x="763.232422" xlink:href="#DejaVuSans-68"/>
     <use x="826.611328" xlink:href="#DejaVuSans-20"/>
     <use x="858.398438" xlink:href="#DejaVuSans-65"/>
     <use x="919.921875" xlink:href="#DejaVuSans-72"/>
     <use x="959.285156" xlink:href="#DejaVuSans-72"/>
     <use x="998.148438" xlink:href="#DejaVuSans-6f"/>
     <use x="1059.330078" xlink:href="#DejaVuSans-72"/>
     <use x="1100.443359" xlink:href="#DejaVuSans-20"/>
     <use x="1132.230469" xlink:href="#DejaVuSans-30"/>
     <use x="1195.853516" xlink:href="#DejaVuSans-2e"/>
     <use x="1227.640625" xlink:href="#DejaVuSans-30"/>
    </g>
   </g>
   <g id="legend_1">
    <g id="patch_7">
     <path d="M 805.348438 499 
L 900.2 499 
Q 902.2 499 902.2 497 
L 902.2 453.965625 
Q 902.2 451.965625 900.2 451.965625 
L 805.348438 451.965625 
Q 803.348438 451.965625 803.348438 453.965625 
L 803.348438 497 
Q 803.348438 499 805.348438 499 
z
" style="opacity:0.8;stroke:#cccccc;stroke-linejoin:miter;"/>
    </g>
    <g id="line2d_15">
     <path d="M 807.348438 460.064062 
L 827.348438 460.064062 
" style="fill:none;stroke:#8dd3c7;stroke-linecap:square;stroke-width:1.5;"/>
    </g>
    <g id="line2d_16"/>
    <g id="text_14">
     <!-- cost -->
     <g style="fill:#ffffff;" transform="translate(835.348438 463.564062)scale(0.1 -0.1)">
      <use xlink:href="#DejaVuSans-63"/>
      <use x="54.980469" xlink:href="#DejaVuSans-6f"/>
      <use x="116.162109" xlink:href="#DejaVuSans-73"/>
      <use x="168.261719" xlink:href="#DejaVuSans-74"/>
     </g>
    </g>
    <g id="line2d_17">
     <path d="M 807.348438 474.742188 
L 827.348438 474.742188 
" style="fill:none;stroke:#feffb3;stroke-linecap:square;stroke-width:1.5;"/>
    </g>
    <g id="line2d_18"/>
    <g id="text_15">
     <!-- best cost -->
     <g style="fill:#ffffff;" transform="translate(835.348438 478.242188)scale(0.1 -0.1)">
      <defs>
       <path d="M 3116 1747 
Q 3116 2381 2855 2742 
Q 2594 3103 2138 3103 
Q 1681 3103 1420 2742 
Q 1159 2381 1159 1747 
Q 1159 1113 1420 752 
Q 1681 391 2138 391 
Q 2594 391 2855 752 
Q 3116 1113 3116 1747 
z
M 1159 2969 
Q 1341 3281 1617 3432 
Q 1894 3584 2278 3584 
Q 2916 3584 3314 3078 
Q 3713 2572 3713 1747 
Q 3713 922 3314 415 
Q 2916 -91 2278 -91 
Q 1894 -91 1617 61 
Q 1341 213 1159 525 
L 1159 0 
L 581 0 
L 581 4863 
L 1159 4863 
L 1159 2969 
z
" id="DejaVuSans-62" transform="scale(0.015625)"/>
      </defs>
      <use xlink:href="#DejaVuSans-62"/>
      <use x="63.476562" xlink:href="#DejaVuSans-65"/>
      <use x="125" xlink:href="#DejaVuSans-73"/>
      <use x="177.099609" xlink:href="#DejaVuSans-74"/>
      <use x="216.308594" xlink:href="#DejaVuSans-20"/>
      <use x="248.095703" xlink:href="#DejaVuSans-63"/>
      <use x="303.076172" xlink:href="#DejaVuSans-6f"/>
      <use x="364.257812" xlink:href="#DejaVuSans-73"/>
      <use x="416.357422" xlink:href="#DejaVuSans-74"/>
     </g>
    </g>
    <g id="line2d_19">
     <path d="M 807.348438 489.420313 
L 827.348438 489.420313 
" style="fill:none;stroke:#bfbbd9;stroke-linecap:square;stroke-width:1.5;"/>
    </g>
    <g id="line2d_20"/>
    <g id="text_16">
     <!-- temperature -->
     <g style="fill:#ffffff;" transform="translate(835.348438 492.920313)scale(0.1 -0.1)">
      <defs>
       <path d="M 3328 2828 
Q 3544 3216 3844 3400 
Q 4144 3584 4550 3584 
Q 5097 3584 5394 3201 
Q 5691 2819 5691 2113 
L 5691 0 
L 5113 0 
L 5113 2094 
Q 5113 2597 4934 2840 
Q 4756 3084 4391 3084 
Q 3944 3084 3684 2787 
Q 3425 2491 3425 1978 
L 3425 0 
L 2847 0 
L 2847 2094 
Q 2847 2600 2669 2842 
Q 2491 3084 2119 3084 
Q 1678 3084 1418 2786 
Q 1159 2488 1159 1978 
L 1159 0 
L 581 0 
L 581 3500 
L 1159 3500 
L 1159 2956 
Q 1356 3278 1631 3431 
Q 1906 3584 2284 3584 
Q 2666 3584 2933 3390 
Q 3200 3197 3328 2828 
z
" id="DejaVuSans-6d" transform="scale(0.015625)"/>
       <path d="M 1159 525 
L 1159 -1331 
L 581 -1331 
L 581 3500 
L 1159 3500 
L 1159 2969 
Q 1341 3281 1617 3432 
Q 1894 3584 2278 3584 
Q 2916 3584 3314 3078 
Q 3713 2572 3713 1747 
Q 3713 922 3314 415 
Q 2916 -91 2278 -91 
Q 1894 -91 1617 61 
Q 1341 213 1159 525 
z
M 3116 1747 
Q 3116 2381 2855 2742 
Q 2594 3103 2138 3103 
Q 1681 3103 1420 2742 
Q 1159 2381 1159 1747 
Q 1159 1113 1420 752 
Q 1681 391 2138 391 
Q 2594 391 2855 752 
Q 3116 1113 3116 1747 
z
" id="DejaVuSans-70" transform="scale(0.015625)"/>
       <path d="M 544 1381 
L 544 3500 
L 1119 3500 
L 1119 1403 
Q 1119 906 1312 657 
Q 1506 409 1894 409 
Q 2359 409 2629 706 
Q 2900 1003 2900 1516 
L 2900 3500 
L 3475 3500 
L 3475 0 
L 2900 0 
L 2900 538 
Q 2691 219 2414 64 
Q 2138 -91 1772 -91 
Q 1169 -91 856 284 
Q 544 659 544 1381 
z
M 1991 3584 
L 1991 3584 
z
" id="DejaVuSans-75" transform="scale(0.015625)"/>
      </defs>
      <use xlink:href="#DejaVuSans-74"/>
      <use x="39.208984" xlink:href="#DejaVuSans-65"/>
      <use x="100.732422" xlink:href="#DejaVuSans-6d"/>
      <use x="198.144531" xlink:href="#DejaVuSans-70"/>
      <use x="261.621094" xlink:href="#DejaVuSans-65"/>
      <use x="323.144531" xlink:href="#DejaVuSans-72"/>
      <use x="364.257812" xlink:href="#DejaVuSans-61"/>
      <use x="425.537109" xlink:href="#DejaVuSans-74"/>
      <use x="464.746094" xlink:href="#DejaVuSans-75"/>
      <use x="528.125" xlink:href="#DejaVuSans-72"/>
      <use x="566.988281" xlink:href="#DejaVuSans-65"/>
     </g>
    </g>
   </g>
  </g>
 </g>
 <defs>
  <clipPath id="pe4f4dac7c7">
   <rect height="434.88" width="781.2" x="126" y="69.12"/>
  </clipPath>
 </defs>
</svg>
