<?xml version="1.0" encoding="utf-8" standalone="no"?>
<!DOCTYPE svg PUBLIC "-//W3C//DTD SVG 1.1//EN"
  "http://www.w3.org/Graphics/SVG/1.1/DTD/svg11.dtd">
<svg height="576pt" version="1.1" viewBox="0 0 1008 576" width="1008pt" xmlns="http://www.w3.org/2000/svg" xmlns:xlink="http://www.w3.org/1999/xlink">
 <metadata>
  <rdf:RDF xmlns:cc="http://creativecommons.org/ns#" xmlns:dc="http://purl.org/dc/elements/1.1/" xmlns:rdf="http://www.w3.org/1999/02/22-rdf-syntax-ns#">
   <cc:Work>
    <dc:type rdf:resource="http://purl.org/dc/dcmitype/StillImage"/>
    <dc:date>2022-01-07T00:32:36.065401</dc:date>
    <dc:format>image/svg+xml</dc:format>
    <dc:creator>
     <cc:Agent>
      <dc:title>Matplotlib v3.4.3, https://matplotlib.org/</dc:title>
     </cc:Agent>
    </dc:creator>
   </cc:Work>
  </rdf:RDF>
 </metadata>
 <defs>
  <style type="text/css">*{stroke-linecap:butt;stroke-linejoin:round;}</style>
 </defs>
 <g id="figure_1">
  <g id="patch_1">
   <path d="M 0 576 
L 1008 576 
L 1008 0 
L 0 0 
z
"/>
  </g>
  <g id="axes_1">
   <g id="patch_2">
    <path d="M 126 504 
L 907.2 504 
L 907.2 69.12 
L 126 69.12 
z
"/>
   </g>
   <g id="matplotlib.axis_1">
    <g id="xtick_1">
     <g id="line2d_1">
      <defs>
       <path d="M 0 0 
L 0 3.5 
" id="m375ae3c904" style="stroke:#ffffff;stroke-width:0.8;"/>
      </defs>
      <g>
       <use style="fill:#ffffff;stroke:#ffffff;stroke-width:0.8;" x="161.509091" xlink:href="#m375ae3c904" y="504"/>
      </g>
     </g>
     <g id="text_1">
      <!-- 0 -->
      <g style="fill:#ffffff;" transform="translate(158.327841 518.598438)scale(0.1 -0.1)">
       <defs>
        <path d="M 2034 4250 
Q 1547 4250 1301 3770 
Q 1056 3291 1056 2328 
Q 1056 1369 1301 889 
Q 1547 409 2034 409 
Q 2525 409 2770 889 
Q 3016 1369 3016 2328 
Q 3016 3291 2770 3770 
Q 2525 4250 2034 4250 
z
M 2034 4750 
Q 2819 4750 3233 4129 
Q 3647 3509 3647 2328 
Q 3647 1150 3233 529 
Q 2819 -91 2034 -91 
Q 1250 -91 836 529 
Q 422 1150 422 2328 
Q 422 3509 836 4129 
Q 1250 4750 2034 4750 
z
" id="DejaVuSans-30" transform="scale(0.015625)"/>
       </defs>
       <use xlink:href="#DejaVuSans-30"/>
      </g>
     </g>
    </g>
    <g id="xtick_2">
     <g id="line2d_2">
      <g>
       <use style="fill:#ffffff;stroke:#ffffff;stroke-width:0.8;" x="294.851528" xlink:href="#m375ae3c904" y="504"/>
      </g>
     </g>
     <g id="text_2">
      <!-- 500 -->
      <g style="fill:#ffffff;" transform="translate(285.307778 518.598438)scale(0.1 -0.1)">
       <defs>
        <path d="M 691 4666 
L 3169 4666 
L 3169 4134 
L 1269 4134 
L 1269 2991 
Q 1406 3038 1543 3061 
Q 1681 3084 1819 3084 
Q 2600 3084 3056 2656 
Q 3513 2228 3513 1497 
Q 3513 744 3044 326 
Q 2575 -91 1722 -91 
Q 1428 -91 1123 -41 
Q 819 9 494 109 
L 494 744 
Q 775 591 1075 516 
Q 1375 441 1709 441 
Q 2250 441 2565 725 
Q 2881 1009 2881 1497 
Q 2881 1984 2565 2268 
Q 2250 2553 1709 2553 
Q 1456 2553 1204 2497 
Q 953 2441 691 2322 
L 691 4666 
z
" id="DejaVuSans-35" transform="scale(0.015625)"/>
       </defs>
       <use xlink:href="#DejaVuSans-35"/>
       <use x="63.623047" xlink:href="#DejaVuSans-30"/>
       <use x="127.246094" xlink:href="#DejaVuSans-30"/>
      </g>
     </g>
    </g>
    <g id="xtick_3">
     <g id="line2d_3">
      <g>
       <use style="fill:#ffffff;stroke:#ffffff;stroke-width:0.8;" x="428.193964" xlink:href="#m375ae3c904" y="504"/>
      </g>
     </g>
     <g id="text_3">
      <!-- 1000 -->
      <g style="fill:#ffffff;" transform="translate(415.468964 518.598438)scale(0.1 -0.1)">
       <defs>
        <path d="M 794 531 
L 1825 531 
L 1825 4091 
L 703 3866 
L 703 4441 
L 1819 4666 
L 2450 4666 
L 2450 531 
L 3481 531 
L 3481 0 
L 794 0 
L 794 531 
z
" id="DejaVuSans-31" transform="scale(0.015625)"/>
       </defs>
       <use xlink:href="#DejaVuSans-31"/>
       <use x="63.623047" xlink:href="#DejaVuSans-30"/>
       <use x="127.246094" xlink:href="#DejaVuSans-30"/>
       <use x="190.869141" xlink:href="#DejaVuSans-30"/>
      </g>
     </g>
    </g>
    <g id="xtick_4">
     <g id="line2d_4">
      <g>
       <use style="fill:#ffffff;stroke:#ffffff;stroke-width:0.8;" x="561.536401" xlink:href="#m375ae3c904" y="504"/>
      </g>
     </g>
     <g id="text_4">
      <!-- 1500 -->
      <g style="fill:#ffffff;" transform="translate(548.811401 518.598438)scale(0.1 -0.1)">
       <use xlink:href="#DejaVuSans-31"/>
       <use x="63.623047" xlink:href="#DejaVuSans-35"/>
       <use x="127.246094" xlink:href="#DejaVuSans-30"/>
       <use x="190.869141" xlink:href="#DejaVuSans-30"/>
      </g>
     </g>
    </g>
    <g id="xtick_5">
     <g id="line2d_5">
      <g>
       <use style="fill:#ffffff;stroke:#ffffff;stroke-width:0.8;" x="694.878838" xlink:href="#m375ae3c904" y="504"/>
      </g>
     </g>
     <g id="text_5">
      <!-- 2000 -->
      <g style="fill:#ffffff;" transform="translate(682.153838 518.598438)scale(0.1 -0.1)">
       <defs>
        <path d="M 1228 531 
L 3431 531 
L 3431 0 
L 469 0 
L 469 531 
Q 828 903 1448 1529 
Q 2069 2156 2228 2338 
Q 2531 2678 2651 2914 
Q 2772 3150 2772 3378 
Q 2772 3750 2511 3984 
Q 2250 4219 1831 4219 
Q 1534 4219 1204 4116 
Q 875 4013 500 3803 
L 500 4441 
Q 881 4594 1212 4672 
Q 1544 4750 1819 4750 
Q 2544 4750 2975 4387 
Q 3406 4025 3406 3419 
Q 3406 3131 3298 2873 
Q 3191 2616 2906 2266 
Q 2828 2175 2409 1742 
Q 1991 1309 1228 531 
z
" id="DejaVuSans-32" transform="scale(0.015625)"/>
       </defs>
       <use xlink:href="#DejaVuSans-32"/>
       <use x="63.623047" xlink:href="#DejaVuSans-30"/>
       <use x="127.246094" xlink:href="#DejaVuSans-30"/>
       <use x="190.869141" xlink:href="#DejaVuSans-30"/>
      </g>
     </g>
    </g>
    <g id="xtick_6">
     <g id="line2d_6">
      <g>
       <use style="fill:#ffffff;stroke:#ffffff;stroke-width:0.8;" x="828.221275" xlink:href="#m375ae3c904" y="504"/>
      </g>
     </g>
     <g id="text_6">
      <!-- 2500 -->
      <g style="fill:#ffffff;" transform="translate(815.496275 518.598438)scale(0.1 -0.1)">
       <use xlink:href="#DejaVuSans-32"/>
       <use x="63.623047" xlink:href="#DejaVuSans-35"/>
       <use x="127.246094" xlink:href="#DejaVuSans-30"/>
       <use x="190.869141" xlink:href="#DejaVuSans-30"/>
      </g>
     </g>
    </g>
    <g id="text_7">
     <!-- iteration -->
     <g style="fill:#ffffff;" transform="translate(495.477344 532.276562)scale(0.1 -0.1)">
      <defs>
       <path d="M 603 3500 
L 1178 3500 
L 1178 0 
L 603 0 
L 603 3500 
z
M 603 4863 
L 1178 4863 
L 1178 4134 
L 603 4134 
L 603 4863 
z
" id="DejaVuSans-69" transform="scale(0.015625)"/>
       <path d="M 1172 4494 
L 1172 3500 
L 2356 3500 
L 2356 3053 
L 1172 3053 
L 1172 1153 
Q 1172 725 1289 603 
Q 1406 481 1766 481 
L 2356 481 
L 2356 0 
L 1766 0 
Q 1100 0 847 248 
Q 594 497 594 1153 
L 594 3053 
L 172 3053 
L 172 3500 
L 594 3500 
L 594 4494 
L 1172 4494 
z
" id="DejaVuSans-74" transform="scale(0.015625)"/>
       <path d="M 3597 1894 
L 3597 1613 
L 953 1613 
Q 991 1019 1311 708 
Q 1631 397 2203 397 
Q 2534 397 2845 478 
Q 3156 559 3463 722 
L 3463 178 
Q 3153 47 2828 -22 
Q 2503 -91 2169 -91 
Q 1331 -91 842 396 
Q 353 884 353 1716 
Q 353 2575 817 3079 
Q 1281 3584 2069 3584 
Q 2775 3584 3186 3129 
Q 3597 2675 3597 1894 
z
M 3022 2063 
Q 3016 2534 2758 2815 
Q 2500 3097 2075 3097 
Q 1594 3097 1305 2825 
Q 1016 2553 972 2059 
L 3022 2063 
z
" id="DejaVuSans-65" transform="scale(0.015625)"/>
       <path d="M 2631 2963 
Q 2534 3019 2420 3045 
Q 2306 3072 2169 3072 
Q 1681 3072 1420 2755 
Q 1159 2438 1159 1844 
L 1159 0 
L 581 0 
L 581 3500 
L 1159 3500 
L 1159 2956 
Q 1341 3275 1631 3429 
Q 1922 3584 2338 3584 
Q 2397 3584 2469 3576 
Q 2541 3569 2628 3553 
L 2631 2963 
z
" id="DejaVuSans-72" transform="scale(0.015625)"/>
       <path d="M 2194 1759 
Q 1497 1759 1228 1600 
Q 959 1441 959 1056 
Q 959 750 1161 570 
Q 1363 391 1709 391 
Q 2188 391 2477 730 
Q 2766 1069 2766 1631 
L 2766 1759 
L 2194 1759 
z
M 3341 1997 
L 3341 0 
L 2766 0 
L 2766 531 
Q 2569 213 2275 61 
Q 1981 -91 1556 -91 
Q 1019 -91 701 211 
Q 384 513 384 1019 
Q 384 1609 779 1909 
Q 1175 2209 1959 2209 
L 2766 2209 
L 2766 2266 
Q 2766 2663 2505 2880 
Q 2244 3097 1772 3097 
Q 1472 3097 1187 3025 
Q 903 2953 641 2809 
L 641 3341 
Q 956 3463 1253 3523 
Q 1550 3584 1831 3584 
Q 2591 3584 2966 3190 
Q 3341 2797 3341 1997 
z
" id="DejaVuSans-61" transform="scale(0.015625)"/>
       <path d="M 1959 3097 
Q 1497 3097 1228 2736 
Q 959 2375 959 1747 
Q 959 1119 1226 758 
Q 1494 397 1959 397 
Q 2419 397 2687 759 
Q 2956 1122 2956 1747 
Q 2956 2369 2687 2733 
Q 2419 3097 1959 3097 
z
M 1959 3584 
Q 2709 3584 3137 3096 
Q 3566 2609 3566 1747 
Q 3566 888 3137 398 
Q 2709 -91 1959 -91 
Q 1206 -91 779 398 
Q 353 888 353 1747 
Q 353 2609 779 3096 
Q 1206 3584 1959 3584 
z
" id="DejaVuSans-6f" transform="scale(0.015625)"/>
       <path d="M 3513 2113 
L 3513 0 
L 2938 0 
L 2938 2094 
Q 2938 2591 2744 2837 
Q 2550 3084 2163 3084 
Q 1697 3084 1428 2787 
Q 1159 2491 1159 1978 
L 1159 0 
L 581 0 
L 581 3500 
L 1159 3500 
L 1159 2956 
Q 1366 3272 1645 3428 
Q 1925 3584 2291 3584 
Q 2894 3584 3203 3211 
Q 3513 2838 3513 2113 
z
" id="DejaVuSans-6e" transform="scale(0.015625)"/>
      </defs>
      <use xlink:href="#DejaVuSans-69"/>
      <use x="27.783203" xlink:href="#DejaVuSans-74"/>
      <use x="66.992188" xlink:href="#DejaVuSans-65"/>
      <use x="128.515625" xlink:href="#DejaVuSans-72"/>
      <use x="169.628906" xlink:href="#DejaVuSans-61"/>
      <use x="230.908203" xlink:href="#DejaVuSans-74"/>
      <use x="270.117188" xlink:href="#DejaVuSans-69"/>
      <use x="297.900391" xlink:href="#DejaVuSans-6f"/>
      <use x="359.082031" xlink:href="#DejaVuSans-6e"/>
     </g>
    </g>
   </g>
   <g id="matplotlib.axis_2">
    <g id="ytick_1">
     <g id="line2d_7">
      <defs>
       <path d="M 0 0 
L -3.5 0 
" id="md565ab1681" style="stroke:#ffffff;stroke-width:0.8;"/>
      </defs>
      <g>
       <use style="fill:#ffffff;stroke:#ffffff;stroke-width:0.8;" x="126" xlink:href="#md565ab1681" y="484.232727"/>
      </g>
     </g>
     <g id="text_8">
      <!-- 0 -->
      <g style="fill:#ffffff;" transform="translate(112.6375 488.031946)scale(0.1 -0.1)">
       <use xlink:href="#DejaVuSans-30"/>
      </g>
     </g>
    </g>
    <g id="ytick_2">
     <g id="line2d_8">
      <g>
       <use style="fill:#ffffff;stroke:#ffffff;stroke-width:0.8;" x="126" xlink:href="#md565ab1681" y="415.364411"/>
      </g>
     </g>
     <g id="text_9">
      <!-- 5000 -->
      <g style="fill:#ffffff;" transform="translate(93.55 419.16363)scale(0.1 -0.1)">
       <use xlink:href="#DejaVuSans-35"/>
       <use x="63.623047" xlink:href="#DejaVuSans-30"/>
       <use x="127.246094" xlink:href="#DejaVuSans-30"/>
       <use x="190.869141" xlink:href="#DejaVuSans-30"/>
      </g>
     </g>
    </g>
    <g id="ytick_3">
     <g id="line2d_9">
      <g>
       <use style="fill:#ffffff;stroke:#ffffff;stroke-width:0.8;" x="126" xlink:href="#md565ab1681" y="346.496095"/>
      </g>
     </g>
     <g id="text_10">
      <!-- 10000 -->
      <g style="fill:#ffffff;" transform="translate(87.1875 350.295314)scale(0.1 -0.1)">
       <use xlink:href="#DejaVuSans-31"/>
       <use x="63.623047" xlink:href="#DejaVuSans-30"/>
       <use x="127.246094" xlink:href="#DejaVuSans-30"/>
       <use x="190.869141" xlink:href="#DejaVuSans-30"/>
       <use x="254.492188" xlink:href="#DejaVuSans-30"/>
      </g>
     </g>
    </g>
    <g id="ytick_4">
     <g id="line2d_10">
      <g>
       <use style="fill:#ffffff;stroke:#ffffff;stroke-width:0.8;" x="126" xlink:href="#md565ab1681" y="277.627779"/>
      </g>
     </g>
     <g id="text_11">
      <!-- 15000 -->
      <g style="fill:#ffffff;" transform="translate(87.1875 281.426998)scale(0.1 -0.1)">
       <use xlink:href="#DejaVuSans-31"/>
       <use x="63.623047" xlink:href="#DejaVuSans-35"/>
       <use x="127.246094" xlink:href="#DejaVuSans-30"/>
       <use x="190.869141" xlink:href="#DejaVuSans-30"/>
       <use x="254.492188" xlink:href="#DejaVuSans-30"/>
      </g>
     </g>
    </g>
    <g id="ytick_5">
     <g id="line2d_11">
      <g>
       <use style="fill:#ffffff;stroke:#ffffff;stroke-width:0.8;" x="126" xlink:href="#md565ab1681" y="208.759464"/>
      </g>
     </g>
     <g id="text_12">
      <!-- 20000 -->
      <g style="fill:#ffffff;" transform="translate(87.1875 212.558682)scale(0.1 -0.1)">
       <use xlink:href="#DejaVuSans-32"/>
       <use x="63.623047" xlink:href="#DejaVuSans-30"/>
       <use x="127.246094" xlink:href="#DejaVuSans-30"/>
       <use x="190.869141" xlink:href="#DejaVuSans-30"/>
       <use x="254.492188" xlink:href="#DejaVuSans-30"/>
      </g>
     </g>
    </g>
    <g id="ytick_6">
     <g id="line2d_12">
      <g>
       <use style="fill:#ffffff;stroke:#ffffff;stroke-width:0.8;" x="126" xlink:href="#md565ab1681" y="139.891148"/>
      </g>
     </g>
     <g id="text_13">
      <!-- 25000 -->
      <g style="fill:#ffffff;" transform="translate(87.1875 143.690366)scale(0.1 -0.1)">
       <use xlink:href="#DejaVuSans-32"/>
       <use x="63.623047" xlink:href="#DejaVuSans-35"/>
       <use x="127.246094" xlink:href="#DejaVuSans-30"/>
       <use x="190.869141" xlink:href="#DejaVuSans-30"/>
       <use x="254.492188" xlink:href="#DejaVuSans-30"/>
      </g>
     </g>
    </g>
    <g id="ytick_7">
     <g id="line2d_13">
      <g>
       <use style="fill:#ffffff;stroke:#ffffff;stroke-width:0.8;" x="126" xlink:href="#md565ab1681" y="71.022832"/>
      </g>
     </g>
     <g id="text_14">
      <!-- 30000 -->
      <g style="fill:#ffffff;" transform="translate(87.1875 74.82205)scale(0.1 -0.1)">
       <defs>
        <path d="M 2597 2516 
Q 3050 2419 3304 2112 
Q 3559 1806 3559 1356 
Q 3559 666 3084 287 
Q 2609 -91 1734 -91 
Q 1441 -91 1130 -33 
Q 819 25 488 141 
L 488 750 
Q 750 597 1062 519 
Q 1375 441 1716 441 
Q 2309 441 2620 675 
Q 2931 909 2931 1356 
Q 2931 1769 2642 2001 
Q 2353 2234 1838 2234 
L 1294 2234 
L 1294 2753 
L 1863 2753 
Q 2328 2753 2575 2939 
Q 2822 3125 2822 3475 
Q 2822 3834 2567 4026 
Q 2313 4219 1838 4219 
Q 1578 4219 1281 4162 
Q 984 4106 628 3988 
L 628 4550 
Q 988 4650 1302 4700 
Q 1616 4750 1894 4750 
Q 2613 4750 3031 4423 
Q 3450 4097 3450 3541 
Q 3450 3153 3228 2886 
Q 3006 2619 2597 2516 
z
" id="DejaVuSans-33" transform="scale(0.015625)"/>
       </defs>
       <use xlink:href="#DejaVuSans-33"/>
       <use x="63.623047" xlink:href="#DejaVuSans-30"/>
       <use x="127.246094" xlink:href="#DejaVuSans-30"/>
       <use x="190.869141" xlink:href="#DejaVuSans-30"/>
       <use x="254.492188" xlink:href="#DejaVuSans-30"/>
      </g>
     </g>
    </g>
   </g>
   <g id="line2d_14">
    <path clip-path="url(#pf48f2e2420)" d="M 161.509091 228.235423 
L 161.775776 249.281581 
L 162.042461 249.915169 
L 162.57583 319.1416 
L 162.842515 299.376394 
L 163.1092 266.374697 
L 163.375885 338.507371 
L 163.64257 335.573581 
L 163.909255 340.545873 
L 164.17594 323.480304 
L 164.442625 292.365599 
L 164.709309 318.783485 
L 164.975994 320.105757 
L 165.242679 293.260887 
L 165.509364 279.239298 
L 165.776049 302.4066 
L 166.042734 312.874584 
L 166.309419 336.868305 
L 166.576104 321.758596 
L 166.842788 351.950466 
L 167.376158 293.701644 
L 167.642843 296.291093 
L 167.909528 285.341031 
L 168.176213 287.090286 
L 168.709582 346.427227 
L 168.976267 332.22658 
L 169.509637 269.446224 
L 169.776322 299.224883 
L 170.043007 274.3221 
L 170.576377 301.717916 
L 170.843061 288.784447 
L 171.109746 313.68723 
L 171.376431 311.097781 
L 171.643116 313.68723 
L 171.909801 282.834224 
L 172.176486 310.891176 
L 172.443171 302.874904 
L 172.709856 304.610386 
L 172.97654 272.435108 
L 173.243225 274.831726 
L 173.50991 285.781788 
L 174.04328 246.995153 
L 174.309965 244.598535 
L 174.57665 237.711704 
L 174.843335 237.711704 
L 175.110019 275.093425 
L 175.376704 266.843001 
L 175.643389 290.891817 
L 175.910074 304.266044 
L 176.176759 280.589117 
L 176.443444 267.655647 
L 176.710129 292.117673 
L 176.976814 259.115976 
L 177.243498 264.102042 
L 177.510183 248.992334 
L 178.310238 308.907769 
L 178.843608 363.107133 
L 179.110293 372.073788 
L 179.643662 360.04938 
L 179.910347 365.848092 
L 180.177032 339.430206 
L 180.443717 326.496737 
L 180.710402 335.628675 
L 181.243772 395.048258 
L 181.510456 385.034805 
L 181.777141 415.887811 
L 182.043826 410.089098 
L 182.310511 397.747896 
L 182.577196 369.690944 
L 182.843881 369.690944 
L 183.377251 322.061617 
L 183.643935 315.174785 
L 183.91062 315.271201 
L 184.177305 312.681752 
L 184.44399 297.089966 
L 184.710675 290.203134 
L 184.97736 314.196855 
L 185.244045 283.34385 
L 185.51073 307.805876 
L 185.777414 275.630598 
L 186.044099 300.657344 
L 186.310784 301.01546 
L 186.577469 280.534022 
L 186.844154 311.387028 
L 187.110839 280.534022 
L 187.377524 274.17059 
L 187.644209 306.345867 
L 188.177578 266.333376 
L 188.444263 271.498499 
L 188.710948 243.441547 
L 188.977633 271.884162 
L 189.244318 325.697864 
L 189.511003 314.637612 
L 189.777688 314.637612 
L 190.044372 341.482482 
L 190.311057 310.367777 
L 190.577742 297.103739 
L 190.844427 297.103739 
L 191.111112 310.367777 
L 191.377797 297.434307 
L 191.644482 290.547476 
L 191.911166 262.490524 
L 192.177851 281.814973 
L 192.444536 267.614326 
L 192.711221 277.917026 
L 192.977906 277.917026 
L 193.244591 291.938616 
L 193.777961 232.092049 
L 194.31133 201.624706 
L 194.578015 175.330783 
L 195.111385 244.336836 
L 195.644755 302.020937 
L 195.91144 270.906232 
L 196.178124 271.002647 
L 196.711494 241.87135 
L 196.978179 268.716219 
L 197.244864 255.78275 
L 197.511549 280.244775 
L 197.778234 281.580821 
L 198.311603 341.978334 
L 198.578288 313.921382 
L 198.844973 301.99339 
L 199.111658 275.14852 
L 199.378343 301.99339 
L 199.645028 304.541517 
L 199.911713 324.940313 
L 200.178398 296.883361 
L 200.445082 283.977438 
L 200.978452 219.861036 
L 201.245137 202.423578 
L 201.511822 217.533287 
L 201.778507 186.680281 
L 202.045192 199.613751 
L 202.311877 223.290678 
L 202.578561 195.082216 
L 202.845246 225.935222 
L 203.111931 196.156562 
L 203.378616 225.74239 
L 203.645301 218.855559 
L 203.911986 190.412944 
L 204.178671 213.580246 
L 204.445356 222.877468 
L 204.71204 249.295354 
L 204.978725 226.98202 
L 205.24541 229.295995 
L 205.512095 249.777433 
L 205.77878 221.56897 
L 206.045465 236.182827 
L 206.31215 221.98218 
L 206.845519 299.128468 
L 207.112204 270.920006 
L 207.378889 267.765837 
L 207.912259 322.998226 
L 208.178944 333.948288 
L 208.445629 321.014819 
L 208.712314 291.236159 
L 208.978998 276.12645 
L 209.245683 296.607887 
L 209.512368 272.93096 
L 209.779053 294.872406 
L 210.045738 291.470311 
L 210.312423 267.600553 
L 210.579108 310.891176 
L 210.845793 296.869587 
L 211.112477 268.661125 
L 211.379162 267.146022 
L 211.645847 268.785088 
L 211.912532 282.806677 
L 212.179217 287.971801 
L 212.445902 316.180263 
L 212.712587 288.729352 
L 212.979271 286.99387 
L 213.245956 292.090126 
L 213.779326 349.319696 
L 214.046011 324.416913 
L 214.312696 344.540235 
L 214.579381 344.898351 
L 215.11275 296.442603 
L 215.64612 333.452436 
L 215.912805 371.040763 
L 216.17949 340.187758 
L 216.446175 345.862507 
L 216.71286 326.896173 
L 216.979545 337.846235 
L 217.246229 306.993229 
L 217.512914 306.993229 
L 217.779599 280.14836 
L 218.046284 285.313484 
L 218.312969 298.577521 
L 218.579654 290.561249 
L 218.846339 319.389526 
L 219.113024 325.491259 
L 219.379708 337.116231 
L 220.179763 295.850336 
L 220.446448 320.395004 
L 220.713133 292.338052 
L 220.979818 279.404582 
L 221.246503 248.289877 
L 221.513187 253.455001 
L 221.779872 246.568169 
L 222.046557 235.976222 
L 222.579927 260.947873 
L 222.846612 284.941595 
L 223.113297 297.875064 
L 223.646666 242.518712 
L 223.913351 239.929263 
L 224.180036 246.816095 
L 224.446721 213.814398 
L 224.713406 356.495775 
L 224.980091 342.474186 
L 225.246776 389.084262 
L 225.513461 389.084262 
L 225.780145 409.565699 
L 226.04683 404.400576 
L 226.313515 380.723649 
L 226.5802 380.820064 
L 227.11357 401.78358 
L 227.380255 394.896748 
L 227.64694 364.043742 
L 227.913624 387.720669 
L 228.180309 357.5288 
L 228.446994 355.793318 
L 228.713679 345.201371 
L 228.980364 314.086666 
L 229.247049 320.973498 
L 229.513734 314.086666 
L 229.780419 324.912765 
L 230.047103 330.077889 
L 230.313788 329.719774 
L 230.580473 340.091342 
L 230.847158 343.438342 
L 231.113843 359.801454 
L 231.380528 351.840277 
L 231.647213 324.389366 
L 231.913898 315.161012 
L 232.180582 282.51743 
L 232.447267 284.459516 
L 232.713952 270.25887 
L 232.980637 280.203455 
L 233.247322 273.316623 
L 233.514007 249.639696 
L 233.780692 263.840343 
L 234.047377 285.492541 
L 234.314061 277.724195 
L 234.580746 310.725892 
L 234.847431 277.724195 
L 235.380801 348.327993 
L 235.647486 320.11953 
L 235.914171 313.83874 
L 236.180855 313.811193 
L 236.44754 320.091983 
L 236.714225 294.9275 
L 236.98091 296.662982 
L 237.247595 268.60603 
L 237.51428 254.584441 
L 237.780965 264.721857 
L 238.314334 329.568263 
L 238.581019 343.796457 
L 238.847704 375.971735 
L 239.114389 363.038265 
L 239.381074 357.239553 
L 239.647759 357.239553 
L 239.914444 379.497792 
L 240.447813 358.699561 
L 240.981183 306.965682 
L 241.247868 306.965682 
L 241.514553 314.981954 
L 241.781238 314.981954 
L 242.047923 318.439144 
L 242.314608 344.03061 
L 242.581292 342.460412 
L 242.847977 372.239072 
L 243.114662 344.03061 
L 243.381347 366.013376 
L 243.648032 351.812729 
L 243.914717 282.407241 
L 244.181402 340.917762 
L 244.448087 307.916065 
L 244.714771 293.095603 
L 244.981456 294.417875 
L 245.248141 303.38453 
L 245.514826 276.53966 
L 245.781511 273.468133 
L 246.048196 287.66878 
L 246.314881 280.781948 
L 246.84825 259.832207 
L 247.114935 231.775255 
L 247.38162 230.687135 
L 247.648305 210.949476 
L 248.181675 336.028111 
L 248.44836 336.028111 
L 248.715045 309.183242 
L 248.981729 366.082245 
L 249.248414 371.880957 
L 249.515099 340.766252 
L 249.781784 326.000885 
L 250.048469 354.140479 
L 250.315154 336.647926 
L 250.581839 351.413293 
L 250.848524 343.397021 
L 251.115208 374.250027 
L 251.381893 349.788001 
L 251.648578 344.622877 
L 252.181948 281.84252 
L 252.448633 289.858792 
L 252.715318 289.734829 
L 252.982003 294.899953 
L 253.248687 271.223026 
L 253.782057 299.156015 
L 254.048742 331.331292 
L 254.315427 344.264762 
L 254.582112 369.167545 
L 254.848797 369.071129 
L 255.115482 353.961421 
L 255.382166 380.379307 
L 255.648851 350.187437 
L 255.915536 335.518486 
L 256.182221 362.666376 
L 256.715591 305.202653 
L 256.982276 319.155374 
L 257.248961 319.155374 
L 257.515645 305.891336 
L 257.78233 322.089164 
L 258.049015 352.281034 
L 258.582385 300.161492 
L 258.84907 302.750941 
L 259.115755 326.427868 
L 259.382439 296.649208 
L 259.649124 291.484085 
L 259.915809 321.262744 
L 260.182494 321.138782 
L 260.449179 305.051143 
L 260.715864 280.272323 
L 260.982549 275.120973 
L 261.249234 300.023756 
L 261.515918 310.973818 
L 261.782603 284.128949 
L 262.049288 278.330236 
L 262.315973 250.879326 
L 262.582658 251.967445 
L 262.849343 222.188785 
L 263.116028 249.033655 
L 263.382713 262.710902 
L 263.649397 231.596197 
L 263.916082 218.662727 
L 264.716137 320.215946 
L 265.249507 309.747962 
L 265.516192 335.752638 
L 265.782876 349.774227 
L 266.049561 349.677812 
L 266.316246 347.446478 
L 266.582931 362.211845 
L 266.849616 355.325014 
L 267.116301 365.338467 
L 267.382986 360.173343 
L 267.649671 329.058638 
L 267.916355 340.0087 
L 268.449725 278.564389 
L 268.71641 307.007003 
L 268.983095 278.950051 
L 269.24978 265.686013 
L 269.78315 251.871029 
L 270.049834 254.336515 
L 270.316519 287.338212 
L 270.583204 284.597253 
L 270.849889 315.711958 
L 271.116574 305.698505 
L 271.383259 311.070234 
L 271.649944 279.955529 
L 271.916629 285.754241 
L 272.183313 259.336355 
L 272.716683 315.94611 
L 272.983368 292.269183 
L 273.250053 292.393146 
L 273.516738 264.184684 
L 273.783423 253.234622 
L 274.050108 284.349327 
L 274.583477 224.792007 
L 274.850162 255.906713 
L 275.116847 319.4033 
L 275.383532 347.611762 
L 275.650217 338.080387 
L 275.916902 360.72429 
L 276.183587 337.047363 
L 276.716956 330.27072 
L 277.250326 359.291829 
L 278.050381 286.401603 
L 278.317066 280.29987 
L 278.58375 283.068376 
L 278.850435 290.781628 
L 279.11712 263.936758 
L 279.383805 284.418195 
L 279.65049 315.532901 
L 279.917175 310.367777 
L 280.450544 266.994512 
L 280.983914 292.200315 
L 281.250599 287.035191 
L 281.783969 259.405223 
L 282.050654 260.121454 
L 282.317339 288.178405 
L 282.584023 301.442443 
L 282.850708 301.346028 
L 283.117393 296.924682 
L 283.384078 321.827465 
L 283.917448 263.922985 
L 284.184133 273.936438 
L 284.450818 242.821733 
L 284.984187 306.938135 
L 285.250872 360.407495 
L 285.784242 310.684571 
L 286.050927 296.73185 
L 286.317612 310.753439 
L 286.584297 310.629477 
L 286.850981 303.356982 
L 287.117666 279.804018 
L 287.384351 303.480945 
L 287.651036 303.38453 
L 288.184406 281.925162 
L 288.451091 339.788321 
L 288.717776 310.106077 
L 288.98446 295.905431 
L 289.251145 316.290452 
L 290.0512 227.904855 
L 290.317885 255.355766 
L 290.851255 238.455481 
L 291.117939 326.703341 
L 291.384624 305.615863 
L 291.917994 319.926699 
L 292.184679 313.177604 
L 292.451364 309.968341 
L 292.984734 256.705585 
L 293.251418 264.58412 
L 293.518103 244.102683 
L 293.784788 244.254194 
L 294.051473 272.311145 
L 294.318158 272.407561 
L 294.584843 262.394108 
L 294.851528 272.407561 
L 295.118213 247.945535 
L 295.384897 236.995473 
L 295.651582 265.961487 
L 295.918267 265.961487 
L 296.184952 234.846782 
L 296.451637 239.571148 
L 296.718322 272.311145 
L 296.985007 264.349968 
L 297.251692 277.682874 
L 297.518376 310.684571 
L 297.785061 282.241957 
L 298.051746 313.356662 
L 298.318431 327.33693 
L 298.585116 305.023596 
L 298.851801 315.037049 
L 299.118486 287.889159 
L 299.385171 297.544496 
L 299.651855 311.566086 
L 299.91854 306.400962 
L 300.185225 320.078209 
L 300.45191 347.2261 
L 300.718595 320.215946 
L 300.98528 317.970839 
L 301.251965 312.805715 
L 301.785334 286.814813 
L 302.052019 258.757861 
L 302.318704 264.088269 
L 302.585389 290.409739 
L 302.852074 283.522907 
L 303.118759 310.973818 
L 303.385444 310.877402 
L 303.652128 308.246633 
L 304.185498 362.487318 
L 304.452183 364.2228 
L 304.718868 358.424088 
L 304.985553 344.402499 
L 305.252238 359.167866 
L 305.518923 364.966578 
L 306.052292 310.119851 
L 306.318977 310.216267 
L 306.585662 309.858151 
L 306.852347 323.87974 
L 307.119032 293.687871 
L 307.385717 306.73153 
L 307.652402 311.896654 
L 307.919086 325.160691 
L 308.185771 317.144419 
L 308.452456 290.726533 
L 308.719141 301.676595 
L 309.252511 267.173569 
L 309.519196 321.62086 
L 309.785881 337.873782 
L 310.052565 311.028913 
L 310.31925 349.526301 
L 310.585935 294.004665 
L 310.85262 292.985414 
L 311.119305 287.82029 
L 311.38599 287.958027 
L 311.652675 273.75738 
L 311.91936 268.592256 
L 312.186044 276.567207 
L 312.452729 274.239458 
L 312.719414 312.420053 
L 312.986099 318.218765 
L 313.252784 318.122349 
L 313.519469 303.921703 
L 313.786154 317.406119 
L 314.052839 347.597989 
L 314.319523 320.450098 
L 314.586208 352.625376 
L 314.852893 344.609104 
L 315.119578 313.494398 
L 315.386263 337.48812 
L 315.652948 334.898671 
L 315.919633 305.120011 
L 316.186318 305.120011 
L 316.453002 308.398143 
L 316.719687 293.288435 
L 316.986372 305.574542 
L 317.253057 274.459837 
L 317.786427 326.20749 
L 318.053112 312.1859 
L 318.319797 327.295609 
L 318.586481 319.279337 
L 318.853166 332.212807 
L 319.386536 308.329275 
L 319.653221 332.309222 
L 319.919906 392.389941 
L 320.186591 405.419827 
L 320.453276 405.419827 
L 320.71996 392.155789 
L 320.986645 392.128242 
L 321.25333 379.194772 
L 321.520015 392.45881 
L 321.7867 367.996784 
L 322.053385 392.45881 
L 322.32007 361.344104 
L 322.586755 361.977693 
L 322.853439 351.96424 
L 323.120124 365.985829 
L 323.386809 367.72131 
L 323.653494 340.876441 
L 323.920179 371.991146 
L 324.186864 343.934194 
L 324.453549 343.576079 
L 324.720234 370.420948 
L 324.986918 370.544911 
L 325.253603 350.063474 
L 325.520288 320.284814 
L 325.786973 341.234556 
L 326.053658 323.797099 
L 326.587028 314.141761 
L 326.853712 336.4 
L 327.120397 347.350063 
L 327.387082 319.293111 
L 327.653767 349.07177 
L 327.920452 335.807733 
L 328.453822 282.352146 
L 328.720507 278.34401 
L 328.987191 292.544657 
L 329.253876 297.70978 
L 329.520561 297.351665 
L 329.787246 271.291894 
L 330.053931 297.70978 
L 330.320616 267.517911 
L 330.853986 298.976957 
L 331.12067 283.867249 
L 331.387355 285.616504 
L 331.65404 295.561089 
L 331.920725 332.378091 
L 332.18741 325.518806 
L 332.454095 356.371812 
L 332.987465 305.064917 
L 333.254149 290.175587 
L 333.520834 287.710101 
L 333.787519 287.710101 
L 334.320889 345.545713 
L 334.587574 351.344425 
L 335.120944 403.092078 
L 335.387628 373.313418 
L 335.654313 360.04938 
L 335.920998 329.85751 
L 336.187683 315.092143 
L 336.454368 329.85751 
L 336.721053 321.841238 
L 336.987738 308.907769 
L 337.254423 282.062899 
L 337.521107 290.079171 
L 337.787792 257.077474 
L 338.054477 277.558911 
L 338.321162 249.501959 
L 338.587847 234.392251 
L 338.854532 236.981699 
L 339.121217 212.987978 
L 339.387902 206.101147 
L 339.654586 185.619709 
L 339.921271 200.729418 
L 340.187956 228.78637 
L 340.454641 242.050407 
L 340.721326 213.993456 
L 340.988011 213.89704 
L 341.254696 220.783871 
L 341.521381 242.188144 
L 342.05475 307.640592 
L 342.321435 292.076352 
L 342.58812 264.0194 
L 342.854805 296.194677 
L 343.12149 309.458715 
L 343.388175 270.327738 
L 343.65486 280.341191 
L 343.921544 307.943612 
L 344.188229 274.941915 
L 344.454914 289.707282 
L 344.721599 259.928622 
L 344.988284 257.242758 
L 345.254969 246.04477 
L 345.521654 223.731435 
L 346.321708 306.593793 
L 346.588393 327.07523 
L 346.855078 295.960525 
L 347.121763 283.027055 
L 347.388448 314.141761 
L 347.921817 262.407882 
L 348.188502 262.311466 
L 348.455187 262.435429 
L 348.721872 252.421976 
L 348.988557 285.423673 
L 349.255242 270.313964 
L 349.521927 243.469095 
L 349.788612 258.578803 
L 350.055296 247.628741 
L 350.321981 277.407401 
L 350.588666 263.385812 
L 350.855351 291.442764 
L 351.122036 299.720735 
L 351.388721 301.456217 
L 351.922091 352.281034 
L 352.188775 320.105757 
L 352.45546 310.092304 
L 352.722145 338.534918 
L 352.98883 318.053481 
L 353.5222 318.149897 
L 353.788885 294.156175 
L 354.05557 304.169628 
L 354.322254 276.718718 
L 354.588939 285.933298 
L 354.855624 285.933298 
L 355.122309 288.329916 
L 355.388994 318.108576 
L 355.922364 265.148841 
L 356.189049 285.630278 
L 356.455733 277.614006 
L 356.722418 279.349487 
L 356.989103 248.496482 
L 357.255788 248.372519 
L 357.522473 275.217388 
L 357.789158 289.418035 
L 358.055843 265.741108 
L 358.322528 296.594114 
L 358.589212 314.472329 
L 358.855897 312.764394 
L 359.122582 336.758116 
L 359.389267 326.744662 
L 359.655952 354.195573 
L 359.922637 353.837458 
L 360.189322 320.835761 
L 360.456007 338.672655 
L 360.989376 305.34039 
L 361.256061 305.698505 
L 361.522746 290.933138 
L 361.789431 287.627459 
L 362.056116 282.462335 
L 362.322801 310.436645 
L 362.589486 283.591776 
L 362.85617 276.704944 
L 363.122855 298.412237 
L 363.38954 308.453238 
L 363.656225 301.483764 
L 363.92291 300.877723 
L 364.189595 287.613685 
L 364.45628 261.195799 
L 364.722965 288.564068 
L 364.989649 274.377195 
L 365.256334 299.279978 
L 365.523019 292.393146 
L 365.789704 262.201277 
L 366.056389 293.632776 
L 366.323074 275.437767 
L 366.589759 327.887876 
L 366.856444 329.623358 
L 367.123128 324.458234 
L 367.389813 294.266365 
L 367.656498 347.542894 
L 367.923183 377.734764 
L 368.456553 322.158033 
L 368.989923 271.181705 
L 369.256607 284.115175 
L 369.523292 280.919685 
L 369.789977 271.319442 
L 370.590032 307.172287 
L 370.856717 282.269504 
L 371.123401 307.172287 
L 371.390086 296.222225 
L 371.656771 320.684251 
L 371.923456 301.58018 
L 372.190141 314.844217 
L 372.456826 287.393307 
L 372.723511 320.395004 
L 372.990196 335.160371 
L 373.25688 360.063154 
L 373.523565 333.438663 
L 373.79025 339.154733 
L 374.056935 340.766252 
L 374.32362 340.890215 
L 374.590305 327.956745 
L 374.85699 348.438182 
L 375.123675 324.761255 
L 375.390359 323.025773 
L 375.657044 294.968821 
L 376.190414 307.020777 
L 376.457099 293.756739 
L 376.723784 266.91187 
L 377.257154 321.813691 
L 377.790523 263.564869 
L 378.057208 266.91187 
L 378.323893 317.309703 
L 378.590578 301.16697 
L 378.857263 303.756419 
L 379.123948 276.608528 
L 379.390633 280.671759 
L 379.657317 280.354965 
L 379.924002 284.335553 
L 380.190687 284.335553 
L 380.457372 322.640111 
L 380.724057 322.144259 
L 380.990742 352.336129 
L 381.257427 350.600647 
L 381.524112 332.708659 
L 381.790796 304.500196 
L 382.057481 318.452917 
L 382.324166 285.45122 
L 382.590851 293.811834 
L 382.857536 322.020296 
L 383.124221 276.856454 
L 383.657591 338.824165 
L 383.924275 338.46605 
L 384.19096 333.424889 
L 384.457645 357.886915 
L 384.72433 337.405478 
L 384.991015 326.77221 
L 385.2577 333.659041 
L 385.524385 327.942971 
L 385.79107 342.143618 
L 386.324439 309.141921 
L 386.857809 320.11953 
L 387.124494 320.11953 
L 387.391179 326.400321 
L 387.924549 265.190162 
L 388.191233 250.52121 
L 388.724603 311.566086 
L 388.991288 308.976637 
L 389.257973 308.976637 
L 389.524658 323.177284 
L 389.791343 323.535399 
L 390.058028 338.300766 
L 390.324712 314.623839 
L 390.591397 338.300766 
L 390.858082 306.125489 
L 391.124767 308.714937 
L 391.391452 281.870068 
L 391.658137 281.773652 
L 391.924822 273.75738 
L 392.191507 271.856615 
L 392.458191 299.36262 
L 392.724876 357.404837 
L 392.991561 363.203549 
L 393.258246 349.18196 
L 393.791616 293.178245 
L 394.058301 283.522907 
L 394.324985 315.698185 
L 394.59167 330.807893 
L 394.858355 363.80959 
L 395.12504 253.028017 
L 395.391725 283.881023 
L 395.65841 257.036153 
L 395.925095 265.052425 
L 396.19178 259.253713 
L 396.458464 242.325881 
L 396.991834 266.65017 
L 397.258519 295.809015 
L 397.525204 300.974139 
L 397.791889 286.952549 
L 398.058574 282.076673 
L 398.325259 282.434788 
L 398.591943 269.17075 
L 398.858628 280.120813 
L 399.125313 277.531364 
L 399.391998 249.322902 
L 399.658683 277.531364 
L 399.925368 280.120813 
L 400.192053 256.127091 
L 400.458738 250.328379 
L 400.725422 258.289556 
L 400.992107 256.333696 
L 401.258792 242.133049 
L 401.792162 334.733387 
L 402.058847 334.733387 
L 402.325532 358.727108 
L 402.592217 338.245671 
L 402.858901 356.564643 
L 403.125586 328.356181 
L 403.392271 330.587514 
L 403.658956 345.352881 
L 404.192326 314.499876 
L 404.459011 287.655006 
L 404.725696 301.841879 
L 404.99238 273.784927 
L 405.259065 304.899633 
L 405.52575 308.866448 
L 405.792435 281.718557 
L 406.05912 303.398303 
L 406.325805 303.398303 
L 406.59249 303.53604 
L 407.125859 289.21143 
L 407.392544 316.910267 
L 407.659229 316.235357 
L 407.925914 324.251629 
L 408.192599 310.050983 
L 408.459284 277.049286 
L 408.725969 289.569545 
L 408.992654 317.020456 
L 409.259338 317.020456 
L 409.526023 288.577842 
L 409.792708 333.108095 
L 410.059393 320.422551 
L 410.326078 322.970679 
L 410.859448 271.2368 
L 411.126133 280.093265 
L 411.392817 280.093265 
L 411.659502 307.420213 
L 411.926187 274.418516 
L 412.192872 274.542479 
L 412.459557 288.743126 
L 412.726242 280.726854 
L 412.992927 288.743126 
L 413.259612 316.800078 
L 413.526296 305.850015 
L 413.792981 334.058478 
L 414.059666 303.205472 
L 414.326351 300.657344 
L 414.593036 328.108255 
L 414.859721 338.121708 
L 415.126406 358.603145 
L 415.39309 326.427868 
L 415.659775 323.83842 
L 415.92646 347.515347 
L 416.726515 267.338853 
L 416.9932 295.629957 
L 417.259885 269.776791 
L 417.526569 293.453718 
L 417.793254 280.520249 
L 418.326624 349.732906 
L 418.593309 338.300766 
L 418.859994 338.300766 
L 419.126679 335.311881 
L 419.393364 349.512528 
L 419.926733 338.094161 
L 420.193418 310.64325 
L 420.460103 300.987912 
L 420.726788 328.438823 
L 420.993473 338.452276 
L 421.260158 258.730314 
L 421.526843 305.367937 
L 421.793527 307.957386 
L 422.060212 279.514771 
L 422.326897 307.723234 
L 422.593582 277.531364 
L 422.860267 308.646069 
L 423.126952 314.844217 
L 423.393637 317.778008 
L 423.660322 304.51397 
L 423.927006 301.056781 
L 424.193691 295.891657 
L 424.460376 312.695526 
L 424.727061 312.392505 
L 424.993746 349.760454 
L 425.260431 354.925577 
L 425.527116 340.724931 
L 425.793801 340.724931 
L 426.060485 367.101496 
L 426.32717 354.168026 
L 426.593855 370.668874 
L 426.86054 371.605483 
L 427.127225 364.718652 
L 427.39391 350.738384 
L 427.660595 377.15627 
L 427.92728 367.776405 
L 428.193964 392.679188 
L 428.460649 266.112997 
L 428.727334 322.075391 
L 428.994019 327.268062 
L 429.260704 298.825447 
L 429.794074 359.319376 
L 430.060759 377.555706 
L 430.327443 362.473545 
L 430.594128 365.062993 
L 430.860813 350.862347 
L 431.127498 352.597828 
L 431.394183 350.862347 
L 431.660868 325.959564 
L 431.927553 320.890856 
L 432.194238 312.874584 
L 432.460922 286.153677 
L 432.727607 293.288435 
L 432.994292 307.695686 
L 433.260977 312.86081 
L 433.527662 288.398784 
L 433.794347 331.055819 
L 434.061032 318.122349 
L 434.327717 334.59565 
L 434.861086 310.946271 
L 435.127771 280.45138 
L 435.661141 267.338853 
L 436.461196 309.334752 
L 436.72788 278.220047 
L 436.994565 273.34417 
L 437.527935 316.166489 
L 437.79462 316.042526 
L 438.061305 283.040829 
L 438.32799 274.473611 
L 438.594674 248.055725 
L 438.861359 302.076032 
L 439.128044 327.984292 
L 439.394729 328.342407 
L 439.661414 359.457113 
L 439.928099 351.440841 
L 440.194784 362.390903 
L 440.461469 389.841814 
L 440.728153 397.858086 
L 440.994838 368.079426 
L 441.261523 360.063154 
L 441.528208 359.705038 
L 441.794893 332.254128 
L 442.061578 322.240675 
L 442.328263 319.775189 
L 442.594948 320.53274 
L 442.861632 333.796778 
L 443.128317 366.798475 
L 443.395002 376.095698 
L 443.661687 373.767949 
L 443.928372 382.734603 
L 444.195057 352.542734 
L 444.728427 357.11559 
L 444.995111 326.262584 
L 445.261796 357.11559 
L 445.528481 357.019174 
L 445.795166 385.227636 
L 446.061851 358.382767 
L 446.328536 385.530657 
L 446.595221 361.85373 
L 446.861906 385.530657 
L 447.12859 385.406694 
L 447.395275 395.420147 
L 447.66196 364.305442 
L 447.928645 364.401858 
L 448.462015 309.197016 
L 448.7287 334.609424 
L 448.995385 321.675954 
L 449.262069 362.322034 
L 449.528754 280.947232 
L 449.795439 268.013763 
L 450.062124 280.947232 
L 451.128864 359.402018 
L 451.395548 334.939992 
L 451.662233 321.675954 
L 451.928918 291.484085 
L 452.195603 341.633992 
L 452.728973 368.919619 
L 452.995658 374.084743 
L 453.529027 345.710997 
L 453.795712 315.519127 
L 454.062397 315.877242 
L 454.329082 283.701965 
L 454.595767 337.722272 
L 454.862452 331.524124 
L 455.395822 281.677236 
L 455.929191 322.791621 
L 456.195876 322.791621 
L 456.462561 343.217964 
L 456.729246 319.541037 
L 456.995931 333.562626 
L 457.262616 319.885378 
L 457.529301 312.998547 
L 457.795985 341.441161 
L 458.06267 339.70568 
L 458.59604 382.803472 
L 458.862725 354.74652 
L 459.396095 367.432064 
L 459.66278 354.498594 
L 460.196149 302.29641 
L 460.462834 312.309863 
L 460.729519 312.1859 
L 460.996204 309.25211 
L 461.262889 386.728966 
L 461.529574 373.464928 
L 461.796258 388.574637 
L 462.062943 412.568358 
L 462.329628 414.303839 
L 462.862998 356.041244 
L 463.129683 383.189134 
L 463.396368 369.167545 
L 463.663053 364.002421 
L 463.929737 249.832527 
L 464.196422 273.826248 
L 464.729792 250.879326 
L 464.996477 217.877629 
L 465.263162 354.567462 
L 465.529847 340.380589 
L 465.796532 357.308421 
L 466.329901 411.177218 
L 466.596586 382.734603 
L 466.863271 388.533316 
L 467.129956 360.324853 
L 467.663326 332.102617 
L 467.930011 301.910748 
L 468.196695 289.225204 
L 468.46338 320.339909 
L 468.730065 312.323637 
L 468.99675 312.681752 
L 469.263435 285.836883 
L 469.53012 285.836883 
L 470.06349 310.836081 
L 470.330174 297.902612 
L 470.596859 305.918884 
L 470.863544 333.369794 
L 471.130229 322.419732 
L 471.663599 271.112837 
L 471.930284 284.046307 
L 472.196969 288.577842 
L 472.463653 332.047523 
L 472.730338 355.15973 
L 473.263708 356.771248 
L 473.530393 358.520503 
L 473.797078 358.878619 
L 474.330448 302.268863 
L 474.597132 317.378571 
L 474.863817 343.796457 
L 475.130502 316.648567 
L 475.397187 344.994766 
L 475.663872 355.944828 
L 475.930557 379.621755 
L 476.197242 348.76875 
L 476.463927 379.621755 
L 476.730611 379.26364 
L 476.997296 352.845754 
L 477.263981 364.883936 
L 477.530666 336.675474 
L 478.064036 373.010397 
L 478.597406 335.174144 
L 478.86409 326.20749 
L 479.130775 329.719774 
L 479.39746 323.921061 
L 479.664145 350.338947 
L 479.93083 359.553528 
L 480.197515 359.553528 
L 480.4642 387.76199 
L 480.730885 384.249706 
L 480.997569 370.228117 
L 481.264254 348.575919 
L 481.530939 317.819329 
L 481.797624 303.618682 
L 482.064309 279.156656 
L 482.330994 303.701324 
L 482.597679 270.699627 
L 482.864363 251.953671 
L 483.131048 265.217709 
L 483.664418 326.951267 
L 484.197788 375.407015 
L 484.464473 367.390743 
L 484.731158 394.841653 
L 484.997842 384.8282 
L 485.264527 351.826503 
L 485.531212 351.70254 
L 485.797897 352.060655 
L 486.064582 336.950947 
L 486.331267 314.775349 
L 486.597952 315.725732 
L 486.864637 320.450098 
L 487.398006 305.546995 
L 487.664691 317.571403 
L 487.931376 347.763272 
L 488.198061 340.876441 
L 488.464746 315.973658 
L 488.731431 331.35884 
L 488.998116 318.42537 
L 489.2648 288.2335 
L 489.531485 297.062418 
L 490.33154 350.449137 
L 490.598225 350.449137 
L 490.86491 324.031251 
L 491.131595 357.032948 
L 491.398279 351.867824 
L 491.664964 357.032948 
L 491.931649 359.622396 
L 492.198334 352.735565 
L 492.465019 327.832782 
L 492.731704 331.537897 
L 492.998389 331.634313 
L 493.531758 268.34433 
L 493.798443 295.395805 
L 494.065128 281.195158 
L 494.331813 278.040989 
L 494.598498 272.875866 
L 494.865183 246.030996 
L 495.398553 270.82359 
L 495.665237 314.844217 
L 495.931922 328.865807 
L 496.198607 299.087147 
L 496.465292 306.208131 
L 496.731977 330.201852 
L 496.998662 301.759237 
L 497.265347 333.934515 
L 497.532032 339.099638 
L 497.798716 326.166169 
L 498.065401 326.290132 
L 498.332086 320.491419 
L 498.598771 309.541357 
L 499.132141 367.762631 
L 499.398826 357.749178 
L 499.665511 364.63601 
L 499.932195 333.521305 
L 500.19888 333.163189 
L 500.465565 333.163189 
L 500.73225 360.008059 
L 500.998935 351.041404 
L 501.26562 345.876281 
L 501.532305 356.826343 
L 501.79899 220.274246 
L 502.065674 206.073599 
L 502.332359 219.337637 
L 502.599044 211.321365 
L 502.865729 241.389272 
L 503.132414 241.389272 
L 503.399099 256.333696 
L 503.665784 256.333696 
L 503.932469 246.857416 
L 504.199153 246.857416 
L 504.732523 197.35487 
L 504.999208 326.758436 
L 505.265893 334.774708 
L 505.532578 348.975355 
L 505.799263 377.183817 
L 506.065947 375.448335 
L 506.866002 296.001846 
L 507.132687 296.098262 
L 507.399372 280.988553 
L 507.666057 276.140224 
L 507.932742 309.486262 
L 508.199426 324.595971 
L 508.466111 296.153356 
L 508.732796 328.328634 
L 508.999481 298.136764 
L 509.266166 327.915424 
L 509.799536 277.820611 
L 510.066221 308.01248 
L 510.332905 275.837203 
L 510.59959 277.572685 
L 511.13296 224.61295 
L 511.66633 239.213033 
L 511.933015 267.421495 
L 512.1997 259.405223 
L 512.466384 229.213353 
L 512.733069 279.99685 
L 512.999754 248.882144 
L 513.266439 291.635595 
L 513.533124 238.978881 
L 513.799809 225.714843 
L 514.066494 238.648313 
L 514.333179 238.648313 
L 514.599863 264.198458 
L 514.866548 309.803057 
L 515.133233 307.778328 
L 515.399918 332.681111 
L 515.666603 327.515988 
L 515.933288 355.958602 
L 516.466658 303.439624 
L 516.733342 303.439624 
L 517.266712 270.024717 
L 517.533397 314.610065 
L 518.066767 282.297051 
L 518.333452 295.230521 
L 518.600137 327.405798 
L 519.133506 293.990891 
L 519.400191 277.586458 
L 519.666876 302.489242 
L 519.933561 300.75376 
L 520.200246 328.810712 
L 520.466931 328.810712 
L 520.733616 342.832301 
L 521.0003 328.810712 
L 521.266985 341.744182 
L 521.53367 339.512848 
L 521.800355 341.24833 
L 522.06704 317.571403 
L 522.333725 348.424408 
L 522.60041 318.645748 
L 522.867095 342.322676 
L 523.400464 297.021097 
L 523.667149 305.850015 
L 523.933834 298.880542 
L 524.200519 299.183562 
L 524.467204 284.982916 
L 524.733889 251.981219 
L 525.000574 284.982916 
L 525.267258 288.440105 
L 525.533943 280.423833 
L 525.800628 265.162614 
L 526.067313 303.260567 
L 526.333998 318.370275 
L 526.600683 293.908249 
L 526.867368 308.232859 
L 527.134053 284.555932 
L 527.400737 316.731209 
L 527.667422 301.621501 
L 527.934107 301.31848 
L 528.200792 328.46637 
L 528.467477 317.516308 
L 528.734162 317.516308 
L 529.534216 413.863082 
L 530.334271 323.852193 
L 530.600956 320.312362 
L 530.867641 289.197657 
L 531.134326 325.436164 
L 531.40101 311.235518 
L 531.667695 341.014178 
L 531.93438 346.303264 
L 532.201065 348.892713 
L 532.46775 348.796297 
L 532.734435 348.892713 
L 533.00112 319.114053 
L 533.267805 343.107774 
L 533.801174 282.724035 
L 534.067859 277.434948 
L 534.334544 309.610225 
L 534.601229 283.192339 
L 534.867914 297.392986 
L 535.134599 289.376714 
L 535.667968 347.597989 
L 536.201338 293.605229 
L 536.734708 271.305668 
L 537.001393 265.506956 
L 537.268078 262.697129 
L 537.534763 289.115015 
L 538.068132 289.115015 
L 538.334817 300.065077 
L 538.601502 299.941114 
L 538.868187 328.149576 
L 539.134872 328.05316 
L 539.401557 351.96424 
L 539.668242 411.755712 
L 539.934926 411.755712 
L 540.201611 383.69876 
L 540.468296 394.648822 
L 540.734981 366.44036 
L 541.001666 359.553528 
L 541.268351 358.176162 
L 541.535036 345.242692 
L 542.33509 273.110018 
L 542.601775 265.093746 
L 542.86846 277.173249 
L 543.135145 272.008125 
L 543.40183 300.244134 
L 543.9352 272.77945 
L 544.201884 335.752638 
L 544.468569 304.637933 
L 544.735254 335.752638 
L 545.001939 333.769231 
L 545.268624 300.767534 
L 545.535309 286.566887 
L 545.801994 304.761896 
L 546.068679 305.505674 
L 546.602048 262.724676 
L 546.868733 262.724676 
L 547.135418 267.159795 
L 547.668788 331.069593 
L 547.935473 317.805555 
L 548.202158 264.253553 
L 548.468842 250.231963 
L 548.735527 250.231963 
L 549.002212 237.13321 
L 549.268897 259.54296 
L 550.068952 222.932563 
L 550.602321 222.932563 
L 550.869006 250.989515 
L 551.135691 226.431073 
L 551.402376 226.431073 
L 551.669061 223.387094 
L 551.935746 249.24026 
L 552.202431 255.038972 
L 552.469115 227.891082 
L 552.7358 235.32886 
L 553.002485 248.592897 
L 553.26917 235.659428 
L 553.80254 292.585978 
L 554.069225 292.489562 
L 554.33591 305.423032 
L 554.869279 355.793318 
L 555.135964 342.859848 
L 555.669334 289.294072 
L 555.936019 363.988648 
L 556.202704 350.848573 
L 556.469389 350.283853 
L 556.736073 352.281034 
L 557.002758 379.125904 
L 557.269443 376.880796 
L 557.536128 376.880796 
L 557.802813 398.229974 
L 558.069498 366.412812 
L 558.602868 384.786879 
L 558.869552 387.376328 
L 559.136237 384.786879 
L 559.402922 360.324853 
L 559.936292 345.42175 
L 560.202977 333.039227 
L 560.469662 300.03753 
L 560.736347 313.191378 
L 561.003031 303.177925 
L 561.269716 272.06322 
L 561.536401 289.128788 
L 561.803086 289.128788 
L 562.069771 291.718237 
L 562.336456 268.04131 
L 562.603141 267.683195 
L 562.869826 291.676916 
L 563.13651 280.726854 
L 563.403195 280.726854 
L 563.66988 313.466851 
L 563.936565 318.631975 
L 564.20325 318.631975 
L 564.469935 313.466851 
L 564.73662 327.667498 
L 565.003305 351.303104 
L 565.269989 338.039066 
L 565.536674 390.172381 
L 565.803359 395.337505 
L 566.070044 385.324052 
L 566.336729 353.50689 
L 566.603414 359.209187 
L 566.870099 300.313003 
L 567.136784 314.210629 
L 567.670153 359.415792 
L 567.936838 357.804273 
L 568.203523 379.057035 
L 568.470208 379.787039 
L 568.736893 354.760293 
L 569.003578 383.202908 
L 569.270263 358.300125 
L 569.536947 358.300125 
L 569.803632 379.552887 
L 570.337002 321.001045 
L 570.603687 321.001045 
L 570.870372 335.766412 
L 571.137057 302.764715 
L 571.403742 287.999348 
L 571.670426 335.036408 
L 571.937111 308.287954 
L 572.203796 308.287954 
L 572.470481 277.173249 
L 572.737166 291.814653 
L 573.003851 291.814653 
L 573.270536 278.881183 
L 573.53722 280.107039 
L 573.803905 251.664424 
L 574.07059 264.928462 
L 574.60396 326.235037 
L 574.870645 298.026575 
L 575.13733 298.026575 
L 575.404015 297.117513 
L 575.670699 306.896814 
L 575.937384 337.749819 
L 576.204069 322.640111 
L 576.737439 381.63271 
L 577.270809 381.63271 
L 577.804178 324.100119 
L 578.337548 381.63271 
L 578.604233 355.214824 
L 578.870918 341.950787 
L 579.137603 349.967059 
L 579.404288 335.284334 
L 579.670973 335.284334 
L 579.937657 332.047523 
L 580.204342 318.025934 
L 580.471027 324.912765 
L 580.737712 296.704303 
L 581.004397 297.792422 
L 581.271082 297.792422 
L 581.537767 300.381871 
L 581.804452 276.704944 
L 582.071136 276.346829 
L 582.337821 302.764715 
L 582.871191 278.1925 
L 583.137876 308.384369 
L 583.671246 308.384369 
L 583.937931 332.061296 
L 584.204615 326.262584 
L 584.4713 353.713495 
L 584.737985 351.978013 
L 585.00467 351.978013 
L 585.271355 238.083592 
L 585.53804 244.970424 
L 585.804725 244.970424 
L 586.07141 230.769777 
L 586.604779 230.769777 
L 586.871464 244.033815 
L 587.138149 265.686013 
L 587.404834 265.686013 
L 587.938204 275.052104 
L 588.204889 250.590079 
L 588.471573 243.703247 
L 588.738258 223.084073 
L 589.004943 193.305413 
L 589.271628 193.305413 
L 589.538313 230.039773 
L 589.804998 217.574608 
L 590.871737 217.574608 
L 591.138422 204.641138 
L 591.405107 185.840088 
L 592.205162 185.840088 
L 592.471847 176.129655 
L 593.538586 176.129655 
L 593.805271 145.01495 
L 594.071956 161.130136 
L 597.272174 161.130136 
L 597.538859 184.807063 
L 597.805544 172.42454 
L 598.072229 167.259416 
L 598.872283 247.559873 
L 599.138968 247.559873 
L 599.405653 223.924267 
L 600.205708 223.924267 
L 600.472393 215.907995 
L 601.005762 215.907995 
L 601.272447 219.075937 
L 601.539132 219.075937 
L 601.805817 227.615608 
L 602.072502 227.615608 
L 602.339187 233.662247 
L 602.605872 211.899859 
L 602.872557 243.345132 
L 603.139241 250.479889 
L 604.739351 250.479889 
L 605.006036 237.215852 
L 605.27272 236.554716 
L 605.539405 236.554716 
L 605.80609 208.952295 
L 607.139515 208.952295 
L 607.406199 182.534409 
L 607.672884 182.534409 
L 607.939569 174.766063 
L 608.472939 174.766063 
L 608.739624 173.636622 
L 609.006309 173.636622 
L 609.272994 164.311852 
L 609.539678 164.311852 
L 609.806363 185.716125 
L 610.073048 185.716125 
L 610.339733 208.360027 
L 610.606418 211.100986 
L 611.939842 211.100986 
L 612.206527 206.886245 
L 612.473212 194.710327 
L 612.739897 194.710327 
L 613.006582 202.988299 
L 613.273267 202.988299 
L 613.806636 256.49898 
L 614.073321 251.141025 
L 614.340006 239.102844 
L 614.606691 210.894381 
L 615.940115 210.894381 
L 616.473485 238.854918 
L 616.74017 231.968086 
L 617.006855 217.946497 
L 617.27354 191.101627 
L 617.540225 191.101627 
L 617.80691 206.211336 
L 618.073594 201.046212 
L 618.340279 185.619709 
L 618.606964 185.619709 
L 618.873649 199.283183 
L 619.140334 199.283183 
L 619.407019 198.291479 
L 619.940388 198.291479 
L 620.207073 203.456603 
L 620.473758 203.814718 
L 620.740443 203.814718 
L 621.007128 177.396832 
L 621.273813 184.283664 
L 621.540498 184.283664 
L 621.807183 159.380881 
L 622.607237 159.380881 
L 622.873922 152.494049 
L 623.140607 163.829774 
L 623.407292 163.829774 
L 623.673977 166.997717 
L 623.940662 154.064247 
L 624.207346 154.064247 
L 624.474031 184.917253 
L 624.740716 179.752129 
L 625.007401 151.695177 
L 625.274086 164.959215 
L 625.807456 164.959215 
L 626.074141 150.758568 
L 626.340825 150.758568 
L 626.60751 182.479314 
L 626.874195 175.592483 
L 627.407565 175.592483 
L 627.67425 168.319988 
L 627.940935 165.331103 
L 628.20762 165.331103 
L 628.474304 178.264573 
L 629.274359 178.264573 
L 629.541044 183.980643 
L 631.674523 183.980643 
L 631.941208 185.964051 
L 632.474578 185.964051 
L 632.741262 173.030581 
L 633.007947 173.030581 
L 633.274632 159.766544 
L 634.874741 159.766544 
L 635.141426 173.195865 
L 635.408111 157.025585 
L 635.941481 157.025585 
L 636.208166 155.73086 
L 636.741536 155.73086 
L 637.00822 168.994898 
L 637.808275 168.994898 
L 638.07496 158.857482 
L 638.341645 158.857482 
L 638.60833 132.012612 
L 639.941754 132.012612 
L 640.208439 107.550586 
L 648.742355 107.550586 
L 649.00904 129.960336 
L 650.342464 129.960336 
L 650.609149 136.847168 
L 650.875834 136.847168 
L 651.142519 142.012292 
L 653.009313 142.012292 
L 653.275998 112.233632 
L 661.543229 112.233632 
L 661.809914 126.434279 
L 662.343283 126.434279 
L 662.609968 119.547447 
L 662.876653 117.591587 
L 665.810187 117.591587 
L 666.076872 131.833555 
L 667.410296 131.833555 
L 667.676981 104.988685 
L 667.943666 101.448854 
L 668.74372 101.448854 
L 669.010405 100.415829 
L 672.743993 100.415829 
L 673.010678 100.085261 
L 802.086157 100.085261 
L 802.352842 88.887273 
L 871.690909 88.887273 
L 871.690909 88.887273 
" style="fill:none;stroke:#8dd3c7;stroke-linecap:square;stroke-width:1.5;"/>
   </g>
   <g id="line2d_15">
    <path clip-path="url(#pf48f2e2420)" d="M 161.509091 228.235423 
L 193.777961 228.235423 
L 194.044645 218.07046 
L 194.31133 201.624706 
L 194.578015 175.330783 
L 593.538586 175.330783 
L 593.805271 145.01495 
L 638.341645 145.01495 
L 638.60833 132.012612 
L 639.941754 132.012612 
L 640.208439 107.550586 
L 667.410296 107.550586 
L 667.943666 101.448854 
L 668.74372 101.448854 
L 669.010405 100.415829 
L 672.743993 100.415829 
L 673.010678 100.085261 
L 802.086157 100.085261 
L 802.352842 88.887273 
L 871.690909 88.887273 
L 871.690909 88.887273 
" style="fill:none;stroke:#feffb3;stroke-linecap:square;stroke-width:1.5;"/>
   </g>
   <g id="line2d_16">
    <path clip-path="url(#pf48f2e2420)" d="M 161.509091 228.235423 
L 163.375885 228.235423 
L 163.64257 244.167771 
L 165.509364 244.167771 
L 165.776049 259.108546 
L 167.642843 259.108546 
L 167.909528 273.119462 
L 169.776322 273.119462 
L 170.043007 286.258389 
L 171.909801 286.258389 
L 172.176486 298.579596 
L 174.04328 298.579596 
L 174.309965 310.133976 
L 176.176759 310.133976 
L 176.443444 320.969254 
L 178.310238 320.969254 
L 178.576923 331.130182 
L 180.443717 331.130182 
L 180.710402 340.658732 
L 182.577196 340.658732 
L 182.843881 349.594259 
L 184.710675 349.594259 
L 184.97736 357.97367 
L 186.844154 357.97367 
L 187.110839 365.831578 
L 188.977633 365.831578 
L 189.244318 373.200438 
L 191.111112 373.200438 
L 191.377797 380.110686 
L 193.244591 380.110686 
L 193.511276 386.590866 
L 195.37807 386.590866 
L 195.644755 392.667743 
L 197.511549 392.667743 
L 197.778234 398.366416 
L 199.645028 398.366416 
L 199.911713 403.710425 
L 201.778507 403.710425 
L 202.045192 408.721843 
L 203.911986 408.721843 
L 204.178671 413.421367 
L 206.045465 413.421367 
L 206.31215 417.82841 
L 208.178944 417.82841 
L 208.445629 421.961175 
L 210.312423 421.961175 
L 210.579108 425.836732 
L 212.445902 425.836732 
L 212.712587 429.471087 
L 214.579381 429.471087 
L 214.846066 432.879254 
L 216.71286 432.879254 
L 216.979545 436.075309 
L 218.846339 436.075309 
L 219.113024 439.072452 
L 220.979818 439.072452 
L 221.246503 441.883065 
L 223.113297 441.883065 
L 223.379982 444.518755 
L 225.246776 444.518755 
L 225.513461 446.990409 
L 227.380255 446.990409 
L 227.64694 449.308236 
L 229.513734 449.308236 
L 229.780419 451.48181 
L 231.647213 451.48181 
L 231.913898 453.520109 
L 233.780692 453.520109 
L 234.047377 455.431552 
L 235.914171 455.431552 
L 236.180855 457.224033 
L 238.04765 457.224033 
L 238.314334 458.904956 
L 240.181129 458.904956 
L 240.447813 460.481265 
L 242.314608 460.481265 
L 242.581292 461.95947 
L 244.448087 461.95947 
L 244.714771 463.345678 
L 246.581566 463.345678 
L 246.84825 464.645612 
L 248.715045 464.645612 
L 248.981729 465.864643 
L 250.848524 465.864643 
L 251.115208 467.007807 
L 252.982003 467.007807 
L 253.248687 468.079823 
L 255.115482 468.079823 
L 255.382166 469.085122 
L 257.248961 469.085122 
L 257.515645 470.027854 
L 259.382439 470.027854 
L 259.649124 470.911914 
L 261.515918 470.911914 
L 261.782603 471.740953 
L 263.649397 471.740953 
L 263.916082 472.518396 
L 265.782876 472.518396 
L 266.049561 473.247454 
L 267.916355 473.247454 
L 268.18304 473.931138 
L 270.049834 473.931138 
L 270.316519 474.572271 
L 272.183313 474.572271 
L 272.449998 475.173503 
L 274.316792 475.173503 
L 274.583477 475.737317 
L 276.450271 475.737317 
L 276.716956 476.26604 
L 278.58375 476.26604 
L 278.850435 476.761858 
L 280.717229 476.761858 
L 280.983914 477.226818 
L 282.850708 477.226818 
L 283.117393 477.66284 
L 284.984187 477.66284 
L 285.250872 478.071727 
L 287.117666 478.071727 
L 287.384351 478.455165 
L 289.251145 478.455165 
L 289.51783 478.81474 
L 291.384624 478.81474 
L 291.651309 479.151936 
L 293.518103 479.151936 
L 293.784788 479.468146 
L 295.651582 479.468146 
L 295.918267 479.764676 
L 297.785061 479.764676 
L 298.051746 480.042751 
L 299.91854 480.042751 
L 300.185225 480.30352 
L 302.052019 480.30352 
L 302.318704 480.54806 
L 304.185498 480.54806 
L 304.452183 480.77738 
L 306.318977 480.77738 
L 306.585662 480.992429 
L 308.452456 480.992429 
L 308.719141 481.194093 
L 310.585935 481.194093 
L 310.85262 481.383207 
L 312.719414 481.383207 
L 312.986099 481.560551 
L 314.852893 481.560551 
L 315.119578 481.726857 
L 316.986372 481.726857 
L 317.253057 481.882814 
L 319.119851 481.882814 
L 319.386536 482.029064 
L 321.25333 482.029064 
L 321.520015 482.166212 
L 323.386809 482.166212 
L 323.653494 482.294824 
L 325.520288 482.294824 
L 326.053658 482.415432 
L 327.653767 482.415432 
L 328.187137 482.528534 
L 331.920725 482.634597 
L 332.454095 482.734059 
L 336.187683 482.827331 
L 336.721053 482.914797 
L 340.454641 482.996821 
L 340.988011 483.073739 
L 344.721599 483.14587 
L 345.254969 483.213512 
L 348.988557 483.276945 
L 349.521927 483.336429 
L 355.388994 483.444522 
L 356.189049 483.493577 
L 361.789431 483.582718 
L 362.589486 483.623172 
L 370.323347 483.730046 
L 371.390086 483.761331 
L 380.990742 483.868175 
L 382.324166 483.890864 
L 395.925095 484.000232 
L 398.325259 484.028271 
L 425.793801 484.138165 
L 431.394183 484.154744 
L 871.690909 484.232727 
L 871.690909 484.232727 
" style="fill:none;stroke:#bfbbd9;stroke-linecap:square;stroke-width:1.5;"/>
   </g>
   <g id="patch_3">
    <path d="M 126 504 
L 126 69.12 
" style="fill:none;stroke:#ffffff;stroke-linecap:square;stroke-linejoin:miter;stroke-width:0.8;"/>
   </g>
   <g id="patch_4">
    <path d="M 907.2 504 
L 907.2 69.12 
" style="fill:none;stroke:#ffffff;stroke-linecap:square;stroke-linejoin:miter;stroke-width:0.8;"/>
   </g>
   <g id="patch_5">
    <path d="M 126 504 
L 907.2 504 
" style="fill:none;stroke:#ffffff;stroke-linecap:square;stroke-linejoin:miter;stroke-width:0.8;"/>
   </g>
   <g id="patch_6">
    <path d="M 126 69.12 
L 907.2 69.12 
" style="fill:none;stroke:#ffffff;stroke-linecap:square;stroke-linejoin:miter;stroke-width:0.8;"/>
   </g>
   <g id="text_15">
    <!-- instance 9 with error 0.05984277759580736 -->
    <g style="fill:#ffffff;" transform="translate(381.864375 63.12)scale(0.12 -0.12)">
     <defs>
      <path d="M 2834 3397 
L 2834 2853 
Q 2591 2978 2328 3040 
Q 2066 3103 1784 3103 
Q 1356 3103 1142 2972 
Q 928 2841 928 2578 
Q 928 2378 1081 2264 
Q 1234 2150 1697 2047 
L 1894 2003 
Q 2506 1872 2764 1633 
Q 3022 1394 3022 966 
Q 3022 478 2636 193 
Q 2250 -91 1575 -91 
Q 1294 -91 989 -36 
Q 684 19 347 128 
L 347 722 
Q 666 556 975 473 
Q 1284 391 1588 391 
Q 1994 391 2212 530 
Q 2431 669 2431 922 
Q 2431 1156 2273 1281 
Q 2116 1406 1581 1522 
L 1381 1569 
Q 847 1681 609 1914 
Q 372 2147 372 2553 
Q 372 3047 722 3315 
Q 1072 3584 1716 3584 
Q 2034 3584 2315 3537 
Q 2597 3491 2834 3397 
z
" id="DejaVuSans-73" transform="scale(0.015625)"/>
      <path d="M 3122 3366 
L 3122 2828 
Q 2878 2963 2633 3030 
Q 2388 3097 2138 3097 
Q 1578 3097 1268 2742 
Q 959 2388 959 1747 
Q 959 1106 1268 751 
Q 1578 397 2138 397 
Q 2388 397 2633 464 
Q 2878 531 3122 666 
L 3122 134 
Q 2881 22 2623 -34 
Q 2366 -91 2075 -91 
Q 1284 -91 818 406 
Q 353 903 353 1747 
Q 353 2603 823 3093 
Q 1294 3584 2113 3584 
Q 2378 3584 2631 3529 
Q 2884 3475 3122 3366 
z
" id="DejaVuSans-63" transform="scale(0.015625)"/>
      <path id="DejaVuSans-20" transform="scale(0.015625)"/>
      <path d="M 703 97 
L 703 672 
Q 941 559 1184 500 
Q 1428 441 1663 441 
Q 2288 441 2617 861 
Q 2947 1281 2994 2138 
Q 2813 1869 2534 1725 
Q 2256 1581 1919 1581 
Q 1219 1581 811 2004 
Q 403 2428 403 3163 
Q 403 3881 828 4315 
Q 1253 4750 1959 4750 
Q 2769 4750 3195 4129 
Q 3622 3509 3622 2328 
Q 3622 1225 3098 567 
Q 2575 -91 1691 -91 
Q 1453 -91 1209 -44 
Q 966 3 703 97 
z
M 1959 2075 
Q 2384 2075 2632 2365 
Q 2881 2656 2881 3163 
Q 2881 3666 2632 3958 
Q 2384 4250 1959 4250 
Q 1534 4250 1286 3958 
Q 1038 3666 1038 3163 
Q 1038 2656 1286 2365 
Q 1534 2075 1959 2075 
z
" id="DejaVuSans-39" transform="scale(0.015625)"/>
      <path d="M 269 3500 
L 844 3500 
L 1563 769 
L 2278 3500 
L 2956 3500 
L 3675 769 
L 4391 3500 
L 4966 3500 
L 4050 0 
L 3372 0 
L 2619 2869 
L 1863 0 
L 1184 0 
L 269 3500 
z
" id="DejaVuSans-77" transform="scale(0.015625)"/>
      <path d="M 3513 2113 
L 3513 0 
L 2938 0 
L 2938 2094 
Q 2938 2591 2744 2837 
Q 2550 3084 2163 3084 
Q 1697 3084 1428 2787 
Q 1159 2491 1159 1978 
L 1159 0 
L 581 0 
L 581 4863 
L 1159 4863 
L 1159 2956 
Q 1366 3272 1645 3428 
Q 1925 3584 2291 3584 
Q 2894 3584 3203 3211 
Q 3513 2838 3513 2113 
z
" id="DejaVuSans-68" transform="scale(0.015625)"/>
      <path d="M 684 794 
L 1344 794 
L 1344 0 
L 684 0 
L 684 794 
z
" id="DejaVuSans-2e" transform="scale(0.015625)"/>
      <path d="M 2034 2216 
Q 1584 2216 1326 1975 
Q 1069 1734 1069 1313 
Q 1069 891 1326 650 
Q 1584 409 2034 409 
Q 2484 409 2743 651 
Q 3003 894 3003 1313 
Q 3003 1734 2745 1975 
Q 2488 2216 2034 2216 
z
M 1403 2484 
Q 997 2584 770 2862 
Q 544 3141 544 3541 
Q 544 4100 942 4425 
Q 1341 4750 2034 4750 
Q 2731 4750 3128 4425 
Q 3525 4100 3525 3541 
Q 3525 3141 3298 2862 
Q 3072 2584 2669 2484 
Q 3125 2378 3379 2068 
Q 3634 1759 3634 1313 
Q 3634 634 3220 271 
Q 2806 -91 2034 -91 
Q 1263 -91 848 271 
Q 434 634 434 1313 
Q 434 1759 690 2068 
Q 947 2378 1403 2484 
z
M 1172 3481 
Q 1172 3119 1398 2916 
Q 1625 2713 2034 2713 
Q 2441 2713 2670 2916 
Q 2900 3119 2900 3481 
Q 2900 3844 2670 4047 
Q 2441 4250 2034 4250 
Q 1625 4250 1398 4047 
Q 1172 3844 1172 3481 
z
" id="DejaVuSans-38" transform="scale(0.015625)"/>
      <path d="M 2419 4116 
L 825 1625 
L 2419 1625 
L 2419 4116 
z
M 2253 4666 
L 3047 4666 
L 3047 1625 
L 3713 1625 
L 3713 1100 
L 3047 1100 
L 3047 0 
L 2419 0 
L 2419 1100 
L 313 1100 
L 313 1709 
L 2253 4666 
z
" id="DejaVuSans-34" transform="scale(0.015625)"/>
      <path d="M 525 4666 
L 3525 4666 
L 3525 4397 
L 1831 0 
L 1172 0 
L 2766 4134 
L 525 4134 
L 525 4666 
z
" id="DejaVuSans-37" transform="scale(0.015625)"/>
      <path d="M 2113 2584 
Q 1688 2584 1439 2293 
Q 1191 2003 1191 1497 
Q 1191 994 1439 701 
Q 1688 409 2113 409 
Q 2538 409 2786 701 
Q 3034 994 3034 1497 
Q 3034 2003 2786 2293 
Q 2538 2584 2113 2584 
z
M 3366 4563 
L 3366 3988 
Q 3128 4100 2886 4159 
Q 2644 4219 2406 4219 
Q 1781 4219 1451 3797 
Q 1122 3375 1075 2522 
Q 1259 2794 1537 2939 
Q 1816 3084 2150 3084 
Q 2853 3084 3261 2657 
Q 3669 2231 3669 1497 
Q 3669 778 3244 343 
Q 2819 -91 2113 -91 
Q 1303 -91 875 529 
Q 447 1150 447 2328 
Q 447 3434 972 4092 
Q 1497 4750 2381 4750 
Q 2619 4750 2861 4703 
Q 3103 4656 3366 4563 
z
" id="DejaVuSans-36" transform="scale(0.015625)"/>
     </defs>
     <use xlink:href="#DejaVuSans-69"/>
     <use x="27.783203" xlink:href="#DejaVuSans-6e"/>
     <use x="91.162109" xlink:href="#DejaVuSans-73"/>
     <use x="143.261719" xlink:href="#DejaVuSans-74"/>
     <use x="182.470703" xlink:href="#DejaVuSans-61"/>
     <use x="243.75" xlink:href="#DejaVuSans-6e"/>
     <use x="307.128906" xlink:href="#DejaVuSans-63"/>
     <use x="362.109375" xlink:href="#DejaVuSans-65"/>
     <use x="423.632812" xlink:href="#DejaVuSans-20"/>
     <use x="455.419922" xlink:href="#DejaVuSans-39"/>
     <use x="519.042969" xlink:href="#DejaVuSans-20"/>
     <use x="550.830078" xlink:href="#DejaVuSans-77"/>
     <use x="632.617188" xlink:href="#DejaVuSans-69"/>
     <use x="660.400391" xlink:href="#DejaVuSans-74"/>
     <use x="699.609375" xlink:href="#DejaVuSans-68"/>
     <use x="762.988281" xlink:href="#DejaVuSans-20"/>
     <use x="794.775391" xlink:href="#DejaVuSans-65"/>
     <use x="856.298828" xlink:href="#DejaVuSans-72"/>
     <use x="895.662109" xlink:href="#DejaVuSans-72"/>
     <use x="934.525391" xlink:href="#DejaVuSans-6f"/>
     <use x="995.707031" xlink:href="#DejaVuSans-72"/>
     <use x="1036.820312" xlink:href="#DejaVuSans-20"/>
     <use x="1068.607422" xlink:href="#DejaVuSans-30"/>
     <use x="1132.230469" xlink:href="#DejaVuSans-2e"/>
     <use x="1164.017578" xlink:href="#DejaVuSans-30"/>
     <use x="1227.640625" xlink:href="#DejaVuSans-35"/>
     <use x="1291.263672" xlink:href="#DejaVuSans-39"/>
     <use x="1354.886719" xlink:href="#DejaVuSans-38"/>
     <use x="1418.509766" xlink:href="#DejaVuSans-34"/>
     <use x="1482.132812" xlink:href="#DejaVuSans-32"/>
     <use x="1545.755859" xlink:href="#DejaVuSans-37"/>
     <use x="1609.378906" xlink:href="#DejaVuSans-37"/>
     <use x="1673.001953" xlink:href="#DejaVuSans-37"/>
     <use x="1736.625" xlink:href="#DejaVuSans-35"/>
     <use x="1800.248047" xlink:href="#DejaVuSans-39"/>
     <use x="1863.871094" xlink:href="#DejaVuSans-35"/>
     <use x="1927.494141" xlink:href="#DejaVuSans-38"/>
     <use x="1991.117188" xlink:href="#DejaVuSans-30"/>
     <use x="2054.740234" xlink:href="#DejaVuSans-37"/>
     <use x="2118.363281" xlink:href="#DejaVuSans-33"/>
     <use x="2181.986328" xlink:href="#DejaVuSans-36"/>
    </g>
   </g>
   <g id="legend_1">
    <g id="patch_7">
     <path d="M 805.348438 499 
L 900.2 499 
Q 902.2 499 902.2 497 
L 902.2 453.965625 
Q 902.2 451.965625 900.2 451.965625 
L 805.348438 451.965625 
Q 803.348438 451.965625 803.348438 453.965625 
L 803.348438 497 
Q 803.348438 499 805.348438 499 
z
" style="opacity:0.8;stroke:#cccccc;stroke-linejoin:miter;"/>
    </g>
    <g id="line2d_17">
     <path d="M 807.348438 460.064062 
L 827.348438 460.064062 
" style="fill:none;stroke:#8dd3c7;stroke-linecap:square;stroke-width:1.5;"/>
    </g>
    <g id="line2d_18"/>
    <g id="text_16">
     <!-- cost -->
     <g style="fill:#ffffff;" transform="translate(835.348438 463.564062)scale(0.1 -0.1)">
      <use xlink:href="#DejaVuSans-63"/>
      <use x="54.980469" xlink:href="#DejaVuSans-6f"/>
      <use x="116.162109" xlink:href="#DejaVuSans-73"/>
      <use x="168.261719" xlink:href="#DejaVuSans-74"/>
     </g>
    </g>
    <g id="line2d_19">
     <path d="M 807.348438 474.742188 
L 827.348438 474.742188 
" style="fill:none;stroke:#feffb3;stroke-linecap:square;stroke-width:1.5;"/>
    </g>
    <g id="line2d_20"/>
    <g id="text_17">
     <!-- best cost -->
     <g style="fill:#ffffff;" transform="translate(835.348438 478.242188)scale(0.1 -0.1)">
      <defs>
       <path d="M 3116 1747 
Q 3116 2381 2855 2742 
Q 2594 3103 2138 3103 
Q 1681 3103 1420 2742 
Q 1159 2381 1159 1747 
Q 1159 1113 1420 752 
Q 1681 391 2138 391 
Q 2594 391 2855 752 
Q 3116 1113 3116 1747 
z
M 1159 2969 
Q 1341 3281 1617 3432 
Q 1894 3584 2278 3584 
Q 2916 3584 3314 3078 
Q 3713 2572 3713 1747 
Q 3713 922 3314 415 
Q 2916 -91 2278 -91 
Q 1894 -91 1617 61 
Q 1341 213 1159 525 
L 1159 0 
L 581 0 
L 581 4863 
L 1159 4863 
L 1159 2969 
z
" id="DejaVuSans-62" transform="scale(0.015625)"/>
      </defs>
      <use xlink:href="#DejaVuSans-62"/>
      <use x="63.476562" xlink:href="#DejaVuSans-65"/>
      <use x="125" xlink:href="#DejaVuSans-73"/>
      <use x="177.099609" xlink:href="#DejaVuSans-74"/>
      <use x="216.308594" xlink:href="#DejaVuSans-20"/>
      <use x="248.095703" xlink:href="#DejaVuSans-63"/>
      <use x="303.076172" xlink:href="#DejaVuSans-6f"/>
      <use x="364.257812" xlink:href="#DejaVuSans-73"/>
      <use x="416.357422" xlink:href="#DejaVuSans-74"/>
     </g>
    </g>
    <g id="line2d_21">
     <path d="M 807.348438 489.420313 
L 827.348438 489.420313 
" style="fill:none;stroke:#bfbbd9;stroke-linecap:square;stroke-width:1.5;"/>
    </g>
    <g id="line2d_22"/>
    <g id="text_18">
     <!-- temperature -->
     <g style="fill:#ffffff;" transform="translate(835.348438 492.920313)scale(0.1 -0.1)">
      <defs>
       <path d="M 3328 2828 
Q 3544 3216 3844 3400 
Q 4144 3584 4550 3584 
Q 5097 3584 5394 3201 
Q 5691 2819 5691 2113 
L 5691 0 
L 5113 0 
L 5113 2094 
Q 5113 2597 4934 2840 
Q 4756 3084 4391 3084 
Q 3944 3084 3684 2787 
Q 3425 2491 3425 1978 
L 3425 0 
L 2847 0 
L 2847 2094 
Q 2847 2600 2669 2842 
Q 2491 3084 2119 3084 
Q 1678 3084 1418 2786 
Q 1159 2488 1159 1978 
L 1159 0 
L 581 0 
L 581 3500 
L 1159 3500 
L 1159 2956 
Q 1356 3278 1631 3431 
Q 1906 3584 2284 3584 
Q 2666 3584 2933 3390 
Q 3200 3197 3328 2828 
z
" id="DejaVuSans-6d" transform="scale(0.015625)"/>
       <path d="M 1159 525 
L 1159 -1331 
L 581 -1331 
L 581 3500 
L 1159 3500 
L 1159 2969 
Q 1341 3281 1617 3432 
Q 1894 3584 2278 3584 
Q 2916 3584 3314 3078 
Q 3713 2572 3713 1747 
Q 3713 922 3314 415 
Q 2916 -91 2278 -91 
Q 1894 -91 1617 61 
Q 1341 213 1159 525 
z
M 3116 1747 
Q 3116 2381 2855 2742 
Q 2594 3103 2138 3103 
Q 1681 3103 1420 2742 
Q 1159 2381 1159 1747 
Q 1159 1113 1420 752 
Q 1681 391 2138 391 
Q 2594 391 2855 752 
Q 3116 1113 3116 1747 
z
" id="DejaVuSans-70" transform="scale(0.015625)"/>
       <path d="M 544 1381 
L 544 3500 
L 1119 3500 
L 1119 1403 
Q 1119 906 1312 657 
Q 1506 409 1894 409 
Q 2359 409 2629 706 
Q 2900 1003 2900 1516 
L 2900 3500 
L 3475 3500 
L 3475 0 
L 2900 0 
L 2900 538 
Q 2691 219 2414 64 
Q 2138 -91 1772 -91 
Q 1169 -91 856 284 
Q 544 659 544 1381 
z
M 1991 3584 
L 1991 3584 
z
" id="DejaVuSans-75" transform="scale(0.015625)"/>
      </defs>
      <use xlink:href="#DejaVuSans-74"/>
      <use x="39.208984" xlink:href="#DejaVuSans-65"/>
      <use x="100.732422" xlink:href="#DejaVuSans-6d"/>
      <use x="198.144531" xlink:href="#DejaVuSans-70"/>
      <use x="261.621094" xlink:href="#DejaVuSans-65"/>
      <use x="323.144531" xlink:href="#DejaVuSans-72"/>
      <use x="364.257812" xlink:href="#DejaVuSans-61"/>
      <use x="425.537109" xlink:href="#DejaVuSans-74"/>
      <use x="464.746094" xlink:href="#DejaVuSans-75"/>
      <use x="528.125" xlink:href="#DejaVuSans-72"/>
      <use x="566.988281" xlink:href="#DejaVuSans-65"/>
     </g>
    </g>
   </g>
  </g>
 </g>
 <defs>
  <clipPath id="pf48f2e2420">
   <rect height="434.88" width="781.2" x="126" y="69.12"/>
  </clipPath>
 </defs>
</svg>
