<?xml version="1.0" encoding="utf-8" standalone="no"?>
<!DOCTYPE svg PUBLIC "-//W3C//DTD SVG 1.1//EN"
  "http://www.w3.org/Graphics/SVG/1.1/DTD/svg11.dtd">
<svg height="576pt" version="1.1" viewBox="0 0 1008 576" width="1008pt" xmlns="http://www.w3.org/2000/svg" xmlns:xlink="http://www.w3.org/1999/xlink">
 <metadata>
  <rdf:RDF xmlns:cc="http://creativecommons.org/ns#" xmlns:dc="http://purl.org/dc/elements/1.1/" xmlns:rdf="http://www.w3.org/1999/02/22-rdf-syntax-ns#">
   <cc:Work>
    <dc:type rdf:resource="http://purl.org/dc/dcmitype/StillImage"/>
    <dc:date>2022-01-08T03:45:48.100797</dc:date>
    <dc:format>image/svg+xml</dc:format>
    <dc:creator>
     <cc:Agent>
      <dc:title>Matplotlib v3.4.3, https://matplotlib.org/</dc:title>
     </cc:Agent>
    </dc:creator>
   </cc:Work>
  </rdf:RDF>
 </metadata>
 <defs>
  <style type="text/css">*{stroke-linecap:butt;stroke-linejoin:round;}</style>
 </defs>
 <g id="figure_1">
  <g id="patch_1">
   <path d="M 0 576 
L 1008 576 
L 1008 0 
L 0 0 
z
"/>
  </g>
  <g id="axes_1">
   <g id="patch_2">
    <path d="M 126 504 
L 907.2 504 
L 907.2 69.12 
L 126 69.12 
z
"/>
   </g>
   <g id="matplotlib.axis_1">
    <g id="xtick_1">
     <g id="line2d_1">
      <defs>
       <path d="M 0 0 
L 0 3.5 
" id="mc95d459bf8" style="stroke:#ffffff;stroke-width:0.8;"/>
      </defs>
      <g>
       <use style="fill:#ffffff;stroke:#ffffff;stroke-width:0.8;" x="161.509091" xlink:href="#mc95d459bf8" y="504"/>
      </g>
     </g>
     <g id="text_1">
      <!-- 0 -->
      <g style="fill:#ffffff;" transform="translate(158.327841 518.598438)scale(0.1 -0.1)">
       <defs>
        <path d="M 2034 4250 
Q 1547 4250 1301 3770 
Q 1056 3291 1056 2328 
Q 1056 1369 1301 889 
Q 1547 409 2034 409 
Q 2525 409 2770 889 
Q 3016 1369 3016 2328 
Q 3016 3291 2770 3770 
Q 2525 4250 2034 4250 
z
M 2034 4750 
Q 2819 4750 3233 4129 
Q 3647 3509 3647 2328 
Q 3647 1150 3233 529 
Q 2819 -91 2034 -91 
Q 1250 -91 836 529 
Q 422 1150 422 2328 
Q 422 3509 836 4129 
Q 1250 4750 2034 4750 
z
" id="DejaVuSans-30" transform="scale(0.015625)"/>
       </defs>
       <use xlink:href="#DejaVuSans-30"/>
      </g>
     </g>
    </g>
    <g id="xtick_2">
     <g id="line2d_2">
      <g>
       <use style="fill:#ffffff;stroke:#ffffff;stroke-width:0.8;" x="328.296742" xlink:href="#mc95d459bf8" y="504"/>
      </g>
     </g>
     <g id="text_2">
      <!-- 500 -->
      <g style="fill:#ffffff;" transform="translate(318.752992 518.598438)scale(0.1 -0.1)">
       <defs>
        <path d="M 691 4666 
L 3169 4666 
L 3169 4134 
L 1269 4134 
L 1269 2991 
Q 1406 3038 1543 3061 
Q 1681 3084 1819 3084 
Q 2600 3084 3056 2656 
Q 3513 2228 3513 1497 
Q 3513 744 3044 326 
Q 2575 -91 1722 -91 
Q 1428 -91 1123 -41 
Q 819 9 494 109 
L 494 744 
Q 775 591 1075 516 
Q 1375 441 1709 441 
Q 2250 441 2565 725 
Q 2881 1009 2881 1497 
Q 2881 1984 2565 2268 
Q 2250 2553 1709 2553 
Q 1456 2553 1204 2497 
Q 953 2441 691 2322 
L 691 4666 
z
" id="DejaVuSans-35" transform="scale(0.015625)"/>
       </defs>
       <use xlink:href="#DejaVuSans-35"/>
       <use x="63.623047" xlink:href="#DejaVuSans-30"/>
       <use x="127.246094" xlink:href="#DejaVuSans-30"/>
      </g>
     </g>
    </g>
    <g id="xtick_3">
     <g id="line2d_3">
      <g>
       <use style="fill:#ffffff;stroke:#ffffff;stroke-width:0.8;" x="495.084393" xlink:href="#mc95d459bf8" y="504"/>
      </g>
     </g>
     <g id="text_3">
      <!-- 1000 -->
      <g style="fill:#ffffff;" transform="translate(482.359393 518.598438)scale(0.1 -0.1)">
       <defs>
        <path d="M 794 531 
L 1825 531 
L 1825 4091 
L 703 3866 
L 703 4441 
L 1819 4666 
L 2450 4666 
L 2450 531 
L 3481 531 
L 3481 0 
L 794 0 
L 794 531 
z
" id="DejaVuSans-31" transform="scale(0.015625)"/>
       </defs>
       <use xlink:href="#DejaVuSans-31"/>
       <use x="63.623047" xlink:href="#DejaVuSans-30"/>
       <use x="127.246094" xlink:href="#DejaVuSans-30"/>
       <use x="190.869141" xlink:href="#DejaVuSans-30"/>
      </g>
     </g>
    </g>
    <g id="xtick_4">
     <g id="line2d_4">
      <g>
       <use style="fill:#ffffff;stroke:#ffffff;stroke-width:0.8;" x="661.872044" xlink:href="#mc95d459bf8" y="504"/>
      </g>
     </g>
     <g id="text_4">
      <!-- 1500 -->
      <g style="fill:#ffffff;" transform="translate(649.147044 518.598438)scale(0.1 -0.1)">
       <use xlink:href="#DejaVuSans-31"/>
       <use x="63.623047" xlink:href="#DejaVuSans-35"/>
       <use x="127.246094" xlink:href="#DejaVuSans-30"/>
       <use x="190.869141" xlink:href="#DejaVuSans-30"/>
      </g>
     </g>
    </g>
    <g id="xtick_5">
     <g id="line2d_5">
      <g>
       <use style="fill:#ffffff;stroke:#ffffff;stroke-width:0.8;" x="828.659695" xlink:href="#mc95d459bf8" y="504"/>
      </g>
     </g>
     <g id="text_5">
      <!-- 2000 -->
      <g style="fill:#ffffff;" transform="translate(815.934695 518.598438)scale(0.1 -0.1)">
       <defs>
        <path d="M 1228 531 
L 3431 531 
L 3431 0 
L 469 0 
L 469 531 
Q 828 903 1448 1529 
Q 2069 2156 2228 2338 
Q 2531 2678 2651 2914 
Q 2772 3150 2772 3378 
Q 2772 3750 2511 3984 
Q 2250 4219 1831 4219 
Q 1534 4219 1204 4116 
Q 875 4013 500 3803 
L 500 4441 
Q 881 4594 1212 4672 
Q 1544 4750 1819 4750 
Q 2544 4750 2975 4387 
Q 3406 4025 3406 3419 
Q 3406 3131 3298 2873 
Q 3191 2616 2906 2266 
Q 2828 2175 2409 1742 
Q 1991 1309 1228 531 
z
" id="DejaVuSans-32" transform="scale(0.015625)"/>
       </defs>
       <use xlink:href="#DejaVuSans-32"/>
       <use x="63.623047" xlink:href="#DejaVuSans-30"/>
       <use x="127.246094" xlink:href="#DejaVuSans-30"/>
       <use x="190.869141" xlink:href="#DejaVuSans-30"/>
      </g>
     </g>
    </g>
    <g id="text_6">
     <!-- iteration -->
     <g style="fill:#ffffff;" transform="translate(495.477344 532.276562)scale(0.1 -0.1)">
      <defs>
       <path d="M 603 3500 
L 1178 3500 
L 1178 0 
L 603 0 
L 603 3500 
z
M 603 4863 
L 1178 4863 
L 1178 4134 
L 603 4134 
L 603 4863 
z
" id="DejaVuSans-69" transform="scale(0.015625)"/>
       <path d="M 1172 4494 
L 1172 3500 
L 2356 3500 
L 2356 3053 
L 1172 3053 
L 1172 1153 
Q 1172 725 1289 603 
Q 1406 481 1766 481 
L 2356 481 
L 2356 0 
L 1766 0 
Q 1100 0 847 248 
Q 594 497 594 1153 
L 594 3053 
L 172 3053 
L 172 3500 
L 594 3500 
L 594 4494 
L 1172 4494 
z
" id="DejaVuSans-74" transform="scale(0.015625)"/>
       <path d="M 3597 1894 
L 3597 1613 
L 953 1613 
Q 991 1019 1311 708 
Q 1631 397 2203 397 
Q 2534 397 2845 478 
Q 3156 559 3463 722 
L 3463 178 
Q 3153 47 2828 -22 
Q 2503 -91 2169 -91 
Q 1331 -91 842 396 
Q 353 884 353 1716 
Q 353 2575 817 3079 
Q 1281 3584 2069 3584 
Q 2775 3584 3186 3129 
Q 3597 2675 3597 1894 
z
M 3022 2063 
Q 3016 2534 2758 2815 
Q 2500 3097 2075 3097 
Q 1594 3097 1305 2825 
Q 1016 2553 972 2059 
L 3022 2063 
z
" id="DejaVuSans-65" transform="scale(0.015625)"/>
       <path d="M 2631 2963 
Q 2534 3019 2420 3045 
Q 2306 3072 2169 3072 
Q 1681 3072 1420 2755 
Q 1159 2438 1159 1844 
L 1159 0 
L 581 0 
L 581 3500 
L 1159 3500 
L 1159 2956 
Q 1341 3275 1631 3429 
Q 1922 3584 2338 3584 
Q 2397 3584 2469 3576 
Q 2541 3569 2628 3553 
L 2631 2963 
z
" id="DejaVuSans-72" transform="scale(0.015625)"/>
       <path d="M 2194 1759 
Q 1497 1759 1228 1600 
Q 959 1441 959 1056 
Q 959 750 1161 570 
Q 1363 391 1709 391 
Q 2188 391 2477 730 
Q 2766 1069 2766 1631 
L 2766 1759 
L 2194 1759 
z
M 3341 1997 
L 3341 0 
L 2766 0 
L 2766 531 
Q 2569 213 2275 61 
Q 1981 -91 1556 -91 
Q 1019 -91 701 211 
Q 384 513 384 1019 
Q 384 1609 779 1909 
Q 1175 2209 1959 2209 
L 2766 2209 
L 2766 2266 
Q 2766 2663 2505 2880 
Q 2244 3097 1772 3097 
Q 1472 3097 1187 3025 
Q 903 2953 641 2809 
L 641 3341 
Q 956 3463 1253 3523 
Q 1550 3584 1831 3584 
Q 2591 3584 2966 3190 
Q 3341 2797 3341 1997 
z
" id="DejaVuSans-61" transform="scale(0.015625)"/>
       <path d="M 1959 3097 
Q 1497 3097 1228 2736 
Q 959 2375 959 1747 
Q 959 1119 1226 758 
Q 1494 397 1959 397 
Q 2419 397 2687 759 
Q 2956 1122 2956 1747 
Q 2956 2369 2687 2733 
Q 2419 3097 1959 3097 
z
M 1959 3584 
Q 2709 3584 3137 3096 
Q 3566 2609 3566 1747 
Q 3566 888 3137 398 
Q 2709 -91 1959 -91 
Q 1206 -91 779 398 
Q 353 888 353 1747 
Q 353 2609 779 3096 
Q 1206 3584 1959 3584 
z
" id="DejaVuSans-6f" transform="scale(0.015625)"/>
       <path d="M 3513 2113 
L 3513 0 
L 2938 0 
L 2938 2094 
Q 2938 2591 2744 2837 
Q 2550 3084 2163 3084 
Q 1697 3084 1428 2787 
Q 1159 2491 1159 1978 
L 1159 0 
L 581 0 
L 581 3500 
L 1159 3500 
L 1159 2956 
Q 1366 3272 1645 3428 
Q 1925 3584 2291 3584 
Q 2894 3584 3203 3211 
Q 3513 2838 3513 2113 
z
" id="DejaVuSans-6e" transform="scale(0.015625)"/>
      </defs>
      <use xlink:href="#DejaVuSans-69"/>
      <use x="27.783203" xlink:href="#DejaVuSans-74"/>
      <use x="66.992188" xlink:href="#DejaVuSans-65"/>
      <use x="128.515625" xlink:href="#DejaVuSans-72"/>
      <use x="169.628906" xlink:href="#DejaVuSans-61"/>
      <use x="230.908203" xlink:href="#DejaVuSans-74"/>
      <use x="270.117188" xlink:href="#DejaVuSans-69"/>
      <use x="297.900391" xlink:href="#DejaVuSans-6f"/>
      <use x="359.082031" xlink:href="#DejaVuSans-6e"/>
     </g>
    </g>
   </g>
   <g id="matplotlib.axis_2">
    <g id="ytick_1">
     <g id="line2d_6">
      <defs>
       <path d="M 0 0 
L -3.5 0 
" id="m59bc4e939b" style="stroke:#ffffff;stroke-width:0.8;"/>
      </defs>
      <g>
       <use style="fill:#ffffff;stroke:#ffffff;stroke-width:0.8;" x="126" xlink:href="#m59bc4e939b" y="484.232727"/>
      </g>
     </g>
     <g id="text_7">
      <!-- 0 -->
      <g style="fill:#ffffff;" transform="translate(112.6375 488.031946)scale(0.1 -0.1)">
       <use xlink:href="#DejaVuSans-30"/>
      </g>
     </g>
    </g>
    <g id="ytick_2">
     <g id="line2d_7">
      <g>
       <use style="fill:#ffffff;stroke:#ffffff;stroke-width:0.8;" x="126" xlink:href="#m59bc4e939b" y="423.175514"/>
      </g>
     </g>
     <g id="text_8">
      <!-- 5000 -->
      <g style="fill:#ffffff;" transform="translate(93.55 426.974733)scale(0.1 -0.1)">
       <use xlink:href="#DejaVuSans-35"/>
       <use x="63.623047" xlink:href="#DejaVuSans-30"/>
       <use x="127.246094" xlink:href="#DejaVuSans-30"/>
       <use x="190.869141" xlink:href="#DejaVuSans-30"/>
      </g>
     </g>
    </g>
    <g id="ytick_3">
     <g id="line2d_8">
      <g>
       <use style="fill:#ffffff;stroke:#ffffff;stroke-width:0.8;" x="126" xlink:href="#m59bc4e939b" y="362.118301"/>
      </g>
     </g>
     <g id="text_9">
      <!-- 10000 -->
      <g style="fill:#ffffff;" transform="translate(87.1875 365.91752)scale(0.1 -0.1)">
       <use xlink:href="#DejaVuSans-31"/>
       <use x="63.623047" xlink:href="#DejaVuSans-30"/>
       <use x="127.246094" xlink:href="#DejaVuSans-30"/>
       <use x="190.869141" xlink:href="#DejaVuSans-30"/>
       <use x="254.492188" xlink:href="#DejaVuSans-30"/>
      </g>
     </g>
    </g>
    <g id="ytick_4">
     <g id="line2d_9">
      <g>
       <use style="fill:#ffffff;stroke:#ffffff;stroke-width:0.8;" x="126" xlink:href="#m59bc4e939b" y="301.061088"/>
      </g>
     </g>
     <g id="text_10">
      <!-- 15000 -->
      <g style="fill:#ffffff;" transform="translate(87.1875 304.860307)scale(0.1 -0.1)">
       <use xlink:href="#DejaVuSans-31"/>
       <use x="63.623047" xlink:href="#DejaVuSans-35"/>
       <use x="127.246094" xlink:href="#DejaVuSans-30"/>
       <use x="190.869141" xlink:href="#DejaVuSans-30"/>
       <use x="254.492188" xlink:href="#DejaVuSans-30"/>
      </g>
     </g>
    </g>
    <g id="ytick_5">
     <g id="line2d_10">
      <g>
       <use style="fill:#ffffff;stroke:#ffffff;stroke-width:0.8;" x="126" xlink:href="#m59bc4e939b" y="240.003875"/>
      </g>
     </g>
     <g id="text_11">
      <!-- 20000 -->
      <g style="fill:#ffffff;" transform="translate(87.1875 243.803094)scale(0.1 -0.1)">
       <use xlink:href="#DejaVuSans-32"/>
       <use x="63.623047" xlink:href="#DejaVuSans-30"/>
       <use x="127.246094" xlink:href="#DejaVuSans-30"/>
       <use x="190.869141" xlink:href="#DejaVuSans-30"/>
       <use x="254.492188" xlink:href="#DejaVuSans-30"/>
      </g>
     </g>
    </g>
    <g id="ytick_6">
     <g id="line2d_11">
      <g>
       <use style="fill:#ffffff;stroke:#ffffff;stroke-width:0.8;" x="126" xlink:href="#m59bc4e939b" y="178.946662"/>
      </g>
     </g>
     <g id="text_12">
      <!-- 25000 -->
      <g style="fill:#ffffff;" transform="translate(87.1875 182.745881)scale(0.1 -0.1)">
       <use xlink:href="#DejaVuSans-32"/>
       <use x="63.623047" xlink:href="#DejaVuSans-35"/>
       <use x="127.246094" xlink:href="#DejaVuSans-30"/>
       <use x="190.869141" xlink:href="#DejaVuSans-30"/>
       <use x="254.492188" xlink:href="#DejaVuSans-30"/>
      </g>
     </g>
    </g>
    <g id="ytick_7">
     <g id="line2d_12">
      <g>
       <use style="fill:#ffffff;stroke:#ffffff;stroke-width:0.8;" x="126" xlink:href="#m59bc4e939b" y="117.889449"/>
      </g>
     </g>
     <g id="text_13">
      <!-- 30000 -->
      <g style="fill:#ffffff;" transform="translate(87.1875 121.688668)scale(0.1 -0.1)">
       <defs>
        <path d="M 2597 2516 
Q 3050 2419 3304 2112 
Q 3559 1806 3559 1356 
Q 3559 666 3084 287 
Q 2609 -91 1734 -91 
Q 1441 -91 1130 -33 
Q 819 25 488 141 
L 488 750 
Q 750 597 1062 519 
Q 1375 441 1716 441 
Q 2309 441 2620 675 
Q 2931 909 2931 1356 
Q 2931 1769 2642 2001 
Q 2353 2234 1838 2234 
L 1294 2234 
L 1294 2753 
L 1863 2753 
Q 2328 2753 2575 2939 
Q 2822 3125 2822 3475 
Q 2822 3834 2567 4026 
Q 2313 4219 1838 4219 
Q 1578 4219 1281 4162 
Q 984 4106 628 3988 
L 628 4550 
Q 988 4650 1302 4700 
Q 1616 4750 1894 4750 
Q 2613 4750 3031 4423 
Q 3450 4097 3450 3541 
Q 3450 3153 3228 2886 
Q 3006 2619 2597 2516 
z
" id="DejaVuSans-33" transform="scale(0.015625)"/>
       </defs>
       <use xlink:href="#DejaVuSans-33"/>
       <use x="63.623047" xlink:href="#DejaVuSans-30"/>
       <use x="127.246094" xlink:href="#DejaVuSans-30"/>
       <use x="190.869141" xlink:href="#DejaVuSans-30"/>
       <use x="254.492188" xlink:href="#DejaVuSans-30"/>
      </g>
     </g>
    </g>
   </g>
   <g id="line2d_13">
    <path clip-path="url(#p1cad983378)" d="M 161.509091 164.195239 
L 161.842666 190.901664 
L 162.176242 187.262654 
L 162.509817 197.04402 
L 162.843392 171.522105 
L 163.176967 178.50705 
L 163.510543 182.14606 
L 163.844118 177.481289 
L 164.177693 194.479617 
L 164.511269 177.481289 
L 164.844844 303.845297 
L 165.511995 313.455702 
L 165.84557 336.852826 
L 166.179145 311.245431 
L 166.51272 332.786416 
L 166.846296 337.81753 
L 167.179871 316.276546 
L 167.513446 318.792103 
L 167.847022 289.472429 
L 168.180597 316.178854 
L 168.514172 311.892638 
L 168.847748 292.598558 
L 169.181323 202.441478 
L 169.514898 229.147903 
L 170.182049 210.818527 
L 170.515624 237.268512 
L 170.849199 232.017592 
L 171.182775 212.723512 
L 171.51635 217.974433 
L 171.849925 244.949509 
L 172.183501 254.730875 
L 172.517076 270.019601 
L 172.850651 256.354997 
L 173.851377 187.775535 
L 174.184952 192.806649 
L 174.852103 233.153256 
L 175.185678 244.912875 
L 175.519254 230.22251 
L 175.852829 226.5835 
L 176.186404 253.289925 
L 176.51998 235.21699 
L 176.853555 208.767005 
L 177.18713 228.061084 
L 177.520705 232.725855 
L 177.854281 206.01943 
L 178.187856 232.469415 
L 178.521431 213.175336 
L 178.855007 238.697251 
L 179.855733 294.759984 
L 180.189308 297.275541 
L 180.522883 316.56962 
L 180.856458 307.362193 
L 181.190034 280.387116 
L 181.523609 275.356001 
L 181.857184 248.906017 
L 182.19076 244.6198 
L 182.85791 298.044862 
L 183.191486 308.668817 
L 183.525061 289.374738 
L 183.858636 283.647571 
L 184.192211 279.99635 
L 184.859362 252.948004 
L 185.192937 241.48146 
L 185.526513 245.767676 
L 185.860088 241.212808 
L 186.527239 223.848137 
L 186.860814 227.487146 
L 187.194389 256.8923 
L 187.527964 260.775539 
L 187.86154 279.984138 
L 188.195115 267.076643 
L 188.52869 294.674504 
L 188.862266 279.984138 
L 189.195841 293.648743 
L 189.529416 322.968416 
L 190.196567 271.973432 
L 190.530142 261.960049 
L 190.863717 273.426594 
L 191.197293 269.140377 
L 191.864443 295.590362 
L 192.198019 273.316691 
L 192.531594 288.605417 
L 192.865169 298.386782 
L 193.198745 302.672999 
L 193.53232 320.831414 
L 194.199471 283.378919 
L 194.533046 253.973765 
L 194.866621 250.334756 
L 195.200196 238.575136 
L 195.533772 233.568445 
L 196.200922 262.314181 
L 196.534498 285.711305 
L 196.868073 281.425088 
L 197.535224 338.428103 
L 198.202374 375.880597 
L 198.535949 383.463903 
L 198.869525 410.170328 
L 199.2031 392.011913 
L 199.536675 395.650923 
L 199.870251 390.986152 
L 200.203826 409.144567 
L 200.537401 405.493345 
L 200.870977 410.817534 
L 201.204552 408.301977 
L 201.538127 378.982303 
L 201.871702 384.013418 
L 202.205278 374.80599 
L 202.538853 377.321547 
L 202.872428 406.641221 
L 203.206004 388.482806 
L 203.539579 377.858851 
L 203.873154 375.343294 
L 204.20673 370.312179 
L 204.87388 379.898162 
L 205.207455 390.522117 
L 205.874606 357.758816 
L 206.208181 352.727702 
L 206.541757 345.144396 
L 206.875332 367.418067 
L 207.208907 341.896152 
L 207.542483 326.607426 
L 207.876058 304.333755 
L 208.209633 308.998526 
L 208.543209 297.361021 
L 208.876784 289.887618 
L 209.210359 290.962225 
L 209.87751 323.811006 
L 210.211085 193.869045 
L 210.54466 208.55941 
L 210.878236 183.037495 
L 211.211811 208.55941 
L 211.545386 179.239737 
L 211.878962 194.479617 
L 212.212537 199.034485 
L 212.879687 257.759313 
L 213.213263 267.540678 
L 213.546838 265.025121 
L 213.880413 278.689725 
L 214.213989 274.134857 
L 214.547564 248.527462 
L 214.881139 236.596883 
L 215.214715 254.755298 
L 215.54829 281.730375 
L 215.881865 272.522947 
L 216.21544 245.54787 
L 216.549016 263.620805 
L 216.882591 251.861186 
L 217.216166 229.587515 
L 217.549742 255.19491 
L 217.883317 237.036495 
L 218.216892 241.591363 
L 218.550468 264.988487 
L 219.217618 274.659949 
L 219.551193 271.008728 
L 219.884769 274.659949 
L 220.218344 249.138034 
L 220.551919 253.424251 
L 220.885495 280.399327 
L 221.21907 292.158947 
L 221.552645 287.494175 
L 221.886221 313.01609 
L 222.219796 309.364869 
L 222.886946 283.940646 
L 223.220522 278.933954 
L 223.554097 282.585175 
L 223.887672 255.87875 
L 224.221248 241.689054 
L 224.888398 283.244593 
L 225.221974 278.958377 
L 225.555549 260.885442 
L 226.2227 306.629506 
L 226.556275 297.422078 
L 226.88985 324.128503 
L 227.223425 334.752458 
L 227.557001 324.971093 
L 227.890576 329.257309 
L 228.224151 305.860185 
L 228.557727 300.535996 
L 228.891302 323.93312 
L 229.224877 328.597891 
L 229.558453 303.075976 
L 229.892028 316.74058 
L 230.225603 306.116625 
L 230.559178 301.561757 
L 230.892754 282.267678 
L 231.226329 255.561253 
L 231.559904 264.768681 
L 231.89348 235.449007 
L 232.227055 229.050211 
L 232.56063 243.740577 
L 232.894206 214.335423 
L 233.227781 233.629502 
L 233.561356 242.568278 
L 234.228507 252.82589 
L 234.562082 247.819198 
L 234.895657 274.525623 
L 235.229233 257.527295 
L 235.562808 253.876074 
L 235.896383 269.689892 
L 236.229959 297.287752 
L 236.563534 270.837768 
L 237.230684 283.745263 
L 237.897835 274.049377 
L 238.23141 274.049377 
L 238.564986 292.207792 
L 239.232136 347.049381 
L 239.565712 337.841953 
L 239.899287 364.291938 
L 240.566438 354.754801 
L 240.900013 363.962229 
L 241.567163 337.512244 
L 242.234314 286.871392 
L 242.567889 316.276546 
L 242.901465 300.633688 
L 243.23504 312.100232 
L 243.568615 284.502372 
L 243.902191 269.213646 
L 244.235766 288.507725 
L 244.569341 298.472262 
L 244.902916 316.288757 
L 245.236492 308.705451 
L 245.570067 325.703779 
L 245.903642 306.4097 
L 246.237218 303.894143 
L 246.570793 308.900834 
L 246.904368 335.350819 
L 247.237944 337.866376 
L 247.571519 352.556742 
L 247.905094 195.493167 
L 248.238669 187.384769 
L 248.572245 196.946328 
L 249.239395 222.578146 
L 249.906546 170.984801 
L 250.573697 226.83994 
L 250.907272 211.282562 
L 251.240847 224.947166 
L 251.907998 201.501197 
L 252.241573 204.370886 
L 252.575148 212.454861 
L 252.908724 197.166134 
L 253.242299 206.031642 
L 253.575874 233.006718 
L 253.90945 222.382763 
L 254.243025 245.963059 
L 254.5766 245.963059 
L 254.910175 233.617291 
L 255.577326 257.06326 
L 256.244477 247.184203 
L 256.578052 267.784907 
L 256.911627 238.379753 
L 257.245203 267.381929 
L 257.578778 192.562421 
L 257.912353 196.20143 
L 258.579504 242.201935 
L 258.913079 249.785241 
L 259.246654 235.094875 
L 259.58023 239.759646 
L 259.913805 251.519265 
L 260.24738 256.55038 
L 260.580956 283.525457 
L 260.914531 275.942151 
L 261.248106 249.235726 
L 261.581682 232.237398 
L 261.915257 239.820703 
L 262.248832 234.496514 
L 262.582407 223.872559 
L 262.915983 206.898654 
L 263.249558 233.348639 
L 263.583133 203.943485 
L 264.250284 194.357503 
L 264.583859 198.008724 
L 264.917435 212.003037 
L 265.25101 195.493167 
L 265.584585 224.898321 
L 265.91816 230.149241 
L 266.251736 249.943989 
L 266.585311 245.657773 
L 266.918886 255.439139 
L 267.252462 282.145564 
L 267.919612 237.329569 
L 268.253188 242.653758 
L 268.920338 235.363527 
L 269.253913 224.739572 
L 269.587489 251.494843 
L 269.921064 262.118798 
L 270.254639 257.454027 
L 270.588215 279.422412 
L 270.92179 271.839106 
L 271.255365 286.529471 
L 271.588941 275.905516 
L 271.922516 279.544526 
L 272.256091 292.378752 
L 272.589667 264.780892 
L 273.256817 313.919737 
L 273.590392 294.625658 
L 273.923968 267.027798 
L 274.257543 294.625658 
L 274.924694 260.738905 
L 275.258269 288.336765 
L 275.591844 273.048039 
L 275.92542 295.32171 
L 276.258995 298.972931 
L 276.59257 289.191566 
L 276.926145 286.676009 
L 277.259721 299.363698 
L 277.593296 287.604078 
L 277.926871 304.602407 
L 278.260447 297.019101 
L 278.594022 282.328735 
L 278.927597 282.328735 
L 279.261173 252.923581 
L 279.594748 240.492333 
L 279.928323 247.465067 
L 280.261898 229.575303 
L 280.595474 258.980457 
L 280.929049 255.341447 
L 281.262624 260.055064 
L 281.5962 274.745429 
L 281.929775 272.229872 
L 282.26335 281.4373 
L 282.596926 276.882432 
L 282.930501 215.361184 
L 283.264076 215.361184 
L 283.597651 211.404676 
L 283.931227 231.455865 
L 284.264802 240.663293 
L 284.598377 225.374567 
L 284.931953 230.381258 
L 285.265528 204.773863 
L 285.599103 232.371723 
L 285.932679 247.66045 
L 286.266254 252.691564 
L 286.599829 271.985643 
L 286.933405 266.734723 
L 287.26698 240.028298 
L 287.600555 269.433452 
L 287.93413 247.892467 
L 288.267706 252.667141 
L 288.601281 233.373062 
L 288.934856 223.591696 
L 289.268432 196.78758 
L 289.602007 196.78758 
L 289.935582 211.477945 
L 290.269158 238.18437 
L 290.936308 183.880085 
L 291.269883 189.619463 
L 291.603459 200.243418 
L 291.937034 204.529634 
L 292.270609 199.864863 
L 292.604185 214.555229 
L 292.93776 210.904007 
L 293.271335 218.487313 
L 293.604911 231.394808 
L 293.938486 217.730204 
L 294.272061 228.305313 
L 294.605636 232.970084 
L 294.939212 228.305313 
L 295.272787 198.900159 
L 295.606362 224.507554 
L 295.939938 221.991997 
L 296.273513 233.922577 
L 296.607088 213.566102 
L 296.940664 215.776373 
L 297.274239 210.745259 
L 297.607814 190.02244 
L 297.941389 187.287077 
L 298.274965 190.938299 
L 298.60854 217.913375 
L 298.942115 231.57798 
L 299.275691 236.8289 
L 299.609266 211.306985 
L 299.942841 232.84797 
L 300.276417 211.306985 
L 300.609992 221.08835 
L 300.943567 215.361184 
L 301.277142 203.601565 
L 301.610718 204.737229 
L 301.944293 204.737229 
L 302.277868 208.498353 
L 302.611444 223.188719 
L 303.278594 201.940808 
L 303.61217 214.017925 
L 303.945745 219.745092 
L 304.27932 200.451012 
L 304.612896 221.991997 
L 304.946471 216.985306 
L 305.280046 226.766671 
L 305.613621 223.11545 
L 305.947197 241.188385 
L 306.280772 235.937465 
L 306.614347 225.31351 
L 307.281498 262.875907 
L 307.615073 241.334922 
L 307.948649 232.127495 
L 308.282224 228.488485 
L 308.949374 204.602903 
L 309.28295 209.975938 
L 309.616525 219.183365 
L 309.9501 207.423746 
L 310.283676 202.868878 
L 310.617251 208.119798 
L 311.284402 255.182698 
L 311.951552 202.685706 
L 312.285127 197.361517 
L 312.618703 197.740072 
L 312.952278 202.29494 
L 313.285853 185.345458 
L 313.619429 196.812003 
L 314.286579 180.021269 
L 314.620155 194.16212 
L 314.95373 213.456199 
L 315.287305 208.791428 
L 315.62088 221.564597 
L 315.954456 248.271022 
L 316.288031 218.951348 
L 316.621606 223.237564 
L 316.955182 248.759479 
L 317.288757 256.342785 
L 317.955908 211.526791 
L 318.289483 196.238065 
L 318.623058 207.997684 
L 318.956634 194.33308 
L 319.290209 216.606751 
L 319.957359 206.324716 
L 320.290935 219.989321 
L 320.62451 219.989321 
L 320.958085 194.907018 
L 321.291661 186.04151 
L 321.958811 239.381092 
L 322.292387 257.771524 
L 322.625962 228.36637 
L 322.959537 220.599893 
L 323.960263 237.024283 
L 324.293838 215.483298 
L 324.960989 255.097218 
L 325.62814 245.511236 
L 326.29529 255.207121 
L 326.628865 229.599726 
L 326.962441 232.115283 
L 327.296016 236.670151 
L 327.629591 229.086845 
L 327.963167 214.39648 
L 328.296742 233.690559 
L 328.630317 238.697251 
L 329.631043 223.432947 
L 329.964618 219.781726 
L 330.298194 196.970751 
L 330.631769 265.464733 
L 330.965344 244.045863 
L 331.29892 255.805482 
L 331.96607 265.025121 
L 332.633221 289.31368 
L 332.966796 316.911541 
L 333.300371 289.936464 
L 333.633947 278.176845 
L 333.967522 248.857171 
L 334.301097 260.61679 
L 334.634673 245.926425 
L 334.968248 218.328564 
L 335.301823 200.170149 
L 335.635399 209.951515 
L 335.968974 233.898154 
L 336.302549 204.493 
L 336.636125 215.959545 
L 337.63685 267.479621 
L 337.970426 262.155432 
L 338.304001 244.082497 
L 338.637576 234.875069 
L 338.971152 237.390626 
L 339.304727 213.993502 
L 339.638302 240.443487 
L 339.971878 213.993502 
L 340.639028 249.064766 
L 340.972603 272.46189 
L 341.306179 267.797118 
L 341.639754 256.037499 
L 341.973329 282.487484 
L 342.306905 272.706118 
L 342.64048 299.681195 
L 343.307631 290.095213 
L 343.974781 297.385444 
L 344.308356 293.099228 
L 344.641932 297.654096 
L 344.975507 290.07079 
L 345.309082 304.761155 
L 345.642658 277.163295 
L 345.976233 282.194409 
L 346.976959 235.21699 
L 347.310534 244.998355 
L 347.644109 219.47644 
L 347.977685 214.22552 
L 348.31126 196.067105 
L 348.644835 203.65041 
L 348.978411 189.985806 
L 349.311986 277.224352 
L 349.645561 279.739909 
L 349.979137 252.142049 
L 350.312712 278.848474 
L 350.646287 249.5288 
L 350.979863 253.16781 
L 351.313438 249.5288 
L 351.647013 252.74041 
L 351.980588 248.454193 
L 352.314164 268.7374 
L 352.647739 263.486479 
L 352.981314 268.517594 
L 353.31489 249.223514 
L 353.648465 249.199091 
L 353.98204 239.417726 
L 354.982766 322.907359 
L 355.649917 314.603578 
L 355.983492 309.938807 
L 356.317067 315.665974 
L 356.650643 289.215989 
L 356.984218 318.535663 
L 357.317793 290.937802 
L 357.651369 303.845297 
L 357.984944 175.857167 
L 358.318519 164.207451 
L 358.652094 181.450008 
L 358.98567 183.538164 
L 359.319245 178.50705 
L 359.65282 204.114445 
L 360.319971 195.798453 
L 360.987122 246.47594 
L 361.320697 255.683367 
L 361.654272 282.389792 
L 362.321423 234.398823 
L 362.988573 285.344962 
L 363.322149 276.137534 
L 363.655724 293.135862 
L 363.989299 273.841783 
L 364.322875 277.493004 
L 364.65645 282.743924 
L 364.990025 257.136529 
L 365.3236 243.471925 
L 365.657176 272.791599 
L 365.990751 263.010233 
L 366.324326 258.724017 
L 366.657902 231.675671 
L 367.325052 252.093203 
L 367.658628 242.311838 
L 367.992203 276.100899 
L 368.325778 290.534825 
L 368.992929 299.424755 
L 369.326504 285.760151 
L 369.660079 266.466071 
L 369.993655 268.981628 
L 370.32723 291.2553 
L 370.660805 301.879255 
L 371.327956 292.561924 
L 371.661531 270.288253 
L 371.995107 283.952857 
L 372.328682 278.701937 
L 372.662257 266.942318 
L 372.995832 286.236397 
L 373.329408 266.942318 
L 373.662983 240.333584 
L 373.996558 284.368046 
L 374.330134 309.975441 
L 374.663709 177.432443 
L 374.997284 205.030303 
L 375.664435 225.99735 
L 375.99801 231.248271 
L 376.331585 226.241579 
L 376.998736 251.372728 
L 377.332311 256.696917 
L 377.665887 242.006552 
L 377.999462 259.00488 
L 378.333037 255.353658 
L 378.666613 244.729703 
L 379.333763 208.498353 
L 379.667338 197.031809 
L 380.000914 215.190224 
L 380.334489 220.221338 
L 380.668064 202.062923 
L 381.00164 206.349139 
L 381.335215 189.350811 
L 381.66879 199.132177 
L 382.002366 237.415049 
L 382.335941 227.633684 
L 382.669516 246.927763 
L 383.003092 253.326559 
L 383.336667 248.771691 
L 383.670242 265.770019 
L 384.003817 256.562591 
L 384.337393 268.322211 
L 384.670968 263.291096 
L 385.671694 295.162961 
L 386.005269 269.641046 
L 386.338845 252.642718 
L 386.67242 260.226024 
L 387.005995 257.710467 
L 387.33957 238.416388 
L 387.673146 240.931945 
L 388.006721 245.486813 
L 388.340296 233.727194 
L 388.673872 230.088184 
L 389.007447 200.76851 
L 389.341022 230.173664 
L 389.674598 230.173664 
L 390.008173 233.812674 
L 390.341748 251.885609 
L 390.675323 241.261654 
L 391.342474 282.096718 
L 391.676049 270.630173 
L 392.009625 252.557238 
L 392.3432 269.555566 
L 392.676775 265.26935 
L 393.010351 243.728365 
L 393.343926 270.703442 
L 393.677501 270.617962 
L 394.344652 290.449345 
L 394.678227 316.05674 
L 395.011802 290.449345 
L 395.345378 279.825389 
L 395.678953 309.145063 
L 396.012528 184.222005 
L 396.346104 273.206788 
L 396.679679 267.149912 
L 397.013254 272.156603 
L 397.346829 297.763999 
L 397.680405 309.230543 
L 398.681131 278.775205 
L 399.014706 283.232382 
L 399.348281 296.896986 
L 399.681857 324.494847 
L 400.015432 306.421911 
L 400.349007 310.708128 
L 400.682583 322.467747 
L 401.016158 296.860352 
L 401.349733 314.847807 
L 401.683308 285.528133 
L 402.016884 296.994678 
L 402.350459 291.743757 
L 402.684034 265.293773 
L 403.01761 291.951352 
L 403.351185 295.260653 
L 403.68476 173.634684 
L 404.018336 160.568441 
L 404.685486 187.018426 
L 405.019061 200.68303 
L 405.352637 187.018426 
L 405.686212 187.018426 
L 406.019787 194.601731 
L 406.686938 174.770349 
L 407.020513 163.010729 
L 407.687664 193.612605 
L 408.021239 211.68554 
L 408.354814 220.892967 
L 409.021965 187.531306 
L 409.35554 205.604241 
L 409.689116 200.353321 
L 410.022691 185.662955 
L 410.356266 195.639704 
L 410.689842 195.639704 
L 411.023417 261.789089 
L 411.356992 278.457708 
L 411.690567 278.164633 
L 412.024143 285.747939 
L 412.357718 300.731379 
L 412.691293 285.747939 
L 413.024869 285.50371 
L 413.358444 285.50371 
L 413.692019 308.900834 
L 414.025595 298.276879 
L 414.35917 316.349814 
L 414.692745 301.659449 
L 415.026321 312.283404 
L 415.359896 285.833419 
L 415.693471 285.576979 
L 416.027046 266.2829 
L 416.360622 209.218828 
L 416.694197 183.611433 
L 417.027772 197.801129 
L 417.361348 201.452351 
L 418.028498 166.869545 
L 418.695649 156.660779 
L 419.029224 162.742078 
L 419.362799 176.406682 
L 419.696375 172.767672 
L 420.02995 198.289587 
L 420.363525 188.508222 
L 420.697101 199.132177 
L 421.030676 204.163291 
L 421.364251 233.568445 
L 422.031402 208.437296 
L 422.364977 228.573965 
L 422.698552 227.18186 
L 423.032128 227.18186 
L 423.365703 236.963226 
L 423.699278 225.203607 
L 424.032854 203.235221 
L 424.366429 214.701766 
L 424.700004 191.304642 
L 425.03358 218.902502 
L 425.367155 215.263492 
L 425.70073 233.336427 
L 426.034305 228.329736 
L 426.367881 233.36085 
L 426.701456 260.335927 
L 427.035031 272.095546 
L 427.368607 268.444325 
L 427.702182 240.846465 
L 428.035757 244.485475 
L 428.702908 188.630336 
L 429.370058 239.62532 
L 429.703634 256.623648 
L 430.037209 283.330073 
L 430.70436 230.747602 
L 431.037935 235.412373 
L 431.37151 224.788418 
L 431.705086 219.537497 
L 432.038661 246.512574 
L 432.372236 251.763494 
L 432.705812 262.387449 
L 433.039387 266.038671 
L 433.372962 298.985143 
L 433.706537 301.5007 
L 434.040113 275.893305 
L 434.373688 279.532315 
L 434.707263 260.238236 
L 435.040839 257.722678 
L 435.374414 249.345629 
L 435.707989 219.940475 
L 436.041565 214.775035 
L 436.37514 244.180188 
L 436.708715 239.62532 
L 437.375866 277.077815 
L 438.043016 253.851651 
L 438.376592 265.61127 
L 438.710167 270.935459 
L 439.043742 273.451016 
L 439.377318 299.058412 
L 439.710893 279.764332 
L 440.044468 274.757641 
L 440.711619 253.790594 
L 441.045194 257.441815 
L 441.378769 254.926258 
L 441.712345 241.261654 
L 442.04592 250.469081 
L 442.379495 269.763161 
L 442.713071 272.278718 
L 443.046646 257.588352 
L 443.380221 247.806987 
L 444.047372 198.130838 
L 444.380947 215.629836 
L 445.048098 209.23104 
L 445.381673 223.921405 
L 445.715248 219.635189 
L 446.048824 247.233049 
L 446.382399 224.959378 
L 446.715974 235.583333 
L 447.04955 230.259144 
L 447.383125 255.866539 
L 448.050275 199.486308 
L 448.383851 228.891462 
L 448.717426 247.049877 
L 449.051001 230.051549 
L 449.384577 227.535992 
L 449.718152 241.200596 
L 450.051727 226.510231 
L 450.385303 226.510231 
L 450.718878 253.485308 
L 451.386028 262.704947 
L 451.719604 257.454027 
L 452.053179 265.745596 
L 452.386754 270.996516 
L 452.72033 287.994845 
L 453.053905 292.281061 
L 453.721056 243.764999 
L 454.054631 240.12599 
L 454.388206 245.132681 
L 454.721781 231.468077 
L 455.055357 228.085507 
L 455.388932 235.583333 
L 455.722507 247.049877 
L 456.056083 276.369551 
L 456.389658 265.745596 
L 456.723233 260.01843 
L 457.056809 240.72435 
L 457.390384 254.388954 
L 457.723959 224.983801 
L 458.057534 219.73288 
L 458.39111 243.130004 
L 458.724685 228.439639 
L 459.05826 238.221004 
L 459.391836 243.545193 
L 460.058986 282.084506 
L 460.392562 277.077815 
L 460.726137 302.59973 
L 461.059712 297.568616 
L 461.393288 315.641551 
L 461.726863 321.368717 
L 462.060438 297.971593 
L 462.394013 286.505049 
L 462.727589 278.921743 
L 463.061164 252.215318 
L 463.394739 247.929101 
L 463.728315 262.619467 
L 464.06189 258.968245 
L 464.395465 285.67467 
L 464.729041 276.467243 
L 465.062616 261.178517 
L 465.729766 317.558747 
L 466.063342 307.777382 
L 466.396917 319.243926 
L 466.730492 292.268849 
L 467.064068 287.604078 
L 467.397643 273.939474 
L 468.064794 221.967574 
L 468.398369 218.719331 
L 468.731944 256.782397 
L 469.065519 278.237902 
L 469.399095 282.79277 
L 469.73267 255.817693 
L 470.066245 251.531477 
L 470.399821 230.149241 
L 471.066971 282.463061 
L 471.400547 274.879755 
L 471.734122 270.324887 
L 472.401272 323.749949 
L 472.734848 338.440314 
L 473.401998 306.702775 
L 473.735574 324.77571 
L 474.069149 295.370556 
L 474.402724 316.911541 
L 474.7363 290.205116 
L 475.069875 286.566106 
L 475.40345 291.59722 
L 475.737025 276.906855 
L 476.070601 290.571459 
L 476.404176 285.24727 
L 476.737751 282.731713 
L 477.071327 294.491332 
L 477.738477 239.918395 
L 478.072053 244.473263 
L 478.405628 225.179184 
L 478.739203 227.694741 
L 479.072779 212.406015 
L 479.406354 212.406015 
L 480.073504 266.087517 
L 480.40708 255.463561 
L 480.740655 260.78775 
L 481.07423 271.411705 
L 481.407806 300.731379 
L 481.741381 295.700265 
L 482.074956 300.951185 
L 482.408532 315.641551 
L 483.075682 270.593539 
L 483.409257 297.568616 
L 483.742833 270.593539 
L 484.076408 274.879755 
L 484.409983 304.284909 
L 484.743559 282.743924 
L 485.077134 277.493004 
L 485.410709 299.766675 
L 486.411435 226.766671 
L 486.74501 227.658107 
L 487.078586 232.689221 
L 487.412161 259.664298 
L 487.745736 254.999527 
L 488.412887 265.977614 
L 489.080038 256.440477 
L 489.413613 285.760151 
L 489.747188 291.011071 
L 490.080763 288.495514 
L 490.414339 314.017429 
L 490.747914 304.236063 
L 491.415065 249.223514 
L 491.74864 267.296449 
L 492.082215 269.812007 
L 492.415791 258.052387 
L 492.749366 255.53683 
L 493.082941 274.830909 
L 493.416517 240.345795 
L 493.750092 262.228701 
L 494.083667 261.63034 
L 494.417242 265.281561 
L 494.750818 271.008728 
L 495.417968 324.433789 
L 495.751544 318.706623 
L 496.085119 289.301469 
L 496.418694 294.552389 
L 496.75227 309.841115 
L 497.085845 280.521442 
L 497.41942 289.728869 
L 497.752995 312.002541 
L 498.420146 259.945161 
L 499.087297 239.271189 
L 499.420872 242.910198 
L 499.754447 238.245427 
L 500.088023 256.318362 
L 500.421598 241.029636 
L 500.755173 217.632512 
L 501.088748 231.736728 
L 501.422324 236.4015 
L 501.755899 232.115283 
L 502.089474 252.618295 
L 502.42305 257.283066 
L 502.756625 252.251952 
L 503.0902 250.346967 
L 503.757351 283.195748 
L 504.090926 278.64088 
L 504.424501 243.43529 
L 504.758077 248.100062 
L 505.091652 242.849141 
L 505.425227 234.301131 
L 505.758803 215.007052 
L 506.092378 244.583166 
L 506.425953 244.583166 
L 506.759529 233.959211 
L 507.093104 248.393136 
L 507.426679 242.018763 
L 507.760254 247.025455 
L 508.09383 221.50354 
L 508.427405 207.838935 
L 508.76098 222.529301 
L 509.094556 248.051216 
L 509.428131 252.337432 
L 509.761706 277.944827 
L 510.095282 270.361521 
L 510.428857 267.845964 
L 510.762432 283.13469 
L 511.429583 273.096885 
L 511.763158 284.563429 
L 512.096733 289.570121 
L 512.763884 244.436629 
L 513.097459 239.11244 
L 513.431035 239.11244 
L 513.76461 243.386445 
L 514.098185 270.984305 
L 514.431761 287.982633 
L 514.765336 258.577479 
L 515.098911 247.953524 
L 515.432486 218.633851 
L 515.766062 213.969079 
L 516.099637 219.000194 
L 516.766788 275.380424 
L 517.100363 280.631345 
L 517.767514 234.960549 
L 518.434664 264.756469 
L 519.101815 264.756469 
L 519.43539 276.516089 
L 519.768965 228.305313 
L 520.436116 282.072295 
L 520.769691 277.895982 
L 521.770417 211.697751 
L 522.103992 238.404176 
L 522.437568 243.655096 
L 522.771143 234.447669 
L 523.104718 242.030975 
L 523.438294 219.757303 
L 523.771869 231.504711 
L 524.105444 249.663126 
L 524.43902 220.343452 
L 524.772595 245.865368 
L 525.439746 272.913713 
L 525.773321 254.755298 
L 526.106896 274.049377 
L 526.440471 283.256805 
L 526.774047 280.741248 
L 527.107622 255.133852 
L 527.441197 247.550547 
L 527.774773 247.550547 
L 528.108348 242.177512 
L 528.441923 240.504544 
L 528.775499 245.535659 
L 529.109074 263.608594 
L 529.442649 252.142049 
L 529.776224 256.342785 
L 530.1098 279.739909 
L 530.443375 250.334756 
L 530.77695 250.334756 
L 531.110526 233.336427 
L 531.444101 237.75697 
L 531.777676 248.039004 
L 532.111252 240.455698 
L 532.444827 216.973094 
L 532.778402 221.259311 
L 533.445553 241.078482 
L 533.779128 245.63335 
L 534.112703 253.16781 
L 534.446279 227.645895 
L 534.779854 228.232044 
L 535.113429 257.637198 
L 535.447005 251.580323 
L 535.78058 256.489323 
L 536.114155 282.157775 
L 536.44773 265.379253 
L 536.781306 283.537668 
L 537.114881 295.004213 
L 537.448456 285.796785 
L 537.782032 280.790093 
L 538.115607 266.099728 
L 538.449182 239.124651 
L 538.782758 225.972928 
L 539.116333 221.686711 
L 539.783483 254.450012 
L 540.117059 249.418897 
L 540.450634 234.728532 
L 540.784209 238.929268 
L 541.117785 253.619634 
L 541.45136 238.330907 
L 541.784935 234.997184 
L 542.118511 245.621139 
L 542.452086 240.370218 
L 543.119237 249.052554 
L 543.452812 239.271189 
L 544.119962 248.222176 
L 544.453538 243.93596 
L 544.787113 248.222176 
L 545.120688 248.222176 
L 545.454264 221.515751 
L 545.787839 221.515751 
L 546.121414 236.804477 
L 546.45499 226.180522 
L 546.788565 247.721507 
L 547.12214 221.271522 
L 547.455715 231.895477 
L 547.789291 227.609261 
L 548.122866 212.320535 
L 548.790017 202.88109 
L 549.123592 193.197416 
L 549.457167 218.719331 
L 549.790743 234.008057 
L 550.124318 260.458041 
L 550.457893 260.458041 
L 550.791468 255.903173 
L 551.125044 209.047868 
L 551.458619 234.569783 
L 551.792194 230.283567 
L 552.12577 230.283567 
L 552.459345 259.60324 
L 552.79292 270.227196 
L 553.126496 267.711638 
L 553.460071 267.711638 
L 553.793646 297.116792 
L 554.127221 300.768014 
L 554.460797 295.736899 
L 554.794372 307.203444 
L 555.127947 309.719001 
L 555.461523 321.47862 
L 555.795098 309.719001 
L 556.462249 274.647738 
L 556.795824 279.678852 
L 557.129399 250.273698 
L 557.79655 267.064432 
L 558.130125 239.466572 
L 558.4637 228.000027 
L 558.797276 223.994674 
L 559.130851 227.633684 
L 559.464426 205.59203 
L 559.798002 227.133015 
L 560.131577 238.892634 
L 560.465152 265.599059 
L 560.798728 250.310333 
L 561.465878 197.996512 
L 562.466604 261.88678 
L 562.800179 257.222009 
L 563.133755 272.510735 
L 563.46733 267.186546 
L 563.800905 252.496181 
L 564.134481 261.361688 
L 564.468056 257.722678 
L 564.801631 270.495847 
L 565.135206 270.495847 
L 565.468782 285.186213 
L 565.802357 290.913379 
L 566.135932 272.754964 
L 566.469508 267.027798 
L 566.803083 267.027798 
L 567.136658 293.477782 
L 567.470234 288.922914 
L 567.803809 292.561924 
L 568.137384 292.561924 
L 568.470959 296.84814 
L 569.13811 262.863696 
L 569.471685 256.428265 
L 569.805261 234.887281 
L 570.138836 261.593706 
L 570.472411 261.593706 
L 570.805987 257.942484 
L 571.139562 259.749778 
L 571.473137 263.950514 
L 571.806712 264.133686 
L 572.140288 258.968245 
L 572.473863 269.592201 
L 572.807438 264.34128 
L 573.141014 264.34128 
L 573.474589 283.63536 
L 573.808164 310.341785 
L 574.475315 319.243926 
L 575.142466 309.438138 
L 575.476041 297.678519 
L 575.809616 297.678519 
L 576.143191 303.405685 
L 576.810342 285.198424 
L 577.143917 310.805819 
L 577.477493 293.807491 
L 577.811068 284.026126 
L 578.811794 284.026126 
L 579.145369 280.387116 
L 579.478944 254.865201 
L 579.81252 258.504211 
L 580.146095 255.988653 
L 580.47967 226.5835 
L 580.813246 231.138368 
L 581.146821 209.597383 
L 581.480396 212.11294 
L 581.813972 219.696246 
L 582.147547 192.721169 
L 582.481122 192.721169 
L 582.814697 197.97209 
L 583.148273 212.662455 
L 583.481848 197.97209 
L 583.815423 197.97209 
L 584.482574 188.093033 
L 585.4833 188.093033 
L 585.816875 203.992331 
L 586.15045 177.285906 
L 586.484026 177.285906 
L 586.817601 184.25864 
L 587.484752 238.562925 
L 587.818327 238.562925 
L 588.151902 248.34429 
L 588.485478 244.058074 
L 588.819053 232.591529 
L 589.152628 237.146398 
L 589.486204 237.146398 
L 590.153354 246.756803 
L 590.486929 246.756803 
L 591.15408 238.111101 
L 591.487655 265.086178 
L 591.821231 282.084506 
L 592.488381 282.084506 
L 592.821957 272.877079 
L 593.155532 247.269683 
L 593.489107 247.269683 
L 593.822682 239.686378 
L 594.156258 222.688049 
L 595.490559 222.688049 
L 596.15771 237.793604 
L 596.491285 237.793604 
L 596.82486 219.635189 
L 597.158435 219.635189 
L 597.492011 221.308156 
L 597.825586 224.959378 
L 598.159161 202.685706 
L 598.492737 202.685706 
L 598.826312 224.959378 
L 599.159887 238.623982 
L 599.493463 233.299793 
L 599.827038 233.299793 
L 600.160613 224.092365 
L 600.494188 233.824885 
L 600.827764 233.824885 
L 601.161339 245.584504 
L 601.494914 241.945494 
L 602.49564 252.508392 
L 602.829216 248.869382 
L 603.162791 254.193571 
L 603.496366 248.942651 
L 603.829942 231.944323 
L 604.163517 208.547199 
L 604.497092 227.841278 
L 604.830667 227.841278 
L 605.164243 258.003542 
L 605.497818 241.127328 
L 605.831393 246.854494 
L 606.498544 191.084836 
L 606.832119 191.084836 
L 607.165695 194.723846 
L 608.16642 194.723846 
L 608.499996 192.208289 
L 608.833571 194.723846 
L 609.167146 167.748769 
L 609.834297 167.748769 
L 610.167872 172.303637 
L 610.501448 187.592363 
L 610.835023 175.832744 
L 611.168598 172.181523 
L 611.502173 172.181523 
L 611.835749 146.42759 
L 612.169324 141.396476 
L 613.837201 141.396476 
L 614.170776 150.603904 
L 614.504351 155.854824 
L 614.837926 151.299956 
L 615.171502 151.299956 
L 615.505077 147.648735 
L 615.838652 147.648735 
L 616.172228 132.360008 
L 617.840104 132.360008 
L 618.173679 136.914877 
L 618.507255 136.914877 
L 619.174405 169.201931 
L 619.507981 154.511565 
L 620.508707 154.511565 
L 620.842282 149.846794 
L 621.175857 142.874061 
L 621.509433 147.160277 
L 621.843008 147.160277 
L 622.176583 142.605409 
L 622.510158 142.605409 
L 622.843734 146.073458 
L 623.177309 150.73823 
L 624.51161 150.73823 
L 624.845186 155.293098 
L 625.178761 155.293098 
L 625.512336 143.533478 
L 626.179487 139.027456 
L 627.847363 139.027456 
L 628.180939 145.1576 
L 628.514514 140.602732 
L 628.848089 148.723342 
L 630.18239 148.723342 
L 630.515966 161.435453 
L 630.849541 161.435453 
L 631.183116 187.042848 
L 631.516692 161.435453 
L 632.183842 161.435453 
L 632.517417 157.784232 
L 632.850993 161.423242 
L 635.18602 161.423242 
L 635.519595 153.839936 
L 637.187472 153.839936 
L 637.521047 134.545857 
L 638.188198 134.545857 
L 638.521773 142.129163 
L 640.523225 142.129163 
L 641.190375 151.446493 
L 641.523951 125.924578 
L 642.524677 125.924578 
L 642.858252 130.479446 
L 643.191827 125.472755 
L 645.86043 125.472755 
L 646.194005 121.186538 
L 647.194731 121.186538 
L 647.528306 129.893297 
L 650.530484 129.893297 
L 650.864059 126.596208 
L 652.865511 126.596208 
L 653.199086 127.670814 
L 655.200538 127.670814 
L 655.534113 130.223006 
L 661.538469 130.223006 
L 661.872044 133.874227 
L 662.205619 120.209623 
L 668.209975 120.209623 
L 668.54355 125.216315 
L 668.877125 117.633009 
L 672.546454 117.633009 
L 672.880029 113.078141 
L 675.548631 113.078141 
L 675.882207 108.791924 
L 682.553713 108.877404 
L 682.887288 98.619792 
L 731.922858 98.619792 
L 732.256433 88.887273 
L 871.690909 88.887273 
L 871.690909 88.887273 
" style="fill:none;stroke:#8dd3c7;stroke-linecap:square;stroke-width:1.5;"/>
   </g>
   <g id="line2d_14">
    <path clip-path="url(#p1cad983378)" d="M 161.509091 164.195239 
L 403.68476 164.195239 
L 404.018336 160.568441 
L 418.362074 160.568441 
L 418.695649 156.660779 
L 611.502173 156.660779 
L 611.835749 146.42759 
L 612.169324 141.396476 
L 615.838652 141.396476 
L 616.172228 132.360008 
L 641.190375 132.360008 
L 641.523951 125.924578 
L 642.858252 125.924578 
L 643.191827 125.472755 
L 645.86043 125.472755 
L 646.194005 121.186538 
L 661.872044 121.186538 
L 662.205619 120.209623 
L 668.54355 120.209623 
L 668.877125 117.633009 
L 672.546454 117.633009 
L 672.880029 113.078141 
L 675.548631 113.078141 
L 675.882207 108.791924 
L 682.553713 108.791924 
L 682.887288 98.619792 
L 731.922858 98.619792 
L 732.256433 88.887273 
L 871.690909 88.887273 
L 871.690909 88.887273 
" style="fill:none;stroke:#feffb3;stroke-linecap:square;stroke-width:1.5;"/>
   </g>
   <g id="line2d_15">
    <path clip-path="url(#p1cad983378)" d="M 161.509091 260.206486 
L 164.511269 260.206486 
L 164.844844 281.62741 
L 167.847022 281.62741 
L 168.180597 301.00011 
L 171.182775 301.00011 
L 171.51635 318.520433 
L 174.518528 318.520433 
L 174.852103 334.365499 
L 177.854281 334.365499 
L 178.187856 348.695492 
L 181.190034 348.695492 
L 181.523609 361.655281 
L 184.525787 361.655281 
L 184.859362 373.375882 
L 187.86154 373.375882 
L 188.195115 383.975784 
L 191.197293 383.975784 
L 191.530868 393.562145 
L 194.533046 393.562145 
L 194.866621 402.231878 
L 197.868799 402.231878 
L 198.202374 410.072629 
L 201.204552 410.072629 
L 201.538127 417.163664 
L 204.540305 417.163664 
L 204.87388 423.576668 
L 207.876058 423.576668 
L 208.209633 429.376475 
L 211.211811 429.376475 
L 211.545386 434.621716 
L 214.547564 434.621716 
L 214.881139 439.365418 
L 217.883317 439.365418 
L 218.216892 443.655537 
L 221.21907 443.655537 
L 221.552645 447.535444 
L 224.554823 447.535444 
L 224.888398 451.044362 
L 227.890576 451.044362 
L 228.224151 454.217764 
L 231.226329 454.217764 
L 231.559904 457.087733 
L 234.562082 457.087733 
L 234.895657 459.683281 
L 237.897835 459.683281 
L 238.23141 462.030648 
L 241.233588 462.030648 
L 241.567163 464.153565 
L 244.569341 464.153565 
L 244.902916 466.073493 
L 247.905094 466.073493 
L 248.238669 467.809841 
L 251.240847 467.809841 
L 251.574422 469.380163 
L 254.5766 469.380163 
L 254.910175 470.800335 
L 257.912353 470.800335 
L 258.245929 472.084712 
L 261.248106 472.084712 
L 261.581682 473.24628 
L 264.583859 473.24628 
L 264.917435 474.296781 
L 267.919612 474.296781 
L 268.253188 475.246836 
L 271.255365 475.246836 
L 271.588941 476.106048 
L 274.591118 476.106048 
L 274.924694 476.883105 
L 277.926871 476.883105 
L 278.260447 477.58586 
L 281.262624 477.58586 
L 281.5962 478.22142 
L 284.598377 478.22142 
L 284.931953 478.796209 
L 287.93413 478.796209 
L 288.267706 479.316037 
L 291.269883 479.316037 
L 291.603459 479.786161 
L 294.605636 479.786161 
L 294.939212 480.211332 
L 297.941389 480.211332 
L 298.274965 480.59585 
L 301.277142 480.59585 
L 301.610718 480.943601 
L 304.612896 480.943601 
L 304.946471 481.2581 
L 307.948649 481.2581 
L 308.282224 481.542528 
L 311.284402 481.542528 
L 311.617977 481.799759 
L 314.620155 481.799759 
L 314.95373 482.032394 
L 317.955908 482.032394 
L 318.289483 482.242786 
L 321.291661 482.242786 
L 321.625236 482.43306 
L 324.627414 482.43306 
L 324.960989 482.60514 
L 327.963167 482.60514 
L 328.296742 482.760767 
L 331.29892 482.760767 
L 331.632495 482.901513 
L 334.634673 482.901513 
L 334.968248 483.028801 
L 337.970426 483.028801 
L 338.637576 483.143918 
L 344.641932 483.248027 
L 345.309082 483.342182 
L 351.313438 483.427334 
L 351.980588 483.504344 
L 357.984944 483.573991 
L 358.652094 483.636978 
L 367.992203 483.74546 
L 368.992929 483.792051 
L 377.999462 483.872295 
L 379.333763 483.906759 
L 394.678227 484.014664 
L 396.679679 484.035515 
L 424.700004 484.14447 
L 429.703634 484.160541 
L 871.690909 484.232727 
L 871.690909 484.232727 
" style="fill:none;stroke:#bfbbd9;stroke-linecap:square;stroke-width:1.5;"/>
   </g>
   <g id="patch_3">
    <path d="M 126 504 
L 126 69.12 
" style="fill:none;stroke:#ffffff;stroke-linecap:square;stroke-linejoin:miter;stroke-width:0.8;"/>
   </g>
   <g id="patch_4">
    <path d="M 907.2 504 
L 907.2 69.12 
" style="fill:none;stroke:#ffffff;stroke-linecap:square;stroke-linejoin:miter;stroke-width:0.8;"/>
   </g>
   <g id="patch_5">
    <path d="M 126 504 
L 907.2 504 
" style="fill:none;stroke:#ffffff;stroke-linecap:square;stroke-linejoin:miter;stroke-width:0.8;"/>
   </g>
   <g id="patch_6">
    <path d="M 126 69.12 
L 907.2 69.12 
" style="fill:none;stroke:#ffffff;stroke-linecap:square;stroke-linejoin:miter;stroke-width:0.8;"/>
   </g>
   <g id="text_14">
    <!-- instance 8 with error 0.008240411714250717 -->
    <g style="fill:#ffffff;" transform="translate(378.046875 63.12)scale(0.12 -0.12)">
     <defs>
      <path d="M 2834 3397 
L 2834 2853 
Q 2591 2978 2328 3040 
Q 2066 3103 1784 3103 
Q 1356 3103 1142 2972 
Q 928 2841 928 2578 
Q 928 2378 1081 2264 
Q 1234 2150 1697 2047 
L 1894 2003 
Q 2506 1872 2764 1633 
Q 3022 1394 3022 966 
Q 3022 478 2636 193 
Q 2250 -91 1575 -91 
Q 1294 -91 989 -36 
Q 684 19 347 128 
L 347 722 
Q 666 556 975 473 
Q 1284 391 1588 391 
Q 1994 391 2212 530 
Q 2431 669 2431 922 
Q 2431 1156 2273 1281 
Q 2116 1406 1581 1522 
L 1381 1569 
Q 847 1681 609 1914 
Q 372 2147 372 2553 
Q 372 3047 722 3315 
Q 1072 3584 1716 3584 
Q 2034 3584 2315 3537 
Q 2597 3491 2834 3397 
z
" id="DejaVuSans-73" transform="scale(0.015625)"/>
      <path d="M 3122 3366 
L 3122 2828 
Q 2878 2963 2633 3030 
Q 2388 3097 2138 3097 
Q 1578 3097 1268 2742 
Q 959 2388 959 1747 
Q 959 1106 1268 751 
Q 1578 397 2138 397 
Q 2388 397 2633 464 
Q 2878 531 3122 666 
L 3122 134 
Q 2881 22 2623 -34 
Q 2366 -91 2075 -91 
Q 1284 -91 818 406 
Q 353 903 353 1747 
Q 353 2603 823 3093 
Q 1294 3584 2113 3584 
Q 2378 3584 2631 3529 
Q 2884 3475 3122 3366 
z
" id="DejaVuSans-63" transform="scale(0.015625)"/>
      <path id="DejaVuSans-20" transform="scale(0.015625)"/>
      <path d="M 2034 2216 
Q 1584 2216 1326 1975 
Q 1069 1734 1069 1313 
Q 1069 891 1326 650 
Q 1584 409 2034 409 
Q 2484 409 2743 651 
Q 3003 894 3003 1313 
Q 3003 1734 2745 1975 
Q 2488 2216 2034 2216 
z
M 1403 2484 
Q 997 2584 770 2862 
Q 544 3141 544 3541 
Q 544 4100 942 4425 
Q 1341 4750 2034 4750 
Q 2731 4750 3128 4425 
Q 3525 4100 3525 3541 
Q 3525 3141 3298 2862 
Q 3072 2584 2669 2484 
Q 3125 2378 3379 2068 
Q 3634 1759 3634 1313 
Q 3634 634 3220 271 
Q 2806 -91 2034 -91 
Q 1263 -91 848 271 
Q 434 634 434 1313 
Q 434 1759 690 2068 
Q 947 2378 1403 2484 
z
M 1172 3481 
Q 1172 3119 1398 2916 
Q 1625 2713 2034 2713 
Q 2441 2713 2670 2916 
Q 2900 3119 2900 3481 
Q 2900 3844 2670 4047 
Q 2441 4250 2034 4250 
Q 1625 4250 1398 4047 
Q 1172 3844 1172 3481 
z
" id="DejaVuSans-38" transform="scale(0.015625)"/>
      <path d="M 269 3500 
L 844 3500 
L 1563 769 
L 2278 3500 
L 2956 3500 
L 3675 769 
L 4391 3500 
L 4966 3500 
L 4050 0 
L 3372 0 
L 2619 2869 
L 1863 0 
L 1184 0 
L 269 3500 
z
" id="DejaVuSans-77" transform="scale(0.015625)"/>
      <path d="M 3513 2113 
L 3513 0 
L 2938 0 
L 2938 2094 
Q 2938 2591 2744 2837 
Q 2550 3084 2163 3084 
Q 1697 3084 1428 2787 
Q 1159 2491 1159 1978 
L 1159 0 
L 581 0 
L 581 4863 
L 1159 4863 
L 1159 2956 
Q 1366 3272 1645 3428 
Q 1925 3584 2291 3584 
Q 2894 3584 3203 3211 
Q 3513 2838 3513 2113 
z
" id="DejaVuSans-68" transform="scale(0.015625)"/>
      <path d="M 684 794 
L 1344 794 
L 1344 0 
L 684 0 
L 684 794 
z
" id="DejaVuSans-2e" transform="scale(0.015625)"/>
      <path d="M 2419 4116 
L 825 1625 
L 2419 1625 
L 2419 4116 
z
M 2253 4666 
L 3047 4666 
L 3047 1625 
L 3713 1625 
L 3713 1100 
L 3047 1100 
L 3047 0 
L 2419 0 
L 2419 1100 
L 313 1100 
L 313 1709 
L 2253 4666 
z
" id="DejaVuSans-34" transform="scale(0.015625)"/>
      <path d="M 525 4666 
L 3525 4666 
L 3525 4397 
L 1831 0 
L 1172 0 
L 2766 4134 
L 525 4134 
L 525 4666 
z
" id="DejaVuSans-37" transform="scale(0.015625)"/>
     </defs>
     <use xlink:href="#DejaVuSans-69"/>
     <use x="27.783203" xlink:href="#DejaVuSans-6e"/>
     <use x="91.162109" xlink:href="#DejaVuSans-73"/>
     <use x="143.261719" xlink:href="#DejaVuSans-74"/>
     <use x="182.470703" xlink:href="#DejaVuSans-61"/>
     <use x="243.75" xlink:href="#DejaVuSans-6e"/>
     <use x="307.128906" xlink:href="#DejaVuSans-63"/>
     <use x="362.109375" xlink:href="#DejaVuSans-65"/>
     <use x="423.632812" xlink:href="#DejaVuSans-20"/>
     <use x="455.419922" xlink:href="#DejaVuSans-38"/>
     <use x="519.042969" xlink:href="#DejaVuSans-20"/>
     <use x="550.830078" xlink:href="#DejaVuSans-77"/>
     <use x="632.617188" xlink:href="#DejaVuSans-69"/>
     <use x="660.400391" xlink:href="#DejaVuSans-74"/>
     <use x="699.609375" xlink:href="#DejaVuSans-68"/>
     <use x="762.988281" xlink:href="#DejaVuSans-20"/>
     <use x="794.775391" xlink:href="#DejaVuSans-65"/>
     <use x="856.298828" xlink:href="#DejaVuSans-72"/>
     <use x="895.662109" xlink:href="#DejaVuSans-72"/>
     <use x="934.525391" xlink:href="#DejaVuSans-6f"/>
     <use x="995.707031" xlink:href="#DejaVuSans-72"/>
     <use x="1036.820312" xlink:href="#DejaVuSans-20"/>
     <use x="1068.607422" xlink:href="#DejaVuSans-30"/>
     <use x="1132.230469" xlink:href="#DejaVuSans-2e"/>
     <use x="1164.017578" xlink:href="#DejaVuSans-30"/>
     <use x="1227.640625" xlink:href="#DejaVuSans-30"/>
     <use x="1291.263672" xlink:href="#DejaVuSans-38"/>
     <use x="1354.886719" xlink:href="#DejaVuSans-32"/>
     <use x="1418.509766" xlink:href="#DejaVuSans-34"/>
     <use x="1482.132812" xlink:href="#DejaVuSans-30"/>
     <use x="1545.755859" xlink:href="#DejaVuSans-34"/>
     <use x="1609.378906" xlink:href="#DejaVuSans-31"/>
     <use x="1673.001953" xlink:href="#DejaVuSans-31"/>
     <use x="1736.625" xlink:href="#DejaVuSans-37"/>
     <use x="1800.248047" xlink:href="#DejaVuSans-31"/>
     <use x="1863.871094" xlink:href="#DejaVuSans-34"/>
     <use x="1927.494141" xlink:href="#DejaVuSans-32"/>
     <use x="1991.117188" xlink:href="#DejaVuSans-35"/>
     <use x="2054.740234" xlink:href="#DejaVuSans-30"/>
     <use x="2118.363281" xlink:href="#DejaVuSans-37"/>
     <use x="2181.986328" xlink:href="#DejaVuSans-31"/>
     <use x="2245.609375" xlink:href="#DejaVuSans-37"/>
    </g>
   </g>
   <g id="legend_1">
    <g id="patch_7">
     <path d="M 805.348438 499 
L 900.2 499 
Q 902.2 499 902.2 497 
L 902.2 453.965625 
Q 902.2 451.965625 900.2 451.965625 
L 805.348438 451.965625 
Q 803.348438 451.965625 803.348438 453.965625 
L 803.348438 497 
Q 803.348438 499 805.348438 499 
z
" style="opacity:0.8;stroke:#cccccc;stroke-linejoin:miter;"/>
    </g>
    <g id="line2d_16">
     <path d="M 807.348438 460.064062 
L 827.348438 460.064062 
" style="fill:none;stroke:#8dd3c7;stroke-linecap:square;stroke-width:1.5;"/>
    </g>
    <g id="line2d_17"/>
    <g id="text_15">
     <!-- cost -->
     <g style="fill:#ffffff;" transform="translate(835.348438 463.564062)scale(0.1 -0.1)">
      <use xlink:href="#DejaVuSans-63"/>
      <use x="54.980469" xlink:href="#DejaVuSans-6f"/>
      <use x="116.162109" xlink:href="#DejaVuSans-73"/>
      <use x="168.261719" xlink:href="#DejaVuSans-74"/>
     </g>
    </g>
    <g id="line2d_18">
     <path d="M 807.348438 474.742188 
L 827.348438 474.742188 
" style="fill:none;stroke:#feffb3;stroke-linecap:square;stroke-width:1.5;"/>
    </g>
    <g id="line2d_19"/>
    <g id="text_16">
     <!-- best cost -->
     <g style="fill:#ffffff;" transform="translate(835.348438 478.242188)scale(0.1 -0.1)">
      <defs>
       <path d="M 3116 1747 
Q 3116 2381 2855 2742 
Q 2594 3103 2138 3103 
Q 1681 3103 1420 2742 
Q 1159 2381 1159 1747 
Q 1159 1113 1420 752 
Q 1681 391 2138 391 
Q 2594 391 2855 752 
Q 3116 1113 3116 1747 
z
M 1159 2969 
Q 1341 3281 1617 3432 
Q 1894 3584 2278 3584 
Q 2916 3584 3314 3078 
Q 3713 2572 3713 1747 
Q 3713 922 3314 415 
Q 2916 -91 2278 -91 
Q 1894 -91 1617 61 
Q 1341 213 1159 525 
L 1159 0 
L 581 0 
L 581 4863 
L 1159 4863 
L 1159 2969 
z
" id="DejaVuSans-62" transform="scale(0.015625)"/>
      </defs>
      <use xlink:href="#DejaVuSans-62"/>
      <use x="63.476562" xlink:href="#DejaVuSans-65"/>
      <use x="125" xlink:href="#DejaVuSans-73"/>
      <use x="177.099609" xlink:href="#DejaVuSans-74"/>
      <use x="216.308594" xlink:href="#DejaVuSans-20"/>
      <use x="248.095703" xlink:href="#DejaVuSans-63"/>
      <use x="303.076172" xlink:href="#DejaVuSans-6f"/>
      <use x="364.257812" xlink:href="#DejaVuSans-73"/>
      <use x="416.357422" xlink:href="#DejaVuSans-74"/>
     </g>
    </g>
    <g id="line2d_20">
     <path d="M 807.348438 489.420313 
L 827.348438 489.420313 
" style="fill:none;stroke:#bfbbd9;stroke-linecap:square;stroke-width:1.5;"/>
    </g>
    <g id="line2d_21"/>
    <g id="text_17">
     <!-- temperature -->
     <g style="fill:#ffffff;" transform="translate(835.348438 492.920313)scale(0.1 -0.1)">
      <defs>
       <path d="M 3328 2828 
Q 3544 3216 3844 3400 
Q 4144 3584 4550 3584 
Q 5097 3584 5394 3201 
Q 5691 2819 5691 2113 
L 5691 0 
L 5113 0 
L 5113 2094 
Q 5113 2597 4934 2840 
Q 4756 3084 4391 3084 
Q 3944 3084 3684 2787 
Q 3425 2491 3425 1978 
L 3425 0 
L 2847 0 
L 2847 2094 
Q 2847 2600 2669 2842 
Q 2491 3084 2119 3084 
Q 1678 3084 1418 2786 
Q 1159 2488 1159 1978 
L 1159 0 
L 581 0 
L 581 3500 
L 1159 3500 
L 1159 2956 
Q 1356 3278 1631 3431 
Q 1906 3584 2284 3584 
Q 2666 3584 2933 3390 
Q 3200 3197 3328 2828 
z
" id="DejaVuSans-6d" transform="scale(0.015625)"/>
       <path d="M 1159 525 
L 1159 -1331 
L 581 -1331 
L 581 3500 
L 1159 3500 
L 1159 2969 
Q 1341 3281 1617 3432 
Q 1894 3584 2278 3584 
Q 2916 3584 3314 3078 
Q 3713 2572 3713 1747 
Q 3713 922 3314 415 
Q 2916 -91 2278 -91 
Q 1894 -91 1617 61 
Q 1341 213 1159 525 
z
M 3116 1747 
Q 3116 2381 2855 2742 
Q 2594 3103 2138 3103 
Q 1681 3103 1420 2742 
Q 1159 2381 1159 1747 
Q 1159 1113 1420 752 
Q 1681 391 2138 391 
Q 2594 391 2855 752 
Q 3116 1113 3116 1747 
z
" id="DejaVuSans-70" transform="scale(0.015625)"/>
       <path d="M 544 1381 
L 544 3500 
L 1119 3500 
L 1119 1403 
Q 1119 906 1312 657 
Q 1506 409 1894 409 
Q 2359 409 2629 706 
Q 2900 1003 2900 1516 
L 2900 3500 
L 3475 3500 
L 3475 0 
L 2900 0 
L 2900 538 
Q 2691 219 2414 64 
Q 2138 -91 1772 -91 
Q 1169 -91 856 284 
Q 544 659 544 1381 
z
M 1991 3584 
L 1991 3584 
z
" id="DejaVuSans-75" transform="scale(0.015625)"/>
      </defs>
      <use xlink:href="#DejaVuSans-74"/>
      <use x="39.208984" xlink:href="#DejaVuSans-65"/>
      <use x="100.732422" xlink:href="#DejaVuSans-6d"/>
      <use x="198.144531" xlink:href="#DejaVuSans-70"/>
      <use x="261.621094" xlink:href="#DejaVuSans-65"/>
      <use x="323.144531" xlink:href="#DejaVuSans-72"/>
      <use x="364.257812" xlink:href="#DejaVuSans-61"/>
      <use x="425.537109" xlink:href="#DejaVuSans-74"/>
      <use x="464.746094" xlink:href="#DejaVuSans-75"/>
      <use x="528.125" xlink:href="#DejaVuSans-72"/>
      <use x="566.988281" xlink:href="#DejaVuSans-65"/>
     </g>
    </g>
   </g>
  </g>
 </g>
 <defs>
  <clipPath id="p1cad983378">
   <rect height="434.88" width="781.2" x="126" y="69.12"/>
  </clipPath>
 </defs>
</svg>
