<?xml version="1.0" encoding="utf-8" standalone="no"?>
<!DOCTYPE svg PUBLIC "-//W3C//DTD SVG 1.1//EN"
  "http://www.w3.org/Graphics/SVG/1.1/DTD/svg11.dtd">
<svg height="576pt" version="1.1" viewBox="0 0 1008 576" width="1008pt" xmlns="http://www.w3.org/2000/svg" xmlns:xlink="http://www.w3.org/1999/xlink">
 <metadata>
  <rdf:RDF xmlns:cc="http://creativecommons.org/ns#" xmlns:dc="http://purl.org/dc/elements/1.1/" xmlns:rdf="http://www.w3.org/1999/02/22-rdf-syntax-ns#">
   <cc:Work>
    <dc:type rdf:resource="http://purl.org/dc/dcmitype/StillImage"/>
    <dc:date>2022-01-07T00:32:41.619961</dc:date>
    <dc:format>image/svg+xml</dc:format>
    <dc:creator>
     <cc:Agent>
      <dc:title>Matplotlib v3.4.3, https://matplotlib.org/</dc:title>
     </cc:Agent>
    </dc:creator>
   </cc:Work>
  </rdf:RDF>
 </metadata>
 <defs>
  <style type="text/css">*{stroke-linecap:butt;stroke-linejoin:round;}</style>
 </defs>
 <g id="figure_1">
  <g id="patch_1">
   <path d="M 0 576 
L 1008 576 
L 1008 0 
L 0 0 
z
"/>
  </g>
  <g id="axes_1">
   <g id="patch_2">
    <path d="M 126 504 
L 907.2 504 
L 907.2 69.12 
L 126 69.12 
z
"/>
   </g>
   <g id="matplotlib.axis_1">
    <g id="xtick_1">
     <g id="line2d_1">
      <defs>
       <path d="M 0 0 
L 0 3.5 
" id="ma696a87460" style="stroke:#ffffff;stroke-width:0.8;"/>
      </defs>
      <g>
       <use style="fill:#ffffff;stroke:#ffffff;stroke-width:0.8;" x="161.509091" xlink:href="#ma696a87460" y="504"/>
      </g>
     </g>
     <g id="text_1">
      <!-- 0 -->
      <g style="fill:#ffffff;" transform="translate(158.327841 518.598438)scale(0.1 -0.1)">
       <defs>
        <path d="M 2034 4250 
Q 1547 4250 1301 3770 
Q 1056 3291 1056 2328 
Q 1056 1369 1301 889 
Q 1547 409 2034 409 
Q 2525 409 2770 889 
Q 3016 1369 3016 2328 
Q 3016 3291 2770 3770 
Q 2525 4250 2034 4250 
z
M 2034 4750 
Q 2819 4750 3233 4129 
Q 3647 3509 3647 2328 
Q 3647 1150 3233 529 
Q 2819 -91 2034 -91 
Q 1250 -91 836 529 
Q 422 1150 422 2328 
Q 422 3509 836 4129 
Q 1250 4750 2034 4750 
z
" id="DejaVuSans-30" transform="scale(0.015625)"/>
       </defs>
       <use xlink:href="#DejaVuSans-30"/>
      </g>
     </g>
    </g>
    <g id="xtick_2">
     <g id="line2d_2">
      <g>
       <use style="fill:#ffffff;stroke:#ffffff;stroke-width:0.8;" x="279.912195" xlink:href="#ma696a87460" y="504"/>
      </g>
     </g>
     <g id="text_2">
      <!-- 500 -->
      <g style="fill:#ffffff;" transform="translate(270.368445 518.598438)scale(0.1 -0.1)">
       <defs>
        <path d="M 691 4666 
L 3169 4666 
L 3169 4134 
L 1269 4134 
L 1269 2991 
Q 1406 3038 1543 3061 
Q 1681 3084 1819 3084 
Q 2600 3084 3056 2656 
Q 3513 2228 3513 1497 
Q 3513 744 3044 326 
Q 2575 -91 1722 -91 
Q 1428 -91 1123 -41 
Q 819 9 494 109 
L 494 744 
Q 775 591 1075 516 
Q 1375 441 1709 441 
Q 2250 441 2565 725 
Q 2881 1009 2881 1497 
Q 2881 1984 2565 2268 
Q 2250 2553 1709 2553 
Q 1456 2553 1204 2497 
Q 953 2441 691 2322 
L 691 4666 
z
" id="DejaVuSans-35" transform="scale(0.015625)"/>
       </defs>
       <use xlink:href="#DejaVuSans-35"/>
       <use x="63.623047" xlink:href="#DejaVuSans-30"/>
       <use x="127.246094" xlink:href="#DejaVuSans-30"/>
      </g>
     </g>
    </g>
    <g id="xtick_3">
     <g id="line2d_3">
      <g>
       <use style="fill:#ffffff;stroke:#ffffff;stroke-width:0.8;" x="398.315299" xlink:href="#ma696a87460" y="504"/>
      </g>
     </g>
     <g id="text_3">
      <!-- 1000 -->
      <g style="fill:#ffffff;" transform="translate(385.590299 518.598438)scale(0.1 -0.1)">
       <defs>
        <path d="M 794 531 
L 1825 531 
L 1825 4091 
L 703 3866 
L 703 4441 
L 1819 4666 
L 2450 4666 
L 2450 531 
L 3481 531 
L 3481 0 
L 794 0 
L 794 531 
z
" id="DejaVuSans-31" transform="scale(0.015625)"/>
       </defs>
       <use xlink:href="#DejaVuSans-31"/>
       <use x="63.623047" xlink:href="#DejaVuSans-30"/>
       <use x="127.246094" xlink:href="#DejaVuSans-30"/>
       <use x="190.869141" xlink:href="#DejaVuSans-30"/>
      </g>
     </g>
    </g>
    <g id="xtick_4">
     <g id="line2d_4">
      <g>
       <use style="fill:#ffffff;stroke:#ffffff;stroke-width:0.8;" x="516.718403" xlink:href="#ma696a87460" y="504"/>
      </g>
     </g>
     <g id="text_4">
      <!-- 1500 -->
      <g style="fill:#ffffff;" transform="translate(503.993403 518.598438)scale(0.1 -0.1)">
       <use xlink:href="#DejaVuSans-31"/>
       <use x="63.623047" xlink:href="#DejaVuSans-35"/>
       <use x="127.246094" xlink:href="#DejaVuSans-30"/>
       <use x="190.869141" xlink:href="#DejaVuSans-30"/>
      </g>
     </g>
    </g>
    <g id="xtick_5">
     <g id="line2d_5">
      <g>
       <use style="fill:#ffffff;stroke:#ffffff;stroke-width:0.8;" x="635.121507" xlink:href="#ma696a87460" y="504"/>
      </g>
     </g>
     <g id="text_5">
      <!-- 2000 -->
      <g style="fill:#ffffff;" transform="translate(622.396507 518.598438)scale(0.1 -0.1)">
       <defs>
        <path d="M 1228 531 
L 3431 531 
L 3431 0 
L 469 0 
L 469 531 
Q 828 903 1448 1529 
Q 2069 2156 2228 2338 
Q 2531 2678 2651 2914 
Q 2772 3150 2772 3378 
Q 2772 3750 2511 3984 
Q 2250 4219 1831 4219 
Q 1534 4219 1204 4116 
Q 875 4013 500 3803 
L 500 4441 
Q 881 4594 1212 4672 
Q 1544 4750 1819 4750 
Q 2544 4750 2975 4387 
Q 3406 4025 3406 3419 
Q 3406 3131 3298 2873 
Q 3191 2616 2906 2266 
Q 2828 2175 2409 1742 
Q 1991 1309 1228 531 
z
" id="DejaVuSans-32" transform="scale(0.015625)"/>
       </defs>
       <use xlink:href="#DejaVuSans-32"/>
       <use x="63.623047" xlink:href="#DejaVuSans-30"/>
       <use x="127.246094" xlink:href="#DejaVuSans-30"/>
       <use x="190.869141" xlink:href="#DejaVuSans-30"/>
      </g>
     </g>
    </g>
    <g id="xtick_6">
     <g id="line2d_6">
      <g>
       <use style="fill:#ffffff;stroke:#ffffff;stroke-width:0.8;" x="753.524611" xlink:href="#ma696a87460" y="504"/>
      </g>
     </g>
     <g id="text_6">
      <!-- 2500 -->
      <g style="fill:#ffffff;" transform="translate(740.799611 518.598438)scale(0.1 -0.1)">
       <use xlink:href="#DejaVuSans-32"/>
       <use x="63.623047" xlink:href="#DejaVuSans-35"/>
       <use x="127.246094" xlink:href="#DejaVuSans-30"/>
       <use x="190.869141" xlink:href="#DejaVuSans-30"/>
      </g>
     </g>
    </g>
    <g id="xtick_7">
     <g id="line2d_7">
      <g>
       <use style="fill:#ffffff;stroke:#ffffff;stroke-width:0.8;" x="871.927715" xlink:href="#ma696a87460" y="504"/>
      </g>
     </g>
     <g id="text_7">
      <!-- 3000 -->
      <g style="fill:#ffffff;" transform="translate(859.202715 518.598438)scale(0.1 -0.1)">
       <defs>
        <path d="M 2597 2516 
Q 3050 2419 3304 2112 
Q 3559 1806 3559 1356 
Q 3559 666 3084 287 
Q 2609 -91 1734 -91 
Q 1441 -91 1130 -33 
Q 819 25 488 141 
L 488 750 
Q 750 597 1062 519 
Q 1375 441 1716 441 
Q 2309 441 2620 675 
Q 2931 909 2931 1356 
Q 2931 1769 2642 2001 
Q 2353 2234 1838 2234 
L 1294 2234 
L 1294 2753 
L 1863 2753 
Q 2328 2753 2575 2939 
Q 2822 3125 2822 3475 
Q 2822 3834 2567 4026 
Q 2313 4219 1838 4219 
Q 1578 4219 1281 4162 
Q 984 4106 628 3988 
L 628 4550 
Q 988 4650 1302 4700 
Q 1616 4750 1894 4750 
Q 2613 4750 3031 4423 
Q 3450 4097 3450 3541 
Q 3450 3153 3228 2886 
Q 3006 2619 2597 2516 
z
" id="DejaVuSans-33" transform="scale(0.015625)"/>
       </defs>
       <use xlink:href="#DejaVuSans-33"/>
       <use x="63.623047" xlink:href="#DejaVuSans-30"/>
       <use x="127.246094" xlink:href="#DejaVuSans-30"/>
       <use x="190.869141" xlink:href="#DejaVuSans-30"/>
      </g>
     </g>
    </g>
    <g id="text_8">
     <!-- iteration -->
     <g style="fill:#ffffff;" transform="translate(495.477344 532.276562)scale(0.1 -0.1)">
      <defs>
       <path d="M 603 3500 
L 1178 3500 
L 1178 0 
L 603 0 
L 603 3500 
z
M 603 4863 
L 1178 4863 
L 1178 4134 
L 603 4134 
L 603 4863 
z
" id="DejaVuSans-69" transform="scale(0.015625)"/>
       <path d="M 1172 4494 
L 1172 3500 
L 2356 3500 
L 2356 3053 
L 1172 3053 
L 1172 1153 
Q 1172 725 1289 603 
Q 1406 481 1766 481 
L 2356 481 
L 2356 0 
L 1766 0 
Q 1100 0 847 248 
Q 594 497 594 1153 
L 594 3053 
L 172 3053 
L 172 3500 
L 594 3500 
L 594 4494 
L 1172 4494 
z
" id="DejaVuSans-74" transform="scale(0.015625)"/>
       <path d="M 3597 1894 
L 3597 1613 
L 953 1613 
Q 991 1019 1311 708 
Q 1631 397 2203 397 
Q 2534 397 2845 478 
Q 3156 559 3463 722 
L 3463 178 
Q 3153 47 2828 -22 
Q 2503 -91 2169 -91 
Q 1331 -91 842 396 
Q 353 884 353 1716 
Q 353 2575 817 3079 
Q 1281 3584 2069 3584 
Q 2775 3584 3186 3129 
Q 3597 2675 3597 1894 
z
M 3022 2063 
Q 3016 2534 2758 2815 
Q 2500 3097 2075 3097 
Q 1594 3097 1305 2825 
Q 1016 2553 972 2059 
L 3022 2063 
z
" id="DejaVuSans-65" transform="scale(0.015625)"/>
       <path d="M 2631 2963 
Q 2534 3019 2420 3045 
Q 2306 3072 2169 3072 
Q 1681 3072 1420 2755 
Q 1159 2438 1159 1844 
L 1159 0 
L 581 0 
L 581 3500 
L 1159 3500 
L 1159 2956 
Q 1341 3275 1631 3429 
Q 1922 3584 2338 3584 
Q 2397 3584 2469 3576 
Q 2541 3569 2628 3553 
L 2631 2963 
z
" id="DejaVuSans-72" transform="scale(0.015625)"/>
       <path d="M 2194 1759 
Q 1497 1759 1228 1600 
Q 959 1441 959 1056 
Q 959 750 1161 570 
Q 1363 391 1709 391 
Q 2188 391 2477 730 
Q 2766 1069 2766 1631 
L 2766 1759 
L 2194 1759 
z
M 3341 1997 
L 3341 0 
L 2766 0 
L 2766 531 
Q 2569 213 2275 61 
Q 1981 -91 1556 -91 
Q 1019 -91 701 211 
Q 384 513 384 1019 
Q 384 1609 779 1909 
Q 1175 2209 1959 2209 
L 2766 2209 
L 2766 2266 
Q 2766 2663 2505 2880 
Q 2244 3097 1772 3097 
Q 1472 3097 1187 3025 
Q 903 2953 641 2809 
L 641 3341 
Q 956 3463 1253 3523 
Q 1550 3584 1831 3584 
Q 2591 3584 2966 3190 
Q 3341 2797 3341 1997 
z
" id="DejaVuSans-61" transform="scale(0.015625)"/>
       <path d="M 1959 3097 
Q 1497 3097 1228 2736 
Q 959 2375 959 1747 
Q 959 1119 1226 758 
Q 1494 397 1959 397 
Q 2419 397 2687 759 
Q 2956 1122 2956 1747 
Q 2956 2369 2687 2733 
Q 2419 3097 1959 3097 
z
M 1959 3584 
Q 2709 3584 3137 3096 
Q 3566 2609 3566 1747 
Q 3566 888 3137 398 
Q 2709 -91 1959 -91 
Q 1206 -91 779 398 
Q 353 888 353 1747 
Q 353 2609 779 3096 
Q 1206 3584 1959 3584 
z
" id="DejaVuSans-6f" transform="scale(0.015625)"/>
       <path d="M 3513 2113 
L 3513 0 
L 2938 0 
L 2938 2094 
Q 2938 2591 2744 2837 
Q 2550 3084 2163 3084 
Q 1697 3084 1428 2787 
Q 1159 2491 1159 1978 
L 1159 0 
L 581 0 
L 581 3500 
L 1159 3500 
L 1159 2956 
Q 1366 3272 1645 3428 
Q 1925 3584 2291 3584 
Q 2894 3584 3203 3211 
Q 3513 2838 3513 2113 
z
" id="DejaVuSans-6e" transform="scale(0.015625)"/>
      </defs>
      <use xlink:href="#DejaVuSans-69"/>
      <use x="27.783203" xlink:href="#DejaVuSans-74"/>
      <use x="66.992188" xlink:href="#DejaVuSans-65"/>
      <use x="128.515625" xlink:href="#DejaVuSans-72"/>
      <use x="169.628906" xlink:href="#DejaVuSans-61"/>
      <use x="230.908203" xlink:href="#DejaVuSans-74"/>
      <use x="270.117188" xlink:href="#DejaVuSans-69"/>
      <use x="297.900391" xlink:href="#DejaVuSans-6f"/>
      <use x="359.082031" xlink:href="#DejaVuSans-6e"/>
     </g>
    </g>
   </g>
   <g id="matplotlib.axis_2">
    <g id="ytick_1">
     <g id="line2d_8">
      <defs>
       <path d="M 0 0 
L -3.5 0 
" id="mae94a555bc" style="stroke:#ffffff;stroke-width:0.8;"/>
      </defs>
      <g>
       <use style="fill:#ffffff;stroke:#ffffff;stroke-width:0.8;" x="126" xlink:href="#mae94a555bc" y="484.232727"/>
      </g>
     </g>
     <g id="text_9">
      <!-- 0 -->
      <g style="fill:#ffffff;" transform="translate(112.6375 488.031946)scale(0.1 -0.1)">
       <use xlink:href="#DejaVuSans-30"/>
      </g>
     </g>
    </g>
    <g id="ytick_2">
     <g id="line2d_9">
      <g>
       <use style="fill:#ffffff;stroke:#ffffff;stroke-width:0.8;" x="126" xlink:href="#mae94a555bc" y="399.212199"/>
      </g>
     </g>
     <g id="text_10">
      <!-- 1000 -->
      <g style="fill:#ffffff;" transform="translate(93.55 403.011418)scale(0.1 -0.1)">
       <use xlink:href="#DejaVuSans-31"/>
       <use x="63.623047" xlink:href="#DejaVuSans-30"/>
       <use x="127.246094" xlink:href="#DejaVuSans-30"/>
       <use x="190.869141" xlink:href="#DejaVuSans-30"/>
      </g>
     </g>
    </g>
    <g id="ytick_3">
     <g id="line2d_10">
      <g>
       <use style="fill:#ffffff;stroke:#ffffff;stroke-width:0.8;" x="126" xlink:href="#mae94a555bc" y="314.191672"/>
      </g>
     </g>
     <g id="text_11">
      <!-- 2000 -->
      <g style="fill:#ffffff;" transform="translate(93.55 317.99089)scale(0.1 -0.1)">
       <use xlink:href="#DejaVuSans-32"/>
       <use x="63.623047" xlink:href="#DejaVuSans-30"/>
       <use x="127.246094" xlink:href="#DejaVuSans-30"/>
       <use x="190.869141" xlink:href="#DejaVuSans-30"/>
      </g>
     </g>
    </g>
    <g id="ytick_4">
     <g id="line2d_11">
      <g>
       <use style="fill:#ffffff;stroke:#ffffff;stroke-width:0.8;" x="126" xlink:href="#mae94a555bc" y="229.171144"/>
      </g>
     </g>
     <g id="text_12">
      <!-- 3000 -->
      <g style="fill:#ffffff;" transform="translate(93.55 232.970362)scale(0.1 -0.1)">
       <use xlink:href="#DejaVuSans-33"/>
       <use x="63.623047" xlink:href="#DejaVuSans-30"/>
       <use x="127.246094" xlink:href="#DejaVuSans-30"/>
       <use x="190.869141" xlink:href="#DejaVuSans-30"/>
      </g>
     </g>
    </g>
    <g id="ytick_5">
     <g id="line2d_12">
      <g>
       <use style="fill:#ffffff;stroke:#ffffff;stroke-width:0.8;" x="126" xlink:href="#mae94a555bc" y="144.150616"/>
      </g>
     </g>
     <g id="text_13">
      <!-- 4000 -->
      <g style="fill:#ffffff;" transform="translate(93.55 147.949835)scale(0.1 -0.1)">
       <defs>
        <path d="M 2419 4116 
L 825 1625 
L 2419 1625 
L 2419 4116 
z
M 2253 4666 
L 3047 4666 
L 3047 1625 
L 3713 1625 
L 3713 1100 
L 3047 1100 
L 3047 0 
L 2419 0 
L 2419 1100 
L 313 1100 
L 313 1709 
L 2253 4666 
z
" id="DejaVuSans-34" transform="scale(0.015625)"/>
       </defs>
       <use xlink:href="#DejaVuSans-34"/>
       <use x="63.623047" xlink:href="#DejaVuSans-30"/>
       <use x="127.246094" xlink:href="#DejaVuSans-30"/>
       <use x="190.869141" xlink:href="#DejaVuSans-30"/>
      </g>
     </g>
    </g>
   </g>
   <g id="line2d_13">
    <path clip-path="url(#p245f8d4c22)" d="M 161.509091 302.033736 
L 161.745897 311.385994 
L 162.21951 484.232727 
L 162.456316 434.495718 
L 162.693122 312.916364 
L 163.166734 312.916364 
L 163.403541 484.232727 
L 164.350765 484.232727 
L 164.587572 402.698041 
L 164.824378 231.381677 
L 165.061184 312.916364 
L 165.534796 312.916364 
L 165.771603 394.366029 
L 166.008409 336.126968 
L 166.245215 447.758921 
L 166.482021 402.698041 
L 166.718827 273.296798 
L 166.955634 281.79885 
L 167.19244 281.79885 
L 167.429246 331.535859 
L 167.666052 331.535859 
L 167.902859 281.203707 
L 168.139665 203.154862 
L 168.376471 203.154862 
L 168.613277 484.232727 
L 169.08689 314.106651 
L 169.323696 314.106651 
L 169.560502 232.571965 
L 169.797308 389.519859 
L 170.034114 389.519859 
L 170.270921 402.698041 
L 170.507727 484.232727 
L 171.218145 484.232727 
L 171.454952 302.033736 
L 171.928564 302.033736 
L 172.16537 484.232727 
L 172.402176 311.385994 
L 172.638983 484.232727 
L 173.112595 203.154862 
L 173.349401 177.903765 
L 173.586208 203.154862 
L 173.823014 331.535859 
L 174.05982 309.685584 
L 175.007045 309.685584 
L 175.243851 312.916364 
L 175.480657 312.916364 
L 175.717463 394.366029 
L 175.95427 369.114933 
L 176.191076 377.446944 
L 176.427882 231.381677 
L 176.664688 484.232727 
L 176.901494 417.916716 
L 177.138301 417.916716 
L 177.375107 484.232727 
L 177.611913 394.366029 
L 177.848719 390.710147 
L 178.322332 390.710147 
L 178.559138 417.916716 
L 179.03275 417.916716 
L 179.269557 309.685584 
L 179.506363 389.859941 
L 179.743169 378.042088 
L 180.216781 378.042088 
L 180.453588 309.685584 
L 180.690394 309.685584 
L 180.9272 484.232727 
L 181.637619 312.576282 
L 181.874425 433.900575 
L 182.111231 309.685584 
L 182.348037 309.685584 
L 182.584843 484.232727 
L 182.82165 425.993666 
L 183.058456 484.232727 
L 183.295262 458.98163 
L 183.532068 458.98163 
L 183.768874 369.114933 
L 184.005681 458.98163 
L 184.242487 484.232727 
L 184.479293 473.265079 
L 184.716099 309.685584 
L 184.952906 389.859941 
L 185.189712 389.859941 
L 185.426518 484.232727 
L 185.663324 313.93661 
L 185.90013 384.928751 
L 186.136937 212.082018 
L 186.373743 311.385994 
L 186.610549 229.851308 
L 186.847355 229.851308 
L 187.084161 384.928751 
L 187.557774 384.928751 
L 187.79458 256.547754 
L 188.031386 256.547754 
L 188.268192 331.535859 
L 188.504999 203.154862 
L 188.741805 177.903765 
L 188.978611 177.903765 
L 189.215417 255.95261 
L 189.452223 484.232727 
L 189.68903 312.916364 
L 190.162642 312.916364 
L 190.636255 484.232727 
L 190.873061 311.385994 
L 191.109867 261.648985 
L 191.346673 314.106651 
L 191.583479 314.106651 
L 191.820286 484.232727 
L 192.057092 312.916364 
L 192.293898 312.916364 
L 192.530704 484.232727 
L 192.76751 484.232727 
L 193.004317 390.115003 
L 193.241123 484.232727 
L 193.477929 331.535859 
L 193.714735 484.232727 
L 194.188348 331.62088 
L 194.425154 389.859941 
L 194.66196 313.93661 
L 194.898766 312.916364 
L 195.135572 312.916364 
L 195.372379 384.928751 
L 195.609185 334.596598 
L 196.319604 334.596598 
L 196.55641 384.928751 
L 196.793216 484.232727 
L 197.030022 394.366029 
L 197.503635 394.366029 
L 197.740441 460.937103 
L 197.977247 484.232727 
L 198.214053 484.232727 
L 198.450859 331.535859 
L 198.687666 331.535859 
L 198.924472 394.366029 
L 199.398084 344.033877 
L 199.63489 344.033877 
L 199.871697 434.495718 
L 200.108503 434.495718 
L 200.345309 335.191742 
L 200.582115 384.928751 
L 200.818921 384.928751 
L 201.055728 326.689689 
L 201.292534 326.689689 
L 201.52934 309.685584 
L 201.766146 484.232727 
L 202.002952 484.232727 
L 202.239759 378.042088 
L 202.476565 378.042088 
L 202.713371 319.803026 
L 202.950177 326.689689 
L 203.186984 484.232727 
L 203.42379 484.232727 
L 203.660596 390.710147 
L 203.897402 378.042088 
L 204.134208 331.535859 
L 204.371015 484.232727 
L 204.607821 433.900575 
L 204.844627 484.232727 
L 205.081433 311.385994 
L 205.318239 286.134897 
L 206.028658 286.134897 
L 206.265464 272.956716 
L 206.50227 471.054545 
L 206.975883 471.054545 
L 207.449495 376.68176 
L 207.686301 421.147496 
L 207.923108 421.147496 
L 208.159914 369.455015 
L 208.39672 369.455015 
L 208.633526 407.28915 
L 208.870333 333.23627 
L 209.107139 333.23627 
L 209.343945 460.937103 
L 209.580751 484.232727 
L 209.817557 421.147496 
L 210.054364 484.232727 
L 210.527976 327.029771 
L 210.764782 276.697619 
L 211.001588 370.815343 
L 211.238395 389.859941 
L 211.475201 389.859941 
L 211.712007 484.232727 
L 211.948813 378.042088 
L 212.422426 378.042088 
L 212.659232 484.232727 
L 212.896038 312.916364 
L 213.132844 331.535859 
L 213.36965 484.232727 
L 213.606457 390.115003 
L 213.843263 207.916012 
L 214.080069 207.916012 
L 214.316875 434.495718 
L 214.553682 484.232727 
L 214.790488 473.265079 
L 215.2641 473.265079 
L 215.500906 376.256657 
L 215.737713 473.265079 
L 216.211325 473.265079 
L 216.448131 389.859941 
L 216.684937 460.937103 
L 216.921744 460.937103 
L 217.15855 390.710147 
L 217.395356 434.495718 
L 217.632162 409.244622 
L 217.868968 313.93661 
L 218.105775 471.054545 
L 218.579387 325.24434 
L 218.816193 325.24434 
L 219.052999 419.362065 
L 219.289806 419.362065 
L 219.526612 471.054545 
L 219.763418 371.750569 
L 220.000224 371.750569 
L 220.237031 384.928751 
L 220.473837 371.750569 
L 220.710643 318.357677 
L 220.947449 331.535859 
L 221.184255 273.296798 
L 221.421062 425.993666 
L 221.657868 412.815484 
L 221.894674 484.232727 
L 222.13148 471.054545 
L 222.368286 471.054545 
L 222.605093 484.232727 
L 222.841899 394.366029 
L 223.078705 484.232727 
L 223.315511 421.147496 
L 223.552317 314.106651 
L 224.02593 314.106651 
L 224.262736 256.547754 
L 224.499542 484.232727 
L 224.736348 484.232727 
L 224.973155 433.900575 
L 225.209961 261.053842 
L 225.446767 261.053842 
L 225.683573 202.81478 
L 225.92038 253.146933 
L 226.157186 254.677302 
L 226.393992 323.798991 
L 226.630798 323.798991 
L 226.867604 417.916716 
L 227.104411 417.916716 
L 227.341217 289.535718 
L 227.578023 417.916716 
L 227.814829 359.677654 
L 228.051635 331.62088 
L 228.288442 331.62088 
L 228.525248 290.811026 
L 228.762054 290.811026 
L 228.99886 300.248305 
L 229.235666 394.366029 
L 230.182891 394.366029 
L 230.419697 344.033877 
L 230.656504 344.033877 
L 230.89331 433.900575 
L 231.130116 382.208094 
L 231.366922 433.900575 
L 231.840535 309.685584 
L 232.314147 309.685584 
L 232.550953 460.937103 
L 232.78776 390.710147 
L 233.024566 390.710147 
L 233.261372 421.147496 
L 233.498178 370.815343 
L 233.734984 370.815343 
L 233.971791 484.232727 
L 234.208597 458.98163 
L 234.445403 309.685584 
L 234.682209 309.685584 
L 234.919015 432.540246 
L 235.392628 432.540246 
L 235.86624 382.803238 
L 236.339853 207.916012 
L 236.576659 484.232727 
L 236.813465 389.859941 
L 237.050271 469.269114 
L 237.287078 460.937103 
L 237.523884 473.265079 
L 237.76069 311.385994 
L 237.997496 261.053842 
L 238.471109 261.053842 
L 238.707915 484.232727 
L 238.944721 433.900575 
L 239.181527 339.78285 
L 239.418333 484.232727 
L 239.65514 394.366029 
L 239.891946 381.187848 
L 240.128752 381.187848 
L 240.365558 287.070123 
L 240.602364 287.070123 
L 241.075977 484.232727 
L 241.312783 302.033736 
L 241.549589 238.948504 
L 241.786395 302.033736 
L 242.023202 238.948504 
L 242.260008 469.269114 
L 242.496814 469.269114 
L 242.73362 484.232727 
L 243.207233 484.232727 
L 243.444039 309.685584 
L 243.680845 434.495718 
L 243.917651 484.232727 
L 244.154458 471.054545 
L 244.391264 390.710147 
L 244.62807 458.98163 
L 244.864876 276.782639 
L 245.101682 407.28915 
L 245.338489 394.366029 
L 245.575295 394.366029 
L 245.812101 421.147496 
L 246.048907 362.908434 
L 246.285713 425.993666 
L 246.52252 425.993666 
L 246.759326 375.661513 
L 246.996132 433.900575 
L 247.469744 484.232727 
L 247.706551 460.937103 
L 247.943357 484.232727 
L 248.180163 473.265079 
L 248.416969 473.265079 
L 248.653776 394.366029 
L 248.890582 394.366029 
L 249.127388 484.232727 
L 249.364194 484.232727 
L 249.601 434.495718 
L 249.837807 434.495718 
L 250.074613 484.232727 
L 250.311419 394.366029 
L 250.548225 394.366029 
L 250.785031 484.232727 
L 251.021838 312.916364 
L 251.258644 312.916364 
L 251.49545 331.535859 
L 251.732256 312.916364 
L 251.969062 312.916364 
L 252.205869 311.385994 
L 252.442675 417.916716 
L 252.679481 417.916716 
L 252.916287 392.665619 
L 253.153093 392.665619 
L 253.3899 367.584563 
L 253.863512 367.584563 
L 254.100318 460.937103 
L 254.337124 378.042088 
L 254.573931 484.232727 
L 255.284349 484.232727 
L 255.757962 261.734006 
L 255.994768 261.734006 
L 256.231574 203.494944 
L 256.705187 340.377994 
L 256.941993 484.232727 
L 257.178799 394.366029 
L 257.415605 484.232727 
L 257.652411 390.115003 
L 257.889218 390.115003 
L 258.126024 484.232727 
L 258.36283 389.859941 
L 258.599636 389.859941 
L 258.836442 460.937103 
L 259.073249 433.900575 
L 259.310055 367.584563 
L 259.546861 484.232727 
L 259.783667 302.033736 
L 260.020473 314.106651 
L 260.25728 314.106651 
L 260.494086 263.774499 
L 260.730892 263.774499 
L 260.967698 484.232727 
L 261.204505 484.232727 
L 261.441311 469.269114 
L 261.914923 469.269114 
L 262.151729 390.710147 
L 262.388536 484.232727 
L 262.625342 309.685584 
L 262.862148 309.685584 
L 263.098954 390.710147 
L 263.572567 390.710147 
L 263.809373 384.928751 
L 264.046179 484.232727 
L 264.519791 367.584563 
L 264.756598 484.232727 
L 264.993404 331.535859 
L 265.23021 484.232727 
L 265.703822 311.385994 
L 265.940629 311.385994 
L 266.177435 312.916364 
L 266.414241 312.916364 
L 266.651047 218.798639 
L 266.887854 295.742217 
L 267.361466 295.742217 
L 267.598272 237.418135 
L 268.071885 237.418135 
L 268.308691 207.916012 
L 268.545497 390.115003 
L 269.019109 109.037138 
L 269.255916 248.555824 
L 269.492722 248.555824 
L 269.729528 404.738534 
L 269.966334 471.054545 
L 270.20314 313.93661 
L 270.676753 313.93661 
L 270.913559 309.685584 
L 271.150365 309.685584 
L 271.387171 425.993666 
L 271.623978 336.126968 
L 271.860784 394.366029 
L 272.334396 242.009243 
L 272.571203 242.009243 
L 272.808009 336.126968 
L 273.044815 242.009243 
L 273.281621 300.248305 
L 273.518427 394.366029 
L 273.99204 394.366029 
L 274.228846 371.750569 
L 274.465652 484.232727 
L 274.702458 484.232727 
L 274.939265 471.054545 
L 275.176071 471.054545 
L 275.412877 420.722393 
L 275.649683 288.855554 
L 275.886489 484.232727 
L 276.123296 402.698041 
L 276.360102 231.381677 
L 276.596908 312.916364 
L 276.833714 299.738182 
L 277.07052 407.969314 
L 277.307327 460.937103 
L 277.544133 309.685584 
L 278.017745 484.232727 
L 278.254552 484.232727 
L 278.491358 309.685584 
L 278.728164 421.147496 
L 278.96497 394.366029 
L 279.201776 344.033877 
L 279.438583 381.187848 
L 279.675389 322.948786 
L 279.912195 336.126968 
L 280.385807 336.126968 
L 280.622614 473.265079 
L 280.85942 473.265079 
L 281.096226 469.269114 
L 281.333032 484.232727 
L 281.569838 484.232727 
L 281.806645 402.698041 
L 282.043451 402.698041 
L 282.280257 308.580317 
L 282.517063 402.698041 
L 282.753869 377.446944 
L 282.990676 312.916364 
L 283.227482 312.916364 
L 283.464288 184.535367 
L 283.701094 355.85173 
L 283.937901 185.725654 
L 284.174707 185.725654 
L 284.411513 289.535718 
L 284.648319 292.766499 
L 284.885125 355.85173 
L 285.121932 484.232727 
L 285.358738 484.232727 
L 285.83235 256.547754 
L 286.069156 484.232727 
L 286.305963 473.265079 
L 286.542769 390.710147 
L 286.779575 355.85173 
L 287.016381 355.85173 
L 287.253187 390.710147 
L 287.489994 384.928751 
L 287.7268 256.547754 
L 287.963606 484.232727 
L 288.200412 458.98163 
L 288.437218 407.28915 
L 288.674025 313.171425 
L 288.910831 309.685584 
L 289.384443 309.685584 
L 289.62125 384.928751 
L 289.858056 335.191742 
L 290.094862 335.191742 
L 290.331668 434.495718 
L 290.568474 469.269114 
L 290.805281 355.85173 
L 291.042087 355.85173 
L 291.278893 484.232727 
L 291.515699 389.859941 
L 291.752505 417.916716 
L 291.989312 311.385994 
L 292.226118 261.053842 
L 292.462924 484.232727 
L 292.69973 311.385994 
L 292.936536 484.232727 
L 293.173343 312.916364 
L 293.410149 484.232727 
L 293.646955 484.232727 
L 293.883761 389.859941 
L 294.120567 460.937103 
L 294.59418 300.248305 
L 294.830986 300.248305 
L 295.067792 237.418135 
L 295.304599 237.418135 
L 295.778211 331.535859 
L 296.015017 302.033736 
L 296.251823 302.033736 
L 296.48863 207.916012 
L 296.725436 290.811026 
L 296.962242 283.924364 
L 297.199048 378.042088 
L 297.435854 314.106651 
L 297.672661 314.106651 
L 297.909467 185.725654 
L 298.146273 185.725654 
L 298.383079 314.106651 
L 298.619885 232.571965 
L 298.856692 402.698041 
L 299.093498 313.93661 
L 299.330304 313.93661 
L 299.56711 331.535859 
L 299.803916 484.232727 
L 300.040723 390.115003 
L 300.277529 390.115003 
L 300.514335 219.818886 
L 300.751141 390.115003 
L 301.224754 202.389677 
L 301.46156 296.507402 
L 301.698366 229.851308 
L 301.935172 296.507402 
L 302.171979 202.389677 
L 302.408785 389.519859 
L 302.645591 336.382029 
L 302.882397 390.710147 
L 303.119203 312.916364 
L 303.35601 312.916364 
L 303.592816 311.385994 
L 303.829622 259.693513 
L 304.066428 484.232727 
L 304.303234 473.265079 
L 304.540041 422.932927 
L 304.776847 473.265079 
L 305.013653 384.163566 
L 305.250459 420.722393 
L 305.487265 420.722393 
L 305.724072 262.584211 
L 305.960878 327.709935 
L 306.197684 269.470874 
L 306.43449 294.55193 
L 306.671296 350.410416 
L 306.908103 294.55193 
L 307.144909 352.790991 
L 307.381715 352.790991 
L 307.618521 458.98163 
L 307.855328 458.98163 
L 308.092134 395.896399 
L 308.32894 484.232727 
L 308.565746 355.85173 
L 309.039359 355.85173 
L 309.276165 330.600633 
L 309.512971 458.98163 
L 309.749777 243.794674 
L 309.986583 378.042088 
L 310.22339 394.366029 
L 310.460196 484.232727 
L 310.697002 378.042088 
L 310.933808 484.232727 
L 311.170614 484.232727 
L 311.881033 219.818886 
L 312.354645 484.232727 
L 312.591452 484.232727 
L 312.828258 311.385994 
L 313.065064 311.385994 
L 313.30187 484.232727 
L 313.538677 445.803449 
L 313.775483 458.98163 
L 314.012289 407.28915 
L 314.249095 313.93661 
L 314.959514 313.93661 
L 315.19632 484.232727 
L 315.433126 338.422522 
L 316.380351 338.422522 
L 316.617157 378.042088 
L 316.853963 378.042088 
L 317.09077 327.709935 
L 317.327576 484.232727 
L 317.564382 313.93661 
L 317.801188 331.535859 
L 318.037994 281.79885 
L 318.274801 331.535859 
L 318.511607 331.535859 
L 318.748413 281.79885 
L 318.985219 312.916364 
L 319.222026 231.381677 
L 319.695638 421.147496 
L 319.932444 421.147496 
L 320.16925 238.948504 
L 320.406057 421.147496 
L 320.642863 421.147496 
L 320.879669 362.908434 
L 321.116475 484.232727 
L 321.590088 369.455015 
L 322.300506 369.455015 
L 322.537312 421.147496 
L 323.010925 421.147496 
L 323.247731 484.232727 
L 323.484537 390.710147 
L 323.721343 471.054545 
L 323.95815 484.232727 
L 324.194956 484.232727 
L 324.431762 460.937103 
L 324.668568 460.937103 
L 324.905375 434.495718 
L 325.142181 261.648985 
L 325.378987 484.232727 
L 325.615793 309.685584 
L 326.089406 309.685584 
L 326.326212 434.495718 
L 326.563018 376.256657 
L 326.799824 374.301185 
L 327.03663 374.301185 
L 327.273437 484.232727 
L 327.510243 484.232727 
L 327.747049 390.710147 
L 327.983855 433.900575 
L 328.220661 327.709935 
L 328.457468 314.106651 
L 328.694274 314.106651 
L 328.93108 185.725654 
L 329.167886 185.725654 
L 329.404692 255.867589 
L 329.641499 242.689408 
L 329.878305 255.867589 
L 330.115111 309.685584 
L 330.351917 469.269114 
L 330.588724 484.232727 
L 330.82553 484.232727 
L 331.062336 432.540246 
L 331.299142 484.232727 
L 331.535948 469.269114 
L 331.772755 417.916716 
L 332.009561 417.916716 
L 332.246367 384.928751 
L 332.483173 326.689689 
L 332.719979 326.689689 
L 332.956786 245.155003 
L 333.193592 333.491331 
L 333.430398 333.491331 
L 333.667204 319.207883 
L 333.90401 390.710147 
L 334.140817 355.85173 
L 334.377623 355.85173 
L 334.614429 203.154862 
L 334.851235 331.535859 
L 335.088041 158.689126 
L 335.324848 311.385994 
L 335.561654 311.385994 
L 335.79846 248.300762 
L 336.035266 484.232727 
L 336.272073 384.928751 
L 336.508879 484.232727 
L 336.745685 471.054545 
L 336.982491 421.317537 
L 337.219297 471.054545 
L 337.456104 300.928469 
L 337.929716 300.928469 
L 338.166522 484.232727 
L 338.403328 484.232727 
L 338.640135 331.535859 
L 338.876941 484.232727 
L 339.113747 425.993666 
L 339.350553 484.232727 
L 339.824166 460.086897 
L 340.060972 469.269114 
L 340.297778 417.916716 
L 340.534584 484.232727 
L 340.77139 484.232727 
L 341.008197 384.928751 
L 341.245003 212.082018 
L 341.955422 484.232727 
L 342.192228 312.916364 
L 342.429034 432.540246 
L 342.66584 432.540246 
L 342.902646 309.685584 
L 343.139453 484.232727 
L 343.376259 314.106651 
L 343.849871 314.106651 
L 344.086677 263.774499 
L 344.323484 484.232727 
L 344.56029 425.993666 
L 344.797096 425.993666 
L 345.033902 254.677302 
L 345.270708 312.916364 
L 345.507515 312.916364 
L 345.744321 484.232727 
L 345.981127 425.993666 
L 346.217933 402.698041 
L 346.454739 312.916364 
L 346.691546 312.916364 
L 346.928352 484.232727 
L 347.165158 421.147496 
L 347.63877 421.147496 
L 347.875577 292.766499 
L 348.112383 292.766499 
L 348.349189 378.042088 
L 348.822802 378.042088 
L 349.059608 249.661091 
L 349.53322 484.232727 
L 349.770026 433.900575 
L 350.006833 433.900575 
L 350.243639 309.685584 
L 351.190864 309.685584 
L 351.42767 484.232727 
L 351.664476 432.540246 
L 351.901282 484.232727 
L 352.138088 484.232727 
L 352.374895 309.685584 
L 352.611701 434.495718 
L 352.848507 340.377994 
L 353.085313 390.115003 
L 353.322119 376.936821 
L 353.558926 312.916364 
L 353.795732 312.916364 
L 354.032538 184.535367 
L 354.506151 184.535367 
L 354.742957 312.916364 
L 354.979763 287.665267 
L 355.216569 445.803449 
L 355.453375 364.268762 
L 355.926988 364.268762 
L 356.163794 484.232727 
L 356.4006 421.147496 
L 356.637406 309.685584 
L 356.874213 384.928751 
L 357.111019 256.547754 
L 357.347825 484.232727 
L 357.584631 484.232727 
L 357.821437 458.98163 
L 358.058244 306.284762 
L 358.29505 313.93661 
L 358.531856 433.900575 
L 358.768662 251.701584 
L 359.005468 433.900575 
L 359.242275 433.900575 
L 359.479081 484.232727 
L 359.715887 312.916364 
L 359.952693 314.106651 
L 360.1895 314.106651 
L 360.426306 288.855554 
L 360.663112 458.98163 
L 360.899918 458.98163 
L 361.136724 445.803449 
L 361.373531 376.68176 
L 361.610337 384.928751 
L 361.847143 333.23627 
L 362.083949 333.23627 
L 362.320755 390.710147 
L 362.557562 484.232727 
L 362.794368 484.232727 
L 363.031174 389.859941 
L 363.26798 389.859941 
L 363.504786 484.232727 
L 363.741593 484.232727 
L 363.978399 384.928751 
L 364.215205 232.231883 
L 364.452011 484.232727 
L 364.688817 313.93661 
L 364.925624 484.232727 
L 365.399236 352.961032 
L 365.872849 352.961032 
L 366.109655 327.709935 
L 366.346461 469.269114 
L 367.293686 469.269114 
L 367.530492 484.232727 
L 368.004104 374.301185 
L 368.240911 402.698041 
L 368.477717 355.85173 
L 368.714523 469.269114 
L 368.951329 469.269114 
L 369.188135 312.916364 
L 369.424942 460.937103 
L 369.661748 484.232727 
L 369.898554 311.385994 
L 370.13536 311.385994 
L 370.372166 312.916364 
L 371.319391 312.916364 
L 371.556198 473.265079 
L 371.793004 460.086897 
L 372.266616 302.033736 
L 372.503422 302.033736 
L 372.740229 276.782639 
L 372.977035 276.782639 
L 373.213841 182.664915 
L 373.450647 207.916012 
L 373.687453 302.033736 
L 373.92426 276.782639 
L 374.161066 458.98163 
L 374.397872 458.98163 
L 374.634678 395.896399 
L 374.871484 390.710147 
L 375.108291 390.115003 
L 375.345097 339.78285 
L 375.581903 240.478874 
L 376.055515 240.478874 
L 376.292322 290.811026 
L 376.529128 379.147355 
L 376.765934 219.818886 
L 377.476353 484.232727 
L 377.949965 313.93661 
L 378.186771 460.937103 
L 378.660384 460.937103 
L 378.89719 314.106651 
L 379.370802 484.232727 
L 379.607609 421.147496 
L 379.844415 484.232727 
L 380.081221 421.147496 
L 380.318027 460.937103 
L 380.79164 460.937103 
L 381.028446 434.495718 
L 381.265252 434.495718 
L 381.738864 325.924504 
L 381.975671 363.078475 
L 382.212477 421.317537 
L 382.449283 318.357677 
L 382.686089 281.79885 
L 382.922896 484.232727 
L 383.159702 458.98163 
L 383.396508 390.710147 
L 383.633314 484.232727 
L 383.87012 331.535859 
L 384.106927 302.033736 
L 384.343733 469.269114 
L 384.580539 469.269114 
L 384.817345 484.232727 
L 385.054151 484.232727 
L 385.290958 434.495718 
L 385.527764 434.495718 
L 385.76457 384.163566 
L 386.001376 433.900575 
L 386.238182 433.900575 
L 386.474989 484.232727 
L 386.711795 458.98163 
L 386.948601 448.013982 
L 387.185407 473.265079 
L 387.422213 473.265079 
L 387.65902 469.269114 
L 388.132632 469.269114 
L 388.369438 432.540246 
L 388.606245 374.301185 
L 388.843051 484.232727 
L 389.079857 384.928751 
L 389.316663 484.232727 
L 389.790276 484.232727 
L 390.027082 433.900575 
L 390.263888 433.900575 
L 390.500694 344.033877 
L 390.974307 344.033877 
L 391.211113 394.366029 
L 391.447919 394.366029 
L 391.684725 484.232727 
L 391.921531 484.232727 
L 392.158338 471.054545 
L 392.63195 356.956997 
L 392.868756 408.649478 
L 393.105562 408.649478 
L 393.342369 433.900575 
L 393.579175 384.163566 
L 393.815981 384.163566 
L 394.052787 473.265079 
L 394.289594 415.026018 
L 394.5264 401.847836 
L 394.763206 362.908434 
L 395.000012 390.710147 
L 395.710431 390.710147 
L 395.947237 473.265079 
L 396.184043 473.265079 
L 396.420849 484.232727 
L 396.657656 390.710147 
L 396.894462 390.710147 
L 397.131268 417.916716 
L 397.368074 484.232727 
L 397.841687 484.232727 
L 398.078493 302.033736 
L 398.315299 238.948504 
L 398.552105 302.033736 
L 398.788911 302.033736 
L 399.025718 313.93661 
L 399.262524 355.85173 
L 399.49933 309.685584 
L 399.736136 484.232727 
L 399.972942 484.232727 
L 400.209749 460.937103 
L 400.446555 366.819378 
L 400.683361 390.115003 
L 400.920167 364.863906 
L 401.156974 458.98163 
L 401.39378 448.013982 
L 401.630586 311.385994 
L 401.867392 484.232727 
L 402.104198 384.928751 
L 402.341005 384.928751 
L 402.577811 484.232727 
L 402.814617 402.698041 
L 403.051423 232.571965 
L 403.288229 231.381677 
L 403.525036 231.381677 
L 403.761842 229.851308 
L 403.998648 313.93661 
L 404.945873 313.93661 
L 405.182679 484.232727 
L 405.419485 355.85173 
L 405.656291 355.85173 
L 405.893098 292.766499 
L 406.36671 292.766499 
L 406.603516 265.985032 
L 407.077129 265.985032 
L 407.313935 203.154862 
L 407.550741 331.535859 
L 408.024354 484.232727 
L 408.26116 331.535859 
L 408.734772 331.535859 
L 408.971578 484.232727 
L 409.208385 484.232727 
L 409.445191 460.937103 
L 409.681997 390.710147 
L 409.918803 469.269114 
L 410.629222 469.269114 
L 410.866028 484.232727 
L 411.102834 390.710147 
L 411.33964 390.710147 
L 411.576447 484.232727 
L 411.813253 313.93661 
L 412.050059 421.147496 
L 412.286865 421.147496 
L 412.523672 473.265079 
L 412.760478 390.710147 
L 412.997284 417.916716 
L 413.23409 484.232727 
L 413.470896 434.495718 
L 413.707703 421.317537 
L 413.944509 421.317537 
L 414.181315 342.673548 
L 414.654927 342.673548 
L 414.891734 484.232727 
L 415.12854 384.928751 
L 415.365346 384.928751 
L 415.602152 484.232727 
L 416.075765 313.93661 
L 416.312571 313.93661 
L 416.549377 469.269114 
L 417.022989 469.269114 
L 417.259796 433.900575 
L 417.496602 367.584563 
L 417.733408 390.710147 
L 417.970214 302.033736 
L 418.207021 302.033736 
L 418.680633 469.269114 
L 419.154245 331.535859 
L 419.391052 331.535859 
L 419.627858 281.203707 
L 419.864664 331.535859 
L 420.10147 309.685584 
L 420.338276 484.232727 
L 420.575083 312.916364 
L 420.811889 309.685584 
L 421.048695 309.685584 
L 421.285501 425.993666 
L 421.522307 273.296798 
L 421.759114 376.256657 
L 421.99592 425.993666 
L 422.232726 254.677302 
L 422.469532 417.916716 
L 422.706338 390.710147 
L 422.943145 390.710147 
L 423.179951 312.916364 
L 423.416757 311.385994 
L 423.653563 311.385994 
L 423.89037 183.004997 
L 424.127176 212.082018 
L 424.363982 384.928751 
L 424.600788 256.547754 
L 424.837594 256.547754 
L 425.074401 384.928751 
L 425.311207 290.811026 
L 425.548013 327.029771 
L 425.784819 295.742217 
L 426.021625 460.937103 
L 426.258432 379.402416 
L 426.495238 460.937103 
L 426.96885 460.937103 
L 427.205656 402.698041 
L 427.442463 308.580317 
L 427.679269 281.543789 
L 427.916075 282.138933 
L 428.152881 469.269114 
L 428.626494 469.269114 
L 428.8633 394.366029 
L 429.100106 394.366029 
L 429.336912 381.187848 
L 429.573719 484.232727 
L 429.810525 311.385994 
L 430.047331 389.859941 
L 430.520943 389.859941 
L 430.75775 484.232727 
L 430.994556 484.232727 
L 431.231362 311.385994 
L 431.468168 484.232727 
L 431.704974 484.232727 
L 431.941781 473.265079 
L 432.178587 473.265079 
L 432.415393 421.147496 
L 432.652199 484.232727 
L 433.125812 265.985032 
L 433.362618 484.232727 
L 433.599424 458.98163 
L 433.83623 392.665619 
L 434.073036 458.98163 
L 434.309843 409.244622 
L 435.020261 409.244622 
L 435.257068 327.709935 
L 435.493874 351.00556 
L 435.73068 400.742569 
L 435.967486 387.564387 
L 436.441099 484.232727 
L 436.677905 432.540246 
L 436.914711 417.916716 
L 437.151517 384.928751 
L 437.388323 384.928751 
L 437.62513 212.082018 
L 438.098742 484.232727 
L 438.572354 484.232727 
L 438.809161 312.916364 
L 439.045967 484.232727 
L 439.282773 309.685584 
L 439.756385 484.232727 
L 440.229998 484.232727 
L 440.466804 460.937103 
L 440.70361 311.385994 
L 440.940417 417.916716 
L 441.177223 417.916716 
L 441.414029 312.916364 
L 441.650835 484.232727 
L 441.887641 402.698041 
L 442.124448 220.49905 
L 442.361254 220.49905 
L 442.59806 302.033736 
L 443.071672 302.033736 
L 443.308479 417.916716 
L 443.545285 394.366029 
L 443.782091 394.366029 
L 444.018897 336.126968 
L 444.49251 336.126968 
L 444.729316 425.993666 
L 444.966122 362.908434 
L 445.202928 421.147496 
L 445.676541 421.147496 
L 445.913347 484.232727 
L 446.386959 460.086897 
L 446.623765 471.054545 
L 446.860572 469.269114 
L 447.097378 469.269114 
L 447.334184 433.900575 
L 447.57099 367.584563 
L 447.807797 417.916716 
L 448.281409 327.709935 
L 448.518215 484.232727 
L 449.702246 484.232727 
L 449.939052 384.928751 
L 450.175859 334.596598 
L 450.412665 370.815343 
L 450.649471 370.815343 
L 450.886277 339.612809 
L 451.123083 326.434628 
L 451.35989 238.948504 
L 451.596696 220.49905 
L 451.833502 484.232727 
L 452.307114 256.547754 
L 452.780727 484.232727 
L 453.254339 484.232727 
L 453.491146 425.993666 
L 453.727952 484.232727 
L 453.964758 355.85173 
L 454.201564 297.612669 
L 454.43837 460.937103 
L 454.675177 460.937103 
L 454.911983 402.698041 
L 455.148789 253.146933 
L 455.385595 239.968751 
L 455.622401 261.648985 
L 455.859208 390.710147 
L 456.096014 390.710147 
L 456.33282 460.937103 
L 456.569626 473.265079 
L 456.806432 415.026018 
L 457.043239 415.026018 
L 457.280045 473.265079 
L 457.516851 314.106651 
L 457.753657 314.106651 
L 457.990463 255.867589 
L 458.22727 417.916716 
L 458.464076 359.677654 
L 458.700882 243.794674 
L 458.937688 302.033736 
L 459.174495 469.269114 
L 459.411301 484.232727 
L 459.648107 471.054545 
L 459.884913 407.969314 
L 460.121719 421.147496 
L 460.358526 339.612809 
L 460.595332 389.859941 
L 460.832138 384.928751 
L 461.068944 212.082018 
L 461.30575 261.648985 
L 461.542557 434.495718 
L 462.016169 434.495718 
L 462.252975 390.710147 
L 462.489781 390.710147 
L 462.726588 378.042088 
L 462.963394 484.232727 
L 463.2002 460.937103 
L 463.437006 309.685584 
L 463.673812 421.147496 
L 463.910619 371.410487 
L 464.147425 371.410487 
L 464.384231 313.93661 
L 464.621037 313.93661 
L 464.857844 255.697548 
L 465.568262 484.232727 
L 466.041875 376.256657 
L 466.278681 363.078475 
L 466.515487 363.078475 
L 466.752293 230.616493 
L 466.989099 306.624845 
L 467.225906 319.803026 
L 467.462712 402.698041 
L 467.699518 402.698041 
L 467.936324 460.937103 
L 468.17313 402.698041 
L 468.409937 255.867589 
L 468.646743 255.867589 
L 468.883549 263.774499 
L 469.120355 305.519578 
L 469.357161 185.725654 
L 469.593968 484.232727 
L 469.830774 390.710147 
L 470.06758 390.710147 
L 470.304386 394.366029 
L 471.014805 394.366029 
L 471.251611 390.710147 
L 471.488417 394.366029 
L 471.725224 394.366029 
L 471.96203 336.126968 
L 472.198836 384.928751 
L 472.435642 290.811026 
L 472.672448 313.93661 
L 472.909255 484.232727 
L 473.382867 217.26827 
L 473.619673 311.385994 
L 473.856479 313.93661 
L 474.330092 313.93661 
L 474.566898 312.916364 
L 474.803704 344.884082 
L 475.04051 355.85173 
L 475.277317 355.85173 
L 475.514123 256.547754 
L 475.750929 292.766499 
L 476.224542 390.710147 
L 477.645379 390.710147 
L 477.882185 484.232727 
L 478.118991 432.540246 
L 478.355797 432.540246 
L 478.592604 469.269114 
L 479.539828 469.269114 
L 479.776635 458.98163 
L 480.013441 364.863906 
L 480.250247 315.126897 
L 480.487053 364.863906 
L 480.723859 265.55993 
L 480.960666 484.232727 
L 481.434278 484.232727 
L 481.671084 458.98163 
L 481.907891 400.742569 
L 482.144697 458.98163 
L 482.381503 484.232727 
L 482.618309 394.366029 
L 482.855115 212.082018 
L 483.091922 484.232727 
L 483.565534 296.507402 
L 483.80234 312.916364 
L 484.275953 460.937103 
L 484.512759 460.937103 
L 484.749565 484.232727 
L 485.223177 484.232727 
L 485.459984 434.495718 
L 485.69679 434.495718 
L 485.933596 376.256657 
L 486.407208 484.232727 
L 486.644015 484.232727 
L 486.880821 313.93661 
L 487.117627 313.93661 
L 487.354433 484.232727 
L 487.59124 484.232727 
L 488.064852 283.924364 
L 489.012077 283.924364 
L 489.248883 484.232727 
L 489.485689 484.232727 
L 489.722495 313.93661 
L 489.959302 313.93661 
L 490.196108 311.385994 
L 490.432914 261.648985 
L 490.66972 311.385994 
L 490.906526 394.366029 
L 491.143333 394.366029 
L 491.380139 484.232727 
L 491.853751 185.725654 
L 492.090557 185.725654 
L 492.327364 421.147496 
L 492.56417 421.147496 
L 492.800976 407.969314 
L 493.037782 419.362065 
L 493.274588 389.859941 
L 493.511395 309.685584 
L 493.985007 309.685584 
L 494.221813 355.85173 
L 494.45862 469.269114 
L 494.932232 469.269114 
L 495.169038 484.232727 
L 495.642651 184.535367 
L 495.879457 312.916364 
L 496.116263 312.916364 
L 496.353069 299.738182 
L 496.589875 309.685584 
L 497.063488 309.685584 
L 497.300294 389.859941 
L 497.773906 389.859941 
L 498.010713 355.85173 
L 498.247519 344.884082 
L 498.484325 292.766499 
L 498.721131 421.147496 
L 498.957937 339.612809 
L 499.194744 421.147496 
L 499.43155 327.029771 
L 499.668356 327.029771 
L 499.905162 268.450628 
L 500.141969 309.685584 
L 500.615581 309.685584 
L 500.852387 434.495718 
L 501.089193 389.859941 
L 501.326 376.68176 
L 501.562806 469.269114 
L 501.799612 469.269114 
L 502.036418 417.916716 
L 502.273224 484.232727 
L 502.510031 471.054545 
L 502.746837 469.269114 
L 502.983643 469.269114 
L 503.220449 312.916364 
L 503.457255 312.916364 
L 503.694062 254.677302 
L 503.930868 254.677302 
L 504.167674 312.916364 
L 504.40448 484.232727 
L 504.641286 390.710147 
L 504.878093 390.710147 
L 505.114899 417.916716 
L 505.351705 404.738534 
L 505.588511 302.033736 
L 505.825318 417.916716 
L 506.29893 218.798639 
L 506.535736 312.916364 
L 506.772542 287.665267 
L 507.246155 184.535367 
L 507.719767 184.535367 
L 507.956573 484.232727 
L 508.430186 218.798639 
L 508.666992 218.798639 
L 508.903798 384.928751 
L 509.140604 384.928751 
L 509.377411 326.689689 
L 509.851023 484.232727 
L 510.087829 434.495718 
L 510.324635 261.648985 
L 510.561442 309.685584 
L 511.27186 309.685584 
L 511.508667 471.054545 
L 511.982279 471.054545 
L 512.455891 203.154862 
L 512.692698 109.037138 
L 512.929504 109.037138 
L 513.16631 237.418135 
L 513.403116 237.418135 
L 513.639922 155.883449 
L 513.876729 484.232727 
L 514.113535 309.685584 
L 515.534372 309.685584 
L 515.771178 312.916364 
L 516.007984 312.916364 
L 516.244791 469.269114 
L 516.481597 417.916716 
L 516.955209 417.916716 
L 517.192016 484.232727 
L 517.428822 433.900575 
L 517.665628 420.722393 
L 517.902434 313.93661 
L 518.13924 313.93661 
L 518.376047 473.265079 
L 519.086465 473.265079 
L 519.560078 378.042088 
L 520.03369 469.269114 
L 520.270496 402.698041 
L 520.507302 296.507402 
L 520.744109 296.507402 
L 520.980915 303.394065 
L 521.217721 278.142968 
L 521.454527 484.232727 
L 521.691333 251.701584 
L 521.92814 220.49905 
L 522.164946 460.937103 
L 522.401752 384.928751 
L 522.875365 384.928751 
L 523.112171 473.265079 
L 523.348977 422.932927 
L 523.585783 420.722393 
L 523.822589 326.604669 
L 524.059396 326.604669 
L 524.296202 339.78285 
L 524.533008 240.478874 
L 524.769814 339.78285 
L 525.00662 339.78285 
L 525.243427 366.819378 
L 525.480233 460.937103 
L 525.717039 484.232727 
L 525.953845 394.366029 
L 526.190651 394.366029 
L 526.427458 484.232727 
L 526.664264 417.916716 
L 526.90107 394.366029 
L 527.137876 394.366029 
L 527.374682 460.937103 
L 527.611489 484.232727 
L 527.848295 402.698041 
L 528.085101 484.232727 
L 528.321907 458.98163 
L 528.558714 306.284762 
L 528.79552 359.677654 
L 529.032326 312.916364 
L 529.269132 312.916364 
L 529.505938 184.535367 
L 529.742745 355.85173 
L 530.216357 184.535367 
L 530.453163 309.685584 
L 530.689969 309.685584 
L 530.926776 484.232727 
L 531.163582 309.685584 
L 531.400388 484.232727 
L 531.637194 471.054545 
L 531.874 302.033736 
L 532.110807 251.701584 
L 532.347613 433.900575 
L 532.584419 327.709935 
L 532.821225 327.709935 
L 533.294838 434.495718 
L 533.531644 421.317537 
L 533.76845 421.317537 
L 534.005256 363.078475 
L 534.478869 471.054545 
L 534.715675 469.269114 
L 534.952481 484.232727 
L 535.189287 355.85173 
L 535.426094 389.859941 
L 536.373318 389.859941 
L 536.610125 378.042088 
L 536.846931 327.709935 
L 537.320543 327.709935 
L 537.557349 378.042088 
L 537.794156 389.859941 
L 538.030962 484.232727 
L 538.267768 313.93661 
L 538.504574 313.93661 
L 538.74138 219.818886 
L 538.978187 219.818886 
L 539.214993 390.115003 
L 539.451799 338.422522 
L 539.688605 338.422522 
L 539.925412 432.540246 
L 540.399024 369.114933 
L 540.63583 389.859941 
L 540.872636 484.232727 
L 541.109443 433.900575 
L 541.346249 433.900575 
L 541.583055 309.685584 
L 541.819861 309.685584 
L 542.056667 434.495718 
L 542.293474 434.495718 
L 542.53028 371.410487 
L 542.767086 389.859941 
L 543.003892 384.928751 
L 543.240698 290.811026 
L 543.477505 277.632845 
L 543.714311 290.811026 
L 543.951117 390.115003 
L 544.187923 364.863906 
L 544.424729 236.482909 
L 544.661536 236.482909 
L 545.135148 364.863906 
L 545.371954 212.167038 
L 545.60876 224.750076 
L 545.845567 224.750076 
L 546.082373 250.001173 
L 546.319179 331.535859 
L 546.555985 331.535859 
L 546.792792 158.689126 
L 547.50321 158.689126 
L 547.740016 484.232727 
L 548.213629 384.163566 
L 548.450435 371.410487 
L 548.687241 434.495718 
L 548.924047 389.859941 
L 549.160854 314.106651 
L 549.39766 484.232727 
L 549.634466 484.232727 
L 549.871272 390.710147 
L 550.108078 425.993666 
L 550.344885 243.794674 
L 550.581691 425.993666 
L 550.818497 415.026018 
L 551.055303 415.026018 
L 551.292109 402.698041 
L 551.528916 297.612669 
L 551.765722 331.62088 
L 552.239334 331.62088 
L 552.476141 484.232727 
L 552.949753 484.232727 
L 553.186559 421.147496 
L 553.423365 238.948504 
L 554.133784 238.948504 
L 554.37059 469.269114 
L 554.844203 469.269114 
L 555.081009 484.232727 
L 555.317815 484.232727 
L 555.554621 471.054545 
L 555.791427 471.054545 
L 556.028234 389.519859 
L 556.26504 389.519859 
L 556.501846 484.232727 
L 556.738652 484.232727 
L 556.975458 458.98163 
L 557.212265 390.710147 
L 557.685877 390.710147 
L 557.922683 312.916364 
L 558.15949 314.106651 
L 558.396296 302.033736 
L 558.633102 302.033736 
L 558.869908 484.232727 
L 559.106714 469.269114 
L 559.343521 471.054545 
L 559.580327 484.232727 
L 559.817133 484.232727 
L 560.053939 311.385994 
L 560.527552 311.385994 
L 560.764358 259.693513 
L 561.001164 378.042088 
L 561.948389 378.042088 
L 562.185195 249.661091 
L 562.422001 378.042088 
L 562.658807 249.661091 
L 562.895614 313.93661 
L 563.13242 313.93661 
L 563.369226 484.232727 
L 563.606032 484.232727 
L 563.842839 434.495718 
L 564.079645 335.191742 
L 564.316451 484.232727 
L 564.790063 359.677654 
L 565.263676 359.677654 
L 565.500482 278.142968 
L 565.737288 278.142968 
L 565.974094 254.677302 
L 566.447707 254.677302 
L 566.684513 312.916364 
L 566.921319 417.916716 
L 567.868544 417.916716 
L 568.10535 390.710147 
L 569.052575 390.710147 
L 569.289381 384.928751 
L 569.526188 484.232727 
L 569.9998 359.677654 
L 570.473412 473.265079 
L 570.710219 421.147496 
L 570.947025 292.766499 
L 571.183831 292.766499 
L 571.420637 279.588317 
L 571.657443 473.265079 
L 571.89425 473.265079 
L 572.131056 484.232727 
L 572.367862 309.685584 
L 572.604668 309.685584 
L 572.841474 331.535859 
L 573.551893 331.535859 
L 573.788699 389.859941 
L 574.499118 389.859941 
L 574.735924 484.232727 
L 574.97273 484.232727 
L 575.209537 417.916716 
L 575.446343 312.916364 
L 575.683149 287.665267 
L 575.919955 408.649478 
L 576.156761 251.701584 
L 576.630374 251.701584 
L 576.86718 302.033736 
L 577.103986 434.495718 
L 577.814405 434.495718 
L 578.051211 335.191742 
L 578.288017 434.495718 
L 578.76163 173.652739 
L 578.998436 173.652739 
L 579.235242 115.413677 
L 579.708854 115.413677 
L 580.182467 417.916716 
L 580.892886 417.916716 
L 581.129692 312.916364 
L 581.366498 312.916364 
L 581.603304 314.106651 
L 582.550529 314.106651 
L 582.787335 219.988927 
L 583.024141 219.988927 
L 583.260948 308.580317 
L 583.497754 135.733584 
L 583.73456 135.733584 
L 583.971366 88.887273 
L 584.208172 192.017173 
L 584.444979 235.802745 
L 584.681785 157.7539 
L 586.576235 157.7539 
L 586.813041 286.134897 
L 587.286653 286.134897 
L 587.523459 235.802745 
L 588.233878 235.802745 
L 588.470684 224.239953 
L 588.70749 237.418135 
L 589.654715 237.418135 
L 589.891521 390.115003 
L 590.128328 338.422522 
L 590.365134 338.422522 
L 590.60194 288.09037 
L 591.549165 288.09037 
L 591.785971 356.956997 
L 592.022777 356.956997 
L 592.259583 407.28915 
L 592.49639 432.540246 
L 592.733196 259.693513 
L 592.970002 261.648985 
L 593.206808 311.385994 
L 593.443615 311.385994 
L 593.680421 484.232727 
L 593.917227 473.265079 
L 594.390839 473.265079 
L 594.627646 448.013982 
L 594.864452 448.013982 
L 595.101258 422.932927 
L 595.338064 422.932927 
L 595.57487 382.208094 
L 595.811677 288.09037 
L 596.048483 323.798991 
L 596.522095 323.798991 
L 596.758901 310.620809 
L 597.232514 310.620809 
L 597.46932 342.673548 
L 597.706126 355.85173 
L 598.179739 355.85173 
L 598.416545 469.269114 
L 598.653351 390.710147 
L 598.890157 425.993666 
L 599.126964 331.62088 
L 600.310995 331.62088 
L 600.547801 297.612669 
L 600.784607 247.280516 
L 601.258219 390.710147 
L 602.205444 390.710147 
L 602.44225 313.93661 
L 604.573506 313.93661 
L 604.810313 302.033736 
L 605.994344 302.033736 
L 606.23115 484.232727 
L 606.704762 219.818886 
L 607.888793 219.818886 
L 608.125599 218.798639 
L 608.362406 237.418135 
L 609.072824 237.418135 
L 609.30963 187.085982 
L 610.493662 187.085982 
L 610.730468 237.418135 
L 611.20408 237.418135 
L 611.440886 331.535859 
L 612.151305 331.535859 
L 612.388111 318.357677 
L 613.09853 318.357677 
L 613.335336 298.207812 
L 613.808948 298.207812 
L 614.282561 171.612246 
L 614.519367 254.592282 
L 615.229786 254.592282 
L 615.466592 162.259988 
L 616.177011 162.259988 
L 616.413817 232.571965 
L 619.018685 232.571965 
L 619.255491 250.001173 
L 619.729104 250.001173 
L 619.96591 155.883449 
L 620.202716 155.883449 
L 620.439522 237.418135 
L 621.149941 237.418135 
L 621.386747 179.179073 
L 621.623553 237.418135 
L 621.86036 237.418135 
L 622.097166 218.798639 
L 623.044391 218.798639 
L 623.281197 312.916364 
L 623.991615 312.916364 
L 624.228422 254.677302 
L 624.702034 254.677302 
L 624.93884 273.296798 
L 625.412453 97.644387 
L 626.596484 97.644387 
L 626.83329 344.458979 
L 627.070096 254.677302 
L 627.306902 254.677302 
L 627.543709 253.146933 
L 628.017321 253.146933 
L 628.254127 314.106651 
L 628.964546 314.106651 
L 629.201352 309.685584 
L 629.911771 309.685584 
L 630.148577 313.93661 
L 630.385383 311.385994 
L 631.569414 311.385994 
L 631.80622 229.851308 
L 632.990251 229.851308 
L 633.227058 216.673126 
L 633.937476 216.673126 
L 634.174282 229.851308 
L 634.411089 229.851308 
L 634.647895 232.571965 
L 636.779151 232.571965 
L 637.015957 250.001173 
L 637.252763 155.883449 
L 641.278469 155.883449 
L 641.515275 97.644387 
L 644.356949 97.644387 
L 644.593755 155.883449 
L 650.513911 155.883449 
L 650.750717 97.644387 
L 670.168826 97.644387 
L 670.405632 144.915801 
L 673.247307 144.915801 
L 673.484113 115.413677 
L 871.690909 115.413677 
L 871.690909 115.413677 
" style="fill:none;stroke:#8dd3c7;stroke-linecap:square;stroke-width:1.5;"/>
   </g>
   <g id="line2d_14">
    <path clip-path="url(#p245f8d4c22)" d="M 161.509091 302.033736 
L 164.587572 302.033736 
L 164.824378 231.381677 
L 167.902859 231.381677 
L 168.139665 203.154862 
L 173.112595 203.154862 
L 173.349401 177.903765 
L 268.782303 177.903765 
L 269.019109 109.037138 
L 583.73456 109.037138 
L 583.971366 88.887273 
L 871.690909 88.887273 
L 871.690909 88.887273 
" style="fill:none;stroke:#feffb3;stroke-linecap:square;stroke-width:1.5;"/>
   </g>
   <g id="line2d_15">
    <path clip-path="url(#p245f8d4c22)" d="M 161.509091 302.033736 
L 163.166734 302.033736 
L 163.403541 310.597818 
L 165.061184 310.597818 
L 165.29799 318.759355 
L 166.955634 318.759355 
L 167.19244 326.537266 
L 168.850083 326.537266 
L 169.08689 333.949584 
L 170.744533 333.949584 
L 170.981339 341.013494 
L 172.638983 341.013494 
L 172.875789 347.745372 
L 174.533432 347.745372 
L 174.770239 354.160824 
L 176.427882 354.160824 
L 176.664688 360.274725 
L 178.322332 360.274725 
L 178.559138 366.101247 
L 180.216781 366.101247 
L 180.453588 371.6539 
L 182.111231 371.6539 
L 182.348037 376.945556 
L 184.005681 376.945556 
L 184.242487 381.988483 
L 185.90013 381.988483 
L 186.136937 386.794372 
L 187.79458 386.794372 
L 188.031386 391.374365 
L 189.68903 391.374365 
L 189.925836 395.73908 
L 191.583479 395.73908 
L 191.820286 399.898636 
L 193.477929 399.898636 
L 193.714735 403.862676 
L 195.372379 403.862676 
L 195.609185 407.64039 
L 197.266828 407.64039 
L 197.503635 411.240537 
L 199.161278 411.240537 
L 199.398084 414.671462 
L 201.055728 414.671462 
L 201.292534 417.94112 
L 202.950177 417.94112 
L 203.186984 421.057091 
L 204.844627 421.057091 
L 205.081433 424.026599 
L 206.739077 424.026599 
L 206.975883 426.856529 
L 208.633526 426.856529 
L 208.870333 429.55344 
L 210.527976 429.55344 
L 210.764782 432.123585 
L 212.422426 432.123585 
L 212.659232 434.572924 
L 214.316875 434.572924 
L 214.553682 436.907133 
L 216.211325 436.907133 
L 216.448131 439.131626 
L 218.105775 439.131626 
L 218.342581 441.251558 
L 220.000224 441.251558 
L 220.237031 443.271845 
L 221.894674 443.271845 
L 222.13148 445.197171 
L 223.789124 445.197171 
L 224.02593 447.031998 
L 225.683573 447.031998 
L 225.92038 448.780582 
L 227.578023 448.780582 
L 227.814829 450.446975 
L 229.472473 450.446975 
L 229.709279 452.03504 
L 231.366922 452.03504 
L 231.603729 453.548461 
L 233.261372 453.548461 
L 233.498178 454.990744 
L 235.155822 454.990744 
L 235.392628 456.365234 
L 237.050271 456.365234 
L 237.287078 457.675118 
L 238.944721 457.675118 
L 239.181527 458.923432 
L 240.839171 458.923432 
L 241.075977 460.11307 
L 242.73362 460.11307 
L 242.970427 461.246791 
L 244.62807 461.246791 
L 244.864876 462.327222 
L 246.52252 462.327222 
L 246.759326 463.356868 
L 248.416969 463.356868 
L 248.653776 464.338117 
L 250.311419 464.338117 
L 250.548225 465.273244 
L 252.205869 465.273244 
L 252.442675 466.164415 
L 254.100318 466.164415 
L 254.337124 467.013698 
L 255.994768 467.013698 
L 256.231574 467.823062 
L 257.889218 467.823062 
L 258.126024 468.594382 
L 259.783667 468.594382 
L 260.020473 469.329447 
L 261.678117 469.329447 
L 261.914923 470.029961 
L 263.572567 470.029961 
L 263.809373 470.697548 
L 265.467016 470.697548 
L 265.703822 471.333755 
L 267.361466 471.333755 
L 267.598272 471.940059 
L 269.255916 471.940059 
L 269.492722 472.517863 
L 271.150365 472.517863 
L 271.387171 473.068509 
L 273.044815 473.068509 
L 273.281621 473.593272 
L 274.939265 473.593272 
L 275.176071 474.093369 
L 276.833714 474.093369 
L 277.07052 474.569959 
L 278.728164 474.569959 
L 278.96497 475.024148 
L 280.622614 475.024148 
L 280.85942 475.456988 
L 282.517063 475.456988 
L 282.753869 475.869483 
L 284.411513 475.869483 
L 284.648319 476.262589 
L 286.305963 476.262589 
L 286.542769 476.637217 
L 288.200412 476.637217 
L 288.437218 476.994237 
L 290.094862 476.994237 
L 290.331668 477.334475 
L 291.989312 477.334475 
L 292.226118 477.65872 
L 293.883761 477.65872 
L 294.120567 477.967725 
L 295.778211 477.967725 
L 296.015017 478.262205 
L 297.672661 478.262205 
L 297.909467 478.542844 
L 299.56711 478.542844 
L 299.803916 478.810291 
L 301.46156 478.810291 
L 301.698366 479.065167 
L 303.35601 479.065167 
L 303.592816 479.308063 
L 305.250459 479.308063 
L 305.487265 479.539542 
L 307.144909 479.539542 
L 307.381715 479.760141 
L 309.039359 479.760141 
L 309.276165 479.97037 
L 310.933808 479.97037 
L 311.170614 480.170718 
L 312.828258 480.170718 
L 313.065064 480.361649 
L 314.722708 480.361649 
L 314.959514 480.543605 
L 316.617157 480.543605 
L 316.853963 480.717008 
L 318.511607 480.717008 
L 318.748413 480.882261 
L 320.406057 480.882261 
L 320.642863 481.039747 
L 322.300506 481.039747 
L 322.537312 481.18983 
L 324.194956 481.18983 
L 324.431762 481.332858 
L 326.089406 481.332858 
L 326.326212 481.469163 
L 327.983855 481.469163 
L 328.220661 481.599062 
L 329.878305 481.599062 
L 330.351917 481.722855 
L 331.772755 481.722855 
L 332.246367 481.840829 
L 333.667204 481.840829 
L 334.140817 481.953258 
L 337.456104 482.060402 
L 337.929716 482.16251 
L 341.245003 482.259818 
L 341.718615 482.352553 
L 345.033902 482.440929 
L 345.507515 482.52515 
L 348.822802 482.605413 
L 349.296414 482.681904 
L 352.611701 482.754799 
L 353.085313 482.824267 
L 356.4006 482.89047 
L 356.874213 482.953562 
L 360.1895 483.013688 
L 360.663112 483.070987 
L 365.872849 483.177634 
L 366.583267 483.227227 
L 371.556198 483.319531 
L 372.266616 483.362455 
L 377.239547 483.442345 
L 378.186771 483.479496 
L 384.817345 483.580796 
L 385.76457 483.611439 
L 394.289594 483.720271 
L 395.473625 483.744358 
L 405.656291 483.84884 
L 407.313935 483.866884 
L 420.811889 483.971552 
L 423.416757 483.995527 
L 449.228634 484.105875 
L 454.201564 484.122935 
L 871.690909 484.232725 
L 871.690909 484.232725 
" style="fill:none;stroke:#bfbbd9;stroke-linecap:square;stroke-width:1.5;"/>
   </g>
   <g id="patch_3">
    <path d="M 126 504 
L 126 69.12 
" style="fill:none;stroke:#ffffff;stroke-linecap:square;stroke-linejoin:miter;stroke-width:0.8;"/>
   </g>
   <g id="patch_4">
    <path d="M 907.2 504 
L 907.2 69.12 
" style="fill:none;stroke:#ffffff;stroke-linecap:square;stroke-linejoin:miter;stroke-width:0.8;"/>
   </g>
   <g id="patch_5">
    <path d="M 126 504 
L 907.2 504 
" style="fill:none;stroke:#ffffff;stroke-linecap:square;stroke-linejoin:miter;stroke-width:0.8;"/>
   </g>
   <g id="patch_6">
    <path d="M 126 69.12 
L 907.2 69.12 
" style="fill:none;stroke:#ffffff;stroke-linecap:square;stroke-linejoin:miter;stroke-width:0.8;"/>
   </g>
   <g id="text_14">
    <!-- instance 6 with error 0.0 -->
    <g style="fill:#ffffff;" transform="translate(442.944375 63.12)scale(0.12 -0.12)">
     <defs>
      <path d="M 2834 3397 
L 2834 2853 
Q 2591 2978 2328 3040 
Q 2066 3103 1784 3103 
Q 1356 3103 1142 2972 
Q 928 2841 928 2578 
Q 928 2378 1081 2264 
Q 1234 2150 1697 2047 
L 1894 2003 
Q 2506 1872 2764 1633 
Q 3022 1394 3022 966 
Q 3022 478 2636 193 
Q 2250 -91 1575 -91 
Q 1294 -91 989 -36 
Q 684 19 347 128 
L 347 722 
Q 666 556 975 473 
Q 1284 391 1588 391 
Q 1994 391 2212 530 
Q 2431 669 2431 922 
Q 2431 1156 2273 1281 
Q 2116 1406 1581 1522 
L 1381 1569 
Q 847 1681 609 1914 
Q 372 2147 372 2553 
Q 372 3047 722 3315 
Q 1072 3584 1716 3584 
Q 2034 3584 2315 3537 
Q 2597 3491 2834 3397 
z
" id="DejaVuSans-73" transform="scale(0.015625)"/>
      <path d="M 3122 3366 
L 3122 2828 
Q 2878 2963 2633 3030 
Q 2388 3097 2138 3097 
Q 1578 3097 1268 2742 
Q 959 2388 959 1747 
Q 959 1106 1268 751 
Q 1578 397 2138 397 
Q 2388 397 2633 464 
Q 2878 531 3122 666 
L 3122 134 
Q 2881 22 2623 -34 
Q 2366 -91 2075 -91 
Q 1284 -91 818 406 
Q 353 903 353 1747 
Q 353 2603 823 3093 
Q 1294 3584 2113 3584 
Q 2378 3584 2631 3529 
Q 2884 3475 3122 3366 
z
" id="DejaVuSans-63" transform="scale(0.015625)"/>
      <path id="DejaVuSans-20" transform="scale(0.015625)"/>
      <path d="M 2113 2584 
Q 1688 2584 1439 2293 
Q 1191 2003 1191 1497 
Q 1191 994 1439 701 
Q 1688 409 2113 409 
Q 2538 409 2786 701 
Q 3034 994 3034 1497 
Q 3034 2003 2786 2293 
Q 2538 2584 2113 2584 
z
M 3366 4563 
L 3366 3988 
Q 3128 4100 2886 4159 
Q 2644 4219 2406 4219 
Q 1781 4219 1451 3797 
Q 1122 3375 1075 2522 
Q 1259 2794 1537 2939 
Q 1816 3084 2150 3084 
Q 2853 3084 3261 2657 
Q 3669 2231 3669 1497 
Q 3669 778 3244 343 
Q 2819 -91 2113 -91 
Q 1303 -91 875 529 
Q 447 1150 447 2328 
Q 447 3434 972 4092 
Q 1497 4750 2381 4750 
Q 2619 4750 2861 4703 
Q 3103 4656 3366 4563 
z
" id="DejaVuSans-36" transform="scale(0.015625)"/>
      <path d="M 269 3500 
L 844 3500 
L 1563 769 
L 2278 3500 
L 2956 3500 
L 3675 769 
L 4391 3500 
L 4966 3500 
L 4050 0 
L 3372 0 
L 2619 2869 
L 1863 0 
L 1184 0 
L 269 3500 
z
" id="DejaVuSans-77" transform="scale(0.015625)"/>
      <path d="M 3513 2113 
L 3513 0 
L 2938 0 
L 2938 2094 
Q 2938 2591 2744 2837 
Q 2550 3084 2163 3084 
Q 1697 3084 1428 2787 
Q 1159 2491 1159 1978 
L 1159 0 
L 581 0 
L 581 4863 
L 1159 4863 
L 1159 2956 
Q 1366 3272 1645 3428 
Q 1925 3584 2291 3584 
Q 2894 3584 3203 3211 
Q 3513 2838 3513 2113 
z
" id="DejaVuSans-68" transform="scale(0.015625)"/>
      <path d="M 684 794 
L 1344 794 
L 1344 0 
L 684 0 
L 684 794 
z
" id="DejaVuSans-2e" transform="scale(0.015625)"/>
     </defs>
     <use xlink:href="#DejaVuSans-69"/>
     <use x="27.783203" xlink:href="#DejaVuSans-6e"/>
     <use x="91.162109" xlink:href="#DejaVuSans-73"/>
     <use x="143.261719" xlink:href="#DejaVuSans-74"/>
     <use x="182.470703" xlink:href="#DejaVuSans-61"/>
     <use x="243.75" xlink:href="#DejaVuSans-6e"/>
     <use x="307.128906" xlink:href="#DejaVuSans-63"/>
     <use x="362.109375" xlink:href="#DejaVuSans-65"/>
     <use x="423.632812" xlink:href="#DejaVuSans-20"/>
     <use x="455.419922" xlink:href="#DejaVuSans-36"/>
     <use x="519.042969" xlink:href="#DejaVuSans-20"/>
     <use x="550.830078" xlink:href="#DejaVuSans-77"/>
     <use x="632.617188" xlink:href="#DejaVuSans-69"/>
     <use x="660.400391" xlink:href="#DejaVuSans-74"/>
     <use x="699.609375" xlink:href="#DejaVuSans-68"/>
     <use x="762.988281" xlink:href="#DejaVuSans-20"/>
     <use x="794.775391" xlink:href="#DejaVuSans-65"/>
     <use x="856.298828" xlink:href="#DejaVuSans-72"/>
     <use x="895.662109" xlink:href="#DejaVuSans-72"/>
     <use x="934.525391" xlink:href="#DejaVuSans-6f"/>
     <use x="995.707031" xlink:href="#DejaVuSans-72"/>
     <use x="1036.820312" xlink:href="#DejaVuSans-20"/>
     <use x="1068.607422" xlink:href="#DejaVuSans-30"/>
     <use x="1132.230469" xlink:href="#DejaVuSans-2e"/>
     <use x="1164.017578" xlink:href="#DejaVuSans-30"/>
    </g>
   </g>
   <g id="legend_1">
    <g id="patch_7">
     <path d="M 805.348438 499 
L 900.2 499 
Q 902.2 499 902.2 497 
L 902.2 453.965625 
Q 902.2 451.965625 900.2 451.965625 
L 805.348438 451.965625 
Q 803.348438 451.965625 803.348438 453.965625 
L 803.348438 497 
Q 803.348438 499 805.348438 499 
z
" style="opacity:0.8;stroke:#cccccc;stroke-linejoin:miter;"/>
    </g>
    <g id="line2d_16">
     <path d="M 807.348438 460.064062 
L 827.348438 460.064062 
" style="fill:none;stroke:#8dd3c7;stroke-linecap:square;stroke-width:1.5;"/>
    </g>
    <g id="line2d_17"/>
    <g id="text_15">
     <!-- cost -->
     <g style="fill:#ffffff;" transform="translate(835.348438 463.564062)scale(0.1 -0.1)">
      <use xlink:href="#DejaVuSans-63"/>
      <use x="54.980469" xlink:href="#DejaVuSans-6f"/>
      <use x="116.162109" xlink:href="#DejaVuSans-73"/>
      <use x="168.261719" xlink:href="#DejaVuSans-74"/>
     </g>
    </g>
    <g id="line2d_18">
     <path d="M 807.348438 474.742188 
L 827.348438 474.742188 
" style="fill:none;stroke:#feffb3;stroke-linecap:square;stroke-width:1.5;"/>
    </g>
    <g id="line2d_19"/>
    <g id="text_16">
     <!-- best cost -->
     <g style="fill:#ffffff;" transform="translate(835.348438 478.242188)scale(0.1 -0.1)">
      <defs>
       <path d="M 3116 1747 
Q 3116 2381 2855 2742 
Q 2594 3103 2138 3103 
Q 1681 3103 1420 2742 
Q 1159 2381 1159 1747 
Q 1159 1113 1420 752 
Q 1681 391 2138 391 
Q 2594 391 2855 752 
Q 3116 1113 3116 1747 
z
M 1159 2969 
Q 1341 3281 1617 3432 
Q 1894 3584 2278 3584 
Q 2916 3584 3314 3078 
Q 3713 2572 3713 1747 
Q 3713 922 3314 415 
Q 2916 -91 2278 -91 
Q 1894 -91 1617 61 
Q 1341 213 1159 525 
L 1159 0 
L 581 0 
L 581 4863 
L 1159 4863 
L 1159 2969 
z
" id="DejaVuSans-62" transform="scale(0.015625)"/>
      </defs>
      <use xlink:href="#DejaVuSans-62"/>
      <use x="63.476562" xlink:href="#DejaVuSans-65"/>
      <use x="125" xlink:href="#DejaVuSans-73"/>
      <use x="177.099609" xlink:href="#DejaVuSans-74"/>
      <use x="216.308594" xlink:href="#DejaVuSans-20"/>
      <use x="248.095703" xlink:href="#DejaVuSans-63"/>
      <use x="303.076172" xlink:href="#DejaVuSans-6f"/>
      <use x="364.257812" xlink:href="#DejaVuSans-73"/>
      <use x="416.357422" xlink:href="#DejaVuSans-74"/>
     </g>
    </g>
    <g id="line2d_20">
     <path d="M 807.348438 489.420313 
L 827.348438 489.420313 
" style="fill:none;stroke:#bfbbd9;stroke-linecap:square;stroke-width:1.5;"/>
    </g>
    <g id="line2d_21"/>
    <g id="text_17">
     <!-- temperature -->
     <g style="fill:#ffffff;" transform="translate(835.348438 492.920313)scale(0.1 -0.1)">
      <defs>
       <path d="M 3328 2828 
Q 3544 3216 3844 3400 
Q 4144 3584 4550 3584 
Q 5097 3584 5394 3201 
Q 5691 2819 5691 2113 
L 5691 0 
L 5113 0 
L 5113 2094 
Q 5113 2597 4934 2840 
Q 4756 3084 4391 3084 
Q 3944 3084 3684 2787 
Q 3425 2491 3425 1978 
L 3425 0 
L 2847 0 
L 2847 2094 
Q 2847 2600 2669 2842 
Q 2491 3084 2119 3084 
Q 1678 3084 1418 2786 
Q 1159 2488 1159 1978 
L 1159 0 
L 581 0 
L 581 3500 
L 1159 3500 
L 1159 2956 
Q 1356 3278 1631 3431 
Q 1906 3584 2284 3584 
Q 2666 3584 2933 3390 
Q 3200 3197 3328 2828 
z
" id="DejaVuSans-6d" transform="scale(0.015625)"/>
       <path d="M 1159 525 
L 1159 -1331 
L 581 -1331 
L 581 3500 
L 1159 3500 
L 1159 2969 
Q 1341 3281 1617 3432 
Q 1894 3584 2278 3584 
Q 2916 3584 3314 3078 
Q 3713 2572 3713 1747 
Q 3713 922 3314 415 
Q 2916 -91 2278 -91 
Q 1894 -91 1617 61 
Q 1341 213 1159 525 
z
M 3116 1747 
Q 3116 2381 2855 2742 
Q 2594 3103 2138 3103 
Q 1681 3103 1420 2742 
Q 1159 2381 1159 1747 
Q 1159 1113 1420 752 
Q 1681 391 2138 391 
Q 2594 391 2855 752 
Q 3116 1113 3116 1747 
z
" id="DejaVuSans-70" transform="scale(0.015625)"/>
       <path d="M 544 1381 
L 544 3500 
L 1119 3500 
L 1119 1403 
Q 1119 906 1312 657 
Q 1506 409 1894 409 
Q 2359 409 2629 706 
Q 2900 1003 2900 1516 
L 2900 3500 
L 3475 3500 
L 3475 0 
L 2900 0 
L 2900 538 
Q 2691 219 2414 64 
Q 2138 -91 1772 -91 
Q 1169 -91 856 284 
Q 544 659 544 1381 
z
M 1991 3584 
L 1991 3584 
z
" id="DejaVuSans-75" transform="scale(0.015625)"/>
      </defs>
      <use xlink:href="#DejaVuSans-74"/>
      <use x="39.208984" xlink:href="#DejaVuSans-65"/>
      <use x="100.732422" xlink:href="#DejaVuSans-6d"/>
      <use x="198.144531" xlink:href="#DejaVuSans-70"/>
      <use x="261.621094" xlink:href="#DejaVuSans-65"/>
      <use x="323.144531" xlink:href="#DejaVuSans-72"/>
      <use x="364.257812" xlink:href="#DejaVuSans-61"/>
      <use x="425.537109" xlink:href="#DejaVuSans-74"/>
      <use x="464.746094" xlink:href="#DejaVuSans-75"/>
      <use x="528.125" xlink:href="#DejaVuSans-72"/>
      <use x="566.988281" xlink:href="#DejaVuSans-65"/>
     </g>
    </g>
   </g>
  </g>
 </g>
 <defs>
  <clipPath id="p245f8d4c22">
   <rect height="434.88" width="781.2" x="126" y="69.12"/>
  </clipPath>
 </defs>
</svg>
