<?xml version="1.0" encoding="utf-8" standalone="no"?>
<!DOCTYPE svg PUBLIC "-//W3C//DTD SVG 1.1//EN"
  "http://www.w3.org/Graphics/SVG/1.1/DTD/svg11.dtd">
<svg height="576pt" version="1.1" viewBox="0 0 1008 576" width="1008pt" xmlns="http://www.w3.org/2000/svg" xmlns:xlink="http://www.w3.org/1999/xlink">
 <metadata>
  <rdf:RDF xmlns:cc="http://creativecommons.org/ns#" xmlns:dc="http://purl.org/dc/elements/1.1/" xmlns:rdf="http://www.w3.org/1999/02/22-rdf-syntax-ns#">
   <cc:Work>
    <dc:type rdf:resource="http://purl.org/dc/dcmitype/StillImage"/>
    <dc:date>2022-01-13T19:10:47.094225</dc:date>
    <dc:format>image/svg+xml</dc:format>
    <dc:creator>
     <cc:Agent>
      <dc:title>Matplotlib v3.4.3, https://matplotlib.org/</dc:title>
     </cc:Agent>
    </dc:creator>
   </cc:Work>
  </rdf:RDF>
 </metadata>
 <defs>
  <style type="text/css">*{stroke-linecap:butt;stroke-linejoin:round;}</style>
 </defs>
 <g id="figure_1">
  <g id="patch_1">
   <path d="M 0 576 
L 1008 576 
L 1008 0 
L 0 0 
z
"/>
  </g>
  <g id="axes_1">
   <g id="patch_2">
    <path d="M 126 504 
L 907.2 504 
L 907.2 69.12 
L 126 69.12 
z
"/>
   </g>
   <g id="matplotlib.axis_1">
    <g id="xtick_1">
     <g id="line2d_1">
      <defs>
       <path d="M 0 0 
L 0 3.5 
" id="m94c93bb012" style="stroke:#ffffff;stroke-width:0.8;"/>
      </defs>
      <g>
       <use style="fill:#ffffff;stroke:#ffffff;stroke-width:0.8;" x="161.509091" xlink:href="#m94c93bb012" y="504"/>
      </g>
     </g>
     <g id="text_1">
      <!-- 0 -->
      <g style="fill:#ffffff;" transform="translate(158.327841 518.598438)scale(0.1 -0.1)">
       <defs>
        <path d="M 2034 4250 
Q 1547 4250 1301 3770 
Q 1056 3291 1056 2328 
Q 1056 1369 1301 889 
Q 1547 409 2034 409 
Q 2525 409 2770 889 
Q 3016 1369 3016 2328 
Q 3016 3291 2770 3770 
Q 2525 4250 2034 4250 
z
M 2034 4750 
Q 2819 4750 3233 4129 
Q 3647 3509 3647 2328 
Q 3647 1150 3233 529 
Q 2819 -91 2034 -91 
Q 1250 -91 836 529 
Q 422 1150 422 2328 
Q 422 3509 836 4129 
Q 1250 4750 2034 4750 
z
" id="DejaVuSans-30" transform="scale(0.015625)"/>
       </defs>
       <use xlink:href="#DejaVuSans-30"/>
      </g>
     </g>
    </g>
    <g id="xtick_2">
     <g id="line2d_2">
      <g>
       <use style="fill:#ffffff;stroke:#ffffff;stroke-width:0.8;" x="260.724209" xlink:href="#m94c93bb012" y="504"/>
      </g>
     </g>
     <g id="text_2">
      <!-- 500 -->
      <g style="fill:#ffffff;" transform="translate(251.180459 518.598438)scale(0.1 -0.1)">
       <defs>
        <path d="M 691 4666 
L 3169 4666 
L 3169 4134 
L 1269 4134 
L 1269 2991 
Q 1406 3038 1543 3061 
Q 1681 3084 1819 3084 
Q 2600 3084 3056 2656 
Q 3513 2228 3513 1497 
Q 3513 744 3044 326 
Q 2575 -91 1722 -91 
Q 1428 -91 1123 -41 
Q 819 9 494 109 
L 494 744 
Q 775 591 1075 516 
Q 1375 441 1709 441 
Q 2250 441 2565 725 
Q 2881 1009 2881 1497 
Q 2881 1984 2565 2268 
Q 2250 2553 1709 2553 
Q 1456 2553 1204 2497 
Q 953 2441 691 2322 
L 691 4666 
z
" id="DejaVuSans-35" transform="scale(0.015625)"/>
       </defs>
       <use xlink:href="#DejaVuSans-35"/>
       <use x="63.623047" xlink:href="#DejaVuSans-30"/>
       <use x="127.246094" xlink:href="#DejaVuSans-30"/>
      </g>
     </g>
    </g>
    <g id="xtick_3">
     <g id="line2d_3">
      <g>
       <use style="fill:#ffffff;stroke:#ffffff;stroke-width:0.8;" x="359.939328" xlink:href="#m94c93bb012" y="504"/>
      </g>
     </g>
     <g id="text_3">
      <!-- 1000 -->
      <g style="fill:#ffffff;" transform="translate(347.214328 518.598438)scale(0.1 -0.1)">
       <defs>
        <path d="M 794 531 
L 1825 531 
L 1825 4091 
L 703 3866 
L 703 4441 
L 1819 4666 
L 2450 4666 
L 2450 531 
L 3481 531 
L 3481 0 
L 794 0 
L 794 531 
z
" id="DejaVuSans-31" transform="scale(0.015625)"/>
       </defs>
       <use xlink:href="#DejaVuSans-31"/>
       <use x="63.623047" xlink:href="#DejaVuSans-30"/>
       <use x="127.246094" xlink:href="#DejaVuSans-30"/>
       <use x="190.869141" xlink:href="#DejaVuSans-30"/>
      </g>
     </g>
    </g>
    <g id="xtick_4">
     <g id="line2d_4">
      <g>
       <use style="fill:#ffffff;stroke:#ffffff;stroke-width:0.8;" x="459.154446" xlink:href="#m94c93bb012" y="504"/>
      </g>
     </g>
     <g id="text_4">
      <!-- 1500 -->
      <g style="fill:#ffffff;" transform="translate(446.429446 518.598438)scale(0.1 -0.1)">
       <use xlink:href="#DejaVuSans-31"/>
       <use x="63.623047" xlink:href="#DejaVuSans-35"/>
       <use x="127.246094" xlink:href="#DejaVuSans-30"/>
       <use x="190.869141" xlink:href="#DejaVuSans-30"/>
      </g>
     </g>
    </g>
    <g id="xtick_5">
     <g id="line2d_5">
      <g>
       <use style="fill:#ffffff;stroke:#ffffff;stroke-width:0.8;" x="558.369565" xlink:href="#m94c93bb012" y="504"/>
      </g>
     </g>
     <g id="text_5">
      <!-- 2000 -->
      <g style="fill:#ffffff;" transform="translate(545.644565 518.598438)scale(0.1 -0.1)">
       <defs>
        <path d="M 1228 531 
L 3431 531 
L 3431 0 
L 469 0 
L 469 531 
Q 828 903 1448 1529 
Q 2069 2156 2228 2338 
Q 2531 2678 2651 2914 
Q 2772 3150 2772 3378 
Q 2772 3750 2511 3984 
Q 2250 4219 1831 4219 
Q 1534 4219 1204 4116 
Q 875 4013 500 3803 
L 500 4441 
Q 881 4594 1212 4672 
Q 1544 4750 1819 4750 
Q 2544 4750 2975 4387 
Q 3406 4025 3406 3419 
Q 3406 3131 3298 2873 
Q 3191 2616 2906 2266 
Q 2828 2175 2409 1742 
Q 1991 1309 1228 531 
z
" id="DejaVuSans-32" transform="scale(0.015625)"/>
       </defs>
       <use xlink:href="#DejaVuSans-32"/>
       <use x="63.623047" xlink:href="#DejaVuSans-30"/>
       <use x="127.246094" xlink:href="#DejaVuSans-30"/>
       <use x="190.869141" xlink:href="#DejaVuSans-30"/>
      </g>
     </g>
    </g>
    <g id="xtick_6">
     <g id="line2d_6">
      <g>
       <use style="fill:#ffffff;stroke:#ffffff;stroke-width:0.8;" x="657.584683" xlink:href="#m94c93bb012" y="504"/>
      </g>
     </g>
     <g id="text_6">
      <!-- 2500 -->
      <g style="fill:#ffffff;" transform="translate(644.859683 518.598438)scale(0.1 -0.1)">
       <use xlink:href="#DejaVuSans-32"/>
       <use x="63.623047" xlink:href="#DejaVuSans-35"/>
       <use x="127.246094" xlink:href="#DejaVuSans-30"/>
       <use x="190.869141" xlink:href="#DejaVuSans-30"/>
      </g>
     </g>
    </g>
    <g id="xtick_7">
     <g id="line2d_7">
      <g>
       <use style="fill:#ffffff;stroke:#ffffff;stroke-width:0.8;" x="756.799802" xlink:href="#m94c93bb012" y="504"/>
      </g>
     </g>
     <g id="text_7">
      <!-- 3000 -->
      <g style="fill:#ffffff;" transform="translate(744.074802 518.598438)scale(0.1 -0.1)">
       <defs>
        <path d="M 2597 2516 
Q 3050 2419 3304 2112 
Q 3559 1806 3559 1356 
Q 3559 666 3084 287 
Q 2609 -91 1734 -91 
Q 1441 -91 1130 -33 
Q 819 25 488 141 
L 488 750 
Q 750 597 1062 519 
Q 1375 441 1716 441 
Q 2309 441 2620 675 
Q 2931 909 2931 1356 
Q 2931 1769 2642 2001 
Q 2353 2234 1838 2234 
L 1294 2234 
L 1294 2753 
L 1863 2753 
Q 2328 2753 2575 2939 
Q 2822 3125 2822 3475 
Q 2822 3834 2567 4026 
Q 2313 4219 1838 4219 
Q 1578 4219 1281 4162 
Q 984 4106 628 3988 
L 628 4550 
Q 988 4650 1302 4700 
Q 1616 4750 1894 4750 
Q 2613 4750 3031 4423 
Q 3450 4097 3450 3541 
Q 3450 3153 3228 2886 
Q 3006 2619 2597 2516 
z
" id="DejaVuSans-33" transform="scale(0.015625)"/>
       </defs>
       <use xlink:href="#DejaVuSans-33"/>
       <use x="63.623047" xlink:href="#DejaVuSans-30"/>
       <use x="127.246094" xlink:href="#DejaVuSans-30"/>
       <use x="190.869141" xlink:href="#DejaVuSans-30"/>
      </g>
     </g>
    </g>
    <g id="xtick_8">
     <g id="line2d_8">
      <g>
       <use style="fill:#ffffff;stroke:#ffffff;stroke-width:0.8;" x="856.01492" xlink:href="#m94c93bb012" y="504"/>
      </g>
     </g>
     <g id="text_8">
      <!-- 3500 -->
      <g style="fill:#ffffff;" transform="translate(843.28992 518.598438)scale(0.1 -0.1)">
       <use xlink:href="#DejaVuSans-33"/>
       <use x="63.623047" xlink:href="#DejaVuSans-35"/>
       <use x="127.246094" xlink:href="#DejaVuSans-30"/>
       <use x="190.869141" xlink:href="#DejaVuSans-30"/>
      </g>
     </g>
    </g>
    <g id="text_9">
     <!-- iteration -->
     <g style="fill:#ffffff;" transform="translate(495.477344 532.276562)scale(0.1 -0.1)">
      <defs>
       <path d="M 603 3500 
L 1178 3500 
L 1178 0 
L 603 0 
L 603 3500 
z
M 603 4863 
L 1178 4863 
L 1178 4134 
L 603 4134 
L 603 4863 
z
" id="DejaVuSans-69" transform="scale(0.015625)"/>
       <path d="M 1172 4494 
L 1172 3500 
L 2356 3500 
L 2356 3053 
L 1172 3053 
L 1172 1153 
Q 1172 725 1289 603 
Q 1406 481 1766 481 
L 2356 481 
L 2356 0 
L 1766 0 
Q 1100 0 847 248 
Q 594 497 594 1153 
L 594 3053 
L 172 3053 
L 172 3500 
L 594 3500 
L 594 4494 
L 1172 4494 
z
" id="DejaVuSans-74" transform="scale(0.015625)"/>
       <path d="M 3597 1894 
L 3597 1613 
L 953 1613 
Q 991 1019 1311 708 
Q 1631 397 2203 397 
Q 2534 397 2845 478 
Q 3156 559 3463 722 
L 3463 178 
Q 3153 47 2828 -22 
Q 2503 -91 2169 -91 
Q 1331 -91 842 396 
Q 353 884 353 1716 
Q 353 2575 817 3079 
Q 1281 3584 2069 3584 
Q 2775 3584 3186 3129 
Q 3597 2675 3597 1894 
z
M 3022 2063 
Q 3016 2534 2758 2815 
Q 2500 3097 2075 3097 
Q 1594 3097 1305 2825 
Q 1016 2553 972 2059 
L 3022 2063 
z
" id="DejaVuSans-65" transform="scale(0.015625)"/>
       <path d="M 2631 2963 
Q 2534 3019 2420 3045 
Q 2306 3072 2169 3072 
Q 1681 3072 1420 2755 
Q 1159 2438 1159 1844 
L 1159 0 
L 581 0 
L 581 3500 
L 1159 3500 
L 1159 2956 
Q 1341 3275 1631 3429 
Q 1922 3584 2338 3584 
Q 2397 3584 2469 3576 
Q 2541 3569 2628 3553 
L 2631 2963 
z
" id="DejaVuSans-72" transform="scale(0.015625)"/>
       <path d="M 2194 1759 
Q 1497 1759 1228 1600 
Q 959 1441 959 1056 
Q 959 750 1161 570 
Q 1363 391 1709 391 
Q 2188 391 2477 730 
Q 2766 1069 2766 1631 
L 2766 1759 
L 2194 1759 
z
M 3341 1997 
L 3341 0 
L 2766 0 
L 2766 531 
Q 2569 213 2275 61 
Q 1981 -91 1556 -91 
Q 1019 -91 701 211 
Q 384 513 384 1019 
Q 384 1609 779 1909 
Q 1175 2209 1959 2209 
L 2766 2209 
L 2766 2266 
Q 2766 2663 2505 2880 
Q 2244 3097 1772 3097 
Q 1472 3097 1187 3025 
Q 903 2953 641 2809 
L 641 3341 
Q 956 3463 1253 3523 
Q 1550 3584 1831 3584 
Q 2591 3584 2966 3190 
Q 3341 2797 3341 1997 
z
" id="DejaVuSans-61" transform="scale(0.015625)"/>
       <path d="M 1959 3097 
Q 1497 3097 1228 2736 
Q 959 2375 959 1747 
Q 959 1119 1226 758 
Q 1494 397 1959 397 
Q 2419 397 2687 759 
Q 2956 1122 2956 1747 
Q 2956 2369 2687 2733 
Q 2419 3097 1959 3097 
z
M 1959 3584 
Q 2709 3584 3137 3096 
Q 3566 2609 3566 1747 
Q 3566 888 3137 398 
Q 2709 -91 1959 -91 
Q 1206 -91 779 398 
Q 353 888 353 1747 
Q 353 2609 779 3096 
Q 1206 3584 1959 3584 
z
" id="DejaVuSans-6f" transform="scale(0.015625)"/>
       <path d="M 3513 2113 
L 3513 0 
L 2938 0 
L 2938 2094 
Q 2938 2591 2744 2837 
Q 2550 3084 2163 3084 
Q 1697 3084 1428 2787 
Q 1159 2491 1159 1978 
L 1159 0 
L 581 0 
L 581 3500 
L 1159 3500 
L 1159 2956 
Q 1366 3272 1645 3428 
Q 1925 3584 2291 3584 
Q 2894 3584 3203 3211 
Q 3513 2838 3513 2113 
z
" id="DejaVuSans-6e" transform="scale(0.015625)"/>
      </defs>
      <use xlink:href="#DejaVuSans-69"/>
      <use x="27.783203" xlink:href="#DejaVuSans-74"/>
      <use x="66.992188" xlink:href="#DejaVuSans-65"/>
      <use x="128.515625" xlink:href="#DejaVuSans-72"/>
      <use x="169.628906" xlink:href="#DejaVuSans-61"/>
      <use x="230.908203" xlink:href="#DejaVuSans-74"/>
      <use x="270.117188" xlink:href="#DejaVuSans-69"/>
      <use x="297.900391" xlink:href="#DejaVuSans-6f"/>
      <use x="359.082031" xlink:href="#DejaVuSans-6e"/>
     </g>
    </g>
   </g>
   <g id="matplotlib.axis_2">
    <g id="ytick_1">
     <g id="line2d_9">
      <defs>
       <path d="M 0 0 
L -3.5 0 
" id="m991767b7bc" style="stroke:#ffffff;stroke-width:0.8;"/>
      </defs>
      <g>
       <use style="fill:#ffffff;stroke:#ffffff;stroke-width:0.8;" x="126" xlink:href="#m991767b7bc" y="484.232727"/>
      </g>
     </g>
     <g id="text_10">
      <!-- 0 -->
      <g style="fill:#ffffff;" transform="translate(112.6375 488.031946)scale(0.1 -0.1)">
       <use xlink:href="#DejaVuSans-30"/>
      </g>
     </g>
    </g>
    <g id="ytick_2">
     <g id="line2d_10">
      <g>
       <use style="fill:#ffffff;stroke:#ffffff;stroke-width:0.8;" x="126" xlink:href="#m991767b7bc" y="400.900352"/>
      </g>
     </g>
     <g id="text_11">
      <!-- 10000 -->
      <g style="fill:#ffffff;" transform="translate(87.1875 404.699571)scale(0.1 -0.1)">
       <use xlink:href="#DejaVuSans-31"/>
       <use x="63.623047" xlink:href="#DejaVuSans-30"/>
       <use x="127.246094" xlink:href="#DejaVuSans-30"/>
       <use x="190.869141" xlink:href="#DejaVuSans-30"/>
       <use x="254.492188" xlink:href="#DejaVuSans-30"/>
      </g>
     </g>
    </g>
    <g id="ytick_3">
     <g id="line2d_11">
      <g>
       <use style="fill:#ffffff;stroke:#ffffff;stroke-width:0.8;" x="126" xlink:href="#m991767b7bc" y="317.567977"/>
      </g>
     </g>
     <g id="text_12">
      <!-- 20000 -->
      <g style="fill:#ffffff;" transform="translate(87.1875 321.367196)scale(0.1 -0.1)">
       <use xlink:href="#DejaVuSans-32"/>
       <use x="63.623047" xlink:href="#DejaVuSans-30"/>
       <use x="127.246094" xlink:href="#DejaVuSans-30"/>
       <use x="190.869141" xlink:href="#DejaVuSans-30"/>
       <use x="254.492188" xlink:href="#DejaVuSans-30"/>
      </g>
     </g>
    </g>
    <g id="ytick_4">
     <g id="line2d_12">
      <g>
       <use style="fill:#ffffff;stroke:#ffffff;stroke-width:0.8;" x="126" xlink:href="#m991767b7bc" y="234.235602"/>
      </g>
     </g>
     <g id="text_13">
      <!-- 30000 -->
      <g style="fill:#ffffff;" transform="translate(87.1875 238.03482)scale(0.1 -0.1)">
       <use xlink:href="#DejaVuSans-33"/>
       <use x="63.623047" xlink:href="#DejaVuSans-30"/>
       <use x="127.246094" xlink:href="#DejaVuSans-30"/>
       <use x="190.869141" xlink:href="#DejaVuSans-30"/>
       <use x="254.492188" xlink:href="#DejaVuSans-30"/>
      </g>
     </g>
    </g>
    <g id="ytick_5">
     <g id="line2d_13">
      <g>
       <use style="fill:#ffffff;stroke:#ffffff;stroke-width:0.8;" x="126" xlink:href="#m991767b7bc" y="150.903226"/>
      </g>
     </g>
     <g id="text_14">
      <!-- 40000 -->
      <g style="fill:#ffffff;" transform="translate(87.1875 154.702445)scale(0.1 -0.1)">
       <defs>
        <path d="M 2419 4116 
L 825 1625 
L 2419 1625 
L 2419 4116 
z
M 2253 4666 
L 3047 4666 
L 3047 1625 
L 3713 1625 
L 3713 1100 
L 3047 1100 
L 3047 0 
L 2419 0 
L 2419 1100 
L 313 1100 
L 313 1709 
L 2253 4666 
z
" id="DejaVuSans-34" transform="scale(0.015625)"/>
       </defs>
       <use xlink:href="#DejaVuSans-34"/>
       <use x="63.623047" xlink:href="#DejaVuSans-30"/>
       <use x="127.246094" xlink:href="#DejaVuSans-30"/>
       <use x="190.869141" xlink:href="#DejaVuSans-30"/>
       <use x="254.492188" xlink:href="#DejaVuSans-30"/>
      </g>
     </g>
    </g>
   </g>
   <g id="line2d_14">
    <path clip-path="url(#p8a107831c0)" d="M 161.509091 214.352497 
L 161.707521 231.252303 
L 161.905951 211.694194 
L 162.699672 282.151717 
L 162.898103 274.501805 
L 163.096533 290.268291 
L 163.294963 270.168522 
L 163.493393 287.793319 
L 163.890254 223.427393 
L 164.088684 223.819055 
L 164.287114 211.335865 
L 164.485544 209.385887 
L 164.683975 220.860755 
L 164.882405 206.419255 
L 165.279265 241.95218 
L 165.477696 228.360669 
L 165.676126 248.510438 
L 165.874556 234.92726 
L 166.072986 247.41045 
L 166.271417 268.060213 
L 166.668277 240.835526 
L 166.866707 220.185763 
L 167.065138 237.085569 
L 167.263568 244.252153 
L 167.461998 229.368991 
L 167.660428 301.95149 
L 167.858858 307.12643 
L 168.057289 321.201268 
L 168.454149 281.818388 
L 168.652579 276.643447 
L 169.04944 312.276371 
L 169.24787 295.376565 
L 169.4463 302.54315 
L 169.644731 295.376565 
L 169.843161 281.060063 
L 170.041591 279.110086 
L 170.240021 264.226923 
L 170.438452 266.176901 
L 170.636882 277.651769 
L 171.033742 238.818882 
L 171.232173 245.535472 
L 171.430603 235.927249 
L 171.629033 256.577011 
L 171.827463 263.993593 
L 172.422754 314.351347 
L 172.621184 300.276509 
L 172.819614 308.018087 
L 173.018045 293.576586 
L 173.613335 344.109338 
L 173.811766 329.792836 
L 174.208626 352.325911 
L 174.407056 335.426105 
L 174.605487 349.742607 
L 175.200777 297.084879 
L 175.399207 297.493208 
L 175.597638 292.176602 
L 175.796068 277.435105 
L 175.994498 292.318267 
L 176.788219 230.110649 
L 176.986649 237.277233 
L 177.58194 277.510104 
L 177.78037 262.626942 
L 177.978801 267.801882 
L 178.177231 283.08504 
L 178.375661 262.985271 
L 178.574091 255.243693 
L 178.772522 254.835365 
L 178.970952 247.668781 
L 179.169382 234.018937 
L 179.367812 252.752055 
L 179.566242 247.168786 
L 179.764673 227.610678 
L 179.963103 236.527242 
L 180.161533 223.252395 
L 180.359963 223.644057 
L 180.558394 238.085557 
L 180.756824 224.010719 
L 181.153684 234.910594 
L 181.352115 229.593988 
L 181.947405 187.786136 
L 182.145836 193.102741 
L 182.344266 213.25251 
L 182.542696 219.969099 
L 182.741126 220.377428 
L 182.939557 219.969099 
L 183.336417 234.877261 
L 183.534847 249.318762 
L 183.733277 239.710539 
L 183.931708 259.810308 
L 184.130138 241.07719 
L 184.328568 233.910605 
L 184.526998 233.518943 
L 184.725429 233.910605 
L 184.923859 248.793768 
L 185.122289 239.877203 
L 185.320719 259.435312 
L 185.51915 251.693734 
L 185.71758 238.102224 
L 185.91601 238.510552 
L 186.11444 224.069052 
L 186.511301 254.327037 
L 186.908161 275.085132 
L 187.106591 284.001696 
L 187.305022 278.685091 
L 187.503452 263.801928 
L 187.701882 263.410266 
L 187.900312 257.826997 
L 188.098743 274.726803 
L 188.297173 275.118465 
L 188.495603 255.560356 
L 188.694033 247.910444 
L 188.892464 247.518782 
L 189.090894 232.235625 
L 189.487754 260.251969 
L 189.686185 239.602207 
L 190.083045 276.018455 
L 190.281475 261.276957 
L 190.479906 281.92672 
L 190.678336 282.318382 
L 190.876766 267.876882 
L 191.075196 282.618379 
L 191.273626 261.968616 
L 191.670487 296.268222 
L 192.265778 339.226061 
L 192.464208 318.576299 
L 192.662638 324.159568 
L 192.861068 314.551345 
L 193.059499 334.701113 
L 193.257929 314.601344 
L 193.654789 331.859479 
L 193.85322 311.709711 
L 194.05165 332.359473 
L 194.25008 340.101051 
L 194.44851 326.509541 
L 194.64694 341.392703 
L 194.845371 326.951202 
L 195.043801 326.55954 
L 195.242231 212.502518 
L 195.440661 218.085787 
L 195.639092 212.502518 
L 196.035952 229.760653 
L 196.234382 215.319152 
L 196.432813 235.468921 
L 196.631243 215.319152 
L 196.829673 235.968915 
L 197.028103 236.377244 
L 197.226534 223.894054 
L 197.821824 253.527046 
L 198.020255 267.110224 
L 198.218685 246.960455 
L 198.417115 252.543724 
L 198.615545 243.62716 
L 199.012406 270.868514 
L 199.210836 259.393646 
L 199.409266 273.468484 
L 199.607696 265.726906 
L 199.806127 272.893491 
L 200.004557 265.243578 
L 200.401417 244.018822 
L 200.798278 279.451748 
L 200.996708 272.285164 
L 201.393569 291.50161 
L 201.591999 283.851698 
L 201.988859 248.418772 
L 202.187289 240.677194 
L 202.38572 247.393784 
L 202.98101 293.168257 
L 203.179441 313.318026 
L 203.377871 312.909697 
L 203.576301 320.076281 
L 203.774731 320.48461 
L 203.973162 320.092948 
L 204.171592 299.94318 
L 204.370022 292.776595 
L 204.568452 278.701757 
L 204.965313 307.901421 
L 205.560604 268.535207 
L 205.957464 304.451461 
L 206.354324 271.026845 
L 206.552755 278.676757 
L 206.751185 298.826526 
L 206.949615 292.109936 
L 207.148045 306.551437 
L 207.544906 278.018432 
L 207.743336 294.918237 
L 207.941766 279.151752 
L 208.140197 299.801514 
L 208.338627 300.193177 
L 208.735487 289.293302 
L 208.933918 279.685079 
L 209.132348 288.601643 
L 209.330778 303.484805 
L 209.529208 303.076477 
L 210.124499 260.726964 
L 210.322929 262.676941 
L 210.521359 276.268452 
L 211.11665 226.460691 
L 211.31508 231.635632 
L 211.513511 299.684849 
L 211.910371 271.435174 
L 212.108801 266.118568 
L 212.307232 251.802066 
L 212.505662 246.218797 
L 212.704092 232.94395 
L 212.902522 240.593862 
L 213.100953 219.944099 
L 213.299383 227.685677 
L 213.497813 213.244176 
L 213.894673 218.777446 
L 214.489964 269.010202 
L 214.886825 247.527115 
L 215.085255 249.477093 
L 215.283685 233.710608 
L 215.482115 241.452185 
L 215.680546 255.893686 
L 215.878976 238.99388 
L 216.077406 253.310382 
L 216.275836 239.235544 
L 216.474267 255.00203 
L 216.871127 224.977375 
L 217.069557 224.569046 
L 217.267988 229.885652 
L 217.664848 264.868583 
L 218.061708 231.493966 
L 218.458569 258.843652 
L 219.05386 208.044236 
L 219.45072 236.377244 
L 219.847581 207.710907 
L 220.046011 207.710907 
L 220.442871 192.786078 
L 220.641302 186.069489 
L 220.839732 208.585897 
L 221.038162 213.760837 
L 221.236592 228.643999 
L 221.435022 213.760837 
L 221.633453 229.043995 
L 221.831883 211.419197 
L 222.030313 218.585782 
L 222.228743 213.410841 
L 222.427174 233.51061 
L 222.625604 213.410841 
L 222.824034 206.244257 
L 223.022464 213.985834 
L 223.419325 183.727849 
L 223.816185 206.960915 
L 224.014616 192.886077 
L 224.213046 338.434404 
L 224.411476 331.717814 
L 224.609906 338.434404 
L 224.808337 319.701286 
L 225.403627 361.817468 
L 225.602057 350.3426 
L 225.800488 349.934271 
L 226.395778 299.993179 
L 226.792639 325.909548 
L 226.991069 326.30121 
L 227.38793 289.251636 
L 227.58636 303.693136 
L 227.78479 290.109959 
L 227.98322 303.70147 
L 228.181651 291.21828 
L 228.380081 240.102201 
L 228.776941 213.969168 
L 228.975371 221.135752 
L 229.173802 221.135752 
L 229.372232 207.860905 
L 229.769092 235.102258 
L 229.967523 240.685527 
L 230.165953 261.33529 
L 230.364383 240.685527 
L 230.562813 246.002133 
L 230.959674 211.777526 
L 231.158104 216.952467 
L 231.753395 277.310106 
L 231.951825 254.010374 
L 232.348686 283.426703 
L 232.547116 288.743308 
L 232.745546 304.026466 
L 233.142406 280.610068 
L 233.340837 288.351646 
L 233.737697 256.227015 
L 233.936127 261.810285 
L 234.134558 278.71009 
L 234.332988 261.085293 
L 234.531418 255.502024 
L 235.126709 222.46907 
L 235.325139 236.910571 
L 235.523569 222.594069 
L 235.722 231.510633 
L 235.92043 252.160396 
L 236.31729 223.227395 
L 236.51572 222.835733 
L 236.912581 249.593758 
L 237.309441 228.194004 
L 237.507872 230.143982 
L 237.706302 235.318923 
L 237.904732 254.05204 
L 238.103162 259.63531 
L 238.301593 268.551874 
L 238.500023 286.176671 
L 238.698453 280.593402 
L 238.896883 294.243245 
L 239.492174 237.960559 
L 239.690604 258.110327 
L 239.889035 243.227165 
L 240.087465 256.502012 
L 240.285895 241.218855 
L 240.484325 260.776963 
L 240.682755 246.335463 
L 240.881186 246.743791 
L 241.278046 281.726722 
L 241.476476 275.010133 
L 241.674907 290.29329 
L 242.270197 240.568862 
L 242.468628 290.751619 
L 242.865488 268.660206 
L 243.063918 288.218314 
L 243.460779 277.31844 
L 243.857639 306.201441 
L 244.056069 286.643332 
L 244.45293 311.393048 
L 244.65136 316.709653 
L 244.84979 304.226464 
L 245.048221 298.909858 
L 245.246651 284.026696 
L 245.445081 289.343301 
L 245.643511 284.026696 
L 245.841942 283.635034 
L 246.040372 288.951639 
L 246.238802 277.476771 
L 246.437232 282.651712 
L 246.635663 277.335106 
L 246.834093 257.235337 
L 247.032523 266.84356 
L 247.230953 282.126718 
L 247.627814 248.652103 
L 248.223104 289.951628 
L 248.619965 267.068557 
L 248.818395 284.693355 
L 249.016825 290.276624 
L 249.413686 263.351934 
L 249.612116 272.268498 
L 249.810546 263.351934 
L 250.008977 246.452128 
L 250.207407 240.118867 
L 250.604267 279.826744 
L 250.802698 264.543587 
L 251.199558 290.459955 
L 251.397988 295.776561 
L 251.794849 296.576552 
L 252.191709 320.776273 
L 252.787 267.826882 
L 252.98543 254.235372 
L 253.18386 271.135177 
L 253.382291 256.39368 
L 253.977581 295.459898 
L 254.176012 295.034903 
L 254.374442 274.885134 
L 254.572872 280.468403 
L 254.969733 253.293716 
L 255.168163 247.97711 
L 255.366593 228.269004 
L 255.565023 226.319026 
L 255.961884 252.135396 
L 256.160314 239.652206 
L 256.557174 276.926777 
L 256.755605 296.484886 
L 256.954035 289.768296 
L 257.152465 278.293428 
L 257.549326 312.793032 
L 257.747756 232.177292 
L 258.144616 208.094236 
L 258.343047 228.743998 
L 258.541477 230.693976 
L 258.739907 245.577138 
L 259.136768 244.777147 
L 259.335198 229.893985 
L 259.533628 224.310716 
L 259.732058 210.235878 
L 260.128919 219.827434 
L 260.327349 205.085937 
L 260.724209 234.285601 
L 260.92264 225.369037 
L 261.12107 230.685642 
L 261.3195 225.510702 
L 261.914791 259.601977 
L 262.113221 251.952065 
L 262.311651 266.393565 
L 262.510082 251.110408 
L 262.708512 256.693677 
L 262.906942 242.252176 
L 263.105372 247.427117 
L 263.303802 245.477139 
L 263.502233 240.302199 
L 263.700663 241.402186 
L 263.899093 261.501955 
L 264.097523 269.693527 
L 264.295954 269.285199 
L 264.692814 283.501702 
L 264.891244 263.351934 
L 265.089675 277.426772 
L 265.288105 259.801974 
L 265.486535 280.451737 
L 265.684965 271.310175 
L 265.883396 273.260153 
L 266.081826 290.159959 
L 266.280256 241.160522 
L 266.478686 256.927007 
L 266.677117 256.535345 
L 266.875547 263.251935 
L 267.073977 265.201912 
L 267.470837 232.568954 
L 268.066128 268.960202 
L 268.264558 261.218625 
L 268.462989 261.610287 
L 268.661419 282.260049 
L 268.859849 268.676872 
L 269.058279 288.776641 
L 269.65357 235.502254 
L 269.852 235.093925 
L 270.248861 220.310762 
L 270.447291 240.960524 
L 270.844151 256.352014 
L 271.042582 271.235176 
L 271.241012 269.285199 
L 271.439442 269.693527 
L 271.637872 252.06873 
L 271.836303 244.418818 
L 272.034733 254.027041 
L 272.233163 234.468932 
L 272.431593 239.643873 
L 273.026884 198.68601 
L 273.225314 217.419128 
L 273.423745 202.135971 
L 273.622175 216.210809 
L 273.820605 218.160786 
L 274.019035 232.602287 
L 274.217466 222.994064 
L 274.614326 255.577023 
L 274.812756 239.810538 
L 275.209617 272.951823 
L 275.408047 278.268429 
L 275.606477 270.526851 
L 276.003338 236.11058 
L 276.201768 234.160602 
L 276.598628 257.668666 
L 276.797059 271.318509 
L 276.995489 273.268486 
L 277.193919 293.418255 
L 277.392349 280.935065 
L 277.59078 292.409933 
L 277.78921 272.260164 
L 278.18607 292.701596 
L 278.3845 298.284865 
L 278.582931 315.909663 
L 278.781361 295.2599 
L 279.178221 317.351313 
L 279.376652 316.942984 
L 279.575082 311.359715 
L 279.773512 295.59323 
L 279.971942 296.001558 
L 280.170373 288.834974 
L 280.368803 296.484886 
L 280.567233 278.860089 
L 280.765663 278.45176 
L 280.964094 284.035029 
L 281.162524 276.385117 
L 281.360954 261.64362 
L 281.757815 296.168223 
L 281.956245 275.51846 
L 282.154675 282.685045 
L 282.353105 302.834813 
L 282.551535 297.251544 
L 282.749966 277.101775 
L 283.146826 312.084707 
L 283.742117 288.018317 
L 283.940547 286.068339 
L 284.138977 306.718102 
L 284.337408 313.434691 
L 284.535838 296.534885 
L 284.734268 234.785595 
L 284.932698 254.935364 
L 285.131129 234.785595 
L 285.329559 248.860433 
L 286.12328 187.377807 
L 286.32171 194.094396 
L 286.52014 192.536081 
L 286.71857 209.435887 
L 286.917001 209.044225 
L 287.115431 193.761067 
L 287.710722 229.085661 
L 287.909152 234.260601 
L 288.306012 260.818629 
L 288.702873 295.118235 
L 288.901303 274.468472 
L 289.099733 266.81856 
L 289.496594 295.143235 
L 289.695024 281.493392 
L 289.893454 275.910122 
L 290.488745 232.993949 
L 290.687175 234.943927 
L 291.084036 222.602402 
L 291.282466 237.88556 
L 291.679326 211.085868 
L 292.076187 245.085477 
L 292.274617 231.5023 
L 292.671478 259.410312 
L 292.869908 239.852204 
L 293.068338 259.410312 
L 293.266768 251.668735 
L 293.862059 287.40999 
L 294.060489 280.693401 
L 294.258919 286.010006 
L 294.65578 305.226452 
L 294.85421 284.57669 
L 295.05264 276.835112 
L 295.251071 262.393611 
L 295.449501 257.077006 
L 295.647931 257.468668 
L 295.846361 276.201786 
L 296.441652 233.268946 
L 296.640082 232.860617 
L 296.838513 218.785779 
L 297.036943 238.885548 
L 297.235373 238.493886 
L 297.433803 225.219039 
L 297.830664 255.060362 
L 298.029094 240.318865 
L 298.227524 260.468633 
L 298.425954 246.152131 
L 298.822815 278.093431 
L 299.418106 236.218912 
L 299.616536 243.96049 
L 299.814966 229.643988 
L 300.013396 248.377106 
L 300.410257 223.252395 
L 300.608687 243.902157 
L 300.807117 224.344049 
L 301.203978 246.793791 
L 301.402408 260.443634 
L 301.600838 266.026903 
L 301.799268 280.468403 
L 301.997699 285.785009 
L 302.79142 212.969179 
L 303.18828 174.086293 
L 303.38671 184.619505 
L 303.585141 204.769274 
L 303.783571 209.944214 
L 303.982001 321.376266 
L 304.378862 292.859928 
L 304.577292 306.451438 
L 304.775722 306.059776 
L 304.974152 298.409864 
L 305.172582 306.059776 
L 305.371013 297.143212 
L 305.569443 311.584712 
L 305.767873 316.759653 
L 305.966303 333.659459 
L 306.363164 293.451587 
L 306.561594 313.009696 
L 307.355315 255.668689 
L 307.950606 297.334876 
L 308.149036 289.684964 
L 308.347466 297.334876 
L 308.545897 312.218038 
L 308.744327 291.568276 
L 308.942757 305.643114 
L 309.339617 275.435128 
L 309.538048 270.260187 
L 309.736478 252.63539 
L 309.934908 273.543483 
L 310.133338 265.893571 
L 310.331769 245.793802 
L 310.530199 259.443645 
L 310.728629 244.702148 
L 310.927059 259.443645 
L 311.12549 243.67716 
L 311.32392 252.593724 
L 311.52235 267.876882 
L 311.919211 246.27713 
L 312.117641 252.993719 
L 312.316071 238.677217 
L 312.514501 259.32698 
L 312.712931 264.643585 
L 312.911362 250.202085 
L 313.109792 246.552127 
L 313.705083 282.010052 
L 313.903513 275.293463 
L 314.101943 262.018616 
L 314.498804 291.343278 
L 314.697234 296.926548 
L 314.895664 317.57631 
L 315.292525 288.709975 
L 315.689385 301.534828 
L 315.887815 301.143166 
L 316.086246 319.876284 
L 316.284676 310.95972 
L 316.681536 344.709331 
L 317.078397 368.909053 
L 317.475257 340.81771 
L 317.673687 354.092557 
L 318.070548 339.309394 
L 318.268978 344.484334 
L 318.665839 378.283945 
L 318.864269 372.96734 
L 319.261129 337.534414 
L 319.45956 344.251003 
L 319.65799 336.509426 
L 320.05485 364.759101 
L 320.25328 347.859295 
L 320.451711 362.175797 
L 320.848571 340.776043 
L 321.047001 353.259233 
L 321.642292 304.984788 
L 321.840722 320.267946 
L 322.039153 318.317968 
L 322.237583 331.901145 
L 322.436013 325.184556 
L 322.832874 285.801675 
L 323.031304 292.96826 
L 323.229734 238.352221 
L 323.428164 243.93549 
L 323.626595 258.376991 
L 323.825025 243.93549 
L 324.023455 263.493599 
L 324.221885 268.668539 
L 324.420315 282.318382 
L 324.618746 265.418576 
L 324.817176 265.901904 
L 325.015606 279.551747 
L 325.214036 285.135016 
L 325.610897 325.934547 
L 325.809327 309.034742 
L 326.007757 303.451473 
L 326.206188 322.18459 
L 326.404618 308.59308 
L 326.801478 340.376048 
L 326.999909 326.059546 
L 327.198339 332.776135 
L 327.396769 326.059546 
L 327.595199 331.376151 
L 327.79363 310.726389 
L 327.99206 319.642953 
L 328.19049 304.901456 
L 328.58735 339.201061 
L 329.182641 284.610022 
L 329.381071 300.376508 
L 329.579502 307.093097 
L 329.777932 309.043075 
L 329.976362 328.601183 
L 330.174792 321.884594 
L 330.373223 336.767756 
L 330.571653 322.026259 
L 330.770083 331.634482 
L 331.166944 310.026397 
L 331.365374 330.676159 
L 331.563804 321.067937 
L 331.762234 327.784526 
L 331.960664 325.834548 
L 332.159095 333.576126 
L 332.357525 318.692964 
L 332.555955 333.576126 
L 332.754385 197.744355 
L 332.952816 184.152844 
L 333.151246 184.561173 
L 333.548106 224.21905 
L 333.746537 214.610827 
L 333.944967 194.461059 
L 334.143397 215.110822 
L 334.540258 231.768963 
L 334.738688 211.669194 
L 334.937118 225.252372 
L 335.135548 306.068109 
L 335.333979 320.50961 
L 335.532409 310.901387 
L 335.730839 318.642965 
L 335.929269 302.876479 
L 336.127699 304.826457 
L 336.32613 291.234946 
L 336.52456 291.643275 
L 336.72299 284.926685 
L 336.92142 271.651838 
L 337.318281 303.718136 
L 337.715141 273.993478 
L 337.913572 274.38514 
L 338.112002 260.310302 
L 338.508862 259.510311 
L 338.707293 238.860548 
L 338.905723 239.252211 
L 339.104153 246.418795 
L 339.501013 210.06088 
L 339.699444 215.23582 
L 340.096304 247.560448 
L 340.294734 230.660643 
L 340.691595 251.45207 
L 341.088455 219.127442 
L 341.485316 184.902835 
L 341.683746 203.635953 
L 342.080607 181.011214 
L 342.279037 189.927778 
L 342.477467 176.277935 
L 342.874328 209.669217 
L 343.072758 217.410795 
L 343.271188 238.060558 
L 343.469618 219.32744 
L 343.668048 219.735768 
L 344.064909 254.327037 
L 344.263339 236.70224 
L 344.461769 242.285509 
L 344.85863 271.910168 
L 345.05706 257.168671 
L 345.25549 270.818514 
L 345.453921 263.076937 
L 345.850781 303.284808 
L 346.049211 294.368244 
L 346.247642 293.976581 
L 346.446072 292.026604 
L 346.644502 272.468495 
L 346.842932 286.543334 
L 347.438223 244.735481 
L 347.636653 244.327152 
L 347.835083 230.252314 
L 348.033514 247.877111 
L 348.231944 240.710527 
L 348.628804 264.668585 
L 348.827235 265.060247 
L 349.025665 278.335095 
L 349.224095 262.568609 
L 349.620956 290.593287 
L 350.017816 262.568609 
L 350.216246 241.918847 
L 350.414677 289.401634 
L 350.613107 288.993305 
L 350.811537 294.309911 
L 351.009967 237.01057 
L 351.605258 279.91841 
L 351.803688 279.510081 
L 352.002118 295.276566 
L 352.200549 295.684895 
L 352.398979 314.418013 
L 352.99427 274.326807 
L 353.1927 279.643413 
L 353.58956 300.884835 
L 353.787991 308.626413 
L 354.184851 287.876652 
L 354.581711 328.084523 
L 354.780142 327.676194 
L 354.978572 329.626172 
L 355.573863 375.583977 
L 355.772293 367.842399 
L 355.970723 347.692631 
L 356.169153 248.135442 
L 356.367584 259.61031 
L 356.764444 238.45222 
L 356.962874 245.168809 
L 357.161305 260.051971 
L 357.558165 270.518518 
L 357.756595 250.418749 
L 358.351886 297.88487 
L 358.550316 283.810032 
L 358.947177 317.984639 
L 359.145607 319.934616 
L 359.344037 334.376117 
L 359.542467 316.75132 
L 359.740898 317.142982 
L 359.939328 302.701481 
L 360.137758 228.619 
L 360.336188 209.885882 
L 360.534619 229.44399 
L 360.733049 215.002489 
L 360.931479 229.743987 
L 361.129909 210.185878 
L 361.32834 215.769147 
L 361.7252 244.285486 
L 361.92363 238.968881 
L 362.122061 224.52738 
L 362.518921 245.277141 
L 362.717351 225.127373 
L 362.915781 225.535702 
L 363.312642 210.719205 
L 363.511072 225.602368 
L 363.709502 227.552345 
L 363.907933 222.377405 
L 364.106363 230.027317 
L 364.900084 305.418117 
L 365.892235 231.243969 
L 366.289095 260.001972 
L 366.487526 245.11881 
L 366.685956 286.201671 
L 366.884386 286.609999 
L 367.082816 266.510231 
L 367.479677 300.243176 
L 368.273398 248.968766 
L 368.471828 262.551943 
L 368.670258 247.268785 
L 368.868689 267.368554 
L 369.067119 252.485392 
L 369.265549 273.135154 
L 370.2577 200.552656 
L 370.45613 213.035845 
L 370.654561 192.386083 
L 370.852991 199.102672 
L 371.051421 218.660781 
L 371.249851 198.511012 
L 371.448282 217.24413 
L 371.646712 202.80263 
L 371.845142 223.452392 
L 372.043572 232.368956 
L 372.242003 225.652367 
L 372.440433 225.244038 
L 372.837293 254.602034 
L 373.432584 233.48561 
L 373.631014 297.83487 
L 373.829444 283.518368 
L 374.226305 310.276394 
L 374.424735 295.534897 
L 374.623165 309.851399 
L 375.020026 287.759986 
L 375.218456 293.076592 
L 375.615317 270.051857 
L 375.813747 258.576988 
L 376.012177 272.160166 
L 376.210607 265.443576 
L 376.409038 278.718424 
L 376.607468 273.401818 
L 377.004328 307.034765 
L 377.202759 320.626275 
L 377.401189 299.976512 
L 378.19491 339.792721 
L 378.39334 320.234613 
L 378.59177 329.151177 
L 378.7902 314.834675 
L 378.988631 309.518069 
L 379.583921 254.843698 
L 379.980782 229.785653 
L 380.179212 237.435565 
L 380.377642 251.877065 
L 380.576073 249.927088 
L 380.774503 261.401956 
L 380.972933 263.351934 
L 381.369793 233.627275 
L 381.568224 297.693205 
L 381.965084 276.660114 
L 382.163514 278.610091 
L 382.560375 247.402117 
L 382.758805 254.118706 
L 382.957235 268.193545 
L 383.354096 236.552242 
L 383.552526 250.135419 
L 383.750956 230.57731 
L 384.346247 274.518472 
L 384.544677 274.9268 
L 384.743108 268.210211 
L 384.941538 287.768319 
L 385.338398 252.802055 
L 385.536828 273.451817 
L 385.933689 248.952099 
L 386.330549 289.234969 
L 386.52898 275.643459 
L 386.72741 275.643459 
L 387.12427 305.668114 
L 387.322701 298.951524 
L 387.917991 253.560379 
L 388.314852 286.734998 
L 388.513282 273.151821 
L 388.910142 307.451427 
L 389.108573 286.801664 
L 389.307003 302.568149 
L 389.902294 269.543529 
L 390.100724 290.193292 
L 390.299154 275.751791 
L 390.696015 301.826491 
L 390.894445 283.093373 
L 391.291305 270.610183 
L 391.688166 294.659907 
L 391.886596 281.38506 
L 392.085026 294.968237 
L 392.283457 283.493369 
L 392.481887 292.409933 
L 392.680317 283.493369 
L 392.878747 283.885031 
L 393.077177 266.260233 
L 393.474038 287.71832 
L 393.672468 302.159821 
L 393.870898 286.876663 
L 394.069329 295.793227 
L 394.267759 256.177016 
L 394.466189 256.568678 
L 394.664619 256.177016 
L 394.86305 238.552219 
L 395.06148 231.385634 
L 395.45834 246.777124 
L 395.855201 213.144177 
L 396.053631 230.768975 
L 396.252061 231.160637 
L 396.450492 217.88579 
L 396.648922 231.960628 
L 396.847352 211.310865 
L 397.244212 280.018409 
L 397.641073 248.802101 
L 398.037933 289.601632 
L 398.236364 275.526794 
L 398.434794 280.701734 
L 398.633224 260.551966 
L 398.831654 260.143637 
L 399.030085 265.726906 
L 399.228515 282.626712 
L 399.426945 289.793296 
L 400.220666 227.794009 
L 400.419096 228.202338 
L 400.815957 257.068672 
L 401.014387 243.793825 
L 401.212817 255.268693 
L 401.411247 236.535575 
L 401.609678 236.127247 
L 402.006538 217.002466 
L 402.403399 204.969271 
L 402.601829 211.685861 
L 402.800259 319.63462 
L 402.998689 319.226291 
L 403.19712 321.176269 
L 403.39555 341.326037 
L 404.189271 282.818376 
L 404.387701 288.401646 
L 404.784561 263.276934 
L 404.982992 270.443519 
L 405.181422 253.543713 
L 405.379852 273.643482 
L 405.578282 268.326876 
L 405.776713 268.718539 
L 406.173573 302.951478 
L 406.372003 297.368209 
L 406.570434 311.018052 
L 406.768864 296.70155 
L 407.165724 322.617919 
L 407.364155 308.543081 
L 407.562585 315.25967 
L 407.959445 338.251072 
L 408.157875 325.767883 
L 408.356306 342.667688 
L 408.951596 288.018317 
L 409.150027 281.301727 
L 409.745317 245.543805 
L 409.943748 250.86041 
L 410.142178 239.385542 
L 410.340608 253.302049 
L 410.539038 233.20228 
L 410.737469 247.643781 
L 410.935899 238.727217 
L 411.134329 292.593264 
L 411.332759 281.118396 
L 411.72962 312.459702 
L 412.12648 284.743354 
L 412.523341 243.443829 
L 412.721771 245.393807 
L 412.920201 230.952306 
L 413.317062 256.502012 
L 413.515492 245.027144 
L 413.912352 263.668597 
L 414.706073 230.710642 
L 415.102934 271.510173 
L 415.301364 271.901835 
L 415.698224 234.902261 
L 415.896655 255.552023 
L 416.095085 244.077155 
L 416.293515 251.727067 
L 416.491945 253.677045 
L 416.690376 258.851985 
L 416.888806 256.902008 
L 417.087236 249.735423 
L 417.285666 229.085661 
L 417.484097 231.035638 
L 417.682527 245.777136 
L 417.880957 225.627367 
L 418.277818 257.943662 
L 418.476248 266.860227 
L 419.071539 230.302314 
L 419.269969 245.043811 
L 419.468399 230.160648 
L 419.666829 301.159832 
L 419.865259 319.89295 
L 420.26212 285.368347 
L 420.46055 306.01811 
L 420.65898 306.426438 
L 420.857411 306.01811 
L 421.055841 313.668022 
L 421.452701 292.426599 
L 421.651132 306.01811 
L 421.849562 311.19305 
L 422.047992 291.043282 
L 422.246422 311.19305 
L 422.643283 276.210119 
L 422.841713 276.601781 
L 423.238573 306.626436 
L 423.437004 301.451496 
L 423.635434 289.976627 
L 423.833864 304.293129 
L 424.032294 309.46807 
L 424.230725 318.384634 
L 424.429155 320.334612 
L 424.627585 340.434381 
L 424.826015 319.784618 
L 425.024446 335.551103 
L 425.222876 325.942881 
L 425.421306 339.526058 
L 425.818167 309.44307 
L 426.016597 309.851399 
L 426.215027 329.409507 
L 426.413457 337.059419 
L 426.810318 302.884812 
L 427.008748 282.735044 
L 427.207178 296.809882 
L 427.405608 281.526725 
L 427.802469 268.610206 
L 428.000899 286.235004 
L 428.79462 252.35206 
L 428.99305 278.968421 
L 429.588341 259.501978 
L 429.786771 266.668562 
L 430.183632 241.543851 
L 431.175783 302.634815 
L 431.374213 319.534621 
L 431.572643 298.884858 
L 431.771074 319.034627 
L 431.969504 212.285854 
L 432.167934 214.235832 
L 432.763225 192.261084 
L 432.961655 207.544242 
L 433.160085 202.369301 
L 433.358516 210.110879 
L 433.556946 197.627689 
L 433.755376 194.427726 
L 433.953806 208.077569 
L 434.350667 178.877905 
L 434.549097 352.442576 
L 434.747527 354.392553 
L 434.945957 346.742641 
L 435.144388 332.301141 
L 435.342818 346.742641 
L 435.541248 333.151131 
L 435.739678 344.625999 
L 436.73183 275.151798 
L 437.32712 325.159556 
L 437.723981 353.192567 
L 437.922411 333.042799 
L 438.120841 339.759388 
L 438.319272 325.317888 
L 438.517702 345.467656 
L 438.716132 352.63424 
L 438.914562 339.051063 
L 439.112992 333.467794 
L 439.509853 298.626528 
L 439.708283 319.276291 
L 439.906713 305.68478 
L 440.105144 305.276452 
L 440.303574 318.867962 
L 440.502004 307.393094 
L 440.700434 307.001432 
L 440.898865 293.726584 
L 441.097295 310.62639 
L 441.295725 303.909801 
L 441.494155 287.009995 
L 441.692586 292.593264 
L 441.891016 301.509828 
L 442.089446 321.067937 
L 442.287876 300.418174 
L 442.486306 295.101569 
L 442.684737 293.151591 
L 442.883167 295.101569 
L 443.081597 280.660068 
L 443.280027 278.71009 
L 443.478458 271.043512 
L 444.073748 287.343324 
L 444.470609 260.801963 
L 445.0659 303.543138 
L 445.26433 282.893376 
L 445.46276 291.80994 
L 445.66119 280.335072 
L 445.859621 282.285049 
L 446.058051 302.434818 
L 446.256481 307.751423 
L 446.454911 322.49292 
L 446.653341 322.901249 
L 446.851772 317.584643 
L 447.050202 324.301233 
L 447.447062 294.218245 
L 447.645493 301.959823 
L 447.843923 229.360658 
L 448.042353 248.918766 
L 448.240783 233.152281 
L 448.836074 256.718676 
L 449.034504 271.460174 
L 449.232935 262.543609 
L 449.629795 285.801675 
L 450.026655 257.901996 
L 450.225086 266.81856 
L 450.621946 238.443887 
L 450.820376 250.168752 
L 451.018807 229.518989 
L 451.217237 236.235579 
L 451.415667 227.319014 
L 451.614097 236.235579 
L 451.812528 250.552081 
L 452.010958 250.943743 
L 452.209388 230.29398 
L 452.407818 250.443749 
L 452.606249 230.34398 
L 452.804679 238.085557 
L 453.003109 237.693895 
L 453.39997 268.343543 
L 453.5984 253.602046 
L 453.79683 267.185223 
L 453.99526 272.768492 
L 454.19369 259.185315 
L 454.590551 285.101683 
L 454.788981 271.826836 
L 455.384272 321.834594 
L 455.582702 322.242923 
L 455.781132 342.392691 
L 455.979563 188.927789 
L 456.574853 234.893927 
L 456.773284 216.160809 
L 456.971714 233.785607 
L 457.170144 297.534874 
L 457.368574 312.276371 
L 457.567004 296.509886 
L 457.765435 303.67647 
L 457.963865 317.26798 
L 458.162295 302.82648 
L 458.559156 343.076017 
L 458.757586 335.909433 
L 458.956016 317.176315 
L 459.154446 319.126292 
L 459.352877 313.543023 
L 459.749737 279.793411 
L 459.948167 265.718573 
L 460.146598 270.893513 
L 460.345028 279.810078 
L 460.543458 266.218567 
L 460.741888 286.86833 
L 461.138749 272.63516 
L 461.337179 286.285003 
L 461.734039 257.893663 
L 461.93247 272.335164 
L 462.1309 265.618574 
L 462.32933 272.785158 
L 462.726191 298.851525 
L 462.924621 286.368336 
L 463.123051 285.960007 
L 463.321481 299.234854 
L 463.519912 287.759986 
L 463.718342 306.493104 
L 463.916772 292.051604 
L 464.115202 308.951409 
L 464.313633 301.301497 
L 464.512063 286.418335 
L 464.710493 302.18482 
L 464.908923 282.035052 
L 465.305784 282.835043 
L 465.504214 267.068557 
L 465.702644 280.660068 
L 465.901074 266.218567 
L 466.099505 277.693435 
L 466.297935 277.301773 
L 466.496365 254.018708 
L 466.694795 261.760285 
L 466.893226 247.318785 
L 467.091656 249.268762 
L 467.290086 256.435346 
L 467.488516 249.268762 
L 467.686947 263.710263 
L 467.885377 249.635425 
L 468.083807 270.285187 
L 468.282237 255.843687 
L 468.480668 269.435197 
L 468.679098 249.335428 
L 468.877528 268.893536 
L 469.075958 276.060121 
L 469.472819 316.809652 
L 469.671249 296.709883 
L 469.869679 315.443001 
L 470.26654 284.168361 
L 470.86183 334.751113 
L 471.258691 304.24313 
L 471.457121 324.392898 
L 471.655551 303.743136 
L 471.853982 319.026293 
L 472.052412 300.293175 
L 472.449272 285.476679 
L 472.647703 292.643263 
L 472.846133 285.476679 
L 473.044563 283.526702 
L 473.838284 211.935858 
L 474.235144 236.002248 
L 474.433575 236.002248 
L 474.632005 250.077086 
L 474.830435 234.793929 
L 475.425726 271.593505 
L 475.822586 306.009776 
L 476.021017 292.426599 
L 476.219447 306.076442 
L 476.417877 225.244038 
L 476.814737 273.060155 
L 477.013168 280.22674 
L 477.410028 315.193004 
L 477.806889 286.010006 
L 478.005319 286.010006 
L 478.203749 294.926571 
L 478.60061 258.99365 
L 478.79904 284.55169 
L 478.99747 266.926892 
L 479.1959 259.760308 
L 479.394331 279.860077 
L 479.592761 259.710309 
L 479.791191 274.451806 
L 479.989621 274.860135 
L 480.188052 282.601712 
L 480.386482 299.501518 
L 480.981772 248.918766 
L 481.378633 281.426726 
L 481.775493 268.460208 
L 481.973924 288.559977 
L 482.569214 245.077144 
L 482.767645 257.560333 
L 483.362935 306.001443 
L 483.561366 311.176384 
L 483.759796 291.076615 
L 483.958226 291.468277 
L 484.156656 286.293336 
L 484.355086 277.376772 
L 484.553517 263.06027 
L 484.751947 276.710113 
L 484.950377 257.152005 
L 485.148807 256.743676 
L 485.347238 263.91026 
L 485.942528 226.84402 
L 486.140959 224.894042 
L 486.339389 230.210648 
L 486.537819 217.727458 
L 487.13311 263.493599 
L 487.33154 258.176993 
L 487.926831 207.377577 
L 488.125261 323.942904 
L 488.522121 296.70155 
L 488.720552 310.284727 
L 488.918982 304.968122 
L 489.315842 264.668585 
L 489.911133 296.493219 
L 490.109563 286.884996 
L 490.307994 307.034765 
L 490.506424 293.451587 
L 490.704854 307.101431 
L 490.903284 298.184866 
L 491.101715 280.560069 
L 491.498575 268.526874 
L 491.697005 254.085373 
L 491.895435 253.677045 
L 492.292296 267.560218 
L 492.689156 235.777251 
L 492.887587 233.827273 
L 493.086017 249.110431 
L 493.284447 251.060408 
L 493.681308 229.668987 
L 493.879738 234.985593 
L 494.078168 250.460415 
L 494.276598 250.852077 
L 494.673459 282.551713 
L 494.871889 263.818595 
L 495.070319 273.426818 
L 495.46718 260.4603 
L 495.86404 220.752423 
L 496.260901 255.052029 
L 496.657761 277.618436 
L 497.253052 244.81048 
L 497.451482 256.285348 
L 497.649912 255.893686 
L 497.848343 253.943708 
L 498.046773 268.385209 
L 498.245203 253.943708 
L 498.443633 259.260314 
L 498.642064 245.985467 
L 498.840494 267.968547 
L 499.038924 268.376876 
L 499.237354 273.551816 
L 499.435785 287.134993 
L 499.634215 279.968409 
L 499.832645 279.560081 
L 500.031075 262.660275 
L 500.229505 262.660275 
L 500.427936 263.051937 
L 500.626366 268.635206 
L 500.824796 268.243544 
L 501.023226 268.243544 
L 501.221657 262.926938 
L 501.420087 283.076707 
L 501.618517 264.343589 
L 501.816947 271.510173 
L 502.015378 271.918502 
L 502.213808 285.568345 
L 502.412238 265.418576 
L 502.610668 258.251992 
L 503.205959 305.268118 
L 503.80125 256.610344 
L 503.99968 257.002007 
L 504.19811 256.593678 
L 504.39654 272.360163 
L 504.793401 249.168763 
L 504.991831 243.585494 
L 505.190261 261.210291 
L 505.388692 256.035351 
L 505.587122 256.035351 
L 506.380843 325.176223 
L 506.777703 337.659413 
L 506.976134 193.661068 
L 507.174564 194.05273 
L 507.372994 337.26775 
L 507.769854 307.509759 
L 507.968285 292.226602 
L 508.166715 294.176579 
L 508.365145 273.526817 
L 508.563575 273.935145 
L 508.762006 253.785377 
L 508.960436 248.468771 
L 509.158866 274.526805 
L 509.555727 256.868675 
L 509.754157 237.310566 
L 509.952587 245.302141 
L 510.151017 245.693803 
L 510.349448 259.27698 
L 510.746308 238.243889 
L 510.944738 224.969042 
L 511.143168 243.702159 
L 511.341599 227.935674 
L 511.540029 245.693803 
L 511.738459 238.977214 
L 512.13532 218.219119 
L 512.33375 225.960697 
L 512.53218 206.402588 
L 512.73061 225.960697 
L 512.929041 232.677286 
L 513.127471 232.268958 
L 513.325901 218.68578 
L 513.524331 226.335692 
L 513.722762 239.61054 
L 513.921192 237.660562 
L 514.318052 222.385738 
L 514.516483 236.70224 
L 514.714913 216.052477 
L 514.913343 228.535667 
L 515.111773 249.18543 
L 515.310203 254.36037 
L 515.707064 219.394106 
L 515.905494 232.985616 
L 516.103924 218.244119 
L 516.302355 223.560724 
L 516.500785 209.969214 
L 516.699215 225.735699 
L 516.897645 207.002581 
L 517.096076 214.0775 
L 517.294506 228.818997 
L 517.492936 214.0775 
L 517.889797 239.86887 
L 518.485087 290.518288 
L 518.683517 282.77671 
L 518.881948 298.059868 
L 519.675669 254.735366 
L 519.874099 234.085603 
L 520.072529 228.910663 
L 520.270959 229.318991 
L 520.46939 222.152407 
L 520.66782 235.735584 
L 520.86625 219.969099 
L 521.06468 219.969099 
L 521.659971 199.311003 
L 521.858401 197.894353 
L 522.255262 216.41914 
L 522.453692 232.185625 
L 522.652122 234.135603 
L 523.048983 203.585954 
L 523.247413 218.869112 
L 523.445843 209.952547 
L 523.644273 230.052316 
L 523.842704 215.735814 
L 524.239564 244.793814 
L 524.636425 219.002443 
L 524.834855 225.769032 
L 525.231715 258.435323 
L 525.430146 243.993823 
L 525.628576 252.910387 
L 525.827006 252.502058 
L 526.025436 264.985248 
L 526.223866 265.393577 
L 526.422297 286.043339 
L 526.620727 265.94357 
L 527.017587 298.009868 
L 527.216018 284.735021 
L 527.811308 332.851134 
L 528.009739 325.201222 
L 528.208169 339.642723 
L 528.406599 325.567885 
L 528.605029 338.842732 
L 528.80346 237.910559 
L 529.00189 252.652057 
L 529.39875 298.818192 
L 529.795611 327.634528 
L 529.994041 313.318026 
L 530.192471 320.967938 
L 530.390901 306.8931 
L 530.589332 224.427381 
L 530.986192 245.66047 
L 531.383053 220.602425 
L 531.581483 230.210648 
L 531.779913 209.560885 
L 531.978343 209.560885 
L 532.176774 189.461116 
L 532.573634 222.085741 
L 532.772064 222.085741 
L 532.970495 216.769136 
L 533.367355 247.97711 
L 533.565785 233.235613 
L 533.764215 245.718803 
L 533.962646 230.835641 
L 534.359506 260.860296 
L 534.756367 248.110442 
L 534.954797 268.26021 
L 535.153227 254.610367 
L 535.351657 268.26021 
L 535.550088 268.651873 
L 535.748518 254.577034 
L 535.946948 269.018535 
L 536.542239 228.069006 
L 536.740669 235.810584 
L 536.939099 251.577069 
L 537.13753 244.860479 
L 537.53439 244.860479 
L 537.73282 227.235682 
L 537.93125 227.644011 
L 538.129681 244.543816 
L 538.328111 251.710401 
L 538.526541 236.427243 
L 538.724971 236.018914 
L 539.320262 196.6777 
L 539.518692 196.6777 
L 540.113983 250.252084 
L 540.312413 230.693976 
L 540.510844 237.410565 
L 540.709274 232.235625 
L 540.907704 241.152189 
L 541.106134 231.543966 
L 541.304565 231.152304 
L 541.502995 248.777101 
L 541.899855 259.535311 
L 542.098285 269.143534 
L 542.296716 260.226969 
L 542.693576 281.626723 
L 542.892006 286.943329 
L 543.090437 281.36006 
L 543.288867 281.751722 
L 543.487297 272.835158 
L 543.685727 286.110005 
L 543.884158 284.160028 
L 544.281018 252.09373 
L 544.479448 261.010294 
L 544.677879 261.418622 
L 544.876309 256.243682 
L 545.074739 271.126844 
L 545.273169 271.126844 
L 545.471599 252.393726 
L 545.67003 257.976995 
L 545.86846 272.418496 
L 546.06689 258.901985 
L 546.463751 273.360152 
L 546.662181 252.710389 
L 546.860611 261.626953 
L 547.059041 262.018616 
L 547.257472 253.102051 
L 547.852762 295.734895 
L 548.051193 293.784917 
L 548.249623 299.101523 
L 548.448053 278.45176 
L 548.646483 298.601528 
L 548.844914 293.284923 
L 549.043344 292.893261 
L 549.241774 307.776423 
L 549.638634 280.535069 
L 549.837065 288.184981 
L 550.233925 253.960375 
L 550.432355 256.41868 
L 550.630786 265.335244 
L 550.829216 252.060397 
L 551.027646 257.377002 
L 551.226076 250.660413 
L 551.424507 230.560644 
L 552.218228 288.276647 
L 552.416658 273.53515 
L 552.615088 267.951881 
L 552.813518 282.835043 
L 553.408809 241.493852 
L 553.607239 260.226969 
L 553.805669 239.577207 
L 554.0041 259.726975 
L 554.20253 239.077213 
L 554.59939 255.643689 
L 554.797821 241.202188 
L 554.996251 239.252211 
L 555.194681 224.81071 
L 555.393111 238.393887 
L 555.591542 235.427255 
L 555.789972 249.868755 
L 555.988402 243.152166 
L 556.186832 243.152166 
L 556.385263 250.31875 
L 556.980553 285.285015 
L 557.178983 271.635172 
L 557.377414 271.243509 
L 557.774274 241.485518 
L 558.171135 257.810331 
L 558.369565 242.527173 
L 558.567995 235.810584 
L 558.766425 222.227406 
L 558.964856 221.819078 
L 559.163286 241.968846 
L 559.361716 236.385577 
L 559.560146 251.127074 
L 559.758577 256.44368 
L 559.957007 241.702182 
L 560.155437 246.877123 
L 560.353867 229.977317 
L 560.552297 231.927295 
L 560.750728 226.610689 
L 560.949158 247.260452 
L 561.147588 232.94395 
L 561.346018 251.677068 
L 561.742879 232.027294 
L 561.941309 244.510483 
L 562.33817 244.510483 
L 562.5366 230.068983 
L 562.73503 228.119005 
L 562.93346 209.794216 
L 563.131891 225.077374 
L 563.330321 204.927605 
L 563.528751 204.927605 
L 563.727181 206.877583 
L 563.925612 218.352451 
L 564.124042 218.352451 
L 564.520902 197.961019 
L 564.719332 177.311256 
L 564.917763 182.627862 
L 565.314623 216.927467 
L 565.513053 223.644057 
L 565.711484 214.035834 
L 565.909914 198.752676 
L 567.100495 259.151982 
L 567.497356 237.760561 
L 567.695786 237.760561 
L 567.894216 258.410324 
L 568.092646 244.818813 
L 568.291077 258.468656 
L 568.489507 258.468656 
L 568.687937 253.293716 
L 569.084798 253.293716 
L 569.283228 247.97711 
L 569.481658 265.601908 
L 569.878519 236.185579 
L 570.076949 243.927157 
L 570.275379 244.318819 
L 570.473809 244.318819 
L 570.67224 258.393657 
L 570.87067 258.393657 
L 571.0691 258.801986 
L 571.26753 238.702217 
L 571.465961 238.293888 
L 571.664391 238.293888 
L 571.862821 229.377324 
L 572.061251 234.552265 
L 572.259681 234.552265 
L 572.458112 226.810687 
L 572.854972 191.277762 
L 573.053402 206.56092 
L 573.450263 165.761389 
L 574.045554 216.277475 
L 574.243984 215.885813 
L 574.442414 221.469082 
L 574.640844 211.860859 
L 574.839275 216.294141 
L 575.037705 216.294141 
L 575.236135 210.710872 
L 575.434565 224.294049 
L 575.632996 216.644137 
L 575.831426 235.377255 
L 576.029856 217.752458 
L 576.426716 247.168786 
L 576.823577 232.802285 
L 577.220437 201.460978 
L 577.418868 207.535909 
L 577.617298 205.010938 
L 578.212589 250.227084 
L 579.00631 201.160982 
L 579.20474 215.602483 
L 579.40317 221.185752 
L 579.6016 211.577529 
L 579.80003 228.477334 
L 579.998461 214.885824 
L 580.196891 209.302555 
L 580.593751 209.302555 
L 580.792182 193.53607 
L 580.990612 195.369382 
L 581.387472 195.369382 
L 581.585903 202.085971 
L 581.982763 202.085971 
L 582.379624 212.844181 
L 582.776484 181.219544 
L 582.974914 181.219544 
L 583.371775 214.64416 
L 583.570205 209.46922 
L 583.768635 216.635804 
L 583.967065 231.377301 
L 584.165496 224.210717 
L 584.363926 230.118982 
L 584.562356 245.885468 
L 584.760786 226.327359 
L 584.959217 239.977202 
L 585.157647 234.393933 
L 585.356077 243.310497 
L 585.554507 243.310497 
L 585.752938 242.918835 
L 585.951368 250.085419 
L 586.149798 264.160258 
L 586.348228 255.243693 
L 586.546659 262.985271 
L 586.943519 232.902284 
L 587.340379 232.902284 
L 587.73724 256.093684 
L 587.93567 256.502012 
L 588.1341 256.502012 
L 588.332531 242.918835 
L 588.530961 258.685321 
L 588.927821 235.752251 
L 589.126252 241.33552 
L 589.324682 228.060673 
L 589.523112 233.235613 
L 589.721542 214.502495 
L 589.919973 214.502495 
L 590.118403 196.877698 
L 590.316833 214.502495 
L 590.515263 214.502495 
L 590.713694 197.602689 
L 590.912124 197.602689 
L 591.110554 183.527851 
L 591.308984 196.802699 
L 591.507414 179.177901 
L 591.705845 187.202809 
L 591.904275 187.202809 
L 592.102705 196.119373 
L 592.301135 196.119373 
L 592.499566 189.402784 
L 593.094856 189.402784 
L 593.491717 210.727539 
L 593.690147 210.727539 
L 594.087008 181.686206 
L 594.285438 181.277877 
L 594.483868 181.277877 
L 594.682298 166.53638 
L 594.880728 173.252969 
L 595.079159 173.644632 
L 595.277589 189.411117 
L 595.476019 189.019455 
L 595.674449 189.019455 
L 595.87288 203.760952 
L 596.07131 203.760952 
L 596.26974 194.844388 
L 596.46817 194.844388 
L 596.666601 187.10281 
L 596.865031 187.511139 
L 597.063461 187.511139 
L 597.261891 191.894422 
L 597.460322 191.894422 
L 597.658752 199.635999 
L 598.055612 227.227349 
L 598.254043 213.577506 
L 598.452473 213.577506 
L 598.849333 185.561161 
L 599.047763 197.036029 
L 599.643054 197.036029 
L 600.039915 171.977984 
L 600.238345 172.369646 
L 600.436775 172.369646 
L 600.635205 158.053144 
L 601.230496 158.053144 
L 601.428926 165.219728 
L 601.627357 179.661229 
L 601.825787 179.661229 
L 602.024217 172.494645 
L 602.222647 172.494645 
L 602.421077 189.394451 
L 602.619508 189.394451 
L 602.817938 205.160936 
L 603.016368 198.444346 
L 603.413229 219.194108 
L 603.611659 219.194108 
L 603.810089 221.144085 
L 604.20695 254.352037 
L 604.40538 249.035431 
L 604.60381 249.035431 
L 604.80224 239.427209 
L 605.000671 224.144051 
L 605.199101 224.144051 
L 605.397531 222.194073 
L 605.794392 188.394462 
L 606.191252 188.394462 
L 606.389682 181.227878 
L 606.588112 180.836216 
L 606.786543 180.836216 
L 606.984973 160.686447 
L 607.183403 175.969605 
L 607.381833 172.719642 
L 607.580264 159.136465 
L 607.778694 161.086443 
L 607.977124 161.086443 
L 608.175554 146.644942 
L 608.572415 146.644942 
L 608.770845 147.036604 
L 608.969275 147.036604 
L 609.167706 139.295027 
L 609.366136 139.295027 
L 609.762996 158.511472 
L 609.961427 158.11981 
L 610.159857 158.11981 
L 610.358287 152.94487 
L 610.556717 151.978214 
L 610.755147 151.978214 
L 610.953578 157.153155 
L 611.152008 157.153155 
L 611.350438 171.227993 
L 611.548868 171.227993 
L 611.747299 156.911491 
L 614.128461 156.911491 
L 614.326892 165.828055 
L 615.120613 165.828055 
L 615.319043 151.386554 
L 615.517473 151.386554 
L 615.715903 156.70316 
L 615.914334 151.386554 
L 616.112764 151.386554 
L 616.311194 150.061569 
L 617.501776 150.061569 
L 617.700206 166.961375 
L 618.295496 166.961375 
L 618.493927 187.611138 
L 619.486078 187.611138 
L 619.684508 182.436197 
L 620.478229 182.436197 
L 620.676659 182.827859 
L 620.87509 182.827859 
L 621.07352 175.086282 
L 621.66881 175.086282 
L 621.867241 169.503013 
L 622.264101 169.503013 
L 622.462531 176.219602 
L 622.660962 176.219602 
L 622.859392 183.869514 
L 623.057822 183.869514 
L 623.256252 185.702826 
L 623.454683 185.702826 
L 623.653113 195.311049 
L 624.049973 195.311049 
L 624.248404 175.752941 
L 624.645264 175.752941 
L 625.042125 204.627609 
L 625.240555 204.627609 
L 625.438985 185.894491 
L 625.835845 185.894491 
L 626.232706 196.386037 
L 626.431136 175.736274 
L 626.629566 175.736274 
L 626.827997 191.50276 
L 627.026427 184.78617 
L 627.224857 184.394508 
L 627.423287 169.019685 
L 627.621718 169.019685 
L 627.820148 183.461185 
L 628.018578 183.461185 
L 628.217008 169.386347 
L 628.415439 169.386347 
L 628.613869 164.069742 
L 630.00288 164.069742 
L 630.399741 198.294348 
L 630.598171 198.294348 
L 630.796601 211.569196 
L 630.995032 200.094327 
L 631.193462 207.835905 
L 631.391892 194.561058 
L 631.590322 194.561058 
L 631.788753 186.911146 
L 632.384043 186.911146 
L 632.582474 173.319635 
L 633.971485 173.319635 
L 634.169915 164.403071 
L 634.368346 164.403071 
L 634.566776 159.228131 
L 634.765206 170.702999 
L 634.963636 156.261498 
L 635.955788 156.261498 
L 636.154218 161.436439 
L 636.352648 147.786596 
L 637.146369 147.786596 
L 637.344799 160.269785 
L 637.543229 160.269785 
L 637.74166 159.861457 
L 637.94009 159.861457 
L 638.13852 144.578299 
L 638.932241 144.578299 
L 639.130671 130.136798 
L 642.702416 130.136798 
L 642.900846 136.853388 
L 645.877299 136.853388 
L 646.07573 130.136798 
L 646.67102 130.136798 
L 646.869451 130.545127 
L 649.052183 130.545127 
L 649.250613 119.070259 
L 650.242765 119.070259 
L 650.441195 130.770125 
L 652.822358 130.770125 
L 653.020788 130.361796 
L 655.401951 130.361796 
L 655.600381 132.178442 
L 658.179974 132.178442 
L 658.378404 132.30344 
L 658.576835 141.220004 
L 658.775265 141.220004 
L 658.973695 146.53661 
L 659.370556 146.53661 
L 659.568986 141.220004 
L 660.759567 141.220004 
L 660.957997 145.194959 
L 661.553288 109.028708 
L 664.132881 109.028708 
L 664.331311 101.378796 
L 678.618289 101.378796 
L 679.015149 101.253797 
L 681.594742 101.253797 
L 681.793172 96.545518 
L 701.040905 96.545518 
L 701.239336 88.887273 
L 871.690909 88.887273 
L 871.690909 88.887273 
" style="fill:none;stroke:#8dd3c7;stroke-linecap:square;stroke-width:1.5;"/>
   </g>
   <g id="line2d_15">
    <path clip-path="url(#p8a107831c0)" d="M 161.509091 214.352497 
L 161.707521 214.352497 
L 161.905951 211.694194 
L 164.088684 211.694194 
L 164.287114 211.335865 
L 164.485544 209.385887 
L 164.683975 209.385887 
L 164.882405 206.419255 
L 181.748975 206.419255 
L 181.947405 187.786136 
L 220.442871 187.786136 
L 220.641302 186.069489 
L 223.220895 186.069489 
L 223.419325 183.727849 
L 302.98985 183.727849 
L 303.18828 174.086293 
L 573.251833 174.086293 
L 573.450263 165.761389 
L 600.436775 165.761389 
L 600.635205 158.053144 
L 607.977124 158.053144 
L 608.175554 146.644942 
L 608.969275 146.644942 
L 609.167706 139.295027 
L 638.932241 139.295027 
L 639.130671 130.136798 
L 649.052183 130.136798 
L 649.250613 119.070259 
L 661.354858 119.070259 
L 661.553288 109.028708 
L 664.132881 109.028708 
L 664.331311 101.378796 
L 678.618289 101.378796 
L 679.015149 101.253797 
L 681.594742 101.253797 
L 681.793172 96.545518 
L 701.040905 96.545518 
L 701.239336 88.887273 
L 871.690909 88.887273 
L 871.690909 88.887273 
" style="fill:none;stroke:#feffb3;stroke-linecap:square;stroke-width:1.5;"/>
   </g>
   <g id="line2d_16">
    <path clip-path="url(#p8a107831c0)" d="M 161.509091 295.316566 
L 163.294963 295.316566 
L 163.493393 306.350337 
L 165.279265 306.350337 
L 165.477696 316.739674 
L 167.263568 316.739674 
L 167.461998 326.522214 
L 169.24787 326.522214 
L 169.4463 335.733399 
L 171.232173 335.733399 
L 171.430603 344.406599 
L 173.216475 344.406599 
L 173.414905 352.573235 
L 175.200777 352.573235 
L 175.399207 360.262893 
L 177.18508 360.262893 
L 177.38351 367.503432 
L 179.169382 367.503432 
L 179.367812 374.321082 
L 181.153684 374.321082 
L 181.352115 380.740543 
L 183.137987 380.740543 
L 183.336417 386.785072 
L 185.122289 386.785072 
L 185.320719 392.476565 
L 187.106591 392.476565 
L 187.305022 397.835644 
L 189.090894 397.835644 
L 189.289324 402.881721 
L 191.075196 402.881721 
L 191.273626 407.63308 
L 193.059499 407.63308 
L 193.257929 412.106932 
L 195.043801 412.106932 
L 195.242231 416.319486 
L 197.028103 416.319486 
L 197.226534 420.286003 
L 199.012406 420.286003 
L 199.210836 424.020853 
L 200.996708 424.020853 
L 201.195138 427.537567 
L 202.98101 427.537567 
L 203.179441 430.848884 
L 204.965313 430.848884 
L 205.163743 433.966802 
L 206.949615 433.966802 
L 207.148045 436.902616 
L 208.933918 436.902616 
L 209.132348 439.666962 
L 210.91822 439.666962 
L 211.11665 442.269855 
L 212.902522 442.269855 
L 213.100953 444.720723 
L 214.886825 444.720723 
L 215.085255 447.028448 
L 216.871127 447.028448 
L 217.069557 449.201388 
L 218.855429 449.201388 
L 219.05386 451.247416 
L 220.839732 451.247416 
L 221.038162 453.173945 
L 222.824034 453.173945 
L 223.022464 454.987953 
L 224.808337 454.987953 
L 225.006767 456.696013 
L 226.792639 456.696013 
L 226.991069 458.304313 
L 228.776941 458.304313 
L 228.975371 459.818679 
L 230.761244 459.818679 
L 230.959674 461.244597 
L 232.745546 461.244597 
L 232.943976 462.587234 
L 234.729848 462.587234 
L 234.928279 463.851453 
L 236.714151 463.851453 
L 236.912581 465.041834 
L 238.698453 465.041834 
L 238.896883 466.162691 
L 240.682755 466.162691 
L 240.881186 467.218083 
L 242.667058 467.218083 
L 242.865488 468.211835 
L 244.65136 468.211835 
L 244.84979 469.147545 
L 246.635663 469.147545 
L 246.834093 470.028605 
L 248.619965 470.028605 
L 248.818395 470.858206 
L 250.604267 470.858206 
L 250.802698 471.639354 
L 252.58857 471.639354 
L 252.787 472.374878 
L 254.572872 472.374878 
L 254.771302 473.067443 
L 256.557174 473.067443 
L 256.755605 473.719559 
L 258.541477 473.719559 
L 258.739907 474.333587 
L 260.525779 474.333587 
L 260.724209 474.911753 
L 262.510082 474.911753 
L 262.708512 475.456151 
L 264.494384 475.456151 
L 264.692814 475.968752 
L 266.478686 475.968752 
L 266.677117 476.451415 
L 268.462989 476.451415 
L 268.661419 476.905888 
L 270.447291 476.905888 
L 270.645721 477.333817 
L 272.431593 477.333817 
L 272.630024 477.736752 
L 274.415896 477.736752 
L 274.614326 478.116154 
L 276.400198 478.116154 
L 276.598628 478.473396 
L 278.3845 478.473396 
L 278.582931 478.809774 
L 280.368803 478.809774 
L 280.567233 479.126505 
L 282.353105 479.126505 
L 282.551535 479.424737 
L 284.337408 479.424737 
L 284.535838 479.705551 
L 286.32171 479.705551 
L 286.52014 479.969963 
L 288.306012 479.969963 
L 288.504443 480.218933 
L 290.290315 480.218933 
L 290.488745 480.453361 
L 292.274617 480.453361 
L 292.473047 480.674098 
L 294.258919 480.674098 
L 294.45735 480.881942 
L 296.243222 480.881942 
L 296.441652 481.077646 
L 298.227524 481.077646 
L 298.425954 481.261921 
L 300.211827 481.261921 
L 300.410257 481.435433 
L 302.196129 481.435433 
L 302.394559 481.598811 
L 304.180431 481.598811 
L 304.378862 481.752646 
L 306.164734 481.752646 
L 306.363164 481.897497 
L 308.149036 481.897497 
L 308.347466 482.033888 
L 310.133338 482.033888 
L 310.530199 482.162312 
L 312.117641 482.162312 
L 312.514501 482.283236 
L 314.101943 482.283236 
L 314.498804 482.397098 
L 318.070548 482.504309 
L 318.467408 482.605258 
L 322.039153 482.700312 
L 322.436013 482.789813 
L 326.007757 482.874088 
L 326.404618 482.95344 
L 329.976362 483.028157 
L 330.373223 483.098511 
L 333.944967 483.164756 
L 334.341827 483.227131 
L 337.913572 483.285864 
L 338.508862 483.341166 
L 343.866479 483.442269 
L 344.461769 483.488436 
L 349.819386 483.572839 
L 350.414677 483.61138 
L 357.756595 483.714016 
L 358.550316 483.744312 
L 367.678107 483.848804 
L 368.670258 483.871227 
L 381.568224 483.98079 
L 383.155666 483.995505 
L 403.39555 484.102772 
L 406.570434 484.117509 
L 516.500785 484.22852 
L 609.366136 484.232479 
L 871.690909 484.232727 
L 871.690909 484.232727 
" style="fill:none;stroke:#bfbbd9;stroke-linecap:square;stroke-width:1.5;"/>
   </g>
   <g id="patch_3">
    <path d="M 126 504 
L 126 69.12 
" style="fill:none;stroke:#ffffff;stroke-linecap:square;stroke-linejoin:miter;stroke-width:0.8;"/>
   </g>
   <g id="patch_4">
    <path d="M 907.2 504 
L 907.2 69.12 
" style="fill:none;stroke:#ffffff;stroke-linecap:square;stroke-linejoin:miter;stroke-width:0.8;"/>
   </g>
   <g id="patch_5">
    <path d="M 126 504 
L 907.2 504 
" style="fill:none;stroke:#ffffff;stroke-linecap:square;stroke-linejoin:miter;stroke-width:0.8;"/>
   </g>
   <g id="patch_6">
    <path d="M 126 69.12 
L 907.2 69.12 
" style="fill:none;stroke:#ffffff;stroke-linecap:square;stroke-linejoin:miter;stroke-width:0.8;"/>
   </g>
   <g id="text_15">
    <!-- instance 13 with error 0.0 -->
    <g style="fill:#ffffff;" transform="translate(439.126875 63.12)scale(0.12 -0.12)">
     <defs>
      <path d="M 2834 3397 
L 2834 2853 
Q 2591 2978 2328 3040 
Q 2066 3103 1784 3103 
Q 1356 3103 1142 2972 
Q 928 2841 928 2578 
Q 928 2378 1081 2264 
Q 1234 2150 1697 2047 
L 1894 2003 
Q 2506 1872 2764 1633 
Q 3022 1394 3022 966 
Q 3022 478 2636 193 
Q 2250 -91 1575 -91 
Q 1294 -91 989 -36 
Q 684 19 347 128 
L 347 722 
Q 666 556 975 473 
Q 1284 391 1588 391 
Q 1994 391 2212 530 
Q 2431 669 2431 922 
Q 2431 1156 2273 1281 
Q 2116 1406 1581 1522 
L 1381 1569 
Q 847 1681 609 1914 
Q 372 2147 372 2553 
Q 372 3047 722 3315 
Q 1072 3584 1716 3584 
Q 2034 3584 2315 3537 
Q 2597 3491 2834 3397 
z
" id="DejaVuSans-73" transform="scale(0.015625)"/>
      <path d="M 3122 3366 
L 3122 2828 
Q 2878 2963 2633 3030 
Q 2388 3097 2138 3097 
Q 1578 3097 1268 2742 
Q 959 2388 959 1747 
Q 959 1106 1268 751 
Q 1578 397 2138 397 
Q 2388 397 2633 464 
Q 2878 531 3122 666 
L 3122 134 
Q 2881 22 2623 -34 
Q 2366 -91 2075 -91 
Q 1284 -91 818 406 
Q 353 903 353 1747 
Q 353 2603 823 3093 
Q 1294 3584 2113 3584 
Q 2378 3584 2631 3529 
Q 2884 3475 3122 3366 
z
" id="DejaVuSans-63" transform="scale(0.015625)"/>
      <path id="DejaVuSans-20" transform="scale(0.015625)"/>
      <path d="M 269 3500 
L 844 3500 
L 1563 769 
L 2278 3500 
L 2956 3500 
L 3675 769 
L 4391 3500 
L 4966 3500 
L 4050 0 
L 3372 0 
L 2619 2869 
L 1863 0 
L 1184 0 
L 269 3500 
z
" id="DejaVuSans-77" transform="scale(0.015625)"/>
      <path d="M 3513 2113 
L 3513 0 
L 2938 0 
L 2938 2094 
Q 2938 2591 2744 2837 
Q 2550 3084 2163 3084 
Q 1697 3084 1428 2787 
Q 1159 2491 1159 1978 
L 1159 0 
L 581 0 
L 581 4863 
L 1159 4863 
L 1159 2956 
Q 1366 3272 1645 3428 
Q 1925 3584 2291 3584 
Q 2894 3584 3203 3211 
Q 3513 2838 3513 2113 
z
" id="DejaVuSans-68" transform="scale(0.015625)"/>
      <path d="M 684 794 
L 1344 794 
L 1344 0 
L 684 0 
L 684 794 
z
" id="DejaVuSans-2e" transform="scale(0.015625)"/>
     </defs>
     <use xlink:href="#DejaVuSans-69"/>
     <use x="27.783203" xlink:href="#DejaVuSans-6e"/>
     <use x="91.162109" xlink:href="#DejaVuSans-73"/>
     <use x="143.261719" xlink:href="#DejaVuSans-74"/>
     <use x="182.470703" xlink:href="#DejaVuSans-61"/>
     <use x="243.75" xlink:href="#DejaVuSans-6e"/>
     <use x="307.128906" xlink:href="#DejaVuSans-63"/>
     <use x="362.109375" xlink:href="#DejaVuSans-65"/>
     <use x="423.632812" xlink:href="#DejaVuSans-20"/>
     <use x="455.419922" xlink:href="#DejaVuSans-31"/>
     <use x="519.042969" xlink:href="#DejaVuSans-33"/>
     <use x="582.666016" xlink:href="#DejaVuSans-20"/>
     <use x="614.453125" xlink:href="#DejaVuSans-77"/>
     <use x="696.240234" xlink:href="#DejaVuSans-69"/>
     <use x="724.023438" xlink:href="#DejaVuSans-74"/>
     <use x="763.232422" xlink:href="#DejaVuSans-68"/>
     <use x="826.611328" xlink:href="#DejaVuSans-20"/>
     <use x="858.398438" xlink:href="#DejaVuSans-65"/>
     <use x="919.921875" xlink:href="#DejaVuSans-72"/>
     <use x="959.285156" xlink:href="#DejaVuSans-72"/>
     <use x="998.148438" xlink:href="#DejaVuSans-6f"/>
     <use x="1059.330078" xlink:href="#DejaVuSans-72"/>
     <use x="1100.443359" xlink:href="#DejaVuSans-20"/>
     <use x="1132.230469" xlink:href="#DejaVuSans-30"/>
     <use x="1195.853516" xlink:href="#DejaVuSans-2e"/>
     <use x="1227.640625" xlink:href="#DejaVuSans-30"/>
    </g>
   </g>
   <g id="legend_1">
    <g id="patch_7">
     <path d="M 805.348438 499 
L 900.2 499 
Q 902.2 499 902.2 497 
L 902.2 453.965625 
Q 902.2 451.965625 900.2 451.965625 
L 805.348438 451.965625 
Q 803.348438 451.965625 803.348438 453.965625 
L 803.348438 497 
Q 803.348438 499 805.348438 499 
z
" style="opacity:0.8;stroke:#cccccc;stroke-linejoin:miter;"/>
    </g>
    <g id="line2d_17">
     <path d="M 807.348438 460.064062 
L 827.348438 460.064062 
" style="fill:none;stroke:#8dd3c7;stroke-linecap:square;stroke-width:1.5;"/>
    </g>
    <g id="line2d_18"/>
    <g id="text_16">
     <!-- cost -->
     <g style="fill:#ffffff;" transform="translate(835.348438 463.564062)scale(0.1 -0.1)">
      <use xlink:href="#DejaVuSans-63"/>
      <use x="54.980469" xlink:href="#DejaVuSans-6f"/>
      <use x="116.162109" xlink:href="#DejaVuSans-73"/>
      <use x="168.261719" xlink:href="#DejaVuSans-74"/>
     </g>
    </g>
    <g id="line2d_19">
     <path d="M 807.348438 474.742188 
L 827.348438 474.742188 
" style="fill:none;stroke:#feffb3;stroke-linecap:square;stroke-width:1.5;"/>
    </g>
    <g id="line2d_20"/>
    <g id="text_17">
     <!-- best cost -->
     <g style="fill:#ffffff;" transform="translate(835.348438 478.242188)scale(0.1 -0.1)">
      <defs>
       <path d="M 3116 1747 
Q 3116 2381 2855 2742 
Q 2594 3103 2138 3103 
Q 1681 3103 1420 2742 
Q 1159 2381 1159 1747 
Q 1159 1113 1420 752 
Q 1681 391 2138 391 
Q 2594 391 2855 752 
Q 3116 1113 3116 1747 
z
M 1159 2969 
Q 1341 3281 1617 3432 
Q 1894 3584 2278 3584 
Q 2916 3584 3314 3078 
Q 3713 2572 3713 1747 
Q 3713 922 3314 415 
Q 2916 -91 2278 -91 
Q 1894 -91 1617 61 
Q 1341 213 1159 525 
L 1159 0 
L 581 0 
L 581 4863 
L 1159 4863 
L 1159 2969 
z
" id="DejaVuSans-62" transform="scale(0.015625)"/>
      </defs>
      <use xlink:href="#DejaVuSans-62"/>
      <use x="63.476562" xlink:href="#DejaVuSans-65"/>
      <use x="125" xlink:href="#DejaVuSans-73"/>
      <use x="177.099609" xlink:href="#DejaVuSans-74"/>
      <use x="216.308594" xlink:href="#DejaVuSans-20"/>
      <use x="248.095703" xlink:href="#DejaVuSans-63"/>
      <use x="303.076172" xlink:href="#DejaVuSans-6f"/>
      <use x="364.257812" xlink:href="#DejaVuSans-73"/>
      <use x="416.357422" xlink:href="#DejaVuSans-74"/>
     </g>
    </g>
    <g id="line2d_21">
     <path d="M 807.348438 489.420313 
L 827.348438 489.420313 
" style="fill:none;stroke:#bfbbd9;stroke-linecap:square;stroke-width:1.5;"/>
    </g>
    <g id="line2d_22"/>
    <g id="text_18">
     <!-- temperature -->
     <g style="fill:#ffffff;" transform="translate(835.348438 492.920313)scale(0.1 -0.1)">
      <defs>
       <path d="M 3328 2828 
Q 3544 3216 3844 3400 
Q 4144 3584 4550 3584 
Q 5097 3584 5394 3201 
Q 5691 2819 5691 2113 
L 5691 0 
L 5113 0 
L 5113 2094 
Q 5113 2597 4934 2840 
Q 4756 3084 4391 3084 
Q 3944 3084 3684 2787 
Q 3425 2491 3425 1978 
L 3425 0 
L 2847 0 
L 2847 2094 
Q 2847 2600 2669 2842 
Q 2491 3084 2119 3084 
Q 1678 3084 1418 2786 
Q 1159 2488 1159 1978 
L 1159 0 
L 581 0 
L 581 3500 
L 1159 3500 
L 1159 2956 
Q 1356 3278 1631 3431 
Q 1906 3584 2284 3584 
Q 2666 3584 2933 3390 
Q 3200 3197 3328 2828 
z
" id="DejaVuSans-6d" transform="scale(0.015625)"/>
       <path d="M 1159 525 
L 1159 -1331 
L 581 -1331 
L 581 3500 
L 1159 3500 
L 1159 2969 
Q 1341 3281 1617 3432 
Q 1894 3584 2278 3584 
Q 2916 3584 3314 3078 
Q 3713 2572 3713 1747 
Q 3713 922 3314 415 
Q 2916 -91 2278 -91 
Q 1894 -91 1617 61 
Q 1341 213 1159 525 
z
M 3116 1747 
Q 3116 2381 2855 2742 
Q 2594 3103 2138 3103 
Q 1681 3103 1420 2742 
Q 1159 2381 1159 1747 
Q 1159 1113 1420 752 
Q 1681 391 2138 391 
Q 2594 391 2855 752 
Q 3116 1113 3116 1747 
z
" id="DejaVuSans-70" transform="scale(0.015625)"/>
       <path d="M 544 1381 
L 544 3500 
L 1119 3500 
L 1119 1403 
Q 1119 906 1312 657 
Q 1506 409 1894 409 
Q 2359 409 2629 706 
Q 2900 1003 2900 1516 
L 2900 3500 
L 3475 3500 
L 3475 0 
L 2900 0 
L 2900 538 
Q 2691 219 2414 64 
Q 2138 -91 1772 -91 
Q 1169 -91 856 284 
Q 544 659 544 1381 
z
M 1991 3584 
L 1991 3584 
z
" id="DejaVuSans-75" transform="scale(0.015625)"/>
      </defs>
      <use xlink:href="#DejaVuSans-74"/>
      <use x="39.208984" xlink:href="#DejaVuSans-65"/>
      <use x="100.732422" xlink:href="#DejaVuSans-6d"/>
      <use x="198.144531" xlink:href="#DejaVuSans-70"/>
      <use x="261.621094" xlink:href="#DejaVuSans-65"/>
      <use x="323.144531" xlink:href="#DejaVuSans-72"/>
      <use x="364.257812" xlink:href="#DejaVuSans-61"/>
      <use x="425.537109" xlink:href="#DejaVuSans-74"/>
      <use x="464.746094" xlink:href="#DejaVuSans-75"/>
      <use x="528.125" xlink:href="#DejaVuSans-72"/>
      <use x="566.988281" xlink:href="#DejaVuSans-65"/>
     </g>
    </g>
   </g>
  </g>
 </g>
 <defs>
  <clipPath id="p8a107831c0">
   <rect height="434.88" width="781.2" x="126" y="69.12"/>
  </clipPath>
 </defs>
</svg>
