<?xml version="1.0" encoding="utf-8" standalone="no"?>
<!DOCTYPE svg PUBLIC "-//W3C//DTD SVG 1.1//EN"
  "http://www.w3.org/Graphics/SVG/1.1/DTD/svg11.dtd">
<svg height="576pt" version="1.1" viewBox="0 0 1008 576" width="1008pt" xmlns="http://www.w3.org/2000/svg" xmlns:xlink="http://www.w3.org/1999/xlink">
 <metadata>
  <rdf:RDF xmlns:cc="http://creativecommons.org/ns#" xmlns:dc="http://purl.org/dc/elements/1.1/" xmlns:rdf="http://www.w3.org/1999/02/22-rdf-syntax-ns#">
   <cc:Work>
    <dc:type rdf:resource="http://purl.org/dc/dcmitype/StillImage"/>
    <dc:date>2022-01-08T11:43:33.867039</dc:date>
    <dc:format>image/svg+xml</dc:format>
    <dc:creator>
     <cc:Agent>
      <dc:title>Matplotlib v3.4.3, https://matplotlib.org/</dc:title>
     </cc:Agent>
    </dc:creator>
   </cc:Work>
  </rdf:RDF>
 </metadata>
 <defs>
  <style type="text/css">*{stroke-linecap:butt;stroke-linejoin:round;}</style>
 </defs>
 <g id="figure_1">
  <g id="patch_1">
   <path d="M 0 576 
L 1008 576 
L 1008 0 
L 0 0 
z
"/>
  </g>
  <g id="axes_1">
   <g id="patch_2">
    <path d="M 126 504 
L 907.2 504 
L 907.2 69.12 
L 126 69.12 
z
"/>
   </g>
   <g id="matplotlib.axis_1">
    <g id="xtick_1">
     <g id="line2d_1">
      <defs>
       <path d="M 0 0 
L 0 3.5 
" id="me958acc91c" style="stroke:#ffffff;stroke-width:0.8;"/>
      </defs>
      <g>
       <use style="fill:#ffffff;stroke:#ffffff;stroke-width:0.8;" x="161.509091" xlink:href="#me958acc91c" y="504"/>
      </g>
     </g>
     <g id="text_1">
      <!-- 0 -->
      <g style="fill:#ffffff;" transform="translate(158.327841 518.598438)scale(0.1 -0.1)">
       <defs>
        <path d="M 2034 4250 
Q 1547 4250 1301 3770 
Q 1056 3291 1056 2328 
Q 1056 1369 1301 889 
Q 1547 409 2034 409 
Q 2525 409 2770 889 
Q 3016 1369 3016 2328 
Q 3016 3291 2770 3770 
Q 2525 4250 2034 4250 
z
M 2034 4750 
Q 2819 4750 3233 4129 
Q 3647 3509 3647 2328 
Q 3647 1150 3233 529 
Q 2819 -91 2034 -91 
Q 1250 -91 836 529 
Q 422 1150 422 2328 
Q 422 3509 836 4129 
Q 1250 4750 2034 4750 
z
" id="DejaVuSans-30" transform="scale(0.015625)"/>
       </defs>
       <use xlink:href="#DejaVuSans-30"/>
      </g>
     </g>
    </g>
    <g id="xtick_2">
     <g id="line2d_2">
      <g>
       <use style="fill:#ffffff;stroke:#ffffff;stroke-width:0.8;" x="311.399724" xlink:href="#me958acc91c" y="504"/>
      </g>
     </g>
     <g id="text_2">
      <!-- 500 -->
      <g style="fill:#ffffff;" transform="translate(301.855974 518.598438)scale(0.1 -0.1)">
       <defs>
        <path d="M 691 4666 
L 3169 4666 
L 3169 4134 
L 1269 4134 
L 1269 2991 
Q 1406 3038 1543 3061 
Q 1681 3084 1819 3084 
Q 2600 3084 3056 2656 
Q 3513 2228 3513 1497 
Q 3513 744 3044 326 
Q 2575 -91 1722 -91 
Q 1428 -91 1123 -41 
Q 819 9 494 109 
L 494 744 
Q 775 591 1075 516 
Q 1375 441 1709 441 
Q 2250 441 2565 725 
Q 2881 1009 2881 1497 
Q 2881 1984 2565 2268 
Q 2250 2553 1709 2553 
Q 1456 2553 1204 2497 
Q 953 2441 691 2322 
L 691 4666 
z
" id="DejaVuSans-35" transform="scale(0.015625)"/>
       </defs>
       <use xlink:href="#DejaVuSans-35"/>
       <use x="63.623047" xlink:href="#DejaVuSans-30"/>
       <use x="127.246094" xlink:href="#DejaVuSans-30"/>
      </g>
     </g>
    </g>
    <g id="xtick_3">
     <g id="line2d_3">
      <g>
       <use style="fill:#ffffff;stroke:#ffffff;stroke-width:0.8;" x="461.290356" xlink:href="#me958acc91c" y="504"/>
      </g>
     </g>
     <g id="text_3">
      <!-- 1000 -->
      <g style="fill:#ffffff;" transform="translate(448.565356 518.598438)scale(0.1 -0.1)">
       <defs>
        <path d="M 794 531 
L 1825 531 
L 1825 4091 
L 703 3866 
L 703 4441 
L 1819 4666 
L 2450 4666 
L 2450 531 
L 3481 531 
L 3481 0 
L 794 0 
L 794 531 
z
" id="DejaVuSans-31" transform="scale(0.015625)"/>
       </defs>
       <use xlink:href="#DejaVuSans-31"/>
       <use x="63.623047" xlink:href="#DejaVuSans-30"/>
       <use x="127.246094" xlink:href="#DejaVuSans-30"/>
       <use x="190.869141" xlink:href="#DejaVuSans-30"/>
      </g>
     </g>
    </g>
    <g id="xtick_4">
     <g id="line2d_4">
      <g>
       <use style="fill:#ffffff;stroke:#ffffff;stroke-width:0.8;" x="611.180989" xlink:href="#me958acc91c" y="504"/>
      </g>
     </g>
     <g id="text_4">
      <!-- 1500 -->
      <g style="fill:#ffffff;" transform="translate(598.455989 518.598438)scale(0.1 -0.1)">
       <use xlink:href="#DejaVuSans-31"/>
       <use x="63.623047" xlink:href="#DejaVuSans-35"/>
       <use x="127.246094" xlink:href="#DejaVuSans-30"/>
       <use x="190.869141" xlink:href="#DejaVuSans-30"/>
      </g>
     </g>
    </g>
    <g id="xtick_5">
     <g id="line2d_5">
      <g>
       <use style="fill:#ffffff;stroke:#ffffff;stroke-width:0.8;" x="761.071622" xlink:href="#me958acc91c" y="504"/>
      </g>
     </g>
     <g id="text_5">
      <!-- 2000 -->
      <g style="fill:#ffffff;" transform="translate(748.346622 518.598438)scale(0.1 -0.1)">
       <defs>
        <path d="M 1228 531 
L 3431 531 
L 3431 0 
L 469 0 
L 469 531 
Q 828 903 1448 1529 
Q 2069 2156 2228 2338 
Q 2531 2678 2651 2914 
Q 2772 3150 2772 3378 
Q 2772 3750 2511 3984 
Q 2250 4219 1831 4219 
Q 1534 4219 1204 4116 
Q 875 4013 500 3803 
L 500 4441 
Q 881 4594 1212 4672 
Q 1544 4750 1819 4750 
Q 2544 4750 2975 4387 
Q 3406 4025 3406 3419 
Q 3406 3131 3298 2873 
Q 3191 2616 2906 2266 
Q 2828 2175 2409 1742 
Q 1991 1309 1228 531 
z
" id="DejaVuSans-32" transform="scale(0.015625)"/>
       </defs>
       <use xlink:href="#DejaVuSans-32"/>
       <use x="63.623047" xlink:href="#DejaVuSans-30"/>
       <use x="127.246094" xlink:href="#DejaVuSans-30"/>
       <use x="190.869141" xlink:href="#DejaVuSans-30"/>
      </g>
     </g>
    </g>
    <g id="text_6">
     <!-- iteration -->
     <g style="fill:#ffffff;" transform="translate(495.477344 532.276562)scale(0.1 -0.1)">
      <defs>
       <path d="M 603 3500 
L 1178 3500 
L 1178 0 
L 603 0 
L 603 3500 
z
M 603 4863 
L 1178 4863 
L 1178 4134 
L 603 4134 
L 603 4863 
z
" id="DejaVuSans-69" transform="scale(0.015625)"/>
       <path d="M 1172 4494 
L 1172 3500 
L 2356 3500 
L 2356 3053 
L 1172 3053 
L 1172 1153 
Q 1172 725 1289 603 
Q 1406 481 1766 481 
L 2356 481 
L 2356 0 
L 1766 0 
Q 1100 0 847 248 
Q 594 497 594 1153 
L 594 3053 
L 172 3053 
L 172 3500 
L 594 3500 
L 594 4494 
L 1172 4494 
z
" id="DejaVuSans-74" transform="scale(0.015625)"/>
       <path d="M 3597 1894 
L 3597 1613 
L 953 1613 
Q 991 1019 1311 708 
Q 1631 397 2203 397 
Q 2534 397 2845 478 
Q 3156 559 3463 722 
L 3463 178 
Q 3153 47 2828 -22 
Q 2503 -91 2169 -91 
Q 1331 -91 842 396 
Q 353 884 353 1716 
Q 353 2575 817 3079 
Q 1281 3584 2069 3584 
Q 2775 3584 3186 3129 
Q 3597 2675 3597 1894 
z
M 3022 2063 
Q 3016 2534 2758 2815 
Q 2500 3097 2075 3097 
Q 1594 3097 1305 2825 
Q 1016 2553 972 2059 
L 3022 2063 
z
" id="DejaVuSans-65" transform="scale(0.015625)"/>
       <path d="M 2631 2963 
Q 2534 3019 2420 3045 
Q 2306 3072 2169 3072 
Q 1681 3072 1420 2755 
Q 1159 2438 1159 1844 
L 1159 0 
L 581 0 
L 581 3500 
L 1159 3500 
L 1159 2956 
Q 1341 3275 1631 3429 
Q 1922 3584 2338 3584 
Q 2397 3584 2469 3576 
Q 2541 3569 2628 3553 
L 2631 2963 
z
" id="DejaVuSans-72" transform="scale(0.015625)"/>
       <path d="M 2194 1759 
Q 1497 1759 1228 1600 
Q 959 1441 959 1056 
Q 959 750 1161 570 
Q 1363 391 1709 391 
Q 2188 391 2477 730 
Q 2766 1069 2766 1631 
L 2766 1759 
L 2194 1759 
z
M 3341 1997 
L 3341 0 
L 2766 0 
L 2766 531 
Q 2569 213 2275 61 
Q 1981 -91 1556 -91 
Q 1019 -91 701 211 
Q 384 513 384 1019 
Q 384 1609 779 1909 
Q 1175 2209 1959 2209 
L 2766 2209 
L 2766 2266 
Q 2766 2663 2505 2880 
Q 2244 3097 1772 3097 
Q 1472 3097 1187 3025 
Q 903 2953 641 2809 
L 641 3341 
Q 956 3463 1253 3523 
Q 1550 3584 1831 3584 
Q 2591 3584 2966 3190 
Q 3341 2797 3341 1997 
z
" id="DejaVuSans-61" transform="scale(0.015625)"/>
       <path d="M 1959 3097 
Q 1497 3097 1228 2736 
Q 959 2375 959 1747 
Q 959 1119 1226 758 
Q 1494 397 1959 397 
Q 2419 397 2687 759 
Q 2956 1122 2956 1747 
Q 2956 2369 2687 2733 
Q 2419 3097 1959 3097 
z
M 1959 3584 
Q 2709 3584 3137 3096 
Q 3566 2609 3566 1747 
Q 3566 888 3137 398 
Q 2709 -91 1959 -91 
Q 1206 -91 779 398 
Q 353 888 353 1747 
Q 353 2609 779 3096 
Q 1206 3584 1959 3584 
z
" id="DejaVuSans-6f" transform="scale(0.015625)"/>
       <path d="M 3513 2113 
L 3513 0 
L 2938 0 
L 2938 2094 
Q 2938 2591 2744 2837 
Q 2550 3084 2163 3084 
Q 1697 3084 1428 2787 
Q 1159 2491 1159 1978 
L 1159 0 
L 581 0 
L 581 3500 
L 1159 3500 
L 1159 2956 
Q 1366 3272 1645 3428 
Q 1925 3584 2291 3584 
Q 2894 3584 3203 3211 
Q 3513 2838 3513 2113 
z
" id="DejaVuSans-6e" transform="scale(0.015625)"/>
      </defs>
      <use xlink:href="#DejaVuSans-69"/>
      <use x="27.783203" xlink:href="#DejaVuSans-74"/>
      <use x="66.992188" xlink:href="#DejaVuSans-65"/>
      <use x="128.515625" xlink:href="#DejaVuSans-72"/>
      <use x="169.628906" xlink:href="#DejaVuSans-61"/>
      <use x="230.908203" xlink:href="#DejaVuSans-74"/>
      <use x="270.117188" xlink:href="#DejaVuSans-69"/>
      <use x="297.900391" xlink:href="#DejaVuSans-6f"/>
      <use x="359.082031" xlink:href="#DejaVuSans-6e"/>
     </g>
    </g>
   </g>
   <g id="matplotlib.axis_2">
    <g id="ytick_1">
     <g id="line2d_6">
      <defs>
       <path d="M 0 0 
L -3.5 0 
" id="ma94cf84c1e" style="stroke:#ffffff;stroke-width:0.8;"/>
      </defs>
      <g>
       <use style="fill:#ffffff;stroke:#ffffff;stroke-width:0.8;" x="126" xlink:href="#ma94cf84c1e" y="484.232727"/>
      </g>
     </g>
     <g id="text_7">
      <!-- 0 -->
      <g style="fill:#ffffff;" transform="translate(112.6375 488.031946)scale(0.1 -0.1)">
       <use xlink:href="#DejaVuSans-30"/>
      </g>
     </g>
    </g>
    <g id="ytick_2">
     <g id="line2d_7">
      <g>
       <use style="fill:#ffffff;stroke:#ffffff;stroke-width:0.8;" x="126" xlink:href="#ma94cf84c1e" y="429.732389"/>
      </g>
     </g>
     <g id="text_8">
      <!-- 1000 -->
      <g style="fill:#ffffff;" transform="translate(93.55 433.531608)scale(0.1 -0.1)">
       <use xlink:href="#DejaVuSans-31"/>
       <use x="63.623047" xlink:href="#DejaVuSans-30"/>
       <use x="127.246094" xlink:href="#DejaVuSans-30"/>
       <use x="190.869141" xlink:href="#DejaVuSans-30"/>
      </g>
     </g>
    </g>
    <g id="ytick_3">
     <g id="line2d_8">
      <g>
       <use style="fill:#ffffff;stroke:#ffffff;stroke-width:0.8;" x="126" xlink:href="#ma94cf84c1e" y="375.232051"/>
      </g>
     </g>
     <g id="text_9">
      <!-- 2000 -->
      <g style="fill:#ffffff;" transform="translate(93.55 379.031269)scale(0.1 -0.1)">
       <use xlink:href="#DejaVuSans-32"/>
       <use x="63.623047" xlink:href="#DejaVuSans-30"/>
       <use x="127.246094" xlink:href="#DejaVuSans-30"/>
       <use x="190.869141" xlink:href="#DejaVuSans-30"/>
      </g>
     </g>
    </g>
    <g id="ytick_4">
     <g id="line2d_9">
      <g>
       <use style="fill:#ffffff;stroke:#ffffff;stroke-width:0.8;" x="126" xlink:href="#ma94cf84c1e" y="320.731712"/>
      </g>
     </g>
     <g id="text_10">
      <!-- 3000 -->
      <g style="fill:#ffffff;" transform="translate(93.55 324.530931)scale(0.1 -0.1)">
       <defs>
        <path d="M 2597 2516 
Q 3050 2419 3304 2112 
Q 3559 1806 3559 1356 
Q 3559 666 3084 287 
Q 2609 -91 1734 -91 
Q 1441 -91 1130 -33 
Q 819 25 488 141 
L 488 750 
Q 750 597 1062 519 
Q 1375 441 1716 441 
Q 2309 441 2620 675 
Q 2931 909 2931 1356 
Q 2931 1769 2642 2001 
Q 2353 2234 1838 2234 
L 1294 2234 
L 1294 2753 
L 1863 2753 
Q 2328 2753 2575 2939 
Q 2822 3125 2822 3475 
Q 2822 3834 2567 4026 
Q 2313 4219 1838 4219 
Q 1578 4219 1281 4162 
Q 984 4106 628 3988 
L 628 4550 
Q 988 4650 1302 4700 
Q 1616 4750 1894 4750 
Q 2613 4750 3031 4423 
Q 3450 4097 3450 3541 
Q 3450 3153 3228 2886 
Q 3006 2619 2597 2516 
z
" id="DejaVuSans-33" transform="scale(0.015625)"/>
       </defs>
       <use xlink:href="#DejaVuSans-33"/>
       <use x="63.623047" xlink:href="#DejaVuSans-30"/>
       <use x="127.246094" xlink:href="#DejaVuSans-30"/>
       <use x="190.869141" xlink:href="#DejaVuSans-30"/>
      </g>
     </g>
    </g>
    <g id="ytick_5">
     <g id="line2d_10">
      <g>
       <use style="fill:#ffffff;stroke:#ffffff;stroke-width:0.8;" x="126" xlink:href="#ma94cf84c1e" y="266.231374"/>
      </g>
     </g>
     <g id="text_11">
      <!-- 4000 -->
      <g style="fill:#ffffff;" transform="translate(93.55 270.030593)scale(0.1 -0.1)">
       <defs>
        <path d="M 2419 4116 
L 825 1625 
L 2419 1625 
L 2419 4116 
z
M 2253 4666 
L 3047 4666 
L 3047 1625 
L 3713 1625 
L 3713 1100 
L 3047 1100 
L 3047 0 
L 2419 0 
L 2419 1100 
L 313 1100 
L 313 1709 
L 2253 4666 
z
" id="DejaVuSans-34" transform="scale(0.015625)"/>
       </defs>
       <use xlink:href="#DejaVuSans-34"/>
       <use x="63.623047" xlink:href="#DejaVuSans-30"/>
       <use x="127.246094" xlink:href="#DejaVuSans-30"/>
       <use x="190.869141" xlink:href="#DejaVuSans-30"/>
      </g>
     </g>
    </g>
    <g id="ytick_6">
     <g id="line2d_11">
      <g>
       <use style="fill:#ffffff;stroke:#ffffff;stroke-width:0.8;" x="126" xlink:href="#ma94cf84c1e" y="211.731035"/>
      </g>
     </g>
     <g id="text_12">
      <!-- 5000 -->
      <g style="fill:#ffffff;" transform="translate(93.55 215.530254)scale(0.1 -0.1)">
       <use xlink:href="#DejaVuSans-35"/>
       <use x="63.623047" xlink:href="#DejaVuSans-30"/>
       <use x="127.246094" xlink:href="#DejaVuSans-30"/>
       <use x="190.869141" xlink:href="#DejaVuSans-30"/>
      </g>
     </g>
    </g>
    <g id="ytick_7">
     <g id="line2d_12">
      <g>
       <use style="fill:#ffffff;stroke:#ffffff;stroke-width:0.8;" x="126" xlink:href="#ma94cf84c1e" y="157.230697"/>
      </g>
     </g>
     <g id="text_13">
      <!-- 6000 -->
      <g style="fill:#ffffff;" transform="translate(93.55 161.029916)scale(0.1 -0.1)">
       <defs>
        <path d="M 2113 2584 
Q 1688 2584 1439 2293 
Q 1191 2003 1191 1497 
Q 1191 994 1439 701 
Q 1688 409 2113 409 
Q 2538 409 2786 701 
Q 3034 994 3034 1497 
Q 3034 2003 2786 2293 
Q 2538 2584 2113 2584 
z
M 3366 4563 
L 3366 3988 
Q 3128 4100 2886 4159 
Q 2644 4219 2406 4219 
Q 1781 4219 1451 3797 
Q 1122 3375 1075 2522 
Q 1259 2794 1537 2939 
Q 1816 3084 2150 3084 
Q 2853 3084 3261 2657 
Q 3669 2231 3669 1497 
Q 3669 778 3244 343 
Q 2819 -91 2113 -91 
Q 1303 -91 875 529 
Q 447 1150 447 2328 
Q 447 3434 972 4092 
Q 1497 4750 2381 4750 
Q 2619 4750 2861 4703 
Q 3103 4656 3366 4563 
z
" id="DejaVuSans-36" transform="scale(0.015625)"/>
       </defs>
       <use xlink:href="#DejaVuSans-36"/>
       <use x="63.623047" xlink:href="#DejaVuSans-30"/>
       <use x="127.246094" xlink:href="#DejaVuSans-30"/>
       <use x="190.869141" xlink:href="#DejaVuSans-30"/>
      </g>
     </g>
    </g>
    <g id="ytick_8">
     <g id="line2d_13">
      <g>
       <use style="fill:#ffffff;stroke:#ffffff;stroke-width:0.8;" x="126" xlink:href="#ma94cf84c1e" y="102.730359"/>
      </g>
     </g>
     <g id="text_14">
      <!-- 7000 -->
      <g style="fill:#ffffff;" transform="translate(93.55 106.529577)scale(0.1 -0.1)">
       <defs>
        <path d="M 525 4666 
L 3525 4666 
L 3525 4397 
L 1831 0 
L 1172 0 
L 2766 4134 
L 525 4134 
L 525 4666 
z
" id="DejaVuSans-37" transform="scale(0.015625)"/>
       </defs>
       <use xlink:href="#DejaVuSans-37"/>
       <use x="63.623047" xlink:href="#DejaVuSans-30"/>
       <use x="127.246094" xlink:href="#DejaVuSans-30"/>
       <use x="190.869141" xlink:href="#DejaVuSans-30"/>
      </g>
     </g>
    </g>
   </g>
   <g id="line2d_14">
    <path clip-path="url(#pb6d21e33c3)" d="M 161.509091 349.071888 
L 161.808872 234.784679 
L 162.108653 484.232727 
L 162.708216 484.232727 
L 163.007997 465.157609 
L 163.307779 404.335231 
L 163.60756 423.41035 
L 163.907341 297.569068 
L 164.207122 278.49395 
L 164.506904 297.569068 
L 165.706029 297.569068 
L 166.00581 484.232727 
L 166.305591 439.487949 
L 166.605372 482.161714 
L 166.905154 409.131261 
L 167.204935 409.131261 
L 167.504716 484.232727 
L 168.703841 484.232727 
L 169.003623 396.868685 
L 169.303404 358.391446 
L 169.603185 358.391446 
L 169.902966 396.868685 
L 170.502529 396.868685 
L 170.80231 409.131261 
L 171.102091 472.842157 
L 171.401873 470.771144 
L 171.701654 482.161714 
L 172.001435 482.161714 
L 172.301216 484.232727 
L 172.600998 358.391446 
L 172.900779 356.320433 
L 173.20056 421.339337 
L 173.500342 373.815042 
L 173.800123 434.637419 
L 174.399685 434.637419 
L 174.699467 407.823253 
L 174.999248 347.000875 
L 175.299029 407.823253 
L 175.59881 407.823253 
L 175.898592 484.232727 
L 176.198373 366.293995 
L 176.498154 439.487949 
L 176.797935 439.487949 
L 177.097717 369.945518 
L 177.397498 484.232727 
L 177.697279 439.487949 
L 177.997061 461.451586 
L 178.296842 334.411297 
L 178.596623 396.868685 
L 178.896404 407.823253 
L 179.196186 407.823253 
L 179.495967 484.232727 
L 179.795748 434.637419 
L 180.095529 484.232727 
L 180.395311 369.945518 
L 180.695092 484.232727 
L 180.994873 484.232727 
L 181.294654 439.487949 
L 181.594436 439.487949 
L 181.894217 484.232727 
L 182.193998 484.232727 
L 182.49378 439.487949 
L 183.093342 439.487949 
L 183.393123 484.232727 
L 183.692905 434.637419 
L 184.592248 231.950661 
L 184.89203 231.950661 
L 185.191811 224.048112 
L 185.491592 349.889393 
L 185.791373 217.944074 
L 186.091155 421.339337 
L 186.390936 373.815042 
L 186.690717 421.339337 
L 186.990498 421.339337 
L 187.29028 439.487949 
L 187.889842 439.487949 
L 188.189624 378.665572 
L 188.489405 439.487949 
L 188.789186 420.412831 
L 189.088967 409.131261 
L 189.388749 484.232727 
L 189.68853 484.232727 
L 189.988311 409.131261 
L 190.288092 456.928058 
L 190.587874 437.852939 
L 191.187436 437.852939 
L 191.786999 465.157609 
L 192.08678 420.412831 
L 192.386561 484.232727 
L 192.686343 484.232727 
L 192.986124 472.188152 
L 193.285905 472.188152 
L 193.585686 396.868685 
L 193.885468 484.232727 
L 194.185249 358.391446 
L 194.48503 484.232727 
L 194.784811 484.232727 
L 195.084593 456.928058 
L 195.384374 484.232727 
L 195.684155 409.131261 
L 196.283718 409.131261 
L 196.583499 484.232727 
L 196.88328 484.232727 
L 197.183062 409.131261 
L 197.482843 423.41035 
L 197.782624 423.41035 
L 198.082405 411.365775 
L 198.382187 484.232727 
L 198.681968 439.487949 
L 198.981749 439.487949 
L 199.28153 484.232727 
L 199.581312 396.868685 
L 199.881093 366.293995 
L 200.180874 456.928058 
L 200.480655 321.767219 
L 200.780437 456.928058 
L 201.379999 484.232727 
L 201.67978 396.868685 
L 202.878906 396.868685 
L 203.178687 484.232727 
L 203.478468 407.823253 
L 203.778249 396.868685 
L 204.078031 355.502928 
L 204.977374 355.502928 
L 205.277156 396.868685 
L 205.576937 484.232727 
L 205.876718 484.232727 
L 206.176499 410.711771 
L 206.776062 323.347728 
L 207.075843 410.711771 
L 207.375625 284.87049 
L 207.675406 484.232727 
L 207.975187 482.161714 
L 208.57475 482.161714 
L 208.874531 484.232727 
L 209.174312 352.287408 
L 209.474093 352.287408 
L 209.773875 434.637419 
L 210.073656 484.232727 
L 210.373437 484.232727 
L 210.673218 482.161714 
L 210.973 482.161714 
L 211.272781 407.823253 
L 211.572562 484.232727 
L 211.872344 434.637419 
L 212.172125 472.188152 
L 212.471906 472.188152 
L 212.771687 484.232727 
L 214.570375 484.232727 
L 214.870156 396.868685 
L 215.169937 484.232727 
L 215.469719 439.487949 
L 215.7695 484.232727 
L 216.069281 461.451586 
L 216.369063 484.232727 
L 217.268406 484.232727 
L 217.568188 439.487949 
L 218.16775 439.487949 
L 218.467531 482.161714 
L 218.767313 352.287408 
L 219.666656 352.287408 
L 219.966438 472.188152 
L 220.266219 472.188152 
L 220.566 346.346871 
L 220.865781 346.346871 
L 221.165563 484.232727 
L 221.465344 461.451586 
L 222.064907 461.451586 
L 222.364688 407.823253 
L 222.664469 484.232727 
L 222.96425 439.487949 
L 223.264032 439.487949 
L 223.563813 484.232727 
L 223.863594 484.232727 
L 224.163375 482.161714 
L 224.463157 482.161714 
L 224.762938 484.232727 
L 225.062719 484.232727 
L 225.3625 482.161714 
L 225.662282 482.161714 
L 225.962063 407.823253 
L 226.261844 484.232727 
L 226.861407 323.347728 
L 227.161188 366.293995 
L 228.060532 366.293995 
L 228.360313 484.232727 
L 228.660094 409.131261 
L 228.959876 484.232727 
L 229.559438 484.232727 
L 229.859219 369.945518 
L 230.159001 350.870399 
L 230.458782 465.157609 
L 231.058345 409.131261 
L 231.358126 409.131261 
L 231.657907 335.610305 
L 231.957688 409.131261 
L 232.557251 409.131261 
L 232.857032 461.451586 
L 233.156813 347.164376 
L 233.756376 347.164376 
L 234.056157 369.945518 
L 234.355938 484.232727 
L 234.65572 358.391446 
L 234.955501 434.637419 
L 235.854845 434.637419 
L 236.154626 484.232727 
L 236.454407 358.391446 
L 236.754189 357.192439 
L 237.05397 409.131261 
L 237.353751 409.131261 
L 237.653532 484.232727 
L 237.953314 482.161714 
L 238.253095 484.232727 
L 238.552876 484.232727 
L 238.852657 352.287408 
L 239.152439 352.287408 
L 239.45222 484.232727 
L 239.752001 369.945518 
L 240.351564 369.945518 
L 240.651345 409.131261 
L 240.951126 409.131261 
L 241.250908 484.232727 
L 241.550689 484.232727 
L 241.85047 461.451586 
L 242.450033 461.451586 
L 242.749814 420.085829 
L 243.049595 442.86697 
L 243.349376 442.86697 
L 243.649158 484.232727 
L 244.24872 398.122193 
L 244.548501 304.32711 
L 244.848283 439.487949 
L 245.148064 439.487949 
L 245.447845 365.966993 
L 245.747627 324.601236 
L 246.047408 409.131261 
L 247.546314 409.131261 
L 247.846095 367.765504 
L 248.145877 442.86697 
L 248.445658 484.232727 
L 248.745439 352.287408 
L 249.04522 409.131261 
L 249.345002 352.287408 
L 249.944564 352.287408 
L 250.244346 484.232727 
L 250.843908 222.031599 
L 251.143689 484.232727 
L 251.443471 410.711771 
L 251.743252 410.711771 
L 252.043033 398.667196 
L 252.342814 398.667196 
L 252.642596 472.188152 
L 253.242158 472.188152 
L 253.541939 409.131261 
L 254.141502 409.131261 
L 254.441283 484.232727 
L 255.94019 484.232727 
L 256.239971 456.928058 
L 256.539752 456.928058 
L 256.839533 434.146916 
L 257.139315 352.287408 
L 258.038658 352.287408 
L 258.33844 484.232727 
L 258.638221 357.192439 
L 258.938002 439.487949 
L 259.237783 409.131261 
L 259.537565 409.131261 
L 259.837346 484.232727 
L 260.137127 472.842157 
L 260.436909 450.061015 
L 260.73669 347.164376 
L 261.036471 350.870399 
L 261.336252 350.870399 
L 261.636034 277.349443 
L 261.935815 277.349443 
L 262.235596 365.966993 
L 262.535377 365.966993 
L 262.835159 484.232727 
L 263.13494 300.294085 
L 264.034284 484.232727 
L 264.334065 484.232727 
L 264.633846 472.842157 
L 265.53319 472.842157 
L 265.832971 347.000875 
L 266.132753 484.232727 
L 266.732315 461.451586 
L 267.032096 347.164376 
L 267.331878 369.945518 
L 267.631659 484.232727 
L 267.93144 410.711771 
L 268.231221 410.711771 
L 268.531003 408.640758 
L 268.830784 409.131261 
L 269.130565 484.232727 
L 269.430347 442.86697 
L 269.730128 484.232727 
L 270.32969 484.232727 
L 270.629472 407.823253 
L 271.229034 407.823253 
L 271.528815 484.232727 
L 271.828597 484.232727 
L 272.128378 407.823253 
L 272.428159 407.823253 
L 272.72794 423.41035 
L 273.027722 484.232727 
L 273.627284 484.232727 
L 273.927066 456.928058 
L 274.226847 409.131261 
L 274.526628 409.131261 
L 274.826409 461.451586 
L 275.126191 484.232727 
L 275.425972 484.232727 
L 275.725753 472.842157 
L 276.025534 358.554947 
L 276.625097 358.554947 
L 276.924878 350.870399 
L 277.224659 350.870399 
L 277.524441 465.157609 
L 277.824222 484.232727 
L 278.423784 244.104236 
L 278.723566 472.188152 
L 279.023347 472.188152 
L 279.323128 346.346871 
L 279.62291 484.232727 
L 280.222472 484.232727 
L 280.522253 349.071888 
L 280.822035 349.071888 
L 281.121816 484.232727 
L 281.421597 484.232727 
L 281.721378 482.161714 
L 282.02116 463.086596 
L 282.320941 463.086596 
L 282.620722 329.99677 
L 282.920503 329.99677 
L 283.220285 349.071888 
L 283.520066 349.071888 
L 283.819847 484.232727 
L 284.119629 484.232727 
L 284.41941 410.711771 
L 284.719191 399.3212 
L 285.018972 335.610305 
L 285.318754 409.131261 
L 285.618535 367.765504 
L 285.918316 484.232727 
L 286.218097 465.157609 
L 286.517879 463.086596 
L 286.81766 484.232727 
L 287.117441 484.232727 
L 287.417222 442.86697 
L 287.717004 484.232727 
L 288.016785 484.232727 
L 288.316566 472.842157 
L 288.616348 399.3212 
L 288.916129 484.232727 
L 289.21591 465.157609 
L 289.515691 465.157609 
L 289.815473 407.823253 
L 290.115254 434.637419 
L 290.415035 484.232727 
L 290.714816 352.287408 
L 291.014598 484.232727 
L 291.314379 349.071888 
L 291.61416 321.767219 
L 291.913941 434.637419 
L 292.513504 434.637419 
L 292.813285 484.232727 
L 293.113067 482.161714 
L 293.412848 472.188152 
L 293.712629 484.232727 
L 294.611973 484.232727 
L 294.911754 366.293995 
L 295.211535 292.773039 
L 295.511317 292.773039 
L 295.811098 391.636652 
L 296.110879 391.636652 
L 296.41066 389.56564 
L 296.710442 334.302296 
L 297.010223 407.823253 
L 297.909567 407.823253 
L 298.209348 347.000875 
L 299.108692 347.000875 
L 299.408473 348.308883 
L 300.307817 348.308883 
L 300.607598 423.41035 
L 300.907379 423.41035 
L 301.207161 484.232727 
L 301.506942 484.232727 
L 301.806723 434.637419 
L 302.106504 415.562301 
L 302.706067 415.562301 
L 303.005848 434.637419 
L 303.30563 482.161714 
L 303.605411 484.232727 
L 303.905192 484.232727 
L 304.204973 410.711771 
L 304.504755 284.87049 
L 304.804536 410.711771 
L 305.104317 484.232727 
L 305.404098 482.161714 
L 305.70388 409.131261 
L 306.003661 461.451586 
L 306.303442 484.232727 
L 306.603223 409.131261 
L 306.903005 472.842157 
L 307.202786 434.637419 
L 307.502567 434.637419 
L 307.802349 472.842157 
L 308.10213 450.061015 
L 308.401911 461.451586 
L 308.701692 484.232727 
L 309.001474 461.451586 
L 309.301255 409.131261 
L 309.601036 484.232727 
L 310.200599 484.232727 
L 310.50038 482.161714 
L 310.800161 357.192439 
L 311.099942 307.706131 
L 311.399724 484.232727 
L 311.699505 484.232727 
L 311.999286 456.928058 
L 312.299068 456.928058 
L 312.598849 484.232727 
L 312.89863 349.071888 
L 313.198411 484.232727 
L 313.498193 461.451586 
L 313.797974 484.232727 
L 314.097755 472.842157 
L 314.397536 472.842157 
L 314.697318 484.232727 
L 314.997099 472.842157 
L 315.896443 288.24951 
L 316.196224 349.071888 
L 316.496005 307.706131 
L 316.795786 442.86697 
L 317.095568 440.795958 
L 317.395349 484.232727 
L 317.994912 378.665572 
L 318.294693 423.41035 
L 318.594474 400.629208 
L 318.894255 396.10568 
L 319.194037 484.232727 
L 319.493818 472.188152 
L 319.793599 407.823253 
L 320.09338 484.232727 
L 320.393162 407.823253 
L 320.992724 407.823253 
L 321.292505 272.662414 
L 321.592287 349.071888 
L 321.892068 272.662414 
L 322.191849 272.662414 
L 322.491631 484.232727 
L 322.791412 358.391446 
L 323.091193 358.391446 
L 323.390974 317.025689 
L 323.690756 484.232727 
L 324.590099 484.232727 
L 325.189662 273.64342 
L 325.489443 273.64342 
L 325.789224 283.671482 
L 326.089006 357.192439 
L 326.388787 396.868685 
L 326.688568 366.293995 
L 326.98835 357.192439 
L 327.587912 357.192439 
L 327.887693 484.232727 
L 328.187475 434.637419 
L 328.487256 299.47658 
L 328.787037 349.071888 
L 329.086818 352.287408 
L 329.3866 358.391446 
L 330.285943 358.391446 
L 330.585725 484.232727 
L 331.185287 484.232727 
L 331.485068 442.86697 
L 331.78485 369.346014 
L 332.084631 442.86697 
L 332.384412 315.826682 
L 332.684194 396.868685 
L 333.583537 396.868685 
L 333.883319 484.232727 
L 334.1831 472.842157 
L 334.782662 472.842157 
L 335.082444 409.131261 
L 335.382225 484.232727 
L 335.682006 357.192439 
L 336.281569 222.849104 
L 336.58135 222.849104 
L 336.881131 296.370061 
L 337.180913 409.131261 
L 337.480694 409.131261 
L 337.780475 472.842157 
L 338.080256 409.131261 
L 338.380038 484.232727 
L 338.679819 396.868685 
L 338.9796 461.451586 
L 339.279381 461.451586 
L 339.579163 334.411297 
L 339.878944 334.411297 
L 340.178725 461.451586 
L 340.478506 484.232727 
L 340.778288 482.161714 
L 341.078069 484.232727 
L 341.977413 484.232727 
L 342.277194 423.41035 
L 342.576975 412.019779 
L 342.876757 445.537487 
L 343.176538 445.537487 
L 343.476319 472.842157 
L 344.075882 292.773039 
L 344.375663 292.773039 
L 344.675444 484.232727 
L 344.975225 352.287408 
L 345.275007 484.232727 
L 345.574788 366.293995 
L 346.174351 366.293995 
L 346.474132 484.232727 
L 346.773913 465.157609 
L 347.073694 391.636652 
L 347.373476 465.157609 
L 347.973038 465.157609 
L 348.272819 453.113034 
L 348.872382 484.232727 
L 349.172163 472.842157 
L 349.771726 472.842157 
L 350.071507 431.4764 
L 350.371288 355.502928 
L 350.671069 484.232727 
L 350.970851 369.945518 
L 351.270632 369.945518 
L 351.570413 350.870399 
L 351.870195 484.232727 
L 352.469757 334.302296 
L 352.769538 484.232727 
L 353.369101 484.232727 
L 353.668882 407.823253 
L 353.968663 407.823253 
L 354.268445 484.232727 
L 354.568226 396.868685 
L 354.868007 396.868685 
L 355.167788 366.293995 
L 355.46757 484.232727 
L 355.767351 410.711771 
L 356.067132 387.930629 
L 356.366914 484.232727 
L 356.666695 484.232727 
L 356.966476 442.86697 
L 357.266257 431.4764 
L 357.566039 315.826682 
L 357.86582 357.192439 
L 358.165601 484.232727 
L 358.765164 484.232727 
L 359.064945 407.823253 
L 359.664507 407.823253 
L 359.964289 272.662414 
L 360.26407 272.662414 
L 360.563851 349.071888 
L 360.863633 337.681317 
L 361.163414 337.681317 
L 361.463195 445.537487 
L 361.762976 484.232727 
L 362.062758 409.131261 
L 362.362539 366.293995 
L 362.66232 484.232727 
L 362.962101 472.842157 
L 363.261883 472.842157 
L 363.561664 484.232727 
L 363.861445 484.232727 
L 364.161226 472.842157 
L 364.461008 409.131261 
L 365.660133 409.131261 
L 365.959914 335.610305 
L 366.259695 484.232727 
L 366.559477 358.391446 
L 367.159039 358.391446 
L 367.45882 407.823253 
L 368.358164 407.823253 
L 368.657945 439.487949 
L 368.957727 304.32711 
L 369.257508 349.071888 
L 369.557289 299.47658 
L 369.85707 484.232727 
L 370.156852 482.161714 
L 370.456633 396.868685 
L 370.756414 396.868685 
L 371.056196 461.451586 
L 371.355977 484.232727 
L 371.655758 484.232727 
L 371.955539 434.637419 
L 372.555102 434.637419 
L 372.854883 484.232727 
L 373.454446 484.232727 
L 373.754227 465.157609 
L 374.054008 409.131261 
L 374.653571 409.131261 
L 374.953352 484.232727 
L 375.253133 349.071888 
L 375.552915 349.071888 
L 375.852696 409.131261 
L 376.152477 409.131261 
L 376.452258 366.293995 
L 376.75204 369.945518 
L 377.051821 484.232727 
L 377.351602 439.487949 
L 377.651383 439.487949 
L 377.951165 396.868685 
L 378.250946 484.232727 
L 378.550727 484.232727 
L 378.850508 461.451586 
L 379.15029 396.868685 
L 379.450071 484.232727 
L 379.749852 434.637419 
L 380.649196 434.637419 
L 380.948977 409.131261 
L 381.248759 409.131261 
L 381.54854 442.86697 
L 382.148102 401.010711 
L 382.447884 461.451586 
L 382.747665 484.232727 
L 383.047446 484.232727 
L 383.347227 409.131261 
L 383.647009 409.131261 
L 383.94679 484.232727 
L 384.246571 434.637419 
L 384.546353 434.637419 
L 384.846134 484.232727 
L 385.145915 484.232727 
L 385.445696 434.637419 
L 385.745478 484.232727 
L 386.045259 352.287408 
L 386.34504 352.287408 
L 386.644821 484.232727 
L 386.944603 484.232727 
L 387.244384 407.823253 
L 387.843946 407.823253 
L 388.143728 439.487949 
L 388.443509 484.232727 
L 388.74329 461.451586 
L 389.043071 484.232727 
L 389.342853 396.868685 
L 389.942415 484.232727 
L 390.242197 358.391446 
L 390.541978 356.320433 
L 390.841759 358.391446 
L 391.14154 331.086776 
L 391.441322 257.56582 
L 391.741103 272.825915 
L 392.040884 262.089348 
L 392.340665 273.479919 
L 392.640447 358.391446 
L 393.240009 358.391446 
L 393.839572 465.157609 
L 394.139353 404.335231 
L 394.439134 404.335231 
L 394.738916 423.41035 
L 395.038697 484.232727 
L 395.338478 484.232727 
L 395.638259 456.928058 
L 395.938041 456.928058 
L 396.237822 383.407101 
L 396.537603 383.407101 
L 396.837384 322.584724 
L 397.137166 383.407101 
L 397.436947 383.407101 
L 397.736728 364.331983 
L 398.336291 364.331983 
L 398.636072 347.218877 
L 398.935853 465.157609 
L 399.235635 484.232727 
L 399.535416 358.391446 
L 399.835197 484.232727 
L 400.134978 484.232727 
L 400.43476 409.131261 
L 401.334103 409.131261 
L 401.633885 357.192439 
L 402.233447 357.192439 
L 402.533228 484.232727 
L 402.83301 484.232727 
L 403.132791 352.287408 
L 403.432572 352.287408 
L 403.732354 357.192439 
L 404.032135 283.671482 
L 404.331916 283.671482 
L 404.631697 335.610305 
L 404.931479 335.610305 
L 405.23126 484.232727 
L 405.531041 442.86697 
L 405.830822 442.86697 
L 406.130604 484.232727 
L 406.430385 484.232727 
L 406.730166 349.071888 
L 407.029947 347.000875 
L 407.62951 465.157609 
L 407.929291 352.287408 
L 408.229072 352.287408 
L 408.528854 278.766452 
L 408.828635 278.766452 
L 409.128416 284.87049 
L 409.428198 283.671482 
L 409.727979 283.671482 
L 410.02776 484.232727 
L 410.927104 484.232727 
L 411.226885 465.157609 
L 411.526666 339.316328 
L 411.826448 347.000875 
L 412.126229 472.842157 
L 412.42601 484.232727 
L 412.725791 484.232727 
L 413.025573 407.823253 
L 414.224698 407.823253 
L 414.524479 484.232727 
L 415.124042 484.232727 
L 415.423823 434.637419 
L 415.723604 484.232727 
L 416.023385 472.842157 
L 416.323167 453.767038 
L 416.622948 366.293995 
L 416.922729 231.133156 
L 417.522292 456.928058 
L 417.822073 456.928058 
L 418.121854 396.10568 
L 418.421636 484.232727 
L 418.721417 366.293995 
L 419.021198 484.232727 
L 419.620761 484.232727 
L 419.920542 461.451586 
L 420.220323 461.451586 
L 420.520104 366.293995 
L 420.819886 366.293995 
L 421.119667 484.232727 
L 421.419448 461.451586 
L 421.719229 461.451586 
L 422.019011 484.232727 
L 422.918355 484.232727 
L 423.218136 465.157609 
L 423.517917 484.232727 
L 423.817698 439.487949 
L 425.016823 439.487949 
L 425.316605 420.412831 
L 425.616386 329.99677 
L 426.215948 329.99677 
L 426.51573 349.071888 
L 426.815511 326.290747 
L 427.115292 366.293995 
L 427.714855 366.293995 
L 428.014636 292.773039 
L 428.314417 484.232727 
L 428.614199 482.161714 
L 428.91398 408.640758 
L 429.213761 482.161714 
L 429.513542 356.320433 
L 429.813324 358.391446 
L 430.113105 484.232727 
L 430.412886 484.232727 
L 430.712667 409.131261 
L 431.31223 409.131261 
L 431.612011 461.451586 
L 432.211574 461.451586 
L 432.511355 449.407011 
L 432.811136 459.380573 
L 433.110918 356.320433 
L 433.410699 470.771144 
L 433.71048 470.771144 
L 434.010261 399.3212 
L 434.609824 399.3212 
L 434.909605 372.016531 
L 435.209386 372.016531 
L 435.509168 445.537487 
L 435.808949 352.287408 
L 436.10873 358.391446 
L 436.408511 317.025689 
L 436.708293 317.025689 
L 437.008074 358.391446 
L 437.307855 347.000875 
L 438.50698 347.000875 
L 438.806762 484.232727 
L 439.106543 409.131261 
L 439.406324 484.232727 
L 439.706105 369.945518 
L 440.005887 484.232727 
L 440.305668 434.637419 
L 440.90523 434.637419 
L 441.205012 407.823253 
L 441.504793 334.302296 
L 442.104356 243.504733 
L 442.404137 358.391446 
L 442.703918 244.104236 
L 443.603262 244.104236 
L 443.903043 358.391446 
L 444.502606 358.391446 
L 444.802387 335.610305 
L 445.102168 396.868685 
L 445.401949 323.347728 
L 445.701731 410.711771 
L 446.001512 410.711771 
L 446.301293 361.116463 
L 446.900856 361.116463 
L 447.200637 408.640758 
L 447.500418 482.161714 
L 448.699543 482.161714 
L 448.999325 439.487949 
L 449.299106 378.665572 
L 449.598887 378.665572 
L 449.898668 396.10568 
L 450.19845 396.10568 
L 450.498231 456.928058 
L 450.798012 415.562301 
L 451.097793 398.122193 
L 451.397575 472.188152 
L 451.697356 484.232727 
L 451.997137 410.711771 
L 452.296919 292.773039 
L 452.5967 410.711771 
L 452.896481 283.671482 
L 453.196262 242.305725 
L 453.496044 323.347728 
L 453.795825 335.610305 
L 454.095606 284.87049 
L 454.695169 284.87049 
L 454.99495 484.232727 
L 455.294731 369.945518 
L 455.594512 484.232727 
L 455.894294 407.823253 
L 456.194075 407.823253 
L 456.493856 484.232727 
L 456.793638 484.232727 
L 457.093419 410.711771 
L 457.3932 278.766452 
L 457.992763 407.823253 
L 458.292544 407.823253 
L 458.592325 484.232727 
L 458.892106 472.188152 
L 459.191888 484.232727 
L 459.491669 484.232727 
L 459.79145 461.451586 
L 460.091231 409.131261 
L 460.990575 409.131261 
L 461.290356 456.928058 
L 461.590138 456.928058 
L 461.889919 366.293995 
L 462.1897 369.945518 
L 462.489482 369.945518 
L 462.789263 407.823253 
L 463.388825 310.921651 
L 463.688607 484.232727 
L 463.988388 472.188152 
L 464.288169 409.131261 
L 464.58795 407.823253 
L 464.887732 407.823253 
L 465.187513 347.000875 
L 465.787075 484.232727 
L 466.086857 366.293995 
L 466.386638 409.131261 
L 466.686419 409.131261 
L 466.986201 366.293995 
L 467.285982 456.928058 
L 467.585763 456.928058 
L 467.885544 369.945518 
L 468.185326 484.232727 
L 468.485107 484.232727 
L 468.784888 423.41035 
L 469.084669 423.41035 
L 469.384451 305.471617 
L 470.283794 305.471617 
L 470.883357 409.131261 
L 471.48292 409.131261 
L 471.782701 335.610305 
L 472.082482 335.610305 
L 472.382263 472.842157 
L 473.281607 472.842157 
L 473.581388 453.767038 
L 473.88117 453.767038 
L 474.180951 484.232727 
L 474.480732 409.131261 
L 474.780513 484.232727 
L 475.080295 484.232727 
L 475.380076 410.711771 
L 475.679857 410.711771 
L 475.979639 365.966993 
L 476.27942 365.966993 
L 476.579201 410.711771 
L 476.878982 278.766452 
L 477.178764 484.232727 
L 477.478545 352.287408 
L 478.078107 352.287408 
L 478.377889 484.232727 
L 478.67767 484.232727 
L 478.977451 352.287408 
L 479.577014 352.287408 
L 479.876795 472.188152 
L 480.476357 472.188152 
L 480.776139 346.346871 
L 481.07592 346.346871 
L 481.375701 409.131261 
L 482.275045 409.131261 
L 482.574826 407.823253 
L 483.174389 407.823253 
L 483.47417 409.131261 
L 483.773951 409.131261 
L 484.073733 484.232727 
L 484.973076 484.232727 
L 485.272858 396.868685 
L 485.572639 472.188152 
L 485.87242 430.822396 
L 486.172202 472.188152 
L 486.471983 409.131261 
L 486.771764 472.188152 
L 487.071545 472.188152 
L 487.371327 352.287408 
L 487.671108 352.287408 
L 487.970889 358.391446 
L 488.570452 358.391446 
L 488.870233 396.868685 
L 489.170014 369.945518 
L 489.469795 484.232727 
L 490.968702 484.232727 
L 491.268483 366.293995 
L 491.868046 352.287408 
L 492.167827 484.232727 
L 492.467608 439.487949 
L 493.666733 439.487949 
L 493.966514 396.868685 
L 494.266296 396.868685 
L 494.566077 484.232727 
L 495.765202 484.232727 
L 496.064983 409.131261 
L 496.364765 409.131261 
L 496.664546 484.232727 
L 496.964327 461.451586 
L 497.264108 484.232727 
L 497.863671 484.232727 
L 498.163452 465.157609 
L 498.463233 347.218877 
L 498.763015 409.131261 
L 499.662358 409.131261 
L 499.96214 465.157609 
L 500.261921 453.767038 
L 500.561702 357.192439 
L 500.861484 357.192439 
L 501.161265 296.370061 
L 501.461046 423.41035 
L 501.760827 296.370061 
L 502.060609 482.161714 
L 502.36039 482.161714 
L 502.660171 408.640758 
L 502.959952 408.640758 
L 503.259734 410.711771 
L 503.559515 292.773039 
L 503.859296 292.773039 
L 504.159077 366.293995 
L 504.458859 366.293995 
L 504.75864 231.133156 
L 505.358203 484.232727 
L 506.257546 484.232727 
L 506.557328 472.188152 
L 506.857109 472.188152 
L 507.15689 484.232727 
L 507.456671 482.161714 
L 507.756453 439.487949 
L 508.056234 484.232727 
L 509.255359 484.232727 
L 509.55514 407.823253 
L 509.854922 407.823253 
L 510.154703 484.232727 
L 510.454484 465.157609 
L 510.754265 423.791852 
L 511.054047 465.157609 
L 511.653609 244.104236 
L 512.552953 244.104236 
L 512.852734 223.230607 
L 513.152515 482.161714 
L 513.452297 484.232727 
L 513.752078 434.637419 
L 514.351641 484.232727 
L 514.651422 482.161714 
L 515.250984 296.424561 
L 515.550766 369.945518 
L 516.450109 369.945518 
L 516.749891 409.131261 
L 517.049672 407.823253 
L 517.349453 272.662414 
L 517.649234 321.767219 
L 517.949016 484.232727 
L 518.548578 484.232727 
L 518.848359 439.487949 
L 519.148141 484.232727 
L 519.447922 465.157609 
L 520.347266 465.157609 
L 520.647047 463.086596 
L 520.946828 463.086596 
L 521.24661 484.232727 
L 521.546391 352.287408 
L 523.345078 352.287408 
L 523.64486 484.232727 
L 523.944641 352.287408 
L 524.244422 352.287408 
L 524.544204 484.232727 
L 524.843985 484.232727 
L 525.143766 472.188152 
L 525.443547 472.188152 
L 525.743329 484.232727 
L 526.04311 484.232727 
L 526.342891 396.868685 
L 527.542016 396.868685 
L 527.841797 323.347728 
L 528.44136 323.347728 
L 528.741141 369.945518 
L 529.040923 369.945518 
L 529.340704 352.287408 
L 529.640485 352.287408 
L 529.940266 484.232727 
L 530.240048 484.232727 
L 530.539829 366.293995 
L 531.439173 366.293995 
L 532.038735 434.637419 
L 532.938079 434.637419 
L 533.23786 407.823253 
L 533.837423 407.823253 
L 534.137204 484.232727 
L 534.436985 484.232727 
L 534.736767 410.711771 
L 535.036548 408.640758 
L 535.336329 482.161714 
L 535.63611 482.161714 
L 535.935892 484.232727 
L 536.235673 484.232727 
L 536.535454 465.157609 
L 536.835235 484.232727 
L 537.434798 323.347728 
L 538.334142 323.347728 
L 538.633923 278.766452 
L 539.533267 278.766452 
L 539.833048 237.400695 
L 540.432611 237.400695 
L 540.732392 369.346014 
L 541.032173 242.305725 
L 541.331954 242.305725 
L 541.631736 398.667196 
L 541.931517 263.506357 
L 542.830861 263.506357 
L 543.130642 349.071888 
L 543.430423 349.071888 
L 543.730205 304.32711 
L 544.029986 230.806154 
L 544.329767 365.966993 
L 544.629548 439.487949 
L 544.92933 407.823253 
L 545.229111 434.637419 
L 545.528892 484.232727 
L 545.828673 461.451586 
L 546.128455 461.451586 
L 546.428236 396.868685 
L 547.027798 396.868685 
L 547.32758 484.232727 
L 547.927142 382.044593 
L 548.226924 362.969474 
L 548.526705 382.044593 
L 548.826486 294.68055 
L 549.126267 294.68055 
L 549.426049 382.044593 
L 549.72583 337.299815 
L 550.325392 423.41035 
L 550.625174 378.665572 
L 550.924955 423.41035 
L 551.224736 400.629208 
L 551.524517 400.629208 
L 551.824299 484.232727 
L 552.12408 409.131261 
L 552.423861 409.131261 
L 552.723643 484.232727 
L 553.023424 369.945518 
L 553.922768 369.945518 
L 554.222549 347.164376 
L 554.52233 347.164376 
L 554.822111 244.104236 
L 555.421674 484.232727 
L 555.721455 456.928058 
L 556.021236 352.287408 
L 556.321018 349.071888 
L 556.620799 231.133156 
L 557.520143 231.133156 
L 557.819924 347.000875 
L 558.419487 347.000875 
L 558.719268 307.706131 
L 559.618612 307.706131 
L 559.918393 246.883754 
L 560.218174 246.883754 
L 560.817737 357.192439 
L 561.117518 357.192439 
L 561.417299 439.487949 
L 562.016862 439.487949 
L 562.316643 304.32711 
L 563.515768 304.32711 
L 563.815549 337.681317 
L 564.115331 484.232727 
L 564.415112 461.451586 
L 564.714893 484.232727 
L 565.014674 472.842157 
L 565.314456 484.232727 
L 565.614237 484.232727 
L 565.914018 472.188152 
L 566.213799 346.346871 
L 566.513581 358.391446 
L 566.813362 358.391446 
L 567.113143 317.025689 
L 568.312268 317.025689 
L 568.61205 181.86485 
L 574.008112 181.86485 
L 574.307894 349.071888 
L 574.607675 349.071888 
L 574.907456 272.662414 
L 577.605488 272.662414 
L 577.905269 304.32711 
L 582.401988 304.32711 
L 582.701769 223.230607 
L 584.500457 223.230607 
L 584.800238 149.70965 
L 585.699582 149.70965 
L 585.999363 223.230607 
L 586.598926 223.230607 
L 586.898707 181.86485 
L 587.198488 108.343894 
L 599.48952 108.343894 
L 599.789301 88.887273 
L 668.738992 88.887273 
L 669.038774 108.343894 
L 689.124118 108.343894 
L 689.4239 88.887273 
L 871.690909 88.887273 
L 871.690909 88.887273 
" style="fill:none;stroke:#8dd3c7;stroke-linecap:square;stroke-width:1.5;"/>
   </g>
   <g id="line2d_15">
    <path clip-path="url(#pb6d21e33c3)" d="M 161.509091 349.071888 
L 161.808872 234.784679 
L 184.292467 234.784679 
L 184.592248 231.950661 
L 184.89203 231.950661 
L 185.191811 224.048112 
L 185.491592 224.048112 
L 185.791373 217.944074 
L 568.312268 217.944074 
L 568.61205 181.86485 
L 584.500457 181.86485 
L 584.800238 149.70965 
L 586.898707 149.70965 
L 587.198488 108.343894 
L 599.48952 108.343894 
L 599.789301 88.887273 
L 871.690909 88.887273 
L 871.690909 88.887273 
" style="fill:none;stroke:#feffb3;stroke-linecap:square;stroke-width:1.5;"/>
   </g>
   <g id="line2d_16">
    <path clip-path="url(#pb6d21e33c3)" d="M 161.509091 389.62014 
L 164.207122 389.62014 
L 164.506904 396.922395 
L 167.204935 396.922395 
L 167.504716 403.661058 
L 170.202748 403.661058 
L 170.502529 409.879627 
L 173.20056 409.879627 
L 173.500342 415.618243 
L 176.198373 415.618243 
L 176.498154 420.913949 
L 179.196186 420.913949 
L 179.495967 425.800929 
L 182.193998 425.800929 
L 182.49378 430.31073 
L 185.191811 430.31073 
L 185.491592 434.472461 
L 188.189624 434.472461 
L 188.489405 438.312988 
L 191.187436 438.312988 
L 191.487217 441.8571 
L 194.185249 441.8571 
L 194.48503 445.127676 
L 197.183062 445.127676 
L 197.482843 448.145827 
L 200.180874 448.145827 
L 200.480655 450.931035 
L 203.178687 450.931035 
L 203.478468 453.501279 
L 206.176499 453.501279 
L 206.476281 455.873151 
L 209.174312 455.873151 
L 209.474093 458.061959 
L 212.172125 458.061959 
L 212.471906 460.081835 
L 215.169937 460.081835 
L 215.469719 461.945815 
L 218.16775 461.945815 
L 218.467531 463.665932 
L 221.165563 463.665932 
L 221.465344 465.253289 
L 224.163375 465.253289 
L 224.463157 466.718133 
L 227.161188 466.718133 
L 227.460969 468.06992 
L 230.159001 468.06992 
L 230.458782 469.317375 
L 233.156813 469.317375 
L 233.456595 470.468551 
L 236.154626 470.468551 
L 236.454407 471.530878 
L 239.152439 471.530878 
L 239.45222 472.511214 
L 242.150251 472.511214 
L 242.450033 473.415887 
L 245.148064 473.415887 
L 245.447845 474.250737 
L 248.145877 474.250737 
L 248.445658 475.021153 
L 251.143689 475.021153 
L 251.443471 475.732108 
L 254.141502 475.732108 
L 254.441283 476.388191 
L 257.139315 476.388191 
L 257.439096 476.993637 
L 260.137127 476.993637 
L 260.436909 477.552354 
L 263.13494 477.552354 
L 263.434721 478.067949 
L 266.132753 478.067949 
L 266.432534 478.54375 
L 269.130565 478.54375 
L 269.430347 478.982829 
L 272.128378 478.982829 
L 272.428159 479.388019 
L 275.126191 479.388019 
L 275.425972 479.761937 
L 278.124003 479.761937 
L 278.423784 480.106995 
L 281.121816 480.106995 
L 281.421597 480.425421 
L 284.119629 480.425421 
L 284.41941 480.719271 
L 287.117441 480.719271 
L 287.417222 480.990442 
L 290.115254 480.990442 
L 290.415035 481.240683 
L 293.113067 481.240683 
L 293.412848 481.471611 
L 296.110879 481.471611 
L 296.41066 481.684716 
L 299.108692 481.684716 
L 299.408473 481.881373 
L 302.106504 481.881373 
L 302.406286 482.062852 
L 305.104317 482.062852 
L 305.404098 482.230324 
L 308.10213 482.230324 
L 308.401911 482.384871 
L 311.099942 482.384871 
L 311.399724 482.527489 
L 314.097755 482.527489 
L 314.397536 482.659101 
L 317.095568 482.659101 
L 317.395349 482.780554 
L 320.09338 482.780554 
L 320.692943 482.892634 
L 326.089006 482.996063 
L 326.688568 483.091509 
L 332.084631 483.179589 
L 332.684194 483.260871 
L 338.080256 483.335879 
L 338.679819 483.405099 
L 344.075882 483.468976 
L 344.675444 483.527922 
L 353.06932 483.632518 
L 353.968663 483.678843 
L 362.062758 483.761042 
L 363.261883 483.797447 
L 374.054008 483.890654 
L 375.552915 483.917055 
L 392.040884 484.021466 
L 394.139353 484.037771 
L 425.016823 484.145409 
L 430.412886 484.158368 
L 871.690909 484.232727 
L 871.690909 484.232727 
" style="fill:none;stroke:#bfbbd9;stroke-linecap:square;stroke-width:1.5;"/>
   </g>
   <g id="patch_3">
    <path d="M 126 504 
L 126 69.12 
" style="fill:none;stroke:#ffffff;stroke-linecap:square;stroke-linejoin:miter;stroke-width:0.8;"/>
   </g>
   <g id="patch_4">
    <path d="M 907.2 504 
L 907.2 69.12 
" style="fill:none;stroke:#ffffff;stroke-linecap:square;stroke-linejoin:miter;stroke-width:0.8;"/>
   </g>
   <g id="patch_5">
    <path d="M 126 504 
L 907.2 504 
" style="fill:none;stroke:#ffffff;stroke-linecap:square;stroke-linejoin:miter;stroke-width:0.8;"/>
   </g>
   <g id="patch_6">
    <path d="M 126 69.12 
L 907.2 69.12 
" style="fill:none;stroke:#ffffff;stroke-linecap:square;stroke-linejoin:miter;stroke-width:0.8;"/>
   </g>
   <g id="text_15">
    <!-- instance 15 with error 0.0 -->
    <g style="fill:#ffffff;" transform="translate(439.126875 63.12)scale(0.12 -0.12)">
     <defs>
      <path d="M 2834 3397 
L 2834 2853 
Q 2591 2978 2328 3040 
Q 2066 3103 1784 3103 
Q 1356 3103 1142 2972 
Q 928 2841 928 2578 
Q 928 2378 1081 2264 
Q 1234 2150 1697 2047 
L 1894 2003 
Q 2506 1872 2764 1633 
Q 3022 1394 3022 966 
Q 3022 478 2636 193 
Q 2250 -91 1575 -91 
Q 1294 -91 989 -36 
Q 684 19 347 128 
L 347 722 
Q 666 556 975 473 
Q 1284 391 1588 391 
Q 1994 391 2212 530 
Q 2431 669 2431 922 
Q 2431 1156 2273 1281 
Q 2116 1406 1581 1522 
L 1381 1569 
Q 847 1681 609 1914 
Q 372 2147 372 2553 
Q 372 3047 722 3315 
Q 1072 3584 1716 3584 
Q 2034 3584 2315 3537 
Q 2597 3491 2834 3397 
z
" id="DejaVuSans-73" transform="scale(0.015625)"/>
      <path d="M 3122 3366 
L 3122 2828 
Q 2878 2963 2633 3030 
Q 2388 3097 2138 3097 
Q 1578 3097 1268 2742 
Q 959 2388 959 1747 
Q 959 1106 1268 751 
Q 1578 397 2138 397 
Q 2388 397 2633 464 
Q 2878 531 3122 666 
L 3122 134 
Q 2881 22 2623 -34 
Q 2366 -91 2075 -91 
Q 1284 -91 818 406 
Q 353 903 353 1747 
Q 353 2603 823 3093 
Q 1294 3584 2113 3584 
Q 2378 3584 2631 3529 
Q 2884 3475 3122 3366 
z
" id="DejaVuSans-63" transform="scale(0.015625)"/>
      <path id="DejaVuSans-20" transform="scale(0.015625)"/>
      <path d="M 269 3500 
L 844 3500 
L 1563 769 
L 2278 3500 
L 2956 3500 
L 3675 769 
L 4391 3500 
L 4966 3500 
L 4050 0 
L 3372 0 
L 2619 2869 
L 1863 0 
L 1184 0 
L 269 3500 
z
" id="DejaVuSans-77" transform="scale(0.015625)"/>
      <path d="M 3513 2113 
L 3513 0 
L 2938 0 
L 2938 2094 
Q 2938 2591 2744 2837 
Q 2550 3084 2163 3084 
Q 1697 3084 1428 2787 
Q 1159 2491 1159 1978 
L 1159 0 
L 581 0 
L 581 4863 
L 1159 4863 
L 1159 2956 
Q 1366 3272 1645 3428 
Q 1925 3584 2291 3584 
Q 2894 3584 3203 3211 
Q 3513 2838 3513 2113 
z
" id="DejaVuSans-68" transform="scale(0.015625)"/>
      <path d="M 684 794 
L 1344 794 
L 1344 0 
L 684 0 
L 684 794 
z
" id="DejaVuSans-2e" transform="scale(0.015625)"/>
     </defs>
     <use xlink:href="#DejaVuSans-69"/>
     <use x="27.783203" xlink:href="#DejaVuSans-6e"/>
     <use x="91.162109" xlink:href="#DejaVuSans-73"/>
     <use x="143.261719" xlink:href="#DejaVuSans-74"/>
     <use x="182.470703" xlink:href="#DejaVuSans-61"/>
     <use x="243.75" xlink:href="#DejaVuSans-6e"/>
     <use x="307.128906" xlink:href="#DejaVuSans-63"/>
     <use x="362.109375" xlink:href="#DejaVuSans-65"/>
     <use x="423.632812" xlink:href="#DejaVuSans-20"/>
     <use x="455.419922" xlink:href="#DejaVuSans-31"/>
     <use x="519.042969" xlink:href="#DejaVuSans-35"/>
     <use x="582.666016" xlink:href="#DejaVuSans-20"/>
     <use x="614.453125" xlink:href="#DejaVuSans-77"/>
     <use x="696.240234" xlink:href="#DejaVuSans-69"/>
     <use x="724.023438" xlink:href="#DejaVuSans-74"/>
     <use x="763.232422" xlink:href="#DejaVuSans-68"/>
     <use x="826.611328" xlink:href="#DejaVuSans-20"/>
     <use x="858.398438" xlink:href="#DejaVuSans-65"/>
     <use x="919.921875" xlink:href="#DejaVuSans-72"/>
     <use x="959.285156" xlink:href="#DejaVuSans-72"/>
     <use x="998.148438" xlink:href="#DejaVuSans-6f"/>
     <use x="1059.330078" xlink:href="#DejaVuSans-72"/>
     <use x="1100.443359" xlink:href="#DejaVuSans-20"/>
     <use x="1132.230469" xlink:href="#DejaVuSans-30"/>
     <use x="1195.853516" xlink:href="#DejaVuSans-2e"/>
     <use x="1227.640625" xlink:href="#DejaVuSans-30"/>
    </g>
   </g>
   <g id="legend_1">
    <g id="patch_7">
     <path d="M 805.348438 499 
L 900.2 499 
Q 902.2 499 902.2 497 
L 902.2 453.965625 
Q 902.2 451.965625 900.2 451.965625 
L 805.348438 451.965625 
Q 803.348438 451.965625 803.348438 453.965625 
L 803.348438 497 
Q 803.348438 499 805.348438 499 
z
" style="opacity:0.8;stroke:#cccccc;stroke-linejoin:miter;"/>
    </g>
    <g id="line2d_17">
     <path d="M 807.348438 460.064062 
L 827.348438 460.064062 
" style="fill:none;stroke:#8dd3c7;stroke-linecap:square;stroke-width:1.5;"/>
    </g>
    <g id="line2d_18"/>
    <g id="text_16">
     <!-- cost -->
     <g style="fill:#ffffff;" transform="translate(835.348438 463.564062)scale(0.1 -0.1)">
      <use xlink:href="#DejaVuSans-63"/>
      <use x="54.980469" xlink:href="#DejaVuSans-6f"/>
      <use x="116.162109" xlink:href="#DejaVuSans-73"/>
      <use x="168.261719" xlink:href="#DejaVuSans-74"/>
     </g>
    </g>
    <g id="line2d_19">
     <path d="M 807.348438 474.742188 
L 827.348438 474.742188 
" style="fill:none;stroke:#feffb3;stroke-linecap:square;stroke-width:1.5;"/>
    </g>
    <g id="line2d_20"/>
    <g id="text_17">
     <!-- best cost -->
     <g style="fill:#ffffff;" transform="translate(835.348438 478.242188)scale(0.1 -0.1)">
      <defs>
       <path d="M 3116 1747 
Q 3116 2381 2855 2742 
Q 2594 3103 2138 3103 
Q 1681 3103 1420 2742 
Q 1159 2381 1159 1747 
Q 1159 1113 1420 752 
Q 1681 391 2138 391 
Q 2594 391 2855 752 
Q 3116 1113 3116 1747 
z
M 1159 2969 
Q 1341 3281 1617 3432 
Q 1894 3584 2278 3584 
Q 2916 3584 3314 3078 
Q 3713 2572 3713 1747 
Q 3713 922 3314 415 
Q 2916 -91 2278 -91 
Q 1894 -91 1617 61 
Q 1341 213 1159 525 
L 1159 0 
L 581 0 
L 581 4863 
L 1159 4863 
L 1159 2969 
z
" id="DejaVuSans-62" transform="scale(0.015625)"/>
      </defs>
      <use xlink:href="#DejaVuSans-62"/>
      <use x="63.476562" xlink:href="#DejaVuSans-65"/>
      <use x="125" xlink:href="#DejaVuSans-73"/>
      <use x="177.099609" xlink:href="#DejaVuSans-74"/>
      <use x="216.308594" xlink:href="#DejaVuSans-20"/>
      <use x="248.095703" xlink:href="#DejaVuSans-63"/>
      <use x="303.076172" xlink:href="#DejaVuSans-6f"/>
      <use x="364.257812" xlink:href="#DejaVuSans-73"/>
      <use x="416.357422" xlink:href="#DejaVuSans-74"/>
     </g>
    </g>
    <g id="line2d_21">
     <path d="M 807.348438 489.420313 
L 827.348438 489.420313 
" style="fill:none;stroke:#bfbbd9;stroke-linecap:square;stroke-width:1.5;"/>
    </g>
    <g id="line2d_22"/>
    <g id="text_18">
     <!-- temperature -->
     <g style="fill:#ffffff;" transform="translate(835.348438 492.920313)scale(0.1 -0.1)">
      <defs>
       <path d="M 3328 2828 
Q 3544 3216 3844 3400 
Q 4144 3584 4550 3584 
Q 5097 3584 5394 3201 
Q 5691 2819 5691 2113 
L 5691 0 
L 5113 0 
L 5113 2094 
Q 5113 2597 4934 2840 
Q 4756 3084 4391 3084 
Q 3944 3084 3684 2787 
Q 3425 2491 3425 1978 
L 3425 0 
L 2847 0 
L 2847 2094 
Q 2847 2600 2669 2842 
Q 2491 3084 2119 3084 
Q 1678 3084 1418 2786 
Q 1159 2488 1159 1978 
L 1159 0 
L 581 0 
L 581 3500 
L 1159 3500 
L 1159 2956 
Q 1356 3278 1631 3431 
Q 1906 3584 2284 3584 
Q 2666 3584 2933 3390 
Q 3200 3197 3328 2828 
z
" id="DejaVuSans-6d" transform="scale(0.015625)"/>
       <path d="M 1159 525 
L 1159 -1331 
L 581 -1331 
L 581 3500 
L 1159 3500 
L 1159 2969 
Q 1341 3281 1617 3432 
Q 1894 3584 2278 3584 
Q 2916 3584 3314 3078 
Q 3713 2572 3713 1747 
Q 3713 922 3314 415 
Q 2916 -91 2278 -91 
Q 1894 -91 1617 61 
Q 1341 213 1159 525 
z
M 3116 1747 
Q 3116 2381 2855 2742 
Q 2594 3103 2138 3103 
Q 1681 3103 1420 2742 
Q 1159 2381 1159 1747 
Q 1159 1113 1420 752 
Q 1681 391 2138 391 
Q 2594 391 2855 752 
Q 3116 1113 3116 1747 
z
" id="DejaVuSans-70" transform="scale(0.015625)"/>
       <path d="M 544 1381 
L 544 3500 
L 1119 3500 
L 1119 1403 
Q 1119 906 1312 657 
Q 1506 409 1894 409 
Q 2359 409 2629 706 
Q 2900 1003 2900 1516 
L 2900 3500 
L 3475 3500 
L 3475 0 
L 2900 0 
L 2900 538 
Q 2691 219 2414 64 
Q 2138 -91 1772 -91 
Q 1169 -91 856 284 
Q 544 659 544 1381 
z
M 1991 3584 
L 1991 3584 
z
" id="DejaVuSans-75" transform="scale(0.015625)"/>
      </defs>
      <use xlink:href="#DejaVuSans-74"/>
      <use x="39.208984" xlink:href="#DejaVuSans-65"/>
      <use x="100.732422" xlink:href="#DejaVuSans-6d"/>
      <use x="198.144531" xlink:href="#DejaVuSans-70"/>
      <use x="261.621094" xlink:href="#DejaVuSans-65"/>
      <use x="323.144531" xlink:href="#DejaVuSans-72"/>
      <use x="364.257812" xlink:href="#DejaVuSans-61"/>
      <use x="425.537109" xlink:href="#DejaVuSans-74"/>
      <use x="464.746094" xlink:href="#DejaVuSans-75"/>
      <use x="528.125" xlink:href="#DejaVuSans-72"/>
      <use x="566.988281" xlink:href="#DejaVuSans-65"/>
     </g>
    </g>
   </g>
  </g>
 </g>
 <defs>
  <clipPath id="pb6d21e33c3">
   <rect height="434.88" width="781.2" x="126" y="69.12"/>
  </clipPath>
 </defs>
</svg>
