<?xml version="1.0" encoding="utf-8" standalone="no"?>
<!DOCTYPE svg PUBLIC "-//W3C//DTD SVG 1.1//EN"
  "http://www.w3.org/Graphics/SVG/1.1/DTD/svg11.dtd">
<svg height="576pt" version="1.1" viewBox="0 0 1008 576" width="1008pt" xmlns="http://www.w3.org/2000/svg" xmlns:xlink="http://www.w3.org/1999/xlink">
 <metadata>
  <rdf:RDF xmlns:cc="http://creativecommons.org/ns#" xmlns:dc="http://purl.org/dc/elements/1.1/" xmlns:rdf="http://www.w3.org/1999/02/22-rdf-syntax-ns#">
   <cc:Work>
    <dc:type rdf:resource="http://purl.org/dc/dcmitype/StillImage"/>
    <dc:date>2022-01-13T19:11:15.207678</dc:date>
    <dc:format>image/svg+xml</dc:format>
    <dc:creator>
     <cc:Agent>
      <dc:title>Matplotlib v3.4.3, https://matplotlib.org/</dc:title>
     </cc:Agent>
    </dc:creator>
   </cc:Work>
  </rdf:RDF>
 </metadata>
 <defs>
  <style type="text/css">*{stroke-linecap:butt;stroke-linejoin:round;}</style>
 </defs>
 <g id="figure_1">
  <g id="patch_1">
   <path d="M 0 576 
L 1008 576 
L 1008 0 
L 0 0 
z
"/>
  </g>
  <g id="axes_1">
   <g id="patch_2">
    <path d="M 126 504 
L 907.2 504 
L 907.2 69.12 
L 126 69.12 
z
"/>
   </g>
   <g id="matplotlib.axis_1">
    <g id="xtick_1">
     <g id="line2d_1">
      <defs>
       <path d="M 0 0 
L 0 3.5 
" id="m265eba8167" style="stroke:#ffffff;stroke-width:0.8;"/>
      </defs>
      <g>
       <use style="fill:#ffffff;stroke:#ffffff;stroke-width:0.8;" x="161.509091" xlink:href="#m265eba8167" y="504"/>
      </g>
     </g>
     <g id="text_1">
      <!-- 0 -->
      <g style="fill:#ffffff;" transform="translate(158.327841 518.598438)scale(0.1 -0.1)">
       <defs>
        <path d="M 2034 4250 
Q 1547 4250 1301 3770 
Q 1056 3291 1056 2328 
Q 1056 1369 1301 889 
Q 1547 409 2034 409 
Q 2525 409 2770 889 
Q 3016 1369 3016 2328 
Q 3016 3291 2770 3770 
Q 2525 4250 2034 4250 
z
M 2034 4750 
Q 2819 4750 3233 4129 
Q 3647 3509 3647 2328 
Q 3647 1150 3233 529 
Q 2819 -91 2034 -91 
Q 1250 -91 836 529 
Q 422 1150 422 2328 
Q 422 3509 836 4129 
Q 1250 4750 2034 4750 
z
" id="DejaVuSans-30" transform="scale(0.015625)"/>
       </defs>
       <use xlink:href="#DejaVuSans-30"/>
      </g>
     </g>
    </g>
    <g id="xtick_2">
     <g id="line2d_2">
      <g>
       <use style="fill:#ffffff;stroke:#ffffff;stroke-width:0.8;" x="309.186741" xlink:href="#m265eba8167" y="504"/>
      </g>
     </g>
     <g id="text_2">
      <!-- 1000 -->
      <g style="fill:#ffffff;" transform="translate(296.461741 518.598438)scale(0.1 -0.1)">
       <defs>
        <path d="M 794 531 
L 1825 531 
L 1825 4091 
L 703 3866 
L 703 4441 
L 1819 4666 
L 2450 4666 
L 2450 531 
L 3481 531 
L 3481 0 
L 794 0 
L 794 531 
z
" id="DejaVuSans-31" transform="scale(0.015625)"/>
       </defs>
       <use xlink:href="#DejaVuSans-31"/>
       <use x="63.623047" xlink:href="#DejaVuSans-30"/>
       <use x="127.246094" xlink:href="#DejaVuSans-30"/>
       <use x="190.869141" xlink:href="#DejaVuSans-30"/>
      </g>
     </g>
    </g>
    <g id="xtick_3">
     <g id="line2d_3">
      <g>
       <use style="fill:#ffffff;stroke:#ffffff;stroke-width:0.8;" x="456.864391" xlink:href="#m265eba8167" y="504"/>
      </g>
     </g>
     <g id="text_3">
      <!-- 2000 -->
      <g style="fill:#ffffff;" transform="translate(444.139391 518.598438)scale(0.1 -0.1)">
       <defs>
        <path d="M 1228 531 
L 3431 531 
L 3431 0 
L 469 0 
L 469 531 
Q 828 903 1448 1529 
Q 2069 2156 2228 2338 
Q 2531 2678 2651 2914 
Q 2772 3150 2772 3378 
Q 2772 3750 2511 3984 
Q 2250 4219 1831 4219 
Q 1534 4219 1204 4116 
Q 875 4013 500 3803 
L 500 4441 
Q 881 4594 1212 4672 
Q 1544 4750 1819 4750 
Q 2544 4750 2975 4387 
Q 3406 4025 3406 3419 
Q 3406 3131 3298 2873 
Q 3191 2616 2906 2266 
Q 2828 2175 2409 1742 
Q 1991 1309 1228 531 
z
" id="DejaVuSans-32" transform="scale(0.015625)"/>
       </defs>
       <use xlink:href="#DejaVuSans-32"/>
       <use x="63.623047" xlink:href="#DejaVuSans-30"/>
       <use x="127.246094" xlink:href="#DejaVuSans-30"/>
       <use x="190.869141" xlink:href="#DejaVuSans-30"/>
      </g>
     </g>
    </g>
    <g id="xtick_4">
     <g id="line2d_4">
      <g>
       <use style="fill:#ffffff;stroke:#ffffff;stroke-width:0.8;" x="604.54204" xlink:href="#m265eba8167" y="504"/>
      </g>
     </g>
     <g id="text_4">
      <!-- 3000 -->
      <g style="fill:#ffffff;" transform="translate(591.81704 518.598438)scale(0.1 -0.1)">
       <defs>
        <path d="M 2597 2516 
Q 3050 2419 3304 2112 
Q 3559 1806 3559 1356 
Q 3559 666 3084 287 
Q 2609 -91 1734 -91 
Q 1441 -91 1130 -33 
Q 819 25 488 141 
L 488 750 
Q 750 597 1062 519 
Q 1375 441 1716 441 
Q 2309 441 2620 675 
Q 2931 909 2931 1356 
Q 2931 1769 2642 2001 
Q 2353 2234 1838 2234 
L 1294 2234 
L 1294 2753 
L 1863 2753 
Q 2328 2753 2575 2939 
Q 2822 3125 2822 3475 
Q 2822 3834 2567 4026 
Q 2313 4219 1838 4219 
Q 1578 4219 1281 4162 
Q 984 4106 628 3988 
L 628 4550 
Q 988 4650 1302 4700 
Q 1616 4750 1894 4750 
Q 2613 4750 3031 4423 
Q 3450 4097 3450 3541 
Q 3450 3153 3228 2886 
Q 3006 2619 2597 2516 
z
" id="DejaVuSans-33" transform="scale(0.015625)"/>
       </defs>
       <use xlink:href="#DejaVuSans-33"/>
       <use x="63.623047" xlink:href="#DejaVuSans-30"/>
       <use x="127.246094" xlink:href="#DejaVuSans-30"/>
       <use x="190.869141" xlink:href="#DejaVuSans-30"/>
      </g>
     </g>
    </g>
    <g id="xtick_5">
     <g id="line2d_5">
      <g>
       <use style="fill:#ffffff;stroke:#ffffff;stroke-width:0.8;" x="752.21969" xlink:href="#m265eba8167" y="504"/>
      </g>
     </g>
     <g id="text_5">
      <!-- 4000 -->
      <g style="fill:#ffffff;" transform="translate(739.49469 518.598438)scale(0.1 -0.1)">
       <defs>
        <path d="M 2419 4116 
L 825 1625 
L 2419 1625 
L 2419 4116 
z
M 2253 4666 
L 3047 4666 
L 3047 1625 
L 3713 1625 
L 3713 1100 
L 3047 1100 
L 3047 0 
L 2419 0 
L 2419 1100 
L 313 1100 
L 313 1709 
L 2253 4666 
z
" id="DejaVuSans-34" transform="scale(0.015625)"/>
       </defs>
       <use xlink:href="#DejaVuSans-34"/>
       <use x="63.623047" xlink:href="#DejaVuSans-30"/>
       <use x="127.246094" xlink:href="#DejaVuSans-30"/>
       <use x="190.869141" xlink:href="#DejaVuSans-30"/>
      </g>
     </g>
    </g>
    <g id="xtick_6">
     <g id="line2d_6">
      <g>
       <use style="fill:#ffffff;stroke:#ffffff;stroke-width:0.8;" x="899.89734" xlink:href="#m265eba8167" y="504"/>
      </g>
     </g>
     <g id="text_6">
      <!-- 5000 -->
      <g style="fill:#ffffff;" transform="translate(887.17234 518.598438)scale(0.1 -0.1)">
       <defs>
        <path d="M 691 4666 
L 3169 4666 
L 3169 4134 
L 1269 4134 
L 1269 2991 
Q 1406 3038 1543 3061 
Q 1681 3084 1819 3084 
Q 2600 3084 3056 2656 
Q 3513 2228 3513 1497 
Q 3513 744 3044 326 
Q 2575 -91 1722 -91 
Q 1428 -91 1123 -41 
Q 819 9 494 109 
L 494 744 
Q 775 591 1075 516 
Q 1375 441 1709 441 
Q 2250 441 2565 725 
Q 2881 1009 2881 1497 
Q 2881 1984 2565 2268 
Q 2250 2553 1709 2553 
Q 1456 2553 1204 2497 
Q 953 2441 691 2322 
L 691 4666 
z
" id="DejaVuSans-35" transform="scale(0.015625)"/>
       </defs>
       <use xlink:href="#DejaVuSans-35"/>
       <use x="63.623047" xlink:href="#DejaVuSans-30"/>
       <use x="127.246094" xlink:href="#DejaVuSans-30"/>
       <use x="190.869141" xlink:href="#DejaVuSans-30"/>
      </g>
     </g>
    </g>
    <g id="text_7">
     <!-- iteration -->
     <g style="fill:#ffffff;" transform="translate(495.477344 532.276562)scale(0.1 -0.1)">
      <defs>
       <path d="M 603 3500 
L 1178 3500 
L 1178 0 
L 603 0 
L 603 3500 
z
M 603 4863 
L 1178 4863 
L 1178 4134 
L 603 4134 
L 603 4863 
z
" id="DejaVuSans-69" transform="scale(0.015625)"/>
       <path d="M 1172 4494 
L 1172 3500 
L 2356 3500 
L 2356 3053 
L 1172 3053 
L 1172 1153 
Q 1172 725 1289 603 
Q 1406 481 1766 481 
L 2356 481 
L 2356 0 
L 1766 0 
Q 1100 0 847 248 
Q 594 497 594 1153 
L 594 3053 
L 172 3053 
L 172 3500 
L 594 3500 
L 594 4494 
L 1172 4494 
z
" id="DejaVuSans-74" transform="scale(0.015625)"/>
       <path d="M 3597 1894 
L 3597 1613 
L 953 1613 
Q 991 1019 1311 708 
Q 1631 397 2203 397 
Q 2534 397 2845 478 
Q 3156 559 3463 722 
L 3463 178 
Q 3153 47 2828 -22 
Q 2503 -91 2169 -91 
Q 1331 -91 842 396 
Q 353 884 353 1716 
Q 353 2575 817 3079 
Q 1281 3584 2069 3584 
Q 2775 3584 3186 3129 
Q 3597 2675 3597 1894 
z
M 3022 2063 
Q 3016 2534 2758 2815 
Q 2500 3097 2075 3097 
Q 1594 3097 1305 2825 
Q 1016 2553 972 2059 
L 3022 2063 
z
" id="DejaVuSans-65" transform="scale(0.015625)"/>
       <path d="M 2631 2963 
Q 2534 3019 2420 3045 
Q 2306 3072 2169 3072 
Q 1681 3072 1420 2755 
Q 1159 2438 1159 1844 
L 1159 0 
L 581 0 
L 581 3500 
L 1159 3500 
L 1159 2956 
Q 1341 3275 1631 3429 
Q 1922 3584 2338 3584 
Q 2397 3584 2469 3576 
Q 2541 3569 2628 3553 
L 2631 2963 
z
" id="DejaVuSans-72" transform="scale(0.015625)"/>
       <path d="M 2194 1759 
Q 1497 1759 1228 1600 
Q 959 1441 959 1056 
Q 959 750 1161 570 
Q 1363 391 1709 391 
Q 2188 391 2477 730 
Q 2766 1069 2766 1631 
L 2766 1759 
L 2194 1759 
z
M 3341 1997 
L 3341 0 
L 2766 0 
L 2766 531 
Q 2569 213 2275 61 
Q 1981 -91 1556 -91 
Q 1019 -91 701 211 
Q 384 513 384 1019 
Q 384 1609 779 1909 
Q 1175 2209 1959 2209 
L 2766 2209 
L 2766 2266 
Q 2766 2663 2505 2880 
Q 2244 3097 1772 3097 
Q 1472 3097 1187 3025 
Q 903 2953 641 2809 
L 641 3341 
Q 956 3463 1253 3523 
Q 1550 3584 1831 3584 
Q 2591 3584 2966 3190 
Q 3341 2797 3341 1997 
z
" id="DejaVuSans-61" transform="scale(0.015625)"/>
       <path d="M 1959 3097 
Q 1497 3097 1228 2736 
Q 959 2375 959 1747 
Q 959 1119 1226 758 
Q 1494 397 1959 397 
Q 2419 397 2687 759 
Q 2956 1122 2956 1747 
Q 2956 2369 2687 2733 
Q 2419 3097 1959 3097 
z
M 1959 3584 
Q 2709 3584 3137 3096 
Q 3566 2609 3566 1747 
Q 3566 888 3137 398 
Q 2709 -91 1959 -91 
Q 1206 -91 779 398 
Q 353 888 353 1747 
Q 353 2609 779 3096 
Q 1206 3584 1959 3584 
z
" id="DejaVuSans-6f" transform="scale(0.015625)"/>
       <path d="M 3513 2113 
L 3513 0 
L 2938 0 
L 2938 2094 
Q 2938 2591 2744 2837 
Q 2550 3084 2163 3084 
Q 1697 3084 1428 2787 
Q 1159 2491 1159 1978 
L 1159 0 
L 581 0 
L 581 3500 
L 1159 3500 
L 1159 2956 
Q 1366 3272 1645 3428 
Q 1925 3584 2291 3584 
Q 2894 3584 3203 3211 
Q 3513 2838 3513 2113 
z
" id="DejaVuSans-6e" transform="scale(0.015625)"/>
      </defs>
      <use xlink:href="#DejaVuSans-69"/>
      <use x="27.783203" xlink:href="#DejaVuSans-74"/>
      <use x="66.992188" xlink:href="#DejaVuSans-65"/>
      <use x="128.515625" xlink:href="#DejaVuSans-72"/>
      <use x="169.628906" xlink:href="#DejaVuSans-61"/>
      <use x="230.908203" xlink:href="#DejaVuSans-74"/>
      <use x="270.117188" xlink:href="#DejaVuSans-69"/>
      <use x="297.900391" xlink:href="#DejaVuSans-6f"/>
      <use x="359.082031" xlink:href="#DejaVuSans-6e"/>
     </g>
    </g>
   </g>
   <g id="matplotlib.axis_2">
    <g id="ytick_1">
     <g id="line2d_7">
      <defs>
       <path d="M 0 0 
L -3.5 0 
" id="mc8b7959bb9" style="stroke:#ffffff;stroke-width:0.8;"/>
      </defs>
      <g>
       <use style="fill:#ffffff;stroke:#ffffff;stroke-width:0.8;" x="126" xlink:href="#mc8b7959bb9" y="484.232727"/>
      </g>
     </g>
     <g id="text_8">
      <!-- 0 -->
      <g style="fill:#ffffff;" transform="translate(112.6375 488.031946)scale(0.1 -0.1)">
       <use xlink:href="#DejaVuSans-30"/>
      </g>
     </g>
    </g>
    <g id="ytick_2">
     <g id="line2d_8">
      <g>
       <use style="fill:#ffffff;stroke:#ffffff;stroke-width:0.8;" x="126" xlink:href="#mc8b7959bb9" y="421.179226"/>
      </g>
     </g>
     <g id="text_9">
      <!-- 1000 -->
      <g style="fill:#ffffff;" transform="translate(93.55 424.978445)scale(0.1 -0.1)">
       <use xlink:href="#DejaVuSans-31"/>
       <use x="63.623047" xlink:href="#DejaVuSans-30"/>
       <use x="127.246094" xlink:href="#DejaVuSans-30"/>
       <use x="190.869141" xlink:href="#DejaVuSans-30"/>
      </g>
     </g>
    </g>
    <g id="ytick_3">
     <g id="line2d_9">
      <g>
       <use style="fill:#ffffff;stroke:#ffffff;stroke-width:0.8;" x="126" xlink:href="#mc8b7959bb9" y="358.125724"/>
      </g>
     </g>
     <g id="text_10">
      <!-- 2000 -->
      <g style="fill:#ffffff;" transform="translate(93.55 361.924943)scale(0.1 -0.1)">
       <use xlink:href="#DejaVuSans-32"/>
       <use x="63.623047" xlink:href="#DejaVuSans-30"/>
       <use x="127.246094" xlink:href="#DejaVuSans-30"/>
       <use x="190.869141" xlink:href="#DejaVuSans-30"/>
      </g>
     </g>
    </g>
    <g id="ytick_4">
     <g id="line2d_10">
      <g>
       <use style="fill:#ffffff;stroke:#ffffff;stroke-width:0.8;" x="126" xlink:href="#mc8b7959bb9" y="295.072223"/>
      </g>
     </g>
     <g id="text_11">
      <!-- 3000 -->
      <g style="fill:#ffffff;" transform="translate(93.55 298.871441)scale(0.1 -0.1)">
       <use xlink:href="#DejaVuSans-33"/>
       <use x="63.623047" xlink:href="#DejaVuSans-30"/>
       <use x="127.246094" xlink:href="#DejaVuSans-30"/>
       <use x="190.869141" xlink:href="#DejaVuSans-30"/>
      </g>
     </g>
    </g>
    <g id="ytick_5">
     <g id="line2d_11">
      <g>
       <use style="fill:#ffffff;stroke:#ffffff;stroke-width:0.8;" x="126" xlink:href="#mc8b7959bb9" y="232.018721"/>
      </g>
     </g>
     <g id="text_12">
      <!-- 4000 -->
      <g style="fill:#ffffff;" transform="translate(93.55 235.81794)scale(0.1 -0.1)">
       <use xlink:href="#DejaVuSans-34"/>
       <use x="63.623047" xlink:href="#DejaVuSans-30"/>
       <use x="127.246094" xlink:href="#DejaVuSans-30"/>
       <use x="190.869141" xlink:href="#DejaVuSans-30"/>
      </g>
     </g>
    </g>
    <g id="ytick_6">
     <g id="line2d_12">
      <g>
       <use style="fill:#ffffff;stroke:#ffffff;stroke-width:0.8;" x="126" xlink:href="#mc8b7959bb9" y="168.96522"/>
      </g>
     </g>
     <g id="text_13">
      <!-- 5000 -->
      <g style="fill:#ffffff;" transform="translate(93.55 172.764438)scale(0.1 -0.1)">
       <use xlink:href="#DejaVuSans-35"/>
       <use x="63.623047" xlink:href="#DejaVuSans-30"/>
       <use x="127.246094" xlink:href="#DejaVuSans-30"/>
       <use x="190.869141" xlink:href="#DejaVuSans-30"/>
      </g>
     </g>
    </g>
    <g id="ytick_7">
     <g id="line2d_13">
      <g>
       <use style="fill:#ffffff;stroke:#ffffff;stroke-width:0.8;" x="126" xlink:href="#mc8b7959bb9" y="105.911718"/>
      </g>
     </g>
     <g id="text_14">
      <!-- 6000 -->
      <g style="fill:#ffffff;" transform="translate(93.55 109.710937)scale(0.1 -0.1)">
       <defs>
        <path d="M 2113 2584 
Q 1688 2584 1439 2293 
Q 1191 2003 1191 1497 
Q 1191 994 1439 701 
Q 1688 409 2113 409 
Q 2538 409 2786 701 
Q 3034 994 3034 1497 
Q 3034 2003 2786 2293 
Q 2538 2584 2113 2584 
z
M 3366 4563 
L 3366 3988 
Q 3128 4100 2886 4159 
Q 2644 4219 2406 4219 
Q 1781 4219 1451 3797 
Q 1122 3375 1075 2522 
Q 1259 2794 1537 2939 
Q 1816 3084 2150 3084 
Q 2853 3084 3261 2657 
Q 3669 2231 3669 1497 
Q 3669 778 3244 343 
Q 2819 -91 2113 -91 
Q 1303 -91 875 529 
Q 447 1150 447 2328 
Q 447 3434 972 4092 
Q 1497 4750 2381 4750 
Q 2619 4750 2861 4703 
Q 3103 4656 3366 4563 
z
" id="DejaVuSans-36" transform="scale(0.015625)"/>
       </defs>
       <use xlink:href="#DejaVuSans-36"/>
       <use x="63.623047" xlink:href="#DejaVuSans-30"/>
       <use x="127.246094" xlink:href="#DejaVuSans-30"/>
       <use x="190.869141" xlink:href="#DejaVuSans-30"/>
      </g>
     </g>
    </g>
   </g>
   <g id="line2d_14">
    <path clip-path="url(#p2da0997e11)" d="M 161.509091 335.930892 
L 161.656769 439.590848 
L 161.804446 439.590848 
L 161.952124 452.516816 
L 162.099802 425.592971 
L 162.247479 425.592971 
L 162.395157 484.232727 
L 162.542834 439.590848 
L 162.690512 439.590848 
L 162.83819 351.694267 
L 162.985867 351.694267 
L 163.133545 484.232727 
L 163.4289 241.5398 
L 163.871933 241.5398 
L 164.019611 374.07826 
L 164.167289 374.07826 
L 164.314966 425.592971 
L 164.610322 425.592971 
L 164.757999 479.188447 
L 164.905677 479.188447 
L 165.053355 335.930892 
L 165.201032 335.930892 
L 165.34871 484.232727 
L 165.496387 404.091727 
L 165.644065 439.590848 
L 165.791743 439.590848 
L 165.93942 484.232727 
L 166.087098 484.232727 
L 166.234776 460.020183 
L 166.382453 351.694267 
L 166.530131 484.232727 
L 166.677809 420.611744 
L 166.825486 420.611744 
L 167.120842 302.386429 
L 167.268519 360.458704 
L 167.416197 360.458704 
L 167.563875 484.232727 
L 167.85923 241.5398 
L 168.006908 484.232727 
L 168.154585 484.232727 
L 168.302263 479.188447 
L 168.44994 413.486699 
L 168.597618 484.232727 
L 168.745296 484.232727 
L 168.892973 392.61599 
L 169.040651 392.61599 
L 169.188329 315.312397 
L 169.336006 335.930892 
L 169.483684 335.930892 
L 169.631362 484.232727 
L 169.779039 479.188447 
L 170.074395 479.188447 
L 170.36975 332.462949 
L 170.517428 392.61599 
L 170.665105 392.61599 
L 170.812783 484.232727 
L 171.108138 484.232727 
L 171.255816 413.486699 
L 171.698849 413.486699 
L 171.846526 484.232727 
L 171.994204 354.342514 
L 172.584915 354.342514 
L 172.732592 484.232727 
L 172.88027 439.590848 
L 173.027948 484.232727 
L 173.618658 484.232727 
L 173.766336 335.930892 
L 174.357046 335.930892 
L 174.504724 275.777851 
L 174.652402 275.777851 
L 174.800079 484.232727 
L 174.947757 413.486699 
L 175.095435 484.232727 
L 175.243112 484.232727 
L 175.39079 479.188447 
L 175.538468 394.570648 
L 175.833823 394.570648 
L 176.129178 484.232727 
L 176.276856 394.570648 
L 176.424534 484.232727 
L 176.572211 468.406298 
L 176.719889 484.232727 
L 176.867566 460.020183 
L 177.015244 484.232727 
L 177.162922 413.486699 
L 177.458277 413.486699 
L 177.605955 423.512205 
L 177.90131 423.512205 
L 178.048988 484.232727 
L 178.196665 484.232727 
L 178.492021 274.390674 
L 178.639698 214.237634 
L 178.935054 484.232727 
L 179.082731 425.592971 
L 179.378087 425.592971 
L 179.525764 484.232727 
L 180.116475 216.318399 
L 180.264152 156.165359 
L 180.41183 484.232727 
L 180.559508 354.342514 
L 180.854863 484.232727 
L 181.150218 343.938686 
L 181.445574 484.232727 
L 181.740929 293.93726 
L 181.888607 374.07826 
L 182.036284 374.07826 
L 182.33164 484.232727 
L 182.479317 484.232727 
L 182.626995 335.930892 
L 182.774672 479.188447 
L 182.92235 376.6004 
L 183.070028 423.512205 
L 183.217705 365.43993 
L 183.513061 423.512205 
L 183.808416 332.462949 
L 183.956094 484.232727 
L 184.103771 394.570648 
L 184.251449 394.570648 
L 184.546804 184.728595 
L 184.694482 484.232727 
L 184.989837 484.232727 
L 185.137515 468.406298 
L 185.43287 413.486699 
L 185.580548 484.232727 
L 185.875903 484.232727 
L 186.023581 479.188447 
L 186.171258 479.188447 
L 186.318936 460.020183 
L 186.466614 425.592971 
L 186.614291 425.592971 
L 186.761969 484.232727 
L 187.057324 376.6004 
L 187.205002 484.232727 
L 187.648035 484.232727 
L 187.795713 460.020183 
L 188.091068 460.020183 
L 188.238746 484.232727 
L 188.534101 484.232727 
L 188.681778 460.020183 
L 188.829456 460.020183 
L 188.977134 484.232727 
L 189.124811 425.592971 
L 189.272489 425.592971 
L 189.567844 484.232727 
L 189.715522 354.342514 
L 189.8632 354.342514 
L 190.010877 294.189474 
L 190.158555 484.232727 
L 190.306233 484.232727 
L 190.45391 374.07826 
L 190.601588 374.07826 
L 190.749266 310.457277 
L 190.896943 310.457277 
L 191.044621 374.07826 
L 191.192299 293.93726 
L 191.339976 404.091727 
L 191.487654 404.091727 
L 191.635331 484.232727 
L 191.783009 452.516816 
L 191.930687 452.516816 
L 192.078364 484.232727 
L 192.521397 484.232727 
L 192.669075 335.930892 
L 192.96443 335.930892 
L 193.112108 484.232727 
L 193.259786 484.232727 
L 193.407463 394.570648 
L 193.555141 394.570648 
L 193.702819 314.429648 
L 193.850496 314.429648 
L 193.998174 354.342514 
L 194.145852 468.406298 
L 194.293529 378.744219 
L 194.441207 394.570648 
L 194.588884 484.232727 
L 194.88424 404.091727 
L 195.179595 404.091727 
L 195.327273 343.938686 
L 195.47495 468.406298 
L 195.622628 468.406298 
L 195.770306 351.694267 
L 195.917983 484.232727 
L 196.065661 426.160452 
L 196.213339 484.232727 
L 196.508694 484.232727 
L 196.656372 420.611744 
L 196.804049 288.073284 
L 196.951727 351.694267 
L 197.099405 484.232727 
L 197.247082 452.516816 
L 197.542437 452.516816 
L 197.690115 484.232727 
L 197.837793 484.232727 
L 197.98547 354.342514 
L 198.133148 335.930892 
L 198.280826 484.232727 
L 198.723859 340.470744 
L 199.019214 484.232727 
L 199.166892 404.091727 
L 199.314569 484.232727 
L 199.462247 460.020183 
L 199.609925 484.232727 
L 199.90528 484.232727 
L 200.052958 439.590848 
L 200.200635 452.516816 
L 200.348313 375.213223 
L 200.49599 406.929134 
L 200.643668 317.267055 
L 200.791346 326.788134 
L 200.939023 354.342514 
L 201.086701 354.342514 
L 201.234379 484.232727 
L 201.382056 424.079687 
L 201.529734 275.777851 
L 201.825089 275.777851 
L 201.972767 217.705576 
L 202.120445 335.930892 
L 202.268122 335.930892 
L 202.563478 484.232727 
L 202.711155 484.232727 
L 202.858833 439.590848 
L 203.006511 439.590848 
L 203.301866 404.091727 
L 203.449543 293.93726 
L 203.597221 293.93726 
L 203.892576 484.232727 
L 204.040254 460.020183 
L 204.187932 460.020183 
L 204.335609 484.232727 
L 204.630965 484.232727 
L 204.778642 424.079687 
L 205.221675 424.079687 
L 205.369353 379.437808 
L 205.517031 291.541227 
L 205.664708 484.232727 
L 205.812386 484.232727 
L 205.960064 394.570648 
L 206.403096 394.570648 
L 206.550774 484.232727 
L 206.698452 420.611744 
L 206.846129 420.611744 
L 206.993807 415.567464 
L 207.141485 420.611744 
L 207.289162 343.308151 
L 207.43684 484.232727 
L 207.584518 351.694267 
L 207.732195 484.232727 
L 207.879873 423.512205 
L 208.027551 484.232727 
L 208.175228 406.929134 
L 208.322906 484.232727 
L 208.470584 484.232727 
L 208.618261 351.694267 
L 208.765939 484.232727 
L 208.913617 425.592971 
L 209.061294 484.232727 
L 209.208972 484.232727 
L 209.356649 420.611744 
L 209.504327 420.611744 
L 209.652005 396.3992 
L 209.799682 404.091727 
L 209.94736 340.470744 
L 210.095038 361.971988 
L 210.390393 278.741366 
L 210.538071 484.232727 
L 210.685748 484.232727 
L 210.833426 394.570648 
L 210.981104 394.570648 
L 211.128781 317.267055 
L 211.424137 317.267055 
L 211.571814 394.570648 
L 211.719492 394.570648 
L 211.86717 376.6004 
L 212.310202 376.6004 
L 212.605558 484.232727 
L 212.753235 484.232727 
L 212.900913 420.611744 
L 213.048591 484.232727 
L 213.343946 484.232727 
L 213.491624 423.512205 
L 213.639301 484.232727 
L 214.230012 484.232727 
L 214.525367 366.007412 
L 214.673045 366.007412 
L 214.820723 295.261383 
L 214.9684 484.232727 
L 215.263755 484.232727 
L 215.559111 310.457277 
L 215.706788 310.457277 
L 215.854466 278.741366 
L 216.002144 278.741366 
L 216.149821 335.930892 
L 216.297499 484.232727 
L 216.445177 425.592971 
L 216.740532 425.592971 
L 216.88821 423.512205 
L 217.035887 423.512205 
L 217.183565 313.357738 
L 217.331243 313.357738 
L 217.47892 423.512205 
L 217.626598 423.512205 
L 217.774276 391.796294 
L 217.921953 484.232727 
L 218.069631 452.516816 
L 218.217308 391.796294 
L 218.364986 391.796294 
L 218.512664 484.232727 
L 218.660341 479.188447 
L 218.808019 415.567464 
L 218.955697 415.567464 
L 219.103374 479.188447 
L 219.546407 479.188447 
L 219.694085 484.232727 
L 219.841763 406.929134 
L 219.98944 406.929134 
L 220.137118 315.312397 
L 220.432473 479.188447 
L 220.580151 479.188447 
L 220.727829 354.342514 
L 221.023184 484.232727 
L 221.318539 332.462949 
L 221.466217 484.232727 
L 221.613894 484.232727 
L 221.761572 425.592971 
L 221.90925 484.232727 
L 222.204605 484.232727 
L 222.352283 394.570648 
L 222.49996 394.570648 
L 222.795316 270.796625 
L 222.942993 330.949665 
L 223.238349 330.949665 
L 223.386026 354.342514 
L 223.533704 484.232727 
L 223.681382 426.160452 
L 223.829059 426.160452 
L 223.976737 484.232727 
L 224.124414 484.232727 
L 224.272092 413.486699 
L 224.41977 484.232727 
L 224.567447 354.342514 
L 224.715125 484.232727 
L 224.862803 426.160452 
L 225.01048 484.232727 
L 225.453513 484.232727 
L 225.601191 394.570648 
L 225.748869 484.232727 
L 225.896546 484.232727 
L 226.191902 348.289378 
L 226.339579 424.079687 
L 226.487257 399.867142 
L 226.634934 399.867142 
L 226.782612 460.020183 
L 226.93029 460.020183 
L 227.077967 374.07826 
L 227.225645 484.232727 
L 227.521 291.541227 
L 227.668678 479.188447 
L 227.816356 439.590848 
L 228.554744 439.590848 
L 228.702422 423.512205 
L 228.850099 484.232727 
L 228.997777 374.07826 
L 229.145455 439.590848 
L 229.44081 321.365533 
L 229.588487 424.079687 
L 229.736165 424.079687 
L 229.883843 379.437808 
L 230.03152 484.232727 
L 230.179198 484.232727 
L 230.326876 351.694267 
L 230.474553 335.930892 
L 230.622231 335.930892 
L 230.769909 484.232727 
L 231.065264 484.232727 
L 231.212942 460.020183 
L 231.655975 460.020183 
L 231.803652 423.512205 
L 232.54204 423.512205 
L 232.689718 484.232727 
L 232.837396 420.611744 
L 232.985073 420.611744 
L 233.132751 396.3992 
L 233.280429 420.611744 
L 233.428106 388.895833 
L 233.575784 439.590848 
L 233.723462 351.694267 
L 233.871139 484.232727 
L 234.018817 439.590848 
L 234.166495 484.232727 
L 234.314172 351.694267 
L 234.46185 484.232727 
L 234.609528 335.930892 
L 234.904883 376.6004 
L 235.052561 420.611744 
L 235.200238 420.611744 
L 235.347916 343.308151 
L 235.790949 484.232727 
L 235.938626 484.232727 
L 236.086304 374.07826 
L 236.233982 374.07826 
L 236.381659 484.232727 
L 236.529337 335.930892 
L 236.677015 484.232727 
L 236.824692 484.232727 
L 236.97237 423.512205 
L 237.120048 425.592971 
L 237.267725 374.07826 
L 237.415403 374.07826 
L 237.563081 316.005985 
L 237.710758 374.07826 
L 237.858436 354.342514 
L 238.596824 354.342514 
L 238.744502 392.61599 
L 238.892179 392.61599 
L 239.039857 334.543715 
L 239.187535 426.160452 
L 239.335212 293.621992 
L 239.48289 351.694267 
L 239.925923 351.694267 
L 240.073601 288.073284 
L 240.221278 420.611744 
L 240.368956 343.308151 
L 240.516634 336.183106 
L 240.664311 484.232727 
L 240.811989 484.232727 
L 240.959667 420.611744 
L 241.107344 420.611744 
L 241.255022 484.232727 
L 241.550377 484.232727 
L 241.698055 394.570648 
L 241.845732 439.590848 
L 241.99341 379.437808 
L 242.141088 484.232727 
L 242.288765 484.232727 
L 242.436443 423.512205 
L 242.584121 484.232727 
L 242.731798 354.342514 
L 243.174831 484.232727 
L 243.322509 484.232727 
L 243.470187 374.07826 
L 243.765542 374.07826 
L 243.91322 484.232727 
L 244.060897 484.232727 
L 244.356252 291.541227 
L 244.50393 424.079687 
L 244.799285 316.44736 
L 244.946963 343.938686 
L 245.094641 343.938686 
L 245.242318 291.541227 
L 245.389996 404.091727 
L 245.833029 210.769691 
L 246.128384 484.232727 
L 246.42374 381.518573 
L 246.571417 484.232727 
L 247.01445 484.232727 
L 247.162128 424.079687 
L 247.309805 291.541227 
L 247.457483 291.541227 
L 247.605161 484.232727 
L 248.048194 484.232727 
L 248.195871 351.694267 
L 248.638904 351.694267 
L 248.93426 230.001009 
L 249.081937 376.6004 
L 249.229615 376.6004 
L 249.52497 484.232727 
L 249.672648 460.020183 
L 249.820326 460.020183 
L 249.968003 468.406298 
L 250.115681 468.406298 
L 250.263358 413.486699 
L 250.411036 484.232727 
L 250.558714 420.611744 
L 250.706391 420.611744 
L 251.001747 299.738182 
L 251.149424 484.232727 
L 251.297102 354.342514 
L 251.44478 354.342514 
L 251.592457 484.232727 
L 251.740135 484.232727 
L 251.887813 376.6004 
L 252.03549 406.929134 
L 252.183168 484.232727 
L 252.330846 484.232727 
L 252.626201 354.342514 
L 253.069234 354.342514 
L 253.216911 423.512205 
L 253.512267 423.512205 
L 253.659944 484.232727 
L 253.807622 484.232727 
L 253.9553 413.486699 
L 254.102977 425.592971 
L 254.250655 425.592971 
L 254.398333 484.232727 
L 254.54601 392.61599 
L 254.693688 392.61599 
L 254.841366 394.570648 
L 254.989043 484.232727 
L 255.136721 394.570648 
L 255.284399 394.570648 
L 255.432076 484.232727 
L 255.579754 392.61599 
L 255.727432 484.232727 
L 255.875109 392.61599 
L 256.170464 392.61599 
L 256.613497 484.232727 
L 256.761175 484.232727 
L 256.908853 460.020183 
L 257.05653 484.232727 
L 257.351886 484.232727 
L 257.499563 468.406298 
L 257.794919 318.591179 
L 257.942596 318.591179 
L 258.090274 394.570648 
L 258.237952 376.6004 
L 258.385629 316.44736 
L 258.533307 424.079687 
L 258.828662 336.246159 
L 258.97634 460.020183 
L 259.124017 460.020183 
L 259.271695 335.930892 
L 259.862406 335.930892 
L 260.010083 351.694267 
L 260.157761 484.232727 
L 260.305439 376.6004 
L 260.453116 374.07826 
L 260.600794 394.570648 
L 260.748472 484.232727 
L 260.896149 484.232727 
L 261.043827 406.929134 
L 261.191505 484.232727 
L 261.339182 484.232727 
L 261.48686 354.342514 
L 261.634538 484.232727 
L 261.782215 484.232727 
L 261.929893 376.6004 
L 262.372926 376.6004 
L 262.520603 484.232727 
L 262.815959 484.232727 
L 262.963636 439.590848 
L 263.111314 439.590848 
L 263.258992 484.232727 
L 264.292735 484.232727 
L 264.440413 335.930892 
L 264.588091 484.232727 
L 264.735768 394.570648 
L 265.031123 394.570648 
L 265.178801 484.232727 
L 265.326479 484.232727 
L 265.474156 394.570648 
L 265.621834 413.486699 
L 265.917189 413.486699 
L 266.064867 355.414424 
L 266.212545 355.414424 
L 266.5079 484.232727 
L 266.950933 233.784219 
L 267.098611 374.07826 
L 267.246288 293.93726 
L 267.393966 293.93726 
L 267.541644 484.232727 
L 267.689321 420.611744 
L 267.836999 484.232727 
L 268.132354 484.232727 
L 268.280032 423.512205 
L 268.427709 484.232727 
L 268.575387 439.590848 
L 268.723065 439.590848 
L 268.870742 484.232727 
L 269.166098 484.232727 
L 269.461453 314.429648 
L 269.756808 484.232727 
L 269.904486 484.232727 
L 270.052164 374.07826 
L 270.199841 484.232727 
L 270.347519 423.512205 
L 270.495197 423.512205 
L 270.642874 391.796294 
L 270.790552 388.895833 
L 271.085907 388.895833 
L 271.233585 484.232727 
L 271.52894 342.362349 
L 271.676618 479.188447 
L 271.824295 484.232727 
L 271.971973 394.570648 
L 272.119651 484.232727 
L 272.267328 468.406298 
L 272.415006 404.091727 
L 272.562684 484.232727 
L 273.005717 484.232727 
L 273.153394 439.590848 
L 273.44875 439.590848 
L 273.596427 484.232727 
L 274.03946 484.232727 
L 274.187138 439.590848 
L 274.334815 484.232727 
L 274.482493 484.232727 
L 274.630171 392.61599 
L 274.777848 413.486699 
L 274.925526 479.188447 
L 275.220881 479.188447 
L 275.368559 394.570648 
L 275.516237 484.232727 
L 275.663914 423.512205 
L 276.54998 423.512205 
L 276.697658 479.188447 
L 276.845335 479.188447 
L 276.993013 392.61599 
L 277.140691 392.61599 
L 277.288368 394.570648 
L 277.436046 413.486699 
L 277.583724 484.232727 
L 278.322112 484.232727 
L 278.912823 318.528125 
L 279.355855 318.528125 
L 279.503533 426.160452 
L 279.651211 401.947908 
L 279.946566 401.947908 
L 280.241921 484.232727 
L 280.389599 424.079687 
L 280.537277 424.079687 
L 280.684954 346.776094 
L 280.832632 346.776094 
L 281.127987 484.232727 
L 281.423343 484.232727 
L 281.57102 439.590848 
L 282.161731 439.590848 
L 282.457086 335.930892 
L 282.604764 376.6004 
L 282.752441 316.44736 
L 282.900119 376.6004 
L 283.047797 376.6004 
L 283.195474 394.570648 
L 283.343152 334.417608 
L 283.638507 334.417608 
L 283.786185 394.570648 
L 283.933863 284.416181 
L 284.08154 394.570648 
L 284.229218 394.570648 
L 284.376896 317.267055 
L 284.524573 317.267055 
L 284.672251 484.232727 
L 284.819929 374.07826 
L 284.967606 374.07826 
L 285.115284 460.020183 
L 285.410639 460.020183 
L 285.558317 484.232727 
L 286.149027 484.232727 
L 286.296705 439.590848 
L 286.444383 439.590848 
L 286.59206 381.518573 
L 286.887416 381.518573 
L 287.035093 484.232727 
L 287.182771 484.232727 
L 287.478126 375.213223 
L 287.921159 375.213223 
L 288.068837 484.232727 
L 288.364192 484.232727 
L 288.51187 394.570648 
L 288.659547 484.232727 
L 288.807225 376.6004 
L 289.693291 376.6004 
L 290.136324 484.232727 
L 290.284002 404.091727 
L 290.431679 404.091727 
L 290.579357 376.6004 
L 290.727035 484.232727 
L 291.02239 484.232727 
L 291.170067 425.592971 
L 291.465423 425.592971 
L 291.6131 376.6004 
L 291.760778 484.232727 
L 292.203811 484.232727 
L 292.646844 362.287255 
L 292.942199 484.232727 
L 293.089877 376.6004 
L 293.237555 376.6004 
L 293.385232 484.232727 
L 293.53291 439.590848 
L 293.680588 439.590848 
L 293.828265 484.232727 
L 293.975943 484.232727 
L 294.12362 374.07826 
L 294.271298 484.232727 
L 294.418976 404.091727 
L 294.566653 404.091727 
L 294.714331 340.470744 
L 294.862009 484.232727 
L 295.009686 354.342514 
L 295.157364 484.232727 
L 295.305042 439.590848 
L 295.452719 439.590848 
L 295.600397 484.232727 
L 295.748075 460.020183 
L 295.895752 484.232727 
L 296.338785 484.232727 
L 296.486463 413.486699 
L 296.634141 484.232727 
L 296.929496 394.444541 
L 297.224851 394.444541 
L 297.372529 425.592971 
L 297.520206 351.694267 
L 297.667884 484.232727 
L 297.815562 452.516816 
L 298.258595 452.516816 
L 298.406272 484.232727 
L 298.996983 484.232727 
L 299.144661 479.188447 
L 299.292338 425.592971 
L 299.440016 425.592971 
L 299.587694 484.232727 
L 299.735371 439.590848 
L 300.030726 439.590848 
L 300.178404 468.406298 
L 300.326082 468.406298 
L 300.473759 423.512205 
L 301.06447 423.512205 
L 301.212148 392.61599 
L 301.359825 394.570648 
L 301.507503 335.930892 
L 301.802858 335.930892 
L 301.950536 468.406298 
L 302.098214 460.020183 
L 302.245891 396.3992 
L 302.393569 484.232727 
L 302.541247 439.590848 
L 302.688924 439.590848 
L 302.836602 379.437808 
L 303.131957 484.232727 
L 303.279635 484.232727 
L 303.57499 365.43993 
L 303.722668 365.43993 
L 304.018023 425.592971 
L 304.165701 425.592971 
L 304.313378 484.232727 
L 304.461056 484.232727 
L 304.756411 332.462949 
L 304.904089 365.43993 
L 305.051767 439.590848 
L 305.199444 374.07826 
L 305.347122 374.07826 
L 305.4948 296.774667 
L 305.642477 406.929134 
L 305.790155 375.213223 
L 305.937832 406.929134 
L 306.08551 406.929134 
L 306.233188 391.102706 
L 306.380865 401.884854 
L 306.528543 343.812579 
L 306.676221 421.116172 
L 306.823898 421.116172 
L 306.971576 479.188447 
L 307.119254 419.035407 
L 307.414609 419.035407 
L 307.562287 484.232727 
L 307.709964 335.930892 
L 307.857642 452.516816 
L 308.00532 452.516816 
L 308.300675 355.414424 
L 308.448353 413.486699 
L 308.59603 413.486699 
L 308.743708 374.07826 
L 308.891385 484.232727 
L 309.039063 406.929134 
L 309.186741 484.232727 
L 309.629774 484.232727 
L 309.777451 374.07826 
L 309.925129 374.07826 
L 310.072807 484.232727 
L 310.368162 404.091727 
L 310.51584 372.375816 
L 310.663517 372.375816 
L 310.811195 452.516816 
L 310.958873 452.516816 
L 311.10655 372.375816 
L 311.254228 372.375816 
L 311.401906 452.516816 
L 311.549583 439.590848 
L 311.844938 484.232727 
L 311.992616 484.232727 
L 312.140294 374.07826 
L 312.287971 484.232727 
L 312.435649 404.091727 
L 312.583327 484.232727 
L 312.731004 484.232727 
L 312.878682 460.020183 
L 313.02636 460.020183 
L 313.174037 351.694267 
L 313.321715 484.232727 
L 313.469393 479.188447 
L 313.912426 479.188447 
L 314.060103 415.567464 
L 314.207781 479.188447 
L 314.355459 484.232727 
L 314.503136 484.232727 
L 314.650814 420.611744 
L 314.798491 484.232727 
L 314.946169 484.232727 
L 315.241524 353.333658 
L 315.389202 424.079687 
L 315.53688 275.777851 
L 315.684557 424.079687 
L 315.832235 313.92522 
L 316.12759 313.92522 
L 316.422946 201.879147 
L 316.570623 351.694267 
L 316.718301 351.694267 
L 316.865979 484.232727 
L 317.161334 372.375816 
L 317.309012 484.232727 
L 317.456689 392.61599 
L 317.604367 392.61599 
L 317.752044 484.232727 
L 317.899722 452.516816 
L 318.342755 452.516816 
L 318.490433 484.232727 
L 318.63811 484.232727 
L 318.785788 394.570648 
L 318.933466 484.232727 
L 319.081143 484.232727 
L 319.228821 439.590848 
L 319.376499 439.590848 
L 319.524176 479.188447 
L 319.671854 394.570648 
L 319.819532 484.232727 
L 320.410242 484.232727 
L 320.55792 392.61599 
L 320.705597 484.232727 
L 320.853275 484.232727 
L 321.000953 351.694267 
L 321.14863 484.232727 
L 321.296308 392.61599 
L 321.887019 392.61599 
L 322.034696 484.232727 
L 322.182374 376.6004 
L 322.330052 376.6004 
L 322.477729 351.694267 
L 323.216118 351.694267 
L 323.363795 262.032188 
L 323.65915 484.232727 
L 323.806828 394.570648 
L 324.102183 394.570648 
L 324.249861 484.232727 
L 324.397539 392.61599 
L 324.545216 484.232727 
L 324.840572 484.232727 
L 324.988249 408.253258 
L 325.135927 479.188447 
L 325.283605 404.091727 
L 325.431282 484.232727 
L 325.726638 275.777851 
L 326.021993 275.777851 
L 326.317348 374.07826 
L 326.465026 374.07826 
L 326.760381 207.112588 
L 326.908059 484.232727 
L 327.055736 335.930892 
L 327.203414 351.694267 
L 327.351092 484.232727 
L 327.941802 484.232727 
L 328.08948 452.516816 
L 328.237158 484.232727 
L 328.532513 484.232727 
L 328.680191 351.694267 
L 328.827868 484.232727 
L 329.123224 484.232727 
L 329.270901 423.512205 
L 329.418579 423.512205 
L 329.713934 365.43993 
L 329.861612 423.512205 
L 330.009289 335.930892 
L 330.452322 484.232727 
L 330.747678 315.312397 
L 331.043033 413.486699 
L 331.190711 484.232727 
L 331.338388 404.091727 
L 331.486066 404.091727 
L 331.633744 460.020183 
L 332.076776 460.020183 
L 332.224454 484.232727 
L 332.519809 484.232727 
L 332.667487 335.930892 
L 332.815165 484.232727 
L 332.962842 406.929134 
L 333.11052 484.232727 
L 333.258198 392.61599 
L 333.405875 413.486699 
L 333.553553 468.406298 
L 333.701231 468.406298 
L 333.996586 318.591179 
L 334.144264 318.591179 
L 334.291941 332.462949 
L 334.587297 332.462949 
L 334.734974 424.079687 
L 335.030329 294.189474 
L 335.473362 484.232727 
L 335.62104 423.512205 
L 335.768718 423.512205 
L 335.916395 484.232727 
L 336.064073 484.232727 
L 336.211751 452.516816 
L 336.359428 452.516816 
L 336.507106 394.444541 
L 336.654784 426.160452 
L 336.802461 426.160452 
L 336.950139 484.232727 
L 337.097817 484.232727 
L 337.245494 420.611744 
L 337.393172 420.611744 
L 337.54085 360.458704 
L 337.836205 360.458704 
L 337.983882 336.246159 
L 338.13156 278.173884 
L 338.426915 401.947908 
L 338.574593 401.947908 
L 338.722271 484.232727 
L 339.017626 452.516816 
L 339.165304 484.232727 
L 339.312981 484.232727 
L 339.460659 425.592971 
L 339.608337 484.232727 
L 340.05137 484.232727 
L 340.199047 479.188447 
L 340.346725 423.512205 
L 340.64208 423.512205 
L 340.937435 241.5398 
L 341.085113 374.07826 
L 341.232791 296.774667 
L 341.675824 484.232727 
L 341.823501 354.342514 
L 341.971179 354.342514 
L 342.118857 484.232727 
L 342.266534 452.516816 
L 342.414212 452.516816 
L 342.56189 439.590848 
L 342.709567 362.287255 
L 343.004923 362.287255 
L 343.1526 484.232727 
L 343.447956 484.232727 
L 343.595633 351.694267 
L 343.743311 351.694267 
L 343.890988 484.232727 
L 344.186344 396.3992 
L 344.334021 420.611744 
L 344.481699 420.611744 
L 344.629377 396.3992 
L 344.777054 460.020183 
L 344.924732 460.020183 
L 345.07241 404.091727 
L 345.220087 479.188447 
L 345.367765 484.232727 
L 345.515443 484.232727 
L 345.66312 425.592971 
L 345.810798 425.592971 
L 345.958476 392.61599 
L 346.106153 392.61599 
L 346.549186 217.705576 
L 346.696864 421.116172 
L 346.992219 303.899713 
L 347.139897 484.232727 
L 347.287574 423.512205 
L 347.435252 423.512205 
L 347.58293 335.930892 
L 347.730607 468.406298 
L 348.17364 468.406298 
L 348.321318 484.232727 
L 348.616673 484.232727 
L 348.764351 351.694267 
L 348.912029 413.486699 
L 349.059706 349.865716 
L 349.207384 484.232727 
L 349.355062 484.232727 
L 349.502739 335.930892 
L 349.798094 335.930892 
L 349.945772 425.592971 
L 350.09345 348.289378 
L 350.241127 348.289378 
L 350.388805 484.232727 
L 350.536483 406.929134 
L 350.831838 406.929134 
L 350.979516 315.312397 
L 351.127193 484.232727 
L 351.274871 413.486699 
L 351.422549 484.232727 
L 351.570226 484.232727 
L 351.865582 404.785315 
L 352.013259 404.091727 
L 352.160937 340.470744 
L 352.308615 340.470744 
L 352.456292 280.317703 
L 352.60397 360.458704 
L 352.751647 299.738182 
L 352.899325 299.738182 
L 353.047003 359.891222 
L 353.19468 484.232727 
L 353.490036 381.518573 
L 353.637713 484.232727 
L 353.785391 354.342514 
L 353.933069 354.342514 
L 354.080746 351.694267 
L 354.376102 351.694267 
L 354.523779 319.978356 
L 354.671457 484.232727 
L 354.819135 392.61599 
L 354.966812 484.232727 
L 355.11449 452.516816 
L 355.262168 452.516816 
L 355.409845 425.592971 
L 355.557523 479.188447 
L 355.7052 484.232727 
L 355.852878 484.232727 
L 356.148233 332.462949 
L 356.295911 484.232727 
L 356.443589 374.07826 
L 356.591266 358.251831 
L 356.886622 392.61599 
L 357.034299 392.61599 
L 357.181977 484.232727 
L 357.477332 351.694267 
L 357.62501 484.232727 
L 357.772688 484.232727 
L 357.920365 425.592971 
L 358.068043 484.232727 
L 358.215721 354.342514 
L 358.511076 484.232727 
L 358.806431 376.6004 
L 358.954109 404.091727 
L 359.101786 335.930892 
L 359.397142 335.930892 
L 359.544819 484.232727 
L 359.692497 392.61599 
L 359.987852 392.61599 
L 360.13553 315.312397 
L 360.430885 315.312397 
L 360.726241 423.512205 
L 361.021596 342.362349 
L 361.169274 484.232727 
L 361.316951 439.590848 
L 361.464629 484.232727 
L 361.759984 354.342514 
L 361.907662 484.232727 
L 362.055339 479.188447 
L 362.203017 479.188447 
L 362.350695 415.567464 
L 362.498372 484.232727 
L 362.793728 394.570648 
L 362.941405 394.570648 
L 363.089083 484.232727 
L 363.236761 439.590848 
L 364.122827 439.590848 
L 364.270504 379.437808 
L 364.418182 379.437808 
L 364.565859 424.079687 
L 364.713537 363.359165 
L 364.861215 423.512205 
L 365.008892 423.512205 
L 365.15657 346.208612 
L 365.304248 354.342514 
L 365.451925 354.342514 
L 365.599603 452.516816 
L 365.747281 452.516816 
L 365.894958 484.232727 
L 366.042636 484.232727 
L 366.190314 439.590848 
L 366.337991 439.590848 
L 366.485669 484.232727 
L 366.633347 452.516816 
L 366.781024 452.516816 
L 366.928702 484.232727 
L 367.07638 484.232727 
L 367.519412 316.44736 
L 367.814768 484.232727 
L 367.962445 423.512205 
L 368.110123 313.357738 
L 368.257801 392.61599 
L 368.553156 392.61599 
L 368.700834 468.406298 
L 368.848511 484.232727 
L 368.996189 392.61599 
L 369.143867 452.516816 
L 369.291544 388.895833 
L 369.439222 392.61599 
L 369.5869 392.61599 
L 369.734577 460.020183 
L 369.882255 376.6004 
L 370.029933 376.6004 
L 370.17761 479.188447 
L 370.472965 274.390674 
L 370.620643 351.694267 
L 370.768321 351.694267 
L 370.915998 484.232727 
L 371.063676 484.232727 
L 371.211354 479.188447 
L 371.359031 374.07826 
L 371.506709 374.07826 
L 371.654387 484.232727 
L 371.949742 484.232727 
L 372.09742 335.930892 
L 372.245097 335.930892 
L 372.392775 484.232727 
L 372.540453 452.516816 
L 372.68813 484.232727 
L 372.835808 452.516816 
L 372.983486 484.232727 
L 373.574196 484.232727 
L 373.721874 374.07826 
L 373.869551 460.020183 
L 374.312584 460.020183 
L 374.460262 484.232727 
L 374.755617 392.61599 
L 374.903295 484.232727 
L 375.050973 376.6004 
L 375.19865 484.232727 
L 375.346328 484.232727 
L 375.494006 426.160452 
L 375.641683 316.005985 
L 375.789361 316.005985 
L 375.937039 374.07826 
L 376.084716 484.232727 
L 376.380071 404.091727 
L 376.527749 404.091727 
L 376.675427 340.470744 
L 376.823104 340.470744 
L 376.970782 392.61599 
L 377.266137 392.61599 
L 377.413815 334.543715 
L 377.561493 484.232727 
L 377.70917 452.516816 
L 377.856848 452.516816 
L 378.004526 342.362349 
L 378.152203 452.516816 
L 378.299881 452.516816 
L 378.447559 484.232727 
L 379.185947 484.232727 
L 379.333624 351.694267 
L 379.62898 351.694267 
L 379.776657 354.342514 
L 379.924335 484.232727 
L 380.072013 468.406298 
L 380.21969 354.342514 
L 380.367368 484.232727 
L 380.515046 484.232727 
L 380.662723 479.188447 
L 380.810401 401.884854 
L 380.958079 479.188447 
L 381.105756 354.342514 
L 381.253434 354.342514 
L 381.401112 484.232727 
L 381.548789 394.570648 
L 381.991822 394.570648 
L 382.1395 425.592971 
L 382.287177 394.570648 
L 382.434855 484.232727 
L 382.582533 484.232727 
L 382.73021 374.07826 
L 382.877888 484.232727 
L 383.173243 484.232727 
L 383.320921 335.930892 
L 383.763954 335.930892 
L 383.911632 484.232727 
L 384.059309 351.694267 
L 384.206987 351.694267 
L 384.354665 288.073284 
L 384.502342 288.073284 
L 384.797697 484.232727 
L 384.945375 484.232727 
L 385.24073 315.312397 
L 385.536086 315.312397 
L 385.683763 479.188447 
L 386.126796 479.188447 
L 386.422152 360.963132 
L 386.717507 479.188447 
L 386.865185 404.091727 
L 387.012862 404.091727 
L 387.16054 354.342514 
L 387.308218 484.232727 
L 387.603573 484.232727 
L 387.898928 348.289378 
L 388.046606 425.592971 
L 388.194283 365.43993 
L 388.637316 365.43993 
L 388.784994 425.592971 
L 388.932672 425.592971 
L 389.080349 439.590848 
L 389.228027 484.232727 
L 389.523382 362.539469 
L 389.67106 346.71304 
L 389.818738 346.71304 
L 390.114093 484.232727 
L 390.261771 484.232727 
L 390.409448 452.516816 
L 390.557126 392.363776 
L 390.704803 452.516816 
L 390.852481 452.516816 
L 391.000159 391.796294 
L 391.295514 391.796294 
L 391.443192 484.232727 
L 391.590869 354.342514 
L 391.738547 479.188447 
L 391.886225 479.188447 
L 392.033902 374.07826 
L 392.18158 374.07826 
L 392.476935 452.516816 
L 392.624613 452.516816 
L 392.772291 376.6004 
L 392.919968 376.6004 
L 393.215324 484.232727 
L 393.510679 484.232727 
L 393.806034 314.429648 
L 393.953712 404.091727 
L 394.249067 404.091727 
L 394.396745 314.429648 
L 394.544422 394.570648 
L 394.6921 330.949665 
L 394.987455 484.232727 
L 395.135133 413.486699 
L 395.578166 413.486699 
L 395.725844 484.232727 
L 395.873521 420.611744 
L 396.021199 484.232727 
L 396.168877 484.232727 
L 396.316554 413.486699 
L 396.611909 413.486699 
L 396.759587 353.333658 
L 396.907265 413.486699 
L 397.054942 423.512205 
L 397.20262 423.512205 
L 397.350298 365.43993 
L 397.497975 484.232727 
L 397.645653 484.232727 
L 397.793331 413.486699 
L 398.236364 484.232727 
L 398.384041 484.232727 
L 398.531719 406.929134 
L 398.827074 406.929134 
L 398.974752 484.232727 
L 399.12243 392.61599 
L 399.270107 484.232727 
L 399.417785 354.342514 
L 399.565462 484.232727 
L 399.71314 404.091727 
L 399.860818 404.091727 
L 400.008495 346.019452 
L 400.156173 484.232727 
L 400.303851 351.694267 
L 400.451528 392.61599 
L 400.599206 392.61599 
L 400.746884 484.232727 
L 400.894561 484.232727 
L 401.042239 354.342514 
L 401.189917 354.342514 
L 401.337594 374.07826 
L 401.485272 342.362349 
L 401.63295 374.07826 
L 401.780627 374.07826 
L 401.928305 342.362349 
L 402.075983 484.232727 
L 402.519015 316.44736 
L 402.666693 423.512205 
L 403.109726 423.512205 
L 403.257404 484.232727 
L 403.405081 484.232727 
L 403.552759 376.6004 
L 403.700437 354.342514 
L 403.848114 354.342514 
L 403.995792 484.232727 
L 404.14347 484.232727 
L 404.291147 394.570648 
L 404.586503 394.570648 
L 404.73418 460.020183 
L 404.881858 351.694267 
L 405.029536 351.694267 
L 405.177213 335.930892 
L 405.324891 484.232727 
L 405.472568 484.232727 
L 405.767924 436.690387 
L 405.915601 436.690387 
L 406.063279 376.6004 
L 406.210957 484.232727 
L 406.358634 452.516816 
L 406.506312 391.796294 
L 406.801667 484.232727 
L 407.097023 360.458704 
L 407.2447 424.079687 
L 407.392378 365.43993 
L 407.540056 365.43993 
L 407.687733 484.232727 
L 407.983089 293.93726 
L 408.130766 484.232727 
L 408.278444 351.694267 
L 408.426121 479.188447 
L 408.573799 479.188447 
L 408.869154 343.812579 
L 409.016832 406.929134 
L 409.16451 406.929134 
L 409.312187 484.232727 
L 409.459865 439.590848 
L 409.607543 484.232727 
L 410.198253 318.528125 
L 410.345931 484.232727 
L 410.641286 392.61599 
L 410.936642 392.61599 
L 411.084319 484.232727 
L 411.379674 484.232727 
L 411.527352 354.342514 
L 412.118063 354.342514 
L 412.26574 484.232727 
L 412.413418 452.516816 
L 412.561096 452.516816 
L 412.708773 388.895833 
L 413.004129 484.232727 
L 413.151806 394.570648 
L 413.299484 394.570648 
L 413.447162 484.232727 
L 413.742517 484.232727 
L 413.890195 354.342514 
L 414.037872 439.590848 
L 414.18555 439.590848 
L 414.333227 392.61599 
L 414.480905 392.61599 
L 414.628583 335.930892 
L 414.77626 335.930892 
L 414.923938 484.232727 
L 415.071616 406.929134 
L 415.219293 484.232727 
L 415.366971 468.406298 
L 415.514649 484.232727 
L 415.810004 484.232727 
L 415.957682 468.406298 
L 416.105359 404.785315 
L 416.253037 404.785315 
L 416.400715 484.232727 
L 416.843748 334.291501 
L 416.991425 201.75304 
L 417.139103 291.541227 
L 417.28678 291.541227 
L 417.434458 424.079687 
L 417.582136 424.079687 
L 417.729813 379.437808 
L 417.877491 439.590848 
L 418.025169 354.342514 
L 418.172846 354.342514 
L 418.320524 413.486699 
L 418.468202 353.333658 
L 418.615879 379.437808 
L 418.763557 484.232727 
L 418.911235 484.232727 
L 419.058912 468.406298 
L 419.20659 468.406298 
L 419.354268 484.232727 
L 419.501945 484.232727 
L 419.649623 479.188447 
L 419.797301 479.188447 
L 419.944978 415.567464 
L 420.092656 425.592971 
L 420.240333 392.61599 
L 420.683366 392.61599 
L 420.978722 255.159356 
L 421.126399 419.035407 
L 421.274077 419.035407 
L 421.421755 484.232727 
L 421.569432 452.516816 
L 421.71711 392.363776 
L 421.864788 392.363776 
L 422.012465 479.188447 
L 422.455498 479.188447 
L 422.603176 484.232727 
L 422.750854 484.232727 
L 422.898531 452.516816 
L 423.046209 452.516816 
L 423.193886 392.363776 
L 423.341564 452.516816 
L 423.489242 375.213223 
L 423.784597 375.213223 
L 423.932275 406.929134 
L 424.22763 406.929134 
L 424.375308 346.208612 
L 424.522985 423.512205 
L 424.818341 423.512205 
L 424.966018 363.359165 
L 425.113696 404.091727 
L 425.261374 484.232727 
L 425.556729 484.232727 
L 425.704407 394.570648 
L 425.852084 484.232727 
L 426.442795 484.232727 
L 426.590472 479.188447 
L 426.73815 404.091727 
L 426.885828 484.232727 
L 427.033505 484.232727 
L 427.181183 420.611744 
L 427.328861 484.232727 
L 427.476538 351.694267 
L 427.624216 351.694267 
L 427.771894 468.406298 
L 427.919571 484.232727 
L 428.067249 439.590848 
L 428.510282 439.590848 
L 428.65796 394.570648 
L 428.805637 484.232727 
L 428.953315 479.188447 
L 429.100992 479.188447 
L 429.24867 452.516816 
L 429.396348 354.342514 
L 429.544025 354.342514 
L 429.691703 468.406298 
L 429.839381 468.406298 
L 429.987058 436.690387 
L 430.134736 468.406298 
L 430.282414 468.406298 
L 430.430091 410.334023 
L 430.577769 410.334023 
L 430.725447 354.342514 
L 430.873124 354.342514 
L 431.020802 484.232727 
L 431.16848 484.232727 
L 431.316157 404.091727 
L 431.463835 404.091727 
L 431.611513 484.232727 
L 431.75919 484.232727 
L 431.906868 423.512205 
L 432.054545 484.232727 
L 432.202223 460.020183 
L 432.349901 399.867142 
L 432.497578 424.079687 
L 432.645256 424.079687 
L 432.792934 484.232727 
L 432.940611 484.232727 
L 433.088289 413.486699 
L 433.235967 484.232727 
L 433.974355 484.232727 
L 434.26971 365.43993 
L 434.417388 365.43993 
L 434.712743 423.512205 
L 434.860421 423.512205 
L 435.008098 346.208612 
L 435.155776 346.208612 
L 435.303454 484.232727 
L 435.894164 484.232727 
L 436.041842 439.590848 
L 436.18952 484.232727 
L 436.337197 468.406298 
L 436.484875 439.590848 
L 436.632553 439.590848 
L 436.78023 351.694267 
L 436.927908 365.43993 
L 437.075586 336.498373 
L 437.223263 226.343906 
L 437.666296 226.343906 
L 437.961651 413.486699 
L 438.109329 413.486699 
L 438.257007 484.232727 
L 438.404684 484.232727 
L 438.70004 376.6004 
L 438.847717 374.07826 
L 438.995395 374.07826 
L 439.143073 484.232727 
L 439.438428 484.232727 
L 439.586106 404.091727 
L 439.733783 404.091727 
L 439.881461 468.406298 
L 440.029139 404.785315 
L 440.176816 404.785315 
L 440.324494 420.611744 
L 440.472171 420.611744 
L 440.619849 354.342514 
L 440.767527 392.61599 
L 440.915204 392.61599 
L 441.062882 484.232727 
L 441.21056 460.020183 
L 441.358237 460.020183 
L 441.653593 365.43993 
L 441.948948 365.43993 
L 442.096626 484.232727 
L 442.244303 425.592971 
L 442.391981 425.592971 
L 442.687336 484.232727 
L 442.982692 484.232727 
L 443.130369 374.07826 
L 443.278047 484.232727 
L 443.425724 424.079687 
L 443.573402 484.232727 
L 443.72108 484.232727 
L 443.868757 335.930892 
L 444.164113 335.930892 
L 444.31179 484.232727 
L 444.459468 376.6004 
L 444.607146 439.590848 
L 444.902501 439.590848 
L 445.050179 404.091727 
L 445.345534 404.091727 
L 445.493212 484.232727 
L 445.640889 335.930892 
L 445.788567 335.930892 
L 445.936245 484.232727 
L 446.083922 484.232727 
L 446.2316 376.6004 
L 446.379277 376.6004 
L 446.526955 484.232727 
L 446.674633 413.486699 
L 446.82231 484.232727 
L 447.560699 484.232727 
L 447.708376 424.079687 
L 447.856054 275.777851 
L 448.003732 275.777851 
L 448.151409 424.079687 
L 448.299087 423.512205 
L 448.446765 423.512205 
L 448.594442 404.091727 
L 449.185153 404.091727 
L 449.33283 394.570648 
L 449.480508 284.416181 
L 449.628186 374.07826 
L 449.775863 374.07826 
L 449.923541 313.92522 
L 450.218896 313.92522 
L 450.366574 484.232727 
L 450.957285 484.232727 
L 451.25264 241.5398 
L 451.400318 484.232727 
L 451.695673 484.232727 
L 451.843351 413.486699 
L 452.286383 413.486699 
L 452.434061 484.232727 
L 452.581739 479.188447 
L 452.729416 479.188447 
L 452.877094 484.232727 
L 453.172449 425.592971 
L 453.320127 425.592971 
L 453.467805 439.590848 
L 453.615482 362.287255 
L 453.910838 362.287255 
L 454.058515 346.776094 
L 454.206193 424.079687 
L 454.353871 275.777851 
L 454.501548 360.458704 
L 454.649226 332.462949 
L 454.796904 392.61599 
L 454.944581 394.570648 
L 455.092259 284.416181 
L 455.239936 394.570648 
L 455.387614 413.486699 
L 455.535292 394.570648 
L 455.682969 284.416181 
L 455.830647 374.07826 
L 456.126002 374.07826 
L 456.27368 460.020183 
L 456.864391 460.020183 
L 457.012068 392.61599 
L 457.159746 484.232727 
L 457.455101 484.232727 
L 457.602779 423.512205 
L 457.898134 423.512205 
L 458.045812 392.61599 
L 458.193489 423.512205 
L 459.374911 423.512205 
L 459.522588 484.232727 
L 459.817944 484.232727 
L 459.965621 479.188447 
L 460.113299 479.188447 
L 460.260977 484.232727 
L 460.408654 484.232727 
L 460.556332 452.516816 
L 460.851687 452.516816 
L 461.147042 346.208612 
L 461.29472 484.232727 
L 461.442398 423.512205 
L 461.590075 423.512205 
L 461.737753 484.232727 
L 461.885431 374.07826 
L 462.033108 374.07826 
L 462.180786 484.232727 
L 462.328464 484.232727 
L 462.476141 392.61599 
L 462.623819 413.486699 
L 462.919174 413.486699 
L 463.066852 479.188447 
L 463.21453 484.232727 
L 463.362207 484.232727 
L 463.509885 376.6004 
L 463.657563 376.6004 
L 463.80524 484.232727 
L 464.248273 484.232727 
L 464.395951 460.020183 
L 464.543628 460.020183 
L 464.691306 484.232727 
L 464.838984 484.232727 
L 464.986661 374.07826 
L 465.134339 374.07826 
L 465.282017 241.5398 
L 465.429694 351.694267 
L 465.577372 351.694267 
L 465.72505 439.590848 
L 465.872727 379.437808 
L 466.020405 484.232727 
L 466.168083 452.516816 
L 466.463438 265.058756 
L 466.611116 296.774667 
L 466.758793 484.232727 
L 466.906471 468.406298 
L 467.201826 468.406298 
L 467.349504 484.232727 
L 467.497181 452.516816 
L 467.644859 342.362349 
L 467.792537 342.362349 
L 467.940214 374.07826 
L 468.087892 484.232727 
L 468.23557 354.342514 
L 468.383247 484.232727 
L 468.530925 484.232727 
L 468.678603 420.611744 
L 468.82628 420.611744 
L 468.973958 362.539469 
L 469.121636 355.414424 
L 469.416991 484.232727 
L 469.564669 392.61599 
L 469.712346 392.61599 
L 469.860024 315.312397 
L 470.007701 315.312397 
L 470.155379 406.929134 
L 470.303057 354.342514 
L 471.041445 354.342514 
L 471.189123 484.232727 
L 471.484478 484.232727 
L 471.632156 394.570648 
L 471.779833 425.592971 
L 471.927511 484.232727 
L 472.370544 484.232727 
L 472.518222 468.406298 
L 472.665899 468.406298 
L 472.813577 404.785315 
L 472.961254 439.590848 
L 473.108932 439.590848 
L 473.25661 423.512205 
L 473.404287 335.930892 
L 473.699643 335.930892 
L 473.84732 484.232727 
L 473.994998 484.232727 
L 474.142676 406.929134 
L 474.290353 484.232727 
L 474.585709 484.232727 
L 474.733386 374.07826 
L 474.881064 413.486699 
L 475.028742 484.232727 
L 475.176419 484.232727 
L 475.471775 334.543715 
L 475.619452 460.020183 
L 475.76713 351.694267 
L 475.914807 484.232727 
L 476.210163 334.417608 
L 476.35784 334.417608 
L 476.653196 484.232727 
L 476.800873 394.570648 
L 476.948551 484.232727 
L 477.243906 484.232727 
L 477.391584 426.160452 
L 477.539262 484.232727 
L 477.686939 354.342514 
L 477.982295 354.342514 
L 478.129972 376.6004 
L 478.27765 376.6004 
L 478.573005 294.189474 
L 479.016038 294.189474 
L 479.163716 354.342514 
L 479.311393 354.342514 
L 479.459071 484.232727 
L 479.606749 354.342514 
L 479.754426 354.342514 
L 479.902104 479.188447 
L 480.049782 479.188447 
L 480.197459 401.884854 
L 480.345137 484.232727 
L 480.492815 392.61599 
L 481.083525 392.61599 
L 481.231203 484.232727 
L 481.378881 484.232727 
L 481.674236 353.333658 
L 481.821913 413.486699 
L 481.969591 413.486699 
L 482.117269 484.232727 
L 482.412624 404.091727 
L 482.560302 484.232727 
L 482.707979 392.61599 
L 483.003335 392.61599 
L 483.151012 460.020183 
L 483.29869 382.71659 
L 483.446368 460.020183 
L 483.594045 460.020183 
L 483.741723 351.694267 
L 484.037078 351.694267 
L 484.184756 484.232727 
L 484.332434 413.486699 
L 484.480111 484.232727 
L 484.627789 439.590848 
L 485.366177 439.590848 
L 485.513855 484.232727 
L 485.661532 484.232727 
L 485.80921 423.512205 
L 485.956888 423.512205 
L 486.104565 363.359165 
L 486.252243 424.079687 
L 486.547598 312.222775 
L 486.695276 404.091727 
L 487.138309 404.091727 
L 487.285987 340.470744 
L 487.433664 420.611744 
L 487.729019 420.611744 
L 487.876697 335.930892 
L 488.024375 406.929134 
L 488.172052 354.342514 
L 488.31973 392.61599 
L 488.467408 315.312397 
L 489.205796 315.312397 
L 489.353474 343.308151 
L 489.501151 343.308151 
L 489.648829 327.481722 
L 489.944184 468.406298 
L 490.091862 410.334023 
L 490.239539 410.334023 
L 490.387217 468.406298 
L 490.534895 358.251831 
L 490.682572 354.342514 
L 490.83025 404.091727 
L 491.125605 351.694267 
L 491.273283 484.232727 
L 491.863994 484.232727 
L 492.011671 468.406298 
L 492.159349 468.406298 
L 492.307027 484.232727 
L 492.454704 484.232727 
L 492.602382 420.611744 
L 493.045415 420.611744 
L 493.193092 415.567464 
L 493.34077 479.188447 
L 493.488448 484.232727 
L 494.079158 484.232727 
L 494.226836 420.611744 
L 494.374514 484.232727 
L 494.522191 484.232727 
L 494.669869 425.592971 
L 494.817547 468.406298 
L 495.112902 404.091727 
L 495.408257 404.091727 
L 495.555935 346.019452 
L 495.703613 346.019452 
L 495.85129 426.160452 
L 495.998968 401.947908 
L 496.146645 484.232727 
L 496.294323 484.232727 
L 496.442001 404.091727 
L 496.885034 404.091727 
L 497.032711 484.232727 
L 497.180389 351.694267 
L 497.328067 479.188447 
L 497.7711 479.188447 
L 497.918777 415.567464 
L 498.066455 415.567464 
L 498.214133 479.188447 
L 498.36181 479.188447 
L 498.509488 376.6004 
L 498.804843 376.6004 
L 498.952521 484.232727 
L 499.100198 376.6004 
L 499.247876 484.232727 
L 499.395554 460.020183 
L 499.690909 338.326925 
L 499.838587 484.232727 
L 499.986264 479.188447 
L 500.133942 479.188447 
L 500.28162 419.035407 
L 500.429297 408.253258 
L 500.724653 408.253258 
L 500.87233 399.867142 
L 501.020008 343.938686 
L 501.167686 343.938686 
L 501.315363 424.079687 
L 501.463041 360.458704 
L 501.610719 360.458704 
L 501.758396 484.232727 
L 501.906074 413.486699 
L 502.053751 484.232727 
L 502.201429 460.020183 
L 502.349107 460.020183 
L 502.496784 484.232727 
L 502.644462 452.516816 
L 502.79214 388.895833 
L 502.939817 388.895833 
L 503.087495 452.516816 
L 503.235173 452.516816 
L 503.38285 484.232727 
L 503.678206 484.232727 
L 503.825883 479.188447 
L 503.973561 484.232727 
L 504.121239 484.232727 
L 504.268916 424.079687 
L 504.416594 424.079687 
L 504.564272 484.232727 
L 505.007304 484.232727 
L 505.154982 413.486699 
L 505.30266 484.232727 
L 505.598015 291.541227 
L 505.745693 291.541227 
L 505.89337 460.020183 
L 506.041048 396.3992 
L 506.336403 396.3992 
L 506.484081 484.232727 
L 506.631759 484.232727 
L 506.779436 425.592971 
L 506.927114 425.592971 
L 507.074792 361.971988 
L 507.222469 361.971988 
L 507.370147 484.232727 
L 507.665502 484.232727 
L 507.81318 423.512205 
L 507.960857 423.512205 
L 508.108535 484.232727 
L 508.551568 484.232727 
L 508.699246 468.406298 
L 508.994601 468.406298 
L 509.142279 484.232727 
L 509.289956 394.570648 
L 509.437634 484.232727 
L 509.585312 479.188447 
L 509.732989 484.232727 
L 509.880667 406.929134 
L 510.028345 484.232727 
L 510.176022 484.232727 
L 510.3237 452.516816 
L 510.471378 484.232727 
L 510.619055 413.486699 
L 510.766733 484.232727 
L 510.91441 376.6004 
L 511.062088 484.232727 
L 511.505121 484.232727 
L 511.652799 392.61599 
L 511.800476 484.232727 
L 511.948154 484.232727 
L 512.095832 394.570648 
L 512.243509 484.232727 
L 512.391187 354.342514 
L 512.686542 354.342514 
L 512.83422 460.020183 
L 512.981898 396.3992 
L 513.129575 396.3992 
L 513.277253 374.07826 
L 513.424931 374.07826 
L 513.572608 241.5398 
L 513.720286 288.073284 
L 514.015641 288.073284 
L 514.163319 484.232727 
L 514.754029 484.232727 
L 514.901707 425.592971 
L 515.34474 425.592971 
L 515.492418 484.232727 
L 515.640095 479.188447 
L 515.787773 484.232727 
L 515.935451 452.516816 
L 516.083128 484.232727 
L 516.378484 318.528125 
L 516.673839 318.528125 
L 516.821516 484.232727 
L 516.969194 484.232727 
L 517.116872 423.512205 
L 517.264549 423.512205 
L 517.412227 484.232727 
L 517.559905 404.091727 
L 517.707582 484.232727 
L 517.85526 484.232727 
L 518.002938 439.590848 
L 518.445971 439.590848 
L 518.593648 484.232727 
L 518.741326 424.079687 
L 518.889004 484.232727 
L 519.036681 452.516816 
L 519.184359 452.516816 
L 519.332037 425.592971 
L 519.479714 484.232727 
L 520.513458 484.232727 
L 520.661135 394.570648 
L 520.808813 376.6004 
L 521.104168 277.858617 
L 521.251846 374.07826 
L 521.399524 335.930892 
L 521.547201 354.342514 
L 521.694879 354.342514 
L 521.842557 460.020183 
L 521.990234 484.232727 
L 522.137912 468.406298 
L 522.28559 391.102706 
L 522.433267 406.929134 
L 522.580945 336.183106 
L 523.171655 336.183106 
L 523.319333 413.486699 
L 523.467011 355.414424 
L 523.614688 355.414424 
L 523.762366 336.498373 
L 523.910044 336.498373 
L 524.057721 426.160452 
L 524.205399 426.160452 
L 524.353077 365.43993 
L 524.500754 365.43993 
L 524.648432 484.232727 
L 524.79611 335.930892 
L 525.239143 335.930892 
L 525.534498 460.020183 
L 525.682175 484.232727 
L 525.829853 439.590848 
L 525.977531 439.590848 
L 526.125208 379.437808 
L 526.272886 439.590848 
L 526.420564 452.516816 
L 526.715919 452.516816 
L 526.863597 479.188447 
L 527.011274 479.188447 
L 527.158952 394.570648 
L 527.30663 484.232727 
L 527.749663 484.232727 
L 527.89734 404.091727 
L 528.045018 484.232727 
L 528.192696 484.232727 
L 528.488051 366.007412 
L 528.635728 366.007412 
L 528.783406 305.28689 
L 528.931084 354.342514 
L 529.078761 484.232727 
L 529.226439 484.232727 
L 529.374117 460.020183 
L 529.521794 354.342514 
L 529.669472 354.342514 
L 529.81715 335.930892 
L 529.964827 335.930892 
L 530.112505 484.232727 
L 530.260183 484.232727 
L 530.40786 351.694267 
L 530.555538 351.694267 
L 530.703216 335.930892 
L 530.998571 335.930892 
L 531.146249 277.858617 
L 531.293926 277.858617 
L 531.441604 334.417608 
L 531.589281 334.417608 
L 532.032314 484.232727 
L 532.179992 426.160452 
L 532.32767 426.160452 
L 532.475347 410.334023 
L 532.623025 410.334023 
L 532.770703 484.232727 
L 532.91838 376.6004 
L 533.066058 484.232727 
L 533.213736 468.406298 
L 533.656769 468.406298 
L 533.952124 354.342514 
L 534.247479 354.342514 
L 534.395157 351.694267 
L 534.542834 351.694267 
L 534.690512 319.978356 
L 534.83819 484.232727 
L 535.133545 484.232727 
L 535.281223 394.570648 
L 535.4289 394.570648 
L 535.576578 330.949665 
L 536.167289 330.949665 
L 536.462644 484.232727 
L 536.610322 479.188447 
L 537.201032 479.188447 
L 537.34871 351.694267 
L 538.087098 351.694267 
L 538.234776 484.232727 
L 538.677809 294.189474 
L 538.825486 294.189474 
L 538.973164 354.342514 
L 539.120842 468.406298 
L 539.268519 376.6004 
L 539.711552 376.6004 
L 539.85923 406.929134 
L 540.006908 274.390674 
L 540.154585 406.929134 
L 540.302263 406.929134 
L 540.44994 484.232727 
L 541.040651 484.232727 
L 541.188329 424.079687 
L 541.336006 419.035407 
L 541.483684 484.232727 
L 541.631362 420.611744 
L 541.779039 484.232727 
L 541.926717 426.160452 
L 542.074395 484.232727 
L 542.222072 484.232727 
L 542.517428 401.947908 
L 542.665105 401.947908 
L 542.812783 376.6004 
L 542.960461 376.6004 
L 543.108138 479.188447 
L 543.403493 293.621992 
L 543.846526 293.621992 
L 543.994204 426.160452 
L 544.141882 365.43993 
L 544.289559 365.43993 
L 544.437237 318.528125 
L 544.584915 318.528125 
L 544.732592 484.232727 
L 544.88027 484.232727 
L 545.027948 392.61599 
L 545.175625 404.091727 
L 545.323303 376.6004 
L 545.470981 392.61599 
L 545.618658 392.61599 
L 545.766336 484.232727 
L 546.061691 484.232727 
L 546.357046 374.07826 
L 546.504724 241.5398 
L 546.652402 241.5398 
L 547.095435 104.083167 
L 547.686145 394.570648 
L 547.833823 394.570648 
L 547.981501 336.498373 
L 548.129178 336.498373 
L 548.276856 304.782462 
L 548.424534 304.782462 
L 548.572211 394.444541 
L 548.719889 261.906081 
L 548.867566 261.906081 
L 549.015244 394.444541 
L 549.162922 335.930892 
L 549.310599 413.486699 
L 549.605955 294.189474 
L 549.90131 294.189474 
L 550.048988 313.92522 
L 550.196665 374.07826 
L 550.492021 374.07826 
L 550.639698 342.362349 
L 551.230409 484.232727 
L 551.378087 351.694267 
L 551.525764 351.694267 
L 551.673442 484.232727 
L 551.821119 376.6004 
L 551.968797 392.61599 
L 552.116475 394.570648 
L 552.264152 354.342514 
L 552.41183 423.512205 
L 552.559508 365.43993 
L 552.707185 365.43993 
L 552.854863 351.694267 
L 553.297896 351.694267 
L 553.445574 262.032188 
L 553.593251 262.032188 
L 553.888607 484.232727 
L 554.036284 484.232727 
L 554.183962 468.406298 
L 554.33164 484.232727 
L 554.774672 484.232727 
L 554.92235 452.516816 
L 555.070028 319.978356 
L 555.365383 319.978356 
L 555.660738 184.728595 
L 555.808416 262.032188 
L 556.694482 262.032188 
L 556.84216 351.694267 
L 557.285193 351.694267 
L 557.580548 261.906081 
L 557.875903 261.906081 
L 558.023581 216.318399 
L 558.614291 216.318399 
L 558.909647 426.160452 
L 559.057324 366.007412 
L 559.205002 366.007412 
L 559.35268 258.375085 
L 559.500357 258.375085 
L 559.648035 318.528125 
L 559.795713 318.528125 
L 559.94339 426.160452 
L 560.091068 336.498373 
L 560.238746 425.592971 
L 560.386423 348.289378 
L 560.681778 348.289378 
L 560.829456 319.978356 
L 560.977134 484.232727 
L 561.124811 425.592971 
L 561.272489 484.232727 
L 561.715522 262.032188 
L 561.8632 201.879147 
L 562.010877 201.879147 
L 562.158555 291.541227 
L 562.749266 291.541227 
L 562.896943 351.694267 
L 563.044621 351.694267 
L 563.192299 484.232727 
L 563.339976 460.020183 
L 563.635331 330.949665 
L 563.783009 394.570648 
L 563.930687 334.417608 
L 564.078364 334.417608 
L 564.226042 354.342514 
L 564.521397 354.342514 
L 564.669075 392.61599 
L 565.259786 392.61599 
L 565.407463 423.512205 
L 565.555141 423.512205 
L 565.702819 484.232727 
L 565.850496 406.929134 
L 565.998174 484.232727 
L 566.145852 425.592971 
L 566.293529 425.592971 
L 566.441207 484.232727 
L 566.736562 484.232727 
L 566.88424 376.6004 
L 567.031917 376.6004 
L 567.179595 479.188447 
L 567.770306 479.188447 
L 567.917983 421.116172 
L 568.065661 479.188447 
L 568.213339 479.188447 
L 568.804049 270.670518 
L 568.951727 392.363776 
L 569.099405 259.825315 
L 569.39476 259.825315 
L 569.542437 291.541227 
L 569.690115 214.237634 
L 570.576181 214.237634 
L 570.723859 291.541227 
L 570.871536 181.386759 
L 571.609925 181.386759 
L 571.757602 123.314485 
L 571.90528 291.541227 
L 572.052958 291.541227 
L 572.348313 169.847969 
L 572.643668 169.847969 
L 572.791346 227.920244 
L 572.939023 227.920244 
L 573.086701 291.541227 
L 573.382056 291.541227 
L 573.529734 351.694267 
L 574.120445 351.694267 
L 574.268122 293.621992 
L 574.858833 293.621992 
L 575.154188 374.07826 
L 575.449543 374.07826 
L 575.597221 310.457277 
L 576.335609 310.457277 
L 576.483287 392.61599 
L 576.92632 392.61599 
L 577.073998 394.570648 
L 577.221675 317.267055 
L 577.369353 406.929134 
L 577.517031 362.287255 
L 577.664708 381.518573 
L 577.960064 381.518573 
L 578.107741 335.930892 
L 580.618261 335.930892 
L 580.765939 484.232727 
L 580.913617 439.590848 
L 581.061294 439.590848 
L 581.208972 452.516816 
L 581.504327 452.516816 
L 581.652005 484.232727 
L 581.799682 374.07826 
L 581.94736 484.232727 
L 582.095038 439.590848 
L 582.390393 439.590848 
L 582.538071 379.437808 
L 582.685748 379.437808 
L 582.833426 294.189474 
L 582.981104 366.007412 
L 583.276459 366.007412 
L 583.424137 484.232727 
L 583.571814 479.188447 
L 583.86717 479.188447 
L 584.014847 484.232727 
L 584.162525 484.232727 
L 584.310202 394.570648 
L 584.45788 394.570648 
L 584.605558 262.032188 
L 584.900913 262.032188 
L 585.048591 376.6004 
L 585.343946 376.6004 
L 585.491624 318.528125 
L 585.639301 365.43993 
L 585.786979 301.818947 
L 586.082334 301.818947 
L 586.230012 362.539469 
L 586.37769 184.728595 
L 591.841763 184.728595 
L 591.98944 274.390674 
L 593.170861 274.390674 
L 593.318539 184.728595 
L 597.158158 184.728595 
L 597.305836 274.390674 
L 597.453513 216.318399 
L 597.896546 216.318399 
L 598.044224 183.467525 
L 598.191902 183.467525 
L 598.339579 235.864985 
L 599.668678 235.864985 
L 599.816356 226.343906 
L 600.259389 226.343906 
L 600.407066 316.005985 
L 600.554744 316.005985 
L 600.702422 277.858617 
L 601.883843 277.858617 
L 602.03152 335.930892 
L 602.474553 335.930892 
L 602.622231 484.232727 
L 602.769909 354.342514 
L 602.917586 374.07826 
L 603.065264 313.92522 
L 603.655975 313.92522 
L 603.803652 282.209308 
L 603.95133 282.209308 
L 604.099008 233.784219 
L 604.394363 233.784219 
L 604.54204 250.304237 
L 606.314172 250.304237 
L 606.46185 310.457277 
L 606.609528 310.457277 
L 606.757205 374.07826 
L 607.495593 374.07826 
L 607.643271 342.362349 
L 608.233982 342.362349 
L 608.381659 284.416181 
L 609.415403 284.416181 
L 609.563081 241.5398 
L 609.710758 241.5398 
L 609.858436 183.467525 
L 611.039857 183.467525 
L 611.187535 284.290074 
L 611.48289 284.290074 
L 611.630568 206.986481 
L 612.073601 206.986481 
L 612.221278 146.833441 
L 613.99341 146.833441 
L 614.141088 88.887273 
L 615.322509 88.887273 
L 615.470187 146.959548 
L 618.276062 146.959548 
L 618.42374 88.887273 
L 622.411036 88.887273 
L 622.558714 146.959548 
L 626.398333 146.959548 
L 626.54601 207.112588 
L 630.237952 207.112588 
L 630.385629 146.959548 
L 633.634538 146.959548 
L 633.782215 88.887273 
L 871.690909 88.887273 
L 871.690909 88.887273 
" style="fill:none;stroke:#8dd3c7;stroke-linecap:square;stroke-width:1.5;"/>
   </g>
   <g id="line2d_15">
    <path clip-path="url(#p2da0997e11)" d="M 161.509091 335.930892 
L 163.281223 335.930892 
L 163.4289 241.5398 
L 178.492021 241.5398 
L 178.639698 214.237634 
L 180.116475 214.237634 
L 180.264152 156.165359 
L 546.800079 156.165359 
L 546.947757 104.083167 
L 613.99341 104.083167 
L 614.141088 88.887273 
L 871.690909 88.887273 
L 871.690909 88.887273 
" style="fill:none;stroke:#feffb3;stroke-linecap:square;stroke-width:1.5;"/>
   </g>
   <g id="line2d_16">
    <path clip-path="url(#p2da0997e11)" d="M 161.509091 335.930892 
L 162.83819 335.930892 
L 162.985867 341.757319 
L 164.314966 341.757319 
L 164.462644 347.354839 
L 165.791743 347.354839 
L 165.93942 352.732447 
L 167.268519 352.732447 
L 167.416197 357.898781 
L 168.745296 357.898781 
L 168.892973 362.862142 
L 170.222072 362.862142 
L 170.36975 367.630504 
L 171.698849 367.630504 
L 171.846526 372.211528 
L 173.175625 372.211528 
L 173.323303 376.612575 
L 174.652402 376.612575 
L 174.800079 380.840716 
L 176.129178 380.840716 
L 176.276856 384.902743 
L 177.605955 384.902743 
L 177.753632 388.805182 
L 179.082731 388.805182 
L 179.230409 392.554304 
L 180.559508 392.554304 
L 180.707185 396.156131 
L 182.036284 396.156131 
L 182.183962 399.616452 
L 183.513061 399.616452 
L 183.660738 402.940824 
L 184.989837 402.940824 
L 185.137515 406.13459 
L 186.466614 406.13459 
L 186.614291 409.202881 
L 187.94339 409.202881 
L 188.091068 412.150625 
L 189.420167 412.150625 
L 189.567844 414.98256 
L 190.896943 414.98256 
L 191.044621 417.703235 
L 192.37372 417.703235 
L 192.521397 420.317021 
L 193.850496 420.317021 
L 193.998174 422.828117 
L 195.327273 422.828117 
L 195.47495 425.240558 
L 196.804049 425.240558 
L 196.951727 427.558221 
L 198.280826 427.558221 
L 198.428503 429.784827 
L 199.757602 429.784827 
L 199.90528 431.923956 
L 201.234379 431.923956 
L 201.382056 433.979044 
L 202.711155 433.979044 
L 202.858833 435.953392 
L 204.187932 435.953392 
L 204.335609 437.850172 
L 205.664708 437.850172 
L 205.812386 439.672433 
L 207.141485 439.672433 
L 207.289162 441.423101 
L 208.618261 441.423101 
L 208.765939 443.104989 
L 210.095038 443.104989 
L 210.242715 444.720801 
L 211.571814 444.720801 
L 211.719492 446.27313 
L 213.048591 446.27313 
L 213.196268 447.764473 
L 214.525367 447.764473 
L 214.673045 449.197224 
L 216.002144 449.197224 
L 216.149821 450.573686 
L 217.47892 450.573686 
L 217.626598 451.89607 
L 218.955697 451.89607 
L 219.103374 453.1665 
L 220.432473 453.1665 
L 220.580151 454.387019 
L 221.90925 454.387019 
L 222.056927 455.559586 
L 223.386026 455.559586 
L 223.533704 456.686085 
L 224.862803 456.686085 
L 225.01048 457.768327 
L 226.339579 457.768327 
L 226.487257 458.808051 
L 227.816356 458.808051 
L 227.964033 459.806926 
L 229.293132 459.806926 
L 229.44081 460.766558 
L 230.769909 460.766558 
L 230.917586 461.688488 
L 232.246685 461.688488 
L 232.394363 462.574198 
L 233.723462 462.574198 
L 233.871139 463.42511 
L 235.200238 463.42511 
L 235.347916 464.242592 
L 236.677015 464.242592 
L 236.824692 465.027957 
L 238.153791 465.027957 
L 238.301469 465.782467 
L 239.630568 465.782467 
L 239.778245 466.507334 
L 241.107344 466.507334 
L 241.255022 467.203722 
L 242.584121 467.203722 
L 242.731798 467.872751 
L 244.060897 467.872751 
L 244.208575 468.515496 
L 245.537674 468.515496 
L 245.685351 469.132989 
L 247.01445 469.132989 
L 247.162128 469.726222 
L 248.491227 469.726222 
L 248.638904 470.296148 
L 249.968003 470.296148 
L 250.115681 470.843683 
L 251.44478 470.843683 
L 251.592457 471.369707 
L 252.921556 471.369707 
L 253.069234 471.875064 
L 254.398333 471.875064 
L 254.54601 472.360567 
L 255.875109 472.360567 
L 256.022787 472.826996 
L 257.351886 472.826996 
L 257.499563 473.275101 
L 258.828662 473.275101 
L 258.97634 473.7056 
L 260.305439 473.7056 
L 260.453116 474.119186 
L 261.782215 474.119186 
L 261.929893 474.516523 
L 263.258992 474.516523 
L 263.406669 474.898249 
L 264.735768 474.898249 
L 264.883446 475.264979 
L 266.212545 475.264979 
L 266.360222 475.6173 
L 267.689321 475.6173 
L 267.836999 475.95578 
L 269.166098 475.95578 
L 269.313775 476.280962 
L 270.642874 476.280962 
L 270.790552 476.593368 
L 272.119651 476.593368 
L 272.267328 476.8935 
L 273.596427 476.8935 
L 273.744105 477.181841 
L 275.073204 477.181841 
L 275.220881 477.458853 
L 276.54998 477.458853 
L 276.697658 477.724983 
L 278.026757 477.724983 
L 278.174434 477.980657 
L 279.503533 477.980657 
L 279.651211 478.226286 
L 280.98031 478.226286 
L 281.127987 478.462264 
L 282.457086 478.462264 
L 282.604764 478.688972 
L 283.933863 478.688972 
L 284.08154 478.906773 
L 285.410639 478.906773 
L 285.558317 479.116017 
L 286.887416 479.116017 
L 287.035093 479.317041 
L 288.364192 479.317041 
L 288.51187 479.510166 
L 289.840969 479.510166 
L 289.988646 479.695705 
L 291.317745 479.695705 
L 291.465423 479.873953 
L 292.794522 479.873953 
L 292.942199 480.045199 
L 294.271298 480.045199 
L 294.566653 480.209717 
L 295.748075 480.209717 
L 296.04343 480.367772 
L 297.224851 480.367772 
L 297.520206 480.519617 
L 298.701628 480.519617 
L 298.996983 480.665496 
L 300.178404 480.665496 
L 300.473759 480.805644 
L 301.655181 480.805644 
L 301.950536 480.940286 
L 303.131957 480.940286 
L 303.427312 481.069638 
L 304.608734 481.069638 
L 304.904089 481.193909 
L 306.08551 481.193909 
L 306.380865 481.313296 
L 307.562287 481.313296 
L 307.857642 481.427994 
L 310.51584 481.538185 
L 310.811195 481.644047 
L 313.469393 481.745751 
L 313.764748 481.843458 
L 316.422946 481.937327 
L 316.718301 482.027508 
L 319.376499 482.114145 
L 319.671854 482.197379 
L 322.330052 482.277343 
L 322.625407 482.354166 
L 325.283605 482.42797 
L 325.57896 482.498875 
L 328.237158 482.566994 
L 328.532513 482.632436 
L 331.190711 482.695308 
L 331.486066 482.75571 
L 334.144264 482.813738 
L 334.587297 482.869487 
L 338.574593 482.9745 
L 339.017626 483.023932 
L 343.004923 483.117048 
L 343.447956 483.16088 
L 347.435252 483.243447 
L 347.878285 483.282313 
L 353.342358 483.389988 
L 353.933069 483.423097 
L 359.249464 483.514823 
L 359.987852 483.543028 
L 366.633347 483.645193 
L 367.371735 483.668275 
L 375.494006 483.770778 
L 376.527749 483.788927 
L 387.308218 483.897499 
L 388.637316 483.910669 
L 403.552759 484.017018 
L 405.767924 484.033635 
L 436.041842 484.143413 
L 441.21056 484.156643 
L 871.690909 484.232727 
L 871.690909 484.232727 
" style="fill:none;stroke:#bfbbd9;stroke-linecap:square;stroke-width:1.5;"/>
   </g>
   <g id="patch_3">
    <path d="M 126 504 
L 126 69.12 
" style="fill:none;stroke:#ffffff;stroke-linecap:square;stroke-linejoin:miter;stroke-width:0.8;"/>
   </g>
   <g id="patch_4">
    <path d="M 907.2 504 
L 907.2 69.12 
" style="fill:none;stroke:#ffffff;stroke-linecap:square;stroke-linejoin:miter;stroke-width:0.8;"/>
   </g>
   <g id="patch_5">
    <path d="M 126 504 
L 907.2 504 
" style="fill:none;stroke:#ffffff;stroke-linecap:square;stroke-linejoin:miter;stroke-width:0.8;"/>
   </g>
   <g id="patch_6">
    <path d="M 126 69.12 
L 907.2 69.12 
" style="fill:none;stroke:#ffffff;stroke-linecap:square;stroke-linejoin:miter;stroke-width:0.8;"/>
   </g>
   <g id="text_15">
    <!-- instance 25 with error 0.0 -->
    <g style="fill:#ffffff;" transform="translate(439.126875 63.12)scale(0.12 -0.12)">
     <defs>
      <path d="M 2834 3397 
L 2834 2853 
Q 2591 2978 2328 3040 
Q 2066 3103 1784 3103 
Q 1356 3103 1142 2972 
Q 928 2841 928 2578 
Q 928 2378 1081 2264 
Q 1234 2150 1697 2047 
L 1894 2003 
Q 2506 1872 2764 1633 
Q 3022 1394 3022 966 
Q 3022 478 2636 193 
Q 2250 -91 1575 -91 
Q 1294 -91 989 -36 
Q 684 19 347 128 
L 347 722 
Q 666 556 975 473 
Q 1284 391 1588 391 
Q 1994 391 2212 530 
Q 2431 669 2431 922 
Q 2431 1156 2273 1281 
Q 2116 1406 1581 1522 
L 1381 1569 
Q 847 1681 609 1914 
Q 372 2147 372 2553 
Q 372 3047 722 3315 
Q 1072 3584 1716 3584 
Q 2034 3584 2315 3537 
Q 2597 3491 2834 3397 
z
" id="DejaVuSans-73" transform="scale(0.015625)"/>
      <path d="M 3122 3366 
L 3122 2828 
Q 2878 2963 2633 3030 
Q 2388 3097 2138 3097 
Q 1578 3097 1268 2742 
Q 959 2388 959 1747 
Q 959 1106 1268 751 
Q 1578 397 2138 397 
Q 2388 397 2633 464 
Q 2878 531 3122 666 
L 3122 134 
Q 2881 22 2623 -34 
Q 2366 -91 2075 -91 
Q 1284 -91 818 406 
Q 353 903 353 1747 
Q 353 2603 823 3093 
Q 1294 3584 2113 3584 
Q 2378 3584 2631 3529 
Q 2884 3475 3122 3366 
z
" id="DejaVuSans-63" transform="scale(0.015625)"/>
      <path id="DejaVuSans-20" transform="scale(0.015625)"/>
      <path d="M 269 3500 
L 844 3500 
L 1563 769 
L 2278 3500 
L 2956 3500 
L 3675 769 
L 4391 3500 
L 4966 3500 
L 4050 0 
L 3372 0 
L 2619 2869 
L 1863 0 
L 1184 0 
L 269 3500 
z
" id="DejaVuSans-77" transform="scale(0.015625)"/>
      <path d="M 3513 2113 
L 3513 0 
L 2938 0 
L 2938 2094 
Q 2938 2591 2744 2837 
Q 2550 3084 2163 3084 
Q 1697 3084 1428 2787 
Q 1159 2491 1159 1978 
L 1159 0 
L 581 0 
L 581 4863 
L 1159 4863 
L 1159 2956 
Q 1366 3272 1645 3428 
Q 1925 3584 2291 3584 
Q 2894 3584 3203 3211 
Q 3513 2838 3513 2113 
z
" id="DejaVuSans-68" transform="scale(0.015625)"/>
      <path d="M 684 794 
L 1344 794 
L 1344 0 
L 684 0 
L 684 794 
z
" id="DejaVuSans-2e" transform="scale(0.015625)"/>
     </defs>
     <use xlink:href="#DejaVuSans-69"/>
     <use x="27.783203" xlink:href="#DejaVuSans-6e"/>
     <use x="91.162109" xlink:href="#DejaVuSans-73"/>
     <use x="143.261719" xlink:href="#DejaVuSans-74"/>
     <use x="182.470703" xlink:href="#DejaVuSans-61"/>
     <use x="243.75" xlink:href="#DejaVuSans-6e"/>
     <use x="307.128906" xlink:href="#DejaVuSans-63"/>
     <use x="362.109375" xlink:href="#DejaVuSans-65"/>
     <use x="423.632812" xlink:href="#DejaVuSans-20"/>
     <use x="455.419922" xlink:href="#DejaVuSans-32"/>
     <use x="519.042969" xlink:href="#DejaVuSans-35"/>
     <use x="582.666016" xlink:href="#DejaVuSans-20"/>
     <use x="614.453125" xlink:href="#DejaVuSans-77"/>
     <use x="696.240234" xlink:href="#DejaVuSans-69"/>
     <use x="724.023438" xlink:href="#DejaVuSans-74"/>
     <use x="763.232422" xlink:href="#DejaVuSans-68"/>
     <use x="826.611328" xlink:href="#DejaVuSans-20"/>
     <use x="858.398438" xlink:href="#DejaVuSans-65"/>
     <use x="919.921875" xlink:href="#DejaVuSans-72"/>
     <use x="959.285156" xlink:href="#DejaVuSans-72"/>
     <use x="998.148438" xlink:href="#DejaVuSans-6f"/>
     <use x="1059.330078" xlink:href="#DejaVuSans-72"/>
     <use x="1100.443359" xlink:href="#DejaVuSans-20"/>
     <use x="1132.230469" xlink:href="#DejaVuSans-30"/>
     <use x="1195.853516" xlink:href="#DejaVuSans-2e"/>
     <use x="1227.640625" xlink:href="#DejaVuSans-30"/>
    </g>
   </g>
   <g id="legend_1">
    <g id="patch_7">
     <path d="M 805.348438 499 
L 900.2 499 
Q 902.2 499 902.2 497 
L 902.2 453.965625 
Q 902.2 451.965625 900.2 451.965625 
L 805.348438 451.965625 
Q 803.348438 451.965625 803.348438 453.965625 
L 803.348438 497 
Q 803.348438 499 805.348438 499 
z
" style="opacity:0.8;stroke:#cccccc;stroke-linejoin:miter;"/>
    </g>
    <g id="line2d_17">
     <path d="M 807.348438 460.064062 
L 827.348438 460.064062 
" style="fill:none;stroke:#8dd3c7;stroke-linecap:square;stroke-width:1.5;"/>
    </g>
    <g id="line2d_18"/>
    <g id="text_16">
     <!-- cost -->
     <g style="fill:#ffffff;" transform="translate(835.348438 463.564062)scale(0.1 -0.1)">
      <use xlink:href="#DejaVuSans-63"/>
      <use x="54.980469" xlink:href="#DejaVuSans-6f"/>
      <use x="116.162109" xlink:href="#DejaVuSans-73"/>
      <use x="168.261719" xlink:href="#DejaVuSans-74"/>
     </g>
    </g>
    <g id="line2d_19">
     <path d="M 807.348438 474.742188 
L 827.348438 474.742188 
" style="fill:none;stroke:#feffb3;stroke-linecap:square;stroke-width:1.5;"/>
    </g>
    <g id="line2d_20"/>
    <g id="text_17">
     <!-- best cost -->
     <g style="fill:#ffffff;" transform="translate(835.348438 478.242188)scale(0.1 -0.1)">
      <defs>
       <path d="M 3116 1747 
Q 3116 2381 2855 2742 
Q 2594 3103 2138 3103 
Q 1681 3103 1420 2742 
Q 1159 2381 1159 1747 
Q 1159 1113 1420 752 
Q 1681 391 2138 391 
Q 2594 391 2855 752 
Q 3116 1113 3116 1747 
z
M 1159 2969 
Q 1341 3281 1617 3432 
Q 1894 3584 2278 3584 
Q 2916 3584 3314 3078 
Q 3713 2572 3713 1747 
Q 3713 922 3314 415 
Q 2916 -91 2278 -91 
Q 1894 -91 1617 61 
Q 1341 213 1159 525 
L 1159 0 
L 581 0 
L 581 4863 
L 1159 4863 
L 1159 2969 
z
" id="DejaVuSans-62" transform="scale(0.015625)"/>
      </defs>
      <use xlink:href="#DejaVuSans-62"/>
      <use x="63.476562" xlink:href="#DejaVuSans-65"/>
      <use x="125" xlink:href="#DejaVuSans-73"/>
      <use x="177.099609" xlink:href="#DejaVuSans-74"/>
      <use x="216.308594" xlink:href="#DejaVuSans-20"/>
      <use x="248.095703" xlink:href="#DejaVuSans-63"/>
      <use x="303.076172" xlink:href="#DejaVuSans-6f"/>
      <use x="364.257812" xlink:href="#DejaVuSans-73"/>
      <use x="416.357422" xlink:href="#DejaVuSans-74"/>
     </g>
    </g>
    <g id="line2d_21">
     <path d="M 807.348438 489.420313 
L 827.348438 489.420313 
" style="fill:none;stroke:#bfbbd9;stroke-linecap:square;stroke-width:1.5;"/>
    </g>
    <g id="line2d_22"/>
    <g id="text_18">
     <!-- temperature -->
     <g style="fill:#ffffff;" transform="translate(835.348438 492.920313)scale(0.1 -0.1)">
      <defs>
       <path d="M 3328 2828 
Q 3544 3216 3844 3400 
Q 4144 3584 4550 3584 
Q 5097 3584 5394 3201 
Q 5691 2819 5691 2113 
L 5691 0 
L 5113 0 
L 5113 2094 
Q 5113 2597 4934 2840 
Q 4756 3084 4391 3084 
Q 3944 3084 3684 2787 
Q 3425 2491 3425 1978 
L 3425 0 
L 2847 0 
L 2847 2094 
Q 2847 2600 2669 2842 
Q 2491 3084 2119 3084 
Q 1678 3084 1418 2786 
Q 1159 2488 1159 1978 
L 1159 0 
L 581 0 
L 581 3500 
L 1159 3500 
L 1159 2956 
Q 1356 3278 1631 3431 
Q 1906 3584 2284 3584 
Q 2666 3584 2933 3390 
Q 3200 3197 3328 2828 
z
" id="DejaVuSans-6d" transform="scale(0.015625)"/>
       <path d="M 1159 525 
L 1159 -1331 
L 581 -1331 
L 581 3500 
L 1159 3500 
L 1159 2969 
Q 1341 3281 1617 3432 
Q 1894 3584 2278 3584 
Q 2916 3584 3314 3078 
Q 3713 2572 3713 1747 
Q 3713 922 3314 415 
Q 2916 -91 2278 -91 
Q 1894 -91 1617 61 
Q 1341 213 1159 525 
z
M 3116 1747 
Q 3116 2381 2855 2742 
Q 2594 3103 2138 3103 
Q 1681 3103 1420 2742 
Q 1159 2381 1159 1747 
Q 1159 1113 1420 752 
Q 1681 391 2138 391 
Q 2594 391 2855 752 
Q 3116 1113 3116 1747 
z
" id="DejaVuSans-70" transform="scale(0.015625)"/>
       <path d="M 544 1381 
L 544 3500 
L 1119 3500 
L 1119 1403 
Q 1119 906 1312 657 
Q 1506 409 1894 409 
Q 2359 409 2629 706 
Q 2900 1003 2900 1516 
L 2900 3500 
L 3475 3500 
L 3475 0 
L 2900 0 
L 2900 538 
Q 2691 219 2414 64 
Q 2138 -91 1772 -91 
Q 1169 -91 856 284 
Q 544 659 544 1381 
z
M 1991 3584 
L 1991 3584 
z
" id="DejaVuSans-75" transform="scale(0.015625)"/>
      </defs>
      <use xlink:href="#DejaVuSans-74"/>
      <use x="39.208984" xlink:href="#DejaVuSans-65"/>
      <use x="100.732422" xlink:href="#DejaVuSans-6d"/>
      <use x="198.144531" xlink:href="#DejaVuSans-70"/>
      <use x="261.621094" xlink:href="#DejaVuSans-65"/>
      <use x="323.144531" xlink:href="#DejaVuSans-72"/>
      <use x="364.257812" xlink:href="#DejaVuSans-61"/>
      <use x="425.537109" xlink:href="#DejaVuSans-74"/>
      <use x="464.746094" xlink:href="#DejaVuSans-75"/>
      <use x="528.125" xlink:href="#DejaVuSans-72"/>
      <use x="566.988281" xlink:href="#DejaVuSans-65"/>
     </g>
    </g>
   </g>
  </g>
 </g>
 <defs>
  <clipPath id="p2da0997e11">
   <rect height="434.88" width="781.2" x="126" y="69.12"/>
  </clipPath>
 </defs>
</svg>
