<?xml version="1.0" encoding="utf-8" standalone="no"?>
<!DOCTYPE svg PUBLIC "-//W3C//DTD SVG 1.1//EN"
  "http://www.w3.org/Graphics/SVG/1.1/DTD/svg11.dtd">
<svg height="576pt" version="1.1" viewBox="0 0 1008 576" width="1008pt" xmlns="http://www.w3.org/2000/svg" xmlns:xlink="http://www.w3.org/1999/xlink">
 <metadata>
  <rdf:RDF xmlns:cc="http://creativecommons.org/ns#" xmlns:dc="http://purl.org/dc/elements/1.1/" xmlns:rdf="http://www.w3.org/1999/02/22-rdf-syntax-ns#">
   <cc:Work>
    <dc:type rdf:resource="http://purl.org/dc/dcmitype/StillImage"/>
    <dc:date>2022-01-08T11:43:54.181355</dc:date>
    <dc:format>image/svg+xml</dc:format>
    <dc:creator>
     <cc:Agent>
      <dc:title>Matplotlib v3.4.3, https://matplotlib.org/</dc:title>
     </cc:Agent>
    </dc:creator>
   </cc:Work>
  </rdf:RDF>
 </metadata>
 <defs>
  <style type="text/css">*{stroke-linecap:butt;stroke-linejoin:round;}</style>
 </defs>
 <g id="figure_1">
  <g id="patch_1">
   <path d="M 0 576 
L 1008 576 
L 1008 0 
L 0 0 
z
"/>
  </g>
  <g id="axes_1">
   <g id="patch_2">
    <path d="M 126 504 
L 907.2 504 
L 907.2 69.12 
L 126 69.12 
z
"/>
   </g>
   <g id="matplotlib.axis_1">
    <g id="xtick_1">
     <g id="line2d_1">
      <defs>
       <path d="M 0 0 
L 0 3.5 
" id="me394dffc08" style="stroke:#ffffff;stroke-width:0.8;"/>
      </defs>
      <g>
       <use style="fill:#ffffff;stroke:#ffffff;stroke-width:0.8;" x="161.509091" xlink:href="#me394dffc08" y="504"/>
      </g>
     </g>
     <g id="text_1">
      <!-- 0 -->
      <g style="fill:#ffffff;" transform="translate(158.327841 518.598438)scale(0.1 -0.1)">
       <defs>
        <path d="M 2034 4250 
Q 1547 4250 1301 3770 
Q 1056 3291 1056 2328 
Q 1056 1369 1301 889 
Q 1547 409 2034 409 
Q 2525 409 2770 889 
Q 3016 1369 3016 2328 
Q 3016 3291 2770 3770 
Q 2525 4250 2034 4250 
z
M 2034 4750 
Q 2819 4750 3233 4129 
Q 3647 3509 3647 2328 
Q 3647 1150 3233 529 
Q 2819 -91 2034 -91 
Q 1250 -91 836 529 
Q 422 1150 422 2328 
Q 422 3509 836 4129 
Q 1250 4750 2034 4750 
z
" id="DejaVuSans-30" transform="scale(0.015625)"/>
       </defs>
       <use xlink:href="#DejaVuSans-30"/>
      </g>
     </g>
    </g>
    <g id="xtick_2">
     <g id="line2d_2">
      <g>
       <use style="fill:#ffffff;stroke:#ffffff;stroke-width:0.8;" x="327.4782" xlink:href="#me394dffc08" y="504"/>
      </g>
     </g>
     <g id="text_2">
      <!-- 1000 -->
      <g style="fill:#ffffff;" transform="translate(314.7532 518.598438)scale(0.1 -0.1)">
       <defs>
        <path d="M 794 531 
L 1825 531 
L 1825 4091 
L 703 3866 
L 703 4441 
L 1819 4666 
L 2450 4666 
L 2450 531 
L 3481 531 
L 3481 0 
L 794 0 
L 794 531 
z
" id="DejaVuSans-31" transform="scale(0.015625)"/>
       </defs>
       <use xlink:href="#DejaVuSans-31"/>
       <use x="63.623047" xlink:href="#DejaVuSans-30"/>
       <use x="127.246094" xlink:href="#DejaVuSans-30"/>
       <use x="190.869141" xlink:href="#DejaVuSans-30"/>
      </g>
     </g>
    </g>
    <g id="xtick_3">
     <g id="line2d_3">
      <g>
       <use style="fill:#ffffff;stroke:#ffffff;stroke-width:0.8;" x="493.447309" xlink:href="#me394dffc08" y="504"/>
      </g>
     </g>
     <g id="text_3">
      <!-- 2000 -->
      <g style="fill:#ffffff;" transform="translate(480.722309 518.598438)scale(0.1 -0.1)">
       <defs>
        <path d="M 1228 531 
L 3431 531 
L 3431 0 
L 469 0 
L 469 531 
Q 828 903 1448 1529 
Q 2069 2156 2228 2338 
Q 2531 2678 2651 2914 
Q 2772 3150 2772 3378 
Q 2772 3750 2511 3984 
Q 2250 4219 1831 4219 
Q 1534 4219 1204 4116 
Q 875 4013 500 3803 
L 500 4441 
Q 881 4594 1212 4672 
Q 1544 4750 1819 4750 
Q 2544 4750 2975 4387 
Q 3406 4025 3406 3419 
Q 3406 3131 3298 2873 
Q 3191 2616 2906 2266 
Q 2828 2175 2409 1742 
Q 1991 1309 1228 531 
z
" id="DejaVuSans-32" transform="scale(0.015625)"/>
       </defs>
       <use xlink:href="#DejaVuSans-32"/>
       <use x="63.623047" xlink:href="#DejaVuSans-30"/>
       <use x="127.246094" xlink:href="#DejaVuSans-30"/>
       <use x="190.869141" xlink:href="#DejaVuSans-30"/>
      </g>
     </g>
    </g>
    <g id="xtick_4">
     <g id="line2d_4">
      <g>
       <use style="fill:#ffffff;stroke:#ffffff;stroke-width:0.8;" x="659.416418" xlink:href="#me394dffc08" y="504"/>
      </g>
     </g>
     <g id="text_4">
      <!-- 3000 -->
      <g style="fill:#ffffff;" transform="translate(646.691418 518.598438)scale(0.1 -0.1)">
       <defs>
        <path d="M 2597 2516 
Q 3050 2419 3304 2112 
Q 3559 1806 3559 1356 
Q 3559 666 3084 287 
Q 2609 -91 1734 -91 
Q 1441 -91 1130 -33 
Q 819 25 488 141 
L 488 750 
Q 750 597 1062 519 
Q 1375 441 1716 441 
Q 2309 441 2620 675 
Q 2931 909 2931 1356 
Q 2931 1769 2642 2001 
Q 2353 2234 1838 2234 
L 1294 2234 
L 1294 2753 
L 1863 2753 
Q 2328 2753 2575 2939 
Q 2822 3125 2822 3475 
Q 2822 3834 2567 4026 
Q 2313 4219 1838 4219 
Q 1578 4219 1281 4162 
Q 984 4106 628 3988 
L 628 4550 
Q 988 4650 1302 4700 
Q 1616 4750 1894 4750 
Q 2613 4750 3031 4423 
Q 3450 4097 3450 3541 
Q 3450 3153 3228 2886 
Q 3006 2619 2597 2516 
z
" id="DejaVuSans-33" transform="scale(0.015625)"/>
       </defs>
       <use xlink:href="#DejaVuSans-33"/>
       <use x="63.623047" xlink:href="#DejaVuSans-30"/>
       <use x="127.246094" xlink:href="#DejaVuSans-30"/>
       <use x="190.869141" xlink:href="#DejaVuSans-30"/>
      </g>
     </g>
    </g>
    <g id="xtick_5">
     <g id="line2d_5">
      <g>
       <use style="fill:#ffffff;stroke:#ffffff;stroke-width:0.8;" x="825.385528" xlink:href="#me394dffc08" y="504"/>
      </g>
     </g>
     <g id="text_5">
      <!-- 4000 -->
      <g style="fill:#ffffff;" transform="translate(812.660528 518.598438)scale(0.1 -0.1)">
       <defs>
        <path d="M 2419 4116 
L 825 1625 
L 2419 1625 
L 2419 4116 
z
M 2253 4666 
L 3047 4666 
L 3047 1625 
L 3713 1625 
L 3713 1100 
L 3047 1100 
L 3047 0 
L 2419 0 
L 2419 1100 
L 313 1100 
L 313 1709 
L 2253 4666 
z
" id="DejaVuSans-34" transform="scale(0.015625)"/>
       </defs>
       <use xlink:href="#DejaVuSans-34"/>
       <use x="63.623047" xlink:href="#DejaVuSans-30"/>
       <use x="127.246094" xlink:href="#DejaVuSans-30"/>
       <use x="190.869141" xlink:href="#DejaVuSans-30"/>
      </g>
     </g>
    </g>
    <g id="text_6">
     <!-- iteration -->
     <g style="fill:#ffffff;" transform="translate(495.477344 532.276562)scale(0.1 -0.1)">
      <defs>
       <path d="M 603 3500 
L 1178 3500 
L 1178 0 
L 603 0 
L 603 3500 
z
M 603 4863 
L 1178 4863 
L 1178 4134 
L 603 4134 
L 603 4863 
z
" id="DejaVuSans-69" transform="scale(0.015625)"/>
       <path d="M 1172 4494 
L 1172 3500 
L 2356 3500 
L 2356 3053 
L 1172 3053 
L 1172 1153 
Q 1172 725 1289 603 
Q 1406 481 1766 481 
L 2356 481 
L 2356 0 
L 1766 0 
Q 1100 0 847 248 
Q 594 497 594 1153 
L 594 3053 
L 172 3053 
L 172 3500 
L 594 3500 
L 594 4494 
L 1172 4494 
z
" id="DejaVuSans-74" transform="scale(0.015625)"/>
       <path d="M 3597 1894 
L 3597 1613 
L 953 1613 
Q 991 1019 1311 708 
Q 1631 397 2203 397 
Q 2534 397 2845 478 
Q 3156 559 3463 722 
L 3463 178 
Q 3153 47 2828 -22 
Q 2503 -91 2169 -91 
Q 1331 -91 842 396 
Q 353 884 353 1716 
Q 353 2575 817 3079 
Q 1281 3584 2069 3584 
Q 2775 3584 3186 3129 
Q 3597 2675 3597 1894 
z
M 3022 2063 
Q 3016 2534 2758 2815 
Q 2500 3097 2075 3097 
Q 1594 3097 1305 2825 
Q 1016 2553 972 2059 
L 3022 2063 
z
" id="DejaVuSans-65" transform="scale(0.015625)"/>
       <path d="M 2631 2963 
Q 2534 3019 2420 3045 
Q 2306 3072 2169 3072 
Q 1681 3072 1420 2755 
Q 1159 2438 1159 1844 
L 1159 0 
L 581 0 
L 581 3500 
L 1159 3500 
L 1159 2956 
Q 1341 3275 1631 3429 
Q 1922 3584 2338 3584 
Q 2397 3584 2469 3576 
Q 2541 3569 2628 3553 
L 2631 2963 
z
" id="DejaVuSans-72" transform="scale(0.015625)"/>
       <path d="M 2194 1759 
Q 1497 1759 1228 1600 
Q 959 1441 959 1056 
Q 959 750 1161 570 
Q 1363 391 1709 391 
Q 2188 391 2477 730 
Q 2766 1069 2766 1631 
L 2766 1759 
L 2194 1759 
z
M 3341 1997 
L 3341 0 
L 2766 0 
L 2766 531 
Q 2569 213 2275 61 
Q 1981 -91 1556 -91 
Q 1019 -91 701 211 
Q 384 513 384 1019 
Q 384 1609 779 1909 
Q 1175 2209 1959 2209 
L 2766 2209 
L 2766 2266 
Q 2766 2663 2505 2880 
Q 2244 3097 1772 3097 
Q 1472 3097 1187 3025 
Q 903 2953 641 2809 
L 641 3341 
Q 956 3463 1253 3523 
Q 1550 3584 1831 3584 
Q 2591 3584 2966 3190 
Q 3341 2797 3341 1997 
z
" id="DejaVuSans-61" transform="scale(0.015625)"/>
       <path d="M 1959 3097 
Q 1497 3097 1228 2736 
Q 959 2375 959 1747 
Q 959 1119 1226 758 
Q 1494 397 1959 397 
Q 2419 397 2687 759 
Q 2956 1122 2956 1747 
Q 2956 2369 2687 2733 
Q 2419 3097 1959 3097 
z
M 1959 3584 
Q 2709 3584 3137 3096 
Q 3566 2609 3566 1747 
Q 3566 888 3137 398 
Q 2709 -91 1959 -91 
Q 1206 -91 779 398 
Q 353 888 353 1747 
Q 353 2609 779 3096 
Q 1206 3584 1959 3584 
z
" id="DejaVuSans-6f" transform="scale(0.015625)"/>
       <path d="M 3513 2113 
L 3513 0 
L 2938 0 
L 2938 2094 
Q 2938 2591 2744 2837 
Q 2550 3084 2163 3084 
Q 1697 3084 1428 2787 
Q 1159 2491 1159 1978 
L 1159 0 
L 581 0 
L 581 3500 
L 1159 3500 
L 1159 2956 
Q 1366 3272 1645 3428 
Q 1925 3584 2291 3584 
Q 2894 3584 3203 3211 
Q 3513 2838 3513 2113 
z
" id="DejaVuSans-6e" transform="scale(0.015625)"/>
      </defs>
      <use xlink:href="#DejaVuSans-69"/>
      <use x="27.783203" xlink:href="#DejaVuSans-74"/>
      <use x="66.992188" xlink:href="#DejaVuSans-65"/>
      <use x="128.515625" xlink:href="#DejaVuSans-72"/>
      <use x="169.628906" xlink:href="#DejaVuSans-61"/>
      <use x="230.908203" xlink:href="#DejaVuSans-74"/>
      <use x="270.117188" xlink:href="#DejaVuSans-69"/>
      <use x="297.900391" xlink:href="#DejaVuSans-6f"/>
      <use x="359.082031" xlink:href="#DejaVuSans-6e"/>
     </g>
    </g>
   </g>
   <g id="matplotlib.axis_2">
    <g id="ytick_1">
     <g id="line2d_6">
      <defs>
       <path d="M 0 0 
L -3.5 0 
" id="m233fda3e86" style="stroke:#ffffff;stroke-width:0.8;"/>
      </defs>
      <g>
       <use style="fill:#ffffff;stroke:#ffffff;stroke-width:0.8;" x="126" xlink:href="#m233fda3e86" y="484.232727"/>
      </g>
     </g>
     <g id="text_7">
      <!-- 0 -->
      <g style="fill:#ffffff;" transform="translate(112.6375 488.031946)scale(0.1 -0.1)">
       <use xlink:href="#DejaVuSans-30"/>
      </g>
     </g>
    </g>
    <g id="ytick_2">
     <g id="line2d_7">
      <g>
       <use style="fill:#ffffff;stroke:#ffffff;stroke-width:0.8;" x="126" xlink:href="#m233fda3e86" y="428.446554"/>
      </g>
     </g>
     <g id="text_8">
      <!-- 5000 -->
      <g style="fill:#ffffff;" transform="translate(93.55 432.245773)scale(0.1 -0.1)">
       <defs>
        <path d="M 691 4666 
L 3169 4666 
L 3169 4134 
L 1269 4134 
L 1269 2991 
Q 1406 3038 1543 3061 
Q 1681 3084 1819 3084 
Q 2600 3084 3056 2656 
Q 3513 2228 3513 1497 
Q 3513 744 3044 326 
Q 2575 -91 1722 -91 
Q 1428 -91 1123 -41 
Q 819 9 494 109 
L 494 744 
Q 775 591 1075 516 
Q 1375 441 1709 441 
Q 2250 441 2565 725 
Q 2881 1009 2881 1497 
Q 2881 1984 2565 2268 
Q 2250 2553 1709 2553 
Q 1456 2553 1204 2497 
Q 953 2441 691 2322 
L 691 4666 
z
" id="DejaVuSans-35" transform="scale(0.015625)"/>
       </defs>
       <use xlink:href="#DejaVuSans-35"/>
       <use x="63.623047" xlink:href="#DejaVuSans-30"/>
       <use x="127.246094" xlink:href="#DejaVuSans-30"/>
       <use x="190.869141" xlink:href="#DejaVuSans-30"/>
      </g>
     </g>
    </g>
    <g id="ytick_3">
     <g id="line2d_8">
      <g>
       <use style="fill:#ffffff;stroke:#ffffff;stroke-width:0.8;" x="126" xlink:href="#m233fda3e86" y="372.66038"/>
      </g>
     </g>
     <g id="text_9">
      <!-- 10000 -->
      <g style="fill:#ffffff;" transform="translate(87.1875 376.459599)scale(0.1 -0.1)">
       <use xlink:href="#DejaVuSans-31"/>
       <use x="63.623047" xlink:href="#DejaVuSans-30"/>
       <use x="127.246094" xlink:href="#DejaVuSans-30"/>
       <use x="190.869141" xlink:href="#DejaVuSans-30"/>
       <use x="254.492188" xlink:href="#DejaVuSans-30"/>
      </g>
     </g>
    </g>
    <g id="ytick_4">
     <g id="line2d_9">
      <g>
       <use style="fill:#ffffff;stroke:#ffffff;stroke-width:0.8;" x="126" xlink:href="#m233fda3e86" y="316.874207"/>
      </g>
     </g>
     <g id="text_10">
      <!-- 15000 -->
      <g style="fill:#ffffff;" transform="translate(87.1875 320.673426)scale(0.1 -0.1)">
       <use xlink:href="#DejaVuSans-31"/>
       <use x="63.623047" xlink:href="#DejaVuSans-35"/>
       <use x="127.246094" xlink:href="#DejaVuSans-30"/>
       <use x="190.869141" xlink:href="#DejaVuSans-30"/>
       <use x="254.492188" xlink:href="#DejaVuSans-30"/>
      </g>
     </g>
    </g>
    <g id="ytick_5">
     <g id="line2d_10">
      <g>
       <use style="fill:#ffffff;stroke:#ffffff;stroke-width:0.8;" x="126" xlink:href="#m233fda3e86" y="261.088033"/>
      </g>
     </g>
     <g id="text_11">
      <!-- 20000 -->
      <g style="fill:#ffffff;" transform="translate(87.1875 264.887252)scale(0.1 -0.1)">
       <use xlink:href="#DejaVuSans-32"/>
       <use x="63.623047" xlink:href="#DejaVuSans-30"/>
       <use x="127.246094" xlink:href="#DejaVuSans-30"/>
       <use x="190.869141" xlink:href="#DejaVuSans-30"/>
       <use x="254.492188" xlink:href="#DejaVuSans-30"/>
      </g>
     </g>
    </g>
    <g id="ytick_6">
     <g id="line2d_11">
      <g>
       <use style="fill:#ffffff;stroke:#ffffff;stroke-width:0.8;" x="126" xlink:href="#m233fda3e86" y="205.30186"/>
      </g>
     </g>
     <g id="text_12">
      <!-- 25000 -->
      <g style="fill:#ffffff;" transform="translate(87.1875 209.101078)scale(0.1 -0.1)">
       <use xlink:href="#DejaVuSans-32"/>
       <use x="63.623047" xlink:href="#DejaVuSans-35"/>
       <use x="127.246094" xlink:href="#DejaVuSans-30"/>
       <use x="190.869141" xlink:href="#DejaVuSans-30"/>
       <use x="254.492188" xlink:href="#DejaVuSans-30"/>
      </g>
     </g>
    </g>
    <g id="ytick_7">
     <g id="line2d_12">
      <g>
       <use style="fill:#ffffff;stroke:#ffffff;stroke-width:0.8;" x="126" xlink:href="#m233fda3e86" y="149.515686"/>
      </g>
     </g>
     <g id="text_13">
      <!-- 30000 -->
      <g style="fill:#ffffff;" transform="translate(87.1875 153.314905)scale(0.1 -0.1)">
       <use xlink:href="#DejaVuSans-33"/>
       <use x="63.623047" xlink:href="#DejaVuSans-30"/>
       <use x="127.246094" xlink:href="#DejaVuSans-30"/>
       <use x="190.869141" xlink:href="#DejaVuSans-30"/>
       <use x="254.492188" xlink:href="#DejaVuSans-30"/>
      </g>
     </g>
    </g>
    <g id="ytick_8">
     <g id="line2d_13">
      <g>
       <use style="fill:#ffffff;stroke:#ffffff;stroke-width:0.8;" x="126" xlink:href="#m233fda3e86" y="93.729513"/>
      </g>
     </g>
     <g id="text_14">
      <!-- 35000 -->
      <g style="fill:#ffffff;" transform="translate(87.1875 97.528731)scale(0.1 -0.1)">
       <use xlink:href="#DejaVuSans-33"/>
       <use x="63.623047" xlink:href="#DejaVuSans-35"/>
       <use x="127.246094" xlink:href="#DejaVuSans-30"/>
       <use x="190.869141" xlink:href="#DejaVuSans-30"/>
       <use x="254.492188" xlink:href="#DejaVuSans-30"/>
      </g>
     </g>
    </g>
   </g>
   <g id="line2d_14">
    <path clip-path="url(#pedf1a139c6)" d="M 161.509091 180.622056 
L 162.006998 271.43079 
L 162.172967 246.460899 
L 162.504906 263.196751 
L 162.670875 262.505002 
L 162.836844 256.736712 
L 163.168782 294.894454 
L 163.334751 302.793777 
L 163.50072 325.565693 
L 163.666689 323.947894 
L 163.832658 302.369802 
L 163.998628 302.269387 
L 164.330566 331.54597 
L 164.496535 305.940117 
L 164.662504 298.040795 
L 164.994442 337.068802 
L 165.160411 328.533517 
L 165.32638 334.301807 
L 165.49235 335.808034 
L 165.824288 319.830874 
L 165.990257 294.794039 
L 166.156226 305.783915 
L 166.322195 304.166116 
L 166.488164 304.266532 
L 166.654133 354.306729 
L 166.986072 336.767556 
L 167.152041 345.682187 
L 167.31801 336.644827 
L 167.483979 313.872911 
L 167.649948 344.678036 
L 167.815917 353.41415 
L 167.981886 331.456713 
L 168.147855 356.493547 
L 168.313824 349.431018 
L 168.645763 319.373427 
L 168.811732 340.170513 
L 169.14367 298.442455 
L 169.309639 289.416252 
L 169.641577 250.990736 
L 169.973515 276.719319 
L 170.139485 267.681959 
L 170.305454 244.910043 
L 170.637392 306.33062 
L 170.803361 284.373182 
L 170.96933 306.33062 
L 171.135299 306.230205 
L 171.301268 313.817124 
L 171.467237 305.917802 
L 171.633207 314.832433 
L 171.799176 287.965812 
L 171.965145 297.003172 
L 172.297083 331.066209 
L 172.463052 329.559983 
L 172.629021 356.426604 
L 172.79499 333.654688 
L 172.960959 341.888727 
L 173.126929 362.685812 
L 173.292898 362.786228 
L 173.458867 340.82879 
L 173.624836 350.089294 
L 173.790805 334.268336 
L 174.122743 371.187625 
L 174.78662 288.947648 
L 175.284527 266.900952 
L 175.450496 250.667176 
L 175.616465 259.693379 
L 175.948403 300.528858 
L 176.280342 313.549351 
L 176.446311 313.750181 
L 176.61228 307.981891 
L 176.778249 289.10385 
L 176.944218 296.166379 
L 177.110187 271.129544 
L 177.276156 276.897835 
L 177.442125 267.63733 
L 177.608094 269.143557 
L 177.940033 281.784704 
L 178.106002 280.278477 
L 178.43794 321.749918 
L 178.769878 307.066997 
L 178.935847 280.200376 
L 179.101816 280.099961 
L 179.267786 305.136796 
L 179.433755 283.179358 
L 179.765693 336.410525 
L 179.931662 323.869793 
L 180.429569 269.243972 
L 180.761508 284.004993 
L 180.927477 276.908992 
L 181.259415 318.380433 
L 181.591353 263.810398 
L 181.757322 291.513812 
L 181.923291 296.255637 
L 182.25523 265.785229 
L 182.421199 274.69986 
L 182.587168 250.856849 
L 182.753137 246.115024 
L 182.919106 218.41161 
L 183.085075 237.200394 
L 183.251044 291.07868 
L 183.417013 290.509661 
L 183.582982 295.050656 
L 183.914921 316.662219 
L 184.08089 316.561804 
L 184.246859 332.382763 
L 184.578797 298.386669 
L 184.910735 267.168726 
L 185.076704 287.965812 
L 185.242674 286.459585 
L 185.408643 294.693624 
L 185.574612 294.794039 
L 185.740581 285.756679 
L 185.90655 284.13888 
L 186.072519 265.260839 
L 186.404457 313.705552 
L 186.736396 272.635771 
L 186.902365 281.896276 
L 187.068334 276.061042 
L 187.234303 301.030933 
L 187.400272 294.269649 
L 187.566241 315.066735 
L 187.73221 313.448936 
L 187.898179 304.188431 
L 188.064148 304.478519 
L 188.230117 298.710229 
L 188.396087 307.624859 
L 188.562056 282.588024 
L 188.728025 282.588024 
L 188.893994 304.545462 
L 189.059963 302.905349 
L 189.225932 341.498224 
L 189.391901 343.261067 
L 189.55787 350.022351 
L 189.723839 350.223181 
L 189.889809 342.970979 
L 190.055778 317.934144 
L 190.387716 334.569581 
L 190.719654 318.770937 
L 190.885623 323.512761 
L 191.051592 298.54287 
L 191.217561 298.442455 
L 191.383531 305.694658 
L 191.5495 332.561279 
L 191.715469 330.94348 
L 191.881438 323.691277 
L 192.047407 348.728112 
L 192.213376 236.263186 
L 192.379345 245.099716 
L 192.711283 286.269912 
L 192.877253 294.169234 
L 193.043222 286.269912 
L 193.209191 263.497996 
L 193.37516 272.412626 
L 193.541129 263.386424 
L 193.873067 260.262398 
L 194.039036 268.496437 
L 194.205005 261.433907 
L 194.536944 304.880179 
L 194.702913 320.701138 
L 195.034851 286.481899 
L 195.20082 313.348521 
L 195.366789 320.109805 
L 195.532758 298.710229 
L 195.698727 211.862314 
L 196.196635 285.332704 
L 196.362604 309.175715 
L 196.528573 300.261084 
L 196.694542 306.029375 
L 196.860511 298.330883 
L 197.02648 307.591387 
L 197.192449 291.770429 
L 197.358418 300.606959 
L 197.524388 291.346454 
L 197.690357 300.082569 
L 198.022295 260.407442 
L 198.188264 279.285483 
L 198.354233 277.667684 
L 198.520202 285.901723 
L 198.686171 280.133433 
L 198.85214 279.932603 
L 199.184079 230.271751 
L 199.350048 257.975165 
L 199.516017 265.673657 
L 199.847955 250.678333 
L 200.511832 325.521064 
L 200.677801 333.755103 
L 201.009739 315.658068 
L 201.175708 315.858898 
L 201.341677 321.627189 
L 201.507646 296.021335 
L 201.673615 311.842294 
L 201.839584 307.100469 
L 202.005554 307.200884 
L 202.171523 298.464769 
L 202.503461 255.799504 
L 202.66943 236.921463 
L 203.333306 299.736694 
L 203.665245 270.638626 
L 203.831214 279.374741 
L 203.997183 271.676249 
L 204.163152 250.879163 
L 204.329121 244.117879 
L 204.49509 264.914965 
L 204.661059 264.81455 
L 204.827028 244.017464 
L 205.158967 286.771988 
L 205.324936 265.974902 
L 205.490905 273.673394 
L 205.656874 255.275114 
L 205.822843 276.072199 
L 205.988812 268.172877 
L 206.154781 301.109034 
L 206.32075 310.291438 
L 206.486719 311.909237 
L 206.652689 291.112152 
L 206.818658 292.618379 
L 207.150596 274.521344 
L 207.316565 249.484509 
L 207.482534 256.245793 
L 207.648503 248.011754 
L 207.814472 256.245793 
L 208.146411 233.362305 
L 208.31238 224.336102 
L 208.644318 269.667947 
L 208.810287 294.704781 
L 208.976256 287.006289 
L 209.142225 307.803375 
L 209.308194 285.845937 
L 209.474163 294.883297 
L 209.640133 267.179883 
L 209.806102 258.945844 
L 210.13804 282.744226 
L 210.469978 230.907713 
L 210.635947 246.728672 
L 210.801916 239.47647 
L 210.967885 264.446361 
L 211.133855 264.245531 
L 211.299824 303.58594 
L 211.465793 305.203739 
L 211.631762 330.809593 
L 211.797731 321.973063 
L 211.9637 294.269649 
L 212.129669 287.017447 
L 212.461607 304.790922 
L 212.627577 279.82103 
L 212.793546 271.921708 
L 213.125484 235.872683 
L 213.457422 264.56909 
L 213.623391 270.337381 
L 213.78936 270.236966 
L 214.121299 307.636016 
L 214.453237 292.640693 
L 214.619206 299.892896 
L 214.785175 235.080519 
L 214.951144 263.107493 
L 215.117113 263.007078 
L 215.449051 297.639134 
L 215.615021 319.217226 
L 215.78099 319.317641 
L 215.946959 328.355001 
L 216.112928 350.312439 
L 216.278897 350.212024 
L 216.610835 366.535058 
L 216.776804 368.152857 
L 216.942773 373.921148 
L 217.108742 364.894945 
L 217.274712 363.277146 
L 217.440681 363.377561 
L 217.60665 355.143522 
L 217.772619 334.346436 
L 217.938588 352.744716 
L 218.104557 345.983432 
L 218.270526 364.861473 
L 218.436495 342.089557 
L 218.602464 365.932568 
L 219.100372 303.931814 
L 219.266341 328.968649 
L 219.598279 288.992277 
L 219.930217 314.151841 
L 220.096186 313.951011 
L 220.262156 304.768607 
L 220.428125 312.667929 
L 220.760063 336.722927 
L 221.092001 353.157534 
L 221.423939 334.93777 
L 221.589908 336.443996 
L 221.755878 330.675706 
L 222.087816 305.984746 
L 222.253785 297.148216 
L 222.419754 302.916506 
L 222.585723 304.534305 
L 222.751692 313.79481 
L 222.917661 335.372902 
L 223.08363 319.551943 
L 223.2496 228.140719 
L 223.747507 300.361499 
L 223.913476 291.324139 
L 224.079445 292.830366 
L 224.245414 311.228646 
L 224.577352 293.287813 
L 224.743322 269.444802 
L 224.909291 269.545217 
L 225.07526 304.31116 
L 225.241229 313.337363 
L 225.407198 332.215404 
L 225.573167 330.709178 
L 225.739136 322.809856 
L 225.905105 329.57114 
L 226.237043 369.502883 
L 226.403013 360.320479 
L 226.568982 339.523393 
L 226.90092 356.337346 
L 227.066889 357.955145 
L 227.564796 302.492531 
L 227.730765 302.291701 
L 227.896735 323.869793 
L 228.228673 317.108509 
L 228.394642 332.215404 
L 228.560611 332.416235 
L 228.72658 333.922461 
L 229.058518 349.721106 
L 229.224487 358.981611 
L 229.390457 383.951502 
L 229.556426 374.914142 
L 230.054333 319.462685 
L 230.220302 328.500045 
L 230.386271 319.239541 
L 230.55224 343.082551 
L 230.718209 335.830349 
L 230.884179 344.666878 
L 231.216117 319.819717 
L 231.382086 342.591633 
L 231.548055 337.849808 
L 231.879993 351.852138 
L 232.045962 351.751722 
L 232.211931 343.8524 
L 232.377901 352.767031 
L 232.54387 369.458254 
L 232.709839 367.952027 
L 232.875808 346.373935 
L 233.041777 352.142226 
L 233.207746 335.451003 
L 233.373715 351.271961 
L 233.539684 189.224284 
L 234.037592 243.772005 
L 234.203561 244.07325 
L 234.36953 249.841541 
L 234.535499 280.099961 
L 234.701468 274.331671 
L 234.867437 297.973851 
L 235.033406 289.092692 
L 235.199375 298.353197 
L 235.365344 273.316362 
L 235.531314 273.215947 
L 235.697283 246.349326 
L 236.19519 309.097614 
L 236.361159 281.3942 
L 236.527128 283.011999 
L 236.693097 289.773284 
L 236.859066 274.811432 
L 237.025036 299.848267 
L 237.191005 290.665862 
L 237.356974 289.048063 
L 237.688912 330.876536 
L 238.02085 307.000054 
L 238.186819 307.200884 
L 238.518758 349.921936 
L 239.016665 304.735135 
L 239.182634 313.649766 
L 239.514572 295.708933 
L 239.680541 270.672098 
L 239.84651 291.469183 
L 240.01248 269.511745 
L 240.344418 322.821013 
L 240.510387 297.215159 
L 240.676356 288.98112 
L 241.008294 301.823097 
L 241.174263 293.031196 
L 241.340232 300.093726 
L 241.506202 317.722157 
L 241.83814 285.879409 
L 242.004109 311.485262 
L 242.170078 319.183754 
L 242.336047 318.982924 
L 242.502016 324.751214 
L 242.667985 339.713066 
L 242.999924 289.237736 
L 243.165893 289.438567 
L 243.331862 280.178062 
L 243.497831 305.214896 
L 243.6638 284.417811 
L 243.995738 270.750198 
L 244.493645 211.27098 
L 244.659615 216.012805 
L 244.825584 194.434713 
L 245.157522 225.652656 
L 245.323491 242.343879 
L 245.655429 292.629536 
L 245.987367 326.848775 
L 246.153337 317.822572 
L 246.319306 332.784423 
L 246.485275 317.822572 
L 246.651244 325.074774 
L 246.817213 324.974359 
L 246.983182 333.710474 
L 247.31512 307.58023 
L 247.481089 314.341514 
L 247.813028 265.461669 
L 247.978997 289.30468 
L 248.144966 289.405095 
L 248.310935 283.636805 
L 248.476904 290.699334 
L 248.642873 265.09348 
L 248.808842 272.791972 
L 249.140781 245.557163 
L 249.30675 238.795878 
L 249.472719 305.114481 
L 249.638688 313.013804 
L 249.804657 312.812973 
L 249.970626 313.79481 
L 250.136595 306.252519 
L 250.302564 307.870318 
L 250.634503 374.289337 
L 250.800472 374.088506 
L 251.464348 291.268353 
L 251.630317 346.385093 
L 251.796286 338.686601 
L 252.128225 372.493022 
L 252.294194 372.392607 
L 252.460163 400.09602 
L 252.626132 378.517929 
L 252.792101 387.700333 
L 253.124039 413.417759 
L 253.455977 365.039989 
L 253.621947 259.470234 
L 253.787916 233.864381 
L 254.285823 302.648733 
L 254.617761 324.237982 
L 254.78373 316.003942 
L 254.949699 323.256145 
L 255.115668 316.003942 
L 255.281638 330.965794 
L 255.447607 316.003942 
L 255.613576 320.745767 
L 255.779545 320.645352 
L 256.111483 287.218277 
L 256.277452 265.640185 
L 256.60939 297.29326 
L 256.77536 297.393675 
L 256.941329 304.645878 
L 257.107298 303.139651 
L 257.605205 255.721403 
L 257.771174 257.22763 
L 257.937143 240.536407 
L 258.103112 262.114499 
L 258.269082 253.199868 
L 258.435051 253.099453 
L 258.60102 253.199868 
L 258.766989 321.024698 
L 258.932958 322.943742 
L 259.098927 340.683746 
L 259.264896 340.683746 
L 259.430865 365.72058 
L 259.596834 356.88405 
L 259.928773 403.465505 
L 260.094742 381.508067 
L 260.260711 374.445538 
L 260.42668 373.642217 
L 260.592649 395.599655 
L 260.758618 372.827739 
L 260.924587 381.664269 
L 261.090556 356.058415 
L 261.256526 374.456695 
L 261.422495 347.590074 
L 261.754433 389.016886 
L 261.920402 396.079416 
L 262.086371 379.388193 
L 262.25234 406.254814 
L 262.418309 380.64896 
L 262.584278 385.390785 
L 262.750248 378.328256 
L 262.916217 403.934109 
L 263.082186 404.034524 
L 263.248155 412.949155 
L 263.414124 404.715116 
L 263.580093 404.915946 
L 263.746062 396.079416 
L 264.078 362.194894 
L 264.243969 356.426604 
L 264.409939 330.82075 
L 264.575908 339.85811 
L 264.741877 320.980069 
L 264.907846 316.238244 
L 265.073815 325.074774 
L 265.239784 315.814269 
L 265.405753 323.066472 
L 265.571722 322.966057 
L 265.737691 315.713854 
L 265.903661 324.427655 
L 266.06963 349.464489 
L 266.235599 356.527019 
L 266.401568 375.40506 
L 266.567537 375.505475 
L 266.733506 382.266759 
L 267.231413 357.33034 
L 267.397383 380.102256 
L 267.563352 374.847198 
L 267.89529 337.96138 
L 268.061259 347.143785 
L 268.393197 319.440371 
L 268.559166 328.477731 
L 268.891105 287.028604 
L 269.057074 294.927926 
L 269.223043 296.634983 
L 269.389012 291.379925 
L 269.554981 303.931814 
L 269.72095 303.931814 
L 269.886919 236.921463 
L 270.218857 264.781078 
L 270.384827 255.520573 
L 270.716765 213.792515 
L 270.882734 230.483738 
L 271.048703 230.584154 
L 271.214672 239.844658 
L 271.54661 283.692591 
L 271.878549 266.041845 
L 272.210487 335.049342 
L 272.542425 309.945564 
L 272.708394 324.907416 
L 272.874363 315.646911 
L 273.040332 334.524952 
L 273.206301 327.462422 
L 273.53824 287.787296 
L 273.704209 296.9697 
L 273.870178 274.197784 
L 274.036147 278.939609 
L 274.202116 269.902249 
L 274.368085 246.059238 
L 274.534054 268.831154 
L 274.700023 268.730739 
L 275.197931 332.550122 
L 275.529869 322.040006 
L 275.695838 304.411576 
L 276.193745 355.388981 
L 276.359714 336.51094 
L 276.525684 334.893141 
L 276.857622 294.035347 
L 277.023591 295.653146 
L 277.18956 295.753561 
L 277.355529 247.152647 
L 277.521498 302.046242 
L 277.687467 302.046242 
L 277.853436 300.573487 
L 278.019406 323.088786 
L 278.185375 327.830611 
L 278.517313 283.346716 
L 278.683282 277.578426 
L 278.849251 285.812465 
L 279.01522 302.503688 
L 279.347158 286.403799 
L 279.513128 258.700385 
L 279.679097 249.785754 
L 279.845066 272.55767 
L 280.011035 278.325961 
L 280.177004 278.526791 
L 280.674911 205.045243 
L 280.84088 198.76372 
L 281.00685 226.467134 
L 281.172819 228.241134 
L 281.338788 247.119175 
L 281.504757 248.246056 
L 281.670726 257.160687 
L 282.002664 240.27979 
L 282.168633 223.588567 
L 282.334602 232.324682 
L 282.500572 211.527597 
L 282.998479 260.418599 
L 283.164448 254.650309 
L 283.330417 262.348801 
L 283.496386 253.43417 
L 283.662355 225.730756 
L 283.828324 246.527842 
L 283.994293 231.56599 
L 284.160263 232.369311 
L 284.492201 193.943795 
L 284.824139 211.962729 
L 284.990108 233.540821 
L 285.156077 225.842329 
L 285.488015 185.386196 
L 285.653985 213.08961 
L 285.819954 318.782094 
L 285.985923 311.273275 
L 286.151892 312.09891 
L 286.317861 320.835025 
L 286.48383 312.600986 
L 287.147707 378.317098 
L 287.313676 371.064896 
L 287.645614 338.351884 
L 287.811583 329.325681 
L 287.977552 329.526511 
L 288.143521 338.552714 
L 288.30949 313.582823 
L 288.475459 341.855255 
L 288.641429 335.093971 
L 288.973367 290.855535 
L 289.305305 308.774054 
L 289.471274 301.075562 
L 289.637243 309.309602 
L 289.803212 301.075562 
L 290.135151 270.281595 
L 290.30112 277.533797 
L 290.633058 235.805739 
L 290.799027 263.509153 
L 290.964996 271.743192 
L 291.130965 360.733296 
L 291.296934 364.482127 
L 291.628873 340.728375 
L 291.794842 355.690226 
L 291.960811 346.853696 
L 292.12678 324.896259 
L 292.458718 340.694903 
L 292.624687 331.6687 
L 292.956625 362.652341 
L 293.122594 353.614981 
L 293.288564 351.997182 
L 293.454533 361.034542 
L 293.620502 355.266251 
L 293.786471 355.165836 
L 294.118409 380.091099 
L 294.948255 281.505773 
L 295.280193 297.103587 
L 295.446162 270.236966 
L 295.612131 265.495141 
L 295.7781 271.263431 
L 295.944069 264.200902 
L 296.276008 300.227613 
L 296.441977 292.696479 
L 296.607946 301.733839 
L 296.939884 338.619657 
L 297.105853 347.355772 
L 297.271822 339.65728 
L 297.437791 365.263134 
L 297.60376 356.225774 
L 297.76973 363.924266 
L 298.267637 302.592946 
L 298.433606 319.284169 
L 298.599575 261.400436 
L 298.765544 287.006289 
L 298.931513 294.704781 
L 299.263452 333.297656 
L 299.429421 325.398334 
L 299.59539 304.601249 
L 299.761359 326.558686 
L 299.927328 332.326977 
L 300.093297 323.144573 
L 300.259266 332.405077 
L 300.425235 332.204247 
L 300.591204 330.586448 
L 300.757174 322.887956 
L 300.923143 297.851122 
L 301.255081 282.331408 
L 301.42105 289.092692 
L 301.587019 273.271734 
L 301.752988 283.346716 
L 302.084926 312.645615 
L 302.250895 306.877324 
L 302.582834 276.953621 
L 302.748803 284.652113 
L 302.914772 261.880197 
L 303.24671 286.515371 
L 303.412679 259.64875 
L 303.578648 273.20479 
L 303.910587 322.084635 
L 304.076556 300.506543 
L 304.574463 363.254831 
L 304.740432 354.228629 
L 305.07237 325.398334 
L 305.238339 320.656509 
L 305.404309 304.23306 
L 305.570278 312.467099 
L 305.736247 305.404569 
L 306.068185 321.571403 
L 306.234154 314.3192 
L 306.400123 314.218785 
L 306.566092 213.759044 
L 306.732061 221.513322 
L 306.898031 214.261119 
L 307.229969 260.362813 
L 307.395938 268.061305 
L 307.561907 269.679104 
L 307.727876 251.280824 
L 307.893845 259.514863 
L 308.225783 230.037449 
L 308.391753 221.011246 
L 308.557722 245.981137 
L 308.723691 244.474911 
L 308.88966 253.657315 
L 309.055629 252.039516 
L 309.221598 227.069625 
L 309.387567 274.867218 
L 309.885475 298.844115 
L 310.217413 281.773546 
L 310.383382 293.410542 
L 310.549351 317.253553 
L 310.71532 294.481637 
L 311.047258 230.294065 
L 311.213227 257.997479 
L 311.379196 258.198309 
L 311.545166 262.940134 
L 311.711135 281.818175 
L 312.043073 265.271996 
L 312.375011 302.671047 
L 312.54098 302.871877 
L 312.706949 302.771462 
L 312.872918 304.389261 
L 313.038888 299.759009 
L 313.204857 302.45906 
L 313.370826 294.648995 
L 313.536795 321.515616 
L 313.702764 316.773792 
L 313.868733 333.465015 
L 314.034702 308.42818 
L 314.200671 313.170005 
L 314.53261 345.124325 
L 315.030517 320.712295 
L 315.196486 314.944005 
L 315.362455 288.077384 
L 315.528424 285.801308 
L 315.860362 319.574258 
L 316.192301 287.062076 
L 316.524239 312.143539 
L 316.690208 320.377578 
L 316.856177 305.415727 
L 317.022146 314.44193 
L 317.354084 272.066752 
L 317.686023 312.522885 
L 318.017961 273.316362 
L 318.18393 266.555078 
L 318.349899 275.849055 
L 318.515868 293.477486 
L 318.681837 272.6804 
L 319.013776 288.969963 
L 319.345714 326.458271 
L 319.511683 326.458271 
L 319.677652 328.07607 
L 319.843621 336.990701 
L 320.00959 258.945844 
L 320.341528 274.923004 
L 320.507498 270.326224 
L 320.673467 262.549631 
L 320.839436 262.750461 
L 321.005405 256.982171 
L 321.171374 264.881493 
L 321.337343 255.966862 
L 321.503312 234.009425 
L 321.669281 233.909009 
L 321.83525 258.878901 
L 322.001219 266.131103 
L 322.333158 247.688194 
L 322.499127 256.870598 
L 322.665096 237.992557 
L 322.997034 254.427164 
L 323.163003 226.72375 
L 323.328972 232.492041 
L 323.660911 216.392151 
L 323.82688 198.76372 
L 323.992849 332.427392 
L 324.158818 338.563871 
L 324.324787 310.860457 
L 324.490756 310.760042 
L 324.656725 314.151841 
L 324.988663 296.992015 
L 325.154633 297.192845 
L 325.320602 290.130315 
L 325.486571 271.732035 
L 325.65254 279.966074 
L 325.984478 244.07325 
L 326.150447 235.839211 
L 326.316416 215.042126 
L 326.482385 215.042126 
L 326.648355 222.294328 
L 326.814324 197.257493 
L 326.980293 215.354528 
L 327.146262 220.096353 
L 327.312231 213.335069 
L 327.4782 230.015135 
L 327.644169 221.848039 
L 327.810138 228.843625 
L 327.976107 268.80884 
L 328.308046 255.97802 
L 328.474015 281.014854 
L 328.639984 254.148233 
L 328.805953 262.047555 
L 328.971922 247.085704 
L 329.137891 249.919641 
L 329.30386 258.756171 
L 329.469829 258.555341 
L 329.635799 277.52264 
L 329.801768 316.249402 
L 329.967737 324.148724 
L 330.299675 370.76365 
L 330.797582 310.592684 
L 330.963551 315.334508 
L 331.12952 307.435186 
L 331.29549 288.557145 
L 331.461459 295.318429 
L 331.627428 293.70063 
L 332.125335 343.24991 
L 332.291304 343.24991 
L 332.457273 350.312439 
L 332.623242 378.015853 
L 332.789212 385.714345 
L 332.955181 367.316065 
L 333.287119 354.674918 
L 333.453088 356.292717 
L 333.619057 347.110313 
L 333.785026 347.311143 
L 333.950995 280.211534 
L 334.116964 279.720615 
L 334.282934 287.954654 
L 334.448903 315.658068 
L 334.780841 300.852418 
L 335.112779 317.019251 
L 335.610686 292.205561 
L 335.776656 297.973851 
L 335.942625 298.654442 
L 336.108594 277.857357 
L 336.274563 286.894717 
L 336.440532 286.995132 
L 336.606501 272.03328 
L 336.77247 280.86981 
L 337.104408 250.198572 
L 337.436347 303.173123 
L 337.602316 294.336593 
L 337.768285 295.842819 
L 338.100223 279.207382 
L 338.266192 280.635508 
L 338.59813 322.363566 
L 338.930069 282.007848 
L 339.262007 308.640168 
L 339.427976 310.257967 
L 339.593945 310.458797 
L 339.759914 325.420649 
L 339.925883 316.383288 
L 340.091852 339.155204 
L 340.257821 339.054789 
L 340.423791 314.017955 
L 340.58976 322.932585 
L 340.755729 301.354493 
L 340.921698 322.151579 
L 341.087667 315.390295 
L 341.751543 241.886432 
L 341.917513 258.655756 
L 342.083482 239.777715 
L 342.249451 286.314541 
L 342.41542 287.820768 
L 342.581389 292.562592 
L 342.747358 283.380188 
L 342.913327 283.179358 
L 343.079296 291.413397 
L 343.245265 282.576867 
L 343.411235 299.26809 
L 344.24108 204.933671 
L 344.407049 213.870616 
L 344.738987 164.58911 
L 344.904957 186.167202 
L 345.070926 186.368032 
L 345.236895 195.282663 
L 345.568833 234.478028 
L 345.900771 206.339483 
L 346.232709 224.358417 
L 346.398679 249.96427 
L 346.564648 248.458044 
L 346.896586 203.817947 
L 347.062555 218.779799 
L 347.228524 214.037974 
L 347.394493 199.076123 
L 347.560462 206.328325 
L 347.892401 232.570141 
L 348.224339 193.776436 
L 348.390308 211.404867 
L 348.556277 213.022666 
L 348.722246 204.286551 
L 348.888215 212.31976 
L 349.054184 228.252291 
L 349.220153 221.468693 
L 349.552092 258.086737 
L 349.88403 214.852453 
L 350.215968 252.430019 
L 350.381937 252.630849 
L 350.547906 229.858933 
L 350.713875 238.595048 
L 350.879844 233.853223 
L 351.211783 275.681696 
L 351.377752 283.380188 
L 351.543721 274.543658 
L 351.875659 305.538456 
L 352.207597 271.386161 
L 352.373566 272.892388 
L 352.705505 290.989422 
L 353.037443 257.62929 
L 353.203412 283.235144 
L 353.369381 281.728917 
L 353.53535 287.497208 
L 353.867288 327.897555 
L 354.199227 299.446606 
L 354.365196 212.587534 
L 354.697134 263.062864 
L 354.863103 270.962186 
L 355.029072 272.468413 
L 355.195041 287.430264 
L 355.36101 261.824411 
L 355.692949 312.467099 
L 356.024887 272.847759 
L 356.190856 281.684288 
L 356.688763 258.131366 
L 356.854732 267.157569 
L 357.020702 265.53977 
L 357.186671 292.406391 
L 357.35264 285.154188 
L 357.850547 221.435221 
L 358.182485 236.887991 
L 358.514424 221.937297 
L 358.680393 223.555096 
L 358.846362 232.704028 
L 359.012331 260.407442 
L 359.344269 276.339973 
L 359.842176 219.025258 
L 360.008145 215.131383 
L 360.174115 205.948979 
L 360.340084 210.958578 
L 360.506053 210.088313 
L 360.672022 236.954935 
L 360.837991 229.055612 
L 361.00396 227.437813 
L 361.169929 229.055612 
L 361.335898 236.307815 
L 361.501867 228.609323 
L 361.667837 226.991524 
L 361.999775 274.733331 
L 362.165744 273.227105 
L 362.331713 274.733331 
L 362.497682 255.85529 
L 362.663651 280.892125 
L 362.82962 265.071166 
L 362.995589 283.949207 
L 363.161559 275.715168 
L 363.493497 291.513812 
L 363.825435 273.450249 
L 363.991404 281.349571 
L 364.157373 272.513042 
L 364.323342 247.476207 
L 364.489311 281.405358 
L 364.655281 272.80313 
L 364.82125 281.628502 
L 364.987219 274.677545 
L 365.153188 274.476715 
L 365.319157 276.061042 
L 365.485126 290.933636 
L 365.651095 292.551435 
L 365.817064 316.394446 
L 365.983033 309.331916 
L 366.149003 249.11632 
L 366.314972 273.885381 
L 366.480941 265.986059 
L 366.978848 318.536635 
L 367.144817 252.597378 
L 367.310786 252.496962 
L 367.476755 280.200376 
L 367.642725 287.452579 
L 367.974663 255.420158 
L 368.140632 276.217243 
L 368.306601 270.448953 
L 368.47257 270.248123 
L 368.638539 305.862016 
L 368.804508 304.099173 
L 369.468385 366.836304 
L 369.634354 339.13289 
L 369.800323 348.17025 
L 370.29823 323.490447 
L 370.464199 332.672851 
L 370.630168 317.710999 
L 371.128076 385.982119 
L 371.294045 369.290895 
L 371.460014 387.689175 
L 371.625983 379.455136 
L 371.791952 380.961363 
L 372.12389 350.167395 
L 372.28986 359.4279 
L 372.455829 341.02962 
L 372.621798 339.523393 
L 372.953736 354.518717 
L 373.119705 346.284677 
L 373.451643 316.227087 
L 373.617612 316.227087 
L 373.949551 333.197241 
L 374.281489 363.611863 
L 374.447458 382.489904 
L 374.779396 365.218505 
L 374.945365 383.616785 
L 375.111334 383.7172 
L 375.277304 374.534796 
L 375.443273 348.928942 
L 375.609242 358.189447 
L 375.775211 339.311406 
L 375.94118 219.750479 
L 376.273118 266.298462 
L 376.439087 245.501376 
L 376.771026 234.991261 
L 376.936995 255.788347 
L 377.102964 233.830909 
L 377.268933 233.931324 
L 377.434902 242.756697 
L 377.76684 218.065736 
L 377.932809 243.102571 
L 378.098778 227.482442 
L 378.264747 236.218557 
L 378.596686 198.730248 
L 378.762655 206.629571 
L 378.928624 233.496192 
L 379.094593 240.257476 
L 379.426531 307.658331 
L 379.758469 321.125113 
L 379.924439 305.516142 
L 380.422346 371.00911 
L 380.588315 361.826705 
L 380.754284 336.220852 
L 380.920253 360.063862 
L 381.418161 283.357874 
L 381.750099 298.040795 
L 381.916068 276.083357 
L 382.082037 274.57713 
L 382.248006 265.316625 
L 382.413975 272.568828 
L 382.579944 293.365913 
L 382.745913 286.113711 
L 383.243821 341.911041 
L 383.40979 321.113956 
L 383.575759 330.140159 
L 383.741728 331.757958 
L 383.907697 306.152104 
L 384.073666 299.39082 
L 384.239635 322.162736 
L 384.405605 328.92402 
L 384.737543 297.270945 
L 385.069481 259.693379 
L 385.23545 251.057679 
L 385.567388 222.562102 
L 385.733357 243.359187 
L 385.899327 237.590897 
L 386.065296 262.426901 
L 386.397234 262.426901 
L 386.563203 254.895768 
L 386.895141 280.613194 
L 387.06111 253.746573 
L 387.227079 253.947403 
L 387.393049 246.884873 
L 387.724987 205.714677 
L 387.890956 228.486593 
L 388.056925 207.689508 
L 388.222894 216.526038 
L 388.388863 216.325208 
L 388.554832 200.392676 
L 388.88677 214.707409 
L 389.05274 189.101555 
L 389.218709 276.931307 
L 389.384678 276.830891 
L 389.550647 259.202461 
L 389.716616 259.302876 
L 389.882585 265.071166 
L 390.048554 246.103867 
L 390.214523 255.364372 
L 390.380492 253.858145 
L 390.546462 272.256425 
L 390.712431 265.004223 
L 390.8784 291.246039 
L 391.044369 266.209204 
L 391.210338 281.171056 
L 391.376307 272.334526 
L 391.542276 272.535356 
L 391.708245 297.505247 
L 392.040184 256.971014 
L 392.206153 282.007848 
L 392.538091 259.12436 
L 392.70406 281.081798 
L 392.870029 271.899394 
L 393.035998 289.527824 
L 393.367936 346.452036 
L 393.699875 315.613439 
L 393.865844 317.119666 
L 394.031813 332.940625 
L 394.197782 306.074004 
L 394.363751 315.334508 
L 394.52972 315.334508 
L 394.695689 309.566218 
L 394.861658 284.596327 
L 395.027628 277.835043 
L 395.193597 305.538456 
L 395.359566 310.280281 
L 395.691504 260.619429 
L 395.857473 295.452316 
L 396.023442 277.054036 
L 396.35538 289.494353 
L 396.52135 282.733069 
L 396.853288 256.569353 
L 397.185226 297.739549 
L 397.517164 282.677282 
L 397.683133 284.295081 
L 397.849102 305.092167 
L 398.015071 260.864889 
L 398.181041 270.125393 
L 398.34701 313.727867 
L 398.512979 313.727867 
L 398.678948 306.665337 
L 399.010886 323.814007 
L 399.176855 325.431806 
L 399.342824 300.461915 
L 399.508793 305.203739 
L 399.840732 289.260051 
L 400.006701 290.766278 
L 400.338639 273.829595 
L 400.504608 283.011999 
L 400.670577 307.981891 
L 401.002515 260.240083 
L 401.168485 250.979579 
L 401.334454 286.091396 
L 401.500423 277.254866 
L 401.666392 260.385127 
L 401.832361 278.013558 
L 401.99833 277.812728 
L 402.164299 281.204527 
L 402.330268 289.438567 
L 402.496237 281.204527 
L 402.662207 282.822326 
L 402.828176 266.131103 
L 402.994145 266.131103 
L 403.160114 256.870598 
L 403.326083 289.137321 
L 403.492052 267.179883 
L 403.658021 267.280298 
L 403.82399 274.532501 
L 403.989959 266.834009 
L 404.155929 275.068048 
L 404.487867 309.019514 
L 404.653836 299.982153 
L 404.819805 309.008356 
L 404.985774 284.038465 
L 405.151743 305.359941 
L 405.649651 280.724766 
L 405.81562 274.956476 
L 405.981589 276.574275 
L 406.147558 283.335559 
L 406.313527 274.298199 
L 406.479496 274.097369 
L 406.811434 285.009144 
L 406.977403 300.830103 
L 407.143372 294.068819 
L 407.309342 294.068819 
L 407.64128 326.659102 
L 407.807249 326.859932 
L 407.973218 347.657017 
L 408.139187 338.820487 
L 408.305156 337.314261 
L 408.471125 365.017675 
L 408.637094 366.523901 
L 408.803064 344.945809 
L 408.969033 340.203985 
L 409.135002 340.003154 
L 409.300971 340.203985 
L 409.46694 333.141455 
L 409.798878 288.412101 
L 409.964847 238.550419 
L 410.130816 229.289914 
L 410.462755 253.846988 
L 410.628724 244.809628 
L 410.794693 219.203774 
L 411.126631 254.773038 
L 411.458569 216.994642 
L 411.790508 274.342828 
L 411.956477 267.135254 
L 412.122446 292.741108 
L 412.454384 250.075843 
L 412.620353 255.844133 
L 412.786322 255.844133 
L 412.952291 250.075843 
L 413.11826 250.789906 
L 413.28423 252.809365 
L 413.450199 225.105951 
L 413.616168 233.33999 
L 413.782137 261.043404 
L 413.948106 252.809365 
L 414.114075 261.54548 
L 414.280044 233.842066 
L 414.446013 312.757187 
L 414.611982 327.719039 
L 414.777952 302.749148 
L 414.943921 337.202688 
L 415.10989 346.039218 
L 415.275859 320.433365 
L 415.441828 335.596047 
L 415.607797 308.729425 
L 415.773766 304.63472 
L 415.939735 297.572191 
L 416.105704 323.178044 
L 416.437643 300.718531 
L 416.603612 293.466328 
L 416.769581 271.50889 
L 416.93555 275.804426 
L 417.101519 284.640956 
L 417.267488 284.540541 
L 417.433457 293.801045 
L 417.599426 293.600215 
L 417.765395 282.409509 
L 417.931365 280.222691 
L 418.097334 302.180129 
L 418.263303 302.180129 
L 418.595241 284.719056 
L 418.76121 257.216473 
L 418.927179 271.062601 
L 419.093148 271.062601 
L 419.259117 244.19598 
L 419.591056 287.218277 
L 419.757025 265.260839 
L 420.088963 271.129544 
L 420.254932 288.757975 
L 420.420901 267.96089 
L 420.58687 266.845166 
L 420.752839 268.462965 
L 420.918809 260.563643 
L 421.084778 263.687669 
L 421.250747 270.750198 
L 421.416716 245.780307 
L 421.582685 254.516422 
L 421.914623 237.903299 
L 422.080592 237.401224 
L 422.744469 305.304154 
L 422.910438 306.921953 
L 423.076407 299.669751 
L 423.242376 306.431035 
L 423.408345 304.813236 
L 423.574314 313.27042 
L 423.740283 295.641989 
L 423.906253 301.421437 
L 424.072222 292.395234 
L 424.238191 229.803147 
L 424.570129 269.779519 
L 424.902067 225.295624 
L 425.234005 270.359695 
L 425.399975 268.741896 
L 425.565944 241.875275 
L 425.731913 266.845166 
L 425.897882 258.008636 
L 426.063851 232.402783 
L 426.22982 232.402783 
L 426.561758 269.310915 
L 426.727727 273.338677 
L 427.059666 289.873699 
L 427.225635 289.773284 
L 427.391604 298.509398 
L 427.557573 320.466836 
L 427.723542 293.600215 
L 427.889511 298.34204 
L 428.05548 277.544954 
L 428.221449 271.776664 
L 428.387418 279.675986 
L 428.719357 356.292717 
L 429.217264 293.399385 
L 429.383233 302.436745 
L 429.549202 327.406636 
L 429.715171 334.167921 
L 429.88114 359.204755 
L 430.04711 359.405585 
L 430.213079 350.669471 
L 430.379048 329.091379 
L 430.545017 338.006009 
L 430.710986 329.091379 
L 430.876955 226.444819 
L 431.042924 226.444819 
L 431.208893 225.942744 
L 431.374862 235.125148 
L 431.540832 235.125148 
L 431.87277 282.119421 
L 432.038739 283.73722 
L 432.204708 283.93805 
L 432.370677 308.907941 
L 432.536646 287.329849 
L 432.702615 287.129019 
L 432.868584 294.381222 
L 433.034554 292.763423 
L 433.366492 263.732298 
L 433.69843 281.728917 
L 433.864399 256.759026 
L 434.030368 271.720878 
L 434.196337 253.322598 
L 434.362306 329.347995 
L 434.528276 329.347995 
L 434.860214 326.112397 
L 435.192152 351.394691 
L 435.358121 337.258475 
L 435.52409 345.157797 
L 435.690059 320.120962 
L 435.856028 328.957492 
L 436.021997 330.463719 
L 436.187967 339.646123 
L 436.685874 390.813201 
L 437.183781 328.890549 
L 437.34975 337.805179 
L 437.515719 312.199325 
L 437.681689 339.902739 
L 437.847658 339.701909 
L 438.013627 332.003417 
L 438.179596 341.263922 
L 438.345565 341.163507 
L 438.511534 313.460093 
L 438.677503 325.364862 
L 438.843472 349.207873 
L 439.175411 323.077629 
L 439.34138 319.183754 
L 439.673318 285.611635 
L 439.839287 285.71205 
L 440.171225 268.630324 
L 440.337194 247.833238 
L 440.669133 292.015888 
L 440.835102 300.997462 
L 441.001071 337.727078 
L 441.333009 310.146394 
L 441.498978 304.378104 
L 441.664947 328.221114 
L 441.830916 328.221114 
L 441.996885 310.592684 
L 442.162855 319.775088 
L 442.494793 346.440879 
L 442.660762 322.597868 
L 442.826731 315.836584 
L 443.158669 268.842311 
L 443.324638 272.981645 
L 443.490607 302.98345 
L 443.656577 307.725274 
L 443.822546 302.98345 
L 443.988515 304.489676 
L 444.154484 287.798453 
L 444.320453 292.540278 
L 444.486422 267.570387 
L 444.652391 267.570387 
L 444.81836 274.331671 
L 444.984329 265.495141 
L 445.150298 283.893421 
L 445.316268 282.275622 
L 445.482237 273.360991 
L 445.648206 254.962711 
L 445.814175 276.540803 
L 446.312082 226.467134 
L 446.64402 260.965304 
L 446.80999 239.387212 
L 446.975959 248.223742 
L 447.141928 225.451826 
L 447.307897 255.230485 
L 447.473866 255.230485 
L 447.639835 246.048081 
L 447.805804 219.18146 
L 447.971773 218.690541 
L 448.137742 209.664338 
L 448.303712 209.664338 
L 448.469681 209.865169 
L 448.63565 200.827809 
L 448.801619 225.7977 
L 448.967588 208.169269 
L 449.299526 238.026029 
L 449.465495 246.762144 
L 449.631464 230.941185 
L 449.797434 249.908484 
L 449.963403 283.011999 
L 450.129372 292.194404 
L 450.295341 292.294819 
L 450.46131 299.993311 
L 450.793248 268.072462 
L 450.959217 271.464261 
L 451.125186 295.307272 
L 451.291156 287.40795 
L 451.457125 296.32258 
L 451.623094 294.704781 
L 451.789063 300.473072 
L 451.955032 300.272242 
L 452.121001 291.089837 
L 452.28697 300.272242 
L 452.452939 300.171826 
L 452.618908 307.424029 
L 452.784878 307.624859 
L 452.950847 298.475927 
L 453.116816 307.736432 
L 453.282785 323.55739 
L 453.448754 321.939591 
L 453.614723 339.568022 
L 453.780692 244.441439 
L 453.946661 260.452071 
L 454.2786 308.115778 
L 454.444569 317.376282 
L 454.610538 290.509661 
L 454.776507 290.621233 
L 454.942476 295.363058 
L 455.108445 286.481899 
L 455.606352 359.963447 
L 455.938291 377.915438 
L 456.10426 376.409211 
L 456.270229 385.145326 
L 456.768136 359.796089 
L 456.934105 334.826197 
L 457.100074 334.826197 
L 457.266043 336.443996 
L 457.432013 328.745504 
L 457.597982 261.567794 
L 457.763951 252.30729 
L 457.92992 236.698318 
L 458.261858 236.698318 
L 458.427827 254.326749 
L 458.759765 228.151876 
L 458.925735 236.887991 
L 459.257673 220.95546 
L 459.75558 248.134484 
L 459.921549 240.435992 
L 460.253487 240.435992 
L 460.585426 224.191058 
L 460.751395 245.76915 
L 460.917364 249.261364 
L 461.083333 258.443769 
L 461.249302 235.671853 
L 461.58124 294.370064 
L 461.747209 294.972555 
L 461.913179 301.254078 
L 462.079148 301.254078 
L 462.577055 334.301807 
L 462.743024 349.263659 
L 462.908993 334.301807 
L 463.074962 347.64586 
L 463.406901 316.227087 
L 463.738839 334.435694 
L 463.904808 327.373165 
L 464.070777 335.607204 
L 464.402715 305.795073 
L 464.568684 298.54287 
L 464.734653 314.363829 
L 465.066592 282.755383 
L 465.232561 261.958298 
L 465.39853 263.721141 
L 465.564499 262.103342 
L 465.730468 266.421191 
L 465.896437 258.521869 
L 466.062406 258.521869 
L 466.228375 248.357628 
L 466.394344 256.37968 
L 466.560314 256.37968 
L 466.892252 274.476715 
L 467.058221 272.970488 
L 467.22419 265.640185 
L 467.390159 265.640185 
L 467.556128 273.416778 
L 467.722097 298.386669 
L 467.888066 289.126164 
L 468.054036 296.188694 
L 468.220005 296.289109 
L 468.551943 278.515634 
L 468.717912 287.541837 
L 468.883881 287.541837 
L 469.04985 296.277951 
L 469.215819 289.215422 
L 469.547758 289.215422 
L 469.713727 284.473597 
L 469.879696 253.936246 
L 470.211634 289.985271 
L 470.377603 238.483476 
L 470.543572 260.061568 
L 470.709541 237.289652 
L 470.87551 260.061568 
L 471.04148 265.829858 
L 471.207449 266.030688 
L 471.373418 282.721911 
L 471.539387 287.463736 
L 471.705356 282.721911 
L 471.871325 273.695708 
L 472.037294 254.817667 
L 472.203263 256.435466 
L 472.369232 247.174962 
L 472.535202 245.557163 
L 472.701171 238.30496 
L 472.86714 238.30496 
L 473.033109 245.066244 
L 473.199078 239.297954 
L 473.531016 208.515143 
L 474.028923 238.42769 
L 474.360862 221.892668 
L 474.526831 230.729198 
L 475.024738 203.817947 
L 475.190707 221.446378 
L 475.356676 221.546793 
L 475.522645 230.729198 
L 475.688615 222.829875 
L 475.854584 221.212076 
L 476.020553 227.973361 
L 476.186522 203.003469 
L 476.352491 218.188466 
L 476.51846 210.66849 
L 476.684429 234.5115 
L 476.850398 234.5115 
L 477.182337 258.499555 
L 477.348306 253.75773 
L 477.680244 219.806265 
L 477.846213 219.806265 
L 478.012182 210.623861 
L 478.34412 210.623861 
L 478.510089 217.987636 
L 478.676059 210.657332 
L 478.842028 189.860247 
L 479.007997 189.860247 
L 479.173966 199.042651 
L 479.505904 249.685339 
L 479.671873 240.502935 
L 479.837842 238.885136 
L 480.003811 240.502935 
L 480.169781 249.339465 
L 480.667688 222.20507 
L 480.999626 248.101012 
L 481.165595 230.070921 
L 481.331564 230.070921 
L 481.497533 208.492829 
L 481.663503 208.492829 
L 481.829472 318.614735 
L 481.995441 327.830611 
L 482.16141 318.570106 
L 482.327379 318.570106 
L 482.493348 336.968386 
L 482.825286 337.068802 
L 482.991255 316.271716 
L 483.157225 323.970208 
L 483.323194 323.970208 
L 483.821101 277.634212 
L 483.98707 279.140439 
L 484.153039 251.437025 
L 484.319008 242.410822 
L 484.484977 242.410822 
L 484.650946 224.012542 
L 484.816916 251.715956 
L 484.982885 251.715956 
L 485.148854 260.976461 
L 485.314823 253.913931 
L 485.480792 263.096335 
L 485.81273 263.096335 
L 485.978699 264.714134 
L 486.144668 264.714134 
L 486.310638 242.756697 
L 486.476607 260.385127 
L 486.642576 251.470497 
L 486.808545 251.470497 
L 486.974514 253.735416 
L 487.140483 270.426639 
L 487.306452 270.415481 
L 487.472421 257.87475 
L 487.63839 273.483721 
L 487.80436 265.785229 
L 487.970329 263.587254 
L 488.136298 282.465295 
L 488.302267 282.465295 
L 488.468236 273.282891 
L 488.634205 246.41627 
L 488.800174 286.838931 
L 488.966143 272.301054 
L 489.132112 297.270945 
L 489.298082 288.244742 
L 489.464051 288.244742 
L 489.63002 286.626943 
L 489.795989 294.325435 
L 489.961958 294.325435 
L 490.127927 299.06726 
L 490.459865 315.345666 
L 490.791804 299.859424 
L 491.123742 317.008094 
L 491.289711 316.807263 
L 491.787618 291.045208 
L 491.953587 317.91183 
L 492.119556 290.208416 
L 492.285526 290.208416 
L 492.783433 230.372166 
L 492.949402 238.271488 
L 493.115371 238.171073 
L 493.28134 310.369539 
L 493.447309 301.109034 
L 493.613278 308.807526 
L 493.779247 301.109034 
L 493.945217 310.146394 
L 494.111186 301.120191 
L 494.277155 310.380696 
L 494.443124 328.009127 
L 494.609093 328.009127 
L 494.775062 318.971767 
L 494.941031 293.365913 
L 495.107 293.365913 
L 495.272969 299.134204 
L 495.438939 299.134204 
L 495.770877 316.394446 
L 496.102815 271.665092 
L 496.268784 280.702452 
L 496.434753 275.715168 
L 496.600722 275.915998 
L 496.932661 260.507857 
L 497.264599 300.4396 
L 497.430568 300.4396 
L 497.596537 285.477748 
L 497.762506 309.320759 
L 497.928475 284.350868 
L 498.094444 284.150037 
L 498.426383 237.155765 
L 498.592352 237.155765 
L 498.758321 261.244235 
L 498.92429 260.106197 
L 499.256228 225.016693 
L 499.422197 224.916278 
L 499.920105 248.993591 
L 500.086074 227.036153 
L 500.252043 227.036153 
L 500.418012 241.998005 
L 500.74995 241.998005 
L 501.081888 227.203511 
L 501.247857 252.173403 
L 501.579796 223.343108 
L 501.911734 223.443523 
L 502.409641 293.522115 
L 502.57561 288.78029 
L 502.741579 297.806493 
L 502.907548 288.78029 
L 503.073518 294.54858 
L 503.239487 294.74941 
L 503.405456 302.447902 
L 503.571425 281.650817 
L 503.737394 286.392642 
L 503.903363 286.392642 
L 504.069332 277.478011 
L 504.235301 277.478011 
L 504.40127 285.71205 
L 504.56724 280.970225 
L 504.733209 255.364372 
L 504.899178 255.364372 
L 505.065147 277.32181 
L 505.231116 275.815583 
L 505.397085 275.815583 
L 505.563054 301.421437 
L 505.729023 301.421437 
L 505.894992 306.163261 
L 506.060962 306.163261 
L 506.226931 261.857882 
L 506.3929 287.463736 
L 506.724838 236.821048 
L 506.890807 236.821048 
L 507.056776 229.122556 
L 507.222745 207.165118 
L 507.388714 207.165118 
L 507.554684 213.926402 
L 507.886622 259.347505 
L 508.21856 244.39681 
L 508.384529 263.274851 
L 508.716467 263.274851 
L 509.214375 240.52525 
L 509.380344 239.922759 
L 509.546313 221.524479 
L 509.712282 241.752545 
L 509.878251 241.752545 
L 510.04422 242.254621 
L 510.210189 223.37658 
L 510.376158 222.72946 
L 510.542128 201.932375 
L 510.708097 201.932375 
L 510.874066 207.700665 
L 511.040035 207.700665 
L 511.371973 225.117109 
L 511.537942 217.864906 
L 511.703911 217.864906 
L 511.86988 212.096616 
L 512.035849 219.795108 
L 512.201819 219.895523 
L 512.367788 212.832993 
L 512.533757 227.794845 
L 512.699726 252.83168 
L 512.865695 252.731264 
L 513.031664 260.630587 
L 513.197633 252.731264 
L 513.363602 252.731264 
L 513.529571 244.497225 
L 513.695541 252.731264 
L 513.86151 252.83168 
L 514.027479 257.573504 
L 514.359417 302.838405 
L 514.525386 298.096581 
L 514.691355 298.096581 
L 515.023293 279.798716 
L 515.189263 278.292489 
L 515.521201 278.292489 
L 515.68717 258.064423 
L 515.853139 258.064423 
L 516.185077 301.923512 
L 516.351046 300.305713 
L 516.517015 278.348275 
L 516.682985 278.348275 
L 516.848954 271.285746 
L 517.014923 270.337381 
L 517.180892 285.299233 
L 517.346861 285.299233 
L 517.51283 294.325435 
L 517.844768 321.560245 
L 518.010737 312.299741 
L 518.176707 328.120699 
L 518.508645 293.678316 
L 518.674614 272.100224 
L 518.840583 271.899394 
L 519.006552 266.131103 
L 519.172521 291.167938 
L 519.33849 283.915735 
L 519.670429 264.301317 
L 520.002367 264.301317 
L 520.168336 271.062601 
L 520.334305 272.568828 
L 520.666243 254.817667 
L 520.998181 265.673657 
L 521.164151 265.673657 
L 521.33012 274.69986 
L 521.662058 274.69986 
L 521.828027 247.833238 
L 521.993996 256.067278 
L 522.159965 228.363864 
L 522.325934 228.363864 
L 522.491903 228.163034 
L 522.657872 228.163034 
L 522.823842 255.866447 
L 522.989811 255.866447 
L 523.321749 218.902529 
L 523.487718 223.644354 
L 523.653687 201.686916 
L 523.819656 210.601546 
L 523.985625 210.601546 
L 524.151594 219.337661 
L 524.317564 219.538491 
L 524.483533 210.512288 
L 524.649502 237.378909 
L 524.815471 230.617625 
L 524.98144 253.389541 
L 525.147409 246.137339 
L 525.313378 266.934424 
L 525.479347 265.316625 
L 525.811286 301.343336 
L 526.143224 285.745522 
L 526.309193 294.771725 
L 526.641131 294.771725 
L 526.8071 285.589321 
L 526.973069 264.011229 
L 527.139038 271.709721 
L 527.305008 271.50889 
L 527.470977 254.817667 
L 527.636946 285.009144 
L 527.802915 284.908729 
L 528.134853 285.009144 
L 528.300822 292.361762 
L 528.466791 292.361762 
L 528.63276 285.299233 
L 528.79873 263.341795 
L 528.964699 268.083619 
L 529.130668 243.113728 
L 529.296637 263.910814 
L 529.628575 263.910814 
L 529.794544 245.032772 
L 529.960513 252.095302 
L 530.956328 252.095302 
L 531.122297 246.327012 
L 531.454235 246.327012 
L 531.786173 291.837372 
L 531.952143 283.369031 
L 532.118112 255.665617 
L 532.284081 255.665617 
L 532.45005 277.478011 
L 532.616019 255.520573 
L 532.947957 241.663288 
L 533.113926 241.663288 
L 533.279895 245.557163 
L 533.445865 245.557163 
L 533.611834 250.298987 
L 533.777803 229.501902 
L 533.943772 229.501902 
L 534.109741 206.729986 
L 534.607648 206.729986 
L 534.773617 198.830664 
L 534.939587 222.673674 
L 535.105556 229.736204 
L 535.271525 229.736204 
L 535.437494 220.710001 
L 535.603463 220.609586 
L 535.769432 220.710001 
L 535.935401 196.86699 
L 536.10137 215.745031 
L 536.267339 215.745031 
L 536.433309 197.346751 
L 536.599278 191.578461 
L 536.765247 191.578461 
L 536.931216 182.976233 
L 537.429123 182.976233 
L 537.595092 190.875555 
L 537.761061 190.875555 
L 537.927031 189.257756 
L 538.093 189.257756 
L 538.258969 207.656036 
L 538.424938 207.656036 
L 538.590907 189.257756 
L 538.756876 197.993871 
L 538.922845 213.81483 
L 539.088814 194.936789 
L 539.254783 203.851419 
L 539.586722 190.273065 
L 539.752691 199.455469 
L 539.91866 177.877377 
L 540.084629 176.37115 
L 540.748505 176.37115 
L 540.914474 181.112975 
L 541.080444 174.351691 
L 541.246413 175.96949 
L 541.412382 175.96949 
L 541.578351 168.90696 
L 542.242227 168.90696 
L 542.408196 168.717287 
L 542.574166 168.717287 
L 542.906104 186.234146 
L 543.072073 178.334823 
L 543.56998 178.334823 
L 543.735949 169.074319 
L 544.399826 169.074319 
L 544.565795 176.973641 
L 544.731764 178.9931 
L 544.897733 171.294608 
L 545.063702 171.294608 
L 545.229671 163.395286 
L 545.39564 163.395286 
L 545.56161 164.801098 
L 545.727579 164.801098 
L 545.893548 164.600267 
L 546.059517 164.600267 
L 546.225486 158.831977 
L 547.719208 158.831977 
L 547.885177 163.573802 
L 548.051146 144.695761 
L 548.217115 144.695761 
L 548.549054 175.433942 
L 548.715023 175.433942 
L 548.880992 198.205858 
L 549.046961 198.205858 
L 549.21293 210.088313 
L 550.042775 210.088313 
L 550.208745 225.909272 
L 550.374714 218.65707 
L 550.540683 190.953656 
L 550.872621 190.953656 
L 551.03859 168.18174 
L 551.536497 168.18174 
L 551.702467 154.636857 
L 551.868436 167.222218 
L 552.034405 157.180706 
L 552.532312 157.080291 
L 552.698281 162.848582 
L 553.528127 162.848582 
L 553.694096 140.891144 
L 554.689911 140.891144 
L 554.85588 135.122853 
L 555.519756 135.122853 
L 555.685725 157.080291 
L 555.851694 157.080291 
L 556.017663 157.281121 
L 556.183633 157.281121 
L 556.349602 163.049412 
L 556.68154 163.049412 
L 556.847509 172.086772 
L 557.013478 163.250242 
L 557.179447 170.948734 
L 557.511385 170.948734 
L 557.843324 139.953936 
L 558.009293 130.927733 
L 558.175262 155.897624 
L 558.5072 155.897624 
L 558.673169 167.958595 
L 559.668984 168.05901 
L 559.834953 162.29072 
L 560.996737 162.29072 
L 561.162706 171.551225 
L 561.328675 171.104935 
L 561.494644 171.104935 
L 561.660613 145.499082 
L 561.826582 154.335612 
L 562.32449 154.335612 
L 562.490459 145.075107 
L 563.486273 145.075107 
L 563.652242 152.137636 
L 563.818212 143.301106 
L 563.984181 152.561611 
L 564.15015 152.561611 
L 564.482088 166.508155 
L 564.814026 166.508155 
L 564.979995 159.713399 
L 565.311934 159.612984 
L 565.477903 177.241414 
L 565.809841 177.241414 
L 565.97581 194.323141 
L 566.141779 194.323141 
L 566.307748 186.423819 
L 567.303563 186.524234 
L 567.469532 178.825742 
L 567.635501 158.028656 
L 568.797285 158.028656 
L 568.963254 148.768151 
L 569.129223 148.768151 
L 569.295192 139.039043 
L 569.62713 139.039043 
L 569.793099 152.338467 
L 571.286821 152.338467 
L 571.452791 158.106757 
L 573.44442 158.106757 
L 573.610389 158.965864 
L 573.942327 158.965864 
L 574.108296 166.664356 
L 576.763802 166.664356 
L 576.929771 167.947438 
L 577.261709 167.947438 
L 577.427679 162.179148 
L 578.423493 162.179148 
L 578.589462 147.373497 
L 578.755431 147.373497 
L 578.9214 139.675005 
L 579.08737 138.057206 
L 579.419308 138.057206 
L 579.585277 140.322125 
L 579.917215 140.22171 
L 580.747061 140.22171 
L 580.91303 133.15918 
L 581.244968 133.15918 
L 581.410937 134.776979 
L 581.908844 134.776979 
L 582.074814 119.848599 
L 582.572721 119.848599 
L 582.73869 118.989492 
L 583.402566 119.089907 
L 583.568536 137.488187 
L 584.232412 137.488187 
L 584.398381 146.324717 
L 584.56435 146.324717 
L 584.730319 137.410086 
L 585.394196 137.410086 
L 585.560165 128.383884 
L 586.224041 128.383884 
L 586.39001 135.044753 
L 586.55598 118.35353 
L 586.887918 118.35353 
L 587.053887 125.137128 
L 587.385825 125.137128 
L 587.551794 115.954724 
L 591.535053 115.954724 
L 591.701022 123.485858 
L 593.028775 123.485858 
L 593.194744 130.548387 
L 595.85025 130.548387 
L 596.016219 128.930588 
L 596.514126 128.930588 
L 596.680095 129.120261 
L 597.509941 129.120261 
L 597.67591 124.389594 
L 598.837694 124.389594 
L 599.003663 125.89582 
L 599.335601 125.89582 
L 599.50157 118.643618 
L 600.663354 118.643618 
L 600.829323 110.744296 
L 601.659168 110.744296 
L 601.825138 120.0048 
L 602.323045 120.0048 
L 602.489014 112.942271 
L 602.986921 112.942271 
L 603.15289 107.17398 
L 603.650798 107.17398 
L 603.816767 98.147778 
L 606.97018 98.147778 
L 607.136149 107.330182 
L 607.302118 98.147778 
L 611.451346 98.248193 
L 611.617315 88.987688 
L 614.936697 88.987688 
L 615.102666 90.605487 
L 615.932512 90.605487 
L 616.098481 88.987688 
L 622.073369 88.887273 
L 622.239338 90.505072 
L 631.367639 90.605487 
L 631.533608 88.987688 
L 634.355083 88.887273 
L 634.521052 90.505072 
L 636.180743 90.505072 
L 636.346712 88.887273 
L 682.486125 88.887273 
L 682.652094 90.505072 
L 684.975661 90.505072 
L 685.14163 88.887273 
L 871.690909 88.887273 
L 871.690909 88.887273 
" style="fill:none;stroke:#8dd3c7;stroke-linecap:square;stroke-width:1.5;"/>
   </g>
   <g id="line2d_15">
    <path clip-path="url(#pedf1a139c6)" d="M 161.509091 180.622056 
L 344.573018 180.622056 
L 344.738987 164.58911 
L 545.063702 164.58911 
L 545.229671 163.395286 
L 546.059517 163.395286 
L 546.225486 158.831977 
L 547.885177 158.831977 
L 548.051146 144.695761 
L 553.528127 144.695761 
L 553.694096 140.891144 
L 554.689911 140.891144 
L 554.85588 135.122853 
L 557.843324 135.122853 
L 558.009293 130.927733 
L 581.908844 130.927733 
L 582.074814 119.848599 
L 582.572721 119.848599 
L 582.73869 118.989492 
L 586.39001 118.989492 
L 586.55598 118.35353 
L 587.385825 118.35353 
L 587.551794 115.954724 
L 600.663354 115.954724 
L 600.829323 110.744296 
L 602.986921 110.744296 
L 603.15289 107.17398 
L 603.650798 107.17398 
L 603.816767 98.147778 
L 611.451346 98.147778 
L 611.617315 88.987688 
L 871.690909 88.887273 
L 871.690909 88.887273 
" style="fill:none;stroke:#feffb3;stroke-linecap:square;stroke-width:1.5;"/>
   </g>
   <g id="line2d_16">
    <path clip-path="url(#pedf1a139c6)" d="M 161.509091 481.196621 
L 163.002813 481.196621 
L 163.334751 481.315902 
L 164.662504 481.315902 
L 164.994442 481.430497 
L 167.981886 481.54059 
L 168.313824 481.646358 
L 171.301268 481.74797 
L 171.633207 481.84559 
L 174.620651 481.939375 
L 174.952589 482.029476 
L 177.940033 482.116036 
L 178.271971 482.199196 
L 181.259415 482.279089 
L 181.591353 482.355842 
L 184.578797 482.429581 
L 184.910735 482.500422 
L 187.898179 482.56848 
L 188.230117 482.633865 
L 191.217561 482.69668 
L 191.5495 482.757028 
L 194.536944 482.815005 
L 195.034851 482.870704 
L 199.516017 482.975623 
L 200.013924 483.025011 
L 204.49509 483.118044 
L 204.992998 483.161837 
L 209.474163 483.24433 
L 209.972071 483.283161 
L 216.112928 483.39074 
L 216.776804 483.42382 
L 222.751692 483.515464 
L 223.415569 483.543643 
L 231.050148 483.645717 
L 231.879993 483.668779 
L 241.008294 483.771191 
L 242.170078 483.789324 
L 254.285823 483.897798 
L 255.779545 483.910957 
L 272.542425 484.017211 
L 275.031962 484.033813 
L 309.055629 484.143492 
L 314.864548 484.156711 
L 871.690909 484.232727 
L 871.690909 484.232727 
" style="fill:none;stroke:#bfbbd9;stroke-linecap:square;stroke-width:1.5;"/>
   </g>
   <g id="patch_3">
    <path d="M 126 504 
L 126 69.12 
" style="fill:none;stroke:#ffffff;stroke-linecap:square;stroke-linejoin:miter;stroke-width:0.8;"/>
   </g>
   <g id="patch_4">
    <path d="M 907.2 504 
L 907.2 69.12 
" style="fill:none;stroke:#ffffff;stroke-linecap:square;stroke-linejoin:miter;stroke-width:0.8;"/>
   </g>
   <g id="patch_5">
    <path d="M 126 504 
L 907.2 504 
" style="fill:none;stroke:#ffffff;stroke-linecap:square;stroke-linejoin:miter;stroke-width:0.8;"/>
   </g>
   <g id="patch_6">
    <path d="M 126 69.12 
L 907.2 69.12 
" style="fill:none;stroke:#ffffff;stroke-linecap:square;stroke-linejoin:miter;stroke-width:0.8;"/>
   </g>
   <g id="text_15">
    <!-- instance 7 with error 0.0 -->
    <g style="fill:#ffffff;" transform="translate(442.944375 63.12)scale(0.12 -0.12)">
     <defs>
      <path d="M 2834 3397 
L 2834 2853 
Q 2591 2978 2328 3040 
Q 2066 3103 1784 3103 
Q 1356 3103 1142 2972 
Q 928 2841 928 2578 
Q 928 2378 1081 2264 
Q 1234 2150 1697 2047 
L 1894 2003 
Q 2506 1872 2764 1633 
Q 3022 1394 3022 966 
Q 3022 478 2636 193 
Q 2250 -91 1575 -91 
Q 1294 -91 989 -36 
Q 684 19 347 128 
L 347 722 
Q 666 556 975 473 
Q 1284 391 1588 391 
Q 1994 391 2212 530 
Q 2431 669 2431 922 
Q 2431 1156 2273 1281 
Q 2116 1406 1581 1522 
L 1381 1569 
Q 847 1681 609 1914 
Q 372 2147 372 2553 
Q 372 3047 722 3315 
Q 1072 3584 1716 3584 
Q 2034 3584 2315 3537 
Q 2597 3491 2834 3397 
z
" id="DejaVuSans-73" transform="scale(0.015625)"/>
      <path d="M 3122 3366 
L 3122 2828 
Q 2878 2963 2633 3030 
Q 2388 3097 2138 3097 
Q 1578 3097 1268 2742 
Q 959 2388 959 1747 
Q 959 1106 1268 751 
Q 1578 397 2138 397 
Q 2388 397 2633 464 
Q 2878 531 3122 666 
L 3122 134 
Q 2881 22 2623 -34 
Q 2366 -91 2075 -91 
Q 1284 -91 818 406 
Q 353 903 353 1747 
Q 353 2603 823 3093 
Q 1294 3584 2113 3584 
Q 2378 3584 2631 3529 
Q 2884 3475 3122 3366 
z
" id="DejaVuSans-63" transform="scale(0.015625)"/>
      <path id="DejaVuSans-20" transform="scale(0.015625)"/>
      <path d="M 525 4666 
L 3525 4666 
L 3525 4397 
L 1831 0 
L 1172 0 
L 2766 4134 
L 525 4134 
L 525 4666 
z
" id="DejaVuSans-37" transform="scale(0.015625)"/>
      <path d="M 269 3500 
L 844 3500 
L 1563 769 
L 2278 3500 
L 2956 3500 
L 3675 769 
L 4391 3500 
L 4966 3500 
L 4050 0 
L 3372 0 
L 2619 2869 
L 1863 0 
L 1184 0 
L 269 3500 
z
" id="DejaVuSans-77" transform="scale(0.015625)"/>
      <path d="M 3513 2113 
L 3513 0 
L 2938 0 
L 2938 2094 
Q 2938 2591 2744 2837 
Q 2550 3084 2163 3084 
Q 1697 3084 1428 2787 
Q 1159 2491 1159 1978 
L 1159 0 
L 581 0 
L 581 4863 
L 1159 4863 
L 1159 2956 
Q 1366 3272 1645 3428 
Q 1925 3584 2291 3584 
Q 2894 3584 3203 3211 
Q 3513 2838 3513 2113 
z
" id="DejaVuSans-68" transform="scale(0.015625)"/>
      <path d="M 684 794 
L 1344 794 
L 1344 0 
L 684 0 
L 684 794 
z
" id="DejaVuSans-2e" transform="scale(0.015625)"/>
     </defs>
     <use xlink:href="#DejaVuSans-69"/>
     <use x="27.783203" xlink:href="#DejaVuSans-6e"/>
     <use x="91.162109" xlink:href="#DejaVuSans-73"/>
     <use x="143.261719" xlink:href="#DejaVuSans-74"/>
     <use x="182.470703" xlink:href="#DejaVuSans-61"/>
     <use x="243.75" xlink:href="#DejaVuSans-6e"/>
     <use x="307.128906" xlink:href="#DejaVuSans-63"/>
     <use x="362.109375" xlink:href="#DejaVuSans-65"/>
     <use x="423.632812" xlink:href="#DejaVuSans-20"/>
     <use x="455.419922" xlink:href="#DejaVuSans-37"/>
     <use x="519.042969" xlink:href="#DejaVuSans-20"/>
     <use x="550.830078" xlink:href="#DejaVuSans-77"/>
     <use x="632.617188" xlink:href="#DejaVuSans-69"/>
     <use x="660.400391" xlink:href="#DejaVuSans-74"/>
     <use x="699.609375" xlink:href="#DejaVuSans-68"/>
     <use x="762.988281" xlink:href="#DejaVuSans-20"/>
     <use x="794.775391" xlink:href="#DejaVuSans-65"/>
     <use x="856.298828" xlink:href="#DejaVuSans-72"/>
     <use x="895.662109" xlink:href="#DejaVuSans-72"/>
     <use x="934.525391" xlink:href="#DejaVuSans-6f"/>
     <use x="995.707031" xlink:href="#DejaVuSans-72"/>
     <use x="1036.820312" xlink:href="#DejaVuSans-20"/>
     <use x="1068.607422" xlink:href="#DejaVuSans-30"/>
     <use x="1132.230469" xlink:href="#DejaVuSans-2e"/>
     <use x="1164.017578" xlink:href="#DejaVuSans-30"/>
    </g>
   </g>
   <g id="legend_1">
    <g id="patch_7">
     <path d="M 805.348438 499 
L 900.2 499 
Q 902.2 499 902.2 497 
L 902.2 453.965625 
Q 902.2 451.965625 900.2 451.965625 
L 805.348438 451.965625 
Q 803.348438 451.965625 803.348438 453.965625 
L 803.348438 497 
Q 803.348438 499 805.348438 499 
z
" style="opacity:0.8;stroke:#cccccc;stroke-linejoin:miter;"/>
    </g>
    <g id="line2d_17">
     <path d="M 807.348438 460.064062 
L 827.348438 460.064062 
" style="fill:none;stroke:#8dd3c7;stroke-linecap:square;stroke-width:1.5;"/>
    </g>
    <g id="line2d_18"/>
    <g id="text_16">
     <!-- cost -->
     <g style="fill:#ffffff;" transform="translate(835.348438 463.564062)scale(0.1 -0.1)">
      <use xlink:href="#DejaVuSans-63"/>
      <use x="54.980469" xlink:href="#DejaVuSans-6f"/>
      <use x="116.162109" xlink:href="#DejaVuSans-73"/>
      <use x="168.261719" xlink:href="#DejaVuSans-74"/>
     </g>
    </g>
    <g id="line2d_19">
     <path d="M 807.348438 474.742188 
L 827.348438 474.742188 
" style="fill:none;stroke:#feffb3;stroke-linecap:square;stroke-width:1.5;"/>
    </g>
    <g id="line2d_20"/>
    <g id="text_17">
     <!-- best cost -->
     <g style="fill:#ffffff;" transform="translate(835.348438 478.242188)scale(0.1 -0.1)">
      <defs>
       <path d="M 3116 1747 
Q 3116 2381 2855 2742 
Q 2594 3103 2138 3103 
Q 1681 3103 1420 2742 
Q 1159 2381 1159 1747 
Q 1159 1113 1420 752 
Q 1681 391 2138 391 
Q 2594 391 2855 752 
Q 3116 1113 3116 1747 
z
M 1159 2969 
Q 1341 3281 1617 3432 
Q 1894 3584 2278 3584 
Q 2916 3584 3314 3078 
Q 3713 2572 3713 1747 
Q 3713 922 3314 415 
Q 2916 -91 2278 -91 
Q 1894 -91 1617 61 
Q 1341 213 1159 525 
L 1159 0 
L 581 0 
L 581 4863 
L 1159 4863 
L 1159 2969 
z
" id="DejaVuSans-62" transform="scale(0.015625)"/>
      </defs>
      <use xlink:href="#DejaVuSans-62"/>
      <use x="63.476562" xlink:href="#DejaVuSans-65"/>
      <use x="125" xlink:href="#DejaVuSans-73"/>
      <use x="177.099609" xlink:href="#DejaVuSans-74"/>
      <use x="216.308594" xlink:href="#DejaVuSans-20"/>
      <use x="248.095703" xlink:href="#DejaVuSans-63"/>
      <use x="303.076172" xlink:href="#DejaVuSans-6f"/>
      <use x="364.257812" xlink:href="#DejaVuSans-73"/>
      <use x="416.357422" xlink:href="#DejaVuSans-74"/>
     </g>
    </g>
    <g id="line2d_21">
     <path d="M 807.348438 489.420313 
L 827.348438 489.420313 
" style="fill:none;stroke:#bfbbd9;stroke-linecap:square;stroke-width:1.5;"/>
    </g>
    <g id="line2d_22"/>
    <g id="text_18">
     <!-- temperature -->
     <g style="fill:#ffffff;" transform="translate(835.348438 492.920313)scale(0.1 -0.1)">
      <defs>
       <path d="M 3328 2828 
Q 3544 3216 3844 3400 
Q 4144 3584 4550 3584 
Q 5097 3584 5394 3201 
Q 5691 2819 5691 2113 
L 5691 0 
L 5113 0 
L 5113 2094 
Q 5113 2597 4934 2840 
Q 4756 3084 4391 3084 
Q 3944 3084 3684 2787 
Q 3425 2491 3425 1978 
L 3425 0 
L 2847 0 
L 2847 2094 
Q 2847 2600 2669 2842 
Q 2491 3084 2119 3084 
Q 1678 3084 1418 2786 
Q 1159 2488 1159 1978 
L 1159 0 
L 581 0 
L 581 3500 
L 1159 3500 
L 1159 2956 
Q 1356 3278 1631 3431 
Q 1906 3584 2284 3584 
Q 2666 3584 2933 3390 
Q 3200 3197 3328 2828 
z
" id="DejaVuSans-6d" transform="scale(0.015625)"/>
       <path d="M 1159 525 
L 1159 -1331 
L 581 -1331 
L 581 3500 
L 1159 3500 
L 1159 2969 
Q 1341 3281 1617 3432 
Q 1894 3584 2278 3584 
Q 2916 3584 3314 3078 
Q 3713 2572 3713 1747 
Q 3713 922 3314 415 
Q 2916 -91 2278 -91 
Q 1894 -91 1617 61 
Q 1341 213 1159 525 
z
M 3116 1747 
Q 3116 2381 2855 2742 
Q 2594 3103 2138 3103 
Q 1681 3103 1420 2742 
Q 1159 2381 1159 1747 
Q 1159 1113 1420 752 
Q 1681 391 2138 391 
Q 2594 391 2855 752 
Q 3116 1113 3116 1747 
z
" id="DejaVuSans-70" transform="scale(0.015625)"/>
       <path d="M 544 1381 
L 544 3500 
L 1119 3500 
L 1119 1403 
Q 1119 906 1312 657 
Q 1506 409 1894 409 
Q 2359 409 2629 706 
Q 2900 1003 2900 1516 
L 2900 3500 
L 3475 3500 
L 3475 0 
L 2900 0 
L 2900 538 
Q 2691 219 2414 64 
Q 2138 -91 1772 -91 
Q 1169 -91 856 284 
Q 544 659 544 1381 
z
M 1991 3584 
L 1991 3584 
z
" id="DejaVuSans-75" transform="scale(0.015625)"/>
      </defs>
      <use xlink:href="#DejaVuSans-74"/>
      <use x="39.208984" xlink:href="#DejaVuSans-65"/>
      <use x="100.732422" xlink:href="#DejaVuSans-6d"/>
      <use x="198.144531" xlink:href="#DejaVuSans-70"/>
      <use x="261.621094" xlink:href="#DejaVuSans-65"/>
      <use x="323.144531" xlink:href="#DejaVuSans-72"/>
      <use x="364.257812" xlink:href="#DejaVuSans-61"/>
      <use x="425.537109" xlink:href="#DejaVuSans-74"/>
      <use x="464.746094" xlink:href="#DejaVuSans-75"/>
      <use x="528.125" xlink:href="#DejaVuSans-72"/>
      <use x="566.988281" xlink:href="#DejaVuSans-65"/>
     </g>
    </g>
   </g>
  </g>
 </g>
 <defs>
  <clipPath id="pedf1a139c6">
   <rect height="434.88" width="781.2" x="126" y="69.12"/>
  </clipPath>
 </defs>
</svg>
