<?xml version="1.0" encoding="utf-8" standalone="no"?>
<!DOCTYPE svg PUBLIC "-//W3C//DTD SVG 1.1//EN"
  "http://www.w3.org/Graphics/SVG/1.1/DTD/svg11.dtd">
<svg height="576pt" version="1.1" viewBox="0 0 1008 576" width="1008pt" xmlns="http://www.w3.org/2000/svg" xmlns:xlink="http://www.w3.org/1999/xlink">
 <metadata>
  <rdf:RDF xmlns:cc="http://creativecommons.org/ns#" xmlns:dc="http://purl.org/dc/elements/1.1/" xmlns:rdf="http://www.w3.org/1999/02/22-rdf-syntax-ns#">
   <cc:Work>
    <dc:type rdf:resource="http://purl.org/dc/dcmitype/StillImage"/>
    <dc:date>2022-01-07T00:38:54.054000</dc:date>
    <dc:format>image/svg+xml</dc:format>
    <dc:creator>
     <cc:Agent>
      <dc:title>Matplotlib v3.4.3, https://matplotlib.org/</dc:title>
     </cc:Agent>
    </dc:creator>
   </cc:Work>
  </rdf:RDF>
 </metadata>
 <defs>
  <style type="text/css">*{stroke-linecap:butt;stroke-linejoin:round;}</style>
 </defs>
 <g id="figure_1">
  <g id="patch_1">
   <path d="M 0 576 
L 1008 576 
L 1008 0 
L 0 0 
z
"/>
  </g>
  <g id="axes_1">
   <g id="patch_2">
    <path d="M 126 504 
L 907.2 504 
L 907.2 69.12 
L 126 69.12 
z
"/>
   </g>
   <g id="matplotlib.axis_1">
    <g id="xtick_1">
     <g id="line2d_1">
      <defs>
       <path d="M 0 0 
L 0 3.5 
" id="m01bfbf982f" style="stroke:#ffffff;stroke-width:0.8;"/>
      </defs>
      <g>
       <use style="fill:#ffffff;stroke:#ffffff;stroke-width:0.8;" x="161.509091" xlink:href="#m01bfbf982f" y="504"/>
      </g>
     </g>
     <g id="text_1">
      <!-- 0 -->
      <g style="fill:#ffffff;" transform="translate(158.327841 518.598438)scale(0.1 -0.1)">
       <defs>
        <path d="M 2034 4250 
Q 1547 4250 1301 3770 
Q 1056 3291 1056 2328 
Q 1056 1369 1301 889 
Q 1547 409 2034 409 
Q 2525 409 2770 889 
Q 3016 1369 3016 2328 
Q 3016 3291 2770 3770 
Q 2525 4250 2034 4250 
z
M 2034 4750 
Q 2819 4750 3233 4129 
Q 3647 3509 3647 2328 
Q 3647 1150 3233 529 
Q 2819 -91 2034 -91 
Q 1250 -91 836 529 
Q 422 1150 422 2328 
Q 422 3509 836 4129 
Q 1250 4750 2034 4750 
z
" id="DejaVuSans-30" transform="scale(0.015625)"/>
       </defs>
       <use xlink:href="#DejaVuSans-30"/>
      </g>
     </g>
    </g>
    <g id="xtick_2">
     <g id="line2d_2">
      <g>
       <use style="fill:#ffffff;stroke:#ffffff;stroke-width:0.8;" x="279.912195" xlink:href="#m01bfbf982f" y="504"/>
      </g>
     </g>
     <g id="text_2">
      <!-- 500 -->
      <g style="fill:#ffffff;" transform="translate(270.368445 518.598438)scale(0.1 -0.1)">
       <defs>
        <path d="M 691 4666 
L 3169 4666 
L 3169 4134 
L 1269 4134 
L 1269 2991 
Q 1406 3038 1543 3061 
Q 1681 3084 1819 3084 
Q 2600 3084 3056 2656 
Q 3513 2228 3513 1497 
Q 3513 744 3044 326 
Q 2575 -91 1722 -91 
Q 1428 -91 1123 -41 
Q 819 9 494 109 
L 494 744 
Q 775 591 1075 516 
Q 1375 441 1709 441 
Q 2250 441 2565 725 
Q 2881 1009 2881 1497 
Q 2881 1984 2565 2268 
Q 2250 2553 1709 2553 
Q 1456 2553 1204 2497 
Q 953 2441 691 2322 
L 691 4666 
z
" id="DejaVuSans-35" transform="scale(0.015625)"/>
       </defs>
       <use xlink:href="#DejaVuSans-35"/>
       <use x="63.623047" xlink:href="#DejaVuSans-30"/>
       <use x="127.246094" xlink:href="#DejaVuSans-30"/>
      </g>
     </g>
    </g>
    <g id="xtick_3">
     <g id="line2d_3">
      <g>
       <use style="fill:#ffffff;stroke:#ffffff;stroke-width:0.8;" x="398.315299" xlink:href="#m01bfbf982f" y="504"/>
      </g>
     </g>
     <g id="text_3">
      <!-- 1000 -->
      <g style="fill:#ffffff;" transform="translate(385.590299 518.598438)scale(0.1 -0.1)">
       <defs>
        <path d="M 794 531 
L 1825 531 
L 1825 4091 
L 703 3866 
L 703 4441 
L 1819 4666 
L 2450 4666 
L 2450 531 
L 3481 531 
L 3481 0 
L 794 0 
L 794 531 
z
" id="DejaVuSans-31" transform="scale(0.015625)"/>
       </defs>
       <use xlink:href="#DejaVuSans-31"/>
       <use x="63.623047" xlink:href="#DejaVuSans-30"/>
       <use x="127.246094" xlink:href="#DejaVuSans-30"/>
       <use x="190.869141" xlink:href="#DejaVuSans-30"/>
      </g>
     </g>
    </g>
    <g id="xtick_4">
     <g id="line2d_4">
      <g>
       <use style="fill:#ffffff;stroke:#ffffff;stroke-width:0.8;" x="516.718403" xlink:href="#m01bfbf982f" y="504"/>
      </g>
     </g>
     <g id="text_4">
      <!-- 1500 -->
      <g style="fill:#ffffff;" transform="translate(503.993403 518.598438)scale(0.1 -0.1)">
       <use xlink:href="#DejaVuSans-31"/>
       <use x="63.623047" xlink:href="#DejaVuSans-35"/>
       <use x="127.246094" xlink:href="#DejaVuSans-30"/>
       <use x="190.869141" xlink:href="#DejaVuSans-30"/>
      </g>
     </g>
    </g>
    <g id="xtick_5">
     <g id="line2d_5">
      <g>
       <use style="fill:#ffffff;stroke:#ffffff;stroke-width:0.8;" x="635.121507" xlink:href="#m01bfbf982f" y="504"/>
      </g>
     </g>
     <g id="text_5">
      <!-- 2000 -->
      <g style="fill:#ffffff;" transform="translate(622.396507 518.598438)scale(0.1 -0.1)">
       <defs>
        <path d="M 1228 531 
L 3431 531 
L 3431 0 
L 469 0 
L 469 531 
Q 828 903 1448 1529 
Q 2069 2156 2228 2338 
Q 2531 2678 2651 2914 
Q 2772 3150 2772 3378 
Q 2772 3750 2511 3984 
Q 2250 4219 1831 4219 
Q 1534 4219 1204 4116 
Q 875 4013 500 3803 
L 500 4441 
Q 881 4594 1212 4672 
Q 1544 4750 1819 4750 
Q 2544 4750 2975 4387 
Q 3406 4025 3406 3419 
Q 3406 3131 3298 2873 
Q 3191 2616 2906 2266 
Q 2828 2175 2409 1742 
Q 1991 1309 1228 531 
z
" id="DejaVuSans-32" transform="scale(0.015625)"/>
       </defs>
       <use xlink:href="#DejaVuSans-32"/>
       <use x="63.623047" xlink:href="#DejaVuSans-30"/>
       <use x="127.246094" xlink:href="#DejaVuSans-30"/>
       <use x="190.869141" xlink:href="#DejaVuSans-30"/>
      </g>
     </g>
    </g>
    <g id="xtick_6">
     <g id="line2d_6">
      <g>
       <use style="fill:#ffffff;stroke:#ffffff;stroke-width:0.8;" x="753.524611" xlink:href="#m01bfbf982f" y="504"/>
      </g>
     </g>
     <g id="text_6">
      <!-- 2500 -->
      <g style="fill:#ffffff;" transform="translate(740.799611 518.598438)scale(0.1 -0.1)">
       <use xlink:href="#DejaVuSans-32"/>
       <use x="63.623047" xlink:href="#DejaVuSans-35"/>
       <use x="127.246094" xlink:href="#DejaVuSans-30"/>
       <use x="190.869141" xlink:href="#DejaVuSans-30"/>
      </g>
     </g>
    </g>
    <g id="xtick_7">
     <g id="line2d_7">
      <g>
       <use style="fill:#ffffff;stroke:#ffffff;stroke-width:0.8;" x="871.927715" xlink:href="#m01bfbf982f" y="504"/>
      </g>
     </g>
     <g id="text_7">
      <!-- 3000 -->
      <g style="fill:#ffffff;" transform="translate(859.202715 518.598438)scale(0.1 -0.1)">
       <defs>
        <path d="M 2597 2516 
Q 3050 2419 3304 2112 
Q 3559 1806 3559 1356 
Q 3559 666 3084 287 
Q 2609 -91 1734 -91 
Q 1441 -91 1130 -33 
Q 819 25 488 141 
L 488 750 
Q 750 597 1062 519 
Q 1375 441 1716 441 
Q 2309 441 2620 675 
Q 2931 909 2931 1356 
Q 2931 1769 2642 2001 
Q 2353 2234 1838 2234 
L 1294 2234 
L 1294 2753 
L 1863 2753 
Q 2328 2753 2575 2939 
Q 2822 3125 2822 3475 
Q 2822 3834 2567 4026 
Q 2313 4219 1838 4219 
Q 1578 4219 1281 4162 
Q 984 4106 628 3988 
L 628 4550 
Q 988 4650 1302 4700 
Q 1616 4750 1894 4750 
Q 2613 4750 3031 4423 
Q 3450 4097 3450 3541 
Q 3450 3153 3228 2886 
Q 3006 2619 2597 2516 
z
" id="DejaVuSans-33" transform="scale(0.015625)"/>
       </defs>
       <use xlink:href="#DejaVuSans-33"/>
       <use x="63.623047" xlink:href="#DejaVuSans-30"/>
       <use x="127.246094" xlink:href="#DejaVuSans-30"/>
       <use x="190.869141" xlink:href="#DejaVuSans-30"/>
      </g>
     </g>
    </g>
    <g id="text_8">
     <!-- iteration -->
     <g style="fill:#ffffff;" transform="translate(495.477344 532.276562)scale(0.1 -0.1)">
      <defs>
       <path d="M 603 3500 
L 1178 3500 
L 1178 0 
L 603 0 
L 603 3500 
z
M 603 4863 
L 1178 4863 
L 1178 4134 
L 603 4134 
L 603 4863 
z
" id="DejaVuSans-69" transform="scale(0.015625)"/>
       <path d="M 1172 4494 
L 1172 3500 
L 2356 3500 
L 2356 3053 
L 1172 3053 
L 1172 1153 
Q 1172 725 1289 603 
Q 1406 481 1766 481 
L 2356 481 
L 2356 0 
L 1766 0 
Q 1100 0 847 248 
Q 594 497 594 1153 
L 594 3053 
L 172 3053 
L 172 3500 
L 594 3500 
L 594 4494 
L 1172 4494 
z
" id="DejaVuSans-74" transform="scale(0.015625)"/>
       <path d="M 3597 1894 
L 3597 1613 
L 953 1613 
Q 991 1019 1311 708 
Q 1631 397 2203 397 
Q 2534 397 2845 478 
Q 3156 559 3463 722 
L 3463 178 
Q 3153 47 2828 -22 
Q 2503 -91 2169 -91 
Q 1331 -91 842 396 
Q 353 884 353 1716 
Q 353 2575 817 3079 
Q 1281 3584 2069 3584 
Q 2775 3584 3186 3129 
Q 3597 2675 3597 1894 
z
M 3022 2063 
Q 3016 2534 2758 2815 
Q 2500 3097 2075 3097 
Q 1594 3097 1305 2825 
Q 1016 2553 972 2059 
L 3022 2063 
z
" id="DejaVuSans-65" transform="scale(0.015625)"/>
       <path d="M 2631 2963 
Q 2534 3019 2420 3045 
Q 2306 3072 2169 3072 
Q 1681 3072 1420 2755 
Q 1159 2438 1159 1844 
L 1159 0 
L 581 0 
L 581 3500 
L 1159 3500 
L 1159 2956 
Q 1341 3275 1631 3429 
Q 1922 3584 2338 3584 
Q 2397 3584 2469 3576 
Q 2541 3569 2628 3553 
L 2631 2963 
z
" id="DejaVuSans-72" transform="scale(0.015625)"/>
       <path d="M 2194 1759 
Q 1497 1759 1228 1600 
Q 959 1441 959 1056 
Q 959 750 1161 570 
Q 1363 391 1709 391 
Q 2188 391 2477 730 
Q 2766 1069 2766 1631 
L 2766 1759 
L 2194 1759 
z
M 3341 1997 
L 3341 0 
L 2766 0 
L 2766 531 
Q 2569 213 2275 61 
Q 1981 -91 1556 -91 
Q 1019 -91 701 211 
Q 384 513 384 1019 
Q 384 1609 779 1909 
Q 1175 2209 1959 2209 
L 2766 2209 
L 2766 2266 
Q 2766 2663 2505 2880 
Q 2244 3097 1772 3097 
Q 1472 3097 1187 3025 
Q 903 2953 641 2809 
L 641 3341 
Q 956 3463 1253 3523 
Q 1550 3584 1831 3584 
Q 2591 3584 2966 3190 
Q 3341 2797 3341 1997 
z
" id="DejaVuSans-61" transform="scale(0.015625)"/>
       <path d="M 1959 3097 
Q 1497 3097 1228 2736 
Q 959 2375 959 1747 
Q 959 1119 1226 758 
Q 1494 397 1959 397 
Q 2419 397 2687 759 
Q 2956 1122 2956 1747 
Q 2956 2369 2687 2733 
Q 2419 3097 1959 3097 
z
M 1959 3584 
Q 2709 3584 3137 3096 
Q 3566 2609 3566 1747 
Q 3566 888 3137 398 
Q 2709 -91 1959 -91 
Q 1206 -91 779 398 
Q 353 888 353 1747 
Q 353 2609 779 3096 
Q 1206 3584 1959 3584 
z
" id="DejaVuSans-6f" transform="scale(0.015625)"/>
       <path d="M 3513 2113 
L 3513 0 
L 2938 0 
L 2938 2094 
Q 2938 2591 2744 2837 
Q 2550 3084 2163 3084 
Q 1697 3084 1428 2787 
Q 1159 2491 1159 1978 
L 1159 0 
L 581 0 
L 581 3500 
L 1159 3500 
L 1159 2956 
Q 1366 3272 1645 3428 
Q 1925 3584 2291 3584 
Q 2894 3584 3203 3211 
Q 3513 2838 3513 2113 
z
" id="DejaVuSans-6e" transform="scale(0.015625)"/>
      </defs>
      <use xlink:href="#DejaVuSans-69"/>
      <use x="27.783203" xlink:href="#DejaVuSans-74"/>
      <use x="66.992188" xlink:href="#DejaVuSans-65"/>
      <use x="128.515625" xlink:href="#DejaVuSans-72"/>
      <use x="169.628906" xlink:href="#DejaVuSans-61"/>
      <use x="230.908203" xlink:href="#DejaVuSans-74"/>
      <use x="270.117188" xlink:href="#DejaVuSans-69"/>
      <use x="297.900391" xlink:href="#DejaVuSans-6f"/>
      <use x="359.082031" xlink:href="#DejaVuSans-6e"/>
     </g>
    </g>
   </g>
   <g id="matplotlib.axis_2">
    <g id="ytick_1">
     <g id="line2d_8">
      <defs>
       <path d="M 0 0 
L -3.5 0 
" id="m215397a98d" style="stroke:#ffffff;stroke-width:0.8;"/>
      </defs>
      <g>
       <use style="fill:#ffffff;stroke:#ffffff;stroke-width:0.8;" x="126" xlink:href="#m215397a98d" y="484.232727"/>
      </g>
     </g>
     <g id="text_9">
      <!-- 0 -->
      <g style="fill:#ffffff;" transform="translate(112.6375 488.031946)scale(0.1 -0.1)">
       <use xlink:href="#DejaVuSans-30"/>
      </g>
     </g>
    </g>
    <g id="ytick_2">
     <g id="line2d_9">
      <g>
       <use style="fill:#ffffff;stroke:#ffffff;stroke-width:0.8;" x="126" xlink:href="#m215397a98d" y="419.485683"/>
      </g>
     </g>
     <g id="text_10">
      <!-- 5000 -->
      <g style="fill:#ffffff;" transform="translate(93.55 423.284902)scale(0.1 -0.1)">
       <use xlink:href="#DejaVuSans-35"/>
       <use x="63.623047" xlink:href="#DejaVuSans-30"/>
       <use x="127.246094" xlink:href="#DejaVuSans-30"/>
       <use x="190.869141" xlink:href="#DejaVuSans-30"/>
      </g>
     </g>
    </g>
    <g id="ytick_3">
     <g id="line2d_10">
      <g>
       <use style="fill:#ffffff;stroke:#ffffff;stroke-width:0.8;" x="126" xlink:href="#m215397a98d" y="354.738638"/>
      </g>
     </g>
     <g id="text_11">
      <!-- 10000 -->
      <g style="fill:#ffffff;" transform="translate(87.1875 358.537857)scale(0.1 -0.1)">
       <use xlink:href="#DejaVuSans-31"/>
       <use x="63.623047" xlink:href="#DejaVuSans-30"/>
       <use x="127.246094" xlink:href="#DejaVuSans-30"/>
       <use x="190.869141" xlink:href="#DejaVuSans-30"/>
       <use x="254.492188" xlink:href="#DejaVuSans-30"/>
      </g>
     </g>
    </g>
    <g id="ytick_4">
     <g id="line2d_11">
      <g>
       <use style="fill:#ffffff;stroke:#ffffff;stroke-width:0.8;" x="126" xlink:href="#m215397a98d" y="289.991593"/>
      </g>
     </g>
     <g id="text_12">
      <!-- 15000 -->
      <g style="fill:#ffffff;" transform="translate(87.1875 293.790812)scale(0.1 -0.1)">
       <use xlink:href="#DejaVuSans-31"/>
       <use x="63.623047" xlink:href="#DejaVuSans-35"/>
       <use x="127.246094" xlink:href="#DejaVuSans-30"/>
       <use x="190.869141" xlink:href="#DejaVuSans-30"/>
       <use x="254.492188" xlink:href="#DejaVuSans-30"/>
      </g>
     </g>
    </g>
    <g id="ytick_5">
     <g id="line2d_12">
      <g>
       <use style="fill:#ffffff;stroke:#ffffff;stroke-width:0.8;" x="126" xlink:href="#m215397a98d" y="225.244549"/>
      </g>
     </g>
     <g id="text_13">
      <!-- 20000 -->
      <g style="fill:#ffffff;" transform="translate(87.1875 229.043768)scale(0.1 -0.1)">
       <use xlink:href="#DejaVuSans-32"/>
       <use x="63.623047" xlink:href="#DejaVuSans-30"/>
       <use x="127.246094" xlink:href="#DejaVuSans-30"/>
       <use x="190.869141" xlink:href="#DejaVuSans-30"/>
       <use x="254.492188" xlink:href="#DejaVuSans-30"/>
      </g>
     </g>
    </g>
    <g id="ytick_6">
     <g id="line2d_13">
      <g>
       <use style="fill:#ffffff;stroke:#ffffff;stroke-width:0.8;" x="126" xlink:href="#m215397a98d" y="160.497504"/>
      </g>
     </g>
     <g id="text_14">
      <!-- 25000 -->
      <g style="fill:#ffffff;" transform="translate(87.1875 164.296723)scale(0.1 -0.1)">
       <use xlink:href="#DejaVuSans-32"/>
       <use x="63.623047" xlink:href="#DejaVuSans-35"/>
       <use x="127.246094" xlink:href="#DejaVuSans-30"/>
       <use x="190.869141" xlink:href="#DejaVuSans-30"/>
       <use x="254.492188" xlink:href="#DejaVuSans-30"/>
      </g>
     </g>
    </g>
    <g id="ytick_7">
     <g id="line2d_14">
      <g>
       <use style="fill:#ffffff;stroke:#ffffff;stroke-width:0.8;" x="126" xlink:href="#m215397a98d" y="95.750459"/>
      </g>
     </g>
     <g id="text_15">
      <!-- 30000 -->
      <g style="fill:#ffffff;" transform="translate(87.1875 99.549678)scale(0.1 -0.1)">
       <use xlink:href="#DejaVuSans-33"/>
       <use x="63.623047" xlink:href="#DejaVuSans-30"/>
       <use x="127.246094" xlink:href="#DejaVuSans-30"/>
       <use x="190.869141" xlink:href="#DejaVuSans-30"/>
       <use x="254.492188" xlink:href="#DejaVuSans-30"/>
      </g>
     </g>
    </g>
   </g>
   <g id="line2d_15">
    <path clip-path="url(#p5cd76cb01b)" d="M 161.509091 243.555013 
L 161.745897 263.34171 
L 161.982703 263.937383 
L 162.456316 329.021112 
L 162.693122 310.43871 
L 162.929928 279.411926 
L 163.166734 347.227981 
L 163.403541 344.469757 
L 163.640347 349.144493 
L 163.877153 333.100176 
L 164.113959 303.847461 
L 164.350765 328.684427 
L 164.587572 329.927571 
L 164.824378 304.689173 
L 165.061184 291.506674 
L 165.29799 313.28758 
L 165.534796 323.129131 
L 165.771603 345.687001 
L 166.008409 331.4815 
L 166.245215 359.866604 
L 166.718827 305.103554 
L 166.955634 307.538043 
L 167.19244 297.243262 
L 167.429246 298.887837 
L 167.902859 354.673891 
L 168.139665 341.32305 
L 168.613277 282.299645 
L 168.850083 310.296267 
L 169.08689 286.883735 
L 169.560502 312.64011 
L 169.797308 300.480615 
L 170.034114 323.893146 
L 170.270921 321.458657 
L 170.507727 323.893146 
L 170.744533 294.88647 
L 170.981339 321.264416 
L 171.218145 313.72786 
L 171.454952 315.359486 
L 171.691758 285.109666 
L 171.928564 287.362863 
L 172.16537 297.657644 
L 172.638983 261.192108 
L 172.875789 258.938911 
L 173.112595 252.464206 
L 173.349401 252.464206 
L 173.586208 287.608902 
L 173.823014 279.852206 
L 174.296626 315.03575 
L 174.770239 280.616221 
L 175.007045 303.614372 
L 175.243851 272.587588 
L 175.480657 277.275274 
L 175.717463 263.069772 
L 176.427882 319.399701 
L 176.901494 370.355625 
L 177.138301 378.785691 
L 177.611913 367.480857 
L 177.848719 372.932558 
L 178.085525 348.095591 
L 178.322332 335.936096 
L 178.559138 344.521554 
L 179.03275 400.385305 
L 179.269557 390.971084 
L 179.506363 419.97776 
L 179.743169 414.526059 
L 179.979975 402.923389 
L 180.216781 376.545443 
L 180.453588 376.545443 
L 180.9272 331.766387 
L 181.164006 325.291682 
L 181.400812 325.382328 
L 181.637619 322.947839 
L 181.874425 308.289108 
L 182.111231 301.814404 
L 182.348037 324.372274 
L 182.584843 295.365598 
L 182.82165 318.363748 
L 183.058456 288.113929 
L 183.295262 311.643005 
L 183.532068 311.97969 
L 183.768874 292.723919 
L 184.005681 321.730595 
L 184.242487 292.723919 
L 184.479293 286.741292 
L 184.716099 316.991111 
L 185.189712 279.373078 
L 185.426518 284.229106 
L 185.663324 257.85116 
L 185.90013 284.59169 
L 186.136937 335.185031 
L 186.373743 324.786655 
L 186.610549 324.786655 
L 186.847355 350.025053 
L 187.084161 320.772338 
L 187.320968 308.302058 
L 187.557774 308.302058 
L 187.79458 320.772338 
L 188.268192 302.138139 
L 188.504999 275.760193 
L 188.741805 293.928214 
L 188.978611 280.577373 
L 189.215417 290.263531 
L 189.452223 290.263531 
L 189.68903 303.446029 
L 190.162642 247.180848 
L 190.636255 218.536755 
L 190.873061 193.816333 
L 191.346673 258.692872 
L 191.820286 312.924997 
L 192.057092 283.672282 
L 192.293898 283.762928 
L 192.76751 256.374928 
L 193.004317 281.613326 
L 193.241123 269.453831 
L 193.477929 292.451981 
L 193.714735 293.708074 
L 194.188348 350.491232 
L 194.425154 324.113286 
L 194.66196 312.899098 
L 194.898766 287.6607 
L 195.135572 312.899098 
L 195.372379 315.294739 
L 195.609185 334.472813 
L 195.845991 308.094867 
L 196.082797 295.961271 
L 196.55641 235.681772 
L 196.793216 219.287821 
L 197.030022 233.493322 
L 197.266828 204.486646 
L 197.503635 216.646141 
L 197.740441 238.906175 
L 197.977247 212.385786 
L 198.214053 241.392462 
L 198.450859 213.39584 
L 198.687666 241.21117 
L 198.924472 234.736466 
L 199.161278 207.995936 
L 199.398084 229.776842 
L 199.63489 238.517693 
L 199.871697 263.354659 
L 200.108503 242.376617 
L 200.345309 244.552118 
L 200.582115 263.807889 
L 200.818921 237.287499 
L 201.055728 251.026822 
L 201.292534 237.675981 
L 201.766146 310.205621 
L 202.002952 283.685231 
L 202.239759 280.719817 
L 202.713371 332.646946 
L 202.950177 342.941727 
L 203.186984 330.782232 
L 203.42379 302.785609 
L 203.660596 288.580108 
L 203.897402 307.835879 
L 204.134208 285.575845 
L 204.371015 306.204253 
L 204.607821 303.005749 
L 204.844627 280.564424 
L 205.081433 321.264416 
L 205.318239 308.081918 
L 205.555046 281.561528 
L 205.791852 280.137093 
L 206.028658 281.678073 
L 206.265464 294.860571 
L 206.50227 299.7166 
L 206.739077 326.236989 
L 206.975883 300.428817 
L 207.212689 298.797192 
L 207.449495 303.588473 
L 207.923108 357.393267 
L 208.159914 333.980736 
L 208.39672 352.899822 
L 208.633526 353.236507 
L 209.107139 307.680486 
L 209.580751 342.475548 
L 209.817557 377.814485 
L 210.054364 348.807809 
L 210.29117 354.142965 
L 210.527976 336.311629 
L 210.764782 346.606409 
L 211.001588 317.599733 
L 211.238395 317.599733 
L 211.475201 292.361335 
L 211.712007 297.217364 
L 211.948813 309.687644 
L 212.185619 302.151088 
L 212.422426 329.254201 
L 212.659232 334.990789 
L 212.896038 345.920091 
L 213.606457 307.123661 
L 213.843263 330.199508 
L 214.080069 303.821562 
L 214.316875 291.662067 
L 214.553682 262.409352 
L 214.790488 267.265381 
L 215.027294 260.790676 
L 215.2641 250.832581 
L 215.737713 274.309859 
L 216.211325 309.027225 
L 216.684937 256.98355 
L 216.921744 254.549061 
L 217.15855 261.023766 
L 217.395356 229.996982 
L 217.632162 364.139909 
L 217.868968 350.957411 
L 218.105775 394.778211 
L 218.342581 394.778211 
L 218.579387 414.033982 
L 218.816193 409.177953 
L 219.052999 386.917919 
L 219.289806 387.008565 
L 219.763418 406.717566 
L 220.000224 400.242861 
L 220.237031 371.236185 
L 220.473837 393.496219 
L 220.710643 365.111115 
L 220.947449 363.479489 
L 221.184255 353.521394 
L 221.421062 324.268679 
L 221.657868 330.743383 
L 221.894674 324.268679 
L 222.13148 334.446914 
L 222.368286 339.302943 
L 222.605093 338.966258 
L 222.841899 348.717163 
L 223.078705 351.863869 
L 223.315511 367.247767 
L 223.552317 359.763009 
L 223.789124 333.954837 
L 224.02593 325.278733 
L 224.262736 294.588634 
L 224.499542 296.4145 
L 224.736348 283.06366 
L 224.973155 292.413133 
L 225.209961 285.938428 
L 225.446767 263.678395 
L 225.683573 277.029235 
L 225.92038 297.385706 
L 226.157186 290.082239 
L 226.393992 321.109023 
L 226.630798 290.082239 
L 227.104411 356.46091 
L 227.341217 329.94052 
L 227.578023 324.03559 
L 227.814829 324.009691 
L 228.051635 329.914621 
L 228.288442 306.256051 
L 228.525248 307.887677 
L 228.762054 281.509731 
L 228.99886 268.327232 
L 229.235666 277.857997 
L 230.182891 382.450373 
L 230.419697 370.290878 
L 230.656504 364.839177 
L 230.89331 364.839177 
L 231.130116 385.765422 
L 231.603729 366.211814 
L 232.077341 317.573834 
L 232.314147 317.573834 
L 232.550953 325.11039 
L 232.78776 325.11039 
L 233.024566 328.360692 
L 233.261372 352.420694 
L 233.498178 350.944461 
L 233.734984 378.941083 
L 233.971791 352.420694 
L 234.208597 373.087951 
L 234.445403 359.73711 
L 234.682209 294.485038 
L 234.919015 349.494128 
L 235.155822 318.467344 
L 235.392628 304.53378 
L 235.629434 305.776923 
L 235.86624 314.206988 
L 236.103046 288.96859 
L 236.339853 286.080872 
L 236.576659 299.431713 
L 236.813465 292.957008 
L 237.287078 273.260957 
L 237.523884 246.883011 
L 237.76069 245.860008 
L 237.997496 227.303505 
L 238.471109 344.897087 
L 238.707915 344.897087 
L 238.944721 319.658689 
L 239.181527 373.152698 
L 239.418333 378.604399 
L 239.65514 349.351684 
L 239.891946 335.469918 
L 240.128752 361.92556 
L 240.365558 345.479811 
L 240.602364 359.361577 
L 240.839171 351.825021 
L 241.075977 380.831697 
L 241.312783 357.833547 
L 241.549589 352.977519 
L 242.023202 293.954113 
L 242.260008 301.490669 
L 242.496814 301.374124 
L 242.73362 306.230152 
L 242.970427 283.970118 
L 243.444039 310.23152 
L 243.680845 340.481339 
L 243.917651 352.640834 
L 244.154458 376.053365 
L 244.391264 375.962719 
L 244.62807 361.757218 
L 244.864876 386.594184 
L 245.101682 358.20908 
L 245.338489 344.417959 
L 245.575295 369.941244 
L 246.048907 315.91631 
L 246.285713 329.034061 
L 246.52252 329.034061 
L 246.759326 316.563781 
L 246.996132 331.792285 
L 247.232938 360.17739 
L 247.706551 311.176826 
L 247.943357 313.611315 
L 248.180163 335.871349 
L 248.416969 307.874727 
L 248.653776 303.018699 
L 248.890582 331.015321 
L 249.127388 330.898776 
L 249.364194 315.773867 
L 249.601 292.47788 
L 249.837807 287.634801 
L 250.074613 311.047332 
L 250.311419 321.342112 
L 250.548225 296.103714 
L 250.785031 290.652013 
L 251.021838 264.843841 
L 251.258644 265.866845 
L 251.49545 237.870223 
L 251.732256 263.108621 
L 251.969062 275.967384 
L 252.205869 246.714669 
L 252.442675 234.555174 
L 253.153093 330.031166 
L 253.626706 320.189615 
L 254.100318 357.820597 
L 254.337124 357.729952 
L 254.573931 355.632147 
L 254.810737 369.513914 
L 255.047543 363.039209 
L 255.284349 372.45343 
L 255.521156 367.597401 
L 255.757962 338.344686 
L 255.994768 348.639467 
L 256.46838 290.872153 
L 256.705187 317.612683 
L 256.941993 291.234737 
L 257.178799 278.764456 
L 257.652411 265.776199 
L 257.889218 268.094143 
L 258.126024 299.120927 
L 258.36283 296.543994 
L 258.599636 325.796709 
L 258.836442 316.382489 
L 259.073249 321.432758 
L 259.310055 292.180044 
L 259.546861 297.631745 
L 259.783667 272.794778 
L 260.25728 326.016849 
L 260.494086 303.756815 
L 260.730892 303.87336 
L 260.967698 277.35297 
L 261.204505 267.05819 
L 261.441311 296.310905 
L 261.914923 240.317661 
L 262.151729 269.570376 
L 262.388536 329.267151 
L 262.625342 355.78754 
L 262.862148 346.826549 
L 263.098954 368.115378 
L 263.33576 345.855344 
L 263.809373 339.484234 
L 264.282985 366.768639 
L 264.993404 298.240367 
L 265.23021 292.503779 
L 265.467016 295.10661 
L 265.703822 302.358279 
L 265.940629 277.119881 
L 266.177435 296.375652 
L 266.414241 325.628367 
L 266.651047 320.772338 
L 267.12466 279.99465 
L 267.598272 303.692068 
L 267.835078 298.83604 
L 268.308691 272.859525 
L 268.545497 273.532895 
L 268.782303 299.910841 
L 269.019109 312.381122 
L 269.255916 312.290476 
L 269.492722 308.133715 
L 269.729528 331.546247 
L 270.20314 277.106932 
L 270.439947 286.521152 
L 270.676753 257.268437 
L 271.150365 317.547936 
L 271.387171 367.817541 
L 271.860784 321.070175 
L 272.09759 307.952424 
L 272.334396 321.134922 
L 272.571203 321.018377 
L 272.808009 314.181089 
L 273.044815 292.0376 
L 273.281621 314.297634 
L 273.518427 314.206988 
L 273.99204 294.031809 
L 274.228846 348.432276 
L 274.465652 320.5263 
L 274.702458 307.175459 
L 274.939265 326.340584 
L 275.649683 243.244227 
L 275.886489 269.052399 
L 276.360102 253.163474 
L 276.596908 336.130337 
L 276.833714 316.304792 
L 277.307327 329.759228 
L 277.544133 323.414018 
L 277.780939 320.396806 
L 278.254552 270.321441 
L 278.491358 277.728503 
L 278.728164 258.472732 
L 278.96497 258.615176 
L 279.201776 284.993122 
L 279.438583 285.083767 
L 279.675389 275.669547 
L 279.912195 285.083767 
L 280.149001 262.085617 
L 280.385807 251.790837 
L 280.622614 279.023444 
L 280.85942 279.023444 
L 281.096226 249.770729 
L 281.333032 254.212377 
L 281.569838 284.993122 
L 281.806645 277.508363 
L 282.043451 290.043391 
L 282.280257 321.070175 
L 282.517063 294.329645 
L 282.753869 323.58236 
L 282.990676 336.72601 
L 283.227482 315.747968 
L 283.464288 325.162188 
L 283.701094 299.638903 
L 284.174707 321.898937 
L 284.411513 317.042909 
L 284.648319 329.901672 
L 284.885125 355.424957 
L 285.121932 330.031166 
L 285.358738 327.920412 
L 285.595544 323.064384 
L 286.069156 298.628849 
L 286.305963 272.250903 
L 286.542769 277.262324 
L 286.779575 302.008645 
L 287.016381 295.53394 
L 287.253187 321.342112 
L 287.489994 321.251467 
L 287.7268 318.77813 
L 288.200412 369.772902 
L 288.437218 371.404527 
L 288.674025 365.952826 
L 288.910831 352.770328 
L 289.147637 366.652094 
L 289.384443 372.103796 
L 289.858056 320.539249 
L 290.094862 320.629895 
L 290.331668 320.29321 
L 290.568474 333.475709 
L 290.805281 305.090604 
L 291.042087 317.353695 
L 291.278893 322.209723 
L 291.515699 334.680004 
L 291.752505 327.143448 
L 291.989312 302.306481 
L 292.226118 312.601261 
L 292.69973 280.162992 
L 292.936536 331.352006 
L 293.173343 346.632308 
L 293.410149 321.39391 
L 293.646955 357.587508 
L 293.883761 305.388441 
L 294.120567 304.430184 
L 294.357374 299.574156 
L 294.59418 299.70365 
L 294.830986 286.35281 
L 295.067792 281.496781 
L 295.304599 288.994489 
L 295.541405 286.806039 
L 295.778211 322.7018 
L 296.015017 328.153502 
L 296.251823 328.062856 
L 296.48863 314.712015 
L 296.725436 327.389486 
L 296.962242 355.774591 
L 297.199048 330.251306 
L 297.435854 360.501125 
L 297.672661 352.964569 
L 297.909467 323.711854 
L 298.146273 346.269725 
L 298.383079 343.835236 
L 298.619885 315.838614 
L 298.856692 315.838614 
L 299.093498 318.920573 
L 299.330304 304.715071 
L 299.56711 316.265944 
L 299.803916 287.013229 
L 300.277529 335.664159 
L 300.514335 322.48166 
L 300.751141 336.687162 
L 300.987947 329.150606 
L 301.224754 341.310101 
L 301.698366 318.855826 
L 301.935172 341.400747 
L 302.171979 397.886069 
L 302.408785 410.13621 
L 302.645591 410.13621 
L 302.882397 397.665929 
L 303.119203 397.64003 
L 303.35601 385.480535 
L 303.592816 397.950816 
L 303.829622 374.952665 
L 304.066428 397.950816 
L 304.303234 368.698101 
L 304.540041 369.293774 
L 304.776847 359.879553 
L 305.013653 373.062052 
L 305.250459 374.693677 
L 305.487265 349.455279 
L 305.724072 378.707994 
L 305.960878 352.330048 
L 306.197684 351.993363 
L 306.43449 377.231761 
L 306.671296 377.348306 
L 307.144909 330.095913 
L 307.381715 349.791964 
L 307.618521 333.398012 
L 308.092134 324.320477 
L 308.32894 345.246721 
L 308.565746 355.541501 
L 308.802552 329.163555 
L 309.039359 357.160178 
L 309.276165 344.689897 
L 309.749777 294.433241 
L 309.986583 290.664963 
L 310.22339 304.015803 
L 310.460196 308.871832 
L 310.697002 308.535147 
L 310.933808 284.034865 
L 311.170614 308.871832 
L 311.407421 280.486727 
L 311.881033 310.063177 
L 312.117839 295.857676 
L 312.354645 297.502251 
L 312.591452 306.851724 
L 312.828258 341.465494 
L 313.065064 335.016688 
L 313.30187 364.023364 
L 313.775483 315.786816 
L 314.012289 301.788505 
L 314.249095 299.470561 
L 314.485901 299.470561 
L 314.959514 353.845129 
L 315.19632 359.29683 
L 315.669932 407.947759 
L 315.906739 379.951137 
L 316.143545 367.480857 
L 316.380351 339.095752 
L 316.617157 325.213986 
L 316.853963 339.095752 
L 317.09077 331.559196 
L 317.327576 319.399701 
L 317.564382 294.161303 
L 317.801188 301.697859 
L 318.037994 270.671075 
L 318.274801 289.926846 
L 318.748413 249.343399 
L 318.985219 251.777888 
L 319.222026 229.220017 
L 319.458832 222.745313 
L 319.695638 203.489542 
L 319.932444 217.695043 
L 320.16925 244.072989 
L 320.406057 256.54327 
L 320.642863 230.165324 
L 320.879669 230.074678 
L 321.116475 236.549383 
L 321.353281 256.672764 
L 321.826894 318.208356 
L 322.0637 303.575523 
L 322.300506 277.197577 
L 322.537312 307.447397 
L 322.774119 319.917678 
L 323.010925 283.128407 
L 323.247731 292.542627 
L 323.484537 318.493243 
L 323.721343 287.466459 
L 323.95815 301.348225 
L 324.194956 273.351603 
L 324.431762 270.826468 
L 324.668568 260.298599 
L 324.905375 239.320556 
L 325.615793 317.2242 
L 325.852599 336.479972 
L 326.089406 307.227257 
L 326.326212 295.067762 
L 326.563018 324.320477 
L 327.03663 275.682497 
L 327.273437 275.591851 
L 327.510243 275.708395 
L 327.747049 266.294175 
L 327.983855 297.320959 
L 328.220661 283.115457 
L 328.457468 257.877059 
L 328.694274 272.082561 
L 328.93108 261.787781 
L 329.167886 289.784403 
L 329.404692 276.601905 
L 329.641499 302.979851 
L 329.878305 310.762445 
L 330.115111 312.394071 
L 330.588724 360.17739 
L 330.82553 329.927571 
L 331.062336 320.51335 
L 331.299142 347.25388 
L 331.535948 327.998109 
L 332.009561 328.088755 
L 332.246367 305.530884 
L 332.483173 314.945104 
L 332.719979 289.136932 
L 332.956786 297.800087 
L 333.193592 297.800087 
L 333.430398 300.053284 
L 333.667204 328.049906 
L 334.140817 278.259429 
L 334.377623 297.5152 
L 334.614429 289.978644 
L 334.851235 291.61027 
L 335.088041 262.603594 
L 335.324848 262.487049 
L 335.561654 287.725447 
L 335.79846 301.076288 
L 336.035266 278.816254 
L 336.508879 324.631262 
L 336.745685 323.025536 
L 336.982491 345.583406 
L 337.219297 336.169186 
L 337.456104 361.977358 
L 337.69291 361.640673 
L 337.929716 330.613889 
L 338.166522 347.383374 
L 338.640135 316.045804 
L 338.876941 316.382489 
L 339.113747 302.500722 
L 339.350553 299.392864 
L 339.587359 294.536836 
L 339.824166 320.837086 
L 340.060972 295.598688 
L 340.297778 289.123983 
L 340.534584 309.532252 
L 340.77139 318.972371 
L 341.008197 312.41997 
L 341.245003 311.850196 
L 341.481809 299.379915 
L 341.718615 274.542949 
L 341.955422 300.273424 
L 342.192228 286.935533 
L 342.429034 310.348064 
L 342.66584 303.87336 
L 342.902646 275.488255 
L 343.139453 305.038807 
L 343.376259 287.932637 
L 343.613065 337.243987 
L 343.849871 338.875612 
L 344.086677 334.019584 
L 344.323484 305.634479 
L 344.797096 384.107898 
L 345.270708 331.857033 
L 345.744321 283.93127 
L 345.981127 296.090765 
L 346.217933 293.086502 
L 346.454739 284.060764 
L 347.165158 317.768076 
L 347.401964 294.355544 
L 347.63877 317.768076 
L 347.875577 307.473296 
L 348.112383 330.471446 
L 348.349189 312.510616 
L 348.585995 324.980896 
L 348.822802 299.172724 
L 349.059608 330.199508 
L 349.296414 344.081275 
L 349.53322 367.493806 
L 349.770026 342.462598 
L 350.006833 347.836603 
L 350.243639 349.351684 
L 350.480445 349.468229 
L 350.717251 337.308734 
L 350.954057 356.564505 
L 351.190864 334.304471 
L 351.42767 332.672845 
L 351.664476 306.294899 
L 352.138088 317.625632 
L 352.374895 305.155351 
L 352.611701 279.916953 
L 353.085313 331.533297 
L 353.558926 276.770247 
L 353.795732 279.916953 
L 354.032538 327.298841 
L 354.269344 312.122133 
L 354.506151 314.556622 
L 354.742957 289.033337 
L 354.979763 292.853413 
L 355.216569 292.555576 
L 355.453375 296.297956 
L 355.690182 296.297956 
L 355.926988 332.310262 
L 356.163794 331.844083 
L 356.4006 360.229188 
L 356.637406 358.597562 
L 356.874213 341.77628 
L 357.111019 315.25589 
L 357.347825 328.373642 
L 357.584631 297.346858 
L 357.821437 305.207149 
L 358.058244 331.727538 
L 358.29505 289.266427 
L 358.768662 347.525817 
L 359.005468 347.189133 
L 359.242275 342.449649 
L 359.479081 365.447799 
L 359.715887 346.192028 
L 359.952693 336.195085 
L 360.1895 342.669789 
L 360.426306 337.295784 
L 360.663112 350.646625 
L 361.136724 319.619841 
L 361.610337 329.94052 
L 361.847143 329.94052 
L 362.083949 335.84545 
L 362.557562 278.298277 
L 362.794368 264.507157 
L 363.26798 321.898937 
L 363.504786 319.464448 
L 363.741593 319.464448 
L 363.978399 332.815289 
L 364.215205 333.151973 
L 364.452011 347.03374 
L 364.688817 324.773706 
L 364.925624 347.03374 
L 365.16243 316.783921 
L 365.399236 319.218409 
L 365.636042 293.980011 
L 365.872849 293.889366 
L 366.109655 286.35281 
L 366.346461 284.565791 
L 366.583267 310.425761 
L 366.820073 364.99457 
L 367.05688 370.446271 
L 367.293686 357.263773 
L 367.767298 304.611476 
L 368.004104 295.53394 
L 368.240911 325.78376 
L 368.477717 339.989261 
L 368.714523 371.016045 
L 368.951329 266.863949 
L 369.188135 295.870625 
L 369.424942 270.632227 
L 369.661748 278.168783 
L 369.898554 272.717082 
L 370.13536 256.802258 
L 370.608973 279.670915 
L 370.845779 307.084813 
L 371.082585 311.940842 
L 371.319391 298.758343 
L 371.556198 294.174253 
L 371.793004 294.510937 
L 372.02981 282.040656 
L 372.266616 292.335436 
L 372.503422 289.900948 
L 372.740229 263.380558 
L 372.977035 289.900948 
L 373.213841 292.335436 
L 373.450647 269.777566 
L 373.687453 264.325865 
L 373.92426 271.810623 
L 374.161066 269.971807 
L 374.397872 256.620967 
L 374.871484 343.679843 
L 375.108291 343.679843 
L 375.345097 366.237713 
L 375.581903 346.981942 
L 375.818709 364.204656 
L 376.055515 337.684267 
L 376.292322 339.782071 
L 376.529128 353.663837 
L 377.00274 324.657161 
L 377.239547 299.418763 
L 377.476353 312.756654 
L 377.713159 286.378708 
L 377.949965 315.631423 
L 378.186771 319.360853 
L 378.423578 293.837568 
L 378.660384 314.219938 
L 378.89719 314.219938 
L 379.133996 314.349432 
L 379.607609 300.882046 
L 379.844415 326.923308 
L 380.081221 326.288787 
L 380.318027 333.825343 
L 380.554833 320.474502 
L 380.79164 289.447718 
L 381.028446 301.218731 
L 381.265252 327.026903 
L 381.502058 327.026903 
L 381.738864 300.286374 
L 381.975671 342.151813 
L 382.212477 330.225407 
L 382.449283 332.621048 
L 382.922896 283.983068 
L 383.159702 292.309538 
L 383.396508 292.309538 
L 383.633314 318.001165 
L 383.87012 286.974381 
L 384.106927 287.090926 
L 384.343733 300.441766 
L 384.580539 292.90521 
L 384.817345 300.441766 
L 385.054151 326.819712 
L 385.290958 316.524932 
L 385.527764 343.045322 
L 385.76457 314.038646 
L 386.001376 311.643005 
L 386.238182 337.451177 
L 386.474989 346.865397 
L 386.711795 366.121169 
L 386.948601 335.871349 
L 387.185407 333.43686 
L 387.422213 355.696894 
L 388.132632 280.318385 
L 388.369438 306.916471 
L 388.606245 282.61043 
L 388.843051 304.870464 
L 389.079857 292.710969 
L 389.553469 357.781749 
L 389.790276 347.03374 
L 390.027082 347.03374 
L 390.263888 344.223718 
L 390.500694 357.574559 
L 390.974307 346.839499 
L 391.211113 321.031327 
L 391.447919 311.953791 
L 391.684725 337.761963 
L 391.921531 347.176183 
L 392.158338 272.225004 
L 392.395144 316.071703 
L 392.63195 318.506192 
L 392.868756 291.765662 
L 393.105562 318.286052 
L 393.342369 289.900948 
L 393.579175 319.153662 
L 393.815981 324.980896 
L 394.052787 327.73912 
L 394.289594 315.26884 
L 394.5264 312.018538 
L 394.763206 307.16251 
L 395.000012 322.960789 
L 395.236818 322.675902 
L 395.473625 357.807648 
L 395.710431 362.663676 
L 395.947237 349.312836 
L 396.184043 349.312836 
L 396.420849 374.110954 
L 396.657656 361.951459 
L 396.894462 377.464851 
L 397.131268 378.345411 
L 397.368074 371.870706 
L 397.60488 358.727056 
L 397.841687 383.564022 
L 398.078493 374.745475 
L 398.315299 398.158006 
L 398.552105 279.165888 
L 398.788911 331.779336 
L 399.025718 336.661263 
L 399.262524 309.920734 
L 399.736136 366.794538 
L 399.972942 383.939555 
L 400.209749 369.759952 
L 400.446555 372.194441 
L 400.683361 358.843601 
L 400.920167 360.475226 
L 401.156974 358.843601 
L 401.39378 335.431069 
L 401.630586 330.665687 
L 401.867392 323.129131 
L 402.104198 298.007278 
L 402.341005 304.715071 
L 402.577811 318.260153 
L 402.814617 323.116182 
L 403.051423 300.118031 
L 403.288229 340.222351 
L 403.525036 328.062856 
L 403.761842 343.550349 
L 404.235454 321.316214 
L 404.47226 292.646222 
L 404.945873 280.318385 
L 405.656291 319.801133 
L 405.893098 290.548418 
L 406.129904 285.964327 
L 406.603516 326.22404 
L 406.840323 326.107495 
L 407.077129 295.080711 
L 407.313935 287.026179 
L 407.550741 262.189212 
L 407.787547 312.976794 
L 408.024354 337.334633 
L 408.26116 337.671317 
L 408.497966 366.924032 
L 408.734772 359.387476 
L 408.971578 369.682256 
L 409.208385 395.490428 
L 409.445191 403.026984 
L 409.681997 375.030362 
L 409.918803 367.493806 
L 410.155609 367.157121 
L 410.392416 341.348949 
L 410.629222 331.934729 
L 410.866028 329.616785 
L 411.102834 330.329002 
L 411.33964 342.799283 
L 411.576447 373.826067 
L 411.813253 382.566918 
L 412.050059 380.378468 
L 412.286865 388.808533 
L 412.523672 360.423429 
L 412.997284 364.722632 
L 413.23409 335.715956 
L 413.470896 364.722632 
L 413.707703 364.631987 
L 413.944509 391.152376 
L 414.181315 365.913978 
L 414.418121 391.437263 
L 414.654927 369.177229 
L 414.891734 391.437263 
L 415.12854 391.320718 
L 415.365346 400.734939 
L 415.602152 371.482224 
L 415.838958 371.57287 
L 416.312571 319.671639 
L 416.549377 343.563298 
L 416.786183 331.403803 
L 417.022989 369.617509 
L 417.259796 293.112401 
L 417.496602 280.952906 
L 417.733408 293.112401 
L 418.680633 366.872234 
L 419.391052 303.018699 
L 419.627858 350.167497 
L 420.10147 375.820276 
L 420.338276 380.676304 
L 420.811889 354.000522 
L 421.048695 325.615417 
L 421.285501 325.952102 
L 421.522307 295.702283 
L 421.759114 346.489865 
L 421.99592 340.662631 
L 422.469532 293.79872 
L 422.943145 332.452705 
L 423.179951 332.452705 
L 423.416757 351.656679 
L 423.653563 329.396645 
L 423.89037 342.579143 
L 424.127176 329.72038 
L 424.363982 323.245676 
L 424.600788 349.986205 
L 424.837594 348.35458 
L 425.311207 388.87328 
L 425.548013 362.495334 
L 426.021625 374.42174 
L 426.258432 362.262245 
L 426.732044 313.183985 
L 426.96885 322.598205 
L 427.205656 322.48166 
L 427.442463 319.723436 
L 427.679269 392.563862 
L 427.916075 380.093581 
L 428.152881 394.299082 
L 428.389687 416.856953 
L 428.626494 418.488578 
L 429.100106 363.712579 
L 429.336912 389.235864 
L 429.573719 376.053365 
L 429.810525 371.197337 
L 430.047331 263.859686 
L 430.284137 286.417557 
L 430.75775 264.843841 
L 430.994556 233.817058 
L 431.231362 362.326992 
L 431.468168 348.989101 
L 431.704974 364.903924 
L 432.178587 415.549062 
L 432.415393 388.808533 
L 432.652199 394.260234 
L 432.889005 367.739845 
L 433.362618 341.206506 
L 433.599424 312.821401 
L 433.83623 300.894996 
L 434.073036 330.147711 
L 434.309843 322.611155 
L 434.546649 322.947839 
L 434.783455 297.709441 
L 435.020261 297.709441 
L 435.493874 321.212618 
L 435.73068 309.053123 
L 435.967486 316.589679 
L 436.204292 342.397851 
L 436.441099 332.103071 
L 436.914711 283.866523 
L 437.151517 296.026018 
L 437.388323 300.286374 
L 437.861936 362.883816 
L 438.335548 364.398897 
L 438.572354 366.043472 
L 438.809161 366.380157 
L 439.282773 313.158086 
L 439.519579 327.363588 
L 439.756385 352.200554 
L 439.993192 326.677269 
L 440.229998 353.327153 
L 440.466804 363.621933 
L 440.70361 385.881967 
L 440.940417 356.875291 
L 441.177223 385.881967 
L 441.414029 385.545282 
L 441.650835 360.708316 
L 441.887641 372.026099 
L 442.124448 345.50571 
L 442.59806 379.66625 
L 443.071672 344.094224 
L 443.308479 335.664159 
L 443.545285 338.966258 
L 443.782091 333.514557 
L 444.018897 358.351523 
L 444.255703 367.014678 
L 444.49251 367.014678 
L 444.729316 393.535067 
L 444.966122 390.232968 
L 445.202928 377.05047 
L 446.150153 291.428978 
L 446.386959 314.504825 
L 446.860572 265.853895 
L 447.097378 278.324176 
L 447.57099 336.363427 
L 448.044603 381.919447 
L 448.281409 374.382891 
L 448.518215 400.191063 
L 448.755021 390.776843 
L 448.991828 359.750059 
L 449.228634 359.633515 
L 449.46544 359.970199 
L 449.939052 324.916149 
L 450.175859 325.809659 
L 450.412665 330.251306 
L 450.886277 316.240045 
L 451.123083 327.544879 
L 451.35989 355.929984 
L 451.596696 349.455279 
L 451.833502 326.042748 
L 452.070308 340.507238 
L 452.307114 328.347743 
L 452.543921 299.962638 
L 452.780727 308.263209 
L 453.491146 358.455118 
L 453.727952 367.869339 
L 453.964758 343.032372 
L 454.201564 374.059156 
L 454.43837 369.203128 
L 454.675177 374.059156 
L 454.911983 376.493645 
L 455.148789 370.018941 
L 455.622401 321.083124 
L 456.096014 321.17377 
L 456.33282 297.709441 
L 456.569626 311.914943 
L 456.806432 334.174977 
L 457.280045 279.9817 
L 457.990463 366.134118 
L 458.22727 338.137496 
L 458.700882 322.248571 
L 458.937688 292.995856 
L 459.174495 328.503136 
L 459.648107 339.937464 
L 459.884913 219.676303 
L 460.121719 219.676303 
L 460.595332 245.329082 
L 460.832138 223.069048 
L 461.068944 245.976552 
L 461.30575 313.041541 
L 461.542557 300.182778 
L 461.779363 270.930064 
L 462.016169 270.930064 
L 462.252975 297.450453 
L 462.489781 310.309216 
L 462.726588 310.399862 
L 463.2002 286.754241 
L 463.437006 296.932477 
L 463.673812 315.903361 
L 463.910619 310.076127 
L 464.147425 309.985481 
L 464.384231 319.399701 
L 464.621037 319.516246 
L 464.857844 321.147871 
L 465.331456 269.389084 
L 465.568262 256.206586 
L 465.805068 256.297231 
L 466.278681 232.67751 
L 466.515487 241.146423 
L 466.752293 235.772418 
L 466.989099 271.901269 
L 467.225906 245.497424 
L 467.462712 254.911645 
L 467.699518 248.43694 
L 467.936324 248.100256 
L 468.17313 261.451096 
L 468.409937 261.787781 
L 468.646743 256.931752 
L 468.883549 261.787781 
L 469.120355 260.156155 
L 469.593968 315.281789 
L 469.830774 285.03197 
L 470.06758 283.167255 
L 470.304386 322.067279 
L 470.541193 315.592575 
L 470.777999 286.430506 
L 471.014805 315.437182 
L 471.251611 321.911886 
L 471.488417 262.577695 
L 471.96203 287.207471 
L 472.198836 287.207471 
L 472.435642 298.758343 
L 472.672448 302.034544 
L 472.909255 297.178515 
L 473.146061 284.319752 
L 473.382867 296.660539 
L 473.619673 274.400505 
L 474.093286 327.350638 
L 474.566898 282.856469 
L 474.803704 305.854619 
L 475.04051 314.60842 
L 475.277317 283.581636 
L 475.514123 289.965695 
L 475.750929 314.530723 
L 475.987735 323.944944 
L 476.224542 347.357475 
L 476.461348 345.72585 
L 476.93496 294.510937 
L 477.171766 307.693435 
L 477.645379 282.351442 
L 477.882185 319.477398 
L 478.118991 295.922423 
L 478.355797 324.929099 
L 478.592604 324.838453 
L 478.82941 355.865237 
L 479.066216 355.865237 
L 479.303022 367.584452 
L 479.539828 392.82285 
L 480.013441 338.04685 
L 480.487053 306.139506 
L 480.723859 283.672282 
L 480.960666 312.924997 
L 481.197472 293.941163 
L 481.671084 337.127442 
L 481.907891 311.604157 
L 482.144697 266.307125 
L 482.381503 258.252592 
L 482.618309 287.505307 
L 482.855115 272.276802 
L 483.091922 315.100497 
L 483.565534 263.484153 
L 483.80234 265.7503 
L 484.275953 322.378065 
L 484.512759 294.381443 
L 484.749565 321.121973 
L 484.986371 307.939474 
L 485.223177 276.91269 
L 485.459984 290.095189 
L 485.69679 280.680968 
L 485.933596 251.428254 
L 486.407208 221.683461 
L 486.644015 288.204575 
L 486.880821 298.499355 
L 487.117627 324.307527 
L 487.354433 319.451499 
L 487.59124 289.20168 
L 487.828046 293.617428 
L 488.064852 330.743383 
L 488.301658 347.564666 
L 488.538464 344.456807 
L 489.012077 399.543593 
L 489.485689 378.656196 
L 489.959302 323.919045 
L 490.432914 374.680728 
L 490.906526 352.084009 
L 491.143333 305.025857 
L 491.380139 331.403803 
L 491.616945 324.929099 
L 492.090557 395.43863 
L 492.327364 369.915345 
L 492.800976 369.915345 
L 493.037782 357.75585 
L 493.511395 369.669307 
L 493.748201 341.672685 
L 493.985007 341.672685 
L 494.221813 315.294739 
L 494.45862 317.690379 
L 494.695426 317.690379 
L 494.932232 333.799444 
L 495.169038 371.456325 
L 495.405844 372.725367 
L 495.642651 391.981138 
L 495.879457 379.510857 
L 496.116263 404.749255 
L 496.353069 397.212699 
L 496.589875 368.206023 
L 496.826682 356.279618 
L 497.063488 329.759228 
L 497.300294 337.295784 
L 497.5371 363.103956 
L 497.773906 363.194602 
L 498.010713 349.312836 
L 498.247519 353.482545 
L 498.484325 379.00583 
L 498.957937 329.642684 
L 499.194744 329.979368 
L 499.43155 317.819873 
L 499.668356 344.197819 
L 499.905162 319.360853 
L 500.141969 307.020066 
L 500.378775 307.020066 
L 500.615581 307.136611 
L 500.852387 329.694481 
L 501.089193 316.343641 
L 501.326 314.712015 
L 501.562806 284.462196 
L 502.036418 323.854298 
L 502.273224 325.369379 
L 502.510031 298.848989 
L 502.746837 323.465816 
L 502.983643 316.991111 
L 503.220449 317.107656 
L 503.694062 264.856791 
L 503.930868 279.062292 
L 504.167674 265.180526 
L 504.40448 239.942128 
L 504.641286 240.874485 
L 504.878093 243.360772 
L 505.351705 279.709763 
L 505.588511 293.591529 
L 505.825318 323.841348 
L 506.062124 229.401309 
L 506.535736 290.185835 
L 506.772542 294.912369 
L 507.009349 295.352649 
L 507.719767 376.260556 
L 507.956573 370.808855 
L 508.19338 357.626356 
L 508.430186 336.9591 
L 508.903798 375.742579 
L 509.140604 401.265864 
L 509.377411 382.010093 
L 509.851023 326.016849 
L 510.087829 364.826228 
L 510.324635 338.448282 
L 510.561442 352.330048 
L 510.798248 321.303264 
L 511.035054 308.832983 
L 511.27186 321.303264 
L 511.508667 321.39391 
L 511.745473 307.512144 
L 511.982279 279.127039 
L 512.455891 328.41249 
L 512.692698 246.274389 
L 512.929504 266.099934 
L 513.16631 275.514154 
L 513.403116 301.037439 
L 513.639922 303.471928 
L 513.876729 298.020227 
L 514.113535 267.770408 
L 514.350341 294.342595 
L 514.587147 306.50209 
L 514.823953 306.50209 
L 515.06076 293.151249 
L 515.297566 292.180044 
L 515.534372 306.385545 
L 515.771178 296.971325 
L 516.007984 270.593379 
L 516.244791 283.944219 
L 516.481597 283.944219 
L 516.718403 286.378708 
L 516.955209 264.118674 
L 517.192016 263.78199 
L 517.428822 263.78199 
L 517.665628 243.710406 
L 517.902434 243.710406 
L 518.13924 274.73719 
L 518.612853 274.73719 
L 518.849659 275.073874 
L 519.086465 274.73719 
L 519.323271 295.870625 
L 519.560078 299.250421 
L 519.796884 316.654426 
L 520.03369 316.654426 
L 520.270496 342.462598 
L 520.507302 315.942209 
L 520.744109 320.798237 
L 520.980915 307.615739 
L 521.217721 307.615739 
L 521.454527 308.25026 
L 521.691333 360.967304 
L 521.92814 367.442008 
L 522.164946 344.443858 
L 522.401752 402.02988 
L 522.638558 394.493324 
L 523.112171 412.32466 
L 523.348977 407.468631 
L 523.822589 350.219294 
L 524.059396 337.036796 
L 524.296202 341.892824 
L 524.533008 317.055858 
L 524.769814 341.892824 
L 525.00662 316.654426 
L 525.243427 335.431069 
L 525.480233 312.432919 
L 525.717039 314.867408 
L 525.953845 286.482304 
L 526.190651 302.306481 
L 526.427458 305.893468 
L 526.664264 332.271414 
L 526.90107 312.678958 
L 527.137876 333.838292 
L 527.611489 291.584371 
L 527.848295 291.584371 
L 528.085101 317.392543 
L 528.321907 311.940842 
L 528.558714 312.678958 
L 528.79552 287.103875 
L 529.032326 316.35659 
L 529.269132 316.473135 
L 529.505938 291.234737 
L 529.742745 290.898052 
L 529.979551 264.377663 
L 530.453163 303.005749 
L 530.689969 280.007599 
L 530.926776 332.387958 
L 531.400388 276.614854 
L 531.874 276.614854 
L 532.110807 285.485199 
L 532.347613 314.491875 
L 532.584419 285.485199 
L 532.821225 326.845611 
L 533.058031 341.646786 
L 533.531644 320.759389 
L 533.76845 320.759389 
L 534.242063 393.431472 
L 534.478869 393.431472 
L 534.715675 364.178757 
L 534.952481 364.865076 
L 535.189287 336.246882 
L 535.426094 324.087387 
L 535.6629 324.411122 
L 535.899706 346.968993 
L 536.136512 341.517292 
L 536.373318 319.257258 
L 536.610125 382.52807 
L 536.846931 387.384098 
L 537.083737 364.385948 
L 537.320543 357.911243 
L 537.557349 378.513753 
L 538.030962 358.506916 
L 538.267768 370.394474 
L 538.504574 396.202646 
L 538.978187 415.911646 
L 539.214993 393.353776 
L 539.451799 387.902074 
L 539.688605 394.376779 
L 539.925412 369.539813 
L 540.162218 367.273666 
L 540.399024 368.905291 
L 540.63583 362.430587 
L 540.872636 368.905291 
L 541.109443 367.273666 
L 541.346249 372.854861 
L 541.819861 319.749335 
L 542.056667 332.426807 
L 542.53028 380.067682 
L 543.003892 364.178757 
L 543.240698 364.178757 
L 543.477505 358.390371 
L 543.714311 376.946874 
L 543.951117 354.47965 
L 544.187923 380.287822 
L 544.424729 380.624507 
L 544.898342 330.367851 
L 545.135148 355.606249 
L 545.371954 349.131544 
L 545.60876 353.987572 
L 546.082373 398.805477 
L 546.319179 405.280181 
L 546.555985 398.805477 
L 546.792792 398.714831 
L 547.029598 405.189535 
L 547.266404 378.669146 
L 547.50321 401.667296 
L 547.976823 349.00205 
L 548.213629 378.254765 
L 548.450435 367.959985 
L 548.687241 391.372516 
L 548.924047 362.987412 
L 549.39766 333.980736 
L 549.871272 289.318224 
L 550.108078 282.84352 
L 550.344885 291.584371 
L 550.581691 291.584371 
L 550.818497 306.178355 
L 551.055303 331.70164 
L 551.292109 319.542145 
L 551.765722 266.876899 
L 552.002528 273.351603 
L 552.239334 285.601744 
L 552.476141 291.040496 
L 552.712947 317.560885 
L 552.949753 327.493082 
L 553.186559 347.344526 
L 553.660172 347.435171 
L 554.37059 268.107092 
L 554.607396 313.624265 
L 554.844203 297.579947 
L 555.081009 290.043391 
L 555.317815 302.513672 
L 555.554621 302.850357 
L 555.791427 279.852206 
L 556.028234 287.388762 
L 556.738652 221.968348 
L 557.212265 221.968348 
L 557.685877 250.133313 
L 557.922683 280.383132 
L 558.15949 253.642603 
L 558.396296 278.479569 
L 558.633102 247.452785 
L 558.869908 234.101945 
L 559.106714 260.842474 
L 559.343521 231.835798 
L 559.580327 246.0413 
L 559.817133 236.627079 
L 560.053939 236.743624 
L 560.527552 285.25211 
L 560.764358 278.777405 
L 561.001164 259.521634 
L 561.23797 278.777405 
L 561.711583 223.69062 
L 561.948389 216.154064 
L 562.658807 299.185674 
L 562.895614 312.536514 
L 563.13242 340.921619 
L 563.369226 317.509087 
L 563.606032 330.691586 
L 563.842839 330.691586 
L 564.079645 317.509087 
L 564.316451 317.509087 
L 564.553257 342.747485 
L 565.02687 294.510937 
L 565.263676 317.509087 
L 565.500482 305.038807 
L 565.737288 311.513511 
L 565.974094 288.515361 
L 566.210901 276.355866 
L 566.684513 276.26522 
L 566.921319 283.633434 
L 567.158125 307.045965 
L 567.394932 281.237793 
L 567.631738 304.235943 
L 567.868544 304.235943 
L 568.10535 292.076448 
L 568.342156 310.45166 
L 568.578963 297.100819 
L 568.815769 290.626114 
L 569.052575 290.626114 
L 569.289381 302.746761 
L 569.526188 328.554933 
L 569.762994 328.218249 
L 569.9998 335.754805 
L 570.236606 316.589679 
L 570.710219 305.258947 
L 571.183831 356.875291 
L 571.420637 369.034786 
L 571.657443 359.620565 
L 571.89425 305.776923 
L 572.131056 306.579786 
L 572.367862 306.579786 
L 572.604668 314.116342 
L 572.841474 287.595953 
L 573.078281 313.404125 
L 573.315087 300.053284 
L 573.551893 301.68491 
L 573.788699 292.270689 
L 574.025505 265.53016 
L 574.262312 265.53016 
L 574.735924 240.77089 
L 574.97273 211.518175 
L 575.209537 211.518175 
L 575.446343 232.366724 
L 575.683149 232.366724 
L 575.919955 204.370102 
L 576.393568 204.370102 
L 577.340792 254.264174 
L 577.814405 254.264174 
L 578.051211 255.196532 
L 578.288017 232.936498 
L 578.524823 232.936498 
L 578.76163 235.461632 
L 578.998436 226.047412 
L 579.235242 241.677349 
L 579.472048 267.485521 
L 579.708854 242.648554 
L 579.945661 242.648554 
L 580.182467 241.016929 
L 580.656079 241.016929 
L 580.892886 242.648554 
L 581.129692 255.118835 
L 581.366498 240.913334 
L 581.603304 236.057305 
L 581.84011 238.323452 
L 582.076917 247.737672 
L 582.313723 237.507639 
L 582.550529 250.85848 
L 582.787335 224.480534 
L 583.024141 247.893065 
L 583.260948 247.893065 
L 583.497754 316.965212 
L 583.73456 301.218731 
L 583.971366 301.218731 
L 584.208172 312.471767 
L 584.444979 312.471767 
L 584.681785 286.093821 
L 584.918591 316.343641 
L 585.155397 306.92942 
L 585.392203 283.516889 
L 586.102622 283.516889 
L 586.339428 277.068083 
L 586.576235 289.538364 
L 586.813041 318.454394 
L 587.049847 287.42761 
L 587.286653 280.952906 
L 587.523459 279.968751 
L 587.760266 302.526621 
L 587.997072 297.670593 
L 588.233878 303.549625 
L 588.470684 294.795824 
L 588.944297 294.795824 
L 589.181103 300.985642 
L 589.417909 301.270529 
L 589.654715 300.648957 
L 589.891521 300.648957 
L 590.128328 313.999798 
L 590.365134 291.739764 
L 590.60194 295.896524 
L 590.838746 264.86974 
L 591.075552 264.86974 
L 591.312359 248.501687 
L 591.549165 273.740085 
L 591.785971 286.922584 
L 592.259583 261.269804 
L 592.49639 261.269804 
L 592.733196 247.918964 
L 594.627646 247.918964 
L 594.864452 235.759469 
L 595.101258 235.759469 
L 595.338064 252.749093 
L 595.57487 252.749093 
L 595.811677 274.452303 
L 596.048483 266.915747 
L 596.285289 266.915747 
L 596.522095 279.178837 
L 596.995708 279.178837 
L 597.46932 229.466056 
L 597.706126 229.466056 
L 597.942932 251.72609 
L 598.179739 228.72794 
L 598.416545 218.938187 
L 598.653351 218.938187 
L 598.890157 243.775153 
L 599.126964 231.304872 
L 599.36377 235.474582 
L 600.784607 235.474582 
L 601.021413 248.825422 
L 601.258219 244.344927 
L 601.968638 244.344927 
L 602.205444 254.639707 
L 602.44225 254.639707 
L 602.679057 244.344927 
L 603.389475 244.344927 
L 603.626281 273.597642 
L 603.863088 247.077252 
L 604.099894 272.833627 
L 604.3367 283.244951 
L 605.283925 283.244951 
L 605.520731 295.300851 
L 605.757537 295.300851 
L 605.994344 295.585738 
L 606.23115 295.495092 
L 606.467956 302.591368 
L 606.704762 293.177148 
L 606.941568 306.359646 
L 607.178375 307.292004 
L 607.415181 278.039289 
L 607.888793 278.129935 
L 608.125599 254.717404 
L 608.836018 254.717404 
L 609.072824 223.69062 
L 609.30963 233.10484 
L 609.546437 219.922342 
L 609.783243 222.175539 
L 610.020049 195.435009 
L 610.256855 195.435009 
L 610.493662 220.906497 
L 610.730468 220.906497 
L 610.967274 222.058994 
L 611.440886 222.058994 
L 611.677693 232.353774 
L 611.914499 232.353774 
L 612.151305 245.536273 
L 612.388111 245.445627 
L 612.624917 270.684025 
L 612.861724 247.685874 
L 613.09853 247.56933 
L 613.335336 259.728825 
L 613.572142 254.652656 
L 614.045755 254.652656 
L 614.282561 280.21479 
L 614.519367 273.740085 
L 614.756173 273.740085 
L 614.992979 260.971968 
L 615.229786 260.971968 
L 615.466592 247.621127 
L 615.703398 272.3286 
L 615.940204 244.331978 
L 616.177011 244.733409 
L 617.124235 244.733409 
L 617.361042 236.873118 
L 617.597848 213.874968 
L 618.07146 283.478041 
L 618.308266 270.295542 
L 618.781879 270.295542 
L 619.018685 248.035509 
L 619.255491 248.035509 
L 619.492297 223.638822 
L 619.729104 217.164118 
L 619.96591 223.638822 
L 620.676328 223.638822 
L 620.913135 211.168541 
L 621.149941 211.168541 
L 621.386747 222.162589 
L 621.623553 222.162589 
L 621.86036 208.811749 
L 623.518003 208.811749 
L 623.754809 194.76164 
L 623.991615 194.76164 
L 624.228422 188.779013 
L 624.465228 188.779013 
L 624.702034 178.54898 
L 625.175646 178.54898 
L 625.412453 187.212135 
L 625.649259 187.212135 
L 625.886065 176.58067 
L 626.122871 176.58067 
L 626.359677 178.212296 
L 626.596484 152.404124 
L 627.070096 152.404124 
L 627.306902 139.933843 
L 627.543709 153.284683 
L 629.674964 153.284683 
L 629.911771 146.809979 
L 630.148577 146.809979 
L 630.385383 134.650484 
L 632.279833 134.650484 
L 632.516639 133.912368 
L 632.753445 133.912368 
L 632.990251 120.561527 
L 638.199988 120.561527 
L 638.436794 143.974058 
L 638.6736 143.974058 
L 638.910406 150.448763 
L 639.147213 150.448763 
L 639.384019 141.034543 
L 639.620825 139.027384 
L 641.278469 139.027384 
L 641.515275 137.486404 
L 641.988887 137.486404 
L 642.225693 131.0117 
L 642.4625 140.42592 
L 642.936112 140.42592 
L 643.172918 137.991431 
L 644.593755 137.991431 
L 644.830562 140.42592 
L 645.067368 130.13114 
L 646.961818 130.13114 
L 647.198624 142.601421 
L 647.909042 142.601421 
L 648.145849 130.13114 
L 652.645167 130.13114 
L 652.881973 110.176101 
L 653.118779 123.526942 
L 653.355585 123.526942 
L 653.592391 139.894995 
L 653.829198 140.594263 
L 654.066004 140.594263 
L 654.30281 127.243422 
L 656.19726 127.243422 
L 656.434066 102.406456 
L 667.090345 102.406456 
L 667.327151 115.757296 
L 669.221601 115.757296 
L 669.458407 106.679761 
L 669.695214 110.007759 
L 675.141756 110.007759 
L 675.378563 96.656918 
L 700.716827 96.656918 
L 700.953633 94.546164 
L 705.452951 94.546164 
L 705.689757 96.294335 
L 709.24185 96.294335 
L 709.478657 89.81963 
L 716.582843 89.81963 
L 716.819649 88.887273 
L 871.690909 88.887273 
L 871.690909 88.887273 
" style="fill:none;stroke:#8dd3c7;stroke-linecap:square;stroke-width:1.5;"/>
   </g>
   <g id="line2d_16">
    <path clip-path="url(#p5cd76cb01b)" d="M 161.509091 243.555013 
L 190.162642 243.555013 
L 190.399448 233.998349 
L 190.636255 218.536755 
L 190.873061 193.816333 
L 623.991615 193.816333 
L 624.228422 188.779013 
L 624.465228 188.779013 
L 624.702034 178.54898 
L 625.649259 178.54898 
L 625.886065 176.58067 
L 626.359677 176.58067 
L 626.596484 152.404124 
L 627.070096 152.404124 
L 627.306902 139.933843 
L 630.148577 139.933843 
L 630.385383 134.650484 
L 632.279833 134.650484 
L 632.516639 133.912368 
L 632.753445 133.912368 
L 632.990251 120.561527 
L 652.645167 120.561527 
L 652.881973 110.176101 
L 656.19726 110.176101 
L 656.434066 102.406456 
L 675.141756 102.406456 
L 675.378563 96.656918 
L 700.716827 96.656918 
L 700.953633 94.546164 
L 709.24185 94.546164 
L 709.478657 89.81963 
L 716.582843 89.81963 
L 716.819649 88.887273 
L 871.690909 88.887273 
L 871.690909 88.887273 
" style="fill:none;stroke:#feffb3;stroke-linecap:square;stroke-width:1.5;"/>
   </g>
   <g id="line2d_17">
    <path clip-path="url(#p5cd76cb01b)" d="M 161.509091 243.555013 
L 163.166734 243.555013 
L 163.403541 256.707338 
L 165.061184 256.707338 
L 165.29799 269.140927 
L 166.955634 269.140927 
L 167.19244 280.895058 
L 168.850083 280.895058 
L 169.08689 292.00686 
L 170.744533 292.00686 
L 170.981339 302.511434 
L 172.638983 302.511434 
L 172.875789 312.441965 
L 174.533432 312.441965 
L 174.770239 321.829822 
L 176.427882 321.829822 
L 176.664688 330.70466 
L 178.322332 330.70466 
L 178.559138 339.094515 
L 180.216781 339.094515 
L 180.453588 347.025889 
L 182.111231 347.025889 
L 182.348037 354.523836 
L 184.005681 354.523836 
L 184.242487 361.612044 
L 185.90013 361.612044 
L 186.136937 368.312901 
L 187.79458 368.312901 
L 188.031386 374.647577 
L 189.68903 374.647577 
L 189.925836 380.636081 
L 191.583479 380.636081 
L 191.820286 386.297331 
L 193.477929 386.297331 
L 193.714735 391.649211 
L 195.372379 391.649211 
L 195.609185 396.708626 
L 197.266828 396.708626 
L 197.503635 401.491559 
L 199.161278 401.491559 
L 199.398084 406.013119 
L 201.055728 406.013119 
L 201.292534 410.287589 
L 202.950177 410.287589 
L 203.186984 414.328472 
L 204.844627 414.328472 
L 205.081433 418.148533 
L 206.739077 418.148533 
L 206.975883 421.759838 
L 208.633526 421.759838 
L 208.870333 425.173797 
L 210.527976 425.173797 
L 210.764782 428.401193 
L 212.422426 428.401193 
L 212.659232 431.452221 
L 214.316875 431.452221 
L 214.553682 434.336519 
L 216.211325 434.336519 
L 216.448131 437.0632 
L 218.105775 437.0632 
L 218.342581 439.640875 
L 220.000224 439.640875 
L 220.237031 442.077687 
L 221.894674 442.077687 
L 222.13148 444.381336 
L 223.789124 444.381336 
L 224.02593 446.559096 
L 225.683573 446.559096 
L 225.92038 448.617849 
L 227.578023 448.617849 
L 227.814829 450.564096 
L 229.472473 450.564096 
L 229.709279 452.403988 
L 231.366922 452.403988 
L 231.603729 454.143334 
L 233.261372 454.143334 
L 233.498178 455.78763 
L 235.155822 455.78763 
L 235.392628 457.342071 
L 237.050271 457.342071 
L 237.287078 458.811566 
L 238.944721 458.811566 
L 239.181527 460.200757 
L 240.839171 460.200757 
L 241.075977 461.514033 
L 242.73362 461.514033 
L 242.970427 462.755542 
L 244.62807 462.755542 
L 244.864876 463.929207 
L 246.52252 463.929207 
L 246.759326 465.038734 
L 248.416969 465.038734 
L 248.653776 466.087629 
L 250.311419 466.087629 
L 250.548225 467.079205 
L 252.205869 467.079205 
L 252.442675 468.016594 
L 254.100318 468.016594 
L 254.337124 468.902758 
L 255.994768 468.902758 
L 256.231574 469.740495 
L 257.889218 469.740495 
L 258.126024 470.532453 
L 259.783667 470.532453 
L 260.020473 471.281133 
L 261.678117 471.281133 
L 261.914923 471.988899 
L 263.572567 471.988899 
L 263.809373 472.657988 
L 265.467016 472.657988 
L 265.703822 473.290513 
L 267.361466 473.290513 
L 267.598272 473.888473 
L 269.255916 473.888473 
L 269.492722 474.453756 
L 271.150365 474.453756 
L 271.387171 474.988148 
L 273.044815 474.988148 
L 273.281621 475.493336 
L 274.939265 475.493336 
L 275.176071 475.970918 
L 276.833714 475.970918 
L 277.07052 476.422402 
L 278.728164 476.422402 
L 278.96497 476.849213 
L 280.622614 476.849213 
L 280.85942 477.2527 
L 282.517063 477.2527 
L 282.753869 477.634138 
L 284.411513 477.634138 
L 284.648319 477.994731 
L 286.305963 477.994731 
L 286.542769 478.335619 
L 288.200412 478.335619 
L 288.437218 478.657879 
L 290.094862 478.657879 
L 290.331668 478.962528 
L 291.989312 478.962528 
L 292.226118 479.250529 
L 293.883761 479.250529 
L 294.120567 479.522791 
L 295.778211 479.522791 
L 296.015017 479.780175 
L 297.672661 479.780175 
L 297.909467 480.023494 
L 299.56711 480.023494 
L 299.803916 480.253516 
L 301.46156 480.253516 
L 301.698366 480.470968 
L 303.35601 480.470968 
L 303.592816 480.676537 
L 305.250459 480.676537 
L 305.487265 480.870873 
L 307.144909 480.870873 
L 307.381715 481.054588 
L 309.039359 481.054588 
L 309.276165 481.228264 
L 310.933808 481.228264 
L 311.170614 481.392449 
L 312.828258 481.392449 
L 313.065064 481.547662 
L 314.722708 481.547662 
L 314.959514 481.694393 
L 316.617157 481.694393 
L 316.853963 481.833105 
L 318.511607 481.833105 
L 318.748413 481.964237 
L 320.406057 481.964237 
L 320.879669 482.088204 
L 322.300506 482.088204 
L 322.774119 482.205396 
L 326.089406 482.316183 
L 326.563018 482.420917 
L 329.878305 482.519927 
L 330.351917 482.613526 
L 333.667204 482.702011 
L 334.140817 482.78566 
L 337.456104 482.864738 
L 337.929716 482.939495 
L 341.245003 483.010166 
L 341.718615 483.076975 
L 345.033902 483.140134 
L 345.507515 483.199841 
L 350.717251 483.309645 
L 351.42767 483.360088 
L 356.4006 483.452857 
L 357.111019 483.495474 
L 362.083949 483.57385 
L 363.031174 483.609856 
L 369.661748 483.706491 
L 370.608973 483.735249 
L 379.133996 483.835398 
L 380.554833 483.857111 
L 392.395144 483.96462 
L 394.5264 483.993122 
L 417.022989 484.103597 
L 421.285501 484.123631 
L 871.690909 484.232727 
L 871.690909 484.232727 
" style="fill:none;stroke:#bfbbd9;stroke-linecap:square;stroke-width:1.5;"/>
   </g>
   <g id="patch_3">
    <path d="M 126 504 
L 126 69.12 
" style="fill:none;stroke:#ffffff;stroke-linecap:square;stroke-linejoin:miter;stroke-width:0.8;"/>
   </g>
   <g id="patch_4">
    <path d="M 907.2 504 
L 907.2 69.12 
" style="fill:none;stroke:#ffffff;stroke-linecap:square;stroke-linejoin:miter;stroke-width:0.8;"/>
   </g>
   <g id="patch_5">
    <path d="M 126 504 
L 907.2 504 
" style="fill:none;stroke:#ffffff;stroke-linecap:square;stroke-linejoin:miter;stroke-width:0.8;"/>
   </g>
   <g id="patch_6">
    <path d="M 126 69.12 
L 907.2 69.12 
" style="fill:none;stroke:#ffffff;stroke-linecap:square;stroke-linejoin:miter;stroke-width:0.8;"/>
   </g>
   <g id="text_16">
    <!-- instance 9 with error 0.0 -->
    <g style="fill:#ffffff;" transform="translate(442.944375 63.12)scale(0.12 -0.12)">
     <defs>
      <path d="M 2834 3397 
L 2834 2853 
Q 2591 2978 2328 3040 
Q 2066 3103 1784 3103 
Q 1356 3103 1142 2972 
Q 928 2841 928 2578 
Q 928 2378 1081 2264 
Q 1234 2150 1697 2047 
L 1894 2003 
Q 2506 1872 2764 1633 
Q 3022 1394 3022 966 
Q 3022 478 2636 193 
Q 2250 -91 1575 -91 
Q 1294 -91 989 -36 
Q 684 19 347 128 
L 347 722 
Q 666 556 975 473 
Q 1284 391 1588 391 
Q 1994 391 2212 530 
Q 2431 669 2431 922 
Q 2431 1156 2273 1281 
Q 2116 1406 1581 1522 
L 1381 1569 
Q 847 1681 609 1914 
Q 372 2147 372 2553 
Q 372 3047 722 3315 
Q 1072 3584 1716 3584 
Q 2034 3584 2315 3537 
Q 2597 3491 2834 3397 
z
" id="DejaVuSans-73" transform="scale(0.015625)"/>
      <path d="M 3122 3366 
L 3122 2828 
Q 2878 2963 2633 3030 
Q 2388 3097 2138 3097 
Q 1578 3097 1268 2742 
Q 959 2388 959 1747 
Q 959 1106 1268 751 
Q 1578 397 2138 397 
Q 2388 397 2633 464 
Q 2878 531 3122 666 
L 3122 134 
Q 2881 22 2623 -34 
Q 2366 -91 2075 -91 
Q 1284 -91 818 406 
Q 353 903 353 1747 
Q 353 2603 823 3093 
Q 1294 3584 2113 3584 
Q 2378 3584 2631 3529 
Q 2884 3475 3122 3366 
z
" id="DejaVuSans-63" transform="scale(0.015625)"/>
      <path id="DejaVuSans-20" transform="scale(0.015625)"/>
      <path d="M 703 97 
L 703 672 
Q 941 559 1184 500 
Q 1428 441 1663 441 
Q 2288 441 2617 861 
Q 2947 1281 2994 2138 
Q 2813 1869 2534 1725 
Q 2256 1581 1919 1581 
Q 1219 1581 811 2004 
Q 403 2428 403 3163 
Q 403 3881 828 4315 
Q 1253 4750 1959 4750 
Q 2769 4750 3195 4129 
Q 3622 3509 3622 2328 
Q 3622 1225 3098 567 
Q 2575 -91 1691 -91 
Q 1453 -91 1209 -44 
Q 966 3 703 97 
z
M 1959 2075 
Q 2384 2075 2632 2365 
Q 2881 2656 2881 3163 
Q 2881 3666 2632 3958 
Q 2384 4250 1959 4250 
Q 1534 4250 1286 3958 
Q 1038 3666 1038 3163 
Q 1038 2656 1286 2365 
Q 1534 2075 1959 2075 
z
" id="DejaVuSans-39" transform="scale(0.015625)"/>
      <path d="M 269 3500 
L 844 3500 
L 1563 769 
L 2278 3500 
L 2956 3500 
L 3675 769 
L 4391 3500 
L 4966 3500 
L 4050 0 
L 3372 0 
L 2619 2869 
L 1863 0 
L 1184 0 
L 269 3500 
z
" id="DejaVuSans-77" transform="scale(0.015625)"/>
      <path d="M 3513 2113 
L 3513 0 
L 2938 0 
L 2938 2094 
Q 2938 2591 2744 2837 
Q 2550 3084 2163 3084 
Q 1697 3084 1428 2787 
Q 1159 2491 1159 1978 
L 1159 0 
L 581 0 
L 581 4863 
L 1159 4863 
L 1159 2956 
Q 1366 3272 1645 3428 
Q 1925 3584 2291 3584 
Q 2894 3584 3203 3211 
Q 3513 2838 3513 2113 
z
" id="DejaVuSans-68" transform="scale(0.015625)"/>
      <path d="M 684 794 
L 1344 794 
L 1344 0 
L 684 0 
L 684 794 
z
" id="DejaVuSans-2e" transform="scale(0.015625)"/>
     </defs>
     <use xlink:href="#DejaVuSans-69"/>
     <use x="27.783203" xlink:href="#DejaVuSans-6e"/>
     <use x="91.162109" xlink:href="#DejaVuSans-73"/>
     <use x="143.261719" xlink:href="#DejaVuSans-74"/>
     <use x="182.470703" xlink:href="#DejaVuSans-61"/>
     <use x="243.75" xlink:href="#DejaVuSans-6e"/>
     <use x="307.128906" xlink:href="#DejaVuSans-63"/>
     <use x="362.109375" xlink:href="#DejaVuSans-65"/>
     <use x="423.632812" xlink:href="#DejaVuSans-20"/>
     <use x="455.419922" xlink:href="#DejaVuSans-39"/>
     <use x="519.042969" xlink:href="#DejaVuSans-20"/>
     <use x="550.830078" xlink:href="#DejaVuSans-77"/>
     <use x="632.617188" xlink:href="#DejaVuSans-69"/>
     <use x="660.400391" xlink:href="#DejaVuSans-74"/>
     <use x="699.609375" xlink:href="#DejaVuSans-68"/>
     <use x="762.988281" xlink:href="#DejaVuSans-20"/>
     <use x="794.775391" xlink:href="#DejaVuSans-65"/>
     <use x="856.298828" xlink:href="#DejaVuSans-72"/>
     <use x="895.662109" xlink:href="#DejaVuSans-72"/>
     <use x="934.525391" xlink:href="#DejaVuSans-6f"/>
     <use x="995.707031" xlink:href="#DejaVuSans-72"/>
     <use x="1036.820312" xlink:href="#DejaVuSans-20"/>
     <use x="1068.607422" xlink:href="#DejaVuSans-30"/>
     <use x="1132.230469" xlink:href="#DejaVuSans-2e"/>
     <use x="1164.017578" xlink:href="#DejaVuSans-30"/>
    </g>
   </g>
   <g id="legend_1">
    <g id="patch_7">
     <path d="M 805.348438 499 
L 900.2 499 
Q 902.2 499 902.2 497 
L 902.2 453.965625 
Q 902.2 451.965625 900.2 451.965625 
L 805.348438 451.965625 
Q 803.348438 451.965625 803.348438 453.965625 
L 803.348438 497 
Q 803.348438 499 805.348438 499 
z
" style="opacity:0.8;stroke:#cccccc;stroke-linejoin:miter;"/>
    </g>
    <g id="line2d_18">
     <path d="M 807.348438 460.064062 
L 827.348438 460.064062 
" style="fill:none;stroke:#8dd3c7;stroke-linecap:square;stroke-width:1.5;"/>
    </g>
    <g id="line2d_19"/>
    <g id="text_17">
     <!-- cost -->
     <g style="fill:#ffffff;" transform="translate(835.348438 463.564062)scale(0.1 -0.1)">
      <use xlink:href="#DejaVuSans-63"/>
      <use x="54.980469" xlink:href="#DejaVuSans-6f"/>
      <use x="116.162109" xlink:href="#DejaVuSans-73"/>
      <use x="168.261719" xlink:href="#DejaVuSans-74"/>
     </g>
    </g>
    <g id="line2d_20">
     <path d="M 807.348438 474.742188 
L 827.348438 474.742188 
" style="fill:none;stroke:#feffb3;stroke-linecap:square;stroke-width:1.5;"/>
    </g>
    <g id="line2d_21"/>
    <g id="text_18">
     <!-- best cost -->
     <g style="fill:#ffffff;" transform="translate(835.348438 478.242188)scale(0.1 -0.1)">
      <defs>
       <path d="M 3116 1747 
Q 3116 2381 2855 2742 
Q 2594 3103 2138 3103 
Q 1681 3103 1420 2742 
Q 1159 2381 1159 1747 
Q 1159 1113 1420 752 
Q 1681 391 2138 391 
Q 2594 391 2855 752 
Q 3116 1113 3116 1747 
z
M 1159 2969 
Q 1341 3281 1617 3432 
Q 1894 3584 2278 3584 
Q 2916 3584 3314 3078 
Q 3713 2572 3713 1747 
Q 3713 922 3314 415 
Q 2916 -91 2278 -91 
Q 1894 -91 1617 61 
Q 1341 213 1159 525 
L 1159 0 
L 581 0 
L 581 4863 
L 1159 4863 
L 1159 2969 
z
" id="DejaVuSans-62" transform="scale(0.015625)"/>
      </defs>
      <use xlink:href="#DejaVuSans-62"/>
      <use x="63.476562" xlink:href="#DejaVuSans-65"/>
      <use x="125" xlink:href="#DejaVuSans-73"/>
      <use x="177.099609" xlink:href="#DejaVuSans-74"/>
      <use x="216.308594" xlink:href="#DejaVuSans-20"/>
      <use x="248.095703" xlink:href="#DejaVuSans-63"/>
      <use x="303.076172" xlink:href="#DejaVuSans-6f"/>
      <use x="364.257812" xlink:href="#DejaVuSans-73"/>
      <use x="416.357422" xlink:href="#DejaVuSans-74"/>
     </g>
    </g>
    <g id="line2d_22">
     <path d="M 807.348438 489.420313 
L 827.348438 489.420313 
" style="fill:none;stroke:#bfbbd9;stroke-linecap:square;stroke-width:1.5;"/>
    </g>
    <g id="line2d_23"/>
    <g id="text_19">
     <!-- temperature -->
     <g style="fill:#ffffff;" transform="translate(835.348438 492.920313)scale(0.1 -0.1)">
      <defs>
       <path d="M 3328 2828 
Q 3544 3216 3844 3400 
Q 4144 3584 4550 3584 
Q 5097 3584 5394 3201 
Q 5691 2819 5691 2113 
L 5691 0 
L 5113 0 
L 5113 2094 
Q 5113 2597 4934 2840 
Q 4756 3084 4391 3084 
Q 3944 3084 3684 2787 
Q 3425 2491 3425 1978 
L 3425 0 
L 2847 0 
L 2847 2094 
Q 2847 2600 2669 2842 
Q 2491 3084 2119 3084 
Q 1678 3084 1418 2786 
Q 1159 2488 1159 1978 
L 1159 0 
L 581 0 
L 581 3500 
L 1159 3500 
L 1159 2956 
Q 1356 3278 1631 3431 
Q 1906 3584 2284 3584 
Q 2666 3584 2933 3390 
Q 3200 3197 3328 2828 
z
" id="DejaVuSans-6d" transform="scale(0.015625)"/>
       <path d="M 1159 525 
L 1159 -1331 
L 581 -1331 
L 581 3500 
L 1159 3500 
L 1159 2969 
Q 1341 3281 1617 3432 
Q 1894 3584 2278 3584 
Q 2916 3584 3314 3078 
Q 3713 2572 3713 1747 
Q 3713 922 3314 415 
Q 2916 -91 2278 -91 
Q 1894 -91 1617 61 
Q 1341 213 1159 525 
z
M 3116 1747 
Q 3116 2381 2855 2742 
Q 2594 3103 2138 3103 
Q 1681 3103 1420 2742 
Q 1159 2381 1159 1747 
Q 1159 1113 1420 752 
Q 1681 391 2138 391 
Q 2594 391 2855 752 
Q 3116 1113 3116 1747 
z
" id="DejaVuSans-70" transform="scale(0.015625)"/>
       <path d="M 544 1381 
L 544 3500 
L 1119 3500 
L 1119 1403 
Q 1119 906 1312 657 
Q 1506 409 1894 409 
Q 2359 409 2629 706 
Q 2900 1003 2900 1516 
L 2900 3500 
L 3475 3500 
L 3475 0 
L 2900 0 
L 2900 538 
Q 2691 219 2414 64 
Q 2138 -91 1772 -91 
Q 1169 -91 856 284 
Q 544 659 544 1381 
z
M 1991 3584 
L 1991 3584 
z
" id="DejaVuSans-75" transform="scale(0.015625)"/>
      </defs>
      <use xlink:href="#DejaVuSans-74"/>
      <use x="39.208984" xlink:href="#DejaVuSans-65"/>
      <use x="100.732422" xlink:href="#DejaVuSans-6d"/>
      <use x="198.144531" xlink:href="#DejaVuSans-70"/>
      <use x="261.621094" xlink:href="#DejaVuSans-65"/>
      <use x="323.144531" xlink:href="#DejaVuSans-72"/>
      <use x="364.257812" xlink:href="#DejaVuSans-61"/>
      <use x="425.537109" xlink:href="#DejaVuSans-74"/>
      <use x="464.746094" xlink:href="#DejaVuSans-75"/>
      <use x="528.125" xlink:href="#DejaVuSans-72"/>
      <use x="566.988281" xlink:href="#DejaVuSans-65"/>
     </g>
    </g>
   </g>
  </g>
 </g>
 <defs>
  <clipPath id="p5cd76cb01b">
   <rect height="434.88" width="781.2" x="126" y="69.12"/>
  </clipPath>
 </defs>
</svg>
