<?xml version="1.0" encoding="utf-8" standalone="no"?>
<!DOCTYPE svg PUBLIC "-//W3C//DTD SVG 1.1//EN"
  "http://www.w3.org/Graphics/SVG/1.1/DTD/svg11.dtd">
<svg height="576pt" version="1.1" viewBox="0 0 1008 576" width="1008pt" xmlns="http://www.w3.org/2000/svg" xmlns:xlink="http://www.w3.org/1999/xlink">
 <metadata>
  <rdf:RDF xmlns:cc="http://creativecommons.org/ns#" xmlns:dc="http://purl.org/dc/elements/1.1/" xmlns:rdf="http://www.w3.org/1999/02/22-rdf-syntax-ns#">
   <cc:Work>
    <dc:type rdf:resource="http://purl.org/dc/dcmitype/StillImage"/>
    <dc:date>2022-01-13T19:10:45.927839</dc:date>
    <dc:format>image/svg+xml</dc:format>
    <dc:creator>
     <cc:Agent>
      <dc:title>Matplotlib v3.4.3, https://matplotlib.org/</dc:title>
     </cc:Agent>
    </dc:creator>
   </cc:Work>
  </rdf:RDF>
 </metadata>
 <defs>
  <style type="text/css">*{stroke-linecap:butt;stroke-linejoin:round;}</style>
 </defs>
 <g id="figure_1">
  <g id="patch_1">
   <path d="M 0 576 
L 1008 576 
L 1008 0 
L 0 0 
z
"/>
  </g>
  <g id="axes_1">
   <g id="patch_2">
    <path d="M 126 504 
L 907.2 504 
L 907.2 69.12 
L 126 69.12 
z
"/>
   </g>
   <g id="matplotlib.axis_1">
    <g id="xtick_1">
     <g id="line2d_1">
      <defs>
       <path d="M 0 0 
L 0 3.5 
" id="mbb7225a42d" style="stroke:#ffffff;stroke-width:0.8;"/>
      </defs>
      <g>
       <use style="fill:#ffffff;stroke:#ffffff;stroke-width:0.8;" x="161.509091" xlink:href="#mbb7225a42d" y="504"/>
      </g>
     </g>
     <g id="text_1">
      <!-- 0 -->
      <g style="fill:#ffffff;" transform="translate(158.327841 518.598438)scale(0.1 -0.1)">
       <defs>
        <path d="M 2034 4250 
Q 1547 4250 1301 3770 
Q 1056 3291 1056 2328 
Q 1056 1369 1301 889 
Q 1547 409 2034 409 
Q 2525 409 2770 889 
Q 3016 1369 3016 2328 
Q 3016 3291 2770 3770 
Q 2525 4250 2034 4250 
z
M 2034 4750 
Q 2819 4750 3233 4129 
Q 3647 3509 3647 2328 
Q 3647 1150 3233 529 
Q 2819 -91 2034 -91 
Q 1250 -91 836 529 
Q 422 1150 422 2328 
Q 422 3509 836 4129 
Q 1250 4750 2034 4750 
z
" id="DejaVuSans-30" transform="scale(0.015625)"/>
       </defs>
       <use xlink:href="#DejaVuSans-30"/>
      </g>
     </g>
    </g>
    <g id="xtick_2">
     <g id="line2d_2">
      <g>
       <use style="fill:#ffffff;stroke:#ffffff;stroke-width:0.8;" x="266.908589" xlink:href="#mbb7225a42d" y="504"/>
      </g>
     </g>
     <g id="text_2">
      <!-- 500 -->
      <g style="fill:#ffffff;" transform="translate(257.364839 518.598438)scale(0.1 -0.1)">
       <defs>
        <path d="M 691 4666 
L 3169 4666 
L 3169 4134 
L 1269 4134 
L 1269 2991 
Q 1406 3038 1543 3061 
Q 1681 3084 1819 3084 
Q 2600 3084 3056 2656 
Q 3513 2228 3513 1497 
Q 3513 744 3044 326 
Q 2575 -91 1722 -91 
Q 1428 -91 1123 -41 
Q 819 9 494 109 
L 494 744 
Q 775 591 1075 516 
Q 1375 441 1709 441 
Q 2250 441 2565 725 
Q 2881 1009 2881 1497 
Q 2881 1984 2565 2268 
Q 2250 2553 1709 2553 
Q 1456 2553 1204 2497 
Q 953 2441 691 2322 
L 691 4666 
z
" id="DejaVuSans-35" transform="scale(0.015625)"/>
       </defs>
       <use xlink:href="#DejaVuSans-35"/>
       <use x="63.623047" xlink:href="#DejaVuSans-30"/>
       <use x="127.246094" xlink:href="#DejaVuSans-30"/>
      </g>
     </g>
    </g>
    <g id="xtick_3">
     <g id="line2d_3">
      <g>
       <use style="fill:#ffffff;stroke:#ffffff;stroke-width:0.8;" x="372.308087" xlink:href="#mbb7225a42d" y="504"/>
      </g>
     </g>
     <g id="text_3">
      <!-- 1000 -->
      <g style="fill:#ffffff;" transform="translate(359.583087 518.598438)scale(0.1 -0.1)">
       <defs>
        <path d="M 794 531 
L 1825 531 
L 1825 4091 
L 703 3866 
L 703 4441 
L 1819 4666 
L 2450 4666 
L 2450 531 
L 3481 531 
L 3481 0 
L 794 0 
L 794 531 
z
" id="DejaVuSans-31" transform="scale(0.015625)"/>
       </defs>
       <use xlink:href="#DejaVuSans-31"/>
       <use x="63.623047" xlink:href="#DejaVuSans-30"/>
       <use x="127.246094" xlink:href="#DejaVuSans-30"/>
       <use x="190.869141" xlink:href="#DejaVuSans-30"/>
      </g>
     </g>
    </g>
    <g id="xtick_4">
     <g id="line2d_4">
      <g>
       <use style="fill:#ffffff;stroke:#ffffff;stroke-width:0.8;" x="477.707585" xlink:href="#mbb7225a42d" y="504"/>
      </g>
     </g>
     <g id="text_4">
      <!-- 1500 -->
      <g style="fill:#ffffff;" transform="translate(464.982585 518.598438)scale(0.1 -0.1)">
       <use xlink:href="#DejaVuSans-31"/>
       <use x="63.623047" xlink:href="#DejaVuSans-35"/>
       <use x="127.246094" xlink:href="#DejaVuSans-30"/>
       <use x="190.869141" xlink:href="#DejaVuSans-30"/>
      </g>
     </g>
    </g>
    <g id="xtick_5">
     <g id="line2d_5">
      <g>
       <use style="fill:#ffffff;stroke:#ffffff;stroke-width:0.8;" x="583.107083" xlink:href="#mbb7225a42d" y="504"/>
      </g>
     </g>
     <g id="text_5">
      <!-- 2000 -->
      <g style="fill:#ffffff;" transform="translate(570.382083 518.598438)scale(0.1 -0.1)">
       <defs>
        <path d="M 1228 531 
L 3431 531 
L 3431 0 
L 469 0 
L 469 531 
Q 828 903 1448 1529 
Q 2069 2156 2228 2338 
Q 2531 2678 2651 2914 
Q 2772 3150 2772 3378 
Q 2772 3750 2511 3984 
Q 2250 4219 1831 4219 
Q 1534 4219 1204 4116 
Q 875 4013 500 3803 
L 500 4441 
Q 881 4594 1212 4672 
Q 1544 4750 1819 4750 
Q 2544 4750 2975 4387 
Q 3406 4025 3406 3419 
Q 3406 3131 3298 2873 
Q 3191 2616 2906 2266 
Q 2828 2175 2409 1742 
Q 1991 1309 1228 531 
z
" id="DejaVuSans-32" transform="scale(0.015625)"/>
       </defs>
       <use xlink:href="#DejaVuSans-32"/>
       <use x="63.623047" xlink:href="#DejaVuSans-30"/>
       <use x="127.246094" xlink:href="#DejaVuSans-30"/>
       <use x="190.869141" xlink:href="#DejaVuSans-30"/>
      </g>
     </g>
    </g>
    <g id="xtick_6">
     <g id="line2d_6">
      <g>
       <use style="fill:#ffffff;stroke:#ffffff;stroke-width:0.8;" x="688.506581" xlink:href="#mbb7225a42d" y="504"/>
      </g>
     </g>
     <g id="text_6">
      <!-- 2500 -->
      <g style="fill:#ffffff;" transform="translate(675.781581 518.598438)scale(0.1 -0.1)">
       <use xlink:href="#DejaVuSans-32"/>
       <use x="63.623047" xlink:href="#DejaVuSans-35"/>
       <use x="127.246094" xlink:href="#DejaVuSans-30"/>
       <use x="190.869141" xlink:href="#DejaVuSans-30"/>
      </g>
     </g>
    </g>
    <g id="xtick_7">
     <g id="line2d_7">
      <g>
       <use style="fill:#ffffff;stroke:#ffffff;stroke-width:0.8;" x="793.906079" xlink:href="#mbb7225a42d" y="504"/>
      </g>
     </g>
     <g id="text_7">
      <!-- 3000 -->
      <g style="fill:#ffffff;" transform="translate(781.181079 518.598438)scale(0.1 -0.1)">
       <defs>
        <path d="M 2597 2516 
Q 3050 2419 3304 2112 
Q 3559 1806 3559 1356 
Q 3559 666 3084 287 
Q 2609 -91 1734 -91 
Q 1441 -91 1130 -33 
Q 819 25 488 141 
L 488 750 
Q 750 597 1062 519 
Q 1375 441 1716 441 
Q 2309 441 2620 675 
Q 2931 909 2931 1356 
Q 2931 1769 2642 2001 
Q 2353 2234 1838 2234 
L 1294 2234 
L 1294 2753 
L 1863 2753 
Q 2328 2753 2575 2939 
Q 2822 3125 2822 3475 
Q 2822 3834 2567 4026 
Q 2313 4219 1838 4219 
Q 1578 4219 1281 4162 
Q 984 4106 628 3988 
L 628 4550 
Q 988 4650 1302 4700 
Q 1616 4750 1894 4750 
Q 2613 4750 3031 4423 
Q 3450 4097 3450 3541 
Q 3450 3153 3228 2886 
Q 3006 2619 2597 2516 
z
" id="DejaVuSans-33" transform="scale(0.015625)"/>
       </defs>
       <use xlink:href="#DejaVuSans-33"/>
       <use x="63.623047" xlink:href="#DejaVuSans-30"/>
       <use x="127.246094" xlink:href="#DejaVuSans-30"/>
       <use x="190.869141" xlink:href="#DejaVuSans-30"/>
      </g>
     </g>
    </g>
    <g id="xtick_8">
     <g id="line2d_8">
      <g>
       <use style="fill:#ffffff;stroke:#ffffff;stroke-width:0.8;" x="899.305578" xlink:href="#mbb7225a42d" y="504"/>
      </g>
     </g>
     <g id="text_8">
      <!-- 3500 -->
      <g style="fill:#ffffff;" transform="translate(886.580578 518.598438)scale(0.1 -0.1)">
       <use xlink:href="#DejaVuSans-33"/>
       <use x="63.623047" xlink:href="#DejaVuSans-35"/>
       <use x="127.246094" xlink:href="#DejaVuSans-30"/>
       <use x="190.869141" xlink:href="#DejaVuSans-30"/>
      </g>
     </g>
    </g>
    <g id="text_9">
     <!-- iteration -->
     <g style="fill:#ffffff;" transform="translate(495.477344 532.276562)scale(0.1 -0.1)">
      <defs>
       <path d="M 603 3500 
L 1178 3500 
L 1178 0 
L 603 0 
L 603 3500 
z
M 603 4863 
L 1178 4863 
L 1178 4134 
L 603 4134 
L 603 4863 
z
" id="DejaVuSans-69" transform="scale(0.015625)"/>
       <path d="M 1172 4494 
L 1172 3500 
L 2356 3500 
L 2356 3053 
L 1172 3053 
L 1172 1153 
Q 1172 725 1289 603 
Q 1406 481 1766 481 
L 2356 481 
L 2356 0 
L 1766 0 
Q 1100 0 847 248 
Q 594 497 594 1153 
L 594 3053 
L 172 3053 
L 172 3500 
L 594 3500 
L 594 4494 
L 1172 4494 
z
" id="DejaVuSans-74" transform="scale(0.015625)"/>
       <path d="M 3597 1894 
L 3597 1613 
L 953 1613 
Q 991 1019 1311 708 
Q 1631 397 2203 397 
Q 2534 397 2845 478 
Q 3156 559 3463 722 
L 3463 178 
Q 3153 47 2828 -22 
Q 2503 -91 2169 -91 
Q 1331 -91 842 396 
Q 353 884 353 1716 
Q 353 2575 817 3079 
Q 1281 3584 2069 3584 
Q 2775 3584 3186 3129 
Q 3597 2675 3597 1894 
z
M 3022 2063 
Q 3016 2534 2758 2815 
Q 2500 3097 2075 3097 
Q 1594 3097 1305 2825 
Q 1016 2553 972 2059 
L 3022 2063 
z
" id="DejaVuSans-65" transform="scale(0.015625)"/>
       <path d="M 2631 2963 
Q 2534 3019 2420 3045 
Q 2306 3072 2169 3072 
Q 1681 3072 1420 2755 
Q 1159 2438 1159 1844 
L 1159 0 
L 581 0 
L 581 3500 
L 1159 3500 
L 1159 2956 
Q 1341 3275 1631 3429 
Q 1922 3584 2338 3584 
Q 2397 3584 2469 3576 
Q 2541 3569 2628 3553 
L 2631 2963 
z
" id="DejaVuSans-72" transform="scale(0.015625)"/>
       <path d="M 2194 1759 
Q 1497 1759 1228 1600 
Q 959 1441 959 1056 
Q 959 750 1161 570 
Q 1363 391 1709 391 
Q 2188 391 2477 730 
Q 2766 1069 2766 1631 
L 2766 1759 
L 2194 1759 
z
M 3341 1997 
L 3341 0 
L 2766 0 
L 2766 531 
Q 2569 213 2275 61 
Q 1981 -91 1556 -91 
Q 1019 -91 701 211 
Q 384 513 384 1019 
Q 384 1609 779 1909 
Q 1175 2209 1959 2209 
L 2766 2209 
L 2766 2266 
Q 2766 2663 2505 2880 
Q 2244 3097 1772 3097 
Q 1472 3097 1187 3025 
Q 903 2953 641 2809 
L 641 3341 
Q 956 3463 1253 3523 
Q 1550 3584 1831 3584 
Q 2591 3584 2966 3190 
Q 3341 2797 3341 1997 
z
" id="DejaVuSans-61" transform="scale(0.015625)"/>
       <path d="M 1959 3097 
Q 1497 3097 1228 2736 
Q 959 2375 959 1747 
Q 959 1119 1226 758 
Q 1494 397 1959 397 
Q 2419 397 2687 759 
Q 2956 1122 2956 1747 
Q 2956 2369 2687 2733 
Q 2419 3097 1959 3097 
z
M 1959 3584 
Q 2709 3584 3137 3096 
Q 3566 2609 3566 1747 
Q 3566 888 3137 398 
Q 2709 -91 1959 -91 
Q 1206 -91 779 398 
Q 353 888 353 1747 
Q 353 2609 779 3096 
Q 1206 3584 1959 3584 
z
" id="DejaVuSans-6f" transform="scale(0.015625)"/>
       <path d="M 3513 2113 
L 3513 0 
L 2938 0 
L 2938 2094 
Q 2938 2591 2744 2837 
Q 2550 3084 2163 3084 
Q 1697 3084 1428 2787 
Q 1159 2491 1159 1978 
L 1159 0 
L 581 0 
L 581 3500 
L 1159 3500 
L 1159 2956 
Q 1366 3272 1645 3428 
Q 1925 3584 2291 3584 
Q 2894 3584 3203 3211 
Q 3513 2838 3513 2113 
z
" id="DejaVuSans-6e" transform="scale(0.015625)"/>
      </defs>
      <use xlink:href="#DejaVuSans-69"/>
      <use x="27.783203" xlink:href="#DejaVuSans-74"/>
      <use x="66.992188" xlink:href="#DejaVuSans-65"/>
      <use x="128.515625" xlink:href="#DejaVuSans-72"/>
      <use x="169.628906" xlink:href="#DejaVuSans-61"/>
      <use x="230.908203" xlink:href="#DejaVuSans-74"/>
      <use x="270.117188" xlink:href="#DejaVuSans-69"/>
      <use x="297.900391" xlink:href="#DejaVuSans-6f"/>
      <use x="359.082031" xlink:href="#DejaVuSans-6e"/>
     </g>
    </g>
   </g>
   <g id="matplotlib.axis_2">
    <g id="ytick_1">
     <g id="line2d_9">
      <defs>
       <path d="M 0 0 
L -3.5 0 
" id="m499bc0bc49" style="stroke:#ffffff;stroke-width:0.8;"/>
      </defs>
      <g>
       <use style="fill:#ffffff;stroke:#ffffff;stroke-width:0.8;" x="126" xlink:href="#m499bc0bc49" y="484.232727"/>
      </g>
     </g>
     <g id="text_10">
      <!-- 0 -->
      <g style="fill:#ffffff;" transform="translate(112.6375 488.031946)scale(0.1 -0.1)">
       <use xlink:href="#DejaVuSans-30"/>
      </g>
     </g>
    </g>
    <g id="ytick_2">
     <g id="line2d_10">
      <g>
       <use style="fill:#ffffff;stroke:#ffffff;stroke-width:0.8;" x="126" xlink:href="#m499bc0bc49" y="390.704113"/>
      </g>
     </g>
     <g id="text_11">
      <!-- 5000 -->
      <g style="fill:#ffffff;" transform="translate(93.55 394.503331)scale(0.1 -0.1)">
       <use xlink:href="#DejaVuSans-35"/>
       <use x="63.623047" xlink:href="#DejaVuSans-30"/>
       <use x="127.246094" xlink:href="#DejaVuSans-30"/>
       <use x="190.869141" xlink:href="#DejaVuSans-30"/>
      </g>
     </g>
    </g>
    <g id="ytick_3">
     <g id="line2d_11">
      <g>
       <use style="fill:#ffffff;stroke:#ffffff;stroke-width:0.8;" x="126" xlink:href="#m499bc0bc49" y="297.175498"/>
      </g>
     </g>
     <g id="text_12">
      <!-- 10000 -->
      <g style="fill:#ffffff;" transform="translate(87.1875 300.974717)scale(0.1 -0.1)">
       <use xlink:href="#DejaVuSans-31"/>
       <use x="63.623047" xlink:href="#DejaVuSans-30"/>
       <use x="127.246094" xlink:href="#DejaVuSans-30"/>
       <use x="190.869141" xlink:href="#DejaVuSans-30"/>
       <use x="254.492188" xlink:href="#DejaVuSans-30"/>
      </g>
     </g>
    </g>
    <g id="ytick_4">
     <g id="line2d_12">
      <g>
       <use style="fill:#ffffff;stroke:#ffffff;stroke-width:0.8;" x="126" xlink:href="#m499bc0bc49" y="203.646883"/>
      </g>
     </g>
     <g id="text_13">
      <!-- 15000 -->
      <g style="fill:#ffffff;" transform="translate(87.1875 207.446102)scale(0.1 -0.1)">
       <use xlink:href="#DejaVuSans-31"/>
       <use x="63.623047" xlink:href="#DejaVuSans-35"/>
       <use x="127.246094" xlink:href="#DejaVuSans-30"/>
       <use x="190.869141" xlink:href="#DejaVuSans-30"/>
       <use x="254.492188" xlink:href="#DejaVuSans-30"/>
      </g>
     </g>
    </g>
    <g id="ytick_5">
     <g id="line2d_13">
      <g>
       <use style="fill:#ffffff;stroke:#ffffff;stroke-width:0.8;" x="126" xlink:href="#m499bc0bc49" y="110.118268"/>
      </g>
     </g>
     <g id="text_14">
      <!-- 20000 -->
      <g style="fill:#ffffff;" transform="translate(87.1875 113.917487)scale(0.1 -0.1)">
       <use xlink:href="#DejaVuSans-32"/>
       <use x="63.623047" xlink:href="#DejaVuSans-30"/>
       <use x="127.246094" xlink:href="#DejaVuSans-30"/>
       <use x="190.869141" xlink:href="#DejaVuSans-30"/>
       <use x="254.492188" xlink:href="#DejaVuSans-30"/>
      </g>
     </g>
    </g>
   </g>
   <g id="line2d_14">
    <path clip-path="url(#p8d82e4c145)" d="M 161.509091 318.051085 
L 161.930689 282.042568 
L 162.352287 390.217764 
L 162.773885 390.217764 
L 162.984684 410.494768 
L 163.195483 368.014071 
L 163.406282 365.806795 
L 163.617081 378.919507 
L 163.82788 421.400204 
L 164.038679 377.329521 
L 164.249478 410.513473 
L 164.671076 333.632952 
L 165.092674 410.981116 
L 165.514272 373.887668 
L 165.725071 394.557492 
L 165.93587 394.557492 
L 166.146669 391.732927 
L 166.357468 440.124633 
L 166.568267 406.94068 
L 166.779066 406.94068 
L 166.989865 419.024577 
L 167.200664 380.565611 
L 167.411463 402.731893 
L 167.622262 393.659617 
L 167.833061 398.317342 
L 168.04386 398.317342 
L 168.465458 331.145091 
L 168.887056 299.270539 
L 169.097855 299.270539 
L 169.519453 415.620136 
L 169.941051 338.739614 
L 170.15185 334.99847 
L 170.362649 326.842774 
L 170.573448 340.928184 
L 170.995046 414.422969 
L 171.205845 414.422969 
L 171.416644 393.379031 
L 171.627443 403.57365 
L 171.838242 399.664154 
L 172.049041 412.776866 
L 172.25984 405.425517 
L 172.470639 406.192451 
L 172.681438 363.59952 
L 172.892237 426.469455 
L 173.103036 384.568636 
L 173.313835 384.568636 
L 173.524634 430.378951 
L 173.735433 387.898254 
L 173.946232 395.249603 
L 174.157031 369.398294 
L 174.578629 351.496917 
L 174.789428 377.81587 
L 175.000227 344.631917 
L 175.211026 367.003962 
L 175.421825 363.8614 
L 175.632624 354.452422 
L 175.843423 410.737942 
L 176.054222 426.244986 
L 176.265021 421.400204 
L 176.47582 411.953814 
L 176.686619 380.958431 
L 176.897418 396.259712 
L 177.108217 359.57779 
L 177.319016 370.127817 
L 177.529815 344.931209 
L 177.740614 338.066208 
L 177.951413 334.923647 
L 178.162212 339.768429 
L 178.58381 388.478132 
L 178.794609 324.560676 
L 179.216207 405.556457 
L 179.427006 402.413895 
L 179.637805 406.323391 
L 179.848604 402.582247 
L 180.059403 395.230898 
L 180.270202 375.36542 
L 180.481001 366.742082 
L 180.6918 404.190939 
L 180.902599 393.640911 
L 181.113398 437.711594 
L 181.324197 413.001334 
L 181.745795 339.41302 
L 181.956594 382.005951 
L 182.167393 385.747096 
L 182.378192 410.457356 
L 182.588991 385.260747 
L 182.79979 394.183377 
L 183.010589 394.669726 
L 183.221388 405.219754 
L 183.432187 405.219754 
L 183.642986 383.558526 
L 183.853785 432.305641 
L 184.064584 429.967425 
L 184.275382 445.193884 
L 184.486181 430.042248 
L 184.69698 426.899687 
L 184.907779 380.509494 
L 185.118578 376.768349 
L 185.329377 401.703078 
L 185.540176 365.021155 
L 185.750975 401.703078 
L 185.961774 411.897697 
L 186.383372 367.340665 
L 186.80497 291.563781 
L 187.015769 341.246181 
L 187.226568 298.765484 
L 187.437367 298.765484 
L 187.648166 278.207895 
L 187.858965 299.401479 
L 188.069764 309.091043 
L 188.280563 358.717326 
L 188.491362 337.673388 
L 188.702161 381.70666 
L 188.91296 360.531782 
L 189.123759 404.602465 
L 189.334558 407.745026 
L 189.545357 418.295054 
L 189.756156 375.814357 
L 189.966955 394.875489 
L 190.388553 353.62937 
L 190.599352 393.154562 
L 190.810151 390.012001 
L 191.02095 365.077272 
L 191.231749 381.613131 
L 191.442548 360.569193 
L 191.653347 381.613131 
L 191.864146 355.761822 
L 192.285744 292.218481 
L 192.496543 292.891887 
L 192.918141 344.893797 
L 193.12894 341.152653 
L 193.339739 325.290199 
L 193.550538 281.219516 
L 193.761337 304.73261 
L 193.972136 299.887828 
L 194.182935 304.73261 
L 194.393734 279.536001 
L 194.604533 318.556139 
L 195.026131 273.587581 
L 195.23693 286.045593 
L 195.447729 309.558686 
L 195.658528 353.62937 
L 195.869327 345.006031 
L 196.080126 386.794617 
L 196.290925 378.171278 
L 196.501724 386.794617 
L 196.712523 362.084357 
L 196.923322 408.474549 
L 197.34492 329.405459 
L 197.555719 286.924762 
L 197.977317 360.326019 
L 198.188116 335.39129 
L 198.398915 348.298239 
L 198.609714 352.488321 
L 198.820513 369.304766 
L 199.242111 293.135062 
L 199.45291 367.883131 
L 199.663709 331.201208 
L 199.874508 349.270936 
L 200.296106 285.016778 
L 200.506905 330.827093 
L 200.717704 352.301263 
L 201.139302 323.681507 
L 201.350101 283.52032 
L 201.771699 394.164671 
L 201.982498 369.229943 
L 202.193297 363.000937 
L 202.404096 366.461496 
L 202.614895 344.05204 
L 202.825694 370.165229 
L 203.036493 347.699656 
L 203.247292 424.711117 
L 203.66889 447.56951 
L 204.090488 368.406891 
L 204.301287 342.555582 
L 204.722885 378.320924 
L 204.933684 385.036279 
L 205.144483 376.41294 
L 205.355282 376.41294 
L 205.566081 398.878514 
L 205.77688 398.878514 
L 205.987679 429.873897 
L 206.198478 429.873897 
L 206.409277 409.596893 
L 206.620076 429.873897 
L 206.830875 432.062466 
L 207.252473 390.068118 
L 207.463272 422.709605 
L 207.674071 422.709605 
L 207.88487 431.332943 
L 208.095669 447.43857 
L 208.517267 405.593868 
L 208.938865 422.821839 
L 209.149664 397.88711 
L 209.360463 389.413418 
L 209.571262 447.532099 
L 209.782061 438.908761 
L 209.99286 418.631757 
L 210.203659 423.719714 
L 210.414458 415.451784 
L 210.625257 412.309223 
L 210.836056 366.424084 
L 211.046855 365.65715 
L 211.468453 312.495485 
L 211.679252 279.311532 
L 212.10085 324.579382 
L 212.311649 379.667736 
L 212.522448 354.957476 
L 212.733247 378.07775 
L 212.944046 377.142464 
L 213.154845 350.65516 
L 213.365644 306.584477 
L 213.576443 306.584477 
L 213.787242 324.803851 
L 213.998041 299.869122 
L 214.20884 341.358416 
L 214.419639 317.845322 
L 214.630438 325.776548 
L 214.841237 316.10569 
L 215.052036 316.10569 
L 215.262835 279.423767 
L 215.473634 316.10569 
L 215.684433 305.555662 
L 215.895232 388.30978 
L 216.31683 353.143021 
L 216.527629 381.463486 
L 216.738428 452.058884 
L 216.949227 426.862275 
L 217.160026 426.862275 
L 217.792423 379.12527 
L 218.003222 375.982709 
L 218.214021 331.912025 
L 218.42482 325.68302 
L 218.635619 300.97276 
L 218.846418 351.328566 
L 219.057217 347.587421 
L 219.268016 304.99449 
L 219.689614 388.010489 
L 219.900413 384.269344 
L 220.322011 295.791274 
L 220.743609 295.791274 
L 220.954408 314.216411 
L 221.165207 303.666384 
L 221.376006 320.445417 
L 221.797604 327.329123 
L 222.008403 349.701168 
L 222.219202 338.23456 
L 222.430001 313.5243 
L 222.6408 356.117231 
L 223.062398 333.127897 
L 223.273197 333.127897 
L 223.694795 389.376006 
L 223.905594 420.371389 
L 224.537991 363.019643 
L 224.74879 373.363907 
L 224.959589 340.179955 
L 225.170388 373.363907 
L 225.381187 361.598008 
L 225.802785 384.531224 
L 226.013584 366.83561 
L 226.224383 320.91306 
L 226.645981 320.91306 
L 226.85678 394.501374 
L 227.067579 370.988281 
L 227.278378 330.527802 
L 227.489177 340.722421 
L 227.699976 330.527802 
L 227.910775 330.527802 
L 228.121574 352.001972 
L 228.753971 281.163399 
L 229.175569 411.617111 
L 229.597167 366.405379 
L 229.807966 361.897299 
L 230.018765 382.174303 
L 230.229564 356.322994 
L 230.651162 402.582247 
L 230.861961 407.183855 
L 231.07276 350.860923 
L 231.283559 342.237584 
L 231.705157 363.187994 
L 231.915956 330.004042 
L 232.126755 330.004042 
L 232.337554 401.010966 
L 232.548353 399.439685 
L 232.759152 420.390095 
L 232.969951 414.048855 
L 233.18075 392.387628 
L 233.391549 395.829481 
L 233.602348 363.057054 
L 233.813147 370.969575 
L 234.023946 416.854713 
L 234.656343 333.408483 
L 234.867142 320.445417 
L 235.077941 328.694641 
L 235.28874 328.694641 
L 235.499539 330.078865 
L 235.710338 368.537831 
L 235.921137 377.161169 
L 236.131936 358.100038 
L 236.764333 384.512518 
L 237.185931 344.500977 
L 237.39673 351.665269 
L 237.818328 422.485136 
L 238.029127 379.892205 
L 238.239926 361.822476 
L 238.450725 375.982709 
L 238.661524 372.241564 
L 238.872323 382.585829 
L 239.083122 386.326973 
L 239.715518 272.390415 
L 239.926317 287.41111 
L 240.137116 361.990828 
L 240.347915 376.300706 
L 240.558714 403.031184 
L 240.769513 403.031184 
L 241.40191 336.551045 
L 241.612709 305.013196 
L 241.823508 321.549055 
L 242.245106 256.434433 
L 242.666704 247.04416 
L 242.877503 269.341382 
L 243.088302 244.144773 
L 243.299101 277.328726 
L 243.5099 252.59976 
L 243.720699 282.34186 
L 244.142297 409.65301 
L 244.353096 418.856226 
L 244.774694 351.683975 
L 244.985493 396.914413 
L 245.196292 396.914413 
L 245.407091 373.382613 
L 245.61789 382.698063 
L 245.828689 353.423607 
L 246.039488 378.133867 
L 246.250287 374.991305 
L 246.461086 349.794697 
L 246.671885 344.949914 
L 246.882684 302.469217 
L 247.093483 299.326656 
L 247.304282 405.182342 
L 247.72588 360.718839 
L 247.936679 381.669248 
L 248.147478 372.466033 
L 248.569076 283.987963 
L 248.990674 283.987963 
L 249.201473 345.36144 
L 249.412272 370.0717 
L 249.623071 352.001972 
L 249.83387 356.958988 
L 250.255468 379.312327 
L 250.466267 346.128375 
L 250.677066 345.473675 
L 250.887865 339.338197 
L 251.098664 393.135857 
L 251.309463 398.485693 
L 251.520262 400.412383 
L 251.731061 401.067083 
L 251.94186 367.883131 
L 252.152659 376.506469 
L 252.574257 319.547543 
L 252.785056 410.737942 
L 252.995855 397.62523 
L 253.206654 407.670203 
L 253.417453 427.947207 
L 253.628252 403.012478 
L 253.839051 395.511483 
L 254.04985 420.446212 
L 254.260649 377.965515 
L 254.471448 359.895787 
L 254.682247 359.895787 
L 254.893046 365.339152 
L 255.103845 359.184969 
L 255.314644 359.184969 
L 255.525443 357.333103 
L 255.736242 382.529712 
L 255.947041 367.022667 
L 256.368639 396.689944 
L 256.579438 389.338595 
L 256.790237 439.170641 
L 257.001036 444.932004 
L 257.211835 444.932004 
L 257.422634 408.250081 
L 257.633433 427.797561 
L 257.844232 407.520558 
L 258.055031 361.635419 
L 258.26583 398.897219 
L 258.476629 411.018528 
L 258.687428 415.115081 
L 258.898227 393.453854 
L 259.109026 415.115081 
L 259.319825 372.634384 
L 259.530624 305.593073 
L 259.741423 351.478212 
L 259.952222 369.54794 
L 260.163021 369.54794 
L 260.37382 388.122723 
L 260.584619 364.497395 
L 260.795418 323.457039 
L 261.006217 342.144056 
L 261.217016 341.227475 
L 261.427815 341.227475 
L 261.638614 337.486331 
L 261.849413 320.950472 
L 262.060212 341.227475 
L 262.271011 341.227475 
L 262.48181 330.677448 
L 262.692609 344.800269 
L 262.903408 370.651578 
L 263.114207 360.456959 
L 263.325006 339.787135 
L 263.535805 358.848266 
L 263.957403 312.963128 
L 264.168202 270.370197 
L 264.379001 274.111341 
L 264.5898 266.759992 
L 264.800599 308.903986 
L 265.011398 304.489436 
L 265.222197 308.23058 
L 265.432996 304.489436 
L 265.643795 285.989476 
L 265.854594 292.873182 
L 266.065393 308.978809 
L 266.276192 305.686602 
L 266.69779 233.145808 
L 266.908589 294.575402 
L 267.119388 316.030867 
L 267.330187 273.55017 
L 267.540986 270.407608 
L 267.751785 311.391847 
L 267.962584 306.865062 
L 268.173383 306.865062 
L 268.384182 349.345759 
L 268.594981 353.722898 
L 268.80578 379.237504 
L 269.227378 379.237504 
L 269.438177 382.641946 
L 269.648976 417.359768 
L 269.859775 421.886553 
L 270.070574 421.886553 
L 270.281373 377.81587 
L 270.492172 423.626185 
L 270.91377 369.491823 
L 271.124569 347.830596 
L 271.335368 301.945457 
L 271.546167 281.668454 
L 271.967765 341.47065 
L 272.178564 322.409518 
L 272.389363 361.504479 
L 272.600162 319.023782 
L 272.810961 315.881221 
L 273.02176 325.196671 
L 273.232559 316.797801 
L 273.443358 337.748211 
L 273.654157 318.687079 
L 273.864956 321.829641 
L 274.075755 321.829641 
L 274.286554 364.310338 
L 274.497353 321.829641 
L 274.708152 318.687079 
L 274.918951 332.267434 
L 275.12975 353.292667 
L 275.340549 408.568078 
L 275.551348 408.568078 
L 275.762147 383.857818 
L 275.972946 341.377121 
L 276.183745 345.286617 
L 276.394544 332.173906 
L 276.605343 346.708252 
L 277.448539 235.970372 
L 277.659338 260.680632 
L 278.080936 428.321322 
L 278.291735 392.705625 
L 278.502534 416.218719 
L 278.713333 419.36128 
L 278.924132 414.516498 
L 279.134931 415.507901 
L 279.34573 403.816824 
L 279.767328 356.678403 
L 279.978127 382.211714 
L 280.399725 291.750838 
L 280.610524 290.553672 
L 280.821323 257.369719 
L 281.032122 383.128295 
L 281.242921 404.172233 
L 281.45372 395.548895 
L 281.664519 415.86331 
L 281.875318 403.124713 
L 282.086117 428.732847 
L 282.296916 433.259632 
L 282.718514 359.671318 
L 282.929313 402.264249 
L 283.140112 414.198501 
L 283.350911 382.36136 
L 283.56171 402.638364 
L 283.772509 362.477177 
L 283.983308 370.988281 
L 284.194107 396.83959 
L 284.404906 381.332545 
L 284.615705 337.261862 
L 284.826504 358.361918 
L 285.248102 311.765962 
L 285.458901 346.221903 
L 285.6697 315.226521 
L 285.880499 346.221903 
L 286.091298 325.177965 
L 286.302097 325.177965 
L 286.512896 427.591798 
L 286.723695 446.65293 
L 287.145293 375.49636 
L 287.356092 381.295134 
L 287.566891 406.491743 
L 287.988489 349.794697 
L 288.199288 382.978649 
L 288.410087 374.317899 
L 288.620886 380.453376 
L 288.831685 399.514508 
L 289.253283 392.163159 
L 289.464082 413.263215 
L 289.674881 410.120653 
L 289.88568 389.843649 
L 290.096479 356.659697 
L 290.518077 408.904781 
L 290.728876 432.417875 
L 291.361273 376.076237 
L 291.572072 432.661049 
L 291.782871 343.228988 
L 291.99367 322.128932 
L 292.204469 397.194999 
L 292.626067 380.640434 
L 292.836866 387.991783 
L 293.047665 364.478689 
L 293.258464 321.997992 
L 293.680062 294.145171 
L 293.890861 294.145171 
L 294.10166 257.463248 
L 294.312459 317.228033 
L 294.523258 317.228033 
L 294.734057 296.277623 
L 294.944856 347.082367 
L 295.366453 305.761425 
L 295.577252 318.462611 
L 295.788051 380.565611 
L 295.99885 305.443427 
L 296.209649 341.07783 
L 296.420448 304.395907 
L 296.631247 338.515146 
L 296.842046 296.651738 
L 297.052845 342.12535 
L 297.263644 338.982789 
L 297.474443 396.31583 
L 297.685242 413.263215 
L 297.896041 417.696471 
L 298.10684 428.976022 
L 298.317639 261.859093 
L 298.528438 340.404424 
L 298.950036 394.445257 
L 299.160835 394.445257 
L 299.371634 404.639876 
L 299.582433 378.788567 
L 299.793232 336.195636 
L 300.004031 380.266319 
L 300.425629 293.714939 
L 300.636428 303.030389 
L 300.847227 347.101072 
L 301.058026 325.439845 
L 301.268825 321.698701 
L 301.479624 343.359928 
L 301.690423 389.694004 
L 301.901222 364.983744 
L 302.112021 389.694004 
L 302.533619 334.942353 
L 302.744418 328.077352 
L 302.955217 364.759275 
L 303.166016 360.849779 
L 303.376815 360.849779 
L 303.587614 438.235355 
L 304.009212 380.341142 
L 304.220011 392.032219 
L 304.43081 439.956281 
L 304.641609 434.251036 
L 304.852408 423.326894 
L 305.063207 440.891567 
L 305.274006 440.891567 
L 305.695604 383.558526 
L 305.906403 373.008499 
L 306.328001 422.653487 
L 306.5388 427.180272 
L 306.960398 390.012001 
L 307.171197 400.674263 
L 307.381996 443.267194 
L 307.592795 427.76015 
L 308.014393 376.917995 
L 308.225192 413.599918 
L 308.435991 369.529234 
L 308.64679 350.860923 
L 309.068388 358.736032 
L 309.279187 358.736032 
L 309.489986 323.120336 
L 309.700785 330.004042 
L 309.911584 365.619738 
L 310.122383 345.342734 
L 310.333182 389.413418 
L 310.543981 399.608037 
L 310.75478 392.256688 
L 310.965579 412.8891 
L 311.176378 417.771294 
L 311.387177 381.089371 
L 311.597976 374.748131 
L 311.808775 378.489276 
L 312.019574 420.988678 
L 312.230373 437.524537 
L 312.441172 412.589809 
L 312.651971 434.251036 
L 312.86277 394.089849 
L 313.073569 394.314317 
L 313.284368 378.152573 
L 313.495167 375.010011 
L 313.705966 384.213227 
L 313.916765 366.536319 
L 314.127564 320.65118 
L 314.338363 360.812367 
L 314.549162 318.219436 
L 314.759961 314.30994 
L 314.97076 327.273006 
L 315.181559 373.158145 
L 315.392358 351.496917 
L 315.603157 347.755773 
L 315.813956 359.989316 
L 316.024755 385.447805 
L 316.235554 428.02203 
L 316.657152 409.952302 
L 316.867951 388.908363 
L 317.07875 346.427666 
L 317.289549 345.529792 
L 317.711147 365.52621 
L 317.921946 365.52621 
L 318.132745 350.636454 
L 318.343544 388.197546 
L 318.554343 388.197546 
L 318.765142 370.913458 
L 318.975941 367.770896 
L 319.397539 412.75816 
L 320.029936 375.907886 
L 320.240735 330.022747 
L 320.451534 356.828048 
L 320.662333 356.828048 
L 321.083931 405.201048 
L 321.29473 383.539821 
L 321.505529 383.539821 
L 321.716328 352.544438 
L 321.927127 351.104097 
L 322.137926 372.765324 
L 322.348725 357.25828 
L 322.559524 399.720271 
L 322.770323 391.714222 
L 323.191921 356.229465 
L 323.40272 352.488321 
L 323.613519 339.375609 
L 323.824318 355.911468 
L 324.035117 339.375609 
L 324.245916 362.888703 
L 324.456715 341.938293 
L 324.667514 341.938293 
L 324.878313 358.474152 
L 325.089112 312.589014 
L 325.51071 280.995048 
L 325.721509 277.852486 
L 325.932308 282.622445 
L 326.353906 282.622445 
L 326.564705 277.665429 
L 326.986303 284.549135 
L 327.197102 305.593073 
L 327.407901 301.066288 
L 327.6187 322.016698 
L 327.829499 322.016698 
L 328.040298 300.97276 
L 328.461896 395.305721 
L 328.672695 352.825024 
L 329.094293 383.820407 
L 329.305092 366.124793 
L 329.515891 364.534806 
L 329.72669 360.943307 
L 329.937489 362.215297 
L 330.148288 359.633907 
L 330.359087 315.282638 
L 330.569886 369.473117 
L 330.780685 363.244111 
L 330.991484 345.174383 
L 331.413082 390.928581 
L 331.623881 370.651578 
L 331.83468 324.766439 
L 332.045479 303.81603 
L 332.256278 270.632077 
L 332.467077 267.134107 
L 332.677876 367.808308 
L 332.888675 342.200173 
L 333.099474 419.828923 
L 333.310273 419.828923 
L 333.94267 355.649588 
L 334.153469 395.810775 
L 334.364268 391.28399 
L 334.575067 396.933118 
L 334.785866 389.581769 
L 335.207464 390.965993 
L 335.418263 352.899847 
L 335.629062 339.787135 
L 335.839861 382.380066 
L 336.05066 339.787135 
L 336.261459 342.555582 
L 336.472258 358.006509 
L 336.683057 337.729505 
L 336.893856 358.530269 
L 337.315454 358.530269 
L 337.526253 358.642504 
L 337.737052 333.932243 
L 338.15865 404.452819 
L 338.791047 283.501614 
L 339.212645 272.409121 
L 339.423444 367.265842 
L 339.634243 407.557969 
L 339.845042 364.965038 
L 340.26664 414.497792 
L 340.477439 410.943705 
L 340.899037 410.981116 
L 341.109836 386.270856 
L 341.320635 391.115639 
L 341.531434 375.664711 
L 341.742233 374.280488 
L 341.953032 380.528199 
L 342.163831 372.52215 
L 342.37463 382.922532 
L 342.585429 382.922532 
L 342.796228 386.663677 
L 343.007027 415.938133 
L 343.217826 394.894195 
L 343.639424 422.840545 
L 343.850223 380.359848 
L 344.061022 380.359848 
L 344.48262 391.620693 
L 344.693419 368.107599 
L 345.115017 296.951029 
L 345.536615 367.378076 
L 345.747414 367.378076 
L 345.958213 425.122643 
L 346.169012 400.412383 
L 346.379811 423.925477 
L 346.59061 413.375449 
L 346.801409 430.73436 
L 347.012208 388.253663 
L 347.223007 380.079262 
L 347.433806 359.802258 
L 347.644605 384.512518 
L 348.066203 327.815472 
L 348.487801 403.480121 
L 348.6986 363.412463 
L 348.909399 385.07369 
L 349.120198 361.560596 
L 349.330997 405.63128 
L 349.541796 384.587341 
L 349.752595 409.297601 
L 349.963394 366.816904 
L 350.384992 361.990828 
L 350.59579 316.10569 
L 350.806589 361.990828 
L 351.017388 383.034766 
L 351.228187 392.967505 
L 351.438986 346.577312 
L 351.649785 334.643061 
L 351.860584 314.366057 
L 352.071383 314.366057 
L 352.282182 352.132912 
L 352.492981 318.948959 
L 352.70378 328.900404 
L 352.914579 328.900404 
L 353.125378 318.350376 
L 353.336177 361.448362 
L 353.546976 321.287175 
L 353.757775 331.837203 
L 353.968574 289.244271 
L 354.179373 309.521275 
L 354.390172 353.591958 
L 354.81177 319.809423 
L 355.022569 344.519683 
L 355.233368 326.449954 
L 355.444167 326.449954 
L 355.654966 341.451944 
L 356.076564 269.004679 
L 356.287363 281.256928 
L 356.708961 349.944342 
L 356.91976 365.451387 
L 357.130559 319.566248 
L 357.341358 298.615839 
L 357.552157 294.874694 
L 357.762956 311.036439 
L 357.973755 353.517135 
L 358.184554 441.995205 
L 358.395353 418.482111 
L 358.606152 445.717644 
L 358.816951 441.190859 
L 359.02775 427.030627 
L 359.238549 382.959943 
L 359.449348 386.701088 
L 359.660147 376.15106 
L 359.870946 373.008499 
L 360.081745 352.058089 
L 360.292544 362.608117 
L 360.503343 383.558526 
L 361.13574 283.875729 
L 361.346539 301.945457 
L 361.557338 287.392405 
L 361.768137 287.392405 
L 361.978936 307.613291 
L 362.189735 317.040976 
L 362.400534 334.73659 
L 362.611333 324.186562 
L 362.822132 303.142623 
L 363.032931 269.958671 
L 363.24373 266.217526 
L 363.454529 308.09964 
L 363.665328 308.09964 
L 363.876127 311.07385 
L 364.086926 366.031264 
L 364.297725 380.191496 
L 364.508524 380.191496 
L 364.719323 409.989713 
L 364.930122 420.539741 
L 365.140921 416.985653 
L 365.35172 406.603977 
L 365.773318 440.779333 
L 365.984117 435.934551 
L 366.405715 435.934551 
L 366.616514 431.220709 
L 366.827313 406.28598 
L 367.038112 431.856703 
L 367.248911 430.8653 
L 367.45971 427.086744 
L 367.670509 416.106484 
L 367.881308 391.396224 
L 368.092107 348.915528 
L 368.302906 385.223336 
L 368.513705 341.152653 
L 368.724504 383.633349 
L 368.935303 383.857818 
L 369.146102 380.715257 
L 369.356901 380.715257 
L 369.5677 427.311213 
L 369.778499 430.453774 
L 370.200097 396.371947 
L 370.410896 392.481156 
L 370.621695 406.641389 
L 370.832494 406.641389 
L 371.043293 392.481156 
L 371.254092 398.822396 
L 371.464891 400.356266 
L 371.67569 397.438173 
L 371.886489 402.039781 
L 372.097288 415.07767 
L 372.308087 390.36741 
L 372.518886 385.429099 
L 372.729685 348.167299 
L 373.151283 379.948322 
L 373.362082 358.904384 
L 373.572881 404.789522 
L 373.78368 426.151458 
L 373.994479 422.410313 
L 374.205278 422.410313 
L 374.416077 407.258677 
L 374.626876 401.1232 
L 375.048474 348.46659 
L 375.259273 340.217366 
L 375.470072 339.992898 
L 375.680871 339.992898 
L 375.89167 343.734042 
L 376.313268 261.597213 
L 376.524067 261.597213 
L 376.734866 264.197308 
L 376.945665 297.381261 
L 377.156464 251.496122 
L 377.367263 251.496122 
L 377.788861 319.510131 
L 377.99966 337.729505 
L 378.210459 378.60151 
L 378.421258 369.734997 
L 378.632057 369.734997 
L 378.842856 366.592436 
L 379.053655 335.597053 
L 379.264454 335.597053 
L 379.475253 302.4131 
L 379.686052 328.283115 
L 379.896851 338.720909 
L 380.10765 323.213864 
L 380.318449 377.834575 
L 380.529248 394.370434 
L 381.161645 311.354436 
L 381.372444 319.977774 
L 381.583243 316.23663 
L 381.794042 338.945377 
L 382.004841 296.46468 
L 382.21564 302.749803 
L 382.426439 337.860445 
L 382.637238 337.860445 
L 382.848037 371.044398 
L 383.058836 378.975624 
L 383.269635 410.850176 
L 383.480434 383.764289 
L 383.691233 411.878991 
L 384.112831 369.379588 
L 384.32363 397.49429 
L 384.534429 390.142941 
L 384.745228 391.564576 
L 384.956027 369.099003 
L 385.166826 382.062069 
L 385.377625 382.062069 
L 385.588424 381.05196 
L 385.799223 377.310815 
L 386.220821 340.890772 
L 386.642419 382.791592 
L 386.853218 386.532736 
L 387.064017 398.242519 
L 387.274816 377.292109 
L 387.696414 421.100912 
L 388.328811 303.778618 
L 388.53961 311.279613 
L 388.961208 405.668691 
L 389.172007 405.668691 
L 389.382806 396.465475 
L 389.593605 396.465475 
L 390.015203 360.176373 
L 390.436801 406.697506 
L 390.6476 388.627777 
L 390.858399 346.147081 
L 391.069198 330.640036 
L 391.279997 339.0202 
L 391.490796 381.500897 
L 391.912394 367.733485 
L 392.123193 411.71064 
L 392.333992 420.165626 
L 392.966389 338.702203 
L 393.177188 335.559641 
L 393.387987 360.157667 
L 393.598786 343.528279 
L 393.809585 340.385718 
L 394.231183 365.900324 
L 394.441982 365.900324 
L 394.652781 430.229305 
L 394.86358 399.233922 
L 395.074379 423.906771 
L 395.285178 415.283433 
L 395.495977 385.447805 
L 395.706776 389.357301 
L 396.128374 333.614246 
L 396.339173 370.258757 
L 396.549972 327.778061 
L 396.760771 329.143578 
L 396.97157 342.368525 
L 397.182369 339.225963 
L 397.393168 353.36749 
L 397.603967 337.860445 
L 397.814766 341.003007 
L 398.025565 349.476699 
L 398.447163 349.476699 
L 398.657962 430.042248 
L 398.868761 405.107519 
L 399.07956 394.557492 
L 399.290359 357.875569 
L 399.922756 414.404264 
L 400.133555 394.12726 
L 400.344354 394.12726 
L 400.976751 334.830118 
L 401.18755 426.899687 
L 401.609148 426.899687 
L 401.819947 382.829003 
L 402.241545 376.169766 
L 402.452344 355.556059 
L 402.663143 418.500817 
L 402.873942 402.993773 
L 403.084741 443.15496 
L 403.29554 424.093828 
L 403.717138 453.723693 
L 404.138736 414.610027 
L 404.349535 443.660014 
L 404.560334 410.476062 
L 404.771133 422.99019 
L 404.981932 380.397259 
L 405.192731 371.455924 
L 405.40353 371.455924 
L 405.614329 364.12328 
L 405.825127 320.052597 
L 406.035926 337.187039 
L 406.246725 415.058964 
L 406.457524 415.058964 
L 406.668323 384.063581 
L 406.879122 384.063581 
L 407.089921 398.186402 
L 407.30072 394.445257 
L 407.511519 380.322436 
L 407.722318 446.241404 
L 407.933117 434.550327 
L 408.143916 429.424959 
L 408.354715 411.355231 
L 408.565514 426.001812 
L 408.776313 420.034686 
L 408.987112 408.324904 
L 409.40871 340.647598 
L 409.619509 298.166901 
L 409.830308 399.215217 
L 410.041107 423.626185 
L 410.251906 424.823351 
L 410.462705 368.425597 
L 410.673504 367.957954 
L 410.884303 368.949357 
L 411.095102 369.323471 
L 411.305901 362.159179 
L 411.5167 379.854793 
L 411.938298 365.65715 
L 412.149097 412.047343 
L 412.359896 387.112614 
L 412.570695 344.519683 
L 412.781494 365.52621 
L 412.992293 365.52621 
L 413.203092 408.119141 
L 413.413891 387.075202 
L 413.62469 387.112614 
L 413.835489 341.227475 
L 414.046288 335.877639 
L 414.257087 383.764289 
L 414.467886 396.390652 
L 414.678685 387.767314 
L 414.889484 384.624753 
L 415.100283 384.362873 
L 415.311082 408.586784 
L 415.521881 391.882573 
L 415.73268 404.995285 
L 415.943479 450.805601 
L 416.154278 472.466828 
L 416.365077 475.609389 
L 416.575876 453.948162 
L 416.786675 449.10338 
L 416.997474 433.596335 
L 417.208273 433.596335 
L 417.419072 451.348067 
L 417.629871 451.348067 
L 417.84067 334.717884 
L 418.051469 381.108077 
L 418.262268 382.267832 
L 418.473067 393.547383 
L 418.683866 370.034289 
L 418.894665 370.034289 
L 419.105464 396.110067 
L 419.316263 398.504399 
L 419.527062 394.763255 
L 419.737861 386.888145 
L 419.94866 386.888145 
L 420.370258 323.36351 
L 420.581057 302.4131 
L 421.002655 365.844207 
L 421.424253 301.702283 
L 421.635052 323.36351 
L 421.845851 390.666701 
L 422.05665 385.784508 
L 422.267449 402.320367 
L 422.478248 391.770339 
L 422.689047 387.243554 
L 423.110645 329.70475 
L 423.532243 411.055939 
L 423.743042 411.055939 
L 423.953841 402.432601 
L 424.16464 381.44478 
L 424.375439 385.971565 
L 424.586238 367.901836 
L 424.797037 364.160692 
L 425.007836 364.160692 
L 425.218635 361.01813 
L 425.429434 401.010966 
L 425.851032 370.015583 
L 426.061831 336.831631 
L 426.27263 336.831631 
L 426.483429 344.463566 
L 426.694228 343.079342 
L 426.905027 345.62332 
L 427.115826 303.030389 
L 427.326625 379.854793 
L 427.537424 379.854793 
L 427.748223 379.274916 
L 427.959022 379.274916 
L 428.169821 361.205188 
L 428.38062 315.320049 
L 428.591419 350.019165 
L 428.802218 329.068756 
L 429.223816 409.746539 
L 429.434615 404.621171 
L 429.645414 384.344167 
L 429.856213 341.751236 
L 430.067012 385.840625 
L 430.277811 367.770896 
L 430.48861 378.320924 
L 430.699409 396.390652 
L 431.121007 341.882176 
L 431.753404 434.138801 
L 431.964203 434.138801 
L 432.175002 397.456879 
L 432.385801 390.292587 
L 432.5966 365.582327 
L 432.807399 355.032299 
L 433.018198 402.769304 
L 433.228997 381.725366 
L 433.439796 337.654682 
L 433.650595 348.20471 
L 433.861394 384.886633 
L 434.072193 364.609629 
L 434.282992 322.016698 
L 434.493791 333.707775 
L 434.70459 364.609629 
L 434.915389 364.609629 
L 435.126188 426.862275 
L 435.336987 422.952779 
L 435.547786 448.149388 
L 435.758585 427.10545 
L 435.969384 423.364305 
L 436.180183 423.364305 
L 436.390982 412.814277 
L 436.601781 433.858216 
L 436.81258 423.457834 
L 437.023379 402.357778 
L 437.234178 365.675855 
L 437.444977 402.357778 
L 437.655776 391.863867 
L 437.866575 391.863867 
L 438.077374 355.181945 
L 438.288173 378.695039 
L 438.498972 361.130365 
L 438.709771 327.946412 
L 438.92057 397.681347 
L 439.131369 379.611619 
L 439.342168 378.620216 
L 439.552967 379.817382 
L 439.763766 392.780448 
L 439.974565 371.100515 
L 440.396163 371.100515 
L 440.606962 407.875966 
L 440.817761 389.806238 
L 441.02856 389.806238 
L 441.239359 400.356266 
L 441.660957 323.475744 
L 441.871756 380.584317 
L 442.082555 343.902394 
L 442.293354 327.534886 
L 442.504153 327.534886 
L 442.714952 323.793742 
L 442.925751 313.449477 
L 443.13655 291.78825 
L 443.558148 346.165786 
L 443.768947 366.44279 
L 443.979746 341.73253 
L 444.190545 334.381181 
L 444.401344 368.818417 
L 444.612143 372.727913 
L 444.822942 394.38914 
L 445.033741 387.037791 
L 445.455339 308.342814 
L 445.666138 308.342814 
L 445.876937 329.536399 
L 446.298535 408.699018 
L 446.509334 390.62929 
L 446.720133 396.278418 
L 446.930932 396.278418 
L 447.35253 335.78411 
L 447.563329 315.507106 
L 447.774128 329.816984 
L 447.984927 404.920462 
L 448.195726 407.763732 
L 448.406525 363.693049 
L 448.828123 339.54396 
L 449.038922 336.401399 
L 449.46052 341.358416 
L 449.671319 348.485296 
L 450.092917 418.407288 
L 450.303716 397.36335 
L 450.514515 393.453854 
L 450.936113 339.244669 
L 451.146912 349.794697 
L 451.357711 324.598088 
L 451.56851 342.38723 
L 451.779309 343.808865 
L 451.990108 340.666304 
L 452.200907 335.540936 
L 452.411706 289.150743 
L 452.622505 292.293304 
L 452.833304 274.223576 
L 453.254902 314.384763 
L 453.465701 354.564656 
L 453.6765 372.26027 
L 453.887299 356.753225 
L 454.098098 395.829481 
L 454.308897 364.834098 
L 454.519696 395.829481 
L 454.730495 392.088336 
L 454.941294 438.478529 
L 455.152093 428.28391 
L 455.362892 449.945137 
L 455.573691 429.668134 
L 455.995289 429.668134 
L 456.206088 418.201525 
L 456.416887 372.316387 
L 456.627686 370.483226 
L 456.838485 385.99027 
L 457.049284 385.99027 
L 457.470882 340.105132 
L 457.681681 361.055542 
L 457.89248 370.370992 
L 458.103279 370.688989 
L 458.314078 349.645051 
L 458.524877 392.350216 
L 458.735676 272.988998 
L 458.946475 276.711437 
L 459.157274 243.527484 
L 459.578872 342.38723 
L 459.789671 337.860445 
L 460.00047 355.275473 
L 460.422068 311.260907 
L 461.265263 438.665586 
L 461.476062 445.717644 
L 461.686861 457.408721 
L 461.89766 461.318217 
L 462.108459 439.844047 
L 462.319258 404.527642 
L 462.530057 444.688829 
L 462.951655 388.945775 
L 463.162454 367.995365 
L 463.373253 391.471047 
L 463.584052 360.475664 
L 463.794851 381.949834 
L 464.216449 344.781563 
L 464.427248 341.040418 
L 464.638047 389.731415 
L 464.848846 347.250718 
L 465.059645 341.582884 
L 465.270444 351.777503 
L 465.481243 351.777503 
L 465.692042 355.518648 
L 465.902841 315.357461 
L 466.11364 351.478212 
L 466.324439 351.478212 
L 466.535238 358.361918 
L 466.746037 398.523105 
L 466.956836 393.678323 
L 467.167635 436.159019 
L 467.378434 432.417875 
L 467.589233 425.44064 
L 467.800032 382.959943 
L 468.010831 377.610107 
L 468.22163 381.351251 
L 468.432429 377.610107 
L 468.854027 430.827888 
L 469.064826 439.451227 
L 469.275625 426.338515 
L 469.486424 439.451227 
L 469.697223 443.192371 
L 469.908022 435.841022 
L 470.118821 399.159099 
L 470.32962 399.159099 
L 470.540419 378.358336 
L 470.751218 331.968143 
L 470.962017 331.968143 
L 471.172816 378.358336 
L 471.383615 365.245624 
L 471.594414 339.899369 
L 471.805213 376.581292 
L 472.016012 376.581292 
L 472.43761 318.238142 
L 472.648409 336.30787 
L 472.859208 336.30787 
L 473.280806 294.014231 
L 473.491605 294.014231 
L 474.124002 343.509574 
L 474.334801 322.465635 
L 474.5456 329.985336 
L 474.756399 284.100198 
L 474.967198 302.787215 
L 475.388796 401.983664 
L 475.599595 412.533691 
L 475.810394 408.025612 
L 476.021193 408.025612 
L 476.442791 344.631917 
L 476.65359 371.717804 
L 476.864389 371.717804 
L 477.075188 432.679755 
L 477.496786 404.565053 
L 477.707585 404.565053 
L 477.918384 401.422492 
L 478.129183 410.326416 
L 478.339982 456.529552 
L 478.972379 348.821999 
L 479.183178 353.666781 
L 479.604776 270.594666 
L 479.815575 277.946015 
L 480.026374 270.594666 
L 480.237173 228.113969 
L 480.447972 224.971407 
L 480.658771 369.173826 
L 480.86957 414.984141 
L 481.080369 394.707137 
L 481.291168 414.984141 
L 481.501967 328.114764 
L 481.712766 348.934233 
L 481.923565 341.059124 
L 482.134364 349.719874 
L 482.345163 305.64919 
L 482.555962 311.99043 
L 482.766761 360.49437 
L 482.97756 377.011523 
L 483.188359 370.034289 
L 483.399158 348.373062 
L 483.609957 339.001494 
L 483.820756 337.804328 
L 484.031555 334.063184 
L 484.242354 334.063184 
L 484.453153 347.175895 
L 484.663952 338.552557 
L 485.08555 373.326496 
L 485.296349 404.22835 
L 485.507148 395.605012 
L 485.717947 406.15504 
L 485.928746 409.933596 
L 486.350344 402.301661 
L 486.561143 359.820964 
L 486.771942 349.420582 
L 486.982741 331.350854 
L 487.19354 373.831551 
L 487.404339 370.090406 
L 487.615138 380.004439 
L 487.825937 257.987008 
L 488.458334 365.283035 
L 488.879932 348.242122 
L 489.090731 304.171438 
L 489.30153 329.255813 
L 489.512329 296.07186 
L 489.723128 287.448522 
L 489.933927 312.570308 
L 490.144726 312.570308 
L 490.355525 337.280568 
L 490.566324 321.979287 
L 490.777123 343.9211 
L 490.987922 340.778538 
L 491.198721 358.623798 
L 491.40952 316.143101 
L 491.620319 319.285662 
L 491.831118 284.736192 
L 492.252716 300.916642 
L 492.463515 342.817462 
L 492.674314 361.429656 
L 492.885113 335.428701 
L 493.095912 389.824944 
L 493.306711 347.232013 
L 493.51751 360.176373 
L 493.728309 402.339072 
L 494.149907 364.871509 
L 494.360706 373.17685 
L 494.571505 336.494928 
L 494.782304 329.106167 
L 494.993103 332.772489 
L 495.6255 420.053392 
L 496.047098 385.99027 
L 496.257897 407.46444 
L 496.679495 365.058566 
L 496.890294 319.173428 
L 497.101093 340.142544 
L 497.311892 318.948959 
L 497.522691 385.878036 
L 497.73349 370.370992 
L 497.944289 381.482191 
L 498.155088 381.482191 
L 498.576686 441.153447 
L 498.787485 416.218719 
L 498.998284 373.738022 
L 499.209083 373.738022 
L 499.419882 362.626823 
L 499.630681 357.856863 
L 500.052279 285.858535 
L 500.263078 295.061751 
L 500.473877 365.432681 
L 500.684676 384.138404 
L 500.895475 379.611619 
L 501.106274 362.477177 
L 501.527872 298.223018 
L 501.738671 334.063184 
L 501.94947 343.266399 
L 502.160269 340.441835 
L 502.371068 368.968063 
L 502.581867 348.017653 
L 502.792666 363.524697 
L 503.003465 338.814437 
L 503.214264 344.83768 
L 503.635862 390.255175 
L 503.846661 364.403866 
L 504.05746 364.403866 
L 504.268259 393.023622 
L 504.479058 356.3417 
L 504.689857 363.131877 
L 504.900656 388.328486 
L 505.322254 345.324029 
L 505.533053 358.492858 
L 506.16545 469.193326 
L 507.008646 392.518568 
L 507.219445 407.052915 
L 507.430244 392.518568 
L 507.641043 415.115081 
L 507.851842 419.024577 
L 508.062641 373.139439 
L 508.27344 373.214262 
L 508.484239 378.133867 
L 508.695038 402.470012 
L 508.905837 377.759752 
L 509.116636 331.874614 
L 509.327435 325.084437 
L 509.538234 327.422652 
L 509.959832 366.255733 
L 510.170631 341.321004 
L 510.38143 362.271414 
L 510.592229 358.361918 
L 510.803028 361.186482 
L 511.013827 303.797324 
L 511.224626 303.797324 
L 511.435425 288.308985 
L 511.646224 328.713347 
L 511.857023 324.747734 
L 512.067822 316.124395 
L 512.278621 295.173986 
L 512.48942 298.91513 
L 512.700219 295.866097 
L 512.911018 262.682145 
L 513.121817 284.829721 
L 513.332616 284.829721 
L 513.754214 366.293144 
L 513.965013 386.065093 
L 514.175812 386.065093 
L 514.386611 411.261702 
L 514.59741 374.579779 
L 514.808209 378.320924 
L 515.019008 356.846754 
L 515.229807 400.917437 
L 515.440606 397.774876 
L 515.651405 355.294179 
L 515.862204 358.717326 
L 516.073003 348.167299 
L 516.283802 348.167299 
L 516.494601 361.354833 
L 516.705399 382.829003 
L 516.916198 379.686442 
L 517.126997 333.801303 
L 517.337796 323.251276 
L 517.548595 302.974272 
L 517.970193 302.974272 
L 518.180992 343.939805 
L 518.391791 354.489833 
L 518.813389 311.485376 
L 519.024188 317.246739 
L 519.234987 309.670921 
L 519.445786 314.328646 
L 519.867384 281.125988 
L 520.078183 308.380226 
L 520.288982 297.830198 
L 520.499781 301.571343 
L 520.71058 268.38739 
L 521.132178 356.753225 
L 521.342977 369.865937 
L 521.553776 327.38524 
L 521.764575 337.467625 
L 521.975374 368.687477 
L 522.186173 348.410473 
L 522.607771 359.521672 
L 522.81857 380.060556 
L 523.240168 392.200571 
L 523.661766 348.410473 
L 523.872565 354.863947 
L 524.083364 375.140951 
L 524.294163 362.028239 
L 524.504962 375.140951 
L 524.715761 362.028239 
L 524.92656 369.529234 
L 525.137359 357.763335 
L 525.348158 359.147558 
L 525.558957 379.424562 
L 525.769756 373.457436 
L 525.980555 420.764209 
L 526.191354 402.694481 
L 526.823751 402.694481 
L 527.03455 379.705148 
L 527.245349 375.178363 
L 527.456148 375.178363 
L 527.666947 408.362315 
L 527.877746 408.362315 
L 528.088545 364.291632 
L 528.510143 364.291632 
L 528.720942 373.663199 
L 528.931741 373.663199 
L 529.14254 438.833938 
L 529.353339 435.429496 
L 529.774937 401.908841 
L 529.985736 405.649985 
L 530.196535 400.692969 
L 530.407334 379.742559 
L 530.618133 335.671876 
L 530.828932 353.741604 
L 531.039731 311.148673 
L 531.25053 311.148673 
L 531.461329 311.822079 
L 531.672128 397.569113 
L 531.882927 394.426552 
L 532.093726 397.569113 
L 532.304525 397.569113 
L 532.515324 375.253186 
L 532.726123 396.259712 
L 532.936922 402.226838 
L 533.147721 371.231455 
L 533.35852 402.226838 
L 533.569319 391.67681 
L 533.780118 391.67681 
L 533.990917 389.076715 
L 534.201716 368.126305 
L 534.412515 364.38516 
L 534.623314 406.978092 
L 534.834113 406.978092 
L 535.044912 420.577152 
L 535.255711 400.244031 
L 535.46651 407.595381 
L 535.677309 382.398772 
L 535.888108 407.595381 
L 536.309706 367.153607 
L 536.520505 382.660652 
L 536.731304 357.464043 
L 537.152902 357.464043 
L 537.363701 362.308825 
L 537.785299 306.603182 
L 537.996098 306.603182 
L 538.206897 273.41923 
L 538.417696 270.276668 
L 538.628495 313.225008 
L 538.839294 312.252311 
L 539.050093 268.181627 
L 539.260892 268.181627 
L 539.471691 250.111899 
L 539.68249 295.454571 
L 539.893289 306.042011 
L 540.104088 306.042011 
L 540.314887 287.354993 
L 540.947284 287.354993 
L 541.158083 290.497555 
L 541.368882 300.168414 
L 541.579681 331.163796 
L 541.79048 331.163796 
L 542.001279 354.67689 
L 542.212078 354.67689 
L 542.422877 353.76031 
L 542.844475 353.76031 
L 543.055274 317.078387 
L 543.266073 319.023782 
L 543.476872 319.023782 
L 543.687671 331.724968 
L 543.89847 364.908921 
L 544.109269 339.992898 
L 544.320068 338.309383 
L 544.741666 302.618863 
L 544.952465 289.506151 
L 545.163264 289.506151 
L 545.374063 282.005157 
L 546.00646 282.005157 
L 546.217259 332.8099 
L 546.428058 338.795731 
L 546.638857 307.800349 
L 546.849656 318.350376 
L 547.060455 274.279693 
L 547.271254 302.394395 
L 547.482053 256.004202 
L 547.692852 270.164434 
L 547.903651 267.021872 
L 548.11445 291.956601 
L 548.325249 273.886873 
L 548.536048 277.029434 
L 548.957646 232.042171 
L 549.168445 263.037553 
L 549.379244 239.52446 
L 549.590043 236.381898 
L 550.011641 236.381898 
L 550.22244 240.141749 
L 550.433239 253.104815 
L 550.644038 210.511883 
L 550.854837 230.788887 
L 551.065636 277.17908 
L 551.487234 237.429419 
L 551.698033 250.972362 
L 552.119631 349.794697 
L 552.33043 377.610107 
L 552.962827 263.673548 
L 553.173626 263.673548 
L 553.384425 274.223576 
L 553.595224 274.223576 
L 553.806023 345.380146 
L 554.016822 302.787215 
L 554.227621 335.971167 
L 555.070817 335.971167 
L 555.281616 332.230023 
L 555.703214 332.230023 
L 555.914013 368.911945 
L 556.335611 338.75832 
L 556.54641 364.927626 
L 556.757209 349.420582 
L 556.968008 350.1314 
L 557.178807 321.436821 
L 557.389606 275.551682 
L 557.600405 275.551682 
L 557.811204 271.997595 
L 558.232802 378.657627 
L 558.443601 385.447805 
L 558.6544 403.517533 
L 558.865199 394.894195 
L 559.075998 409.428541 
L 559.286797 371.661687 
L 559.497596 369.099003 
L 559.708395 344.388743 
L 559.919194 369.585351 
L 560.129993 369.061591 
L 560.340792 369.491823 
L 560.551591 348.391767 
L 560.76239 358.885678 
L 560.973189 310.924204 
L 561.183988 310.924204 
L 561.605586 267.526927 
L 561.816385 297.175498 
L 562.027184 276.13156 
L 562.237983 334.100595 
L 562.659581 334.100595 
L 562.87038 291.507664 
L 563.291978 291.507664 
L 563.502777 295.41716 
L 563.713576 282.304448 
L 563.924375 238.233765 
L 564.345973 238.233765 
L 564.556772 225.326816 
L 564.767571 225.326816 
L 564.97837 218.349581 
L 565.189169 239.39352 
L 565.399968 193.003327 
L 565.610767 193.003327 
L 565.821566 189.262182 
L 566.243164 189.262182 
L 566.453963 233.332865 
L 566.664762 246.445577 
L 567.08636 177.664634 
L 567.297159 156.620696 
L 567.718757 156.620696 
L 567.929556 201.252551 
L 568.140355 168.311772 
L 568.351154 168.311772 
L 568.772752 223.549772 
L 568.983551 219.808628 
L 569.19435 240.83386 
L 571.091541 240.83386 
L 571.30234 284.904544 
L 571.934737 284.904544 
L 572.145535 288.439925 
L 572.356334 255.255973 
L 572.567133 244.705945 
L 573.19953 244.705945 
L 573.410329 270.31408 
L 573.621128 316.124395 
L 573.831927 270.31408 
L 574.464324 270.31408 
L 574.675123 303.498032 
L 574.885922 259.427349 
L 575.096721 270.31408 
L 575.30752 259.5957 
L 575.729118 259.5957 
L 575.939917 270.31408 
L 576.150716 316.124395 
L 576.361515 285.129012 
L 576.572314 277.777663 
L 576.783113 235.184732 
L 577.41551 235.184732 
L 577.626309 242.536081 
L 577.837108 234.024977 
L 578.047907 270.7069 
L 578.258706 270.7069 
L 578.469505 309.109749 
L 579.101902 309.109749 
L 579.312701 325.851371 
L 579.5235 298.52231 
L 579.734299 298.52231 
L 579.945098 321.455526 
L 580.155897 295.847392 
L 580.366696 253.366695 
L 580.999093 253.366695 
L 581.209892 271.436423 
L 581.420691 251.159419 
L 582.053088 251.159419 
L 582.263887 251.383888 
L 582.685485 251.383888 
L 582.896284 230.845004 
L 583.107083 197.661052 
L 583.317882 197.661052 
L 583.528681 218.611461 
L 583.73948 208.061434 
L 583.950279 208.061434 
L 584.161078 247.100278 
L 584.371877 235.390495 
L 584.582676 235.390495 
L 584.793475 225.981516 
L 585.004274 235.278261 
L 585.636671 235.278261 
L 585.84747 232.135699 
L 586.479867 232.135699 
L 586.690666 247.455686 
L 586.901465 290.048617 
L 587.112264 264.852009 
L 587.744661 264.852009 
L 587.95546 268.593153 
L 588.166259 279.143181 
L 588.377058 299.420185 
L 588.587857 299.420185 
L 588.798656 280.359053 
L 589.009455 280.359053 
L 589.220254 335.110704 
L 589.431053 329.798279 
L 589.641852 309.521275 
L 589.852651 266.928344 
L 590.06345 266.928344 
L 590.274249 282.435388 
L 590.695847 242.872784 
L 591.117445 242.872784 
L 591.328244 263.149788 
L 591.539043 263.149788 
L 591.749842 259.408643 
L 591.960641 357.464043 
L 592.17144 357.464043 
L 592.382239 400.056974 
L 592.593038 403.798119 
L 592.803837 403.798119 
L 593.014636 367.116196 
L 593.225435 367.116196 
L 593.647033 309.708332 
L 593.857832 309.708332 
L 594.068631 330.752271 
L 594.490229 252.711994 
L 594.911827 217.283355 
L 595.333425 217.283355 
L 595.544224 232.434991 
L 595.965822 232.434991 
L 596.176621 257.369719 
L 596.38742 257.369719 
L 596.598219 273.94299 
L 596.809018 231.462293 
L 597.019817 235.876844 
L 597.230616 236.381898 
L 597.441415 236.381898 
L 597.652214 215.431489 
L 598.073812 215.431489 
L 598.284611 224.054827 
L 598.49541 193.059444 
L 599.971003 193.059444 
L 600.181802 225.70093 
L 600.392601 225.70093 
L 600.6034 217.077592 
L 600.814199 217.077592 
L 601.024998 259.670523 
L 601.235797 259.670523 
L 601.446596 217.189827 
L 601.657395 226.523982 
L 602.078993 226.523982 
L 602.289792 210.418355 
L 602.922189 210.418355 
L 603.132988 194.91131 
L 603.343787 194.91131 
L 603.554586 215.86172 
L 603.765385 197.791992 
L 603.976184 199.980561 
L 605.030179 199.980561 
L 605.240978 206.265684 
L 605.662576 184.510928 
L 607.981365 184.510928 
L 608.192164 180.133789 
L 609.456958 180.133789 
L 609.667757 207.182265 
L 610.089355 207.182265 
L 610.300154 186.905261 
L 610.510953 186.905261 
L 610.721752 165.225328 
L 611.354149 165.225328 
L 611.564948 209.296011 
L 611.775747 205.405221 
L 612.197345 205.405221 
L 612.408144 201.664076 
L 612.829742 201.664076 
L 613.040541 198.783395 
L 613.883737 198.783395 
L 614.094536 211.896107 
L 615.148531 211.896107 
L 615.35933 196.389063 
L 615.991727 196.389063 
L 616.202526 176.336528 
L 616.413325 167.133312 
L 617.888918 167.133312 
L 618.099717 124.540381 
L 619.153712 124.540381 
L 619.364511 145.472085 
L 619.786109 145.472085 
L 619.996908 127.589414 
L 620.840104 127.589414 
L 621.050903 149.250641 
L 621.472501 149.250641 
L 621.6833 128.206702 
L 623.580491 128.206702 
L 623.79129 103.496442 
L 628.007269 103.496442 
L 628.218068 146.145491 
L 628.428867 112.961538 
L 630.326058 112.961538 
L 630.536857 134.005477 
L 632.01245 134.005477 
L 632.223249 112.344249 
L 634.331239 112.344249 
L 634.542038 116.085394 
L 637.282425 116.085394 
L 637.493224 112.942832 
L 638.758018 112.942832 
L 638.968817 116.085394 
L 639.179616 116.085394 
L 639.390415 105.535366 
L 646.346782 105.535366 
L 646.557581 109.968623 
L 650.351963 109.968623 
L 650.562762 106.826061 
L 652.459953 106.826061 
L 652.670752 102.392805 
L 656.465134 102.392805 
L 656.675933 124.054032 
L 656.886732 124.054032 
L 657.097531 103.777028 
L 664.475496 103.777028 
L 664.686295 102.392805 
L 668.691476 102.392805 
L 668.902275 106.059126 
L 674.593848 106.059126 
L 674.804647 109.201688 
L 675.226245 109.201688 
L 675.437044 106.059126 
L 676.912637 106.059126 
L 677.123436 102.392805 
L 720.126431 102.392805 
L 720.33723 95.80839 
L 726.239602 95.80839 
L 726.450401 92.665829 
L 817.937165 92.665829 
L 818.147964 88.887273 
L 871.690909 88.887273 
L 871.690909 88.887273 
" style="fill:none;stroke:#8dd3c7;stroke-linecap:square;stroke-width:1.5;"/>
   </g>
   <g id="line2d_15">
    <path clip-path="url(#p8d82e4c145)" d="M 161.509091 318.051085 
L 161.930689 282.042568 
L 187.437367 282.042568 
L 187.648166 278.207895 
L 194.815332 278.207895 
L 195.026131 273.587581 
L 239.50472 273.587581 
L 239.715518 272.390415 
L 242.034307 272.390415 
L 242.245106 256.434433 
L 242.877503 247.04416 
L 243.088302 244.144773 
L 266.486991 244.144773 
L 266.69779 233.145808 
L 480.026374 233.145808 
L 480.447972 224.971407 
L 550.433239 224.971407 
L 550.644038 210.511883 
L 565.189169 210.511883 
L 565.399968 193.003327 
L 565.610767 193.003327 
L 565.821566 189.262182 
L 566.875561 189.262182 
L 567.08636 177.664634 
L 567.297159 156.620696 
L 617.888918 156.620696 
L 618.099717 124.540381 
L 623.580491 124.540381 
L 623.79129 103.496442 
L 652.459953 103.496442 
L 652.670752 102.392805 
L 720.126431 102.392805 
L 720.33723 95.80839 
L 726.239602 95.80839 
L 726.450401 92.665829 
L 817.937165 92.665829 
L 818.147964 88.887273 
L 871.690909 88.887273 
L 871.690909 88.887273 
" style="fill:none;stroke:#feffb3;stroke-linecap:square;stroke-width:1.5;"/>
   </g>
   <g id="line2d_16">
    <path clip-path="url(#p8d82e4c145)" d="M 161.509091 367.905578 
L 163.406282 367.905578 
L 163.617081 374.69974 
L 165.514272 374.69974 
L 165.725071 381.097086 
L 167.622262 381.097086 
L 167.833061 387.12079 
L 169.730252 387.12079 
L 169.941051 392.792676 
L 171.838242 392.792676 
L 172.049041 398.133291 
L 173.946232 398.133291 
L 174.157031 403.161985 
L 176.054222 403.161985 
L 176.265021 407.896974 
L 178.162212 407.896974 
L 178.373011 412.355413 
L 180.270202 412.355413 
L 180.481001 416.553455 
L 182.378192 416.553455 
L 182.588991 420.506307 
L 184.486181 420.506307 
L 184.69698 424.22829 
L 186.594171 424.22829 
L 186.80497 427.732888 
L 188.702161 427.732888 
L 188.91296 431.032798 
L 190.810151 431.032798 
L 191.02095 434.139974 
L 192.918141 434.139974 
L 193.12894 437.065674 
L 195.026131 437.065674 
L 195.23693 439.820496 
L 197.134121 439.820496 
L 197.34492 442.414422 
L 199.242111 442.414422 
L 199.45291 444.856847 
L 201.350101 444.856847 
L 201.5609 447.156621 
L 203.458091 447.156621 
L 203.66889 449.322075 
L 205.566081 449.322075 
L 205.77688 451.361054 
L 207.674071 451.361054 
L 207.88487 453.280946 
L 209.782061 453.280946 
L 209.99286 455.088705 
L 211.890051 455.088705 
L 212.10085 456.79088 
L 213.998041 456.79088 
L 214.20884 458.393639 
L 216.106031 458.393639 
L 216.31683 459.902788 
L 218.214021 459.902788 
L 218.42482 461.323794 
L 220.322011 461.323794 
L 220.53281 462.661805 
L 222.430001 462.661805 
L 222.6408 463.921669 
L 224.537991 463.921669 
L 224.74879 465.107949 
L 226.645981 465.107949 
L 226.85678 466.224944 
L 228.753971 466.224944 
L 228.96477 467.276701 
L 230.861961 467.276701 
L 231.07276 468.267028 
L 232.969951 468.267028 
L 233.18075 469.199515 
L 235.077941 469.199515 
L 235.28874 470.07754 
L 237.185931 470.07754 
L 237.39673 470.904283 
L 239.293921 470.904283 
L 239.50472 471.682739 
L 241.40191 471.682739 
L 241.612709 472.41573 
L 243.5099 472.41573 
L 243.720699 473.105909 
L 245.61789 473.105909 
L 245.828689 473.755778 
L 247.72588 473.755778 
L 247.936679 474.367691 
L 249.83387 474.367691 
L 250.044669 474.943865 
L 251.94186 474.943865 
L 252.152659 475.486387 
L 254.04985 475.486387 
L 254.260649 475.997223 
L 256.15784 475.997223 
L 256.368639 476.478223 
L 258.26583 476.478223 
L 258.476629 476.93113 
L 260.37382 476.93113 
L 260.584619 477.357584 
L 262.48181 477.357584 
L 262.692609 477.759131 
L 264.5898 477.759131 
L 264.800599 478.137226 
L 266.69779 478.137226 
L 266.908589 478.493238 
L 268.80578 478.493238 
L 269.016579 478.828456 
L 270.91377 478.828456 
L 271.124569 479.144096 
L 273.02176 479.144096 
L 273.232559 479.441301 
L 275.12975 479.441301 
L 275.340549 479.721147 
L 277.23774 479.721147 
L 277.448539 479.984649 
L 279.34573 479.984649 
L 279.556529 480.232761 
L 281.45372 480.232761 
L 281.664519 480.466382 
L 283.56171 480.466382 
L 283.772509 480.686358 
L 285.6697 480.686358 
L 285.880499 480.893486 
L 287.77769 480.893486 
L 287.988489 481.088516 
L 289.88568 481.088516 
L 290.096479 481.272156 
L 291.99367 481.272156 
L 292.204469 481.44507 
L 294.10166 481.44507 
L 294.312459 481.607885 
L 296.209649 481.607885 
L 296.420448 481.761191 
L 298.317639 481.761191 
L 298.528438 481.905542 
L 300.425629 481.905542 
L 300.636428 482.041463 
L 302.533619 482.041463 
L 302.955217 482.169445 
L 304.641609 482.169445 
L 305.063207 482.289953 
L 306.749599 482.289953 
L 307.171197 482.403422 
L 310.965579 482.510263 
L 311.387177 482.610865 
L 315.181559 482.705591 
L 315.603157 482.794784 
L 319.397539 482.878768 
L 319.819137 482.957847 
L 323.613519 483.032307 
L 324.035117 483.102419 
L 327.829499 483.168435 
L 328.251097 483.230596 
L 332.045479 483.289126 
L 332.677876 483.344238 
L 338.369449 483.444992 
L 339.001846 483.491001 
L 344.693419 483.575113 
L 345.325816 483.613521 
L 353.125378 483.715803 
L 353.968574 483.745994 
L 363.665328 483.850126 
L 364.930122 483.872472 
L 378.421258 483.981658 
L 380.10765 483.996322 
L 401.609148 484.10322 
L 404.981932 484.117906 
L 525.980555 484.22901 
L 637.282425 484.232574 
L 871.690909 484.232727 
L 871.690909 484.232727 
" style="fill:none;stroke:#bfbbd9;stroke-linecap:square;stroke-width:1.5;"/>
   </g>
   <g id="patch_3">
    <path d="M 126 504 
L 126 69.12 
" style="fill:none;stroke:#ffffff;stroke-linecap:square;stroke-linejoin:miter;stroke-width:0.8;"/>
   </g>
   <g id="patch_4">
    <path d="M 907.2 504 
L 907.2 69.12 
" style="fill:none;stroke:#ffffff;stroke-linecap:square;stroke-linejoin:miter;stroke-width:0.8;"/>
   </g>
   <g id="patch_5">
    <path d="M 126 504 
L 907.2 504 
" style="fill:none;stroke:#ffffff;stroke-linecap:square;stroke-linejoin:miter;stroke-width:0.8;"/>
   </g>
   <g id="patch_6">
    <path d="M 126 69.12 
L 907.2 69.12 
" style="fill:none;stroke:#ffffff;stroke-linecap:square;stroke-linejoin:miter;stroke-width:0.8;"/>
   </g>
   <g id="text_15">
    <!-- instance 5 with error 0.016336218933258873 -->
    <g style="fill:#ffffff;" transform="translate(378.046875 63.12)scale(0.12 -0.12)">
     <defs>
      <path d="M 2834 3397 
L 2834 2853 
Q 2591 2978 2328 3040 
Q 2066 3103 1784 3103 
Q 1356 3103 1142 2972 
Q 928 2841 928 2578 
Q 928 2378 1081 2264 
Q 1234 2150 1697 2047 
L 1894 2003 
Q 2506 1872 2764 1633 
Q 3022 1394 3022 966 
Q 3022 478 2636 193 
Q 2250 -91 1575 -91 
Q 1294 -91 989 -36 
Q 684 19 347 128 
L 347 722 
Q 666 556 975 473 
Q 1284 391 1588 391 
Q 1994 391 2212 530 
Q 2431 669 2431 922 
Q 2431 1156 2273 1281 
Q 2116 1406 1581 1522 
L 1381 1569 
Q 847 1681 609 1914 
Q 372 2147 372 2553 
Q 372 3047 722 3315 
Q 1072 3584 1716 3584 
Q 2034 3584 2315 3537 
Q 2597 3491 2834 3397 
z
" id="DejaVuSans-73" transform="scale(0.015625)"/>
      <path d="M 3122 3366 
L 3122 2828 
Q 2878 2963 2633 3030 
Q 2388 3097 2138 3097 
Q 1578 3097 1268 2742 
Q 959 2388 959 1747 
Q 959 1106 1268 751 
Q 1578 397 2138 397 
Q 2388 397 2633 464 
Q 2878 531 3122 666 
L 3122 134 
Q 2881 22 2623 -34 
Q 2366 -91 2075 -91 
Q 1284 -91 818 406 
Q 353 903 353 1747 
Q 353 2603 823 3093 
Q 1294 3584 2113 3584 
Q 2378 3584 2631 3529 
Q 2884 3475 3122 3366 
z
" id="DejaVuSans-63" transform="scale(0.015625)"/>
      <path id="DejaVuSans-20" transform="scale(0.015625)"/>
      <path d="M 269 3500 
L 844 3500 
L 1563 769 
L 2278 3500 
L 2956 3500 
L 3675 769 
L 4391 3500 
L 4966 3500 
L 4050 0 
L 3372 0 
L 2619 2869 
L 1863 0 
L 1184 0 
L 269 3500 
z
" id="DejaVuSans-77" transform="scale(0.015625)"/>
      <path d="M 3513 2113 
L 3513 0 
L 2938 0 
L 2938 2094 
Q 2938 2591 2744 2837 
Q 2550 3084 2163 3084 
Q 1697 3084 1428 2787 
Q 1159 2491 1159 1978 
L 1159 0 
L 581 0 
L 581 4863 
L 1159 4863 
L 1159 2956 
Q 1366 3272 1645 3428 
Q 1925 3584 2291 3584 
Q 2894 3584 3203 3211 
Q 3513 2838 3513 2113 
z
" id="DejaVuSans-68" transform="scale(0.015625)"/>
      <path d="M 684 794 
L 1344 794 
L 1344 0 
L 684 0 
L 684 794 
z
" id="DejaVuSans-2e" transform="scale(0.015625)"/>
      <path d="M 2113 2584 
Q 1688 2584 1439 2293 
Q 1191 2003 1191 1497 
Q 1191 994 1439 701 
Q 1688 409 2113 409 
Q 2538 409 2786 701 
Q 3034 994 3034 1497 
Q 3034 2003 2786 2293 
Q 2538 2584 2113 2584 
z
M 3366 4563 
L 3366 3988 
Q 3128 4100 2886 4159 
Q 2644 4219 2406 4219 
Q 1781 4219 1451 3797 
Q 1122 3375 1075 2522 
Q 1259 2794 1537 2939 
Q 1816 3084 2150 3084 
Q 2853 3084 3261 2657 
Q 3669 2231 3669 1497 
Q 3669 778 3244 343 
Q 2819 -91 2113 -91 
Q 1303 -91 875 529 
Q 447 1150 447 2328 
Q 447 3434 972 4092 
Q 1497 4750 2381 4750 
Q 2619 4750 2861 4703 
Q 3103 4656 3366 4563 
z
" id="DejaVuSans-36" transform="scale(0.015625)"/>
      <path d="M 2034 2216 
Q 1584 2216 1326 1975 
Q 1069 1734 1069 1313 
Q 1069 891 1326 650 
Q 1584 409 2034 409 
Q 2484 409 2743 651 
Q 3003 894 3003 1313 
Q 3003 1734 2745 1975 
Q 2488 2216 2034 2216 
z
M 1403 2484 
Q 997 2584 770 2862 
Q 544 3141 544 3541 
Q 544 4100 942 4425 
Q 1341 4750 2034 4750 
Q 2731 4750 3128 4425 
Q 3525 4100 3525 3541 
Q 3525 3141 3298 2862 
Q 3072 2584 2669 2484 
Q 3125 2378 3379 2068 
Q 3634 1759 3634 1313 
Q 3634 634 3220 271 
Q 2806 -91 2034 -91 
Q 1263 -91 848 271 
Q 434 634 434 1313 
Q 434 1759 690 2068 
Q 947 2378 1403 2484 
z
M 1172 3481 
Q 1172 3119 1398 2916 
Q 1625 2713 2034 2713 
Q 2441 2713 2670 2916 
Q 2900 3119 2900 3481 
Q 2900 3844 2670 4047 
Q 2441 4250 2034 4250 
Q 1625 4250 1398 4047 
Q 1172 3844 1172 3481 
z
" id="DejaVuSans-38" transform="scale(0.015625)"/>
      <path d="M 703 97 
L 703 672 
Q 941 559 1184 500 
Q 1428 441 1663 441 
Q 2288 441 2617 861 
Q 2947 1281 2994 2138 
Q 2813 1869 2534 1725 
Q 2256 1581 1919 1581 
Q 1219 1581 811 2004 
Q 403 2428 403 3163 
Q 403 3881 828 4315 
Q 1253 4750 1959 4750 
Q 2769 4750 3195 4129 
Q 3622 3509 3622 2328 
Q 3622 1225 3098 567 
Q 2575 -91 1691 -91 
Q 1453 -91 1209 -44 
Q 966 3 703 97 
z
M 1959 2075 
Q 2384 2075 2632 2365 
Q 2881 2656 2881 3163 
Q 2881 3666 2632 3958 
Q 2384 4250 1959 4250 
Q 1534 4250 1286 3958 
Q 1038 3666 1038 3163 
Q 1038 2656 1286 2365 
Q 1534 2075 1959 2075 
z
" id="DejaVuSans-39" transform="scale(0.015625)"/>
      <path d="M 525 4666 
L 3525 4666 
L 3525 4397 
L 1831 0 
L 1172 0 
L 2766 4134 
L 525 4134 
L 525 4666 
z
" id="DejaVuSans-37" transform="scale(0.015625)"/>
     </defs>
     <use xlink:href="#DejaVuSans-69"/>
     <use x="27.783203" xlink:href="#DejaVuSans-6e"/>
     <use x="91.162109" xlink:href="#DejaVuSans-73"/>
     <use x="143.261719" xlink:href="#DejaVuSans-74"/>
     <use x="182.470703" xlink:href="#DejaVuSans-61"/>
     <use x="243.75" xlink:href="#DejaVuSans-6e"/>
     <use x="307.128906" xlink:href="#DejaVuSans-63"/>
     <use x="362.109375" xlink:href="#DejaVuSans-65"/>
     <use x="423.632812" xlink:href="#DejaVuSans-20"/>
     <use x="455.419922" xlink:href="#DejaVuSans-35"/>
     <use x="519.042969" xlink:href="#DejaVuSans-20"/>
     <use x="550.830078" xlink:href="#DejaVuSans-77"/>
     <use x="632.617188" xlink:href="#DejaVuSans-69"/>
     <use x="660.400391" xlink:href="#DejaVuSans-74"/>
     <use x="699.609375" xlink:href="#DejaVuSans-68"/>
     <use x="762.988281" xlink:href="#DejaVuSans-20"/>
     <use x="794.775391" xlink:href="#DejaVuSans-65"/>
     <use x="856.298828" xlink:href="#DejaVuSans-72"/>
     <use x="895.662109" xlink:href="#DejaVuSans-72"/>
     <use x="934.525391" xlink:href="#DejaVuSans-6f"/>
     <use x="995.707031" xlink:href="#DejaVuSans-72"/>
     <use x="1036.820312" xlink:href="#DejaVuSans-20"/>
     <use x="1068.607422" xlink:href="#DejaVuSans-30"/>
     <use x="1132.230469" xlink:href="#DejaVuSans-2e"/>
     <use x="1164.017578" xlink:href="#DejaVuSans-30"/>
     <use x="1227.640625" xlink:href="#DejaVuSans-31"/>
     <use x="1291.263672" xlink:href="#DejaVuSans-36"/>
     <use x="1354.886719" xlink:href="#DejaVuSans-33"/>
     <use x="1418.509766" xlink:href="#DejaVuSans-33"/>
     <use x="1482.132812" xlink:href="#DejaVuSans-36"/>
     <use x="1545.755859" xlink:href="#DejaVuSans-32"/>
     <use x="1609.378906" xlink:href="#DejaVuSans-31"/>
     <use x="1673.001953" xlink:href="#DejaVuSans-38"/>
     <use x="1736.625" xlink:href="#DejaVuSans-39"/>
     <use x="1800.248047" xlink:href="#DejaVuSans-33"/>
     <use x="1863.871094" xlink:href="#DejaVuSans-33"/>
     <use x="1927.494141" xlink:href="#DejaVuSans-32"/>
     <use x="1991.117188" xlink:href="#DejaVuSans-35"/>
     <use x="2054.740234" xlink:href="#DejaVuSans-38"/>
     <use x="2118.363281" xlink:href="#DejaVuSans-38"/>
     <use x="2181.986328" xlink:href="#DejaVuSans-37"/>
     <use x="2245.609375" xlink:href="#DejaVuSans-33"/>
    </g>
   </g>
   <g id="legend_1">
    <g id="patch_7">
     <path d="M 805.348438 499 
L 900.2 499 
Q 902.2 499 902.2 497 
L 902.2 453.965625 
Q 902.2 451.965625 900.2 451.965625 
L 805.348438 451.965625 
Q 803.348438 451.965625 803.348438 453.965625 
L 803.348438 497 
Q 803.348438 499 805.348438 499 
z
" style="opacity:0.8;stroke:#cccccc;stroke-linejoin:miter;"/>
    </g>
    <g id="line2d_17">
     <path d="M 807.348438 460.064062 
L 827.348438 460.064062 
" style="fill:none;stroke:#8dd3c7;stroke-linecap:square;stroke-width:1.5;"/>
    </g>
    <g id="line2d_18"/>
    <g id="text_16">
     <!-- cost -->
     <g style="fill:#ffffff;" transform="translate(835.348438 463.564062)scale(0.1 -0.1)">
      <use xlink:href="#DejaVuSans-63"/>
      <use x="54.980469" xlink:href="#DejaVuSans-6f"/>
      <use x="116.162109" xlink:href="#DejaVuSans-73"/>
      <use x="168.261719" xlink:href="#DejaVuSans-74"/>
     </g>
    </g>
    <g id="line2d_19">
     <path d="M 807.348438 474.742188 
L 827.348438 474.742188 
" style="fill:none;stroke:#feffb3;stroke-linecap:square;stroke-width:1.5;"/>
    </g>
    <g id="line2d_20"/>
    <g id="text_17">
     <!-- best cost -->
     <g style="fill:#ffffff;" transform="translate(835.348438 478.242188)scale(0.1 -0.1)">
      <defs>
       <path d="M 3116 1747 
Q 3116 2381 2855 2742 
Q 2594 3103 2138 3103 
Q 1681 3103 1420 2742 
Q 1159 2381 1159 1747 
Q 1159 1113 1420 752 
Q 1681 391 2138 391 
Q 2594 391 2855 752 
Q 3116 1113 3116 1747 
z
M 1159 2969 
Q 1341 3281 1617 3432 
Q 1894 3584 2278 3584 
Q 2916 3584 3314 3078 
Q 3713 2572 3713 1747 
Q 3713 922 3314 415 
Q 2916 -91 2278 -91 
Q 1894 -91 1617 61 
Q 1341 213 1159 525 
L 1159 0 
L 581 0 
L 581 4863 
L 1159 4863 
L 1159 2969 
z
" id="DejaVuSans-62" transform="scale(0.015625)"/>
      </defs>
      <use xlink:href="#DejaVuSans-62"/>
      <use x="63.476562" xlink:href="#DejaVuSans-65"/>
      <use x="125" xlink:href="#DejaVuSans-73"/>
      <use x="177.099609" xlink:href="#DejaVuSans-74"/>
      <use x="216.308594" xlink:href="#DejaVuSans-20"/>
      <use x="248.095703" xlink:href="#DejaVuSans-63"/>
      <use x="303.076172" xlink:href="#DejaVuSans-6f"/>
      <use x="364.257812" xlink:href="#DejaVuSans-73"/>
      <use x="416.357422" xlink:href="#DejaVuSans-74"/>
     </g>
    </g>
    <g id="line2d_21">
     <path d="M 807.348438 489.420313 
L 827.348438 489.420313 
" style="fill:none;stroke:#bfbbd9;stroke-linecap:square;stroke-width:1.5;"/>
    </g>
    <g id="line2d_22"/>
    <g id="text_18">
     <!-- temperature -->
     <g style="fill:#ffffff;" transform="translate(835.348438 492.920313)scale(0.1 -0.1)">
      <defs>
       <path d="M 3328 2828 
Q 3544 3216 3844 3400 
Q 4144 3584 4550 3584 
Q 5097 3584 5394 3201 
Q 5691 2819 5691 2113 
L 5691 0 
L 5113 0 
L 5113 2094 
Q 5113 2597 4934 2840 
Q 4756 3084 4391 3084 
Q 3944 3084 3684 2787 
Q 3425 2491 3425 1978 
L 3425 0 
L 2847 0 
L 2847 2094 
Q 2847 2600 2669 2842 
Q 2491 3084 2119 3084 
Q 1678 3084 1418 2786 
Q 1159 2488 1159 1978 
L 1159 0 
L 581 0 
L 581 3500 
L 1159 3500 
L 1159 2956 
Q 1356 3278 1631 3431 
Q 1906 3584 2284 3584 
Q 2666 3584 2933 3390 
Q 3200 3197 3328 2828 
z
" id="DejaVuSans-6d" transform="scale(0.015625)"/>
       <path d="M 1159 525 
L 1159 -1331 
L 581 -1331 
L 581 3500 
L 1159 3500 
L 1159 2969 
Q 1341 3281 1617 3432 
Q 1894 3584 2278 3584 
Q 2916 3584 3314 3078 
Q 3713 2572 3713 1747 
Q 3713 922 3314 415 
Q 2916 -91 2278 -91 
Q 1894 -91 1617 61 
Q 1341 213 1159 525 
z
M 3116 1747 
Q 3116 2381 2855 2742 
Q 2594 3103 2138 3103 
Q 1681 3103 1420 2742 
Q 1159 2381 1159 1747 
Q 1159 1113 1420 752 
Q 1681 391 2138 391 
Q 2594 391 2855 752 
Q 3116 1113 3116 1747 
z
" id="DejaVuSans-70" transform="scale(0.015625)"/>
       <path d="M 544 1381 
L 544 3500 
L 1119 3500 
L 1119 1403 
Q 1119 906 1312 657 
Q 1506 409 1894 409 
Q 2359 409 2629 706 
Q 2900 1003 2900 1516 
L 2900 3500 
L 3475 3500 
L 3475 0 
L 2900 0 
L 2900 538 
Q 2691 219 2414 64 
Q 2138 -91 1772 -91 
Q 1169 -91 856 284 
Q 544 659 544 1381 
z
M 1991 3584 
L 1991 3584 
z
" id="DejaVuSans-75" transform="scale(0.015625)"/>
      </defs>
      <use xlink:href="#DejaVuSans-74"/>
      <use x="39.208984" xlink:href="#DejaVuSans-65"/>
      <use x="100.732422" xlink:href="#DejaVuSans-6d"/>
      <use x="198.144531" xlink:href="#DejaVuSans-70"/>
      <use x="261.621094" xlink:href="#DejaVuSans-65"/>
      <use x="323.144531" xlink:href="#DejaVuSans-72"/>
      <use x="364.257812" xlink:href="#DejaVuSans-61"/>
      <use x="425.537109" xlink:href="#DejaVuSans-74"/>
      <use x="464.746094" xlink:href="#DejaVuSans-75"/>
      <use x="528.125" xlink:href="#DejaVuSans-72"/>
      <use x="566.988281" xlink:href="#DejaVuSans-65"/>
     </g>
    </g>
   </g>
  </g>
 </g>
 <defs>
  <clipPath id="p8d82e4c145">
   <rect height="434.88" width="781.2" x="126" y="69.12"/>
  </clipPath>
 </defs>
</svg>
