<?xml version="1.0" encoding="utf-8" standalone="no"?>
<!DOCTYPE svg PUBLIC "-//W3C//DTD SVG 1.1//EN"
  "http://www.w3.org/Graphics/SVG/1.1/DTD/svg11.dtd">
<svg height="576pt" version="1.1" viewBox="0 0 1008 576" width="1008pt" xmlns="http://www.w3.org/2000/svg" xmlns:xlink="http://www.w3.org/1999/xlink">
 <metadata>
  <rdf:RDF xmlns:cc="http://creativecommons.org/ns#" xmlns:dc="http://purl.org/dc/elements/1.1/" xmlns:rdf="http://www.w3.org/1999/02/22-rdf-syntax-ns#">
   <cc:Work>
    <dc:type rdf:resource="http://purl.org/dc/dcmitype/StillImage"/>
    <dc:date>2022-01-07T21:26:29.785372</dc:date>
    <dc:format>image/svg+xml</dc:format>
    <dc:creator>
     <cc:Agent>
      <dc:title>Matplotlib v3.4.3, https://matplotlib.org/</dc:title>
     </cc:Agent>
    </dc:creator>
   </cc:Work>
  </rdf:RDF>
 </metadata>
 <defs>
  <style type="text/css">*{stroke-linecap:butt;stroke-linejoin:round;}</style>
 </defs>
 <g id="figure_1">
  <g id="patch_1">
   <path d="M 0 576 
L 1008 576 
L 1008 0 
L 0 0 
z
"/>
  </g>
  <g id="axes_1">
   <g id="patch_2">
    <path d="M 126 504 
L 907.2 504 
L 907.2 69.12 
L 126 69.12 
z
"/>
   </g>
   <g id="matplotlib.axis_1">
    <g id="xtick_1">
     <g id="line2d_1">
      <defs>
       <path d="M 0 0 
L 0 3.5 
" id="m088cc7e184" style="stroke:#ffffff;stroke-width:0.8;"/>
      </defs>
      <g>
       <use style="fill:#ffffff;stroke:#ffffff;stroke-width:0.8;" x="161.509091" xlink:href="#m088cc7e184" y="504"/>
      </g>
     </g>
     <g id="text_1">
      <!-- 0 -->
      <g style="fill:#ffffff;" transform="translate(158.327841 518.598438)scale(0.1 -0.1)">
       <defs>
        <path d="M 2034 4250 
Q 1547 4250 1301 3770 
Q 1056 3291 1056 2328 
Q 1056 1369 1301 889 
Q 1547 409 2034 409 
Q 2525 409 2770 889 
Q 3016 1369 3016 2328 
Q 3016 3291 2770 3770 
Q 2525 4250 2034 4250 
z
M 2034 4750 
Q 2819 4750 3233 4129 
Q 3647 3509 3647 2328 
Q 3647 1150 3233 529 
Q 2819 -91 2034 -91 
Q 1250 -91 836 529 
Q 422 1150 422 2328 
Q 422 3509 836 4129 
Q 1250 4750 2034 4750 
z
" id="DejaVuSans-30" transform="scale(0.015625)"/>
       </defs>
       <use xlink:href="#DejaVuSans-30"/>
      </g>
     </g>
    </g>
    <g id="xtick_2">
     <g id="line2d_2">
      <g>
       <use style="fill:#ffffff;stroke:#ffffff;stroke-width:0.8;" x="301.5844" xlink:href="#m088cc7e184" y="504"/>
      </g>
     </g>
     <g id="text_2">
      <!-- 500 -->
      <g style="fill:#ffffff;" transform="translate(292.04065 518.598438)scale(0.1 -0.1)">
       <defs>
        <path d="M 691 4666 
L 3169 4666 
L 3169 4134 
L 1269 4134 
L 1269 2991 
Q 1406 3038 1543 3061 
Q 1681 3084 1819 3084 
Q 2600 3084 3056 2656 
Q 3513 2228 3513 1497 
Q 3513 744 3044 326 
Q 2575 -91 1722 -91 
Q 1428 -91 1123 -41 
Q 819 9 494 109 
L 494 744 
Q 775 591 1075 516 
Q 1375 441 1709 441 
Q 2250 441 2565 725 
Q 2881 1009 2881 1497 
Q 2881 1984 2565 2268 
Q 2250 2553 1709 2553 
Q 1456 2553 1204 2497 
Q 953 2441 691 2322 
L 691 4666 
z
" id="DejaVuSans-35" transform="scale(0.015625)"/>
       </defs>
       <use xlink:href="#DejaVuSans-35"/>
       <use x="63.623047" xlink:href="#DejaVuSans-30"/>
       <use x="127.246094" xlink:href="#DejaVuSans-30"/>
      </g>
     </g>
    </g>
    <g id="xtick_3">
     <g id="line2d_3">
      <g>
       <use style="fill:#ffffff;stroke:#ffffff;stroke-width:0.8;" x="441.65971" xlink:href="#m088cc7e184" y="504"/>
      </g>
     </g>
     <g id="text_3">
      <!-- 1000 -->
      <g style="fill:#ffffff;" transform="translate(428.93471 518.598438)scale(0.1 -0.1)">
       <defs>
        <path d="M 794 531 
L 1825 531 
L 1825 4091 
L 703 3866 
L 703 4441 
L 1819 4666 
L 2450 4666 
L 2450 531 
L 3481 531 
L 3481 0 
L 794 0 
L 794 531 
z
" id="DejaVuSans-31" transform="scale(0.015625)"/>
       </defs>
       <use xlink:href="#DejaVuSans-31"/>
       <use x="63.623047" xlink:href="#DejaVuSans-30"/>
       <use x="127.246094" xlink:href="#DejaVuSans-30"/>
       <use x="190.869141" xlink:href="#DejaVuSans-30"/>
      </g>
     </g>
    </g>
    <g id="xtick_4">
     <g id="line2d_4">
      <g>
       <use style="fill:#ffffff;stroke:#ffffff;stroke-width:0.8;" x="581.735019" xlink:href="#m088cc7e184" y="504"/>
      </g>
     </g>
     <g id="text_4">
      <!-- 1500 -->
      <g style="fill:#ffffff;" transform="translate(569.010019 518.598438)scale(0.1 -0.1)">
       <use xlink:href="#DejaVuSans-31"/>
       <use x="63.623047" xlink:href="#DejaVuSans-35"/>
       <use x="127.246094" xlink:href="#DejaVuSans-30"/>
       <use x="190.869141" xlink:href="#DejaVuSans-30"/>
      </g>
     </g>
    </g>
    <g id="xtick_5">
     <g id="line2d_5">
      <g>
       <use style="fill:#ffffff;stroke:#ffffff;stroke-width:0.8;" x="721.810328" xlink:href="#m088cc7e184" y="504"/>
      </g>
     </g>
     <g id="text_5">
      <!-- 2000 -->
      <g style="fill:#ffffff;" transform="translate(709.085328 518.598438)scale(0.1 -0.1)">
       <defs>
        <path d="M 1228 531 
L 3431 531 
L 3431 0 
L 469 0 
L 469 531 
Q 828 903 1448 1529 
Q 2069 2156 2228 2338 
Q 2531 2678 2651 2914 
Q 2772 3150 2772 3378 
Q 2772 3750 2511 3984 
Q 2250 4219 1831 4219 
Q 1534 4219 1204 4116 
Q 875 4013 500 3803 
L 500 4441 
Q 881 4594 1212 4672 
Q 1544 4750 1819 4750 
Q 2544 4750 2975 4387 
Q 3406 4025 3406 3419 
Q 3406 3131 3298 2873 
Q 3191 2616 2906 2266 
Q 2828 2175 2409 1742 
Q 1991 1309 1228 531 
z
" id="DejaVuSans-32" transform="scale(0.015625)"/>
       </defs>
       <use xlink:href="#DejaVuSans-32"/>
       <use x="63.623047" xlink:href="#DejaVuSans-30"/>
       <use x="127.246094" xlink:href="#DejaVuSans-30"/>
       <use x="190.869141" xlink:href="#DejaVuSans-30"/>
      </g>
     </g>
    </g>
    <g id="xtick_6">
     <g id="line2d_6">
      <g>
       <use style="fill:#ffffff;stroke:#ffffff;stroke-width:0.8;" x="861.885637" xlink:href="#m088cc7e184" y="504"/>
      </g>
     </g>
     <g id="text_6">
      <!-- 2500 -->
      <g style="fill:#ffffff;" transform="translate(849.160637 518.598438)scale(0.1 -0.1)">
       <use xlink:href="#DejaVuSans-32"/>
       <use x="63.623047" xlink:href="#DejaVuSans-35"/>
       <use x="127.246094" xlink:href="#DejaVuSans-30"/>
       <use x="190.869141" xlink:href="#DejaVuSans-30"/>
      </g>
     </g>
    </g>
    <g id="text_7">
     <!-- iteration -->
     <g style="fill:#ffffff;" transform="translate(495.477344 532.276562)scale(0.1 -0.1)">
      <defs>
       <path d="M 603 3500 
L 1178 3500 
L 1178 0 
L 603 0 
L 603 3500 
z
M 603 4863 
L 1178 4863 
L 1178 4134 
L 603 4134 
L 603 4863 
z
" id="DejaVuSans-69" transform="scale(0.015625)"/>
       <path d="M 1172 4494 
L 1172 3500 
L 2356 3500 
L 2356 3053 
L 1172 3053 
L 1172 1153 
Q 1172 725 1289 603 
Q 1406 481 1766 481 
L 2356 481 
L 2356 0 
L 1766 0 
Q 1100 0 847 248 
Q 594 497 594 1153 
L 594 3053 
L 172 3053 
L 172 3500 
L 594 3500 
L 594 4494 
L 1172 4494 
z
" id="DejaVuSans-74" transform="scale(0.015625)"/>
       <path d="M 3597 1894 
L 3597 1613 
L 953 1613 
Q 991 1019 1311 708 
Q 1631 397 2203 397 
Q 2534 397 2845 478 
Q 3156 559 3463 722 
L 3463 178 
Q 3153 47 2828 -22 
Q 2503 -91 2169 -91 
Q 1331 -91 842 396 
Q 353 884 353 1716 
Q 353 2575 817 3079 
Q 1281 3584 2069 3584 
Q 2775 3584 3186 3129 
Q 3597 2675 3597 1894 
z
M 3022 2063 
Q 3016 2534 2758 2815 
Q 2500 3097 2075 3097 
Q 1594 3097 1305 2825 
Q 1016 2553 972 2059 
L 3022 2063 
z
" id="DejaVuSans-65" transform="scale(0.015625)"/>
       <path d="M 2631 2963 
Q 2534 3019 2420 3045 
Q 2306 3072 2169 3072 
Q 1681 3072 1420 2755 
Q 1159 2438 1159 1844 
L 1159 0 
L 581 0 
L 581 3500 
L 1159 3500 
L 1159 2956 
Q 1341 3275 1631 3429 
Q 1922 3584 2338 3584 
Q 2397 3584 2469 3576 
Q 2541 3569 2628 3553 
L 2631 2963 
z
" id="DejaVuSans-72" transform="scale(0.015625)"/>
       <path d="M 2194 1759 
Q 1497 1759 1228 1600 
Q 959 1441 959 1056 
Q 959 750 1161 570 
Q 1363 391 1709 391 
Q 2188 391 2477 730 
Q 2766 1069 2766 1631 
L 2766 1759 
L 2194 1759 
z
M 3341 1997 
L 3341 0 
L 2766 0 
L 2766 531 
Q 2569 213 2275 61 
Q 1981 -91 1556 -91 
Q 1019 -91 701 211 
Q 384 513 384 1019 
Q 384 1609 779 1909 
Q 1175 2209 1959 2209 
L 2766 2209 
L 2766 2266 
Q 2766 2663 2505 2880 
Q 2244 3097 1772 3097 
Q 1472 3097 1187 3025 
Q 903 2953 641 2809 
L 641 3341 
Q 956 3463 1253 3523 
Q 1550 3584 1831 3584 
Q 2591 3584 2966 3190 
Q 3341 2797 3341 1997 
z
" id="DejaVuSans-61" transform="scale(0.015625)"/>
       <path d="M 1959 3097 
Q 1497 3097 1228 2736 
Q 959 2375 959 1747 
Q 959 1119 1226 758 
Q 1494 397 1959 397 
Q 2419 397 2687 759 
Q 2956 1122 2956 1747 
Q 2956 2369 2687 2733 
Q 2419 3097 1959 3097 
z
M 1959 3584 
Q 2709 3584 3137 3096 
Q 3566 2609 3566 1747 
Q 3566 888 3137 398 
Q 2709 -91 1959 -91 
Q 1206 -91 779 398 
Q 353 888 353 1747 
Q 353 2609 779 3096 
Q 1206 3584 1959 3584 
z
" id="DejaVuSans-6f" transform="scale(0.015625)"/>
       <path d="M 3513 2113 
L 3513 0 
L 2938 0 
L 2938 2094 
Q 2938 2591 2744 2837 
Q 2550 3084 2163 3084 
Q 1697 3084 1428 2787 
Q 1159 2491 1159 1978 
L 1159 0 
L 581 0 
L 581 3500 
L 1159 3500 
L 1159 2956 
Q 1366 3272 1645 3428 
Q 1925 3584 2291 3584 
Q 2894 3584 3203 3211 
Q 3513 2838 3513 2113 
z
" id="DejaVuSans-6e" transform="scale(0.015625)"/>
      </defs>
      <use xlink:href="#DejaVuSans-69"/>
      <use x="27.783203" xlink:href="#DejaVuSans-74"/>
      <use x="66.992188" xlink:href="#DejaVuSans-65"/>
      <use x="128.515625" xlink:href="#DejaVuSans-72"/>
      <use x="169.628906" xlink:href="#DejaVuSans-61"/>
      <use x="230.908203" xlink:href="#DejaVuSans-74"/>
      <use x="270.117188" xlink:href="#DejaVuSans-69"/>
      <use x="297.900391" xlink:href="#DejaVuSans-6f"/>
      <use x="359.082031" xlink:href="#DejaVuSans-6e"/>
     </g>
    </g>
   </g>
   <g id="matplotlib.axis_2">
    <g id="ytick_1">
     <g id="line2d_7">
      <defs>
       <path d="M 0 0 
L -3.5 0 
" id="md2546a3ffc" style="stroke:#ffffff;stroke-width:0.8;"/>
      </defs>
      <g>
       <use style="fill:#ffffff;stroke:#ffffff;stroke-width:0.8;" x="126" xlink:href="#md2546a3ffc" y="484.232727"/>
      </g>
     </g>
     <g id="text_8">
      <!-- 0 -->
      <g style="fill:#ffffff;" transform="translate(112.6375 488.031946)scale(0.1 -0.1)">
       <use xlink:href="#DejaVuSans-30"/>
      </g>
     </g>
    </g>
    <g id="ytick_2">
     <g id="line2d_8">
      <g>
       <use style="fill:#ffffff;stroke:#ffffff;stroke-width:0.8;" x="126" xlink:href="#md2546a3ffc" y="434.07726"/>
      </g>
     </g>
     <g id="text_9">
      <!-- 2500 -->
      <g style="fill:#ffffff;" transform="translate(93.55 437.876479)scale(0.1 -0.1)">
       <use xlink:href="#DejaVuSans-32"/>
       <use x="63.623047" xlink:href="#DejaVuSans-35"/>
       <use x="127.246094" xlink:href="#DejaVuSans-30"/>
       <use x="190.869141" xlink:href="#DejaVuSans-30"/>
      </g>
     </g>
    </g>
    <g id="ytick_3">
     <g id="line2d_9">
      <g>
       <use style="fill:#ffffff;stroke:#ffffff;stroke-width:0.8;" x="126" xlink:href="#md2546a3ffc" y="383.921793"/>
      </g>
     </g>
     <g id="text_10">
      <!-- 5000 -->
      <g style="fill:#ffffff;" transform="translate(93.55 387.721012)scale(0.1 -0.1)">
       <use xlink:href="#DejaVuSans-35"/>
       <use x="63.623047" xlink:href="#DejaVuSans-30"/>
       <use x="127.246094" xlink:href="#DejaVuSans-30"/>
       <use x="190.869141" xlink:href="#DejaVuSans-30"/>
      </g>
     </g>
    </g>
    <g id="ytick_4">
     <g id="line2d_10">
      <g>
       <use style="fill:#ffffff;stroke:#ffffff;stroke-width:0.8;" x="126" xlink:href="#md2546a3ffc" y="333.766326"/>
      </g>
     </g>
     <g id="text_11">
      <!-- 7500 -->
      <g style="fill:#ffffff;" transform="translate(93.55 337.565545)scale(0.1 -0.1)">
       <defs>
        <path d="M 525 4666 
L 3525 4666 
L 3525 4397 
L 1831 0 
L 1172 0 
L 2766 4134 
L 525 4134 
L 525 4666 
z
" id="DejaVuSans-37" transform="scale(0.015625)"/>
       </defs>
       <use xlink:href="#DejaVuSans-37"/>
       <use x="63.623047" xlink:href="#DejaVuSans-35"/>
       <use x="127.246094" xlink:href="#DejaVuSans-30"/>
       <use x="190.869141" xlink:href="#DejaVuSans-30"/>
      </g>
     </g>
    </g>
    <g id="ytick_5">
     <g id="line2d_11">
      <g>
       <use style="fill:#ffffff;stroke:#ffffff;stroke-width:0.8;" x="126" xlink:href="#md2546a3ffc" y="283.610859"/>
      </g>
     </g>
     <g id="text_12">
      <!-- 10000 -->
      <g style="fill:#ffffff;" transform="translate(87.1875 287.410077)scale(0.1 -0.1)">
       <use xlink:href="#DejaVuSans-31"/>
       <use x="63.623047" xlink:href="#DejaVuSans-30"/>
       <use x="127.246094" xlink:href="#DejaVuSans-30"/>
       <use x="190.869141" xlink:href="#DejaVuSans-30"/>
       <use x="254.492188" xlink:href="#DejaVuSans-30"/>
      </g>
     </g>
    </g>
    <g id="ytick_6">
     <g id="line2d_12">
      <g>
       <use style="fill:#ffffff;stroke:#ffffff;stroke-width:0.8;" x="126" xlink:href="#md2546a3ffc" y="233.455391"/>
      </g>
     </g>
     <g id="text_13">
      <!-- 12500 -->
      <g style="fill:#ffffff;" transform="translate(87.1875 237.25461)scale(0.1 -0.1)">
       <use xlink:href="#DejaVuSans-31"/>
       <use x="63.623047" xlink:href="#DejaVuSans-32"/>
       <use x="127.246094" xlink:href="#DejaVuSans-35"/>
       <use x="190.869141" xlink:href="#DejaVuSans-30"/>
       <use x="254.492188" xlink:href="#DejaVuSans-30"/>
      </g>
     </g>
    </g>
    <g id="ytick_7">
     <g id="line2d_13">
      <g>
       <use style="fill:#ffffff;stroke:#ffffff;stroke-width:0.8;" x="126" xlink:href="#md2546a3ffc" y="183.299924"/>
      </g>
     </g>
     <g id="text_14">
      <!-- 15000 -->
      <g style="fill:#ffffff;" transform="translate(87.1875 187.099143)scale(0.1 -0.1)">
       <use xlink:href="#DejaVuSans-31"/>
       <use x="63.623047" xlink:href="#DejaVuSans-35"/>
       <use x="127.246094" xlink:href="#DejaVuSans-30"/>
       <use x="190.869141" xlink:href="#DejaVuSans-30"/>
       <use x="254.492188" xlink:href="#DejaVuSans-30"/>
      </g>
     </g>
    </g>
    <g id="ytick_8">
     <g id="line2d_14">
      <g>
       <use style="fill:#ffffff;stroke:#ffffff;stroke-width:0.8;" x="126" xlink:href="#md2546a3ffc" y="133.144457"/>
      </g>
     </g>
     <g id="text_15">
      <!-- 17500 -->
      <g style="fill:#ffffff;" transform="translate(87.1875 136.943676)scale(0.1 -0.1)">
       <use xlink:href="#DejaVuSans-31"/>
       <use x="63.623047" xlink:href="#DejaVuSans-37"/>
       <use x="127.246094" xlink:href="#DejaVuSans-35"/>
       <use x="190.869141" xlink:href="#DejaVuSans-30"/>
       <use x="254.492188" xlink:href="#DejaVuSans-30"/>
      </g>
     </g>
    </g>
    <g id="ytick_9">
     <g id="line2d_15">
      <g>
       <use style="fill:#ffffff;stroke:#ffffff;stroke-width:0.8;" x="126" xlink:href="#md2546a3ffc" y="82.98899"/>
      </g>
     </g>
     <g id="text_16">
      <!-- 20000 -->
      <g style="fill:#ffffff;" transform="translate(87.1875 86.788209)scale(0.1 -0.1)">
       <use xlink:href="#DejaVuSans-32"/>
       <use x="63.623047" xlink:href="#DejaVuSans-30"/>
       <use x="127.246094" xlink:href="#DejaVuSans-30"/>
       <use x="190.869141" xlink:href="#DejaVuSans-30"/>
       <use x="254.492188" xlink:href="#DejaVuSans-30"/>
      </g>
     </g>
    </g>
   </g>
   <g id="line2d_16">
    <path clip-path="url(#p97c7d03371)" d="M 161.509091 288.746778 
L 161.789242 310.5945 
L 162.069392 292.819402 
L 162.349543 286.640249 
L 162.629693 286.640249 
L 162.909844 269.005587 
L 163.189995 313.082211 
L 163.470145 300.182225 
L 163.750296 348.712655 
L 164.030446 306.080508 
L 164.310597 344.760404 
L 164.590748 360.549345 
L 164.870898 336.875965 
L 165.151049 298.898245 
L 165.4312 323.193553 
L 165.991501 395.196742 
L 166.271651 405.067338 
L 166.831953 405.067338 
L 167.112103 392.207476 
L 167.392254 353.52758 
L 167.672405 353.52758 
L 167.952555 418.649439 
L 168.232706 447.077557 
L 168.793007 411.106056 
L 169.073158 401.676828 
L 169.353308 367.530986 
L 169.633459 385.165649 
L 169.913609 372.305787 
L 170.19376 345.342208 
L 170.473911 345.342208 
L 171.034212 386.148696 
L 171.314363 342.072071 
L 171.594513 318.880183 
L 171.874664 318.880183 
L 172.154814 314.566813 
L 172.434965 296.069477 
L 172.995266 227.195989 
L 173.275417 244.309035 
L 173.555568 244.309035 
L 173.835718 299.720795 
L 174.115869 255.64417 
L 174.396019 269.928447 
L 174.956321 362.535502 
L 175.236471 346.726499 
L 175.516622 319.522173 
L 175.796772 319.522173 
L 176.076923 347.488862 
L 176.357074 347.488862 
L 176.637224 309.511142 
L 176.917375 336.715467 
L 177.197526 318.378629 
L 177.477676 318.378629 
L 178.037977 279.979603 
L 178.318128 327.56711 
L 178.598279 322.070071 
L 178.878429 322.090133 
L 179.438731 298.055633 
L 179.718881 309.230271 
L 179.999032 347.970354 
L 180.279182 332.101164 
L 180.559333 384.644032 
L 180.839484 386.329255 
L 181.119634 347.649359 
L 181.399785 374.612938 
L 181.679935 346.64625 
L 181.960086 349.194148 
L 182.240237 349.194148 
L 182.520387 370.560377 
L 182.800538 361.131149 
L 183.360839 386.429566 
L 183.64099 348.451847 
L 183.92114 330.115008 
L 184.481442 374.773436 
L 184.761592 412.751156 
L 185.041743 378.605314 
L 185.321893 360.970651 
L 185.602044 311.156241 
L 185.882195 301.064961 
L 186.162345 343.697108 
L 186.442496 361.331771 
L 186.722647 338.019509 
L 187.002797 403.642923 
L 187.282948 378.424754 
L 187.563098 334.929933 
L 187.843249 330.937557 
L 188.1234 354.691187 
L 188.40355 351.400988 
L 188.683701 369.898324 
L 188.963852 351.521361 
L 189.244002 369.898324 
L 189.524153 351.400988 
L 189.804303 352.584657 
L 190.084454 328.510033 
L 190.364605 341.369895 
L 190.644755 319.803044 
L 190.924906 310.835246 
L 191.205056 293.200584 
L 191.485207 401.857388 
L 191.765358 392.42816 
L 192.045508 392.42816 
L 192.325659 393.290834 
L 192.60581 387.793795 
L 192.88596 392.969839 
L 193.166111 348.893215 
L 193.446261 343.536611 
L 193.726412 348.893215 
L 194.006563 329.733826 
L 194.286713 320.766029 
L 194.566864 282.788309 
L 194.847015 288.285348 
L 195.407316 226.935181 
L 195.687466 241.079022 
L 196.247768 322.812372 
L 196.527918 315.971166 
L 196.808069 360.047791 
L 197.088219 347.187929 
L 197.36837 360.509221 
L 197.648521 330.877371 
L 198.208822 319.983603 
L 198.488973 311.637734 
L 198.769123 311.738045 
L 199.049274 311.657796 
L 199.329424 406.632189 
L 199.609575 415.138556 
L 199.889726 366.608126 
L 200.169876 356.978276 
L 200.450027 340.065853 
L 200.730178 337.377519 
L 201.010328 358.703624 
L 201.290479 304.736341 
L 201.570629 352.323849 
L 201.85078 375.63611 
L 202.411081 281.745075 
L 202.691232 264.431408 
L 202.971382 273.399206 
L 203.251533 249.645576 
L 203.531684 249.645576 
L 204.091985 360.569408 
L 204.372136 387.673422 
L 204.652286 403.101244 
L 204.932437 381.333771 
L 205.212587 404.646032 
L 205.492738 450.086885 
L 205.772889 418.85006 
L 206.053039 414.757374 
L 206.33319 376.077478 
L 206.613341 376.217913 
L 207.173642 450.086885 
L 208.014094 354.209694 
L 208.294244 330.536314 
L 208.854545 362.555564 
L 209.414847 300.904464 
L 209.694997 319.241303 
L 209.975148 303.452361 
L 210.255299 327.205991 
L 210.535449 303.452361 
L 211.09575 355.172679 
L 211.656052 297.353457 
L 211.936202 337.859012 
L 212.216353 361.612641 
L 212.496503 359.847169 
L 213.056805 392.588658 
L 213.336955 396.681344 
L 213.897257 360.770029 
L 214.177407 334.709249 
L 214.457558 334.709249 
L 214.737708 296.731529 
L 215.017859 296.731529 
L 215.29801 265.514766 
L 215.57816 351.160242 
L 216.138462 351.160242 
L 216.418612 378.264256 
L 216.978913 341.630703 
L 217.259064 341.630703 
L 217.539215 337.538017 
L 217.819365 375.435488 
L 218.099516 371.443113 
L 218.379666 378.986495 
L 218.659817 383.079181 
L 218.939968 337.638328 
L 219.220118 340.908464 
L 219.500269 306.762622 
L 219.78042 309.31052 
L 220.06057 309.31052 
L 220.340721 337.277209 
L 220.901022 324.377222 
L 221.181173 286.399503 
L 221.461323 286.299192 
L 221.741474 273.43933 
L 222.021625 313.082211 
L 222.301775 274.402315 
L 222.581926 332.000853 
L 222.862076 349.013588 
L 223.142227 339.58436 
L 223.702528 382.838435 
L 224.262829 321.488267 
L 224.54298 321.488267 
L 224.823131 300.723904 
L 225.103281 327.928229 
L 225.383432 280.340722 
L 225.663583 350.799123 
L 225.943733 350.799123 
L 226.223884 349.434894 
L 226.504034 373.509518 
L 226.784185 367.671422 
L 227.064336 349.073774 
L 227.624637 380.792092 
L 227.904788 380.792092 
L 228.184938 371.824294 
L 228.465089 347.890105 
L 228.745239 341.068962 
L 229.02539 350.538314 
L 229.305541 350.518252 
L 229.585691 350.758998 
L 229.865842 385.747452 
L 230.426143 399.871232 
L 230.706294 376.197851 
L 230.986444 402.659876 
L 231.266595 409.320522 
L 231.546746 409.320522 
L 231.826896 411.868419 
L 232.107047 396.059416 
L 232.387197 392.127227 
L 232.667348 397.303272 
L 232.947499 399.510112 
L 233.227649 350.979682 
L 233.5078 377.361458 
L 233.787951 377.361458 
L 234.068101 338.681562 
L 234.348252 337.457768 
L 234.628402 328.02854 
L 234.908553 293.882698 
L 235.188704 275.285051 
L 235.468854 354.269881 
L 236.309306 468.02248 
L 236.589457 418.20807 
L 236.869607 389.779952 
L 237.149758 405.588955 
L 237.710059 396.09954 
L 237.99021 401.59658 
L 238.27036 381.915574 
L 238.550511 394.53469 
L 238.830662 375.937043 
L 239.110812 428.560159 
L 239.390963 268.704654 
L 239.671114 300.483158 
L 239.951264 288.325473 
L 240.231415 316.292161 
L 240.791716 251.350862 
L 241.071867 301.526392 
L 241.352017 262.846495 
L 241.632168 296.992337 
L 241.912318 296.992337 
L 242.192469 373.649953 
L 242.47262 368.152914 
L 242.75277 368.152914 
L 243.032921 350.518252 
L 243.313072 353.206585 
L 243.593222 370.841247 
L 243.873373 370.841247 
L 244.153523 361.412019 
L 244.433674 360.970651 
L 244.713825 360.970651 
L 244.993975 356.877965 
L 245.274126 375.014182 
L 245.554276 377.521955 
L 245.834427 343.376113 
L 246.394728 302.068071 
L 246.674879 319.461987 
L 246.95503 319.461987 
L 247.23518 297.47383 
L 247.515331 323.173491 
L 247.795481 320.083914 
L 248.075632 343.757295 
L 248.355783 322.391066 
L 248.635933 316.894027 
L 248.916084 318.418753 
L 249.196235 357.981385 
L 249.756536 276.268098 
L 250.036686 310.41394 
L 250.316837 308.267286 
L 250.596988 359.465987 
L 250.877138 347.28824 
L 251.157289 380.009667 
L 251.437439 380.41091 
L 251.71759 349.174085 
L 251.997741 374.893809 
L 252.277891 336.213913 
L 252.558042 318.57925 
L 253.118343 326.824809 
L 253.398494 308.327473 
L 253.678644 304.034165 
L 253.958795 254.219755 
L 254.238946 254.219755 
L 254.519096 290.612562 
L 254.799247 285.195771 
L 255.079398 302.830434 
L 255.359548 305.538829 
L 255.639699 278.695623 
L 256.2 321.127148 
L 256.480151 277.050524 
L 257.040452 374.011073 
L 257.320602 335.331176 
L 257.600753 326.363379 
L 257.880904 326.363379 
L 258.161054 345.984198 
L 258.441205 384.664094 
L 258.721356 375.234866 
L 259.001506 399.570299 
L 259.281657 390.321631 
L 259.561807 409.440895 
L 259.841958 379.167055 
L 260.122109 368.915277 
L 260.402259 389.539205 
L 260.68241 389.539205 
L 260.962561 416.021292 
L 261.242711 416.021292 
L 261.522862 419.792983 
L 261.803012 402.158321 
L 262.363314 355.533799 
L 262.643464 346.566001 
L 262.923615 350.658687 
L 263.203765 311.978791 
L 263.483916 350.658687 
L 263.764067 323.695108 
L 264.044217 323.554673 
L 264.324368 332.52247 
L 264.604519 332.52247 
L 264.884669 354.289943 
L 265.16482 315.610047 
L 265.44497 324.256849 
L 265.725121 318.75981 
L 266.005272 344.359161 
L 266.285422 344.359161 
L 266.845724 365.183711 
L 267.125874 320.745967 
L 267.406025 327.807856 
L 267.686175 328.750779 
L 267.966326 328.750779 
L 268.246477 376.338286 
L 268.526627 337.65839 
L 268.806778 328.229162 
L 269.367079 318.218131 
L 269.64723 316.131664 
L 269.92738 268.544156 
L 270.207531 276.027352 
L 270.487682 314.005072 
L 270.767832 296.370409 
L 271.047983 335.050306 
L 271.328133 352.684968 
L 271.608284 352.684968 
L 271.888435 358.182007 
L 272.168585 320.204288 
L 272.448736 301.706951 
L 272.728886 301.706951 
L 273.009037 349.294458 
L 273.289188 366.608126 
L 273.849489 283.671045 
L 274.12964 322.591688 
L 274.40979 335.371301 
L 274.970091 335.371301 
L 275.250242 311.296677 
L 275.530393 302.328879 
L 275.810543 307.926229 
L 276.090694 269.246333 
L 276.370845 269.246333 
L 276.650995 347.328364 
L 276.931146 245.472641 
L 277.211296 263.107304 
L 277.491447 252.213536 
L 277.771598 309.551266 
L 278.051748 261.020836 
L 278.612049 338.079696 
L 278.8922 376.057416 
L 279.172351 390.261444 
L 279.452501 381.293647 
L 279.732652 343.315927 
L 280.012803 322.992931 
L 280.292953 320.284536 
L 280.573104 358.262256 
L 280.853254 331.298677 
L 281.133405 340.266474 
L 281.413556 367.230054 
L 281.973857 338.561189 
L 282.254008 369.798013 
L 282.534158 354.009072 
L 282.814309 331.118117 
L 283.094459 327.025431 
L 283.37461 319.161054 
L 283.934911 319.040681 
L 284.215062 323.133367 
L 284.495212 273.318957 
L 284.775363 263.889729 
L 285.055514 302.128257 
L 285.335664 300.764028 
L 285.895966 378.364567 
L 286.176116 365.504705 
L 286.456267 331.358863 
L 287.016568 322.411128 
L 287.296719 334.127445 
L 287.85702 304.796528 
L 288.137171 330.115008 
L 288.417321 335.612047 
L 288.697472 362.816372 
L 288.977622 362.415129 
L 289.257773 362.415129 
L 289.537924 357.319333 
L 289.818074 315.228865 
L 290.098225 328.449846 
L 290.378375 376.037354 
L 290.658526 328.449846 
L 290.938677 318.880183 
L 291.218827 338.561189 
L 291.779129 307.364488 
L 292.059279 331.037868 
L 292.33943 282.507438 
L 292.61958 330.094946 
L 292.899731 342.954807 
L 293.179882 298.878183 
L 293.460032 347.408613 
L 293.740183 347.007369 
L 294.020334 349.836138 
L 294.580635 332.52247 
L 294.860785 356.597095 
L 295.140936 352.945777 
L 295.701237 307.545048 
L 295.981388 334.508627 
L 296.261538 316.873964 
L 296.541689 355.553861 
L 296.82184 376.92009 
L 297.382141 331.88048 
L 297.662292 283.35005 
L 298.222593 334.247818 
L 298.502743 332.2416 
L 298.782894 361.271584 
L 299.063045 361.271584 
L 299.343195 384.583845 
L 299.903497 348.612344 
L 300.463798 377.080587 
L 300.743948 371.583548 
L 301.024099 284.714279 
L 301.30425 302.027946 
L 301.5844 256.587093 
L 301.864551 302.027946 
L 302.144701 289.388768 
L 302.424852 360.087915 
L 302.705003 387.29224 
L 302.985153 338.76181 
L 303.265304 347.328364 
L 303.545455 352.002854 
L 304.105756 289.649577 
L 304.385906 306.963244 
L 304.666057 349.595391 
L 304.946208 345.502705 
L 305.226358 322.190444 
L 305.506509 361.351833 
L 305.786659 356.476721 
L 306.06681 358.422754 
L 306.627111 321.347832 
L 306.907262 321.347832 
L 307.187413 351.280615 
L 307.467563 399.811045 
L 308.027864 351.240491 
L 308.308015 351.641734 
L 308.588166 335.832731 
L 308.868316 335.832731 
L 309.148467 334.328067 
L 309.428618 310.494189 
L 309.708768 299.720795 
L 309.988919 298.537126 
L 310.269069 318.860121 
L 310.829371 399.469988 
L 311.389672 354.631 
L 311.669822 336.294161 
L 311.949973 353.928824 
L 312.230124 315.248927 
L 312.510274 335.872855 
L 312.790425 327.928229 
L 313.070576 306.361379 
L 313.350726 323.634921 
L 313.630877 308.387659 
L 313.911027 304.696217 
L 314.191178 308.688592 
L 314.471329 260.158162 
L 314.751479 261.662826 
L 315.03163 261.662826 
L 315.311781 323.835543 
L 315.591931 327.928229 
L 315.872082 323.835543 
L 316.152232 323.835543 
L 316.432383 409.320522 
L 316.712534 390.722874 
L 317.272835 398.807936 
L 317.552985 375.616048 
L 317.833136 394.374192 
L 318.113287 369.67764 
L 318.393437 369.67764 
L 318.953739 291.435112 
L 319.233889 320.525283 
L 319.51404 363.15743 
L 319.79419 357.66039 
L 320.074341 348.231163 
L 320.354492 299.700733 
L 320.634642 305.197772 
L 320.914793 277.231083 
L 321.194944 325.761513 
L 321.475094 335.190741 
L 321.755245 332.622781 
L 322.315546 289.328582 
L 322.595697 289.328582 
L 322.875847 255.18274 
L 323.155998 255.18274 
L 323.436148 308.568219 
L 323.716299 308.568219 
L 323.99645 324.918901 
L 324.2766 319.421862 
L 324.556751 338.019509 
L 324.836902 340.828216 
L 325.117052 340.828216 
L 325.397203 348.2111 
L 325.677353 335.351239 
L 325.957504 349.414832 
L 326.237655 345.8237 
L 326.517805 379.969542 
L 326.797956 341.991822 
L 327.078107 331.439112 
L 327.358257 371.924605 
L 327.638408 362.495377 
L 327.918558 423.484426 
L 328.47886 394.033135 
L 328.75901 395.256929 
L 329.319311 357.0184 
L 329.879613 416.82378 
L 330.439914 329.03165 
L 330.720065 348.030541 
L 331.000215 320.826215 
L 331.280366 320.806153 
L 331.840667 385.988198 
L 332.120818 367.490862 
L 332.400968 340.527283 
L 332.681119 340.527283 
L 332.961269 339.022619 
L 333.24142 304.876777 
L 333.521571 298.517063 
L 333.801721 274.382253 
L 334.362023 324.53772 
L 334.642173 320.445034 
L 335.202474 390.522253 
L 335.482625 371.924605 
L 335.762776 376.017291 
L 336.042926 376.498784 
L 336.323077 326.684374 
L 336.603228 349.996635 
L 336.883378 332.361973 
L 337.163529 288.285348 
L 337.443679 284.192662 
L 337.72383 303.392175 
L 338.003981 353.206585 
L 338.284131 352.805341 
L 338.564282 339.945479 
L 338.844432 351.340802 
L 339.124583 327.988416 
L 339.684884 390.662688 
L 340.245186 335.150617 
L 340.525336 348.010479 
L 341.085637 300.262474 
L 341.365788 358.061634 
L 341.645939 356.115602 
L 341.926089 318.137882 
L 342.20624 296.871964 
L 342.486391 320.545345 
L 342.766541 304.756404 
L 343.326842 304.756404 
L 343.606993 287.121741 
L 343.887144 259.556297 
L 344.167294 269.025649 
L 344.447445 310.092945 
L 344.727595 328.590282 
L 345.007746 362.736124 
L 345.568047 301.626702 
L 345.848198 335.772545 
L 346.128349 326.343317 
L 346.408499 328.489971 
L 346.68865 317.074586 
L 346.9688 298.57725 
L 347.248951 311.778169 
L 347.529102 396.701406 
L 347.809252 372.947777 
L 348.089403 418.38863 
L 348.369554 414.295944 
L 348.929855 355.754483 
L 349.210005 329.192147 
L 349.490156 317.47583 
L 349.770307 335.973166 
L 350.050457 314.606937 
L 350.330608 314.606937 
L 350.610758 328.931339 
L 350.890909 311.296677 
L 351.45121 393.030026 
L 351.731361 402.459254 
L 352.291662 334.769435 
L 352.571813 350.578438 
L 352.851963 319.341613 
L 353.132114 319.341613 
L 353.412265 341.32977 
L 353.692415 344.780466 
L 353.972566 344.399285 
L 354.252717 344.399285 
L 354.532867 334.970057 
L 354.813018 337.738639 
L 355.093168 347.167867 
L 355.373319 389.800014 
L 355.65347 371.463175 
L 355.93362 326.022322 
L 356.213771 343.656984 
L 356.493921 343.656984 
L 356.774072 316.452659 
L 357.054223 334.689186 
L 357.334373 331.59961 
L 357.614524 340.567407 
L 358.174825 323.594797 
L 358.454976 325.721389 
L 358.735126 329.372707 
L 359.015277 360.609532 
L 359.295428 347.74967 
L 359.855729 347.74967 
L 360.13588 342.252631 
L 360.41603 365.564892 
L 360.696181 347.228053 
L 360.976331 309.250333 
L 361.536633 381.915574 
L 361.816783 354.711249 
L 362.096934 367.350427 
L 362.657235 305.63914 
L 362.937386 321.428081 
L 363.217536 275.987228 
L 363.497687 275.987228 
L 363.777838 392.889591 
L 364.057988 419.85317 
L 364.618289 391.425051 
L 364.89844 398.005448 
L 365.178591 360.027728 
L 365.738892 428.94134 
L 366.019042 423.444301 
L 366.299193 440.757969 
L 366.859494 356.797716 
L 367.139645 394.775436 
L 367.419796 377.140774 
L 367.699946 336.655281 
L 367.980097 313.34302 
L 368.260247 275.3653 
L 368.540398 309.511142 
L 368.820549 300.543344 
L 369.100699 287.683483 
L 369.38085 296.65128 
L 369.661001 261.923635 
L 369.941151 302.409128 
L 370.501452 271.212427 
L 370.781603 297.333394 
L 371.061754 297.333394 
L 371.341904 278.735747 
L 371.622055 281.664827 
L 371.902205 281.664827 
L 372.182356 255.925041 
L 372.462507 300.001665 
L 372.742657 281.664827 
L 373.022808 377.38152 
L 373.302959 346.164757 
L 373.86326 320.083914 
L 374.14341 320.083914 
L 374.423561 324.53772 
L 374.703712 368.614344 
L 374.983862 381.474206 
L 375.264013 365.685265 
L 375.544164 359.245303 
L 375.824314 363.899731 
L 376.104465 354.931933 
L 376.384615 336.434597 
L 376.664766 372.365973 
L 376.944917 372.365973 
L 377.225067 366.808748 
L 377.785368 288.586281 
L 378.065519 332.662906 
L 378.905971 249.906385 
L 379.186122 281.383956 
L 379.466272 339.704733 
L 379.746423 358.202069 
L 380.026573 326.965244 
L 380.306724 338.882183 
L 380.586875 321.247521 
L 380.867025 314.647062 
L 381.147176 297.47383 
L 381.427327 288.506032 
L 381.707477 327.185929 
L 381.987628 277.371519 
L 382.267778 277.371519 
L 382.547929 267.942291 
L 382.82808 267.079617 
L 383.10823 263.80948 
L 383.388381 225.83176 
L 383.668531 257.509953 
L 383.948682 230.305628 
L 384.789134 362.836435 
L 385.069285 345.522767 
L 385.349435 359.867231 
L 385.629586 359.867231 
L 385.909736 363.398176 
L 386.470038 396.039354 
L 386.750188 360.40891 
L 387.030339 387.613235 
L 387.31049 282.106195 
L 387.59064 274.72331 
L 387.870791 274.72331 
L 388.150941 315.208803 
L 388.431092 299.3998 
L 388.711243 323.675046 
L 388.991393 328.630406 
L 389.271544 294.484564 
L 389.551694 317.696514 
L 390.111996 386.208882 
L 390.392146 337.678452 
L 390.672297 314.486564 
L 390.952448 310.393878 
L 391.232598 333.585766 
L 391.512749 306.622187 
L 391.792899 306.622187 
L 392.353201 377.662391 
L 392.633351 330.074883 
L 392.913502 364.220726 
L 393.193653 368.313412 
L 393.473803 345.121524 
L 393.753954 305.037274 
L 394.034104 305.037274 
L 394.314255 308.126851 
L 394.594406 295.266989 
L 394.874556 295.266989 
L 395.154707 269.446955 
L 395.434857 317.034462 
L 395.715008 289.830137 
L 395.995159 316.773654 
L 396.275309 269.186146 
L 396.55546 293.020024 
L 396.835611 297.614265 
L 397.115761 279.277426 
L 397.395912 297.875074 
L 397.676062 287.803856 
L 397.956213 287.803856 
L 398.236364 253.658014 
L 398.516514 292.237599 
L 398.796665 297.734638 
L 399.076815 297.734638 
L 399.356966 279.136991 
L 399.637117 288.766841 
L 399.917267 271.132178 
L 400.477569 311.256552 
L 400.757719 305.759513 
L 401.03787 373.268772 
L 401.31802 349.595391 
L 401.598171 357.0184 
L 401.878322 387.19193 
L 402.158472 377.762702 
L 402.438623 339.082805 
L 402.718774 339.082805 
L 402.998924 314.406316 
L 403.279075 319.843168 
L 403.559225 358.523064 
L 403.839376 362.51544 
L 404.119527 338.76181 
L 404.399677 360.128039 
L 404.679828 332.923714 
L 404.959978 284.393284 
L 405.240129 315.289052 
L 405.52028 315.289052 
L 405.80043 338.460878 
L 406.080581 325.601016 
L 406.360732 325.601016 
L 406.640882 316.171788 
L 406.921033 363.79942 
L 407.201183 349.595391 
L 408.041635 243.085241 
L 408.321786 385.747452 
L 408.601937 409.059713 
L 409.162238 368.57422 
L 409.442388 395.537799 
L 409.722539 376.940152 
L 410.00269 395.537799 
L 410.562991 302.930745 
L 410.843141 270.430002 
L 411.403443 368.774842 
L 411.963744 302.830434 
L 412.524045 314.988119 
L 412.804196 332.622781 
L 413.084346 361.311708 
L 413.644648 303.412237 
L 413.924798 307.926229 
L 414.204949 320.786091 
L 414.4851 321.347832 
L 414.76525 369.617454 
L 415.045401 335.471612 
L 415.325551 380.912465 
L 415.885853 292.839465 
L 416.166003 294.203693 
L 416.446154 285.235896 
L 416.726304 294.203693 
L 417.006455 355.192741 
L 417.286606 343.014994 
L 417.566756 308.869152 
L 417.846907 290.532313 
L 418.407208 321.287646 
L 418.687359 353.34702 
L 418.967509 342.232569 
L 419.24766 373.449332 
L 419.527811 374.472503 
L 419.807961 353.587766 
L 420.088112 397.664391 
L 420.368263 350.076884 
L 420.648413 341.109086 
L 420.928564 320.445034 
L 421.488865 262.545562 
L 421.769016 287.703545 
L 422.049166 260.739966 
L 422.329317 255.242926 
L 422.609467 278.996556 
L 422.889618 271.533422 
L 423.169769 296.430596 
L 423.449919 305.398394 
L 423.73007 287.763731 
L 424.010221 328.249224 
L 424.290371 309.651577 
L 424.570522 328.249224 
L 424.850672 309.912386 
L 425.130823 271.232489 
L 425.410974 283.550672 
L 425.691124 261.983821 
L 426.251425 303.994041 
L 426.531576 285.496704 
L 426.811727 259.616483 
L 427.091877 254.36019 
L 427.932329 331.118117 
L 428.21248 360.770029 
L 428.49263 316.693405 
L 428.772781 291.374925 
L 429.052932 354.35013 
L 429.333082 354.330067 
L 429.613233 358.422754 
L 429.893384 376.759592 
L 430.173534 371.262553 
L 430.453685 415.339178 
L 430.733835 388.134852 
L 431.013986 393.631892 
L 431.574287 337.237084 
L 431.854438 354.931933 
L 432.134588 336.334286 
L 432.414739 308.2071 
L 432.69489 327.165866 
L 432.97504 322.009884 
L 433.535342 293.401206 
L 433.815492 332.081102 
L 434.095643 334.889808 
L 434.375793 334.889808 
L 434.655944 377.521955 
L 434.936095 359.024619 
L 435.216245 387.793795 
L 435.496396 353.647953 
L 435.776547 354.049197 
L 436.056697 388.195039 
L 436.616998 289.850199 
L 436.897149 339.664609 
L 437.1773 335.672234 
L 437.45745 339.664609 
L 437.737601 308.427784 
L 438.017751 321.32777 
L 438.297902 359.30549 
L 438.578053 353.808451 
L 438.858203 353.808451 
L 439.138354 407.83592 
L 439.418505 426.333256 
L 439.698655 392.187414 
L 439.978806 388.195039 
L 440.258956 320.886402 
L 440.539107 385.747452 
L 440.819258 411.627673 
L 441.099408 387.874044 
L 441.379559 279.197178 
L 441.65971 269.76795 
L 442.220011 347.990416 
L 442.500161 343.998041 
L 442.780312 352.042978 
L 443.060463 385.968136 
L 443.340613 373.108274 
L 443.620764 373.509518 
L 444.181065 315.610047 
L 444.461216 297.11271 
L 444.741366 292.33791 
L 445.021517 301.867449 
L 445.301668 325.17971 
L 445.581818 372.767217 
L 445.861969 328.690593 
L 446.42227 406.913059 
L 446.702421 383.600798 
L 446.982571 383.199554 
L 447.262722 383.199554 
L 447.542873 383.600798 
L 447.823023 343.115305 
L 448.103174 370.078884 
L 448.383324 366.086509 
L 448.663475 385.205773 
L 448.943626 389.198148 
L 449.223776 370.861309 
L 449.503927 366.226944 
L 449.784077 358.182007 
L 450.064228 336.474721 
L 450.344379 297.794825 
L 450.624529 304.395284 
L 450.90468 351.982792 
L 451.464981 303.25174 
L 452.025282 343.556673 
L 452.305433 344.660093 
L 452.585584 347.167867 
L 452.865734 323.414237 
L 453.145885 324.256849 
L 453.426036 369.757889 
L 453.706186 356.898027 
L 454.266487 274.141506 
L 454.826789 388.917278 
L 455.106939 379.48805 
L 455.66724 416.241976 
L 455.947391 385.005151 
L 456.227542 388.275288 
L 456.507692 413.092213 
L 456.787843 413.092213 
L 457.067994 378.946371 
L 458.188596 319.241303 
L 458.468747 318.238193 
L 458.748897 360.87034 
L 459.029048 329.633515 
L 459.309198 329.633515 
L 459.589349 320.204288 
L 459.8695 302.569625 
L 460.14965 316.151726 
L 460.429801 361.592579 
L 460.709952 352.624782 
L 460.990102 339.76492 
L 461.270253 316.01129 
L 461.550403 345.763514 
L 461.830554 326.443628 
L 462.110705 326.46369 
L 462.390855 350.217319 
L 462.671006 331.719983 
L 462.951157 347.508924 
L 464.071759 189.117958 
L 464.35191 223.2638 
L 464.63206 225.972196 
L 466.032813 395.437488 
L 466.312964 377.10065 
L 466.593115 338.420753 
L 466.873265 338.420753 
L 467.153416 420.455035 
L 467.433566 434.699188 
L 467.713717 407.534987 
L 467.993868 431.208368 
L 468.274018 415.399364 
L 468.554169 391.725984 
L 468.83432 413.052088 
L 469.11447 413.052088 
L 469.394621 372.967839 
L 469.674771 396.64122 
L 469.954922 400.733906 
L 470.235073 387.874044 
L 470.795374 315.750482 
L 471.635826 179.668668 
L 472.196127 256.326284 
L 472.476278 279.49811 
L 472.756428 260.900463 
L 473.036579 314.72731 
L 473.316729 326.543939 
L 473.59688 333.565704 
L 473.877031 329.553267 
L 474.157181 279.738857 
L 474.717483 357.279209 
L 474.997633 338.781873 
L 475.277784 352.624782 
L 475.557934 354.891809 
L 475.838085 370.31963 
L 476.118236 370.31963 
L 476.398386 360.890403 
L 476.678537 316.813778 
L 477.238838 396.139665 
L 477.518989 394.314006 
L 477.799139 369.316521 
L 478.07929 406.451629 
L 478.359441 411.948668 
L 478.639591 407.274179 
L 478.919742 435.301054 
L 479.199892 440.637595 
L 479.760194 440.637595 
L 480.040344 420.976652 
L 480.880796 314.947995 
L 481.160947 305.518767 
L 481.721248 305.518767 
L 482.001399 287.884104 
L 482.281549 314.988119 
L 482.5617 324.417347 
L 482.84185 342.052009 
L 483.122001 337.19696 
L 483.402152 387.01137 
L 483.682302 410.764999 
L 483.962453 410.363755 
L 484.242604 413.653954 
L 484.522754 376.077478 
L 484.802905 370.580439 
L 485.083055 348.110789 
L 485.643357 348.110789 
L 485.923507 386.088509 
L 486.203658 373.228647 
L 486.483808 383.881669 
L 486.763959 379.869231 
L 487.04411 367.00937 
L 487.32426 371.984792 
L 487.604411 327.908167 
L 487.884562 327.908167 
L 488.164712 293.762325 
L 488.444863 297.975384 
L 488.725013 306.74256 
L 489.005164 355.333177 
L 489.285315 316.65328 
L 489.565465 303.793419 
L 489.845616 298.196068 
L 490.125767 302.288755 
L 490.405917 261.803261 
L 490.686068 291.956728 
L 491.246369 307.344426 
L 491.52652 332.121227 
L 491.80667 329.432893 
L 492.086821 320.003666 
L 492.366971 320.003666 
L 492.647122 302.369003 
L 492.927273 342.854497 
L 493.487574 256.145725 
L 493.767725 247.177927 
L 494.047875 277.873073 
L 494.328026 277.873073 
L 494.608176 246.555999 
L 495.168478 299.299489 
L 495.448628 299.299489 
L 495.728779 363.558673 
L 496.00893 382.05601 
L 496.28908 343.376113 
L 496.569231 343.777357 
L 496.849381 295.246927 
L 497.129532 271.573547 
L 497.409683 294.183631 
L 497.689833 376.639219 
L 497.969984 376.879965 
L 498.250134 364.020104 
L 498.530285 325.340207 
L 498.810436 364.020104 
L 499.090586 362.375004 
L 499.370737 388.977464 
L 499.650888 383.80142 
L 499.931038 434.037136 
L 500.77149 351.541423 
L 501.331791 399.871232 
L 501.611942 381.273584 
L 501.892093 354.310005 
L 502.452394 262.645873 
L 502.732544 277.251145 
L 503.012695 265.855823 
L 503.292846 292.618781 
L 503.572996 292.618781 
L 503.853147 340.206288 
L 504.413448 303.111304 
L 504.693599 303.111304 
L 504.973749 351.721983 
L 505.2539 355.593985 
L 506.374502 355.593985 
L 506.654653 337.959323 
L 506.934804 337.959323 
L 507.214954 288.144913 
L 507.495105 285.576953 
L 507.775256 348.251225 
L 508.055406 348.251225 
L 508.615707 324.216725 
L 509.176009 376.237975 
L 509.456159 342.092133 
L 509.73631 323.755295 
L 510.296611 389.418832 
L 510.576762 345.342208 
L 510.856912 354.771436 
L 511.137063 336.274099 
L 511.417214 328.329473 
L 511.697364 359.506112 
L 511.977515 359.506112 
L 512.257665 378.003448 
L 512.537816 386.971245 
L 512.817967 371.162242 
L 513.098117 341.530392 
L 513.378268 333.16446 
L 513.658419 315.529798 
L 514.21872 370.520252 
L 514.779021 320.124039 
L 515.059172 285.978197 
L 515.339322 331.41905 
L 515.619473 321.989822 
L 515.899623 276.548969 
L 516.179774 294.785497 
L 516.459925 285.617077 
L 517.020226 324.938964 
L 517.300377 330.355754 
L 517.580527 353.908761 
L 517.860678 388.054604 
L 518.140828 386.590064 
L 518.420979 366.487753 
L 518.70113 326.00226 
L 518.98128 327.045493 
L 519.261431 327.045493 
L 519.541581 359.786982 
L 519.821732 350.157133 
L 520.101883 366.969245 
L 520.382033 363.79942 
L 520.662184 302.068071 
L 520.942335 299.259364 
L 521.222485 301.947697 
L 521.502636 301.947697 
L 521.782786 299.419862 
L 522.062937 289.990634 
L 522.343088 252.012914 
L 522.623238 254.159568 
L 522.903389 247.057554 
L 523.18354 365.36427 
L 523.46369 356.115602 
L 523.743841 400.192227 
L 524.304142 391.565486 
L 524.584293 357.419644 
L 524.864443 347.428675 
L 525.144594 341.931636 
L 525.424744 320.22435 
L 525.704895 307.364488 
L 525.985046 332.402097 
L 526.265196 331.840356 
L 526.545347 367.00937 
L 526.825498 361.131149 
L 527.105648 373.991011 
L 527.385799 335.311114 
L 527.9461 385.245897 
L 528.226251 358.282318 
L 528.506401 403.723172 
L 528.786552 394.293944 
L 529.066703 375.957105 
L 529.346853 381.032838 
L 529.627004 369.21621 
L 529.907154 394.675125 
L 530.187305 404.104353 
L 530.467456 380.430973 
L 530.747606 367.571111 
L 531.027757 374.492565 
L 531.307907 391.244491 
L 531.588058 363.61886 
L 531.868209 394.735312 
L 532.148359 389.238273 
L 532.42851 391.806233 
L 532.708661 382.377005 
L 532.988811 387.713546 
L 533.268962 387.713546 
L 533.549112 397.142774 
L 533.829263 392.448222 
L 534.109414 392.448222 
L 534.389564 399.831107 
L 534.949866 438.952372 
L 535.510167 404.80653 
L 535.790317 404.80653 
L 536.350619 360.729905 
L 536.630769 360.729905 
L 537.19107 350.197257 
L 537.471221 350.197257 
L 537.751372 348.030541 
L 538.031522 324.276911 
L 538.311673 290.131069 
L 538.591824 332.763216 
L 538.871974 316.954213 
L 539.152125 316.954213 
L 539.712426 340.707843 
L 539.992577 343.396176 
L 540.272727 325.761513 
L 540.552878 316.793716 
L 540.833029 329.894324 
L 541.113179 329.49308 
L 543.354384 329.49308 
L 543.634535 366.628188 
L 543.914685 348.130852 
L 544.194836 348.130852 
L 544.474987 352.624782 
L 545.315438 352.624782 
L 545.595589 361.371895 
L 545.87574 377.261147 
L 546.15589 376.900028 
L 546.436041 349.936448 
L 546.716192 392.769217 
L 546.996342 373.569705 
L 547.276493 370.540314 
L 547.556643 385.045276 
L 547.836794 408.237164 
L 548.957396 331.057931 
L 549.237547 357.519955 
L 549.517698 323.374113 
L 549.797848 317.877074 
L 550.077999 354.891809 
L 550.35815 350.618563 
L 550.6383 336.514845 
L 550.918451 336.254037 
L 551.478752 336.254037 
L 551.758903 317.134773 
L 552.039053 313.142398 
L 552.319204 313.142398 
L 552.599354 341.109086 
L 552.879505 350.076884 
L 553.159656 344.579845 
L 553.439806 354.009072 
L 553.719957 306.421565 
L 554.000108 310.41394 
L 554.280258 350.899433 
L 554.560409 306.822809 
L 554.840559 306.822809 
L 555.12071 272.676967 
L 555.400861 291.274614 
L 555.681011 242.744184 
L 555.961162 269.908385 
L 556.521463 269.908385 
L 556.801614 291.274614 
L 557.081764 241.460204 
L 557.361915 241.821323 
L 557.642066 247.318363 
L 557.922216 290.993743 
L 558.202367 290.993743 
L 558.482517 286.339316 
L 558.762668 273.479454 
L 559.042819 254.982118 
L 559.322969 262.124256 
L 559.60312 262.124256 
L 559.883271 224.146537 
L 560.443572 293.120335 
L 561.284024 293.120335 
L 561.564174 304.234787 
L 561.844325 304.234787 
L 562.124476 342.212507 
L 562.964927 274.442439 
L 563.525229 315.810669 
L 563.805379 297.313332 
L 564.08553 340.04579 
L 564.36568 357.419644 
L 564.645831 319.441924 
L 564.925982 323.4343 
L 565.206132 302.068071 
L 565.486283 290.672748 
L 565.766434 290.672748 
L 566.046584 303.53261 
L 566.326735 307.625296 
L 566.887036 271.653795 
L 567.167187 271.653795 
L 567.447337 280.561406 
L 567.727488 323.193553 
L 568.007639 332.622781 
L 568.287789 319.762919 
L 568.56794 296.450658 
L 568.84809 296.450658 
L 569.128241 290.953619 
L 569.408392 288.385659 
L 569.688542 283.370112 
L 569.968693 288.9474 
L 570.248843 281.845386 
L 570.528994 263.34805 
L 571.089295 263.34805 
L 571.369446 255.46361 
L 571.649597 205.6492 
L 571.929747 240.396908 
L 572.209898 236.444657 
L 572.490048 197.764761 
L 572.770199 216.262097 
L 573.05035 243.426298 
L 573.3305 247.378549 
L 573.610651 247.378549 
L 573.890802 254.119444 
L 574.451103 332.06104 
L 574.731253 350.658687 
L 575.011404 312.680967 
L 575.291555 318.57925 
L 575.571705 331.098055 
L 575.851856 331.098055 
L 576.132006 313.463393 
L 576.412157 340.286537 
L 576.692308 340.286537 
L 576.972458 341.811263 
L 577.252609 314.606937 
L 577.53276 308.869152 
L 577.81291 284.473533 
L 578.093061 284.473533 
L 578.373211 251.752106 
L 578.933513 229.463016 
L 579.213663 242.322878 
L 579.773964 186.911118 
L 580.054115 190.422001 
L 580.334266 186.329314 
L 580.614416 195.758542 
L 583.696073 195.758542 
L 583.976224 199.851228 
L 584.256374 176.65934 
L 585.376977 176.65934 
L 585.657127 262.304816 
L 585.937278 249.444954 
L 586.217429 210.765058 
L 587.057881 210.765058 
L 587.338031 201.797261 
L 587.618182 201.797261 
L 587.898332 220.896462 
L 589.859387 220.896462 
L 590.139537 202.298815 
L 590.419688 224.9089 
L 590.699839 224.9089 
L 590.979989 207.274238 
L 592.100592 207.274238 
L 592.380742 225.611076 
L 592.660893 218.910306 
L 592.941044 201.275644 
L 593.501345 248.30141 
L 593.781495 200.713902 
L 594.061646 172.747214 
L 594.621947 172.747214 
L 595.182249 235.020242 
L 595.462399 231.027867 
L 595.74255 219.231301 
L 596.0227 236.865963 
L 596.302851 236.865963 
L 596.583002 225.029273 
L 596.863152 273.559703 
L 597.143303 254.962056 
L 597.423453 273.559703 
L 597.703604 273.559703 
L 597.983755 241.761137 
L 598.544056 241.761137 
L 598.824207 213.794448 
L 599.104357 213.794448 
L 599.384508 218.769871 
L 599.664658 234.939993 
L 599.944809 234.939993 
L 600.22496 310.113008 
L 600.50511 310.113008 
L 600.785261 304.615968 
L 601.065412 304.615968 
L 601.345562 296.731529 
L 601.625713 262.585687 
L 601.905863 249.745887 
L 602.186014 283.891729 
L 602.466165 296.591094 
L 602.746315 296.952213 
L 603.026466 296.952213 
L 603.306616 344.53972 
L 603.586767 310.393878 
L 603.866918 298.597312 
L 604.147068 298.597312 
L 604.427219 304.595906 
L 604.70737 320.384847 
L 605.267671 269.507141 
L 605.827972 269.507141 
L 606.108123 283.971978 
L 606.388273 245.994258 
L 606.668424 242.70406 
L 606.948575 256.025352 
L 607.228725 251.932666 
L 607.508876 234.298003 
L 608.069177 234.298003 
L 608.349328 219.793042 
L 609.189779 219.793042 
L 609.46993 206.93318 
L 610.030231 206.93318 
L 610.310382 228.419783 
L 610.590533 228.419783 
L 610.870683 222.922743 
L 611.711135 222.922743 
L 611.991286 257.429705 
L 612.271436 276.027352 
L 612.551587 272.997962 
L 613.111888 272.997962 
L 613.392039 300.202287 
L 613.672189 300.202287 
L 613.95234 281.60464 
L 615.072942 281.60464 
L 615.353093 261.843386 
L 615.913394 261.843386 
L 616.193545 243.506547 
L 618.154599 243.506547 
L 618.43475 234.077319 
L 618.995051 234.077319 
L 619.275202 211.366924 
L 620.115654 211.366924 
L 620.395804 184.162598 
L 620.675955 184.162598 
L 620.956105 171.302736 
L 622.076708 171.302736 
L 622.356859 184.162598 
L 625.998817 184.162598 
L 626.278967 166.868993 
L 626.559118 166.868993 
L 626.839268 162.876618 
L 629.360624 162.876618 
L 629.640775 166.868993 
L 629.920925 166.868993 
L 630.201076 128.189097 
L 632.442281 128.189097 
L 632.722431 131.720042 
L 635.243787 131.720042 
L 635.523938 137.056583 
L 636.084239 137.056583 
L 636.364389 124.196722 
L 638.045293 124.196722 
L 638.325444 109.952569 
L 654.013878 109.952569 
L 654.294029 101.747135 
L 662.978698 101.747135 
L 663.258849 88.887273 
L 871.690909 88.887273 
L 871.690909 88.887273 
" style="fill:none;stroke:#8dd3c7;stroke-linecap:square;stroke-width:1.5;"/>
   </g>
   <g id="line2d_17">
    <path clip-path="url(#p97c7d03371)" d="M 161.509091 288.746778 
L 162.069392 288.746778 
L 162.349543 286.640249 
L 162.629693 286.640249 
L 162.909844 269.005587 
L 172.434965 269.005587 
L 172.715116 265.875885 
L 172.995266 227.195989 
L 195.127165 227.195989 
L 195.407316 226.935181 
L 383.10823 226.935181 
L 383.388381 225.83176 
L 463.511458 225.83176 
L 463.791608 223.2638 
L 464.071759 189.117958 
L 471.355675 189.117958 
L 471.635826 179.668668 
L 583.976224 179.668668 
L 584.256374 176.65934 
L 593.781495 176.65934 
L 594.061646 172.747214 
L 620.675955 172.747214 
L 620.956105 171.302736 
L 625.998817 171.302736 
L 626.278967 166.868993 
L 626.559118 166.868993 
L 626.839268 162.876618 
L 629.920925 162.876618 
L 630.201076 128.189097 
L 636.084239 128.189097 
L 636.364389 124.196722 
L 638.045293 124.196722 
L 638.325444 109.952569 
L 654.013878 109.952569 
L 654.294029 101.747135 
L 662.978698 101.747135 
L 663.258849 88.887273 
L 871.690909 88.887273 
L 871.690909 88.887273 
" style="fill:none;stroke:#feffb3;stroke-linecap:square;stroke-width:1.5;"/>
   </g>
   <g id="line2d_18">
    <path clip-path="url(#p97c7d03371)" d="M 161.509091 347.392563 
L 163.470145 347.392563 
L 163.750296 355.909001 
L 165.71135 355.909001 
L 165.991501 363.895406 
L 167.952555 363.895406 
L 168.232706 371.384766 
L 170.19376 371.384766 
L 170.473911 378.408015 
L 172.434965 378.408015 
L 172.715116 384.994163 
L 174.67617 384.994163 
L 174.956321 391.170413 
L 176.917375 391.170413 
L 177.197526 396.962275 
L 179.15858 396.962275 
L 179.438731 402.393673 
L 181.399785 402.393673 
L 181.679935 407.48704 
L 183.64099 407.48704 
L 183.92114 412.263414 
L 185.882195 412.263414 
L 186.162345 416.742524 
L 188.1234 416.742524 
L 188.40355 420.942871 
L 190.364605 420.942871 
L 190.644755 424.881803 
L 192.60581 424.881803 
L 192.88596 428.57559 
L 194.847015 428.57559 
L 195.127165 432.039489 
L 197.088219 432.039489 
L 197.36837 435.287808 
L 199.329424 435.287808 
L 199.609575 438.333962 
L 201.570629 438.333962 
L 201.85078 441.190536 
L 203.811834 441.190536 
L 204.091985 443.869326 
L 206.053039 443.869326 
L 206.33319 446.381399 
L 208.294244 446.381399 
L 208.574395 448.737129 
L 210.535449 448.737129 
L 210.8156 450.946246 
L 212.776654 450.946246 
L 213.056805 453.017877 
L 215.017859 453.017877 
L 215.29801 454.960576 
L 217.259064 454.960576 
L 217.539215 456.782369 
L 219.500269 456.782369 
L 219.78042 458.49078 
L 221.741474 458.49078 
L 222.021625 460.092866 
L 223.982679 460.092866 
L 224.262829 461.595244 
L 226.223884 461.595244 
L 226.504034 463.004119 
L 228.465089 463.004119 
L 228.745239 464.325311 
L 230.706294 464.325311 
L 230.986444 465.564277 
L 232.947499 465.564277 
L 233.227649 466.726134 
L 235.188704 466.726134 
L 235.468854 467.815681 
L 237.429909 467.815681 
L 237.710059 468.837418 
L 239.671114 468.837418 
L 239.951264 469.795567 
L 241.912318 469.795567 
L 242.192469 470.694084 
L 244.153523 470.694084 
L 244.433674 471.53668 
L 246.394728 471.53668 
L 246.674879 472.326836 
L 248.635933 472.326836 
L 248.916084 473.067816 
L 250.877138 473.067816 
L 251.157289 473.762679 
L 253.118343 473.762679 
L 253.398494 474.414297 
L 255.359548 474.414297 
L 255.639699 475.025361 
L 257.600753 475.025361 
L 257.880904 475.598394 
L 259.841958 475.598394 
L 260.122109 476.135764 
L 262.083163 476.135764 
L 262.363314 476.63969 
L 264.324368 476.63969 
L 264.604519 477.112253 
L 266.565573 477.112253 
L 266.845724 477.555406 
L 268.806778 477.555406 
L 269.086928 477.970978 
L 271.047983 477.970978 
L 271.328133 478.360687 
L 273.289188 478.360687 
L 273.569338 478.726141 
L 275.530393 478.726141 
L 275.810543 479.068851 
L 277.771598 479.068851 
L 278.051748 479.390232 
L 280.012803 479.390232 
L 280.292953 479.691612 
L 282.254008 479.691612 
L 282.534158 479.974234 
L 284.495212 479.974234 
L 284.775363 480.239268 
L 286.736417 480.239268 
L 287.016568 480.487806 
L 288.977622 480.487806 
L 289.257773 480.720876 
L 291.218827 480.720876 
L 291.498978 480.939441 
L 293.460032 480.939441 
L 293.740183 481.144404 
L 295.701237 481.144404 
L 295.981388 481.33661 
L 297.942442 481.33661 
L 298.222593 481.516854 
L 300.183647 481.516854 
L 300.463798 481.68588 
L 302.424852 481.68588 
L 302.705003 481.844386 
L 304.666057 481.844386 
L 304.946208 481.993028 
L 306.907262 481.993028 
L 307.187413 482.132419 
L 309.148467 482.132419 
L 309.428618 482.263135 
L 311.389672 482.263135 
L 311.669822 482.385715 
L 313.630877 482.385715 
L 314.191178 482.500666 
L 318.113287 482.608463 
L 318.673588 482.709552 
L 322.595697 482.804349 
L 323.155998 482.893246 
L 327.078107 482.97661 
L 327.638408 483.054787 
L 331.560516 483.128097 
L 332.120818 483.196846 
L 336.042926 483.261315 
L 336.603228 483.321772 
L 342.766541 483.431633 
L 343.606993 483.48149 
L 349.490156 483.572089 
L 350.330608 483.613205 
L 358.454976 483.721826 
L 359.575578 483.753622 
L 369.661001 483.862214 
L 371.061754 483.885273 
L 383.10823 483.980748 
L 385.629586 484.011137 
L 410.00269 484.116185 
L 415.045401 484.136618 
L 871.690909 484.232727 
L 871.690909 484.232727 
" style="fill:none;stroke:#bfbbd9;stroke-linecap:square;stroke-width:1.5;"/>
   </g>
   <g id="patch_3">
    <path d="M 126 504 
L 126 69.12 
" style="fill:none;stroke:#ffffff;stroke-linecap:square;stroke-linejoin:miter;stroke-width:0.8;"/>
   </g>
   <g id="patch_4">
    <path d="M 907.2 504 
L 907.2 69.12 
" style="fill:none;stroke:#ffffff;stroke-linecap:square;stroke-linejoin:miter;stroke-width:0.8;"/>
   </g>
   <g id="patch_5">
    <path d="M 126 504 
L 907.2 504 
" style="fill:none;stroke:#ffffff;stroke-linecap:square;stroke-linejoin:miter;stroke-width:0.8;"/>
   </g>
   <g id="patch_6">
    <path d="M 126 69.12 
L 907.2 69.12 
" style="fill:none;stroke:#ffffff;stroke-linecap:square;stroke-linejoin:miter;stroke-width:0.8;"/>
   </g>
   <g id="text_17">
    <!-- instance 20 with error 0.00040580298265191495 -->
    <g style="fill:#ffffff;" transform="translate(366.594375 63.12)scale(0.12 -0.12)">
     <defs>
      <path d="M 2834 3397 
L 2834 2853 
Q 2591 2978 2328 3040 
Q 2066 3103 1784 3103 
Q 1356 3103 1142 2972 
Q 928 2841 928 2578 
Q 928 2378 1081 2264 
Q 1234 2150 1697 2047 
L 1894 2003 
Q 2506 1872 2764 1633 
Q 3022 1394 3022 966 
Q 3022 478 2636 193 
Q 2250 -91 1575 -91 
Q 1294 -91 989 -36 
Q 684 19 347 128 
L 347 722 
Q 666 556 975 473 
Q 1284 391 1588 391 
Q 1994 391 2212 530 
Q 2431 669 2431 922 
Q 2431 1156 2273 1281 
Q 2116 1406 1581 1522 
L 1381 1569 
Q 847 1681 609 1914 
Q 372 2147 372 2553 
Q 372 3047 722 3315 
Q 1072 3584 1716 3584 
Q 2034 3584 2315 3537 
Q 2597 3491 2834 3397 
z
" id="DejaVuSans-73" transform="scale(0.015625)"/>
      <path d="M 3122 3366 
L 3122 2828 
Q 2878 2963 2633 3030 
Q 2388 3097 2138 3097 
Q 1578 3097 1268 2742 
Q 959 2388 959 1747 
Q 959 1106 1268 751 
Q 1578 397 2138 397 
Q 2388 397 2633 464 
Q 2878 531 3122 666 
L 3122 134 
Q 2881 22 2623 -34 
Q 2366 -91 2075 -91 
Q 1284 -91 818 406 
Q 353 903 353 1747 
Q 353 2603 823 3093 
Q 1294 3584 2113 3584 
Q 2378 3584 2631 3529 
Q 2884 3475 3122 3366 
z
" id="DejaVuSans-63" transform="scale(0.015625)"/>
      <path id="DejaVuSans-20" transform="scale(0.015625)"/>
      <path d="M 269 3500 
L 844 3500 
L 1563 769 
L 2278 3500 
L 2956 3500 
L 3675 769 
L 4391 3500 
L 4966 3500 
L 4050 0 
L 3372 0 
L 2619 2869 
L 1863 0 
L 1184 0 
L 269 3500 
z
" id="DejaVuSans-77" transform="scale(0.015625)"/>
      <path d="M 3513 2113 
L 3513 0 
L 2938 0 
L 2938 2094 
Q 2938 2591 2744 2837 
Q 2550 3084 2163 3084 
Q 1697 3084 1428 2787 
Q 1159 2491 1159 1978 
L 1159 0 
L 581 0 
L 581 4863 
L 1159 4863 
L 1159 2956 
Q 1366 3272 1645 3428 
Q 1925 3584 2291 3584 
Q 2894 3584 3203 3211 
Q 3513 2838 3513 2113 
z
" id="DejaVuSans-68" transform="scale(0.015625)"/>
      <path d="M 684 794 
L 1344 794 
L 1344 0 
L 684 0 
L 684 794 
z
" id="DejaVuSans-2e" transform="scale(0.015625)"/>
      <path d="M 2419 4116 
L 825 1625 
L 2419 1625 
L 2419 4116 
z
M 2253 4666 
L 3047 4666 
L 3047 1625 
L 3713 1625 
L 3713 1100 
L 3047 1100 
L 3047 0 
L 2419 0 
L 2419 1100 
L 313 1100 
L 313 1709 
L 2253 4666 
z
" id="DejaVuSans-34" transform="scale(0.015625)"/>
      <path d="M 2034 2216 
Q 1584 2216 1326 1975 
Q 1069 1734 1069 1313 
Q 1069 891 1326 650 
Q 1584 409 2034 409 
Q 2484 409 2743 651 
Q 3003 894 3003 1313 
Q 3003 1734 2745 1975 
Q 2488 2216 2034 2216 
z
M 1403 2484 
Q 997 2584 770 2862 
Q 544 3141 544 3541 
Q 544 4100 942 4425 
Q 1341 4750 2034 4750 
Q 2731 4750 3128 4425 
Q 3525 4100 3525 3541 
Q 3525 3141 3298 2862 
Q 3072 2584 2669 2484 
Q 3125 2378 3379 2068 
Q 3634 1759 3634 1313 
Q 3634 634 3220 271 
Q 2806 -91 2034 -91 
Q 1263 -91 848 271 
Q 434 634 434 1313 
Q 434 1759 690 2068 
Q 947 2378 1403 2484 
z
M 1172 3481 
Q 1172 3119 1398 2916 
Q 1625 2713 2034 2713 
Q 2441 2713 2670 2916 
Q 2900 3119 2900 3481 
Q 2900 3844 2670 4047 
Q 2441 4250 2034 4250 
Q 1625 4250 1398 4047 
Q 1172 3844 1172 3481 
z
" id="DejaVuSans-38" transform="scale(0.015625)"/>
      <path d="M 703 97 
L 703 672 
Q 941 559 1184 500 
Q 1428 441 1663 441 
Q 2288 441 2617 861 
Q 2947 1281 2994 2138 
Q 2813 1869 2534 1725 
Q 2256 1581 1919 1581 
Q 1219 1581 811 2004 
Q 403 2428 403 3163 
Q 403 3881 828 4315 
Q 1253 4750 1959 4750 
Q 2769 4750 3195 4129 
Q 3622 3509 3622 2328 
Q 3622 1225 3098 567 
Q 2575 -91 1691 -91 
Q 1453 -91 1209 -44 
Q 966 3 703 97 
z
M 1959 2075 
Q 2384 2075 2632 2365 
Q 2881 2656 2881 3163 
Q 2881 3666 2632 3958 
Q 2384 4250 1959 4250 
Q 1534 4250 1286 3958 
Q 1038 3666 1038 3163 
Q 1038 2656 1286 2365 
Q 1534 2075 1959 2075 
z
" id="DejaVuSans-39" transform="scale(0.015625)"/>
      <path d="M 2113 2584 
Q 1688 2584 1439 2293 
Q 1191 2003 1191 1497 
Q 1191 994 1439 701 
Q 1688 409 2113 409 
Q 2538 409 2786 701 
Q 3034 994 3034 1497 
Q 3034 2003 2786 2293 
Q 2538 2584 2113 2584 
z
M 3366 4563 
L 3366 3988 
Q 3128 4100 2886 4159 
Q 2644 4219 2406 4219 
Q 1781 4219 1451 3797 
Q 1122 3375 1075 2522 
Q 1259 2794 1537 2939 
Q 1816 3084 2150 3084 
Q 2853 3084 3261 2657 
Q 3669 2231 3669 1497 
Q 3669 778 3244 343 
Q 2819 -91 2113 -91 
Q 1303 -91 875 529 
Q 447 1150 447 2328 
Q 447 3434 972 4092 
Q 1497 4750 2381 4750 
Q 2619 4750 2861 4703 
Q 3103 4656 3366 4563 
z
" id="DejaVuSans-36" transform="scale(0.015625)"/>
     </defs>
     <use xlink:href="#DejaVuSans-69"/>
     <use x="27.783203" xlink:href="#DejaVuSans-6e"/>
     <use x="91.162109" xlink:href="#DejaVuSans-73"/>
     <use x="143.261719" xlink:href="#DejaVuSans-74"/>
     <use x="182.470703" xlink:href="#DejaVuSans-61"/>
     <use x="243.75" xlink:href="#DejaVuSans-6e"/>
     <use x="307.128906" xlink:href="#DejaVuSans-63"/>
     <use x="362.109375" xlink:href="#DejaVuSans-65"/>
     <use x="423.632812" xlink:href="#DejaVuSans-20"/>
     <use x="455.419922" xlink:href="#DejaVuSans-32"/>
     <use x="519.042969" xlink:href="#DejaVuSans-30"/>
     <use x="582.666016" xlink:href="#DejaVuSans-20"/>
     <use x="614.453125" xlink:href="#DejaVuSans-77"/>
     <use x="696.240234" xlink:href="#DejaVuSans-69"/>
     <use x="724.023438" xlink:href="#DejaVuSans-74"/>
     <use x="763.232422" xlink:href="#DejaVuSans-68"/>
     <use x="826.611328" xlink:href="#DejaVuSans-20"/>
     <use x="858.398438" xlink:href="#DejaVuSans-65"/>
     <use x="919.921875" xlink:href="#DejaVuSans-72"/>
     <use x="959.285156" xlink:href="#DejaVuSans-72"/>
     <use x="998.148438" xlink:href="#DejaVuSans-6f"/>
     <use x="1059.330078" xlink:href="#DejaVuSans-72"/>
     <use x="1100.443359" xlink:href="#DejaVuSans-20"/>
     <use x="1132.230469" xlink:href="#DejaVuSans-30"/>
     <use x="1195.853516" xlink:href="#DejaVuSans-2e"/>
     <use x="1227.640625" xlink:href="#DejaVuSans-30"/>
     <use x="1291.263672" xlink:href="#DejaVuSans-30"/>
     <use x="1354.886719" xlink:href="#DejaVuSans-30"/>
     <use x="1418.509766" xlink:href="#DejaVuSans-34"/>
     <use x="1482.132812" xlink:href="#DejaVuSans-30"/>
     <use x="1545.755859" xlink:href="#DejaVuSans-35"/>
     <use x="1609.378906" xlink:href="#DejaVuSans-38"/>
     <use x="1673.001953" xlink:href="#DejaVuSans-30"/>
     <use x="1736.625" xlink:href="#DejaVuSans-32"/>
     <use x="1800.248047" xlink:href="#DejaVuSans-39"/>
     <use x="1863.871094" xlink:href="#DejaVuSans-38"/>
     <use x="1927.494141" xlink:href="#DejaVuSans-32"/>
     <use x="1991.117188" xlink:href="#DejaVuSans-36"/>
     <use x="2054.740234" xlink:href="#DejaVuSans-35"/>
     <use x="2118.363281" xlink:href="#DejaVuSans-31"/>
     <use x="2181.986328" xlink:href="#DejaVuSans-39"/>
     <use x="2245.609375" xlink:href="#DejaVuSans-31"/>
     <use x="2309.232422" xlink:href="#DejaVuSans-34"/>
     <use x="2372.855469" xlink:href="#DejaVuSans-39"/>
     <use x="2436.478516" xlink:href="#DejaVuSans-35"/>
    </g>
   </g>
   <g id="legend_1">
    <g id="patch_7">
     <path d="M 805.348438 499 
L 900.2 499 
Q 902.2 499 902.2 497 
L 902.2 453.965625 
Q 902.2 451.965625 900.2 451.965625 
L 805.348438 451.965625 
Q 803.348438 451.965625 803.348438 453.965625 
L 803.348438 497 
Q 803.348438 499 805.348438 499 
z
" style="opacity:0.8;stroke:#cccccc;stroke-linejoin:miter;"/>
    </g>
    <g id="line2d_19">
     <path d="M 807.348438 460.064062 
L 827.348438 460.064062 
" style="fill:none;stroke:#8dd3c7;stroke-linecap:square;stroke-width:1.5;"/>
    </g>
    <g id="line2d_20"/>
    <g id="text_18">
     <!-- cost -->
     <g style="fill:#ffffff;" transform="translate(835.348438 463.564062)scale(0.1 -0.1)">
      <use xlink:href="#DejaVuSans-63"/>
      <use x="54.980469" xlink:href="#DejaVuSans-6f"/>
      <use x="116.162109" xlink:href="#DejaVuSans-73"/>
      <use x="168.261719" xlink:href="#DejaVuSans-74"/>
     </g>
    </g>
    <g id="line2d_21">
     <path d="M 807.348438 474.742188 
L 827.348438 474.742188 
" style="fill:none;stroke:#feffb3;stroke-linecap:square;stroke-width:1.5;"/>
    </g>
    <g id="line2d_22"/>
    <g id="text_19">
     <!-- best cost -->
     <g style="fill:#ffffff;" transform="translate(835.348438 478.242188)scale(0.1 -0.1)">
      <defs>
       <path d="M 3116 1747 
Q 3116 2381 2855 2742 
Q 2594 3103 2138 3103 
Q 1681 3103 1420 2742 
Q 1159 2381 1159 1747 
Q 1159 1113 1420 752 
Q 1681 391 2138 391 
Q 2594 391 2855 752 
Q 3116 1113 3116 1747 
z
M 1159 2969 
Q 1341 3281 1617 3432 
Q 1894 3584 2278 3584 
Q 2916 3584 3314 3078 
Q 3713 2572 3713 1747 
Q 3713 922 3314 415 
Q 2916 -91 2278 -91 
Q 1894 -91 1617 61 
Q 1341 213 1159 525 
L 1159 0 
L 581 0 
L 581 4863 
L 1159 4863 
L 1159 2969 
z
" id="DejaVuSans-62" transform="scale(0.015625)"/>
      </defs>
      <use xlink:href="#DejaVuSans-62"/>
      <use x="63.476562" xlink:href="#DejaVuSans-65"/>
      <use x="125" xlink:href="#DejaVuSans-73"/>
      <use x="177.099609" xlink:href="#DejaVuSans-74"/>
      <use x="216.308594" xlink:href="#DejaVuSans-20"/>
      <use x="248.095703" xlink:href="#DejaVuSans-63"/>
      <use x="303.076172" xlink:href="#DejaVuSans-6f"/>
      <use x="364.257812" xlink:href="#DejaVuSans-73"/>
      <use x="416.357422" xlink:href="#DejaVuSans-74"/>
     </g>
    </g>
    <g id="line2d_23">
     <path d="M 807.348438 489.420313 
L 827.348438 489.420313 
" style="fill:none;stroke:#bfbbd9;stroke-linecap:square;stroke-width:1.5;"/>
    </g>
    <g id="line2d_24"/>
    <g id="text_20">
     <!-- temperature -->
     <g style="fill:#ffffff;" transform="translate(835.348438 492.920313)scale(0.1 -0.1)">
      <defs>
       <path d="M 3328 2828 
Q 3544 3216 3844 3400 
Q 4144 3584 4550 3584 
Q 5097 3584 5394 3201 
Q 5691 2819 5691 2113 
L 5691 0 
L 5113 0 
L 5113 2094 
Q 5113 2597 4934 2840 
Q 4756 3084 4391 3084 
Q 3944 3084 3684 2787 
Q 3425 2491 3425 1978 
L 3425 0 
L 2847 0 
L 2847 2094 
Q 2847 2600 2669 2842 
Q 2491 3084 2119 3084 
Q 1678 3084 1418 2786 
Q 1159 2488 1159 1978 
L 1159 0 
L 581 0 
L 581 3500 
L 1159 3500 
L 1159 2956 
Q 1356 3278 1631 3431 
Q 1906 3584 2284 3584 
Q 2666 3584 2933 3390 
Q 3200 3197 3328 2828 
z
" id="DejaVuSans-6d" transform="scale(0.015625)"/>
       <path d="M 1159 525 
L 1159 -1331 
L 581 -1331 
L 581 3500 
L 1159 3500 
L 1159 2969 
Q 1341 3281 1617 3432 
Q 1894 3584 2278 3584 
Q 2916 3584 3314 3078 
Q 3713 2572 3713 1747 
Q 3713 922 3314 415 
Q 2916 -91 2278 -91 
Q 1894 -91 1617 61 
Q 1341 213 1159 525 
z
M 3116 1747 
Q 3116 2381 2855 2742 
Q 2594 3103 2138 3103 
Q 1681 3103 1420 2742 
Q 1159 2381 1159 1747 
Q 1159 1113 1420 752 
Q 1681 391 2138 391 
Q 2594 391 2855 752 
Q 3116 1113 3116 1747 
z
" id="DejaVuSans-70" transform="scale(0.015625)"/>
       <path d="M 544 1381 
L 544 3500 
L 1119 3500 
L 1119 1403 
Q 1119 906 1312 657 
Q 1506 409 1894 409 
Q 2359 409 2629 706 
Q 2900 1003 2900 1516 
L 2900 3500 
L 3475 3500 
L 3475 0 
L 2900 0 
L 2900 538 
Q 2691 219 2414 64 
Q 2138 -91 1772 -91 
Q 1169 -91 856 284 
Q 544 659 544 1381 
z
M 1991 3584 
L 1991 3584 
z
" id="DejaVuSans-75" transform="scale(0.015625)"/>
      </defs>
      <use xlink:href="#DejaVuSans-74"/>
      <use x="39.208984" xlink:href="#DejaVuSans-65"/>
      <use x="100.732422" xlink:href="#DejaVuSans-6d"/>
      <use x="198.144531" xlink:href="#DejaVuSans-70"/>
      <use x="261.621094" xlink:href="#DejaVuSans-65"/>
      <use x="323.144531" xlink:href="#DejaVuSans-72"/>
      <use x="364.257812" xlink:href="#DejaVuSans-61"/>
      <use x="425.537109" xlink:href="#DejaVuSans-74"/>
      <use x="464.746094" xlink:href="#DejaVuSans-75"/>
      <use x="528.125" xlink:href="#DejaVuSans-72"/>
      <use x="566.988281" xlink:href="#DejaVuSans-65"/>
     </g>
    </g>
   </g>
  </g>
 </g>
 <defs>
  <clipPath id="p97c7d03371">
   <rect height="434.88" width="781.2" x="126" y="69.12"/>
  </clipPath>
 </defs>
</svg>
