<?xml version="1.0" encoding="utf-8" standalone="no"?>
<!DOCTYPE svg PUBLIC "-//W3C//DTD SVG 1.1//EN"
  "http://www.w3.org/Graphics/SVG/1.1/DTD/svg11.dtd">
<svg height="576pt" version="1.1" viewBox="0 0 1008 576" width="1008pt" xmlns="http://www.w3.org/2000/svg" xmlns:xlink="http://www.w3.org/1999/xlink">
 <metadata>
  <rdf:RDF xmlns:cc="http://creativecommons.org/ns#" xmlns:dc="http://purl.org/dc/elements/1.1/" xmlns:rdf="http://www.w3.org/1999/02/22-rdf-syntax-ns#">
   <cc:Work>
    <dc:type rdf:resource="http://purl.org/dc/dcmitype/StillImage"/>
    <dc:date>2022-01-13T19:11:26.376565</dc:date>
    <dc:format>image/svg+xml</dc:format>
    <dc:creator>
     <cc:Agent>
      <dc:title>Matplotlib v3.4.3, https://matplotlib.org/</dc:title>
     </cc:Agent>
    </dc:creator>
   </cc:Work>
  </rdf:RDF>
 </metadata>
 <defs>
  <style type="text/css">*{stroke-linecap:butt;stroke-linejoin:round;}</style>
 </defs>
 <g id="figure_1">
  <g id="patch_1">
   <path d="M 0 576 
L 1008 576 
L 1008 0 
L 0 0 
z
"/>
  </g>
  <g id="axes_1">
   <g id="patch_2">
    <path d="M 126 504 
L 907.2 504 
L 907.2 69.12 
L 126 69.12 
z
"/>
   </g>
   <g id="matplotlib.axis_1">
    <g id="xtick_1">
     <g id="line2d_1">
      <defs>
       <path d="M 0 0 
L 0 3.5 
" id="m63a11e3ccc" style="stroke:#ffffff;stroke-width:0.8;"/>
      </defs>
      <g>
       <use style="fill:#ffffff;stroke:#ffffff;stroke-width:0.8;" x="161.509091" xlink:href="#m63a11e3ccc" y="504"/>
      </g>
     </g>
     <g id="text_1">
      <!-- 0 -->
      <g style="fill:#ffffff;" transform="translate(158.327841 518.598438)scale(0.1 -0.1)">
       <defs>
        <path d="M 2034 4250 
Q 1547 4250 1301 3770 
Q 1056 3291 1056 2328 
Q 1056 1369 1301 889 
Q 1547 409 2034 409 
Q 2525 409 2770 889 
Q 3016 1369 3016 2328 
Q 3016 3291 2770 3770 
Q 2525 4250 2034 4250 
z
M 2034 4750 
Q 2819 4750 3233 4129 
Q 3647 3509 3647 2328 
Q 3647 1150 3233 529 
Q 2819 -91 2034 -91 
Q 1250 -91 836 529 
Q 422 1150 422 2328 
Q 422 3509 836 4129 
Q 1250 4750 2034 4750 
z
" id="DejaVuSans-30" transform="scale(0.015625)"/>
       </defs>
       <use xlink:href="#DejaVuSans-30"/>
      </g>
     </g>
    </g>
    <g id="xtick_2">
     <g id="line2d_2">
      <g>
       <use style="fill:#ffffff;stroke:#ffffff;stroke-width:0.8;" x="253.15728" xlink:href="#m63a11e3ccc" y="504"/>
      </g>
     </g>
     <g id="text_2">
      <!-- 1000 -->
      <g style="fill:#ffffff;" transform="translate(240.43228 518.598438)scale(0.1 -0.1)">
       <defs>
        <path d="M 794 531 
L 1825 531 
L 1825 4091 
L 703 3866 
L 703 4441 
L 1819 4666 
L 2450 4666 
L 2450 531 
L 3481 531 
L 3481 0 
L 794 0 
L 794 531 
z
" id="DejaVuSans-31" transform="scale(0.015625)"/>
       </defs>
       <use xlink:href="#DejaVuSans-31"/>
       <use x="63.623047" xlink:href="#DejaVuSans-30"/>
       <use x="127.246094" xlink:href="#DejaVuSans-30"/>
       <use x="190.869141" xlink:href="#DejaVuSans-30"/>
      </g>
     </g>
    </g>
    <g id="xtick_3">
     <g id="line2d_3">
      <g>
       <use style="fill:#ffffff;stroke:#ffffff;stroke-width:0.8;" x="344.805469" xlink:href="#m63a11e3ccc" y="504"/>
      </g>
     </g>
     <g id="text_3">
      <!-- 2000 -->
      <g style="fill:#ffffff;" transform="translate(332.080469 518.598438)scale(0.1 -0.1)">
       <defs>
        <path d="M 1228 531 
L 3431 531 
L 3431 0 
L 469 0 
L 469 531 
Q 828 903 1448 1529 
Q 2069 2156 2228 2338 
Q 2531 2678 2651 2914 
Q 2772 3150 2772 3378 
Q 2772 3750 2511 3984 
Q 2250 4219 1831 4219 
Q 1534 4219 1204 4116 
Q 875 4013 500 3803 
L 500 4441 
Q 881 4594 1212 4672 
Q 1544 4750 1819 4750 
Q 2544 4750 2975 4387 
Q 3406 4025 3406 3419 
Q 3406 3131 3298 2873 
Q 3191 2616 2906 2266 
Q 2828 2175 2409 1742 
Q 1991 1309 1228 531 
z
" id="DejaVuSans-32" transform="scale(0.015625)"/>
       </defs>
       <use xlink:href="#DejaVuSans-32"/>
       <use x="63.623047" xlink:href="#DejaVuSans-30"/>
       <use x="127.246094" xlink:href="#DejaVuSans-30"/>
       <use x="190.869141" xlink:href="#DejaVuSans-30"/>
      </g>
     </g>
    </g>
    <g id="xtick_4">
     <g id="line2d_4">
      <g>
       <use style="fill:#ffffff;stroke:#ffffff;stroke-width:0.8;" x="436.453659" xlink:href="#m63a11e3ccc" y="504"/>
      </g>
     </g>
     <g id="text_4">
      <!-- 3000 -->
      <g style="fill:#ffffff;" transform="translate(423.728659 518.598438)scale(0.1 -0.1)">
       <defs>
        <path d="M 2597 2516 
Q 3050 2419 3304 2112 
Q 3559 1806 3559 1356 
Q 3559 666 3084 287 
Q 2609 -91 1734 -91 
Q 1441 -91 1130 -33 
Q 819 25 488 141 
L 488 750 
Q 750 597 1062 519 
Q 1375 441 1716 441 
Q 2309 441 2620 675 
Q 2931 909 2931 1356 
Q 2931 1769 2642 2001 
Q 2353 2234 1838 2234 
L 1294 2234 
L 1294 2753 
L 1863 2753 
Q 2328 2753 2575 2939 
Q 2822 3125 2822 3475 
Q 2822 3834 2567 4026 
Q 2313 4219 1838 4219 
Q 1578 4219 1281 4162 
Q 984 4106 628 3988 
L 628 4550 
Q 988 4650 1302 4700 
Q 1616 4750 1894 4750 
Q 2613 4750 3031 4423 
Q 3450 4097 3450 3541 
Q 3450 3153 3228 2886 
Q 3006 2619 2597 2516 
z
" id="DejaVuSans-33" transform="scale(0.015625)"/>
       </defs>
       <use xlink:href="#DejaVuSans-33"/>
       <use x="63.623047" xlink:href="#DejaVuSans-30"/>
       <use x="127.246094" xlink:href="#DejaVuSans-30"/>
       <use x="190.869141" xlink:href="#DejaVuSans-30"/>
      </g>
     </g>
    </g>
    <g id="xtick_5">
     <g id="line2d_5">
      <g>
       <use style="fill:#ffffff;stroke:#ffffff;stroke-width:0.8;" x="528.101848" xlink:href="#m63a11e3ccc" y="504"/>
      </g>
     </g>
     <g id="text_5">
      <!-- 4000 -->
      <g style="fill:#ffffff;" transform="translate(515.376848 518.598438)scale(0.1 -0.1)">
       <defs>
        <path d="M 2419 4116 
L 825 1625 
L 2419 1625 
L 2419 4116 
z
M 2253 4666 
L 3047 4666 
L 3047 1625 
L 3713 1625 
L 3713 1100 
L 3047 1100 
L 3047 0 
L 2419 0 
L 2419 1100 
L 313 1100 
L 313 1709 
L 2253 4666 
z
" id="DejaVuSans-34" transform="scale(0.015625)"/>
       </defs>
       <use xlink:href="#DejaVuSans-34"/>
       <use x="63.623047" xlink:href="#DejaVuSans-30"/>
       <use x="127.246094" xlink:href="#DejaVuSans-30"/>
       <use x="190.869141" xlink:href="#DejaVuSans-30"/>
      </g>
     </g>
    </g>
    <g id="xtick_6">
     <g id="line2d_6">
      <g>
       <use style="fill:#ffffff;stroke:#ffffff;stroke-width:0.8;" x="619.750037" xlink:href="#m63a11e3ccc" y="504"/>
      </g>
     </g>
     <g id="text_6">
      <!-- 5000 -->
      <g style="fill:#ffffff;" transform="translate(607.025037 518.598438)scale(0.1 -0.1)">
       <defs>
        <path d="M 691 4666 
L 3169 4666 
L 3169 4134 
L 1269 4134 
L 1269 2991 
Q 1406 3038 1543 3061 
Q 1681 3084 1819 3084 
Q 2600 3084 3056 2656 
Q 3513 2228 3513 1497 
Q 3513 744 3044 326 
Q 2575 -91 1722 -91 
Q 1428 -91 1123 -41 
Q 819 9 494 109 
L 494 744 
Q 775 591 1075 516 
Q 1375 441 1709 441 
Q 2250 441 2565 725 
Q 2881 1009 2881 1497 
Q 2881 1984 2565 2268 
Q 2250 2553 1709 2553 
Q 1456 2553 1204 2497 
Q 953 2441 691 2322 
L 691 4666 
z
" id="DejaVuSans-35" transform="scale(0.015625)"/>
       </defs>
       <use xlink:href="#DejaVuSans-35"/>
       <use x="63.623047" xlink:href="#DejaVuSans-30"/>
       <use x="127.246094" xlink:href="#DejaVuSans-30"/>
       <use x="190.869141" xlink:href="#DejaVuSans-30"/>
      </g>
     </g>
    </g>
    <g id="xtick_7">
     <g id="line2d_7">
      <g>
       <use style="fill:#ffffff;stroke:#ffffff;stroke-width:0.8;" x="711.398226" xlink:href="#m63a11e3ccc" y="504"/>
      </g>
     </g>
     <g id="text_7">
      <!-- 6000 -->
      <g style="fill:#ffffff;" transform="translate(698.673226 518.598438)scale(0.1 -0.1)">
       <defs>
        <path d="M 2113 2584 
Q 1688 2584 1439 2293 
Q 1191 2003 1191 1497 
Q 1191 994 1439 701 
Q 1688 409 2113 409 
Q 2538 409 2786 701 
Q 3034 994 3034 1497 
Q 3034 2003 2786 2293 
Q 2538 2584 2113 2584 
z
M 3366 4563 
L 3366 3988 
Q 3128 4100 2886 4159 
Q 2644 4219 2406 4219 
Q 1781 4219 1451 3797 
Q 1122 3375 1075 2522 
Q 1259 2794 1537 2939 
Q 1816 3084 2150 3084 
Q 2853 3084 3261 2657 
Q 3669 2231 3669 1497 
Q 3669 778 3244 343 
Q 2819 -91 2113 -91 
Q 1303 -91 875 529 
Q 447 1150 447 2328 
Q 447 3434 972 4092 
Q 1497 4750 2381 4750 
Q 2619 4750 2861 4703 
Q 3103 4656 3366 4563 
z
" id="DejaVuSans-36" transform="scale(0.015625)"/>
       </defs>
       <use xlink:href="#DejaVuSans-36"/>
       <use x="63.623047" xlink:href="#DejaVuSans-30"/>
       <use x="127.246094" xlink:href="#DejaVuSans-30"/>
       <use x="190.869141" xlink:href="#DejaVuSans-30"/>
      </g>
     </g>
    </g>
    <g id="xtick_8">
     <g id="line2d_8">
      <g>
       <use style="fill:#ffffff;stroke:#ffffff;stroke-width:0.8;" x="803.046415" xlink:href="#m63a11e3ccc" y="504"/>
      </g>
     </g>
     <g id="text_8">
      <!-- 7000 -->
      <g style="fill:#ffffff;" transform="translate(790.321415 518.598438)scale(0.1 -0.1)">
       <defs>
        <path d="M 525 4666 
L 3525 4666 
L 3525 4397 
L 1831 0 
L 1172 0 
L 2766 4134 
L 525 4134 
L 525 4666 
z
" id="DejaVuSans-37" transform="scale(0.015625)"/>
       </defs>
       <use xlink:href="#DejaVuSans-37"/>
       <use x="63.623047" xlink:href="#DejaVuSans-30"/>
       <use x="127.246094" xlink:href="#DejaVuSans-30"/>
       <use x="190.869141" xlink:href="#DejaVuSans-30"/>
      </g>
     </g>
    </g>
    <g id="xtick_9">
     <g id="line2d_9">
      <g>
       <use style="fill:#ffffff;stroke:#ffffff;stroke-width:0.8;" x="894.694605" xlink:href="#m63a11e3ccc" y="504"/>
      </g>
     </g>
     <g id="text_9">
      <!-- 8000 -->
      <g style="fill:#ffffff;" transform="translate(881.969605 518.598438)scale(0.1 -0.1)">
       <defs>
        <path d="M 2034 2216 
Q 1584 2216 1326 1975 
Q 1069 1734 1069 1313 
Q 1069 891 1326 650 
Q 1584 409 2034 409 
Q 2484 409 2743 651 
Q 3003 894 3003 1313 
Q 3003 1734 2745 1975 
Q 2488 2216 2034 2216 
z
M 1403 2484 
Q 997 2584 770 2862 
Q 544 3141 544 3541 
Q 544 4100 942 4425 
Q 1341 4750 2034 4750 
Q 2731 4750 3128 4425 
Q 3525 4100 3525 3541 
Q 3525 3141 3298 2862 
Q 3072 2584 2669 2484 
Q 3125 2378 3379 2068 
Q 3634 1759 3634 1313 
Q 3634 634 3220 271 
Q 2806 -91 2034 -91 
Q 1263 -91 848 271 
Q 434 634 434 1313 
Q 434 1759 690 2068 
Q 947 2378 1403 2484 
z
M 1172 3481 
Q 1172 3119 1398 2916 
Q 1625 2713 2034 2713 
Q 2441 2713 2670 2916 
Q 2900 3119 2900 3481 
Q 2900 3844 2670 4047 
Q 2441 4250 2034 4250 
Q 1625 4250 1398 4047 
Q 1172 3844 1172 3481 
z
" id="DejaVuSans-38" transform="scale(0.015625)"/>
       </defs>
       <use xlink:href="#DejaVuSans-38"/>
       <use x="63.623047" xlink:href="#DejaVuSans-30"/>
       <use x="127.246094" xlink:href="#DejaVuSans-30"/>
       <use x="190.869141" xlink:href="#DejaVuSans-30"/>
      </g>
     </g>
    </g>
    <g id="text_10">
     <!-- iteration -->
     <g style="fill:#ffffff;" transform="translate(495.477344 532.276562)scale(0.1 -0.1)">
      <defs>
       <path d="M 603 3500 
L 1178 3500 
L 1178 0 
L 603 0 
L 603 3500 
z
M 603 4863 
L 1178 4863 
L 1178 4134 
L 603 4134 
L 603 4863 
z
" id="DejaVuSans-69" transform="scale(0.015625)"/>
       <path d="M 1172 4494 
L 1172 3500 
L 2356 3500 
L 2356 3053 
L 1172 3053 
L 1172 1153 
Q 1172 725 1289 603 
Q 1406 481 1766 481 
L 2356 481 
L 2356 0 
L 1766 0 
Q 1100 0 847 248 
Q 594 497 594 1153 
L 594 3053 
L 172 3053 
L 172 3500 
L 594 3500 
L 594 4494 
L 1172 4494 
z
" id="DejaVuSans-74" transform="scale(0.015625)"/>
       <path d="M 3597 1894 
L 3597 1613 
L 953 1613 
Q 991 1019 1311 708 
Q 1631 397 2203 397 
Q 2534 397 2845 478 
Q 3156 559 3463 722 
L 3463 178 
Q 3153 47 2828 -22 
Q 2503 -91 2169 -91 
Q 1331 -91 842 396 
Q 353 884 353 1716 
Q 353 2575 817 3079 
Q 1281 3584 2069 3584 
Q 2775 3584 3186 3129 
Q 3597 2675 3597 1894 
z
M 3022 2063 
Q 3016 2534 2758 2815 
Q 2500 3097 2075 3097 
Q 1594 3097 1305 2825 
Q 1016 2553 972 2059 
L 3022 2063 
z
" id="DejaVuSans-65" transform="scale(0.015625)"/>
       <path d="M 2631 2963 
Q 2534 3019 2420 3045 
Q 2306 3072 2169 3072 
Q 1681 3072 1420 2755 
Q 1159 2438 1159 1844 
L 1159 0 
L 581 0 
L 581 3500 
L 1159 3500 
L 1159 2956 
Q 1341 3275 1631 3429 
Q 1922 3584 2338 3584 
Q 2397 3584 2469 3576 
Q 2541 3569 2628 3553 
L 2631 2963 
z
" id="DejaVuSans-72" transform="scale(0.015625)"/>
       <path d="M 2194 1759 
Q 1497 1759 1228 1600 
Q 959 1441 959 1056 
Q 959 750 1161 570 
Q 1363 391 1709 391 
Q 2188 391 2477 730 
Q 2766 1069 2766 1631 
L 2766 1759 
L 2194 1759 
z
M 3341 1997 
L 3341 0 
L 2766 0 
L 2766 531 
Q 2569 213 2275 61 
Q 1981 -91 1556 -91 
Q 1019 -91 701 211 
Q 384 513 384 1019 
Q 384 1609 779 1909 
Q 1175 2209 1959 2209 
L 2766 2209 
L 2766 2266 
Q 2766 2663 2505 2880 
Q 2244 3097 1772 3097 
Q 1472 3097 1187 3025 
Q 903 2953 641 2809 
L 641 3341 
Q 956 3463 1253 3523 
Q 1550 3584 1831 3584 
Q 2591 3584 2966 3190 
Q 3341 2797 3341 1997 
z
" id="DejaVuSans-61" transform="scale(0.015625)"/>
       <path d="M 1959 3097 
Q 1497 3097 1228 2736 
Q 959 2375 959 1747 
Q 959 1119 1226 758 
Q 1494 397 1959 397 
Q 2419 397 2687 759 
Q 2956 1122 2956 1747 
Q 2956 2369 2687 2733 
Q 2419 3097 1959 3097 
z
M 1959 3584 
Q 2709 3584 3137 3096 
Q 3566 2609 3566 1747 
Q 3566 888 3137 398 
Q 2709 -91 1959 -91 
Q 1206 -91 779 398 
Q 353 888 353 1747 
Q 353 2609 779 3096 
Q 1206 3584 1959 3584 
z
" id="DejaVuSans-6f" transform="scale(0.015625)"/>
       <path d="M 3513 2113 
L 3513 0 
L 2938 0 
L 2938 2094 
Q 2938 2591 2744 2837 
Q 2550 3084 2163 3084 
Q 1697 3084 1428 2787 
Q 1159 2491 1159 1978 
L 1159 0 
L 581 0 
L 581 3500 
L 1159 3500 
L 1159 2956 
Q 1366 3272 1645 3428 
Q 1925 3584 2291 3584 
Q 2894 3584 3203 3211 
Q 3513 2838 3513 2113 
z
" id="DejaVuSans-6e" transform="scale(0.015625)"/>
      </defs>
      <use xlink:href="#DejaVuSans-69"/>
      <use x="27.783203" xlink:href="#DejaVuSans-74"/>
      <use x="66.992188" xlink:href="#DejaVuSans-65"/>
      <use x="128.515625" xlink:href="#DejaVuSans-72"/>
      <use x="169.628906" xlink:href="#DejaVuSans-61"/>
      <use x="230.908203" xlink:href="#DejaVuSans-74"/>
      <use x="270.117188" xlink:href="#DejaVuSans-69"/>
      <use x="297.900391" xlink:href="#DejaVuSans-6f"/>
      <use x="359.082031" xlink:href="#DejaVuSans-6e"/>
     </g>
    </g>
   </g>
   <g id="matplotlib.axis_2">
    <g id="ytick_1">
     <g id="line2d_10">
      <defs>
       <path d="M 0 0 
L -3.5 0 
" id="m81d652301e" style="stroke:#ffffff;stroke-width:0.8;"/>
      </defs>
      <g>
       <use style="fill:#ffffff;stroke:#ffffff;stroke-width:0.8;" x="126" xlink:href="#m81d652301e" y="484.232727"/>
      </g>
     </g>
     <g id="text_11">
      <!-- 0.0 -->
      <g style="fill:#ffffff;" transform="translate(103.096875 488.031946)scale(0.1 -0.1)">
       <defs>
        <path d="M 684 794 
L 1344 794 
L 1344 0 
L 684 0 
L 684 794 
z
" id="DejaVuSans-2e" transform="scale(0.015625)"/>
       </defs>
       <use xlink:href="#DejaVuSans-30"/>
       <use x="63.623047" xlink:href="#DejaVuSans-2e"/>
       <use x="95.410156" xlink:href="#DejaVuSans-30"/>
      </g>
     </g>
    </g>
    <g id="ytick_2">
     <g id="line2d_11">
      <g>
       <use style="fill:#ffffff;stroke:#ffffff;stroke-width:0.8;" x="126" xlink:href="#m81d652301e" y="419.138142"/>
      </g>
     </g>
     <g id="text_12">
      <!-- 0.5 -->
      <g style="fill:#ffffff;" transform="translate(103.096875 422.937361)scale(0.1 -0.1)">
       <use xlink:href="#DejaVuSans-30"/>
       <use x="63.623047" xlink:href="#DejaVuSans-2e"/>
       <use x="95.410156" xlink:href="#DejaVuSans-35"/>
      </g>
     </g>
    </g>
    <g id="ytick_3">
     <g id="line2d_12">
      <g>
       <use style="fill:#ffffff;stroke:#ffffff;stroke-width:0.8;" x="126" xlink:href="#m81d652301e" y="354.043557"/>
      </g>
     </g>
     <g id="text_13">
      <!-- 1.0 -->
      <g style="fill:#ffffff;" transform="translate(103.096875 357.842775)scale(0.1 -0.1)">
       <use xlink:href="#DejaVuSans-31"/>
       <use x="63.623047" xlink:href="#DejaVuSans-2e"/>
       <use x="95.410156" xlink:href="#DejaVuSans-30"/>
      </g>
     </g>
    </g>
    <g id="ytick_4">
     <g id="line2d_13">
      <g>
       <use style="fill:#ffffff;stroke:#ffffff;stroke-width:0.8;" x="126" xlink:href="#m81d652301e" y="288.948971"/>
      </g>
     </g>
     <g id="text_14">
      <!-- 1.5 -->
      <g style="fill:#ffffff;" transform="translate(103.096875 292.74819)scale(0.1 -0.1)">
       <use xlink:href="#DejaVuSans-31"/>
       <use x="63.623047" xlink:href="#DejaVuSans-2e"/>
       <use x="95.410156" xlink:href="#DejaVuSans-35"/>
      </g>
     </g>
    </g>
    <g id="ytick_5">
     <g id="line2d_14">
      <g>
       <use style="fill:#ffffff;stroke:#ffffff;stroke-width:0.8;" x="126" xlink:href="#m81d652301e" y="223.854386"/>
      </g>
     </g>
     <g id="text_15">
      <!-- 2.0 -->
      <g style="fill:#ffffff;" transform="translate(103.096875 227.653605)scale(0.1 -0.1)">
       <use xlink:href="#DejaVuSans-32"/>
       <use x="63.623047" xlink:href="#DejaVuSans-2e"/>
       <use x="95.410156" xlink:href="#DejaVuSans-30"/>
      </g>
     </g>
    </g>
    <g id="ytick_6">
     <g id="line2d_15">
      <g>
       <use style="fill:#ffffff;stroke:#ffffff;stroke-width:0.8;" x="126" xlink:href="#m81d652301e" y="158.759801"/>
      </g>
     </g>
     <g id="text_16">
      <!-- 2.5 -->
      <g style="fill:#ffffff;" transform="translate(103.096875 162.559019)scale(0.1 -0.1)">
       <use xlink:href="#DejaVuSans-32"/>
       <use x="63.623047" xlink:href="#DejaVuSans-2e"/>
       <use x="95.410156" xlink:href="#DejaVuSans-35"/>
      </g>
     </g>
    </g>
    <g id="ytick_7">
     <g id="line2d_16">
      <g>
       <use style="fill:#ffffff;stroke:#ffffff;stroke-width:0.8;" x="126" xlink:href="#m81d652301e" y="93.665215"/>
      </g>
     </g>
     <g id="text_17">
      <!-- 3.0 -->
      <g style="fill:#ffffff;" transform="translate(103.096875 97.464434)scale(0.1 -0.1)">
       <use xlink:href="#DejaVuSans-33"/>
       <use x="63.623047" xlink:href="#DejaVuSans-2e"/>
       <use x="95.410156" xlink:href="#DejaVuSans-30"/>
      </g>
     </g>
    </g>
    <g id="text_18">
     <!-- 1e8 -->
     <g style="fill:#ffffff;" transform="translate(126 66.12)scale(0.1 -0.1)">
      <use xlink:href="#DejaVuSans-31"/>
      <use x="63.623047" xlink:href="#DejaVuSans-65"/>
      <use x="125.146484" xlink:href="#DejaVuSans-38"/>
     </g>
    </g>
   </g>
   <g id="line2d_17">
    <path clip-path="url(#pa9edb5ac08)" d="M 161.509091 484.193193 
L 167.557871 484.207106 
L 171.498744 484.201369 
L 175.439616 484.203819 
L 182.863119 484.214842 
L 186.620695 484.200107 
L 190.469919 484.198827 
L 204.950333 484.200236 
L 210.449224 484.202939 
L 213.656911 484.201341 
L 217.414486 484.200744 
L 231.803252 484.192585 
L 232.353141 484.20817 
L 236.752254 484.208193 
L 256.914856 484.199418 
L 261.405617 484.203536 
L 267.912639 484.206115 
L 272.861641 484.198955 
L 277.718995 484.201624 
L 282.393052 484.19715 
L 303.472136 484.207182 
L 308.879379 484.198654 
L 317.036068 484.200602 
L 325.284405 484.200934 
L 333.62439 484.204571 
L 338.665041 484.197715 
L 348.929638 484.2067 
L 353.695344 484.204412 
L 371.475092 484.197171 
L 380.273319 484.197696 
L 381.281449 484.196915 
L 386.688692 484.193043 
L 402.177236 484.211641 
L 402.818773 484.196951 
L 413.908204 484.205588 
L 431.413008 484.196542 
L 434.529047 484.198594 
L 450.200887 484.205742 
L 451.758906 484.208543 
L 456.066371 484.209426 
L 465.689431 484.204988 
L 471.82986 484.194363 
L 476.962158 484.201675 
L 492.54235 484.201013 
L 495.658389 484.19758 
L 500.240798 484.209956 
L 504.273319 484.201061 
L 508.305839 484.211212 
L 515.546046 484.205386 
L 518.662084 484.203885 
L 523.061197 484.203085 
L 526.268884 484.203358 
L 533.692387 484.214265 
L 538.366445 484.208133 
L 555.046415 484.194052 
L 559.628825 484.199181 
L 564.211234 484.196487 
L 568.793644 484.203737 
L 574.017591 484.196188 
L 580.158019 484.204561 
L 584.832077 484.202096 
L 588.498004 484.199907 
L 599.312491 484.208823 
L 602.703474 484.207959 
L 609.760384 484.202077 
L 615.625868 484.214833 
L 620.299926 484.199326 
L 624.057502 484.198752 
L 633.405617 484.213705 
L 649.352402 484.212189 
L 662.458093 484.192891 
L 676.022025 484.202749 
L 691.418921 484.202143 
L 695.726386 484.189337 
L 871.690909 484.179259 
L 871.690909 484.179259 
" style="fill:none;stroke:#8dd3c7;stroke-linecap:square;stroke-width:1.5;"/>
   </g>
   <g id="line2d_18">
    <path clip-path="url(#pa9edb5ac08)" d="M 161.509091 484.193193 
L 871.690909 484.179259 
L 871.690909 484.179259 
" style="fill:none;stroke:#feffb3;stroke-linecap:square;stroke-width:1.5;"/>
   </g>
   <g id="line2d_19">
    <path clip-path="url(#pa9edb5ac08)" d="M 161.509091 88.887273 
L 162.333925 88.887273 
L 162.517221 104.419457 
L 163.250407 104.419457 
L 163.433703 119.341419 
L 164.166888 119.341419 
L 164.350185 133.677133 
L 165.08337 133.677133 
L 165.266667 147.44963 
L 165.999852 147.44963 
L 166.183149 160.681038 
L 166.916334 160.681038 
L 167.09963 173.392616 
L 167.832816 173.392616 
L 168.016112 185.604786 
L 168.749298 185.604786 
L 168.932594 197.337169 
L 169.66578 197.337169 
L 169.849076 208.608615 
L 170.582262 208.608615 
L 170.765558 219.437232 
L 171.498744 219.437232 
L 171.68204 229.840419 
L 172.415225 229.840419 
L 172.598522 239.834889 
L 173.331707 239.834889 
L 173.515004 249.4367 
L 174.248189 249.4367 
L 174.431486 258.661278 
L 175.164671 258.661278 
L 175.347967 267.523445 
L 176.081153 267.523445 
L 176.264449 276.037438 
L 176.997635 276.037438 
L 177.180931 284.216937 
L 177.914117 284.216937 
L 178.097413 292.075083 
L 178.830599 292.075083 
L 179.013895 299.624501 
L 179.747081 299.624501 
L 179.930377 306.87732 
L 180.663562 306.87732 
L 180.846859 313.845193 
L 181.580044 313.845193 
L 181.763341 320.539315 
L 182.496526 320.539315 
L 182.679823 326.97044 
L 183.413008 326.97044 
L 183.596305 333.148902 
L 184.32949 333.148902 
L 184.512786 339.084627 
L 185.245972 339.084627 
L 185.429268 344.787151 
L 186.162454 344.787151 
L 186.34575 350.265637 
L 187.078936 350.265637 
L 187.262232 355.528886 
L 187.995418 355.528886 
L 188.178714 360.585355 
L 188.911899 360.585355 
L 189.095196 365.443166 
L 189.828381 365.443166 
L 190.011678 370.110126 
L 190.744863 370.110126 
L 190.92816 374.593732 
L 191.661345 374.593732 
L 191.844642 378.901188 
L 192.577827 378.901188 
L 192.761123 383.039414 
L 193.494309 383.039414 
L 193.677605 387.01506 
L 194.410791 387.01506 
L 194.594087 390.834511 
L 195.327273 390.834511 
L 195.510569 394.503905 
L 196.243755 394.503905 
L 196.427051 398.029138 
L 197.160237 398.029138 
L 197.343533 401.415872 
L 198.076718 401.415872 
L 198.260015 404.66955 
L 198.9932 404.66955 
L 199.176497 407.795398 
L 199.909682 407.795398 
L 200.092979 410.798439 
L 200.826164 410.798439 
L 201.00946 413.683498 
L 201.742646 413.683498 
L 201.925942 416.45521 
L 202.659128 416.45521 
L 202.842424 419.118028 
L 203.57561 419.118028 
L 203.758906 421.67623 
L 204.492092 421.67623 
L 204.675388 424.133926 
L 205.408574 424.133926 
L 205.59187 426.495065 
L 206.325055 426.495065 
L 206.508352 428.763441 
L 207.241537 428.763441 
L 207.424834 430.942698 
L 208.158019 430.942698 
L 208.341316 433.036336 
L 209.074501 433.036336 
L 209.257797 435.047721 
L 209.990983 435.047721 
L 210.174279 436.980083 
L 210.907465 436.980083 
L 211.090761 438.836527 
L 211.823947 438.836527 
L 212.007243 440.620036 
L 212.740429 440.620036 
L 212.923725 442.333476 
L 213.656911 442.333476 
L 213.840207 443.979598 
L 214.573392 443.979598 
L 214.756689 445.561048 
L 215.489874 445.561048 
L 215.673171 447.080366 
L 216.406356 447.080366 
L 216.589653 448.539994 
L 217.322838 448.539994 
L 217.506135 449.942277 
L 218.23932 449.942277 
L 218.422616 451.289467 
L 219.155802 451.289467 
L 219.339098 452.58373 
L 220.072284 452.58373 
L 220.25558 453.827144 
L 220.988766 453.827144 
L 221.172062 455.021707 
L 221.905248 455.021707 
L 222.088544 456.169339 
L 222.821729 456.169339 
L 223.005026 457.271883 
L 223.738211 457.271883 
L 223.921508 458.33111 
L 224.654693 458.33111 
L 224.83799 459.348723 
L 225.571175 459.348723 
L 225.754472 460.326357 
L 226.487657 460.326357 
L 226.670953 461.265581 
L 227.404139 461.265581 
L 227.587435 462.167906 
L 228.320621 462.167906 
L 228.503917 463.03478 
L 229.237103 463.03478 
L 229.420399 463.867597 
L 230.153585 463.867597 
L 230.336881 464.667695 
L 231.070067 464.667695 
L 231.253363 465.436359 
L 231.986548 465.436359 
L 232.169845 466.174823 
L 232.90303 466.174823 
L 233.086327 466.884276 
L 233.819512 466.884276 
L 234.002809 467.565855 
L 234.735994 467.565855 
L 234.91929 468.220657 
L 235.652476 468.220657 
L 235.835772 468.849733 
L 236.568958 468.849733 
L 236.752254 469.454095 
L 237.48544 469.454095 
L 237.668736 470.034712 
L 238.401922 470.034712 
L 238.585218 470.592518 
L 239.318404 470.592518 
L 239.5017 471.12841 
L 240.234885 471.12841 
L 240.418182 471.643247 
L 241.151367 471.643247 
L 241.334664 472.137858 
L 242.067849 472.137858 
L 242.251146 472.613037 
L 242.984331 472.613037 
L 243.167627 473.069547 
L 243.900813 473.069547 
L 244.084109 473.508122 
L 244.817295 473.508122 
L 245.000591 473.929466 
L 245.733777 473.929466 
L 245.917073 474.334257 
L 246.650259 474.334257 
L 246.833555 474.723144 
L 247.566741 474.723144 
L 247.750037 475.096753 
L 248.483222 475.096753 
L 248.666519 475.455684 
L 249.399704 475.455684 
L 249.583001 475.800513 
L 250.316186 475.800513 
L 250.499483 476.131795 
L 251.232668 476.131795 
L 251.415965 476.450061 
L 252.14915 476.450061 
L 252.332446 476.755824 
L 253.065632 476.755824 
L 253.248928 477.049573 
L 253.982114 477.049573 
L 254.16541 477.331782 
L 254.898596 477.331782 
L 255.081892 477.602904 
L 255.815078 477.602904 
L 255.998374 477.863374 
L 256.731559 477.863374 
L 256.914856 478.113611 
L 257.648041 478.113611 
L 257.831338 478.354016 
L 258.564523 478.354016 
L 258.74782 478.584977 
L 259.481005 478.584977 
L 259.664302 478.806864 
L 260.397487 478.806864 
L 260.580783 479.020033 
L 261.313969 479.020033 
L 261.497265 479.224827 
L 262.230451 479.224827 
L 262.413747 479.421576 
L 263.146933 479.421576 
L 263.330229 479.610595 
L 264.063415 479.610595 
L 264.246711 479.792187 
L 264.979897 479.792187 
L 265.163193 479.966646 
L 265.896378 479.966646 
L 266.079675 480.13425 
L 266.81286 480.13425 
L 266.996157 480.295269 
L 267.729342 480.295269 
L 267.912639 480.449963 
L 268.645824 480.449963 
L 268.82912 480.598578 
L 269.562306 480.598578 
L 269.745602 480.741356 
L 270.478788 480.741356 
L 270.662084 480.878523 
L 271.39527 480.878523 
L 271.578566 481.010302 
L 272.311752 481.010302 
L 272.495048 481.136903 
L 273.228234 481.136903 
L 273.41153 481.258531 
L 274.144715 481.258531 
L 274.328012 481.37538 
L 275.061197 481.37538 
L 275.244494 481.487638 
L 276.894161 481.595487 
L 277.077458 481.699097 
L 278.727125 481.798638 
L 278.910421 481.894267 
L 280.560089 481.98614 
L 280.743385 482.074403 
L 282.393052 482.159198 
L 282.576349 482.240662 
L 284.226016 482.318926 
L 284.409313 482.394115 
L 286.05898 482.466349 
L 286.333925 482.535746 
L 287.891944 482.602417 
L 288.166888 482.666468 
L 289.724908 482.728002 
L 289.999852 482.787119 
L 291.557871 482.843914 
L 291.832816 482.898477 
L 294.307317 483.001257 
L 294.582262 483.049638 
L 297.056763 483.140774 
L 297.331707 483.183674 
L 299.806208 483.264484 
L 300.172801 483.302524 
L 303.472136 483.40791 
L 303.838729 483.440315 
L 307.138064 483.53009 
L 307.596305 483.557695 
L 311.720473 483.657687 
L 312.270362 483.680279 
L 317.219364 483.780602 
L 317.860902 483.798365 
L 324.55122 483.904628 
L 325.376053 483.917518 
L 334.63252 484.021606 
L 336.007243 484.037869 
L 355.711604 484.148746 
L 359.102587 484.161186 
L 871.690909 484.232727 
L 871.690909 484.232727 
" style="fill:none;stroke:#bfbbd9;stroke-linecap:square;stroke-width:1.5;"/>
   </g>
   <g id="patch_3">
    <path d="M 126 504 
L 126 69.12 
" style="fill:none;stroke:#ffffff;stroke-linecap:square;stroke-linejoin:miter;stroke-width:0.8;"/>
   </g>
   <g id="patch_4">
    <path d="M 907.2 504 
L 907.2 69.12 
" style="fill:none;stroke:#ffffff;stroke-linecap:square;stroke-linejoin:miter;stroke-width:0.8;"/>
   </g>
   <g id="patch_5">
    <path d="M 126 504 
L 907.2 504 
" style="fill:none;stroke:#ffffff;stroke-linecap:square;stroke-linejoin:miter;stroke-width:0.8;"/>
   </g>
   <g id="patch_6">
    <path d="M 126 69.12 
L 907.2 69.12 
" style="fill:none;stroke:#ffffff;stroke-linecap:square;stroke-linejoin:miter;stroke-width:0.8;"/>
   </g>
   <g id="text_19">
    <!-- instance 21 with error 0.0 -->
    <g style="fill:#ffffff;" transform="translate(439.126875 63.12)scale(0.12 -0.12)">
     <defs>
      <path d="M 2834 3397 
L 2834 2853 
Q 2591 2978 2328 3040 
Q 2066 3103 1784 3103 
Q 1356 3103 1142 2972 
Q 928 2841 928 2578 
Q 928 2378 1081 2264 
Q 1234 2150 1697 2047 
L 1894 2003 
Q 2506 1872 2764 1633 
Q 3022 1394 3022 966 
Q 3022 478 2636 193 
Q 2250 -91 1575 -91 
Q 1294 -91 989 -36 
Q 684 19 347 128 
L 347 722 
Q 666 556 975 473 
Q 1284 391 1588 391 
Q 1994 391 2212 530 
Q 2431 669 2431 922 
Q 2431 1156 2273 1281 
Q 2116 1406 1581 1522 
L 1381 1569 
Q 847 1681 609 1914 
Q 372 2147 372 2553 
Q 372 3047 722 3315 
Q 1072 3584 1716 3584 
Q 2034 3584 2315 3537 
Q 2597 3491 2834 3397 
z
" id="DejaVuSans-73" transform="scale(0.015625)"/>
      <path d="M 3122 3366 
L 3122 2828 
Q 2878 2963 2633 3030 
Q 2388 3097 2138 3097 
Q 1578 3097 1268 2742 
Q 959 2388 959 1747 
Q 959 1106 1268 751 
Q 1578 397 2138 397 
Q 2388 397 2633 464 
Q 2878 531 3122 666 
L 3122 134 
Q 2881 22 2623 -34 
Q 2366 -91 2075 -91 
Q 1284 -91 818 406 
Q 353 903 353 1747 
Q 353 2603 823 3093 
Q 1294 3584 2113 3584 
Q 2378 3584 2631 3529 
Q 2884 3475 3122 3366 
z
" id="DejaVuSans-63" transform="scale(0.015625)"/>
      <path id="DejaVuSans-20" transform="scale(0.015625)"/>
      <path d="M 269 3500 
L 844 3500 
L 1563 769 
L 2278 3500 
L 2956 3500 
L 3675 769 
L 4391 3500 
L 4966 3500 
L 4050 0 
L 3372 0 
L 2619 2869 
L 1863 0 
L 1184 0 
L 269 3500 
z
" id="DejaVuSans-77" transform="scale(0.015625)"/>
      <path d="M 3513 2113 
L 3513 0 
L 2938 0 
L 2938 2094 
Q 2938 2591 2744 2837 
Q 2550 3084 2163 3084 
Q 1697 3084 1428 2787 
Q 1159 2491 1159 1978 
L 1159 0 
L 581 0 
L 581 4863 
L 1159 4863 
L 1159 2956 
Q 1366 3272 1645 3428 
Q 1925 3584 2291 3584 
Q 2894 3584 3203 3211 
Q 3513 2838 3513 2113 
z
" id="DejaVuSans-68" transform="scale(0.015625)"/>
     </defs>
     <use xlink:href="#DejaVuSans-69"/>
     <use x="27.783203" xlink:href="#DejaVuSans-6e"/>
     <use x="91.162109" xlink:href="#DejaVuSans-73"/>
     <use x="143.261719" xlink:href="#DejaVuSans-74"/>
     <use x="182.470703" xlink:href="#DejaVuSans-61"/>
     <use x="243.75" xlink:href="#DejaVuSans-6e"/>
     <use x="307.128906" xlink:href="#DejaVuSans-63"/>
     <use x="362.109375" xlink:href="#DejaVuSans-65"/>
     <use x="423.632812" xlink:href="#DejaVuSans-20"/>
     <use x="455.419922" xlink:href="#DejaVuSans-32"/>
     <use x="519.042969" xlink:href="#DejaVuSans-31"/>
     <use x="582.666016" xlink:href="#DejaVuSans-20"/>
     <use x="614.453125" xlink:href="#DejaVuSans-77"/>
     <use x="696.240234" xlink:href="#DejaVuSans-69"/>
     <use x="724.023438" xlink:href="#DejaVuSans-74"/>
     <use x="763.232422" xlink:href="#DejaVuSans-68"/>
     <use x="826.611328" xlink:href="#DejaVuSans-20"/>
     <use x="858.398438" xlink:href="#DejaVuSans-65"/>
     <use x="919.921875" xlink:href="#DejaVuSans-72"/>
     <use x="959.285156" xlink:href="#DejaVuSans-72"/>
     <use x="998.148438" xlink:href="#DejaVuSans-6f"/>
     <use x="1059.330078" xlink:href="#DejaVuSans-72"/>
     <use x="1100.443359" xlink:href="#DejaVuSans-20"/>
     <use x="1132.230469" xlink:href="#DejaVuSans-30"/>
     <use x="1195.853516" xlink:href="#DejaVuSans-2e"/>
     <use x="1227.640625" xlink:href="#DejaVuSans-30"/>
    </g>
   </g>
   <g id="legend_1">
    <g id="patch_7">
     <path d="M 805.348438 499 
L 900.2 499 
Q 902.2 499 902.2 497 
L 902.2 453.965625 
Q 902.2 451.965625 900.2 451.965625 
L 805.348438 451.965625 
Q 803.348438 451.965625 803.348438 453.965625 
L 803.348438 497 
Q 803.348438 499 805.348438 499 
z
" style="opacity:0.8;stroke:#cccccc;stroke-linejoin:miter;"/>
    </g>
    <g id="line2d_20">
     <path d="M 807.348438 460.064062 
L 827.348438 460.064062 
" style="fill:none;stroke:#8dd3c7;stroke-linecap:square;stroke-width:1.5;"/>
    </g>
    <g id="line2d_21"/>
    <g id="text_20">
     <!-- cost -->
     <g style="fill:#ffffff;" transform="translate(835.348438 463.564062)scale(0.1 -0.1)">
      <use xlink:href="#DejaVuSans-63"/>
      <use x="54.980469" xlink:href="#DejaVuSans-6f"/>
      <use x="116.162109" xlink:href="#DejaVuSans-73"/>
      <use x="168.261719" xlink:href="#DejaVuSans-74"/>
     </g>
    </g>
    <g id="line2d_22">
     <path d="M 807.348438 474.742188 
L 827.348438 474.742188 
" style="fill:none;stroke:#feffb3;stroke-linecap:square;stroke-width:1.5;"/>
    </g>
    <g id="line2d_23"/>
    <g id="text_21">
     <!-- best cost -->
     <g style="fill:#ffffff;" transform="translate(835.348438 478.242188)scale(0.1 -0.1)">
      <defs>
       <path d="M 3116 1747 
Q 3116 2381 2855 2742 
Q 2594 3103 2138 3103 
Q 1681 3103 1420 2742 
Q 1159 2381 1159 1747 
Q 1159 1113 1420 752 
Q 1681 391 2138 391 
Q 2594 391 2855 752 
Q 3116 1113 3116 1747 
z
M 1159 2969 
Q 1341 3281 1617 3432 
Q 1894 3584 2278 3584 
Q 2916 3584 3314 3078 
Q 3713 2572 3713 1747 
Q 3713 922 3314 415 
Q 2916 -91 2278 -91 
Q 1894 -91 1617 61 
Q 1341 213 1159 525 
L 1159 0 
L 581 0 
L 581 4863 
L 1159 4863 
L 1159 2969 
z
" id="DejaVuSans-62" transform="scale(0.015625)"/>
      </defs>
      <use xlink:href="#DejaVuSans-62"/>
      <use x="63.476562" xlink:href="#DejaVuSans-65"/>
      <use x="125" xlink:href="#DejaVuSans-73"/>
      <use x="177.099609" xlink:href="#DejaVuSans-74"/>
      <use x="216.308594" xlink:href="#DejaVuSans-20"/>
      <use x="248.095703" xlink:href="#DejaVuSans-63"/>
      <use x="303.076172" xlink:href="#DejaVuSans-6f"/>
      <use x="364.257812" xlink:href="#DejaVuSans-73"/>
      <use x="416.357422" xlink:href="#DejaVuSans-74"/>
     </g>
    </g>
    <g id="line2d_24">
     <path d="M 807.348438 489.420313 
L 827.348438 489.420313 
" style="fill:none;stroke:#bfbbd9;stroke-linecap:square;stroke-width:1.5;"/>
    </g>
    <g id="line2d_25"/>
    <g id="text_22">
     <!-- temperature -->
     <g style="fill:#ffffff;" transform="translate(835.348438 492.920313)scale(0.1 -0.1)">
      <defs>
       <path d="M 3328 2828 
Q 3544 3216 3844 3400 
Q 4144 3584 4550 3584 
Q 5097 3584 5394 3201 
Q 5691 2819 5691 2113 
L 5691 0 
L 5113 0 
L 5113 2094 
Q 5113 2597 4934 2840 
Q 4756 3084 4391 3084 
Q 3944 3084 3684 2787 
Q 3425 2491 3425 1978 
L 3425 0 
L 2847 0 
L 2847 2094 
Q 2847 2600 2669 2842 
Q 2491 3084 2119 3084 
Q 1678 3084 1418 2786 
Q 1159 2488 1159 1978 
L 1159 0 
L 581 0 
L 581 3500 
L 1159 3500 
L 1159 2956 
Q 1356 3278 1631 3431 
Q 1906 3584 2284 3584 
Q 2666 3584 2933 3390 
Q 3200 3197 3328 2828 
z
" id="DejaVuSans-6d" transform="scale(0.015625)"/>
       <path d="M 1159 525 
L 1159 -1331 
L 581 -1331 
L 581 3500 
L 1159 3500 
L 1159 2969 
Q 1341 3281 1617 3432 
Q 1894 3584 2278 3584 
Q 2916 3584 3314 3078 
Q 3713 2572 3713 1747 
Q 3713 922 3314 415 
Q 2916 -91 2278 -91 
Q 1894 -91 1617 61 
Q 1341 213 1159 525 
z
M 3116 1747 
Q 3116 2381 2855 2742 
Q 2594 3103 2138 3103 
Q 1681 3103 1420 2742 
Q 1159 2381 1159 1747 
Q 1159 1113 1420 752 
Q 1681 391 2138 391 
Q 2594 391 2855 752 
Q 3116 1113 3116 1747 
z
" id="DejaVuSans-70" transform="scale(0.015625)"/>
       <path d="M 544 1381 
L 544 3500 
L 1119 3500 
L 1119 1403 
Q 1119 906 1312 657 
Q 1506 409 1894 409 
Q 2359 409 2629 706 
Q 2900 1003 2900 1516 
L 2900 3500 
L 3475 3500 
L 3475 0 
L 2900 0 
L 2900 538 
Q 2691 219 2414 64 
Q 2138 -91 1772 -91 
Q 1169 -91 856 284 
Q 544 659 544 1381 
z
M 1991 3584 
L 1991 3584 
z
" id="DejaVuSans-75" transform="scale(0.015625)"/>
      </defs>
      <use xlink:href="#DejaVuSans-74"/>
      <use x="39.208984" xlink:href="#DejaVuSans-65"/>
      <use x="100.732422" xlink:href="#DejaVuSans-6d"/>
      <use x="198.144531" xlink:href="#DejaVuSans-70"/>
      <use x="261.621094" xlink:href="#DejaVuSans-65"/>
      <use x="323.144531" xlink:href="#DejaVuSans-72"/>
      <use x="364.257812" xlink:href="#DejaVuSans-61"/>
      <use x="425.537109" xlink:href="#DejaVuSans-74"/>
      <use x="464.746094" xlink:href="#DejaVuSans-75"/>
      <use x="528.125" xlink:href="#DejaVuSans-72"/>
      <use x="566.988281" xlink:href="#DejaVuSans-65"/>
     </g>
    </g>
   </g>
  </g>
 </g>
 <defs>
  <clipPath id="pa9edb5ac08">
   <rect height="434.88" width="781.2" x="126" y="69.12"/>
  </clipPath>
 </defs>
</svg>
