<?xml version="1.0" encoding="utf-8" standalone="no"?>
<!DOCTYPE svg PUBLIC "-//W3C//DTD SVG 1.1//EN"
  "http://www.w3.org/Graphics/SVG/1.1/DTD/svg11.dtd">
<svg height="576pt" version="1.1" viewBox="0 0 1008 576" width="1008pt" xmlns="http://www.w3.org/2000/svg" xmlns:xlink="http://www.w3.org/1999/xlink">
 <metadata>
  <rdf:RDF xmlns:cc="http://creativecommons.org/ns#" xmlns:dc="http://purl.org/dc/elements/1.1/" xmlns:rdf="http://www.w3.org/1999/02/22-rdf-syntax-ns#">
   <cc:Work>
    <dc:type rdf:resource="http://purl.org/dc/dcmitype/StillImage"/>
    <dc:date>2022-01-08T03:26:38.910710</dc:date>
    <dc:format>image/svg+xml</dc:format>
    <dc:creator>
     <cc:Agent>
      <dc:title>Matplotlib v3.4.3, https://matplotlib.org/</dc:title>
     </cc:Agent>
    </dc:creator>
   </cc:Work>
  </rdf:RDF>
 </metadata>
 <defs>
  <style type="text/css">*{stroke-linecap:butt;stroke-linejoin:round;}</style>
 </defs>
 <g id="figure_1">
  <g id="patch_1">
   <path d="M 0 576 
L 1008 576 
L 1008 0 
L 0 0 
z
"/>
  </g>
  <g id="axes_1">
   <g id="patch_2">
    <path d="M 126 504 
L 907.2 504 
L 907.2 69.12 
L 126 69.12 
z
"/>
   </g>
   <g id="matplotlib.axis_1">
    <g id="xtick_1">
     <g id="line2d_1">
      <defs>
       <path d="M 0 0 
L 0 3.5 
" id="ma128ea12c6" style="stroke:#ffffff;stroke-width:0.8;"/>
      </defs>
      <g>
       <use style="fill:#ffffff;stroke:#ffffff;stroke-width:0.8;" x="161.509091" xlink:href="#ma128ea12c6" y="504"/>
      </g>
     </g>
     <g id="text_1">
      <!-- 0 -->
      <g style="fill:#ffffff;" transform="translate(158.327841 518.598438)scale(0.1 -0.1)">
       <defs>
        <path d="M 2034 4250 
Q 1547 4250 1301 3770 
Q 1056 3291 1056 2328 
Q 1056 1369 1301 889 
Q 1547 409 2034 409 
Q 2525 409 2770 889 
Q 3016 1369 3016 2328 
Q 3016 3291 2770 3770 
Q 2525 4250 2034 4250 
z
M 2034 4750 
Q 2819 4750 3233 4129 
Q 3647 3509 3647 2328 
Q 3647 1150 3233 529 
Q 2819 -91 2034 -91 
Q 1250 -91 836 529 
Q 422 1150 422 2328 
Q 422 3509 836 4129 
Q 1250 4750 2034 4750 
z
" id="DejaVuSans-30" transform="scale(0.015625)"/>
       </defs>
       <use xlink:href="#DejaVuSans-30"/>
      </g>
     </g>
    </g>
    <g id="xtick_2">
     <g id="line2d_2">
      <g>
       <use style="fill:#ffffff;stroke:#ffffff;stroke-width:0.8;" x="301.916726" xlink:href="#ma128ea12c6" y="504"/>
      </g>
     </g>
     <g id="text_2">
      <!-- 500 -->
      <g style="fill:#ffffff;" transform="translate(292.372976 518.598438)scale(0.1 -0.1)">
       <defs>
        <path d="M 691 4666 
L 3169 4666 
L 3169 4134 
L 1269 4134 
L 1269 2991 
Q 1406 3038 1543 3061 
Q 1681 3084 1819 3084 
Q 2600 3084 3056 2656 
Q 3513 2228 3513 1497 
Q 3513 744 3044 326 
Q 2575 -91 1722 -91 
Q 1428 -91 1123 -41 
Q 819 9 494 109 
L 494 744 
Q 775 591 1075 516 
Q 1375 441 1709 441 
Q 2250 441 2565 725 
Q 2881 1009 2881 1497 
Q 2881 1984 2565 2268 
Q 2250 2553 1709 2553 
Q 1456 2553 1204 2497 
Q 953 2441 691 2322 
L 691 4666 
z
" id="DejaVuSans-35" transform="scale(0.015625)"/>
       </defs>
       <use xlink:href="#DejaVuSans-35"/>
       <use x="63.623047" xlink:href="#DejaVuSans-30"/>
       <use x="127.246094" xlink:href="#DejaVuSans-30"/>
      </g>
     </g>
    </g>
    <g id="xtick_3">
     <g id="line2d_3">
      <g>
       <use style="fill:#ffffff;stroke:#ffffff;stroke-width:0.8;" x="442.324361" xlink:href="#ma128ea12c6" y="504"/>
      </g>
     </g>
     <g id="text_3">
      <!-- 1000 -->
      <g style="fill:#ffffff;" transform="translate(429.599361 518.598438)scale(0.1 -0.1)">
       <defs>
        <path d="M 794 531 
L 1825 531 
L 1825 4091 
L 703 3866 
L 703 4441 
L 1819 4666 
L 2450 4666 
L 2450 531 
L 3481 531 
L 3481 0 
L 794 0 
L 794 531 
z
" id="DejaVuSans-31" transform="scale(0.015625)"/>
       </defs>
       <use xlink:href="#DejaVuSans-31"/>
       <use x="63.623047" xlink:href="#DejaVuSans-30"/>
       <use x="127.246094" xlink:href="#DejaVuSans-30"/>
       <use x="190.869141" xlink:href="#DejaVuSans-30"/>
      </g>
     </g>
    </g>
    <g id="xtick_4">
     <g id="line2d_4">
      <g>
       <use style="fill:#ffffff;stroke:#ffffff;stroke-width:0.8;" x="582.731996" xlink:href="#ma128ea12c6" y="504"/>
      </g>
     </g>
     <g id="text_4">
      <!-- 1500 -->
      <g style="fill:#ffffff;" transform="translate(570.006996 518.598438)scale(0.1 -0.1)">
       <use xlink:href="#DejaVuSans-31"/>
       <use x="63.623047" xlink:href="#DejaVuSans-35"/>
       <use x="127.246094" xlink:href="#DejaVuSans-30"/>
       <use x="190.869141" xlink:href="#DejaVuSans-30"/>
      </g>
     </g>
    </g>
    <g id="xtick_5">
     <g id="line2d_5">
      <g>
       <use style="fill:#ffffff;stroke:#ffffff;stroke-width:0.8;" x="723.139631" xlink:href="#ma128ea12c6" y="504"/>
      </g>
     </g>
     <g id="text_5">
      <!-- 2000 -->
      <g style="fill:#ffffff;" transform="translate(710.414631 518.598438)scale(0.1 -0.1)">
       <defs>
        <path d="M 1228 531 
L 3431 531 
L 3431 0 
L 469 0 
L 469 531 
Q 828 903 1448 1529 
Q 2069 2156 2228 2338 
Q 2531 2678 2651 2914 
Q 2772 3150 2772 3378 
Q 2772 3750 2511 3984 
Q 2250 4219 1831 4219 
Q 1534 4219 1204 4116 
Q 875 4013 500 3803 
L 500 4441 
Q 881 4594 1212 4672 
Q 1544 4750 1819 4750 
Q 2544 4750 2975 4387 
Q 3406 4025 3406 3419 
Q 3406 3131 3298 2873 
Q 3191 2616 2906 2266 
Q 2828 2175 2409 1742 
Q 1991 1309 1228 531 
z
" id="DejaVuSans-32" transform="scale(0.015625)"/>
       </defs>
       <use xlink:href="#DejaVuSans-32"/>
       <use x="63.623047" xlink:href="#DejaVuSans-30"/>
       <use x="127.246094" xlink:href="#DejaVuSans-30"/>
       <use x="190.869141" xlink:href="#DejaVuSans-30"/>
      </g>
     </g>
    </g>
    <g id="xtick_6">
     <g id="line2d_6">
      <g>
       <use style="fill:#ffffff;stroke:#ffffff;stroke-width:0.8;" x="863.547266" xlink:href="#ma128ea12c6" y="504"/>
      </g>
     </g>
     <g id="text_6">
      <!-- 2500 -->
      <g style="fill:#ffffff;" transform="translate(850.822266 518.598438)scale(0.1 -0.1)">
       <use xlink:href="#DejaVuSans-32"/>
       <use x="63.623047" xlink:href="#DejaVuSans-35"/>
       <use x="127.246094" xlink:href="#DejaVuSans-30"/>
       <use x="190.869141" xlink:href="#DejaVuSans-30"/>
      </g>
     </g>
    </g>
    <g id="text_7">
     <!-- iteration -->
     <g style="fill:#ffffff;" transform="translate(495.477344 532.276562)scale(0.1 -0.1)">
      <defs>
       <path d="M 603 3500 
L 1178 3500 
L 1178 0 
L 603 0 
L 603 3500 
z
M 603 4863 
L 1178 4863 
L 1178 4134 
L 603 4134 
L 603 4863 
z
" id="DejaVuSans-69" transform="scale(0.015625)"/>
       <path d="M 1172 4494 
L 1172 3500 
L 2356 3500 
L 2356 3053 
L 1172 3053 
L 1172 1153 
Q 1172 725 1289 603 
Q 1406 481 1766 481 
L 2356 481 
L 2356 0 
L 1766 0 
Q 1100 0 847 248 
Q 594 497 594 1153 
L 594 3053 
L 172 3053 
L 172 3500 
L 594 3500 
L 594 4494 
L 1172 4494 
z
" id="DejaVuSans-74" transform="scale(0.015625)"/>
       <path d="M 3597 1894 
L 3597 1613 
L 953 1613 
Q 991 1019 1311 708 
Q 1631 397 2203 397 
Q 2534 397 2845 478 
Q 3156 559 3463 722 
L 3463 178 
Q 3153 47 2828 -22 
Q 2503 -91 2169 -91 
Q 1331 -91 842 396 
Q 353 884 353 1716 
Q 353 2575 817 3079 
Q 1281 3584 2069 3584 
Q 2775 3584 3186 3129 
Q 3597 2675 3597 1894 
z
M 3022 2063 
Q 3016 2534 2758 2815 
Q 2500 3097 2075 3097 
Q 1594 3097 1305 2825 
Q 1016 2553 972 2059 
L 3022 2063 
z
" id="DejaVuSans-65" transform="scale(0.015625)"/>
       <path d="M 2631 2963 
Q 2534 3019 2420 3045 
Q 2306 3072 2169 3072 
Q 1681 3072 1420 2755 
Q 1159 2438 1159 1844 
L 1159 0 
L 581 0 
L 581 3500 
L 1159 3500 
L 1159 2956 
Q 1341 3275 1631 3429 
Q 1922 3584 2338 3584 
Q 2397 3584 2469 3576 
Q 2541 3569 2628 3553 
L 2631 2963 
z
" id="DejaVuSans-72" transform="scale(0.015625)"/>
       <path d="M 2194 1759 
Q 1497 1759 1228 1600 
Q 959 1441 959 1056 
Q 959 750 1161 570 
Q 1363 391 1709 391 
Q 2188 391 2477 730 
Q 2766 1069 2766 1631 
L 2766 1759 
L 2194 1759 
z
M 3341 1997 
L 3341 0 
L 2766 0 
L 2766 531 
Q 2569 213 2275 61 
Q 1981 -91 1556 -91 
Q 1019 -91 701 211 
Q 384 513 384 1019 
Q 384 1609 779 1909 
Q 1175 2209 1959 2209 
L 2766 2209 
L 2766 2266 
Q 2766 2663 2505 2880 
Q 2244 3097 1772 3097 
Q 1472 3097 1187 3025 
Q 903 2953 641 2809 
L 641 3341 
Q 956 3463 1253 3523 
Q 1550 3584 1831 3584 
Q 2591 3584 2966 3190 
Q 3341 2797 3341 1997 
z
" id="DejaVuSans-61" transform="scale(0.015625)"/>
       <path d="M 1959 3097 
Q 1497 3097 1228 2736 
Q 959 2375 959 1747 
Q 959 1119 1226 758 
Q 1494 397 1959 397 
Q 2419 397 2687 759 
Q 2956 1122 2956 1747 
Q 2956 2369 2687 2733 
Q 2419 3097 1959 3097 
z
M 1959 3584 
Q 2709 3584 3137 3096 
Q 3566 2609 3566 1747 
Q 3566 888 3137 398 
Q 2709 -91 1959 -91 
Q 1206 -91 779 398 
Q 353 888 353 1747 
Q 353 2609 779 3096 
Q 1206 3584 1959 3584 
z
" id="DejaVuSans-6f" transform="scale(0.015625)"/>
       <path d="M 3513 2113 
L 3513 0 
L 2938 0 
L 2938 2094 
Q 2938 2591 2744 2837 
Q 2550 3084 2163 3084 
Q 1697 3084 1428 2787 
Q 1159 2491 1159 1978 
L 1159 0 
L 581 0 
L 581 3500 
L 1159 3500 
L 1159 2956 
Q 1366 3272 1645 3428 
Q 1925 3584 2291 3584 
Q 2894 3584 3203 3211 
Q 3513 2838 3513 2113 
z
" id="DejaVuSans-6e" transform="scale(0.015625)"/>
      </defs>
      <use xlink:href="#DejaVuSans-69"/>
      <use x="27.783203" xlink:href="#DejaVuSans-74"/>
      <use x="66.992188" xlink:href="#DejaVuSans-65"/>
      <use x="128.515625" xlink:href="#DejaVuSans-72"/>
      <use x="169.628906" xlink:href="#DejaVuSans-61"/>
      <use x="230.908203" xlink:href="#DejaVuSans-74"/>
      <use x="270.117188" xlink:href="#DejaVuSans-69"/>
      <use x="297.900391" xlink:href="#DejaVuSans-6f"/>
      <use x="359.082031" xlink:href="#DejaVuSans-6e"/>
     </g>
    </g>
   </g>
   <g id="matplotlib.axis_2">
    <g id="ytick_1">
     <g id="line2d_7">
      <defs>
       <path d="M 0 0 
L -3.5 0 
" id="m8b5e4f76a8" style="stroke:#ffffff;stroke-width:0.8;"/>
      </defs>
      <g>
       <use style="fill:#ffffff;stroke:#ffffff;stroke-width:0.8;" x="126" xlink:href="#m8b5e4f76a8" y="484.232727"/>
      </g>
     </g>
     <g id="text_8">
      <!-- 0 -->
      <g style="fill:#ffffff;" transform="translate(112.6375 488.031946)scale(0.1 -0.1)">
       <use xlink:href="#DejaVuSans-30"/>
      </g>
     </g>
    </g>
    <g id="ytick_2">
     <g id="line2d_8">
      <g>
       <use style="fill:#ffffff;stroke:#ffffff;stroke-width:0.8;" x="126" xlink:href="#m8b5e4f76a8" y="434.431073"/>
      </g>
     </g>
     <g id="text_9">
      <!-- 2500 -->
      <g style="fill:#ffffff;" transform="translate(93.55 438.230292)scale(0.1 -0.1)">
       <use xlink:href="#DejaVuSans-32"/>
       <use x="63.623047" xlink:href="#DejaVuSans-35"/>
       <use x="127.246094" xlink:href="#DejaVuSans-30"/>
       <use x="190.869141" xlink:href="#DejaVuSans-30"/>
      </g>
     </g>
    </g>
    <g id="ytick_3">
     <g id="line2d_9">
      <g>
       <use style="fill:#ffffff;stroke:#ffffff;stroke-width:0.8;" x="126" xlink:href="#m8b5e4f76a8" y="384.629418"/>
      </g>
     </g>
     <g id="text_10">
      <!-- 5000 -->
      <g style="fill:#ffffff;" transform="translate(93.55 388.428637)scale(0.1 -0.1)">
       <use xlink:href="#DejaVuSans-35"/>
       <use x="63.623047" xlink:href="#DejaVuSans-30"/>
       <use x="127.246094" xlink:href="#DejaVuSans-30"/>
       <use x="190.869141" xlink:href="#DejaVuSans-30"/>
      </g>
     </g>
    </g>
    <g id="ytick_4">
     <g id="line2d_10">
      <g>
       <use style="fill:#ffffff;stroke:#ffffff;stroke-width:0.8;" x="126" xlink:href="#m8b5e4f76a8" y="334.827764"/>
      </g>
     </g>
     <g id="text_11">
      <!-- 7500 -->
      <g style="fill:#ffffff;" transform="translate(93.55 338.626982)scale(0.1 -0.1)">
       <defs>
        <path d="M 525 4666 
L 3525 4666 
L 3525 4397 
L 1831 0 
L 1172 0 
L 2766 4134 
L 525 4134 
L 525 4666 
z
" id="DejaVuSans-37" transform="scale(0.015625)"/>
       </defs>
       <use xlink:href="#DejaVuSans-37"/>
       <use x="63.623047" xlink:href="#DejaVuSans-35"/>
       <use x="127.246094" xlink:href="#DejaVuSans-30"/>
       <use x="190.869141" xlink:href="#DejaVuSans-30"/>
      </g>
     </g>
    </g>
    <g id="ytick_5">
     <g id="line2d_11">
      <g>
       <use style="fill:#ffffff;stroke:#ffffff;stroke-width:0.8;" x="126" xlink:href="#m8b5e4f76a8" y="285.026109"/>
      </g>
     </g>
     <g id="text_12">
      <!-- 10000 -->
      <g style="fill:#ffffff;" transform="translate(87.1875 288.825328)scale(0.1 -0.1)">
       <use xlink:href="#DejaVuSans-31"/>
       <use x="63.623047" xlink:href="#DejaVuSans-30"/>
       <use x="127.246094" xlink:href="#DejaVuSans-30"/>
       <use x="190.869141" xlink:href="#DejaVuSans-30"/>
       <use x="254.492188" xlink:href="#DejaVuSans-30"/>
      </g>
     </g>
    </g>
    <g id="ytick_6">
     <g id="line2d_12">
      <g>
       <use style="fill:#ffffff;stroke:#ffffff;stroke-width:0.8;" x="126" xlink:href="#m8b5e4f76a8" y="235.224455"/>
      </g>
     </g>
     <g id="text_13">
      <!-- 12500 -->
      <g style="fill:#ffffff;" transform="translate(87.1875 239.023673)scale(0.1 -0.1)">
       <use xlink:href="#DejaVuSans-31"/>
       <use x="63.623047" xlink:href="#DejaVuSans-32"/>
       <use x="127.246094" xlink:href="#DejaVuSans-35"/>
       <use x="190.869141" xlink:href="#DejaVuSans-30"/>
       <use x="254.492188" xlink:href="#DejaVuSans-30"/>
      </g>
     </g>
    </g>
    <g id="ytick_7">
     <g id="line2d_13">
      <g>
       <use style="fill:#ffffff;stroke:#ffffff;stroke-width:0.8;" x="126" xlink:href="#m8b5e4f76a8" y="185.4228"/>
      </g>
     </g>
     <g id="text_14">
      <!-- 15000 -->
      <g style="fill:#ffffff;" transform="translate(87.1875 189.222019)scale(0.1 -0.1)">
       <use xlink:href="#DejaVuSans-31"/>
       <use x="63.623047" xlink:href="#DejaVuSans-35"/>
       <use x="127.246094" xlink:href="#DejaVuSans-30"/>
       <use x="190.869141" xlink:href="#DejaVuSans-30"/>
       <use x="254.492188" xlink:href="#DejaVuSans-30"/>
      </g>
     </g>
    </g>
    <g id="ytick_8">
     <g id="line2d_14">
      <g>
       <use style="fill:#ffffff;stroke:#ffffff;stroke-width:0.8;" x="126" xlink:href="#m8b5e4f76a8" y="135.621145"/>
      </g>
     </g>
     <g id="text_15">
      <!-- 17500 -->
      <g style="fill:#ffffff;" transform="translate(87.1875 139.420364)scale(0.1 -0.1)">
       <use xlink:href="#DejaVuSans-31"/>
       <use x="63.623047" xlink:href="#DejaVuSans-37"/>
       <use x="127.246094" xlink:href="#DejaVuSans-35"/>
       <use x="190.869141" xlink:href="#DejaVuSans-30"/>
       <use x="254.492188" xlink:href="#DejaVuSans-30"/>
      </g>
     </g>
    </g>
    <g id="ytick_9">
     <g id="line2d_15">
      <g>
       <use style="fill:#ffffff;stroke:#ffffff;stroke-width:0.8;" x="126" xlink:href="#m8b5e4f76a8" y="85.819491"/>
      </g>
     </g>
     <g id="text_16">
      <!-- 20000 -->
      <g style="fill:#ffffff;" transform="translate(87.1875 89.61871)scale(0.1 -0.1)">
       <use xlink:href="#DejaVuSans-32"/>
       <use x="63.623047" xlink:href="#DejaVuSans-30"/>
       <use x="127.246094" xlink:href="#DejaVuSans-30"/>
       <use x="190.869141" xlink:href="#DejaVuSans-30"/>
       <use x="254.492188" xlink:href="#DejaVuSans-30"/>
      </g>
     </g>
    </g>
   </g>
   <g id="line2d_16">
    <path clip-path="url(#pd521aaf40c)" d="M 161.509091 307.257568 
L 162.070721 268.910294 
L 162.632352 384.111481 
L 163.193983 384.111481 
L 163.474798 405.705479 
L 163.755613 360.465656 
L 164.036428 358.115017 
L 164.317244 372.079401 
L 164.598059 417.319224 
L 164.878874 370.386145 
L 165.159689 405.725399 
L 165.440505 372.716863 
L 165.72132 323.851479 
L 166.002135 376.601392 
L 166.282951 406.223416 
L 166.563766 389.78887 
L 166.844581 366.720743 
L 167.125396 388.733075 
L 167.406212 388.733075 
L 167.687027 385.725055 
L 167.967842 437.259807 
L 168.248657 401.920553 
L 168.529473 401.920553 
L 168.810288 414.7893 
L 169.091103 373.83242 
L 169.371918 397.438404 
L 169.652734 387.776883 
L 169.933549 392.737128 
L 170.214364 392.737128 
L 170.49518 348.035163 
L 171.05681 301.221607 
L 171.337625 287.257223 
L 171.618441 287.257223 
L 171.899256 366.063361 
L 172.180071 411.16374 
L 172.741702 329.28982 
L 173.022517 325.305687 
L 173.303332 316.620279 
L 173.584148 331.620537 
L 174.145778 409.888818 
L 174.426593 409.888818 
L 174.707409 387.478073 
L 174.988224 398.334834 
L 175.269039 394.171415 
L 175.549854 408.135799 
L 175.83067 400.306979 
L 176.111485 401.123726 
L 176.3923 355.764379 
L 176.673115 422.717724 
L 176.953931 378.095441 
L 177.234746 378.095441 
L 177.515561 426.881142 
L 177.796377 381.641319 
L 178.077192 389.470139 
L 178.358007 361.939784 
L 178.919638 342.875711 
L 179.200453 370.904082 
L 179.481268 335.564828 
L 179.762083 359.38994 
L 180.042899 356.043269 
L 180.323714 346.023176 
L 180.604529 405.964447 
L 180.885345 422.478676 
L 181.16616 417.319224 
L 181.446975 407.25929 
L 181.72779 374.250753 
L 182.008606 390.545855 
L 182.289421 351.481437 
L 182.570236 362.71669 
L 182.851051 335.883559 
L 183.131867 328.572676 
L 183.412682 325.226005 
L 183.693497 330.385456 
L 184.255128 382.25886 
L 184.535943 314.189958 
L 185.097574 400.446424 
L 185.378389 397.099753 
L 185.659204 401.263171 
L 185.940019 397.279039 
L 186.220835 389.450218 
L 186.50165 368.294476 
L 186.782465 359.11105 
L 187.06328 398.992215 
L 187.344096 387.756962 
L 187.624911 434.690041 
L 187.905726 408.374847 
L 188.467357 330.006964 
L 188.748172 375.366311 
L 189.028987 379.350443 
L 189.309803 405.665637 
L 189.590618 378.832506 
L 189.871433 388.334661 
L 190.152248 388.852599 
L 190.433064 400.087852 
L 190.713879 400.087852 
L 190.994694 377.019725 
L 191.27551 428.93297 
L 191.556325 426.442887 
L 191.83714 442.658306 
L 192.117955 426.52257 
L 192.398771 423.175899 
L 192.679586 373.772658 
L 192.960401 369.788525 
L 193.241216 396.342767 
L 193.522032 357.27835 
L 193.802847 396.342767 
L 194.083662 407.199528 
L 194.645293 359.748512 
L 195.206923 279.049911 
L 195.487739 331.959188 
L 195.768554 286.719365 
L 196.049369 286.719365 
L 196.330184 264.826558 
L 196.611 287.396668 
L 196.891815 297.715571 
L 197.17263 350.565087 
L 197.453445 328.154342 
L 197.734261 375.04758 
L 198.015076 352.497391 
L 198.295891 399.43047 
L 198.576707 402.777141 
L 198.857522 414.012395 
L 199.138337 368.772571 
L 199.419152 389.071726 
L 199.980783 345.146667 
L 200.261598 387.239025 
L 200.542413 383.892354 
L 200.823229 357.338112 
L 201.104044 374.947977 
L 201.384859 352.537232 
L 201.665675 374.947977 
L 201.94649 347.417622 
L 202.227305 302.058275 
L 202.50812 279.747134 
L 202.788936 280.464278 
L 203.350566 335.843717 
L 203.631381 331.859585 
L 203.912197 314.966864 
L 204.193012 268.033785 
L 204.473827 293.074057 
L 204.754643 287.914605 
L 205.035458 293.074057 
L 205.316273 266.240925 
L 205.597088 307.795426 
L 206.158719 259.906155 
L 206.439534 273.173315 
L 206.720349 298.213587 
L 207.001165 345.146667 
L 207.28198 335.963241 
L 207.562795 380.466 
L 207.84361 371.282575 
L 208.124426 380.466 
L 208.405241 354.150806 
L 208.686056 403.554047 
L 209.247687 319.349409 
L 209.528502 274.109586 
L 210.090133 352.278263 
L 210.370948 325.724021 
L 210.651763 339.469278 
L 210.932578 343.931506 
L 211.213394 361.840181 
L 211.775024 280.723246 
L 212.05584 360.326211 
L 212.336655 321.261793 
L 212.61747 340.505152 
L 212.898285 295.145805 
L 213.179101 272.077679 
L 213.459916 320.86338 
L 213.740731 343.7323 
L 214.021546 324.48894 
L 214.302362 313.253687 
L 214.583177 270.484026 
L 215.144808 388.314741 
L 215.425623 361.760499 
L 215.706438 355.126918 
L 215.987253 358.812241 
L 216.268069 334.947288 
L 216.548884 362.756532 
L 216.829699 338.831817 
L 217.110514 420.845182 
L 217.39133 437.35941 
L 217.672145 445.18823 
L 218.233775 360.883989 
L 218.514591 333.353635 
L 219.076221 371.44194 
L 219.357037 378.593458 
L 219.637852 369.410033 
L 219.918667 369.410033 
L 220.199482 393.334748 
L 220.480298 393.334748 
L 220.761113 426.343284 
L 221.041928 426.343284 
L 221.322743 404.749287 
L 221.603559 426.343284 
L 221.884374 428.674002 
L 222.446005 383.952116 
L 222.72682 418.713671 
L 223.007635 418.713671 
L 223.28845 427.897096 
L 223.569266 445.048786 
L 224.130896 400.486265 
L 224.692527 418.833195 
L 224.973342 392.278952 
L 225.254157 383.254893 
L 225.534973 445.148389 
L 225.815788 435.964964 
L 226.096603 414.370966 
L 226.377418 419.789386 
L 226.658234 410.984454 
L 226.939049 407.637783 
L 227.219864 358.772399 
L 227.500679 357.955652 
L 228.06231 301.341131 
L 228.343125 266.001877 
L 228.904756 314.209879 
L 229.185571 372.876228 
L 229.466386 346.561034 
L 229.747202 371.182972 
L 230.028017 370.186938 
L 230.308832 341.979281 
L 230.589647 295.046202 
L 230.870463 295.046202 
L 231.151278 314.448927 
L 231.432093 287.894684 
L 231.712908 332.078712 
L 231.993724 307.03844 
L 232.274539 315.484801 
L 232.555354 305.185819 
L 232.83617 305.185819 
L 233.116985 266.121401 
L 233.3978 305.185819 
L 233.678615 293.950566 
L 233.959431 382.079574 
L 234.521061 344.628729 
L 234.801876 374.788611 
L 235.082692 449.969189 
L 235.363507 423.136058 
L 235.644322 423.136058 
L 236.205953 388.235058 
L 236.486768 372.298529 
L 236.767583 368.951857 
L 237.048399 322.018778 
L 237.329214 315.385198 
L 237.610029 289.070003 
L 237.890844 342.696425 
L 238.17166 338.712293 
L 238.452475 293.352946 
L 239.014105 381.760843 
L 239.294921 377.776711 
L 239.856551 283.55198 
L 240.418182 283.55198 
L 240.698997 303.173832 
L 240.979812 291.938579 
L 241.260628 309.807412 
L 241.822258 317.138216 
L 242.103073 340.963328 
L 242.383889 328.751962 
L 242.664704 302.436768 
L 242.945519 347.796115 
L 243.226335 331.281886 
L 243.50715 323.313621 
L 243.787965 323.313621 
L 244.349596 383.215051 
L 244.630411 416.223588 
L 245.472857 355.146839 
L 245.753672 366.162965 
L 246.034487 330.823711 
L 246.315302 366.162965 
L 246.596118 353.632868 
L 246.876933 368.872175 
L 247.157748 378.0556 
L 247.438564 359.210654 
L 247.719379 310.305429 
L 248.281009 310.305429 
L 248.561825 388.673313 
L 248.84264 363.633041 
L 249.123455 320.544649 
L 249.40427 331.40141 
L 249.685086 320.544649 
L 249.965901 320.544649 
L 250.246716 343.413569 
L 250.527532 321.819572 
L 251.089162 267.974023 
L 251.650793 406.900718 
L 252.212423 358.752479 
L 252.493238 353.951599 
L 252.774054 375.545597 
L 253.054869 348.015242 
L 253.6165 397.279039 
L 253.897315 402.179521 
L 254.17813 342.198409 
L 254.458945 333.014983 
L 255.020576 355.326125 
L 255.301391 319.986871 
L 255.582206 319.986871 
L 255.863022 395.605703 
L 256.143837 393.932367 
L 256.424652 416.243509 
L 256.705467 409.490404 
L 256.986283 386.422278 
L 257.267098 390.08768 
L 257.547913 355.18668 
L 257.828729 363.61312 
L 258.109544 412.478504 
L 258.95199 323.612431 
L 259.232805 309.807412 
L 259.51362 318.592424 
L 259.794435 318.592424 
L 260.075251 320.066553 
L 260.356066 361.023434 
L 260.636881 370.206859 
L 260.917697 349.907705 
L 261.479327 370.206859 
L 261.760142 378.035679 
L 262.321773 335.425384 
L 262.602588 343.054997 
L 263.164219 418.474623 
L 263.445034 373.115276 
L 263.725849 353.871916 
L 264.006665 368.951857 
L 264.28748 364.967725 
L 264.568295 375.983851 
L 264.84911 379.967983 
L 265.410741 297.69565 
L 265.691556 258.631232 
L 265.972371 274.627524 
L 266.253187 354.051202 
L 266.534002 369.290509 
L 266.814817 397.757134 
L 267.095632 397.757134 
L 267.376448 375.206945 
L 267.657263 342.198409 
L 267.938078 326.959102 
L 268.218894 293.372866 
L 268.499709 310.982732 
L 268.780524 264.049652 
L 269.061339 241.638908 
L 269.342155 237.654775 
L 269.62297 231.638735 
L 269.903785 255.384164 
L 270.1846 228.551033 
L 270.465416 263.890287 
L 270.746231 237.555172 
L 271.027046 269.229024 
L 271.588677 404.809049 
L 271.869492 414.610014 
L 272.150307 369.908049 
L 272.431123 343.074918 
L 272.711938 391.243078 
L 272.992753 391.243078 
L 273.273568 366.182885 
L 273.554384 376.103375 
L 273.835199 344.927539 
L 274.116014 371.242734 
L 274.39683 367.896062 
L 274.677645 341.062931 
L 274.95846 335.903479 
L 275.239275 290.663656 
L 275.520091 287.316985 
L 275.800906 400.048011 
L 276.362536 352.696597 
L 276.643352 375.007739 
L 276.924167 365.206773 
L 277.485797 270.982043 
L 278.047428 270.982043 
L 278.328243 336.341734 
L 278.609059 362.656928 
L 278.889874 343.413569 
L 279.170689 348.692544 
L 279.451504 364.668915 
L 279.73232 372.497735 
L 280.013135 337.158481 
L 280.29395 336.461258 
L 280.574765 329.927281 
L 280.855581 387.219104 
L 281.136396 392.916414 
L 281.417211 394.968242 
L 281.698027 395.665465 
L 281.978842 360.326211 
L 282.259657 369.509636 
L 282.540472 330.445218 
L 282.821288 308.851221 
L 283.102103 405.964447 
L 283.382918 392.000063 
L 283.663733 402.697459 
L 283.944549 424.291456 
L 284.225364 397.737214 
L 284.506179 389.749028 
L 284.786995 416.303271 
L 285.06781 371.063448 
L 285.348625 351.820088 
L 285.62944 351.820088 
L 285.910256 357.617001 
L 286.191071 351.063103 
L 286.471886 351.063103 
L 286.752701 349.090958 
L 287.033517 375.924089 
L 287.314332 359.40986 
L 287.875962 391.00403 
L 288.156778 383.17521 
L 288.437593 436.243853 
L 288.718408 442.379417 
L 288.999224 442.379417 
L 289.280039 403.314999 
L 289.560854 424.132091 
L 289.841669 402.538093 
L 290.122485 353.67271 
L 290.4033 393.354668 
L 290.684115 406.263257 
L 290.96493 410.625882 
L 291.245746 387.557756 
L 291.526561 410.625882 
L 291.807376 365.386059 
L 292.088192 293.990407 
L 292.369007 342.85579 
L 292.649822 362.09915 
L 292.930637 362.09915 
L 293.211453 381.880367 
L 293.492268 356.720571 
L 293.773083 313.014639 
L 294.053898 332.91538 
L 294.334714 331.939268 
L 294.615529 331.939268 
L 294.896344 327.955135 
L 295.177159 310.34527 
L 295.457975 331.939268 
L 295.73879 331.939268 
L 296.019605 320.704014 
L 296.300421 335.744114 
L 296.581236 363.274469 
L 296.862051 352.417708 
L 297.142866 330.405377 
L 297.423682 350.704531 
L 297.704497 330.405377 
L 297.985312 301.839148 
L 298.266127 256.479801 
L 298.546943 260.463933 
L 298.827758 252.635113 
L 299.108573 297.516364 
L 299.389389 292.815088 
L 299.670204 296.79922 
L 299.951019 292.815088 
L 300.231834 273.113553 
L 300.51265 280.444357 
L 300.793465 297.596047 
L 301.07428 294.09001 
L 301.635911 216.837684 
L 301.916726 282.257137 
L 302.197541 305.106136 
L 302.478357 259.866313 
L 302.759172 256.519642 
L 303.039987 300.165812 
L 303.320802 295.345012 
L 303.601618 295.345012 
L 303.882433 340.584835 
L 304.163248 345.24627 
L 304.444063 372.418053 
L 305.005694 372.418053 
L 305.286509 376.043613 
L 305.567324 413.016361 
L 305.84814 417.837162 
L 306.128955 417.837162 
L 306.40977 370.904082 
L 306.690586 419.689783 
L 307.252216 362.039388 
L 307.533031 338.971261 
L 307.813847 290.105878 
L 308.094662 268.51188 
L 308.656292 332.198236 
L 308.937108 311.899082 
L 309.217923 353.533265 
L 309.498738 308.293442 
L 309.779554 304.946771 
L 310.060369 314.867261 
L 310.341184 305.922883 
L 310.621999 328.234025 
L 310.902815 307.93487 
L 311.18363 311.281541 
L 311.464445 311.281541 
L 311.74526 356.521364 
L 312.026076 311.281541 
L 312.306891 307.93487 
L 312.587706 322.397271 
L 312.868522 344.788095 
L 313.149337 403.65365 
L 313.430152 403.65365 
L 313.710967 377.338456 
L 313.991783 332.098633 
L 314.272598 336.262051 
L 314.553413 322.297667 
L 314.834228 337.776022 
L 315.676674 258.910121 
L 315.957489 219.845704 
L 316.238305 246.160898 
L 316.799935 424.689869 
L 317.080751 386.760929 
L 317.361566 411.801201 
L 317.642381 415.147872 
L 317.923196 409.988421 
L 318.204012 411.044216 
L 318.484827 398.593802 
L 319.046457 348.393734 
L 319.327273 375.585438 
L 319.888903 279.249117 
L 320.169719 277.974195 
L 320.450534 242.634941 
L 320.731349 376.56155 
L 321.012164 398.972295 
L 321.29298 389.78887 
L 321.573795 411.422708 
L 321.85461 397.856738 
L 322.135425 425.128124 
L 322.416241 429.948924 
L 322.977871 351.58104 
L 323.258687 396.940387 
L 323.539502 409.64977 
L 323.820317 375.744803 
L 324.101132 397.338801 
L 324.381948 354.56914 
L 324.662763 363.633041 
L 324.943578 391.163395 
L 325.224393 374.649167 
L 325.505209 327.716087 
L 325.786024 350.186594 
L 326.347654 300.564225 
L 326.62847 337.258084 
L 326.909285 304.249548 
L 327.1901 337.258084 
L 327.470916 314.84734 
L 327.751731 314.84734 
L 328.032546 423.912963 
L 328.313361 444.212118 
L 328.874992 368.43392 
L 329.155807 374.609325 
L 329.436622 401.442457 
L 329.717438 376.402185 
L 329.998253 341.062931 
L 330.279068 376.402185 
L 330.559884 367.178919 
L 330.840699 373.712896 
L 331.121514 394.01205 
L 331.683145 386.18323 
L 331.96396 408.653736 
L 332.244775 405.307065 
L 332.52559 383.713068 
L 332.806406 348.373814 
L 333.087221 383.713068 
L 333.648852 429.052494 
L 334.491297 369.051461 
L 334.772113 429.311463 
L 335.052928 334.070779 
L 335.333743 311.600272 
L 335.614558 391.541888 
L 336.176189 373.912102 
L 336.457004 381.740922 
L 336.737819 356.70065 
L 337.018635 311.460827 
L 337.580265 281.798962 
L 337.861081 281.798962 
L 338.141896 242.734544 
L 338.422711 306.381059 
L 338.703526 306.381059 
L 338.984342 284.069917 
L 339.265157 338.174435 
L 339.826787 294.169693 
L 340.107603 307.695822 
L 340.388418 373.83242 
L 340.669233 293.831042 
L 340.950049 331.779902 
L 341.230864 292.715485 
L 341.511679 329.050772 
L 341.792494 284.468331 
L 342.07331 332.89546 
L 342.354125 329.548788 
L 342.63494 390.605617 
L 342.915755 408.653736 
L 343.196571 413.374933 
L 343.477386 425.387092 
L 343.758201 247.4159 
L 344.039016 331.062759 
L 344.600647 388.613551 
L 344.881462 388.613551 
L 345.162278 399.470311 
L 345.443093 371.939957 
L 345.723908 326.58061 
L 346.004723 373.513689 
L 346.566354 281.340787 
L 346.847169 291.261276 
L 347.127984 338.194356 
L 347.4088 315.126229 
L 347.689615 311.142097 
L 347.97043 334.210223 
L 348.251246 383.553703 
L 348.532061 357.238508 
L 348.812876 383.553703 
L 349.093691 344.489285 
L 349.374507 325.245925 
L 349.655322 317.935042 
L 349.936137 356.99946 
L 350.216952 352.836042 
L 350.497768 352.836042 
L 350.778583 435.24782 
L 351.340214 373.593372 
L 351.621029 386.043785 
L 351.901844 437.080521 
L 352.182659 431.004719 
L 352.463475 419.371053 
L 352.74429 438.076554 
L 353.025105 438.076554 
L 353.586736 377.019725 
L 353.867551 365.784472 
L 354.429181 418.653909 
L 354.709997 423.474709 
L 354.990812 406.96048 
L 355.271627 383.892354 
L 355.552443 395.247131 
L 355.833258 440.606478 
L 356.114073 424.092249 
L 356.394888 389.19125 
L 356.675704 369.947891 
L 356.956519 409.012308 
L 357.237334 362.079229 
L 357.518149 342.198409 
L 357.798965 347.855877 
L 358.07978 350.585007 
L 358.360595 350.585007 
L 358.641411 312.656067 
L 358.922226 319.986871 
L 359.203041 357.915811 
L 359.483856 336.321813 
L 359.764672 383.254893 
L 360.045487 394.111653 
L 360.326302 386.282833 
L 360.607117 408.255323 
L 360.887933 413.454616 
L 361.168748 374.390198 
L 361.449563 367.637094 
L 361.730379 371.621226 
L 362.011194 416.88097 
L 362.292009 434.490835 
L 362.572824 407.936593 
L 362.85364 431.004719 
L 363.134455 388.235058 
L 363.41527 388.474106 
L 363.696085 371.262654 
L 363.976901 367.915983 
L 364.257716 377.716949 
L 364.538531 358.891923 
L 364.819346 310.02654 
L 365.100162 352.796201 
L 365.380977 307.436854 
L 365.661792 303.273435 
L 365.942608 317.078454 
L 366.223423 365.943838 
L 366.504238 342.875711 
L 366.785053 338.891579 
L 367.065869 351.919692 
L 367.346684 379.031712 
L 367.627499 424.371139 
L 368.18913 405.127779 
L 368.469945 382.717035 
L 368.75076 337.477212 
L 369.031576 336.52102 
L 369.593206 357.816207 
L 369.874021 357.816207 
L 370.154837 341.959361 
L 370.435652 381.96005 
L 370.716467 381.96005 
L 370.997282 363.553358 
L 371.278098 360.206687 
L 371.839728 408.115879 
L 372.401359 389.051805 
L 372.682174 368.872175 
L 372.962989 320.006791 
L 373.243805 348.5531 
L 373.52462 348.5531 
L 374.08625 400.067931 
L 374.367066 376.999805 
L 374.647881 376.999805 
L 374.928696 343.991268 
L 375.209511 342.457377 
L 375.490327 365.525504 
L 375.771142 349.011275 
L 376.051957 394.231177 
L 376.332773 385.705134 
L 376.894403 347.915639 
L 377.175218 343.931506 
L 377.456034 329.967122 
L 377.736849 347.576987 
L 378.017664 329.967122 
L 378.298479 355.007394 
L 378.579295 332.696253 
L 378.86011 332.696253 
L 379.140925 350.306118 
L 379.421741 301.440734 
L 379.702556 279.02999 
L 379.983371 267.794737 
L 380.264186 264.448065 
L 380.545002 269.527834 
L 381.106632 269.527834 
L 381.387447 264.248859 
L 381.949078 271.579662 
L 382.229893 293.990407 
L 382.510709 289.169607 
L 382.791524 311.480748 
L 383.072339 311.480748 
L 383.353154 289.070003 
L 383.914785 389.529901 
L 384.1956 344.290078 
L 384.757231 377.298615 
L 385.038046 358.453669 
L 385.318861 356.760412 
L 385.599676 352.935645 
L 385.880492 354.29025 
L 386.161307 351.541199 
L 386.442122 304.30931 
L 386.722938 362.019467 
L 387.003753 355.385887 
L 387.284568 336.142527 
L 387.846199 384.868466 
L 388.127014 363.274469 
L 388.407829 314.409085 
L 388.688644 292.097944 
L 388.96946 256.75869 
L 389.250275 253.033526 
L 389.53109 360.246528 
L 389.811906 332.975142 
L 390.092721 415.645889 
L 390.373536 415.645889 
L 391.215982 347.298098 
L 391.496797 390.067759 
L 391.777612 385.246959 
L 392.058428 391.262999 
L 392.339243 383.434179 
L 392.900874 384.908308 
L 393.181689 344.369761 
L 393.462504 330.405377 
L 393.743319 375.764724 
L 394.024135 330.405377 
L 394.30495 333.353635 
L 394.585765 349.808101 
L 394.86658 328.214104 
L 395.147396 350.36588 
L 395.709026 350.36588 
L 395.989841 350.485404 
L 396.270657 324.17021 
L 396.551472 372.95591 
L 396.832287 399.271105 
L 397.674733 270.464105 
L 397.955548 262.635285 
L 398.236364 258.651153 
L 398.517179 359.668829 
L 398.797994 402.577935 
L 399.078809 357.218588 
L 399.64044 409.9685 
L 399.921255 406.183574 
L 400.482886 406.223416 
L 400.763701 379.908221 
L 401.044516 385.067673 
L 401.325332 368.613206 
L 401.606147 367.139077 
L 401.886962 373.792578 
L 402.167777 365.266535 
L 402.448593 376.342423 
L 402.729408 376.342423 
L 403.010223 380.326555 
L 403.291038 411.502391 
L 403.571854 389.091647 
L 404.133484 418.853115 
L 404.4143 373.613292 
L 404.695115 373.613292 
L 404.97593 381.442112 
L 405.256745 385.605531 
L 405.537561 360.565259 
L 406.099191 284.787061 
L 406.380006 334.628557 
L 406.660822 359.788353 
L 406.941637 359.788353 
L 407.222452 421.283436 
L 407.503268 394.968242 
L 407.784083 420.008514 
L 408.064898 408.77326 
L 408.345713 427.259635 
L 408.626529 382.019812 
L 408.907344 373.314482 
L 409.188159 351.720485 
L 409.468974 378.035679 
L 409.74979 352.995407 
L 410.030605 317.656153 
L 410.592236 398.23523 
L 410.873051 355.565173 
L 411.153866 378.633299 
L 411.434681 353.593027 
L 411.715497 400.526106 
L 411.996312 378.115362 
L 412.277127 404.430556 
L 412.557942 359.190733 
L 412.838758 355.844062 
L 413.119573 354.051202 
L 413.400388 305.185819 
L 413.681203 354.051202 
L 413.962019 376.461947 
L 414.242834 387.039818 
L 414.523649 337.636577 
L 414.804465 324.927195 
L 415.08528 303.333197 
L 415.366095 303.333197 
L 415.64691 343.553014 
L 415.927726 308.21376 
L 416.208541 318.811552 
L 416.489356 318.811552 
L 416.770171 307.576298 
L 417.050987 353.473503 
L 417.331802 310.703842 
L 417.612617 321.939096 
L 417.893433 276.579749 
L 418.174248 298.173746 
L 418.455063 345.106825 
L 419.016694 309.13011 
L 419.297509 335.445304 
L 419.578324 316.201945 
L 419.859139 316.201945 
L 420.139955 332.178316 
L 420.42077 300.265415 
L 420.701585 255.025592 
L 420.982401 268.073626 
L 421.263216 314.966864 
L 421.824846 357.736525 
L 422.105662 308.871141 
L 422.386477 286.56 
L 422.667292 282.575868 
L 422.948107 299.78732 
L 423.228923 345.027143 
L 423.509738 439.251873 
L 423.790553 414.211601 
L 424.071368 443.216085 
L 424.352184 438.395285 
L 424.632999 423.315344 
L 424.913814 376.382264 
L 425.19463 380.366397 
L 425.475445 369.131143 
L 425.75626 365.784472 
L 426.037075 343.473331 
L 426.317891 354.708584 
L 426.598706 377.019725 
L 427.441152 270.862519 
L 427.721967 290.105878 
L 428.002782 274.607603 
L 428.283598 274.607603 
L 428.564413 296.141838 
L 428.845228 306.181852 
L 429.126043 325.026798 
L 429.406859 313.791545 
L 429.687674 291.3808 
L 429.968489 256.041546 
L 430.249304 252.057414 
L 430.53012 296.659776 
L 430.810935 296.659776 
L 431.09175 299.827161 
L 431.372566 358.354065 
L 431.653381 373.434006 
L 431.934196 373.434006 
L 432.215011 405.167621 
L 432.495827 416.402874 
L 432.776642 412.617948 
L 433.057457 401.561981 
L 433.619088 437.95703 
L 433.899903 432.797579 
L 434.461533 432.797579 
L 434.742349 427.777572 
L 435.023164 401.22333 
L 435.303979 428.454874 
L 435.584795 427.399079 
L 435.86561 423.375106 
L 436.146425 411.681677 
L 436.42724 385.366483 
L 436.708056 340.12666 
L 436.988871 378.792664 
L 437.269686 331.859585 
L 437.550501 377.099408 
L 437.831317 377.338456 
L 438.112132 373.991785 
L 438.392947 373.991785 
L 438.673763 423.614154 
L 438.954578 426.960825 
L 439.516208 390.665379 
L 439.797024 386.521881 
L 440.077839 401.601822 
L 440.358654 401.601822 
L 440.639469 386.521881 
L 440.920285 393.274986 
L 441.2011 394.90848 
L 441.481915 391.800857 
L 441.762731 396.701339 
L 442.043546 410.586041 
L 442.324361 384.270846 
L 442.605176 379.011792 
L 442.885992 339.329833 
L 443.447622 373.175038 
L 443.728437 350.764293 
L 444.009253 399.629677 
L 444.290068 422.379072 
L 444.570883 418.39494 
L 444.851698 418.39494 
L 445.132514 402.259204 
L 445.413329 395.725227 
L 445.97496 339.648564 
L 446.255775 330.863552 
L 446.53659 330.624504 
L 446.817405 330.624504 
L 447.098221 334.608636 
L 447.659851 247.13701 
L 447.940666 247.13701 
L 448.221482 249.905982 
L 448.502297 285.245236 
L 448.783112 236.379853 
L 449.063928 236.379853 
L 449.625558 308.811379 
L 449.906373 328.214104 
L 450.187189 371.74075 
L 450.468004 362.298356 
L 450.748819 362.298356 
L 451.029634 358.951685 
L 451.31045 325.943149 
L 451.591265 325.943149 
L 451.87208 290.603894 
L 452.152896 318.15417 
L 452.433711 329.269899 
L 452.714526 312.75567 
L 452.995341 370.924003 
L 453.276157 388.533868 
L 453.837787 307.954791 
L 454.118602 300.125971 
L 454.399418 309.309396 
L 454.680233 305.325264 
L 454.961048 329.508947 
L 455.241863 284.269124 
L 455.522679 290.962466 
L 455.803494 328.353549 
L 456.084309 328.353549 
L 456.365125 363.692803 
L 456.64594 372.139163 
L 456.926755 406.083971 
L 457.20757 377.238853 
L 457.488386 407.179608 
L 458.050016 361.919864 
L 458.330831 361.919864 
L 458.611647 380.645286 
L 458.892462 419.669862 
L 459.173277 370.804479 
L 459.454093 394.729194 
L 459.734908 394.729194 
L 460.015723 372.318449 
L 460.296538 427.080349 
L 460.577354 429.749717 
L 460.858169 452.39951 
L 461.138984 429.331383 
L 461.419799 429.331383 
L 461.700615 425.347251 
L 461.98143 405.466431 
L 462.262245 426.084316 
L 462.54306 426.084316 
L 462.823876 390.745061 
L 463.104691 390.745061 
L 463.385506 371.820433 
L 463.666322 372.816466 
L 463.947137 412.438662 
L 464.227952 388.513947 
L 464.789583 437.299648 
L 465.070398 410.745406 
L 465.632028 315.982818 
L 465.912844 410.745406 
L 466.193659 394.231177 
L 466.474474 389.211171 
L 466.75529 342.278091 
L 467.036105 358.79232 
L 467.597735 264.567589 
L 467.878551 264.567589 
L 468.159366 261.220918 
L 468.440181 310.524556 
L 468.720996 310.524556 
L 469.001812 320.285681 
L 469.282627 297.217554 
L 469.563442 306.480662 
L 469.844258 306.480662 
L 470.125073 351.28223 
L 470.405888 374.350357 
L 470.686703 355.106997 
L 470.967519 309.867174 
L 471.248334 293.352946 
L 471.529149 302.277402 
L 471.809964 347.517225 
L 472.09078 354.051202 
L 472.65241 393.39451 
L 472.933225 390.047838 
L 473.214041 385.227038 
L 473.494856 358.911844 
L 473.775671 407.000322 
L 474.056487 387.756962 
L 474.337302 342.517139 
L 474.618117 387.756962 
L 474.898932 387.756962 
L 475.179748 415.287317 
L 475.460563 419.271449 
L 475.741378 369.868208 
L 476.022193 347.457463 
L 476.303009 308.393045 
L 476.864639 350.047149 
L 477.145455 323.492907 
L 477.707085 229.268177 
L 477.9879 233.172626 
L 478.268716 275.583715 
L 478.549531 284.030076 
L 479.111161 260.424092 
L 479.391977 409.470484 
L 479.953607 364.589233 
L 480.234423 407.358893 
L 480.515238 396.12364 
L 480.796053 349.190561 
L 481.076868 371.501702 
L 481.357684 338.493166 
L 481.638499 369.051461 
L 481.919314 360.246528 
L 482.200129 393.255065 
L 482.76176 343.353807 
L 483.042575 340.007136 
L 483.32339 351.023262 
L 483.604206 343.353807 
L 483.885021 343.353807 
L 484.165836 354.58906 
L 484.446652 332.277919 
L 484.727467 424.590266 
L 485.008282 404.291112 
L 485.289097 402.318966 
L 485.569913 366.979712 
L 485.850728 382.119415 
L 486.131543 403.295078 
L 486.693174 354.668743 
L 486.973989 390.007997 
L 487.254804 366.91995 
L 487.53562 385.764896 
L 487.816435 338.831817 
L 488.09725 327.596563 
L 488.378065 328.214104 
L 488.658881 327.397357 
L 488.939696 347.337939 
L 489.220511 358.573193 
L 489.501326 309.707809 
L 489.782142 338.194356 
L 490.062957 318.950996 
L 490.343772 367.81638 
L 490.624588 367.81638 
L 490.905403 361.740578 
L 491.186218 347.776194 
L 491.467033 368.075348 
L 492.028664 316.480834 
L 492.309479 271.121487 
L 492.590294 290.364847 
L 492.87111 301.6001 
L 493.151925 262.535682 
L 493.43274 263.153222 
L 493.713555 242.953671 
L 493.994371 238.073109 
L 494.275186 255.941943 
L 494.556001 222.933406 
L 494.836817 219.586735 
L 495.117632 245.244547 
L 495.398447 245.244547 
L 495.960078 359.628988 
L 496.240893 354.469536 
L 496.521708 358.453669 
L 496.802523 323.014811 
L 497.083339 323.014811 
L 497.364154 296.460569 
L 497.644969 296.460569 
L 497.925785 335.146494 
L 498.2066 351.541199 
L 498.487415 339.090785 
L 498.76823 290.225402 
L 499.329861 358.134938 
L 499.610676 336.760068 
L 499.891491 303.751531 
L 500.172307 300.40486 
L 500.453122 272.71514 
L 500.733937 276.061811 
L 501.014753 288.332939 
L 501.576383 253.13313 
L 501.857198 279.448324 
L 502.138014 230.58294 
L 502.699644 270.60355 
L 502.980459 245.563278 
L 503.261275 200.323455 
L 503.54209 206.419178 
L 504.10372 206.419178 
L 504.384536 278.890545 
L 504.665351 257.296548 
L 504.946166 221.957294 
L 505.226982 243.551291 
L 505.507797 229.586907 
L 505.788612 284.627696 
L 506.069427 309.150031 
L 506.350243 348.493338 
L 506.631058 336.142527 
L 506.911873 343.473331 
L 507.192688 321.16219 
L 507.473504 343.473331 
L 507.754319 294.07009 
L 508.035134 338.433404 
L 508.31595 311.879161 
L 508.87758 374.051547 
L 509.158395 352.457549 
L 509.439211 317.118295 
L 509.720026 309.289475 
L 510.000841 305.942804 
L 510.281656 352.357946 
L 510.562472 370.485748 
L 510.843287 407.418655 
L 511.124102 368.354238 
L 511.404918 389.948235 
L 511.685733 367.637094 
L 511.966548 362.895976 
L 512.247363 317.656153 
L 512.528179 317.656153 
L 512.808994 295.245409 
L 513.089809 334.309827 
L 513.370624 334.967208 
L 513.65144 331.620537 
L 513.932255 329.827678 
L 514.21307 333.791889 
L 514.493885 356.660809 
L 515.055516 339.588802 
L 515.617147 388.235058 
L 515.897962 318.970917 
L 516.459592 318.970917 
L 516.740408 364.21074 
L 517.021223 364.21074 
L 517.302038 328.871486 
L 517.582853 348.114845 
L 517.863669 299.249462 
L 518.144484 324.289734 
L 518.425299 373.155117 
L 518.706115 351.56112 
L 518.98693 351.56112 
L 519.267745 342.278091 
L 519.54856 303.213673 
L 519.829376 303.213673 
L 520.391006 391.063792 
L 520.671821 344.130713 
L 520.952637 333.273952 
L 522.075898 233.033182 
L 522.356713 309.847254 
L 522.637528 331.979109 
L 522.918344 331.979109 
L 523.199159 335.32578 
L 523.760789 335.32578 
L 524.041605 362.158912 
L 524.32242 358.812241 
L 524.603235 336.401496 
L 524.88405 358.812241 
L 525.164866 311.879161 
L 525.726496 261.041632 
L 526.007312 302.855101 
L 526.288127 312.038527 
L 526.568942 358.971606 
L 526.849757 339.728247 
L 527.130573 304.388992 
L 527.411388 351.142786 
L 527.692203 358.971606 
L 527.973018 335.903479 
L 528.253834 381.262826 
L 528.534649 334.329747 
L 528.815464 388.454185 
L 529.09628 374.489801 
L 529.377095 379.310602 
L 529.65791 354.27033 
L 530.219541 371.581385 
L 530.500356 348.712465 
L 530.781171 362.39796 
L 531.061986 343.1546 
L 531.342802 346.600875 
L 531.623617 365.844234 
L 531.904432 354.728505 
L 532.185247 396.42245 
L 532.466063 391.00403 
L 532.746878 391.00403 
L 533.027693 368.692889 
L 533.308509 378.473934 
L 533.589324 378.473934 
L 533.870139 343.13468 
L 534.150954 343.13468 
L 534.43177 339.788009 
L 534.712585 339.788009 
L 535.555031 413.613981 
L 535.835846 413.613981 
L 536.116661 368.374158 
L 536.397477 362.915897 
L 536.959107 321.959016 
L 537.239922 345.704445 
L 537.520738 329.190216 
L 537.801553 325.843545 
L 538.082368 325.843545 
L 538.363183 299.289303 
L 538.643999 327.576643 
L 538.924814 330.046805 
L 539.205629 331.281886 
L 539.486445 340.72428 
L 539.76726 340.72428 
L 540.048075 350.505325 
L 540.32889 323.951082 
L 540.609706 323.951082 
L 540.890521 343.194442 
L 541.171336 330.724107 
L 541.452151 298.811207 
L 541.732967 298.811207 
L 542.013782 253.571384 
L 542.294597 257.714882 
L 542.575412 302.954705 
L 542.856228 280.643564 
L 543.137043 235.403741 
L 543.417858 232.634769 
L 543.698674 232.634769 
L 543.979489 305.643994 
L 544.260304 301.659862 
L 544.821935 386.223071 
L 545.10275 386.223071 
L 545.383565 408.633816 
L 545.66438 389.390456 
L 545.945196 393.374589 
L 546.226011 393.374589 
L 546.506826 390.027918 
L 546.787642 403.474364 
L 547.068457 354.608981 
L 547.349272 354.608981 
L 547.630087 332.29784 
L 547.910903 332.29784 
L 548.191718 358.095097 
L 548.753348 358.095097 
L 549.034164 361.441768 
L 549.314979 361.441768 
L 549.595794 383.752909 
L 549.87661 380.406238 
L 550.157425 358.095097 
L 550.43824 374.390198 
L 550.719055 367.696856 
L 550.999871 338.074832 
L 551.280686 338.074832 
L 551.561501 386.860532 
L 551.842316 397.717293 
L 552.123132 352.47747 
L 552.403947 363.712723 
L 552.684762 336.182369 
L 552.965577 290.823022 
L 553.246393 267.954102 
L 553.527208 267.954102 
L 553.808023 245.642961 
L 554.088839 248.989632 
L 554.369654 272.057758 
L 554.650469 268.711087 
L 554.931284 235.70255 
L 555.2121 258.013692 
L 555.492915 291.022228 
L 555.77373 241.618987 
L 556.054545 253.969797 
L 556.616176 253.969797 
L 556.896991 262.874333 
L 557.458622 262.874333 
L 557.739437 266.221004 
L 558.020252 266.221004 
L 558.301068 394.589749 
L 558.581883 414.291284 
L 558.862698 387.737042 
L 559.143513 387.737042 
L 559.424329 348.672624 
L 559.705144 348.672624 
L 559.985959 329.867519 
L 560.266775 329.867519 
L 560.54759 284.627696 
L 560.828405 280.643564 
L 561.10922 280.643564 
L 561.390036 303.054308 
L 561.670851 256.121229 
L 561.951666 260.105361 
L 562.232481 266.440132 
L 562.794112 266.440132 
L 563.074927 244.029387 
L 563.636558 244.029387 
L 563.917373 221.718246 
L 564.479004 221.718246 
L 564.759819 225.881664 
L 565.040634 207.036718 
L 565.602265 207.036718 
L 565.88308 218.630543 
L 566.163895 315.44496 
L 566.44471 288.890718 
L 566.725526 284.846823 
L 567.006341 298.811207 
L 567.287156 259.746789 
L 567.567972 259.746789 
L 567.848787 237.336045 
L 568.129602 256.420039 
L 568.410417 256.420039 
L 568.691233 245.184785 
L 568.972048 267.59553 
L 569.252863 267.59553 
L 569.533678 264.248859 
L 569.814494 292.974453 
L 570.376124 301.779386 
L 570.65694 301.779386 
L 570.937755 266.440132 
L 571.21857 258.611312 
L 571.780201 258.611312 
L 572.061016 262.854413 
L 572.341831 301.91883 
L 572.903462 301.91883 
L 573.184277 309.74765 
L 573.465092 284.707379 
L 573.745907 288.05405 
L 574.026723 288.05405 
L 574.307538 266.460052 
L 574.588353 288.05405 
L 574.869169 255.045513 
L 575.149984 273.890459 
L 575.711614 232.236355 
L 575.99243 229.746273 
L 576.273245 237.754379 
L 577.958137 237.754379 
L 578.238952 282.994202 
L 579.643028 282.994202 
L 579.923843 294.229455 
L 580.766289 294.229455 
L 581.047104 290.882784 
L 581.32792 242.0174 
L 581.608735 230.423575 
L 581.88955 230.423575 
L 582.170366 191.359157 
L 583.012811 191.359157 
L 583.293627 192.33527 
L 583.574442 173.09191 
L 583.855257 173.09191 
L 584.136072 277.336734 
L 584.697703 277.336734 
L 584.978518 296.580093 
L 585.259334 251.34027 
L 585.540149 240.105017 
L 585.820964 240.105017 
L 586.101779 251.34027 
L 586.382595 252.85424 
L 586.66341 252.85424 
L 586.944225 275.165382 
L 587.22504 275.165382 
L 587.505856 248.850187 
L 587.786671 248.850187 
L 588.348302 203.391237 
L 588.629117 209.566642 
L 588.909932 209.566642 
L 589.190747 213.610536 
L 589.752378 213.610536 
L 590.033193 194.367177 
L 590.594824 194.367177 
L 590.875639 220.921419 
L 591.156454 198.610278 
L 591.437269 196.25964 
L 591.718085 196.25964 
L 591.9989 287.695478 
L 592.560531 287.695478 
L 592.841346 252.356224 
L 593.402976 242.29629 
L 593.683792 242.29629 
L 593.964607 245.642961 
L 594.245422 267.236958 
L 594.526237 267.236958 
L 594.807053 253.272574 
L 595.087868 253.272574 
L 595.368683 214.208156 
L 595.649499 225.44341 
L 595.930314 252.276541 
L 596.211129 252.276541 
L 596.491944 247.455741 
L 597.33439 136.577337 
L 597.615205 136.577337 
L 597.896021 133.230666 
L 598.176836 133.230666 
L 598.457651 109.365713 
L 599.019282 109.365713 
L 599.300097 131.676854 
L 599.580912 112.433495 
L 601.265804 112.433495 
L 601.546619 139.525595 
L 601.827434 139.525595 
L 602.10825 184.884942 
L 602.950696 184.884942 
L 603.231511 198.849326 
L 603.512326 194.028526 
L 606.039664 194.028526 
L 606.320479 193.689875 
L 606.601294 193.689875 
L 606.882109 204.765763 
L 607.162925 202.215918 
L 607.44374 176.09993 
L 607.724555 198.411071 
L 608.00537 198.411071 
L 608.286186 194.426939 
L 608.847816 194.426939 
L 609.128632 180.343031 
L 609.409447 130.93979 
L 611.375154 130.93979 
L 611.655969 134.286461 
L 611.936784 123.051208 
L 612.498415 123.051208 
L 612.77923 119.704537 
L 613.060045 123.051208 
L 616.149013 123.051208 
L 616.429829 111.97532 
L 616.991459 111.97532 
L 617.272274 115.959452 
L 619.799612 115.959452 
L 620.361242 109.88365 
L 627.100809 109.88365 
L 627.381624 106.815868 
L 627.943255 106.815868 
L 628.22407 123.330097 
L 628.504885 105.600708 
L 633.55956 105.600708 
L 633.840375 101.596655 
L 637.210159 101.596655 
L 637.490974 104.943326 
L 649.0044 104.943326 
L 649.285215 98.927286 
L 649.846846 98.927286 
L 650.127661 111.955399 
L 763.857845 111.955399 
L 764.138661 98.927286 
L 770.878227 98.927286 
L 771.159042 95.580615 
L 857.930961 95.580615 
L 858.211776 88.887273 
L 871.690909 88.887273 
L 871.690909 88.887273 
" style="fill:none;stroke:#8dd3c7;stroke-linecap:square;stroke-width:1.5;"/>
   </g>
   <g id="line2d_17">
    <path clip-path="url(#pd521aaf40c)" d="M 161.509091 307.257568 
L 162.070721 268.910294 
L 196.049369 268.910294 
L 196.330184 264.826558 
L 205.877904 264.826558 
L 206.158719 259.906155 
L 265.410741 259.906155 
L 265.691556 258.631232 
L 268.780524 258.631232 
L 269.061339 241.638908 
L 269.342155 237.654775 
L 269.62297 231.638735 
L 269.903785 231.638735 
L 270.1846 228.551033 
L 301.355095 228.551033 
L 301.635911 216.837684 
L 502.980459 216.837684 
L 503.261275 200.323455 
L 581.88955 200.323455 
L 582.170366 191.359157 
L 583.293627 191.359157 
L 583.574442 173.09191 
L 596.77276 173.09191 
L 597.053575 161.617609 
L 597.33439 136.577337 
L 597.615205 136.577337 
L 597.896021 133.230666 
L 598.176836 133.230666 
L 598.457651 109.365713 
L 627.100809 109.365713 
L 627.381624 106.815868 
L 628.22407 106.815868 
L 628.504885 105.600708 
L 633.55956 105.600708 
L 633.840375 101.596655 
L 649.0044 101.596655 
L 649.285215 98.927286 
L 770.878227 98.927286 
L 771.159042 95.580615 
L 857.930961 95.580615 
L 858.211776 88.887273 
L 871.690909 88.887273 
L 871.690909 88.887273 
" style="fill:none;stroke:#feffb3;stroke-linecap:square;stroke-width:1.5;"/>
   </g>
   <g id="line2d_18">
    <path clip-path="url(#pd521aaf40c)" d="M 161.509091 360.350116 
L 164.036428 360.350116 
L 164.317244 369.911448 
L 166.844581 369.911448 
L 167.125396 378.734832 
L 169.652734 378.734832 
L 169.933549 386.877222 
L 172.460886 386.877222 
L 172.741702 394.391177 
L 175.269039 394.391177 
L 175.549854 401.325201 
L 178.077192 401.325201 
L 178.358007 407.724052 
L 180.885345 407.724052 
L 181.16616 413.629037 
L 183.693497 413.629037 
L 183.974313 419.078271 
L 186.50165 419.078271 
L 186.782465 424.10693 
L 189.309803 424.10693 
L 189.590618 428.747475 
L 192.117955 428.747475 
L 192.398771 433.029859 
L 194.926108 433.029859 
L 195.206923 436.981727 
L 197.734261 436.981727 
L 198.015076 440.628587 
L 200.542413 440.628587 
L 200.823229 443.99398 
L 203.350566 443.99398 
L 203.631381 447.09963 
L 206.158719 447.09963 
L 206.439534 449.965584 
L 208.966872 449.965584 
L 209.247687 452.610343 
L 211.775024 452.610343 
L 212.05584 455.050977 
L 214.583177 455.050977 
L 214.863992 457.303242 
L 217.39133 457.303242 
L 217.672145 459.381675 
L 220.199482 459.381675 
L 220.480298 461.299694 
L 223.007635 461.299694 
L 223.28845 463.069679 
L 225.815788 463.069679 
L 226.096603 464.703056 
L 228.62394 464.703056 
L 228.904756 466.210367 
L 231.432093 466.210367 
L 231.712908 467.601343 
L 234.240246 467.601343 
L 234.521061 468.884963 
L 237.048399 468.884963 
L 237.329214 470.069513 
L 239.856551 470.069513 
L 240.137367 471.162638 
L 242.664704 471.162638 
L 242.945519 472.171395 
L 245.472857 472.171395 
L 245.753672 473.102296 
L 248.281009 473.102296 
L 248.561825 473.961349 
L 251.089162 473.961349 
L 251.369977 474.7541 
L 253.897315 474.7541 
L 254.17813 475.485666 
L 256.705467 475.485666 
L 256.986283 476.16077 
L 259.51362 476.16077 
L 259.794435 476.783768 
L 262.321773 476.783768 
L 262.602588 477.358683 
L 265.129926 477.358683 
L 265.410741 477.889226 
L 267.938078 477.889226 
L 268.218894 478.378821 
L 270.746231 478.378821 
L 271.027046 478.830629 
L 273.554384 478.830629 
L 273.835199 479.247566 
L 276.362536 479.247566 
L 276.643352 479.632324 
L 279.170689 479.632324 
L 279.451504 479.987386 
L 281.978842 479.987386 
L 282.259657 480.315044 
L 284.786995 480.315044 
L 285.06781 480.617413 
L 287.595147 480.617413 
L 287.875962 480.896445 
L 290.4033 480.896445 
L 290.684115 481.153941 
L 293.211453 481.153941 
L 293.492268 481.391564 
L 296.019605 481.391564 
L 296.300421 481.610846 
L 298.827758 481.610846 
L 299.108573 481.813205 
L 301.635911 481.813205 
L 301.916726 481.999945 
L 304.444063 481.999945 
L 304.724879 482.172272 
L 307.252216 482.172272 
L 307.533031 482.3313 
L 310.060369 482.3313 
L 310.341184 482.478053 
L 312.868522 482.478053 
L 313.149337 482.61348 
L 315.676674 482.61348 
L 315.957489 482.738454 
L 318.484827 482.738454 
L 319.046457 482.853783 
L 324.101132 482.960211 
L 324.662763 483.058424 
L 329.717438 483.149058 
L 330.279068 483.232696 
L 335.333743 483.309879 
L 335.895374 483.381105 
L 340.950049 483.446834 
L 341.511679 483.50749 
L 349.374507 483.615118 
L 350.216952 483.662785 
L 357.798965 483.747367 
L 358.641411 483.784828 
L 369.031576 483.880737 
L 370.435652 483.907904 
L 385.880492 484.015342 
L 387.846199 484.03212 
L 416.770171 484.142878 
L 421.544031 484.156212 
L 871.690909 484.232727 
L 871.690909 484.232727 
" style="fill:none;stroke:#bfbbd9;stroke-linecap:square;stroke-width:1.5;"/>
   </g>
   <g id="patch_3">
    <path d="M 126 504 
L 126 69.12 
" style="fill:none;stroke:#ffffff;stroke-linecap:square;stroke-linejoin:miter;stroke-width:0.8;"/>
   </g>
   <g id="patch_4">
    <path d="M 907.2 504 
L 907.2 69.12 
" style="fill:none;stroke:#ffffff;stroke-linecap:square;stroke-linejoin:miter;stroke-width:0.8;"/>
   </g>
   <g id="patch_5">
    <path d="M 126 504 
L 907.2 504 
" style="fill:none;stroke:#ffffff;stroke-linecap:square;stroke-linejoin:miter;stroke-width:0.8;"/>
   </g>
   <g id="patch_6">
    <path d="M 126 69.12 
L 907.2 69.12 
" style="fill:none;stroke:#ffffff;stroke-linecap:square;stroke-linejoin:miter;stroke-width:0.8;"/>
   </g>
   <g id="text_17">
    <!-- instance 5 with error 0.07632877222377366 -->
    <g style="fill:#ffffff;" transform="translate(381.864375 63.12)scale(0.12 -0.12)">
     <defs>
      <path d="M 2834 3397 
L 2834 2853 
Q 2591 2978 2328 3040 
Q 2066 3103 1784 3103 
Q 1356 3103 1142 2972 
Q 928 2841 928 2578 
Q 928 2378 1081 2264 
Q 1234 2150 1697 2047 
L 1894 2003 
Q 2506 1872 2764 1633 
Q 3022 1394 3022 966 
Q 3022 478 2636 193 
Q 2250 -91 1575 -91 
Q 1294 -91 989 -36 
Q 684 19 347 128 
L 347 722 
Q 666 556 975 473 
Q 1284 391 1588 391 
Q 1994 391 2212 530 
Q 2431 669 2431 922 
Q 2431 1156 2273 1281 
Q 2116 1406 1581 1522 
L 1381 1569 
Q 847 1681 609 1914 
Q 372 2147 372 2553 
Q 372 3047 722 3315 
Q 1072 3584 1716 3584 
Q 2034 3584 2315 3537 
Q 2597 3491 2834 3397 
z
" id="DejaVuSans-73" transform="scale(0.015625)"/>
      <path d="M 3122 3366 
L 3122 2828 
Q 2878 2963 2633 3030 
Q 2388 3097 2138 3097 
Q 1578 3097 1268 2742 
Q 959 2388 959 1747 
Q 959 1106 1268 751 
Q 1578 397 2138 397 
Q 2388 397 2633 464 
Q 2878 531 3122 666 
L 3122 134 
Q 2881 22 2623 -34 
Q 2366 -91 2075 -91 
Q 1284 -91 818 406 
Q 353 903 353 1747 
Q 353 2603 823 3093 
Q 1294 3584 2113 3584 
Q 2378 3584 2631 3529 
Q 2884 3475 3122 3366 
z
" id="DejaVuSans-63" transform="scale(0.015625)"/>
      <path id="DejaVuSans-20" transform="scale(0.015625)"/>
      <path d="M 269 3500 
L 844 3500 
L 1563 769 
L 2278 3500 
L 2956 3500 
L 3675 769 
L 4391 3500 
L 4966 3500 
L 4050 0 
L 3372 0 
L 2619 2869 
L 1863 0 
L 1184 0 
L 269 3500 
z
" id="DejaVuSans-77" transform="scale(0.015625)"/>
      <path d="M 3513 2113 
L 3513 0 
L 2938 0 
L 2938 2094 
Q 2938 2591 2744 2837 
Q 2550 3084 2163 3084 
Q 1697 3084 1428 2787 
Q 1159 2491 1159 1978 
L 1159 0 
L 581 0 
L 581 4863 
L 1159 4863 
L 1159 2956 
Q 1366 3272 1645 3428 
Q 1925 3584 2291 3584 
Q 2894 3584 3203 3211 
Q 3513 2838 3513 2113 
z
" id="DejaVuSans-68" transform="scale(0.015625)"/>
      <path d="M 684 794 
L 1344 794 
L 1344 0 
L 684 0 
L 684 794 
z
" id="DejaVuSans-2e" transform="scale(0.015625)"/>
      <path d="M 2113 2584 
Q 1688 2584 1439 2293 
Q 1191 2003 1191 1497 
Q 1191 994 1439 701 
Q 1688 409 2113 409 
Q 2538 409 2786 701 
Q 3034 994 3034 1497 
Q 3034 2003 2786 2293 
Q 2538 2584 2113 2584 
z
M 3366 4563 
L 3366 3988 
Q 3128 4100 2886 4159 
Q 2644 4219 2406 4219 
Q 1781 4219 1451 3797 
Q 1122 3375 1075 2522 
Q 1259 2794 1537 2939 
Q 1816 3084 2150 3084 
Q 2853 3084 3261 2657 
Q 3669 2231 3669 1497 
Q 3669 778 3244 343 
Q 2819 -91 2113 -91 
Q 1303 -91 875 529 
Q 447 1150 447 2328 
Q 447 3434 972 4092 
Q 1497 4750 2381 4750 
Q 2619 4750 2861 4703 
Q 3103 4656 3366 4563 
z
" id="DejaVuSans-36" transform="scale(0.015625)"/>
      <path d="M 2597 2516 
Q 3050 2419 3304 2112 
Q 3559 1806 3559 1356 
Q 3559 666 3084 287 
Q 2609 -91 1734 -91 
Q 1441 -91 1130 -33 
Q 819 25 488 141 
L 488 750 
Q 750 597 1062 519 
Q 1375 441 1716 441 
Q 2309 441 2620 675 
Q 2931 909 2931 1356 
Q 2931 1769 2642 2001 
Q 2353 2234 1838 2234 
L 1294 2234 
L 1294 2753 
L 1863 2753 
Q 2328 2753 2575 2939 
Q 2822 3125 2822 3475 
Q 2822 3834 2567 4026 
Q 2313 4219 1838 4219 
Q 1578 4219 1281 4162 
Q 984 4106 628 3988 
L 628 4550 
Q 988 4650 1302 4700 
Q 1616 4750 1894 4750 
Q 2613 4750 3031 4423 
Q 3450 4097 3450 3541 
Q 3450 3153 3228 2886 
Q 3006 2619 2597 2516 
z
" id="DejaVuSans-33" transform="scale(0.015625)"/>
      <path d="M 2034 2216 
Q 1584 2216 1326 1975 
Q 1069 1734 1069 1313 
Q 1069 891 1326 650 
Q 1584 409 2034 409 
Q 2484 409 2743 651 
Q 3003 894 3003 1313 
Q 3003 1734 2745 1975 
Q 2488 2216 2034 2216 
z
M 1403 2484 
Q 997 2584 770 2862 
Q 544 3141 544 3541 
Q 544 4100 942 4425 
Q 1341 4750 2034 4750 
Q 2731 4750 3128 4425 
Q 3525 4100 3525 3541 
Q 3525 3141 3298 2862 
Q 3072 2584 2669 2484 
Q 3125 2378 3379 2068 
Q 3634 1759 3634 1313 
Q 3634 634 3220 271 
Q 2806 -91 2034 -91 
Q 1263 -91 848 271 
Q 434 634 434 1313 
Q 434 1759 690 2068 
Q 947 2378 1403 2484 
z
M 1172 3481 
Q 1172 3119 1398 2916 
Q 1625 2713 2034 2713 
Q 2441 2713 2670 2916 
Q 2900 3119 2900 3481 
Q 2900 3844 2670 4047 
Q 2441 4250 2034 4250 
Q 1625 4250 1398 4047 
Q 1172 3844 1172 3481 
z
" id="DejaVuSans-38" transform="scale(0.015625)"/>
     </defs>
     <use xlink:href="#DejaVuSans-69"/>
     <use x="27.783203" xlink:href="#DejaVuSans-6e"/>
     <use x="91.162109" xlink:href="#DejaVuSans-73"/>
     <use x="143.261719" xlink:href="#DejaVuSans-74"/>
     <use x="182.470703" xlink:href="#DejaVuSans-61"/>
     <use x="243.75" xlink:href="#DejaVuSans-6e"/>
     <use x="307.128906" xlink:href="#DejaVuSans-63"/>
     <use x="362.109375" xlink:href="#DejaVuSans-65"/>
     <use x="423.632812" xlink:href="#DejaVuSans-20"/>
     <use x="455.419922" xlink:href="#DejaVuSans-35"/>
     <use x="519.042969" xlink:href="#DejaVuSans-20"/>
     <use x="550.830078" xlink:href="#DejaVuSans-77"/>
     <use x="632.617188" xlink:href="#DejaVuSans-69"/>
     <use x="660.400391" xlink:href="#DejaVuSans-74"/>
     <use x="699.609375" xlink:href="#DejaVuSans-68"/>
     <use x="762.988281" xlink:href="#DejaVuSans-20"/>
     <use x="794.775391" xlink:href="#DejaVuSans-65"/>
     <use x="856.298828" xlink:href="#DejaVuSans-72"/>
     <use x="895.662109" xlink:href="#DejaVuSans-72"/>
     <use x="934.525391" xlink:href="#DejaVuSans-6f"/>
     <use x="995.707031" xlink:href="#DejaVuSans-72"/>
     <use x="1036.820312" xlink:href="#DejaVuSans-20"/>
     <use x="1068.607422" xlink:href="#DejaVuSans-30"/>
     <use x="1132.230469" xlink:href="#DejaVuSans-2e"/>
     <use x="1164.017578" xlink:href="#DejaVuSans-30"/>
     <use x="1227.640625" xlink:href="#DejaVuSans-37"/>
     <use x="1291.263672" xlink:href="#DejaVuSans-36"/>
     <use x="1354.886719" xlink:href="#DejaVuSans-33"/>
     <use x="1418.509766" xlink:href="#DejaVuSans-32"/>
     <use x="1482.132812" xlink:href="#DejaVuSans-38"/>
     <use x="1545.755859" xlink:href="#DejaVuSans-37"/>
     <use x="1609.378906" xlink:href="#DejaVuSans-37"/>
     <use x="1673.001953" xlink:href="#DejaVuSans-32"/>
     <use x="1736.625" xlink:href="#DejaVuSans-32"/>
     <use x="1800.248047" xlink:href="#DejaVuSans-32"/>
     <use x="1863.871094" xlink:href="#DejaVuSans-33"/>
     <use x="1927.494141" xlink:href="#DejaVuSans-37"/>
     <use x="1991.117188" xlink:href="#DejaVuSans-37"/>
     <use x="2054.740234" xlink:href="#DejaVuSans-33"/>
     <use x="2118.363281" xlink:href="#DejaVuSans-36"/>
     <use x="2181.986328" xlink:href="#DejaVuSans-36"/>
    </g>
   </g>
   <g id="legend_1">
    <g id="patch_7">
     <path d="M 805.348438 499 
L 900.2 499 
Q 902.2 499 902.2 497 
L 902.2 453.965625 
Q 902.2 451.965625 900.2 451.965625 
L 805.348438 451.965625 
Q 803.348438 451.965625 803.348438 453.965625 
L 803.348438 497 
Q 803.348438 499 805.348438 499 
z
" style="opacity:0.8;stroke:#cccccc;stroke-linejoin:miter;"/>
    </g>
    <g id="line2d_19">
     <path d="M 807.348438 460.064062 
L 827.348438 460.064062 
" style="fill:none;stroke:#8dd3c7;stroke-linecap:square;stroke-width:1.5;"/>
    </g>
    <g id="line2d_20"/>
    <g id="text_18">
     <!-- cost -->
     <g style="fill:#ffffff;" transform="translate(835.348438 463.564062)scale(0.1 -0.1)">
      <use xlink:href="#DejaVuSans-63"/>
      <use x="54.980469" xlink:href="#DejaVuSans-6f"/>
      <use x="116.162109" xlink:href="#DejaVuSans-73"/>
      <use x="168.261719" xlink:href="#DejaVuSans-74"/>
     </g>
    </g>
    <g id="line2d_21">
     <path d="M 807.348438 474.742188 
L 827.348438 474.742188 
" style="fill:none;stroke:#feffb3;stroke-linecap:square;stroke-width:1.5;"/>
    </g>
    <g id="line2d_22"/>
    <g id="text_19">
     <!-- best cost -->
     <g style="fill:#ffffff;" transform="translate(835.348438 478.242188)scale(0.1 -0.1)">
      <defs>
       <path d="M 3116 1747 
Q 3116 2381 2855 2742 
Q 2594 3103 2138 3103 
Q 1681 3103 1420 2742 
Q 1159 2381 1159 1747 
Q 1159 1113 1420 752 
Q 1681 391 2138 391 
Q 2594 391 2855 752 
Q 3116 1113 3116 1747 
z
M 1159 2969 
Q 1341 3281 1617 3432 
Q 1894 3584 2278 3584 
Q 2916 3584 3314 3078 
Q 3713 2572 3713 1747 
Q 3713 922 3314 415 
Q 2916 -91 2278 -91 
Q 1894 -91 1617 61 
Q 1341 213 1159 525 
L 1159 0 
L 581 0 
L 581 4863 
L 1159 4863 
L 1159 2969 
z
" id="DejaVuSans-62" transform="scale(0.015625)"/>
      </defs>
      <use xlink:href="#DejaVuSans-62"/>
      <use x="63.476562" xlink:href="#DejaVuSans-65"/>
      <use x="125" xlink:href="#DejaVuSans-73"/>
      <use x="177.099609" xlink:href="#DejaVuSans-74"/>
      <use x="216.308594" xlink:href="#DejaVuSans-20"/>
      <use x="248.095703" xlink:href="#DejaVuSans-63"/>
      <use x="303.076172" xlink:href="#DejaVuSans-6f"/>
      <use x="364.257812" xlink:href="#DejaVuSans-73"/>
      <use x="416.357422" xlink:href="#DejaVuSans-74"/>
     </g>
    </g>
    <g id="line2d_23">
     <path d="M 807.348438 489.420313 
L 827.348438 489.420313 
" style="fill:none;stroke:#bfbbd9;stroke-linecap:square;stroke-width:1.5;"/>
    </g>
    <g id="line2d_24"/>
    <g id="text_20">
     <!-- temperature -->
     <g style="fill:#ffffff;" transform="translate(835.348438 492.920313)scale(0.1 -0.1)">
      <defs>
       <path d="M 3328 2828 
Q 3544 3216 3844 3400 
Q 4144 3584 4550 3584 
Q 5097 3584 5394 3201 
Q 5691 2819 5691 2113 
L 5691 0 
L 5113 0 
L 5113 2094 
Q 5113 2597 4934 2840 
Q 4756 3084 4391 3084 
Q 3944 3084 3684 2787 
Q 3425 2491 3425 1978 
L 3425 0 
L 2847 0 
L 2847 2094 
Q 2847 2600 2669 2842 
Q 2491 3084 2119 3084 
Q 1678 3084 1418 2786 
Q 1159 2488 1159 1978 
L 1159 0 
L 581 0 
L 581 3500 
L 1159 3500 
L 1159 2956 
Q 1356 3278 1631 3431 
Q 1906 3584 2284 3584 
Q 2666 3584 2933 3390 
Q 3200 3197 3328 2828 
z
" id="DejaVuSans-6d" transform="scale(0.015625)"/>
       <path d="M 1159 525 
L 1159 -1331 
L 581 -1331 
L 581 3500 
L 1159 3500 
L 1159 2969 
Q 1341 3281 1617 3432 
Q 1894 3584 2278 3584 
Q 2916 3584 3314 3078 
Q 3713 2572 3713 1747 
Q 3713 922 3314 415 
Q 2916 -91 2278 -91 
Q 1894 -91 1617 61 
Q 1341 213 1159 525 
z
M 3116 1747 
Q 3116 2381 2855 2742 
Q 2594 3103 2138 3103 
Q 1681 3103 1420 2742 
Q 1159 2381 1159 1747 
Q 1159 1113 1420 752 
Q 1681 391 2138 391 
Q 2594 391 2855 752 
Q 3116 1113 3116 1747 
z
" id="DejaVuSans-70" transform="scale(0.015625)"/>
       <path d="M 544 1381 
L 544 3500 
L 1119 3500 
L 1119 1403 
Q 1119 906 1312 657 
Q 1506 409 1894 409 
Q 2359 409 2629 706 
Q 2900 1003 2900 1516 
L 2900 3500 
L 3475 3500 
L 3475 0 
L 2900 0 
L 2900 538 
Q 2691 219 2414 64 
Q 2138 -91 1772 -91 
Q 1169 -91 856 284 
Q 544 659 544 1381 
z
M 1991 3584 
L 1991 3584 
z
" id="DejaVuSans-75" transform="scale(0.015625)"/>
      </defs>
      <use xlink:href="#DejaVuSans-74"/>
      <use x="39.208984" xlink:href="#DejaVuSans-65"/>
      <use x="100.732422" xlink:href="#DejaVuSans-6d"/>
      <use x="198.144531" xlink:href="#DejaVuSans-70"/>
      <use x="261.621094" xlink:href="#DejaVuSans-65"/>
      <use x="323.144531" xlink:href="#DejaVuSans-72"/>
      <use x="364.257812" xlink:href="#DejaVuSans-61"/>
      <use x="425.537109" xlink:href="#DejaVuSans-74"/>
      <use x="464.746094" xlink:href="#DejaVuSans-75"/>
      <use x="528.125" xlink:href="#DejaVuSans-72"/>
      <use x="566.988281" xlink:href="#DejaVuSans-65"/>
     </g>
    </g>
   </g>
  </g>
 </g>
 <defs>
  <clipPath id="pd521aaf40c">
   <rect height="434.88" width="781.2" x="126" y="69.12"/>
  </clipPath>
 </defs>
</svg>
