<?xml version="1.0" encoding="utf-8" standalone="no"?>
<!DOCTYPE svg PUBLIC "-//W3C//DTD SVG 1.1//EN"
  "http://www.w3.org/Graphics/SVG/1.1/DTD/svg11.dtd">
<svg height="576pt" version="1.1" viewBox="0 0 1008 576" width="1008pt" xmlns="http://www.w3.org/2000/svg" xmlns:xlink="http://www.w3.org/1999/xlink">
 <metadata>
  <rdf:RDF xmlns:cc="http://creativecommons.org/ns#" xmlns:dc="http://purl.org/dc/elements/1.1/" xmlns:rdf="http://www.w3.org/1999/02/22-rdf-syntax-ns#">
   <cc:Work>
    <dc:type rdf:resource="http://purl.org/dc/dcmitype/StillImage"/>
    <dc:date>2022-01-07T00:32:40.551627</dc:date>
    <dc:format>image/svg+xml</dc:format>
    <dc:creator>
     <cc:Agent>
      <dc:title>Matplotlib v3.4.3, https://matplotlib.org/</dc:title>
     </cc:Agent>
    </dc:creator>
   </cc:Work>
  </rdf:RDF>
 </metadata>
 <defs>
  <style type="text/css">*{stroke-linecap:butt;stroke-linejoin:round;}</style>
 </defs>
 <g id="figure_1">
  <g id="patch_1">
   <path d="M 0 576 
L 1008 576 
L 1008 0 
L 0 0 
z
"/>
  </g>
  <g id="axes_1">
   <g id="patch_2">
    <path d="M 126 504 
L 907.2 504 
L 907.2 69.12 
L 126 69.12 
z
"/>
   </g>
   <g id="matplotlib.axis_1">
    <g id="xtick_1">
     <g id="line2d_1">
      <defs>
       <path d="M 0 0 
L 0 3.5 
" id="m60b3699567" style="stroke:#ffffff;stroke-width:0.8;"/>
      </defs>
      <g>
       <use style="fill:#ffffff;stroke:#ffffff;stroke-width:0.8;" x="161.509091" xlink:href="#m60b3699567" y="504"/>
      </g>
     </g>
     <g id="text_1">
      <!-- 0 -->
      <g style="fill:#ffffff;" transform="translate(158.327841 518.598438)scale(0.1 -0.1)">
       <defs>
        <path d="M 2034 4250 
Q 1547 4250 1301 3770 
Q 1056 3291 1056 2328 
Q 1056 1369 1301 889 
Q 1547 409 2034 409 
Q 2525 409 2770 889 
Q 3016 1369 3016 2328 
Q 3016 3291 2770 3770 
Q 2525 4250 2034 4250 
z
M 2034 4750 
Q 2819 4750 3233 4129 
Q 3647 3509 3647 2328 
Q 3647 1150 3233 529 
Q 2819 -91 2034 -91 
Q 1250 -91 836 529 
Q 422 1150 422 2328 
Q 422 3509 836 4129 
Q 1250 4750 2034 4750 
z
" id="DejaVuSans-30" transform="scale(0.015625)"/>
       </defs>
       <use xlink:href="#DejaVuSans-30"/>
      </g>
     </g>
    </g>
    <g id="xtick_2">
     <g id="line2d_2">
      <g>
       <use style="fill:#ffffff;stroke:#ffffff;stroke-width:0.8;" x="279.912195" xlink:href="#m60b3699567" y="504"/>
      </g>
     </g>
     <g id="text_2">
      <!-- 500 -->
      <g style="fill:#ffffff;" transform="translate(270.368445 518.598438)scale(0.1 -0.1)">
       <defs>
        <path d="M 691 4666 
L 3169 4666 
L 3169 4134 
L 1269 4134 
L 1269 2991 
Q 1406 3038 1543 3061 
Q 1681 3084 1819 3084 
Q 2600 3084 3056 2656 
Q 3513 2228 3513 1497 
Q 3513 744 3044 326 
Q 2575 -91 1722 -91 
Q 1428 -91 1123 -41 
Q 819 9 494 109 
L 494 744 
Q 775 591 1075 516 
Q 1375 441 1709 441 
Q 2250 441 2565 725 
Q 2881 1009 2881 1497 
Q 2881 1984 2565 2268 
Q 2250 2553 1709 2553 
Q 1456 2553 1204 2497 
Q 953 2441 691 2322 
L 691 4666 
z
" id="DejaVuSans-35" transform="scale(0.015625)"/>
       </defs>
       <use xlink:href="#DejaVuSans-35"/>
       <use x="63.623047" xlink:href="#DejaVuSans-30"/>
       <use x="127.246094" xlink:href="#DejaVuSans-30"/>
      </g>
     </g>
    </g>
    <g id="xtick_3">
     <g id="line2d_3">
      <g>
       <use style="fill:#ffffff;stroke:#ffffff;stroke-width:0.8;" x="398.315299" xlink:href="#m60b3699567" y="504"/>
      </g>
     </g>
     <g id="text_3">
      <!-- 1000 -->
      <g style="fill:#ffffff;" transform="translate(385.590299 518.598438)scale(0.1 -0.1)">
       <defs>
        <path d="M 794 531 
L 1825 531 
L 1825 4091 
L 703 3866 
L 703 4441 
L 1819 4666 
L 2450 4666 
L 2450 531 
L 3481 531 
L 3481 0 
L 794 0 
L 794 531 
z
" id="DejaVuSans-31" transform="scale(0.015625)"/>
       </defs>
       <use xlink:href="#DejaVuSans-31"/>
       <use x="63.623047" xlink:href="#DejaVuSans-30"/>
       <use x="127.246094" xlink:href="#DejaVuSans-30"/>
       <use x="190.869141" xlink:href="#DejaVuSans-30"/>
      </g>
     </g>
    </g>
    <g id="xtick_4">
     <g id="line2d_4">
      <g>
       <use style="fill:#ffffff;stroke:#ffffff;stroke-width:0.8;" x="516.718403" xlink:href="#m60b3699567" y="504"/>
      </g>
     </g>
     <g id="text_4">
      <!-- 1500 -->
      <g style="fill:#ffffff;" transform="translate(503.993403 518.598438)scale(0.1 -0.1)">
       <use xlink:href="#DejaVuSans-31"/>
       <use x="63.623047" xlink:href="#DejaVuSans-35"/>
       <use x="127.246094" xlink:href="#DejaVuSans-30"/>
       <use x="190.869141" xlink:href="#DejaVuSans-30"/>
      </g>
     </g>
    </g>
    <g id="xtick_5">
     <g id="line2d_5">
      <g>
       <use style="fill:#ffffff;stroke:#ffffff;stroke-width:0.8;" x="635.121507" xlink:href="#m60b3699567" y="504"/>
      </g>
     </g>
     <g id="text_5">
      <!-- 2000 -->
      <g style="fill:#ffffff;" transform="translate(622.396507 518.598438)scale(0.1 -0.1)">
       <defs>
        <path d="M 1228 531 
L 3431 531 
L 3431 0 
L 469 0 
L 469 531 
Q 828 903 1448 1529 
Q 2069 2156 2228 2338 
Q 2531 2678 2651 2914 
Q 2772 3150 2772 3378 
Q 2772 3750 2511 3984 
Q 2250 4219 1831 4219 
Q 1534 4219 1204 4116 
Q 875 4013 500 3803 
L 500 4441 
Q 881 4594 1212 4672 
Q 1544 4750 1819 4750 
Q 2544 4750 2975 4387 
Q 3406 4025 3406 3419 
Q 3406 3131 3298 2873 
Q 3191 2616 2906 2266 
Q 2828 2175 2409 1742 
Q 1991 1309 1228 531 
z
" id="DejaVuSans-32" transform="scale(0.015625)"/>
       </defs>
       <use xlink:href="#DejaVuSans-32"/>
       <use x="63.623047" xlink:href="#DejaVuSans-30"/>
       <use x="127.246094" xlink:href="#DejaVuSans-30"/>
       <use x="190.869141" xlink:href="#DejaVuSans-30"/>
      </g>
     </g>
    </g>
    <g id="xtick_6">
     <g id="line2d_6">
      <g>
       <use style="fill:#ffffff;stroke:#ffffff;stroke-width:0.8;" x="753.524611" xlink:href="#m60b3699567" y="504"/>
      </g>
     </g>
     <g id="text_6">
      <!-- 2500 -->
      <g style="fill:#ffffff;" transform="translate(740.799611 518.598438)scale(0.1 -0.1)">
       <use xlink:href="#DejaVuSans-32"/>
       <use x="63.623047" xlink:href="#DejaVuSans-35"/>
       <use x="127.246094" xlink:href="#DejaVuSans-30"/>
       <use x="190.869141" xlink:href="#DejaVuSans-30"/>
      </g>
     </g>
    </g>
    <g id="xtick_7">
     <g id="line2d_7">
      <g>
       <use style="fill:#ffffff;stroke:#ffffff;stroke-width:0.8;" x="871.927715" xlink:href="#m60b3699567" y="504"/>
      </g>
     </g>
     <g id="text_7">
      <!-- 3000 -->
      <g style="fill:#ffffff;" transform="translate(859.202715 518.598438)scale(0.1 -0.1)">
       <defs>
        <path d="M 2597 2516 
Q 3050 2419 3304 2112 
Q 3559 1806 3559 1356 
Q 3559 666 3084 287 
Q 2609 -91 1734 -91 
Q 1441 -91 1130 -33 
Q 819 25 488 141 
L 488 750 
Q 750 597 1062 519 
Q 1375 441 1716 441 
Q 2309 441 2620 675 
Q 2931 909 2931 1356 
Q 2931 1769 2642 2001 
Q 2353 2234 1838 2234 
L 1294 2234 
L 1294 2753 
L 1863 2753 
Q 2328 2753 2575 2939 
Q 2822 3125 2822 3475 
Q 2822 3834 2567 4026 
Q 2313 4219 1838 4219 
Q 1578 4219 1281 4162 
Q 984 4106 628 3988 
L 628 4550 
Q 988 4650 1302 4700 
Q 1616 4750 1894 4750 
Q 2613 4750 3031 4423 
Q 3450 4097 3450 3541 
Q 3450 3153 3228 2886 
Q 3006 2619 2597 2516 
z
" id="DejaVuSans-33" transform="scale(0.015625)"/>
       </defs>
       <use xlink:href="#DejaVuSans-33"/>
       <use x="63.623047" xlink:href="#DejaVuSans-30"/>
       <use x="127.246094" xlink:href="#DejaVuSans-30"/>
       <use x="190.869141" xlink:href="#DejaVuSans-30"/>
      </g>
     </g>
    </g>
    <g id="text_8">
     <!-- iteration -->
     <g style="fill:#ffffff;" transform="translate(495.477344 532.276562)scale(0.1 -0.1)">
      <defs>
       <path d="M 603 3500 
L 1178 3500 
L 1178 0 
L 603 0 
L 603 3500 
z
M 603 4863 
L 1178 4863 
L 1178 4134 
L 603 4134 
L 603 4863 
z
" id="DejaVuSans-69" transform="scale(0.015625)"/>
       <path d="M 1172 4494 
L 1172 3500 
L 2356 3500 
L 2356 3053 
L 1172 3053 
L 1172 1153 
Q 1172 725 1289 603 
Q 1406 481 1766 481 
L 2356 481 
L 2356 0 
L 1766 0 
Q 1100 0 847 248 
Q 594 497 594 1153 
L 594 3053 
L 172 3053 
L 172 3500 
L 594 3500 
L 594 4494 
L 1172 4494 
z
" id="DejaVuSans-74" transform="scale(0.015625)"/>
       <path d="M 3597 1894 
L 3597 1613 
L 953 1613 
Q 991 1019 1311 708 
Q 1631 397 2203 397 
Q 2534 397 2845 478 
Q 3156 559 3463 722 
L 3463 178 
Q 3153 47 2828 -22 
Q 2503 -91 2169 -91 
Q 1331 -91 842 396 
Q 353 884 353 1716 
Q 353 2575 817 3079 
Q 1281 3584 2069 3584 
Q 2775 3584 3186 3129 
Q 3597 2675 3597 1894 
z
M 3022 2063 
Q 3016 2534 2758 2815 
Q 2500 3097 2075 3097 
Q 1594 3097 1305 2825 
Q 1016 2553 972 2059 
L 3022 2063 
z
" id="DejaVuSans-65" transform="scale(0.015625)"/>
       <path d="M 2631 2963 
Q 2534 3019 2420 3045 
Q 2306 3072 2169 3072 
Q 1681 3072 1420 2755 
Q 1159 2438 1159 1844 
L 1159 0 
L 581 0 
L 581 3500 
L 1159 3500 
L 1159 2956 
Q 1341 3275 1631 3429 
Q 1922 3584 2338 3584 
Q 2397 3584 2469 3576 
Q 2541 3569 2628 3553 
L 2631 2963 
z
" id="DejaVuSans-72" transform="scale(0.015625)"/>
       <path d="M 2194 1759 
Q 1497 1759 1228 1600 
Q 959 1441 959 1056 
Q 959 750 1161 570 
Q 1363 391 1709 391 
Q 2188 391 2477 730 
Q 2766 1069 2766 1631 
L 2766 1759 
L 2194 1759 
z
M 3341 1997 
L 3341 0 
L 2766 0 
L 2766 531 
Q 2569 213 2275 61 
Q 1981 -91 1556 -91 
Q 1019 -91 701 211 
Q 384 513 384 1019 
Q 384 1609 779 1909 
Q 1175 2209 1959 2209 
L 2766 2209 
L 2766 2266 
Q 2766 2663 2505 2880 
Q 2244 3097 1772 3097 
Q 1472 3097 1187 3025 
Q 903 2953 641 2809 
L 641 3341 
Q 956 3463 1253 3523 
Q 1550 3584 1831 3584 
Q 2591 3584 2966 3190 
Q 3341 2797 3341 1997 
z
" id="DejaVuSans-61" transform="scale(0.015625)"/>
       <path d="M 1959 3097 
Q 1497 3097 1228 2736 
Q 959 2375 959 1747 
Q 959 1119 1226 758 
Q 1494 397 1959 397 
Q 2419 397 2687 759 
Q 2956 1122 2956 1747 
Q 2956 2369 2687 2733 
Q 2419 3097 1959 3097 
z
M 1959 3584 
Q 2709 3584 3137 3096 
Q 3566 2609 3566 1747 
Q 3566 888 3137 398 
Q 2709 -91 1959 -91 
Q 1206 -91 779 398 
Q 353 888 353 1747 
Q 353 2609 779 3096 
Q 1206 3584 1959 3584 
z
" id="DejaVuSans-6f" transform="scale(0.015625)"/>
       <path d="M 3513 2113 
L 3513 0 
L 2938 0 
L 2938 2094 
Q 2938 2591 2744 2837 
Q 2550 3084 2163 3084 
Q 1697 3084 1428 2787 
Q 1159 2491 1159 1978 
L 1159 0 
L 581 0 
L 581 3500 
L 1159 3500 
L 1159 2956 
Q 1366 3272 1645 3428 
Q 1925 3584 2291 3584 
Q 2894 3584 3203 3211 
Q 3513 2838 3513 2113 
z
" id="DejaVuSans-6e" transform="scale(0.015625)"/>
      </defs>
      <use xlink:href="#DejaVuSans-69"/>
      <use x="27.783203" xlink:href="#DejaVuSans-74"/>
      <use x="66.992188" xlink:href="#DejaVuSans-65"/>
      <use x="128.515625" xlink:href="#DejaVuSans-72"/>
      <use x="169.628906" xlink:href="#DejaVuSans-61"/>
      <use x="230.908203" xlink:href="#DejaVuSans-74"/>
      <use x="270.117188" xlink:href="#DejaVuSans-69"/>
      <use x="297.900391" xlink:href="#DejaVuSans-6f"/>
      <use x="359.082031" xlink:href="#DejaVuSans-6e"/>
     </g>
    </g>
   </g>
   <g id="matplotlib.axis_2">
    <g id="ytick_1">
     <g id="line2d_8">
      <defs>
       <path d="M 0 0 
L -3.5 0 
" id="mbb0922a3ff" style="stroke:#ffffff;stroke-width:0.8;"/>
      </defs>
      <g>
       <use style="fill:#ffffff;stroke:#ffffff;stroke-width:0.8;" x="126" xlink:href="#mbb0922a3ff" y="484.232731"/>
      </g>
     </g>
     <g id="text_9">
      <!-- 0 -->
      <g style="fill:#ffffff;" transform="translate(112.6375 488.03195)scale(0.1 -0.1)">
       <use xlink:href="#DejaVuSans-30"/>
      </g>
     </g>
    </g>
    <g id="ytick_2">
     <g id="line2d_9">
      <g>
       <use style="fill:#ffffff;stroke:#ffffff;stroke-width:0.8;" x="126" xlink:href="#mbb0922a3ff" y="429.868789"/>
      </g>
     </g>
     <g id="text_10">
      <!-- 5000 -->
      <g style="fill:#ffffff;" transform="translate(93.55 433.668008)scale(0.1 -0.1)">
       <use xlink:href="#DejaVuSans-35"/>
       <use x="63.623047" xlink:href="#DejaVuSans-30"/>
       <use x="127.246094" xlink:href="#DejaVuSans-30"/>
       <use x="190.869141" xlink:href="#DejaVuSans-30"/>
      </g>
     </g>
    </g>
    <g id="ytick_3">
     <g id="line2d_10">
      <g>
       <use style="fill:#ffffff;stroke:#ffffff;stroke-width:0.8;" x="126" xlink:href="#mbb0922a3ff" y="375.504847"/>
      </g>
     </g>
     <g id="text_11">
      <!-- 10000 -->
      <g style="fill:#ffffff;" transform="translate(87.1875 379.304066)scale(0.1 -0.1)">
       <use xlink:href="#DejaVuSans-31"/>
       <use x="63.623047" xlink:href="#DejaVuSans-30"/>
       <use x="127.246094" xlink:href="#DejaVuSans-30"/>
       <use x="190.869141" xlink:href="#DejaVuSans-30"/>
       <use x="254.492188" xlink:href="#DejaVuSans-30"/>
      </g>
     </g>
    </g>
    <g id="ytick_4">
     <g id="line2d_11">
      <g>
       <use style="fill:#ffffff;stroke:#ffffff;stroke-width:0.8;" x="126" xlink:href="#mbb0922a3ff" y="321.140906"/>
      </g>
     </g>
     <g id="text_12">
      <!-- 15000 -->
      <g style="fill:#ffffff;" transform="translate(87.1875 324.940124)scale(0.1 -0.1)">
       <use xlink:href="#DejaVuSans-31"/>
       <use x="63.623047" xlink:href="#DejaVuSans-35"/>
       <use x="127.246094" xlink:href="#DejaVuSans-30"/>
       <use x="190.869141" xlink:href="#DejaVuSans-30"/>
       <use x="254.492188" xlink:href="#DejaVuSans-30"/>
      </g>
     </g>
    </g>
    <g id="ytick_5">
     <g id="line2d_12">
      <g>
       <use style="fill:#ffffff;stroke:#ffffff;stroke-width:0.8;" x="126" xlink:href="#mbb0922a3ff" y="266.776964"/>
      </g>
     </g>
     <g id="text_13">
      <!-- 20000 -->
      <g style="fill:#ffffff;" transform="translate(87.1875 270.576182)scale(0.1 -0.1)">
       <use xlink:href="#DejaVuSans-32"/>
       <use x="63.623047" xlink:href="#DejaVuSans-30"/>
       <use x="127.246094" xlink:href="#DejaVuSans-30"/>
       <use x="190.869141" xlink:href="#DejaVuSans-30"/>
       <use x="254.492188" xlink:href="#DejaVuSans-30"/>
      </g>
     </g>
    </g>
    <g id="ytick_6">
     <g id="line2d_13">
      <g>
       <use style="fill:#ffffff;stroke:#ffffff;stroke-width:0.8;" x="126" xlink:href="#mbb0922a3ff" y="212.413022"/>
      </g>
     </g>
     <g id="text_14">
      <!-- 25000 -->
      <g style="fill:#ffffff;" transform="translate(87.1875 216.21224)scale(0.1 -0.1)">
       <use xlink:href="#DejaVuSans-32"/>
       <use x="63.623047" xlink:href="#DejaVuSans-35"/>
       <use x="127.246094" xlink:href="#DejaVuSans-30"/>
       <use x="190.869141" xlink:href="#DejaVuSans-30"/>
       <use x="254.492188" xlink:href="#DejaVuSans-30"/>
      </g>
     </g>
    </g>
    <g id="ytick_7">
     <g id="line2d_14">
      <g>
       <use style="fill:#ffffff;stroke:#ffffff;stroke-width:0.8;" x="126" xlink:href="#mbb0922a3ff" y="158.04908"/>
      </g>
     </g>
     <g id="text_15">
      <!-- 30000 -->
      <g style="fill:#ffffff;" transform="translate(87.1875 161.848298)scale(0.1 -0.1)">
       <use xlink:href="#DejaVuSans-33"/>
       <use x="63.623047" xlink:href="#DejaVuSans-30"/>
       <use x="127.246094" xlink:href="#DejaVuSans-30"/>
       <use x="190.869141" xlink:href="#DejaVuSans-30"/>
       <use x="254.492188" xlink:href="#DejaVuSans-30"/>
      </g>
     </g>
    </g>
    <g id="ytick_8">
     <g id="line2d_15">
      <g>
       <use style="fill:#ffffff;stroke:#ffffff;stroke-width:0.8;" x="126" xlink:href="#mbb0922a3ff" y="103.685138"/>
      </g>
     </g>
     <g id="text_16">
      <!-- 35000 -->
      <g style="fill:#ffffff;" transform="translate(87.1875 107.484356)scale(0.1 -0.1)">
       <use xlink:href="#DejaVuSans-33"/>
       <use x="63.623047" xlink:href="#DejaVuSans-35"/>
       <use x="127.246094" xlink:href="#DejaVuSans-30"/>
       <use x="190.869141" xlink:href="#DejaVuSans-30"/>
       <use x="254.492188" xlink:href="#DejaVuSans-30"/>
      </g>
     </g>
    </g>
   </g>
   <g id="line2d_16">
    <path clip-path="url(#pc8be585996)" d="M 161.509091 213.630774 
L 161.745897 231.092472 
L 161.982703 233.778051 
L 162.21951 247.803948 
L 162.456316 234.147726 
L 162.693122 227.200014 
L 162.929928 224.514435 
L 163.166734 246.009938 
L 163.403541 235.702534 
L 164.113959 269.538652 
L 164.350765 261.26446 
L 164.587572 284.804047 
L 164.824378 274.442279 
L 165.061184 256.980581 
L 165.534796 298.177576 
L 166.008409 322.510877 
L 166.245215 339.972575 
L 166.482021 314.323667 
L 166.718827 339.972575 
L 166.955634 334.340471 
L 167.19244 313.845265 
L 167.429246 319.79268 
L 167.666052 340.287886 
L 168.376471 278.236883 
L 168.850083 316.356879 
L 169.323696 334.992838 
L 169.560502 267.287985 
L 169.797308 266.342052 
L 170.034114 285.695615 
L 170.270921 291.643031 
L 170.507727 302.842003 
L 170.744533 294.100281 
L 170.981339 268.886285 
L 171.218145 275.975343 
L 171.928564 216.522936 
L 172.16537 244.96615 
L 172.402176 240.453943 
L 172.638983 265.059063 
L 172.875789 245.205351 
L 173.112595 234.843584 
L 173.349401 251.620297 
L 173.586208 254.534204 
L 173.823014 263.275926 
L 174.296626 309.920188 
L 174.533432 302.83113 
L 174.770239 278.22601 
L 175.243851 321.706291 
L 175.480657 307.680393 
L 175.95427 257.948259 
L 176.191076 282.031486 
L 176.427882 287.19606 
L 176.901494 272.082884 
L 177.138301 278.0303 
L 177.611913 236.876796 
L 177.848719 219.415097 
L 178.085525 243.498324 
L 178.322332 240.812745 
L 178.559138 240.312597 
L 178.795944 231.570875 
L 179.03275 235.267623 
L 179.269557 245.62939 
L 179.506363 262.069046 
L 179.743169 259.307358 
L 179.979975 235.767771 
L 180.216781 225.406004 
L 180.453588 201.322777 
L 180.690394 229.298462 
L 180.9272 212.858806 
L 181.164006 215.609621 
L 181.400812 231.233818 
L 181.637619 206.628698 
L 181.874425 223.068354 
L 182.348037 187.731792 
L 182.82165 229.537663 
L 183.058456 205.998076 
L 183.295262 213.087135 
L 183.532068 208.085652 
L 183.768874 226.221463 
L 184.005681 221.991948 
L 184.242487 199.180838 
L 184.479293 216.251116 
L 184.952906 180.914554 
L 185.426518 227.015176 
L 185.663324 213.358954 
L 186.136937 237.376944 
L 186.373743 216.381589 
L 186.610549 224.655781 
L 187.084161 196.190821 
L 187.320968 203.160279 
L 187.557774 237.115997 
L 188.504999 297.862266 
L 188.978611 259.426959 
L 189.215417 252.337901 
L 189.452223 270.604185 
L 189.68903 248.369333 
L 189.925836 272.452559 
L 190.399448 248.532425 
L 190.636255 248.532425 
L 190.873061 257.274147 
L 191.109867 257.274147 
L 191.346673 248.532425 
L 191.583479 255.621483 
L 191.820286 275.475194 
L 192.057092 280.476677 
L 192.293898 289.218399 
L 192.530704 271.756701 
L 192.76751 282.86869 
L 193.004317 261.873336 
L 193.477929 308.517598 
L 193.714735 284.434372 
L 193.951541 273.322382 
L 194.188348 247.673474 
L 194.425154 263.297671 
L 194.898766 274.877191 
L 195.135572 272.115503 
L 195.372379 289.577201 
L 195.609185 286.826385 
L 195.845991 300.852282 
L 196.082797 326.50119 
L 196.319604 337.61318 
L 196.55641 358.521552 
L 196.793216 347.409562 
L 197.503635 292.404126 
L 197.740441 295.154941 
L 197.977247 307.963086 
L 198.214053 302.015671 
L 198.450859 284.553973 
L 198.687666 287.315661 
L 198.924472 297.677428 
L 199.161278 321.760654 
L 200.108503 251.544187 
L 200.345309 257.491602 
L 200.582115 236.496248 
L 200.818921 230.864144 
L 201.055728 230.864144 
L 202.002952 293.752352 
L 202.713371 225.329894 
L 202.950177 242.106607 
L 203.186984 248.054022 
L 203.660596 201.159686 
L 203.897402 211.521453 
L 204.134208 197.865231 
L 204.371015 212.565241 
L 204.844627 220.328412 
L 205.081433 213.239354 
L 205.318239 237.844474 
L 205.555046 220.382776 
L 205.791852 214.750671 
L 206.028658 230.374868 
L 206.265464 227.61318 
L 206.50227 251.152767 
L 206.739077 259.894489 
L 206.975883 264.46106 
L 207.212689 252.903286 
L 207.449495 255.664974 
L 207.686301 249.717559 
L 207.923108 226.177972 
L 208.159914 242.171843 
L 208.870333 193.374769 
L 209.107139 205.987204 
L 209.343945 211.934619 
L 209.580751 205.987204 
L 209.817557 197.245482 
L 210.054364 207.552885 
L 210.29117 233.201793 
L 210.527976 222.002821 
L 210.764782 247.216817 
L 211.238395 196.353913 
L 211.475201 203.442971 
L 211.712007 193.081204 
L 211.948813 174.814919 
L 212.185619 180.447024 
L 212.422426 162.343831 
L 212.659232 177.968028 
L 212.896038 317.009246 
L 213.132844 328.121236 
L 213.36965 310.659538 
L 213.843263 357.49951 
L 214.080069 362.500993 
L 214.316875 370.775185 
L 214.553682 225.416877 
L 214.790488 253.218596 
L 215.027294 256.00203 
L 215.737713 308.332761 
L 215.974519 316.693935 
L 216.448131 345.941736 
L 216.684937 337.200014 
L 216.921744 313.116788 
L 217.15855 321.85851 
L 217.395356 299.0474 
L 217.632162 290.773208 
L 217.868968 308.8764 
L 218.342581 277.182222 
L 218.816193 308.278397 
L 219.052999 290.175204 
L 219.289806 300.482608 
L 220.000224 254.164529 
L 220.473837 227.841508 
L 220.710643 202.627512 
L 220.947449 245.553281 
L 221.184255 222.013694 
L 221.421062 232.505935 
L 221.894674 220.426267 
L 222.368286 258.437535 
L 222.841899 298.025357 
L 223.078705 306.299549 
L 223.315511 289.522837 
L 223.552317 295.470252 
L 223.789124 312.246965 
L 224.02593 295.470252 
L 224.499542 336.330191 
L 224.736348 313.519081 
L 224.973155 302.320109 
L 225.209961 285.543396 
L 225.683573 242.063116 
L 225.92038 233.321394 
L 226.157186 247.347291 
L 226.393992 270.886878 
L 226.630798 255.262681 
L 226.867604 246.988489 
L 227.341217 202.54053 
L 227.578023 220.806814 
L 227.814829 210.499411 
L 228.051635 193.429133 
L 228.288442 218.034253 
L 228.525248 226.308445 
L 228.762054 208.205253 
L 228.99886 226.308445 
L 229.235666 208.846747 
L 229.472473 224.470944 
L 229.946085 202.997187 
L 230.182891 211.738909 
L 230.419697 189.884604 
L 230.656504 182.795546 
L 230.89331 199.572259 
L 231.130116 202.333947 
L 231.366922 197.332464 
L 231.840535 238.333749 
L 232.077341 235.572061 
L 232.550953 256.023776 
L 232.78776 253.262088 
L 233.024566 253.696999 
L 233.261372 255.001734 
L 233.498178 260.949149 
L 233.734984 240.453943 
L 234.208597 276.018834 
L 234.445403 267.744642 
L 234.682209 244.205055 
L 234.919015 259.698778 
L 235.155822 265.646194 
L 235.392628 251.620297 
L 235.629434 261.982064 
L 235.86624 241.486858 
L 236.103046 241.171547 
L 236.339853 247.118962 
L 236.576659 264.18924 
L 236.813465 248.565043 
L 237.050271 242.932939 
L 237.287078 280.889843 
L 237.523884 292.088815 
L 237.76069 283.814623 
L 237.997496 306.712715 
L 238.471109 324.544088 
L 238.707915 311.735944 
L 238.944721 289.501091 
L 239.181527 282.390288 
L 239.65514 237.855346 
L 239.891946 260.090199 
L 240.128752 241.823914 
L 240.839171 284.999757 
L 241.075977 274.692354 
L 241.312783 258.252697 
L 241.549589 263.884802 
L 242.260008 208.85762 
L 242.496814 289.131417 
L 242.970427 268.810175 
L 243.207233 277.551897 
L 243.680845 304.092373 
L 243.917651 282.596871 
L 244.154458 300.721809 
L 244.391264 307.810867 
L 244.62807 289.544582 
L 245.101682 329.30637 
L 245.338489 331.991948 
L 245.575295 320.792976 
L 246.285713 340.016066 
L 247.232938 281.129044 
L 247.469744 278.378229 
L 247.943357 234.897948 
L 248.180163 240.649653 
L 248.416969 223.579375 
L 248.890582 273.833403 
L 249.127388 266.744345 
L 249.364194 291.958341 
L 249.601 297.590446 
L 249.837807 318.085652 
L 250.074613 320.84734 
L 250.311419 327.936398 
L 250.548225 315.128254 
L 250.785031 294.633047 
L 251.258644 316.563462 
L 251.732256 280.096129 
L 252.205869 233.538849 
L 252.442675 250.609127 
L 252.679481 240.301724 
L 252.916287 223.862068 
L 253.153093 242.128352 
L 253.3899 233.85416 
L 253.863512 195.788528 
L 254.100318 203.334243 
L 254.573931 241.399875 
L 255.047543 196.364786 
L 255.521156 225.362513 
L 255.757962 208.292235 
L 255.994768 207.444157 
L 256.231574 210.673375 
L 256.46838 230.527087 
L 256.705187 213.065389 
L 256.941993 289.272763 
L 257.178799 274.409661 
L 257.415605 250.326435 
L 257.652411 256.27385 
L 257.889218 281.922758 
L 258.599636 246.825397 
L 259.073249 217.577596 
L 259.546861 255.512755 
L 259.783667 277.747607 
L 260.020473 254.20802 
L 260.25728 267.016165 
L 260.494086 249.945887 
L 260.730892 274.551007 
L 260.967698 268.603592 
L 261.204505 273.605075 
L 261.441311 294.100281 
L 261.678117 268.451373 
L 261.914923 279.650345 
L 262.388536 265.276519 
L 262.625342 273.550711 
L 262.862148 276.236289 
L 263.33576 229.396317 
L 263.572567 235.028421 
L 264.046179 227.34136 
L 264.282985 230.026939 
L 264.519791 222.937881 
L 264.756598 210.129736 
L 264.993404 188.634233 
L 265.23021 199.909315 
L 265.467016 190.221661 
L 265.703822 172.759962 
L 265.940629 183.12173 
L 266.177435 176.032672 
L 266.887854 241.497731 
L 267.12466 227.471834 
L 267.361466 236.213555 
L 267.598272 250.239452 
L 267.835078 232.13626 
L 268.545497 293.969807 
L 269.019109 248.978209 
L 269.255916 233.354012 
L 269.492722 230.592324 
L 269.729528 254.131911 
L 269.966334 265.2439 
L 270.439947 304.320702 
L 270.676753 309.952806 
L 270.913559 295.926909 
L 271.150365 273.115799 
L 271.387171 285.923944 
L 271.623978 269.484288 
L 271.860784 289.609819 
L 272.09759 298.340668 
L 272.334396 282.716471 
L 272.571203 304.211974 
L 272.808009 311.301032 
L 273.044815 332.209404 
L 273.281621 327.207921 
L 273.755234 281.629193 
L 274.228846 321.227888 
L 274.465652 323.978703 
L 274.702458 312.779731 
L 274.939265 330.241429 
L 275.176071 319.879662 
L 275.412877 322.565241 
L 275.649683 319.879662 
L 275.886489 296.340075 
L 276.123296 290.39266 
L 276.360102 269.484288 
L 276.596908 266.733472 
L 276.833714 290.273059 
L 277.07052 281.998867 
L 277.307327 279.628599 
L 277.780939 290.729716 
L 278.017745 274.29006 
L 278.491358 303.940154 
L 278.728164 281.129044 
L 278.96497 292.328016 
L 279.201776 282.020613 
L 279.438583 290.294805 
L 279.675389 222.492096 
L 279.912195 240.736635 
L 280.149001 249.010827 
L 280.385807 270.50633 
L 280.622614 281.705302 
L 280.85942 278.943614 
L 281.096226 278.780522 
L 281.333032 301.591632 
L 281.569838 284.521354 
L 281.806645 301.591632 
L 282.280257 315.3892 
L 282.517063 293.893698 
L 282.753869 305.09267 
L 282.990676 281.009444 
L 283.227482 287.978901 
L 283.701094 327.153558 
L 283.937901 315.954585 
L 284.174707 327.153558 
L 284.648319 303.233423 
L 284.885125 286.456711 
L 285.121932 297.5687 
L 285.358738 288.826978 
L 285.595544 308.68069 
L 286.069156 324.04394 
L 286.305963 321.282252 
L 286.542769 338.74395 
L 287.016381 324.837654 
L 287.253187 306.734461 
L 287.489994 315.008653 
L 287.7268 317.770341 
L 287.963606 328.077745 
L 288.200412 322.130329 
L 288.437218 330.872051 
L 289.147637 268.288281 
L 289.62125 292.675946 
L 290.094862 246.238266 
L 290.331668 263.308544 
L 290.568474 252.946777 
L 290.805281 264.058766 
L 291.278893 229.526791 
L 291.515699 243.552688 
L 291.752505 238.551205 
L 291.989312 256.012903 
L 292.226118 250.065488 
L 292.69973 292.57809 
L 292.936536 289.892512 
L 293.173343 292.57809 
L 293.410149 306.234313 
L 293.646955 312.181728 
L 293.883761 314.943416 
L 294.357374 274.594498 
L 294.59418 271.90892 
L 294.830986 291.762631 
L 295.067792 285.815216 
L 295.541405 244.009345 
L 295.778211 241.258529 
L 296.015017 220.611104 
L 296.251823 221.752747 
L 296.48863 224.623163 
L 296.962242 200.616046 
L 297.672661 262.634431 
L 297.909467 265.32001 
L 298.146273 247.053725 
L 298.856692 288.935706 
L 299.093498 291.697395 
L 299.330304 312.192601 
L 299.56711 317.194083 
L 299.803916 296.198729 
L 300.277529 336.960813 
L 300.514335 312.355693 
L 300.751141 322.663096 
L 300.987947 313.921374 
L 301.224754 311.170559 
L 301.46156 287.087332 
L 301.935172 323.706884 
L 302.171979 347.79011 
L 302.645591 307.267228 
L 302.882397 332.916135 
L 303.35601 308.582835 
L 303.592816 319.781807 
L 303.829622 314.780324 
L 304.066428 328.806221 
L 304.776847 275.866615 
L 305.013653 280.868097 
L 305.250459 266.8422 
L 306.197684 316.095932 
L 306.43449 309.006874 
L 306.671296 290.903681 
L 307.144909 314.019229 
L 307.381715 311.257541 
L 307.618521 318.346599 
L 307.855328 334.786255 
L 308.092134 320.760358 
L 308.32894 299.765004 
L 308.565746 302.515819 
L 309.276165 261.481916 
L 309.512971 237.942329 
L 309.749777 246.020811 
L 309.986583 269.560397 
L 310.460196 249.663195 
L 310.697002 246.977616 
L 310.933808 236.615849 
L 311.407421 278.802268 
L 311.644227 258.307061 
L 311.881033 260.99264 
L 312.117839 245.368443 
L 312.354645 242.617628 
L 312.828258 256.839235 
L 313.30187 293.458786 
L 313.538677 303.76619 
L 313.775483 278.117282 
L 314.012289 269.84309 
L 314.249095 292.6542 
L 314.722708 247.662602 
L 315.19632 253.175105 
L 315.433126 230.940253 
L 315.669932 253.175105 
L 315.906739 250.42429 
L 316.380351 275.812251 
L 316.617157 255.958539 
L 316.853963 272.735252 
L 317.327576 237.409562 
L 317.564382 235.952608 
L 317.801188 246.314376 
L 318.037994 267.30973 
L 318.274801 246.814524 
L 318.511607 241.18242 
L 318.748413 264.722007 
L 318.985219 247.260308 
L 319.222026 254.349366 
L 319.458832 243.237377 
L 319.695638 252.294409 
L 319.932444 236.670213 
L 320.16925 253.74049 
L 320.642863 218.012508 
L 320.879669 215.250819 
L 321.116475 218.001635 
L 321.353281 225.090693 
L 321.590088 245.999065 
L 321.826894 243.313486 
L 322.0637 218.09949 
L 322.300506 207.792087 
L 322.537312 223.416283 
L 322.774119 226.177972 
L 323.010925 210.553775 
L 323.484537 251.391968 
L 323.721343 230.896762 
L 323.95815 255.501882 
L 324.194956 265.809285 
L 324.431762 289.892512 
L 324.668568 265.287392 
L 324.905375 302.222254 
L 325.142181 294.198136 
L 325.378987 305.310126 
L 325.615793 302.55931 
L 325.852599 289.685929 
L 326.089406 289.685929 
L 326.326212 312.497039 
L 326.563018 225.764806 
L 326.799824 234.506528 
L 327.03663 259.720524 
L 327.273437 253.773109 
L 327.510243 268.016461 
L 327.983855 257.045818 
L 328.220661 273.485474 
L 328.457468 259.829252 
L 328.694274 252.892413 
L 328.93108 272.746124 
L 329.167886 251.75077 
L 329.404692 254.229766 
L 329.641499 279.878674 
L 329.878305 263.439018 
L 330.115111 276.247162 
L 330.351917 271.24568 
L 330.82553 239.257936 
L 331.062336 248.336714 
L 331.299142 269.332069 
L 331.535948 280.444059 
L 331.772755 297.220771 
L 332.009561 299.90635 
L 332.246367 315.530547 
L 332.483173 310.529064 
L 332.719979 326.96872 
L 332.956786 304.15761 
L 333.430398 288.32683 
L 333.667204 271.550118 
L 333.90401 268.864539 
L 334.140817 250.761346 
L 334.377623 256.393451 
L 334.614429 273.170163 
L 335.088041 251.75077 
L 335.324848 234.289072 
L 335.561654 257.100182 
L 335.79846 259.416086 
L 336.035266 236.604976 
L 336.508879 284.412626 
L 336.745685 264.558915 
L 336.982491 273.539838 
L 337.219297 295.77469 
L 337.456104 293.089111 
L 337.69291 287.141696 
L 337.929716 263.602109 
L 338.166522 310.431209 
L 338.403328 313.182024 
L 338.640135 331.285217 
L 338.876941 318.477072 
L 339.113747 324.424488 
L 339.350553 348.507714 
L 339.587359 341.418656 
L 339.824166 320.423301 
L 340.060972 327.51236 
L 340.297778 306.603987 
L 340.534584 330.143574 
L 340.77139 307.908722 
L 341.008197 301.961307 
L 341.245003 306.962789 
L 341.481809 299.873731 
L 341.718615 299.873731 
L 341.955422 276.334145 
L 342.192228 296.187856 
L 342.429034 293.426168 
L 342.66584 299.373583 
L 342.902646 322.91317 
L 343.139453 298.30805 
L 343.376259 306.517005 
L 343.613065 296.155238 
L 344.086677 319.32515 
L 344.323484 322.086838 
L 344.56029 303.820554 
L 344.797096 325.316056 
L 345.033902 322.554368 
L 345.270708 312.192601 
L 345.507515 336.797721 
L 345.981127 323.522046 
L 346.217933 337.547943 
L 346.691546 295.122323 
L 346.928352 313.388607 
L 347.165158 310.637792 
L 347.401964 331.546164 
L 347.875577 286.500202 
L 348.112383 286.500202 
L 348.585995 263.265053 
L 348.822802 270.354111 
L 349.296414 230.896762 
L 349.53322 236.528866 
L 349.770026 226.221463 
L 350.006833 242.758974 
L 350.480445 291.218992 
L 350.717251 299.493184 
L 350.954057 302.178763 
L 351.190864 297.17728 
L 351.42767 317.030992 
L 351.664476 301.406795 
L 351.901282 298.721216 
L 352.138088 288.413812 
L 352.611701 333.405411 
L 352.848507 349.029608 
L 353.085313 338.66784 
L 353.322119 314.584614 
L 353.558926 324.946381 
L 353.795732 345.941736 
L 354.032538 340.309631 
L 354.506151 302.874621 
L 354.742957 319.162058 
L 354.979763 296.274838 
L 355.216569 306.582242 
L 355.453375 311.583725 
L 355.690182 297.927502 
L 355.926988 314.367158 
L 356.163794 298.742961 
L 356.637406 321.053923 
L 356.874213 342.049278 
L 357.347825 307.517302 
L 357.821437 357.77133 
L 358.058244 366.513051 
L 358.29505 383.97475 
L 358.531856 381.213061 
L 358.768662 355.999065 
L 359.005468 371.623262 
L 359.242275 374.38495 
L 360.426306 287.870173 
L 360.899918 244.150691 
L 361.136724 285.86958 
L 361.847143 338.624349 
L 362.557562 279.867801 
L 362.794368 269.506033 
L 363.031174 248.010531 
L 363.26798 259.27474 
L 363.504786 282.08585 
L 363.978399 238.975244 
L 364.215205 264.18924 
L 364.452011 247.412527 
L 364.688817 271.495754 
L 365.16243 281.596574 
L 365.399236 273.322382 
L 365.636042 248.108386 
L 365.872849 272.713506 
L 366.346461 237.235598 
L 366.583267 252.859794 
L 366.820073 254.610313 
L 367.05688 272.072012 
L 367.293686 274.75759 
L 367.530492 291.197246 
L 367.767298 266.592126 
L 368.004104 271.343535 
L 368.240911 264.254477 
L 368.477717 281.031189 
L 368.714523 258.220079 
L 368.951329 271.028224 
L 369.188135 276.975639 
L 369.424942 253.436052 
L 369.661748 278.650048 
L 369.898554 281.400864 
L 370.13536 299.504057 
L 370.372166 338.385148 
L 370.608973 338.385148 
L 370.845779 328.197345 
L 371.082585 350.432197 
L 372.02981 286.076163 
L 372.266616 309.61575 
L 372.503422 315.563165 
L 372.740229 229.494172 
L 373.213841 249.434866 
L 373.450647 272.245976 
L 373.687453 272.245976 
L 373.92426 297.459972 
L 374.161066 287.098205 
L 374.397872 289.859893 
L 374.871484 330.36103 
L 375.108291 324.728926 
L 375.345097 321.967237 
L 375.581903 300.971883 
L 375.818709 298.286304 
L 376.055515 319.781807 
L 376.292322 304.15761 
L 376.529128 278.943614 
L 377.00274 259.992344 
L 377.239547 286.685039 
L 377.476353 261.036131 
L 377.949965 238.225021 
L 378.423578 224.231743 
L 378.660384 232.973464 
L 379.133996 270.930369 
L 379.370802 283.738513 
L 379.607609 277.791098 
L 379.844415 283.423203 
L 380.081221 216.599045 
L 380.318027 239.410155 
L 380.554833 244.281164 
L 381.028446 289.783784 
L 381.265252 303.440006 
L 381.502058 306.125585 
L 381.738864 303.440006 
L 381.975671 313.747409 
L 382.212477 306.212567 
L 382.449283 306.212567 
L 382.686089 317.324557 
L 382.922896 309.050365 
L 383.159702 311.812053 
L 383.396508 325.83795 
L 383.633314 323.076262 
L 384.106927 282.55338 
L 384.343733 292.860783 
L 384.580539 310.963976 
L 384.817345 308.21316 
L 385.054151 297.851393 
L 385.527764 335.786551 
L 386.948601 222.948754 
L 387.185407 248.847736 
L 387.422213 251.609424 
L 387.65902 257.089309 
L 387.895826 259.774888 
L 388.132632 236.235301 
L 388.369438 231.788331 
L 388.606245 218.327819 
L 389.316663 278.367356 
L 389.553469 260.101072 
L 390.027082 291.79525 
L 390.263888 294.546065 
L 390.500694 270.462839 
L 390.974307 294.480828 
L 391.211113 269.266832 
L 391.447919 276.35589 
L 391.684725 300.439116 
L 391.921531 294.491701 
L 392.158338 291.730013 
L 392.63195 245.955574 
L 393.105562 285.260704 
L 393.342369 282.509888 
L 393.815981 326.22937 
L 394.052787 317.487649 
L 394.5264 285.423796 
L 394.763206 306.41915 
L 395.000012 295.30716 
L 395.236818 248.641153 
L 395.473625 259.024665 
L 395.710431 250.282944 
L 395.947237 265.330883 
L 396.184043 271.278298 
L 396.420849 263.004106 
L 396.657656 247.379909 
L 396.894462 258.578881 
L 397.131268 276.682074 
L 397.368074 281.683556 
L 397.60488 292.045324 
L 398.078493 257.165419 
L 398.315299 269.973563 
L 398.552105 257.165419 
L 399.025718 209.020712 
L 399.262524 211.401852 
L 399.49933 219.676044 
L 399.736136 211.401852 
L 399.972942 210.26021 
L 400.209749 224.286107 
L 400.446555 221.535291 
L 400.683361 238.996989 
L 400.920167 234.571764 
L 401.156974 288.696505 
L 401.39378 301.798215 
L 401.630586 277.714989 
L 401.867392 234.071616 
L 402.104198 258.676736 
L 402.341005 243.052539 
L 402.577811 246.553577 
L 402.814617 264.819862 
L 403.051423 269.266832 
L 403.288229 243.617924 
L 403.525036 240.63878 
L 403.998648 279.878674 
L 404.235454 290.186077 
L 404.47226 277.377932 
L 404.945873 229.929084 
L 405.419485 270.930369 
L 405.656291 268.16868 
L 406.129904 298.264559 
L 406.36671 289.522837 
L 406.603516 275.49694 
L 406.840323 301.145848 
L 407.313935 254.001437 
L 407.550741 279.650345 
L 408.024354 241.693441 
L 408.26116 228.037219 
L 408.497966 253.251215 
L 408.734772 250.500399 
L 408.971578 279.541617 
L 409.208385 276.225417 
L 409.681997 311.268414 
L 409.918803 212.010728 
L 410.155609 253.098996 
L 410.392416 271.36528 
L 410.629222 278.454338 
L 411.102834 252.522738 
L 411.33964 254.186275 
L 411.576447 237.115997 
L 411.813253 239.877685 
L 412.286865 277.649752 
L 412.523672 271.702337 
L 412.760478 274.387915 
L 412.997284 284.695319 
L 413.470896 233.832415 
L 413.707703 220.176193 
L 413.944509 220.176193 
L 414.181315 240.83449 
L 414.418121 249.195665 
L 414.654927 269.049376 
L 414.891734 244.444256 
L 415.12854 233.245284 
L 415.365346 257.32851 
L 415.602152 268.527483 
L 415.838958 285.467287 
L 416.075765 313.801773 
L 416.312571 305.060051 
L 416.549377 327.131812 
L 416.786183 316.019822 
L 417.022989 193.61397 
L 417.259796 214.402742 
L 417.496602 201.594597 
L 417.733408 222.089803 
L 417.970214 221.502673 
L 418.207021 201.007467 
L 418.443827 209.749188 
L 418.917439 243.052539 
L 419.154245 250.141597 
L 419.391052 233.364885 
L 419.627858 244.563857 
L 419.864664 241.813041 
L 420.10147 224.742764 
L 420.338276 224.742764 
L 421.048695 281.281263 
L 421.285501 283.966842 
L 421.522307 297.623064 
L 421.759114 294.937486 
L 421.99592 318.477072 
L 422.469532 287.565735 
L 422.706338 295.839927 
L 422.943145 272.30034 
L 423.416757 312.181728 
L 423.653563 336.264954 
L 424.127176 291.164628 
L 424.363982 315.769748 
L 424.837594 278.084663 
L 425.074401 290.892808 
L 425.548013 276.986512 
L 425.784819 256.969708 
L 426.258432 291.849614 
L 426.96885 237.420435 
L 427.442463 284.064697 
L 427.679269 266.602999 
L 427.916075 284.064697 
L 428.389687 242.911193 
L 428.626494 266.994419 
L 429.336912 221.644019 
L 429.573719 227.830636 
L 429.810525 248.739008 
L 430.047331 235.082785 
L 430.520943 242.769847 
L 430.75775 219.958737 
L 430.994556 226.721611 
L 431.231362 269.288578 
L 431.704974 296.840223 
L 431.941781 271.191316 
L 432.178587 287.968028 
L 432.415393 205.356582 
L 432.652199 190.558717 
L 432.889005 195.614564 
L 433.125812 216.609918 
L 433.362618 227.721908 
L 433.83623 257.306765 
L 434.073036 261.992937 
L 434.309843 274.801081 
L 434.783455 279.128451 
L 435.020261 276.442872 
L 435.257068 279.128451 
L 435.493874 298.982163 
L 435.967486 266.05936 
L 436.204292 270.799895 
L 436.441099 268.114317 
L 436.677905 270.995605 
L 437.151517 259.231248 
L 437.388323 269.821344 
L 437.62513 293.360931 
L 437.861936 270.549821 
L 438.098742 290.131713 
L 438.335548 293.31744 
L 438.572354 215.011618 
L 439.282773 302.602801 
L 439.756385 256.252104 
L 439.993192 279.063214 
L 440.229998 273.43111 
L 440.466804 276.192798 
L 440.70361 280.781115 
L 440.940417 267.97297 
L 441.177223 281.629193 
L 441.414029 264.167494 
L 441.650835 261.416679 
L 441.887641 261.579771 
L 442.124448 282.575125 
L 442.361254 272.213358 
L 442.59806 246.999361 
L 442.834866 257.306765 
L 443.071672 281.911885 
L 443.308479 261.003513 
L 443.545285 273.811658 
L 443.782091 262.699668 
L 444.018897 268.331772 
L 444.255703 246.83627 
L 444.49251 249.587085 
L 444.966122 286.119654 
L 445.439734 324.78329 
L 445.676541 311.975145 
L 445.913347 306.343041 
L 446.150153 313.432099 
L 446.386959 327.457996 
L 446.860572 305.147034 
L 447.334184 277.323568 
L 447.57099 286.06529 
L 447.807797 207.607249 
L 448.044603 213.554664 
L 448.281409 222.296386 
L 448.991828 288.555159 
L 449.46544 262.090792 
L 449.702246 274.898937 
L 449.939052 298.982163 
L 450.175859 283.357966 
L 450.412665 280.60715 
L 450.649471 267.799006 
L 450.886277 270.484584 
L 451.123083 277.573642 
L 451.35989 270.484584 
L 451.596696 273.246273 
L 451.833502 253.392561 
L 452.070308 267.418458 
L 452.307114 241.76955 
L 452.543921 253.696999 
L 452.780727 236.235301 
L 453.017533 261.884209 
L 453.964758 228.124201 
L 454.201564 228.124201 
L 454.43837 244.900913 
L 454.911983 203.747409 
L 455.148789 210.249337 
L 455.385595 213.000152 
L 455.622401 218.316946 
L 456.096014 235.767771 
L 456.33282 233.397503 
L 456.569626 233.397503 
L 456.806432 225.123311 
L 457.280045 263.221562 
L 457.753657 245.770736 
L 458.22727 287.957155 
L 458.464076 269.853963 
L 458.700882 281.248645 
L 459.174495 313.638682 
L 459.884913 266.831328 
L 460.121719 279.639472 
L 460.358526 274.63799 
L 460.595332 272.96358 
L 460.832138 277.965063 
L 461.30575 320.031881 
L 462.016169 375.820158 
L 462.489781 330.75245 
L 462.726588 325.750968 
L 462.963394 334.02516 
L 463.2002 202.236092 
L 463.437006 204.986907 
L 463.673812 184.491701 
L 464.147425 231.331673 
L 464.384231 245.35757 
L 465.09465 179.403236 
L 465.331456 317.378921 
L 465.568262 316.759172 
L 465.805068 318.792383 
L 466.041875 339.787738 
L 466.278681 345.419842 
L 466.752293 300.319516 
L 467.225906 275.747014 
L 467.462712 272.006775 
L 467.699518 249.195665 
L 467.936324 263.221562 
L 468.409937 304.135864 
L 468.646743 293.774097 
L 469.120355 326.990466 
L 469.357161 314.182321 
L 469.830774 276.062325 
L 470.06758 284.804047 
L 470.541193 327.675451 
L 470.777999 306.680097 
L 471.014805 331.894093 
L 471.251611 313.790901 
L 471.488417 306.701843 
L 472.198836 340.255268 
L 472.435642 350.617035 
L 472.672448 345.615552 
L 473.382867 305.984239 
L 473.619673 280.335331 
L 473.856479 305.984239 
L 474.330092 278.900123 
L 474.566898 291.708267 
L 474.803704 288.946579 
L 475.04051 304.092373 
L 475.277317 285.826089 
L 475.514123 280.422313 
L 475.987735 309.724478 
L 476.224542 307.038899 
L 476.461348 314.127957 
L 476.698154 308.180542 
L 476.93496 324.620198 
L 477.645379 294.404719 
L 477.882185 300.352134 
L 478.82941 227.711035 
L 479.066216 245.977319 
L 479.303022 234.778347 
L 479.539828 211.23876 
L 479.776635 222.437733 
L 480.013441 215.348674 
L 480.487053 259.285612 
L 480.723859 234.680492 
L 481.197472 256.806617 
L 481.434278 267.918606 
L 481.671084 245.683754 
L 481.907891 236.757195 
L 482.144697 212.673969 
L 482.381503 206.432988 
L 482.618309 208.814129 
L 482.855115 209.401259 
L 483.091922 188.906053 
L 483.328728 209.401259 
L 483.565534 192.330981 
L 483.80234 210.597266 
L 484.039146 193.135568 
L 484.275953 188.134085 
L 484.512759 205.204363 
L 484.749565 184.709157 
L 484.986371 201.148813 
L 485.223177 198.387125 
L 485.459984 206.661317 
L 485.69679 197.919595 
L 486.407208 244.400765 
L 486.644015 244.400765 
L 486.880821 241.64995 
L 487.117627 231.342546 
L 487.354433 244.150691 
L 487.59124 227.080413 
L 487.828046 245.183606 
L 488.301658 198.865527 
L 488.538464 224.514435 
L 489.012077 190.787046 
L 489.248883 194.005391 
L 489.485689 271.898047 
L 489.722495 277.410551 
L 489.959302 303.059458 
L 490.432914 271.028224 
L 490.906526 298.134085 
L 491.143333 280.672387 
L 491.380139 208.85762 
L 491.616945 201.975145 
L 491.853751 220.078337 
L 492.090557 214.446233 
L 492.56417 259.513941 
L 492.800976 256.828362 
L 493.037782 250.880947 
L 493.274588 273.115799 
L 493.511395 280.204857 
L 493.748201 233.147429 
L 493.985007 243.922362 
L 494.221813 243.922362 
L 494.45862 241.236784 
L 494.695426 244.509493 
L 495.169038 268.897157 
L 495.405844 260.622965 
L 495.642651 282.857818 
L 496.116263 235.963481 
L 496.353069 248.771626 
L 496.826682 262.677922 
L 497.300294 228.874423 
L 497.5371 217.762434 
L 497.773906 192.113526 
L 498.010713 217.762434 
L 498.247519 193.157313 
L 498.484325 216.6969 
L 498.721131 191.047992 
L 499.194744 224.949347 
L 499.43155 216.675155 
L 499.668356 213.913466 
L 499.905162 233.767178 
L 500.141969 211.532326 
L 500.615581 260.111944 
L 500.852387 268.853666 
L 501.326 240.530052 
L 501.562806 256.154249 
L 501.799612 281.803157 
L 502.273224 235.137149 
L 502.510031 268.995012 
L 502.746837 250.728728 
L 503.220449 281.15079 
L 503.694062 239.605865 
L 503.930868 228.406893 
L 504.641286 269.168977 
L 504.878093 263.536873 
L 505.351705 277.443169 
L 505.588511 293.882825 
L 505.825318 300.971883 
L 506.29893 270.50633 
L 506.535736 281.705302 
L 507.246155 246.151284 
L 507.956573 288.272466 
L 508.430186 255.208317 
L 508.666992 279.813437 
L 508.903798 282.564252 
L 509.140604 299.340965 
L 509.377411 282.564252 
L 509.614217 292.92602 
L 509.851023 295.687708 
L 510.324635 330.230557 
L 510.561442 243.813634 
L 511.745473 314.638978 
L 511.982279 300.982756 
L 512.219085 293.893698 
L 512.692698 321.575817 
L 512.929504 297.492591 
L 513.16631 287.185187 
L 513.403116 293.132603 
L 513.639922 276.062325 
L 513.876729 288.87047 
L 514.113535 274.844573 
L 514.350341 277.606261 
L 514.587147 297.459972 
L 514.823953 275.96447 
L 515.06076 297.459972 
L 515.534372 266.548635 
L 515.771178 241.334639 
L 516.007984 249.608831 
L 516.481597 214.565834 
L 516.718403 238.64906 
L 516.955209 241.334639 
L 517.192016 252.533611 
L 517.428822 228.450384 
L 517.665628 228.450384 
L 517.902434 246.553577 
L 518.13924 238.279385 
L 518.376047 217.371013 
L 518.612853 224.460071 
L 518.849659 213.261099 
L 519.086465 223.622866 
L 519.323271 216.533808 
L 519.560078 213.77212 
L 519.796884 225.090693 
L 520.03369 288.707378 
L 520.270496 294.339482 
L 520.507302 269.125486 
L 520.744109 263.493381 
L 520.980915 269.125486 
L 521.217721 282.781708 
L 521.454527 267.157511 
L 521.691333 264.395823 
L 521.92814 243.487451 
L 522.164946 266.298561 
L 522.401752 273.387619 
L 522.638558 294.295991 
L 522.875365 271.484881 
L 523.112171 292.980384 
L 523.348977 275.910106 
L 523.585783 287.022096 
L 523.822589 270.245383 
L 524.059396 265.2439 
L 524.533008 270.691167 
L 524.769814 265.059063 
L 525.00662 241.519476 
L 525.243427 233.245284 
L 525.480233 238.877389 
L 525.717039 307.386828 
L 525.953845 302.385346 
L 526.190651 305.147034 
L 526.427458 302.385346 
L 526.90107 344.78922 
L 527.374682 310.268117 
L 527.611489 307.517302 
L 528.085101 316.182914 
L 528.321907 310.55081 
L 528.558714 315.85673 
L 528.79552 308.919891 
L 529.032326 320.031881 
L 529.269132 344.637001 
L 529.742745 307.713012 
L 529.979551 328.208218 
L 530.216357 305.973366 
L 530.453163 299.025654 
L 530.689969 278.530448 
L 531.163582 262.59094 
L 531.400388 257.045818 
L 531.637194 279.28067 
L 531.874 268.918903 
L 532.110807 279.28067 
L 532.347613 274.279188 
L 532.584419 250.195961 
L 532.821225 250.195961 
L 533.531644 290.740589 
L 533.76845 270.245383 
L 534.005256 263.156325 
L 534.242063 270.245383 
L 534.478869 271.550118 
L 534.715675 293.78497 
L 534.952481 269.701744 
L 535.426094 318.39009 
L 535.6629 324.022194 
L 535.899706 336.830339 
L 536.136512 334.068651 
L 536.610125 300.7653 
L 536.846931 324.304887 
L 537.083737 318.672783 
L 537.794156 266.7226 
L 538.030962 287.46788 
L 538.267768 276.268908 
L 538.504574 202.453547 
L 538.74138 195.364489 
L 539.214993 234.299945 
L 539.451799 255.295299 
L 539.688605 238.518587 
L 539.925412 234.854457 
L 540.399024 282.346797 
L 540.63583 287.348279 
L 540.872636 269.081995 
L 541.109443 288.935706 
L 541.346249 222.318132 
L 541.583055 239.018735 
L 541.819861 239.627611 
L 542.056667 222.850898 
L 542.293474 248.499806 
L 543.003892 195.647182 
L 543.240698 212.71746 
L 543.477505 218.664875 
L 543.714311 227.406597 
L 543.951117 224.721018 
L 544.424729 263.091088 
L 544.661536 257.458984 
L 545.135148 286.761149 
L 545.371954 265.265646 
L 545.60876 262.514831 
L 546.082373 213.326336 
L 546.319179 236.865923 
L 546.555985 242.498027 
L 546.792792 259.27474 
L 547.029598 251.000548 
L 547.266404 259.27474 
L 547.50321 279.128451 
L 547.976823 242.835084 
L 548.213629 261.101368 
L 548.687241 250.435163 
L 548.924047 263.243307 
L 549.39766 310.08328 
L 549.871272 279.650345 
L 550.108078 299.504057 
L 550.344885 281.237772 
L 550.581691 291.545176 
L 551.528916 227.580561 
L 551.765722 230.92938 
L 552.002528 251.837752 
L 552.239334 227.754526 
L 552.476141 250.565636 
L 552.712947 239.366664 
L 552.949753 217.131812 
L 553.423365 255.06697 
L 553.660172 255.06697 
L 553.896978 243.954981 
L 554.133784 266.189833 
L 554.37059 277.301823 
L 554.607396 298.297177 
L 554.844203 276.801674 
L 555.081009 268.527483 
L 555.317815 243.922362 
L 555.554621 268.005589 
L 555.791427 247.510383 
L 556.028234 268.005589 
L 556.26504 243.922362 
L 556.501846 254.229766 
L 556.738652 236.768068 
L 556.975458 247.96704 
L 557.212265 225.15593 
L 557.449071 295.633344 
L 557.922683 332.829153 
L 558.633102 286.685039 
L 558.869908 262.601813 
L 559.106714 265.363501 
L 559.343521 242.552391 
L 559.580327 234.278199 
L 560.053939 255.784575 
L 560.290745 250.15247 
L 560.527552 257.241528 
L 560.764358 246.042556 
L 561.001164 266.537762 
L 561.23797 255.425772 
L 561.474776 264.167494 
L 561.948389 297.677428 
L 562.422001 329.69779 
L 562.658807 309.202584 
L 562.895614 306.451768 
L 563.13242 289.381491 
L 563.369226 283.434075 
L 563.606032 304.42943 
L 564.316451 243.204758 
L 564.553257 266.015868 
L 564.790063 254.903879 
L 565.02687 252.870667 
L 565.263676 277.356187 
L 565.500482 266.994419 
L 565.737288 243.454832 
L 565.974094 256.262977 
L 566.447707 256.262977 
L 566.684513 277.171349 
L 567.158125 238.801279 
L 567.394932 261.394933 
L 567.631738 243.487451 
L 567.868544 259.927107 
L 568.342156 211.467089 
L 568.578963 208.705401 
L 568.815769 183.491405 
L 569.052575 186.883714 
L 569.289381 226.917321 
L 569.762994 204.399777 
L 569.9998 187.329499 
L 570.236606 204.791197 
L 570.473412 241.454239 
L 570.710219 247.086344 
L 570.947025 267.994716 
L 571.183831 265.233028 
L 571.420637 267.983843 
L 571.657443 250.522145 
L 572.131056 239.888558 
L 572.604668 206.041568 
L 572.841474 211.04305 
L 573.078281 203.953992 
L 573.315087 184.100281 
L 573.551893 195.21227 
L 573.788699 211.988983 
L 574.262312 223.601121 
L 574.735924 252.229173 
L 574.97273 249.467484 
L 575.209537 252.229173 
L 575.446343 257.861277 
L 575.683149 280.672387 
L 575.919955 273.278891 
L 576.156761 290.349169 
L 576.393568 290.349169 
L 576.86718 306.658351 
L 577.103986 288.555159 
L 577.340792 283.553676 
L 577.577599 251.609424 
L 577.814405 262.808396 
L 578.051211 260.05758 
L 578.288017 276.464618 
L 578.524823 276.464618 
L 578.76163 286.826385 
L 578.998436 271.202188 
L 579.235242 287.978901 
L 579.472048 279.237179 
L 579.708854 296.307457 
L 579.945661 296.307457 
L 580.182467 320.140609 
L 580.419273 314.312794 
L 580.656079 320.26021 
L 581.129692 314.812943 
L 581.366498 308.865527 
L 581.603304 314.812943 
L 581.84011 317.226702 
L 582.076917 308.95251 
L 582.313723 291.490812 
L 582.550529 292.621582 
L 582.787335 272.126375 
L 583.024141 274.877191 
L 583.260948 262.069046 
L 583.497754 270.810768 
L 583.971366 270.810768 
L 584.208172 273.496347 
L 584.444979 286.195764 
L 584.681785 280.563659 
L 585.155397 339.461554 
L 585.392203 328.262582 
L 585.62901 323.261099 
L 586.102622 279.16107 
L 586.339428 297.264262 
L 586.576235 273.724675 
L 587.049847 316.835281 
L 587.286653 306.527878 
L 587.523459 289.751165 
L 587.997072 325.272565 
L 588.233878 331.21998 
L 588.470684 233.46274 
L 588.70749 243.378723 
L 588.944297 263.395526 
L 589.181103 270.484584 
L 589.417909 263.395526 
L 589.654715 279.835182 
L 589.891521 266.17896 
L 590.128328 281.683556 
L 590.365134 284.445245 
L 590.60194 301.906943 
L 590.838746 301.906943 
L 591.075552 305.255762 
L 591.312359 310.887866 
L 591.549165 292.621582 
L 592.022777 313.290752 
L 592.259583 299.63453 
L 592.49639 319.488242 
L 592.970002 287.881046 
L 593.206808 269.777853 
L 593.443615 276.866911 
L 593.680421 246.357867 
L 593.917227 246.357867 
L 594.154033 263.428145 
L 594.627646 253.762236 
L 594.864452 233.26703 
L 595.101258 246.651432 
L 595.338064 229.189734 
L 595.57487 253.794854 
L 595.811677 251.044039 
L 596.048483 269.538652 
L 596.285289 248.63028 
L 596.522095 248.63028 
L 596.758901 245.944701 
L 596.995708 266.863946 
L 597.232514 250.369926 
L 597.46932 246.346994 
L 597.706126 249.108682 
L 597.942932 261.916827 
L 598.179739 256.915345 
L 598.416545 237.431308 
L 598.653351 248.543297 
L 598.890157 272.626524 
L 599.126964 282.988291 
L 599.36377 263.134579 
L 599.600576 283.629786 
L 599.837382 257.980878 
L 600.074188 283.629786 
L 600.310995 275.464321 
L 600.547801 280.465804 
L 600.784607 262.362611 
L 601.021413 268.310027 
L 601.495026 220.687214 
L 601.731832 244.77044 
L 601.968638 236.496248 
L 602.205444 252.935904 
L 602.44225 250.250325 
L 602.679057 232.788627 
L 602.915863 254.28413 
L 603.152669 265.483102 
L 603.389475 271.115206 
L 603.626281 270.962987 
L 603.863088 293.774097 
L 604.3367 286.413219 
L 604.573506 300.069442 
L 605.047119 262.754032 
L 605.520731 279.813437 
L 605.994344 232.364588 
L 606.23115 231.733967 
L 606.467956 234.495655 
L 606.704762 252.761939 
L 606.941568 235.691662 
L 607.178375 246.053429 
L 607.415181 229.276716 
L 607.651987 229.276716 
L 607.888793 218.914949 
L 608.362406 248.304096 
L 608.599212 231.86444 
L 609.072824 268.494864 
L 609.30963 247.586492 
L 610.020049 298.101467 
L 610.256855 286.989477 
L 610.493662 286.989477 
L 610.730468 274.181332 
L 610.967274 222.655188 
L 611.20408 231.222946 
L 611.440886 248.293223 
L 611.677693 298.362414 
L 611.914499 324.011322 
L 612.151305 195.081797 
L 612.388111 197.843485 
L 612.624917 197.843485 
L 612.861724 208.955475 
L 613.09853 192.178762 
L 613.335336 214.989872 
L 613.572142 206.715681 
L 613.808948 231.320801 
L 614.045755 209.825298 
L 614.282561 222.633443 
L 614.519367 216.022787 
L 614.756173 219.415097 
L 615.466592 264.939462 
L 615.703398 243.944108 
L 615.940204 267.483695 
L 616.177011 264.722007 
L 616.650623 294.459083 
L 616.887429 301.548141 
L 617.124235 275.899233 
L 617.361042 281.531337 
L 617.597848 298.30805 
L 617.834654 278.454338 
L 618.07146 299.449693 
L 618.545073 299.449693 
L 618.781879 290.707971 
L 619.255491 296.155238 
L 619.729104 263.069343 
L 619.96591 283.564549 
L 620.439522 272.615651 
L 620.676328 249.804541 
L 620.913135 272.039393 
L 621.149941 266.407289 
L 621.386747 256.610906 
L 621.623553 236.1157 
L 621.86036 244.389892 
L 622.097166 239.38841 
L 622.333972 262.19952 
L 622.570778 251.837752 
L 622.807584 277.48666 
L 623.044391 283.434075 
L 623.281197 301.537268 
L 623.518003 298.77558 
L 623.754809 309.137347 
L 623.991615 235.278496 
L 624.702034 274.061732 
L 624.93884 274.061732 
L 625.175646 269.386433 
L 625.649259 227.841508 
L 626.122871 264.754625 
L 626.359677 247.684347 
L 626.596484 272.898343 
L 626.83329 278.845759 
L 627.070096 248.923845 
L 627.306902 251.761643 
L 627.543709 251.761643 
L 627.780515 247.543001 
L 628.017321 259.100775 
L 628.254127 265.04819 
L 628.490933 248.271478 
L 628.72774 253.903582 
L 629.201352 218.012508 
L 629.438158 226.362809 
L 629.674964 245.966447 
L 629.911771 245.966447 
L 630.148577 243.280868 
L 630.385383 235.115404 
L 630.622189 235.115404 
L 630.858995 237.800983 
L 631.095802 234.408673 
L 631.332608 247.216817 
L 631.569414 223.133591 
L 631.80622 247.738711 
L 632.043026 250.500399 
L 632.516639 237.463926 
L 632.753445 211.815018 
L 632.990251 216.142388 
L 633.463864 216.142388 
L 633.70067 217.784179 
L 633.937476 215.0986 
L 634.174282 215.0986 
L 634.884701 258.404917 
L 635.121507 244.748694 
L 635.358313 237.659636 
L 635.59512 216.164134 
L 635.831926 223.253192 
L 636.305538 255.393154 
L 636.542344 255.393154 
L 636.779151 258.078733 
L 637.015957 246.879761 
L 637.252763 246.879761 
L 637.489569 252.674957 
L 637.726375 251.620297 
L 637.963182 241.628204 
L 638.199988 255.284426 
L 638.436794 244.922659 
L 638.6736 255.284426 
L 638.910406 271.724082 
L 639.147213 258.915938 
L 639.384019 281.727048 
L 639.857631 251.294113 
L 640.094438 254.099292 
L 640.56805 285.858707 
L 640.804856 271.83281 
L 641.041662 247.22769 
L 641.515275 289.577201 
L 641.752081 279.269797 
L 641.988887 263.645601 
L 642.225693 266.407289 
L 642.699306 301.928688 
L 642.936112 313.12766 
L 643.409724 281.205154 
L 643.646531 305.690673 
L 643.883337 281.607447 
L 644.356949 313.247261 
L 644.593755 299.221364 
L 644.830562 306.538751 
L 645.067368 287.054714 
L 645.304174 303.49437 
L 645.777787 267.885988 
L 646.014593 270.43022 
L 646.251399 274.877191 
L 646.725011 308.7568 
L 646.961818 306.005984 
L 647.198624 280.791988 
L 647.43543 275.159883 
L 647.672236 277.801971 
L 647.909042 299.297474 
L 648.145849 294.295991 
L 648.382655 318.379217 
L 648.619461 300.276025 
L 648.856267 300.276025 
L 649.093073 276.736438 
L 649.32988 297.731792 
L 649.566686 276.82342 
L 650.277104 276.82342 
L 650.513911 278.1499 
L 650.750717 283.314475 
L 650.987523 272.115503 
L 651.224329 285.771725 
L 651.461136 285.771725 
L 651.934748 247.706093 
L 652.171554 265.972377 
L 652.40836 265.972377 
L 652.645167 241.889151 
L 652.881973 239.127463 
L 653.355585 239.127463 
L 653.592391 268.929776 
L 653.829198 257.817786 
L 654.066004 233.73456 
L 654.30281 244.096327 
L 654.539616 244.096327 
L 654.776422 239.377537 
L 655.013229 277.062621 
L 655.250035 261.438424 
L 655.723647 305.375362 
L 655.960453 298.286304 
L 656.19726 280.824606 
L 656.434066 296.448803 
L 656.907678 296.448803 
L 657.144485 306.756206 
L 657.618097 271.582736 
L 657.854903 289.044434 
L 658.091709 289.044434 
L 658.328516 302.700656 
L 658.565322 327.305777 
L 658.802128 303.76619 
L 659.038934 236.952905 
L 659.27574 234.267326 
L 659.512547 228.74395 
L 659.749353 239.051353 
L 659.986159 231.962295 
L 660.459771 268.429627 
L 660.696578 254.773405 
L 660.933384 279.987401 
L 661.17019 274.355297 
L 661.406996 234.441291 
L 661.643802 237.083378 
L 662.117415 237.083378 
L 662.354221 219.62168 
L 662.591027 237.724873 
L 663.06464 257.665567 
L 664.011865 205.682766 
L 664.248671 205.682766 
L 664.722283 236.409266 
L 664.959089 212.326039 
L 665.195896 205.236981 
L 665.432702 202.475293 
L 665.669508 204.823815 
L 665.906314 209.825298 
L 666.14312 201.551106 
L 666.379927 227.200014 
L 666.616733 203.660427 
L 666.853539 220.437139 
L 667.090345 220.437139 
L 667.563958 250.706982 
L 667.800764 234.267326 
L 668.03757 255.762829 
L 668.274376 237.496544 
L 668.511183 259.731397 
L 668.747989 239.236191 
L 668.984795 262.047301 
L 669.221601 249.239156 
L 669.458407 229.385444 
L 669.695214 238.203276 
L 670.405632 238.203276 
L 670.642438 262.808396 
L 670.879245 262.808396 
L 671.116051 247.184199 
L 671.352857 264.645897 
L 671.589663 243.737525 
L 671.826469 246.423104 
L 672.063276 246.423104 
L 672.536888 271.278298 
L 672.773694 274.039986 
L 673.0105 290.816699 
L 673.247307 282.542507 
L 673.720919 282.542507 
L 673.957725 268.886285 
L 674.194532 284.227789 
L 674.431338 318.096525 
L 674.668144 315.334837 
L 674.90495 302.526692 
L 675.141756 325.337802 
L 675.378563 322.652223 
L 675.615369 322.652223 
L 675.852175 313.910501 
L 676.088981 324.217905 
L 676.325787 305.95162 
L 676.562594 315.628402 
L 676.7994 304.005391 
L 677.036206 283.510185 
L 677.273012 283.510185 
L 677.509818 267.885988 
L 677.746625 276.16018 
L 677.983431 278.910995 
L 678.220237 264.885098 
L 678.457043 285.79347 
L 678.693849 288.479049 
L 678.930656 268.625338 
L 679.167462 274.572753 
L 679.641074 306.864934 
L 679.877881 304.179356 
L 680.114687 306.941044 
L 680.351493 282.335924 
L 680.588299 282.335924 
L 681.061912 244.77044 
L 681.298718 234.408673 
L 681.535524 248.43457 
L 681.77233 223.220573 
L 682.009136 223.220573 
L 682.245943 244.716076 
L 682.482749 233.604086 
L 682.719555 233.604086 
L 682.956361 253.457798 
L 683.429974 221.698383 
L 683.66678 227.330487 
L 683.903586 227.330487 
L 684.140392 217.023084 
L 684.377198 217.023084 
L 684.614005 222.502969 
L 684.850811 244.737822 
L 685.324423 229.374572 
L 685.56123 205.291345 
L 685.798036 205.291345 
L 686.034842 198.191414 
L 686.271648 198.191414 
L 686.508454 185.557234 
L 686.745261 182.806419 
L 686.982067 196.462641 
L 687.218873 179.685929 
L 687.455679 177.043841 
L 688.166098 177.043841 
L 688.402904 197.539047 
L 688.63971 206.280769 
L 689.350129 206.280769 
L 689.586935 188.014484 
L 689.823741 188.014484 
L 690.060547 181.903977 
L 690.770966 181.903977 
L 691.007772 200.00717 
L 691.244578 188.808198 
L 691.481385 214.022194 
L 691.718191 188.808198 
L 692.191803 188.808198 
L 692.42861 200.800884 
L 692.665416 202.888459 
L 692.902222 214.087431 
L 693.139028 214.087431 
L 693.375834 231.549129 
L 693.612641 234.299945 
L 693.849447 227.210887 
L 694.086253 227.210887 
L 694.323059 240.867109 
L 694.796672 198.13705 
L 695.033478 198.13705 
L 695.50709 170.498422 
L 695.743896 173.184001 
L 696.217509 173.184001 
L 696.454315 183.491405 
L 696.691121 163.637693 
L 696.927927 163.637693 
L 697.164734 168.639176 
L 697.638346 168.639176 
L 697.875152 158.255663 
L 698.111959 153.25418 
L 698.585571 153.25418 
L 698.822377 170.585405 
L 699.532796 170.585405 
L 699.769602 171.824903 
L 700.243214 187.188153 
L 700.480021 173.53193 
L 702.611276 173.53193 
L 702.848083 169.813437 
L 703.321695 169.813437 
L 703.558501 161.071715 
L 704.505726 161.071715 
L 704.742532 174.727937 
L 704.979339 195.636309 
L 705.216145 195.636309 
L 705.452951 169.987401 
L 705.926563 202.279583 
L 706.16337 184.817885 
L 706.400176 184.817885 
L 706.636982 171.161662 
L 706.873788 171.161662 
L 707.110594 196.81057 
L 708.057819 196.81057 
L 708.531432 223.274937 
L 709.005044 200.963975 
L 709.24185 175.315068 
L 709.478657 175.315068 
L 709.715463 192.385345 
L 709.952269 178.359448 
L 710.189075 157.451076 
L 710.662688 157.451076 
L 710.899494 134.639966 
L 711.373106 134.639966 
L 711.609912 152.101664 
L 711.846719 152.101664 
L 712.083525 160.843386 
L 712.320331 160.843386 
L 712.557137 164.235696 
L 712.793943 189.884604 
L 713.504362 189.884604 
L 713.741168 197.963086 
L 713.977974 180.501388 
L 714.214781 177.957155 
L 714.451587 177.957155 
L 714.688393 192.494073 
L 715.162006 192.494073 
L 715.398812 202.431802 
L 715.635618 202.431802 
L 715.872424 179.620692 
L 716.10923 174.901902 
L 716.582843 174.901902 
L 716.819649 177.630972 
L 717.056455 164.822827 
L 717.293261 168.019427 
L 719.89813 168.019427 
L 720.134936 178.620395 
L 720.608548 214.098304 
L 720.845355 219.099786 
L 721.318967 209.749188 
L 721.792579 209.749188 
L 722.029386 194.124992 
L 722.266192 186.785859 
L 722.502998 169.715582 
L 722.739804 192.526692 
L 723.450223 192.526692 
L 723.687029 189.112636 
L 724.160641 189.112636 
L 724.397448 187.546955 
L 724.634254 181.969214 
L 727.002316 181.969214 
L 727.239122 181.653903 
L 727.475928 178.968325 
L 727.712735 178.968325 
L 727.949541 197.234609 
L 728.423153 197.234609 
L 728.659959 199.985424 
L 729.133572 199.985424 
L 729.370378 191.711233 
L 729.84399 191.711233 
L 730.317603 146.66527 
L 731.028021 146.66527 
L 731.264828 134.346401 
L 731.501634 137.03198 
L 732.448859 137.03198 
L 732.685665 134.270291 
L 735.290533 134.270291 
L 735.527339 137.03198 
L 736.71137 137.03198 
L 736.948177 134.346401 
L 737.658595 134.346401 
L 737.895401 137.260308 
L 738.842626 137.260308 
L 739.079433 129.094844 
L 740.263464 129.094844 
L 740.50027 126.180937 
L 744.525975 126.180937 
L 744.762782 102.097711 
L 744.999588 97.628995 
L 754.23503 97.628995 
L 754.471836 110.437139 
L 755.419061 110.437139 
L 755.655867 101.695417 
L 756.12948 101.695417 
L 756.366286 104.380996 
L 763.233666 104.380996 
L 763.470472 91.572851 
L 777.442038 91.572851 
L 777.678844 88.887273 
L 868.849235 88.887273 
L 869.086041 89.256948 
L 871.690909 89.256948 
L 871.690909 89.256948 
" style="fill:none;stroke:#8dd3c7;stroke-linecap:square;stroke-width:1.5;"/>
   </g>
   <g id="line2d_17">
    <path clip-path="url(#pc8be585996)" d="M 161.509091 213.630774 
L 180.216781 213.630774 
L 180.453588 201.322777 
L 182.111231 201.322777 
L 182.348037 187.731792 
L 184.716099 187.731792 
L 184.952906 180.914554 
L 211.712007 180.914554 
L 211.948813 174.814919 
L 212.185619 174.814919 
L 212.422426 162.343831 
L 697.638346 162.343831 
L 698.111959 153.25418 
L 710.662688 153.25418 
L 710.899494 134.639966 
L 731.028021 134.639966 
L 731.264828 134.346401 
L 738.842626 134.270291 
L 739.079433 129.094844 
L 740.263464 129.094844 
L 740.50027 126.180937 
L 744.525975 126.180937 
L 744.762782 102.097711 
L 744.999588 97.628995 
L 763.233666 97.628995 
L 763.470472 91.572851 
L 777.442038 91.572851 
L 777.678844 88.887273 
L 871.690909 88.887273 
L 871.690909 88.887273 
" style="fill:none;stroke:#feffb3;stroke-linecap:square;stroke-width:1.5;"/>
   </g>
   <g id="line2d_18">
    <path clip-path="url(#pc8be585996)" d="M 161.509091 213.630774 
L 163.166734 213.630774 
L 163.403541 226.35015 
L 165.061184 226.35015 
L 165.29799 238.471664 
L 166.955634 238.471664 
L 167.19244 250.023419 
L 168.850083 250.023419 
L 169.08689 261.032195 
L 170.744533 261.032195 
L 170.981339 271.523514 
L 172.638983 271.523514 
L 172.875789 281.521699 
L 174.533432 281.521699 
L 174.770239 291.04993 
L 176.427882 291.04993 
L 176.664688 300.130295 
L 178.322332 300.130295 
L 178.559138 308.783847 
L 180.216781 308.783847 
L 180.453588 317.030648 
L 182.111231 317.030648 
L 182.348037 324.889815 
L 184.005681 324.889815 
L 184.242487 332.379571 
L 185.90013 332.379571 
L 186.136937 339.517277 
L 187.79458 339.517277 
L 188.031386 346.319483 
L 189.68903 346.319483 
L 189.925836 352.801959 
L 191.583479 352.801959 
L 191.820286 358.979731 
L 193.477929 358.979731 
L 193.714735 364.867124 
L 195.372379 364.867124 
L 195.609185 370.477786 
L 197.266828 370.477786 
L 197.503635 375.824724 
L 199.161278 375.824724 
L 199.398084 380.920334 
L 201.055728 380.920334 
L 201.292534 385.776431 
L 202.950177 385.776431 
L 203.186984 390.404271 
L 204.844627 390.404271 
L 205.081433 394.814585 
L 206.739077 394.814585 
L 206.975883 399.017596 
L 208.633526 399.017596 
L 208.870333 403.023049 
L 210.527976 403.023049 
L 210.764782 406.840229 
L 212.422426 406.840229 
L 212.659232 410.477987 
L 214.316875 410.477987 
L 214.553682 413.944755 
L 216.211325 413.944755 
L 216.448131 417.248572 
L 218.105775 417.248572 
L 218.342581 420.397095 
L 220.000224 420.397095 
L 220.237031 423.397626 
L 221.894674 423.397626 
L 222.13148 426.25712 
L 223.789124 426.25712 
L 224.02593 428.982206 
L 225.683573 428.982206 
L 225.92038 431.579202 
L 227.578023 431.579202 
L 227.814829 434.054128 
L 229.472473 434.054128 
L 229.709279 436.412724 
L 231.366922 436.412724 
L 231.603729 438.660456 
L 233.261372 438.660456 
L 233.498178 440.802535 
L 235.155822 440.802535 
L 235.392628 442.843928 
L 237.050271 442.843928 
L 237.287078 444.789368 
L 238.944721 444.789368 
L 239.181527 446.643364 
L 240.839171 446.643364 
L 241.075977 448.410215 
L 242.73362 448.410215 
L 242.970427 450.094017 
L 244.62807 450.094017 
L 244.864876 451.698673 
L 246.52252 451.698673 
L 246.759326 453.227904 
L 248.416969 453.227904 
L 248.653776 454.685255 
L 250.311419 454.685255 
L 250.548225 456.074105 
L 252.205869 456.074105 
L 252.442675 457.397673 
L 254.100318 457.397673 
L 254.337124 458.659028 
L 255.994768 458.659028 
L 256.231574 459.861095 
L 257.889218 459.861095 
L 258.126024 461.006659 
L 259.783667 461.006659 
L 260.020473 462.098378 
L 261.678117 462.098378 
L 261.914923 463.138781 
L 263.572567 463.138781 
L 263.809373 464.130281 
L 265.467016 464.130281 
L 265.703822 465.075177 
L 267.361466 465.075177 
L 267.598272 465.975659 
L 269.255916 465.975659 
L 269.492722 466.833814 
L 271.150365 466.833814 
L 271.387171 467.651633 
L 273.044815 467.651633 
L 273.281621 468.431011 
L 274.939265 468.431011 
L 275.176071 469.173755 
L 276.833714 469.173755 
L 277.07052 469.881587 
L 278.728164 469.881587 
L 278.96497 470.556149 
L 280.622614 470.556149 
L 280.85942 471.199003 
L 282.517063 471.199003 
L 282.753869 471.81164 
L 284.411513 471.81164 
L 284.648319 472.395481 
L 286.305963 472.395481 
L 286.542769 472.95188 
L 288.200412 472.95188 
L 288.437218 473.482125 
L 290.094862 473.482125 
L 290.331668 473.987446 
L 291.989312 473.987446 
L 292.226118 474.469016 
L 293.883761 474.469016 
L 294.120567 474.92795 
L 295.778211 474.92795 
L 296.015017 475.365312 
L 297.672661 475.365312 
L 297.909467 475.782116 
L 299.56711 475.782116 
L 299.803916 476.179329 
L 301.46156 476.179329 
L 301.698366 476.557871 
L 303.35601 476.557871 
L 303.592816 476.91862 
L 305.250459 476.91862 
L 305.487265 477.262412 
L 307.144909 477.262412 
L 307.381715 477.590045 
L 309.039359 477.590045 
L 309.276165 477.902278 
L 310.933808 477.902278 
L 311.170614 478.199835 
L 312.828258 478.199835 
L 313.065064 478.483405 
L 314.722708 478.483405 
L 314.959514 478.753647 
L 316.617157 478.753647 
L 316.853963 479.011185 
L 318.511607 479.011185 
L 318.748413 479.256619 
L 320.406057 479.256619 
L 320.642863 479.490516 
L 322.300506 479.490516 
L 322.537312 479.713419 
L 324.194956 479.713419 
L 324.431762 479.925845 
L 326.089406 479.925845 
L 326.326212 480.128286 
L 327.983855 480.128286 
L 328.220661 480.321211 
L 329.878305 480.321211 
L 330.115111 480.505069 
L 331.772755 480.505069 
L 332.009561 480.680284 
L 333.667204 480.680284 
L 333.90401 480.847263 
L 335.561654 480.847263 
L 335.79846 481.006393 
L 337.456104 481.006393 
L 337.69291 481.158044 
L 339.350553 481.158044 
L 339.587359 481.302567 
L 341.245003 481.302567 
L 341.481809 481.440296 
L 343.139453 481.440296 
L 343.376259 481.571552 
L 345.033902 481.571552 
L 345.507515 481.696638 
L 346.928352 481.696638 
L 347.401964 481.815845 
L 348.822802 481.815845 
L 349.296414 481.929448 
L 352.611701 482.037712 
L 353.085313 482.140886 
L 356.4006 482.239211 
L 356.874213 482.332915 
L 360.1895 482.422214 
L 360.663112 482.507315 
L 363.978399 482.588417 
L 364.452011 482.665706 
L 367.767298 482.739363 
L 368.240911 482.809557 
L 371.556198 482.876452 
L 372.02981 482.940202 
L 375.345097 483.000956 
L 375.818709 483.058855 
L 381.028446 483.166615 
L 381.738864 483.216727 
L 386.711795 483.309995 
L 387.422213 483.353367 
L 392.395144 483.434091 
L 393.105562 483.471631 
L 399.972942 483.573989 
L 400.920167 483.604953 
L 409.445191 483.714921 
L 410.629222 483.73926 
L 420.811889 483.844834 
L 422.469532 483.863066 
L 435.967486 483.968827 
L 438.335548 483.993054 
L 462.489781 484.098232 
L 467.225906 484.11632 
L 589.417909 484.227388 
L 698.822377 484.232404 
L 871.690909 484.232727 
L 871.690909 484.232727 
" style="fill:none;stroke:#bfbbd9;stroke-linecap:square;stroke-width:1.5;"/>
   </g>
   <g id="patch_3">
    <path d="M 126 504 
L 126 69.12 
" style="fill:none;stroke:#ffffff;stroke-linecap:square;stroke-linejoin:miter;stroke-width:0.8;"/>
   </g>
   <g id="patch_4">
    <path d="M 907.2 504 
L 907.2 69.12 
" style="fill:none;stroke:#ffffff;stroke-linecap:square;stroke-linejoin:miter;stroke-width:0.8;"/>
   </g>
   <g id="patch_5">
    <path d="M 126 504 
L 907.2 504 
" style="fill:none;stroke:#ffffff;stroke-linecap:square;stroke-linejoin:miter;stroke-width:0.8;"/>
   </g>
   <g id="patch_6">
    <path d="M 126 69.12 
L 907.2 69.12 
" style="fill:none;stroke:#ffffff;stroke-linecap:square;stroke-linejoin:miter;stroke-width:0.8;"/>
   </g>
   <g id="text_17">
    <!-- instance 3 with error 0.035670715535988995 -->
    <g style="fill:#ffffff;" transform="translate(378.046875 63.12)scale(0.12 -0.12)">
     <defs>
      <path d="M 2834 3397 
L 2834 2853 
Q 2591 2978 2328 3040 
Q 2066 3103 1784 3103 
Q 1356 3103 1142 2972 
Q 928 2841 928 2578 
Q 928 2378 1081 2264 
Q 1234 2150 1697 2047 
L 1894 2003 
Q 2506 1872 2764 1633 
Q 3022 1394 3022 966 
Q 3022 478 2636 193 
Q 2250 -91 1575 -91 
Q 1294 -91 989 -36 
Q 684 19 347 128 
L 347 722 
Q 666 556 975 473 
Q 1284 391 1588 391 
Q 1994 391 2212 530 
Q 2431 669 2431 922 
Q 2431 1156 2273 1281 
Q 2116 1406 1581 1522 
L 1381 1569 
Q 847 1681 609 1914 
Q 372 2147 372 2553 
Q 372 3047 722 3315 
Q 1072 3584 1716 3584 
Q 2034 3584 2315 3537 
Q 2597 3491 2834 3397 
z
" id="DejaVuSans-73" transform="scale(0.015625)"/>
      <path d="M 3122 3366 
L 3122 2828 
Q 2878 2963 2633 3030 
Q 2388 3097 2138 3097 
Q 1578 3097 1268 2742 
Q 959 2388 959 1747 
Q 959 1106 1268 751 
Q 1578 397 2138 397 
Q 2388 397 2633 464 
Q 2878 531 3122 666 
L 3122 134 
Q 2881 22 2623 -34 
Q 2366 -91 2075 -91 
Q 1284 -91 818 406 
Q 353 903 353 1747 
Q 353 2603 823 3093 
Q 1294 3584 2113 3584 
Q 2378 3584 2631 3529 
Q 2884 3475 3122 3366 
z
" id="DejaVuSans-63" transform="scale(0.015625)"/>
      <path id="DejaVuSans-20" transform="scale(0.015625)"/>
      <path d="M 269 3500 
L 844 3500 
L 1563 769 
L 2278 3500 
L 2956 3500 
L 3675 769 
L 4391 3500 
L 4966 3500 
L 4050 0 
L 3372 0 
L 2619 2869 
L 1863 0 
L 1184 0 
L 269 3500 
z
" id="DejaVuSans-77" transform="scale(0.015625)"/>
      <path d="M 3513 2113 
L 3513 0 
L 2938 0 
L 2938 2094 
Q 2938 2591 2744 2837 
Q 2550 3084 2163 3084 
Q 1697 3084 1428 2787 
Q 1159 2491 1159 1978 
L 1159 0 
L 581 0 
L 581 4863 
L 1159 4863 
L 1159 2956 
Q 1366 3272 1645 3428 
Q 1925 3584 2291 3584 
Q 2894 3584 3203 3211 
Q 3513 2838 3513 2113 
z
" id="DejaVuSans-68" transform="scale(0.015625)"/>
      <path d="M 684 794 
L 1344 794 
L 1344 0 
L 684 0 
L 684 794 
z
" id="DejaVuSans-2e" transform="scale(0.015625)"/>
      <path d="M 2113 2584 
Q 1688 2584 1439 2293 
Q 1191 2003 1191 1497 
Q 1191 994 1439 701 
Q 1688 409 2113 409 
Q 2538 409 2786 701 
Q 3034 994 3034 1497 
Q 3034 2003 2786 2293 
Q 2538 2584 2113 2584 
z
M 3366 4563 
L 3366 3988 
Q 3128 4100 2886 4159 
Q 2644 4219 2406 4219 
Q 1781 4219 1451 3797 
Q 1122 3375 1075 2522 
Q 1259 2794 1537 2939 
Q 1816 3084 2150 3084 
Q 2853 3084 3261 2657 
Q 3669 2231 3669 1497 
Q 3669 778 3244 343 
Q 2819 -91 2113 -91 
Q 1303 -91 875 529 
Q 447 1150 447 2328 
Q 447 3434 972 4092 
Q 1497 4750 2381 4750 
Q 2619 4750 2861 4703 
Q 3103 4656 3366 4563 
z
" id="DejaVuSans-36" transform="scale(0.015625)"/>
      <path d="M 525 4666 
L 3525 4666 
L 3525 4397 
L 1831 0 
L 1172 0 
L 2766 4134 
L 525 4134 
L 525 4666 
z
" id="DejaVuSans-37" transform="scale(0.015625)"/>
      <path d="M 703 97 
L 703 672 
Q 941 559 1184 500 
Q 1428 441 1663 441 
Q 2288 441 2617 861 
Q 2947 1281 2994 2138 
Q 2813 1869 2534 1725 
Q 2256 1581 1919 1581 
Q 1219 1581 811 2004 
Q 403 2428 403 3163 
Q 403 3881 828 4315 
Q 1253 4750 1959 4750 
Q 2769 4750 3195 4129 
Q 3622 3509 3622 2328 
Q 3622 1225 3098 567 
Q 2575 -91 1691 -91 
Q 1453 -91 1209 -44 
Q 966 3 703 97 
z
M 1959 2075 
Q 2384 2075 2632 2365 
Q 2881 2656 2881 3163 
Q 2881 3666 2632 3958 
Q 2384 4250 1959 4250 
Q 1534 4250 1286 3958 
Q 1038 3666 1038 3163 
Q 1038 2656 1286 2365 
Q 1534 2075 1959 2075 
z
" id="DejaVuSans-39" transform="scale(0.015625)"/>
      <path d="M 2034 2216 
Q 1584 2216 1326 1975 
Q 1069 1734 1069 1313 
Q 1069 891 1326 650 
Q 1584 409 2034 409 
Q 2484 409 2743 651 
Q 3003 894 3003 1313 
Q 3003 1734 2745 1975 
Q 2488 2216 2034 2216 
z
M 1403 2484 
Q 997 2584 770 2862 
Q 544 3141 544 3541 
Q 544 4100 942 4425 
Q 1341 4750 2034 4750 
Q 2731 4750 3128 4425 
Q 3525 4100 3525 3541 
Q 3525 3141 3298 2862 
Q 3072 2584 2669 2484 
Q 3125 2378 3379 2068 
Q 3634 1759 3634 1313 
Q 3634 634 3220 271 
Q 2806 -91 2034 -91 
Q 1263 -91 848 271 
Q 434 634 434 1313 
Q 434 1759 690 2068 
Q 947 2378 1403 2484 
z
M 1172 3481 
Q 1172 3119 1398 2916 
Q 1625 2713 2034 2713 
Q 2441 2713 2670 2916 
Q 2900 3119 2900 3481 
Q 2900 3844 2670 4047 
Q 2441 4250 2034 4250 
Q 1625 4250 1398 4047 
Q 1172 3844 1172 3481 
z
" id="DejaVuSans-38" transform="scale(0.015625)"/>
     </defs>
     <use xlink:href="#DejaVuSans-69"/>
     <use x="27.783203" xlink:href="#DejaVuSans-6e"/>
     <use x="91.162109" xlink:href="#DejaVuSans-73"/>
     <use x="143.261719" xlink:href="#DejaVuSans-74"/>
     <use x="182.470703" xlink:href="#DejaVuSans-61"/>
     <use x="243.75" xlink:href="#DejaVuSans-6e"/>
     <use x="307.128906" xlink:href="#DejaVuSans-63"/>
     <use x="362.109375" xlink:href="#DejaVuSans-65"/>
     <use x="423.632812" xlink:href="#DejaVuSans-20"/>
     <use x="455.419922" xlink:href="#DejaVuSans-33"/>
     <use x="519.042969" xlink:href="#DejaVuSans-20"/>
     <use x="550.830078" xlink:href="#DejaVuSans-77"/>
     <use x="632.617188" xlink:href="#DejaVuSans-69"/>
     <use x="660.400391" xlink:href="#DejaVuSans-74"/>
     <use x="699.609375" xlink:href="#DejaVuSans-68"/>
     <use x="762.988281" xlink:href="#DejaVuSans-20"/>
     <use x="794.775391" xlink:href="#DejaVuSans-65"/>
     <use x="856.298828" xlink:href="#DejaVuSans-72"/>
     <use x="895.662109" xlink:href="#DejaVuSans-72"/>
     <use x="934.525391" xlink:href="#DejaVuSans-6f"/>
     <use x="995.707031" xlink:href="#DejaVuSans-72"/>
     <use x="1036.820312" xlink:href="#DejaVuSans-20"/>
     <use x="1068.607422" xlink:href="#DejaVuSans-30"/>
     <use x="1132.230469" xlink:href="#DejaVuSans-2e"/>
     <use x="1164.017578" xlink:href="#DejaVuSans-30"/>
     <use x="1227.640625" xlink:href="#DejaVuSans-33"/>
     <use x="1291.263672" xlink:href="#DejaVuSans-35"/>
     <use x="1354.886719" xlink:href="#DejaVuSans-36"/>
     <use x="1418.509766" xlink:href="#DejaVuSans-37"/>
     <use x="1482.132812" xlink:href="#DejaVuSans-30"/>
     <use x="1545.755859" xlink:href="#DejaVuSans-37"/>
     <use x="1609.378906" xlink:href="#DejaVuSans-31"/>
     <use x="1673.001953" xlink:href="#DejaVuSans-35"/>
     <use x="1736.625" xlink:href="#DejaVuSans-35"/>
     <use x="1800.248047" xlink:href="#DejaVuSans-33"/>
     <use x="1863.871094" xlink:href="#DejaVuSans-35"/>
     <use x="1927.494141" xlink:href="#DejaVuSans-39"/>
     <use x="1991.117188" xlink:href="#DejaVuSans-38"/>
     <use x="2054.740234" xlink:href="#DejaVuSans-38"/>
     <use x="2118.363281" xlink:href="#DejaVuSans-39"/>
     <use x="2181.986328" xlink:href="#DejaVuSans-39"/>
     <use x="2245.609375" xlink:href="#DejaVuSans-35"/>
    </g>
   </g>
   <g id="legend_1">
    <g id="patch_7">
     <path d="M 805.348438 499 
L 900.2 499 
Q 902.2 499 902.2 497 
L 902.2 453.965625 
Q 902.2 451.965625 900.2 451.965625 
L 805.348438 451.965625 
Q 803.348438 451.965625 803.348438 453.965625 
L 803.348438 497 
Q 803.348438 499 805.348438 499 
z
" style="opacity:0.8;stroke:#cccccc;stroke-linejoin:miter;"/>
    </g>
    <g id="line2d_19">
     <path d="M 807.348438 460.064062 
L 827.348438 460.064062 
" style="fill:none;stroke:#8dd3c7;stroke-linecap:square;stroke-width:1.5;"/>
    </g>
    <g id="line2d_20"/>
    <g id="text_18">
     <!-- cost -->
     <g style="fill:#ffffff;" transform="translate(835.348438 463.564062)scale(0.1 -0.1)">
      <use xlink:href="#DejaVuSans-63"/>
      <use x="54.980469" xlink:href="#DejaVuSans-6f"/>
      <use x="116.162109" xlink:href="#DejaVuSans-73"/>
      <use x="168.261719" xlink:href="#DejaVuSans-74"/>
     </g>
    </g>
    <g id="line2d_21">
     <path d="M 807.348438 474.742188 
L 827.348438 474.742188 
" style="fill:none;stroke:#feffb3;stroke-linecap:square;stroke-width:1.5;"/>
    </g>
    <g id="line2d_22"/>
    <g id="text_19">
     <!-- best cost -->
     <g style="fill:#ffffff;" transform="translate(835.348438 478.242188)scale(0.1 -0.1)">
      <defs>
       <path d="M 3116 1747 
Q 3116 2381 2855 2742 
Q 2594 3103 2138 3103 
Q 1681 3103 1420 2742 
Q 1159 2381 1159 1747 
Q 1159 1113 1420 752 
Q 1681 391 2138 391 
Q 2594 391 2855 752 
Q 3116 1113 3116 1747 
z
M 1159 2969 
Q 1341 3281 1617 3432 
Q 1894 3584 2278 3584 
Q 2916 3584 3314 3078 
Q 3713 2572 3713 1747 
Q 3713 922 3314 415 
Q 2916 -91 2278 -91 
Q 1894 -91 1617 61 
Q 1341 213 1159 525 
L 1159 0 
L 581 0 
L 581 4863 
L 1159 4863 
L 1159 2969 
z
" id="DejaVuSans-62" transform="scale(0.015625)"/>
      </defs>
      <use xlink:href="#DejaVuSans-62"/>
      <use x="63.476562" xlink:href="#DejaVuSans-65"/>
      <use x="125" xlink:href="#DejaVuSans-73"/>
      <use x="177.099609" xlink:href="#DejaVuSans-74"/>
      <use x="216.308594" xlink:href="#DejaVuSans-20"/>
      <use x="248.095703" xlink:href="#DejaVuSans-63"/>
      <use x="303.076172" xlink:href="#DejaVuSans-6f"/>
      <use x="364.257812" xlink:href="#DejaVuSans-73"/>
      <use x="416.357422" xlink:href="#DejaVuSans-74"/>
     </g>
    </g>
    <g id="line2d_23">
     <path d="M 807.348438 489.420313 
L 827.348438 489.420313 
" style="fill:none;stroke:#bfbbd9;stroke-linecap:square;stroke-width:1.5;"/>
    </g>
    <g id="line2d_24"/>
    <g id="text_20">
     <!-- temperature -->
     <g style="fill:#ffffff;" transform="translate(835.348438 492.920313)scale(0.1 -0.1)">
      <defs>
       <path d="M 3328 2828 
Q 3544 3216 3844 3400 
Q 4144 3584 4550 3584 
Q 5097 3584 5394 3201 
Q 5691 2819 5691 2113 
L 5691 0 
L 5113 0 
L 5113 2094 
Q 5113 2597 4934 2840 
Q 4756 3084 4391 3084 
Q 3944 3084 3684 2787 
Q 3425 2491 3425 1978 
L 3425 0 
L 2847 0 
L 2847 2094 
Q 2847 2600 2669 2842 
Q 2491 3084 2119 3084 
Q 1678 3084 1418 2786 
Q 1159 2488 1159 1978 
L 1159 0 
L 581 0 
L 581 3500 
L 1159 3500 
L 1159 2956 
Q 1356 3278 1631 3431 
Q 1906 3584 2284 3584 
Q 2666 3584 2933 3390 
Q 3200 3197 3328 2828 
z
" id="DejaVuSans-6d" transform="scale(0.015625)"/>
       <path d="M 1159 525 
L 1159 -1331 
L 581 -1331 
L 581 3500 
L 1159 3500 
L 1159 2969 
Q 1341 3281 1617 3432 
Q 1894 3584 2278 3584 
Q 2916 3584 3314 3078 
Q 3713 2572 3713 1747 
Q 3713 922 3314 415 
Q 2916 -91 2278 -91 
Q 1894 -91 1617 61 
Q 1341 213 1159 525 
z
M 3116 1747 
Q 3116 2381 2855 2742 
Q 2594 3103 2138 3103 
Q 1681 3103 1420 2742 
Q 1159 2381 1159 1747 
Q 1159 1113 1420 752 
Q 1681 391 2138 391 
Q 2594 391 2855 752 
Q 3116 1113 3116 1747 
z
" id="DejaVuSans-70" transform="scale(0.015625)"/>
       <path d="M 544 1381 
L 544 3500 
L 1119 3500 
L 1119 1403 
Q 1119 906 1312 657 
Q 1506 409 1894 409 
Q 2359 409 2629 706 
Q 2900 1003 2900 1516 
L 2900 3500 
L 3475 3500 
L 3475 0 
L 2900 0 
L 2900 538 
Q 2691 219 2414 64 
Q 2138 -91 1772 -91 
Q 1169 -91 856 284 
Q 544 659 544 1381 
z
M 1991 3584 
L 1991 3584 
z
" id="DejaVuSans-75" transform="scale(0.015625)"/>
      </defs>
      <use xlink:href="#DejaVuSans-74"/>
      <use x="39.208984" xlink:href="#DejaVuSans-65"/>
      <use x="100.732422" xlink:href="#DejaVuSans-6d"/>
      <use x="198.144531" xlink:href="#DejaVuSans-70"/>
      <use x="261.621094" xlink:href="#DejaVuSans-65"/>
      <use x="323.144531" xlink:href="#DejaVuSans-72"/>
      <use x="364.257812" xlink:href="#DejaVuSans-61"/>
      <use x="425.537109" xlink:href="#DejaVuSans-74"/>
      <use x="464.746094" xlink:href="#DejaVuSans-75"/>
      <use x="528.125" xlink:href="#DejaVuSans-72"/>
      <use x="566.988281" xlink:href="#DejaVuSans-65"/>
     </g>
    </g>
   </g>
  </g>
 </g>
 <defs>
  <clipPath id="pc8be585996">
   <rect height="434.88" width="781.2" x="126" y="69.12"/>
  </clipPath>
 </defs>
</svg>
