<?xml version="1.0" encoding="utf-8" standalone="no"?>
<!DOCTYPE svg PUBLIC "-//W3C//DTD SVG 1.1//EN"
  "http://www.w3.org/Graphics/SVG/1.1/DTD/svg11.dtd">
<svg height="576pt" version="1.1" viewBox="0 0 1008 576" width="1008pt" xmlns="http://www.w3.org/2000/svg" xmlns:xlink="http://www.w3.org/1999/xlink">
 <metadata>
  <rdf:RDF xmlns:cc="http://creativecommons.org/ns#" xmlns:dc="http://purl.org/dc/elements/1.1/" xmlns:rdf="http://www.w3.org/1999/02/22-rdf-syntax-ns#">
   <cc:Work>
    <dc:type rdf:resource="http://purl.org/dc/dcmitype/StillImage"/>
    <dc:date>2022-01-08T11:44:15.615867</dc:date>
    <dc:format>image/svg+xml</dc:format>
    <dc:creator>
     <cc:Agent>
      <dc:title>Matplotlib v3.4.3, https://matplotlib.org/</dc:title>
     </cc:Agent>
    </dc:creator>
   </cc:Work>
  </rdf:RDF>
 </metadata>
 <defs>
  <style type="text/css">*{stroke-linecap:butt;stroke-linejoin:round;}</style>
 </defs>
 <g id="figure_1">
  <g id="patch_1">
   <path d="M 0 576 
L 1008 576 
L 1008 0 
L 0 0 
z
"/>
  </g>
  <g id="axes_1">
   <g id="patch_2">
    <path d="M 126 504 
L 907.2 504 
L 907.2 69.12 
L 126 69.12 
z
"/>
   </g>
   <g id="matplotlib.axis_1">
    <g id="xtick_1">
     <g id="line2d_1">
      <defs>
       <path d="M 0 0 
L 0 3.5 
" id="maf42c86532" style="stroke:#ffffff;stroke-width:0.8;"/>
      </defs>
      <g>
       <use style="fill:#ffffff;stroke:#ffffff;stroke-width:0.8;" x="161.509091" xlink:href="#maf42c86532" y="504"/>
      </g>
     </g>
     <g id="text_1">
      <!-- 0 -->
      <g style="fill:#ffffff;" transform="translate(158.327841 518.598438)scale(0.1 -0.1)">
       <defs>
        <path d="M 2034 4250 
Q 1547 4250 1301 3770 
Q 1056 3291 1056 2328 
Q 1056 1369 1301 889 
Q 1547 409 2034 409 
Q 2525 409 2770 889 
Q 3016 1369 3016 2328 
Q 3016 3291 2770 3770 
Q 2525 4250 2034 4250 
z
M 2034 4750 
Q 2819 4750 3233 4129 
Q 3647 3509 3647 2328 
Q 3647 1150 3233 529 
Q 2819 -91 2034 -91 
Q 1250 -91 836 529 
Q 422 1150 422 2328 
Q 422 3509 836 4129 
Q 1250 4750 2034 4750 
z
" id="DejaVuSans-30" transform="scale(0.015625)"/>
       </defs>
       <use xlink:href="#DejaVuSans-30"/>
      </g>
     </g>
    </g>
    <g id="xtick_2">
     <g id="line2d_2">
      <g>
       <use style="fill:#ffffff;stroke:#ffffff;stroke-width:0.8;" x="257.883337" xlink:href="#maf42c86532" y="504"/>
      </g>
     </g>
     <g id="text_2">
      <!-- 1000 -->
      <g style="fill:#ffffff;" transform="translate(245.158337 518.598438)scale(0.1 -0.1)">
       <defs>
        <path d="M 794 531 
L 1825 531 
L 1825 4091 
L 703 3866 
L 703 4441 
L 1819 4666 
L 2450 4666 
L 2450 531 
L 3481 531 
L 3481 0 
L 794 0 
L 794 531 
z
" id="DejaVuSans-31" transform="scale(0.015625)"/>
       </defs>
       <use xlink:href="#DejaVuSans-31"/>
       <use x="63.623047" xlink:href="#DejaVuSans-30"/>
       <use x="127.246094" xlink:href="#DejaVuSans-30"/>
       <use x="190.869141" xlink:href="#DejaVuSans-30"/>
      </g>
     </g>
    </g>
    <g id="xtick_3">
     <g id="line2d_3">
      <g>
       <use style="fill:#ffffff;stroke:#ffffff;stroke-width:0.8;" x="354.257583" xlink:href="#maf42c86532" y="504"/>
      </g>
     </g>
     <g id="text_3">
      <!-- 2000 -->
      <g style="fill:#ffffff;" transform="translate(341.532583 518.598438)scale(0.1 -0.1)">
       <defs>
        <path d="M 1228 531 
L 3431 531 
L 3431 0 
L 469 0 
L 469 531 
Q 828 903 1448 1529 
Q 2069 2156 2228 2338 
Q 2531 2678 2651 2914 
Q 2772 3150 2772 3378 
Q 2772 3750 2511 3984 
Q 2250 4219 1831 4219 
Q 1534 4219 1204 4116 
Q 875 4013 500 3803 
L 500 4441 
Q 881 4594 1212 4672 
Q 1544 4750 1819 4750 
Q 2544 4750 2975 4387 
Q 3406 4025 3406 3419 
Q 3406 3131 3298 2873 
Q 3191 2616 2906 2266 
Q 2828 2175 2409 1742 
Q 1991 1309 1228 531 
z
" id="DejaVuSans-32" transform="scale(0.015625)"/>
       </defs>
       <use xlink:href="#DejaVuSans-32"/>
       <use x="63.623047" xlink:href="#DejaVuSans-30"/>
       <use x="127.246094" xlink:href="#DejaVuSans-30"/>
       <use x="190.869141" xlink:href="#DejaVuSans-30"/>
      </g>
     </g>
    </g>
    <g id="xtick_4">
     <g id="line2d_4">
      <g>
       <use style="fill:#ffffff;stroke:#ffffff;stroke-width:0.8;" x="450.631829" xlink:href="#maf42c86532" y="504"/>
      </g>
     </g>
     <g id="text_4">
      <!-- 3000 -->
      <g style="fill:#ffffff;" transform="translate(437.906829 518.598438)scale(0.1 -0.1)">
       <defs>
        <path d="M 2597 2516 
Q 3050 2419 3304 2112 
Q 3559 1806 3559 1356 
Q 3559 666 3084 287 
Q 2609 -91 1734 -91 
Q 1441 -91 1130 -33 
Q 819 25 488 141 
L 488 750 
Q 750 597 1062 519 
Q 1375 441 1716 441 
Q 2309 441 2620 675 
Q 2931 909 2931 1356 
Q 2931 1769 2642 2001 
Q 2353 2234 1838 2234 
L 1294 2234 
L 1294 2753 
L 1863 2753 
Q 2328 2753 2575 2939 
Q 2822 3125 2822 3475 
Q 2822 3834 2567 4026 
Q 2313 4219 1838 4219 
Q 1578 4219 1281 4162 
Q 984 4106 628 3988 
L 628 4550 
Q 988 4650 1302 4700 
Q 1616 4750 1894 4750 
Q 2613 4750 3031 4423 
Q 3450 4097 3450 3541 
Q 3450 3153 3228 2886 
Q 3006 2619 2597 2516 
z
" id="DejaVuSans-33" transform="scale(0.015625)"/>
       </defs>
       <use xlink:href="#DejaVuSans-33"/>
       <use x="63.623047" xlink:href="#DejaVuSans-30"/>
       <use x="127.246094" xlink:href="#DejaVuSans-30"/>
       <use x="190.869141" xlink:href="#DejaVuSans-30"/>
      </g>
     </g>
    </g>
    <g id="xtick_5">
     <g id="line2d_5">
      <g>
       <use style="fill:#ffffff;stroke:#ffffff;stroke-width:0.8;" x="547.006075" xlink:href="#maf42c86532" y="504"/>
      </g>
     </g>
     <g id="text_5">
      <!-- 4000 -->
      <g style="fill:#ffffff;" transform="translate(534.281075 518.598438)scale(0.1 -0.1)">
       <defs>
        <path d="M 2419 4116 
L 825 1625 
L 2419 1625 
L 2419 4116 
z
M 2253 4666 
L 3047 4666 
L 3047 1625 
L 3713 1625 
L 3713 1100 
L 3047 1100 
L 3047 0 
L 2419 0 
L 2419 1100 
L 313 1100 
L 313 1709 
L 2253 4666 
z
" id="DejaVuSans-34" transform="scale(0.015625)"/>
       </defs>
       <use xlink:href="#DejaVuSans-34"/>
       <use x="63.623047" xlink:href="#DejaVuSans-30"/>
       <use x="127.246094" xlink:href="#DejaVuSans-30"/>
       <use x="190.869141" xlink:href="#DejaVuSans-30"/>
      </g>
     </g>
    </g>
    <g id="xtick_6">
     <g id="line2d_6">
      <g>
       <use style="fill:#ffffff;stroke:#ffffff;stroke-width:0.8;" x="643.380321" xlink:href="#maf42c86532" y="504"/>
      </g>
     </g>
     <g id="text_6">
      <!-- 5000 -->
      <g style="fill:#ffffff;" transform="translate(630.655321 518.598438)scale(0.1 -0.1)">
       <defs>
        <path d="M 691 4666 
L 3169 4666 
L 3169 4134 
L 1269 4134 
L 1269 2991 
Q 1406 3038 1543 3061 
Q 1681 3084 1819 3084 
Q 2600 3084 3056 2656 
Q 3513 2228 3513 1497 
Q 3513 744 3044 326 
Q 2575 -91 1722 -91 
Q 1428 -91 1123 -41 
Q 819 9 494 109 
L 494 744 
Q 775 591 1075 516 
Q 1375 441 1709 441 
Q 2250 441 2565 725 
Q 2881 1009 2881 1497 
Q 2881 1984 2565 2268 
Q 2250 2553 1709 2553 
Q 1456 2553 1204 2497 
Q 953 2441 691 2322 
L 691 4666 
z
" id="DejaVuSans-35" transform="scale(0.015625)"/>
       </defs>
       <use xlink:href="#DejaVuSans-35"/>
       <use x="63.623047" xlink:href="#DejaVuSans-30"/>
       <use x="127.246094" xlink:href="#DejaVuSans-30"/>
       <use x="190.869141" xlink:href="#DejaVuSans-30"/>
      </g>
     </g>
    </g>
    <g id="xtick_7">
     <g id="line2d_7">
      <g>
       <use style="fill:#ffffff;stroke:#ffffff;stroke-width:0.8;" x="739.754566" xlink:href="#maf42c86532" y="504"/>
      </g>
     </g>
     <g id="text_7">
      <!-- 6000 -->
      <g style="fill:#ffffff;" transform="translate(727.029566 518.598438)scale(0.1 -0.1)">
       <defs>
        <path d="M 2113 2584 
Q 1688 2584 1439 2293 
Q 1191 2003 1191 1497 
Q 1191 994 1439 701 
Q 1688 409 2113 409 
Q 2538 409 2786 701 
Q 3034 994 3034 1497 
Q 3034 2003 2786 2293 
Q 2538 2584 2113 2584 
z
M 3366 4563 
L 3366 3988 
Q 3128 4100 2886 4159 
Q 2644 4219 2406 4219 
Q 1781 4219 1451 3797 
Q 1122 3375 1075 2522 
Q 1259 2794 1537 2939 
Q 1816 3084 2150 3084 
Q 2853 3084 3261 2657 
Q 3669 2231 3669 1497 
Q 3669 778 3244 343 
Q 2819 -91 2113 -91 
Q 1303 -91 875 529 
Q 447 1150 447 2328 
Q 447 3434 972 4092 
Q 1497 4750 2381 4750 
Q 2619 4750 2861 4703 
Q 3103 4656 3366 4563 
z
" id="DejaVuSans-36" transform="scale(0.015625)"/>
       </defs>
       <use xlink:href="#DejaVuSans-36"/>
       <use x="63.623047" xlink:href="#DejaVuSans-30"/>
       <use x="127.246094" xlink:href="#DejaVuSans-30"/>
       <use x="190.869141" xlink:href="#DejaVuSans-30"/>
      </g>
     </g>
    </g>
    <g id="xtick_8">
     <g id="line2d_8">
      <g>
       <use style="fill:#ffffff;stroke:#ffffff;stroke-width:0.8;" x="836.128812" xlink:href="#maf42c86532" y="504"/>
      </g>
     </g>
     <g id="text_8">
      <!-- 7000 -->
      <g style="fill:#ffffff;" transform="translate(823.403812 518.598438)scale(0.1 -0.1)">
       <defs>
        <path d="M 525 4666 
L 3525 4666 
L 3525 4397 
L 1831 0 
L 1172 0 
L 2766 4134 
L 525 4134 
L 525 4666 
z
" id="DejaVuSans-37" transform="scale(0.015625)"/>
       </defs>
       <use xlink:href="#DejaVuSans-37"/>
       <use x="63.623047" xlink:href="#DejaVuSans-30"/>
       <use x="127.246094" xlink:href="#DejaVuSans-30"/>
       <use x="190.869141" xlink:href="#DejaVuSans-30"/>
      </g>
     </g>
    </g>
    <g id="text_9">
     <!-- iteration -->
     <g style="fill:#ffffff;" transform="translate(495.477344 532.276562)scale(0.1 -0.1)">
      <defs>
       <path d="M 603 3500 
L 1178 3500 
L 1178 0 
L 603 0 
L 603 3500 
z
M 603 4863 
L 1178 4863 
L 1178 4134 
L 603 4134 
L 603 4863 
z
" id="DejaVuSans-69" transform="scale(0.015625)"/>
       <path d="M 1172 4494 
L 1172 3500 
L 2356 3500 
L 2356 3053 
L 1172 3053 
L 1172 1153 
Q 1172 725 1289 603 
Q 1406 481 1766 481 
L 2356 481 
L 2356 0 
L 1766 0 
Q 1100 0 847 248 
Q 594 497 594 1153 
L 594 3053 
L 172 3053 
L 172 3500 
L 594 3500 
L 594 4494 
L 1172 4494 
z
" id="DejaVuSans-74" transform="scale(0.015625)"/>
       <path d="M 3597 1894 
L 3597 1613 
L 953 1613 
Q 991 1019 1311 708 
Q 1631 397 2203 397 
Q 2534 397 2845 478 
Q 3156 559 3463 722 
L 3463 178 
Q 3153 47 2828 -22 
Q 2503 -91 2169 -91 
Q 1331 -91 842 396 
Q 353 884 353 1716 
Q 353 2575 817 3079 
Q 1281 3584 2069 3584 
Q 2775 3584 3186 3129 
Q 3597 2675 3597 1894 
z
M 3022 2063 
Q 3016 2534 2758 2815 
Q 2500 3097 2075 3097 
Q 1594 3097 1305 2825 
Q 1016 2553 972 2059 
L 3022 2063 
z
" id="DejaVuSans-65" transform="scale(0.015625)"/>
       <path d="M 2631 2963 
Q 2534 3019 2420 3045 
Q 2306 3072 2169 3072 
Q 1681 3072 1420 2755 
Q 1159 2438 1159 1844 
L 1159 0 
L 581 0 
L 581 3500 
L 1159 3500 
L 1159 2956 
Q 1341 3275 1631 3429 
Q 1922 3584 2338 3584 
Q 2397 3584 2469 3576 
Q 2541 3569 2628 3553 
L 2631 2963 
z
" id="DejaVuSans-72" transform="scale(0.015625)"/>
       <path d="M 2194 1759 
Q 1497 1759 1228 1600 
Q 959 1441 959 1056 
Q 959 750 1161 570 
Q 1363 391 1709 391 
Q 2188 391 2477 730 
Q 2766 1069 2766 1631 
L 2766 1759 
L 2194 1759 
z
M 3341 1997 
L 3341 0 
L 2766 0 
L 2766 531 
Q 2569 213 2275 61 
Q 1981 -91 1556 -91 
Q 1019 -91 701 211 
Q 384 513 384 1019 
Q 384 1609 779 1909 
Q 1175 2209 1959 2209 
L 2766 2209 
L 2766 2266 
Q 2766 2663 2505 2880 
Q 2244 3097 1772 3097 
Q 1472 3097 1187 3025 
Q 903 2953 641 2809 
L 641 3341 
Q 956 3463 1253 3523 
Q 1550 3584 1831 3584 
Q 2591 3584 2966 3190 
Q 3341 2797 3341 1997 
z
" id="DejaVuSans-61" transform="scale(0.015625)"/>
       <path d="M 1959 3097 
Q 1497 3097 1228 2736 
Q 959 2375 959 1747 
Q 959 1119 1226 758 
Q 1494 397 1959 397 
Q 2419 397 2687 759 
Q 2956 1122 2956 1747 
Q 2956 2369 2687 2733 
Q 2419 3097 1959 3097 
z
M 1959 3584 
Q 2709 3584 3137 3096 
Q 3566 2609 3566 1747 
Q 3566 888 3137 398 
Q 2709 -91 1959 -91 
Q 1206 -91 779 398 
Q 353 888 353 1747 
Q 353 2609 779 3096 
Q 1206 3584 1959 3584 
z
" id="DejaVuSans-6f" transform="scale(0.015625)"/>
       <path d="M 3513 2113 
L 3513 0 
L 2938 0 
L 2938 2094 
Q 2938 2591 2744 2837 
Q 2550 3084 2163 3084 
Q 1697 3084 1428 2787 
Q 1159 2491 1159 1978 
L 1159 0 
L 581 0 
L 581 3500 
L 1159 3500 
L 1159 2956 
Q 1366 3272 1645 3428 
Q 1925 3584 2291 3584 
Q 2894 3584 3203 3211 
Q 3513 2838 3513 2113 
z
" id="DejaVuSans-6e" transform="scale(0.015625)"/>
      </defs>
      <use xlink:href="#DejaVuSans-69"/>
      <use x="27.783203" xlink:href="#DejaVuSans-74"/>
      <use x="66.992188" xlink:href="#DejaVuSans-65"/>
      <use x="128.515625" xlink:href="#DejaVuSans-72"/>
      <use x="169.628906" xlink:href="#DejaVuSans-61"/>
      <use x="230.908203" xlink:href="#DejaVuSans-74"/>
      <use x="270.117188" xlink:href="#DejaVuSans-69"/>
      <use x="297.900391" xlink:href="#DejaVuSans-6f"/>
      <use x="359.082031" xlink:href="#DejaVuSans-6e"/>
     </g>
    </g>
   </g>
   <g id="matplotlib.axis_2">
    <g id="ytick_1">
     <g id="line2d_9">
      <defs>
       <path d="M 0 0 
L -3.5 0 
" id="me023f1168a" style="stroke:#ffffff;stroke-width:0.8;"/>
      </defs>
      <g>
       <use style="fill:#ffffff;stroke:#ffffff;stroke-width:0.8;" x="126" xlink:href="#me023f1168a" y="484.232727"/>
      </g>
     </g>
     <g id="text_10">
      <!-- 0 -->
      <g style="fill:#ffffff;" transform="translate(112.6375 488.031946)scale(0.1 -0.1)">
       <use xlink:href="#DejaVuSans-30"/>
      </g>
     </g>
    </g>
    <g id="ytick_2">
     <g id="line2d_10">
      <g>
       <use style="fill:#ffffff;stroke:#ffffff;stroke-width:0.8;" x="126" xlink:href="#me023f1168a" y="424.331901"/>
      </g>
     </g>
     <g id="text_11">
      <!-- 1 -->
      <g style="fill:#ffffff;" transform="translate(112.6375 428.13112)scale(0.1 -0.1)">
       <use xlink:href="#DejaVuSans-31"/>
      </g>
     </g>
    </g>
    <g id="ytick_3">
     <g id="line2d_11">
      <g>
       <use style="fill:#ffffff;stroke:#ffffff;stroke-width:0.8;" x="126" xlink:href="#me023f1168a" y="364.431074"/>
      </g>
     </g>
     <g id="text_12">
      <!-- 2 -->
      <g style="fill:#ffffff;" transform="translate(112.6375 368.230293)scale(0.1 -0.1)">
       <use xlink:href="#DejaVuSans-32"/>
      </g>
     </g>
    </g>
    <g id="ytick_4">
     <g id="line2d_12">
      <g>
       <use style="fill:#ffffff;stroke:#ffffff;stroke-width:0.8;" x="126" xlink:href="#me023f1168a" y="304.530248"/>
      </g>
     </g>
     <g id="text_13">
      <!-- 3 -->
      <g style="fill:#ffffff;" transform="translate(112.6375 308.329467)scale(0.1 -0.1)">
       <use xlink:href="#DejaVuSans-33"/>
      </g>
     </g>
    </g>
    <g id="ytick_5">
     <g id="line2d_13">
      <g>
       <use style="fill:#ffffff;stroke:#ffffff;stroke-width:0.8;" x="126" xlink:href="#me023f1168a" y="244.629421"/>
      </g>
     </g>
     <g id="text_14">
      <!-- 4 -->
      <g style="fill:#ffffff;" transform="translate(112.6375 248.42864)scale(0.1 -0.1)">
       <use xlink:href="#DejaVuSans-34"/>
      </g>
     </g>
    </g>
    <g id="ytick_6">
     <g id="line2d_14">
      <g>
       <use style="fill:#ffffff;stroke:#ffffff;stroke-width:0.8;" x="126" xlink:href="#me023f1168a" y="184.728595"/>
      </g>
     </g>
     <g id="text_15">
      <!-- 5 -->
      <g style="fill:#ffffff;" transform="translate(112.6375 188.527814)scale(0.1 -0.1)">
       <use xlink:href="#DejaVuSans-35"/>
      </g>
     </g>
    </g>
    <g id="ytick_7">
     <g id="line2d_15">
      <g>
       <use style="fill:#ffffff;stroke:#ffffff;stroke-width:0.8;" x="126" xlink:href="#me023f1168a" y="124.827769"/>
      </g>
     </g>
     <g id="text_16">
      <!-- 6 -->
      <g style="fill:#ffffff;" transform="translate(112.6375 128.626987)scale(0.1 -0.1)">
       <use xlink:href="#DejaVuSans-36"/>
      </g>
     </g>
    </g>
    <g id="text_17">
     <!-- 1e7 -->
     <g style="fill:#ffffff;" transform="translate(126 66.12)scale(0.1 -0.1)">
      <use xlink:href="#DejaVuSans-31"/>
      <use x="63.623047" xlink:href="#DejaVuSans-65"/>
      <use x="125.146484" xlink:href="#DejaVuSans-37"/>
     </g>
    </g>
   </g>
   <g id="line2d_16">
    <path clip-path="url(#pb02a4db406)" d="M 161.509091 484.193193 
L 165.749558 484.174528 
L 166.7133 484.198284 
L 168.351662 484.162793 
L 170.375522 484.194942 
L 172.303006 484.194726 
L 173.652246 484.191516 
L 204.106508 484.193217 
L 205.648496 484.19475 
L 215.382294 484.170484 
L 215.767791 484.198584 
L 218.659019 484.20425 
L 228.392818 484.16819 
L 230.127554 484.158324 
L 233.018781 484.186801 
L 233.693401 484.207587 
L 235.139015 484.196565 
L 238.126616 484.2021 
L 239.090359 484.188311 
L 243.716323 484.178553 
L 244.583691 484.192288 
L 247.089421 484.21275 
L 247.764041 484.184525 
L 251.233514 484.175145 
L 252.871876 484.207809 
L 256.534097 484.192462 
L 257.305091 484.176438 
L 258.268834 484.17814 
L 260.196319 484.153197 
L 262.027429 484.205412 
L 262.894798 484.202615 
L 290.072335 484.216015 
L 292.192568 484.195128 
L 292.578065 484.183087 
L 295.85479 484.200866 
L 296.722158 484.208264 
L 297.878649 484.188347 
L 299.03514 484.183333 
L 321.97221 484.166339 
L 324.188818 484.15957 
L 324.670689 484.180733 
L 325.730806 484.190743 
L 326.5018 484.178691 
L 328.525659 484.182794 
L 329.489402 484.182542 
L 330.838641 484.170622 
L 331.995132 484.179955 
L 332.8625 484.19475 
L 339.2232 484.204933 
L 340.090569 484.183225 
L 342.981796 484.167957 
L 346.162146 484.19862 
L 347.125889 484.173881 
L 347.993257 484.196487 
L 349.053373 484.17575 
L 349.824367 484.183776 
L 350.884484 484.190276 
L 352.233724 484.164303 
L 354.739454 484.202525 
L 357.14881 484.185238 
L 359.943663 484.183513 
L 360.907406 484.174594 
L 401.288215 484.146716 
L 402.444706 484.176163 
L 405.625056 484.185106 
L 408.323535 484.177535 
L 409.5764 484.194277 
L 414.491486 484.196511 
L 415.551603 484.192126 
L 418.731953 484.193858 
L 419.695696 484.197254 
L 420.563064 484.179368 
L 421.430432 484.186664 
L 434.248207 484.178235 
L 434.633704 484.191839 
L 435.404698 484.174534 
L 435.886569 484.203352 
L 454.775921 484.162032 
L 455.739664 484.189317 
L 458.14902 484.198656 
L 461.232996 484.187957 
L 462.293112 484.184926 
L 464.606094 484.180548 
L 475.496384 484.186993 
L 477.90574 484.162991 
L 479.062231 484.200123 
L 479.736851 484.159948 
L 871.690909 484.113992 
L 871.690909 484.113992 
" style="fill:none;stroke:#8dd3c7;stroke-linecap:square;stroke-width:1.5;"/>
   </g>
   <g id="line2d_17">
    <path clip-path="url(#pb02a4db406)" d="M 161.509091 484.193193 
L 166.520552 484.163284 
L 871.690909 484.113992 
L 871.690909 484.113992 
" style="fill:none;stroke:#feffb3;stroke-linecap:square;stroke-width:1.5;"/>
   </g>
   <g id="line2d_18">
    <path clip-path="url(#pb02a4db406)" d="M 161.509091 88.887273 
L 162.376459 88.887273 
L 162.569208 104.419457 
L 163.340202 104.419457 
L 163.53295 119.341419 
L 164.303944 119.341419 
L 164.496693 133.677133 
L 165.267686 133.677133 
L 165.460435 147.44963 
L 166.231429 147.44963 
L 166.424177 160.681038 
L 167.195171 160.681038 
L 167.38792 173.392616 
L 168.158914 173.392616 
L 168.351662 185.604786 
L 169.122656 185.604786 
L 169.315405 197.337169 
L 170.086399 197.337169 
L 170.279147 208.608615 
L 171.050141 208.608615 
L 171.24289 219.437232 
L 172.013884 219.437232 
L 172.206632 229.840419 
L 172.977626 229.840419 
L 173.170375 239.834889 
L 173.941369 239.834889 
L 174.134117 249.4367 
L 174.905111 249.4367 
L 175.09786 258.661278 
L 175.868854 258.661278 
L 176.061602 267.523445 
L 176.832596 267.523445 
L 177.025345 276.037438 
L 177.796338 276.037438 
L 177.989087 284.216937 
L 178.760081 284.216937 
L 178.952829 292.075083 
L 179.723823 292.075083 
L 179.916572 299.624501 
L 180.687566 299.624501 
L 180.880314 306.87732 
L 181.651308 306.87732 
L 181.844057 313.845193 
L 182.615051 313.845193 
L 182.807799 320.539315 
L 183.578793 320.539315 
L 183.771542 326.97044 
L 184.542536 326.97044 
L 184.735284 333.148902 
L 185.506278 333.148902 
L 185.699027 339.084627 
L 186.470021 339.084627 
L 186.662769 344.787151 
L 187.433763 344.787151 
L 187.626512 350.265637 
L 188.397506 350.265637 
L 188.590254 355.528886 
L 189.361248 355.528886 
L 189.553996 360.585355 
L 190.32499 360.585355 
L 190.517739 365.443166 
L 191.288733 365.443166 
L 191.481481 370.110126 
L 192.252475 370.110126 
L 192.445224 374.593732 
L 193.216218 374.593732 
L 193.408966 378.901188 
L 194.17996 378.901188 
L 194.372709 383.039414 
L 195.143703 383.039414 
L 195.336451 387.01506 
L 196.107445 387.01506 
L 196.300194 390.834511 
L 197.071188 390.834511 
L 197.263936 394.503905 
L 198.03493 394.503905 
L 198.227679 398.029138 
L 198.998673 398.029138 
L 199.191421 401.415872 
L 199.962415 401.415872 
L 200.155164 404.66955 
L 200.926157 404.66955 
L 201.118906 407.795398 
L 201.8899 407.795398 
L 202.082648 410.798439 
L 202.853642 410.798439 
L 203.046391 413.683498 
L 203.817385 413.683498 
L 204.010133 416.45521 
L 204.781127 416.45521 
L 204.973876 419.118028 
L 205.74487 419.118028 
L 205.937618 421.67623 
L 206.708612 421.67623 
L 206.901361 424.133926 
L 207.672355 424.133926 
L 207.865103 426.495065 
L 208.636097 426.495065 
L 208.828846 428.763441 
L 209.59984 428.763441 
L 209.792588 430.942698 
L 210.563582 430.942698 
L 210.756331 433.036336 
L 211.527325 433.036336 
L 211.720073 435.047721 
L 212.491067 435.047721 
L 212.683815 436.980083 
L 213.454809 436.980083 
L 213.647558 438.836527 
L 214.418552 438.836527 
L 214.6113 440.620036 
L 215.382294 440.620036 
L 215.575043 442.333476 
L 216.346037 442.333476 
L 216.538785 443.979598 
L 217.309779 443.979598 
L 217.502528 445.561048 
L 218.273522 445.561048 
L 218.46627 447.080366 
L 219.237264 447.080366 
L 219.430013 448.539994 
L 220.201007 448.539994 
L 220.393755 449.942277 
L 221.164749 449.942277 
L 221.357498 451.289467 
L 222.128492 451.289467 
L 222.32124 452.58373 
L 223.092234 452.58373 
L 223.284983 453.827144 
L 224.055977 453.827144 
L 224.248725 455.021707 
L 225.019719 455.021707 
L 225.212467 456.169339 
L 225.983461 456.169339 
L 226.17621 457.271883 
L 226.947204 457.271883 
L 227.139952 458.33111 
L 227.910946 458.33111 
L 228.103695 459.348723 
L 228.874689 459.348723 
L 229.067437 460.326357 
L 229.838431 460.326357 
L 230.03118 461.265581 
L 230.802174 461.265581 
L 230.994922 462.167906 
L 231.765916 462.167906 
L 231.958665 463.03478 
L 232.729659 463.03478 
L 232.922407 463.867597 
L 233.693401 463.867597 
L 233.88615 464.667695 
L 234.657144 464.667695 
L 234.849892 465.436359 
L 235.620886 465.436359 
L 235.813635 466.174823 
L 236.584628 466.174823 
L 236.777377 466.884276 
L 237.548371 466.884276 
L 237.741119 467.565855 
L 238.512113 467.565855 
L 238.704862 468.220657 
L 239.475856 468.220657 
L 239.668604 468.849733 
L 240.439598 468.849733 
L 240.632347 469.454095 
L 241.403341 469.454095 
L 241.596089 470.034712 
L 242.367083 470.034712 
L 242.559832 470.592518 
L 243.330826 470.592518 
L 243.523574 471.12841 
L 244.294568 471.12841 
L 244.487317 471.643247 
L 245.258311 471.643247 
L 245.451059 472.137858 
L 246.222053 472.137858 
L 246.414802 472.613037 
L 247.185796 472.613037 
L 247.378544 473.069547 
L 248.149538 473.069547 
L 248.342286 473.508122 
L 249.11328 473.508122 
L 249.306029 473.929466 
L 250.077023 473.929466 
L 250.269771 474.334257 
L 251.040765 474.334257 
L 251.233514 474.723144 
L 252.004508 474.723144 
L 252.197256 475.096753 
L 252.96825 475.096753 
L 253.160999 475.455684 
L 253.931993 475.455684 
L 254.124741 475.800513 
L 254.895735 475.800513 
L 255.088484 476.131795 
L 255.859478 476.131795 
L 256.052226 476.450061 
L 256.82322 476.450061 
L 257.015969 476.755824 
L 257.786963 476.755824 
L 257.979711 477.049573 
L 258.750705 477.049573 
L 258.943454 477.331782 
L 259.714448 477.331782 
L 259.907196 477.602904 
L 260.67819 477.602904 
L 260.870938 477.863374 
L 261.641932 477.863374 
L 261.834681 478.113611 
L 262.605675 478.113611 
L 262.798423 478.354016 
L 263.569417 478.354016 
L 263.762166 478.584977 
L 264.53316 478.584977 
L 264.725908 478.806864 
L 265.496902 478.806864 
L 265.689651 479.020033 
L 266.460645 479.020033 
L 266.653393 479.224827 
L 267.424387 479.224827 
L 267.617136 479.421576 
L 268.38813 479.421576 
L 268.580878 479.610595 
L 269.351872 479.610595 
L 269.544621 479.792187 
L 270.315615 479.792187 
L 270.508363 479.966646 
L 271.279357 479.966646 
L 271.472106 480.13425 
L 272.243099 480.13425 
L 272.435848 480.295269 
L 273.206842 480.295269 
L 273.39959 480.449963 
L 274.170584 480.449963 
L 274.363333 480.598578 
L 275.134327 480.598578 
L 275.327075 480.741356 
L 276.098069 480.741356 
L 276.290818 480.878523 
L 277.061812 480.878523 
L 277.25456 481.010302 
L 278.025554 481.010302 
L 278.218303 481.136903 
L 278.989297 481.136903 
L 279.182045 481.258531 
L 279.953039 481.258531 
L 280.145788 481.37538 
L 280.916782 481.37538 
L 281.10953 481.487638 
L 282.844267 481.595487 
L 283.037015 481.699097 
L 284.771751 481.798638 
L 284.9645 481.894267 
L 286.699236 481.98614 
L 286.891985 482.074403 
L 288.626721 482.159198 
L 288.81947 482.240662 
L 290.554206 482.318926 
L 290.746955 482.394115 
L 292.481691 482.466349 
L 292.67444 482.535746 
L 294.409176 482.602417 
L 294.698299 482.666468 
L 296.336661 482.728002 
L 296.625784 482.787119 
L 298.264146 482.843914 
L 298.553269 482.898477 
L 301.155373 483.001257 
L 301.444496 483.049638 
L 304.046601 483.140774 
L 304.335723 483.183674 
L 306.937828 483.264484 
L 307.323325 483.302524 
L 310.792798 483.40791 
L 311.178295 483.440315 
L 314.647768 483.53009 
L 315.129639 483.557695 
L 319.46648 483.657687 
L 320.044725 483.680279 
L 325.248935 483.780602 
L 325.923554 483.798365 
L 332.958874 483.904628 
L 333.826243 483.917518 
L 343.560041 484.021606 
L 345.005655 484.037869 
L 365.726118 484.148746 
L 369.291965 484.161186 
L 871.690909 484.232727 
L 871.690909 484.232727 
" style="fill:none;stroke:#bfbbd9;stroke-linecap:square;stroke-width:1.5;"/>
   </g>
   <g id="patch_3">
    <path d="M 126 504 
L 126 69.12 
" style="fill:none;stroke:#ffffff;stroke-linecap:square;stroke-linejoin:miter;stroke-width:0.8;"/>
   </g>
   <g id="patch_4">
    <path d="M 907.2 504 
L 907.2 69.12 
" style="fill:none;stroke:#ffffff;stroke-linecap:square;stroke-linejoin:miter;stroke-width:0.8;"/>
   </g>
   <g id="patch_5">
    <path d="M 126 504 
L 907.2 504 
" style="fill:none;stroke:#ffffff;stroke-linecap:square;stroke-linejoin:miter;stroke-width:0.8;"/>
   </g>
   <g id="patch_6">
    <path d="M 126 69.12 
L 907.2 69.12 
" style="fill:none;stroke:#ffffff;stroke-linecap:square;stroke-linejoin:miter;stroke-width:0.8;"/>
   </g>
   <g id="text_18">
    <!-- instance 24 with error 0.008255365987892116 -->
    <g style="fill:#ffffff;" transform="translate(374.229375 63.12)scale(0.12 -0.12)">
     <defs>
      <path d="M 2834 3397 
L 2834 2853 
Q 2591 2978 2328 3040 
Q 2066 3103 1784 3103 
Q 1356 3103 1142 2972 
Q 928 2841 928 2578 
Q 928 2378 1081 2264 
Q 1234 2150 1697 2047 
L 1894 2003 
Q 2506 1872 2764 1633 
Q 3022 1394 3022 966 
Q 3022 478 2636 193 
Q 2250 -91 1575 -91 
Q 1294 -91 989 -36 
Q 684 19 347 128 
L 347 722 
Q 666 556 975 473 
Q 1284 391 1588 391 
Q 1994 391 2212 530 
Q 2431 669 2431 922 
Q 2431 1156 2273 1281 
Q 2116 1406 1581 1522 
L 1381 1569 
Q 847 1681 609 1914 
Q 372 2147 372 2553 
Q 372 3047 722 3315 
Q 1072 3584 1716 3584 
Q 2034 3584 2315 3537 
Q 2597 3491 2834 3397 
z
" id="DejaVuSans-73" transform="scale(0.015625)"/>
      <path d="M 3122 3366 
L 3122 2828 
Q 2878 2963 2633 3030 
Q 2388 3097 2138 3097 
Q 1578 3097 1268 2742 
Q 959 2388 959 1747 
Q 959 1106 1268 751 
Q 1578 397 2138 397 
Q 2388 397 2633 464 
Q 2878 531 3122 666 
L 3122 134 
Q 2881 22 2623 -34 
Q 2366 -91 2075 -91 
Q 1284 -91 818 406 
Q 353 903 353 1747 
Q 353 2603 823 3093 
Q 1294 3584 2113 3584 
Q 2378 3584 2631 3529 
Q 2884 3475 3122 3366 
z
" id="DejaVuSans-63" transform="scale(0.015625)"/>
      <path id="DejaVuSans-20" transform="scale(0.015625)"/>
      <path d="M 269 3500 
L 844 3500 
L 1563 769 
L 2278 3500 
L 2956 3500 
L 3675 769 
L 4391 3500 
L 4966 3500 
L 4050 0 
L 3372 0 
L 2619 2869 
L 1863 0 
L 1184 0 
L 269 3500 
z
" id="DejaVuSans-77" transform="scale(0.015625)"/>
      <path d="M 3513 2113 
L 3513 0 
L 2938 0 
L 2938 2094 
Q 2938 2591 2744 2837 
Q 2550 3084 2163 3084 
Q 1697 3084 1428 2787 
Q 1159 2491 1159 1978 
L 1159 0 
L 581 0 
L 581 4863 
L 1159 4863 
L 1159 2956 
Q 1366 3272 1645 3428 
Q 1925 3584 2291 3584 
Q 2894 3584 3203 3211 
Q 3513 2838 3513 2113 
z
" id="DejaVuSans-68" transform="scale(0.015625)"/>
      <path d="M 684 794 
L 1344 794 
L 1344 0 
L 684 0 
L 684 794 
z
" id="DejaVuSans-2e" transform="scale(0.015625)"/>
      <path d="M 2034 2216 
Q 1584 2216 1326 1975 
Q 1069 1734 1069 1313 
Q 1069 891 1326 650 
Q 1584 409 2034 409 
Q 2484 409 2743 651 
Q 3003 894 3003 1313 
Q 3003 1734 2745 1975 
Q 2488 2216 2034 2216 
z
M 1403 2484 
Q 997 2584 770 2862 
Q 544 3141 544 3541 
Q 544 4100 942 4425 
Q 1341 4750 2034 4750 
Q 2731 4750 3128 4425 
Q 3525 4100 3525 3541 
Q 3525 3141 3298 2862 
Q 3072 2584 2669 2484 
Q 3125 2378 3379 2068 
Q 3634 1759 3634 1313 
Q 3634 634 3220 271 
Q 2806 -91 2034 -91 
Q 1263 -91 848 271 
Q 434 634 434 1313 
Q 434 1759 690 2068 
Q 947 2378 1403 2484 
z
M 1172 3481 
Q 1172 3119 1398 2916 
Q 1625 2713 2034 2713 
Q 2441 2713 2670 2916 
Q 2900 3119 2900 3481 
Q 2900 3844 2670 4047 
Q 2441 4250 2034 4250 
Q 1625 4250 1398 4047 
Q 1172 3844 1172 3481 
z
" id="DejaVuSans-38" transform="scale(0.015625)"/>
      <path d="M 703 97 
L 703 672 
Q 941 559 1184 500 
Q 1428 441 1663 441 
Q 2288 441 2617 861 
Q 2947 1281 2994 2138 
Q 2813 1869 2534 1725 
Q 2256 1581 1919 1581 
Q 1219 1581 811 2004 
Q 403 2428 403 3163 
Q 403 3881 828 4315 
Q 1253 4750 1959 4750 
Q 2769 4750 3195 4129 
Q 3622 3509 3622 2328 
Q 3622 1225 3098 567 
Q 2575 -91 1691 -91 
Q 1453 -91 1209 -44 
Q 966 3 703 97 
z
M 1959 2075 
Q 2384 2075 2632 2365 
Q 2881 2656 2881 3163 
Q 2881 3666 2632 3958 
Q 2384 4250 1959 4250 
Q 1534 4250 1286 3958 
Q 1038 3666 1038 3163 
Q 1038 2656 1286 2365 
Q 1534 2075 1959 2075 
z
" id="DejaVuSans-39" transform="scale(0.015625)"/>
     </defs>
     <use xlink:href="#DejaVuSans-69"/>
     <use x="27.783203" xlink:href="#DejaVuSans-6e"/>
     <use x="91.162109" xlink:href="#DejaVuSans-73"/>
     <use x="143.261719" xlink:href="#DejaVuSans-74"/>
     <use x="182.470703" xlink:href="#DejaVuSans-61"/>
     <use x="243.75" xlink:href="#DejaVuSans-6e"/>
     <use x="307.128906" xlink:href="#DejaVuSans-63"/>
     <use x="362.109375" xlink:href="#DejaVuSans-65"/>
     <use x="423.632812" xlink:href="#DejaVuSans-20"/>
     <use x="455.419922" xlink:href="#DejaVuSans-32"/>
     <use x="519.042969" xlink:href="#DejaVuSans-34"/>
     <use x="582.666016" xlink:href="#DejaVuSans-20"/>
     <use x="614.453125" xlink:href="#DejaVuSans-77"/>
     <use x="696.240234" xlink:href="#DejaVuSans-69"/>
     <use x="724.023438" xlink:href="#DejaVuSans-74"/>
     <use x="763.232422" xlink:href="#DejaVuSans-68"/>
     <use x="826.611328" xlink:href="#DejaVuSans-20"/>
     <use x="858.398438" xlink:href="#DejaVuSans-65"/>
     <use x="919.921875" xlink:href="#DejaVuSans-72"/>
     <use x="959.285156" xlink:href="#DejaVuSans-72"/>
     <use x="998.148438" xlink:href="#DejaVuSans-6f"/>
     <use x="1059.330078" xlink:href="#DejaVuSans-72"/>
     <use x="1100.443359" xlink:href="#DejaVuSans-20"/>
     <use x="1132.230469" xlink:href="#DejaVuSans-30"/>
     <use x="1195.853516" xlink:href="#DejaVuSans-2e"/>
     <use x="1227.640625" xlink:href="#DejaVuSans-30"/>
     <use x="1291.263672" xlink:href="#DejaVuSans-30"/>
     <use x="1354.886719" xlink:href="#DejaVuSans-38"/>
     <use x="1418.509766" xlink:href="#DejaVuSans-32"/>
     <use x="1482.132812" xlink:href="#DejaVuSans-35"/>
     <use x="1545.755859" xlink:href="#DejaVuSans-35"/>
     <use x="1609.378906" xlink:href="#DejaVuSans-33"/>
     <use x="1673.001953" xlink:href="#DejaVuSans-36"/>
     <use x="1736.625" xlink:href="#DejaVuSans-35"/>
     <use x="1800.248047" xlink:href="#DejaVuSans-39"/>
     <use x="1863.871094" xlink:href="#DejaVuSans-38"/>
     <use x="1927.494141" xlink:href="#DejaVuSans-37"/>
     <use x="1991.117188" xlink:href="#DejaVuSans-38"/>
     <use x="2054.740234" xlink:href="#DejaVuSans-39"/>
     <use x="2118.363281" xlink:href="#DejaVuSans-32"/>
     <use x="2181.986328" xlink:href="#DejaVuSans-31"/>
     <use x="2245.609375" xlink:href="#DejaVuSans-31"/>
     <use x="2309.232422" xlink:href="#DejaVuSans-36"/>
    </g>
   </g>
   <g id="legend_1">
    <g id="patch_7">
     <path d="M 805.348438 499 
L 900.2 499 
Q 902.2 499 902.2 497 
L 902.2 453.965625 
Q 902.2 451.965625 900.2 451.965625 
L 805.348438 451.965625 
Q 803.348438 451.965625 803.348438 453.965625 
L 803.348438 497 
Q 803.348438 499 805.348438 499 
z
" style="opacity:0.8;stroke:#cccccc;stroke-linejoin:miter;"/>
    </g>
    <g id="line2d_19">
     <path d="M 807.348438 460.064062 
L 827.348438 460.064062 
" style="fill:none;stroke:#8dd3c7;stroke-linecap:square;stroke-width:1.5;"/>
    </g>
    <g id="line2d_20"/>
    <g id="text_19">
     <!-- cost -->
     <g style="fill:#ffffff;" transform="translate(835.348438 463.564062)scale(0.1 -0.1)">
      <use xlink:href="#DejaVuSans-63"/>
      <use x="54.980469" xlink:href="#DejaVuSans-6f"/>
      <use x="116.162109" xlink:href="#DejaVuSans-73"/>
      <use x="168.261719" xlink:href="#DejaVuSans-74"/>
     </g>
    </g>
    <g id="line2d_21">
     <path d="M 807.348438 474.742188 
L 827.348438 474.742188 
" style="fill:none;stroke:#feffb3;stroke-linecap:square;stroke-width:1.5;"/>
    </g>
    <g id="line2d_22"/>
    <g id="text_20">
     <!-- best cost -->
     <g style="fill:#ffffff;" transform="translate(835.348438 478.242188)scale(0.1 -0.1)">
      <defs>
       <path d="M 3116 1747 
Q 3116 2381 2855 2742 
Q 2594 3103 2138 3103 
Q 1681 3103 1420 2742 
Q 1159 2381 1159 1747 
Q 1159 1113 1420 752 
Q 1681 391 2138 391 
Q 2594 391 2855 752 
Q 3116 1113 3116 1747 
z
M 1159 2969 
Q 1341 3281 1617 3432 
Q 1894 3584 2278 3584 
Q 2916 3584 3314 3078 
Q 3713 2572 3713 1747 
Q 3713 922 3314 415 
Q 2916 -91 2278 -91 
Q 1894 -91 1617 61 
Q 1341 213 1159 525 
L 1159 0 
L 581 0 
L 581 4863 
L 1159 4863 
L 1159 2969 
z
" id="DejaVuSans-62" transform="scale(0.015625)"/>
      </defs>
      <use xlink:href="#DejaVuSans-62"/>
      <use x="63.476562" xlink:href="#DejaVuSans-65"/>
      <use x="125" xlink:href="#DejaVuSans-73"/>
      <use x="177.099609" xlink:href="#DejaVuSans-74"/>
      <use x="216.308594" xlink:href="#DejaVuSans-20"/>
      <use x="248.095703" xlink:href="#DejaVuSans-63"/>
      <use x="303.076172" xlink:href="#DejaVuSans-6f"/>
      <use x="364.257812" xlink:href="#DejaVuSans-73"/>
      <use x="416.357422" xlink:href="#DejaVuSans-74"/>
     </g>
    </g>
    <g id="line2d_23">
     <path d="M 807.348438 489.420313 
L 827.348438 489.420313 
" style="fill:none;stroke:#bfbbd9;stroke-linecap:square;stroke-width:1.5;"/>
    </g>
    <g id="line2d_24"/>
    <g id="text_21">
     <!-- temperature -->
     <g style="fill:#ffffff;" transform="translate(835.348438 492.920313)scale(0.1 -0.1)">
      <defs>
       <path d="M 3328 2828 
Q 3544 3216 3844 3400 
Q 4144 3584 4550 3584 
Q 5097 3584 5394 3201 
Q 5691 2819 5691 2113 
L 5691 0 
L 5113 0 
L 5113 2094 
Q 5113 2597 4934 2840 
Q 4756 3084 4391 3084 
Q 3944 3084 3684 2787 
Q 3425 2491 3425 1978 
L 3425 0 
L 2847 0 
L 2847 2094 
Q 2847 2600 2669 2842 
Q 2491 3084 2119 3084 
Q 1678 3084 1418 2786 
Q 1159 2488 1159 1978 
L 1159 0 
L 581 0 
L 581 3500 
L 1159 3500 
L 1159 2956 
Q 1356 3278 1631 3431 
Q 1906 3584 2284 3584 
Q 2666 3584 2933 3390 
Q 3200 3197 3328 2828 
z
" id="DejaVuSans-6d" transform="scale(0.015625)"/>
       <path d="M 1159 525 
L 1159 -1331 
L 581 -1331 
L 581 3500 
L 1159 3500 
L 1159 2969 
Q 1341 3281 1617 3432 
Q 1894 3584 2278 3584 
Q 2916 3584 3314 3078 
Q 3713 2572 3713 1747 
Q 3713 922 3314 415 
Q 2916 -91 2278 -91 
Q 1894 -91 1617 61 
Q 1341 213 1159 525 
z
M 3116 1747 
Q 3116 2381 2855 2742 
Q 2594 3103 2138 3103 
Q 1681 3103 1420 2742 
Q 1159 2381 1159 1747 
Q 1159 1113 1420 752 
Q 1681 391 2138 391 
Q 2594 391 2855 752 
Q 3116 1113 3116 1747 
z
" id="DejaVuSans-70" transform="scale(0.015625)"/>
       <path d="M 544 1381 
L 544 3500 
L 1119 3500 
L 1119 1403 
Q 1119 906 1312 657 
Q 1506 409 1894 409 
Q 2359 409 2629 706 
Q 2900 1003 2900 1516 
L 2900 3500 
L 3475 3500 
L 3475 0 
L 2900 0 
L 2900 538 
Q 2691 219 2414 64 
Q 2138 -91 1772 -91 
Q 1169 -91 856 284 
Q 544 659 544 1381 
z
M 1991 3584 
L 1991 3584 
z
" id="DejaVuSans-75" transform="scale(0.015625)"/>
      </defs>
      <use xlink:href="#DejaVuSans-74"/>
      <use x="39.208984" xlink:href="#DejaVuSans-65"/>
      <use x="100.732422" xlink:href="#DejaVuSans-6d"/>
      <use x="198.144531" xlink:href="#DejaVuSans-70"/>
      <use x="261.621094" xlink:href="#DejaVuSans-65"/>
      <use x="323.144531" xlink:href="#DejaVuSans-72"/>
      <use x="364.257812" xlink:href="#DejaVuSans-61"/>
      <use x="425.537109" xlink:href="#DejaVuSans-74"/>
      <use x="464.746094" xlink:href="#DejaVuSans-75"/>
      <use x="528.125" xlink:href="#DejaVuSans-72"/>
      <use x="566.988281" xlink:href="#DejaVuSans-65"/>
     </g>
    </g>
   </g>
  </g>
 </g>
 <defs>
  <clipPath id="pb02a4db406">
   <rect height="434.88" width="781.2" x="126" y="69.12"/>
  </clipPath>
 </defs>
</svg>
