<?xml version="1.0" encoding="utf-8" standalone="no"?>
<!DOCTYPE svg PUBLIC "-//W3C//DTD SVG 1.1//EN"
  "http://www.w3.org/Graphics/SVG/1.1/DTD/svg11.dtd">
<svg height="576pt" version="1.1" viewBox="0 0 1008 576" width="1008pt" xmlns="http://www.w3.org/2000/svg" xmlns:xlink="http://www.w3.org/1999/xlink">
 <metadata>
  <rdf:RDF xmlns:cc="http://creativecommons.org/ns#" xmlns:dc="http://purl.org/dc/elements/1.1/" xmlns:rdf="http://www.w3.org/1999/02/22-rdf-syntax-ns#">
   <cc:Work>
    <dc:type rdf:resource="http://purl.org/dc/dcmitype/StillImage"/>
    <dc:date>2022-01-08T01:27:28.648631</dc:date>
    <dc:format>image/svg+xml</dc:format>
    <dc:creator>
     <cc:Agent>
      <dc:title>Matplotlib v3.4.3, https://matplotlib.org/</dc:title>
     </cc:Agent>
    </dc:creator>
   </cc:Work>
  </rdf:RDF>
 </metadata>
 <defs>
  <style type="text/css">*{stroke-linecap:butt;stroke-linejoin:round;}</style>
 </defs>
 <g id="figure_1">
  <g id="patch_1">
   <path d="M 0 576 
L 1008 576 
L 1008 0 
L 0 0 
z
"/>
  </g>
  <g id="axes_1">
   <g id="patch_2">
    <path d="M 126 504 
L 907.2 504 
L 907.2 69.12 
L 126 69.12 
z
"/>
   </g>
   <g id="matplotlib.axis_1">
    <g id="xtick_1">
     <g id="line2d_1">
      <defs>
       <path d="M 0 0 
L 0 3.5 
" id="ma26e47af64" style="stroke:#ffffff;stroke-width:0.8;"/>
      </defs>
      <g>
       <use style="fill:#ffffff;stroke:#ffffff;stroke-width:0.8;" x="161.509091" xlink:href="#ma26e47af64" y="504"/>
      </g>
     </g>
     <g id="text_1">
      <!-- 0 -->
      <g style="fill:#ffffff;" transform="translate(158.327841 518.598438)scale(0.1 -0.1)">
       <defs>
        <path d="M 2034 4250 
Q 1547 4250 1301 3770 
Q 1056 3291 1056 2328 
Q 1056 1369 1301 889 
Q 1547 409 2034 409 
Q 2525 409 2770 889 
Q 3016 1369 3016 2328 
Q 3016 3291 2770 3770 
Q 2525 4250 2034 4250 
z
M 2034 4750 
Q 2819 4750 3233 4129 
Q 3647 3509 3647 2328 
Q 3647 1150 3233 529 
Q 2819 -91 2034 -91 
Q 1250 -91 836 529 
Q 422 1150 422 2328 
Q 422 3509 836 4129 
Q 1250 4750 2034 4750 
z
" id="DejaVuSans-30" transform="scale(0.015625)"/>
       </defs>
       <use xlink:href="#DejaVuSans-30"/>
      </g>
     </g>
    </g>
    <g id="xtick_2">
     <g id="line2d_2">
      <g>
       <use style="fill:#ffffff;stroke:#ffffff;stroke-width:0.8;" x="328.453571" xlink:href="#ma26e47af64" y="504"/>
      </g>
     </g>
     <g id="text_2">
      <!-- 500 -->
      <g style="fill:#ffffff;" transform="translate(318.909821 518.598438)scale(0.1 -0.1)">
       <defs>
        <path d="M 691 4666 
L 3169 4666 
L 3169 4134 
L 1269 4134 
L 1269 2991 
Q 1406 3038 1543 3061 
Q 1681 3084 1819 3084 
Q 2600 3084 3056 2656 
Q 3513 2228 3513 1497 
Q 3513 744 3044 326 
Q 2575 -91 1722 -91 
Q 1428 -91 1123 -41 
Q 819 9 494 109 
L 494 744 
Q 775 591 1075 516 
Q 1375 441 1709 441 
Q 2250 441 2565 725 
Q 2881 1009 2881 1497 
Q 2881 1984 2565 2268 
Q 2250 2553 1709 2553 
Q 1456 2553 1204 2497 
Q 953 2441 691 2322 
L 691 4666 
z
" id="DejaVuSans-35" transform="scale(0.015625)"/>
       </defs>
       <use xlink:href="#DejaVuSans-35"/>
       <use x="63.623047" xlink:href="#DejaVuSans-30"/>
       <use x="127.246094" xlink:href="#DejaVuSans-30"/>
      </g>
     </g>
    </g>
    <g id="xtick_3">
     <g id="line2d_3">
      <g>
       <use style="fill:#ffffff;stroke:#ffffff;stroke-width:0.8;" x="495.398051" xlink:href="#ma26e47af64" y="504"/>
      </g>
     </g>
     <g id="text_3">
      <!-- 1000 -->
      <g style="fill:#ffffff;" transform="translate(482.673051 518.598438)scale(0.1 -0.1)">
       <defs>
        <path d="M 794 531 
L 1825 531 
L 1825 4091 
L 703 3866 
L 703 4441 
L 1819 4666 
L 2450 4666 
L 2450 531 
L 3481 531 
L 3481 0 
L 794 0 
L 794 531 
z
" id="DejaVuSans-31" transform="scale(0.015625)"/>
       </defs>
       <use xlink:href="#DejaVuSans-31"/>
       <use x="63.623047" xlink:href="#DejaVuSans-30"/>
       <use x="127.246094" xlink:href="#DejaVuSans-30"/>
       <use x="190.869141" xlink:href="#DejaVuSans-30"/>
      </g>
     </g>
    </g>
    <g id="xtick_4">
     <g id="line2d_4">
      <g>
       <use style="fill:#ffffff;stroke:#ffffff;stroke-width:0.8;" x="662.342531" xlink:href="#ma26e47af64" y="504"/>
      </g>
     </g>
     <g id="text_4">
      <!-- 1500 -->
      <g style="fill:#ffffff;" transform="translate(649.617531 518.598438)scale(0.1 -0.1)">
       <use xlink:href="#DejaVuSans-31"/>
       <use x="63.623047" xlink:href="#DejaVuSans-35"/>
       <use x="127.246094" xlink:href="#DejaVuSans-30"/>
       <use x="190.869141" xlink:href="#DejaVuSans-30"/>
      </g>
     </g>
    </g>
    <g id="xtick_5">
     <g id="line2d_5">
      <g>
       <use style="fill:#ffffff;stroke:#ffffff;stroke-width:0.8;" x="829.287011" xlink:href="#ma26e47af64" y="504"/>
      </g>
     </g>
     <g id="text_5">
      <!-- 2000 -->
      <g style="fill:#ffffff;" transform="translate(816.562011 518.598438)scale(0.1 -0.1)">
       <defs>
        <path d="M 1228 531 
L 3431 531 
L 3431 0 
L 469 0 
L 469 531 
Q 828 903 1448 1529 
Q 2069 2156 2228 2338 
Q 2531 2678 2651 2914 
Q 2772 3150 2772 3378 
Q 2772 3750 2511 3984 
Q 2250 4219 1831 4219 
Q 1534 4219 1204 4116 
Q 875 4013 500 3803 
L 500 4441 
Q 881 4594 1212 4672 
Q 1544 4750 1819 4750 
Q 2544 4750 2975 4387 
Q 3406 4025 3406 3419 
Q 3406 3131 3298 2873 
Q 3191 2616 2906 2266 
Q 2828 2175 2409 1742 
Q 1991 1309 1228 531 
z
" id="DejaVuSans-32" transform="scale(0.015625)"/>
       </defs>
       <use xlink:href="#DejaVuSans-32"/>
       <use x="63.623047" xlink:href="#DejaVuSans-30"/>
       <use x="127.246094" xlink:href="#DejaVuSans-30"/>
       <use x="190.869141" xlink:href="#DejaVuSans-30"/>
      </g>
     </g>
    </g>
    <g id="text_6">
     <!-- iteration -->
     <g style="fill:#ffffff;" transform="translate(495.477344 532.276562)scale(0.1 -0.1)">
      <defs>
       <path d="M 603 3500 
L 1178 3500 
L 1178 0 
L 603 0 
L 603 3500 
z
M 603 4863 
L 1178 4863 
L 1178 4134 
L 603 4134 
L 603 4863 
z
" id="DejaVuSans-69" transform="scale(0.015625)"/>
       <path d="M 1172 4494 
L 1172 3500 
L 2356 3500 
L 2356 3053 
L 1172 3053 
L 1172 1153 
Q 1172 725 1289 603 
Q 1406 481 1766 481 
L 2356 481 
L 2356 0 
L 1766 0 
Q 1100 0 847 248 
Q 594 497 594 1153 
L 594 3053 
L 172 3053 
L 172 3500 
L 594 3500 
L 594 4494 
L 1172 4494 
z
" id="DejaVuSans-74" transform="scale(0.015625)"/>
       <path d="M 3597 1894 
L 3597 1613 
L 953 1613 
Q 991 1019 1311 708 
Q 1631 397 2203 397 
Q 2534 397 2845 478 
Q 3156 559 3463 722 
L 3463 178 
Q 3153 47 2828 -22 
Q 2503 -91 2169 -91 
Q 1331 -91 842 396 
Q 353 884 353 1716 
Q 353 2575 817 3079 
Q 1281 3584 2069 3584 
Q 2775 3584 3186 3129 
Q 3597 2675 3597 1894 
z
M 3022 2063 
Q 3016 2534 2758 2815 
Q 2500 3097 2075 3097 
Q 1594 3097 1305 2825 
Q 1016 2553 972 2059 
L 3022 2063 
z
" id="DejaVuSans-65" transform="scale(0.015625)"/>
       <path d="M 2631 2963 
Q 2534 3019 2420 3045 
Q 2306 3072 2169 3072 
Q 1681 3072 1420 2755 
Q 1159 2438 1159 1844 
L 1159 0 
L 581 0 
L 581 3500 
L 1159 3500 
L 1159 2956 
Q 1341 3275 1631 3429 
Q 1922 3584 2338 3584 
Q 2397 3584 2469 3576 
Q 2541 3569 2628 3553 
L 2631 2963 
z
" id="DejaVuSans-72" transform="scale(0.015625)"/>
       <path d="M 2194 1759 
Q 1497 1759 1228 1600 
Q 959 1441 959 1056 
Q 959 750 1161 570 
Q 1363 391 1709 391 
Q 2188 391 2477 730 
Q 2766 1069 2766 1631 
L 2766 1759 
L 2194 1759 
z
M 3341 1997 
L 3341 0 
L 2766 0 
L 2766 531 
Q 2569 213 2275 61 
Q 1981 -91 1556 -91 
Q 1019 -91 701 211 
Q 384 513 384 1019 
Q 384 1609 779 1909 
Q 1175 2209 1959 2209 
L 2766 2209 
L 2766 2266 
Q 2766 2663 2505 2880 
Q 2244 3097 1772 3097 
Q 1472 3097 1187 3025 
Q 903 2953 641 2809 
L 641 3341 
Q 956 3463 1253 3523 
Q 1550 3584 1831 3584 
Q 2591 3584 2966 3190 
Q 3341 2797 3341 1997 
z
" id="DejaVuSans-61" transform="scale(0.015625)"/>
       <path d="M 1959 3097 
Q 1497 3097 1228 2736 
Q 959 2375 959 1747 
Q 959 1119 1226 758 
Q 1494 397 1959 397 
Q 2419 397 2687 759 
Q 2956 1122 2956 1747 
Q 2956 2369 2687 2733 
Q 2419 3097 1959 3097 
z
M 1959 3584 
Q 2709 3584 3137 3096 
Q 3566 2609 3566 1747 
Q 3566 888 3137 398 
Q 2709 -91 1959 -91 
Q 1206 -91 779 398 
Q 353 888 353 1747 
Q 353 2609 779 3096 
Q 1206 3584 1959 3584 
z
" id="DejaVuSans-6f" transform="scale(0.015625)"/>
       <path d="M 3513 2113 
L 3513 0 
L 2938 0 
L 2938 2094 
Q 2938 2591 2744 2837 
Q 2550 3084 2163 3084 
Q 1697 3084 1428 2787 
Q 1159 2491 1159 1978 
L 1159 0 
L 581 0 
L 581 3500 
L 1159 3500 
L 1159 2956 
Q 1366 3272 1645 3428 
Q 1925 3584 2291 3584 
Q 2894 3584 3203 3211 
Q 3513 2838 3513 2113 
z
" id="DejaVuSans-6e" transform="scale(0.015625)"/>
      </defs>
      <use xlink:href="#DejaVuSans-69"/>
      <use x="27.783203" xlink:href="#DejaVuSans-74"/>
      <use x="66.992188" xlink:href="#DejaVuSans-65"/>
      <use x="128.515625" xlink:href="#DejaVuSans-72"/>
      <use x="169.628906" xlink:href="#DejaVuSans-61"/>
      <use x="230.908203" xlink:href="#DejaVuSans-74"/>
      <use x="270.117188" xlink:href="#DejaVuSans-69"/>
      <use x="297.900391" xlink:href="#DejaVuSans-6f"/>
      <use x="359.082031" xlink:href="#DejaVuSans-6e"/>
     </g>
    </g>
   </g>
   <g id="matplotlib.axis_2">
    <g id="ytick_1">
     <g id="line2d_6">
      <defs>
       <path d="M 0 0 
L -3.5 0 
" id="m0c6afaf40e" style="stroke:#ffffff;stroke-width:0.8;"/>
      </defs>
      <g>
       <use style="fill:#ffffff;stroke:#ffffff;stroke-width:0.8;" x="126" xlink:href="#m0c6afaf40e" y="484.232727"/>
      </g>
     </g>
     <g id="text_7">
      <!-- 0 -->
      <g style="fill:#ffffff;" transform="translate(112.6375 488.031946)scale(0.1 -0.1)">
       <use xlink:href="#DejaVuSans-30"/>
      </g>
     </g>
    </g>
    <g id="ytick_2">
     <g id="line2d_7">
      <g>
       <use style="fill:#ffffff;stroke:#ffffff;stroke-width:0.8;" x="126" xlink:href="#m0c6afaf40e" y="433.977801"/>
      </g>
     </g>
     <g id="text_8">
      <!-- 5000 -->
      <g style="fill:#ffffff;" transform="translate(93.55 437.77702)scale(0.1 -0.1)">
       <use xlink:href="#DejaVuSans-35"/>
       <use x="63.623047" xlink:href="#DejaVuSans-30"/>
       <use x="127.246094" xlink:href="#DejaVuSans-30"/>
       <use x="190.869141" xlink:href="#DejaVuSans-30"/>
      </g>
     </g>
    </g>
    <g id="ytick_3">
     <g id="line2d_8">
      <g>
       <use style="fill:#ffffff;stroke:#ffffff;stroke-width:0.8;" x="126" xlink:href="#m0c6afaf40e" y="383.722875"/>
      </g>
     </g>
     <g id="text_9">
      <!-- 10000 -->
      <g style="fill:#ffffff;" transform="translate(87.1875 387.522093)scale(0.1 -0.1)">
       <use xlink:href="#DejaVuSans-31"/>
       <use x="63.623047" xlink:href="#DejaVuSans-30"/>
       <use x="127.246094" xlink:href="#DejaVuSans-30"/>
       <use x="190.869141" xlink:href="#DejaVuSans-30"/>
       <use x="254.492188" xlink:href="#DejaVuSans-30"/>
      </g>
     </g>
    </g>
    <g id="ytick_4">
     <g id="line2d_9">
      <g>
       <use style="fill:#ffffff;stroke:#ffffff;stroke-width:0.8;" x="126" xlink:href="#m0c6afaf40e" y="333.467948"/>
      </g>
     </g>
     <g id="text_10">
      <!-- 15000 -->
      <g style="fill:#ffffff;" transform="translate(87.1875 337.267167)scale(0.1 -0.1)">
       <use xlink:href="#DejaVuSans-31"/>
       <use x="63.623047" xlink:href="#DejaVuSans-35"/>
       <use x="127.246094" xlink:href="#DejaVuSans-30"/>
       <use x="190.869141" xlink:href="#DejaVuSans-30"/>
       <use x="254.492188" xlink:href="#DejaVuSans-30"/>
      </g>
     </g>
    </g>
    <g id="ytick_5">
     <g id="line2d_10">
      <g>
       <use style="fill:#ffffff;stroke:#ffffff;stroke-width:0.8;" x="126" xlink:href="#m0c6afaf40e" y="283.213022"/>
      </g>
     </g>
     <g id="text_11">
      <!-- 20000 -->
      <g style="fill:#ffffff;" transform="translate(87.1875 287.012241)scale(0.1 -0.1)">
       <use xlink:href="#DejaVuSans-32"/>
       <use x="63.623047" xlink:href="#DejaVuSans-30"/>
       <use x="127.246094" xlink:href="#DejaVuSans-30"/>
       <use x="190.869141" xlink:href="#DejaVuSans-30"/>
       <use x="254.492188" xlink:href="#DejaVuSans-30"/>
      </g>
     </g>
    </g>
    <g id="ytick_6">
     <g id="line2d_11">
      <g>
       <use style="fill:#ffffff;stroke:#ffffff;stroke-width:0.8;" x="126" xlink:href="#m0c6afaf40e" y="232.958096"/>
      </g>
     </g>
     <g id="text_12">
      <!-- 25000 -->
      <g style="fill:#ffffff;" transform="translate(87.1875 236.757314)scale(0.1 -0.1)">
       <use xlink:href="#DejaVuSans-32"/>
       <use x="63.623047" xlink:href="#DejaVuSans-35"/>
       <use x="127.246094" xlink:href="#DejaVuSans-30"/>
       <use x="190.869141" xlink:href="#DejaVuSans-30"/>
       <use x="254.492188" xlink:href="#DejaVuSans-30"/>
      </g>
     </g>
    </g>
    <g id="ytick_7">
     <g id="line2d_12">
      <g>
       <use style="fill:#ffffff;stroke:#ffffff;stroke-width:0.8;" x="126" xlink:href="#m0c6afaf40e" y="182.703169"/>
      </g>
     </g>
     <g id="text_13">
      <!-- 30000 -->
      <g style="fill:#ffffff;" transform="translate(87.1875 186.502388)scale(0.1 -0.1)">
       <defs>
        <path d="M 2597 2516 
Q 3050 2419 3304 2112 
Q 3559 1806 3559 1356 
Q 3559 666 3084 287 
Q 2609 -91 1734 -91 
Q 1441 -91 1130 -33 
Q 819 25 488 141 
L 488 750 
Q 750 597 1062 519 
Q 1375 441 1716 441 
Q 2309 441 2620 675 
Q 2931 909 2931 1356 
Q 2931 1769 2642 2001 
Q 2353 2234 1838 2234 
L 1294 2234 
L 1294 2753 
L 1863 2753 
Q 2328 2753 2575 2939 
Q 2822 3125 2822 3475 
Q 2822 3834 2567 4026 
Q 2313 4219 1838 4219 
Q 1578 4219 1281 4162 
Q 984 4106 628 3988 
L 628 4550 
Q 988 4650 1302 4700 
Q 1616 4750 1894 4750 
Q 2613 4750 3031 4423 
Q 3450 4097 3450 3541 
Q 3450 3153 3228 2886 
Q 3006 2619 2597 2516 
z
" id="DejaVuSans-33" transform="scale(0.015625)"/>
       </defs>
       <use xlink:href="#DejaVuSans-33"/>
       <use x="63.623047" xlink:href="#DejaVuSans-30"/>
       <use x="127.246094" xlink:href="#DejaVuSans-30"/>
       <use x="190.869141" xlink:href="#DejaVuSans-30"/>
       <use x="254.492188" xlink:href="#DejaVuSans-30"/>
      </g>
     </g>
    </g>
    <g id="ytick_8">
     <g id="line2d_13">
      <g>
       <use style="fill:#ffffff;stroke:#ffffff;stroke-width:0.8;" x="126" xlink:href="#m0c6afaf40e" y="132.448243"/>
      </g>
     </g>
     <g id="text_14">
      <!-- 35000 -->
      <g style="fill:#ffffff;" transform="translate(87.1875 136.247462)scale(0.1 -0.1)">
       <use xlink:href="#DejaVuSans-33"/>
       <use x="63.623047" xlink:href="#DejaVuSans-35"/>
       <use x="127.246094" xlink:href="#DejaVuSans-30"/>
       <use x="190.869141" xlink:href="#DejaVuSans-30"/>
       <use x="254.492188" xlink:href="#DejaVuSans-30"/>
      </g>
     </g>
    </g>
    <g id="ytick_9">
     <g id="line2d_14">
      <g>
       <use style="fill:#ffffff;stroke:#ffffff;stroke-width:0.8;" x="126" xlink:href="#m0c6afaf40e" y="82.193317"/>
      </g>
     </g>
     <g id="text_15">
      <!-- 40000 -->
      <g style="fill:#ffffff;" transform="translate(87.1875 85.992535)scale(0.1 -0.1)">
       <defs>
        <path d="M 2419 4116 
L 825 1625 
L 2419 1625 
L 2419 4116 
z
M 2253 4666 
L 3047 4666 
L 3047 1625 
L 3713 1625 
L 3713 1100 
L 3047 1100 
L 3047 0 
L 2419 0 
L 2419 1100 
L 313 1100 
L 313 1709 
L 2253 4666 
z
" id="DejaVuSans-34" transform="scale(0.015625)"/>
       </defs>
       <use xlink:href="#DejaVuSans-34"/>
       <use x="63.623047" xlink:href="#DejaVuSans-30"/>
       <use x="127.246094" xlink:href="#DejaVuSans-30"/>
       <use x="190.869141" xlink:href="#DejaVuSans-30"/>
       <use x="254.492188" xlink:href="#DejaVuSans-30"/>
      </g>
     </g>
    </g>
   </g>
   <g id="line2d_15">
    <path clip-path="url(#p67f8413c1e)" d="M 161.509091 206.222475 
L 162.176869 226.344547 
L 162.510758 250.3463 
L 162.844647 263.241714 
L 163.178536 247.753146 
L 163.512425 266.287163 
L 163.846314 242.28541 
L 164.180203 252.18563 
L 164.514092 294.399769 
L 164.847981 270.398016 
L 165.181869 261.643608 
L 165.515758 256.638217 
L 165.849647 234.767273 
L 166.183536 247.662687 
L 166.517425 246.848557 
L 167.185203 224.927358 
L 167.519092 224.012719 
L 168.18687 265.402676 
L 168.520759 270.408067 
L 169.188537 260.829478 
L 169.522426 239.139452 
L 170.190204 261.080752 
L 170.524093 254.045063 
L 170.857982 264.367425 
L 171.52576 296.430068 
L 171.859649 285.625258 
L 172.527427 311.395985 
L 172.861316 297.183891 
L 173.195205 307.526355 
L 173.862982 283.012002 
L 174.196871 275.976313 
L 174.53076 283.012002 
L 174.864649 286.539898 
L 175.198538 264.668954 
L 175.532427 274.991316 
L 175.866316 296.86226 
L 176.534094 323.929563 
L 177.201872 279.996707 
L 177.535761 300.038371 
L 177.86965 288.439534 
L 178.203539 283.434144 
L 178.537428 263.151255 
L 178.871317 267.724454 
L 179.205206 251.994662 
L 179.539095 247.421463 
L 179.872984 267.463128 
L 180.206873 256.658319 
L 180.540762 255.180824 
L 180.874651 255.994954 
L 181.20854 255.512507 
L 181.542429 245.170043 
L 181.876317 255.974852 
L 182.210206 259.502748 
L 182.544095 269.82511 
L 182.877984 254.336541 
L 183.211873 264.679005 
L 183.545762 261.151109 
L 183.879651 250.828747 
L 184.881318 284.640262 
L 186.216874 354.052366 
L 186.550763 366.94778 
L 187.55243 382.084564 
L 187.886319 378.556668 
L 188.220208 365.661254 
L 188.554097 360.706118 
L 188.887986 350.383757 
L 189.221875 336.171663 
L 189.555764 359.429643 
L 189.889653 335.42789 
L 190.223541 336.905385 
L 190.55743 323.256147 
L 190.891319 316.220458 
L 191.225208 312.190012 
L 191.559097 326.361902 
L 191.892986 316.300865 
L 192.226875 316.783313 
L 192.560764 305.496056 
L 192.894653 321.225848 
L 193.228542 329.980256 
L 193.562431 329.166127 
L 193.89632 318.361317 
L 194.230209 299.495618 
L 194.564098 309.556654 
L 194.897987 328.422354 
L 195.231876 329.236484 
L 195.565765 309.30538 
L 195.899654 297.706543 
L 196.567432 257.221174 
L 197.23521 290.801516 
L 197.569099 277.152278 
L 197.902988 284.187968 
L 198.236877 282.710473 
L 198.570765 281.896343 
L 198.904654 261.854678 
L 199.238543 285.856431 
L 199.572432 271.684542 
L 200.24021 255.894444 
L 200.907988 274.971214 
L 201.241877 286.25847 
L 201.575766 285.776023 
L 201.909655 287.253518 
L 202.243544 288.168158 
L 202.577433 301.817396 
L 202.911322 302.631526 
L 203.245211 314.230363 
L 203.5791 334.272027 
L 203.912989 333.357387 
L 204.246878 340.393077 
L 204.580767 329.105821 
L 204.914656 347.97152 
L 206.250212 308.49125 
L 206.584101 317.245658 
L 206.917989 317.728105 
L 207.251878 333.216674 
L 207.585767 324.462266 
L 208.253545 285.474494 
L 208.587434 263.784467 
L 208.921323 252.18563 
L 209.255212 247.612432 
L 209.589101 229.078415 
L 209.92299 250.768442 
L 210.590768 271.121687 
L 210.924657 276.076822 
L 211.258546 254.386796 
L 211.926324 262.99044 
L 212.594102 253.462106 
L 212.927991 264.266915 
L 213.26188 263.452785 
L 213.595769 268.025983 
L 213.929658 278.087019 
L 214.263547 258.045355 
L 214.597436 247.783299 
L 214.931325 223.781546 
L 215.265213 243.823211 
L 215.599102 228.334642 
L 215.932991 249.954312 
L 216.26688 245.381113 
L 216.600769 243.903619 
L 216.934658 244.818258 
L 217.268547 255.14062 
L 217.602436 255.95475 
L 217.936325 247.200342 
L 218.270214 299.385057 
L 218.604103 286.489643 
L 218.937992 296.550679 
L 219.271881 286.489643 
L 219.60577 306.531308 
L 219.939659 291.042739 
L 220.273548 291.856869 
L 220.607437 281.594813 
L 221.275215 303.455706 
L 221.609104 317.104944 
L 221.942993 322.110335 
L 222.94466 285.052352 
L 223.278549 263.362326 
L 223.612437 283.29343 
L 223.946326 287.323875 
L 224.614104 328.713832 
L 225.281882 350.062125 
L 225.615771 362.957539 
L 226.283549 331.528108 
L 226.617438 342.332917 
L 226.951327 340.855422 
L 227.619105 301.04347 
L 227.952994 292.289062 
L 228.286883 288.258617 
L 228.620772 266.638947 
L 228.954661 282.127516 
L 229.28855 283.042155 
L 229.622439 259.784175 
L 229.956328 283.042155 
L 230.290217 272.780099 
L 230.624106 279.815789 
L 230.957995 292.711203 
L 231.291884 294.188698 
L 231.625773 278.70013 
L 231.959661 288.962186 
L 232.29355 265.704206 
L 232.627439 264.226711 
L 232.961328 244.295607 
L 233.295217 243.380967 
L 233.629106 266.638947 
L 233.962995 256.296483 
L 234.296884 277.916153 
L 234.630773 264.266915 
L 234.964662 257.231225 
L 235.298551 270.880463 
L 235.63244 279.634871 
L 235.966329 258.015202 
L 236.300218 265.050892 
L 236.634107 254.246082 
L 236.967996 250.718187 
L 237.301885 261.040548 
L 237.635774 279.574565 
L 237.969663 289.917029 
L 238.303552 284.961893 
L 238.637441 299.133783 
L 238.97133 292.098093 
L 239.305219 313.717762 
L 239.639108 297.98797 
L 239.972997 276.368301 
L 240.306885 291.856869 
L 240.640774 281.594813 
L 240.974663 301.525917 
L 241.642441 310.511498 
L 242.310219 289.846672 
L 242.644108 271.312655 
L 242.977997 282.911492 
L 243.645775 264.096048 
L 244.313553 303.003412 
L 244.647442 291.716155 
L 244.981331 302.038517 
L 245.31522 288.389279 
L 245.649109 291.917175 
L 245.982998 286.962039 
L 246.316887 287.876679 
L 246.650776 266.005735 
L 246.984665 265.091096 
L 247.652443 285.33378 
L 247.986332 262.0758 
L 248.320221 247.863707 
L 248.65411 298.721692 
L 248.987998 280.187675 
L 249.321887 285.193066 
L 249.655776 304.058765 
L 249.989665 307.586661 
L 250.323554 297.525625 
L 250.657443 281.795833 
L 250.991332 297.284401 
L 251.325221 301.8576 
L 251.65911 300.380105 
L 251.992999 301.194235 
L 252.326888 302.671729 
L 252.660777 313.014193 
L 252.994666 294.148494 
L 253.328555 307.043908 
L 253.662444 298.2895 
L 253.996333 309.888337 
L 254.330222 299.626281 
L 254.664111 318.160298 
L 254.998 314.632402 
L 255.331889 307.596712 
L 255.999667 267.191751 
L 256.333556 265.714257 
L 256.667445 264.900127 
L 257.001334 254.557663 
L 257.335222 258.085559 
L 257.669111 247.28075 
L 258.003 265.814766 
L 259.004667 207.217522 
L 260.006334 260.407336 
L 260.340223 276.137128 
L 260.674112 252.135376 
L 261.008001 262.940185 
L 261.34189 247.210393 
L 261.675779 257.472449 
L 262.009668 238.938432 
L 262.343557 228.61607 
L 262.677446 250.306096 
L 263.011335 249.391457 
L 263.345224 245.863561 
L 263.679113 224.173534 
L 264.013002 224.987664 
L 264.346891 321.597735 
L 264.68078 333.196572 
L 265.014669 352.062271 
L 265.682446 334.684118 
L 266.016335 312.813174 
L 266.350224 302.912953 
L 266.684113 284.047254 
L 267.018002 280.519358 
L 267.351891 291.324167 
L 267.68578 310.189866 
L 268.019669 288.49984 
L 268.353558 274.327951 
L 268.687447 272.850456 
L 269.021336 277.855847 
L 270.023003 309.00385 
L 270.356892 285.002097 
L 270.690781 309.00385 
L 271.02467 301.96816 
L 271.358559 303.445655 
L 271.692448 291.846818 
L 272.026337 271.805154 
L 272.360226 275.33305 
L 272.694115 286.620306 
L 273.028004 275.815497 
L 273.361893 270.769902 
L 273.695782 290.701006 
L 274.363559 256.598013 
L 274.697448 260.125909 
L 275.031337 244.63734 
L 275.365226 223.017671 
L 275.699115 210.122257 
L 276.033004 223.771495 
L 276.700782 266.307265 
L 277.034671 255.502456 
L 277.36856 268.39787 
L 277.702449 263.442734 
L 278.036338 272.197142 
L 278.370227 293.816811 
L 278.704116 283.474348 
L 279.038005 282.660218 
L 279.371894 262.88993 
L 279.705783 263.804569 
L 280.039672 268.80996 
L 280.373561 277.775439 
L 280.70745 273.744994 
L 281.041339 278.750384 
L 281.375228 285.786074 
L 281.709117 271.614185 
L 282.043006 285.786074 
L 282.376894 270.056282 
L 282.710783 274.086727 
L 283.044672 275.001367 
L 283.378561 264.940331 
L 283.71245 269.513529 
L 284.046339 264.940331 
L 284.380228 246.074631 
L 284.714117 235.269822 
L 285.048006 256.889492 
L 285.381895 242.677398 
L 285.715784 243.159846 
L 286.717451 281.56466 
L 287.05134 263.030644 
L 287.385229 267.061089 
L 287.719118 248.195389 
L 288.386896 289.987386 
L 288.720785 305.475954 
L 289.054674 306.953449 
L 289.388563 302.380251 
L 290.056341 279.423801 
L 291.058007 309.727521 
L 291.391896 293.997729 
L 291.725785 298.952865 
L 292.059674 317.818564 
L 292.727452 309.335533 
L 293.061341 320.622789 
L 293.39523 325.195987 
L 293.729119 321.165542 
L 294.063008 297.907562 
L 294.396897 289.153154 
L 294.730786 312.411134 
L 295.064675 325.306548 
L 295.398564 330.311939 
L 295.732453 319.024682 
L 296.066342 297.153739 
L 296.400231 282.941645 
L 296.73412 297.113535 
L 297.068009 287.052498 
L 297.401898 298.339755 
L 297.735787 288.439534 
L 298.069676 298.500571 
L 298.403565 302.531016 
L 298.737454 297.957817 
L 299.405231 273.443464 
L 300.073009 294.027882 
L 300.406898 309.757674 
L 300.740787 286.499694 
L 301.074676 286.982141 
L 301.408565 291.937277 
L 302.076343 267.965677 
L 302.410232 243.963924 
L 303.07801 287.153008 
L 303.411899 311.154761 
L 303.745788 289.464735 
L 304.079677 299.787097 
L 304.413566 246.798302 
L 304.747455 251.753438 
L 305.081344 267.242006 
L 305.415233 267.724454 
L 305.749122 286.590153 
L 306.083011 296.651189 
L 306.4169 295.837059 
L 306.750789 290.881924 
L 307.084678 290.399476 
L 307.752455 319.024682 
L 308.086344 300.158983 
L 308.420233 305.164374 
L 308.754122 324.030073 
L 309.088011 334.352435 
L 309.4219 315.486736 
L 309.755789 334.352435 
L 310.089678 325.598027 
L 310.757456 293.836913 
L 311.091345 279.62482 
L 311.759123 322.492272 
L 312.426901 365.791917 
L 312.76079 351.620028 
L 313.094679 329.930001 
L 313.428568 340.734811 
L 313.762457 335.72942 
L 314.096346 357.419446 
L 315.098013 311.747769 
L 315.431902 301.686733 
L 315.76579 302.500863 
L 316.099679 307.506253 
L 316.433568 318.79351 
L 317.769124 274.760143 
L 318.436902 229.882494 
L 318.770791 229.068364 
L 319.10468 241.963778 
L 319.438569 223.098079 
L 319.772458 231.852487 
L 320.106347 218.203249 
L 320.440236 241.461229 
L 320.774125 252.748486 
L 321.108014 253.230933 
L 321.441903 263.131153 
L 321.775792 281.66517 
L 322.109681 280.750531 
L 322.44357 291.092994 
L 323.111348 250.868951 
L 323.445237 254.899396 
L 323.779126 291.686003 
L 324.113014 295.716448 
L 324.446903 250.868951 
L 324.780792 264.518189 
L 325.114681 249.029621 
L 325.44857 267.563638 
L 325.782459 243.561885 
L 326.116348 254.366694 
L 326.450237 276.05672 
L 327.118015 231.108714 
L 327.451904 246.838506 
L 327.785793 233.189268 
L 328.119682 214.655251 
L 328.453571 238.657004 
L 328.78746 239.571644 
L 329.121349 219.801356 
L 329.455238 238.667055 
L 329.789127 214.665302 
L 330.123016 210.092104 
L 330.456905 199.769742 
L 330.790794 177.898798 
L 331.458572 156.269078 
L 331.792461 151.263687 
L 332.12635 172.953714 
L 332.460238 373.631685 
L 332.794127 374.114133 
L 333.128016 354.183029 
L 333.461905 367.078443 
L 334.129683 334.372537 
L 334.463572 212.212862 
L 334.797461 216.243307 
L 335.13135 236.284972 
L 335.465239 246.607334 
L 335.799128 232.435444 
L 336.133017 244.034281 
L 336.466906 265.905225 
L 336.800795 255.582863 
L 337.134684 269.232101 
L 337.468573 260.477693 
L 338.136351 280.861091 
L 338.47024 270.056282 
L 338.804129 266.528386 
L 339.138018 271.101585 
L 339.471907 259.502748 
L 339.805796 263.030644 
L 340.139685 252.708282 
L 340.473574 263.995538 
L 340.807462 245.129839 
L 341.141351 259.341932 
L 341.809129 269.302458 
L 342.143018 262.266769 
L 342.476907 277.755337 
L 342.810796 278.569467 
L 343.144685 301.827447 
L 343.478574 291.76641 
L 343.812463 290.952281 
L 344.146352 276.740187 
L 344.480241 254.869243 
L 344.81413 269.081337 
L 345.481908 260.045501 
L 346.483575 314.160006 
L 346.817464 302.872749 
L 347.819131 247.763197 
L 348.15302 267.533485 
L 348.486909 247.49182 
L 348.820798 242.918622 
L 349.154686 264.538291 
L 349.488575 275.3431 
L 349.822464 265.44288 
L 350.156353 270.016078 
L 350.490242 266.488182 
L 350.824131 276.549219 
L 351.15802 298.420163 
L 351.491909 288.077699 
L 351.825798 258.5077 
L 352.159687 277.041717 
L 352.493576 268.287309 
L 353.161354 310.089357 
L 353.495243 299.827301 
L 353.829132 294.82191 
L 354.163021 299.827301 
L 354.49691 285.655411 
L 354.830799 299.867505 
L 355.164688 298.39001 
L 355.498577 307.144418 
L 355.832466 311.717616 
L 356.500244 355.489657 
L 356.834133 331.487904 
L 357.168022 330.673774 
L 357.501911 344.845664 
L 357.835799 331.196426 
L 358.503577 296.942668 
L 358.837466 285.343831 
L 359.171355 286.821326 
L 359.505244 302.309894 
L 359.839133 291.987532 
L 360.173022 270.116588 
L 360.506911 283.765826 
L 360.8408 273.865606 
L 361.174689 258.377037 
L 361.508578 278.418702 
L 361.842467 277.936255 
L 362.510245 302.47071 
L 362.844134 297.465319 
L 363.178023 298.379959 
L 363.511912 284.20807 
L 363.845801 307.466049 
L 364.17969 318.270859 
L 364.513579 340.141803 
L 364.847468 345.096938 
L 365.181357 325.055274 
L 365.515246 349.057026 
L 365.849135 354.062417 
L 366.183023 335.5284 
L 366.516912 336.010848 
L 367.18469 297.37486 
L 367.518579 295.897365 
L 367.852468 271.895613 
L 368.186357 268.367717 
L 368.520246 246.496773 
L 368.854135 265.03079 
L 369.188024 266.508284 
L 369.521913 262.477839 
L 369.855802 284.348783 
L 370.189691 294.610839 
L 370.52358 289.605449 
L 371.191358 266.447979 
L 371.525247 282.17777 
L 371.859136 275.142081 
L 372.526914 295.103338 
L 372.860803 290.530139 
L 373.194692 310.571804 
L 373.528581 315.577195 
L 374.530247 273.332903 
L 374.864136 286.982141 
L 375.198025 294.017831 
L 375.531914 309.506399 
L 375.865803 299.606179 
L 376.199692 285.956941 
L 376.533581 296.017977 
L 376.86747 280.529409 
L 377.201359 258.839383 
L 377.535248 268.739603 
L 377.869137 258.397139 
L 378.203026 269.995976 
L 378.536915 262.960287 
L 378.870804 273.222343 
L 379.872471 242.576889 
L 380.20636 266.578641 
L 380.540249 265.101147 
L 381.541916 203.257434 
L 381.875805 207.830632 
L 382.209694 227.761736 
L 382.543583 238.1042 
L 382.877471 308.481199 
L 383.21136 286.86153 
L 383.545249 308.481199 
L 383.879138 319.286008 
L 384.213027 308.481199 
L 384.546916 286.791173 
L 384.880805 297.133637 
L 385.214694 278.59962 
L 385.548583 298.530724 
L 386.216361 256.889492 
L 386.55025 246.547028 
L 386.884139 255.301436 
L 387.551917 294.289208 
L 388.219695 276.931156 
L 388.553584 291.143249 
L 388.887473 296.14864 
L 389.221362 306.953449 
L 389.555251 311.526647 
L 390.223029 302.923004 
L 390.556918 287.434436 
L 391.224695 328.89475 
L 391.558584 332.925195 
L 391.892473 322.864159 
L 392.226362 322.050029 
L 392.560251 332.372391 
L 392.89414 333.287031 
L 393.228029 355.157975 
L 393.561918 362.193664 
L 393.895807 347.981571 
L 394.229696 324.723591 
L 394.563585 321.195695 
L 394.897474 316.190305 
L 395.231363 316.672752 
L 395.565252 317.486882 
L 395.899141 297.716594 
L 396.23303 301.24449 
L 396.566919 300.32985 
L 396.900808 299.847403 
L 397.234697 300.32985 
L 397.568586 298.852355 
L 397.902475 294.82191 
L 398.236364 310.310478 
L 398.570253 315.265614 
L 399.238031 276.468811 
L 399.571919 263.573397 
L 399.905808 265.050892 
L 400.239697 276.649729 
L 400.573586 275.172234 
L 400.907475 274.358104 
L 401.241364 293.223803 
L 401.575253 284.469395 
L 401.909142 270.297506 
L 402.243031 293.555486 
L 402.910809 319.014631 
L 403.578587 294.560584 
L 403.912476 318.562337 
L 404.246365 327.316745 
L 404.580254 311.586953 
L 404.914143 322.391763 
L 405.248032 340.925779 
L 405.91581 297.616084 
L 406.249699 294.088188 
L 406.583588 297.616084 
L 406.917477 307.516304 
L 407.251366 296.711495 
L 407.585255 318.331164 
L 407.919143 302.842596 
L 408.253032 304.320091 
L 408.586921 300.792195 
L 408.92081 286.620306 
L 409.254699 299.51572 
L 409.922477 308.119363 
L 410.256366 307.636916 
L 410.590255 284.378936 
L 410.924144 277.343247 
L 411.258033 273.312801 
L 411.591922 283.373838 
L 411.925811 284.187968 
L 412.2597 265.322268 
L 412.593589 260.74907 
L 412.927478 236.747317 
L 413.261367 235.933187 
L 413.595256 226.032967 
L 413.929145 240.204856 
L 414.263034 229.9428 
L 414.596923 208.071856 
L 415.264701 235.219567 
L 415.59859 311.365832 
L 415.932479 300.561023 
L 416.600256 298.832253 
L 416.934145 290.077845 
L 417.268034 274.589277 
L 417.935812 301.365101 
L 418.269701 306.320237 
L 418.60359 320.53233 
L 418.937479 310.189866 
L 419.271368 321.788703 
L 419.605257 321.306256 
L 419.939146 321.788703 
L 420.273035 343.47873 
L 420.606924 353.801092 
L 420.940813 338.0713 
L 421.274702 333.116164 
L 421.608591 311.426138 
L 421.94248 306.420747 
L 422.276369 307.234877 
L 422.610258 291.746308 
L 422.944147 307.234877 
L 423.278036 296.912515 
L 423.611925 292.339317 
L 424.279703 317.316015 
L 424.613591 330.211429 
L 425.281369 306.099115 
L 425.615258 311.104506 
L 425.949147 235.480893 
L 426.283036 239.008789 
L 426.616925 257.874488 
L 426.950814 258.356935 
L 427.284703 273.845504 
L 427.618592 297.847257 
L 427.952481 301.877702 
L 428.28637 280.187675 
L 428.620259 301.877702 
L 428.954148 283.343685 
L 429.288037 294.630941 
L 429.621926 317.888921 
L 429.955815 307.566559 
L 430.289704 327.497663 
L 430.623593 307.566559 
L 430.957482 304.038663 
L 431.291371 315.6375 
L 431.62526 296.771801 
L 431.959149 297.585931 
L 432.293038 293.555486 
L 432.626927 283.49445 
L 432.960815 293.816811 
L 433.294704 282.217974 
L 433.628593 266.488182 
L 433.962482 265.010688 
L 434.296371 264.196558 
L 434.964149 299.857454 
L 435.298038 294.902318 
L 435.631927 284.579956 
L 435.965816 294.640992 
L 436.299705 290.067794 
L 436.633594 309.838082 
L 436.967483 286.580102 
L 437.635261 256.879441 
L 437.96915 248.125032 
L 438.303039 262.296922 
L 438.636928 251.009665 
L 438.970817 255.04011 
L 439.304706 231.038357 
L 439.638595 254.296337 
L 439.972484 265.583594 
L 440.306373 270.53873 
L 440.640262 266.508284 
L 441.308039 230.736828 
L 441.641928 244.948921 
L 441.975817 230.736828 
L 442.309706 209.117159 
L 442.643595 213.147604 
L 443.311373 253.632972 
L 443.979151 210.443889 
L 444.31304 211.921383 
L 444.646929 216.926774 
L 444.980818 235.460791 
L 445.314707 225.118327 
L 445.648596 228.646223 
L 445.982485 223.640832 
L 446.316374 212.353576 
L 446.650263 217.358966 
L 446.984152 198.82495 
L 447.318041 188.924729 
L 447.65193 199.247091 
L 448.319708 244.376015 
L 448.653597 224.605727 
L 448.987486 244.536831 
L 449.321375 256.135668 
L 449.655263 241.963778 
L 449.989152 248.999468 
L 450.323041 297.585931 
L 450.65693 307.646967 
L 450.990819 306.832837 
L 451.324708 311.787973 
L 451.658597 312.27042 
L 451.992486 298.058327 
L 452.326375 302.088772 
L 452.660264 291.746308 
L 452.994153 254.839091 
L 453.328042 258.869536 
L 453.661931 268.930572 
L 453.99582 257.331735 
L 454.329709 235.712066 
L 454.997487 215.308565 
L 455.331376 229.480455 
L 455.665265 228.565815 
L 455.999154 238.908279 
L 456.333043 228.585917 
L 456.666932 225.058021 
L 457.000821 205.126917 
L 457.33471 225.058021 
L 457.668599 206.192322 
L 458.002487 210.76552 
L 458.336376 222.052777 
L 458.670265 200.36275 
L 459.004154 222.052777 
L 459.338043 222.535224 
L 459.671932 222.052777 
L 460.33971 242.637194 
L 460.673599 261.171211 
L 461.341377 219.369164 
L 461.675266 219.851611 
L 462.009155 239.782715 
L 462.343044 229.460353 
L 462.676933 207.770327 
L 463.010822 227.811991 
L 463.344711 232.767127 
L 463.6786 225.731437 
L 464.012489 221.158239 
L 464.680267 181.18547 
L 465.014156 203.056414 
L 465.348045 201.57892 
L 465.681934 211.901281 
L 466.015823 201.57892 
L 466.349712 345.006479 
L 466.6836 344.09184 
L 467.017489 330.442602 
L 467.351378 306.440849 
L 467.685267 306.923296 
L 468.019156 286.881632 
L 468.353045 297.143688 
L 468.686934 285.544851 
L 469.020823 284.067356 
L 469.354712 295.354612 
L 469.688601 319.356365 
L 470.02249 299.586077 
L 470.356379 246.999322 
L 470.690268 242.044186 
L 471.024157 222.002522 
L 471.358046 220.525027 
L 472.025824 180.120066 
L 472.359713 198.071126 
L 472.693602 200.784892 
L 473.027491 199.397856 
L 473.36138 196.352407 
L 474.363047 223.882056 
L 475.364713 249.572374 
L 476.032491 221.188392 
L 476.36638 222.103032 
L 476.700269 236.274921 
L 477.034158 225.932457 
L 477.368047 236.737266 
L 477.701936 256.66837 
L 478.035825 255.75373 
L 478.369714 241.581841 
L 478.703603 251.843897 
L 479.037492 241.039088 
L 479.70527 265.533339 
L 480.039159 267.010834 
L 480.373048 278.29809 
L 480.706937 274.267645 
L 481.040826 264.367425 
L 481.374715 282.901441 
L 481.708604 281.423947 
L 482.042493 276.850748 
L 482.710271 249.029621 
L 483.04416 253.984757 
L 483.378048 243.722701 
L 483.711937 253.622921 
L 484.045826 243.561885 
L 484.379715 265.251911 
L 484.713604 254.929549 
L 485.047493 233.239523 
L 485.381382 237.269968 
L 485.715271 238.747463 
L 486.04916 238.265016 
L 487.050827 206.624514 
L 487.384716 184.75357 
L 487.718605 185.236018 
L 488.052494 196.040827 
L 488.386383 191.085691 
L 488.720272 201.408053 
L 489.054161 196.402662 
L 489.38805 210.0519 
L 490.055828 189.346871 
L 490.389717 202.352845 
L 491.057495 202.352845 
L 491.391384 207.307981 
L 491.725272 218.906818 
L 492.059161 327.678581 
L 492.39305 341.327819 
L 492.726939 360.193518 
L 493.060828 186.391881 
L 493.394717 203.056414 
L 493.728606 190.321816 
L 494.730273 233.872735 
L 495.064162 257.874488 
L 495.398051 237.943384 
L 495.73194 256.809084 
L 496.065829 267.613893 
L 496.399718 260.578203 
L 496.733607 262.628604 
L 497.401385 243.149795 
L 497.735274 253.492259 
L 498.069163 254.969753 
L 498.403052 233.350084 
L 498.736941 313.235315 
L 499.07083 308.662117 
L 499.404719 301.626427 
L 499.738608 279.936401 
L 500.072496 266.648998 
L 500.406385 247.783299 
L 500.740274 236.97849 
L 501.074163 247.039526 
L 501.408052 246.225396 
L 501.741941 266.1565 
L 502.07583 246.225396 
L 502.743608 225.841998 
L 503.077497 207.307981 
L 503.411386 202.352845 
L 503.745275 205.880741 
L 504.079164 207.358236 
L 504.413053 230.616216 
L 504.746942 206.614463 
L 505.080831 217.419272 
L 505.41472 239.290216 
L 505.748609 240.104346 
L 506.416387 258.758975 
L 506.750276 257.944845 
L 507.084165 288.640554 
L 507.418054 302.812443 
L 507.751943 303.294891 
L 508.085832 298.339755 
L 508.41972 320.029781 
L 508.753609 319.547334 
L 509.087498 309.486297 
L 509.421387 314.441433 
L 509.755276 314.441433 
L 510.089165 295.575734 
L 510.423054 290.620598 
L 510.756943 270.85031 
L 511.090832 277.886 
L 511.75861 253.974706 
L 512.092499 238.486138 
L 512.426388 231.450448 
L 512.760277 221.128086 
L 513.094166 242.99903 
L 513.428055 228.786937 
L 513.761944 244.275505 
L 514.095833 254.537561 
L 514.429722 259.110759 
L 514.763611 237.49109 
L 515.0975 242.446226 
L 515.431389 253.251035 
L 515.765278 252.436905 
L 516.099167 247.481769 
L 516.433056 251.009665 
L 516.766944 261.352129 
L 517.100833 262.166259 
L 517.434722 258.638363 
L 518.1025 277.624674 
L 518.436389 263.975436 
L 518.770278 287.977189 
L 519.104167 268.206901 
L 519.771945 289.273766 
L 520.105834 309.044054 
L 520.439723 319.386518 
L 520.773612 339.317622 
L 521.44139 296.289354 
L 521.775279 272.287601 
L 522.443057 294.2088 
L 523.110835 326.914706 
L 523.444724 326.432259 
L 523.778613 337.719515 
L 524.112502 317.67785 
L 524.446391 312.67246 
L 524.78028 301.073623 
L 525.114168 281.142519 
L 525.448057 281.624966 
L 525.781946 271.36291 
L 526.115835 257.191021 
L 526.449724 252.235885 
L 526.783613 256.809084 
L 527.117502 245.521827 
L 527.78528 279.102169 
L 528.119169 268.29736 
L 528.453058 291.55534 
L 528.786947 290.077845 
L 529.120836 283.042155 
L 529.788614 274.438512 
L 530.122503 275.353151 
L 530.456392 297.224095 
L 530.790281 298.038225 
L 531.12417 322.039978 
L 531.458059 298.781998 
L 531.791948 298.781998 
L 532.125837 295.254102 
L 532.459726 300.209238 
L 532.793615 315.697806 
L 533.127504 296.832107 
L 533.461392 320.090087 
L 533.795281 321.567582 
L 534.12917 308.672168 
L 534.463059 328.442456 
L 535.130837 292.78156 
L 535.464726 292.78156 
L 535.798615 292.299113 
L 536.132504 292.299113 
L 536.466393 291.384473 
L 536.800282 295.957671 
L 537.134171 295.957671 
L 537.46806 294.480176 
L 537.801949 271.222197 
L 538.135838 290.087896 
L 538.469727 290.570343 
L 538.803616 301.8576 
L 539.137505 305.385495 
L 540.139172 254.999906 
L 540.473061 244.657442 
L 540.80695 257.552857 
L 541.474728 222.294 
L 541.808616 217.338864 
L 542.142505 195.467921 
L 542.476394 182.572506 
L 542.810283 204.44345 
L 543.144172 209.398586 
L 543.478061 232.656566 
L 543.81195 232.656566 
L 544.145839 229.12867 
L 544.479728 249.059774 
L 544.813617 227.18883 
L 545.147506 227.18883 
L 545.481395 237.089051 
L 545.815284 217.157947 
L 546.483062 238.30522 
L 547.15084 279.765534 
L 547.484729 279.283087 
L 547.818618 268.960725 
L 548.152507 247.270699 
L 548.486396 250.798594 
L 548.820285 237.149356 
L 549.154174 257.08046 
L 549.488063 257.562908 
L 550.15584 249.461813 
L 550.489729 261.06065 
L 550.823618 285.524749 
L 551.157507 285.524749 
L 551.491396 281.494303 
L 551.825285 271.171942 
L 552.159174 279.92635 
L 552.493063 278.448855 
L 552.826952 264.799617 
L 553.160841 266.277112 
L 553.49473 250.54732 
L 553.828619 228.857294 
L 554.162508 248.627582 
L 554.496397 258.949944 
L 554.830286 258.035304 
L 555.164175 256.557809 
L 555.831953 298.349806 
L 556.499731 339.970936 
L 556.83362 321.436919 
L 557.167509 311.114557 
L 557.501398 289.424531 
L 557.835287 290.238661 
L 558.169176 276.066771 
L 558.503064 256.296483 
L 558.836953 267.89532 
L 559.170842 271.925765 
L 559.504731 260.326928 
L 559.83862 278.860945 
L 560.840287 224.796696 
L 561.174176 224.796696 
L 561.508065 223.982566 
L 561.841954 218.977175 
L 562.175843 219.891815 
L 562.509732 219.891815 
L 562.843621 212.856125 
L 563.17751 193.990426 
L 563.511399 193.990426 
L 563.845288 198.945561 
L 564.513066 234.445641 
L 564.846955 221.550227 
L 565.180844 232.837484 
L 565.848622 212.795819 
L 566.182511 222.69604 
L 566.5164 244.386066 
L 566.850288 224.454962 
L 567.184177 225.269092 
L 567.518066 202.011112 
L 567.851955 213.298368 
L 568.185844 213.298368 
L 568.853622 247.652636 
L 569.187511 243.622191 
L 569.5214 221.751247 
L 569.855289 230.505655 
L 570.523067 211.851027 
L 571.190845 211.851027 
L 571.524734 216.856417 
L 571.858623 217.338864 
L 572.192512 216.424225 
L 572.526401 216.424225 
L 572.86029 227.229034 
L 573.194179 226.746587 
L 573.861957 245.401215 
L 574.529735 218.866614 
L 574.863624 230.465451 
L 575.531401 210.112206 
L 575.86529 223.761444 
L 576.199179 220.233548 
L 576.533068 206.58431 
L 576.866957 202.011112 
L 577.200846 202.011112 
L 577.534735 221.942216 
L 577.868624 210.654959 
L 578.202513 232.525903 
L 578.536402 210.906234 
L 578.870291 210.092104 
L 579.20418 210.092104 
L 579.538069 225.821896 
L 579.871958 220.816505 
L 580.205847 210.916285 
L 580.539736 211.830925 
L 580.873625 201.568869 
L 581.207514 201.568869 
L 581.541403 212.373678 
L 582.209181 212.373678 
L 582.876959 236.083952 
L 583.544737 253.462106 
L 583.878625 254.276235 
L 584.212514 277.534215 
L 584.546403 267.191751 
L 585.214181 267.191751 
L 585.54807 256.386942 
L 585.881959 256.386942 
L 586.215848 260.960141 
L 586.549737 272.247397 
L 586.883626 258.598159 
L 587.551404 215.569891 
L 587.885293 199.840099 
L 588.219182 212.735513 
L 588.553071 212.735513 
L 588.88696 226.384751 
L 589.554738 198.000769 
L 590.222516 159.203966 
L 590.556405 179.135069 
L 590.890294 179.135069 
L 591.224183 165.485831 
L 591.558072 143.614888 
L 591.891961 153.876943 
L 592.225849 153.062814 
L 592.559738 153.062814 
L 593.227516 187.085399 
L 593.561405 177.024363 
L 593.895294 181.054808 
L 594.229183 181.054808 
L 594.563072 174.019118 
L 594.896961 184.361582 
L 595.23085 208.363335 
L 595.564739 208.363335 
L 595.898628 217.117743 
L 596.232517 212.544545 
L 596.566406 212.544545 
L 596.900295 222.605581 
L 597.234184 218.575136 
L 597.568073 218.575136 
L 597.901962 231.47055 
L 598.235851 232.28468 
L 598.56974 243.089489 
L 598.903629 223.158385 
L 599.571407 201.066319 
L 599.905296 206.07171 
L 600.239185 195.729246 
L 600.573073 196.211693 
L 600.906962 200.784892 
L 601.240851 199.970762 
L 601.57474 219.901866 
L 601.908629 219.901866 
L 602.242518 198.21184 
L 602.576407 199.689334 
L 602.910296 199.689334 
L 603.244185 186.79392 
L 603.911963 186.79392 
L 604.245852 208.483946 
L 604.579741 184.482194 
L 604.91363 179.527058 
L 605.247519 190.814314 
L 605.581408 190.814314 
L 605.915297 203.709728 
L 606.249186 203.709728 
L 606.583075 208.664864 
L 606.916964 208.664864 
L 607.250853 203.709728 
L 607.584742 215.308565 
L 607.918631 210.735367 
L 608.25252 210.735367 
L 608.586409 211.549497 
L 608.920297 198.654083 
L 609.254186 209.458892 
L 609.588075 209.458892 
L 609.921964 222.354306 
L 610.255853 229.389996 
L 610.589742 218.102739 
L 610.923631 213.097349 
L 611.591409 213.097349 
L 612.593076 182.482048 
L 613.594743 182.482048 
L 614.262521 154.098065 
L 615.264188 154.098065 
L 615.598077 159.053201 
L 616.933633 159.053201 
L 617.267521 148.248392 
L 617.60141 126.558366 
L 617.935299 136.679708 
L 619.270855 136.679708 
L 619.604744 146.579928 
L 619.938633 151.153126 
L 620.272522 164.802364 
L 620.606411 151.153126 
L 620.9403 151.153126 
L 621.274189 150.238487 
L 621.608078 150.238487 
L 621.941967 151.153126 
L 623.277523 151.153126 
L 623.611412 161.475488 
L 625.280857 161.475488 
L 625.614745 165.003384 
L 625.948634 179.215477 
L 626.950301 179.215477 
L 627.28419 167.61664 
L 627.618079 149.082624 
L 628.285857 149.082624 
L 628.619746 145.554728 
L 630.956969 145.554728 
L 631.290858 131.342635 
L 631.624747 132.820129 
L 631.958636 122.919909 
L 632.960303 122.919909 
L 633.294192 124.638627 
L 633.628081 124.638627 
L 633.961969 131.674317 
L 634.295858 135.704762 
L 634.963636 135.704762 
L 635.297525 115.773658 
L 636.633081 115.773658 
L 636.96697 111.20046 
L 638.302526 111.20046 
L 638.636415 109.722965 
L 639.638082 109.722965 
L 639.971971 111.20046 
L 640.30586 116.205851 
L 641.307527 116.205851 
L 641.641416 112.175406 
L 641.975305 101.853044 
L 643.31086 101.853044 
L 643.644749 96.897908 
L 643.978638 101.853044 
L 644.312527 100.938404 
L 644.980305 100.938404 
L 645.314194 117.854212 
L 645.648083 117.854212 
L 645.981972 117.371765 
L 646.315861 117.854212 
L 646.983639 117.854212 
L 647.317528 118.768852 
L 647.985306 118.768852 
L 648.319195 117.954722 
L 648.653084 117.954722 
L 648.986973 114.949478 
L 650.322529 114.949478 
L 650.990306 132.699518 
L 651.324195 120.88961 
L 651.991973 120.88961 
L 652.325862 117.864263 
L 653.661418 117.864263 
L 653.995307 113.291065 
L 654.329196 113.291065 
L 654.663085 110.456687 
L 657.334197 110.456687 
L 657.668086 112.507088 
L 658.001975 112.507088 
L 658.335864 112.024641 
L 660.673086 112.024641 
L 661.006975 108.476643 
L 661.340864 108.476643 
L 661.674753 98.134179 
L 677.367534 98.134179 
L 677.701423 98.948309 
L 679.036979 98.948309 
L 679.370868 93.942918 
L 778.869778 93.942918 
L 779.203667 88.887273 
L 871.690909 88.887273 
L 871.690909 88.887273 
" style="fill:none;stroke:#8dd3c7;stroke-linecap:square;stroke-width:1.5;"/>
   </g>
   <g id="line2d_16">
    <path clip-path="url(#p67f8413c1e)" d="M 161.509091 206.222475 
L 330.123016 206.222475 
L 330.456905 199.769742 
L 330.790794 177.898798 
L 331.458572 156.269078 
L 331.792461 151.263687 
L 591.224183 151.263687 
L 591.558072 143.614888 
L 617.267521 143.614888 
L 617.60141 126.558366 
L 631.624747 126.558366 
L 631.958636 122.919909 
L 634.963636 122.919909 
L 635.297525 115.773658 
L 636.633081 115.773658 
L 636.96697 111.20046 
L 638.302526 111.20046 
L 638.636415 109.722965 
L 641.641416 109.722965 
L 641.975305 101.853044 
L 643.31086 101.853044 
L 643.644749 96.897908 
L 679.036979 96.897908 
L 679.370868 93.942918 
L 778.869778 93.942918 
L 779.203667 88.887273 
L 871.690909 88.887273 
L 871.690909 88.887273 
" style="fill:none;stroke:#feffb3;stroke-linecap:square;stroke-width:1.5;"/>
   </g>
   <g id="line2d_17">
    <path clip-path="url(#p67f8413c1e)" d="M 161.509091 289.625551 
L 163.846314 289.625551 
L 164.180203 304.659987 
L 166.517425 304.659987 
L 166.851314 318.532934 
L 169.188537 318.532934 
L 169.522426 331.334123 
L 171.859649 331.334123 
L 172.193538 343.146351 
L 174.53076 343.146351 
L 174.864649 354.046022 
L 177.201872 354.046022 
L 177.535761 364.103636 
L 179.872984 364.103636 
L 180.206873 373.384245 
L 182.544095 373.384245 
L 182.877984 381.947879 
L 185.215207 381.947879 
L 185.549096 389.849926 
L 187.886319 389.849926 
L 188.220208 397.141498 
L 190.55743 397.141498 
L 190.891319 403.869758 
L 193.228542 403.869758 
L 193.562431 410.078223 
L 195.899654 410.078223 
L 196.233543 415.807052 
L 198.570765 415.807052 
L 198.904654 421.093299 
L 201.241877 421.093299 
L 201.575766 425.971155 
L 203.912989 425.971155 
L 204.246878 430.47217 
L 206.584101 430.47217 
L 206.917989 434.625459 
L 209.255212 434.625459 
L 209.589101 438.457883 
L 211.926324 438.457883 
L 212.260213 441.994233 
L 214.597436 441.994233 
L 214.931325 445.257381 
L 217.268547 445.257381 
L 217.602436 448.268433 
L 219.939659 448.268433 
L 220.273548 451.046865 
L 222.610771 451.046865 
L 222.94466 453.610649 
L 225.281882 453.610649 
L 225.615771 455.976367 
L 227.952994 455.976367 
L 228.286883 458.159321 
L 230.624106 458.159321 
L 230.957995 460.17363 
L 233.295217 460.17363 
L 233.629106 462.032323 
L 235.966329 462.032323 
L 236.300218 463.747422 
L 238.637441 463.747422 
L 238.97133 465.330021 
L 241.308552 465.330021 
L 241.642441 466.790355 
L 243.979664 466.790355 
L 244.313553 468.137871 
L 246.650776 468.137871 
L 246.984665 469.381284 
L 249.321887 469.381284 
L 249.655776 470.528637 
L 251.992999 470.528637 
L 252.326888 471.58735 
L 254.664111 471.58735 
L 254.998 472.564273 
L 257.335222 472.564273 
L 257.669111 473.465723 
L 260.006334 473.465723 
L 260.340223 474.297531 
L 262.677446 474.297531 
L 263.011335 475.065078 
L 265.348558 475.065078 
L 265.682446 475.773327 
L 268.019669 475.773327 
L 268.353558 476.426861 
L 270.690781 476.426861 
L 271.02467 477.029905 
L 273.361893 477.029905 
L 273.695782 477.586362 
L 276.033004 477.586362 
L 276.366893 478.099829 
L 278.704116 478.099829 
L 279.038005 478.573628 
L 281.375228 478.573628 
L 281.709117 479.010823 
L 284.046339 479.010823 
L 284.380228 479.414243 
L 286.717451 479.414243 
L 287.05134 479.786496 
L 289.388563 479.786496 
L 289.722452 480.129991 
L 292.059674 480.129991 
L 292.393563 480.446949 
L 294.730786 480.446949 
L 295.064675 480.739421 
L 297.401898 480.739421 
L 297.735787 481.009297 
L 300.073009 481.009297 
L 300.406898 481.258324 
L 302.744121 481.258324 
L 303.07801 481.488113 
L 305.415233 481.488113 
L 305.749122 481.700149 
L 308.086344 481.700149 
L 308.420233 481.895804 
L 310.757456 481.895804 
L 311.091345 482.076344 
L 313.428568 482.076344 
L 313.762457 482.242936 
L 316.099679 482.242936 
L 316.433568 482.396658 
L 318.770791 482.396658 
L 319.10468 482.538504 
L 321.441903 482.538504 
L 321.775792 482.669392 
L 324.113014 482.669392 
L 324.446903 482.790168 
L 326.784126 482.790168 
L 327.451904 482.901613 
L 332.12635 483.004449 
L 332.794127 483.09934 
L 337.468573 483.1869 
L 338.136351 483.267696 
L 342.810796 483.342249 
L 343.478574 483.411044 
L 348.15302 483.474523 
L 348.820798 483.533098 
L 356.166355 483.637023 
L 357.168022 483.683044 
L 364.17969 483.764695 
L 365.515246 483.800853 
L 374.864136 483.893413 
L 376.533581 483.919627 
L 390.890807 484.023272 
L 393.228029 484.039454 
L 420.273035 484.146233 
L 426.616925 484.164771 
L 871.690909 484.232727 
L 871.690909 484.232727 
" style="fill:none;stroke:#bfbbd9;stroke-linecap:square;stroke-width:1.5;"/>
   </g>
   <g id="patch_3">
    <path d="M 126 504 
L 126 69.12 
" style="fill:none;stroke:#ffffff;stroke-linecap:square;stroke-linejoin:miter;stroke-width:0.8;"/>
   </g>
   <g id="patch_4">
    <path d="M 907.2 504 
L 907.2 69.12 
" style="fill:none;stroke:#ffffff;stroke-linecap:square;stroke-linejoin:miter;stroke-width:0.8;"/>
   </g>
   <g id="patch_5">
    <path d="M 126 504 
L 907.2 504 
" style="fill:none;stroke:#ffffff;stroke-linecap:square;stroke-linejoin:miter;stroke-width:0.8;"/>
   </g>
   <g id="patch_6">
    <path d="M 126 69.12 
L 907.2 69.12 
" style="fill:none;stroke:#ffffff;stroke-linecap:square;stroke-linejoin:miter;stroke-width:0.8;"/>
   </g>
   <g id="text_16">
    <!-- instance 10 with error 0.0 -->
    <g style="fill:#ffffff;" transform="translate(439.126875 63.12)scale(0.12 -0.12)">
     <defs>
      <path d="M 2834 3397 
L 2834 2853 
Q 2591 2978 2328 3040 
Q 2066 3103 1784 3103 
Q 1356 3103 1142 2972 
Q 928 2841 928 2578 
Q 928 2378 1081 2264 
Q 1234 2150 1697 2047 
L 1894 2003 
Q 2506 1872 2764 1633 
Q 3022 1394 3022 966 
Q 3022 478 2636 193 
Q 2250 -91 1575 -91 
Q 1294 -91 989 -36 
Q 684 19 347 128 
L 347 722 
Q 666 556 975 473 
Q 1284 391 1588 391 
Q 1994 391 2212 530 
Q 2431 669 2431 922 
Q 2431 1156 2273 1281 
Q 2116 1406 1581 1522 
L 1381 1569 
Q 847 1681 609 1914 
Q 372 2147 372 2553 
Q 372 3047 722 3315 
Q 1072 3584 1716 3584 
Q 2034 3584 2315 3537 
Q 2597 3491 2834 3397 
z
" id="DejaVuSans-73" transform="scale(0.015625)"/>
      <path d="M 3122 3366 
L 3122 2828 
Q 2878 2963 2633 3030 
Q 2388 3097 2138 3097 
Q 1578 3097 1268 2742 
Q 959 2388 959 1747 
Q 959 1106 1268 751 
Q 1578 397 2138 397 
Q 2388 397 2633 464 
Q 2878 531 3122 666 
L 3122 134 
Q 2881 22 2623 -34 
Q 2366 -91 2075 -91 
Q 1284 -91 818 406 
Q 353 903 353 1747 
Q 353 2603 823 3093 
Q 1294 3584 2113 3584 
Q 2378 3584 2631 3529 
Q 2884 3475 3122 3366 
z
" id="DejaVuSans-63" transform="scale(0.015625)"/>
      <path id="DejaVuSans-20" transform="scale(0.015625)"/>
      <path d="M 269 3500 
L 844 3500 
L 1563 769 
L 2278 3500 
L 2956 3500 
L 3675 769 
L 4391 3500 
L 4966 3500 
L 4050 0 
L 3372 0 
L 2619 2869 
L 1863 0 
L 1184 0 
L 269 3500 
z
" id="DejaVuSans-77" transform="scale(0.015625)"/>
      <path d="M 3513 2113 
L 3513 0 
L 2938 0 
L 2938 2094 
Q 2938 2591 2744 2837 
Q 2550 3084 2163 3084 
Q 1697 3084 1428 2787 
Q 1159 2491 1159 1978 
L 1159 0 
L 581 0 
L 581 4863 
L 1159 4863 
L 1159 2956 
Q 1366 3272 1645 3428 
Q 1925 3584 2291 3584 
Q 2894 3584 3203 3211 
Q 3513 2838 3513 2113 
z
" id="DejaVuSans-68" transform="scale(0.015625)"/>
      <path d="M 684 794 
L 1344 794 
L 1344 0 
L 684 0 
L 684 794 
z
" id="DejaVuSans-2e" transform="scale(0.015625)"/>
     </defs>
     <use xlink:href="#DejaVuSans-69"/>
     <use x="27.783203" xlink:href="#DejaVuSans-6e"/>
     <use x="91.162109" xlink:href="#DejaVuSans-73"/>
     <use x="143.261719" xlink:href="#DejaVuSans-74"/>
     <use x="182.470703" xlink:href="#DejaVuSans-61"/>
     <use x="243.75" xlink:href="#DejaVuSans-6e"/>
     <use x="307.128906" xlink:href="#DejaVuSans-63"/>
     <use x="362.109375" xlink:href="#DejaVuSans-65"/>
     <use x="423.632812" xlink:href="#DejaVuSans-20"/>
     <use x="455.419922" xlink:href="#DejaVuSans-31"/>
     <use x="519.042969" xlink:href="#DejaVuSans-30"/>
     <use x="582.666016" xlink:href="#DejaVuSans-20"/>
     <use x="614.453125" xlink:href="#DejaVuSans-77"/>
     <use x="696.240234" xlink:href="#DejaVuSans-69"/>
     <use x="724.023438" xlink:href="#DejaVuSans-74"/>
     <use x="763.232422" xlink:href="#DejaVuSans-68"/>
     <use x="826.611328" xlink:href="#DejaVuSans-20"/>
     <use x="858.398438" xlink:href="#DejaVuSans-65"/>
     <use x="919.921875" xlink:href="#DejaVuSans-72"/>
     <use x="959.285156" xlink:href="#DejaVuSans-72"/>
     <use x="998.148438" xlink:href="#DejaVuSans-6f"/>
     <use x="1059.330078" xlink:href="#DejaVuSans-72"/>
     <use x="1100.443359" xlink:href="#DejaVuSans-20"/>
     <use x="1132.230469" xlink:href="#DejaVuSans-30"/>
     <use x="1195.853516" xlink:href="#DejaVuSans-2e"/>
     <use x="1227.640625" xlink:href="#DejaVuSans-30"/>
    </g>
   </g>
   <g id="legend_1">
    <g id="patch_7">
     <path d="M 805.348438 499 
L 900.2 499 
Q 902.2 499 902.2 497 
L 902.2 453.965625 
Q 902.2 451.965625 900.2 451.965625 
L 805.348438 451.965625 
Q 803.348438 451.965625 803.348438 453.965625 
L 803.348438 497 
Q 803.348438 499 805.348438 499 
z
" style="opacity:0.8;stroke:#cccccc;stroke-linejoin:miter;"/>
    </g>
    <g id="line2d_18">
     <path d="M 807.348438 460.064062 
L 827.348438 460.064062 
" style="fill:none;stroke:#8dd3c7;stroke-linecap:square;stroke-width:1.5;"/>
    </g>
    <g id="line2d_19"/>
    <g id="text_17">
     <!-- cost -->
     <g style="fill:#ffffff;" transform="translate(835.348438 463.564062)scale(0.1 -0.1)">
      <use xlink:href="#DejaVuSans-63"/>
      <use x="54.980469" xlink:href="#DejaVuSans-6f"/>
      <use x="116.162109" xlink:href="#DejaVuSans-73"/>
      <use x="168.261719" xlink:href="#DejaVuSans-74"/>
     </g>
    </g>
    <g id="line2d_20">
     <path d="M 807.348438 474.742188 
L 827.348438 474.742188 
" style="fill:none;stroke:#feffb3;stroke-linecap:square;stroke-width:1.5;"/>
    </g>
    <g id="line2d_21"/>
    <g id="text_18">
     <!-- best cost -->
     <g style="fill:#ffffff;" transform="translate(835.348438 478.242188)scale(0.1 -0.1)">
      <defs>
       <path d="M 3116 1747 
Q 3116 2381 2855 2742 
Q 2594 3103 2138 3103 
Q 1681 3103 1420 2742 
Q 1159 2381 1159 1747 
Q 1159 1113 1420 752 
Q 1681 391 2138 391 
Q 2594 391 2855 752 
Q 3116 1113 3116 1747 
z
M 1159 2969 
Q 1341 3281 1617 3432 
Q 1894 3584 2278 3584 
Q 2916 3584 3314 3078 
Q 3713 2572 3713 1747 
Q 3713 922 3314 415 
Q 2916 -91 2278 -91 
Q 1894 -91 1617 61 
Q 1341 213 1159 525 
L 1159 0 
L 581 0 
L 581 4863 
L 1159 4863 
L 1159 2969 
z
" id="DejaVuSans-62" transform="scale(0.015625)"/>
      </defs>
      <use xlink:href="#DejaVuSans-62"/>
      <use x="63.476562" xlink:href="#DejaVuSans-65"/>
      <use x="125" xlink:href="#DejaVuSans-73"/>
      <use x="177.099609" xlink:href="#DejaVuSans-74"/>
      <use x="216.308594" xlink:href="#DejaVuSans-20"/>
      <use x="248.095703" xlink:href="#DejaVuSans-63"/>
      <use x="303.076172" xlink:href="#DejaVuSans-6f"/>
      <use x="364.257812" xlink:href="#DejaVuSans-73"/>
      <use x="416.357422" xlink:href="#DejaVuSans-74"/>
     </g>
    </g>
    <g id="line2d_22">
     <path d="M 807.348438 489.420313 
L 827.348438 489.420313 
" style="fill:none;stroke:#bfbbd9;stroke-linecap:square;stroke-width:1.5;"/>
    </g>
    <g id="line2d_23"/>
    <g id="text_19">
     <!-- temperature -->
     <g style="fill:#ffffff;" transform="translate(835.348438 492.920313)scale(0.1 -0.1)">
      <defs>
       <path d="M 3328 2828 
Q 3544 3216 3844 3400 
Q 4144 3584 4550 3584 
Q 5097 3584 5394 3201 
Q 5691 2819 5691 2113 
L 5691 0 
L 5113 0 
L 5113 2094 
Q 5113 2597 4934 2840 
Q 4756 3084 4391 3084 
Q 3944 3084 3684 2787 
Q 3425 2491 3425 1978 
L 3425 0 
L 2847 0 
L 2847 2094 
Q 2847 2600 2669 2842 
Q 2491 3084 2119 3084 
Q 1678 3084 1418 2786 
Q 1159 2488 1159 1978 
L 1159 0 
L 581 0 
L 581 3500 
L 1159 3500 
L 1159 2956 
Q 1356 3278 1631 3431 
Q 1906 3584 2284 3584 
Q 2666 3584 2933 3390 
Q 3200 3197 3328 2828 
z
" id="DejaVuSans-6d" transform="scale(0.015625)"/>
       <path d="M 1159 525 
L 1159 -1331 
L 581 -1331 
L 581 3500 
L 1159 3500 
L 1159 2969 
Q 1341 3281 1617 3432 
Q 1894 3584 2278 3584 
Q 2916 3584 3314 3078 
Q 3713 2572 3713 1747 
Q 3713 922 3314 415 
Q 2916 -91 2278 -91 
Q 1894 -91 1617 61 
Q 1341 213 1159 525 
z
M 3116 1747 
Q 3116 2381 2855 2742 
Q 2594 3103 2138 3103 
Q 1681 3103 1420 2742 
Q 1159 2381 1159 1747 
Q 1159 1113 1420 752 
Q 1681 391 2138 391 
Q 2594 391 2855 752 
Q 3116 1113 3116 1747 
z
" id="DejaVuSans-70" transform="scale(0.015625)"/>
       <path d="M 544 1381 
L 544 3500 
L 1119 3500 
L 1119 1403 
Q 1119 906 1312 657 
Q 1506 409 1894 409 
Q 2359 409 2629 706 
Q 2900 1003 2900 1516 
L 2900 3500 
L 3475 3500 
L 3475 0 
L 2900 0 
L 2900 538 
Q 2691 219 2414 64 
Q 2138 -91 1772 -91 
Q 1169 -91 856 284 
Q 544 659 544 1381 
z
M 1991 3584 
L 1991 3584 
z
" id="DejaVuSans-75" transform="scale(0.015625)"/>
      </defs>
      <use xlink:href="#DejaVuSans-74"/>
      <use x="39.208984" xlink:href="#DejaVuSans-65"/>
      <use x="100.732422" xlink:href="#DejaVuSans-6d"/>
      <use x="198.144531" xlink:href="#DejaVuSans-70"/>
      <use x="261.621094" xlink:href="#DejaVuSans-65"/>
      <use x="323.144531" xlink:href="#DejaVuSans-72"/>
      <use x="364.257812" xlink:href="#DejaVuSans-61"/>
      <use x="425.537109" xlink:href="#DejaVuSans-74"/>
      <use x="464.746094" xlink:href="#DejaVuSans-75"/>
      <use x="528.125" xlink:href="#DejaVuSans-72"/>
      <use x="566.988281" xlink:href="#DejaVuSans-65"/>
     </g>
    </g>
   </g>
  </g>
 </g>
 <defs>
  <clipPath id="p67f8413c1e">
   <rect height="434.88" width="781.2" x="126" y="69.12"/>
  </clipPath>
 </defs>
</svg>
