<?xml version="1.0" encoding="utf-8" standalone="no"?>
<!DOCTYPE svg PUBLIC "-//W3C//DTD SVG 1.1//EN"
  "http://www.w3.org/Graphics/SVG/1.1/DTD/svg11.dtd">
<svg height="576pt" version="1.1" viewBox="0 0 1008 576" width="1008pt" xmlns="http://www.w3.org/2000/svg" xmlns:xlink="http://www.w3.org/1999/xlink">
 <metadata>
  <rdf:RDF xmlns:cc="http://creativecommons.org/ns#" xmlns:dc="http://purl.org/dc/elements/1.1/" xmlns:rdf="http://www.w3.org/1999/02/22-rdf-syntax-ns#">
   <cc:Work>
    <dc:type rdf:resource="http://purl.org/dc/dcmitype/StillImage"/>
    <dc:date>2022-01-08T01:27:42.867684</dc:date>
    <dc:format>image/svg+xml</dc:format>
    <dc:creator>
     <cc:Agent>
      <dc:title>Matplotlib v3.4.3, https://matplotlib.org/</dc:title>
     </cc:Agent>
    </dc:creator>
   </cc:Work>
  </rdf:RDF>
 </metadata>
 <defs>
  <style type="text/css">*{stroke-linecap:butt;stroke-linejoin:round;}</style>
 </defs>
 <g id="figure_1">
  <g id="patch_1">
   <path d="M 0 576 
L 1008 576 
L 1008 0 
L 0 0 
z
"/>
  </g>
  <g id="axes_1">
   <g id="patch_2">
    <path d="M 126 504 
L 907.2 504 
L 907.2 69.12 
L 126 69.12 
z
"/>
   </g>
   <g id="matplotlib.axis_1">
    <g id="xtick_1">
     <g id="line2d_1">
      <defs>
       <path d="M 0 0 
L 0 3.5 
" id="mf7777443b9" style="stroke:#ffffff;stroke-width:0.8;"/>
      </defs>
      <g>
       <use style="fill:#ffffff;stroke:#ffffff;stroke-width:0.8;" x="161.509091" xlink:href="#mf7777443b9" y="504"/>
      </g>
     </g>
     <g id="text_1">
      <!-- 0 -->
      <g style="fill:#ffffff;" transform="translate(158.327841 518.598438)scale(0.1 -0.1)">
       <defs>
        <path d="M 2034 4250 
Q 1547 4250 1301 3770 
Q 1056 3291 1056 2328 
Q 1056 1369 1301 889 
Q 1547 409 2034 409 
Q 2525 409 2770 889 
Q 3016 1369 3016 2328 
Q 3016 3291 2770 3770 
Q 2525 4250 2034 4250 
z
M 2034 4750 
Q 2819 4750 3233 4129 
Q 3647 3509 3647 2328 
Q 3647 1150 3233 529 
Q 2819 -91 2034 -91 
Q 1250 -91 836 529 
Q 422 1150 422 2328 
Q 422 3509 836 4129 
Q 1250 4750 2034 4750 
z
" id="DejaVuSans-30" transform="scale(0.015625)"/>
       </defs>
       <use xlink:href="#DejaVuSans-30"/>
      </g>
     </g>
    </g>
    <g id="xtick_2">
     <g id="line2d_2">
      <g>
       <use style="fill:#ffffff;stroke:#ffffff;stroke-width:0.8;" x="263.341872" xlink:href="#mf7777443b9" y="504"/>
      </g>
     </g>
     <g id="text_2">
      <!-- 500 -->
      <g style="fill:#ffffff;" transform="translate(253.798122 518.598438)scale(0.1 -0.1)">
       <defs>
        <path d="M 691 4666 
L 3169 4666 
L 3169 4134 
L 1269 4134 
L 1269 2991 
Q 1406 3038 1543 3061 
Q 1681 3084 1819 3084 
Q 2600 3084 3056 2656 
Q 3513 2228 3513 1497 
Q 3513 744 3044 326 
Q 2575 -91 1722 -91 
Q 1428 -91 1123 -41 
Q 819 9 494 109 
L 494 744 
Q 775 591 1075 516 
Q 1375 441 1709 441 
Q 2250 441 2565 725 
Q 2881 1009 2881 1497 
Q 2881 1984 2565 2268 
Q 2250 2553 1709 2553 
Q 1456 2553 1204 2497 
Q 953 2441 691 2322 
L 691 4666 
z
" id="DejaVuSans-35" transform="scale(0.015625)"/>
       </defs>
       <use xlink:href="#DejaVuSans-35"/>
       <use x="63.623047" xlink:href="#DejaVuSans-30"/>
       <use x="127.246094" xlink:href="#DejaVuSans-30"/>
      </g>
     </g>
    </g>
    <g id="xtick_3">
     <g id="line2d_3">
      <g>
       <use style="fill:#ffffff;stroke:#ffffff;stroke-width:0.8;" x="365.174654" xlink:href="#mf7777443b9" y="504"/>
      </g>
     </g>
     <g id="text_3">
      <!-- 1000 -->
      <g style="fill:#ffffff;" transform="translate(352.449654 518.598438)scale(0.1 -0.1)">
       <defs>
        <path d="M 794 531 
L 1825 531 
L 1825 4091 
L 703 3866 
L 703 4441 
L 1819 4666 
L 2450 4666 
L 2450 531 
L 3481 531 
L 3481 0 
L 794 0 
L 794 531 
z
" id="DejaVuSans-31" transform="scale(0.015625)"/>
       </defs>
       <use xlink:href="#DejaVuSans-31"/>
       <use x="63.623047" xlink:href="#DejaVuSans-30"/>
       <use x="127.246094" xlink:href="#DejaVuSans-30"/>
       <use x="190.869141" xlink:href="#DejaVuSans-30"/>
      </g>
     </g>
    </g>
    <g id="xtick_4">
     <g id="line2d_4">
      <g>
       <use style="fill:#ffffff;stroke:#ffffff;stroke-width:0.8;" x="467.007435" xlink:href="#mf7777443b9" y="504"/>
      </g>
     </g>
     <g id="text_4">
      <!-- 1500 -->
      <g style="fill:#ffffff;" transform="translate(454.282435 518.598438)scale(0.1 -0.1)">
       <use xlink:href="#DejaVuSans-31"/>
       <use x="63.623047" xlink:href="#DejaVuSans-35"/>
       <use x="127.246094" xlink:href="#DejaVuSans-30"/>
       <use x="190.869141" xlink:href="#DejaVuSans-30"/>
      </g>
     </g>
    </g>
    <g id="xtick_5">
     <g id="line2d_5">
      <g>
       <use style="fill:#ffffff;stroke:#ffffff;stroke-width:0.8;" x="568.840217" xlink:href="#mf7777443b9" y="504"/>
      </g>
     </g>
     <g id="text_5">
      <!-- 2000 -->
      <g style="fill:#ffffff;" transform="translate(556.115217 518.598438)scale(0.1 -0.1)">
       <defs>
        <path d="M 1228 531 
L 3431 531 
L 3431 0 
L 469 0 
L 469 531 
Q 828 903 1448 1529 
Q 2069 2156 2228 2338 
Q 2531 2678 2651 2914 
Q 2772 3150 2772 3378 
Q 2772 3750 2511 3984 
Q 2250 4219 1831 4219 
Q 1534 4219 1204 4116 
Q 875 4013 500 3803 
L 500 4441 
Q 881 4594 1212 4672 
Q 1544 4750 1819 4750 
Q 2544 4750 2975 4387 
Q 3406 4025 3406 3419 
Q 3406 3131 3298 2873 
Q 3191 2616 2906 2266 
Q 2828 2175 2409 1742 
Q 1991 1309 1228 531 
z
" id="DejaVuSans-32" transform="scale(0.015625)"/>
       </defs>
       <use xlink:href="#DejaVuSans-32"/>
       <use x="63.623047" xlink:href="#DejaVuSans-30"/>
       <use x="127.246094" xlink:href="#DejaVuSans-30"/>
       <use x="190.869141" xlink:href="#DejaVuSans-30"/>
      </g>
     </g>
    </g>
    <g id="xtick_6">
     <g id="line2d_6">
      <g>
       <use style="fill:#ffffff;stroke:#ffffff;stroke-width:0.8;" x="670.672998" xlink:href="#mf7777443b9" y="504"/>
      </g>
     </g>
     <g id="text_6">
      <!-- 2500 -->
      <g style="fill:#ffffff;" transform="translate(657.947998 518.598438)scale(0.1 -0.1)">
       <use xlink:href="#DejaVuSans-32"/>
       <use x="63.623047" xlink:href="#DejaVuSans-35"/>
       <use x="127.246094" xlink:href="#DejaVuSans-30"/>
       <use x="190.869141" xlink:href="#DejaVuSans-30"/>
      </g>
     </g>
    </g>
    <g id="xtick_7">
     <g id="line2d_7">
      <g>
       <use style="fill:#ffffff;stroke:#ffffff;stroke-width:0.8;" x="772.50578" xlink:href="#mf7777443b9" y="504"/>
      </g>
     </g>
     <g id="text_7">
      <!-- 3000 -->
      <g style="fill:#ffffff;" transform="translate(759.78078 518.598438)scale(0.1 -0.1)">
       <defs>
        <path d="M 2597 2516 
Q 3050 2419 3304 2112 
Q 3559 1806 3559 1356 
Q 3559 666 3084 287 
Q 2609 -91 1734 -91 
Q 1441 -91 1130 -33 
Q 819 25 488 141 
L 488 750 
Q 750 597 1062 519 
Q 1375 441 1716 441 
Q 2309 441 2620 675 
Q 2931 909 2931 1356 
Q 2931 1769 2642 2001 
Q 2353 2234 1838 2234 
L 1294 2234 
L 1294 2753 
L 1863 2753 
Q 2328 2753 2575 2939 
Q 2822 3125 2822 3475 
Q 2822 3834 2567 4026 
Q 2313 4219 1838 4219 
Q 1578 4219 1281 4162 
Q 984 4106 628 3988 
L 628 4550 
Q 988 4650 1302 4700 
Q 1616 4750 1894 4750 
Q 2613 4750 3031 4423 
Q 3450 4097 3450 3541 
Q 3450 3153 3228 2886 
Q 3006 2619 2597 2516 
z
" id="DejaVuSans-33" transform="scale(0.015625)"/>
       </defs>
       <use xlink:href="#DejaVuSans-33"/>
       <use x="63.623047" xlink:href="#DejaVuSans-30"/>
       <use x="127.246094" xlink:href="#DejaVuSans-30"/>
       <use x="190.869141" xlink:href="#DejaVuSans-30"/>
      </g>
     </g>
    </g>
    <g id="xtick_8">
     <g id="line2d_8">
      <g>
       <use style="fill:#ffffff;stroke:#ffffff;stroke-width:0.8;" x="874.338561" xlink:href="#mf7777443b9" y="504"/>
      </g>
     </g>
     <g id="text_8">
      <!-- 3500 -->
      <g style="fill:#ffffff;" transform="translate(861.613561 518.598438)scale(0.1 -0.1)">
       <use xlink:href="#DejaVuSans-33"/>
       <use x="63.623047" xlink:href="#DejaVuSans-35"/>
       <use x="127.246094" xlink:href="#DejaVuSans-30"/>
       <use x="190.869141" xlink:href="#DejaVuSans-30"/>
      </g>
     </g>
    </g>
    <g id="text_9">
     <!-- iteration -->
     <g style="fill:#ffffff;" transform="translate(495.477344 532.276562)scale(0.1 -0.1)">
      <defs>
       <path d="M 603 3500 
L 1178 3500 
L 1178 0 
L 603 0 
L 603 3500 
z
M 603 4863 
L 1178 4863 
L 1178 4134 
L 603 4134 
L 603 4863 
z
" id="DejaVuSans-69" transform="scale(0.015625)"/>
       <path d="M 1172 4494 
L 1172 3500 
L 2356 3500 
L 2356 3053 
L 1172 3053 
L 1172 1153 
Q 1172 725 1289 603 
Q 1406 481 1766 481 
L 2356 481 
L 2356 0 
L 1766 0 
Q 1100 0 847 248 
Q 594 497 594 1153 
L 594 3053 
L 172 3053 
L 172 3500 
L 594 3500 
L 594 4494 
L 1172 4494 
z
" id="DejaVuSans-74" transform="scale(0.015625)"/>
       <path d="M 3597 1894 
L 3597 1613 
L 953 1613 
Q 991 1019 1311 708 
Q 1631 397 2203 397 
Q 2534 397 2845 478 
Q 3156 559 3463 722 
L 3463 178 
Q 3153 47 2828 -22 
Q 2503 -91 2169 -91 
Q 1331 -91 842 396 
Q 353 884 353 1716 
Q 353 2575 817 3079 
Q 1281 3584 2069 3584 
Q 2775 3584 3186 3129 
Q 3597 2675 3597 1894 
z
M 3022 2063 
Q 3016 2534 2758 2815 
Q 2500 3097 2075 3097 
Q 1594 3097 1305 2825 
Q 1016 2553 972 2059 
L 3022 2063 
z
" id="DejaVuSans-65" transform="scale(0.015625)"/>
       <path d="M 2631 2963 
Q 2534 3019 2420 3045 
Q 2306 3072 2169 3072 
Q 1681 3072 1420 2755 
Q 1159 2438 1159 1844 
L 1159 0 
L 581 0 
L 581 3500 
L 1159 3500 
L 1159 2956 
Q 1341 3275 1631 3429 
Q 1922 3584 2338 3584 
Q 2397 3584 2469 3576 
Q 2541 3569 2628 3553 
L 2631 2963 
z
" id="DejaVuSans-72" transform="scale(0.015625)"/>
       <path d="M 2194 1759 
Q 1497 1759 1228 1600 
Q 959 1441 959 1056 
Q 959 750 1161 570 
Q 1363 391 1709 391 
Q 2188 391 2477 730 
Q 2766 1069 2766 1631 
L 2766 1759 
L 2194 1759 
z
M 3341 1997 
L 3341 0 
L 2766 0 
L 2766 531 
Q 2569 213 2275 61 
Q 1981 -91 1556 -91 
Q 1019 -91 701 211 
Q 384 513 384 1019 
Q 384 1609 779 1909 
Q 1175 2209 1959 2209 
L 2766 2209 
L 2766 2266 
Q 2766 2663 2505 2880 
Q 2244 3097 1772 3097 
Q 1472 3097 1187 3025 
Q 903 2953 641 2809 
L 641 3341 
Q 956 3463 1253 3523 
Q 1550 3584 1831 3584 
Q 2591 3584 2966 3190 
Q 3341 2797 3341 1997 
z
" id="DejaVuSans-61" transform="scale(0.015625)"/>
       <path d="M 1959 3097 
Q 1497 3097 1228 2736 
Q 959 2375 959 1747 
Q 959 1119 1226 758 
Q 1494 397 1959 397 
Q 2419 397 2687 759 
Q 2956 1122 2956 1747 
Q 2956 2369 2687 2733 
Q 2419 3097 1959 3097 
z
M 1959 3584 
Q 2709 3584 3137 3096 
Q 3566 2609 3566 1747 
Q 3566 888 3137 398 
Q 2709 -91 1959 -91 
Q 1206 -91 779 398 
Q 353 888 353 1747 
Q 353 2609 779 3096 
Q 1206 3584 1959 3584 
z
" id="DejaVuSans-6f" transform="scale(0.015625)"/>
       <path d="M 3513 2113 
L 3513 0 
L 2938 0 
L 2938 2094 
Q 2938 2591 2744 2837 
Q 2550 3084 2163 3084 
Q 1697 3084 1428 2787 
Q 1159 2491 1159 1978 
L 1159 0 
L 581 0 
L 581 3500 
L 1159 3500 
L 1159 2956 
Q 1366 3272 1645 3428 
Q 1925 3584 2291 3584 
Q 2894 3584 3203 3211 
Q 3513 2838 3513 2113 
z
" id="DejaVuSans-6e" transform="scale(0.015625)"/>
      </defs>
      <use xlink:href="#DejaVuSans-69"/>
      <use x="27.783203" xlink:href="#DejaVuSans-74"/>
      <use x="66.992188" xlink:href="#DejaVuSans-65"/>
      <use x="128.515625" xlink:href="#DejaVuSans-72"/>
      <use x="169.628906" xlink:href="#DejaVuSans-61"/>
      <use x="230.908203" xlink:href="#DejaVuSans-74"/>
      <use x="270.117188" xlink:href="#DejaVuSans-69"/>
      <use x="297.900391" xlink:href="#DejaVuSans-6f"/>
      <use x="359.082031" xlink:href="#DejaVuSans-6e"/>
     </g>
    </g>
   </g>
   <g id="matplotlib.axis_2">
    <g id="ytick_1">
     <g id="line2d_9">
      <defs>
       <path d="M 0 0 
L -3.5 0 
" id="me5d43c2e07" style="stroke:#ffffff;stroke-width:0.8;"/>
      </defs>
      <g>
       <use style="fill:#ffffff;stroke:#ffffff;stroke-width:0.8;" x="126" xlink:href="#me5d43c2e07" y="484.232727"/>
      </g>
     </g>
     <g id="text_10">
      <!-- 0 -->
      <g style="fill:#ffffff;" transform="translate(112.6375 488.031946)scale(0.1 -0.1)">
       <use xlink:href="#DejaVuSans-30"/>
      </g>
     </g>
    </g>
    <g id="ytick_2">
     <g id="line2d_10">
      <g>
       <use style="fill:#ffffff;stroke:#ffffff;stroke-width:0.8;" x="126" xlink:href="#me5d43c2e07" y="415.800709"/>
      </g>
     </g>
     <g id="text_11">
      <!-- 5000 -->
      <g style="fill:#ffffff;" transform="translate(93.55 419.599928)scale(0.1 -0.1)">
       <use xlink:href="#DejaVuSans-35"/>
       <use x="63.623047" xlink:href="#DejaVuSans-30"/>
       <use x="127.246094" xlink:href="#DejaVuSans-30"/>
       <use x="190.869141" xlink:href="#DejaVuSans-30"/>
      </g>
     </g>
    </g>
    <g id="ytick_3">
     <g id="line2d_11">
      <g>
       <use style="fill:#ffffff;stroke:#ffffff;stroke-width:0.8;" x="126" xlink:href="#me5d43c2e07" y="347.368691"/>
      </g>
     </g>
     <g id="text_12">
      <!-- 10000 -->
      <g style="fill:#ffffff;" transform="translate(87.1875 351.16791)scale(0.1 -0.1)">
       <use xlink:href="#DejaVuSans-31"/>
       <use x="63.623047" xlink:href="#DejaVuSans-30"/>
       <use x="127.246094" xlink:href="#DejaVuSans-30"/>
       <use x="190.869141" xlink:href="#DejaVuSans-30"/>
       <use x="254.492188" xlink:href="#DejaVuSans-30"/>
      </g>
     </g>
    </g>
    <g id="ytick_4">
     <g id="line2d_12">
      <g>
       <use style="fill:#ffffff;stroke:#ffffff;stroke-width:0.8;" x="126" xlink:href="#me5d43c2e07" y="278.936673"/>
      </g>
     </g>
     <g id="text_13">
      <!-- 15000 -->
      <g style="fill:#ffffff;" transform="translate(87.1875 282.735892)scale(0.1 -0.1)">
       <use xlink:href="#DejaVuSans-31"/>
       <use x="63.623047" xlink:href="#DejaVuSans-35"/>
       <use x="127.246094" xlink:href="#DejaVuSans-30"/>
       <use x="190.869141" xlink:href="#DejaVuSans-30"/>
       <use x="254.492188" xlink:href="#DejaVuSans-30"/>
      </g>
     </g>
    </g>
    <g id="ytick_5">
     <g id="line2d_13">
      <g>
       <use style="fill:#ffffff;stroke:#ffffff;stroke-width:0.8;" x="126" xlink:href="#me5d43c2e07" y="210.504655"/>
      </g>
     </g>
     <g id="text_14">
      <!-- 20000 -->
      <g style="fill:#ffffff;" transform="translate(87.1875 214.303874)scale(0.1 -0.1)">
       <use xlink:href="#DejaVuSans-32"/>
       <use x="63.623047" xlink:href="#DejaVuSans-30"/>
       <use x="127.246094" xlink:href="#DejaVuSans-30"/>
       <use x="190.869141" xlink:href="#DejaVuSans-30"/>
       <use x="254.492188" xlink:href="#DejaVuSans-30"/>
      </g>
     </g>
    </g>
    <g id="ytick_6">
     <g id="line2d_14">
      <g>
       <use style="fill:#ffffff;stroke:#ffffff;stroke-width:0.8;" x="126" xlink:href="#me5d43c2e07" y="142.072637"/>
      </g>
     </g>
     <g id="text_15">
      <!-- 25000 -->
      <g style="fill:#ffffff;" transform="translate(87.1875 145.871856)scale(0.1 -0.1)">
       <use xlink:href="#DejaVuSans-32"/>
       <use x="63.623047" xlink:href="#DejaVuSans-35"/>
       <use x="127.246094" xlink:href="#DejaVuSans-30"/>
       <use x="190.869141" xlink:href="#DejaVuSans-30"/>
       <use x="254.492188" xlink:href="#DejaVuSans-30"/>
      </g>
     </g>
    </g>
    <g id="ytick_7">
     <g id="line2d_15">
      <g>
       <use style="fill:#ffffff;stroke:#ffffff;stroke-width:0.8;" x="126" xlink:href="#me5d43c2e07" y="73.640619"/>
      </g>
     </g>
     <g id="text_16">
      <!-- 30000 -->
      <g style="fill:#ffffff;" transform="translate(87.1875 77.439838)scale(0.1 -0.1)">
       <use xlink:href="#DejaVuSans-33"/>
       <use x="63.623047" xlink:href="#DejaVuSans-30"/>
       <use x="127.246094" xlink:href="#DejaVuSans-30"/>
       <use x="190.869141" xlink:href="#DejaVuSans-30"/>
       <use x="254.492188" xlink:href="#DejaVuSans-30"/>
      </g>
     </g>
    </g>
   </g>
   <g id="line2d_16">
    <path clip-path="url(#p76ebf1a52b)" d="M 161.509091 229.85723 
L 161.712756 250.770055 
L 161.916422 251.399629 
L 162.323753 320.187494 
L 162.527419 300.547505 
L 162.731084 267.754882 
L 162.93475 339.430577 
L 163.138415 336.515373 
L 163.342081 341.456165 
L 163.545747 324.498711 
L 163.749412 293.581125 
L 163.953078 319.831647 
L 164.156743 321.145542 
L 164.564074 280.537982 
L 164.76774 303.558513 
L 164.971405 313.96018 
L 165.175071 337.801895 
L 165.378737 322.78791 
L 165.582402 352.788507 
L 165.989733 294.908706 
L 166.193399 297.48175 
L 166.397064 286.601059 
L 166.60073 288.339233 
L 167.008061 347.300259 
L 167.211727 333.189577 
L 167.619058 270.80695 
L 167.822723 300.396954 
L 168.026389 275.651936 
L 168.43372 302.874193 
L 168.637386 290.02266 
L 168.841051 314.767678 
L 169.044717 312.194634 
L 169.248382 314.767678 
L 169.452048 284.110134 
L 169.655713 311.989338 
L 169.859379 304.023851 
L 170.063045 305.748338 
L 170.26671 273.776899 
L 170.470376 276.158333 
L 170.674041 287.039024 
L 171.081372 248.498112 
L 171.285038 246.116677 
L 171.488703 239.273476 
L 171.692369 239.273476 
L 171.896035 276.418375 
L 172.0997 268.220219 
L 172.507031 305.406178 
L 172.914362 269.027717 
L 173.118028 293.33477 
L 173.321694 260.542147 
L 173.525359 265.496625 
L 173.729025 250.48264 
L 174.340021 310.018496 
L 174.747353 363.874494 
L 174.951018 372.784343 
L 175.358349 360.836112 
L 175.562015 366.598088 
L 175.969346 327.496033 
L 176.173011 336.570119 
L 176.580343 395.613264 
L 176.784008 385.663249 
L 176.987674 416.320793 
L 177.191339 410.558817 
L 177.395005 398.295799 
L 177.59867 370.416595 
L 177.802336 370.416595 
L 178.209667 323.089011 
L 178.413333 316.24581 
L 178.616998 316.341614 
L 178.820664 313.76857 
L 179.024329 298.275562 
L 179.227995 291.43236 
L 179.43166 315.274075 
L 179.635326 284.616531 
L 179.838992 308.923584 
L 180.042657 276.952145 
L 180.246323 301.82034 
L 180.449988 302.176187 
L 180.653654 281.824504 
L 180.857319 312.482049 
L 181.060985 281.824504 
L 181.264651 275.501386 
L 181.468316 307.472825 
L 181.875647 267.713822 
L 182.079313 272.846224 
L 182.282978 244.967019 
L 182.486644 273.229443 
L 182.690309 326.702222 
L 182.893975 315.71204 
L 183.097641 315.71204 
L 183.301306 342.38684 
L 183.504972 311.469255 
L 183.708637 298.289248 
L 183.912303 298.289248 
L 184.115968 311.469255 
L 184.5233 291.77452 
L 184.726965 263.895316 
L 184.930631 283.09734 
L 185.134296 268.986658 
L 185.337962 279.224088 
L 185.541627 279.224088 
L 185.745293 293.156847 
L 186.152624 233.689423 
L 186.559955 203.415098 
L 186.763621 177.287754 
L 187.170952 245.856636 
L 187.578283 303.175294 
L 187.781949 272.257708 
L 187.985614 272.353513 
L 188.392945 243.406769 
L 188.596611 270.08157 
L 188.800276 257.230037 
L 189.003942 281.53709 
L 189.207607 282.864671 
L 189.614939 342.879551 
L 189.818604 315.000347 
L 190.02227 303.147921 
L 190.225935 276.473121 
L 190.429601 303.147921 
L 190.633266 305.679906 
L 190.836932 325.94947 
L 191.651594 221.535897 
L 191.85526 204.20891 
L 192.058925 219.222894 
L 192.262591 188.56535 
L 192.466256 201.416883 
L 192.669922 224.943811 
L 192.873588 196.914056 
L 193.077253 227.571601 
L 193.280919 197.981596 
L 193.484584 227.379991 
L 193.68825 220.536789 
L 193.891915 192.274366 
L 194.095581 215.294896 
L 194.299247 224.533219 
L 194.502912 250.783741 
L 194.706578 228.611767 
L 194.910243 230.911083 
L 195.113909 251.262765 
L 195.317574 223.233011 
L 195.52124 237.754285 
L 195.724905 223.643603 
L 196.132237 300.301149 
L 196.335902 272.271395 
L 196.539568 269.137208 
L 196.946899 324.019687 
L 197.150564 334.900378 
L 197.35423 322.048845 
L 197.761561 277.444855 
L 197.965227 297.796537 
L 198.168892 274.26961 
L 198.372558 296.072051 
L 198.576223 292.691509 
L 198.779889 268.972971 
L 198.983555 311.989338 
L 199.18722 298.056579 
L 199.390886 270.026825 
L 199.594551 268.52132 
L 199.798217 270.150002 
L 200.001882 284.082761 
L 200.205548 289.215162 
L 200.409213 317.244917 
L 200.612879 289.967915 
L 200.816545 288.243428 
L 201.02021 293.307397 
L 201.427541 350.174404 
L 201.631207 325.429386 
L 201.834872 345.425222 
L 202.038538 345.781068 
L 202.445869 297.632301 
L 202.8532 334.407667 
L 203.056866 371.757863 
L 203.260531 341.100318 
L 203.464197 346.739117 
L 203.667862 327.892939 
L 203.871528 338.77363 
L 204.075194 308.116086 
L 204.278859 308.116086 
L 204.482525 281.441285 
L 204.68619 286.573686 
L 204.889856 299.753693 
L 205.093521 291.788206 
L 205.297187 320.433849 
L 205.500853 326.496926 
L 205.704518 338.04825 
L 206.315515 297.043785 
L 206.51918 321.432956 
L 207.130177 249.784634 
L 207.333843 254.917035 
L 207.741174 237.548989 
L 208.555836 299.055687 
L 208.963167 244.05003 
L 209.166833 241.476987 
L 209.370498 248.320188 
L 209.574164 215.527565 
L 209.777829 357.30502 
L 209.981495 343.372261 
L 210.18516 389.687051 
L 210.388826 389.687051 
L 210.592492 410.038733 
L 210.796157 404.906332 
L 210.999823 381.379404 
L 211.203488 381.475209 
L 211.610819 402.305915 
L 211.814485 395.462714 
L 212.018151 364.80517 
L 212.221816 388.332097 
L 212.425482 358.331501 
L 212.629147 356.607014 
L 212.832813 346.082169 
L 213.036478 315.164584 
L 213.240144 322.007785 
L 213.443809 315.164584 
L 213.851141 331.054498 
L 214.054806 330.698652 
L 214.258472 341.004514 
L 214.462137 344.33031 
L 214.665803 360.589757 
L 214.869468 352.679016 
L 215.073134 325.402014 
L 215.2768 316.232123 
L 215.480465 283.795347 
L 215.684131 285.725129 
L 215.887796 271.614447 
L 216.091462 281.496031 
L 216.295127 274.652829 
L 216.498793 251.125901 
L 216.906124 286.75161 
L 217.10979 279.032478 
L 217.313455 311.825101 
L 217.517121 279.032478 
L 217.924452 349.188983 
L 218.128117 321.159228 
L 218.331783 314.918228 
L 218.535449 314.890856 
L 218.739114 321.131856 
L 218.94278 296.126796 
L 219.146445 297.851283 
L 219.553776 256.03932 
L 219.757442 266.112513 
L 220.572104 376.657595 
L 220.77577 363.806062 
L 220.979435 358.044086 
L 221.183101 358.044086 
L 221.386766 380.161314 
L 221.997763 335.967917 
L 222.201429 308.088713 
L 222.405094 308.088713 
L 222.60876 316.0542 
L 222.812425 316.0542 
L 223.016091 319.489487 
L 223.219756 344.918825 
L 223.423422 343.358575 
L 223.627088 372.94858 
L 223.830753 344.918825 
L 224.034419 366.762325 
L 224.238084 352.651643 
L 224.44175 283.685855 
L 224.645415 341.825698 
L 224.849081 309.033075 
L 225.052747 294.306505 
L 225.256412 295.620399 
L 225.460078 304.530248 
L 225.663743 277.855447 
L 225.867409 274.803379 
L 226.071074 288.914061 
L 226.27474 282.07086 
L 226.682071 261.25384 
L 226.885737 233.374636 
L 227.089402 232.29341 
L 227.293068 212.680793 
L 227.700399 336.967025 
L 227.904064 336.967025 
L 228.10773 310.292224 
L 228.311396 366.830757 
L 228.515061 372.592733 
L 228.922392 327.003323 
L 229.126058 354.964645 
L 229.329723 337.582913 
L 229.533389 352.254737 
L 229.737055 344.28925 
L 229.94072 374.946795 
L 230.144386 350.639742 
L 230.348051 345.50734 
L 230.755382 283.124713 
L 230.959048 291.0902 
L 231.162713 290.967022 
L 231.366379 296.099423 
L 231.570045 272.572496 
L 231.977376 300.328522 
L 232.181041 332.299961 
L 232.384707 345.151494 
L 232.588372 369.896512 
L 232.792038 369.800707 
L 232.995704 354.786722 
L 233.199369 381.037244 
L 233.6067 336.460628 
L 233.810366 363.436529 
L 234.217697 306.336853 
L 234.421362 320.20118 
L 234.625028 320.20118 
L 234.828694 307.021173 
L 235.032359 323.116384 
L 235.236025 353.116981 
L 235.643356 301.32763 
L 235.847021 303.900673 
L 236.050687 327.427601 
L 236.254353 297.837597 
L 236.458018 292.705195 
L 236.661684 322.2952 
L 236.865349 322.172022 
L 237.476346 276.445748 
L 237.680011 301.190766 
L 237.883677 312.071456 
L 238.087343 285.396656 
L 238.291008 279.63468 
L 238.494674 252.357677 
L 238.698339 253.438903 
L 238.902005 223.848899 
L 239.309336 264.114298 
L 239.513002 233.196712 
L 239.716667 220.345179 
L 240.327664 321.255033 
L 240.734995 310.853366 
L 241.142326 350.626055 
L 241.345992 350.530251 
L 241.549657 348.313053 
L 241.753323 362.984878 
L 241.956988 356.141676 
L 242.160654 366.091691 
L 242.364319 360.95929 
L 242.567985 330.041704 
L 242.771651 340.922395 
L 243.178982 279.867349 
L 243.382647 308.129772 
L 243.789978 267.070561 
L 244.197309 253.343099 
L 244.400975 255.792965 
L 244.604641 288.585588 
L 244.808306 285.861993 
L 245.011972 316.779579 
L 245.215637 306.829564 
L 245.419303 312.167261 
L 245.622968 281.249675 
L 245.826634 287.011651 
L 246.0303 260.761129 
L 246.437631 317.012248 
L 246.641296 293.48532 
L 246.844962 293.608498 
L 247.048627 265.578743 
L 247.252293 254.698052 
L 247.455958 285.615638 
L 247.86329 226.435629 
L 248.066955 257.353215 
L 248.270621 320.447535 
L 248.474286 348.47729 
L 248.677952 339.006299 
L 248.881617 361.506746 
L 249.085283 337.979818 
L 249.492614 331.246108 
L 249.899945 360.08336 
L 250.510942 287.654912 
L 250.714608 281.591836 
L 250.918273 284.342803 
L 251.121939 292.007189 
L 251.325604 265.332388 
L 251.732935 316.601656 
L 251.936601 311.469255 
L 252.343932 268.37077 
L 252.751263 293.416888 
L 252.954929 288.284487 
L 253.36226 260.829561 
L 253.565925 261.541254 
L 253.973257 302.600465 
L 254.176922 302.50466 
L 254.380588 298.111325 
L 254.584253 322.856342 
L 254.991584 265.318702 
L 255.19525 275.268717 
L 255.398915 244.351131 
L 255.806247 308.06134 
L 256.009912 361.191959 
L 256.417243 311.784042 
L 256.620909 297.919715 
L 256.824574 311.852474 
L 257.02824 311.729296 
L 257.231906 304.502875 
L 257.435571 281.099125 
L 257.639237 304.626053 
L 257.842902 304.530248 
L 258.250233 283.206831 
L 258.453899 340.703413 
L 258.86123 297.098531 
L 259.064896 317.354408 
L 259.675892 229.528756 
L 259.879558 256.805759 
L 260.286889 240.012541 
L 260.490555 327.701329 
L 260.69422 306.747445 
L 261.101551 320.967619 
L 261.508882 311.072349 
L 261.916213 258.147026 
L 262.119879 265.975649 
L 262.323545 245.623967 
L 262.52721 245.774517 
L 262.730876 273.653721 
L 262.934541 273.749526 
L 263.138207 263.799511 
L 263.341872 273.749526 
L 263.545538 249.442473 
L 263.749204 238.561783 
L 263.952869 267.344289 
L 264.156535 267.344289 
L 264.3602 236.426704 
L 264.563866 241.12114 
L 264.767531 273.653721 
L 264.971197 265.74298 
L 265.174862 278.991419 
L 265.378528 311.784042 
L 265.582194 283.521618 
L 265.785859 314.439204 
L 265.989525 328.330904 
L 266.19319 306.15893 
L 266.396856 316.108945 
L 266.600521 289.133044 
L 267.007853 312.659972 
L 267.211518 307.52757 
L 267.415184 321.118169 
L 267.618849 348.094071 
L 267.822515 321.255033 
L 268.02618 319.024149 
L 268.229846 313.891748 
L 268.637177 288.065504 
L 268.840843 260.1863 
L 269.044508 265.482939 
L 269.248174 291.637656 
L 269.451839 284.794454 
L 269.655505 312.071456 
L 269.85917 311.975652 
L 270.062836 309.361548 
L 270.470167 363.258606 
L 270.673833 364.983093 
L 270.877498 359.221117 
L 271.081164 345.288358 
L 271.284829 359.960183 
L 271.488495 365.722159 
L 271.895826 311.222899 
L 272.099492 311.318704 
L 272.303157 310.962858 
L 272.506823 324.895617 
L 272.710488 294.89502 
L 272.914154 307.856044 
L 273.117819 312.988445 
L 273.321485 326.168452 
L 273.525151 318.202965 
L 273.728816 291.952443 
L 273.932482 302.833134 
L 274.339813 268.548693 
L 274.543478 322.651046 
L 274.747144 338.801003 
L 274.95081 312.126202 
L 275.154475 350.3797 
L 275.358141 295.209807 
L 275.561806 294.197013 
L 275.765472 289.064612 
L 275.969137 289.201476 
L 276.172803 275.090794 
L 276.376468 269.958392 
L 276.580134 277.88282 
L 276.7838 275.569818 
L 276.987465 313.508529 
L 277.191131 319.270505 
L 277.394796 319.1747 
L 277.598462 305.064018 
L 277.802127 318.463007 
L 278.005793 348.463604 
L 278.209459 321.487702 
L 278.413124 353.459141 
L 278.61679 345.493654 
L 278.820455 314.576068 
L 279.024121 338.417783 
L 279.227786 335.844739 
L 279.431452 306.254735 
L 279.635117 306.254735 
L 279.838783 309.512099 
L 280.042449 294.498114 
L 280.246114 306.706386 
L 280.44978 275.7888 
L 280.857111 327.208619 
L 281.060776 313.27586 
L 281.264442 328.289845 
L 281.468108 320.324358 
L 281.671773 333.175891 
L 282.079104 309.443667 
L 282.28277 333.271696 
L 282.486435 392.971788 
L 282.690101 405.919126 
L 282.893766 405.919126 
L 283.097432 392.739119 
L 283.301098 392.711746 
L 283.504763 379.860213 
L 283.708429 393.04022 
L 283.912094 368.733167 
L 284.11576 393.04022 
L 284.319425 362.122634 
L 284.523091 362.752209 
L 284.726757 352.802194 
L 284.930422 366.734952 
L 285.134088 368.459439 
L 285.337753 341.784639 
L 285.541419 372.702224 
L 285.745084 344.82302 
L 285.94875 344.467174 
L 286.152415 371.141974 
L 286.356081 371.265152 
L 286.763412 321.323465 
L 286.967078 342.140485 
L 287.170743 324.813498 
L 287.578074 315.219329 
L 287.985406 348.217248 
L 288.189071 320.338044 
L 288.392737 349.928049 
L 288.596402 336.748042 
L 289.003733 283.63111 
L 289.207399 279.648366 
L 289.411064 293.759048 
L 289.61473 298.89145 
L 289.818396 298.535603 
L 290.022061 272.640928 
L 290.225727 298.89145 
L 290.429392 268.890853 
L 290.836723 300.150599 
L 291.040389 285.136614 
L 291.244055 286.874787 
L 291.44772 296.756371 
L 291.651386 333.340128 
L 291.855051 326.524299 
L 292.058717 357.181843 
L 292.669713 291.404987 
L 292.873379 288.955121 
L 293.077045 288.955121 
L 293.484376 346.424329 
L 293.688041 352.186305 
L 294.095372 403.606124 
L 294.299038 374.016119 
L 294.502704 360.836112 
L 294.910035 316.163691 
L 295.1137 330.835516 
L 295.317366 322.870029 
L 295.521031 310.018496 
L 295.724697 283.343695 
L 295.928362 291.309182 
L 296.132028 258.516559 
L 296.335694 278.868241 
L 296.743025 235.975052 
L 296.94669 238.548096 
L 297.150356 214.706381 
L 297.354021 207.863179 
L 297.557687 187.511497 
L 297.761353 202.525482 
L 298.168684 243.584693 
L 298.372349 215.705489 
L 298.576015 215.609684 
L 298.77968 222.452886 
L 298.983346 243.721557 
L 299.390677 308.759347 
L 299.594343 293.293711 
L 299.798008 265.414506 
L 300.001674 297.385945 
L 300.205339 310.565952 
L 300.409005 271.682879 
L 300.61267 281.632895 
L 300.816336 309.060448 
L 301.020002 276.267825 
L 301.223667 290.939649 
L 301.427333 261.349645 
L 301.630998 258.680796 
L 301.834664 247.55375 
L 302.038329 225.381776 
L 302.649326 307.71918 
L 302.852992 328.070862 
L 303.056657 297.153276 
L 303.260323 284.301743 
L 303.463988 315.219329 
L 303.871319 263.813197 
L 304.074985 263.717392 
L 304.278651 263.84057 
L 304.482316 253.890555 
L 304.685982 286.683178 
L 304.889647 271.669193 
L 305.093313 244.994392 
L 305.296978 260.008377 
L 305.500644 249.127686 
L 305.70431 278.717691 
L 305.907975 264.784932 
L 306.111641 292.664136 
L 306.315306 300.889665 
L 306.518972 302.614152 
L 306.926303 353.116981 
L 307.129968 321.145542 
L 307.333634 311.195527 
L 307.5373 339.45795 
L 307.740965 319.106268 
L 308.148296 319.202073 
L 308.351962 295.360358 
L 308.555627 305.310373 
L 308.759293 278.033371 
L 308.962959 287.189575 
L 309.166624 287.189575 
L 309.37029 289.571009 
L 309.573955 319.161013 
L 309.981286 266.536792 
L 310.184952 286.888474 
L 310.388617 278.922987 
L 310.592283 280.647474 
L 310.795949 249.98993 
L 310.999614 249.866752 
L 311.406945 290.652235 
L 311.610611 267.125307 
L 312.017942 315.547803 
L 312.221608 313.850689 
L 312.425273 337.692404 
L 312.628939 327.742389 
L 312.832604 355.019391 
L 313.03627 354.663544 
L 313.239935 321.870921 
L 313.443601 339.594814 
L 313.850932 306.473717 
L 314.054598 306.829564 
L 314.258263 292.157739 
L 314.461929 288.873002 
L 314.665594 283.740601 
L 314.86926 311.537687 
L 315.072925 284.862886 
L 315.276591 278.019684 
L 315.683922 309.566845 
L 315.887588 302.641524 
L 316.091253 302.039323 
L 316.294919 288.859316 
L 316.498584 262.608794 
L 316.70225 289.803678 
L 316.905915 275.706682 
L 317.109581 300.4517 
L 317.313247 293.608498 
L 317.516912 263.607901 
L 317.720578 294.840274 
L 317.924243 276.760535 
L 318.127909 328.87836 
L 318.331574 330.602847 
L 318.53524 325.470446 
L 318.738906 295.469849 
L 319.146237 378.409455 
L 319.960899 272.531436 
L 320.164564 285.382969 
L 320.36823 282.207724 
L 320.571896 272.6683 
L 321.182892 308.294009 
L 321.386558 283.548991 
L 321.590223 308.294009 
L 321.793889 297.413318 
L 321.997555 321.720371 
L 322.20122 302.737329 
L 322.404886 315.917336 
L 322.608551 288.640333 
L 322.812217 321.432956 
L 323.015882 336.104781 
L 323.219548 360.849799 
L 323.423213 334.393981 
L 323.626879 340.073838 
L 323.830545 341.675147 
L 324.03421 341.798325 
L 324.237876 328.946792 
L 324.441541 349.298474 
L 324.645207 325.771546 
L 324.848872 324.04706 
L 325.052538 296.167855 
L 325.459869 308.143459 
L 325.663535 294.963452 
L 325.8672 268.288651 
L 326.274531 322.842656 
L 326.681863 264.962855 
L 326.885528 268.288651 
L 327.089194 318.367202 
L 327.292859 302.326737 
L 327.496525 304.899781 
L 327.70019 277.923879 
L 327.903856 281.961368 
L 328.107521 281.646581 
L 328.311187 285.601952 
L 328.514853 285.601952 
L 328.718518 323.66384 
L 328.922184 323.17113 
L 329.125849 353.171726 
L 329.329515 351.44724 
L 329.53318 333.668601 
L 329.736846 305.638847 
L 329.940512 319.503174 
L 330.144177 286.710551 
L 330.347843 295.018198 
L 330.551508 323.047952 
L 330.755174 278.170235 
L 331.162505 339.745365 
L 331.36617 339.389518 
L 331.569836 334.380294 
L 331.773502 358.687347 
L 332.180833 327.769761 
L 332.384498 334.612963 
L 332.588164 328.933106 
L 332.791829 343.043788 
L 333.199161 310.251165 
L 333.606492 321.159228 
L 333.810157 321.159228 
L 334.013823 327.400228 
L 334.421154 266.577851 
L 334.624819 252.001831 
L 335.032151 312.659972 
L 335.235816 310.086928 
L 335.439482 310.086928 
L 335.643147 324.19761 
L 335.846813 324.553456 
L 336.050478 339.225281 
L 336.254144 315.698353 
L 336.45781 339.225281 
L 336.661475 307.253842 
L 336.865141 309.826886 
L 337.068806 283.152086 
L 337.272472 283.056281 
L 337.476137 275.090794 
L 337.679803 273.20207 
L 337.883468 300.533818 
L 338.087134 358.208323 
L 338.2908 363.970299 
L 338.494465 350.03754 
L 338.901796 294.388623 
L 339.105462 284.794454 
L 339.716459 364.572501 
L 339.920124 254.492756 
L 340.12379 285.1503 
L 340.327455 258.4755 
L 340.531121 266.440987 
L 340.734786 260.679011 
L 340.938452 243.858421 
L 341.753114 302.135127 
L 341.95678 288.202369 
L 342.160445 283.357382 
L 342.364111 283.713228 
L 342.567776 270.533221 
L 342.771442 281.413912 
L 342.975108 278.840868 
L 343.178773 250.811114 
L 343.382439 278.840868 
L 343.586104 281.413912 
L 343.78977 257.572197 
L 343.993435 251.810221 
L 344.197101 259.720963 
L 344.400766 257.777493 
L 344.604432 243.666811 
L 345.011763 335.680503 
L 345.215429 335.680503 
L 345.419094 359.522218 
L 345.62276 339.170536 
L 345.826425 357.373452 
L 346.030091 329.343698 
L 346.233757 331.560895 
L 346.437422 346.23272 
L 346.844753 315.575176 
L 347.048419 288.900375 
L 347.252084 302.997371 
L 347.45575 275.118167 
L 347.659415 306.035752 
L 347.863081 309.977437 
L 348.066747 283.001535 
L 348.270412 304.543934 
L 348.474078 304.543934 
L 348.677743 304.680798 
L 349.085074 290.446939 
L 349.28874 317.970296 
L 349.492406 317.299663 
L 349.696071 325.265149 
L 349.899737 311.154467 
L 350.103402 278.361844 
L 350.307068 290.802785 
L 350.510733 318.079788 
L 350.714399 318.079788 
L 350.918064 289.817364 
L 351.12173 334.065507 
L 351.325396 321.460329 
L 351.529061 323.992314 
L 351.936392 272.586182 
L 352.140058 281.38654 
L 352.343723 281.38654 
L 352.547389 308.540364 
L 352.751055 275.747741 
L 352.95472 275.870919 
L 353.158386 289.981601 
L 353.362051 282.016114 
L 353.565717 289.981601 
L 353.769382 317.860805 
L 353.973048 306.980114 
L 354.176714 335.009869 
L 354.380379 304.352325 
L 354.584045 301.82034 
L 354.78771 329.097342 
L 354.991376 339.047358 
L 355.195041 359.39904 
L 355.398707 327.427601 
L 355.602372 324.854557 
L 355.806038 348.381485 
L 356.417035 268.71293 
L 356.6207 296.824803 
L 356.824366 271.135423 
L 357.028031 294.662351 
L 357.231697 281.810818 
L 357.639028 350.584996 
L 357.842694 339.225281 
L 358.046359 339.225281 
L 358.250025 336.255332 
L 358.45369 350.366014 
L 358.861021 339.019985 
L 359.064687 311.742983 
L 359.268353 302.148814 
L 359.472018 329.425816 
L 359.675684 339.375832 
L 359.879349 260.158928 
L 360.083015 306.50109 
L 360.28668 309.074134 
L 360.490346 280.811711 
L 360.694012 308.841465 
L 360.897677 278.840868 
L 361.101343 309.758454 
L 361.508674 318.83254 
L 361.712339 305.652533 
L 362.11967 297.084844 
L 362.323336 313.782257 
L 362.527002 313.481156 
L 362.730667 350.612369 
L 362.934333 355.74477 
L 363.137998 341.634088 
L 363.341664 341.634088 
L 363.545329 367.843551 
L 363.748995 354.992018 
L 363.952661 371.38833 
L 364.156326 372.319005 
L 364.359992 365.475803 
L 364.563657 351.584104 
L 364.767323 377.834626 
L 364.970988 368.514185 
L 365.174654 393.259203 
L 365.378319 267.49484 
L 365.581985 323.102698 
L 365.785651 328.262472 
L 365.989316 300.000048 
L 366.600313 378.231531 
L 366.803978 363.24492 
L 367.007644 365.817963 
L 367.21131 351.707281 
L 367.414975 353.431768 
L 367.618641 351.707281 
L 367.822306 326.962264 
L 368.025972 321.925667 
L 368.229637 313.96018 
L 368.433303 287.408557 
L 368.636968 294.498114 
L 368.840634 308.814092 
L 369.0443 313.946494 
L 369.247965 289.639441 
L 369.451631 332.026233 
L 369.655296 319.1747 
L 369.858962 335.543639 
L 370.266293 312.044084 
L 370.469959 281.742386 
L 370.87729 268.71293 
L 371.488286 310.442774 
L 371.691952 279.525189 
L 371.895617 274.680202 
L 372.302949 317.231231 
L 372.506614 317.108053 
L 372.71028 284.31543 
L 372.913945 275.802487 
L 373.117611 249.551965 
L 373.524942 328.974165 
L 373.728608 329.330011 
L 373.932273 360.247597 
L 374.135939 352.28211 
L 374.339604 363.162801 
L 374.54327 390.439803 
L 374.746935 398.40529 
L 374.950601 368.815286 
L 375.154266 360.849799 
L 375.357932 360.493952 
L 375.561598 333.21695 
L 375.765263 323.266935 
L 375.968929 320.817068 
L 376.172594 321.569821 
L 376.37626 334.749827 
L 376.579925 367.54245 
L 376.783591 376.780773 
L 376.987257 374.46777 
L 377.190922 383.377619 
L 377.394588 353.377022 
L 377.801919 357.920908 
L 378.005584 327.263364 
L 378.20925 357.920908 
L 378.412916 357.825104 
L 378.616581 385.854858 
L 378.820247 359.180058 
L 379.023912 386.155959 
L 379.227578 362.629031 
L 379.431243 386.155959 
L 379.634909 386.032782 
L 379.838574 395.982797 
L 380.04224 365.065211 
L 380.245906 365.161016 
L 380.653237 310.30591 
L 380.856902 335.557325 
L 381.060568 322.705792 
L 381.264233 363.094369 
L 381.467899 282.235097 
L 381.671565 269.383564 
L 381.87523 282.235097 
L 382.689892 360.192851 
L 383.300889 292.705195 
L 383.504555 342.537391 
L 383.911886 369.650156 
L 384.115551 374.782558 
L 384.522882 346.588566 
L 384.726548 316.58797 
L 384.930214 316.943816 
L 385.133879 284.972377 
L 385.337545 338.650452 
L 385.54121 332.491571 
L 385.948541 282.960476 
L 386.355872 323.814391 
L 386.559538 323.814391 
L 386.763204 344.111327 
L 386.966869 320.584399 
L 387.170535 334.517158 
L 387.577866 314.083358 
L 387.781531 342.345781 
L 387.985197 340.621294 
L 388.392528 383.446051 
L 388.596194 355.566847 
L 389.003525 368.172025 
L 389.20719 355.320492 
L 389.614521 303.449022 
L 389.818187 313.399038 
L 390.021853 313.27586 
L 390.225518 310.360656 
L 390.429184 387.346676 
L 390.632849 374.16667 
L 390.836515 389.180654 
L 391.04018 413.022369 
L 391.243846 414.746856 
L 391.651177 356.853369 
L 391.854843 383.829271 
L 392.058508 369.896512 
L 392.262174 364.76411 
L 392.465839 251.317511 
L 392.669505 275.159226 
L 393.076836 252.357677 
L 393.280502 219.565054 
L 393.484167 355.388924 
L 393.687833 341.291928 
L 393.891498 358.112518 
L 394.298829 411.640043 
L 394.502495 383.377619 
L 394.706161 389.139595 
L 395.113492 346.999158 
L 395.317157 333.0664 
L 395.520823 303.065803 
L 395.724488 290.460625 
L 395.928154 321.378211 
L 396.131819 313.412724 
L 396.335485 313.76857 
L 396.539151 287.09377 
L 396.742816 287.09377 
L 397.150147 311.934592 
L 397.353813 299.083059 
L 397.557478 307.048546 
L 397.761144 334.325549 
L 397.96481 323.444858 
L 398.372141 272.463004 
L 398.575806 285.314537 
L 398.779472 289.817364 
L 399.186803 355.977439 
L 399.594134 357.578748 
L 399.7978 359.316922 
L 400.001465 359.672768 
L 400.408796 303.421649 
L 400.612462 318.435634 
L 400.816127 344.686156 
L 401.019793 317.710255 
L 401.223459 345.876873 
L 401.427124 356.757564 
L 401.63079 380.284492 
L 401.834455 349.626948 
L 402.038121 380.284492 
L 402.241786 379.928646 
L 402.445452 353.678123 
L 402.649118 365.64004 
L 402.852783 337.610286 
L 403.260114 373.715018 
L 403.667445 336.118468 
L 403.871111 327.208619 
L 404.074776 330.698652 
L 404.278442 324.936676 
L 404.482108 351.187198 
L 404.685773 360.343402 
L 404.889439 360.343402 
L 405.093104 388.373157 
L 405.29677 384.883124 
L 405.704101 349.435338 
L 406.111432 304.762917 
L 406.315098 280.455864 
L 406.518763 304.845035 
L 406.926094 253.425217 
L 407.12976 266.605224 
L 407.537091 327.947685 
L 407.944422 376.096452 
L 408.148088 368.130966 
L 408.351753 395.407968 
L 408.555419 385.457953 
L 408.759084 352.66533 
L 408.96275 352.542152 
L 409.166416 352.897998 
L 409.573747 315.848904 
L 409.777412 316.793266 
L 409.981078 321.487702 
L 410.388409 306.679013 
L 410.592074 318.627244 
L 410.79574 348.62784 
L 410.999406 341.784639 
L 411.203071 317.039621 
L 411.406737 332.327334 
L 411.610402 319.475801 
L 411.814068 289.475204 
L 412.017733 298.248189 
L 412.62873 351.296689 
L 412.832396 361.246705 
L 413.036061 334.996182 
L 413.239727 367.788805 
L 413.443392 362.656404 
L 413.850723 370.361849 
L 414.054389 363.518648 
L 414.46172 311.797728 
L 414.869051 311.893533 
L 415.072717 287.09377 
L 415.276382 302.107755 
L 415.480048 325.634682 
L 415.887379 268.357083 
L 416.498376 359.412726 
L 416.702041 329.822722 
L 417.109372 313.029505 
L 417.313038 282.111919 
L 417.516704 319.640038 
L 417.924035 331.725132 
L 418.1277 204.619502 
L 418.331366 281.290735 
L 418.738697 308.4035 
L 418.942363 284.876572 
L 419.146028 284.780768 
L 419.349694 271.929235 
L 419.553359 311.893533 
L 419.757025 298.302934 
L 419.96069 267.385349 
L 420.164356 267.385349 
L 420.571687 321.857235 
L 420.775353 321.95304 
L 420.979018 307.842358 
L 421.182684 318.723049 
L 421.386349 318.599871 
L 421.79368 294.867647 
L 421.997346 301.026529 
L 422.201012 294.867647 
L 422.404677 294.89502 
L 422.608343 309.005702 
L 422.812008 280.975947 
L 423.015674 282.700434 
L 423.219339 310.730189 
L 423.62667 270.122629 
L 423.830336 270.218434 
L 424.237667 245.254434 
L 424.644998 303.531141 
L 425.052329 242.859313 
L 425.255995 275.651936 
L 425.459661 251.262765 
L 425.663326 261.212781 
L 425.866992 254.369579 
L 426.070657 281.53709 
L 426.274323 292.417781 
L 426.477988 292.294603 
L 426.885319 265.318702 
L 427.292651 342.756373 
L 427.496316 342.879551 
L 427.699982 310.908112 
L 427.903647 297.728105 
L 428.107313 323.937568 
L 428.310978 330.78077 
L 428.514644 302.751016 
L 428.71831 300.547505 
L 428.921975 304.94084 
L 429.125641 314.110731 
L 429.329306 307.267529 
L 429.532972 315.233016 
L 429.736637 315.588862 
L 429.940303 322.432064 
L 430.143969 353.34965 
L 430.347634 366.529656 
L 430.5513 353.34965 
L 430.754965 329.042597 
L 430.958631 343.714422 
L 431.365962 282.139292 
L 431.569627 275.29609 
L 431.773293 309.731081 
L 431.976959 319.557919 
L 432.180624 291.528165 
L 432.38429 333.737033 
L 432.587955 322.97952 
L 432.791621 295.100316 
L 432.995286 291.665029 
L 433.198952 295.620399 
L 433.402618 305.570415 
L 433.606283 275.569818 
L 433.809949 277.951252 
L 434.21728 226.969399 
L 434.420945 244.186894 
L 434.624611 231.335362 
L 434.828276 274.844439 
L 435.031942 251.317511 
L 435.235608 265.893531 
L 435.439273 268.507634 
L 435.642939 267.850686 
L 435.846604 281.783445 
L 436.05027 312.440989 
L 436.253935 307.308588 
L 436.457601 276.651044 
L 436.661267 276.746849 
L 436.864932 243.954226 
L 437.068598 234.00421 
L 437.272263 243.954226 
L 437.475929 235.988739 
L 438.086925 310.49752 
L 438.290591 295.825695 
L 438.494257 309.005702 
L 438.697922 295.825695 
L 438.901588 300.958097 
L 439.105253 286.847415 
L 439.308919 319.640038 
L 439.512584 286.847415 
L 439.71625 290.296388 
L 440.530912 334.311862 
L 440.938243 378.50526 
L 441.752906 268.110728 
L 441.956571 271.49127 
L 442.160237 247.964342 
L 442.363902 273.215757 
L 442.567568 273.571603 
L 442.771233 267.809627 
L 443.178565 321.337152 
L 443.38223 316.20475 
L 443.585896 289.954228 
L 443.789561 289.201476 
L 443.993227 294.333877 
L 444.196892 287.490676 
L 444.400558 263.183623 
L 444.807889 288.476097 
L 445.011555 303.490081 
L 445.21522 336.282704 
L 445.418886 304.311266 
L 445.622551 313.604334 
L 445.826217 313.604334 
L 446.029882 339.854856 
L 446.233548 315.547803 
L 446.437214 311.825101 
L 446.640879 326.839086 
L 447.04821 272.285081 
L 447.251876 300.547505 
L 447.455541 269.88996 
L 447.862872 329.740603 
L 448.270204 271.888175 
L 448.473869 285.820934 
L 448.677535 253.028311 
L 448.8812 239.095552 
L 449.084866 249.045568 
L 449.288531 279.963154 
L 449.492197 265.852471 
L 449.695863 238.575469 
L 449.899528 306.35054 
L 450.103194 316.656402 
L 450.306859 334.106566 
L 450.510525 334.106566 
L 451.121521 408.64272 
L 451.325187 376.794459 
L 451.732518 435.919723 
L 451.936184 436.015527 
L 452.139849 428.050041 
L 452.343515 436.015527 
L 452.54718 407.753104 
L 452.750846 399.787617 
L 452.954512 413.720376 
L 453.158177 403.770361 
L 453.565508 323.787018 
L 453.769174 316.943816 
L 453.972839 329.891154 
L 454.176505 360.548698 
L 454.380171 333.572796 
L 454.787502 333.572796 
L 454.991167 320.721263 
L 455.398498 370.375536 
L 455.602164 357.989341 
L 455.805829 363.121742 
L 456.009495 380.448729 
L 456.213161 366.51597 
L 456.620492 324.142864 
L 456.824157 362.765895 
L 457.231488 306.856937 
L 457.435154 333.969702 
L 457.63882 303.052116 
L 457.842485 333.969702 
L 458.046151 340.990827 
L 458.249816 327.058068 
L 458.453482 341.729893 
L 458.657147 327.058068 
L 458.860813 351.803086 
L 459.064478 338.623079 
L 459.268144 305.830456 
L 459.47181 292.978923 
L 459.675475 265.701921 
L 459.879141 283.28895 
L 460.490137 358.0304 
L 460.693803 330.000645 
L 460.897469 337.966132 
L 461.101134 310.68913 
L 461.3048 310.784934 
L 461.508465 296.11311 
L 461.712131 418.428499 
L 461.915796 404.317817 
L 462.119462 406.042304 
L 462.323127 238.890256 
L 462.730459 312.003024 
L 462.934124 312.003024 
L 463.341455 319.968511 
L 463.545121 287.175888 
L 463.748786 300.027421 
L 464.156118 246.800998 
L 464.359783 339.416891 
L 464.563449 306.624268 
L 464.767114 319.804274 
L 464.97078 306.624268 
L 465.174445 353.554946 
L 465.378111 330.534415 
L 465.785442 330.534415 
L 465.989108 320.584399 
L 466.396439 388.468961 
L 466.600104 384.335667 
L 466.80377 356.305913 
L 467.007435 385.129479 
L 467.211101 432.279139 
L 467.414767 402.634389 
L 467.618432 412.707582 
L 467.822098 384.677828 
L 468.025763 376.808145 
L 468.229429 384.773632 
L 468.63676 350.311268 
L 468.840425 340.005406 
L 469.044091 316.478478 
L 469.247757 315.698353 
L 469.655088 357.83879 
L 469.858753 357.83879 
L 470.062419 395.230045 
L 470.266084 320.92656 
L 470.673416 359.604336 
L 470.877081 335.297283 
L 471.080747 332.724239 
L 471.284412 312.673658 
L 471.488078 339.64956 
L 471.691743 334.517158 
L 471.895409 316.451106 
L 472.099074 319.900079 
L 472.30274 325.662055 
L 472.506406 296.072051 
L 473.117402 361.041409 
L 473.321068 331.040812 
L 473.524733 361.958398 
L 473.728399 333.928643 
L 473.932065 364.586187 
L 474.13573 349.572202 
L 474.339396 364.586187 
L 474.543061 353.705496 
L 474.746727 326.428494 
L 474.950392 324.457652 
L 475.154058 351.734654 
L 475.357723 336.720669 
L 475.561389 351.734654 
L 475.765055 324.457652 
L 475.96872 336.665924 
L 476.172386 322.733165 
L 476.376051 322.733165 
L 476.579717 324.457652 
L 476.987048 299.466279 
L 477.190714 313.576961 
L 477.394379 319.297878 
L 477.598045 345.5484 
L 477.80171 315.958395 
L 478.005376 324.129178 
L 478.412707 280.113704 
L 478.616373 274.981303 
L 479.023704 291.92507 
L 479.227369 319.954825 
L 479.431035 307.103292 
L 479.6347 306.364226 
L 479.838366 346.369584 
L 480.245697 387.127694 
L 480.449363 413.378216 
L 480.856694 354.690917 
L 481.060359 354.690917 
L 481.264025 385.252657 
L 481.46769 358.331501 
L 481.671356 351.488299 
L 481.875022 358.331501 
L 482.078687 386.361255 
L 482.282353 371.812608 
L 482.689684 330.602847 
L 482.893349 358.632601 
L 483.097015 344.699843 
L 483.30068 344.357683 
L 483.504346 311.565059 
L 483.708012 324.745066 
L 484.319008 394.0667 
L 484.726339 342.742687 
L 484.930005 352.692702 
L 485.133671 341.812011 
L 485.337336 346.23272 
L 485.541002 327.687643 
L 485.948333 382.022665 
L 486.151998 380.298178 
L 486.355664 359.946496 
L 486.762995 359.946496 
L 486.966661 383.788211 
L 487.170326 373.838196 
L 487.373992 343.837599 
L 487.577657 331.451404 
L 487.781323 303.5722 
L 487.984988 385.115792 
L 488.188654 408.957508 
L 488.39232 414.719483 
L 488.595985 385.129479 
L 488.799651 372.277946 
L 489.003316 379.121148 
L 489.206982 406.39815 
L 489.410647 406.753997 
L 489.614313 383.227069 
L 489.817978 412.817073 
L 490.021644 386.142273 
L 490.428975 374.16667 
L 490.632641 350.324954 
L 490.836306 373.851882 
L 491.039972 380.695084 
L 491.243637 373.851882 
L 491.447303 373.947687 
L 491.650969 380.790889 
L 492.465631 272.791478 
L 492.669296 303.709064 
L 492.872962 292.828373 
L 493.076627 317.573391 
L 493.483959 272.558809 
L 493.687624 281.222303 
L 493.89129 267.823314 
L 494.094955 268.233906 
L 494.298621 328.125608 
L 494.502286 326.154766 
L 494.705952 353.130667 
L 495.113283 323.499603 
L 495.316949 356.073244 
L 495.72428 326.592731 
L 495.927945 350.434446 
L 496.131611 336.501687 
L 496.335276 330.739711 
L 496.538942 351.091393 
L 496.742608 323.061639 
L 496.946273 347.806656 
L 497.149939 347.710851 
L 497.353604 332.696867 
L 497.55727 360.726621 
L 497.760935 337.199693 
L 497.964601 351.132452 
L 498.168267 351.132452 
L 498.371932 344.28925 
L 498.575598 313.371665 
L 498.779263 316.54691 
L 498.982929 316.54691 
L 499.39026 257.435333 
L 499.593925 272.449318 
L 499.797591 270.724831 
L 500.001257 257.544824 
L 500.204922 259.269311 
L 500.408588 259.365116 
L 500.612253 303.202667 
L 500.815919 298.070266 
L 501.019584 326.332689 
L 501.22325 312.39993 
L 501.426916 344.371369 
L 501.630581 358.304128 
L 501.834247 386.183332 
L 502.037912 359.508531 
L 502.241578 386.183332 
L 502.445243 361.876279 
L 502.648909 386.183332 
L 503.463571 329.001538 
L 503.667237 297.030099 
L 503.870902 344.234505 
L 504.278233 289.6805 
L 504.88923 330.411237 
L 505.092896 323.568035 
L 505.296561 323.691213 
L 505.500227 313.741198 
L 505.703892 294.128581 
L 505.907558 297.837597 
L 506.111224 297.837597 
L 506.314889 307.787612 
L 506.925886 219.784037 
L 507.129551 211.81855 
L 507.333217 271.792371 
L 507.536882 277.280618 
L 507.944214 328.700437 
L 508.147879 315.848904 
L 508.351545 321.22766 
L 508.55521 307.294902 
L 508.758876 340.087525 
L 508.962541 337.870327 
L 509.166207 355.156255 
L 509.369873 324.238669 
L 509.573538 319.106268 
L 509.777204 325.114599 
L 509.980869 310.100614 
L 510.184535 326.401121 
L 510.3882 308.321382 
L 510.591866 337.719777 
L 510.795531 340.292821 
L 510.999197 332.327334 
L 511.202863 359.303235 
L 511.406528 359.180058 
L 511.610194 346.328525 
L 511.813859 346.451702 
L 512.22119 295.647772 
L 512.424856 317.162799 
L 512.832187 252.494541 
L 513.035853 245.213375 
L 513.239518 248.114892 
L 513.443184 248.415993 
L 513.646849 273.366307 
L 514.05418 291.281809 
L 514.257846 314.808737 
L 514.461512 291.281809 
L 514.665177 290.925963 
L 514.868843 287.791776 
L 515.276174 335.598384 
L 515.479839 340.730786 
L 515.887171 279.675739 
L 516.090836 311.578746 
L 516.294502 313.303233 
L 516.498167 313.303233 
L 516.701833 303.353217 
L 516.905498 278.6082 
L 517.109164 303.353217 
L 517.312829 289.242535 
L 517.516495 261.363331 
L 517.720161 264.648068 
L 517.923826 264.648068 
L 518.127492 251.796535 
L 518.331157 284.589158 
L 518.534823 294.415996 
L 518.738488 354.129775 
L 518.942154 354.129775 
L 519.14582 354.252952 
L 519.756816 320.625459 
L 519.960482 293.950658 
L 520.164147 325.922097 
L 520.367813 317.95661 
L 520.571478 302.942625 
L 520.97881 338.417783 
L 521.182475 351.611476 
L 521.386141 351.611476 
L 521.589806 340.593922 
L 521.793472 311.003917 
L 521.997137 338.280919 
L 522.200803 307.623375 
L 522.404469 338.280919 
L 522.608134 324.34816 
L 522.8118 324.34816 
L 523.219131 381.885801 
L 523.422796 355.635279 
L 523.626462 362.478481 
L 523.830127 296.099423 
L 524.033793 309.27943 
L 524.237459 309.306803 
L 524.441124 304.174402 
L 524.64479 304.174402 
L 525.255786 345.904246 
L 525.459452 331.232421 
L 525.663118 336.364823 
L 525.866783 312.05777 
L 526.070449 308.622483 
L 526.47778 254.492756 
L 526.681445 280.743279 
L 526.885111 257.216351 
L 527.088776 270.067884 
L 527.292442 270.067884 
L 527.496108 284.424921 
L 527.699773 307.951849 
L 527.903439 349.982794 
L 528.107104 317.190171 
L 528.31077 332.409452 
L 528.718101 311.058663 
L 528.921767 338.335665 
L 529.125432 324.224983 
L 529.532763 275.172912 
L 529.736429 307.965535 
L 529.940094 316.081573 
L 530.14376 303.23004 
L 530.347426 331.109244 
L 530.551091 315.780472 
L 530.958422 273.776899 
L 531.162088 302.039323 
L 531.365753 302.942625 
L 531.773084 356.196422 
L 531.97675 349.35322 
L 532.180416 359.303235 
L 532.384081 345.192553 
L 532.587747 344.836707 
L 532.791412 373.797137 
L 532.995078 374.358279 
L 533.198743 374.358279 
L 533.402409 361.506746 
L 533.606075 378.833733 
L 533.80974 366.570716 
L 534.013406 366.570716 
L 534.217071 358.605229 
L 534.420737 366.570716 
L 534.624402 263.826884 
L 534.828068 264.675441 
L 535.031733 292.937864 
L 535.439065 267.946491 
L 535.64273 308.649855 
L 535.846396 319.530546 
L 536.050061 291.268123 
L 536.253727 291.268123 
L 536.457392 286.272586 
L 536.661058 315.86259 
L 536.864724 287.983386 
L 537.068389 287.983386 
L 537.272055 300.862292 
L 537.679386 359.809632 
L 537.883051 330.219628 
L 538.086717 331.944114 
L 538.494048 288.065504 
L 539.105045 367.432959 
L 539.30871 340.155957 
L 539.512376 371.073542 
L 539.919707 328.371963 
L 540.123373 332.792671 
L 540.327038 309.265744 
L 540.530704 302.422542 
L 540.734369 290.118465 
L 541.1417 290.118465 
L 541.549031 337.322871 
L 541.752697 364.599873 
L 541.956363 359.467472 
L 542.160028 344.248191 
L 542.363694 317.669195 
L 542.567359 331.779878 
L 542.771025 327.044382 
L 542.97469 325.675742 
L 543.178356 343.125906 
L 543.382022 349.969108 
L 543.585687 276.404689 
L 543.789353 245.487103 
L 543.993018 268.001237 
L 544.196684 264.210103 
L 544.400349 296.181542 
L 544.604015 275.82986 
L 544.80768 301.28657 
L 545.011346 286.299958 
L 545.215012 282.645689 
L 545.418677 285.218733 
L 545.622343 256.956309 
L 545.826008 247.006294 
L 546.233339 247.006294 
L 546.437005 275.268717 
L 546.844336 234.661158 
L 547.048002 248.593916 
L 547.455333 303.613259 
L 547.658998 288.695079 
L 547.862664 287.09377 
L 548.066329 288.818257 
L 548.269995 261.541254 
L 548.473661 267.289544 
L 548.677326 305.378805 
L 548.880992 279.128283 
L 549.084657 280.866456 
L 549.288323 290.816472 
L 549.491988 317.066994 
L 549.695654 317.066994 
L 549.89932 344.946198 
L 550.102985 344.946198 
L 550.306651 368.787913 
L 550.510316 354.677231 
L 550.713982 321.884608 
L 550.917647 354.677231 
L 551.324978 330.794457 
L 551.528644 301.204452 
L 551.73231 311.154467 
L 551.935975 287.312752 
L 552.139641 282.180351 
L 552.343306 310.442774 
L 552.546972 279.525189 
L 552.750637 306.446345 
L 552.954303 309.019388 
L 553.157969 281.742386 
L 553.361634 320.557027 
L 553.5653 320.557027 
L 553.768965 324.238669 
L 553.972631 297.988147 
L 554.176296 314.138103 
L 554.379962 341.114005 
L 554.583627 340.758158 
L 554.787293 317.231231 
L 554.990959 313.837002 
L 555.194624 316.410046 
L 555.39829 321.542448 
L 555.601955 289.571009 
L 555.805621 281.605522 
L 556.212952 334.407667 
L 556.416618 312.495735 
L 556.620283 342.496332 
L 557.23128 266.878952 
L 557.434945 263.128877 
L 557.842277 235.249673 
L 558.045942 233.894719 
L 558.249608 208.109535 
L 558.453273 235.988739 
L 558.656939 211.585881 
L 558.860604 243.55732 
L 559.06427 215.678116 
L 559.267935 207.712629 
L 559.471601 180.435626 
L 559.675267 180.435626 
L 559.878932 188.401113 
L 560.082598 188.401113 
L 560.286263 180.435626 
L 560.489929 197.461513 
L 560.693594 197.461513 
L 560.89726 205.426999 
L 561.100926 236.084544 
L 561.304591 235.988739 
L 561.508257 245.815577 
L 561.915588 327.277051 
L 562.119253 341.20981 
L 562.322919 338.636766 
L 562.526584 330.767084 
L 562.73025 305.241941 
L 562.933916 298.398739 
L 563.137581 305.241941 
L 563.544912 339.717992 
L 563.748578 354.731976 
L 564.155909 302.545719 
L 564.359575 288.435037 
L 564.56324 264.90811 
L 564.766906 264.90811 
L 564.970571 252.467169 
L 565.174237 260.432656 
L 565.377902 258.708169 
L 565.581568 261.363331 
L 565.785233 256.025634 
L 565.988899 256.025634 
L 566.192565 249.182432 
L 566.39623 235.249673 
L 566.599896 298.042893 
L 566.803561 267.125307 
L 567.007227 267.125307 
L 567.210892 283.4395 
L 567.414558 283.4395 
L 567.618224 315.506744 
L 567.821889 315.506744 
L 568.025555 288.886689 
L 568.22922 285.738816 
L 568.432886 285.738816 
L 568.636551 291.076513 
L 568.840217 304.571307 
L 569.043882 290.474312 
L 569.247548 290.474312 
L 569.451214 259.556726 
L 569.654879 259.556726 
L 569.858545 226.764103 
L 570.06221 258.735542 
L 570.265876 230.473118 
L 570.469541 263.265741 
L 570.673207 263.265741 
L 570.876873 249.155059 
L 571.080538 301.573985 
L 571.284204 269.958392 
L 571.487869 269.958392 
L 571.691535 256.025634 
L 571.8952 256.025634 
L 572.098866 274.119059 
L 572.302531 278.854555 
L 572.506197 302.381483 
L 572.913528 263.210996 
L 573.117194 285.560893 
L 573.320859 257.681688 
L 573.524525 250.838487 
L 574.135522 325.100913 
L 574.339187 325.100913 
L 574.542853 310.990231 
L 574.746518 320.940246 
L 575.153849 266.003022 
L 575.764846 266.003022 
L 575.968512 266.126199 
L 576.172177 238.096445 
L 576.579508 238.096445 
L 576.783174 228.023252 
L 576.986839 228.023252 
L 577.190505 203.716199 
L 577.597836 249.469846 
L 577.801502 236.618313 
L 578.208833 236.618313 
L 578.412498 222.685554 
L 578.616164 222.685554 
L 578.819829 274.570711 
L 579.023495 252.426109 
L 579.227161 252.426109 
L 579.430826 277.171127 
L 579.634492 277.171127 
L 579.838157 252.426109 
L 580.041823 261.226467 
L 580.245488 285.971485 
L 580.449154 272.791478 
L 580.65282 272.914656 
L 580.856485 262.033965 
L 581.060151 230.062526 
L 581.263816 224.546905 
L 581.467482 222.384454 
L 581.671147 255.177077 
L 581.874813 266.057767 
L 582.078479 236.057171 
L 582.48581 261.25384 
L 582.689475 261.25384 
L 582.893141 248.402307 
L 583.096806 299.137805 
L 583.504137 326.428494 
L 583.911469 372.469556 
L 584.115134 372.469556 
L 584.522465 331.547209 
L 584.726131 317.436527 
L 584.929796 314.6445 
L 585.133462 291.514478 
L 585.540793 352.569525 
L 585.948124 312.440989 
L 586.15179 325.292522 
L 586.355455 325.292522 
L 586.559121 339.964347 
L 586.762786 340.060152 
L 586.966452 326.127393 
L 587.170118 326.127393 
L 587.373783 340.060152 
L 587.577449 326.880145 
L 587.781114 326.880145 
L 587.98478 297.290141 
L 588.188445 297.290141 
L 588.392111 312.304125 
L 588.595777 312.304125 
L 588.799442 297.290141 
L 589.003108 267.289544 
L 589.206773 293.964344 
L 589.410439 288.831943 
L 589.614104 302.942625 
L 589.81777 276.267825 
L 590.021435 276.267825 
L 590.225101 252.740897 
L 590.428767 252.740897 
L 591.039763 217.977432 
L 592.261757 217.977432 
L 592.465422 231.335362 
L 592.669088 258.010162 
L 593.076419 199.213372 
L 593.280084 199.213372 
L 593.48375 189.263357 
L 593.687416 200.718877 
L 593.891081 188.455859 
L 594.094747 188.455859 
L 594.298412 199.33655 
L 594.705743 160.48085 
L 594.909409 188.510605 
L 595.31674 188.510605 
L 595.520406 242.763509 
L 595.724071 216.088708 
L 596.335068 216.088708 
L 596.538733 183.296085 
L 597.14973 183.296085 
L 597.353396 169.185403 
L 597.964392 169.185403 
L 598.168058 179.135418 
L 598.575389 179.135418 
L 598.98272 185.937561 
L 599.186386 200.951545 
L 599.390051 200.951545 
L 599.593717 174.701023 
L 599.797382 174.701023 
L 600.001048 167.857822 
L 600.204714 154.677815 
L 600.408379 161.521017 
L 600.81571 161.521017 
L 601.019376 169.568622 
L 601.223041 193.09555 
L 601.630373 193.09555 
L 601.834038 179.162791 
L 602.037704 177.45199 
L 602.852366 177.45199 
L 603.056031 153.144938 
L 603.870694 153.144938 
L 604.074359 154.705188 
L 604.278025 154.705188 
L 604.48169 141.525181 
L 605.092687 141.525181 
L 605.296353 161.876863 
L 605.500018 141.525181 
L 605.703684 150.695071 
L 606.518346 150.695071 
L 606.722012 164.805754 
L 607.333008 164.805754 
L 607.536674 211.325839 
L 607.740339 198.474306 
L 607.944005 198.474306 
L 608.147671 193.341905 
L 608.351336 174.482041 
L 608.555002 173.400815 
L 608.962333 173.400815 
L 609.165998 180.244017 
L 609.369664 180.244017 
L 609.57333 182.474901 
L 609.980661 227.571601 
L 610.184326 227.448423 
L 610.387992 221.686447 
L 610.591657 221.686447 
L 610.795323 214.843245 
L 610.998988 214.843245 
L 611.202654 191.015216 
L 611.40632 188.168445 
L 611.609985 174.057762 
L 612.831979 174.057762 
L 613.035644 158.961659 
L 613.23931 131.082455 
L 614.461303 131.082455 
L 614.664969 121.13244 
L 615.886962 121.13244 
L 616.090628 145.439492 
L 617.923618 145.439492 
L 618.127283 152.282694 
L 618.330949 152.282694 
L 618.534614 170.567729 
L 618.941945 170.567729 
L 619.145611 173.592425 
L 619.349277 200.568326 
L 620.57127 200.472521 
L 620.774935 193.62932 
L 622.811591 193.62932 
L 623.015257 203.907809 
L 623.218922 203.907809 
L 623.422588 200.732563 
L 623.626253 170.731966 
L 624.644581 170.731966 
L 624.848247 185.910188 
L 625.051912 185.910188 
L 625.255578 198.761721 
L 625.459243 181.735835 
L 626.477571 181.735835 
L 626.681237 168.884302 
L 627.495899 168.884302 
L 627.699565 192.41123 
L 629.73622 192.41123 
L 629.939886 195.846517 
L 631.772876 195.846517 
L 631.976541 209.108642 
L 632.180207 195.928635 
L 632.383873 195.928635 
L 632.587538 195.668594 
L 632.994869 195.668594 
L 633.198535 190.892039 
L 633.4022 166.584986 
L 634.013197 166.584986 
L 634.216863 183.720363 
L 635.23519 183.720363 
L 635.438856 191.767969 
L 636.864515 191.767969 
L 637.068181 184.048837 
L 637.882843 184.048837 
L 638.086508 183.309771 
L 641.548823 183.309771 
L 641.752488 153.309175 
L 649.288114 153.309175 
L 649.49178 155.280017 
L 651.121104 155.280017 
L 651.32477 156.005396 
L 653.15776 156.005396 
L 653.361426 143.153863 
L 653.768757 143.153863 
L 653.972422 116.479062 
L 658.249399 116.479062 
L 658.453065 120.872398 
L 658.860396 120.872398 
L 659.064061 121.529345 
L 662.119045 121.529345 
L 662.32271 108.349339 
L 662.526376 109.33476 
L 663.137373 109.33476 
L 663.341038 108.431457 
L 664.970363 108.431457 
L 665.174028 114.494534 
L 665.377694 114.494534 
L 665.581359 108.431457 
L 666.192356 108.431457 
L 666.396022 113.769154 
L 670.672998 113.769154 
L 670.876664 104.941424 
L 684.522257 104.941424 
L 684.725922 102.71054 
L 710.591449 102.71054 
L 710.795114 94.580817 
L 718.534406 94.580817 
L 718.738071 93.294295 
L 721.182058 93.294295 
L 721.385724 88.887273 
L 871.690909 88.887273 
L 871.690909 88.887273 
" style="fill:none;stroke:#8dd3c7;stroke-linecap:square;stroke-width:1.5;"/>
   </g>
   <g id="line2d_17">
    <path clip-path="url(#p76ebf1a52b)" d="M 161.509091 229.85723 
L 186.152624 229.85723 
L 186.35629 219.756664 
L 186.559955 203.415098 
L 186.763621 177.287754 
L 594.298412 177.287754 
L 594.502078 174.591532 
L 594.705743 160.48085 
L 600.001048 160.48085 
L 600.204714 154.677815 
L 602.852366 154.677815 
L 603.056031 153.144938 
L 604.278025 153.144938 
L 604.48169 141.525181 
L 613.035644 141.525181 
L 613.23931 131.082455 
L 614.461303 131.082455 
L 614.664969 121.13244 
L 653.768757 121.13244 
L 653.972422 116.479062 
L 662.119045 116.479062 
L 662.32271 108.349339 
L 670.672998 108.349339 
L 670.876664 104.941424 
L 684.522257 104.941424 
L 684.725922 102.71054 
L 710.591449 102.71054 
L 710.795114 94.580817 
L 718.534406 94.580817 
L 718.738071 93.294295 
L 721.182058 93.294295 
L 721.385724 88.887273 
L 871.690909 88.887273 
L 871.690909 88.887273 
" style="fill:none;stroke:#feffb3;stroke-linecap:square;stroke-width:1.5;"/>
   </g>
   <g id="line2d_18">
    <path clip-path="url(#p76ebf1a52b)" d="M 161.509091 306.169879 
L 162.93475 306.169879 
L 163.138415 314.539546 
L 164.564074 314.539546 
L 164.76774 322.515806 
L 166.193399 322.515806 
L 166.397064 330.117149 
L 167.822723 330.117149 
L 168.026389 337.361198 
L 169.452048 337.361198 
L 169.655713 344.264748 
L 171.081372 344.264748 
L 171.285038 350.843804 
L 172.710697 350.843804 
L 172.914362 357.113618 
L 174.340021 357.113618 
L 174.543687 363.088725 
L 175.969346 363.088725 
L 176.173011 368.782979 
L 177.59867 368.782979 
L 177.802336 374.209579 
L 179.227995 374.209579 
L 179.43166 379.381108 
L 180.857319 379.381108 
L 181.060985 384.309554 
L 182.486644 384.309554 
L 182.690309 389.006343 
L 184.115968 389.006343 
L 184.319634 393.482365 
L 185.745293 393.482365 
L 185.948958 397.747995 
L 187.374617 397.747995 
L 187.578283 401.813124 
L 189.003942 401.813124 
L 189.207607 405.687176 
L 190.633266 405.687176 
L 190.836932 409.379131 
L 192.262591 409.379131 
L 192.466256 412.89755 
L 193.891915 412.89755 
L 194.095581 416.250589 
L 195.52124 416.250589 
L 195.724905 419.446022 
L 197.150564 419.446022 
L 197.35423 422.491257 
L 198.779889 422.491257 
L 198.983555 425.393353 
L 200.409213 425.393353 
L 200.612879 428.159039 
L 202.038538 428.159039 
L 202.242204 430.794727 
L 203.667862 430.794727 
L 203.871528 433.306527 
L 205.297187 433.306527 
L 205.500853 435.700263 
L 206.926511 435.700263 
L 207.130177 437.981483 
L 208.555836 437.981483 
L 208.759502 440.155477 
L 210.18516 440.155477 
L 210.388826 442.227284 
L 211.814485 442.227284 
L 212.018151 444.201708 
L 213.443809 444.201708 
L 213.647475 446.083327 
L 215.073134 446.083327 
L 215.2768 447.876501 
L 216.702458 447.876501 
L 216.906124 449.585389 
L 218.331783 449.585389 
L 218.535449 451.213953 
L 219.961107 451.213953 
L 220.164773 452.765968 
L 221.590432 452.765968 
L 221.794098 454.245032 
L 223.219756 454.245032 
L 223.423422 455.654573 
L 224.849081 455.654573 
L 225.052747 456.997861 
L 226.478406 456.997861 
L 226.682071 458.278009 
L 228.10773 458.278009 
L 228.311396 459.497985 
L 229.737055 459.497985 
L 229.94072 460.660617 
L 231.366379 460.660617 
L 231.570045 461.7686 
L 232.995704 461.7686 
L 233.199369 462.824504 
L 234.625028 462.824504 
L 234.828694 463.830776 
L 236.254353 463.830776 
L 236.458018 464.78975 
L 237.883677 464.78975 
L 238.087343 465.703648 
L 239.513002 465.703648 
L 239.716667 466.574589 
L 241.142326 466.574589 
L 241.345992 467.404592 
L 242.771651 467.404592 
L 242.975316 468.195582 
L 244.400975 468.195582 
L 244.604641 468.949392 
L 246.0303 468.949392 
L 246.233965 469.66777 
L 247.659624 469.66777 
L 247.86329 470.352381 
L 249.288949 470.352381 
L 249.492614 471.004813 
L 250.918273 471.004813 
L 251.121939 471.626578 
L 252.547598 471.626578 
L 252.751263 472.219118 
L 254.176922 472.219118 
L 254.380588 472.783805 
L 255.806247 472.783805 
L 256.009912 473.32195 
L 257.435571 473.32195 
L 257.639237 473.834801 
L 259.064896 473.834801 
L 259.268561 474.323545 
L 260.69422 474.323545 
L 260.897886 474.789316 
L 262.323545 474.789316 
L 262.52721 475.233194 
L 263.952869 475.233194 
L 264.156535 475.656208 
L 265.582194 475.656208 
L 265.785859 476.059339 
L 267.211518 476.059339 
L 267.415184 476.443521 
L 268.840843 476.443521 
L 269.044508 476.809645 
L 270.470167 476.809645 
L 270.673833 477.15856 
L 272.099492 477.15856 
L 272.303157 477.491074 
L 273.728816 477.491074 
L 273.932482 477.807959 
L 275.358141 477.807959 
L 275.561806 478.109948 
L 276.987465 478.109948 
L 277.191131 478.397744 
L 278.61679 478.397744 
L 278.820455 478.672011 
L 280.246114 478.672011 
L 280.44978 478.933387 
L 281.875439 478.933387 
L 282.079104 479.182477 
L 283.504763 479.182477 
L 283.708429 479.419859 
L 285.134088 479.419859 
L 285.337753 479.646083 
L 286.763412 479.646083 
L 286.967078 479.861674 
L 288.392737 479.861674 
L 288.596402 480.067131 
L 290.022061 480.067131 
L 290.225727 480.262931 
L 291.651386 480.262931 
L 291.855051 480.449527 
L 293.28071 480.449527 
L 293.484376 480.627353 
L 294.910035 480.627353 
L 295.1137 480.79682 
L 296.539359 480.79682 
L 296.743025 480.958321 
L 298.168684 480.958321 
L 298.372349 481.112231 
L 299.798008 481.112231 
L 300.001674 481.258907 
L 301.427333 481.258907 
L 301.630998 481.398689 
L 303.056657 481.398689 
L 303.260323 481.5319 
L 304.685982 481.5319 
L 305.093313 481.65885 
L 306.315306 481.65885 
L 306.722637 481.779832 
L 307.944631 481.779832 
L 308.351962 481.895128 
L 311.20328 482.005005 
L 311.610611 482.109716 
L 314.461929 482.209506 
L 314.86926 482.304606 
L 317.720578 482.395235 
L 318.127909 482.481605 
L 320.979227 482.563915 
L 321.386558 482.642356 
L 324.237876 482.717109 
L 324.645207 482.78835 
L 327.496525 482.856241 
L 327.903856 482.920941 
L 330.755174 482.982601 
L 331.162505 483.041362 
L 335.643147 483.150727 
L 336.254144 483.201586 
L 340.531121 483.296243 
L 341.142117 483.340262 
L 345.419094 483.422189 
L 346.030091 483.460287 
L 351.936392 483.564171 
L 352.751055 483.595596 
L 358.45369 483.681282 
L 359.472018 483.707202 
L 366.600313 483.799259 
L 367.822306 483.819634 
L 378.005584 483.923274 
L 379.838574 483.951681 
L 397.557478 484.059072 
L 400.612462 484.075013 
L 441.54924 484.185396 
L 452.954512 484.198938 
L 468.840425 484.211849 
L 871.690909 484.232727 
L 871.690909 484.232727 
" style="fill:none;stroke:#bfbbd9;stroke-linecap:square;stroke-width:1.5;"/>
   </g>
   <g id="patch_3">
    <path d="M 126 504 
L 126 69.12 
" style="fill:none;stroke:#ffffff;stroke-linecap:square;stroke-linejoin:miter;stroke-width:0.8;"/>
   </g>
   <g id="patch_4">
    <path d="M 907.2 504 
L 907.2 69.12 
" style="fill:none;stroke:#ffffff;stroke-linecap:square;stroke-linejoin:miter;stroke-width:0.8;"/>
   </g>
   <g id="patch_5">
    <path d="M 126 504 
L 907.2 504 
" style="fill:none;stroke:#ffffff;stroke-linecap:square;stroke-linejoin:miter;stroke-width:0.8;"/>
   </g>
   <g id="patch_6">
    <path d="M 126 69.12 
L 907.2 69.12 
" style="fill:none;stroke:#ffffff;stroke-linecap:square;stroke-linejoin:miter;stroke-width:0.8;"/>
   </g>
   <g id="text_17">
    <!-- instance 9 with error 0.05384867343596467 -->
    <g style="fill:#ffffff;" transform="translate(381.864375 63.12)scale(0.12 -0.12)">
     <defs>
      <path d="M 2834 3397 
L 2834 2853 
Q 2591 2978 2328 3040 
Q 2066 3103 1784 3103 
Q 1356 3103 1142 2972 
Q 928 2841 928 2578 
Q 928 2378 1081 2264 
Q 1234 2150 1697 2047 
L 1894 2003 
Q 2506 1872 2764 1633 
Q 3022 1394 3022 966 
Q 3022 478 2636 193 
Q 2250 -91 1575 -91 
Q 1294 -91 989 -36 
Q 684 19 347 128 
L 347 722 
Q 666 556 975 473 
Q 1284 391 1588 391 
Q 1994 391 2212 530 
Q 2431 669 2431 922 
Q 2431 1156 2273 1281 
Q 2116 1406 1581 1522 
L 1381 1569 
Q 847 1681 609 1914 
Q 372 2147 372 2553 
Q 372 3047 722 3315 
Q 1072 3584 1716 3584 
Q 2034 3584 2315 3537 
Q 2597 3491 2834 3397 
z
" id="DejaVuSans-73" transform="scale(0.015625)"/>
      <path d="M 3122 3366 
L 3122 2828 
Q 2878 2963 2633 3030 
Q 2388 3097 2138 3097 
Q 1578 3097 1268 2742 
Q 959 2388 959 1747 
Q 959 1106 1268 751 
Q 1578 397 2138 397 
Q 2388 397 2633 464 
Q 2878 531 3122 666 
L 3122 134 
Q 2881 22 2623 -34 
Q 2366 -91 2075 -91 
Q 1284 -91 818 406 
Q 353 903 353 1747 
Q 353 2603 823 3093 
Q 1294 3584 2113 3584 
Q 2378 3584 2631 3529 
Q 2884 3475 3122 3366 
z
" id="DejaVuSans-63" transform="scale(0.015625)"/>
      <path id="DejaVuSans-20" transform="scale(0.015625)"/>
      <path d="M 703 97 
L 703 672 
Q 941 559 1184 500 
Q 1428 441 1663 441 
Q 2288 441 2617 861 
Q 2947 1281 2994 2138 
Q 2813 1869 2534 1725 
Q 2256 1581 1919 1581 
Q 1219 1581 811 2004 
Q 403 2428 403 3163 
Q 403 3881 828 4315 
Q 1253 4750 1959 4750 
Q 2769 4750 3195 4129 
Q 3622 3509 3622 2328 
Q 3622 1225 3098 567 
Q 2575 -91 1691 -91 
Q 1453 -91 1209 -44 
Q 966 3 703 97 
z
M 1959 2075 
Q 2384 2075 2632 2365 
Q 2881 2656 2881 3163 
Q 2881 3666 2632 3958 
Q 2384 4250 1959 4250 
Q 1534 4250 1286 3958 
Q 1038 3666 1038 3163 
Q 1038 2656 1286 2365 
Q 1534 2075 1959 2075 
z
" id="DejaVuSans-39" transform="scale(0.015625)"/>
      <path d="M 269 3500 
L 844 3500 
L 1563 769 
L 2278 3500 
L 2956 3500 
L 3675 769 
L 4391 3500 
L 4966 3500 
L 4050 0 
L 3372 0 
L 2619 2869 
L 1863 0 
L 1184 0 
L 269 3500 
z
" id="DejaVuSans-77" transform="scale(0.015625)"/>
      <path d="M 3513 2113 
L 3513 0 
L 2938 0 
L 2938 2094 
Q 2938 2591 2744 2837 
Q 2550 3084 2163 3084 
Q 1697 3084 1428 2787 
Q 1159 2491 1159 1978 
L 1159 0 
L 581 0 
L 581 4863 
L 1159 4863 
L 1159 2956 
Q 1366 3272 1645 3428 
Q 1925 3584 2291 3584 
Q 2894 3584 3203 3211 
Q 3513 2838 3513 2113 
z
" id="DejaVuSans-68" transform="scale(0.015625)"/>
      <path d="M 684 794 
L 1344 794 
L 1344 0 
L 684 0 
L 684 794 
z
" id="DejaVuSans-2e" transform="scale(0.015625)"/>
      <path d="M 2034 2216 
Q 1584 2216 1326 1975 
Q 1069 1734 1069 1313 
Q 1069 891 1326 650 
Q 1584 409 2034 409 
Q 2484 409 2743 651 
Q 3003 894 3003 1313 
Q 3003 1734 2745 1975 
Q 2488 2216 2034 2216 
z
M 1403 2484 
Q 997 2584 770 2862 
Q 544 3141 544 3541 
Q 544 4100 942 4425 
Q 1341 4750 2034 4750 
Q 2731 4750 3128 4425 
Q 3525 4100 3525 3541 
Q 3525 3141 3298 2862 
Q 3072 2584 2669 2484 
Q 3125 2378 3379 2068 
Q 3634 1759 3634 1313 
Q 3634 634 3220 271 
Q 2806 -91 2034 -91 
Q 1263 -91 848 271 
Q 434 634 434 1313 
Q 434 1759 690 2068 
Q 947 2378 1403 2484 
z
M 1172 3481 
Q 1172 3119 1398 2916 
Q 1625 2713 2034 2713 
Q 2441 2713 2670 2916 
Q 2900 3119 2900 3481 
Q 2900 3844 2670 4047 
Q 2441 4250 2034 4250 
Q 1625 4250 1398 4047 
Q 1172 3844 1172 3481 
z
" id="DejaVuSans-38" transform="scale(0.015625)"/>
      <path d="M 2419 4116 
L 825 1625 
L 2419 1625 
L 2419 4116 
z
M 2253 4666 
L 3047 4666 
L 3047 1625 
L 3713 1625 
L 3713 1100 
L 3047 1100 
L 3047 0 
L 2419 0 
L 2419 1100 
L 313 1100 
L 313 1709 
L 2253 4666 
z
" id="DejaVuSans-34" transform="scale(0.015625)"/>
      <path d="M 2113 2584 
Q 1688 2584 1439 2293 
Q 1191 2003 1191 1497 
Q 1191 994 1439 701 
Q 1688 409 2113 409 
Q 2538 409 2786 701 
Q 3034 994 3034 1497 
Q 3034 2003 2786 2293 
Q 2538 2584 2113 2584 
z
M 3366 4563 
L 3366 3988 
Q 3128 4100 2886 4159 
Q 2644 4219 2406 4219 
Q 1781 4219 1451 3797 
Q 1122 3375 1075 2522 
Q 1259 2794 1537 2939 
Q 1816 3084 2150 3084 
Q 2853 3084 3261 2657 
Q 3669 2231 3669 1497 
Q 3669 778 3244 343 
Q 2819 -91 2113 -91 
Q 1303 -91 875 529 
Q 447 1150 447 2328 
Q 447 3434 972 4092 
Q 1497 4750 2381 4750 
Q 2619 4750 2861 4703 
Q 3103 4656 3366 4563 
z
" id="DejaVuSans-36" transform="scale(0.015625)"/>
      <path d="M 525 4666 
L 3525 4666 
L 3525 4397 
L 1831 0 
L 1172 0 
L 2766 4134 
L 525 4134 
L 525 4666 
z
" id="DejaVuSans-37" transform="scale(0.015625)"/>
     </defs>
     <use xlink:href="#DejaVuSans-69"/>
     <use x="27.783203" xlink:href="#DejaVuSans-6e"/>
     <use x="91.162109" xlink:href="#DejaVuSans-73"/>
     <use x="143.261719" xlink:href="#DejaVuSans-74"/>
     <use x="182.470703" xlink:href="#DejaVuSans-61"/>
     <use x="243.75" xlink:href="#DejaVuSans-6e"/>
     <use x="307.128906" xlink:href="#DejaVuSans-63"/>
     <use x="362.109375" xlink:href="#DejaVuSans-65"/>
     <use x="423.632812" xlink:href="#DejaVuSans-20"/>
     <use x="455.419922" xlink:href="#DejaVuSans-39"/>
     <use x="519.042969" xlink:href="#DejaVuSans-20"/>
     <use x="550.830078" xlink:href="#DejaVuSans-77"/>
     <use x="632.617188" xlink:href="#DejaVuSans-69"/>
     <use x="660.400391" xlink:href="#DejaVuSans-74"/>
     <use x="699.609375" xlink:href="#DejaVuSans-68"/>
     <use x="762.988281" xlink:href="#DejaVuSans-20"/>
     <use x="794.775391" xlink:href="#DejaVuSans-65"/>
     <use x="856.298828" xlink:href="#DejaVuSans-72"/>
     <use x="895.662109" xlink:href="#DejaVuSans-72"/>
     <use x="934.525391" xlink:href="#DejaVuSans-6f"/>
     <use x="995.707031" xlink:href="#DejaVuSans-72"/>
     <use x="1036.820312" xlink:href="#DejaVuSans-20"/>
     <use x="1068.607422" xlink:href="#DejaVuSans-30"/>
     <use x="1132.230469" xlink:href="#DejaVuSans-2e"/>
     <use x="1164.017578" xlink:href="#DejaVuSans-30"/>
     <use x="1227.640625" xlink:href="#DejaVuSans-35"/>
     <use x="1291.263672" xlink:href="#DejaVuSans-33"/>
     <use x="1354.886719" xlink:href="#DejaVuSans-38"/>
     <use x="1418.509766" xlink:href="#DejaVuSans-34"/>
     <use x="1482.132812" xlink:href="#DejaVuSans-38"/>
     <use x="1545.755859" xlink:href="#DejaVuSans-36"/>
     <use x="1609.378906" xlink:href="#DejaVuSans-37"/>
     <use x="1673.001953" xlink:href="#DejaVuSans-33"/>
     <use x="1736.625" xlink:href="#DejaVuSans-34"/>
     <use x="1800.248047" xlink:href="#DejaVuSans-33"/>
     <use x="1863.871094" xlink:href="#DejaVuSans-35"/>
     <use x="1927.494141" xlink:href="#DejaVuSans-39"/>
     <use x="1991.117188" xlink:href="#DejaVuSans-36"/>
     <use x="2054.740234" xlink:href="#DejaVuSans-34"/>
     <use x="2118.363281" xlink:href="#DejaVuSans-36"/>
     <use x="2181.986328" xlink:href="#DejaVuSans-37"/>
    </g>
   </g>
   <g id="legend_1">
    <g id="patch_7">
     <path d="M 805.348438 499 
L 900.2 499 
Q 902.2 499 902.2 497 
L 902.2 453.965625 
Q 902.2 451.965625 900.2 451.965625 
L 805.348438 451.965625 
Q 803.348438 451.965625 803.348438 453.965625 
L 803.348438 497 
Q 803.348438 499 805.348438 499 
z
" style="opacity:0.8;stroke:#cccccc;stroke-linejoin:miter;"/>
    </g>
    <g id="line2d_19">
     <path d="M 807.348438 460.064062 
L 827.348438 460.064062 
" style="fill:none;stroke:#8dd3c7;stroke-linecap:square;stroke-width:1.5;"/>
    </g>
    <g id="line2d_20"/>
    <g id="text_18">
     <!-- cost -->
     <g style="fill:#ffffff;" transform="translate(835.348438 463.564062)scale(0.1 -0.1)">
      <use xlink:href="#DejaVuSans-63"/>
      <use x="54.980469" xlink:href="#DejaVuSans-6f"/>
      <use x="116.162109" xlink:href="#DejaVuSans-73"/>
      <use x="168.261719" xlink:href="#DejaVuSans-74"/>
     </g>
    </g>
    <g id="line2d_21">
     <path d="M 807.348438 474.742188 
L 827.348438 474.742188 
" style="fill:none;stroke:#feffb3;stroke-linecap:square;stroke-width:1.5;"/>
    </g>
    <g id="line2d_22"/>
    <g id="text_19">
     <!-- best cost -->
     <g style="fill:#ffffff;" transform="translate(835.348438 478.242188)scale(0.1 -0.1)">
      <defs>
       <path d="M 3116 1747 
Q 3116 2381 2855 2742 
Q 2594 3103 2138 3103 
Q 1681 3103 1420 2742 
Q 1159 2381 1159 1747 
Q 1159 1113 1420 752 
Q 1681 391 2138 391 
Q 2594 391 2855 752 
Q 3116 1113 3116 1747 
z
M 1159 2969 
Q 1341 3281 1617 3432 
Q 1894 3584 2278 3584 
Q 2916 3584 3314 3078 
Q 3713 2572 3713 1747 
Q 3713 922 3314 415 
Q 2916 -91 2278 -91 
Q 1894 -91 1617 61 
Q 1341 213 1159 525 
L 1159 0 
L 581 0 
L 581 4863 
L 1159 4863 
L 1159 2969 
z
" id="DejaVuSans-62" transform="scale(0.015625)"/>
      </defs>
      <use xlink:href="#DejaVuSans-62"/>
      <use x="63.476562" xlink:href="#DejaVuSans-65"/>
      <use x="125" xlink:href="#DejaVuSans-73"/>
      <use x="177.099609" xlink:href="#DejaVuSans-74"/>
      <use x="216.308594" xlink:href="#DejaVuSans-20"/>
      <use x="248.095703" xlink:href="#DejaVuSans-63"/>
      <use x="303.076172" xlink:href="#DejaVuSans-6f"/>
      <use x="364.257812" xlink:href="#DejaVuSans-73"/>
      <use x="416.357422" xlink:href="#DejaVuSans-74"/>
     </g>
    </g>
    <g id="line2d_23">
     <path d="M 807.348438 489.420313 
L 827.348438 489.420313 
" style="fill:none;stroke:#bfbbd9;stroke-linecap:square;stroke-width:1.5;"/>
    </g>
    <g id="line2d_24"/>
    <g id="text_20">
     <!-- temperature -->
     <g style="fill:#ffffff;" transform="translate(835.348438 492.920313)scale(0.1 -0.1)">
      <defs>
       <path d="M 3328 2828 
Q 3544 3216 3844 3400 
Q 4144 3584 4550 3584 
Q 5097 3584 5394 3201 
Q 5691 2819 5691 2113 
L 5691 0 
L 5113 0 
L 5113 2094 
Q 5113 2597 4934 2840 
Q 4756 3084 4391 3084 
Q 3944 3084 3684 2787 
Q 3425 2491 3425 1978 
L 3425 0 
L 2847 0 
L 2847 2094 
Q 2847 2600 2669 2842 
Q 2491 3084 2119 3084 
Q 1678 3084 1418 2786 
Q 1159 2488 1159 1978 
L 1159 0 
L 581 0 
L 581 3500 
L 1159 3500 
L 1159 2956 
Q 1356 3278 1631 3431 
Q 1906 3584 2284 3584 
Q 2666 3584 2933 3390 
Q 3200 3197 3328 2828 
z
" id="DejaVuSans-6d" transform="scale(0.015625)"/>
       <path d="M 1159 525 
L 1159 -1331 
L 581 -1331 
L 581 3500 
L 1159 3500 
L 1159 2969 
Q 1341 3281 1617 3432 
Q 1894 3584 2278 3584 
Q 2916 3584 3314 3078 
Q 3713 2572 3713 1747 
Q 3713 922 3314 415 
Q 2916 -91 2278 -91 
Q 1894 -91 1617 61 
Q 1341 213 1159 525 
z
M 3116 1747 
Q 3116 2381 2855 2742 
Q 2594 3103 2138 3103 
Q 1681 3103 1420 2742 
Q 1159 2381 1159 1747 
Q 1159 1113 1420 752 
Q 1681 391 2138 391 
Q 2594 391 2855 752 
Q 3116 1113 3116 1747 
z
" id="DejaVuSans-70" transform="scale(0.015625)"/>
       <path d="M 544 1381 
L 544 3500 
L 1119 3500 
L 1119 1403 
Q 1119 906 1312 657 
Q 1506 409 1894 409 
Q 2359 409 2629 706 
Q 2900 1003 2900 1516 
L 2900 3500 
L 3475 3500 
L 3475 0 
L 2900 0 
L 2900 538 
Q 2691 219 2414 64 
Q 2138 -91 1772 -91 
Q 1169 -91 856 284 
Q 544 659 544 1381 
z
M 1991 3584 
L 1991 3584 
z
" id="DejaVuSans-75" transform="scale(0.015625)"/>
      </defs>
      <use xlink:href="#DejaVuSans-74"/>
      <use x="39.208984" xlink:href="#DejaVuSans-65"/>
      <use x="100.732422" xlink:href="#DejaVuSans-6d"/>
      <use x="198.144531" xlink:href="#DejaVuSans-70"/>
      <use x="261.621094" xlink:href="#DejaVuSans-65"/>
      <use x="323.144531" xlink:href="#DejaVuSans-72"/>
      <use x="364.257812" xlink:href="#DejaVuSans-61"/>
      <use x="425.537109" xlink:href="#DejaVuSans-74"/>
      <use x="464.746094" xlink:href="#DejaVuSans-75"/>
      <use x="528.125" xlink:href="#DejaVuSans-72"/>
      <use x="566.988281" xlink:href="#DejaVuSans-65"/>
     </g>
    </g>
   </g>
  </g>
 </g>
 <defs>
  <clipPath id="p76ebf1a52b">
   <rect height="434.88" width="781.2" x="126" y="69.12"/>
  </clipPath>
 </defs>
</svg>
