<?xml version="1.0" encoding="utf-8" standalone="no"?>
<!DOCTYPE svg PUBLIC "-//W3C//DTD SVG 1.1//EN"
  "http://www.w3.org/Graphics/SVG/1.1/DTD/svg11.dtd">
<svg height="576pt" version="1.1" viewBox="0 0 1008 576" width="1008pt" xmlns="http://www.w3.org/2000/svg" xmlns:xlink="http://www.w3.org/1999/xlink">
 <metadata>
  <rdf:RDF xmlns:cc="http://creativecommons.org/ns#" xmlns:dc="http://purl.org/dc/elements/1.1/" xmlns:rdf="http://www.w3.org/1999/02/22-rdf-syntax-ns#">
   <cc:Work>
    <dc:type rdf:resource="http://purl.org/dc/dcmitype/StillImage"/>
    <dc:date>2022-01-08T01:27:40.314213</dc:date>
    <dc:format>image/svg+xml</dc:format>
    <dc:creator>
     <cc:Agent>
      <dc:title>Matplotlib v3.4.3, https://matplotlib.org/</dc:title>
     </cc:Agent>
    </dc:creator>
   </cc:Work>
  </rdf:RDF>
 </metadata>
 <defs>
  <style type="text/css">*{stroke-linecap:butt;stroke-linejoin:round;}</style>
 </defs>
 <g id="figure_1">
  <g id="patch_1">
   <path d="M 0 576 
L 1008 576 
L 1008 0 
L 0 0 
z
"/>
  </g>
  <g id="axes_1">
   <g id="patch_2">
    <path d="M 126 504 
L 907.2 504 
L 907.2 69.12 
L 126 69.12 
z
"/>
   </g>
   <g id="matplotlib.axis_1">
    <g id="xtick_1">
     <g id="line2d_1">
      <defs>
       <path d="M 0 0 
L 0 3.5 
" id="m36e63d4548" style="stroke:#ffffff;stroke-width:0.8;"/>
      </defs>
      <g>
       <use style="fill:#ffffff;stroke:#ffffff;stroke-width:0.8;" x="161.509091" xlink:href="#m36e63d4548" y="504"/>
      </g>
     </g>
     <g id="text_1">
      <!-- 0 -->
      <g style="fill:#ffffff;" transform="translate(158.327841 518.598438)scale(0.1 -0.1)">
       <defs>
        <path d="M 2034 4250 
Q 1547 4250 1301 3770 
Q 1056 3291 1056 2328 
Q 1056 1369 1301 889 
Q 1547 409 2034 409 
Q 2525 409 2770 889 
Q 3016 1369 3016 2328 
Q 3016 3291 2770 3770 
Q 2525 4250 2034 4250 
z
M 2034 4750 
Q 2819 4750 3233 4129 
Q 3647 3509 3647 2328 
Q 3647 1150 3233 529 
Q 2819 -91 2034 -91 
Q 1250 -91 836 529 
Q 422 1150 422 2328 
Q 422 3509 836 4129 
Q 1250 4750 2034 4750 
z
" id="DejaVuSans-30" transform="scale(0.015625)"/>
       </defs>
       <use xlink:href="#DejaVuSans-30"/>
      </g>
     </g>
    </g>
    <g id="xtick_2">
     <g id="line2d_2">
      <g>
       <use style="fill:#ffffff;stroke:#ffffff;stroke-width:0.8;" x="261.959136" xlink:href="#m36e63d4548" y="504"/>
      </g>
     </g>
     <g id="text_2">
      <!-- 500 -->
      <g style="fill:#ffffff;" transform="translate(252.415386 518.598438)scale(0.1 -0.1)">
       <defs>
        <path d="M 691 4666 
L 3169 4666 
L 3169 4134 
L 1269 4134 
L 1269 2991 
Q 1406 3038 1543 3061 
Q 1681 3084 1819 3084 
Q 2600 3084 3056 2656 
Q 3513 2228 3513 1497 
Q 3513 744 3044 326 
Q 2575 -91 1722 -91 
Q 1428 -91 1123 -41 
Q 819 9 494 109 
L 494 744 
Q 775 591 1075 516 
Q 1375 441 1709 441 
Q 2250 441 2565 725 
Q 2881 1009 2881 1497 
Q 2881 1984 2565 2268 
Q 2250 2553 1709 2553 
Q 1456 2553 1204 2497 
Q 953 2441 691 2322 
L 691 4666 
z
" id="DejaVuSans-35" transform="scale(0.015625)"/>
       </defs>
       <use xlink:href="#DejaVuSans-35"/>
       <use x="63.623047" xlink:href="#DejaVuSans-30"/>
       <use x="127.246094" xlink:href="#DejaVuSans-30"/>
      </g>
     </g>
    </g>
    <g id="xtick_3">
     <g id="line2d_3">
      <g>
       <use style="fill:#ffffff;stroke:#ffffff;stroke-width:0.8;" x="362.409181" xlink:href="#m36e63d4548" y="504"/>
      </g>
     </g>
     <g id="text_3">
      <!-- 1000 -->
      <g style="fill:#ffffff;" transform="translate(349.684181 518.598438)scale(0.1 -0.1)">
       <defs>
        <path d="M 794 531 
L 1825 531 
L 1825 4091 
L 703 3866 
L 703 4441 
L 1819 4666 
L 2450 4666 
L 2450 531 
L 3481 531 
L 3481 0 
L 794 0 
L 794 531 
z
" id="DejaVuSans-31" transform="scale(0.015625)"/>
       </defs>
       <use xlink:href="#DejaVuSans-31"/>
       <use x="63.623047" xlink:href="#DejaVuSans-30"/>
       <use x="127.246094" xlink:href="#DejaVuSans-30"/>
       <use x="190.869141" xlink:href="#DejaVuSans-30"/>
      </g>
     </g>
    </g>
    <g id="xtick_4">
     <g id="line2d_4">
      <g>
       <use style="fill:#ffffff;stroke:#ffffff;stroke-width:0.8;" x="462.859226" xlink:href="#m36e63d4548" y="504"/>
      </g>
     </g>
     <g id="text_4">
      <!-- 1500 -->
      <g style="fill:#ffffff;" transform="translate(450.134226 518.598438)scale(0.1 -0.1)">
       <use xlink:href="#DejaVuSans-31"/>
       <use x="63.623047" xlink:href="#DejaVuSans-35"/>
       <use x="127.246094" xlink:href="#DejaVuSans-30"/>
       <use x="190.869141" xlink:href="#DejaVuSans-30"/>
      </g>
     </g>
    </g>
    <g id="xtick_5">
     <g id="line2d_5">
      <g>
       <use style="fill:#ffffff;stroke:#ffffff;stroke-width:0.8;" x="563.309271" xlink:href="#m36e63d4548" y="504"/>
      </g>
     </g>
     <g id="text_5">
      <!-- 2000 -->
      <g style="fill:#ffffff;" transform="translate(550.584271 518.598438)scale(0.1 -0.1)">
       <defs>
        <path d="M 1228 531 
L 3431 531 
L 3431 0 
L 469 0 
L 469 531 
Q 828 903 1448 1529 
Q 2069 2156 2228 2338 
Q 2531 2678 2651 2914 
Q 2772 3150 2772 3378 
Q 2772 3750 2511 3984 
Q 2250 4219 1831 4219 
Q 1534 4219 1204 4116 
Q 875 4013 500 3803 
L 500 4441 
Q 881 4594 1212 4672 
Q 1544 4750 1819 4750 
Q 2544 4750 2975 4387 
Q 3406 4025 3406 3419 
Q 3406 3131 3298 2873 
Q 3191 2616 2906 2266 
Q 2828 2175 2409 1742 
Q 1991 1309 1228 531 
z
" id="DejaVuSans-32" transform="scale(0.015625)"/>
       </defs>
       <use xlink:href="#DejaVuSans-32"/>
       <use x="63.623047" xlink:href="#DejaVuSans-30"/>
       <use x="127.246094" xlink:href="#DejaVuSans-30"/>
       <use x="190.869141" xlink:href="#DejaVuSans-30"/>
      </g>
     </g>
    </g>
    <g id="xtick_6">
     <g id="line2d_6">
      <g>
       <use style="fill:#ffffff;stroke:#ffffff;stroke-width:0.8;" x="663.759316" xlink:href="#m36e63d4548" y="504"/>
      </g>
     </g>
     <g id="text_6">
      <!-- 2500 -->
      <g style="fill:#ffffff;" transform="translate(651.034316 518.598438)scale(0.1 -0.1)">
       <use xlink:href="#DejaVuSans-32"/>
       <use x="63.623047" xlink:href="#DejaVuSans-35"/>
       <use x="127.246094" xlink:href="#DejaVuSans-30"/>
       <use x="190.869141" xlink:href="#DejaVuSans-30"/>
      </g>
     </g>
    </g>
    <g id="xtick_7">
     <g id="line2d_7">
      <g>
       <use style="fill:#ffffff;stroke:#ffffff;stroke-width:0.8;" x="764.209361" xlink:href="#m36e63d4548" y="504"/>
      </g>
     </g>
     <g id="text_7">
      <!-- 3000 -->
      <g style="fill:#ffffff;" transform="translate(751.484361 518.598438)scale(0.1 -0.1)">
       <defs>
        <path d="M 2597 2516 
Q 3050 2419 3304 2112 
Q 3559 1806 3559 1356 
Q 3559 666 3084 287 
Q 2609 -91 1734 -91 
Q 1441 -91 1130 -33 
Q 819 25 488 141 
L 488 750 
Q 750 597 1062 519 
Q 1375 441 1716 441 
Q 2309 441 2620 675 
Q 2931 909 2931 1356 
Q 2931 1769 2642 2001 
Q 2353 2234 1838 2234 
L 1294 2234 
L 1294 2753 
L 1863 2753 
Q 2328 2753 2575 2939 
Q 2822 3125 2822 3475 
Q 2822 3834 2567 4026 
Q 2313 4219 1838 4219 
Q 1578 4219 1281 4162 
Q 984 4106 628 3988 
L 628 4550 
Q 988 4650 1302 4700 
Q 1616 4750 1894 4750 
Q 2613 4750 3031 4423 
Q 3450 4097 3450 3541 
Q 3450 3153 3228 2886 
Q 3006 2619 2597 2516 
z
" id="DejaVuSans-33" transform="scale(0.015625)"/>
       </defs>
       <use xlink:href="#DejaVuSans-33"/>
       <use x="63.623047" xlink:href="#DejaVuSans-30"/>
       <use x="127.246094" xlink:href="#DejaVuSans-30"/>
       <use x="190.869141" xlink:href="#DejaVuSans-30"/>
      </g>
     </g>
    </g>
    <g id="xtick_8">
     <g id="line2d_8">
      <g>
       <use style="fill:#ffffff;stroke:#ffffff;stroke-width:0.8;" x="864.659406" xlink:href="#m36e63d4548" y="504"/>
      </g>
     </g>
     <g id="text_8">
      <!-- 3500 -->
      <g style="fill:#ffffff;" transform="translate(851.934406 518.598438)scale(0.1 -0.1)">
       <use xlink:href="#DejaVuSans-33"/>
       <use x="63.623047" xlink:href="#DejaVuSans-35"/>
       <use x="127.246094" xlink:href="#DejaVuSans-30"/>
       <use x="190.869141" xlink:href="#DejaVuSans-30"/>
      </g>
     </g>
    </g>
    <g id="text_9">
     <!-- iteration -->
     <g style="fill:#ffffff;" transform="translate(495.477344 532.276562)scale(0.1 -0.1)">
      <defs>
       <path d="M 603 3500 
L 1178 3500 
L 1178 0 
L 603 0 
L 603 3500 
z
M 603 4863 
L 1178 4863 
L 1178 4134 
L 603 4134 
L 603 4863 
z
" id="DejaVuSans-69" transform="scale(0.015625)"/>
       <path d="M 1172 4494 
L 1172 3500 
L 2356 3500 
L 2356 3053 
L 1172 3053 
L 1172 1153 
Q 1172 725 1289 603 
Q 1406 481 1766 481 
L 2356 481 
L 2356 0 
L 1766 0 
Q 1100 0 847 248 
Q 594 497 594 1153 
L 594 3053 
L 172 3053 
L 172 3500 
L 594 3500 
L 594 4494 
L 1172 4494 
z
" id="DejaVuSans-74" transform="scale(0.015625)"/>
       <path d="M 3597 1894 
L 3597 1613 
L 953 1613 
Q 991 1019 1311 708 
Q 1631 397 2203 397 
Q 2534 397 2845 478 
Q 3156 559 3463 722 
L 3463 178 
Q 3153 47 2828 -22 
Q 2503 -91 2169 -91 
Q 1331 -91 842 396 
Q 353 884 353 1716 
Q 353 2575 817 3079 
Q 1281 3584 2069 3584 
Q 2775 3584 3186 3129 
Q 3597 2675 3597 1894 
z
M 3022 2063 
Q 3016 2534 2758 2815 
Q 2500 3097 2075 3097 
Q 1594 3097 1305 2825 
Q 1016 2553 972 2059 
L 3022 2063 
z
" id="DejaVuSans-65" transform="scale(0.015625)"/>
       <path d="M 2631 2963 
Q 2534 3019 2420 3045 
Q 2306 3072 2169 3072 
Q 1681 3072 1420 2755 
Q 1159 2438 1159 1844 
L 1159 0 
L 581 0 
L 581 3500 
L 1159 3500 
L 1159 2956 
Q 1341 3275 1631 3429 
Q 1922 3584 2338 3584 
Q 2397 3584 2469 3576 
Q 2541 3569 2628 3553 
L 2631 2963 
z
" id="DejaVuSans-72" transform="scale(0.015625)"/>
       <path d="M 2194 1759 
Q 1497 1759 1228 1600 
Q 959 1441 959 1056 
Q 959 750 1161 570 
Q 1363 391 1709 391 
Q 2188 391 2477 730 
Q 2766 1069 2766 1631 
L 2766 1759 
L 2194 1759 
z
M 3341 1997 
L 3341 0 
L 2766 0 
L 2766 531 
Q 2569 213 2275 61 
Q 1981 -91 1556 -91 
Q 1019 -91 701 211 
Q 384 513 384 1019 
Q 384 1609 779 1909 
Q 1175 2209 1959 2209 
L 2766 2209 
L 2766 2266 
Q 2766 2663 2505 2880 
Q 2244 3097 1772 3097 
Q 1472 3097 1187 3025 
Q 903 2953 641 2809 
L 641 3341 
Q 956 3463 1253 3523 
Q 1550 3584 1831 3584 
Q 2591 3584 2966 3190 
Q 3341 2797 3341 1997 
z
" id="DejaVuSans-61" transform="scale(0.015625)"/>
       <path d="M 1959 3097 
Q 1497 3097 1228 2736 
Q 959 2375 959 1747 
Q 959 1119 1226 758 
Q 1494 397 1959 397 
Q 2419 397 2687 759 
Q 2956 1122 2956 1747 
Q 2956 2369 2687 2733 
Q 2419 3097 1959 3097 
z
M 1959 3584 
Q 2709 3584 3137 3096 
Q 3566 2609 3566 1747 
Q 3566 888 3137 398 
Q 2709 -91 1959 -91 
Q 1206 -91 779 398 
Q 353 888 353 1747 
Q 353 2609 779 3096 
Q 1206 3584 1959 3584 
z
" id="DejaVuSans-6f" transform="scale(0.015625)"/>
       <path d="M 3513 2113 
L 3513 0 
L 2938 0 
L 2938 2094 
Q 2938 2591 2744 2837 
Q 2550 3084 2163 3084 
Q 1697 3084 1428 2787 
Q 1159 2491 1159 1978 
L 1159 0 
L 581 0 
L 581 3500 
L 1159 3500 
L 1159 2956 
Q 1366 3272 1645 3428 
Q 1925 3584 2291 3584 
Q 2894 3584 3203 3211 
Q 3513 2838 3513 2113 
z
" id="DejaVuSans-6e" transform="scale(0.015625)"/>
      </defs>
      <use xlink:href="#DejaVuSans-69"/>
      <use x="27.783203" xlink:href="#DejaVuSans-74"/>
      <use x="66.992188" xlink:href="#DejaVuSans-65"/>
      <use x="128.515625" xlink:href="#DejaVuSans-72"/>
      <use x="169.628906" xlink:href="#DejaVuSans-61"/>
      <use x="230.908203" xlink:href="#DejaVuSans-74"/>
      <use x="270.117188" xlink:href="#DejaVuSans-69"/>
      <use x="297.900391" xlink:href="#DejaVuSans-6f"/>
      <use x="359.082031" xlink:href="#DejaVuSans-6e"/>
     </g>
    </g>
   </g>
   <g id="matplotlib.axis_2">
    <g id="ytick_1">
     <g id="line2d_9">
      <defs>
       <path d="M 0 0 
L -3.5 0 
" id="m1548a717a5" style="stroke:#ffffff;stroke-width:0.8;"/>
      </defs>
      <g>
       <use style="fill:#ffffff;stroke:#ffffff;stroke-width:0.8;" x="126" xlink:href="#m1548a717a5" y="484.232727"/>
      </g>
     </g>
     <g id="text_10">
      <!-- 0 -->
      <g style="fill:#ffffff;" transform="translate(112.6375 488.031946)scale(0.1 -0.1)">
       <use xlink:href="#DejaVuSans-30"/>
      </g>
     </g>
    </g>
    <g id="ytick_2">
     <g id="line2d_10">
      <g>
       <use style="fill:#ffffff;stroke:#ffffff;stroke-width:0.8;" x="126" xlink:href="#m1548a717a5" y="431.807987"/>
      </g>
     </g>
     <g id="text_11">
      <!-- 5000 -->
      <g style="fill:#ffffff;" transform="translate(93.55 435.607205)scale(0.1 -0.1)">
       <use xlink:href="#DejaVuSans-35"/>
       <use x="63.623047" xlink:href="#DejaVuSans-30"/>
       <use x="127.246094" xlink:href="#DejaVuSans-30"/>
       <use x="190.869141" xlink:href="#DejaVuSans-30"/>
      </g>
     </g>
    </g>
    <g id="ytick_3">
     <g id="line2d_11">
      <g>
       <use style="fill:#ffffff;stroke:#ffffff;stroke-width:0.8;" x="126" xlink:href="#m1548a717a5" y="379.383246"/>
      </g>
     </g>
     <g id="text_12">
      <!-- 10000 -->
      <g style="fill:#ffffff;" transform="translate(87.1875 383.182465)scale(0.1 -0.1)">
       <use xlink:href="#DejaVuSans-31"/>
       <use x="63.623047" xlink:href="#DejaVuSans-30"/>
       <use x="127.246094" xlink:href="#DejaVuSans-30"/>
       <use x="190.869141" xlink:href="#DejaVuSans-30"/>
       <use x="254.492188" xlink:href="#DejaVuSans-30"/>
      </g>
     </g>
    </g>
    <g id="ytick_4">
     <g id="line2d_12">
      <g>
       <use style="fill:#ffffff;stroke:#ffffff;stroke-width:0.8;" x="126" xlink:href="#m1548a717a5" y="326.958505"/>
      </g>
     </g>
     <g id="text_13">
      <!-- 15000 -->
      <g style="fill:#ffffff;" transform="translate(87.1875 330.757724)scale(0.1 -0.1)">
       <use xlink:href="#DejaVuSans-31"/>
       <use x="63.623047" xlink:href="#DejaVuSans-35"/>
       <use x="127.246094" xlink:href="#DejaVuSans-30"/>
       <use x="190.869141" xlink:href="#DejaVuSans-30"/>
       <use x="254.492188" xlink:href="#DejaVuSans-30"/>
      </g>
     </g>
    </g>
    <g id="ytick_5">
     <g id="line2d_13">
      <g>
       <use style="fill:#ffffff;stroke:#ffffff;stroke-width:0.8;" x="126" xlink:href="#m1548a717a5" y="274.533765"/>
      </g>
     </g>
     <g id="text_14">
      <!-- 20000 -->
      <g style="fill:#ffffff;" transform="translate(87.1875 278.332983)scale(0.1 -0.1)">
       <use xlink:href="#DejaVuSans-32"/>
       <use x="63.623047" xlink:href="#DejaVuSans-30"/>
       <use x="127.246094" xlink:href="#DejaVuSans-30"/>
       <use x="190.869141" xlink:href="#DejaVuSans-30"/>
       <use x="254.492188" xlink:href="#DejaVuSans-30"/>
      </g>
     </g>
    </g>
    <g id="ytick_6">
     <g id="line2d_14">
      <g>
       <use style="fill:#ffffff;stroke:#ffffff;stroke-width:0.8;" x="126" xlink:href="#m1548a717a5" y="222.109024"/>
      </g>
     </g>
     <g id="text_15">
      <!-- 25000 -->
      <g style="fill:#ffffff;" transform="translate(87.1875 225.908243)scale(0.1 -0.1)">
       <use xlink:href="#DejaVuSans-32"/>
       <use x="63.623047" xlink:href="#DejaVuSans-35"/>
       <use x="127.246094" xlink:href="#DejaVuSans-30"/>
       <use x="190.869141" xlink:href="#DejaVuSans-30"/>
       <use x="254.492188" xlink:href="#DejaVuSans-30"/>
      </g>
     </g>
    </g>
    <g id="ytick_7">
     <g id="line2d_15">
      <g>
       <use style="fill:#ffffff;stroke:#ffffff;stroke-width:0.8;" x="126" xlink:href="#m1548a717a5" y="169.684283"/>
      </g>
     </g>
     <g id="text_16">
      <!-- 30000 -->
      <g style="fill:#ffffff;" transform="translate(87.1875 173.483502)scale(0.1 -0.1)">
       <use xlink:href="#DejaVuSans-33"/>
       <use x="63.623047" xlink:href="#DejaVuSans-30"/>
       <use x="127.246094" xlink:href="#DejaVuSans-30"/>
       <use x="190.869141" xlink:href="#DejaVuSans-30"/>
       <use x="254.492188" xlink:href="#DejaVuSans-30"/>
      </g>
     </g>
    </g>
    <g id="ytick_8">
     <g id="line2d_16">
      <g>
       <use style="fill:#ffffff;stroke:#ffffff;stroke-width:0.8;" x="126" xlink:href="#m1548a717a5" y="117.259542"/>
      </g>
     </g>
     <g id="text_17">
      <!-- 35000 -->
      <g style="fill:#ffffff;" transform="translate(87.1875 121.058761)scale(0.1 -0.1)">
       <use xlink:href="#DejaVuSans-33"/>
       <use x="63.623047" xlink:href="#DejaVuSans-35"/>
       <use x="127.246094" xlink:href="#DejaVuSans-30"/>
       <use x="190.869141" xlink:href="#DejaVuSans-30"/>
       <use x="254.492188" xlink:href="#DejaVuSans-30"/>
      </g>
     </g>
    </g>
   </g>
   <g id="line2d_17">
    <path clip-path="url(#p810f00433d)" d="M 161.509091 223.283338 
L 161.709991 240.122165 
L 161.910891 242.711947 
L 162.111791 256.23753 
L 162.513591 236.368553 
L 162.714491 233.778771 
L 162.915392 254.507514 
L 163.116292 244.567783 
L 163.718992 277.196941 
L 163.919892 269.217896 
L 164.120792 291.917809 
L 164.321692 281.925653 
L 164.522592 265.086826 
L 164.924392 304.814295 
L 165.326193 328.279609 
L 165.527093 345.118435 
L 165.727993 320.384443 
L 165.928893 345.118435 
L 166.129793 339.687232 
L 166.330693 319.923105 
L 166.531593 325.658372 
L 166.732493 345.422499 
L 167.335194 285.5849 
L 167.736994 322.345128 
L 168.138794 340.316329 
L 168.339694 275.026557 
L 168.540594 274.114367 
L 168.741494 292.777574 
L 168.942394 298.512841 
L 169.143294 309.312338 
L 169.344194 300.882439 
L 169.545095 276.567844 
L 169.745995 283.404031 
L 170.348695 226.072334 
L 170.549595 253.500959 
L 170.750495 249.149705 
L 170.951395 272.877143 
L 171.353195 243.739472 
L 171.554095 259.917747 
L 171.754995 262.727713 
L 171.955896 271.157611 
L 172.357696 316.138039 
L 172.558596 309.301853 
L 172.759496 285.574415 
L 173.161296 327.503723 
L 173.362196 313.978139 
L 173.763996 266.019987 
L 173.964896 289.244147 
L 174.165797 294.224497 
L 174.567597 279.650419 
L 174.768497 285.385686 
L 175.170297 245.700157 
L 175.371197 228.86133 
L 175.572097 252.085491 
L 175.772997 249.495708 
L 175.973897 249.013401 
L 176.174797 240.583502 
L 176.375698 244.148385 
L 176.576598 254.14054 
L 176.777498 269.993782 
L 176.978398 267.330605 
L 177.179298 244.630692 
L 177.380198 234.638537 
L 177.581098 211.414377 
L 177.781998 238.392148 
L 177.982898 222.538907 
L 178.183798 225.191599 
L 178.384698 240.258469 
L 178.585599 216.531031 
L 178.786499 232.384273 
L 179.188299 198.308192 
L 179.590099 238.622817 
L 179.790999 215.922904 
L 179.991899 222.759091 
L 180.192799 217.936014 
L 180.393699 235.424908 
L 180.594599 231.346263 
L 180.7955 209.348842 
L 180.9964 225.810211 
L 181.3982 191.734129 
L 181.8 236.190309 
L 182.0009 223.021214 
L 182.4027 246.182465 
L 182.6036 225.93603 
L 182.8045 233.915075 
L 183.206301 206.465481 
L 183.407201 213.186333 
L 183.809001 262.392195 
L 184.210801 301.847054 
L 184.411701 304.510231 
L 184.813501 267.44594 
L 185.014401 260.609753 
L 185.215302 278.224466 
L 185.416202 256.782747 
L 185.617102 280.006907 
L 186.018902 256.940022 
L 186.219802 256.940022 
L 186.420702 265.36992 
L 186.621602 265.36992 
L 186.822502 256.940022 
L 187.023402 263.776208 
L 187.224302 282.921723 
L 187.425203 287.744799 
L 187.626103 296.174698 
L 187.827003 279.335871 
L 188.027903 290.051488 
L 188.228803 269.805053 
L 188.630603 314.78548 
L 189.233303 256.111711 
L 189.434203 271.178581 
L 189.836004 282.345051 
L 190.036904 279.681874 
L 190.237804 296.520701 
L 190.438704 293.868009 
L 190.639604 307.393592 
L 190.840504 332.127585 
L 191.041404 342.843202 
L 191.242304 363.005757 
L 191.443204 352.29014 
L 192.045905 299.246787 
L 192.246805 301.899479 
L 192.447705 314.250748 
L 192.648605 308.515481 
L 192.849505 291.676655 
L 193.050405 294.339832 
L 193.251305 304.331987 
L 193.452205 327.556147 
L 194.255806 259.844352 
L 194.456706 265.579619 
L 194.657606 245.333184 
L 194.858506 239.901981 
L 195.059406 239.901981 
L 195.863006 300.546921 
L 196.465707 234.565142 
L 196.666607 250.743417 
L 196.867507 256.478684 
L 197.269307 211.257102 
L 197.470207 221.249258 
L 197.671107 208.080163 
L 197.872007 222.255813 
L 198.273807 229.742066 
L 198.474707 222.90588 
L 198.675608 246.633318 
L 198.876508 229.794491 
L 199.077408 224.363288 
L 199.278308 239.430158 
L 199.479208 236.766981 
L 199.680108 259.466894 
L 200.081908 272.300471 
L 200.282808 261.154971 
L 200.483708 263.818148 
L 200.684608 258.082881 
L 200.885509 235.382968 
L 201.086409 250.806327 
L 201.689109 203.74988 
L 202.090909 221.647686 
L 202.492709 207.482521 
L 202.693609 217.422252 
L 202.894509 242.156245 
L 203.09541 231.356748 
L 203.29631 255.671343 
L 203.69811 206.622755 
L 203.89901 213.458942 
L 204.09991 203.466786 
L 204.30081 185.852073 
L 204.50171 191.283276 
L 204.70261 173.825838 
L 204.90351 188.892708 
L 205.10441 322.974225 
L 205.305311 333.689842 
L 205.506211 316.851015 
L 205.908011 362.020172 
L 206.108911 366.843248 
L 206.309811 374.822294 
L 206.510711 234.649022 
L 206.711611 261.459034 
L 206.912511 264.143181 
L 207.716112 322.670161 
L 208.117912 350.874672 
L 208.318812 342.444774 
L 208.519712 319.220614 
L 208.720612 327.650512 
L 208.921512 305.653091 
L 209.122412 297.674045 
L 209.323312 315.131484 
L 209.725113 284.56786 
L 210.126913 314.554812 
L 210.327813 297.097373 
L 210.528713 307.037104 
L 211.131413 262.371225 
L 211.533213 236.987165 
L 211.734113 212.67257 
L 211.935014 254.067146 
L 212.135914 231.367233 
L 212.336814 241.485208 
L 212.738614 229.836431 
L 213.140414 266.491809 
L 213.542214 304.667505 
L 213.743114 312.646551 
L 213.944014 296.468276 
L 214.144914 302.203543 
L 214.345815 318.381818 
L 214.546715 302.203543 
L 214.948515 341.605978 
L 215.350315 308.80906 
L 215.752115 268.31619 
L 216.153915 242.271579 
L 216.354815 255.797162 
L 216.555716 278.497075 
L 217.359316 212.588691 
L 217.560216 230.203404 
L 217.761116 220.263673 
L 217.962016 203.802304 
L 218.162916 227.529742 
L 218.363816 235.508788 
L 218.564716 218.051349 
L 218.765617 235.508788 
L 218.966517 218.669961 
L 219.167417 233.736831 
L 219.569217 213.029059 
L 219.770117 221.458957 
L 219.971017 200.384211 
L 220.171917 193.548025 
L 220.372817 209.7263 
L 220.573717 212.389477 
L 220.774617 207.566401 
L 221.176418 247.10514 
L 221.377318 244.441963 
L 221.779118 264.164151 
L 221.980018 261.500974 
L 222.180918 261.920372 
L 222.381818 263.178566 
L 222.582718 268.913832 
L 222.783618 249.149705 
L 223.185419 283.44597 
L 223.386319 275.466925 
L 223.587219 252.767012 
L 223.788119 267.708063 
L 223.989019 273.44333 
L 224.189919 259.917747 
L 224.390819 269.909902 
L 224.591719 250.145775 
L 224.792619 249.841712 
L 224.993519 255.576978 
L 225.194419 272.038347 
L 225.39532 256.971476 
L 225.59622 251.540273 
L 225.79712 288.143227 
L 225.99802 298.942724 
L 226.19892 290.963678 
L 226.39982 313.044979 
L 226.80162 330.240294 
L 227.00252 317.889025 
L 227.20342 296.447306 
L 227.40432 289.59015 
L 227.806121 246.643802 
L 228.007021 268.085521 
L 228.207921 250.470809 
L 228.810621 292.106538 
L 229.011521 282.166807 
L 229.212421 266.313565 
L 229.413321 271.744768 
L 230.016022 218.680446 
L 230.216922 296.090818 
L 230.618722 276.49445 
L 230.819622 284.924348 
L 231.221422 310.518107 
L 231.422322 289.789364 
L 231.623222 307.267773 
L 231.824122 314.103959 
L 232.025023 296.489246 
L 232.426823 334.832701 
L 232.627723 337.422483 
L 232.828623 326.622987 
L 233.431323 345.160375 
L 234.234923 288.373896 
L 234.435824 285.721204 
L 234.837624 243.791897 
L 235.038524 249.338434 
L 235.239424 232.877066 
L 235.641224 281.338496 
L 235.842124 274.50231 
L 236.043024 298.816904 
L 236.243924 304.248108 
L 236.444824 324.012235 
L 236.645725 326.675412 
L 236.846625 333.511598 
L 237.047525 321.160329 
L 237.248425 301.396202 
L 237.650225 322.544342 
L 238.453825 242.481278 
L 238.654725 258.942647 
L 238.855626 249.002916 
L 239.056526 233.149674 
L 239.257426 250.764387 
L 239.458326 242.785342 
L 239.860126 206.077538 
L 240.061026 213.354092 
L 240.462826 250.061896 
L 240.864626 206.63324 
L 241.266427 234.596597 
L 241.467327 218.135228 
L 241.668227 217.317403 
L 241.869127 220.431432 
L 242.070027 239.576947 
L 242.270927 222.738121 
L 242.471827 296.227122 
L 242.672727 281.894198 
L 242.873627 258.670038 
L 243.074527 264.405305 
L 243.275428 289.139297 
L 243.878128 255.293885 
L 244.279928 227.089374 
L 244.681728 263.671358 
L 244.882628 285.113077 
L 245.083528 262.413164 
L 245.284428 274.764433 
L 245.485329 258.303065 
L 245.686229 282.030502 
L 245.887129 276.295236 
L 246.088029 281.118312 
L 246.288929 300.882439 
L 246.489829 276.148447 
L 246.690729 286.947943 
L 247.092529 273.086842 
L 247.293429 281.065887 
L 247.494329 283.655669 
L 247.89613 238.486513 
L 248.09703 243.917716 
L 248.49883 236.504858 
L 248.69973 239.09464 
L 248.90063 232.258454 
L 249.10153 219.907185 
L 249.30243 199.178442 
L 249.50333 210.051333 
L 249.70423 200.709245 
L 249.905131 183.870418 
L 250.106031 193.862574 
L 250.306931 187.026387 
L 250.909631 250.15626 
L 251.110531 236.630677 
L 251.311431 245.060575 
L 251.512331 258.586158 
L 251.713231 241.12872 
L 252.315932 300.75662 
L 252.918632 242.303034 
L 253.119532 239.639857 
L 253.722232 295.67142 
L 253.923132 310.73829 
L 254.124032 316.169494 
L 254.324932 302.643911 
L 254.525833 280.646489 
L 254.726733 292.997758 
L 254.927633 277.144517 
L 255.128533 296.552156 
L 255.329433 304.971569 
L 255.530333 289.904699 
L 255.731233 310.633441 
L 255.932133 317.469627 
L 256.133033 337.632182 
L 256.333933 332.809106 
L 256.735734 288.856204 
L 257.137534 327.042385 
L 257.338434 329.695077 
L 257.539334 318.89558 
L 257.740234 335.734407 
L 257.941134 325.742251 
L 258.142034 328.332033 
L 258.342934 325.742251 
L 258.543834 303.042339 
L 258.744734 297.307072 
L 258.945635 277.144517 
L 259.146535 274.491825 
L 259.347435 297.191737 
L 259.548335 289.212692 
L 259.749235 286.926973 
L 260.151035 297.632105 
L 260.351935 281.778864 
L 260.753735 310.371317 
L 260.954635 288.373896 
L 261.155536 299.173393 
L 261.356436 289.233662 
L 261.557336 297.212707 
L 261.758236 231.828571 
L 262.360936 278.130102 
L 262.561836 288.929598 
L 262.762736 286.266422 
L 262.963636 286.109147 
L 263.164536 308.106568 
L 263.365437 291.6452 
L 263.767237 315.980765 
L 263.968137 321.411968 
L 264.169037 300.683225 
L 264.369937 311.482722 
L 264.570837 288.258562 
L 264.771737 294.979413 
L 265.173537 332.756682 
L 265.374437 321.957185 
L 265.575338 332.756682 
L 265.977138 309.689796 
L 266.178038 293.511521 
L 266.378938 304.227138 
L 266.579838 295.797239 
L 266.780738 314.942755 
L 267.182538 329.757986 
L 267.383438 327.09481 
L 267.584338 343.933636 
L 267.986139 330.523388 
L 268.187039 313.065949 
L 268.387939 321.044994 
L 268.588839 323.708171 
L 268.789739 333.647902 
L 268.990639 327.912636 
L 269.191539 336.342534 
L 269.794239 275.991172 
L 270.19604 299.508911 
L 270.59784 254.727697 
L 270.79874 271.189066 
L 270.99964 261.19691 
L 271.20054 271.912528 
L 271.60234 238.612332 
L 271.80324 252.137915 
L 272.00414 247.314839 
L 272.205041 264.153666 
L 272.405941 258.418399 
L 272.807741 299.414546 
L 273.008641 296.824764 
L 273.209541 299.414546 
L 273.410441 312.583641 
L 273.812241 320.982085 
L 274.214041 282.072442 
L 274.414941 279.48266 
L 274.615842 298.628175 
L 274.816742 292.892909 
L 275.218542 252.578283 
L 275.419442 249.925591 
L 275.620342 230.014675 
L 275.821242 231.115594 
L 276.022142 233.883621 
L 276.423942 210.732855 
L 277.026643 270.538999 
L 277.227543 273.128781 
L 277.428443 255.514069 
L 278.031143 295.902089 
L 278.232043 298.565266 
L 278.432943 318.329393 
L 278.633843 323.152469 
L 278.834743 302.906034 
L 279.236544 342.214105 
L 279.437444 318.486667 
L 279.638344 328.426398 
L 279.839244 319.9965 
L 280.040144 317.343808 
L 280.241044 294.119648 
L 280.642844 329.432953 
L 280.843744 352.657113 
L 281.245545 313.579711 
L 281.446445 338.313704 
L 281.848245 314.84839 
L 282.049145 325.647887 
L 282.250045 320.824811 
L 282.450945 334.350394 
L 283.053645 283.299181 
L 283.254545 288.122257 
L 283.455446 274.596674 
L 284.259046 322.093489 
L 284.459946 315.257303 
L 284.660846 297.799864 
L 285.062646 320.090864 
L 285.263546 317.427687 
L 285.464446 324.263874 
L 285.665347 340.117115 
L 286.067147 306.345097 
L 286.268047 308.997789 
L 286.870747 269.427595 
L 287.071647 246.727682 
L 287.272547 254.517999 
L 287.473447 277.217911 
L 287.875248 258.030456 
L 288.076148 255.440674 
L 288.277048 245.448518 
L 288.678848 286.130117 
L 288.879748 266.36599 
L 289.080648 268.955772 
L 289.281548 253.888902 
L 289.482448 251.23621 
L 289.884248 264.950522 
L 290.286049 300.263827 
L 290.486949 310.203558 
L 290.687849 285.469565 
L 290.888749 277.49052 
L 291.089649 299.487941 
L 291.491449 256.101226 
L 291.893249 261.417094 
L 292.094149 239.975375 
L 292.29505 261.417094 
L 292.49595 258.764403 
L 292.89775 283.246756 
L 293.09865 264.101241 
L 293.29955 280.279516 
L 293.70135 246.21392 
L 293.90225 244.808937 
L 294.10315 254.801092 
L 294.30405 275.047527 
L 294.50495 255.2834 
L 294.705851 249.852197 
L 294.906751 272.552109 
L 295.107651 255.713283 
L 295.308551 262.549469 
L 295.509451 251.833852 
L 295.710351 260.567814 
L 295.911251 245.500943 
L 296.112151 261.962312 
L 296.513951 227.508772 
L 296.714851 224.845595 
L 296.915752 227.498287 
L 297.116652 234.334473 
L 297.317552 254.497029 
L 297.518452 251.907246 
L 297.719352 227.592652 
L 297.920252 217.652921 
L 298.121152 232.719791 
L 298.322052 235.382968 
L 298.522952 220.316098 
L 298.924752 259.697563 
L 299.125653 239.933436 
L 299.326553 263.660873 
L 299.527453 273.600604 
L 299.728353 296.824764 
L 299.929253 273.097327 
L 300.130153 308.714695 
L 300.331053 300.976804 
L 300.531953 311.692421 
L 300.732853 309.039729 
L 300.933753 296.62555 
L 301.134653 296.62555 
L 301.335554 318.622971 
L 301.536454 234.98454 
L 301.737354 243.414438 
L 301.938254 267.729033 
L 302.139154 261.993767 
L 302.340054 275.729049 
L 302.741854 265.149736 
L 302.942754 281.002978 
L 303.344554 261.144486 
L 303.545455 280.290001 
L 303.746355 260.043566 
L 303.947255 262.434134 
L 304.148155 287.168127 
L 304.349055 271.314885 
L 304.549955 283.666154 
L 304.750855 278.843078 
L 305.152655 247.996361 
L 305.353555 256.751292 
L 305.755356 287.713344 
L 305.956256 303.891619 
L 306.157156 306.481402 
L 306.358056 321.548272 
L 306.558956 316.725196 
L 306.759856 332.578437 
L 306.960756 310.581016 
L 307.362556 295.314932 
L 307.563456 279.136657 
L 307.764356 276.546875 
L 307.965257 259.089436 
L 308.166157 264.520639 
L 308.367057 280.698914 
L 308.969757 243.204739 
L 309.170657 265.202161 
L 309.371557 267.435455 
L 309.572457 245.438033 
L 309.974257 291.54035 
L 310.175158 272.394835 
L 310.376058 281.055402 
L 310.576958 302.497121 
L 310.777858 299.907339 
L 310.978758 294.172072 
L 311.179658 271.47216 
L 311.380558 316.630831 
L 311.581458 319.283523 
L 311.782358 336.740962 
L 311.983258 324.389693 
L 312.184158 330.12496 
L 312.385059 353.34912 
L 312.585959 346.512934 
L 312.786859 326.266499 
L 312.987759 333.102685 
L 313.188659 312.94013 
L 313.389559 335.640042 
L 313.590459 314.198323 
L 313.791359 308.463057 
L 313.992259 313.286133 
L 314.193159 306.449947 
L 314.394059 306.449947 
L 314.594959 283.750034 
L 314.79586 302.895549 
L 314.99676 300.232372 
L 315.19766 305.967639 
L 315.39856 328.667552 
L 315.59946 304.940114 
L 315.80036 312.85625 
L 316.00126 302.864094 
L 316.40306 325.207519 
L 316.60396 327.870696 
L 316.80486 310.255983 
L 317.005761 330.984725 
L 317.206661 328.321549 
L 317.407561 318.329393 
L 317.608461 342.056831 
L 318.010261 329.254709 
L 318.211161 342.780292 
L 318.612961 301.868024 
L 318.813861 319.482737 
L 319.014761 316.830045 
L 319.215662 336.992601 
L 319.617462 293.55346 
L 319.818362 293.55346 
L 320.220162 271.147126 
L 320.421062 277.983312 
L 320.822862 239.933436 
L 321.023762 245.364639 
L 321.224662 235.424908 
L 321.626463 276.106507 
L 321.827363 298.103928 
L 322.028263 306.082973 
L 322.229163 308.672756 
L 322.430063 303.84968 
L 322.630963 322.995195 
L 322.831863 307.928324 
L 323.032763 305.338542 
L 323.233663 295.398811 
L 323.836364 353.852397 
L 324.037264 343.860242 
L 324.238164 320.636082 
L 324.439064 330.628237 
L 324.639964 350.874672 
L 324.840864 345.443469 
L 325.242664 309.343792 
L 325.443564 325.050245 
L 325.644464 302.979429 
L 326.046265 317.742236 
L 326.247165 304.573141 
L 326.448065 320.426383 
L 326.648965 305.359512 
L 327.050765 326.874626 
L 327.251665 347.121061 
L 327.653465 313.820865 
L 328.055266 362.282296 
L 328.256166 370.712194 
L 328.457066 387.551021 
L 328.657966 384.887844 
L 328.858866 360.573249 
L 329.059766 375.640119 
L 329.260666 378.303296 
L 330.466067 274.712009 
L 330.666967 252.714587 
L 330.867867 292.945333 
L 331.470567 343.818302 
L 332.073267 287.157642 
L 332.274167 277.165487 
L 332.475068 256.436744 
L 332.675968 267.29915 
L 332.876868 289.296572 
L 333.278668 247.723752 
L 333.479568 272.038347 
L 333.680468 255.860072 
L 333.881368 279.084232 
L 334.283168 288.824749 
L 334.484068 280.845703 
L 334.684968 256.531109 
L 334.885869 280.258546 
L 335.287669 246.04616 
L 335.488569 261.113031 
L 335.689469 262.801108 
L 335.890369 279.639934 
L 336.091269 282.229716 
L 336.292169 298.082958 
L 336.493069 274.35552 
L 336.693969 278.937443 
L 336.894869 272.101257 
L 337.09577 288.279532 
L 337.29667 266.28211 
L 337.69847 284.368646 
L 337.89937 261.668733 
L 338.10027 285.983328 
L 338.30117 288.63602 
L 338.50207 306.093458 
L 338.70297 343.587633 
L 338.90387 343.587633 
L 339.10477 333.763237 
L 339.305671 355.204956 
L 340.109271 293.144547 
L 340.310171 315.84446 
L 340.511071 321.579727 
L 340.711971 238.580877 
L 341.113771 257.810272 
L 341.314671 279.807693 
L 341.515572 279.807693 
L 341.716472 304.122288 
L 341.917372 294.130133 
L 342.118272 296.793309 
L 342.520072 335.849741 
L 342.921872 327.755361 
L 343.122772 307.508926 
L 343.323672 304.919144 
L 343.524572 325.647887 
L 343.725473 310.581016 
L 343.926373 286.266422 
L 344.328173 267.991157 
L 344.529073 293.731705 
L 344.930873 256.646443 
L 345.332673 238.371178 
L 345.533573 233.506162 
L 345.734473 241.936061 
L 346.337174 290.890284 
L 346.538074 285.155017 
L 346.738974 290.58622 
L 346.939874 226.145729 
L 347.140774 248.14315 
L 347.341674 252.840407 
L 347.743474 296.719915 
L 347.944374 309.88901 
L 348.145275 312.478792 
L 348.346175 309.88901 
L 348.547075 319.828741 
L 348.747975 312.562671 
L 348.948875 312.562671 
L 349.149775 323.278288 
L 349.350675 315.299243 
L 349.551575 317.96242 
L 349.752475 331.488003 
L 349.953375 328.824826 
L 350.355176 289.747424 
L 350.556076 299.687155 
L 350.756976 317.144594 
L 350.957876 314.491902 
L 351.158776 304.499746 
L 351.560576 341.08173 
L 352.765977 232.268939 
L 352.966877 257.244085 
L 353.167777 259.907262 
L 353.569577 267.781458 
L 353.770477 245.081545 
L 353.971377 240.793201 
L 354.172277 227.812836 
L 354.774977 285.710719 
L 354.975878 268.096006 
L 355.377678 298.65963 
L 355.578578 301.312322 
L 355.779478 278.088162 
L 356.181278 301.249412 
L 356.382178 276.934818 
L 356.583078 283.771004 
L 356.783978 306.995164 
L 357.185779 298.596721 
L 357.587579 254.455089 
L 357.989379 292.358176 
L 358.190279 289.705484 
L 358.592079 331.865461 
L 358.792979 323.435563 
L 359.194779 292.515451 
L 359.39568 312.761885 
L 359.59658 302.046268 
L 359.79748 257.044871 
L 359.99838 267.057997 
L 360.19928 258.628098 
L 360.40018 273.139266 
L 360.60108 278.874533 
L 360.80198 270.895488 
L 361.00288 255.828617 
L 361.20378 266.628114 
L 361.40468 284.085552 
L 361.605581 288.908628 
L 361.806481 298.900784 
L 362.208281 265.26507 
L 362.409181 277.616339 
L 362.610081 265.26507 
L 363.011881 218.83772 
L 363.212781 221.133924 
L 363.413681 229.112969 
L 363.614581 221.133924 
L 363.815482 220.033004 
L 364.016382 233.558587 
L 364.217282 230.905895 
L 364.418182 247.744722 
L 364.619082 243.477348 
L 364.819982 295.67142 
L 365.020882 308.305783 
L 365.221782 285.081622 
L 365.422682 242.995041 
L 365.623582 266.722478 
L 365.824482 251.655608 
L 366.025383 255.031761 
L 366.226283 272.646474 
L 366.427183 276.934818 
L 366.628083 252.200825 
L 366.828983 249.327949 
L 367.230783 287.168127 
L 367.431683 297.107858 
L 367.632583 284.756589 
L 368.034383 239.000275 
L 368.436184 278.539015 
L 368.637084 275.875838 
L 369.038884 304.898174 
L 369.239784 296.468276 
L 369.440684 282.942693 
L 369.641584 307.676686 
L 370.043384 262.21395 
L 370.244284 286.947943 
L 370.846985 237.175894 
L 371.047885 261.490489 
L 371.248785 258.837797 
L 371.449685 286.843094 
L 371.650585 283.645184 
L 372.052385 317.438172 
L 372.253285 221.721081 
L 372.454185 261.3437 
L 372.655086 278.958413 
L 372.855986 285.794599 
L 373.257786 260.787998 
L 373.458686 262.392195 
L 373.659586 245.930826 
L 373.860486 248.594003 
L 374.262286 285.018713 
L 374.463186 279.283446 
L 374.664086 281.873228 
L 374.864986 291.812959 
L 375.467687 229.595277 
L 375.668587 229.595277 
L 375.869487 249.516678 
L 376.070387 257.579603 
L 376.271287 276.725119 
L 376.673087 242.198184 
L 377.074887 276.221841 
L 377.275788 292.55739 
L 377.476688 319.881165 
L 377.677588 311.451267 
L 377.878488 332.735712 
L 378.079388 322.020095 
L 378.280288 203.980548 
L 378.481188 224.027769 
L 378.682088 211.6765 
L 378.882988 231.440628 
L 379.083888 230.87444 
L 379.284788 211.110313 
L 379.485689 219.540212 
L 379.887489 251.655608 
L 380.088389 258.491794 
L 380.289289 242.313519 
L 380.490189 253.113015 
L 380.691089 250.460324 
L 380.891989 233.998955 
L 381.092889 233.998955 
L 381.69559 288.520685 
L 381.89649 291.110468 
L 382.09739 304.279562 
L 382.29829 301.68978 
L 382.49919 324.389693 
L 382.90099 294.580985 
L 383.10189 302.560031 
L 383.30279 279.860118 
L 383.70459 318.318908 
L 383.905491 341.543068 
L 384.307291 298.051503 
L 384.508191 321.778941 
L 384.909991 285.438111 
L 385.110891 297.78938 
L 385.512691 284.379131 
L 385.713591 265.076341 
L 386.115392 298.712055 
L 386.718092 246.224405 
L 387.119892 291.204832 
L 387.320792 274.366005 
L 387.521692 291.204832 
L 387.923492 251.519303 
L 388.124392 274.743463 
L 388.727093 231.010745 
L 388.927993 236.97668 
L 389.128893 257.139236 
L 389.329793 243.970141 
L 389.731593 251.382999 
L 389.932493 229.385578 
L 390.133393 235.907216 
L 390.334293 276.955788 
L 390.736094 303.524646 
L 390.936994 278.790653 
L 391.137894 294.968928 
L 391.338794 215.304292 
L 391.539694 201.034278 
L 391.740594 205.909779 
L 392.142394 236.871831 
L 392.544194 265.401375 
L 392.745095 269.920387 
L 392.945995 282.271656 
L 393.347795 286.444666 
L 393.548695 283.854883 
L 393.749595 286.444666 
L 393.950495 305.590181 
L 394.352295 273.841758 
L 394.553195 278.413195 
L 394.754095 275.823413 
L 394.954995 278.601924 
L 395.356796 267.257211 
L 395.557696 277.46955 
L 395.758596 300.169463 
L 395.959496 278.172042 
L 396.160396 297.055433 
L 396.361296 300.127523 
L 396.562196 224.614926 
L 397.164896 309.081669 
L 397.566697 264.384335 
L 397.767597 286.381756 
L 397.968497 280.950553 
L 398.169397 283.61373 
L 398.370297 288.038378 
L 398.571197 275.687109 
L 398.772097 288.856204 
L 398.972997 272.017377 
L 399.173897 269.364685 
L 399.374797 269.521959 
L 399.575698 289.768394 
L 399.776598 279.776239 
L 399.977498 255.461644 
L 400.178398 265.401375 
L 400.379298 289.128812 
L 400.580198 268.966257 
L 400.781098 281.317526 
L 400.981998 270.601909 
L 401.182898 276.033112 
L 401.383798 255.30437 
L 401.584698 257.957062 
L 401.986499 293.186487 
L 402.388299 330.470963 
L 402.589199 318.119694 
L 402.790099 312.688491 
L 402.990999 319.524677 
L 403.191899 333.05026 
L 403.9955 284.704164 
L 404.1964 293.134063 
L 404.3973 217.474677 
L 404.7991 231.639842 
L 405.4018 295.535116 
L 405.8036 270.014752 
L 406.0045 282.366021 
L 406.205401 305.590181 
L 406.406301 290.52331 
L 406.607201 287.870619 
L 406.808101 275.51935 
L 407.009001 278.109132 
L 407.209901 284.945318 
L 407.410801 278.109132 
L 407.611701 280.772309 
L 407.812601 261.626793 
L 408.013501 275.152376 
L 408.214401 250.418384 
L 408.415302 261.920372 
L 408.616202 245.081545 
L 408.817102 269.815538 
L 409.620702 237.259774 
L 409.821602 237.259774 
L 410.022502 253.438049 
L 410.424302 213.75252 
L 410.625203 220.022519 
L 410.826103 222.675211 
L 411.027003 227.802351 
L 411.428803 244.630692 
L 411.629703 242.344974 
L 411.830603 242.344974 
L 412.031503 234.365928 
L 412.433303 271.105186 
L 412.835104 254.276845 
L 413.236904 294.958444 
L 413.437804 277.501005 
L 413.638704 288.489231 
L 414.040504 319.723891 
L 414.643204 274.586189 
L 414.844104 286.937458 
L 415.045005 282.114382 
L 415.245905 280.4997 
L 415.446805 285.322776 
L 415.848605 325.889041 
L 416.451305 379.687309 
L 417.054005 331.404123 
L 417.254905 339.383169 
L 417.455806 212.295112 
L 417.656706 214.947804 
L 417.857606 195.183677 
L 418.460306 253.878417 
L 419.063006 190.276721 
L 419.263906 323.330713 
L 419.464806 322.733071 
L 419.665707 324.693756 
L 419.866607 344.940191 
L 420.067507 350.371394 
L 420.469307 306.87983 
L 420.871107 283.183847 
L 421.072007 279.577025 
L 421.272907 257.579603 
L 421.473807 271.105186 
L 421.875608 310.560046 
L 422.076508 300.567891 
L 422.478308 332.599407 
L 422.880108 301.102623 
L 423.081008 283.48791 
L 423.281908 291.917809 
L 423.683708 333.259959 
L 423.884608 313.013524 
L 424.085509 337.328119 
L 424.286409 319.87068 
L 424.487309 313.034494 
L 425.090009 345.391044 
L 425.290909 355.3832 
L 425.491809 350.560124 
L 426.094509 312.342488 
L 426.29541 287.608495 
L 426.49631 312.342488 
L 426.89811 286.224482 
L 427.09901 298.575751 
L 427.29991 295.912574 
L 427.50081 310.518107 
L 427.70171 292.903394 
L 427.90261 287.692374 
L 428.30441 315.94931 
L 428.505311 313.359528 
L 428.706211 320.195714 
L 428.907111 314.460447 
L 429.108011 330.313689 
L 429.710711 301.176018 
L 429.911611 306.911284 
L 430.715212 236.861346 
L 430.916112 254.476059 
L 431.117012 243.676562 
L 431.317912 220.976649 
L 431.518812 231.776146 
L 431.719712 224.93996 
L 432.121512 267.309635 
L 432.322412 243.582198 
L 432.724212 264.919067 
L 432.925113 275.634684 
L 433.126013 254.192965 
L 433.326913 245.584823 
L 433.527813 222.360663 
L 433.728713 216.342302 
L 433.929613 218.638506 
L 434.130513 219.204693 
L 434.331413 199.440566 
L 434.532313 219.204693 
L 434.733213 202.743325 
L 434.934113 220.358037 
L 435.135014 203.519211 
L 435.335914 198.696135 
L 435.536814 215.157503 
L 435.737714 195.393376 
L 435.938614 211.246618 
L 436.139514 208.583441 
L 436.340414 216.562486 
L 436.541314 208.132588 
L 437.144014 252.955741 
L 437.344914 252.955741 
L 437.545815 250.303049 
L 437.746715 240.363319 
L 437.947615 252.714587 
L 438.148515 236.253219 
L 438.349415 253.710658 
L 438.751215 209.044778 
L 438.952115 233.778771 
L 439.353915 201.254462 
L 439.554815 204.358007 
L 439.755716 279.472175 
L 439.956616 284.788044 
L 440.157516 309.522036 
L 440.559316 278.633379 
L 440.961116 304.772355 
L 441.162016 287.933528 
L 441.362916 218.680446 
L 441.563816 212.043474 
L 441.764716 229.500912 
L 441.965617 224.069709 
L 442.367417 267.529819 
L 442.568317 264.940037 
L 442.769217 259.20477 
L 442.970117 280.646489 
L 443.171017 287.482675 
L 443.371917 242.10382 
L 443.572817 252.494404 
L 443.773717 252.494404 
L 443.974617 249.904621 
L 444.175518 253.060591 
L 444.577318 276.578329 
L 444.778218 268.599284 
L 444.979118 290.041003 
L 445.380918 244.819422 
L 445.581818 257.17069 
L 445.983618 270.580939 
L 446.385419 237.983235 
L 446.586319 227.267618 
L 446.787219 202.533626 
L 446.988119 227.267618 
L 447.189019 203.540181 
L 447.389919 226.240093 
L 447.590819 201.506101 
L 447.992619 234.198169 
L 448.193519 226.219123 
L 448.394419 223.555947 
L 448.59532 242.701462 
L 448.79622 221.259743 
L 449.19802 268.106491 
L 449.39892 276.53639 
L 449.80072 249.2231 
L 450.00162 264.28997 
L 450.20252 289.023963 
L 450.60432 244.022565 
L 450.805221 276.672694 
L 451.006121 259.057981 
L 451.407921 288.394866 
L 451.809721 248.331879 
L 452.010621 237.532383 
L 452.613321 276.840453 
L 452.814221 271.40925 
L 453.216022 284.819499 
L 453.416922 300.67274 
L 453.617822 307.508926 
L 454.019622 278.130102 
L 454.220522 288.929598 
L 454.823222 254.643818 
L 455.425923 295.262507 
L 455.827723 263.37778 
L 456.028623 287.105217 
L 456.229523 289.757909 
L 456.430423 305.936184 
L 456.631323 289.757909 
L 456.832223 299.750065 
L 457.033123 302.413242 
L 457.434923 335.723922 
L 457.635824 252.389554 
L 458.640324 320.688506 
L 459.042124 300.683225 
L 459.443924 327.377903 
L 459.644824 304.153743 
L 459.845725 294.214012 
L 460.046625 299.949279 
L 460.247525 283.48791 
L 460.448425 295.839179 
L 460.649325 282.313596 
L 460.850225 284.976773 
L 461.051125 304.122288 
L 461.252025 283.393546 
L 461.452925 304.122288 
L 461.854725 274.313581 
L 462.055626 249.998986 
L 462.256526 257.978031 
L 462.658326 224.185044 
L 462.859226 247.409204 
L 463.060126 249.998986 
L 463.261026 260.798482 
L 463.461926 237.574322 
L 463.662826 237.574322 
L 463.863726 255.031761 
L 464.064626 247.052715 
L 464.265527 226.89016 
L 464.466427 233.726346 
L 464.667327 222.92685 
L 464.868227 232.919005 
L 465.069127 226.082819 
L 465.270027 223.419642 
L 465.470927 234.334473 
L 465.671827 295.681905 
L 465.872727 301.113108 
L 466.073627 276.798513 
L 466.274527 271.36731 
L 466.475428 276.798513 
L 466.676328 289.967608 
L 466.877228 274.900738 
L 467.078128 272.237561 
L 467.279028 252.075006 
L 467.479928 274.072427 
L 467.680828 280.908613 
L 467.881728 301.071168 
L 468.082628 279.073747 
L 468.283528 299.80249 
L 468.484428 283.341121 
L 468.685329 294.056738 
L 468.886229 277.878463 
L 469.087129 273.055387 
L 469.488929 278.308346 
L 469.689829 272.877143 
L 469.890729 250.17723 
L 470.091629 242.198184 
L 470.292529 247.629388 
L 470.493429 313.695046 
L 470.694329 308.87197 
L 470.89523 311.535147 
L 471.09613 308.87197 
L 471.49793 349.763267 
L 471.89973 316.473557 
L 472.10063 313.820865 
L 472.50243 322.177369 
L 472.70333 316.746166 
L 472.90423 321.86282 
L 473.105131 315.173424 
L 473.306031 325.889041 
L 473.506931 349.616478 
L 473.908731 314.009594 
L 474.109631 333.773722 
L 474.310531 312.332003 
L 474.511431 305.632121 
L 474.913231 276.232326 
L 475.315032 265.149736 
L 475.515932 286.591455 
L 475.716832 276.599299 
L 475.917732 286.591455 
L 476.118632 281.768379 
L 476.319532 258.544219 
L 476.520432 258.544219 
L 477.123132 297.64259 
L 477.324032 277.878463 
L 477.524932 271.042277 
L 477.725833 277.878463 
L 477.926733 279.136657 
L 478.127633 300.578376 
L 478.328533 277.354216 
L 478.730333 324.305813 
L 478.931233 329.737017 
L 479.132133 342.088285 
L 479.333033 339.425109 
L 479.734833 307.309712 
L 479.935734 330.009625 
L 480.136634 324.578422 
L 480.739334 274.48134 
L 480.940234 294.486621 
L 481.141134 283.687124 
L 481.342034 212.504811 
L 481.542934 205.668625 
L 482.145635 263.461659 
L 482.346535 247.283384 
L 482.547435 243.749957 
L 482.949235 289.54821 
L 483.150135 294.371286 
L 483.351035 276.756574 
L 483.551935 295.902089 
L 483.752835 231.660812 
L 483.953735 247.765692 
L 484.154635 248.352849 
L 484.355536 232.174574 
L 484.556436 256.908567 
L 485.159136 205.941234 
L 485.360036 222.402602 
L 485.761836 236.567767 
L 485.962736 233.977985 
L 486.364536 270.979367 
L 486.565437 265.548164 
L 486.967237 293.805099 
L 487.168137 273.076357 
L 487.369037 270.423665 
L 487.770837 222.989759 
L 487.971737 245.689672 
L 488.172637 251.120875 
L 488.373537 267.29915 
L 488.574437 259.320105 
L 488.775338 267.29915 
L 488.976238 286.444666 
L 489.378038 251.445909 
L 489.578938 269.060622 
L 489.980738 258.774887 
L 490.181638 271.126156 
L 490.583438 316.295313 
L 490.985239 286.947943 
L 491.186139 306.093458 
L 491.387039 288.478746 
L 491.587939 298.418476 
L 492.391539 236.735526 
L 492.592439 239.964891 
L 492.793339 260.127446 
L 492.994239 236.903286 
L 493.19514 258.900707 
L 493.39604 248.10121 
L 493.59694 226.659491 
L 493.99874 263.241475 
L 494.19964 263.241475 
L 494.40054 252.525858 
L 494.80234 284.683194 
L 495.00324 304.929629 
L 495.20414 284.200887 
L 495.405041 276.221841 
L 495.605941 252.494404 
L 495.806841 275.718564 
L 496.007741 255.954436 
L 496.208641 275.718564 
L 496.409541 252.494404 
L 496.610441 262.434134 
L 496.811341 245.595308 
L 497.012241 256.394804 
L 497.213141 234.397383 
L 497.414041 302.360817 
L 497.614941 302.360817 
L 497.815842 315.529912 
L 498.418542 271.031792 
L 498.619442 247.807632 
L 498.820342 250.470809 
L 499.021242 228.473387 
L 499.222142 220.494342 
L 499.623942 241.233569 
L 499.824842 235.802366 
L 500.025743 242.638552 
L 500.226643 231.839056 
L 500.427543 251.603183 
L 500.628443 240.887566 
L 500.829343 249.317464 
L 501.231143 281.632074 
L 501.632943 312.510247 
L 501.833843 292.746119 
L 502.034743 290.093428 
L 502.235644 273.632059 
L 502.436544 267.896792 
L 502.838344 310.84314 
L 503.240144 274.50231 
L 503.441044 274.50231 
L 503.641944 263.786693 
L 503.842844 283.823429 
L 504.043744 284.735619 
L 504.244644 274.743463 
L 504.445545 252.043551 
L 504.646445 264.39482 
L 505.048245 264.39482 
L 505.249145 284.557375 
L 505.650945 247.555993 
L 505.851845 269.343715 
L 506.052745 252.075006 
L 506.253645 267.928247 
L 506.655446 221.196833 
L 506.856346 218.533657 
L 507.057246 194.219062 
L 507.258146 197.490366 
L 507.459046 236.095945 
L 507.860846 214.381617 
L 508.061746 197.920248 
L 508.262646 214.759075 
L 508.463546 250.11432 
L 508.664446 255.545523 
L 508.865347 275.708079 
L 509.066247 273.044902 
L 509.267147 275.697594 
L 509.468047 258.858767 
L 509.869847 248.604488 
L 510.271647 215.964844 
L 510.472547 220.78792 
L 510.673447 213.951734 
L 510.874347 194.806219 
L 512.079748 260.504904 
L 512.280648 257.841727 
L 512.481548 260.504904 
L 512.682448 265.936107 
L 512.883348 287.933528 
L 513.084248 280.803764 
L 513.285149 297.265132 
L 513.486049 297.265132 
L 513.887849 312.992554 
L 514.088749 295.535116 
L 514.289649 290.71204 
L 514.490549 259.907262 
L 514.691449 270.706758 
L 514.892349 268.054067 
L 515.093249 283.875853 
L 515.294149 283.875853 
L 515.49505 293.868009 
L 515.69595 278.801138 
L 515.89685 294.979413 
L 516.09775 286.549515 
L 516.29865 303.010884 
L 516.49955 303.010884 
L 516.70045 325.99389 
L 516.90135 320.373958 
L 517.10225 326.109224 
L 517.50405 320.856265 
L 517.70495 315.120999 
L 517.905851 320.856265 
L 518.106751 323.183924 
L 518.307651 315.204878 
L 518.508551 298.366052 
L 518.709451 299.456486 
L 518.910351 279.692359 
L 519.111251 282.345051 
L 519.312151 269.993782 
L 519.513051 278.42368 
L 519.914851 278.42368 
L 520.115752 281.013462 
L 520.316652 293.259882 
L 520.517552 287.828679 
L 520.919352 344.625643 
L 521.120252 333.826146 
L 521.321152 329.00307 
L 521.722952 286.47612 
L 521.923852 303.933559 
L 522.124752 281.233646 
L 522.526553 322.806466 
L 522.727453 312.866735 
L 522.928353 296.68846 
L 523.330153 330.942786 
L 523.531053 336.678052 
L 523.731953 242.407883 
L 523.932853 251.970156 
L 524.133753 271.272946 
L 524.334653 278.109132 
L 524.535554 271.272946 
L 524.736454 287.126187 
L 524.937354 273.957092 
L 525.138254 288.908628 
L 525.339154 291.571805 
L 525.540054 308.410632 
L 525.740954 308.410632 
L 525.941854 311.639996 
L 526.142754 317.071199 
L 526.343654 299.456486 
L 526.745455 319.388373 
L 526.946355 306.219278 
L 527.147255 325.364793 
L 527.549055 294.885049 
L 527.749955 277.42761 
L 527.950855 284.263796 
L 528.151755 254.843032 
L 528.754455 254.843032 
L 528.955356 244.127415 
L 529.156256 263.755238 
L 529.357156 266.040957 
L 529.558056 285.186472 
L 529.758956 272.017377 
L 530.160756 272.090772 
L 530.562556 284.892893 
L 530.964356 312.153758 
L 531.165257 309.490582 
L 531.366157 309.490582 
L 531.567057 304.667505 
L 531.767957 326.109224 
L 531.968857 245.574338 
L 532.169757 234.858721 
L 532.370657 238.182449 
L 532.571557 235.728971 
L 532.973357 258.890222 
L 533.174257 261.542914 
L 533.375158 256.111711 
L 533.576058 272.573079 
L 533.776958 278.004282 
L 533.977858 300.704195 
L 534.178758 277.480035 
L 534.379658 285.45908 
L 534.580558 301.312322 
L 534.781458 298.72254 
L 534.982358 315.561367 
L 535.183258 294.832624 
L 535.384158 305.632121 
L 535.585059 300.200918 
L 535.986859 238.11954 
L 536.187759 224.331833 
L 536.790459 280.47873 
L 536.991359 261.333215 
L 537.192259 261.333215 
L 537.393159 272.048832 
L 537.594059 266.313565 
L 537.794959 252.850892 
L 537.99586 230.150979 
L 538.19676 226.99501 
L 538.39766 229.658186 
L 538.59856 247.272899 
L 538.79946 230.811531 
L 539.00036 240.803686 
L 539.20126 256.981961 
L 539.40216 257.023901 
L 539.60306 249.694922 
L 539.80396 249.694922 
L 540.00486 233.684407 
L 540.205761 238.559907 
L 540.406661 254.738182 
L 540.607561 235.592667 
L 541.009361 273.055387 
L 541.411161 244.242749 
L 541.612061 219.928155 
L 541.812961 232.279424 
L 542.013861 258.376459 
L 542.214761 251.1733 
L 542.415662 227.445862 
L 542.616562 248.887581 
L 542.817462 248.279454 
L 543.018362 264.740823 
L 543.219262 264.740823 
L 543.621062 198.108978 
L 543.821962 198.108978 
L 544.223762 242.753887 
L 544.424662 218.439292 
L 544.625563 218.439292 
L 544.826463 221.102469 
L 545.027363 221.102469 
L 545.429163 184.625334 
L 545.630063 191.776069 
L 545.830963 174.161356 
L 546.031863 182.591254 
L 546.232763 178.334365 
L 546.433663 201.034278 
L 546.634563 198.371101 
L 546.835464 208.310832 
L 547.036364 229.752551 
L 547.237264 229.752551 
L 547.438164 221.322653 
L 547.639064 221.322653 
L 547.839964 237.784021 
L 548.241764 201.275432 
L 548.442664 181.112877 
L 548.643564 181.112877 
L 549.246265 228.777451 
L 549.648065 232.981915 
L 549.848965 231.97536 
L 550.049865 251.120875 
L 550.250765 230.87444 
L 550.451665 230.87444 
L 550.652565 222.444542 
L 551.054365 270.874518 
L 551.255266 245.396094 
L 551.456166 253.312229 
L 551.857966 261.291275 
L 552.058866 283.288696 
L 552.259766 273.296541 
L 552.460666 248.562548 
L 552.661566 254.297815 
L 552.862466 271.755253 
L 553.063366 269.092076 
L 553.264266 279.084232 
L 553.465167 244.316144 
L 553.666067 245.920341 
L 553.866967 235.928185 
L 554.067867 213.228273 
L 554.268767 234.323988 
L 554.469667 234.323988 
L 554.670567 239.147065 
L 554.871467 247.576963 
L 555.072367 224.352803 
L 555.273267 221.689626 
L 555.474167 256.468199 
L 555.675068 240.614957 
L 555.875968 241.768302 
L 556.277768 272.006892 
L 556.478668 288.468261 
L 556.679568 277.752644 
L 556.880468 254.025206 
L 557.081368 263.126141 
L 557.282268 253.133985 
L 557.684068 293.815584 
L 557.884968 269.081592 
L 558.085869 289.328026 
L 558.487669 240.730292 
L 558.688569 243.320074 
L 558.889469 237.050075 
L 559.090369 249.401344 
L 559.291269 249.401344 
L 559.492169 273.128781 
L 559.693069 270.465605 
L 559.893969 277.301791 
L 560.094869 271.566524 
L 560.29577 254.811577 
L 560.49667 247.975391 
L 560.89847 216.132603 
L 561.09937 217.715831 
L 561.50117 211.445832 
L 561.70207 224.614926 
L 561.90297 211.445832 
L 562.10387 229.343638 
L 562.30477 236.179824 
L 562.505671 252.358099 
L 562.706571 246.926896 
L 562.907471 270.151056 
L 563.108371 272.940052 
L 563.309271 249.715892 
L 563.510171 252.305674 
L 563.711071 261.270305 
L 563.911971 263.933482 
L 564.112871 244.169355 
L 564.313771 244.169355 
L 564.514671 267.225756 
L 564.715572 267.225756 
L 564.916472 260.389569 
L 565.117372 273.558664 
L 565.318272 263.566509 
L 565.519172 273.558664 
L 565.920972 301.763175 
L 566.322772 263.587479 
L 566.523672 250.418384 
L 566.925473 250.418384 
L 567.126373 233.579557 
L 567.729073 277.731674 
L 567.929973 254.004236 
L 568.130873 277.228396 
L 568.331773 277.228396 
L 568.532673 287.168127 
L 568.733573 272.101257 
L 568.934473 269.43808 
L 569.336274 235.183754 
L 569.537174 245.983251 
L 569.738074 232.814156 
L 570.340774 232.814156 
L 570.541674 229.846916 
L 570.943474 229.846916 
L 571.144374 242.596612 
L 571.345275 234.722416 
L 571.546175 234.722416 
L 571.747075 244.284689 
L 571.947975 244.284689 
L 572.349775 210.261032 
L 572.550675 223.430127 
L 572.751575 210.261032 
L 572.952475 227.099859 
L 573.354275 227.099859 
L 573.555176 232.153604 
L 573.756076 233.118219 
L 573.956976 255.115641 
L 574.157876 234.953085 
L 574.358776 254.098601 
L 574.760576 254.098601 
L 574.961476 259.833867 
L 575.363276 259.833867 
L 575.765077 226.198154 
L 575.965977 243.655592 
L 576.166877 237.920326 
L 576.367777 237.920326 
L 576.568677 233.097249 
L 576.970477 257.065841 
L 577.171377 257.065841 
L 577.372277 236.819406 
L 577.573177 236.819406 
L 577.774077 219.204693 
L 577.974977 219.204693 
L 578.175878 242.428853 
L 578.577678 242.428853 
L 578.979478 258.114336 
L 579.381278 218.051349 
L 579.783078 181.542759 
L 580.184878 181.542759 
L 580.385779 188.378946 
L 580.586679 188.378946 
L 580.787579 203.445816 
L 580.988479 193.506085 
L 581.390279 239.828586 
L 581.591179 256.667413 
L 581.792079 256.667413 
L 581.992979 246.727682 
L 582.193879 249.663468 
L 582.79658 249.663468 
L 582.99748 258.974101 
L 583.19838 258.974101 
L 583.39928 261.563884 
L 583.60018 269.542929 
L 583.80108 269.542929 
L 584.00198 259.603198 
L 584.20288 266.439385 
L 584.60468 301.605901 
L 584.805581 288.436806 
L 585.006481 264.122211 
L 585.207381 269.553414 
L 585.408281 251.603183 
L 585.609181 251.603183 
L 585.810081 260.033081 
L 586.010981 249.233585 
L 586.211881 246.874471 
L 586.412781 246.874471 
L 586.613681 259.22574 
L 586.814581 249.233585 
L 587.015482 254.056661 
L 587.216382 262.035706 
L 587.417282 286.769699 
L 587.618182 264.069786 
L 587.819082 280.248061 
L 588.019982 285.679264 
L 588.220882 296.478761 
L 588.421782 285.763144 
L 588.622682 307.760565 
L 588.823582 283.44597 
L 589.024482 293.438126 
L 589.225383 285.45908 
L 589.426283 285.45908 
L 589.627183 306.900799 
L 589.828083 306.900799 
L 590.229883 272.552109 
L 590.430783 253.406594 
L 590.631683 253.406594 
L 590.832583 277.721189 
L 591.234383 245.815492 
L 591.435284 245.815492 
L 591.636184 248.405274 
L 592.037984 248.405274 
L 592.439784 199.356686 
L 592.640684 210.072303 
L 592.841584 232.069725 
L 593.042484 232.069725 
L 593.243384 222.129994 
L 593.444284 256.080256 
L 593.645185 256.080256 
L 593.846085 275.844383 
L 594.448785 275.844383 
L 594.649685 278.52853 
L 594.850585 276.945303 
L 595.453285 276.945303 
L 595.654185 284.924348 
L 595.855086 284.924348 
L 596.055986 285.941388 
L 596.256886 285.941388 
L 596.457786 268.326675 
L 596.658686 260.536359 
L 597.060486 254.947881 
L 597.261386 277.647794 
L 597.864086 277.647794 
L 598.064986 291.173377 
L 598.265887 286.350301 
L 598.667687 286.350301 
L 598.868587 277.920403 
L 599.069487 277.920403 
L 599.270387 286.350301 
L 599.471287 288.132742 
L 599.672187 294.968928 
L 599.873087 311.723876 
L 600.073987 296.657005 
L 600.274887 296.657005 
L 600.475788 280.195637 
L 600.676688 282.995118 
L 600.877588 280.342426 
L 601.078488 293.511521 
L 601.279388 277.333246 
L 601.480288 277.417125 
L 601.681188 252.567798 
L 602.082988 252.567798 
L 602.283888 270.182511 
L 602.685689 235.728971 
L 602.886589 246.528468 
L 603.087489 235.728971 
L 603.690189 235.728971 
L 603.891089 272.541624 
L 604.292889 291.959748 
L 604.493789 308.798575 
L 604.694689 306.145883 
L 604.89559 299.309697 
L 605.09649 299.309697 
L 605.29739 310.109194 
L 605.49829 307.519411 
L 605.69919 296.719915 
L 605.90009 309.88901 
L 606.10099 301.909964 
L 606.30189 307.341167 
L 606.50279 307.341167 
L 606.90459 272.111742 
L 607.105491 276.934818 
L 607.909091 276.934818 
L 608.109991 272.111742 
L 608.310891 270.43415 
L 608.511791 271.136641 
L 608.712691 250.565173 
L 608.913591 242.219154 
L 609.315392 242.219154 
L 609.516292 219.519242 
L 610.520792 219.519242 
L 610.721692 215.555931 
L 610.922592 215.555931 
L 611.123492 221.532352 
L 611.324392 239.147065 
L 611.525293 236.483888 
L 611.726193 236.483888 
L 611.927093 249.652983 
L 612.127993 237.301714 
L 612.328893 252.033066 
L 612.730693 252.033066 
L 613.132493 257.286025 
L 613.333393 269.637294 
L 613.534293 250.491778 
L 613.735194 268.850923 
L 614.136994 263.597964 
L 614.337894 263.597964 
L 614.538794 247.136595 
L 614.739694 249.726377 
L 615.342394 249.726377 
L 615.543294 255.15758 
L 615.744194 241.631997 
L 616.145995 241.631997 
L 616.346895 241.988486 
L 616.547795 241.663452 
L 616.748695 254.832547 
L 616.949595 234.669992 
L 617.150495 234.669992 
L 617.351395 209.935999 
L 617.552295 213.763005 
L 618.154995 213.763005 
L 618.355896 191.765584 
L 618.556796 191.765584 
L 618.757696 192.772139 
L 619.360396 192.772139 
L 619.561296 175.933312 
L 620.766697 175.933312 
L 620.967597 183.220351 
L 621.570297 183.220351 
L 621.771197 170.869082 
L 621.972097 173.521774 
L 622.172997 154.376259 
L 622.373897 154.376259 
L 622.574797 150.203249 
L 622.775698 135.136379 
L 624.583798 135.136379 
L 624.985599 162.743247 
L 625.186499 160.080071 
L 625.588299 160.080071 
L 625.789199 170.302895 
L 626.190999 204.515281 
L 626.391899 209.338357 
L 626.793699 200.321302 
L 627.1955 200.321302 
L 627.3964 185.254431 
L 630.008101 185.338311 
L 630.209001 188.001488 
L 630.610801 188.001488 
L 630.811701 185.411705 
L 631.816202 185.411705 
L 632.017102 182.748528 
L 632.619802 182.748528 
L 632.820702 171.540119 
L 633.021602 189.133862 
L 633.222502 189.133862 
L 633.423402 186.428745 
L 634.227003 186.428745 
L 634.427903 186.124682 
L 634.628803 188.714464 
L 634.829703 188.714464 
L 635.030603 171.099751 
L 636.236004 171.099751 
L 636.436904 176.835018 
L 636.637804 176.835018 
L 636.838704 166.119401 
L 637.039604 166.119401 
L 637.240504 168.782578 
L 637.441404 160.803532 
L 639.450405 160.803532 
L 639.651305 141.039405 
L 640.053105 141.039405 
L 640.254005 132.609506 
L 643.267507 132.609506 
L 643.468407 135.450927 
L 645.678308 135.450927 
L 645.879208 132.861145 
L 647.687309 132.861145 
L 647.888209 141.060375 
L 648.892709 141.060375 
L 649.093609 143.713067 
L 650.49991 143.713067 
L 650.70081 137.9778 
L 654.317012 137.9778 
L 654.517912 144.813986 
L 657.129613 144.813986 
L 657.330513 134.821831 
L 657.531413 134.821831 
L 657.732313 129.789055 
L 657.933213 129.789055 
L 658.134113 134.056429 
L 658.535914 134.056429 
L 658.736814 136.646212 
L 659.339514 136.646212 
L 659.540414 131.571497 
L 660.544914 131.571497 
L 660.745815 123.141598 
L 666.772817 123.141598 
L 666.973717 120.897819 
L 667.174617 120.897819 
L 667.375518 125.469257 
L 668.179118 125.469257 
L 668.380018 109.290982 
L 732.868947 109.290982 
L 733.069847 108.305397 
L 733.270747 100.326351 
L 743.315752 100.326351 
L 743.516652 97.736569 
L 774.455266 97.736569 
L 774.656166 95.723459 
L 779.678668 95.723459 
L 779.879568 88.887273 
L 871.690909 88.887273 
L 871.690909 88.887273 
" style="fill:none;stroke:#8dd3c7;stroke-linecap:square;stroke-width:1.5;"/>
   </g>
   <g id="line2d_18">
    <path clip-path="url(#p810f00433d)" d="M 161.509091 223.283338 
L 177.380198 223.283338 
L 177.581098 211.414377 
L 178.987399 211.414377 
L 179.188299 198.308192 
L 181.1973 198.308192 
L 181.3982 191.734129 
L 204.09991 191.734129 
L 204.30081 185.852073 
L 204.50171 185.852073 
L 204.70261 173.825838 
L 621.570297 173.825838 
L 621.771197 170.869082 
L 621.972097 170.869082 
L 622.172997 154.376259 
L 622.373897 154.376259 
L 622.574797 150.203249 
L 622.775698 135.136379 
L 640.053105 135.136379 
L 640.254005 132.609506 
L 657.531413 132.609506 
L 657.732313 129.789055 
L 660.544914 129.789055 
L 660.745815 123.141598 
L 666.772817 123.141598 
L 666.973717 120.897819 
L 668.179118 120.897819 
L 668.380018 109.290982 
L 732.868947 109.290982 
L 733.069847 108.305397 
L 733.270747 100.326351 
L 743.315752 100.326351 
L 743.516652 97.736569 
L 774.455266 97.736569 
L 774.656166 95.723459 
L 779.678668 95.723459 
L 779.879568 88.887273 
L 871.690909 88.887273 
L 871.690909 88.887273 
" style="fill:none;stroke:#feffb3;stroke-linecap:square;stroke-width:1.5;"/>
   </g>
   <g id="line2d_19">
    <path clip-path="url(#p810f00433d)" d="M 161.509091 301.568155 
L 162.915392 301.568155 
L 163.116292 310.154121 
L 164.522592 310.154121 
L 164.723492 318.336513 
L 166.129793 318.336513 
L 166.330693 326.1343 
L 167.736994 326.1343 
L 167.937894 333.565559 
L 169.344194 333.565559 
L 169.545095 340.64752 
L 170.951395 340.64752 
L 171.152295 347.3966 
L 172.558596 347.3966 
L 172.759496 353.828446 
L 174.165797 353.828446 
L 174.366697 359.957969 
L 175.772997 359.957969 
L 175.973897 365.799381 
L 177.380198 365.799381 
L 177.581098 371.366222 
L 178.987399 371.366222 
L 179.188299 376.6714 
L 180.594599 376.6714 
L 180.7955 381.727214 
L 182.2018 381.727214 
L 182.4027 386.545383 
L 183.809001 386.545383 
L 184.009901 391.13708 
L 185.416202 391.13708 
L 185.617102 395.512948 
L 187.023402 395.512948 
L 187.224302 399.683133 
L 188.630603 399.683133 
L 188.831503 403.657303 
L 190.237804 403.657303 
L 190.438704 407.44467 
L 191.845005 407.44467 
L 192.045905 411.054017 
L 193.452205 411.054017 
L 193.653105 414.493709 
L 195.059406 414.493709 
L 195.260306 417.771722 
L 196.666607 417.771722 
L 196.867507 420.895656 
L 198.273807 420.895656 
L 198.474707 423.872752 
L 199.881008 423.872752 
L 200.081908 426.709913 
L 201.488209 426.709913 
L 201.689109 429.413715 
L 203.09541 429.413715 
L 203.29631 431.990428 
L 204.70261 431.990428 
L 204.90351 434.446026 
L 206.309811 434.446026 
L 206.510711 436.7862 
L 207.917012 436.7862 
L 208.117912 439.016377 
L 209.524212 439.016377 
L 209.725113 441.141727 
L 211.131413 441.141727 
L 211.332313 443.167176 
L 212.738614 443.167176 
L 212.939514 445.097422 
L 214.345815 445.097422 
L 214.546715 446.936938 
L 215.953015 446.936938 
L 216.153915 448.689989 
L 217.560216 448.689989 
L 217.761116 450.36064 
L 219.167417 450.36064 
L 219.368317 451.952764 
L 220.774617 451.952764 
L 220.975518 453.470052 
L 222.381818 453.470052 
L 222.582718 454.916021 
L 223.989019 454.916021 
L 224.189919 456.294023 
L 225.59622 456.294023 
L 225.79712 457.607254 
L 227.20342 457.607254 
L 227.40432 458.858758 
L 228.810621 458.858758 
L 229.011521 460.051436 
L 230.417822 460.051436 
L 230.618722 461.188054 
L 232.025023 461.188054 
L 232.225923 462.271246 
L 233.632223 462.271246 
L 233.833123 463.303524 
L 235.239424 463.303524 
L 235.440324 464.28728 
L 236.846625 464.28728 
L 237.047525 465.224796 
L 238.453825 465.224796 
L 238.654725 466.118245 
L 240.061026 466.118245 
L 240.261926 466.969698 
L 241.668227 466.969698 
L 241.869127 467.78113 
L 243.275428 467.78113 
L 243.476328 468.554421 
L 244.882628 468.554421 
L 245.083528 469.291364 
L 246.489829 469.291364 
L 246.690729 469.993668 
L 248.09703 469.993668 
L 248.29793 470.662961 
L 249.70423 470.662961 
L 249.905131 471.300794 
L 251.311431 471.300794 
L 251.512331 471.908647 
L 252.918632 471.908647 
L 253.119532 472.487928 
L 254.525833 472.487928 
L 254.726733 473.03998 
L 256.133033 473.03998 
L 256.333933 473.566084 
L 257.740234 473.566084 
L 257.941134 474.067459 
L 259.347435 474.067459 
L 259.548335 474.545268 
L 260.954635 474.545268 
L 261.155536 475.000617 
L 262.561836 475.000617 
L 262.762736 475.434563 
L 264.169037 475.434563 
L 264.369937 475.848112 
L 265.776238 475.848112 
L 265.977138 476.242223 
L 267.383438 476.242223 
L 267.584338 476.617808 
L 268.990639 476.617808 
L 269.191539 476.97574 
L 270.59784 476.97574 
L 270.79874 477.316848 
L 272.205041 477.316848 
L 272.405941 477.641922 
L 273.812241 477.641922 
L 274.013141 477.951716 
L 275.419442 477.951716 
L 275.620342 478.246949 
L 277.026643 478.246949 
L 277.227543 478.528304 
L 278.633843 478.528304 
L 278.834743 478.796435 
L 280.241044 478.796435 
L 280.441944 479.051962 
L 281.848245 479.051962 
L 282.049145 479.295479 
L 283.455446 479.295479 
L 283.656346 479.52755 
L 285.062646 479.52755 
L 285.263546 479.748712 
L 286.669847 479.748712 
L 286.870747 479.959478 
L 288.277048 479.959478 
L 288.477948 480.160338 
L 289.884248 480.160338 
L 290.085149 480.351757 
L 291.491449 480.351757 
L 291.692349 480.534178 
L 293.09865 480.534178 
L 293.29955 480.708025 
L 294.705851 480.708025 
L 294.906751 480.8737 
L 296.313051 480.8737 
L 296.513951 481.031588 
L 297.920252 481.031588 
L 298.121152 481.182054 
L 299.527453 481.182054 
L 299.728353 481.325448 
L 301.134653 481.325448 
L 301.335554 481.462102 
L 302.741854 481.462102 
L 303.143654 481.592332 
L 304.349055 481.592332 
L 304.750855 481.716441 
L 305.956256 481.716441 
L 306.358056 481.834717 
L 307.563456 481.834717 
L 307.965257 481.947433 
L 310.777858 482.054851 
L 311.179658 482.15722 
L 313.992259 482.254777 
L 314.394059 482.347749 
L 317.206661 482.43635 
L 317.608461 482.520787 
L 320.421062 482.601255 
L 320.822862 482.677941 
L 323.635464 482.751022 
L 324.037264 482.820668 
L 326.849865 482.887041 
L 327.251665 482.950293 
L 330.064266 483.010573 
L 330.666967 483.068019 
L 334.885869 483.174938 
L 335.488569 483.224658 
L 339.707471 483.317197 
L 340.310171 483.360231 
L 344.529073 483.440325 
L 345.332673 483.477571 
L 350.957876 483.57913 
L 351.761476 483.609852 
L 358.993879 483.718961 
L 359.99838 483.74311 
L 368.637084 483.847859 
L 370.043384 483.86595 
L 381.494689 483.970885 
L 383.50369 483.994921 
L 405.6027 484.105551 
L 409.821602 484.122655 
L 871.690909 484.232727 
L 871.690909 484.232727 
" style="fill:none;stroke:#bfbbd9;stroke-linecap:square;stroke-width:1.5;"/>
   </g>
   <g id="patch_3">
    <path d="M 126 504 
L 126 69.12 
" style="fill:none;stroke:#ffffff;stroke-linecap:square;stroke-linejoin:miter;stroke-width:0.8;"/>
   </g>
   <g id="patch_4">
    <path d="M 907.2 504 
L 907.2 69.12 
" style="fill:none;stroke:#ffffff;stroke-linecap:square;stroke-linejoin:miter;stroke-width:0.8;"/>
   </g>
   <g id="patch_5">
    <path d="M 126 504 
L 907.2 504 
" style="fill:none;stroke:#ffffff;stroke-linecap:square;stroke-linejoin:miter;stroke-width:0.8;"/>
   </g>
   <g id="patch_6">
    <path d="M 126 69.12 
L 907.2 69.12 
" style="fill:none;stroke:#ffffff;stroke-linecap:square;stroke-linejoin:miter;stroke-width:0.8;"/>
   </g>
   <g id="text_18">
    <!-- instance 3 with error 0.0 -->
    <g style="fill:#ffffff;" transform="translate(442.944375 63.12)scale(0.12 -0.12)">
     <defs>
      <path d="M 2834 3397 
L 2834 2853 
Q 2591 2978 2328 3040 
Q 2066 3103 1784 3103 
Q 1356 3103 1142 2972 
Q 928 2841 928 2578 
Q 928 2378 1081 2264 
Q 1234 2150 1697 2047 
L 1894 2003 
Q 2506 1872 2764 1633 
Q 3022 1394 3022 966 
Q 3022 478 2636 193 
Q 2250 -91 1575 -91 
Q 1294 -91 989 -36 
Q 684 19 347 128 
L 347 722 
Q 666 556 975 473 
Q 1284 391 1588 391 
Q 1994 391 2212 530 
Q 2431 669 2431 922 
Q 2431 1156 2273 1281 
Q 2116 1406 1581 1522 
L 1381 1569 
Q 847 1681 609 1914 
Q 372 2147 372 2553 
Q 372 3047 722 3315 
Q 1072 3584 1716 3584 
Q 2034 3584 2315 3537 
Q 2597 3491 2834 3397 
z
" id="DejaVuSans-73" transform="scale(0.015625)"/>
      <path d="M 3122 3366 
L 3122 2828 
Q 2878 2963 2633 3030 
Q 2388 3097 2138 3097 
Q 1578 3097 1268 2742 
Q 959 2388 959 1747 
Q 959 1106 1268 751 
Q 1578 397 2138 397 
Q 2388 397 2633 464 
Q 2878 531 3122 666 
L 3122 134 
Q 2881 22 2623 -34 
Q 2366 -91 2075 -91 
Q 1284 -91 818 406 
Q 353 903 353 1747 
Q 353 2603 823 3093 
Q 1294 3584 2113 3584 
Q 2378 3584 2631 3529 
Q 2884 3475 3122 3366 
z
" id="DejaVuSans-63" transform="scale(0.015625)"/>
      <path id="DejaVuSans-20" transform="scale(0.015625)"/>
      <path d="M 269 3500 
L 844 3500 
L 1563 769 
L 2278 3500 
L 2956 3500 
L 3675 769 
L 4391 3500 
L 4966 3500 
L 4050 0 
L 3372 0 
L 2619 2869 
L 1863 0 
L 1184 0 
L 269 3500 
z
" id="DejaVuSans-77" transform="scale(0.015625)"/>
      <path d="M 3513 2113 
L 3513 0 
L 2938 0 
L 2938 2094 
Q 2938 2591 2744 2837 
Q 2550 3084 2163 3084 
Q 1697 3084 1428 2787 
Q 1159 2491 1159 1978 
L 1159 0 
L 581 0 
L 581 4863 
L 1159 4863 
L 1159 2956 
Q 1366 3272 1645 3428 
Q 1925 3584 2291 3584 
Q 2894 3584 3203 3211 
Q 3513 2838 3513 2113 
z
" id="DejaVuSans-68" transform="scale(0.015625)"/>
      <path d="M 684 794 
L 1344 794 
L 1344 0 
L 684 0 
L 684 794 
z
" id="DejaVuSans-2e" transform="scale(0.015625)"/>
     </defs>
     <use xlink:href="#DejaVuSans-69"/>
     <use x="27.783203" xlink:href="#DejaVuSans-6e"/>
     <use x="91.162109" xlink:href="#DejaVuSans-73"/>
     <use x="143.261719" xlink:href="#DejaVuSans-74"/>
     <use x="182.470703" xlink:href="#DejaVuSans-61"/>
     <use x="243.75" xlink:href="#DejaVuSans-6e"/>
     <use x="307.128906" xlink:href="#DejaVuSans-63"/>
     <use x="362.109375" xlink:href="#DejaVuSans-65"/>
     <use x="423.632812" xlink:href="#DejaVuSans-20"/>
     <use x="455.419922" xlink:href="#DejaVuSans-33"/>
     <use x="519.042969" xlink:href="#DejaVuSans-20"/>
     <use x="550.830078" xlink:href="#DejaVuSans-77"/>
     <use x="632.617188" xlink:href="#DejaVuSans-69"/>
     <use x="660.400391" xlink:href="#DejaVuSans-74"/>
     <use x="699.609375" xlink:href="#DejaVuSans-68"/>
     <use x="762.988281" xlink:href="#DejaVuSans-20"/>
     <use x="794.775391" xlink:href="#DejaVuSans-65"/>
     <use x="856.298828" xlink:href="#DejaVuSans-72"/>
     <use x="895.662109" xlink:href="#DejaVuSans-72"/>
     <use x="934.525391" xlink:href="#DejaVuSans-6f"/>
     <use x="995.707031" xlink:href="#DejaVuSans-72"/>
     <use x="1036.820312" xlink:href="#DejaVuSans-20"/>
     <use x="1068.607422" xlink:href="#DejaVuSans-30"/>
     <use x="1132.230469" xlink:href="#DejaVuSans-2e"/>
     <use x="1164.017578" xlink:href="#DejaVuSans-30"/>
    </g>
   </g>
   <g id="legend_1">
    <g id="patch_7">
     <path d="M 805.348438 499 
L 900.2 499 
Q 902.2 499 902.2 497 
L 902.2 453.965625 
Q 902.2 451.965625 900.2 451.965625 
L 805.348438 451.965625 
Q 803.348438 451.965625 803.348438 453.965625 
L 803.348438 497 
Q 803.348438 499 805.348438 499 
z
" style="opacity:0.8;stroke:#cccccc;stroke-linejoin:miter;"/>
    </g>
    <g id="line2d_20">
     <path d="M 807.348438 460.064062 
L 827.348438 460.064062 
" style="fill:none;stroke:#8dd3c7;stroke-linecap:square;stroke-width:1.5;"/>
    </g>
    <g id="line2d_21"/>
    <g id="text_19">
     <!-- cost -->
     <g style="fill:#ffffff;" transform="translate(835.348438 463.564062)scale(0.1 -0.1)">
      <use xlink:href="#DejaVuSans-63"/>
      <use x="54.980469" xlink:href="#DejaVuSans-6f"/>
      <use x="116.162109" xlink:href="#DejaVuSans-73"/>
      <use x="168.261719" xlink:href="#DejaVuSans-74"/>
     </g>
    </g>
    <g id="line2d_22">
     <path d="M 807.348438 474.742188 
L 827.348438 474.742188 
" style="fill:none;stroke:#feffb3;stroke-linecap:square;stroke-width:1.5;"/>
    </g>
    <g id="line2d_23"/>
    <g id="text_20">
     <!-- best cost -->
     <g style="fill:#ffffff;" transform="translate(835.348438 478.242188)scale(0.1 -0.1)">
      <defs>
       <path d="M 3116 1747 
Q 3116 2381 2855 2742 
Q 2594 3103 2138 3103 
Q 1681 3103 1420 2742 
Q 1159 2381 1159 1747 
Q 1159 1113 1420 752 
Q 1681 391 2138 391 
Q 2594 391 2855 752 
Q 3116 1113 3116 1747 
z
M 1159 2969 
Q 1341 3281 1617 3432 
Q 1894 3584 2278 3584 
Q 2916 3584 3314 3078 
Q 3713 2572 3713 1747 
Q 3713 922 3314 415 
Q 2916 -91 2278 -91 
Q 1894 -91 1617 61 
Q 1341 213 1159 525 
L 1159 0 
L 581 0 
L 581 4863 
L 1159 4863 
L 1159 2969 
z
" id="DejaVuSans-62" transform="scale(0.015625)"/>
      </defs>
      <use xlink:href="#DejaVuSans-62"/>
      <use x="63.476562" xlink:href="#DejaVuSans-65"/>
      <use x="125" xlink:href="#DejaVuSans-73"/>
      <use x="177.099609" xlink:href="#DejaVuSans-74"/>
      <use x="216.308594" xlink:href="#DejaVuSans-20"/>
      <use x="248.095703" xlink:href="#DejaVuSans-63"/>
      <use x="303.076172" xlink:href="#DejaVuSans-6f"/>
      <use x="364.257812" xlink:href="#DejaVuSans-73"/>
      <use x="416.357422" xlink:href="#DejaVuSans-74"/>
     </g>
    </g>
    <g id="line2d_24">
     <path d="M 807.348438 489.420313 
L 827.348438 489.420313 
" style="fill:none;stroke:#bfbbd9;stroke-linecap:square;stroke-width:1.5;"/>
    </g>
    <g id="line2d_25"/>
    <g id="text_21">
     <!-- temperature -->
     <g style="fill:#ffffff;" transform="translate(835.348438 492.920313)scale(0.1 -0.1)">
      <defs>
       <path d="M 3328 2828 
Q 3544 3216 3844 3400 
Q 4144 3584 4550 3584 
Q 5097 3584 5394 3201 
Q 5691 2819 5691 2113 
L 5691 0 
L 5113 0 
L 5113 2094 
Q 5113 2597 4934 2840 
Q 4756 3084 4391 3084 
Q 3944 3084 3684 2787 
Q 3425 2491 3425 1978 
L 3425 0 
L 2847 0 
L 2847 2094 
Q 2847 2600 2669 2842 
Q 2491 3084 2119 3084 
Q 1678 3084 1418 2786 
Q 1159 2488 1159 1978 
L 1159 0 
L 581 0 
L 581 3500 
L 1159 3500 
L 1159 2956 
Q 1356 3278 1631 3431 
Q 1906 3584 2284 3584 
Q 2666 3584 2933 3390 
Q 3200 3197 3328 2828 
z
" id="DejaVuSans-6d" transform="scale(0.015625)"/>
       <path d="M 1159 525 
L 1159 -1331 
L 581 -1331 
L 581 3500 
L 1159 3500 
L 1159 2969 
Q 1341 3281 1617 3432 
Q 1894 3584 2278 3584 
Q 2916 3584 3314 3078 
Q 3713 2572 3713 1747 
Q 3713 922 3314 415 
Q 2916 -91 2278 -91 
Q 1894 -91 1617 61 
Q 1341 213 1159 525 
z
M 3116 1747 
Q 3116 2381 2855 2742 
Q 2594 3103 2138 3103 
Q 1681 3103 1420 2742 
Q 1159 2381 1159 1747 
Q 1159 1113 1420 752 
Q 1681 391 2138 391 
Q 2594 391 2855 752 
Q 3116 1113 3116 1747 
z
" id="DejaVuSans-70" transform="scale(0.015625)"/>
       <path d="M 544 1381 
L 544 3500 
L 1119 3500 
L 1119 1403 
Q 1119 906 1312 657 
Q 1506 409 1894 409 
Q 2359 409 2629 706 
Q 2900 1003 2900 1516 
L 2900 3500 
L 3475 3500 
L 3475 0 
L 2900 0 
L 2900 538 
Q 2691 219 2414 64 
Q 2138 -91 1772 -91 
Q 1169 -91 856 284 
Q 544 659 544 1381 
z
M 1991 3584 
L 1991 3584 
z
" id="DejaVuSans-75" transform="scale(0.015625)"/>
      </defs>
      <use xlink:href="#DejaVuSans-74"/>
      <use x="39.208984" xlink:href="#DejaVuSans-65"/>
      <use x="100.732422" xlink:href="#DejaVuSans-6d"/>
      <use x="198.144531" xlink:href="#DejaVuSans-70"/>
      <use x="261.621094" xlink:href="#DejaVuSans-65"/>
      <use x="323.144531" xlink:href="#DejaVuSans-72"/>
      <use x="364.257812" xlink:href="#DejaVuSans-61"/>
      <use x="425.537109" xlink:href="#DejaVuSans-74"/>
      <use x="464.746094" xlink:href="#DejaVuSans-75"/>
      <use x="528.125" xlink:href="#DejaVuSans-72"/>
      <use x="566.988281" xlink:href="#DejaVuSans-65"/>
     </g>
    </g>
   </g>
  </g>
 </g>
 <defs>
  <clipPath id="p810f00433d">
   <rect height="434.88" width="781.2" x="126" y="69.12"/>
  </clipPath>
 </defs>
</svg>
