<?xml version="1.0" encoding="utf-8" standalone="no"?>
<!DOCTYPE svg PUBLIC "-//W3C//DTD SVG 1.1//EN"
  "http://www.w3.org/Graphics/SVG/1.1/DTD/svg11.dtd">
<svg height="576pt" version="1.1" viewBox="0 0 1008 576" width="1008pt" xmlns="http://www.w3.org/2000/svg" xmlns:xlink="http://www.w3.org/1999/xlink">
 <metadata>
  <rdf:RDF xmlns:cc="http://creativecommons.org/ns#" xmlns:dc="http://purl.org/dc/elements/1.1/" xmlns:rdf="http://www.w3.org/1999/02/22-rdf-syntax-ns#">
   <cc:Work>
    <dc:type rdf:resource="http://purl.org/dc/dcmitype/StillImage"/>
    <dc:date>2022-01-13T19:10:41.838446</dc:date>
    <dc:format>image/svg+xml</dc:format>
    <dc:creator>
     <cc:Agent>
      <dc:title>Matplotlib v3.4.3, https://matplotlib.org/</dc:title>
     </cc:Agent>
    </dc:creator>
   </cc:Work>
  </rdf:RDF>
 </metadata>
 <defs>
  <style type="text/css">*{stroke-linecap:butt;stroke-linejoin:round;}</style>
 </defs>
 <g id="figure_1">
  <g id="patch_1">
   <path d="M 0 576 
L 1008 576 
L 1008 0 
L 0 0 
z
"/>
  </g>
  <g id="axes_1">
   <g id="patch_2">
    <path d="M 126 504 
L 907.2 504 
L 907.2 69.12 
L 126 69.12 
z
"/>
   </g>
   <g id="matplotlib.axis_1">
    <g id="xtick_1">
     <g id="line2d_1">
      <defs>
       <path d="M 0 0 
L 0 3.5 
" id="m4350636458" style="stroke:#ffffff;stroke-width:0.8;"/>
      </defs>
      <g>
       <use style="fill:#ffffff;stroke:#ffffff;stroke-width:0.8;" x="161.509091" xlink:href="#m4350636458" y="504"/>
      </g>
     </g>
     <g id="text_1">
      <!-- 0 -->
      <g style="fill:#ffffff;" transform="translate(158.327841 518.598438)scale(0.1 -0.1)">
       <defs>
        <path d="M 2034 4250 
Q 1547 4250 1301 3770 
Q 1056 3291 1056 2328 
Q 1056 1369 1301 889 
Q 1547 409 2034 409 
Q 2525 409 2770 889 
Q 3016 1369 3016 2328 
Q 3016 3291 2770 3770 
Q 2525 4250 2034 4250 
z
M 2034 4750 
Q 2819 4750 3233 4129 
Q 3647 3509 3647 2328 
Q 3647 1150 3233 529 
Q 2819 -91 2034 -91 
Q 1250 -91 836 529 
Q 422 1150 422 2328 
Q 422 3509 836 4129 
Q 1250 4750 2034 4750 
z
" id="DejaVuSans-30" transform="scale(0.015625)"/>
       </defs>
       <use xlink:href="#DejaVuSans-30"/>
      </g>
     </g>
    </g>
    <g id="xtick_2">
     <g id="line2d_2">
      <g>
       <use style="fill:#ffffff;stroke:#ffffff;stroke-width:0.8;" x="328.296742" xlink:href="#m4350636458" y="504"/>
      </g>
     </g>
     <g id="text_2">
      <!-- 500 -->
      <g style="fill:#ffffff;" transform="translate(318.752992 518.598438)scale(0.1 -0.1)">
       <defs>
        <path d="M 691 4666 
L 3169 4666 
L 3169 4134 
L 1269 4134 
L 1269 2991 
Q 1406 3038 1543 3061 
Q 1681 3084 1819 3084 
Q 2600 3084 3056 2656 
Q 3513 2228 3513 1497 
Q 3513 744 3044 326 
Q 2575 -91 1722 -91 
Q 1428 -91 1123 -41 
Q 819 9 494 109 
L 494 744 
Q 775 591 1075 516 
Q 1375 441 1709 441 
Q 2250 441 2565 725 
Q 2881 1009 2881 1497 
Q 2881 1984 2565 2268 
Q 2250 2553 1709 2553 
Q 1456 2553 1204 2497 
Q 953 2441 691 2322 
L 691 4666 
z
" id="DejaVuSans-35" transform="scale(0.015625)"/>
       </defs>
       <use xlink:href="#DejaVuSans-35"/>
       <use x="63.623047" xlink:href="#DejaVuSans-30"/>
       <use x="127.246094" xlink:href="#DejaVuSans-30"/>
      </g>
     </g>
    </g>
    <g id="xtick_3">
     <g id="line2d_3">
      <g>
       <use style="fill:#ffffff;stroke:#ffffff;stroke-width:0.8;" x="495.084393" xlink:href="#m4350636458" y="504"/>
      </g>
     </g>
     <g id="text_3">
      <!-- 1000 -->
      <g style="fill:#ffffff;" transform="translate(482.359393 518.598438)scale(0.1 -0.1)">
       <defs>
        <path d="M 794 531 
L 1825 531 
L 1825 4091 
L 703 3866 
L 703 4441 
L 1819 4666 
L 2450 4666 
L 2450 531 
L 3481 531 
L 3481 0 
L 794 0 
L 794 531 
z
" id="DejaVuSans-31" transform="scale(0.015625)"/>
       </defs>
       <use xlink:href="#DejaVuSans-31"/>
       <use x="63.623047" xlink:href="#DejaVuSans-30"/>
       <use x="127.246094" xlink:href="#DejaVuSans-30"/>
       <use x="190.869141" xlink:href="#DejaVuSans-30"/>
      </g>
     </g>
    </g>
    <g id="xtick_4">
     <g id="line2d_4">
      <g>
       <use style="fill:#ffffff;stroke:#ffffff;stroke-width:0.8;" x="661.872044" xlink:href="#m4350636458" y="504"/>
      </g>
     </g>
     <g id="text_4">
      <!-- 1500 -->
      <g style="fill:#ffffff;" transform="translate(649.147044 518.598438)scale(0.1 -0.1)">
       <use xlink:href="#DejaVuSans-31"/>
       <use x="63.623047" xlink:href="#DejaVuSans-35"/>
       <use x="127.246094" xlink:href="#DejaVuSans-30"/>
       <use x="190.869141" xlink:href="#DejaVuSans-30"/>
      </g>
     </g>
    </g>
    <g id="xtick_5">
     <g id="line2d_5">
      <g>
       <use style="fill:#ffffff;stroke:#ffffff;stroke-width:0.8;" x="828.659695" xlink:href="#m4350636458" y="504"/>
      </g>
     </g>
     <g id="text_5">
      <!-- 2000 -->
      <g style="fill:#ffffff;" transform="translate(815.934695 518.598438)scale(0.1 -0.1)">
       <defs>
        <path d="M 1228 531 
L 3431 531 
L 3431 0 
L 469 0 
L 469 531 
Q 828 903 1448 1529 
Q 2069 2156 2228 2338 
Q 2531 2678 2651 2914 
Q 2772 3150 2772 3378 
Q 2772 3750 2511 3984 
Q 2250 4219 1831 4219 
Q 1534 4219 1204 4116 
Q 875 4013 500 3803 
L 500 4441 
Q 881 4594 1212 4672 
Q 1544 4750 1819 4750 
Q 2544 4750 2975 4387 
Q 3406 4025 3406 3419 
Q 3406 3131 3298 2873 
Q 3191 2616 2906 2266 
Q 2828 2175 2409 1742 
Q 1991 1309 1228 531 
z
" id="DejaVuSans-32" transform="scale(0.015625)"/>
       </defs>
       <use xlink:href="#DejaVuSans-32"/>
       <use x="63.623047" xlink:href="#DejaVuSans-30"/>
       <use x="127.246094" xlink:href="#DejaVuSans-30"/>
       <use x="190.869141" xlink:href="#DejaVuSans-30"/>
      </g>
     </g>
    </g>
    <g id="text_6">
     <!-- iteration -->
     <g style="fill:#ffffff;" transform="translate(495.477344 532.276562)scale(0.1 -0.1)">
      <defs>
       <path d="M 603 3500 
L 1178 3500 
L 1178 0 
L 603 0 
L 603 3500 
z
M 603 4863 
L 1178 4863 
L 1178 4134 
L 603 4134 
L 603 4863 
z
" id="DejaVuSans-69" transform="scale(0.015625)"/>
       <path d="M 1172 4494 
L 1172 3500 
L 2356 3500 
L 2356 3053 
L 1172 3053 
L 1172 1153 
Q 1172 725 1289 603 
Q 1406 481 1766 481 
L 2356 481 
L 2356 0 
L 1766 0 
Q 1100 0 847 248 
Q 594 497 594 1153 
L 594 3053 
L 172 3053 
L 172 3500 
L 594 3500 
L 594 4494 
L 1172 4494 
z
" id="DejaVuSans-74" transform="scale(0.015625)"/>
       <path d="M 3597 1894 
L 3597 1613 
L 953 1613 
Q 991 1019 1311 708 
Q 1631 397 2203 397 
Q 2534 397 2845 478 
Q 3156 559 3463 722 
L 3463 178 
Q 3153 47 2828 -22 
Q 2503 -91 2169 -91 
Q 1331 -91 842 396 
Q 353 884 353 1716 
Q 353 2575 817 3079 
Q 1281 3584 2069 3584 
Q 2775 3584 3186 3129 
Q 3597 2675 3597 1894 
z
M 3022 2063 
Q 3016 2534 2758 2815 
Q 2500 3097 2075 3097 
Q 1594 3097 1305 2825 
Q 1016 2553 972 2059 
L 3022 2063 
z
" id="DejaVuSans-65" transform="scale(0.015625)"/>
       <path d="M 2631 2963 
Q 2534 3019 2420 3045 
Q 2306 3072 2169 3072 
Q 1681 3072 1420 2755 
Q 1159 2438 1159 1844 
L 1159 0 
L 581 0 
L 581 3500 
L 1159 3500 
L 1159 2956 
Q 1341 3275 1631 3429 
Q 1922 3584 2338 3584 
Q 2397 3584 2469 3576 
Q 2541 3569 2628 3553 
L 2631 2963 
z
" id="DejaVuSans-72" transform="scale(0.015625)"/>
       <path d="M 2194 1759 
Q 1497 1759 1228 1600 
Q 959 1441 959 1056 
Q 959 750 1161 570 
Q 1363 391 1709 391 
Q 2188 391 2477 730 
Q 2766 1069 2766 1631 
L 2766 1759 
L 2194 1759 
z
M 3341 1997 
L 3341 0 
L 2766 0 
L 2766 531 
Q 2569 213 2275 61 
Q 1981 -91 1556 -91 
Q 1019 -91 701 211 
Q 384 513 384 1019 
Q 384 1609 779 1909 
Q 1175 2209 1959 2209 
L 2766 2209 
L 2766 2266 
Q 2766 2663 2505 2880 
Q 2244 3097 1772 3097 
Q 1472 3097 1187 3025 
Q 903 2953 641 2809 
L 641 3341 
Q 956 3463 1253 3523 
Q 1550 3584 1831 3584 
Q 2591 3584 2966 3190 
Q 3341 2797 3341 1997 
z
" id="DejaVuSans-61" transform="scale(0.015625)"/>
       <path d="M 1959 3097 
Q 1497 3097 1228 2736 
Q 959 2375 959 1747 
Q 959 1119 1226 758 
Q 1494 397 1959 397 
Q 2419 397 2687 759 
Q 2956 1122 2956 1747 
Q 2956 2369 2687 2733 
Q 2419 3097 1959 3097 
z
M 1959 3584 
Q 2709 3584 3137 3096 
Q 3566 2609 3566 1747 
Q 3566 888 3137 398 
Q 2709 -91 1959 -91 
Q 1206 -91 779 398 
Q 353 888 353 1747 
Q 353 2609 779 3096 
Q 1206 3584 1959 3584 
z
" id="DejaVuSans-6f" transform="scale(0.015625)"/>
       <path d="M 3513 2113 
L 3513 0 
L 2938 0 
L 2938 2094 
Q 2938 2591 2744 2837 
Q 2550 3084 2163 3084 
Q 1697 3084 1428 2787 
Q 1159 2491 1159 1978 
L 1159 0 
L 581 0 
L 581 3500 
L 1159 3500 
L 1159 2956 
Q 1366 3272 1645 3428 
Q 1925 3584 2291 3584 
Q 2894 3584 3203 3211 
Q 3513 2838 3513 2113 
z
" id="DejaVuSans-6e" transform="scale(0.015625)"/>
      </defs>
      <use xlink:href="#DejaVuSans-69"/>
      <use x="27.783203" xlink:href="#DejaVuSans-74"/>
      <use x="66.992188" xlink:href="#DejaVuSans-65"/>
      <use x="128.515625" xlink:href="#DejaVuSans-72"/>
      <use x="169.628906" xlink:href="#DejaVuSans-61"/>
      <use x="230.908203" xlink:href="#DejaVuSans-74"/>
      <use x="270.117188" xlink:href="#DejaVuSans-69"/>
      <use x="297.900391" xlink:href="#DejaVuSans-6f"/>
      <use x="359.082031" xlink:href="#DejaVuSans-6e"/>
     </g>
    </g>
   </g>
   <g id="matplotlib.axis_2">
    <g id="ytick_1">
     <g id="line2d_6">
      <defs>
       <path d="M 0 0 
L -3.5 0 
" id="med450a0f4e" style="stroke:#ffffff;stroke-width:0.8;"/>
      </defs>
      <g>
       <use style="fill:#ffffff;stroke:#ffffff;stroke-width:0.8;" x="126" xlink:href="#med450a0f4e" y="484.232727"/>
      </g>
     </g>
     <g id="text_7">
      <!-- 0 -->
      <g style="fill:#ffffff;" transform="translate(112.6375 488.031946)scale(0.1 -0.1)">
       <use xlink:href="#DejaVuSans-30"/>
      </g>
     </g>
    </g>
    <g id="ytick_2">
     <g id="line2d_7">
      <g>
       <use style="fill:#ffffff;stroke:#ffffff;stroke-width:0.8;" x="126" xlink:href="#med450a0f4e" y="428.172852"/>
      </g>
     </g>
     <g id="text_8">
      <!-- 5000 -->
      <g style="fill:#ffffff;" transform="translate(93.55 431.972071)scale(0.1 -0.1)">
       <use xlink:href="#DejaVuSans-35"/>
       <use x="63.623047" xlink:href="#DejaVuSans-30"/>
       <use x="127.246094" xlink:href="#DejaVuSans-30"/>
       <use x="190.869141" xlink:href="#DejaVuSans-30"/>
      </g>
     </g>
    </g>
    <g id="ytick_3">
     <g id="line2d_8">
      <g>
       <use style="fill:#ffffff;stroke:#ffffff;stroke-width:0.8;" x="126" xlink:href="#med450a0f4e" y="372.112976"/>
      </g>
     </g>
     <g id="text_9">
      <!-- 10000 -->
      <g style="fill:#ffffff;" transform="translate(87.1875 375.912195)scale(0.1 -0.1)">
       <use xlink:href="#DejaVuSans-31"/>
       <use x="63.623047" xlink:href="#DejaVuSans-30"/>
       <use x="127.246094" xlink:href="#DejaVuSans-30"/>
       <use x="190.869141" xlink:href="#DejaVuSans-30"/>
       <use x="254.492188" xlink:href="#DejaVuSans-30"/>
      </g>
     </g>
    </g>
    <g id="ytick_4">
     <g id="line2d_9">
      <g>
       <use style="fill:#ffffff;stroke:#ffffff;stroke-width:0.8;" x="126" xlink:href="#med450a0f4e" y="316.053101"/>
      </g>
     </g>
     <g id="text_10">
      <!-- 15000 -->
      <g style="fill:#ffffff;" transform="translate(87.1875 319.852319)scale(0.1 -0.1)">
       <use xlink:href="#DejaVuSans-31"/>
       <use x="63.623047" xlink:href="#DejaVuSans-35"/>
       <use x="127.246094" xlink:href="#DejaVuSans-30"/>
       <use x="190.869141" xlink:href="#DejaVuSans-30"/>
       <use x="254.492188" xlink:href="#DejaVuSans-30"/>
      </g>
     </g>
    </g>
    <g id="ytick_5">
     <g id="line2d_10">
      <g>
       <use style="fill:#ffffff;stroke:#ffffff;stroke-width:0.8;" x="126" xlink:href="#med450a0f4e" y="259.993225"/>
      </g>
     </g>
     <g id="text_11">
      <!-- 20000 -->
      <g style="fill:#ffffff;" transform="translate(87.1875 263.792444)scale(0.1 -0.1)">
       <use xlink:href="#DejaVuSans-32"/>
       <use x="63.623047" xlink:href="#DejaVuSans-30"/>
       <use x="127.246094" xlink:href="#DejaVuSans-30"/>
       <use x="190.869141" xlink:href="#DejaVuSans-30"/>
       <use x="254.492188" xlink:href="#DejaVuSans-30"/>
      </g>
     </g>
    </g>
    <g id="ytick_6">
     <g id="line2d_11">
      <g>
       <use style="fill:#ffffff;stroke:#ffffff;stroke-width:0.8;" x="126" xlink:href="#med450a0f4e" y="203.933349"/>
      </g>
     </g>
     <g id="text_12">
      <!-- 25000 -->
      <g style="fill:#ffffff;" transform="translate(87.1875 207.732568)scale(0.1 -0.1)">
       <use xlink:href="#DejaVuSans-32"/>
       <use x="63.623047" xlink:href="#DejaVuSans-35"/>
       <use x="127.246094" xlink:href="#DejaVuSans-30"/>
       <use x="190.869141" xlink:href="#DejaVuSans-30"/>
       <use x="254.492188" xlink:href="#DejaVuSans-30"/>
      </g>
     </g>
    </g>
    <g id="ytick_7">
     <g id="line2d_12">
      <g>
       <use style="fill:#ffffff;stroke:#ffffff;stroke-width:0.8;" x="126" xlink:href="#med450a0f4e" y="147.873474"/>
      </g>
     </g>
     <g id="text_13">
      <!-- 30000 -->
      <g style="fill:#ffffff;" transform="translate(87.1875 151.672693)scale(0.1 -0.1)">
       <defs>
        <path d="M 2597 2516 
Q 3050 2419 3304 2112 
Q 3559 1806 3559 1356 
Q 3559 666 3084 287 
Q 2609 -91 1734 -91 
Q 1441 -91 1130 -33 
Q 819 25 488 141 
L 488 750 
Q 750 597 1062 519 
Q 1375 441 1716 441 
Q 2309 441 2620 675 
Q 2931 909 2931 1356 
Q 2931 1769 2642 2001 
Q 2353 2234 1838 2234 
L 1294 2234 
L 1294 2753 
L 1863 2753 
Q 2328 2753 2575 2939 
Q 2822 3125 2822 3475 
Q 2822 3834 2567 4026 
Q 2313 4219 1838 4219 
Q 1578 4219 1281 4162 
Q 984 4106 628 3988 
L 628 4550 
Q 988 4650 1302 4700 
Q 1616 4750 1894 4750 
Q 2613 4750 3031 4423 
Q 3450 4097 3450 3541 
Q 3450 3153 3228 2886 
Q 3006 2619 2597 2516 
z
" id="DejaVuSans-33" transform="scale(0.015625)"/>
       </defs>
       <use xlink:href="#DejaVuSans-33"/>
       <use x="63.623047" xlink:href="#DejaVuSans-30"/>
       <use x="127.246094" xlink:href="#DejaVuSans-30"/>
       <use x="190.869141" xlink:href="#DejaVuSans-30"/>
       <use x="254.492188" xlink:href="#DejaVuSans-30"/>
      </g>
     </g>
    </g>
    <g id="ytick_8">
     <g id="line2d_13">
      <g>
       <use style="fill:#ffffff;stroke:#ffffff;stroke-width:0.8;" x="126" xlink:href="#med450a0f4e" y="91.813598"/>
      </g>
     </g>
     <g id="text_14">
      <!-- 35000 -->
      <g style="fill:#ffffff;" transform="translate(87.1875 95.612817)scale(0.1 -0.1)">
       <use xlink:href="#DejaVuSans-33"/>
       <use x="63.623047" xlink:href="#DejaVuSans-35"/>
       <use x="127.246094" xlink:href="#DejaVuSans-30"/>
       <use x="190.869141" xlink:href="#DejaVuSans-30"/>
       <use x="254.492188" xlink:href="#DejaVuSans-30"/>
      </g>
     </g>
    </g>
   </g>
   <g id="line2d_14">
    <path clip-path="url(#p73fc022680)" d="M 161.509091 179.13246 
L 162.176242 246.426735 
L 162.509817 270.386726 
L 162.843392 245.294326 
L 163.510543 262.112288 
L 163.844118 261.417146 
L 164.177693 255.620555 
L 164.511269 281.352038 
L 164.844844 293.96551 
L 165.178419 301.903588 
L 165.511995 324.787229 
L 165.84557 323.161493 
L 166.179145 301.477533 
L 166.51272 301.376625 
L 166.846296 323.060585 
L 167.179871 330.796848 
L 167.513446 305.065365 
L 167.847022 297.127287 
L 168.180597 313.900401 
L 168.514172 336.346776 
L 168.847748 327.769615 
L 169.181323 333.566206 
L 169.514898 335.079822 
L 170.182049 319.024274 
L 170.515624 293.864602 
L 170.849199 304.908397 
L 171.182775 303.282661 
L 171.51635 303.383569 
L 171.849925 353.669277 
L 172.517076 336.044052 
L 172.850651 345.00242 
L 173.184226 335.920721 
L 173.517802 313.037079 
L 173.851377 343.993343 
L 174.184952 352.772319 
L 174.518528 330.707152 
L 174.852103 355.866824 
L 175.185678 348.769644 
L 175.519254 327.870522 
L 175.852829 318.564583 
L 176.186404 339.463705 
L 176.51998 314.304032 
L 176.853555 297.530918 
L 177.18713 288.46043 
L 177.854281 249.846388 
L 178.187856 266.619502 
L 178.521431 275.701202 
L 178.855007 266.619502 
L 179.188582 243.735861 
L 179.522157 282.574143 
L 179.855733 305.457784 
L 180.189308 283.392617 
L 180.522883 305.457784 
L 180.856458 305.356876 
L 181.190034 312.981019 
L 181.523609 305.042941 
L 181.857184 314.001309 
L 182.19076 287.002873 
L 182.524335 296.084573 
L 182.85791 321.244245 
L 183.191486 330.314733 
L 183.525061 328.801116 
L 183.858636 355.799552 
L 184.192211 332.915911 
L 184.525787 341.190349 
L 184.859362 362.08947 
L 185.192937 362.190378 
L 185.526513 340.125211 
L 185.860088 349.431151 
L 186.193663 333.53257 
L 186.860814 370.632995 
L 187.86154 296.768503 
L 188.862266 271.631255 
L 189.195841 265.834664 
L 189.529416 249.52124 
L 189.862992 258.591728 
L 190.530142 299.627557 
L 191.197293 312.711932 
L 191.530868 312.913748 
L 191.864443 307.117156 
L 192.198019 288.146495 
L 192.531594 295.243675 
L 192.865169 270.084003 
L 193.198745 275.880594 
L 193.53232 266.574654 
L 193.865895 268.088271 
L 194.199471 272.85336 
L 194.533046 280.791439 
L 194.866621 279.277822 
L 195.533772 320.952734 
L 195.867347 315.156143 
L 196.200922 306.197774 
L 196.534498 279.199338 
L 196.868073 279.098431 
L 197.201648 304.258103 
L 197.535224 282.192936 
L 198.202374 335.685269 
L 198.535949 323.083009 
L 198.869525 301.017842 
L 199.2031 293.281579 
L 199.536675 268.189179 
L 200.203826 283.022622 
L 200.537401 275.891806 
L 200.870977 293.606726 
L 201.204552 317.566717 
L 201.871702 262.728947 
L 202.205278 290.568281 
L 202.538853 295.333371 
L 202.872428 272.449729 
L 203.206004 264.713467 
L 203.539579 273.671835 
L 203.873154 249.711844 
L 204.20673 244.946754 
L 204.540305 217.10742 
L 204.87388 235.988386 
L 205.207455 290.131014 
L 205.541031 289.559203 
L 205.874606 294.122477 
L 206.208181 309.045616 
L 206.541757 315.840073 
L 206.875332 315.739165 
L 207.208907 331.637746 
L 207.542483 306.545346 
L 207.876058 297.474858 
L 208.209633 275.409691 
L 208.543209 266.103751 
L 208.876784 287.002873 
L 209.210359 285.489256 
L 209.543934 293.763694 
L 209.87751 293.864602 
L 210.211085 284.782902 
L 210.54466 283.157166 
L 210.878236 264.186504 
L 211.545386 312.8689 
L 211.878962 285.870464 
L 212.212537 271.597619 
L 212.546112 280.903559 
L 212.879687 275.039696 
L 213.213263 300.132096 
L 213.546838 293.337639 
L 213.880413 314.236761 
L 214.213989 312.611024 
L 214.547564 303.305085 
L 214.881139 303.596596 
L 215.214715 297.800005 
L 215.54829 306.758373 
L 215.881865 281.598701 
L 216.21544 281.598701 
L 216.549016 303.663868 
L 216.882591 302.015708 
L 217.216166 340.79793 
L 217.549742 342.569422 
L 217.883317 349.363879 
L 218.216892 349.565694 
L 218.550468 342.27791 
L 218.884043 317.118238 
L 219.551193 333.835293 
L 220.218344 317.959136 
L 220.551919 322.724226 
L 220.885495 297.631825 
L 221.21907 297.530918 
L 221.552645 304.818702 
L 221.886221 331.817138 
L 222.219796 330.191401 
L 222.553371 322.903617 
L 222.886946 348.06329 
L 223.220522 235.04658 
L 223.554097 243.926465 
L 224.221248 285.298653 
L 224.554823 293.236731 
L 224.888398 285.298653 
L 225.221974 262.415012 
L 225.555549 271.37338 
L 225.889124 262.302892 
L 226.556275 259.163539 
L 226.88985 267.437976 
L 227.223425 260.340796 
L 227.890576 304.000227 
L 228.224151 319.898808 
L 228.557727 294.739136 
L 228.891302 285.51168 
L 229.224877 312.510116 
L 229.558453 319.304573 
L 229.892028 297.800005 
L 230.225603 210.525991 
L 230.892754 259.264447 
L 231.559904 308.316838 
L 231.89348 299.35847 
L 232.227055 305.155061 
L 232.56063 297.418798 
L 232.894206 306.724737 
L 233.227781 290.826157 
L 233.561356 299.706041 
L 233.894931 290.400102 
L 234.228507 299.179078 
L 234.895657 259.309295 
L 235.229233 278.279956 
L 235.562808 276.65422 
L 235.896383 284.928658 
L 236.229959 279.132067 
L 236.563534 278.930251 
L 237.230684 229.02575 
L 237.56426 256.865084 
L 237.897835 264.601347 
L 238.564986 249.532452 
L 239.565712 315.436442 
L 240.232862 333.016819 
L 240.900013 314.830995 
L 241.233588 315.032811 
L 241.567163 320.829402 
L 241.900739 295.097919 
L 242.234314 310.9965 
L 242.567889 306.23141 
L 242.901465 306.332318 
L 243.23504 297.553342 
L 243.568615 269.714007 
L 244.235766 235.708087 
L 244.902916 269.938247 
L 245.236492 273.671835 
L 245.570067 298.831507 
L 245.903642 279.860845 
L 246.237218 269.590676 
L 246.570793 278.369652 
L 246.904368 270.633389 
L 247.237944 249.734268 
L 247.571519 242.939811 
L 247.905094 263.838932 
L 248.238669 263.738025 
L 248.572245 242.838903 
L 249.239395 285.803192 
L 249.572971 264.90407 
L 249.906546 272.640333 
L 250.240121 254.151786 
L 250.573697 275.050908 
L 250.907272 267.112829 
L 251.240847 300.21058 
L 251.574422 309.438035 
L 251.907998 311.063772 
L 252.241573 290.16465 
L 252.575148 291.678267 
L 253.242299 273.492443 
L 253.575874 248.332771 
L 253.90945 255.127228 
L 254.243025 246.85279 
L 254.5766 255.127228 
L 254.910175 239.228647 
L 255.577326 223.060979 
L 255.910901 240.7759 
L 256.578052 293.774906 
L 256.911627 286.038643 
L 257.245203 306.937765 
L 257.578778 284.872598 
L 257.912353 293.954298 
L 258.245929 266.114963 
L 258.579504 257.840526 
L 258.913079 272.875784 
L 259.246654 281.755669 
L 259.913805 229.664832 
L 260.24738 245.563413 
L 260.580956 238.275629 
L 260.914531 263.36803 
L 261.248106 263.166214 
L 261.581682 302.699638 
L 261.915257 304.325375 
L 262.248832 330.056858 
L 262.582407 321.176973 
L 262.915983 293.337639 
L 263.249558 286.049855 
L 263.916709 303.910532 
L 264.250284 278.818131 
L 264.583859 270.880053 
L 264.917435 243.881617 
L 265.25101 234.654161 
L 265.584585 255.553283 
L 266.251736 269.287952 
L 266.585311 269.187045 
L 267.252462 306.769585 
L 267.919612 291.700691 
L 268.253188 298.988474 
L 268.586763 233.858111 
L 268.920338 262.022593 
L 269.253913 261.921685 
L 269.587489 287.653168 
L 269.921064 296.723656 
L 270.254639 318.407615 
L 270.588215 318.508523 
L 270.92179 327.590223 
L 271.255365 349.65539 
L 271.588941 349.554482 
L 272.256091 365.957602 
L 272.589667 367.583338 
L 272.923242 373.379929 
L 273.256817 364.309442 
L 273.590392 362.683705 
L 273.923968 362.784613 
L 274.257543 354.510175 
L 274.591118 333.611054 
L 274.924694 352.099601 
L 275.258269 345.305144 
L 275.591844 364.275806 
L 275.92542 341.392164 
L 276.258995 365.352155 
L 276.926145 312.353149 
L 277.259721 303.047209 
L 277.593296 328.206882 
L 278.260447 288.034375 
L 278.594022 306.522922 
L 278.927597 313.317379 
L 279.261173 313.115563 
L 279.594748 303.888108 
L 279.928323 311.826186 
L 280.261898 327.724767 
L 281.262624 352.514444 
L 281.929775 334.205288 
L 282.26335 335.718905 
L 282.596926 329.922314 
L 282.930501 312.207393 
L 283.597651 296.230329 
L 283.931227 302.02692 
L 284.264802 303.652656 
L 284.598377 312.958595 
L 284.931953 334.642555 
L 285.265528 318.743975 
L 285.599103 226.884262 
L 286.266254 273.727895 
L 286.599829 299.459377 
L 286.933405 290.377678 
L 287.26698 291.891294 
L 287.600555 310.379841 
L 288.267706 292.350985 
L 288.601281 268.390994 
L 288.934856 268.491902 
L 289.268432 303.428417 
L 289.602007 312.498904 
L 289.935582 331.469566 
L 290.269158 329.95595 
L 290.602733 322.017871 
L 290.936308 328.812328 
L 291.269883 353.904729 
L 291.603459 368.939987 
L 291.937034 359.712532 
L 292.270609 338.81341 
L 292.93776 355.709857 
L 293.271335 357.335593 
L 293.938486 310.559233 
L 294.272061 301.600865 
L 294.605636 301.399049 
L 294.939212 323.083009 
L 295.272787 318.31792 
L 295.606362 316.288552 
L 295.939938 331.469566 
L 296.273513 331.671382 
L 296.607088 333.184999 
L 296.940664 339.979456 
L 297.607814 358.367095 
L 297.941389 383.459495 
L 298.274965 374.377795 
L 298.942115 327.534163 
L 299.275691 318.654279 
L 299.609266 327.735979 
L 299.942841 318.430039 
L 300.276417 342.39003 
L 300.609992 335.102246 
L 300.943567 343.982131 
L 301.277142 328.08355 
L 301.610718 319.013062 
L 301.944293 341.896703 
L 302.277868 337.131614 
L 302.611444 346.437553 
L 302.945019 351.202643 
L 303.278594 351.101735 
L 303.61217 343.163656 
L 303.945745 352.122025 
L 304.27932 368.895139 
L 304.612896 367.381523 
L 304.946471 345.697563 
L 305.280046 351.494154 
L 305.613621 334.721039 
L 305.947197 350.61962 
L 306.280772 187.776893 
L 306.614347 205.491814 
L 306.947923 230.651486 
L 307.281498 242.59224 
L 307.615073 242.894963 
L 307.948649 248.691554 
L 308.282224 279.098431 
L 308.615799 273.301839 
L 308.949374 297.060015 
L 309.28295 288.135283 
L 309.616525 297.441222 
L 309.9501 272.28155 
L 310.283676 272.180642 
L 310.617251 245.182206 
L 311.617977 308.238354 
L 311.951552 280.39902 
L 312.285127 282.024756 
L 312.618703 288.819213 
L 312.952278 273.783954 
L 313.285853 298.943627 
L 313.619429 289.716171 
L 313.953004 288.090435 
L 314.286579 315.088871 
L 314.620155 330.124129 
L 314.95373 315.088871 
L 315.287305 306.130503 
L 315.62088 306.332318 
L 316.288031 349.262971 
L 317.288757 303.854472 
L 317.622332 312.81284 
L 318.289483 294.783984 
L 318.623058 269.624312 
L 318.956634 290.523433 
L 319.290209 268.458266 
L 319.957359 322.029083 
L 320.290935 296.2976 
L 320.62451 288.023163 
L 320.958085 296.46578 
L 321.291661 300.928146 
L 321.625236 292.09311 
L 321.958811 299.19029 
L 322.292387 316.905211 
L 322.959537 284.906234 
L 323.293112 310.637717 
L 323.626688 318.373979 
L 323.960263 318.172164 
L 324.293838 323.968755 
L 324.627414 339.004014 
L 325.294564 288.281038 
L 325.62814 288.482854 
L 325.961715 279.176914 
L 326.29529 304.336587 
L 326.628865 283.437465 
L 326.962441 277.640874 
L 327.296016 269.702795 
L 327.629591 244.543123 
L 327.963167 235.663239 
L 328.296742 209.931756 
L 328.630317 214.696846 
L 328.963893 193.012886 
L 329.297468 215.078053 
L 329.631043 224.383992 
L 329.964618 241.157107 
L 330.298194 272.718817 
L 331.29892 326.076606 
L 331.632495 317.006118 
L 331.96607 332.041377 
L 332.299646 317.006118 
L 332.633221 324.293902 
L 332.966796 324.192995 
L 333.300371 332.971971 
L 333.633947 314.001309 
L 333.967522 306.713525 
L 334.301097 313.507982 
L 334.968248 264.388319 
L 335.301823 288.34831 
L 335.635399 288.449218 
L 335.968974 282.652627 
L 336.302549 289.749807 
L 336.636125 264.018324 
L 336.9697 271.754587 
L 337.303275 253.26604 
L 337.970426 237.591699 
L 338.304001 304.235679 
L 338.637576 312.173757 
L 338.971152 311.971942 
L 339.304727 312.958595 
L 339.638302 305.3793 
L 339.971878 307.005037 
L 340.305453 349.789934 
L 340.639028 373.749925 
L 340.972603 373.548109 
L 342.306905 290.321618 
L 342.64048 345.708775 
L 342.974055 337.972512 
L 343.307631 363.064912 
L 343.641206 371.944797 
L 343.974781 371.843889 
L 344.308356 399.683223 
L 344.641932 377.999263 
L 344.975507 387.226719 
L 345.309082 403.999833 
L 345.642658 413.070321 
L 346.309808 364.455197 
L 346.643384 258.367489 
L 346.976959 232.636006 
L 347.644109 285.668648 
L 348.31126 317.656413 
L 348.644835 323.453004 
L 348.978411 315.178567 
L 349.311986 322.46635 
L 349.645561 315.178567 
L 349.979137 330.213825 
L 350.312712 315.178567 
L 350.646287 319.943656 
L 350.979863 319.842748 
L 351.313438 294.750348 
L 351.647013 286.251671 
L 351.980588 264.567711 
L 352.647739 296.376084 
L 352.981314 296.476992 
L 353.31489 303.764776 
L 353.648465 302.251159 
L 354.315616 260.396856 
L 354.649191 254.600265 
L 354.982766 256.113882 
L 355.316341 239.340767 
L 355.649917 261.024727 
L 355.983492 252.066359 
L 356.317067 251.965451 
L 356.650643 252.066359 
L 356.984218 320.223955 
L 357.317793 322.152415 
L 357.651369 339.979456 
L 357.984944 339.979456 
L 358.318519 365.139128 
L 358.652094 356.259243 
L 359.319245 403.06924 
L 359.65282 381.004072 
L 359.986396 373.906892 
L 360.319971 373.09963 
L 360.653546 395.164797 
L 360.987122 372.281156 
L 361.320697 381.16104 
L 361.654272 355.429557 
L 361.987847 373.918104 
L 362.321423 346.919668 
L 362.654998 372.651151 
L 362.988573 388.549732 
L 363.322149 395.646912 
L 363.655724 378.873797 
L 363.989299 405.872233 
L 364.322875 380.14075 
L 364.65645 384.90584 
L 364.990025 377.80866 
L 365.3236 403.540142 
L 365.657176 403.64105 
L 365.990751 412.599418 
L 366.324326 404.324981 
L 366.657902 404.526796 
L 366.991477 395.646912 
L 367.325052 370.554512 
L 367.658628 361.596144 
L 367.992203 355.799552 
L 368.325778 330.06807 
L 368.659354 339.149769 
L 368.992929 320.179107 
L 369.326504 315.414018 
L 369.660079 324.293902 
L 369.993655 314.987963 
L 370.32723 322.275747 
L 370.660805 322.174839 
L 370.994381 314.887055 
L 371.327956 323.643608 
L 371.661531 348.80328 
L 371.995107 355.90046 
L 372.328682 374.871122 
L 372.662257 374.97203 
L 372.995832 381.766487 
L 373.996558 356.707722 
L 374.330134 379.591364 
L 374.663709 374.310523 
L 374.997284 346.471189 
L 375.33086 337.243734 
L 375.664435 346.471189 
L 375.99801 327.500527 
L 376.331585 318.631855 
L 376.665161 327.713555 
L 377.332311 286.061067 
L 377.665887 293.999146 
L 377.999462 295.714578 
L 378.333037 290.433737 
L 378.666613 303.047209 
L 379.000188 303.047209 
L 379.333763 235.708087 
L 379.667338 256.607209 
L 380.000914 263.704389 
L 380.334489 254.398449 
L 380.668064 229.238777 
L 381.00164 212.465662 
L 381.335215 229.238777 
L 381.66879 229.339685 
L 382.002366 238.645624 
L 382.669516 282.708687 
L 383.336667 264.971342 
L 383.670242 308.585925 
L 384.003817 334.317408 
L 384.670968 309.090464 
L 385.004543 324.125723 
L 385.338119 314.819783 
L 385.671694 333.790445 
L 386.005269 326.693265 
L 386.67242 286.823481 
L 387.005995 296.050937 
L 387.33957 273.167296 
L 387.673146 277.932385 
L 388.006721 268.850685 
L 388.340296 244.890695 
L 388.673872 267.774336 
L 389.007447 267.673428 
L 390.008173 331.805926 
L 390.675323 321.244245 
L 391.008899 303.529324 
L 391.342474 322.499986 
L 391.676049 329.597167 
L 392.009625 354.756839 
L 392.3432 335.786177 
L 392.676775 334.16044 
L 393.010351 318.26186 
L 393.343926 293.102188 
L 393.677501 294.727924 
L 394.011076 294.828832 
L 394.344652 245.989468 
L 394.678227 301.152386 
L 395.011802 301.152386 
L 395.345378 299.672405 
L 395.678953 322.298171 
L 396.012528 327.06326 
L 396.679679 282.361115 
L 397.013254 276.564524 
L 397.346829 284.838962 
L 397.680405 301.612077 
L 398.347555 285.433197 
L 398.681131 257.593862 
L 399.014706 248.635494 
L 399.348281 271.519135 
L 399.681857 277.315727 
L 400.015432 277.517542 
L 401.016158 203.675474 
L 401.349733 197.363132 
L 401.683308 225.202466 
L 402.016884 226.98517 
L 402.350459 245.955832 
L 402.684034 247.088242 
L 403.01761 256.04661 
L 403.68476 239.082891 
L 404.018336 222.309777 
L 404.351911 231.088753 
L 404.685486 210.189632 
L 405.019061 225.22489 
L 405.352637 232.32207 
L 405.686212 259.320507 
L 406.019787 253.523915 
L 406.353363 261.260178 
L 406.686938 252.30181 
L 407.020513 224.462476 
L 407.354089 245.361597 
L 407.687664 230.326339 
L 408.021239 231.133601 
L 408.68839 192.519559 
L 409.35554 210.626899 
L 409.689116 232.310858 
L 410.022691 224.574596 
L 410.689842 183.919974 
L 411.023417 211.759308 
L 411.356992 317.970348 
L 411.690567 310.424689 
L 412.024143 311.254375 
L 412.357718 320.033352 
L 412.691293 311.758914 
L 413.358444 346.448765 
L 413.692019 371.541165 
L 414.025595 377.797448 
L 414.35917 370.509664 
L 414.692745 346.863608 
L 415.359896 328.565665 
L 415.693471 328.76748 
L 416.027046 337.837968 
L 416.360622 312.745568 
L 416.694197 341.156713 
L 417.027772 334.362256 
L 417.694923 289.906775 
L 418.362074 307.913207 
L 418.695649 300.176944 
L 419.029224 308.451381 
L 419.362799 300.176944 
L 419.696375 278.111777 
L 420.02995 269.231893 
L 420.363525 276.519676 
L 420.697101 259.746562 
L 421.030676 234.586889 
L 421.364251 262.426224 
L 421.697827 270.700661 
L 422.031402 360.127375 
L 422.364977 363.894598 
L 422.698552 347.121484 
L 423.032128 340.024303 
L 423.365703 355.059562 
L 423.699278 346.179678 
L 424.032854 324.114511 
L 424.700004 339.990667 
L 425.03358 330.92018 
L 425.367155 352.985347 
L 425.70073 362.055835 
L 426.034305 352.974135 
L 426.367881 351.348398 
L 426.701456 360.430098 
L 427.035031 354.633507 
L 427.368607 354.532599 
L 427.702182 371.305714 
L 428.035757 379.580152 
L 429.370058 289.290116 
L 429.703634 280.511139 
L 430.370784 296.185481 
L 430.70436 269.187045 
L 431.037935 264.421955 
L 431.37151 270.218546 
L 431.705086 263.121366 
L 432.372236 299.324834 
L 432.705812 291.756751 
L 433.039387 300.83845 
L 433.372962 328.677785 
L 434.040113 346.684217 
L 434.373688 338.947954 
L 434.707263 364.679437 
L 435.040839 355.597737 
L 435.374414 363.334 
L 436.041565 322.600894 
L 436.37514 301.701772 
L 436.708715 318.474887 
L 437.04229 260.30716 
L 437.375866 286.038643 
L 437.709441 293.774906 
L 438.376592 332.557128 
L 438.710167 324.61905 
L 439.043742 303.719928 
L 439.377318 325.785095 
L 439.710893 331.581686 
L 440.044468 322.354231 
L 440.378043 331.66017 
L 440.711619 331.458354 
L 441.045194 329.832618 
L 441.378769 322.096355 
L 441.712345 296.936683 
L 442.379495 281.340826 
L 442.713071 288.135283 
L 443.046646 272.236702 
L 443.380221 282.361115 
L 443.713796 301.096326 
L 444.047372 311.803762 
L 444.380947 306.007171 
L 444.714522 284.323211 
L 445.048098 275.936654 
L 445.381673 283.672916 
L 445.715248 260.789275 
L 446.048824 279.120855 
L 446.382399 285.545316 
L 446.715974 258.54688 
L 447.04955 272.16943 
L 447.7167 321.289093 
L 448.050275 299.605133 
L 448.717426 339.77764 
L 449.051001 362.661281 
L 449.384577 353.590793 
L 449.718152 331.906833 
L 450.051727 324.61905 
L 450.385303 319.85396 
L 450.718878 303.349933 
L 451.052453 311.62437 
L 451.386028 304.52719 
L 452.053179 320.773342 
L 452.386754 313.485558 
L 452.72033 313.384651 
L 453.053905 212.432027 
L 453.38748 220.224349 
L 453.721056 212.936565 
L 454.054631 240.7759 
L 454.388206 259.264447 
L 454.721781 267.000709 
L 455.055357 268.626446 
L 455.388932 250.137899 
L 455.722507 258.412337 
L 456.056083 236.728377 
L 456.723233 219.71981 
L 457.056809 244.812211 
L 457.390384 243.298594 
L 457.723959 252.52605 
L 458.057534 250.900313 
L 458.39111 225.807913 
L 458.724685 273.840014 
L 459.725411 297.934549 
L 460.392562 280.780227 
L 460.726137 292.474317 
L 461.059712 316.434308 
L 461.393288 293.550667 
L 461.726863 245.821288 
L 462.060438 229.048174 
L 462.394013 256.887508 
L 462.727589 257.089323 
L 463.061164 261.854413 
L 463.394739 280.825075 
L 464.06189 264.197716 
L 464.729041 301.780256 
L 465.062616 301.982072 
L 465.396191 301.881164 
L 465.729766 303.5069 
L 466.063342 298.853931 
L 466.396917 301.567229 
L 466.730492 293.718846 
L 467.064068 320.717282 
L 467.397643 315.952193 
L 467.731218 332.725308 
L 468.064794 307.565635 
L 468.398369 312.330725 
L 468.731944 335.214366 
L 469.065519 344.441822 
L 469.73267 327.848098 
L 470.399821 314.113429 
L 470.733396 287.114993 
L 471.066971 284.82775 
L 471.400547 309.987422 
L 471.734122 318.766399 
L 472.401272 286.094703 
L 472.734848 301.993284 
L 473.401998 319.573661 
L 473.735574 304.538402 
L 474.069149 313.60889 
L 474.7363 271.025809 
L 475.40345 311.68043 
L 476.070601 272.28155 
L 476.404176 265.487093 
L 476.737751 274.826668 
L 477.071327 292.541589 
L 477.404902 271.642467 
L 478.072053 288.011951 
L 478.739203 325.684187 
L 479.072779 325.684187 
L 479.406354 327.309924 
L 479.739929 336.268292 
L 480.073504 257.840526 
L 480.740655 273.896074 
L 481.07423 269.27674 
L 481.407806 261.461994 
L 481.741381 261.663809 
L 482.074956 255.867218 
L 482.408532 263.805297 
L 482.742107 254.846928 
L 483.075682 232.781761 
L 483.409257 232.680854 
L 483.742833 257.773254 
L 484.076408 265.061038 
L 484.743559 246.527643 
L 485.077134 255.755098 
L 485.410709 236.784437 
L 486.07786 253.299676 
L 486.411435 225.460342 
L 486.74501 231.256933 
L 487.412161 215.078053 
L 487.745736 197.363132 
L 488.079312 331.682594 
L 488.412887 337.84918 
L 488.746462 310.009846 
L 489.080038 309.908938 
L 489.413613 313.317379 
L 490.080763 296.073361 
L 490.414339 296.275177 
L 490.747914 289.177996 
L 491.081489 270.689449 
L 491.415065 278.963887 
L 491.74864 251.965451 
L 492.415791 234.620525 
L 492.749366 213.721404 
L 493.082941 213.721404 
L 493.416517 221.009188 
L 493.750092 195.849515 
L 494.083667 214.035339 
L 494.417242 218.800428 
L 494.750818 212.005972 
L 495.084393 228.767874 
L 495.417968 220.560709 
L 495.751544 227.590617 
L 496.085119 227.590617 
L 496.418694 234.687797 
L 496.75227 228.891206 
L 497.41942 281.049314 
L 497.752995 288.987393 
L 498.086571 299.784525 
L 498.420146 274.624853 
L 498.753721 266.686774 
L 499.087297 266.541018 
L 499.420872 273.526079 
L 499.754447 292.014626 
L 500.088023 294.043993 
L 500.421598 292.418257 
L 500.755173 288.482854 
L 501.088748 293.247943 
L 501.422324 266.249507 
L 501.755899 256.943568 
L 502.089474 235.259608 
L 502.42305 243.197686 
L 502.756625 244.823423 
L 503.0902 244.823423 
L 503.423776 244.621607 
L 503.757351 275.364843 
L 504.090926 275.364843 
L 504.424501 276.990579 
L 504.758077 286.061067 
L 505.091652 267.090405 
L 505.425227 266.597078 
L 505.758803 281.206282 
L 506.092378 289.099512 
L 506.425953 274.15395 
L 506.759529 278.47056 
L 507.093104 269.164621 
L 507.426679 278.122989 
L 507.760254 269.512192 
L 508.09383 285.410773 
L 508.427405 285.51168 
L 508.76098 294.391565 
L 509.428131 249.532452 
L 509.761706 241.594374 
L 510.095282 298.326968 
L 510.762432 315.380382 
L 511.096008 313.754646 
L 511.429583 313.55283 
L 511.763158 328.588089 
L 512.096733 319.506389 
L 512.430309 342.39003 
L 512.763884 342.289122 
L 513.097459 317.12945 
L 513.431035 308.171082 
L 513.76461 332.478644 
L 514.098185 344.755757 
L 514.431761 323.856635 
L 514.765336 336.077688 
L 515.098911 337.591305 
L 515.432486 342.356394 
L 515.766062 333.128939 
L 516.099637 332.927123 
L 516.433212 324.652686 
L 516.766788 333.53257 
L 517.433938 295.860333 
L 517.767514 321.020006 
L 518.101089 330.101705 
L 518.434664 307.218064 
L 518.768239 323.991179 
L 519.101815 323.890271 
L 519.43539 307.99169 
L 519.768965 329.67565 
L 520.436116 280.152356 
L 520.769691 280.354172 
L 521.103267 289.31254 
L 521.770417 328.700209 
L 522.103992 309.729547 
L 522.771143 328.262942 
L 523.104718 319.383057 
L 523.438294 293.651574 
L 523.771869 292.137958 
L 524.105444 271.238836 
L 524.43902 271.238836 
L 525.10617 257.335987 
L 525.773321 240.293785 
L 526.106896 218.228618 
L 526.440471 239.912578 
L 526.774047 214.752905 
L 527.441197 260.811699 
L 527.774773 267.931303 
L 528.108348 269.411284 
L 528.441923 313.216471 
L 528.775499 306.39959 
L 529.109074 322.298171 
L 529.776224 283.684128 
L 530.1098 309.415611 
L 530.443375 286.53197 
L 530.77695 301.410261 
L 531.110526 301.208446 
L 531.444101 324.092087 
L 531.777676 332.871063 
L 532.111252 328.105974 
L 532.444827 301.107538 
L 532.778402 316.142796 
L 533.445553 332.758944 
L 533.779128 310.693777 
L 534.112703 319.775476 
L 534.446279 294.683076 
L 534.779854 285.455621 
L 535.113429 286.969237 
L 535.447005 296.275177 
L 535.78058 287.395292 
L 536.781306 228.140004 
L 537.114881 261.753505 
L 537.448456 277.977233 
L 537.782032 299.661193 
L 538.115607 293.864602 
L 538.449182 302.946302 
L 539.116333 264.332259 
L 539.449908 264.130444 
L 539.783483 245.787653 
L 540.117059 255.015108 
L 540.450634 253.389372 
L 540.784209 255.586919 
L 541.117785 232.703278 
L 541.45136 257.795678 
L 541.784935 259.309295 
L 542.118511 274.344553 
L 542.452086 274.344553 
L 543.119237 324.22663 
L 543.452812 315.268262 
L 543.786387 300.233004 
L 544.453538 332.041377 
L 545.120688 313.732222 
L 545.454264 289.772231 
L 545.787839 306.724737 
L 546.121414 306.724737 
L 546.45499 315.604622 
L 546.788565 297.889701 
L 547.455715 297.990609 
L 547.789291 307.218064 
L 548.122866 308.843801 
L 548.456441 303.047209 
L 549.123592 315.638258 
L 549.457167 334.126805 
L 549.790743 325.056317 
L 550.124318 323.43058 
L 550.457893 296.432144 
L 550.791468 289.14436 
L 551.125044 268.245239 
L 551.458619 295.243675 
L 552.12577 249.184881 
L 552.459345 256.472665 
L 552.79292 248.736402 
L 553.126496 250.362138 
L 553.460071 234.463558 
L 553.793646 243.22011 
L 554.127221 243.22011 
L 554.460797 260.30716 
L 554.794372 249.756692 
L 555.127947 274.849092 
L 555.461523 265.621637 
L 555.795098 265.621637 
L 556.462249 251.886967 
L 556.795824 272.786089 
L 557.129399 280.724167 
L 557.462975 255.564495 
L 558.130125 272.382458 
L 558.4637 297.54213 
L 558.797276 276.643008 
L 559.130851 276.643008 
L 559.464426 251.550608 
L 559.798002 273.234568 
L 560.131577 273.032752 
L 560.465152 288.931333 
L 560.798728 261.091999 
L 561.132303 269.366436 
L 561.465878 261.428358 
L 561.799453 259.802621 
L 562.133029 261.428358 
L 562.800179 246.404311 
L 563.133755 244.778575 
L 563.46733 269.870975 
L 563.800905 246.987334 
L 564.134481 245.473717 
L 564.468056 246.987334 
L 565.468782 186.958419 
L 565.802357 186.958419 
L 566.135932 187.462958 
L 566.469508 160.464522 
L 566.803083 185.624194 
L 567.136658 185.624194 
L 567.470234 176.665826 
L 568.137384 219.596479 
L 568.804535 203.720322 
L 569.13811 203.720322 
L 569.805261 218.92376 
L 570.138836 218.92376 
L 570.472411 211.019318 
L 570.805987 220.246773 
L 571.139562 244.206764 
L 571.473137 234.979309 
L 571.806712 242.715571 
L 572.140288 244.229188 
L 572.473863 250.025779 
L 572.807438 250.227595 
L 573.141014 251.853331 
L 573.474589 242.894963 
L 574.14174 287.114993 
L 574.475315 287.114993 
L 574.80889 303.013574 
L 575.142466 312.084061 
L 575.476041 312.084061 
L 575.809616 302.038132 
L 576.476767 332.758944 
L 576.810342 323.531488 
L 577.143917 323.531488 
L 577.811068 272.808513 
L 578.144643 281.890212 
L 578.478219 275.095756 
L 578.811794 275.544235 
L 579.145369 275.544235 
L 579.81252 290.613129 
L 580.146095 282.338691 
L 580.47967 261.43957 
L 580.813246 252.13363 
L 581.146821 230.068463 
L 581.813972 247.121878 
L 582.147547 247.121878 
L 582.481122 256.001762 
L 582.814697 237.0311 
L 583.481848 219.674962 
L 584.148999 219.77587 
L 584.482574 210.548415 
L 584.816149 236.279898 
L 585.149725 245.585837 
L 585.4833 264.556499 
L 585.816875 264.556499 
L 586.484026 213.732616 
L 587.151176 256.315697 
L 587.484752 250.519106 
L 587.818327 254.835716 
L 588.151902 245.955832 
L 588.485478 272.886996 
L 588.819053 256.113882 
L 589.152628 264.892858 
L 589.486204 243.993737 
L 589.819779 243.993737 
L 590.153354 251.931815 
L 590.486929 224.933379 
L 590.820505 218.138922 
L 591.15408 218.138922 
L 591.487655 210.077512 
L 591.821231 217.174692 
L 592.154806 217.174692 
L 592.488381 209.236614 
L 592.821957 234.968097 
L 593.155532 225.897609 
L 594.823408 225.897609 
L 595.156984 203.832442 
L 595.824134 203.832442 
L 596.15771 205.346058 
L 596.82486 205.346058 
L 597.158435 214.573514 
L 597.492011 205.491814 
L 597.825586 205.491814 
L 598.492737 188.898091 
L 598.826312 209.797212 
L 599.159887 217.084996 
L 599.493463 235.573543 
L 599.827038 219.674962 
L 600.160613 219.674962 
L 600.494188 221.300699 
L 600.827764 202.363673 
L 602.49564 202.363673 
L 602.829216 227.523345 
L 603.162791 209.034798 
L 603.496366 201.298535 
L 604.830667 201.298535 
L 605.164243 180.399414 
L 605.497818 186.196005 
L 605.831393 186.196005 
L 606.164969 164.512045 
L 606.498544 164.512045 
L 606.832119 173.817984 
L 607.832845 173.817984 
L 608.16642 198.910385 
L 608.499996 189.952016 
L 609.834297 189.952016 
L 610.501448 206.971795 
L 610.835023 206.971795 
L 611.168598 215.246232 
L 611.502173 233.734779 
L 611.835749 218.699521 
L 612.502899 218.598613 
L 612.836475 212.802022 
L 613.17005 212.802022 
L 613.503625 195.087101 
L 613.837201 204.157589 
L 614.504351 204.258497 
L 615.171502 204.258497 
L 615.505077 194.952557 
L 615.838652 193.438941 
L 616.172228 174.950394 
L 616.505803 167.66261 
L 616.839378 167.66261 
L 617.172954 176.620978 
L 617.840104 176.620978 
L 618.173679 151.461306 
L 618.84083 151.461306 
L 619.174405 142.23385 
L 619.841556 142.132943 
L 620.175131 159.847863 
L 620.508707 159.847863 
L 620.842282 174.883122 
L 621.175857 166.003238 
L 621.509433 165.801422 
L 622.176583 165.801422 
L 622.510158 181.700003 
L 622.843734 174.602823 
L 623.177309 174.602823 
L 623.510884 183.830278 
L 623.84446 166.115357 
L 624.178035 161.350268 
L 624.845186 161.350268 
L 625.178761 166.115357 
L 625.512336 156.887902 
L 626.846637 156.887902 
L 627.180213 158.401518 
L 627.513788 142.502938 
L 628.848089 142.502938 
L 629.181664 145.249872 
L 630.849541 145.350779 
L 631.183116 154.656719 
L 632.183842 154.656719 
L 632.517417 146.079558 
L 634.852445 146.079558 
L 635.18602 153.176738 
L 637.854622 153.176738 
L 638.188198 146.079558 
L 638.521773 154.959442 
L 638.855348 154.959442 
L 639.188924 172.674363 
L 639.856074 172.674363 
L 640.523225 188.741123 
L 640.8568 187.115387 
L 641.190375 187.115387 
L 641.523951 203.888502 
L 641.857526 195.950423 
L 642.191101 180.915165 
L 642.524677 180.814257 
L 642.858252 190.041712 
L 643.191827 181.083344 
L 645.193279 181.083344 
L 645.526854 173.79556 
L 646.194005 173.79556 
L 646.52758 175.421297 
L 649.196183 175.522204 
L 649.529758 147.68287 
L 651.197634 147.68287 
L 651.53121 146.057134 
L 657.535565 146.057134 
L 657.86914 153.434613 
L 659.203442 153.434613 
L 659.537017 144.364126 
L 660.537743 144.364126 
L 660.871318 150.620408 
L 661.538469 150.620408 
L 661.872044 131.649746 
L 666.208523 131.649746 
L 666.542098 133.275482 
L 672.880029 133.275482 
L 673.213604 131.649746 
L 674.547906 131.649746 
L 674.881481 124.081663 
L 680.552261 124.081663 
L 680.885836 123.812575 
L 684.555165 123.812575 
L 684.88874 122.792285 
L 685.889466 122.792285 
L 686.223041 121.166549 
L 688.224493 121.166549 
L 688.558068 113.172411 
L 688.891644 113.172411 
L 689.558794 99.157442 
L 694.895999 99.056534 
L 695.229574 89.750595 
L 770.284017 89.750595 
L 770.617593 88.887273 
L 871.690909 88.887273 
L 871.690909 88.887273 
" style="fill:none;stroke:#8dd3c7;stroke-linecap:square;stroke-width:1.5;"/>
   </g>
   <g id="line2d_15">
    <path clip-path="url(#p73fc022680)" d="M 161.509091 179.13246 
L 566.135932 179.13246 
L 566.469508 160.464522 
L 617.840104 160.464522 
L 618.173679 151.461306 
L 618.84083 151.461306 
L 619.174405 142.23385 
L 661.538469 142.132943 
L 661.872044 131.649746 
L 674.547906 131.649746 
L 674.881481 124.081663 
L 680.552261 124.081663 
L 680.885836 123.812575 
L 684.555165 123.812575 
L 684.88874 122.792285 
L 685.889466 122.792285 
L 686.223041 121.166549 
L 688.224493 121.166549 
L 688.558068 113.172411 
L 688.891644 113.172411 
L 689.558794 99.157442 
L 694.895999 99.056534 
L 695.229574 89.750595 
L 770.284017 89.750595 
L 770.617593 88.887273 
L 871.690909 88.887273 
L 871.690909 88.887273 
" style="fill:none;stroke:#feffb3;stroke-linecap:square;stroke-width:1.5;"/>
   </g>
   <g id="line2d_16">
    <path clip-path="url(#p73fc022680)" d="M 161.509091 270.662541 
L 164.511269 270.662541 
L 164.844844 291.083679 
L 167.847022 291.083679 
L 168.180597 309.55219 
L 171.182775 309.55219 
L 171.51635 326.25478 
L 174.518528 326.25478 
L 174.852103 341.360304 
L 177.854281 341.360304 
L 178.187856 355.021469 
L 181.190034 355.021469 
L 181.523609 367.376381 
L 184.525787 367.376381 
L 184.859362 378.549942 
L 187.86154 378.549942 
L 188.195115 388.655111 
L 191.197293 388.655111 
L 191.530868 397.794044 
L 194.533046 397.794044 
L 194.866621 406.059132 
L 197.868799 406.059132 
L 198.202374 413.533929 
L 201.204552 413.533929 
L 201.538127 420.294001 
L 204.540305 420.294001 
L 204.87388 426.40769 
L 207.876058 426.40769 
L 208.209633 431.9368 
L 211.211811 431.9368 
L 211.545386 436.937228 
L 214.547564 436.937228 
L 214.881139 441.459525 
L 217.883317 441.459525 
L 218.216892 445.54941 
L 221.21907 445.54941 
L 221.552645 449.248229 
L 224.554823 449.248229 
L 224.888398 452.593374 
L 227.890576 452.593374 
L 228.224151 455.618663 
L 231.226329 455.618663 
L 231.559904 458.354681 
L 234.562082 458.354681 
L 234.895657 460.829086 
L 237.897835 460.829086 
L 238.23141 463.066893 
L 241.233588 463.066893 
L 241.567163 465.090727 
L 244.569341 465.090727 
L 244.902916 466.921045 
L 247.905094 466.921045 
L 248.238669 468.576352 
L 251.240847 468.576352 
L 251.574422 470.073382 
L 254.5766 470.073382 
L 254.910175 471.427269 
L 257.912353 471.427269 
L 258.245929 472.651701 
L 261.248106 472.651701 
L 261.581682 473.759054 
L 264.583859 473.759054 
L 264.917435 474.760525 
L 267.919612 474.760525 
L 268.253188 475.666238 
L 271.255365 475.666238 
L 271.588941 476.485348 
L 274.591118 476.485348 
L 274.924694 477.226136 
L 277.926871 477.226136 
L 278.260447 477.896092 
L 281.262624 477.896092 
L 281.5962 478.501988 
L 284.598377 478.501988 
L 284.931953 479.049949 
L 287.93413 479.049949 
L 288.267706 479.545516 
L 291.269883 479.545516 
L 291.603459 479.993697 
L 294.605636 479.993697 
L 294.939212 480.399024 
L 297.941389 480.399024 
L 298.274965 480.765595 
L 301.277142 480.765595 
L 301.610718 481.097115 
L 304.612896 481.097115 
L 304.946471 481.396936 
L 307.948649 481.396936 
L 308.282224 481.668088 
L 311.284402 481.668088 
L 311.617977 481.913314 
L 314.620155 481.913314 
L 314.95373 482.135091 
L 317.955908 482.135091 
L 318.289483 482.335663 
L 321.291661 482.335663 
L 321.625236 482.517056 
L 324.627414 482.517056 
L 324.960989 482.681105 
L 327.963167 482.681105 
L 328.296742 482.829468 
L 331.29892 482.829468 
L 331.632495 482.963645 
L 334.634673 482.963645 
L 334.968248 483.084992 
L 341.306179 483.194736 
L 341.973329 483.293987 
L 347.977685 483.383747 
L 348.644835 483.464925 
L 354.649191 483.53834 
L 355.316341 483.604736 
L 361.320697 483.664783 
L 362.321423 483.719089 
L 371.327956 483.812619 
L 372.328682 483.852789 
L 384.670968 483.951687 
L 386.338845 483.978559 
L 404.685486 484.078954 
L 407.354089 484.093658 
L 458.057534 484.20193 
L 471.734122 484.214095 
L 871.690909 484.232727 
L 871.690909 484.232727 
" style="fill:none;stroke:#bfbbd9;stroke-linecap:square;stroke-width:1.5;"/>
   </g>
   <g id="patch_3">
    <path d="M 126 504 
L 126 69.12 
" style="fill:none;stroke:#ffffff;stroke-linecap:square;stroke-linejoin:miter;stroke-width:0.8;"/>
   </g>
   <g id="patch_4">
    <path d="M 907.2 504 
L 907.2 69.12 
" style="fill:none;stroke:#ffffff;stroke-linecap:square;stroke-linejoin:miter;stroke-width:0.8;"/>
   </g>
   <g id="patch_5">
    <path d="M 126 504 
L 907.2 504 
" style="fill:none;stroke:#ffffff;stroke-linecap:square;stroke-linejoin:miter;stroke-width:0.8;"/>
   </g>
   <g id="patch_6">
    <path d="M 126 69.12 
L 907.2 69.12 
" style="fill:none;stroke:#ffffff;stroke-linecap:square;stroke-linejoin:miter;stroke-width:0.8;"/>
   </g>
   <g id="text_15">
    <!-- instance 7 with error 0.004882316419258292 -->
    <g style="fill:#ffffff;" transform="translate(378.046875 63.12)scale(0.12 -0.12)">
     <defs>
      <path d="M 2834 3397 
L 2834 2853 
Q 2591 2978 2328 3040 
Q 2066 3103 1784 3103 
Q 1356 3103 1142 2972 
Q 928 2841 928 2578 
Q 928 2378 1081 2264 
Q 1234 2150 1697 2047 
L 1894 2003 
Q 2506 1872 2764 1633 
Q 3022 1394 3022 966 
Q 3022 478 2636 193 
Q 2250 -91 1575 -91 
Q 1294 -91 989 -36 
Q 684 19 347 128 
L 347 722 
Q 666 556 975 473 
Q 1284 391 1588 391 
Q 1994 391 2212 530 
Q 2431 669 2431 922 
Q 2431 1156 2273 1281 
Q 2116 1406 1581 1522 
L 1381 1569 
Q 847 1681 609 1914 
Q 372 2147 372 2553 
Q 372 3047 722 3315 
Q 1072 3584 1716 3584 
Q 2034 3584 2315 3537 
Q 2597 3491 2834 3397 
z
" id="DejaVuSans-73" transform="scale(0.015625)"/>
      <path d="M 3122 3366 
L 3122 2828 
Q 2878 2963 2633 3030 
Q 2388 3097 2138 3097 
Q 1578 3097 1268 2742 
Q 959 2388 959 1747 
Q 959 1106 1268 751 
Q 1578 397 2138 397 
Q 2388 397 2633 464 
Q 2878 531 3122 666 
L 3122 134 
Q 2881 22 2623 -34 
Q 2366 -91 2075 -91 
Q 1284 -91 818 406 
Q 353 903 353 1747 
Q 353 2603 823 3093 
Q 1294 3584 2113 3584 
Q 2378 3584 2631 3529 
Q 2884 3475 3122 3366 
z
" id="DejaVuSans-63" transform="scale(0.015625)"/>
      <path id="DejaVuSans-20" transform="scale(0.015625)"/>
      <path d="M 525 4666 
L 3525 4666 
L 3525 4397 
L 1831 0 
L 1172 0 
L 2766 4134 
L 525 4134 
L 525 4666 
z
" id="DejaVuSans-37" transform="scale(0.015625)"/>
      <path d="M 269 3500 
L 844 3500 
L 1563 769 
L 2278 3500 
L 2956 3500 
L 3675 769 
L 4391 3500 
L 4966 3500 
L 4050 0 
L 3372 0 
L 2619 2869 
L 1863 0 
L 1184 0 
L 269 3500 
z
" id="DejaVuSans-77" transform="scale(0.015625)"/>
      <path d="M 3513 2113 
L 3513 0 
L 2938 0 
L 2938 2094 
Q 2938 2591 2744 2837 
Q 2550 3084 2163 3084 
Q 1697 3084 1428 2787 
Q 1159 2491 1159 1978 
L 1159 0 
L 581 0 
L 581 4863 
L 1159 4863 
L 1159 2956 
Q 1366 3272 1645 3428 
Q 1925 3584 2291 3584 
Q 2894 3584 3203 3211 
Q 3513 2838 3513 2113 
z
" id="DejaVuSans-68" transform="scale(0.015625)"/>
      <path d="M 684 794 
L 1344 794 
L 1344 0 
L 684 0 
L 684 794 
z
" id="DejaVuSans-2e" transform="scale(0.015625)"/>
      <path d="M 2419 4116 
L 825 1625 
L 2419 1625 
L 2419 4116 
z
M 2253 4666 
L 3047 4666 
L 3047 1625 
L 3713 1625 
L 3713 1100 
L 3047 1100 
L 3047 0 
L 2419 0 
L 2419 1100 
L 313 1100 
L 313 1709 
L 2253 4666 
z
" id="DejaVuSans-34" transform="scale(0.015625)"/>
      <path d="M 2034 2216 
Q 1584 2216 1326 1975 
Q 1069 1734 1069 1313 
Q 1069 891 1326 650 
Q 1584 409 2034 409 
Q 2484 409 2743 651 
Q 3003 894 3003 1313 
Q 3003 1734 2745 1975 
Q 2488 2216 2034 2216 
z
M 1403 2484 
Q 997 2584 770 2862 
Q 544 3141 544 3541 
Q 544 4100 942 4425 
Q 1341 4750 2034 4750 
Q 2731 4750 3128 4425 
Q 3525 4100 3525 3541 
Q 3525 3141 3298 2862 
Q 3072 2584 2669 2484 
Q 3125 2378 3379 2068 
Q 3634 1759 3634 1313 
Q 3634 634 3220 271 
Q 2806 -91 2034 -91 
Q 1263 -91 848 271 
Q 434 634 434 1313 
Q 434 1759 690 2068 
Q 947 2378 1403 2484 
z
M 1172 3481 
Q 1172 3119 1398 2916 
Q 1625 2713 2034 2713 
Q 2441 2713 2670 2916 
Q 2900 3119 2900 3481 
Q 2900 3844 2670 4047 
Q 2441 4250 2034 4250 
Q 1625 4250 1398 4047 
Q 1172 3844 1172 3481 
z
" id="DejaVuSans-38" transform="scale(0.015625)"/>
      <path d="M 2113 2584 
Q 1688 2584 1439 2293 
Q 1191 2003 1191 1497 
Q 1191 994 1439 701 
Q 1688 409 2113 409 
Q 2538 409 2786 701 
Q 3034 994 3034 1497 
Q 3034 2003 2786 2293 
Q 2538 2584 2113 2584 
z
M 3366 4563 
L 3366 3988 
Q 3128 4100 2886 4159 
Q 2644 4219 2406 4219 
Q 1781 4219 1451 3797 
Q 1122 3375 1075 2522 
Q 1259 2794 1537 2939 
Q 1816 3084 2150 3084 
Q 2853 3084 3261 2657 
Q 3669 2231 3669 1497 
Q 3669 778 3244 343 
Q 2819 -91 2113 -91 
Q 1303 -91 875 529 
Q 447 1150 447 2328 
Q 447 3434 972 4092 
Q 1497 4750 2381 4750 
Q 2619 4750 2861 4703 
Q 3103 4656 3366 4563 
z
" id="DejaVuSans-36" transform="scale(0.015625)"/>
      <path d="M 703 97 
L 703 672 
Q 941 559 1184 500 
Q 1428 441 1663 441 
Q 2288 441 2617 861 
Q 2947 1281 2994 2138 
Q 2813 1869 2534 1725 
Q 2256 1581 1919 1581 
Q 1219 1581 811 2004 
Q 403 2428 403 3163 
Q 403 3881 828 4315 
Q 1253 4750 1959 4750 
Q 2769 4750 3195 4129 
Q 3622 3509 3622 2328 
Q 3622 1225 3098 567 
Q 2575 -91 1691 -91 
Q 1453 -91 1209 -44 
Q 966 3 703 97 
z
M 1959 2075 
Q 2384 2075 2632 2365 
Q 2881 2656 2881 3163 
Q 2881 3666 2632 3958 
Q 2384 4250 1959 4250 
Q 1534 4250 1286 3958 
Q 1038 3666 1038 3163 
Q 1038 2656 1286 2365 
Q 1534 2075 1959 2075 
z
" id="DejaVuSans-39" transform="scale(0.015625)"/>
     </defs>
     <use xlink:href="#DejaVuSans-69"/>
     <use x="27.783203" xlink:href="#DejaVuSans-6e"/>
     <use x="91.162109" xlink:href="#DejaVuSans-73"/>
     <use x="143.261719" xlink:href="#DejaVuSans-74"/>
     <use x="182.470703" xlink:href="#DejaVuSans-61"/>
     <use x="243.75" xlink:href="#DejaVuSans-6e"/>
     <use x="307.128906" xlink:href="#DejaVuSans-63"/>
     <use x="362.109375" xlink:href="#DejaVuSans-65"/>
     <use x="423.632812" xlink:href="#DejaVuSans-20"/>
     <use x="455.419922" xlink:href="#DejaVuSans-37"/>
     <use x="519.042969" xlink:href="#DejaVuSans-20"/>
     <use x="550.830078" xlink:href="#DejaVuSans-77"/>
     <use x="632.617188" xlink:href="#DejaVuSans-69"/>
     <use x="660.400391" xlink:href="#DejaVuSans-74"/>
     <use x="699.609375" xlink:href="#DejaVuSans-68"/>
     <use x="762.988281" xlink:href="#DejaVuSans-20"/>
     <use x="794.775391" xlink:href="#DejaVuSans-65"/>
     <use x="856.298828" xlink:href="#DejaVuSans-72"/>
     <use x="895.662109" xlink:href="#DejaVuSans-72"/>
     <use x="934.525391" xlink:href="#DejaVuSans-6f"/>
     <use x="995.707031" xlink:href="#DejaVuSans-72"/>
     <use x="1036.820312" xlink:href="#DejaVuSans-20"/>
     <use x="1068.607422" xlink:href="#DejaVuSans-30"/>
     <use x="1132.230469" xlink:href="#DejaVuSans-2e"/>
     <use x="1164.017578" xlink:href="#DejaVuSans-30"/>
     <use x="1227.640625" xlink:href="#DejaVuSans-30"/>
     <use x="1291.263672" xlink:href="#DejaVuSans-34"/>
     <use x="1354.886719" xlink:href="#DejaVuSans-38"/>
     <use x="1418.509766" xlink:href="#DejaVuSans-38"/>
     <use x="1482.132812" xlink:href="#DejaVuSans-32"/>
     <use x="1545.755859" xlink:href="#DejaVuSans-33"/>
     <use x="1609.378906" xlink:href="#DejaVuSans-31"/>
     <use x="1673.001953" xlink:href="#DejaVuSans-36"/>
     <use x="1736.625" xlink:href="#DejaVuSans-34"/>
     <use x="1800.248047" xlink:href="#DejaVuSans-31"/>
     <use x="1863.871094" xlink:href="#DejaVuSans-39"/>
     <use x="1927.494141" xlink:href="#DejaVuSans-32"/>
     <use x="1991.117188" xlink:href="#DejaVuSans-35"/>
     <use x="2054.740234" xlink:href="#DejaVuSans-38"/>
     <use x="2118.363281" xlink:href="#DejaVuSans-32"/>
     <use x="2181.986328" xlink:href="#DejaVuSans-39"/>
     <use x="2245.609375" xlink:href="#DejaVuSans-32"/>
    </g>
   </g>
   <g id="legend_1">
    <g id="patch_7">
     <path d="M 805.348438 499 
L 900.2 499 
Q 902.2 499 902.2 497 
L 902.2 453.965625 
Q 902.2 451.965625 900.2 451.965625 
L 805.348438 451.965625 
Q 803.348438 451.965625 803.348438 453.965625 
L 803.348438 497 
Q 803.348438 499 805.348438 499 
z
" style="opacity:0.8;stroke:#cccccc;stroke-linejoin:miter;"/>
    </g>
    <g id="line2d_17">
     <path d="M 807.348438 460.064062 
L 827.348438 460.064062 
" style="fill:none;stroke:#8dd3c7;stroke-linecap:square;stroke-width:1.5;"/>
    </g>
    <g id="line2d_18"/>
    <g id="text_16">
     <!-- cost -->
     <g style="fill:#ffffff;" transform="translate(835.348438 463.564062)scale(0.1 -0.1)">
      <use xlink:href="#DejaVuSans-63"/>
      <use x="54.980469" xlink:href="#DejaVuSans-6f"/>
      <use x="116.162109" xlink:href="#DejaVuSans-73"/>
      <use x="168.261719" xlink:href="#DejaVuSans-74"/>
     </g>
    </g>
    <g id="line2d_19">
     <path d="M 807.348438 474.742188 
L 827.348438 474.742188 
" style="fill:none;stroke:#feffb3;stroke-linecap:square;stroke-width:1.5;"/>
    </g>
    <g id="line2d_20"/>
    <g id="text_17">
     <!-- best cost -->
     <g style="fill:#ffffff;" transform="translate(835.348438 478.242188)scale(0.1 -0.1)">
      <defs>
       <path d="M 3116 1747 
Q 3116 2381 2855 2742 
Q 2594 3103 2138 3103 
Q 1681 3103 1420 2742 
Q 1159 2381 1159 1747 
Q 1159 1113 1420 752 
Q 1681 391 2138 391 
Q 2594 391 2855 752 
Q 3116 1113 3116 1747 
z
M 1159 2969 
Q 1341 3281 1617 3432 
Q 1894 3584 2278 3584 
Q 2916 3584 3314 3078 
Q 3713 2572 3713 1747 
Q 3713 922 3314 415 
Q 2916 -91 2278 -91 
Q 1894 -91 1617 61 
Q 1341 213 1159 525 
L 1159 0 
L 581 0 
L 581 4863 
L 1159 4863 
L 1159 2969 
z
" id="DejaVuSans-62" transform="scale(0.015625)"/>
      </defs>
      <use xlink:href="#DejaVuSans-62"/>
      <use x="63.476562" xlink:href="#DejaVuSans-65"/>
      <use x="125" xlink:href="#DejaVuSans-73"/>
      <use x="177.099609" xlink:href="#DejaVuSans-74"/>
      <use x="216.308594" xlink:href="#DejaVuSans-20"/>
      <use x="248.095703" xlink:href="#DejaVuSans-63"/>
      <use x="303.076172" xlink:href="#DejaVuSans-6f"/>
      <use x="364.257812" xlink:href="#DejaVuSans-73"/>
      <use x="416.357422" xlink:href="#DejaVuSans-74"/>
     </g>
    </g>
    <g id="line2d_21">
     <path d="M 807.348438 489.420313 
L 827.348438 489.420313 
" style="fill:none;stroke:#bfbbd9;stroke-linecap:square;stroke-width:1.5;"/>
    </g>
    <g id="line2d_22"/>
    <g id="text_18">
     <!-- temperature -->
     <g style="fill:#ffffff;" transform="translate(835.348438 492.920313)scale(0.1 -0.1)">
      <defs>
       <path d="M 3328 2828 
Q 3544 3216 3844 3400 
Q 4144 3584 4550 3584 
Q 5097 3584 5394 3201 
Q 5691 2819 5691 2113 
L 5691 0 
L 5113 0 
L 5113 2094 
Q 5113 2597 4934 2840 
Q 4756 3084 4391 3084 
Q 3944 3084 3684 2787 
Q 3425 2491 3425 1978 
L 3425 0 
L 2847 0 
L 2847 2094 
Q 2847 2600 2669 2842 
Q 2491 3084 2119 3084 
Q 1678 3084 1418 2786 
Q 1159 2488 1159 1978 
L 1159 0 
L 581 0 
L 581 3500 
L 1159 3500 
L 1159 2956 
Q 1356 3278 1631 3431 
Q 1906 3584 2284 3584 
Q 2666 3584 2933 3390 
Q 3200 3197 3328 2828 
z
" id="DejaVuSans-6d" transform="scale(0.015625)"/>
       <path d="M 1159 525 
L 1159 -1331 
L 581 -1331 
L 581 3500 
L 1159 3500 
L 1159 2969 
Q 1341 3281 1617 3432 
Q 1894 3584 2278 3584 
Q 2916 3584 3314 3078 
Q 3713 2572 3713 1747 
Q 3713 922 3314 415 
Q 2916 -91 2278 -91 
Q 1894 -91 1617 61 
Q 1341 213 1159 525 
z
M 3116 1747 
Q 3116 2381 2855 2742 
Q 2594 3103 2138 3103 
Q 1681 3103 1420 2742 
Q 1159 2381 1159 1747 
Q 1159 1113 1420 752 
Q 1681 391 2138 391 
Q 2594 391 2855 752 
Q 3116 1113 3116 1747 
z
" id="DejaVuSans-70" transform="scale(0.015625)"/>
       <path d="M 544 1381 
L 544 3500 
L 1119 3500 
L 1119 1403 
Q 1119 906 1312 657 
Q 1506 409 1894 409 
Q 2359 409 2629 706 
Q 2900 1003 2900 1516 
L 2900 3500 
L 3475 3500 
L 3475 0 
L 2900 0 
L 2900 538 
Q 2691 219 2414 64 
Q 2138 -91 1772 -91 
Q 1169 -91 856 284 
Q 544 659 544 1381 
z
M 1991 3584 
L 1991 3584 
z
" id="DejaVuSans-75" transform="scale(0.015625)"/>
      </defs>
      <use xlink:href="#DejaVuSans-74"/>
      <use x="39.208984" xlink:href="#DejaVuSans-65"/>
      <use x="100.732422" xlink:href="#DejaVuSans-6d"/>
      <use x="198.144531" xlink:href="#DejaVuSans-70"/>
      <use x="261.621094" xlink:href="#DejaVuSans-65"/>
      <use x="323.144531" xlink:href="#DejaVuSans-72"/>
      <use x="364.257812" xlink:href="#DejaVuSans-61"/>
      <use x="425.537109" xlink:href="#DejaVuSans-74"/>
      <use x="464.746094" xlink:href="#DejaVuSans-75"/>
      <use x="528.125" xlink:href="#DejaVuSans-72"/>
      <use x="566.988281" xlink:href="#DejaVuSans-65"/>
     </g>
    </g>
   </g>
  </g>
 </g>
 <defs>
  <clipPath id="p73fc022680">
   <rect height="434.88" width="781.2" x="126" y="69.12"/>
  </clipPath>
 </defs>
</svg>
