<?xml version="1.0" encoding="utf-8" standalone="no"?>
<!DOCTYPE svg PUBLIC "-//W3C//DTD SVG 1.1//EN"
  "http://www.w3.org/Graphics/SVG/1.1/DTD/svg11.dtd">
<svg height="576pt" version="1.1" viewBox="0 0 1008 576" width="1008pt" xmlns="http://www.w3.org/2000/svg" xmlns:xlink="http://www.w3.org/1999/xlink">
 <metadata>
  <rdf:RDF xmlns:cc="http://creativecommons.org/ns#" xmlns:dc="http://purl.org/dc/elements/1.1/" xmlns:rdf="http://www.w3.org/1999/02/22-rdf-syntax-ns#">
   <cc:Work>
    <dc:type rdf:resource="http://purl.org/dc/dcmitype/StillImage"/>
    <dc:date>2022-01-07T21:26:31.697614</dc:date>
    <dc:format>image/svg+xml</dc:format>
    <dc:creator>
     <cc:Agent>
      <dc:title>Matplotlib v3.4.3, https://matplotlib.org/</dc:title>
     </cc:Agent>
    </dc:creator>
   </cc:Work>
  </rdf:RDF>
 </metadata>
 <defs>
  <style type="text/css">*{stroke-linecap:butt;stroke-linejoin:round;}</style>
 </defs>
 <g id="figure_1">
  <g id="patch_1">
   <path d="M 0 576 
L 1008 576 
L 1008 0 
L 0 0 
z
"/>
  </g>
  <g id="axes_1">
   <g id="patch_2">
    <path d="M 126 504 
L 907.2 504 
L 907.2 69.12 
L 126 69.12 
z
"/>
   </g>
   <g id="matplotlib.axis_1">
    <g id="xtick_1">
     <g id="line2d_1">
      <defs>
       <path d="M 0 0 
L 0 3.5 
" id="m9970ad1f89" style="stroke:#ffffff;stroke-width:0.8;"/>
      </defs>
      <g>
       <use style="fill:#ffffff;stroke:#ffffff;stroke-width:0.8;" x="161.509091" xlink:href="#m9970ad1f89" y="504"/>
      </g>
     </g>
     <g id="text_1">
      <!-- 0 -->
      <g style="fill:#ffffff;" transform="translate(158.327841 518.598438)scale(0.1 -0.1)">
       <defs>
        <path d="M 2034 4250 
Q 1547 4250 1301 3770 
Q 1056 3291 1056 2328 
Q 1056 1369 1301 889 
Q 1547 409 2034 409 
Q 2525 409 2770 889 
Q 3016 1369 3016 2328 
Q 3016 3291 2770 3770 
Q 2525 4250 2034 4250 
z
M 2034 4750 
Q 2819 4750 3233 4129 
Q 3647 3509 3647 2328 
Q 3647 1150 3233 529 
Q 2819 -91 2034 -91 
Q 1250 -91 836 529 
Q 422 1150 422 2328 
Q 422 3509 836 4129 
Q 1250 4750 2034 4750 
z
" id="DejaVuSans-30" transform="scale(0.015625)"/>
       </defs>
       <use xlink:href="#DejaVuSans-30"/>
      </g>
     </g>
    </g>
    <g id="xtick_2">
     <g id="line2d_2">
      <g>
       <use style="fill:#ffffff;stroke:#ffffff;stroke-width:0.8;" x="266.971196" xlink:href="#m9970ad1f89" y="504"/>
      </g>
     </g>
     <g id="text_2">
      <!-- 500 -->
      <g style="fill:#ffffff;" transform="translate(257.427446 518.598438)scale(0.1 -0.1)">
       <defs>
        <path d="M 691 4666 
L 3169 4666 
L 3169 4134 
L 1269 4134 
L 1269 2991 
Q 1406 3038 1543 3061 
Q 1681 3084 1819 3084 
Q 2600 3084 3056 2656 
Q 3513 2228 3513 1497 
Q 3513 744 3044 326 
Q 2575 -91 1722 -91 
Q 1428 -91 1123 -41 
Q 819 9 494 109 
L 494 744 
Q 775 591 1075 516 
Q 1375 441 1709 441 
Q 2250 441 2565 725 
Q 2881 1009 2881 1497 
Q 2881 1984 2565 2268 
Q 2250 2553 1709 2553 
Q 1456 2553 1204 2497 
Q 953 2441 691 2322 
L 691 4666 
z
" id="DejaVuSans-35" transform="scale(0.015625)"/>
       </defs>
       <use xlink:href="#DejaVuSans-35"/>
       <use x="63.623047" xlink:href="#DejaVuSans-30"/>
       <use x="127.246094" xlink:href="#DejaVuSans-30"/>
      </g>
     </g>
    </g>
    <g id="xtick_3">
     <g id="line2d_3">
      <g>
       <use style="fill:#ffffff;stroke:#ffffff;stroke-width:0.8;" x="372.433302" xlink:href="#m9970ad1f89" y="504"/>
      </g>
     </g>
     <g id="text_3">
      <!-- 1000 -->
      <g style="fill:#ffffff;" transform="translate(359.708302 518.598438)scale(0.1 -0.1)">
       <defs>
        <path d="M 794 531 
L 1825 531 
L 1825 4091 
L 703 3866 
L 703 4441 
L 1819 4666 
L 2450 4666 
L 2450 531 
L 3481 531 
L 3481 0 
L 794 0 
L 794 531 
z
" id="DejaVuSans-31" transform="scale(0.015625)"/>
       </defs>
       <use xlink:href="#DejaVuSans-31"/>
       <use x="63.623047" xlink:href="#DejaVuSans-30"/>
       <use x="127.246094" xlink:href="#DejaVuSans-30"/>
       <use x="190.869141" xlink:href="#DejaVuSans-30"/>
      </g>
     </g>
    </g>
    <g id="xtick_4">
     <g id="line2d_4">
      <g>
       <use style="fill:#ffffff;stroke:#ffffff;stroke-width:0.8;" x="477.895407" xlink:href="#m9970ad1f89" y="504"/>
      </g>
     </g>
     <g id="text_4">
      <!-- 1500 -->
      <g style="fill:#ffffff;" transform="translate(465.170407 518.598438)scale(0.1 -0.1)">
       <use xlink:href="#DejaVuSans-31"/>
       <use x="63.623047" xlink:href="#DejaVuSans-35"/>
       <use x="127.246094" xlink:href="#DejaVuSans-30"/>
       <use x="190.869141" xlink:href="#DejaVuSans-30"/>
      </g>
     </g>
    </g>
    <g id="xtick_5">
     <g id="line2d_5">
      <g>
       <use style="fill:#ffffff;stroke:#ffffff;stroke-width:0.8;" x="583.357513" xlink:href="#m9970ad1f89" y="504"/>
      </g>
     </g>
     <g id="text_5">
      <!-- 2000 -->
      <g style="fill:#ffffff;" transform="translate(570.632513 518.598438)scale(0.1 -0.1)">
       <defs>
        <path d="M 1228 531 
L 3431 531 
L 3431 0 
L 469 0 
L 469 531 
Q 828 903 1448 1529 
Q 2069 2156 2228 2338 
Q 2531 2678 2651 2914 
Q 2772 3150 2772 3378 
Q 2772 3750 2511 3984 
Q 2250 4219 1831 4219 
Q 1534 4219 1204 4116 
Q 875 4013 500 3803 
L 500 4441 
Q 881 4594 1212 4672 
Q 1544 4750 1819 4750 
Q 2544 4750 2975 4387 
Q 3406 4025 3406 3419 
Q 3406 3131 3298 2873 
Q 3191 2616 2906 2266 
Q 2828 2175 2409 1742 
Q 1991 1309 1228 531 
z
" id="DejaVuSans-32" transform="scale(0.015625)"/>
       </defs>
       <use xlink:href="#DejaVuSans-32"/>
       <use x="63.623047" xlink:href="#DejaVuSans-30"/>
       <use x="127.246094" xlink:href="#DejaVuSans-30"/>
       <use x="190.869141" xlink:href="#DejaVuSans-30"/>
      </g>
     </g>
    </g>
    <g id="xtick_6">
     <g id="line2d_6">
      <g>
       <use style="fill:#ffffff;stroke:#ffffff;stroke-width:0.8;" x="688.819618" xlink:href="#m9970ad1f89" y="504"/>
      </g>
     </g>
     <g id="text_6">
      <!-- 2500 -->
      <g style="fill:#ffffff;" transform="translate(676.094618 518.598438)scale(0.1 -0.1)">
       <use xlink:href="#DejaVuSans-32"/>
       <use x="63.623047" xlink:href="#DejaVuSans-35"/>
       <use x="127.246094" xlink:href="#DejaVuSans-30"/>
       <use x="190.869141" xlink:href="#DejaVuSans-30"/>
      </g>
     </g>
    </g>
    <g id="xtick_7">
     <g id="line2d_7">
      <g>
       <use style="fill:#ffffff;stroke:#ffffff;stroke-width:0.8;" x="794.281724" xlink:href="#m9970ad1f89" y="504"/>
      </g>
     </g>
     <g id="text_7">
      <!-- 3000 -->
      <g style="fill:#ffffff;" transform="translate(781.556724 518.598438)scale(0.1 -0.1)">
       <defs>
        <path d="M 2597 2516 
Q 3050 2419 3304 2112 
Q 3559 1806 3559 1356 
Q 3559 666 3084 287 
Q 2609 -91 1734 -91 
Q 1441 -91 1130 -33 
Q 819 25 488 141 
L 488 750 
Q 750 597 1062 519 
Q 1375 441 1716 441 
Q 2309 441 2620 675 
Q 2931 909 2931 1356 
Q 2931 1769 2642 2001 
Q 2353 2234 1838 2234 
L 1294 2234 
L 1294 2753 
L 1863 2753 
Q 2328 2753 2575 2939 
Q 2822 3125 2822 3475 
Q 2822 3834 2567 4026 
Q 2313 4219 1838 4219 
Q 1578 4219 1281 4162 
Q 984 4106 628 3988 
L 628 4550 
Q 988 4650 1302 4700 
Q 1616 4750 1894 4750 
Q 2613 4750 3031 4423 
Q 3450 4097 3450 3541 
Q 3450 3153 3228 2886 
Q 3006 2619 2597 2516 
z
" id="DejaVuSans-33" transform="scale(0.015625)"/>
       </defs>
       <use xlink:href="#DejaVuSans-33"/>
       <use x="63.623047" xlink:href="#DejaVuSans-30"/>
       <use x="127.246094" xlink:href="#DejaVuSans-30"/>
       <use x="190.869141" xlink:href="#DejaVuSans-30"/>
      </g>
     </g>
    </g>
    <g id="xtick_8">
     <g id="line2d_8">
      <g>
       <use style="fill:#ffffff;stroke:#ffffff;stroke-width:0.8;" x="899.743829" xlink:href="#m9970ad1f89" y="504"/>
      </g>
     </g>
     <g id="text_8">
      <!-- 3500 -->
      <g style="fill:#ffffff;" transform="translate(887.018829 518.598438)scale(0.1 -0.1)">
       <use xlink:href="#DejaVuSans-33"/>
       <use x="63.623047" xlink:href="#DejaVuSans-35"/>
       <use x="127.246094" xlink:href="#DejaVuSans-30"/>
       <use x="190.869141" xlink:href="#DejaVuSans-30"/>
      </g>
     </g>
    </g>
    <g id="text_9">
     <!-- iteration -->
     <g style="fill:#ffffff;" transform="translate(495.477344 532.276562)scale(0.1 -0.1)">
      <defs>
       <path d="M 603 3500 
L 1178 3500 
L 1178 0 
L 603 0 
L 603 3500 
z
M 603 4863 
L 1178 4863 
L 1178 4134 
L 603 4134 
L 603 4863 
z
" id="DejaVuSans-69" transform="scale(0.015625)"/>
       <path d="M 1172 4494 
L 1172 3500 
L 2356 3500 
L 2356 3053 
L 1172 3053 
L 1172 1153 
Q 1172 725 1289 603 
Q 1406 481 1766 481 
L 2356 481 
L 2356 0 
L 1766 0 
Q 1100 0 847 248 
Q 594 497 594 1153 
L 594 3053 
L 172 3053 
L 172 3500 
L 594 3500 
L 594 4494 
L 1172 4494 
z
" id="DejaVuSans-74" transform="scale(0.015625)"/>
       <path d="M 3597 1894 
L 3597 1613 
L 953 1613 
Q 991 1019 1311 708 
Q 1631 397 2203 397 
Q 2534 397 2845 478 
Q 3156 559 3463 722 
L 3463 178 
Q 3153 47 2828 -22 
Q 2503 -91 2169 -91 
Q 1331 -91 842 396 
Q 353 884 353 1716 
Q 353 2575 817 3079 
Q 1281 3584 2069 3584 
Q 2775 3584 3186 3129 
Q 3597 2675 3597 1894 
z
M 3022 2063 
Q 3016 2534 2758 2815 
Q 2500 3097 2075 3097 
Q 1594 3097 1305 2825 
Q 1016 2553 972 2059 
L 3022 2063 
z
" id="DejaVuSans-65" transform="scale(0.015625)"/>
       <path d="M 2631 2963 
Q 2534 3019 2420 3045 
Q 2306 3072 2169 3072 
Q 1681 3072 1420 2755 
Q 1159 2438 1159 1844 
L 1159 0 
L 581 0 
L 581 3500 
L 1159 3500 
L 1159 2956 
Q 1341 3275 1631 3429 
Q 1922 3584 2338 3584 
Q 2397 3584 2469 3576 
Q 2541 3569 2628 3553 
L 2631 2963 
z
" id="DejaVuSans-72" transform="scale(0.015625)"/>
       <path d="M 2194 1759 
Q 1497 1759 1228 1600 
Q 959 1441 959 1056 
Q 959 750 1161 570 
Q 1363 391 1709 391 
Q 2188 391 2477 730 
Q 2766 1069 2766 1631 
L 2766 1759 
L 2194 1759 
z
M 3341 1997 
L 3341 0 
L 2766 0 
L 2766 531 
Q 2569 213 2275 61 
Q 1981 -91 1556 -91 
Q 1019 -91 701 211 
Q 384 513 384 1019 
Q 384 1609 779 1909 
Q 1175 2209 1959 2209 
L 2766 2209 
L 2766 2266 
Q 2766 2663 2505 2880 
Q 2244 3097 1772 3097 
Q 1472 3097 1187 3025 
Q 903 2953 641 2809 
L 641 3341 
Q 956 3463 1253 3523 
Q 1550 3584 1831 3584 
Q 2591 3584 2966 3190 
Q 3341 2797 3341 1997 
z
" id="DejaVuSans-61" transform="scale(0.015625)"/>
       <path d="M 1959 3097 
Q 1497 3097 1228 2736 
Q 959 2375 959 1747 
Q 959 1119 1226 758 
Q 1494 397 1959 397 
Q 2419 397 2687 759 
Q 2956 1122 2956 1747 
Q 2956 2369 2687 2733 
Q 2419 3097 1959 3097 
z
M 1959 3584 
Q 2709 3584 3137 3096 
Q 3566 2609 3566 1747 
Q 3566 888 3137 398 
Q 2709 -91 1959 -91 
Q 1206 -91 779 398 
Q 353 888 353 1747 
Q 353 2609 779 3096 
Q 1206 3584 1959 3584 
z
" id="DejaVuSans-6f" transform="scale(0.015625)"/>
       <path d="M 3513 2113 
L 3513 0 
L 2938 0 
L 2938 2094 
Q 2938 2591 2744 2837 
Q 2550 3084 2163 3084 
Q 1697 3084 1428 2787 
Q 1159 2491 1159 1978 
L 1159 0 
L 581 0 
L 581 3500 
L 1159 3500 
L 1159 2956 
Q 1366 3272 1645 3428 
Q 1925 3584 2291 3584 
Q 2894 3584 3203 3211 
Q 3513 2838 3513 2113 
z
" id="DejaVuSans-6e" transform="scale(0.015625)"/>
      </defs>
      <use xlink:href="#DejaVuSans-69"/>
      <use x="27.783203" xlink:href="#DejaVuSans-74"/>
      <use x="66.992188" xlink:href="#DejaVuSans-65"/>
      <use x="128.515625" xlink:href="#DejaVuSans-72"/>
      <use x="169.628906" xlink:href="#DejaVuSans-61"/>
      <use x="230.908203" xlink:href="#DejaVuSans-74"/>
      <use x="270.117188" xlink:href="#DejaVuSans-69"/>
      <use x="297.900391" xlink:href="#DejaVuSans-6f"/>
      <use x="359.082031" xlink:href="#DejaVuSans-6e"/>
     </g>
    </g>
   </g>
   <g id="matplotlib.axis_2">
    <g id="ytick_1">
     <g id="line2d_9">
      <defs>
       <path d="M 0 0 
L -3.5 0 
" id="ma1dc4bf964" style="stroke:#ffffff;stroke-width:0.8;"/>
      </defs>
      <g>
       <use style="fill:#ffffff;stroke:#ffffff;stroke-width:0.8;" x="126" xlink:href="#ma1dc4bf964" y="484.232727"/>
      </g>
     </g>
     <g id="text_10">
      <!-- 0 -->
      <g style="fill:#ffffff;" transform="translate(112.6375 488.031946)scale(0.1 -0.1)">
       <use xlink:href="#DejaVuSans-30"/>
      </g>
     </g>
    </g>
    <g id="ytick_2">
     <g id="line2d_10">
      <g>
       <use style="fill:#ffffff;stroke:#ffffff;stroke-width:0.8;" x="126" xlink:href="#ma1dc4bf964" y="390.885198"/>
      </g>
     </g>
     <g id="text_11">
      <!-- 5000 -->
      <g style="fill:#ffffff;" transform="translate(93.55 394.684417)scale(0.1 -0.1)">
       <use xlink:href="#DejaVuSans-35"/>
       <use x="63.623047" xlink:href="#DejaVuSans-30"/>
       <use x="127.246094" xlink:href="#DejaVuSans-30"/>
       <use x="190.869141" xlink:href="#DejaVuSans-30"/>
      </g>
     </g>
    </g>
    <g id="ytick_3">
     <g id="line2d_11">
      <g>
       <use style="fill:#ffffff;stroke:#ffffff;stroke-width:0.8;" x="126" xlink:href="#ma1dc4bf964" y="297.53767"/>
      </g>
     </g>
     <g id="text_12">
      <!-- 10000 -->
      <g style="fill:#ffffff;" transform="translate(87.1875 301.336888)scale(0.1 -0.1)">
       <use xlink:href="#DejaVuSans-31"/>
       <use x="63.623047" xlink:href="#DejaVuSans-30"/>
       <use x="127.246094" xlink:href="#DejaVuSans-30"/>
       <use x="190.869141" xlink:href="#DejaVuSans-30"/>
       <use x="254.492188" xlink:href="#DejaVuSans-30"/>
      </g>
     </g>
    </g>
    <g id="ytick_4">
     <g id="line2d_12">
      <g>
       <use style="fill:#ffffff;stroke:#ffffff;stroke-width:0.8;" x="126" xlink:href="#ma1dc4bf964" y="204.190141"/>
      </g>
     </g>
     <g id="text_13">
      <!-- 15000 -->
      <g style="fill:#ffffff;" transform="translate(87.1875 207.989359)scale(0.1 -0.1)">
       <use xlink:href="#DejaVuSans-31"/>
       <use x="63.623047" xlink:href="#DejaVuSans-35"/>
       <use x="127.246094" xlink:href="#DejaVuSans-30"/>
       <use x="190.869141" xlink:href="#DejaVuSans-30"/>
       <use x="254.492188" xlink:href="#DejaVuSans-30"/>
      </g>
     </g>
    </g>
    <g id="ytick_5">
     <g id="line2d_13">
      <g>
       <use style="fill:#ffffff;stroke:#ffffff;stroke-width:0.8;" x="126" xlink:href="#ma1dc4bf964" y="110.842612"/>
      </g>
     </g>
     <g id="text_14">
      <!-- 20000 -->
      <g style="fill:#ffffff;" transform="translate(87.1875 114.64183)scale(0.1 -0.1)">
       <use xlink:href="#DejaVuSans-32"/>
       <use x="63.623047" xlink:href="#DejaVuSans-30"/>
       <use x="127.246094" xlink:href="#DejaVuSans-30"/>
       <use x="190.869141" xlink:href="#DejaVuSans-30"/>
       <use x="254.492188" xlink:href="#DejaVuSans-30"/>
      </g>
     </g>
    </g>
   </g>
   <g id="line2d_14">
    <path clip-path="url(#pcdc0913af0)" d="M 161.509091 318.372838 
L 161.930939 282.434039 
L 162.352788 390.399791 
L 162.774636 390.399791 
L 162.98556 410.637536 
L 163.196485 368.239088 
L 163.407409 366.036086 
L 163.618333 379.12341 
L 163.829257 421.521857 
L 164.040181 377.536502 
L 164.251106 410.656205 
L 164.672954 333.924536 
L 165.094802 411.122943 
L 165.516651 374.101313 
L 165.727575 394.731117 
L 165.938499 394.731117 
L 166.149424 391.912021 
L 166.360348 440.210033 
L 166.571272 407.09033 
L 166.782196 407.09033 
L 166.99312 419.15083 
L 167.204045 380.766326 
L 167.414969 402.889691 
L 167.625893 393.83498 
L 167.836817 398.483687 
L 168.047741 398.483687 
L 168.46959 331.441492 
L 168.891438 299.628654 
L 169.102363 299.628654 
L 169.524211 415.75298 
L 169.946059 339.021311 
L 170.156984 335.28741 
L 170.367908 327.147506 
L 170.578832 341.205644 
L 171.00068 414.558132 
L 171.211605 414.558132 
L 171.422529 393.554938 
L 171.633453 403.729818 
L 171.844377 399.827892 
L 172.055301 412.915215 
L 172.266226 405.5781 
L 172.47715 406.343549 
L 172.688074 363.833085 
L 172.898998 426.581294 
L 173.109923 384.761601 
L 173.320847 384.761601 
L 173.531771 430.48322 
L 173.742695 388.084773 
L 173.953619 395.421888 
L 174.164544 369.620631 
L 174.586392 351.753914 
L 174.797316 378.021909 
L 175.00824 344.902206 
L 175.219165 367.230935 
L 175.430089 364.094458 
L 175.641013 354.703696 
L 175.851937 410.880239 
L 176.062861 426.357259 
L 176.273786 421.521857 
L 176.48471 412.093757 
L 176.695634 381.158386 
L 176.906558 396.430042 
L 177.117483 359.819141 
L 177.328407 370.348742 
L 177.539331 345.200918 
L 177.750255 338.349209 
L 177.961179 335.212732 
L 178.172104 340.048134 
L 178.593952 388.663527 
L 178.804876 324.869826 
L 179.226725 405.708786 
L 179.437649 402.572309 
L 179.648573 406.474236 
L 179.859497 402.740335 
L 180.070421 395.403219 
L 180.281346 375.576204 
L 180.49227 366.969562 
L 180.703194 404.345912 
L 180.914118 393.816311 
L 181.125043 437.801667 
L 181.335967 413.139249 
L 181.757815 339.693414 
L 181.968739 382.203878 
L 182.179664 385.937779 
L 182.390588 410.600197 
L 182.601512 385.452372 
L 182.812436 394.357727 
L 183.02336 394.843134 
L 183.234285 405.372735 
L 183.445209 405.372735 
L 183.656133 383.753447 
L 183.867057 432.406179 
L 184.077981 430.072491 
L 184.288906 445.269469 
L 184.49983 430.147169 
L 184.710754 427.010692 
L 184.921678 380.710318 
L 185.132603 376.976417 
L 185.343527 401.862868 
L 185.554451 365.251967 
L 185.765375 401.862868 
L 185.976299 412.037749 
L 186.398148 367.566986 
L 186.819996 291.936818 
L 187.03092 341.523025 
L 187.241845 299.124577 
L 187.452769 299.124577 
L 187.663693 278.606791 
L 187.874617 299.759341 
L 188.085541 309.430145 
L 188.296466 358.960344 
L 188.50739 337.95715 
L 188.718314 381.905166 
L 188.929238 360.771286 
L 189.140163 404.756641 
L 189.351087 407.893118 
L 189.562011 418.42272 
L 189.772935 376.024272 
L 189.983859 395.048498 
L 190.405708 353.882238 
L 190.616632 393.330904 
L 190.827556 390.194427 
L 191.03848 365.307976 
L 191.249405 381.811819 
L 191.460329 360.808625 
L 191.671253 381.811819 
L 191.882177 356.010562 
L 192.304026 292.59025 
L 192.51495 293.262353 
L 192.936798 345.163579 
L 193.147723 341.429678 
L 193.358647 325.597937 
L 193.569571 281.612581 
L 193.780495 305.08015 
L 193.991419 300.244748 
L 194.202344 305.08015 
L 194.413268 279.932326 
L 194.624192 318.876915 
L 195.04604 273.995423 
L 195.256965 286.429314 
L 195.467889 309.896882 
L 195.678813 353.882238 
L 195.889737 345.275596 
L 196.100662 386.983272 
L 196.311586 378.37663 
L 196.52251 386.983272 
L 196.733434 362.320855 
L 196.944358 408.621229 
L 197.366207 329.705228 
L 197.577131 287.30678 
L 197.998979 360.565921 
L 198.209904 335.67947 
L 198.420828 348.561429 
L 198.631752 352.743398 
L 198.842676 369.527284 
L 199.264525 293.505056 
L 199.475449 368.108401 
L 199.686373 331.497501 
L 199.897297 349.532243 
L 200.319146 285.402491 
L 200.53007 331.12411 
L 200.740994 352.556703 
L 201.162843 323.992359 
L 201.373767 283.90893 
L 201.795615 394.339057 
L 202.006539 369.452606 
L 202.217464 363.23566 
L 202.428388 366.689519 
L 202.639312 344.323451 
L 202.850236 370.386081 
L 203.06116 347.964005 
L 203.272085 424.82636 
L 203.693933 447.640496 
L 204.115782 368.631148 
L 204.326706 342.829891 
L 204.748554 378.525986 
L 204.959478 385.228338 
L 205.170403 376.621696 
L 205.381327 376.621696 
L 205.592251 399.043773 
L 205.803175 399.043773 
L 206.014099 429.979144 
L 206.225024 429.979144 
L 206.435948 409.741399 
L 206.646872 429.979144 
L 206.857796 432.163476 
L 207.279645 390.250435 
L 207.490569 422.828723 
L 207.701493 422.828723 
L 207.912417 431.435365 
L 208.123342 447.50981 
L 208.54519 405.746125 
L 208.967038 422.94074 
L 209.177963 398.054289 
L 209.388887 389.597003 
L 209.599811 447.603157 
L 209.810735 438.996515 
L 210.021659 418.758771 
L 210.232584 423.836876 
L 210.443508 415.584955 
L 210.654432 412.448478 
L 210.865356 366.65218 
L 211.07628 365.88673 
L 211.498129 312.827995 
L 211.709053 279.708291 
L 212.130902 324.888495 
L 212.341826 379.87019 
L 212.55275 355.207773 
L 212.763674 378.283282 
L 212.974598 377.349807 
L 213.185523 350.913787 
L 213.396447 306.928431 
L 213.607371 306.928431 
L 213.818295 325.11253 
L 214.029219 300.226078 
L 214.240144 341.635042 
L 214.451068 318.167473 
L 214.661992 326.083344 
L 214.872916 316.431209 
L 215.08384 316.431209 
L 215.294765 279.820309 
L 215.505689 316.431209 
L 215.716613 305.901608 
L 215.927537 388.495502 
L 216.349386 353.396831 
L 216.56031 381.662463 
L 216.771234 452.121177 
L 216.982158 426.973353 
L 217.193083 426.973353 
L 217.825855 379.328774 
L 218.036779 376.192297 
L 218.247704 332.206942 
L 218.458628 325.989996 
L 218.669552 301.327579 
L 218.880476 351.585889 
L 219.0914 347.851988 
L 219.302325 305.341523 
L 219.724173 388.19679 
L 219.935097 384.462888 
L 220.356946 296.156126 
L 220.778794 296.156126 
L 220.989718 314.545589 
L 221.200643 304.015988 
L 221.411567 320.762535 
L 221.833415 327.632913 
L 222.044339 349.961642 
L 222.255264 338.517235 
L 222.466188 313.854818 
L 222.677112 356.365282 
L 223.09896 333.42046 
L 223.309885 333.42046 
L 223.731733 389.559664 
L 223.942657 420.495035 
L 224.57543 363.25433 
L 224.786354 373.578567 
L 224.997278 340.458863 
L 225.208203 373.578567 
L 225.419127 361.835447 
L 225.840975 384.724262 
L 226.051899 367.062909 
L 226.262824 321.229272 
L 226.684672 321.229272 
L 226.895596 394.675108 
L 227.106521 371.207539 
L 227.317445 330.825398 
L 227.528369 341.000279 
L 227.739293 330.825398 
L 227.950217 330.825398 
L 228.161142 352.257991 
L 228.793914 281.556573 
L 229.215763 411.757706 
L 229.637611 366.63351 
L 229.848535 362.13416 
L 230.059459 382.371904 
L 230.270384 356.570647 
L 230.692232 402.740335 
L 230.903156 407.333033 
L 231.114081 351.119151 
L 231.325005 342.512509 
L 231.746853 363.422355 
L 231.957777 330.302652 
L 232.168702 330.302652 
L 232.379626 401.172096 
L 232.59055 399.603858 
L 232.801474 420.513704 
L 233.012398 414.184742 
L 233.223323 392.565454 
L 233.434247 396.000643 
L 233.645171 363.291669 
L 233.856095 371.18887 
L 234.067019 416.985168 
L 234.699792 333.700502 
L 234.910716 320.762535 
L 235.121641 328.995787 
L 235.332565 328.995787 
L 235.543489 330.37733 
L 235.754413 368.761834 
L 235.965337 377.368476 
L 236.176262 358.34425 
L 236.809034 384.705592 
L 237.230883 344.771519 
L 237.441807 351.92194 
L 237.863655 422.604689 
L 238.074579 380.094224 
L 238.285504 362.059482 
L 238.496428 376.192297 
L 238.707352 372.458396 
L 238.918276 382.782633 
L 239.129201 386.516534 
L 239.761973 272.800574 
L 239.972897 287.792187 
L 240.183822 362.227507 
L 240.394746 376.509679 
L 240.60567 403.188403 
L 240.816594 403.188403 
L 241.449367 336.836979 
L 241.660291 305.360192 
L 241.871215 321.864036 
L 242.293064 256.875486 
L 242.714912 247.503394 
L 242.925836 269.757445 
L 243.136761 244.609621 
L 243.347685 277.729324 
L 243.558609 253.048237 
L 243.769533 282.732751 
L 244.191382 409.797408 
L 244.402306 418.982805 
L 244.824154 351.940609 
L 245.035078 397.083474 
L 245.246003 397.083474 
L 245.456927 373.597236 
L 245.667851 382.89465 
L 245.878775 353.676873 
L 246.089699 378.339291 
L 246.300624 375.202814 
L 246.511548 350.054989 
L 246.722472 345.219587 
L 246.933396 302.82114 
L 247.144321 299.684663 
L 247.355245 405.335396 
L 247.777093 360.957981 
L 247.988017 381.867827 
L 248.198942 372.68243 
L 248.62079 284.375668 
L 249.042638 284.375668 
L 249.253563 345.630316 
L 249.464487 370.292734 
L 249.675411 352.257991 
L 249.886335 357.20541 
L 250.308184 379.515469 
L 250.519108 346.395766 
L 250.730032 345.742333 
L 250.940956 339.618736 
L 251.151881 393.312234 
L 251.362805 398.651713 
L 251.573729 400.574672 
L 251.784653 401.228105 
L 251.995577 368.108401 
L 252.206502 376.715044 
L 252.62835 319.866398 
L 252.839274 410.880239 
L 253.050198 397.792916 
L 253.261123 407.81844 
L 253.472047 428.056185 
L 253.682971 403.169733 
L 253.893895 395.683261 
L 254.10482 420.569713 
L 254.315744 378.171265 
L 254.526668 360.136522 
L 254.737592 360.136522 
L 254.948516 365.569349 
L 255.159441 359.427081 
L 255.370365 359.427081 
L 255.581289 357.5788 
L 255.792213 382.726624 
L 256.003137 367.249604 
L 256.424986 396.85944 
L 256.63591 389.522325 
L 256.846834 439.257888 
L 257.057758 445.008096 
L 257.268683 445.008096 
L 257.479607 408.397195 
L 257.690531 427.906828 
L 257.901455 407.669084 
L 258.11238 361.872786 
L 258.323304 399.062442 
L 258.534228 411.160282 
L 258.745152 415.248904 
L 258.956076 393.629616 
L 259.167001 415.248904 
L 259.377925 372.850456 
L 259.588849 305.938947 
L 259.799773 351.735245 
L 260.010697 369.769987 
L 260.221622 369.769987 
L 260.432546 388.308807 
L 260.64347 364.729221 
L 260.854394 323.768325 
L 261.065318 342.419161 
L 261.276243 341.504356 
L 261.487167 341.504356 
L 261.698091 337.770454 
L 261.909015 321.266611 
L 262.11994 341.504356 
L 262.330864 341.504356 
L 262.541788 330.974754 
L 262.752712 345.070231 
L 262.963636 370.871488 
L 263.174561 360.696608 
L 263.385485 340.066804 
L 263.596409 359.09103 
L 264.018257 313.294732 
L 264.229182 270.784268 
L 264.440106 274.518169 
L 264.65103 267.181053 
L 264.861954 309.24345 
L 265.072878 304.837446 
L 265.283803 308.571347 
L 265.494727 304.837446 
L 265.705651 286.373305 
L 265.916575 293.243683 
L 266.1275 309.318128 
L 266.338424 306.032295 
L 266.760272 233.631951 
L 266.971196 294.942608 
L 267.182121 316.356531 
L 267.393045 273.958084 
L 267.603969 270.821607 
L 267.814893 311.726494 
L 268.025817 307.208474 
L 268.236742 307.208474 
L 268.447666 349.606921 
L 268.65859 353.975586 
L 268.869514 379.440791 
L 269.291363 379.440791 
L 269.502287 382.838641 
L 269.713211 417.489244 
L 269.924135 422.007265 
L 270.13506 422.007265 
L 270.345984 378.021909 
L 270.556908 423.743529 
L 270.978756 369.713979 
L 271.189681 348.094691 
L 271.400605 302.298393 
L 271.611529 282.060649 
L 272.033377 341.747059 
L 272.244302 322.722833 
L 272.455226 361.7421 
L 272.66615 319.343652 
L 272.877074 316.207175 
L 273.087998 325.504589 
L 273.298923 317.121981 
L 273.509847 338.031828 
L 273.720771 319.007601 
L 273.931695 322.144078 
L 274.14262 322.144078 
L 274.353544 364.542526 
L 274.564468 322.144078 
L 274.775392 319.007601 
L 274.986316 332.561662 
L 275.197241 353.546187 
L 275.408165 408.714577 
L 275.619089 408.714577 
L 275.830013 384.052159 
L 276.040937 341.653712 
L 276.251862 345.555638 
L 276.462786 332.468315 
L 276.67371 346.974521 
L 277.517407 236.451047 
L 277.728331 261.113464 
L 278.15018 428.429575 
L 278.361104 392.882836 
L 278.572028 416.350404 
L 278.782952 419.486881 
L 278.993876 414.651479 
L 279.204801 415.640963 
L 279.415725 403.972522 
L 279.837573 356.925367 
L 280.048497 382.409243 
L 280.470346 292.123513 
L 280.68127 290.928664 
L 280.892194 257.808961 
L 281.103119 383.324049 
L 281.314043 404.327243 
L 281.524967 395.7206 
L 281.735891 415.995684 
L 281.946815 403.28175 
L 282.15774 428.840304 
L 282.368664 433.358324 
L 282.790512 359.912488 
L 283.001436 402.422953 
L 283.212361 414.334098 
L 283.423285 382.558599 
L 283.634209 402.796343 
L 283.845133 362.712914 
L 284.056057 371.207539 
L 284.266982 397.008796 
L 284.477906 381.531776 
L 284.68883 337.54642 
L 284.899754 358.605623 
L 285.321603 312.099884 
L 285.532527 346.489114 
L 285.743451 315.553743 
L 285.954375 346.489114 
L 286.1653 325.48592 
L 286.376224 325.48592 
L 286.587148 427.701464 
L 286.798072 446.72569 
L 287.219921 375.70689 
L 287.430845 381.494437 
L 287.641769 406.642261 
L 288.063617 350.054989 
L 288.274542 383.174693 
L 288.485466 374.530711 
L 288.69639 380.654309 
L 288.907314 399.678536 
L 289.329163 392.34142 
L 289.540087 413.400622 
L 289.751011 410.264146 
L 289.961935 390.026401 
L 290.17286 356.906698 
L 290.594708 409.050628 
L 290.805632 432.518196 
L 291.438405 376.285645 
L 291.649329 432.7609 
L 291.860253 343.501993 
L 292.071177 322.44279 
L 292.282102 397.363517 
L 292.70395 380.841004 
L 292.914874 388.17812 
L 293.125799 364.710551 
L 293.336723 322.312104 
L 293.758571 294.51321 
L 293.969495 294.51321 
L 294.18042 257.902309 
L 294.391344 317.55138 
L 294.602268 317.55138 
L 294.813192 296.641533 
L 295.024116 347.347911 
L 295.445965 306.106973 
L 295.656889 318.783567 
L 295.867813 380.766326 
L 296.078737 305.789591 
L 296.289662 341.355 
L 296.500586 304.744099 
L 296.71151 338.797277 
L 296.922434 297.014923 
L 297.133359 342.400492 
L 297.344283 339.264015 
L 297.555207 396.48605 
L 297.766131 413.400622 
L 297.977055 417.825295 
L 298.18798 429.083007 
L 298.398904 262.289643 
L 298.609828 340.682897 
L 299.031676 394.6191 
L 299.242601 394.6191 
L 299.453525 404.79398 
L 299.664449 378.992723 
L 299.875373 336.482259 
L 300.086297 380.467614 
L 300.508146 294.083811 
L 300.71907 303.381225 
L 300.929994 347.36658 
L 301.140919 325.747293 
L 301.351843 322.013392 
L 301.562767 343.632679 
L 301.773691 389.877045 
L 301.984615 365.214628 
L 302.19554 389.877045 
L 302.617388 335.231402 
L 302.828312 328.379693 
L 303.039236 364.990594 
L 303.250161 361.088667 
L 303.461085 361.088667 
L 303.672009 438.324413 
L 304.093857 380.542292 
L 304.304782 392.210733 
L 304.515706 440.042007 
L 304.72663 434.347808 
L 304.937554 423.444817 
L 305.148479 440.975483 
L 305.359403 440.975483 
L 305.781251 383.753447 
L 305.992175 373.223846 
L 306.414024 422.772714 
L 306.624948 427.290735 
L 307.046796 390.194427 
L 307.257721 400.836045 
L 307.468645 443.34651 
L 307.679569 427.869489 
L 308.101418 377.125773 
L 308.312342 413.736674 
L 308.523266 369.751318 
L 308.73419 351.119151 
L 309.156039 358.979013 
L 309.366963 358.979013 
L 309.577887 323.432274 
L 309.788811 330.302652 
L 309.999735 365.849391 
L 310.21066 345.611647 
L 310.421584 389.597003 
L 310.632508 399.771883 
L 310.843432 392.434767 
L 311.054356 413.027232 
L 311.265281 417.899973 
L 311.476205 381.289073 
L 311.687129 374.96011 
L 311.898053 378.694011 
L 312.108978 421.111128 
L 312.319902 437.614971 
L 312.530826 412.72852 
L 312.74175 434.347808 
L 312.952674 394.264379 
L 313.163599 394.488413 
L 313.374523 378.35796 
L 313.585447 375.221483 
L 313.796371 384.40688 
L 314.007295 366.764197 
L 314.21822 320.967899 
L 314.429144 361.051328 
L 314.640068 318.540864 
L 314.850992 314.638937 
L 315.061916 327.576904 
L 315.272841 373.373202 
L 315.483765 351.753914 
L 315.694689 348.020013 
L 315.905613 360.22987 
L 316.116538 385.639067 
L 316.327462 428.130863 
L 316.74931 410.09612 
L 316.960234 389.092926 
L 317.171159 346.694478 
L 317.382083 345.798342 
L 317.803931 365.756044 
L 318.014855 365.756044 
L 318.22578 350.895117 
L 318.436704 388.383485 
L 318.647628 388.383485 
L 318.858552 371.132861 
L 319.069476 367.996384 
L 319.491325 412.896546 
L 320.124098 376.117619 
L 320.335022 330.321322 
L 320.545946 357.074723 
L 320.75687 357.074723 
L 321.178719 405.354065 
L 321.389643 383.734778 
L 321.600567 383.734778 
L 321.811491 352.799407 
L 322.022415 351.361855 
L 322.23334 372.981142 
L 322.444264 357.504122 
L 322.655188 399.8839 
L 322.866112 391.893352 
L 323.287961 356.477299 
L 323.498885 352.743398 
L 323.709809 339.656075 
L 323.920733 356.159918 
L 324.131658 339.656075 
L 324.342582 363.123643 
L 324.553506 342.213797 
L 324.76443 342.213797 
L 324.975354 358.71764 
L 325.186279 312.921342 
L 325.608127 281.388547 
L 325.819051 278.25207 
L 326.029975 283.012794 
L 326.451824 283.012794 
L 326.662748 278.065375 
L 327.084596 284.935753 
L 327.295521 305.938947 
L 327.506445 301.420927 
L 327.717369 322.330773 
L 327.928293 322.330773 
L 328.139218 301.327579 
L 328.561066 395.477897 
L 328.77199 353.079449 
L 329.193839 384.01482 
L 329.404763 366.353468 
L 329.615687 364.76656 
L 329.826611 361.182015 
L 330.037535 362.451541 
L 330.24846 359.875149 
L 330.459384 315.609751 
L 330.670308 369.695309 
L 330.881232 363.478364 
L 331.092156 345.443621 
L 331.514005 391.109233 
L 331.724929 370.871488 
L 331.935853 325.075191 
L 332.146778 304.165344 
L 332.357702 271.045641 
L 332.568626 267.554443 
L 332.77955 368.033723 
L 332.990474 342.47517 
L 333.201399 419.953619 
L 333.412323 419.953619 
L 334.045095 355.898545 
L 334.25602 395.981974 
L 334.466944 391.463953 
L 334.677868 397.102144 
L 334.888792 389.765028 
L 335.310641 391.146572 
L 335.521565 353.154127 
L 335.732489 340.066804 
L 335.943413 382.577268 
L 336.154338 340.066804 
L 336.365262 342.829891 
L 336.576186 358.250902 
L 336.78711 338.013158 
L 336.998034 358.773649 
L 337.419883 358.773649 
L 337.630807 358.885666 
L 337.841731 334.223248 
L 338.26358 404.607285 
L 338.896352 283.890261 
L 339.318201 272.819244 
L 339.529125 367.492308 
L 339.740049 407.706423 
L 339.950973 365.195959 
L 340.372822 414.63281 
L 340.583746 411.085604 
L 341.005594 411.122943 
L 341.216519 386.460526 
L 341.427443 391.295928 
L 341.638367 375.874916 
L 341.849291 374.493372 
L 342.060215 380.728987 
L 342.27114 372.738439 
L 342.482064 383.118684 
L 342.692988 383.118684 
L 342.903912 386.852585 
L 343.114837 416.070362 
L 343.325761 395.067168 
L 343.747609 422.959409 
L 343.958533 380.560962 
L 344.169458 380.560962 
L 344.591306 391.800004 
L 344.80223 368.332435 
L 345.224079 297.313635 
L 345.645927 367.604325 
L 345.856851 367.604325 
L 346.067775 425.237089 
L 346.2787 400.574672 
L 346.489624 424.042241 
L 346.700548 413.51264 
L 346.911472 430.837941 
L 347.122397 388.439493 
L 347.333321 380.280919 
L 347.544245 360.043175 
L 347.755169 384.705592 
L 348.177018 328.11832 
L 348.598866 403.636471 
L 348.80979 363.64639 
L 349.020714 385.265677 
L 349.231639 361.798108 
L 349.442563 405.783464 
L 349.653487 384.78027 
L 349.864411 409.442687 
L 350.075335 367.04424 
L 350.497184 362.227507 
L 350.708108 316.431209 
L 350.919032 362.227507 
L 351.129957 383.230701 
L 351.340881 393.144209 
L 351.551805 346.843834 
L 351.762729 334.93269 
L 351.973653 314.694945 
L 352.184578 314.694945 
L 352.395502 352.388678 
L 352.606426 319.268974 
L 352.81735 329.201151 
L 353.028274 329.201151 
L 353.239199 318.67155 
L 353.450123 361.686091 
L 353.661047 321.602662 
L 353.871971 332.132264 
L 354.082895 289.621799 
L 354.29382 309.859543 
L 354.504744 353.844899 
L 354.926592 320.127772 
L 355.137517 344.790189 
L 355.348441 326.755446 
L 355.559365 326.755446 
L 355.770289 341.72839 
L 356.192138 269.421394 
L 356.403062 281.64992 
L 356.82491 350.204345 
L 357.035834 365.681366 
L 357.246759 319.885068 
L 357.457683 298.975221 
L 357.668607 295.24132 
L 357.879531 311.371773 
L 358.090455 353.770221 
L 358.30138 442.076983 
L 358.512304 418.609415 
L 358.723228 445.792215 
L 358.934152 441.274195 
L 359.145077 427.141379 
L 359.356001 383.156023 
L 359.566925 386.889924 
L 359.777849 376.360323 
L 359.988773 373.223846 
L 360.199698 352.314 
L 360.410622 362.843601 
L 360.621546 383.753447 
L 361.254319 284.263651 
L 361.465243 302.298393 
L 361.676167 287.773518 
L 361.887091 287.773518 
L 362.098015 307.955254 
L 362.30894 317.364685 
L 362.519864 335.026037 
L 362.730788 324.496436 
L 362.941712 303.493242 
L 363.152637 270.373539 
L 363.363561 266.639637 
L 363.574485 308.440661 
L 363.785409 308.440661 
L 363.996333 311.409112 
L 364.207258 366.26012 
L 364.418182 380.392936 
L 364.629106 380.392936 
L 364.84003 410.133459 
L 365.050954 420.66306 
L 365.261879 417.115854 
L 365.472803 406.754278 
L 365.894651 440.863466 
L 366.105576 436.028063 
L 366.527424 436.028063 
L 366.738348 431.323348 
L 366.949272 406.436897 
L 367.160197 431.958111 
L 367.371121 430.968627 
L 367.582045 427.197387 
L 367.792969 416.238387 
L 368.003893 391.57597 
L 368.214818 349.177523 
L 368.425742 385.415033 
L 368.636666 341.429678 
L 368.84759 383.828125 
L 369.058514 384.052159 
L 369.269439 380.915682 
L 369.480363 380.915682 
L 369.691287 427.421421 
L 369.902211 430.557898 
L 370.32406 396.542059 
L 370.534984 392.658802 
L 370.745908 406.791617 
L 370.956832 406.791617 
L 371.167757 392.658802 
L 371.378681 398.987764 
L 371.589605 400.518663 
L 371.800529 397.606221 
L 372.011453 402.198919 
L 372.222378 415.211565 
L 372.433302 390.549147 
L 372.644226 385.620398 
L 372.85515 348.430742 
L 373.276999 380.150233 
L 373.487923 359.147039 
L 373.698847 404.943336 
L 373.909771 426.263912 
L 374.120696 422.530011 
L 374.33162 422.530011 
L 374.542544 407.407711 
L 374.753468 401.284113 
L 375.175317 348.729454 
L 375.386241 340.496202 
L 375.597165 340.272168 
L 375.808089 340.272168 
L 376.019013 344.006069 
L 376.440862 262.028269 
L 376.651786 262.028269 
L 376.86271 264.623331 
L 377.073634 297.743034 
L 377.284559 251.946736 
L 377.495483 251.946736 
L 377.917331 319.829059 
L 378.128256 338.013158 
L 378.33918 378.806028 
L 378.550104 369.956682 
L 378.761028 369.956682 
L 378.971952 366.820206 
L 379.182877 335.884834 
L 379.393801 335.884834 
L 379.604725 302.765131 
L 379.815649 328.585058 
L 380.026573 339.002642 
L 380.237498 323.525622 
L 380.448422 378.040578 
L 380.659346 394.544422 
L 381.292119 311.689155 
L 381.503043 320.295797 
L 381.713967 316.561896 
L 381.924891 339.226676 
L 382.135816 296.828228 
L 382.34674 303.101182 
L 382.557664 338.143845 
L 382.768588 338.143845 
L 382.979512 371.263548 
L 383.190437 379.179418 
L 383.401361 410.992256 
L 383.612285 383.958812 
L 383.823209 412.019079 
L 384.245058 369.601962 
L 384.455982 397.662229 
L 384.666906 390.325113 
L 384.87783 391.743996 
L 385.088754 369.321919 
L 385.299679 382.259887 
L 385.510603 382.259887 
L 385.721527 381.251733 
L 385.932451 377.517832 
L 386.3543 341.168305 
L 386.776148 382.987998 
L 386.987072 386.721899 
L 387.197997 398.409009 
L 387.408921 377.499163 
L 387.830769 421.223145 
L 388.463542 304.128005 
L 388.674466 311.614477 
L 389.096314 405.820803 
L 389.307239 405.820803 
L 389.518163 396.635406 
L 389.729087 396.635406 
L 390.150936 360.416565 
L 390.572784 406.847626 
L 390.783708 388.812883 
L 390.994632 346.414436 
L 391.205557 330.937415 
L 391.416481 339.301354 
L 391.627405 381.699802 
L 392.049253 367.959045 
L 392.260178 411.851053 
L 392.471102 420.28967 
L 393.103875 338.983972 
L 393.314799 335.847495 
L 393.525723 360.397896 
L 393.736647 343.800705 
L 393.947571 340.664228 
L 394.36942 366.129434 
L 394.580344 366.129434 
L 394.791268 430.333864 
L 395.002192 399.398493 
L 395.213117 424.023571 
L 395.424041 415.416929 
L 395.634965 385.639067 
L 395.845889 389.540994 
L 396.267738 333.905867 
L 396.478662 370.479429 
L 396.689586 328.080981 
L 396.90051 329.443855 
L 397.111435 342.643196 
L 397.322359 339.506719 
L 397.533283 353.620865 
L 397.744207 338.143845 
L 397.955131 341.280322 
L 398.166056 349.737608 
L 398.587904 349.737608 
L 398.798828 430.147169 
L 399.009752 405.260718 
L 399.220677 394.731117 
L 399.431601 358.120216 
L 400.064373 414.539462 
L 400.275298 394.301718 
L 400.486222 394.301718 
L 401.118995 335.119385 
L 401.329919 427.010692 
L 401.751767 427.010692 
L 401.962691 383.025337 
L 402.38454 376.378992 
L 402.595464 355.805197 
L 402.806388 418.628084 
L 403.017312 403.151064 
L 403.228237 443.234493 
L 403.439161 424.210266 
L 403.861009 453.782764 
L 404.282858 414.744827 
L 404.493782 443.738569 
L 404.704706 410.618866 
L 404.91563 423.108765 
L 405.126555 380.598301 
L 405.337479 371.674277 
L 405.548403 371.674277 
L 405.759327 364.355831 
L 405.970251 320.370475 
L 406.181176 337.471742 
L 406.3921 415.192895 
L 406.603024 415.192895 
L 406.813948 384.257524 
L 407.024872 384.257524 
L 407.235797 398.353001 
L 407.446721 394.6191 
L 407.657645 380.523623 
L 407.868569 446.314961 
L 408.079493 434.64652 
L 408.290418 429.531075 
L 408.501342 411.496333 
L 408.712266 426.114556 
L 408.92319 420.158984 
L 409.134115 408.471873 
L 409.555963 340.925601 
L 409.766887 298.527153 
L 409.977811 399.379824 
L 410.188736 423.743529 
L 410.39966 424.938377 
L 410.610584 368.649817 
L 410.821508 368.183079 
L 411.032432 369.172563 
L 411.243357 369.545953 
L 411.454281 362.395533 
L 411.665205 380.056885 
L 412.087053 365.88673 
L 412.297978 412.187105 
L 412.508902 387.300653 
L 412.719826 344.790189 
L 412.93075 365.756044 
L 413.141675 365.756044 
L 413.352599 408.266508 
L 413.563523 387.263314 
L 413.774447 387.300653 
L 413.985371 341.504356 
L 414.196296 336.164877 
L 414.40722 383.958812 
L 414.618144 396.560728 
L 414.829068 387.954086 
L 415.039992 384.817609 
L 415.250917 384.556236 
L 415.461841 408.733246 
L 415.672765 392.061377 
L 415.883689 405.148701 
L 416.094613 450.870321 
L 416.305538 472.489608 
L 416.516462 475.626085 
L 416.727386 454.006798 
L 416.93831 449.171396 
L 417.149235 433.694375 
L 417.360159 433.694375 
L 417.571083 451.411736 
L 417.782007 451.411736 
L 417.992931 335.007368 
L 418.203856 381.307742 
L 418.41478 382.465251 
L 418.625704 393.722963 
L 418.836628 370.255395 
L 419.047552 370.255395 
L 419.258477 396.280686 
L 419.469401 398.670382 
L 419.680325 394.936481 
L 419.891249 387.076619 
L 420.102174 387.076619 
L 420.524022 323.674978 
L 420.734946 302.765131 
L 421.156795 366.073425 
L 421.578643 302.05569 
L 421.789567 323.674978 
L 422.000491 390.847859 
L 422.211416 385.975118 
L 422.42234 402.478962 
L 422.633264 391.94936 
L 422.844188 387.43134 
L 423.266037 330.00394 
L 423.687885 411.197621 
L 423.898809 411.197621 
L 424.109734 402.590979 
L 424.320658 381.643793 
L 424.531582 386.161814 
L 424.742506 368.127071 
L 424.95343 364.39317 
L 425.164355 364.39317 
L 425.375279 361.256693 
L 425.586203 401.172096 
L 426.008051 370.236725 
L 426.218976 337.117022 
L 426.4299 337.117022 
L 426.640824 344.73418 
L 426.851748 343.352637 
L 427.062672 345.89169 
L 427.273597 303.381225 
L 427.484521 380.056885 
L 427.695445 380.056885 
L 427.906369 379.47813 
L 428.117294 379.47813 
L 428.328218 361.443388 
L 428.539142 315.64709 
L 428.750066 350.279023 
L 428.96099 329.369177 
L 429.382839 409.890755 
L 429.593763 404.775311 
L 429.804687 384.537567 
L 430.015611 342.027102 
L 430.226536 386.031127 
L 430.43746 367.996384 
L 430.648384 378.525986 
L 430.859308 396.560728 
L 431.281157 342.157788 
L 431.913929 434.235791 
L 432.124854 434.235791 
L 432.335778 397.62489 
L 432.546702 390.474469 
L 432.757626 365.812052 
L 432.96855 355.282451 
L 433.179475 402.92703 
L 433.390399 381.923836 
L 433.601323 337.93848 
L 433.812247 348.468081 
L 434.023171 385.078982 
L 434.234096 364.841238 
L 434.44502 322.330773 
L 434.655944 333.999214 
L 434.866868 364.841238 
L 435.077792 364.841238 
L 435.288717 426.973353 
L 435.499641 423.071426 
L 435.710565 448.219251 
L 435.921489 427.216057 
L 436.132414 423.482156 
L 436.343338 423.482156 
L 436.554262 412.952554 
L 436.765186 433.955748 
L 436.97611 423.575503 
L 437.187035 402.516301 
L 437.397959 365.9054 
L 437.608883 402.516301 
L 437.819807 392.042708 
L 438.030731 392.042708 
L 438.241656 355.431807 
L 438.45258 378.899376 
L 438.663504 361.36871 
L 438.874428 328.249007 
L 439.085352 397.848924 
L 439.296277 379.814182 
L 439.507201 378.824698 
L 439.718125 380.019546 
L 439.929049 392.957514 
L 440.139974 371.319556 
L 440.561822 371.319556 
L 440.772746 408.023805 
L 440.98367 389.989062 
L 441.194595 389.989062 
L 441.405519 400.518663 
L 441.827367 323.786995 
L 442.038291 380.784996 
L 442.249216 344.174095 
L 442.46014 327.838277 
L 442.671064 327.838277 
L 442.881988 324.104376 
L 443.092912 313.78014 
L 443.303837 292.160852 
L 443.725685 346.433105 
L 443.936609 366.670849 
L 444.147534 342.008432 
L 444.358458 334.671317 
L 444.569382 369.041877 
L 444.780306 372.943803 
L 444.99123 394.563091 
L 445.202155 387.225975 
L 445.624003 308.683364 
L 445.834927 308.683364 
L 446.045851 329.835915 
L 446.4677 408.845263 
L 446.678624 390.81052 
L 446.889548 396.448711 
L 447.100473 396.448711 
L 447.522321 336.071529 
L 447.733245 315.833785 
L 447.944169 330.115957 
L 448.155094 405.074023 
L 448.366018 407.911788 
L 448.576942 363.926432 
L 448.99879 339.8241 
L 449.209715 336.687623 
L 449.631563 341.635042 
L 449.842487 348.748124 
L 450.264336 418.534737 
L 450.47526 397.531543 
L 450.686184 393.629616 
L 451.108033 339.525388 
L 451.318957 350.054989 
L 451.529881 324.907165 
L 451.740805 342.661865 
L 451.951729 344.080747 
L 452.162654 340.94427 
L 452.373578 335.828826 
L 452.584502 289.528452 
L 452.795426 292.664928 
L 453.00635 274.630186 
L 453.428199 314.713615 
L 453.639123 354.815713 
L 453.850047 372.477066 
L 454.060971 357.000045 
L 454.271896 396.000643 
L 454.48282 365.065272 
L 454.693744 396.000643 
L 454.904668 392.266742 
L 455.115593 438.567116 
L 455.326517 428.392236 
L 455.537441 450.011523 
L 455.748365 429.773779 
L 456.170214 429.773779 
L 456.381138 418.329372 
L 456.592062 372.533074 
L 456.802986 370.703463 
L 457.01391 386.180483 
L 457.224835 386.180483 
L 457.646683 340.384185 
L 457.857607 361.294032 
L 458.068531 370.591446 
L 458.279456 370.908827 
L 458.49038 349.905633 
L 458.701304 392.528115 
L 458.912228 273.397999 
L 459.123153 277.11323 
L 459.334077 243.993527 
L 459.755925 342.661865 
L 459.966849 338.143845 
L 460.177774 355.525155 
L 460.599622 311.595807 
L 461.443319 438.753811 
L 461.654243 445.792215 
L 461.865167 457.460656 
L 462.076091 461.362583 
L 462.287016 439.92999 
L 462.49794 404.681963 
L 462.708864 444.765392 
L 463.130713 389.130265 
L 463.341637 368.220418 
L 463.552561 391.650648 
L 463.763485 360.715277 
L 463.974409 382.14787 
L 464.396258 345.051562 
L 464.607182 341.317661 
L 464.818106 389.914384 
L 465.02903 347.515937 
L 465.239955 341.859076 
L 465.450879 352.033957 
L 465.661803 352.033957 
L 465.872727 355.767858 
L 466.083651 315.684429 
L 466.294576 351.735245 
L 466.5055 351.735245 
L 466.716424 358.605623 
L 466.927348 398.689052 
L 467.138273 393.85365 
L 467.349197 436.252098 
L 467.560121 432.518196 
L 467.771045 425.554471 
L 467.981969 383.156023 
L 468.192894 377.816544 
L 468.403818 381.550446 
L 468.614742 377.816544 
L 469.03659 430.931288 
L 469.247515 439.537931 
L 469.458439 426.450607 
L 469.669363 439.537931 
L 469.880287 443.271832 
L 470.091211 435.934716 
L 470.302136 399.323815 
L 470.51306 399.323815 
L 470.723984 378.563325 
L 470.934908 332.26295 
L 471.145833 332.26295 
L 471.356757 378.563325 
L 471.567681 365.476001 
L 471.778605 340.178821 
L 471.989529 376.789722 
L 472.200454 376.789722 
L 472.622302 318.559533 
L 472.833226 336.594276 
L 473.04415 336.594276 
L 473.465999 294.382523 
L 473.676923 294.382523 
L 474.309696 343.782035 
L 474.52062 322.778841 
L 474.731544 330.283983 
L 474.942468 284.487685 
L 475.153393 303.138521 
L 475.575241 402.14291 
L 475.786165 412.672512 
L 475.997089 408.173161 
L 476.208014 408.173161 
L 476.629862 344.902206 
L 476.840786 371.93565 
L 477.05171 371.93565 
L 477.262635 432.779569 
L 477.684483 404.719302 
L 477.895407 404.719302 
L 478.106332 401.582825 
L 478.317256 410.46951 
L 478.52818 456.583189 
L 479.160953 349.084175 
L 479.371877 353.919577 
L 479.793725 271.008302 
L 480.004649 278.345418 
L 480.215574 271.008302 
L 480.426498 228.609854 
L 480.637422 225.473377 
L 480.848346 369.396597 
L 481.05927 415.118217 
L 481.270195 394.880473 
L 481.481119 415.118217 
L 481.692043 328.417032 
L 481.902967 349.196192 
L 482.113892 341.33633 
L 482.324816 349.980311 
L 482.53574 305.994956 
L 482.746664 312.323918 
L 482.957588 360.733947 
L 483.168513 377.21912 
L 483.379437 370.255395 
L 483.590361 348.636107 
L 483.801285 339.282684 
L 484.012209 338.087836 
L 484.223134 334.353935 
L 484.434058 334.353935 
L 484.644982 347.441258 
L 484.855906 338.834616 
L 485.277755 373.541228 
L 485.488679 404.383251 
L 485.699603 395.776609 
L 485.910527 406.30621 
L 486.121452 410.07745 
L 486.5433 402.460292 
L 486.754224 360.061844 
L 486.965148 349.681599 
L 487.176073 331.646857 
L 487.386997 374.045304 
L 487.597921 370.311403 
L 487.808845 380.206241 
L 488.019769 258.425055 
L 488.652542 365.51334 
L 489.07439 348.50542 
L 489.285315 304.520065 
L 489.496239 329.555872 
L 489.707163 296.436169 
L 489.918087 287.829526 
L 490.129012 312.902673 
L 490.339936 312.902673 
L 490.55086 337.56509 
L 490.761784 322.293434 
L 490.972708 344.192764 
L 491.183633 341.056288 
L 491.394557 358.866996 
L 491.605481 316.468548 
L 491.816405 319.605025 
L 492.027329 285.122448 
L 492.449178 301.271571 
L 492.660102 343.091264 
L 492.871026 361.667422 
L 493.08195 335.716809 
L 493.292875 390.007732 
L 493.503799 347.497267 
L 493.714723 360.416565 
L 493.925647 402.497631 
L 494.347496 365.102611 
L 494.55842 373.391872 
L 494.769344 336.780971 
L 494.980268 329.406516 
L 495.191193 333.065739 
L 495.823965 420.177653 
L 496.245814 386.180483 
L 496.456738 407.613076 
L 496.878586 365.289306 
L 497.08951 319.493008 
L 497.300435 340.421524 
L 497.511359 319.268974 
L 497.722283 386.068466 
L 497.933207 370.591446 
L 498.144132 381.681132 
L 498.355056 381.681132 
L 498.776904 441.236856 
L 498.987828 416.350404 
L 499.198753 373.951957 
L 499.409677 373.951957 
L 499.620601 362.86227 
L 499.831525 358.101546 
L 500.253374 286.242618 
L 500.464298 295.428015 
L 500.675222 365.662696 
L 500.886146 384.332202 
L 501.09707 379.814182 
L 501.307995 362.712914 
L 501.729843 298.583162 
L 501.940767 334.353935 
L 502.151692 343.539332 
L 502.362616 340.720236 
L 502.57354 369.191233 
L 502.784464 348.281386 
L 502.995388 363.758407 
L 503.206313 339.095989 
L 503.417237 345.10757 
L 503.839085 390.43713 
L 504.050009 364.635873 
L 504.260934 364.635873 
L 504.471858 393.200217 
L 504.682782 356.589316 
L 504.893706 363.366347 
L 505.104631 388.514171 
L 505.526479 345.592977 
L 505.737403 358.73631 
L 506.370176 469.222445 
L 507.213873 392.696141 
L 507.424797 407.202347 
L 507.635721 392.696141 
L 507.846645 415.248904 
L 508.057569 419.15083 
L 508.268494 373.354533 
L 508.479418 373.429211 
L 508.690342 378.339291 
L 508.901266 402.628318 
L 509.112191 377.9659 
L 509.323115 332.169603 
L 509.534039 325.392572 
L 509.744963 327.72626 
L 510.166812 366.484154 
L 510.377736 341.597703 
L 510.58866 362.50755 
L 510.799584 358.605623 
L 511.010508 361.424718 
L 511.221433 304.146675 
L 511.432357 304.146675 
L 511.643281 288.688324 
L 511.854205 329.014456 
L 512.065129 325.056521 
L 512.276054 316.449879 
L 512.486978 295.540032 
L 512.697902 299.273934 
L 512.908826 296.230804 
L 513.119751 263.111101 
L 513.330675 285.215796 
L 513.541599 285.215796 
L 513.963447 366.521493 
L 514.174372 386.255161 
L 514.385296 386.255161 
L 514.59622 411.402985 
L 514.807144 374.792084 
L 515.018068 378.525986 
L 515.228993 357.093393 
L 515.439917 401.078749 
L 515.650841 397.942272 
L 515.861765 355.543824 
L 516.072689 358.960344 
L 516.283614 348.430742 
L 516.494538 348.430742 
L 516.705462 361.592744 
L 516.916386 383.025337 
L 517.127311 379.88886 
L 517.338235 334.092562 
L 517.549159 323.562961 
L 517.760083 303.325216 
L 518.181932 303.325216 
L 518.392856 344.211434 
L 518.60378 354.741035 
L 519.025628 311.819841 
L 519.236553 317.570049 
L 519.447477 310.008899 
L 519.658401 314.657606 
L 520.080249 281.519234 
L 520.291174 308.720703 
L 520.502098 298.191102 
L 520.713022 301.925003 
L 520.923946 268.8053 
L 521.345795 357.000045 
L 521.556719 370.087369 
L 521.767643 327.688921 
L 521.978567 337.751785 
L 522.189492 368.91119 
L 522.400416 348.673446 
L 522.822264 359.763132 
L 523.033188 380.26225 
L 523.455037 392.378759 
L 523.876885 348.673446 
L 524.087809 355.114425 
L 524.298734 375.35217 
L 524.509658 362.264846 
L 524.720582 375.35217 
L 524.931506 362.264846 
L 525.142431 369.751318 
L 525.353355 358.008199 
L 525.564279 359.389742 
L 525.775203 379.627486 
L 525.986127 373.671914 
L 526.197052 420.887094 
L 526.407976 402.852352 
L 527.040748 402.852352 
L 527.251673 379.907529 
L 527.462597 375.389509 
L 527.673521 375.389509 
L 527.884445 408.509212 
L 528.095369 408.509212 
L 528.306294 364.523856 
L 528.728142 364.523856 
L 528.939066 373.877279 
L 529.149991 373.877279 
L 529.360915 438.921837 
L 529.571839 435.523987 
L 529.993687 402.068232 
L 530.204612 405.802134 
L 530.415536 400.854715 
L 530.62646 379.944868 
L 530.837384 335.959512 
L 531.048308 353.994255 
L 531.259233 311.48379 
L 531.470157 311.48379 
L 531.681081 312.155893 
L 531.892005 397.736907 
L 532.10293 394.60043 
L 532.313854 397.736907 
L 532.524778 397.736907 
L 532.735702 375.464187 
L 532.946626 396.430042 
L 533.157551 402.385614 
L 533.368475 371.450243 
L 533.579399 402.385614 
L 533.790323 391.856013 
L 534.001247 391.856013 
L 534.212172 389.260951 
L 534.423096 368.351105 
L 534.63402 364.617204 
L 534.844944 407.127669 
L 535.055868 407.127669 
L 535.266793 420.700399 
L 535.477717 400.406646 
L 535.688641 407.743762 
L 535.899565 382.595938 
L 536.11049 407.743762 
L 536.532338 367.380291 
L 536.743262 382.857311 
L 536.954186 357.709487 
L 537.376035 357.709487 
L 537.586959 362.544889 
L 538.008807 306.9471 
L 538.219732 306.9471 
L 538.430656 273.827397 
L 538.64158 270.69092 
L 538.852504 313.556105 
L 539.063428 312.585291 
L 539.274353 268.599936 
L 539.485277 268.599936 
L 539.696201 250.565193 
L 539.907125 295.820075 
L 540.11805 306.387015 
L 540.328974 306.387015 
L 540.539898 287.736179 
L 541.172671 287.736179 
L 541.383595 290.872656 
L 541.594519 300.52479 
L 541.805443 331.460162 
L 542.016367 331.460162 
L 542.227292 354.92773 
L 542.438216 354.92773 
L 542.64914 354.012925 
L 543.070988 354.012925 
L 543.281913 317.402024 
L 543.492837 319.343652 
L 543.703761 319.343652 
L 543.914685 332.020247 
L 544.12561 365.13995 
L 544.336534 340.272168 
L 544.547458 338.591913 
L 544.969306 302.970496 
L 545.180231 289.883172 
L 545.391155 289.883172 
L 545.602079 282.3967 
L 546.234852 282.3967 
L 546.445776 333.103078 
L 546.6567 339.07732 
L 546.867624 308.141949 
L 547.078548 318.67155 
L 547.289473 274.686194 
L 547.500397 302.746462 
L 547.711321 256.446087 
L 547.922245 270.578903 
L 548.13317 267.442426 
L 548.344094 292.328877 
L 548.555018 274.294135 
L 548.765942 277.430612 
L 549.187791 232.53045 
L 549.398715 263.465821 
L 549.609639 239.998253 
L 549.820563 236.861776 
L 550.242412 236.861776 
L 550.453336 240.614346 
L 550.66426 253.552314 
L 550.875184 211.041849 
L 551.086108 231.279593 
L 551.297033 277.579968 
L 551.718881 237.907268 
L 551.929805 251.42399 
L 552.351654 350.054989 
L 552.562578 377.816544 
L 553.195351 264.100585 
L 553.406275 264.100585 
L 553.617199 274.630186 
L 553.828123 274.630186 
L 554.039047 345.648986 
L 554.249972 303.138521 
L 554.460896 336.258225 
L 555.304593 336.258225 
L 555.515517 332.524323 
L 555.937365 332.524323 
L 556.14829 369.135224 
L 556.570138 339.039981 
L 556.781062 365.158619 
L 556.991986 349.681599 
L 557.202911 350.39104 
L 557.413835 321.752019 
L 557.624759 275.955721 
L 557.835683 275.955721 
L 558.046607 272.408515 
L 558.468456 378.862037 
L 558.67938 385.639067 
L 558.890304 403.67381 
L 559.101229 395.067168 
L 559.312153 409.573374 
L 559.523077 371.879642 
L 559.734001 369.321919 
L 559.944925 344.659502 
L 560.15585 369.807326 
L 560.366774 369.28458 
L 560.577698 369.713979 
L 560.788622 348.654776 
L 560.999546 359.128369 
L 561.210471 311.259756 
L 561.421395 311.259756 
L 561.843243 267.946503 
L 562.054167 267.946503 
L 562.265092 246.943309 
L 562.476016 304.800107 
L 562.897864 304.800107 
L 563.108789 291.918148 
L 563.319713 288.053561 
L 563.530637 321.173264 
L 563.741561 299.553976 
L 563.952485 299.553976 
L 564.16341 321.173264 
L 564.585258 321.247942 
L 564.796182 340.384185 
L 565.007106 340.384185 
L 565.218031 349.569582 
L 565.639879 289.229739 
L 565.850803 286.093262 
L 566.061727 328.49171 
L 566.272652 311.558468 
L 566.483576 322.46146 
L 566.6945 317.570049 
L 566.905424 271.773752 
L 567.116349 314.190869 
L 567.327273 390.81052 
L 567.538197 369.191233 
L 567.749121 365.457332 
L 567.960045 374.642728 
L 568.17097 391.146572 
L 568.381894 365.345315 
L 568.592818 386.31117 
L 568.803742 386.31117 
L 569.225591 346.115724 
L 569.858363 346.115724 
L 570.069287 350.01765 
L 570.280212 303.717276 
L 570.491136 302.727792 
L 571.123909 302.727792 
L 571.334833 284.879745 
L 571.545757 307.152465 
L 571.967605 307.152465 
L 572.17853 326.176691 
L 572.389454 307.152465 
L 572.600378 307.152465 
L 572.811302 308.515339 
L 573.022226 333.233765 
L 573.233151 333.233765 
L 573.444075 320.146441 
L 573.865923 320.146441 
L 574.076847 317.756744 
L 574.287772 317.756744 
L 574.498696 338.759938 
L 574.70962 385.060313 
L 574.920544 385.060313 
L 575.131469 342.661865 
L 575.342393 334.055223 
L 575.553317 290.069867 
L 575.764241 298.676509 
L 575.975165 262.065608 
L 576.18609 251.536007 
L 576.397014 218.416304 
L 576.818862 295.521363 
L 577.029786 270.858946 
L 577.662559 270.858946 
L 577.873483 281.388547 
L 578.084407 260.4787 
L 578.295332 227.358997 
L 579.349953 227.358997 
L 579.560877 224.22252 
L 579.771801 234.229375 
L 579.982725 251.890728 
L 580.19365 251.890728 
L 580.404574 234.229375 
L 580.615498 255.139222 
L 580.826422 255.139222 
L 581.037346 297.53767 
L 581.248271 297.53767 
L 581.459195 334.14857 
L 581.670119 291.638106 
L 581.881043 305.397531 
L 582.091967 305.397531 
L 582.302892 323.096223 
L 582.935664 323.096223 
L 583.146589 349.065506 
L 583.357513 349.233531 
L 583.568437 346.097054 
L 583.779361 338.759938 
L 583.990285 346.097054 
L 584.623058 346.097054 
L 585.044906 299.79668 
L 585.255831 299.79668 
L 585.466755 280.660436 
L 585.677679 285.570516 
L 585.888603 267.535774 
L 586.099527 230.924873 
L 586.521376 230.924873 
L 586.7323 213.039486 
L 587.365073 319.735712 
L 587.575997 307.675211 
L 587.997845 307.675211 
L 588.20877 330.470678 
L 588.419694 293.859777 
L 588.630618 278.401426 
L 588.841542 300.076722 
L 589.474315 300.076722 
L 589.685239 301.458266 
L 589.896163 264.847365 
L 590.107088 277.523959 
L 590.318012 277.523959 
L 590.528936 314.13486 
L 590.73986 314.13486 
L 590.950784 324.067037 
L 591.161709 320.18378 
L 591.583557 320.18378 
L 591.794481 324.067037 
L 592.005405 324.067037 
L 592.21633 323.450944 
L 592.427254 286.840043 
L 592.638178 315.311039 
L 592.849102 315.311039 
L 593.060026 309.59817 
L 593.270951 336.03419 
L 594.114648 336.03419 
L 594.325572 304.053327 
L 595.169269 304.053327 
L 595.380193 280.567089 
L 595.591117 270.037487 
L 596.012965 270.037487 
L 596.22389 266.90101 
L 596.645738 211.620604 
L 596.856662 188.153035 
L 597.489435 188.153035 
L 597.700359 228.236464 
L 598.333132 228.236464 
L 598.544056 206.803871 
L 599.176829 206.803871 
L 599.387753 209.940348 
L 599.598677 253.925704 
L 599.809601 250.191803 
L 600.020525 250.191803 
L 600.23145 204.395505 
L 601.075146 204.395505 
L 601.286071 203.630055 
L 601.496995 203.630055 
L 601.707919 214.159657 
L 601.918843 189.497239 
L 602.340692 189.497239 
L 602.551616 203.630055 
L 602.76254 192.540369 
L 603.395313 192.540369 
L 603.606237 189.403892 
L 604.028085 189.403892 
L 604.23901 193.137793 
L 604.660858 193.137793 
L 604.871782 185.763338 
L 605.082706 185.763338 
L 605.293631 188.899815 
L 606.137328 188.899815 
L 606.559176 227.153633 
L 606.7701 180.853258 
L 606.981024 192.969768 
L 608.24657 192.969768 
L 608.457494 218.771025 
L 608.879342 168.960783 
L 609.512115 168.960783 
L 609.723039 189.963977 
L 610.144888 189.963977 
L 610.355812 169.726233 
L 610.988584 169.726233 
L 611.199509 176.353907 
L 612.886902 176.353907 
L 613.097826 201.501732 
L 613.308751 186.024711 
L 613.519675 186.024711 
L 613.730599 228.423159 
L 613.941523 228.423159 
L 614.152448 238.990099 
L 614.78522 238.990099 
L 614.996144 205.870396 
L 615.207069 205.870396 
L 615.417993 229.618007 
L 615.628917 229.618007 
L 615.839841 230.103415 
L 616.050765 209.100221 
L 616.894462 209.100221 
L 617.105387 230.103415 
L 617.316311 230.103415 
L 617.527235 232.661137 
L 617.738159 222.131536 
L 617.949083 218.995059 
L 618.160008 218.995059 
L 618.370932 222.131536 
L 619.214629 222.131536 
L 619.425553 202.808597 
L 619.636477 224.446554 
L 621.534795 224.446554 
L 621.745719 203.536708 
L 621.956643 200.400231 
L 623.644037 200.400231 
L 623.854961 184.027074 
L 625.120507 184.027074 
L 625.331431 141.628627 
L 633.768399 141.628627 
L 633.979323 136.102453 
L 634.612096 136.102453 
L 634.82302 126.170276 
L 635.033944 132.219196 
L 635.877641 132.219196 
L 636.088565 128.485295 
L 636.721338 128.485295 
L 636.932262 131.621771 
L 640.939822 131.621771 
L 641.150747 128.970702 
L 641.361671 120.73745 
L 641.994443 120.73745 
L 642.205368 124.471351 
L 642.416292 124.471351 
L 642.627216 120.73745 
L 644.525534 120.73745 
L 644.736458 117.600973 
L 647.267549 117.507625 
L 647.478473 116.088743 
L 652.118806 116.088743 
L 652.32973 120.513416 
L 655.915441 120.513416 
L 656.126366 109.983814 
L 659.501153 109.983814 
L 659.712077 113.120291 
L 663.719637 113.120291 
L 663.930561 116.854192 
L 666.672576 116.854192 
L 666.8835 113.717715 
L 670.258288 113.717715 
L 670.469212 109.983814 
L 673.633075 109.983814 
L 673.843999 113.120291 
L 674.265848 113.120291 
L 674.476772 106.156566 
L 677.640635 106.156566 
L 677.851559 103.020089 
L 695.991041 103.020089 
L 696.201966 95.514947 
L 697.256587 95.514947 
L 697.467511 91.855724 
L 718.770856 91.855724 
L 718.98178 88.887273 
L 871.690909 88.887273 
L 871.690909 88.887273 
" style="fill:none;stroke:#8dd3c7;stroke-linecap:square;stroke-width:1.5;"/>
   </g>
   <g id="line2d_15">
    <path clip-path="url(#pcdc0913af0)" d="M 161.509091 318.372838 
L 161.930939 282.434039 
L 187.452769 282.434039 
L 187.663693 278.606791 
L 194.835116 278.606791 
L 195.04604 273.995423 
L 239.551049 273.995423 
L 239.761973 272.800574 
L 242.082139 272.800574 
L 242.293064 256.875486 
L 242.925836 247.503394 
L 243.136761 244.609621 
L 266.549348 244.609621 
L 266.760272 233.631951 
L 480.215574 233.631951 
L 480.637422 225.473377 
L 550.66426 225.473377 
L 550.875184 211.041849 
L 596.645738 211.041849 
L 596.856662 188.153035 
L 604.660858 188.153035 
L 604.871782 185.763338 
L 606.559176 185.763338 
L 606.7701 180.853258 
L 608.668418 180.853258 
L 608.879342 168.960783 
L 625.120507 168.960783 
L 625.331431 141.628627 
L 633.768399 141.628627 
L 633.979323 136.102453 
L 634.612096 136.102453 
L 634.82302 126.170276 
L 641.150747 126.170276 
L 641.361671 120.73745 
L 644.525534 120.73745 
L 644.736458 117.600973 
L 647.267549 117.507625 
L 647.478473 116.088743 
L 655.915441 116.088743 
L 656.126366 109.983814 
L 674.265848 109.983814 
L 674.476772 106.156566 
L 677.640635 106.156566 
L 677.851559 103.020089 
L 695.991041 103.020089 
L 696.201966 95.514947 
L 697.256587 95.514947 
L 697.467511 91.855724 
L 718.770856 91.855724 
L 718.98178 88.887273 
L 871.690909 88.887273 
L 871.690909 88.887273 
" style="fill:none;stroke:#feffb3;stroke-linecap:square;stroke-width:1.5;"/>
   </g>
   <g id="line2d_16">
    <path clip-path="url(#pcdc0913af0)" d="M 161.509091 368.130805 
L 162.98556 368.130805 
L 163.196485 373.58806 
L 164.672954 373.58806 
L 164.883878 378.788803 
L 166.360348 378.788803 
L 166.571272 383.74509 
L 168.047741 383.74509 
L 168.258666 388.468411 
L 169.735135 388.468411 
L 169.946059 392.969718 
L 171.422529 392.969718 
L 171.633453 397.259445 
L 173.109923 397.259445 
L 173.320847 401.347537 
L 174.797316 401.347537 
L 175.00824 405.243473 
L 176.48471 405.243473 
L 176.695634 408.956285 
L 178.172104 408.956285 
L 178.383028 412.494579 
L 179.859497 412.494579 
L 180.070421 415.866559 
L 181.546891 415.866559 
L 181.757815 419.080043 
L 183.234285 419.080043 
L 183.445209 422.14248 
L 184.921678 422.14248 
L 185.132603 425.060971 
L 186.609072 425.060971 
L 186.819996 427.84228 
L 188.296466 427.84228 
L 188.50739 430.492857 
L 189.983859 430.492857 
L 190.194784 433.018846 
L 191.671253 433.018846 
L 191.882177 435.426104 
L 193.358647 435.426104 
L 193.569571 437.720211 
L 195.04604 437.720211 
L 195.256965 439.906485 
L 196.733434 439.906485 
L 196.944358 441.989996 
L 198.420828 441.989996 
L 198.631752 443.975574 
L 200.108222 443.975574 
L 200.319146 445.867821 
L 201.795615 445.867821 
L 202.006539 447.671126 
L 203.483009 447.671126 
L 203.693933 449.389667 
L 205.170403 449.389667 
L 205.381327 451.027431 
L 206.857796 451.027431 
L 207.06872 452.588213 
L 208.54519 452.588213 
L 208.756114 454.075632 
L 210.232584 454.075632 
L 210.443508 455.493136 
L 211.919977 455.493136 
L 212.130902 456.844012 
L 213.607371 456.844012 
L 213.818295 458.131391 
L 215.294765 458.131391 
L 215.505689 459.358259 
L 216.982158 459.358259 
L 217.193083 460.527458 
L 218.669552 460.527458 
L 218.880476 461.641701 
L 220.356946 461.641701 
L 220.56787 462.70357 
L 222.044339 462.70357 
L 222.255264 463.715526 
L 223.731733 463.715526 
L 223.942657 464.679917 
L 225.419127 464.679917 
L 225.630051 465.598977 
L 227.106521 465.598977 
L 227.317445 466.474838 
L 228.793914 466.474838 
L 229.004838 467.30953 
L 230.481308 467.30953 
L 230.692232 468.104988 
L 232.168702 468.104988 
L 232.379626 468.863057 
L 233.856095 468.863057 
L 234.067019 469.585493 
L 235.543489 469.585493 
L 235.754413 470.273971 
L 237.230883 470.273971 
L 237.441807 470.930089 
L 238.918276 470.930089 
L 239.129201 471.555366 
L 240.60567 471.555366 
L 240.816594 472.151253 
L 242.293064 472.151253 
L 242.503988 472.719131 
L 243.980457 472.719131 
L 244.191382 473.260316 
L 245.667851 473.260316 
L 245.878775 473.776063 
L 247.355245 473.776063 
L 247.566169 474.267568 
L 249.042638 474.267568 
L 249.253563 474.735971 
L 250.730032 474.735971 
L 250.940956 475.182356 
L 252.417426 475.182356 
L 252.62835 475.60776 
L 254.10482 475.60776 
L 254.315744 476.013168 
L 255.792213 476.013168 
L 256.003137 476.39952 
L 257.479607 476.39952 
L 257.690531 476.767712 
L 259.167001 476.767712 
L 259.377925 477.118598 
L 260.854394 477.118598 
L 261.065318 477.45299 
L 262.541788 477.45299 
L 262.752712 477.771665 
L 264.229182 477.771665 
L 264.440106 478.075361 
L 265.916575 478.075361 
L 266.1275 478.364782 
L 267.603969 478.364782 
L 267.814893 478.640599 
L 269.291363 478.640599 
L 269.502287 478.903451 
L 270.978756 478.903451 
L 271.189681 479.153949 
L 272.66615 479.153949 
L 272.877074 479.392672 
L 274.353544 479.392672 
L 274.564468 479.620174 
L 276.040937 479.620174 
L 276.251862 479.836982 
L 277.728331 479.836982 
L 277.939255 480.0436 
L 279.415725 480.0436 
L 279.626649 480.240506 
L 281.103119 480.240506 
L 281.314043 480.428156 
L 282.790512 480.428156 
L 283.001436 480.606986 
L 284.477906 480.606986 
L 284.68883 480.77741 
L 286.1653 480.77741 
L 286.376224 480.939824 
L 287.852693 480.939824 
L 288.063617 481.094604 
L 289.540087 481.094604 
L 289.751011 481.242108 
L 291.227481 481.242108 
L 291.438405 481.382679 
L 292.914874 481.382679 
L 293.125799 481.516643 
L 294.602268 481.516643 
L 295.024116 481.64431 
L 296.289662 481.64431 
L 296.71151 481.765976 
L 297.977055 481.765976 
L 298.398904 481.881923 
L 301.351843 481.99242 
L 301.773691 482.097724 
L 304.72663 482.198077 
L 305.148479 482.293714 
L 308.101418 482.384855 
L 308.523266 482.471713 
L 311.476205 482.554488 
L 311.898053 482.633372 
L 314.850992 482.708548 
L 315.272841 482.78019 
L 318.22578 482.848465 
L 318.647628 482.913531 
L 321.600567 482.975539 
L 322.022415 483.034632 
L 326.662748 483.144615 
L 327.295521 483.195761 
L 331.724929 483.290953 
L 332.357702 483.33522 
L 336.78711 483.41761 
L 337.419883 483.455924 
L 343.536685 483.560394 
L 344.380382 483.591997 
L 350.28626 483.678167 
L 351.340881 483.704234 
L 358.723228 483.79681 
L 359.988773 483.8173 
L 370.534984 483.921526 
L 372.433302 483.950094 
L 390.783708 484.058091 
L 393.947571 484.074123 
L 436.343338 484.185129 
L 447.944169 484.198747 
L 871.690909 484.232727 
L 871.690909 484.232727 
" style="fill:none;stroke:#bfbbd9;stroke-linecap:square;stroke-width:1.5;"/>
   </g>
   <g id="patch_3">
    <path d="M 126 504 
L 126 69.12 
" style="fill:none;stroke:#ffffff;stroke-linecap:square;stroke-linejoin:miter;stroke-width:0.8;"/>
   </g>
   <g id="patch_4">
    <path d="M 907.2 504 
L 907.2 69.12 
" style="fill:none;stroke:#ffffff;stroke-linecap:square;stroke-linejoin:miter;stroke-width:0.8;"/>
   </g>
   <g id="patch_5">
    <path d="M 126 504 
L 907.2 504 
" style="fill:none;stroke:#ffffff;stroke-linecap:square;stroke-linejoin:miter;stroke-width:0.8;"/>
   </g>
   <g id="patch_6">
    <path d="M 126 69.12 
L 907.2 69.12 
" style="fill:none;stroke:#ffffff;stroke-linecap:square;stroke-linejoin:miter;stroke-width:0.8;"/>
   </g>
   <g id="text_15">
    <!-- instance 5 with error 0.0144279996276645 -->
    <g style="fill:#ffffff;" transform="translate(385.681875 63.12)scale(0.12 -0.12)">
     <defs>
      <path d="M 2834 3397 
L 2834 2853 
Q 2591 2978 2328 3040 
Q 2066 3103 1784 3103 
Q 1356 3103 1142 2972 
Q 928 2841 928 2578 
Q 928 2378 1081 2264 
Q 1234 2150 1697 2047 
L 1894 2003 
Q 2506 1872 2764 1633 
Q 3022 1394 3022 966 
Q 3022 478 2636 193 
Q 2250 -91 1575 -91 
Q 1294 -91 989 -36 
Q 684 19 347 128 
L 347 722 
Q 666 556 975 473 
Q 1284 391 1588 391 
Q 1994 391 2212 530 
Q 2431 669 2431 922 
Q 2431 1156 2273 1281 
Q 2116 1406 1581 1522 
L 1381 1569 
Q 847 1681 609 1914 
Q 372 2147 372 2553 
Q 372 3047 722 3315 
Q 1072 3584 1716 3584 
Q 2034 3584 2315 3537 
Q 2597 3491 2834 3397 
z
" id="DejaVuSans-73" transform="scale(0.015625)"/>
      <path d="M 3122 3366 
L 3122 2828 
Q 2878 2963 2633 3030 
Q 2388 3097 2138 3097 
Q 1578 3097 1268 2742 
Q 959 2388 959 1747 
Q 959 1106 1268 751 
Q 1578 397 2138 397 
Q 2388 397 2633 464 
Q 2878 531 3122 666 
L 3122 134 
Q 2881 22 2623 -34 
Q 2366 -91 2075 -91 
Q 1284 -91 818 406 
Q 353 903 353 1747 
Q 353 2603 823 3093 
Q 1294 3584 2113 3584 
Q 2378 3584 2631 3529 
Q 2884 3475 3122 3366 
z
" id="DejaVuSans-63" transform="scale(0.015625)"/>
      <path id="DejaVuSans-20" transform="scale(0.015625)"/>
      <path d="M 269 3500 
L 844 3500 
L 1563 769 
L 2278 3500 
L 2956 3500 
L 3675 769 
L 4391 3500 
L 4966 3500 
L 4050 0 
L 3372 0 
L 2619 2869 
L 1863 0 
L 1184 0 
L 269 3500 
z
" id="DejaVuSans-77" transform="scale(0.015625)"/>
      <path d="M 3513 2113 
L 3513 0 
L 2938 0 
L 2938 2094 
Q 2938 2591 2744 2837 
Q 2550 3084 2163 3084 
Q 1697 3084 1428 2787 
Q 1159 2491 1159 1978 
L 1159 0 
L 581 0 
L 581 4863 
L 1159 4863 
L 1159 2956 
Q 1366 3272 1645 3428 
Q 1925 3584 2291 3584 
Q 2894 3584 3203 3211 
Q 3513 2838 3513 2113 
z
" id="DejaVuSans-68" transform="scale(0.015625)"/>
      <path d="M 684 794 
L 1344 794 
L 1344 0 
L 684 0 
L 684 794 
z
" id="DejaVuSans-2e" transform="scale(0.015625)"/>
      <path d="M 2419 4116 
L 825 1625 
L 2419 1625 
L 2419 4116 
z
M 2253 4666 
L 3047 4666 
L 3047 1625 
L 3713 1625 
L 3713 1100 
L 3047 1100 
L 3047 0 
L 2419 0 
L 2419 1100 
L 313 1100 
L 313 1709 
L 2253 4666 
z
" id="DejaVuSans-34" transform="scale(0.015625)"/>
      <path d="M 525 4666 
L 3525 4666 
L 3525 4397 
L 1831 0 
L 1172 0 
L 2766 4134 
L 525 4134 
L 525 4666 
z
" id="DejaVuSans-37" transform="scale(0.015625)"/>
      <path d="M 703 97 
L 703 672 
Q 941 559 1184 500 
Q 1428 441 1663 441 
Q 2288 441 2617 861 
Q 2947 1281 2994 2138 
Q 2813 1869 2534 1725 
Q 2256 1581 1919 1581 
Q 1219 1581 811 2004 
Q 403 2428 403 3163 
Q 403 3881 828 4315 
Q 1253 4750 1959 4750 
Q 2769 4750 3195 4129 
Q 3622 3509 3622 2328 
Q 3622 1225 3098 567 
Q 2575 -91 1691 -91 
Q 1453 -91 1209 -44 
Q 966 3 703 97 
z
M 1959 2075 
Q 2384 2075 2632 2365 
Q 2881 2656 2881 3163 
Q 2881 3666 2632 3958 
Q 2384 4250 1959 4250 
Q 1534 4250 1286 3958 
Q 1038 3666 1038 3163 
Q 1038 2656 1286 2365 
Q 1534 2075 1959 2075 
z
" id="DejaVuSans-39" transform="scale(0.015625)"/>
      <path d="M 2113 2584 
Q 1688 2584 1439 2293 
Q 1191 2003 1191 1497 
Q 1191 994 1439 701 
Q 1688 409 2113 409 
Q 2538 409 2786 701 
Q 3034 994 3034 1497 
Q 3034 2003 2786 2293 
Q 2538 2584 2113 2584 
z
M 3366 4563 
L 3366 3988 
Q 3128 4100 2886 4159 
Q 2644 4219 2406 4219 
Q 1781 4219 1451 3797 
Q 1122 3375 1075 2522 
Q 1259 2794 1537 2939 
Q 1816 3084 2150 3084 
Q 2853 3084 3261 2657 
Q 3669 2231 3669 1497 
Q 3669 778 3244 343 
Q 2819 -91 2113 -91 
Q 1303 -91 875 529 
Q 447 1150 447 2328 
Q 447 3434 972 4092 
Q 1497 4750 2381 4750 
Q 2619 4750 2861 4703 
Q 3103 4656 3366 4563 
z
" id="DejaVuSans-36" transform="scale(0.015625)"/>
     </defs>
     <use xlink:href="#DejaVuSans-69"/>
     <use x="27.783203" xlink:href="#DejaVuSans-6e"/>
     <use x="91.162109" xlink:href="#DejaVuSans-73"/>
     <use x="143.261719" xlink:href="#DejaVuSans-74"/>
     <use x="182.470703" xlink:href="#DejaVuSans-61"/>
     <use x="243.75" xlink:href="#DejaVuSans-6e"/>
     <use x="307.128906" xlink:href="#DejaVuSans-63"/>
     <use x="362.109375" xlink:href="#DejaVuSans-65"/>
     <use x="423.632812" xlink:href="#DejaVuSans-20"/>
     <use x="455.419922" xlink:href="#DejaVuSans-35"/>
     <use x="519.042969" xlink:href="#DejaVuSans-20"/>
     <use x="550.830078" xlink:href="#DejaVuSans-77"/>
     <use x="632.617188" xlink:href="#DejaVuSans-69"/>
     <use x="660.400391" xlink:href="#DejaVuSans-74"/>
     <use x="699.609375" xlink:href="#DejaVuSans-68"/>
     <use x="762.988281" xlink:href="#DejaVuSans-20"/>
     <use x="794.775391" xlink:href="#DejaVuSans-65"/>
     <use x="856.298828" xlink:href="#DejaVuSans-72"/>
     <use x="895.662109" xlink:href="#DejaVuSans-72"/>
     <use x="934.525391" xlink:href="#DejaVuSans-6f"/>
     <use x="995.707031" xlink:href="#DejaVuSans-72"/>
     <use x="1036.820312" xlink:href="#DejaVuSans-20"/>
     <use x="1068.607422" xlink:href="#DejaVuSans-30"/>
     <use x="1132.230469" xlink:href="#DejaVuSans-2e"/>
     <use x="1164.017578" xlink:href="#DejaVuSans-30"/>
     <use x="1227.640625" xlink:href="#DejaVuSans-31"/>
     <use x="1291.263672" xlink:href="#DejaVuSans-34"/>
     <use x="1354.886719" xlink:href="#DejaVuSans-34"/>
     <use x="1418.509766" xlink:href="#DejaVuSans-32"/>
     <use x="1482.132812" xlink:href="#DejaVuSans-37"/>
     <use x="1545.755859" xlink:href="#DejaVuSans-39"/>
     <use x="1609.378906" xlink:href="#DejaVuSans-39"/>
     <use x="1673.001953" xlink:href="#DejaVuSans-39"/>
     <use x="1736.625" xlink:href="#DejaVuSans-36"/>
     <use x="1800.248047" xlink:href="#DejaVuSans-32"/>
     <use x="1863.871094" xlink:href="#DejaVuSans-37"/>
     <use x="1927.494141" xlink:href="#DejaVuSans-36"/>
     <use x="1991.117188" xlink:href="#DejaVuSans-36"/>
     <use x="2054.740234" xlink:href="#DejaVuSans-34"/>
     <use x="2118.363281" xlink:href="#DejaVuSans-35"/>
    </g>
   </g>
   <g id="legend_1">
    <g id="patch_7">
     <path d="M 805.348438 499 
L 900.2 499 
Q 902.2 499 902.2 497 
L 902.2 453.965625 
Q 902.2 451.965625 900.2 451.965625 
L 805.348438 451.965625 
Q 803.348438 451.965625 803.348438 453.965625 
L 803.348438 497 
Q 803.348438 499 805.348438 499 
z
" style="opacity:0.8;stroke:#cccccc;stroke-linejoin:miter;"/>
    </g>
    <g id="line2d_17">
     <path d="M 807.348438 460.064062 
L 827.348438 460.064062 
" style="fill:none;stroke:#8dd3c7;stroke-linecap:square;stroke-width:1.5;"/>
    </g>
    <g id="line2d_18"/>
    <g id="text_16">
     <!-- cost -->
     <g style="fill:#ffffff;" transform="translate(835.348438 463.564062)scale(0.1 -0.1)">
      <use xlink:href="#DejaVuSans-63"/>
      <use x="54.980469" xlink:href="#DejaVuSans-6f"/>
      <use x="116.162109" xlink:href="#DejaVuSans-73"/>
      <use x="168.261719" xlink:href="#DejaVuSans-74"/>
     </g>
    </g>
    <g id="line2d_19">
     <path d="M 807.348438 474.742188 
L 827.348438 474.742188 
" style="fill:none;stroke:#feffb3;stroke-linecap:square;stroke-width:1.5;"/>
    </g>
    <g id="line2d_20"/>
    <g id="text_17">
     <!-- best cost -->
     <g style="fill:#ffffff;" transform="translate(835.348438 478.242188)scale(0.1 -0.1)">
      <defs>
       <path d="M 3116 1747 
Q 3116 2381 2855 2742 
Q 2594 3103 2138 3103 
Q 1681 3103 1420 2742 
Q 1159 2381 1159 1747 
Q 1159 1113 1420 752 
Q 1681 391 2138 391 
Q 2594 391 2855 752 
Q 3116 1113 3116 1747 
z
M 1159 2969 
Q 1341 3281 1617 3432 
Q 1894 3584 2278 3584 
Q 2916 3584 3314 3078 
Q 3713 2572 3713 1747 
Q 3713 922 3314 415 
Q 2916 -91 2278 -91 
Q 1894 -91 1617 61 
Q 1341 213 1159 525 
L 1159 0 
L 581 0 
L 581 4863 
L 1159 4863 
L 1159 2969 
z
" id="DejaVuSans-62" transform="scale(0.015625)"/>
      </defs>
      <use xlink:href="#DejaVuSans-62"/>
      <use x="63.476562" xlink:href="#DejaVuSans-65"/>
      <use x="125" xlink:href="#DejaVuSans-73"/>
      <use x="177.099609" xlink:href="#DejaVuSans-74"/>
      <use x="216.308594" xlink:href="#DejaVuSans-20"/>
      <use x="248.095703" xlink:href="#DejaVuSans-63"/>
      <use x="303.076172" xlink:href="#DejaVuSans-6f"/>
      <use x="364.257812" xlink:href="#DejaVuSans-73"/>
      <use x="416.357422" xlink:href="#DejaVuSans-74"/>
     </g>
    </g>
    <g id="line2d_21">
     <path d="M 807.348438 489.420313 
L 827.348438 489.420313 
" style="fill:none;stroke:#bfbbd9;stroke-linecap:square;stroke-width:1.5;"/>
    </g>
    <g id="line2d_22"/>
    <g id="text_18">
     <!-- temperature -->
     <g style="fill:#ffffff;" transform="translate(835.348438 492.920313)scale(0.1 -0.1)">
      <defs>
       <path d="M 3328 2828 
Q 3544 3216 3844 3400 
Q 4144 3584 4550 3584 
Q 5097 3584 5394 3201 
Q 5691 2819 5691 2113 
L 5691 0 
L 5113 0 
L 5113 2094 
Q 5113 2597 4934 2840 
Q 4756 3084 4391 3084 
Q 3944 3084 3684 2787 
Q 3425 2491 3425 1978 
L 3425 0 
L 2847 0 
L 2847 2094 
Q 2847 2600 2669 2842 
Q 2491 3084 2119 3084 
Q 1678 3084 1418 2786 
Q 1159 2488 1159 1978 
L 1159 0 
L 581 0 
L 581 3500 
L 1159 3500 
L 1159 2956 
Q 1356 3278 1631 3431 
Q 1906 3584 2284 3584 
Q 2666 3584 2933 3390 
Q 3200 3197 3328 2828 
z
" id="DejaVuSans-6d" transform="scale(0.015625)"/>
       <path d="M 1159 525 
L 1159 -1331 
L 581 -1331 
L 581 3500 
L 1159 3500 
L 1159 2969 
Q 1341 3281 1617 3432 
Q 1894 3584 2278 3584 
Q 2916 3584 3314 3078 
Q 3713 2572 3713 1747 
Q 3713 922 3314 415 
Q 2916 -91 2278 -91 
Q 1894 -91 1617 61 
Q 1341 213 1159 525 
z
M 3116 1747 
Q 3116 2381 2855 2742 
Q 2594 3103 2138 3103 
Q 1681 3103 1420 2742 
Q 1159 2381 1159 1747 
Q 1159 1113 1420 752 
Q 1681 391 2138 391 
Q 2594 391 2855 752 
Q 3116 1113 3116 1747 
z
" id="DejaVuSans-70" transform="scale(0.015625)"/>
       <path d="M 544 1381 
L 544 3500 
L 1119 3500 
L 1119 1403 
Q 1119 906 1312 657 
Q 1506 409 1894 409 
Q 2359 409 2629 706 
Q 2900 1003 2900 1516 
L 2900 3500 
L 3475 3500 
L 3475 0 
L 2900 0 
L 2900 538 
Q 2691 219 2414 64 
Q 2138 -91 1772 -91 
Q 1169 -91 856 284 
Q 544 659 544 1381 
z
M 1991 3584 
L 1991 3584 
z
" id="DejaVuSans-75" transform="scale(0.015625)"/>
      </defs>
      <use xlink:href="#DejaVuSans-74"/>
      <use x="39.208984" xlink:href="#DejaVuSans-65"/>
      <use x="100.732422" xlink:href="#DejaVuSans-6d"/>
      <use x="198.144531" xlink:href="#DejaVuSans-70"/>
      <use x="261.621094" xlink:href="#DejaVuSans-65"/>
      <use x="323.144531" xlink:href="#DejaVuSans-72"/>
      <use x="364.257812" xlink:href="#DejaVuSans-61"/>
      <use x="425.537109" xlink:href="#DejaVuSans-74"/>
      <use x="464.746094" xlink:href="#DejaVuSans-75"/>
      <use x="528.125" xlink:href="#DejaVuSans-72"/>
      <use x="566.988281" xlink:href="#DejaVuSans-65"/>
     </g>
    </g>
   </g>
  </g>
 </g>
 <defs>
  <clipPath id="pcdc0913af0">
   <rect height="434.88" width="781.2" x="126" y="69.12"/>
  </clipPath>
 </defs>
</svg>
