<?xml version="1.0" encoding="utf-8" standalone="no"?>
<!DOCTYPE svg PUBLIC "-//W3C//DTD SVG 1.1//EN"
  "http://www.w3.org/Graphics/SVG/1.1/DTD/svg11.dtd">
<svg height="576pt" version="1.1" viewBox="0 0 1008 576" width="1008pt" xmlns="http://www.w3.org/2000/svg" xmlns:xlink="http://www.w3.org/1999/xlink">
 <metadata>
  <rdf:RDF xmlns:cc="http://creativecommons.org/ns#" xmlns:dc="http://purl.org/dc/elements/1.1/" xmlns:rdf="http://www.w3.org/1999/02/22-rdf-syntax-ns#">
   <cc:Work>
    <dc:type rdf:resource="http://purl.org/dc/dcmitype/StillImage"/>
    <dc:date>2022-01-13T19:10:49.143930</dc:date>
    <dc:format>image/svg+xml</dc:format>
    <dc:creator>
     <cc:Agent>
      <dc:title>Matplotlib v3.4.3, https://matplotlib.org/</dc:title>
     </cc:Agent>
    </dc:creator>
   </cc:Work>
  </rdf:RDF>
 </metadata>
 <defs>
  <style type="text/css">*{stroke-linecap:butt;stroke-linejoin:round;}</style>
 </defs>
 <g id="figure_1">
  <g id="patch_1">
   <path d="M 0 576 
L 1008 576 
L 1008 0 
L 0 0 
z
"/>
  </g>
  <g id="axes_1">
   <g id="patch_2">
    <path d="M 126 504 
L 907.2 504 
L 907.2 69.12 
L 126 69.12 
z
"/>
   </g>
   <g id="matplotlib.axis_1">
    <g id="xtick_1">
     <g id="line2d_1">
      <defs>
       <path d="M 0 0 
L 0 3.5 
" id="meea8960eb0" style="stroke:#ffffff;stroke-width:0.8;"/>
      </defs>
      <g>
       <use style="fill:#ffffff;stroke:#ffffff;stroke-width:0.8;" x="161.509091" xlink:href="#meea8960eb0" y="504"/>
      </g>
     </g>
     <g id="text_1">
      <!-- 0 -->
      <g style="fill:#ffffff;" transform="translate(158.327841 518.598438)scale(0.1 -0.1)">
       <defs>
        <path d="M 2034 4250 
Q 1547 4250 1301 3770 
Q 1056 3291 1056 2328 
Q 1056 1369 1301 889 
Q 1547 409 2034 409 
Q 2525 409 2770 889 
Q 3016 1369 3016 2328 
Q 3016 3291 2770 3770 
Q 2525 4250 2034 4250 
z
M 2034 4750 
Q 2819 4750 3233 4129 
Q 3647 3509 3647 2328 
Q 3647 1150 3233 529 
Q 2819 -91 2034 -91 
Q 1250 -91 836 529 
Q 422 1150 422 2328 
Q 422 3509 836 4129 
Q 1250 4750 2034 4750 
z
" id="DejaVuSans-30" transform="scale(0.015625)"/>
       </defs>
       <use xlink:href="#DejaVuSans-30"/>
      </g>
     </g>
    </g>
    <g id="xtick_2">
     <g id="line2d_2">
      <g>
       <use style="fill:#ffffff;stroke:#ffffff;stroke-width:0.8;" x="294.52685" xlink:href="#meea8960eb0" y="504"/>
      </g>
     </g>
     <g id="text_2">
      <!-- 1000 -->
      <g style="fill:#ffffff;" transform="translate(281.80185 518.598438)scale(0.1 -0.1)">
       <defs>
        <path d="M 794 531 
L 1825 531 
L 1825 4091 
L 703 3866 
L 703 4441 
L 1819 4666 
L 2450 4666 
L 2450 531 
L 3481 531 
L 3481 0 
L 794 0 
L 794 531 
z
" id="DejaVuSans-31" transform="scale(0.015625)"/>
       </defs>
       <use xlink:href="#DejaVuSans-31"/>
       <use x="63.623047" xlink:href="#DejaVuSans-30"/>
       <use x="127.246094" xlink:href="#DejaVuSans-30"/>
       <use x="190.869141" xlink:href="#DejaVuSans-30"/>
      </g>
     </g>
    </g>
    <g id="xtick_3">
     <g id="line2d_3">
      <g>
       <use style="fill:#ffffff;stroke:#ffffff;stroke-width:0.8;" x="427.54461" xlink:href="#meea8960eb0" y="504"/>
      </g>
     </g>
     <g id="text_3">
      <!-- 2000 -->
      <g style="fill:#ffffff;" transform="translate(414.81961 518.598438)scale(0.1 -0.1)">
       <defs>
        <path d="M 1228 531 
L 3431 531 
L 3431 0 
L 469 0 
L 469 531 
Q 828 903 1448 1529 
Q 2069 2156 2228 2338 
Q 2531 2678 2651 2914 
Q 2772 3150 2772 3378 
Q 2772 3750 2511 3984 
Q 2250 4219 1831 4219 
Q 1534 4219 1204 4116 
Q 875 4013 500 3803 
L 500 4441 
Q 881 4594 1212 4672 
Q 1544 4750 1819 4750 
Q 2544 4750 2975 4387 
Q 3406 4025 3406 3419 
Q 3406 3131 3298 2873 
Q 3191 2616 2906 2266 
Q 2828 2175 2409 1742 
Q 1991 1309 1228 531 
z
" id="DejaVuSans-32" transform="scale(0.015625)"/>
       </defs>
       <use xlink:href="#DejaVuSans-32"/>
       <use x="63.623047" xlink:href="#DejaVuSans-30"/>
       <use x="127.246094" xlink:href="#DejaVuSans-30"/>
       <use x="190.869141" xlink:href="#DejaVuSans-30"/>
      </g>
     </g>
    </g>
    <g id="xtick_4">
     <g id="line2d_4">
      <g>
       <use style="fill:#ffffff;stroke:#ffffff;stroke-width:0.8;" x="560.56237" xlink:href="#meea8960eb0" y="504"/>
      </g>
     </g>
     <g id="text_4">
      <!-- 3000 -->
      <g style="fill:#ffffff;" transform="translate(547.83737 518.598438)scale(0.1 -0.1)">
       <defs>
        <path d="M 2597 2516 
Q 3050 2419 3304 2112 
Q 3559 1806 3559 1356 
Q 3559 666 3084 287 
Q 2609 -91 1734 -91 
Q 1441 -91 1130 -33 
Q 819 25 488 141 
L 488 750 
Q 750 597 1062 519 
Q 1375 441 1716 441 
Q 2309 441 2620 675 
Q 2931 909 2931 1356 
Q 2931 1769 2642 2001 
Q 2353 2234 1838 2234 
L 1294 2234 
L 1294 2753 
L 1863 2753 
Q 2328 2753 2575 2939 
Q 2822 3125 2822 3475 
Q 2822 3834 2567 4026 
Q 2313 4219 1838 4219 
Q 1578 4219 1281 4162 
Q 984 4106 628 3988 
L 628 4550 
Q 988 4650 1302 4700 
Q 1616 4750 1894 4750 
Q 2613 4750 3031 4423 
Q 3450 4097 3450 3541 
Q 3450 3153 3228 2886 
Q 3006 2619 2597 2516 
z
" id="DejaVuSans-33" transform="scale(0.015625)"/>
       </defs>
       <use xlink:href="#DejaVuSans-33"/>
       <use x="63.623047" xlink:href="#DejaVuSans-30"/>
       <use x="127.246094" xlink:href="#DejaVuSans-30"/>
       <use x="190.869141" xlink:href="#DejaVuSans-30"/>
      </g>
     </g>
    </g>
    <g id="xtick_5">
     <g id="line2d_5">
      <g>
       <use style="fill:#ffffff;stroke:#ffffff;stroke-width:0.8;" x="693.580129" xlink:href="#meea8960eb0" y="504"/>
      </g>
     </g>
     <g id="text_5">
      <!-- 4000 -->
      <g style="fill:#ffffff;" transform="translate(680.855129 518.598438)scale(0.1 -0.1)">
       <defs>
        <path d="M 2419 4116 
L 825 1625 
L 2419 1625 
L 2419 4116 
z
M 2253 4666 
L 3047 4666 
L 3047 1625 
L 3713 1625 
L 3713 1100 
L 3047 1100 
L 3047 0 
L 2419 0 
L 2419 1100 
L 313 1100 
L 313 1709 
L 2253 4666 
z
" id="DejaVuSans-34" transform="scale(0.015625)"/>
       </defs>
       <use xlink:href="#DejaVuSans-34"/>
       <use x="63.623047" xlink:href="#DejaVuSans-30"/>
       <use x="127.246094" xlink:href="#DejaVuSans-30"/>
       <use x="190.869141" xlink:href="#DejaVuSans-30"/>
      </g>
     </g>
    </g>
    <g id="xtick_6">
     <g id="line2d_6">
      <g>
       <use style="fill:#ffffff;stroke:#ffffff;stroke-width:0.8;" x="826.597889" xlink:href="#meea8960eb0" y="504"/>
      </g>
     </g>
     <g id="text_6">
      <!-- 5000 -->
      <g style="fill:#ffffff;" transform="translate(813.872889 518.598438)scale(0.1 -0.1)">
       <defs>
        <path d="M 691 4666 
L 3169 4666 
L 3169 4134 
L 1269 4134 
L 1269 2991 
Q 1406 3038 1543 3061 
Q 1681 3084 1819 3084 
Q 2600 3084 3056 2656 
Q 3513 2228 3513 1497 
Q 3513 744 3044 326 
Q 2575 -91 1722 -91 
Q 1428 -91 1123 -41 
Q 819 9 494 109 
L 494 744 
Q 775 591 1075 516 
Q 1375 441 1709 441 
Q 2250 441 2565 725 
Q 2881 1009 2881 1497 
Q 2881 1984 2565 2268 
Q 2250 2553 1709 2553 
Q 1456 2553 1204 2497 
Q 953 2441 691 2322 
L 691 4666 
z
" id="DejaVuSans-35" transform="scale(0.015625)"/>
       </defs>
       <use xlink:href="#DejaVuSans-35"/>
       <use x="63.623047" xlink:href="#DejaVuSans-30"/>
       <use x="127.246094" xlink:href="#DejaVuSans-30"/>
       <use x="190.869141" xlink:href="#DejaVuSans-30"/>
      </g>
     </g>
    </g>
    <g id="text_7">
     <!-- iteration -->
     <g style="fill:#ffffff;" transform="translate(495.477344 532.276562)scale(0.1 -0.1)">
      <defs>
       <path d="M 603 3500 
L 1178 3500 
L 1178 0 
L 603 0 
L 603 3500 
z
M 603 4863 
L 1178 4863 
L 1178 4134 
L 603 4134 
L 603 4863 
z
" id="DejaVuSans-69" transform="scale(0.015625)"/>
       <path d="M 1172 4494 
L 1172 3500 
L 2356 3500 
L 2356 3053 
L 1172 3053 
L 1172 1153 
Q 1172 725 1289 603 
Q 1406 481 1766 481 
L 2356 481 
L 2356 0 
L 1766 0 
Q 1100 0 847 248 
Q 594 497 594 1153 
L 594 3053 
L 172 3053 
L 172 3500 
L 594 3500 
L 594 4494 
L 1172 4494 
z
" id="DejaVuSans-74" transform="scale(0.015625)"/>
       <path d="M 3597 1894 
L 3597 1613 
L 953 1613 
Q 991 1019 1311 708 
Q 1631 397 2203 397 
Q 2534 397 2845 478 
Q 3156 559 3463 722 
L 3463 178 
Q 3153 47 2828 -22 
Q 2503 -91 2169 -91 
Q 1331 -91 842 396 
Q 353 884 353 1716 
Q 353 2575 817 3079 
Q 1281 3584 2069 3584 
Q 2775 3584 3186 3129 
Q 3597 2675 3597 1894 
z
M 3022 2063 
Q 3016 2534 2758 2815 
Q 2500 3097 2075 3097 
Q 1594 3097 1305 2825 
Q 1016 2553 972 2059 
L 3022 2063 
z
" id="DejaVuSans-65" transform="scale(0.015625)"/>
       <path d="M 2631 2963 
Q 2534 3019 2420 3045 
Q 2306 3072 2169 3072 
Q 1681 3072 1420 2755 
Q 1159 2438 1159 1844 
L 1159 0 
L 581 0 
L 581 3500 
L 1159 3500 
L 1159 2956 
Q 1341 3275 1631 3429 
Q 1922 3584 2338 3584 
Q 2397 3584 2469 3576 
Q 2541 3569 2628 3553 
L 2631 2963 
z
" id="DejaVuSans-72" transform="scale(0.015625)"/>
       <path d="M 2194 1759 
Q 1497 1759 1228 1600 
Q 959 1441 959 1056 
Q 959 750 1161 570 
Q 1363 391 1709 391 
Q 2188 391 2477 730 
Q 2766 1069 2766 1631 
L 2766 1759 
L 2194 1759 
z
M 3341 1997 
L 3341 0 
L 2766 0 
L 2766 531 
Q 2569 213 2275 61 
Q 1981 -91 1556 -91 
Q 1019 -91 701 211 
Q 384 513 384 1019 
Q 384 1609 779 1909 
Q 1175 2209 1959 2209 
L 2766 2209 
L 2766 2266 
Q 2766 2663 2505 2880 
Q 2244 3097 1772 3097 
Q 1472 3097 1187 3025 
Q 903 2953 641 2809 
L 641 3341 
Q 956 3463 1253 3523 
Q 1550 3584 1831 3584 
Q 2591 3584 2966 3190 
Q 3341 2797 3341 1997 
z
" id="DejaVuSans-61" transform="scale(0.015625)"/>
       <path d="M 1959 3097 
Q 1497 3097 1228 2736 
Q 959 2375 959 1747 
Q 959 1119 1226 758 
Q 1494 397 1959 397 
Q 2419 397 2687 759 
Q 2956 1122 2956 1747 
Q 2956 2369 2687 2733 
Q 2419 3097 1959 3097 
z
M 1959 3584 
Q 2709 3584 3137 3096 
Q 3566 2609 3566 1747 
Q 3566 888 3137 398 
Q 2709 -91 1959 -91 
Q 1206 -91 779 398 
Q 353 888 353 1747 
Q 353 2609 779 3096 
Q 1206 3584 1959 3584 
z
" id="DejaVuSans-6f" transform="scale(0.015625)"/>
       <path d="M 3513 2113 
L 3513 0 
L 2938 0 
L 2938 2094 
Q 2938 2591 2744 2837 
Q 2550 3084 2163 3084 
Q 1697 3084 1428 2787 
Q 1159 2491 1159 1978 
L 1159 0 
L 581 0 
L 581 3500 
L 1159 3500 
L 1159 2956 
Q 1366 3272 1645 3428 
Q 1925 3584 2291 3584 
Q 2894 3584 3203 3211 
Q 3513 2838 3513 2113 
z
" id="DejaVuSans-6e" transform="scale(0.015625)"/>
      </defs>
      <use xlink:href="#DejaVuSans-69"/>
      <use x="27.783203" xlink:href="#DejaVuSans-74"/>
      <use x="66.992188" xlink:href="#DejaVuSans-65"/>
      <use x="128.515625" xlink:href="#DejaVuSans-72"/>
      <use x="169.628906" xlink:href="#DejaVuSans-61"/>
      <use x="230.908203" xlink:href="#DejaVuSans-74"/>
      <use x="270.117188" xlink:href="#DejaVuSans-69"/>
      <use x="297.900391" xlink:href="#DejaVuSans-6f"/>
      <use x="359.082031" xlink:href="#DejaVuSans-6e"/>
     </g>
    </g>
   </g>
   <g id="matplotlib.axis_2">
    <g id="ytick_1">
     <g id="line2d_7">
      <defs>
       <path d="M 0 0 
L -3.5 0 
" id="ma09dd2c226" style="stroke:#ffffff;stroke-width:0.8;"/>
      </defs>
      <g>
       <use style="fill:#ffffff;stroke:#ffffff;stroke-width:0.8;" x="126" xlink:href="#ma09dd2c226" y="484.232727"/>
      </g>
     </g>
     <g id="text_8">
      <!-- 0 -->
      <g style="fill:#ffffff;" transform="translate(112.6375 488.031946)scale(0.1 -0.1)">
       <use xlink:href="#DejaVuSans-30"/>
      </g>
     </g>
    </g>
    <g id="ytick_2">
     <g id="line2d_8">
      <g>
       <use style="fill:#ffffff;stroke:#ffffff;stroke-width:0.8;" x="126" xlink:href="#ma09dd2c226" y="433.977801"/>
      </g>
     </g>
     <g id="text_9">
      <!-- 5000 -->
      <g style="fill:#ffffff;" transform="translate(93.55 437.77702)scale(0.1 -0.1)">
       <use xlink:href="#DejaVuSans-35"/>
       <use x="63.623047" xlink:href="#DejaVuSans-30"/>
       <use x="127.246094" xlink:href="#DejaVuSans-30"/>
       <use x="190.869141" xlink:href="#DejaVuSans-30"/>
      </g>
     </g>
    </g>
    <g id="ytick_3">
     <g id="line2d_9">
      <g>
       <use style="fill:#ffffff;stroke:#ffffff;stroke-width:0.8;" x="126" xlink:href="#ma09dd2c226" y="383.722875"/>
      </g>
     </g>
     <g id="text_10">
      <!-- 10000 -->
      <g style="fill:#ffffff;" transform="translate(87.1875 387.522093)scale(0.1 -0.1)">
       <use xlink:href="#DejaVuSans-31"/>
       <use x="63.623047" xlink:href="#DejaVuSans-30"/>
       <use x="127.246094" xlink:href="#DejaVuSans-30"/>
       <use x="190.869141" xlink:href="#DejaVuSans-30"/>
       <use x="254.492188" xlink:href="#DejaVuSans-30"/>
      </g>
     </g>
    </g>
    <g id="ytick_4">
     <g id="line2d_10">
      <g>
       <use style="fill:#ffffff;stroke:#ffffff;stroke-width:0.8;" x="126" xlink:href="#ma09dd2c226" y="333.467948"/>
      </g>
     </g>
     <g id="text_11">
      <!-- 15000 -->
      <g style="fill:#ffffff;" transform="translate(87.1875 337.267167)scale(0.1 -0.1)">
       <use xlink:href="#DejaVuSans-31"/>
       <use x="63.623047" xlink:href="#DejaVuSans-35"/>
       <use x="127.246094" xlink:href="#DejaVuSans-30"/>
       <use x="190.869141" xlink:href="#DejaVuSans-30"/>
       <use x="254.492188" xlink:href="#DejaVuSans-30"/>
      </g>
     </g>
    </g>
    <g id="ytick_5">
     <g id="line2d_11">
      <g>
       <use style="fill:#ffffff;stroke:#ffffff;stroke-width:0.8;" x="126" xlink:href="#ma09dd2c226" y="283.213022"/>
      </g>
     </g>
     <g id="text_12">
      <!-- 20000 -->
      <g style="fill:#ffffff;" transform="translate(87.1875 287.012241)scale(0.1 -0.1)">
       <use xlink:href="#DejaVuSans-32"/>
       <use x="63.623047" xlink:href="#DejaVuSans-30"/>
       <use x="127.246094" xlink:href="#DejaVuSans-30"/>
       <use x="190.869141" xlink:href="#DejaVuSans-30"/>
       <use x="254.492188" xlink:href="#DejaVuSans-30"/>
      </g>
     </g>
    </g>
    <g id="ytick_6">
     <g id="line2d_12">
      <g>
       <use style="fill:#ffffff;stroke:#ffffff;stroke-width:0.8;" x="126" xlink:href="#ma09dd2c226" y="232.958096"/>
      </g>
     </g>
     <g id="text_13">
      <!-- 25000 -->
      <g style="fill:#ffffff;" transform="translate(87.1875 236.757314)scale(0.1 -0.1)">
       <use xlink:href="#DejaVuSans-32"/>
       <use x="63.623047" xlink:href="#DejaVuSans-35"/>
       <use x="127.246094" xlink:href="#DejaVuSans-30"/>
       <use x="190.869141" xlink:href="#DejaVuSans-30"/>
       <use x="254.492188" xlink:href="#DejaVuSans-30"/>
      </g>
     </g>
    </g>
    <g id="ytick_7">
     <g id="line2d_13">
      <g>
       <use style="fill:#ffffff;stroke:#ffffff;stroke-width:0.8;" x="126" xlink:href="#ma09dd2c226" y="182.703169"/>
      </g>
     </g>
     <g id="text_14">
      <!-- 30000 -->
      <g style="fill:#ffffff;" transform="translate(87.1875 186.502388)scale(0.1 -0.1)">
       <use xlink:href="#DejaVuSans-33"/>
       <use x="63.623047" xlink:href="#DejaVuSans-30"/>
       <use x="127.246094" xlink:href="#DejaVuSans-30"/>
       <use x="190.869141" xlink:href="#DejaVuSans-30"/>
       <use x="254.492188" xlink:href="#DejaVuSans-30"/>
      </g>
     </g>
    </g>
    <g id="ytick_8">
     <g id="line2d_14">
      <g>
       <use style="fill:#ffffff;stroke:#ffffff;stroke-width:0.8;" x="126" xlink:href="#ma09dd2c226" y="132.448243"/>
      </g>
     </g>
     <g id="text_15">
      <!-- 35000 -->
      <g style="fill:#ffffff;" transform="translate(87.1875 136.247462)scale(0.1 -0.1)">
       <use xlink:href="#DejaVuSans-33"/>
       <use x="63.623047" xlink:href="#DejaVuSans-35"/>
       <use x="127.246094" xlink:href="#DejaVuSans-30"/>
       <use x="190.869141" xlink:href="#DejaVuSans-30"/>
       <use x="254.492188" xlink:href="#DejaVuSans-30"/>
      </g>
     </g>
    </g>
    <g id="ytick_9">
     <g id="line2d_15">
      <g>
       <use style="fill:#ffffff;stroke:#ffffff;stroke-width:0.8;" x="126" xlink:href="#ma09dd2c226" y="82.193317"/>
      </g>
     </g>
     <g id="text_16">
      <!-- 40000 -->
      <g style="fill:#ffffff;" transform="translate(87.1875 85.992535)scale(0.1 -0.1)">
       <use xlink:href="#DejaVuSans-34"/>
       <use x="63.623047" xlink:href="#DejaVuSans-30"/>
       <use x="127.246094" xlink:href="#DejaVuSans-30"/>
       <use x="190.869141" xlink:href="#DejaVuSans-30"/>
       <use x="254.492188" xlink:href="#DejaVuSans-30"/>
      </g>
     </g>
    </g>
   </g>
   <g id="line2d_16">
    <path clip-path="url(#p30669836cc)" d="M 161.509091 206.222475 
L 161.775126 226.344547 
L 162.041162 263.241714 
L 162.17418 247.753146 
L 162.307197 266.287163 
L 162.440215 242.28541 
L 162.573233 252.18563 
L 162.706251 294.399769 
L 162.972286 261.643608 
L 163.105304 256.638217 
L 163.238322 234.767273 
L 163.37134 247.662687 
L 163.504357 246.848557 
L 163.770393 224.927358 
L 163.903411 224.012719 
L 164.169446 265.402676 
L 164.302464 270.408067 
L 164.568499 260.829478 
L 164.701517 239.139452 
L 164.967553 261.080752 
L 165.10057 254.045063 
L 165.366606 282.217974 
L 165.499624 296.430068 
L 165.632641 285.625258 
L 165.898677 311.395985 
L 166.031695 297.183891 
L 166.164712 307.526355 
L 166.563766 275.976313 
L 166.829801 286.539898 
L 166.962819 264.668954 
L 167.095837 274.991316 
L 167.49489 323.929563 
L 167.760926 279.996707 
L 167.893943 300.038371 
L 168.292997 263.151255 
L 168.426014 267.724454 
L 168.69205 247.421463 
L 168.825068 267.463128 
L 168.958085 256.658319 
L 169.091103 255.180824 
L 169.224121 255.994954 
L 169.357139 255.512507 
L 169.490156 245.170043 
L 169.88921 269.82511 
L 170.022228 254.336541 
L 170.155245 264.679005 
L 170.288263 261.151109 
L 170.421281 250.828747 
L 170.820334 284.640262 
L 171.485423 366.94778 
L 171.884476 382.084564 
L 172.017494 378.556668 
L 172.549565 336.171663 
L 172.682583 359.429643 
L 172.8156 335.42789 
L 172.948618 336.905385 
L 173.214654 316.220458 
L 173.347672 312.190012 
L 173.480689 326.361902 
L 173.613707 316.300865 
L 173.746725 316.783313 
L 173.879743 305.496056 
L 174.145778 329.980256 
L 174.278796 329.166127 
L 174.544831 299.495618 
L 174.677849 309.556654 
L 174.810867 328.422354 
L 174.943885 329.236484 
L 175.475956 257.221174 
L 175.741991 290.801516 
L 175.875009 277.152278 
L 176.008027 284.187968 
L 176.274062 281.896343 
L 176.40708 261.854678 
L 176.540098 285.856431 
L 176.806133 264.648852 
L 176.939151 255.894444 
L 177.338204 286.25847 
L 177.471222 285.776023 
L 177.737258 288.168158 
L 177.870275 301.817396 
L 178.003293 302.631525 
L 178.535364 340.393077 
L 178.668382 329.105821 
L 178.8014 347.97152 
L 179.333471 308.49125 
L 179.466488 317.245658 
L 179.599506 317.728105 
L 179.732524 333.216674 
L 179.865542 324.462266 
L 180.264595 263.784467 
L 180.663648 229.078415 
L 180.929684 262.367279 
L 181.195719 276.076822 
L 181.328737 254.386796 
L 181.594773 262.99044 
L 181.860808 253.462106 
L 181.993826 264.266915 
L 182.126844 263.452785 
L 182.259861 268.025983 
L 182.392879 278.087019 
L 182.791932 223.781546 
L 182.92495 243.823211 
L 183.057968 228.334642 
L 183.190986 249.954312 
L 183.457021 243.903619 
L 183.590039 244.818258 
L 183.723057 255.14062 
L 183.856075 255.95475 
L 183.989092 247.200342 
L 184.12211 299.385057 
L 184.255128 286.489643 
L 184.388146 296.550679 
L 184.521163 286.489643 
L 184.654181 306.531308 
L 184.787199 291.042739 
L 184.920217 291.856869 
L 185.053234 281.594813 
L 185.585305 322.110335 
L 185.984359 285.052352 
L 186.117376 263.362326 
L 186.649447 328.713832 
L 187.048501 362.957539 
L 187.314536 331.528108 
L 187.447554 342.332917 
L 187.580572 340.855422 
L 187.979625 292.289062 
L 188.112643 288.258617 
L 188.245661 266.638947 
L 188.378678 282.127516 
L 188.511696 283.042155 
L 188.644714 259.784175 
L 188.777732 283.042155 
L 188.910749 272.780099 
L 189.309803 294.188698 
L 189.44282 278.70013 
L 189.575838 288.962186 
L 189.708856 265.704206 
L 189.841874 264.226711 
L 189.974891 244.295607 
L 190.107909 243.380967 
L 190.240927 266.638947 
L 190.373945 256.296483 
L 190.506962 277.916153 
L 190.772998 257.231225 
L 191.039034 279.634871 
L 191.172051 258.015202 
L 191.305069 265.050892 
L 191.571105 250.718187 
L 192.236193 299.133783 
L 192.369211 292.098093 
L 192.502229 313.717762 
L 192.768264 276.368301 
L 192.901282 291.856869 
L 193.0343 281.594813 
L 193.300335 306.481053 
L 193.433353 310.511498 
L 193.832406 271.312655 
L 193.965424 282.911492 
L 194.23146 264.096048 
L 194.497495 303.003412 
L 194.630513 291.716155 
L 194.763531 302.038517 
L 194.896549 288.389279 
L 195.029566 291.917175 
L 195.162584 286.962039 
L 195.295602 287.876679 
L 195.42862 266.005735 
L 195.561637 265.091096 
L 195.827673 285.33378 
L 196.093708 247.863707 
L 196.226726 298.721692 
L 196.359744 280.187675 
L 196.492762 285.193066 
L 196.758797 307.586661 
L 197.024833 281.795833 
L 197.290868 301.8576 
L 197.423886 300.380105 
L 197.689922 302.671729 
L 197.822939 313.014193 
L 197.955957 294.148494 
L 198.088975 307.043908 
L 198.221993 298.2895 
L 198.35501 309.888337 
L 198.488028 299.626281 
L 198.621046 318.160298 
L 198.754064 314.632402 
L 198.887081 307.596712 
L 199.153117 267.191751 
L 199.419152 264.900127 
L 199.55217 254.557663 
L 199.685188 258.085559 
L 199.818206 247.28075 
L 199.951223 265.814766 
L 200.350277 207.217522 
L 200.882348 276.137128 
L 201.015365 252.135375 
L 201.148383 262.940185 
L 201.281401 247.210393 
L 201.414419 257.472449 
L 201.680454 228.61607 
L 201.813472 250.306096 
L 201.94649 249.391457 
L 202.079508 245.863561 
L 202.212525 224.173534 
L 202.345543 224.987664 
L 202.478561 321.597735 
L 202.744596 352.062271 
L 203.276667 302.912953 
L 203.542703 280.519358 
L 203.808738 310.189866 
L 204.074774 274.327951 
L 204.207792 272.850456 
L 204.340809 277.855847 
L 204.739863 309.00385 
L 204.872881 285.002097 
L 205.005898 309.00385 
L 205.138916 301.96816 
L 205.271934 303.445655 
L 205.537969 271.805154 
L 205.670987 275.33305 
L 205.804005 286.620306 
L 206.07004 270.769902 
L 206.203058 290.701006 
L 206.469094 256.598013 
L 206.602111 260.125909 
L 207.001165 210.122257 
L 207.2672 247.773248 
L 207.400218 266.307265 
L 207.533236 255.502456 
L 207.666253 268.39787 
L 207.799271 263.442734 
L 207.932289 272.197142 
L 208.065307 293.816811 
L 208.198325 283.474348 
L 208.331342 282.660218 
L 208.46436 262.88993 
L 208.597378 263.804569 
L 208.863413 277.775439 
L 208.996431 273.744994 
L 209.262467 285.786074 
L 209.395484 271.614185 
L 209.528502 285.786074 
L 209.66152 270.056282 
L 209.927555 275.001367 
L 210.060573 264.940331 
L 210.193591 269.513529 
L 210.326609 264.940331 
L 210.592644 235.269822 
L 210.725662 256.889492 
L 210.85868 242.677398 
L 210.991697 243.159846 
L 211.390751 281.56466 
L 211.523768 263.030644 
L 211.656786 267.061089 
L 211.789804 248.195389 
L 212.188857 305.475954 
L 212.321875 306.953449 
L 212.454893 302.380251 
L 212.720928 279.423801 
L 213.119982 309.727521 
L 213.252999 293.997729 
L 213.386017 298.952865 
L 213.519035 317.818564 
L 213.78507 309.335533 
L 214.051106 325.195987 
L 214.184124 321.165542 
L 214.450159 289.153154 
L 214.716195 325.306548 
L 214.849212 330.311939 
L 214.98223 319.024682 
L 215.248266 282.941645 
L 215.381284 297.113535 
L 215.514301 287.052498 
L 215.647319 298.339755 
L 215.780337 288.439534 
L 216.046372 302.531016 
L 216.17939 297.957817 
L 216.445426 273.443464 
L 216.844479 309.757674 
L 216.977497 286.499694 
L 217.110514 286.982141 
L 217.243532 291.937277 
L 217.642585 243.963924 
L 218.041639 311.154761 
L 218.174656 289.464735 
L 218.307674 299.787097 
L 218.440692 246.798302 
L 218.57371 251.753438 
L 218.706728 267.242006 
L 218.839745 267.724454 
L 219.105781 296.651189 
L 219.238799 295.837059 
L 219.371816 290.881924 
L 219.504834 290.399476 
L 219.77087 319.024682 
L 219.903887 300.158983 
L 220.036905 305.164374 
L 220.302941 334.352435 
L 220.435958 315.486736 
L 220.568976 334.352435 
L 220.701994 325.598027 
L 221.101047 279.62482 
L 221.633118 365.791917 
L 221.899154 329.930001 
L 222.032171 340.734811 
L 222.165189 335.72942 
L 222.298207 357.419446 
L 222.830278 301.686733 
L 222.963296 302.500863 
L 223.096314 307.506253 
L 223.229331 318.79351 
L 223.89442 253.140474 
L 224.027438 229.882494 
L 224.160456 229.068364 
L 224.293473 241.963778 
L 224.426491 223.098079 
L 224.559509 231.852487 
L 224.692527 218.203249 
L 224.958562 252.748486 
L 225.09158 253.230933 
L 225.224598 263.131153 
L 225.357615 281.66517 
L 225.490633 280.750531 
L 225.623651 291.092994 
L 225.889687 250.868951 
L 226.022704 254.899396 
L 226.155722 291.686003 
L 226.28874 295.716448 
L 226.421758 250.868951 
L 226.554775 264.518189 
L 226.687793 249.029621 
L 226.820811 267.563638 
L 226.953829 243.561885 
L 227.086846 254.366694 
L 227.219864 276.05672 
L 227.4859 231.108714 
L 227.618917 246.838506 
L 227.884953 214.655251 
L 228.017971 238.657004 
L 228.150988 239.571644 
L 228.284006 219.801356 
L 228.417024 238.667055 
L 228.683059 210.092104 
L 228.816077 199.769742 
L 229.082113 167.556334 
L 229.348148 151.263687 
L 229.481166 172.953714 
L 229.614184 373.631685 
L 229.747202 374.114133 
L 229.880219 354.183029 
L 230.013237 367.078443 
L 230.279273 334.372537 
L 230.41229 212.212862 
L 230.545308 216.243307 
L 230.811344 246.607334 
L 230.944361 232.435444 
L 231.077379 244.034281 
L 231.210397 265.905225 
L 231.343415 255.582863 
L 231.476432 269.232101 
L 231.60945 260.477693 
L 231.875486 280.861091 
L 232.141521 266.528386 
L 232.274539 271.101585 
L 232.407557 259.502748 
L 232.540575 263.030644 
L 232.673592 252.708282 
L 232.80661 263.995538 
L 232.939628 245.129839 
L 233.205663 264.347323 
L 233.338681 269.302458 
L 233.471699 262.266769 
L 233.604717 277.755337 
L 233.737734 278.569467 
L 233.870752 301.827447 
L 234.00377 291.76641 
L 234.136788 290.952281 
L 234.402823 254.869243 
L 234.535841 269.081337 
L 234.801876 260.045501 
L 235.20093 314.160006 
L 235.466965 283.102461 
L 235.733001 247.763197 
L 235.866018 267.533485 
L 236.132054 242.918622 
L 236.39809 275.3431 
L 236.531107 265.44288 
L 236.664125 270.016078 
L 236.797143 266.488182 
L 236.930161 276.549219 
L 237.063178 298.420163 
L 237.196196 288.077699 
L 237.329214 258.5077 
L 237.462232 277.041717 
L 237.595249 268.287309 
L 237.861285 310.089357 
L 238.12732 294.82191 
L 238.260338 299.827301 
L 238.393356 285.655411 
L 238.526374 299.867505 
L 238.659391 298.39001 
L 239.058445 331.487904 
L 239.191462 355.489657 
L 239.32448 331.487904 
L 239.457498 330.673774 
L 239.590516 344.845664 
L 240.122587 285.343831 
L 240.255605 286.821326 
L 240.388622 302.309894 
L 240.52164 291.987532 
L 240.654658 270.116588 
L 240.787676 283.765826 
L 241.053711 258.377037 
L 241.186729 278.418702 
L 241.319747 277.936255 
L 241.585782 302.47071 
L 241.7188 297.465319 
L 241.851818 298.379959 
L 241.984835 284.208069 
L 242.383889 340.141803 
L 242.516906 345.096938 
L 242.649924 325.055274 
L 242.91596 354.062417 
L 243.048978 335.5284 
L 243.181995 336.010848 
L 243.448031 297.37486 
L 243.581049 295.897365 
L 243.714066 271.895613 
L 243.847084 268.367717 
L 243.980102 246.496773 
L 244.11312 265.03079 
L 244.246137 266.508284 
L 244.379155 262.477839 
L 244.645191 294.610839 
L 244.778208 289.605449 
L 245.044244 266.447979 
L 245.177262 282.17777 
L 245.310279 275.142081 
L 245.576315 295.103338 
L 245.709333 290.530139 
L 245.975368 315.577195 
L 246.374421 273.332903 
L 246.773475 309.506399 
L 247.03951 285.956941 
L 247.172528 296.017977 
L 247.438564 258.839383 
L 247.571581 268.739603 
L 247.704599 258.397139 
L 247.837617 269.995976 
L 247.970635 262.960287 
L 248.103652 273.222343 
L 248.502706 242.576889 
L 248.635723 266.578641 
L 248.768741 265.101146 
L 249.167794 203.257434 
L 249.300812 207.830632 
L 249.566848 238.1042 
L 249.699865 308.481199 
L 249.832883 286.86153 
L 250.098919 319.286008 
L 250.231937 308.481199 
L 250.364954 286.791173 
L 250.497972 297.133637 
L 250.63099 278.59962 
L 250.764008 298.530724 
L 251.163061 246.547028 
L 251.296079 255.301436 
L 251.562114 294.289208 
L 251.82815 276.931156 
L 252.094185 296.14864 
L 252.360221 311.526647 
L 252.626256 302.923004 
L 252.759274 287.434436 
L 253.158327 332.925195 
L 253.291345 322.864159 
L 253.424363 322.050029 
L 253.557381 332.372391 
L 253.690398 333.287031 
L 253.956434 362.193664 
L 254.488505 316.190305 
L 254.75454 317.486882 
L 254.887558 297.716594 
L 255.020576 301.24449 
L 255.286611 299.847403 
L 255.419629 300.32985 
L 255.552647 298.852355 
L 255.685665 294.82191 
L 255.9517 315.265614 
L 256.350753 263.573397 
L 256.483771 265.050892 
L 256.616789 276.649729 
L 256.882824 274.358104 
L 257.015842 293.223803 
L 257.281878 270.297506 
L 257.547913 307.727375 
L 257.680931 319.014631 
L 257.946967 294.560584 
L 258.213002 327.316745 
L 258.34602 311.586953 
L 258.612055 340.925779 
L 258.878091 297.616084 
L 259.011109 294.088188 
L 259.144126 297.616084 
L 259.277144 307.516304 
L 259.410162 296.711495 
L 259.54318 318.331164 
L 259.676197 302.842596 
L 259.809215 304.320091 
L 259.942233 300.792195 
L 260.075251 286.620306 
L 260.341286 303.546165 
L 260.474304 308.119363 
L 260.607322 307.636916 
L 260.873357 277.343247 
L 261.006375 273.312801 
L 261.139393 283.373838 
L 261.272411 284.187968 
L 261.671464 236.747317 
L 261.804482 235.933187 
L 261.937499 226.032967 
L 262.070517 240.204856 
L 262.203535 229.9428 
L 262.336553 208.071856 
L 262.602588 235.219567 
L 262.735606 311.365832 
L 262.868624 300.561023 
L 263.134659 298.832253 
L 263.400695 274.589277 
L 263.66673 301.365101 
L 263.799748 306.320237 
L 263.932766 320.53233 
L 264.065784 310.189866 
L 264.198801 321.788703 
L 264.331819 321.306256 
L 264.464837 321.788703 
L 264.730872 353.801092 
L 265.129926 311.426138 
L 265.262943 306.420747 
L 265.395961 307.234877 
L 265.528979 291.746308 
L 265.661997 307.234877 
L 265.928032 292.339317 
L 266.327085 330.211429 
L 266.593121 306.099115 
L 266.726139 311.104506 
L 266.859156 235.480893 
L 266.992174 239.008789 
L 267.125192 257.874488 
L 267.25821 258.356935 
L 267.657263 301.877702 
L 267.790281 280.187675 
L 267.923299 301.877702 
L 268.056316 283.343685 
L 268.189334 294.630941 
L 268.322352 317.888921 
L 268.45537 307.566559 
L 268.588387 327.497663 
L 268.854423 304.038663 
L 268.987441 315.6375 
L 269.120458 296.771801 
L 269.253476 297.585931 
L 269.386494 293.555486 
L 269.519512 283.49445 
L 269.652529 293.816811 
L 270.051583 265.010688 
L 270.1846 264.196558 
L 270.450636 299.857454 
L 270.583654 294.902318 
L 270.716671 284.579956 
L 270.849689 294.640992 
L 270.982707 290.067794 
L 271.115725 309.838082 
L 271.514778 256.879441 
L 271.647796 248.125032 
L 271.780814 262.296922 
L 271.913831 251.009665 
L 272.046849 255.04011 
L 272.179867 231.038357 
L 272.445902 265.583594 
L 272.57892 270.53873 
L 272.711938 266.508284 
L 272.977973 230.736828 
L 273.110991 244.948921 
L 273.377027 209.117159 
L 273.510044 213.147604 
L 273.77608 253.632972 
L 274.042115 210.443889 
L 274.175133 211.921383 
L 274.308151 216.926774 
L 274.441169 235.460791 
L 274.574187 225.118327 
L 274.707204 228.646223 
L 274.840222 223.640832 
L 274.97324 212.353576 
L 275.106258 217.358966 
L 275.372293 188.924729 
L 275.505311 199.247091 
L 275.771346 244.376015 
L 275.904364 224.605727 
L 276.1704 256.135668 
L 276.303417 241.963778 
L 276.436435 248.999468 
L 276.702471 307.646967 
L 276.835488 306.832837 
L 276.968506 311.787973 
L 277.101524 312.27042 
L 277.234542 298.058327 
L 277.367559 302.088772 
L 277.500577 291.746308 
L 277.633595 254.839091 
L 277.766613 258.869536 
L 277.899631 268.930572 
L 278.032648 257.331735 
L 278.298684 225.369602 
L 278.431702 215.308565 
L 278.564719 229.480455 
L 278.697737 228.565815 
L 278.830755 238.908279 
L 279.229808 205.126917 
L 279.362826 225.058021 
L 279.495844 206.192322 
L 279.628861 210.76552 
L 279.761879 222.052777 
L 279.894897 200.36275 
L 280.027915 222.052777 
L 280.160932 222.535224 
L 280.29395 222.052777 
L 280.693003 261.171211 
L 280.959039 219.369164 
L 281.092057 219.851611 
L 281.225074 239.782715 
L 281.358092 229.460353 
L 281.49111 207.770327 
L 281.757146 232.767127 
L 282.023181 221.158239 
L 282.289217 181.18547 
L 282.422234 203.056414 
L 282.555252 201.57892 
L 282.68827 211.901281 
L 282.821288 201.57892 
L 282.954305 345.006479 
L 283.087323 344.09184 
L 283.619394 286.881632 
L 283.752412 297.143688 
L 283.88543 285.544851 
L 284.018447 284.067356 
L 284.151465 295.354612 
L 284.284483 319.356365 
L 284.417501 299.586077 
L 284.550518 246.999322 
L 284.683536 242.044186 
L 284.816554 222.002522 
L 284.949572 220.525027 
L 285.215607 180.120066 
L 285.348625 198.071126 
L 285.481643 200.784892 
L 285.614661 199.397856 
L 285.747678 196.352407 
L 286.545785 249.572374 
L 286.81182 221.188392 
L 286.944838 222.103032 
L 287.077856 236.274921 
L 287.210874 225.932457 
L 287.343891 236.737266 
L 287.476909 256.66837 
L 287.609927 255.75373 
L 287.742945 241.581841 
L 287.875962 251.843897 
L 288.00898 241.039088 
L 288.275016 265.533339 
L 288.408034 267.010834 
L 288.541051 278.29809 
L 288.674069 274.267645 
L 288.807087 264.367425 
L 288.940105 282.901441 
L 289.073122 281.423947 
L 289.20614 276.850748 
L 289.472176 249.029621 
L 289.605193 253.984757 
L 289.738211 243.722701 
L 289.871229 253.622921 
L 290.004247 243.561885 
L 290.137264 265.251911 
L 290.270282 254.929549 
L 290.4033 233.239523 
L 290.669335 238.747463 
L 290.802353 238.265016 
L 291.334424 184.75357 
L 291.467442 185.236018 
L 291.60046 196.040827 
L 291.733477 191.085691 
L 291.866495 201.408053 
L 291.999513 196.402662 
L 292.132531 210.0519 
L 292.398566 189.346871 
L 292.79762 224.43486 
L 292.930637 229.389996 
L 293.063655 240.988833 
L 293.329691 319.245804 
L 293.462708 338.111504 
L 293.595726 208.473895 
L 293.728744 203.51876 
L 293.994779 180.4618 
L 294.393833 224.012719 
L 294.52685 248.014472 
L 294.659868 228.083368 
L 294.792886 246.949067 
L 295.058921 229.108568 
L 295.191939 231.158969 
L 295.324957 229.882494 
L 295.457975 217.117743 
L 295.590993 227.460207 
L 295.72401 228.937701 
L 295.857028 250.557371 
L 295.990046 296.028028 
L 296.256081 284.41914 
L 296.389099 262.729114 
L 296.522117 283.856285 
L 296.655135 264.990586 
L 296.92117 285.856431 
L 297.054188 285.042301 
L 297.187206 304.973405 
L 297.453241 274.719939 
L 297.586259 264.658903 
L 297.719277 283.19292 
L 297.985312 276.760289 
L 298.11833 261.030497 
L 298.251348 260.54805 
L 298.384365 236.546297 
L 298.517383 246.446518 
L 298.783419 217.107692 
L 298.916437 227.912501 
L 299.049454 251.914254 
L 299.182472 241.109445 
L 299.31549 262.980389 
L 299.448508 263.794518 
L 299.581525 253.894298 
L 299.714543 262.648706 
L 299.847561 261.834576 
L 300.113596 298.922712 
L 300.246614 298.440265 
L 300.379632 293.485129 
L 300.51265 315.175155 
L 300.645667 315.657602 
L 300.778685 305.596566 
L 300.911703 310.551702 
L 301.310756 275.926058 
L 301.443774 256.15577 
L 301.576792 263.191459 
L 301.709809 252.929403 
L 301.842827 266.578641 
L 302.108863 244.054383 
L 302.241881 233.732021 
L 302.374898 255.602965 
L 302.507916 241.390872 
L 302.773952 267.141497 
L 302.906969 271.714695 
L 303.173005 298.2895 
L 303.306023 309.094309 
L 303.43904 308.280179 
L 303.572058 303.325043 
L 303.705076 306.852939 
L 303.838094 317.195403 
L 303.971111 318.009533 
L 304.104129 314.481637 
L 304.237147 324.803999 
L 304.370165 221.7814 
L 304.503182 235.430638 
L 304.769218 191.658597 
L 305.035253 212.725462 
L 305.434307 262.769318 
L 305.700342 219.74105 
L 305.966378 254.065165 
L 306.631467 310.139611 
L 306.764484 290.097947 
L 306.897502 295.103338 
L 307.695609 233.701869 
L 307.828626 238.275067 
L 307.961644 226.98781 
L 308.094662 246.918914 
L 308.360697 222.464867 
L 308.493715 245.722847 
L 308.626733 247.200342 
L 309.025786 231.561009 
L 309.158804 230.646369 
L 309.291822 252.517313 
L 309.42484 253.331443 
L 309.690875 206.07171 
L 309.823893 227.761736 
L 309.956911 224.23384 
L 310.089928 229.188976 
L 310.222946 244.677544 
L 310.355964 225.811845 
L 310.488982 249.069825 
L 310.621999 247.59233 
L 310.888035 280.258032 
L 311.021053 260.326928 
L 311.420106 295.404867 
L 311.553124 306.209676 
L 311.686141 307.124316 
L 311.819159 311.697514 
L 311.952177 298.8021 
L 312.085195 300.279595 
L 312.35123 258.155916 
L 312.484248 257.673468 
L 312.883301 291.35432 
L 313.149337 322.87421 
L 313.282355 312.531746 
L 313.415372 325.42716 
L 313.681408 290.168304 
L 313.814426 285.213168 
L 314.080461 250.44681 
L 314.479514 300.53087 
L 314.612532 246.054529 
L 314.74555 249.582425 
L 314.878568 229.651321 
L 315.011585 251.522265 
L 315.144603 231.751977 
L 315.277621 241.652198 
L 315.543656 272.388111 
L 315.676674 262.045647 
L 315.94271 303.505961 
L 316.075727 303.023514 
L 316.208745 313.345876 
L 316.341763 291.65585 
L 316.474781 288.127954 
L 316.740816 254.547612 
L 316.873834 255.030059 
L 317.13987 263.131153 
L 317.272887 251.532316 
L 317.405905 295.053083 
L 317.538923 283.765826 
L 317.671941 287.796271 
L 317.804958 298.118633 
L 318.204012 274.237492 
L 318.337029 275.714987 
L 318.603065 238.295169 
L 318.736083 258.065457 
L 318.8691 247.743095 
L 319.135136 245.35096 
L 319.401171 203.558964 
L 319.534189 225.24899 
L 319.667207 205.317886 
L 319.933243 234.174265 
L 320.06626 212.484239 
L 320.199278 211.670109 
L 320.598331 243.581987 
L 320.864367 232.79728 
L 320.997385 233.711919 
L 321.130402 219.54003 
L 321.26342 226.57572 
L 321.662473 182.71322 
L 321.928509 218.2133 
L 322.061527 205.317886 
L 322.194544 216.605143 
L 322.327562 205.317886 
L 322.593598 223.972515 
L 322.859633 265.593645 
L 322.992651 264.779515 
L 323.258687 299.324751 
L 323.524722 228.394948 
L 323.65774 212.90638 
L 323.790758 216.936825 
L 323.923775 195.065881 
L 324.056793 203.820289 
L 324.189811 195.065881 
L 324.455846 212.001791 
L 324.588864 199.106377 
L 324.721882 204.111768 
L 324.8549 203.629321 
L 324.987917 204.54396 
L 325.120935 224.475064 
L 325.253953 213.670255 
L 325.386971 214.152702 
L 325.519988 204.252482 
L 325.786024 228.736682 
L 325.919042 239.541491 
L 326.185077 219.188246 
L 326.318095 230.787083 
L 326.58413 213.609949 
L 326.850166 231.832385 
L 326.983184 242.154747 
L 327.116202 222.223643 
L 327.249219 233.5109 
L 327.515255 277.001513 
L 327.648273 276.187383 
L 328.047326 241.280311 
L 328.180344 251.180532 
L 328.313361 250.265892 
L 328.712415 224.625829 
L 328.845432 238.837922 
L 329.111468 203.569015 
L 329.377503 223.972515 
L 329.510521 216.936825 
L 329.643539 217.750955 
L 329.776557 241.008935 
L 329.909574 230.666471 
L 330.042592 249.200488 
L 330.17561 225.198735 
L 330.308628 236.003544 
L 330.441646 217.469527 
L 330.574663 222.042726 
L 330.707681 210.755469 
L 330.840699 224.404707 
L 330.973717 201.146727 
L 331.505788 263.714111 
L 331.771823 237.169458 
L 332.170876 291.45483 
L 332.303894 271.523726 
L 332.436912 275.061673 
L 332.56993 261.412435 
L 332.702947 283.283379 
L 332.835965 273.021323 
L 332.968983 273.835453 
L 333.235018 300.922858 
L 333.368036 282.388841 
L 333.634072 296.480323 
L 334.166143 242.205002 
L 334.299161 261.070701 
L 334.432178 252.316293 
L 334.565196 256.889492 
L 334.698214 276.65978 
L 334.964249 262.568298 
L 335.097267 259.040402 
L 335.230285 271.935816 
L 335.363303 271.121687 
L 335.49632 281.926496 
L 335.762356 251.190583 
L 336.028391 234.897936 
L 336.161409 245.2404 
L 336.294427 245.722847 
L 336.427445 241.149649 
L 336.560462 241.963778 
L 336.826498 277.624674 
L 336.959516 255.934648 
L 337.092534 257.412143 
L 337.358569 225.651029 
L 337.491587 229.681474 
L 337.624605 240.003836 
L 338.023658 290.650751 
L 338.156676 301.938008 
L 338.422711 231.751977 
L 338.821764 262.779369 
L 338.954782 257.824233 
L 339.0878 269.42307 
L 339.220818 264.849872 
L 339.353835 286.720816 
L 339.486853 287.534946 
L 339.619871 300.43036 
L 339.885906 276.730136 
L 340.018924 289.625551 
L 340.151942 282.589861 
L 340.28496 293.877117 
L 340.417977 288.871727 
L 340.817031 236.697062 
L 341.216084 206.001353 
L 341.48212 234.576304 
L 341.615137 221.68089 
L 341.881173 259.040402 
L 342.147208 222.957365 
L 342.413244 241.591892 
L 342.812297 295.414918 
L 342.945315 281.243029 
L 343.078333 301.013317 
L 343.21135 289.72606 
L 343.344368 300.53087 
L 343.477386 278.840843 
L 343.610404 280.318338 
L 343.876439 312.330726 
L 344.142475 220.082783 
L 344.275493 209.74032 
L 344.674546 237.862976 
L 344.807564 224.213738 
L 344.940581 239.702307 
L 345.073599 238.787667 
L 345.206617 223.299099 
L 345.339635 224.213738 
L 345.472652 210.001645 
L 345.60567 220.263701 
L 345.738688 210.001645 
L 346.004723 244.32576 
L 346.137741 235.571352 
L 346.270759 257.261378 
L 346.403777 234.003398 
L 346.536794 248.215491 
L 346.669812 235.320077 
L 346.80283 238.847973 
L 347.068865 213.348623 
L 347.201883 235.219567 
L 347.334901 211.217814 
L 347.600937 241.350668 
L 347.733954 221.309004 
L 347.866972 241.079292 
L 347.99999 237.551396 
L 348.133008 219.017379 
L 348.266025 232.666617 
L 348.399043 232.18417 
L 348.798096 282.4793 
L 349.064132 250.054822 
L 349.330167 287.524895 
L 349.463185 289.002389 
L 349.596203 279.102169 
L 349.729221 290.389425 
L 349.862238 285.384035 
L 350.128274 311.285424 
L 350.261292 235.299975 
L 350.394309 225.238939 
L 350.527327 232.274629 
L 350.660345 252.205732 
L 350.793363 245.170043 
L 350.92638 249.200488 
L 351.059398 236.305074 
L 351.192416 249.200488 
L 351.325434 229.269384 
L 351.591469 335.850032 
L 351.724487 312.592052 
L 351.857505 322.934516 
L 351.990523 318.361317 
L 352.12354 339.980987 
L 352.256558 206.604412 
L 352.522594 239.762613 
L 352.655611 241.240107 
L 352.788629 260.105807 
L 352.921647 236.847827 
L 353.054665 251.05992 
L 353.187682 249.582425 
L 353.3207 244.577035 
L 353.453718 268.578787 
L 353.586736 246.707843 
L 353.719753 257.050307 
L 353.852771 253.019862 
L 353.985789 263.342224 
L 354.118807 259.814328 
L 354.251824 286.771071 
L 354.51786 249.411558 
L 354.650878 244.456423 
L 354.783896 249.411558 
L 354.916913 248.496919 
L 355.182949 272.197142 
L 355.315967 267.242006 
L 355.448984 267.724454 
L 355.582002 279.01171 
L 355.71502 274.006319 
L 355.848038 263.20151 
L 356.114073 228.344693 
L 356.513126 244.476525 
L 356.646144 224.545421 
L 356.779162 225.359551 
L 357.311233 178.230481 
L 357.444251 156.540455 
L 357.710286 185.115406 
L 357.843304 184.200766 
L 357.976322 170.551528 
L 358.10934 171.466168 
L 358.242357 167.325162 
L 358.641411 213.328521 
L 358.774428 202.986058 
L 358.907446 213.047094 
L 359.040464 201.759837 
L 359.173482 201.27739 
L 359.439517 231.741926 
L 359.572535 253.61287 
L 359.83857 226.786791 
L 359.971588 248.657735 
L 360.104606 227.038065 
L 360.237624 232.043456 
L 360.370641 213.509439 
L 360.636677 246.215345 
L 360.769695 241.642147 
L 360.902712 232.887739 
L 361.301766 259.030351 
L 361.434783 247.431514 
L 361.700819 267.493281 
L 361.833837 256.206025 
L 361.966855 269.101439 
L 362.099872 247.230495 
L 362.23289 268.850164 
L 362.365908 249.984465 
L 362.764961 304.189428 
L 363.030997 265.724308 
L 363.297032 260.718917 
L 363.43005 285.866482 
L 363.563068 285.384035 
L 363.696085 266.850018 
L 363.829103 270.880463 
L 363.962121 280.941499 
L 364.095139 272.187091 
L 364.228156 285.836329 
L 364.361174 274.549073 
L 364.62721 307.526355 
L 365.026263 263.683958 
L 365.159281 260.156062 
L 365.425316 238.526341 
L 365.558334 251.421756 
L 365.82437 226.947606 
L 365.957387 227.761736 
L 366.090405 246.295753 
L 366.223423 236.234717 
L 366.356441 256.276381 
L 366.489458 234.405437 
L 366.755494 253.572666 
L 366.888512 262.327075 
L 367.021529 250.728238 
L 367.154547 260.990294 
L 367.287565 284.992046 
L 367.420583 283.514552 
L 367.686618 264.437781 
L 367.952654 224.213738 
L 368.218689 254.045063 
L 368.484725 229.319639 
L 368.617743 216.424225 
L 368.75076 232.154017 
L 368.883778 208.896037 
L 369.016796 213.469235 
L 369.282831 189.015188 
L 369.415849 210.634857 
L 369.548867 335.950542 
L 369.681885 325.608078 
L 369.814902 347.227747 
L 370.213956 311.868381 
L 370.346973 234.717018 
L 370.613009 274.941061 
L 370.746027 267.905371 
L 370.879044 268.820011 
L 371.012062 268.005881 
L 371.14508 244.004128 
L 371.411115 272.659487 
L 371.544133 258.487598 
L 371.677151 280.358542 
L 371.810169 270.297506 
L 372.076204 298.329704 
L 372.209222 309.134513 
L 372.475258 283.635163 
L 372.608275 282.720524 
L 373.007329 324.472316 
L 373.140346 320.441871 
L 373.273364 324.472316 
L 373.406382 302.78229 
L 373.5394 303.59642 
L 373.805435 276.629627 
L 374.071471 301.405305 
L 374.204488 296.399915 
L 374.337506 310.049153 
L 374.470524 294.319361 
L 374.869577 326.3418 
L 375.002595 315.999336 
L 375.26863 341.810266 
L 375.534666 301.65658 
L 375.667684 310.410988 
L 375.800702 296.76175 
L 375.933719 315.295767 
L 376.066737 316.210407 
L 376.199755 315.396277 
L 376.46579 293.746455 
L 376.598808 252.838944 
L 376.864844 250.54732 
L 376.997861 272.418264 
L 377.130879 265.382574 
L 377.263897 272.418264 
L 377.396915 273.232394 
L 377.66295 288.610401 
L 377.795968 287.796271 
L 377.928986 288.710911 
L 378.062003 312.712664 
L 378.195021 312.230216 
L 378.328039 305.194527 
L 378.461057 281.192774 
L 378.594074 292.791611 
L 378.86011 330.965253 
L 379.126146 344.895919 
L 379.259163 320.894166 
L 379.392181 340.664454 
L 379.525199 330.32199 
L 379.658217 308.631964 
L 379.924252 337.428037 
L 380.05727 332.854838 
L 380.323305 295.424969 
L 380.456323 302.460659 
L 380.589341 317.949227 
L 380.722359 310.913537 
L 380.855376 317.949227 
L 380.988394 296.078283 
L 381.121412 306.420747 
L 381.25443 296.158691 
L 381.520465 325.11558 
L 382.052536 304.591468 
L 382.318572 269.784906 
L 382.45159 280.589715 
L 382.584607 303.847695 
L 382.850643 276.740187 
L 382.983661 287.002243 
L 383.116678 311.003996 
L 383.249696 314.531892 
L 383.914785 219.952121 
L 384.18082 251.904203 
L 384.313838 252.818842 
L 384.579874 235.521097 
L 384.712891 239.048993 
L 384.845909 250.64783 
L 384.978927 245.692694 
L 385.244962 218.997277 
L 385.37798 207.710021 
L 385.510998 230.968001 
L 385.644016 226.394802 
L 385.910051 261.734066 
L 386.043069 260.256572 
L 386.176087 261.734066 
L 386.974193 326.894604 
L 387.373247 284.057305 
L 387.506264 283.574857 
L 387.639282 273.674637 
L 387.7723 280.710327 
L 388.038335 314.974135 
L 388.171353 293.284109 
L 388.304371 306.933347 
L 388.437389 305.455852 
L 388.570406 315.798316 
L 388.96946 261.683812 
L 389.368513 300.772093 
L 389.767566 355.992206 
L 389.900584 355.178076 
L 390.033602 336.64406 
L 390.16662 341.64945 
L 390.299637 342.131898 
L 390.432655 347.087033 
L 390.565673 347.901163 
L 390.698691 362.113256 
L 390.831708 338.111504 
L 390.964726 346.865912 
L 391.230762 321.366562 
L 391.629815 313.325774 
L 392.028868 282.318484 
L 392.161886 281.504354 
L 392.294904 282.981849 
L 392.560939 242.245206 
L 392.693957 237.239815 
L 392.826975 247.582279 
L 392.959993 267.352567 
L 393.09301 244.094587 
L 393.226028 262.960287 
L 393.625081 233.933041 
L 393.758099 312.652358 
L 393.891117 294.118341 
L 394.157152 326.784043 
L 394.423188 355.911798 
L 394.556206 334.292129 
L 394.689223 354.333794 
L 394.822241 335.468094 
L 394.955259 345.810558 
L 395.354312 295.73655 
L 395.48733 291.706105 
L 395.886383 250.587524 
L 396.019401 269.453223 
L 396.152419 268.639093 
L 396.418454 247.954166 
L 396.551472 267.885269 
L 396.817508 247.220444 
L 397.083543 202.09152 
L 397.349579 227.992909 
L 397.482596 229.470404 
L 397.748632 196.392611 
L 397.88165 191.437475 
L 398.014667 201.498512 
L 398.280703 231.16902 
L 398.413721 216.997131 
L 398.812774 271.393063 
L 398.945792 270.910616 
L 399.078809 281.172672 
L 399.211827 281.655119 
L 399.344845 259.965093 
L 399.477863 271.252349 
L 399.743898 262.216514 
L 399.876916 283.90654 
L 400.142952 260.95009 
L 400.275969 269.704498 
L 400.408987 247.833554 
L 400.542005 248.647684 
L 400.675023 247.833554 
L 400.80804 228.967854 
L 401.074076 248.728091 
L 401.207094 245.200196 
L 401.473129 257.241276 
L 401.606147 237.310172 
L 401.739165 309.275227 
L 402.0052 281.413896 
L 402.271236 308.219873 
L 402.404253 321.869111 
L 402.537271 311.526647 
L 402.803307 330.623519 
L 403.335378 282.599912 
L 403.601413 246.808353 
L 403.734431 239.772664 
L 403.867449 226.123426 
L 404.000467 230.153871 
L 404.266502 258.80923 
L 404.532538 284.801078 
L 404.665555 283.886438 
L 404.798573 284.368885 
L 404.931591 271.473471 
L 405.330644 303.777338 
L 405.59668 265.473033 
L 405.862715 295.575734 
L 405.995733 285.675513 
L 406.128751 299.887607 
L 406.261768 299.405159 
L 406.394786 313.577048 
L 406.79384 267.342516 
L 406.926857 260.306827 
L 407.059875 279.172526 
L 407.192893 267.412873 
L 407.325911 276.167281 
L 407.591946 260.156062 
L 407.724964 280.197726 
L 407.990999 235.068803 
L 408.124017 239.642001 
L 408.257035 225.992763 
L 408.390053 247.612432 
L 408.656088 224.716288 
L 408.789106 321.869111 
L 409.188159 278.680028 
L 409.321177 254.678275 
L 409.454195 274.719939 
L 409.587212 274.237492 
L 409.72023 288.409381 
L 409.853248 289.223511 
L 410.119283 264.709158 
L 410.518337 310.400937 
L 410.651355 306.873041 
L 411.050408 257.040256 
L 411.316443 295.615938 
L 411.449461 295.13349 
L 411.582479 315.064594 
L 411.715497 315.979234 
L 411.848514 308.943544 
L 412.11455 310.903486 
L 412.247568 310.421039 
L 412.380585 290.489935 
L 412.513603 304.139173 
L 412.646621 284.368885 
L 413.178692 347.35841 
L 413.444727 315.416379 
L 413.577745 301.204286 
L 413.843781 324.502469 
L 413.976799 319.929271 
L 414.242834 329.50786 
L 414.375852 343.719953 
L 414.641887 328.59322 
L 414.774905 327.678581 
L 415.040941 368.234306 
L 415.173958 369.148946 
L 415.306976 350.614929 
L 415.439994 364.786818 
L 415.573012 359.781428 
L 415.706029 338.091402 
L 415.839047 359.781428 
L 415.972065 346.886014 
L 416.105083 350.413909 
L 416.2381 340.071446 
L 416.371118 344.101891 
L 416.504136 320.100138 
L 416.637154 318.622643 
L 416.770171 295.364663 
L 417.036207 319.547334 
L 417.169225 304.058765 
L 417.302243 327.316745 
L 417.43526 322.743547 
L 417.701296 294.882216 
L 417.834314 301.917906 
L 417.967331 282.147618 
L 418.233367 322.301304 
L 418.366385 300.43036 
L 418.499402 310.752722 
L 418.765438 215.901574 
L 419.031473 187.326622 
L 419.297509 230.194075 
L 419.430527 229.379945 
L 419.563544 242.275359 
L 419.696562 228.626121 
L 419.82958 229.440251 
L 419.962598 210.574551 
L 420.228633 240.395825 
L 420.361651 218.524881 
L 420.494669 222.555326 
L 420.627686 212.212862 
L 420.760704 235.470842 
L 420.893722 224.183585 
L 421.02674 200.181833 
L 421.159758 203.709728 
L 421.292775 200.181833 
L 421.425793 221.871859 
L 421.558811 208.976445 
L 421.691829 212.504341 
L 421.824846 193.970324 
L 421.957864 201.006013 
L 422.090882 221.047678 
L 422.2239 201.006013 
L 422.356917 205.961149 
L 422.489935 205.147019 
L 422.622953 215.489483 
L 422.755971 210.534347 
L 423.022006 235.470842 
L 423.155024 230.465451 
L 423.421059 205.217376 
L 423.687095 239.11935 
L 423.820113 239.933479 
L 423.95313 255.663271 
L 424.086148 251.632826 
L 424.219166 273.252496 
L 424.352184 269.7246 
L 424.485202 254.236031 
L 424.618219 259.191167 
L 424.751237 269.995976 
L 424.884255 254.266184 
L 425.15029 315.577195 
L 425.283308 322.612884 
L 425.416326 304.078867 
L 425.549344 314.421331 
L 425.682361 310.390886 
L 425.815379 332.080912 
L 425.948397 214.504487 
L 426.214432 223.500118 
L 426.34745 238.988687 
L 426.480468 228.183878 
L 426.746503 338.171809 
L 426.879521 353.660378 
L 427.278574 300.953011 
L 427.411592 296.379813 
L 427.810646 305.415648 
L 427.943663 291.243759 
L 428.209699 327.075522 
L 428.475734 305.134221 
L 428.74177 264.709158 
L 428.874788 286.399184 
L 429.007805 285.585054 
L 429.140823 304.450754 
L 429.273841 294.550533 
L 429.539876 253.090219 
L 429.672894 258.09561 
L 429.805912 268.417972 
L 429.93893 245.159992 
L 430.204965 273.885708 
L 430.604018 298.239245 
L 430.737036 294.2088 
L 431.003072 313.768017 
L 431.136089 308.812881 
L 431.269107 312.843327 
L 431.402125 312.360879 
L 431.535143 313.838374 
L 431.668161 312.360879 
L 431.801178 293.826862 
L 431.934196 313.757966 
L 432.200232 292.550387 
L 432.466267 316.099846 
L 432.599285 305.757382 
L 432.732303 312.793072 
L 432.86532 336.051052 
L 433.264374 301.666631 
L 433.397391 321.436919 
L 433.530409 301.666631 
L 433.663427 302.149078 
L 433.796445 316.320967 
L 433.929462 293.062988 
L 434.06248 292.58054 
L 434.195498 272.649436 
L 434.328516 286.86153 
L 435.126622 212.60485 
L 435.392658 243.933772 
L 435.525676 248.939162 
L 435.791711 218.786206 
L 436.323782 264.618699 
L 436.589818 296.389864 
L 436.722835 301.344999 
L 436.855853 290.057743 
L 437.121889 317.919074 
L 437.254906 307.596712 
L 437.387924 327.367 
L 437.65396 303.134075 
L 437.786977 298.178939 
L 438.053013 228.475356 
L 438.186031 226.997861 
L 438.319049 238.596698 
L 438.452066 227.309442 
L 438.718102 247.351107 
L 438.85112 263.080898 
L 438.984137 262.166259 
L 439.117155 243.632242 
L 439.250173 265.503186 
L 439.383191 246.637487 
L 439.516208 251.210685 
L 439.649226 261.472741 
L 439.782244 280.33844 
L 440.048279 261.26167 
L 440.314315 266.206755 
L 440.58035 229.098517 
L 440.713368 239.903326 
L 440.846386 239.089197 
L 441.245439 201.729684 
L 441.378457 182.863985 
L 441.644492 226.796842 
L 441.77751 225.882202 
L 441.910528 230.887593 
L 442.043546 315.697806 
L 442.176564 314.783167 
L 442.309581 293.09314 
L 442.442599 303.154177 
L 442.575617 292.831815 
L 442.708635 303.636624 
L 442.841652 296.600934 
L 443.107688 334.774576 
L 443.506741 361.208668 
L 443.772777 334.432843 
L 443.905794 339.387979 
L 444.038812 361.258923 
L 444.17183 360.444793 
L 444.437865 326.502616 
L 444.570883 341.991184 
L 444.703901 342.805314 
L 444.836919 362.736417 
L 444.969936 183.848982 
L 445.235972 171.807901 
L 445.502008 192.211401 
L 445.635025 188.180956 
L 445.901061 207.19742 
L 446.167096 247.170189 
L 446.699167 164.169152 
L 446.832185 177.81839 
L 446.965203 167.556334 
L 447.098221 178.743081 
L 447.231238 200.36275 
L 447.497274 164.460631 
L 447.630292 154.118167 
L 448.029345 206.453647 
L 448.162363 202.925752 
L 448.29538 188.753862 
L 448.428398 193.759253 
L 448.694434 181.718173 
L 448.827452 181.235725 
L 448.960469 201.166829 
L 449.093487 201.980959 
L 449.226505 180.110015 
L 450.157629 288.198311 
L 450.822718 219.379215 
L 451.088753 227.982858 
L 451.221771 208.051754 
L 451.354789 228.093419 
L 451.620824 184.793774 
L 451.753842 195.266901 
L 451.88686 196.744396 
L 452.152896 191.236456 
L 452.285913 200.322546 
L 452.551949 234.907987 
L 452.684967 225.007766 
L 452.951002 251.813744 
L 453.08402 244.778054 
L 453.350055 273.543974 
L 453.483073 277.574419 
L 453.616091 259.040402 
L 453.749109 260.517897 
L 453.882126 251.763489 
L 454.015144 230.073463 
L 454.28118 255.050161 
L 454.414197 241.400923 
L 454.680233 279.051914 
L 454.813251 286.087604 
L 454.946268 274.800347 
L 455.079286 289.01244 
L 455.212304 289.494888 
L 455.345322 288.017393 
L 455.611357 273.121833 
L 455.744375 296.379813 
L 455.877393 274.760143 
L 456.276446 307.023806 
L 456.409464 292.851917 
L 456.675499 311.667361 
L 456.808517 331.709026 
L 456.941535 317.496933 
L 457.20757 353.399052 
L 457.340588 354.876547 
L 457.473606 346.122139 
L 457.606624 366.053243 
L 457.739641 365.239113 
L 457.872659 345.308009 
L 458.005677 360.796577 
L 458.40473 315.215359 
L 458.537748 336.835028 
L 458.670766 337.649158 
L 458.803783 337.166711 
L 459.069819 323.236045 
L 459.468872 377.189734 
L 459.60189 376.375604 
L 459.867926 355.228331 
L 460.000943 363.98274 
L 460.133961 383.753028 
L 460.266979 362.133358 
L 460.399997 362.133358 
L 460.533014 361.218719 
L 460.666032 348.323305 
L 460.79905 358.585361 
L 461.065085 323.085281 
L 461.198103 327.658479 
L 461.331121 305.787535 
L 461.464139 327.658479 
L 461.597156 317.597443 
L 461.730174 297.555778 
L 461.863192 307.898242 
L 461.99621 308.812881 
L 462.129227 318.873918 
L 462.395263 292.429775 
L 462.528281 273.895759 
L 462.661299 278.901149 
L 462.927334 245.381113 
L 463.060352 268.639093 
L 463.19337 259.884685 
L 463.326387 286.700714 
L 463.459405 287.615354 
L 463.592423 278.860945 
L 463.725441 302.118925 
L 463.858458 280.247981 
L 463.991476 276.720085 
L 464.124494 280.247981 
L 464.523547 226.686281 
L 464.656565 213.790867 
L 464.789583 218.796257 
L 465.055618 181.446796 
L 465.454671 224.384605 
L 465.720707 213.31847 
L 465.853725 223.660934 
L 465.986742 209.489045 
L 466.11976 213.51949 
L 466.252778 194.985473 
L 466.385796 194.503026 
L 466.518814 190.472581 
L 466.651831 200.533617 
L 466.917867 169.476073 
L 467.183902 185.26617 
L 467.31692 174.461361 
L 467.449938 185.748618 
L 467.582956 187.226113 
L 467.715973 183.698217 
L 467.982009 212.49429 
L 468.115027 207.488899 
L 468.647098 284.951842 
L 468.913133 246.647538 
L 469.046151 265.181554 
L 469.312186 248.084828 
L 469.445204 263.81462 
L 469.578222 249.602527 
L 469.71124 263.774416 
L 469.977275 243.551834 
L 470.110293 253.452055 
L 470.376329 303.475808 
L 470.509346 243.109591 
L 470.642364 253.9144 
L 470.9084 228.284387 
L 471.041417 226.806893 
L 471.440471 274.327951 
L 471.706506 302.953157 
L 471.839524 281.263131 
L 471.972542 284.791027 
L 472.105559 283.876387 
L 472.238577 303.807491 
L 472.371595 279.805738 
L 472.504613 280.288185 
L 472.63763 290.610547 
L 472.770648 310.380835 
L 472.903666 311.85833 
L 473.036684 234.727069 
L 473.435737 282.640116 
L 473.568755 292.902172 
L 473.701773 271.212146 
L 473.967808 299.897658 
L 474.233844 272.609232 
L 474.366861 282.931594 
L 474.632897 317.517035 
L 474.765915 328.804291 
L 475.03195 331.095916 
L 475.297986 305.847841 
L 475.431003 324.381858 
L 475.564021 222.203541 
L 475.697039 237.69211 
L 475.830057 239.169604 
L 475.963074 235.641709 
L 476.096092 251.371501 
L 476.362128 242.767857 
L 476.495145 227.038065 
L 476.761181 261.623506 
L 477.027217 286.157961 
L 477.293252 333.417693 
L 477.42627 321.818856 
L 477.559288 326.824247 
L 477.825323 294.158545 
L 477.958341 285.404137 
L 478.224376 292.962478 
L 478.357394 287.957087 
L 478.756447 248.657735 
L 478.889465 255.693424 
L 479.022483 248.657735 
L 479.155501 249.471864 
L 479.288518 227.781838 
L 479.820589 254.738581 
L 480.219643 312.973989 
L 480.352661 305.9383 
L 480.485678 240.647099 
L 480.618696 262.518043 
L 480.751714 263.000491 
L 480.884732 258.970045 
L 481.150767 230.204126 
L 481.416803 273.50377 
L 481.815856 221.329106 
L 481.948874 225.359551 
L 482.081891 221.329106 
L 482.214909 232.133915 
L 482.613962 216.343817 
L 482.879998 171.466168 
L 483.013016 181.808632 
L 483.146033 166.07884 
L 483.412069 191.919923 
L 483.678105 215.992032 
L 483.811122 217.469527 
L 483.94414 237.511192 
L 484.077158 224.615778 
L 484.210176 223.138283 
L 484.343193 231.892691 
L 484.476211 220.293854 
L 484.609229 234.505947 
L 484.742247 234.505947 
L 484.875264 223.218691 
L 485.008282 256.015056 
L 485.1413 245.210247 
L 485.274318 223.590577 
L 485.407335 227.118473 
L 485.540353 223.590577 
L 485.939406 234.646661 
L 486.072424 230.073463 
L 486.33846 201.68948 
L 486.471477 213.288317 
L 486.604495 211.810823 
L 486.870531 226.625975 
L 487.136566 211.559548 
L 487.269584 234.817528 
L 487.402602 223.530271 
L 487.53562 200.272292 
L 487.801655 227.28934 
L 487.934673 250.54732 
L 488.067691 296.038079 
L 488.466744 285.695615 
L 488.599762 266.829916 
L 488.865797 297.294452 
L 488.998815 278.760435 
L 489.26485 294.62089 
L 489.397868 251.964509 
L 489.530886 248.436613 
L 489.663904 253.009811 
L 489.929939 286.992192 
L 490.062957 286.077553 
L 490.195975 270.347761 
L 490.328992 269.533631 
L 490.595028 240.65715 
L 490.728046 230.75693 
L 491.127099 266.789712 
L 491.260117 267.603842 
L 491.393135 286.469541 
L 491.526152 287.384181 
L 491.65917 287.384181 
L 491.792188 290.912077 
L 492.457277 216.333766 
L 492.590294 225.088174 
L 492.723312 214.826118 
L 492.85633 216.303613 
L 493.122365 240.737558 
L 493.255383 231.98315 
L 493.787454 266.297214 
L 493.920472 252.125325 
L 494.186508 290.590445 
L 494.319525 275.101877 
L 494.452543 290.590445 
L 494.585561 286.56 
L 494.718579 297.847257 
L 494.851596 273.845504 
L 494.984614 278.850894 
L 495.25065 239.94353 
L 495.383667 248.697939 
L 495.516685 248.215491 
L 495.649703 262.427584 
L 495.782721 253.673176 
L 495.915738 253.673176 
L 496.048756 254.155624 
L 496.181774 250.627728 
L 496.314792 240.566691 
L 496.447809 217.308712 
L 496.580827 216.394072 
L 496.713845 216.394072 
L 496.97988 246.295753 
L 497.112898 232.123864 
L 497.245916 250.989563 
L 497.511952 225.178633 
L 497.644969 223.701138 
L 497.911005 185.236018 
L 498.044023 193.990426 
L 498.310058 234.395386 
L 498.443076 312.190012 
L 498.576094 313.004142 
L 498.709111 233.581257 
L 498.842129 244.386066 
L 498.975147 266.005735 
L 499.108165 247.140036 
L 499.241182 299.445363 
L 499.3742 304.450754 
L 499.507218 302.973259 
L 499.640236 299.445363 
L 499.773253 275.44361 
L 499.906271 278.971506 
L 500.039289 275.44361 
L 500.305324 296.510475 
L 500.57136 330.774284 
L 500.704378 317.87887 
L 500.837395 319.356365 
L 500.970413 303.626573 
L 501.236449 332.010555 
L 501.369467 321.949519 
L 501.502484 343.569189 
L 501.635502 324.703489 
L 501.76852 323.788849 
L 501.901538 305.254833 
L 502.034555 305.73728 
L 502.167573 309.265176 
L 502.433609 282.569759 
L 502.566626 279.041863 
L 502.96568 237.39058 
L 503.231715 264.498087 
L 503.364733 259.542952 
L 503.497751 264.498087 
L 503.630768 275.785344 
L 503.896804 245.95402 
L 504.029822 256.015056 
L 504.162839 241.802963 
L 504.295857 245.833408 
L 504.428875 241.802963 
L 504.561893 263.422632 
L 504.694911 258.467496 
L 504.960946 231.842436 
L 505.226982 257.090511 
L 505.359999 233.088758 
L 505.759053 297.736696 
L 505.89207 277.966408 
L 506.025088 297.897511 
L 506.158106 298.711641 
L 506.291124 247.873758 
L 506.424141 259.472595 
L 506.690177 297.37486 
L 506.823195 293.846964 
L 506.956212 275.312948 
L 507.08923 293.846964 
L 507.222248 278.117172 
L 507.355266 293.605741 
L 507.488283 271.734797 
L 508.020355 322.230947 
L 508.153372 323.708442 
L 508.28639 322.793802 
L 508.419408 303.023514 
L 508.552426 303.938154 
L 508.685443 307.466049 
L 508.818461 306.55141 
L 509.217514 263.945283 
L 509.350532 282.640116 
L 509.48355 278.066917 
L 509.882603 317.014485 
L 510.281656 251.371501 
L 510.414674 250.889053 
L 510.547692 236.717164 
L 510.68071 258.588108 
L 510.946745 237.883078 
L 511.079763 248.20544 
L 511.212781 232.475648 
L 511.345798 241.230056 
L 511.478816 240.315417 
L 511.611834 250.577473 
L 511.744852 231.711773 
L 511.87787 236.284972 
L 512.143905 286.298674 
L 512.409941 254.929549 
L 512.542958 266.528386 
L 512.675976 265.613747 
L 512.808994 274.368155 
L 513.075029 232.244476 
L 513.208047 231.762028 
L 513.341065 231.762028 
L 513.474083 251.532316 
L 513.6071 238.636902 
L 513.740118 237.822772 
L 513.873136 238.30522 
L 514.006154 228.244184 
L 514.139171 248.175287 
L 514.272189 236.888031 
L 514.405207 237.802671 
L 514.538225 252.014764 
L 514.80426 216.745856 
L 515.070296 240.285264 
L 515.203314 241.099394 
L 515.336331 245.129839 
L 515.469349 229.400047 
L 515.602367 251.270991 
L 515.735385 249.793496 
L 515.868402 251.270991 
L 516.00142 295.314408 
L 516.134438 273.694739 
L 516.400473 297.183891 
L 516.533491 305.9383 
L 516.666509 290.208508 
L 516.799527 290.690955 
L 516.932544 255.894444 
L 517.065562 255.894444 
L 517.19858 267.1817 
L 517.331598 245.562031 
L 517.464615 258.457445 
L 517.597633 258.939893 
L 517.996686 227.882348 
L 518.129704 236.636756 
L 518.262722 235.822626 
L 518.39574 239.350522 
L 518.528758 235.320077 
L 518.661775 253.854094 
L 518.794793 231.98315 
L 518.927811 236.013595 
L 519.060829 214.323569 
L 519.193846 210.795673 
L 519.459882 240.948629 
L 519.5929 251.009665 
L 519.991953 216.263409 
L 520.124971 202.051316 
L 520.257988 344.534083 
L 520.391006 353.288491 
L 520.524024 337.799923 
L 521.056095 384.627463 
L 521.189113 364.585799 
L 521.32213 368.616244 
L 521.854202 296.369762 
L 521.987219 310.541651 
L 522.120237 296.329558 
L 522.253255 311.818126 
L 522.51929 289.756213 
L 522.652308 274.267645 
L 522.785326 298.269398 
L 522.918344 291.233708 
L 523.051361 292.148348 
L 523.317397 332.121116 
L 523.450415 214.464283 
L 523.583432 234.395386 
L 523.71645 220.746148 
L 523.849468 225.701284 
L 523.982486 238.596698 
L 524.115503 225.701284 
L 524.248521 235.96334 
L 524.381539 235.96334 
L 524.514557 236.77747 
L 524.647574 226.87725 
L 524.780592 226.87725 
L 524.91361 246.647538 
L 525.046628 241.692402 
L 525.179645 263.382428 
L 525.312663 262.568298 
L 525.445681 248.356205 
L 525.711717 281.956649 
L 525.844734 280.479154 
L 525.977752 294.651043 
L 526.11077 271.393063 
L 526.243788 275.423508 
L 526.376805 275.423508 
L 526.642841 295.806907 
L 526.775859 319.064886 
L 526.908876 319.547334 
L 527.440947 278.659926 
L 527.573965 292.872019 
L 527.706983 277.38345 
L 527.840001 282.338586 
L 528.106036 253.61287 
L 528.239054 275.302897 
L 528.372072 278.830792 
L 528.505089 259.965093 
L 528.638107 264.970484 
L 528.771125 259.965093 
L 528.904143 240.033989 
L 529.037161 240.033989 
L 529.170178 244.607188 
L 529.303196 264.648852 
L 529.436214 254.32649 
L 529.569232 278.328243 
L 529.702249 258.557955 
L 529.968285 287.746016 
L 530.101303 288.560146 
L 530.23432 298.90261 
L 530.500356 294.058035 
L 530.633374 313.828323 
L 530.766391 303.566267 
L 530.899409 284.700568 
L 531.032427 304.631672 
L 531.165445 284.590007 
L 531.298462 294.490227 
L 531.43148 283.685418 
L 531.564498 299.41521 
L 531.963551 267.855116 
L 532.096569 289.474786 
L 532.229587 273.744994 
L 532.495622 295.394816 
L 532.894676 256.839237 
L 533.027693 272.327805 
L 533.160711 272.327805 
L 533.293729 250.708136 
L 533.426747 270.478424 
L 533.559764 270.478424 
L 533.692782 284.127662 
L 533.8258 268.639093 
L 533.958818 273.644484 
L 534.091835 274.458614 
L 534.224853 265.704206 
L 534.357871 287.57515 
L 534.490889 265.704206 
L 534.756924 284.358834 
L 534.889942 274.01637 
L 535.02296 288.228464 
L 535.288995 271.252349 
L 535.422013 269.774855 
L 535.555031 291.464881 
L 535.688048 290.550241 
L 535.821066 291.464881 
L 535.954084 309.998898 
L 536.087102 291.464881 
L 536.22012 290.550241 
L 536.353137 290.550241 
L 536.486155 279.745432 
L 536.752191 247.79335 
L 536.885208 258.055406 
L 537.018226 238.013741 
L 537.151244 257.944845 
L 537.284262 247.682789 
L 537.417279 266.216806 
L 537.550297 253.321392 
L 537.683315 258.326782 
L 538.082368 285.966992 
L 538.215386 287.444487 
L 538.481421 251.36145 
L 538.614439 229.74178 
L 538.747457 252.99976 
L 538.880475 252.99976 
L 539.14651 217.338864 
L 539.279528 238.958534 
L 539.412546 238.958534 
L 539.545564 243.91367 
L 539.678581 233.852633 
L 539.944617 257.824233 
L 540.077635 279.514259 
L 540.210652 260.64856 
L 540.476688 260.64856 
L 540.742723 229.12867 
L 540.875741 229.12867 
L 541.008759 248.898958 
L 541.141777 249.813598 
L 541.407812 223.118181 
L 541.54083 211.519344 
L 541.673848 211.519344 
L 541.806865 207.488899 
L 542.205919 175.305644 
L 542.338936 184.060052 
L 542.604972 223.791597 
L 543.137043 186.48234 
L 543.270061 185.004845 
L 543.403079 206.694871 
L 543.536096 195.407615 
L 543.802132 150.459608 
L 543.93515 161.746865 
L 544.068167 152.298939 
L 544.201185 129.211826 
L 544.334203 151.08277 
L 544.467221 135.594201 
L 544.600238 159.595954 
L 544.733256 161.073449 
L 544.999292 152.972355 
L 545.132309 157.0028 
L 545.265327 176.773088 
L 545.531363 146.680438 
L 545.797398 146.680438 
L 546.063434 178.773234 
L 546.196451 182.30113 
L 546.329469 203.920799 
L 546.462487 342.6646 
L 546.595505 322.622935 
L 546.728523 321.808805 
L 546.86154 311.747769 
L 547.127576 325.598027 
L 547.393611 291.334218 
L 547.526629 296.289354 
L 547.792665 282.418994 
L 547.925682 283.333634 
L 548.0587 264.467934 
L 548.191718 274.528971 
L 548.324736 273.614331 
L 548.457753 275.091826 
L 548.590771 255.160722 
L 548.989824 305.546311 
L 549.122842 286.680612 
L 549.25586 286.680612 
L 549.388878 308.551556 
L 549.521895 309.466195 
L 549.654913 287.595252 
L 549.787931 288.409381 
L 549.920949 286.931887 
L 550.053967 273.282649 
L 550.186984 273.282649 
L 550.320002 289.01244 
L 550.719055 256.547758 
L 550.852073 275.081775 
L 550.985091 256.547758 
L 551.118109 260.075654 
L 551.251126 272.971068 
L 551.384144 273.614331 
L 551.517162 295.234 
L 551.65018 296.14864 
L 551.783197 285.886584 
L 551.916215 286.369031 
L 552.182251 306.953449 
L 552.315268 328.643475 
L 552.448286 318.582439 
L 552.581304 334.071007 
L 552.714322 323.266198 
L 552.847339 334.553455 
L 553.246393 290.208508 
L 553.379411 278.921251 
L 553.512428 278.006612 
L 553.645446 268.578787 
L 553.778464 248.808499 
L 554.044499 270.7498 
L 554.177517 247.49182 
L 554.310535 254.52751 
L 554.443553 255.009957 
L 554.709588 296.56073 
L 555.241659 250.376453 
L 555.374677 237.481039 
L 555.640712 264.498087 
L 555.77373 249.009519 
L 555.906748 249.009519 
L 556.172783 226.605873 
L 556.438819 268.729552 
L 556.571837 258.668516 
L 556.704855 258.668516 
L 556.837872 244.496627 
L 556.97089 257.392041 
L 557.103908 257.392041 
L 557.369943 276.951258 
L 557.768997 332.241728 
L 557.902014 321.899264 
L 558.035032 321.899264 
L 558.16805 308.250026 
L 558.301068 307.435896 
L 558.700121 278.09707 
L 558.833139 288.419432 
L 558.966156 278.09707 
L 559.099174 292.26896 
L 559.232192 254.316439 
L 559.36521 259.32183 
L 559.498227 258.839383 
L 559.631245 253.833992 
L 559.764263 243.491528 
L 560.030298 256.819135 
L 560.163316 245.220298 
L 560.296334 248.748193 
L 560.429352 228.706529 
L 560.56237 228.706529 
L 560.828405 219.720948 
L 560.961423 219.720948 
L 561.094441 231.008204 
L 561.227458 231.008204 
L 561.360476 252.627874 
L 561.759529 215.14775 
L 561.892547 215.630197 
L 562.025565 215.14775 
L 562.158583 215.14775 
L 562.2916 214.33362 
L 562.424618 214.33362 
L 562.690654 185.477241 
L 563.089707 218.846512 
L 563.222725 204.634419 
L 563.355742 205.549059 
L 563.48876 196.794651 
L 563.621778 208.393488 
L 563.887814 185.989841 
L 564.020831 197.277098 
L 564.153849 219.148042 
L 564.286867 207.860785 
L 564.419885 186.170759 
L 564.68592 203.548913 
L 564.951956 203.548913 
L 565.084973 188.060344 
L 565.217991 188.060344 
L 565.351009 198.382706 
L 565.484027 198.382706 
L 565.617044 207.137114 
L 565.750062 203.609219 
L 565.88308 208.564354 
L 566.016098 208.564354 
L 566.415151 234.495896 
L 566.548169 210.494144 
L 566.681186 230.535808 
L 566.814204 230.535808 
L 566.947222 225.580672 
L 567.08024 239.792766 
L 567.213258 235.76232 
L 567.346275 225.419857 
L 567.479293 235.76232 
L 567.612311 234.284826 
L 567.745329 238.858024 
L 568.144382 210.061951 
L 568.2774 210.061951 
L 568.410417 228.595968 
L 568.543435 218.253504 
L 568.676453 218.253504 
L 568.809471 228.153725 
L 568.942488 218.092688 
L 569.208524 188.150803 
L 569.341542 176.551966 
L 569.474559 186.814022 
L 569.607577 186.814022 
L 569.740595 164.943078 
L 570.00663 197.850004 
L 570.139648 199.327499 
L 570.272666 199.327499 
L 570.405684 185.678261 
L 570.538701 185.678261 
L 570.671719 164.058592 
L 570.804737 162.581097 
L 570.937755 144.04708 
L 571.070773 154.108116 
L 571.336808 132.980945 
L 571.602844 132.980945 
L 571.735861 127.875045 
L 572.001897 127.875045 
L 572.134915 138.679854 
L 572.40095 138.679854 
L 572.800003 179.496905 
L 573.066039 206.825534 
L 573.199057 184.95459 
L 573.332074 184.95459 
L 573.465092 185.437037 
L 573.59811 173.8382 
L 573.731128 173.8382 
L 573.864145 178.843591 
L 573.997163 177.928951 
L 574.130181 177.928951 
L 574.263199 163.716858 
L 574.529234 163.716858 
L 574.662252 164.631498 
L 574.79527 184.401786 
L 574.928288 184.401786 
L 575.061305 164.631498 
L 575.460359 196.161439 
L 575.593376 189.125749 
L 575.726394 196.161439 
L 575.859412 191.58824 
L 575.99243 195.618685 
L 576.125447 175.687582 
L 576.258465 175.687582 
L 576.391483 185.949637 
L 576.657518 169.395665 
L 576.790536 165.867769 
L 577.056572 179.456701 
L 577.189589 179.456701 
L 577.455625 165.696902 
L 577.588643 170.2701 
L 577.721661 169.787653 
L 577.854678 159.445189 
L 578.120714 189.145851 
L 578.253732 185.617955 
L 578.386749 185.617955 
L 578.519767 186.432085 
L 578.652785 189.959981 
L 578.785803 186.432085 
L 578.91882 175.144828 
L 579.184856 202.021163 
L 579.317874 221.952267 
L 579.450891 221.952267 
L 579.583909 221.138137 
L 579.716927 210.333328 
L 579.982962 172.732592 
L 580.248998 195.528226 
L 580.382016 196.010674 
L 580.515033 185.748618 
L 580.648051 165.817514 
L 580.914087 165.817514 
L 581.047104 176.139876 
L 581.180122 195.910164 
L 581.31314 195.910164 
L 581.446158 199.43806 
L 581.579176 194.432669 
L 581.845211 233.008351 
L 581.978229 222.947314 
L 582.111247 234.546151 
L 582.244264 215.680452 
L 582.377282 215.680452 
L 582.5103 220.635588 
L 582.776335 185.105355 
L 582.909353 185.105355 
L 583.042371 184.622907 
L 583.175389 173.02407 
L 583.308406 183.286126 
L 583.70746 185.577751 
L 583.840477 165.807463 
L 583.973495 165.807463 
L 584.239531 157.20382 
L 584.372548 161.777018 
L 584.638584 200.573821 
L 584.771602 200.573821 
L 584.90462 220.615486 
L 585.170655 195.045779 
L 585.303673 190.472581 
L 585.436691 202.071418 
L 585.569708 200.593923 
L 585.702726 200.593923 
L 585.835744 190.693703 
L 585.968762 190.693703 
L 586.101779 212.313372 
L 586.234797 211.499242 
L 586.367815 215.529687 
L 586.500833 215.529687 
L 586.766868 191.457577 
L 586.899886 201.518614 
L 587.032904 225.520367 
L 587.165921 225.520367 
L 587.298939 224.605727 
L 587.431957 225.088174 
L 587.564975 240.576742 
L 587.697992 240.576742 
L 587.83101 260.34703 
L 588.097046 237.048847 
L 588.230064 240.576742 
L 588.363081 240.576742 
L 588.496099 230.515706 
L 588.629117 240.415927 
L 588.762135 240.415927 
L 588.895152 244.446372 
L 589.02817 239.491236 
L 589.161188 239.491236 
L 589.693259 289.917029 
L 589.826277 268.046085 
L 589.959294 268.046085 
L 590.092312 278.539314 
L 590.22533 298.309602 
L 590.358348 288.047546 
L 590.491365 288.047546 
L 590.624383 306.581563 
L 590.757401 240.003836 
L 590.890419 240.003836 
L 591.023436 231.249428 
L 591.156454 249.783445 
L 591.289472 296.801954 
L 591.42249 296.801954 
L 591.688525 316.562191 
L 591.821543 316.562191 
L 592.752667 224.475064 
L 592.885685 225.289194 
L 593.284738 185.999892 
L 593.417756 190.955028 
L 593.683792 234.254673 
L 593.816809 222.655836 
L 593.949827 224.133331 
L 594.082845 219.178195 
L 594.215863 219.178195 
L 594.34888 232.827433 
L 594.614916 232.827433 
L 594.747934 222.927212 
L 594.880951 242.6975 
L 595.013969 242.6975 
L 595.146987 219.43952 
L 595.280005 218.625391 
L 595.54604 218.625391 
L 595.812076 183.125311 
L 595.945094 183.125311 
L 596.078111 179.597415 
L 596.211129 159.55575 
L 596.7432 159.55575 
L 597.009236 195.598583 
L 597.275271 195.598583 
L 597.408289 206.88584 
L 597.541307 196.985619 
L 597.674324 200.513515 
L 597.807342 216.002083 
L 597.94036 216.002083 
L 598.206395 192.563186 
L 598.339413 192.563186 
L 598.472431 174.029169 
L 598.605449 178.984305 
L 598.871484 178.984305 
L 599.004502 179.898944 
L 599.13752 184.904335 
L 599.270538 183.989695 
L 599.669591 215.519636 
L 599.935626 193.910018 
L 600.068644 212.444035 
L 600.201662 200.845198 
L 600.467697 200.845198 
L 600.600715 178.974254 
L 600.866751 210.745418 
L 600.999768 192.211401 
L 601.265804 192.211401 
L 601.398822 210.745418 
L 601.531839 205.740027 
L 601.664857 210.313226 
L 601.797875 209.830778 
L 602.063911 209.830778 
L 602.196928 210.313226 
L 602.462964 233.199319 
L 602.595982 233.199319 
L 602.728999 221.912063 
L 602.995035 221.912063 
L 603.128053 220.434568 
L 603.26107 224.465013 
L 603.527106 190.56304 
L 603.660124 178.964203 
L 603.793141 179.878842 
L 603.926159 179.878842 
L 604.059177 171.124434 
L 604.192195 152.590417 
L 604.591248 152.590417 
L 604.724266 162.912779 
L 604.990301 162.912779 
L 605.123319 159.384883 
L 605.256337 143.896315 
L 605.389354 143.413868 
L 605.921426 143.413868 
L 606.054443 154.701124 
L 606.187461 154.701124 
L 606.320479 148.147882 
L 606.453497 148.147882 
L 606.719532 170.541477 
L 606.85255 170.541477 
L 606.985568 180.803533 
L 607.384621 180.803533 
L 607.517639 167.908119 
L 607.783674 166.179349 
L 607.916692 166.993479 
L 608.04971 182.482048 
L 608.182727 182.482048 
L 608.581781 181.18547 
L 608.714798 181.667918 
L 608.847816 168.01868 
L 608.980834 167.536232 
L 609.113852 174.813146 
L 609.24687 174.813146 
L 609.379887 175.627276 
L 609.512905 175.627276 
L 609.645923 177.10477 
L 609.911958 159.746719 
L 610.177994 159.746719 
L 610.311012 163.93798 
L 610.444029 162.460485 
L 610.710065 162.460485 
L 610.843083 162.942932 
L 610.9761 154.158371 
L 611.109118 164.420427 
L 611.242136 154.158371 
L 611.508171 154.158371 
L 611.641189 162.912779 
L 611.774207 151.625523 
L 611.907225 151.625523 
L 612.040242 135.895731 
L 612.705331 135.895731 
L 612.838349 140.016635 
L 612.971367 151.615472 
L 613.104385 132.749772 
L 613.237402 132.749772 
L 613.37042 156.007752 
L 613.503438 145.745696 
L 613.636456 145.745696 
L 613.902491 137.142053 
L 614.168527 137.142053 
L 614.301544 147.404109 
L 614.434562 147.404109 
L 614.56758 145.926614 
L 614.833615 145.926614 
L 614.966633 161.123704 
L 615.099651 162.038344 
L 615.498704 162.038344 
L 615.631722 147.866454 
L 616.163793 147.866454 
L 616.296811 146.951815 
L 616.695864 146.951815 
L 616.828882 168.822759 
L 616.9619 157.223922 
L 617.493971 157.223922 
L 617.626988 177.155025 
L 617.893024 177.155025 
L 618.026042 161.425233 
L 618.159059 160.942786 
L 618.292077 171.054077 
L 618.558113 171.054077 
L 618.824148 178.42145 
L 618.957166 192.593339 
L 619.090184 178.42145 
L 619.223201 179.235579 
L 619.356219 179.235579 
L 619.622255 200.885402 
L 619.755273 200.885402 
L 619.88829 195.880011 
L 620.021308 174.009067 
L 620.154326 174.009067 
L 620.287344 169.435869 
L 620.420361 169.435869 
L 620.553379 164.480733 
L 620.819415 164.480733 
L 620.952432 169.486124 
L 621.08545 153.756332 
L 621.218468 163.656552 
L 621.351486 162.842422 
L 621.484503 184.462092 
L 621.617521 184.462092 
L 621.750539 194.724148 
L 621.883557 184.462092 
L 622.016574 184.462092 
L 622.149592 164.530988 
L 622.28261 166.229604 
L 622.415628 166.229604 
L 622.548645 171.18474 
L 622.681663 171.18474 
L 622.814681 167.656844 
L 623.745805 167.656844 
L 623.878823 187.587948 
L 624.144859 187.587948 
L 624.410894 188.884525 
L 624.543912 178.562163 
L 624.809947 178.562163 
L 625.075983 148.409208 
L 625.342018 170.018826 
L 625.475036 170.018826 
L 625.608054 170.933465 
L 626.539178 170.933465 
L 626.672196 162.179057 
L 626.938232 162.179057 
L 627.071249 157.173667 
L 627.337285 157.173667 
L 627.470303 167.496029 
L 627.736338 167.496029 
L 627.869356 167.747303 
L 628.002374 167.747303 
L 628.135391 170.360559 
L 628.268409 168.933319 
L 628.933498 168.933319 
L 629.066516 158.12851 
L 629.199533 177.898798 
L 629.465569 177.898798 
L 629.598587 179.376293 
L 629.731604 179.376293 
L 629.864622 190.181102 
L 629.99764 190.181102 
L 630.130658 178.893846 
L 630.263676 178.893846 
L 630.396693 164.681753 
L 630.795747 194.985473 
L 630.928764 194.985473 
L 631.061782 185.085253 
L 631.1948 163.214309 
L 631.460835 171.817952 
L 631.593853 171.003822 
L 631.992906 171.003822 
L 632.125924 151.233534 
L 632.258942 151.233534 
L 632.39196 146.660336 
L 632.524977 146.660336 
L 632.657995 147.142783 
L 632.924031 147.142783 
L 633.057048 146.660336 
L 633.988173 146.660336 
L 634.121191 151.886848 
L 634.520244 151.886848 
L 634.653262 152.700978 
L 634.786279 152.700978 
L 634.919297 141.896169 
L 635.052315 140.418674 
L 635.584386 140.418674 
L 635.717404 136.388229 
L 636.914564 136.388229 
L 637.180599 166.048687 
L 637.313617 166.048687 
L 637.446635 173.084376 
L 637.978706 173.084376 
L 638.111723 194.704046 
L 638.244741 181.808632 
L 639.308883 181.808632 
L 639.441901 161.877528 
L 639.574919 161.877528 
L 639.707936 147.705639 
L 639.840954 147.705639 
L 639.973972 137.383277 
L 640.10699 137.383277 
L 640.240007 138.860771 
L 641.038114 138.860771 
L 641.171132 139.343219 
L 641.437167 139.343219 
L 641.570185 132.307529 
L 642.900363 132.307529 
L 643.03338 124.337098 
L 643.299416 124.337098 
L 643.432434 128.367543 
L 643.565451 141.262957 
L 643.698469 140.78051 
L 644.23054 140.78051 
L 644.363558 134.920785 
L 644.629594 134.920785 
L 644.762611 134.006146 
L 644.895629 134.327777 
L 645.294682 134.327777 
L 645.4277 134.810224 
L 645.959771 134.810224 
L 646.092789 134.327777 
L 646.358824 134.327777 
L 646.491842 134.810224 
L 649.01918 134.810224 
L 649.152197 133.33273 
L 650.482375 133.33273 
L 650.615393 132.850282 
L 651.546517 132.850282 
L 651.679535 134.940887 
L 652.211606 134.940887 
L 652.344624 139.896023 
L 652.477641 139.896023 
L 652.610659 129.553559 
L 653.275748 129.553559 
L 653.408766 128.739429 
L 655.53705 128.739429 
L 655.670068 123.784294 
L 655.803085 125.261788 
L 656.73421 125.261788 
L 656.867227 125.744236 
L 657.133263 125.744236 
L 657.266281 120.738845 
L 657.399298 124.266741 
L 657.532316 123.784294 
L 657.798352 123.784294 
L 657.93137 124.698933 
L 658.330423 124.698933 
L 658.463441 111.049695 
L 658.596458 110.135056 
L 658.995512 110.135056 
L 659.128529 110.949185 
L 662.05492 110.949185 
L 662.187938 109.471691 
L 662.853027 109.471691 
L 662.986044 105.441245 
L 665.912435 105.441245 
L 666.045453 109.471691 
L 666.976577 109.471691 
L 667.109595 108.175113 
L 667.242613 108.175113 
L 667.37563 109.089753 
L 667.907701 109.089753 
L 668.040719 108.275623 
L 668.306755 108.275623 
L 668.439773 108.758071 
L 672.829359 108.758071 
L 672.962376 104.727626 
L 675.09066 104.727626 
L 675.223678 106.024203 
L 676.686874 106.024203 
L 676.819891 106.587058 
L 677.884033 106.587058 
L 678.017051 107.501697 
L 678.150069 103.973802 
L 678.549122 103.973802 
L 678.68214 104.787931 
L 679.214211 104.787931 
L 679.347229 103.310437 
L 684.401904 103.310437 
L 684.534921 108.265572 
L 692.116934 108.265572 
L 692.249951 101.732432 
L 693.713147 101.732432 
L 693.846165 96.777296 
L 695.442378 96.777296 
L 695.575395 88.887273 
L 698.767822 88.887273 
L 698.900839 90.364768 
L 706.482852 90.364768 
L 706.61587 88.887273 
L 871.690909 88.887273 
L 871.690909 88.887273 
" style="fill:none;stroke:#8dd3c7;stroke-linecap:square;stroke-width:1.5;"/>
   </g>
   <g id="line2d_17">
    <path clip-path="url(#p30669836cc)" d="M 161.509091 206.222475 
L 228.683059 206.222475 
L 228.816077 199.769742 
L 229.082113 167.556334 
L 229.348148 151.263687 
L 543.669114 151.263687 
L 543.802132 150.459608 
L 544.068167 150.459608 
L 544.201185 129.211826 
L 571.602844 129.211826 
L 571.735861 127.875045 
L 642.900363 127.875045 
L 643.03338 124.337098 
L 655.53705 124.337098 
L 655.670068 123.784294 
L 657.133263 123.784294 
L 657.266281 120.738845 
L 658.330423 120.738845 
L 658.463441 111.049695 
L 658.596458 110.135056 
L 662.05492 110.135056 
L 662.187938 109.471691 
L 662.853027 109.471691 
L 662.986044 105.441245 
L 672.829359 105.441245 
L 672.962376 104.727626 
L 678.017051 104.727626 
L 678.150069 103.973802 
L 679.214211 103.973802 
L 679.347229 103.310437 
L 692.116934 103.310437 
L 692.249951 101.732432 
L 693.713147 101.732432 
L 693.846165 96.777296 
L 695.442378 96.777296 
L 695.575395 88.887273 
L 871.690909 88.887273 
L 871.690909 88.887273 
" style="fill:none;stroke:#feffb3;stroke-linecap:square;stroke-width:1.5;"/>
   </g>
   <g id="line2d_18">
    <path clip-path="url(#p30669836cc)" d="M 161.509091 289.625551 
L 162.706251 289.625551 
L 162.839269 297.271205 
L 164.036428 297.271205 
L 164.169446 304.616479 
L 165.366606 304.616479 
L 165.499624 311.673175 
L 166.696784 311.673175 
L 166.829801 318.45263 
L 168.026961 318.45263 
L 168.159979 324.965737 
L 169.357139 324.965737 
L 169.490156 331.222959 
L 170.687316 331.222959 
L 170.820334 337.23435 
L 172.017494 337.23435 
L 172.150512 343.009567 
L 173.347672 343.009567 
L 173.480689 348.55789 
L 174.677849 348.55789 
L 174.810867 353.888232 
L 176.008027 353.888232 
L 176.141044 359.009158 
L 177.338204 359.009158 
L 177.471222 363.928895 
L 178.668382 363.928895 
L 178.8014 368.655347 
L 179.998559 368.655347 
L 180.131577 373.196108 
L 181.328737 373.196108 
L 181.461755 377.558473 
L 182.658915 377.558473 
L 182.791932 381.749451 
L 183.989092 381.749451 
L 184.12211 385.775776 
L 185.31927 385.775776 
L 185.452288 389.643916 
L 186.649447 389.643916 
L 186.782465 393.360086 
L 187.979625 393.360086 
L 188.112643 396.930256 
L 189.309803 396.930256 
L 189.44282 400.360163 
L 190.63998 400.360163 
L 190.772998 403.655317 
L 191.970158 403.655317 
L 192.103176 406.821012 
L 193.300335 406.821012 
L 193.433353 409.862335 
L 194.630513 409.862335 
L 194.763531 412.784171 
L 195.960691 412.784171 
L 196.093708 415.591215 
L 197.290868 415.591215 
L 197.423886 418.287977 
L 198.621046 418.287977 
L 198.754064 420.87879 
L 199.951223 420.87879 
L 200.084241 423.367816 
L 201.281401 423.367816 
L 201.414419 425.759054 
L 202.611579 425.759054 
L 202.744596 428.056346 
L 203.941756 428.056346 
L 204.074774 430.263382 
L 205.271934 430.263382 
L 205.404952 432.38371 
L 206.602111 432.38371 
L 206.735129 434.420735 
L 207.932289 434.420735 
L 208.065307 436.37773 
L 209.262467 436.37773 
L 209.395484 438.257839 
L 210.592644 438.257839 
L 210.725662 440.064083 
L 211.922822 440.064083 
L 212.05584 441.799364 
L 213.252999 441.799364 
L 213.386017 443.46647 
L 214.583177 443.46647 
L 214.716195 445.06808 
L 215.913355 445.06808 
L 216.046372 446.606766 
L 217.243532 446.606766 
L 217.37655 448.085001 
L 218.57371 448.085001 
L 218.706728 449.505159 
L 219.903887 449.505159 
L 220.036905 450.869523 
L 221.234065 450.869523 
L 221.367083 452.180284 
L 222.564243 452.180284 
L 222.69726 453.439548 
L 223.89442 453.439548 
L 224.027438 454.649339 
L 225.224598 454.649339 
L 225.357615 455.8116 
L 226.554775 455.8116 
L 226.687793 456.928199 
L 227.884953 456.928199 
L 228.017971 458.000929 
L 229.215131 458.000929 
L 229.348148 459.031514 
L 230.545308 459.031514 
L 230.678326 460.02161 
L 231.875486 460.02161 
L 232.008503 460.972807 
L 233.205663 460.972807 
L 233.338681 461.886634 
L 234.535841 461.886634 
L 234.668859 462.764559 
L 235.866018 462.764559 
L 235.999036 463.607993 
L 237.196196 463.607993 
L 237.329214 464.41829 
L 238.526374 464.41829 
L 238.659391 465.196752 
L 239.856551 465.196752 
L 239.989569 465.94463 
L 241.186729 465.94463 
L 241.319747 466.663126 
L 242.516906 466.663126 
L 242.649924 467.353394 
L 243.847084 467.353394 
L 243.980102 468.016543 
L 245.177262 468.016543 
L 245.310279 468.653638 
L 246.507439 468.653638 
L 246.640457 469.265704 
L 247.837617 469.265704 
L 247.970635 469.853723 
L 249.167794 469.853723 
L 249.300812 470.41864 
L 250.497972 470.41864 
L 250.63099 470.961362 
L 251.82815 470.961362 
L 251.961167 471.482763 
L 253.158327 471.482763 
L 253.291345 471.983679 
L 254.488505 471.983679 
L 254.621523 472.464915 
L 255.818682 472.464915 
L 255.9517 472.927244 
L 257.14886 472.927244 
L 257.281878 473.37141 
L 258.479038 473.37141 
L 258.612055 473.798125 
L 259.809215 473.798125 
L 259.942233 474.208076 
L 261.139393 474.208076 
L 261.272411 474.601921 
L 262.46957 474.601921 
L 262.602588 474.980292 
L 263.799748 474.980292 
L 263.932766 475.343798 
L 265.129926 475.343798 
L 265.262943 475.693023 
L 266.460103 475.693023 
L 266.593121 476.028528 
L 267.790281 476.028528 
L 267.923299 476.350851 
L 269.120458 476.350851 
L 269.253476 476.660512 
L 270.450636 476.660512 
L 270.583654 476.958006 
L 271.780814 476.958006 
L 271.913831 477.243813 
L 273.110991 477.243813 
L 273.244009 477.51839 
L 274.441169 477.51839 
L 274.574187 477.782181 
L 275.771346 477.782181 
L 275.904364 478.035608 
L 277.101524 478.035608 
L 277.234542 478.279078 
L 278.431702 478.279078 
L 278.564719 478.512982 
L 279.761879 478.512982 
L 279.894897 478.737698 
L 281.092057 478.737698 
L 281.225074 478.953584 
L 282.422234 478.953584 
L 282.555252 479.160989 
L 283.752412 479.160989 
L 284.018447 479.360246 
L 285.08259 479.360246 
L 285.348625 479.551674 
L 286.412767 479.551674 
L 286.678803 479.735582 
L 287.742945 479.735582 
L 288.00898 479.912264 
L 289.073122 479.912264 
L 289.339158 480.082004 
L 290.4033 480.082004 
L 290.669335 480.245077 
L 291.733477 480.245077 
L 291.999513 480.401742 
L 293.063655 480.401742 
L 293.329691 480.552252 
L 294.393833 480.552252 
L 294.659868 480.696849 
L 295.72401 480.696849 
L 295.990046 480.835766 
L 297.054188 480.835766 
L 297.320223 480.969224 
L 298.384365 480.969224 
L 298.650401 481.097439 
L 299.714543 481.097439 
L 299.980579 481.220617 
L 301.044721 481.220617 
L 301.310756 481.338956 
L 302.374898 481.338956 
L 302.640934 481.452646 
L 305.035253 481.561868 
L 305.301289 481.6668 
L 307.695609 481.767609 
L 307.961644 481.864458 
L 310.355964 481.957502 
L 310.621999 482.04689 
L 313.016319 482.132766 
L 313.282355 482.215269 
L 315.676674 482.29453 
L 315.94271 482.370677 
L 318.337029 482.443833 
L 318.603065 482.514114 
L 320.997385 482.581634 
L 321.26342 482.646502 
L 323.65774 482.708821 
L 324.056793 482.768691 
L 326.318095 482.82621 
L 326.717148 482.881469 
L 330.308628 482.985558 
L 330.707681 483.034557 
L 334.299161 483.126854 
L 334.698214 483.170301 
L 338.289693 483.252142 
L 338.821764 483.290667 
L 343.610404 483.397395 
L 344.142475 483.430214 
L 348.931114 483.521133 
L 349.596203 483.54909 
L 355.582002 483.650357 
L 356.247091 483.673237 
L 363.563068 483.774839 
L 364.494192 483.792828 
L 374.204488 483.900445 
L 375.401648 483.9135 
L 388.836442 484.018914 
L 390.831708 484.035385 
L 418.100349 484.144198 
L 422.755971 484.157312 
L 871.690909 484.232727 
L 871.690909 484.232727 
" style="fill:none;stroke:#bfbbd9;stroke-linecap:square;stroke-width:1.5;"/>
   </g>
   <g id="patch_3">
    <path d="M 126 504 
L 126 69.12 
" style="fill:none;stroke:#ffffff;stroke-linecap:square;stroke-linejoin:miter;stroke-width:0.8;"/>
   </g>
   <g id="patch_4">
    <path d="M 907.2 504 
L 907.2 69.12 
" style="fill:none;stroke:#ffffff;stroke-linecap:square;stroke-linejoin:miter;stroke-width:0.8;"/>
   </g>
   <g id="patch_5">
    <path d="M 126 504 
L 907.2 504 
" style="fill:none;stroke:#ffffff;stroke-linecap:square;stroke-linejoin:miter;stroke-width:0.8;"/>
   </g>
   <g id="patch_6">
    <path d="M 126 69.12 
L 907.2 69.12 
" style="fill:none;stroke:#ffffff;stroke-linecap:square;stroke-linejoin:miter;stroke-width:0.8;"/>
   </g>
   <g id="text_17">
    <!-- instance 10 with error 0.0 -->
    <g style="fill:#ffffff;" transform="translate(439.126875 63.12)scale(0.12 -0.12)">
     <defs>
      <path d="M 2834 3397 
L 2834 2853 
Q 2591 2978 2328 3040 
Q 2066 3103 1784 3103 
Q 1356 3103 1142 2972 
Q 928 2841 928 2578 
Q 928 2378 1081 2264 
Q 1234 2150 1697 2047 
L 1894 2003 
Q 2506 1872 2764 1633 
Q 3022 1394 3022 966 
Q 3022 478 2636 193 
Q 2250 -91 1575 -91 
Q 1294 -91 989 -36 
Q 684 19 347 128 
L 347 722 
Q 666 556 975 473 
Q 1284 391 1588 391 
Q 1994 391 2212 530 
Q 2431 669 2431 922 
Q 2431 1156 2273 1281 
Q 2116 1406 1581 1522 
L 1381 1569 
Q 847 1681 609 1914 
Q 372 2147 372 2553 
Q 372 3047 722 3315 
Q 1072 3584 1716 3584 
Q 2034 3584 2315 3537 
Q 2597 3491 2834 3397 
z
" id="DejaVuSans-73" transform="scale(0.015625)"/>
      <path d="M 3122 3366 
L 3122 2828 
Q 2878 2963 2633 3030 
Q 2388 3097 2138 3097 
Q 1578 3097 1268 2742 
Q 959 2388 959 1747 
Q 959 1106 1268 751 
Q 1578 397 2138 397 
Q 2388 397 2633 464 
Q 2878 531 3122 666 
L 3122 134 
Q 2881 22 2623 -34 
Q 2366 -91 2075 -91 
Q 1284 -91 818 406 
Q 353 903 353 1747 
Q 353 2603 823 3093 
Q 1294 3584 2113 3584 
Q 2378 3584 2631 3529 
Q 2884 3475 3122 3366 
z
" id="DejaVuSans-63" transform="scale(0.015625)"/>
      <path id="DejaVuSans-20" transform="scale(0.015625)"/>
      <path d="M 269 3500 
L 844 3500 
L 1563 769 
L 2278 3500 
L 2956 3500 
L 3675 769 
L 4391 3500 
L 4966 3500 
L 4050 0 
L 3372 0 
L 2619 2869 
L 1863 0 
L 1184 0 
L 269 3500 
z
" id="DejaVuSans-77" transform="scale(0.015625)"/>
      <path d="M 3513 2113 
L 3513 0 
L 2938 0 
L 2938 2094 
Q 2938 2591 2744 2837 
Q 2550 3084 2163 3084 
Q 1697 3084 1428 2787 
Q 1159 2491 1159 1978 
L 1159 0 
L 581 0 
L 581 4863 
L 1159 4863 
L 1159 2956 
Q 1366 3272 1645 3428 
Q 1925 3584 2291 3584 
Q 2894 3584 3203 3211 
Q 3513 2838 3513 2113 
z
" id="DejaVuSans-68" transform="scale(0.015625)"/>
      <path d="M 684 794 
L 1344 794 
L 1344 0 
L 684 0 
L 684 794 
z
" id="DejaVuSans-2e" transform="scale(0.015625)"/>
     </defs>
     <use xlink:href="#DejaVuSans-69"/>
     <use x="27.783203" xlink:href="#DejaVuSans-6e"/>
     <use x="91.162109" xlink:href="#DejaVuSans-73"/>
     <use x="143.261719" xlink:href="#DejaVuSans-74"/>
     <use x="182.470703" xlink:href="#DejaVuSans-61"/>
     <use x="243.75" xlink:href="#DejaVuSans-6e"/>
     <use x="307.128906" xlink:href="#DejaVuSans-63"/>
     <use x="362.109375" xlink:href="#DejaVuSans-65"/>
     <use x="423.632812" xlink:href="#DejaVuSans-20"/>
     <use x="455.419922" xlink:href="#DejaVuSans-31"/>
     <use x="519.042969" xlink:href="#DejaVuSans-30"/>
     <use x="582.666016" xlink:href="#DejaVuSans-20"/>
     <use x="614.453125" xlink:href="#DejaVuSans-77"/>
     <use x="696.240234" xlink:href="#DejaVuSans-69"/>
     <use x="724.023438" xlink:href="#DejaVuSans-74"/>
     <use x="763.232422" xlink:href="#DejaVuSans-68"/>
     <use x="826.611328" xlink:href="#DejaVuSans-20"/>
     <use x="858.398438" xlink:href="#DejaVuSans-65"/>
     <use x="919.921875" xlink:href="#DejaVuSans-72"/>
     <use x="959.285156" xlink:href="#DejaVuSans-72"/>
     <use x="998.148438" xlink:href="#DejaVuSans-6f"/>
     <use x="1059.330078" xlink:href="#DejaVuSans-72"/>
     <use x="1100.443359" xlink:href="#DejaVuSans-20"/>
     <use x="1132.230469" xlink:href="#DejaVuSans-30"/>
     <use x="1195.853516" xlink:href="#DejaVuSans-2e"/>
     <use x="1227.640625" xlink:href="#DejaVuSans-30"/>
    </g>
   </g>
   <g id="legend_1">
    <g id="patch_7">
     <path d="M 805.348438 499 
L 900.2 499 
Q 902.2 499 902.2 497 
L 902.2 453.965625 
Q 902.2 451.965625 900.2 451.965625 
L 805.348438 451.965625 
Q 803.348438 451.965625 803.348438 453.965625 
L 803.348438 497 
Q 803.348438 499 805.348438 499 
z
" style="opacity:0.8;stroke:#cccccc;stroke-linejoin:miter;"/>
    </g>
    <g id="line2d_19">
     <path d="M 807.348438 460.064062 
L 827.348438 460.064062 
" style="fill:none;stroke:#8dd3c7;stroke-linecap:square;stroke-width:1.5;"/>
    </g>
    <g id="line2d_20"/>
    <g id="text_18">
     <!-- cost -->
     <g style="fill:#ffffff;" transform="translate(835.348438 463.564062)scale(0.1 -0.1)">
      <use xlink:href="#DejaVuSans-63"/>
      <use x="54.980469" xlink:href="#DejaVuSans-6f"/>
      <use x="116.162109" xlink:href="#DejaVuSans-73"/>
      <use x="168.261719" xlink:href="#DejaVuSans-74"/>
     </g>
    </g>
    <g id="line2d_21">
     <path d="M 807.348438 474.742188 
L 827.348438 474.742188 
" style="fill:none;stroke:#feffb3;stroke-linecap:square;stroke-width:1.5;"/>
    </g>
    <g id="line2d_22"/>
    <g id="text_19">
     <!-- best cost -->
     <g style="fill:#ffffff;" transform="translate(835.348438 478.242188)scale(0.1 -0.1)">
      <defs>
       <path d="M 3116 1747 
Q 3116 2381 2855 2742 
Q 2594 3103 2138 3103 
Q 1681 3103 1420 2742 
Q 1159 2381 1159 1747 
Q 1159 1113 1420 752 
Q 1681 391 2138 391 
Q 2594 391 2855 752 
Q 3116 1113 3116 1747 
z
M 1159 2969 
Q 1341 3281 1617 3432 
Q 1894 3584 2278 3584 
Q 2916 3584 3314 3078 
Q 3713 2572 3713 1747 
Q 3713 922 3314 415 
Q 2916 -91 2278 -91 
Q 1894 -91 1617 61 
Q 1341 213 1159 525 
L 1159 0 
L 581 0 
L 581 4863 
L 1159 4863 
L 1159 2969 
z
" id="DejaVuSans-62" transform="scale(0.015625)"/>
      </defs>
      <use xlink:href="#DejaVuSans-62"/>
      <use x="63.476562" xlink:href="#DejaVuSans-65"/>
      <use x="125" xlink:href="#DejaVuSans-73"/>
      <use x="177.099609" xlink:href="#DejaVuSans-74"/>
      <use x="216.308594" xlink:href="#DejaVuSans-20"/>
      <use x="248.095703" xlink:href="#DejaVuSans-63"/>
      <use x="303.076172" xlink:href="#DejaVuSans-6f"/>
      <use x="364.257812" xlink:href="#DejaVuSans-73"/>
      <use x="416.357422" xlink:href="#DejaVuSans-74"/>
     </g>
    </g>
    <g id="line2d_23">
     <path d="M 807.348438 489.420313 
L 827.348438 489.420313 
" style="fill:none;stroke:#bfbbd9;stroke-linecap:square;stroke-width:1.5;"/>
    </g>
    <g id="line2d_24"/>
    <g id="text_20">
     <!-- temperature -->
     <g style="fill:#ffffff;" transform="translate(835.348438 492.920313)scale(0.1 -0.1)">
      <defs>
       <path d="M 3328 2828 
Q 3544 3216 3844 3400 
Q 4144 3584 4550 3584 
Q 5097 3584 5394 3201 
Q 5691 2819 5691 2113 
L 5691 0 
L 5113 0 
L 5113 2094 
Q 5113 2597 4934 2840 
Q 4756 3084 4391 3084 
Q 3944 3084 3684 2787 
Q 3425 2491 3425 1978 
L 3425 0 
L 2847 0 
L 2847 2094 
Q 2847 2600 2669 2842 
Q 2491 3084 2119 3084 
Q 1678 3084 1418 2786 
Q 1159 2488 1159 1978 
L 1159 0 
L 581 0 
L 581 3500 
L 1159 3500 
L 1159 2956 
Q 1356 3278 1631 3431 
Q 1906 3584 2284 3584 
Q 2666 3584 2933 3390 
Q 3200 3197 3328 2828 
z
" id="DejaVuSans-6d" transform="scale(0.015625)"/>
       <path d="M 1159 525 
L 1159 -1331 
L 581 -1331 
L 581 3500 
L 1159 3500 
L 1159 2969 
Q 1341 3281 1617 3432 
Q 1894 3584 2278 3584 
Q 2916 3584 3314 3078 
Q 3713 2572 3713 1747 
Q 3713 922 3314 415 
Q 2916 -91 2278 -91 
Q 1894 -91 1617 61 
Q 1341 213 1159 525 
z
M 3116 1747 
Q 3116 2381 2855 2742 
Q 2594 3103 2138 3103 
Q 1681 3103 1420 2742 
Q 1159 2381 1159 1747 
Q 1159 1113 1420 752 
Q 1681 391 2138 391 
Q 2594 391 2855 752 
Q 3116 1113 3116 1747 
z
" id="DejaVuSans-70" transform="scale(0.015625)"/>
       <path d="M 544 1381 
L 544 3500 
L 1119 3500 
L 1119 1403 
Q 1119 906 1312 657 
Q 1506 409 1894 409 
Q 2359 409 2629 706 
Q 2900 1003 2900 1516 
L 2900 3500 
L 3475 3500 
L 3475 0 
L 2900 0 
L 2900 538 
Q 2691 219 2414 64 
Q 2138 -91 1772 -91 
Q 1169 -91 856 284 
Q 544 659 544 1381 
z
M 1991 3584 
L 1991 3584 
z
" id="DejaVuSans-75" transform="scale(0.015625)"/>
      </defs>
      <use xlink:href="#DejaVuSans-74"/>
      <use x="39.208984" xlink:href="#DejaVuSans-65"/>
      <use x="100.732422" xlink:href="#DejaVuSans-6d"/>
      <use x="198.144531" xlink:href="#DejaVuSans-70"/>
      <use x="261.621094" xlink:href="#DejaVuSans-65"/>
      <use x="323.144531" xlink:href="#DejaVuSans-72"/>
      <use x="364.257812" xlink:href="#DejaVuSans-61"/>
      <use x="425.537109" xlink:href="#DejaVuSans-74"/>
      <use x="464.746094" xlink:href="#DejaVuSans-75"/>
      <use x="528.125" xlink:href="#DejaVuSans-72"/>
      <use x="566.988281" xlink:href="#DejaVuSans-65"/>
     </g>
    </g>
   </g>
  </g>
 </g>
 <defs>
  <clipPath id="p30669836cc">
   <rect height="434.88" width="781.2" x="126" y="69.12"/>
  </clipPath>
 </defs>
</svg>
