<?xml version="1.0" encoding="utf-8" standalone="no"?>
<!DOCTYPE svg PUBLIC "-//W3C//DTD SVG 1.1//EN"
  "http://www.w3.org/Graphics/SVG/1.1/DTD/svg11.dtd">
<svg height="576pt" version="1.1" viewBox="0 0 1008 576" width="1008pt" xmlns="http://www.w3.org/2000/svg" xmlns:xlink="http://www.w3.org/1999/xlink">
 <metadata>
  <rdf:RDF xmlns:cc="http://creativecommons.org/ns#" xmlns:dc="http://purl.org/dc/elements/1.1/" xmlns:rdf="http://www.w3.org/1999/02/22-rdf-syntax-ns#">
   <cc:Work>
    <dc:type rdf:resource="http://purl.org/dc/dcmitype/StillImage"/>
    <dc:date>2022-01-07T00:32:39.619312</dc:date>
    <dc:format>image/svg+xml</dc:format>
    <dc:creator>
     <cc:Agent>
      <dc:title>Matplotlib v3.4.3, https://matplotlib.org/</dc:title>
     </cc:Agent>
    </dc:creator>
   </cc:Work>
  </rdf:RDF>
 </metadata>
 <defs>
  <style type="text/css">*{stroke-linecap:butt;stroke-linejoin:round;}</style>
 </defs>
 <g id="figure_1">
  <g id="patch_1">
   <path d="M 0 576 
L 1008 576 
L 1008 0 
L 0 0 
z
"/>
  </g>
  <g id="axes_1">
   <g id="patch_2">
    <path d="M 126 504 
L 907.2 504 
L 907.2 69.12 
L 126 69.12 
z
"/>
   </g>
   <g id="matplotlib.axis_1">
    <g id="xtick_1">
     <g id="line2d_1">
      <defs>
       <path d="M 0 0 
L 0 3.5 
" id="md521b18a4b" style="stroke:#ffffff;stroke-width:0.8;"/>
      </defs>
      <g>
       <use style="fill:#ffffff;stroke:#ffffff;stroke-width:0.8;" x="161.509091" xlink:href="#md521b18a4b" y="504"/>
      </g>
     </g>
     <g id="text_1">
      <!-- 0 -->
      <g style="fill:#ffffff;" transform="translate(158.327841 518.598438)scale(0.1 -0.1)">
       <defs>
        <path d="M 2034 4250 
Q 1547 4250 1301 3770 
Q 1056 3291 1056 2328 
Q 1056 1369 1301 889 
Q 1547 409 2034 409 
Q 2525 409 2770 889 
Q 3016 1369 3016 2328 
Q 3016 3291 2770 3770 
Q 2525 4250 2034 4250 
z
M 2034 4750 
Q 2819 4750 3233 4129 
Q 3647 3509 3647 2328 
Q 3647 1150 3233 529 
Q 2819 -91 2034 -91 
Q 1250 -91 836 529 
Q 422 1150 422 2328 
Q 422 3509 836 4129 
Q 1250 4750 2034 4750 
z
" id="DejaVuSans-30" transform="scale(0.015625)"/>
       </defs>
       <use xlink:href="#DejaVuSans-30"/>
      </g>
     </g>
    </g>
    <g id="xtick_2">
     <g id="line2d_2">
      <g>
       <use style="fill:#ffffff;stroke:#ffffff;stroke-width:0.8;" x="279.912195" xlink:href="#md521b18a4b" y="504"/>
      </g>
     </g>
     <g id="text_2">
      <!-- 500 -->
      <g style="fill:#ffffff;" transform="translate(270.368445 518.598438)scale(0.1 -0.1)">
       <defs>
        <path d="M 691 4666 
L 3169 4666 
L 3169 4134 
L 1269 4134 
L 1269 2991 
Q 1406 3038 1543 3061 
Q 1681 3084 1819 3084 
Q 2600 3084 3056 2656 
Q 3513 2228 3513 1497 
Q 3513 744 3044 326 
Q 2575 -91 1722 -91 
Q 1428 -91 1123 -41 
Q 819 9 494 109 
L 494 744 
Q 775 591 1075 516 
Q 1375 441 1709 441 
Q 2250 441 2565 725 
Q 2881 1009 2881 1497 
Q 2881 1984 2565 2268 
Q 2250 2553 1709 2553 
Q 1456 2553 1204 2497 
Q 953 2441 691 2322 
L 691 4666 
z
" id="DejaVuSans-35" transform="scale(0.015625)"/>
       </defs>
       <use xlink:href="#DejaVuSans-35"/>
       <use x="63.623047" xlink:href="#DejaVuSans-30"/>
       <use x="127.246094" xlink:href="#DejaVuSans-30"/>
      </g>
     </g>
    </g>
    <g id="xtick_3">
     <g id="line2d_3">
      <g>
       <use style="fill:#ffffff;stroke:#ffffff;stroke-width:0.8;" x="398.315299" xlink:href="#md521b18a4b" y="504"/>
      </g>
     </g>
     <g id="text_3">
      <!-- 1000 -->
      <g style="fill:#ffffff;" transform="translate(385.590299 518.598438)scale(0.1 -0.1)">
       <defs>
        <path d="M 794 531 
L 1825 531 
L 1825 4091 
L 703 3866 
L 703 4441 
L 1819 4666 
L 2450 4666 
L 2450 531 
L 3481 531 
L 3481 0 
L 794 0 
L 794 531 
z
" id="DejaVuSans-31" transform="scale(0.015625)"/>
       </defs>
       <use xlink:href="#DejaVuSans-31"/>
       <use x="63.623047" xlink:href="#DejaVuSans-30"/>
       <use x="127.246094" xlink:href="#DejaVuSans-30"/>
       <use x="190.869141" xlink:href="#DejaVuSans-30"/>
      </g>
     </g>
    </g>
    <g id="xtick_4">
     <g id="line2d_4">
      <g>
       <use style="fill:#ffffff;stroke:#ffffff;stroke-width:0.8;" x="516.718403" xlink:href="#md521b18a4b" y="504"/>
      </g>
     </g>
     <g id="text_4">
      <!-- 1500 -->
      <g style="fill:#ffffff;" transform="translate(503.993403 518.598438)scale(0.1 -0.1)">
       <use xlink:href="#DejaVuSans-31"/>
       <use x="63.623047" xlink:href="#DejaVuSans-35"/>
       <use x="127.246094" xlink:href="#DejaVuSans-30"/>
       <use x="190.869141" xlink:href="#DejaVuSans-30"/>
      </g>
     </g>
    </g>
    <g id="xtick_5">
     <g id="line2d_5">
      <g>
       <use style="fill:#ffffff;stroke:#ffffff;stroke-width:0.8;" x="635.121507" xlink:href="#md521b18a4b" y="504"/>
      </g>
     </g>
     <g id="text_5">
      <!-- 2000 -->
      <g style="fill:#ffffff;" transform="translate(622.396507 518.598438)scale(0.1 -0.1)">
       <defs>
        <path d="M 1228 531 
L 3431 531 
L 3431 0 
L 469 0 
L 469 531 
Q 828 903 1448 1529 
Q 2069 2156 2228 2338 
Q 2531 2678 2651 2914 
Q 2772 3150 2772 3378 
Q 2772 3750 2511 3984 
Q 2250 4219 1831 4219 
Q 1534 4219 1204 4116 
Q 875 4013 500 3803 
L 500 4441 
Q 881 4594 1212 4672 
Q 1544 4750 1819 4750 
Q 2544 4750 2975 4387 
Q 3406 4025 3406 3419 
Q 3406 3131 3298 2873 
Q 3191 2616 2906 2266 
Q 2828 2175 2409 1742 
Q 1991 1309 1228 531 
z
" id="DejaVuSans-32" transform="scale(0.015625)"/>
       </defs>
       <use xlink:href="#DejaVuSans-32"/>
       <use x="63.623047" xlink:href="#DejaVuSans-30"/>
       <use x="127.246094" xlink:href="#DejaVuSans-30"/>
       <use x="190.869141" xlink:href="#DejaVuSans-30"/>
      </g>
     </g>
    </g>
    <g id="xtick_6">
     <g id="line2d_6">
      <g>
       <use style="fill:#ffffff;stroke:#ffffff;stroke-width:0.8;" x="753.524611" xlink:href="#md521b18a4b" y="504"/>
      </g>
     </g>
     <g id="text_6">
      <!-- 2500 -->
      <g style="fill:#ffffff;" transform="translate(740.799611 518.598438)scale(0.1 -0.1)">
       <use xlink:href="#DejaVuSans-32"/>
       <use x="63.623047" xlink:href="#DejaVuSans-35"/>
       <use x="127.246094" xlink:href="#DejaVuSans-30"/>
       <use x="190.869141" xlink:href="#DejaVuSans-30"/>
      </g>
     </g>
    </g>
    <g id="xtick_7">
     <g id="line2d_7">
      <g>
       <use style="fill:#ffffff;stroke:#ffffff;stroke-width:0.8;" x="871.927715" xlink:href="#md521b18a4b" y="504"/>
      </g>
     </g>
     <g id="text_7">
      <!-- 3000 -->
      <g style="fill:#ffffff;" transform="translate(859.202715 518.598438)scale(0.1 -0.1)">
       <defs>
        <path d="M 2597 2516 
Q 3050 2419 3304 2112 
Q 3559 1806 3559 1356 
Q 3559 666 3084 287 
Q 2609 -91 1734 -91 
Q 1441 -91 1130 -33 
Q 819 25 488 141 
L 488 750 
Q 750 597 1062 519 
Q 1375 441 1716 441 
Q 2309 441 2620 675 
Q 2931 909 2931 1356 
Q 2931 1769 2642 2001 
Q 2353 2234 1838 2234 
L 1294 2234 
L 1294 2753 
L 1863 2753 
Q 2328 2753 2575 2939 
Q 2822 3125 2822 3475 
Q 2822 3834 2567 4026 
Q 2313 4219 1838 4219 
Q 1578 4219 1281 4162 
Q 984 4106 628 3988 
L 628 4550 
Q 988 4650 1302 4700 
Q 1616 4750 1894 4750 
Q 2613 4750 3031 4423 
Q 3450 4097 3450 3541 
Q 3450 3153 3228 2886 
Q 3006 2619 2597 2516 
z
" id="DejaVuSans-33" transform="scale(0.015625)"/>
       </defs>
       <use xlink:href="#DejaVuSans-33"/>
       <use x="63.623047" xlink:href="#DejaVuSans-30"/>
       <use x="127.246094" xlink:href="#DejaVuSans-30"/>
       <use x="190.869141" xlink:href="#DejaVuSans-30"/>
      </g>
     </g>
    </g>
    <g id="text_8">
     <!-- iteration -->
     <g style="fill:#ffffff;" transform="translate(495.477344 532.276562)scale(0.1 -0.1)">
      <defs>
       <path d="M 603 3500 
L 1178 3500 
L 1178 0 
L 603 0 
L 603 3500 
z
M 603 4863 
L 1178 4863 
L 1178 4134 
L 603 4134 
L 603 4863 
z
" id="DejaVuSans-69" transform="scale(0.015625)"/>
       <path d="M 1172 4494 
L 1172 3500 
L 2356 3500 
L 2356 3053 
L 1172 3053 
L 1172 1153 
Q 1172 725 1289 603 
Q 1406 481 1766 481 
L 2356 481 
L 2356 0 
L 1766 0 
Q 1100 0 847 248 
Q 594 497 594 1153 
L 594 3053 
L 172 3053 
L 172 3500 
L 594 3500 
L 594 4494 
L 1172 4494 
z
" id="DejaVuSans-74" transform="scale(0.015625)"/>
       <path d="M 3597 1894 
L 3597 1613 
L 953 1613 
Q 991 1019 1311 708 
Q 1631 397 2203 397 
Q 2534 397 2845 478 
Q 3156 559 3463 722 
L 3463 178 
Q 3153 47 2828 -22 
Q 2503 -91 2169 -91 
Q 1331 -91 842 396 
Q 353 884 353 1716 
Q 353 2575 817 3079 
Q 1281 3584 2069 3584 
Q 2775 3584 3186 3129 
Q 3597 2675 3597 1894 
z
M 3022 2063 
Q 3016 2534 2758 2815 
Q 2500 3097 2075 3097 
Q 1594 3097 1305 2825 
Q 1016 2553 972 2059 
L 3022 2063 
z
" id="DejaVuSans-65" transform="scale(0.015625)"/>
       <path d="M 2631 2963 
Q 2534 3019 2420 3045 
Q 2306 3072 2169 3072 
Q 1681 3072 1420 2755 
Q 1159 2438 1159 1844 
L 1159 0 
L 581 0 
L 581 3500 
L 1159 3500 
L 1159 2956 
Q 1341 3275 1631 3429 
Q 1922 3584 2338 3584 
Q 2397 3584 2469 3576 
Q 2541 3569 2628 3553 
L 2631 2963 
z
" id="DejaVuSans-72" transform="scale(0.015625)"/>
       <path d="M 2194 1759 
Q 1497 1759 1228 1600 
Q 959 1441 959 1056 
Q 959 750 1161 570 
Q 1363 391 1709 391 
Q 2188 391 2477 730 
Q 2766 1069 2766 1631 
L 2766 1759 
L 2194 1759 
z
M 3341 1997 
L 3341 0 
L 2766 0 
L 2766 531 
Q 2569 213 2275 61 
Q 1981 -91 1556 -91 
Q 1019 -91 701 211 
Q 384 513 384 1019 
Q 384 1609 779 1909 
Q 1175 2209 1959 2209 
L 2766 2209 
L 2766 2266 
Q 2766 2663 2505 2880 
Q 2244 3097 1772 3097 
Q 1472 3097 1187 3025 
Q 903 2953 641 2809 
L 641 3341 
Q 956 3463 1253 3523 
Q 1550 3584 1831 3584 
Q 2591 3584 2966 3190 
Q 3341 2797 3341 1997 
z
" id="DejaVuSans-61" transform="scale(0.015625)"/>
       <path d="M 1959 3097 
Q 1497 3097 1228 2736 
Q 959 2375 959 1747 
Q 959 1119 1226 758 
Q 1494 397 1959 397 
Q 2419 397 2687 759 
Q 2956 1122 2956 1747 
Q 2956 2369 2687 2733 
Q 2419 3097 1959 3097 
z
M 1959 3584 
Q 2709 3584 3137 3096 
Q 3566 2609 3566 1747 
Q 3566 888 3137 398 
Q 2709 -91 1959 -91 
Q 1206 -91 779 398 
Q 353 888 353 1747 
Q 353 2609 779 3096 
Q 1206 3584 1959 3584 
z
" id="DejaVuSans-6f" transform="scale(0.015625)"/>
       <path d="M 3513 2113 
L 3513 0 
L 2938 0 
L 2938 2094 
Q 2938 2591 2744 2837 
Q 2550 3084 2163 3084 
Q 1697 3084 1428 2787 
Q 1159 2491 1159 1978 
L 1159 0 
L 581 0 
L 581 3500 
L 1159 3500 
L 1159 2956 
Q 1366 3272 1645 3428 
Q 1925 3584 2291 3584 
Q 2894 3584 3203 3211 
Q 3513 2838 3513 2113 
z
" id="DejaVuSans-6e" transform="scale(0.015625)"/>
      </defs>
      <use xlink:href="#DejaVuSans-69"/>
      <use x="27.783203" xlink:href="#DejaVuSans-74"/>
      <use x="66.992188" xlink:href="#DejaVuSans-65"/>
      <use x="128.515625" xlink:href="#DejaVuSans-72"/>
      <use x="169.628906" xlink:href="#DejaVuSans-61"/>
      <use x="230.908203" xlink:href="#DejaVuSans-74"/>
      <use x="270.117188" xlink:href="#DejaVuSans-69"/>
      <use x="297.900391" xlink:href="#DejaVuSans-6f"/>
      <use x="359.082031" xlink:href="#DejaVuSans-6e"/>
     </g>
    </g>
   </g>
   <g id="matplotlib.axis_2">
    <g id="ytick_1">
     <g id="line2d_8">
      <defs>
       <path d="M 0 0 
L -3.5 0 
" id="mc7a6394047" style="stroke:#ffffff;stroke-width:0.8;"/>
      </defs>
      <g>
       <use style="fill:#ffffff;stroke:#ffffff;stroke-width:0.8;" x="126" xlink:href="#mc7a6394047" y="484.232727"/>
      </g>
     </g>
     <g id="text_9">
      <!-- 0 -->
      <g style="fill:#ffffff;" transform="translate(112.6375 488.031946)scale(0.1 -0.1)">
       <use xlink:href="#DejaVuSans-30"/>
      </g>
     </g>
    </g>
    <g id="ytick_2">
     <g id="line2d_9">
      <g>
       <use style="fill:#ffffff;stroke:#ffffff;stroke-width:0.8;" x="126" xlink:href="#mc7a6394047" y="433.595453"/>
      </g>
     </g>
     <g id="text_10">
      <!-- 5000 -->
      <g style="fill:#ffffff;" transform="translate(93.55 437.394672)scale(0.1 -0.1)">
       <use xlink:href="#DejaVuSans-35"/>
       <use x="63.623047" xlink:href="#DejaVuSans-30"/>
       <use x="127.246094" xlink:href="#DejaVuSans-30"/>
       <use x="190.869141" xlink:href="#DejaVuSans-30"/>
      </g>
     </g>
    </g>
    <g id="ytick_3">
     <g id="line2d_10">
      <g>
       <use style="fill:#ffffff;stroke:#ffffff;stroke-width:0.8;" x="126" xlink:href="#mc7a6394047" y="382.958179"/>
      </g>
     </g>
     <g id="text_11">
      <!-- 10000 -->
      <g style="fill:#ffffff;" transform="translate(87.1875 386.757398)scale(0.1 -0.1)">
       <use xlink:href="#DejaVuSans-31"/>
       <use x="63.623047" xlink:href="#DejaVuSans-30"/>
       <use x="127.246094" xlink:href="#DejaVuSans-30"/>
       <use x="190.869141" xlink:href="#DejaVuSans-30"/>
       <use x="254.492188" xlink:href="#DejaVuSans-30"/>
      </g>
     </g>
    </g>
    <g id="ytick_4">
     <g id="line2d_11">
      <g>
       <use style="fill:#ffffff;stroke:#ffffff;stroke-width:0.8;" x="126" xlink:href="#mc7a6394047" y="332.320905"/>
      </g>
     </g>
     <g id="text_12">
      <!-- 15000 -->
      <g style="fill:#ffffff;" transform="translate(87.1875 336.120124)scale(0.1 -0.1)">
       <use xlink:href="#DejaVuSans-31"/>
       <use x="63.623047" xlink:href="#DejaVuSans-35"/>
       <use x="127.246094" xlink:href="#DejaVuSans-30"/>
       <use x="190.869141" xlink:href="#DejaVuSans-30"/>
       <use x="254.492188" xlink:href="#DejaVuSans-30"/>
      </g>
     </g>
    </g>
    <g id="ytick_5">
     <g id="line2d_12">
      <g>
       <use style="fill:#ffffff;stroke:#ffffff;stroke-width:0.8;" x="126" xlink:href="#mc7a6394047" y="281.683631"/>
      </g>
     </g>
     <g id="text_13">
      <!-- 20000 -->
      <g style="fill:#ffffff;" transform="translate(87.1875 285.482849)scale(0.1 -0.1)">
       <use xlink:href="#DejaVuSans-32"/>
       <use x="63.623047" xlink:href="#DejaVuSans-30"/>
       <use x="127.246094" xlink:href="#DejaVuSans-30"/>
       <use x="190.869141" xlink:href="#DejaVuSans-30"/>
       <use x="254.492188" xlink:href="#DejaVuSans-30"/>
      </g>
     </g>
    </g>
    <g id="ytick_6">
     <g id="line2d_13">
      <g>
       <use style="fill:#ffffff;stroke:#ffffff;stroke-width:0.8;" x="126" xlink:href="#mc7a6394047" y="231.046356"/>
      </g>
     </g>
     <g id="text_14">
      <!-- 25000 -->
      <g style="fill:#ffffff;" transform="translate(87.1875 234.845575)scale(0.1 -0.1)">
       <use xlink:href="#DejaVuSans-32"/>
       <use x="63.623047" xlink:href="#DejaVuSans-35"/>
       <use x="127.246094" xlink:href="#DejaVuSans-30"/>
       <use x="190.869141" xlink:href="#DejaVuSans-30"/>
       <use x="254.492188" xlink:href="#DejaVuSans-30"/>
      </g>
     </g>
    </g>
    <g id="ytick_7">
     <g id="line2d_14">
      <g>
       <use style="fill:#ffffff;stroke:#ffffff;stroke-width:0.8;" x="126" xlink:href="#mc7a6394047" y="180.409082"/>
      </g>
     </g>
     <g id="text_15">
      <!-- 30000 -->
      <g style="fill:#ffffff;" transform="translate(87.1875 184.208301)scale(0.1 -0.1)">
       <use xlink:href="#DejaVuSans-33"/>
       <use x="63.623047" xlink:href="#DejaVuSans-30"/>
       <use x="127.246094" xlink:href="#DejaVuSans-30"/>
       <use x="190.869141" xlink:href="#DejaVuSans-30"/>
       <use x="254.492188" xlink:href="#DejaVuSans-30"/>
      </g>
     </g>
    </g>
    <g id="ytick_8">
     <g id="line2d_15">
      <g>
       <use style="fill:#ffffff;stroke:#ffffff;stroke-width:0.8;" x="126" xlink:href="#mc7a6394047" y="129.771808"/>
      </g>
     </g>
     <g id="text_16">
      <!-- 35000 -->
      <g style="fill:#ffffff;" transform="translate(87.1875 133.571027)scale(0.1 -0.1)">
       <use xlink:href="#DejaVuSans-33"/>
       <use x="63.623047" xlink:href="#DejaVuSans-35"/>
       <use x="127.246094" xlink:href="#DejaVuSans-30"/>
       <use x="190.869141" xlink:href="#DejaVuSans-30"/>
       <use x="254.492188" xlink:href="#DejaVuSans-30"/>
      </g>
     </g>
    </g>
    <g id="ytick_9">
     <g id="line2d_16">
      <g>
       <use style="fill:#ffffff;stroke:#ffffff;stroke-width:0.8;" x="126" xlink:href="#mc7a6394047" y="79.134534"/>
      </g>
     </g>
     <g id="text_17">
      <!-- 40000 -->
      <g style="fill:#ffffff;" transform="translate(87.1875 82.933752)scale(0.1 -0.1)">
       <defs>
        <path d="M 2419 4116 
L 825 1625 
L 2419 1625 
L 2419 4116 
z
M 2253 4666 
L 3047 4666 
L 3047 1625 
L 3713 1625 
L 3713 1100 
L 3047 1100 
L 3047 0 
L 2419 0 
L 2419 1100 
L 313 1100 
L 313 1709 
L 2253 4666 
z
" id="DejaVuSans-34" transform="scale(0.015625)"/>
       </defs>
       <use xlink:href="#DejaVuSans-34"/>
       <use x="63.623047" xlink:href="#DejaVuSans-30"/>
       <use x="127.246094" xlink:href="#DejaVuSans-30"/>
       <use x="190.869141" xlink:href="#DejaVuSans-30"/>
       <use x="254.492188" xlink:href="#DejaVuSans-30"/>
      </g>
     </g>
    </g>
   </g>
   <g id="line2d_17">
    <path clip-path="url(#pb1cce35975)" d="M 161.509091 204.107326 
L 161.982703 224.382491 
L 162.456316 261.560378 
L 162.693122 245.95397 
L 162.929928 264.628997 
L 163.166734 240.444634 
L 163.403541 250.420177 
L 163.640347 292.955488 
L 163.877153 268.771126 
L 164.350765 254.90664 
L 164.587572 232.869298 
L 164.824378 245.862823 
L 165.061184 245.042499 
L 165.534796 222.95452 
L 165.771603 222.032922 
L 166.245215 263.737781 
L 166.482021 268.781253 
L 166.955634 259.129789 
L 167.19244 237.274741 
L 167.666052 259.382975 
L 167.902859 252.293757 
L 168.139665 262.694653 
L 168.613277 295.001234 
L 168.850083 284.11422 
L 169.323696 310.081014 
L 169.560502 295.760793 
L 169.797308 306.181944 
L 170.270921 281.481081 
L 170.507727 274.391863 
L 170.744533 281.481081 
L 170.981339 285.035818 
L 171.218145 262.998476 
L 171.454952 273.399373 
L 171.928564 308.430239 
L 172.16537 322.70995 
L 172.638983 278.442845 
L 172.875789 298.63699 
L 173.112595 286.949907 
L 173.349401 281.906435 
L 173.586208 261.469231 
L 173.823014 266.077223 
L 174.05982 250.227756 
L 174.296626 245.619764 
L 174.533432 265.813909 
L 174.770239 254.926895 
L 175.007045 253.438159 
L 175.243851 254.258483 
L 175.480657 253.772365 
L 175.717463 243.351214 
L 175.95427 254.238228 
L 176.191076 257.792965 
L 176.427882 268.193861 
L 176.664688 252.587453 
L 176.901494 263.008604 
L 177.138301 259.453867 
L 177.375107 249.052971 
L 178.085525 283.121729 
L 179.03275 353.061932 
L 179.269557 366.055457 
L 179.979975 381.307404 
L 180.216781 377.752667 
L 180.453588 364.759143 
L 180.690394 359.766307 
L 181.164006 335.04519 
L 181.400812 358.480121 
L 181.637619 334.295759 
L 181.874425 335.784494 
L 182.111231 322.031411 
L 182.584843 310.881083 
L 182.82165 325.160794 
L 183.058456 315.023212 
L 183.295262 315.50933 
L 183.532068 304.136198 
L 184.005681 328.806678 
L 184.242487 327.986354 
L 184.479293 317.09934 
L 184.716099 298.090107 
L 184.952906 308.22769 
L 185.189712 327.236922 
L 185.426518 328.057246 
L 185.90013 296.28742 
L 186.373743 255.494032 
L 186.847355 289.329859 
L 187.084161 275.576775 
L 187.320968 282.665994 
L 187.79458 280.356934 
L 188.031386 260.162789 
L 188.268192 284.347151 
L 188.504999 270.06744 
L 188.978611 254.157208 
L 189.68903 284.752249 
L 189.925836 284.266132 
L 190.399448 286.676466 
L 190.636255 300.42955 
L 190.873061 301.249873 
L 191.109867 312.936956 
L 191.346673 333.131101 
L 191.583479 332.209503 
L 191.820286 339.298721 
L 192.057092 327.925589 
L 192.293898 346.934822 
L 193.241123 307.15418 
L 193.477929 315.975193 
L 193.714735 316.461311 
L 193.951541 332.067718 
L 194.188348 323.246705 
L 194.898766 262.10726 
L 195.135572 250.420177 
L 195.372379 245.812186 
L 195.609185 227.137159 
L 196.082797 260.679289 
L 196.55641 274.493138 
L 196.793216 252.63809 
L 197.266828 261.307191 
L 197.740441 251.706364 
L 197.977247 262.593378 
L 198.214053 261.773054 
L 198.450859 266.381046 
L 198.687666 276.518629 
L 198.924472 256.324484 
L 199.161278 245.984352 
L 199.398084 221.79999 
L 199.63489 241.994135 
L 199.871697 226.387727 
L 200.108503 248.171883 
L 200.345309 243.563891 
L 200.582115 242.075155 
L 200.818921 242.996753 
L 201.055728 253.397649 
L 201.292534 254.217973 
L 201.52934 245.39696 
L 201.766146 297.978705 
L 202.002952 284.985181 
L 202.239759 295.122763 
L 202.476565 284.985181 
L 202.713371 305.179326 
L 202.950177 289.572918 
L 203.186984 290.393242 
L 203.42379 280.05311 
L 204.371015 320.876881 
L 205.081433 283.536955 
L 205.318239 261.681907 
L 205.555046 281.76465 
L 205.791852 285.82576 
L 206.50227 337.668201 
L 206.975883 362.034857 
L 207.449495 330.366306 
L 207.686301 341.25332 
L 207.923108 339.764584 
L 208.39672 299.649735 
L 208.633526 290.828722 
L 208.870333 286.767613 
L 209.107139 264.983458 
L 209.343945 280.589865 
L 209.580751 281.511464 
L 209.817557 258.076533 
L 210.054364 281.511464 
L 210.29117 271.171332 
L 210.527976 278.260551 
L 210.764782 291.254075 
L 211.001588 292.742811 
L 211.238395 277.136403 
L 211.475201 287.476535 
L 211.712007 264.041604 
L 211.948813 262.552868 
L 212.185619 242.470125 
L 212.422426 241.548527 
L 212.659232 264.983458 
L 212.896038 254.562307 
L 213.132844 276.346462 
L 213.36965 262.593378 
L 213.606457 255.50416 
L 214.080069 278.078257 
L 214.316875 256.294101 
L 214.553682 263.38332 
L 214.790488 252.496306 
L 215.027294 248.941569 
L 215.2641 259.342465 
L 215.737713 288.438643 
L 215.974519 283.445808 
L 216.211325 297.725519 
L 216.448131 290.636301 
L 216.684937 312.420456 
L 217.15855 274.786834 
L 217.395356 290.393242 
L 217.632162 280.05311 
L 217.868968 300.135853 
L 218.342581 309.189798 
L 218.816193 288.367751 
L 219.052999 269.692724 
L 219.289806 281.379807 
L 219.763418 262.421211 
L 220.237031 301.624589 
L 220.473837 290.251457 
L 220.710643 300.652354 
L 220.947449 286.89927 
L 221.184255 290.454006 
L 221.421062 285.461171 
L 221.657868 286.38277 
L 221.894674 264.345428 
L 222.13148 263.42383 
L 222.605093 283.820524 
L 223.078705 246.065372 
L 223.315511 297.310293 
L 223.552317 278.635267 
L 223.789124 283.678739 
L 224.02593 302.687972 
L 224.262736 306.242709 
L 224.499542 296.105126 
L 224.736348 280.255659 
L 224.973155 295.862067 
L 225.209961 300.470059 
L 225.446767 298.981323 
L 225.683573 299.801647 
L 225.92038 301.290383 
L 226.157186 311.711534 
L 226.393992 292.702301 
L 226.630798 305.695826 
L 226.867604 296.874813 
L 227.104411 308.561896 
L 227.341217 298.221764 
L 227.578023 316.896791 
L 227.814829 313.342054 
L 228.051635 306.252836 
L 228.525248 265.540468 
L 228.99886 263.231408 
L 229.235666 252.810257 
L 229.472473 256.364993 
L 229.709279 245.47798 
L 229.946085 264.153006 
L 230.656504 205.109945 
L 231.603729 274.553902 
L 231.840535 250.36954 
L 232.077341 261.256554 
L 232.314147 245.407087 
L 232.550953 255.747219 
L 233.024566 226.671296 
L 233.261372 248.526343 
L 233.498178 247.604745 
L 233.734984 244.050008 
L 233.971791 222.194961 
L 234.208597 223.015285 
L 234.445403 320.360381 
L 234.682209 332.047464 
L 234.919015 351.056696 
L 235.392628 333.546327 
L 235.629434 311.508985 
L 235.86624 301.533442 
L 236.103046 282.524209 
L 236.339853 278.969473 
L 236.576659 289.856487 
L 236.813465 308.865719 
L 237.287078 272.730961 
L 237.523884 271.242225 
L 237.76069 276.285697 
L 238.471109 307.67068 
L 238.707915 283.486318 
L 238.944721 307.67068 
L 239.181527 300.581461 
L 239.418333 302.070197 
L 239.65514 290.383114 
L 239.891946 270.188969 
L 240.128752 273.743706 
L 240.365558 285.116838 
L 240.602364 274.229824 
L 240.839171 269.145841 
L 241.075977 289.228584 
L 241.549589 254.86613 
L 241.786395 258.420867 
L 242.496814 208.036779 
L 242.73362 221.789863 
L 243.207233 264.649252 
L 243.444039 253.762238 
L 243.680845 266.755762 
L 243.917651 261.762927 
L 244.154458 270.58394 
L 244.391264 292.368095 
L 244.62807 281.946944 
L 244.864876 281.126621 
L 245.101682 261.205917 
L 245.338489 262.127515 
L 245.575295 267.170988 
L 245.812101 276.204678 
L 246.048907 272.143568 
L 246.52252 284.276259 
L 246.759326 269.996548 
L 246.996132 284.276259 
L 247.232938 268.426792 
L 247.469744 272.487902 
L 247.706551 273.4095 
L 247.943357 263.271918 
L 248.180163 267.87991 
L 248.416969 263.271918 
L 248.890582 233.375671 
L 249.127388 255.159826 
L 249.364194 240.839605 
L 249.601 241.325723 
L 250.311419 280.022728 
L 250.548225 261.347701 
L 250.785031 265.408811 
L 251.021838 246.399578 
L 251.49545 288.509535 
L 251.732256 304.115943 
L 251.969062 305.604679 
L 252.205869 300.996687 
L 252.679481 277.86558 
L 253.3899 308.399856 
L 253.626706 292.55039 
L 253.863512 297.543225 
L 254.100318 316.552458 
L 254.573931 308.004886 
L 254.810737 319.378018 
L 255.047543 323.986009 
L 255.284349 319.9249 
L 255.521156 296.48997 
L 255.757962 287.668956 
L 256.231574 324.097411 
L 256.46838 329.140884 
L 256.705187 317.767752 
L 257.178799 281.410189 
L 257.415605 295.689901 
L 257.652411 285.552318 
L 257.889218 296.92545 
L 258.126024 286.949907 
L 258.36283 297.087489 
L 258.599636 301.148599 
L 258.836442 296.540607 
L 259.310055 271.839744 
L 259.783667 292.580772 
L 260.020473 308.430239 
L 260.25728 284.995308 
L 260.494086 285.481426 
L 260.730892 290.474261 
L 261.204505 266.320282 
L 261.441311 242.135919 
L 262.151729 309.837955 
L 262.388536 287.982908 
L 262.625342 298.383804 
L 262.862148 244.991862 
L 263.098954 249.984697 
L 263.33576 265.591105 
L 263.572567 266.077223 
L 264.046179 295.224038 
L 264.282985 294.403714 
L 264.519791 289.410879 
L 264.756598 288.924761 
L 265.23021 317.767752 
L 265.467016 298.758519 
L 265.703822 303.801992 
L 266.177435 333.212121 
L 266.414241 314.202888 
L 266.651047 333.212121 
L 266.887854 324.391108 
L 267.361466 292.38835 
L 267.598272 278.068129 
L 268.308691 341.455869 
L 268.545497 364.8908 
L 268.782303 350.611088 
L 269.019109 328.756041 
L 269.255916 339.643055 
L 269.492722 334.599582 
L 269.729528 356.45463 
L 270.676753 300.297893 
L 270.913559 301.118216 
L 271.150365 306.161689 
L 271.387171 317.534821 
L 272.334396 273.166441 
L 272.808009 227.947355 
L 273.044815 227.127031 
L 273.281621 240.120556 
L 273.518427 221.111323 
L 273.755234 229.932336 
L 273.99204 216.179253 
L 274.228846 239.614183 
L 274.465652 250.987315 
L 274.702458 251.473433 
L 274.939265 261.448976 
L 275.176071 280.124003 
L 275.412877 279.202404 
L 275.649683 289.623555 
L 276.123296 249.093481 
L 276.360102 253.15459 
L 276.596908 290.221075 
L 276.833714 294.282184 
L 277.07052 249.093481 
L 277.307327 262.846565 
L 277.544133 247.240157 
L 277.780939 265.915183 
L 278.017745 241.730821 
L 278.254552 252.617835 
L 278.491358 274.472883 
L 278.96497 229.182905 
L 279.201776 245.032372 
L 279.675389 212.604261 
L 279.912195 236.788623 
L 280.149001 237.710222 
L 280.385807 217.789518 
L 280.622614 236.798751 
L 280.85942 212.614389 
L 281.096226 208.006397 
L 281.333032 197.6055 
L 281.569838 175.568159 
L 282.280257 148.730403 
L 282.517063 170.585451 
L 282.753869 372.790214 
L 282.990676 373.276332 
L 283.227482 353.193589 
L 283.464288 366.187114 
L 283.937901 333.232376 
L 284.174707 210.14329 
L 284.411513 214.204399 
L 284.648319 234.398544 
L 284.885125 244.79944 
L 285.121932 230.519729 
L 285.358738 242.206812 
L 285.595544 264.244153 
L 285.83235 253.843257 
L 286.069156 267.596341 
L 286.305963 258.775328 
L 286.779575 279.313806 
L 287.016381 268.426792 
L 287.253187 264.872056 
L 287.489994 269.480048 
L 287.7268 257.792965 
L 287.963606 261.347701 
L 288.200412 250.946805 
L 288.437218 262.319937 
L 288.674025 243.310704 
L 288.910831 257.630925 
L 289.384443 267.667233 
L 289.62125 260.578015 
L 289.858056 276.184423 
L 290.094862 277.004746 
L 290.331668 300.439677 
L 290.568474 290.302095 
L 290.805281 289.481771 
L 291.042087 275.16155 
L 291.278893 253.124208 
L 291.515699 267.444429 
L 291.989312 258.339847 
L 292.69973 312.866064 
L 292.936536 301.492932 
L 293.646955 245.964097 
L 293.883761 265.884801 
L 294.120567 245.690656 
L 294.357374 241.082664 
L 294.59418 262.866819 
L 294.830986 273.753833 
L 295.067792 263.77829 
L 295.304599 268.386282 
L 295.541405 264.831546 
L 295.778211 274.969128 
L 296.015017 297.00647 
L 296.251823 286.585319 
L 296.48863 256.790347 
L 296.725436 275.465373 
L 296.962242 266.64436 
L 297.435854 308.764445 
L 297.672661 298.424313 
L 297.909467 293.380841 
L 298.146273 298.424313 
L 298.383079 284.144602 
L 298.619885 298.464823 
L 298.856692 296.976087 
L 299.093498 305.797101 
L 299.330304 310.405093 
L 299.803916 354.510158 
L 300.040723 330.325796 
L 300.277529 329.505472 
L 300.514335 343.785184 
L 300.987947 309.837955 
L 301.46156 283.830651 
L 301.698366 285.319387 
L 301.935172 300.925795 
L 302.171979 290.524899 
L 302.408785 268.487557 
L 302.645591 282.240641 
L 302.882397 272.265098 
L 303.119203 256.65869 
L 303.35601 276.852835 
L 303.592816 276.366717 
L 304.066428 301.087834 
L 304.303234 296.044362 
L 304.540041 296.96596 
L 304.776847 282.686249 
L 305.013653 306.121179 
L 305.250459 317.008193 
L 305.487265 339.045535 
L 305.724072 344.03837 
L 305.960878 323.844225 
L 306.197684 348.028587 
L 306.43449 353.07206 
L 306.671296 334.397033 
L 306.908103 334.883151 
L 307.381715 295.953214 
L 307.618521 294.464479 
L 307.855328 270.280116 
L 308.092134 266.72538 
L 308.32894 244.688038 
L 308.565746 263.363065 
L 308.802552 264.851801 
L 309.039359 260.790691 
L 309.276165 282.828033 
L 309.512971 293.168164 
L 309.749777 288.124692 
L 310.22339 264.791036 
L 310.460196 280.640503 
L 310.697002 273.551284 
L 311.170614 293.66441 
L 311.407421 289.056418 
L 311.644227 309.250563 
L 311.881033 314.294035 
L 312.591452 271.728342 
L 312.828258 285.481426 
L 313.065064 292.570645 
L 313.30187 308.177052 
L 313.775483 284.448426 
L 314.012289 294.586008 
L 314.485901 257.124553 
L 314.722708 267.100096 
L 314.959514 256.678945 
L 315.19632 268.366027 
L 315.433126 261.276809 
L 315.669932 271.61694 
L 316.380351 240.738331 
L 316.617157 264.922693 
L 316.853963 263.433957 
L 317.564382 201.119727 
L 317.801188 205.727719 
L 318.037994 225.810462 
L 318.274801 236.231613 
L 318.511607 307.144052 
L 318.748413 285.359897 
L 318.985219 307.144052 
L 319.222026 318.031066 
L 319.458832 307.144052 
L 319.695638 285.289005 
L 319.932444 295.710156 
L 320.16925 277.035129 
L 320.406057 297.117872 
L 320.879669 255.159826 
L 321.116475 244.738675 
L 321.353281 253.559688 
L 321.826894 292.844086 
L 322.300506 275.353971 
L 322.537312 289.674192 
L 322.774119 294.717665 
L 323.010925 305.604679 
L 323.247731 310.212671 
L 323.721343 301.54357 
L 323.95815 285.937162 
L 324.431762 327.712913 
L 324.668568 331.774022 
L 324.905375 321.63644 
L 325.142181 320.816116 
L 325.378987 331.217012 
L 325.615793 332.138611 
L 325.852599 354.175952 
L 326.089406 361.265171 
L 326.326212 346.94495 
L 326.563018 323.510019 
L 327.03663 314.91181 
L 327.273437 315.397928 
L 327.510243 316.218252 
L 327.747049 296.297548 
L 327.983855 299.852285 
L 328.457468 298.444568 
L 328.694274 298.930686 
L 328.93108 297.44195 
L 329.167886 293.380841 
L 329.404692 308.987249 
L 329.641499 313.980084 
L 330.351917 261.894584 
L 330.588724 263.38332 
L 330.82553 275.070403 
L 331.299142 272.761343 
L 331.535948 291.770576 
L 331.772755 282.949562 
L 332.009561 268.669851 
L 332.483173 306.384493 
L 332.719979 317.757625 
L 333.193592 293.117527 
L 333.430398 317.301889 
L 333.667204 326.122902 
L 333.90401 310.273436 
L 334.140817 321.16045 
L 334.377623 339.835476 
L 334.851235 296.196273 
L 335.088041 292.641537 
L 335.324848 296.196273 
L 335.561654 306.171816 
L 335.79846 295.284802 
L 336.035266 317.068958 
L 336.272073 301.46255 
L 336.508879 302.951286 
L 336.745685 299.396549 
L 336.982491 285.116838 
L 337.219297 298.110362 
L 337.69291 306.779464 
L 337.929716 306.293346 
L 338.166522 282.858415 
L 338.640135 271.708088 
L 338.876941 281.84567 
L 339.113747 282.665994 
L 339.350553 263.656761 
L 339.587359 259.048769 
L 339.824166 234.864407 
L 340.060972 234.044083 
L 340.297778 224.06854 
L 340.534584 238.348251 
L 340.77139 228.00812 
L 341.008197 205.970778 
L 341.481809 233.325034 
L 341.718615 310.050632 
L 341.955422 299.163618 
L 342.429034 297.421695 
L 342.66584 288.600682 
L 342.902646 272.994274 
L 343.376259 299.973814 
L 343.613065 304.966649 
L 343.849871 319.28687 
L 344.086677 308.865719 
L 344.323484 320.552802 
L 344.56029 320.066684 
L 344.797096 320.552802 
L 345.033902 342.40785 
L 345.270708 352.808746 
L 345.507515 336.959279 
L 345.744321 331.966444 
L 345.981127 310.111396 
L 346.217933 305.067924 
L 346.454739 305.888248 
L 346.691546 290.28184 
L 346.928352 305.888248 
L 347.165158 295.487352 
L 347.401964 290.87936 
L 347.875577 316.046085 
L 348.112383 329.039609 
L 348.585995 304.743845 
L 348.822802 309.787318 
L 349.059608 233.588348 
L 349.296414 237.143084 
L 349.53322 256.152317 
L 349.770026 256.638435 
L 350.006833 272.244843 
L 350.243639 296.429205 
L 350.480445 300.490314 
L 350.717251 278.635267 
L 350.954057 300.490314 
L 351.190864 281.815288 
L 351.42767 293.188419 
L 351.664476 316.62335 
L 351.901282 306.222454 
L 352.138088 326.305197 
L 352.374895 306.222454 
L 352.611701 302.667717 
L 352.848507 314.3548 
L 353.085313 295.345567 
L 353.322119 296.165891 
L 353.558926 292.104782 
L 353.795732 281.967199 
L 354.032538 292.368095 
L 354.506151 264.831546 
L 354.979763 262.522486 
L 355.453375 298.454696 
L 355.690182 293.461861 
L 355.926988 283.060964 
L 356.163794 293.198547 
L 356.4006 288.590555 
L 356.637406 308.511258 
L 357.111019 269.46992 
L 357.584631 246.328686 
L 357.821437 260.608397 
L 358.058244 249.235265 
L 358.29505 253.296375 
L 358.531856 229.112013 
L 358.768662 252.546943 
L 359.005468 263.920075 
L 359.242275 268.91291 
L 359.479081 264.851801 
L 359.952693 228.808189 
L 360.1895 243.12841 
L 360.426306 228.808189 
L 360.663112 207.024033 
L 360.899918 211.085143 
L 361.373531 251.878531 
L 361.847143 208.360858 
L 362.083949 209.849593 
L 362.320755 214.893066 
L 362.557562 233.568093 
L 362.794368 223.146942 
L 363.031174 226.701678 
L 363.26798 221.658206 
L 363.504786 210.285074 
L 363.741593 215.328546 
L 364.215205 186.677977 
L 364.452011 197.078873 
L 364.925624 242.551145 
L 365.16243 222.630441 
L 365.636042 254.400267 
L 365.872849 240.120556 
L 366.109655 247.209774 
L 366.346461 296.165891 
L 366.583267 306.303473 
L 366.820073 305.483149 
L 367.05688 310.475985 
L 367.293686 310.962103 
L 367.530492 296.641881 
L 367.767298 300.702991 
L 368.004104 290.28184 
L 368.240911 253.093826 
L 368.477717 257.154935 
L 368.714523 267.292517 
L 368.951329 255.605434 
L 369.188135 233.821279 
L 369.661748 213.262546 
L 369.898554 227.542257 
L 370.13536 226.620659 
L 370.372166 237.04181 
L 370.608973 226.640914 
L 370.845779 223.086177 
L 371.082585 203.003434 
L 371.319391 223.086177 
L 371.556198 204.076944 
L 371.793004 208.684936 
L 372.02981 220.058068 
L 372.266616 198.20302 
L 372.503422 220.058068 
L 372.740229 220.544186 
L 372.977035 220.058068 
L 373.450647 240.799095 
L 373.687453 259.474122 
L 374.161066 217.354037 
L 374.397872 217.840155 
L 374.634678 237.922898 
L 374.871484 227.522002 
L 375.108291 205.666955 
L 375.345097 225.861099 
L 375.581903 230.853935 
L 376.055515 219.156724 
L 376.529128 178.879836 
L 376.765934 200.917178 
L 377.00274 199.428442 
L 377.239547 209.829338 
L 377.476353 199.428442 
L 377.713159 343.947223 
L 377.949965 343.025625 
L 378.186771 329.272541 
L 378.423578 305.088179 
L 378.660384 305.574297 
L 378.89719 285.380152 
L 379.133996 295.720283 
L 379.370802 284.0332 
L 379.607609 282.544464 
L 379.844415 293.917596 
L 380.081221 318.101958 
L 380.318027 298.181255 
L 380.554833 245.194411 
L 380.79164 240.201576 
L 381.028446 220.007431 
L 381.265252 218.518695 
L 381.738864 177.806326 
L 381.975671 195.893961 
L 382.212477 198.628373 
L 382.449283 197.230785 
L 382.686089 194.162166 
L 383.633314 230.722278 
L 384.106927 247.787039 
L 384.580539 219.187107 
L 384.817345 220.108705 
L 385.054151 234.388416 
L 385.290958 223.967265 
L 385.527764 234.854279 
L 385.76457 254.937022 
L 386.001376 254.015424 
L 386.238182 239.735713 
L 386.474989 250.075844 
L 386.711795 239.18883 
L 387.185407 263.869438 
L 387.422213 265.358173 
L 387.65902 276.731305 
L 387.895826 272.670196 
L 388.132632 262.694653 
L 388.369438 281.369679 
L 388.606245 279.880944 
L 388.843051 275.272952 
L 389.316663 247.240157 
L 389.553469 252.232992 
L 389.790276 241.892861 
L 390.027082 251.868404 
L 390.263888 241.730821 
L 390.500694 263.585869 
L 390.7375 253.184973 
L 390.974307 231.329925 
L 391.211113 235.391035 
L 391.447919 236.87977 
L 391.684725 236.393653 
L 392.395144 204.512425 
L 392.63195 182.475083 
L 392.868756 182.961201 
L 393.105562 193.848215 
L 393.342369 188.855379 
L 393.579175 199.256276 
L 393.815981 194.212803 
L 394.052787 207.965887 
L 394.5264 187.10333 
L 394.763206 200.208256 
L 395.000012 222.458275 
L 395.236818 222.458275 
L 395.473625 227.45111 
L 395.710431 239.138193 
L 395.947237 304.237473 
L 396.420849 336.999789 
L 396.657656 206.375876 
L 396.894462 201.383041 
L 397.368074 178.15066 
L 398.078493 222.032922 
L 398.315299 246.217284 
L 398.552105 226.134541 
L 398.788911 245.143774 
L 399.262524 227.167541 
L 399.49933 229.233542 
L 399.736136 227.947355 
L 399.972942 215.085488 
L 400.209749 225.506639 
L 400.446555 226.995374 
L 400.683361 248.77953 
L 400.920167 294.596136 
L 401.156974 289.988144 
L 401.39378 282.898925 
L 401.630586 261.043878 
L 401.867392 282.331788 
L 402.104198 263.322555 
L 402.577811 284.347151 
L 402.814617 283.526827 
L 403.051423 303.60957 
L 403.288229 283.526827 
L 403.761842 262.988349 
L 403.998648 281.663376 
L 404.235454 276.67054 
L 404.47226 275.181805 
L 404.709067 259.332338 
L 404.945873 258.84622 
L 405.182679 234.661858 
L 405.419485 244.637401 
L 405.656291 233.750387 
L 405.893098 215.07536 
L 406.129904 225.962374 
L 406.36671 250.146736 
L 406.603516 239.259722 
L 406.840323 261.297064 
L 407.077129 262.117388 
L 407.313935 252.141845 
L 407.550741 260.962858 
L 407.787547 260.142534 
L 408.26116 297.512843 
L 408.497966 297.026725 
L 408.734772 292.033889 
L 408.971578 313.888937 
L 409.208385 314.375055 
L 409.445191 304.237473 
L 409.681997 309.230308 
L 409.918803 298.343294 
L 410.155609 279.334061 
L 410.392416 274.341226 
L 410.629222 254.420522 
L 410.866028 261.509741 
L 411.102834 251.169609 
L 411.33964 264.922693 
L 411.576447 249.316285 
L 412.050059 231.82617 
L 412.286865 253.863512 
L 412.523672 239.543291 
L 412.997284 265.48983 
L 413.23409 270.097822 
L 413.470896 291.881978 
L 413.707703 296.874813 
L 413.944509 307.761827 
L 414.181315 306.941503 
L 414.418121 301.948668 
L 414.654927 305.503404 
L 414.891734 315.924555 
L 415.12854 316.744879 
L 415.365346 313.190143 
L 415.602152 323.591039 
L 415.838958 219.784627 
L 416.075765 233.53771 
L 416.549377 189.432644 
L 417.022989 210.65979 
L 417.259796 230.580493 
L 417.496602 241.001644 
L 417.733408 261.084387 
L 418.207021 217.728753 
L 418.443827 241.913115 
L 418.917439 264.001094 
L 419.391052 296.955833 
L 419.627858 297.44195 
L 419.864664 308.815082 
L 420.10147 288.620937 
L 420.338276 293.66441 
L 420.575083 281.977327 
L 420.811889 261.894584 
L 421.048695 261.408466 
L 421.759114 231.795788 
L 421.99592 236.40378 
L 422.232726 225.030648 
L 422.469532 245.113391 
L 422.943145 220.473294 
L 423.179951 243.908224 
L 423.416757 245.39696 
L 423.89037 233.69975 
L 424.127176 229.63864 
L 424.363982 228.717042 
L 424.600788 250.754384 
L 424.837594 251.574707 
L 425.311207 203.955415 
L 425.548013 225.810462 
L 425.784819 222.255726 
L 426.021625 227.248561 
L 426.258432 242.854969 
L 426.495238 223.845736 
L 426.732044 247.280666 
L 426.96885 245.791931 
L 427.205656 258.785455 
L 427.442463 278.706159 
L 427.679269 258.623416 
L 428.152881 293.482115 
L 428.389687 293.968233 
L 428.626494 304.855247 
L 428.8633 305.776846 
L 429.100106 310.384838 
L 429.336912 297.391313 
L 429.573719 298.880049 
L 430.047331 256.435886 
L 430.284137 255.949768 
L 430.520943 267.3229 
L 430.75775 270.877636 
L 431.468168 321.646567 
L 431.704974 311.225416 
L 431.941781 324.218941 
L 432.415393 288.691829 
L 432.652199 283.698994 
L 433.125812 248.668128 
L 433.362618 270.70547 
L 433.599424 275.698305 
L 433.83623 299.133235 
L 434.073036 244.24243 
L 434.309843 247.797167 
L 434.546649 227.714424 
L 434.783455 249.751765 
L 435.020261 229.831062 
L 435.257068 239.806605 
L 435.73068 270.776362 
L 435.967486 260.355211 
L 436.441099 302.130962 
L 436.677905 301.644844 
L 436.914711 312.04574 
L 437.151517 290.190693 
L 437.388323 286.635956 
L 437.861936 252.800129 
L 438.098742 253.286247 
L 438.572354 261.448976 
L 438.809161 249.761893 
L 439.045967 293.613772 
L 439.282773 282.240641 
L 439.519579 286.30175 
L 439.756385 296.702646 
L 439.993192 287.881633 
L 440.229998 286.392897 
L 440.466804 272.639813 
L 440.70361 274.128549 
L 441.177223 236.424035 
L 441.414029 256.344739 
L 441.650835 245.943842 
L 441.887641 245.022244 
L 442.124448 243.533508 
L 442.59806 201.423551 
L 442.834866 223.278599 
L 443.071672 203.195856 
L 443.545285 232.271778 
L 443.782091 210.416731 
L 444.018897 209.596407 
L 444.49251 237.143084 
L 444.729316 241.751076 
L 444.966122 237.527927 
L 445.202928 230.884317 
L 445.439734 231.805915 
L 445.676541 217.526204 
L 445.913347 224.615423 
L 446.386959 185.412045 
L 446.623765 180.41921 
L 447.097378 216.18938 
L 447.334184 203.195856 
L 447.57099 214.568987 
L 447.807797 203.195856 
L 448.281409 221.992412 
L 448.755021 263.930202 
L 448.991828 263.109878 
L 449.228634 286.544809 
L 449.46544 297.917941 
L 449.702246 245.457725 
L 450.175859 210.842084 
L 450.412665 214.903193 
L 450.649471 192.865852 
L 450.886277 201.686865 
L 451.123083 192.865852 
L 451.596696 209.930613 
L 451.833502 196.937088 
L 452.070308 201.980561 
L 452.307114 201.494443 
L 452.543921 202.416042 
L 452.780727 222.498784 
L 453.017533 211.611771 
L 453.254339 212.097888 
L 453.491146 202.122345 
L 453.727952 210.943359 
L 454.201564 237.679839 
L 454.675177 217.171743 
L 454.911983 228.858826 
L 455.148789 215.105742 
L 455.385595 211.551006 
L 455.622401 225.304089 
L 455.859208 229.912081 
L 456.096014 240.312978 
L 456.33282 220.230235 
L 456.569626 231.603366 
L 457.043239 275.424864 
L 457.280045 274.60454 
L 457.753657 244.475361 
L 457.990463 239.431889 
L 458.22727 249.407432 
L 458.464076 248.485834 
L 458.700882 238.145702 
L 458.937688 233.53771 
L 459.174495 222.650696 
L 459.411301 236.970917 
L 459.884913 201.433678 
L 460.358526 221.992412 
L 460.595332 214.903193 
L 460.832138 215.723517 
L 461.068944 239.158448 
L 461.30575 228.737297 
L 461.542557 247.412323 
L 461.779363 223.227961 
L 462.016169 234.114975 
L 462.252975 215.439948 
L 462.489781 220.04794 
L 462.726588 208.674809 
L 462.963394 222.427892 
L 463.2002 198.992962 
L 463.673812 234.763132 
L 464.147425 262.036368 
L 464.621037 235.28976 
L 465.09465 270.978911 
L 465.331456 289.988144 
L 465.568262 269.905401 
L 465.805068 273.470265 
L 466.041875 259.717181 
L 466.278681 281.754523 
L 466.515487 271.414391 
L 466.752293 272.234715 
L 467.225906 299.528206 
L 467.462712 280.853179 
L 467.699518 290.990762 
L 467.936324 295.051871 
L 468.409937 274.969128 
L 468.646743 264.547977 
L 468.883549 240.363615 
L 469.120355 259.372848 
L 469.357161 250.551834 
L 469.593968 255.159826 
L 469.830774 275.08053 
L 470.06758 264.942948 
L 470.541193 257.327102 
L 470.777999 270.320626 
L 471.014805 269.500302 
L 471.251611 280.387316 
L 471.725224 249.417559 
L 471.96203 238.044428 
L 472.198836 233.000955 
L 472.435642 243.422106 
L 472.672448 243.908224 
L 472.909255 239.300232 
L 473.146061 240.120556 
L 473.619673 276.052766 
L 473.856479 254.197718 
L 474.093286 255.686454 
L 474.566898 223.683697 
L 474.803704 227.744806 
L 475.04051 238.145702 
L 475.514123 284.185112 
L 475.750929 289.177947 
L 475.987735 300.551079 
L 476.224542 242.824586 
L 476.461348 229.831062 
L 476.698154 240.252213 
L 476.93496 245.245048 
L 477.171766 261.094515 
L 477.408573 256.10168 
L 477.645379 267.788763 
L 477.882185 263.180771 
L 478.118991 285.218112 
L 478.355797 286.038436 
L 478.592604 299.031961 
L 479.066216 275.151422 
L 479.303022 288.144947 
L 479.539828 281.055728 
L 479.776635 292.42886 
L 480.013441 287.385388 
L 480.487053 245.153901 
L 481.434278 203.884522 
L 481.671084 228.068885 
L 481.907891 232.676877 
L 482.144697 219.683352 
L 482.618309 257.327102 
L 482.855115 243.006881 
L 483.091922 220.969539 
L 483.328728 228.058757 
L 483.565534 239.74584 
L 484.039146 283.638229 
L 484.275953 293.978361 
L 484.512759 279.698649 
L 484.749565 299.619353 
L 484.986371 288.246221 
L 485.223177 299.133235 
L 485.459984 277.278188 
L 485.69679 278.766924 
L 485.933596 300.621971 
L 486.170402 311.022867 
L 486.407208 232.352798 
L 486.880821 207.651936 
L 487.117627 217.627479 
L 487.354433 222.235471 
L 487.59124 235.988554 
L 487.828046 222.235471 
L 488.064852 237.841879 
L 488.301658 236.92028 
L 488.538464 221.313872 
L 488.775271 222.235471 
L 489.012077 207.91525 
L 489.248883 218.255381 
L 489.485689 207.91525 
L 489.722495 232.099612 
L 489.959302 242.500508 
L 490.196108 233.679495 
L 490.432914 255.534542 
L 490.66972 232.099612 
L 490.906526 246.419833 
L 491.143333 233.426308 
L 491.380139 236.981045 
L 491.853751 211.287692 
L 492.090557 233.325034 
L 492.327364 209.140672 
L 492.56417 220.827754 
L 492.800976 239.502781 
L 493.037782 219.308636 
L 493.274588 239.22934 
L 493.511395 235.674603 
L 493.748201 216.999577 
L 493.985007 230.75266 
L 494.221813 230.266542 
L 494.932232 280.944326 
L 495.169038 259.160171 
L 495.405844 248.273157 
L 495.879457 286.028309 
L 496.116263 287.517045 
L 496.353069 277.541502 
L 496.589875 288.914633 
L 496.826682 283.871161 
L 497.063488 302.880394 
L 497.300294 309.969612 
L 497.5371 233.406053 
L 497.773906 223.268471 
L 498.010713 230.357689 
L 498.247519 250.440432 
L 498.484325 243.351214 
L 498.721131 247.412323 
L 498.957937 234.418799 
L 499.194744 247.412323 
L 499.43155 227.32958 
L 499.668356 316.046085 
L 499.905162 334.721112 
L 500.141969 311.286181 
L 500.378775 321.707332 
L 500.615581 317.09934 
L 500.852387 338.883496 
L 501.089193 204.49217 
L 501.326 226.529512 
L 501.562806 237.902643 
L 501.799612 239.391379 
L 502.036418 258.400612 
L 502.273224 234.965681 
L 502.510031 249.285903 
L 502.746837 247.797167 
L 502.983643 242.753694 
L 503.220449 266.938056 
L 503.457255 244.900715 
L 503.694062 255.321866 
L 503.930868 251.260756 
L 504.167674 261.661652 
L 504.40448 258.106916 
L 504.641286 285.26875 
L 505.114899 247.625 
L 505.351705 242.632165 
L 505.588511 247.625 
L 505.825318 246.703402 
L 506.29893 270.58394 
L 506.535736 265.591105 
L 506.772542 266.077223 
L 507.009349 277.450354 
L 507.246155 272.406882 
L 507.482961 261.519868 
L 507.719767 238.084937 
L 507.956573 226.397855 
L 508.19338 231.39069 
L 508.430186 232.312288 
L 508.666992 242.65242 
L 508.903798 222.569677 
L 509.140604 223.390001 
L 509.614217 205.960651 
L 509.851023 186.039947 
L 510.087829 175.902365 
L 510.324635 154.047317 
L 510.561442 178.231679 
L 510.798248 182.839671 
L 511.035054 181.918073 
L 511.27186 168.164989 
L 511.508667 169.086588 
L 511.745473 164.914076 
L 512.219085 191.184694 
L 512.455891 191.184694 
L 512.692698 180.763543 
L 512.929504 190.901125 
L 513.16631 179.527994 
L 513.403116 179.041876 
L 513.639922 190.728959 
L 514.113535 231.775533 
L 514.350341 209.738191 
L 514.587147 204.745356 
L 514.823953 226.782698 
L 515.06076 204.998543 
L 515.297566 210.042015 
L 515.534372 191.366988 
L 516.007984 224.321726 
L 516.244791 219.713734 
L 516.481597 210.892721 
L 517.192016 237.234231 
L 517.428822 225.547148 
L 517.665628 241.153556 
L 517.902434 245.761548 
L 518.13924 234.388416 
L 518.376047 247.381941 
L 518.612853 225.344599 
L 518.849659 247.128755 
L 519.086465 228.119522 
L 519.560078 263.727653 
L 520.03369 302.819629 
L 520.270496 284.144602 
L 520.507302 280.589865 
L 520.744109 279.10113 
L 520.980915 264.274536 
L 521.217721 263.788418 
L 521.454527 245.113391 
L 521.691333 249.174501 
L 521.92814 259.312083 
L 522.164946 250.49107 
L 522.401752 264.244153 
L 522.638558 252.871022 
L 522.875365 274.726069 
L 523.112171 286.099201 
L 523.348977 265.905056 
L 523.585783 261.843947 
L 523.822589 241.923243 
L 524.059396 238.368506 
L 524.533008 216.574223 
L 524.769814 229.567748 
L 525.243427 204.907395 
L 525.480233 205.727719 
L 525.717039 224.402746 
L 525.953845 214.265164 
L 526.190651 234.459309 
L 526.427458 212.421967 
L 526.664264 226.742188 
L 526.90107 231.735023 
L 527.137876 240.556036 
L 527.374682 228.868954 
L 527.611489 239.209085 
L 527.848295 263.393447 
L 528.085101 261.904711 
L 528.558714 242.682802 
L 529.032326 202.152728 
L 529.269132 222.073431 
L 529.505938 232.211014 
L 529.742745 212.29031 
L 529.979551 207.297475 
L 530.216357 194.30395 
L 530.453163 210.153417 
L 530.926776 191.43788 
L 531.163582 178.606395 
L 531.400388 178.606395 
L 531.637194 189.027546 
L 531.874 210.811702 
L 532.110807 222.184833 
L 532.347613 222.184833 
L 532.584419 232.160376 
L 532.821225 232.160376 
L 533.294838 272.690451 
L 533.531644 265.601232 
L 534.005256 263.85931 
L 534.242063 240.161066 
L 534.478869 247.250284 
L 534.715675 261.529995 
L 534.952481 283.567337 
L 535.189287 273.429755 
L 535.426094 297.614117 
L 535.6629 301.675226 
L 535.899706 312.56224 
L 536.373318 286.868887 
L 536.610125 287.790486 
L 537.083737 310.850701 
L 537.320543 310.850701 
L 537.557349 306.789591 
L 537.794156 310.850701 
L 538.030962 288.995653 
L 538.267768 289.815977 
L 538.504574 309.89872 
L 538.74138 302.809501 
L 538.978187 322.730205 
L 539.214993 327.773678 
L 539.451799 322.730205 
L 539.688605 336.483289 
L 539.925412 320.633822 
L 540.162218 333.627346 
L 540.399024 319.347635 
L 540.63583 324.34047 
L 540.872636 313.919319 
L 541.109443 298.312911 
L 541.346249 308.713808 
L 541.819861 268.254625 
L 542.056667 277.075639 
L 542.293474 263.322555 
L 542.53028 281.997582 
L 543.003892 280.255659 
L 543.477505 258.441122 
L 543.714311 284.934544 
L 544.187923 282.625484 
L 544.424729 304.662826 
L 544.661536 297.573607 
L 544.898342 304.662826 
L 545.135148 305.483149 
L 545.371954 316.370163 
L 545.60876 311.762171 
L 546.082373 310.020249 
L 546.319179 334.204611 
L 546.555985 334.690729 
L 546.792792 327.601511 
L 547.029598 303.417149 
L 547.266404 315.104232 
L 547.50321 339.288594 
L 547.740016 325.008882 
L 547.976823 334.984425 
L 548.213629 339.045535 
L 548.450435 314.861173 
L 548.687241 334.781876 
L 548.924047 324.360725 
L 549.160854 302.505678 
L 549.634466 331.520836 
L 549.871272 336.128828 
L 550.108078 312.693897 
L 550.344885 326.973609 
L 550.581691 334.062827 
L 550.818497 318.456419 
L 551.055303 311.367201 
L 551.292109 318.456419 
L 551.528916 296.419077 
L 551.765722 296.419077 
L 552.002528 286.078946 
L 552.239334 310.263308 
L 552.476141 315.256143 
L 553.423365 294.575881 
L 553.660172 270.391518 
L 553.896978 259.504504 
L 554.133784 270.391518 
L 554.37059 293.826449 
L 554.844203 266.512703 
L 555.081009 276.852835 
L 555.317815 301.037197 
L 555.554621 304.591933 
L 555.791427 284.67123 
L 556.028234 280.61012 
L 556.738652 226.590276 
L 556.975458 248.445324 
L 557.212265 258.785455 
L 557.449071 257.863857 
L 557.922683 240.434507 
L 558.15949 243.989244 
L 558.396296 255.676327 
L 558.633102 250.683491 
L 558.869908 228.828444 
L 559.106714 223.784971 
L 559.343521 212.411839 
L 559.580327 235.84677 
L 559.817133 240.454762 
L 560.053939 254.207846 
L 560.290745 276.062893 
L 560.527552 274.574157 
L 560.764358 276.062893 
L 561.23797 296.92545 
L 561.474776 292.317458 
L 561.948389 313.828172 
L 562.422001 351.512432 
L 562.895614 327.358452 
L 563.13242 327.84457 
L 563.369226 317.869027 
L 563.606032 324.958245 
L 563.842839 349.142607 
L 564.079645 359.482739 
L 564.316451 337.627691 
L 564.553257 351.380775 
L 564.790063 349.892039 
L 565.02687 339.470888 
L 565.500482 295.365822 
L 566.210901 326.163412 
L 566.684513 291.547772 
L 567.158125 331.581601 
L 567.394932 330.761277 
L 567.631738 312.08625 
L 567.868544 317.129723 
L 568.10535 316.643605 
L 568.342156 321.63644 
L 568.578963 322.456764 
L 568.815769 336.776985 
L 569.052575 312.592623 
L 569.289381 321.413636 
L 569.762994 295.720283 
L 570.236606 288.104437 
L 570.473412 288.590555 
L 570.710219 274.837471 
L 571.420637 256.527033 
L 571.657443 258.015769 
L 571.89425 235.978427 
L 572.131056 254.98766 
L 572.367862 249.944187 
L 572.604668 239.523036 
L 572.841474 239.523036 
L 573.315087 197.078873 
L 573.551893 187.10333 
L 573.788699 201.383041 
L 574.025505 196.390206 
L 574.262312 196.390206 
L 574.499118 215.065233 
L 574.735924 202.071708 
L 575.209537 241.001644 
L 575.446343 230.661513 
L 575.683149 252.445668 
L 576.156761 213.242291 
L 576.393568 223.663442 
L 576.630374 243.857587 
L 576.86718 254.197718 
L 577.103986 234.277014 
L 577.340792 238.338124 
L 577.814405 259.686799 
L 578.051211 239.604056 
L 578.288017 258.613288 
L 578.524823 259.433612 
L 578.76163 273.186696 
L 578.998436 280.275914 
L 579.235242 300.358657 
L 579.472048 310.759553 
L 579.708854 300.338402 
L 580.182467 345.810675 
L 580.419273 323.773333 
L 580.656079 319.712224 
L 580.892886 318.223488 
L 581.129692 299.214255 
L 581.366498 313.534476 
L 581.603304 318.527311 
L 581.84011 308.389729 
L 582.076917 328.310433 
L 582.550529 304.055178 
L 582.787335 283.861033 
L 583.260948 283.861033 
L 583.497754 283.374916 
L 583.73456 273.034784 
L 583.971366 273.520902 
L 584.208172 273.520902 
L 584.444979 262.14777 
L 584.681785 266.20888 
L 584.918591 266.20888 
L 585.155397 288.063927 
L 585.62901 311.195034 
L 585.865816 302.374021 
L 586.102622 324.411363 
L 586.339428 323.591039 
L 586.576235 324.411363 
L 586.813041 343.420595 
L 587.049847 327.571128 
L 587.286653 323.510019 
L 587.760266 332.108228 
L 587.997072 325.01901 
L 588.233878 304.936267 
L 588.470684 238.439398 
L 588.944297 266.512703 
L 589.181103 266.512703 
L 589.417909 259.423485 
L 589.891521 235.24925 
L 590.128328 235.24925 
L 590.365134 226.428237 
L 590.838746 245.386832 
L 591.075552 245.386832 
L 591.549165 286.180221 
L 591.785971 271.900509 
L 592.022777 278.989728 
L 592.259583 278.989728 
L 592.49639 274.928618 
L 592.733196 253.144463 
L 592.970002 246.055244 
L 593.443615 219.865646 
L 593.680421 218.944048 
L 593.917227 219.430166 
L 594.154033 232.42369 
L 594.627646 213.627134 
L 594.864452 213.627134 
L 595.101258 232.302161 
L 595.338064 232.302161 
L 595.57487 212.108016 
L 595.811677 201.970434 
L 596.048483 211.945977 
L 596.285289 197.625755 
L 596.522095 197.139638 
L 596.995708 197.139638 
L 597.232514 199.620864 
L 597.46932 223.055795 
L 597.706126 204.046562 
L 597.942932 204.046562 
L 598.179739 212.867575 
L 598.416545 212.867575 
L 598.653351 223.207706 
L 598.890157 223.207706 
L 599.126964 199.772776 
L 599.36377 199.772776 
L 599.600576 204.380768 
L 599.837382 218.133851 
L 600.310995 258.92724 
L 600.547801 262.988349 
L 600.784607 280.387316 
L 601.021413 280.387316 
L 601.258219 256.952386 
L 601.495026 264.041604 
L 601.731832 264.041604 
L 601.968638 243.847459 
L 602.205444 243.361341 
L 602.44225 229.08163 
L 602.679057 228.261306 
L 602.915863 242.541018 
L 603.152669 232.119867 
L 603.626281 232.119867 
L 603.863088 212.199163 
L 604.099894 208.644426 
L 604.3367 228.727169 
L 604.810313 198.597991 
L 605.047119 217.273018 
L 605.283925 217.273018 
L 605.520731 217.759136 
L 605.757537 197.676393 
L 605.994344 196.754794 
L 606.23115 189.665576 
L 606.467956 191.154312 
L 606.704762 197.757412 
L 607.178375 197.757412 
L 607.415181 211.510496 
L 607.888793 211.510496 
L 608.125599 227.359963 
L 608.362406 205.322621 
L 608.599212 215.298164 
L 608.836018 237.082319 
L 609.30963 212.361202 
L 609.546437 212.361202 
L 610.020049 220.523931 
L 610.493662 210.872466 
L 610.730468 225.192687 
L 610.967274 213.505605 
L 611.677693 213.505605 
L 611.914499 211.7333 
L 612.151305 212.654898 
L 612.388111 212.654898 
L 612.624917 193.979872 
L 612.861724 198.040981 
L 613.09853 198.040981 
L 613.335336 196.552245 
L 613.572142 219.987176 
L 613.808948 219.987176 
L 614.045755 231.360307 
L 614.282561 231.360307 
L 614.519367 207.925377 
L 614.756173 212.533369 
L 615.229786 184.460064 
L 615.466592 177.370846 
L 615.703398 197.291549 
L 615.940204 197.291549 
L 616.177011 175.507394 
L 616.413817 197.544736 
L 616.887429 197.544736 
L 617.124235 177.461993 
L 617.361042 177.461993 
L 617.597848 172.854001 
L 617.834654 191.863234 
L 618.07146 191.863234 
L 618.308266 192.683557 
L 618.781879 219.430166 
L 619.018685 218.609842 
L 619.492297 188.227477 
L 619.729104 188.227477 
L 619.96591 166.190136 
L 620.202716 162.129026 
L 621.86036 162.129026 
L 622.097166 166.190136 
L 622.333972 166.190136 
L 622.570778 176.611287 
L 622.807584 171.618451 
L 623.044391 171.618451 
L 623.281197 183.102985 
L 623.518003 183.102985 
L 623.754809 194.790068 
L 623.991615 218.97443 
L 624.228422 208.998887 
L 624.465228 209.819211 
L 624.702034 193.969744 
L 624.93884 189.908635 
L 625.175646 189.908635 
L 625.412453 186.353898 
L 625.649259 201.960306 
L 625.886065 206.953141 
L 626.122871 196.066127 
L 626.359677 211.915594 
L 626.83329 211.915594 
L 627.070096 219.004813 
L 627.306902 237.679839 
L 627.543709 227.258688 
L 627.780515 231.319798 
L 628.254127 231.319798 
L 628.490933 241.659929 
L 629.201352 241.659929 
L 629.438158 226.053521 
L 629.911771 226.053521 
L 630.148577 206.132817 
L 630.622189 206.132817 
L 630.858995 193.139293 
L 631.095802 172.945148 
L 631.332608 172.945148 
L 631.569414 168.884039 
L 632.043026 168.884039 
L 632.279833 183.16375 
L 632.990251 183.16375 
L 633.227058 171.476667 
L 633.937476 171.476667 
L 634.174282 170.656343 
L 634.411089 189.665576 
L 634.647895 199.641119 
L 635.121507 199.641119 
L 635.358313 194.597646 
L 636.068732 194.597646 
L 636.305538 211.65228 
L 636.542344 215.207017 
L 636.779151 211.145908 
L 637.015957 211.632025 
L 637.252763 213.120761 
L 637.489569 211.632025 
L 637.963182 172.874256 
L 638.199988 174.200952 
L 638.436794 173.714835 
L 638.910406 173.714835 
L 639.147213 180.804053 
L 639.384019 180.804053 
L 639.620825 194.557137 
L 639.857631 199.600609 
L 640.094438 183.751142 
L 640.331244 203.671846 
L 640.56805 183.751142 
L 640.804856 184.23726 
L 641.278469 184.23726 
L 641.515275 183.751142 
L 642.699306 183.751142 
L 643.172918 163.638017 
L 643.883337 163.638017 
L 644.120143 158.594544 
L 644.356949 169.967676 
L 644.593755 150.958443 
L 644.830562 161.096026 
L 645.067368 161.096026 
L 645.304174 149.722894 
L 645.54098 165.572361 
L 646.014593 165.572361 
L 646.251399 160.579526 
L 646.488205 160.579526 
L 646.725011 146.826442 
L 646.961818 146.826442 
L 647.198624 157.227338 
L 647.672236 157.227338 
L 647.909042 152.133228 
L 648.145849 157.126063 
L 648.619461 157.126063 
L 648.856267 158.614799 
L 649.32988 158.614799 
L 649.566686 167.435812 
L 649.803492 167.435812 
L 650.040298 151.586346 
L 650.277104 150.664747 
L 650.987523 150.664747 
L 651.224329 155.272739 
L 651.461136 144.932608 
L 651.934748 144.932608 
L 652.171554 134.531712 
L 652.40836 138.592821 
L 652.645167 139.514419 
L 652.881973 123.908012 
L 653.355585 123.908012 
L 653.592391 124.728335 
L 654.776422 124.728335 
L 655.013229 100.543973 
L 655.486841 100.543973 
L 655.723647 95.935981 
L 656.907678 95.935981 
L 657.144485 100.543973 
L 657.618097 100.543973 
L 657.854903 95.551138 
L 659.512547 95.551138 
L 659.749353 98.103257 
L 662.591027 98.103257 
L 662.827834 108.524408 
L 663.775058 108.524408 
L 664.011865 118.499951 
L 665.432702 118.499951 
L 665.669508 108.524408 
L 673.0105 108.524408 
L 673.247307 98.103257 
L 685.324423 98.103257 
L 685.56123 98.589374 
L 685.798036 94.528265 
L 690.297354 94.528265 
L 690.53416 104.503808 
L 691.718191 104.503808 
L 691.954997 94.528265 
L 697.40154 94.528265 
L 697.638346 89.920273 
L 711.373106 89.920273 
L 711.609912 88.887273 
L 871.690909 88.887273 
L 871.690909 88.887273 
" style="fill:none;stroke:#8dd3c7;stroke-linecap:square;stroke-width:1.5;"/>
   </g>
   <g id="line2d_18">
    <path clip-path="url(#pb1cce35975)" d="M 161.509091 204.107326 
L 281.096226 204.107326 
L 281.333032 197.6055 
L 281.569838 175.568159 
L 282.280257 148.730403 
L 646.488205 148.730403 
L 646.725011 146.826442 
L 651.224329 146.826442 
L 651.461136 144.932608 
L 651.934748 144.932608 
L 652.171554 134.531712 
L 652.645167 134.531712 
L 652.881973 123.908012 
L 654.776422 123.908012 
L 655.013229 100.543973 
L 655.486841 100.543973 
L 655.723647 95.935981 
L 657.618097 95.935981 
L 657.854903 95.551138 
L 685.56123 95.551138 
L 685.798036 94.528265 
L 697.40154 94.528265 
L 697.638346 89.920273 
L 711.373106 89.920273 
L 711.609912 88.887273 
L 871.690909 88.887273 
L 871.690909 88.887273 
" style="fill:none;stroke:#feffb3;stroke-linecap:square;stroke-width:1.5;"/>
   </g>
   <g id="line2d_19">
    <path clip-path="url(#pb1cce35975)" d="M 161.509091 204.107326 
L 163.166734 204.107326 
L 163.403541 219.415351 
L 165.061184 219.415351 
L 165.29799 233.886837 
L 166.955634 233.886837 
L 167.19244 247.567499 
L 168.850083 247.567499 
L 169.08689 260.500553 
L 170.744533 260.500553 
L 170.981339 272.726855 
L 172.638983 272.726855 
L 172.875789 284.285025 
L 174.533432 284.285025 
L 174.770239 295.211575 
L 176.427882 295.211575 
L 176.664688 305.541022 
L 178.322332 305.541022 
L 178.559138 315.305995 
L 180.216781 315.305995 
L 180.453588 324.537341 
L 182.111231 324.537341 
L 182.348037 333.264221 
L 184.005681 333.264221 
L 184.242487 341.514203 
L 185.90013 341.514203 
L 186.136937 349.313348 
L 187.79458 349.313348 
L 188.031386 356.686293 
L 189.68903 356.686293 
L 189.925836 363.656328 
L 191.583479 363.656328 
L 191.820286 370.245472 
L 193.477929 370.245472 
L 193.714735 376.474538 
L 195.372379 376.474538 
L 195.609185 382.363204 
L 197.266828 382.363204 
L 197.503635 387.930072 
L 199.161278 387.930072 
L 199.398084 393.192727 
L 201.055728 393.192727 
L 201.292534 398.167794 
L 202.950177 398.167794 
L 203.186984 402.870988 
L 204.844627 402.870988 
L 205.081433 407.317166 
L 206.739077 407.317166 
L 206.975883 411.520374 
L 208.633526 411.520374 
L 208.870333 415.493889 
L 210.527976 415.493889 
L 210.764782 419.250263 
L 212.422426 419.250263 
L 212.659232 422.801362 
L 214.316875 422.801362 
L 214.553682 426.158405 
L 216.211325 426.158405 
L 216.448131 429.331995 
L 218.105775 429.331995 
L 218.342581 432.332157 
L 220.000224 432.332157 
L 220.237031 435.16837 
L 221.894674 435.16837 
L 222.13148 437.849592 
L 223.789124 437.849592 
L 224.02593 440.384293 
L 225.683573 440.384293 
L 225.92038 442.78048 
L 227.578023 442.78048 
L 227.814829 445.045723 
L 229.472473 445.045723 
L 229.709279 447.187177 
L 231.366922 447.187177 
L 231.603729 449.211606 
L 233.261372 449.211606 
L 233.498178 451.125407 
L 235.155822 451.125407 
L 235.392628 452.934624 
L 237.050271 452.934624 
L 237.287078 454.644973 
L 238.944721 454.644973 
L 239.181527 456.261856 
L 240.839171 456.261856 
L 241.075977 457.790381 
L 242.73362 457.790381 
L 242.970427 459.235377 
L 244.62807 459.235377 
L 244.864876 460.601409 
L 246.52252 460.601409 
L 246.759326 461.89279 
L 248.416969 461.89279 
L 248.653776 463.113602 
L 250.311419 463.113602 
L 250.548225 464.267699 
L 252.205869 464.267699 
L 252.442675 465.358729 
L 254.100318 465.358729 
L 254.337124 466.390137 
L 255.994768 466.390137 
L 256.231574 467.365182 
L 257.889218 467.365182 
L 258.126024 468.286943 
L 259.783667 468.286943 
L 260.020473 469.158333 
L 261.678117 469.158333 
L 261.914923 469.982104 
L 263.572567 469.982104 
L 263.809373 470.760859 
L 265.467016 470.760859 
L 265.703822 471.497057 
L 267.361466 471.497057 
L 267.598272 472.193023 
L 269.255916 472.193023 
L 269.492722 472.850957 
L 271.150365 472.850957 
L 271.387171 473.472938 
L 273.044815 473.472938 
L 273.281621 474.060928 
L 274.939265 474.060928 
L 275.176071 474.616787 
L 276.833714 474.616787 
L 277.07052 475.14227 
L 278.728164 475.14227 
L 278.96497 475.639036 
L 280.622614 475.639036 
L 280.85942 476.108656 
L 282.517063 476.108656 
L 282.753869 476.552613 
L 284.411513 476.552613 
L 284.648319 476.972308 
L 286.305963 476.972308 
L 286.542769 477.369069 
L 288.200412 477.369069 
L 288.437218 477.744147 
L 290.094862 477.744147 
L 290.331668 478.098729 
L 291.989312 478.098729 
L 292.226118 478.433934 
L 293.883761 478.433934 
L 294.120567 478.750821 
L 295.778211 478.750821 
L 296.015017 479.050391 
L 297.672661 479.050391 
L 297.909467 479.33359 
L 299.56711 479.33359 
L 299.803916 479.601313 
L 301.46156 479.601313 
L 301.698366 479.854406 
L 303.35601 479.854406 
L 303.592816 480.093669 
L 305.250459 480.093669 
L 305.487265 480.319856 
L 307.144909 480.319856 
L 307.381715 480.533683 
L 309.039359 480.533683 
L 309.276165 480.735825 
L 310.933808 480.735825 
L 311.170614 480.92692 
L 312.828258 480.92692 
L 313.065064 481.107573 
L 314.722708 481.107573 
L 314.959514 481.278353 
L 316.617157 481.278353 
L 316.853963 481.439801 
L 318.511607 481.439801 
L 318.748413 481.592426 
L 320.406057 481.592426 
L 320.642863 481.736711 
L 322.300506 481.736711 
L 322.537312 481.873111 
L 324.194956 481.873111 
L 324.431762 482.002057 
L 326.089406 482.002057 
L 326.563018 482.123956 
L 327.983855 482.123956 
L 328.457468 482.239194 
L 331.772755 482.348135 
L 332.246367 482.451123 
L 335.561654 482.548482 
L 336.035266 482.640521 
L 339.350553 482.72753 
L 339.824166 482.809785 
L 343.139453 482.887545 
L 343.613065 482.961055 
L 346.928352 483.030548 
L 347.401964 483.096244 
L 350.717251 483.158349 
L 351.190864 483.217061 
L 356.4006 483.325034 
L 357.111019 483.374637 
L 362.083949 483.465858 
L 362.794368 483.507766 
L 367.767298 483.584835 
L 368.714523 483.62024 
L 375.345097 483.715265 
L 376.292322 483.743542 
L 384.817345 483.842022 
L 386.238182 483.863373 
L 398.078493 483.96909 
L 400.209749 483.997117 
L 422.706338 484.105749 
L 426.96885 484.125449 
L 871.690909 484.232727 
L 871.690909 484.232727 
" style="fill:none;stroke:#bfbbd9;stroke-linecap:square;stroke-width:1.5;"/>
   </g>
   <g id="patch_3">
    <path d="M 126 504 
L 126 69.12 
" style="fill:none;stroke:#ffffff;stroke-linecap:square;stroke-linejoin:miter;stroke-width:0.8;"/>
   </g>
   <g id="patch_4">
    <path d="M 907.2 504 
L 907.2 69.12 
" style="fill:none;stroke:#ffffff;stroke-linecap:square;stroke-linejoin:miter;stroke-width:0.8;"/>
   </g>
   <g id="patch_5">
    <path d="M 126 504 
L 907.2 504 
" style="fill:none;stroke:#ffffff;stroke-linecap:square;stroke-linejoin:miter;stroke-width:0.8;"/>
   </g>
   <g id="patch_6">
    <path d="M 126 69.12 
L 907.2 69.12 
" style="fill:none;stroke:#ffffff;stroke-linecap:square;stroke-linejoin:miter;stroke-width:0.8;"/>
   </g>
   <g id="text_18">
    <!-- instance 10 with error 0.007550719479330836 -->
    <g style="fill:#ffffff;" transform="translate(374.229375 63.12)scale(0.12 -0.12)">
     <defs>
      <path d="M 2834 3397 
L 2834 2853 
Q 2591 2978 2328 3040 
Q 2066 3103 1784 3103 
Q 1356 3103 1142 2972 
Q 928 2841 928 2578 
Q 928 2378 1081 2264 
Q 1234 2150 1697 2047 
L 1894 2003 
Q 2506 1872 2764 1633 
Q 3022 1394 3022 966 
Q 3022 478 2636 193 
Q 2250 -91 1575 -91 
Q 1294 -91 989 -36 
Q 684 19 347 128 
L 347 722 
Q 666 556 975 473 
Q 1284 391 1588 391 
Q 1994 391 2212 530 
Q 2431 669 2431 922 
Q 2431 1156 2273 1281 
Q 2116 1406 1581 1522 
L 1381 1569 
Q 847 1681 609 1914 
Q 372 2147 372 2553 
Q 372 3047 722 3315 
Q 1072 3584 1716 3584 
Q 2034 3584 2315 3537 
Q 2597 3491 2834 3397 
z
" id="DejaVuSans-73" transform="scale(0.015625)"/>
      <path d="M 3122 3366 
L 3122 2828 
Q 2878 2963 2633 3030 
Q 2388 3097 2138 3097 
Q 1578 3097 1268 2742 
Q 959 2388 959 1747 
Q 959 1106 1268 751 
Q 1578 397 2138 397 
Q 2388 397 2633 464 
Q 2878 531 3122 666 
L 3122 134 
Q 2881 22 2623 -34 
Q 2366 -91 2075 -91 
Q 1284 -91 818 406 
Q 353 903 353 1747 
Q 353 2603 823 3093 
Q 1294 3584 2113 3584 
Q 2378 3584 2631 3529 
Q 2884 3475 3122 3366 
z
" id="DejaVuSans-63" transform="scale(0.015625)"/>
      <path id="DejaVuSans-20" transform="scale(0.015625)"/>
      <path d="M 269 3500 
L 844 3500 
L 1563 769 
L 2278 3500 
L 2956 3500 
L 3675 769 
L 4391 3500 
L 4966 3500 
L 4050 0 
L 3372 0 
L 2619 2869 
L 1863 0 
L 1184 0 
L 269 3500 
z
" id="DejaVuSans-77" transform="scale(0.015625)"/>
      <path d="M 3513 2113 
L 3513 0 
L 2938 0 
L 2938 2094 
Q 2938 2591 2744 2837 
Q 2550 3084 2163 3084 
Q 1697 3084 1428 2787 
Q 1159 2491 1159 1978 
L 1159 0 
L 581 0 
L 581 4863 
L 1159 4863 
L 1159 2956 
Q 1366 3272 1645 3428 
Q 1925 3584 2291 3584 
Q 2894 3584 3203 3211 
Q 3513 2838 3513 2113 
z
" id="DejaVuSans-68" transform="scale(0.015625)"/>
      <path d="M 684 794 
L 1344 794 
L 1344 0 
L 684 0 
L 684 794 
z
" id="DejaVuSans-2e" transform="scale(0.015625)"/>
      <path d="M 525 4666 
L 3525 4666 
L 3525 4397 
L 1831 0 
L 1172 0 
L 2766 4134 
L 525 4134 
L 525 4666 
z
" id="DejaVuSans-37" transform="scale(0.015625)"/>
      <path d="M 703 97 
L 703 672 
Q 941 559 1184 500 
Q 1428 441 1663 441 
Q 2288 441 2617 861 
Q 2947 1281 2994 2138 
Q 2813 1869 2534 1725 
Q 2256 1581 1919 1581 
Q 1219 1581 811 2004 
Q 403 2428 403 3163 
Q 403 3881 828 4315 
Q 1253 4750 1959 4750 
Q 2769 4750 3195 4129 
Q 3622 3509 3622 2328 
Q 3622 1225 3098 567 
Q 2575 -91 1691 -91 
Q 1453 -91 1209 -44 
Q 966 3 703 97 
z
M 1959 2075 
Q 2384 2075 2632 2365 
Q 2881 2656 2881 3163 
Q 2881 3666 2632 3958 
Q 2384 4250 1959 4250 
Q 1534 4250 1286 3958 
Q 1038 3666 1038 3163 
Q 1038 2656 1286 2365 
Q 1534 2075 1959 2075 
z
" id="DejaVuSans-39" transform="scale(0.015625)"/>
      <path d="M 2034 2216 
Q 1584 2216 1326 1975 
Q 1069 1734 1069 1313 
Q 1069 891 1326 650 
Q 1584 409 2034 409 
Q 2484 409 2743 651 
Q 3003 894 3003 1313 
Q 3003 1734 2745 1975 
Q 2488 2216 2034 2216 
z
M 1403 2484 
Q 997 2584 770 2862 
Q 544 3141 544 3541 
Q 544 4100 942 4425 
Q 1341 4750 2034 4750 
Q 2731 4750 3128 4425 
Q 3525 4100 3525 3541 
Q 3525 3141 3298 2862 
Q 3072 2584 2669 2484 
Q 3125 2378 3379 2068 
Q 3634 1759 3634 1313 
Q 3634 634 3220 271 
Q 2806 -91 2034 -91 
Q 1263 -91 848 271 
Q 434 634 434 1313 
Q 434 1759 690 2068 
Q 947 2378 1403 2484 
z
M 1172 3481 
Q 1172 3119 1398 2916 
Q 1625 2713 2034 2713 
Q 2441 2713 2670 2916 
Q 2900 3119 2900 3481 
Q 2900 3844 2670 4047 
Q 2441 4250 2034 4250 
Q 1625 4250 1398 4047 
Q 1172 3844 1172 3481 
z
" id="DejaVuSans-38" transform="scale(0.015625)"/>
      <path d="M 2113 2584 
Q 1688 2584 1439 2293 
Q 1191 2003 1191 1497 
Q 1191 994 1439 701 
Q 1688 409 2113 409 
Q 2538 409 2786 701 
Q 3034 994 3034 1497 
Q 3034 2003 2786 2293 
Q 2538 2584 2113 2584 
z
M 3366 4563 
L 3366 3988 
Q 3128 4100 2886 4159 
Q 2644 4219 2406 4219 
Q 1781 4219 1451 3797 
Q 1122 3375 1075 2522 
Q 1259 2794 1537 2939 
Q 1816 3084 2150 3084 
Q 2853 3084 3261 2657 
Q 3669 2231 3669 1497 
Q 3669 778 3244 343 
Q 2819 -91 2113 -91 
Q 1303 -91 875 529 
Q 447 1150 447 2328 
Q 447 3434 972 4092 
Q 1497 4750 2381 4750 
Q 2619 4750 2861 4703 
Q 3103 4656 3366 4563 
z
" id="DejaVuSans-36" transform="scale(0.015625)"/>
     </defs>
     <use xlink:href="#DejaVuSans-69"/>
     <use x="27.783203" xlink:href="#DejaVuSans-6e"/>
     <use x="91.162109" xlink:href="#DejaVuSans-73"/>
     <use x="143.261719" xlink:href="#DejaVuSans-74"/>
     <use x="182.470703" xlink:href="#DejaVuSans-61"/>
     <use x="243.75" xlink:href="#DejaVuSans-6e"/>
     <use x="307.128906" xlink:href="#DejaVuSans-63"/>
     <use x="362.109375" xlink:href="#DejaVuSans-65"/>
     <use x="423.632812" xlink:href="#DejaVuSans-20"/>
     <use x="455.419922" xlink:href="#DejaVuSans-31"/>
     <use x="519.042969" xlink:href="#DejaVuSans-30"/>
     <use x="582.666016" xlink:href="#DejaVuSans-20"/>
     <use x="614.453125" xlink:href="#DejaVuSans-77"/>
     <use x="696.240234" xlink:href="#DejaVuSans-69"/>
     <use x="724.023438" xlink:href="#DejaVuSans-74"/>
     <use x="763.232422" xlink:href="#DejaVuSans-68"/>
     <use x="826.611328" xlink:href="#DejaVuSans-20"/>
     <use x="858.398438" xlink:href="#DejaVuSans-65"/>
     <use x="919.921875" xlink:href="#DejaVuSans-72"/>
     <use x="959.285156" xlink:href="#DejaVuSans-72"/>
     <use x="998.148438" xlink:href="#DejaVuSans-6f"/>
     <use x="1059.330078" xlink:href="#DejaVuSans-72"/>
     <use x="1100.443359" xlink:href="#DejaVuSans-20"/>
     <use x="1132.230469" xlink:href="#DejaVuSans-30"/>
     <use x="1195.853516" xlink:href="#DejaVuSans-2e"/>
     <use x="1227.640625" xlink:href="#DejaVuSans-30"/>
     <use x="1291.263672" xlink:href="#DejaVuSans-30"/>
     <use x="1354.886719" xlink:href="#DejaVuSans-37"/>
     <use x="1418.509766" xlink:href="#DejaVuSans-35"/>
     <use x="1482.132812" xlink:href="#DejaVuSans-35"/>
     <use x="1545.755859" xlink:href="#DejaVuSans-30"/>
     <use x="1609.378906" xlink:href="#DejaVuSans-37"/>
     <use x="1673.001953" xlink:href="#DejaVuSans-31"/>
     <use x="1736.625" xlink:href="#DejaVuSans-39"/>
     <use x="1800.248047" xlink:href="#DejaVuSans-34"/>
     <use x="1863.871094" xlink:href="#DejaVuSans-37"/>
     <use x="1927.494141" xlink:href="#DejaVuSans-39"/>
     <use x="1991.117188" xlink:href="#DejaVuSans-33"/>
     <use x="2054.740234" xlink:href="#DejaVuSans-33"/>
     <use x="2118.363281" xlink:href="#DejaVuSans-30"/>
     <use x="2181.986328" xlink:href="#DejaVuSans-38"/>
     <use x="2245.609375" xlink:href="#DejaVuSans-33"/>
     <use x="2309.232422" xlink:href="#DejaVuSans-36"/>
    </g>
   </g>
   <g id="legend_1">
    <g id="patch_7">
     <path d="M 805.348438 499 
L 900.2 499 
Q 902.2 499 902.2 497 
L 902.2 453.965625 
Q 902.2 451.965625 900.2 451.965625 
L 805.348438 451.965625 
Q 803.348438 451.965625 803.348438 453.965625 
L 803.348438 497 
Q 803.348438 499 805.348438 499 
z
" style="opacity:0.8;stroke:#cccccc;stroke-linejoin:miter;"/>
    </g>
    <g id="line2d_20">
     <path d="M 807.348438 460.064062 
L 827.348438 460.064062 
" style="fill:none;stroke:#8dd3c7;stroke-linecap:square;stroke-width:1.5;"/>
    </g>
    <g id="line2d_21"/>
    <g id="text_19">
     <!-- cost -->
     <g style="fill:#ffffff;" transform="translate(835.348438 463.564062)scale(0.1 -0.1)">
      <use xlink:href="#DejaVuSans-63"/>
      <use x="54.980469" xlink:href="#DejaVuSans-6f"/>
      <use x="116.162109" xlink:href="#DejaVuSans-73"/>
      <use x="168.261719" xlink:href="#DejaVuSans-74"/>
     </g>
    </g>
    <g id="line2d_22">
     <path d="M 807.348438 474.742188 
L 827.348438 474.742188 
" style="fill:none;stroke:#feffb3;stroke-linecap:square;stroke-width:1.5;"/>
    </g>
    <g id="line2d_23"/>
    <g id="text_20">
     <!-- best cost -->
     <g style="fill:#ffffff;" transform="translate(835.348438 478.242188)scale(0.1 -0.1)">
      <defs>
       <path d="M 3116 1747 
Q 3116 2381 2855 2742 
Q 2594 3103 2138 3103 
Q 1681 3103 1420 2742 
Q 1159 2381 1159 1747 
Q 1159 1113 1420 752 
Q 1681 391 2138 391 
Q 2594 391 2855 752 
Q 3116 1113 3116 1747 
z
M 1159 2969 
Q 1341 3281 1617 3432 
Q 1894 3584 2278 3584 
Q 2916 3584 3314 3078 
Q 3713 2572 3713 1747 
Q 3713 922 3314 415 
Q 2916 -91 2278 -91 
Q 1894 -91 1617 61 
Q 1341 213 1159 525 
L 1159 0 
L 581 0 
L 581 4863 
L 1159 4863 
L 1159 2969 
z
" id="DejaVuSans-62" transform="scale(0.015625)"/>
      </defs>
      <use xlink:href="#DejaVuSans-62"/>
      <use x="63.476562" xlink:href="#DejaVuSans-65"/>
      <use x="125" xlink:href="#DejaVuSans-73"/>
      <use x="177.099609" xlink:href="#DejaVuSans-74"/>
      <use x="216.308594" xlink:href="#DejaVuSans-20"/>
      <use x="248.095703" xlink:href="#DejaVuSans-63"/>
      <use x="303.076172" xlink:href="#DejaVuSans-6f"/>
      <use x="364.257812" xlink:href="#DejaVuSans-73"/>
      <use x="416.357422" xlink:href="#DejaVuSans-74"/>
     </g>
    </g>
    <g id="line2d_24">
     <path d="M 807.348438 489.420313 
L 827.348438 489.420313 
" style="fill:none;stroke:#bfbbd9;stroke-linecap:square;stroke-width:1.5;"/>
    </g>
    <g id="line2d_25"/>
    <g id="text_21">
     <!-- temperature -->
     <g style="fill:#ffffff;" transform="translate(835.348438 492.920313)scale(0.1 -0.1)">
      <defs>
       <path d="M 3328 2828 
Q 3544 3216 3844 3400 
Q 4144 3584 4550 3584 
Q 5097 3584 5394 3201 
Q 5691 2819 5691 2113 
L 5691 0 
L 5113 0 
L 5113 2094 
Q 5113 2597 4934 2840 
Q 4756 3084 4391 3084 
Q 3944 3084 3684 2787 
Q 3425 2491 3425 1978 
L 3425 0 
L 2847 0 
L 2847 2094 
Q 2847 2600 2669 2842 
Q 2491 3084 2119 3084 
Q 1678 3084 1418 2786 
Q 1159 2488 1159 1978 
L 1159 0 
L 581 0 
L 581 3500 
L 1159 3500 
L 1159 2956 
Q 1356 3278 1631 3431 
Q 1906 3584 2284 3584 
Q 2666 3584 2933 3390 
Q 3200 3197 3328 2828 
z
" id="DejaVuSans-6d" transform="scale(0.015625)"/>
       <path d="M 1159 525 
L 1159 -1331 
L 581 -1331 
L 581 3500 
L 1159 3500 
L 1159 2969 
Q 1341 3281 1617 3432 
Q 1894 3584 2278 3584 
Q 2916 3584 3314 3078 
Q 3713 2572 3713 1747 
Q 3713 922 3314 415 
Q 2916 -91 2278 -91 
Q 1894 -91 1617 61 
Q 1341 213 1159 525 
z
M 3116 1747 
Q 3116 2381 2855 2742 
Q 2594 3103 2138 3103 
Q 1681 3103 1420 2742 
Q 1159 2381 1159 1747 
Q 1159 1113 1420 752 
Q 1681 391 2138 391 
Q 2594 391 2855 752 
Q 3116 1113 3116 1747 
z
" id="DejaVuSans-70" transform="scale(0.015625)"/>
       <path d="M 544 1381 
L 544 3500 
L 1119 3500 
L 1119 1403 
Q 1119 906 1312 657 
Q 1506 409 1894 409 
Q 2359 409 2629 706 
Q 2900 1003 2900 1516 
L 2900 3500 
L 3475 3500 
L 3475 0 
L 2900 0 
L 2900 538 
Q 2691 219 2414 64 
Q 2138 -91 1772 -91 
Q 1169 -91 856 284 
Q 544 659 544 1381 
z
M 1991 3584 
L 1991 3584 
z
" id="DejaVuSans-75" transform="scale(0.015625)"/>
      </defs>
      <use xlink:href="#DejaVuSans-74"/>
      <use x="39.208984" xlink:href="#DejaVuSans-65"/>
      <use x="100.732422" xlink:href="#DejaVuSans-6d"/>
      <use x="198.144531" xlink:href="#DejaVuSans-70"/>
      <use x="261.621094" xlink:href="#DejaVuSans-65"/>
      <use x="323.144531" xlink:href="#DejaVuSans-72"/>
      <use x="364.257812" xlink:href="#DejaVuSans-61"/>
      <use x="425.537109" xlink:href="#DejaVuSans-74"/>
      <use x="464.746094" xlink:href="#DejaVuSans-75"/>
      <use x="528.125" xlink:href="#DejaVuSans-72"/>
      <use x="566.988281" xlink:href="#DejaVuSans-65"/>
     </g>
    </g>
   </g>
  </g>
 </g>
 <defs>
  <clipPath id="pb1cce35975">
   <rect height="434.88" width="781.2" x="126" y="69.12"/>
  </clipPath>
 </defs>
</svg>
