<?xml version="1.0" encoding="utf-8" standalone="no"?>
<!DOCTYPE svg PUBLIC "-//W3C//DTD SVG 1.1//EN"
  "http://www.w3.org/Graphics/SVG/1.1/DTD/svg11.dtd">
<svg height="576pt" version="1.1" viewBox="0 0 1008 576" width="1008pt" xmlns="http://www.w3.org/2000/svg" xmlns:xlink="http://www.w3.org/1999/xlink">
 <metadata>
  <rdf:RDF xmlns:cc="http://creativecommons.org/ns#" xmlns:dc="http://purl.org/dc/elements/1.1/" xmlns:rdf="http://www.w3.org/1999/02/22-rdf-syntax-ns#">
   <cc:Work>
    <dc:type rdf:resource="http://purl.org/dc/dcmitype/StillImage"/>
    <dc:date>2022-01-08T03:26:38.459964</dc:date>
    <dc:format>image/svg+xml</dc:format>
    <dc:creator>
     <cc:Agent>
      <dc:title>Matplotlib v3.4.3, https://matplotlib.org/</dc:title>
     </cc:Agent>
    </dc:creator>
   </cc:Work>
  </rdf:RDF>
 </metadata>
 <defs>
  <style type="text/css">*{stroke-linecap:butt;stroke-linejoin:round;}</style>
 </defs>
 <g id="figure_1">
  <g id="patch_1">
   <path d="M 0 576 
L 1008 576 
L 1008 0 
L 0 0 
z
"/>
  </g>
  <g id="axes_1">
   <g id="patch_2">
    <path d="M 126 504 
L 907.2 504 
L 907.2 69.12 
L 126 69.12 
z
"/>
   </g>
   <g id="matplotlib.axis_1">
    <g id="xtick_1">
     <g id="line2d_1">
      <defs>
       <path d="M 0 0 
L 0 3.5 
" id="md7e2a56220" style="stroke:#ffffff;stroke-width:0.8;"/>
      </defs>
      <g>
       <use style="fill:#ffffff;stroke:#ffffff;stroke-width:0.8;" x="161.509091" xlink:href="#md7e2a56220" y="504"/>
      </g>
     </g>
     <g id="text_1">
      <!-- 0 -->
      <g style="fill:#ffffff;" transform="translate(158.327841 518.598438)scale(0.1 -0.1)">
       <defs>
        <path d="M 2034 4250 
Q 1547 4250 1301 3770 
Q 1056 3291 1056 2328 
Q 1056 1369 1301 889 
Q 1547 409 2034 409 
Q 2525 409 2770 889 
Q 3016 1369 3016 2328 
Q 3016 3291 2770 3770 
Q 2525 4250 2034 4250 
z
M 2034 4750 
Q 2819 4750 3233 4129 
Q 3647 3509 3647 2328 
Q 3647 1150 3233 529 
Q 2819 -91 2034 -91 
Q 1250 -91 836 529 
Q 422 1150 422 2328 
Q 422 3509 836 4129 
Q 1250 4750 2034 4750 
z
" id="DejaVuSans-30" transform="scale(0.015625)"/>
       </defs>
       <use xlink:href="#DejaVuSans-30"/>
      </g>
     </g>
    </g>
    <g id="xtick_2">
     <g id="line2d_2">
      <g>
       <use style="fill:#ffffff;stroke:#ffffff;stroke-width:0.8;" x="295.556244" xlink:href="#md7e2a56220" y="504"/>
      </g>
     </g>
     <g id="text_2">
      <!-- 500 -->
      <g style="fill:#ffffff;" transform="translate(286.012494 518.598438)scale(0.1 -0.1)">
       <defs>
        <path d="M 691 4666 
L 3169 4666 
L 3169 4134 
L 1269 4134 
L 1269 2991 
Q 1406 3038 1543 3061 
Q 1681 3084 1819 3084 
Q 2600 3084 3056 2656 
Q 3513 2228 3513 1497 
Q 3513 744 3044 326 
Q 2575 -91 1722 -91 
Q 1428 -91 1123 -41 
Q 819 9 494 109 
L 494 744 
Q 775 591 1075 516 
Q 1375 441 1709 441 
Q 2250 441 2565 725 
Q 2881 1009 2881 1497 
Q 2881 1984 2565 2268 
Q 2250 2553 1709 2553 
Q 1456 2553 1204 2497 
Q 953 2441 691 2322 
L 691 4666 
z
" id="DejaVuSans-35" transform="scale(0.015625)"/>
       </defs>
       <use xlink:href="#DejaVuSans-35"/>
       <use x="63.623047" xlink:href="#DejaVuSans-30"/>
       <use x="127.246094" xlink:href="#DejaVuSans-30"/>
      </g>
     </g>
    </g>
    <g id="xtick_3">
     <g id="line2d_3">
      <g>
       <use style="fill:#ffffff;stroke:#ffffff;stroke-width:0.8;" x="429.603398" xlink:href="#md7e2a56220" y="504"/>
      </g>
     </g>
     <g id="text_3">
      <!-- 1000 -->
      <g style="fill:#ffffff;" transform="translate(416.878398 518.598438)scale(0.1 -0.1)">
       <defs>
        <path d="M 794 531 
L 1825 531 
L 1825 4091 
L 703 3866 
L 703 4441 
L 1819 4666 
L 2450 4666 
L 2450 531 
L 3481 531 
L 3481 0 
L 794 0 
L 794 531 
z
" id="DejaVuSans-31" transform="scale(0.015625)"/>
       </defs>
       <use xlink:href="#DejaVuSans-31"/>
       <use x="63.623047" xlink:href="#DejaVuSans-30"/>
       <use x="127.246094" xlink:href="#DejaVuSans-30"/>
       <use x="190.869141" xlink:href="#DejaVuSans-30"/>
      </g>
     </g>
    </g>
    <g id="xtick_4">
     <g id="line2d_4">
      <g>
       <use style="fill:#ffffff;stroke:#ffffff;stroke-width:0.8;" x="563.650551" xlink:href="#md7e2a56220" y="504"/>
      </g>
     </g>
     <g id="text_4">
      <!-- 1500 -->
      <g style="fill:#ffffff;" transform="translate(550.925551 518.598438)scale(0.1 -0.1)">
       <use xlink:href="#DejaVuSans-31"/>
       <use x="63.623047" xlink:href="#DejaVuSans-35"/>
       <use x="127.246094" xlink:href="#DejaVuSans-30"/>
       <use x="190.869141" xlink:href="#DejaVuSans-30"/>
      </g>
     </g>
    </g>
    <g id="xtick_5">
     <g id="line2d_5">
      <g>
       <use style="fill:#ffffff;stroke:#ffffff;stroke-width:0.8;" x="697.697704" xlink:href="#md7e2a56220" y="504"/>
      </g>
     </g>
     <g id="text_5">
      <!-- 2000 -->
      <g style="fill:#ffffff;" transform="translate(684.972704 518.598438)scale(0.1 -0.1)">
       <defs>
        <path d="M 1228 531 
L 3431 531 
L 3431 0 
L 469 0 
L 469 531 
Q 828 903 1448 1529 
Q 2069 2156 2228 2338 
Q 2531 2678 2651 2914 
Q 2772 3150 2772 3378 
Q 2772 3750 2511 3984 
Q 2250 4219 1831 4219 
Q 1534 4219 1204 4116 
Q 875 4013 500 3803 
L 500 4441 
Q 881 4594 1212 4672 
Q 1544 4750 1819 4750 
Q 2544 4750 2975 4387 
Q 3406 4025 3406 3419 
Q 3406 3131 3298 2873 
Q 3191 2616 2906 2266 
Q 2828 2175 2409 1742 
Q 1991 1309 1228 531 
z
" id="DejaVuSans-32" transform="scale(0.015625)"/>
       </defs>
       <use xlink:href="#DejaVuSans-32"/>
       <use x="63.623047" xlink:href="#DejaVuSans-30"/>
       <use x="127.246094" xlink:href="#DejaVuSans-30"/>
       <use x="190.869141" xlink:href="#DejaVuSans-30"/>
      </g>
     </g>
    </g>
    <g id="xtick_6">
     <g id="line2d_6">
      <g>
       <use style="fill:#ffffff;stroke:#ffffff;stroke-width:0.8;" x="831.744857" xlink:href="#md7e2a56220" y="504"/>
      </g>
     </g>
     <g id="text_6">
      <!-- 2500 -->
      <g style="fill:#ffffff;" transform="translate(819.019857 518.598438)scale(0.1 -0.1)">
       <use xlink:href="#DejaVuSans-32"/>
       <use x="63.623047" xlink:href="#DejaVuSans-35"/>
       <use x="127.246094" xlink:href="#DejaVuSans-30"/>
       <use x="190.869141" xlink:href="#DejaVuSans-30"/>
      </g>
     </g>
    </g>
    <g id="text_7">
     <!-- iteration -->
     <g style="fill:#ffffff;" transform="translate(495.477344 532.276562)scale(0.1 -0.1)">
      <defs>
       <path d="M 603 3500 
L 1178 3500 
L 1178 0 
L 603 0 
L 603 3500 
z
M 603 4863 
L 1178 4863 
L 1178 4134 
L 603 4134 
L 603 4863 
z
" id="DejaVuSans-69" transform="scale(0.015625)"/>
       <path d="M 1172 4494 
L 1172 3500 
L 2356 3500 
L 2356 3053 
L 1172 3053 
L 1172 1153 
Q 1172 725 1289 603 
Q 1406 481 1766 481 
L 2356 481 
L 2356 0 
L 1766 0 
Q 1100 0 847 248 
Q 594 497 594 1153 
L 594 3053 
L 172 3053 
L 172 3500 
L 594 3500 
L 594 4494 
L 1172 4494 
z
" id="DejaVuSans-74" transform="scale(0.015625)"/>
       <path d="M 3597 1894 
L 3597 1613 
L 953 1613 
Q 991 1019 1311 708 
Q 1631 397 2203 397 
Q 2534 397 2845 478 
Q 3156 559 3463 722 
L 3463 178 
Q 3153 47 2828 -22 
Q 2503 -91 2169 -91 
Q 1331 -91 842 396 
Q 353 884 353 1716 
Q 353 2575 817 3079 
Q 1281 3584 2069 3584 
Q 2775 3584 3186 3129 
Q 3597 2675 3597 1894 
z
M 3022 2063 
Q 3016 2534 2758 2815 
Q 2500 3097 2075 3097 
Q 1594 3097 1305 2825 
Q 1016 2553 972 2059 
L 3022 2063 
z
" id="DejaVuSans-65" transform="scale(0.015625)"/>
       <path d="M 2631 2963 
Q 2534 3019 2420 3045 
Q 2306 3072 2169 3072 
Q 1681 3072 1420 2755 
Q 1159 2438 1159 1844 
L 1159 0 
L 581 0 
L 581 3500 
L 1159 3500 
L 1159 2956 
Q 1341 3275 1631 3429 
Q 1922 3584 2338 3584 
Q 2397 3584 2469 3576 
Q 2541 3569 2628 3553 
L 2631 2963 
z
" id="DejaVuSans-72" transform="scale(0.015625)"/>
       <path d="M 2194 1759 
Q 1497 1759 1228 1600 
Q 959 1441 959 1056 
Q 959 750 1161 570 
Q 1363 391 1709 391 
Q 2188 391 2477 730 
Q 2766 1069 2766 1631 
L 2766 1759 
L 2194 1759 
z
M 3341 1997 
L 3341 0 
L 2766 0 
L 2766 531 
Q 2569 213 2275 61 
Q 1981 -91 1556 -91 
Q 1019 -91 701 211 
Q 384 513 384 1019 
Q 384 1609 779 1909 
Q 1175 2209 1959 2209 
L 2766 2209 
L 2766 2266 
Q 2766 2663 2505 2880 
Q 2244 3097 1772 3097 
Q 1472 3097 1187 3025 
Q 903 2953 641 2809 
L 641 3341 
Q 956 3463 1253 3523 
Q 1550 3584 1831 3584 
Q 2591 3584 2966 3190 
Q 3341 2797 3341 1997 
z
" id="DejaVuSans-61" transform="scale(0.015625)"/>
       <path d="M 1959 3097 
Q 1497 3097 1228 2736 
Q 959 2375 959 1747 
Q 959 1119 1226 758 
Q 1494 397 1959 397 
Q 2419 397 2687 759 
Q 2956 1122 2956 1747 
Q 2956 2369 2687 2733 
Q 2419 3097 1959 3097 
z
M 1959 3584 
Q 2709 3584 3137 3096 
Q 3566 2609 3566 1747 
Q 3566 888 3137 398 
Q 2709 -91 1959 -91 
Q 1206 -91 779 398 
Q 353 888 353 1747 
Q 353 2609 779 3096 
Q 1206 3584 1959 3584 
z
" id="DejaVuSans-6f" transform="scale(0.015625)"/>
       <path d="M 3513 2113 
L 3513 0 
L 2938 0 
L 2938 2094 
Q 2938 2591 2744 2837 
Q 2550 3084 2163 3084 
Q 1697 3084 1428 2787 
Q 1159 2491 1159 1978 
L 1159 0 
L 581 0 
L 581 3500 
L 1159 3500 
L 1159 2956 
Q 1366 3272 1645 3428 
Q 1925 3584 2291 3584 
Q 2894 3584 3203 3211 
Q 3513 2838 3513 2113 
z
" id="DejaVuSans-6e" transform="scale(0.015625)"/>
      </defs>
      <use xlink:href="#DejaVuSans-69"/>
      <use x="27.783203" xlink:href="#DejaVuSans-74"/>
      <use x="66.992188" xlink:href="#DejaVuSans-65"/>
      <use x="128.515625" xlink:href="#DejaVuSans-72"/>
      <use x="169.628906" xlink:href="#DejaVuSans-61"/>
      <use x="230.908203" xlink:href="#DejaVuSans-74"/>
      <use x="270.117188" xlink:href="#DejaVuSans-69"/>
      <use x="297.900391" xlink:href="#DejaVuSans-6f"/>
      <use x="359.082031" xlink:href="#DejaVuSans-6e"/>
     </g>
    </g>
   </g>
   <g id="matplotlib.axis_2">
    <g id="ytick_1">
     <g id="line2d_7">
      <defs>
       <path d="M 0 0 
L -3.5 0 
" id="m3fa4506c8d" style="stroke:#ffffff;stroke-width:0.8;"/>
      </defs>
      <g>
       <use style="fill:#ffffff;stroke:#ffffff;stroke-width:0.8;" x="126" xlink:href="#m3fa4506c8d" y="484.232727"/>
      </g>
     </g>
     <g id="text_8">
      <!-- 0 -->
      <g style="fill:#ffffff;" transform="translate(112.6375 488.031946)scale(0.1 -0.1)">
       <use xlink:href="#DejaVuSans-30"/>
      </g>
     </g>
    </g>
    <g id="ytick_2">
     <g id="line2d_8">
      <g>
       <use style="fill:#ffffff;stroke:#ffffff;stroke-width:0.8;" x="126" xlink:href="#m3fa4506c8d" y="431.230253"/>
      </g>
     </g>
     <g id="text_9">
      <!-- 5000 -->
      <g style="fill:#ffffff;" transform="translate(93.55 435.029472)scale(0.1 -0.1)">
       <use xlink:href="#DejaVuSans-35"/>
       <use x="63.623047" xlink:href="#DejaVuSans-30"/>
       <use x="127.246094" xlink:href="#DejaVuSans-30"/>
       <use x="190.869141" xlink:href="#DejaVuSans-30"/>
      </g>
     </g>
    </g>
    <g id="ytick_3">
     <g id="line2d_9">
      <g>
       <use style="fill:#ffffff;stroke:#ffffff;stroke-width:0.8;" x="126" xlink:href="#m3fa4506c8d" y="378.227779"/>
      </g>
     </g>
     <g id="text_10">
      <!-- 10000 -->
      <g style="fill:#ffffff;" transform="translate(87.1875 382.026998)scale(0.1 -0.1)">
       <use xlink:href="#DejaVuSans-31"/>
       <use x="63.623047" xlink:href="#DejaVuSans-30"/>
       <use x="127.246094" xlink:href="#DejaVuSans-30"/>
       <use x="190.869141" xlink:href="#DejaVuSans-30"/>
       <use x="254.492188" xlink:href="#DejaVuSans-30"/>
      </g>
     </g>
    </g>
    <g id="ytick_4">
     <g id="line2d_10">
      <g>
       <use style="fill:#ffffff;stroke:#ffffff;stroke-width:0.8;" x="126" xlink:href="#m3fa4506c8d" y="325.225305"/>
      </g>
     </g>
     <g id="text_11">
      <!-- 15000 -->
      <g style="fill:#ffffff;" transform="translate(87.1875 329.024524)scale(0.1 -0.1)">
       <use xlink:href="#DejaVuSans-31"/>
       <use x="63.623047" xlink:href="#DejaVuSans-35"/>
       <use x="127.246094" xlink:href="#DejaVuSans-30"/>
       <use x="190.869141" xlink:href="#DejaVuSans-30"/>
       <use x="254.492188" xlink:href="#DejaVuSans-30"/>
      </g>
     </g>
    </g>
    <g id="ytick_5">
     <g id="line2d_11">
      <g>
       <use style="fill:#ffffff;stroke:#ffffff;stroke-width:0.8;" x="126" xlink:href="#m3fa4506c8d" y="272.222831"/>
      </g>
     </g>
     <g id="text_12">
      <!-- 20000 -->
      <g style="fill:#ffffff;" transform="translate(87.1875 276.02205)scale(0.1 -0.1)">
       <use xlink:href="#DejaVuSans-32"/>
       <use x="63.623047" xlink:href="#DejaVuSans-30"/>
       <use x="127.246094" xlink:href="#DejaVuSans-30"/>
       <use x="190.869141" xlink:href="#DejaVuSans-30"/>
       <use x="254.492188" xlink:href="#DejaVuSans-30"/>
      </g>
     </g>
    </g>
    <g id="ytick_6">
     <g id="line2d_12">
      <g>
       <use style="fill:#ffffff;stroke:#ffffff;stroke-width:0.8;" x="126" xlink:href="#m3fa4506c8d" y="219.220357"/>
      </g>
     </g>
     <g id="text_13">
      <!-- 25000 -->
      <g style="fill:#ffffff;" transform="translate(87.1875 223.019575)scale(0.1 -0.1)">
       <use xlink:href="#DejaVuSans-32"/>
       <use x="63.623047" xlink:href="#DejaVuSans-35"/>
       <use x="127.246094" xlink:href="#DejaVuSans-30"/>
       <use x="190.869141" xlink:href="#DejaVuSans-30"/>
       <use x="254.492188" xlink:href="#DejaVuSans-30"/>
      </g>
     </g>
    </g>
    <g id="ytick_7">
     <g id="line2d_13">
      <g>
       <use style="fill:#ffffff;stroke:#ffffff;stroke-width:0.8;" x="126" xlink:href="#m3fa4506c8d" y="166.217883"/>
      </g>
     </g>
     <g id="text_14">
      <!-- 30000 -->
      <g style="fill:#ffffff;" transform="translate(87.1875 170.017101)scale(0.1 -0.1)">
       <defs>
        <path d="M 2597 2516 
Q 3050 2419 3304 2112 
Q 3559 1806 3559 1356 
Q 3559 666 3084 287 
Q 2609 -91 1734 -91 
Q 1441 -91 1130 -33 
Q 819 25 488 141 
L 488 750 
Q 750 597 1062 519 
Q 1375 441 1716 441 
Q 2309 441 2620 675 
Q 2931 909 2931 1356 
Q 2931 1769 2642 2001 
Q 2353 2234 1838 2234 
L 1294 2234 
L 1294 2753 
L 1863 2753 
Q 2328 2753 2575 2939 
Q 2822 3125 2822 3475 
Q 2822 3834 2567 4026 
Q 2313 4219 1838 4219 
Q 1578 4219 1281 4162 
Q 984 4106 628 3988 
L 628 4550 
Q 988 4650 1302 4700 
Q 1616 4750 1894 4750 
Q 2613 4750 3031 4423 
Q 3450 4097 3450 3541 
Q 3450 3153 3228 2886 
Q 3006 2619 2597 2516 
z
" id="DejaVuSans-33" transform="scale(0.015625)"/>
       </defs>
       <use xlink:href="#DejaVuSans-33"/>
       <use x="63.623047" xlink:href="#DejaVuSans-30"/>
       <use x="127.246094" xlink:href="#DejaVuSans-30"/>
       <use x="190.869141" xlink:href="#DejaVuSans-30"/>
       <use x="254.492188" xlink:href="#DejaVuSans-30"/>
      </g>
     </g>
    </g>
    <g id="ytick_8">
     <g id="line2d_14">
      <g>
       <use style="fill:#ffffff;stroke:#ffffff;stroke-width:0.8;" x="126" xlink:href="#m3fa4506c8d" y="113.215408"/>
      </g>
     </g>
     <g id="text_15">
      <!-- 35000 -->
      <g style="fill:#ffffff;" transform="translate(87.1875 117.014627)scale(0.1 -0.1)">
       <use xlink:href="#DejaVuSans-33"/>
       <use x="63.623047" xlink:href="#DejaVuSans-35"/>
       <use x="127.246094" xlink:href="#DejaVuSans-30"/>
       <use x="190.869141" xlink:href="#DejaVuSans-30"/>
       <use x="254.492188" xlink:href="#DejaVuSans-30"/>
      </g>
     </g>
    </g>
   </g>
   <g id="line2d_15">
    <path clip-path="url(#p294137dcb5)" d="M 161.509091 220.407612 
L 161.777185 237.432007 
L 162.04528 240.050329 
L 162.313374 253.724967 
L 162.581468 240.410746 
L 162.849562 233.63703 
L 163.117657 231.018707 
L 163.385751 251.975886 
L 163.653845 241.926617 
L 164.458128 274.915356 
L 164.726223 266.84838 
L 164.994317 289.798451 
L 165.262411 279.69618 
L 165.530506 262.671785 
L 166.066694 302.83706 
L 166.602883 326.560967 
L 166.870977 343.585362 
L 167.139071 318.578795 
L 167.407166 343.585362 
L 167.67526 338.094306 
L 167.943354 318.112373 
L 168.211449 323.910844 
L 168.479543 343.892776 
L 169.283826 283.395752 
L 169.820014 320.561087 
L 170.356203 338.730335 
L 170.624297 272.721054 
L 170.892392 271.798811 
L 171.160486 290.667692 
L 171.42858 296.466162 
L 171.696675 307.384672 
L 171.964769 298.861874 
L 172.232863 274.279327 
L 172.500957 281.190849 
L 173.30524 223.227344 
L 173.573335 250.958238 
L 173.841429 246.559033 
L 174.109523 270.547953 
L 174.377618 251.191449 
L 174.645712 241.089177 
L 174.913806 257.445741 
L 175.181901 260.286674 
L 175.449995 268.809471 
L 175.986183 314.285594 
L 176.254278 307.374072 
L 176.522372 283.385152 
L 177.058561 325.776531 
L 177.326655 312.101892 
L 177.862844 263.615229 
L 178.130938 287.095325 
L 178.399032 292.13056 
L 178.935221 277.395872 
L 179.203315 283.194343 
L 179.739504 243.07147 
L 180.007598 226.047075 
L 180.275692 249.527171 
L 180.543787 246.908849 
L 180.811881 246.421226 
L 181.079975 237.898429 
L 181.34807 241.502597 
L 181.616164 251.604868 
L 181.884258 267.632817 
L 182.152353 264.940291 
L 182.420447 241.99022 
L 182.688541 231.887948 
L 182.956635 208.407852 
L 183.22473 235.682925 
L 183.492824 219.654977 
L 183.760918 222.336902 
L 184.029013 237.569813 
L 184.297107 213.580893 
L 184.565201 229.608842 
L 185.10139 195.157233 
L 185.637579 235.916136 
L 185.905673 212.966065 
L 186.173767 219.877587 
L 186.441861 215.00136 
L 186.709956 232.682985 
L 186.97805 228.559393 
L 187.246144 206.319554 
L 187.514239 222.962331 
L 188.050427 188.510723 
L 188.586616 233.456821 
L 188.85471 220.1426 
L 189.390899 243.559093 
L 189.658993 223.089537 
L 189.927087 231.156514 
L 190.195182 213.50669 
L 190.463276 203.404418 
L 190.73137 210.199336 
L 190.999465 243.304681 
L 191.803748 299.83712 
L 192.071842 302.529646 
L 192.60803 265.056896 
L 192.876125 258.145374 
L 193.144219 275.954205 
L 193.412313 254.276193 
L 193.680408 277.756289 
L 194.216596 254.4352 
L 194.484691 254.4352 
L 194.752785 262.957998 
L 195.020879 262.957998 
L 195.288974 254.4352 
L 195.557068 261.346723 
L 195.825162 280.703227 
L 196.093256 285.579454 
L 196.361351 294.102252 
L 196.629445 277.077857 
L 196.897539 287.911563 
L 197.165634 267.442008 
L 197.701822 312.91813 
L 197.969917 289.438034 
L 198.238011 278.604329 
L 198.506105 253.597761 
L 198.7742 268.830672 
L 199.310388 280.120199 
L 199.578482 277.427674 
L 199.846577 294.452068 
L 200.114671 291.770143 
L 200.382765 305.444782 
L 200.65086 330.451349 
L 200.918954 341.285055 
L 201.187048 361.669806 
L 201.455143 350.8361 
L 201.991331 316.564701 
L 202.259426 297.208197 
L 202.52752 299.890122 
L 202.795614 312.377505 
L 203.063708 306.579035 
L 203.331803 289.55464 
L 203.599897 292.247166 
L 203.867991 302.349437 
L 204.136086 325.829533 
L 205.208463 257.371538 
L 205.476557 263.170008 
L 205.744651 242.700453 
L 206.012746 237.209396 
L 206.28084 237.209396 
L 207.353217 298.522658 
L 208.1575 231.813745 
L 208.425595 248.170308 
L 208.693689 253.968779 
L 209.229877 208.248845 
L 209.497972 218.351116 
L 209.766066 205.036895 
L 210.03416 219.368764 
L 210.302255 224.244991 
L 210.570349 226.937517 
L 210.838443 220.025994 
L 211.106538 244.014914 
L 211.374632 226.990519 
L 211.642726 221.499463 
L 211.910821 236.732374 
L 212.178915 234.039848 
L 212.447009 256.98992 
L 212.715103 265.512718 
L 212.983198 269.964925 
L 213.251292 258.696599 
L 213.519386 261.389125 
L 213.787481 255.590654 
L 214.055575 232.640583 
L 214.323669 248.233911 
L 214.591764 233.001 
L 214.859858 210.761162 
L 215.127952 200.65889 
L 215.396047 212.955464 
L 215.664141 218.753935 
L 215.932235 212.955464 
L 216.200329 204.432666 
L 216.468424 214.481935 
L 216.736518 239.488503 
L 217.004612 228.569993 
L 217.272707 253.152541 
L 217.808895 203.563426 
L 218.07699 210.474948 
L 218.345084 200.372677 
L 218.613178 182.563846 
L 218.881273 188.054902 
L 219.149367 170.405078 
L 219.417461 185.637989 
L 219.685555 321.197117 
L 219.95365 332.030823 
L 220.221744 315.006428 
L 220.757933 360.67336 
L 221.026027 365.549587 
L 221.294121 373.616564 
L 221.562216 231.898548 
L 221.83031 259.004014 
L 222.098404 261.71774 
L 222.902687 312.737922 
L 223.170781 320.889703 
L 223.70697 349.405034 
L 223.975064 340.882236 
L 224.243159 317.40214 
L 224.511253 325.924938 
L 224.779347 303.685099 
L 225.047442 295.618123 
L 225.315536 313.267947 
L 225.58363 293.286014 
L 225.851724 282.367504 
L 226.387913 312.68492 
L 226.656007 295.035096 
L 226.924102 305.084365 
L 227.728385 259.926257 
L 228.264573 234.262459 
L 228.532668 209.679911 
L 228.800762 251.530665 
L 229.068856 228.580594 
L 229.33695 238.810071 
L 229.873139 227.032921 
L 230.409328 264.092251 
L 230.945516 302.688653 
L 231.213611 310.75563 
L 231.481705 294.399066 
L 231.749799 300.197537 
L 232.017894 316.5541 
L 232.285988 300.197537 
L 232.822176 340.034196 
L 233.090271 317.794358 
L 233.358365 306.875848 
L 233.626459 290.519285 
L 234.162648 248.127906 
L 234.430742 239.605108 
L 234.698837 253.279747 
L 234.966931 276.229818 
L 235.235025 260.996907 
L 235.50312 252.92993 
L 236.039308 209.595107 
L 236.307402 227.403939 
L 236.575497 217.35467 
L 236.843591 200.711893 
L 237.111685 224.700812 
L 237.37978 232.767789 
L 237.647874 215.117965 
L 237.915968 232.767789 
L 238.184063 215.743394 
L 238.452157 230.976305 
L 238.988346 210.040328 
L 239.25644 218.563126 
L 239.524534 197.256131 
L 239.792628 190.344609 
L 240.060723 206.701172 
L 240.328817 209.393698 
L 240.596911 204.51747 
L 241.1331 244.491936 
L 241.401194 241.799411 
L 241.937383 261.738941 
L 242.205477 259.046416 
L 242.473572 259.470436 
L 242.741666 260.742495 
L 243.00976 266.540966 
L 243.277854 246.559033 
L 243.814043 281.233251 
L 244.082137 273.166275 
L 244.350232 250.216204 
L 244.618326 265.321909 
L 244.88642 271.120379 
L 245.154515 257.445741 
L 245.422609 267.548013 
L 245.690703 247.56608 
L 245.958797 247.258665 
L 246.226892 253.057136 
L 246.494986 269.699913 
L 246.76308 254.467002 
L 247.031175 248.975946 
L 247.299269 285.982273 
L 247.567363 296.900783 
L 247.835458 288.833806 
L 248.103552 311.158448 
L 248.639741 328.54326 
L 248.907835 316.055877 
L 249.175929 294.377865 
L 249.444023 287.445141 
L 249.980212 244.025515 
L 250.248306 265.703526 
L 250.516401 247.894695 
L 251.320684 289.98926 
L 251.588778 279.939991 
L 251.856872 263.912043 
L 252.124967 269.403099 
L 252.929249 215.753995 
L 253.197344 294.017448 
L 253.733532 274.205123 
L 254.001627 282.727921 
L 254.537815 308.603729 
L 254.80591 287.646551 
L 255.074004 305.317576 
L 255.342098 312.229098 
L 255.610193 294.420267 
L 256.146381 333.186277 
L 256.414475 335.804599 
L 256.68257 324.886089 
L 257.486853 343.627764 
L 258.55923 286.215484 
L 258.827324 283.533559 
L 259.363513 241.14218 
L 259.631607 246.749842 
L 259.899701 230.107065 
L 260.43589 279.102552 
L 260.703984 272.191029 
L 260.972079 296.773577 
L 261.240173 302.264633 
L 261.508267 322.246566 
L 261.776362 324.939092 
L 262.044456 331.850614 
L 262.31255 319.363231 
L 262.580644 299.381299 
L 263.116833 320.762497 
L 263.653022 285.208437 
L 264.18921 239.817118 
L 264.457305 256.459895 
L 264.725399 246.410626 
L 264.993493 230.382678 
L 265.261588 248.191509 
L 265.529682 240.124532 
L 266.06587 203.0122 
L 266.333965 210.368943 
L 266.870153 247.481276 
L 267.406342 203.574026 
L 267.942531 231.845546 
L 268.210625 215.202769 
L 268.478719 214.375931 
L 268.746814 217.524277 
L 269.014908 236.880781 
L 269.283002 219.856386 
L 269.551096 294.155255 
L 269.819191 279.664378 
L 270.087285 256.184282 
L 270.355379 261.982753 
L 270.623474 286.98932 
L 271.427757 252.770923 
L 271.963945 224.255592 
L 272.500134 261.240718 
L 272.768228 282.91873 
L 273.036322 259.968659 
L 273.304417 272.456042 
L 273.572511 255.813265 
L 273.840605 279.802185 
L 274.1087 274.003714 
L 274.376794 278.879942 
L 274.644888 298.861874 
L 274.912983 273.855307 
L 275.181077 284.773817 
L 275.717266 270.759963 
L 275.98536 278.826939 
L 276.253454 281.445261 
L 276.789643 235.77833 
L 277.057737 241.269386 
L 277.325831 236.393158 
L 277.593926 233.774836 
L 277.86202 236.393158 
L 278.130114 229.481636 
L 278.398209 216.994253 
L 278.666303 196.037074 
L 278.934397 207.029788 
L 279.202492 197.584747 
L 279.470586 180.560352 
L 279.73868 190.662624 
L 280.006774 183.751101 
L 280.811057 247.57668 
L 281.079152 233.902042 
L 281.347246 242.42484 
L 281.61534 256.099478 
L 281.883435 238.449654 
L 282.687717 298.734668 
L 283.223906 254.869821 
L 283.492 239.63691 
L 283.760095 236.944384 
L 284.028189 259.894455 
L 284.296283 270.728161 
L 284.832472 308.826339 
L 285.100566 314.317396 
L 285.368661 300.642757 
L 285.636755 278.402919 
L 285.904849 290.890302 
L 286.172943 274.862354 
L 286.441038 294.48387 
L 286.709132 302.996067 
L 286.977226 287.763156 
L 287.245321 308.720334 
L 287.513415 315.631857 
L 287.781509 336.016609 
L 288.049604 331.140381 
L 288.585792 286.703107 
L 289.121981 325.310109 
L 289.390075 327.992034 
L 289.658169 317.073524 
L 289.926264 334.097919 
L 290.194358 323.995648 
L 290.462452 326.61397 
L 290.730547 323.995648 
L 290.998641 301.045576 
L 291.266735 295.247106 
L 291.53483 274.862354 
L 291.802924 272.180429 
L 292.071018 295.1305 
L 292.339113 287.063524 
L 292.607207 284.752616 
L 293.143395 295.575721 
L 293.41149 279.547773 
L 293.947678 308.455322 
L 294.215773 286.215484 
L 294.483867 297.133994 
L 294.751961 287.084725 
L 295.020056 295.151701 
L 295.28815 229.047015 
L 295.556244 246.834646 
L 295.824339 254.901622 
L 296.092433 275.858801 
L 296.360527 286.77731 
L 296.628621 284.084785 
L 296.896716 283.925777 
L 297.16481 306.165615 
L 297.432904 289.522838 
L 297.700999 306.165615 
L 298.237187 319.617643 
L 298.505282 298.660465 
L 298.773376 309.578975 
L 299.04147 286.098879 
L 299.309565 292.893796 
L 299.845753 331.087379 
L 300.113847 320.168869 
L 300.381942 331.087379 
L 300.91813 307.76629 
L 301.186225 291.409726 
L 301.454319 302.243432 
L 301.722413 293.720634 
L 301.990508 313.077138 
L 302.526696 328.055637 
L 302.79479 325.363111 
L 303.062885 342.387506 
L 303.330979 336.89645 
L 303.599073 328.829473 
L 303.867168 311.179649 
L 304.135262 319.246626 
L 304.403356 321.939152 
L 304.671451 331.988421 
L 304.939545 326.18995 
L 305.207639 334.712748 
L 306.011922 273.6963 
L 306.548111 297.473209 
L 307.084299 252.198496 
L 307.352394 268.841273 
L 307.620488 258.739001 
L 307.888582 269.572707 
L 308.424771 235.905536 
L 308.692865 249.580174 
L 308.96096 244.703946 
L 309.229054 261.728341 
L 309.497148 255.92987 
L 310.033337 297.377805 
L 310.301431 294.759483 
L 310.569525 297.377805 
L 310.83762 310.692027 
L 311.105714 316.490497 
L 311.373808 319.183023 
L 311.909997 279.844587 
L 312.178091 277.226264 
L 312.446186 296.582768 
L 312.71428 290.784297 
L 313.250468 250.025395 
L 313.518563 247.343469 
L 313.786657 227.21313 
L 314.054751 228.326182 
L 314.322846 231.124712 
L 314.859034 207.71882 
L 315.127129 230.668891 
L 315.395223 243.601495 
L 315.663317 268.184042 
L 315.931412 270.802364 
L 316.199506 252.993533 
L 316.735694 286.915117 
L 317.003789 293.826639 
L 317.271883 296.519165 
L 317.539977 316.501098 
L 317.808072 321.377325 
L 318.076166 300.90777 
L 318.612355 340.649025 
L 318.880449 316.660105 
L 319.148543 326.709374 
L 319.416637 318.186576 
L 319.684732 315.504651 
L 319.952826 292.024555 
L 320.489015 327.727022 
L 320.757109 351.207118 
L 321.025203 335.17917 
L 321.293298 311.699074 
L 321.561392 336.705641 
L 322.097581 312.981733 
L 322.365675 323.900243 
L 322.633769 319.024015 
L 322.901863 332.698654 
L 323.706146 281.084844 
L 323.974241 285.961072 
L 324.242335 272.286434 
L 325.314712 320.306675 
L 325.582807 313.395153 
L 325.850901 295.745329 
L 326.387089 318.281981 
L 326.655184 315.589455 
L 326.923278 322.500978 
L 327.191372 338.528926 
L 327.459467 324.854288 
L 327.727561 304.384732 
L 327.995655 307.066657 
L 328.799938 267.06039 
L 329.068033 244.110319 
L 329.336127 251.986486 
L 329.604221 274.936557 
L 329.872315 262.449175 
L 330.14041 255.537652 
L 330.408504 252.91933 
L 330.676598 242.817058 
L 331.212787 283.946978 
L 331.480881 263.965045 
L 331.748976 266.583368 
L 332.01707 251.350456 
L 332.285164 248.668531 
L 332.821353 262.533979 
L 333.357541 298.236445 
L 333.625636 308.285714 
L 333.89373 283.279147 
L 334.161824 275.21217 
L 334.429919 297.452008 
L 334.966107 253.587161 
L 335.502296 258.961612 
L 335.77039 237.2836 
L 336.038485 258.961612 
L 336.306579 256.279687 
L 336.574673 266.381958 
L 336.842767 281.031842 
L 337.110862 261.675338 
L 337.378956 278.031902 
L 337.915145 243.590894 
L 338.183239 242.170428 
L 338.451333 252.2727 
L 338.719428 272.742255 
L 338.987522 252.760322 
L 339.255616 247.269266 
L 339.52371 270.219337 
L 339.791805 253.194943 
L 340.059899 260.106465 
L 340.327993 249.272759 
L 340.596088 258.102972 
L 340.864182 242.870061 
L 341.132276 259.512838 
L 341.668465 224.679611 
L 341.936559 221.987086 
L 342.204654 224.669011 
L 342.472748 231.580534 
L 342.740842 251.965285 
L 343.008936 249.346963 
L 343.277031 224.764415 
L 343.545125 214.715146 
L 343.813219 229.948057 
L 344.081314 232.640583 
L 344.349408 217.407672 
L 344.885597 257.223131 
L 345.153691 237.241198 
L 345.421785 261.230118 
L 345.68988 271.279387 
L 345.957974 294.759483 
L 346.226068 270.770563 
L 346.494162 306.780444 
L 346.762257 298.957279 
L 347.030351 309.790984 
L 347.298445 307.109059 
L 347.56654 294.558073 
L 347.834634 294.558073 
L 348.102728 316.797912 
L 348.370823 232.237764 
L 348.638917 240.760562 
L 348.907011 265.34311 
L 349.175106 259.544639 
L 349.4432 273.431287 
L 349.711294 266.519765 
L 349.979388 262.735388 
L 350.247483 278.763336 
L 350.515577 265.449115 
L 350.783671 258.685999 
L 351.051766 278.042502 
L 351.31986 257.572947 
L 351.587954 259.98986 
L 351.856049 284.996427 
L 352.124143 268.968479 
L 352.392237 281.455862 
L 352.660332 276.579634 
L 352.928426 256.597701 
L 353.19652 245.392978 
L 353.464614 254.244392 
L 353.732709 274.713947 
L 354.000803 285.547653 
L 354.268897 301.904216 
L 354.536992 304.522539 
L 354.805086 319.75545 
L 355.07318 314.879222 
L 355.341275 330.90717 
L 355.609369 308.667332 
L 356.145558 293.233012 
L 356.413652 276.876448 
L 356.681746 274.258126 
L 356.94984 256.608302 
L 357.217935 262.099358 
L 357.486029 278.455922 
L 358.022218 257.572947 
L 358.290312 240.548552 
L 358.558406 262.78839 
L 358.826501 265.046296 
L 359.094595 242.806458 
L 359.630783 289.416833 
L 359.898878 270.06033 
L 360.166972 278.816339 
L 360.435066 300.494351 
L 360.703161 297.876028 
L 360.971255 292.077558 
L 361.239349 269.127486 
L 361.507444 314.783818 
L 361.775538 317.465743 
L 362.043632 335.115567 
L 362.311727 322.628184 
L 362.579821 328.426654 
L 362.847915 351.90675 
L 363.116009 344.995228 
L 363.384104 324.525672 
L 363.652198 331.437195 
L 363.920292 311.052443 
L 364.188387 334.002515 
L 364.456481 312.324503 
L 364.724575 306.526032 
L 364.99267 311.40226 
L 365.260764 304.490737 
L 365.528858 304.490737 
L 365.796953 281.540666 
L 366.065047 300.897169 
L 366.333141 298.204644 
L 366.601235 304.003114 
L 366.86933 326.953186 
L 367.137424 302.964266 
L 367.405518 310.967639 
L 367.673613 300.865368 
L 368.209801 323.455022 
L 368.477896 326.147548 
L 368.74599 308.338717 
L 369.014084 329.295895 
L 369.282179 326.603369 
L 369.550273 316.501098 
L 369.818367 340.490018 
L 370.354556 327.546813 
L 370.62265 341.221452 
L 371.158839 299.858321 
L 371.426933 317.667152 
L 371.695027 314.985227 
L 371.963122 335.369978 
L 372.49931 291.452128 
L 372.767405 291.452128 
L 373.303593 268.798871 
L 373.571687 275.710394 
L 374.107876 237.241198 
L 374.37597 242.732254 
L 374.644065 232.682985 
L 374.912159 248.806338 
L 375.448348 296.052743 
L 375.716442 304.11972 
L 375.984536 306.738042 
L 376.25263 301.861814 
L 376.520725 321.218318 
L 376.788819 305.985407 
L 377.056913 303.367085 
L 377.325008 293.317816 
L 377.861196 337.182663 
L 378.129291 352.415574 
L 378.397385 342.313303 
L 378.665479 318.833207 
L 378.933574 328.935478 
L 379.201668 349.405034 
L 379.469762 343.913977 
L 380.005951 307.416474 
L 380.274045 323.296015 
L 380.542139 300.981973 
L 380.810234 311.031242 
L 381.078328 315.90747 
L 381.346422 302.593248 
L 381.614517 318.621197 
L 381.882611 303.388286 
L 382.4188 325.140501 
L 382.686894 345.610057 
L 383.223082 311.942885 
L 383.759271 360.938372 
L 384.027365 369.46117 
L 384.29546 386.485565 
L 384.563554 383.793039 
L 384.831648 359.210491 
L 385.099743 374.443402 
L 385.367837 377.135928 
L 386.708308 292.787791 
L 387.244497 250.163201 
L 387.512591 290.8373 
L 388.316874 342.270901 
L 389.121157 284.985827 
L 389.389252 274.883555 
L 389.657346 253.926377 
L 389.92544 264.908489 
L 390.193534 287.148328 
L 390.729723 245.117366 
L 390.997817 269.699913 
L 391.265912 253.34335 
L 391.534006 276.823446 
L 392.070195 286.671305 
L 392.338289 278.604329 
L 392.606383 254.021781 
L 392.874478 278.010701 
L 393.410666 243.421286 
L 393.67876 258.654197 
L 393.946855 260.360877 
L 394.214949 277.385272 
L 394.483043 280.003594 
L 394.751138 296.031542 
L 395.019232 272.042622 
L 395.287326 276.675039 
L 395.555421 269.763516 
L 395.823515 286.12008 
L 396.091609 263.880241 
L 396.359703 276.367624 
L 396.627798 282.166095 
L 396.895892 259.216024 
L 397.163986 283.798571 
L 397.432081 286.480496 
L 397.700175 304.13032 
L 397.968269 342.03769 
L 398.236364 342.03769 
L 398.504458 332.105026 
L 398.772552 353.783038 
L 399.576835 297.950232 
L 399.844929 291.038709 
L 400.113024 313.98878 
L 400.381118 319.787251 
L 400.649212 235.873734 
L 401.185401 255.315042 
L 401.453495 277.55488 
L 401.72159 277.55488 
L 401.989684 302.137427 
L 402.257778 292.035156 
L 402.525873 294.727681 
L 403.062061 334.214525 
L 403.330155 328.723468 
L 403.59825 326.030943 
L 403.866344 305.561387 
L 404.134438 302.943065 
L 404.402533 323.900243 
L 404.670627 308.667332 
L 404.938721 284.084785 
L 405.47491 265.608122 
L 405.743004 291.632337 
L 406.011099 266.62577 
L 406.547287 244.385931 
L 406.815381 235.661724 
L 407.083476 230.743095 
L 407.35157 239.265892 
L 407.887759 276.27222 
L 408.155853 288.759603 
L 408.423947 282.961132 
L 408.692042 288.452188 
L 408.960136 223.301547 
L 409.22823 245.541385 
L 409.496325 250.290407 
L 410.032513 294.653478 
L 410.300607 307.967699 
L 410.568702 310.586022 
L 410.836796 307.967699 
L 411.10489 318.016968 
L 411.372985 310.670826 
L 411.641079 310.670826 
L 411.909173 321.504531 
L 412.177268 313.437555 
L 412.445362 316.13008 
L 412.713456 329.804719 
L 412.98155 327.112193 
L 413.249645 311.084245 
L 413.517739 287.604149 
L 413.785833 297.653418 
L 414.053928 315.303242 
L 414.322022 312.621317 
L 414.590116 302.519045 
L 415.126305 339.504171 
L 416.734871 229.492236 
L 417.002965 254.742615 
L 417.271059 257.435141 
L 417.539154 262.77779 
L 417.807248 265.396112 
L 418.075342 242.446041 
L 418.343437 238.110438 
L 418.611531 224.987026 
L 419.415814 283.522958 
L 419.683908 265.714127 
L 419.952002 285.69606 
L 420.220097 296.614569 
L 420.488191 299.296495 
L 420.756285 275.816399 
L 421.292474 299.232892 
L 421.560568 274.650344 
L 421.828663 281.561867 
L 422.096757 305.041963 
L 422.364851 299.243492 
L 422.632946 296.550966 
L 423.169134 251.922883 
L 423.705323 290.243672 
L 423.973417 287.561747 
L 424.509606 330.186337 
L 424.7777 321.663539 
L 425.313889 290.402679 
L 425.581983 310.872235 
L 425.850077 300.038529 
L 426.118172 254.541205 
L 426.386266 264.664678 
L 426.65436 256.14188 
L 426.922454 270.812965 
L 427.190549 276.611436 
L 427.458643 268.544459 
L 427.726737 253.311548 
L 427.994832 264.230058 
L 428.262926 281.879882 
L 428.53102 286.756109 
L 428.799115 296.858381 
L 429.335303 262.851993 
L 429.603398 275.339376 
L 429.871492 262.851993 
L 430.40768 215.913002 
L 430.675775 218.234511 
L 430.943869 226.301487 
L 431.211963 218.234511 
L 431.480058 217.121459 
L 431.748152 230.796097 
L 432.016246 228.114172 
L 432.284341 245.138567 
L 432.552435 240.824165 
L 432.820529 293.593428 
L 433.088623 306.367025 
L 433.356718 282.886929 
L 433.624812 240.336542 
L 433.892906 264.325462 
L 434.161001 249.092551 
L 434.429095 252.50591 
L 434.697189 270.314742 
L 434.965284 274.650344 
L 435.233378 249.643777 
L 435.501472 246.739241 
L 435.769567 271.321789 
L 436.305755 295.045696 
L 436.573849 282.558313 
L 437.110038 236.297754 
L 437.646227 276.27222 
L 437.914321 273.579694 
L 438.45051 302.921864 
L 438.718604 294.399066 
L 438.986698 280.724428 
L 439.254793 305.730995 
L 439.790981 259.767249 
L 440.059075 284.773817 
L 440.595264 247.767489 
L 440.863358 234.453268 
L 441.131453 259.035815 
L 441.399547 256.35389 
L 441.667641 284.667812 
L 441.935736 281.434661 
L 442.20383 303.112673 
L 442.471924 315.600056 
L 442.740019 218.828138 
L 443.008113 258.887408 
L 443.276207 276.69624 
L 443.544301 283.607762 
L 444.08049 258.325582 
L 444.348584 259.947458 
L 444.616679 243.304681 
L 444.884773 245.997207 
L 445.420962 282.823326 
L 445.689056 277.024855 
L 445.95715 279.643177 
L 446.225245 289.692446 
L 446.761433 240.103331 
L 447.029527 226.78911 
L 447.297622 226.78911 
L 447.565716 246.93005 
L 447.83381 255.081831 
L 448.101905 274.438334 
L 448.369999 250.449414 
L 448.638093 239.530905 
L 448.906188 263.011001 
L 449.174282 273.92951 
L 449.442376 290.445081 
L 449.710471 318.069971 
L 449.978565 309.547173 
L 450.246659 331.066178 
L 450.514753 320.232472 
L 450.782848 200.892101 
L 451.050942 221.160247 
L 451.319036 208.672864 
L 451.587131 228.654797 
L 451.855225 228.08237 
L 452.123319 208.100438 
L 452.391414 216.623235 
L 452.927602 249.092551 
L 453.195696 256.004074 
L 453.463791 239.64751 
L 453.731885 250.56602 
L 453.999979 247.884095 
L 454.268074 231.241318 
L 454.536168 231.241318 
L 455.340451 286.363891 
L 455.608545 288.982213 
L 455.87664 302.296435 
L 456.144734 299.678112 
L 456.412828 322.628184 
L 456.949017 292.490977 
L 457.217111 292.490977 
L 457.485205 269.540906 
L 458.021394 308.423521 
L 458.289488 331.903617 
L 458.825677 287.932764 
L 459.093771 311.921684 
L 459.62996 275.180369 
L 459.898054 287.667752 
L 460.166148 282.176695 
L 460.434243 290.243672 
L 460.702337 265.237105 
L 460.970431 284.593608 
L 461.238526 248.138507 
L 461.50662 258.187776 
L 461.774714 275.21217 
L 462.042809 258.187776 
L 462.578997 298.310649 
L 462.847092 274.830553 
L 463.115186 291.854947 
L 463.38328 275.498384 
L 463.919469 300.006728 
L 464.187563 275.00016 
L 464.723752 307.957099 
L 464.991846 297.123393 
L 465.25994 322.12996 
L 465.528035 301.745209 
L 465.796129 315.05943 
L 466.064223 310.183203 
L 466.332318 307.564881 
L 466.600412 329.804719 
L 466.868506 319.75545 
L 467.1366 343.235546 
L 467.404695 322.76599 
L 467.672789 325.458516 
L 467.940883 303.780504 
L 468.208978 321.589335 
L 468.477072 304.946558 
L 468.745166 314.995827 
L 469.013261 314.995827 
L 469.281355 317.61415 
L 469.817543 286.13068 
L 470.085638 270.102732 
L 470.353732 280.936438 
L 470.621826 255.92987 
L 470.889921 272.286434 
L 471.158015 241.491996 
L 471.426109 247.672085 
L 471.694204 267.654018 
L 471.962298 254.318595 
L 472.230392 265.152301 
L 472.766581 293.996247 
L 473.034675 241.5768 
L 473.302769 247.067857 
L 473.570864 227.711353 
L 473.838958 228.28378 
L 474.107052 240.771163 
L 474.375147 243.389485 
L 474.643241 262.745988 
L 474.911335 267.622216 
L 475.17943 292.628783 
L 475.447524 285.717261 
L 475.715618 283.098938 
L 475.983713 285.717261 
L 476.787995 224.21319 
L 477.05609 262.735388 
L 477.324184 253.618962 
L 477.592278 254.774416 
L 477.860373 244.672145 
L 478.128467 282.833926 
L 478.396561 193.885174 
L 478.664656 214.269926 
L 478.93275 219.146153 
L 479.200844 216.453628 
L 479.468939 228.94101 
L 479.737033 204.358463 
L 480.273221 219.792783 
L 480.80941 259.682445 
L 481.077504 238.725267 
L 481.345599 230.202469 
L 481.881787 203.256011 
L 482.417976 210.061529 
L 482.68607 204.740081 
L 482.954165 207.422006 
L 483.222259 217.471275 
L 483.490353 211.672804 
L 483.758447 335.200371 
L 484.026542 337.892896 
L 484.294636 317.910964 
L 484.56273 330.398346 
L 484.830825 313.373952 
L 485.098919 304.851154 
L 485.903202 352.574582 
L 486.171296 347.083525 
L 486.707485 301.893616 
L 486.975579 307.384672 
L 487.243673 304.692146 
L 487.779862 261.876748 
L 488.047956 279.685579 
L 488.316051 282.367504 
L 488.852239 323.380819 
L 489.120334 320.698894 
L 489.924616 274.512538 
L 490.192711 294.982093 
L 490.460805 284.879822 
L 490.728899 260.297274 
L 490.996994 270.346543 
L 491.265088 246.357623 
L 491.533182 266.742375 
L 491.801277 254.254992 
L 492.069371 265.088698 
L 492.337465 259.597641 
L 492.873654 226.089477 
L 493.141748 262.904996 
L 493.409842 260.223071 
L 493.677937 280.607822 
L 493.946031 268.120439 
L 494.214125 291.070511 
L 494.48222 292.384972 
L 494.750314 279.897589 
L 495.018408 294.791284 
L 495.554597 250.226804 
L 495.822691 260.276073 
L 496.090786 235.269506 
L 496.35888 235.269506 
L 496.626974 241.067976 
L 496.895068 218.117905 
L 497.163163 210.050929 
L 497.431257 241.905416 
L 497.699351 237.781823 
L 497.967446 243.272879 
L 498.23554 230.785497 
L 498.503634 228.167174 
L 498.771729 235.078697 
L 499.039823 228.167174 
L 499.307917 225.474649 
L 499.576012 206.118145 
L 499.844106 219.792783 
L 500.1122 219.792783 
L 500.380294 209.743514 
L 501.184577 272.244032 
L 501.452672 263.721234 
L 501.720766 243.251678 
L 501.98886 251.318655 
L 502.525049 211.948417 
L 502.793143 211.948417 
L 503.061238 238.195242 
L 503.329332 253.428153 
L 503.597426 235.619322 
L 503.86552 258.569393 
L 504.669803 212.139226 
L 504.937898 209.457301 
L 505.205992 197.605948 
L 505.474086 219.28396 
L 505.742181 224.965825 
L 506.010275 265.311308 
L 506.278369 262.470376 
L 506.814558 303.738102 
L 507.082652 283.35335 
L 507.350746 289.151821 
L 507.618841 276.664438 
L 507.886935 281.540666 
L 508.155029 302.497844 
L 508.423124 291.664138 
L 508.691218 306.897049 
L 509.227407 347.910364 
L 509.495501 330.26054 
L 509.763595 350.645292 
L 510.299784 314.932224 
L 510.567878 290.349677 
L 510.835972 285.473449 
L 511.104067 277.406473 
L 511.372161 208.068636 
L 511.640255 192.909928 
L 511.90835 208.14284 
L 512.176444 233.149407 
L 512.444538 208.566859 
L 512.712633 208.206443 
L 512.980727 192.178494 
L 513.248821 213.135673 
L 513.516915 213.29468 
L 513.78501 215.976605 
L 514.321198 259.947458 
L 514.589293 238.269446 
L 514.857387 251.944084 
L 515.393576 206.997986 
L 515.929764 223.36515 
L 516.197859 220.746828 
L 517.002141 278.222711 
L 517.270236 260.41388 
L 517.53833 251.891082 
L 517.806424 232.534578 
L 518.074519 254.21259 
L 518.610707 220.428813 
L 518.878802 237.07159 
L 519.41499 197.764955 
L 519.683085 220.715026 
L 519.951179 231.633536 
L 520.219273 248.657931 
L 520.487367 228.675998 
L 520.755462 245.032562 
L 521.023556 234.93029 
L 521.29165 265.873134 
L 521.559745 265.873134 
L 521.827839 286.34269 
L 522.095933 291.833746 
L 522.632122 335.804599 
L 522.900216 322.12996 
L 523.168311 342.514712 
L 523.436405 333.991914 
L 523.972593 357.355405 
L 524.240688 337.373472 
L 524.508782 359.61331 
L 524.776876 359.61331 
L 525.313065 319.723648 
L 525.581159 309.621377 
L 525.849254 293.264813 
L 526.117348 309.292761 
L 526.385442 296.805378 
L 526.653536 316.161882 
L 526.921631 298.353051 
L 527.189725 306.875848 
L 527.457819 324.68468 
L 528.262102 255.643657 
L 528.530197 273.293481 
L 528.798291 266.381958 
L 529.066385 278.869341 
L 529.33448 285.780864 
L 529.602574 272.466642 
L 529.870668 282.568914 
L 530.138762 277.692686 
L 530.943045 239.053882 
L 531.21114 214.047315 
L 531.747328 214.047315 
L 532.015423 203.998046 
L 532.283517 216.485429 
L 532.551611 213.792903 
L 533.0878 255.368044 
L 533.355894 232.417973 
L 533.892083 277.470076 
L 534.428271 231.993953 
L 534.696366 232.894995 
L 534.96446 209.414899 
L 535.232554 254.604808 
L 535.500649 237.580414 
L 535.768743 233.955044 
L 536.036837 225.432247 
L 536.304932 237.665218 
L 536.573026 258.622396 
L 536.84112 252.823925 
L 537.645403 311.794478 
L 537.913497 296.561567 
L 538.449686 251.403459 
L 538.71778 262.237165 
L 538.985875 262.237165 
L 539.253969 257.360937 
L 539.522063 235.121099 
L 539.790158 248.43532 
L 540.058252 270.113332 
L 540.59444 233.700633 
L 540.862535 233.700633 
L 541.130629 253.682565 
L 541.666818 225.029428 
L 541.934912 225.029428 
L 542.203006 205.047495 
L 542.471101 221.075443 
L 542.739195 218.382918 
L 543.007289 210.315941 
L 543.275384 218.838739 
L 543.543478 242.668651 
L 543.811572 234.145853 
L 544.079666 229.651244 
L 544.347761 251.891082 
L 544.615855 259.958058 
L 544.883949 249.124353 
L 545.152044 269.509104 
L 545.420138 280.427614 
L 545.688232 280.427614 
L 545.956327 257.477542 
L 546.224421 257.477542 
L 546.760609 227.965765 
L 547.296798 254.127786 
L 547.832987 248.816938 
L 548.369175 219.686778 
L 548.63727 237.336602 
L 548.905364 215.65859 
L 549.709647 279.378165 
L 549.977741 261.728341 
L 550.245835 268.639864 
L 550.51393 263.148807 
L 550.782024 265.841333 
L 551.318213 244.460135 
L 551.854401 283.946978 
L 552.122496 283.946978 
L 552.658684 237.686419 
L 552.926779 234.993893 
L 553.194873 237.686419 
L 553.462967 232.036355 
L 553.731061 248.679132 
L 553.999156 228.29438 
L 554.26725 228.209576 
L 554.535344 236.276553 
L 554.803439 212.287633 
L 555.071533 247.682685 
L 555.339627 253.173742 
L 555.875816 229.852653 
L 556.14391 229.852653 
L 556.412005 207.612815 
L 556.948193 250.947638 
L 557.216287 245.456581 
L 557.484382 250.332809 
L 557.752476 230.976305 
L 558.02057 255.558853 
L 558.288665 252.940531 
L 558.556759 268.820072 
L 559.092948 257.371538 
L 559.361042 244.968959 
L 559.629136 261.611735 
L 559.897231 262.724787 
L 560.165325 259.618842 
L 560.701513 273.240478 
L 560.969608 270.547953 
L 561.505796 230.43568 
L 561.773891 230.43568 
L 562.041985 240.537952 
L 562.578174 250.449414 
L 562.846268 258.516391 
L 563.382457 225.559453 
L 563.650551 236.393158 
L 563.918645 211.386591 
L 564.186739 236.393158 
L 564.454834 212.404238 
L 564.722928 212.404238 
L 564.991022 204.422066 
L 565.259117 218.033101 
L 565.527211 218.033101 
L 565.795305 230.520484 
L 566.0634 230.520484 
L 566.331494 231.220117 
L 566.599588 218.732734 
L 566.867682 233.965645 
L 567.135777 233.965645 
L 567.403871 210.485549 
L 567.671965 210.485549 
L 567.94006 230.955104 
L 568.208154 241.004374 
L 568.476248 234.092851 
L 568.744343 216.28402 
L 569.012437 238.523858 
L 569.280531 245.43538 
L 569.548626 268.915476 
L 570.352908 239.371897 
L 571.157191 181.217583 
L 571.425286 192.136092 
L 571.69338 192.136092 
L 571.961474 176.903181 
L 572.229569 176.903181 
L 572.497663 168.762001 
L 572.765757 176.722973 
L 573.033852 169.81145 
L 573.301946 171.433326 
L 573.57004 168.581793 
L 573.838134 177.104591 
L 574.106229 178.81127 
L 574.374323 158.829338 
L 574.910512 158.829338 
L 575.178606 200.256071 
L 575.4467 216.28402 
L 575.714795 216.28402 
L 575.982889 206.23475 
L 576.250983 219.909389 
L 576.787172 196.492896 
L 577.055266 220.481816 
L 577.32336 204.125252 
L 577.591455 199.249024 
L 577.859549 199.249024 
L 578.127643 225.252038 
L 578.931926 225.252038 
L 579.200021 237.739421 
L 579.468115 237.739421 
L 579.736209 255.548252 
L 580.004304 238.905476 
L 580.272398 238.905476 
L 580.540492 240.442547 
L 580.808586 240.442547 
L 581.076681 243.135073 
L 581.344775 223.15314 
L 581.612869 223.15314 
L 581.880964 241.99022 
L 582.417152 241.99022 
L 582.685247 244.608542 
L 583.221435 244.608542 
L 583.489529 228.251978 
L 583.757624 231.008107 
L 584.025718 228.273179 
L 584.293812 239.191689 
L 584.561907 239.191689 
L 584.830001 228.273179 
L 585.098095 239.191689 
L 585.634284 239.191689 
L 585.902378 228.357983 
L 586.438567 228.357983 
L 586.706661 218.255712 
L 587.24285 218.255712 
L 587.510944 209.732914 
L 587.779038 231.410926 
L 588.047133 242.244631 
L 588.315227 220.566619 
L 588.583321 220.566619 
L 588.851416 196.5777 
L 589.11951 196.5777 
L 589.387604 209.065083 
L 589.655699 208.248845 
L 589.923793 228.230777 
L 590.191887 230.584087 
L 590.459981 234.803084 
L 590.728076 251.604868 
L 590.99617 256.481096 
L 591.264264 270.346543 
L 591.800453 270.346543 
L 592.068547 258.781403 
L 592.336642 261.399726 
L 592.604736 284.879822 
L 592.87283 294.929091 
L 593.140925 272.689253 
L 593.409019 266.890782 
L 593.677113 246.50603 
L 593.945207 246.50603 
L 594.213302 256.608302 
L 594.481396 246.50603 
L 594.74949 246.50603 
L 595.017585 234.400265 
L 596.358056 234.400265 
L 596.626151 237.092791 
L 596.894245 229.025814 
L 597.162339 229.025814 
L 597.430433 216.538431 
L 597.698528 235.841933 
L 597.966622 235.841933 
L 598.234716 242.520244 
L 598.502811 246.389425 
L 598.770905 266.774176 
L 599.307094 261.463329 
L 599.575188 261.463329 
L 599.843282 211.736407 
L 600.111377 200.892101 
L 600.379471 200.892101 
L 600.647565 192.825125 
L 601.183754 235.481516 
L 601.451848 235.481516 
L 601.719942 211.492596 
L 601.988037 208.683465 
L 602.79232 181.079776 
L 603.328508 181.079776 
L 603.596602 205.715326 
L 603.864697 205.715326 
L 604.132791 228.665398 
L 604.400885 228.665398 
L 604.66898 236.318955 
L 604.937074 218.669131 
L 605.473263 218.669131 
L 605.741357 233.255412 
L 606.009451 233.255412 
L 606.277546 236.21295 
L 606.54564 241.704006 
L 606.813734 259.35383 
L 607.081828 259.35383 
L 607.349923 238.396652 
L 607.618017 235.714727 
L 607.886111 212.764655 
L 608.958489 212.764655 
L 609.226583 200.277272 
L 609.494677 200.277272 
L 609.762772 207.326601 
L 610.030866 207.326601 
L 610.29896 209.722313 
L 610.567054 193.694365 
L 611.103243 193.694365 
L 611.371337 210.686958 
L 612.443715 210.686958 
L 612.711809 234.167054 
L 613.247998 234.167054 
L 613.516092 211.216983 
L 614.05228 211.216983 
L 614.320375 227.244931 
L 614.588469 227.244931 
L 614.856563 222.368704 
L 615.124658 202.386771 
L 615.392752 205.068696 
L 615.928941 205.068696 
L 616.197035 184.599141 
L 617.269412 184.599141 
L 617.537506 192.666117 
L 617.805601 182.563846 
L 618.073695 182.563846 
L 618.341789 195.051228 
L 618.609884 195.051228 
L 618.877978 192.358703 
L 619.146072 192.358703 
L 619.414167 185.23517 
L 619.682261 189.856986 
L 619.950355 189.856986 
L 620.21845 195.655457 
L 620.486544 195.655457 
L 620.754638 170.648889 
L 621.022732 170.648889 
L 621.290827 150.942569 
L 622.09511 150.942569 
L 622.363204 144.031047 
L 627.456996 144.031047 
L 627.72509 158.977745 
L 628.529373 158.977745 
L 628.797467 154.970757 
L 629.065562 154.970757 
L 629.333656 172.620581 
L 629.869845 172.620581 
L 630.137939 154.970757 
L 630.406033 154.970757 
L 630.674127 157.663283 
L 630.942222 149.140485 
L 631.210316 165.783262 
L 631.47841 162.571312 
L 632.282693 162.571312 
L 632.550788 167.807957 
L 632.818882 167.807957 
L 633.086976 149.999125 
L 633.623165 149.914321 
L 634.963636 149.914321 
L 635.231731 157.461874 
L 635.499825 144.974491 
L 636.036014 144.974491 
L 636.304108 142.292566 
L 637.644579 142.292566 
L 637.912674 152.394837 
L 640.325522 152.384237 
L 640.593617 142.281965 
L 641.3979 142.281965 
L 641.665994 150.433746 
L 642.470277 150.433746 
L 642.738371 153.126271 
L 643.006466 153.126271 
L 643.27456 136.769708 
L 644.346937 136.769708 
L 644.615031 120.126931 
L 647.295974 120.126931 
L 647.564069 117.413204 
L 651.317389 117.413204 
L 651.585483 127.515476 
L 652.389766 127.515476 
L 652.657861 124.897154 
L 652.925955 114.794882 
L 654.534521 114.794882 
L 654.802615 124.897154 
L 655.070709 117.985631 
L 661.773067 117.985631 
L 662.041161 110.565285 
L 662.845444 110.565285 
L 663.113539 107.872759 
L 669.547802 107.872759 
L 669.815896 110.565285 
L 672.228745 110.565285 
L 672.496839 99.731579 
L 689.386781 99.731579 
L 689.654875 88.887273 
L 871.690909 88.972077 
L 871.690909 88.972077 
" style="fill:none;stroke:#8dd3c7;stroke-linecap:square;stroke-width:1.5;"/>
   </g>
   <g id="line2d_16">
    <path clip-path="url(#p294137dcb5)" d="M 161.509091 220.407612 
L 182.688541 220.407612 
L 182.956635 208.407852 
L 184.833296 208.407852 
L 185.10139 195.157233 
L 187.782333 195.157233 
L 188.050427 188.510723 
L 218.345084 188.510723 
L 218.613178 182.563846 
L 218.881273 182.563846 
L 219.149367 170.405078 
L 572.229569 170.405078 
L 572.497663 168.762001 
L 573.301946 168.762001 
L 573.57004 168.581793 
L 574.106229 168.581793 
L 574.374323 158.829338 
L 621.022732 158.829338 
L 621.290827 150.942569 
L 622.09511 150.942569 
L 622.363204 144.031047 
L 636.036014 144.031047 
L 636.304108 142.292566 
L 643.006466 142.281965 
L 643.27456 136.769708 
L 644.346937 136.769708 
L 644.615031 120.126931 
L 647.295974 120.126931 
L 647.564069 117.413204 
L 652.657861 117.413204 
L 652.925955 114.794882 
L 661.773067 114.794882 
L 662.041161 110.565285 
L 662.845444 110.565285 
L 663.113539 107.872759 
L 672.228745 107.872759 
L 672.496839 99.731579 
L 689.386781 99.731579 
L 689.654875 88.887273 
L 871.690909 88.887273 
L 871.690909 88.887273 
" style="fill:none;stroke:#feffb3;stroke-linecap:square;stroke-width:1.5;"/>
   </g>
   <g id="line2d_17">
    <path clip-path="url(#p294137dcb5)" d="M 161.509091 299.555147 
L 163.92194 299.555147 
L 164.190034 313.808671 
L 166.602883 313.808671 
L 166.870977 326.9621 
L 169.283826 326.9621 
L 169.55192 339.100339 
L 171.964769 339.100339 
L 172.232863 350.301742 
L 174.645712 350.301742 
L 174.913806 360.638615 
L 177.326655 360.638615 
L 177.594749 370.177681 
L 180.007598 370.177681 
L 180.275692 378.980516 
L 182.688541 378.980516 
L 182.956635 387.103944 
L 185.369484 387.103944 
L 185.637579 394.600401 
L 188.050427 394.600401 
L 188.318522 401.518276 
L 190.73137 401.518276 
L 190.999465 407.902226 
L 193.412313 407.902226 
L 193.680408 413.793459 
L 196.093256 413.793459 
L 196.361351 419.230003 
L 198.7742 419.230003 
L 199.042294 424.246952 
L 201.455143 424.246952 
L 201.723237 428.876689 
L 204.136086 428.876689 
L 204.40418 433.149101 
L 206.817029 433.149101 
L 207.085123 437.091765 
L 209.497972 437.091765 
L 209.766066 440.730132 
L 212.178915 440.730132 
L 212.447009 444.087688 
L 214.859858 444.087688 
L 215.127952 447.186106 
L 217.540801 447.186106 
L 217.808895 450.045386 
L 220.221744 450.045386 
L 220.489838 452.683985 
L 222.902687 452.683985 
L 223.170781 455.118936 
L 225.58363 455.118936 
L 225.851724 457.365955 
L 228.264573 457.365955 
L 228.532668 459.439548 
L 230.945516 459.439548 
L 231.213611 461.353101 
L 233.626459 461.353101 
L 233.894554 463.118964 
L 236.307402 463.118964 
L 236.575497 464.748536 
L 238.988346 464.748536 
L 239.25644 466.252338 
L 241.669289 466.252338 
L 241.937383 467.640075 
L 244.350232 467.640075 
L 244.618326 468.920705 
L 247.031175 468.920705 
L 247.299269 470.102496 
L 249.712118 470.102496 
L 249.980212 471.193076 
L 252.393061 471.193076 
L 252.661155 472.199484 
L 255.074004 472.199484 
L 255.342098 473.128217 
L 257.754947 473.128217 
L 258.023041 473.985269 
L 260.43589 473.985269 
L 260.703984 474.776174 
L 263.116833 474.776174 
L 263.384927 475.506036 
L 265.797776 475.506036 
L 266.06587 476.179568 
L 268.478719 476.179568 
L 268.746814 476.801115 
L 271.159662 476.801115 
L 271.427757 477.374691 
L 273.840605 477.374691 
L 274.1087 477.903999 
L 276.521548 477.903999 
L 276.789643 478.392454 
L 279.202492 478.392454 
L 279.470586 478.843209 
L 281.883435 478.843209 
L 282.151529 479.259176 
L 284.564378 479.259176 
L 284.832472 479.643037 
L 287.245321 479.643037 
L 287.513415 479.997272 
L 289.926264 479.997272 
L 290.194358 480.324167 
L 292.607207 480.324167 
L 292.875301 480.625832 
L 295.28815 480.625832 
L 295.556244 480.904214 
L 297.969093 480.904214 
L 298.237187 481.161111 
L 300.650036 481.161111 
L 300.91813 481.39818 
L 303.330979 481.39818 
L 303.599073 481.616952 
L 306.011922 481.616952 
L 306.280016 481.818839 
L 308.692865 481.818839 
L 308.96096 482.005145 
L 311.373808 482.005145 
L 311.641903 482.177071 
L 314.054751 482.177071 
L 314.322846 482.335728 
L 316.735694 482.335728 
L 317.003789 482.482139 
L 319.416637 482.482139 
L 319.684732 482.617251 
L 322.097581 482.617251 
L 322.365675 482.741934 
L 324.778524 482.741934 
L 325.314712 482.856994 
L 330.14041 482.963174 
L 330.676598 483.061159 
L 335.502296 483.151581 
L 336.038485 483.235025 
L 340.864182 483.312028 
L 341.400371 483.383088 
L 346.226068 483.448664 
L 346.762257 483.509178 
L 354.268897 483.616556 
L 355.07318 483.664113 
L 362.311727 483.748498 
L 363.384104 483.785871 
L 373.035499 483.881557 
L 374.37597 483.90866 
L 389.121157 484.015848 
L 390.997817 484.032587 
L 418.611531 484.143087 
L 423.169134 484.15639 
L 871.690909 484.232727 
L 871.690909 484.232727 
" style="fill:none;stroke:#bfbbd9;stroke-linecap:square;stroke-width:1.5;"/>
   </g>
   <g id="patch_3">
    <path d="M 126 504 
L 126 69.12 
" style="fill:none;stroke:#ffffff;stroke-linecap:square;stroke-linejoin:miter;stroke-width:0.8;"/>
   </g>
   <g id="patch_4">
    <path d="M 907.2 504 
L 907.2 69.12 
" style="fill:none;stroke:#ffffff;stroke-linecap:square;stroke-linejoin:miter;stroke-width:0.8;"/>
   </g>
   <g id="patch_5">
    <path d="M 126 504 
L 907.2 504 
" style="fill:none;stroke:#ffffff;stroke-linecap:square;stroke-linejoin:miter;stroke-width:0.8;"/>
   </g>
   <g id="patch_6">
    <path d="M 126 69.12 
L 907.2 69.12 
" style="fill:none;stroke:#ffffff;stroke-linecap:square;stroke-linejoin:miter;stroke-width:0.8;"/>
   </g>
   <g id="text_16">
    <!-- instance 3 with error 0.010900121996499257 -->
    <g style="fill:#ffffff;" transform="translate(378.046875 63.12)scale(0.12 -0.12)">
     <defs>
      <path d="M 2834 3397 
L 2834 2853 
Q 2591 2978 2328 3040 
Q 2066 3103 1784 3103 
Q 1356 3103 1142 2972 
Q 928 2841 928 2578 
Q 928 2378 1081 2264 
Q 1234 2150 1697 2047 
L 1894 2003 
Q 2506 1872 2764 1633 
Q 3022 1394 3022 966 
Q 3022 478 2636 193 
Q 2250 -91 1575 -91 
Q 1294 -91 989 -36 
Q 684 19 347 128 
L 347 722 
Q 666 556 975 473 
Q 1284 391 1588 391 
Q 1994 391 2212 530 
Q 2431 669 2431 922 
Q 2431 1156 2273 1281 
Q 2116 1406 1581 1522 
L 1381 1569 
Q 847 1681 609 1914 
Q 372 2147 372 2553 
Q 372 3047 722 3315 
Q 1072 3584 1716 3584 
Q 2034 3584 2315 3537 
Q 2597 3491 2834 3397 
z
" id="DejaVuSans-73" transform="scale(0.015625)"/>
      <path d="M 3122 3366 
L 3122 2828 
Q 2878 2963 2633 3030 
Q 2388 3097 2138 3097 
Q 1578 3097 1268 2742 
Q 959 2388 959 1747 
Q 959 1106 1268 751 
Q 1578 397 2138 397 
Q 2388 397 2633 464 
Q 2878 531 3122 666 
L 3122 134 
Q 2881 22 2623 -34 
Q 2366 -91 2075 -91 
Q 1284 -91 818 406 
Q 353 903 353 1747 
Q 353 2603 823 3093 
Q 1294 3584 2113 3584 
Q 2378 3584 2631 3529 
Q 2884 3475 3122 3366 
z
" id="DejaVuSans-63" transform="scale(0.015625)"/>
      <path id="DejaVuSans-20" transform="scale(0.015625)"/>
      <path d="M 269 3500 
L 844 3500 
L 1563 769 
L 2278 3500 
L 2956 3500 
L 3675 769 
L 4391 3500 
L 4966 3500 
L 4050 0 
L 3372 0 
L 2619 2869 
L 1863 0 
L 1184 0 
L 269 3500 
z
" id="DejaVuSans-77" transform="scale(0.015625)"/>
      <path d="M 3513 2113 
L 3513 0 
L 2938 0 
L 2938 2094 
Q 2938 2591 2744 2837 
Q 2550 3084 2163 3084 
Q 1697 3084 1428 2787 
Q 1159 2491 1159 1978 
L 1159 0 
L 581 0 
L 581 4863 
L 1159 4863 
L 1159 2956 
Q 1366 3272 1645 3428 
Q 1925 3584 2291 3584 
Q 2894 3584 3203 3211 
Q 3513 2838 3513 2113 
z
" id="DejaVuSans-68" transform="scale(0.015625)"/>
      <path d="M 684 794 
L 1344 794 
L 1344 0 
L 684 0 
L 684 794 
z
" id="DejaVuSans-2e" transform="scale(0.015625)"/>
      <path d="M 703 97 
L 703 672 
Q 941 559 1184 500 
Q 1428 441 1663 441 
Q 2288 441 2617 861 
Q 2947 1281 2994 2138 
Q 2813 1869 2534 1725 
Q 2256 1581 1919 1581 
Q 1219 1581 811 2004 
Q 403 2428 403 3163 
Q 403 3881 828 4315 
Q 1253 4750 1959 4750 
Q 2769 4750 3195 4129 
Q 3622 3509 3622 2328 
Q 3622 1225 3098 567 
Q 2575 -91 1691 -91 
Q 1453 -91 1209 -44 
Q 966 3 703 97 
z
M 1959 2075 
Q 2384 2075 2632 2365 
Q 2881 2656 2881 3163 
Q 2881 3666 2632 3958 
Q 2384 4250 1959 4250 
Q 1534 4250 1286 3958 
Q 1038 3666 1038 3163 
Q 1038 2656 1286 2365 
Q 1534 2075 1959 2075 
z
" id="DejaVuSans-39" transform="scale(0.015625)"/>
      <path d="M 2113 2584 
Q 1688 2584 1439 2293 
Q 1191 2003 1191 1497 
Q 1191 994 1439 701 
Q 1688 409 2113 409 
Q 2538 409 2786 701 
Q 3034 994 3034 1497 
Q 3034 2003 2786 2293 
Q 2538 2584 2113 2584 
z
M 3366 4563 
L 3366 3988 
Q 3128 4100 2886 4159 
Q 2644 4219 2406 4219 
Q 1781 4219 1451 3797 
Q 1122 3375 1075 2522 
Q 1259 2794 1537 2939 
Q 1816 3084 2150 3084 
Q 2853 3084 3261 2657 
Q 3669 2231 3669 1497 
Q 3669 778 3244 343 
Q 2819 -91 2113 -91 
Q 1303 -91 875 529 
Q 447 1150 447 2328 
Q 447 3434 972 4092 
Q 1497 4750 2381 4750 
Q 2619 4750 2861 4703 
Q 3103 4656 3366 4563 
z
" id="DejaVuSans-36" transform="scale(0.015625)"/>
      <path d="M 2419 4116 
L 825 1625 
L 2419 1625 
L 2419 4116 
z
M 2253 4666 
L 3047 4666 
L 3047 1625 
L 3713 1625 
L 3713 1100 
L 3047 1100 
L 3047 0 
L 2419 0 
L 2419 1100 
L 313 1100 
L 313 1709 
L 2253 4666 
z
" id="DejaVuSans-34" transform="scale(0.015625)"/>
      <path d="M 525 4666 
L 3525 4666 
L 3525 4397 
L 1831 0 
L 1172 0 
L 2766 4134 
L 525 4134 
L 525 4666 
z
" id="DejaVuSans-37" transform="scale(0.015625)"/>
     </defs>
     <use xlink:href="#DejaVuSans-69"/>
     <use x="27.783203" xlink:href="#DejaVuSans-6e"/>
     <use x="91.162109" xlink:href="#DejaVuSans-73"/>
     <use x="143.261719" xlink:href="#DejaVuSans-74"/>
     <use x="182.470703" xlink:href="#DejaVuSans-61"/>
     <use x="243.75" xlink:href="#DejaVuSans-6e"/>
     <use x="307.128906" xlink:href="#DejaVuSans-63"/>
     <use x="362.109375" xlink:href="#DejaVuSans-65"/>
     <use x="423.632812" xlink:href="#DejaVuSans-20"/>
     <use x="455.419922" xlink:href="#DejaVuSans-33"/>
     <use x="519.042969" xlink:href="#DejaVuSans-20"/>
     <use x="550.830078" xlink:href="#DejaVuSans-77"/>
     <use x="632.617188" xlink:href="#DejaVuSans-69"/>
     <use x="660.400391" xlink:href="#DejaVuSans-74"/>
     <use x="699.609375" xlink:href="#DejaVuSans-68"/>
     <use x="762.988281" xlink:href="#DejaVuSans-20"/>
     <use x="794.775391" xlink:href="#DejaVuSans-65"/>
     <use x="856.298828" xlink:href="#DejaVuSans-72"/>
     <use x="895.662109" xlink:href="#DejaVuSans-72"/>
     <use x="934.525391" xlink:href="#DejaVuSans-6f"/>
     <use x="995.707031" xlink:href="#DejaVuSans-72"/>
     <use x="1036.820312" xlink:href="#DejaVuSans-20"/>
     <use x="1068.607422" xlink:href="#DejaVuSans-30"/>
     <use x="1132.230469" xlink:href="#DejaVuSans-2e"/>
     <use x="1164.017578" xlink:href="#DejaVuSans-30"/>
     <use x="1227.640625" xlink:href="#DejaVuSans-31"/>
     <use x="1291.263672" xlink:href="#DejaVuSans-30"/>
     <use x="1354.886719" xlink:href="#DejaVuSans-39"/>
     <use x="1418.509766" xlink:href="#DejaVuSans-30"/>
     <use x="1482.132812" xlink:href="#DejaVuSans-30"/>
     <use x="1545.755859" xlink:href="#DejaVuSans-31"/>
     <use x="1609.378906" xlink:href="#DejaVuSans-32"/>
     <use x="1673.001953" xlink:href="#DejaVuSans-31"/>
     <use x="1736.625" xlink:href="#DejaVuSans-39"/>
     <use x="1800.248047" xlink:href="#DejaVuSans-39"/>
     <use x="1863.871094" xlink:href="#DejaVuSans-36"/>
     <use x="1927.494141" xlink:href="#DejaVuSans-34"/>
     <use x="1991.117188" xlink:href="#DejaVuSans-39"/>
     <use x="2054.740234" xlink:href="#DejaVuSans-39"/>
     <use x="2118.363281" xlink:href="#DejaVuSans-32"/>
     <use x="2181.986328" xlink:href="#DejaVuSans-35"/>
     <use x="2245.609375" xlink:href="#DejaVuSans-37"/>
    </g>
   </g>
   <g id="legend_1">
    <g id="patch_7">
     <path d="M 805.348438 499 
L 900.2 499 
Q 902.2 499 902.2 497 
L 902.2 453.965625 
Q 902.2 451.965625 900.2 451.965625 
L 805.348438 451.965625 
Q 803.348438 451.965625 803.348438 453.965625 
L 803.348438 497 
Q 803.348438 499 805.348438 499 
z
" style="opacity:0.8;stroke:#cccccc;stroke-linejoin:miter;"/>
    </g>
    <g id="line2d_18">
     <path d="M 807.348438 460.064062 
L 827.348438 460.064062 
" style="fill:none;stroke:#8dd3c7;stroke-linecap:square;stroke-width:1.5;"/>
    </g>
    <g id="line2d_19"/>
    <g id="text_17">
     <!-- cost -->
     <g style="fill:#ffffff;" transform="translate(835.348438 463.564062)scale(0.1 -0.1)">
      <use xlink:href="#DejaVuSans-63"/>
      <use x="54.980469" xlink:href="#DejaVuSans-6f"/>
      <use x="116.162109" xlink:href="#DejaVuSans-73"/>
      <use x="168.261719" xlink:href="#DejaVuSans-74"/>
     </g>
    </g>
    <g id="line2d_20">
     <path d="M 807.348438 474.742188 
L 827.348438 474.742188 
" style="fill:none;stroke:#feffb3;stroke-linecap:square;stroke-width:1.5;"/>
    </g>
    <g id="line2d_21"/>
    <g id="text_18">
     <!-- best cost -->
     <g style="fill:#ffffff;" transform="translate(835.348438 478.242188)scale(0.1 -0.1)">
      <defs>
       <path d="M 3116 1747 
Q 3116 2381 2855 2742 
Q 2594 3103 2138 3103 
Q 1681 3103 1420 2742 
Q 1159 2381 1159 1747 
Q 1159 1113 1420 752 
Q 1681 391 2138 391 
Q 2594 391 2855 752 
Q 3116 1113 3116 1747 
z
M 1159 2969 
Q 1341 3281 1617 3432 
Q 1894 3584 2278 3584 
Q 2916 3584 3314 3078 
Q 3713 2572 3713 1747 
Q 3713 922 3314 415 
Q 2916 -91 2278 -91 
Q 1894 -91 1617 61 
Q 1341 213 1159 525 
L 1159 0 
L 581 0 
L 581 4863 
L 1159 4863 
L 1159 2969 
z
" id="DejaVuSans-62" transform="scale(0.015625)"/>
      </defs>
      <use xlink:href="#DejaVuSans-62"/>
      <use x="63.476562" xlink:href="#DejaVuSans-65"/>
      <use x="125" xlink:href="#DejaVuSans-73"/>
      <use x="177.099609" xlink:href="#DejaVuSans-74"/>
      <use x="216.308594" xlink:href="#DejaVuSans-20"/>
      <use x="248.095703" xlink:href="#DejaVuSans-63"/>
      <use x="303.076172" xlink:href="#DejaVuSans-6f"/>
      <use x="364.257812" xlink:href="#DejaVuSans-73"/>
      <use x="416.357422" xlink:href="#DejaVuSans-74"/>
     </g>
    </g>
    <g id="line2d_22">
     <path d="M 807.348438 489.420313 
L 827.348438 489.420313 
" style="fill:none;stroke:#bfbbd9;stroke-linecap:square;stroke-width:1.5;"/>
    </g>
    <g id="line2d_23"/>
    <g id="text_19">
     <!-- temperature -->
     <g style="fill:#ffffff;" transform="translate(835.348438 492.920313)scale(0.1 -0.1)">
      <defs>
       <path d="M 3328 2828 
Q 3544 3216 3844 3400 
Q 4144 3584 4550 3584 
Q 5097 3584 5394 3201 
Q 5691 2819 5691 2113 
L 5691 0 
L 5113 0 
L 5113 2094 
Q 5113 2597 4934 2840 
Q 4756 3084 4391 3084 
Q 3944 3084 3684 2787 
Q 3425 2491 3425 1978 
L 3425 0 
L 2847 0 
L 2847 2094 
Q 2847 2600 2669 2842 
Q 2491 3084 2119 3084 
Q 1678 3084 1418 2786 
Q 1159 2488 1159 1978 
L 1159 0 
L 581 0 
L 581 3500 
L 1159 3500 
L 1159 2956 
Q 1356 3278 1631 3431 
Q 1906 3584 2284 3584 
Q 2666 3584 2933 3390 
Q 3200 3197 3328 2828 
z
" id="DejaVuSans-6d" transform="scale(0.015625)"/>
       <path d="M 1159 525 
L 1159 -1331 
L 581 -1331 
L 581 3500 
L 1159 3500 
L 1159 2969 
Q 1341 3281 1617 3432 
Q 1894 3584 2278 3584 
Q 2916 3584 3314 3078 
Q 3713 2572 3713 1747 
Q 3713 922 3314 415 
Q 2916 -91 2278 -91 
Q 1894 -91 1617 61 
Q 1341 213 1159 525 
z
M 3116 1747 
Q 3116 2381 2855 2742 
Q 2594 3103 2138 3103 
Q 1681 3103 1420 2742 
Q 1159 2381 1159 1747 
Q 1159 1113 1420 752 
Q 1681 391 2138 391 
Q 2594 391 2855 752 
Q 3116 1113 3116 1747 
z
" id="DejaVuSans-70" transform="scale(0.015625)"/>
       <path d="M 544 1381 
L 544 3500 
L 1119 3500 
L 1119 1403 
Q 1119 906 1312 657 
Q 1506 409 1894 409 
Q 2359 409 2629 706 
Q 2900 1003 2900 1516 
L 2900 3500 
L 3475 3500 
L 3475 0 
L 2900 0 
L 2900 538 
Q 2691 219 2414 64 
Q 2138 -91 1772 -91 
Q 1169 -91 856 284 
Q 544 659 544 1381 
z
M 1991 3584 
L 1991 3584 
z
" id="DejaVuSans-75" transform="scale(0.015625)"/>
      </defs>
      <use xlink:href="#DejaVuSans-74"/>
      <use x="39.208984" xlink:href="#DejaVuSans-65"/>
      <use x="100.732422" xlink:href="#DejaVuSans-6d"/>
      <use x="198.144531" xlink:href="#DejaVuSans-70"/>
      <use x="261.621094" xlink:href="#DejaVuSans-65"/>
      <use x="323.144531" xlink:href="#DejaVuSans-72"/>
      <use x="364.257812" xlink:href="#DejaVuSans-61"/>
      <use x="425.537109" xlink:href="#DejaVuSans-74"/>
      <use x="464.746094" xlink:href="#DejaVuSans-75"/>
      <use x="528.125" xlink:href="#DejaVuSans-72"/>
      <use x="566.988281" xlink:href="#DejaVuSans-65"/>
     </g>
    </g>
   </g>
  </g>
 </g>
 <defs>
  <clipPath id="p294137dcb5">
   <rect height="434.88" width="781.2" x="126" y="69.12"/>
  </clipPath>
 </defs>
</svg>
