<?xml version="1.0" encoding="utf-8" standalone="no"?>
<!DOCTYPE svg PUBLIC "-//W3C//DTD SVG 1.1//EN"
  "http://www.w3.org/Graphics/SVG/1.1/DTD/svg11.dtd">
<svg height="576pt" version="1.1" viewBox="0 0 1008 576" width="1008pt" xmlns="http://www.w3.org/2000/svg" xmlns:xlink="http://www.w3.org/1999/xlink">
 <metadata>
  <rdf:RDF xmlns:cc="http://creativecommons.org/ns#" xmlns:dc="http://purl.org/dc/elements/1.1/" xmlns:rdf="http://www.w3.org/1999/02/22-rdf-syntax-ns#">
   <cc:Work>
    <dc:type rdf:resource="http://purl.org/dc/dcmitype/StillImage"/>
    <dc:date>2022-01-07T21:26:32.038243</dc:date>
    <dc:format>image/svg+xml</dc:format>
    <dc:creator>
     <cc:Agent>
      <dc:title>Matplotlib v3.4.3, https://matplotlib.org/</dc:title>
     </cc:Agent>
    </dc:creator>
   </cc:Work>
  </rdf:RDF>
 </metadata>
 <defs>
  <style type="text/css">*{stroke-linecap:butt;stroke-linejoin:round;}</style>
 </defs>
 <g id="figure_1">
  <g id="patch_1">
   <path d="M 0 576 
L 1008 576 
L 1008 0 
L 0 0 
z
"/>
  </g>
  <g id="axes_1">
   <g id="patch_2">
    <path d="M 126 504 
L 907.2 504 
L 907.2 69.12 
L 126 69.12 
z
"/>
   </g>
   <g id="matplotlib.axis_1">
    <g id="xtick_1">
     <g id="line2d_1">
      <defs>
       <path d="M 0 0 
L 0 3.5 
" id="mef17fbe5ae" style="stroke:#ffffff;stroke-width:0.8;"/>
      </defs>
      <g>
       <use style="fill:#ffffff;stroke:#ffffff;stroke-width:0.8;" x="161.509091" xlink:href="#mef17fbe5ae" y="504"/>
      </g>
     </g>
     <g id="text_1">
      <!-- 0 -->
      <g style="fill:#ffffff;" transform="translate(158.327841 518.598438)scale(0.1 -0.1)">
       <defs>
        <path d="M 2034 4250 
Q 1547 4250 1301 3770 
Q 1056 3291 1056 2328 
Q 1056 1369 1301 889 
Q 1547 409 2034 409 
Q 2525 409 2770 889 
Q 3016 1369 3016 2328 
Q 3016 3291 2770 3770 
Q 2525 4250 2034 4250 
z
M 2034 4750 
Q 2819 4750 3233 4129 
Q 3647 3509 3647 2328 
Q 3647 1150 3233 529 
Q 2819 -91 2034 -91 
Q 1250 -91 836 529 
Q 422 1150 422 2328 
Q 422 3509 836 4129 
Q 1250 4750 2034 4750 
z
" id="DejaVuSans-30" transform="scale(0.015625)"/>
       </defs>
       <use xlink:href="#DejaVuSans-30"/>
      </g>
     </g>
    </g>
    <g id="xtick_2">
     <g id="line2d_2">
      <g>
       <use style="fill:#ffffff;stroke:#ffffff;stroke-width:0.8;" x="274.775729" xlink:href="#mef17fbe5ae" y="504"/>
      </g>
     </g>
     <g id="text_2">
      <!-- 500 -->
      <g style="fill:#ffffff;" transform="translate(265.231979 518.598438)scale(0.1 -0.1)">
       <defs>
        <path d="M 691 4666 
L 3169 4666 
L 3169 4134 
L 1269 4134 
L 1269 2991 
Q 1406 3038 1543 3061 
Q 1681 3084 1819 3084 
Q 2600 3084 3056 2656 
Q 3513 2228 3513 1497 
Q 3513 744 3044 326 
Q 2575 -91 1722 -91 
Q 1428 -91 1123 -41 
Q 819 9 494 109 
L 494 744 
Q 775 591 1075 516 
Q 1375 441 1709 441 
Q 2250 441 2565 725 
Q 2881 1009 2881 1497 
Q 2881 1984 2565 2268 
Q 2250 2553 1709 2553 
Q 1456 2553 1204 2497 
Q 953 2441 691 2322 
L 691 4666 
z
" id="DejaVuSans-35" transform="scale(0.015625)"/>
       </defs>
       <use xlink:href="#DejaVuSans-35"/>
       <use x="63.623047" xlink:href="#DejaVuSans-30"/>
       <use x="127.246094" xlink:href="#DejaVuSans-30"/>
      </g>
     </g>
    </g>
    <g id="xtick_3">
     <g id="line2d_3">
      <g>
       <use style="fill:#ffffff;stroke:#ffffff;stroke-width:0.8;" x="388.042366" xlink:href="#mef17fbe5ae" y="504"/>
      </g>
     </g>
     <g id="text_3">
      <!-- 1000 -->
      <g style="fill:#ffffff;" transform="translate(375.317366 518.598438)scale(0.1 -0.1)">
       <defs>
        <path d="M 794 531 
L 1825 531 
L 1825 4091 
L 703 3866 
L 703 4441 
L 1819 4666 
L 2450 4666 
L 2450 531 
L 3481 531 
L 3481 0 
L 794 0 
L 794 531 
z
" id="DejaVuSans-31" transform="scale(0.015625)"/>
       </defs>
       <use xlink:href="#DejaVuSans-31"/>
       <use x="63.623047" xlink:href="#DejaVuSans-30"/>
       <use x="127.246094" xlink:href="#DejaVuSans-30"/>
       <use x="190.869141" xlink:href="#DejaVuSans-30"/>
      </g>
     </g>
    </g>
    <g id="xtick_4">
     <g id="line2d_4">
      <g>
       <use style="fill:#ffffff;stroke:#ffffff;stroke-width:0.8;" x="501.309004" xlink:href="#mef17fbe5ae" y="504"/>
      </g>
     </g>
     <g id="text_4">
      <!-- 1500 -->
      <g style="fill:#ffffff;" transform="translate(488.584004 518.598438)scale(0.1 -0.1)">
       <use xlink:href="#DejaVuSans-31"/>
       <use x="63.623047" xlink:href="#DejaVuSans-35"/>
       <use x="127.246094" xlink:href="#DejaVuSans-30"/>
       <use x="190.869141" xlink:href="#DejaVuSans-30"/>
      </g>
     </g>
    </g>
    <g id="xtick_5">
     <g id="line2d_5">
      <g>
       <use style="fill:#ffffff;stroke:#ffffff;stroke-width:0.8;" x="614.575642" xlink:href="#mef17fbe5ae" y="504"/>
      </g>
     </g>
     <g id="text_5">
      <!-- 2000 -->
      <g style="fill:#ffffff;" transform="translate(601.850642 518.598438)scale(0.1 -0.1)">
       <defs>
        <path d="M 1228 531 
L 3431 531 
L 3431 0 
L 469 0 
L 469 531 
Q 828 903 1448 1529 
Q 2069 2156 2228 2338 
Q 2531 2678 2651 2914 
Q 2772 3150 2772 3378 
Q 2772 3750 2511 3984 
Q 2250 4219 1831 4219 
Q 1534 4219 1204 4116 
Q 875 4013 500 3803 
L 500 4441 
Q 881 4594 1212 4672 
Q 1544 4750 1819 4750 
Q 2544 4750 2975 4387 
Q 3406 4025 3406 3419 
Q 3406 3131 3298 2873 
Q 3191 2616 2906 2266 
Q 2828 2175 2409 1742 
Q 1991 1309 1228 531 
z
" id="DejaVuSans-32" transform="scale(0.015625)"/>
       </defs>
       <use xlink:href="#DejaVuSans-32"/>
       <use x="63.623047" xlink:href="#DejaVuSans-30"/>
       <use x="127.246094" xlink:href="#DejaVuSans-30"/>
       <use x="190.869141" xlink:href="#DejaVuSans-30"/>
      </g>
     </g>
    </g>
    <g id="xtick_6">
     <g id="line2d_6">
      <g>
       <use style="fill:#ffffff;stroke:#ffffff;stroke-width:0.8;" x="727.842279" xlink:href="#mef17fbe5ae" y="504"/>
      </g>
     </g>
     <g id="text_6">
      <!-- 2500 -->
      <g style="fill:#ffffff;" transform="translate(715.117279 518.598438)scale(0.1 -0.1)">
       <use xlink:href="#DejaVuSans-32"/>
       <use x="63.623047" xlink:href="#DejaVuSans-35"/>
       <use x="127.246094" xlink:href="#DejaVuSans-30"/>
       <use x="190.869141" xlink:href="#DejaVuSans-30"/>
      </g>
     </g>
    </g>
    <g id="xtick_7">
     <g id="line2d_7">
      <g>
       <use style="fill:#ffffff;stroke:#ffffff;stroke-width:0.8;" x="841.108917" xlink:href="#mef17fbe5ae" y="504"/>
      </g>
     </g>
     <g id="text_7">
      <!-- 3000 -->
      <g style="fill:#ffffff;" transform="translate(828.383917 518.598438)scale(0.1 -0.1)">
       <defs>
        <path d="M 2597 2516 
Q 3050 2419 3304 2112 
Q 3559 1806 3559 1356 
Q 3559 666 3084 287 
Q 2609 -91 1734 -91 
Q 1441 -91 1130 -33 
Q 819 25 488 141 
L 488 750 
Q 750 597 1062 519 
Q 1375 441 1716 441 
Q 2309 441 2620 675 
Q 2931 909 2931 1356 
Q 2931 1769 2642 2001 
Q 2353 2234 1838 2234 
L 1294 2234 
L 1294 2753 
L 1863 2753 
Q 2328 2753 2575 2939 
Q 2822 3125 2822 3475 
Q 2822 3834 2567 4026 
Q 2313 4219 1838 4219 
Q 1578 4219 1281 4162 
Q 984 4106 628 3988 
L 628 4550 
Q 988 4650 1302 4700 
Q 1616 4750 1894 4750 
Q 2613 4750 3031 4423 
Q 3450 4097 3450 3541 
Q 3450 3153 3228 2886 
Q 3006 2619 2597 2516 
z
" id="DejaVuSans-33" transform="scale(0.015625)"/>
       </defs>
       <use xlink:href="#DejaVuSans-33"/>
       <use x="63.623047" xlink:href="#DejaVuSans-30"/>
       <use x="127.246094" xlink:href="#DejaVuSans-30"/>
       <use x="190.869141" xlink:href="#DejaVuSans-30"/>
      </g>
     </g>
    </g>
    <g id="text_8">
     <!-- iteration -->
     <g style="fill:#ffffff;" transform="translate(495.477344 532.276562)scale(0.1 -0.1)">
      <defs>
       <path d="M 603 3500 
L 1178 3500 
L 1178 0 
L 603 0 
L 603 3500 
z
M 603 4863 
L 1178 4863 
L 1178 4134 
L 603 4134 
L 603 4863 
z
" id="DejaVuSans-69" transform="scale(0.015625)"/>
       <path d="M 1172 4494 
L 1172 3500 
L 2356 3500 
L 2356 3053 
L 1172 3053 
L 1172 1153 
Q 1172 725 1289 603 
Q 1406 481 1766 481 
L 2356 481 
L 2356 0 
L 1766 0 
Q 1100 0 847 248 
Q 594 497 594 1153 
L 594 3053 
L 172 3053 
L 172 3500 
L 594 3500 
L 594 4494 
L 1172 4494 
z
" id="DejaVuSans-74" transform="scale(0.015625)"/>
       <path d="M 3597 1894 
L 3597 1613 
L 953 1613 
Q 991 1019 1311 708 
Q 1631 397 2203 397 
Q 2534 397 2845 478 
Q 3156 559 3463 722 
L 3463 178 
Q 3153 47 2828 -22 
Q 2503 -91 2169 -91 
Q 1331 -91 842 396 
Q 353 884 353 1716 
Q 353 2575 817 3079 
Q 1281 3584 2069 3584 
Q 2775 3584 3186 3129 
Q 3597 2675 3597 1894 
z
M 3022 2063 
Q 3016 2534 2758 2815 
Q 2500 3097 2075 3097 
Q 1594 3097 1305 2825 
Q 1016 2553 972 2059 
L 3022 2063 
z
" id="DejaVuSans-65" transform="scale(0.015625)"/>
       <path d="M 2631 2963 
Q 2534 3019 2420 3045 
Q 2306 3072 2169 3072 
Q 1681 3072 1420 2755 
Q 1159 2438 1159 1844 
L 1159 0 
L 581 0 
L 581 3500 
L 1159 3500 
L 1159 2956 
Q 1341 3275 1631 3429 
Q 1922 3584 2338 3584 
Q 2397 3584 2469 3576 
Q 2541 3569 2628 3553 
L 2631 2963 
z
" id="DejaVuSans-72" transform="scale(0.015625)"/>
       <path d="M 2194 1759 
Q 1497 1759 1228 1600 
Q 959 1441 959 1056 
Q 959 750 1161 570 
Q 1363 391 1709 391 
Q 2188 391 2477 730 
Q 2766 1069 2766 1631 
L 2766 1759 
L 2194 1759 
z
M 3341 1997 
L 3341 0 
L 2766 0 
L 2766 531 
Q 2569 213 2275 61 
Q 1981 -91 1556 -91 
Q 1019 -91 701 211 
Q 384 513 384 1019 
Q 384 1609 779 1909 
Q 1175 2209 1959 2209 
L 2766 2209 
L 2766 2266 
Q 2766 2663 2505 2880 
Q 2244 3097 1772 3097 
Q 1472 3097 1187 3025 
Q 903 2953 641 2809 
L 641 3341 
Q 956 3463 1253 3523 
Q 1550 3584 1831 3584 
Q 2591 3584 2966 3190 
Q 3341 2797 3341 1997 
z
" id="DejaVuSans-61" transform="scale(0.015625)"/>
       <path d="M 1959 3097 
Q 1497 3097 1228 2736 
Q 959 2375 959 1747 
Q 959 1119 1226 758 
Q 1494 397 1959 397 
Q 2419 397 2687 759 
Q 2956 1122 2956 1747 
Q 2956 2369 2687 2733 
Q 2419 3097 1959 3097 
z
M 1959 3584 
Q 2709 3584 3137 3096 
Q 3566 2609 3566 1747 
Q 3566 888 3137 398 
Q 2709 -91 1959 -91 
Q 1206 -91 779 398 
Q 353 888 353 1747 
Q 353 2609 779 3096 
Q 1206 3584 1959 3584 
z
" id="DejaVuSans-6f" transform="scale(0.015625)"/>
       <path d="M 3513 2113 
L 3513 0 
L 2938 0 
L 2938 2094 
Q 2938 2591 2744 2837 
Q 2550 3084 2163 3084 
Q 1697 3084 1428 2787 
Q 1159 2491 1159 1978 
L 1159 0 
L 581 0 
L 581 3500 
L 1159 3500 
L 1159 2956 
Q 1366 3272 1645 3428 
Q 1925 3584 2291 3584 
Q 2894 3584 3203 3211 
Q 3513 2838 3513 2113 
z
" id="DejaVuSans-6e" transform="scale(0.015625)"/>
      </defs>
      <use xlink:href="#DejaVuSans-69"/>
      <use x="27.783203" xlink:href="#DejaVuSans-74"/>
      <use x="66.992188" xlink:href="#DejaVuSans-65"/>
      <use x="128.515625" xlink:href="#DejaVuSans-72"/>
      <use x="169.628906" xlink:href="#DejaVuSans-61"/>
      <use x="230.908203" xlink:href="#DejaVuSans-74"/>
      <use x="270.117188" xlink:href="#DejaVuSans-69"/>
      <use x="297.900391" xlink:href="#DejaVuSans-6f"/>
      <use x="359.082031" xlink:href="#DejaVuSans-6e"/>
     </g>
    </g>
   </g>
   <g id="matplotlib.axis_2">
    <g id="ytick_1">
     <g id="line2d_8">
      <defs>
       <path d="M 0 0 
L -3.5 0 
" id="m70034c9abd" style="stroke:#ffffff;stroke-width:0.8;"/>
      </defs>
      <g>
       <use style="fill:#ffffff;stroke:#ffffff;stroke-width:0.8;" x="126" xlink:href="#m70034c9abd" y="484.232727"/>
      </g>
     </g>
     <g id="text_9">
      <!-- 0 -->
      <g style="fill:#ffffff;" transform="translate(112.6375 488.031946)scale(0.1 -0.1)">
       <use xlink:href="#DejaVuSans-30"/>
      </g>
     </g>
    </g>
    <g id="ytick_2">
     <g id="line2d_9">
      <g>
       <use style="fill:#ffffff;stroke:#ffffff;stroke-width:0.8;" x="126" xlink:href="#m70034c9abd" y="394.646175"/>
      </g>
     </g>
     <g id="text_10">
      <!-- 1000 -->
      <g style="fill:#ffffff;" transform="translate(93.55 398.445394)scale(0.1 -0.1)">
       <use xlink:href="#DejaVuSans-31"/>
       <use x="63.623047" xlink:href="#DejaVuSans-30"/>
       <use x="127.246094" xlink:href="#DejaVuSans-30"/>
       <use x="190.869141" xlink:href="#DejaVuSans-30"/>
      </g>
     </g>
    </g>
    <g id="ytick_3">
     <g id="line2d_10">
      <g>
       <use style="fill:#ffffff;stroke:#ffffff;stroke-width:0.8;" x="126" xlink:href="#m70034c9abd" y="305.059623"/>
      </g>
     </g>
     <g id="text_11">
      <!-- 2000 -->
      <g style="fill:#ffffff;" transform="translate(93.55 308.858842)scale(0.1 -0.1)">
       <use xlink:href="#DejaVuSans-32"/>
       <use x="63.623047" xlink:href="#DejaVuSans-30"/>
       <use x="127.246094" xlink:href="#DejaVuSans-30"/>
       <use x="190.869141" xlink:href="#DejaVuSans-30"/>
      </g>
     </g>
    </g>
    <g id="ytick_4">
     <g id="line2d_11">
      <g>
       <use style="fill:#ffffff;stroke:#ffffff;stroke-width:0.8;" x="126" xlink:href="#m70034c9abd" y="215.473071"/>
      </g>
     </g>
     <g id="text_12">
      <!-- 3000 -->
      <g style="fill:#ffffff;" transform="translate(93.55 219.27229)scale(0.1 -0.1)">
       <use xlink:href="#DejaVuSans-33"/>
       <use x="63.623047" xlink:href="#DejaVuSans-30"/>
       <use x="127.246094" xlink:href="#DejaVuSans-30"/>
       <use x="190.869141" xlink:href="#DejaVuSans-30"/>
      </g>
     </g>
    </g>
    <g id="ytick_5">
     <g id="line2d_12">
      <g>
       <use style="fill:#ffffff;stroke:#ffffff;stroke-width:0.8;" x="126" xlink:href="#m70034c9abd" y="125.886519"/>
      </g>
     </g>
     <g id="text_13">
      <!-- 4000 -->
      <g style="fill:#ffffff;" transform="translate(93.55 129.685738)scale(0.1 -0.1)">
       <defs>
        <path d="M 2419 4116 
L 825 1625 
L 2419 1625 
L 2419 4116 
z
M 2253 4666 
L 3047 4666 
L 3047 1625 
L 3713 1625 
L 3713 1100 
L 3047 1100 
L 3047 0 
L 2419 0 
L 2419 1100 
L 313 1100 
L 313 1709 
L 2253 4666 
z
" id="DejaVuSans-34" transform="scale(0.015625)"/>
       </defs>
       <use xlink:href="#DejaVuSans-34"/>
       <use x="63.623047" xlink:href="#DejaVuSans-30"/>
       <use x="127.246094" xlink:href="#DejaVuSans-30"/>
       <use x="190.869141" xlink:href="#DejaVuSans-30"/>
      </g>
     </g>
    </g>
   </g>
   <g id="line2d_13">
    <path clip-path="url(#p8b2fbb21ba)" d="M 161.509091 292.248746 
L 161.735624 302.103267 
L 162.188691 484.232727 
L 162.415224 431.824594 
L 162.641757 303.715825 
L 163.094824 303.715825 
L 163.321357 484.232727 
L 164.22749 484.232727 
L 164.454023 398.319224 
L 164.680557 217.802321 
L 164.90709 303.715825 
L 165.360157 303.715825 
L 165.58669 389.539742 
L 165.813223 328.172953 
L 166.039756 445.800096 
L 166.26629 398.319224 
L 166.492823 261.968491 
L 166.719356 270.927147 
L 166.94589 270.927147 
L 167.172423 323.33528 
L 167.398956 323.33528 
L 167.625489 270.300041 
L 167.852023 188.059586 
L 168.078556 188.059586 
L 168.305089 484.232727 
L 168.758156 304.970036 
L 168.984689 304.970036 
L 169.211222 219.056533 
L 169.437756 384.433308 
L 169.664289 384.433308 
L 169.890822 398.319224 
L 170.117355 484.232727 
L 170.796955 484.232727 
L 171.023488 292.248746 
L 171.476555 292.248746 
L 171.703088 484.232727 
L 171.929622 302.103267 
L 172.156155 484.232727 
L 172.609221 188.059586 
L 172.835755 161.45238 
L 173.062288 188.059586 
L 173.288821 323.33528 
L 173.515355 300.311536 
L 174.421488 300.311536 
L 174.648021 303.715825 
L 174.874554 303.715825 
L 175.101087 389.539742 
L 175.327621 362.932536 
L 175.554154 371.712018 
L 175.780687 217.802321 
L 176.007221 484.232727 
L 176.233754 414.355217 
L 176.460287 414.355217 
L 176.68682 484.232727 
L 176.913354 389.539742 
L 177.139887 385.68752 
L 177.592953 385.68752 
L 177.819487 414.355217 
L 178.272553 414.355217 
L 178.499087 300.311536 
L 178.72562 384.791654 
L 178.952153 372.339124 
L 179.40522 372.339124 
L 179.631753 300.311536 
L 179.858286 300.311536 
L 180.084819 484.232727 
L 180.764419 303.357479 
L 180.990953 431.197488 
L 181.217486 300.311536 
L 181.444019 300.311536 
L 181.670552 484.232727 
L 181.897086 422.865939 
L 182.123619 484.232727 
L 182.350152 457.625521 
L 182.576686 457.625521 
L 182.803219 362.932536 
L 183.029752 457.625521 
L 183.256285 484.232727 
L 183.482819 472.676062 
L 183.709352 300.311536 
L 183.935885 384.791654 
L 184.162418 384.791654 
L 184.388952 484.232727 
L 184.615485 304.790863 
L 184.842018 379.595634 
L 185.068552 197.466174 
L 185.295085 302.103267 
L 185.521618 216.189763 
L 185.748151 216.189763 
L 185.974685 379.595634 
L 186.427751 379.595634 
L 186.654284 244.319941 
L 186.880818 244.319941 
L 187.107351 323.33528 
L 187.333884 188.059586 
L 187.560418 161.45238 
L 187.786951 161.45238 
L 188.013484 243.692835 
L 188.240017 484.232727 
L 188.466551 303.715825 
L 188.919617 303.715825 
L 189.372684 484.232727 
L 189.599217 302.103267 
L 189.82575 249.695134 
L 190.052284 304.970036 
L 190.278817 304.970036 
L 190.50535 484.232727 
L 190.731883 303.715825 
L 190.958417 303.715825 
L 191.18495 484.232727 
L 191.411483 484.232727 
L 191.638017 385.060414 
L 191.86455 484.232727 
L 192.091083 323.33528 
L 192.317616 484.232727 
L 192.770683 323.424866 
L 192.997216 384.791654 
L 193.223749 304.790863 
L 193.450283 303.715825 
L 193.676816 303.715825 
L 193.903349 379.595634 
L 194.129883 326.560396 
L 194.809482 326.560396 
L 195.036016 379.595634 
L 195.262549 484.232727 
L 195.489082 389.539742 
L 195.942149 389.539742 
L 196.168682 459.686012 
L 196.395215 484.232727 
L 196.621749 484.232727 
L 196.848282 323.33528 
L 197.074815 323.33528 
L 197.301348 389.539742 
L 197.754415 336.504503 
L 197.980948 336.504503 
L 198.207482 431.824594 
L 198.434015 431.824594 
L 198.660548 327.187501 
L 198.887081 379.595634 
L 199.113615 379.595634 
L 199.340148 318.228846 
L 199.566681 318.228846 
L 199.793214 300.311536 
L 200.019748 484.232727 
L 200.246281 484.232727 
L 200.472814 372.339124 
L 200.699348 372.339124 
L 200.925881 310.972335 
L 201.152414 318.228846 
L 201.378947 484.232727 
L 201.605481 484.232727 
L 201.832014 385.68752 
L 202.058547 372.339124 
L 202.28508 323.33528 
L 202.511614 484.232727 
L 202.738147 431.197488 
L 202.96468 484.232727 
L 203.191214 302.103267 
L 203.417747 275.496061 
L 204.097347 275.496061 
L 204.32388 261.610145 
L 204.550413 470.346812 
L 205.00348 470.346812 
L 205.456546 370.905739 
L 205.68308 417.759506 
L 205.909613 417.759506 
L 206.136146 363.290882 
L 206.362679 363.290882 
L 206.589213 403.156898 
L 206.815746 325.127011 
L 207.042279 325.127011 
L 207.268813 459.686012 
L 207.495346 484.232727 
L 207.721879 417.759506 
L 207.948412 484.232727 
L 208.401479 318.587192 
L 208.628012 265.551954 
L 208.854545 364.724267 
L 209.081079 384.791654 
L 209.307612 384.791654 
L 209.534145 484.232727 
L 209.760679 372.339124 
L 210.213745 372.339124 
L 210.440278 484.232727 
L 210.666812 303.715825 
L 210.893345 323.33528 
L 211.119878 484.232727 
L 211.346411 385.060414 
L 211.572945 193.076433 
L 211.799478 193.076433 
L 212.026011 431.824594 
L 212.252545 484.232727 
L 212.479078 472.676062 
L 212.932144 472.676062 
L 213.158678 370.457806 
L 213.385211 472.676062 
L 213.838278 472.676062 
L 214.064811 384.791654 
L 214.291344 459.686012 
L 214.517877 459.686012 
L 214.744411 385.68752 
L 214.970944 431.824594 
L 215.197477 405.217388 
L 215.42401 304.790863 
L 215.650544 470.346812 
L 216.10361 316.705875 
L 216.330144 316.705875 
L 216.556677 415.878188 
L 216.78321 415.878188 
L 217.009743 470.346812 
L 217.236277 365.709719 
L 217.46281 365.709719 
L 217.689343 379.595634 
L 217.915876 365.709719 
L 218.14241 309.449364 
L 218.368943 323.33528 
L 218.595476 261.968491 
L 218.82201 422.865939 
L 219.048543 408.980023 
L 219.275076 484.232727 
L 219.501609 470.346812 
L 219.728143 470.346812 
L 219.954676 484.232727 
L 220.181209 389.539742 
L 220.407742 484.232727 
L 220.634276 417.759506 
L 220.860809 304.970036 
L 221.313876 304.970036 
L 221.540409 244.319941 
L 221.766942 484.232727 
L 221.993475 484.232727 
L 222.220009 431.197488 
L 222.446542 249.068028 
L 222.673075 249.068028 
L 222.899609 187.70124 
L 223.126142 240.736479 
L 223.352675 242.349037 
L 223.579208 315.182903 
L 223.805742 315.182903 
L 224.032275 414.355217 
L 224.258808 414.355217 
L 224.485341 279.079523 
L 224.711875 414.355217 
L 224.938408 352.988428 
L 225.164941 323.424866 
L 225.391475 323.424866 
L 225.618008 280.423321 
L 225.844541 280.423321 
L 226.071074 290.367428 
L 226.297608 389.539742 
L 227.203741 389.539742 
L 227.430274 336.504503 
L 227.656807 336.504503 
L 227.883341 431.197488 
L 228.109874 376.728865 
L 228.336407 431.197488 
L 228.789474 300.311536 
L 229.24254 300.311536 
L 229.469074 459.686012 
L 229.695607 385.68752 
L 229.92214 385.68752 
L 230.148673 417.759506 
L 230.375207 364.724267 
L 230.60174 364.724267 
L 230.828273 484.232727 
L 231.054806 457.625521 
L 231.28134 300.311536 
L 231.507873 300.311536 
L 231.734406 429.764104 
L 232.187473 429.764104 
L 232.640539 377.355971 
L 233.093606 193.076433 
L 233.320139 484.232727 
L 233.546672 384.791654 
L 233.773206 468.465494 
L 233.999739 459.686012 
L 234.226272 472.676062 
L 234.452806 302.103267 
L 234.679339 249.068028 
L 235.132405 249.068028 
L 235.358939 484.232727 
L 235.585472 431.197488 
L 235.812005 332.025175 
L 236.038538 484.232727 
L 236.265072 389.539742 
L 236.491605 375.653826 
L 236.718138 375.653826 
L 236.944672 276.481513 
L 237.171205 276.481513 
L 237.624271 484.232727 
L 237.850805 292.248746 
L 238.077338 225.775524 
L 238.303871 292.248746 
L 238.530405 225.775524 
L 238.756938 468.465494 
L 238.983471 468.465494 
L 239.210004 484.232727 
L 239.663071 484.232727 
L 239.889604 300.311536 
L 240.116137 431.824594 
L 240.342671 484.232727 
L 240.569204 470.346812 
L 240.795737 385.68752 
L 241.022271 457.625521 
L 241.248804 265.64154 
L 241.475337 403.156898 
L 241.70187 389.539742 
L 241.928404 389.539742 
L 242.154937 417.759506 
L 242.38147 356.392717 
L 242.608003 422.865939 
L 242.834537 422.865939 
L 243.06107 369.8307 
L 243.287603 431.197488 
L 243.74067 484.232727 
L 243.967203 459.686012 
L 244.193736 484.232727 
L 244.42027 472.676062 
L 244.646803 472.676062 
L 244.873336 389.539742 
L 245.09987 389.539742 
L 245.326403 484.232727 
L 245.552936 484.232727 
L 245.779469 431.824594 
L 246.006003 431.824594 
L 246.232536 484.232727 
L 246.459069 389.539742 
L 246.685602 389.539742 
L 246.912136 484.232727 
L 247.138669 303.715825 
L 247.365202 303.715825 
L 247.591736 323.33528 
L 247.818269 303.715825 
L 248.044802 303.715825 
L 248.271335 302.103267 
L 248.497869 414.355217 
L 248.724402 414.355217 
L 248.950935 387.748011 
L 249.177468 387.748011 
L 249.404002 361.319978 
L 249.857068 361.319978 
L 250.083602 459.686012 
L 250.310135 372.339124 
L 250.536668 484.232727 
L 251.216268 484.232727 
L 251.669334 249.78472 
L 251.895868 249.78472 
L 252.122401 188.417932 
L 252.575468 332.652281 
L 252.802001 484.232727 
L 253.028534 389.539742 
L 253.255067 484.232727 
L 253.481601 385.060414 
L 253.708134 385.060414 
L 253.934667 484.232727 
L 254.161201 384.791654 
L 254.387734 384.791654 
L 254.614267 459.686012 
L 254.8408 431.197488 
L 255.067334 361.319978 
L 255.293867 484.232727 
L 255.5204 292.248746 
L 255.746933 304.970036 
L 255.973467 304.970036 
L 256.2 251.934798 
L 256.426533 251.934798 
L 256.653067 484.232727 
L 256.8796 484.232727 
L 257.106133 468.465494 
L 257.5592 468.465494 
L 257.785733 385.68752 
L 258.012266 484.232727 
L 258.238799 300.311536 
L 258.465333 300.311536 
L 258.691866 385.68752 
L 259.144933 385.68752 
L 259.371466 379.595634 
L 259.597999 484.232727 
L 260.051066 361.319978 
L 260.277599 484.232727 
L 260.504132 323.33528 
L 260.730666 484.232727 
L 261.183732 302.103267 
L 261.410265 302.103267 
L 261.636799 303.715825 
L 261.863332 303.715825 
L 262.089865 204.543512 
L 262.316398 285.619341 
L 262.769465 285.619341 
L 262.995998 224.162966 
L 263.449065 224.162966 
L 263.675598 193.076433 
L 263.902131 385.060414 
L 264.355198 88.887273 
L 264.581731 235.898805 
L 264.808264 235.898805 
L 265.034798 400.469301 
L 265.261331 470.346812 
L 265.487864 304.790863 
L 265.940931 304.790863 
L 266.167464 300.311536 
L 266.393997 300.311536 
L 266.620531 422.865939 
L 266.847064 328.172953 
L 267.073597 389.539742 
L 267.526664 229.00064 
L 267.753197 229.00064 
L 267.97973 328.172953 
L 268.206264 229.00064 
L 268.432797 290.367428 
L 268.65933 389.539742 
L 269.112397 389.539742 
L 269.33893 365.709719 
L 269.565463 484.232727 
L 269.791997 484.232727 
L 270.01853 470.346812 
L 270.245063 470.346812 
L 270.471596 417.311573 
L 270.69813 278.36283 
L 270.924663 484.232727 
L 271.151196 398.319224 
L 271.377729 217.802321 
L 271.604263 303.715825 
L 271.830796 289.829909 
L 272.057329 403.87359 
L 272.283863 459.686012 
L 272.510396 300.311536 
L 272.963462 484.232727 
L 273.189996 484.232727 
L 273.416529 300.311536 
L 273.643062 417.759506 
L 273.869595 389.539742 
L 274.096129 336.504503 
L 274.322662 375.653826 
L 274.549195 314.287038 
L 274.775729 328.172953 
L 275.228795 328.172953 
L 275.455328 472.676062 
L 275.681862 472.676062 
L 275.908395 468.465494 
L 276.134928 484.232727 
L 276.361462 484.232727 
L 276.587995 398.319224 
L 276.814528 398.319224 
L 277.041061 299.146911 
L 277.267595 398.319224 
L 277.494128 371.712018 
L 277.720661 303.715825 
L 277.947194 303.715825 
L 278.173728 168.440131 
L 278.400261 348.957034 
L 278.626794 169.694343 
L 278.853328 169.694343 
L 279.079861 279.079523 
L 279.306394 282.483812 
L 279.532927 348.957034 
L 279.759461 484.232727 
L 279.985994 484.232727 
L 280.43906 244.319941 
L 280.665594 484.232727 
L 280.892127 472.676062 
L 281.11866 385.68752 
L 281.345194 348.957034 
L 281.571727 348.957034 
L 281.79826 385.68752 
L 282.024793 379.595634 
L 282.251327 244.319941 
L 282.47786 484.232727 
L 282.704393 457.625521 
L 282.930926 403.156898 
L 283.15746 303.984584 
L 283.383993 300.311536 
L 283.83706 300.311536 
L 284.063593 379.595634 
L 284.290126 327.187501 
L 284.516659 327.187501 
L 284.743193 431.824594 
L 284.969726 468.465494 
L 285.196259 348.957034 
L 285.422793 348.957034 
L 285.649326 484.232727 
L 285.875859 384.791654 
L 286.102392 414.355217 
L 286.328926 302.103267 
L 286.555459 249.068028 
L 286.781992 484.232727 
L 287.008525 302.103267 
L 287.235059 484.232727 
L 287.461592 303.715825 
L 287.688125 484.232727 
L 287.914659 484.232727 
L 288.141192 384.791654 
L 288.367725 459.686012 
L 288.820792 290.367428 
L 289.047325 290.367428 
L 289.273858 224.162966 
L 289.500391 224.162966 
L 289.953458 323.33528 
L 290.179991 292.248746 
L 290.406525 292.248746 
L 290.633058 193.076433 
L 290.859591 280.423321 
L 291.086124 273.16681 
L 291.312658 372.339124 
L 291.539191 304.970036 
L 291.765724 304.970036 
L 291.992258 169.694343 
L 292.218791 169.694343 
L 292.445324 304.970036 
L 292.671857 219.056533 
L 292.898391 398.319224 
L 293.124924 304.790863 
L 293.351457 304.790863 
L 293.57799 323.33528 
L 293.804524 484.232727 
L 294.031057 385.060414 
L 294.25759 385.060414 
L 294.484124 205.61855 
L 294.710657 385.060414 
L 295.163723 187.253307 
L 295.390257 286.42562 
L 295.61679 216.189763 
L 295.843323 286.42562 
L 296.069856 187.253307 
L 296.29639 384.433308 
L 296.522923 328.441713 
L 296.749456 385.68752 
L 296.97599 303.715825 
L 297.202523 303.715825 
L 297.429056 302.103267 
L 297.655589 247.634643 
L 297.882123 484.232727 
L 298.108656 472.676062 
L 298.335189 419.640823 
L 298.561722 472.676062 
L 298.788256 378.789355 
L 299.014789 417.311573 
L 299.241322 417.311573 
L 299.467856 250.680586 
L 299.694389 319.303885 
L 299.920922 257.937097 
L 300.147455 284.365129 
L 300.373989 343.223494 
L 300.600522 284.365129 
L 300.827055 345.731918 
L 301.053589 345.731918 
L 301.280122 457.625521 
L 301.506655 457.625521 
L 301.733188 391.1523 
L 301.959722 484.232727 
L 302.186255 348.957034 
L 302.639321 348.957034 
L 302.865855 322.349828 
L 303.092388 457.625521 
L 303.318921 230.881958 
L 303.545455 372.339124 
L 303.771988 389.539742 
L 303.998521 484.232727 
L 304.225054 372.339124 
L 304.451588 484.232727 
L 304.678121 484.232727 
L 305.357721 205.61855 
L 305.810787 484.232727 
L 306.037321 484.232727 
L 306.263854 302.103267 
L 306.490387 302.103267 
L 306.71692 484.232727 
L 306.943454 443.739606 
L 307.169987 457.625521 
L 307.39652 403.156898 
L 307.623054 304.790863 
L 308.302653 304.790863 
L 308.529187 484.232727 
L 308.75572 330.59179 
L 309.661853 330.59179 
L 309.888386 372.339124 
L 310.11492 372.339124 
L 310.341453 319.303885 
L 310.567986 484.232727 
L 310.794519 304.790863 
L 311.021053 323.33528 
L 311.247586 270.927147 
L 311.474119 323.33528 
L 311.700652 323.33528 
L 311.927186 270.927147 
L 312.153719 303.715825 
L 312.380252 217.802321 
L 312.833319 417.759506 
L 313.059852 417.759506 
L 313.286385 225.775524 
L 313.512919 417.759506 
L 313.739452 417.759506 
L 313.965985 356.392717 
L 314.192518 484.232727 
L 314.645585 363.290882 
L 315.325185 363.290882 
L 315.551718 417.759506 
L 316.004785 417.759506 
L 316.231318 484.232727 
L 316.457851 385.68752 
L 316.684385 470.346812 
L 316.910918 484.232727 
L 317.137451 484.232727 
L 317.363984 459.686012 
L 317.590518 459.686012 
L 317.817051 431.824594 
L 318.043584 249.695134 
L 318.270117 484.232727 
L 318.496651 300.311536 
L 318.949717 300.311536 
L 319.176251 431.824594 
L 319.402784 370.457806 
L 319.629317 368.397315 
L 319.85585 368.397315 
L 320.082384 484.232727 
L 320.308917 484.232727 
L 320.53545 385.68752 
L 320.761983 431.197488 
L 320.988517 319.303885 
L 321.21505 304.970036 
L 321.441583 304.970036 
L 321.668117 169.694343 
L 321.89465 169.694343 
L 322.121183 243.603248 
L 322.347716 229.717333 
L 322.57425 243.603248 
L 322.800783 300.311536 
L 323.027316 468.465494 
L 323.253849 484.232727 
L 323.480383 484.232727 
L 323.706916 429.764104 
L 323.933449 484.232727 
L 324.159983 468.465494 
L 324.386516 414.355217 
L 324.613049 414.355217 
L 324.839582 379.595634 
L 325.066116 318.228846 
L 325.292649 318.228846 
L 325.519182 232.315343 
L 325.745716 325.39577 
L 325.972249 325.39577 
L 326.198782 310.34523 
L 326.425315 385.68752 
L 326.651849 348.957034 
L 326.878382 348.957034 
L 327.104915 188.059586 
L 327.331448 323.33528 
L 327.557982 141.205819 
L 327.784515 302.103267 
L 328.011048 302.103267 
L 328.237582 235.630045 
L 328.464115 484.232727 
L 328.690648 379.595634 
L 328.917181 484.232727 
L 329.143715 470.346812 
L 329.370248 417.938679 
L 329.596781 470.346812 
L 329.823314 291.084121 
L 330.276381 291.084121 
L 330.502914 484.232727 
L 330.729448 484.232727 
L 330.955981 323.33528 
L 331.182514 484.232727 
L 331.409047 422.865939 
L 331.635581 484.232727 
L 332.088647 458.790146 
L 332.315181 468.465494 
L 332.541714 414.355217 
L 332.768247 484.232727 
L 332.99478 484.232727 
L 333.221314 379.595634 
L 333.447847 197.466174 
L 334.127447 484.232727 
L 334.35398 303.715825 
L 334.580513 429.764104 
L 334.807047 429.764104 
L 335.03358 300.311536 
L 335.260113 484.232727 
L 335.486646 304.970036 
L 335.939713 304.970036 
L 336.166246 251.934798 
L 336.392779 484.232727 
L 336.619313 422.865939 
L 336.845846 422.865939 
L 337.072379 242.349037 
L 337.298913 303.715825 
L 337.525446 303.715825 
L 337.751979 484.232727 
L 337.978512 422.865939 
L 338.205046 398.319224 
L 338.431579 303.715825 
L 338.658112 303.715825 
L 338.884645 484.232727 
L 339.111179 417.759506 
L 339.564245 417.759506 
L 339.790779 282.483812 
L 340.017312 282.483812 
L 340.243845 372.339124 
L 340.696912 372.339124 
L 340.923445 237.06343 
L 341.376512 484.232727 
L 341.603045 431.197488 
L 341.829578 431.197488 
L 342.056111 300.311536 
L 342.962244 300.311536 
L 343.188778 484.232727 
L 343.415311 429.764104 
L 343.641844 484.232727 
L 343.868378 484.232727 
L 344.094911 300.311536 
L 344.321444 431.824594 
L 344.547977 332.652281 
L 344.774511 385.060414 
L 345.001044 371.174498 
L 345.227577 303.715825 
L 345.45411 303.715825 
L 345.680644 168.440131 
L 346.13371 168.440131 
L 346.360244 303.715825 
L 346.586777 277.108619 
L 346.81331 443.739606 
L 347.039843 357.826102 
L 347.49291 357.826102 
L 347.719443 484.232727 
L 347.945977 417.759506 
L 348.17251 300.311536 
L 348.399043 379.595634 
L 348.625576 244.319941 
L 348.85211 484.232727 
L 349.078643 484.232727 
L 349.305176 457.625521 
L 349.531709 296.728074 
L 349.758243 304.790863 
L 349.984776 431.197488 
L 350.211309 239.213507 
L 350.437843 431.197488 
L 350.664376 431.197488 
L 350.890909 484.232727 
L 351.117442 303.715825 
L 351.343976 304.970036 
L 351.570509 304.970036 
L 351.797042 278.36283 
L 352.023575 457.625521 
L 352.250109 457.625521 
L 352.476642 443.739606 
L 352.703175 370.905739 
L 352.929709 379.595634 
L 353.156242 325.127011 
L 353.382775 325.127011 
L 353.609308 385.68752 
L 353.835842 484.232727 
L 354.062375 484.232727 
L 354.288908 384.791654 
L 354.515441 384.791654 
L 354.741975 484.232727 
L 354.968508 484.232727 
L 355.195041 379.595634 
L 355.421575 218.698187 
L 355.648108 484.232727 
L 355.874641 304.790863 
L 356.101174 484.232727 
L 356.554241 345.911091 
L 357.007308 345.911091 
L 357.233841 319.303885 
L 357.460374 468.465494 
L 358.366507 468.465494 
L 358.59304 484.232727 
L 359.046107 368.397315 
L 359.27264 398.319224 
L 359.499174 348.957034 
L 359.725707 468.465494 
L 359.95224 468.465494 
L 360.178773 303.715825 
L 360.405307 459.686012 
L 360.63184 484.232727 
L 360.858373 302.103267 
L 361.084906 302.103267 
L 361.31144 303.715825 
L 362.217573 303.715825 
L 362.444106 472.676062 
L 362.670639 458.790146 
L 363.123706 292.248746 
L 363.350239 292.248746 
L 363.576773 265.64154 
L 363.803306 265.64154 
L 364.029839 166.469227 
L 364.256372 193.076433 
L 364.482906 292.248746 
L 364.709439 265.64154 
L 364.935972 457.625521 
L 365.162505 457.625521 
L 365.389039 391.1523 
L 365.615572 385.68752 
L 365.842105 385.060414 
L 366.068639 332.025175 
L 366.295172 227.388082 
L 366.748238 227.388082 
L 366.974772 280.423321 
L 367.201305 373.503749 
L 367.427838 205.61855 
L 368.107438 484.232727 
L 368.560505 304.790863 
L 368.787038 459.686012 
L 369.240104 459.686012 
L 369.466638 304.970036 
L 369.919704 484.232727 
L 370.146237 417.759506 
L 370.372771 484.232727 
L 370.599304 417.759506 
L 370.825837 459.686012 
L 371.278904 459.686012 
L 371.505437 431.824594 
L 371.73197 431.824594 
L 372.185037 317.422567 
L 372.41157 356.57189 
L 372.638104 417.938679 
L 372.864637 309.449364 
L 373.09117 270.927147 
L 373.317703 484.232727 
L 373.544237 457.625521 
L 373.77077 385.68752 
L 373.997303 484.232727 
L 374.223836 323.33528 
L 374.45037 292.248746 
L 374.676903 292.248746 
L 374.903436 265.64154 
L 375.12997 292.248746 
L 375.356503 292.248746 
L 375.583036 304.790863 
L 375.809569 379.595634 
L 376.036103 318.228846 
L 376.262636 398.319224 
L 376.489169 243.603248 
L 376.715702 422.865939 
L 376.942236 242.349037 
L 377.168769 303.715825 
L 377.395302 250.680586 
L 377.621836 250.680586 
L 377.848369 484.232727 
L 378.074902 484.232727 
L 378.301435 472.676062 
L 378.527969 472.676062 
L 378.754502 459.686012 
L 378.981035 433.078806 
L 379.207569 304.790863 
L 379.434102 304.790863 
L 379.660635 385.68752 
L 380.113702 385.68752 
L 380.340235 304.970036 
L 380.566768 379.595634 
L 380.793301 197.466174 
L 381.019835 197.466174 
L 381.246368 302.103267 
L 381.699435 302.103267 
L 381.925968 235.630045 
L 382.152501 302.103267 
L 382.379034 484.232727 
L 382.832101 484.232727 
L 383.058634 457.625521 
L 383.285167 446.068856 
L 383.511701 472.676062 
L 383.738234 373.503749 
L 384.417834 373.503749 
L 384.644367 472.676062 
L 385.097434 403.156898 
L 385.323967 303.715825 
L 385.5505 303.715825 
L 385.777033 277.108619 
L 386.2301 277.108619 
L 386.456633 303.715825 
L 387.5893 303.715825 
L 387.815833 292.248746 
L 388.042366 304.970036 
L 388.2689 304.970036 
L 388.495433 303.715825 
L 388.721966 303.715825 
L 388.948499 484.232727 
L 389.175033 431.824594 
L 389.401566 270.927147 
L 389.628099 484.232727 
L 390.307699 188.059586 
L 390.534232 348.957034 
L 390.760766 384.791654 
L 390.987299 385.68752 
L 391.213832 484.232727 
L 391.666899 385.68752 
L 391.893432 385.68752 
L 392.119965 302.103267 
L 392.346498 484.232727 
L 392.799565 323.33528 
L 393.026098 261.968491 
L 393.252632 261.968491 
L 393.479165 303.715825 
L 393.705698 204.543512 
L 393.932231 303.715825 
L 394.158765 484.232727 
L 394.385298 470.346812 
L 394.611831 484.232727 
L 394.838365 372.339124 
L 395.064898 319.303885 
L 395.291431 484.232727 
L 395.517964 484.232727 
L 395.744498 302.103267 
L 395.971031 484.232727 
L 396.197564 470.346812 
L 396.424097 417.938679 
L 396.650631 431.824594 
L 396.877164 484.232727 
L 397.103697 457.625521 
L 397.330231 391.1523 
L 397.556764 275.496061 
L 397.783297 484.232727 
L 398.00983 417.759506 
L 398.462897 417.759506 
L 398.68943 304.970036 
L 398.915963 484.232727 
L 399.142497 484.232727 
L 399.36903 459.686012 
L 399.595563 385.68752 
L 399.822097 468.465494 
L 400.501696 468.465494 
L 400.72823 484.232727 
L 400.954763 385.68752 
L 401.181296 385.68752 
L 401.407829 484.232727 
L 401.634363 304.790863 
L 401.860896 417.759506 
L 402.087429 417.759506 
L 402.313963 472.676062 
L 402.540496 385.68752 
L 402.767029 414.355217 
L 402.993562 484.232727 
L 403.220096 431.824594 
L 403.446629 417.938679 
L 403.673162 417.938679 
L 403.899696 335.071118 
L 404.352762 335.071118 
L 404.579295 484.232727 
L 404.805829 379.595634 
L 405.032362 379.595634 
L 405.258895 484.232727 
L 405.711962 304.790863 
L 405.938495 304.790863 
L 406.165028 468.465494 
L 406.618095 468.465494 
L 406.844628 431.197488 
L 407.071161 361.319978 
L 407.297695 385.68752 
L 407.524228 292.248746 
L 407.750761 292.248746 
L 408.203828 468.465494 
L 408.656894 323.33528 
L 408.883428 323.33528 
L 409.109961 270.300041 
L 409.336494 323.33528 
L 409.563027 300.311536 
L 409.789561 484.232727 
L 410.016094 303.715825 
L 410.242627 300.311536 
L 410.469161 300.311536 
L 410.695694 422.865939 
L 410.922227 261.968491 
L 411.14876 370.457806 
L 411.375294 422.865939 
L 411.601827 242.349037 
L 411.82836 414.355217 
L 412.054893 385.68752 
L 412.281427 385.68752 
L 412.50796 303.715825 
L 412.734493 302.103267 
L 412.961027 302.103267 
L 413.18756 166.827573 
L 413.414093 197.466174 
L 413.640626 379.595634 
L 413.86716 244.319941 
L 414.093693 244.319941 
L 414.320226 379.595634 
L 414.546759 280.423321 
L 414.773293 318.587192 
L 414.999826 285.619341 
L 415.226359 459.686012 
L 415.452893 373.772508 
L 415.679426 459.686012 
L 416.132492 459.686012 
L 416.359026 398.319224 
L 416.585559 299.146911 
L 416.812092 270.658387 
L 417.038625 271.285493 
L 417.265159 468.465494 
L 417.718225 468.465494 
L 417.944759 389.539742 
L 418.171292 389.539742 
L 418.397825 375.653826 
L 418.624358 484.232727 
L 418.850892 302.103267 
L 419.077425 384.791654 
L 419.530492 384.791654 
L 419.757025 484.232727 
L 419.983558 484.232727 
L 420.210091 302.103267 
L 420.436625 484.232727 
L 420.663158 484.232727 
L 420.889691 472.676062 
L 421.116224 472.676062 
L 421.342758 417.759506 
L 421.569291 484.232727 
L 422.022358 254.264048 
L 422.248891 484.232727 
L 422.475424 457.625521 
L 422.701957 387.748011 
L 422.928491 457.625521 
L 423.155024 405.217388 
L 423.834624 405.217388 
L 424.061157 319.303885 
L 424.28769 343.8506 
L 424.514224 396.258733 
L 424.740757 382.372818 
L 425.193823 484.232727 
L 425.420357 429.764104 
L 425.64689 414.355217 
L 425.873423 379.595634 
L 426.099957 379.595634 
L 426.32649 197.466174 
L 426.779556 484.232727 
L 427.232623 484.232727 
L 427.459156 303.715825 
L 427.685689 484.232727 
L 427.912223 300.311536 
L 428.365289 484.232727 
L 428.818356 484.232727 
L 429.044889 459.686012 
L 429.271422 302.103267 
L 429.497956 414.355217 
L 429.724489 414.355217 
L 429.951022 303.715825 
L 430.177555 484.232727 
L 430.404089 398.319224 
L 430.630622 206.335243 
L 430.857155 206.335243 
L 431.083689 292.248746 
L 431.536755 292.248746 
L 431.763288 414.355217 
L 431.989822 389.539742 
L 432.216355 389.539742 
L 432.442888 328.172953 
L 432.895955 328.172953 
L 433.122488 422.865939 
L 433.349021 356.392717 
L 433.575555 417.759506 
L 434.028621 417.759506 
L 434.255154 484.232727 
L 434.708221 458.790146 
L 434.934754 470.346812 
L 435.161288 468.465494 
L 435.387821 468.465494 
L 435.614354 431.197488 
L 435.840887 361.319978 
L 436.067421 414.355217 
L 436.520487 319.303885 
L 436.74702 484.232727 
L 437.879687 484.232727 
L 438.10622 379.595634 
L 438.332753 326.560396 
L 438.559287 364.724267 
L 438.78582 364.724267 
L 439.012353 331.846002 
L 439.238886 317.960087 
L 439.46542 225.775524 
L 439.691953 206.335243 
L 439.918486 484.232727 
L 440.371553 244.319941 
L 440.824619 484.232727 
L 441.277686 484.232727 
L 441.504219 422.865939 
L 441.730753 484.232727 
L 441.957286 348.957034 
L 442.183819 287.590245 
L 442.410352 459.686012 
L 442.636886 459.686012 
L 442.863419 398.319224 
L 443.089952 240.736479 
L 443.316485 226.850563 
L 443.543019 249.695134 
L 443.769552 385.68752 
L 443.996085 385.68752 
L 444.222619 459.686012 
L 444.449152 472.676062 
L 444.675685 411.309274 
L 444.902218 411.309274 
L 445.128752 472.676062 
L 445.355285 304.970036 
L 445.581818 304.970036 
L 445.808351 243.603248 
L 446.034885 414.355217 
L 446.261418 352.988428 
L 446.487951 230.881958 
L 446.714485 292.248746 
L 446.941018 468.465494 
L 447.167551 484.232727 
L 447.394084 470.346812 
L 447.620618 403.87359 
L 447.847151 417.759506 
L 448.073684 331.846002 
L 448.300217 384.791654 
L 448.526751 379.595634 
L 448.753284 197.466174 
L 448.979817 249.695134 
L 449.206351 431.824594 
L 449.659417 431.824594 
L 449.88595 385.68752 
L 450.112484 385.68752 
L 450.339017 372.339124 
L 450.56555 484.232727 
L 450.792084 459.686012 
L 451.018617 300.311536 
L 451.24515 417.759506 
L 451.471683 365.351373 
L 451.698217 365.351373 
L 451.92475 304.790863 
L 452.151283 304.790863 
L 452.377816 243.424075 
L 453.057416 484.232727 
L 453.510483 370.457806 
L 453.737016 356.57189 
L 453.963549 356.57189 
L 454.190083 216.996042 
L 454.416616 297.08642 
L 454.643149 310.972335 
L 454.869682 398.319224 
L 455.096216 398.319224 
L 455.322749 459.686012 
L 455.549282 398.319224 
L 455.775816 243.603248 
L 456.002349 243.603248 
L 456.228882 251.934798 
L 456.455415 295.921795 
L 456.681949 169.694343 
L 456.908482 484.232727 
L 457.135015 385.68752 
L 457.361548 385.68752 
L 457.588082 389.539742 
L 458.267682 389.539742 
L 458.494215 385.68752 
L 458.720748 389.539742 
L 458.947281 389.539742 
L 459.173815 328.172953 
L 459.400348 379.595634 
L 459.626881 280.423321 
L 459.853415 304.790863 
L 460.079948 484.232727 
L 460.533014 202.930954 
L 460.759548 302.103267 
L 460.986081 304.790863 
L 461.439147 304.790863 
L 461.665681 303.715825 
L 461.892214 337.400368 
L 462.118747 348.957034 
L 462.345281 348.957034 
L 462.571814 244.319941 
L 462.798347 282.483812 
L 463.251414 385.68752 
L 464.610613 385.68752 
L 464.837147 484.232727 
L 465.06368 429.764104 
L 465.290213 429.764104 
L 465.516746 468.465494 
L 466.42288 468.465494 
L 466.649413 457.625521 
L 467.102479 306.045075 
L 467.329013 358.453208 
L 467.555546 253.816115 
L 467.782079 484.232727 
L 468.235146 484.232727 
L 468.461679 457.625521 
L 468.688212 396.258733 
L 468.914746 457.625521 
L 469.141279 484.232727 
L 469.367812 389.539742 
L 469.594345 197.466174 
L 469.820879 484.232727 
L 470.273945 286.42562 
L 470.500478 303.715825 
L 470.953545 459.686012 
L 471.180078 459.686012 
L 471.406612 484.232727 
L 471.859678 484.232727 
L 472.086211 431.824594 
L 472.312745 431.824594 
L 472.539278 370.457806 
L 472.992344 484.232727 
L 473.218878 484.232727 
L 473.445411 304.790863 
L 473.671944 304.790863 
L 473.898478 484.232727 
L 474.125011 484.232727 
L 474.578077 273.16681 
L 475.484211 273.16681 
L 475.710744 484.232727 
L 475.937277 484.232727 
L 476.16381 304.790863 
L 476.390344 304.790863 
L 476.616877 302.103267 
L 476.84341 249.695134 
L 477.069943 302.103267 
L 477.296477 389.539742 
L 477.52301 389.539742 
L 477.749543 484.232727 
L 478.20261 169.694343 
L 478.429143 169.694343 
L 478.655676 417.759506 
L 478.88221 417.759506 
L 479.108743 403.87359 
L 479.335276 415.878188 
L 479.561809 384.791654 
L 479.788343 300.311536 
L 480.241409 300.311536 
L 480.467943 348.957034 
L 480.694476 468.465494 
L 481.147542 468.465494 
L 481.374076 484.232727 
L 481.827142 168.440131 
L 482.053676 303.715825 
L 482.280209 303.715825 
L 482.506742 289.829909 
L 482.733275 300.311536 
L 483.186342 300.311536 
L 483.412875 384.791654 
L 483.865942 384.791654 
L 484.092475 348.957034 
L 484.319008 337.400368 
L 484.545542 282.483812 
L 484.772075 417.759506 
L 484.998608 331.846002 
L 485.225141 331.846002 
L 485.451675 232.673689 
L 485.678208 232.673689 
L 485.904741 237.421776 
L 486.131274 484.232727 
L 486.357808 217.712735 
L 486.584341 352.988428 
L 487.037408 446.068856 
L 487.263941 472.676062 
L 487.490474 419.640823 
L 487.717007 419.640823 
L 487.943541 358.274035 
L 488.170074 358.274035 
L 488.396607 419.640823 
L 488.62314 251.934798 
L 488.849674 291.084121 
L 489.076207 291.084121 
L 489.30274 484.232727 
L 489.529274 417.759506 
L 489.755807 417.759506 
L 489.98234 384.791654 
L 490.208873 484.232727 
L 490.435407 484.232727 
L 490.888473 431.197488 
L 491.115007 251.934798 
L 491.794606 251.934798 
L 492.02114 304.970036 
L 492.247673 292.248746 
L 492.474206 484.232727 
L 492.700739 348.957034 
L 492.927273 287.590245 
L 493.153806 287.590245 
L 493.380339 182.953152 
L 493.833406 484.232727 
L 494.059939 292.248746 
L 494.286472 292.248746 
L 494.513006 302.103267 
L 494.739539 389.539742 
L 494.966072 389.539742 
L 495.192605 429.764104 
L 495.419139 403.156898 
L 495.645672 341.790109 
L 495.872205 233.121622 
L 496.098739 233.121622 
L 496.325272 415.878188 
L 496.551805 470.346812 
L 496.778338 445.800096 
L 497.004872 358.453208 
L 497.231405 400.469301 
L 497.457938 414.355217 
L 497.684472 414.355217 
L 497.911005 400.469301 
L 498.137538 414.355217 
L 498.817138 414.355217 
L 499.043671 459.686012 
L 499.270204 373.772508 
L 499.496738 373.772508 
L 499.723271 386.762559 
L 499.949804 472.676062 
L 500.176338 429.764104 
L 500.402871 429.764104 
L 500.629404 368.397315 
L 501.082471 327.904194 
L 501.309004 327.904194 
L 501.535537 354.5114 
L 501.76207 354.5114 
L 502.215137 470.346812 
L 502.44167 365.709719 
L 502.668204 197.466174 
L 502.894737 280.423321 
L 503.12127 280.423321 
L 503.347803 379.595634 
L 503.574337 365.709719 
L 503.80087 484.232727 
L 504.027403 417.759506 
L 504.253936 417.759506 
L 504.48047 365.351373 
L 504.707003 484.232727 
L 504.933536 379.595634 
L 505.16007 484.232727 
L 505.386603 292.248746 
L 505.839669 292.248746 
L 506.066203 206.335243 
L 506.292736 292.248746 
L 506.519269 206.335243 
L 506.745803 206.335243 
L 507.198869 414.355217 
L 507.425402 384.791654 
L 507.651936 370.905739 
L 508.558069 370.905739 
L 508.784602 335.071118 
L 509.011135 468.465494 
L 509.237669 429.764104 
L 509.464202 247.634643 
L 509.690735 294.48841 
L 509.917268 233.121622 
L 510.143802 484.232727 
L 510.370335 414.355217 
L 510.596868 484.232727 
L 511.049935 484.232727 
L 511.503001 224.162966 
L 511.729535 224.162966 
L 511.956068 323.33528 
L 512.182601 472.676062 
L 512.635668 472.676062 
L 512.862201 484.232727 
L 513.088734 372.339124 
L 513.315268 484.232727 
L 513.541801 389.539742 
L 513.768334 389.539742 
L 513.994867 484.232727 
L 514.221401 414.355217 
L 514.447934 389.539742 
L 514.674467 389.539742 
L 514.901 459.686012 
L 515.127534 484.232727 
L 515.354067 398.319224 
L 515.5806 484.232727 
L 515.807134 457.625521 
L 516.033667 296.728074 
L 516.2602 352.988428 
L 516.486733 303.715825 
L 516.713267 303.715825 
L 516.9398 168.440131 
L 517.166333 348.957034 
L 517.6194 168.440131 
L 517.845933 300.311536 
L 518.072466 300.311536 
L 518.299 484.232727 
L 518.525533 300.311536 
L 518.752066 484.232727 
L 518.978599 470.346812 
L 519.205133 292.248746 
L 519.431666 239.213507 
L 519.658199 239.213507 
L 520.111266 372.339124 
L 520.337799 372.339124 
L 520.564332 484.232727 
L 520.790866 384.791654 
L 521.017399 484.232727 
L 521.470465 377.355971 
L 522.376599 377.355971 
L 522.603132 385.68752 
L 523.282732 385.68752 
L 523.509265 484.232727 
L 523.735798 484.232727 
L 523.962331 431.824594 
L 524.188865 431.824594 
L 524.415398 327.187501 
L 525.094998 327.187501 
L 525.321531 296.548901 
L 525.548064 296.548901 
L 525.774598 168.440131 
L 526.227664 168.440131 
L 526.454197 303.715825 
L 526.680731 302.103267 
L 526.907264 302.103267 
L 527.133797 385.68752 
L 527.360331 303.715825 
L 528.266464 303.715825 
L 528.492997 484.232727 
L 528.71953 292.248746 
L 529.172597 292.248746 
L 529.39913 323.33528 
L 529.625663 323.33528 
L 529.852197 484.232727 
L 530.07873 417.759506 
L 530.305263 313.122413 
L 530.531796 313.122413 
L 530.75833 484.232727 
L 530.984863 472.676062 
L 531.211396 389.539742 
L 531.43793 484.232727 
L 531.890996 484.232727 
L 532.117529 303.715825 
L 532.344063 250.680586 
L 532.570596 249.068028 
L 532.797129 239.213507 
L 533.023662 431.197488 
L 533.250196 431.197488 
L 533.476729 378.789355 
L 533.703262 431.197488 
L 533.929796 336.504503 
L 534.382862 336.504503 
L 534.609395 292.248746 
L 535.062462 292.248746 
L 535.288995 193.076433 
L 535.515528 484.232727 
L 535.742062 304.790863 
L 536.195128 304.790863 
L 536.421662 484.232727 
L 536.648195 484.232727 
L 536.874728 348.957034 
L 537.101261 304.790863 
L 537.327795 304.790863 
L 537.554328 429.764104 
L 537.780861 429.764104 
L 538.007395 368.397315 
L 538.460461 368.397315 
L 538.686994 282.483812 
L 538.913528 282.483812 
L 539.140061 343.8506 
L 539.819661 343.8506 
L 540.046194 429.764104 
L 540.272727 415.878188 
L 540.499261 415.878188 
L 540.725794 329.964685 
L 540.952327 329.964685 
L 541.17886 484.232727 
L 541.405394 484.232727 
L 541.631927 457.625521 
L 541.85846 385.68752 
L 542.311527 385.68752 
L 542.53806 303.715825 
L 542.764593 304.970036 
L 542.991127 292.248746 
L 543.670726 292.248746 
L 543.89726 384.791654 
L 544.123793 358.184448 
L 544.350326 358.184448 
L 544.57686 384.791654 
L 544.803393 384.791654 
L 545.029926 414.355217 
L 545.256459 400.469301 
L 546.389126 400.469301 
L 546.615659 414.355217 
L 546.842192 414.355217 
L 547.068726 352.988428 
L 547.295259 253.816115 
L 547.748325 253.816115 
L 547.974859 143.176723 
L 548.654458 143.176723 
L 548.880992 352.988428 
L 549.107525 414.355217 
L 549.787125 414.355217 
L 550.013658 385.68752 
L 550.919791 385.68752 
L 551.146324 379.595634 
L 551.825924 379.595634 
L 552.052458 313.122413 
L 552.505524 313.122413 
L 552.958591 484.232727 
L 553.185124 414.355217 
L 553.411657 414.355217 
L 553.638191 484.232727 
L 553.864724 484.232727 
L 554.31779 156.973052 
L 554.770857 156.973052 
L 554.99739 348.957034 
L 555.223923 348.957034 
L 555.450457 484.232727 
L 555.67699 431.824594 
L 555.903523 484.232727 
L 556.130057 431.197488 
L 556.583123 431.197488 
L 557.03619 331.846002 
L 557.262723 331.846002 
L 557.489256 398.319224 
L 557.715789 237.421776 
L 557.942323 237.421776 
L 558.168856 223.535861 
L 558.395389 484.232727 
L 558.621923 484.232727 
L 558.848456 302.103267 
L 559.074989 302.103267 
L 559.301522 275.496061 
L 559.754589 275.496061 
L 559.981122 222.460822 
L 561.113789 222.460822 
L 561.340322 235.630045 
L 561.566855 235.630045 
L 561.793388 249.695134 
L 563.152588 249.695134 
L 563.379121 141.205819 
L 563.605655 302.103267 
L 563.832188 302.103267 
L 564.058721 300.311536 
L 565.191388 300.311536 
L 565.417921 304.790863 
L 566.550587 304.790863 
L 566.77712 205.61855 
L 567.909787 205.61855 
L 568.13632 385.060414 
L 568.362853 330.59179 
L 568.589387 330.59179 
L 568.81592 277.556552 
L 569.722053 277.556552 
L 569.948586 350.121659 
L 570.17512 350.121659 
L 570.401653 403.156898 
L 570.628186 429.764104 
L 570.854719 247.634643 
L 571.081253 249.695134 
L 571.307786 302.103267 
L 571.987386 302.103267 
L 572.213919 166.827573 
L 574.026185 166.827573 
L 574.252719 300.311536 
L 575.158852 300.311536 
L 575.385385 304.970036 
L 576.291518 304.970036 
L 576.518051 304.790863 
L 576.744585 243.424075 
L 576.971118 243.424075 
L 577.197651 304.790863 
L 577.424184 304.790863 
L 577.650718 372.339124 
L 578.556851 372.339124 
L 578.783384 389.539742 
L 579.009917 290.367428 
L 579.236451 389.539742 
L 579.91605 389.539742 
L 580.142584 300.311536 
L 580.369117 304.790863 
L 580.59565 304.790863 
L 580.822184 243.424075 
L 583.993649 243.424075 
L 584.220183 230.881958 
L 586.938582 230.881958 
L 587.165115 292.248746 
L 587.391649 303.715825 
L 588.977381 303.715825 
L 589.203915 194.509818 
L 590.110048 194.509818 
L 590.336581 345.911091 
L 590.563114 293.682131 
L 590.789648 293.682131 
L 591.016181 279.796215 
L 592.375381 279.796215 
L 592.601914 244.319941 
L 592.828447 244.319941 
L 593.05498 169.694343 
L 593.281514 244.319941 
L 595.09378 244.319941 
L 595.320313 217.712735 
L 596.679513 217.712735 
L 596.906046 244.319941 
L 597.132579 218.698187 
L 597.585646 218.698187 
L 597.812179 141.205819 
L 606.646977 141.205819 
L 606.87351 247.634643 
L 609.138843 247.634643 
L 609.365376 216.189763 
L 609.818443 216.189763 
L 610.044976 154.822975 
L 611.404176 154.822975 
L 611.857242 275.496061 
L 612.083776 275.496061 
L 612.310309 261.610145 
L 613.896042 261.610145 
L 614.122575 200.243357 
L 614.349108 249.695134 
L 614.802175 249.695134 
L 615.028708 302.103267 
L 615.934841 302.103267 
L 616.161375 247.634643 
L 620.238973 247.634643 
L 620.465507 166.827573 
L 620.918573 166.827573 
L 621.145107 140.220367 
L 629.073771 140.220367 
L 629.300304 166.827573 
L 630.206438 166.827573 
L 630.432971 140.220367 
L 635.643236 140.220367 
L 635.869769 161.45238 
L 636.322836 161.45238 
L 636.549369 126.692798 
L 639.720835 126.692798 
L 639.947368 95.606264 
L 871.690909 95.606264 
L 871.690909 95.606264 
" style="fill:none;stroke:#8dd3c7;stroke-linecap:square;stroke-width:1.5;"/>
   </g>
   <g id="line2d_14">
    <path clip-path="url(#p8b2fbb21ba)" d="M 161.509091 292.248746 
L 164.454023 292.248746 
L 164.680557 217.802321 
L 167.625489 217.802321 
L 167.852023 188.059586 
L 172.609221 188.059586 
L 172.835755 161.45238 
L 264.128665 161.45238 
L 264.355198 88.887273 
L 871.690909 88.887273 
L 871.690909 88.887273 
" style="fill:none;stroke:#feffb3;stroke-linecap:square;stroke-width:1.5;"/>
   </g>
   <g id="line2d_15">
    <path clip-path="url(#p8b2fbb21ba)" d="M 161.509091 349.84394 
L 163.094824 349.84394 
L 163.321357 356.160752 
L 164.90709 356.160752 
L 165.133623 362.180648 
L 166.719356 362.180648 
L 166.94589 367.917584 
L 168.531622 367.917584 
L 168.758156 373.384862 
L 170.343889 373.384862 
L 170.570422 378.595156 
L 172.156155 378.595156 
L 172.382688 383.560545 
L 173.968421 383.560545 
L 174.194954 388.29254 
L 175.780687 388.29254 
L 176.007221 392.802114 
L 177.592953 392.802114 
L 177.819487 397.099719 
L 179.40522 397.099719 
L 179.631753 401.195319 
L 181.217486 401.195319 
L 181.444019 405.09841 
L 183.029752 405.09841 
L 183.256285 408.81804 
L 184.842018 408.81804 
L 185.068552 412.362832 
L 186.654284 412.362832 
L 186.880818 415.741005 
L 188.466551 415.741005 
L 188.693084 418.96039 
L 190.278817 418.96039 
L 190.50535 422.028452 
L 192.091083 422.028452 
L 192.317616 424.952302 
L 193.903349 424.952302 
L 194.129883 427.738719 
L 195.715615 427.738719 
L 195.942149 430.394164 
L 197.527882 430.394164 
L 197.754415 432.924792 
L 199.340148 432.924792 
L 199.566681 435.336471 
L 201.152414 435.336471 
L 201.378947 437.634791 
L 202.96468 437.634791 
L 203.191214 439.82508 
L 204.776946 439.82508 
L 205.00348 441.912418 
L 206.589213 441.912418 
L 206.815746 443.901642 
L 208.401479 443.901642 
L 208.628012 445.797364 
L 210.213745 445.797364 
L 210.440278 447.60398 
L 212.026011 447.60398 
L 212.252545 449.325678 
L 213.838278 449.325678 
L 214.064811 450.966449 
L 215.650544 450.966449 
L 215.877077 452.530098 
L 217.46281 452.530098 
L 217.689343 454.020248 
L 219.275076 454.020248 
L 219.501609 455.440356 
L 221.087342 455.440356 
L 221.313876 456.793712 
L 222.899609 456.793712 
L 223.126142 458.083456 
L 224.711875 458.083456 
L 224.938408 459.312577 
L 226.524141 459.312577 
L 226.750674 460.483923 
L 228.336407 460.483923 
L 228.56294 461.600212 
L 230.148673 461.600212 
L 230.375207 462.664031 
L 231.96094 462.664031 
L 232.187473 463.677846 
L 233.773206 463.677846 
L 233.999739 464.644008 
L 235.585472 464.644008 
L 235.812005 465.564756 
L 237.397738 465.564756 
L 237.624271 466.442226 
L 239.210004 466.442226 
L 239.436538 467.278451 
L 241.022271 467.278451 
L 241.248804 468.07537 
L 242.834537 468.07537 
L 243.06107 468.83483 
L 244.646803 468.83483 
L 244.873336 469.558593 
L 246.459069 469.558593 
L 246.685602 470.248336 
L 248.271335 470.248336 
L 248.497869 470.905658 
L 250.083602 470.905658 
L 250.310135 471.532084 
L 251.895868 471.532084 
L 252.122401 472.129065 
L 253.708134 472.129065 
L 253.934667 472.697986 
L 255.5204 472.697986 
L 255.746933 473.240165 
L 257.332666 473.240165 
L 257.5592 473.756859 
L 259.144933 473.756859 
L 259.371466 474.249267 
L 260.957199 474.249267 
L 261.183732 474.71853 
L 262.769465 474.71853 
L 262.995998 475.165735 
L 264.581731 475.165735 
L 264.808264 475.59192 
L 266.393997 475.59192 
L 266.620531 475.998073 
L 268.206264 475.998073 
L 268.432797 476.385134 
L 270.01853 476.385134 
L 270.245063 476.754003 
L 271.830796 476.754003 
L 272.057329 477.105533 
L 273.643062 477.105533 
L 273.869595 477.440539 
L 275.455328 477.440539 
L 275.681862 477.759799 
L 277.267595 477.759799 
L 277.494128 478.064053 
L 279.079861 478.064053 
L 279.306394 478.354005 
L 280.892127 478.354005 
L 281.11866 478.630329 
L 282.704393 478.630329 
L 282.930926 478.893664 
L 284.516659 478.893664 
L 284.743193 479.144621 
L 286.328926 479.144621 
L 286.555459 479.383783 
L 288.141192 479.383783 
L 288.367725 479.611703 
L 289.953458 479.611703 
L 290.179991 479.828909 
L 291.765724 479.828909 
L 291.992258 480.035906 
L 293.57799 480.035906 
L 293.804524 480.233174 
L 295.390257 480.233174 
L 295.61679 480.421169 
L 297.202523 480.421169 
L 297.429056 480.600327 
L 299.014789 480.600327 
L 299.241322 480.771065 
L 300.827055 480.771065 
L 301.053589 480.933777 
L 302.639321 480.933777 
L 302.865855 481.08884 
L 304.451588 481.08884 
L 304.678121 481.236616 
L 306.263854 481.236616 
L 306.490387 481.377445 
L 308.07612 481.377445 
L 308.302653 481.511655 
L 309.888386 481.511655 
L 310.11492 481.639556 
L 311.700652 481.639556 
L 312.153719 481.761445 
L 313.512919 481.761445 
L 313.965985 481.877606 
L 317.137451 481.988306 
L 317.590518 482.093803 
L 320.761983 482.194341 
L 321.21505 482.290153 
L 324.386516 482.381462 
L 324.839582 482.468479 
L 328.011048 482.551405 
L 328.464115 482.630434 
L 331.635581 482.705748 
L 332.088647 482.777523 
L 335.260113 482.845923 
L 335.71318 482.911108 
L 338.884645 482.97323 
L 339.337712 483.032431 
L 344.321444 483.142617 
L 345.001044 483.193856 
L 349.758243 483.289223 
L 350.437843 483.333572 
L 355.195041 483.416113 
L 355.874641 483.454497 
L 362.444106 483.559159 
L 363.350239 483.59082 
L 369.693171 483.677149 
L 370.825837 483.703263 
L 378.754502 483.796009 
L 380.113702 483.816537 
L 391.440365 483.920954 
L 393.479165 483.949575 
L 413.18756 484.05777 
L 416.585559 484.073831 
L 460.306481 484.182689 
L 472.312745 484.197005 
L 871.690909 484.232726 
L 871.690909 484.232726 
" style="fill:none;stroke:#bfbbd9;stroke-linecap:square;stroke-width:1.5;"/>
   </g>
   <g id="patch_3">
    <path d="M 126 504 
L 126 69.12 
" style="fill:none;stroke:#ffffff;stroke-linecap:square;stroke-linejoin:miter;stroke-width:0.8;"/>
   </g>
   <g id="patch_4">
    <path d="M 907.2 504 
L 907.2 69.12 
" style="fill:none;stroke:#ffffff;stroke-linecap:square;stroke-linejoin:miter;stroke-width:0.8;"/>
   </g>
   <g id="patch_5">
    <path d="M 126 504 
L 907.2 504 
" style="fill:none;stroke:#ffffff;stroke-linecap:square;stroke-linejoin:miter;stroke-width:0.8;"/>
   </g>
   <g id="patch_6">
    <path d="M 126 69.12 
L 907.2 69.12 
" style="fill:none;stroke:#ffffff;stroke-linecap:square;stroke-linejoin:miter;stroke-width:0.8;"/>
   </g>
   <g id="text_14">
    <!-- instance 6 with error 0.05096774193548392 -->
    <g style="fill:#ffffff;" transform="translate(381.864375 63.12)scale(0.12 -0.12)">
     <defs>
      <path d="M 2834 3397 
L 2834 2853 
Q 2591 2978 2328 3040 
Q 2066 3103 1784 3103 
Q 1356 3103 1142 2972 
Q 928 2841 928 2578 
Q 928 2378 1081 2264 
Q 1234 2150 1697 2047 
L 1894 2003 
Q 2506 1872 2764 1633 
Q 3022 1394 3022 966 
Q 3022 478 2636 193 
Q 2250 -91 1575 -91 
Q 1294 -91 989 -36 
Q 684 19 347 128 
L 347 722 
Q 666 556 975 473 
Q 1284 391 1588 391 
Q 1994 391 2212 530 
Q 2431 669 2431 922 
Q 2431 1156 2273 1281 
Q 2116 1406 1581 1522 
L 1381 1569 
Q 847 1681 609 1914 
Q 372 2147 372 2553 
Q 372 3047 722 3315 
Q 1072 3584 1716 3584 
Q 2034 3584 2315 3537 
Q 2597 3491 2834 3397 
z
" id="DejaVuSans-73" transform="scale(0.015625)"/>
      <path d="M 3122 3366 
L 3122 2828 
Q 2878 2963 2633 3030 
Q 2388 3097 2138 3097 
Q 1578 3097 1268 2742 
Q 959 2388 959 1747 
Q 959 1106 1268 751 
Q 1578 397 2138 397 
Q 2388 397 2633 464 
Q 2878 531 3122 666 
L 3122 134 
Q 2881 22 2623 -34 
Q 2366 -91 2075 -91 
Q 1284 -91 818 406 
Q 353 903 353 1747 
Q 353 2603 823 3093 
Q 1294 3584 2113 3584 
Q 2378 3584 2631 3529 
Q 2884 3475 3122 3366 
z
" id="DejaVuSans-63" transform="scale(0.015625)"/>
      <path id="DejaVuSans-20" transform="scale(0.015625)"/>
      <path d="M 2113 2584 
Q 1688 2584 1439 2293 
Q 1191 2003 1191 1497 
Q 1191 994 1439 701 
Q 1688 409 2113 409 
Q 2538 409 2786 701 
Q 3034 994 3034 1497 
Q 3034 2003 2786 2293 
Q 2538 2584 2113 2584 
z
M 3366 4563 
L 3366 3988 
Q 3128 4100 2886 4159 
Q 2644 4219 2406 4219 
Q 1781 4219 1451 3797 
Q 1122 3375 1075 2522 
Q 1259 2794 1537 2939 
Q 1816 3084 2150 3084 
Q 2853 3084 3261 2657 
Q 3669 2231 3669 1497 
Q 3669 778 3244 343 
Q 2819 -91 2113 -91 
Q 1303 -91 875 529 
Q 447 1150 447 2328 
Q 447 3434 972 4092 
Q 1497 4750 2381 4750 
Q 2619 4750 2861 4703 
Q 3103 4656 3366 4563 
z
" id="DejaVuSans-36" transform="scale(0.015625)"/>
      <path d="M 269 3500 
L 844 3500 
L 1563 769 
L 2278 3500 
L 2956 3500 
L 3675 769 
L 4391 3500 
L 4966 3500 
L 4050 0 
L 3372 0 
L 2619 2869 
L 1863 0 
L 1184 0 
L 269 3500 
z
" id="DejaVuSans-77" transform="scale(0.015625)"/>
      <path d="M 3513 2113 
L 3513 0 
L 2938 0 
L 2938 2094 
Q 2938 2591 2744 2837 
Q 2550 3084 2163 3084 
Q 1697 3084 1428 2787 
Q 1159 2491 1159 1978 
L 1159 0 
L 581 0 
L 581 4863 
L 1159 4863 
L 1159 2956 
Q 1366 3272 1645 3428 
Q 1925 3584 2291 3584 
Q 2894 3584 3203 3211 
Q 3513 2838 3513 2113 
z
" id="DejaVuSans-68" transform="scale(0.015625)"/>
      <path d="M 684 794 
L 1344 794 
L 1344 0 
L 684 0 
L 684 794 
z
" id="DejaVuSans-2e" transform="scale(0.015625)"/>
      <path d="M 703 97 
L 703 672 
Q 941 559 1184 500 
Q 1428 441 1663 441 
Q 2288 441 2617 861 
Q 2947 1281 2994 2138 
Q 2813 1869 2534 1725 
Q 2256 1581 1919 1581 
Q 1219 1581 811 2004 
Q 403 2428 403 3163 
Q 403 3881 828 4315 
Q 1253 4750 1959 4750 
Q 2769 4750 3195 4129 
Q 3622 3509 3622 2328 
Q 3622 1225 3098 567 
Q 2575 -91 1691 -91 
Q 1453 -91 1209 -44 
Q 966 3 703 97 
z
M 1959 2075 
Q 2384 2075 2632 2365 
Q 2881 2656 2881 3163 
Q 2881 3666 2632 3958 
Q 2384 4250 1959 4250 
Q 1534 4250 1286 3958 
Q 1038 3666 1038 3163 
Q 1038 2656 1286 2365 
Q 1534 2075 1959 2075 
z
" id="DejaVuSans-39" transform="scale(0.015625)"/>
      <path d="M 525 4666 
L 3525 4666 
L 3525 4397 
L 1831 0 
L 1172 0 
L 2766 4134 
L 525 4134 
L 525 4666 
z
" id="DejaVuSans-37" transform="scale(0.015625)"/>
      <path d="M 2034 2216 
Q 1584 2216 1326 1975 
Q 1069 1734 1069 1313 
Q 1069 891 1326 650 
Q 1584 409 2034 409 
Q 2484 409 2743 651 
Q 3003 894 3003 1313 
Q 3003 1734 2745 1975 
Q 2488 2216 2034 2216 
z
M 1403 2484 
Q 997 2584 770 2862 
Q 544 3141 544 3541 
Q 544 4100 942 4425 
Q 1341 4750 2034 4750 
Q 2731 4750 3128 4425 
Q 3525 4100 3525 3541 
Q 3525 3141 3298 2862 
Q 3072 2584 2669 2484 
Q 3125 2378 3379 2068 
Q 3634 1759 3634 1313 
Q 3634 634 3220 271 
Q 2806 -91 2034 -91 
Q 1263 -91 848 271 
Q 434 634 434 1313 
Q 434 1759 690 2068 
Q 947 2378 1403 2484 
z
M 1172 3481 
Q 1172 3119 1398 2916 
Q 1625 2713 2034 2713 
Q 2441 2713 2670 2916 
Q 2900 3119 2900 3481 
Q 2900 3844 2670 4047 
Q 2441 4250 2034 4250 
Q 1625 4250 1398 4047 
Q 1172 3844 1172 3481 
z
" id="DejaVuSans-38" transform="scale(0.015625)"/>
     </defs>
     <use xlink:href="#DejaVuSans-69"/>
     <use x="27.783203" xlink:href="#DejaVuSans-6e"/>
     <use x="91.162109" xlink:href="#DejaVuSans-73"/>
     <use x="143.261719" xlink:href="#DejaVuSans-74"/>
     <use x="182.470703" xlink:href="#DejaVuSans-61"/>
     <use x="243.75" xlink:href="#DejaVuSans-6e"/>
     <use x="307.128906" xlink:href="#DejaVuSans-63"/>
     <use x="362.109375" xlink:href="#DejaVuSans-65"/>
     <use x="423.632812" xlink:href="#DejaVuSans-20"/>
     <use x="455.419922" xlink:href="#DejaVuSans-36"/>
     <use x="519.042969" xlink:href="#DejaVuSans-20"/>
     <use x="550.830078" xlink:href="#DejaVuSans-77"/>
     <use x="632.617188" xlink:href="#DejaVuSans-69"/>
     <use x="660.400391" xlink:href="#DejaVuSans-74"/>
     <use x="699.609375" xlink:href="#DejaVuSans-68"/>
     <use x="762.988281" xlink:href="#DejaVuSans-20"/>
     <use x="794.775391" xlink:href="#DejaVuSans-65"/>
     <use x="856.298828" xlink:href="#DejaVuSans-72"/>
     <use x="895.662109" xlink:href="#DejaVuSans-72"/>
     <use x="934.525391" xlink:href="#DejaVuSans-6f"/>
     <use x="995.707031" xlink:href="#DejaVuSans-72"/>
     <use x="1036.820312" xlink:href="#DejaVuSans-20"/>
     <use x="1068.607422" xlink:href="#DejaVuSans-30"/>
     <use x="1132.230469" xlink:href="#DejaVuSans-2e"/>
     <use x="1164.017578" xlink:href="#DejaVuSans-30"/>
     <use x="1227.640625" xlink:href="#DejaVuSans-35"/>
     <use x="1291.263672" xlink:href="#DejaVuSans-30"/>
     <use x="1354.886719" xlink:href="#DejaVuSans-39"/>
     <use x="1418.509766" xlink:href="#DejaVuSans-36"/>
     <use x="1482.132812" xlink:href="#DejaVuSans-37"/>
     <use x="1545.755859" xlink:href="#DejaVuSans-37"/>
     <use x="1609.378906" xlink:href="#DejaVuSans-34"/>
     <use x="1673.001953" xlink:href="#DejaVuSans-31"/>
     <use x="1736.625" xlink:href="#DejaVuSans-39"/>
     <use x="1800.248047" xlink:href="#DejaVuSans-33"/>
     <use x="1863.871094" xlink:href="#DejaVuSans-35"/>
     <use x="1927.494141" xlink:href="#DejaVuSans-34"/>
     <use x="1991.117188" xlink:href="#DejaVuSans-38"/>
     <use x="2054.740234" xlink:href="#DejaVuSans-33"/>
     <use x="2118.363281" xlink:href="#DejaVuSans-39"/>
     <use x="2181.986328" xlink:href="#DejaVuSans-32"/>
    </g>
   </g>
   <g id="legend_1">
    <g id="patch_7">
     <path d="M 805.348438 499 
L 900.2 499 
Q 902.2 499 902.2 497 
L 902.2 453.965625 
Q 902.2 451.965625 900.2 451.965625 
L 805.348438 451.965625 
Q 803.348438 451.965625 803.348438 453.965625 
L 803.348438 497 
Q 803.348438 499 805.348438 499 
z
" style="opacity:0.8;stroke:#cccccc;stroke-linejoin:miter;"/>
    </g>
    <g id="line2d_16">
     <path d="M 807.348438 460.064062 
L 827.348438 460.064062 
" style="fill:none;stroke:#8dd3c7;stroke-linecap:square;stroke-width:1.5;"/>
    </g>
    <g id="line2d_17"/>
    <g id="text_15">
     <!-- cost -->
     <g style="fill:#ffffff;" transform="translate(835.348438 463.564062)scale(0.1 -0.1)">
      <use xlink:href="#DejaVuSans-63"/>
      <use x="54.980469" xlink:href="#DejaVuSans-6f"/>
      <use x="116.162109" xlink:href="#DejaVuSans-73"/>
      <use x="168.261719" xlink:href="#DejaVuSans-74"/>
     </g>
    </g>
    <g id="line2d_18">
     <path d="M 807.348438 474.742188 
L 827.348438 474.742188 
" style="fill:none;stroke:#feffb3;stroke-linecap:square;stroke-width:1.5;"/>
    </g>
    <g id="line2d_19"/>
    <g id="text_16">
     <!-- best cost -->
     <g style="fill:#ffffff;" transform="translate(835.348438 478.242188)scale(0.1 -0.1)">
      <defs>
       <path d="M 3116 1747 
Q 3116 2381 2855 2742 
Q 2594 3103 2138 3103 
Q 1681 3103 1420 2742 
Q 1159 2381 1159 1747 
Q 1159 1113 1420 752 
Q 1681 391 2138 391 
Q 2594 391 2855 752 
Q 3116 1113 3116 1747 
z
M 1159 2969 
Q 1341 3281 1617 3432 
Q 1894 3584 2278 3584 
Q 2916 3584 3314 3078 
Q 3713 2572 3713 1747 
Q 3713 922 3314 415 
Q 2916 -91 2278 -91 
Q 1894 -91 1617 61 
Q 1341 213 1159 525 
L 1159 0 
L 581 0 
L 581 4863 
L 1159 4863 
L 1159 2969 
z
" id="DejaVuSans-62" transform="scale(0.015625)"/>
      </defs>
      <use xlink:href="#DejaVuSans-62"/>
      <use x="63.476562" xlink:href="#DejaVuSans-65"/>
      <use x="125" xlink:href="#DejaVuSans-73"/>
      <use x="177.099609" xlink:href="#DejaVuSans-74"/>
      <use x="216.308594" xlink:href="#DejaVuSans-20"/>
      <use x="248.095703" xlink:href="#DejaVuSans-63"/>
      <use x="303.076172" xlink:href="#DejaVuSans-6f"/>
      <use x="364.257812" xlink:href="#DejaVuSans-73"/>
      <use x="416.357422" xlink:href="#DejaVuSans-74"/>
     </g>
    </g>
    <g id="line2d_20">
     <path d="M 807.348438 489.420313 
L 827.348438 489.420313 
" style="fill:none;stroke:#bfbbd9;stroke-linecap:square;stroke-width:1.5;"/>
    </g>
    <g id="line2d_21"/>
    <g id="text_17">
     <!-- temperature -->
     <g style="fill:#ffffff;" transform="translate(835.348438 492.920313)scale(0.1 -0.1)">
      <defs>
       <path d="M 3328 2828 
Q 3544 3216 3844 3400 
Q 4144 3584 4550 3584 
Q 5097 3584 5394 3201 
Q 5691 2819 5691 2113 
L 5691 0 
L 5113 0 
L 5113 2094 
Q 5113 2597 4934 2840 
Q 4756 3084 4391 3084 
Q 3944 3084 3684 2787 
Q 3425 2491 3425 1978 
L 3425 0 
L 2847 0 
L 2847 2094 
Q 2847 2600 2669 2842 
Q 2491 3084 2119 3084 
Q 1678 3084 1418 2786 
Q 1159 2488 1159 1978 
L 1159 0 
L 581 0 
L 581 3500 
L 1159 3500 
L 1159 2956 
Q 1356 3278 1631 3431 
Q 1906 3584 2284 3584 
Q 2666 3584 2933 3390 
Q 3200 3197 3328 2828 
z
" id="DejaVuSans-6d" transform="scale(0.015625)"/>
       <path d="M 1159 525 
L 1159 -1331 
L 581 -1331 
L 581 3500 
L 1159 3500 
L 1159 2969 
Q 1341 3281 1617 3432 
Q 1894 3584 2278 3584 
Q 2916 3584 3314 3078 
Q 3713 2572 3713 1747 
Q 3713 922 3314 415 
Q 2916 -91 2278 -91 
Q 1894 -91 1617 61 
Q 1341 213 1159 525 
z
M 3116 1747 
Q 3116 2381 2855 2742 
Q 2594 3103 2138 3103 
Q 1681 3103 1420 2742 
Q 1159 2381 1159 1747 
Q 1159 1113 1420 752 
Q 1681 391 2138 391 
Q 2594 391 2855 752 
Q 3116 1113 3116 1747 
z
" id="DejaVuSans-70" transform="scale(0.015625)"/>
       <path d="M 544 1381 
L 544 3500 
L 1119 3500 
L 1119 1403 
Q 1119 906 1312 657 
Q 1506 409 1894 409 
Q 2359 409 2629 706 
Q 2900 1003 2900 1516 
L 2900 3500 
L 3475 3500 
L 3475 0 
L 2900 0 
L 2900 538 
Q 2691 219 2414 64 
Q 2138 -91 1772 -91 
Q 1169 -91 856 284 
Q 544 659 544 1381 
z
M 1991 3584 
L 1991 3584 
z
" id="DejaVuSans-75" transform="scale(0.015625)"/>
      </defs>
      <use xlink:href="#DejaVuSans-74"/>
      <use x="39.208984" xlink:href="#DejaVuSans-65"/>
      <use x="100.732422" xlink:href="#DejaVuSans-6d"/>
      <use x="198.144531" xlink:href="#DejaVuSans-70"/>
      <use x="261.621094" xlink:href="#DejaVuSans-65"/>
      <use x="323.144531" xlink:href="#DejaVuSans-72"/>
      <use x="364.257812" xlink:href="#DejaVuSans-61"/>
      <use x="425.537109" xlink:href="#DejaVuSans-74"/>
      <use x="464.746094" xlink:href="#DejaVuSans-75"/>
      <use x="528.125" xlink:href="#DejaVuSans-72"/>
      <use x="566.988281" xlink:href="#DejaVuSans-65"/>
     </g>
    </g>
   </g>
  </g>
 </g>
 <defs>
  <clipPath id="p8b2fbb21ba">
   <rect height="434.88" width="781.2" x="126" y="69.12"/>
  </clipPath>
 </defs>
</svg>
