<?xml version="1.0" encoding="utf-8" standalone="no"?>
<!DOCTYPE svg PUBLIC "-//W3C//DTD SVG 1.1//EN"
  "http://www.w3.org/Graphics/SVG/1.1/DTD/svg11.dtd">
<svg height="576pt" version="1.1" viewBox="0 0 1008 576" width="1008pt" xmlns="http://www.w3.org/2000/svg" xmlns:xlink="http://www.w3.org/1999/xlink">
 <metadata>
  <rdf:RDF xmlns:cc="http://creativecommons.org/ns#" xmlns:dc="http://purl.org/dc/elements/1.1/" xmlns:rdf="http://www.w3.org/1999/02/22-rdf-syntax-ns#">
   <cc:Work>
    <dc:type rdf:resource="http://purl.org/dc/dcmitype/StillImage"/>
    <dc:date>2022-01-08T01:27:34.730430</dc:date>
    <dc:format>image/svg+xml</dc:format>
    <dc:creator>
     <cc:Agent>
      <dc:title>Matplotlib v3.4.3, https://matplotlib.org/</dc:title>
     </cc:Agent>
    </dc:creator>
   </cc:Work>
  </rdf:RDF>
 </metadata>
 <defs>
  <style type="text/css">*{stroke-linecap:butt;stroke-linejoin:round;}</style>
 </defs>
 <g id="figure_1">
  <g id="patch_1">
   <path d="M 0 576 
L 1008 576 
L 1008 0 
L 0 0 
z
"/>
  </g>
  <g id="axes_1">
   <g id="patch_2">
    <path d="M 126 504 
L 907.2 504 
L 907.2 69.12 
L 126 69.12 
z
"/>
   </g>
   <g id="matplotlib.axis_1">
    <g id="xtick_1">
     <g id="line2d_1">
      <defs>
       <path d="M 0 0 
L 0 3.5 
" id="m938e4e0736" style="stroke:#ffffff;stroke-width:0.8;"/>
      </defs>
      <g>
       <use style="fill:#ffffff;stroke:#ffffff;stroke-width:0.8;" x="161.509091" xlink:href="#m938e4e0736" y="504"/>
      </g>
     </g>
     <g id="text_1">
      <!-- 0 -->
      <g style="fill:#ffffff;" transform="translate(158.327841 518.598438)scale(0.1 -0.1)">
       <defs>
        <path d="M 2034 4250 
Q 1547 4250 1301 3770 
Q 1056 3291 1056 2328 
Q 1056 1369 1301 889 
Q 1547 409 2034 409 
Q 2525 409 2770 889 
Q 3016 1369 3016 2328 
Q 3016 3291 2770 3770 
Q 2525 4250 2034 4250 
z
M 2034 4750 
Q 2819 4750 3233 4129 
Q 3647 3509 3647 2328 
Q 3647 1150 3233 529 
Q 2819 -91 2034 -91 
Q 1250 -91 836 529 
Q 422 1150 422 2328 
Q 422 3509 836 4129 
Q 1250 4750 2034 4750 
z
" id="DejaVuSans-30" transform="scale(0.015625)"/>
       </defs>
       <use xlink:href="#DejaVuSans-30"/>
      </g>
     </g>
    </g>
    <g id="xtick_2">
     <g id="line2d_2">
      <g>
       <use style="fill:#ffffff;stroke:#ffffff;stroke-width:0.8;" x="295.253313" xlink:href="#m938e4e0736" y="504"/>
      </g>
     </g>
     <g id="text_2">
      <!-- 500 -->
      <g style="fill:#ffffff;" transform="translate(285.709563 518.598438)scale(0.1 -0.1)">
       <defs>
        <path d="M 691 4666 
L 3169 4666 
L 3169 4134 
L 1269 4134 
L 1269 2991 
Q 1406 3038 1543 3061 
Q 1681 3084 1819 3084 
Q 2600 3084 3056 2656 
Q 3513 2228 3513 1497 
Q 3513 744 3044 326 
Q 2575 -91 1722 -91 
Q 1428 -91 1123 -41 
Q 819 9 494 109 
L 494 744 
Q 775 591 1075 516 
Q 1375 441 1709 441 
Q 2250 441 2565 725 
Q 2881 1009 2881 1497 
Q 2881 1984 2565 2268 
Q 2250 2553 1709 2553 
Q 1456 2553 1204 2497 
Q 953 2441 691 2322 
L 691 4666 
z
" id="DejaVuSans-35" transform="scale(0.015625)"/>
       </defs>
       <use xlink:href="#DejaVuSans-35"/>
       <use x="63.623047" xlink:href="#DejaVuSans-30"/>
       <use x="127.246094" xlink:href="#DejaVuSans-30"/>
      </g>
     </g>
    </g>
    <g id="xtick_3">
     <g id="line2d_3">
      <g>
       <use style="fill:#ffffff;stroke:#ffffff;stroke-width:0.8;" x="428.997535" xlink:href="#m938e4e0736" y="504"/>
      </g>
     </g>
     <g id="text_3">
      <!-- 1000 -->
      <g style="fill:#ffffff;" transform="translate(416.272535 518.598438)scale(0.1 -0.1)">
       <defs>
        <path d="M 794 531 
L 1825 531 
L 1825 4091 
L 703 3866 
L 703 4441 
L 1819 4666 
L 2450 4666 
L 2450 531 
L 3481 531 
L 3481 0 
L 794 0 
L 794 531 
z
" id="DejaVuSans-31" transform="scale(0.015625)"/>
       </defs>
       <use xlink:href="#DejaVuSans-31"/>
       <use x="63.623047" xlink:href="#DejaVuSans-30"/>
       <use x="127.246094" xlink:href="#DejaVuSans-30"/>
       <use x="190.869141" xlink:href="#DejaVuSans-30"/>
      </g>
     </g>
    </g>
    <g id="xtick_4">
     <g id="line2d_4">
      <g>
       <use style="fill:#ffffff;stroke:#ffffff;stroke-width:0.8;" x="562.741757" xlink:href="#m938e4e0736" y="504"/>
      </g>
     </g>
     <g id="text_4">
      <!-- 1500 -->
      <g style="fill:#ffffff;" transform="translate(550.016757 518.598438)scale(0.1 -0.1)">
       <use xlink:href="#DejaVuSans-31"/>
       <use x="63.623047" xlink:href="#DejaVuSans-35"/>
       <use x="127.246094" xlink:href="#DejaVuSans-30"/>
       <use x="190.869141" xlink:href="#DejaVuSans-30"/>
      </g>
     </g>
    </g>
    <g id="xtick_5">
     <g id="line2d_5">
      <g>
       <use style="fill:#ffffff;stroke:#ffffff;stroke-width:0.8;" x="696.485978" xlink:href="#m938e4e0736" y="504"/>
      </g>
     </g>
     <g id="text_5">
      <!-- 2000 -->
      <g style="fill:#ffffff;" transform="translate(683.760978 518.598438)scale(0.1 -0.1)">
       <defs>
        <path d="M 1228 531 
L 3431 531 
L 3431 0 
L 469 0 
L 469 531 
Q 828 903 1448 1529 
Q 2069 2156 2228 2338 
Q 2531 2678 2651 2914 
Q 2772 3150 2772 3378 
Q 2772 3750 2511 3984 
Q 2250 4219 1831 4219 
Q 1534 4219 1204 4116 
Q 875 4013 500 3803 
L 500 4441 
Q 881 4594 1212 4672 
Q 1544 4750 1819 4750 
Q 2544 4750 2975 4387 
Q 3406 4025 3406 3419 
Q 3406 3131 3298 2873 
Q 3191 2616 2906 2266 
Q 2828 2175 2409 1742 
Q 1991 1309 1228 531 
z
" id="DejaVuSans-32" transform="scale(0.015625)"/>
       </defs>
       <use xlink:href="#DejaVuSans-32"/>
       <use x="63.623047" xlink:href="#DejaVuSans-30"/>
       <use x="127.246094" xlink:href="#DejaVuSans-30"/>
       <use x="190.869141" xlink:href="#DejaVuSans-30"/>
      </g>
     </g>
    </g>
    <g id="xtick_6">
     <g id="line2d_6">
      <g>
       <use style="fill:#ffffff;stroke:#ffffff;stroke-width:0.8;" x="830.2302" xlink:href="#m938e4e0736" y="504"/>
      </g>
     </g>
     <g id="text_6">
      <!-- 2500 -->
      <g style="fill:#ffffff;" transform="translate(817.5052 518.598438)scale(0.1 -0.1)">
       <use xlink:href="#DejaVuSans-32"/>
       <use x="63.623047" xlink:href="#DejaVuSans-35"/>
       <use x="127.246094" xlink:href="#DejaVuSans-30"/>
       <use x="190.869141" xlink:href="#DejaVuSans-30"/>
      </g>
     </g>
    </g>
    <g id="text_7">
     <!-- iteration -->
     <g style="fill:#ffffff;" transform="translate(495.477344 532.276562)scale(0.1 -0.1)">
      <defs>
       <path d="M 603 3500 
L 1178 3500 
L 1178 0 
L 603 0 
L 603 3500 
z
M 603 4863 
L 1178 4863 
L 1178 4134 
L 603 4134 
L 603 4863 
z
" id="DejaVuSans-69" transform="scale(0.015625)"/>
       <path d="M 1172 4494 
L 1172 3500 
L 2356 3500 
L 2356 3053 
L 1172 3053 
L 1172 1153 
Q 1172 725 1289 603 
Q 1406 481 1766 481 
L 2356 481 
L 2356 0 
L 1766 0 
Q 1100 0 847 248 
Q 594 497 594 1153 
L 594 3053 
L 172 3053 
L 172 3500 
L 594 3500 
L 594 4494 
L 1172 4494 
z
" id="DejaVuSans-74" transform="scale(0.015625)"/>
       <path d="M 3597 1894 
L 3597 1613 
L 953 1613 
Q 991 1019 1311 708 
Q 1631 397 2203 397 
Q 2534 397 2845 478 
Q 3156 559 3463 722 
L 3463 178 
Q 3153 47 2828 -22 
Q 2503 -91 2169 -91 
Q 1331 -91 842 396 
Q 353 884 353 1716 
Q 353 2575 817 3079 
Q 1281 3584 2069 3584 
Q 2775 3584 3186 3129 
Q 3597 2675 3597 1894 
z
M 3022 2063 
Q 3016 2534 2758 2815 
Q 2500 3097 2075 3097 
Q 1594 3097 1305 2825 
Q 1016 2553 972 2059 
L 3022 2063 
z
" id="DejaVuSans-65" transform="scale(0.015625)"/>
       <path d="M 2631 2963 
Q 2534 3019 2420 3045 
Q 2306 3072 2169 3072 
Q 1681 3072 1420 2755 
Q 1159 2438 1159 1844 
L 1159 0 
L 581 0 
L 581 3500 
L 1159 3500 
L 1159 2956 
Q 1341 3275 1631 3429 
Q 1922 3584 2338 3584 
Q 2397 3584 2469 3576 
Q 2541 3569 2628 3553 
L 2631 2963 
z
" id="DejaVuSans-72" transform="scale(0.015625)"/>
       <path d="M 2194 1759 
Q 1497 1759 1228 1600 
Q 959 1441 959 1056 
Q 959 750 1161 570 
Q 1363 391 1709 391 
Q 2188 391 2477 730 
Q 2766 1069 2766 1631 
L 2766 1759 
L 2194 1759 
z
M 3341 1997 
L 3341 0 
L 2766 0 
L 2766 531 
Q 2569 213 2275 61 
Q 1981 -91 1556 -91 
Q 1019 -91 701 211 
Q 384 513 384 1019 
Q 384 1609 779 1909 
Q 1175 2209 1959 2209 
L 2766 2209 
L 2766 2266 
Q 2766 2663 2505 2880 
Q 2244 3097 1772 3097 
Q 1472 3097 1187 3025 
Q 903 2953 641 2809 
L 641 3341 
Q 956 3463 1253 3523 
Q 1550 3584 1831 3584 
Q 2591 3584 2966 3190 
Q 3341 2797 3341 1997 
z
" id="DejaVuSans-61" transform="scale(0.015625)"/>
       <path d="M 1959 3097 
Q 1497 3097 1228 2736 
Q 959 2375 959 1747 
Q 959 1119 1226 758 
Q 1494 397 1959 397 
Q 2419 397 2687 759 
Q 2956 1122 2956 1747 
Q 2956 2369 2687 2733 
Q 2419 3097 1959 3097 
z
M 1959 3584 
Q 2709 3584 3137 3096 
Q 3566 2609 3566 1747 
Q 3566 888 3137 398 
Q 2709 -91 1959 -91 
Q 1206 -91 779 398 
Q 353 888 353 1747 
Q 353 2609 779 3096 
Q 1206 3584 1959 3584 
z
" id="DejaVuSans-6f" transform="scale(0.015625)"/>
       <path d="M 3513 2113 
L 3513 0 
L 2938 0 
L 2938 2094 
Q 2938 2591 2744 2837 
Q 2550 3084 2163 3084 
Q 1697 3084 1428 2787 
Q 1159 2491 1159 1978 
L 1159 0 
L 581 0 
L 581 3500 
L 1159 3500 
L 1159 2956 
Q 1366 3272 1645 3428 
Q 1925 3584 2291 3584 
Q 2894 3584 3203 3211 
Q 3513 2838 3513 2113 
z
" id="DejaVuSans-6e" transform="scale(0.015625)"/>
      </defs>
      <use xlink:href="#DejaVuSans-69"/>
      <use x="27.783203" xlink:href="#DejaVuSans-74"/>
      <use x="66.992188" xlink:href="#DejaVuSans-65"/>
      <use x="128.515625" xlink:href="#DejaVuSans-72"/>
      <use x="169.628906" xlink:href="#DejaVuSans-61"/>
      <use x="230.908203" xlink:href="#DejaVuSans-74"/>
      <use x="270.117188" xlink:href="#DejaVuSans-69"/>
      <use x="297.900391" xlink:href="#DejaVuSans-6f"/>
      <use x="359.082031" xlink:href="#DejaVuSans-6e"/>
     </g>
    </g>
   </g>
   <g id="matplotlib.axis_2">
    <g id="ytick_1">
     <g id="line2d_7">
      <defs>
       <path d="M 0 0 
L -3.5 0 
" id="m39ca5ed210" style="stroke:#ffffff;stroke-width:0.8;"/>
      </defs>
      <g>
       <use style="fill:#ffffff;stroke:#ffffff;stroke-width:0.8;" x="126" xlink:href="#m39ca5ed210" y="484.232727"/>
      </g>
     </g>
     <g id="text_8">
      <!-- 0 -->
      <g style="fill:#ffffff;" transform="translate(112.6375 488.031946)scale(0.1 -0.1)">
       <use xlink:href="#DejaVuSans-30"/>
      </g>
     </g>
    </g>
    <g id="ytick_2">
     <g id="line2d_8">
      <g>
       <use style="fill:#ffffff;stroke:#ffffff;stroke-width:0.8;" x="126" xlink:href="#m39ca5ed210" y="422.652439"/>
      </g>
     </g>
     <g id="text_9">
      <!-- 5000 -->
      <g style="fill:#ffffff;" transform="translate(93.55 426.451657)scale(0.1 -0.1)">
       <use xlink:href="#DejaVuSans-35"/>
       <use x="63.623047" xlink:href="#DejaVuSans-30"/>
       <use x="127.246094" xlink:href="#DejaVuSans-30"/>
       <use x="190.869141" xlink:href="#DejaVuSans-30"/>
      </g>
     </g>
    </g>
    <g id="ytick_3">
     <g id="line2d_9">
      <g>
       <use style="fill:#ffffff;stroke:#ffffff;stroke-width:0.8;" x="126" xlink:href="#m39ca5ed210" y="361.07215"/>
      </g>
     </g>
     <g id="text_10">
      <!-- 10000 -->
      <g style="fill:#ffffff;" transform="translate(87.1875 364.871368)scale(0.1 -0.1)">
       <use xlink:href="#DejaVuSans-31"/>
       <use x="63.623047" xlink:href="#DejaVuSans-30"/>
       <use x="127.246094" xlink:href="#DejaVuSans-30"/>
       <use x="190.869141" xlink:href="#DejaVuSans-30"/>
       <use x="254.492188" xlink:href="#DejaVuSans-30"/>
      </g>
     </g>
    </g>
    <g id="ytick_4">
     <g id="line2d_10">
      <g>
       <use style="fill:#ffffff;stroke:#ffffff;stroke-width:0.8;" x="126" xlink:href="#m39ca5ed210" y="299.491861"/>
      </g>
     </g>
     <g id="text_11">
      <!-- 15000 -->
      <g style="fill:#ffffff;" transform="translate(87.1875 303.291079)scale(0.1 -0.1)">
       <use xlink:href="#DejaVuSans-31"/>
       <use x="63.623047" xlink:href="#DejaVuSans-35"/>
       <use x="127.246094" xlink:href="#DejaVuSans-30"/>
       <use x="190.869141" xlink:href="#DejaVuSans-30"/>
       <use x="254.492188" xlink:href="#DejaVuSans-30"/>
      </g>
     </g>
    </g>
    <g id="ytick_5">
     <g id="line2d_11">
      <g>
       <use style="fill:#ffffff;stroke:#ffffff;stroke-width:0.8;" x="126" xlink:href="#m39ca5ed210" y="237.911572"/>
      </g>
     </g>
     <g id="text_12">
      <!-- 20000 -->
      <g style="fill:#ffffff;" transform="translate(87.1875 241.710791)scale(0.1 -0.1)">
       <use xlink:href="#DejaVuSans-32"/>
       <use x="63.623047" xlink:href="#DejaVuSans-30"/>
       <use x="127.246094" xlink:href="#DejaVuSans-30"/>
       <use x="190.869141" xlink:href="#DejaVuSans-30"/>
       <use x="254.492188" xlink:href="#DejaVuSans-30"/>
      </g>
     </g>
    </g>
    <g id="ytick_6">
     <g id="line2d_12">
      <g>
       <use style="fill:#ffffff;stroke:#ffffff;stroke-width:0.8;" x="126" xlink:href="#m39ca5ed210" y="176.331283"/>
      </g>
     </g>
     <g id="text_13">
      <!-- 25000 -->
      <g style="fill:#ffffff;" transform="translate(87.1875 180.130502)scale(0.1 -0.1)">
       <use xlink:href="#DejaVuSans-32"/>
       <use x="63.623047" xlink:href="#DejaVuSans-35"/>
       <use x="127.246094" xlink:href="#DejaVuSans-30"/>
       <use x="190.869141" xlink:href="#DejaVuSans-30"/>
       <use x="254.492188" xlink:href="#DejaVuSans-30"/>
      </g>
     </g>
    </g>
    <g id="ytick_7">
     <g id="line2d_13">
      <g>
       <use style="fill:#ffffff;stroke:#ffffff;stroke-width:0.8;" x="126" xlink:href="#m39ca5ed210" y="114.750994"/>
      </g>
     </g>
     <g id="text_14">
      <!-- 30000 -->
      <g style="fill:#ffffff;" transform="translate(87.1875 118.550213)scale(0.1 -0.1)">
       <defs>
        <path d="M 2597 2516 
Q 3050 2419 3304 2112 
Q 3559 1806 3559 1356 
Q 3559 666 3084 287 
Q 2609 -91 1734 -91 
Q 1441 -91 1130 -33 
Q 819 25 488 141 
L 488 750 
Q 750 597 1062 519 
Q 1375 441 1716 441 
Q 2309 441 2620 675 
Q 2931 909 2931 1356 
Q 2931 1769 2642 2001 
Q 2353 2234 1838 2234 
L 1294 2234 
L 1294 2753 
L 1863 2753 
Q 2328 2753 2575 2939 
Q 2822 3125 2822 3475 
Q 2822 3834 2567 4026 
Q 2313 4219 1838 4219 
Q 1578 4219 1281 4162 
Q 984 4106 628 3988 
L 628 4550 
Q 988 4650 1302 4700 
Q 1616 4750 1894 4750 
Q 2613 4750 3031 4423 
Q 3450 4097 3450 3541 
Q 3450 3153 3228 2886 
Q 3006 2619 2597 2516 
z
" id="DejaVuSans-33" transform="scale(0.015625)"/>
       </defs>
       <use xlink:href="#DejaVuSans-33"/>
       <use x="63.623047" xlink:href="#DejaVuSans-30"/>
       <use x="127.246094" xlink:href="#DejaVuSans-30"/>
       <use x="190.869141" xlink:href="#DejaVuSans-30"/>
       <use x="254.492188" xlink:href="#DejaVuSans-30"/>
      </g>
     </g>
    </g>
   </g>
   <g id="line2d_14">
    <path clip-path="url(#p4a3a29dbb0)" d="M 161.509091 161.453485 
L 161.776579 188.388704 
L 162.044068 184.718518 
L 162.311556 194.583681 
L 162.579045 168.84312 
L 162.846533 175.887905 
L 163.114022 179.55809 
L 163.38151 174.853356 
L 163.648998 191.997308 
L 163.916487 174.853356 
L 164.183975 302.299922 
L 164.718952 311.992659 
L 164.986441 335.590226 
L 165.253929 309.763453 
L 165.521418 331.488979 
L 165.788906 336.563195 
L 166.056394 314.837669 
L 166.323883 317.374777 
L 166.591371 287.803922 
L 166.85886 314.73914 
L 167.126348 310.416204 
L 167.393837 290.956833 
L 167.661325 200.027378 
L 167.928814 226.962596 
L 168.46379 208.476194 
L 168.731279 235.152775 
L 168.998767 229.85687 
L 169.266256 210.397499 
L 169.533744 215.693404 
L 169.801233 242.899575 
L 170.068721 252.764738 
L 170.33621 268.184442 
L 170.603698 254.402773 
L 171.406163 185.235793 
L 171.673652 190.310009 
L 172.208629 231.002263 
L 172.476117 242.862627 
L 172.743606 228.04641 
L 173.011094 224.376224 
L 173.278582 251.311443 
L 173.546071 233.083677 
L 173.813559 206.407096 
L 174.081048 225.866467 
L 174.348536 230.571201 
L 174.616025 203.635983 
L 174.883513 230.312564 
L 175.151002 210.853193 
L 175.685978 253.737706 
L 175.953467 265.302484 
L 176.220955 293.136775 
L 176.488444 295.673883 
L 176.755932 315.133254 
L 177.023421 305.846947 
L 177.290909 278.640775 
L 177.558398 273.566559 
L 177.825886 246.889978 
L 178.093374 242.567042 
L 178.628351 296.449794 
L 178.89584 307.164765 
L 179.163328 287.705393 
L 179.698305 278.246661 
L 180.233282 250.966593 
L 180.50077 239.401815 
L 180.768259 243.724751 
L 181.035747 239.130862 
L 181.570724 221.617427 
L 181.838213 225.287613 
L 182.105701 254.94468 
L 182.37319 258.861186 
L 182.640678 278.234345 
L 182.908166 265.216272 
L 183.175655 293.050563 
L 183.443143 278.234345 
L 183.710632 292.016014 
L 183.97812 321.586868 
L 184.513097 270.155011 
L 184.780586 260.055844 
L 185.048074 271.620622 
L 185.315562 267.297686 
L 185.850539 293.974267 
L 186.118028 271.509777 
L 186.653005 296.794644 
L 186.920493 301.11758 
L 187.187982 319.431558 
L 187.722958 281.658209 
L 187.990447 252.001142 
L 188.257935 248.330957 
L 188.525424 236.470593 
L 188.792912 231.421009 
L 189.327889 260.413009 
L 189.595378 284.010576 
L 189.862866 279.68764 
L 190.665331 356.638369 
L 190.93282 374.952347 
L 191.200308 382.600619 
L 191.467797 409.535837 
L 191.735285 391.221859 
L 192.002773 394.892044 
L 192.270262 390.18731 
L 192.53775 408.501288 
L 192.805239 404.818787 
L 193.072727 410.188588 
L 193.340216 407.65148 
L 193.607704 378.080625 
L 193.875193 383.154841 
L 194.142681 373.868534 
L 194.410169 376.405642 
L 194.677658 405.976496 
L 195.212635 376.947548 
L 195.480123 374.41044 
L 195.747612 369.336224 
L 196.282589 379.00433 
L 196.550077 389.7193 
L 197.085054 356.675317 
L 197.352542 351.601101 
L 197.620031 343.952829 
L 197.887519 366.417319 
L 198.422496 325.257054 
L 198.689985 302.792564 
L 198.957473 307.497298 
L 199.49245 288.222668 
L 199.759938 289.306481 
L 200.294915 322.436676 
L 200.562404 191.381506 
L 200.829892 206.197723 
L 201.097381 180.457162 
L 201.364869 206.197723 
L 201.632357 176.626868 
L 201.899846 191.997308 
L 202.167334 196.591198 
L 202.702311 255.81912 
L 202.9698 265.684282 
L 203.237288 263.147174 
L 203.504777 276.928843 
L 203.772265 272.334953 
L 204.039753 246.50818 
L 204.307242 234.475392 
L 204.57473 252.78937 
L 204.842219 279.995541 
L 205.109707 270.709234 
L 205.377196 243.503062 
L 205.644684 261.730828 
L 205.912173 249.870464 
L 206.179661 227.405975 
L 206.447149 253.232748 
L 206.714638 234.91877 
L 206.982126 239.512659 
L 207.249615 263.110226 
L 207.784592 272.864544 
L 208.05208 269.182043 
L 208.319569 272.864544 
L 208.587057 247.123983 
L 208.854545 251.446919 
L 209.122034 278.653091 
L 209.389522 290.513455 
L 209.657011 285.808721 
L 209.924499 311.549281 
L 210.191988 307.86678 
L 210.994453 277.175164 
L 211.261941 280.857665 
L 211.52943 253.922447 
L 211.796918 239.611188 
L 212.331895 281.522732 
L 212.599384 277.199796 
L 212.866872 258.972031 
L 213.401849 305.107983 
L 213.669337 295.821676 
L 213.936826 322.756894 
L 214.204314 333.471864 
L 214.471803 323.606702 
L 214.739291 327.929638 
L 215.00678 304.332071 
L 215.274268 298.96227 
L 215.541757 322.559837 
L 215.809245 327.264571 
L 216.076733 301.52401 
L 216.344222 315.305679 
L 216.61171 304.590709 
L 216.879199 299.996819 
L 217.414176 253.602229 
L 217.681664 262.888537 
L 217.949153 233.317682 
L 218.216641 226.864068 
L 218.484129 241.680286 
L 218.751618 212.023218 
L 219.019106 231.48259 
L 219.286595 240.497944 
L 219.821572 250.843433 
L 220.08906 245.793849 
L 220.356549 272.729067 
L 220.624037 255.585115 
L 220.891525 251.902613 
L 221.159014 267.851908 
L 221.426502 295.686199 
L 221.693991 269.009618 
L 222.228968 282.027691 
L 222.763945 272.248741 
L 223.031433 272.248741 
L 223.298921 290.562719 
L 223.833898 345.874134 
L 224.101387 336.587827 
L 224.368875 363.264408 
L 224.903852 353.645567 
L 225.171341 362.931874 
L 225.706317 336.255293 
L 226.241294 285.180602 
L 226.508783 314.837669 
L 226.776271 299.060799 
L 227.04376 310.625577 
L 227.311248 282.791286 
L 227.578737 267.371582 
L 227.846225 286.830953 
L 228.113713 296.880856 
L 228.381202 314.849985 
L 228.64869 307.201713 
L 228.916179 324.345665 
L 229.183667 304.886294 
L 229.451156 302.349186 
L 229.718644 307.39877 
L 229.986133 334.075351 
L 230.253621 336.612459 
L 230.521109 351.428676 
L 230.788598 193.019541 
L 231.056086 184.841679 
L 231.323575 194.485152 
L 231.858552 220.336557 
L 232.393529 168.301213 
L 232.928505 224.634862 
L 233.195994 208.944204 
L 233.463482 222.725873 
L 233.998459 199.079042 
L 234.265948 201.973315 
L 234.533436 210.126545 
L 234.800924 194.706841 
L 235.068413 203.648299 
L 235.335901 230.854471 
L 235.60339 220.1395 
L 235.870878 243.921808 
L 236.138367 243.921808 
L 236.405855 231.470274 
L 236.940832 255.117105 
L 237.475809 245.153414 
L 237.743297 265.930603 
L 238.010786 236.273536 
L 238.278274 265.524173 
L 238.545763 190.063687 
L 238.813251 193.733873 
L 239.348228 240.128462 
L 239.615716 247.776734 
L 239.883205 232.960517 
L 240.150693 237.665251 
L 240.418182 249.525614 
L 240.68567 254.59983 
L 240.953159 281.806002 
L 241.220647 274.15773 
L 241.755624 230.078559 
L 242.023112 237.726831 
L 242.290601 232.35703 
L 242.558089 221.64206 
L 242.825578 204.522739 
L 243.093066 231.19932 
L 243.360555 201.542253 
L 243.895532 191.874148 
L 244.16302 195.556649 
L 244.430508 209.670851 
L 244.697997 193.019541 
L 244.965485 222.676608 
L 245.232974 227.972513 
L 245.500462 247.936843 
L 245.767951 243.613907 
L 246.035439 253.479069 
L 246.302928 280.414287 
L 246.837904 235.214355 
L 247.105393 240.584156 
L 247.64037 233.23147 
L 247.907858 222.5165 
L 248.175347 249.500982 
L 248.442835 260.215952 
L 248.710324 255.511218 
L 248.977812 277.667806 
L 249.2453 270.019534 
L 249.512789 284.835752 
L 249.780277 274.120782 
L 250.047766 277.790967 
L 250.315254 290.735144 
L 250.582743 262.900853 
L 251.11772 312.46067 
L 251.385208 293.001298 
L 251.652696 265.167008 
L 251.920185 293.001298 
L 252.455162 258.824238 
L 252.72265 286.658529 
L 252.990139 271.238824 
L 253.257627 293.703314 
L 253.525116 297.385815 
L 253.792604 287.520653 
L 254.060092 284.983545 
L 254.327581 297.779929 
L 254.595069 285.919565 
L 254.862558 303.063517 
L 255.130046 295.415246 
L 255.397535 280.599028 
L 255.665023 280.599028 
L 255.932512 250.941961 
L 256.2 238.404214 
L 256.467488 245.436683 
L 256.734977 227.393658 
L 257.002465 257.050726 
L 257.269954 253.38054 
L 257.537442 258.134539 
L 257.804931 272.950756 
L 258.072419 270.413648 
L 258.339908 279.699956 
L 258.607396 275.106066 
L 258.874884 213.057767 
L 259.142373 213.057767 
L 259.409861 209.067365 
L 259.67735 229.290331 
L 259.944838 238.576639 
L 260.212327 223.156935 
L 260.479815 228.206518 
L 260.747304 202.379745 
L 261.014792 230.214036 
L 261.28228 245.63374 
L 261.549769 250.707956 
L 261.817257 270.167327 
L 262.084746 264.871422 
L 262.352234 237.936204 
L 262.619723 267.593271 
L 262.887211 245.867745 
L 263.1547 250.683324 
L 263.422188 231.223952 
L 263.689676 221.35879 
L 263.957165 194.325043 
L 264.224653 194.325043 
L 264.492142 209.141261 
L 264.75963 236.076479 
L 265.294607 181.30697 
L 265.562096 187.095517 
L 265.829584 197.810488 
L 266.097072 202.133424 
L 266.364561 197.42869 
L 266.632049 212.244907 
L 266.899538 208.562406 
L 267.167026 216.210678 
L 267.434515 229.228751 
L 267.702003 215.447082 
L 267.969492 226.112788 
L 268.23698 230.817523 
L 268.504468 226.112788 
L 268.771957 196.455721 
L 269.039445 222.282495 
L 269.306934 219.745387 
L 269.574422 231.778175 
L 269.841911 211.247307 
L 270.109399 213.476513 
L 270.376888 208.402297 
L 270.644376 187.501947 
L 270.911864 184.74315 
L 271.179353 188.425652 
L 271.446841 215.631823 
L 271.71433 229.413492 
L 271.981818 234.709397 
L 272.249307 208.968836 
L 272.516795 230.694362 
L 272.784284 208.968836 
L 273.051772 218.833998 
L 273.31926 213.057767 
L 273.586749 201.197404 
L 273.854237 202.342797 
L 274.121726 202.342797 
L 274.389214 206.136143 
L 274.656703 220.95236 
L 275.19168 199.52242 
L 275.459168 211.703001 
L 275.726656 217.479232 
L 275.994145 198.019861 
L 276.261633 219.745387 
L 276.529122 214.695803 
L 276.79661 224.560965 
L 277.064099 220.878464 
L 277.331587 239.106229 
L 277.599076 233.810325 
L 277.866564 223.095354 
L 278.401541 260.979548 
L 278.669029 239.254022 
L 278.936518 229.967715 
L 279.204006 226.297529 
L 279.738983 202.20732 
L 280.006471 207.626386 
L 280.27396 216.912693 
L 280.541448 205.05233 
L 280.808937 200.45844 
L 281.076425 205.754345 
L 281.611402 253.220432 
L 282.146379 200.273699 
L 282.413867 194.903898 
L 282.681356 195.285696 
L 282.948844 199.879585 
L 283.216333 182.784897 
L 283.483821 194.349675 
L 284.018798 177.415096 
L 284.553775 211.136462 
L 284.821263 206.431728 
L 285.088752 219.314325 
L 285.35624 246.249543 
L 285.623729 216.678688 
L 285.891217 221.001625 
L 286.158706 246.742185 
L 286.426194 254.390457 
L 286.961171 209.190525 
L 287.228659 193.770821 
L 287.496148 205.631184 
L 287.763636 191.849516 
L 288.031125 214.314005 
L 288.566102 203.943884 
L 288.83359 217.725553 
L 289.101079 217.725553 
L 289.368567 192.42837 
L 289.636055 183.486913 
L 290.171032 237.283453 
L 290.438521 255.831436 
L 290.706009 226.174369 
L 290.973498 218.341356 
L 291.775963 234.906454 
L 292.043451 213.180928 
L 292.578428 253.134219 
L 293.113405 243.466114 
L 293.648382 253.245064 
L 293.915871 227.418291 
L 294.183359 229.955399 
L 294.450847 234.549288 
L 294.718336 226.901016 
L 294.985824 212.084799 
L 295.253313 231.54417 
L 295.520801 236.593754 
L 296.590755 217.51618 
L 296.858243 194.509784 
L 297.125732 263.590552 
L 297.39322 241.988187 
L 297.660709 253.848551 
L 298.195686 263.147174 
L 298.730663 287.643813 
L 298.998151 315.478104 
L 299.265639 288.271932 
L 299.533128 276.411568 
L 299.800616 246.840714 
L 300.068105 258.701077 
L 300.335593 243.88486 
L 300.87057 197.736591 
L 301.138059 207.601754 
L 301.405547 231.753543 
L 301.673035 202.096476 
L 301.940524 213.661254 
L 302.742989 265.622702 
L 303.010478 260.252901 
L 303.277966 242.025135 
L 303.545455 232.738828 
L 303.812943 235.275935 
L 304.080431 211.678369 
L 304.34792 238.35495 
L 304.615408 211.678369 
L 305.150385 247.050087 
L 305.417874 270.647653 
L 305.685362 265.942919 
L 305.952851 254.082556 
L 306.220339 280.759137 
L 306.487827 270.893975 
L 306.755316 298.100146 
L 307.290293 288.432041 
L 307.82527 295.784727 
L 308.092758 291.461791 
L 308.360247 296.055681 
L 308.627735 288.407409 
L 308.895223 303.223626 
L 309.162712 275.389336 
L 309.4302 280.463551 
L 310.232666 233.083677 
L 310.500154 242.948839 
L 310.767643 217.208279 
L 311.035131 211.912374 
L 311.302619 193.598396 
L 311.570108 201.246668 
L 311.837596 187.464999 
L 312.105085 275.450916 
L 312.372573 277.988024 
L 312.640062 250.153733 
L 312.90755 277.088952 
L 313.175039 247.518097 
L 313.442527 251.188282 
L 313.710015 247.518097 
L 313.977504 250.75722 
L 314.244992 246.434284 
L 314.512481 266.891256 
L 314.779969 261.595351 
L 315.047458 266.669567 
L 315.314946 247.210195 
L 315.582435 247.185563 
L 315.849923 237.320401 
L 316.652388 321.525288 
L 317.187365 313.150369 
L 317.454854 308.445635 
L 317.722342 314.221866 
L 317.989831 287.545285 
L 318.257319 317.116139 
L 318.524807 289.281849 
L 318.792296 302.299922 
L 319.059784 173.21532 
L 319.327273 161.465801 
L 319.594761 178.856075 
L 319.86225 180.962121 
L 320.129738 175.887905 
L 320.397227 201.714678 
L 320.932203 193.327443 
L 321.46718 244.439082 
L 321.734669 253.72539 
L 322.002157 280.660608 
L 322.537134 232.258501 
L 323.072111 283.641094 
L 323.339599 274.354787 
L 323.607088 291.498739 
L 323.874576 272.039368 
L 324.142065 275.721869 
L 324.409553 281.017774 
L 324.677042 255.191001 
L 324.94453 241.409332 
L 325.212018 270.980187 
L 325.479507 261.115025 
L 325.746995 256.792088 
L 326.014484 229.51202 
L 326.549461 250.104469 
L 326.816949 240.239307 
L 327.084438 274.317839 
L 327.351926 288.875419 
L 327.886903 297.841509 
L 328.42188 264.600469 
L 328.689368 267.137577 
L 328.956857 289.602066 
L 329.224345 300.317037 
L 329.759322 290.919885 
L 330.02681 268.455395 
L 330.294299 282.237064 
L 330.561787 276.941159 
L 330.829276 265.080795 
L 331.096764 284.540167 
L 331.631741 238.244105 
L 331.89923 282.65581 
L 332.166718 308.482583 
L 332.434206 174.804092 
L 332.701695 202.638382 
L 333.236672 223.785054 
L 333.50416 229.080958 
L 333.771649 224.031375 
L 334.574114 254.747623 
L 334.841602 239.931405 
L 335.109091 257.075358 
L 335.376579 253.392856 
L 335.644068 242.677886 
L 336.446533 194.571365 
L 336.714022 212.885342 
L 336.98151 217.959558 
L 337.248998 199.64558 
L 337.516487 203.968517 
L 337.783975 186.824564 
L 338.051464 196.689726 
L 338.318952 235.300568 
L 338.586441 225.435405 
L 338.853929 244.894777 
L 339.121418 251.348391 
L 339.388906 246.754501 
L 339.656394 263.898454 
L 339.923883 254.612146 
L 340.191371 266.47251 
L 340.45886 261.398294 
L 341.261325 293.543205 
L 341.796302 250.658692 
L 342.06379 258.306964 
L 342.331279 255.769856 
L 342.598767 236.310484 
L 342.866256 238.847592 
L 343.133744 243.441482 
L 343.401233 231.581118 
L 343.668721 227.910933 
L 343.93621 198.340078 
L 344.203698 227.997145 
L 344.471186 227.997145 
L 344.738675 231.667331 
L 345.006163 249.895096 
L 345.273652 239.180126 
L 345.808629 280.365023 
L 346.076117 268.800245 
L 346.343606 250.572479 
L 346.611094 267.716432 
L 346.878582 263.393495 
L 347.146071 241.667969 
L 347.413559 268.874141 
L 347.681048 268.787929 
L 348.216025 288.789207 
L 348.483513 314.61598 
L 348.751002 288.789207 
L 349.01849 278.074236 
L 349.285978 307.645091 
L 349.553467 181.65182 
L 349.820955 271.398933 
L 350.088444 265.290168 
L 350.355932 270.339752 
L 350.623421 296.166525 
L 350.890909 307.731303 
L 351.693374 277.015055 
L 351.960863 281.510416 
L 352.228351 295.292085 
L 352.49584 323.126376 
L 352.763328 304.89861 
L 353.030817 309.221546 
L 353.298305 321.08191 
L 353.565794 295.255137 
L 353.833282 313.39669 
L 354.10077 283.825835 
L 354.368259 295.390613 
L 354.635747 290.094709 
L 354.903236 263.418128 
L 355.170724 290.304082 
L 355.438213 293.641733 
L 355.705701 170.973798 
L 355.97319 157.795616 
L 356.775655 198.253866 
L 357.043143 184.472197 
L 357.310632 203.931568 
L 357.57812 211.57984 
L 358.113097 191.578562 
L 358.380586 179.718199 
L 358.915562 210.58224 
L 359.183051 228.810005 
L 359.450539 238.096313 
L 359.985516 204.448843 
L 360.253005 222.676608 
L 360.520493 217.380704 
L 361.05547 185.420534 
L 361.322958 185.420534 
L 361.590447 267.630219 
L 361.857935 284.441638 
L 362.125424 284.146053 
L 362.392912 291.794325 
L 362.660401 306.906128 
L 362.927889 291.794325 
L 363.195378 291.548003 
L 363.462866 291.548003 
L 363.730354 315.14557 
L 363.997843 304.4306 
L 364.265331 322.658365 
L 364.53282 307.842148 
L 364.800308 318.557118 
L 365.067797 291.880537 
L 365.335285 291.6219 
L 365.602773 311.081271 
L 365.870262 179.656619 
L 366.13775 169.24955 
L 366.405239 195.076323 
L 366.672727 198.758824 
L 367.207704 163.879749 
L 367.475193 134.308894 
L 367.742681 125.022586 
L 368.010169 138.754991 
L 368.277658 134.432054 
L 368.545146 143.718362 
L 368.812635 173.289217 
L 369.080123 187.070885 
L 369.347612 183.4007 
L 369.6151 209.141261 
L 370.417565 234.795609 
L 370.685054 264.452676 
L 371.487519 220.878464 
L 371.755008 229.056326 
L 372.022496 233.379263 
L 372.289985 228.305047 
L 372.824961 237.94852 
L 373.09245 232.652615 
L 373.359938 221.518899 
L 373.627427 221.518899 
L 373.894915 221.223314 
L 374.162404 236.864707 
L 374.429892 240.534892 
L 374.697381 258.762658 
L 374.964869 253.713074 
L 375.232357 258.78729 
L 375.499846 231.581118 
L 375.767334 243.441482 
L 376.034823 239.758981 
L 376.302311 267.593271 
L 376.5698 263.923086 
L 376.837288 234.266019 
L 377.104777 260.9426 
L 377.639753 209.510743 
L 377.907242 226.654695 
L 378.17473 199.719477 
L 378.442219 226.925648 
L 378.709707 223.563365 
L 378.977196 228.859269 
L 379.244684 201.653098 
L 380.047149 186.233393 
L 380.314638 191.529298 
L 380.582126 217.356071 
L 380.849615 200.212119 
L 381.117103 213.993788 
L 381.384592 195.766022 
L 381.65208 222.70124 
L 381.919569 220.164133 
L 382.187057 225.361509 
L 382.454545 252.03809 
L 382.989522 226.691643 
L 383.257011 268.455395 
L 383.524499 238.88454 
L 383.791988 226.026576 
L 384.059476 196.369509 
L 384.326965 200.963399 
L 384.861941 238.736748 
L 385.396918 215.311606 
L 385.664407 227.171969 
L 385.931895 232.541771 
L 386.199384 230.004663 
L 386.466872 204.17789 
L 387.001849 221.210997 
L 387.269337 258.898134 
L 387.536826 261.435242 
L 387.804314 246.619025 
L 388.071803 256.484187 
L 388.339291 282.31096 
L 388.60678 252.740105 
L 388.874268 248.146216 
L 389.141757 277.717071 
L 389.409245 268.430763 
L 389.676733 290.895252 
L 389.944222 286.190518 
L 390.21171 295.476826 
L 390.479199 265.905971 
L 390.746687 280.722189 
L 391.014176 258.996663 
L 391.281664 253.947079 
L 391.549153 244.081917 
L 391.816641 248.404853 
L 392.084129 220.570562 
L 392.351618 255.597431 
L 392.886595 220.36119 
L 393.154083 220.36119 
L 393.421572 246.249543 
L 393.68906 246.249543 
L 394.491525 260.844071 
L 394.759014 242.530094 
L 395.293991 277.988024 
L 395.561479 273.665088 
L 395.828968 246.458916 
L 396.096456 268.184442 
L 396.363945 264.514257 
L 396.631433 269.56384 
L 396.898921 255.782172 
L 397.16641 274.009937 
L 397.433898 277.680122 
L 397.968875 242.222192 
L 398.236364 247.591993 
L 398.503852 229.364228 
L 398.771341 199.793373 
L 399.038829 218.107351 
L 399.306317 247.678206 
L 399.573806 236.113427 
L 399.841294 262.790009 
L 400.108783 274.354787 
L 400.376271 279.429003 
L 400.64376 259.969631 
L 400.911248 273.7513 
L 401.178737 303.408367 
L 401.446225 298.112462 
L 401.981202 259.698678 
L 402.24869 269.56384 
L 402.516179 264.194039 
L 402.783667 242.468513 
L 403.051156 259.612466 
L 403.318644 254.562882 
L 403.586133 280.303443 
L 403.853621 275.229227 
L 404.121109 293.456992 
L 404.388598 299.233224 
L 404.656086 322.83079 
L 405.191063 303.61774 
L 405.458552 330.552958 
L 405.72604 334.875895 
L 405.993529 349.692112 
L 406.261017 353.374614 
L 406.528505 326.439395 
L 406.795994 317.153088 
L 407.330971 283.505618 
L 407.598459 292.791925 
L 407.865948 297.866141 
L 408.133436 268.209074 
L 408.400924 279.773852 
L 408.668413 276.091351 
L 408.935901 250.264578 
L 409.20339 255.634379 
L 409.470878 282.840551 
L 410.005855 261.41061 
L 410.273344 234.204438 
L 410.540832 229.499704 
L 410.80832 215.718036 
L 411.075809 187.883745 
L 411.343297 201.665414 
L 411.610786 257.592632 
L 411.878274 272.40885 
L 412.145763 301.979704 
L 412.413251 297.27497 
L 412.68074 306.561278 
L 412.948228 298.913006 
L 413.215716 303.506896 
L 413.483205 276.300724 
L 413.750693 280.62366 
L 414.018182 253.688442 
L 414.28567 238.268738 
L 414.553159 237.111028 
L 414.820647 216.654056 
L 415.088136 224.560965 
L 415.355624 202.835439 
L 415.623112 193.044173 
L 415.890601 193.044173 
L 416.158089 204.904537 
L 416.693066 259.944999 
L 416.960555 255.35111 
L 417.228043 235.891738 
L 417.495532 233.35463 
L 418.030508 259.489305 
L 418.297997 229.832238 
L 418.565485 292.484024 
L 418.832974 270.561441 
L 419.100462 285.377659 
L 419.635439 330.811596 
L 419.902928 303.605424 
L 420.170416 330.811596 
L 420.437904 335.134532 
L 420.972881 283.751939 
L 421.24037 289.047844 
L 421.507858 311.512333 
L 421.775347 285.771772 
L 422.042835 315.342627 
L 422.310324 297.028649 
L 422.577812 270.093431 
L 422.8453 285.513135 
L 423.112789 280.438919 
L 423.380277 253.232748 
L 423.647766 248.528014 
L 423.915254 270.167327 
L 424.182743 265.844391 
L 424.450231 236.273536 
L 424.71772 241.569441 
L 424.985208 242.714834 
L 425.252696 252.579997 
L 425.520185 231.802807 
L 425.787673 236.125743 
L 426.055162 245.818481 
L 426.32265 272.753699 
L 426.857627 228.403575 
L 427.125116 223.329359 
L 427.392604 228.810005 
L 428.195069 272.051684 
L 428.462558 275.734185 
L 428.730046 281.510416 
L 428.997535 308.716588 
L 429.265023 282.040007 
L 429.532512 276.263776 
L 429.8 246.606709 
L 430.067488 246.606709 
L 430.334977 251.10207 
L 430.602465 273.566559 
L 430.869954 247.739786 
L 431.137442 274.416367 
L 431.672419 295.267453 
L 432.207396 286.892534 
L 432.474884 305.120299 
L 432.742373 289.700595 
L 433.27735 247.875263 
L 433.544838 249.242345 
L 433.812327 261.102709 
L 434.079815 278.246661 
L 434.347304 307.903728 
L 434.614792 286.178202 
L 434.88228 314.012493 
L 435.149769 309.689557 
L 435.417257 199.029777 
L 435.952234 190.112952 
L 436.219723 217.319123 
L 436.487211 190.112952 
L 436.7547 203.89462 
L 437.022188 258.196119 
L 437.289676 261.87862 
L 437.557165 267.654851 
L 437.824653 255.794488 
L 438.35963 292.939718 
L 438.627119 287.643813 
L 438.894607 260.708595 
L 439.162096 256.114705 
L 439.697072 209.978753 
L 439.964561 250.720272 
L 440.499538 278.456034 
L 440.767026 283.505618 
L 441.034515 310.711789 
L 441.569492 281.769054 
L 441.83698 285.439239 
L 442.104468 315.096306 
L 442.371957 293.37078 
L 442.639445 311.598546 
L 442.906934 315.281047 
L 443.174422 344.851902 
L 443.441911 355.566872 
L 443.709399 350.517288 
L 443.976888 376.257849 
L 444.511864 347.659963 
L 444.779353 321.919402 
L 445.046841 326.242338 
L 445.31433 300.415565 
L 445.581818 292.767293 
L 445.849307 295.304401 
L 446.116795 310.724105 
L 446.651772 320.847905 
L 446.91926 332.412683 
L 447.186749 327.363099 
L 447.721726 281.84295 
L 447.989214 287.212751 
L 448.256703 260.277533 
L 448.524191 274.059201 
L 448.79168 300.99442 
L 449.059168 308.642692 
L 449.326656 278.985625 
L 449.594145 275.315439 
L 450.129122 217.910294 
L 450.39661 212.614389 
L 450.664099 217.910294 
L 450.931587 207.195324 
L 451.199076 201.899419 
L 451.466564 200.027378 
L 451.734052 205.803609 
L 452.269029 188.290175 
L 452.536518 197.576483 
L 452.804006 192.502267 
L 453.338983 227.960197 
L 453.606471 257.617264 
L 453.87396 268.332235 
L 454.141448 297.903089 
L 454.676425 307.682039 
L 454.943914 278.024972 
L 455.211402 305.231144 
L 455.478891 310.527049 
L 456.013867 361.958906 
L 456.281356 359.421798 
L 456.548844 347.85702 
L 456.816333 320.022729 
L 457.35131 296.954753 
L 457.618798 270.278172 
L 457.886287 258.417808 
L 458.153775 254.550566 
L 458.421263 272.864544 
L 458.688752 261.299766 
L 458.95624 231.642698 
L 459.223729 281.227147 
L 459.758706 230.004663 
L 460.026194 249.464034 
L 460.293683 223.723473 
L 460.561171 250.658692 
L 460.828659 255.954596 
L 461.363636 239.020017 
L 461.631125 216.555528 
L 461.898613 258.060642 
L 462.43359 290.796724 
L 462.701079 278.93636 
L 462.968567 297.250338 
L 463.236055 277.790967 
L 463.503544 287.077274 
L 463.771032 289.614382 
L 464.038521 263.787609 
L 464.306009 271.435881 
L 464.573498 297.262654 
L 464.840986 307.977625 
L 465.108475 280.771453 
L 465.375963 275.401652 
L 465.91094 284.158369 
L 466.713405 337.548479 
L 466.980894 269.760897 
L 467.248382 275.056802 
L 467.515871 282.705074 
L 467.783359 298.124778 
L 468.050847 302.718668 
L 468.318336 320.946433 
L 468.585824 326.722664 
L 468.853313 356.379732 
L 469.120801 361.429315 
L 469.923267 274.367103 
L 470.190755 269.773213 
L 470.458243 274.367103 
L 470.725732 276.904211 
L 471.260709 248.306325 
L 471.528197 243.983388 
L 471.795686 269.810161 
L 472.063174 248.084636 
L 472.330663 269.810161 
L 472.598151 281.37494 
L 472.865639 276.005139 
L 473.133128 248.798967 
L 473.668105 269.379099 
L 473.935593 242.443881 
L 474.203082 237.739147 
L 474.47057 218.279776 
L 474.738059 227.566083 
L 475.005547 251.16365 
L 475.540524 221.284894 
L 475.808012 211.998586 
L 476.075501 206.949003 
L 476.342989 221.76522 
L 476.877966 267.28537 
L 477.145455 247.148615 
L 477.412943 217.491548 
L 477.680431 235.719314 
L 477.94792 230.645098 
L 478.215408 245.461315 
L 478.482897 240.411732 
L 478.750385 224.992027 
L 479.017874 221.321842 
L 479.285362 246.655973 
L 479.820339 258.898134 
L 480.087827 239.438763 
L 480.355316 249.303925 
L 480.622804 266.447878 
L 480.890293 261.853988 
L 481.157781 277.273693 
L 481.42527 303.100466 
L 481.692758 276.165247 
L 481.960247 278.702355 
L 482.227735 269.416048 
L 482.495223 243.675487 
L 483.0302 252.432204 
L 483.297689 242.567042 
L 483.565177 246.889978 
L 484.100154 237.862308 
L 484.635131 247.481149 
L 485.170108 300.156928 
L 485.705085 274.022253 
L 486.50755 333.139331 
L 486.775039 328.816394 
L 487.042527 344.236099 
L 487.310015 326.008333 
L 487.577504 344.236099 
L 487.844992 340.553597 
L 488.112481 367.759769 
L 488.379969 373.536 
L 489.449923 279.872381 
L 489.717411 284.46627 
L 489.9849 236.445961 
L 490.252388 266.016816 
L 490.519877 276.731786 
L 490.787365 274.194678 
L 491.054854 274.194678 
L 491.322342 303.851745 
L 491.589831 305.465149 
L 491.857319 302.509295 
L 492.124807 330.343585 
L 492.392296 341.908364 
L 492.659784 322.448992 
L 492.927273 318.778807 
L 493.194761 335.92276 
L 493.46225 331.599823 
L 493.729738 316.180119 
L 493.997227 290.439558 
L 494.264715 292.976666 
L 494.799692 269.551524 
L 495.06718 296.486743 
L 495.334669 311.906447 
L 495.869646 259.144455 
L 496.137134 278.603827 
L 496.404622 278.603827 
L 496.672111 292.681081 
L 496.939599 269.687001 
L 497.474576 277.951076 
L 497.742065 289.515854 
L 498.009553 293.83879 
L 498.54453 259.563201 
L 498.812018 271.423565 
L 499.079507 266.12766 
L 499.614484 216.567844 
L 500.149461 269.329835 
L 500.416949 265.647334 
L 500.684438 293.481625 
L 500.951926 276.337672 
L 501.486903 255.75754 
L 501.754391 201.61615 
L 502.289368 255.277213 
L 502.556857 229.536653 
L 502.824345 253.134219 
L 503.359322 202.835439 
L 504.161787 277.975708 
L 504.429276 252.148935 
L 504.696764 256.742824 
L 504.964253 286.399891 
L 505.49923 255.47427 
L 505.766718 283.308561 
L 506.034206 268.492343 
L 506.301695 280.057122 
L 506.569183 275.734185 
L 506.836672 289.515854 
L 507.639137 237.825359 
L 508.441602 260.302165 
L 508.709091 277.446117 
L 508.976579 267.580955 
L 509.244068 245.116466 
L 509.511556 245.116466 
L 510.046533 253.491385 
L 510.314022 227.750824 
L 510.58151 224.080639 
L 510.848998 226.617747 
L 511.116487 196.96068 
L 511.383975 192.36679 
L 511.651464 170.641264 
L 511.918952 225.595514 
L 512.721418 290.710512 
L 512.988906 264.03393 
L 513.256394 278.850148 
L 513.523883 229.598233 
L 513.791371 225.275297 
L 514.05886 229.598233 
L 514.326348 241.163011 
L 514.593837 268.098229 
L 515.128814 222.849033 
L 515.396302 230.497305 
L 515.66379 248.811283 
L 515.931279 248.811283 
L 516.466256 300.24314 
L 516.733744 310.108303 
L 517.001233 305.785366 
L 517.268721 294.220588 
L 517.53621 289.626698 
L 517.803698 266.029132 
L 518.071186 270.352068 
L 518.338675 264.982267 
L 518.606163 290.722828 
L 518.873652 295.772411 
L 519.14114 292.102226 
L 519.408629 264.896054 
L 519.676117 282.040007 
L 519.943606 263.726029 
L 520.211094 275.290807 
L 520.478582 266.0045 
L 520.746071 240.177726 
L 521.013559 226.999545 
L 521.281048 224.67181 
L 521.548536 248.269376 
L 521.816025 243.94644 
L 522.083513 216.11215 
L 522.351002 236.938603 
L 522.61849 246.902294 
L 522.885978 242.936523 
L 523.153467 248.010739 
L 523.420955 248.010739 
L 523.688444 259.575517 
L 523.955932 283.173084 
L 524.223421 255.338794 
L 524.490909 250.744904 
L 524.758398 223.218515 
L 525.025886 246.471232 
L 525.293374 250.141417 
L 525.560863 240.276255 
L 526.09584 264.957635 
L 526.363328 238.022416 
L 526.630817 237.492826 
L 526.898305 225.447721 
L 527.433282 233.711796 
L 527.70077 225.226032 
L 527.968259 199.485472 
L 528.235747 213.26714 
L 528.503236 207.072163 
L 528.770724 205.347915 
L 529.038213 207.700282 
L 529.57319 255.8807 
L 529.840678 250.806484 
L 530.108166 229.080958 
L 530.375655 234.155174 
L 530.643143 232.701879 
L 530.910632 264.058563 
L 531.17812 264.058563 
L 531.445609 278.665407 
L 531.713097 252.924846 
L 531.980586 252.924846 
L 532.248074 223.267779 
L 532.515562 222.23323 
L 532.783051 217.639341 
L 533.318028 228.970114 
L 533.585516 234.266019 
L 533.853005 234.266019 
L 534.120493 251.91493 
L 534.387982 230.79289 
L 534.65547 231.150056 
L 534.922958 255.301845 
L 535.190447 264.588153 
L 535.457935 255.301845 
L 535.725424 250.978909 
L 535.992912 257.97443 
L 536.260401 279.699956 
L 536.527889 291.264734 
L 536.795378 320.835589 
L 537.330354 288.271932 
L 537.597843 303.08815 
L 538.13282 293.124459 
L 538.400308 269.526892 
L 538.667797 268.677084 
L 538.935285 280.426603 
L 539.202773 199.559368 
L 539.73775 187.440367 
L 540.005239 191.270661 
L 540.272727 210.64382 
L 540.540216 209.510743 
L 540.807704 214.584958 
L 541.075193 209.991069 
L 541.342681 188.610393 
L 541.610169 199.744109 
L 541.877658 233.859589 
L 542.145146 253.31896 
L 542.412635 255.856068 
L 542.947612 214.671171 
L 543.2151 218.353672 
L 543.482589 215.816564 
L 543.750077 211.493628 
L 544.017565 219.1419 
L 544.285054 193.401339 
L 544.552542 197.995229 
L 544.820031 193.401339 
L 545.355008 241.286172 
L 545.622496 245.880061 
L 545.889985 242.209876 
L 546.157473 242.209876 
L 546.424961 267.28537 
L 546.69245 270.955555 
L 546.959938 296.782328 
L 547.227427 269.84711 
L 547.494915 274.170046 
L 547.762404 270.487545 
L 548.029892 282.052323 
L 548.297381 303.777849 
L 548.564869 298.408048 
L 548.832357 272.581274 
L 549.099846 272.581274 
L 549.367334 278.197397 
L 549.634823 277.951076 
L 549.902311 248.294009 
L 550.1698 244.143497 
L 550.437288 229.536653 
L 550.972265 281.658209 
L 551.507242 230.275616 
L 551.77473 230.275616 
L 552.042219 222.627344 
L 552.309707 232.172289 
L 552.577196 221.457319 
L 552.844684 221.457319 
L 553.112173 241.015218 
L 553.379661 236.913971 
L 553.647149 247.628941 
L 553.914638 231.063844 
L 554.182126 260.634698 
L 554.449615 230.977631 
L 554.984592 248.269376 
L 555.25208 257.555684 
L 555.519569 262.851589 
L 555.787057 235.017298 
L 556.054545 240.091514 
L 556.322034 214.350953 
L 556.857011 260.499222 
L 557.124499 241.039851 
L 557.926965 255.388058 
L 558.461941 213.562726 
L 558.72943 198.746508 
L 558.996918 171.81129 
L 559.264407 201.468357 
L 559.531895 210.914773 
L 560.066872 250.28921 
L 560.334361 219.326641 
L 560.601849 218.304408 
L 560.869337 228.16957 
L 561.136826 228.16957 
L 561.404314 202.429009 
L 561.939291 212.207959 
L 562.20678 241.865026 
L 562.474268 231.150056 
L 562.741757 236.445961 
L 563.009245 251.262178 
L 563.276733 277.088952 
L 563.544222 267.223789 
L 563.81171 262.519055 
L 564.079199 247.702838 
L 564.346687 247.702838 
L 564.614176 232.627983 
L 565.149153 281.153251 
L 565.416641 273.504979 
L 565.684129 270.967871 
L 566.219106 222.615028 
L 566.486595 227.910933 
L 567.021572 285.316078 
L 567.28906 258.639497 
L 567.556549 248.774335 
L 567.824037 227.048809 
L 568.091525 222.725873 
L 568.359014 222.725873 
L 568.626502 219.055687 
L 568.893991 219.055687 
L 569.161479 225.324561 
L 569.428968 225.324561 
L 569.696456 230.620466 
L 569.963945 257.826637 
L 570.231433 257.826637 
L 571.033898 171.392544 
L 571.568875 192.723956 
L 571.836364 188.130066 
L 572.103852 186.134865 
L 572.371341 215.70572 
L 572.638829 210.656136 
L 572.906317 215.250026 
L 573.173806 225.386141 
L 573.441294 229.709077 
L 573.708783 225.386141 
L 573.976271 225.386141 
L 574.24376 242.530094 
L 574.511248 237.936204 
L 574.778737 228.649896 
L 575.046225 240.51026 
L 575.313713 222.196282 
L 575.581202 233.268418 
L 575.84869 228.945482 
L 576.116179 199.288415 
L 576.651156 208.734831 
L 576.918644 196.874467 
L 577.186133 196.874467 
L 577.453621 201.948683 
L 577.721109 198.266182 
L 577.988598 174.668615 
L 578.256086 167.56225 
L 578.791063 196.886783 
L 579.058552 196.886783 
L 579.32604 192.182049 
L 579.593529 192.182049 
L 579.861017 196.504986 
L 580.128505 196.504986 
L 580.395994 198.598715 
L 580.663482 207.380065 
L 580.930971 207.380065 
L 581.465948 216.17373 
L 582.000924 216.17373 
L 582.268413 242.000503 
L 582.80339 231.556486 
L 583.070878 231.556486 
L 583.338367 236.852391 
L 583.605855 229.204119 
L 583.873344 233.674848 
L 584.140832 228.625264 
L 584.40832 228.625264 
L 584.675809 227.011861 
L 585.210786 268.529291 
L 585.478274 268.295286 
L 585.745763 273.591191 
L 586.815716 255.81912 
L 587.083205 258.356228 
L 587.350693 258.356228 
L 587.88567 265.671966 
L 588.153159 253.639178 
L 588.420647 253.639178 
L 588.688136 257.321679 
L 589.223112 201.837839 
L 589.490601 201.837839 
L 589.758089 206.160775 
L 590.025578 224.38854 
L 590.293066 224.38854 
L 590.560555 212.528177 
L 590.828043 212.528177 
L 591.095532 203.241869 
L 591.36302 177.501308 
L 591.630508 181.602556 
L 592.432974 181.602556 
L 592.967951 221.149417 
L 593.502928 221.149417 
L 594.037904 262.6299 
L 594.305393 258.03601 
L 594.572881 258.03601 
L 594.84037 230.829839 
L 595.107858 230.053927 
L 595.375347 219.930127 
L 595.642835 227.578399 
L 596.4453 227.578399 
L 596.712789 238.29337 
L 596.980277 238.29337 
L 597.247766 230.645098 
L 597.515254 216.863429 
L 597.782743 216.863429 
L 598.050231 194.793054 
L 598.31772 203.869988 
L 598.585208 199.276099 
L 598.852696 199.251466 
L 599.120185 214.671171 
L 599.387673 218.353672 
L 599.92265 218.353672 
L 600.190139 244.180445 
L 600.457627 244.180445 
L 600.725116 225.866467 
L 600.992604 225.866467 
L 601.260092 199.189886 
L 601.795069 199.189886 
L 602.062558 203.783776 
L 602.330046 180.186209 
L 602.597535 184.509145 
L 602.865023 180.186209 
L 603.132512 180.186209 
L 603.667488 189.583361 
L 603.934977 184.373669 
L 604.469954 184.373669 
L 604.737442 167.27898 
L 605.807396 167.27898 
L 606.074884 171.983715 
L 606.609861 171.983715 
L 606.87735 160.123351 
L 607.144838 160.123351 
L 607.412327 187.329523 
L 607.679815 199.189886 
L 608.214792 199.189886 
L 608.48228 193.413655 
L 608.749769 216.407735 
L 609.017257 216.407735 
L 609.284746 222.183966 
L 609.552234 222.183966 
L 609.819723 240.411732 
L 610.087211 240.411732 
L 610.3547 213.73515 
L 610.622188 213.73515 
L 610.889676 192.009625 
L 611.157165 186.935409 
L 611.424653 186.935409 
L 611.692142 192.009625 
L 611.95963 192.009625 
L 612.227119 193.881665 
L 612.494607 193.881665 
L 612.762096 213.168612 
L 613.029584 213.168612 
L 613.297072 183.511545 
L 613.564561 187.194046 
L 613.832049 187.194046 
L 614.099538 181.824245 
L 614.367026 183.511545 
L 614.634515 178.437329 
L 614.902003 197.009944 
L 615.704468 197.009944 
L 615.971957 199.017461 
L 616.506934 207.195324 
L 616.774422 205.828241 
L 617.041911 180.087681 
L 617.309399 181.417815 
L 617.576888 176.343599 
L 618.111864 176.343599 
L 618.379353 169.557451 
L 618.646841 169.557451 
L 618.91433 179.348717 
L 619.181818 179.348717 
L 619.449307 174.754828 
L 619.984284 174.754828 
L 620.251772 192.514583 
L 620.51926 197.219317 
L 620.786749 197.219317 
L 621.054237 181.799613 
L 621.321726 181.799613 
L 621.589214 177.562889 
L 621.856703 177.562889 
L 622.124191 173.892704 
L 622.659168 173.892704 
L 622.926656 172.488673 
L 623.194145 182.353835 
L 623.729122 182.353835 
L 623.99661 194.891582 
L 624.264099 194.645261 
L 624.531587 185.358953 
L 624.799076 185.358953 
L 625.066564 190.654858 
L 626.404006 190.654858 
L 626.671495 193.549132 
L 627.47396 193.549132 
L 627.741448 198.549451 
L 628.008937 193.17965 
L 628.276425 193.17965 
L 628.543914 190.642542 
L 630.148844 190.642542 
L 630.416333 212.368068 
L 630.683821 182.797213 
L 632.288752 182.797213 
L 632.55624 183.647021 
L 632.823729 183.647021 
L 633.091217 189.016822 
L 633.626194 179.016184 
L 633.893683 169.151021 
L 636.836055 169.151021 
L 637.103544 181.196126 
L 637.371032 181.196126 
L 637.638521 177.525941 
L 638.975963 177.525941 
L 639.243451 180.013784 
L 639.778428 180.013784 
L 640.045917 177.488992 
L 641.918336 177.488992 
L 642.185824 172.895103 
L 642.453313 176.811609 
L 644.325732 176.811609 
L 644.59322 149.605438 
L 644.860709 153.275623 
L 645.395686 153.275623 
L 645.663174 148.743314 
L 649.675501 148.743314 
L 649.942989 150.467562 
L 650.477966 150.467562 
L 650.745455 153.00467 
L 651.012943 153.00467 
L 651.280431 147.228438 
L 652.082897 147.228438 
L 652.350385 145.356398 
L 652.617874 145.356398 
L 652.885362 141.673896 
L 659.840062 141.673896 
L 660.10755 141.994114 
L 661.444992 141.994114 
L 661.712481 132.707806 
L 661.979969 132.707806 
L 662.247458 116.031864 
L 663.049923 116.031864 
L 663.317411 119.714365 
L 663.5849 119.714365 
L 663.852388 105.932697 
L 688.728814 105.932697 
L 688.996302 101.831449 
L 699.160863 101.831449 
L 699.428351 93.210209 
L 717.350077 93.210209 
L 717.617565 88.887273 
L 871.690909 88.887273 
L 871.690909 88.887273 
" style="fill:none;stroke:#8dd3c7;stroke-linecap:square;stroke-width:1.5;"/>
   </g>
   <g id="line2d_15">
    <path clip-path="url(#p4a3a29dbb0)" d="M 161.509091 161.453485 
L 355.705701 161.453485 
L 355.97319 157.795616 
L 367.207704 157.795616 
L 367.475193 134.308894 
L 367.742681 125.022586 
L 661.979969 125.022586 
L 662.247458 116.031864 
L 663.5849 116.031864 
L 663.852388 105.932697 
L 688.728814 105.932697 
L 688.996302 101.831449 
L 699.160863 101.831449 
L 699.428351 93.210209 
L 717.350077 93.210209 
L 717.617565 88.887273 
L 871.690909 88.887273 
L 871.690909 88.887273 
" style="fill:none;stroke:#feffb3;stroke-linecap:square;stroke-width:1.5;"/>
   </g>
   <g id="line2d_16">
    <path clip-path="url(#p4a3a29dbb0)" d="M 161.509091 258.287258 
L 163.38151 258.287258 
L 163.648998 272.349288 
L 165.521418 272.349288 
L 165.788906 285.536147 
L 167.661325 285.536147 
L 167.928814 297.902305 
L 169.801233 297.902305 
L 170.068721 309.498837 
L 171.94114 309.498837 
L 172.208629 320.373643 
L 174.081048 320.373643 
L 174.348536 330.57164 
L 176.220955 330.57164 
L 176.488444 340.134951 
L 178.360863 340.134951 
L 178.628351 349.103076 
L 180.50077 349.103076 
L 180.768259 357.513058 
L 182.640678 357.513058 
L 182.908166 365.399632 
L 184.780586 365.399632 
L 185.048074 372.795374 
L 186.920493 372.795374 
L 187.187982 379.730833 
L 189.060401 379.730833 
L 189.327889 386.234653 
L 191.200308 386.234653 
L 191.467797 392.333699 
L 193.340216 392.333699 
L 193.607704 398.053163 
L 195.480123 398.053163 
L 195.747612 403.416667 
L 197.620031 403.416667 
L 197.887519 408.446367 
L 199.759938 408.446367 
L 200.027427 413.163036 
L 201.899846 413.163036 
L 202.167334 417.586157 
L 204.039753 417.586157 
L 204.307242 421.733999 
L 206.179661 421.733999 
L 206.447149 425.623694 
L 208.319569 425.623694 
L 208.587057 429.271308 
L 210.459476 429.271308 
L 210.726965 432.691909 
L 212.599384 432.691909 
L 212.866872 435.899623 
L 214.739291 435.899623 
L 215.00678 438.907701 
L 216.879199 438.907701 
L 217.146687 441.728567 
L 219.019106 441.728567 
L 219.286595 444.373872 
L 221.159014 444.373872 
L 221.426502 446.854543 
L 223.298921 446.854543 
L 223.56641 449.180826 
L 225.438829 449.180826 
L 225.706317 451.36233 
L 227.578737 451.36233 
L 227.846225 453.408065 
L 229.718644 453.408065 
L 229.986133 455.32648 
L 231.858552 455.32648 
L 232.12604 457.125501 
L 233.998459 457.125501 
L 234.265948 458.812557 
L 236.138367 458.812557 
L 236.405855 460.394616 
L 238.278274 460.394616 
L 238.545763 461.878214 
L 240.418182 461.878214 
L 240.68567 463.269478 
L 242.558089 463.269478 
L 242.825578 464.574155 
L 244.697997 464.574155 
L 244.965485 465.797634 
L 246.837904 465.797634 
L 247.105393 466.944967 
L 248.977812 466.944967 
L 249.2453 468.020895 
L 251.11772 468.020895 
L 251.385208 469.029861 
L 253.257627 469.029861 
L 253.525116 469.976032 
L 255.397535 469.976032 
L 255.665023 470.863318 
L 257.537442 470.863318 
L 257.804931 471.695381 
L 259.67735 471.695381 
L 259.944838 472.47566 
L 261.817257 472.47566 
L 262.084746 473.207378 
L 263.957165 473.207378 
L 264.224653 473.893556 
L 266.097072 473.893556 
L 266.364561 474.537028 
L 268.23698 474.537028 
L 268.504468 475.140454 
L 270.376888 475.140454 
L 270.644376 475.706324 
L 272.516795 475.706324 
L 272.784284 476.236977 
L 274.656703 476.236977 
L 274.924191 476.734603 
L 276.79661 476.734603 
L 277.064099 477.201259 
L 278.936518 477.201259 
L 279.204006 477.638873 
L 281.076425 477.638873 
L 281.343914 478.04925 
L 283.216333 478.04925 
L 283.483821 478.434087 
L 285.35624 478.434087 
L 285.623729 478.794974 
L 287.496148 478.794974 
L 287.763636 479.1334 
L 289.636055 479.1334 
L 289.903544 479.450764 
L 291.775963 479.450764 
L 292.043451 479.748376 
L 293.915871 479.748376 
L 294.183359 480.027466 
L 296.055778 480.027466 
L 296.323267 480.289186 
L 298.195686 480.289186 
L 298.463174 480.534618 
L 300.335593 480.534618 
L 300.603082 480.764775 
L 302.475501 480.764775 
L 302.742989 480.980608 
L 304.615408 480.980608 
L 304.882897 481.183008 
L 306.755316 481.183008 
L 307.022804 481.372811 
L 308.895223 481.372811 
L 309.162712 481.550802 
L 311.035131 481.550802 
L 311.302619 481.717716 
L 313.175039 481.717716 
L 313.442527 481.874241 
L 315.314946 481.874241 
L 315.582435 482.021024 
L 317.454854 482.021024 
L 317.722342 482.158673 
L 319.594761 482.158673 
L 319.86225 482.287755 
L 321.734669 482.287755 
L 322.269646 482.408803 
L 323.874576 482.408803 
L 324.409553 482.522317 
L 328.154391 482.628767 
L 328.689368 482.728592 
L 332.434206 482.822204 
L 332.969183 482.909989 
L 336.714022 482.992312 
L 337.248998 483.069511 
L 340.993837 483.141905 
L 341.528814 483.209794 
L 345.273652 483.273458 
L 345.808629 483.333159 
L 351.693374 483.441647 
L 352.49584 483.490881 
L 358.113097 483.580347 
L 358.915562 483.620949 
L 366.672727 483.728212 
L 367.742681 483.759611 
L 377.372265 483.866845 
L 378.709707 483.889616 
L 392.351618 483.999384 
L 394.759014 484.027525 
L 422.310324 484.13782 
L 427.927581 484.15446 
L 871.690909 484.232727 
L 871.690909 484.232727 
" style="fill:none;stroke:#bfbbd9;stroke-linecap:square;stroke-width:1.5;"/>
   </g>
   <g id="patch_3">
    <path d="M 126 504 
L 126 69.12 
" style="fill:none;stroke:#ffffff;stroke-linecap:square;stroke-linejoin:miter;stroke-width:0.8;"/>
   </g>
   <g id="patch_4">
    <path d="M 907.2 504 
L 907.2 69.12 
" style="fill:none;stroke:#ffffff;stroke-linecap:square;stroke-linejoin:miter;stroke-width:0.8;"/>
   </g>
   <g id="patch_5">
    <path d="M 126 504 
L 907.2 504 
" style="fill:none;stroke:#ffffff;stroke-linecap:square;stroke-linejoin:miter;stroke-width:0.8;"/>
   </g>
   <g id="patch_6">
    <path d="M 126 69.12 
L 907.2 69.12 
" style="fill:none;stroke:#ffffff;stroke-linecap:square;stroke-linejoin:miter;stroke-width:0.8;"/>
   </g>
   <g id="text_15">
    <!-- instance 8 with error 0.016664624433280206 -->
    <g style="fill:#ffffff;" transform="translate(378.046875 63.12)scale(0.12 -0.12)">
     <defs>
      <path d="M 2834 3397 
L 2834 2853 
Q 2591 2978 2328 3040 
Q 2066 3103 1784 3103 
Q 1356 3103 1142 2972 
Q 928 2841 928 2578 
Q 928 2378 1081 2264 
Q 1234 2150 1697 2047 
L 1894 2003 
Q 2506 1872 2764 1633 
Q 3022 1394 3022 966 
Q 3022 478 2636 193 
Q 2250 -91 1575 -91 
Q 1294 -91 989 -36 
Q 684 19 347 128 
L 347 722 
Q 666 556 975 473 
Q 1284 391 1588 391 
Q 1994 391 2212 530 
Q 2431 669 2431 922 
Q 2431 1156 2273 1281 
Q 2116 1406 1581 1522 
L 1381 1569 
Q 847 1681 609 1914 
Q 372 2147 372 2553 
Q 372 3047 722 3315 
Q 1072 3584 1716 3584 
Q 2034 3584 2315 3537 
Q 2597 3491 2834 3397 
z
" id="DejaVuSans-73" transform="scale(0.015625)"/>
      <path d="M 3122 3366 
L 3122 2828 
Q 2878 2963 2633 3030 
Q 2388 3097 2138 3097 
Q 1578 3097 1268 2742 
Q 959 2388 959 1747 
Q 959 1106 1268 751 
Q 1578 397 2138 397 
Q 2388 397 2633 464 
Q 2878 531 3122 666 
L 3122 134 
Q 2881 22 2623 -34 
Q 2366 -91 2075 -91 
Q 1284 -91 818 406 
Q 353 903 353 1747 
Q 353 2603 823 3093 
Q 1294 3584 2113 3584 
Q 2378 3584 2631 3529 
Q 2884 3475 3122 3366 
z
" id="DejaVuSans-63" transform="scale(0.015625)"/>
      <path id="DejaVuSans-20" transform="scale(0.015625)"/>
      <path d="M 2034 2216 
Q 1584 2216 1326 1975 
Q 1069 1734 1069 1313 
Q 1069 891 1326 650 
Q 1584 409 2034 409 
Q 2484 409 2743 651 
Q 3003 894 3003 1313 
Q 3003 1734 2745 1975 
Q 2488 2216 2034 2216 
z
M 1403 2484 
Q 997 2584 770 2862 
Q 544 3141 544 3541 
Q 544 4100 942 4425 
Q 1341 4750 2034 4750 
Q 2731 4750 3128 4425 
Q 3525 4100 3525 3541 
Q 3525 3141 3298 2862 
Q 3072 2584 2669 2484 
Q 3125 2378 3379 2068 
Q 3634 1759 3634 1313 
Q 3634 634 3220 271 
Q 2806 -91 2034 -91 
Q 1263 -91 848 271 
Q 434 634 434 1313 
Q 434 1759 690 2068 
Q 947 2378 1403 2484 
z
M 1172 3481 
Q 1172 3119 1398 2916 
Q 1625 2713 2034 2713 
Q 2441 2713 2670 2916 
Q 2900 3119 2900 3481 
Q 2900 3844 2670 4047 
Q 2441 4250 2034 4250 
Q 1625 4250 1398 4047 
Q 1172 3844 1172 3481 
z
" id="DejaVuSans-38" transform="scale(0.015625)"/>
      <path d="M 269 3500 
L 844 3500 
L 1563 769 
L 2278 3500 
L 2956 3500 
L 3675 769 
L 4391 3500 
L 4966 3500 
L 4050 0 
L 3372 0 
L 2619 2869 
L 1863 0 
L 1184 0 
L 269 3500 
z
" id="DejaVuSans-77" transform="scale(0.015625)"/>
      <path d="M 3513 2113 
L 3513 0 
L 2938 0 
L 2938 2094 
Q 2938 2591 2744 2837 
Q 2550 3084 2163 3084 
Q 1697 3084 1428 2787 
Q 1159 2491 1159 1978 
L 1159 0 
L 581 0 
L 581 4863 
L 1159 4863 
L 1159 2956 
Q 1366 3272 1645 3428 
Q 1925 3584 2291 3584 
Q 2894 3584 3203 3211 
Q 3513 2838 3513 2113 
z
" id="DejaVuSans-68" transform="scale(0.015625)"/>
      <path d="M 684 794 
L 1344 794 
L 1344 0 
L 684 0 
L 684 794 
z
" id="DejaVuSans-2e" transform="scale(0.015625)"/>
      <path d="M 2113 2584 
Q 1688 2584 1439 2293 
Q 1191 2003 1191 1497 
Q 1191 994 1439 701 
Q 1688 409 2113 409 
Q 2538 409 2786 701 
Q 3034 994 3034 1497 
Q 3034 2003 2786 2293 
Q 2538 2584 2113 2584 
z
M 3366 4563 
L 3366 3988 
Q 3128 4100 2886 4159 
Q 2644 4219 2406 4219 
Q 1781 4219 1451 3797 
Q 1122 3375 1075 2522 
Q 1259 2794 1537 2939 
Q 1816 3084 2150 3084 
Q 2853 3084 3261 2657 
Q 3669 2231 3669 1497 
Q 3669 778 3244 343 
Q 2819 -91 2113 -91 
Q 1303 -91 875 529 
Q 447 1150 447 2328 
Q 447 3434 972 4092 
Q 1497 4750 2381 4750 
Q 2619 4750 2861 4703 
Q 3103 4656 3366 4563 
z
" id="DejaVuSans-36" transform="scale(0.015625)"/>
      <path d="M 2419 4116 
L 825 1625 
L 2419 1625 
L 2419 4116 
z
M 2253 4666 
L 3047 4666 
L 3047 1625 
L 3713 1625 
L 3713 1100 
L 3047 1100 
L 3047 0 
L 2419 0 
L 2419 1100 
L 313 1100 
L 313 1709 
L 2253 4666 
z
" id="DejaVuSans-34" transform="scale(0.015625)"/>
     </defs>
     <use xlink:href="#DejaVuSans-69"/>
     <use x="27.783203" xlink:href="#DejaVuSans-6e"/>
     <use x="91.162109" xlink:href="#DejaVuSans-73"/>
     <use x="143.261719" xlink:href="#DejaVuSans-74"/>
     <use x="182.470703" xlink:href="#DejaVuSans-61"/>
     <use x="243.75" xlink:href="#DejaVuSans-6e"/>
     <use x="307.128906" xlink:href="#DejaVuSans-63"/>
     <use x="362.109375" xlink:href="#DejaVuSans-65"/>
     <use x="423.632812" xlink:href="#DejaVuSans-20"/>
     <use x="455.419922" xlink:href="#DejaVuSans-38"/>
     <use x="519.042969" xlink:href="#DejaVuSans-20"/>
     <use x="550.830078" xlink:href="#DejaVuSans-77"/>
     <use x="632.617188" xlink:href="#DejaVuSans-69"/>
     <use x="660.400391" xlink:href="#DejaVuSans-74"/>
     <use x="699.609375" xlink:href="#DejaVuSans-68"/>
     <use x="762.988281" xlink:href="#DejaVuSans-20"/>
     <use x="794.775391" xlink:href="#DejaVuSans-65"/>
     <use x="856.298828" xlink:href="#DejaVuSans-72"/>
     <use x="895.662109" xlink:href="#DejaVuSans-72"/>
     <use x="934.525391" xlink:href="#DejaVuSans-6f"/>
     <use x="995.707031" xlink:href="#DejaVuSans-72"/>
     <use x="1036.820312" xlink:href="#DejaVuSans-20"/>
     <use x="1068.607422" xlink:href="#DejaVuSans-30"/>
     <use x="1132.230469" xlink:href="#DejaVuSans-2e"/>
     <use x="1164.017578" xlink:href="#DejaVuSans-30"/>
     <use x="1227.640625" xlink:href="#DejaVuSans-31"/>
     <use x="1291.263672" xlink:href="#DejaVuSans-36"/>
     <use x="1354.886719" xlink:href="#DejaVuSans-36"/>
     <use x="1418.509766" xlink:href="#DejaVuSans-36"/>
     <use x="1482.132812" xlink:href="#DejaVuSans-34"/>
     <use x="1545.755859" xlink:href="#DejaVuSans-36"/>
     <use x="1609.378906" xlink:href="#DejaVuSans-32"/>
     <use x="1673.001953" xlink:href="#DejaVuSans-34"/>
     <use x="1736.625" xlink:href="#DejaVuSans-34"/>
     <use x="1800.248047" xlink:href="#DejaVuSans-33"/>
     <use x="1863.871094" xlink:href="#DejaVuSans-33"/>
     <use x="1927.494141" xlink:href="#DejaVuSans-32"/>
     <use x="1991.117188" xlink:href="#DejaVuSans-38"/>
     <use x="2054.740234" xlink:href="#DejaVuSans-30"/>
     <use x="2118.363281" xlink:href="#DejaVuSans-32"/>
     <use x="2181.986328" xlink:href="#DejaVuSans-30"/>
     <use x="2245.609375" xlink:href="#DejaVuSans-36"/>
    </g>
   </g>
   <g id="legend_1">
    <g id="patch_7">
     <path d="M 805.348438 499 
L 900.2 499 
Q 902.2 499 902.2 497 
L 902.2 453.965625 
Q 902.2 451.965625 900.2 451.965625 
L 805.348438 451.965625 
Q 803.348438 451.965625 803.348438 453.965625 
L 803.348438 497 
Q 803.348438 499 805.348438 499 
z
" style="opacity:0.8;stroke:#cccccc;stroke-linejoin:miter;"/>
    </g>
    <g id="line2d_17">
     <path d="M 807.348438 460.064062 
L 827.348438 460.064062 
" style="fill:none;stroke:#8dd3c7;stroke-linecap:square;stroke-width:1.5;"/>
    </g>
    <g id="line2d_18"/>
    <g id="text_16">
     <!-- cost -->
     <g style="fill:#ffffff;" transform="translate(835.348438 463.564062)scale(0.1 -0.1)">
      <use xlink:href="#DejaVuSans-63"/>
      <use x="54.980469" xlink:href="#DejaVuSans-6f"/>
      <use x="116.162109" xlink:href="#DejaVuSans-73"/>
      <use x="168.261719" xlink:href="#DejaVuSans-74"/>
     </g>
    </g>
    <g id="line2d_19">
     <path d="M 807.348438 474.742188 
L 827.348438 474.742188 
" style="fill:none;stroke:#feffb3;stroke-linecap:square;stroke-width:1.5;"/>
    </g>
    <g id="line2d_20"/>
    <g id="text_17">
     <!-- best cost -->
     <g style="fill:#ffffff;" transform="translate(835.348438 478.242188)scale(0.1 -0.1)">
      <defs>
       <path d="M 3116 1747 
Q 3116 2381 2855 2742 
Q 2594 3103 2138 3103 
Q 1681 3103 1420 2742 
Q 1159 2381 1159 1747 
Q 1159 1113 1420 752 
Q 1681 391 2138 391 
Q 2594 391 2855 752 
Q 3116 1113 3116 1747 
z
M 1159 2969 
Q 1341 3281 1617 3432 
Q 1894 3584 2278 3584 
Q 2916 3584 3314 3078 
Q 3713 2572 3713 1747 
Q 3713 922 3314 415 
Q 2916 -91 2278 -91 
Q 1894 -91 1617 61 
Q 1341 213 1159 525 
L 1159 0 
L 581 0 
L 581 4863 
L 1159 4863 
L 1159 2969 
z
" id="DejaVuSans-62" transform="scale(0.015625)"/>
      </defs>
      <use xlink:href="#DejaVuSans-62"/>
      <use x="63.476562" xlink:href="#DejaVuSans-65"/>
      <use x="125" xlink:href="#DejaVuSans-73"/>
      <use x="177.099609" xlink:href="#DejaVuSans-74"/>
      <use x="216.308594" xlink:href="#DejaVuSans-20"/>
      <use x="248.095703" xlink:href="#DejaVuSans-63"/>
      <use x="303.076172" xlink:href="#DejaVuSans-6f"/>
      <use x="364.257812" xlink:href="#DejaVuSans-73"/>
      <use x="416.357422" xlink:href="#DejaVuSans-74"/>
     </g>
    </g>
    <g id="line2d_21">
     <path d="M 807.348438 489.420313 
L 827.348438 489.420313 
" style="fill:none;stroke:#bfbbd9;stroke-linecap:square;stroke-width:1.5;"/>
    </g>
    <g id="line2d_22"/>
    <g id="text_18">
     <!-- temperature -->
     <g style="fill:#ffffff;" transform="translate(835.348438 492.920313)scale(0.1 -0.1)">
      <defs>
       <path d="M 3328 2828 
Q 3544 3216 3844 3400 
Q 4144 3584 4550 3584 
Q 5097 3584 5394 3201 
Q 5691 2819 5691 2113 
L 5691 0 
L 5113 0 
L 5113 2094 
Q 5113 2597 4934 2840 
Q 4756 3084 4391 3084 
Q 3944 3084 3684 2787 
Q 3425 2491 3425 1978 
L 3425 0 
L 2847 0 
L 2847 2094 
Q 2847 2600 2669 2842 
Q 2491 3084 2119 3084 
Q 1678 3084 1418 2786 
Q 1159 2488 1159 1978 
L 1159 0 
L 581 0 
L 581 3500 
L 1159 3500 
L 1159 2956 
Q 1356 3278 1631 3431 
Q 1906 3584 2284 3584 
Q 2666 3584 2933 3390 
Q 3200 3197 3328 2828 
z
" id="DejaVuSans-6d" transform="scale(0.015625)"/>
       <path d="M 1159 525 
L 1159 -1331 
L 581 -1331 
L 581 3500 
L 1159 3500 
L 1159 2969 
Q 1341 3281 1617 3432 
Q 1894 3584 2278 3584 
Q 2916 3584 3314 3078 
Q 3713 2572 3713 1747 
Q 3713 922 3314 415 
Q 2916 -91 2278 -91 
Q 1894 -91 1617 61 
Q 1341 213 1159 525 
z
M 3116 1747 
Q 3116 2381 2855 2742 
Q 2594 3103 2138 3103 
Q 1681 3103 1420 2742 
Q 1159 2381 1159 1747 
Q 1159 1113 1420 752 
Q 1681 391 2138 391 
Q 2594 391 2855 752 
Q 3116 1113 3116 1747 
z
" id="DejaVuSans-70" transform="scale(0.015625)"/>
       <path d="M 544 1381 
L 544 3500 
L 1119 3500 
L 1119 1403 
Q 1119 906 1312 657 
Q 1506 409 1894 409 
Q 2359 409 2629 706 
Q 2900 1003 2900 1516 
L 2900 3500 
L 3475 3500 
L 3475 0 
L 2900 0 
L 2900 538 
Q 2691 219 2414 64 
Q 2138 -91 1772 -91 
Q 1169 -91 856 284 
Q 544 659 544 1381 
z
M 1991 3584 
L 1991 3584 
z
" id="DejaVuSans-75" transform="scale(0.015625)"/>
      </defs>
      <use xlink:href="#DejaVuSans-74"/>
      <use x="39.208984" xlink:href="#DejaVuSans-65"/>
      <use x="100.732422" xlink:href="#DejaVuSans-6d"/>
      <use x="198.144531" xlink:href="#DejaVuSans-70"/>
      <use x="261.621094" xlink:href="#DejaVuSans-65"/>
      <use x="323.144531" xlink:href="#DejaVuSans-72"/>
      <use x="364.257812" xlink:href="#DejaVuSans-61"/>
      <use x="425.537109" xlink:href="#DejaVuSans-74"/>
      <use x="464.746094" xlink:href="#DejaVuSans-75"/>
      <use x="528.125" xlink:href="#DejaVuSans-72"/>
      <use x="566.988281" xlink:href="#DejaVuSans-65"/>
     </g>
    </g>
   </g>
  </g>
 </g>
 <defs>
  <clipPath id="p4a3a29dbb0">
   <rect height="434.88" width="781.2" x="126" y="69.12"/>
  </clipPath>
 </defs>
</svg>
