<?xml version="1.0" encoding="utf-8" standalone="no"?>
<!DOCTYPE svg PUBLIC "-//W3C//DTD SVG 1.1//EN"
  "http://www.w3.org/Graphics/SVG/1.1/DTD/svg11.dtd">
<svg height="576pt" version="1.1" viewBox="0 0 1008 576" width="1008pt" xmlns="http://www.w3.org/2000/svg" xmlns:xlink="http://www.w3.org/1999/xlink">
 <metadata>
  <rdf:RDF xmlns:cc="http://creativecommons.org/ns#" xmlns:dc="http://purl.org/dc/elements/1.1/" xmlns:rdf="http://www.w3.org/1999/02/22-rdf-syntax-ns#">
   <cc:Work>
    <dc:type rdf:resource="http://purl.org/dc/dcmitype/StillImage"/>
    <dc:date>2022-01-07T00:38:57.173727</dc:date>
    <dc:format>image/svg+xml</dc:format>
    <dc:creator>
     <cc:Agent>
      <dc:title>Matplotlib v3.4.3, https://matplotlib.org/</dc:title>
     </cc:Agent>
    </dc:creator>
   </cc:Work>
  </rdf:RDF>
 </metadata>
 <defs>
  <style type="text/css">*{stroke-linecap:butt;stroke-linejoin:round;}</style>
 </defs>
 <g id="figure_1">
  <g id="patch_1">
   <path d="M 0 576 
L 1008 576 
L 1008 0 
L 0 0 
z
"/>
  </g>
  <g id="axes_1">
   <g id="patch_2">
    <path d="M 126 504 
L 907.2 504 
L 907.2 69.12 
L 126 69.12 
z
"/>
   </g>
   <g id="matplotlib.axis_1">
    <g id="xtick_1">
     <g id="line2d_1">
      <defs>
       <path d="M 0 0 
L 0 3.5 
" id="m7d4c0ab797" style="stroke:#ffffff;stroke-width:0.8;"/>
      </defs>
      <g>
       <use style="fill:#ffffff;stroke:#ffffff;stroke-width:0.8;" x="161.509091" xlink:href="#m7d4c0ab797" y="504"/>
      </g>
     </g>
     <g id="text_1">
      <!-- 0 -->
      <g style="fill:#ffffff;" transform="translate(158.327841 518.598438)scale(0.1 -0.1)">
       <defs>
        <path d="M 2034 4250 
Q 1547 4250 1301 3770 
Q 1056 3291 1056 2328 
Q 1056 1369 1301 889 
Q 1547 409 2034 409 
Q 2525 409 2770 889 
Q 3016 1369 3016 2328 
Q 3016 3291 2770 3770 
Q 2525 4250 2034 4250 
z
M 2034 4750 
Q 2819 4750 3233 4129 
Q 3647 3509 3647 2328 
Q 3647 1150 3233 529 
Q 2819 -91 2034 -91 
Q 1250 -91 836 529 
Q 422 1150 422 2328 
Q 422 3509 836 4129 
Q 1250 4750 2034 4750 
z
" id="DejaVuSans-30" transform="scale(0.015625)"/>
       </defs>
       <use xlink:href="#DejaVuSans-30"/>
      </g>
     </g>
    </g>
    <g id="xtick_2">
     <g id="line2d_2">
      <g>
       <use style="fill:#ffffff;stroke:#ffffff;stroke-width:0.8;" x="279.912195" xlink:href="#m7d4c0ab797" y="504"/>
      </g>
     </g>
     <g id="text_2">
      <!-- 500 -->
      <g style="fill:#ffffff;" transform="translate(270.368445 518.598438)scale(0.1 -0.1)">
       <defs>
        <path d="M 691 4666 
L 3169 4666 
L 3169 4134 
L 1269 4134 
L 1269 2991 
Q 1406 3038 1543 3061 
Q 1681 3084 1819 3084 
Q 2600 3084 3056 2656 
Q 3513 2228 3513 1497 
Q 3513 744 3044 326 
Q 2575 -91 1722 -91 
Q 1428 -91 1123 -41 
Q 819 9 494 109 
L 494 744 
Q 775 591 1075 516 
Q 1375 441 1709 441 
Q 2250 441 2565 725 
Q 2881 1009 2881 1497 
Q 2881 1984 2565 2268 
Q 2250 2553 1709 2553 
Q 1456 2553 1204 2497 
Q 953 2441 691 2322 
L 691 4666 
z
" id="DejaVuSans-35" transform="scale(0.015625)"/>
       </defs>
       <use xlink:href="#DejaVuSans-35"/>
       <use x="63.623047" xlink:href="#DejaVuSans-30"/>
       <use x="127.246094" xlink:href="#DejaVuSans-30"/>
      </g>
     </g>
    </g>
    <g id="xtick_3">
     <g id="line2d_3">
      <g>
       <use style="fill:#ffffff;stroke:#ffffff;stroke-width:0.8;" x="398.315299" xlink:href="#m7d4c0ab797" y="504"/>
      </g>
     </g>
     <g id="text_3">
      <!-- 1000 -->
      <g style="fill:#ffffff;" transform="translate(385.590299 518.598438)scale(0.1 -0.1)">
       <defs>
        <path d="M 794 531 
L 1825 531 
L 1825 4091 
L 703 3866 
L 703 4441 
L 1819 4666 
L 2450 4666 
L 2450 531 
L 3481 531 
L 3481 0 
L 794 0 
L 794 531 
z
" id="DejaVuSans-31" transform="scale(0.015625)"/>
       </defs>
       <use xlink:href="#DejaVuSans-31"/>
       <use x="63.623047" xlink:href="#DejaVuSans-30"/>
       <use x="127.246094" xlink:href="#DejaVuSans-30"/>
       <use x="190.869141" xlink:href="#DejaVuSans-30"/>
      </g>
     </g>
    </g>
    <g id="xtick_4">
     <g id="line2d_4">
      <g>
       <use style="fill:#ffffff;stroke:#ffffff;stroke-width:0.8;" x="516.718403" xlink:href="#m7d4c0ab797" y="504"/>
      </g>
     </g>
     <g id="text_4">
      <!-- 1500 -->
      <g style="fill:#ffffff;" transform="translate(503.993403 518.598438)scale(0.1 -0.1)">
       <use xlink:href="#DejaVuSans-31"/>
       <use x="63.623047" xlink:href="#DejaVuSans-35"/>
       <use x="127.246094" xlink:href="#DejaVuSans-30"/>
       <use x="190.869141" xlink:href="#DejaVuSans-30"/>
      </g>
     </g>
    </g>
    <g id="xtick_5">
     <g id="line2d_5">
      <g>
       <use style="fill:#ffffff;stroke:#ffffff;stroke-width:0.8;" x="635.121507" xlink:href="#m7d4c0ab797" y="504"/>
      </g>
     </g>
     <g id="text_5">
      <!-- 2000 -->
      <g style="fill:#ffffff;" transform="translate(622.396507 518.598438)scale(0.1 -0.1)">
       <defs>
        <path d="M 1228 531 
L 3431 531 
L 3431 0 
L 469 0 
L 469 531 
Q 828 903 1448 1529 
Q 2069 2156 2228 2338 
Q 2531 2678 2651 2914 
Q 2772 3150 2772 3378 
Q 2772 3750 2511 3984 
Q 2250 4219 1831 4219 
Q 1534 4219 1204 4116 
Q 875 4013 500 3803 
L 500 4441 
Q 881 4594 1212 4672 
Q 1544 4750 1819 4750 
Q 2544 4750 2975 4387 
Q 3406 4025 3406 3419 
Q 3406 3131 3298 2873 
Q 3191 2616 2906 2266 
Q 2828 2175 2409 1742 
Q 1991 1309 1228 531 
z
" id="DejaVuSans-32" transform="scale(0.015625)"/>
       </defs>
       <use xlink:href="#DejaVuSans-32"/>
       <use x="63.623047" xlink:href="#DejaVuSans-30"/>
       <use x="127.246094" xlink:href="#DejaVuSans-30"/>
       <use x="190.869141" xlink:href="#DejaVuSans-30"/>
      </g>
     </g>
    </g>
    <g id="xtick_6">
     <g id="line2d_6">
      <g>
       <use style="fill:#ffffff;stroke:#ffffff;stroke-width:0.8;" x="753.524611" xlink:href="#m7d4c0ab797" y="504"/>
      </g>
     </g>
     <g id="text_6">
      <!-- 2500 -->
      <g style="fill:#ffffff;" transform="translate(740.799611 518.598438)scale(0.1 -0.1)">
       <use xlink:href="#DejaVuSans-32"/>
       <use x="63.623047" xlink:href="#DejaVuSans-35"/>
       <use x="127.246094" xlink:href="#DejaVuSans-30"/>
       <use x="190.869141" xlink:href="#DejaVuSans-30"/>
      </g>
     </g>
    </g>
    <g id="xtick_7">
     <g id="line2d_7">
      <g>
       <use style="fill:#ffffff;stroke:#ffffff;stroke-width:0.8;" x="871.927715" xlink:href="#m7d4c0ab797" y="504"/>
      </g>
     </g>
     <g id="text_7">
      <!-- 3000 -->
      <g style="fill:#ffffff;" transform="translate(859.202715 518.598438)scale(0.1 -0.1)">
       <defs>
        <path d="M 2597 2516 
Q 3050 2419 3304 2112 
Q 3559 1806 3559 1356 
Q 3559 666 3084 287 
Q 2609 -91 1734 -91 
Q 1441 -91 1130 -33 
Q 819 25 488 141 
L 488 750 
Q 750 597 1062 519 
Q 1375 441 1716 441 
Q 2309 441 2620 675 
Q 2931 909 2931 1356 
Q 2931 1769 2642 2001 
Q 2353 2234 1838 2234 
L 1294 2234 
L 1294 2753 
L 1863 2753 
Q 2328 2753 2575 2939 
Q 2822 3125 2822 3475 
Q 2822 3834 2567 4026 
Q 2313 4219 1838 4219 
Q 1578 4219 1281 4162 
Q 984 4106 628 3988 
L 628 4550 
Q 988 4650 1302 4700 
Q 1616 4750 1894 4750 
Q 2613 4750 3031 4423 
Q 3450 4097 3450 3541 
Q 3450 3153 3228 2886 
Q 3006 2619 2597 2516 
z
" id="DejaVuSans-33" transform="scale(0.015625)"/>
       </defs>
       <use xlink:href="#DejaVuSans-33"/>
       <use x="63.623047" xlink:href="#DejaVuSans-30"/>
       <use x="127.246094" xlink:href="#DejaVuSans-30"/>
       <use x="190.869141" xlink:href="#DejaVuSans-30"/>
      </g>
     </g>
    </g>
    <g id="text_8">
     <!-- iteration -->
     <g style="fill:#ffffff;" transform="translate(495.477344 532.276562)scale(0.1 -0.1)">
      <defs>
       <path d="M 603 3500 
L 1178 3500 
L 1178 0 
L 603 0 
L 603 3500 
z
M 603 4863 
L 1178 4863 
L 1178 4134 
L 603 4134 
L 603 4863 
z
" id="DejaVuSans-69" transform="scale(0.015625)"/>
       <path d="M 1172 4494 
L 1172 3500 
L 2356 3500 
L 2356 3053 
L 1172 3053 
L 1172 1153 
Q 1172 725 1289 603 
Q 1406 481 1766 481 
L 2356 481 
L 2356 0 
L 1766 0 
Q 1100 0 847 248 
Q 594 497 594 1153 
L 594 3053 
L 172 3053 
L 172 3500 
L 594 3500 
L 594 4494 
L 1172 4494 
z
" id="DejaVuSans-74" transform="scale(0.015625)"/>
       <path d="M 3597 1894 
L 3597 1613 
L 953 1613 
Q 991 1019 1311 708 
Q 1631 397 2203 397 
Q 2534 397 2845 478 
Q 3156 559 3463 722 
L 3463 178 
Q 3153 47 2828 -22 
Q 2503 -91 2169 -91 
Q 1331 -91 842 396 
Q 353 884 353 1716 
Q 353 2575 817 3079 
Q 1281 3584 2069 3584 
Q 2775 3584 3186 3129 
Q 3597 2675 3597 1894 
z
M 3022 2063 
Q 3016 2534 2758 2815 
Q 2500 3097 2075 3097 
Q 1594 3097 1305 2825 
Q 1016 2553 972 2059 
L 3022 2063 
z
" id="DejaVuSans-65" transform="scale(0.015625)"/>
       <path d="M 2631 2963 
Q 2534 3019 2420 3045 
Q 2306 3072 2169 3072 
Q 1681 3072 1420 2755 
Q 1159 2438 1159 1844 
L 1159 0 
L 581 0 
L 581 3500 
L 1159 3500 
L 1159 2956 
Q 1341 3275 1631 3429 
Q 1922 3584 2338 3584 
Q 2397 3584 2469 3576 
Q 2541 3569 2628 3553 
L 2631 2963 
z
" id="DejaVuSans-72" transform="scale(0.015625)"/>
       <path d="M 2194 1759 
Q 1497 1759 1228 1600 
Q 959 1441 959 1056 
Q 959 750 1161 570 
Q 1363 391 1709 391 
Q 2188 391 2477 730 
Q 2766 1069 2766 1631 
L 2766 1759 
L 2194 1759 
z
M 3341 1997 
L 3341 0 
L 2766 0 
L 2766 531 
Q 2569 213 2275 61 
Q 1981 -91 1556 -91 
Q 1019 -91 701 211 
Q 384 513 384 1019 
Q 384 1609 779 1909 
Q 1175 2209 1959 2209 
L 2766 2209 
L 2766 2266 
Q 2766 2663 2505 2880 
Q 2244 3097 1772 3097 
Q 1472 3097 1187 3025 
Q 903 2953 641 2809 
L 641 3341 
Q 956 3463 1253 3523 
Q 1550 3584 1831 3584 
Q 2591 3584 2966 3190 
Q 3341 2797 3341 1997 
z
" id="DejaVuSans-61" transform="scale(0.015625)"/>
       <path d="M 1959 3097 
Q 1497 3097 1228 2736 
Q 959 2375 959 1747 
Q 959 1119 1226 758 
Q 1494 397 1959 397 
Q 2419 397 2687 759 
Q 2956 1122 2956 1747 
Q 2956 2369 2687 2733 
Q 2419 3097 1959 3097 
z
M 1959 3584 
Q 2709 3584 3137 3096 
Q 3566 2609 3566 1747 
Q 3566 888 3137 398 
Q 2709 -91 1959 -91 
Q 1206 -91 779 398 
Q 353 888 353 1747 
Q 353 2609 779 3096 
Q 1206 3584 1959 3584 
z
" id="DejaVuSans-6f" transform="scale(0.015625)"/>
       <path d="M 3513 2113 
L 3513 0 
L 2938 0 
L 2938 2094 
Q 2938 2591 2744 2837 
Q 2550 3084 2163 3084 
Q 1697 3084 1428 2787 
Q 1159 2491 1159 1978 
L 1159 0 
L 581 0 
L 581 3500 
L 1159 3500 
L 1159 2956 
Q 1366 3272 1645 3428 
Q 1925 3584 2291 3584 
Q 2894 3584 3203 3211 
Q 3513 2838 3513 2113 
z
" id="DejaVuSans-6e" transform="scale(0.015625)"/>
      </defs>
      <use xlink:href="#DejaVuSans-69"/>
      <use x="27.783203" xlink:href="#DejaVuSans-74"/>
      <use x="66.992188" xlink:href="#DejaVuSans-65"/>
      <use x="128.515625" xlink:href="#DejaVuSans-72"/>
      <use x="169.628906" xlink:href="#DejaVuSans-61"/>
      <use x="230.908203" xlink:href="#DejaVuSans-74"/>
      <use x="270.117188" xlink:href="#DejaVuSans-69"/>
      <use x="297.900391" xlink:href="#DejaVuSans-6f"/>
      <use x="359.082031" xlink:href="#DejaVuSans-6e"/>
     </g>
    </g>
   </g>
   <g id="matplotlib.axis_2">
    <g id="ytick_1">
     <g id="line2d_8">
      <defs>
       <path d="M 0 0 
L -3.5 0 
" id="m02639aef5b" style="stroke:#ffffff;stroke-width:0.8;"/>
      </defs>
      <g>
       <use style="fill:#ffffff;stroke:#ffffff;stroke-width:0.8;" x="126" xlink:href="#m02639aef5b" y="484.232731"/>
      </g>
     </g>
     <g id="text_9">
      <!-- 0 -->
      <g style="fill:#ffffff;" transform="translate(112.6375 488.03195)scale(0.1 -0.1)">
       <use xlink:href="#DejaVuSans-30"/>
      </g>
     </g>
    </g>
    <g id="ytick_2">
     <g id="line2d_9">
      <g>
       <use style="fill:#ffffff;stroke:#ffffff;stroke-width:0.8;" x="126" xlink:href="#m02639aef5b" y="419.332629"/>
      </g>
     </g>
     <g id="text_10">
      <!-- 5000 -->
      <g style="fill:#ffffff;" transform="translate(93.55 423.131848)scale(0.1 -0.1)">
       <use xlink:href="#DejaVuSans-35"/>
       <use x="63.623047" xlink:href="#DejaVuSans-30"/>
       <use x="127.246094" xlink:href="#DejaVuSans-30"/>
       <use x="190.869141" xlink:href="#DejaVuSans-30"/>
      </g>
     </g>
    </g>
    <g id="ytick_3">
     <g id="line2d_10">
      <g>
       <use style="fill:#ffffff;stroke:#ffffff;stroke-width:0.8;" x="126" xlink:href="#m02639aef5b" y="354.432528"/>
      </g>
     </g>
     <g id="text_11">
      <!-- 10000 -->
      <g style="fill:#ffffff;" transform="translate(87.1875 358.231747)scale(0.1 -0.1)">
       <use xlink:href="#DejaVuSans-31"/>
       <use x="63.623047" xlink:href="#DejaVuSans-30"/>
       <use x="127.246094" xlink:href="#DejaVuSans-30"/>
       <use x="190.869141" xlink:href="#DejaVuSans-30"/>
       <use x="254.492188" xlink:href="#DejaVuSans-30"/>
      </g>
     </g>
    </g>
    <g id="ytick_4">
     <g id="line2d_11">
      <g>
       <use style="fill:#ffffff;stroke:#ffffff;stroke-width:0.8;" x="126" xlink:href="#m02639aef5b" y="289.532426"/>
      </g>
     </g>
     <g id="text_12">
      <!-- 15000 -->
      <g style="fill:#ffffff;" transform="translate(87.1875 293.331645)scale(0.1 -0.1)">
       <use xlink:href="#DejaVuSans-31"/>
       <use x="63.623047" xlink:href="#DejaVuSans-35"/>
       <use x="127.246094" xlink:href="#DejaVuSans-30"/>
       <use x="190.869141" xlink:href="#DejaVuSans-30"/>
       <use x="254.492188" xlink:href="#DejaVuSans-30"/>
      </g>
     </g>
    </g>
    <g id="ytick_5">
     <g id="line2d_12">
      <g>
       <use style="fill:#ffffff;stroke:#ffffff;stroke-width:0.8;" x="126" xlink:href="#m02639aef5b" y="224.632325"/>
      </g>
     </g>
     <g id="text_13">
      <!-- 20000 -->
      <g style="fill:#ffffff;" transform="translate(87.1875 228.431544)scale(0.1 -0.1)">
       <use xlink:href="#DejaVuSans-32"/>
       <use x="63.623047" xlink:href="#DejaVuSans-30"/>
       <use x="127.246094" xlink:href="#DejaVuSans-30"/>
       <use x="190.869141" xlink:href="#DejaVuSans-30"/>
       <use x="254.492188" xlink:href="#DejaVuSans-30"/>
      </g>
     </g>
    </g>
    <g id="ytick_6">
     <g id="line2d_13">
      <g>
       <use style="fill:#ffffff;stroke:#ffffff;stroke-width:0.8;" x="126" xlink:href="#m02639aef5b" y="159.732224"/>
      </g>
     </g>
     <g id="text_14">
      <!-- 25000 -->
      <g style="fill:#ffffff;" transform="translate(87.1875 163.531442)scale(0.1 -0.1)">
       <use xlink:href="#DejaVuSans-32"/>
       <use x="63.623047" xlink:href="#DejaVuSans-35"/>
       <use x="127.246094" xlink:href="#DejaVuSans-30"/>
       <use x="190.869141" xlink:href="#DejaVuSans-30"/>
       <use x="254.492188" xlink:href="#DejaVuSans-30"/>
      </g>
     </g>
    </g>
    <g id="ytick_7">
     <g id="line2d_14">
      <g>
       <use style="fill:#ffffff;stroke:#ffffff;stroke-width:0.8;" x="126" xlink:href="#m02639aef5b" y="94.832122"/>
      </g>
     </g>
     <g id="text_15">
      <!-- 30000 -->
      <g style="fill:#ffffff;" transform="translate(87.1875 98.631341)scale(0.1 -0.1)">
       <use xlink:href="#DejaVuSans-33"/>
       <use x="63.623047" xlink:href="#DejaVuSans-30"/>
       <use x="127.246094" xlink:href="#DejaVuSans-30"/>
       <use x="190.869141" xlink:href="#DejaVuSans-30"/>
       <use x="254.492188" xlink:href="#DejaVuSans-30"/>
      </g>
     </g>
    </g>
   </g>
   <g id="line2d_15">
    <path clip-path="url(#p758d26c2d6)" d="M 161.509091 242.986074 
L 161.745897 262.819545 
L 161.982703 263.416626 
L 162.456316 328.654208 
L 162.693122 310.027879 
L 162.929928 278.92775 
L 163.166734 346.904116 
L 163.403541 344.139372 
L 163.640347 348.825159 
L 163.877153 332.742914 
L 164.113959 303.421048 
L 164.350765 328.316727 
L 164.587572 329.562809 
L 164.824378 304.26475 
L 165.061184 291.051089 
L 165.29799 312.883483 
L 165.534796 322.748298 
L 165.771603 345.359494 
L 166.008409 331.120412 
L 166.245215 359.572616 
L 166.718827 304.68011 
L 166.955634 307.120354 
L 167.19244 296.801238 
L 167.429246 298.4497 
L 167.902859 354.367628 
L 168.139665 340.985227 
L 168.613277 281.822294 
L 168.850083 309.885098 
L 169.08689 286.417222 
L 169.560502 312.234482 
L 169.797308 300.046243 
L 170.034114 323.51412 
L 170.270921 321.073876 
L 170.507727 323.51412 
L 170.744533 294.438874 
L 170.981339 320.879175 
L 171.218145 313.324804 
L 171.454952 314.960286 
L 171.691758 284.638959 
L 171.928564 286.897482 
L 172.16537 297.216598 
L 172.638983 260.664861 
L 172.875789 258.406338 
L 173.112595 251.916328 
L 173.349401 251.916328 
L 173.586208 287.144103 
L 173.823014 279.369071 
L 174.296626 314.635786 
L 174.770239 280.134892 
L 175.007045 303.187408 
L 175.243851 272.087279 
L 175.480657 276.786047 
L 175.717463 262.546964 
L 176.427882 319.010053 
L 176.901494 370.086432 
L 177.138301 378.536426 
L 177.611913 367.204868 
L 177.848719 372.669456 
L 178.085525 347.773778 
L 178.322332 335.585538 
L 178.559138 344.191292 
L 179.03275 400.1871 
L 179.269557 390.750625 
L 179.506363 419.82587 
L 179.743169 414.361282 
L 179.979975 402.731183 
L 180.216781 376.290882 
L 180.453588 376.290882 
L 180.9272 331.405972 
L 181.164006 324.915962 
L 181.400812 325.006822 
L 181.637619 322.566578 
L 181.874425 307.873195 
L 182.111231 301.383185 
L 182.348037 323.99438 
L 182.584843 294.919135 
L 182.82165 317.971651 
L 183.058456 287.650324 
L 183.295262 311.23502 
L 183.532068 311.572501 
L 183.768874 292.271211 
L 184.005681 321.346456 
L 184.242487 292.271211 
L 184.479293 286.274441 
L 184.716099 316.595769 
L 185.189712 278.88881 
L 185.426518 283.756317 
L 185.663324 257.316016 
L 185.90013 284.119758 
L 186.136937 334.832697 
L 186.373743 324.409741 
L 186.610549 324.409741 
L 186.847355 349.707801 
L 187.084161 320.385935 
L 187.320968 307.886175 
L 187.557774 307.886175 
L 187.79458 320.385935 
L 188.268192 301.707686 
L 188.504999 275.267384 
L 188.741805 293.478353 
L 188.978611 280.095952 
L 189.215417 289.805007 
L 189.452223 289.805007 
L 189.68903 303.018668 
L 190.162642 246.620479 
L 190.636255 217.908674 
L 190.873061 193.129816 
L 191.346673 258.159717 
L 191.820286 312.520042 
L 192.057092 283.198177 
L 192.293898 283.289037 
L 192.76751 255.836294 
L 193.004317 281.134353 
L 193.241123 268.946114 
L 193.477929 291.99863 
L 193.714735 293.257692 
L 194.188348 350.175081 
L 194.425154 323.73478 
L 194.66196 312.494082 
L 194.898766 287.196023 
L 195.135572 312.494082 
L 195.372379 314.895386 
L 195.609185 334.118796 
L 195.845991 307.678495 
L 196.082797 295.516216 
L 196.55641 235.094221 
L 196.793216 218.661516 
L 197.030022 232.900598 
L 197.266828 203.825352 
L 197.503635 216.013592 
L 197.740441 238.326246 
L 197.977247 211.743165 
L 198.214053 240.81841 
L 198.450859 212.755606 
L 198.687666 240.63669 
L 198.924472 234.14668 
L 199.161278 207.342938 
L 199.398084 229.175332 
L 199.63489 237.936846 
L 199.871697 262.832525 
L 200.108503 241.804892 
L 200.345309 243.985535 
L 200.582115 263.286825 
L 200.818921 236.703744 
L 201.055728 250.475545 
L 201.292534 237.093144 
L 201.766146 309.794238 
L 202.002952 283.211157 
L 202.239759 280.238732 
L 202.713371 332.288613 
L 202.950177 342.607729 
L 203.186984 330.41949 
L 203.42379 302.356687 
L 203.660596 288.117604 
L 203.897402 307.418894 
L 204.134208 285.10624 
L 204.371015 305.783412 
L 204.607821 302.577347 
L 204.844627 280.082972 
L 205.081433 320.879175 
L 205.318239 307.665515 
L 205.555046 281.082433 
L 205.791852 279.654631 
L 206.028658 281.199253 
L 206.265464 294.412914 
L 206.50227 299.280422 
L 206.739077 325.863503 
L 206.975883 299.994323 
L 207.212689 298.35884 
L 207.449495 303.161448 
L 207.923108 357.093432 
L 208.159914 333.625555 
L 208.39672 352.589365 
L 208.633526 352.926846 
L 209.107139 307.263134 
L 209.580751 342.140449 
L 209.817557 377.562924 
L 210.054364 348.487679 
L 210.29117 353.835447 
L 210.527976 335.961959 
L 210.764782 346.281075 
L 211.001588 317.20583 
L 211.238395 317.20583 
L 211.475201 291.90777 
L 211.712007 296.775278 
L 211.948813 309.275037 
L 212.185619 301.720666 
L 212.422426 328.887848 
L 212.659232 334.637997 
L 212.896038 345.593134 
L 213.606457 306.704993 
L 213.843263 329.835389 
L 214.080069 303.395088 
L 214.316875 291.206849 
L 214.553682 261.884983 
L 214.790488 266.752491 
L 215.027294 260.262481 
L 215.2641 250.280845 
L 215.737713 273.813622 
L 216.211325 308.613056 
L 216.684937 256.446355 
L 216.921744 254.006111 
L 217.15855 260.496121 
L 217.395356 229.395992 
L 217.632162 363.856023 
L 217.868968 350.642362 
L 218.105775 394.566751 
L 218.342581 394.566751 
L 218.579387 413.868041 
L 218.816193 409.000533 
L 219.052999 386.687878 
L 219.289806 386.778739 
L 219.763418 406.534329 
L 220.000224 400.044319 
L 220.237031 370.969074 
L 220.473837 393.281729 
L 220.710643 364.829524 
L 220.947449 363.194042 
L 221.184255 353.212406 
L 221.421062 323.89054 
L 221.657868 330.38055 
L 221.894674 323.89054 
L 222.13148 334.092836 
L 222.368286 338.960344 
L 222.605093 338.622863 
L 222.841899 348.396819 
L 223.078705 351.550963 
L 223.315511 366.971228 
L 223.552317 359.468776 
L 223.789124 333.599595 
L 224.02593 324.902982 
L 224.262736 294.140334 
L 224.499542 295.970517 
L 224.736348 282.588116 
L 224.973155 291.95969 
L 225.209961 285.46968 
L 225.446767 263.157025 
L 225.683573 276.539426 
L 225.92038 296.944018 
L 226.157186 289.623287 
L 226.393992 320.723415 
L 226.630798 289.623287 
L 227.104411 356.158871 
L 227.341217 329.575789 
L 227.578023 323.6569 
L 227.814829 323.63094 
L 228.051635 329.549829 
L 228.288442 305.835332 
L 228.525248 307.470815 
L 228.762054 281.030513 
L 228.99886 267.816853 
L 229.235666 277.370147 
L 230.182891 382.209771 
L 230.419697 370.021532 
L 230.656504 364.556944 
L 230.89331 364.556944 
L 231.130116 385.532657 
L 231.603729 365.932826 
L 232.077341 317.17987 
L 232.314147 317.17987 
L 232.550953 324.734242 
L 232.78776 324.734242 
L 233.024566 327.992227 
L 233.261372 352.109104 
L 233.498178 350.629382 
L 233.734984 378.692186 
L 233.971791 352.109104 
L 234.208597 372.825217 
L 234.445403 359.442816 
L 234.682209 294.036494 
L 234.919015 349.17562 
L 235.155822 318.075491 
L 235.392628 304.108989 
L 235.629434 305.355071 
L 235.86624 313.805064 
L 236.103046 288.507005 
L 236.339853 285.61246 
L 236.576659 298.994861 
L 236.813465 292.504851 
L 237.287078 272.76224 
L 237.523884 246.321939 
L 237.76069 245.296517 
L 237.997496 226.696148 
L 238.471109 344.567713 
L 238.707915 344.567713 
L 238.944721 319.269653 
L 239.181527 372.890117 
L 239.418333 378.354705 
L 239.65514 349.03284 
L 239.891946 335.118258 
L 240.128752 361.636439 
L 240.365558 345.151813 
L 240.602364 359.066395 
L 240.839171 351.512023 
L 241.075977 380.587269 
L 241.312783 357.534753 
L 241.549589 352.667245 
L 242.023202 293.504313 
L 242.260008 301.058684 
L 242.496814 300.941864 
L 242.73362 305.809372 
L 242.970427 283.496717 
L 243.444039 309.820198 
L 243.680845 340.141526 
L 243.917651 352.329765 
L 244.154458 375.797641 
L 244.391264 375.706781 
L 244.62807 361.467699 
L 244.864876 386.363378 
L 245.101682 357.911173 
L 245.338489 344.087452 
L 245.575295 369.671072 
L 246.048907 315.518427 
L 246.285713 328.667188 
L 246.52252 328.667188 
L 246.759326 316.167428 
L 246.996132 331.431932 
L 247.232938 359.884136 
L 247.706551 310.76774 
L 247.943357 313.207983 
L 248.180163 335.520638 
L 248.416969 307.457835 
L 248.653776 302.590327 
L 248.890582 330.653131 
L 249.127388 330.536311 
L 249.364194 315.375647 
L 249.601 292.02459 
L 249.837807 287.170063 
L 250.074613 310.637939 
L 250.311419 320.957056 
L 250.548225 295.658996 
L 250.785031 290.194408 
L 251.021838 264.325227 
L 251.258644 265.350649 
L 251.49545 237.287845 
L 251.732256 262.585904 
L 251.969062 275.475064 
L 252.205869 246.153199 
L 252.442675 233.96496 
L 253.153093 329.666649 
L 253.626706 319.801834 
L 254.100318 357.521773 
L 254.337124 357.430913 
L 254.573931 355.328149 
L 254.810737 369.242731 
L 255.047543 362.752721 
L 255.284349 372.189196 
L 255.521156 367.321688 
L 255.757962 337.999822 
L 255.994768 348.318938 
L 256.46838 290.415068 
L 256.705187 317.21881 
L 256.941993 290.778508 
L 257.178799 278.278749 
L 257.652411 265.259789 
L 257.889218 267.583212 
L 258.126024 298.683341 
L 258.36283 296.100317 
L 258.599636 325.422183 
L 258.836442 315.985708 
L 259.073249 321.047916 
L 259.310055 291.72605 
L 259.546861 297.190638 
L 259.783667 272.29496 
L 260.25728 325.642843 
L 260.494086 303.330188 
L 260.730892 303.447008 
L 260.967698 276.863927 
L 261.204505 266.544811 
L 261.441311 295.866676 
L 261.914923 239.741069 
L 262.151729 269.062934 
L 262.388536 328.900828 
L 262.625342 355.48391 
L 262.862148 346.501736 
L 263.098954 367.840889 
L 263.33576 345.528234 
L 263.809373 339.142064 
L 264.282985 366.490967 
L 264.993404 297.800699 
L 265.23021 292.05055 
L 265.467016 294.659534 
L 265.703822 301.928346 
L 265.940629 276.630286 
L 266.177435 295.931576 
L 266.414241 325.253442 
L 266.651047 320.385935 
L 267.12466 279.511851 
L 267.598272 303.265288 
L 267.835078 298.39778 
L 268.308691 272.35986 
L 268.545497 273.034821 
L 268.782303 299.475122 
L 269.019109 311.974882 
L 269.255916 311.884021 
L 269.492722 307.717435 
L 269.729528 331.185312 
L 270.20314 276.617306 
L 270.439947 286.053781 
L 270.676753 256.731915 
L 271.150365 317.15391 
L 271.387171 367.542348 
L 271.860784 320.684475 
L 272.09759 307.535715 
L 272.334396 320.749375 
L 272.571203 320.632555 
L 272.808009 313.779104 
L 273.044815 291.58327 
L 273.281621 313.895925 
L 273.518427 313.805064 
L 273.99204 293.582193 
L 274.228846 348.111258 
L 274.465652 320.139314 
L 274.702458 306.756913 
L 274.939265 325.967343 
L 275.649683 242.674553 
L 275.886489 268.543734 
L 276.360102 252.617249 
L 276.596908 335.780239 
L 276.833714 315.907828 
L 277.307327 329.394069 
L 277.544133 323.033859 
L 277.780939 320.009514 
L 278.254552 269.815776 
L 278.491358 277.240347 
L 278.728164 257.939057 
L 278.96497 258.081837 
L 279.201776 284.522139 
L 279.438583 284.612999 
L 279.675389 275.176524 
L 279.912195 284.612999 
L 280.149001 261.560483 
L 280.385807 251.241367 
L 280.622614 278.538349 
L 280.85942 278.538349 
L 281.096226 249.216483 
L 281.333032 253.66863 
L 281.569838 284.522139 
L 281.806645 277.019687 
L 282.043451 289.584347 
L 282.280257 320.684475 
L 282.517063 293.880733 
L 282.753869 323.202599 
L 282.990676 336.37732 
L 283.227482 315.349687 
L 283.464288 324.786162 
L 283.701094 299.202542 
L 284.174707 321.515196 
L 284.411513 316.647689 
L 284.648319 329.536849 
L 284.885125 355.120469 
L 285.121932 329.666649 
L 285.358738 327.550906 
L 285.595544 322.683398 
L 286.069156 298.1901 
L 286.305963 271.749799 
L 286.542769 276.773067 
L 286.779575 301.577885 
L 287.016381 295.087875 
L 287.253187 320.957056 
L 287.489994 320.866195 
L 287.7268 318.387012 
L 288.200412 369.502332 
L 288.437218 371.137814 
L 288.674025 365.673226 
L 288.910831 352.459565 
L 289.147637 366.374147 
L 289.384443 371.838735 
L 289.858056 320.152294 
L 290.094862 320.243154 
L 290.331668 319.905674 
L 290.568474 333.119335 
L 290.805281 304.66713 
L 291.042087 316.959209 
L 291.278893 321.826717 
L 291.515699 334.326477 
L 291.752505 326.772105 
L 291.989312 301.876426 
L 292.226118 312.195542 
L 292.69973 279.680591 
L 292.936536 330.990611 
L 293.173343 346.307035 
L 293.410149 321.008976 
L 293.646955 357.288132 
L 293.883761 304.965671 
L 294.120567 304.005149 
L 294.357374 299.137641 
L 294.59418 299.267442 
L 294.830986 285.885041 
L 295.067792 281.017533 
L 295.304599 288.532965 
L 295.541405 286.339341 
L 295.778211 322.319958 
L 296.015017 327.784546 
L 296.251823 327.693686 
L 296.48863 314.311285 
L 296.725436 327.018725 
L 296.962242 355.47093 
L 297.199048 329.88731 
L 297.435854 360.208637 
L 297.672661 352.654265 
L 297.909467 323.332399 
L 298.146273 345.943595 
L 298.383079 343.503351 
L 298.619885 315.440547 
L 298.856692 315.440547 
L 299.093498 318.529792 
L 299.330304 304.29071 
L 299.56711 315.868888 
L 299.803916 286.547022 
L 300.277529 335.312958 
L 300.514335 322.099297 
L 300.751141 336.33838 
L 300.987947 328.784008 
L 301.224754 340.972247 
L 301.698366 318.464892 
L 301.935172 341.063107 
L 302.171979 397.681956 
L 302.408785 409.961055 
L 302.645591 409.961055 
L 302.882397 397.461295 
L 303.119203 397.435335 
L 303.35601 385.247096 
L 303.592816 397.746856 
L 303.829622 374.69434 
L 304.066428 397.746856 
L 304.303234 368.42499 
L 304.540041 369.022071 
L 304.776847 359.585596 
L 305.013653 372.799257 
L 305.250459 374.434739 
L 305.487265 349.13668 
L 305.724072 378.458546 
L 305.960878 352.018244 
L 306.197684 351.680764 
L 306.43449 376.978823 
L 306.671296 377.095643 
L 307.144909 329.731549 
L 307.381715 349.47416 
L 307.618521 333.041455 
L 308.092134 323.94246 
L 308.32894 344.918173 
L 308.565746 355.237289 
L 308.802552 328.796988 
L 309.039359 356.859792 
L 309.276165 344.360032 
L 309.749777 293.984573 
L 309.986583 290.207388 
L 310.22339 303.589788 
L 310.460196 308.457296 
L 310.697002 308.119816 
L 310.933808 283.561617 
L 311.170614 308.457296 
L 311.407421 280.005092 
L 311.881033 309.651458 
L 312.117839 295.412376 
L 312.354645 297.060838 
L 312.591452 306.432413 
L 312.828258 341.128007 
L 313.065064 334.663957 
L 313.30187 363.739203 
L 313.775483 315.388627 
L 314.012289 301.357225 
L 314.249095 299.033801 
L 314.485901 299.033801 
L 314.959514 353.536907 
L 315.19632 359.001495 
L 315.669932 407.767431 
L 315.906739 379.704627 
L 316.143545 367.204868 
L 316.380351 338.752663 
L 316.617157 324.838082 
L 316.853963 338.752663 
L 317.09077 331.198292 
L 317.327576 319.010053 
L 317.564382 293.711993 
L 317.801188 301.266365 
L 318.037994 270.166236 
L 318.274801 289.467526 
L 318.748413 248.788143 
L 318.985219 251.228387 
L 319.222026 228.617191 
L 319.458832 222.127181 
L 319.695638 202.825891 
L 319.932444 217.064973 
L 320.16925 243.505275 
L 320.406057 256.005034 
L 320.642863 229.564733 
L 320.879669 229.473873 
L 321.116475 235.963883 
L 321.353281 256.134834 
L 321.826894 317.815891 
L 322.0637 303.148468 
L 322.300506 276.708166 
L 322.537312 307.029494 
L 322.774119 319.529253 
L 323.010925 282.653016 
L 323.247731 292.08949 
L 323.484537 318.101451 
L 323.721343 287.001323 
L 323.95815 300.915904 
L 324.194956 272.8531 
L 324.431762 270.321996 
L 324.668568 259.76924 
L 324.905375 238.741607 
L 325.615793 316.829409 
L 325.852599 336.130699 
L 326.089406 306.808833 
L 326.326212 294.620594 
L 326.563018 323.94246 
L 327.03663 275.189504 
L 327.273437 275.098644 
L 327.510243 275.215464 
L 327.747049 265.778989 
L 327.983855 296.879118 
L 328.220661 282.640036 
L 328.457468 257.341976 
L 328.694274 271.581058 
L 328.93108 261.261942 
L 329.167886 289.324746 
L 329.404692 276.111085 
L 329.641499 302.551387 
L 329.878305 310.352379 
L 330.115111 311.987862 
L 330.588724 359.884136 
L 330.82553 329.562809 
L 331.062336 320.126334 
L 331.299142 346.930076 
L 331.535948 327.628786 
L 332.009561 327.719646 
L 332.246367 305.108451 
L 332.483173 314.544926 
L 332.719979 288.675745 
L 332.956786 297.359379 
L 333.193592 297.359379 
L 333.430398 299.617902 
L 333.667204 327.680706 
L 334.140817 277.772528 
L 334.377623 297.073818 
L 334.614429 289.519446 
L 334.851235 291.154929 
L 335.088041 262.079684 
L 335.324848 261.962863 
L 335.561654 287.260923 
L 335.79846 300.643324 
L 336.035266 278.330669 
L 336.508879 324.253981 
L 336.745685 322.644458 
L 336.982491 345.255654 
L 337.219297 335.819179 
L 337.456104 361.688359 
L 337.69291 361.350879 
L 337.929716 330.25075 
L 338.166522 347.059876 
L 338.640135 315.648227 
L 338.876941 315.985708 
L 339.113747 302.071126 
L 339.350553 298.955921 
L 339.587359 294.088414 
L 339.824166 320.450835 
L 340.060972 295.152775 
L 340.297778 288.662765 
L 340.534584 309.119277 
L 340.77139 318.581712 
L 341.008197 312.013822 
L 341.245003 311.442701 
L 341.481809 298.942941 
L 341.718615 274.047262 
L 341.955422 299.838563 
L 342.192228 286.469142 
L 342.429034 309.937018 
L 342.66584 303.447008 
L 342.902646 274.994804 
L 343.139453 304.61521 
L 343.376259 287.468603 
L 343.613065 336.896521 
L 343.849871 338.532003 
L 344.086677 333.664495 
L 344.323484 305.212291 
L 344.797096 383.871214 
L 345.270708 331.496832 
L 345.744321 283.457777 
L 345.981127 295.646016 
L 346.217933 292.634651 
L 346.454739 283.587577 
L 347.165158 317.37457 
L 347.401964 293.906693 
L 347.63877 317.37457 
L 347.875577 307.055454 
L 348.112383 330.10797 
L 348.349189 312.104682 
L 348.585995 324.604441 
L 348.822802 298.735261 
L 349.059608 329.835389 
L 349.296414 343.749971 
L 349.53322 367.217848 
L 349.770026 342.127469 
L 350.006833 347.514177 
L 350.243639 349.03284 
L 350.480445 349.14966 
L 350.717251 336.961421 
L 350.954057 356.262711 
L 351.190864 333.950056 
L 351.42767 332.314573 
L 351.664476 305.874272 
L 352.138088 317.23179 
L 352.374895 304.73203 
L 352.611701 279.433971 
L 353.085313 331.172332 
L 353.558926 276.279826 
L 353.795732 279.433971 
L 354.032538 326.927865 
L 354.269344 311.715281 
L 354.506151 314.155525 
L 354.742957 288.571905 
L 354.979763 292.401011 
L 355.216569 292.10247 
L 355.453375 295.853696 
L 355.690182 295.853696 
L 355.926988 331.951133 
L 356.163794 331.483852 
L 356.4006 359.936057 
L 356.637406 358.300574 
L 356.874213 341.439528 
L 357.111019 314.856446 
L 357.347825 328.005207 
L 357.584631 296.905078 
L 357.821437 304.78395 
L 358.058244 331.367032 
L 358.29505 288.805545 
L 358.768662 347.202657 
L 359.005468 346.865176 
L 359.242275 342.114489 
L 359.479081 365.167005 
L 359.715887 345.865715 
L 359.952693 335.845139 
L 360.1895 342.335149 
L 360.426306 336.948441 
L 360.663112 350.330842 
L 361.136724 319.230713 
L 361.610337 329.575789 
L 361.847143 329.575789 
L 362.083949 335.494678 
L 362.557562 277.811468 
L 362.794368 263.987747 
L 363.26798 321.515196 
L 363.504786 319.074953 
L 363.741593 319.074953 
L 363.978399 332.457354 
L 364.215205 332.794834 
L 364.452011 346.709416 
L 364.688817 324.396761 
L 364.925624 346.709416 
L 365.16243 316.388088 
L 365.399236 318.828332 
L 365.636042 293.530273 
L 365.872849 293.439413 
L 366.109655 285.885041 
L 366.346461 284.093798 
L 366.583267 310.014899 
L 366.820073 364.712704 
L 367.05688 370.177293 
L 367.293686 356.963632 
L 367.767298 304.186869 
L 368.004104 295.087875 
L 368.240911 325.409203 
L 368.477717 339.648285 
L 368.714523 370.748413 
L 368.951329 266.35011 
L 369.188135 295.425356 
L 369.424942 270.127296 
L 369.661748 277.681668 
L 369.898554 272.217079 
L 370.13536 256.264634 
L 370.608973 279.18735 
L 370.845779 306.666053 
L 371.082585 311.533561 
L 371.319391 298.3199 
L 371.556198 293.724973 
L 371.793004 294.062454 
L 372.02981 281.562694 
L 372.266616 291.88181 
L 372.503422 289.441566 
L 372.740229 262.858485 
L 372.977035 289.441566 
L 373.213841 291.88181 
L 373.450647 269.270615 
L 373.687453 263.806026 
L 373.92426 271.308478 
L 374.161066 269.465315 
L 374.397872 256.082914 
L 374.871484 343.347591 
L 375.108291 343.347591 
L 375.345097 365.958786 
L 375.581903 346.657496 
L 375.818709 363.920923 
L 376.055515 337.337841 
L 376.292322 339.440605 
L 376.529128 353.355186 
L 377.00274 324.279941 
L 377.239547 298.981881 
L 377.476353 312.351302 
L 377.713159 285.911001 
L 377.949965 315.232867 
L 378.186771 318.971113 
L 378.423578 293.387493 
L 378.660384 313.818044 
L 378.89719 313.818044 
L 379.133996 313.947845 
L 379.607609 300.448624 
L 379.844415 326.551444 
L 380.081221 325.915423 
L 380.318027 333.469795 
L 380.554833 320.087394 
L 380.79164 288.987266 
L 381.028446 300.786104 
L 381.265252 326.655285 
L 381.502058 326.655285 
L 381.738864 299.851543 
L 381.975671 341.815948 
L 382.212477 329.86135 
L 382.449283 332.262653 
L 382.922896 283.509697 
L 383.159702 291.85585 
L 383.396508 291.85585 
L 383.633314 317.60821 
L 383.87012 286.508082 
L 384.106927 286.624902 
L 384.343733 300.007303 
L 384.580539 292.452931 
L 384.817345 300.007303 
L 385.054151 326.447604 
L 385.290958 316.128488 
L 385.527764 342.71157 
L 385.76457 313.636324 
L 386.001376 311.23502 
L 386.238182 337.104201 
L 386.474989 346.540676 
L 386.711795 365.841966 
L 386.948601 335.520638 
L 387.185407 333.080395 
L 387.422213 355.393049 
L 388.132632 279.836351 
L 388.369438 306.497313 
L 388.606245 282.133815 
L 388.843051 304.44647 
L 389.079857 292.258231 
L 389.553469 357.482833 
L 389.790276 346.709416 
L 390.027082 346.709416 
L 390.263888 343.892751 
L 390.500694 357.275152 
L 390.974307 346.514716 
L 391.211113 320.645535 
L 391.447919 311.546541 
L 391.684725 337.415721 
L 391.921531 346.852196 
L 392.158338 271.723839 
L 392.395144 315.674187 
L 392.63195 318.114431 
L 392.868756 291.310689 
L 393.105562 317.893771 
L 393.342369 289.441566 
L 393.579175 318.763432 
L 393.815981 324.604441 
L 394.052787 327.369186 
L 394.289594 314.869426 
L 394.5264 311.611441 
L 394.763206 306.743933 
L 395.000012 322.579558 
L 395.236818 322.293998 
L 395.473625 357.508793 
L 395.710431 362.3763 
L 395.947237 348.993899 
L 396.184043 348.993899 
L 396.420849 373.850638 
L 396.657656 361.662399 
L 396.894462 377.212464 
L 397.131268 378.095105 
L 397.368074 371.605095 
L 397.60488 358.430374 
L 397.841687 383.326053 
L 398.078493 374.486659 
L 398.315299 397.954536 
L 398.552105 278.68113 
L 398.788911 331.418952 
L 399.025718 336.31242 
L 399.262524 309.508678 
L 399.736136 366.516927 
L 399.972942 383.702474 
L 400.209749 369.489352 
L 400.446555 371.929595 
L 400.683361 358.547194 
L 400.920167 360.182677 
L 401.156974 358.547194 
L 401.39378 335.079318 
L 401.630586 330.30267 
L 401.867392 322.748298 
L 402.104198 297.567059 
L 402.341005 304.29071 
L 402.577811 317.867811 
L 402.814617 322.735318 
L 403.051423 299.682802 
L 403.288229 339.881925 
L 403.525036 327.693686 
L 403.761842 343.21779 
L 404.235454 320.931096 
L 404.47226 292.193331 
L 404.945873 279.836351 
L 405.656291 319.412433 
L 405.893098 290.090567 
L 406.129904 285.49564 
L 406.603516 325.850523 
L 406.840323 325.733703 
L 407.077129 294.633574 
L 407.313935 286.560002 
L 407.550741 261.664323 
L 407.787547 312.571963 
L 408.024354 336.987381 
L 408.26116 337.324861 
L 408.497966 366.646727 
L 408.734772 359.092355 
L 408.971578 369.411471 
L 409.208385 395.280652 
L 409.445191 402.835024 
L 409.681997 374.77222 
L 409.918803 367.217848 
L 410.155609 366.880367 
L 410.392416 341.011187 
L 410.629222 331.574712 
L 410.866028 329.251289 
L 411.102834 329.96519 
L 411.33964 342.464949 
L 411.576447 373.565078 
L 411.813253 382.326592 
L 412.050059 380.132968 
L 412.286865 388.582961 
L 412.523672 360.130757 
L 412.997284 364.440124 
L 413.23409 335.364878 
L 413.470896 364.440124 
L 413.707703 364.349263 
L 413.944509 390.932345 
L 414.181315 365.634285 
L 414.418121 391.217905 
L 414.654927 368.905251 
L 414.891734 391.217905 
L 415.12854 391.101085 
L 415.365346 400.53756 
L 415.602152 371.215694 
L 415.838958 371.306554 
L 416.312571 319.282633 
L 416.549377 343.23077 
L 416.786183 331.042531 
L 417.022989 369.346571 
L 417.259796 292.660611 
L 417.496602 280.472372 
L 417.733408 292.660611 
L 418.680633 366.594807 
L 419.391052 302.590327 
L 419.627858 349.850581 
L 420.10147 375.564001 
L 420.338276 380.431509 
L 420.811889 353.692667 
L 421.048695 325.240462 
L 421.285501 325.577943 
L 421.522307 295.256615 
L 421.759114 346.164255 
L 421.99592 340.323246 
L 422.469532 293.348552 
L 422.943145 332.093913 
L 423.179951 332.093913 
L 423.416757 351.343283 
L 423.653563 329.030628 
L 423.89037 342.244289 
L 424.127176 329.355129 
L 424.363982 322.865119 
L 424.600788 349.668861 
L 424.837594 348.033378 
L 425.311207 388.647861 
L 425.548013 362.20756 
L 426.021625 374.162159 
L 426.258432 361.97392 
L 426.732044 312.779643 
L 426.96885 322.216118 
L 427.205656 322.099297 
L 427.442463 319.334553 
L 427.679269 392.347167 
L 427.916075 379.847408 
L 428.152881 394.08649 
L 428.389687 416.697685 
L 428.626494 418.333168 
L 429.100106 363.427682 
L 429.336912 389.011302 
L 429.573719 375.797641 
L 429.810525 370.930134 
L 430.047331 263.338746 
L 430.284137 285.949941 
L 430.75775 264.325227 
L 430.994556 233.225098 
L 431.231362 362.03882 
L 431.468168 348.669399 
L 431.704974 364.621844 
L 432.178587 415.386703 
L 432.415393 388.582961 
L 432.652199 394.04755 
L 432.889005 367.464468 
L 433.362618 340.868407 
L 433.599424 312.416202 
L 433.83623 300.461604 
L 434.073036 329.783469 
L 434.309843 322.229098 
L 434.546649 322.566578 
L 434.783455 297.268519 
L 435.020261 297.268519 
L 435.493874 320.827255 
L 435.73068 308.639016 
L 435.967486 316.193388 
L 436.204292 342.062569 
L 436.441099 331.743452 
L 436.914711 283.392877 
L 437.151517 295.581116 
L 437.388323 299.851543 
L 437.861936 362.596961 
L 438.335548 364.115623 
L 438.572354 365.764086 
L 438.809161 366.101566 
L 439.282773 312.753683 
L 439.519579 326.992765 
L 439.756385 351.888444 
L 439.993192 326.304824 
L 440.229998 353.017706 
L 440.466804 363.336822 
L 440.70361 385.649477 
L 440.940417 356.574231 
L 441.177223 385.649477 
L 441.414029 385.311996 
L 441.650835 360.416317 
L 441.887641 371.760855 
L 442.124448 345.177773 
L 442.59806 379.419067 
L 443.071672 343.762951 
L 443.308479 335.312958 
L 443.545285 338.622863 
L 443.782091 333.158275 
L 444.018897 358.053954 
L 444.255703 366.737587 
L 444.49251 366.737587 
L 444.729316 393.320669 
L 444.966122 390.010764 
L 445.202928 376.797103 
L 446.150153 290.973209 
L 446.386959 314.103605 
L 446.860572 265.337669 
L 447.097378 277.837428 
L 447.57099 336.013879 
L 448.044603 381.677591 
L 448.281409 374.123219 
L 448.518215 399.992399 
L 448.755021 390.555924 
L 448.991828 359.455796 
L 449.228634 359.338976 
L 449.46544 359.676456 
L 449.939052 324.539541 
L 450.175859 325.435163 
L 450.412665 329.88731 
L 450.886277 315.842928 
L 451.123083 327.174485 
L 451.35989 355.62669 
L 451.596696 349.13668 
L 451.833502 325.668803 
L 452.070308 340.167486 
L 452.307114 327.979247 
L 452.543921 299.527042 
L 452.780727 307.847235 
L 453.491146 358.157794 
L 453.727952 367.594269 
L 453.964758 342.69859 
L 454.201564 373.798718 
L 454.43837 368.931211 
L 454.675177 373.798718 
L 454.911983 376.238962 
L 455.148789 369.748952 
L 455.622401 320.697455 
L 456.096014 320.788315 
L 456.33282 297.268519 
L 456.569626 311.507601 
L 456.806432 333.820256 
L 457.280045 279.498871 
L 457.990463 365.854946 
L 458.22727 337.792142 
L 458.700882 321.865657 
L 458.937688 292.543791 
L 459.174495 328.135007 
L 459.648107 339.596365 
L 459.884913 219.050916 
L 460.121719 291.76499 
L 460.595332 317.47841 
L 460.832138 295.165755 
L 461.068944 295.074895 
L 461.30575 282.886656 
L 461.542557 320.788315 
L 461.779363 307.899155 
L 462.016169 278.577289 
L 462.252975 278.577289 
L 462.726588 330.23777 
L 462.963394 330.32863 
L 463.2002 316.946229 
L 463.437006 327.265345 
L 463.673812 327.148525 
L 464.147425 304.64117 
L 464.384231 310.482179 
L 464.621037 304.64117 
L 464.857844 304.66713 
L 465.09465 318.049531 
L 465.331456 291.466449 
L 465.568262 293.101932 
L 465.805068 319.685014 
L 466.041875 294.386954 
L 466.278681 281.173293 
L 466.515487 281.264154 
L 466.989099 257.588597 
L 467.462712 312.857523 
L 467.936324 255.317093 
L 468.17313 286.417222 
L 468.409937 263.286825 
L 468.646743 272.7233 
L 468.883549 266.23329 
L 469.120355 291.99863 
L 469.357161 302.317746 
L 469.593968 302.200926 
L 469.830774 291.88181 
L 470.06758 276.617306 
L 470.304386 327.005745 
L 470.541193 350.058261 
L 470.777999 350.175081 
L 471.014805 319.853754 
L 471.251611 307.353994 
L 471.488417 332.210733 
L 471.725224 338.700743 
L 471.96203 312.117662 
L 472.198836 310.027879 
L 472.435642 314.194465 
L 472.672448 322.891079 
L 472.909255 316.401068 
L 473.146061 323.95544 
L 473.382867 324.292921 
L 473.619673 330.782931 
L 473.856479 360.104797 
L 474.093286 372.604556 
L 474.330092 360.104797 
L 474.566898 337.052281 
L 474.803704 350.966863 
L 475.277317 292.569751 
L 475.514123 286.079741 
L 475.750929 318.737472 
L 475.987735 328.057127 
L 476.224542 301.474045 
L 476.461348 341.504428 
L 476.698154 331.302132 
L 476.93496 304.86183 
L 477.171766 301.603845 
L 477.408573 305.355071 
L 477.645379 314.791546 
L 477.882185 286.339341 
L 478.118991 288.597865 
L 478.592604 240.247289 
L 478.82941 256.576155 
L 479.066216 244.387916 
L 479.303022 285.6514 
L 479.539828 263.338746 
L 479.776635 277.162467 
L 480.013441 279.641651 
L 480.250247 279.01861 
L 480.487053 292.232271 
L 480.723859 321.307516 
L 480.960666 316.440009 
L 481.197472 287.364763 
L 481.434278 287.455623 
L 481.671084 256.355495 
L 481.907891 246.91902 
L 482.144697 256.355495 
L 482.381503 248.801123 
L 483.091922 319.464353 
L 483.328728 305.549772 
L 483.565534 318.049531 
L 483.80234 305.549772 
L 484.039146 310.417279 
L 484.275953 297.034878 
L 484.512759 328.135007 
L 484.749565 297.034878 
L 484.986371 300.305843 
L 485.933596 342.049589 
L 486.407208 383.962074 
L 487.354433 279.26523 
L 487.59124 282.471295 
L 487.828046 260.158641 
L 488.064852 284.106778 
L 488.301658 284.444259 
L 488.538464 278.97967 
L 489.012077 329.744529 
L 489.248883 324.877022 
L 489.485689 299.981343 
L 489.722495 299.267442 
L 489.959302 304.134949 
L 490.196108 297.644939 
L 490.432914 274.592423 
L 490.66972 291.025129 
L 490.906526 298.579501 
L 491.143333 312.818583 
L 491.380139 343.918712 
L 491.616945 313.597384 
L 491.853751 322.410818 
L 492.090557 322.410818 
L 492.327364 347.306497 
L 492.56417 324.253981 
L 492.800976 320.723415 
L 493.037782 334.962498 
L 493.511395 283.224137 
L 493.748201 310.027879 
L 493.985007 280.952633 
L 494.45862 337.714262 
L 494.932232 282.847716 
L 495.169038 296.061377 
L 495.405844 264.961248 
L 495.642651 251.747587 
L 495.879457 261.184062 
L 496.116263 290.505928 
L 496.353069 277.123527 
L 496.589875 251.254347 
L 496.826682 315.531407 
L 497.063488 325.305362 
L 497.300294 341.854888 
L 497.5371 341.854888 
L 498.247519 412.544079 
L 498.484325 382.339572 
L 498.957937 438.413259 
L 499.194744 438.504119 
L 499.43155 430.949748 
L 499.668356 438.504119 
L 499.905162 411.700378 
L 500.141969 404.146006 
L 500.378775 417.359666 
L 500.615581 407.923192 
L 501.089193 332.067953 
L 501.326 325.577943 
L 501.562806 337.857042 
L 501.799612 366.932288 
L 502.036418 341.348667 
L 502.510031 341.348667 
L 502.746837 329.160428 
L 503.220449 376.251942 
L 503.457255 364.505024 
L 503.694062 369.372531 
L 503.930868 385.805237 
L 504.167674 372.591576 
L 504.641286 332.405434 
L 504.878093 369.035051 
L 505.351705 316.011668 
L 505.588511 341.725088 
L 505.825318 312.403222 
L 506.062124 341.725088 
L 506.29893 348.383838 
L 506.535736 335.170178 
L 506.772542 349.08476 
L 507.009349 335.170178 
L 507.246155 358.638055 
L 507.482961 346.138295 
L 507.719767 315.038166 
L 507.956573 302.849927 
L 508.19338 276.980747 
L 508.430186 293.660073 
L 509.140604 364.543964 
L 509.377411 337.960882 
L 509.614217 345.515254 
L 509.851023 319.646074 
L 510.087829 319.736934 
L 510.324635 305.822352 
L 510.561442 421.824793 
L 510.798248 408.442392 
L 511.035054 410.077875 
L 511.27186 251.552887 
L 511.745473 320.892156 
L 511.982279 320.892156 
L 512.219085 326.006284 
L 512.455891 328.446527 
L 512.692698 297.346399 
L 512.929504 309.534638 
L 513.403116 259.055339 
L 513.639922 346.891136 
L 513.876729 315.791008 
L 514.113535 328.290767 
L 514.350341 315.791008 
L 514.587147 360.299497 
L 514.823953 338.467103 
L 515.06076 390.387184 
L 515.297566 395.851773 
L 515.534372 365.530445 
L 515.771178 373.409318 
L 516.007984 394.29417 
L 516.481597 367.542348 
L 516.718403 389.816063 
L 516.955209 339.440605 
L 517.192016 326.940845 
L 517.428822 352.161024 
L 517.665628 347.007956 
L 517.902434 311.23502 
L 518.13924 311.23502 
L 518.376047 313.506524 
L 518.612853 309.729338 
L 519.086465 275.345264 
L 519.323271 275.319304 
L 519.796884 335.261038 
L 520.03369 361.701339 
L 520.270496 336.49414 
L 520.507302 336.49414 
L 520.744109 307.172274 
L 520.980915 307.289094 
L 521.217721 332.587154 
L 521.454527 332.249673 
L 521.691333 305.666592 
L 521.92814 304.965671 
L 522.164946 333.417875 
L 522.401752 335.858119 
L 523.112171 250.436605 
L 523.348977 234.02986 
L 523.585783 227.56581 
L 523.822589 257.796277 
L 524.059396 244.582616 
L 524.533008 294.503774 
L 524.769814 294.503774 
L 525.00662 322.955979 
L 525.243427 323.293459 
L 525.480233 315.739087 
L 525.717039 314.103605 
L 525.953845 322.177178 
L 526.190651 308.794777 
L 526.427458 316.349148 
L 526.664264 339.817025 
L 526.90107 310.74178 
L 527.137876 310.74178 
L 527.374682 312.377262 
L 527.611489 302.058146 
L 527.848295 315.440547 
L 528.085101 344.424932 
L 528.321907 351.252423 
L 528.558714 361.571539 
L 529.032326 307.353994 
L 529.505938 361.571539 
L 529.742745 336.67586 
L 530.216357 316.621729 
L 530.453163 309.820198 
L 530.689969 323.6569 
L 530.926776 350.239981 
L 531.400388 329.601749 
L 531.637194 341.789988 
L 531.874 312.468122 
L 532.110807 332.106893 
L 532.347613 309.794238 
L 532.584419 380.872829 
L 532.821225 374.382819 
L 533.058031 353.978227 
L 533.294838 352.472545 
L 533.531644 378.341725 
L 533.76845 368.905251 
L 534.005256 368.905251 
L 534.242063 375.395261 
L 534.478869 350.616402 
L 534.715675 363.505562 
L 534.952481 365.141045 
L 535.189287 358.651035 
L 535.426094 365.141045 
L 535.6629 363.505562 
L 535.899706 369.099951 
L 536.136512 353.640747 
L 536.373318 330.05605 
L 536.610125 358.508254 
L 536.846931 370.696493 
L 537.083737 342.244289 
L 537.320543 361.545579 
L 537.794156 345.619094 
L 538.030962 355.055569 
L 538.267768 355.055569 
L 538.504574 326.992765 
L 538.74138 314.804526 
L 539.214993 325.746683 
L 539.451799 302.694167 
L 539.688605 298.514601 
L 539.925412 321.982477 
L 540.63583 301.928346 
L 540.872636 308.418356 
L 541.109443 308.327496 
L 541.346249 301.837486 
L 541.583055 280.121912 
L 541.819861 326.369724 
L 542.056667 297.047858 
L 542.293474 332.444374 
L 542.53028 334.326477 
L 542.767086 324.890002 
L 543.240698 379.613767 
L 543.477505 382.871752 
L 543.714311 380.470449 
L 543.951117 390.244404 
L 544.187923 382.365532 
L 544.424729 370.371993 
L 544.661536 341.050127 
L 544.898342 334.560117 
L 545.371954 358.884675 
L 545.60876 358.884675 
L 545.845567 330.821871 
L 546.082373 334.845677 
L 546.555985 370.579673 
L 546.792792 351.278383 
L 547.029598 360.714858 
L 547.266404 329.614729 
L 547.50321 322.060357 
L 547.740016 322.060357 
L 547.976823 321.670957 
L 548.213629 314.168505 
L 548.450435 342.620709 
L 548.687241 355.224309 
L 548.924047 292.439951 
L 549.160854 310.598999 
L 549.39766 304.108989 
L 549.634466 290.726588 
L 549.871272 319.036013 
L 550.108078 325.526023 
L 550.344885 306.341553 
L 550.818497 246.166179 
L 551.528916 311.0533 
L 551.765722 311.0533 
L 552.239334 295.334496 
L 552.476141 272.281979 
L 552.712947 260.09374 
L 553.186559 311.17012 
L 553.660172 271.931519 
L 554.133784 326.304824 
L 554.37059 324.669341 
L 554.844203 337.545522 
L 555.081009 329.99115 
L 555.554621 278.110009 
L 555.791427 297.411299 
L 556.028234 284.197638 
L 556.26504 307.250154 
L 556.501846 260.02884 
L 556.738652 285.61246 
L 556.975458 275.293344 
L 557.212265 300.189023 
L 557.449071 312.688783 
L 557.685877 300.500544 
L 557.922683 330.834851 
L 558.15949 332.470334 
L 558.396296 306.886714 
L 558.633102 323.033859 
L 558.869908 327.005745 
L 559.106714 295.905616 
L 559.343521 308.093855 
L 559.580327 339.193984 
L 559.817133 299.838563 
L 560.053939 299.838563 
L 560.290745 327.719646 
L 560.527552 330.15989 
L 560.764358 322.605518 
L 561.001164 297.021898 
L 561.23797 349.35734 
L 561.474776 344.009572 
L 561.711583 321.696917 
L 561.948389 346.994976 
L 562.185195 358.339514 
L 562.422001 384.779815 
L 562.658807 359.923077 
L 562.895614 360.247577 
L 563.13242 350.019321 
L 563.369226 372.331976 
L 563.606032 350.019321 
L 563.842839 391.347706 
L 564.079645 384.662995 
L 564.316451 318.971113 
L 564.553257 326.525484 
L 564.790063 352.394665 
L 565.02687 323.319419 
L 565.263676 352.394665 
L 565.500482 339.181004 
L 565.737288 316.660669 
L 565.974094 310.170659 
L 566.210901 316.660669 
L 566.447707 309.106297 
L 566.684513 331.717492 
L 566.921319 306.821814 
L 567.158125 306.821814 
L 567.394932 277.499948 
L 567.631738 268.063473 
L 567.868544 252.565329 
L 568.342156 292.07651 
L 568.578963 279.888271 
L 568.815769 278.90179 
L 569.052575 301.512985 
L 569.289381 287.598403 
L 569.9998 287.598403 
L 570.236606 346.800276 
L 570.473412 346.800276 
L 570.947025 325.175562 
L 571.183831 317.41351 
L 571.420637 317.41351 
L 571.657443 290.973209 
L 571.89425 277.136507 
L 572.131056 291.051089 
L 572.367862 286.183581 
L 572.604668 309.236097 
L 572.841474 283.366917 
L 573.315087 327.511966 
L 573.551893 305.199311 
L 573.788699 317.38755 
L 574.025505 317.38755 
L 574.262312 291.80393 
L 574.735924 308.171736 
L 574.97273 308.171736 
L 575.446343 281.575674 
L 575.683149 294.958075 
L 576.156761 336.57202 
L 576.393568 341.439528 
L 576.630374 334.949517 
L 577.340792 251.215407 
L 577.577599 282.315535 
L 577.814405 277.448028 
L 578.051211 277.448028 
L 578.288017 303.317208 
L 578.524823 289.934807 
L 578.76163 266.46693 
L 578.998436 266.882291 
L 579.235242 292.465911 
L 579.945661 257.458796 
L 580.182467 283.899098 
L 580.419273 255.446893 
L 580.656079 293.257692 
L 580.892886 312.558982 
L 581.129692 342.88031 
L 581.366498 337.415721 
L 581.603304 350.629382 
L 581.84011 341.192907 
L 582.076917 341.076087 
L 582.550529 308.885637 
L 582.787335 314.012745 
L 583.024141 344.243212 
L 583.260948 349.55204 
L 583.497754 349.889521 
L 583.73456 339.570405 
L 583.971366 354.808949 
L 584.208172 334.586077 
L 584.444979 361.389819 
L 584.681785 335.806199 
L 584.918591 347.994438 
L 585.392203 399.680879 
L 585.62901 399.797699 
L 585.865816 377.485044 
L 586.102622 389.984804 
L 586.576235 341.063107 
L 587.049847 364.764624 
L 587.286653 339.466565 
L 587.523459 339.349744 
L 587.760266 348.786219 
L 587.997072 335.403818 
L 588.233878 360.987438 
L 588.470684 353.433066 
L 588.70749 360.987438 
L 588.944297 275.202484 
L 589.181103 276.007245 
L 589.417909 302.810987 
L 589.891521 279.10947 
L 590.128328 317.712051 
L 590.365134 328.031167 
L 590.60194 301.227425 
L 590.838746 301.227425 
L 591.075552 296.489717 
L 591.312359 324.552521 
L 591.549165 298.11222 
L 591.785971 298.11222 
L 592.022777 310.326419 
L 592.49639 366.231366 
L 592.733196 338.168563 
L 592.970002 339.804045 
L 593.443615 298.1901 
L 594.154033 373.461238 
L 594.390839 347.592057 
L 594.627646 376.913923 
L 594.864452 350.330842 
L 595.101258 336.41626 
L 595.338064 340.608806 
L 595.57487 318.296151 
L 595.811677 311.806141 
L 596.048483 300.137103 
L 596.522095 300.137103 
L 596.995708 344.905193 
L 597.232514 370.774374 
L 597.46932 365.906866 
L 597.706126 351.473083 
L 597.942932 326.265884 
L 598.179739 339.648285 
L 598.416545 335.157198 
L 598.653351 333.859196 
L 598.890157 350.408722 
L 599.126964 356.898732 
L 599.36377 287.131123 
L 599.600576 257.809257 
L 599.837382 279.16139 
L 600.074188 275.565925 
L 600.310995 305.887252 
L 600.547801 286.585962 
L 600.784607 310.7288 
L 601.021413 296.515677 
L 601.258219 293.050012 
L 601.495026 295.490256 
L 601.731832 268.686514 
L 601.968638 259.250039 
L 602.44225 259.250039 
L 602.679057 286.053781 
L 602.915863 260.755721 
L 603.152669 247.542061 
L 603.389475 260.755721 
L 603.863088 312.935403 
L 604.099894 298.787181 
L 604.3367 297.268519 
L 604.573506 298.904001 
L 604.810313 273.034821 
L 605.047119 278.486429 
L 605.283925 314.609826 
L 605.520731 289.714147 
L 605.757537 291.362609 
L 605.994344 300.799084 
L 606.467956 352.135064 
L 606.704762 325.694763 
L 606.941568 325.694763 
L 607.178375 348.305958 
L 607.415181 334.923557 
L 607.651987 303.823429 
L 607.888793 334.923557 
L 608.362406 312.273422 
L 608.599212 284.210618 
L 608.836018 293.647093 
L 609.072824 271.035898 
L 609.30963 266.16839 
L 609.546437 292.972132 
L 609.783243 263.650266 
L 610.020049 289.181966 
L 610.256855 291.62221 
L 610.493662 265.753029 
L 610.967274 331.639612 
L 611.20408 306.055992 
L 611.440886 333.301055 
L 611.677693 310.9884 
L 611.914499 308.885637 
L 612.151305 334.469257 
L 612.388111 311.00138 
L 612.624917 311.00138 
L 612.861724 324.150141 
L 613.09853 389.932883 
L 613.335336 403.042704 
L 613.572142 380.587269 
L 613.808948 375.16162 
L 614.045755 345.839755 
L 614.282561 350.707262 
L 614.519367 381.02859 
L 614.756173 373.474218 
L 614.992979 371.033974 
L 615.229786 364.543964 
L 615.466592 362.765701 
L 615.703398 374.70732 
L 615.940204 346.255115 
L 616.177011 338.648823 
L 616.887429 259.69136 
L 617.124235 261.326842 
L 617.361042 247.944441 
L 617.597848 241.454431 
L 617.834654 253.64267 
L 618.07146 258.510178 
L 618.545073 206.486257 
L 619.018685 206.486257 
L 619.255491 178.605173 
L 619.492297 193.869677 
L 619.96591 193.869677 
L 620.202716 204.188793 
L 620.439522 178.319613 
L 620.676328 208.251539 
L 620.913135 273.917462 
L 621.149941 287.131123 
L 621.386747 310.274499 
L 621.86036 316.712589 
L 622.097166 306.393473 
L 622.333972 316.712589 
L 622.570778 297.411299 
L 622.807584 290.921289 
L 623.044391 297.411299 
L 623.281197 327.732626 
L 623.518003 327.732626 
L 623.754809 347.033916 
L 624.465228 268.920154 
L 624.702034 283.133276 
L 624.93884 306.601153 
L 625.175646 292.686571 
L 625.412453 321.761817 
L 625.649259 336.000899 
L 625.886065 336.000899 
L 626.122871 340.297286 
L 626.359677 325.318342 
L 626.596484 295.334496 
L 626.83329 285.898021 
L 627.070096 316.219348 
L 627.306902 316.219348 
L 627.543709 313.779104 
L 628.017321 339.492525 
L 628.490933 329.86135 
L 628.72774 332.353513 
L 628.964546 342.86733 
L 629.201352 323.56604 
L 629.438158 323.56604 
L 629.674964 304.939711 
L 629.911771 304.939711 
L 630.148577 298.4497 
L 630.385383 298.4497 
L 630.622189 325.032782 
L 630.858995 324.02034 
L 631.095802 336.208579 
L 631.332608 309.768278 
L 631.569414 297.268519 
L 631.80622 315.012206 
L 632.043026 296.554617 
L 632.279833 290.272288 
L 632.753445 395.124892 
L 633.227058 369.554252 
L 633.463864 382.936653 
L 633.70067 383.027513 
L 633.937476 373.591038 
L 634.174282 352.563405 
L 634.411089 352.563405 
L 634.647895 376.031282 
L 635.121507 324.292921 
L 635.358313 317.802911 
L 635.59512 343.555271 
L 636.068732 365.179985 
L 636.305538 363.544502 
L 636.779151 309.326957 
L 637.015957 309.326957 
L 637.252763 310.96244 
L 637.726375 288.143564 
L 637.963182 313.441624 
L 638.199988 308.950537 
L 638.436794 296.762298 
L 638.6736 290.557848 
L 638.910406 303.940249 
L 639.147213 330.653131 
L 639.384019 330.769951 
L 639.620825 304.186869 
L 639.857631 304.186869 
L 640.094438 311.1831 
L 640.331244 288.130584 
L 640.56805 283.120296 
L 640.804856 379.016686 
L 641.041662 359.183215 
L 641.278469 359.987977 
L 641.752081 420.565731 
L 641.988887 392.113527 
L 642.225693 392.113527 
L 642.4625 397.097855 
L 642.699306 387.75224 
L 642.936112 368.56777 
L 643.409724 416.528945 
L 643.646531 312.208522 
L 643.883337 301.980266 
L 644.120143 323.9165 
L 644.356949 323.9165 
L 644.593755 324.03332 
L 644.830562 318.568732 
L 645.067368 340.881387 
L 645.304174 311.559521 
L 645.54098 317.024109 
L 645.777787 288.571905 
L 646.014593 288.571905 
L 646.251399 257.471776 
L 646.961818 257.471776 
L 647.198624 269.660015 
L 647.672236 269.569155 
L 648.145849 269.569155 
L 648.619461 230.070953 
L 648.856267 203.267212 
L 649.093073 229.136392 
L 649.32988 216.948153 
L 649.566686 229.136392 
L 649.803492 221.867581 
L 650.513911 221.867581 
L 650.987523 197.426202 
L 651.224329 222.724262 
L 651.461136 213.287787 
L 651.697942 195.84264 
L 651.934748 195.84264 
L 652.171554 211.483564 
L 652.40836 188.431048 
L 652.645167 201.813449 
L 652.881973 228.253751 
L 653.592391 228.253751 
L 653.829198 224.074184 
L 654.30281 224.074184 
L 654.539616 210.691783 
L 655.960453 210.691783 
L 656.19726 237.495525 
L 656.434066 225.307286 
L 656.670872 237.495525 
L 656.907678 211.626345 
L 657.144485 205.136335 
L 657.381291 205.876196 
L 657.618097 236.197523 
L 658.091709 188.989189 
L 658.565322 188.989189 
L 658.802128 211.301844 
L 659.038934 186.003785 
L 659.27574 186.003785 
L 659.512547 225.735627 
L 659.749353 216.338092 
L 659.986159 226.825948 
L 660.459771 278.200869 
L 660.696578 271.710859 
L 660.933384 339.245904 
L 661.17019 339.245904 
L 661.406996 324.838082 
L 661.643802 349.733761 
L 661.880609 337.234001 
L 662.117415 330.743991 
L 662.354221 356.613171 
L 662.591027 354.977689 
L 662.827834 377.588884 
L 663.301446 365.167005 
L 663.775058 365.167005 
L 664.011865 355.61371 
L 664.485477 305.861292 
L 664.722283 293.673053 
L 664.959089 293.673053 
L 665.195896 300.941864 
L 665.432702 326.239924 
L 665.669508 300.370743 
L 666.14312 324.03332 
L 666.379927 298.735261 
L 666.616733 298.735261 
L 666.853539 298.566521 
L 667.090345 298.683341 
L 667.327151 291.128969 
L 667.563958 265.545349 
L 667.800764 265.545349 
L 668.03757 266.51885 
L 668.274376 286.352322 
L 668.511183 285.63842 
L 668.747989 298.30692 
L 668.984795 303.680649 
L 669.221601 342.75051 
L 669.458407 342.75051 
L 669.695214 340.907347 
L 670.405632 340.907347 
L 670.642438 341.608268 
L 670.879245 333.898136 
L 671.116051 315.765047 
L 671.352857 315.855908 
L 671.589663 329.069568 
L 671.826469 328.952748 
L 672.063276 306.341553 
L 672.300082 308.223656 
L 672.536888 278.90179 
L 672.773694 278.90179 
L 673.0105 279.01861 
L 673.247307 278.90179 
L 673.484113 265.688129 
L 673.957725 265.688129 
L 674.194532 282.510235 
L 674.668144 282.510235 
L 674.90495 288.649785 
L 675.141756 288.649785 
L 675.378563 262.209484 
L 675.615369 271.645959 
L 675.852175 244.842217 
L 676.088981 235.522562 
L 676.562594 235.522562 
L 676.7994 243.025014 
L 677.036206 283.444797 
L 677.273012 283.561617 
L 677.509818 277.071607 
L 677.746625 277.071607 
L 677.983431 267.635132 
L 678.220237 289.259846 
L 678.693849 289.259846 
L 678.930656 288.442105 
L 679.167462 275.059704 
L 680.114687 275.059704 
L 680.351493 271.944499 
L 680.588299 258.730838 
L 680.825105 271.230598 
L 681.061912 271.230598 
L 681.298718 283.431817 
L 681.535524 302.733107 
L 681.77233 302.642247 
L 682.009136 322.216118 
L 682.245943 311.961902 
L 682.719555 257.900117 
L 682.956361 257.900117 
L 683.193167 262.637824 
L 683.429974 253.20135 
L 683.66678 253.20135 
L 683.903586 268.349033 
L 684.614005 268.349033 
L 684.850811 288.442105 
L 685.087617 288.442105 
L 685.324423 295.204695 
L 685.56123 272.73628 
L 685.798036 266.24627 
L 686.034842 279.459931 
L 686.508454 332.703974 
L 686.745261 313.402684 
L 686.982067 313.402684 
L 687.218873 301.733646 
L 687.455679 307.198234 
L 687.692485 284.885579 
L 688.166098 284.794719 
L 688.402904 272.29496 
L 688.63971 272.29496 
L 688.876516 246.192139 
L 689.113323 271.438278 
L 689.586935 271.438278 
L 689.823741 266.570771 
L 690.060547 295.646016 
L 690.53416 292.323131 
L 692.665416 292.323131 
L 692.902222 283.224137 
L 693.139028 279.395031 
L 693.375834 254.499352 
L 693.612641 254.499352 
L 694.086253 268.011553 
L 694.323059 242.713493 
L 695.033478 242.804353 
L 695.270284 247.671861 
L 695.50709 218.596616 
L 695.743896 218.596616 
L 695.980703 218.259135 
L 696.927927 218.259135 
L 697.164734 187.159006 
L 697.875152 187.159006 
L 698.111959 173.257405 
L 698.348765 190.923212 
L 699.532796 190.923212 
L 699.769602 203.111451 
L 700.006408 180.915617 
L 700.243214 174.425606 
L 700.480021 174.425606 
L 700.716827 172.556484 
L 701.190439 172.556484 
L 701.427245 176.074069 
L 701.664052 188.573829 
L 702.37447 188.573829 
L 702.611276 183.706321 
L 702.848083 185.445644 
L 703.084889 208.49816 
L 703.321695 210.678803 
L 703.795308 210.678803 
L 704.032114 242.064492 
L 704.26892 257.926077 
L 704.505726 238.910347 
L 704.979339 238.910347 
L 705.216145 264.208407 
L 705.452951 264.091587 
L 705.689757 274.073222 
L 706.16337 274.073222 
L 706.400176 266.856331 
L 706.636982 254.668092 
L 707.821013 254.668092 
L 708.057819 242.921174 
L 709.478657 242.921174 
L 709.715463 244.400896 
L 710.425881 244.400896 
L 710.662688 241.233771 
L 712.320331 241.233771 
L 712.557137 227.85137 
L 713.267556 227.85137 
L 713.504362 227.96819 
L 713.741168 205.655535 
L 715.162006 205.655535 
L 715.398812 180.357476 
L 715.635618 167.857716 
L 718.477292 167.857716 
L 718.714099 173.867466 
L 720.608548 173.867466 
L 720.845355 169.415319 
L 721.792579 169.415319 
L 722.029386 197.478123 
L 722.739804 197.478123 
L 722.97661 198.698244 
L 723.450223 198.698244 
L 723.687029 203.150391 
L 723.923835 181.214157 
L 724.160641 207.797239 
L 724.397448 211.574425 
L 725.581479 211.574425 
L 725.818285 225.203446 
L 726.291897 225.203446 
L 726.528704 210.964364 
L 726.76551 210.964364 
L 727.002316 223.983324 
L 728.659959 223.983324 
L 728.896766 222.828102 
L 729.370378 222.828102 
L 729.607184 219.622037 
L 731.73844 219.622037 
L 731.975246 248.074242 
L 732.212053 225.761587 
L 733.869696 225.761587 
L 734.106502 212.547926 
L 735.527339 212.547926 
L 735.764146 196.608461 
L 740.973882 196.608461 
L 741.210688 208.35538 
L 741.447495 201.865369 
L 743.341944 201.865369 
L 743.57875 189.36561 
L 744.289169 189.36561 
L 744.525975 177.683592 
L 746.183619 177.683592 
L 746.420425 164.301191 
L 749.735712 164.301191 
L 749.972518 170.791201 
L 753.998224 170.791201 
L 754.23503 164.301191 
L 757.313511 164.301191 
L 757.550317 166.572694 
L 762.760053 166.572694 
L 762.99686 164.924232 
L 764.180891 164.924232 
L 764.417697 165.780913 
L 766.312146 165.780913 
L 766.548953 142.728397 
L 771.995495 142.728397 
L 772.232302 142.442836 
L 772.469108 139.678092 
L 778.389263 139.678092 
L 778.626069 121.934404 
L 780.283713 121.934404 
L 780.520519 117.962518 
L 782.888581 117.962518 
L 783.125387 110.408146 
L 786.203868 110.408146 
L 786.440674 106.63096 
L 835.459559 106.63096 
L 835.696365 88.887273 
L 871.690909 88.887273 
L 871.690909 88.887273 
" style="fill:none;stroke:#8dd3c7;stroke-linecap:square;stroke-width:1.5;"/>
   </g>
   <g id="line2d_16">
    <path clip-path="url(#p758d26c2d6)" d="M 161.509091 242.986074 
L 190.162642 242.986074 
L 190.399448 233.406819 
L 190.636255 217.908674 
L 190.873061 193.129816 
L 619.018685 193.129816 
L 619.255491 178.605173 
L 620.202716 178.605173 
L 620.439522 178.319613 
L 697.875152 178.319613 
L 698.111959 173.257405 
L 700.480021 173.257405 
L 700.716827 172.556484 
L 715.398812 172.556484 
L 715.635618 167.857716 
L 746.183619 167.857716 
L 746.420425 164.301191 
L 766.312146 164.301191 
L 766.548953 142.728397 
L 771.995495 142.728397 
L 772.232302 142.442836 
L 772.469108 139.678092 
L 778.389263 139.678092 
L 778.626069 121.934404 
L 780.283713 121.934404 
L 780.520519 117.962518 
L 782.888581 117.962518 
L 783.125387 110.408146 
L 786.203868 110.408146 
L 786.440674 106.63096 
L 835.459559 106.63096 
L 835.696365 88.887273 
L 871.690909 88.887273 
L 871.690909 88.887273 
" style="fill:none;stroke:#feffb3;stroke-linecap:square;stroke-width:1.5;"/>
   </g>
   <g id="line2d_17">
    <path clip-path="url(#p758d26c2d6)" d="M 161.509091 242.986074 
L 163.166734 242.986074 
L 163.403541 254.325633 
L 165.061184 254.325633 
L 165.29799 265.132187 
L 166.955634 265.132187 
L 167.19244 275.430791 
L 168.850083 275.430791 
L 169.08689 285.245318 
L 170.744533 285.245318 
L 170.981339 294.598524 
L 172.638983 294.598524 
L 172.875789 303.512091 
L 174.533432 303.512091 
L 174.770239 312.006685 
L 176.427882 312.006685 
L 176.664688 320.101999 
L 178.322332 320.101999 
L 178.559138 327.816801 
L 180.216781 327.816801 
L 180.453588 335.168976 
L 182.111231 335.168976 
L 182.348037 342.17557 
L 184.005681 342.17557 
L 184.242487 348.852825 
L 185.90013 348.852825 
L 186.136937 355.216223 
L 187.79458 355.216223 
L 188.031386 361.280516 
L 189.68903 361.280516 
L 189.925836 367.059763 
L 191.583479 367.059763 
L 191.820286 372.567361 
L 193.477929 372.567361 
L 193.714735 377.816081 
L 195.372379 377.816081 
L 195.609185 382.81809 
L 197.266828 382.81809 
L 197.503635 387.584984 
L 199.161278 387.584984 
L 199.398084 392.127816 
L 201.055728 392.127816 
L 201.292534 396.457116 
L 202.950177 396.457116 
L 203.186984 400.582921 
L 204.844627 400.582921 
L 205.081433 404.514797 
L 206.739077 404.514797 
L 206.975883 408.261859 
L 208.633526 408.261859 
L 208.870333 411.832795 
L 210.527976 411.832795 
L 210.764782 415.235882 
L 212.422426 415.235882 
L 212.659232 418.47901 
L 214.316875 418.47901 
L 214.553682 421.569698 
L 216.211325 421.569698 
L 216.448131 424.515112 
L 218.105775 424.515112 
L 218.342581 427.322079 
L 220.000224 427.322079 
L 220.237031 429.997108 
L 221.894674 429.997108 
L 222.13148 432.546399 
L 223.789124 432.546399 
L 224.02593 434.975864 
L 225.683573 434.975864 
L 225.92038 437.291134 
L 227.578023 437.291134 
L 227.814829 439.497577 
L 229.472473 439.497577 
L 229.709279 441.600308 
L 231.366922 441.600308 
L 231.603729 443.604203 
L 233.261372 443.604203 
L 233.498178 445.513907 
L 235.155822 445.513907 
L 235.392628 447.333846 
L 237.050271 447.333846 
L 237.287078 449.068242 
L 238.944721 449.068242 
L 239.181527 450.721114 
L 240.839171 450.721114 
L 241.075977 452.296294 
L 242.73362 452.296294 
L 242.970427 453.797434 
L 244.62807 453.797434 
L 244.864876 455.228015 
L 246.52252 455.228015 
L 246.759326 456.591353 
L 248.416969 456.591353 
L 248.653776 457.890609 
L 250.311419 457.890609 
L 250.548225 459.128794 
L 252.205869 459.128794 
L 252.442675 460.308779 
L 254.100318 460.308779 
L 254.337124 461.433301 
L 255.994768 461.433301 
L 256.231574 462.504966 
L 257.889218 462.504966 
L 258.126024 463.526258 
L 259.783667 463.526258 
L 260.020473 464.499545 
L 261.678117 464.499545 
L 261.914923 465.427084 
L 263.572567 465.427084 
L 263.809373 466.311024 
L 265.467016 466.311024 
L 265.703822 467.153416 
L 267.361466 467.153416 
L 267.598272 467.956212 
L 269.255916 467.956212 
L 269.492722 468.721274 
L 271.150365 468.721274 
L 271.387171 469.450375 
L 273.044815 469.450375 
L 273.281621 470.145205 
L 274.939265 470.145205 
L 275.176071 470.807375 
L 276.833714 470.807375 
L 277.07052 471.43842 
L 278.728164 471.43842 
L 278.96497 472.039804 
L 280.622614 472.039804 
L 280.85942 472.612921 
L 282.517063 472.612921 
L 282.753869 473.159098 
L 284.411513 473.159098 
L 284.648319 473.679603 
L 286.305963 473.679603 
L 286.542769 474.175643 
L 288.200412 474.175643 
L 288.437218 474.648366 
L 290.094862 474.648366 
L 290.331668 475.09887 
L 291.989312 475.09887 
L 292.226118 475.528198 
L 293.883761 475.528198 
L 294.120567 475.937346 
L 295.778211 475.937346 
L 296.015017 476.327262 
L 297.672661 476.327262 
L 297.909467 476.698851 
L 299.56711 476.698851 
L 299.803916 477.052973 
L 301.46156 477.052973 
L 301.698366 477.390451 
L 303.35601 477.390451 
L 303.592816 477.712065 
L 305.250459 477.712065 
L 305.487265 478.018563 
L 307.144909 478.018563 
L 307.381715 478.310653 
L 309.039359 478.310653 
L 309.276165 478.589015 
L 310.933808 478.589015 
L 311.170614 478.854292 
L 312.828258 478.854292 
L 313.065064 479.1071 
L 314.722708 479.1071 
L 314.959514 479.348025 
L 316.617157 479.348025 
L 316.853963 479.577626 
L 318.511607 479.577626 
L 318.748413 479.796435 
L 320.406057 479.796435 
L 320.642863 480.004958 
L 322.300506 480.004958 
L 322.537312 480.203681 
L 324.194956 480.203681 
L 324.431762 480.393062 
L 326.089406 480.393062 
L 326.326212 480.573542 
L 327.983855 480.573542 
L 328.220661 480.745538 
L 329.878305 480.745538 
L 330.115111 480.90945 
L 331.772755 480.90945 
L 332.009561 481.065658 
L 333.667204 481.065658 
L 333.90401 481.214523 
L 335.561654 481.214523 
L 335.79846 481.356391 
L 337.456104 481.356391 
L 337.69291 481.49159 
L 339.350553 481.49159 
L 339.587359 481.620435 
L 341.245003 481.620435 
L 341.718615 481.743223 
L 343.139453 481.743223 
L 343.613065 481.86024 
L 345.033902 481.86024 
L 345.507515 481.971757 
L 348.822802 482.078032 
L 349.296414 482.179311 
L 352.611701 482.27583 
L 353.085313 482.367812 
L 356.4006 482.455471 
L 356.874213 482.539009 
L 360.1895 482.618621 
L 360.663112 482.694491 
L 363.978399 482.766794 
L 364.452011 482.835699 
L 367.767298 482.901365 
L 368.240911 482.963945 
L 371.556198 483.023583 
L 372.266616 483.080417 
L 377.239547 483.186198 
L 377.949965 483.235389 
L 382.922896 483.326944 
L 383.633314 483.36952 
L 388.606245 483.448761 
L 389.553469 483.485611 
L 396.184043 483.586089 
L 397.131268 483.616484 
L 405.656291 483.724432 
L 406.840323 483.748324 
L 417.022989 483.851959 
L 418.680633 483.869856 
L 432.178587 483.973675 
L 434.783455 483.997456 
L 460.595332 484.106908 
L 465.568262 484.12383 
L 871.690909 484.232727 
L 871.690909 484.232727 
" style="fill:none;stroke:#bfbbd9;stroke-linecap:square;stroke-width:1.5;"/>
   </g>
   <g id="patch_3">
    <path d="M 126 504 
L 126 69.12 
" style="fill:none;stroke:#ffffff;stroke-linecap:square;stroke-linejoin:miter;stroke-width:0.8;"/>
   </g>
   <g id="patch_4">
    <path d="M 907.2 504 
L 907.2 69.12 
" style="fill:none;stroke:#ffffff;stroke-linecap:square;stroke-linejoin:miter;stroke-width:0.8;"/>
   </g>
   <g id="patch_5">
    <path d="M 126 504 
L 907.2 504 
" style="fill:none;stroke:#ffffff;stroke-linecap:square;stroke-linejoin:miter;stroke-width:0.8;"/>
   </g>
   <g id="patch_6">
    <path d="M 126 69.12 
L 907.2 69.12 
" style="fill:none;stroke:#ffffff;stroke-linecap:square;stroke-linejoin:miter;stroke-width:0.8;"/>
   </g>
   <g id="text_16">
    <!-- instance 9 with error 0.0023583360628889327 -->
    <g style="fill:#ffffff;" transform="translate(374.229375 63.12)scale(0.12 -0.12)">
     <defs>
      <path d="M 2834 3397 
L 2834 2853 
Q 2591 2978 2328 3040 
Q 2066 3103 1784 3103 
Q 1356 3103 1142 2972 
Q 928 2841 928 2578 
Q 928 2378 1081 2264 
Q 1234 2150 1697 2047 
L 1894 2003 
Q 2506 1872 2764 1633 
Q 3022 1394 3022 966 
Q 3022 478 2636 193 
Q 2250 -91 1575 -91 
Q 1294 -91 989 -36 
Q 684 19 347 128 
L 347 722 
Q 666 556 975 473 
Q 1284 391 1588 391 
Q 1994 391 2212 530 
Q 2431 669 2431 922 
Q 2431 1156 2273 1281 
Q 2116 1406 1581 1522 
L 1381 1569 
Q 847 1681 609 1914 
Q 372 2147 372 2553 
Q 372 3047 722 3315 
Q 1072 3584 1716 3584 
Q 2034 3584 2315 3537 
Q 2597 3491 2834 3397 
z
" id="DejaVuSans-73" transform="scale(0.015625)"/>
      <path d="M 3122 3366 
L 3122 2828 
Q 2878 2963 2633 3030 
Q 2388 3097 2138 3097 
Q 1578 3097 1268 2742 
Q 959 2388 959 1747 
Q 959 1106 1268 751 
Q 1578 397 2138 397 
Q 2388 397 2633 464 
Q 2878 531 3122 666 
L 3122 134 
Q 2881 22 2623 -34 
Q 2366 -91 2075 -91 
Q 1284 -91 818 406 
Q 353 903 353 1747 
Q 353 2603 823 3093 
Q 1294 3584 2113 3584 
Q 2378 3584 2631 3529 
Q 2884 3475 3122 3366 
z
" id="DejaVuSans-63" transform="scale(0.015625)"/>
      <path id="DejaVuSans-20" transform="scale(0.015625)"/>
      <path d="M 703 97 
L 703 672 
Q 941 559 1184 500 
Q 1428 441 1663 441 
Q 2288 441 2617 861 
Q 2947 1281 2994 2138 
Q 2813 1869 2534 1725 
Q 2256 1581 1919 1581 
Q 1219 1581 811 2004 
Q 403 2428 403 3163 
Q 403 3881 828 4315 
Q 1253 4750 1959 4750 
Q 2769 4750 3195 4129 
Q 3622 3509 3622 2328 
Q 3622 1225 3098 567 
Q 2575 -91 1691 -91 
Q 1453 -91 1209 -44 
Q 966 3 703 97 
z
M 1959 2075 
Q 2384 2075 2632 2365 
Q 2881 2656 2881 3163 
Q 2881 3666 2632 3958 
Q 2384 4250 1959 4250 
Q 1534 4250 1286 3958 
Q 1038 3666 1038 3163 
Q 1038 2656 1286 2365 
Q 1534 2075 1959 2075 
z
" id="DejaVuSans-39" transform="scale(0.015625)"/>
      <path d="M 269 3500 
L 844 3500 
L 1563 769 
L 2278 3500 
L 2956 3500 
L 3675 769 
L 4391 3500 
L 4966 3500 
L 4050 0 
L 3372 0 
L 2619 2869 
L 1863 0 
L 1184 0 
L 269 3500 
z
" id="DejaVuSans-77" transform="scale(0.015625)"/>
      <path d="M 3513 2113 
L 3513 0 
L 2938 0 
L 2938 2094 
Q 2938 2591 2744 2837 
Q 2550 3084 2163 3084 
Q 1697 3084 1428 2787 
Q 1159 2491 1159 1978 
L 1159 0 
L 581 0 
L 581 4863 
L 1159 4863 
L 1159 2956 
Q 1366 3272 1645 3428 
Q 1925 3584 2291 3584 
Q 2894 3584 3203 3211 
Q 3513 2838 3513 2113 
z
" id="DejaVuSans-68" transform="scale(0.015625)"/>
      <path d="M 684 794 
L 1344 794 
L 1344 0 
L 684 0 
L 684 794 
z
" id="DejaVuSans-2e" transform="scale(0.015625)"/>
      <path d="M 2034 2216 
Q 1584 2216 1326 1975 
Q 1069 1734 1069 1313 
Q 1069 891 1326 650 
Q 1584 409 2034 409 
Q 2484 409 2743 651 
Q 3003 894 3003 1313 
Q 3003 1734 2745 1975 
Q 2488 2216 2034 2216 
z
M 1403 2484 
Q 997 2584 770 2862 
Q 544 3141 544 3541 
Q 544 4100 942 4425 
Q 1341 4750 2034 4750 
Q 2731 4750 3128 4425 
Q 3525 4100 3525 3541 
Q 3525 3141 3298 2862 
Q 3072 2584 2669 2484 
Q 3125 2378 3379 2068 
Q 3634 1759 3634 1313 
Q 3634 634 3220 271 
Q 2806 -91 2034 -91 
Q 1263 -91 848 271 
Q 434 634 434 1313 
Q 434 1759 690 2068 
Q 947 2378 1403 2484 
z
M 1172 3481 
Q 1172 3119 1398 2916 
Q 1625 2713 2034 2713 
Q 2441 2713 2670 2916 
Q 2900 3119 2900 3481 
Q 2900 3844 2670 4047 
Q 2441 4250 2034 4250 
Q 1625 4250 1398 4047 
Q 1172 3844 1172 3481 
z
" id="DejaVuSans-38" transform="scale(0.015625)"/>
      <path d="M 2113 2584 
Q 1688 2584 1439 2293 
Q 1191 2003 1191 1497 
Q 1191 994 1439 701 
Q 1688 409 2113 409 
Q 2538 409 2786 701 
Q 3034 994 3034 1497 
Q 3034 2003 2786 2293 
Q 2538 2584 2113 2584 
z
M 3366 4563 
L 3366 3988 
Q 3128 4100 2886 4159 
Q 2644 4219 2406 4219 
Q 1781 4219 1451 3797 
Q 1122 3375 1075 2522 
Q 1259 2794 1537 2939 
Q 1816 3084 2150 3084 
Q 2853 3084 3261 2657 
Q 3669 2231 3669 1497 
Q 3669 778 3244 343 
Q 2819 -91 2113 -91 
Q 1303 -91 875 529 
Q 447 1150 447 2328 
Q 447 3434 972 4092 
Q 1497 4750 2381 4750 
Q 2619 4750 2861 4703 
Q 3103 4656 3366 4563 
z
" id="DejaVuSans-36" transform="scale(0.015625)"/>
      <path d="M 525 4666 
L 3525 4666 
L 3525 4397 
L 1831 0 
L 1172 0 
L 2766 4134 
L 525 4134 
L 525 4666 
z
" id="DejaVuSans-37" transform="scale(0.015625)"/>
     </defs>
     <use xlink:href="#DejaVuSans-69"/>
     <use x="27.783203" xlink:href="#DejaVuSans-6e"/>
     <use x="91.162109" xlink:href="#DejaVuSans-73"/>
     <use x="143.261719" xlink:href="#DejaVuSans-74"/>
     <use x="182.470703" xlink:href="#DejaVuSans-61"/>
     <use x="243.75" xlink:href="#DejaVuSans-6e"/>
     <use x="307.128906" xlink:href="#DejaVuSans-63"/>
     <use x="362.109375" xlink:href="#DejaVuSans-65"/>
     <use x="423.632812" xlink:href="#DejaVuSans-20"/>
     <use x="455.419922" xlink:href="#DejaVuSans-39"/>
     <use x="519.042969" xlink:href="#DejaVuSans-20"/>
     <use x="550.830078" xlink:href="#DejaVuSans-77"/>
     <use x="632.617188" xlink:href="#DejaVuSans-69"/>
     <use x="660.400391" xlink:href="#DejaVuSans-74"/>
     <use x="699.609375" xlink:href="#DejaVuSans-68"/>
     <use x="762.988281" xlink:href="#DejaVuSans-20"/>
     <use x="794.775391" xlink:href="#DejaVuSans-65"/>
     <use x="856.298828" xlink:href="#DejaVuSans-72"/>
     <use x="895.662109" xlink:href="#DejaVuSans-72"/>
     <use x="934.525391" xlink:href="#DejaVuSans-6f"/>
     <use x="995.707031" xlink:href="#DejaVuSans-72"/>
     <use x="1036.820312" xlink:href="#DejaVuSans-20"/>
     <use x="1068.607422" xlink:href="#DejaVuSans-30"/>
     <use x="1132.230469" xlink:href="#DejaVuSans-2e"/>
     <use x="1164.017578" xlink:href="#DejaVuSans-30"/>
     <use x="1227.640625" xlink:href="#DejaVuSans-30"/>
     <use x="1291.263672" xlink:href="#DejaVuSans-32"/>
     <use x="1354.886719" xlink:href="#DejaVuSans-33"/>
     <use x="1418.509766" xlink:href="#DejaVuSans-35"/>
     <use x="1482.132812" xlink:href="#DejaVuSans-38"/>
     <use x="1545.755859" xlink:href="#DejaVuSans-33"/>
     <use x="1609.378906" xlink:href="#DejaVuSans-33"/>
     <use x="1673.001953" xlink:href="#DejaVuSans-36"/>
     <use x="1736.625" xlink:href="#DejaVuSans-30"/>
     <use x="1800.248047" xlink:href="#DejaVuSans-36"/>
     <use x="1863.871094" xlink:href="#DejaVuSans-32"/>
     <use x="1927.494141" xlink:href="#DejaVuSans-38"/>
     <use x="1991.117188" xlink:href="#DejaVuSans-38"/>
     <use x="2054.740234" xlink:href="#DejaVuSans-38"/>
     <use x="2118.363281" xlink:href="#DejaVuSans-39"/>
     <use x="2181.986328" xlink:href="#DejaVuSans-33"/>
     <use x="2245.609375" xlink:href="#DejaVuSans-32"/>
     <use x="2309.232422" xlink:href="#DejaVuSans-37"/>
    </g>
   </g>
   <g id="legend_1">
    <g id="patch_7">
     <path d="M 805.348438 499 
L 900.2 499 
Q 902.2 499 902.2 497 
L 902.2 453.965625 
Q 902.2 451.965625 900.2 451.965625 
L 805.348438 451.965625 
Q 803.348438 451.965625 803.348438 453.965625 
L 803.348438 497 
Q 803.348438 499 805.348438 499 
z
" style="opacity:0.8;stroke:#cccccc;stroke-linejoin:miter;"/>
    </g>
    <g id="line2d_18">
     <path d="M 807.348438 460.064062 
L 827.348438 460.064062 
" style="fill:none;stroke:#8dd3c7;stroke-linecap:square;stroke-width:1.5;"/>
    </g>
    <g id="line2d_19"/>
    <g id="text_17">
     <!-- cost -->
     <g style="fill:#ffffff;" transform="translate(835.348438 463.564062)scale(0.1 -0.1)">
      <use xlink:href="#DejaVuSans-63"/>
      <use x="54.980469" xlink:href="#DejaVuSans-6f"/>
      <use x="116.162109" xlink:href="#DejaVuSans-73"/>
      <use x="168.261719" xlink:href="#DejaVuSans-74"/>
     </g>
    </g>
    <g id="line2d_20">
     <path d="M 807.348438 474.742188 
L 827.348438 474.742188 
" style="fill:none;stroke:#feffb3;stroke-linecap:square;stroke-width:1.5;"/>
    </g>
    <g id="line2d_21"/>
    <g id="text_18">
     <!-- best cost -->
     <g style="fill:#ffffff;" transform="translate(835.348438 478.242188)scale(0.1 -0.1)">
      <defs>
       <path d="M 3116 1747 
Q 3116 2381 2855 2742 
Q 2594 3103 2138 3103 
Q 1681 3103 1420 2742 
Q 1159 2381 1159 1747 
Q 1159 1113 1420 752 
Q 1681 391 2138 391 
Q 2594 391 2855 752 
Q 3116 1113 3116 1747 
z
M 1159 2969 
Q 1341 3281 1617 3432 
Q 1894 3584 2278 3584 
Q 2916 3584 3314 3078 
Q 3713 2572 3713 1747 
Q 3713 922 3314 415 
Q 2916 -91 2278 -91 
Q 1894 -91 1617 61 
Q 1341 213 1159 525 
L 1159 0 
L 581 0 
L 581 4863 
L 1159 4863 
L 1159 2969 
z
" id="DejaVuSans-62" transform="scale(0.015625)"/>
      </defs>
      <use xlink:href="#DejaVuSans-62"/>
      <use x="63.476562" xlink:href="#DejaVuSans-65"/>
      <use x="125" xlink:href="#DejaVuSans-73"/>
      <use x="177.099609" xlink:href="#DejaVuSans-74"/>
      <use x="216.308594" xlink:href="#DejaVuSans-20"/>
      <use x="248.095703" xlink:href="#DejaVuSans-63"/>
      <use x="303.076172" xlink:href="#DejaVuSans-6f"/>
      <use x="364.257812" xlink:href="#DejaVuSans-73"/>
      <use x="416.357422" xlink:href="#DejaVuSans-74"/>
     </g>
    </g>
    <g id="line2d_22">
     <path d="M 807.348438 489.420313 
L 827.348438 489.420313 
" style="fill:none;stroke:#bfbbd9;stroke-linecap:square;stroke-width:1.5;"/>
    </g>
    <g id="line2d_23"/>
    <g id="text_19">
     <!-- temperature -->
     <g style="fill:#ffffff;" transform="translate(835.348438 492.920313)scale(0.1 -0.1)">
      <defs>
       <path d="M 3328 2828 
Q 3544 3216 3844 3400 
Q 4144 3584 4550 3584 
Q 5097 3584 5394 3201 
Q 5691 2819 5691 2113 
L 5691 0 
L 5113 0 
L 5113 2094 
Q 5113 2597 4934 2840 
Q 4756 3084 4391 3084 
Q 3944 3084 3684 2787 
Q 3425 2491 3425 1978 
L 3425 0 
L 2847 0 
L 2847 2094 
Q 2847 2600 2669 2842 
Q 2491 3084 2119 3084 
Q 1678 3084 1418 2786 
Q 1159 2488 1159 1978 
L 1159 0 
L 581 0 
L 581 3500 
L 1159 3500 
L 1159 2956 
Q 1356 3278 1631 3431 
Q 1906 3584 2284 3584 
Q 2666 3584 2933 3390 
Q 3200 3197 3328 2828 
z
" id="DejaVuSans-6d" transform="scale(0.015625)"/>
       <path d="M 1159 525 
L 1159 -1331 
L 581 -1331 
L 581 3500 
L 1159 3500 
L 1159 2969 
Q 1341 3281 1617 3432 
Q 1894 3584 2278 3584 
Q 2916 3584 3314 3078 
Q 3713 2572 3713 1747 
Q 3713 922 3314 415 
Q 2916 -91 2278 -91 
Q 1894 -91 1617 61 
Q 1341 213 1159 525 
z
M 3116 1747 
Q 3116 2381 2855 2742 
Q 2594 3103 2138 3103 
Q 1681 3103 1420 2742 
Q 1159 2381 1159 1747 
Q 1159 1113 1420 752 
Q 1681 391 2138 391 
Q 2594 391 2855 752 
Q 3116 1113 3116 1747 
z
" id="DejaVuSans-70" transform="scale(0.015625)"/>
       <path d="M 544 1381 
L 544 3500 
L 1119 3500 
L 1119 1403 
Q 1119 906 1312 657 
Q 1506 409 1894 409 
Q 2359 409 2629 706 
Q 2900 1003 2900 1516 
L 2900 3500 
L 3475 3500 
L 3475 0 
L 2900 0 
L 2900 538 
Q 2691 219 2414 64 
Q 2138 -91 1772 -91 
Q 1169 -91 856 284 
Q 544 659 544 1381 
z
M 1991 3584 
L 1991 3584 
z
" id="DejaVuSans-75" transform="scale(0.015625)"/>
      </defs>
      <use xlink:href="#DejaVuSans-74"/>
      <use x="39.208984" xlink:href="#DejaVuSans-65"/>
      <use x="100.732422" xlink:href="#DejaVuSans-6d"/>
      <use x="198.144531" xlink:href="#DejaVuSans-70"/>
      <use x="261.621094" xlink:href="#DejaVuSans-65"/>
      <use x="323.144531" xlink:href="#DejaVuSans-72"/>
      <use x="364.257812" xlink:href="#DejaVuSans-61"/>
      <use x="425.537109" xlink:href="#DejaVuSans-74"/>
      <use x="464.746094" xlink:href="#DejaVuSans-75"/>
      <use x="528.125" xlink:href="#DejaVuSans-72"/>
      <use x="566.988281" xlink:href="#DejaVuSans-65"/>
     </g>
    </g>
   </g>
  </g>
 </g>
 <defs>
  <clipPath id="p758d26c2d6">
   <rect height="434.88" width="781.2" x="126" y="69.12"/>
  </clipPath>
 </defs>
</svg>
