<?xml version="1.0" encoding="utf-8" standalone="no"?>
<!DOCTYPE svg PUBLIC "-//W3C//DTD SVG 1.1//EN"
  "http://www.w3.org/Graphics/SVG/1.1/DTD/svg11.dtd">
<svg height="576pt" version="1.1" viewBox="0 0 1008 576" width="1008pt" xmlns="http://www.w3.org/2000/svg" xmlns:xlink="http://www.w3.org/1999/xlink">
 <metadata>
  <rdf:RDF xmlns:cc="http://creativecommons.org/ns#" xmlns:dc="http://purl.org/dc/elements/1.1/" xmlns:rdf="http://www.w3.org/1999/02/22-rdf-syntax-ns#">
   <cc:Work>
    <dc:type rdf:resource="http://purl.org/dc/dcmitype/StillImage"/>
    <dc:date>2022-01-07T21:26:20.678027</dc:date>
    <dc:format>image/svg+xml</dc:format>
    <dc:creator>
     <cc:Agent>
      <dc:title>Matplotlib v3.4.3, https://matplotlib.org/</dc:title>
     </cc:Agent>
    </dc:creator>
   </cc:Work>
  </rdf:RDF>
 </metadata>
 <defs>
  <style type="text/css">*{stroke-linecap:butt;stroke-linejoin:round;}</style>
 </defs>
 <g id="figure_1">
  <g id="patch_1">
   <path d="M 0 576 
L 1008 576 
L 1008 0 
L 0 0 
z
"/>
  </g>
  <g id="axes_1">
   <g id="patch_2">
    <path d="M 126 504 
L 907.2 504 
L 907.2 69.12 
L 126 69.12 
z
"/>
   </g>
   <g id="matplotlib.axis_1">
    <g id="xtick_1">
     <g id="line2d_1">
      <defs>
       <path d="M 0 0 
L 0 3.5 
" id="m3403fbeab8" style="stroke:#ffffff;stroke-width:0.8;"/>
      </defs>
      <g>
       <use style="fill:#ffffff;stroke:#ffffff;stroke-width:0.8;" x="161.509091" xlink:href="#m3403fbeab8" y="504"/>
      </g>
     </g>
     <g id="text_1">
      <!-- 0 -->
      <g style="fill:#ffffff;" transform="translate(158.327841 518.598438)scale(0.1 -0.1)">
       <defs>
        <path d="M 2034 4250 
Q 1547 4250 1301 3770 
Q 1056 3291 1056 2328 
Q 1056 1369 1301 889 
Q 1547 409 2034 409 
Q 2525 409 2770 889 
Q 3016 1369 3016 2328 
Q 3016 3291 2770 3770 
Q 2525 4250 2034 4250 
z
M 2034 4750 
Q 2819 4750 3233 4129 
Q 3647 3509 3647 2328 
Q 3647 1150 3233 529 
Q 2819 -91 2034 -91 
Q 1250 -91 836 529 
Q 422 1150 422 2328 
Q 422 3509 836 4129 
Q 1250 4750 2034 4750 
z
" id="DejaVuSans-30" transform="scale(0.015625)"/>
       </defs>
       <use xlink:href="#DejaVuSans-30"/>
      </g>
     </g>
    </g>
    <g id="xtick_2">
     <g id="line2d_2">
      <g>
       <use style="fill:#ffffff;stroke:#ffffff;stroke-width:0.8;" x="331.003558" xlink:href="#m3403fbeab8" y="504"/>
      </g>
     </g>
     <g id="text_2">
      <!-- 500 -->
      <g style="fill:#ffffff;" transform="translate(321.459808 518.598438)scale(0.1 -0.1)">
       <defs>
        <path d="M 691 4666 
L 3169 4666 
L 3169 4134 
L 1269 4134 
L 1269 2991 
Q 1406 3038 1543 3061 
Q 1681 3084 1819 3084 
Q 2600 3084 3056 2656 
Q 3513 2228 3513 1497 
Q 3513 744 3044 326 
Q 2575 -91 1722 -91 
Q 1428 -91 1123 -41 
Q 819 9 494 109 
L 494 744 
Q 775 591 1075 516 
Q 1375 441 1709 441 
Q 2250 441 2565 725 
Q 2881 1009 2881 1497 
Q 2881 1984 2565 2268 
Q 2250 2553 1709 2553 
Q 1456 2553 1204 2497 
Q 953 2441 691 2322 
L 691 4666 
z
" id="DejaVuSans-35" transform="scale(0.015625)"/>
       </defs>
       <use xlink:href="#DejaVuSans-35"/>
       <use x="63.623047" xlink:href="#DejaVuSans-30"/>
       <use x="127.246094" xlink:href="#DejaVuSans-30"/>
      </g>
     </g>
    </g>
    <g id="xtick_3">
     <g id="line2d_3">
      <g>
       <use style="fill:#ffffff;stroke:#ffffff;stroke-width:0.8;" x="500.498026" xlink:href="#m3403fbeab8" y="504"/>
      </g>
     </g>
     <g id="text_3">
      <!-- 1000 -->
      <g style="fill:#ffffff;" transform="translate(487.773026 518.598438)scale(0.1 -0.1)">
       <defs>
        <path d="M 794 531 
L 1825 531 
L 1825 4091 
L 703 3866 
L 703 4441 
L 1819 4666 
L 2450 4666 
L 2450 531 
L 3481 531 
L 3481 0 
L 794 0 
L 794 531 
z
" id="DejaVuSans-31" transform="scale(0.015625)"/>
       </defs>
       <use xlink:href="#DejaVuSans-31"/>
       <use x="63.623047" xlink:href="#DejaVuSans-30"/>
       <use x="127.246094" xlink:href="#DejaVuSans-30"/>
       <use x="190.869141" xlink:href="#DejaVuSans-30"/>
      </g>
     </g>
    </g>
    <g id="xtick_4">
     <g id="line2d_4">
      <g>
       <use style="fill:#ffffff;stroke:#ffffff;stroke-width:0.8;" x="669.992493" xlink:href="#m3403fbeab8" y="504"/>
      </g>
     </g>
     <g id="text_4">
      <!-- 1500 -->
      <g style="fill:#ffffff;" transform="translate(657.267493 518.598438)scale(0.1 -0.1)">
       <use xlink:href="#DejaVuSans-31"/>
       <use x="63.623047" xlink:href="#DejaVuSans-35"/>
       <use x="127.246094" xlink:href="#DejaVuSans-30"/>
       <use x="190.869141" xlink:href="#DejaVuSans-30"/>
      </g>
     </g>
    </g>
    <g id="xtick_5">
     <g id="line2d_5">
      <g>
       <use style="fill:#ffffff;stroke:#ffffff;stroke-width:0.8;" x="839.48696" xlink:href="#m3403fbeab8" y="504"/>
      </g>
     </g>
     <g id="text_5">
      <!-- 2000 -->
      <g style="fill:#ffffff;" transform="translate(826.76196 518.598438)scale(0.1 -0.1)">
       <defs>
        <path d="M 1228 531 
L 3431 531 
L 3431 0 
L 469 0 
L 469 531 
Q 828 903 1448 1529 
Q 2069 2156 2228 2338 
Q 2531 2678 2651 2914 
Q 2772 3150 2772 3378 
Q 2772 3750 2511 3984 
Q 2250 4219 1831 4219 
Q 1534 4219 1204 4116 
Q 875 4013 500 3803 
L 500 4441 
Q 881 4594 1212 4672 
Q 1544 4750 1819 4750 
Q 2544 4750 2975 4387 
Q 3406 4025 3406 3419 
Q 3406 3131 3298 2873 
Q 3191 2616 2906 2266 
Q 2828 2175 2409 1742 
Q 1991 1309 1228 531 
z
" id="DejaVuSans-32" transform="scale(0.015625)"/>
       </defs>
       <use xlink:href="#DejaVuSans-32"/>
       <use x="63.623047" xlink:href="#DejaVuSans-30"/>
       <use x="127.246094" xlink:href="#DejaVuSans-30"/>
       <use x="190.869141" xlink:href="#DejaVuSans-30"/>
      </g>
     </g>
    </g>
    <g id="text_6">
     <!-- iteration -->
     <g style="fill:#ffffff;" transform="translate(495.477344 532.276562)scale(0.1 -0.1)">
      <defs>
       <path d="M 603 3500 
L 1178 3500 
L 1178 0 
L 603 0 
L 603 3500 
z
M 603 4863 
L 1178 4863 
L 1178 4134 
L 603 4134 
L 603 4863 
z
" id="DejaVuSans-69" transform="scale(0.015625)"/>
       <path d="M 1172 4494 
L 1172 3500 
L 2356 3500 
L 2356 3053 
L 1172 3053 
L 1172 1153 
Q 1172 725 1289 603 
Q 1406 481 1766 481 
L 2356 481 
L 2356 0 
L 1766 0 
Q 1100 0 847 248 
Q 594 497 594 1153 
L 594 3053 
L 172 3053 
L 172 3500 
L 594 3500 
L 594 4494 
L 1172 4494 
z
" id="DejaVuSans-74" transform="scale(0.015625)"/>
       <path d="M 3597 1894 
L 3597 1613 
L 953 1613 
Q 991 1019 1311 708 
Q 1631 397 2203 397 
Q 2534 397 2845 478 
Q 3156 559 3463 722 
L 3463 178 
Q 3153 47 2828 -22 
Q 2503 -91 2169 -91 
Q 1331 -91 842 396 
Q 353 884 353 1716 
Q 353 2575 817 3079 
Q 1281 3584 2069 3584 
Q 2775 3584 3186 3129 
Q 3597 2675 3597 1894 
z
M 3022 2063 
Q 3016 2534 2758 2815 
Q 2500 3097 2075 3097 
Q 1594 3097 1305 2825 
Q 1016 2553 972 2059 
L 3022 2063 
z
" id="DejaVuSans-65" transform="scale(0.015625)"/>
       <path d="M 2631 2963 
Q 2534 3019 2420 3045 
Q 2306 3072 2169 3072 
Q 1681 3072 1420 2755 
Q 1159 2438 1159 1844 
L 1159 0 
L 581 0 
L 581 3500 
L 1159 3500 
L 1159 2956 
Q 1341 3275 1631 3429 
Q 1922 3584 2338 3584 
Q 2397 3584 2469 3576 
Q 2541 3569 2628 3553 
L 2631 2963 
z
" id="DejaVuSans-72" transform="scale(0.015625)"/>
       <path d="M 2194 1759 
Q 1497 1759 1228 1600 
Q 959 1441 959 1056 
Q 959 750 1161 570 
Q 1363 391 1709 391 
Q 2188 391 2477 730 
Q 2766 1069 2766 1631 
L 2766 1759 
L 2194 1759 
z
M 3341 1997 
L 3341 0 
L 2766 0 
L 2766 531 
Q 2569 213 2275 61 
Q 1981 -91 1556 -91 
Q 1019 -91 701 211 
Q 384 513 384 1019 
Q 384 1609 779 1909 
Q 1175 2209 1959 2209 
L 2766 2209 
L 2766 2266 
Q 2766 2663 2505 2880 
Q 2244 3097 1772 3097 
Q 1472 3097 1187 3025 
Q 903 2953 641 2809 
L 641 3341 
Q 956 3463 1253 3523 
Q 1550 3584 1831 3584 
Q 2591 3584 2966 3190 
Q 3341 2797 3341 1997 
z
" id="DejaVuSans-61" transform="scale(0.015625)"/>
       <path d="M 1959 3097 
Q 1497 3097 1228 2736 
Q 959 2375 959 1747 
Q 959 1119 1226 758 
Q 1494 397 1959 397 
Q 2419 397 2687 759 
Q 2956 1122 2956 1747 
Q 2956 2369 2687 2733 
Q 2419 3097 1959 3097 
z
M 1959 3584 
Q 2709 3584 3137 3096 
Q 3566 2609 3566 1747 
Q 3566 888 3137 398 
Q 2709 -91 1959 -91 
Q 1206 -91 779 398 
Q 353 888 353 1747 
Q 353 2609 779 3096 
Q 1206 3584 1959 3584 
z
" id="DejaVuSans-6f" transform="scale(0.015625)"/>
       <path d="M 3513 2113 
L 3513 0 
L 2938 0 
L 2938 2094 
Q 2938 2591 2744 2837 
Q 2550 3084 2163 3084 
Q 1697 3084 1428 2787 
Q 1159 2491 1159 1978 
L 1159 0 
L 581 0 
L 581 3500 
L 1159 3500 
L 1159 2956 
Q 1366 3272 1645 3428 
Q 1925 3584 2291 3584 
Q 2894 3584 3203 3211 
Q 3513 2838 3513 2113 
z
" id="DejaVuSans-6e" transform="scale(0.015625)"/>
      </defs>
      <use xlink:href="#DejaVuSans-69"/>
      <use x="27.783203" xlink:href="#DejaVuSans-74"/>
      <use x="66.992188" xlink:href="#DejaVuSans-65"/>
      <use x="128.515625" xlink:href="#DejaVuSans-72"/>
      <use x="169.628906" xlink:href="#DejaVuSans-61"/>
      <use x="230.908203" xlink:href="#DejaVuSans-74"/>
      <use x="270.117188" xlink:href="#DejaVuSans-69"/>
      <use x="297.900391" xlink:href="#DejaVuSans-6f"/>
      <use x="359.082031" xlink:href="#DejaVuSans-6e"/>
     </g>
    </g>
   </g>
   <g id="matplotlib.axis_2">
    <g id="ytick_1">
     <g id="line2d_6">
      <defs>
       <path d="M 0 0 
L -3.5 0 
" id="m4e995184fc" style="stroke:#ffffff;stroke-width:0.8;"/>
      </defs>
      <g>
       <use style="fill:#ffffff;stroke:#ffffff;stroke-width:0.8;" x="126" xlink:href="#m4e995184fc" y="484.232727"/>
      </g>
     </g>
     <g id="text_7">
      <!-- 0 -->
      <g style="fill:#ffffff;" transform="translate(112.6375 488.031946)scale(0.1 -0.1)">
       <use xlink:href="#DejaVuSans-30"/>
      </g>
     </g>
    </g>
    <g id="ytick_2">
     <g id="line2d_7">
      <g>
       <use style="fill:#ffffff;stroke:#ffffff;stroke-width:0.8;" x="126" xlink:href="#m4e995184fc" y="419.332626"/>
      </g>
     </g>
     <g id="text_8">
      <!-- 5000 -->
      <g style="fill:#ffffff;" transform="translate(93.55 423.131845)scale(0.1 -0.1)">
       <use xlink:href="#DejaVuSans-35"/>
       <use x="63.623047" xlink:href="#DejaVuSans-30"/>
       <use x="127.246094" xlink:href="#DejaVuSans-30"/>
       <use x="190.869141" xlink:href="#DejaVuSans-30"/>
      </g>
     </g>
    </g>
    <g id="ytick_3">
     <g id="line2d_8">
      <g>
       <use style="fill:#ffffff;stroke:#ffffff;stroke-width:0.8;" x="126" xlink:href="#m4e995184fc" y="354.432526"/>
      </g>
     </g>
     <g id="text_9">
      <!-- 10000 -->
      <g style="fill:#ffffff;" transform="translate(87.1875 358.231744)scale(0.1 -0.1)">
       <use xlink:href="#DejaVuSans-31"/>
       <use x="63.623047" xlink:href="#DejaVuSans-30"/>
       <use x="127.246094" xlink:href="#DejaVuSans-30"/>
       <use x="190.869141" xlink:href="#DejaVuSans-30"/>
       <use x="254.492188" xlink:href="#DejaVuSans-30"/>
      </g>
     </g>
    </g>
    <g id="ytick_4">
     <g id="line2d_9">
      <g>
       <use style="fill:#ffffff;stroke:#ffffff;stroke-width:0.8;" x="126" xlink:href="#m4e995184fc" y="289.532425"/>
      </g>
     </g>
     <g id="text_10">
      <!-- 15000 -->
      <g style="fill:#ffffff;" transform="translate(87.1875 293.331643)scale(0.1 -0.1)">
       <use xlink:href="#DejaVuSans-31"/>
       <use x="63.623047" xlink:href="#DejaVuSans-35"/>
       <use x="127.246094" xlink:href="#DejaVuSans-30"/>
       <use x="190.869141" xlink:href="#DejaVuSans-30"/>
       <use x="254.492188" xlink:href="#DejaVuSans-30"/>
      </g>
     </g>
    </g>
    <g id="ytick_5">
     <g id="line2d_10">
      <g>
       <use style="fill:#ffffff;stroke:#ffffff;stroke-width:0.8;" x="126" xlink:href="#m4e995184fc" y="224.632324"/>
      </g>
     </g>
     <g id="text_11">
      <!-- 20000 -->
      <g style="fill:#ffffff;" transform="translate(87.1875 228.431543)scale(0.1 -0.1)">
       <use xlink:href="#DejaVuSans-32"/>
       <use x="63.623047" xlink:href="#DejaVuSans-30"/>
       <use x="127.246094" xlink:href="#DejaVuSans-30"/>
       <use x="190.869141" xlink:href="#DejaVuSans-30"/>
       <use x="254.492188" xlink:href="#DejaVuSans-30"/>
      </g>
     </g>
    </g>
    <g id="ytick_6">
     <g id="line2d_11">
      <g>
       <use style="fill:#ffffff;stroke:#ffffff;stroke-width:0.8;" x="126" xlink:href="#m4e995184fc" y="159.732223"/>
      </g>
     </g>
     <g id="text_12">
      <!-- 25000 -->
      <g style="fill:#ffffff;" transform="translate(87.1875 163.531442)scale(0.1 -0.1)">
       <use xlink:href="#DejaVuSans-32"/>
       <use x="63.623047" xlink:href="#DejaVuSans-35"/>
       <use x="127.246094" xlink:href="#DejaVuSans-30"/>
       <use x="190.869141" xlink:href="#DejaVuSans-30"/>
       <use x="254.492188" xlink:href="#DejaVuSans-30"/>
      </g>
     </g>
    </g>
    <g id="ytick_7">
     <g id="line2d_12">
      <g>
       <use style="fill:#ffffff;stroke:#ffffff;stroke-width:0.8;" x="126" xlink:href="#m4e995184fc" y="94.832122"/>
      </g>
     </g>
     <g id="text_13">
      <!-- 30000 -->
      <g style="fill:#ffffff;" transform="translate(87.1875 98.631341)scale(0.1 -0.1)">
       <defs>
        <path d="M 2597 2516 
Q 3050 2419 3304 2112 
Q 3559 1806 3559 1356 
Q 3559 666 3084 287 
Q 2609 -91 1734 -91 
Q 1441 -91 1130 -33 
Q 819 25 488 141 
L 488 750 
Q 750 597 1062 519 
Q 1375 441 1716 441 
Q 2309 441 2620 675 
Q 2931 909 2931 1356 
Q 2931 1769 2642 2001 
Q 2353 2234 1838 2234 
L 1294 2234 
L 1294 2753 
L 1863 2753 
Q 2328 2753 2575 2939 
Q 2822 3125 2822 3475 
Q 2822 3834 2567 4026 
Q 2313 4219 1838 4219 
Q 1578 4219 1281 4162 
Q 984 4106 628 3988 
L 628 4550 
Q 988 4650 1302 4700 
Q 1616 4750 1894 4750 
Q 2613 4750 3031 4423 
Q 3450 4097 3450 3541 
Q 3450 3153 3228 2886 
Q 3006 2619 2597 2516 
z
" id="DejaVuSans-33" transform="scale(0.015625)"/>
       </defs>
       <use xlink:href="#DejaVuSans-33"/>
       <use x="63.623047" xlink:href="#DejaVuSans-30"/>
       <use x="127.246094" xlink:href="#DejaVuSans-30"/>
       <use x="190.869141" xlink:href="#DejaVuSans-30"/>
       <use x="254.492188" xlink:href="#DejaVuSans-30"/>
      </g>
     </g>
    </g>
   </g>
   <g id="line2d_13">
    <path clip-path="url(#p8ec6c20841)" d="M 161.509091 242.986072 
L 161.84808 262.819543 
L 162.187069 263.416624 
L 162.526058 290.999167 
L 162.865047 328.654206 
L 163.204036 310.027877 
L 163.543025 278.927748 
L 163.882013 346.904114 
L 164.221002 344.13937 
L 164.559991 348.825157 
L 164.89898 332.742912 
L 165.237969 303.421046 
L 165.576958 328.316725 
L 165.915947 329.562807 
L 166.254936 304.264748 
L 166.593925 291.051087 
L 166.932914 312.883481 
L 167.271903 322.748296 
L 167.610892 345.359491 
L 167.949881 331.120409 
L 168.28887 359.572614 
L 168.966847 304.680108 
L 169.305836 307.120352 
L 169.644825 296.801236 
L 169.983814 298.449699 
L 170.661792 354.367625 
L 171.000781 340.985225 
L 171.678759 281.822293 
L 172.017748 309.885096 
L 172.356737 286.41722 
L 173.034715 312.23448 
L 173.373704 300.046241 
L 173.712693 323.514118 
L 174.051681 321.073874 
L 174.39067 323.514118 
L 174.729659 294.438872 
L 175.068648 320.879173 
L 175.407637 313.324802 
L 175.746626 314.960284 
L 176.085615 284.638957 
L 176.424604 286.897481 
L 176.763593 297.216597 
L 177.102582 274.903942 
L 177.441571 260.66486 
L 177.78056 258.406336 
L 178.119549 251.916326 
L 178.458538 251.916326 
L 178.797527 287.144101 
L 179.136516 279.369069 
L 179.475504 302.032184 
L 179.814493 314.635784 
L 180.153482 292.323129 
L 180.492471 280.13489 
L 180.83146 303.187406 
L 181.170449 272.087278 
L 181.509438 276.786045 
L 181.848427 262.546963 
L 182.865394 319.010051 
L 183.543372 370.08643 
L 183.882361 378.536423 
L 184.560338 367.204865 
L 184.899327 372.669454 
L 185.238316 347.773775 
L 185.577305 335.585536 
L 185.916294 344.19129 
L 186.594272 400.187097 
L 186.933261 390.750622 
L 187.27225 419.825867 
L 187.611239 414.361279 
L 187.950228 402.731181 
L 188.289217 376.29088 
L 188.628206 376.29088 
L 189.306184 331.40597 
L 189.645172 324.91596 
L 189.984161 325.00682 
L 190.32315 322.566576 
L 190.662139 307.873193 
L 191.001128 301.383183 
L 191.340117 323.994378 
L 191.679106 294.919133 
L 192.018095 317.971649 
L 192.357084 287.650322 
L 192.696073 311.235018 
L 193.035062 311.572499 
L 193.374051 292.271209 
L 193.71304 321.346454 
L 194.052029 292.271209 
L 194.391018 286.27444 
L 194.730007 316.595767 
L 195.068995 293.12789 
L 195.407984 278.888808 
L 195.746973 283.756316 
L 196.085962 257.316015 
L 196.424951 284.119756 
L 196.76394 334.832695 
L 197.102929 324.409739 
L 197.441918 324.409739 
L 197.780907 349.707798 
L 198.119896 320.385933 
L 198.458885 307.886173 
L 198.797874 307.886173 
L 199.136863 320.385933 
L 199.475852 308.197694 
L 199.814841 301.707684 
L 200.153829 275.267383 
L 200.492818 293.478351 
L 200.831807 280.09595 
L 201.170796 289.805005 
L 201.509785 289.805005 
L 201.848774 303.018666 
L 202.526752 246.620478 
L 203.20473 217.908673 
L 203.543719 193.129815 
L 203.882708 232.861657 
L 204.899675 312.52004 
L 205.238663 283.198175 
L 205.577652 283.289035 
L 206.25563 255.836292 
L 206.594619 281.134352 
L 206.933608 268.946113 
L 207.272597 291.998629 
L 207.611586 293.25769 
L 208.289564 350.175079 
L 208.628553 323.734778 
L 208.967542 312.49408 
L 209.306531 287.196021 
L 209.64552 312.49408 
L 209.984509 314.895384 
L 210.323498 334.118794 
L 210.662486 307.678493 
L 211.001475 295.516214 
L 211.679453 235.09422 
L 212.018442 218.661514 
L 212.357431 232.900597 
L 212.69642 203.825351 
L 213.035409 216.01359 
L 213.374398 238.326245 
L 213.713387 211.743164 
L 214.052376 240.818409 
L 214.391365 212.755605 
L 214.730354 240.636689 
L 215.069343 234.146679 
L 215.408332 207.342937 
L 215.74732 229.175331 
L 216.086309 237.936844 
L 216.425298 262.832523 
L 216.764287 241.80489 
L 217.103276 243.985534 
L 217.442265 263.286824 
L 217.781254 236.703743 
L 218.120243 250.475544 
L 218.459232 237.093143 
L 218.798221 281.848253 
L 219.13721 309.794236 
L 219.476199 283.211155 
L 219.815188 280.23873 
L 220.493166 332.288611 
L 220.832154 342.607727 
L 221.171143 330.419488 
L 221.510132 302.356685 
L 221.849121 288.117602 
L 222.18811 307.418892 
L 222.527099 285.106238 
L 222.866088 305.78341 
L 223.205077 302.577345 
L 223.544066 280.08297 
L 223.883055 320.879173 
L 224.222044 307.665513 
L 224.561033 281.082432 
L 224.900022 279.654629 
L 225.239011 281.199252 
L 225.578 294.412912 
L 225.916989 299.28042 
L 226.255977 325.863501 
L 226.594966 299.994321 
L 226.933955 298.358838 
L 227.272944 303.161446 
L 227.950922 357.09343 
L 228.289911 333.625553 
L 228.6289 352.589363 
L 228.967889 352.926843 
L 229.645867 307.263132 
L 230.323845 342.140446 
L 230.662834 377.562922 
L 231.001823 348.487676 
L 231.340811 353.835445 
L 231.6798 335.961957 
L 232.018789 346.281073 
L 232.357778 317.205828 
L 232.696767 317.205828 
L 233.035756 291.907768 
L 233.374745 296.775276 
L 233.713734 309.275035 
L 234.052723 301.720664 
L 234.391712 328.887846 
L 234.730701 334.637995 
L 235.06969 345.593132 
L 236.086657 306.704991 
L 236.425645 329.835387 
L 236.764634 303.395086 
L 237.103623 291.206847 
L 237.442612 261.884982 
L 237.781601 266.752489 
L 238.12059 260.262479 
L 238.459579 250.280844 
L 239.137557 273.81362 
L 239.476546 296.424815 
L 239.815535 308.613054 
L 240.493513 256.446353 
L 240.832502 254.006109 
L 241.171491 260.49612 
L 241.510479 229.395991 
L 241.849468 363.85602 
L 242.188457 350.64236 
L 242.527446 394.566748 
L 242.866435 394.566748 
L 243.205424 413.868038 
L 243.544413 409.00053 
L 243.883402 386.687876 
L 244.222391 386.778736 
L 244.900369 406.534327 
L 245.239358 400.044317 
L 245.578347 370.969071 
L 245.917336 393.281726 
L 246.256325 364.829522 
L 246.595314 363.194039 
L 246.934302 353.212404 
L 247.273291 323.890538 
L 247.61228 330.380548 
L 247.951269 323.890538 
L 248.290258 334.092834 
L 248.629247 338.960342 
L 248.968236 338.622861 
L 249.307225 348.396816 
L 249.646214 351.550961 
L 249.985203 366.971225 
L 250.324192 359.468773 
L 250.663181 333.599593 
L 251.00217 324.90298 
L 251.341159 294.140332 
L 251.680148 295.970515 
L 252.019136 282.588114 
L 252.358125 291.959688 
L 252.697114 285.469678 
L 253.036103 263.157024 
L 253.375092 276.539424 
L 253.714081 296.944016 
L 254.05307 289.623285 
L 254.392059 320.723413 
L 254.731048 289.623285 
L 255.409026 356.158868 
L 255.748015 329.575787 
L 256.087004 323.656898 
L 256.425993 323.630938 
L 256.764982 329.549827 
L 257.10397 305.83533 
L 257.442959 307.470813 
L 257.781948 281.030511 
L 258.120937 267.816851 
L 258.459926 277.370146 
L 259.137904 338.480081 
L 259.476893 351.888442 
L 259.815882 382.209769 
L 260.154871 370.02153 
L 260.49386 364.556941 
L 260.832849 364.556941 
L 261.171838 385.532654 
L 261.510827 373.487195 
L 261.849816 365.932823 
L 262.527793 317.179868 
L 262.866782 317.179868 
L 263.205771 324.734239 
L 263.54476 324.734239 
L 263.883749 327.992224 
L 264.222738 352.109102 
L 264.561727 350.62938 
L 264.900716 378.692183 
L 265.239705 352.109102 
L 265.578694 372.825214 
L 265.917683 359.442813 
L 266.256672 294.036492 
L 266.595661 349.175617 
L 266.93465 318.075489 
L 267.273639 304.108987 
L 267.612627 305.355069 
L 267.951616 313.805062 
L 268.290605 288.507003 
L 268.629594 285.612459 
L 268.968583 298.994859 
L 269.307572 292.504849 
L 269.646561 280.31661 
L 269.98555 272.762239 
L 270.324539 246.321938 
L 270.663528 245.296516 
L 271.002517 226.696147 
L 271.680495 344.56771 
L 272.019484 344.56771 
L 272.358473 319.269651 
L 272.697461 372.890114 
L 273.03645 378.354703 
L 273.375439 349.032837 
L 273.714428 335.118256 
L 274.053417 361.636437 
L 274.392406 345.151811 
L 274.731395 359.066393 
L 275.070384 351.512021 
L 275.409373 380.587266 
L 275.748362 357.53475 
L 276.087351 352.667243 
L 276.765329 293.504311 
L 277.104318 301.058683 
L 277.443307 300.941862 
L 277.782296 305.80937 
L 278.121284 283.496715 
L 278.799262 309.820196 
L 279.138251 340.141523 
L 279.47724 352.329762 
L 279.816229 375.797639 
L 280.155218 375.706779 
L 280.494207 361.467697 
L 280.833196 386.363375 
L 281.172185 357.911171 
L 281.511174 344.08745 
L 281.850163 369.671069 
L 282.189152 346.618553 
L 282.528141 315.518425 
L 282.86713 328.667186 
L 283.206118 328.667186 
L 283.545107 316.167426 
L 283.884096 331.43193 
L 284.223085 359.884134 
L 284.901063 310.767738 
L 285.240052 313.207981 
L 285.579041 335.520636 
L 285.91803 307.457833 
L 286.257019 302.590325 
L 286.596008 330.653129 
L 286.934997 330.536308 
L 287.273986 315.375645 
L 287.612975 292.024589 
L 287.951964 287.170061 
L 288.290952 310.637938 
L 288.629941 320.957054 
L 288.96893 295.658994 
L 289.307919 290.194406 
L 289.646908 264.325225 
L 289.985897 265.350647 
L 290.324886 237.287843 
L 290.663875 262.585903 
L 291.002864 275.475063 
L 291.341853 246.153197 
L 291.680842 233.964958 
L 292.35882 291.349628 
L 292.697809 329.666647 
L 293.375787 319.801832 
L 293.714775 344.30811 
L 294.053764 357.52177 
L 294.392753 357.43091 
L 294.731742 355.328147 
L 295.070731 369.242729 
L 295.40972 362.752719 
L 295.748709 372.189193 
L 296.087698 367.321686 
L 296.426687 337.99982 
L 296.765676 348.318936 
L 297.443654 290.415066 
L 297.782643 317.218808 
L 298.121632 290.778507 
L 298.460621 278.278747 
L 298.799609 272.814159 
L 299.138598 265.259787 
L 299.477587 267.583211 
L 299.816576 298.683339 
L 300.155565 296.100315 
L 300.494554 325.42218 
L 300.833543 315.985706 
L 301.172532 321.047914 
L 301.511521 291.726048 
L 301.85051 297.190637 
L 302.189499 272.294958 
L 302.867477 325.642841 
L 303.206466 303.330186 
L 303.545455 303.447006 
L 303.884443 276.863925 
L 304.223432 266.544809 
L 304.562421 295.866675 
L 305.240399 239.741067 
L 305.579388 269.062933 
L 305.918377 328.900826 
L 306.257366 355.483907 
L 306.596355 346.501733 
L 306.935344 367.840886 
L 307.274333 345.528232 
L 307.952311 339.142062 
L 308.630289 366.490964 
L 309.647255 297.800698 
L 309.986244 292.050549 
L 310.325233 294.659533 
L 310.664222 301.928344 
L 311.003211 276.630285 
L 311.3422 295.931575 
L 311.681189 325.25344 
L 312.020178 320.385933 
L 312.698156 279.511849 
L 313.037145 289.350704 
L 313.376134 303.265286 
L 313.715123 298.397778 
L 314.3931 272.359858 
L 314.732089 273.034819 
L 315.071078 299.47512 
L 315.410067 311.97488 
L 315.749056 311.884019 
L 316.088045 307.717433 
L 316.427034 331.185309 
L 317.105012 276.617305 
L 317.444001 286.053779 
L 317.78299 256.731914 
L 318.460968 317.153908 
L 318.799957 367.542346 
L 319.477934 320.684473 
L 319.816923 307.535713 
L 320.155912 320.749373 
L 320.494901 320.632553 
L 320.83389 313.779102 
L 321.172879 291.583268 
L 321.511868 313.895923 
L 321.850857 313.805062 
L 322.189846 301.136563 
L 322.528835 293.582191 
L 322.867824 348.111256 
L 323.206813 320.139312 
L 323.545802 306.756911 
L 323.884791 325.967341 
L 324.901757 242.674552 
L 325.240746 268.543732 
L 325.918724 252.617247 
L 326.257713 335.780237 
L 326.596702 315.907826 
L 327.27468 329.394067 
L 327.613669 323.033857 
L 327.952658 320.009512 
L 328.630636 269.815774 
L 328.969625 277.240346 
L 329.308614 257.939056 
L 329.647603 258.081836 
L 329.986591 284.522137 
L 330.32558 284.612997 
L 330.664569 275.176522 
L 331.003558 284.612997 
L 331.342547 261.560481 
L 331.681536 251.241365 
L 332.020525 278.538348 
L 332.359514 278.538348 
L 332.698503 249.216482 
L 333.037492 253.668629 
L 333.376481 284.522137 
L 333.71547 277.019685 
L 334.054459 289.584345 
L 334.393448 320.684473 
L 334.732437 293.880731 
L 335.071425 323.202597 
L 335.410414 336.377318 
L 335.749403 315.349685 
L 336.088392 324.786159 
L 336.427381 299.20254 
L 336.76637 308.301534 
L 337.105359 321.515194 
L 337.444348 316.647687 
L 337.783337 329.536847 
L 338.122326 355.120467 
L 338.461315 329.666647 
L 338.800304 327.550904 
L 339.139293 322.683396 
L 339.817271 298.190098 
L 340.156259 271.749797 
L 340.495248 276.773065 
L 340.834237 301.577883 
L 341.173226 295.087873 
L 341.512215 320.957054 
L 341.851204 320.866193 
L 342.190193 318.38701 
L 342.868171 369.502329 
L 343.20716 371.137812 
L 343.546149 365.673223 
L 343.885138 352.459563 
L 344.224127 366.374144 
L 344.563116 371.838733 
L 345.241094 320.152292 
L 345.580082 320.243152 
L 345.919071 319.905672 
L 346.25806 333.119332 
L 346.597049 304.667128 
L 346.936038 316.959207 
L 347.275027 321.826715 
L 347.614016 334.326474 
L 347.953005 326.772103 
L 348.291994 301.876424 
L 348.630983 312.19554 
L 349.308961 279.680589 
L 349.64795 330.990609 
L 349.986939 346.307033 
L 350.325928 321.008974 
L 350.664916 357.28813 
L 351.003905 304.965669 
L 351.342894 304.005147 
L 351.681883 299.13764 
L 352.020872 299.26744 
L 352.359861 285.885039 
L 352.69885 281.017531 
L 353.037839 288.532963 
L 353.376828 286.33934 
L 353.715817 322.319956 
L 354.054806 327.784544 
L 354.393795 327.693684 
L 354.732784 314.311283 
L 355.071773 327.018723 
L 355.410762 355.470927 
L 355.74975 329.887307 
L 356.088739 360.208635 
L 356.427728 352.654263 
L 356.766717 323.332397 
L 357.105706 345.943592 
L 357.444695 343.503349 
L 357.783684 315.440545 
L 358.122673 315.440545 
L 358.461662 318.52979 
L 358.800651 304.290708 
L 359.13964 315.868886 
L 359.478629 286.54702 
L 360.156607 335.312956 
L 360.495596 322.099295 
L 360.834585 336.338377 
L 361.173573 328.784006 
L 361.512562 340.972245 
L 362.19054 318.46489 
L 362.529529 341.063105 
L 362.868518 397.681953 
L 363.207507 409.961052 
L 363.546496 409.961052 
L 363.885485 397.461292 
L 364.224474 397.435332 
L 364.563463 385.247094 
L 364.902452 397.746853 
L 365.241441 374.694337 
L 365.58043 397.746853 
L 365.919419 368.424987 
L 366.258407 369.022068 
L 366.597396 359.585594 
L 366.936385 372.799254 
L 367.275374 374.434737 
L 367.614363 349.136677 
L 367.953352 378.458543 
L 368.292341 352.018242 
L 368.63133 351.680761 
L 368.970319 376.978821 
L 369.309308 377.095641 
L 369.648297 357.794351 
L 369.987286 329.731547 
L 370.326275 349.474158 
L 370.665264 333.041452 
L 371.343241 323.942458 
L 371.68223 344.918171 
L 372.021219 355.237287 
L 372.360208 328.796986 
L 372.699197 356.859789 
L 373.038186 344.36003 
L 373.716164 293.984572 
L 374.055153 290.207386 
L 374.394142 303.589787 
L 374.733131 308.457294 
L 375.07212 308.119814 
L 375.411109 283.561615 
L 375.750098 308.457294 
L 376.089087 280.00509 
L 376.767064 309.651456 
L 377.106053 295.412374 
L 377.445042 297.060836 
L 377.784031 306.432411 
L 378.12302 341.128005 
L 378.462009 334.663955 
L 378.800998 363.7392 
L 379.478976 315.388625 
L 379.817965 301.357223 
L 380.156954 299.033799 
L 380.495943 299.033799 
L 381.173921 353.536904 
L 381.51291 359.001493 
L 382.190887 407.767429 
L 382.529876 379.704625 
L 382.868865 367.204865 
L 383.207854 338.752661 
L 383.546843 324.83808 
L 383.885832 338.752661 
L 384.224821 331.198289 
L 384.56381 319.010051 
L 384.902799 293.711991 
L 385.241788 301.266363 
L 385.580777 270.166235 
L 385.919766 289.467525 
L 386.258755 263.027223 
L 386.597744 248.788141 
L 386.936732 251.228385 
L 387.275721 228.61719 
L 387.61471 222.12718 
L 387.953699 202.82589 
L 388.292688 217.064972 
L 388.631677 243.505273 
L 388.970666 256.005033 
L 389.309655 229.564731 
L 389.648644 229.473871 
L 389.987633 235.963881 
L 390.326622 256.134833 
L 391.0046 317.815889 
L 391.343589 303.148466 
L 391.682578 276.708165 
L 392.021567 307.029492 
L 392.360555 319.529251 
L 392.699544 282.653014 
L 393.038533 292.089489 
L 393.377522 318.101449 
L 393.716511 287.001321 
L 394.0555 300.915902 
L 394.394489 272.853099 
L 394.733478 270.321995 
L 395.072467 259.769238 
L 395.411456 238.741606 
L 396.089434 306.510291 
L 396.428423 316.829407 
L 396.767412 336.130697 
L 397.106401 306.808832 
L 397.445389 294.620593 
L 397.784378 323.942458 
L 398.462356 275.189502 
L 398.801345 275.098642 
L 399.140334 275.215462 
L 399.479323 265.778988 
L 399.818312 296.879116 
L 400.157301 282.640034 
L 400.49629 257.341975 
L 400.835279 271.581057 
L 401.174268 261.261941 
L 401.513257 289.324744 
L 401.852246 276.111084 
L 402.191235 302.551385 
L 402.530223 310.352377 
L 402.869212 311.98786 
L 403.54719 359.884134 
L 403.886179 329.562807 
L 404.225168 320.126332 
L 404.564157 346.930074 
L 404.903146 327.628784 
L 405.581124 327.719644 
L 405.920113 305.108449 
L 406.259102 314.544924 
L 406.598091 288.675743 
L 406.93708 297.359377 
L 407.276069 297.359377 
L 407.615057 299.6179 
L 407.954046 327.680704 
L 408.632024 277.772526 
L 408.971013 297.073816 
L 409.310002 289.519445 
L 409.648991 291.154927 
L 409.98798 262.079682 
L 410.326969 261.962862 
L 410.665958 287.260921 
L 411.004947 300.643322 
L 411.343936 278.330667 
L 411.682925 307.405912 
L 412.021914 324.253979 
L 412.360903 322.644456 
L 412.699892 345.255651 
L 413.03888 335.819177 
L 413.377869 361.688357 
L 413.716858 361.350876 
L 414.055847 330.250748 
L 414.394836 347.059874 
L 414.733825 333.677473 
L 415.072814 315.648225 
L 415.411803 315.985706 
L 415.750792 302.071124 
L 416.089781 298.955919 
L 416.42877 294.088412 
L 416.767759 320.450833 
L 417.106748 295.152773 
L 417.445737 288.662763 
L 417.784726 309.119275 
L 418.123714 318.58171 
L 418.462703 312.01382 
L 418.801692 311.442699 
L 419.140681 298.942939 
L 419.47967 274.047261 
L 419.818659 299.838561 
L 420.157648 286.46914 
L 420.496637 309.937016 
L 420.835626 303.447006 
L 421.174615 274.994802 
L 421.513604 304.615208 
L 421.852593 287.468601 
L 422.191582 336.896518 
L 422.530571 338.532001 
L 422.86956 333.664493 
L 423.208548 305.212289 
L 423.547537 355.419007 
L 423.886526 383.871211 
L 424.564504 331.49683 
L 424.903493 302.421585 
L 425.242482 283.457775 
L 425.581471 295.646014 
L 425.92046 292.63465 
L 426.259449 283.587575 
L 427.276416 317.374568 
L 427.615405 293.906691 
L 427.954394 317.374568 
L 428.293383 307.055452 
L 428.632371 330.107968 
L 428.97136 312.10468 
L 429.310349 324.604439 
L 429.649338 298.735259 
L 429.988327 329.835387 
L 430.327316 343.749969 
L 430.666305 367.217845 
L 431.005294 342.127466 
L 431.344283 347.514175 
L 431.683272 349.032837 
L 432.022261 349.149657 
L 432.36125 336.961418 
L 432.700239 356.262708 
L 433.039228 333.950054 
L 433.378217 332.314571 
L 433.717205 305.87427 
L 434.056194 310.741778 
L 434.395183 317.231788 
L 434.734172 304.732028 
L 435.073161 279.433969 
L 435.751139 331.172329 
L 436.429117 276.279824 
L 436.768106 279.433969 
L 437.107095 326.927863 
L 437.446084 311.715279 
L 437.785073 314.155523 
L 438.124062 288.571903 
L 438.463051 292.401009 
L 438.802039 292.102469 
L 439.141028 295.853695 
L 439.480017 295.853695 
L 439.819006 331.951131 
L 440.157995 331.48385 
L 440.496984 359.936054 
L 440.835973 358.300572 
L 441.174962 341.439525 
L 441.513951 314.856444 
L 441.85294 328.005205 
L 442.191929 296.905076 
L 442.530918 304.783948 
L 442.869907 331.36703 
L 443.208896 288.805544 
L 443.886874 347.202654 
L 444.225862 346.865174 
L 444.564851 342.114486 
L 444.90384 365.167002 
L 445.242829 345.865712 
L 445.581818 335.845137 
L 445.920807 342.335147 
L 446.259796 336.948438 
L 446.598785 350.330839 
L 447.276763 319.230711 
L 447.954741 329.575787 
L 448.29373 329.575787 
L 448.632719 335.494676 
L 449.310696 277.811466 
L 449.649685 263.987745 
L 450.327663 321.515194 
L 450.666652 319.074951 
L 451.005641 319.074951 
L 451.34463 332.457351 
L 451.683619 332.794832 
L 452.022608 346.709414 
L 452.361597 324.396759 
L 452.700586 346.709414 
L 453.039575 316.388086 
L 453.378564 318.82833 
L 453.717553 293.530271 
L 454.056542 293.439411 
L 454.39553 285.885039 
L 454.734519 284.093796 
L 455.073508 310.014897 
L 455.412497 364.712702 
L 455.751486 370.17729 
L 456.090475 356.96363 
L 456.768453 304.186867 
L 457.107442 295.087873 
L 457.446431 325.4092 
L 457.78542 339.648283 
L 458.124409 370.748411 
L 458.463398 266.350109 
L 458.802387 295.425354 
L 459.141376 270.127295 
L 459.480365 277.681666 
L 459.819353 272.217078 
L 460.158342 256.264633 
L 460.497331 270.503715 
L 460.83632 279.187349 
L 461.175309 306.666051 
L 461.514298 311.533559 
L 461.853287 298.319898 
L 462.192276 293.724971 
L 462.531265 294.062452 
L 462.870254 281.562692 
L 463.209243 291.881808 
L 463.548232 289.441565 
L 463.887221 262.858483 
L 464.22621 289.441565 
L 464.565199 291.881808 
L 464.904187 269.270613 
L 465.243176 263.806025 
L 465.582165 271.308476 
L 465.921154 269.465313 
L 466.260143 256.082913 
L 466.599132 310.780718 
L 466.938121 343.347588 
L 467.27711 343.347588 
L 467.616099 365.958784 
L 467.955088 346.657494 
L 468.294077 363.92092 
L 468.633066 337.337839 
L 468.972055 339.440602 
L 469.311044 353.355184 
L 469.989021 324.279939 
L 470.32801 298.981879 
L 470.666999 312.3513 
L 471.005988 285.910999 
L 471.344977 285.910999 
L 471.683966 289.649245 
L 472.022955 290.505926 
L 472.361944 343.905729 
L 472.700933 379.691645 
L 473.039922 379.665685 
L 474.056889 320.489773 
L 474.395878 346.358953 
L 474.734867 346.358953 
L 475.073856 319.555211 
L 475.412844 332.561192 
L 475.751833 303.485946 
L 476.090822 332.561192 
L 476.429811 344.749431 
L 476.7688 241.947671 
L 477.107789 239.546367 
L 477.446778 265.415547 
L 477.785767 255.979073 
L 478.124756 265.129987 
L 478.463745 256.679994 
L 478.802734 291.180887 
L 479.141723 264.740586 
L 479.480712 259.937979 
L 479.819701 268.712472 
L 480.15869 268.712472 
L 480.497678 272.905019 
L 481.175656 317.958669 
L 481.514645 311.468659 
L 481.853634 314.986244 
L 482.192623 320.113352 
L 482.870601 376.238959 
L 483.20959 373.798716 
L 483.548579 387.713297 
L 483.887568 378.276823 
L 484.226557 384.766833 
L 484.565546 356.704029 
L 484.904535 357.04151 
L 485.243524 334.728855 
L 485.582512 329.264266 
L 485.921501 334.637995 
L 486.26049 330.938689 
L 486.599479 305.445929 
L 486.938468 314.882404 
L 487.277457 284.561077 
L 487.616446 284.885577 
L 487.955435 315.985706 
L 488.294424 289.402624 
L 488.633413 319.970572 
L 488.972402 297.657917 
L 489.65038 287.196021 
L 489.989369 287.196021 
L 490.328358 274.696262 
L 490.667346 274.696262 
L 491.006335 291.842868 
L 491.345324 296.009455 
L 491.684313 296.009455 
L 492.023302 266.687589 
L 492.362291 291.764988 
L 492.70128 288.507003 
L 493.040269 283.639496 
L 493.379258 311.650379 
L 493.718247 325.564961 
L 494.057236 322.449756 
L 494.396225 370.17729 
L 494.735214 390.205461 
L 495.074203 369.177829 
L 495.413192 392.645705 
L 495.752181 284.483197 
L 496.091169 291.245787 
L 496.430158 268.193272 
L 496.769147 256.563173 
L 497.108136 298.410758 
L 497.447125 304.900769 
L 497.786114 336.000897 
L 498.125103 310.702838 
L 498.464092 340.024703 
L 498.803081 339.168022 
L 499.14207 349.396278 
L 499.481059 318.296149 
L 499.820048 312.546 
L 500.159037 286.079739 
L 500.837015 337.246979 
L 501.514992 324.228019 
L 501.853981 324.007358 
L 502.19297 259.691358 
L 502.531959 269.127833 
L 502.870948 282.341494 
L 503.548926 237.417644 
L 503.887915 237.261883 
L 504.226904 286.20954 
L 504.904882 338.298361 
L 505.58286 287.922902 
L 505.921849 281.432892 
L 506.260837 268.050491 
L 506.599826 314.246383 
L 506.938815 302.616285 
L 507.277804 302.616285 
L 507.955782 351.369241 
L 508.294771 353.809485 
L 508.972749 302.278805 
L 509.311738 348.513636 
L 509.650727 317.413508 
L 509.989716 381.846328 
L 510.328705 359.533674 
L 510.667694 398.382874 
L 511.006683 400.823118 
L 511.345672 398.382874 
L 511.68466 391.165983 
L 512.023649 413.478637 
L 512.362638 387.609457 
L 512.701627 375.265458 
L 513.040616 375.265458 
L 513.718594 327.732624 
L 514.057583 330.601209 
L 514.396572 304.160907 
L 514.735561 329.744527 
L 515.07455 317.556288 
L 515.413539 320.450833 
L 515.752528 318.101449 
L 516.091517 298.099238 
L 516.430506 291.609228 
L 516.769494 318.192309 
L 517.108483 295.879655 
L 517.447472 308.535174 
L 518.12545 288.364223 
L 518.464439 288.364223 
L 518.803428 259.912019 
L 519.481406 259.912019 
L 519.820395 288.364223 
L 520.159384 300.552462 
L 520.498373 288.364223 
L 521.176351 322.735316 
L 521.51534 309.352916 
L 521.854328 323.150677 
L 522.193317 298.254998 
L 522.532306 298.371818 
L 522.871295 300.812062 
L 523.210284 277.759546 
L 523.549273 265.259787 
L 523.888262 236.807583 
L 524.227251 259.418778 
L 524.56624 249.099662 
L 524.905229 262.482063 
L 525.244218 281.783353 
L 525.583207 256.199733 
L 525.922196 281.783353 
L 526.261185 276.318764 
L 526.600174 245.218636 
L 526.939163 244.920095 
L 527.61714 300.915902 
L 527.956129 314.129563 
L 528.295118 309.262055 
L 528.634107 295.022973 
L 528.973096 307.522733 
L 529.312085 335.974937 
L 529.651074 335.637456 
L 529.990063 332.093911 
L 530.329052 302.772045 
L 530.668041 296.931036 
L 531.00703 299.20254 
L 531.346019 309.521656 
L 531.685008 296.307995 
L 532.023997 296.217135 
L 532.362985 269.867694 
L 532.701974 260.431219 
L 533.040963 268.167311 
L 533.379952 278.720068 
L 533.718941 278.720068 
L 534.05793 297.969438 
L 534.396919 275.656783 
L 534.735908 342.789447 
L 535.074897 342.789447 
L 535.413886 348.254036 
L 535.752875 321.450294 
L 536.091864 316.972187 
L 536.430853 316.972187 
L 536.769842 345.411412 
L 537.108831 363.79112 
L 537.447819 375.979359 
L 537.786808 378.082122 
L 538.125797 360.078834 
L 538.464786 360.299495 
L 539.142764 304.394548 
L 539.481753 304.394548 
L 539.820742 314.713664 
L 540.159731 344.035529 
L 540.49872 317.231788 
L 540.837709 311.884019 
L 541.176698 280.783891 
L 541.515687 280.783891 
L 541.854676 304.251768 
L 542.532654 277.655706 
L 542.871642 248.333841 
L 543.210631 261.547501 
L 543.54962 284.158696 
L 543.888609 279.291189 
L 544.227598 302.343705 
L 544.566587 315.726105 
L 544.905576 313.285862 
L 545.244565 287.702242 
L 545.583554 293.906691 
L 545.922543 319.775872 
L 546.261532 310.339397 
L 546.600521 339.661263 
L 546.93951 347.215634 
L 547.278499 346.878154 
L 547.617488 351.901422 
L 547.956476 368.762468 
L 548.634454 342.958188 
L 548.973443 343.295668 
L 549.312432 330.795909 
L 549.651421 305.90023 
L 549.99041 318.088469 
L 550.329399 289.636265 
L 551.007377 303.875347 
L 551.346366 278.006167 
L 551.685355 303.304226 
L 552.024344 291.115987 
L 552.363333 268.803332 
L 553.380299 301.603843 
L 553.719288 275.163542 
L 554.058277 265.402567 
L 554.397266 277.902327 
L 554.736255 304.706068 
L 555.075244 310.170657 
L 555.414233 303.680647 
L 556.092211 250.722164 
L 556.4312 236.483082 
L 557.109178 286.962381 
L 557.787156 286.871521 
L 558.126144 263.403644 
L 558.465133 277.642726 
L 558.804122 270.088354 
L 559.143111 293.14087 
L 559.4821 306.354531 
L 559.821089 332.937612 
L 560.499067 277.318226 
L 560.838056 271.658937 
L 561.177045 271.658937 
L 561.516034 282.678974 
L 561.855023 269.296573 
L 562.194012 269.296573 
L 562.87199 315.038164 
L 563.210979 328.251825 
L 563.549967 315.038164 
L 563.888956 315.038164 
L 564.227945 328.251825 
L 564.566934 302.668205 
L 564.905923 293.23173 
L 565.244912 299.0987 
L 566.261879 299.0987 
L 566.600868 299.51406 
L 566.939857 299.51406 
L 567.278846 312.896461 
L 567.617835 289.843945 
L 567.956824 338.2724 
L 568.295813 307.172272 
L 568.634801 316.946227 
L 568.97379 302.798005 
L 569.312779 304.667128 
L 569.651768 304.044087 
L 569.990757 304.044087 
L 570.329746 304.381568 
L 570.668735 304.264748 
L 571.007724 304.381568 
L 571.346713 304.044087 
L 571.685702 304.044087 
L 572.024691 306.692011 
L 572.36368 313.376722 
L 572.702669 313.376722 
L 573.041658 310.066817 
L 573.380647 296.035415 
L 573.719635 334.261574 
L 574.058624 334.261574 
L 574.397613 311.832099 
L 574.736602 335.299976 
L 575.075591 323.111737 
L 576.092558 250.099123 
L 576.431547 267.24573 
L 576.770536 260.75572 
L 577.109525 287.559462 
L 577.448514 260.97638 
L 578.126492 260.97638 
L 578.465481 235.678321 
L 578.80447 235.678321 
L 579.482447 331.36703 
L 579.821436 349.032837 
L 580.160425 349.032837 
L 580.499414 335.650436 
L 581.177392 286.897481 
L 581.85537 286.897481 
L 582.194359 261.365781 
L 582.533348 248.866021 
L 583.211326 248.866021 
L 583.550315 245.997437 
L 584.228292 190.04057 
L 584.567281 222.789161 
L 584.90627 222.789161 
L 585.245259 221.530099 
L 585.584248 228.020109 
L 585.923237 257.341975 
L 586.262226 257.341975 
L 586.601215 269.296573 
L 586.940204 257.108334 
L 587.279193 257.108334 
L 587.618182 250.618324 
L 587.957171 228.78593 
L 588.29616 199.464065 
L 588.635149 228.53931 
L 588.974138 220.984938 
L 589.313126 244.335994 
L 590.330093 244.335994 
L 590.669082 295.736874 
L 591.008071 295.736874 
L 591.34706 270.841196 
L 591.686049 264.351186 
L 592.025038 264.351186 
L 592.364027 251.851426 
L 593.042005 251.851426 
L 593.380994 282.081893 
L 593.719983 282.081893 
L 594.058972 279.680589 
L 594.736949 279.77145 
L 595.075938 286.26146 
L 595.414927 285.923979 
L 595.753916 299.30638 
L 596.092905 299.64386 
L 596.431894 294.776353 
L 596.770883 299.64386 
L 597.109872 298.008378 
L 597.448861 323.877558 
L 597.78785 300.409682 
L 598.126839 313.558442 
L 598.465828 310.482177 
L 599.482795 310.482177 
L 600.160772 288.831504 
L 600.499761 288.831504 
L 600.83875 295.321514 
L 601.177739 261.05426 
L 601.855717 261.05426 
L 602.194706 266.518849 
L 602.533695 241.22079 
L 603.211673 241.22079 
L 603.550662 236.353282 
L 603.889651 211.989784 
L 604.22864 218.479794 
L 604.567629 218.479794 
L 604.906617 219.167735 
L 605.245606 203.08549 
L 605.584595 203.08549 
L 605.923584 205.110373 
L 606.262573 186.510005 
L 606.940551 186.510005 
L 607.27954 183.82314 
L 608.974485 183.82314 
L 609.313474 214.923269 
L 609.652463 216.402991 
L 609.991452 223.957363 
L 610.669429 223.957363 
L 611.008418 220.686398 
L 612.025385 220.686398 
L 612.364374 224.956824 
L 613.381341 224.956824 
L 613.72033 221.426259 
L 614.398308 221.426259 
L 614.737297 194.985958 
L 616.77123 194.985958 
L 617.110219 221.789699 
L 617.788197 221.789699 
L 618.127186 216.922192 
L 619.822131 216.922192 
L 620.16112 204.422432 
L 622.195053 204.422432 
L 622.534042 191.040032 
L 623.889998 191.040032 
L 624.228987 216.623651 
L 624.567976 211.159063 
L 624.906965 216.02657 
L 625.584943 216.02657 
L 625.923931 203.838331 
L 626.26292 203.838331 
L 626.601909 196.28396 
L 627.957865 196.28396 
L 628.296854 208.472199 
L 629.991799 208.472199 
L 630.669777 233.938998 
L 631.008765 233.938998 
L 631.347754 220.556597 
L 631.686743 226.021186 
L 632.025732 226.021186 
L 632.364721 202.553309 
L 637.788544 202.553309 
L 638.127533 190.468911 
L 640.500456 190.468911 
L 640.839445 179.916154 
L 651.348102 179.916154 
L 651.68709 176.94373 
L 655.754958 176.94373 
L 656.093947 159.226002 
L 672.365415 159.226002 
L 672.704404 158.940442 
L 677.789238 158.940442 
L 678.128227 145.558041 
L 681.857106 145.558041 
L 682.196095 139.068031 
L 696.43363 139.068031 
L 696.772619 139.691072 
L 701.857453 139.691072 
L 702.196442 127.502833 
L 702.87442 127.502833 
L 703.213409 122.907906 
L 704.230375 122.907906 
L 704.569364 109.694245 
L 824.910436 109.694245 
L 825.249425 107.877042 
L 832.029204 107.877042 
L 832.368193 101.387032 
L 836.43606 101.387032 
L 836.775049 88.887273 
L 871.690909 88.887273 
L 871.690909 88.887273 
" style="fill:none;stroke:#8dd3c7;stroke-linecap:square;stroke-width:1.5;"/>
   </g>
   <g id="line2d_14">
    <path clip-path="url(#p8ec6c20841)" d="M 161.509091 242.986072 
L 202.526752 242.986072 
L 202.865741 233.406817 
L 203.20473 217.908673 
L 203.543719 193.129815 
L 583.889304 193.129815 
L 584.228292 190.04057 
L 605.923584 190.04057 
L 606.262573 186.510005 
L 606.940551 186.510005 
L 607.27954 183.82314 
L 640.500456 183.82314 
L 640.839445 179.916154 
L 651.348102 179.916154 
L 651.68709 176.94373 
L 655.754958 176.94373 
L 656.093947 159.226002 
L 672.365415 159.226002 
L 672.704404 158.940442 
L 677.789238 158.940442 
L 678.128227 145.558041 
L 681.857106 145.558041 
L 682.196095 139.068031 
L 701.857453 139.068031 
L 702.196442 127.502833 
L 702.87442 127.502833 
L 703.213409 122.907906 
L 704.230375 122.907906 
L 704.569364 109.694245 
L 824.910436 109.694245 
L 825.249425 107.877042 
L 832.029204 107.877042 
L 832.368193 101.387032 
L 836.43606 101.387032 
L 836.775049 88.887273 
L 871.690909 88.887273 
L 871.690909 88.887273 
" style="fill:none;stroke:#feffb3;stroke-linecap:square;stroke-width:1.5;"/>
   </g>
   <g id="line2d_15">
    <path clip-path="url(#p8ec6c20841)" d="M 161.509091 315.360069 
L 163.882013 315.360069 
L 164.221002 328.406378 
L 166.593925 328.406378 
L 166.932914 340.44479 
L 169.305836 340.44479 
L 169.644825 351.553171 
L 172.017748 351.553171 
L 172.356737 361.803371 
L 174.729659 361.803371 
L 175.068648 371.261688 
L 177.441571 371.261688 
L 177.78056 379.9893 
L 180.153482 379.9893 
L 180.492471 388.042658 
L 182.865394 388.042658 
L 183.204383 395.473851 
L 185.577305 395.473851 
L 185.916294 402.330945 
L 188.289217 402.330945 
L 188.628206 408.658293 
L 191.001128 408.658293 
L 191.340117 414.496819 
L 193.71304 414.496819 
L 194.052029 419.884288 
L 196.424951 419.884288 
L 196.76394 424.855546 
L 199.136863 424.855546 
L 199.475852 429.442748 
L 201.848774 429.442748 
L 202.187763 433.675565 
L 204.560686 433.675565 
L 204.899675 437.581374 
L 207.272597 437.581374 
L 207.611586 441.185438 
L 209.984509 441.185438 
L 210.323498 444.51107 
L 212.69642 444.51107 
L 213.035409 447.579779 
L 215.408332 447.579779 
L 215.74732 450.411413 
L 218.120243 450.411413 
L 218.459232 453.024289 
L 220.832154 453.024289 
L 221.171143 455.435307 
L 223.544066 455.435307 
L 223.883055 457.66006 
L 226.255977 457.66006 
L 226.594966 459.71294 
L 228.967889 459.71294 
L 229.306878 461.607224 
L 231.6798 461.607224 
L 232.018789 463.355164 
L 234.391712 463.355164 
L 234.730701 464.968066 
L 237.103623 464.968066 
L 237.442612 466.456364 
L 239.815535 466.456364 
L 240.154524 467.829682 
L 242.527446 467.829682 
L 242.866435 469.096904 
L 245.239358 469.096904 
L 245.578347 470.266227 
L 247.951269 470.266227 
L 248.290258 471.345213 
L 250.663181 471.345213 
L 251.00217 472.340842 
L 253.375092 472.340842 
L 253.714081 473.259553 
L 256.087004 473.259553 
L 256.425993 474.107289 
L 258.798915 474.107289 
L 259.137904 474.889533 
L 261.510827 474.889533 
L 261.849816 475.611344 
L 264.222738 475.611344 
L 264.561727 476.277392 
L 266.93465 476.277392 
L 267.273639 476.891984 
L 269.646561 476.891984 
L 269.98555 477.459095 
L 272.358473 477.459095 
L 272.697461 477.982394 
L 275.070384 477.982394 
L 275.409373 478.465266 
L 277.782296 478.465266 
L 278.121284 478.910833 
L 280.494207 478.910833 
L 280.833196 479.321977 
L 283.206118 479.321977 
L 283.545107 479.701359 
L 285.91803 479.701359 
L 286.257019 480.051431 
L 288.629941 480.051431 
L 288.96893 480.374458 
L 291.341853 480.374458 
L 291.680842 480.67253 
L 294.053764 480.67253 
L 294.392753 480.947574 
L 296.765676 480.947574 
L 297.104665 481.20137 
L 299.477587 481.20137 
L 299.816576 481.435558 
L 302.189499 481.435558 
L 302.528488 481.651654 
L 304.90141 481.651654 
L 305.240399 481.851056 
L 307.613322 481.851056 
L 307.952311 482.035053 
L 310.325233 482.035053 
L 310.664222 482.204835 
L 313.037145 482.204835 
L 313.376134 482.3615 
L 315.749056 482.3615 
L 316.088045 482.506062 
L 318.460968 482.506062 
L 318.799957 482.639456 
L 321.172879 482.639456 
L 321.511868 482.762545 
L 323.884791 482.762545 
L 324.562768 482.876124 
L 329.308614 482.980929 
L 329.986591 483.077637 
L 334.732437 483.166874 
L 335.410414 483.249217 
L 340.156259 483.325198 
L 340.834237 483.39531 
L 345.580082 483.460005 
L 346.25806 483.519702 
L 353.715817 483.625616 
L 354.732784 483.672519 
L 361.851551 483.755733 
L 363.207507 483.792584 
L 372.699197 483.886916 
L 374.394142 483.913632 
L 388.970666 484.019261 
L 391.343589 484.035753 
L 418.801692 484.144577 
L 425.242482 484.163469 
L 871.690909 484.232727 
L 871.690909 484.232727 
" style="fill:none;stroke:#bfbbd9;stroke-linecap:square;stroke-width:1.5;"/>
   </g>
   <g id="patch_3">
    <path d="M 126 504 
L 126 69.12 
" style="fill:none;stroke:#ffffff;stroke-linecap:square;stroke-linejoin:miter;stroke-width:0.8;"/>
   </g>
   <g id="patch_4">
    <path d="M 907.2 504 
L 907.2 69.12 
" style="fill:none;stroke:#ffffff;stroke-linecap:square;stroke-linejoin:miter;stroke-width:0.8;"/>
   </g>
   <g id="patch_5">
    <path d="M 126 504 
L 907.2 504 
" style="fill:none;stroke:#ffffff;stroke-linecap:square;stroke-linejoin:miter;stroke-width:0.8;"/>
   </g>
   <g id="patch_6">
    <path d="M 126 69.12 
L 907.2 69.12 
" style="fill:none;stroke:#ffffff;stroke-linecap:square;stroke-linejoin:miter;stroke-width:0.8;"/>
   </g>
   <g id="text_14">
    <!-- instance 9 with error 0.0023583360628889327 -->
    <g style="fill:#ffffff;" transform="translate(374.229375 63.12)scale(0.12 -0.12)">
     <defs>
      <path d="M 2834 3397 
L 2834 2853 
Q 2591 2978 2328 3040 
Q 2066 3103 1784 3103 
Q 1356 3103 1142 2972 
Q 928 2841 928 2578 
Q 928 2378 1081 2264 
Q 1234 2150 1697 2047 
L 1894 2003 
Q 2506 1872 2764 1633 
Q 3022 1394 3022 966 
Q 3022 478 2636 193 
Q 2250 -91 1575 -91 
Q 1294 -91 989 -36 
Q 684 19 347 128 
L 347 722 
Q 666 556 975 473 
Q 1284 391 1588 391 
Q 1994 391 2212 530 
Q 2431 669 2431 922 
Q 2431 1156 2273 1281 
Q 2116 1406 1581 1522 
L 1381 1569 
Q 847 1681 609 1914 
Q 372 2147 372 2553 
Q 372 3047 722 3315 
Q 1072 3584 1716 3584 
Q 2034 3584 2315 3537 
Q 2597 3491 2834 3397 
z
" id="DejaVuSans-73" transform="scale(0.015625)"/>
      <path d="M 3122 3366 
L 3122 2828 
Q 2878 2963 2633 3030 
Q 2388 3097 2138 3097 
Q 1578 3097 1268 2742 
Q 959 2388 959 1747 
Q 959 1106 1268 751 
Q 1578 397 2138 397 
Q 2388 397 2633 464 
Q 2878 531 3122 666 
L 3122 134 
Q 2881 22 2623 -34 
Q 2366 -91 2075 -91 
Q 1284 -91 818 406 
Q 353 903 353 1747 
Q 353 2603 823 3093 
Q 1294 3584 2113 3584 
Q 2378 3584 2631 3529 
Q 2884 3475 3122 3366 
z
" id="DejaVuSans-63" transform="scale(0.015625)"/>
      <path id="DejaVuSans-20" transform="scale(0.015625)"/>
      <path d="M 703 97 
L 703 672 
Q 941 559 1184 500 
Q 1428 441 1663 441 
Q 2288 441 2617 861 
Q 2947 1281 2994 2138 
Q 2813 1869 2534 1725 
Q 2256 1581 1919 1581 
Q 1219 1581 811 2004 
Q 403 2428 403 3163 
Q 403 3881 828 4315 
Q 1253 4750 1959 4750 
Q 2769 4750 3195 4129 
Q 3622 3509 3622 2328 
Q 3622 1225 3098 567 
Q 2575 -91 1691 -91 
Q 1453 -91 1209 -44 
Q 966 3 703 97 
z
M 1959 2075 
Q 2384 2075 2632 2365 
Q 2881 2656 2881 3163 
Q 2881 3666 2632 3958 
Q 2384 4250 1959 4250 
Q 1534 4250 1286 3958 
Q 1038 3666 1038 3163 
Q 1038 2656 1286 2365 
Q 1534 2075 1959 2075 
z
" id="DejaVuSans-39" transform="scale(0.015625)"/>
      <path d="M 269 3500 
L 844 3500 
L 1563 769 
L 2278 3500 
L 2956 3500 
L 3675 769 
L 4391 3500 
L 4966 3500 
L 4050 0 
L 3372 0 
L 2619 2869 
L 1863 0 
L 1184 0 
L 269 3500 
z
" id="DejaVuSans-77" transform="scale(0.015625)"/>
      <path d="M 3513 2113 
L 3513 0 
L 2938 0 
L 2938 2094 
Q 2938 2591 2744 2837 
Q 2550 3084 2163 3084 
Q 1697 3084 1428 2787 
Q 1159 2491 1159 1978 
L 1159 0 
L 581 0 
L 581 4863 
L 1159 4863 
L 1159 2956 
Q 1366 3272 1645 3428 
Q 1925 3584 2291 3584 
Q 2894 3584 3203 3211 
Q 3513 2838 3513 2113 
z
" id="DejaVuSans-68" transform="scale(0.015625)"/>
      <path d="M 684 794 
L 1344 794 
L 1344 0 
L 684 0 
L 684 794 
z
" id="DejaVuSans-2e" transform="scale(0.015625)"/>
      <path d="M 2034 2216 
Q 1584 2216 1326 1975 
Q 1069 1734 1069 1313 
Q 1069 891 1326 650 
Q 1584 409 2034 409 
Q 2484 409 2743 651 
Q 3003 894 3003 1313 
Q 3003 1734 2745 1975 
Q 2488 2216 2034 2216 
z
M 1403 2484 
Q 997 2584 770 2862 
Q 544 3141 544 3541 
Q 544 4100 942 4425 
Q 1341 4750 2034 4750 
Q 2731 4750 3128 4425 
Q 3525 4100 3525 3541 
Q 3525 3141 3298 2862 
Q 3072 2584 2669 2484 
Q 3125 2378 3379 2068 
Q 3634 1759 3634 1313 
Q 3634 634 3220 271 
Q 2806 -91 2034 -91 
Q 1263 -91 848 271 
Q 434 634 434 1313 
Q 434 1759 690 2068 
Q 947 2378 1403 2484 
z
M 1172 3481 
Q 1172 3119 1398 2916 
Q 1625 2713 2034 2713 
Q 2441 2713 2670 2916 
Q 2900 3119 2900 3481 
Q 2900 3844 2670 4047 
Q 2441 4250 2034 4250 
Q 1625 4250 1398 4047 
Q 1172 3844 1172 3481 
z
" id="DejaVuSans-38" transform="scale(0.015625)"/>
      <path d="M 2113 2584 
Q 1688 2584 1439 2293 
Q 1191 2003 1191 1497 
Q 1191 994 1439 701 
Q 1688 409 2113 409 
Q 2538 409 2786 701 
Q 3034 994 3034 1497 
Q 3034 2003 2786 2293 
Q 2538 2584 2113 2584 
z
M 3366 4563 
L 3366 3988 
Q 3128 4100 2886 4159 
Q 2644 4219 2406 4219 
Q 1781 4219 1451 3797 
Q 1122 3375 1075 2522 
Q 1259 2794 1537 2939 
Q 1816 3084 2150 3084 
Q 2853 3084 3261 2657 
Q 3669 2231 3669 1497 
Q 3669 778 3244 343 
Q 2819 -91 2113 -91 
Q 1303 -91 875 529 
Q 447 1150 447 2328 
Q 447 3434 972 4092 
Q 1497 4750 2381 4750 
Q 2619 4750 2861 4703 
Q 3103 4656 3366 4563 
z
" id="DejaVuSans-36" transform="scale(0.015625)"/>
      <path d="M 525 4666 
L 3525 4666 
L 3525 4397 
L 1831 0 
L 1172 0 
L 2766 4134 
L 525 4134 
L 525 4666 
z
" id="DejaVuSans-37" transform="scale(0.015625)"/>
     </defs>
     <use xlink:href="#DejaVuSans-69"/>
     <use x="27.783203" xlink:href="#DejaVuSans-6e"/>
     <use x="91.162109" xlink:href="#DejaVuSans-73"/>
     <use x="143.261719" xlink:href="#DejaVuSans-74"/>
     <use x="182.470703" xlink:href="#DejaVuSans-61"/>
     <use x="243.75" xlink:href="#DejaVuSans-6e"/>
     <use x="307.128906" xlink:href="#DejaVuSans-63"/>
     <use x="362.109375" xlink:href="#DejaVuSans-65"/>
     <use x="423.632812" xlink:href="#DejaVuSans-20"/>
     <use x="455.419922" xlink:href="#DejaVuSans-39"/>
     <use x="519.042969" xlink:href="#DejaVuSans-20"/>
     <use x="550.830078" xlink:href="#DejaVuSans-77"/>
     <use x="632.617188" xlink:href="#DejaVuSans-69"/>
     <use x="660.400391" xlink:href="#DejaVuSans-74"/>
     <use x="699.609375" xlink:href="#DejaVuSans-68"/>
     <use x="762.988281" xlink:href="#DejaVuSans-20"/>
     <use x="794.775391" xlink:href="#DejaVuSans-65"/>
     <use x="856.298828" xlink:href="#DejaVuSans-72"/>
     <use x="895.662109" xlink:href="#DejaVuSans-72"/>
     <use x="934.525391" xlink:href="#DejaVuSans-6f"/>
     <use x="995.707031" xlink:href="#DejaVuSans-72"/>
     <use x="1036.820312" xlink:href="#DejaVuSans-20"/>
     <use x="1068.607422" xlink:href="#DejaVuSans-30"/>
     <use x="1132.230469" xlink:href="#DejaVuSans-2e"/>
     <use x="1164.017578" xlink:href="#DejaVuSans-30"/>
     <use x="1227.640625" xlink:href="#DejaVuSans-30"/>
     <use x="1291.263672" xlink:href="#DejaVuSans-32"/>
     <use x="1354.886719" xlink:href="#DejaVuSans-33"/>
     <use x="1418.509766" xlink:href="#DejaVuSans-35"/>
     <use x="1482.132812" xlink:href="#DejaVuSans-38"/>
     <use x="1545.755859" xlink:href="#DejaVuSans-33"/>
     <use x="1609.378906" xlink:href="#DejaVuSans-33"/>
     <use x="1673.001953" xlink:href="#DejaVuSans-36"/>
     <use x="1736.625" xlink:href="#DejaVuSans-30"/>
     <use x="1800.248047" xlink:href="#DejaVuSans-36"/>
     <use x="1863.871094" xlink:href="#DejaVuSans-32"/>
     <use x="1927.494141" xlink:href="#DejaVuSans-38"/>
     <use x="1991.117188" xlink:href="#DejaVuSans-38"/>
     <use x="2054.740234" xlink:href="#DejaVuSans-38"/>
     <use x="2118.363281" xlink:href="#DejaVuSans-39"/>
     <use x="2181.986328" xlink:href="#DejaVuSans-33"/>
     <use x="2245.609375" xlink:href="#DejaVuSans-32"/>
     <use x="2309.232422" xlink:href="#DejaVuSans-37"/>
    </g>
   </g>
   <g id="legend_1">
    <g id="patch_7">
     <path d="M 805.348438 499 
L 900.2 499 
Q 902.2 499 902.2 497 
L 902.2 453.965625 
Q 902.2 451.965625 900.2 451.965625 
L 805.348438 451.965625 
Q 803.348438 451.965625 803.348438 453.965625 
L 803.348438 497 
Q 803.348438 499 805.348438 499 
z
" style="opacity:0.8;stroke:#cccccc;stroke-linejoin:miter;"/>
    </g>
    <g id="line2d_16">
     <path d="M 807.348438 460.064062 
L 827.348438 460.064062 
" style="fill:none;stroke:#8dd3c7;stroke-linecap:square;stroke-width:1.5;"/>
    </g>
    <g id="line2d_17"/>
    <g id="text_15">
     <!-- cost -->
     <g style="fill:#ffffff;" transform="translate(835.348438 463.564062)scale(0.1 -0.1)">
      <use xlink:href="#DejaVuSans-63"/>
      <use x="54.980469" xlink:href="#DejaVuSans-6f"/>
      <use x="116.162109" xlink:href="#DejaVuSans-73"/>
      <use x="168.261719" xlink:href="#DejaVuSans-74"/>
     </g>
    </g>
    <g id="line2d_18">
     <path d="M 807.348438 474.742188 
L 827.348438 474.742188 
" style="fill:none;stroke:#feffb3;stroke-linecap:square;stroke-width:1.5;"/>
    </g>
    <g id="line2d_19"/>
    <g id="text_16">
     <!-- best cost -->
     <g style="fill:#ffffff;" transform="translate(835.348438 478.242188)scale(0.1 -0.1)">
      <defs>
       <path d="M 3116 1747 
Q 3116 2381 2855 2742 
Q 2594 3103 2138 3103 
Q 1681 3103 1420 2742 
Q 1159 2381 1159 1747 
Q 1159 1113 1420 752 
Q 1681 391 2138 391 
Q 2594 391 2855 752 
Q 3116 1113 3116 1747 
z
M 1159 2969 
Q 1341 3281 1617 3432 
Q 1894 3584 2278 3584 
Q 2916 3584 3314 3078 
Q 3713 2572 3713 1747 
Q 3713 922 3314 415 
Q 2916 -91 2278 -91 
Q 1894 -91 1617 61 
Q 1341 213 1159 525 
L 1159 0 
L 581 0 
L 581 4863 
L 1159 4863 
L 1159 2969 
z
" id="DejaVuSans-62" transform="scale(0.015625)"/>
      </defs>
      <use xlink:href="#DejaVuSans-62"/>
      <use x="63.476562" xlink:href="#DejaVuSans-65"/>
      <use x="125" xlink:href="#DejaVuSans-73"/>
      <use x="177.099609" xlink:href="#DejaVuSans-74"/>
      <use x="216.308594" xlink:href="#DejaVuSans-20"/>
      <use x="248.095703" xlink:href="#DejaVuSans-63"/>
      <use x="303.076172" xlink:href="#DejaVuSans-6f"/>
      <use x="364.257812" xlink:href="#DejaVuSans-73"/>
      <use x="416.357422" xlink:href="#DejaVuSans-74"/>
     </g>
    </g>
    <g id="line2d_20">
     <path d="M 807.348438 489.420313 
L 827.348438 489.420313 
" style="fill:none;stroke:#bfbbd9;stroke-linecap:square;stroke-width:1.5;"/>
    </g>
    <g id="line2d_21"/>
    <g id="text_17">
     <!-- temperature -->
     <g style="fill:#ffffff;" transform="translate(835.348438 492.920313)scale(0.1 -0.1)">
      <defs>
       <path d="M 3328 2828 
Q 3544 3216 3844 3400 
Q 4144 3584 4550 3584 
Q 5097 3584 5394 3201 
Q 5691 2819 5691 2113 
L 5691 0 
L 5113 0 
L 5113 2094 
Q 5113 2597 4934 2840 
Q 4756 3084 4391 3084 
Q 3944 3084 3684 2787 
Q 3425 2491 3425 1978 
L 3425 0 
L 2847 0 
L 2847 2094 
Q 2847 2600 2669 2842 
Q 2491 3084 2119 3084 
Q 1678 3084 1418 2786 
Q 1159 2488 1159 1978 
L 1159 0 
L 581 0 
L 581 3500 
L 1159 3500 
L 1159 2956 
Q 1356 3278 1631 3431 
Q 1906 3584 2284 3584 
Q 2666 3584 2933 3390 
Q 3200 3197 3328 2828 
z
" id="DejaVuSans-6d" transform="scale(0.015625)"/>
       <path d="M 1159 525 
L 1159 -1331 
L 581 -1331 
L 581 3500 
L 1159 3500 
L 1159 2969 
Q 1341 3281 1617 3432 
Q 1894 3584 2278 3584 
Q 2916 3584 3314 3078 
Q 3713 2572 3713 1747 
Q 3713 922 3314 415 
Q 2916 -91 2278 -91 
Q 1894 -91 1617 61 
Q 1341 213 1159 525 
z
M 3116 1747 
Q 3116 2381 2855 2742 
Q 2594 3103 2138 3103 
Q 1681 3103 1420 2742 
Q 1159 2381 1159 1747 
Q 1159 1113 1420 752 
Q 1681 391 2138 391 
Q 2594 391 2855 752 
Q 3116 1113 3116 1747 
z
" id="DejaVuSans-70" transform="scale(0.015625)"/>
       <path d="M 544 1381 
L 544 3500 
L 1119 3500 
L 1119 1403 
Q 1119 906 1312 657 
Q 1506 409 1894 409 
Q 2359 409 2629 706 
Q 2900 1003 2900 1516 
L 2900 3500 
L 3475 3500 
L 3475 0 
L 2900 0 
L 2900 538 
Q 2691 219 2414 64 
Q 2138 -91 1772 -91 
Q 1169 -91 856 284 
Q 544 659 544 1381 
z
M 1991 3584 
L 1991 3584 
z
" id="DejaVuSans-75" transform="scale(0.015625)"/>
      </defs>
      <use xlink:href="#DejaVuSans-74"/>
      <use x="39.208984" xlink:href="#DejaVuSans-65"/>
      <use x="100.732422" xlink:href="#DejaVuSans-6d"/>
      <use x="198.144531" xlink:href="#DejaVuSans-70"/>
      <use x="261.621094" xlink:href="#DejaVuSans-65"/>
      <use x="323.144531" xlink:href="#DejaVuSans-72"/>
      <use x="364.257812" xlink:href="#DejaVuSans-61"/>
      <use x="425.537109" xlink:href="#DejaVuSans-74"/>
      <use x="464.746094" xlink:href="#DejaVuSans-75"/>
      <use x="528.125" xlink:href="#DejaVuSans-72"/>
      <use x="566.988281" xlink:href="#DejaVuSans-65"/>
     </g>
    </g>
   </g>
  </g>
 </g>
 <defs>
  <clipPath id="p8ec6c20841">
   <rect height="434.88" width="781.2" x="126" y="69.12"/>
  </clipPath>
 </defs>
</svg>
