<?xml version="1.0" encoding="utf-8" standalone="no"?>
<!DOCTYPE svg PUBLIC "-//W3C//DTD SVG 1.1//EN"
  "http://www.w3.org/Graphics/SVG/1.1/DTD/svg11.dtd">
<svg height="576pt" version="1.1" viewBox="0 0 1008 576" width="1008pt" xmlns="http://www.w3.org/2000/svg" xmlns:xlink="http://www.w3.org/1999/xlink">
 <metadata>
  <rdf:RDF xmlns:cc="http://creativecommons.org/ns#" xmlns:dc="http://purl.org/dc/elements/1.1/" xmlns:rdf="http://www.w3.org/1999/02/22-rdf-syntax-ns#">
   <cc:Work>
    <dc:type rdf:resource="http://purl.org/dc/dcmitype/StillImage"/>
    <dc:date>2022-01-07T00:32:32.630755</dc:date>
    <dc:format>image/svg+xml</dc:format>
    <dc:creator>
     <cc:Agent>
      <dc:title>Matplotlib v3.4.3, https://matplotlib.org/</dc:title>
     </cc:Agent>
    </dc:creator>
   </cc:Work>
  </rdf:RDF>
 </metadata>
 <defs>
  <style type="text/css">*{stroke-linecap:butt;stroke-linejoin:round;}</style>
 </defs>
 <g id="figure_1">
  <g id="patch_1">
   <path d="M 0 576 
L 1008 576 
L 1008 0 
L 0 0 
z
"/>
  </g>
  <g id="axes_1">
   <g id="patch_2">
    <path d="M 126 504 
L 907.2 504 
L 907.2 69.12 
L 126 69.12 
z
"/>
   </g>
   <g id="matplotlib.axis_1">
    <g id="xtick_1">
     <g id="line2d_1">
      <defs>
       <path d="M 0 0 
L 0 3.5 
" id="m511432db30" style="stroke:#ffffff;stroke-width:0.8;"/>
      </defs>
      <g>
       <use style="fill:#ffffff;stroke:#ffffff;stroke-width:0.8;" x="161.509091" xlink:href="#m511432db30" y="504"/>
      </g>
     </g>
     <g id="text_1">
      <!-- 0 -->
      <g style="fill:#ffffff;" transform="translate(158.327841 518.598438)scale(0.1 -0.1)">
       <defs>
        <path d="M 2034 4250 
Q 1547 4250 1301 3770 
Q 1056 3291 1056 2328 
Q 1056 1369 1301 889 
Q 1547 409 2034 409 
Q 2525 409 2770 889 
Q 3016 1369 3016 2328 
Q 3016 3291 2770 3770 
Q 2525 4250 2034 4250 
z
M 2034 4750 
Q 2819 4750 3233 4129 
Q 3647 3509 3647 2328 
Q 3647 1150 3233 529 
Q 2819 -91 2034 -91 
Q 1250 -91 836 529 
Q 422 1150 422 2328 
Q 422 3509 836 4129 
Q 1250 4750 2034 4750 
z
" id="DejaVuSans-30" transform="scale(0.015625)"/>
       </defs>
       <use xlink:href="#DejaVuSans-30"/>
      </g>
     </g>
    </g>
    <g id="xtick_2">
     <g id="line2d_2">
      <g>
       <use style="fill:#ffffff;stroke:#ffffff;stroke-width:0.8;" x="309.52531" xlink:href="#m511432db30" y="504"/>
      </g>
     </g>
     <g id="text_2">
      <!-- 500 -->
      <g style="fill:#ffffff;" transform="translate(299.98156 518.598438)scale(0.1 -0.1)">
       <defs>
        <path d="M 691 4666 
L 3169 4666 
L 3169 4134 
L 1269 4134 
L 1269 2991 
Q 1406 3038 1543 3061 
Q 1681 3084 1819 3084 
Q 2600 3084 3056 2656 
Q 3513 2228 3513 1497 
Q 3513 744 3044 326 
Q 2575 -91 1722 -91 
Q 1428 -91 1123 -41 
Q 819 9 494 109 
L 494 744 
Q 775 591 1075 516 
Q 1375 441 1709 441 
Q 2250 441 2565 725 
Q 2881 1009 2881 1497 
Q 2881 1984 2565 2268 
Q 2250 2553 1709 2553 
Q 1456 2553 1204 2497 
Q 953 2441 691 2322 
L 691 4666 
z
" id="DejaVuSans-35" transform="scale(0.015625)"/>
       </defs>
       <use xlink:href="#DejaVuSans-35"/>
       <use x="63.623047" xlink:href="#DejaVuSans-30"/>
       <use x="127.246094" xlink:href="#DejaVuSans-30"/>
      </g>
     </g>
    </g>
    <g id="xtick_3">
     <g id="line2d_3">
      <g>
       <use style="fill:#ffffff;stroke:#ffffff;stroke-width:0.8;" x="457.541529" xlink:href="#m511432db30" y="504"/>
      </g>
     </g>
     <g id="text_3">
      <!-- 1000 -->
      <g style="fill:#ffffff;" transform="translate(444.816529 518.598438)scale(0.1 -0.1)">
       <defs>
        <path d="M 794 531 
L 1825 531 
L 1825 4091 
L 703 3866 
L 703 4441 
L 1819 4666 
L 2450 4666 
L 2450 531 
L 3481 531 
L 3481 0 
L 794 0 
L 794 531 
z
" id="DejaVuSans-31" transform="scale(0.015625)"/>
       </defs>
       <use xlink:href="#DejaVuSans-31"/>
       <use x="63.623047" xlink:href="#DejaVuSans-30"/>
       <use x="127.246094" xlink:href="#DejaVuSans-30"/>
       <use x="190.869141" xlink:href="#DejaVuSans-30"/>
      </g>
     </g>
    </g>
    <g id="xtick_4">
     <g id="line2d_4">
      <g>
       <use style="fill:#ffffff;stroke:#ffffff;stroke-width:0.8;" x="605.557748" xlink:href="#m511432db30" y="504"/>
      </g>
     </g>
     <g id="text_4">
      <!-- 1500 -->
      <g style="fill:#ffffff;" transform="translate(592.832748 518.598438)scale(0.1 -0.1)">
       <use xlink:href="#DejaVuSans-31"/>
       <use x="63.623047" xlink:href="#DejaVuSans-35"/>
       <use x="127.246094" xlink:href="#DejaVuSans-30"/>
       <use x="190.869141" xlink:href="#DejaVuSans-30"/>
      </g>
     </g>
    </g>
    <g id="xtick_5">
     <g id="line2d_5">
      <g>
       <use style="fill:#ffffff;stroke:#ffffff;stroke-width:0.8;" x="753.573966" xlink:href="#m511432db30" y="504"/>
      </g>
     </g>
     <g id="text_5">
      <!-- 2000 -->
      <g style="fill:#ffffff;" transform="translate(740.848966 518.598438)scale(0.1 -0.1)">
       <defs>
        <path d="M 1228 531 
L 3431 531 
L 3431 0 
L 469 0 
L 469 531 
Q 828 903 1448 1529 
Q 2069 2156 2228 2338 
Q 2531 2678 2651 2914 
Q 2772 3150 2772 3378 
Q 2772 3750 2511 3984 
Q 2250 4219 1831 4219 
Q 1534 4219 1204 4116 
Q 875 4013 500 3803 
L 500 4441 
Q 881 4594 1212 4672 
Q 1544 4750 1819 4750 
Q 2544 4750 2975 4387 
Q 3406 4025 3406 3419 
Q 3406 3131 3298 2873 
Q 3191 2616 2906 2266 
Q 2828 2175 2409 1742 
Q 1991 1309 1228 531 
z
" id="DejaVuSans-32" transform="scale(0.015625)"/>
       </defs>
       <use xlink:href="#DejaVuSans-32"/>
       <use x="63.623047" xlink:href="#DejaVuSans-30"/>
       <use x="127.246094" xlink:href="#DejaVuSans-30"/>
       <use x="190.869141" xlink:href="#DejaVuSans-30"/>
      </g>
     </g>
    </g>
    <g id="xtick_6">
     <g id="line2d_6">
      <g>
       <use style="fill:#ffffff;stroke:#ffffff;stroke-width:0.8;" x="901.590185" xlink:href="#m511432db30" y="504"/>
      </g>
     </g>
     <g id="text_6">
      <!-- 2500 -->
      <g style="fill:#ffffff;" transform="translate(888.865185 518.598438)scale(0.1 -0.1)">
       <use xlink:href="#DejaVuSans-32"/>
       <use x="63.623047" xlink:href="#DejaVuSans-35"/>
       <use x="127.246094" xlink:href="#DejaVuSans-30"/>
       <use x="190.869141" xlink:href="#DejaVuSans-30"/>
      </g>
     </g>
    </g>
    <g id="text_7">
     <!-- iteration -->
     <g style="fill:#ffffff;" transform="translate(495.477344 532.276562)scale(0.1 -0.1)">
      <defs>
       <path d="M 603 3500 
L 1178 3500 
L 1178 0 
L 603 0 
L 603 3500 
z
M 603 4863 
L 1178 4863 
L 1178 4134 
L 603 4134 
L 603 4863 
z
" id="DejaVuSans-69" transform="scale(0.015625)"/>
       <path d="M 1172 4494 
L 1172 3500 
L 2356 3500 
L 2356 3053 
L 1172 3053 
L 1172 1153 
Q 1172 725 1289 603 
Q 1406 481 1766 481 
L 2356 481 
L 2356 0 
L 1766 0 
Q 1100 0 847 248 
Q 594 497 594 1153 
L 594 3053 
L 172 3053 
L 172 3500 
L 594 3500 
L 594 4494 
L 1172 4494 
z
" id="DejaVuSans-74" transform="scale(0.015625)"/>
       <path d="M 3597 1894 
L 3597 1613 
L 953 1613 
Q 991 1019 1311 708 
Q 1631 397 2203 397 
Q 2534 397 2845 478 
Q 3156 559 3463 722 
L 3463 178 
Q 3153 47 2828 -22 
Q 2503 -91 2169 -91 
Q 1331 -91 842 396 
Q 353 884 353 1716 
Q 353 2575 817 3079 
Q 1281 3584 2069 3584 
Q 2775 3584 3186 3129 
Q 3597 2675 3597 1894 
z
M 3022 2063 
Q 3016 2534 2758 2815 
Q 2500 3097 2075 3097 
Q 1594 3097 1305 2825 
Q 1016 2553 972 2059 
L 3022 2063 
z
" id="DejaVuSans-65" transform="scale(0.015625)"/>
       <path d="M 2631 2963 
Q 2534 3019 2420 3045 
Q 2306 3072 2169 3072 
Q 1681 3072 1420 2755 
Q 1159 2438 1159 1844 
L 1159 0 
L 581 0 
L 581 3500 
L 1159 3500 
L 1159 2956 
Q 1341 3275 1631 3429 
Q 1922 3584 2338 3584 
Q 2397 3584 2469 3576 
Q 2541 3569 2628 3553 
L 2631 2963 
z
" id="DejaVuSans-72" transform="scale(0.015625)"/>
       <path d="M 2194 1759 
Q 1497 1759 1228 1600 
Q 959 1441 959 1056 
Q 959 750 1161 570 
Q 1363 391 1709 391 
Q 2188 391 2477 730 
Q 2766 1069 2766 1631 
L 2766 1759 
L 2194 1759 
z
M 3341 1997 
L 3341 0 
L 2766 0 
L 2766 531 
Q 2569 213 2275 61 
Q 1981 -91 1556 -91 
Q 1019 -91 701 211 
Q 384 513 384 1019 
Q 384 1609 779 1909 
Q 1175 2209 1959 2209 
L 2766 2209 
L 2766 2266 
Q 2766 2663 2505 2880 
Q 2244 3097 1772 3097 
Q 1472 3097 1187 3025 
Q 903 2953 641 2809 
L 641 3341 
Q 956 3463 1253 3523 
Q 1550 3584 1831 3584 
Q 2591 3584 2966 3190 
Q 3341 2797 3341 1997 
z
" id="DejaVuSans-61" transform="scale(0.015625)"/>
       <path d="M 1959 3097 
Q 1497 3097 1228 2736 
Q 959 2375 959 1747 
Q 959 1119 1226 758 
Q 1494 397 1959 397 
Q 2419 397 2687 759 
Q 2956 1122 2956 1747 
Q 2956 2369 2687 2733 
Q 2419 3097 1959 3097 
z
M 1959 3584 
Q 2709 3584 3137 3096 
Q 3566 2609 3566 1747 
Q 3566 888 3137 398 
Q 2709 -91 1959 -91 
Q 1206 -91 779 398 
Q 353 888 353 1747 
Q 353 2609 779 3096 
Q 1206 3584 1959 3584 
z
" id="DejaVuSans-6f" transform="scale(0.015625)"/>
       <path d="M 3513 2113 
L 3513 0 
L 2938 0 
L 2938 2094 
Q 2938 2591 2744 2837 
Q 2550 3084 2163 3084 
Q 1697 3084 1428 2787 
Q 1159 2491 1159 1978 
L 1159 0 
L 581 0 
L 581 3500 
L 1159 3500 
L 1159 2956 
Q 1366 3272 1645 3428 
Q 1925 3584 2291 3584 
Q 2894 3584 3203 3211 
Q 3513 2838 3513 2113 
z
" id="DejaVuSans-6e" transform="scale(0.015625)"/>
      </defs>
      <use xlink:href="#DejaVuSans-69"/>
      <use x="27.783203" xlink:href="#DejaVuSans-74"/>
      <use x="66.992188" xlink:href="#DejaVuSans-65"/>
      <use x="128.515625" xlink:href="#DejaVuSans-72"/>
      <use x="169.628906" xlink:href="#DejaVuSans-61"/>
      <use x="230.908203" xlink:href="#DejaVuSans-74"/>
      <use x="270.117188" xlink:href="#DejaVuSans-69"/>
      <use x="297.900391" xlink:href="#DejaVuSans-6f"/>
      <use x="359.082031" xlink:href="#DejaVuSans-6e"/>
     </g>
    </g>
   </g>
   <g id="matplotlib.axis_2">
    <g id="ytick_1">
     <g id="line2d_7">
      <defs>
       <path d="M 0 0 
L -3.5 0 
" id="ma35989ace7" style="stroke:#ffffff;stroke-width:0.8;"/>
      </defs>
      <g>
       <use style="fill:#ffffff;stroke:#ffffff;stroke-width:0.8;" x="126" xlink:href="#ma35989ace7" y="484.232727"/>
      </g>
     </g>
     <g id="text_8">
      <!-- 0 -->
      <g style="fill:#ffffff;" transform="translate(112.6375 488.031946)scale(0.1 -0.1)">
       <use xlink:href="#DejaVuSans-30"/>
      </g>
     </g>
    </g>
    <g id="ytick_2">
     <g id="line2d_8">
      <g>
       <use style="fill:#ffffff;stroke:#ffffff;stroke-width:0.8;" x="126" xlink:href="#ma35989ace7" y="422.13008"/>
      </g>
     </g>
     <g id="text_9">
      <!-- 5000 -->
      <g style="fill:#ffffff;" transform="translate(93.55 425.929299)scale(0.1 -0.1)">
       <use xlink:href="#DejaVuSans-35"/>
       <use x="63.623047" xlink:href="#DejaVuSans-30"/>
       <use x="127.246094" xlink:href="#DejaVuSans-30"/>
       <use x="190.869141" xlink:href="#DejaVuSans-30"/>
      </g>
     </g>
    </g>
    <g id="ytick_3">
     <g id="line2d_9">
      <g>
       <use style="fill:#ffffff;stroke:#ffffff;stroke-width:0.8;" x="126" xlink:href="#ma35989ace7" y="360.027432"/>
      </g>
     </g>
     <g id="text_10">
      <!-- 10000 -->
      <g style="fill:#ffffff;" transform="translate(87.1875 363.826651)scale(0.1 -0.1)">
       <use xlink:href="#DejaVuSans-31"/>
       <use x="63.623047" xlink:href="#DejaVuSans-30"/>
       <use x="127.246094" xlink:href="#DejaVuSans-30"/>
       <use x="190.869141" xlink:href="#DejaVuSans-30"/>
       <use x="254.492188" xlink:href="#DejaVuSans-30"/>
      </g>
     </g>
    </g>
    <g id="ytick_4">
     <g id="line2d_10">
      <g>
       <use style="fill:#ffffff;stroke:#ffffff;stroke-width:0.8;" x="126" xlink:href="#ma35989ace7" y="297.924785"/>
      </g>
     </g>
     <g id="text_11">
      <!-- 15000 -->
      <g style="fill:#ffffff;" transform="translate(87.1875 301.724003)scale(0.1 -0.1)">
       <use xlink:href="#DejaVuSans-31"/>
       <use x="63.623047" xlink:href="#DejaVuSans-35"/>
       <use x="127.246094" xlink:href="#DejaVuSans-30"/>
       <use x="190.869141" xlink:href="#DejaVuSans-30"/>
       <use x="254.492188" xlink:href="#DejaVuSans-30"/>
      </g>
     </g>
    </g>
    <g id="ytick_5">
     <g id="line2d_11">
      <g>
       <use style="fill:#ffffff;stroke:#ffffff;stroke-width:0.8;" x="126" xlink:href="#ma35989ace7" y="235.822137"/>
      </g>
     </g>
     <g id="text_12">
      <!-- 20000 -->
      <g style="fill:#ffffff;" transform="translate(87.1875 239.621356)scale(0.1 -0.1)">
       <use xlink:href="#DejaVuSans-32"/>
       <use x="63.623047" xlink:href="#DejaVuSans-30"/>
       <use x="127.246094" xlink:href="#DejaVuSans-30"/>
       <use x="190.869141" xlink:href="#DejaVuSans-30"/>
       <use x="254.492188" xlink:href="#DejaVuSans-30"/>
      </g>
     </g>
    </g>
    <g id="ytick_6">
     <g id="line2d_12">
      <g>
       <use style="fill:#ffffff;stroke:#ffffff;stroke-width:0.8;" x="126" xlink:href="#ma35989ace7" y="173.719489"/>
      </g>
     </g>
     <g id="text_13">
      <!-- 25000 -->
      <g style="fill:#ffffff;" transform="translate(87.1875 177.518708)scale(0.1 -0.1)">
       <use xlink:href="#DejaVuSans-32"/>
       <use x="63.623047" xlink:href="#DejaVuSans-35"/>
       <use x="127.246094" xlink:href="#DejaVuSans-30"/>
       <use x="190.869141" xlink:href="#DejaVuSans-30"/>
       <use x="254.492188" xlink:href="#DejaVuSans-30"/>
      </g>
     </g>
    </g>
    <g id="ytick_7">
     <g id="line2d_13">
      <g>
       <use style="fill:#ffffff;stroke:#ffffff;stroke-width:0.8;" x="126" xlink:href="#ma35989ace7" y="111.616842"/>
      </g>
     </g>
     <g id="text_14">
      <!-- 30000 -->
      <g style="fill:#ffffff;" transform="translate(87.1875 115.416061)scale(0.1 -0.1)">
       <defs>
        <path d="M 2597 2516 
Q 3050 2419 3304 2112 
Q 3559 1806 3559 1356 
Q 3559 666 3084 287 
Q 2609 -91 1734 -91 
Q 1441 -91 1130 -33 
Q 819 25 488 141 
L 488 750 
Q 750 597 1062 519 
Q 1375 441 1716 441 
Q 2309 441 2620 675 
Q 2931 909 2931 1356 
Q 2931 1769 2642 2001 
Q 2353 2234 1838 2234 
L 1294 2234 
L 1294 2753 
L 1863 2753 
Q 2328 2753 2575 2939 
Q 2822 3125 2822 3475 
Q 2822 3834 2567 4026 
Q 2313 4219 1838 4219 
Q 1578 4219 1281 4162 
Q 984 4106 628 3988 
L 628 4550 
Q 988 4650 1302 4700 
Q 1616 4750 1894 4750 
Q 2613 4750 3031 4423 
Q 3450 4097 3450 3541 
Q 3450 3153 3228 2886 
Q 3006 2619 2597 2516 
z
" id="DejaVuSans-33" transform="scale(0.015625)"/>
       </defs>
       <use xlink:href="#DejaVuSans-33"/>
       <use x="63.623047" xlink:href="#DejaVuSans-30"/>
       <use x="127.246094" xlink:href="#DejaVuSans-30"/>
       <use x="190.869141" xlink:href="#DejaVuSans-30"/>
       <use x="254.492188" xlink:href="#DejaVuSans-30"/>
      </g>
     </g>
    </g>
   </g>
   <g id="line2d_14">
    <path clip-path="url(#pcf4ef4b1cc)" d="M 161.509091 158.71549 
L 161.805123 185.879188 
L 162.101156 182.17787 
L 162.397188 192.126714 
L 162.693221 166.167807 
L 162.989253 173.27235 
L 163.285286 176.973668 
L 163.581318 172.229026 
L 163.87735 189.518403 
L 164.173383 172.229026 
L 164.469415 300.756665 
L 165.06148 310.531622 
L 165.357513 334.329357 
L 165.653545 308.283506 
L 165.949577 330.19332 
L 166.24561 335.310578 
L 166.541642 313.400764 
L 166.837675 315.959393 
L 167.133707 286.137702 
L 167.42974 313.3014 
L 167.725772 308.941794 
L 168.021805 289.317358 
L 168.317837 197.616588 
L 168.613869 224.780286 
L 169.205934 206.137071 
L 169.501967 233.039938 
L 169.797999 227.699111 
L 170.094032 208.074674 
L 170.390064 213.415502 
L 170.686096 240.852451 
L 170.982129 250.801296 
L 171.278161 266.351799 
L 171.574194 252.453226 
L 172.462291 182.699532 
L 172.758324 187.81679 
L 173.350388 228.85422 
L 173.646421 240.81519 
L 173.942453 225.873293 
L 174.238486 222.171975 
L 174.534518 249.335673 
L 174.830551 230.953289 
L 175.126583 204.050422 
L 175.422615 223.674859 
L 175.718648 228.419501 
L 176.01468 201.255803 
L 176.310713 228.15867 
L 176.606745 208.534234 
L 177.19881 251.782517 
L 177.494843 263.445395 
L 177.790875 291.515791 
L 178.086907 294.07442 
L 178.38294 313.698857 
L 178.678972 304.333778 
L 178.975005 276.896828 
L 179.271037 271.77957 
L 179.56707 244.876703 
L 179.863102 240.517097 
L 180.455167 294.856914 
L 180.751199 305.662774 
L 181.047232 286.038338 
L 181.639297 276.499371 
L 182.231362 248.987898 
L 182.527394 237.325021 
L 182.823426 241.684627 
L 183.119459 237.051769 
L 183.711524 219.389776 
L 184.007556 223.091094 
L 184.303589 252.999729 
L 184.599621 256.949458 
L 184.895653 276.486951 
L 185.191686 263.358451 
L 185.487718 291.428848 
L 185.783751 276.486951 
L 186.079783 290.385523 
L 186.375816 320.207215 
L 186.967881 268.339083 
L 187.263913 258.154249 
L 187.559945 269.817126 
L 187.855978 265.45752 
L 188.448043 292.360387 
L 188.744075 269.705342 
L 189.33614 295.204689 
L 189.632172 299.564294 
L 189.928205 318.033622 
L 190.52027 279.939858 
L 190.816302 250.031223 
L 191.112335 246.329905 
L 191.408367 234.368935 
L 191.7044 229.276518 
L 192.296464 258.514444 
L 192.592497 282.312179 
L 192.888529 277.952573 
L 193.480594 335.931605 
L 194.072659 374.025369 
L 194.368692 381.738518 
L 194.664724 408.902216 
L 194.960756 390.432888 
L 195.256789 394.134206 
L 195.552821 389.389564 
L 195.848854 407.858891 
L 196.144886 404.145153 
L 196.440919 409.560504 
L 196.736951 407.001875 
L 197.032983 377.180183 
L 197.329016 382.297442 
L 197.625048 372.932362 
L 197.921081 375.490991 
L 198.217113 405.312683 
L 198.513146 386.843355 
L 198.809178 376.037495 
L 199.105211 373.478866 
L 199.401243 368.361607 
L 199.993308 378.111723 
L 200.28934 388.917584 
L 200.881405 355.593303 
L 201.177438 350.476045 
L 201.47347 342.762896 
L 201.769502 365.417942 
L 202.065535 339.459035 
L 202.361567 323.908532 
L 202.6576 301.253486 
L 202.953632 305.998129 
L 203.545697 286.56 
L 203.84173 287.653007 
L 204.433794 321.064231 
L 204.729827 188.897376 
L 205.025859 203.839273 
L 205.321892 177.880367 
L 205.617924 203.839273 
L 205.913957 174.017582 
L 206.209989 189.518403 
L 206.506021 194.15126 
L 207.098086 253.881587 
L 207.394119 263.830431 
L 207.690151 261.271802 
L 207.986184 275.170374 
L 208.282216 270.537517 
L 208.578249 244.491667 
L 208.874281 232.356809 
L 209.170313 250.826137 
L 209.466346 278.263086 
L 209.762378 268.898007 
L 210.058411 241.461057 
L 210.354443 259.843441 
L 210.650476 247.882471 
L 210.946508 225.227425 
L 211.24254 251.273276 
L 211.538573 232.803948 
L 211.834605 237.436806 
L 212.130638 261.23454 
L 212.722703 271.0716 
L 213.018735 267.357861 
L 213.314768 271.0716 
L 213.6108 245.112693 
L 213.906832 249.472299 
L 214.202865 276.909249 
L 214.498897 288.870219 
L 214.79493 284.125576 
L 215.090962 310.084483 
L 215.386995 306.370745 
L 215.979059 280.511202 
L 216.275092 275.418785 
L 216.571124 279.132523 
L 216.867157 251.968825 
L 217.163189 237.53617 
L 217.755254 279.803232 
L 218.051287 275.443626 
L 218.347319 257.061242 
L 218.939384 303.588546 
L 219.235416 294.223467 
L 219.531449 321.387165 
L 219.827481 332.193026 
L 220.123514 322.244181 
L 220.419546 326.603787 
L 220.715578 302.806053 
L 221.011611 297.390702 
L 221.307643 321.188436 
L 221.603676 325.933079 
L 221.899708 299.974172 
L 222.195741 313.872744 
L 222.491773 303.066884 
L 222.787806 298.434026 
L 223.083838 278.80959 
L 223.37987 251.645892 
L 223.675903 261.010971 
L 223.971935 231.189279 
L 224.267968 224.680922 
L 224.564 239.622819 
L 224.860033 209.714184 
L 225.156065 229.338621 
L 225.452097 238.430448 
L 226.044162 248.863693 
L 226.340195 243.771276 
L 226.636227 270.934974 
L 226.93226 253.645597 
L 227.228292 249.931859 
L 227.524325 266.016444 
L 227.820357 294.086841 
L 228.116389 267.183974 
L 228.708454 280.312474 
L 229.300519 270.450573 
L 229.596552 270.450573 
L 229.892584 288.919901 
L 230.484649 344.700499 
L 230.780681 335.335419 
L 231.076714 362.238286 
L 231.668779 352.537853 
L 231.964811 361.902932 
L 232.556876 335.000065 
L 233.148941 283.492129 
L 233.444973 313.400764 
L 233.741006 297.490066 
L 234.037038 309.152943 
L 234.333071 281.082547 
L 234.629103 265.532044 
L 234.925135 285.15648 
L 235.221168 295.291632 
L 235.5172 313.413185 
L 235.813233 305.700036 
L 236.109265 322.989413 
L 236.405298 303.364977 
L 236.70133 300.806347 
L 236.997363 305.898765 
L 237.293395 332.801631 
L 237.589427 335.360261 
L 237.88546 350.302158 
L 238.181492 190.549307 
L 238.477525 182.302075 
L 238.773557 192.02735 
L 239.365622 218.098041 
L 239.957687 165.621304 
L 240.549752 222.432806 
L 240.845784 206.609052 
L 241.141817 220.507624 
L 241.733882 196.660207 
L 242.029914 199.579032 
L 242.325946 207.801422 
L 242.621979 192.250919 
L 242.918011 201.268224 
L 243.214044 228.705174 
L 243.510076 217.899313 
L 243.806109 241.883355 
L 244.102141 241.883355 
L 244.398173 229.3262 
L 244.990238 253.173617 
L 245.582303 243.125408 
L 245.878336 264.078842 
L 246.174368 234.170207 
L 246.470401 263.668964 
L 246.766433 187.56838 
L 247.062465 191.269698 
L 247.65453 238.057832 
L 247.950563 245.770981 
L 248.246595 230.829084 
L 248.542628 235.573726 
L 248.83866 247.534696 
L 249.134692 252.651954 
L 249.430725 280.088904 
L 249.726757 272.375755 
L 250.318822 227.92268 
L 250.614855 235.635829 
L 250.910887 230.220478 
L 251.20692 219.414617 
L 251.502952 202.150081 
L 251.798984 229.052948 
L 252.095017 199.144313 
L 252.687082 189.394198 
L 252.983114 193.107936 
L 253.279147 207.341863 
L 253.575179 190.549307 
L 253.871211 220.457942 
L 254.167244 225.79877 
L 254.463276 245.932448 
L 254.759309 241.572842 
L 255.055341 251.521686 
L 255.351374 278.685384 
L 255.943439 233.102041 
L 256.239471 238.517392 
L 256.831536 231.102336 
L 257.127568 220.296475 
L 257.423601 247.509855 
L 257.719633 258.315716 
L 258.015666 253.571074 
L 258.311698 275.915606 
L 258.60773 268.202457 
L 258.903763 283.144354 
L 259.199795 272.338494 
L 259.495828 276.039812 
L 259.79186 289.093788 
L 260.087893 261.023391 
L 260.679958 311.003602 
L 260.97599 291.379166 
L 261.272022 263.308769 
L 261.568055 291.379166 
L 262.16012 256.912196 
L 262.456152 284.982593 
L 262.752185 269.43209 
L 263.048217 292.087136 
L 263.344249 295.800874 
L 263.640282 285.85203 
L 263.936314 283.293401 
L 264.232347 296.198331 
L 264.528379 284.237361 
L 264.824412 301.526738 
L 265.120444 293.813589 
L 265.416477 278.871692 
L 265.712509 278.871692 
L 266.008541 248.963057 
L 266.304574 236.318958 
L 266.600606 243.411081 
L 266.896639 225.215005 
L 267.192671 255.12364 
L 267.488704 251.422322 
L 267.784736 256.216646 
L 268.080769 271.158543 
L 268.376801 268.599914 
L 268.672833 277.964994 
L 268.968866 273.332136 
L 269.264898 210.757508 
L 269.560931 210.757508 
L 269.856963 206.733257 
L 270.152996 227.127766 
L 270.449028 236.492846 
L 270.74506 220.942343 
L 271.041093 226.03476 
L 271.337125 199.988909 
L 271.633158 228.059306 
L 271.92919 243.609809 
L 272.225223 248.727067 
L 272.521255 268.351504 
L 272.817288 263.010676 
L 273.11332 235.846978 
L 273.409352 265.755613 
L 273.705385 243.845799 
L 274.001417 248.702226 
L 274.29745 229.077789 
L 274.593482 219.128945 
L 274.889515 191.865883 
L 275.185547 191.865883 
L 275.481579 206.80778 
L 275.777612 233.971478 
L 276.369677 178.737383 
L 276.665709 184.575032 
L 276.961742 195.380893 
L 277.257774 199.740499 
L 277.553807 194.995856 
L 277.849839 209.937753 
L 278.145871 206.224015 
L 278.441904 213.937164 
L 278.737936 227.065664 
L 279.033969 213.167091 
L 279.330001 223.92327 
L 279.626034 228.667912 
L 279.922066 223.92327 
L 280.218098 194.014635 
L 280.514131 220.060485 
L 280.810163 217.501856 
L 281.106196 229.636713 
L 281.402228 208.931691 
L 281.698261 211.179806 
L 281.994293 206.062548 
L 282.290326 184.98491 
L 282.586358 182.202711 
L 282.88239 185.916449 
L 283.178423 213.353399 
L 283.474455 227.251972 
L 283.770488 232.592799 
L 284.06652 206.633893 
L 284.362553 228.543707 
L 284.658585 206.633893 
L 284.954617 216.582737 
L 285.25065 210.757508 
L 285.546682 198.796538 
L 285.842715 199.951648 
L 286.138747 199.951648 
L 286.43478 203.777171 
L 286.730812 218.719068 
L 287.322877 197.107346 
L 287.618909 209.39125 
L 287.914942 215.216478 
L 288.210974 195.592042 
L 288.507007 217.501856 
L 288.803039 212.409439 
L 289.099072 222.358283 
L 289.395104 218.644545 
L 289.691136 237.026928 
L 289.987169 231.686101 
L 290.283201 220.88024 
L 290.875266 259.085789 
L 291.171299 237.175975 
L 291.467331 227.810895 
L 291.763364 224.109578 
L 292.355428 199.815022 
L 292.651461 205.280055 
L 292.947493 214.645134 
L 293.243526 202.684164 
L 293.539558 198.051307 
L 293.835591 203.392134 
L 294.427655 251.260855 
L 295.01972 197.864999 
L 295.315753 192.449648 
L 295.611785 192.834684 
L 295.907818 197.467542 
L 296.20385 180.227847 
L 296.499883 191.890724 
L 297.091947 174.812496 
L 297.684012 208.819906 
L 297.980045 204.075264 
L 298.276077 217.067137 
L 298.57211 244.230835 
L 298.868142 214.409144 
L 299.164174 218.76875 
L 299.460207 244.727657 
L 299.756239 252.440805 
L 300.348304 206.857462 
L 300.644337 191.306959 
L 300.940369 203.267929 
L 301.236402 189.369357 
L 301.532434 212.024402 
L 302.124499 201.566317 
L 302.420531 215.464889 
L 302.716564 215.464889 
L 303.012596 189.953121 
L 303.308629 180.935817 
L 303.900693 235.18869 
L 304.196726 253.894007 
L 304.492758 223.985372 
L 304.788791 216.085916 
L 305.676888 232.791528 
L 305.972921 210.881714 
L 306.564985 251.173911 
L 307.15705 241.423796 
L 307.749115 251.285696 
L 308.045148 225.239846 
L 308.34118 227.798475 
L 308.637212 232.431332 
L 308.933245 224.718184 
L 309.229277 209.776287 
L 309.52531 229.400723 
L 309.821342 234.49314 
L 310.70944 218.967478 
L 311.005472 215.25374 
L 311.301504 192.052191 
L 311.597537 261.718941 
L 311.893569 239.933332 
L 312.189602 251.894302 
L 312.781667 261.271802 
L 313.373731 285.976235 
L 313.669764 314.046632 
L 313.965796 286.609682 
L 314.261829 274.648712 
L 314.557861 244.827021 
L 314.853894 256.787991 
L 315.149926 241.846094 
L 315.741991 195.30637 
L 316.038023 205.255214 
L 316.334056 229.611872 
L 316.630088 199.703237 
L 316.926121 211.366114 
L 317.814218 263.768328 
L 318.11025 258.352978 
L 318.406283 239.970594 
L 318.702315 230.605515 
L 318.998348 233.164144 
L 319.29438 209.366409 
L 319.590413 236.269276 
L 319.886445 209.366409 
L 320.47851 245.03817 
L 320.774542 268.835904 
L 321.070575 264.091262 
L 321.366607 252.130292 
L 321.66264 279.033159 
L 321.958672 269.084315 
L 322.254705 296.521265 
L 322.846769 286.771149 
L 323.438834 294.186205 
L 323.734867 289.826599 
L 324.030899 294.459457 
L 324.326932 286.746308 
L 324.622964 301.688205 
L 324.918997 273.617808 
L 325.215029 278.735066 
L 326.103126 230.953289 
L 326.399159 240.902134 
L 326.695191 214.943227 
L 326.991224 209.602399 
L 327.287256 191.133072 
L 327.583288 198.846221 
L 327.879321 184.947648 
L 328.175353 273.679911 
L 328.471386 276.23854 
L 328.767418 248.168143 
L 329.063451 275.331841 
L 329.359483 245.51015 
L 329.655516 249.211468 
L 329.951548 245.51015 
L 330.24758 248.776749 
L 330.543613 244.417143 
L 330.839645 265.047643 
L 331.135678 259.706815 
L 331.43171 264.824073 
L 331.727743 245.199637 
L 332.023775 245.174796 
L 332.319807 235.225952 
L 333.207905 320.145112 
L 333.79997 311.699152 
L 334.096002 306.95451 
L 334.392035 312.779738 
L 334.688067 285.876871 
L 334.984099 315.698562 
L 335.280132 287.628166 
L 335.576164 300.756665 
L 335.872197 170.577095 
L 336.168229 158.72791 
L 336.464262 176.265698 
L 336.760294 178.389608 
L 337.056326 173.27235 
L 337.352359 199.318201 
L 337.944424 190.85982 
L 338.536489 242.405018 
L 338.832521 251.770097 
L 339.128554 278.933795 
L 339.720618 230.121114 
L 340.312683 281.939563 
L 340.608716 272.574484 
L 340.904748 289.863861 
L 341.200781 270.239424 
L 341.496813 273.953163 
L 341.792846 279.29399 
L 342.088878 253.24814 
L 342.38491 239.349567 
L 342.680943 269.171259 
L 342.976975 259.222415 
L 343.273008 254.862809 
L 343.56904 227.351336 
L 344.161105 248.118461 
L 344.457137 238.169617 
L 344.75317 272.537222 
L 345.049202 287.218288 
L 345.641267 296.260434 
L 345.9373 282.361861 
L 346.233332 262.737424 
L 346.529365 265.296054 
L 346.825397 287.951099 
L 347.121429 298.75696 
L 347.713494 289.280096 
L 348.009527 266.62505 
L 348.305559 280.523623 
L 348.601592 275.182795 
L 348.897624 263.221825 
L 349.193656 282.846262 
L 349.489689 263.221825 
L 349.785721 236.157491 
L 350.081754 280.945921 
L 350.377786 306.991771 
L 350.673819 172.179344 
L 350.969851 200.24974 
L 351.561916 221.57579 
L 351.857948 226.916617 
L 352.153981 221.8242 
L 353.042078 252.801001 
L 353.338111 237.859104 
L 353.634143 255.148481 
L 353.930175 251.434743 
L 354.226208 240.628882 
L 355.114305 192.114294 
L 355.410338 210.583621 
L 355.70637 215.700879 
L 356.002403 197.231552 
L 356.298435 201.591158 
L 356.594467 184.301781 
L 356.8905 194.250625 
L 357.186532 233.188985 
L 357.482565 223.240141 
L 357.778597 242.864577 
L 358.07463 249.372935 
L 358.370662 244.740077 
L 358.666694 262.029454 
L 358.962727 252.664375 
L 359.258759 264.625345 
L 359.554792 259.508087 
L 360.442889 291.925669 
L 361.034954 248.677385 
L 361.330986 256.390534 
L 361.627019 253.831905 
L 361.923051 234.207468 
L 362.219084 236.766097 
L 362.515116 241.398955 
L 362.811149 229.437985 
L 363.107181 225.736667 
L 363.403213 195.914976 
L 363.699246 225.823611 
L 363.995278 225.823611 
L 364.291311 229.524929 
L 364.587343 247.907312 
L 364.883376 237.101452 
L 365.475441 278.635702 
L 365.771473 266.972825 
L 366.067505 248.590441 
L 366.363538 265.879818 
L 366.65957 261.520213 
L 366.955603 239.610398 
L 367.251635 267.047348 
L 367.547668 266.960404 
L 368.139732 287.131344 
L 368.435765 313.177195 
L 368.731797 287.131344 
L 369.02783 276.325484 
L 369.323862 306.147175 
L 369.619895 179.085158 
L 369.915927 269.593557 
L 370.21196 263.432974 
L 370.507992 268.525391 
L 370.804024 294.571242 
L 371.100057 306.234119 
L 371.988154 275.257318 
L 372.284187 279.790811 
L 372.580219 293.689384 
L 372.876251 321.759781 
L 373.172284 303.377397 
L 373.468316 307.737003 
L 373.764349 319.697973 
L 374.060381 293.652122 
L 374.356414 311.947562 
L 374.652446 282.125871 
L 374.948479 293.788748 
L 375.244511 288.447921 
L 375.540543 261.545054 
L 375.836576 288.65907 
L 376.132608 292.025033 
L 376.428641 168.316559 
L 376.724673 155.026592 
L 377.316738 181.929459 
L 377.61277 195.828032 
L 377.908803 181.929459 
L 378.204835 201.553896 
L 378.500868 209.267045 
L 379.092933 189.096105 
L 379.388965 177.135135 
L 379.98103 208.260982 
L 380.277062 226.643366 
L 380.573095 236.008445 
L 381.16516 202.075558 
L 381.461192 220.457942 
L 381.757225 215.117114 
L 382.349289 182.88584 
L 382.645322 182.88584 
L 382.941354 265.792875 
L 383.237387 282.746898 
L 383.533419 282.448805 
L 383.829452 290.161954 
L 384.125484 305.401943 
L 384.421517 290.161954 
L 384.717549 289.913543 
L 385.013581 289.913543 
L 385.309614 313.711278 
L 385.605646 302.905417 
L 385.901679 321.287801 
L 386.197711 306.345904 
L 386.493744 317.151764 
L 386.789776 290.248897 
L 387.085808 289.988066 
L 387.381841 309.612503 
L 387.677873 177.073032 
L 387.973906 166.577685 
L 388.269938 192.623535 
L 388.565971 196.337274 
L 389.158036 161.162334 
L 389.454068 131.340643 
L 389.7501 121.975563 
L 390.046133 135.824454 
L 390.342165 131.464848 
L 390.638198 140.829927 
L 390.93423 170.651619 
L 391.230263 184.550191 
L 391.526295 180.848873 
L 391.822327 206.80778 
L 392.414392 227.562485 
L 392.710425 232.679743 
L 393.006457 262.588378 
L 393.894555 218.644545 
L 394.190587 226.891776 
L 394.486619 231.251382 
L 394.782652 226.134124 
L 395.374717 235.859399 
L 395.670749 230.518571 
L 395.966782 219.290412 
L 396.262814 219.290412 
L 396.558846 218.992319 
L 396.854879 234.766392 
L 397.150911 238.46771 
L 397.446944 256.850093 
L 397.742976 251.757676 
L 398.039009 256.874935 
L 398.335041 229.437985 
L 398.631074 241.398955 
L 398.927106 237.685216 
L 399.223138 265.755613 
L 399.519171 262.054295 
L 399.815203 232.14566 
L 400.111236 259.048527 
L 400.703301 207.180396 
L 400.999333 224.469773 
L 401.295365 197.306075 
L 401.591398 224.743025 
L 401.88743 221.35222 
L 402.183463 226.693048 
L 402.479495 199.256098 
L 403.367593 183.705595 
L 403.663625 189.046423 
L 403.959657 215.092273 
L 404.25569 197.802896 
L 404.551722 211.701469 
L 404.847755 193.319085 
L 405.143787 220.482783 
L 405.43982 217.924154 
L 405.735852 223.165617 
L 406.031884 250.068484 
L 406.623949 224.507035 
L 406.919982 266.62505 
L 407.216014 236.803359 
L 407.512047 223.836326 
L 407.808079 193.927691 
L 408.104112 198.560548 
L 408.696176 236.654312 
L 409.288241 213.030465 
L 409.584274 224.991435 
L 409.880306 230.406786 
L 410.176339 227.848157 
L 410.472371 201.802307 
L 411.064436 218.979899 
L 411.360468 218.979899 
L 411.656501 221.538528 
L 411.952533 206.596631 
L 412.248566 216.545475 
L 412.544598 242.591326 
L 412.840631 212.769634 
L 413.136663 208.136777 
L 413.432695 237.958468 
L 413.728728 228.593389 
L 414.02476 251.248435 
L 414.320793 246.503792 
L 414.616825 255.868872 
L 414.912858 226.04718 
L 415.20889 240.989077 
L 415.504923 219.079263 
L 415.800955 213.986846 
L 416.096987 204.038002 
L 416.39302 208.397608 
L 416.689052 180.327211 
L 417.57715 256.874935 
L 417.873182 256.874935 
L 418.169214 282.982888 
L 418.465247 255.545938 
L 419.353344 270.264265 
L 419.649377 251.794938 
L 419.945409 270.264265 
L 420.241442 252.974888 
L 420.537474 257.334494 
L 421.129539 306.681258 
L 421.425571 302.97994 
L 421.721604 308.072357 
L 422.017636 294.173785 
L 422.313669 312.556168 
L 422.609701 316.257486 
L 422.905733 333.546863 
L 423.201766 315.077536 
L 423.497798 309.662185 
L 423.793831 291.279801 
L 424.089863 284.113156 
L 424.385896 295.453099 
L 424.681928 265.544464 
L 424.977961 295.527622 
L 425.273993 273.617808 
L 425.570025 303.4395 
L 425.866058 295.726351 
L 426.16209 322.890049 
L 426.458123 318.530443 
L 426.754155 303.588546 
L 427.050188 307.302284 
L 427.34622 280.138586 
L 427.642252 275.890765 
L 427.938285 294.273149 
L 428.234317 303.638228 
L 428.53035 298.52097 
L 428.826382 268.612335 
L 429.122415 280.275212 
L 429.418447 276.561474 
L 429.71448 250.515623 
L 430.010512 252.813421 
L 430.306544 280.536043 
L 430.602577 295.47794 
L 430.898609 265.656249 
L 431.194642 270.400891 
L 431.786707 253.322663 
L 432.082739 248.689806 
L 432.378771 226.370114 
L 432.674804 253.533812 
L 432.970836 237.983309 
L 433.266869 209.912912 
L 433.562901 228.38224 
L 433.858934 223.264982 
L 434.154966 249.310832 
L 434.450999 257.023981 
L 434.747031 261.656838 
L 435.339096 315.996655 
L 436.227193 268.773802 
L 436.523226 287.156185 
L 436.819258 257.24755 
L 437.11529 279.157364 
L 437.411323 251.993666 
L 437.707355 248.292349 
L 438.003388 253.409607 
L 438.595453 282.250076 
L 438.891485 287.665427 
L 439.187518 285.106798 
L 439.48355 273.145828 
L 439.779582 301.216225 
L 440.075615 273.779275 
L 440.371647 269.146418 
L 440.66768 249.521981 
L 440.963712 252.08061 
L 441.259745 267.631113 
L 441.555777 256.825252 
L 441.851809 286.733887 
L 442.147842 233.872114 
L 442.443874 233.872114 
L 442.739907 206.435164 
L 443.035939 233.872114 
L 443.331972 229.512508 
L 443.924037 281.330957 
L 444.220069 275.990129 
L 444.812134 324.604082 
L 445.108166 294.782391 
L 445.404199 313.251718 
L 445.700231 286.08802 
L 445.996264 301.638523 
L 446.292296 306.755781 
L 446.588328 279.318831 
L 446.884361 274.574189 
L 447.180393 279.915017 
L 447.772458 268.748961 
L 448.068491 273.108567 
L 448.364523 302.930258 
L 448.660556 308.271086 
L 448.956588 305.712457 
L 449.25262 279.75355 
L 449.548653 269.804706 
L 449.844685 295.850556 
L 450.140718 265.941921 
L 450.43675 284.324305 
L 450.732783 286.882934 
L 451.028815 274.921964 
L 451.324847 272.363335 
L 451.916912 238.206879 
L 452.508977 274.151891 
L 452.80501 255.769507 
L 453.101042 259.470825 
L 453.397075 255.769507 
L 453.693107 244.417143 
L 453.989139 224.792707 
L 454.285172 258.191511 
L 454.581204 262.824368 
L 454.877237 247.273865 
L 455.173269 277.095557 
L 455.469302 286.460636 
L 455.765334 263.80559 
L 456.061366 289.85144 
L 456.357399 262.948573 
L 456.653431 258.700752 
L 456.949464 258.315716 
L 457.245496 238.23172 
L 457.541529 266.339378 
L 457.837561 261.979772 
L 458.133594 192.114294 
L 458.429626 187.754688 
L 458.725658 192.387545 
L 459.021691 219.824495 
L 459.317723 192.387545 
L 459.613756 178.488973 
L 459.909788 270.189742 
L 460.205821 279.554821 
L 460.501853 275.841083 
L 460.797885 263.184564 
L 461.093918 263.259087 
L 461.38995 266.972825 
L 461.685983 272.798053 
L 461.982015 260.837083 
L 462.278048 282.746898 
L 462.57408 267.196395 
L 462.870113 272.537222 
L 463.166145 299.70092 
L 463.462177 304.333778 
L 463.75821 284.709341 
L 464.054242 311.612208 
L 464.350275 233.859693 
L 464.646307 237.561011 
L 464.94234 233.859693 
L 465.238372 251.14907 
L 465.534404 241.870935 
L 465.830437 214.433985 
L 466.126469 229.375882 
L 466.422502 225.016276 
L 466.718534 214.520929 
L 467.310599 224.730604 
L 467.606632 213.067727 
L 468.198696 254.515034 
L 468.494729 249.099683 
L 468.790761 276.263381 
L 469.086794 262.364809 
L 469.382826 235.20111 
L 469.678859 242.914259 
L 469.974891 213.005624 
L 470.270923 247.547117 
L 470.566956 242.206289 
L 471.159021 240.057538 
L 471.455053 234.033581 
L 471.751086 263.942216 
L 472.047118 236.505266 
L 472.639183 265.705931 
L 472.935215 281.62905 
L 473.231248 281.62905 
L 473.52728 287.044401 
L 473.823313 296.40948 
L 474.119345 291.776622 
L 474.415378 284.063474 
L 474.71141 265.594146 
L 475.007442 277.257023 
L 475.303475 247.348388 
L 475.599507 244.789759 
L 475.89554 274.698394 
L 476.191572 278.089199 
L 476.487605 273.841378 
L 476.783637 301.005076 
L 477.07967 273.568126 
L 477.375702 267.742898 
L 477.671734 241.783991 
L 477.967767 256.725888 
L 478.263799 247.360809 
L 478.559832 255.073958 
L 478.855864 255.073958 
L 479.447929 300.446152 
L 479.743961 270.624461 
L 480.039994 296.583367 
L 480.632059 324.09484 
L 480.928091 305.625513 
L 481.224124 325.24995 
L 481.520156 334.615029 
L 481.816189 337.173658 
L 482.112221 311.127807 
L 482.408253 303.414659 
L 482.704286 329.460509 
L 483.000318 340.26637 
L 483.296351 367.703319 
L 484.184448 353.456972 
L 484.480481 335.074588 
L 484.776513 328.504128 
L 485.072545 148.244983 
L 485.960643 211.900197 
L 486.256675 194.61082 
L 486.552708 267.966467 
L 487.144772 275.033749 
L 487.440805 255.409312 
L 487.736837 260.75014 
L 488.03287 268.463289 
L 488.328902 252.912786 
L 488.624935 257.545643 
L 488.920967 275.928027 
L 489.217 281.753255 
L 489.513032 311.66189 
L 489.809064 316.754307 
L 490.105097 346.575999 
L 490.401129 316.667364 
L 490.697162 316.667364 
L 490.993194 312.034506 
L 491.289227 316.667364 
L 491.585259 314.108735 
L 492.177324 285.268265 
L 492.473356 280.908659 
L 493.065421 232.952995 
L 493.361454 254.862809 
L 493.657486 266.525686 
L 493.953519 271.941037 
L 494.249551 244.504087 
L 494.545583 254.452931 
L 494.841616 243.647071 
L 495.137648 216.483373 
L 495.433681 211.73873 
L 495.729713 231.363167 
L 496.025746 221.998088 
L 496.61781 264.26515 
L 496.913843 252.602272 
L 497.209875 261.967352 
L 497.505908 256.874935 
L 497.80194 271.816832 
L 498.097973 299.253781 
L 498.394005 280.784454 
L 498.690038 202.510277 
L 498.98607 201.106757 
L 499.282102 209.366409 
L 499.578135 226.655786 
L 499.874167 222.022929 
L 500.466232 192.089453 
L 500.762265 187.5808 
L 501.354329 197.442701 
L 501.650362 193.728962 
L 501.946394 193.145198 
L 502.242427 203.553601 
L 502.538459 227.68669 
L 502.834492 201.727783 
L 503.722589 249.993961 
L 504.018621 276.896828 
L 504.314654 266.090967 
L 504.610686 261.731362 
L 504.906719 246.180859 
L 505.202751 246.180859 
L 505.498784 264.563242 
L 505.794816 268.276981 
L 506.090848 295.71393 
L 506.386881 301.539159 
L 506.682913 327.498065 
L 506.978946 343.048568 
L 507.274978 316.145701 
L 507.571011 316.145701 
L 507.867043 320.778559 
L 508.163076 244.677975 
L 508.459108 256.638944 
L 508.75514 254.080315 
L 509.051173 254.080315 
L 509.347205 283.98895 
L 509.643238 287.702689 
L 509.93927 282.585431 
L 510.235303 294.248308 
L 510.531335 296.806937 
L 510.827367 284.845967 
L 511.1234 296.806937 
L 511.715465 261.135176 
L 512.011497 266.252434 
L 512.30753 236.343799 
L 512.899595 253.422027 
L 513.195627 281.492424 
L 513.491659 269.829547 
L 513.787692 289.453983 
L 514.083724 285.752666 
L 514.379757 303.042043 
L 514.675789 298.682437 
L 514.971822 314.23294 
L 515.267854 288.274033 
L 515.563886 285.715404 
L 515.859919 297.378281 
L 516.155951 285.417311 
L 516.451984 312.581009 
L 516.748016 297.030506 
L 517.636114 224.196521 
L 518.228178 224.196521 
L 518.820243 234.766392 
L 519.116276 234.766392 
L 519.412308 219.824495 
L 519.708341 231.785465 
L 520.004373 237.126293 
L 520.300405 209.055896 
L 520.89247 258.129408 
L 521.188503 284.175258 
L 521.484535 280.46152 
L 521.780568 308.531917 
L 522.0766 291.24254 
L 522.668665 270.487835 
L 522.964697 238.840326 
L 523.26073 261.495371 
L 523.556762 235.536465 
L 523.852795 261.582315 
L 524.148827 256.949458 
L 524.44486 227.040823 
L 525.036924 195.852873 
L 525.332957 201.454532 
L 525.628989 231.363167 
L 525.925022 236.703995 
L 526.221054 232.990256 
L 526.517087 255.719825 
L 526.813119 245.025749 
L 527.109152 228.61823 
L 527.405184 235.101746 
L 527.701216 225.152902 
L 527.997249 247.807948 
L 528.293281 247.807948 
L 528.589314 252.55259 
L 528.885346 248.851272 
L 529.181379 222.892366 
L 529.477411 226.593684 
L 529.773443 224.035054 
L 530.069476 194.126419 
L 530.365508 198.759277 
L 530.661541 198.759277 
L 530.957573 201.317906 
L 531.253606 193.604757 
L 531.549638 221.041707 
L 531.845671 202.572379 
L 532.141703 207.913207 
L 532.437735 192.97131 
L 532.733768 207.913207 
L 533.0298 235.983604 
L 533.621865 225.935395 
L 534.21393 274.748076 
L 534.509962 270.388471 
L 534.805995 284.287043 
L 535.102027 219.277992 
L 535.39806 236.567369 
L 535.694092 263.731067 
L 535.990125 236.567369 
L 536.286157 229.760919 
L 536.878222 284.995013 
L 537.174254 261.197279 
L 537.470287 251.248435 
L 537.766319 246.888829 
L 538.062352 235.225952 
L 538.358384 230.593094 
L 538.654417 230.593094 
L 538.950449 234.9527 
L 539.542514 270.574779 
L 539.838546 265.482361 
L 540.134579 269.183679 
L 540.430611 296.620629 
L 540.726644 279.331252 
L 541.318709 309.463457 
L 541.614741 300.098377 
L 542.206806 251.397481 
L 542.502838 243.684332 
L 542.798871 260.973709 
L 543.094903 255.148481 
L 543.390936 286.063179 
L 544.279033 228.407081 
L 544.575065 220.693932 
L 544.871098 219.71271 
L 545.16713 233.611283 
L 545.759195 207.565432 
L 546.055228 211.279171 
L 546.35126 206.919565 
L 546.647292 214.024108 
L 546.943325 210.32279 
L 547.239357 200.373946 
L 547.53539 197.094926 
L 547.831422 223.140776 
L 548.127455 196.237909 
L 548.423487 193.145198 
L 548.719519 197.504803 
L 549.311584 179.383251 
L 549.607617 179.383251 
L 549.903649 181.904618 
L 550.495714 164.34199 
L 550.791747 164.34199 
L 551.383811 211.465479 
L 551.679844 206.34822 
L 551.975876 196.399376 
L 552.271909 206.34822 
L 552.567941 206.34822 
L 552.863974 187.158502 
L 553.160006 199.119472 
L 553.456039 194.548717 
L 553.752071 194.548717 
L 554.048103 189.91586 
L 554.344136 205.466363 
L 554.640168 193.505393 
L 554.936201 193.505393 
L 555.232233 223.414028 
L 555.528266 222.370703 
L 556.12033 232.120819 
L 556.416363 232.120819 
L 556.712395 266.364219 
L 557.008428 207.018929 
L 557.30446 222.569432 
L 557.600493 227.68669 
L 557.896525 255.757087 
L 558.48859 225.264687 
L 558.784622 252.701637 
L 559.080655 241.038759 
L 559.376687 255.980656 
L 559.67272 227.91026 
L 559.968752 227.91026 
L 560.264785 237.275339 
L 560.560817 231.934511 
L 560.856849 236.567369 
L 561.152882 228.667912 
L 561.448914 248.55318 
L 562.040979 238.803064 
L 562.337012 212.844157 
L 562.633044 265.569305 
L 562.929077 277.232182 
L 563.225109 247.410491 
L 563.521141 231.859988 
L 563.817174 249.149365 
L 564.113206 234.207468 
L 564.705271 244.255677 
L 565.001304 268.053411 
L 565.297336 268.053411 
L 565.593368 263.308769 
L 565.889401 252.502908 
L 566.185433 234.120524 
L 566.481466 247.087557 
L 566.777498 248.118461 
L 567.073531 258.924322 
L 567.369563 264.339673 
L 567.665596 259.706815 
L 567.961628 257.148186 
L 568.25766 219.600925 
L 568.553693 217.402492 
L 568.849725 217.402492 
L 569.145758 207.875946 
L 569.44179 192.325443 
L 569.737823 192.325443 
L 570.033855 211.949879 
L 570.329887 241.858514 
L 570.62592 237.225657 
L 571.217985 258.551706 
L 571.514017 244.653133 
L 571.81005 244.653133 
L 572.106082 240.293528 
L 572.698147 269.245782 
L 572.994179 242.082084 
L 573.290212 246.44169 
L 573.586244 242.727951 
L 573.882277 231.065074 
L 574.178309 252.974888 
L 574.474342 253.384766 
L 574.770374 248.043938 
L 575.066406 257.905838 
L 575.362439 227.997203 
L 575.658471 224.556717 
L 575.954504 196.48632 
L 576.250536 192.486909 
L 576.842601 179.35841 
L 577.138634 199.020108 
L 577.434666 261.619577 
L 577.730698 291.441268 
L 578.026731 261.532633 
L 578.322763 292.819947 
L 578.618796 302.185026 
L 578.914828 307.525854 
L 579.210861 279.455457 
L 579.506893 284.572715 
L 579.802925 258.613809 
L 580.39499 305.153533 
L 580.691023 324.777969 
L 580.987055 320.145112 
L 581.283088 325.237529 
L 581.57912 320.492887 
L 581.875153 296.695152 
L 582.171185 296.695152 
L 582.467217 281.753255 
L 582.76325 254.589557 
L 583.059282 284.498192 
L 583.355315 294.024738 
L 583.651347 284.92049 
L 583.94738 306.830304 
L 584.243412 180.712247 
L 584.539444 200.336684 
L 584.835477 200.423628 
L 585.131509 190.474784 
L 585.427542 190.474784 
L 585.723574 164.515877 
L 586.019607 169.633135 
L 586.315639 164.888493 
L 586.611672 194.797128 
L 586.907704 193.356347 
L 587.203736 198.100989 
L 587.499769 213.042886 
L 587.795801 213.042886 
L 588.091834 263.147302 
L 588.387866 266.84862 
L 588.683899 278.511497 
L 588.979931 308.420132 
L 589.275963 294.521559 
L 589.571996 271.866514 
L 589.868028 272.897418 
L 590.164061 291.366745 
L 590.460093 291.366745 
L 590.756126 283.653596 
L 591.052158 281.094967 
L 591.644223 228.61823 
L 591.940255 258.439921 
L 592.236288 253.099094 
L 592.53232 266.997666 
L 592.828353 286.622103 
L 593.124385 276.673259 
L 593.420418 280.386997 
L 593.71645 297.676374 
L 594.012482 292.931732 
L 594.308515 271.021918 
L 594.604547 267.3206 
L 594.90058 267.3206 
L 595.196612 272.661428 
L 595.492645 282.610272 
L 595.788677 277.194921 
L 596.08471 287.218288 
L 596.676774 276.400007 
L 596.972807 276.400007 
L 597.268839 291.341904 
L 597.564872 291.341904 
L 597.860904 283.628755 
L 598.452969 294.869334 
L 598.749001 306.830304 
L 599.341066 251.049706 
L 599.637099 245.957289 
L 599.933131 250.590147 
L 600.229164 232.207763 
L 601.117261 232.207763 
L 601.413293 241.821253 
L 601.709326 214.384303 
L 602.005358 211.788412 
L 602.301391 207.428806 
L 602.597423 181.23391 
L 602.893456 187.369651 
L 603.189488 187.369651 
L 603.48552 191.542949 
L 603.781553 214.197995 
L 604.077585 208.372767 
L 604.373618 210.931396 
L 604.66965 216.756624 
L 604.965683 204.795654 
L 605.261715 186.326327 
L 605.557748 200.224899 
L 606.149812 171.38443 
L 606.445845 185.022171 
L 606.741877 189.766814 
L 607.333942 146.344642 
L 607.629975 146.344642 
L 607.926007 150.04596 
L 608.222039 150.04596 
L 608.518072 145.413103 
L 608.814104 154.778182 
L 609.110137 150.03354 
L 609.702202 150.03354 
L 609.998234 177.197238 
L 610.294267 158.814854 
L 610.590299 158.814854 
L 611.182364 167.683112 
L 612.070461 167.683112 
L 612.366494 167.012403 
L 612.662526 167.012403 
L 612.958558 170.105115 
L 613.254591 162.391966 
L 613.846656 162.391966 
L 614.142688 166.751572 
L 614.438721 178.88643 
L 615.030786 178.88643 
L 615.326818 186.599578 
L 616.510948 186.599578 
L 616.80698 190.872241 
L 617.103013 190.872241 
L 617.399045 192.313022 
L 617.695077 192.313022 
L 617.99111 196.94588 
L 618.287142 189.232731 
L 618.583175 219.141366 
L 619.17524 219.141366 
L 619.471272 214.78176 
L 619.767305 233.164144 
L 620.063337 203.255509 
L 620.359369 215.216478 
L 620.655402 188.313612 
L 620.951434 197.678691 
L 621.839532 197.678691 
L 622.135564 175.023645 
L 622.431596 175.023645 
L 622.727629 159.473142 
L 623.319694 159.473142 
L 623.615726 163.832748 
L 624.207791 176.961248 
L 624.503824 171.136019 
L 624.799856 161.187175 
L 625.391921 161.187175 
L 625.687953 178.476552 
L 626.872083 178.476552 
L 627.168116 164.57798 
L 627.464148 164.57798 
L 627.76018 176.427165 
L 628.056213 162.839105 
L 629.536375 162.839105 
L 629.832407 175.893082 
L 631.904635 175.893082 
L 632.200667 181.71831 
L 632.496699 166.167807 
L 633.088764 158.678228 
L 634.272894 158.678228 
L 634.568926 154.045371 
L 634.864959 154.045371 
L 635.160991 149.685765 
L 635.457024 154.045371 
L 636.345121 154.045371 
L 636.641154 167.335337 
L 636.937186 167.335337 
L 637.233218 162.975731 
L 637.825283 162.975731 
L 638.121316 162.2305 
L 638.417348 166.863357 
L 638.713381 162.2305 
L 639.009413 162.2305 
L 639.305445 156.989036 
L 639.601478 167.198711 
L 640.193543 167.198711 
L 640.489575 182.140608 
L 641.673705 182.140608 
L 641.969737 164.602821 
L 642.26577 162.752162 
L 642.561802 157.634904 
L 643.745932 157.634904 
L 644.041964 161.348642 
L 644.337997 161.348642 
L 644.634029 157.634904 
L 645.226094 157.634904 
L 645.522127 161.348642 
L 645.818159 161.348642 
L 646.114192 133.278245 
L 649.666581 133.278245 
L 649.962613 138.619073 
L 650.258646 133.986215 
L 650.554678 133.986215 
L 650.850711 124.621136 
L 651.442775 124.621136 
L 651.738808 142.53154 
L 652.03484 147.276182 
L 652.330873 132.334285 
L 655.58723 132.334285 
L 655.883262 142.283129 
L 658.251521 142.283129 
L 658.547554 147.69848 
L 659.139619 147.69848 
L 659.435651 142.283129 
L 659.731684 142.283129 
L 660.027716 137.538487 
L 666.244397 137.538487 
L 666.54043 142.953838 
L 666.836462 142.953838 
L 667.132495 137.61301 
L 667.428527 127.664166 
L 667.724559 127.316391 
L 670.980916 127.316391 
L 671.276949 123.615073 
L 672.461078 123.615073 
L 672.757111 121.938302 
L 675.421403 121.938302 
L 675.717435 115.131852 
L 677.789662 115.131852 
L 678.085695 107.555329 
L 710.353231 107.555329 
L 710.649263 104.959438 
L 715.08975 104.959438 
L 715.385782 103.568339 
L 733.443761 103.568339 
L 733.739793 100.214796 
L 737.884247 100.214796 
L 738.18028 100.56257 
L 754.462064 100.56257 
L 754.758096 98.21509 
L 792.058183 98.21509 
L 792.354216 97.842475 
L 807.747903 97.842475 
L 808.043935 92.476806 
L 808.932032 92.476806 
L 809.228065 88.887273 
L 871.690909 88.887273 
L 871.690909 88.887273 
" style="fill:none;stroke:#8dd3c7;stroke-linecap:square;stroke-width:1.5;"/>
   </g>
   <g id="line2d_15">
    <path clip-path="url(#pcf4ef4b1cc)" d="M 161.509091 158.71549 
L 376.428641 158.71549 
L 376.724673 155.026592 
L 389.158036 155.026592 
L 389.454068 131.340643 
L 389.7501 121.975563 
L 675.421403 121.938302 
L 675.717435 115.131852 
L 677.789662 115.131852 
L 678.085695 107.555329 
L 710.353231 107.555329 
L 710.649263 104.959438 
L 715.08975 104.959438 
L 715.385782 103.568339 
L 733.443761 103.568339 
L 733.739793 100.214796 
L 754.462064 100.214796 
L 754.758096 98.21509 
L 792.058183 98.21509 
L 792.354216 97.842475 
L 807.747903 97.842475 
L 808.043935 92.476806 
L 808.932032 92.476806 
L 809.228065 88.887273 
L 871.690909 88.887273 
L 871.690909 88.887273 
" style="fill:none;stroke:#feffb3;stroke-linecap:square;stroke-width:1.5;"/>
   </g>
   <g id="line2d_16">
    <path clip-path="url(#pcf4ef4b1cc)" d="M 161.509091 158.71549 
L 163.581318 158.71549 
L 163.87735 181.427598 
L 165.949577 181.427598 
L 166.24561 202.555029 
L 168.317837 202.555029 
L 168.613869 222.208349 
L 170.686096 222.208349 
L 170.982129 240.49041 
L 173.054356 240.49041 
L 173.350388 257.496889 
L 175.422615 257.496889 
L 175.718648 273.316785 
L 177.790875 273.316785 
L 178.086907 288.03289 
L 180.159134 288.03289 
L 180.455167 301.722217 
L 182.527394 301.722217 
L 182.823426 314.456408 
L 184.895653 314.456408 
L 185.191686 326.302104 
L 187.263913 326.302104 
L 187.559945 337.321297 
L 189.632172 337.321297 
L 189.928205 347.571656 
L 192.000432 347.571656 
L 192.296464 357.106822 
L 194.368692 357.106822 
L 194.664724 365.976698 
L 196.736951 365.976698 
L 197.032983 374.227701 
L 199.105211 374.227701 
L 199.401243 381.903012 
L 201.47347 381.903012 
L 201.769502 389.042799 
L 203.84173 389.042799 
L 204.137762 395.684425 
L 206.209989 395.684425 
L 206.506021 401.86265 
L 208.578249 401.86265 
L 208.874281 407.609806 
L 210.946508 407.609806 
L 211.24254 412.955968 
L 213.314768 412.955968 
L 213.6108 417.929116 
L 215.683027 417.929116 
L 215.979059 422.555276 
L 218.051287 422.555276 
L 218.347319 426.858658 
L 220.419546 426.858658 
L 220.715578 430.861783 
L 222.787806 430.861783 
L 223.083838 434.5856 
L 225.156065 434.5856 
L 225.452097 438.049598 
L 227.524325 438.049598 
L 227.820357 441.271904 
L 229.892584 441.271904 
L 230.188616 444.269382 
L 232.260844 444.269382 
L 232.556876 447.05772 
L 234.629103 447.05772 
L 234.925135 449.651508 
L 236.997363 449.651508 
L 237.293395 452.064322 
L 239.365622 452.064322 
L 239.661654 454.308787 
L 241.733882 454.308787 
L 242.029914 456.396652 
L 244.102141 456.396652 
L 244.398173 458.33884 
L 246.470401 458.33884 
L 246.766433 460.145518 
L 248.83866 460.145518 
L 249.134692 461.82614 
L 251.20692 461.82614 
L 251.502952 463.389501 
L 253.575179 463.389501 
L 253.871211 464.843782 
L 255.943439 464.843782 
L 256.239471 466.196595 
L 258.311698 466.196595 
L 258.60773 467.455018 
L 260.679958 467.455018 
L 260.97599 468.625639 
L 263.048217 468.625639 
L 263.344249 469.714582 
L 265.416477 469.714582 
L 265.712509 470.727548 
L 267.784736 470.727548 
L 268.080769 471.669836 
L 270.152996 471.669836 
L 270.449028 472.546379 
L 272.521255 472.546379 
L 272.817288 473.361763 
L 274.889515 473.361763 
L 275.185547 474.120256 
L 277.257774 474.120256 
L 277.553807 474.825827 
L 279.626034 474.825827 
L 279.922066 475.482169 
L 281.994293 475.482169 
L 282.290326 476.092716 
L 284.362553 476.092716 
L 284.658585 476.660664 
L 286.730812 476.660664 
L 287.026845 477.188985 
L 289.099072 477.188985 
L 289.395104 477.680443 
L 291.467331 477.680443 
L 291.763364 478.137612 
L 293.835591 478.137612 
L 294.131623 478.562882 
L 296.20385 478.562882 
L 296.499883 478.958481 
L 298.57211 478.958481 
L 298.868142 479.326477 
L 300.940369 479.326477 
L 301.236402 479.668798 
L 303.308629 479.668798 
L 303.604661 479.987234 
L 305.676888 479.987234 
L 305.972921 480.283452 
L 308.045148 480.283452 
L 308.34118 480.559003 
L 310.413407 480.559003 
L 310.70944 480.815327 
L 312.781667 480.815327 
L 313.077699 481.053767 
L 315.149926 481.053767 
L 315.445959 481.275571 
L 317.518186 481.275571 
L 317.814218 481.481899 
L 319.886445 481.481899 
L 320.182478 481.67383 
L 322.254705 481.67383 
L 322.550737 481.852371 
L 324.622964 481.852371 
L 324.918997 482.018454 
L 326.991224 482.018454 
L 327.287256 482.172949 
L 329.359483 482.172949 
L 329.655516 482.316665 
L 331.727743 482.316665 
L 332.023775 482.450353 
L 334.096002 482.450353 
L 334.392035 482.574713 
L 336.464262 482.574713 
L 337.056326 482.690397 
L 341.200781 482.798009 
L 341.792846 482.898113 
L 345.9373 482.991232 
L 346.529365 483.077854 
L 350.673819 483.158432 
L 351.265884 483.233388 
L 355.410338 483.303115 
L 356.002403 483.367976 
L 360.146857 483.428312 
L 361.034954 483.484438 
L 367.251635 483.585215 
L 368.139732 483.630393 
L 374.356414 483.711514 
L 375.540543 483.74788 
L 383.829452 483.84245 
L 385.309614 483.869681 
L 398.039009 483.979851 
L 400.111236 483.997495 
L 419.353344 484.100838 
L 423.497798 484.1186 
L 542.502838 484.229659 
L 700.288128 484.232703 
L 871.690909 484.232727 
L 871.690909 484.232727 
" style="fill:none;stroke:#bfbbd9;stroke-linecap:square;stroke-width:1.5;"/>
   </g>
   <g id="patch_3">
    <path d="M 126 504 
L 126 69.12 
" style="fill:none;stroke:#ffffff;stroke-linecap:square;stroke-linejoin:miter;stroke-width:0.8;"/>
   </g>
   <g id="patch_4">
    <path d="M 907.2 504 
L 907.2 69.12 
" style="fill:none;stroke:#ffffff;stroke-linecap:square;stroke-linejoin:miter;stroke-width:0.8;"/>
   </g>
   <g id="patch_5">
    <path d="M 126 504 
L 907.2 504 
" style="fill:none;stroke:#ffffff;stroke-linecap:square;stroke-linejoin:miter;stroke-width:0.8;"/>
   </g>
   <g id="patch_6">
    <path d="M 126 69.12 
L 907.2 69.12 
" style="fill:none;stroke:#ffffff;stroke-linecap:square;stroke-linejoin:miter;stroke-width:0.8;"/>
   </g>
   <g id="text_15">
    <!-- instance 8 with error 0.024935669648327385 -->
    <g style="fill:#ffffff;" transform="translate(378.046875 63.12)scale(0.12 -0.12)">
     <defs>
      <path d="M 2834 3397 
L 2834 2853 
Q 2591 2978 2328 3040 
Q 2066 3103 1784 3103 
Q 1356 3103 1142 2972 
Q 928 2841 928 2578 
Q 928 2378 1081 2264 
Q 1234 2150 1697 2047 
L 1894 2003 
Q 2506 1872 2764 1633 
Q 3022 1394 3022 966 
Q 3022 478 2636 193 
Q 2250 -91 1575 -91 
Q 1294 -91 989 -36 
Q 684 19 347 128 
L 347 722 
Q 666 556 975 473 
Q 1284 391 1588 391 
Q 1994 391 2212 530 
Q 2431 669 2431 922 
Q 2431 1156 2273 1281 
Q 2116 1406 1581 1522 
L 1381 1569 
Q 847 1681 609 1914 
Q 372 2147 372 2553 
Q 372 3047 722 3315 
Q 1072 3584 1716 3584 
Q 2034 3584 2315 3537 
Q 2597 3491 2834 3397 
z
" id="DejaVuSans-73" transform="scale(0.015625)"/>
      <path d="M 3122 3366 
L 3122 2828 
Q 2878 2963 2633 3030 
Q 2388 3097 2138 3097 
Q 1578 3097 1268 2742 
Q 959 2388 959 1747 
Q 959 1106 1268 751 
Q 1578 397 2138 397 
Q 2388 397 2633 464 
Q 2878 531 3122 666 
L 3122 134 
Q 2881 22 2623 -34 
Q 2366 -91 2075 -91 
Q 1284 -91 818 406 
Q 353 903 353 1747 
Q 353 2603 823 3093 
Q 1294 3584 2113 3584 
Q 2378 3584 2631 3529 
Q 2884 3475 3122 3366 
z
" id="DejaVuSans-63" transform="scale(0.015625)"/>
      <path id="DejaVuSans-20" transform="scale(0.015625)"/>
      <path d="M 2034 2216 
Q 1584 2216 1326 1975 
Q 1069 1734 1069 1313 
Q 1069 891 1326 650 
Q 1584 409 2034 409 
Q 2484 409 2743 651 
Q 3003 894 3003 1313 
Q 3003 1734 2745 1975 
Q 2488 2216 2034 2216 
z
M 1403 2484 
Q 997 2584 770 2862 
Q 544 3141 544 3541 
Q 544 4100 942 4425 
Q 1341 4750 2034 4750 
Q 2731 4750 3128 4425 
Q 3525 4100 3525 3541 
Q 3525 3141 3298 2862 
Q 3072 2584 2669 2484 
Q 3125 2378 3379 2068 
Q 3634 1759 3634 1313 
Q 3634 634 3220 271 
Q 2806 -91 2034 -91 
Q 1263 -91 848 271 
Q 434 634 434 1313 
Q 434 1759 690 2068 
Q 947 2378 1403 2484 
z
M 1172 3481 
Q 1172 3119 1398 2916 
Q 1625 2713 2034 2713 
Q 2441 2713 2670 2916 
Q 2900 3119 2900 3481 
Q 2900 3844 2670 4047 
Q 2441 4250 2034 4250 
Q 1625 4250 1398 4047 
Q 1172 3844 1172 3481 
z
" id="DejaVuSans-38" transform="scale(0.015625)"/>
      <path d="M 269 3500 
L 844 3500 
L 1563 769 
L 2278 3500 
L 2956 3500 
L 3675 769 
L 4391 3500 
L 4966 3500 
L 4050 0 
L 3372 0 
L 2619 2869 
L 1863 0 
L 1184 0 
L 269 3500 
z
" id="DejaVuSans-77" transform="scale(0.015625)"/>
      <path d="M 3513 2113 
L 3513 0 
L 2938 0 
L 2938 2094 
Q 2938 2591 2744 2837 
Q 2550 3084 2163 3084 
Q 1697 3084 1428 2787 
Q 1159 2491 1159 1978 
L 1159 0 
L 581 0 
L 581 4863 
L 1159 4863 
L 1159 2956 
Q 1366 3272 1645 3428 
Q 1925 3584 2291 3584 
Q 2894 3584 3203 3211 
Q 3513 2838 3513 2113 
z
" id="DejaVuSans-68" transform="scale(0.015625)"/>
      <path d="M 684 794 
L 1344 794 
L 1344 0 
L 684 0 
L 684 794 
z
" id="DejaVuSans-2e" transform="scale(0.015625)"/>
      <path d="M 2419 4116 
L 825 1625 
L 2419 1625 
L 2419 4116 
z
M 2253 4666 
L 3047 4666 
L 3047 1625 
L 3713 1625 
L 3713 1100 
L 3047 1100 
L 3047 0 
L 2419 0 
L 2419 1100 
L 313 1100 
L 313 1709 
L 2253 4666 
z
" id="DejaVuSans-34" transform="scale(0.015625)"/>
      <path d="M 703 97 
L 703 672 
Q 941 559 1184 500 
Q 1428 441 1663 441 
Q 2288 441 2617 861 
Q 2947 1281 2994 2138 
Q 2813 1869 2534 1725 
Q 2256 1581 1919 1581 
Q 1219 1581 811 2004 
Q 403 2428 403 3163 
Q 403 3881 828 4315 
Q 1253 4750 1959 4750 
Q 2769 4750 3195 4129 
Q 3622 3509 3622 2328 
Q 3622 1225 3098 567 
Q 2575 -91 1691 -91 
Q 1453 -91 1209 -44 
Q 966 3 703 97 
z
M 1959 2075 
Q 2384 2075 2632 2365 
Q 2881 2656 2881 3163 
Q 2881 3666 2632 3958 
Q 2384 4250 1959 4250 
Q 1534 4250 1286 3958 
Q 1038 3666 1038 3163 
Q 1038 2656 1286 2365 
Q 1534 2075 1959 2075 
z
" id="DejaVuSans-39" transform="scale(0.015625)"/>
      <path d="M 2113 2584 
Q 1688 2584 1439 2293 
Q 1191 2003 1191 1497 
Q 1191 994 1439 701 
Q 1688 409 2113 409 
Q 2538 409 2786 701 
Q 3034 994 3034 1497 
Q 3034 2003 2786 2293 
Q 2538 2584 2113 2584 
z
M 3366 4563 
L 3366 3988 
Q 3128 4100 2886 4159 
Q 2644 4219 2406 4219 
Q 1781 4219 1451 3797 
Q 1122 3375 1075 2522 
Q 1259 2794 1537 2939 
Q 1816 3084 2150 3084 
Q 2853 3084 3261 2657 
Q 3669 2231 3669 1497 
Q 3669 778 3244 343 
Q 2819 -91 2113 -91 
Q 1303 -91 875 529 
Q 447 1150 447 2328 
Q 447 3434 972 4092 
Q 1497 4750 2381 4750 
Q 2619 4750 2861 4703 
Q 3103 4656 3366 4563 
z
" id="DejaVuSans-36" transform="scale(0.015625)"/>
      <path d="M 525 4666 
L 3525 4666 
L 3525 4397 
L 1831 0 
L 1172 0 
L 2766 4134 
L 525 4134 
L 525 4666 
z
" id="DejaVuSans-37" transform="scale(0.015625)"/>
     </defs>
     <use xlink:href="#DejaVuSans-69"/>
     <use x="27.783203" xlink:href="#DejaVuSans-6e"/>
     <use x="91.162109" xlink:href="#DejaVuSans-73"/>
     <use x="143.261719" xlink:href="#DejaVuSans-74"/>
     <use x="182.470703" xlink:href="#DejaVuSans-61"/>
     <use x="243.75" xlink:href="#DejaVuSans-6e"/>
     <use x="307.128906" xlink:href="#DejaVuSans-63"/>
     <use x="362.109375" xlink:href="#DejaVuSans-65"/>
     <use x="423.632812" xlink:href="#DejaVuSans-20"/>
     <use x="455.419922" xlink:href="#DejaVuSans-38"/>
     <use x="519.042969" xlink:href="#DejaVuSans-20"/>
     <use x="550.830078" xlink:href="#DejaVuSans-77"/>
     <use x="632.617188" xlink:href="#DejaVuSans-69"/>
     <use x="660.400391" xlink:href="#DejaVuSans-74"/>
     <use x="699.609375" xlink:href="#DejaVuSans-68"/>
     <use x="762.988281" xlink:href="#DejaVuSans-20"/>
     <use x="794.775391" xlink:href="#DejaVuSans-65"/>
     <use x="856.298828" xlink:href="#DejaVuSans-72"/>
     <use x="895.662109" xlink:href="#DejaVuSans-72"/>
     <use x="934.525391" xlink:href="#DejaVuSans-6f"/>
     <use x="995.707031" xlink:href="#DejaVuSans-72"/>
     <use x="1036.820312" xlink:href="#DejaVuSans-20"/>
     <use x="1068.607422" xlink:href="#DejaVuSans-30"/>
     <use x="1132.230469" xlink:href="#DejaVuSans-2e"/>
     <use x="1164.017578" xlink:href="#DejaVuSans-30"/>
     <use x="1227.640625" xlink:href="#DejaVuSans-32"/>
     <use x="1291.263672" xlink:href="#DejaVuSans-34"/>
     <use x="1354.886719" xlink:href="#DejaVuSans-39"/>
     <use x="1418.509766" xlink:href="#DejaVuSans-33"/>
     <use x="1482.132812" xlink:href="#DejaVuSans-35"/>
     <use x="1545.755859" xlink:href="#DejaVuSans-36"/>
     <use x="1609.378906" xlink:href="#DejaVuSans-36"/>
     <use x="1673.001953" xlink:href="#DejaVuSans-39"/>
     <use x="1736.625" xlink:href="#DejaVuSans-36"/>
     <use x="1800.248047" xlink:href="#DejaVuSans-34"/>
     <use x="1863.871094" xlink:href="#DejaVuSans-38"/>
     <use x="1927.494141" xlink:href="#DejaVuSans-33"/>
     <use x="1991.117188" xlink:href="#DejaVuSans-32"/>
     <use x="2054.740234" xlink:href="#DejaVuSans-37"/>
     <use x="2118.363281" xlink:href="#DejaVuSans-33"/>
     <use x="2181.986328" xlink:href="#DejaVuSans-38"/>
     <use x="2245.609375" xlink:href="#DejaVuSans-35"/>
    </g>
   </g>
   <g id="legend_1">
    <g id="patch_7">
     <path d="M 805.348438 499 
L 900.2 499 
Q 902.2 499 902.2 497 
L 902.2 453.965625 
Q 902.2 451.965625 900.2 451.965625 
L 805.348438 451.965625 
Q 803.348438 451.965625 803.348438 453.965625 
L 803.348438 497 
Q 803.348438 499 805.348438 499 
z
" style="opacity:0.8;stroke:#cccccc;stroke-linejoin:miter;"/>
    </g>
    <g id="line2d_17">
     <path d="M 807.348438 460.064062 
L 827.348438 460.064062 
" style="fill:none;stroke:#8dd3c7;stroke-linecap:square;stroke-width:1.5;"/>
    </g>
    <g id="line2d_18"/>
    <g id="text_16">
     <!-- cost -->
     <g style="fill:#ffffff;" transform="translate(835.348438 463.564062)scale(0.1 -0.1)">
      <use xlink:href="#DejaVuSans-63"/>
      <use x="54.980469" xlink:href="#DejaVuSans-6f"/>
      <use x="116.162109" xlink:href="#DejaVuSans-73"/>
      <use x="168.261719" xlink:href="#DejaVuSans-74"/>
     </g>
    </g>
    <g id="line2d_19">
     <path d="M 807.348438 474.742188 
L 827.348438 474.742188 
" style="fill:none;stroke:#feffb3;stroke-linecap:square;stroke-width:1.5;"/>
    </g>
    <g id="line2d_20"/>
    <g id="text_17">
     <!-- best cost -->
     <g style="fill:#ffffff;" transform="translate(835.348438 478.242188)scale(0.1 -0.1)">
      <defs>
       <path d="M 3116 1747 
Q 3116 2381 2855 2742 
Q 2594 3103 2138 3103 
Q 1681 3103 1420 2742 
Q 1159 2381 1159 1747 
Q 1159 1113 1420 752 
Q 1681 391 2138 391 
Q 2594 391 2855 752 
Q 3116 1113 3116 1747 
z
M 1159 2969 
Q 1341 3281 1617 3432 
Q 1894 3584 2278 3584 
Q 2916 3584 3314 3078 
Q 3713 2572 3713 1747 
Q 3713 922 3314 415 
Q 2916 -91 2278 -91 
Q 1894 -91 1617 61 
Q 1341 213 1159 525 
L 1159 0 
L 581 0 
L 581 4863 
L 1159 4863 
L 1159 2969 
z
" id="DejaVuSans-62" transform="scale(0.015625)"/>
      </defs>
      <use xlink:href="#DejaVuSans-62"/>
      <use x="63.476562" xlink:href="#DejaVuSans-65"/>
      <use x="125" xlink:href="#DejaVuSans-73"/>
      <use x="177.099609" xlink:href="#DejaVuSans-74"/>
      <use x="216.308594" xlink:href="#DejaVuSans-20"/>
      <use x="248.095703" xlink:href="#DejaVuSans-63"/>
      <use x="303.076172" xlink:href="#DejaVuSans-6f"/>
      <use x="364.257812" xlink:href="#DejaVuSans-73"/>
      <use x="416.357422" xlink:href="#DejaVuSans-74"/>
     </g>
    </g>
    <g id="line2d_21">
     <path d="M 807.348438 489.420313 
L 827.348438 489.420313 
" style="fill:none;stroke:#bfbbd9;stroke-linecap:square;stroke-width:1.5;"/>
    </g>
    <g id="line2d_22"/>
    <g id="text_18">
     <!-- temperature -->
     <g style="fill:#ffffff;" transform="translate(835.348438 492.920313)scale(0.1 -0.1)">
      <defs>
       <path d="M 3328 2828 
Q 3544 3216 3844 3400 
Q 4144 3584 4550 3584 
Q 5097 3584 5394 3201 
Q 5691 2819 5691 2113 
L 5691 0 
L 5113 0 
L 5113 2094 
Q 5113 2597 4934 2840 
Q 4756 3084 4391 3084 
Q 3944 3084 3684 2787 
Q 3425 2491 3425 1978 
L 3425 0 
L 2847 0 
L 2847 2094 
Q 2847 2600 2669 2842 
Q 2491 3084 2119 3084 
Q 1678 3084 1418 2786 
Q 1159 2488 1159 1978 
L 1159 0 
L 581 0 
L 581 3500 
L 1159 3500 
L 1159 2956 
Q 1356 3278 1631 3431 
Q 1906 3584 2284 3584 
Q 2666 3584 2933 3390 
Q 3200 3197 3328 2828 
z
" id="DejaVuSans-6d" transform="scale(0.015625)"/>
       <path d="M 1159 525 
L 1159 -1331 
L 581 -1331 
L 581 3500 
L 1159 3500 
L 1159 2969 
Q 1341 3281 1617 3432 
Q 1894 3584 2278 3584 
Q 2916 3584 3314 3078 
Q 3713 2572 3713 1747 
Q 3713 922 3314 415 
Q 2916 -91 2278 -91 
Q 1894 -91 1617 61 
Q 1341 213 1159 525 
z
M 3116 1747 
Q 3116 2381 2855 2742 
Q 2594 3103 2138 3103 
Q 1681 3103 1420 2742 
Q 1159 2381 1159 1747 
Q 1159 1113 1420 752 
Q 1681 391 2138 391 
Q 2594 391 2855 752 
Q 3116 1113 3116 1747 
z
" id="DejaVuSans-70" transform="scale(0.015625)"/>
       <path d="M 544 1381 
L 544 3500 
L 1119 3500 
L 1119 1403 
Q 1119 906 1312 657 
Q 1506 409 1894 409 
Q 2359 409 2629 706 
Q 2900 1003 2900 1516 
L 2900 3500 
L 3475 3500 
L 3475 0 
L 2900 0 
L 2900 538 
Q 2691 219 2414 64 
Q 2138 -91 1772 -91 
Q 1169 -91 856 284 
Q 544 659 544 1381 
z
M 1991 3584 
L 1991 3584 
z
" id="DejaVuSans-75" transform="scale(0.015625)"/>
      </defs>
      <use xlink:href="#DejaVuSans-74"/>
      <use x="39.208984" xlink:href="#DejaVuSans-65"/>
      <use x="100.732422" xlink:href="#DejaVuSans-6d"/>
      <use x="198.144531" xlink:href="#DejaVuSans-70"/>
      <use x="261.621094" xlink:href="#DejaVuSans-65"/>
      <use x="323.144531" xlink:href="#DejaVuSans-72"/>
      <use x="364.257812" xlink:href="#DejaVuSans-61"/>
      <use x="425.537109" xlink:href="#DejaVuSans-74"/>
      <use x="464.746094" xlink:href="#DejaVuSans-75"/>
      <use x="528.125" xlink:href="#DejaVuSans-72"/>
      <use x="566.988281" xlink:href="#DejaVuSans-65"/>
     </g>
    </g>
   </g>
  </g>
 </g>
 <defs>
  <clipPath id="pcf4ef4b1cc">
   <rect height="434.88" width="781.2" x="126" y="69.12"/>
  </clipPath>
 </defs>
</svg>
