<?xml version="1.0" encoding="utf-8" standalone="no"?>
<!DOCTYPE svg PUBLIC "-//W3C//DTD SVG 1.1//EN"
  "http://www.w3.org/Graphics/SVG/1.1/DTD/svg11.dtd">
<svg height="576pt" version="1.1" viewBox="0 0 1008 576" width="1008pt" xmlns="http://www.w3.org/2000/svg" xmlns:xlink="http://www.w3.org/1999/xlink">
 <metadata>
  <rdf:RDF xmlns:cc="http://creativecommons.org/ns#" xmlns:dc="http://purl.org/dc/elements/1.1/" xmlns:rdf="http://www.w3.org/1999/02/22-rdf-syntax-ns#">
   <cc:Work>
    <dc:type rdf:resource="http://purl.org/dc/dcmitype/StillImage"/>
    <dc:date>2022-01-07T21:26:35.946695</dc:date>
    <dc:format>image/svg+xml</dc:format>
    <dc:creator>
     <cc:Agent>
      <dc:title>Matplotlib v3.4.3, https://matplotlib.org/</dc:title>
     </cc:Agent>
    </dc:creator>
   </cc:Work>
  </rdf:RDF>
 </metadata>
 <defs>
  <style type="text/css">*{stroke-linecap:butt;stroke-linejoin:round;}</style>
 </defs>
 <g id="figure_1">
  <g id="patch_1">
   <path d="M 0 576 
L 1008 576 
L 1008 0 
L 0 0 
z
"/>
  </g>
  <g id="axes_1">
   <g id="patch_2">
    <path d="M 126 504 
L 907.2 504 
L 907.2 69.12 
L 126 69.12 
z
"/>
   </g>
   <g id="matplotlib.axis_1">
    <g id="xtick_1">
     <g id="line2d_1">
      <defs>
       <path d="M 0 0 
L 0 3.5 
" id="m36ef1b6f1d" style="stroke:#ffffff;stroke-width:0.8;"/>
      </defs>
      <g>
       <use style="fill:#ffffff;stroke:#ffffff;stroke-width:0.8;" x="161.509091" xlink:href="#m36ef1b6f1d" y="504"/>
      </g>
     </g>
     <g id="text_1">
      <!-- 0 -->
      <g style="fill:#ffffff;" transform="translate(158.327841 518.598438)scale(0.1 -0.1)">
       <defs>
        <path d="M 2034 4250 
Q 1547 4250 1301 3770 
Q 1056 3291 1056 2328 
Q 1056 1369 1301 889 
Q 1547 409 2034 409 
Q 2525 409 2770 889 
Q 3016 1369 3016 2328 
Q 3016 3291 2770 3770 
Q 2525 4250 2034 4250 
z
M 2034 4750 
Q 2819 4750 3233 4129 
Q 3647 3509 3647 2328 
Q 3647 1150 3233 529 
Q 2819 -91 2034 -91 
Q 1250 -91 836 529 
Q 422 1150 422 2328 
Q 422 3509 836 4129 
Q 1250 4750 2034 4750 
z
" id="DejaVuSans-30" transform="scale(0.015625)"/>
       </defs>
       <use xlink:href="#DejaVuSans-30"/>
      </g>
     </g>
    </g>
    <g id="xtick_2">
     <g id="line2d_2">
      <g>
       <use style="fill:#ffffff;stroke:#ffffff;stroke-width:0.8;" x="273.915203" xlink:href="#m36ef1b6f1d" y="504"/>
      </g>
     </g>
     <g id="text_2">
      <!-- 500 -->
      <g style="fill:#ffffff;" transform="translate(264.371453 518.598438)scale(0.1 -0.1)">
       <defs>
        <path d="M 691 4666 
L 3169 4666 
L 3169 4134 
L 1269 4134 
L 1269 2991 
Q 1406 3038 1543 3061 
Q 1681 3084 1819 3084 
Q 2600 3084 3056 2656 
Q 3513 2228 3513 1497 
Q 3513 744 3044 326 
Q 2575 -91 1722 -91 
Q 1428 -91 1123 -41 
Q 819 9 494 109 
L 494 744 
Q 775 591 1075 516 
Q 1375 441 1709 441 
Q 2250 441 2565 725 
Q 2881 1009 2881 1497 
Q 2881 1984 2565 2268 
Q 2250 2553 1709 2553 
Q 1456 2553 1204 2497 
Q 953 2441 691 2322 
L 691 4666 
z
" id="DejaVuSans-35" transform="scale(0.015625)"/>
       </defs>
       <use xlink:href="#DejaVuSans-35"/>
       <use x="63.623047" xlink:href="#DejaVuSans-30"/>
       <use x="127.246094" xlink:href="#DejaVuSans-30"/>
      </g>
     </g>
    </g>
    <g id="xtick_3">
     <g id="line2d_3">
      <g>
       <use style="fill:#ffffff;stroke:#ffffff;stroke-width:0.8;" x="386.321316" xlink:href="#m36ef1b6f1d" y="504"/>
      </g>
     </g>
     <g id="text_3">
      <!-- 1000 -->
      <g style="fill:#ffffff;" transform="translate(373.596316 518.598438)scale(0.1 -0.1)">
       <defs>
        <path d="M 794 531 
L 1825 531 
L 1825 4091 
L 703 3866 
L 703 4441 
L 1819 4666 
L 2450 4666 
L 2450 531 
L 3481 531 
L 3481 0 
L 794 0 
L 794 531 
z
" id="DejaVuSans-31" transform="scale(0.015625)"/>
       </defs>
       <use xlink:href="#DejaVuSans-31"/>
       <use x="63.623047" xlink:href="#DejaVuSans-30"/>
       <use x="127.246094" xlink:href="#DejaVuSans-30"/>
       <use x="190.869141" xlink:href="#DejaVuSans-30"/>
      </g>
     </g>
    </g>
    <g id="xtick_4">
     <g id="line2d_4">
      <g>
       <use style="fill:#ffffff;stroke:#ffffff;stroke-width:0.8;" x="498.727428" xlink:href="#m36ef1b6f1d" y="504"/>
      </g>
     </g>
     <g id="text_4">
      <!-- 1500 -->
      <g style="fill:#ffffff;" transform="translate(486.002428 518.598438)scale(0.1 -0.1)">
       <use xlink:href="#DejaVuSans-31"/>
       <use x="63.623047" xlink:href="#DejaVuSans-35"/>
       <use x="127.246094" xlink:href="#DejaVuSans-30"/>
       <use x="190.869141" xlink:href="#DejaVuSans-30"/>
      </g>
     </g>
    </g>
    <g id="xtick_5">
     <g id="line2d_5">
      <g>
       <use style="fill:#ffffff;stroke:#ffffff;stroke-width:0.8;" x="611.133541" xlink:href="#m36ef1b6f1d" y="504"/>
      </g>
     </g>
     <g id="text_5">
      <!-- 2000 -->
      <g style="fill:#ffffff;" transform="translate(598.408541 518.598438)scale(0.1 -0.1)">
       <defs>
        <path d="M 1228 531 
L 3431 531 
L 3431 0 
L 469 0 
L 469 531 
Q 828 903 1448 1529 
Q 2069 2156 2228 2338 
Q 2531 2678 2651 2914 
Q 2772 3150 2772 3378 
Q 2772 3750 2511 3984 
Q 2250 4219 1831 4219 
Q 1534 4219 1204 4116 
Q 875 4013 500 3803 
L 500 4441 
Q 881 4594 1212 4672 
Q 1544 4750 1819 4750 
Q 2544 4750 2975 4387 
Q 3406 4025 3406 3419 
Q 3406 3131 3298 2873 
Q 3191 2616 2906 2266 
Q 2828 2175 2409 1742 
Q 1991 1309 1228 531 
z
" id="DejaVuSans-32" transform="scale(0.015625)"/>
       </defs>
       <use xlink:href="#DejaVuSans-32"/>
       <use x="63.623047" xlink:href="#DejaVuSans-30"/>
       <use x="127.246094" xlink:href="#DejaVuSans-30"/>
       <use x="190.869141" xlink:href="#DejaVuSans-30"/>
      </g>
     </g>
    </g>
    <g id="xtick_6">
     <g id="line2d_6">
      <g>
       <use style="fill:#ffffff;stroke:#ffffff;stroke-width:0.8;" x="723.539653" xlink:href="#m36ef1b6f1d" y="504"/>
      </g>
     </g>
     <g id="text_6">
      <!-- 2500 -->
      <g style="fill:#ffffff;" transform="translate(710.814653 518.598438)scale(0.1 -0.1)">
       <use xlink:href="#DejaVuSans-32"/>
       <use x="63.623047" xlink:href="#DejaVuSans-35"/>
       <use x="127.246094" xlink:href="#DejaVuSans-30"/>
       <use x="190.869141" xlink:href="#DejaVuSans-30"/>
      </g>
     </g>
    </g>
    <g id="xtick_7">
     <g id="line2d_7">
      <g>
       <use style="fill:#ffffff;stroke:#ffffff;stroke-width:0.8;" x="835.945765" xlink:href="#m36ef1b6f1d" y="504"/>
      </g>
     </g>
     <g id="text_7">
      <!-- 3000 -->
      <g style="fill:#ffffff;" transform="translate(823.220765 518.598438)scale(0.1 -0.1)">
       <defs>
        <path d="M 2597 2516 
Q 3050 2419 3304 2112 
Q 3559 1806 3559 1356 
Q 3559 666 3084 287 
Q 2609 -91 1734 -91 
Q 1441 -91 1130 -33 
Q 819 25 488 141 
L 488 750 
Q 750 597 1062 519 
Q 1375 441 1716 441 
Q 2309 441 2620 675 
Q 2931 909 2931 1356 
Q 2931 1769 2642 2001 
Q 2353 2234 1838 2234 
L 1294 2234 
L 1294 2753 
L 1863 2753 
Q 2328 2753 2575 2939 
Q 2822 3125 2822 3475 
Q 2822 3834 2567 4026 
Q 2313 4219 1838 4219 
Q 1578 4219 1281 4162 
Q 984 4106 628 3988 
L 628 4550 
Q 988 4650 1302 4700 
Q 1616 4750 1894 4750 
Q 2613 4750 3031 4423 
Q 3450 4097 3450 3541 
Q 3450 3153 3228 2886 
Q 3006 2619 2597 2516 
z
" id="DejaVuSans-33" transform="scale(0.015625)"/>
       </defs>
       <use xlink:href="#DejaVuSans-33"/>
       <use x="63.623047" xlink:href="#DejaVuSans-30"/>
       <use x="127.246094" xlink:href="#DejaVuSans-30"/>
       <use x="190.869141" xlink:href="#DejaVuSans-30"/>
      </g>
     </g>
    </g>
    <g id="text_8">
     <!-- iteration -->
     <g style="fill:#ffffff;" transform="translate(495.477344 532.276562)scale(0.1 -0.1)">
      <defs>
       <path d="M 603 3500 
L 1178 3500 
L 1178 0 
L 603 0 
L 603 3500 
z
M 603 4863 
L 1178 4863 
L 1178 4134 
L 603 4134 
L 603 4863 
z
" id="DejaVuSans-69" transform="scale(0.015625)"/>
       <path d="M 1172 4494 
L 1172 3500 
L 2356 3500 
L 2356 3053 
L 1172 3053 
L 1172 1153 
Q 1172 725 1289 603 
Q 1406 481 1766 481 
L 2356 481 
L 2356 0 
L 1766 0 
Q 1100 0 847 248 
Q 594 497 594 1153 
L 594 3053 
L 172 3053 
L 172 3500 
L 594 3500 
L 594 4494 
L 1172 4494 
z
" id="DejaVuSans-74" transform="scale(0.015625)"/>
       <path d="M 3597 1894 
L 3597 1613 
L 953 1613 
Q 991 1019 1311 708 
Q 1631 397 2203 397 
Q 2534 397 2845 478 
Q 3156 559 3463 722 
L 3463 178 
Q 3153 47 2828 -22 
Q 2503 -91 2169 -91 
Q 1331 -91 842 396 
Q 353 884 353 1716 
Q 353 2575 817 3079 
Q 1281 3584 2069 3584 
Q 2775 3584 3186 3129 
Q 3597 2675 3597 1894 
z
M 3022 2063 
Q 3016 2534 2758 2815 
Q 2500 3097 2075 3097 
Q 1594 3097 1305 2825 
Q 1016 2553 972 2059 
L 3022 2063 
z
" id="DejaVuSans-65" transform="scale(0.015625)"/>
       <path d="M 2631 2963 
Q 2534 3019 2420 3045 
Q 2306 3072 2169 3072 
Q 1681 3072 1420 2755 
Q 1159 2438 1159 1844 
L 1159 0 
L 581 0 
L 581 3500 
L 1159 3500 
L 1159 2956 
Q 1341 3275 1631 3429 
Q 1922 3584 2338 3584 
Q 2397 3584 2469 3576 
Q 2541 3569 2628 3553 
L 2631 2963 
z
" id="DejaVuSans-72" transform="scale(0.015625)"/>
       <path d="M 2194 1759 
Q 1497 1759 1228 1600 
Q 959 1441 959 1056 
Q 959 750 1161 570 
Q 1363 391 1709 391 
Q 2188 391 2477 730 
Q 2766 1069 2766 1631 
L 2766 1759 
L 2194 1759 
z
M 3341 1997 
L 3341 0 
L 2766 0 
L 2766 531 
Q 2569 213 2275 61 
Q 1981 -91 1556 -91 
Q 1019 -91 701 211 
Q 384 513 384 1019 
Q 384 1609 779 1909 
Q 1175 2209 1959 2209 
L 2766 2209 
L 2766 2266 
Q 2766 2663 2505 2880 
Q 2244 3097 1772 3097 
Q 1472 3097 1187 3025 
Q 903 2953 641 2809 
L 641 3341 
Q 956 3463 1253 3523 
Q 1550 3584 1831 3584 
Q 2591 3584 2966 3190 
Q 3341 2797 3341 1997 
z
" id="DejaVuSans-61" transform="scale(0.015625)"/>
       <path d="M 1959 3097 
Q 1497 3097 1228 2736 
Q 959 2375 959 1747 
Q 959 1119 1226 758 
Q 1494 397 1959 397 
Q 2419 397 2687 759 
Q 2956 1122 2956 1747 
Q 2956 2369 2687 2733 
Q 2419 3097 1959 3097 
z
M 1959 3584 
Q 2709 3584 3137 3096 
Q 3566 2609 3566 1747 
Q 3566 888 3137 398 
Q 2709 -91 1959 -91 
Q 1206 -91 779 398 
Q 353 888 353 1747 
Q 353 2609 779 3096 
Q 1206 3584 1959 3584 
z
" id="DejaVuSans-6f" transform="scale(0.015625)"/>
       <path d="M 3513 2113 
L 3513 0 
L 2938 0 
L 2938 2094 
Q 2938 2591 2744 2837 
Q 2550 3084 2163 3084 
Q 1697 3084 1428 2787 
Q 1159 2491 1159 1978 
L 1159 0 
L 581 0 
L 581 3500 
L 1159 3500 
L 1159 2956 
Q 1366 3272 1645 3428 
Q 1925 3584 2291 3584 
Q 2894 3584 3203 3211 
Q 3513 2838 3513 2113 
z
" id="DejaVuSans-6e" transform="scale(0.015625)"/>
      </defs>
      <use xlink:href="#DejaVuSans-69"/>
      <use x="27.783203" xlink:href="#DejaVuSans-74"/>
      <use x="66.992188" xlink:href="#DejaVuSans-65"/>
      <use x="128.515625" xlink:href="#DejaVuSans-72"/>
      <use x="169.628906" xlink:href="#DejaVuSans-61"/>
      <use x="230.908203" xlink:href="#DejaVuSans-74"/>
      <use x="270.117188" xlink:href="#DejaVuSans-69"/>
      <use x="297.900391" xlink:href="#DejaVuSans-6f"/>
      <use x="359.082031" xlink:href="#DejaVuSans-6e"/>
     </g>
    </g>
   </g>
   <g id="matplotlib.axis_2">
    <g id="ytick_1">
     <g id="line2d_8">
      <defs>
       <path d="M 0 0 
L -3.5 0 
" id="m356c6bea14" style="stroke:#ffffff;stroke-width:0.8;"/>
      </defs>
      <g>
       <use style="fill:#ffffff;stroke:#ffffff;stroke-width:0.8;" x="126" xlink:href="#m356c6bea14" y="484.232727"/>
      </g>
     </g>
     <g id="text_9">
      <!-- 0 -->
      <g style="fill:#ffffff;" transform="translate(112.6375 488.031946)scale(0.1 -0.1)">
       <use xlink:href="#DejaVuSans-30"/>
      </g>
     </g>
    </g>
    <g id="ytick_2">
     <g id="line2d_9">
      <g>
       <use style="fill:#ffffff;stroke:#ffffff;stroke-width:0.8;" x="126" xlink:href="#m356c6bea14" y="429.732389"/>
      </g>
     </g>
     <g id="text_10">
      <!-- 1000 -->
      <g style="fill:#ffffff;" transform="translate(93.55 433.531608)scale(0.1 -0.1)">
       <use xlink:href="#DejaVuSans-31"/>
       <use x="63.623047" xlink:href="#DejaVuSans-30"/>
       <use x="127.246094" xlink:href="#DejaVuSans-30"/>
       <use x="190.869141" xlink:href="#DejaVuSans-30"/>
      </g>
     </g>
    </g>
    <g id="ytick_3">
     <g id="line2d_10">
      <g>
       <use style="fill:#ffffff;stroke:#ffffff;stroke-width:0.8;" x="126" xlink:href="#m356c6bea14" y="375.232051"/>
      </g>
     </g>
     <g id="text_11">
      <!-- 2000 -->
      <g style="fill:#ffffff;" transform="translate(93.55 379.031269)scale(0.1 -0.1)">
       <use xlink:href="#DejaVuSans-32"/>
       <use x="63.623047" xlink:href="#DejaVuSans-30"/>
       <use x="127.246094" xlink:href="#DejaVuSans-30"/>
       <use x="190.869141" xlink:href="#DejaVuSans-30"/>
      </g>
     </g>
    </g>
    <g id="ytick_4">
     <g id="line2d_11">
      <g>
       <use style="fill:#ffffff;stroke:#ffffff;stroke-width:0.8;" x="126" xlink:href="#m356c6bea14" y="320.731712"/>
      </g>
     </g>
     <g id="text_12">
      <!-- 3000 -->
      <g style="fill:#ffffff;" transform="translate(93.55 324.530931)scale(0.1 -0.1)">
       <use xlink:href="#DejaVuSans-33"/>
       <use x="63.623047" xlink:href="#DejaVuSans-30"/>
       <use x="127.246094" xlink:href="#DejaVuSans-30"/>
       <use x="190.869141" xlink:href="#DejaVuSans-30"/>
      </g>
     </g>
    </g>
    <g id="ytick_5">
     <g id="line2d_12">
      <g>
       <use style="fill:#ffffff;stroke:#ffffff;stroke-width:0.8;" x="126" xlink:href="#m356c6bea14" y="266.231374"/>
      </g>
     </g>
     <g id="text_13">
      <!-- 4000 -->
      <g style="fill:#ffffff;" transform="translate(93.55 270.030593)scale(0.1 -0.1)">
       <defs>
        <path d="M 2419 4116 
L 825 1625 
L 2419 1625 
L 2419 4116 
z
M 2253 4666 
L 3047 4666 
L 3047 1625 
L 3713 1625 
L 3713 1100 
L 3047 1100 
L 3047 0 
L 2419 0 
L 2419 1100 
L 313 1100 
L 313 1709 
L 2253 4666 
z
" id="DejaVuSans-34" transform="scale(0.015625)"/>
       </defs>
       <use xlink:href="#DejaVuSans-34"/>
       <use x="63.623047" xlink:href="#DejaVuSans-30"/>
       <use x="127.246094" xlink:href="#DejaVuSans-30"/>
       <use x="190.869141" xlink:href="#DejaVuSans-30"/>
      </g>
     </g>
    </g>
    <g id="ytick_6">
     <g id="line2d_13">
      <g>
       <use style="fill:#ffffff;stroke:#ffffff;stroke-width:0.8;" x="126" xlink:href="#m356c6bea14" y="211.731035"/>
      </g>
     </g>
     <g id="text_14">
      <!-- 5000 -->
      <g style="fill:#ffffff;" transform="translate(93.55 215.530254)scale(0.1 -0.1)">
       <use xlink:href="#DejaVuSans-35"/>
       <use x="63.623047" xlink:href="#DejaVuSans-30"/>
       <use x="127.246094" xlink:href="#DejaVuSans-30"/>
       <use x="190.869141" xlink:href="#DejaVuSans-30"/>
      </g>
     </g>
    </g>
    <g id="ytick_7">
     <g id="line2d_14">
      <g>
       <use style="fill:#ffffff;stroke:#ffffff;stroke-width:0.8;" x="126" xlink:href="#m356c6bea14" y="157.230697"/>
      </g>
     </g>
     <g id="text_15">
      <!-- 6000 -->
      <g style="fill:#ffffff;" transform="translate(93.55 161.029916)scale(0.1 -0.1)">
       <defs>
        <path d="M 2113 2584 
Q 1688 2584 1439 2293 
Q 1191 2003 1191 1497 
Q 1191 994 1439 701 
Q 1688 409 2113 409 
Q 2538 409 2786 701 
Q 3034 994 3034 1497 
Q 3034 2003 2786 2293 
Q 2538 2584 2113 2584 
z
M 3366 4563 
L 3366 3988 
Q 3128 4100 2886 4159 
Q 2644 4219 2406 4219 
Q 1781 4219 1451 3797 
Q 1122 3375 1075 2522 
Q 1259 2794 1537 2939 
Q 1816 3084 2150 3084 
Q 2853 3084 3261 2657 
Q 3669 2231 3669 1497 
Q 3669 778 3244 343 
Q 2819 -91 2113 -91 
Q 1303 -91 875 529 
Q 447 1150 447 2328 
Q 447 3434 972 4092 
Q 1497 4750 2381 4750 
Q 2619 4750 2861 4703 
Q 3103 4656 3366 4563 
z
" id="DejaVuSans-36" transform="scale(0.015625)"/>
       </defs>
       <use xlink:href="#DejaVuSans-36"/>
       <use x="63.623047" xlink:href="#DejaVuSans-30"/>
       <use x="127.246094" xlink:href="#DejaVuSans-30"/>
       <use x="190.869141" xlink:href="#DejaVuSans-30"/>
      </g>
     </g>
    </g>
    <g id="ytick_8">
     <g id="line2d_15">
      <g>
       <use style="fill:#ffffff;stroke:#ffffff;stroke-width:0.8;" x="126" xlink:href="#m356c6bea14" y="102.730359"/>
      </g>
     </g>
     <g id="text_16">
      <!-- 7000 -->
      <g style="fill:#ffffff;" transform="translate(93.55 106.529577)scale(0.1 -0.1)">
       <defs>
        <path d="M 525 4666 
L 3525 4666 
L 3525 4397 
L 1831 0 
L 1172 0 
L 2766 4134 
L 525 4134 
L 525 4666 
z
" id="DejaVuSans-37" transform="scale(0.015625)"/>
       </defs>
       <use xlink:href="#DejaVuSans-37"/>
       <use x="63.623047" xlink:href="#DejaVuSans-30"/>
       <use x="127.246094" xlink:href="#DejaVuSans-30"/>
       <use x="190.869141" xlink:href="#DejaVuSans-30"/>
      </g>
     </g>
    </g>
   </g>
   <g id="line2d_16">
    <path clip-path="url(#p7bf1a754d8)" d="M 161.509091 349.071888 
L 161.733903 234.784679 
L 161.958715 484.232727 
L 162.40834 484.232727 
L 162.633152 465.157609 
L 162.857964 404.335231 
L 163.082776 423.41035 
L 163.307589 297.569068 
L 163.532401 278.49395 
L 163.757213 297.569068 
L 164.656462 297.569068 
L 164.881274 484.232727 
L 165.106087 439.487949 
L 165.330899 482.161714 
L 165.555711 409.131261 
L 165.780523 409.131261 
L 166.005335 484.232727 
L 166.904584 484.232727 
L 167.129397 396.868685 
L 167.354209 358.391446 
L 167.579021 358.391446 
L 167.803833 396.868685 
L 168.253458 396.868685 
L 168.47827 409.131261 
L 168.703082 472.842157 
L 168.927894 470.771144 
L 169.152707 482.161714 
L 169.377519 482.161714 
L 169.602331 484.232727 
L 169.827143 358.391446 
L 170.051955 356.320433 
L 170.276768 421.339337 
L 170.50158 373.815042 
L 170.726392 434.637419 
L 171.176017 434.637419 
L 171.400829 407.823253 
L 171.625641 347.000875 
L 171.850453 407.823253 
L 172.075265 407.823253 
L 172.300078 484.232727 
L 172.52489 366.293995 
L 172.749702 439.487949 
L 172.974514 439.487949 
L 173.199327 369.945518 
L 173.424139 484.232727 
L 173.648951 439.487949 
L 173.873763 461.451586 
L 174.098575 334.411297 
L 174.323388 396.868685 
L 174.5482 407.823253 
L 174.773012 407.823253 
L 174.997824 484.232727 
L 175.222637 434.637419 
L 175.447449 484.232727 
L 175.672261 369.945518 
L 175.897073 484.232727 
L 176.121886 484.232727 
L 176.346698 439.487949 
L 176.57151 439.487949 
L 176.796322 484.232727 
L 177.021134 484.232727 
L 177.245947 439.487949 
L 177.695571 439.487949 
L 177.920383 484.232727 
L 178.370008 361.116463 
L 178.819632 231.950661 
L 179.044444 231.950661 
L 179.269257 224.048112 
L 179.494069 349.889393 
L 179.718881 217.944074 
L 179.943693 421.339337 
L 180.168506 373.815042 
L 180.393318 421.339337 
L 180.61813 421.339337 
L 180.842942 439.487949 
L 181.292567 439.487949 
L 181.517379 378.665572 
L 181.742191 439.487949 
L 182.191816 409.131261 
L 182.416628 484.232727 
L 182.64144 484.232727 
L 182.866252 409.131261 
L 183.091064 456.928058 
L 183.315877 437.852939 
L 183.765501 437.852939 
L 184.215126 465.157609 
L 184.439938 420.412831 
L 184.66475 484.232727 
L 184.889562 484.232727 
L 185.114375 472.188152 
L 185.339187 472.188152 
L 185.563999 396.868685 
L 185.788811 484.232727 
L 186.013623 358.391446 
L 186.238436 484.232727 
L 186.463248 484.232727 
L 186.68806 456.928058 
L 186.912872 484.232727 
L 187.137685 409.131261 
L 187.587309 409.131261 
L 187.812121 484.232727 
L 188.036933 484.232727 
L 188.261746 409.131261 
L 188.486558 423.41035 
L 188.71137 423.41035 
L 188.936182 411.365775 
L 189.160995 484.232727 
L 189.385807 439.487949 
L 189.610619 439.487949 
L 189.835431 484.232727 
L 190.060243 396.868685 
L 190.285056 366.293995 
L 190.509868 456.928058 
L 190.73468 321.767219 
L 190.959492 456.928058 
L 191.409117 484.232727 
L 191.633929 396.868685 
L 192.533178 396.868685 
L 192.75799 484.232727 
L 192.982802 407.823253 
L 193.207615 396.868685 
L 193.432427 355.502928 
L 194.106864 355.502928 
L 194.331676 396.868685 
L 194.556488 484.232727 
L 194.7813 484.232727 
L 195.230925 365.966993 
L 195.455737 323.347728 
L 195.680549 410.711771 
L 195.905361 284.87049 
L 196.130174 484.232727 
L 196.354986 482.161714 
L 196.80461 482.161714 
L 197.029422 484.232727 
L 197.254235 352.287408 
L 197.479047 352.287408 
L 197.928671 484.232727 
L 198.153484 484.232727 
L 198.378296 482.161714 
L 198.603108 482.161714 
L 198.82792 407.823253 
L 199.052732 484.232727 
L 199.277545 434.637419 
L 199.502357 472.188152 
L 199.727169 472.188152 
L 199.951981 484.232727 
L 201.300855 484.232727 
L 201.525667 396.868685 
L 201.750479 484.232727 
L 201.975291 439.487949 
L 202.200104 484.232727 
L 202.424916 461.451586 
L 202.649728 484.232727 
L 203.324165 484.232727 
L 203.548977 439.487949 
L 203.998601 439.487949 
L 204.223414 482.161714 
L 204.448226 352.287408 
L 205.122663 352.287408 
L 205.347475 472.188152 
L 205.572287 472.188152 
L 205.797099 346.346871 
L 206.021911 346.346871 
L 206.246724 484.232727 
L 206.471536 461.451586 
L 206.92116 461.451586 
L 207.145973 407.823253 
L 207.370785 484.232727 
L 207.595597 439.487949 
L 207.820409 439.487949 
L 208.045221 484.232727 
L 208.270034 484.232727 
L 208.494846 482.161714 
L 208.719658 482.161714 
L 208.94447 484.232727 
L 209.169283 484.232727 
L 209.394095 482.161714 
L 209.618907 482.161714 
L 209.843719 407.823253 
L 210.068531 484.232727 
L 210.518156 323.347728 
L 210.742968 366.293995 
L 211.417405 366.293995 
L 211.642217 484.232727 
L 211.867029 409.131261 
L 212.091841 484.232727 
L 212.541466 484.232727 
L 212.766278 369.945518 
L 212.99109 350.870399 
L 213.215903 465.157609 
L 213.665527 409.131261 
L 213.890339 409.131261 
L 214.115152 335.610305 
L 214.339964 409.131261 
L 214.789588 409.131261 
L 215.0144 461.451586 
L 215.239213 347.164376 
L 215.688837 347.164376 
L 215.913649 369.945518 
L 216.138462 484.232727 
L 216.363274 358.391446 
L 216.588086 434.637419 
L 217.262523 434.637419 
L 217.487335 484.232727 
L 217.712147 358.391446 
L 217.936959 357.192439 
L 218.161772 409.131261 
L 218.386584 409.131261 
L 218.611396 484.232727 
L 218.836208 482.161714 
L 219.06102 484.232727 
L 219.285833 484.232727 
L 219.510645 352.287408 
L 219.735457 352.287408 
L 219.960269 484.232727 
L 220.185082 369.945518 
L 220.634706 369.945518 
L 220.859518 409.131261 
L 221.08433 409.131261 
L 221.309143 484.232727 
L 221.533955 484.232727 
L 221.758767 461.451586 
L 222.208392 461.451586 
L 222.433204 420.085829 
L 222.658016 442.86697 
L 222.882828 442.86697 
L 223.107641 484.232727 
L 223.557265 398.122193 
L 223.782077 304.32711 
L 224.006889 439.487949 
L 224.231702 439.487949 
L 224.681326 324.601236 
L 224.906138 409.131261 
L 226.030199 409.131261 
L 226.255012 367.765504 
L 226.704636 484.232727 
L 226.929448 352.287408 
L 227.154261 409.131261 
L 227.379073 352.287408 
L 227.828697 352.287408 
L 228.053509 484.232727 
L 228.503134 222.031599 
L 228.727946 484.232727 
L 228.952758 410.711771 
L 229.177571 410.711771 
L 229.402383 398.667196 
L 229.627195 398.667196 
L 229.852007 472.188152 
L 230.301632 472.188152 
L 230.526444 409.131261 
L 230.976068 409.131261 
L 231.200881 484.232727 
L 232.324942 484.232727 
L 232.549754 456.928058 
L 232.774566 456.928058 
L 232.999378 434.146916 
L 233.224191 352.287408 
L 233.898627 352.287408 
L 234.12344 484.232727 
L 234.348252 357.192439 
L 234.573064 439.487949 
L 234.797876 409.131261 
L 235.022688 409.131261 
L 235.247501 484.232727 
L 235.472313 472.842157 
L 235.697125 450.061015 
L 235.921937 347.164376 
L 236.14675 350.870399 
L 236.371562 350.870399 
L 236.596374 277.349443 
L 236.821186 277.349443 
L 237.045998 365.966993 
L 237.270811 365.966993 
L 237.495623 484.232727 
L 237.720435 300.294085 
L 238.394872 484.232727 
L 238.619684 484.232727 
L 238.844496 472.842157 
L 239.518933 472.842157 
L 239.743745 347.000875 
L 239.968557 484.232727 
L 240.418182 461.451586 
L 240.642994 347.164376 
L 240.867806 369.945518 
L 241.092618 484.232727 
L 241.317431 410.711771 
L 241.542243 410.711771 
L 241.767055 408.640758 
L 241.991867 409.131261 
L 242.21668 484.232727 
L 242.441492 442.86697 
L 242.666304 484.232727 
L 243.115929 484.232727 
L 243.340741 407.823253 
L 243.790365 407.823253 
L 244.015177 484.232727 
L 244.23999 484.232727 
L 244.464802 407.823253 
L 244.689614 407.823253 
L 244.914426 423.41035 
L 245.139239 484.232727 
L 245.588863 484.232727 
L 245.813675 456.928058 
L 246.038487 409.131261 
L 246.2633 409.131261 
L 246.488112 461.451586 
L 246.712924 484.232727 
L 246.937736 484.232727 
L 247.162549 472.842157 
L 247.387361 358.554947 
L 247.836985 358.554947 
L 248.061797 350.870399 
L 248.28661 350.870399 
L 248.511422 465.157609 
L 248.736234 484.232727 
L 249.185859 244.104236 
L 249.410671 472.188152 
L 249.635483 472.188152 
L 249.860295 346.346871 
L 250.085107 484.232727 
L 250.534732 484.232727 
L 250.759544 349.071888 
L 250.984356 349.071888 
L 251.209169 484.232727 
L 251.433981 484.232727 
L 251.658793 482.161714 
L 251.883605 463.086596 
L 252.108418 463.086596 
L 252.33323 329.99677 
L 252.558042 329.99677 
L 252.782854 349.071888 
L 253.007666 349.071888 
L 253.232479 484.232727 
L 253.457291 484.232727 
L 253.682103 410.711771 
L 253.906915 399.3212 
L 254.131728 335.610305 
L 254.35654 409.131261 
L 254.581352 367.765504 
L 254.806164 484.232727 
L 255.030976 465.157609 
L 255.255789 463.086596 
L 255.480601 484.232727 
L 255.705413 484.232727 
L 255.930225 442.86697 
L 256.155038 484.232727 
L 256.37985 484.232727 
L 256.604662 472.842157 
L 256.829474 399.3212 
L 257.054286 484.232727 
L 257.279099 465.157609 
L 257.503911 465.157609 
L 257.728723 407.823253 
L 257.953535 434.637419 
L 258.178348 484.232727 
L 258.40316 352.287408 
L 258.627972 484.232727 
L 258.852784 349.071888 
L 259.077596 321.767219 
L 259.302409 434.637419 
L 259.752033 434.637419 
L 259.976845 484.232727 
L 260.201658 482.161714 
L 260.42647 472.188152 
L 260.651282 484.232727 
L 261.325719 484.232727 
L 261.775343 292.773039 
L 262.000155 292.773039 
L 262.224968 391.636652 
L 262.44978 391.636652 
L 262.674592 389.56564 
L 262.899404 334.302296 
L 263.124217 407.823253 
L 263.798653 407.823253 
L 264.023465 347.000875 
L 264.697902 347.000875 
L 264.922714 348.308883 
L 265.597151 348.308883 
L 265.821963 423.41035 
L 266.046775 423.41035 
L 266.271588 484.232727 
L 266.4964 484.232727 
L 266.721212 434.637419 
L 266.946024 415.562301 
L 267.395649 415.562301 
L 267.620461 434.637419 
L 267.845273 482.161714 
L 268.070085 484.232727 
L 268.294898 484.232727 
L 268.51971 410.711771 
L 268.744522 284.87049 
L 269.194147 484.232727 
L 269.418959 482.161714 
L 269.643771 409.131261 
L 269.868583 461.451586 
L 270.093395 484.232727 
L 270.318208 409.131261 
L 270.54302 472.842157 
L 270.767832 434.637419 
L 270.992644 434.637419 
L 271.217457 472.842157 
L 271.442269 450.061015 
L 271.667081 461.451586 
L 271.891893 484.232727 
L 272.116706 461.451586 
L 272.341518 409.131261 
L 272.56633 484.232727 
L 273.015954 484.232727 
L 273.240767 482.161714 
L 273.465579 357.192439 
L 273.690391 307.706131 
L 273.915203 484.232727 
L 274.140016 484.232727 
L 274.364828 456.928058 
L 274.58964 456.928058 
L 274.814452 484.232727 
L 275.039264 349.071888 
L 275.264077 484.232727 
L 275.488889 461.451586 
L 275.713701 484.232727 
L 275.938513 472.842157 
L 276.163326 472.842157 
L 276.388138 484.232727 
L 276.61295 472.842157 
L 277.287387 288.24951 
L 277.512199 349.071888 
L 277.737011 307.706131 
L 277.961823 442.86697 
L 278.186636 440.795958 
L 278.411448 484.232727 
L 278.861072 378.665572 
L 279.085884 423.41035 
L 279.310697 400.629208 
L 279.535509 396.10568 
L 279.760321 484.232727 
L 279.985133 472.188152 
L 280.209946 407.823253 
L 280.434758 484.232727 
L 280.65957 407.823253 
L 281.109195 407.823253 
L 281.334007 272.662414 
L 281.558819 349.071888 
L 281.783631 272.662414 
L 282.008443 272.662414 
L 282.233256 484.232727 
L 282.458068 358.391446 
L 282.68288 358.391446 
L 282.907692 317.025689 
L 283.132505 484.232727 
L 283.806941 484.232727 
L 284.256566 273.64342 
L 284.481378 273.64342 
L 284.70619 283.671482 
L 285.155815 396.868685 
L 285.380627 366.293995 
L 285.605439 357.192439 
L 286.055063 357.192439 
L 286.279876 484.232727 
L 286.504688 434.637419 
L 286.7295 299.47658 
L 286.954312 349.071888 
L 287.179125 352.287408 
L 287.403937 358.391446 
L 288.078373 358.391446 
L 288.303186 484.232727 
L 288.75281 484.232727 
L 288.977622 442.86697 
L 289.202435 369.346014 
L 289.427247 442.86697 
L 289.652059 315.826682 
L 289.876871 396.868685 
L 290.551308 396.868685 
L 290.77612 484.232727 
L 291.000932 472.842157 
L 291.450557 472.842157 
L 291.675369 409.131261 
L 291.900181 484.232727 
L 292.124994 357.192439 
L 292.574618 222.849104 
L 292.79943 222.849104 
L 293.024242 296.370061 
L 293.249055 409.131261 
L 293.473867 409.131261 
L 293.698679 472.842157 
L 293.923491 409.131261 
L 294.148304 484.232727 
L 294.373116 396.868685 
L 294.597928 461.451586 
L 294.82274 461.451586 
L 295.047552 334.411297 
L 295.272365 334.411297 
L 295.497177 461.451586 
L 295.721989 484.232727 
L 295.946801 482.161714 
L 296.171614 484.232727 
L 296.84605 484.232727 
L 297.070862 423.41035 
L 297.295675 412.019779 
L 297.520487 445.537487 
L 297.745299 445.537487 
L 297.970111 472.842157 
L 298.419736 292.773039 
L 298.644548 292.773039 
L 298.86936 484.232727 
L 299.094172 352.287408 
L 299.318985 484.232727 
L 299.543797 366.293995 
L 299.993421 366.293995 
L 300.218234 484.232727 
L 300.443046 465.157609 
L 300.667858 391.636652 
L 300.89267 465.157609 
L 301.342295 465.157609 
L 301.567107 453.113034 
L 302.016731 484.232727 
L 302.241544 472.842157 
L 302.691168 472.842157 
L 302.91598 431.4764 
L 303.140793 355.502928 
L 303.365605 484.232727 
L 303.590417 369.945518 
L 303.815229 369.945518 
L 304.040041 350.870399 
L 304.264854 484.232727 
L 304.714478 334.302296 
L 304.93929 484.232727 
L 305.388915 484.232727 
L 305.613727 407.823253 
L 305.838539 407.823253 
L 306.063351 484.232727 
L 306.288164 396.868685 
L 306.512976 396.868685 
L 306.737788 366.293995 
L 306.9626 484.232727 
L 307.187413 410.711771 
L 307.412225 387.930629 
L 307.637037 484.232727 
L 307.861849 484.232727 
L 308.086661 442.86697 
L 308.311474 431.4764 
L 308.536286 315.826682 
L 308.761098 357.192439 
L 308.98591 484.232727 
L 309.435535 484.232727 
L 309.660347 407.823253 
L 310.109972 407.823253 
L 310.334784 272.662414 
L 310.559596 272.662414 
L 310.784408 349.071888 
L 311.00922 337.681317 
L 311.234033 337.681317 
L 311.458845 445.537487 
L 311.683657 484.232727 
L 312.133282 366.293995 
L 312.358094 484.232727 
L 312.582906 472.842157 
L 312.807718 472.842157 
L 313.03253 484.232727 
L 313.257343 484.232727 
L 313.482155 472.842157 
L 313.706967 409.131261 
L 314.606216 409.131261 
L 314.831028 335.610305 
L 315.05584 484.232727 
L 315.280653 358.391446 
L 315.730277 358.391446 
L 315.955089 407.823253 
L 316.629526 407.823253 
L 316.854338 439.487949 
L 317.07915 304.32711 
L 317.303963 349.071888 
L 317.528775 299.47658 
L 317.753587 484.232727 
L 317.978399 482.161714 
L 318.203212 396.868685 
L 318.428024 396.868685 
L 318.652836 461.451586 
L 318.877648 484.232727 
L 319.102461 484.232727 
L 319.327273 434.637419 
L 319.776897 434.637419 
L 320.001709 484.232727 
L 320.451334 484.232727 
L 320.676146 465.157609 
L 320.900958 409.131261 
L 321.350583 409.131261 
L 321.575395 484.232727 
L 321.800207 349.071888 
L 322.025019 349.071888 
L 322.249832 409.131261 
L 322.474644 409.131261 
L 322.699456 366.293995 
L 322.924268 369.945518 
L 323.149081 484.232727 
L 323.373893 439.487949 
L 323.598705 439.487949 
L 323.823517 396.868685 
L 324.048329 484.232727 
L 324.273142 484.232727 
L 324.497954 461.451586 
L 324.722766 396.868685 
L 324.947578 484.232727 
L 325.172391 434.637419 
L 325.846827 434.637419 
L 326.071639 409.131261 
L 326.296452 409.131261 
L 326.521264 442.86697 
L 326.970888 401.010711 
L 327.195701 461.451586 
L 327.420513 484.232727 
L 327.645325 484.232727 
L 327.870137 409.131261 
L 328.094949 409.131261 
L 328.319762 484.232727 
L 328.544574 434.637419 
L 328.769386 434.637419 
L 328.994198 484.232727 
L 329.219011 484.232727 
L 329.443823 434.637419 
L 329.668635 484.232727 
L 329.893447 352.287408 
L 330.11826 352.287408 
L 330.343072 484.232727 
L 330.567884 484.232727 
L 330.792696 407.823253 
L 331.242321 407.823253 
L 331.691945 484.232727 
L 331.916757 461.451586 
L 332.14157 484.232727 
L 332.366382 396.868685 
L 332.816006 484.232727 
L 333.040818 358.391446 
L 333.265631 356.320433 
L 333.490443 358.391446 
L 333.715255 331.086776 
L 333.940067 257.56582 
L 334.16488 272.825915 
L 334.389692 262.089348 
L 334.614504 273.479919 
L 334.839316 358.391446 
L 335.288941 358.391446 
L 335.738565 465.157609 
L 335.963377 404.335231 
L 336.18819 404.335231 
L 336.413002 423.41035 
L 336.637814 484.232727 
L 336.862626 484.232727 
L 337.087438 456.928058 
L 337.312251 456.928058 
L 337.537063 383.407101 
L 337.761875 383.407101 
L 337.986687 322.584724 
L 338.2115 383.407101 
L 338.436312 383.407101 
L 338.661124 364.331983 
L 339.110749 364.331983 
L 339.335561 347.218877 
L 339.560373 465.157609 
L 339.785185 484.232727 
L 340.009997 358.391446 
L 340.23481 484.232727 
L 340.459622 484.232727 
L 340.684434 409.131261 
L 341.358871 409.131261 
L 341.583683 357.192439 
L 342.033307 357.192439 
L 342.25812 484.232727 
L 342.482932 484.232727 
L 342.707744 352.287408 
L 342.932556 352.287408 
L 343.157369 357.192439 
L 343.382181 283.671482 
L 343.606993 283.671482 
L 343.831805 335.610305 
L 344.056617 335.610305 
L 344.28143 484.232727 
L 344.506242 442.86697 
L 344.731054 442.86697 
L 344.955866 484.232727 
L 345.180679 484.232727 
L 345.405491 349.071888 
L 345.630303 347.000875 
L 346.079927 465.157609 
L 346.30474 352.287408 
L 346.529552 352.287408 
L 346.754364 278.766452 
L 346.979176 278.766452 
L 347.203989 284.87049 
L 347.428801 283.671482 
L 347.653613 283.671482 
L 347.878425 484.232727 
L 348.552862 484.232727 
L 348.777674 465.157609 
L 349.002486 339.316328 
L 349.227299 347.000875 
L 349.452111 472.842157 
L 349.676923 484.232727 
L 349.901735 484.232727 
L 350.126548 407.823253 
L 351.025796 407.823253 
L 351.250609 484.232727 
L 351.700233 484.232727 
L 351.925045 434.637419 
L 352.149858 484.232727 
L 352.37467 472.842157 
L 352.599482 453.767038 
L 352.824294 366.293995 
L 353.049106 231.133156 
L 353.498731 456.928058 
L 353.723543 456.928058 
L 353.948355 396.10568 
L 354.173168 484.232727 
L 354.39798 366.293995 
L 354.622792 484.232727 
L 355.072416 484.232727 
L 355.297229 461.451586 
L 355.522041 461.451586 
L 355.746853 366.293995 
L 355.971665 366.293995 
L 356.196478 484.232727 
L 356.42129 461.451586 
L 356.646102 461.451586 
L 356.870914 484.232727 
L 357.545351 484.232727 
L 357.770163 465.157609 
L 357.994975 484.232727 
L 358.219788 439.487949 
L 359.119037 439.487949 
L 359.343849 420.412831 
L 359.568661 329.99677 
L 360.018285 329.99677 
L 360.243098 349.071888 
L 360.46791 326.290747 
L 360.692722 366.293995 
L 360.917534 366.293995 
L 361.142347 484.232727 
L 361.367159 410.711771 
L 361.591971 484.232727 
L 361.816783 482.161714 
L 362.041595 408.640758 
L 362.266408 482.161714 
L 362.49122 356.320433 
L 362.716032 358.391446 
L 362.940844 484.232727 
L 363.165657 484.232727 
L 363.390469 409.131261 
L 363.840093 409.131261 
L 364.064905 461.451586 
L 364.51453 461.451586 
L 364.739342 449.407011 
L 364.964154 459.380573 
L 365.188967 356.320433 
L 365.413779 470.771144 
L 365.638591 470.771144 
L 365.863403 399.3212 
L 366.313028 399.3212 
L 366.53784 372.016531 
L 366.762652 372.016531 
L 366.987464 445.537487 
L 367.212277 352.287408 
L 367.437089 358.391446 
L 367.661901 317.025689 
L 367.886713 317.025689 
L 368.111526 358.391446 
L 368.336338 347.000875 
L 369.235587 347.000875 
L 369.460399 484.232727 
L 369.685211 409.131261 
L 369.910023 484.232727 
L 370.134836 369.945518 
L 370.359648 484.232727 
L 370.58446 434.637419 
L 371.034084 434.637419 
L 371.258897 407.823253 
L 371.708521 292.93654 
L 371.933333 243.504733 
L 372.158146 358.391446 
L 372.382958 244.104236 
L 373.057394 244.104236 
L 373.282207 358.391446 
L 373.731831 358.391446 
L 373.956643 335.610305 
L 374.181456 396.868685 
L 374.406268 323.347728 
L 374.63108 410.711771 
L 374.855892 410.711771 
L 375.080704 361.116463 
L 375.305517 361.116463 
L 375.530329 484.232727 
L 375.755141 482.161714 
L 375.979953 408.640758 
L 376.429578 408.640758 
L 376.65439 484.232727 
L 376.879202 369.945518 
L 377.328827 369.945518 
L 377.553639 309.12314 
L 377.778451 369.945518 
L 378.003263 369.945518 
L 378.228076 456.928058 
L 378.452888 409.131261 
L 378.6777 409.131261 
L 378.902512 484.232727 
L 379.127325 484.232727 
L 379.352137 465.157609 
L 379.801761 465.157609 
L 380.026573 350.870399 
L 380.251386 350.870399 
L 380.476198 439.487949 
L 381.150635 439.487949 
L 381.375447 484.232727 
L 381.600259 439.487949 
L 381.825071 484.232727 
L 382.049883 484.232727 
L 382.499508 335.610305 
L 382.72432 387.930629 
L 383.173945 387.930629 
L 383.398757 407.823253 
L 383.623569 407.823253 
L 383.848381 347.000875 
L 384.972442 347.000875 
L 385.197255 484.232727 
L 385.422067 442.86697 
L 385.646879 442.86697 
L 385.871691 484.232727 
L 386.096503 358.391446 
L 386.546128 358.391446 
L 386.77094 317.025689 
L 386.995752 357.192439 
L 387.220565 484.232727 
L 387.445377 484.232727 
L 387.670189 369.945518 
L 387.895001 350.870399 
L 388.119814 420.412831 
L 388.344626 352.287408 
L 389.019062 352.287408 
L 389.243875 484.232727 
L 389.468687 349.071888 
L 389.693499 484.232727 
L 389.918311 482.161714 
L 390.143124 484.232727 
L 390.367936 410.711771 
L 390.592748 408.640758 
L 390.81756 408.640758 
L 391.042372 385.859617 
L 391.267185 385.859617 
L 391.491997 482.161714 
L 391.716809 407.823253 
L 391.941621 461.451586 
L 392.166434 396.868685 
L 392.391246 484.232727 
L 392.616058 366.293995 
L 392.84087 366.293995 
L 393.065682 484.232727 
L 393.290495 366.293995 
L 393.515307 409.131261 
L 393.740119 409.131261 
L 393.964931 366.293995 
L 394.189744 456.928058 
L 394.414556 456.928058 
L 394.639368 369.945518 
L 394.86418 484.232727 
L 395.088992 484.232727 
L 395.313805 423.41035 
L 395.538617 423.41035 
L 395.763429 305.471617 
L 396.437866 305.471617 
L 396.88749 409.131261 
L 397.337115 409.131261 
L 397.561927 335.610305 
L 397.786739 484.232727 
L 398.011551 472.842157 
L 398.236364 412.019779 
L 398.461176 412.019779 
L 398.9108 484.232727 
L 399.135613 484.232727 
L 399.360425 434.637419 
L 399.810049 434.637419 
L 400.034861 484.232727 
L 400.484486 396.868685 
L 400.709298 261.707846 
L 400.93411 349.071888 
L 401.383735 299.47658 
L 401.608547 472.188152 
L 402.058171 472.188152 
L 402.282984 484.232727 
L 402.507796 484.232727 
L 402.732608 358.391446 
L 402.95742 331.086776 
L 403.182233 415.562301 
L 403.407045 456.928058 
L 403.856669 456.928058 
L 404.081481 366.293995 
L 404.306294 484.232727 
L 405.205543 484.232727 
L 405.430355 396.868685 
L 406.329604 396.868685 
L 406.554416 409.131261 
L 406.779228 321.767219 
L 407.00404 456.928058 
L 407.228853 456.928058 
L 407.453665 484.232727 
L 407.903289 336.046307 
L 408.128102 472.842157 
L 408.352914 409.131261 
L 408.802538 409.131261 
L 409.02735 482.161714 
L 409.701787 482.161714 
L 409.926599 459.380573 
L 410.151412 366.293995 
L 410.376224 484.232727 
L 411.05066 484.232727 
L 411.275473 369.945518 
L 411.725097 369.945518 
L 411.949909 484.232727 
L 412.174722 484.232727 
L 412.399534 423.41035 
L 412.624346 484.232727 
L 412.849158 396.868685 
L 413.07397 484.232727 
L 413.298783 352.287408 
L 413.523595 472.188152 
L 414.422844 472.188152 
L 414.647656 484.232727 
L 414.872468 484.232727 
L 415.09728 366.293995 
L 415.546905 352.287408 
L 415.771717 484.232727 
L 415.996529 439.487949 
L 416.895778 439.487949 
L 417.120591 396.868685 
L 417.345403 396.868685 
L 417.570215 484.232727 
L 418.469464 484.232727 
L 418.694276 409.131261 
L 418.919088 409.131261 
L 419.143901 484.232727 
L 419.368713 461.451586 
L 419.593525 484.232727 
L 420.043149 484.232727 
L 420.267962 465.157609 
L 420.492774 347.218877 
L 420.717586 409.131261 
L 421.392023 409.131261 
L 421.616835 465.157609 
L 421.841647 453.767038 
L 422.066459 357.192439 
L 422.291272 357.192439 
L 422.516084 296.370061 
L 422.740896 423.41035 
L 422.965708 296.370061 
L 423.190521 482.161714 
L 423.415333 482.161714 
L 423.640145 408.640758 
L 423.864957 408.640758 
L 424.089769 410.711771 
L 424.314582 292.773039 
L 424.539394 292.773039 
L 424.764206 366.293995 
L 424.989018 366.293995 
L 425.213831 231.133156 
L 425.663455 484.232727 
L 426.337892 484.232727 
L 426.562704 472.188152 
L 426.787516 472.188152 
L 427.012328 484.232727 
L 427.237141 482.161714 
L 427.461953 439.487949 
L 427.686765 484.232727 
L 428.586014 484.232727 
L 428.810826 407.823253 
L 429.035638 484.232727 
L 429.260451 484.232727 
L 429.485263 465.157609 
L 429.710075 423.791852 
L 429.934887 465.157609 
L 430.384512 244.104236 
L 430.609324 244.104236 
L 430.834136 484.232727 
L 431.058948 366.293995 
L 431.508573 366.293995 
L 431.733385 484.232727 
L 431.958197 484.232727 
L 432.18301 358.391446 
L 432.632634 484.232727 
L 432.857446 352.287408 
L 433.082258 465.157609 
L 433.307071 409.131261 
L 433.531883 484.232727 
L 433.756695 456.928058 
L 433.981507 407.823253 
L 434.20632 482.161714 
L 434.431132 408.640758 
L 434.880756 408.640758 
L 435.105569 410.711771 
L 435.330381 323.347728 
L 435.555193 323.347728 
L 435.780005 396.868685 
L 436.004817 355.502928 
L 436.22963 355.502928 
L 436.679254 256.203312 
L 437.353691 484.232727 
L 437.578503 484.232727 
L 437.803315 358.391446 
L 438.028127 484.232727 
L 438.25294 472.188152 
L 438.702564 472.188152 
L 438.927376 407.823253 
L 439.152189 407.823253 
L 439.377001 484.232727 
L 439.601813 484.232727 
L 439.826625 349.071888 
L 440.051437 321.767219 
L 440.27625 223.230607 
L 440.501062 272.662414 
L 440.725874 352.287408 
L 440.950686 484.232727 
L 441.400311 484.232727 
L 441.625123 472.842157 
L 441.849935 484.232727 
L 442.29956 484.232727 
L 442.524372 423.41035 
L 442.973996 423.41035 
L 443.198809 366.293995 
L 443.423621 366.293995 
L 443.648433 484.232727 
L 443.873245 465.157609 
L 444.32287 465.157609 
L 444.547682 347.218877 
L 444.772494 347.218877 
L 444.997306 366.293995 
L 445.446931 366.293995 
L 445.896555 482.161714 
L 447.020616 482.161714 
L 447.245429 421.339337 
L 447.470241 400.629208 
L 447.695053 461.451586 
L 447.919865 461.451586 
L 448.144678 396.868685 
L 448.36949 484.232727 
L 449.043926 484.232727 
L 449.268739 465.157609 
L 449.493551 339.316328 
L 449.718363 484.232727 
L 449.943175 410.711771 
L 450.167988 408.640758 
L 450.3928 482.161714 
L 450.617612 482.161714 
L 450.842424 484.232727 
L 451.067236 484.232727 
L 451.292049 465.157609 
L 451.516861 484.232727 
L 451.966485 323.347728 
L 452.640922 323.347728 
L 452.865734 278.766452 
L 453.090546 410.711771 
L 453.315359 408.640758 
L 453.540171 484.232727 
L 453.764983 442.86697 
L 453.989795 484.232727 
L 454.214608 484.232727 
L 454.43942 352.287408 
L 454.664232 352.287408 
L 454.889044 472.842157 
L 455.113857 472.842157 
L 455.338669 412.019779 
L 455.563481 472.842157 
L 455.788293 472.842157 
L 456.013105 399.3212 
L 456.687542 399.3212 
L 456.912354 278.766452 
L 457.137167 352.287408 
L 457.361979 484.232727 
L 457.586791 456.928058 
L 458.48604 456.928058 
L 458.710852 484.232727 
L 458.935664 482.161714 
L 459.160477 408.640758 
L 459.385289 484.232727 
L 459.610101 472.188152 
L 459.834913 484.232727 
L 460.059725 396.868685 
L 460.284538 439.487949 
L 460.50935 352.287408 
L 460.734162 349.071888 
L 461.183787 349.071888 
L 461.408599 299.47658 
L 461.858223 299.47658 
L 462.083035 484.232727 
L 462.307848 349.071888 
L 462.53266 484.232727 
L 462.757472 484.232727 
L 462.982284 349.071888 
L 463.207097 484.232727 
L 463.431909 484.232727 
L 463.656721 472.188152 
L 463.881533 484.232727 
L 464.106346 369.945518 
L 464.331158 439.487949 
L 464.55597 396.868685 
L 464.780782 396.868685 
L 465.005594 369.945518 
L 465.230407 369.945518 
L 465.455219 244.104236 
L 465.680031 484.232727 
L 465.904843 484.232727 
L 466.129656 349.071888 
L 466.354468 349.071888 
L 466.57928 484.232727 
L 466.804092 366.293995 
L 467.253717 366.293995 
L 467.478529 484.232727 
L 467.703341 484.232727 
L 467.928153 423.41035 
L 468.152966 309.12314 
L 468.377778 347.000875 
L 468.60259 347.000875 
L 468.827402 484.232727 
L 469.052214 358.391446 
L 469.277027 358.391446 
L 469.501839 484.232727 
L 469.726651 482.161714 
L 469.951463 440.795958 
L 470.176276 440.795958 
L 470.401088 442.86697 
L 470.6259 484.232727 
L 470.850712 484.232727 
L 471.075524 472.188152 
L 471.300337 472.188152 
L 471.525149 439.487949 
L 471.974773 439.487949 
L 472.199586 472.188152 
L 472.424398 484.232727 
L 472.64921 461.451586 
L 472.874022 484.232727 
L 473.098834 472.842157 
L 473.323647 484.232727 
L 473.548459 484.232727 
L 473.773271 472.188152 
L 473.998083 346.346871 
L 474.222896 358.391446 
L 474.447708 484.232727 
L 474.897332 415.562301 
L 475.122145 442.86697 
L 475.346957 440.795958 
L 475.571769 440.795958 
L 475.796581 423.791852 
L 476.021393 442.86697 
L 476.246206 393.271663 
L 476.471018 393.271663 
L 476.69583 319.750706 
L 476.920642 442.86697 
L 477.145455 442.86697 
L 477.370267 430.822396 
L 477.595079 357.301439 
L 477.819891 398.667196 
L 478.044703 296.424561 
L 478.269516 296.424561 
L 478.71914 410.711771 
L 478.943952 296.424561 
L 479.168765 484.232727 
L 479.393577 366.293995 
L 479.843201 366.293995 
L 480.068013 484.232727 
L 481.416887 484.232727 
L 481.641699 366.293995 
L 482.091323 366.293995 
L 482.316136 357.192439 
L 482.540948 357.192439 
L 482.76576 358.391446 
L 482.990572 346.346871 
L 483.889821 346.346871 
L 484.114634 358.391446 
L 484.339446 396.868685 
L 484.564258 396.868685 
L 484.78907 484.232727 
L 485.013882 484.232727 
L 485.238695 352.287408 
L 485.463507 484.232727 
L 485.688319 357.192439 
L 486.362756 357.192439 
L 486.587568 369.945518 
L 486.81238 369.945518 
L 487.037192 484.232727 
L 487.262005 484.232727 
L 487.486817 439.487949 
L 487.711629 439.487949 
L 487.936441 484.232727 
L 488.161254 358.391446 
L 488.386066 484.232727 
L 488.610878 472.842157 
L 488.83569 337.681317 
L 489.060502 453.767038 
L 489.285315 484.232727 
L 489.959751 484.232727 
L 490.184564 439.487949 
L 490.409376 439.487949 
L 490.634188 357.192439 
L 490.859 357.192439 
L 491.308625 472.188152 
L 491.533437 453.113034 
L 491.758249 484.232727 
L 491.983061 410.711771 
L 492.207874 484.232727 
L 492.432686 472.842157 
L 492.657498 450.061015 
L 492.88231 337.681317 
L 493.107123 296.315561 
L 493.331935 337.681317 
L 493.556747 484.232727 
L 493.781559 442.86697 
L 494.006371 369.346014 
L 494.231184 484.232727 
L 494.455996 358.391446 
L 494.680808 484.232727 
L 494.90562 472.842157 
L 495.130433 484.232727 
L 495.355245 484.232727 
L 495.580057 349.071888 
L 495.804869 299.47658 
L 496.029681 299.47658 
L 496.254494 337.681317 
L 496.479306 472.842157 
L 496.704118 450.061015 
L 497.153743 450.061015 
L 497.378555 326.290747 
L 497.603367 461.451586 
L 497.828179 442.376467 
L 498.052991 442.376467 
L 498.277804 484.232727 
L 498.502616 396.868685 
L 498.727428 355.502928 
L 499.177053 355.502928 
L 499.401865 294.68055 
L 499.851489 294.68055 
L 500.076301 355.502928 
L 500.301114 355.502928 
L 500.525926 484.232727 
L 500.750738 482.161714 
L 500.97555 439.487949 
L 501.200363 439.487949 
L 501.425175 304.32711 
L 501.649987 304.32711 
L 501.874799 484.232727 
L 502.099611 369.945518 
L 502.324424 358.554947 
L 502.549236 358.554947 
L 502.774048 453.767038 
L 502.99886 484.232727 
L 503.223673 461.451586 
L 503.448485 352.287408 
L 503.673297 352.287408 
L 503.898109 484.232727 
L 504.122922 423.41035 
L 504.347734 423.41035 
L 504.572546 348.308883 
L 504.797358 348.308883 
L 505.02217 484.232727 
L 505.246983 366.293995 
L 505.471795 439.487949 
L 506.371044 439.487949 
L 506.595856 396.868685 
L 506.820668 396.868685 
L 507.04548 323.347728 
L 507.270293 396.868685 
L 507.495105 323.347728 
L 508.169542 323.347728 
L 508.394354 484.232727 
L 508.619166 409.131261 
L 508.843978 409.131261 
L 509.06879 472.188152 
L 509.293603 456.928058 
L 509.518415 456.928058 
L 509.743227 484.232727 
L 509.968039 484.232727 
L 510.192852 409.131261 
L 510.417664 484.232727 
L 510.642476 423.41035 
L 511.316913 423.41035 
L 511.766537 337.299815 
L 511.991349 398.122193 
L 512.665786 398.122193 
L 512.890598 484.232727 
L 513.565035 484.232727 
L 514.014659 366.293995 
L 514.239472 366.293995 
L 514.464284 396.868685 
L 514.913908 396.868685 
L 515.363533 294.68055 
L 515.588345 396.868685 
L 515.813157 396.868685 
L 516.037969 357.192439 
L 516.937218 357.192439 
L 517.162031 366.293995 
L 517.386843 366.293995 
L 517.611655 484.232727 
L 517.836467 369.945518 
L 518.061279 369.945518 
L 518.286092 409.131261 
L 518.510904 409.131261 
L 518.735716 484.232727 
L 519.185341 484.232727 
L 519.410153 434.637419 
L 519.634965 484.232727 
L 520.309402 484.232727 
L 520.534214 358.391446 
L 520.759026 347.000875 
L 520.983838 358.391446 
L 521.433463 358.391446 
L 521.658275 284.87049 
L 522.1079 284.87049 
L 522.332712 149.70965 
L 522.782336 409.131261 
L 523.007148 358.391446 
L 523.231961 335.610305 
L 523.456773 335.610305 
L 523.906397 484.232727 
L 524.580834 484.232727 
L 524.805646 472.842157 
L 525.030458 484.232727 
L 525.255271 407.823253 
L 525.480083 484.232727 
L 526.15452 484.232727 
L 526.379332 472.842157 
L 526.604144 484.232727 
L 527.053768 484.232727 
L 527.278581 456.928058 
L 527.503393 383.407101 
L 527.728205 484.232727 
L 527.953017 484.232727 
L 528.402642 352.287408 
L 528.627454 484.232727 
L 528.852266 482.161714 
L 529.077078 484.232727 
L 529.301891 410.711771 
L 529.526703 484.232727 
L 529.751515 456.928058 
L 529.976327 456.928058 
L 530.20114 484.232727 
L 530.425952 484.232727 
L 530.650764 423.41035 
L 530.875576 296.370061 
L 531.325201 296.370061 
L 531.550013 484.232727 
L 531.774825 410.711771 
L 531.999637 275.550932 
L 532.22445 256.475813 
L 532.449262 195.653436 
L 532.674074 276.85894 
L 532.898886 412.019779 
L 533.348511 412.019779 
L 533.573323 472.842157 
L 533.798135 472.842157 
L 534.022947 407.823253 
L 534.24776 407.823253 
L 534.472572 484.232727 
L 534.697384 484.232727 
L 535.147009 439.487949 
L 535.371821 434.637419 
L 535.596633 484.232727 
L 535.821445 456.928058 
L 536.046257 472.188152 
L 536.495882 366.293995 
L 536.945506 366.293995 
L 537.170319 407.823253 
L 537.395131 407.823253 
L 537.619943 484.232727 
L 537.844755 434.637419 
L 538.29438 434.637419 
L 538.519192 484.232727 
L 538.744004 484.232727 
L 538.968816 407.823253 
L 539.193629 484.232727 
L 539.418441 349.071888 
L 539.643253 484.232727 
L 539.868065 484.232727 
L 540.31769 398.122193 
L 540.542502 304.32711 
L 540.767314 304.32711 
L 540.992126 349.071888 
L 541.216939 321.767219 
L 541.891375 321.767219 
L 542.116188 456.928058 
L 542.341 439.487949 
L 542.565812 484.232727 
L 542.790624 369.945518 
L 543.240249 369.945518 
L 543.465061 296.424561 
L 543.689873 170.58328 
L 543.914685 170.58328 
L 544.139498 296.424561 
L 544.36431 296.424561 
L 544.589122 170.58328 
L 544.813934 170.58328 
L 545.038746 284.87049 
L 545.263559 149.70965 
L 545.488371 149.70965 
L 545.713183 157.612199 
L 546.162808 366.293995 
L 546.38762 366.293995 
L 546.612432 347.000875 
L 546.837244 288.24951 
L 547.286869 288.24951 
L 547.511681 347.000875 
L 547.736493 347.000875 
L 547.961305 296.370061 
L 548.186118 309.12314 
L 548.860554 309.12314 
L 549.085366 291.46503 
L 549.310179 421.339337 
L 549.534991 421.339337 
L 549.759803 347.000875 
L 549.984615 463.086596 
L 550.209428 484.232727 
L 550.659052 349.889393 
L 550.883864 484.232727 
L 551.558301 484.232727 
L 551.783113 482.161714 
L 552.007925 482.161714 
L 552.232738 484.232727 
L 552.45755 484.232727 
L 552.682362 434.637419 
L 552.907174 484.232727 
L 553.131987 484.232727 
L 553.581611 373.815042 
L 553.806423 415.562301 
L 554.031235 415.562301 
L 554.256048 434.637419 
L 554.48086 484.232727 
L 554.705672 442.86697 
L 554.930484 310.921651 
L 555.155297 315.826682 
L 555.829733 315.826682 
L 556.054545 255.004304 
L 556.50417 255.004304 
L 556.728982 382.044593 
L 557.178607 382.044593 
L 557.403419 359.263451 
L 557.628231 359.263451 
L 557.853043 484.232727 
L 558.077855 442.86697 
L 558.302668 442.86697 
L 558.52748 440.795958 
L 558.752292 324.928238 
L 558.977104 442.86697 
L 559.201917 367.765504 
L 559.426729 367.765504 
L 559.651541 294.244548 
L 559.876353 292.93654 
L 560.101166 355.502928 
L 560.325978 484.232727 
L 560.55079 349.071888 
L 560.775602 349.071888 
L 561.000414 288.24951 
L 561.225227 288.24951 
L 561.450039 305.471617 
L 562.349288 305.471617 
L 562.5741 366.293995 
L 562.798912 366.293995 
L 563.023724 292.773039 
L 563.698161 292.773039 
L 563.922973 398.667196 
L 564.147786 398.667196 
L 564.372598 263.506357 
L 564.59741 263.506357 
L 564.822222 157.612199 
L 565.047034 157.612199 
L 565.271847 231.133156 
L 565.946283 231.133156 
L 566.171096 349.071888 
L 566.395908 349.071888 
L 566.62072 337.027313 
L 566.845532 299.47658 
L 569.318467 299.47658 
L 569.543279 349.071888 
L 569.768091 352.287408 
L 571.341777 352.287408 
L 571.566589 369.945518 
L 572.016213 369.945518 
L 572.241026 396.868685 
L 572.915462 396.868685 
L 573.140275 409.131261 
L 574.938772 409.131261 
L 575.163585 348.308883 
L 575.388397 348.308883 
L 575.613209 297.569068 
L 576.062833 297.569068 
L 576.287646 291.46503 
L 577.186895 291.46503 
L 577.411707 217.944074 
L 577.636519 291.46503 
L 577.861331 297.569068 
L 578.086143 278.49395 
L 578.310956 330.814275 
L 578.76058 330.814275 
L 578.985392 235.602184 
L 579.210205 235.602184 
L 579.435017 222.849104 
L 579.659829 222.031599 
L 580.109454 222.031599 
L 580.334266 321.767219 
L 582.357576 321.767219 
L 582.582388 248.246262 
L 582.8072 383.407101 
L 583.032012 383.407101 
L 583.256825 407.823253 
L 583.706449 407.823253 
L 583.931261 334.302296 
L 584.156074 315.826682 
L 584.605698 315.826682 
L 584.83051 357.192439 
L 585.280135 357.192439 
L 585.504947 338.11732 
L 586.179384 338.11732 
L 586.404196 357.192439 
L 586.629008 296.370061 
L 586.85382 296.370061 
L 587.078632 291.46503 
L 587.303445 352.287408 
L 587.753069 352.287408 
L 587.977881 357.192439 
L 588.652318 357.192439 
L 588.87713 283.671482 
L 590.675628 283.671482 
L 590.90044 484.232727 
L 591.125253 366.293995 
L 591.350065 366.293995 
L 591.574877 324.928238 
L 592.024501 324.928238 
L 592.249314 251.407282 
L 593.373375 251.407282 
L 593.598187 296.424561 
L 595.171873 296.424561 
L 595.396685 292.773039 
L 598.544056 292.773039 
L 598.768868 323.347728 
L 598.99368 323.347728 
L 599.218493 365.966993 
L 599.443305 365.966993 
L 599.668117 335.610305 
L 600.342554 335.610305 
L 600.567366 274.787927 
L 600.792178 273.479919 
L 602.141052 273.479919 
L 602.365864 272.662414 
L 609.335043 272.662414 
L 609.559855 222.031599 
L 610.009479 222.031599 
L 610.234292 148.510643 
L 618.327532 148.510643 
L 618.552344 161.263722 
L 623.273401 161.263722 
L 623.498213 188.186889 
L 632.715514 188.186889 
L 632.940326 161.263722 
L 649.801243 161.263722 
L 650.026055 148.510643 
L 651.150117 148.510643 
L 651.374929 149.70965 
L 651.824553 149.70965 
L 652.049365 88.887273 
L 871.690909 88.887273 
L 871.690909 88.887273 
" style="fill:none;stroke:#8dd3c7;stroke-linecap:square;stroke-width:1.5;"/>
   </g>
   <g id="line2d_17">
    <path clip-path="url(#p7bf1a754d8)" d="M 161.509091 349.071888 
L 161.733903 234.784679 
L 178.59482 234.784679 
L 178.819632 231.950661 
L 179.044444 231.950661 
L 179.269257 224.048112 
L 179.494069 224.048112 
L 179.718881 217.944074 
L 522.1079 217.944074 
L 522.332712 149.70965 
L 610.009479 149.70965 
L 610.234292 148.510643 
L 651.824553 148.510643 
L 652.049365 88.887273 
L 871.690909 88.887273 
L 871.690909 88.887273 
" style="fill:none;stroke:#feffb3;stroke-linecap:square;stroke-width:1.5;"/>
   </g>
   <g id="line2d_18">
    <path clip-path="url(#p7bf1a754d8)" d="M 161.509091 389.62014 
L 163.082776 389.62014 
L 163.307589 394.06731 
L 164.881274 394.06731 
L 165.106087 398.305446 
L 166.679772 398.305446 
L 166.904584 402.344373 
L 168.47827 402.344373 
L 168.703082 406.193453 
L 170.276768 406.193453 
L 170.50158 409.861612 
L 172.075265 409.861612 
L 172.300078 413.357352 
L 173.873763 413.357352 
L 174.098575 416.688779 
L 175.672261 416.688779 
L 175.897073 419.863615 
L 177.470759 419.863615 
L 177.695571 422.889221 
L 179.269257 422.889221 
L 179.494069 425.772611 
L 181.067754 425.772611 
L 181.292567 428.520471 
L 182.866252 428.520471 
L 183.091064 431.13917 
L 184.66475 431.13917 
L 184.889562 433.63478 
L 186.463248 433.63478 
L 186.68806 436.013086 
L 188.261746 436.013086 
L 188.486558 438.279603 
L 190.060243 438.279603 
L 190.285056 440.439584 
L 191.858741 440.439584 
L 192.083553 442.498037 
L 193.657239 442.498037 
L 193.882051 444.459734 
L 195.455737 444.459734 
L 195.680549 446.329224 
L 197.254235 446.329224 
L 197.479047 448.110841 
L 199.052732 448.110841 
L 199.277545 449.808714 
L 200.85123 449.808714 
L 201.076042 451.426781 
L 202.649728 451.426781 
L 202.87454 452.968792 
L 204.448226 452.968792 
L 204.673038 454.438322 
L 206.246724 454.438322 
L 206.471536 455.838778 
L 208.045221 455.838778 
L 208.270034 457.173408 
L 209.843719 457.173408 
L 210.068531 458.445304 
L 211.642217 458.445304 
L 211.867029 459.657416 
L 213.440715 459.657416 
L 213.665527 460.812554 
L 215.239213 460.812554 
L 215.464025 461.913396 
L 217.03771 461.913396 
L 217.262523 462.962494 
L 218.836208 462.962494 
L 219.06102 463.96228 
L 220.634706 463.96228 
L 220.859518 464.915073 
L 222.433204 464.915073 
L 222.658016 465.82308 
L 224.231702 465.82308 
L 224.456514 466.688407 
L 226.030199 466.688407 
L 226.255012 467.51306 
L 227.828697 467.51306 
L 228.053509 468.298952 
L 229.627195 468.298952 
L 229.852007 469.047903 
L 231.425693 469.047903 
L 231.650505 469.76165 
L 233.224191 469.76165 
L 233.449003 470.441849 
L 235.022688 470.441849 
L 235.247501 471.090075 
L 236.821186 471.090075 
L 237.045998 471.707833 
L 238.619684 471.707833 
L 238.844496 472.296553 
L 240.418182 472.296553 
L 240.642994 472.857601 
L 242.21668 472.857601 
L 242.441492 473.392277 
L 244.015177 473.392277 
L 244.23999 473.901822 
L 245.813675 473.901822 
L 246.038487 474.387416 
L 247.612173 474.387416 
L 247.836985 474.850185 
L 249.410671 474.850185 
L 249.635483 475.291202 
L 251.209169 475.291202 
L 251.433981 475.71149 
L 253.007666 475.71149 
L 253.232479 476.112022 
L 254.806164 476.112022 
L 255.030976 476.493728 
L 256.604662 476.493728 
L 256.829474 476.857492 
L 258.40316 476.857492 
L 258.627972 477.204157 
L 260.201658 477.204157 
L 260.42647 477.534528 
L 262.000155 477.534528 
L 262.224968 477.84937 
L 263.798653 477.84937 
L 264.023465 478.149414 
L 265.597151 478.149414 
L 265.821963 478.435354 
L 267.395649 478.435354 
L 267.620461 478.707854 
L 269.194147 478.707854 
L 269.418959 478.967545 
L 270.992644 478.967545 
L 271.217457 479.215029 
L 272.791142 479.215029 
L 273.015954 479.450881 
L 274.58964 479.450881 
L 274.814452 479.675647 
L 276.388138 479.675647 
L 276.61295 479.889848 
L 278.186636 479.889848 
L 278.411448 480.093981 
L 279.985133 480.093981 
L 280.209946 480.288519 
L 281.783631 480.288519 
L 282.008443 480.473912 
L 283.582129 480.473912 
L 283.806941 480.650592 
L 285.380627 480.650592 
L 285.605439 480.818966 
L 287.179125 480.818966 
L 287.403937 480.979427 
L 288.977622 480.979427 
L 289.202435 481.132345 
L 290.77612 481.132345 
L 291.000932 481.278075 
L 292.574618 481.278075 
L 292.79943 481.416956 
L 294.373116 481.416956 
L 294.597928 481.549308 
L 296.171614 481.549308 
L 296.621238 481.67544 
L 297.970111 481.67544 
L 298.419736 481.795643 
L 299.768609 481.795643 
L 300.218234 481.910195 
L 303.365605 482.019364 
L 303.815229 482.123401 
L 306.9626 482.222547 
L 307.412225 482.317034 
L 310.559596 482.407079 
L 311.00922 482.492892 
L 314.156592 482.574671 
L 314.606216 482.652606 
L 317.753587 482.726878 
L 318.203212 482.797659 
L 321.350583 482.865113 
L 321.800207 482.929397 
L 324.947578 482.990658 
L 325.397203 483.049041 
L 330.343072 483.157701 
L 331.017508 483.208232 
L 335.738565 483.302279 
L 336.413002 483.346014 
L 341.134059 483.427413 
L 341.808495 483.465266 
L 348.32805 483.56848 
L 349.227299 483.599702 
L 357.320539 483.71059 
L 358.4446 483.735132 
L 368.111526 483.841588 
L 369.685211 483.859973 
L 382.499508 483.966618 
L 384.74763 483.991046 
L 407.678477 484.097104 
L 412.174722 484.115343 
L 520.983838 484.226195 
L 606.637296 484.232079 
L 871.690909 484.232727 
L 871.690909 484.232727 
" style="fill:none;stroke:#bfbbd9;stroke-linecap:square;stroke-width:1.5;"/>
   </g>
   <g id="patch_3">
    <path d="M 126 504 
L 126 69.12 
" style="fill:none;stroke:#ffffff;stroke-linecap:square;stroke-linejoin:miter;stroke-width:0.8;"/>
   </g>
   <g id="patch_4">
    <path d="M 907.2 504 
L 907.2 69.12 
" style="fill:none;stroke:#ffffff;stroke-linecap:square;stroke-linejoin:miter;stroke-width:0.8;"/>
   </g>
   <g id="patch_5">
    <path d="M 126 504 
L 907.2 504 
" style="fill:none;stroke:#ffffff;stroke-linecap:square;stroke-linejoin:miter;stroke-width:0.8;"/>
   </g>
   <g id="patch_6">
    <path d="M 126 69.12 
L 907.2 69.12 
" style="fill:none;stroke:#ffffff;stroke-linecap:square;stroke-linejoin:miter;stroke-width:0.8;"/>
   </g>
   <g id="text_17">
    <!-- instance 15 with error 0.0 -->
    <g style="fill:#ffffff;" transform="translate(439.126875 63.12)scale(0.12 -0.12)">
     <defs>
      <path d="M 2834 3397 
L 2834 2853 
Q 2591 2978 2328 3040 
Q 2066 3103 1784 3103 
Q 1356 3103 1142 2972 
Q 928 2841 928 2578 
Q 928 2378 1081 2264 
Q 1234 2150 1697 2047 
L 1894 2003 
Q 2506 1872 2764 1633 
Q 3022 1394 3022 966 
Q 3022 478 2636 193 
Q 2250 -91 1575 -91 
Q 1294 -91 989 -36 
Q 684 19 347 128 
L 347 722 
Q 666 556 975 473 
Q 1284 391 1588 391 
Q 1994 391 2212 530 
Q 2431 669 2431 922 
Q 2431 1156 2273 1281 
Q 2116 1406 1581 1522 
L 1381 1569 
Q 847 1681 609 1914 
Q 372 2147 372 2553 
Q 372 3047 722 3315 
Q 1072 3584 1716 3584 
Q 2034 3584 2315 3537 
Q 2597 3491 2834 3397 
z
" id="DejaVuSans-73" transform="scale(0.015625)"/>
      <path d="M 3122 3366 
L 3122 2828 
Q 2878 2963 2633 3030 
Q 2388 3097 2138 3097 
Q 1578 3097 1268 2742 
Q 959 2388 959 1747 
Q 959 1106 1268 751 
Q 1578 397 2138 397 
Q 2388 397 2633 464 
Q 2878 531 3122 666 
L 3122 134 
Q 2881 22 2623 -34 
Q 2366 -91 2075 -91 
Q 1284 -91 818 406 
Q 353 903 353 1747 
Q 353 2603 823 3093 
Q 1294 3584 2113 3584 
Q 2378 3584 2631 3529 
Q 2884 3475 3122 3366 
z
" id="DejaVuSans-63" transform="scale(0.015625)"/>
      <path id="DejaVuSans-20" transform="scale(0.015625)"/>
      <path d="M 269 3500 
L 844 3500 
L 1563 769 
L 2278 3500 
L 2956 3500 
L 3675 769 
L 4391 3500 
L 4966 3500 
L 4050 0 
L 3372 0 
L 2619 2869 
L 1863 0 
L 1184 0 
L 269 3500 
z
" id="DejaVuSans-77" transform="scale(0.015625)"/>
      <path d="M 3513 2113 
L 3513 0 
L 2938 0 
L 2938 2094 
Q 2938 2591 2744 2837 
Q 2550 3084 2163 3084 
Q 1697 3084 1428 2787 
Q 1159 2491 1159 1978 
L 1159 0 
L 581 0 
L 581 4863 
L 1159 4863 
L 1159 2956 
Q 1366 3272 1645 3428 
Q 1925 3584 2291 3584 
Q 2894 3584 3203 3211 
Q 3513 2838 3513 2113 
z
" id="DejaVuSans-68" transform="scale(0.015625)"/>
      <path d="M 684 794 
L 1344 794 
L 1344 0 
L 684 0 
L 684 794 
z
" id="DejaVuSans-2e" transform="scale(0.015625)"/>
     </defs>
     <use xlink:href="#DejaVuSans-69"/>
     <use x="27.783203" xlink:href="#DejaVuSans-6e"/>
     <use x="91.162109" xlink:href="#DejaVuSans-73"/>
     <use x="143.261719" xlink:href="#DejaVuSans-74"/>
     <use x="182.470703" xlink:href="#DejaVuSans-61"/>
     <use x="243.75" xlink:href="#DejaVuSans-6e"/>
     <use x="307.128906" xlink:href="#DejaVuSans-63"/>
     <use x="362.109375" xlink:href="#DejaVuSans-65"/>
     <use x="423.632812" xlink:href="#DejaVuSans-20"/>
     <use x="455.419922" xlink:href="#DejaVuSans-31"/>
     <use x="519.042969" xlink:href="#DejaVuSans-35"/>
     <use x="582.666016" xlink:href="#DejaVuSans-20"/>
     <use x="614.453125" xlink:href="#DejaVuSans-77"/>
     <use x="696.240234" xlink:href="#DejaVuSans-69"/>
     <use x="724.023438" xlink:href="#DejaVuSans-74"/>
     <use x="763.232422" xlink:href="#DejaVuSans-68"/>
     <use x="826.611328" xlink:href="#DejaVuSans-20"/>
     <use x="858.398438" xlink:href="#DejaVuSans-65"/>
     <use x="919.921875" xlink:href="#DejaVuSans-72"/>
     <use x="959.285156" xlink:href="#DejaVuSans-72"/>
     <use x="998.148438" xlink:href="#DejaVuSans-6f"/>
     <use x="1059.330078" xlink:href="#DejaVuSans-72"/>
     <use x="1100.443359" xlink:href="#DejaVuSans-20"/>
     <use x="1132.230469" xlink:href="#DejaVuSans-30"/>
     <use x="1195.853516" xlink:href="#DejaVuSans-2e"/>
     <use x="1227.640625" xlink:href="#DejaVuSans-30"/>
    </g>
   </g>
   <g id="legend_1">
    <g id="patch_7">
     <path d="M 805.348438 499 
L 900.2 499 
Q 902.2 499 902.2 497 
L 902.2 453.965625 
Q 902.2 451.965625 900.2 451.965625 
L 805.348438 451.965625 
Q 803.348438 451.965625 803.348438 453.965625 
L 803.348438 497 
Q 803.348438 499 805.348438 499 
z
" style="opacity:0.8;stroke:#cccccc;stroke-linejoin:miter;"/>
    </g>
    <g id="line2d_19">
     <path d="M 807.348438 460.064062 
L 827.348438 460.064062 
" style="fill:none;stroke:#8dd3c7;stroke-linecap:square;stroke-width:1.5;"/>
    </g>
    <g id="line2d_20"/>
    <g id="text_18">
     <!-- cost -->
     <g style="fill:#ffffff;" transform="translate(835.348438 463.564062)scale(0.1 -0.1)">
      <use xlink:href="#DejaVuSans-63"/>
      <use x="54.980469" xlink:href="#DejaVuSans-6f"/>
      <use x="116.162109" xlink:href="#DejaVuSans-73"/>
      <use x="168.261719" xlink:href="#DejaVuSans-74"/>
     </g>
    </g>
    <g id="line2d_21">
     <path d="M 807.348438 474.742188 
L 827.348438 474.742188 
" style="fill:none;stroke:#feffb3;stroke-linecap:square;stroke-width:1.5;"/>
    </g>
    <g id="line2d_22"/>
    <g id="text_19">
     <!-- best cost -->
     <g style="fill:#ffffff;" transform="translate(835.348438 478.242188)scale(0.1 -0.1)">
      <defs>
       <path d="M 3116 1747 
Q 3116 2381 2855 2742 
Q 2594 3103 2138 3103 
Q 1681 3103 1420 2742 
Q 1159 2381 1159 1747 
Q 1159 1113 1420 752 
Q 1681 391 2138 391 
Q 2594 391 2855 752 
Q 3116 1113 3116 1747 
z
M 1159 2969 
Q 1341 3281 1617 3432 
Q 1894 3584 2278 3584 
Q 2916 3584 3314 3078 
Q 3713 2572 3713 1747 
Q 3713 922 3314 415 
Q 2916 -91 2278 -91 
Q 1894 -91 1617 61 
Q 1341 213 1159 525 
L 1159 0 
L 581 0 
L 581 4863 
L 1159 4863 
L 1159 2969 
z
" id="DejaVuSans-62" transform="scale(0.015625)"/>
      </defs>
      <use xlink:href="#DejaVuSans-62"/>
      <use x="63.476562" xlink:href="#DejaVuSans-65"/>
      <use x="125" xlink:href="#DejaVuSans-73"/>
      <use x="177.099609" xlink:href="#DejaVuSans-74"/>
      <use x="216.308594" xlink:href="#DejaVuSans-20"/>
      <use x="248.095703" xlink:href="#DejaVuSans-63"/>
      <use x="303.076172" xlink:href="#DejaVuSans-6f"/>
      <use x="364.257812" xlink:href="#DejaVuSans-73"/>
      <use x="416.357422" xlink:href="#DejaVuSans-74"/>
     </g>
    </g>
    <g id="line2d_23">
     <path d="M 807.348438 489.420313 
L 827.348438 489.420313 
" style="fill:none;stroke:#bfbbd9;stroke-linecap:square;stroke-width:1.5;"/>
    </g>
    <g id="line2d_24"/>
    <g id="text_20">
     <!-- temperature -->
     <g style="fill:#ffffff;" transform="translate(835.348438 492.920313)scale(0.1 -0.1)">
      <defs>
       <path d="M 3328 2828 
Q 3544 3216 3844 3400 
Q 4144 3584 4550 3584 
Q 5097 3584 5394 3201 
Q 5691 2819 5691 2113 
L 5691 0 
L 5113 0 
L 5113 2094 
Q 5113 2597 4934 2840 
Q 4756 3084 4391 3084 
Q 3944 3084 3684 2787 
Q 3425 2491 3425 1978 
L 3425 0 
L 2847 0 
L 2847 2094 
Q 2847 2600 2669 2842 
Q 2491 3084 2119 3084 
Q 1678 3084 1418 2786 
Q 1159 2488 1159 1978 
L 1159 0 
L 581 0 
L 581 3500 
L 1159 3500 
L 1159 2956 
Q 1356 3278 1631 3431 
Q 1906 3584 2284 3584 
Q 2666 3584 2933 3390 
Q 3200 3197 3328 2828 
z
" id="DejaVuSans-6d" transform="scale(0.015625)"/>
       <path d="M 1159 525 
L 1159 -1331 
L 581 -1331 
L 581 3500 
L 1159 3500 
L 1159 2969 
Q 1341 3281 1617 3432 
Q 1894 3584 2278 3584 
Q 2916 3584 3314 3078 
Q 3713 2572 3713 1747 
Q 3713 922 3314 415 
Q 2916 -91 2278 -91 
Q 1894 -91 1617 61 
Q 1341 213 1159 525 
z
M 3116 1747 
Q 3116 2381 2855 2742 
Q 2594 3103 2138 3103 
Q 1681 3103 1420 2742 
Q 1159 2381 1159 1747 
Q 1159 1113 1420 752 
Q 1681 391 2138 391 
Q 2594 391 2855 752 
Q 3116 1113 3116 1747 
z
" id="DejaVuSans-70" transform="scale(0.015625)"/>
       <path d="M 544 1381 
L 544 3500 
L 1119 3500 
L 1119 1403 
Q 1119 906 1312 657 
Q 1506 409 1894 409 
Q 2359 409 2629 706 
Q 2900 1003 2900 1516 
L 2900 3500 
L 3475 3500 
L 3475 0 
L 2900 0 
L 2900 538 
Q 2691 219 2414 64 
Q 2138 -91 1772 -91 
Q 1169 -91 856 284 
Q 544 659 544 1381 
z
M 1991 3584 
L 1991 3584 
z
" id="DejaVuSans-75" transform="scale(0.015625)"/>
      </defs>
      <use xlink:href="#DejaVuSans-74"/>
      <use x="39.208984" xlink:href="#DejaVuSans-65"/>
      <use x="100.732422" xlink:href="#DejaVuSans-6d"/>
      <use x="198.144531" xlink:href="#DejaVuSans-70"/>
      <use x="261.621094" xlink:href="#DejaVuSans-65"/>
      <use x="323.144531" xlink:href="#DejaVuSans-72"/>
      <use x="364.257812" xlink:href="#DejaVuSans-61"/>
      <use x="425.537109" xlink:href="#DejaVuSans-74"/>
      <use x="464.746094" xlink:href="#DejaVuSans-75"/>
      <use x="528.125" xlink:href="#DejaVuSans-72"/>
      <use x="566.988281" xlink:href="#DejaVuSans-65"/>
     </g>
    </g>
   </g>
  </g>
 </g>
 <defs>
  <clipPath id="p7bf1a754d8">
   <rect height="434.88" width="781.2" x="126" y="69.12"/>
  </clipPath>
 </defs>
</svg>
